<svg width="25" height="21" viewBox="0 0 25 21" fill="none" xmlns="http://www.w3.org/2000/svg">
<path d="M23.1114 11.5991L21.0051 13.9782L20.9877 13.9976C19.8065 15.4347 16.3212 16.4737 12.2074 16.4737C8.08788 16.4737 4.60256 15.4347 3.42139 13.9976L3.40393 13.9782L1.29761 11.5991C1.71654 12.0264 2.29258 12.4245 3.00245 12.7741C5.13787 13.8228 8.46609 14.5025 12.2074 14.5025C15.9488 14.5025 19.2712 13.8228 21.4066 12.7741C22.1165 12.4245 22.6925 12.0263 23.1114 11.5991Z" fill="white" stroke="#4141AA" stroke-miterlimit="10"/>
<path d="M23.1116 8.41422L21.0053 6.03518L20.9879 6.01576C19.8067 4.58838 16.3214 3.54932 12.2076 3.54932C8.09389 3.54932 4.61438 4.57864 3.4274 6.0157L3.38085 6.06427L1.2978 8.41422C0.809036 8.90937 0.541382 9.44348 0.541381 10.0067C0.541381 10.5699 0.809036 11.1137 1.2978 11.5992C1.71673 12.0265 2.29277 12.4246 3.00264 12.7742C5.13806 13.8229 8.46628 14.5026 12.2076 14.5026C15.949 14.5026 19.2714 13.8229 21.4068 12.7742C22.1167 12.4246 22.6927 12.0265 23.1116 11.5992C23.6004 11.1137 23.868 10.5699 23.868 10.0067C23.868 9.44348 23.6004 8.90937 23.1116 8.41422Z" fill="white" stroke="#4141AA" stroke-miterlimit="10"/>
</svg>
