<svg width="52" height="24" viewBox="0 0 52 24" fill="none" xmlns="http://www.w3.org/2000/svg">
<rect x="2" y="1.98901" width="49" height="20" rx="10" fill="url(#paint0_linear_46_4315)"/>
<rect x="2" y="1.98901" width="49" height="20" rx="10" stroke="#1F331F" stroke-width="3" stroke-linejoin="round"/>
<path d="M10.0293 15.989V7.39917H11.7637V10.78H15.1621V7.39917H16.8965V15.989H15.1621V12.2332H11.7637V15.989H10.0293ZM18.6426 15.989V7.39917H20.377V15.989H18.6426ZM22.0469 15.989V7.39917H27.9355V8.85229H23.7812V10.8855H27.3672V12.3386H23.7812V15.989H22.0469ZM33.2207 15.989H31.5742V9.78394C30.9727 10.3464 30.2637 10.7625 29.4473 11.032V9.53784C29.877 9.39722 30.3438 9.13159 30.8477 8.74097C31.3516 8.34644 31.6973 7.88745 31.8848 7.36401H33.2207V15.989ZM43.7969 15.989H41.9102L41.1602 14.0378H37.7266L37.0176 15.989H35.1777L38.5234 7.39917H40.3574L43.7969 15.989ZM40.6035 12.5906L39.4199 9.40308L38.2598 12.5906H40.6035Z" fill="white"/>
<defs>
<linearGradient id="paint0_linear_46_4315" x1="26.5" y1="1.98901" x2="26.5" y2="21.989" gradientUnits="userSpaceOnUse">
<stop stop-color="#1F331F"/>
<stop offset="1" stop-color="#9BFF9B"/>
</linearGradient>
</defs>
</svg>
