<svg width="49" height="24" viewBox="0 0 49 24" fill="none" xmlns="http://www.w3.org/2000/svg">
<rect x="2" y="1.98901" width="46" height="20" rx="10" fill="url(#paint0_linear_35_1560)"/>
<rect x="2" y="1.98901" width="46" height="20" rx="10" stroke="#1A7564" stroke-width="3" stroke-linejoin="round"/>
<path d="M10.1992 7.39917H13.6328C14.3125 7.39917 14.8184 7.42847 15.1504 7.48706C15.4863 7.54175 15.7852 7.65894 16.0469 7.83862C16.3125 8.01831 16.5332 8.25854 16.709 8.55933C16.8848 8.8562 16.9727 9.19019 16.9727 9.56128C16.9727 9.96362 16.8633 10.3328 16.6445 10.6687C16.4297 11.0046 16.1367 11.2566 15.7656 11.4246C16.2891 11.5769 16.6914 11.8367 16.9727 12.2039C17.2539 12.571 17.3945 13.0027 17.3945 13.4988C17.3945 13.8894 17.3027 14.2703 17.1191 14.6414C16.9395 15.0085 16.6914 15.3035 16.375 15.5261C16.0625 15.7449 15.6758 15.8796 15.2148 15.9304C14.9258 15.9617 14.2285 15.9812 13.123 15.989H10.1992V7.39917ZM11.9336 8.82886V10.8152H13.0703C13.7461 10.8152 14.166 10.8054 14.3301 10.7859C14.627 10.7507 14.8594 10.6492 15.0273 10.4812C15.1992 10.3093 15.2852 10.0847 15.2852 9.80737C15.2852 9.54175 15.2109 9.3269 15.0625 9.16284C14.918 8.99487 14.7012 8.89331 14.4121 8.85815C14.2402 8.83862 13.7461 8.82886 12.9297 8.82886H11.9336ZM11.9336 12.2449V14.5417H13.5391C14.1641 14.5417 14.5605 14.5242 14.7285 14.489C14.9863 14.4421 15.1953 14.3289 15.3555 14.1492C15.5195 13.9656 15.6016 13.7214 15.6016 13.4167C15.6016 13.1589 15.5391 12.9402 15.4141 12.7605C15.2891 12.5808 15.1074 12.45 14.8691 12.3679C14.6348 12.2859 14.123 12.2449 13.334 12.2449H11.9336ZM18.8652 15.989V7.39917H25.2344V8.85229H20.5996V10.7566H24.9121V12.2039H20.5996V14.5417H25.3984V15.989H18.8652ZM25.9961 15.989L28.9316 11.5066L26.2715 7.39917H28.2988L30.0215 10.1589L31.709 7.39917H33.7188L31.0469 11.571L33.9824 15.989H31.8906L29.9863 13.0183L28.0762 15.989H25.9961ZM34.4512 13.7097L36.0449 13.5164C36.0957 13.9226 36.2324 14.2332 36.4551 14.448C36.6777 14.6628 36.9473 14.7703 37.2637 14.7703C37.6035 14.7703 37.8887 14.6414 38.1191 14.3835C38.3535 14.1257 38.4707 13.7781 38.4707 13.3406C38.4707 12.9265 38.3594 12.5984 38.1367 12.3562C37.9141 12.114 37.6426 11.9929 37.3223 11.9929C37.1113 11.9929 36.8594 12.0339 36.5664 12.116L36.748 10.7742C37.1934 10.7859 37.5332 10.6902 37.7676 10.4871C38.002 10.28 38.1191 10.0066 38.1191 9.66675C38.1191 9.37769 38.0332 9.14722 37.8613 8.97534C37.6895 8.80347 37.4609 8.71753 37.1758 8.71753C36.8945 8.71753 36.6543 8.81519 36.4551 9.0105C36.2559 9.20581 36.1348 9.49097 36.0918 9.86597L34.5742 9.60815C34.6797 9.08862 34.8379 8.67456 35.0488 8.36597C35.2637 8.05347 35.5605 7.80933 35.9395 7.63354C36.3223 7.45386 36.75 7.36401 37.2227 7.36401C38.0312 7.36401 38.6797 7.62183 39.168 8.13745C39.5703 8.55933 39.7715 9.03589 39.7715 9.56714C39.7715 10.321 39.3594 10.9226 38.5352 11.3718C39.0273 11.4773 39.4199 11.7136 39.7129 12.0808C40.0098 12.448 40.1582 12.8914 40.1582 13.4109C40.1582 14.1648 39.8828 14.8074 39.332 15.3386C38.7812 15.8699 38.0957 16.1355 37.2754 16.1355C36.498 16.1355 35.8535 15.9128 35.3418 15.4675C34.8301 15.0183 34.5332 14.4324 34.4512 13.7097Z" fill="white"/>
<defs>
<linearGradient id="paint0_linear_35_1560" x1="25" y1="1.98901" x2="25" y2="21.989" gradientUnits="userSpaceOnUse">
<stop stop-color="#1A7564"/>
<stop offset="1" stop-color="#BB1D8C"/>
</linearGradient>
</defs>
</svg>
