<svg width="44" height="24" viewBox="0 0 44 24" fill="none" xmlns="http://www.w3.org/2000/svg">
<rect x="2" y="1.98901" width="41" height="20" rx="10" fill="url(#paint0_linear_50_1833)"/>
<rect x="2" y="1.98901" width="41" height="20" rx="10" stroke="#D67BB2" stroke-width="3" stroke-linejoin="round"/>
<path d="M10.3066 15.989V7.39917H12.041V15.989H10.3066ZM13.7051 15.989V7.39917H17.3555C18.2734 7.39917 18.9395 7.47729 19.3535 7.63354C19.7715 7.78589 20.1055 8.05933 20.3555 8.45386C20.6055 8.84839 20.7305 9.29956 20.7305 9.80737C20.7305 10.4519 20.541 10.9851 20.1621 11.407C19.7832 11.825 19.2168 12.0886 18.4629 12.198C18.8379 12.4167 19.1465 12.657 19.3887 12.9187C19.6348 13.1804 19.9648 13.6453 20.3789 14.3132L21.4277 15.989H19.3535L18.0996 14.1199C17.6543 13.4519 17.3496 13.032 17.1855 12.8601C17.0215 12.6843 16.8477 12.5652 16.6641 12.5027C16.4805 12.4363 16.1895 12.4031 15.791 12.4031H15.4395V15.989H13.7051ZM15.4395 11.032H16.7227C17.5547 11.032 18.0742 10.9968 18.2812 10.9265C18.4883 10.8562 18.6504 10.7351 18.7676 10.5632C18.8848 10.3914 18.9434 10.1765 18.9434 9.9187C18.9434 9.62964 18.8652 9.39722 18.709 9.22144C18.5566 9.04175 18.3398 8.92847 18.0586 8.88159C17.918 8.86206 17.4961 8.85229 16.793 8.85229H15.4395V11.032ZM22.3828 15.989V7.39917H28.2715V8.85229H24.1172V10.8855H27.7031V12.3386H24.1172V15.989H22.3828ZM29.2852 13.7097L30.8789 13.5164C30.9297 13.9226 31.0664 14.2332 31.2891 14.448C31.5117 14.6628 31.7812 14.7703 32.0977 14.7703C32.4375 14.7703 32.7227 14.6414 32.9531 14.3835C33.1875 14.1257 33.3047 13.7781 33.3047 13.3406C33.3047 12.9265 33.1934 12.5984 32.9707 12.3562C32.748 12.114 32.4766 11.9929 32.1562 11.9929C31.9453 11.9929 31.6934 12.0339 31.4004 12.116L31.582 10.7742C32.0273 10.7859 32.3672 10.6902 32.6016 10.4871C32.8359 10.28 32.9531 10.0066 32.9531 9.66675C32.9531 9.37769 32.8672 9.14722 32.6953 8.97534C32.5234 8.80347 32.2949 8.71753 32.0098 8.71753C31.7285 8.71753 31.4883 8.81519 31.2891 9.0105C31.0898 9.20581 30.9688 9.49097 30.9258 9.86597L29.4082 9.60815C29.5137 9.08862 29.6719 8.67456 29.8828 8.36597C30.0977 8.05347 30.3945 7.80933 30.7734 7.63354C31.1562 7.45386 31.584 7.36401 32.0566 7.36401C32.8652 7.36401 33.5137 7.62183 34.002 8.13745C34.4043 8.55933 34.6055 9.03589 34.6055 9.56714C34.6055 10.321 34.1934 10.9226 33.3691 11.3718C33.8613 11.4773 34.2539 11.7136 34.5469 12.0808C34.8438 12.448 34.9922 12.8914 34.9922 13.4109C34.9922 14.1648 34.7168 14.8074 34.166 15.3386C33.6152 15.8699 32.9297 16.1355 32.1094 16.1355C31.332 16.1355 30.6875 15.9128 30.1758 15.4675C29.6641 15.0183 29.3672 14.4324 29.2852 13.7097Z" fill="white"/>
<defs>
<linearGradient id="paint0_linear_50_1833" x1="22.5" y1="1.98901" x2="22.5" y2="21.989" gradientUnits="userSpaceOnUse">
<stop stop-color="#25265E"/>
<stop offset="1" stop-color="#D67BB2"/>
</linearGradient>
</defs>
</svg>
