<svg width="58" height="24" viewBox="0 0 58 24" fill="none" xmlns="http://www.w3.org/2000/svg">
<rect x="2" y="1.98901" width="55" height="20" rx="10" fill="url(#paint0_linear_65_1986)"/>
<rect x="2" y="1.98901" width="55" height="20" rx="10" stroke="#8D7B00" stroke-width="3" stroke-linejoin="round"/>
<path d="M10.3574 15.989V7.39917H13.1406C14.1953 7.39917 14.8828 7.44214 15.2031 7.52808C15.6953 7.65698 16.1074 7.93823 16.4395 8.37183C16.7715 8.80151 16.9375 9.35815 16.9375 10.0417C16.9375 10.5691 16.8418 11.0125 16.6504 11.3718C16.459 11.7312 16.2148 12.0144 15.918 12.2214C15.625 12.4246 15.3262 12.5593 15.0215 12.6257C14.6074 12.7078 14.0078 12.7488 13.2227 12.7488H12.0918V15.989H10.3574ZM12.0918 8.85229V11.2898H13.041C13.7246 11.2898 14.1816 11.2449 14.4121 11.155C14.6426 11.0652 14.8223 10.9246 14.9512 10.7332C15.084 10.5417 15.1504 10.3191 15.1504 10.0652C15.1504 9.75269 15.0586 9.49487 14.875 9.29175C14.6914 9.08862 14.459 8.96167 14.1777 8.91089C13.9707 8.87183 13.5547 8.85229 12.9297 8.85229H12.0918ZM18.4082 15.989V7.46948H20.1426V14.5417H24.4551V15.989H18.4082ZM31.1934 12.8308L32.875 13.364C32.6172 14.3015 32.1875 14.9988 31.5859 15.4558C30.9883 15.9089 30.2285 16.1355 29.3066 16.1355C28.166 16.1355 27.2285 15.7468 26.4941 14.9695C25.7598 14.1882 25.3926 13.1218 25.3926 11.7703C25.3926 10.3406 25.7617 9.2312 26.5 8.44214C27.2383 7.64917 28.209 7.25269 29.4121 7.25269C30.4629 7.25269 31.3164 7.56323 31.9727 8.18433C32.3633 8.55151 32.6562 9.07886 32.8516 9.76636L31.1348 10.1765C31.0332 9.7312 30.8203 9.37964 30.4961 9.12183C30.1758 8.86401 29.7852 8.73511 29.3242 8.73511C28.6875 8.73511 28.1699 8.96362 27.7715 9.42065C27.377 9.87769 27.1797 10.6179 27.1797 11.6414C27.1797 12.7273 27.375 13.5007 27.7656 13.9617C28.1562 14.4226 28.6641 14.6531 29.2891 14.6531C29.75 14.6531 30.1465 14.5066 30.4785 14.2136C30.8105 13.9207 31.0488 13.4597 31.1934 12.8308ZM38.3652 12.8308V11.3835H42.1035V14.8054C41.7402 15.157 41.2129 15.4675 40.5215 15.7371C39.834 16.0027 39.1367 16.1355 38.4297 16.1355C37.5312 16.1355 36.748 15.948 36.0801 15.573C35.4121 15.1941 34.9102 14.655 34.5742 13.9558C34.2383 13.2527 34.0703 12.489 34.0703 11.6648C34.0703 10.7703 34.2578 9.97534 34.6328 9.28003C35.0078 8.58472 35.5566 8.05151 36.2793 7.68042C36.8301 7.39526 37.5156 7.25269 38.3359 7.25269C39.4023 7.25269 40.2344 7.47729 40.832 7.92651C41.4336 8.37183 41.8203 8.98901 41.9922 9.77808L40.2695 10.1003C40.1484 9.67847 39.9199 9.34644 39.584 9.10425C39.252 8.85815 38.8359 8.73511 38.3359 8.73511C37.5781 8.73511 36.9746 8.97534 36.5254 9.45581C36.0801 9.93628 35.8574 10.6492 35.8574 11.5945C35.8574 12.614 36.084 13.3796 36.5371 13.8914C36.9902 14.3992 37.584 14.6531 38.3184 14.6531C38.6816 14.6531 39.0449 14.5828 39.4082 14.4421C39.7754 14.2976 40.0898 14.1238 40.3516 13.9207V12.8308H38.3652ZM48.9062 14.4597V15.989H43.1348C43.1973 15.4109 43.3848 14.864 43.6973 14.3484C44.0098 13.8289 44.627 13.1414 45.5488 12.2859C46.291 11.5945 46.7461 11.1257 46.9141 10.8796C47.1406 10.5398 47.2539 10.2039 47.2539 9.87183C47.2539 9.50464 47.1543 9.22339 46.9551 9.02808C46.7598 8.82886 46.4883 8.72925 46.1406 8.72925C45.7969 8.72925 45.5234 8.83276 45.3203 9.03979C45.1172 9.24683 45 9.59058 44.9688 10.071L43.3281 9.90698C43.4258 9.00073 43.7324 8.35034 44.248 7.95581C44.7637 7.56128 45.4082 7.36401 46.1816 7.36401C47.0293 7.36401 47.6953 7.59253 48.1797 8.04956C48.6641 8.50659 48.9062 9.07495 48.9062 9.75464C48.9062 10.1414 48.8359 10.5105 48.6953 10.8621C48.5586 11.2097 48.3398 11.575 48.0391 11.9578C47.8398 12.2117 47.4805 12.5769 46.9609 13.0535C46.4414 13.53 46.1113 13.8464 45.9707 14.0027C45.834 14.1589 45.7227 14.3113 45.6367 14.4597H48.9062Z" fill="white"/>
<defs>
<linearGradient id="paint0_linear_65_1986" x1="29.5" y1="1.98901" x2="29.5" y2="21.989" gradientUnits="userSpaceOnUse">
<stop stop-color="#8D7B00"/>
<stop offset="1" stop-color="#D9D636"/>
</linearGradient>
</defs>
</svg>
