<svg width="44" height="32" viewBox="0 0 44 32" fill="none" xmlns="http://www.w3.org/2000/svg">
<path d="M2.23077 9.22619L21.2308 1.30953C21.7231 1.1044 22.2769 1.1044 22.7692 1.30953L41.7692 9.22619C42.5145 9.53673 43 10.2649 43 11.0723V20.9057C43 21.7131 42.5145 22.4413 41.7692 22.7518L22.7692 30.6685C22.2769 30.8736 21.7231 30.8736 21.2308 30.6685L2.23077 22.7518C1.48548 22.4413 1 21.7131 1 20.9057V11.0723C1 10.2649 1.48548 9.53673 2.23077 9.22619Z" fill="url(#paint0_linear_97_6025)"/>
<path d="M42.0049 15.1992C42.0072 14.9162 42.0097 14.6332 42.0123 14.3501C42.0174 13.8038 42.0229 13.2575 42.0291 12.7112C42.0352 12.1649 42.0419 11.6186 42.0493 11.0724C42.0491 10.9713 42.0469 10.9483 42.0345 10.8668C42.0229 10.799 42.0046 10.7322 41.9799 10.6675C41.9552 10.6028 41.924 10.5402 41.8869 10.4811C41.8499 10.4219 41.8069 10.3663 41.7589 10.3153C41.7109 10.2642 41.6579 10.2179 41.6007 10.177C41.5316 10.1302 41.51 10.1143 41.4171 10.0712C40.3689 9.61378 39.3218 9.15368 38.2759 8.69063C37.2301 8.22757 36.1854 7.76153 35.1422 7.29222C34.0989 6.8229 33.057 6.3503 32.0166 5.8741C30.9762 5.3979 29.9373 4.9181 28.9001 4.43439C27.8628 3.95067 26.8272 3.46304 25.7933 2.97118C24.7594 2.47932 23.7273 1.98323 22.6971 1.48259C22.6218 1.44592 22.5532 1.41725 22.4755 1.39085C22.3994 1.36505 22.3213 1.34416 22.2419 1.32842C22.1624 1.31269 22.0815 1.30212 22 1.29689C21.9185 1.29166 21.8362 1.29177 21.754 1.29731C21.6718 1.30286 21.5896 1.31383 21.5082 1.33024C21.4267 1.34666 21.346 1.36849 21.2667 1.39568C21.2427 1.33823 21.2188 1.28077 21.1949 1.22332C21.2776 1.183 21.3632 1.14803 21.4512 1.11879C21.5391 1.08955 21.6294 1.06604 21.7211 1.04857C21.8128 1.03109 21.9061 1.01965 22 1.01442C22.0939 1.00919 22.1885 1.01017 22.283 1.01746C22.3775 1.02474 22.4718 1.03833 22.5652 1.05818C22.6569 1.07743 22.7547 1.10557 22.8414 1.13641C23.9223 1.5154 25.0013 1.89894 26.0785 2.28671C27.1557 2.67448 28.2312 3.06648 29.3051 3.46239C30.3789 3.85831 31.4511 4.25814 32.5219 4.66157C33.5926 5.06499 34.6618 5.47202 35.7296 5.88234C36.7975 6.29265 37.864 6.70625 38.9292 7.12282C39.9944 7.53939 41.0585 7.95894 42.1213 8.38112C42.2699 8.43864 42.4796 8.54673 42.6275 8.64557C42.7874 8.75021 42.937 8.87073 43.0736 9.00485C43.2101 9.1389 43.3335 9.28647 43.4413 9.44479C43.5492 9.60309 43.6417 9.77219 43.7169 9.94897C43.7921 10.1258 43.8499 10.3102 43.8892 10.4988C43.9276 10.6736 43.951 10.9118 43.9508 11.0724C43.9581 11.6186 43.9648 12.1649 43.971 12.7112C43.9771 13.2575 43.9827 13.8038 43.9877 14.3501C43.9903 14.6332 43.9928 14.9162 43.9952 15.1992C43.9965 15.4625 43.9976 15.7258 43.9984 15.989C44 16.5353 44.0004 17.0816 43.9996 17.6279C43.9989 18.1742 43.997 18.7205 43.9943 19.2668C43.9915 19.8131 43.9879 20.3594 43.9834 20.9057C43.9844 21.0672 43.9614 21.3093 43.9232 21.486C43.8842 21.6769 43.8263 21.8638 43.7508 22.0431C43.6753 22.2223 43.5823 22.3939 43.4736 22.5547C43.3648 22.7155 43.2403 22.8655 43.1024 23.0019C42.9645 23.1384 42.8132 23.2612 42.6514 23.368C42.5021 23.4687 42.2883 23.5797 42.1386 23.6383C41.0781 24.0662 40.0167 24.492 38.9551 24.9174C38.0787 25.2686 37.2022 25.6194 36.3259 25.9707C36.1408 26.0453 35.9558 26.1198 35.7707 26.1942C34.7095 26.6205 33.6466 27.0427 32.5822 27.4612C31.5178 27.8798 30.4518 28.2946 29.3845 28.7062C28.3171 29.1177 27.2485 29.5261 26.1786 29.9315C25.1088 30.3369 24.0379 30.7395 22.966 31.1396C22.9659 31.1397 22.9657 31.1397 22.9656 31.1398C22.8734 31.1755 22.753 31.2138 22.6508 31.2379C22.5441 31.2636 22.4359 31.2822 22.3271 31.2936C22.2183 31.3051 22.109 31.3094 22 31.3065C21.891 31.3036 21.7825 31.2935 21.6752 31.2765C21.5679 31.2594 21.4619 31.2353 21.3582 31.2044C21.2585 31.1751 21.1432 31.1324 21.0544 31.0919C20.0127 30.6187 18.9697 30.1488 17.9245 29.684C16.8794 29.2191 15.8322 28.7593 14.7821 28.3064C13.732 27.8534 12.6791 27.4073 11.6225 26.9699C10.868 26.6575 10.1117 26.3496 9.35322 26.0467C9.04966 25.9253 8.74573 25.8048 8.44147 25.685C7.37718 25.2662 6.3089 24.857 5.23844 24.4529C4.168 24.0488 3.09536 23.6499 2.02242 23.2519C1.88379 23.201 1.71016 23.115 1.57552 23.0296C1.43378 22.9408 1.3004 22.8378 1.17802 22.7224C1.05566 22.607 0.944339 22.4793 0.846271 22.3415C0.748187 22.2037 0.663335 22.0559 0.593545 21.9007C0.523716 21.7454 0.468994 21.5827 0.430657 21.4158C0.392841 21.2579 0.369087 21.0564 0.365317 20.9057C0.344133 20.3594 0.323473 19.8131 0.303852 19.2668C0.28423 18.7205 0.265647 18.1742 0.248615 17.6279C0.239786 17.3447 0.231374 17.0615 0.223451 16.7784C0.217467 16.5153 0.211993 16.2521 0.207008 15.989C0.196657 15.4427 0.188416 14.8964 0.182096 14.3501C0.175777 13.8038 0.17138 13.2575 0.168719 12.7112C0.166059 12.1649 0.165135 11.6186 0.165762 11.0724C0.164199 10.9155 0.18496 10.6902 0.220627 10.5206C0.256989 10.3389 0.311343 10.161 0.382568 9.9901C0.45375 9.81928 0.541755 9.65564 0.644832 9.50223C0.747891 9.34881 0.866052 9.20559 0.997096 9.07529C1.12816 8.94494 1.27208 8.82759 1.42608 8.72552C1.56935 8.62867 1.76895 8.52452 1.91444 8.46695C2.97374 8.03622 4.03526 7.61066 5.09827 7.18874C5.97571 6.84046 6.85419 6.49465 7.73333 6.15042C7.91925 6.07765 8.10524 6.00502 8.29129 5.93254C9.35708 5.51731 10.4248 5.1068 11.4949 4.70174C12.5649 4.29669 13.6372 3.89709 14.7121 3.50368C15.787 3.11026 16.8645 2.72304 17.9448 2.34273C19.0252 1.96243 20.1085 1.58904 21.1948 1.22333C21.2188 1.28078 21.2427 1.33824 21.2666 1.39569C20.242 1.90957 19.2141 2.41582 18.1833 2.91514C17.1526 3.41446 16.1189 3.90686 15.0827 4.39307C14.0465 4.87928 13.0077 5.35931 11.9666 5.83389C10.9255 6.30847 9.88219 6.7776 8.83689 7.242C8.65443 7.32307 8.4719 7.404 8.28931 7.48478C7.42586 7.86663 6.56173 8.24691 5.69659 8.62471C4.64849 9.08241 3.59887 9.53649 2.5471 9.98538C2.45112 10.0284 2.41947 10.0483 2.34568 10.097C2.2826 10.1405 2.22387 10.19 2.1704 10.2448C2.11695 10.2996 2.06881 10.3596 2.02692 10.4236C1.98503 10.4877 1.94939 10.5557 1.9207 10.6264C1.89198 10.6971 1.87023 10.7703 1.85574 10.845C1.84053 10.9318 1.83573 10.9676 1.83418 11.0724C1.83481 11.6186 1.83389 12.1649 1.83123 12.7112C1.82857 13.2575 1.82417 13.8038 1.81785 14.3501C1.81153 14.8964 1.80329 15.4427 1.79294 15.989C1.78795 16.2521 1.78248 16.5153 1.77649 16.7784C1.76857 17.0615 1.76016 17.3447 1.75134 17.6279C1.73432 18.1742 1.71576 18.7205 1.69617 19.2668C1.67657 19.8131 1.65595 20.3594 1.63481 20.9057C1.63103 21.0165 1.63285 21.0762 1.64592 21.1746C1.65844 21.264 1.67983 21.3526 1.70995 21.4388C1.74004 21.5251 1.77883 21.6089 1.82572 21.6885C1.87259 21.7682 1.92757 21.8437 1.9897 21.9133C2.05185 21.983 2.12111 22.0469 2.19643 22.1036C2.27886 22.1638 2.33643 22.2018 2.43926 22.2514C3.47745 22.733 4.51599 23.2136 5.55668 23.6891C6.59739 24.1646 7.64025 24.6349 8.68706 25.0956C8.98632 25.2274 9.2859 25.3583 9.58584 25.4884C10.335 25.8136 11.0862 26.1339 11.8393 26.4497C12.8938 26.892 13.952 27.3256 15.013 27.7524C16.0739 28.1791 17.1378 28.5991 18.2037 29.0139C19.2697 29.4288 20.3378 29.8386 21.4072 30.2451C21.4804 30.2722 21.5314 30.2863 21.6012 30.3026C21.6668 30.3174 21.7333 30.3277 21.7999 30.3337C21.8666 30.3396 21.9335 30.3412 22 30.3383C22.0665 30.3354 22.1326 30.3281 22.1978 30.3165C22.263 30.305 22.3271 30.2891 22.3898 30.2692C22.4571 30.2475 22.5031 30.2291 22.5729 30.1973C22.573 30.1972 22.5731 30.1972 22.5733 30.1971C23.6122 29.7177 24.6521 29.2407 25.6932 28.7666C26.7344 28.2924 27.7769 27.8211 28.8207 27.3531C29.8645 26.885 30.9096 26.4202 31.9563 25.9591C33.003 25.498 34.0512 25.0406 35.1011 24.5873C35.2843 24.5082 35.4675 24.4293 35.6507 24.3505C36.5173 23.9756 37.3836 23.6002 38.25 23.2252C39.2995 22.7709 40.3493 22.3171 41.3998 21.8654C41.4916 21.8234 41.5091 21.8104 41.5768 21.7655C41.6321 21.7267 41.6834 21.6826 41.73 21.634C41.7766 21.5853 41.8184 21.5321 41.8546 21.4754C41.8908 21.4188 41.9215 21.3587 41.9459 21.2965C41.9703 21.2342 41.9885 21.1699 42.0004 21.1045C42.013 21.0248 42.0156 21.0057 42.0165 20.9057C42.0121 20.3594 42.0084 19.8131 42.0057 19.2668C42.0029 18.7205 42.0011 18.1742 42.0004 17.6279C41.9996 17.0816 42 16.5353 42.0016 15.989C42.0024 15.7258 42.0035 15.4625 42.0049 15.1992Z" fill="#B89616"/>
<path d="M10.2637 18.2136L11.916 17.9617C11.9863 18.282 12.1289 18.5261 12.3438 18.6941C12.5586 18.8582 12.8594 18.9402 13.2461 18.9402C13.6719 18.9402 13.9922 18.8621 14.207 18.7058C14.3516 18.5964 14.4238 18.45 14.4238 18.2664C14.4238 18.1414 14.3848 18.0378 14.3066 17.9558C14.2246 17.8777 14.041 17.8054 13.7559 17.739C12.4277 17.446 11.5859 17.1785 11.2305 16.9363C10.7383 16.6003 10.4922 16.1335 10.4922 15.5359C10.4922 14.9968 10.7051 14.5437 11.1309 14.1765C11.5566 13.8093 12.2168 13.6257 13.1113 13.6257C13.9629 13.6257 14.5957 13.7644 15.0098 14.0417C15.4238 14.3191 15.709 14.7292 15.8652 15.2722L14.3125 15.5593C14.2461 15.3171 14.1191 15.1316 13.9316 15.0027C13.748 14.8738 13.4844 14.8093 13.1406 14.8093C12.707 14.8093 12.3965 14.8699 12.209 14.991C12.084 15.0769 12.0215 15.1882 12.0215 15.325C12.0215 15.4421 12.0762 15.5417 12.1855 15.6238C12.334 15.7332 12.8457 15.8875 13.7207 16.0867C14.5996 16.2859 15.2129 16.53 15.5605 16.8191C15.9043 17.1121 16.0762 17.5203 16.0762 18.0437C16.0762 18.614 15.8379 19.1042 15.3613 19.5144C14.8848 19.9246 14.1797 20.1296 13.2461 20.1296C12.3984 20.1296 11.7266 19.9578 11.2305 19.614C10.7383 19.2703 10.416 18.8035 10.2637 18.2136ZM20.377 13.7664V15.0789H19.252V17.5867C19.252 18.0945 19.2617 18.3914 19.2812 18.4773C19.3047 18.5593 19.3535 18.6277 19.4277 18.6824C19.5059 18.7371 19.5996 18.7644 19.709 18.7644C19.8613 18.7644 20.082 18.7117 20.3711 18.6062L20.5117 19.8835C20.1289 20.0476 19.6953 20.1296 19.2109 20.1296C18.9141 20.1296 18.6465 20.0808 18.4082 19.9832C18.1699 19.8816 17.9941 19.7527 17.8809 19.5964C17.7715 19.4363 17.6953 19.2214 17.6523 18.9519C17.6172 18.7605 17.5996 18.3738 17.5996 17.7917V15.0789H16.8438V13.7664H17.5996V12.53L19.252 11.5691V13.7664H20.377ZM22.75 15.6648L21.2559 15.3953C21.4238 14.7937 21.7129 14.3484 22.123 14.0593C22.5332 13.7703 23.1426 13.6257 23.9512 13.6257C24.6855 13.6257 25.2324 13.7136 25.5918 13.8894C25.9512 14.0613 26.2031 14.282 26.3477 14.5515C26.4961 14.8171 26.5703 15.3074 26.5703 16.0222L26.5527 17.9441C26.5527 18.491 26.5781 18.8953 26.6289 19.157C26.6836 19.4148 26.7832 19.6921 26.9277 19.989H25.2988C25.2559 19.8796 25.2031 19.7175 25.1406 19.5027C25.1133 19.405 25.0938 19.3406 25.082 19.3093C24.8008 19.5828 24.5 19.7878 24.1797 19.9246C23.8594 20.0613 23.5176 20.1296 23.1543 20.1296C22.5137 20.1296 22.0078 19.9558 21.6367 19.6082C21.2695 19.2605 21.0859 18.821 21.0859 18.2898C21.0859 17.9382 21.1699 17.6257 21.3379 17.3523C21.5059 17.075 21.7402 16.864 22.041 16.7195C22.3457 16.571 22.7832 16.4421 23.3535 16.3328C24.123 16.1882 24.6562 16.0535 24.9531 15.9285V15.7644C24.9531 15.448 24.875 15.2234 24.7188 15.0906C24.5625 14.9539 24.2676 14.8855 23.834 14.8855C23.541 14.8855 23.3125 14.9441 23.1484 15.0613C22.9844 15.1746 22.8516 15.3757 22.75 15.6648ZM24.9531 17.0007C24.7422 17.071 24.4082 17.155 23.9512 17.2527C23.4941 17.3503 23.1953 17.446 23.0547 17.5398C22.8398 17.6921 22.7324 17.8855 22.7324 18.1199C22.7324 18.3503 22.8184 18.5496 22.9902 18.7175C23.1621 18.8855 23.3809 18.9695 23.6465 18.9695C23.9434 18.9695 24.2266 18.8718 24.4961 18.6765C24.6953 18.5281 24.8262 18.3464 24.8887 18.1316C24.9316 17.991 24.9531 17.7234 24.9531 17.3289V17.0007ZM32.0605 19.989H30.4141V13.7839C29.8125 14.3464 29.1035 14.7625 28.2871 15.032V13.5378C28.7168 13.3972 29.1836 13.1316 29.6875 12.741C30.1914 12.3464 30.5371 11.8875 30.7246 11.364H32.0605V19.989Z" fill="white"/>
<defs>
<linearGradient id="paint0_linear_97_6025" x1="22" y1="0.989014" x2="22" y2="30.989" gradientUnits="userSpaceOnUse">
<stop stop-color="#FFFF73"/>
<stop offset="1" stop-color="#B89616"/>
</linearGradient>
</defs>
</svg>
