<svg width="58" height="24" viewBox="0 0 58 24" fill="none" xmlns="http://www.w3.org/2000/svg">
<rect x="2" y="1.98901" width="55" height="20" rx="10" fill="url(#paint0_linear_84_2033)"/>
<rect x="2" y="1.98901" width="55" height="20" rx="10" stroke="#2A64D0" stroke-width="3" stroke-linejoin="round"/>
<path d="M12.2969 15.989V8.85229H9.74805V7.39917H16.5742V8.85229H14.0312V15.989H12.2969ZM17.7051 15.989V7.39917H21.3555C22.2734 7.39917 22.9395 7.47729 23.3535 7.63354C23.7715 7.78589 24.1055 8.05933 24.3555 8.45386C24.6055 8.84839 24.7305 9.29956 24.7305 9.80737C24.7305 10.4519 24.541 10.9851 24.1621 11.407C23.7832 11.825 23.2168 12.0886 22.4629 12.198C22.8379 12.4167 23.1465 12.657 23.3887 12.9187C23.6348 13.1804 23.9648 13.6453 24.3789 14.3132L25.4277 15.989H23.3535L22.0996 14.1199C21.6543 13.4519 21.3496 13.032 21.1855 12.8601C21.0215 12.6843 20.8477 12.5652 20.6641 12.5027C20.4805 12.4363 20.1895 12.4031 19.791 12.4031H19.4395V15.989H17.7051ZM19.4395 11.032H20.7227C21.5547 11.032 22.0742 10.9968 22.2812 10.9265C22.4883 10.8562 22.6504 10.7351 22.7676 10.5632C22.8848 10.3914 22.9434 10.1765 22.9434 9.9187C22.9434 9.62964 22.8652 9.39722 22.709 9.22144C22.5566 9.04175 22.3398 8.92847 22.0586 8.88159C21.918 8.86206 21.4961 8.85229 20.793 8.85229H19.4395V11.032ZM26.3477 15.989V7.39917H28.9434L30.502 13.2585L32.043 7.39917H34.6445V15.989H33.0332V9.22729L31.3281 15.989H29.6582L27.959 9.22729V15.989H26.3477ZM38.3008 15.989V8.85229H35.752V7.39917H42.5781V8.85229H40.0352V15.989H38.3008ZM47.5527 15.989H45.9062V9.78394C45.3047 10.3464 44.5957 10.7625 43.7793 11.032V9.53784C44.209 9.39722 44.6758 9.13159 45.1797 8.74097C45.6836 8.34644 46.0293 7.88745 46.2168 7.36401H47.5527V15.989Z" fill="white"/>
<defs>
<linearGradient id="paint0_linear_84_2033" x1="29.5" y1="1.98901" x2="29.5" y2="21.989" gradientUnits="userSpaceOnUse">
<stop stop-color="#2A64D0"/>
<stop offset="1" stop-color="#FF9000"/>
</linearGradient>
</defs>
</svg>
