<svg width="37" height="24" viewBox="0 0 37 24" fill="none" xmlns="http://www.w3.org/2000/svg">
<rect x="2" y="1.98901" width="34" height="20" rx="10" fill="#9B5BA5"/>
<rect x="2" y="1.98901" width="34" height="20" rx="10" stroke="#472053" stroke-width="3" stroke-linejoin="round"/>
<path d="M17.6934 12.8308L19.375 13.364C19.1172 14.3015 18.6875 14.9988 18.0859 15.4558C17.4883 15.9089 16.7285 16.1355 15.8066 16.1355C14.666 16.1355 13.7285 15.7468 12.9941 14.9695C12.2598 14.1882 11.8926 13.1218 11.8926 11.7703C11.8926 10.3406 12.2617 9.2312 13 8.44214C13.7383 7.64917 14.709 7.25269 15.9121 7.25269C16.9629 7.25269 17.8164 7.56323 18.4727 8.18433C18.8633 8.55151 19.1562 9.07886 19.3516 9.76636L17.6348 10.1765C17.5332 9.7312 17.3203 9.37964 16.9961 9.12183C16.6758 8.86401 16.2852 8.73511 15.8242 8.73511C15.1875 8.73511 14.6699 8.96362 14.2715 9.42065C13.877 9.87769 13.6797 10.6179 13.6797 11.6414C13.6797 12.7273 13.875 13.5007 14.2656 13.9617C14.6562 14.4226 15.1641 14.6531 15.7891 14.6531C16.25 14.6531 16.6465 14.5066 16.9785 14.2136C17.3105 13.9207 17.5488 13.4597 17.6934 12.8308ZM26.084 9.50269L24.4902 9.67847C24.4512 9.35034 24.3496 9.10815 24.1855 8.9519C24.0215 8.79565 23.8086 8.71753 23.5469 8.71753C23.1992 8.71753 22.9043 8.87378 22.6621 9.18628C22.4238 9.49878 22.2734 10.1492 22.2109 11.1375C22.6211 10.6531 23.1309 10.4109 23.7402 10.4109C24.4277 10.4109 25.0156 10.6726 25.5039 11.196C25.9961 11.7195 26.2422 12.3953 26.2422 13.2234C26.2422 14.1023 25.9844 14.8074 25.4688 15.3386C24.9531 15.8699 24.291 16.1355 23.4824 16.1355C22.6152 16.1355 21.9023 15.7996 21.3438 15.1277C20.7852 14.4519 20.5059 13.3464 20.5059 11.8113C20.5059 10.2371 20.7969 9.10229 21.3789 8.40698C21.9609 7.71167 22.7168 7.36401 23.6465 7.36401C24.2988 7.36401 24.8379 7.54761 25.2637 7.91479C25.6934 8.27808 25.9668 8.80737 26.084 9.50269ZM22.3516 13.0945C22.3516 13.6296 22.4746 14.0437 22.7207 14.3367C22.9668 14.6257 23.248 14.7703 23.5645 14.7703C23.8691 14.7703 24.123 14.6511 24.3262 14.4128C24.5293 14.1746 24.6309 13.7839 24.6309 13.241C24.6309 12.6824 24.5215 12.2742 24.3027 12.0164C24.084 11.7546 23.8105 11.6238 23.4824 11.6238C23.166 11.6238 22.8984 11.7488 22.6797 11.9988C22.4609 12.2449 22.3516 12.6101 22.3516 13.0945Z" fill="white"/>
</svg>
