<svg width="57" height="24" viewBox="0 0 57 24" fill="none" xmlns="http://www.w3.org/2000/svg">
<rect x="2" y="1.98901" width="54" height="20" rx="10" fill="url(#paint0_linear_64_1901)"/>
<rect x="2" y="1.98901" width="54" height="20" rx="10" stroke="#1E17A5" stroke-width="3" stroke-linejoin="round"/>
<path d="M10.2031 15.989V7.39917H11.8906L15.4062 13.1355V7.39917H17.0176V15.989H15.2773L11.8145 10.3875V15.989H10.2031ZM18.8633 15.989V7.39917H22.5137C23.4316 7.39917 24.0977 7.47729 24.5117 7.63354C24.9297 7.78589 25.2637 8.05933 25.5137 8.45386C25.7637 8.84839 25.8887 9.29956 25.8887 9.80737C25.8887 10.4519 25.6992 10.9851 25.3203 11.407C24.9414 11.825 24.375 12.0886 23.6211 12.198C23.9961 12.4167 24.3047 12.657 24.5469 12.9187C24.793 13.1804 25.123 13.6453 25.5371 14.3132L26.5859 15.989H24.5117L23.2578 14.1199C22.8125 13.4519 22.5078 13.032 22.3438 12.8601C22.1797 12.6843 22.0059 12.5652 21.8223 12.5027C21.6387 12.4363 21.3477 12.4031 20.9492 12.4031H20.5977V15.989H18.8633ZM20.5977 11.032H21.8809C22.7129 11.032 23.2324 10.9968 23.4395 10.9265C23.6465 10.8562 23.8086 10.7351 23.9258 10.5632C24.043 10.3914 24.1016 10.1765 24.1016 9.9187C24.1016 9.62964 24.0234 9.39722 23.8672 9.22144C23.7148 9.04175 23.498 8.92847 23.2168 8.88159C23.0762 8.86206 22.6543 8.85229 21.9512 8.85229H20.5977V11.032ZM31.3789 15.989H29.7324V9.78394C29.1309 10.3464 28.4219 10.7625 27.6055 11.032V9.53784C28.0352 9.39722 28.502 9.13159 29.0059 8.74097C29.5098 8.34644 29.8555 7.88745 30.043 7.36401H31.3789V15.989ZM34.2148 15.989V7.39917H35.9492V10.78H39.3477V7.39917H41.082V15.989H39.3477V12.2332H35.9492V15.989H34.2148ZM42.459 13.7097L44.0527 13.5164C44.1035 13.9226 44.2402 14.2332 44.4629 14.448C44.6855 14.6628 44.9551 14.7703 45.2715 14.7703C45.6113 14.7703 45.8965 14.6414 46.127 14.3835C46.3613 14.1257 46.4785 13.7781 46.4785 13.3406C46.4785 12.9265 46.3672 12.5984 46.1445 12.3562C45.9219 12.114 45.6504 11.9929 45.3301 11.9929C45.1191 11.9929 44.8672 12.0339 44.5742 12.116L44.7559 10.7742C45.2012 10.7859 45.541 10.6902 45.7754 10.4871C46.0098 10.28 46.127 10.0066 46.127 9.66675C46.127 9.37769 46.041 9.14722 45.8691 8.97534C45.6973 8.80347 45.4688 8.71753 45.1836 8.71753C44.9023 8.71753 44.6621 8.81519 44.4629 9.0105C44.2637 9.20581 44.1426 9.49097 44.0996 9.86597L42.582 9.60815C42.6875 9.08862 42.8457 8.67456 43.0566 8.36597C43.2715 8.05347 43.5684 7.80933 43.9473 7.63354C44.3301 7.45386 44.7578 7.36401 45.2305 7.36401C46.0391 7.36401 46.6875 7.62183 47.1758 8.13745C47.5781 8.55933 47.7793 9.03589 47.7793 9.56714C47.7793 10.321 47.3672 10.9226 46.543 11.3718C47.0352 11.4773 47.4277 11.7136 47.7207 12.0808C48.0176 12.448 48.166 12.8914 48.166 13.4109C48.166 14.1648 47.8906 14.8074 47.3398 15.3386C46.7891 15.8699 46.1035 16.1355 45.2832 16.1355C44.5059 16.1355 43.8613 15.9128 43.3496 15.4675C42.8379 15.0183 42.541 14.4324 42.459 13.7097Z" fill="white"/>
<defs>
<linearGradient id="paint0_linear_64_1901" x1="29" y1="1.98901" x2="29" y2="21.989" gradientUnits="userSpaceOnUse">
<stop stop-color="#1E17A5"/>
<stop offset="1" stop-color="#06C3F9"/>
</linearGradient>
</defs>
</svg>
