<svg width="58" height="24" viewBox="0 0 58 24" fill="none" xmlns="http://www.w3.org/2000/svg">
<rect x="2" y="1.98901" width="55" height="20" rx="10" fill="url(#paint0_linear_38_1878)"/>
<rect x="2" y="1.98901" width="55" height="20" rx="10" stroke="#3B0000" stroke-width="3" stroke-linejoin="round"/>
<path d="M15.5195 12.8308L17.2012 13.364C16.9434 14.3015 16.5137 14.9988 15.9121 15.4558C15.3145 15.9089 14.5547 16.1355 13.6328 16.1355C12.4922 16.1355 11.5547 15.7468 10.8203 14.9695C10.0859 14.1882 9.71875 13.1218 9.71875 11.7703C9.71875 10.3406 10.0879 9.2312 10.8262 8.44214C11.5645 7.64917 12.5352 7.25269 13.7383 7.25269C14.7891 7.25269 15.6426 7.56323 16.2988 8.18433C16.6895 8.55151 16.9824 9.07886 17.1777 9.76636L15.4609 10.1765C15.3594 9.7312 15.1465 9.37964 14.8223 9.12183C14.502 8.86401 14.1113 8.73511 13.6504 8.73511C13.0137 8.73511 12.4961 8.96362 12.0977 9.42065C11.7031 9.87769 11.5059 10.6179 11.5059 11.6414C11.5059 12.7273 11.7012 13.5007 12.0918 13.9617C12.4824 14.4226 12.9902 14.6531 13.6152 14.6531C14.0762 14.6531 14.4727 14.5066 14.8047 14.2136C15.1367 13.9207 15.375 13.4597 15.5195 12.8308ZM18.7012 15.989V7.39917H20.4355V10.78H23.834V7.39917H25.5684V15.989H23.834V12.2332H20.4355V15.989H18.7012ZM27.3672 15.989V7.39917H33.7363V8.85229H29.1016V10.7566H33.4141V12.2039H29.1016V14.5417H33.9004V15.989H27.3672ZM35.3945 15.989V7.39917H37.1289V11.2136L40.6328 7.39917H42.9648L39.7305 10.7449L43.1406 15.989H40.8965L38.5352 11.9578L37.1289 13.3933V15.989H35.3945ZM47.8926 15.989H46.2461V9.78394C45.6445 10.3464 44.9355 10.7625 44.1191 11.032V9.53784C44.5488 9.39722 45.0156 9.13159 45.5195 8.74097C46.0234 8.34644 46.3691 7.88745 46.5566 7.36401H47.8926V15.989Z" fill="white"/>
<defs>
<linearGradient id="paint0_linear_38_1878" x1="29.5" y1="1.98901" x2="29.5" y2="21.989" gradientUnits="userSpaceOnUse">
<stop stop-color="#3B0000"/>
<stop offset="1" stop-color="#FF00AD"/>
</linearGradient>
</defs>
</svg>
