<svg width="46" height="24" viewBox="0 0 46 24" fill="none" xmlns="http://www.w3.org/2000/svg">
<rect x="2" y="1.98901" width="43" height="20" rx="10" fill="url(#paint0_linear_45_4246)"/>
<rect x="2" y="1.98901" width="43" height="20" rx="10" stroke="#00A800" stroke-width="3" stroke-linejoin="round"/>
<path d="M14.3535 12.8308V11.3835H18.0918V14.8054C17.7285 15.157 17.2012 15.4675 16.5098 15.7371C15.8223 16.0027 15.125 16.1355 14.418 16.1355C13.5195 16.1355 12.7363 15.948 12.0684 15.573C11.4004 15.1941 10.8984 14.655 10.5625 13.9558C10.2266 13.2527 10.0586 12.489 10.0586 11.6648C10.0586 10.7703 10.2461 9.97534 10.6211 9.28003C10.9961 8.58472 11.5449 8.05151 12.2676 7.68042C12.8184 7.39526 13.5039 7.25269 14.3242 7.25269C15.3906 7.25269 16.2227 7.47729 16.8203 7.92651C17.4219 8.37183 17.8086 8.98901 17.9805 9.77808L16.2578 10.1003C16.1367 9.67847 15.9082 9.34644 15.5723 9.10425C15.2402 8.85815 14.8242 8.73511 14.3242 8.73511C13.5664 8.73511 12.9629 8.97534 12.5137 9.45581C12.0684 9.93628 11.8457 10.6492 11.8457 11.5945C11.8457 12.614 12.0723 13.3796 12.5254 13.8914C12.9785 14.3992 13.5723 14.6531 14.3066 14.6531C14.6699 14.6531 15.0332 14.5828 15.3965 14.4421C15.7637 14.2976 16.0781 14.1238 16.3398 13.9207V12.8308H14.3535ZM19.6914 7.39917H22.8613C23.5762 7.39917 24.1211 7.45386 24.4961 7.56323C25 7.71167 25.4316 7.97534 25.791 8.35425C26.1504 8.73315 26.4238 9.198 26.6113 9.74878C26.7988 10.2957 26.8926 10.9714 26.8926 11.7761C26.8926 12.4832 26.8047 13.0925 26.6289 13.6042C26.4141 14.2292 26.1074 14.7351 25.709 15.1218C25.4082 15.4148 25.002 15.6433 24.4902 15.8074C24.1074 15.9285 23.5957 15.989 22.9551 15.989H19.6914V7.39917ZM21.4258 8.85229V14.5417H22.7207C23.2051 14.5417 23.5547 14.5144 23.7695 14.4597C24.0508 14.3894 24.2832 14.2703 24.4668 14.1023C24.6543 13.9343 24.8066 13.6589 24.9238 13.2761C25.041 12.8894 25.0996 12.364 25.0996 11.7C25.0996 11.0359 25.041 10.5261 24.9238 10.1707C24.8066 9.81519 24.6426 9.53784 24.4316 9.33862C24.2207 9.1394 23.9531 9.00464 23.6289 8.93433C23.3867 8.87964 22.9121 8.85229 22.2051 8.85229H21.4258ZM28.3164 15.989V7.39917H30.0508V15.989H28.3164ZM31.1172 14.2136L32.7695 13.9617C32.8398 14.282 32.9824 14.5261 33.1973 14.6941C33.4121 14.8582 33.7129 14.9402 34.0996 14.9402C34.5254 14.9402 34.8457 14.8621 35.0605 14.7058C35.2051 14.5964 35.2773 14.45 35.2773 14.2664C35.2773 14.1414 35.2383 14.0378 35.1602 13.9558C35.0781 13.8777 34.8945 13.8054 34.6094 13.739C33.2812 13.446 32.4395 13.1785 32.084 12.9363C31.5918 12.6003 31.3457 12.1335 31.3457 11.5359C31.3457 10.9968 31.5586 10.5437 31.9844 10.1765C32.4102 9.80933 33.0703 9.62573 33.9648 9.62573C34.8164 9.62573 35.4492 9.7644 35.8633 10.0417C36.2773 10.3191 36.5625 10.7292 36.7188 11.2722L35.166 11.5593C35.0996 11.3171 34.9727 11.1316 34.7852 11.0027C34.6016 10.8738 34.3379 10.8093 33.9941 10.8093C33.5605 10.8093 33.25 10.8699 33.0625 10.991C32.9375 11.0769 32.875 11.1882 32.875 11.325C32.875 11.4421 32.9297 11.5417 33.0391 11.6238C33.1875 11.7332 33.6992 11.8875 34.5742 12.0867C35.4531 12.2859 36.0664 12.53 36.4141 12.8191C36.7578 13.1121 36.9297 13.5203 36.9297 14.0437C36.9297 14.614 36.6914 15.1042 36.2148 15.5144C35.7383 15.9246 35.0332 16.1296 34.0996 16.1296C33.252 16.1296 32.5801 15.9578 32.084 15.614C31.5918 15.2703 31.2695 14.8035 31.1172 14.2136Z" fill="white"/>
<defs>
<linearGradient id="paint0_linear_45_4246" x1="23.5" y1="1.98901" x2="23.5" y2="21.989" gradientUnits="userSpaceOnUse">
<stop stop-color="#536BD5"/>
<stop offset="1" stop-color="#00A800"/>
</linearGradient>
</defs>
</svg>
