<svg width="58" height="24" viewBox="0 0 58 24" fill="none" xmlns="http://www.w3.org/2000/svg">
<rect x="2" y="1.98901" width="55" height="20" rx="10" fill="url(#paint0_linear_33_1400)"/>
<rect x="2" y="1.98901" width="55" height="20" rx="10" stroke="#D19F48" stroke-width="3" stroke-linejoin="round"/>
<path d="M17.7695 15.989H15.8828L15.1328 14.0378H11.6992L10.9902 15.989H9.15039L12.4961 7.39917H14.3301L17.7695 15.989ZM14.5762 12.5906L13.3926 9.40308L12.2324 12.5906H14.5762ZM18.6895 7.39917H21.8594C22.5742 7.39917 23.1191 7.45386 23.4941 7.56323C23.998 7.71167 24.4297 7.97534 24.7891 8.35425C25.1484 8.73315 25.4219 9.198 25.6094 9.74878C25.7969 10.2957 25.8906 10.9714 25.8906 11.7761C25.8906 12.4832 25.8027 13.0925 25.627 13.6042C25.4121 14.2292 25.1055 14.7351 24.707 15.1218C24.4062 15.4148 24 15.6433 23.4883 15.8074C23.1055 15.9285 22.5938 15.989 21.9531 15.989H18.6895V7.39917ZM20.4238 8.85229V14.5417H21.7188C22.2031 14.5417 22.5527 14.5144 22.7676 14.4597C23.0488 14.3894 23.2812 14.2703 23.4648 14.1023C23.6523 13.9343 23.8047 13.6589 23.9219 13.2761C24.0391 12.8894 24.0977 12.364 24.0977 11.7C24.0977 11.0359 24.0391 10.5261 23.9219 10.1707C23.8047 9.81519 23.6406 9.53784 23.4297 9.33862C23.2188 9.1394 22.9512 9.00464 22.627 8.93433C22.3848 8.87964 21.9102 8.85229 21.2031 8.85229H20.4238ZM32.8633 12.8308L34.5449 13.364C34.2871 14.3015 33.8574 14.9988 33.2559 15.4558C32.6582 15.9089 31.8984 16.1355 30.9766 16.1355C29.8359 16.1355 28.8984 15.7468 28.1641 14.9695C27.4297 14.1882 27.0625 13.1218 27.0625 11.7703C27.0625 10.3406 27.4316 9.2312 28.1699 8.44214C28.9082 7.64917 29.8789 7.25269 31.082 7.25269C32.1328 7.25269 32.9863 7.56323 33.6426 8.18433C34.0332 8.55151 34.3262 9.07886 34.5215 9.76636L32.8047 10.1765C32.7031 9.7312 32.4902 9.37964 32.166 9.12183C31.8457 8.86401 31.4551 8.73511 30.9941 8.73511C30.3574 8.73511 29.8398 8.96362 29.4414 9.42065C29.0469 9.87769 28.8496 10.6179 28.8496 11.6414C28.8496 12.7273 29.0449 13.5007 29.4355 13.9617C29.8262 14.4226 30.334 14.6531 30.959 14.6531C31.4199 14.6531 31.8164 14.5066 32.1484 14.2136C32.4805 13.9207 32.7188 13.4597 32.8633 12.8308ZM38.2949 15.989V12.3738L35.1484 7.39917H37.1816L39.2031 10.7976L41.1836 7.39917H43.1816L40.0234 12.3855V15.989H38.2949ZM43.6211 13.7097L45.2148 13.5164C45.2656 13.9226 45.4023 14.2332 45.625 14.448C45.8477 14.6628 46.1172 14.7703 46.4336 14.7703C46.7734 14.7703 47.0586 14.6414 47.2891 14.3835C47.5234 14.1257 47.6406 13.7781 47.6406 13.3406C47.6406 12.9265 47.5293 12.5984 47.3066 12.3562C47.084 12.114 46.8125 11.9929 46.4922 11.9929C46.2812 11.9929 46.0293 12.0339 45.7363 12.116L45.918 10.7742C46.3633 10.7859 46.7031 10.6902 46.9375 10.4871C47.1719 10.28 47.2891 10.0066 47.2891 9.66675C47.2891 9.37769 47.2031 9.14722 47.0312 8.97534C46.8594 8.80347 46.6309 8.71753 46.3457 8.71753C46.0645 8.71753 45.8242 8.81519 45.625 9.0105C45.4258 9.20581 45.3047 9.49097 45.2617 9.86597L43.7441 9.60815C43.8496 9.08862 44.0078 8.67456 44.2188 8.36597C44.4336 8.05347 44.7305 7.80933 45.1094 7.63354C45.4922 7.45386 45.9199 7.36401 46.3926 7.36401C47.2012 7.36401 47.8496 7.62183 48.3379 8.13745C48.7402 8.55933 48.9414 9.03589 48.9414 9.56714C48.9414 10.321 48.5293 10.9226 47.7051 11.3718C48.1973 11.4773 48.5898 11.7136 48.8828 12.0808C49.1797 12.448 49.3281 12.8914 49.3281 13.4109C49.3281 14.1648 49.0527 14.8074 48.502 15.3386C47.9512 15.8699 47.2656 16.1355 46.4453 16.1355C45.668 16.1355 45.0234 15.9128 44.5117 15.4675C44 15.0183 43.7031 14.4324 43.6211 13.7097Z" fill="white"/>
<defs>
<linearGradient id="paint0_linear_33_1400" x1="29.5" y1="1.98901" x2="29.5" y2="21.989" gradientUnits="userSpaceOnUse">
<stop stop-color="#D19F48"/>
<stop offset="1" stop-color="#0080FF"/>
</linearGradient>
</defs>
</svg>
