<svg width="42" height="24" viewBox="0 0 42 24" fill="none" xmlns="http://www.w3.org/2000/svg">
<rect x="2" y="1.98901" width="39" height="20" rx="10" fill="url(#paint0_linear_42_2606)"/>
<rect x="2" y="1.98901" width="39" height="20" rx="10" stroke="#C98500" stroke-width="3" stroke-linejoin="round"/>
<path d="M13.9473 14.0085L15.5879 14.2839C15.377 14.8855 15.043 15.3445 14.5859 15.6609C14.1328 15.9734 13.5645 16.1296 12.8809 16.1296C11.7988 16.1296 10.998 15.7761 10.4785 15.0691C10.0684 14.5027 9.86328 13.7878 9.86328 12.9246C9.86328 11.8933 10.1328 11.0867 10.6719 10.5046C11.2109 9.9187 11.8926 9.62573 12.7168 9.62573C13.6426 9.62573 14.373 9.93237 14.9082 10.5457C15.4434 11.155 15.6992 12.0906 15.6758 13.3523H11.5508C11.5625 13.8406 11.6953 14.2214 11.9492 14.4949C12.2031 14.7644 12.5195 14.8992 12.8984 14.8992C13.1562 14.8992 13.373 14.8289 13.5488 14.6882C13.7246 14.5476 13.8574 14.321 13.9473 14.0085ZM14.041 12.3445C14.0293 11.8679 13.9062 11.5066 13.6719 11.2605C13.4375 11.0105 13.1523 10.8855 12.8164 10.8855C12.457 10.8855 12.1602 11.0164 11.9258 11.2781C11.6914 11.5398 11.5762 11.8953 11.5801 12.3445H14.041ZM16.9824 15.989V7.39917H18.7168V15.989H16.9824ZM20.3867 15.989V7.39917H26.2754V8.85229H22.1211V10.8855H25.707V12.3386H22.1211V15.989H20.3867ZM27.2891 13.7097L28.8828 13.5164C28.9336 13.9226 29.0703 14.2332 29.293 14.448C29.5156 14.6628 29.7852 14.7703 30.1016 14.7703C30.4414 14.7703 30.7266 14.6414 30.957 14.3835C31.1914 14.1257 31.3086 13.7781 31.3086 13.3406C31.3086 12.9265 31.1973 12.5984 30.9746 12.3562C30.752 12.114 30.4805 11.9929 30.1602 11.9929C29.9492 11.9929 29.6973 12.0339 29.4043 12.116L29.5859 10.7742C30.0312 10.7859 30.3711 10.6902 30.6055 10.4871C30.8398 10.28 30.957 10.0066 30.957 9.66675C30.957 9.37769 30.8711 9.14722 30.6992 8.97534C30.5273 8.80347 30.2988 8.71753 30.0137 8.71753C29.7324 8.71753 29.4922 8.81519 29.293 9.0105C29.0938 9.20581 28.9727 9.49097 28.9297 9.86597L27.4121 9.60815C27.5176 9.08862 27.6758 8.67456 27.8867 8.36597C28.1016 8.05347 28.3984 7.80933 28.7773 7.63354C29.1602 7.45386 29.5879 7.36401 30.0605 7.36401C30.8691 7.36401 31.5176 7.62183 32.0059 8.13745C32.4082 8.55933 32.6094 9.03589 32.6094 9.56714C32.6094 10.321 32.1973 10.9226 31.373 11.3718C31.8652 11.4773 32.2578 11.7136 32.5508 12.0808C32.8477 12.448 32.9961 12.8914 32.9961 13.4109C32.9961 14.1648 32.7207 14.8074 32.1699 15.3386C31.6191 15.8699 30.9336 16.1355 30.1133 16.1355C29.3359 16.1355 28.6914 15.9128 28.1797 15.4675C27.668 15.0183 27.3711 14.4324 27.2891 13.7097Z" fill="white"/>
<defs>
<linearGradient id="paint0_linear_42_2606" x1="21.5" y1="1.98901" x2="21.5" y2="21.989" gradientUnits="userSpaceOnUse">
<stop stop-color="#C98500"/>
<stop offset="1" stop-color="#8B67D0"/>
</linearGradient>
</defs>
</svg>
