<svg width="135" height="36" viewBox="0 0 135 36" fill="none" xmlns="http://www.w3.org/2000/svg">
<rect x="1" y="1.98901" width="133" height="32" rx="10" fill="url(#paint0_linear_46_4329)"/>
<rect x="1" y="1.98901" width="133" height="32" rx="10" stroke="#06A2B2" stroke-width="3" stroke-linejoin="round"/>
<path d="M8.95898 14.989V6.39917H10.6934V14.989H8.95898ZM12.3281 14.989V6.39917H14.9238L16.4824 12.2585L18.0234 6.39917H20.625V14.989H19.0137V8.22729L17.3086 14.989H15.6387L13.9395 8.22729V14.989H12.3281ZM22.3242 14.989V6.39917H24.9199L26.4785 12.2585L28.0195 6.39917H30.6211V14.989H29.0098V8.22729L27.3047 14.989H25.6348L23.9355 8.22729V14.989H22.3242ZM32.332 6.39917H34.0664V11.0515C34.0664 11.7898 34.0879 12.2683 34.1309 12.4871C34.2051 12.8386 34.3809 13.1218 34.6582 13.3367C34.9395 13.5476 35.3223 13.6531 35.8066 13.6531C36.2988 13.6531 36.6699 13.5535 36.9199 13.3542C37.1699 13.1511 37.3203 12.9031 37.3711 12.6101C37.4219 12.3171 37.4473 11.8308 37.4473 11.1511V6.39917H39.1816V10.9109C39.1816 11.9421 39.1348 12.6707 39.041 13.0964C38.9473 13.5222 38.7734 13.8816 38.5195 14.1746C38.2695 14.4675 37.9336 14.7019 37.5117 14.8777C37.0898 15.0496 36.5391 15.1355 35.8594 15.1355C35.0391 15.1355 34.416 15.0417 33.9902 14.8542C33.5684 14.6628 33.2344 14.4167 32.9883 14.116C32.7422 13.8113 32.5801 13.4929 32.502 13.1609C32.3887 12.6687 32.332 11.9421 32.332 10.9812V6.39917ZM41.0332 14.989V6.39917H42.7207L46.2363 12.1355V6.39917H47.8477V14.989H46.1074L42.6445 9.38745V14.989H41.0332ZM49.6875 14.989V6.39917H56.0566V7.85229H51.4219V9.75659H55.7344V11.2039H51.4219V13.5417H56.2207V14.989H49.6875ZM61.0371 14.989V6.39917H64.6875C65.6055 6.39917 66.2715 6.47729 66.6855 6.63354C67.1035 6.78589 67.4375 7.05933 67.6875 7.45386C67.9375 7.84839 68.0625 8.29956 68.0625 8.80737C68.0625 9.4519 67.873 9.98511 67.4941 10.407C67.1152 10.825 66.5488 11.0886 65.7949 11.198C66.1699 11.4167 66.4785 11.657 66.7207 11.9187C66.9668 12.1804 67.2969 12.6453 67.7109 13.3132L68.7598 14.989H66.6855L65.4316 13.1199C64.9863 12.4519 64.6816 12.032 64.5176 11.8601C64.3535 11.6843 64.1797 11.5652 63.9961 11.5027C63.8125 11.4363 63.5215 11.4031 63.123 11.4031H62.7715V14.989H61.0371ZM62.7715 10.032H64.0547C64.8867 10.032 65.4062 9.99683 65.6133 9.92651C65.8203 9.8562 65.9824 9.73511 66.0996 9.56323C66.2168 9.39136 66.2754 9.17651 66.2754 8.9187C66.2754 8.62964 66.1973 8.39722 66.041 8.22144C65.8887 8.04175 65.6719 7.92847 65.3906 7.88159C65.25 7.86206 64.8281 7.85229 64.125 7.85229H62.7715V10.032ZM69.7031 14.989V6.39917H76.0723V7.85229H71.4375V9.75659H75.75V11.2039H71.4375V13.5417H76.2363V14.989H69.7031ZM77.2676 12.1941L78.9551 12.03C79.0566 12.5964 79.2617 13.0125 79.5703 13.2781C79.8828 13.5437 80.3027 13.6765 80.8301 13.6765C81.3887 13.6765 81.8086 13.5593 82.0898 13.325C82.375 13.0867 82.5176 12.8093 82.5176 12.4929C82.5176 12.2898 82.457 12.1179 82.3359 11.9773C82.2188 11.8328 82.0117 11.7078 81.7148 11.6023C81.5117 11.532 81.0488 11.407 80.3262 11.2273C79.3965 10.9968 78.7441 10.7136 78.3691 10.3777C77.8418 9.90503 77.5781 9.32886 77.5781 8.64917C77.5781 8.21167 77.7012 7.80347 77.9473 7.42456C78.1973 7.04175 78.5547 6.75073 79.0195 6.55151C79.4883 6.35229 80.0527 6.25269 80.7129 6.25269C81.791 6.25269 82.6016 6.48901 83.1445 6.96167C83.6914 7.43433 83.9785 8.06519 84.0059 8.85425L82.2715 8.93042C82.1973 8.48901 82.0371 8.17261 81.791 7.9812C81.5488 7.78589 81.1836 7.68823 80.6953 7.68823C80.1914 7.68823 79.7969 7.79175 79.5117 7.99878C79.3281 8.13159 79.2363 8.30933 79.2363 8.53198C79.2363 8.73511 79.3223 8.90894 79.4941 9.05347C79.7129 9.23706 80.2441 9.42847 81.0879 9.62769C81.9316 9.8269 82.5547 10.0339 82.957 10.2488C83.3633 10.4597 83.6797 10.7507 83.9062 11.1218C84.1367 11.489 84.252 11.9441 84.252 12.4871C84.252 12.9792 84.1152 13.4402 83.8418 13.8699C83.5684 14.2996 83.1816 14.6199 82.6816 14.8308C82.1816 15.0378 81.5586 15.1414 80.8125 15.1414C79.7266 15.1414 78.8926 14.8914 78.3105 14.3914C77.7285 13.8875 77.3809 13.155 77.2676 12.1941ZM85.7109 14.989V6.39917H88.4941C89.5488 6.39917 90.2363 6.44214 90.5566 6.52808C91.0488 6.65698 91.4609 6.93823 91.793 7.37183C92.125 7.80151 92.291 8.35815 92.291 9.04175C92.291 9.56909 92.1953 10.0125 92.0039 10.3718C91.8125 10.7312 91.5684 11.0144 91.2715 11.2214C90.9785 11.4246 90.6797 11.5593 90.375 11.6257C89.9609 11.7078 89.3613 11.7488 88.5762 11.7488H87.4453V14.989H85.7109ZM87.4453 7.85229V10.2898H88.3945C89.0781 10.2898 89.5352 10.2449 89.7656 10.155C89.9961 10.0652 90.1758 9.92456 90.3047 9.73315C90.4375 9.54175 90.5039 9.31909 90.5039 9.06519C90.5039 8.75269 90.4121 8.49487 90.2285 8.29175C90.0449 8.08862 89.8125 7.96167 89.5312 7.91089C89.3242 7.87183 88.9082 7.85229 88.2832 7.85229H87.4453ZM93.3633 10.7468C93.3633 9.87183 93.4941 9.13745 93.7559 8.5437C93.9512 8.1062 94.2168 7.71362 94.5527 7.36597C94.8926 7.01831 95.2637 6.7605 95.666 6.59253C96.2012 6.36597 96.8184 6.25269 97.5176 6.25269C98.7832 6.25269 99.7949 6.64526 100.553 7.43042C101.314 8.21558 101.695 9.30737 101.695 10.7058C101.695 12.0925 101.318 13.1785 100.564 13.9636C99.8105 14.7449 98.8027 15.1355 97.541 15.1355C96.2637 15.1355 95.248 14.7468 94.4941 13.9695C93.7402 13.1882 93.3633 12.114 93.3633 10.7468ZM95.1504 10.6882C95.1504 11.6609 95.375 12.3992 95.8242 12.9031C96.2734 13.4031 96.8438 13.6531 97.5352 13.6531C98.2266 13.6531 98.793 13.405 99.2344 12.9089C99.6797 12.4089 99.9023 11.6609 99.9023 10.6648C99.9023 9.68042 99.6855 8.94604 99.252 8.46167C98.8223 7.97729 98.25 7.73511 97.5352 7.73511C96.8203 7.73511 96.2441 7.9812 95.8066 8.47339C95.3691 8.96167 95.1504 9.69995 95.1504 10.6882ZM103.072 14.989V6.39917H104.76L108.275 12.1355V6.39917H109.887V14.989H108.146L104.684 9.38745V14.989H103.072ZM111.287 12.1941L112.975 12.03C113.076 12.5964 113.281 13.0125 113.59 13.2781C113.902 13.5437 114.322 13.6765 114.85 13.6765C115.408 13.6765 115.828 13.5593 116.109 13.325C116.395 13.0867 116.537 12.8093 116.537 12.4929C116.537 12.2898 116.477 12.1179 116.355 11.9773C116.238 11.8328 116.031 11.7078 115.734 11.6023C115.531 11.532 115.068 11.407 114.346 11.2273C113.416 10.9968 112.764 10.7136 112.389 10.3777C111.861 9.90503 111.598 9.32886 111.598 8.64917C111.598 8.21167 111.721 7.80347 111.967 7.42456C112.217 7.04175 112.574 6.75073 113.039 6.55151C113.508 6.35229 114.072 6.25269 114.732 6.25269C115.811 6.25269 116.621 6.48901 117.164 6.96167C117.711 7.43433 117.998 8.06519 118.025 8.85425L116.291 8.93042C116.217 8.48901 116.057 8.17261 115.811 7.9812C115.568 7.78589 115.203 7.68823 114.715 7.68823C114.211 7.68823 113.816 7.79175 113.531 7.99878C113.348 8.13159 113.256 8.30933 113.256 8.53198C113.256 8.73511 113.342 8.90894 113.514 9.05347C113.732 9.23706 114.264 9.42847 115.107 9.62769C115.951 9.8269 116.574 10.0339 116.977 10.2488C117.383 10.4597 117.699 10.7507 117.926 11.1218C118.156 11.489 118.271 11.9441 118.271 12.4871C118.271 12.9792 118.135 13.4402 117.861 13.8699C117.588 14.2996 117.201 14.6199 116.701 14.8308C116.201 15.0378 115.578 15.1414 114.832 15.1414C113.746 15.1414 112.912 14.8914 112.33 14.3914C111.748 13.8875 111.4 13.155 111.287 12.1941ZM119.73 14.989V6.39917H126.1V7.85229H121.465V9.75659H125.777V11.2039H121.465V13.5417H126.264V14.989H119.73ZM41.6895 28.989V20.3992H44.4727C45.5273 20.3992 46.2148 20.4421 46.5352 20.5281C47.0273 20.657 47.4395 20.9382 47.7715 21.3718C48.1035 21.8015 48.2695 22.3582 48.2695 23.0417C48.2695 23.5691 48.1738 24.0125 47.9824 24.3718C47.791 24.7312 47.5469 25.0144 47.25 25.2214C46.957 25.4246 46.6582 25.5593 46.3535 25.6257C45.9395 25.7078 45.3398 25.7488 44.5547 25.7488H43.4238V28.989H41.6895ZM43.4238 21.8523V24.2898H44.373C45.0566 24.2898 45.5137 24.2449 45.7441 24.155C45.9746 24.0652 46.1543 23.9246 46.2832 23.7332C46.416 23.5417 46.4824 23.3191 46.4824 23.0652C46.4824 22.7527 46.3906 22.4949 46.207 22.2917C46.0234 22.0886 45.791 21.9617 45.5098 21.9109C45.3027 21.8718 44.8867 21.8523 44.2617 21.8523H43.4238ZM49.6992 28.989V20.3992H53.3496C54.2676 20.3992 54.9336 20.4773 55.3477 20.6335C55.7656 20.7859 56.0996 21.0593 56.3496 21.4539C56.5996 21.8484 56.7246 22.2996 56.7246 22.8074C56.7246 23.4519 56.5352 23.9851 56.1562 24.407C55.7773 24.825 55.2109 25.0886 54.457 25.198C54.832 25.4167 55.1406 25.657 55.3828 25.9187C55.6289 26.1804 55.959 26.6453 56.373 27.3132L57.4219 28.989H55.3477L54.0938 27.1199C53.6484 26.4519 53.3438 26.032 53.1797 25.8601C53.0156 25.6843 52.8418 25.5652 52.6582 25.5027C52.4746 25.4363 52.1836 25.4031 51.7852 25.4031H51.4336V28.989H49.6992ZM51.4336 24.032H52.7168C53.5488 24.032 54.0684 23.9968 54.2754 23.9265C54.4824 23.8562 54.6445 23.7351 54.7617 23.5632C54.8789 23.3914 54.9375 23.1765 54.9375 22.9187C54.9375 22.6296 54.8594 22.3972 54.7031 22.2214C54.5508 22.0417 54.334 21.9285 54.0527 21.8816C53.9121 21.8621 53.4902 21.8523 52.7871 21.8523H51.4336V24.032ZM58.0137 24.7468C58.0137 23.8718 58.1445 23.1375 58.4062 22.5437C58.6016 22.1062 58.8672 21.7136 59.2031 21.366C59.543 21.0183 59.9141 20.7605 60.3164 20.5925C60.8516 20.366 61.4688 20.2527 62.168 20.2527C63.4336 20.2527 64.4453 20.6453 65.2031 21.4304C65.9648 22.2156 66.3457 23.3074 66.3457 24.7058C66.3457 26.0925 65.9688 27.1785 65.2148 27.9636C64.4609 28.7449 63.4531 29.1355 62.1914 29.1355C60.9141 29.1355 59.8984 28.7468 59.1445 27.9695C58.3906 27.1882 58.0137 26.114 58.0137 24.7468ZM59.8008 24.6882C59.8008 25.6609 60.0254 26.3992 60.4746 26.9031C60.9238 27.4031 61.4941 27.6531 62.1855 27.6531C62.877 27.6531 63.4434 27.405 63.8848 26.9089C64.3301 26.4089 64.5527 25.6609 64.5527 24.6648C64.5527 23.6804 64.3359 22.946 63.9023 22.4617C63.4727 21.9773 62.9004 21.7351 62.1855 21.7351C61.4707 21.7351 60.8945 21.9812 60.457 22.4734C60.0195 22.9617 59.8008 23.7 59.8008 24.6882ZM69.6387 28.989V21.8523H67.0898V20.3992H73.916V21.8523H71.373V28.989H69.6387ZM75.041 28.989V20.3992H81.4102V21.8523H76.7754V23.7566H81.0879V25.2039H76.7754V27.5417H81.5742V28.989H75.041ZM82.9922 28.989V20.3992H84.7266V28.989H82.9922ZM86.4023 28.989V20.3992H88.0898L91.6055 26.1355V20.3992H93.2168V28.989H91.4766L88.0137 23.3875V28.989H86.4023Z" fill="white"/>
<defs>
<linearGradient id="paint0_linear_46_4329" x1="67.5" y1="1.98901" x2="67.5" y2="33.989" gradientUnits="userSpaceOnUse">
<stop stop-color="#00BAFF"/>
<stop offset="1" stop-color="#06A2B2"/>
</linearGradient>
</defs>
</svg>
