<svg width="37" height="24" viewBox="0 0 37 24" fill="none" xmlns="http://www.w3.org/2000/svg">
<rect x="2" y="1.98901" width="34" height="20" rx="10" fill="#C14C27"/>
<rect x="2" y="1.98901" width="34" height="20" rx="10" stroke="#612A0E" stroke-width="3" stroke-linejoin="round"/>
<path d="M11.875 7.39917H15.3086C15.9883 7.39917 16.4941 7.42847 16.8262 7.48706C17.1621 7.54175 17.4609 7.65894 17.7227 7.83862C17.9883 8.01831 18.209 8.25854 18.3848 8.55933C18.5605 8.8562 18.6484 9.19019 18.6484 9.56128C18.6484 9.96362 18.5391 10.3328 18.3203 10.6687C18.1055 11.0046 17.8125 11.2566 17.4414 11.4246C17.9648 11.5769 18.3672 11.8367 18.6484 12.2039C18.9297 12.571 19.0703 13.0027 19.0703 13.4988C19.0703 13.8894 18.9785 14.2703 18.7949 14.6414C18.6152 15.0085 18.3672 15.3035 18.0508 15.5261C17.7383 15.7449 17.3516 15.8796 16.8906 15.9304C16.6016 15.9617 15.9043 15.9812 14.7988 15.989H11.875V7.39917ZM13.6094 8.82886V10.8152H14.7461C15.4219 10.8152 15.8418 10.8054 16.0059 10.7859C16.3027 10.7507 16.5352 10.6492 16.7031 10.4812C16.875 10.3093 16.9609 10.0847 16.9609 9.80737C16.9609 9.54175 16.8867 9.3269 16.7383 9.16284C16.5938 8.99487 16.377 8.89331 16.0879 8.85815C15.916 8.83862 15.4219 8.82886 14.6055 8.82886H13.6094ZM13.6094 12.2449V14.5417H15.2148C15.8398 14.5417 16.2363 14.5242 16.4043 14.489C16.6621 14.4421 16.8711 14.3289 17.0312 14.1492C17.1953 13.9656 17.2773 13.7214 17.2773 13.4167C17.2773 13.1589 17.2148 12.9402 17.0898 12.7605C16.9648 12.5808 16.7832 12.45 16.5449 12.3679C16.3105 12.2859 15.7988 12.2449 15.0098 12.2449H13.6094ZM20.459 15.989V7.39917H22.1055V10.4929C22.6133 9.91479 23.2148 9.62573 23.9102 9.62573C24.668 9.62573 25.2949 9.90112 25.791 10.4519C26.2871 10.9988 26.5352 11.7859 26.5352 12.8132C26.5352 13.8757 26.2812 14.6941 25.7734 15.2683C25.2695 15.8425 24.6562 16.1296 23.9336 16.1296C23.5781 16.1296 23.2266 16.0417 22.8789 15.866C22.5352 15.6863 22.2383 15.4226 21.9883 15.075V15.989H20.459ZM22.0938 12.7429C22.0938 13.3875 22.1953 13.864 22.3984 14.1726C22.6836 14.6101 23.0625 14.8289 23.5352 14.8289C23.8984 14.8289 24.207 14.6746 24.4609 14.366C24.7188 14.0535 24.8477 13.5632 24.8477 12.8953C24.8477 12.1843 24.7188 11.6726 24.4609 11.3601C24.2031 11.0437 23.873 10.8855 23.4707 10.8855C23.0762 10.8855 22.748 11.0398 22.4863 11.3484C22.2246 11.6531 22.0938 12.1179 22.0938 12.7429Z" fill="white"/>
</svg>
