<svg width="85" height="24" viewBox="0 0 85 24" fill="none" xmlns="http://www.w3.org/2000/svg">
<rect x="1" y="1.98901" width="83" height="20" rx="10" fill="url(#paint0_linear_46_4323)"/>
<rect x="1" y="1.98901" width="83" height="20" rx="10" stroke="#6D1B54" stroke-width="3" stroke-linejoin="round"/>
<path d="M9.2832 15.989V7.39917H11.0176V15.989H9.2832ZM12.6934 15.989V7.39917H14.3809L17.8965 13.1355V7.39917H19.5078V15.989H17.7676L14.3047 10.3875V15.989H12.6934ZM20.9082 13.1941L22.5957 13.03C22.6973 13.5964 22.9023 14.0125 23.2109 14.2781C23.5234 14.5437 23.9434 14.6765 24.4707 14.6765C25.0293 14.6765 25.4492 14.5593 25.7305 14.325C26.0156 14.0867 26.1582 13.8093 26.1582 13.4929C26.1582 13.2898 26.0977 13.1179 25.9766 12.9773C25.8594 12.8328 25.6523 12.7078 25.3555 12.6023C25.1523 12.532 24.6895 12.407 23.9668 12.2273C23.0371 11.9968 22.3848 11.7136 22.0098 11.3777C21.4824 10.905 21.2188 10.3289 21.2188 9.64917C21.2188 9.21167 21.3418 8.80347 21.5879 8.42456C21.8379 8.04175 22.1953 7.75073 22.6602 7.55151C23.1289 7.35229 23.6934 7.25269 24.3535 7.25269C25.4316 7.25269 26.2422 7.48901 26.7852 7.96167C27.332 8.43433 27.6191 9.06519 27.6465 9.85425L25.9121 9.93042C25.8379 9.48901 25.6777 9.17261 25.4316 8.9812C25.1895 8.78589 24.8242 8.68823 24.3359 8.68823C23.832 8.68823 23.4375 8.79175 23.1523 8.99878C22.9688 9.13159 22.877 9.30933 22.877 9.53198C22.877 9.73511 22.9629 9.90894 23.1348 10.0535C23.3535 10.2371 23.8848 10.4285 24.7285 10.6277C25.5723 10.8269 26.1953 11.0339 26.5977 11.2488C27.0039 11.4597 27.3203 11.7507 27.5469 12.1218C27.7773 12.489 27.8926 12.9441 27.8926 13.4871C27.8926 13.9792 27.7559 14.4402 27.4824 14.8699C27.209 15.2996 26.8223 15.6199 26.3223 15.8308C25.8223 16.0378 25.1992 16.1414 24.4531 16.1414C23.3672 16.1414 22.5332 15.8914 21.9512 15.3914C21.3691 14.8875 21.0215 14.155 20.9082 13.1941ZM35.4102 18.5144H34.2793C33.6816 17.6121 33.2266 16.6746 32.9141 15.7019C32.6016 14.7292 32.4453 13.7878 32.4453 12.8777C32.4453 11.7488 32.6387 10.6804 33.0254 9.67261C33.3613 8.79761 33.7871 7.99097 34.3027 7.25269H35.4277C34.8926 8.43628 34.5234 9.44409 34.3203 10.2761C34.1211 11.1042 34.0215 11.9832 34.0215 12.9128C34.0215 13.5535 34.0801 14.2097 34.1973 14.8816C34.3184 15.5535 34.4824 16.1921 34.6895 16.7976C34.8262 17.196 35.0664 17.7683 35.4102 18.5144ZM41.8848 14.4597V15.989H36.1133C36.1758 15.4109 36.3633 14.864 36.6758 14.3484C36.9883 13.8289 37.6055 13.1414 38.5273 12.2859C39.2695 11.5945 39.7246 11.1257 39.8926 10.8796C40.1191 10.5398 40.2324 10.2039 40.2324 9.87183C40.2324 9.50464 40.1328 9.22339 39.9336 9.02808C39.7383 8.82886 39.4668 8.72925 39.1191 8.72925C38.7754 8.72925 38.502 8.83276 38.2988 9.03979C38.0957 9.24683 37.9785 9.59058 37.9473 10.071L36.3066 9.90698C36.4043 9.00073 36.7109 8.35034 37.2266 7.95581C37.7422 7.56128 38.3867 7.36401 39.1602 7.36401C40.0078 7.36401 40.6738 7.59253 41.1582 8.04956C41.6426 8.50659 41.8848 9.07495 41.8848 9.75464C41.8848 10.1414 41.8145 10.5105 41.6738 10.8621C41.5371 11.2097 41.3184 11.575 41.0176 11.9578C40.8184 12.2117 40.459 12.5769 39.9395 13.0535C39.4199 13.53 39.0898 13.8464 38.9492 14.0027C38.8125 14.1589 38.7012 14.3113 38.6152 14.4597H41.8848ZM43.0273 13.78L44.668 13.6101C44.7148 13.9812 44.8535 14.2761 45.084 14.4949C45.3145 14.7097 45.5801 14.8171 45.8809 14.8171C46.2246 14.8171 46.5156 14.6785 46.7539 14.4011C46.9922 14.1199 47.1113 13.698 47.1113 13.1355C47.1113 12.6082 46.9922 12.2136 46.7539 11.9519C46.5195 11.6863 46.2129 11.5535 45.834 11.5535C45.3613 11.5535 44.9375 11.7625 44.5625 12.1804L43.2266 11.9871L44.0703 7.51636H48.4238V9.05737H45.3184L45.0605 10.5164C45.4277 10.3328 45.8027 10.241 46.1855 10.241C46.916 10.241 47.5352 10.5066 48.043 11.0378C48.5508 11.5691 48.8047 12.2585 48.8047 13.1062C48.8047 13.8132 48.5996 14.4441 48.1895 14.9988C47.6309 15.7566 46.8555 16.1355 45.8633 16.1355C45.0703 16.1355 44.4238 15.9226 43.9238 15.4968C43.4238 15.071 43.125 14.4988 43.0273 13.78ZM49.8477 13.698V12.0515H53.082V13.698H49.8477ZM57.8926 15.989H56.2461V9.78394C55.6445 10.3464 54.9355 10.7625 54.1191 11.032V9.53784C54.5488 9.39722 55.0156 9.13159 55.5195 8.74097C56.0234 8.34644 56.3691 7.88745 56.5566 7.36401H57.8926V15.989ZM63.9043 15.989H62.2578V9.78394C61.6562 10.3464 60.9473 10.7625 60.1309 11.032V9.53784C60.5605 9.39722 61.0273 9.13159 61.5312 8.74097C62.0352 8.34644 62.3809 7.88745 62.5684 7.36401H63.9043V15.989ZM69.1543 7.36401C69.9863 7.36401 70.6367 7.66089 71.1055 8.25464C71.6641 8.95776 71.9434 10.1238 71.9434 11.7527C71.9434 13.3777 71.6621 14.5457 71.0996 15.2566C70.6348 15.8425 69.9863 16.1355 69.1543 16.1355C68.3184 16.1355 67.6445 15.8152 67.1328 15.1746C66.6211 14.53 66.3652 13.3835 66.3652 11.7351C66.3652 10.1179 66.6465 8.95386 67.209 8.24292C67.6738 7.65698 68.3223 7.36401 69.1543 7.36401ZM69.1543 8.72925C68.9551 8.72925 68.7773 8.7937 68.6211 8.92261C68.4648 9.04761 68.3438 9.27417 68.2578 9.60229C68.1445 10.0281 68.0879 10.7449 68.0879 11.7527C68.0879 12.7605 68.1387 13.4539 68.2402 13.8328C68.3418 14.2078 68.4688 14.4578 68.6211 14.5828C68.7773 14.7078 68.9551 14.7703 69.1543 14.7703C69.3535 14.7703 69.5312 14.7078 69.6875 14.5828C69.8438 14.4539 69.9648 14.2253 70.0508 13.8972C70.1641 13.4753 70.2207 12.7605 70.2207 11.7527C70.2207 10.7449 70.1699 10.0535 70.0684 9.67847C69.9668 9.29956 69.8379 9.04761 69.6816 8.92261C69.5293 8.7937 69.3535 8.72925 69.1543 8.72925ZM72.9453 18.5144C73.2695 17.8191 73.498 17.2859 73.6309 16.9148C73.7637 16.5437 73.8867 16.116 74 15.6316C74.1133 15.1472 74.1973 14.6882 74.252 14.2546C74.3066 13.8171 74.334 13.3699 74.334 12.9128C74.334 11.9832 74.2344 11.1042 74.0352 10.2761C73.8359 9.44409 73.4688 8.43628 72.9336 7.25269H74.0527C74.6426 8.09253 75.0996 8.98315 75.4238 9.92456C75.752 10.866 75.916 11.821 75.916 12.7898C75.916 13.6062 75.7871 14.4812 75.5293 15.4148C75.2363 16.4617 74.7539 17.4949 74.082 18.5144H72.9453Z" fill="white"/>
<defs>
<linearGradient id="paint0_linear_46_4323" x1="42.5" y1="1.98901" x2="42.5" y2="21.989" gradientUnits="userSpaceOnUse">
<stop stop-color="#BF4E15"/>
<stop offset="1" stop-color="#6D1B54"/>
</linearGradient>
</defs>
</svg>
