<svg width="67" height="24" viewBox="0 0 67 24" fill="none" xmlns="http://www.w3.org/2000/svg">
<rect x="1" y="1.98901" width="65" height="20" rx="10" fill="url(#paint0_linear_67_1832)"/>
<rect x="1" y="1.98901" width="65" height="20" rx="10" stroke="#0057FF" stroke-width="3" stroke-linejoin="round"/>
<path d="M9.01953 15.989V7.39917H12.6699C13.5879 7.39917 14.2539 7.47729 14.668 7.63354C15.0859 7.78589 15.4199 8.05933 15.6699 8.45386C15.9199 8.84839 16.0449 9.29956 16.0449 9.80737C16.0449 10.4519 15.8555 10.9851 15.4766 11.407C15.0977 11.825 14.5312 12.0886 13.7773 12.198C14.1523 12.4167 14.4609 12.657 14.7031 12.9187C14.9492 13.1804 15.2793 13.6453 15.6934 14.3132L16.7422 15.989H14.668L13.4141 14.1199C12.9688 13.4519 12.6641 13.032 12.5 12.8601C12.3359 12.6843 12.1621 12.5652 11.9785 12.5027C11.7949 12.4363 11.5039 12.4031 11.1055 12.4031H10.7539V15.989H9.01953ZM10.7539 11.032H12.0371C12.8691 11.032 13.3887 10.9968 13.5957 10.9265C13.8027 10.8562 13.9648 10.7351 14.082 10.5632C14.1992 10.3914 14.2578 10.1765 14.2578 9.9187C14.2578 9.62964 14.1797 9.39722 14.0234 9.22144C13.8711 9.04175 13.6543 8.92847 13.373 8.88159C13.2324 8.86206 12.8105 8.85229 12.1074 8.85229H10.7539V11.032ZM17.6914 7.39917H21.125C21.8047 7.39917 22.3105 7.42847 22.6426 7.48706C22.9785 7.54175 23.2773 7.65894 23.5391 7.83862C23.8047 8.01831 24.0254 8.25854 24.2012 8.55933C24.377 8.8562 24.4648 9.19019 24.4648 9.56128C24.4648 9.96362 24.3555 10.3328 24.1367 10.6687C23.9219 11.0046 23.6289 11.2566 23.2578 11.4246C23.7812 11.5769 24.1836 11.8367 24.4648 12.2039C24.7461 12.571 24.8867 13.0027 24.8867 13.4988C24.8867 13.8894 24.7949 14.2703 24.6113 14.6414C24.4316 15.0085 24.1836 15.3035 23.8672 15.5261C23.5547 15.7449 23.168 15.8796 22.707 15.9304C22.418 15.9617 21.7207 15.9812 20.6152 15.989H17.6914V7.39917ZM19.4258 8.82886V10.8152H20.5625C21.2383 10.8152 21.6582 10.8054 21.8223 10.7859C22.1191 10.7507 22.3516 10.6492 22.5195 10.4812C22.6914 10.3093 22.7773 10.0847 22.7773 9.80737C22.7773 9.54175 22.7031 9.3269 22.5547 9.16284C22.4102 8.99487 22.1934 8.89331 21.9043 8.85815C21.7324 8.83862 21.2383 8.82886 20.4219 8.82886H19.4258ZM19.4258 12.2449V14.5417H21.0312C21.6562 14.5417 22.0527 14.5242 22.2207 14.489C22.4785 14.4421 22.6875 14.3289 22.8477 14.1492C23.0117 13.9656 23.0938 13.7214 23.0938 13.4167C23.0938 13.1589 23.0312 12.9402 22.9062 12.7605C22.7812 12.5808 22.5996 12.45 22.3613 12.3679C22.127 12.2859 21.6152 12.2449 20.8262 12.2449H19.4258ZM26.3633 7.39917H29.7969C30.4766 7.39917 30.9824 7.42847 31.3145 7.48706C31.6504 7.54175 31.9492 7.65894 32.2109 7.83862C32.4766 8.01831 32.6973 8.25854 32.873 8.55933C33.0488 8.8562 33.1367 9.19019 33.1367 9.56128C33.1367 9.96362 33.0273 10.3328 32.8086 10.6687C32.5938 11.0046 32.3008 11.2566 31.9297 11.4246C32.4531 11.5769 32.8555 11.8367 33.1367 12.2039C33.418 12.571 33.5586 13.0027 33.5586 13.4988C33.5586 13.8894 33.4668 14.2703 33.2832 14.6414C33.1035 15.0085 32.8555 15.3035 32.5391 15.5261C32.2266 15.7449 31.8398 15.8796 31.3789 15.9304C31.0898 15.9617 30.3926 15.9812 29.2871 15.989H26.3633V7.39917ZM28.0977 8.82886V10.8152H29.2344C29.9102 10.8152 30.3301 10.8054 30.4941 10.7859C30.791 10.7507 31.0234 10.6492 31.1914 10.4812C31.3633 10.3093 31.4492 10.0847 31.4492 9.80737C31.4492 9.54175 31.375 9.3269 31.2266 9.16284C31.082 8.99487 30.8652 8.89331 30.5762 8.85815C30.4043 8.83862 29.9102 8.82886 29.0938 8.82886H28.0977ZM28.0977 12.2449V14.5417H29.7031C30.3281 14.5417 30.7246 14.5242 30.8926 14.489C31.1504 14.4421 31.3594 14.3289 31.5195 14.1492C31.6836 13.9656 31.7656 13.7214 31.7656 13.4167C31.7656 13.1589 31.7031 12.9402 31.5781 12.7605C31.4531 12.5808 31.2715 12.45 31.0332 12.3679C30.7988 12.2859 30.2871 12.2449 29.498 12.2449H28.0977ZM35.0293 15.989V7.39917H37.8125C38.8672 7.39917 39.5547 7.44214 39.875 7.52808C40.3672 7.65698 40.7793 7.93823 41.1113 8.37183C41.4434 8.80151 41.6094 9.35815 41.6094 10.0417C41.6094 10.5691 41.5137 11.0125 41.3223 11.3718C41.1309 11.7312 40.8867 12.0144 40.5898 12.2214C40.2969 12.4246 39.998 12.5593 39.6934 12.6257C39.2793 12.7078 38.6797 12.7488 37.8945 12.7488H36.7637V15.989H35.0293ZM36.7637 8.85229V11.2898H37.7129C38.3965 11.2898 38.8535 11.2449 39.084 11.155C39.3145 11.0652 39.4941 10.9246 39.623 10.7332C39.7559 10.5417 39.8223 10.3191 39.8223 10.0652C39.8223 9.75269 39.7305 9.49487 39.5469 9.29175C39.3633 9.08862 39.1309 8.96167 38.8496 8.91089C38.6426 8.87183 38.2266 8.85229 37.6016 8.85229H36.7637ZM45.8984 15.989V14.2605H42.3828V12.8191L46.1094 7.36401H47.4922V12.8132H48.5586V14.2605H47.4922V15.989H45.8984ZM45.8984 12.8132V9.87769L43.9238 12.8132H45.8984ZM49.6602 14.3425H51.3066V15.5203C51.3066 15.9968 51.2656 16.3718 51.1836 16.6453C51.1016 16.9226 50.9453 17.1707 50.7148 17.3894C50.4883 17.6082 50.1992 17.78 49.8477 17.905L49.5254 17.2253C49.8574 17.116 50.0938 16.9656 50.2344 16.7742C50.375 16.5828 50.4492 16.321 50.457 15.989H49.6602V14.3425ZM52.6895 9.04565V7.51636H58.3203V8.71167C57.8555 9.1687 57.3828 9.82495 56.9023 10.6804C56.4219 11.5359 56.0547 12.446 55.8008 13.4109C55.5508 14.3718 55.4277 15.2312 55.4316 15.989H53.8438C53.8711 14.8015 54.1152 13.5906 54.5762 12.3562C55.041 11.1218 55.6602 10.0183 56.4336 9.04565H52.6895Z" fill="white"/>
<defs>
<linearGradient id="paint0_linear_67_1832" x1="33.5" y1="1.98901" x2="33.5" y2="21.989" gradientUnits="userSpaceOnUse">
<stop stop-color="#0057FF"/>
<stop offset="1" stop-color="#FF926E"/>
</linearGradient>
</defs>
</svg>
