<svg width="37" height="94" viewBox="0 0 37 94" fill="none" xmlns="http://www.w3.org/2000/svg">
<path d="M18.68 41.0374C17.2991 41.0374 16.18 39.9183 16.18 38.5374V2.80249C16.18 1.42159 17.2991 0.30249 18.68 0.30249C20.0609 0.30249 21.18 1.42159 21.18 2.80249V38.5374C21.18 39.9182 20.0609 41.0374 18.68 41.0374Z" fill="url(#paint0_linear_92_5629)"/>
<path d="M18.6799 93.9735C28.6648 93.9735 36.7592 81.527 36.7592 66.1734C36.7592 50.8198 28.6648 38.3733 18.6799 38.3733C8.69496 38.3733 0.600586 50.8198 0.600586 66.1734C0.600586 81.527 8.69496 93.9735 18.6799 93.9735Z" fill="url(#paint1_radial_92_5629)"/>
<path d="M3.21964 70.3733V61.7834H9.58878V63.2366H4.95401V65.1409H9.26651V66.5881H4.95401V68.926H9.75284V70.3733H3.21964ZM11.2353 70.3733V61.7834H17.1239V63.2366H12.9696V65.2698H16.5556V66.7229H12.9696V70.3733H11.2353ZM18.5771 70.3733V61.7834H20.2646L23.7802 67.5198V61.7834H25.3915V70.3733H23.6513L20.1884 64.7717V70.3733H18.5771ZM27.2372 61.7834H30.6708C31.3505 61.7834 31.8564 61.8127 32.1884 61.8713C32.5243 61.926 32.8232 62.0432 33.0849 62.2229C33.3505 62.4026 33.5712 62.6428 33.747 62.9436C33.9228 63.2405 34.0107 63.5745 34.0107 63.9456C34.0107 64.3479 33.9013 64.717 33.6825 65.053C33.4677 65.3889 33.1747 65.6409 32.8036 65.8088C33.3271 65.9612 33.7294 66.2209 34.0107 66.5881C34.2919 66.9553 34.4325 67.387 34.4325 67.8831C34.4325 68.2737 34.3407 68.6545 34.1571 69.0256C33.9774 69.3928 33.7294 69.6877 33.413 69.9104C33.1005 70.1292 32.7138 70.2639 32.2528 70.3147C31.9638 70.3459 31.2665 70.3655 30.161 70.3733H27.2372V61.7834ZM28.9716 63.2131V65.1995H30.1083C30.7841 65.1995 31.204 65.1897 31.3681 65.1702C31.6649 65.135 31.8974 65.0334 32.0653 64.8655C32.2372 64.6936 32.3232 64.469 32.3232 64.1917C32.3232 63.926 32.2489 63.7112 32.1005 63.5471C31.956 63.3792 31.7392 63.2776 31.4501 63.2424C31.2782 63.2229 30.7841 63.2131 29.9677 63.2131H28.9716ZM28.9716 66.6292V68.926H30.5771C31.2021 68.926 31.5985 68.9084 31.7665 68.8733C32.0243 68.8264 32.2333 68.7131 32.3935 68.5334C32.5575 68.3499 32.6396 68.1057 32.6396 67.801C32.6396 67.5432 32.5771 67.3245 32.4521 67.1448C32.3271 66.9651 32.1454 66.8342 31.9071 66.7522C31.6728 66.6702 31.161 66.6292 30.372 66.6292H28.9716Z" fill="white"/>
<defs>
<linearGradient id="paint0_linear_92_5629" x1="16.18" y1="20.6699" x2="21.18" y2="20.6699" gradientUnits="userSpaceOnUse">
<stop stop-color="#001E2A"/>
<stop offset="0.2727" stop-color="#A69C3F"/>
<stop offset="1" stop-color="#001E2A"/>
</linearGradient>
<radialGradient id="paint1_radial_92_5629" cx="0" cy="0" r="1" gradientUnits="userSpaceOnUse" gradientTransform="translate(15.5156 56.9958) scale(18.9788 29.922)">
<stop offset="0.001" stop-color="#A69C3F"/>
<stop offset="1" stop-color="#001E2A"/>
</radialGradient>
</defs>
</svg>
