<svg width="49" height="24" viewBox="0 0 49 24" fill="none" xmlns="http://www.w3.org/2000/svg">
<rect x="2" y="1.98901" width="46" height="20" rx="10" fill="url(#paint0_linear_45_4262)"/>
<rect x="2" y="1.98901" width="46" height="20" rx="10" stroke="#536BD5" stroke-width="3" stroke-linejoin="round"/>
<path d="M14.1895 12.8308V11.3835H17.9277V14.8054C17.5645 15.157 17.0371 15.4675 16.3457 15.7371C15.6582 16.0027 14.9609 16.1355 14.2539 16.1355C13.3555 16.1355 12.5723 15.948 11.9043 15.573C11.2363 15.1941 10.7344 14.655 10.3984 13.9558C10.0625 13.2527 9.89453 12.489 9.89453 11.6648C9.89453 10.7703 10.082 9.97534 10.457 9.28003C10.832 8.58472 11.3809 8.05151 12.1035 7.68042C12.6543 7.39526 13.3398 7.25269 14.1602 7.25269C15.2266 7.25269 16.0586 7.47729 16.6562 7.92651C17.2578 8.37183 17.6445 8.98901 17.8164 9.77808L16.0938 10.1003C15.9727 9.67847 15.7441 9.34644 15.4082 9.10425C15.0762 8.85815 14.6602 8.73511 14.1602 8.73511C13.4023 8.73511 12.7988 8.97534 12.3496 9.45581C11.9043 9.93628 11.6816 10.6492 11.6816 11.5945C11.6816 12.614 11.9082 13.3796 12.3613 13.8914C12.8145 14.3992 13.4082 14.6531 14.1426 14.6531C14.5059 14.6531 14.8691 14.5828 15.2324 14.4421C15.5996 14.2976 15.9141 14.1238 16.1758 13.9207V12.8308H14.1895ZM19.5332 15.989V7.39917H25.9023V8.85229H21.2676V10.7566H25.5801V12.2039H21.2676V14.5417H26.0664V15.989H19.5332ZM27.5488 15.989V7.39917H33.4375V8.85229H29.2832V10.8855H32.8691V12.3386H29.2832V15.989H27.5488ZM34.2812 14.2136L35.9336 13.9617C36.0039 14.282 36.1465 14.5261 36.3613 14.6941C36.5762 14.8582 36.877 14.9402 37.2637 14.9402C37.6895 14.9402 38.0098 14.8621 38.2246 14.7058C38.3691 14.5964 38.4414 14.45 38.4414 14.2664C38.4414 14.1414 38.4023 14.0378 38.3242 13.9558C38.2422 13.8777 38.0586 13.8054 37.7734 13.739C36.4453 13.446 35.6035 13.1785 35.248 12.9363C34.7559 12.6003 34.5098 12.1335 34.5098 11.5359C34.5098 10.9968 34.7227 10.5437 35.1484 10.1765C35.5742 9.80933 36.2344 9.62573 37.1289 9.62573C37.9805 9.62573 38.6133 9.7644 39.0273 10.0417C39.4414 10.3191 39.7266 10.7292 39.8828 11.2722L38.3301 11.5593C38.2637 11.3171 38.1367 11.1316 37.9492 11.0027C37.7656 10.8738 37.502 10.8093 37.1582 10.8093C36.7246 10.8093 36.4141 10.8699 36.2266 10.991C36.1016 11.0769 36.0391 11.1882 36.0391 11.325C36.0391 11.4421 36.0938 11.5417 36.2031 11.6238C36.3516 11.7332 36.8633 11.8875 37.7383 12.0867C38.6172 12.2859 39.2305 12.53 39.5781 12.8191C39.9219 13.1121 40.0938 13.5203 40.0938 14.0437C40.0938 14.614 39.8555 15.1042 39.3789 15.5144C38.9023 15.9246 38.1973 16.1296 37.2637 16.1296C36.416 16.1296 35.7441 15.9578 35.248 15.614C34.7559 15.2703 34.4336 14.8035 34.2812 14.2136Z" fill="white"/>
<defs>
<linearGradient id="paint0_linear_45_4262" x1="25" y1="1.98901" x2="25" y2="21.989" gradientUnits="userSpaceOnUse">
<stop stop-color="#536BD5"/>
<stop offset="1" stop-color="#0C9F1F"/>
</linearGradient>
</defs>
</svg>
