<svg width="49" height="24" viewBox="0 0 49 24" fill="none" xmlns="http://www.w3.org/2000/svg">
<rect x="2" y="1.98901" width="46" height="20" rx="10" fill="url(#paint0_linear_67_1852)"/>
<rect x="2" y="1.98901" width="46" height="20" rx="10" stroke="#5C1F15" stroke-width="3" stroke-linejoin="round"/>
<path d="M10.1934 15.989V7.39917H12.9766C14.0312 7.39917 14.7188 7.44214 15.0391 7.52808C15.5312 7.65698 15.9434 7.93823 16.2754 8.37183C16.6074 8.80151 16.7734 9.35815 16.7734 10.0417C16.7734 10.5691 16.6777 11.0125 16.4863 11.3718C16.2949 11.7312 16.0508 12.0144 15.7539 12.2214C15.4609 12.4246 15.1621 12.5593 14.8574 12.6257C14.4434 12.7078 13.8438 12.7488 13.0586 12.7488H11.9277V15.989H10.1934ZM11.9277 8.85229V11.2898H12.877C13.5605 11.2898 14.0176 11.2449 14.248 11.155C14.4785 11.0652 14.6582 10.9246 14.7871 10.7332C14.9199 10.5417 14.9863 10.3191 14.9863 10.0652C14.9863 9.75269 14.8945 9.49487 14.7109 9.29175C14.5273 9.08862 14.2949 8.96167 14.0137 8.91089C13.8066 8.87183 13.3906 8.85229 12.7656 8.85229H11.9277ZM18.1855 7.39917H19.9199V12.0515C19.9199 12.7898 19.9414 13.2683 19.9844 13.4871C20.0586 13.8386 20.2344 14.1218 20.5117 14.3367C20.793 14.5476 21.1758 14.6531 21.6602 14.6531C22.1523 14.6531 22.5234 14.5535 22.7734 14.3542C23.0234 14.1511 23.1738 13.9031 23.2246 13.6101C23.2754 13.3171 23.3008 12.8308 23.3008 12.1511V7.39917H25.0352V11.9109C25.0352 12.9421 24.9883 13.6707 24.8945 14.0964C24.8008 14.5222 24.627 14.8816 24.373 15.1746C24.123 15.4675 23.7871 15.7019 23.3652 15.8777C22.9434 16.0496 22.3926 16.1355 21.7129 16.1355C20.8926 16.1355 20.2695 16.0417 19.8438 15.8542C19.4219 15.6628 19.0879 15.4167 18.8418 15.116C18.5957 14.8113 18.4336 14.4929 18.3555 14.1609C18.2422 13.6687 18.1855 12.9421 18.1855 11.9812V7.39917ZM26.4297 13.1941L28.1172 13.03C28.2188 13.5964 28.4238 14.0125 28.7324 14.2781C29.0449 14.5437 29.4648 14.6765 29.9922 14.6765C30.5508 14.6765 30.9707 14.5593 31.252 14.325C31.5371 14.0867 31.6797 13.8093 31.6797 13.4929C31.6797 13.2898 31.6191 13.1179 31.498 12.9773C31.3809 12.8328 31.1738 12.7078 30.877 12.6023C30.6738 12.532 30.2109 12.407 29.4883 12.2273C28.5586 11.9968 27.9062 11.7136 27.5312 11.3777C27.0039 10.905 26.7402 10.3289 26.7402 9.64917C26.7402 9.21167 26.8633 8.80347 27.1094 8.42456C27.3594 8.04175 27.7168 7.75073 28.1816 7.55151C28.6504 7.35229 29.2148 7.25269 29.875 7.25269C30.9531 7.25269 31.7637 7.48901 32.3066 7.96167C32.8535 8.43433 33.1406 9.06519 33.168 9.85425L31.4336 9.93042C31.3594 9.48901 31.1992 9.17261 30.9531 8.9812C30.7109 8.78589 30.3457 8.68823 29.8574 8.68823C29.3535 8.68823 28.959 8.79175 28.6738 8.99878C28.4902 9.13159 28.3984 9.30933 28.3984 9.53198C28.3984 9.73511 28.4844 9.90894 28.6562 10.0535C28.875 10.2371 29.4062 10.4285 30.25 10.6277C31.0938 10.8269 31.7168 11.0339 32.1191 11.2488C32.5254 11.4597 32.8418 11.7507 33.0684 12.1218C33.2988 12.489 33.4141 12.9441 33.4141 13.4871C33.4141 13.9792 33.2773 14.4402 33.0039 14.8699C32.7305 15.2996 32.3438 15.6199 31.8438 15.8308C31.3438 16.0378 30.7207 16.1414 29.9746 16.1414C28.8887 16.1414 28.0547 15.8914 27.4727 15.3914C26.8906 14.8875 26.543 14.155 26.4297 13.1941ZM34.4512 13.7097L36.0449 13.5164C36.0957 13.9226 36.2324 14.2332 36.4551 14.448C36.6777 14.6628 36.9473 14.7703 37.2637 14.7703C37.6035 14.7703 37.8887 14.6414 38.1191 14.3835C38.3535 14.1257 38.4707 13.7781 38.4707 13.3406C38.4707 12.9265 38.3594 12.5984 38.1367 12.3562C37.9141 12.114 37.6426 11.9929 37.3223 11.9929C37.1113 11.9929 36.8594 12.0339 36.5664 12.116L36.748 10.7742C37.1934 10.7859 37.5332 10.6902 37.7676 10.4871C38.002 10.28 38.1191 10.0066 38.1191 9.66675C38.1191 9.37769 38.0332 9.14722 37.8613 8.97534C37.6895 8.80347 37.4609 8.71753 37.1758 8.71753C36.8945 8.71753 36.6543 8.81519 36.4551 9.0105C36.2559 9.20581 36.1348 9.49097 36.0918 9.86597L34.5742 9.60815C34.6797 9.08862 34.8379 8.67456 35.0488 8.36597C35.2637 8.05347 35.5605 7.80933 35.9395 7.63354C36.3223 7.45386 36.75 7.36401 37.2227 7.36401C38.0312 7.36401 38.6797 7.62183 39.168 8.13745C39.5703 8.55933 39.7715 9.03589 39.7715 9.56714C39.7715 10.321 39.3594 10.9226 38.5352 11.3718C39.0273 11.4773 39.4199 11.7136 39.7129 12.0808C40.0098 12.448 40.1582 12.8914 40.1582 13.4109C40.1582 14.1648 39.8828 14.8074 39.332 15.3386C38.7812 15.8699 38.0957 16.1355 37.2754 16.1355C36.498 16.1355 35.8535 15.9128 35.3418 15.4675C34.8301 15.0183 34.5332 14.4324 34.4512 13.7097Z" fill="white"/>
<defs>
<linearGradient id="paint0_linear_67_1852" x1="25" y1="1.98901" x2="25" y2="21.989" gradientUnits="userSpaceOnUse">
<stop stop-color="#509AED"/>
<stop offset="1" stop-color="#5C1F15"/>
</linearGradient>
</defs>
</svg>
