<svg width="59" height="24" viewBox="0 0 59 24" fill="none" xmlns="http://www.w3.org/2000/svg">
<rect x="2" y="1.98901" width="56" height="20" rx="10" fill="url(#paint0_linear_67_1945)"/>
<rect x="2" y="1.98901" width="56" height="20" rx="10" stroke="#94E4C7" stroke-width="3" stroke-linejoin="round"/>
<path d="M9.75586 13.1941L11.4434 13.03C11.5449 13.5964 11.75 14.0125 12.0586 14.2781C12.3711 14.5437 12.791 14.6765 13.3184 14.6765C13.877 14.6765 14.2969 14.5593 14.5781 14.325C14.8633 14.0867 15.0059 13.8093 15.0059 13.4929C15.0059 13.2898 14.9453 13.1179 14.8242 12.9773C14.707 12.8328 14.5 12.7078 14.2031 12.6023C14 12.532 13.5371 12.407 12.8145 12.2273C11.8848 11.9968 11.2324 11.7136 10.8574 11.3777C10.3301 10.905 10.0664 10.3289 10.0664 9.64917C10.0664 9.21167 10.1895 8.80347 10.4355 8.42456C10.6855 8.04175 11.043 7.75073 11.5078 7.55151C11.9766 7.35229 12.541 7.25269 13.2012 7.25269C14.2793 7.25269 15.0898 7.48901 15.6328 7.96167C16.1797 8.43433 16.4668 9.06519 16.4941 9.85425L14.7598 9.93042C14.6855 9.48901 14.5254 9.17261 14.2793 8.9812C14.0371 8.78589 13.6719 8.68823 13.1836 8.68823C12.6797 8.68823 12.2852 8.79175 12 8.99878C11.8164 9.13159 11.7246 9.30933 11.7246 9.53198C11.7246 9.73511 11.8105 9.90894 11.9824 10.0535C12.2012 10.2371 12.7324 10.4285 13.5762 10.6277C14.4199 10.8269 15.043 11.0339 15.4453 11.2488C15.8516 11.4597 16.168 11.7507 16.3945 12.1218C16.625 12.489 16.7402 12.9441 16.7402 13.4871C16.7402 13.9792 16.6035 14.4402 16.3301 14.8699C16.0566 15.2996 15.6699 15.6199 15.1699 15.8308C14.6699 16.0378 14.0469 16.1414 13.3008 16.1414C12.2148 16.1414 11.3809 15.8914 10.7988 15.3914C10.2168 14.8875 9.86914 14.155 9.75586 13.1941ZM18.1758 15.989V7.39917H20.7715L22.3301 13.2585L23.8711 7.39917H26.4727V15.989H24.8613V9.22729L23.1562 15.989H21.4863L19.7871 9.22729V15.989H18.1758ZM28.1953 15.989V7.39917H30.9785C32.0332 7.39917 32.7207 7.44214 33.041 7.52808C33.5332 7.65698 33.9453 7.93823 34.2773 8.37183C34.6094 8.80151 34.7754 9.35815 34.7754 10.0417C34.7754 10.5691 34.6797 11.0125 34.4883 11.3718C34.2969 11.7312 34.0527 12.0144 33.7559 12.2214C33.4629 12.4246 33.1641 12.5593 32.8594 12.6257C32.4453 12.7078 31.8457 12.7488 31.0605 12.7488H29.9297V15.989H28.1953ZM29.9297 8.85229V11.2898H30.8789C31.5625 11.2898 32.0195 11.2449 32.25 11.155C32.4805 11.0652 32.6602 10.9246 32.7891 10.7332C32.9219 10.5417 32.9883 10.3191 32.9883 10.0652C32.9883 9.75269 32.8965 9.49487 32.7129 9.29175C32.5293 9.08862 32.2969 8.96167 32.0156 8.91089C31.8086 8.87183 31.3926 8.85229 30.7676 8.85229H29.9297ZM36.1934 7.39917H39.3633C40.0781 7.39917 40.623 7.45386 40.998 7.56323C41.502 7.71167 41.9336 7.97534 42.293 8.35425C42.6523 8.73315 42.9258 9.198 43.1133 9.74878C43.3008 10.2957 43.3945 10.9714 43.3945 11.7761C43.3945 12.4832 43.3066 13.0925 43.1309 13.6042C42.916 14.2292 42.6094 14.7351 42.2109 15.1218C41.9102 15.4148 41.5039 15.6433 40.9922 15.8074C40.6094 15.9285 40.0977 15.989 39.457 15.989H36.1934V7.39917ZM37.9277 8.85229V14.5417H39.2227C39.707 14.5417 40.0566 14.5144 40.2715 14.4597C40.5527 14.3894 40.7852 14.2703 40.9688 14.1023C41.1562 13.9343 41.3086 13.6589 41.4258 13.2761C41.543 12.8894 41.6016 12.364 41.6016 11.7C41.6016 11.0359 41.543 10.5261 41.4258 10.1707C41.3086 9.81519 41.1445 9.53784 40.9336 9.33862C40.7227 9.1394 40.4551 9.00464 40.1309 8.93433C39.8887 8.87964 39.4141 8.85229 38.707 8.85229H37.9277ZM50.0684 14.4597V15.989H44.2969C44.3594 15.4109 44.5469 14.864 44.8594 14.3484C45.1719 13.8289 45.7891 13.1414 46.7109 12.2859C47.4531 11.5945 47.9082 11.1257 48.0762 10.8796C48.3027 10.5398 48.416 10.2039 48.416 9.87183C48.416 9.50464 48.3164 9.22339 48.1172 9.02808C47.9219 8.82886 47.6504 8.72925 47.3027 8.72925C46.959 8.72925 46.6855 8.83276 46.4824 9.03979C46.2793 9.24683 46.1621 9.59058 46.1309 10.071L44.4902 9.90698C44.5879 9.00073 44.8945 8.35034 45.4102 7.95581C45.9258 7.56128 46.5703 7.36401 47.3438 7.36401C48.1914 7.36401 48.8574 7.59253 49.3418 8.04956C49.8262 8.50659 50.0684 9.07495 50.0684 9.75464C50.0684 10.1414 49.998 10.5105 49.8574 10.8621C49.7207 11.2097 49.502 11.575 49.2012 11.9578C49.002 12.2117 48.6426 12.5769 48.123 13.0535C47.6035 13.53 47.2734 13.8464 47.1328 14.0027C46.9961 14.1589 46.8848 14.3113 46.7988 14.4597H50.0684Z" fill="white"/>
<defs>
<linearGradient id="paint0_linear_67_1945" x1="30" y1="1.98901" x2="30" y2="21.989" gradientUnits="userSpaceOnUse">
<stop stop-color="#94E4C7"/>
<stop offset="1" stop-color="#004117"/>
</linearGradient>
</defs>
</svg>
