<svg width="55" height="24" viewBox="0 0 55 24" fill="none" xmlns="http://www.w3.org/2000/svg">
<rect x="2" y="1.98901" width="52" height="20" rx="10" fill="url(#paint0_linear_64_1820)"/>
<rect x="2" y="1.98901" width="52" height="20" rx="10" stroke="#FF5757" stroke-width="3" stroke-linejoin="round"/>
<path d="M10.1816 15.989V7.39917H12.7773L14.3359 13.2585L15.877 7.39917H18.4785V15.989H16.8672V9.22729L15.1621 15.989H13.4922L11.793 9.22729V15.989H10.1816ZM20.1777 15.989V7.39917H22.7734L24.332 13.2585L25.873 7.39917H28.4746V15.989H26.8633V9.22729L25.1582 15.989H23.4883L21.7891 9.22729V15.989H20.1777ZM37.9434 15.989H36.0566L35.3066 14.0378H31.873L31.1641 15.989H29.3242L32.6699 7.39917H34.5039L37.9434 15.989ZM34.75 12.5906L33.5664 9.40308L32.4062 12.5906H34.75ZM46.6152 15.989H44.7285L43.9785 14.0378H40.5449L39.8359 15.989H37.9961L41.3418 7.39917H43.1758L46.6152 15.989ZM43.4219 12.5906L42.2383 9.40308L41.0781 12.5906H43.4219Z" fill="white"/>
<defs>
<linearGradient id="paint0_linear_64_1820" x1="28" y1="1.98901" x2="28" y2="21.989" gradientUnits="userSpaceOnUse">
<stop stop-color="#705400"/>
<stop offset="1" stop-color="#FF5757"/>
</linearGradient>
</defs>
</svg>
