<svg width="69" height="24" viewBox="0 0 69 24" fill="none" xmlns="http://www.w3.org/2000/svg">
<rect x="1" y="1.98901" width="67" height="20" rx="10" fill="url(#paint0_linear_84_2021)"/>
<rect x="1" y="1.98901" width="67" height="20" rx="10" stroke="#2AA0D0" stroke-width="3" stroke-linejoin="round"/>
<path d="M10.9512 15.989V8.85229H8.40234V7.39917H15.2285V8.85229H12.6855V15.989H10.9512ZM16.3594 15.989V7.39917H20.0098C20.9277 7.39917 21.5938 7.47729 22.0078 7.63354C22.4258 7.78589 22.7598 8.05933 23.0098 8.45386C23.2598 8.84839 23.3848 9.29956 23.3848 9.80737C23.3848 10.4519 23.1953 10.9851 22.8164 11.407C22.4375 11.825 21.8711 12.0886 21.1172 12.198C21.4922 12.4167 21.8008 12.657 22.043 12.9187C22.2891 13.1804 22.6191 13.6453 23.0332 14.3132L24.082 15.989H22.0078L20.7539 14.1199C20.3086 13.4519 20.0039 13.032 19.8398 12.8601C19.6758 12.6843 19.502 12.5652 19.3184 12.5027C19.1348 12.4363 18.8438 12.4031 18.4453 12.4031H18.0938V15.989H16.3594ZM18.0938 11.032H19.377C20.209 11.032 20.7285 10.9968 20.9355 10.9265C21.1426 10.8562 21.3047 10.7351 21.4219 10.5632C21.5391 10.3914 21.5977 10.1765 21.5977 9.9187C21.5977 9.62964 21.5195 9.39722 21.3633 9.22144C21.2109 9.04175 20.9941 8.92847 20.7129 8.88159C20.5723 8.86206 20.1504 8.85229 19.4473 8.85229H18.0938V11.032ZM25.002 15.989V7.39917H27.5977L29.1562 13.2585L30.6973 7.39917H33.2988V15.989H31.6875V9.22729L29.9824 15.989H28.3125L26.6133 9.22729V15.989H25.002ZM36.9551 15.989V8.85229H34.4062V7.39917H41.2324V8.85229H38.6895V15.989H36.9551ZM46.207 15.989H44.5605V9.78394C43.959 10.3464 43.25 10.7625 42.4336 11.032V9.53784C42.8633 9.39722 43.3301 9.13159 43.834 8.74097C44.3379 8.34644 44.6836 7.88745 44.8711 7.36401H46.207V15.989ZM52.2188 15.989H50.5723V9.78394C49.9707 10.3464 49.2617 10.7625 48.4453 11.032V9.53784C48.875 9.39722 49.3418 9.13159 49.8457 8.74097C50.3496 8.34644 50.6953 7.88745 50.8828 7.36401H52.2188V15.989ZM60.2461 14.4597V15.989H54.4746C54.5371 15.4109 54.7246 14.864 55.0371 14.3484C55.3496 13.8289 55.9668 13.1414 56.8887 12.2859C57.6309 11.5945 58.0859 11.1257 58.2539 10.8796C58.4805 10.5398 58.5938 10.2039 58.5938 9.87183C58.5938 9.50464 58.4941 9.22339 58.2949 9.02808C58.0996 8.82886 57.8281 8.72925 57.4805 8.72925C57.1367 8.72925 56.8633 8.83276 56.6602 9.03979C56.457 9.24683 56.3398 9.59058 56.3086 10.071L54.668 9.90698C54.7656 9.00073 55.0723 8.35034 55.5879 7.95581C56.1035 7.56128 56.748 7.36401 57.5215 7.36401C58.3691 7.36401 59.0352 7.59253 59.5195 8.04956C60.0039 8.50659 60.2461 9.07495 60.2461 9.75464C60.2461 10.1414 60.1758 10.5105 60.0352 10.8621C59.8984 11.2097 59.6797 11.575 59.3789 11.9578C59.1797 12.2117 58.8203 12.5769 58.3008 13.0535C57.7812 13.53 57.4512 13.8464 57.3105 14.0027C57.1738 14.1589 57.0625 14.3113 56.9766 14.4597H60.2461Z" fill="white"/>
<defs>
<linearGradient id="paint0_linear_84_2021" x1="34.5" y1="1.98901" x2="34.5" y2="21.989" gradientUnits="userSpaceOnUse">
<stop stop-color="#2AA0D0"/>
<stop offset="1" stop-color="#CF9039"/>
</linearGradient>
</defs>
</svg>
