<svg width="59" height="24" viewBox="0 0 59 24" fill="none" xmlns="http://www.w3.org/2000/svg">
<rect x="2" y="1.98901" width="56" height="20" rx="10" fill="url(#paint0_linear_66_2023)"/>
<rect x="2" y="1.98901" width="56" height="20" rx="10" stroke="#144035" stroke-width="3" stroke-linejoin="round"/>
<path d="M10.1953 15.989V7.39917H12.9785C14.0332 7.39917 14.7207 7.44214 15.041 7.52808C15.5332 7.65698 15.9453 7.93823 16.2773 8.37183C16.6094 8.80151 16.7754 9.35815 16.7754 10.0417C16.7754 10.5691 16.6797 11.0125 16.4883 11.3718C16.2969 11.7312 16.0527 12.0144 15.7559 12.2214C15.4629 12.4246 15.1641 12.5593 14.8594 12.6257C14.4453 12.7078 13.8457 12.7488 13.0605 12.7488H11.9297V15.989H10.1953ZM11.9297 8.85229V11.2898H12.8789C13.5625 11.2898 14.0195 11.2449 14.25 11.155C14.4805 11.0652 14.6602 10.9246 14.7891 10.7332C14.9219 10.5417 14.9883 10.3191 14.9883 10.0652C14.9883 9.75269 14.8965 9.49487 14.7129 9.29175C14.5293 9.08862 14.2969 8.96167 14.0156 8.91089C13.8086 8.87183 13.3926 8.85229 12.7676 8.85229H11.9297ZM17.8477 11.7468C17.8477 10.8718 17.9785 10.1375 18.2402 9.5437C18.4355 9.1062 18.7012 8.71362 19.0371 8.36597C19.377 8.01831 19.748 7.7605 20.1504 7.59253C20.6855 7.36597 21.3027 7.25269 22.002 7.25269C23.2676 7.25269 24.2793 7.64526 25.0371 8.43042C25.7988 9.21558 26.1797 10.3074 26.1797 11.7058C26.1797 13.0925 25.8027 14.1785 25.0488 14.9636C24.2949 15.7449 23.2871 16.1355 22.0254 16.1355C20.748 16.1355 19.7324 15.7468 18.9785 14.9695C18.2246 14.1882 17.8477 13.114 17.8477 11.7468ZM19.6348 11.6882C19.6348 12.6609 19.8594 13.3992 20.3086 13.9031C20.7578 14.4031 21.3281 14.6531 22.0195 14.6531C22.7109 14.6531 23.2773 14.405 23.7188 13.9089C24.1641 13.4089 24.3867 12.6609 24.3867 11.6648C24.3867 10.6804 24.1699 9.94604 23.7363 9.46167C23.3066 8.97729 22.7344 8.73511 22.0195 8.73511C21.3047 8.73511 20.7285 8.9812 20.291 9.47339C19.8535 9.96167 19.6348 10.7 19.6348 11.6882ZM27.5156 15.989V7.39917H30.1113L31.6699 13.2585L33.2109 7.39917H35.8125V15.989H34.2012V9.22729L32.4961 15.989H30.8262L29.127 9.22729V15.989H27.5156ZM39.4688 15.989V8.85229H36.9199V7.39917H43.7461V8.85229H41.2031V15.989H39.4688ZM48.7207 15.989H47.0742V9.78394C46.4727 10.3464 45.7637 10.7625 44.9473 11.032V9.53784C45.377 9.39722 45.8438 9.13159 46.3477 8.74097C46.8516 8.34644 47.1973 7.88745 47.3848 7.36401H48.7207V15.989Z" fill="white"/>
<defs>
<linearGradient id="paint0_linear_66_2023" x1="30" y1="1.98901" x2="30" y2="21.989" gradientUnits="userSpaceOnUse">
<stop stop-color="#144035"/>
<stop offset="1" stop-color="#A30370"/>
</linearGradient>
</defs>
</svg>
