<svg width="57" height="24" viewBox="0 0 57 24" fill="none" xmlns="http://www.w3.org/2000/svg">
<rect x="2" y="1.98901" width="54" height="20" rx="10" fill="url(#paint0_linear_42_2611)"/>
<rect x="2" y="1.98901" width="54" height="20" rx="10" stroke="#3EB51D" stroke-width="3" stroke-linejoin="round"/>
<path d="M10.1914 15.989V7.39917H16.5605V8.85229H11.9258V10.7566H16.2383V12.2039H11.9258V14.5417H16.7246V15.989H10.1914ZM18.2422 15.989V7.46948H19.9766V14.5417H24.2891V15.989H18.2422ZM33.2773 15.989H31.3906L30.6406 14.0378H27.207L26.498 15.989H24.6582L28.0039 7.39917H29.8379L33.2773 15.989ZM30.084 12.5906L28.9004 9.40308L27.7402 12.5906H30.084ZM39.6992 12.8308L41.3809 13.364C41.123 14.3015 40.6934 14.9988 40.0918 15.4558C39.4941 15.9089 38.7344 16.1355 37.8125 16.1355C36.6719 16.1355 35.7344 15.7468 35 14.9695C34.2656 14.1882 33.8984 13.1218 33.8984 11.7703C33.8984 10.3406 34.2676 9.2312 35.0059 8.44214C35.7441 7.64917 36.7148 7.25269 37.918 7.25269C38.9688 7.25269 39.8223 7.56323 40.4785 8.18433C40.8691 8.55151 41.1621 9.07886 41.3574 9.76636L39.6406 10.1765C39.5391 9.7312 39.3262 9.37964 39.002 9.12183C38.6816 8.86401 38.291 8.73511 37.8301 8.73511C37.1934 8.73511 36.6758 8.96362 36.2773 9.42065C35.8828 9.87769 35.6855 10.6179 35.6855 11.6414C35.6855 12.7273 35.8809 13.5007 36.2715 13.9617C36.6621 14.4226 37.1699 14.6531 37.7949 14.6531C38.2559 14.6531 38.6523 14.5066 38.9844 14.2136C39.3164 13.9207 39.5547 13.4597 39.6992 12.8308ZM48.0723 14.4597V15.989H42.3008C42.3633 15.4109 42.5508 14.864 42.8633 14.3484C43.1758 13.8289 43.793 13.1414 44.7148 12.2859C45.457 11.5945 45.9121 11.1257 46.0801 10.8796C46.3066 10.5398 46.4199 10.2039 46.4199 9.87183C46.4199 9.50464 46.3203 9.22339 46.1211 9.02808C45.9258 8.82886 45.6543 8.72925 45.3066 8.72925C44.9629 8.72925 44.6895 8.83276 44.4863 9.03979C44.2832 9.24683 44.166 9.59058 44.1348 10.071L42.4941 9.90698C42.5918 9.00073 42.8984 8.35034 43.4141 7.95581C43.9297 7.56128 44.5742 7.36401 45.3477 7.36401C46.1953 7.36401 46.8613 7.59253 47.3457 8.04956C47.8301 8.50659 48.0723 9.07495 48.0723 9.75464C48.0723 10.1414 48.002 10.5105 47.8613 10.8621C47.7246 11.2097 47.5059 11.575 47.2051 11.9578C47.0059 12.2117 46.6465 12.5769 46.127 13.0535C45.6074 13.53 45.2773 13.8464 45.1367 14.0027C45 14.1589 44.8887 14.3113 44.8027 14.4597H48.0723Z" fill="white"/>
<defs>
<linearGradient id="paint0_linear_42_2611" x1="29" y1="1.98901" x2="29" y2="21.989" gradientUnits="userSpaceOnUse">
<stop stop-color="#006381"/>
<stop offset="1" stop-color="#3EB51D"/>
</linearGradient>
</defs>
</svg>
