<svg width="53" height="24" viewBox="0 0 53 24" fill="none" xmlns="http://www.w3.org/2000/svg">
<rect x="2" y="1.98901" width="50" height="20" rx="10" fill="url(#paint0_linear_85_2098)"/>
<rect x="2" y="1.98901" width="50" height="20" rx="10" stroke="#63A521" stroke-width="3" stroke-linejoin="round"/>
<path d="M10.1777 7.39917H11.9121V12.0515C11.9121 12.7898 11.9336 13.2683 11.9766 13.4871C12.0508 13.8386 12.2266 14.1218 12.5039 14.3367C12.7852 14.5476 13.168 14.6531 13.6523 14.6531C14.1445 14.6531 14.5156 14.5535 14.7656 14.3542C15.0156 14.1511 15.166 13.9031 15.2168 13.6101C15.2676 13.3171 15.293 12.8308 15.293 12.1511V7.39917H17.0273V11.9109C17.0273 12.9421 16.9805 13.6707 16.8867 14.0964C16.793 14.5222 16.6191 14.8816 16.3652 15.1746C16.1152 15.4675 15.7793 15.7019 15.3574 15.8777C14.9355 16.0496 14.3848 16.1355 13.7051 16.1355C12.8848 16.1355 12.2617 16.0417 11.8359 15.8542C11.4141 15.6628 11.0801 15.4167 10.834 15.116C10.5879 14.8113 10.4258 14.4929 10.3477 14.1609C10.2344 13.6687 10.1777 12.9421 10.1777 11.9812V7.39917ZM18.8672 7.39917H22.3008C22.9805 7.39917 23.4863 7.42847 23.8184 7.48706C24.1543 7.54175 24.4531 7.65894 24.7148 7.83862C24.9805 8.01831 25.2012 8.25854 25.377 8.55933C25.5527 8.8562 25.6406 9.19019 25.6406 9.56128C25.6406 9.96362 25.5312 10.3328 25.3125 10.6687C25.0977 11.0046 24.8047 11.2566 24.4336 11.4246C24.957 11.5769 25.3594 11.8367 25.6406 12.2039C25.9219 12.571 26.0625 13.0027 26.0625 13.4988C26.0625 13.8894 25.9707 14.2703 25.7871 14.6414C25.6074 15.0085 25.3594 15.3035 25.043 15.5261C24.7305 15.7449 24.3438 15.8796 23.8828 15.9304C23.5938 15.9617 22.8965 15.9812 21.791 15.989H18.8672V7.39917ZM20.6016 8.82886V10.8152H21.7383C22.4141 10.8152 22.834 10.8054 22.998 10.7859C23.2949 10.7507 23.5273 10.6492 23.6953 10.4812C23.8672 10.3093 23.9531 10.0847 23.9531 9.80737C23.9531 9.54175 23.8789 9.3269 23.7305 9.16284C23.5859 8.99487 23.3691 8.89331 23.0801 8.85815C22.9082 8.83862 22.4141 8.82886 21.5977 8.82886H20.6016ZM20.6016 12.2449V14.5417H22.207C22.832 14.5417 23.2285 14.5242 23.3965 14.489C23.6543 14.4421 23.8633 14.3289 24.0234 14.1492C24.1875 13.9656 24.2695 13.7214 24.2695 13.4167C24.2695 13.1589 24.207 12.9402 24.082 12.7605C23.957 12.5808 23.7754 12.45 23.5371 12.3679C23.3027 12.2859 22.791 12.2449 22.002 12.2449H20.6016ZM27.5332 15.989V7.39917H33.9023V8.85229H29.2676V10.7566H33.5801V12.2039H29.2676V14.5417H34.0664V15.989H27.5332ZM40.7344 14.4597V15.989H34.9629C35.0254 15.4109 35.2129 14.864 35.5254 14.3484C35.8379 13.8289 36.4551 13.1414 37.377 12.2859C38.1191 11.5945 38.5742 11.1257 38.7422 10.8796C38.9688 10.5398 39.082 10.2039 39.082 9.87183C39.082 9.50464 38.9824 9.22339 38.7832 9.02808C38.5879 8.82886 38.3164 8.72925 37.9688 8.72925C37.625 8.72925 37.3516 8.83276 37.1484 9.03979C36.9453 9.24683 36.8281 9.59058 36.7969 10.071L35.1562 9.90698C35.2539 9.00073 35.5605 8.35034 36.0762 7.95581C36.5918 7.56128 37.2363 7.36401 38.0098 7.36401C38.8574 7.36401 39.5234 7.59253 40.0078 8.04956C40.4922 8.50659 40.7344 9.07495 40.7344 9.75464C40.7344 10.1414 40.6641 10.5105 40.5234 10.8621C40.3867 11.2097 40.168 11.575 39.8672 11.9578C39.668 12.2117 39.3086 12.5769 38.7891 13.0535C38.2695 13.53 37.9395 13.8464 37.7988 14.0027C37.6621 14.1589 37.5508 14.3113 37.4648 14.4597H40.7344ZM42.1641 15.989V7.39917H43.8984V15.989H42.1641Z" fill="white"/>
<defs>
<linearGradient id="paint0_linear_85_2098" x1="27" y1="1.98901" x2="27" y2="21.989" gradientUnits="userSpaceOnUse">
<stop stop-color="#63A521"/>
<stop offset="1" stop-color="#9B439B"/>
</linearGradient>
</defs>
</svg>
