<svg width="66" height="24" viewBox="0 0 66 24" fill="none" xmlns="http://www.w3.org/2000/svg">
<rect x="1" y="1.98901" width="64" height="20" rx="10" fill="url(#paint0_linear_67_1934)"/>
<rect x="1" y="1.98901" width="64" height="20" rx="10" stroke="#C9AE15" stroke-width="3" stroke-linejoin="round"/>
<path d="M8.74219 13.1941L10.4297 13.03C10.5312 13.5964 10.7363 14.0125 11.0449 14.2781C11.3574 14.5437 11.7773 14.6765 12.3047 14.6765C12.8633 14.6765 13.2832 14.5593 13.5645 14.325C13.8496 14.0867 13.9922 13.8093 13.9922 13.4929C13.9922 13.2898 13.9316 13.1179 13.8105 12.9773C13.6934 12.8328 13.4863 12.7078 13.1895 12.6023C12.9863 12.532 12.5234 12.407 11.8008 12.2273C10.8711 11.9968 10.2188 11.7136 9.84375 11.3777C9.31641 10.905 9.05273 10.3289 9.05273 9.64917C9.05273 9.21167 9.17578 8.80347 9.42188 8.42456C9.67188 8.04175 10.0293 7.75073 10.4941 7.55151C10.9629 7.35229 11.5273 7.25269 12.1875 7.25269C13.2656 7.25269 14.0762 7.48901 14.6191 7.96167C15.166 8.43433 15.4531 9.06519 15.4805 9.85425L13.7461 9.93042C13.6719 9.48901 13.5117 9.17261 13.2656 8.9812C13.0234 8.78589 12.6582 8.68823 12.1699 8.68823C11.666 8.68823 11.2715 8.79175 10.9863 8.99878C10.8027 9.13159 10.7109 9.30933 10.7109 9.53198C10.7109 9.73511 10.7969 9.90894 10.9688 10.0535C11.1875 10.2371 11.7188 10.4285 12.5625 10.6277C13.4062 10.8269 14.0293 11.0339 14.4316 11.2488C14.8379 11.4597 15.1543 11.7507 15.3809 12.1218C15.6113 12.489 15.7266 12.9441 15.7266 13.4871C15.7266 13.9792 15.5898 14.4402 15.3164 14.8699C15.043 15.2996 14.6562 15.6199 14.1562 15.8308C13.6562 16.0378 13.0332 16.1414 12.2871 16.1414C11.2012 16.1414 10.3672 15.8914 9.78516 15.3914C9.20312 14.8875 8.85547 14.155 8.74219 13.1941ZM17.1855 15.989V7.39917H23.5547V8.85229H18.9199V10.7566H23.2324V12.2039H18.9199V14.5417H23.7188V15.989H17.1855ZM24.75 13.1941L26.4375 13.03C26.5391 13.5964 26.7441 14.0125 27.0527 14.2781C27.3652 14.5437 27.7852 14.6765 28.3125 14.6765C28.8711 14.6765 29.291 14.5593 29.5723 14.325C29.8574 14.0867 30 13.8093 30 13.4929C30 13.2898 29.9395 13.1179 29.8184 12.9773C29.7012 12.8328 29.4941 12.7078 29.1973 12.6023C28.9941 12.532 28.5312 12.407 27.8086 12.2273C26.8789 11.9968 26.2266 11.7136 25.8516 11.3777C25.3242 10.905 25.0605 10.3289 25.0605 9.64917C25.0605 9.21167 25.1836 8.80347 25.4297 8.42456C25.6797 8.04175 26.0371 7.75073 26.502 7.55151C26.9707 7.35229 27.5352 7.25269 28.1953 7.25269C29.2734 7.25269 30.084 7.48901 30.627 7.96167C31.1738 8.43433 31.4609 9.06519 31.4883 9.85425L29.7539 9.93042C29.6797 9.48901 29.5195 9.17261 29.2734 8.9812C29.0312 8.78589 28.666 8.68823 28.1777 8.68823C27.6738 8.68823 27.2793 8.79175 26.9941 8.99878C26.8105 9.13159 26.7188 9.30933 26.7188 9.53198C26.7188 9.73511 26.8047 9.90894 26.9766 10.0535C27.1953 10.2371 27.7266 10.4285 28.5703 10.6277C29.4141 10.8269 30.0371 11.0339 30.4395 11.2488C30.8457 11.4597 31.1621 11.7507 31.3887 12.1218C31.6191 12.489 31.7344 12.9441 31.7344 13.4871C31.7344 13.9792 31.5977 14.4402 31.3242 14.8699C31.0508 15.2996 30.6641 15.6199 30.1641 15.8308C29.6641 16.0378 29.041 16.1414 28.2949 16.1414C27.209 16.1414 26.375 15.8914 25.793 15.3914C25.2109 14.8875 24.8633 14.155 24.75 13.1941ZM33.2109 15.989V7.39917H34.8984L38.4141 13.1355V7.39917H40.0254V15.989H38.2852L34.8223 10.3875V15.989H33.2109ZM45.7148 15.989H44.0684V9.78394C43.4668 10.3464 42.7578 10.7625 41.9414 11.032V9.53784C42.3711 9.39722 42.8379 9.13159 43.3418 8.74097C43.8457 8.34644 44.1914 7.88745 44.3789 7.36401H45.7148V15.989ZM48.4922 14.3425H50.1387V15.5203C50.1387 15.9968 50.0977 16.3718 50.0156 16.6453C49.9336 16.9226 49.7773 17.1707 49.5469 17.3894C49.3203 17.6082 49.0312 17.78 48.6797 17.905L48.3574 17.2253C48.6895 17.116 48.9258 16.9656 49.0664 16.7742C49.207 16.5828 49.2812 16.321 49.2891 15.989H48.4922V14.3425ZM57.082 14.4597V15.989H51.3105C51.373 15.4109 51.5605 14.864 51.873 14.3484C52.1855 13.8289 52.8027 13.1414 53.7246 12.2859C54.4668 11.5945 54.9219 11.1257 55.0898 10.8796C55.3164 10.5398 55.4297 10.2039 55.4297 9.87183C55.4297 9.50464 55.3301 9.22339 55.1309 9.02808C54.9355 8.82886 54.6641 8.72925 54.3164 8.72925C53.9727 8.72925 53.6992 8.83276 53.4961 9.03979C53.293 9.24683 53.1758 9.59058 53.1445 10.071L51.5039 9.90698C51.6016 9.00073 51.9082 8.35034 52.4238 7.95581C52.9395 7.56128 53.584 7.36401 54.3574 7.36401C55.2051 7.36401 55.8711 7.59253 56.3555 8.04956C56.8398 8.50659 57.082 9.07495 57.082 9.75464C57.082 10.1414 57.0117 10.5105 56.8711 10.8621C56.7344 11.2097 56.5156 11.575 56.2148 11.9578C56.0156 12.2117 55.6562 12.5769 55.1367 13.0535C54.6172 13.53 54.2871 13.8464 54.1465 14.0027C54.0098 14.1589 53.8984 14.3113 53.8125 14.4597H57.082Z" fill="white"/>
<defs>
<linearGradient id="paint0_linear_67_1934" x1="33" y1="1.98901" x2="33" y2="21.989" gradientUnits="userSpaceOnUse">
<stop stop-color="#C9AE15"/>
<stop offset="1" stop-color="#9B609B"/>
</linearGradient>
</defs>
</svg>
