<svg width="58" height="24" viewBox="0 0 58 24" fill="none" xmlns="http://www.w3.org/2000/svg">
<rect x="2" y="1.98901" width="55" height="20" rx="10" fill="url(#paint0_linear_64_1973)"/>
<rect x="2" y="1.98901" width="55" height="20" rx="10" stroke="#537BFF" stroke-width="3" stroke-linejoin="round"/>
<path d="M10.3574 15.989V7.39917H13.1406C14.1953 7.39917 14.8828 7.44214 15.2031 7.52808C15.6953 7.65698 16.1074 7.93823 16.4395 8.37183C16.7715 8.80151 16.9375 9.35815 16.9375 10.0417C16.9375 10.5691 16.8418 11.0125 16.6504 11.3718C16.459 11.7312 16.2148 12.0144 15.918 12.2214C15.625 12.4246 15.3262 12.5593 15.0215 12.6257C14.6074 12.7078 14.0078 12.7488 13.2227 12.7488H12.0918V15.989H10.3574ZM12.0918 8.85229V11.2898H13.041C13.7246 11.2898 14.1816 11.2449 14.4121 11.155C14.6426 11.0652 14.8223 10.9246 14.9512 10.7332C15.084 10.5417 15.1504 10.3191 15.1504 10.0652C15.1504 9.75269 15.0586 9.49487 14.875 9.29175C14.6914 9.08862 14.459 8.96167 14.1777 8.91089C13.9707 8.87183 13.5547 8.85229 12.9297 8.85229H12.0918ZM18.3555 7.39917H21.5254C22.2402 7.39917 22.7852 7.45386 23.1602 7.56323C23.6641 7.71167 24.0957 7.97534 24.4551 8.35425C24.8145 8.73315 25.0879 9.198 25.2754 9.74878C25.4629 10.2957 25.5566 10.9714 25.5566 11.7761C25.5566 12.4832 25.4688 13.0925 25.293 13.6042C25.0781 14.2292 24.7715 14.7351 24.373 15.1218C24.0723 15.4148 23.666 15.6433 23.1543 15.8074C22.7715 15.9285 22.2598 15.989 21.6191 15.989H18.3555V7.39917ZM20.0898 8.85229V14.5417H21.3848C21.8691 14.5417 22.2188 14.5144 22.4336 14.4597C22.7148 14.3894 22.9473 14.2703 23.1309 14.1023C23.3184 13.9343 23.4707 13.6589 23.5879 13.2761C23.7051 12.8894 23.7637 12.364 23.7637 11.7C23.7637 11.0359 23.7051 10.5261 23.5879 10.1707C23.4707 9.81519 23.3066 9.53784 23.0957 9.33862C22.8848 9.1394 22.6172 9.00464 22.293 8.93433C22.0508 8.87964 21.5762 8.85229 20.8691 8.85229H20.0898ZM27.0332 15.989V7.39917H33.4023V8.85229H28.7676V10.7566H33.0801V12.2039H28.7676V14.5417H33.5664V15.989H27.0332ZM40.252 9.50269L38.6582 9.67847C38.6191 9.35034 38.5176 9.10815 38.3535 8.9519C38.1895 8.79565 37.9766 8.71753 37.7148 8.71753C37.3672 8.71753 37.0723 8.87378 36.8301 9.18628C36.5918 9.49878 36.4414 10.1492 36.3789 11.1375C36.7891 10.6531 37.2988 10.4109 37.9082 10.4109C38.5957 10.4109 39.1836 10.6726 39.6719 11.196C40.1641 11.7195 40.4102 12.3953 40.4102 13.2234C40.4102 14.1023 40.1523 14.8074 39.6367 15.3386C39.1211 15.8699 38.459 16.1355 37.6504 16.1355C36.7832 16.1355 36.0703 15.7996 35.5117 15.1277C34.9531 14.4519 34.6738 13.3464 34.6738 11.8113C34.6738 10.2371 34.9648 9.10229 35.5469 8.40698C36.1289 7.71167 36.8848 7.36401 37.8145 7.36401C38.4668 7.36401 39.0059 7.54761 39.4316 7.91479C39.8613 8.27808 40.1348 8.80737 40.252 9.50269ZM36.5195 13.0945C36.5195 13.6296 36.6426 14.0437 36.8887 14.3367C37.1348 14.6257 37.416 14.7703 37.7324 14.7703C38.0371 14.7703 38.291 14.6511 38.4941 14.4128C38.6973 14.1746 38.7988 13.7839 38.7988 13.241C38.7988 12.6824 38.6895 12.2742 38.4707 12.0164C38.252 11.7546 37.9785 11.6238 37.6504 11.6238C37.334 11.6238 37.0664 11.7488 36.8477 11.9988C36.6289 12.2449 36.5195 12.6101 36.5195 13.0945ZM49.4629 15.989H47.5762L46.8262 14.0378H43.3926L42.6836 15.989H40.8438L44.1895 7.39917H46.0234L49.4629 15.989ZM46.2695 12.5906L45.0859 9.40308L43.9258 12.5906H46.2695Z" fill="white"/>
<defs>
<linearGradient id="paint0_linear_64_1973" x1="29.5" y1="1.98901" x2="29.5" y2="21.989" gradientUnits="userSpaceOnUse">
<stop stop-color="#9A4FE7"/>
<stop offset="1" stop-color="#537BFF"/>
</linearGradient>
</defs>
</svg>
