<svg width="65" height="24" viewBox="0 0 65 24" fill="none" xmlns="http://www.w3.org/2000/svg">
<rect x="1" y="1.98901" width="63" height="20" rx="10" fill="url(#paint0_linear_35_1502)"/>
<rect x="1" y="1.98901" width="63" height="20" rx="10" stroke="#62A6FF" stroke-width="3" stroke-linejoin="round"/>
<path d="M9.36133 7.39917H12.7949C13.4746 7.39917 13.9805 7.42847 14.3125 7.48706C14.6484 7.54175 14.9473 7.65894 15.209 7.83862C15.4746 8.01831 15.6953 8.25854 15.8711 8.55933C16.0469 8.8562 16.1348 9.19019 16.1348 9.56128C16.1348 9.96362 16.0254 10.3328 15.8066 10.6687C15.5918 11.0046 15.2988 11.2566 14.9277 11.4246C15.4512 11.5769 15.8535 11.8367 16.1348 12.2039C16.416 12.571 16.5566 13.0027 16.5566 13.4988C16.5566 13.8894 16.4648 14.2703 16.2812 14.6414C16.1016 15.0085 15.8535 15.3035 15.5371 15.5261C15.2246 15.7449 14.8379 15.8796 14.377 15.9304C14.0879 15.9617 13.3906 15.9812 12.2852 15.989H9.36133V7.39917ZM11.0957 8.82886V10.8152H12.2324C12.9082 10.8152 13.3281 10.8054 13.4922 10.7859C13.7891 10.7507 14.0215 10.6492 14.1895 10.4812C14.3613 10.3093 14.4473 10.0847 14.4473 9.80737C14.4473 9.54175 14.373 9.3269 14.2246 9.16284C14.0801 8.99487 13.8633 8.89331 13.5742 8.85815C13.4023 8.83862 12.9082 8.82886 12.0918 8.82886H11.0957ZM11.0957 12.2449V14.5417H12.7012C13.3262 14.5417 13.7227 14.5242 13.8906 14.489C14.1484 14.4421 14.3574 14.3289 14.5176 14.1492C14.6816 13.9656 14.7637 13.7214 14.7637 13.4167C14.7637 13.1589 14.7012 12.9402 14.5762 12.7605C14.4512 12.5808 14.2695 12.45 14.0312 12.3679C13.7969 12.2859 13.2852 12.2449 12.4961 12.2449H11.0957ZM17.6055 13.7097L19.1992 13.5164C19.25 13.9226 19.3867 14.2332 19.6094 14.448C19.832 14.6628 20.1016 14.7703 20.418 14.7703C20.7578 14.7703 21.043 14.6414 21.2734 14.3835C21.5078 14.1257 21.625 13.7781 21.625 13.3406C21.625 12.9265 21.5137 12.5984 21.291 12.3562C21.0684 12.114 20.7969 11.9929 20.4766 11.9929C20.2656 11.9929 20.0137 12.0339 19.7207 12.116L19.9023 10.7742C20.3477 10.7859 20.6875 10.6902 20.9219 10.4871C21.1562 10.28 21.2734 10.0066 21.2734 9.66675C21.2734 9.37769 21.1875 9.14722 21.0156 8.97534C20.8438 8.80347 20.6152 8.71753 20.3301 8.71753C20.0488 8.71753 19.8086 8.81519 19.6094 9.0105C19.4102 9.20581 19.2891 9.49097 19.2461 9.86597L17.7285 9.60815C17.834 9.08862 17.9922 8.67456 18.2031 8.36597C18.418 8.05347 18.7148 7.80933 19.0938 7.63354C19.4766 7.45386 19.9043 7.36401 20.377 7.36401C21.1855 7.36401 21.834 7.62183 22.3223 8.13745C22.7246 8.55933 22.9258 9.03589 22.9258 9.56714C22.9258 10.321 22.5137 10.9226 21.6895 11.3718C22.1816 11.4773 22.5742 11.7136 22.8672 12.0808C23.1641 12.448 23.3125 12.8914 23.3125 13.4109C23.3125 14.1648 23.0371 14.8074 22.4863 15.3386C21.9355 15.8699 21.25 16.1355 20.4297 16.1355C19.6523 16.1355 19.0078 15.9128 18.4961 15.4675C17.9844 15.0183 17.6875 14.4324 17.6055 13.7097ZM28.7031 12.8308V11.3835H32.4414V14.8054C32.0781 15.157 31.5508 15.4675 30.8594 15.7371C30.1719 16.0027 29.4746 16.1355 28.7676 16.1355C27.8691 16.1355 27.0859 15.948 26.418 15.573C25.75 15.1941 25.248 14.655 24.9121 13.9558C24.5762 13.2527 24.4082 12.489 24.4082 11.6648C24.4082 10.7703 24.5957 9.97534 24.9707 9.28003C25.3457 8.58472 25.8945 8.05151 26.6172 7.68042C27.168 7.39526 27.8535 7.25269 28.6738 7.25269C29.7402 7.25269 30.5723 7.47729 31.1699 7.92651C31.7715 8.37183 32.1582 8.98901 32.3301 9.77808L30.6074 10.1003C30.4863 9.67847 30.2578 9.34644 29.9219 9.10425C29.5898 8.85815 29.1738 8.73511 28.6738 8.73511C27.916 8.73511 27.3125 8.97534 26.8633 9.45581C26.418 9.93628 26.1953 10.6492 26.1953 11.5945C26.1953 12.614 26.4219 13.3796 26.875 13.8914C27.3281 14.3992 27.9219 14.6531 28.6562 14.6531C29.0195 14.6531 29.3828 14.5828 29.7461 14.4421C30.1133 14.2976 30.4277 14.1238 30.6895 13.9207V12.8308H28.7031ZM34.0938 15.989V7.46948H35.8281V14.5417H40.1406V15.989H34.0938ZM46.8789 12.8308L48.5605 13.364C48.3027 14.3015 47.873 14.9988 47.2715 15.4558C46.6738 15.9089 45.9141 16.1355 44.9922 16.1355C43.8516 16.1355 42.9141 15.7468 42.1797 14.9695C41.4453 14.1882 41.0781 13.1218 41.0781 11.7703C41.0781 10.3406 41.4473 9.2312 42.1855 8.44214C42.9238 7.64917 43.8945 7.25269 45.0977 7.25269C46.1484 7.25269 47.002 7.56323 47.6582 8.18433C48.0488 8.55151 48.3418 9.07886 48.5371 9.76636L46.8203 10.1765C46.7188 9.7312 46.5059 9.37964 46.1816 9.12183C45.8613 8.86401 45.4707 8.73511 45.0098 8.73511C44.373 8.73511 43.8555 8.96362 43.457 9.42065C43.0625 9.87769 42.8652 10.6179 42.8652 11.6414C42.8652 12.7273 43.0605 13.5007 43.4512 13.9617C43.8418 14.4226 44.3496 14.6531 44.9746 14.6531C45.4355 14.6531 45.832 14.5066 46.1641 14.2136C46.4961 13.9207 46.7344 13.4597 46.8789 12.8308ZM51.9883 15.989V8.85229H49.4395V7.39917H56.2656V8.85229H53.7227V15.989H51.9883Z" fill="white"/>
<defs>
<linearGradient id="paint0_linear_35_1502" x1="32.5" y1="1.98901" x2="32.5" y2="21.989" gradientUnits="userSpaceOnUse">
<stop stop-color="#62A6FF"/>
<stop offset="1" stop-color="#230370"/>
</linearGradient>
</defs>
</svg>
