<svg width="60" height="24" viewBox="0 0 60 24" fill="none" xmlns="http://www.w3.org/2000/svg">
<rect x="2" y="1.98901" width="57" height="20" rx="10" fill="url(#paint0_linear_84_2036)"/>
<rect x="2" y="1.98901" width="57" height="20" rx="10" stroke="#61C2C0" stroke-width="3" stroke-linejoin="round"/>
<path d="M11.9551 15.989V8.85229H9.40625V7.39917H16.2324V8.85229H13.6895V15.989H11.9551ZM17.3633 15.989V7.39917H21.0137C21.9316 7.39917 22.5977 7.47729 23.0117 7.63354C23.4297 7.78589 23.7637 8.05933 24.0137 8.45386C24.2637 8.84839 24.3887 9.29956 24.3887 9.80737C24.3887 10.4519 24.1992 10.9851 23.8203 11.407C23.4414 11.825 22.875 12.0886 22.1211 12.198C22.4961 12.4167 22.8047 12.657 23.0469 12.9187C23.293 13.1804 23.623 13.6453 24.0371 14.3132L25.0859 15.989H23.0117L21.7578 14.1199C21.3125 13.4519 21.0078 13.032 20.8438 12.8601C20.6797 12.6843 20.5059 12.5652 20.3223 12.5027C20.1387 12.4363 19.8477 12.4031 19.4492 12.4031H19.0977V15.989H17.3633ZM19.0977 11.032H20.3809C21.2129 11.032 21.7324 10.9968 21.9395 10.9265C22.1465 10.8562 22.3086 10.7351 22.4258 10.5632C22.543 10.3914 22.6016 10.1765 22.6016 9.9187C22.6016 9.62964 22.5234 9.39722 22.3672 9.22144C22.2148 9.04175 21.998 8.92847 21.7168 8.88159C21.5762 8.86206 21.1543 8.85229 20.4512 8.85229H19.0977V11.032ZM25.9766 15.989V7.39917H27.7109V15.989H25.9766ZM29.3457 15.989V7.39917H31.9414L33.5 13.2585L35.041 7.39917H37.6426V15.989H36.0312V9.22729L34.3262 15.989H32.6562L30.957 9.22729V15.989H29.3457ZM44.5625 14.4597V15.989H38.791C38.8535 15.4109 39.041 14.864 39.3535 14.3484C39.666 13.8289 40.2832 13.1414 41.2051 12.2859C41.9473 11.5945 42.4023 11.1257 42.5703 10.8796C42.7969 10.5398 42.9102 10.2039 42.9102 9.87183C42.9102 9.50464 42.8105 9.22339 42.6113 9.02808C42.416 8.82886 42.1445 8.72925 41.7969 8.72925C41.4531 8.72925 41.1797 8.83276 40.9766 9.03979C40.7734 9.24683 40.6562 9.59058 40.625 10.071L38.9844 9.90698C39.082 9.00073 39.3887 8.35034 39.9043 7.95581C40.4199 7.56128 41.0645 7.36401 41.8379 7.36401C42.6855 7.36401 43.3516 7.59253 43.8359 8.04956C44.3203 8.50659 44.5625 9.07495 44.5625 9.75464C44.5625 10.1414 44.4922 10.5105 44.3516 10.8621C44.2148 11.2097 43.9961 11.575 43.6953 11.9578C43.4961 12.2117 43.1367 12.5769 42.6172 13.0535C42.0977 13.53 41.7676 13.8464 41.627 14.0027C41.4902 14.1589 41.3789 14.3113 41.293 14.4597H44.5625ZM47.0938 11.3542C46.668 11.1746 46.3574 10.9285 46.1621 10.616C45.9707 10.2996 45.875 9.95386 45.875 9.57886C45.875 8.93823 46.0977 8.40894 46.543 7.99097C46.9922 7.573 47.6289 7.36401 48.4531 7.36401C49.2695 7.36401 49.9023 7.573 50.3516 7.99097C50.8047 8.40894 51.0312 8.93823 51.0312 9.57886C51.0312 9.97729 50.9277 10.3328 50.7207 10.6453C50.5137 10.9539 50.2227 11.1902 49.8477 11.3542C50.3242 11.5457 50.6855 11.825 50.9316 12.1921C51.1816 12.5593 51.3066 12.9832 51.3066 13.4636C51.3066 14.2566 51.0527 14.9011 50.5449 15.3972C50.041 15.8933 49.3691 16.1414 48.5293 16.1414C47.748 16.1414 47.0977 15.9363 46.5781 15.5261C45.9648 15.0417 45.6582 14.3777 45.6582 13.5339C45.6582 13.0691 45.7734 12.6433 46.0039 12.2566C46.2344 11.866 46.5977 11.5652 47.0938 11.3542ZM47.4336 9.69604C47.4336 10.0242 47.5254 10.28 47.709 10.4636C47.8965 10.6472 48.1445 10.739 48.4531 10.739C48.7656 10.739 49.0156 10.6472 49.2031 10.4636C49.3906 10.2761 49.4844 10.0183 49.4844 9.69019C49.4844 9.38159 49.3906 9.1355 49.2031 8.9519C49.0195 8.7644 48.7754 8.67065 48.4707 8.67065C48.1543 8.67065 47.9023 8.7644 47.7148 8.9519C47.5273 9.1394 47.4336 9.38745 47.4336 9.69604ZM47.2812 13.3757C47.2812 13.8289 47.3965 14.1824 47.627 14.4363C47.8613 14.6902 48.1523 14.8171 48.5 14.8171C48.8398 14.8171 49.1211 14.696 49.3438 14.4539C49.5664 14.2078 49.6777 13.8542 49.6777 13.3933C49.6777 12.991 49.5645 12.6687 49.3379 12.4265C49.1113 12.1804 48.8242 12.0574 48.4766 12.0574C48.0742 12.0574 47.7734 12.196 47.5742 12.4734C47.3789 12.7507 47.2812 13.0515 47.2812 13.3757Z" fill="white"/>
<defs>
<linearGradient id="paint0_linear_84_2036" x1="30.5" y1="1.98901" x2="30.5" y2="21.989" gradientUnits="userSpaceOnUse">
<stop stop-color="#61C2C0"/>
<stop offset="1" stop-color="#BB9D4F"/>
</linearGradient>
</defs>
</svg>
