<svg width="60" height="24" viewBox="0 0 60 24" fill="none" xmlns="http://www.w3.org/2000/svg">
<rect x="2" y="1.98901" width="57" height="20" rx="10" fill="url(#paint0_linear_64_1862)"/>
<rect x="2" y="1.98901" width="57" height="20" rx="10" stroke="#091A9D" stroke-width="3" stroke-linejoin="round"/>
<path d="M10.0449 15.989V7.39917H11.7324L15.248 13.1355V7.39917H16.8594V15.989H15.1191L11.6562 10.3875V15.989H10.0449ZM18.3477 11.7468C18.3477 10.8718 18.4785 10.1375 18.7402 9.5437C18.9355 9.1062 19.2012 8.71362 19.5371 8.36597C19.877 8.01831 20.248 7.7605 20.6504 7.59253C21.1855 7.36597 21.8027 7.25269 22.502 7.25269C23.7676 7.25269 24.7793 7.64526 25.5371 8.43042C26.2988 9.21558 26.6797 10.3074 26.6797 11.7058C26.6797 13.0925 26.3027 14.1785 25.5488 14.9636C24.7949 15.7449 23.7871 16.1355 22.5254 16.1355C21.248 16.1355 20.2324 15.7468 19.4785 14.9695C18.7246 14.1882 18.3477 13.114 18.3477 11.7468ZM20.1348 11.6882C20.1348 12.6609 20.3594 13.3992 20.8086 13.9031C21.2578 14.4031 21.8281 14.6531 22.5195 14.6531C23.2109 14.6531 23.7773 14.405 24.2188 13.9089C24.6641 13.4089 24.8867 12.6609 24.8867 11.6648C24.8867 10.6804 24.6699 9.94604 24.2363 9.46167C23.8066 8.97729 23.2344 8.73511 22.5195 8.73511C21.8047 8.73511 21.2285 8.9812 20.791 9.47339C20.3535 9.96167 20.1348 10.7 20.1348 11.6882ZM28.0332 7.39917H31.2031C31.918 7.39917 32.4629 7.45386 32.8379 7.56323C33.3418 7.71167 33.7734 7.97534 34.1328 8.35425C34.4922 8.73315 34.7656 9.198 34.9531 9.74878C35.1406 10.2957 35.2344 10.9714 35.2344 11.7761C35.2344 12.4832 35.1465 13.0925 34.9707 13.6042C34.7559 14.2292 34.4492 14.7351 34.0508 15.1218C33.75 15.4148 33.3438 15.6433 32.832 15.8074C32.4492 15.9285 31.9375 15.989 31.2969 15.989H28.0332V7.39917ZM29.7676 8.85229V14.5417H31.0625C31.5469 14.5417 31.8965 14.5144 32.1113 14.4597C32.3926 14.3894 32.625 14.2703 32.8086 14.1023C32.9961 13.9343 33.1484 13.6589 33.2656 13.2761C33.3828 12.8894 33.4414 12.364 33.4414 11.7C33.4414 11.0359 33.3828 10.5261 33.2656 10.1707C33.1484 9.81519 32.9844 9.53784 32.7734 9.33862C32.5625 9.1394 32.2949 9.00464 31.9707 8.93433C31.7285 8.87964 31.2539 8.85229 30.5469 8.85229H29.7676ZM44.457 15.989H42.5703L41.8203 14.0378H38.3867L37.6777 15.989H35.8379L39.1836 7.39917H41.0176L44.457 15.989ZM41.2637 12.5906L40.0801 9.40308L38.9199 12.5906H41.2637ZM45.4297 15.989V7.46948H47.1641V14.5417H51.4766V15.989H45.4297Z" fill="white"/>
<defs>
<linearGradient id="paint0_linear_64_1862" x1="30.5" y1="1.98901" x2="30.5" y2="21.989" gradientUnits="userSpaceOnUse">
<stop stop-color="#091A9D"/>
<stop offset="1" stop-color="#3EAD85"/>
</linearGradient>
</defs>
</svg>
