<svg width="71" height="24" viewBox="0 0 71 24" fill="none" xmlns="http://www.w3.org/2000/svg">
<rect x="1" y="1.98901" width="69" height="20" rx="10" fill="#B46F00"/>
<rect x="1" y="1.98901" width="69" height="20" rx="10" stroke="#105C7A" stroke-width="3" stroke-linejoin="round"/>
<path d="M9.02734 15.989V7.39917H11.8105C12.8652 7.39917 13.5527 7.44214 13.873 7.52808C14.3652 7.65698 14.7773 7.93823 15.1094 8.37183C15.4414 8.80151 15.6074 9.35815 15.6074 10.0417C15.6074 10.5691 15.5117 11.0125 15.3203 11.3718C15.1289 11.7312 14.8848 12.0144 14.5879 12.2214C14.2949 12.4246 13.9961 12.5593 13.6914 12.6257C13.2773 12.7078 12.6777 12.7488 11.8926 12.7488H10.7617V15.989H9.02734ZM10.7617 8.85229V11.2898H11.7109C12.3945 11.2898 12.8516 11.2449 13.082 11.155C13.3125 11.0652 13.4922 10.9246 13.6211 10.7332C13.7539 10.5417 13.8203 10.3191 13.8203 10.0652C13.8203 9.75269 13.7285 9.49487 13.5449 9.29175C13.3613 9.08862 13.1289 8.96167 12.8477 8.91089C12.6406 8.87183 12.2246 8.85229 11.5996 8.85229H10.7617ZM17.0371 15.989V7.39917H20.6875C21.6055 7.39917 22.2715 7.47729 22.6855 7.63354C23.1035 7.78589 23.4375 8.05933 23.6875 8.45386C23.9375 8.84839 24.0625 9.29956 24.0625 9.80737C24.0625 10.4519 23.873 10.9851 23.4941 11.407C23.1152 11.825 22.5488 12.0886 21.7949 12.198C22.1699 12.4167 22.4785 12.657 22.7207 12.9187C22.9668 13.1804 23.2969 13.6453 23.7109 14.3132L24.7598 15.989H22.6855L21.4316 14.1199C20.9863 13.4519 20.6816 13.032 20.5176 12.8601C20.3535 12.6843 20.1797 12.5652 19.9961 12.5027C19.8125 12.4363 19.5215 12.4031 19.123 12.4031H18.7715V15.989H17.0371ZM18.7715 11.032H20.0547C20.8867 11.032 21.4062 10.9968 21.6133 10.9265C21.8203 10.8562 21.9824 10.7351 22.0996 10.5632C22.2168 10.3914 22.2754 10.1765 22.2754 9.9187C22.2754 9.62964 22.1973 9.39722 22.041 9.22144C21.8887 9.04175 21.6719 8.92847 21.3906 8.88159C21.25 8.86206 20.8281 8.85229 20.125 8.85229H18.7715V11.032ZM25.6504 15.989V7.39917H27.3848V15.989H25.6504ZM29.0195 15.989V7.39917H31.6152L33.1738 13.2585L34.7148 7.39917H37.3164V15.989H35.7051V9.22729L34 15.989H32.3301L30.6309 9.22729V15.989H29.0195ZM46.7852 15.989H44.8984L44.1484 14.0378H40.7148L40.0059 15.989H38.166L41.5117 7.39917H43.3457L46.7852 15.989ZM43.5918 12.5906L42.4082 9.40308L41.248 12.5906H43.5918ZM47.2715 13.1941L48.959 13.03C49.0605 13.5964 49.2656 14.0125 49.5742 14.2781C49.8867 14.5437 50.3066 14.6765 50.834 14.6765C51.3926 14.6765 51.8125 14.5593 52.0938 14.325C52.3789 14.0867 52.5215 13.8093 52.5215 13.4929C52.5215 13.2898 52.4609 13.1179 52.3398 12.9773C52.2227 12.8328 52.0156 12.7078 51.7188 12.6023C51.5156 12.532 51.0527 12.407 50.3301 12.2273C49.4004 11.9968 48.748 11.7136 48.373 11.3777C47.8457 10.905 47.582 10.3289 47.582 9.64917C47.582 9.21167 47.7051 8.80347 47.9512 8.42456C48.2012 8.04175 48.5586 7.75073 49.0234 7.55151C49.4922 7.35229 50.0566 7.25269 50.7168 7.25269C51.7949 7.25269 52.6055 7.48901 53.1484 7.96167C53.6953 8.43433 53.9824 9.06519 54.0098 9.85425L52.2754 9.93042C52.2012 9.48901 52.041 9.17261 51.7949 8.9812C51.5527 8.78589 51.1875 8.68823 50.6992 8.68823C50.1953 8.68823 49.8008 8.79175 49.5156 8.99878C49.332 9.13159 49.2402 9.30933 49.2402 9.53198C49.2402 9.73511 49.3262 9.90894 49.498 10.0535C49.7168 10.2371 50.248 10.4285 51.0918 10.6277C51.9355 10.8269 52.5586 11.0339 52.9609 11.2488C53.3672 11.4597 53.6836 11.7507 53.9102 12.1218C54.1406 12.489 54.2559 12.9441 54.2559 13.4871C54.2559 13.9792 54.1191 14.4402 53.8457 14.8699C53.5723 15.2996 53.1855 15.6199 52.6855 15.8308C52.1855 16.0378 51.5625 16.1414 50.8164 16.1414C49.7305 16.1414 48.8965 15.8914 48.3145 15.3914C47.7324 14.8875 47.3848 14.155 47.2715 13.1941ZM55.7148 15.989V7.39917H62.084V8.85229H57.4492V10.7566H61.7617V12.2039H57.4492V14.5417H62.248V15.989H55.7148Z" fill="white"/>
</svg>
