<svg width="58" height="24" viewBox="0 0 58 24" fill="none" xmlns="http://www.w3.org/2000/svg">
<rect x="2" y="1.98901" width="55" height="20" rx="10" fill="url(#paint0_linear_40_2530)"/>
<rect x="2" y="1.98901" width="55" height="20" rx="10" stroke="#007AFF" stroke-width="3" stroke-linejoin="round"/>
<path d="M15.5254 12.8308L17.207 13.364C16.9492 14.3015 16.5195 14.9988 15.918 15.4558C15.3203 15.9089 14.5605 16.1355 13.6387 16.1355C12.498 16.1355 11.5605 15.7468 10.8262 14.9695C10.0918 14.1882 9.72461 13.1218 9.72461 11.7703C9.72461 10.3406 10.0938 9.2312 10.832 8.44214C11.5703 7.64917 12.541 7.25269 13.7441 7.25269C14.7949 7.25269 15.6484 7.56323 16.3047 8.18433C16.6953 8.55151 16.9883 9.07886 17.1836 9.76636L15.4668 10.1765C15.3652 9.7312 15.1523 9.37964 14.8281 9.12183C14.5078 8.86401 14.1172 8.73511 13.6562 8.73511C13.0195 8.73511 12.502 8.96362 12.1035 9.42065C11.709 9.87769 11.5117 10.6179 11.5117 11.6414C11.5117 12.7273 11.707 13.5007 12.0977 13.9617C12.4883 14.4226 12.9961 14.6531 13.6211 14.6531C14.082 14.6531 14.4785 14.5066 14.8105 14.2136C15.1426 13.9207 15.3809 13.4597 15.5254 12.8308ZM18.748 15.989V7.46948H20.4824V14.5417H24.7949V15.989H18.748ZM33.7832 15.989H31.8965L31.1465 14.0378H27.7129L27.0039 15.989H25.1641L28.5098 7.39917H30.3438L33.7832 15.989ZM30.5898 12.5906L29.4062 9.40308L28.2461 12.5906H30.5898ZM34.2695 13.1941L35.957 13.03C36.0586 13.5964 36.2637 14.0125 36.5723 14.2781C36.8848 14.5437 37.3047 14.6765 37.832 14.6765C38.3906 14.6765 38.8105 14.5593 39.0918 14.325C39.377 14.0867 39.5195 13.8093 39.5195 13.4929C39.5195 13.2898 39.459 13.1179 39.3379 12.9773C39.2207 12.8328 39.0137 12.7078 38.7168 12.6023C38.5137 12.532 38.0508 12.407 37.3281 12.2273C36.3984 11.9968 35.7461 11.7136 35.3711 11.3777C34.8438 10.905 34.5801 10.3289 34.5801 9.64917C34.5801 9.21167 34.7031 8.80347 34.9492 8.42456C35.1992 8.04175 35.5566 7.75073 36.0215 7.55151C36.4902 7.35229 37.0547 7.25269 37.7148 7.25269C38.793 7.25269 39.6035 7.48901 40.1465 7.96167C40.6934 8.43433 40.9805 9.06519 41.0078 9.85425L39.2734 9.93042C39.1992 9.48901 39.0391 9.17261 38.793 8.9812C38.5508 8.78589 38.1855 8.68823 37.6973 8.68823C37.1934 8.68823 36.7988 8.79175 36.5137 8.99878C36.3301 9.13159 36.2383 9.30933 36.2383 9.53198C36.2383 9.73511 36.3242 9.90894 36.4961 10.0535C36.7148 10.2371 37.2461 10.4285 38.0898 10.6277C38.9336 10.8269 39.5566 11.0339 39.959 11.2488C40.3652 11.4597 40.6816 11.7507 40.9082 12.1218C41.1387 12.489 41.2539 12.9441 41.2539 13.4871C41.2539 13.9792 41.1172 14.4402 40.8438 14.8699C40.5703 15.2996 40.1836 15.6199 39.6836 15.8308C39.1836 16.0378 38.5605 16.1414 37.8145 16.1414C36.7285 16.1414 35.8945 15.8914 35.3125 15.3914C34.7305 14.8875 34.3828 14.155 34.2695 13.1941ZM42.7129 15.989V7.39917H45.4961C46.5508 7.39917 47.2383 7.44214 47.5586 7.52808C48.0508 7.65698 48.4629 7.93823 48.7949 8.37183C49.127 8.80151 49.293 9.35815 49.293 10.0417C49.293 10.5691 49.1973 11.0125 49.0059 11.3718C48.8145 11.7312 48.5703 12.0144 48.2734 12.2214C47.9805 12.4246 47.6816 12.5593 47.377 12.6257C46.9629 12.7078 46.3633 12.7488 45.5781 12.7488H44.4473V15.989H42.7129ZM44.4473 8.85229V11.2898H45.3965C46.0801 11.2898 46.5371 11.2449 46.7676 11.155C46.998 11.0652 47.1777 10.9246 47.3066 10.7332C47.4395 10.5417 47.5059 10.3191 47.5059 10.0652C47.5059 9.75269 47.4141 9.49487 47.2305 9.29175C47.0469 9.08862 46.8145 8.96167 46.5332 8.91089C46.3262 8.87183 45.9102 8.85229 45.2852 8.85229H44.4473Z" fill="white"/>
<defs>
<linearGradient id="paint0_linear_40_2530" x1="29.5" y1="1.98901" x2="29.5" y2="21.989" gradientUnits="userSpaceOnUse">
<stop stop-color="#DC56AC"/>
<stop offset="1" stop-color="#007AFF"/>
</linearGradient>
</defs>
</svg>
