<svg width="76" height="158" viewBox="0 0 76 158" fill="none" xmlns="http://www.w3.org/2000/svg">
<path d="M32.4402 79.138C32.4402 33.5825 38.5995 0.609497 46.1972 0.609497H62.0258C69.6237 0.609497 75.7829 33.5825 75.7829 79.138C75.7829 124.694 69.6237 157.667 62.0258 157.667H46.1972C38.5995 157.667 32.4402 124.694 32.4402 79.138ZM57.5519 79.138C57.5519 59.9961 56.2325 42.7107 54.1115 30.3413C51.9905 42.7107 50.6711 59.9961 50.6711 79.138C50.6711 98.2801 51.9905 115.566 54.1115 127.935C56.2326 115.566 57.5519 98.2801 57.5519 79.138Z" fill="url(#paint0_linear_90_4625)"/>
<path d="M46.1972 0.609375C38.5995 0.609375 32.4402 33.5823 32.4402 79.1379C32.4402 124.693 38.5995 157.666 46.1972 157.666C53.7951 157.666 59.9543 124.693 59.9543 79.1379C59.9543 33.5823 53.7951 0.609375 46.1972 0.609375ZM46.1972 147.219C39.9262 147.219 34.8425 116.738 34.8425 79.1379C34.8425 41.5374 39.9262 11.0562 46.1972 11.0562C52.4684 11.0562 57.552 41.5374 57.552 79.1379C57.5519 116.738 52.4683 147.219 46.1972 147.219Z" fill="url(#paint1_radial_90_4625)"/>
<path d="M46.1972 11.0562C39.9262 11.0562 34.8425 41.5374 34.8425 79.1379C34.8425 116.738 39.9262 147.219 46.1972 147.219C49.2758 147.219 52.0663 139.862 54.1115 127.935C51.9905 115.565 50.6711 98.2798 50.6711 79.1379C50.6711 59.9958 51.9905 42.7104 54.1115 30.3411L54.1126 30.3417C52.0677 18.4091 49.2762 11.0562 46.1972 11.0562Z" fill="url(#paint2_linear_90_4625)"/>
<path d="M0.782959 79.138C0.782959 33.5825 6.94226 0.609497 14.54 0.609497H30.3686C37.9665 0.609497 44.1257 33.5825 44.1257 79.138C44.1257 124.694 37.9665 157.667 30.3686 157.667H14.54C6.94226 157.667 0.782959 124.694 0.782959 79.138ZM25.8948 79.138C25.8948 59.9961 24.5754 42.7107 22.4544 30.3413C20.3334 42.7107 19.014 59.9961 19.014 79.138C19.014 98.2801 20.3334 115.566 22.4544 127.935C24.5754 115.566 25.8948 98.2801 25.8948 79.138Z" fill="url(#paint3_linear_90_4625)"/>
<path d="M14.54 0.609375C6.94226 0.609375 0.782959 33.5823 0.782959 79.1379C0.782959 124.693 6.94226 157.666 14.54 157.666C22.1379 157.666 28.2971 124.693 28.2971 79.1379C28.2971 33.5823 22.1379 0.609375 14.54 0.609375ZM14.54 147.219C8.26896 147.219 3.18526 116.738 3.18526 79.1379C3.18526 41.5374 8.26896 11.0562 14.54 11.0562C20.8112 11.0562 25.8948 41.5374 25.8948 79.1379C25.8948 116.738 20.8112 147.219 14.54 147.219Z" fill="url(#paint4_radial_90_4625)"/>
<path d="M14.5399 11.0562C8.26894 11.0562 3.18524 41.5374 3.18524 79.1379C3.18524 116.738 8.26894 147.219 14.5399 147.219C17.6185 147.219 20.409 139.862 22.4542 127.935C20.3332 115.565 19.0138 98.2798 19.0138 79.1379C19.0138 59.9958 20.3332 42.7104 22.4542 30.3411L22.4553 30.3417C20.4105 18.4091 17.6189 11.0562 14.5399 11.0562Z" fill="url(#paint5_linear_90_4625)"/>
<defs>
<linearGradient id="paint0_linear_90_4625" x1="54.1115" y1="157.667" x2="54.1115" y2="0.609497" gradientUnits="userSpaceOnUse">
<stop stop-color="#020A38"/>
<stop offset="0.0689" stop-color="#152271"/>
<stop offset="0.1582" stop-color="#2B3FB6"/>
<stop offset="0.2" stop-color="#344BD1"/>
<stop offset="0.287" stop-color="#3D53D5"/>
<stop offset="0.429" stop-color="#556AE1"/>
<stop offset="0.6072" stop-color="#7D8EF4"/>
<stop offset="0.7" stop-color="#94A4FF"/>
<stop offset="0.7348" stop-color="#8B9CFB"/>
<stop offset="0.7916" stop-color="#7385EF"/>
<stop offset="0.8629" stop-color="#4B61DC"/>
<stop offset="0.9" stop-color="#344BD1"/>
<stop offset="0.9201" stop-color="#334ACE"/>
<stop offset="0.9362" stop-color="#3045C4"/>
<stop offset="0.9509" stop-color="#2A3EB3"/>
<stop offset="0.9649" stop-color="#22349B"/>
<stop offset="0.9782" stop-color="#18277C"/>
<stop offset="0.991" stop-color="#0C1757"/>
<stop offset="1" stop-color="#020A38"/>
</linearGradient>
<radialGradient id="paint1_radial_90_4625" cx="0" cy="0" r="1" gradientUnits="userSpaceOnUse" gradientTransform="translate(46.1972 79.1412) scale(13.5139 78.7387)">
<stop offset="0.6996" stop-color="#344BD1"/>
<stop offset="1" stop-color="#020A38"/>
</radialGradient>
<linearGradient id="paint2_linear_90_4625" x1="44.4775" y1="11.0562" x2="44.4775" y2="147.219" gradientUnits="userSpaceOnUse">
<stop stop-color="#020A38"/>
<stop offset="0.0689" stop-color="#152271"/>
<stop offset="0.1582" stop-color="#2B3FB6"/>
<stop offset="0.2" stop-color="#344BD1"/>
<stop offset="0.287" stop-color="#3D53D5"/>
<stop offset="0.429" stop-color="#556AE1"/>
<stop offset="0.6072" stop-color="#7D8EF4"/>
<stop offset="0.7" stop-color="#94A4FF"/>
<stop offset="0.7348" stop-color="#8B9CFB"/>
<stop offset="0.7916" stop-color="#7385EF"/>
<stop offset="0.8629" stop-color="#4B61DC"/>
<stop offset="0.9" stop-color="#344BD1"/>
<stop offset="0.9201" stop-color="#334ACE"/>
<stop offset="0.9362" stop-color="#3045C4"/>
<stop offset="0.9509" stop-color="#2A3EB3"/>
<stop offset="0.9649" stop-color="#22349B"/>
<stop offset="0.9782" stop-color="#18277C"/>
<stop offset="0.991" stop-color="#0C1757"/>
<stop offset="1" stop-color="#020A38"/>
</linearGradient>
<linearGradient id="paint3_linear_90_4625" x1="22.4542" y1="157.667" x2="22.4542" y2="0.609497" gradientUnits="userSpaceOnUse">
<stop stop-color="#020A38"/>
<stop offset="0.0689" stop-color="#152271"/>
<stop offset="0.1582" stop-color="#2B3FB6"/>
<stop offset="0.2" stop-color="#344BD1"/>
<stop offset="0.287" stop-color="#3D53D5"/>
<stop offset="0.429" stop-color="#556AE1"/>
<stop offset="0.6072" stop-color="#7D8EF4"/>
<stop offset="0.7" stop-color="#94A4FF"/>
<stop offset="0.7348" stop-color="#8B9CFB"/>
<stop offset="0.7916" stop-color="#7385EF"/>
<stop offset="0.8629" stop-color="#4B61DC"/>
<stop offset="0.9" stop-color="#344BD1"/>
<stop offset="0.9201" stop-color="#334ACE"/>
<stop offset="0.9362" stop-color="#3045C4"/>
<stop offset="0.9509" stop-color="#2A3EB3"/>
<stop offset="0.9649" stop-color="#22349B"/>
<stop offset="0.9782" stop-color="#18277C"/>
<stop offset="0.991" stop-color="#0C1757"/>
<stop offset="1" stop-color="#020A38"/>
</linearGradient>
<radialGradient id="paint4_radial_90_4625" cx="0" cy="0" r="1" gradientUnits="userSpaceOnUse" gradientTransform="translate(14.54 79.1412) scale(13.5139 78.7387)">
<stop offset="0.6996" stop-color="#344BD1"/>
<stop offset="1" stop-color="#020A38"/>
</radialGradient>
<linearGradient id="paint5_linear_90_4625" x1="12.8202" y1="11.0562" x2="12.8202" y2="147.219" gradientUnits="userSpaceOnUse">
<stop stop-color="#020A38"/>
<stop offset="0.0689" stop-color="#152271"/>
<stop offset="0.1582" stop-color="#2B3FB6"/>
<stop offset="0.2" stop-color="#344BD1"/>
<stop offset="0.287" stop-color="#3D53D5"/>
<stop offset="0.429" stop-color="#556AE1"/>
<stop offset="0.6072" stop-color="#7D8EF4"/>
<stop offset="0.7" stop-color="#94A4FF"/>
<stop offset="0.7348" stop-color="#8B9CFB"/>
<stop offset="0.7916" stop-color="#7385EF"/>
<stop offset="0.8629" stop-color="#4B61DC"/>
<stop offset="0.9" stop-color="#344BD1"/>
<stop offset="0.9201" stop-color="#334ACE"/>
<stop offset="0.9362" stop-color="#3045C4"/>
<stop offset="0.9509" stop-color="#2A3EB3"/>
<stop offset="0.9649" stop-color="#22349B"/>
<stop offset="0.9782" stop-color="#18277C"/>
<stop offset="0.991" stop-color="#0C1757"/>
<stop offset="1" stop-color="#020A38"/>
</linearGradient>
</defs>
</svg>
