<svg width="60" height="24" viewBox="0 0 60 24" fill="none" xmlns="http://www.w3.org/2000/svg">
<rect x="2" y="1.98901" width="57" height="20" rx="10" fill="url(#paint0_linear_64_1839)"/>
<rect x="2" y="1.98901" width="57" height="20" rx="10" stroke="#1F5E20" stroke-width="3" stroke-linejoin="round"/>
<path d="M10.0039 15.989V7.39917H12.5996L14.1582 13.2585L15.6992 7.39917H18.3008V15.989H16.6895V9.22729L14.9844 15.989H13.3145L11.6152 9.22729V15.989H10.0039ZM22.2793 15.989V12.3738L19.1328 7.39917H21.166L23.1875 10.7976L25.168 7.39917H27.166L24.0078 12.3855V15.989H22.2793ZM27.6758 11.7468C27.6758 10.8718 27.8066 10.1375 28.0684 9.5437C28.2637 9.1062 28.5293 8.71362 28.8652 8.36597C29.2051 8.01831 29.5762 7.7605 29.9785 7.59253C30.5137 7.36597 31.1309 7.25269 31.8301 7.25269C33.0957 7.25269 34.1074 7.64526 34.8652 8.43042C35.627 9.21558 36.0078 10.3074 36.0078 11.7058C36.0078 13.0925 35.6309 14.1785 34.877 14.9636C34.123 15.7449 33.1152 16.1355 31.8535 16.1355C30.5762 16.1355 29.5605 15.7468 28.8066 14.9695C28.0527 14.1882 27.6758 13.114 27.6758 11.7468ZM29.4629 11.6882C29.4629 12.6609 29.6875 13.3992 30.1367 13.9031C30.5859 14.4031 31.1562 14.6531 31.8477 14.6531C32.5391 14.6531 33.1055 14.405 33.5469 13.9089C33.9922 13.4089 34.2148 12.6609 34.2148 11.6648C34.2148 10.6804 33.998 9.94604 33.5645 9.46167C33.1348 8.97729 32.5625 8.73511 31.8477 8.73511C31.1328 8.73511 30.5566 8.9812 30.1191 9.47339C29.6816 9.96167 29.4629 10.7 29.4629 11.6882ZM37.0391 14.0027L38.6328 13.8269C38.6719 14.1511 38.7734 14.3914 38.9375 14.5476C39.1016 14.7039 39.3184 14.782 39.5879 14.782C39.9277 14.782 40.2168 14.6257 40.4551 14.3132C40.6934 14.0007 40.8457 13.3523 40.9121 12.3679C40.498 12.8484 39.9805 13.0886 39.3594 13.0886C38.6836 13.0886 38.0996 12.8289 37.6074 12.3093C37.1191 11.7859 36.875 11.1062 36.875 10.2703C36.875 9.39917 37.1328 8.698 37.6484 8.16675C38.168 7.63159 38.8281 7.36401 39.6289 7.36401C40.5 7.36401 41.2148 7.7019 41.7734 8.37769C42.332 9.04956 42.6113 10.157 42.6113 11.7C42.6113 13.2703 42.3203 14.4031 41.7383 15.0984C41.1562 15.7937 40.3984 16.1414 39.4648 16.1414C38.793 16.1414 38.25 15.9636 37.8359 15.6082C37.4219 15.2488 37.1562 14.7136 37.0391 14.0027ZM40.7656 10.405C40.7656 9.87378 40.6426 9.46167 40.3965 9.1687C40.1543 8.87573 39.873 8.72925 39.5527 8.72925C39.248 8.72925 38.9941 8.85034 38.791 9.09253C38.5918 9.33081 38.4922 9.72339 38.4922 10.2703C38.4922 10.825 38.6016 11.2332 38.8203 11.4949C39.0391 11.7527 39.3125 11.8816 39.6406 11.8816C39.957 11.8816 40.2227 11.7566 40.4375 11.5066C40.6562 11.2566 40.7656 10.8894 40.7656 10.405ZM44.0527 7.39917H47.4863C48.166 7.39917 48.6719 7.42847 49.0039 7.48706C49.3398 7.54175 49.6387 7.65894 49.9004 7.83862C50.166 8.01831 50.3867 8.25854 50.5625 8.55933C50.7383 8.8562 50.8262 9.19019 50.8262 9.56128C50.8262 9.96362 50.7168 10.3328 50.498 10.6687C50.2832 11.0046 49.9902 11.2566 49.6191 11.4246C50.1426 11.5769 50.5449 11.8367 50.8262 12.2039C51.1074 12.571 51.248 13.0027 51.248 13.4988C51.248 13.8894 51.1562 14.2703 50.9727 14.6414C50.793 15.0085 50.5449 15.3035 50.2285 15.5261C49.916 15.7449 49.5293 15.8796 49.0684 15.9304C48.7793 15.9617 48.082 15.9812 46.9766 15.989H44.0527V7.39917ZM45.7871 8.82886V10.8152H46.9238C47.5996 10.8152 48.0195 10.8054 48.1836 10.7859C48.4805 10.7507 48.7129 10.6492 48.8809 10.4812C49.0527 10.3093 49.1387 10.0847 49.1387 9.80737C49.1387 9.54175 49.0645 9.3269 48.916 9.16284C48.7715 8.99487 48.5547 8.89331 48.2656 8.85815C48.0938 8.83862 47.5996 8.82886 46.7832 8.82886H45.7871ZM45.7871 12.2449V14.5417H47.3926C48.0176 14.5417 48.4141 14.5242 48.582 14.489C48.8398 14.4421 49.0488 14.3289 49.209 14.1492C49.373 13.9656 49.4551 13.7214 49.4551 13.4167C49.4551 13.1589 49.3926 12.9402 49.2676 12.7605C49.1426 12.5808 48.9609 12.45 48.7227 12.3679C48.4883 12.2859 47.9766 12.2449 47.1875 12.2449H45.7871Z" fill="white"/>
<defs>
<linearGradient id="paint0_linear_64_1839" x1="30.5" y1="1.98901" x2="30.5" y2="21.989" gradientUnits="userSpaceOnUse">
<stop stop-color="#1F5E20"/>
<stop offset="1" stop-color="#3700D0"/>
</linearGradient>
</defs>
</svg>
