<svg width="42" height="24" viewBox="0 0 42 24" fill="none" xmlns="http://www.w3.org/2000/svg">
<rect x="2" y="1.98901" width="39" height="20" rx="10" fill="url(#paint0_linear_67_1843)"/>
<rect x="2" y="1.98901" width="39" height="20" rx="10" stroke="#2116FF" stroke-width="3" stroke-linejoin="round"/>
<path d="M10.0391 15.989V7.39917H13.6895C14.6074 7.39917 15.2734 7.47729 15.6875 7.63354C16.1055 7.78589 16.4395 8.05933 16.6895 8.45386C16.9395 8.84839 17.0645 9.29956 17.0645 9.80737C17.0645 10.4519 16.875 10.9851 16.4961 11.407C16.1172 11.825 15.5508 12.0886 14.7969 12.198C15.1719 12.4167 15.4805 12.657 15.7227 12.9187C15.9688 13.1804 16.2988 13.6453 16.7129 14.3132L17.7617 15.989H15.6875L14.4336 14.1199C13.9883 13.4519 13.6836 13.032 13.5195 12.8601C13.3555 12.6843 13.1816 12.5652 12.998 12.5027C12.8145 12.4363 12.5234 12.4031 12.125 12.4031H11.7734V15.989H10.0391ZM11.7734 11.032H13.0566C13.8887 11.032 14.4082 10.9968 14.6152 10.9265C14.8223 10.8562 14.9844 10.7351 15.1016 10.5632C15.2188 10.3914 15.2773 10.1765 15.2773 9.9187C15.2773 9.62964 15.1992 9.39722 15.043 9.22144C14.8906 9.04175 14.6738 8.92847 14.3926 8.88159C14.252 8.86206 13.8301 8.85229 13.127 8.85229H11.7734V11.032ZM26.4512 15.989H24.5645L23.8145 14.0378H20.3809L19.6719 15.989H17.832L21.1777 7.39917H23.0117L26.4512 15.989ZM23.2578 12.5906L22.0742 9.40308L20.9141 12.5906H23.2578ZM27.3887 15.989V7.39917H33.2773V8.85229H29.123V10.8855H32.709V12.3386H29.123V15.989H27.3887Z" fill="white"/>
<defs>
<linearGradient id="paint0_linear_67_1843" x1="21.5" y1="1.98901" x2="21.5" y2="21.989" gradientUnits="userSpaceOnUse">
<stop stop-color="#836BD1"/>
<stop offset="1" stop-color="#2116FF"/>
</linearGradient>
</defs>
</svg>
