<svg width="76" height="24" viewBox="0 0 76 24" fill="none" xmlns="http://www.w3.org/2000/svg">
<rect x="1" y="1.98901" width="74" height="20" rx="10" fill="url(#paint0_linear_67_1937)"/>
<rect x="1" y="1.98901" width="74" height="20" rx="10" stroke="#7FDBE7" stroke-width="3" stroke-linejoin="round"/>
<path d="M8.73242 13.1941L10.4199 13.03C10.5215 13.5964 10.7266 14.0125 11.0352 14.2781C11.3477 14.5437 11.7676 14.6765 12.2949 14.6765C12.8535 14.6765 13.2734 14.5593 13.5547 14.325C13.8398 14.0867 13.9824 13.8093 13.9824 13.4929C13.9824 13.2898 13.9219 13.1179 13.8008 12.9773C13.6836 12.8328 13.4766 12.7078 13.1797 12.6023C12.9766 12.532 12.5137 12.407 11.791 12.2273C10.8613 11.9968 10.209 11.7136 9.83398 11.3777C9.30664 10.905 9.04297 10.3289 9.04297 9.64917C9.04297 9.21167 9.16602 8.80347 9.41211 8.42456C9.66211 8.04175 10.0195 7.75073 10.4844 7.55151C10.9531 7.35229 11.5176 7.25269 12.1777 7.25269C13.2559 7.25269 14.0664 7.48901 14.6094 7.96167C15.1562 8.43433 15.4434 9.06519 15.4707 9.85425L13.7363 9.93042C13.6621 9.48901 13.502 9.17261 13.2559 8.9812C13.0137 8.78589 12.6484 8.68823 12.1602 8.68823C11.6562 8.68823 11.2617 8.79175 10.9766 8.99878C10.793 9.13159 10.7012 9.30933 10.7012 9.53198C10.7012 9.73511 10.7871 9.90894 10.959 10.0535C11.1777 10.2371 11.709 10.4285 12.5527 10.6277C13.3965 10.8269 14.0195 11.0339 14.4219 11.2488C14.8281 11.4597 15.1445 11.7507 15.3711 12.1218C15.6016 12.489 15.7168 12.9441 15.7168 13.4871C15.7168 13.9792 15.5801 14.4402 15.3066 14.8699C15.0332 15.2996 14.6465 15.6199 14.1465 15.8308C13.6465 16.0378 13.0234 16.1414 12.2773 16.1414C11.1914 16.1414 10.3574 15.8914 9.77539 15.3914C9.19336 14.8875 8.8457 14.155 8.73242 13.1941ZM17.1758 15.989V7.39917H23.5449V8.85229H18.9102V10.7566H23.2227V12.2039H18.9102V14.5417H23.709V15.989H17.1758ZM25.1973 15.989V7.39917H26.8848L30.4004 13.1355V7.39917H32.0117V15.989H30.2715L26.8086 10.3875V15.989H25.1973ZM33.8516 15.989V7.39917H36.6348C37.6895 7.39917 38.377 7.44214 38.6973 7.52808C39.1895 7.65698 39.6016 7.93823 39.9336 8.37183C40.2656 8.80151 40.4316 9.35815 40.4316 10.0417C40.4316 10.5691 40.3359 11.0125 40.1445 11.3718C39.9531 11.7312 39.709 12.0144 39.4121 12.2214C39.1191 12.4246 38.8203 12.5593 38.5156 12.6257C38.1016 12.7078 37.502 12.7488 36.7168 12.7488H35.5859V15.989H33.8516ZM35.5859 8.85229V11.2898H36.5352C37.2188 11.2898 37.6758 11.2449 37.9062 11.155C38.1367 11.0652 38.3164 10.9246 38.4453 10.7332C38.5781 10.5417 38.6445 10.3191 38.6445 10.0652C38.6445 9.75269 38.5527 9.49487 38.3691 9.29175C38.1855 9.08862 37.9531 8.96167 37.6719 8.91089C37.4648 8.87183 37.0488 8.85229 36.4238 8.85229H35.5859ZM45.7051 15.989H44.0586V9.78394C43.457 10.3464 42.748 10.7625 41.9316 11.032V9.53784C42.3613 9.39722 42.8281 9.13159 43.332 8.74097C43.8359 8.34644 44.1816 7.88745 44.3691 7.36401H45.7051V15.989ZM48.4824 14.3425H50.1289V15.5203C50.1289 15.9968 50.0879 16.3718 50.0059 16.6453C49.9238 16.9226 49.7676 17.1707 49.5371 17.3894C49.3105 17.6082 49.0215 17.78 48.6699 17.905L48.3477 17.2253C48.6797 17.116 48.916 16.9656 49.0566 16.7742C49.1973 16.5828 49.2715 16.321 49.2793 15.989H48.4824V14.3425ZM57.0723 14.4597V15.989H51.3008C51.3633 15.4109 51.5508 14.864 51.8633 14.3484C52.1758 13.8289 52.793 13.1414 53.7148 12.2859C54.457 11.5945 54.9121 11.1257 55.0801 10.8796C55.3066 10.5398 55.4199 10.2039 55.4199 9.87183C55.4199 9.50464 55.3203 9.22339 55.1211 9.02808C54.9258 8.82886 54.6543 8.72925 54.3066 8.72925C53.9629 8.72925 53.6895 8.83276 53.4863 9.03979C53.2832 9.24683 53.166 9.59058 53.1348 10.071L51.4941 9.90698C51.5918 9.00073 51.8984 8.35034 52.4141 7.95581C52.9297 7.56128 53.5742 7.36401 54.3477 7.36401C55.1953 7.36401 55.8613 7.59253 56.3457 8.04956C56.8301 8.50659 57.0723 9.07495 57.0723 9.75464C57.0723 10.1414 57.002 10.5105 56.8613 10.8621C56.7246 11.2097 56.5059 11.575 56.2051 11.9578C56.0059 12.2117 55.6465 12.5769 55.127 13.0535C54.6074 13.53 54.2773 13.8464 54.1367 14.0027C54 14.1589 53.8887 14.3113 53.8027 14.4597H57.0723ZM58.502 14.3425H60.1484V15.5203C60.1484 15.9968 60.1074 16.3718 60.0254 16.6453C59.9434 16.9226 59.7871 17.1707 59.5566 17.3894C59.3301 17.6082 59.041 17.78 58.6895 17.905L58.3672 17.2253C58.6992 17.116 58.9355 16.9656 59.0762 16.7742C59.2168 16.5828 59.291 16.321 59.2988 15.989H58.502V14.3425ZM61.5547 13.78L63.1953 13.6101C63.2422 13.9812 63.3809 14.2761 63.6113 14.4949C63.8418 14.7097 64.1074 14.8171 64.4082 14.8171C64.752 14.8171 65.043 14.6785 65.2812 14.4011C65.5195 14.1199 65.6387 13.698 65.6387 13.1355C65.6387 12.6082 65.5195 12.2136 65.2812 11.9519C65.0469 11.6863 64.7402 11.5535 64.3613 11.5535C63.8887 11.5535 63.4648 11.7625 63.0898 12.1804L61.7539 11.9871L62.5977 7.51636H66.9512V9.05737H63.8457L63.5879 10.5164C63.9551 10.3328 64.3301 10.241 64.7129 10.241C65.4434 10.241 66.0625 10.5066 66.5703 11.0378C67.0781 11.5691 67.332 12.2585 67.332 13.1062C67.332 13.8132 67.127 14.4441 66.7168 14.9988C66.1582 15.7566 65.3828 16.1355 64.3906 16.1355C63.5977 16.1355 62.9512 15.9226 62.4512 15.4968C61.9512 15.071 61.6523 14.4988 61.5547 13.78Z" fill="white"/>
<defs>
<linearGradient id="paint0_linear_67_1937" x1="38" y1="21.989" x2="38" y2="1.98901" gradientUnits="userSpaceOnUse">
<stop stop-color="#7FDBE7"/>
<stop offset="1" stop-color="#2B41EB"/>
</linearGradient>
</defs>
</svg>
