<svg width="60" height="24" viewBox="0 0 60 24" fill="none" xmlns="http://www.w3.org/2000/svg">
<rect x="2" y="1.98901" width="57" height="20" rx="10" fill="url(#paint0_linear_64_1846)"/>
<rect x="2" y="1.98901" width="57" height="20" rx="10" stroke="#532956" stroke-width="3" stroke-linejoin="round"/>
<path d="M10.0098 15.989V7.39917H12.6055L14.1641 13.2585L15.7051 7.39917H18.3066V15.989H16.6953V9.22729L14.9902 15.989H13.3203L11.6211 9.22729V15.989H10.0098ZM20.0176 7.39917H21.752V12.0515C21.752 12.7898 21.7734 13.2683 21.8164 13.4871C21.8906 13.8386 22.0664 14.1218 22.3438 14.3367C22.625 14.5476 23.0078 14.6531 23.4922 14.6531C23.9844 14.6531 24.3555 14.5535 24.6055 14.3542C24.8555 14.1511 25.0059 13.9031 25.0566 13.6101C25.1074 13.3171 25.1328 12.8308 25.1328 12.1511V7.39917H26.8672V11.9109C26.8672 12.9421 26.8203 13.6707 26.7266 14.0964C26.6328 14.5222 26.459 14.8816 26.2051 15.1746C25.9551 15.4675 25.6191 15.7019 25.1973 15.8777C24.7754 16.0496 24.2246 16.1355 23.5449 16.1355C22.7246 16.1355 22.1016 16.0417 21.6758 15.8542C21.2539 15.6628 20.9199 15.4167 20.6738 15.116C20.4277 14.8113 20.2656 14.4929 20.1875 14.1609C20.0742 13.6687 20.0176 12.9421 20.0176 11.9812V7.39917ZM30.6348 15.989V8.85229H28.0859V7.39917H34.9121V8.85229H32.3691V15.989H30.6348ZM38.293 15.989V12.3738L35.1465 7.39917H37.1797L39.2012 10.7976L41.1816 7.39917H43.1797L40.0215 12.3855V15.989H38.293ZM44.0469 15.989V7.39917H45.7812V10.78H49.1797V7.39917H50.9141V15.989H49.1797V12.2332H45.7812V15.989H44.0469Z" fill="white"/>
<defs>
<linearGradient id="paint0_linear_64_1846" x1="30.5" y1="1.98901" x2="30.5" y2="21.989" gradientUnits="userSpaceOnUse">
<stop stop-color="#532956"/>
<stop offset="1" stop-color="#AC237A"/>
</linearGradient>
</defs>
</svg>
