<svg width="80" height="24" viewBox="0 0 80 24" fill="none" xmlns="http://www.w3.org/2000/svg">
<rect x="1" y="1.98901" width="78" height="20" rx="10" fill="url(#paint0_linear_67_1895)"/>
<rect x="1" y="1.98901" width="78" height="20" rx="10" stroke="url(#paint1_linear_67_1895)" stroke-width="3" stroke-linejoin="round"/>
<path d="M9.18555 15.989V7.39917H12.8359C13.7539 7.39917 14.4199 7.47729 14.834 7.63354C15.252 7.78589 15.5859 8.05933 15.8359 8.45386C16.0859 8.84839 16.2109 9.29956 16.2109 9.80737C16.2109 10.4519 16.0215 10.9851 15.6426 11.407C15.2637 11.825 14.6973 12.0886 13.9434 12.198C14.3184 12.4167 14.627 12.657 14.8691 12.9187C15.1152 13.1804 15.4453 13.6453 15.8594 14.3132L16.9082 15.989H14.834L13.5801 14.1199C13.1348 13.4519 12.8301 13.032 12.666 12.8601C12.502 12.6843 12.3281 12.5652 12.1445 12.5027C11.9609 12.4363 11.6699 12.4031 11.2715 12.4031H10.9199V15.989H9.18555ZM10.9199 11.032H12.2031C13.0352 11.032 13.5547 10.9968 13.7617 10.9265C13.9688 10.8562 14.1309 10.7351 14.248 10.5632C14.3652 10.3914 14.4238 10.1765 14.4238 9.9187C14.4238 9.62964 14.3457 9.39722 14.1895 9.22144C14.0371 9.04175 13.8203 8.92847 13.5391 8.88159C13.3984 8.86206 12.9766 8.85229 12.2734 8.85229H10.9199V11.032ZM17.8691 15.989V7.39917H19.5566L23.0723 13.1355V7.39917H24.6836V15.989H22.9434L19.4805 10.3875V15.989H17.8691ZM34.2695 15.989H32.3828L31.6328 14.0378H28.1992L27.4902 15.989H25.6504L28.9961 7.39917H30.8301L34.2695 15.989ZM31.0762 12.5906L29.8926 9.40308L28.7324 12.5906H31.0762ZM38.0898 15.989V7.39917H40.873C41.9277 7.39917 42.6152 7.44214 42.9355 7.52808C43.4277 7.65698 43.8398 7.93823 44.1719 8.37183C44.5039 8.80151 44.6699 9.35815 44.6699 10.0417C44.6699 10.5691 44.5742 11.0125 44.3828 11.3718C44.1914 11.7312 43.9473 12.0144 43.6504 12.2214C43.3574 12.4246 43.0586 12.5593 42.7539 12.6257C42.3398 12.7078 41.7402 12.7488 40.9551 12.7488H39.8242V15.989H38.0898ZM39.8242 8.85229V11.2898H40.7734C41.457 11.2898 41.9141 11.2449 42.1445 11.155C42.375 11.0652 42.5547 10.9246 42.6836 10.7332C42.8164 10.5417 42.8828 10.3191 42.8828 10.0652C42.8828 9.75269 42.791 9.49487 42.6074 9.29175C42.4238 9.08862 42.1914 8.96167 41.9102 8.91089C41.7031 8.87183 41.2871 8.85229 40.6621 8.85229H39.8242ZM45.7422 11.7468C45.7422 10.8718 45.873 10.1375 46.1348 9.5437C46.3301 9.1062 46.5957 8.71362 46.9316 8.36597C47.2715 8.01831 47.6426 7.7605 48.0449 7.59253C48.5801 7.36597 49.1973 7.25269 49.8965 7.25269C51.1621 7.25269 52.1738 7.64526 52.9316 8.43042C53.6934 9.21558 54.0742 10.3074 54.0742 11.7058C54.0742 13.0925 53.6973 14.1785 52.9434 14.9636C52.1895 15.7449 51.1816 16.1355 49.9199 16.1355C48.6426 16.1355 47.627 15.7468 46.873 14.9695C46.1191 14.1882 45.7422 13.114 45.7422 11.7468ZM47.5293 11.6882C47.5293 12.6609 47.7539 13.3992 48.2031 13.9031C48.6523 14.4031 49.2227 14.6531 49.9141 14.6531C50.6055 14.6531 51.1719 14.405 51.6133 13.9089C52.0586 13.4089 52.2812 12.6609 52.2812 11.6648C52.2812 10.6804 52.0645 9.94604 51.6309 9.46167C51.2012 8.97729 50.6289 8.73511 49.9141 8.73511C49.1992 8.73511 48.623 8.9812 48.1855 9.47339C47.748 9.96167 47.5293 10.7 47.5293 11.6882ZM55.4805 15.989V7.46948H57.2148V14.5417H61.5273V15.989H55.4805ZM65.834 15.989V7.39917H67.5684V15.989H65.834ZM69.1738 15.989V7.39917H70.9082V15.989H69.1738Z" fill="white"/>
<defs>
<linearGradient id="paint0_linear_67_1895" x1="40" y1="1.98901" x2="40" y2="21.989" gradientUnits="userSpaceOnUse">
<stop stop-color="#0E98A2"/>
<stop offset="1" stop-color="#042224"/>
</linearGradient>
<linearGradient id="paint1_linear_67_1895" x1="40" y1="1.98901" x2="40" y2="21.989" gradientUnits="userSpaceOnUse">
<stop stop-color="#B78520"/>
<stop offset="1" stop-color="#A2317B"/>
</linearGradient>
</defs>
</svg>
