<svg width="50" height="24" viewBox="0 0 50 24" fill="none" xmlns="http://www.w3.org/2000/svg">
<rect x="2" y="1.98901" width="47" height="20" rx="10" fill="url(#paint0_linear_84_2011)"/>
<rect x="2" y="1.98901" width="47" height="20" rx="10" stroke="url(#paint1_linear_84_2011)" stroke-width="3" stroke-linejoin="round"/>
<path d="M11.9707 15.989V8.85229H9.42188V7.39917H16.248V8.85229H13.7051V15.989H11.9707ZM17.3848 15.989V7.39917H23.2734V8.85229H19.1191V10.8855H22.7051V12.3386H19.1191V15.989H17.3848ZM31.7871 15.989H29.9004L29.1504 14.0378H25.7168L25.0078 15.989H23.168L26.5137 7.39917H28.3477L31.7871 15.989ZM28.5938 12.5906L27.4102 9.40308L26.25 12.5906H28.5938ZM32.6895 15.989V7.39917H35.2852L36.8438 13.2585L38.3848 7.39917H40.9863V15.989H39.375V9.22729L37.6699 15.989H36L34.3008 9.22729V15.989H32.6895Z" fill="white"/>
<defs>
<linearGradient id="paint0_linear_84_2011" x1="25.5" y1="1.98901" x2="25.5" y2="21.989" gradientUnits="userSpaceOnUse">
<stop stop-color="#0E98A2"/>
<stop offset="1" stop-color="#042278"/>
</linearGradient>
<linearGradient id="paint1_linear_84_2011" x1="25.5" y1="1.98901" x2="25.5" y2="21.989" gradientUnits="userSpaceOnUse">
<stop stop-color="#B78520"/>
<stop offset="1" stop-color="#A23100"/>
</linearGradient>
</defs>
</svg>
