<svg width="95" height="24" viewBox="0 0 95 24" fill="none" xmlns="http://www.w3.org/2000/svg">
<rect x="1" y="1.98901" width="93" height="20" rx="10" fill="url(#paint0_linear_40_2565)"/>
<rect x="1" y="1.98901" width="93" height="20" rx="10" stroke="#1C96A3" stroke-width="3" stroke-linejoin="round"/>
<path d="M8.99805 7.39917H12.168C12.8828 7.39917 13.4277 7.45386 13.8027 7.56323C14.3066 7.71167 14.7383 7.97534 15.0977 8.35425C15.457 8.73315 15.7305 9.198 15.918 9.74878C16.1055 10.2957 16.1992 10.9714 16.1992 11.7761C16.1992 12.4832 16.1113 13.0925 15.9355 13.6042C15.7207 14.2292 15.4141 14.7351 15.0156 15.1218C14.7148 15.4148 14.3086 15.6433 13.7969 15.8074C13.4141 15.9285 12.9023 15.989 12.2617 15.989H8.99805V7.39917ZM10.7324 8.85229V14.5417H12.0273C12.5117 14.5417 12.8613 14.5144 13.0762 14.4597C13.3574 14.3894 13.5898 14.2703 13.7734 14.1023C13.9609 13.9343 14.1133 13.6589 14.2305 13.2761C14.3477 12.8894 14.4062 12.364 14.4062 11.7C14.4062 11.0359 14.3477 10.5261 14.2305 10.1707C14.1133 9.81519 13.9492 9.53784 13.7383 9.33862C13.5273 9.1394 13.2598 9.00464 12.9355 8.93433C12.6934 8.87964 12.2188 8.85229 11.5117 8.85229H10.7324ZM17.6934 15.989V7.39917H19.3809L22.8965 13.1355V7.39917H24.5078V15.989H22.7676L19.3047 10.3875V15.989H17.6934ZM26.3242 15.989V7.39917H28.9199L30.4785 13.2585L32.0195 7.39917H34.6211V15.989H33.0098V9.22729L31.3047 15.989H29.6348L27.9355 9.22729V15.989H26.3242ZM38.2773 15.989V8.85229H35.7285V7.39917H42.5547V8.85229H40.0117V15.989H38.2773ZM47.5293 15.989H45.8828V9.78394C45.2812 10.3464 44.5723 10.7625 43.7559 11.032V9.53784C44.1855 9.39722 44.6523 9.13159 45.1562 8.74097C45.6602 8.34644 46.0059 7.88745 46.1934 7.36401H47.5293V15.989ZM50.3066 14.3425H51.9531V15.5203C51.9531 15.9968 51.9121 16.3718 51.8301 16.6453C51.748 16.9226 51.5918 17.1707 51.3613 17.3894C51.1348 17.6082 50.8457 17.78 50.4941 17.905L50.1719 17.2253C50.5039 17.116 50.7402 16.9656 50.8809 16.7742C51.0215 16.5828 51.0957 16.321 51.1035 15.989H50.3066V14.3425ZM53.2773 13.7097L54.8711 13.5164C54.9219 13.9226 55.0586 14.2332 55.2812 14.448C55.5039 14.6628 55.7734 14.7703 56.0898 14.7703C56.4297 14.7703 56.7148 14.6414 56.9453 14.3835C57.1797 14.1257 57.2969 13.7781 57.2969 13.3406C57.2969 12.9265 57.1855 12.5984 56.9629 12.3562C56.7402 12.114 56.4688 11.9929 56.1484 11.9929C55.9375 11.9929 55.6855 12.0339 55.3926 12.116L55.5742 10.7742C56.0195 10.7859 56.3594 10.6902 56.5938 10.4871C56.8281 10.28 56.9453 10.0066 56.9453 9.66675C56.9453 9.37769 56.8594 9.14722 56.6875 8.97534C56.5156 8.80347 56.2871 8.71753 56.002 8.71753C55.7207 8.71753 55.4805 8.81519 55.2812 9.0105C55.082 9.20581 54.9609 9.49097 54.918 9.86597L53.4004 9.60815C53.5059 9.08862 53.6641 8.67456 53.875 8.36597C54.0898 8.05347 54.3867 7.80933 54.7656 7.63354C55.1484 7.45386 55.5762 7.36401 56.0488 7.36401C56.8574 7.36401 57.5059 7.62183 57.9941 8.13745C58.3965 8.55933 58.5977 9.03589 58.5977 9.56714C58.5977 10.321 58.1855 10.9226 57.3613 11.3718C57.8535 11.4773 58.2461 11.7136 58.5391 12.0808C58.8359 12.448 58.9844 12.8914 58.9844 13.4109C58.9844 14.1648 58.709 14.8074 58.1582 15.3386C57.6074 15.8699 56.9219 16.1355 56.1016 16.1355C55.3242 16.1355 54.6797 15.9128 54.168 15.4675C53.6562 15.0183 53.3594 14.4324 53.2773 13.7097ZM68.125 15.989H66.2383L65.4883 14.0378H62.0547L61.3457 15.989H59.5059L62.8516 7.39917H64.6855L68.125 15.989ZM64.9316 12.5906L63.748 9.40308L62.5879 12.5906H64.9316ZM68.998 14.3425H70.6445V15.5203C70.6445 15.9968 70.6035 16.3718 70.5215 16.6453C70.4395 16.9226 70.2832 17.1707 70.0527 17.3894C69.8262 17.6082 69.5371 17.78 69.1855 17.905L68.8633 17.2253C69.1953 17.116 69.4316 16.9656 69.5723 16.7742C69.7129 16.5828 69.7871 16.321 69.7949 15.989H68.998V14.3425ZM71.9688 13.7097L73.5625 13.5164C73.6133 13.9226 73.75 14.2332 73.9727 14.448C74.1953 14.6628 74.4648 14.7703 74.7812 14.7703C75.1211 14.7703 75.4062 14.6414 75.6367 14.3835C75.8711 14.1257 75.9883 13.7781 75.9883 13.3406C75.9883 12.9265 75.877 12.5984 75.6543 12.3562C75.4316 12.114 75.1602 11.9929 74.8398 11.9929C74.6289 11.9929 74.377 12.0339 74.084 12.116L74.2656 10.7742C74.7109 10.7859 75.0508 10.6902 75.2852 10.4871C75.5195 10.28 75.6367 10.0066 75.6367 9.66675C75.6367 9.37769 75.5508 9.14722 75.3789 8.97534C75.207 8.80347 74.9785 8.71753 74.6934 8.71753C74.4121 8.71753 74.1719 8.81519 73.9727 9.0105C73.7734 9.20581 73.6523 9.49097 73.6094 9.86597L72.0918 9.60815C72.1973 9.08862 72.3555 8.67456 72.5664 8.36597C72.7812 8.05347 73.0781 7.80933 73.457 7.63354C73.8398 7.45386 74.2676 7.36401 74.7402 7.36401C75.5488 7.36401 76.1973 7.62183 76.6855 8.13745C77.0879 8.55933 77.2891 9.03589 77.2891 9.56714C77.2891 10.321 76.877 10.9226 76.0527 11.3718C76.5449 11.4773 76.9375 11.7136 77.2305 12.0808C77.5273 12.448 77.6758 12.8914 77.6758 13.4109C77.6758 14.1648 77.4004 14.8074 76.8496 15.3386C76.2988 15.8699 75.6133 16.1355 74.793 16.1355C74.0156 16.1355 73.3711 15.9128 72.8594 15.4675C72.3477 15.0183 72.0508 14.4324 71.9688 13.7097ZM79.0762 7.39917H82.5098C83.1895 7.39917 83.6953 7.42847 84.0273 7.48706C84.3633 7.54175 84.6621 7.65894 84.9238 7.83862C85.1895 8.01831 85.4102 8.25854 85.5859 8.55933C85.7617 8.8562 85.8496 9.19019 85.8496 9.56128C85.8496 9.96362 85.7402 10.3328 85.5215 10.6687C85.3066 11.0046 85.0137 11.2566 84.6426 11.4246C85.166 11.5769 85.5684 11.8367 85.8496 12.2039C86.1309 12.571 86.2715 13.0027 86.2715 13.4988C86.2715 13.8894 86.1797 14.2703 85.9961 14.6414C85.8164 15.0085 85.5684 15.3035 85.252 15.5261C84.9395 15.7449 84.5527 15.8796 84.0918 15.9304C83.8027 15.9617 83.1055 15.9812 82 15.989H79.0762V7.39917ZM80.8105 8.82886V10.8152H81.9473C82.623 10.8152 83.043 10.8054 83.207 10.7859C83.5039 10.7507 83.7363 10.6492 83.9043 10.4812C84.0762 10.3093 84.1621 10.0847 84.1621 9.80737C84.1621 9.54175 84.0879 9.3269 83.9395 9.16284C83.7949 8.99487 83.5781 8.89331 83.2891 8.85815C83.1172 8.83862 82.623 8.82886 81.8066 8.82886H80.8105ZM80.8105 12.2449V14.5417H82.416C83.041 14.5417 83.4375 14.5242 83.6055 14.489C83.8633 14.4421 84.0723 14.3289 84.2324 14.1492C84.3965 13.9656 84.4785 13.7214 84.4785 13.4167C84.4785 13.1589 84.416 12.9402 84.291 12.7605C84.166 12.5808 83.9844 12.45 83.7461 12.3679C83.5117 12.2859 83 12.2449 82.2109 12.2449H80.8105Z" fill="white"/>
<defs>
<linearGradient id="paint0_linear_40_2565" x1="47.5" y1="1.98901" x2="47.5" y2="21.989" gradientUnits="userSpaceOnUse">
<stop stop-color="#1C96A3"/>
<stop offset="1" stop-color="#765EB6"/>
</linearGradient>
</defs>
</svg>
