<svg width="18" height="50" viewBox="0 0 18 50" fill="none" xmlns="http://www.w3.org/2000/svg">
<path d="M9.77917 23.5093C10.0556 23.5093 10.2792 23.2857 10.2792 23.0093C10.2792 22.7783 10.4315 21.3675 10.5281 20.9745C10.7566 20.0473 10.9226 19.3773 10.4148 19.0907C9.9089 18.8104 9.3787 19.3387 9.0603 19.6571C8.9021 19.8148 8.6687 19.8925 8.4353 19.871C8.2849 19.8554 8.197 19.8017 8.1726 19.7743C8.1814 19.7709 8.2068 19.7055 8.3122 19.5995C8.4313 19.4808 8.5993 19.4032 8.7946 19.3139C9.6296 18.9306 10.321 18.4448 10.321 16.373C10.321 16.0966 10.0974 15.873 9.821 15.873C9.5446 15.873 9.321 16.0966 9.321 16.373C9.321 17.9721 8.904 18.163 8.3767 18.4052C8.1306 18.5185 7.8513 18.6469 7.6052 18.8925C7.1208 19.3764 7.1482 19.8183 7.2068 20.039C7.3064 20.4081 7.6287 20.6992 8.0701 20.8173C8.5974 20.9584 9.1863 20.8344 9.615 20.4989C9.5945 20.5824 9.575 20.6625 9.5574 20.7352C9.4354 21.2269 9.27917 22.6567 9.27917 23.0093C9.27917 23.2857 9.50287 23.5093 9.77917 23.5093Z" fill="#A10079"/>
<path d="M8.84027 45.4658C7.73577 45.4658 6.84027 44.5703 6.84027 43.4658V23.4658C6.84027 22.3613 7.73577 21.4658 8.84027 21.4658C9.94477 21.4658 10.8403 22.3613 10.8403 23.4658V43.4658C10.8403 44.5703 9.94477 45.4658 8.84027 45.4658Z" fill="url(#paint0_linear_85_2396)"/>
<path d="M11.6948 46.0439C10.5903 46.0439 9.69482 45.1484 9.69482 44.0439V24.0439C9.69482 22.9394 10.5903 22.0439 11.6948 22.0439C12.7993 22.0439 13.6948 22.9394 13.6948 24.0439V44.0439C13.6948 45.1484 12.7993 46.0439 11.6948 46.0439Z" fill="url(#paint1_linear_85_2396)"/>
<path d="M6.2876 46.3965C5.1831 46.3965 4.2876 45.501 4.2876 44.3965V24.3965C4.2876 23.292 5.1831 22.3965 6.2876 22.3965C7.3921 22.3965 8.2876 23.292 8.2876 24.3965V44.3965C8.2876 45.501 7.3921 46.3965 6.2876 46.3965Z" fill="url(#paint2_linear_85_2396)"/>
<path d="M12.7026 47.6899C11.5981 47.6899 10.7026 46.7944 10.7026 45.6899V25.6899C10.7026 24.5854 11.5981 23.6899 12.7026 23.6899C13.8071 23.6899 14.7026 24.5854 14.7026 25.6899V45.6899C14.7026 46.7944 13.8071 47.6899 12.7026 47.6899Z" fill="url(#paint3_linear_85_2396)"/>
<path d="M5.9585 48.1211C4.854 48.1211 3.9585 47.2256 3.9585 46.1211V26.1211C3.9585 25.0166 4.854 24.1211 5.9585 24.1211C7.063 24.1211 7.9585 25.0166 7.9585 26.1211V46.1211C7.9585 47.2256 7.063 48.1211 5.9585 48.1211Z" fill="url(#paint4_linear_85_2396)"/>
<path d="M11.1049 49.168C10.0004 49.168 9.10492 48.2725 9.10492 47.168V27.168C9.10492 26.0635 10.0004 25.168 11.1049 25.168C12.2094 25.168 13.1049 26.0635 13.1049 27.168V47.168C13.1049 48.2725 12.2094 49.168 11.1049 49.168Z" fill="url(#paint5_linear_85_2396)"/>
<path d="M8.10297 49.3735C6.99847 49.3735 6.10297 48.478 6.10297 47.3735V27.3735C6.10297 26.269 6.99847 25.3735 8.10297 25.3735C9.20747 25.3735 10.103 26.269 10.103 27.3735V47.3735C10.103 48.478 9.20747 49.3735 8.10297 49.3735Z" fill="url(#paint6_linear_85_2396)"/>
<path d="M1.46039 6.09811C2.84889 2.74801 5.65599 0.93521 8.58409 0.65161C9.12709 0.59901 9.36669 1.33391 8.89079 1.60031C8.09779 2.04431 7.33199 2.61811 6.63139 3.31881C3.49819 6.45191 4.13739 9.60831 6.47839 11.9492C8.81939 14.2901 11.9757 14.9293 15.1088 11.7962C15.8096 11.0954 16.3836 10.3294 16.8276 9.53621C17.0936 9.06091 17.8287 9.29921 17.7763 9.84141C17.5954 11.7146 16.7886 13.5384 15.3538 14.9731C11.3438 18.9831 4.29309 18.0995 1.62309 12.322C0.707892 10.3415 0.625092 8.11371 1.46039 6.09811Z" fill="url(#paint7_radial_85_2396)"/>
<path d="M1.46039 6.09811C2.84889 2.74801 5.65599 0.93521 8.58409 0.65161C9.12709 0.59901 9.36669 1.33391 8.89079 1.60031C8.09779 2.04431 7.33199 2.61811 6.63139 3.31881C3.49819 6.45191 4.13739 9.60831 6.47839 11.9492C8.81939 14.2901 11.9757 14.9293 15.1088 11.7962C15.8096 11.0954 16.3836 10.3294 16.8276 9.53621C17.0936 9.06091 17.8287 9.29921 17.7763 9.84141C17.5954 11.7146 16.7886 13.5384 15.3538 14.9731C11.3438 18.9831 4.29309 18.0995 1.62309 12.322C0.707892 10.3415 0.625092 8.11371 1.46039 6.09811Z" fill="url(#paint8_radial_85_2396)"/>
<defs>
<linearGradient id="paint0_linear_85_2396" x1="6.84027" y1="33.4658" x2="10.8403" y2="33.4658" gradientUnits="userSpaceOnUse">
<stop stop-color="#3B002C"/>
<stop offset="0.0152" stop-color="#4A0037"/>
<stop offset="0.0539" stop-color="#69004F"/>
<stop offset="0.0943" stop-color="#820061"/>
<stop offset="0.1364" stop-color="#93006F"/>
<stop offset="0.1815" stop-color="#9E0076"/>
<stop offset="0.2349" stop-color="#A10079"/>
<stop offset="0.7697" stop-color="#3B002C"/>
</linearGradient>
<linearGradient id="paint1_linear_85_2396" x1="9.69482" y1="34.0439" x2="13.6948" y2="34.0439" gradientUnits="userSpaceOnUse">
<stop stop-color="#3B002C"/>
<stop offset="0.0152" stop-color="#4A0037"/>
<stop offset="0.0539" stop-color="#69004F"/>
<stop offset="0.0943" stop-color="#820061"/>
<stop offset="0.1364" stop-color="#93006F"/>
<stop offset="0.1815" stop-color="#9E0076"/>
<stop offset="0.2349" stop-color="#A10079"/>
<stop offset="1" stop-color="#3B002C"/>
</linearGradient>
<linearGradient id="paint2_linear_85_2396" x1="4.2875" y1="34.3965" x2="8.2875" y2="34.3965" gradientUnits="userSpaceOnUse">
<stop stop-color="#3B002C"/>
<stop offset="0.0152" stop-color="#4A0037"/>
<stop offset="0.0539" stop-color="#69004F"/>
<stop offset="0.0943" stop-color="#820061"/>
<stop offset="0.1364" stop-color="#93006F"/>
<stop offset="0.1815" stop-color="#9E0076"/>
<stop offset="0.2349" stop-color="#A10079"/>
<stop offset="1" stop-color="#3B002C"/>
</linearGradient>
<linearGradient id="paint3_linear_85_2396" x1="10.7026" y1="35.6899" x2="14.7026" y2="35.6899" gradientUnits="userSpaceOnUse">
<stop stop-color="#3B002C"/>
<stop offset="0.0152" stop-color="#4A0037"/>
<stop offset="0.0539" stop-color="#69004F"/>
<stop offset="0.0943" stop-color="#820061"/>
<stop offset="0.1364" stop-color="#93006F"/>
<stop offset="0.1815" stop-color="#9E0076"/>
<stop offset="0.2349" stop-color="#A10079"/>
<stop offset="1" stop-color="#3B002C"/>
</linearGradient>
<linearGradient id="paint4_linear_85_2396" x1="3.9584" y1="36.1211" x2="7.9584" y2="36.1211" gradientUnits="userSpaceOnUse">
<stop stop-color="#3B002C"/>
<stop offset="0.0152" stop-color="#4A0037"/>
<stop offset="0.0539" stop-color="#69004F"/>
<stop offset="0.0943" stop-color="#820061"/>
<stop offset="0.1364" stop-color="#93006F"/>
<stop offset="0.1815" stop-color="#9E0076"/>
<stop offset="0.2349" stop-color="#A10079"/>
<stop offset="1" stop-color="#3B002C"/>
</linearGradient>
<linearGradient id="paint5_linear_85_2396" x1="9.10492" y1="37.168" x2="13.1049" y2="37.168" gradientUnits="userSpaceOnUse">
<stop stop-color="#3B002C"/>
<stop offset="0.0152" stop-color="#4A0037"/>
<stop offset="0.0539" stop-color="#69004F"/>
<stop offset="0.0943" stop-color="#820061"/>
<stop offset="0.1364" stop-color="#93006F"/>
<stop offset="0.1815" stop-color="#9E0076"/>
<stop offset="0.2349" stop-color="#A10079"/>
<stop offset="1" stop-color="#3B002C"/>
</linearGradient>
<linearGradient id="paint6_linear_85_2396" x1="6.10297" y1="37.3735" x2="10.103" y2="37.3735" gradientUnits="userSpaceOnUse">
<stop stop-color="#3B002C"/>
<stop offset="0.0152" stop-color="#4A0037"/>
<stop offset="0.0539" stop-color="#69004F"/>
<stop offset="0.0943" stop-color="#820061"/>
<stop offset="0.1364" stop-color="#93006F"/>
<stop offset="0.1815" stop-color="#9E0076"/>
<stop offset="0.2349" stop-color="#A10079"/>
<stop offset="1" stop-color="#3B002C"/>
</linearGradient>
<radialGradient id="paint7_radial_85_2396" cx="0" cy="0" r="1" gradientUnits="userSpaceOnUse" gradientTransform="translate(9.26324 9.08982) rotate(135) scale(8.32202)">
<stop offset="0.483" stop-color="#A10079"/>
<stop offset="0.999" stop-color="#3B002C"/>
</radialGradient>
<radialGradient id="paint8_radial_85_2396" cx="0" cy="0" r="1" gradientUnits="userSpaceOnUse" gradientTransform="translate(9.26324 9.08982) rotate(135) scale(8.32202)">
<stop offset="0.5427" stop-color="#3B002C"/>
<stop offset="1" stop-color="#A10079" stop-opacity="0"/>
</radialGradient>
</defs>
</svg>
