<svg width="91" height="111" viewBox="0 0 91 111" fill="none" xmlns="http://www.w3.org/2000/svg">
<path d="M25.8026 90.9915C39.6097 90.9915 50.8026 79.7986 50.8026 65.9915C50.8026 52.1843 39.6097 40.9915 25.8026 40.9915C11.9954 40.9915 0.802551 52.1843 0.802551 65.9915C0.802551 79.7986 11.9954 90.9915 25.8026 90.9915Z" fill="url(#paint0_radial_85_2345)"/>
<path d="M55.8045 110.993C69.6116 110.993 80.8045 99.7998 80.8045 85.9927C80.8045 72.1856 69.6116 60.9927 55.8045 60.9927C41.9974 60.9927 30.8045 72.1856 30.8045 85.9927C30.8045 99.7998 41.9974 110.993 55.8045 110.993Z" fill="url(#paint1_radial_85_2345)"/>
<path d="M35.803 50.989C49.6102 50.989 60.803 39.7961 60.803 25.989C60.803 12.1819 49.6102 0.989014 35.803 0.989014C21.9959 0.989014 10.803 12.1819 10.803 25.989C10.803 39.7961 21.9959 50.989 35.803 50.989Z" fill="url(#paint2_radial_85_2345)"/>
<path d="M65.805 70.9902C79.6121 70.9902 90.805 59.7974 90.805 45.9902C90.805 32.1831 79.6121 20.9902 65.805 20.9902C51.9979 20.9902 40.805 32.1831 40.805 45.9902C40.805 59.7974 51.9979 70.9902 65.805 70.9902Z" fill="url(#paint3_radial_85_2345)"/>
<defs>
<radialGradient id="paint0_radial_85_2345" cx="0" cy="0" r="1" gradientUnits="userSpaceOnUse" gradientTransform="translate(19.8026 57.9915) scale(31.257 31.257)">
<stop stop-color="#E1FF59"/>
<stop offset="1" stop-color="#71802C"/>
</radialGradient>
<radialGradient id="paint1_radial_85_2345" cx="0" cy="0" r="1" gradientUnits="userSpaceOnUse" gradientTransform="translate(49.8045 77.9927) scale(31.257)">
<stop stop-color="#E1FF59"/>
<stop offset="1" stop-color="#71802C"/>
</radialGradient>
<radialGradient id="paint2_radial_85_2345" cx="0" cy="0" r="1" gradientUnits="userSpaceOnUse" gradientTransform="translate(29.803 17.989) scale(31.257)">
<stop stop-color="#E1FF59"/>
<stop offset="1" stop-color="#71802C"/>
</radialGradient>
<radialGradient id="paint3_radial_85_2345" cx="0" cy="0" r="1" gradientUnits="userSpaceOnUse" gradientTransform="translate(59.805 37.9902) scale(31.257 31.257)">
<stop stop-color="#E1FF59"/>
<stop offset="1" stop-color="#71802C"/>
</radialGradient>
</defs>
</svg>
