<svg width="52" height="24" viewBox="0 0 52 24" fill="none" xmlns="http://www.w3.org/2000/svg">
<rect x="2" y="1.98901" width="49" height="20" rx="10" fill="url(#paint0_linear_67_1925)"/>
<rect x="2" y="1.98901" width="49" height="20" rx="10" stroke="#E3C400" stroke-width="3" stroke-linejoin="round"/>
<path d="M9.91797 13.1941L11.6055 13.03C11.707 13.5964 11.9121 14.0125 12.2207 14.2781C12.5332 14.5437 12.9531 14.6765 13.4805 14.6765C14.0391 14.6765 14.459 14.5593 14.7402 14.325C15.0254 14.0867 15.168 13.8093 15.168 13.4929C15.168 13.2898 15.1074 13.1179 14.9863 12.9773C14.8691 12.8328 14.6621 12.7078 14.3652 12.6023C14.1621 12.532 13.6992 12.407 12.9766 12.2273C12.0469 11.9968 11.3945 11.7136 11.0195 11.3777C10.4922 10.905 10.2285 10.3289 10.2285 9.64917C10.2285 9.21167 10.3516 8.80347 10.5977 8.42456C10.8477 8.04175 11.2051 7.75073 11.6699 7.55151C12.1387 7.35229 12.7031 7.25269 13.3633 7.25269C14.4414 7.25269 15.252 7.48901 15.7949 7.96167C16.3418 8.43433 16.6289 9.06519 16.6562 9.85425L14.9219 9.93042C14.8477 9.48901 14.6875 9.17261 14.4414 8.9812C14.1992 8.78589 13.834 8.68823 13.3457 8.68823C12.8418 8.68823 12.4473 8.79175 12.1621 8.99878C11.9785 9.13159 11.8867 9.30933 11.8867 9.53198C11.8867 9.73511 11.9727 9.90894 12.1445 10.0535C12.3633 10.2371 12.8945 10.4285 13.7383 10.6277C14.582 10.8269 15.2051 11.0339 15.6074 11.2488C16.0137 11.4597 16.3301 11.7507 16.5566 12.1218C16.7871 12.489 16.9023 12.9441 16.9023 13.4871C16.9023 13.9792 16.7656 14.4402 16.4922 14.8699C16.2188 15.2996 15.832 15.6199 15.332 15.8308C14.832 16.0378 14.209 16.1414 13.4629 16.1414C12.377 16.1414 11.543 15.8914 10.9609 15.3914C10.3789 14.8875 10.0312 14.155 9.91797 13.1941ZM18.3086 15.989V7.39917H20.043V15.989H18.3086ZM21.707 15.989V7.39917H25.3574C26.2754 7.39917 26.9414 7.47729 27.3555 7.63354C27.7734 7.78589 28.1074 8.05933 28.3574 8.45386C28.6074 8.84839 28.7324 9.29956 28.7324 9.80737C28.7324 10.4519 28.543 10.9851 28.1641 11.407C27.7852 11.825 27.2188 12.0886 26.4648 12.198C26.8398 12.4167 27.1484 12.657 27.3906 12.9187C27.6367 13.1804 27.9668 13.6453 28.3809 14.3132L29.4297 15.989H27.3555L26.1016 14.1199C25.6562 13.4519 25.3516 13.032 25.1875 12.8601C25.0234 12.6843 24.8496 12.5652 24.666 12.5027C24.4824 12.4363 24.1914 12.4031 23.793 12.4031H23.4414V15.989H21.707ZM23.4414 11.032H24.7246C25.5566 11.032 26.0762 10.9968 26.2832 10.9265C26.4902 10.8562 26.6523 10.7351 26.7695 10.5632C26.8867 10.3914 26.9453 10.1765 26.9453 9.9187C26.9453 9.62964 26.8672 9.39722 26.7109 9.22144C26.5586 9.04175 26.3418 8.92847 26.0605 8.88159C25.9199 8.86206 25.498 8.85229 24.7949 8.85229H23.4414V11.032ZM32.3066 15.989V8.85229H29.7578V7.39917H36.584V8.85229H34.041V15.989H32.3066ZM41.5586 15.989H39.9121V9.78394C39.3105 10.3464 38.6016 10.7625 37.7852 11.032V9.53784C38.2148 9.39722 38.6816 9.13159 39.1855 8.74097C39.6895 8.34644 40.0352 7.88745 40.2227 7.36401H41.5586V15.989Z" fill="white"/>
<defs>
<linearGradient id="paint0_linear_67_1925" x1="26.5" y1="1.98901" x2="26.5" y2="21.989" gradientUnits="userSpaceOnUse">
<stop stop-color="#E3C400"/>
<stop offset="1" stop-color="#759F50"/>
</linearGradient>
</defs>
</svg>
