<svg width="52" height="24" viewBox="0 0 52 24" fill="none" xmlns="http://www.w3.org/2000/svg">
<rect x="2" y="1.98901" width="49" height="20" rx="10" fill="url(#paint0_linear_45_4266)"/>
<rect x="2" y="1.98901" width="49" height="20" rx="10" stroke="#FF0071" stroke-width="3" stroke-linejoin="round"/>
<path d="M10.0352 15.989V7.39917H11.7695V10.78H15.168V7.39917H16.9023V15.989H15.168V12.2332H11.7695V15.989H10.0352ZM18.6953 7.39917H21.8652C22.5801 7.39917 23.125 7.45386 23.5 7.56323C24.0039 7.71167 24.4355 7.97534 24.7949 8.35425C25.1543 8.73315 25.4277 9.198 25.6152 9.74878C25.8027 10.2957 25.8965 10.9714 25.8965 11.7761C25.8965 12.4832 25.8086 13.0925 25.6328 13.6042C25.418 14.2292 25.1113 14.7351 24.7129 15.1218C24.4121 15.4148 24.0059 15.6433 23.4941 15.8074C23.1113 15.9285 22.5996 15.989 21.959 15.989H18.6953V7.39917ZM20.4297 8.85229V14.5417H21.7246C22.209 14.5417 22.5586 14.5144 22.7734 14.4597C23.0547 14.3894 23.2871 14.2703 23.4707 14.1023C23.6582 13.9343 23.8105 13.6589 23.9277 13.2761C24.0449 12.8894 24.1035 12.364 24.1035 11.7C24.1035 11.0359 24.0449 10.5261 23.9277 10.1707C23.8105 9.81519 23.6465 9.53784 23.4355 9.33862C23.2246 9.1394 22.957 9.00464 22.6328 8.93433C22.3906 8.87964 21.916 8.85229 21.209 8.85229H20.4297ZM35.1191 15.989H33.2324L32.4824 14.0378H29.0488L28.3398 15.989H26.5L29.8457 7.39917H31.6797L35.1191 15.989ZM31.9258 12.5906L30.7422 9.40308L29.582 12.5906H31.9258ZM41.541 12.8308L43.2227 13.364C42.9648 14.3015 42.5352 14.9988 41.9336 15.4558C41.3359 15.9089 40.5762 16.1355 39.6543 16.1355C38.5137 16.1355 37.5762 15.7468 36.8418 14.9695C36.1074 14.1882 35.7402 13.1218 35.7402 11.7703C35.7402 10.3406 36.1094 9.2312 36.8477 8.44214C37.5859 7.64917 38.5566 7.25269 39.7598 7.25269C40.8105 7.25269 41.6641 7.56323 42.3203 8.18433C42.7109 8.55151 43.0039 9.07886 43.1992 9.76636L41.4824 10.1765C41.3809 9.7312 41.168 9.37964 40.8438 9.12183C40.5234 8.86401 40.1328 8.73511 39.6719 8.73511C39.0352 8.73511 38.5176 8.96362 38.1191 9.42065C37.7246 9.87769 37.5273 10.6179 37.5273 11.6414C37.5273 12.7273 37.7227 13.5007 38.1133 13.9617C38.5039 14.4226 39.0117 14.6531 39.6367 14.6531C40.0977 14.6531 40.4941 14.5066 40.8262 14.2136C41.1582 13.9207 41.3965 13.4597 41.541 12.8308Z" fill="white"/>
<defs>
<linearGradient id="paint0_linear_45_4266" x1="26.5" y1="1.98901" x2="26.5" y2="21.989" gradientUnits="userSpaceOnUse">
<stop stop-color="#FF0071"/>
<stop offset="1" stop-color="#765EB6"/>
</linearGradient>
</defs>
</svg>
