<svg width="46" height="24" viewBox="0 0 46 24" fill="none" xmlns="http://www.w3.org/2000/svg">
<rect x="2" y="1.98901" width="43" height="20" rx="10" fill="url(#paint0_linear_64_1854)"/>
<rect x="2" y="1.98901" width="43" height="20" rx="10" stroke="#DF8528" stroke-width="3" stroke-linejoin="round"/>
<path d="M16.0059 15.989H14.3594V12.8132C14.3594 12.1414 14.3242 11.7078 14.2539 11.5125C14.1836 11.3132 14.0684 11.1589 13.9082 11.0496C13.752 10.9402 13.5625 10.8855 13.3398 10.8855C13.0547 10.8855 12.7988 10.9636 12.5723 11.1199C12.3457 11.2761 12.1895 11.4832 12.1035 11.741C12.0215 11.9988 11.9805 12.4753 11.9805 13.1707V15.989H10.334V9.76636H11.8633V10.6804C12.4062 9.97729 13.0898 9.62573 13.9141 9.62573C14.2773 9.62573 14.6094 9.69214 14.9102 9.82495C15.2109 9.95386 15.4375 10.1199 15.5898 10.323C15.7461 10.5261 15.8535 10.7566 15.9121 11.0144C15.9746 11.2722 16.0059 11.6414 16.0059 12.1218V15.989ZM17.6348 9.76636H19.1699V10.6804C19.3691 10.3679 19.6387 10.114 19.9785 9.9187C20.3184 9.72339 20.6953 9.62573 21.1094 9.62573C21.832 9.62573 22.4453 9.90894 22.9492 10.4753C23.4531 11.0417 23.7051 11.8308 23.7051 12.8425C23.7051 13.8816 23.4512 14.6902 22.9434 15.2683C22.4355 15.8425 21.8203 16.1296 21.0977 16.1296C20.7539 16.1296 20.4414 16.0613 20.1602 15.9246C19.8828 15.7878 19.5898 15.5535 19.2812 15.2214V18.3562H17.6348V9.76636ZM19.2637 12.7722C19.2637 13.4714 19.4023 13.989 19.6797 14.325C19.957 14.657 20.2949 14.823 20.6934 14.823C21.0762 14.823 21.3945 14.6707 21.6484 14.366C21.9023 14.0574 22.0293 13.5535 22.0293 12.8542C22.0293 12.2019 21.8984 11.7175 21.6367 11.4011C21.375 11.0847 21.0508 10.9265 20.6641 10.9265C20.2617 10.9265 19.9277 11.0828 19.6621 11.3953C19.3965 11.7039 19.2637 12.1628 19.2637 12.7722ZM24.4375 14.2136L26.0898 13.9617C26.1602 14.282 26.3027 14.5261 26.5176 14.6941C26.7324 14.8582 27.0332 14.9402 27.4199 14.9402C27.8457 14.9402 28.166 14.8621 28.3809 14.7058C28.5254 14.5964 28.5977 14.45 28.5977 14.2664C28.5977 14.1414 28.5586 14.0378 28.4805 13.9558C28.3984 13.8777 28.2148 13.8054 27.9297 13.739C26.6016 13.446 25.7598 13.1785 25.4043 12.9363C24.9121 12.6003 24.666 12.1335 24.666 11.5359C24.666 10.9968 24.8789 10.5437 25.3047 10.1765C25.7305 9.80933 26.3906 9.62573 27.2852 9.62573C28.1367 9.62573 28.7695 9.7644 29.1836 10.0417C29.5977 10.3191 29.8828 10.7292 30.0391 11.2722L28.4863 11.5593C28.4199 11.3171 28.293 11.1316 28.1055 11.0027C27.9219 10.8738 27.6582 10.8093 27.3145 10.8093C26.8809 10.8093 26.5703 10.8699 26.3828 10.991C26.2578 11.0769 26.1953 11.1882 26.1953 11.325C26.1953 11.4421 26.25 11.5417 26.3594 11.6238C26.5078 11.7332 27.0195 11.8875 27.8945 12.0867C28.7734 12.2859 29.3867 12.53 29.7344 12.8191C30.0781 13.1121 30.25 13.5203 30.25 14.0437C30.25 14.614 30.0117 15.1042 29.5352 15.5144C29.0586 15.9246 28.3535 16.1296 27.4199 16.1296C26.5723 16.1296 25.9004 15.9578 25.4043 15.614C24.9121 15.2703 24.5898 14.8035 24.4375 14.2136ZM32.7578 11.3542C32.332 11.1746 32.0215 10.9285 31.8262 10.616C31.6348 10.2996 31.5391 9.95386 31.5391 9.57886C31.5391 8.93823 31.7617 8.40894 32.207 7.99097C32.6562 7.573 33.293 7.36401 34.1172 7.36401C34.9336 7.36401 35.5664 7.573 36.0156 7.99097C36.4688 8.40894 36.6953 8.93823 36.6953 9.57886C36.6953 9.97729 36.5918 10.3328 36.3848 10.6453C36.1777 10.9539 35.8867 11.1902 35.5117 11.3542C35.9883 11.5457 36.3496 11.825 36.5957 12.1921C36.8457 12.5593 36.9707 12.9832 36.9707 13.4636C36.9707 14.2566 36.7168 14.9011 36.209 15.3972C35.7051 15.8933 35.0332 16.1414 34.1934 16.1414C33.4121 16.1414 32.7617 15.9363 32.2422 15.5261C31.6289 15.0417 31.3223 14.3777 31.3223 13.5339C31.3223 13.0691 31.4375 12.6433 31.668 12.2566C31.8984 11.866 32.2617 11.5652 32.7578 11.3542ZM33.0977 9.69604C33.0977 10.0242 33.1895 10.28 33.373 10.4636C33.5605 10.6472 33.8086 10.739 34.1172 10.739C34.4297 10.739 34.6797 10.6472 34.8672 10.4636C35.0547 10.2761 35.1484 10.0183 35.1484 9.69019C35.1484 9.38159 35.0547 9.1355 34.8672 8.9519C34.6836 8.7644 34.4395 8.67065 34.1348 8.67065C33.8184 8.67065 33.5664 8.7644 33.3789 8.9519C33.1914 9.1394 33.0977 9.38745 33.0977 9.69604ZM32.9453 13.3757C32.9453 13.8289 33.0605 14.1824 33.291 14.4363C33.5254 14.6902 33.8164 14.8171 34.1641 14.8171C34.5039 14.8171 34.7852 14.696 35.0078 14.4539C35.2305 14.2078 35.3418 13.8542 35.3418 13.3933C35.3418 12.991 35.2285 12.6687 35.002 12.4265C34.7754 12.1804 34.4883 12.0574 34.1406 12.0574C33.7383 12.0574 33.4375 12.196 33.2383 12.4734C33.043 12.7507 32.9453 13.0515 32.9453 13.3757Z" fill="white"/>
<defs>
<linearGradient id="paint0_linear_64_1854" x1="23.5" y1="1.98901" x2="23.5" y2="21.989" gradientUnits="userSpaceOnUse">
<stop stop-color="#67EBA1"/>
<stop offset="1" stop-color="#DF8528"/>
</linearGradient>
</defs>
</svg>
