<svg width="50" height="24" viewBox="0 0 50 24" fill="none" xmlns="http://www.w3.org/2000/svg">
<rect x="2" y="1.98901" width="47" height="20" rx="10" fill="url(#paint0_linear_67_1947)"/>
<rect x="2" y="1.98901" width="47" height="20" rx="10" stroke="#5874C9" stroke-width="3" stroke-linejoin="round"/>
<path d="M9.91992 13.1941L11.6074 13.03C11.709 13.5964 11.9141 14.0125 12.2227 14.2781C12.5352 14.5437 12.9551 14.6765 13.4824 14.6765C14.041 14.6765 14.4609 14.5593 14.7422 14.325C15.0273 14.0867 15.1699 13.8093 15.1699 13.4929C15.1699 13.2898 15.1094 13.1179 14.9883 12.9773C14.8711 12.8328 14.6641 12.7078 14.3672 12.6023C14.1641 12.532 13.7012 12.407 12.9785 12.2273C12.0488 11.9968 11.3965 11.7136 11.0215 11.3777C10.4941 10.905 10.2305 10.3289 10.2305 9.64917C10.2305 9.21167 10.3535 8.80347 10.5996 8.42456C10.8496 8.04175 11.207 7.75073 11.6719 7.55151C12.1406 7.35229 12.7051 7.25269 13.3652 7.25269C14.4434 7.25269 15.2539 7.48901 15.7969 7.96167C16.3438 8.43433 16.6309 9.06519 16.6582 9.85425L14.9238 9.93042C14.8496 9.48901 14.6895 9.17261 14.4434 8.9812C14.2012 8.78589 13.8359 8.68823 13.3477 8.68823C12.8438 8.68823 12.4492 8.79175 12.1641 8.99878C11.9805 9.13159 11.8887 9.30933 11.8887 9.53198C11.8887 9.73511 11.9746 9.90894 12.1465 10.0535C12.3652 10.2371 12.8965 10.4285 13.7402 10.6277C14.584 10.8269 15.207 11.0339 15.6094 11.2488C16.0156 11.4597 16.332 11.7507 16.5586 12.1218C16.7891 12.489 16.9043 12.9441 16.9043 13.4871C16.9043 13.9792 16.7676 14.4402 16.4941 14.8699C16.2207 15.2996 15.834 15.6199 15.334 15.8308C14.834 16.0378 14.2109 16.1414 13.4648 16.1414C12.3789 16.1414 11.5449 15.8914 10.9629 15.3914C10.3809 14.8875 10.0332 14.155 9.91992 13.1941ZM18.3691 15.989V7.39917H22.0195C22.9375 7.39917 23.6035 7.47729 24.0176 7.63354C24.4355 7.78589 24.7695 8.05933 25.0195 8.45386C25.2695 8.84839 25.3945 9.29956 25.3945 9.80737C25.3945 10.4519 25.2051 10.9851 24.8262 11.407C24.4473 11.825 23.8809 12.0886 23.127 12.198C23.502 12.4167 23.8105 12.657 24.0527 12.9187C24.2988 13.1804 24.6289 13.6453 25.043 14.3132L26.0918 15.989H24.0176L22.7637 14.1199C22.3184 13.4519 22.0137 13.032 21.8496 12.8601C21.6855 12.6843 21.5117 12.5652 21.3281 12.5027C21.1445 12.4363 20.8535 12.4031 20.4551 12.4031H20.1035V15.989H18.3691ZM20.1035 11.032H21.3867C22.2188 11.032 22.7383 10.9968 22.9453 10.9265C23.1523 10.8562 23.3145 10.7351 23.4316 10.5632C23.5488 10.3914 23.6074 10.1765 23.6074 9.9187C23.6074 9.62964 23.5293 9.39722 23.373 9.22144C23.2207 9.04175 23.0039 8.92847 22.7227 8.88159C22.582 8.86206 22.1602 8.85229 21.457 8.85229H20.1035V11.032ZM32.5312 12.8308L34.2129 13.364C33.9551 14.3015 33.5254 14.9988 32.9238 15.4558C32.3262 15.9089 31.5664 16.1355 30.6445 16.1355C29.5039 16.1355 28.5664 15.7468 27.832 14.9695C27.0977 14.1882 26.7305 13.1218 26.7305 11.7703C26.7305 10.3406 27.0996 9.2312 27.8379 8.44214C28.5762 7.64917 29.5469 7.25269 30.75 7.25269C31.8008 7.25269 32.6543 7.56323 33.3105 8.18433C33.7012 8.55151 33.9941 9.07886 34.1895 9.76636L32.4727 10.1765C32.3711 9.7312 32.1582 9.37964 31.834 9.12183C31.5137 8.86401 31.123 8.73511 30.6621 8.73511C30.0254 8.73511 29.5078 8.96362 29.1094 9.42065C28.7148 9.87769 28.5176 10.6179 28.5176 11.6414C28.5176 12.7273 28.7129 13.5007 29.1035 13.9617C29.4941 14.4226 30.002 14.6531 30.627 14.6531C31.0879 14.6531 31.4844 14.5066 31.8164 14.2136C32.1484 13.9207 32.3867 13.4597 32.5312 12.8308ZM39.5566 15.989H37.9102V9.78394C37.3086 10.3464 36.5996 10.7625 35.7832 11.032V9.53784C36.2129 9.39722 36.6797 9.13159 37.1836 8.74097C37.6875 8.34644 38.0332 7.88745 38.2207 7.36401H39.5566V15.989Z" fill="white"/>
<defs>
<linearGradient id="paint0_linear_67_1947" x1="25.5" y1="1.98901" x2="25.5" y2="21.989" gradientUnits="userSpaceOnUse">
<stop stop-color="#5874C9"/>
<stop offset="1" stop-color="#FF7B00"/>
</linearGradient>
</defs>
</svg>
