<svg width="51" height="23" viewBox="0 0 51 23" fill="none" xmlns="http://www.w3.org/2000/svg">
<path d="M1 2.98901C1 2.43673 1.44772 1.98901 2 1.98901H40C45.5228 1.98901 50 6.46617 50 11.989C50 17.5119 45.5228 21.989 40 21.989H2C1.44771 21.989 1 21.5413 1 20.989V2.98901Z" fill="url(#paint0_linear_90_4617)"/>
<path d="M1 2.98901C1 2.43673 1.44772 1.98901 2 1.98901H40C45.5228 1.98901 50 6.46617 50 11.989C50 17.5119 45.5228 21.989 40 21.989H2C1.44771 21.989 1 21.5413 1 20.989V2.98901Z" stroke="#A4EF84" stroke-width="2" stroke-linejoin="round"/>
<path d="M9.29883 15.989V7.39917H11.0332V15.989H9.29883ZM12.252 13.1941L13.9395 13.03C14.041 13.5964 14.2461 14.0125 14.5547 14.2781C14.8672 14.5437 15.2871 14.6765 15.8145 14.6765C16.373 14.6765 16.793 14.5593 17.0742 14.325C17.3594 14.0867 17.502 13.8093 17.502 13.4929C17.502 13.2898 17.4414 13.1179 17.3203 12.9773C17.2031 12.8328 16.9961 12.7078 16.6992 12.6023C16.4961 12.532 16.0332 12.407 15.3105 12.2273C14.3809 11.9968 13.7285 11.7136 13.3535 11.3777C12.8262 10.905 12.5625 10.3289 12.5625 9.64917C12.5625 9.21167 12.6855 8.80347 12.9316 8.42456C13.1816 8.04175 13.5391 7.75073 14.0039 7.55151C14.4727 7.35229 15.0371 7.25269 15.6973 7.25269C16.7754 7.25269 17.5859 7.48901 18.1289 7.96167C18.6758 8.43433 18.9629 9.06519 18.9902 9.85425L17.2559 9.93042C17.1816 9.48901 17.0215 9.17261 16.7754 8.9812C16.5332 8.78589 16.168 8.68823 15.6797 8.68823C15.1758 8.68823 14.7812 8.79175 14.4961 8.99878C14.3125 9.13159 14.2207 9.30933 14.2207 9.53198C14.2207 9.73511 14.3066 9.90894 14.4785 10.0535C14.6973 10.2371 15.2285 10.4285 16.0723 10.6277C16.916 10.8269 17.5391 11.0339 17.9414 11.2488C18.3477 11.4597 18.6641 11.7507 18.8906 12.1218C19.1211 12.489 19.2363 12.9441 19.2363 13.4871C19.2363 13.9792 19.0996 14.4402 18.8262 14.8699C18.5527 15.2996 18.166 15.6199 17.666 15.8308C17.166 16.0378 16.543 16.1414 15.7969 16.1414C14.7109 16.1414 13.877 15.8914 13.2949 15.3914C12.7129 14.8875 12.3652 14.155 12.252 13.1941ZM24.6914 12.8308V11.3835H28.4297V14.8054C28.0664 15.157 27.5391 15.4675 26.8477 15.7371C26.1602 16.0027 25.4629 16.1355 24.7559 16.1355C23.8574 16.1355 23.0742 15.948 22.4062 15.573C21.7383 15.1941 21.2363 14.655 20.9004 13.9558C20.5645 13.2527 20.3965 12.489 20.3965 11.6648C20.3965 10.7703 20.584 9.97534 20.959 9.28003C21.334 8.58472 21.8828 8.05151 22.6055 7.68042C23.1562 7.39526 23.8418 7.25269 24.6621 7.25269C25.7285 7.25269 26.5605 7.47729 27.1582 7.92651C27.7598 8.37183 28.1465 8.98901 28.3184 9.77808L26.5957 10.1003C26.4746 9.67847 26.2461 9.34644 25.9102 9.10425C25.5781 8.85815 25.1621 8.73511 24.6621 8.73511C23.9043 8.73511 23.3008 8.97534 22.8516 9.45581C22.4062 9.93628 22.1836 10.6492 22.1836 11.5945C22.1836 12.614 22.4102 13.3796 22.8633 13.8914C23.3164 14.3992 23.9102 14.6531 24.6445 14.6531C25.0078 14.6531 25.3711 14.5828 25.7344 14.4421C26.1016 14.2976 26.416 14.1238 26.6777 13.9207V12.8308H24.6914ZM33.8848 15.989H32.2383V9.78394C31.6367 10.3464 30.9277 10.7625 30.1113 11.032V9.53784C30.541 9.39722 31.0078 9.13159 31.5117 8.74097C32.0156 8.34644 32.3613 7.88745 32.5488 7.36401H33.8848V15.989ZM36.375 13.78L38.0156 13.6101C38.0625 13.9812 38.2012 14.2761 38.4316 14.4949C38.6621 14.7097 38.9277 14.8171 39.2285 14.8171C39.5723 14.8171 39.8633 14.6785 40.1016 14.4011C40.3398 14.1199 40.459 13.698 40.459 13.1355C40.459 12.6082 40.3398 12.2136 40.1016 11.9519C39.8672 11.6863 39.5605 11.5535 39.1816 11.5535C38.709 11.5535 38.2852 11.7625 37.9102 12.1804L36.5742 11.9871L37.418 7.51636H41.7715V9.05737H38.666L38.4082 10.5164C38.7754 10.3328 39.1504 10.241 39.5332 10.241C40.2637 10.241 40.8828 10.5066 41.3906 11.0378C41.8984 11.5691 42.1523 12.2585 42.1523 13.1062C42.1523 13.8132 41.9473 14.4441 41.5371 14.9988C40.9785 15.7566 40.2031 16.1355 39.2109 16.1355C38.418 16.1355 37.7715 15.9226 37.2715 15.4968C36.7715 15.071 36.4727 14.4988 36.375 13.78Z" fill="white"/>
<defs>
<linearGradient id="paint0_linear_90_4617" x1="25.5" y1="1.98901" x2="25.5" y2="21.989" gradientUnits="userSpaceOnUse">
<stop stop-color="#A4EF84"/>
<stop offset="1" stop-color="#244117"/>
</linearGradient>
</defs>
</svg>
