<svg width="50" height="24" viewBox="0 0 50 24" fill="none" xmlns="http://www.w3.org/2000/svg">
<rect x="2" y="1.98901" width="47" height="20" rx="10" fill="url(#paint0_linear_67_1960)"/>
<rect x="2" y="1.98901" width="47" height="20" rx="10" stroke="#2E00AD" stroke-width="3" stroke-linejoin="round"/>
<path d="M9.58594 13.1941L11.2734 13.03C11.375 13.5964 11.5801 14.0125 11.8887 14.2781C12.2012 14.5437 12.6211 14.6765 13.1484 14.6765C13.707 14.6765 14.127 14.5593 14.4082 14.325C14.6934 14.0867 14.8359 13.8093 14.8359 13.4929C14.8359 13.2898 14.7754 13.1179 14.6543 12.9773C14.5371 12.8328 14.3301 12.7078 14.0332 12.6023C13.8301 12.532 13.3672 12.407 12.6445 12.2273C11.7148 11.9968 11.0625 11.7136 10.6875 11.3777C10.1602 10.905 9.89648 10.3289 9.89648 9.64917C9.89648 9.21167 10.0195 8.80347 10.2656 8.42456C10.5156 8.04175 10.873 7.75073 11.3379 7.55151C11.8066 7.35229 12.3711 7.25269 13.0312 7.25269C14.1094 7.25269 14.9199 7.48901 15.4629 7.96167C16.0098 8.43433 16.2969 9.06519 16.3242 9.85425L14.5898 9.93042C14.5156 9.48901 14.3555 9.17261 14.1094 8.9812C13.8672 8.78589 13.502 8.68823 13.0137 8.68823C12.5098 8.68823 12.1152 8.79175 11.8301 8.99878C11.6465 9.13159 11.5547 9.30933 11.5547 9.53198C11.5547 9.73511 11.6406 9.90894 11.8125 10.0535C12.0312 10.2371 12.5625 10.4285 13.4062 10.6277C14.25 10.8269 14.873 11.0339 15.2754 11.2488C15.6816 11.4597 15.998 11.7507 16.2246 12.1218C16.4551 12.489 16.5703 12.9441 16.5703 13.4871C16.5703 13.9792 16.4336 14.4402 16.1602 14.8699C15.8867 15.2996 15.5 15.6199 15 15.8308C14.5 16.0378 13.877 16.1414 13.1309 16.1414C12.0449 16.1414 11.2109 15.8914 10.6289 15.3914C10.0469 14.8875 9.69922 14.155 9.58594 13.1941ZM17.6777 11.7468C17.6777 10.8718 17.8086 10.1375 18.0703 9.5437C18.2656 9.1062 18.5312 8.71362 18.8672 8.36597C19.207 8.01831 19.5781 7.7605 19.9805 7.59253C20.5156 7.36597 21.1328 7.25269 21.832 7.25269C23.0977 7.25269 24.1094 7.64526 24.8672 8.43042C25.6289 9.21558 26.0098 10.3074 26.0098 11.7058C26.0098 13.0925 25.6328 14.1785 24.8789 14.9636C24.125 15.7449 23.1172 16.1355 21.8555 16.1355C20.5781 16.1355 19.5625 15.7468 18.8086 14.9695C18.0547 14.1882 17.6777 13.114 17.6777 11.7468ZM19.4648 11.6882C19.4648 12.6609 19.6895 13.3992 20.1387 13.9031C20.5879 14.4031 21.1582 14.6531 21.8496 14.6531C22.541 14.6531 23.1074 14.405 23.5488 13.9089C23.9941 13.4089 24.2168 12.6609 24.2168 11.6648C24.2168 10.6804 24 9.94604 23.5664 9.46167C23.1367 8.97729 22.5645 8.73511 21.8496 8.73511C21.1348 8.73511 20.5586 8.9812 20.1211 9.47339C19.6836 9.96167 19.4648 10.7 19.4648 11.6882ZM27.3633 7.39917H30.5332C31.248 7.39917 31.793 7.45386 32.168 7.56323C32.6719 7.71167 33.1035 7.97534 33.4629 8.35425C33.8223 8.73315 34.0957 9.198 34.2832 9.74878C34.4707 10.2957 34.5645 10.9714 34.5645 11.7761C34.5645 12.4832 34.4766 13.0925 34.3008 13.6042C34.0859 14.2292 33.7793 14.7351 33.3809 15.1218C33.0801 15.4148 32.6738 15.6433 32.1621 15.8074C31.7793 15.9285 31.2676 15.989 30.627 15.989H27.3633V7.39917ZM29.0977 8.85229V14.5417H30.3926C30.877 14.5417 31.2266 14.5144 31.4414 14.4597C31.7227 14.3894 31.9551 14.2703 32.1387 14.1023C32.3262 13.9343 32.4785 13.6589 32.5957 13.2761C32.7129 12.8894 32.7715 12.364 32.7715 11.7C32.7715 11.0359 32.7129 10.5261 32.5957 10.1707C32.4785 9.81519 32.3145 9.53784 32.1035 9.33862C31.8926 9.1394 31.625 9.00464 31.3008 8.93433C31.0586 8.87964 30.584 8.85229 29.877 8.85229H29.0977ZM39.8906 15.989H38.2441V9.78394C37.6426 10.3464 36.9336 10.7625 36.1172 11.032V9.53784C36.5469 9.39722 37.0137 9.13159 37.5176 8.74097C38.0215 8.34644 38.3672 7.88745 38.5547 7.36401H39.8906V15.989Z" fill="white"/>
<defs>
<linearGradient id="paint0_linear_67_1960" x1="25.5" y1="1.98901" x2="25.5" y2="21.989" gradientUnits="userSpaceOnUse">
<stop stop-color="#2E00AD"/>
<stop offset="1" stop-color="#9BFF9B"/>
</linearGradient>
</defs>
</svg>
