<svg width="51" height="151" viewBox="0 0 51 151" fill="none" xmlns="http://www.w3.org/2000/svg">
<path d="M10.2889 150.011C4.80485 150.011 0.359253 145.565 0.359253 140.081V98.5009C0.359253 93.0169 4.80485 88.5713 10.2889 88.5713C15.7729 88.5713 20.2185 93.0169 20.2185 98.5009V140.081C20.2186 145.565 15.7729 150.011 10.2889 150.011Z" fill="url(#paint0_radial_97_5683)"/>
<path d="M10.2889 88.5713C6.02357 88.5713 2.56577 85.1136 2.56577 80.8483V74.6542C2.56577 70.3889 6.02347 66.9312 10.2888 66.9312C14.5541 66.9312 18.0118 70.3889 18.0118 74.6542V80.8483C18.012 85.1136 14.5543 88.5713 10.2889 88.5713Z" fill="url(#paint1_radial_97_5683)"/>
<path d="M18.8775 21.0353C18.8775 18.5862 17.8471 16.382 16.2026 14.8174C17.8133 13.285 18.8349 11.139 18.8762 8.75019C18.9593 3.94429 14.8277 0.0109863 10.0209 0.0109863H5.10436C3.22436 0.0109863 1.70026 1.53509 1.70026 3.41509V63.527C1.70026 65.407 3.22436 66.9311 5.10436 66.9311H10.0209C14.8277 66.9311 18.9594 62.9978 18.8762 58.1917C18.8349 55.803 17.8133 53.6571 16.2026 52.1247C17.8471 50.5601 18.8775 48.356 18.8775 45.9068C18.8775 43.4576 17.8471 41.2535 16.2026 39.6889C17.8471 38.1243 18.8775 35.9202 18.8775 33.471C18.8775 31.0218 17.8471 28.8177 16.2026 27.2531C17.8472 25.6886 18.8775 23.4844 18.8775 21.0353Z" fill="url(#paint2_linear_97_5683)"/>
<path d="M40.8066 150.011C35.3226 150.011 30.877 145.565 30.877 140.081V98.5009C30.877 93.0169 35.3226 88.5713 40.8066 88.5713C46.2906 88.5713 50.7362 93.0169 50.7362 98.5009V140.081C50.7363 145.565 46.2906 150.011 40.8066 150.011Z" fill="url(#paint3_radial_97_5683)"/>
<path d="M40.8066 88.5713C36.5413 88.5713 33.0835 85.1136 33.0835 80.8483V74.6542C33.0835 70.3889 36.5412 66.9312 40.8065 66.9312C45.0718 66.9312 48.5295 70.3889 48.5295 74.6542V80.8483C48.5297 85.1136 45.072 88.5713 40.8066 88.5713Z" fill="url(#paint4_radial_97_5683)"/>
<path d="M32.218 21.0353C32.218 18.5862 33.2484 16.382 34.8929 14.8174C33.2822 13.285 32.2606 11.139 32.2193 8.75019C32.1361 3.94429 36.2678 0.0109863 41.0746 0.0109863H45.9911C47.8711 0.0109863 49.3952 1.53509 49.3952 3.41509V63.527C49.3952 65.407 47.8711 66.9311 45.9911 66.9311H41.0746C36.2678 66.9311 32.1361 62.9978 32.2193 58.1917C32.2606 55.803 33.2822 53.6571 34.8929 52.1247C33.2484 50.5601 32.218 48.356 32.218 45.9068C32.218 43.4576 33.2484 41.2535 34.8929 39.6889C33.2484 38.1243 32.218 35.9202 32.218 33.471C32.218 31.0218 33.2484 28.8177 34.8929 27.2531C33.2483 25.6886 32.218 23.4844 32.218 21.0353Z" fill="url(#paint5_linear_97_5683)"/>
<defs>
<radialGradient id="paint0_radial_97_5683" cx="0" cy="0" r="1" gradientUnits="userSpaceOnUse" gradientTransform="translate(10.2888 119.235) scale(15.0924 74.9715)">
<stop stop-color="#A3D686"/>
<stop offset="0.1369" stop-color="#819F7A"/>
<stop offset="0.2957" stop-color="#5F676E"/>
<stop offset="0.4429" stop-color="#433B65"/>
<stop offset="0.5737" stop-color="#2F1B5E"/>
<stop offset="0.6834" stop-color="#23075A"/>
<stop offset="0.7585" stop-color="#1F0058"/>
</radialGradient>
<radialGradient id="paint1_radial_97_5683" cx="0" cy="0" r="1" gradientUnits="userSpaceOnUse" gradientTransform="translate(10.2179 77.4431) scale(11.7389 26.4057)">
<stop stop-color="#A3D686"/>
<stop offset="0.1369" stop-color="#819F7A"/>
<stop offset="0.2957" stop-color="#5F676E"/>
<stop offset="0.4429" stop-color="#433B65"/>
<stop offset="0.5737" stop-color="#2F1B5E"/>
<stop offset="0.6834" stop-color="#23075A"/>
<stop offset="0.7585" stop-color="#1F0058"/>
</radialGradient>
<linearGradient id="paint2_linear_97_5683" x1="1.70026" y1="33.471" x2="18.8776" y2="33.471" gradientUnits="userSpaceOnUse">
<stop stop-color="#00156B"/>
<stop offset="1" stop-color="#E5CF9F"/>
</linearGradient>
<radialGradient id="paint3_radial_97_5683" cx="0" cy="0" r="1" gradientUnits="userSpaceOnUse" gradientTransform="translate(40.8065 119.235) scale(15.0924 74.9715)">
<stop stop-color="#A3D686"/>
<stop offset="0.1369" stop-color="#819F7A"/>
<stop offset="0.2957" stop-color="#5F676E"/>
<stop offset="0.4429" stop-color="#433B65"/>
<stop offset="0.5737" stop-color="#2F1B5E"/>
<stop offset="0.6834" stop-color="#23075A"/>
<stop offset="0.7585" stop-color="#1F0058"/>
</radialGradient>
<radialGradient id="paint4_radial_97_5683" cx="0" cy="0" r="1" gradientUnits="userSpaceOnUse" gradientTransform="translate(40.7356 77.4431) scale(11.7389 26.4057)">
<stop stop-color="#A3D686"/>
<stop offset="0.1369" stop-color="#819F7A"/>
<stop offset="0.2957" stop-color="#5F676E"/>
<stop offset="0.4429" stop-color="#433B65"/>
<stop offset="0.5737" stop-color="#2F1B5E"/>
<stop offset="0.6834" stop-color="#23075A"/>
<stop offset="0.7585" stop-color="#1F0058"/>
</radialGradient>
<linearGradient id="paint5_linear_97_5683" x1="49.3951" y1="33.471" x2="32.218" y2="33.471" gradientUnits="userSpaceOnUse">
<stop stop-color="#00156B"/>
<stop offset="1" stop-color="#E5CF9F"/>
</linearGradient>
</defs>
</svg>
