<svg width="47" height="24" viewBox="0 0 47 24" fill="none" xmlns="http://www.w3.org/2000/svg">
<rect x="2" y="1.98901" width="44" height="20" rx="10" fill="url(#paint0_linear_84_2038)"/>
<rect x="2" y="1.98901" width="44" height="20" rx="10" stroke="#172641" stroke-width="3" stroke-linejoin="round"/>
<path d="M12.1348 15.989V8.85229H9.58594V7.39917H16.4121V8.85229H13.8691V15.989H12.1348ZM17.543 15.989V7.39917H21.1934C22.1113 7.39917 22.7773 7.47729 23.1914 7.63354C23.6094 7.78589 23.9434 8.05933 24.1934 8.45386C24.4434 8.84839 24.5684 9.29956 24.5684 9.80737C24.5684 10.4519 24.3789 10.9851 24 11.407C23.6211 11.825 23.0547 12.0886 22.3008 12.198C22.6758 12.4167 22.9844 12.657 23.2266 12.9187C23.4727 13.1804 23.8027 13.6453 24.2168 14.3132L25.2656 15.989H23.1914L21.9375 14.1199C21.4922 13.4519 21.1875 13.032 21.0234 12.8601C20.8594 12.6843 20.6855 12.5652 20.502 12.5027C20.3184 12.4363 20.0273 12.4031 19.6289 12.4031H19.2773V15.989H17.543ZM19.2773 11.032H20.5605C21.3926 11.032 21.9121 10.9968 22.1191 10.9265C22.3262 10.8562 22.4883 10.7351 22.6055 10.5632C22.7227 10.3914 22.7812 10.1765 22.7812 9.9187C22.7812 9.62964 22.7031 9.39722 22.5469 9.22144C22.3945 9.04175 22.1777 8.92847 21.8965 8.88159C21.7559 8.86206 21.334 8.85229 20.6309 8.85229H19.2773V11.032ZM26.1562 15.989V7.39917H27.8906V15.989H26.1562ZM29.5254 15.989V7.39917H32.1211L33.6797 13.2585L35.2207 7.39917H37.8223V15.989H36.2109V9.22729L34.5059 15.989H32.8359L31.1367 9.22729V15.989H29.5254Z" fill="white"/>
<defs>
<linearGradient id="paint0_linear_84_2038" x1="24" y1="1.98901" x2="24" y2="21.989" gradientUnits="userSpaceOnUse">
<stop stop-color="#172641"/>
<stop offset="1" stop-color="#BBD14F"/>
</linearGradient>
</defs>
</svg>
