<svg width="51" height="24" viewBox="0 0 51 24" fill="none" xmlns="http://www.w3.org/2000/svg">
<rect x="2" y="1.98901" width="48" height="20" rx="10" fill="url(#paint0_linear_46_4278)"/>
<rect x="2" y="1.98901" width="48" height="20" rx="10" stroke="#B84384" stroke-width="3" stroke-linejoin="round"/>
<path d="M14.1875 12.8308V11.3835H17.9258V14.8054C17.5625 15.157 17.0352 15.4675 16.3438 15.7371C15.6562 16.0027 14.959 16.1355 14.252 16.1355C13.3535 16.1355 12.5703 15.948 11.9023 15.573C11.2344 15.1941 10.7324 14.655 10.3965 13.9558C10.0605 13.2527 9.89258 12.489 9.89258 11.6648C9.89258 10.7703 10.0801 9.97534 10.4551 9.28003C10.8301 8.58472 11.3789 8.05151 12.1016 7.68042C12.6523 7.39526 13.3379 7.25269 14.1582 7.25269C15.2246 7.25269 16.0566 7.47729 16.6543 7.92651C17.2559 8.37183 17.6426 8.98901 17.8145 9.77808L16.0918 10.1003C15.9707 9.67847 15.7422 9.34644 15.4062 9.10425C15.0742 8.85815 14.6582 8.73511 14.1582 8.73511C13.4004 8.73511 12.7969 8.97534 12.3477 9.45581C11.9023 9.93628 11.6797 10.6492 11.6797 11.5945C11.6797 12.614 11.9062 13.3796 12.3594 13.8914C12.8125 14.3992 13.4062 14.6531 14.1406 14.6531C14.5039 14.6531 14.8672 14.5828 15.2305 14.4421C15.5977 14.2976 15.9121 14.1238 16.1738 13.9207V12.8308H14.1875ZM19.5371 15.989V7.39917H23.1875C24.1055 7.39917 24.7715 7.47729 25.1855 7.63354C25.6035 7.78589 25.9375 8.05933 26.1875 8.45386C26.4375 8.84839 26.5625 9.29956 26.5625 9.80737C26.5625 10.4519 26.373 10.9851 25.9941 11.407C25.6152 11.825 25.0488 12.0886 24.2949 12.198C24.6699 12.4167 24.9785 12.657 25.2207 12.9187C25.4668 13.1804 25.7969 13.6453 26.2109 14.3132L27.2598 15.989H25.1855L23.9316 14.1199C23.4863 13.4519 23.1816 13.032 23.0176 12.8601C22.8535 12.6843 22.6797 12.5652 22.4961 12.5027C22.3125 12.4363 22.0215 12.4031 21.623 12.4031H21.2715V15.989H19.5371ZM21.2715 11.032H22.5547C23.3867 11.032 23.9062 10.9968 24.1133 10.9265C24.3203 10.8562 24.4824 10.7351 24.5996 10.5632C24.7168 10.3914 24.7754 10.1765 24.7754 9.9187C24.7754 9.62964 24.6973 9.39722 24.541 9.22144C24.3887 9.04175 24.1719 8.92847 23.8906 8.88159C23.75 8.86206 23.3281 8.85229 22.625 8.85229H21.2715V11.032ZM28.209 7.39917H31.6426C32.3223 7.39917 32.8281 7.42847 33.1602 7.48706C33.4961 7.54175 33.7949 7.65894 34.0566 7.83862C34.3223 8.01831 34.543 8.25854 34.7188 8.55933C34.8945 8.8562 34.9824 9.19019 34.9824 9.56128C34.9824 9.96362 34.873 10.3328 34.6543 10.6687C34.4395 11.0046 34.1465 11.2566 33.7754 11.4246C34.2988 11.5769 34.7012 11.8367 34.9824 12.2039C35.2637 12.571 35.4043 13.0027 35.4043 13.4988C35.4043 13.8894 35.3125 14.2703 35.1289 14.6414C34.9492 15.0085 34.7012 15.3035 34.3848 15.5261C34.0723 15.7449 33.6855 15.8796 33.2246 15.9304C32.9355 15.9617 32.2383 15.9812 31.1328 15.989H28.209V7.39917ZM29.9434 8.82886V10.8152H31.0801C31.7559 10.8152 32.1758 10.8054 32.3398 10.7859C32.6367 10.7507 32.8691 10.6492 33.0371 10.4812C33.209 10.3093 33.2949 10.0847 33.2949 9.80737C33.2949 9.54175 33.2207 9.3269 33.0723 9.16284C32.9277 8.99487 32.7109 8.89331 32.4219 8.85815C32.25 8.83862 31.7559 8.82886 30.9395 8.82886H29.9434ZM29.9434 12.2449V14.5417H31.5488C32.1738 14.5417 32.5703 14.5242 32.7383 14.489C32.9961 14.4421 33.2051 14.3289 33.3652 14.1492C33.5293 13.9656 33.6113 13.7214 33.6113 13.4167C33.6113 13.1589 33.5488 12.9402 33.4238 12.7605C33.2988 12.5808 33.1172 12.45 32.8789 12.3679C32.6445 12.2859 32.1328 12.2449 31.3438 12.2449H29.9434ZM42.0723 14.4597V15.989H36.3008C36.3633 15.4109 36.5508 14.864 36.8633 14.3484C37.1758 13.8289 37.793 13.1414 38.7148 12.2859C39.457 11.5945 39.9121 11.1257 40.0801 10.8796C40.3066 10.5398 40.4199 10.2039 40.4199 9.87183C40.4199 9.50464 40.3203 9.22339 40.1211 9.02808C39.9258 8.82886 39.6543 8.72925 39.3066 8.72925C38.9629 8.72925 38.6895 8.83276 38.4863 9.03979C38.2832 9.24683 38.166 9.59058 38.1348 10.071L36.4941 9.90698C36.5918 9.00073 36.8984 8.35034 37.4141 7.95581C37.9297 7.56128 38.5742 7.36401 39.3477 7.36401C40.1953 7.36401 40.8613 7.59253 41.3457 8.04956C41.8301 8.50659 42.0723 9.07495 42.0723 9.75464C42.0723 10.1414 42.002 10.5105 41.8613 10.8621C41.7246 11.2097 41.5059 11.575 41.2051 11.9578C41.0059 12.2117 40.6465 12.5769 40.127 13.0535C39.6074 13.53 39.2773 13.8464 39.1367 14.0027C39 14.1589 38.8887 14.3113 38.8027 14.4597H42.0723Z" fill="white"/>
<defs>
<linearGradient id="paint0_linear_46_4278" x1="26" y1="1.98901" x2="26" y2="21.989" gradientUnits="userSpaceOnUse">
<stop stop-color="#B84384"/>
<stop offset="1" stop-color="#00498E"/>
</linearGradient>
</defs>
</svg>
