<svg width="54" height="24" viewBox="0 0 54 24" fill="none" xmlns="http://www.w3.org/2000/svg">
<rect x="2" y="1.98901" width="51" height="20" rx="10" fill="url(#paint0_linear_83_1977)"/>
<rect x="2" y="1.98901" width="51" height="20" rx="10" stroke="#00A181" stroke-width="3" stroke-linejoin="round"/>
<path d="M9.92773 13.1941L11.6152 13.03C11.7168 13.5964 11.9219 14.0125 12.2305 14.2781C12.543 14.5437 12.9629 14.6765 13.4902 14.6765C14.0488 14.6765 14.4688 14.5593 14.75 14.325C15.0352 14.0867 15.1777 13.8093 15.1777 13.4929C15.1777 13.2898 15.1172 13.1179 14.9961 12.9773C14.8789 12.8328 14.6719 12.7078 14.375 12.6023C14.1719 12.532 13.709 12.407 12.9863 12.2273C12.0566 11.9968 11.4043 11.7136 11.0293 11.3777C10.502 10.905 10.2383 10.3289 10.2383 9.64917C10.2383 9.21167 10.3613 8.80347 10.6074 8.42456C10.8574 8.04175 11.2148 7.75073 11.6797 7.55151C12.1484 7.35229 12.7129 7.25269 13.373 7.25269C14.4512 7.25269 15.2617 7.48901 15.8047 7.96167C16.3516 8.43433 16.6387 9.06519 16.666 9.85425L14.9316 9.93042C14.8574 9.48901 14.6973 9.17261 14.4512 8.9812C14.209 8.78589 13.8438 8.68823 13.3555 8.68823C12.8516 8.68823 12.457 8.79175 12.1719 8.99878C11.9883 9.13159 11.8965 9.30933 11.8965 9.53198C11.8965 9.73511 11.9824 9.90894 12.1543 10.0535C12.373 10.2371 12.9043 10.4285 13.748 10.6277C14.5918 10.8269 15.2148 11.0339 15.6172 11.2488C16.0234 11.4597 16.3398 11.7507 16.5664 12.1218C16.7969 12.489 16.9121 12.9441 16.9121 13.4871C16.9121 13.9792 16.7754 14.4402 16.502 14.8699C16.2285 15.2996 15.8418 15.6199 15.3418 15.8308C14.8418 16.0378 14.2188 16.1414 13.4727 16.1414C12.3867 16.1414 11.5527 15.8914 10.9707 15.3914C10.3887 14.8875 10.041 14.155 9.92773 13.1941ZM18.3594 7.39917H20.0938V12.0515C20.0938 12.7898 20.1152 13.2683 20.1582 13.4871C20.2324 13.8386 20.4082 14.1218 20.6855 14.3367C20.9668 14.5476 21.3496 14.6531 21.834 14.6531C22.3262 14.6531 22.6973 14.5535 22.9473 14.3542C23.1973 14.1511 23.3477 13.9031 23.3984 13.6101C23.4492 13.3171 23.4746 12.8308 23.4746 12.1511V7.39917H25.209V11.9109C25.209 12.9421 25.1621 13.6707 25.0684 14.0964C24.9746 14.5222 24.8008 14.8816 24.5469 15.1746C24.2969 15.4675 23.9609 15.7019 23.5391 15.8777C23.1172 16.0496 22.5664 16.1355 21.8867 16.1355C21.0664 16.1355 20.4434 16.0417 20.0176 15.8542C19.5957 15.6628 19.2617 15.4167 19.0156 15.116C18.7695 14.8113 18.6074 14.4929 18.5293 14.1609C18.416 13.6687 18.3594 12.9421 18.3594 11.9812V7.39917ZM27.0195 15.989V7.39917H29.6152L31.1738 13.2585L32.7148 7.39917H35.3164V15.989H33.7051V9.22729L32 15.989H30.3301L28.6309 9.22729V15.989H27.0195ZM36.6875 11.7468C36.6875 10.8718 36.8184 10.1375 37.0801 9.5437C37.2754 9.1062 37.541 8.71362 37.877 8.36597C38.2168 8.01831 38.5879 7.7605 38.9902 7.59253C39.5254 7.36597 40.1426 7.25269 40.8418 7.25269C42.1074 7.25269 43.1191 7.64526 43.877 8.43042C44.6387 9.21558 45.0195 10.3074 45.0195 11.7058C45.0195 13.0925 44.6426 14.1785 43.8887 14.9636C43.1348 15.7449 42.127 16.1355 40.8652 16.1355C39.5879 16.1355 38.5723 15.7468 37.8184 14.9695C37.0645 14.1882 36.6875 13.114 36.6875 11.7468ZM38.4746 11.6882C38.4746 12.6609 38.6992 13.3992 39.1484 13.9031C39.5977 14.4031 40.168 14.6531 40.8594 14.6531C41.5508 14.6531 42.1172 14.405 42.5586 13.9089C43.0039 13.4089 43.2266 12.6609 43.2266 11.6648C43.2266 10.6804 43.0098 9.94604 42.5762 9.46167C42.1465 8.97729 41.5742 8.73511 40.8594 8.73511C40.1445 8.73511 39.5684 8.9812 39.1309 9.47339C38.6934 9.96167 38.4746 10.7 38.4746 11.6882Z" fill="white"/>
<defs>
<linearGradient id="paint0_linear_83_1977" x1="27.5" y1="21.989" x2="27.5" y2="1.98901" gradientUnits="userSpaceOnUse">
<stop stop-color="#FFA0CC"/>
<stop offset="1" stop-color="#00A181"/>
</linearGradient>
</defs>
</svg>
