<svg width="104" height="24" viewBox="0 0 104 24" fill="none" xmlns="http://www.w3.org/2000/svg">
<rect x="1" y="1.98901" width="102" height="20" rx="10" fill="#D83064"/>
<rect x="1" y="1.98901" width="102" height="20" rx="10" stroke="#B50038" stroke-width="3" stroke-linejoin="round"/>
<path d="M9.18555 15.989V7.39917H10.873L14.3887 13.1355V7.39917H16V15.989H14.2598L10.7969 10.3875V15.989H9.18555ZM23.3359 12.8308L25.0176 13.364C24.7598 14.3015 24.3301 14.9988 23.7285 15.4558C23.1309 15.9089 22.3711 16.1355 21.4492 16.1355C20.3086 16.1355 19.3711 15.7468 18.6367 14.9695C17.9023 14.1882 17.5352 13.1218 17.5352 11.7703C17.5352 10.3406 17.9043 9.2312 18.6426 8.44214C19.3809 7.64917 20.3516 7.25269 21.5547 7.25269C22.6055 7.25269 23.459 7.56323 24.1152 8.18433C24.5059 8.55151 24.7988 9.07886 24.9941 9.76636L23.2773 10.1765C23.1758 9.7312 22.9629 9.37964 22.6387 9.12183C22.3184 8.86401 21.9277 8.73511 21.4668 8.73511C20.8301 8.73511 20.3125 8.96362 19.9141 9.42065C19.5195 9.87769 19.3223 10.6179 19.3223 11.6414C19.3223 12.7273 19.5176 13.5007 19.9082 13.9617C20.2988 14.4226 20.8066 14.6531 21.4316 14.6531C21.8926 14.6531 22.2891 14.5066 22.6211 14.2136C22.9531 13.9207 23.1914 13.4597 23.3359 12.8308ZM26.1602 11.7468C26.1602 10.8718 26.291 10.1375 26.5527 9.5437C26.748 9.1062 27.0137 8.71362 27.3496 8.36597C27.6895 8.01831 28.0605 7.7605 28.4629 7.59253C28.998 7.36597 29.6152 7.25269 30.3145 7.25269C31.5801 7.25269 32.5918 7.64526 33.3496 8.43042C34.1113 9.21558 34.4922 10.3074 34.4922 11.7058C34.4922 13.0925 34.1152 14.1785 33.3613 14.9636C32.6074 15.7449 31.5996 16.1355 30.3379 16.1355C29.0605 16.1355 28.0449 15.7468 27.291 14.9695C26.5371 14.1882 26.1602 13.114 26.1602 11.7468ZM27.9473 11.6882C27.9473 12.6609 28.1719 13.3992 28.6211 13.9031C29.0703 14.4031 29.6406 14.6531 30.332 14.6531C31.0234 14.6531 31.5898 14.405 32.0312 13.9089C32.4766 13.4089 32.6992 12.6609 32.6992 11.6648C32.6992 10.6804 32.4824 9.94604 32.0488 9.46167C31.6191 8.97729 31.0469 8.73511 30.332 8.73511C29.6172 8.73511 29.041 8.9812 28.6035 9.47339C28.166 9.96167 27.9473 10.7 27.9473 11.6882ZM35.8574 15.989V7.39917H39.5078C40.4258 7.39917 41.0918 7.47729 41.5059 7.63354C41.9238 7.78589 42.2578 8.05933 42.5078 8.45386C42.7578 8.84839 42.8828 9.29956 42.8828 9.80737C42.8828 10.4519 42.6934 10.9851 42.3145 11.407C41.9355 11.825 41.3691 12.0886 40.6152 12.198C40.9902 12.4167 41.2988 12.657 41.541 12.9187C41.7871 13.1804 42.1172 13.6453 42.5312 14.3132L43.5801 15.989H41.5059L40.252 14.1199C39.8066 13.4519 39.502 13.032 39.3379 12.8601C39.1738 12.6843 39 12.5652 38.8164 12.5027C38.6328 12.4363 38.3418 12.4031 37.9434 12.4031H37.5918V15.989H35.8574ZM37.5918 11.032H38.875C39.707 11.032 40.2266 10.9968 40.4336 10.9265C40.6406 10.8562 40.8027 10.7351 40.9199 10.5632C41.0371 10.3914 41.0957 10.1765 41.0957 9.9187C41.0957 9.62964 41.0176 9.39722 40.8613 9.22144C40.709 9.04175 40.4922 8.92847 40.2109 8.88159C40.0703 8.86206 39.6484 8.85229 38.9453 8.85229H37.5918V11.032ZM48.373 15.989H46.7266V9.78394C46.125 10.3464 45.416 10.7625 44.5996 11.032V9.53784C45.0293 9.39722 45.4961 9.13159 46 8.74097C46.5039 8.34644 46.8496 7.88745 47.0371 7.36401H48.373V15.989ZM50.3125 16.1355L52.4395 7.25269H53.6758L51.5254 16.1355H50.3125ZM54.5605 15.989V7.39917H56.248L59.7637 13.1355V7.39917H61.375V15.989H59.6348L56.1719 10.3875V15.989H54.5605ZM68.7109 12.8308L70.3926 13.364C70.1348 14.3015 69.7051 14.9988 69.1035 15.4558C68.5059 15.9089 67.7461 16.1355 66.8242 16.1355C65.6836 16.1355 64.7461 15.7468 64.0117 14.9695C63.2773 14.1882 62.9102 13.1218 62.9102 11.7703C62.9102 10.3406 63.2793 9.2312 64.0176 8.44214C64.7559 7.64917 65.7266 7.25269 66.9297 7.25269C67.9805 7.25269 68.834 7.56323 69.4902 8.18433C69.8809 8.55151 70.1738 9.07886 70.3691 9.76636L68.6523 10.1765C68.5508 9.7312 68.3379 9.37964 68.0137 9.12183C67.6934 8.86401 67.3027 8.73511 66.8418 8.73511C66.2051 8.73511 65.6875 8.96362 65.2891 9.42065C64.8945 9.87769 64.6973 10.6179 64.6973 11.6414C64.6973 12.7273 64.8926 13.5007 65.2832 13.9617C65.6738 14.4226 66.1816 14.6531 66.8066 14.6531C67.2676 14.6531 67.6641 14.5066 67.9961 14.2136C68.3281 13.9207 68.5664 13.4597 68.7109 12.8308ZM71.5352 11.7468C71.5352 10.8718 71.666 10.1375 71.9277 9.5437C72.123 9.1062 72.3887 8.71362 72.7246 8.36597C73.0645 8.01831 73.4355 7.7605 73.8379 7.59253C74.373 7.36597 74.9902 7.25269 75.6895 7.25269C76.9551 7.25269 77.9668 7.64526 78.7246 8.43042C79.4863 9.21558 79.8672 10.3074 79.8672 11.7058C79.8672 13.0925 79.4902 14.1785 78.7363 14.9636C77.9824 15.7449 76.9746 16.1355 75.7129 16.1355C74.4355 16.1355 73.4199 15.7468 72.666 14.9695C71.9121 14.1882 71.5352 13.114 71.5352 11.7468ZM73.3223 11.6882C73.3223 12.6609 73.5469 13.3992 73.9961 13.9031C74.4453 14.4031 75.0156 14.6531 75.707 14.6531C76.3984 14.6531 76.9648 14.405 77.4062 13.9089C77.8516 13.4089 78.0742 12.6609 78.0742 11.6648C78.0742 10.6804 77.8574 9.94604 77.4238 9.46167C76.9941 8.97729 76.4219 8.73511 75.707 8.73511C74.9922 8.73511 74.416 8.9812 73.9785 9.47339C73.541 9.96167 73.3223 10.7 73.3223 11.6882ZM81.2324 15.989V7.39917H84.8828C85.8008 7.39917 86.4668 7.47729 86.8809 7.63354C87.2988 7.78589 87.6328 8.05933 87.8828 8.45386C88.1328 8.84839 88.2578 9.29956 88.2578 9.80737C88.2578 10.4519 88.0684 10.9851 87.6895 11.407C87.3105 11.825 86.7441 12.0886 85.9902 12.198C86.3652 12.4167 86.6738 12.657 86.916 12.9187C87.1621 13.1804 87.4922 13.6453 87.9062 14.3132L88.9551 15.989H86.8809L85.627 14.1199C85.1816 13.4519 84.877 13.032 84.7129 12.8601C84.5488 12.6843 84.375 12.5652 84.1914 12.5027C84.0078 12.4363 83.7168 12.4031 83.3184 12.4031H82.9668V15.989H81.2324ZM82.9668 11.032H84.25C85.082 11.032 85.6016 10.9968 85.8086 10.9265C86.0156 10.8562 86.1777 10.7351 86.2949 10.5632C86.4121 10.3914 86.4707 10.1765 86.4707 9.9187C86.4707 9.62964 86.3926 9.39722 86.2363 9.22144C86.084 9.04175 85.8672 8.92847 85.5859 8.88159C85.4453 8.86206 85.0234 8.85229 84.3203 8.85229H82.9668V11.032ZM95.0957 14.4597V15.989H89.3242C89.3867 15.4109 89.5742 14.864 89.8867 14.3484C90.1992 13.8289 90.8164 13.1414 91.7383 12.2859C92.4805 11.5945 92.9355 11.1257 93.1035 10.8796C93.3301 10.5398 93.4434 10.2039 93.4434 9.87183C93.4434 9.50464 93.3438 9.22339 93.1445 9.02808C92.9492 8.82886 92.6777 8.72925 92.3301 8.72925C91.9863 8.72925 91.7129 8.83276 91.5098 9.03979C91.3066 9.24683 91.1895 9.59058 91.1582 10.071L89.5176 9.90698C89.6152 9.00073 89.9219 8.35034 90.4375 7.95581C90.9531 7.56128 91.5977 7.36401 92.3711 7.36401C93.2188 7.36401 93.8848 7.59253 94.3691 8.04956C94.8535 8.50659 95.0957 9.07495 95.0957 9.75464C95.0957 10.1414 95.0254 10.5105 94.8848 10.8621C94.748 11.2097 94.5293 11.575 94.2285 11.9578C94.0293 12.2117 93.6699 12.5769 93.1504 13.0535C92.6309 13.53 92.3008 13.8464 92.1602 14.0027C92.0234 14.1589 91.9121 14.3113 91.8262 14.4597H95.0957Z" fill="white"/>
</svg>
