<svg width="40" height="24" viewBox="0 0 40 24" fill="none" xmlns="http://www.w3.org/2000/svg">
<rect x="2" y="1.98901" width="37" height="20" rx="10" fill="url(#paint0_linear_85_2081)"/>
<rect x="2" y="1.98901" width="37" height="20" rx="10" stroke="#E01836" stroke-width="3" stroke-linejoin="round"/>
<path d="M11.2598 15.989L9.20898 7.39917H10.9844L12.2793 13.2996L13.8496 7.39917H15.9121L17.418 13.3992L18.7363 7.39917H20.4824L18.3965 15.989H16.5566L14.8457 9.56714L13.1406 15.989H11.2598ZM27.0215 15.989H25.375V12.8132C25.375 12.1414 25.3398 11.7078 25.2695 11.5125C25.1992 11.3132 25.084 11.1589 24.9238 11.0496C24.7676 10.9402 24.5781 10.8855 24.3555 10.8855C24.0703 10.8855 23.8145 10.9636 23.5879 11.1199C23.3613 11.2761 23.2051 11.4832 23.1191 11.741C23.0371 11.9988 22.9961 12.4753 22.9961 13.1707V15.989H21.3496V9.76636H22.8789V10.6804C23.4219 9.97729 24.1055 9.62573 24.9297 9.62573C25.293 9.62573 25.625 9.69214 25.9258 9.82495C26.2266 9.95386 26.4531 10.1199 26.6055 10.323C26.7617 10.5261 26.8691 10.7566 26.9277 11.0144C26.9902 11.2722 27.0215 11.6414 27.0215 12.1218V15.989ZM31.5508 9.76636V11.0789H30.4258V13.5867C30.4258 14.0945 30.4355 14.3914 30.4551 14.4773C30.4785 14.5593 30.5273 14.6277 30.6016 14.6824C30.6797 14.7371 30.7734 14.7644 30.8828 14.7644C31.0352 14.7644 31.2559 14.7117 31.5449 14.6062L31.6855 15.8835C31.3027 16.0476 30.8691 16.1296 30.3848 16.1296C30.0879 16.1296 29.8203 16.0808 29.582 15.9832C29.3438 15.8816 29.168 15.7527 29.0547 15.5964C28.9453 15.4363 28.8691 15.2214 28.8262 14.9519C28.791 14.7605 28.7734 14.3738 28.7734 13.7917V11.0789H28.0176V9.76636H28.7734V8.53003L30.4258 7.56909V9.76636H31.5508Z" fill="white"/>
<defs>
<linearGradient id="paint0_linear_85_2081" x1="20.5" y1="1.98901" x2="20.5" y2="21.989" gradientUnits="userSpaceOnUse">
<stop stop-color="#E01836"/>
<stop offset="1" stop-color="#85FFCD"/>
</linearGradient>
</defs>
</svg>
