<svg width="42" height="24" viewBox="0 0 42 24" fill="none" xmlns="http://www.w3.org/2000/svg">
<rect x="2" y="1.98901" width="39" height="20" rx="10" fill="url(#paint0_linear_42_2651)"/>
<rect x="2" y="1.98901" width="39" height="20" rx="10" stroke="#00317B" stroke-width="3" stroke-linejoin="round"/>
<path d="M10.0332 15.989V7.39917H16.4023V8.85229H11.7676V10.7566H16.0801V12.2039H11.7676V14.5417H16.5664V15.989H10.0332ZM17.5977 13.1941L19.2852 13.03C19.3867 13.5964 19.5918 14.0125 19.9004 14.2781C20.2129 14.5437 20.6328 14.6765 21.1602 14.6765C21.7188 14.6765 22.1387 14.5593 22.4199 14.325C22.7051 14.0867 22.8477 13.8093 22.8477 13.4929C22.8477 13.2898 22.7871 13.1179 22.666 12.9773C22.5488 12.8328 22.3418 12.7078 22.0449 12.6023C21.8418 12.532 21.3789 12.407 20.6562 12.2273C19.7266 11.9968 19.0742 11.7136 18.6992 11.3777C18.1719 10.905 17.9082 10.3289 17.9082 9.64917C17.9082 9.21167 18.0312 8.80347 18.2773 8.42456C18.5273 8.04175 18.8848 7.75073 19.3496 7.55151C19.8184 7.35229 20.3828 7.25269 21.043 7.25269C22.1211 7.25269 22.9316 7.48901 23.4746 7.96167C24.0215 8.43433 24.3086 9.06519 24.3359 9.85425L22.6016 9.93042C22.5273 9.48901 22.3672 9.17261 22.1211 8.9812C21.8789 8.78589 21.5137 8.68823 21.0254 8.68823C20.5215 8.68823 20.127 8.79175 19.8418 8.99878C19.6582 9.13159 19.5664 9.30933 19.5664 9.53198C19.5664 9.73511 19.6523 9.90894 19.8242 10.0535C20.043 10.2371 20.5742 10.4285 21.418 10.6277C22.2617 10.8269 22.8848 11.0339 23.2871 11.2488C23.6934 11.4597 24.0098 11.7507 24.2363 12.1218C24.4668 12.489 24.582 12.9441 24.582 13.4871C24.582 13.9792 24.4453 14.4402 24.1719 14.8699C23.8984 15.2996 23.5117 15.6199 23.0117 15.8308C22.5117 16.0378 21.8887 16.1414 21.1426 16.1414C20.0566 16.1414 19.2227 15.8914 18.6406 15.3914C18.0586 14.8875 17.7109 14.155 17.5977 13.1941ZM26.0469 15.989V7.39917H29.6973C30.6152 7.39917 31.2812 7.47729 31.6953 7.63354C32.1133 7.78589 32.4473 8.05933 32.6973 8.45386C32.9473 8.84839 33.0723 9.29956 33.0723 9.80737C33.0723 10.4519 32.8828 10.9851 32.5039 11.407C32.125 11.825 31.5586 12.0886 30.8047 12.198C31.1797 12.4167 31.4883 12.657 31.7305 12.9187C31.9766 13.1804 32.3066 13.6453 32.7207 14.3132L33.7695 15.989H31.6953L30.4414 14.1199C29.9961 13.4519 29.6914 13.032 29.5273 12.8601C29.3633 12.6843 29.1895 12.5652 29.0059 12.5027C28.8223 12.4363 28.5312 12.4031 28.1328 12.4031H27.7812V15.989H26.0469ZM27.7812 11.032H29.0645C29.8965 11.032 30.416 10.9968 30.623 10.9265C30.8301 10.8562 30.9922 10.7351 31.1094 10.5632C31.2266 10.3914 31.2852 10.1765 31.2852 9.9187C31.2852 9.62964 31.207 9.39722 31.0508 9.22144C30.8984 9.04175 30.6816 8.92847 30.4004 8.88159C30.2598 8.86206 29.8379 8.85229 29.1348 8.85229H27.7812V11.032Z" fill="white"/>
<defs>
<linearGradient id="paint0_linear_42_2651" x1="21.5" y1="1.98901" x2="21.5" y2="21.989" gradientUnits="userSpaceOnUse">
<stop stop-color="#A476A1"/>
<stop offset="1" stop-color="#00317B"/>
</linearGradient>
</defs>
</svg>
