<svg width="60" height="24" viewBox="0 0 60 24" fill="none" xmlns="http://www.w3.org/2000/svg">
<rect x="2" y="1.98901" width="57" height="20" rx="10" fill="url(#paint0_linear_67_1944)"/>
<rect x="2" y="1.98901" width="57" height="20" rx="10" stroke="#FF74C9" stroke-width="3" stroke-linejoin="round"/>
<path d="M9.58789 13.1941L11.2754 13.03C11.377 13.5964 11.582 14.0125 11.8906 14.2781C12.2031 14.5437 12.623 14.6765 13.1504 14.6765C13.709 14.6765 14.1289 14.5593 14.4102 14.325C14.6953 14.0867 14.8379 13.8093 14.8379 13.4929C14.8379 13.2898 14.7773 13.1179 14.6562 12.9773C14.5391 12.8328 14.332 12.7078 14.0352 12.6023C13.832 12.532 13.3691 12.407 12.6465 12.2273C11.7168 11.9968 11.0645 11.7136 10.6895 11.3777C10.1621 10.905 9.89844 10.3289 9.89844 9.64917C9.89844 9.21167 10.0215 8.80347 10.2676 8.42456C10.5176 8.04175 10.875 7.75073 11.3398 7.55151C11.8086 7.35229 12.373 7.25269 13.0332 7.25269C14.1113 7.25269 14.9219 7.48901 15.4648 7.96167C16.0117 8.43433 16.2988 9.06519 16.3262 9.85425L14.5918 9.93042C14.5176 9.48901 14.3574 9.17261 14.1113 8.9812C13.8691 8.78589 13.5039 8.68823 13.0156 8.68823C12.5117 8.68823 12.1172 8.79175 11.832 8.99878C11.6484 9.13159 11.5566 9.30933 11.5566 9.53198C11.5566 9.73511 11.6426 9.90894 11.8145 10.0535C12.0332 10.2371 12.5645 10.4285 13.4082 10.6277C14.252 10.8269 14.875 11.0339 15.2773 11.2488C15.6836 11.4597 16 11.7507 16.2266 12.1218C16.457 12.489 16.5723 12.9441 16.5723 13.4871C16.5723 13.9792 16.4355 14.4402 16.1621 14.8699C15.8887 15.2996 15.502 15.6199 15.002 15.8308C14.502 16.0378 13.8789 16.1414 13.1328 16.1414C12.0469 16.1414 11.2129 15.8914 10.6309 15.3914C10.0488 14.8875 9.70117 14.155 9.58789 13.1941ZM18.0371 15.989V7.39917H21.6875C22.6055 7.39917 23.2715 7.47729 23.6855 7.63354C24.1035 7.78589 24.4375 8.05933 24.6875 8.45386C24.9375 8.84839 25.0625 9.29956 25.0625 9.80737C25.0625 10.4519 24.873 10.9851 24.4941 11.407C24.1152 11.825 23.5488 12.0886 22.7949 12.198C23.1699 12.4167 23.4785 12.657 23.7207 12.9187C23.9668 13.1804 24.2969 13.6453 24.7109 14.3132L25.7598 15.989H23.6855L22.4316 14.1199C21.9863 13.4519 21.6816 13.032 21.5176 12.8601C21.3535 12.6843 21.1797 12.5652 20.9961 12.5027C20.8125 12.4363 20.5215 12.4031 20.123 12.4031H19.7715V15.989H18.0371ZM19.7715 11.032H21.0547C21.8867 11.032 22.4062 10.9968 22.6133 10.9265C22.8203 10.8562 22.9824 10.7351 23.0996 10.5632C23.2168 10.3914 23.2754 10.1765 23.2754 9.9187C23.2754 9.62964 23.1973 9.39722 23.041 9.22144C22.8887 9.04175 22.6719 8.92847 22.3906 8.88159C22.25 8.86206 21.8281 8.85229 21.125 8.85229H19.7715V11.032ZM30.6992 12.8308V11.3835H34.4375V14.8054C34.0742 15.157 33.5469 15.4675 32.8555 15.7371C32.168 16.0027 31.4707 16.1355 30.7637 16.1355C29.8652 16.1355 29.082 15.948 28.4141 15.573C27.7461 15.1941 27.2441 14.655 26.9082 13.9558C26.5723 13.2527 26.4043 12.489 26.4043 11.6648C26.4043 10.7703 26.5918 9.97534 26.9668 9.28003C27.3418 8.58472 27.8906 8.05151 28.6133 7.68042C29.1641 7.39526 29.8496 7.25269 30.6699 7.25269C31.7363 7.25269 32.5684 7.47729 33.166 7.92651C33.7676 8.37183 34.1543 8.98901 34.3262 9.77808L32.6035 10.1003C32.4824 9.67847 32.2539 9.34644 31.918 9.10425C31.5859 8.85815 31.1699 8.73511 30.6699 8.73511C29.9121 8.73511 29.3086 8.97534 28.8594 9.45581C28.4141 9.93628 28.1914 10.6492 28.1914 11.5945C28.1914 12.614 28.418 13.3796 28.8711 13.8914C29.3242 14.3992 29.918 14.6531 30.6523 14.6531C31.0156 14.6531 31.3789 14.5828 31.7422 14.4421C32.1094 14.2976 32.4238 14.1238 32.6855 13.9207V12.8308H30.6992ZM43.7891 15.989H41.9023L41.1523 14.0378H37.7188L37.0098 15.989H35.1699L38.5156 7.39917H40.3496L43.7891 15.989ZM40.5957 12.5906L39.4121 9.40308L38.252 12.5906H40.5957ZM44.7148 15.989V7.39917H47.498C48.5527 7.39917 49.2402 7.44214 49.5605 7.52808C50.0527 7.65698 50.4648 7.93823 50.7969 8.37183C51.1289 8.80151 51.2949 9.35815 51.2949 10.0417C51.2949 10.5691 51.1992 11.0125 51.0078 11.3718C50.8164 11.7312 50.5723 12.0144 50.2754 12.2214C49.9824 12.4246 49.6836 12.5593 49.3789 12.6257C48.9648 12.7078 48.3652 12.7488 47.5801 12.7488H46.4492V15.989H44.7148ZM46.4492 8.85229V11.2898H47.3984C48.082 11.2898 48.5391 11.2449 48.7695 11.155C49 11.0652 49.1797 10.9246 49.3086 10.7332C49.4414 10.5417 49.5078 10.3191 49.5078 10.0652C49.5078 9.75269 49.416 9.49487 49.2324 9.29175C49.0488 9.08862 48.8164 8.96167 48.5352 8.91089C48.3281 8.87183 47.9121 8.85229 47.2871 8.85229H46.4492Z" fill="white"/>
<defs>
<linearGradient id="paint0_linear_67_1944" x1="30.5" y1="1.98901" x2="30.5" y2="21.989" gradientUnits="userSpaceOnUse">
<stop stop-color="#FF74C9"/>
<stop offset="1" stop-color="#8449FF"/>
</linearGradient>
</defs>
</svg>
