<svg width="47" height="24" viewBox="0 0 47 24" fill="none" xmlns="http://www.w3.org/2000/svg">
<rect x="2" y="1.98901" width="44" height="20" rx="10" fill="url(#paint0_linear_46_4292)"/>
<rect x="2" y="1.98901" width="44" height="20" rx="10" stroke="#002A63" stroke-width="3" stroke-linejoin="round"/>
<path d="M10.1426 15.989V7.39917H11.877V15.989H10.1426ZM13.5293 7.39917H16.6992C17.4141 7.39917 17.959 7.45386 18.334 7.56323C18.8379 7.71167 19.2695 7.97534 19.6289 8.35425C19.9883 8.73315 20.2617 9.198 20.4492 9.74878C20.6367 10.2957 20.7305 10.9714 20.7305 11.7761C20.7305 12.4832 20.6426 13.0925 20.4668 13.6042C20.252 14.2292 19.9453 14.7351 19.5469 15.1218C19.2461 15.4148 18.8398 15.6433 18.3281 15.8074C17.9453 15.9285 17.4336 15.989 16.793 15.989H13.5293V7.39917ZM15.2637 8.85229V14.5417H16.5586C17.043 14.5417 17.3926 14.5144 17.6074 14.4597C17.8887 14.3894 18.1211 14.2703 18.3047 14.1023C18.4922 13.9343 18.6445 13.6589 18.7617 13.2761C18.8789 12.8894 18.9375 12.364 18.9375 11.7C18.9375 11.0359 18.8789 10.5261 18.7617 10.1707C18.6445 9.81519 18.4805 9.53784 18.2695 9.33862C18.0586 9.1394 17.791 9.00464 17.4668 8.93433C17.2246 8.87964 16.75 8.85229 16.043 8.85229H15.2637ZM22.1953 7.39917H23.9297V12.0515C23.9297 12.7898 23.9512 13.2683 23.9941 13.4871C24.0684 13.8386 24.2441 14.1218 24.5215 14.3367C24.8027 14.5476 25.1855 14.6531 25.6699 14.6531C26.1621 14.6531 26.5332 14.5535 26.7832 14.3542C27.0332 14.1511 27.1836 13.9031 27.2344 13.6101C27.2852 13.3171 27.3105 12.8308 27.3105 12.1511V7.39917H29.0449V11.9109C29.0449 12.9421 28.998 13.6707 28.9043 14.0964C28.8105 14.5222 28.6367 14.8816 28.3828 15.1746C28.1328 15.4675 27.7969 15.7019 27.375 15.8777C26.9531 16.0496 26.4023 16.1355 25.7227 16.1355C24.9023 16.1355 24.2793 16.0417 23.8535 15.8542C23.4316 15.6628 23.0977 15.4167 22.8516 15.116C22.6055 14.8113 22.4434 14.4929 22.3652 14.1609C22.252 13.6687 22.1953 12.9421 22.1953 11.9812V7.39917ZM38.625 15.989H36.7383L35.9883 14.0378H32.5547L31.8457 15.989H30.0059L33.3516 7.39917H35.1855L38.625 15.989ZM35.4316 12.5906L34.248 9.40308L33.0879 12.5906H35.4316Z" fill="white"/>
<defs>
<linearGradient id="paint0_linear_46_4292" x1="24" y1="1.98901" x2="24" y2="21.989" gradientUnits="userSpaceOnUse">
<stop stop-color="#ECBFFF"/>
<stop offset="1" stop-color="#002A63"/>
</linearGradient>
</defs>
</svg>
