<svg width="40" height="24" viewBox="0 0 40 24" fill="none" xmlns="http://www.w3.org/2000/svg">
<rect x="2" y="1.98901" width="37" height="20" rx="10" fill="url(#paint0_linear_38_1836)"/>
<rect x="2" y="1.98901" width="37" height="20" rx="10" stroke="#5973B7" stroke-width="3" stroke-linejoin="round"/>
<path d="M15.5254 12.8308L17.207 13.364C16.9492 14.3015 16.5195 14.9988 15.918 15.4558C15.3203 15.9089 14.5605 16.1355 13.6387 16.1355C12.498 16.1355 11.5605 15.7468 10.8262 14.9695C10.0918 14.1882 9.72461 13.1218 9.72461 11.7703C9.72461 10.3406 10.0938 9.2312 10.832 8.44214C11.5703 7.64917 12.541 7.25269 13.7441 7.25269C14.7949 7.25269 15.6484 7.56323 16.3047 8.18433C16.6953 8.55151 16.9883 9.07886 17.1836 9.76636L15.4668 10.1765C15.3652 9.7312 15.1523 9.37964 14.8281 9.12183C14.5078 8.86401 14.1172 8.73511 13.6562 8.73511C13.0195 8.73511 12.502 8.96362 12.1035 9.42065C11.709 9.87769 11.5117 10.6179 11.5117 11.6414C11.5117 12.7273 11.707 13.5007 12.0977 13.9617C12.4883 14.4226 12.9961 14.6531 13.6211 14.6531C14.082 14.6531 14.4785 14.5066 14.8105 14.2136C15.1426 13.9207 15.3809 13.4597 15.5254 12.8308ZM18.2793 13.7097L19.873 13.5164C19.9238 13.9226 20.0605 14.2332 20.2832 14.448C20.5059 14.6628 20.7754 14.7703 21.0918 14.7703C21.4316 14.7703 21.7168 14.6414 21.9473 14.3835C22.1816 14.1257 22.2988 13.7781 22.2988 13.3406C22.2988 12.9265 22.1875 12.5984 21.9648 12.3562C21.7422 12.114 21.4707 11.9929 21.1504 11.9929C20.9395 11.9929 20.6875 12.0339 20.3945 12.116L20.5762 10.7742C21.0215 10.7859 21.3613 10.6902 21.5957 10.4871C21.8301 10.28 21.9473 10.0066 21.9473 9.66675C21.9473 9.37769 21.8613 9.14722 21.6895 8.97534C21.5176 8.80347 21.2891 8.71753 21.0039 8.71753C20.7227 8.71753 20.4824 8.81519 20.2832 9.0105C20.084 9.20581 19.9629 9.49097 19.9199 9.86597L18.4023 9.60815C18.5078 9.08862 18.666 8.67456 18.877 8.36597C19.0918 8.05347 19.3887 7.80933 19.7676 7.63354C20.1504 7.45386 20.5781 7.36401 21.0508 7.36401C21.8594 7.36401 22.5078 7.62183 22.9961 8.13745C23.3984 8.55933 23.5996 9.03589 23.5996 9.56714C23.5996 10.321 23.1875 10.9226 22.3633 11.3718C22.8555 11.4773 23.248 11.7136 23.541 12.0808C23.8379 12.448 23.9863 12.8914 23.9863 13.4109C23.9863 14.1648 23.7109 14.8074 23.1602 15.3386C22.6094 15.8699 21.9238 16.1355 21.1035 16.1355C20.3262 16.1355 19.6816 15.9128 19.1699 15.4675C18.6582 15.0183 18.3613 14.4324 18.2793 13.7097ZM25.2988 15.989V7.39917H26.9453V10.4929C27.4531 9.91479 28.0547 9.62573 28.75 9.62573C29.5078 9.62573 30.1348 9.90112 30.6309 10.4519C31.127 10.9988 31.375 11.7859 31.375 12.8132C31.375 13.8757 31.1211 14.6941 30.6133 15.2683C30.1094 15.8425 29.4961 16.1296 28.7734 16.1296C28.418 16.1296 28.0664 16.0417 27.7188 15.866C27.375 15.6863 27.0781 15.4226 26.8281 15.075V15.989H25.2988ZM26.9336 12.7429C26.9336 13.3875 27.0352 13.864 27.2383 14.1726C27.5234 14.6101 27.9023 14.8289 28.375 14.8289C28.7383 14.8289 29.0469 14.6746 29.3008 14.366C29.5586 14.0535 29.6875 13.5632 29.6875 12.8953C29.6875 12.1843 29.5586 11.6726 29.3008 11.3601C29.043 11.0437 28.7129 10.8855 28.3105 10.8855C27.916 10.8855 27.5879 11.0398 27.3262 11.3484C27.0645 11.6531 26.9336 12.1179 26.9336 12.7429Z" fill="white"/>
<defs>
<linearGradient id="paint0_linear_38_1836" x1="20.5" y1="1.98901" x2="20.5" y2="21.989" gradientUnits="userSpaceOnUse">
<stop stop-color="#5973B7"/>
<stop offset="1" stop-color="#1F2E53"/>
</linearGradient>
</defs>
</svg>
