<svg width="93" height="90" viewBox="0 0 93 90" fill="none" xmlns="http://www.w3.org/2000/svg">
<path d="M8.57986 26.8289C11.1578 27.3011 12.8456 29.0531 12.8456 29.0531C12.8456 29.0531 14.5289 30.8005 14.9076 33.3886C14.9076 33.3886 15.0197 34.1075 13.9586 34.1429C12.8975 34.1783 13.0835 33.4495 13.0835 33.4495C12.9526 32.5106 12.4707 31.4875 11.4349 30.4123C10.3141 29.2489 9.22997 28.7358 8.23307 28.6177C8.23307 28.6177 7.45467 28.7344 7.46197 27.7701C7.46987 26.6967 8.57986 26.8289 8.57986 26.8289Z" fill="#D14A20"/>
<path d="M8.23718 27.4529C9.01728 27.5101 9.80258 27.6827 10.5282 28.0216C11.2586 28.3479 11.9129 28.8409 12.4598 29.4247C12.9955 30.0172 13.4627 30.6797 13.7715 31.4119C13.953 31.7651 14.0594 32.1491 14.1985 32.5166C14.3053 32.8959 14.3915 33.2805 14.4706 33.663C14.1699 32.9377 13.8908 32.2142 13.5063 31.5461C13.1457 30.8669 12.6919 30.2457 12.1782 29.6888C11.6657 29.1285 11.0601 28.6586 10.3949 28.2856C9.72918 27.9079 8.99238 27.6676 8.23718 27.4529Z" fill="url(#paint0_radial_91_5161)"/>
<path d="M17.024 4.1295C19.427 1.5747 22.622 0.949904 22.622 0.949904C22.622 0.949904 25.8087 0.326704 28.9928 1.7807C28.9928 1.7807 29.8822 2.1768 29.1514 3.3952C28.4206 4.6137 27.7364 3.8753 27.7364 3.8753C26.586 3.3406 25.0859 3.1392 23.1251 3.5227C21.0034 3.9376 19.6394 4.7836 18.7826 5.8185C18.7826 5.8185 18.3485 6.7782 17.2698 6.0697C16.0693 5.2812 17.024 4.1295 17.024 4.1295Z" fill="#D14A20"/>
<path d="M17.6444 4.85422C18.2496 4.04252 18.9845 3.30542 19.8592 2.74912C20.7236 2.17892 21.717 1.80762 22.7348 1.61692C23.7543 1.44442 24.8025 1.39542 25.8166 1.56782C26.3284 1.61542 26.8216 1.76642 27.3195 1.87032C27.8079 2.01762 28.2876 2.19122 28.7602 2.37092C27.7592 2.19452 26.7753 1.99572 25.7785 1.95052C24.7862 1.87152 23.7924 1.93472 22.8271 2.10802C21.8588 2.27762 20.9246 2.61172 20.0546 3.07832C19.1792 3.54232 18.4042 4.17932 17.6444 4.85422Z" fill="url(#paint1_radial_91_5161)"/>
<path d="M7.19844 39.6203C4.61924 39.1549 2.92694 37.4073 2.92694 37.4073C2.92694 37.4073 1.23904 35.6644 0.853542 33.0773C0.853542 33.0773 0.739542 32.3587 1.80054 32.3205C2.86154 32.2823 2.67744 33.0116 2.67744 33.0116C2.81084 33.9501 3.29544 34.972 4.33404 36.0445C5.45784 37.205 6.54334 37.7152 7.54054 37.8306C7.54054 37.8306 8.31854 37.7118 8.31394 38.6762C8.30874 39.7496 7.19844 39.6203 7.19844 39.6203Z" fill="#D14A20"/>
<path d="M8.0024 38.7373C7.2206 38.7609 6.4216 38.6702 5.6649 38.408C4.9048 38.1588 4.203 37.7359 3.5988 37.2116C3.0048 36.6775 2.4718 36.0667 2.0891 35.3703C1.8721 35.0377 1.7267 34.6668 1.5504 34.3156C1.405 33.9493 1.2797 33.5756 1.1615 33.2034C1.5354 33.8938 1.8877 34.5847 2.339 35.2096C2.7677 35.848 3.2832 36.419 3.8516 36.92C4.4192 37.4245 5.07 37.8294 5.7702 38.1317C6.4714 38.4387 7.2291 38.6017 8.0024 38.7373Z" fill="url(#paint2_radial_91_5161)"/>
<path d="M8.05225 41.7112C11.6322 42.0791 14.2019 39.5094 14.2019 39.5094C14.2019 39.5094 15.9221 37.7892 16.3461 35.203C16.3461 35.203 16.3816 34.4337 15.5212 34.3781C14.6608 34.3225 14.5268 35.0855 14.5268 35.0855C14.385 36.0309 13.8848 37.0562 12.8167 38.1243C11.421 39.52 10.0983 39.946 8.93165 39.8697C8.93165 39.8697 8.23955 39.424 7.71535 40.5218C7.19115 41.6196 8.05225 41.7112 8.05225 41.7112Z" fill="#D14A20"/>
<path d="M15.4536 35.405C15.2888 36.1696 15.0089 36.9234 14.5727 37.5951C14.1483 38.2732 13.5693 38.8529 12.9153 39.3135C12.2542 39.7619 11.5333 40.1327 10.7654 40.337C10.3904 40.4678 9.99541 40.52 9.61221 40.6068C9.22181 40.66 8.82891 40.692 8.43921 40.7173C9.19921 40.5201 9.95441 40.344 10.6694 40.0558C11.3921 39.7929 12.0701 39.4295 12.6929 38.998C13.3189 38.5681 13.8682 38.0335 14.3298 37.4264C14.7961 36.8195 15.1362 36.1232 15.4536 35.405Z" fill="url(#paint3_radial_91_5161)"/>
<path d="M26.3892 59.5464C27.0513 57.0106 28.9236 55.4574 28.9236 55.4574C28.9236 55.4574 30.791 53.9083 33.4001 53.7227C33.4001 53.7227 34.1253 53.6642 34.0819 54.7251C34.0385 55.786 33.3255 55.5464 33.3255 55.5464C32.3795 55.6073 31.3234 56.012 30.1744 56.9652C28.9311 57.9966 28.339 59.0396 28.1473 60.0251C28.1473 60.0251 28.206 60.81 27.2448 60.7312C26.175 60.6435 26.3892 59.5464 26.3892 59.5464Z" fill="#D14A20"/>
<path d="M27.1227 60.3462C27.1799 59.5661 27.3525 58.7808 27.6914 58.0552C28.0177 57.3248 28.5107 56.6705 29.0945 56.1236C29.687 55.5879 30.3495 55.1207 31.0817 54.8119C31.4349 54.6304 31.8189 54.524 32.1864 54.3849C32.5657 54.2781 32.9503 54.1919 33.3328 54.1128C32.6075 54.4135 31.884 54.6926 31.2159 55.0771C30.5367 55.4377 29.9155 55.8915 29.3586 56.4052C28.7983 56.9177 28.3284 57.5233 27.9554 58.1885C27.5777 58.8542 27.3374 59.5911 27.1227 60.3462Z" fill="url(#paint4_radial_91_5161)"/>
<path d="M35.2919 55.765C37.7774 56.5962 39.2011 58.5688 39.2011 58.5688C39.2011 58.5688 40.6211 60.5362 40.6308 63.1518C40.6308 63.1518 40.6403 63.8793 39.5848 63.7646C38.5293 63.6499 38.8163 62.9546 38.8163 62.9546C38.8192 62.0067 38.4864 60.9258 37.6127 59.7152C36.6673 58.4053 35.6664 57.7444 34.6961 57.4869C34.6961 57.4869 33.9091 57.4926 34.0523 56.5389C34.2117 55.4775 35.2919 55.765 35.2919 55.765Z" fill="#D14A20"/>
<path d="M34.7156 56.1172C35.4856 56.2544 36.2491 56.5069 36.936 56.9186C37.6289 57.3183 38.2291 57.876 38.713 58.513C39.1849 59.1575 39.5815 59.8646 39.8132 60.6246C39.9574 60.9946 40.0238 61.3875 40.1243 61.7673C40.1915 62.1556 40.2376 62.547 40.277 62.9356C40.0525 62.1832 39.8494 61.4348 39.5357 60.7307C39.2469 60.018 38.8594 59.3534 38.4057 58.7466C37.9535 58.1365 37.3995 57.6068 36.7762 57.1674C36.1529 56.7233 35.4447 56.4084 34.7156 56.1172Z" fill="url(#paint5_radial_91_5161)"/>
<path d="M32.7581 69.4705C30.2772 68.6258 28.8642 66.6454 28.8642 66.6454C28.8642 66.6454 27.455 64.6703 27.4595 62.0546C27.4595 62.0546 27.4539 61.3271 28.5088 61.4475C29.5637 61.5679 29.2729 62.2616 29.2729 62.2616C29.2649 63.2095 29.5917 64.2922 30.4588 65.5076C31.3971 66.8226 32.3943 67.489 33.3632 67.7518C33.3632 67.7518 34.1503 67.7504 34.0018 68.7032C33.8367 69.7639 32.7581 69.4705 32.7581 69.4705Z" fill="#D14A20"/>
<path d="M32.7475 68.8306C31.9976 68.6084 31.2671 68.2723 30.6304 67.7865C29.9864 67.312 29.4522 66.6908 29.0424 66.0038C28.6453 65.3107 28.3301 64.5638 28.1846 63.7826C28.0826 63.3988 28.0605 63.001 28.0029 62.6123C27.9794 62.2189 27.9773 61.8248 27.9815 61.4343C28.1206 62.2071 28.239 62.9734 28.4722 63.7082C28.6797 64.4487 28.9906 65.1523 29.3738 65.806C29.7551 66.4627 30.2465 67.0509 30.8169 67.5571C31.3869 68.0679 32.0555 68.4598 32.7475 68.8306Z" fill="url(#paint6_radial_91_5161)"/>
<path d="M92.523 86.653C89.9415 89.0273 86.7096 89.4194 86.7096 89.4194C86.7096 89.4194 83.4862 89.8105 80.4155 88.13C80.4155 88.13 79.557 87.6706 80.3741 86.5082C81.1912 85.3458 81.8201 86.1317 81.8201 86.1317C82.9288 86.7482 84.4104 87.0575 86.3938 86.8169C88.54 86.5565 89.9616 85.8115 90.891 84.8412C90.891 84.8412 91.3934 83.9154 92.418 84.7001C93.5586 85.5734 92.523 86.653 92.523 86.653Z" fill="#D14A20"/>
<path d="M91.7412 85.887C91.3011 86.5336 90.7585 87.1271 90.1019 87.5855C89.4538 88.0544 88.6994 88.374 87.9202 88.5552C87.1391 88.7223 86.3317 88.7951 85.5433 88.6958C85.1467 88.6761 84.761 88.576 84.3732 88.5124C83.9913 88.415 83.6153 88.297 83.2446 88.174C84.023 88.2768 84.789 88.3974 85.5599 88.3991C86.3284 88.427 87.0933 88.3451 87.8326 88.1792C88.5743 88.016 89.2841 87.7271 89.9401 87.3379C90.6003 86.9508 91.1773 86.4332 91.7412 85.887Z" fill="url(#paint7_radial_91_5161)"/>
<path d="M79.7633 47.7962C78.4736 44.5346 79.2675 41.3773 79.2675 41.3773C79.2675 41.3773 80.0593 38.2283 82.7298 35.9653C82.7298 35.9653 83.4667 35.3289 84.2584 36.5087C85.0502 37.6885 84.0909 37.9935 84.0909 37.9935C83.1176 38.8071 82.2971 40.079 81.8099 42.0167C81.2827 44.1133 81.4679 45.7076 82.04 46.9233C82.04 46.9233 82.7238 47.7244 81.6237 48.3992C80.3993 49.1502 79.7633 47.7962 79.7633 47.7962Z" fill="#D14A20"/>
<path d="M80.8941 46.08C80.4947 45.4075 80.1869 44.6646 80.0496 43.8757C79.8993 43.09 79.9293 42.2714 80.0952 41.4888C80.2746 40.7104 80.5505 39.9481 80.9744 39.2759C81.1602 38.9249 81.4143 38.618 81.6361 38.2936C81.8861 37.9889 82.1522 37.6983 82.4206 37.4146C81.9978 38.0762 81.564 38.719 81.2361 39.4166C80.8854 40.101 80.6357 40.8286 80.4729 41.5686C80.3066 42.3096 80.2677 43.075 80.3424 43.834C80.4136 44.5961 80.6381 45.3378 80.8941 46.08Z" fill="url(#paint8_radial_91_5161)"/>
<defs>
<radialGradient id="paint0_radial_91_5161" cx="0" cy="0" r="1" gradientUnits="userSpaceOnUse" gradientTransform="translate(10.1923 31.8279) rotate(47.7398) scale(5.17371 3.2399)">
<stop offset="0.9218" stop-color="#F4A089" stop-opacity="0"/>
<stop offset="0.9642" stop-color="#F4A089"/>
<stop offset="1" stop-color="#F4A089" stop-opacity="0"/>
</radialGradient>
<radialGradient id="paint1_radial_91_5161" cx="0" cy="0" r="1" gradientUnits="userSpaceOnUse" gradientTransform="translate(23.7943 5.76029) rotate(-9.74113) scale(6.69722 4.19397)">
<stop offset="0.9218" stop-color="#F4A089" stop-opacity="0"/>
<stop offset="0.9642" stop-color="#F4A089"/>
<stop offset="1" stop-color="#F4A089" stop-opacity="0"/>
</radialGradient>
<radialGradient id="paint2_radial_91_5161" cx="0" cy="0" r="1" gradientUnits="userSpaceOnUse" gradientTransform="translate(5.65422 34.6081) rotate(-138.178) scale(5.17356 3.23972)">
<stop offset="0.9218" stop-color="#F4A089" stop-opacity="0"/>
<stop offset="0.9642" stop-color="#F4A089"/>
<stop offset="1" stop-color="#F4A089" stop-opacity="0"/>
</radialGradient>
<radialGradient id="paint3_radial_91_5161" cx="0" cy="0" r="1" gradientUnits="userSpaceOnUse" gradientTransform="translate(10.854 36.7851) rotate(145.709) scale(5.17377 3.23995)">
<stop offset="0.9218" stop-color="#F4A089" stop-opacity="0"/>
<stop offset="0.9642" stop-color="#F4A089"/>
<stop offset="1" stop-color="#F4A089" stop-opacity="0"/>
</radialGradient>
<radialGradient id="paint4_radial_91_5161" cx="0" cy="0" r="1" gradientUnits="userSpaceOnUse" gradientTransform="translate(31.5034 58.3676) rotate(-42.2602) scale(5.17371 3.2399)">
<stop offset="0.9218" stop-color="#F4A089" stop-opacity="0"/>
<stop offset="0.9642" stop-color="#F4A089"/>
<stop offset="1" stop-color="#F4A089" stop-opacity="0"/>
</radialGradient>
<radialGradient id="paint5_radial_91_5161" cx="0" cy="0" r="1" gradientUnits="userSpaceOnUse" gradientTransform="translate(36.2479 60.6964) rotate(53.6458) scale(5.17391 3.23969)">
<stop offset="0.9218" stop-color="#F4A089" stop-opacity="0"/>
<stop offset="0.9642" stop-color="#F4A089"/>
<stop offset="1" stop-color="#F4A089" stop-opacity="0"/>
</radialGradient>
<radialGradient id="paint6_radial_91_5161" cx="0" cy="0" r="1" gradientUnits="userSpaceOnUse" gradientTransform="translate(31.7507 64.1287) rotate(-119.947) scale(5.17376 3.2398)">
<stop offset="0.9218" stop-color="#F4A089" stop-opacity="0"/>
<stop offset="0.9642" stop-color="#F4A089"/>
<stop offset="1" stop-color="#F4A089" stop-opacity="0"/>
</radialGradient>
<radialGradient id="paint7_radial_91_5161" cx="0" cy="0" r="1" gradientUnits="userSpaceOnUse" gradientTransform="translate(86.9148 85.3858) rotate(167.784) scale(5.17392 3.23966)">
<stop offset="0.9218" stop-color="#F4A089" stop-opacity="0"/>
<stop offset="0.9642" stop-color="#F4A089"/>
<stop offset="1" stop-color="#F4A089" stop-opacity="0"/>
</radialGradient>
<radialGradient id="paint8_radial_91_5161" cx="0" cy="0" r="1" gradientUnits="userSpaceOnUse" gradientTransform="translate(83.3777 41.9359) rotate(-77.1617) scale(5.17369 3.23961)">
<stop offset="0.9218" stop-color="#F4A089" stop-opacity="0"/>
<stop offset="0.9642" stop-color="#F4A089"/>
<stop offset="1" stop-color="#F4A089" stop-opacity="0"/>
</radialGradient>
</defs>
</svg>
