<svg width="60" height="24" viewBox="0 0 60 24" fill="none" xmlns="http://www.w3.org/2000/svg">
<rect x="2" y="1.98901" width="57" height="20" rx="10" fill="url(#paint0_linear_50_1842)"/>
<rect x="2" y="1.98901" width="57" height="20" rx="10" stroke="#046B62" stroke-width="3" stroke-linejoin="round"/>
<path d="M10.3379 15.989V7.39917H12.9336L14.4922 13.2585L16.0332 7.39917H18.6348V15.989H17.0234V9.22729L15.3184 15.989H13.6484L11.9492 9.22729V15.989H10.3379ZM28.1035 15.989H26.2168L25.4668 14.0378H22.0332L21.3242 15.989H19.4844L22.8301 7.39917H24.6641L28.1035 15.989ZM24.9102 12.5906L23.7266 9.40308L22.5664 12.5906H24.9102ZM29.0293 15.989V7.39917H31.8125C32.8672 7.39917 33.5547 7.44214 33.875 7.52808C34.3672 7.65698 34.7793 7.93823 35.1113 8.37183C35.4434 8.80151 35.6094 9.35815 35.6094 10.0417C35.6094 10.5691 35.5137 11.0125 35.3223 11.3718C35.1309 11.7312 34.8867 12.0144 34.5898 12.2214C34.2969 12.4246 33.998 12.5593 33.6934 12.6257C33.2793 12.7078 32.6797 12.7488 31.8945 12.7488H30.7637V15.989H29.0293ZM30.7637 8.85229V11.2898H31.7129C32.3965 11.2898 32.8535 11.2449 33.084 11.155C33.3145 11.0652 33.4941 10.9246 33.623 10.7332C33.7559 10.5417 33.8223 10.3191 33.8223 10.0652C33.8223 9.75269 33.7305 9.49487 33.5469 9.29175C33.3633 9.08862 33.1309 8.96167 32.8496 8.91089C32.6426 8.87183 32.2266 8.85229 31.6016 8.85229H30.7637ZM37.0566 15.989V7.39917H38.791V11.2136L42.2949 7.39917H44.627L41.3926 10.7449L44.8027 15.989H42.5586L40.1973 11.9578L38.791 13.3933V15.989H37.0566ZM46.7539 11.3542C46.3281 11.1746 46.0176 10.9285 45.8223 10.616C45.6309 10.2996 45.5352 9.95386 45.5352 9.57886C45.5352 8.93823 45.7578 8.40894 46.2031 7.99097C46.6523 7.573 47.2891 7.36401 48.1133 7.36401C48.9297 7.36401 49.5625 7.573 50.0117 7.99097C50.4648 8.40894 50.6914 8.93823 50.6914 9.57886C50.6914 9.97729 50.5879 10.3328 50.3809 10.6453C50.1738 10.9539 49.8828 11.1902 49.5078 11.3542C49.9844 11.5457 50.3457 11.825 50.5918 12.1921C50.8418 12.5593 50.9668 12.9832 50.9668 13.4636C50.9668 14.2566 50.7129 14.9011 50.2051 15.3972C49.7012 15.8933 49.0293 16.1414 48.1895 16.1414C47.4082 16.1414 46.7578 15.9363 46.2383 15.5261C45.625 15.0417 45.3184 14.3777 45.3184 13.5339C45.3184 13.0691 45.4336 12.6433 45.6641 12.2566C45.8945 11.866 46.2578 11.5652 46.7539 11.3542ZM47.0938 9.69604C47.0938 10.0242 47.1855 10.28 47.3691 10.4636C47.5566 10.6472 47.8047 10.739 48.1133 10.739C48.4258 10.739 48.6758 10.6472 48.8633 10.4636C49.0508 10.2761 49.1445 10.0183 49.1445 9.69019C49.1445 9.38159 49.0508 9.1355 48.8633 8.9519C48.6797 8.7644 48.4355 8.67065 48.1309 8.67065C47.8145 8.67065 47.5625 8.7644 47.375 8.9519C47.1875 9.1394 47.0938 9.38745 47.0938 9.69604ZM46.9414 13.3757C46.9414 13.8289 47.0566 14.1824 47.2871 14.4363C47.5215 14.6902 47.8125 14.8171 48.1602 14.8171C48.5 14.8171 48.7812 14.696 49.0039 14.4539C49.2266 14.2078 49.3379 13.8542 49.3379 13.3933C49.3379 12.991 49.2246 12.6687 48.998 12.4265C48.7715 12.1804 48.4844 12.0574 48.1367 12.0574C47.7344 12.0574 47.4336 12.196 47.2344 12.4734C47.0391 12.7507 46.9414 13.0515 46.9414 13.3757Z" fill="white"/>
<defs>
<linearGradient id="paint0_linear_50_1842" x1="30.5" y1="1.98901" x2="30.5" y2="21.989" gradientUnits="userSpaceOnUse">
<stop stop-color="#ABB9FF"/>
<stop offset="1" stop-color="#046B62"/>
</linearGradient>
</defs>
</svg>
