<svg width="54" height="24" viewBox="0 0 54 24" fill="none" xmlns="http://www.w3.org/2000/svg">
<rect x="2" y="1.98901" width="51" height="20" rx="10" fill="url(#paint0_linear_84_2037)"/>
<rect x="2" y="1.98901" width="51" height="20" rx="10" stroke="#172641" stroke-width="3" stroke-linejoin="round"/>
<path d="M12.2949 15.989V8.85229H9.74609V7.39917H16.5723V8.85229H14.0293V15.989H12.2949ZM17.7031 15.989V7.39917H21.3535C22.2715 7.39917 22.9375 7.47729 23.3516 7.63354C23.7695 7.78589 24.1035 8.05933 24.3535 8.45386C24.6035 8.84839 24.7285 9.29956 24.7285 9.80737C24.7285 10.4519 24.5391 10.9851 24.1602 11.407C23.7812 11.825 23.2148 12.0886 22.4609 12.198C22.8359 12.4167 23.1445 12.657 23.3867 12.9187C23.6328 13.1804 23.9629 13.6453 24.377 14.3132L25.4258 15.989H23.3516L22.0977 14.1199C21.6523 13.4519 21.3477 13.032 21.1836 12.8601C21.0195 12.6843 20.8457 12.5652 20.6621 12.5027C20.4785 12.4363 20.1875 12.4031 19.7891 12.4031H19.4375V15.989H17.7031ZM19.4375 11.032H20.7207C21.5527 11.032 22.0723 10.9968 22.2793 10.9265C22.4863 10.8562 22.6484 10.7351 22.7656 10.5632C22.8828 10.3914 22.9414 10.1765 22.9414 9.9187C22.9414 9.62964 22.8633 9.39722 22.707 9.22144C22.5547 9.04175 22.3379 8.92847 22.0566 8.88159C21.916 8.86206 21.4941 8.85229 20.791 8.85229H19.4375V11.032ZM26.3164 15.989V7.39917H28.0508V15.989H26.3164ZM29.6855 15.989V7.39917H32.2812L33.8398 13.2585L35.3809 7.39917H37.9824V15.989H36.3711V9.22729L34.666 15.989H32.9961L31.2969 9.22729V15.989H29.6855ZM39.3652 13.78L41.0059 13.6101C41.0527 13.9812 41.1914 14.2761 41.4219 14.4949C41.6523 14.7097 41.918 14.8171 42.2188 14.8171C42.5625 14.8171 42.8535 14.6785 43.0918 14.4011C43.3301 14.1199 43.4492 13.698 43.4492 13.1355C43.4492 12.6082 43.3301 12.2136 43.0918 11.9519C42.8574 11.6863 42.5508 11.5535 42.1719 11.5535C41.6992 11.5535 41.2754 11.7625 40.9004 12.1804L39.5645 11.9871L40.4082 7.51636H44.7617V9.05737H41.6562L41.3984 10.5164C41.7656 10.3328 42.1406 10.241 42.5234 10.241C43.2539 10.241 43.873 10.5066 44.3809 11.0378C44.8887 11.5691 45.1426 12.2585 45.1426 13.1062C45.1426 13.8132 44.9375 14.4441 44.5273 14.9988C43.9688 15.7566 43.1934 16.1355 42.2012 16.1355C41.4082 16.1355 40.7617 15.9226 40.2617 15.4968C39.7617 15.071 39.4629 14.4988 39.3652 13.78Z" fill="white"/>
<defs>
<linearGradient id="paint0_linear_84_2037" x1="27.5" y1="1.98901" x2="27.5" y2="21.989" gradientUnits="userSpaceOnUse">
<stop stop-color="#F8B12E"/>
<stop offset="1" stop-color="#172641"/>
</linearGradient>
</defs>
</svg>
