<svg width="89" height="24" viewBox="0 0 89 24" fill="none" xmlns="http://www.w3.org/2000/svg">
<rect x="1" y="1.98901" width="87" height="20" rx="10" fill="url(#paint0_linear_50_1848)"/>
<rect x="1" y="1.98901" width="87" height="20" rx="10" stroke="#0053CC" stroke-width="3" stroke-linejoin="round"/>
<path d="M9.30859 15.989V7.39917H11.9043L13.4629 13.2585L15.0039 7.39917H17.6055V15.989H15.9941V9.22729L14.2891 15.989H12.6191L10.9199 9.22729V15.989H9.30859ZM27.0742 15.989H25.1875L24.4375 14.0378H21.0039L20.2949 15.989H18.4551L21.8008 7.39917H23.6348L27.0742 15.989ZM23.8809 12.5906L22.6973 9.40308L21.5371 12.5906H23.8809ZM28 15.989V7.39917H30.7832C31.8379 7.39917 32.5254 7.44214 32.8457 7.52808C33.3379 7.65698 33.75 7.93823 34.082 8.37183C34.4141 8.80151 34.5801 9.35815 34.5801 10.0417C34.5801 10.5691 34.4844 11.0125 34.293 11.3718C34.1016 11.7312 33.8574 12.0144 33.5605 12.2214C33.2676 12.4246 32.9688 12.5593 32.6641 12.6257C32.25 12.7078 31.6504 12.7488 30.8652 12.7488H29.7344V15.989H28ZM29.7344 8.85229V11.2898H30.6836C31.3672 11.2898 31.8242 11.2449 32.0547 11.155C32.2852 11.0652 32.4648 10.9246 32.5938 10.7332C32.7266 10.5417 32.793 10.3191 32.793 10.0652C32.793 9.75269 32.7012 9.49487 32.5176 9.29175C32.334 9.08862 32.1016 8.96167 31.8203 8.91089C31.6133 8.87183 31.1973 8.85229 30.5723 8.85229H29.7344ZM35.582 13.7097L37.1758 13.5164C37.2266 13.9226 37.3633 14.2332 37.5859 14.448C37.8086 14.6628 38.0781 14.7703 38.3945 14.7703C38.7344 14.7703 39.0195 14.6414 39.25 14.3835C39.4844 14.1257 39.6016 13.7781 39.6016 13.3406C39.6016 12.9265 39.4902 12.5984 39.2676 12.3562C39.0449 12.114 38.7734 11.9929 38.4531 11.9929C38.2422 11.9929 37.9902 12.0339 37.6973 12.116L37.8789 10.7742C38.3242 10.7859 38.6641 10.6902 38.8984 10.4871C39.1328 10.28 39.25 10.0066 39.25 9.66675C39.25 9.37769 39.1641 9.14722 38.9922 8.97534C38.8203 8.80347 38.5918 8.71753 38.3066 8.71753C38.0254 8.71753 37.7852 8.81519 37.5859 9.0105C37.3867 9.20581 37.2656 9.49097 37.2227 9.86597L35.7051 9.60815C35.8105 9.08862 35.9688 8.67456 36.1797 8.36597C36.3945 8.05347 36.6914 7.80933 37.0703 7.63354C37.4531 7.45386 37.8809 7.36401 38.3535 7.36401C39.1621 7.36401 39.8105 7.62183 40.2988 8.13745C40.7012 8.55933 40.9023 9.03589 40.9023 9.56714C40.9023 10.321 40.4902 10.9226 39.666 11.3718C40.1582 11.4773 40.5508 11.7136 40.8438 12.0808C41.1406 12.448 41.2891 12.8914 41.2891 13.4109C41.2891 14.1648 41.0137 14.8074 40.4629 15.3386C39.9121 15.8699 39.2266 16.1355 38.4062 16.1355C37.6289 16.1355 36.9844 15.9128 36.4727 15.4675C35.9609 15.0183 35.6641 14.4324 35.582 13.7097ZM42.707 15.989V7.39917H44.4414V11.2136L47.9453 7.39917H50.2773L47.043 10.7449L50.4531 15.989H48.209L45.8477 11.9578L44.4414 13.3933V15.989H42.707ZM55.2051 15.989H53.5586V9.78394C52.957 10.3464 52.248 10.7625 51.4316 11.032V9.53784C51.8613 9.39722 52.3281 9.13159 52.832 8.74097C53.3359 8.34644 53.6816 7.88745 53.8691 7.36401H55.2051V15.989ZM63.25 9.50269L61.6562 9.67847C61.6172 9.35034 61.5156 9.10815 61.3516 8.9519C61.1875 8.79565 60.9746 8.71753 60.7129 8.71753C60.3652 8.71753 60.0703 8.87378 59.8281 9.18628C59.5898 9.49878 59.4395 10.1492 59.377 11.1375C59.7871 10.6531 60.2969 10.4109 60.9062 10.4109C61.5938 10.4109 62.1816 10.6726 62.6699 11.196C63.1621 11.7195 63.4082 12.3953 63.4082 13.2234C63.4082 14.1023 63.1504 14.8074 62.6348 15.3386C62.1191 15.8699 61.457 16.1355 60.6484 16.1355C59.7812 16.1355 59.0684 15.7996 58.5098 15.1277C57.9512 14.4519 57.6719 13.3464 57.6719 11.8113C57.6719 10.2371 57.9629 9.10229 58.5449 8.40698C59.127 7.71167 59.8828 7.36401 60.8125 7.36401C61.4648 7.36401 62.0039 7.54761 62.4297 7.91479C62.8594 8.27808 63.1328 8.80737 63.25 9.50269ZM59.5176 13.0945C59.5176 13.6296 59.6406 14.0437 59.8867 14.3367C60.1328 14.6257 60.4141 14.7703 60.7305 14.7703C61.0352 14.7703 61.2891 14.6511 61.4922 14.4128C61.6953 14.1746 61.7969 13.7839 61.7969 13.241C61.7969 12.6824 61.6875 12.2742 61.4688 12.0164C61.25 11.7546 60.9766 11.6238 60.6484 11.6238C60.332 11.6238 60.0645 11.7488 59.8457 11.9988C59.627 12.2449 59.5176 12.6101 59.5176 13.0945ZM64.6621 14.3425H66.3086V15.5203C66.3086 15.9968 66.2676 16.3718 66.1855 16.6453C66.1035 16.9226 65.9473 17.1707 65.7168 17.3894C65.4902 17.6082 65.2012 17.78 64.8496 17.905L64.5273 17.2253C64.8594 17.116 65.0957 16.9656 65.2363 16.7742C65.377 16.5828 65.4512 16.321 65.459 15.989H64.6621V14.3425ZM71.9043 15.989H70.2578V9.78394C69.6562 10.3464 68.9473 10.7625 68.1309 11.032V9.53784C68.5605 9.39722 69.0273 9.13159 69.5312 8.74097C70.0352 8.34644 70.3809 7.88745 70.5684 7.36401H71.9043V15.989ZM74.3711 9.04565V7.51636H80.002V8.71167C79.5371 9.1687 79.0645 9.82495 78.584 10.6804C78.1035 11.5359 77.7363 12.446 77.4824 13.4109C77.2324 14.3718 77.1094 15.2312 77.1133 15.989H75.5254C75.5527 14.8015 75.7969 13.5906 76.2578 12.3562C76.7227 11.1218 77.3418 10.0183 78.1152 9.04565H74.3711Z" fill="white"/>
<defs>
<linearGradient id="paint0_linear_50_1848" x1="44.5" y1="1.98901" x2="44.5" y2="21.989" gradientUnits="userSpaceOnUse">
<stop stop-color="#0053CC"/>
<stop offset="1" stop-color="#559645"/>
</linearGradient>
</defs>
</svg>
