<svg width="49" height="24" viewBox="0 0 49 24" fill="none" xmlns="http://www.w3.org/2000/svg">
<rect x="2" y="1.98901" width="46" height="20" rx="10" fill="url(#paint0_linear_45_4261)"/>
<rect x="2" y="1.98901" width="46" height="20" rx="10" stroke="#55992A" stroke-width="3" stroke-linejoin="round"/>
<path d="M14.1895 12.8308V11.3835H17.9277V14.8054C17.5645 15.157 17.0371 15.4675 16.3457 15.7371C15.6582 16.0027 14.9609 16.1355 14.2539 16.1355C13.3555 16.1355 12.5723 15.948 11.9043 15.573C11.2363 15.1941 10.7344 14.655 10.3984 13.9558C10.0625 13.2527 9.89453 12.489 9.89453 11.6648C9.89453 10.7703 10.082 9.97534 10.457 9.28003C10.832 8.58472 11.3809 8.05151 12.1035 7.68042C12.6543 7.39526 13.3398 7.25269 14.1602 7.25269C15.2266 7.25269 16.0586 7.47729 16.6562 7.92651C17.2578 8.37183 17.6445 8.98901 17.8164 9.77808L16.0938 10.1003C15.9727 9.67847 15.7441 9.34644 15.4082 9.10425C15.0762 8.85815 14.6602 8.73511 14.1602 8.73511C13.4023 8.73511 12.7988 8.97534 12.3496 9.45581C11.9043 9.93628 11.6816 10.6492 11.6816 11.5945C11.6816 12.614 11.9082 13.3796 12.3613 13.8914C12.8145 14.3992 13.4082 14.6531 14.1426 14.6531C14.5059 14.6531 14.8691 14.5828 15.2324 14.4421C15.5996 14.2976 15.9141 14.1238 16.1758 13.9207V12.8308H14.1895ZM19.5332 15.989V7.39917H25.9023V8.85229H21.2676V10.7566H25.5801V12.2039H21.2676V14.5417H26.0664V15.989H19.5332ZM29.4707 15.989V8.85229H26.9219V7.39917H33.748V8.85229H31.2051V15.989H29.4707ZM38.7227 15.989H37.0762V9.78394C36.4746 10.3464 35.7656 10.7625 34.9492 11.032V9.53784C35.3789 9.39722 35.8457 9.13159 36.3496 8.74097C36.8535 8.34644 37.1992 7.88745 37.3867 7.36401H38.7227V15.989Z" fill="white"/>
<defs>
<linearGradient id="paint0_linear_45_4261" x1="25" y1="1.98901" x2="25" y2="21.989" gradientUnits="userSpaceOnUse">
<stop stop-color="#55992A"/>
<stop offset="1" stop-color="#C7722C"/>
</linearGradient>
</defs>
</svg>
