<svg width="52" height="24" viewBox="0 0 52 24" fill="none" xmlns="http://www.w3.org/2000/svg">
<rect x="2" y="1.98901" width="49" height="20" rx="10" fill="url(#paint0_linear_45_4271)"/>
<rect x="2" y="1.98901" width="49" height="20" rx="10" stroke="#F05DAF" stroke-width="3" stroke-linejoin="round"/>
<path d="M14.0254 12.8308V11.3835H17.7637V14.8054C17.4004 15.157 16.873 15.4675 16.1816 15.7371C15.4941 16.0027 14.7969 16.1355 14.0898 16.1355C13.1914 16.1355 12.4082 15.948 11.7402 15.573C11.0723 15.1941 10.5703 14.655 10.2344 13.9558C9.89844 13.2527 9.73047 12.489 9.73047 11.6648C9.73047 10.7703 9.91797 9.97534 10.293 9.28003C10.668 8.58472 11.2168 8.05151 11.9395 7.68042C12.4902 7.39526 13.1758 7.25269 13.9961 7.25269C15.0625 7.25269 15.8945 7.47729 16.4922 7.92651C17.0938 8.37183 17.4805 8.98901 17.6523 9.77808L15.9297 10.1003C15.8086 9.67847 15.5801 9.34644 15.2441 9.10425C14.9121 8.85815 14.4961 8.73511 13.9961 8.73511C13.2383 8.73511 12.6348 8.97534 12.1855 9.45581C11.7402 9.93628 11.5176 10.6492 11.5176 11.5945C11.5176 12.614 11.7441 13.3796 12.1973 13.8914C12.6504 14.3992 13.2441 14.6531 13.9785 14.6531C14.3418 14.6531 14.7051 14.5828 15.0684 14.4421C15.4355 14.2976 15.75 14.1238 16.0117 13.9207V12.8308H14.0254ZM19.3574 7.39917H21.0918V12.0515C21.0918 12.7898 21.1133 13.2683 21.1562 13.4871C21.2305 13.8386 21.4062 14.1218 21.6836 14.3367C21.9648 14.5476 22.3477 14.6531 22.832 14.6531C23.3242 14.6531 23.6953 14.5535 23.9453 14.3542C24.1953 14.1511 24.3457 13.9031 24.3965 13.6101C24.4473 13.3171 24.4727 12.8308 24.4727 12.1511V7.39917H26.207V11.9109C26.207 12.9421 26.1602 13.6707 26.0664 14.0964C25.9727 14.5222 25.7988 14.8816 25.5449 15.1746C25.2949 15.4675 24.959 15.7019 24.5371 15.8777C24.1152 16.0496 23.5645 16.1355 22.8848 16.1355C22.0645 16.1355 21.4414 16.0417 21.0156 15.8542C20.5938 15.6628 20.2598 15.4167 20.0137 15.116C19.7676 14.8113 19.6055 14.4929 19.5273 14.1609C19.4141 13.6687 19.3574 12.9421 19.3574 11.9812V7.39917ZM27.6016 13.1941L29.2891 13.03C29.3906 13.5964 29.5957 14.0125 29.9043 14.2781C30.2168 14.5437 30.6367 14.6765 31.1641 14.6765C31.7227 14.6765 32.1426 14.5593 32.4238 14.325C32.709 14.0867 32.8516 13.8093 32.8516 13.4929C32.8516 13.2898 32.791 13.1179 32.6699 12.9773C32.5527 12.8328 32.3457 12.7078 32.0488 12.6023C31.8457 12.532 31.3828 12.407 30.6602 12.2273C29.7305 11.9968 29.0781 11.7136 28.7031 11.3777C28.1758 10.905 27.9121 10.3289 27.9121 9.64917C27.9121 9.21167 28.0352 8.80347 28.2812 8.42456C28.5312 8.04175 28.8887 7.75073 29.3535 7.55151C29.8223 7.35229 30.3867 7.25269 31.0469 7.25269C32.125 7.25269 32.9355 7.48901 33.4785 7.96167C34.0254 8.43433 34.3125 9.06519 34.3398 9.85425L32.6055 9.93042C32.5312 9.48901 32.3711 9.17261 32.125 8.9812C31.8828 8.78589 31.5176 8.68823 31.0293 8.68823C30.5254 8.68823 30.1309 8.79175 29.8457 8.99878C29.6621 9.13159 29.5703 9.30933 29.5703 9.53198C29.5703 9.73511 29.6562 9.90894 29.8281 10.0535C30.0469 10.2371 30.5781 10.4285 31.4219 10.6277C32.2656 10.8269 32.8887 11.0339 33.291 11.2488C33.6973 11.4597 34.0137 11.7507 34.2402 12.1218C34.4707 12.489 34.5859 12.9441 34.5859 13.4871C34.5859 13.9792 34.4492 14.4402 34.1758 14.8699C33.9023 15.2996 33.5156 15.6199 33.0156 15.8308C32.5156 16.0378 31.8926 16.1414 31.1465 16.1414C30.0605 16.1414 29.2266 15.8914 28.6445 15.3914C28.0625 14.8875 27.7148 14.155 27.6016 13.1941ZM36.0508 7.39917H39.4844C40.1641 7.39917 40.6699 7.42847 41.002 7.48706C41.3379 7.54175 41.6367 7.65894 41.8984 7.83862C42.1641 8.01831 42.3848 8.25854 42.5605 8.55933C42.7363 8.8562 42.8242 9.19019 42.8242 9.56128C42.8242 9.96362 42.7148 10.3328 42.4961 10.6687C42.2812 11.0046 41.9883 11.2566 41.6172 11.4246C42.1406 11.5769 42.543 11.8367 42.8242 12.2039C43.1055 12.571 43.2461 13.0027 43.2461 13.4988C43.2461 13.8894 43.1543 14.2703 42.9707 14.6414C42.791 15.0085 42.543 15.3035 42.2266 15.5261C41.9141 15.7449 41.5273 15.8796 41.0664 15.9304C40.7773 15.9617 40.0801 15.9812 38.9746 15.989H36.0508V7.39917ZM37.7852 8.82886V10.8152H38.9219C39.5977 10.8152 40.0176 10.8054 40.1816 10.7859C40.4785 10.7507 40.7109 10.6492 40.8789 10.4812C41.0508 10.3093 41.1367 10.0847 41.1367 9.80737C41.1367 9.54175 41.0625 9.3269 40.9141 9.16284C40.7695 8.99487 40.5527 8.89331 40.2637 8.85815C40.0918 8.83862 39.5977 8.82886 38.7812 8.82886H37.7852ZM37.7852 12.2449V14.5417H39.3906C40.0156 14.5417 40.4121 14.5242 40.5801 14.489C40.8379 14.4421 41.0469 14.3289 41.207 14.1492C41.3711 13.9656 41.4531 13.7214 41.4531 13.4167C41.4531 13.1589 41.3906 12.9402 41.2656 12.7605C41.1406 12.5808 40.959 12.45 40.7207 12.3679C40.4863 12.2859 39.9746 12.2449 39.1855 12.2449H37.7852Z" fill="white"/>
<defs>
<linearGradient id="paint0_linear_45_4271" x1="26.5" y1="1.98901" x2="26.5" y2="21.989" gradientUnits="userSpaceOnUse">
<stop stop-color="#BD7B00"/>
<stop offset="1" stop-color="#F05DAF"/>
</linearGradient>
</defs>
</svg>
