<svg width="30" height="159" viewBox="0 0 30 159" fill="none" xmlns="http://www.w3.org/2000/svg">
<path d="M14.8977 158.017C11.5842 158.017 8.89771 155.33 8.89771 152.017V74.5149C8.89771 71.2014 11.5842 68.5149 14.8977 68.5149C18.2112 68.5149 20.8977 71.2014 20.8977 74.5149V152.017C20.8977 155.33 18.2111 158.017 14.8977 158.017Z" fill="url(#paint0_linear_89_4263)"/>
<path d="M29.7402 5.97128C29.7402 9.12628 25.5428 11.6833 20.3659 11.6833H9.42899C4.25209 11.6832 0.0546875 9.12618 0.0546875 5.97128C0.0546875 2.81638 4.25209 0.259277 9.42899 0.259277H20.3659C25.5429 0.259277 29.7402 2.81628 29.7402 5.97128Z" fill="url(#paint1_radial_89_4263)"/>
<path d="M29.7402 17.3951C29.7402 20.5501 25.5428 23.1071 20.3659 23.1071H9.42899C4.25209 23.1071 0.0546875 20.5501 0.0546875 17.3951C0.0546875 14.2401 4.25209 11.6831 9.42899 11.6831H20.3659C25.5429 11.6831 29.7402 14.2401 29.7402 17.3951Z" fill="url(#paint2_radial_89_4263)"/>
<path d="M29.7402 28.8192C29.7402 31.9742 25.5428 34.5312 20.3659 34.5312H9.42899C4.25209 34.5312 0.0546875 31.9742 0.0546875 28.8192C0.0546875 25.6642 4.25209 23.1072 9.42899 23.1072H20.3659C25.5429 23.1073 29.7402 25.6643 29.7402 28.8192Z" fill="url(#paint3_radial_89_4263)"/>
<path d="M29.7402 40.243C29.7402 43.398 25.5428 45.955 20.3659 45.955H9.42899C4.25209 45.9549 0.0546875 43.3979 0.0546875 40.243C0.0546875 37.088 4.25209 34.531 9.42899 34.531H20.3659C25.5429 34.531 29.7402 37.088 29.7402 40.243Z" fill="url(#paint4_radial_89_4263)"/>
<path d="M29.7402 51.6671C29.7402 54.8221 25.5428 57.3791 20.3659 57.3791H9.42899C4.25209 57.3791 0.0546875 54.8221 0.0546875 51.6671C0.0546875 48.5121 4.25209 45.9551 9.42899 45.9551H20.3659C25.5429 45.9551 29.7402 48.5121 29.7402 51.6671Z" fill="url(#paint5_radial_89_4263)"/>
<path d="M29.7402 63.0909C29.7402 66.2459 25.5428 68.8029 20.3659 68.8029H9.42899C4.25209 68.8029 0.0546875 66.2459 0.0546875 63.0909C0.0546875 59.9359 4.25209 57.3789 9.42899 57.3789H20.3659C25.5429 57.379 29.7402 59.936 29.7402 63.0909Z" fill="url(#paint6_radial_89_4263)"/>
<path d="M29.7402 74.515C29.7402 77.67 25.5428 80.227 20.3659 80.227H9.42899C4.25209 80.227 0.0546875 77.67 0.0546875 74.515C0.0546875 71.36 4.25209 68.803 9.42899 68.803H20.3659C25.5429 68.803 29.7402 71.36 29.7402 74.515Z" fill="url(#paint7_radial_89_4263)"/>
<defs>
<linearGradient id="paint0_linear_89_4263" x1="9.28809" y1="122.289" x2="21.2881" y2="122.289" gradientUnits="userSpaceOnUse">
<stop stop-color="#266D89"/>
<stop offset="0.25" stop-color="#8ADFFF"/>
<stop offset="0.6" stop-color="#41A0C4"/>
<stop offset="1" stop-color="#0A3A4D"/>
</linearGradient>
<radialGradient id="paint1_radial_89_4263" cx="0" cy="0" r="1" gradientUnits="userSpaceOnUse" gradientTransform="translate(10.5883 7.12299) rotate(-90) scale(10.7939 17.7152)">
<stop stop-color="#8ADFFF"/>
<stop offset="0.0415" stop-color="#7ED5F5"/>
<stop offset="0.1746" stop-color="#5DB8DB"/>
<stop offset="0.2854" stop-color="#48A6CA"/>
<stop offset="0.3593" stop-color="#41A0C4"/>
<stop offset="1" stop-color="#0A3A4D"/>
</radialGradient>
<radialGradient id="paint2_radial_89_4263" cx="0" cy="0" r="1" gradientUnits="userSpaceOnUse" gradientTransform="translate(10.5883 18.5468) rotate(-90) scale(10.7939 17.7152)">
<stop stop-color="#8ADFFF"/>
<stop offset="0.0415" stop-color="#7ED5F5"/>
<stop offset="0.1746" stop-color="#5DB8DB"/>
<stop offset="0.2854" stop-color="#48A6CA"/>
<stop offset="0.3593" stop-color="#41A0C4"/>
<stop offset="1" stop-color="#0A3A4D"/>
</radialGradient>
<radialGradient id="paint3_radial_89_4263" cx="0" cy="0" r="1" gradientUnits="userSpaceOnUse" gradientTransform="translate(10.5883 29.9709) rotate(-90) scale(10.7939 17.7152)">
<stop stop-color="#8ADFFF"/>
<stop offset="0.0415" stop-color="#7ED5F5"/>
<stop offset="0.1746" stop-color="#5DB8DB"/>
<stop offset="0.2854" stop-color="#48A6CA"/>
<stop offset="0.3593" stop-color="#41A0C4"/>
<stop offset="1" stop-color="#0A3A4D"/>
</radialGradient>
<radialGradient id="paint4_radial_89_4263" cx="0" cy="0" r="1" gradientUnits="userSpaceOnUse" gradientTransform="translate(10.5883 41.3947) rotate(-90) scale(10.7939 17.7152)">
<stop stop-color="#8ADFFF"/>
<stop offset="0.0415" stop-color="#7ED5F5"/>
<stop offset="0.1746" stop-color="#5DB8DB"/>
<stop offset="0.2854" stop-color="#48A6CA"/>
<stop offset="0.3593" stop-color="#41A0C4"/>
<stop offset="1" stop-color="#0A3A4D"/>
</radialGradient>
<radialGradient id="paint5_radial_89_4263" cx="0" cy="0" r="1" gradientUnits="userSpaceOnUse" gradientTransform="translate(10.5883 52.8188) rotate(-90) scale(10.7939 17.7152)">
<stop stop-color="#8ADFFF"/>
<stop offset="0.0415" stop-color="#7ED5F5"/>
<stop offset="0.1746" stop-color="#5DB8DB"/>
<stop offset="0.2854" stop-color="#48A6CA"/>
<stop offset="0.3593" stop-color="#41A0C4"/>
<stop offset="1" stop-color="#0A3A4D"/>
</radialGradient>
<radialGradient id="paint6_radial_89_4263" cx="0" cy="0" r="1" gradientUnits="userSpaceOnUse" gradientTransform="translate(10.5883 64.2426) rotate(-90) scale(10.7939 17.7152)">
<stop stop-color="#8ADFFF"/>
<stop offset="0.0415" stop-color="#7ED5F5"/>
<stop offset="0.1746" stop-color="#5DB8DB"/>
<stop offset="0.2854" stop-color="#48A6CA"/>
<stop offset="0.3593" stop-color="#41A0C4"/>
<stop offset="1" stop-color="#0A3A4D"/>
</radialGradient>
<radialGradient id="paint7_radial_89_4263" cx="0" cy="0" r="1" gradientUnits="userSpaceOnUse" gradientTransform="translate(10.5883 75.6667) rotate(-90) scale(10.7939 17.7152)">
<stop stop-color="#8ADFFF"/>
<stop offset="0.0415" stop-color="#7ED5F5"/>
<stop offset="0.1746" stop-color="#5DB8DB"/>
<stop offset="0.2854" stop-color="#48A6CA"/>
<stop offset="0.3593" stop-color="#41A0C4"/>
<stop offset="1" stop-color="#0A3A4D"/>
</radialGradient>
</defs>
</svg>
