<svg width="46" height="24" viewBox="0 0 46 24" fill="none" xmlns="http://www.w3.org/2000/svg">
<rect x="2" y="1.98901" width="43" height="20" rx="10" fill="url(#paint0_linear_50_1810)"/>
<rect x="2" y="1.98901" width="43" height="20" rx="10" stroke="#354D09" stroke-width="3" stroke-linejoin="round"/>
<path d="M10.3047 15.989V7.39917H12.0391V15.989H10.3047ZM13.709 15.989V7.39917H19.5977V8.85229H15.4434V10.8855H19.0293V12.3386H15.4434V15.989H13.709ZM20.9805 15.989V7.39917H22.7148V15.989H20.9805ZM26.3066 15.989V8.85229H23.7578V7.39917H30.584V8.85229H28.041V15.989H26.3066ZM31.2871 13.7097L32.8809 13.5164C32.9316 13.9226 33.0684 14.2332 33.291 14.448C33.5137 14.6628 33.7832 14.7703 34.0996 14.7703C34.4395 14.7703 34.7246 14.6414 34.9551 14.3835C35.1895 14.1257 35.3066 13.7781 35.3066 13.3406C35.3066 12.9265 35.1953 12.5984 34.9727 12.3562C34.75 12.114 34.4785 11.9929 34.1582 11.9929C33.9473 11.9929 33.6953 12.0339 33.4023 12.116L33.584 10.7742C34.0293 10.7859 34.3691 10.6902 34.6035 10.4871C34.8379 10.28 34.9551 10.0066 34.9551 9.66675C34.9551 9.37769 34.8691 9.14722 34.6973 8.97534C34.5254 8.80347 34.2969 8.71753 34.0117 8.71753C33.7305 8.71753 33.4902 8.81519 33.291 9.0105C33.0918 9.20581 32.9707 9.49097 32.9277 9.86597L31.4102 9.60815C31.5156 9.08862 31.6738 8.67456 31.8848 8.36597C32.0996 8.05347 32.3965 7.80933 32.7754 7.63354C33.1582 7.45386 33.5859 7.36401 34.0586 7.36401C34.8672 7.36401 35.5156 7.62183 36.0039 8.13745C36.4062 8.55933 36.6074 9.03589 36.6074 9.56714C36.6074 10.321 36.1953 10.9226 35.3711 11.3718C35.8633 11.4773 36.2559 11.7136 36.5488 12.0808C36.8457 12.448 36.9941 12.8914 36.9941 13.4109C36.9941 14.1648 36.7188 14.8074 36.168 15.3386C35.6172 15.8699 34.9316 16.1355 34.1113 16.1355C33.334 16.1355 32.6895 15.9128 32.1777 15.4675C31.666 15.0183 31.3691 14.4324 31.2871 13.7097Z" fill="white"/>
<defs>
<linearGradient id="paint0_linear_50_1810" x1="23.5" y1="1.98901" x2="23.5" y2="21.989" gradientUnits="userSpaceOnUse">
<stop stop-color="#354D09"/>
<stop offset="1" stop-color="#DEC313"/>
</linearGradient>
</defs>
</svg>
