<svg width="17" height="11" viewBox="0 0 17 11" fill="none" xmlns="http://www.w3.org/2000/svg">
<path d="M11.3533 10.584C14.0029 10.584 16.1508 8.4361 16.1508 5.78651C16.1508 3.13693 14.0029 0.989014 11.3533 0.989014C8.70376 0.989014 6.55585 3.13693 6.55585 5.78651C6.55585 8.4361 8.70376 10.584 11.3533 10.584Z" fill="url(#paint0_radial_86_2770)"/>
<path d="M5.75795 10.584C8.40754 10.584 10.5554 8.4361 10.5554 5.78651C10.5554 3.13693 8.40754 0.989014 5.75795 0.989014C3.10836 0.989014 0.960449 3.13693 0.960449 5.78651C0.960449 8.4361 3.10836 10.584 5.75795 10.584Z" fill="url(#paint1_radial_86_2770)"/>
<defs>
<radialGradient id="paint0_radial_86_2770" cx="0" cy="0" r="1" gradientUnits="userSpaceOnUse" gradientTransform="translate(11.3547 5.78114) scale(5.21025)">
<stop stop-color="#DC97EF"/>
<stop offset="1" stop-color="#9400BD"/>
</radialGradient>
<radialGradient id="paint1_radial_86_2770" cx="0" cy="0" r="1" gradientUnits="userSpaceOnUse" gradientTransform="translate(5.75958 5.78114) scale(5.21025)">
<stop stop-color="#EFB397"/>
<stop offset="1" stop-color="#BD3F00"/>
</radialGradient>
</defs>
</svg>
