<svg width="79" height="24" viewBox="0 0 79 24" fill="none" xmlns="http://www.w3.org/2000/svg">
<rect x="1" y="1.98901" width="77" height="20" rx="10" fill="url(#paint0_linear_42_2709)"/>
<rect x="1" y="1.98901" width="77" height="20" rx="10" stroke="#FF9914" stroke-width="3" stroke-linejoin="round"/>
<path d="M13.3379 12.8308V11.3835H17.0762V14.8054C16.7129 15.157 16.1855 15.4675 15.4941 15.7371C14.8066 16.0027 14.1094 16.1355 13.4023 16.1355C12.5039 16.1355 11.7207 15.948 11.0527 15.573C10.3848 15.1941 9.88281 14.655 9.54688 13.9558C9.21094 13.2527 9.04297 12.489 9.04297 11.6648C9.04297 10.7703 9.23047 9.97534 9.60547 9.28003C9.98047 8.58472 10.5293 8.05151 11.252 7.68042C11.8027 7.39526 12.4883 7.25269 13.3086 7.25269C14.375 7.25269 15.207 7.47729 15.8047 7.92651C16.4062 8.37183 16.793 8.98901 16.9648 9.77808L15.2422 10.1003C15.1211 9.67847 14.8926 9.34644 14.5566 9.10425C14.2246 8.85815 13.8086 8.73511 13.3086 8.73511C12.5508 8.73511 11.9473 8.97534 11.498 9.45581C11.0527 9.93628 10.8301 10.6492 10.8301 11.5945C10.8301 12.614 11.0566 13.3796 11.5098 13.8914C11.9629 14.3992 12.5566 14.6531 13.291 14.6531C13.6543 14.6531 14.0176 14.5828 14.3809 14.4421C14.748 14.2976 15.0625 14.1238 15.3242 13.9207V12.8308H13.3379ZM18.4824 13.698V12.0515H21.7168V13.698H18.4824ZM23.8965 11.6648L22.4023 11.3953C22.5703 10.7937 22.8594 10.3484 23.2695 10.0593C23.6797 9.77026 24.2891 9.62573 25.0977 9.62573C25.832 9.62573 26.3789 9.71362 26.7383 9.8894C27.0977 10.0613 27.3496 10.282 27.4941 10.5515C27.6426 10.8171 27.7168 11.3074 27.7168 12.0222L27.6992 13.9441C27.6992 14.491 27.7246 14.8953 27.7754 15.157C27.8301 15.4148 27.9297 15.6921 28.0742 15.989H26.4453C26.4023 15.8796 26.3496 15.7175 26.2871 15.5027C26.2598 15.405 26.2402 15.3406 26.2285 15.3093C25.9473 15.5828 25.6465 15.7878 25.3262 15.9246C25.0059 16.0613 24.6641 16.1296 24.3008 16.1296C23.6602 16.1296 23.1543 15.9558 22.7832 15.6082C22.416 15.2605 22.2324 14.821 22.2324 14.2898C22.2324 13.9382 22.3164 13.6257 22.4844 13.3523C22.6523 13.075 22.8867 12.864 23.1875 12.7195C23.4922 12.571 23.9297 12.4421 24.5 12.3328C25.2695 12.1882 25.8027 12.0535 26.0996 11.9285V11.7644C26.0996 11.448 26.0215 11.2234 25.8652 11.0906C25.709 10.9539 25.4141 10.8855 24.9805 10.8855C24.6875 10.8855 24.459 10.9441 24.2949 11.0613C24.1309 11.1746 23.998 11.3757 23.8965 11.6648ZM26.0996 13.0007C25.8887 13.071 25.5547 13.155 25.0977 13.2527C24.6406 13.3503 24.3418 13.446 24.2012 13.5398C23.9863 13.6921 23.8789 13.8855 23.8789 14.1199C23.8789 14.3503 23.9648 14.5496 24.1367 14.7175C24.3086 14.8855 24.5273 14.9695 24.793 14.9695C25.0898 14.9695 25.373 14.8718 25.6426 14.6765C25.8418 14.5281 25.9727 14.3464 26.0352 14.1316C26.0781 13.991 26.0996 13.7234 26.0996 13.3289V13.0007ZM29.3457 15.989V7.39917H30.9922V15.989H29.3457ZM32.6387 9.76636H34.1738V10.6804C34.373 10.3679 34.6426 10.114 34.9824 9.9187C35.3223 9.72339 35.6992 9.62573 36.1133 9.62573C36.8359 9.62573 37.4492 9.90894 37.9531 10.4753C38.457 11.0417 38.709 11.8308 38.709 12.8425C38.709 13.8816 38.4551 14.6902 37.9473 15.2683C37.4395 15.8425 36.8242 16.1296 36.1016 16.1296C35.7578 16.1296 35.4453 16.0613 35.1641 15.9246C34.8867 15.7878 34.5938 15.5535 34.2852 15.2214V18.3562H32.6387V9.76636ZM34.2676 12.7722C34.2676 13.4714 34.4062 13.989 34.6836 14.325C34.9609 14.657 35.2988 14.823 35.6973 14.823C36.0801 14.823 36.3984 14.6707 36.6523 14.366C36.9062 14.0574 37.0332 13.5535 37.0332 12.8542C37.0332 12.2019 36.9023 11.7175 36.6406 11.4011C36.3789 11.0847 36.0547 10.9265 35.668 10.9265C35.2656 10.9265 34.9316 11.0828 34.666 11.3953C34.4004 11.7039 34.2676 12.1628 34.2676 12.7722ZM41.6621 7.39917V10.5574C42.1934 9.93628 42.8281 9.62573 43.5664 9.62573C43.9453 9.62573 44.2871 9.69604 44.5918 9.83667C44.8965 9.97729 45.125 10.157 45.2773 10.3757C45.4336 10.5945 45.5391 10.8367 45.5938 11.1023C45.6523 11.3679 45.6816 11.78 45.6816 12.3386V15.989H44.0352V12.7019C44.0352 12.0496 44.0039 11.6355 43.9414 11.4597C43.8789 11.2839 43.7676 11.1453 43.6074 11.0437C43.4512 10.9382 43.2539 10.8855 43.0156 10.8855C42.7422 10.8855 42.498 10.9519 42.2832 11.0847C42.0684 11.2175 41.9102 11.4187 41.8086 11.6882C41.7109 11.9539 41.6621 12.3484 41.6621 12.8718V15.989H40.0156V7.39917H41.6621ZM48.5879 11.6648L47.0938 11.3953C47.2617 10.7937 47.5508 10.3484 47.9609 10.0593C48.3711 9.77026 48.9805 9.62573 49.7891 9.62573C50.5234 9.62573 51.0703 9.71362 51.4297 9.8894C51.7891 10.0613 52.041 10.282 52.1855 10.5515C52.334 10.8171 52.4082 11.3074 52.4082 12.0222L52.3906 13.9441C52.3906 14.491 52.416 14.8953 52.4668 15.157C52.5215 15.4148 52.6211 15.6921 52.7656 15.989H51.1367C51.0938 15.8796 51.041 15.7175 50.9785 15.5027C50.9512 15.405 50.9316 15.3406 50.9199 15.3093C50.6387 15.5828 50.3379 15.7878 50.0176 15.9246C49.6973 16.0613 49.3555 16.1296 48.9922 16.1296C48.3516 16.1296 47.8457 15.9558 47.4746 15.6082C47.1074 15.2605 46.9238 14.821 46.9238 14.2898C46.9238 13.9382 47.0078 13.6257 47.1758 13.3523C47.3438 13.075 47.5781 12.864 47.8789 12.7195C48.1836 12.571 48.6211 12.4421 49.1914 12.3328C49.9609 12.1882 50.4941 12.0535 50.791 11.9285V11.7644C50.791 11.448 50.7129 11.2234 50.5566 11.0906C50.4004 10.9539 50.1055 10.8855 49.6719 10.8855C49.3789 10.8855 49.1504 10.9441 48.9863 11.0613C48.8223 11.1746 48.6895 11.3757 48.5879 11.6648ZM50.791 13.0007C50.5801 13.071 50.2461 13.155 49.7891 13.2527C49.332 13.3503 49.0332 13.446 48.8926 13.5398C48.6777 13.6921 48.5703 13.8855 48.5703 14.1199C48.5703 14.3503 48.6562 14.5496 48.8281 14.7175C49 14.8855 49.2188 14.9695 49.4844 14.9695C49.7812 14.9695 50.0645 14.8718 50.334 14.6765C50.5332 14.5281 50.6641 14.3464 50.7266 14.1316C50.7695 13.991 50.791 13.7234 50.791 13.3289V13.0007ZM53.8496 13.698V12.0515H57.084V13.698H53.8496ZM61.8945 15.989H60.248V9.78394C59.6465 10.3464 58.9375 10.7625 58.1211 11.032V9.53784C58.5508 9.39722 59.0176 9.13159 59.5215 8.74097C60.0254 8.34644 60.3711 7.88745 60.5586 7.36401H61.8945V15.989ZM69.9219 14.4597V15.989H64.1504C64.2129 15.4109 64.4004 14.864 64.7129 14.3484C65.0254 13.8289 65.6426 13.1414 66.5645 12.2859C67.3066 11.5945 67.7617 11.1257 67.9297 10.8796C68.1562 10.5398 68.2695 10.2039 68.2695 9.87183C68.2695 9.50464 68.1699 9.22339 67.9707 9.02808C67.7754 8.82886 67.5039 8.72925 67.1562 8.72925C66.8125 8.72925 66.5391 8.83276 66.3359 9.03979C66.1328 9.24683 66.0156 9.59058 65.9844 10.071L64.3438 9.90698C64.4414 9.00073 64.748 8.35034 65.2637 7.95581C65.7793 7.56128 66.4238 7.36401 67.1973 7.36401C68.0449 7.36401 68.7109 7.59253 69.1953 8.04956C69.6797 8.50659 69.9219 9.07495 69.9219 9.75464C69.9219 10.1414 69.8516 10.5105 69.7109 10.8621C69.5742 11.2097 69.3555 11.575 69.0547 11.9578C68.8555 12.2117 68.4961 12.5769 67.9766 13.0535C67.457 13.53 67.127 13.8464 66.9863 14.0027C66.8496 14.1589 66.7383 14.3113 66.6523 14.4597H69.9219Z" fill="white"/>
<defs>
<linearGradient id="paint0_linear_42_2709" x1="39.5" y1="1.98901" x2="39.5" y2="21.989" gradientUnits="userSpaceOnUse">
<stop stop-color="#17BAE2"/>
<stop offset="1" stop-color="#FF9914"/>
</linearGradient>
</defs>
</svg>
