<svg width="50" height="24" viewBox="0 0 50 24" fill="none" xmlns="http://www.w3.org/2000/svg">
<rect x="2" y="1.98901" width="47" height="20" rx="10" fill="url(#paint0_linear_64_1891)"/>
<rect x="2" y="1.98901" width="47" height="20" rx="10" stroke="#0075BC" stroke-width="3" stroke-linejoin="round"/>
<path d="M10.377 15.989V7.39917H12.0645L15.5801 13.1355V7.39917H17.1914V15.989H15.4512L11.9883 10.3875V15.989H10.377ZM18.5918 13.1941L20.2793 13.03C20.3809 13.5964 20.5859 14.0125 20.8945 14.2781C21.207 14.5437 21.627 14.6765 22.1543 14.6765C22.7129 14.6765 23.1328 14.5593 23.4141 14.325C23.6992 14.0867 23.8418 13.8093 23.8418 13.4929C23.8418 13.2898 23.7812 13.1179 23.6602 12.9773C23.543 12.8328 23.3359 12.7078 23.0391 12.6023C22.8359 12.532 22.373 12.407 21.6504 12.2273C20.7207 11.9968 20.0684 11.7136 19.6934 11.3777C19.166 10.905 18.9023 10.3289 18.9023 9.64917C18.9023 9.21167 19.0254 8.80347 19.2715 8.42456C19.5215 8.04175 19.8789 7.75073 20.3438 7.55151C20.8125 7.35229 21.377 7.25269 22.0371 7.25269C23.1152 7.25269 23.9258 7.48901 24.4688 7.96167C25.0156 8.43433 25.3027 9.06519 25.3301 9.85425L23.5957 9.93042C23.5215 9.48901 23.3613 9.17261 23.1152 8.9812C22.873 8.78589 22.5078 8.68823 22.0195 8.68823C21.5156 8.68823 21.1211 8.79175 20.8359 8.99878C20.6523 9.13159 20.5605 9.30933 20.5605 9.53198C20.5605 9.73511 20.6465 9.90894 20.8184 10.0535C21.0371 10.2371 21.5684 10.4285 22.4121 10.6277C23.2559 10.8269 23.8789 11.0339 24.2812 11.2488C24.6875 11.4597 25.0039 11.7507 25.2305 12.1218C25.4609 12.489 25.5762 12.9441 25.5762 13.4871C25.5762 13.9792 25.4395 14.4402 25.166 14.8699C24.8926 15.2996 24.5059 15.6199 24.0059 15.8308C23.5059 16.0378 22.8828 16.1414 22.1367 16.1414C21.0508 16.1414 20.2168 15.8914 19.6348 15.3914C19.0527 14.8875 18.7051 14.155 18.5918 13.1941ZM29.9004 15.989V14.2605H26.3848V12.8191L30.1113 7.36401H31.4941V12.8132H32.5605V14.2605H31.4941V15.989H29.9004ZM29.9004 12.8132V9.87769L27.9258 12.8132H29.9004ZM41.4609 15.989H39.5742L38.8242 14.0378H35.3906L34.6816 15.989H32.8418L36.1875 7.39917H38.0215L41.4609 15.989ZM38.2676 12.5906L37.084 9.40308L35.9238 12.5906H38.2676Z" fill="white"/>
<defs>
<linearGradient id="paint0_linear_64_1891" x1="25.5" y1="1.98901" x2="25.5" y2="21.989" gradientUnits="userSpaceOnUse">
<stop stop-color="#96F1C9"/>
<stop offset="1" stop-color="#0075BC"/>
</linearGradient>
</defs>
</svg>
