<svg width="65" height="24" viewBox="0 0 65 24" fill="none" xmlns="http://www.w3.org/2000/svg">
<rect x="1" y="1.98901" width="63" height="20" rx="10" fill="url(#paint0_linear_64_1837)"/>
<rect x="1" y="1.98901" width="63" height="20" rx="10" stroke="#6B20AC" stroke-width="3" stroke-linejoin="round"/>
<path d="M9.38477 15.989V7.39917H11.0723L14.5879 13.1355V7.39917H16.1992V15.989H14.459L10.9961 10.3875V15.989H9.38477ZM17.8398 13.698V12.0515H21.0742V13.698H17.8398ZM23.2539 15.989L21.2031 7.39917H22.9785L24.2734 13.2996L25.8438 7.39917H27.9062L29.4121 13.3992L30.7305 7.39917H32.4766L30.3906 15.989H28.5508L26.8398 9.56714L25.1348 15.989H23.2539ZM40.4453 15.989H38.5586L37.8086 14.0378H34.375L33.666 15.989H31.8262L35.1719 7.39917H37.0059L40.4453 15.989ZM37.252 12.5906L36.0684 9.40308L34.9082 12.5906H37.252ZM40.9316 13.1941L42.6191 13.03C42.7207 13.5964 42.9258 14.0125 43.2344 14.2781C43.5469 14.5437 43.9668 14.6765 44.4941 14.6765C45.0527 14.6765 45.4727 14.5593 45.7539 14.325C46.0391 14.0867 46.1816 13.8093 46.1816 13.4929C46.1816 13.2898 46.1211 13.1179 46 12.9773C45.8828 12.8328 45.6758 12.7078 45.3789 12.6023C45.1758 12.532 44.7129 12.407 43.9902 12.2273C43.0605 11.9968 42.4082 11.7136 42.0332 11.3777C41.5059 10.905 41.2422 10.3289 41.2422 9.64917C41.2422 9.21167 41.3652 8.80347 41.6113 8.42456C41.8613 8.04175 42.2188 7.75073 42.6836 7.55151C43.1523 7.35229 43.7168 7.25269 44.377 7.25269C45.4551 7.25269 46.2656 7.48901 46.8086 7.96167C47.3555 8.43433 47.6426 9.06519 47.6699 9.85425L45.9355 9.93042C45.8613 9.48901 45.7012 9.17261 45.4551 8.9812C45.2129 8.78589 44.8477 8.68823 44.3594 8.68823C43.8555 8.68823 43.4609 8.79175 43.1758 8.99878C42.9922 9.13159 42.9004 9.30933 42.9004 9.53198C42.9004 9.73511 42.9863 9.90894 43.1582 10.0535C43.377 10.2371 43.9082 10.4285 44.752 10.6277C45.5957 10.8269 46.2188 11.0339 46.6211 11.2488C47.0273 11.4597 47.3438 11.7507 47.5703 12.1218C47.8008 12.489 47.916 12.9441 47.916 13.4871C47.916 13.9792 47.7793 14.4402 47.5059 14.8699C47.2324 15.2996 46.8457 15.6199 46.3457 15.8308C45.8457 16.0378 45.2227 16.1414 44.4766 16.1414C43.3906 16.1414 42.5566 15.8914 41.9746 15.3914C41.3926 14.8875 41.0449 14.155 40.9316 13.1941ZM49.375 15.989V7.39917H52.1582C53.2129 7.39917 53.9004 7.44214 54.2207 7.52808C54.7129 7.65698 55.125 7.93823 55.457 8.37183C55.7891 8.80151 55.9551 9.35815 55.9551 10.0417C55.9551 10.5691 55.8594 11.0125 55.668 11.3718C55.4766 11.7312 55.2324 12.0144 54.9355 12.2214C54.6426 12.4246 54.3438 12.5593 54.0391 12.6257C53.625 12.7078 53.0254 12.7488 52.2402 12.7488H51.1094V15.989H49.375ZM51.1094 8.85229V11.2898H52.0586C52.7422 11.2898 53.1992 11.2449 53.4297 11.155C53.6602 11.0652 53.8398 10.9246 53.9688 10.7332C54.1016 10.5417 54.168 10.3191 54.168 10.0652C54.168 9.75269 54.0762 9.49487 53.8926 9.29175C53.709 9.08862 53.4766 8.96167 53.1953 8.91089C52.9883 8.87183 52.5723 8.85229 51.9473 8.85229H51.1094Z" fill="white"/>
<defs>
<linearGradient id="paint0_linear_64_1837" x1="32.5" y1="1.98901" x2="32.5" y2="21.989" gradientUnits="userSpaceOnUse">
<stop stop-color="#6B20AC"/>
<stop offset="1" stop-color="#BE8126"/>
</linearGradient>
</defs>
</svg>
