<svg width="68" height="24" viewBox="0 0 68 24" fill="none" xmlns="http://www.w3.org/2000/svg">
<rect x="1" y="1.98901" width="66" height="20" rx="10" fill="url(#paint0_linear_64_1833)"/>
<rect x="1" y="1.98901" width="66" height="20" rx="10" stroke="#D79400" stroke-width="3" stroke-linejoin="round"/>
<path d="M9.16211 9.76636H10.6797V10.616C11.2227 9.95581 11.8691 9.62573 12.6191 9.62573C13.0176 9.62573 13.3633 9.70776 13.6562 9.87183C13.9492 10.0359 14.1895 10.2839 14.377 10.616C14.6504 10.2839 14.9453 10.0359 15.2617 9.87183C15.5781 9.70776 15.916 9.62573 16.2754 9.62573C16.7324 9.62573 17.1191 9.71948 17.4355 9.90698C17.752 10.0906 17.9883 10.3621 18.1445 10.7214C18.2578 10.9871 18.3145 11.4167 18.3145 12.0105V15.989H16.668V12.4324C16.668 11.8152 16.6113 11.4167 16.498 11.2371C16.3457 11.0027 16.1113 10.8855 15.7949 10.8855C15.5645 10.8855 15.3477 10.9558 15.1445 11.0964C14.9414 11.2371 14.7949 11.4441 14.7051 11.7175C14.6152 11.9871 14.5703 12.4148 14.5703 13.0007V15.989H12.9238V12.5789C12.9238 11.9734 12.8945 11.5828 12.8359 11.407C12.7773 11.2312 12.6855 11.1003 12.5605 11.0144C12.4395 10.9285 12.2734 10.8855 12.0625 10.8855C11.8086 10.8855 11.5801 10.9539 11.377 11.0906C11.1738 11.2273 11.0273 11.4246 10.9375 11.6824C10.8516 11.9402 10.8086 12.3679 10.8086 12.9656V15.989H9.16211V9.76636ZM21.9062 15.989V8.85229H19.3574V7.39917H26.1836V8.85229H23.6406V15.989H21.9062ZM26.7344 11.7468C26.7344 10.8718 26.8652 10.1375 27.127 9.5437C27.3223 9.1062 27.5879 8.71362 27.9238 8.36597C28.2637 8.01831 28.6348 7.7605 29.0371 7.59253C29.5723 7.36597 30.1895 7.25269 30.8887 7.25269C32.1543 7.25269 33.166 7.64526 33.9238 8.43042C34.6855 9.21558 35.0664 10.3074 35.0664 11.7058C35.0664 13.0925 34.6895 14.1785 33.9355 14.9636C33.1816 15.7449 32.1738 16.1355 30.9121 16.1355C29.6348 16.1355 28.6191 15.7468 27.8652 14.9695C27.1113 14.1882 26.7344 13.114 26.7344 11.7468ZM28.5215 11.6882C28.5215 12.6609 28.7461 13.3992 29.1953 13.9031C29.6445 14.4031 30.2148 14.6531 30.9062 14.6531C31.5977 14.6531 32.1641 14.405 32.6055 13.9089C33.0508 13.4089 33.2734 12.6609 33.2734 11.6648C33.2734 10.6804 33.0566 9.94604 32.623 9.46167C32.1934 8.97729 31.6211 8.73511 30.9062 8.73511C30.1914 8.73511 29.6152 8.9812 29.1777 9.47339C28.7402 9.96167 28.5215 10.7 28.5215 11.6882ZM36.4316 15.989V7.39917H40.082C41 7.39917 41.666 7.47729 42.0801 7.63354C42.498 7.78589 42.832 8.05933 43.082 8.45386C43.332 8.84839 43.457 9.29956 43.457 9.80737C43.457 10.4519 43.2676 10.9851 42.8887 11.407C42.5098 11.825 41.9434 12.0886 41.1895 12.198C41.5645 12.4167 41.873 12.657 42.1152 12.9187C42.3613 13.1804 42.6914 13.6453 43.1055 14.3132L44.1543 15.989H42.0801L40.8262 14.1199C40.3809 13.4519 40.0762 13.032 39.9121 12.8601C39.748 12.6843 39.5742 12.5652 39.3906 12.5027C39.207 12.4363 38.916 12.4031 38.5176 12.4031H38.166V15.989H36.4316ZM38.166 11.032H39.4492C40.2812 11.032 40.8008 10.9968 41.0078 10.9265C41.2148 10.8562 41.377 10.7351 41.4941 10.5632C41.6113 10.3914 41.6699 10.1765 41.6699 9.9187C41.6699 9.62964 41.5918 9.39722 41.4355 9.22144C41.2832 9.04175 41.0664 8.92847 40.7852 8.88159C40.6445 8.86206 40.2227 8.85229 39.5195 8.85229H38.166V11.032ZM50.5938 12.8308L52.2754 13.364C52.0176 14.3015 51.5879 14.9988 50.9863 15.4558C50.3887 15.9089 49.6289 16.1355 48.707 16.1355C47.5664 16.1355 46.6289 15.7468 45.8945 14.9695C45.1602 14.1882 44.793 13.1218 44.793 11.7703C44.793 10.3406 45.1621 9.2312 45.9004 8.44214C46.6387 7.64917 47.6094 7.25269 48.8125 7.25269C49.8633 7.25269 50.7168 7.56323 51.373 8.18433C51.7637 8.55151 52.0566 9.07886 52.252 9.76636L50.5352 10.1765C50.4336 9.7312 50.2207 9.37964 49.8965 9.12183C49.5762 8.86401 49.1855 8.73511 48.7246 8.73511C48.0879 8.73511 47.5703 8.96362 47.1719 9.42065C46.7773 9.87769 46.5801 10.6179 46.5801 11.6414C46.5801 12.7273 46.7754 13.5007 47.166 13.9617C47.5566 14.4226 48.0645 14.6531 48.6895 14.6531C49.1504 14.6531 49.5469 14.5066 49.8789 14.2136C50.2109 13.9207 50.4492 13.4597 50.5938 12.8308ZM57.6191 15.989H55.9727V9.78394C55.3711 10.3464 54.6621 10.7625 53.8457 11.032V9.53784C54.2754 9.39722 54.7422 9.13159 55.2461 8.74097C55.75 8.34644 56.0957 7.88745 56.2832 7.36401H57.6191V15.989Z" fill="white"/>
<defs>
<linearGradient id="paint0_linear_64_1833" x1="34" y1="1.98901" x2="34" y2="21.989" gradientUnits="userSpaceOnUse">
<stop stop-color="#D79400"/>
<stop offset="1" stop-color="#FF7E00"/>
</linearGradient>
</defs>
</svg>
