<svg width="58" height="24" viewBox="0 0 58 24" fill="none" xmlns="http://www.w3.org/2000/svg">
<rect x="2" y="1.98901" width="55" height="20" rx="10" fill="url(#paint0_linear_36_1572)"/>
<rect x="2" y="1.98901" width="55" height="20" rx="10" stroke="#E36600" stroke-width="3" stroke-linejoin="round"/>
<path d="M10.3633 7.39917H13.7969C14.4766 7.39917 14.9824 7.42847 15.3145 7.48706C15.6504 7.54175 15.9492 7.65894 16.2109 7.83862C16.4766 8.01831 16.6973 8.25854 16.873 8.55933C17.0488 8.8562 17.1367 9.19019 17.1367 9.56128C17.1367 9.96362 17.0273 10.3328 16.8086 10.6687C16.5938 11.0046 16.3008 11.2566 15.9297 11.4246C16.4531 11.5769 16.8555 11.8367 17.1367 12.2039C17.418 12.571 17.5586 13.0027 17.5586 13.4988C17.5586 13.8894 17.4668 14.2703 17.2832 14.6414C17.1035 15.0085 16.8555 15.3035 16.5391 15.5261C16.2266 15.7449 15.8398 15.8796 15.3789 15.9304C15.0898 15.9617 14.3926 15.9812 13.2871 15.989H10.3633V7.39917ZM12.0977 8.82886V10.8152H13.2344C13.9102 10.8152 14.3301 10.8054 14.4941 10.7859C14.791 10.7507 15.0234 10.6492 15.1914 10.4812C15.3633 10.3093 15.4492 10.0847 15.4492 9.80737C15.4492 9.54175 15.375 9.3269 15.2266 9.16284C15.082 8.99487 14.8652 8.89331 14.5762 8.85815C14.4043 8.83862 13.9102 8.82886 13.0938 8.82886H12.0977ZM12.0977 12.2449V14.5417H13.7031C14.3281 14.5417 14.7246 14.5242 14.8926 14.489C15.1504 14.4421 15.3594 14.3289 15.5195 14.1492C15.6836 13.9656 15.7656 13.7214 15.7656 13.4167C15.7656 13.1589 15.7031 12.9402 15.5781 12.7605C15.4531 12.5808 15.2715 12.45 15.0332 12.3679C14.7988 12.2859 14.2871 12.2449 13.498 12.2449H12.0977ZM26.7754 15.989H24.8887L24.1387 14.0378H20.7051L19.9961 15.989H18.1562L21.502 7.39917H23.3359L26.7754 15.989ZM23.582 12.5906L22.3984 9.40308L21.2383 12.5906H23.582ZM26.957 15.989V14.4246L31.4688 8.85229H27.4668V7.39917H33.7539V8.74683L29.0488 14.5417H33.9355V15.989H26.957ZM40.2344 14.4597V15.989H34.4629C34.5254 15.4109 34.7129 14.864 35.0254 14.3484C35.3379 13.8289 35.9551 13.1414 36.877 12.2859C37.6191 11.5945 38.0742 11.1257 38.2422 10.8796C38.4688 10.5398 38.582 10.2039 38.582 9.87183C38.582 9.50464 38.4824 9.22339 38.2832 9.02808C38.0879 8.82886 37.8164 8.72925 37.4688 8.72925C37.125 8.72925 36.8516 8.83276 36.6484 9.03979C36.4453 9.24683 36.3281 9.59058 36.2969 10.071L34.6562 9.90698C34.7539 9.00073 35.0605 8.35034 35.5762 7.95581C36.0918 7.56128 36.7363 7.36401 37.5098 7.36401C38.3574 7.36401 39.0234 7.59253 39.5078 8.04956C39.9922 8.50659 40.2344 9.07495 40.2344 9.75464C40.2344 10.1414 40.1641 10.5105 40.0234 10.8621C39.8867 11.2097 39.668 11.575 39.3672 11.9578C39.168 12.2117 38.8086 12.5769 38.2891 13.0535C37.7695 13.53 37.4395 13.8464 37.2988 14.0027C37.1621 14.1589 37.0508 14.3113 36.9648 14.4597H40.2344ZM49.4629 15.989H47.5762L46.8262 14.0378H43.3926L42.6836 15.989H40.8438L44.1895 7.39917H46.0234L49.4629 15.989ZM46.2695 12.5906L45.0859 9.40308L43.9258 12.5906H46.2695Z" fill="white"/>
<defs>
<linearGradient id="paint0_linear_36_1572" x1="29.5" y1="1.98901" x2="29.5" y2="21.989" gradientUnits="userSpaceOnUse">
<stop stop-color="#E36600"/>
<stop offset="1" stop-color="#75FF50"/>
</linearGradient>
</defs>
</svg>
