<svg width="46" height="24" viewBox="0 0 46 24" fill="none" xmlns="http://www.w3.org/2000/svg">
<rect x="2" y="1.98901" width="43" height="20" rx="10" fill="url(#paint0_linear_50_1809)"/>
<rect x="2" y="1.98901" width="43" height="20" rx="10" stroke="#192404" stroke-width="3" stroke-linejoin="round"/>
<path d="M10.3047 15.989V7.39917H12.0391V15.989H10.3047ZM13.709 15.989V7.39917H19.5977V8.85229H15.4434V10.8855H19.0293V12.3386H15.4434V15.989H13.709ZM20.9805 15.989V7.39917H22.7148V15.989H20.9805ZM26.3066 15.989V8.85229H23.7578V7.39917H30.584V8.85229H28.041V15.989H26.3066ZM36.9062 14.4597V15.989H31.1348C31.1973 15.4109 31.3848 14.864 31.6973 14.3484C32.0098 13.8289 32.627 13.1414 33.5488 12.2859C34.291 11.5945 34.7461 11.1257 34.9141 10.8796C35.1406 10.5398 35.2539 10.2039 35.2539 9.87183C35.2539 9.50464 35.1543 9.22339 34.9551 9.02808C34.7598 8.82886 34.4883 8.72925 34.1406 8.72925C33.7969 8.72925 33.5234 8.83276 33.3203 9.03979C33.1172 9.24683 33 9.59058 32.9688 10.071L31.3281 9.90698C31.4258 9.00073 31.7324 8.35034 32.248 7.95581C32.7637 7.56128 33.4082 7.36401 34.1816 7.36401C35.0293 7.36401 35.6953 7.59253 36.1797 8.04956C36.6641 8.50659 36.9062 9.07495 36.9062 9.75464C36.9062 10.1414 36.8359 10.5105 36.6953 10.8621C36.5586 11.2097 36.3398 11.575 36.0391 11.9578C35.8398 12.2117 35.4805 12.5769 34.9609 13.0535C34.4414 13.53 34.1113 13.8464 33.9707 14.0027C33.834 14.1589 33.7227 14.3113 33.6367 14.4597H36.9062Z" fill="white"/>
<defs>
<linearGradient id="paint0_linear_50_1809" x1="23.5" y1="1.98901" x2="23.5" y2="21.989" gradientUnits="userSpaceOnUse">
<stop stop-color="#DEC313"/>
<stop offset="1" stop-color="#192404"/>
</linearGradient>
</defs>
</svg>
