<svg width="49" height="24" viewBox="0 0 49 24" fill="none" xmlns="http://www.w3.org/2000/svg">
<rect x="2" y="1.98901" width="46" height="20" rx="10" fill="url(#paint0_linear_40_2557)"/>
<rect x="2" y="1.98901" width="46" height="20" rx="10" stroke="#D19A2C" stroke-width="3" stroke-linejoin="round"/>
<path d="M10.1875 7.39917H13.3574C14.0723 7.39917 14.6172 7.45386 14.9922 7.56323C15.4961 7.71167 15.9277 7.97534 16.2871 8.35425C16.6465 8.73315 16.9199 9.198 17.1074 9.74878C17.2949 10.2957 17.3887 10.9714 17.3887 11.7761C17.3887 12.4832 17.3008 13.0925 17.125 13.6042C16.9102 14.2292 16.6035 14.7351 16.2051 15.1218C15.9043 15.4148 15.498 15.6433 14.9863 15.8074C14.6035 15.9285 14.0918 15.989 13.4512 15.989H10.1875V7.39917ZM11.9219 8.85229V14.5417H13.2168C13.7012 14.5417 14.0508 14.5144 14.2656 14.4597C14.5469 14.3894 14.7793 14.2703 14.9629 14.1023C15.1504 13.9343 15.3027 13.6589 15.4199 13.2761C15.5371 12.8894 15.5957 12.364 15.5957 11.7C15.5957 11.0359 15.5371 10.5261 15.4199 10.1707C15.3027 9.81519 15.1387 9.53784 14.9277 9.33862C14.7168 9.1394 14.4492 9.00464 14.125 8.93433C13.8828 8.87964 13.4082 8.85229 12.7012 8.85229H11.9219ZM18.8652 15.989V7.39917H21.6484C22.7031 7.39917 23.3906 7.44214 23.7109 7.52808C24.2031 7.65698 24.6152 7.93823 24.9473 8.37183C25.2793 8.80151 25.4453 9.35815 25.4453 10.0417C25.4453 10.5691 25.3496 11.0125 25.1582 11.3718C24.9668 11.7312 24.7227 12.0144 24.4258 12.2214C24.1328 12.4246 23.834 12.5593 23.5293 12.6257C23.1152 12.7078 22.5156 12.7488 21.7305 12.7488H20.5996V15.989H18.8652ZM20.5996 8.85229V11.2898H21.5488C22.2324 11.2898 22.6895 11.2449 22.9199 11.155C23.1504 11.0652 23.3301 10.9246 23.459 10.7332C23.5918 10.5417 23.6582 10.3191 23.6582 10.0652C23.6582 9.75269 23.5664 9.49487 23.3828 9.29175C23.1992 9.08862 22.9668 8.96167 22.6855 8.91089C22.4785 8.87183 22.0625 8.85229 21.4375 8.85229H20.5996ZM26.8691 15.989V7.39917H29.6523C30.707 7.39917 31.3945 7.44214 31.7148 7.52808C32.207 7.65698 32.6191 7.93823 32.9512 8.37183C33.2832 8.80151 33.4492 9.35815 33.4492 10.0417C33.4492 10.5691 33.3535 11.0125 33.1621 11.3718C32.9707 11.7312 32.7266 12.0144 32.4297 12.2214C32.1367 12.4246 31.8379 12.5593 31.5332 12.6257C31.1191 12.7078 30.5195 12.7488 29.7344 12.7488H28.6035V15.989H26.8691ZM28.6035 8.85229V11.2898H29.5527C30.2363 11.2898 30.6934 11.2449 30.9238 11.155C31.1543 11.0652 31.334 10.9246 31.4629 10.7332C31.5957 10.5417 31.6621 10.3191 31.6621 10.0652C31.6621 9.75269 31.5703 9.49487 31.3867 9.29175C31.2031 9.08862 30.9707 8.96167 30.6895 8.91089C30.4824 8.87183 30.0664 8.85229 29.4414 8.85229H28.6035ZM37.7383 15.989V14.2605H34.2227V12.8191L37.9492 7.36401H39.332V12.8132H40.3984V14.2605H39.332V15.989H37.7383ZM37.7383 12.8132V9.87769L35.7637 12.8132H37.7383Z" fill="white"/>
<defs>
<linearGradient id="paint0_linear_40_2557" x1="25" y1="1.98901" x2="25" y2="21.989" gradientUnits="userSpaceOnUse">
<stop stop-color="#D19A2C"/>
<stop offset="1" stop-color="#006ECF"/>
</linearGradient>
</defs>
</svg>
