<svg width="63" height="24" viewBox="0 0 63 24" fill="none" xmlns="http://www.w3.org/2000/svg">
<rect x="2" y="1.98901" width="60" height="20" rx="10" fill="url(#paint0_linear_67_1910)"/>
<rect x="2" y="1.98901" width="60" height="20" rx="10" stroke="#006381" stroke-width="3" stroke-linejoin="round"/>
<path d="M10.1855 15.989V7.39917H13.8359C14.7539 7.39917 15.4199 7.47729 15.834 7.63354C16.252 7.78589 16.5859 8.05933 16.8359 8.45386C17.0859 8.84839 17.2109 9.29956 17.2109 9.80737C17.2109 10.4519 17.0215 10.9851 16.6426 11.407C16.2637 11.825 15.6973 12.0886 14.9434 12.198C15.3184 12.4167 15.627 12.657 15.8691 12.9187C16.1152 13.1804 16.4453 13.6453 16.8594 14.3132L17.9082 15.989H15.834L14.5801 14.1199C14.1348 13.4519 13.8301 13.032 13.666 12.8601C13.502 12.6843 13.3281 12.5652 13.1445 12.5027C12.9609 12.4363 12.6699 12.4031 12.2715 12.4031H11.9199V15.989H10.1855ZM11.9199 11.032H13.2031C14.0352 11.032 14.5547 10.9968 14.7617 10.9265C14.9688 10.8562 15.1309 10.7351 15.248 10.5632C15.3652 10.3914 15.4238 10.1765 15.4238 9.9187C15.4238 9.62964 15.3457 9.39722 15.1895 9.22144C15.0371 9.04175 14.8203 8.92847 14.5391 8.88159C14.3984 8.86206 13.9766 8.85229 13.2734 8.85229H11.9199V11.032ZM18.8691 15.989V7.39917H20.5566L24.0723 13.1355V7.39917H25.6836V15.989H23.9434L20.4805 10.3875V15.989H18.8691ZM28.7422 11.6648L27.248 11.3953C27.416 10.7937 27.7051 10.3484 28.1152 10.0593C28.5254 9.77026 29.1348 9.62573 29.9434 9.62573C30.6777 9.62573 31.2246 9.71362 31.584 9.8894C31.9434 10.0613 32.1953 10.282 32.3398 10.5515C32.4883 10.8171 32.5625 11.3074 32.5625 12.0222L32.5449 13.9441C32.5449 14.491 32.5703 14.8953 32.6211 15.157C32.6758 15.4148 32.7754 15.6921 32.9199 15.989H31.291C31.248 15.8796 31.1953 15.7175 31.1328 15.5027C31.1055 15.405 31.0859 15.3406 31.0742 15.3093C30.793 15.5828 30.4922 15.7878 30.1719 15.9246C29.8516 16.0613 29.5098 16.1296 29.1465 16.1296C28.5059 16.1296 28 15.9558 27.6289 15.6082C27.2617 15.2605 27.0781 14.821 27.0781 14.2898C27.0781 13.9382 27.1621 13.6257 27.3301 13.3523C27.498 13.075 27.7324 12.864 28.0332 12.7195C28.3379 12.571 28.7754 12.4421 29.3457 12.3328C30.1152 12.1882 30.6484 12.0535 30.9453 11.9285V11.7644C30.9453 11.448 30.8672 11.2234 30.7109 11.0906C30.5547 10.9539 30.2598 10.8855 29.8262 10.8855C29.5332 10.8855 29.3047 10.9441 29.1406 11.0613C28.9766 11.1746 28.8438 11.3757 28.7422 11.6648ZM30.9453 13.0007C30.7344 13.071 30.4004 13.155 29.9434 13.2527C29.4863 13.3503 29.1875 13.446 29.0469 13.5398C28.832 13.6921 28.7246 13.8855 28.7246 14.1199C28.7246 14.3503 28.8105 14.5496 28.9824 14.7175C29.1543 14.8855 29.373 14.9695 29.6387 14.9695C29.9355 14.9695 30.2188 14.8718 30.4883 14.6765C30.6875 14.5281 30.8184 14.3464 30.8809 14.1316C30.9238 13.991 30.9453 13.7234 30.9453 13.3289V13.0007ZM33.6113 14.2136L35.2637 13.9617C35.334 14.282 35.4766 14.5261 35.6914 14.6941C35.9062 14.8582 36.207 14.9402 36.5938 14.9402C37.0195 14.9402 37.3398 14.8621 37.5547 14.7058C37.6992 14.5964 37.7715 14.45 37.7715 14.2664C37.7715 14.1414 37.7324 14.0378 37.6543 13.9558C37.5723 13.8777 37.3887 13.8054 37.1035 13.739C35.7754 13.446 34.9336 13.1785 34.5781 12.9363C34.0859 12.6003 33.8398 12.1335 33.8398 11.5359C33.8398 10.9968 34.0527 10.5437 34.4785 10.1765C34.9043 9.80933 35.5645 9.62573 36.459 9.62573C37.3105 9.62573 37.9434 9.7644 38.3574 10.0417C38.7715 10.3191 39.0566 10.7292 39.2129 11.2722L37.6602 11.5593C37.5938 11.3171 37.4668 11.1316 37.2793 11.0027C37.0957 10.8738 36.832 10.8093 36.4883 10.8093C36.0547 10.8093 35.7441 10.8699 35.5566 10.991C35.4316 11.0769 35.3691 11.1882 35.3691 11.325C35.3691 11.4421 35.4238 11.5417 35.5332 11.6238C35.6816 11.7332 36.1934 11.8875 37.0684 12.0867C37.9473 12.2859 38.5605 12.53 38.9082 12.8191C39.252 13.1121 39.4238 13.5203 39.4238 14.0437C39.4238 14.614 39.1855 15.1042 38.709 15.5144C38.2324 15.9246 37.5273 16.1296 36.5938 16.1296C35.7461 16.1296 35.0742 15.9578 34.5781 15.614C34.0859 15.2703 33.7637 14.8035 33.6113 14.2136ZM44.4746 14.0085L46.1152 14.2839C45.9043 14.8855 45.5703 15.3445 45.1133 15.6609C44.6602 15.9734 44.0918 16.1296 43.4082 16.1296C42.3262 16.1296 41.5254 15.7761 41.0059 15.0691C40.5957 14.5027 40.3906 13.7878 40.3906 12.9246C40.3906 11.8933 40.6602 11.0867 41.1992 10.5046C41.7383 9.9187 42.4199 9.62573 43.2441 9.62573C44.1699 9.62573 44.9004 9.93237 45.4355 10.5457C45.9707 11.155 46.2266 12.0906 46.2031 13.3523H42.0781C42.0898 13.8406 42.2227 14.2214 42.4766 14.4949C42.7305 14.7644 43.0469 14.8992 43.4258 14.8992C43.6836 14.8992 43.9004 14.8289 44.0762 14.6882C44.252 14.5476 44.3848 14.321 44.4746 14.0085ZM44.5684 12.3445C44.5566 11.8679 44.4336 11.5066 44.1992 11.2605C43.9648 11.0105 43.6797 10.8855 43.3438 10.8855C42.9844 10.8855 42.6875 11.0164 42.4531 11.2781C42.2188 11.5398 42.1035 11.8953 42.1074 12.3445H44.5684ZM47.5625 15.989V7.39917H50.3457C51.4004 7.39917 52.0879 7.44214 52.4082 7.52808C52.9004 7.65698 53.3125 7.93823 53.6445 8.37183C53.9766 8.80151 54.1426 9.35815 54.1426 10.0417C54.1426 10.5691 54.0469 11.0125 53.8555 11.3718C53.6641 11.7312 53.4199 12.0144 53.123 12.2214C52.8301 12.4246 52.5312 12.5593 52.2266 12.6257C51.8125 12.7078 51.2129 12.7488 50.4277 12.7488H49.2969V15.989H47.5625ZM49.2969 8.85229V11.2898H50.2461C50.9297 11.2898 51.3867 11.2449 51.6172 11.155C51.8477 11.0652 52.0273 10.9246 52.1562 10.7332C52.2891 10.5417 52.3555 10.3191 52.3555 10.0652C52.3555 9.75269 52.2637 9.49487 52.0801 9.29175C51.8965 9.08862 51.6641 8.96167 51.3828 8.91089C51.1758 8.87183 50.7598 8.85229 50.1348 8.85229H49.2969Z" fill="white"/>
<defs>
<linearGradient id="paint0_linear_67_1910" x1="32" y1="1.98901" x2="32" y2="21.989" gradientUnits="userSpaceOnUse">
<stop stop-color="#EEB53E"/>
<stop offset="1" stop-color="#006381"/>
</linearGradient>
</defs>
</svg>
