<svg width="46" height="24" viewBox="0 0 46 24" fill="none" xmlns="http://www.w3.org/2000/svg">
<rect x="2" y="1.98901" width="43" height="20" rx="10" fill="url(#paint0_linear_67_1905)"/>
<rect x="2" y="1.98901" width="43" height="20" rx="10" stroke="#3D4674" stroke-width="3" stroke-linejoin="round"/>
<path d="M10.0352 15.989V7.39917H13.6855C14.6035 7.39917 15.2695 7.47729 15.6836 7.63354C16.1016 7.78589 16.4355 8.05933 16.6855 8.45386C16.9355 8.84839 17.0605 9.29956 17.0605 9.80737C17.0605 10.4519 16.8711 10.9851 16.4922 11.407C16.1133 11.825 15.5469 12.0886 14.793 12.198C15.168 12.4167 15.4766 12.657 15.7188 12.9187C15.9648 13.1804 16.2949 13.6453 16.709 14.3132L17.7578 15.989H15.6836L14.4297 14.1199C13.9844 13.4519 13.6797 13.032 13.5156 12.8601C13.3516 12.6843 13.1777 12.5652 12.9941 12.5027C12.8105 12.4363 12.5195 12.4031 12.1211 12.4031H11.7695V15.989H10.0352ZM11.7695 11.032H13.0527C13.8848 11.032 14.4043 10.9968 14.6113 10.9265C14.8184 10.8562 14.9805 10.7351 15.0977 10.5632C15.2148 10.3914 15.2734 10.1765 15.2734 9.9187C15.2734 9.62964 15.1953 9.39722 15.0391 9.22144C14.8867 9.04175 14.6699 8.92847 14.3887 8.88159C14.248 8.86206 13.8262 8.85229 13.123 8.85229H11.7695V11.032ZM18.7012 15.989V7.39917H21.4844C22.5391 7.39917 23.2266 7.44214 23.5469 7.52808C24.0391 7.65698 24.4512 7.93823 24.7832 8.37183C25.1152 8.80151 25.2812 9.35815 25.2812 10.0417C25.2812 10.5691 25.1855 11.0125 24.9941 11.3718C24.8027 11.7312 24.5586 12.0144 24.2617 12.2214C23.9688 12.4246 23.6699 12.5593 23.3652 12.6257C22.9512 12.7078 22.3516 12.7488 21.5664 12.7488H20.4355V15.989H18.7012ZM20.4355 8.85229V11.2898H21.3848C22.0684 11.2898 22.5254 11.2449 22.7559 11.155C22.9863 11.0652 23.166 10.9246 23.2949 10.7332C23.4277 10.5417 23.4941 10.3191 23.4941 10.0652C23.4941 9.75269 23.4023 9.49487 23.2188 9.29175C23.0352 9.08862 22.8027 8.96167 22.5215 8.91089C22.3145 8.87183 21.8984 8.85229 21.2734 8.85229H20.4355ZM26.6523 15.989V7.39917H28.3867V15.989H26.6523ZM37.791 15.989H35.9043L35.1543 14.0378H31.7207L31.0117 15.989H29.1719L32.5176 7.39917H34.3516L37.791 15.989ZM34.5977 12.5906L33.4141 9.40308L32.2539 12.5906H34.5977Z" fill="white"/>
<defs>
<linearGradient id="paint0_linear_67_1905" x1="23.5" y1="1.98901" x2="23.5" y2="21.989" gradientUnits="userSpaceOnUse">
<stop stop-color="#FFA600"/>
<stop offset="1" stop-color="#3D4674"/>
</linearGradient>
</defs>
</svg>
