<svg width="37" height="24" viewBox="0 0 37 24" fill="none" xmlns="http://www.w3.org/2000/svg">
<rect x="2" y="1.98901" width="34" height="20" rx="10" fill="url(#paint0_linear_64_1838)"/>
<rect x="2" y="1.98901" width="34" height="20" rx="10" stroke="#FF9343" stroke-width="3" stroke-linejoin="round"/>
<path d="M11.1836 15.989V7.39917H13.7793L15.3379 13.2585L16.8789 7.39917H19.4805V15.989H17.8691V9.22729L16.1641 15.989H14.4941L12.7949 9.22729V15.989H11.1836ZM21.1211 15.989V7.39917H22.7676V10.4929C23.2754 9.91479 23.877 9.62573 24.5723 9.62573C25.3301 9.62573 25.957 9.90112 26.4531 10.4519C26.9492 10.9988 27.1973 11.7859 27.1973 12.8132C27.1973 13.8757 26.9434 14.6941 26.4355 15.2683C25.9316 15.8425 25.3184 16.1296 24.5957 16.1296C24.2402 16.1296 23.8887 16.0417 23.541 15.866C23.1973 15.6863 22.9004 15.4226 22.6504 15.075V15.989H21.1211ZM22.7559 12.7429C22.7559 13.3875 22.8574 13.864 23.0605 14.1726C23.3457 14.6101 23.7246 14.8289 24.1973 14.8289C24.5605 14.8289 24.8691 14.6746 25.123 14.366C25.3809 14.0535 25.5098 13.5632 25.5098 12.8953C25.5098 12.1843 25.3809 11.6726 25.123 11.3601C24.8652 11.0437 24.5352 10.8855 24.1328 10.8855C23.7383 10.8855 23.4102 11.0398 23.1484 11.3484C22.8867 11.6531 22.7559 12.1179 22.7559 12.7429Z" fill="white"/>
<defs>
<linearGradient id="paint0_linear_64_1838" x1="19" y1="1.98901" x2="19" y2="21.989" gradientUnits="userSpaceOnUse">
<stop stop-color="#FF9343"/>
<stop offset="1" stop-color="#169BD1"/>
</linearGradient>
</defs>
</svg>
