<svg width="51" height="24" viewBox="0 0 51 24" fill="none" xmlns="http://www.w3.org/2000/svg">
<rect x="2" y="1.98901" width="48" height="20" rx="10" fill="url(#paint0_linear_63_1805)"/>
<rect x="2" y="1.98901" width="48" height="20" rx="10" stroke="#0D07C7" stroke-width="3" stroke-linejoin="round"/>
<path d="M10.1738 15.989V7.39917H12.7695L14.3281 13.2585L15.8691 7.39917H18.4707V15.989H16.8594V9.22729L15.1543 15.989H13.4844L11.7852 9.22729V15.989H10.1738ZM19.7539 13.1941L21.4414 13.03C21.543 13.5964 21.748 14.0125 22.0566 14.2781C22.3691 14.5437 22.7891 14.6765 23.3164 14.6765C23.875 14.6765 24.2949 14.5593 24.5762 14.325C24.8613 14.0867 25.0039 13.8093 25.0039 13.4929C25.0039 13.2898 24.9434 13.1179 24.8223 12.9773C24.7051 12.8328 24.498 12.7078 24.2012 12.6023C23.998 12.532 23.5352 12.407 22.8125 12.2273C21.8828 11.9968 21.2305 11.7136 20.8555 11.3777C20.3281 10.905 20.0645 10.3289 20.0645 9.64917C20.0645 9.21167 20.1875 8.80347 20.4336 8.42456C20.6836 8.04175 21.041 7.75073 21.5059 7.55151C21.9746 7.35229 22.5391 7.25269 23.1992 7.25269C24.2773 7.25269 25.0879 7.48901 25.6309 7.96167C26.1777 8.43433 26.4648 9.06519 26.4922 9.85425L24.7578 9.93042C24.6836 9.48901 24.5234 9.17261 24.2773 8.9812C24.0352 8.78589 23.6699 8.68823 23.1816 8.68823C22.6777 8.68823 22.2832 8.79175 21.998 8.99878C21.8145 9.13159 21.7227 9.30933 21.7227 9.53198C21.7227 9.73511 21.8086 9.90894 21.9805 10.0535C22.1992 10.2371 22.7305 10.4285 23.5742 10.6277C24.418 10.8269 25.041 11.0339 25.4434 11.2488C25.8496 11.4597 26.166 11.7507 26.3926 12.1218C26.623 12.489 26.7383 12.9441 26.7383 13.4871C26.7383 13.9792 26.6016 14.4402 26.3281 14.8699C26.0547 15.2996 25.668 15.6199 25.168 15.8308C24.668 16.0378 24.0449 16.1414 23.2988 16.1414C22.2129 16.1414 21.3789 15.8914 20.7969 15.3914C20.2148 14.8875 19.8672 14.155 19.7539 13.1941ZM28.2031 15.989V7.39917H29.9375V10.78H33.3359V7.39917H35.0703V15.989H33.3359V12.2332H29.9375V15.989H28.2031ZM42.084 9.50269L40.4902 9.67847C40.4512 9.35034 40.3496 9.10815 40.1855 8.9519C40.0215 8.79565 39.8086 8.71753 39.5469 8.71753C39.1992 8.71753 38.9043 8.87378 38.6621 9.18628C38.4238 9.49878 38.2734 10.1492 38.2109 11.1375C38.6211 10.6531 39.1309 10.4109 39.7402 10.4109C40.4277 10.4109 41.0156 10.6726 41.5039 11.196C41.9961 11.7195 42.2422 12.3953 42.2422 13.2234C42.2422 14.1023 41.9844 14.8074 41.4688 15.3386C40.9531 15.8699 40.291 16.1355 39.4824 16.1355C38.6152 16.1355 37.9023 15.7996 37.3438 15.1277C36.7852 14.4519 36.5059 13.3464 36.5059 11.8113C36.5059 10.2371 36.7969 9.10229 37.3789 8.40698C37.9609 7.71167 38.7168 7.36401 39.6465 7.36401C40.2988 7.36401 40.8379 7.54761 41.2637 7.91479C41.6934 8.27808 41.9668 8.80737 42.084 9.50269ZM38.3516 13.0945C38.3516 13.6296 38.4746 14.0437 38.7207 14.3367C38.9668 14.6257 39.248 14.7703 39.5645 14.7703C39.8691 14.7703 40.123 14.6511 40.3262 14.4128C40.5293 14.1746 40.6309 13.7839 40.6309 13.241C40.6309 12.6824 40.5215 12.2742 40.3027 12.0164C40.084 11.7546 39.8105 11.6238 39.4824 11.6238C39.166 11.6238 38.8984 11.7488 38.6797 11.9988C38.4609 12.2449 38.3516 12.6101 38.3516 13.0945Z" fill="white"/>
<defs>
<linearGradient id="paint0_linear_63_1805" x1="26" y1="1.98901" x2="26" y2="21.989" gradientUnits="userSpaceOnUse">
<stop stop-color="#55A1FF"/>
<stop offset="1" stop-color="#0D07C7"/>
</linearGradient>
</defs>
</svg>
