<svg width="44" height="24" viewBox="0 0 44 24" fill="none" xmlns="http://www.w3.org/2000/svg">
<rect x="2" y="1.98901" width="41" height="20" rx="10" fill="url(#paint0_linear_67_1871)"/>
<rect x="2" y="1.98901" width="41" height="20" rx="10" stroke="#D7411F" stroke-width="3" stroke-linejoin="round"/>
<path d="M10.0371 15.989V7.39917H13.6875C14.6055 7.39917 15.2715 7.47729 15.6855 7.63354C16.1035 7.78589 16.4375 8.05933 16.6875 8.45386C16.9375 8.84839 17.0625 9.29956 17.0625 9.80737C17.0625 10.4519 16.873 10.9851 16.4941 11.407C16.1152 11.825 15.5488 12.0886 14.7949 12.198C15.1699 12.4167 15.4785 12.657 15.7207 12.9187C15.9668 13.1804 16.2969 13.6453 16.7109 14.3132L17.7598 15.989H15.6855L14.4316 14.1199C13.9863 13.4519 13.6816 13.032 13.5176 12.8601C13.3535 12.6843 13.1797 12.5652 12.9961 12.5027C12.8125 12.4363 12.5215 12.4031 12.123 12.4031H11.7715V15.989H10.0371ZM11.7715 11.032H13.0547C13.8867 11.032 14.4062 10.9968 14.6133 10.9265C14.8203 10.8562 14.9824 10.7351 15.0996 10.5632C15.2168 10.3914 15.2754 10.1765 15.2754 9.9187C15.2754 9.62964 15.1973 9.39722 15.041 9.22144C14.8887 9.04175 14.6719 8.92847 14.3906 8.88159C14.25 8.86206 13.8281 8.85229 13.125 8.85229H11.7715V11.032ZM18.709 15.989V7.39917H20.4434V10.78H23.8418V7.39917H25.5762V15.989H23.8418V12.2332H20.4434V15.989H18.709ZM27.0234 11.7468C27.0234 10.8718 27.1543 10.1375 27.416 9.5437C27.6113 9.1062 27.877 8.71362 28.2129 8.36597C28.5527 8.01831 28.9238 7.7605 29.3262 7.59253C29.8613 7.36597 30.4785 7.25269 31.1777 7.25269C32.4434 7.25269 33.4551 7.64526 34.2129 8.43042C34.9746 9.21558 35.3555 10.3074 35.3555 11.7058C35.3555 13.0925 34.9785 14.1785 34.2246 14.9636C33.4707 15.7449 32.4629 16.1355 31.2012 16.1355C29.9238 16.1355 28.9082 15.7468 28.1543 14.9695C27.4004 14.1882 27.0234 13.114 27.0234 11.7468ZM28.8105 11.6882C28.8105 12.6609 29.0352 13.3992 29.4844 13.9031C29.9336 14.4031 30.5039 14.6531 31.1953 14.6531C31.8867 14.6531 32.4531 14.405 32.8945 13.9089C33.3398 13.4089 33.5625 12.6609 33.5625 11.6648C33.5625 10.6804 33.3457 9.94604 32.9121 9.46167C32.4824 8.97729 31.9102 8.73511 31.1953 8.73511C30.4805 8.73511 29.9043 8.9812 29.4668 9.47339C29.0293 9.96167 28.8105 10.7 28.8105 11.6882Z" fill="white"/>
<defs>
<linearGradient id="paint0_linear_67_1871" x1="22.5" y1="1.98901" x2="22.5" y2="21.989" gradientUnits="userSpaceOnUse">
<stop stop-color="#D7411F"/>
<stop offset="1" stop-color="#B8CDD5"/>
</linearGradient>
</defs>
</svg>
