<svg width="40" height="24" viewBox="0 0 40 24" fill="none" xmlns="http://www.w3.org/2000/svg">
<rect x="2" y="1.98901" width="37" height="20" rx="10" fill="url(#paint0_linear_37_1830)"/>
<rect x="2" y="1.98901" width="37" height="20" rx="10" stroke="#54A0D3" stroke-width="3" stroke-linejoin="round"/>
<path d="M15.8535 12.8308L17.5352 13.364C17.2773 14.3015 16.8477 14.9988 16.2461 15.4558C15.6484 15.9089 14.8887 16.1355 13.9668 16.1355C12.8262 16.1355 11.8887 15.7468 11.1543 14.9695C10.4199 14.1882 10.0527 13.1218 10.0527 11.7703C10.0527 10.3406 10.4219 9.2312 11.1602 8.44214C11.8984 7.64917 12.8691 7.25269 14.0723 7.25269C15.123 7.25269 15.9766 7.56323 16.6328 8.18433C17.0234 8.55151 17.3164 9.07886 17.5117 9.76636L15.7949 10.1765C15.6934 9.7312 15.4805 9.37964 15.1562 9.12183C14.8359 8.86401 14.4453 8.73511 13.9844 8.73511C13.3477 8.73511 12.8301 8.96362 12.4316 9.42065C12.0371 9.87769 11.8398 10.6179 11.8398 11.6414C11.8398 12.7273 12.0352 13.5007 12.4258 13.9617C12.8164 14.4226 13.3242 14.6531 13.9492 14.6531C14.4102 14.6531 14.8066 14.5066 15.1387 14.2136C15.4707 13.9207 15.709 13.4597 15.8535 12.8308ZM18.6895 13.78L20.3301 13.6101C20.377 13.9812 20.5156 14.2761 20.7461 14.4949C20.9766 14.7097 21.2422 14.8171 21.543 14.8171C21.8867 14.8171 22.1777 14.6785 22.416 14.4011C22.6543 14.1199 22.7734 13.698 22.7734 13.1355C22.7734 12.6082 22.6543 12.2136 22.416 11.9519C22.1816 11.6863 21.875 11.5535 21.4961 11.5535C21.0234 11.5535 20.5996 11.7625 20.2246 12.1804L18.8887 11.9871L19.7324 7.51636H24.0859V9.05737H20.9805L20.7227 10.5164C21.0898 10.3328 21.4648 10.241 21.8477 10.241C22.5781 10.241 23.1973 10.5066 23.7051 11.0378C24.2129 11.5691 24.4668 12.2585 24.4668 13.1062C24.4668 13.8132 24.2617 14.4441 23.8516 14.9988C23.293 15.7566 22.5176 16.1355 21.5254 16.1355C20.7324 16.1355 20.0859 15.9226 19.5859 15.4968C19.0859 15.071 18.7871 14.4988 18.6895 13.78ZM26.9277 11.6648L25.4336 11.3953C25.6016 10.7937 25.8906 10.3484 26.3008 10.0593C26.7109 9.77026 27.3203 9.62573 28.1289 9.62573C28.8633 9.62573 29.4102 9.71362 29.7695 9.8894C30.1289 10.0613 30.3809 10.282 30.5254 10.5515C30.6738 10.8171 30.748 11.3074 30.748 12.0222L30.7305 13.9441C30.7305 14.491 30.7559 14.8953 30.8066 15.157C30.8613 15.4148 30.9609 15.6921 31.1055 15.989H29.4766C29.4336 15.8796 29.3809 15.7175 29.3184 15.5027C29.291 15.405 29.2715 15.3406 29.2598 15.3093C28.9785 15.5828 28.6777 15.7878 28.3574 15.9246C28.0371 16.0613 27.6953 16.1296 27.332 16.1296C26.6914 16.1296 26.1855 15.9558 25.8145 15.6082C25.4473 15.2605 25.2637 14.821 25.2637 14.2898C25.2637 13.9382 25.3477 13.6257 25.5156 13.3523C25.6836 13.075 25.918 12.864 26.2188 12.7195C26.5234 12.571 26.9609 12.4421 27.5312 12.3328C28.3008 12.1882 28.834 12.0535 29.1309 11.9285V11.7644C29.1309 11.448 29.0527 11.2234 28.8965 11.0906C28.7402 10.9539 28.4453 10.8855 28.0117 10.8855C27.7188 10.8855 27.4902 10.9441 27.3262 11.0613C27.1621 11.1746 27.0293 11.3757 26.9277 11.6648ZM29.1309 13.0007C28.9199 13.071 28.5859 13.155 28.1289 13.2527C27.6719 13.3503 27.373 13.446 27.2324 13.5398C27.0176 13.6921 26.9102 13.8855 26.9102 14.1199C26.9102 14.3503 26.9961 14.5496 27.168 14.7175C27.3398 14.8855 27.5586 14.9695 27.8242 14.9695C28.1211 14.9695 28.4043 14.8718 28.6738 14.6765C28.873 14.5281 29.0039 14.3464 29.0664 14.1316C29.1094 13.991 29.1309 13.7234 29.1309 13.3289V13.0007Z" fill="white"/>
<defs>
<linearGradient id="paint0_linear_37_1830" x1="20.5" y1="1.98901" x2="20.5" y2="21.989" gradientUnits="userSpaceOnUse">
<stop stop-color="#1F3F53"/>
<stop offset="1" stop-color="#54A0D3"/>
</linearGradient>
</defs>
</svg>
