<svg width="50" height="24" viewBox="0 0 50 24" fill="none" xmlns="http://www.w3.org/2000/svg">
<rect x="2" y="1.98901" width="47" height="20" rx="10" fill="url(#paint0_linear_11_385)"/>
<rect x="2" y="1.98901" width="47" height="20" rx="10" stroke="#8B00A3" stroke-width="3" stroke-linejoin="round"/>
<path d="M10.3652 15.989V7.39917H13.1484C14.2031 7.39917 14.8906 7.44214 15.2109 7.52808C15.7031 7.65698 16.1152 7.93823 16.4473 8.37183C16.7793 8.80151 16.9453 9.35815 16.9453 10.0417C16.9453 10.5691 16.8496 11.0125 16.6582 11.3718C16.4668 11.7312 16.2227 12.0144 15.9258 12.2214C15.6328 12.4246 15.334 12.5593 15.0293 12.6257C14.6152 12.7078 14.0156 12.7488 13.2305 12.7488H12.0996V15.989H10.3652ZM12.0996 8.85229V11.2898H13.0488C13.7324 11.2898 14.1895 11.2449 14.4199 11.155C14.6504 11.0652 14.8301 10.9246 14.959 10.7332C15.0918 10.5417 15.1582 10.3191 15.1582 10.0652C15.1582 9.75269 15.0664 9.49487 14.8828 9.29175C14.6992 9.08862 14.4668 8.96167 14.1855 8.91089C13.9785 8.87183 13.5625 8.85229 12.9375 8.85229H12.0996ZM20.3027 15.989V8.85229H17.7539V7.39917H24.5801V8.85229H22.0371V15.989H20.3027ZM25.7051 15.989V7.39917H32.0742V8.85229H27.4395V10.7566H31.752V12.2039H27.4395V14.5417H32.2383V15.989H25.7051ZM33.7266 15.989V7.39917H35.4141L38.9297 13.1355V7.39917H40.541V15.989H38.8008L35.3379 10.3875V15.989H33.7266Z" fill="white"/>
<defs>
<linearGradient id="paint0_linear_11_385" x1="25.5" y1="1.98901" x2="25.5" y2="21.989" gradientUnits="userSpaceOnUse">
<stop stop-color="#BDE5CF"/>
<stop offset="1" stop-color="#8B00A3"/>
</linearGradient>
</defs>
</svg>
