<svg width="65" height="24" viewBox="0 0 65 24" fill="none" xmlns="http://www.w3.org/2000/svg">
<rect x="1" y="1.98901" width="63" height="20" rx="10" fill="url(#paint0_linear_50_1839)"/>
<rect x="1" y="1.98901" width="63" height="20" rx="10" stroke="#344BB0" stroke-width="3" stroke-linejoin="round"/>
<path d="M8.99805 15.989V7.39917H11.5938L13.1523 13.2585L14.6934 7.39917H17.2949V15.989H15.6836V9.22729L13.9785 15.989H12.3086L10.6094 9.22729V15.989H8.99805ZM26.7637 15.989H24.877L24.127 14.0378H20.6934L19.9844 15.989H18.1445L21.4902 7.39917H23.3242L26.7637 15.989ZM23.5703 12.5906L22.3867 9.40308L21.2266 12.5906H23.5703ZM27.6895 15.989V7.39917H30.4727C31.5273 7.39917 32.2148 7.44214 32.5352 7.52808C33.0273 7.65698 33.4395 7.93823 33.7715 8.37183C34.1035 8.80151 34.2695 9.35815 34.2695 10.0417C34.2695 10.5691 34.1738 11.0125 33.9824 11.3718C33.791 11.7312 33.5469 12.0144 33.25 12.2214C32.957 12.4246 32.6582 12.5593 32.3535 12.6257C31.9395 12.7078 31.3398 12.7488 30.5547 12.7488H29.4238V15.989H27.6895ZM29.4238 8.85229V11.2898H30.373C31.0566 11.2898 31.5137 11.2449 31.7441 11.155C31.9746 11.0652 32.1543 10.9246 32.2832 10.7332C32.416 10.5417 32.4824 10.3191 32.4824 10.0652C32.4824 9.75269 32.3906 9.49487 32.207 9.29175C32.0234 9.08862 31.791 8.96167 31.5098 8.91089C31.3027 8.87183 30.8867 8.85229 30.2617 8.85229H29.4238ZM35.7168 15.989V7.39917H37.4512V11.2136L40.9551 7.39917H43.2871L40.0527 10.7449L43.4629 15.989H41.2188L38.8574 11.9578L37.4512 13.3933V15.989H35.7168ZM48.2148 15.989H46.5684V9.78394C45.9668 10.3464 45.2578 10.7625 44.4414 11.032V9.53784C44.8711 9.39722 45.3379 9.13159 45.8418 8.74097C46.3457 8.34644 46.6914 7.88745 46.8789 7.36401H48.2148V15.989ZM50.7051 13.78L52.3457 13.6101C52.3926 13.9812 52.5312 14.2761 52.7617 14.4949C52.9922 14.7097 53.2578 14.8171 53.5586 14.8171C53.9023 14.8171 54.1934 14.6785 54.4316 14.4011C54.6699 14.1199 54.7891 13.698 54.7891 13.1355C54.7891 12.6082 54.6699 12.2136 54.4316 11.9519C54.1973 11.6863 53.8906 11.5535 53.5117 11.5535C53.0391 11.5535 52.6152 11.7625 52.2402 12.1804L50.9043 11.9871L51.748 7.51636H56.1016V9.05737H52.9961L52.7383 10.5164C53.1055 10.3328 53.4805 10.241 53.8633 10.241C54.5938 10.241 55.2129 10.5066 55.7207 11.0378C56.2285 11.5691 56.4824 12.2585 56.4824 13.1062C56.4824 13.8132 56.2773 14.4441 55.8672 14.9988C55.3086 15.7566 54.5332 16.1355 53.541 16.1355C52.748 16.1355 52.1016 15.9226 51.6016 15.4968C51.1016 15.071 50.8027 14.4988 50.7051 13.78Z" fill="white"/>
<defs>
<linearGradient id="paint0_linear_50_1839" x1="32.5" y1="1.98901" x2="32.5" y2="21.989" gradientUnits="userSpaceOnUse">
<stop stop-color="#344BB0"/>
<stop offset="1" stop-color="#315900"/>
</linearGradient>
</defs>
</svg>
