<svg width="48" height="24" viewBox="0 0 48 24" fill="none" xmlns="http://www.w3.org/2000/svg">
<rect x="2" y="1.98901" width="45" height="20" rx="10" fill="url(#paint0_linear_83_1968)"/>
<rect x="2" y="1.98901" width="45" height="20" rx="10" stroke="#6D6A4B" stroke-width="3" stroke-linejoin="round"/>
<path d="M12.0723 15.989V8.85229H9.52344V7.39917H16.3496V8.85229H13.8066V15.989H12.0723ZM24.3301 15.989H22.4434L21.6934 14.0378H18.2598L17.5508 15.989H15.7109L19.0566 7.39917H20.8906L24.3301 15.989ZM21.1367 12.5906L19.9531 9.40308L18.793 12.5906H21.1367ZM25.2617 7.39917H28.6953C29.375 7.39917 29.8809 7.42847 30.2129 7.48706C30.5488 7.54175 30.8477 7.65894 31.1094 7.83862C31.375 8.01831 31.5957 8.25854 31.7715 8.55933C31.9473 8.8562 32.0352 9.19019 32.0352 9.56128C32.0352 9.96362 31.9258 10.3328 31.707 10.6687C31.4922 11.0046 31.1992 11.2566 30.8281 11.4246C31.3516 11.5769 31.7539 11.8367 32.0352 12.2039C32.3164 12.571 32.457 13.0027 32.457 13.4988C32.457 13.8894 32.3652 14.2703 32.1816 14.6414C32.002 15.0085 31.7539 15.3035 31.4375 15.5261C31.125 15.7449 30.7383 15.8796 30.2773 15.9304C29.9883 15.9617 29.291 15.9812 28.1855 15.989H25.2617V7.39917ZM26.9961 8.82886V10.8152H28.1328C28.8086 10.8152 29.2285 10.8054 29.3926 10.7859C29.6895 10.7507 29.9219 10.6492 30.0898 10.4812C30.2617 10.3093 30.3477 10.0847 30.3477 9.80737C30.3477 9.54175 30.2734 9.3269 30.125 9.16284C29.9805 8.99487 29.7637 8.89331 29.4746 8.85815C29.3027 8.83862 28.8086 8.82886 27.9922 8.82886H26.9961ZM26.9961 12.2449V14.5417H28.6016C29.2266 14.5417 29.623 14.5242 29.791 14.489C30.0488 14.4421 30.2578 14.3289 30.418 14.1492C30.582 13.9656 30.6641 13.7214 30.6641 13.4167C30.6641 13.1589 30.6016 12.9402 30.4766 12.7605C30.3516 12.5808 30.1699 12.45 29.9316 12.3679C29.6973 12.2859 29.1855 12.2449 28.3965 12.2449H26.9961ZM39.125 14.4597V15.989H33.3535C33.416 15.4109 33.6035 14.864 33.916 14.3484C34.2285 13.8289 34.8457 13.1414 35.7676 12.2859C36.5098 11.5945 36.9648 11.1257 37.1328 10.8796C37.3594 10.5398 37.4727 10.2039 37.4727 9.87183C37.4727 9.50464 37.373 9.22339 37.1738 9.02808C36.9785 8.82886 36.707 8.72925 36.3594 8.72925C36.0156 8.72925 35.7422 8.83276 35.5391 9.03979C35.3359 9.24683 35.2188 9.59058 35.1875 10.071L33.5469 9.90698C33.6445 9.00073 33.9512 8.35034 34.4668 7.95581C34.9824 7.56128 35.627 7.36401 36.4004 7.36401C37.248 7.36401 37.9141 7.59253 38.3984 8.04956C38.8828 8.50659 39.125 9.07495 39.125 9.75464C39.125 10.1414 39.0547 10.5105 38.9141 10.8621C38.7773 11.2097 38.5586 11.575 38.2578 11.9578C38.0586 12.2117 37.6992 12.5769 37.1797 13.0535C36.6602 13.53 36.3301 13.8464 36.1895 14.0027C36.0527 14.1589 35.9414 14.3113 35.8555 14.4597H39.125Z" fill="white"/>
<defs>
<linearGradient id="paint0_linear_83_1968" x1="24.5" y1="1.98901" x2="24.5" y2="21.989" gradientUnits="userSpaceOnUse">
<stop stop-color="#6D6A4B"/>
<stop offset="1" stop-color="#DBA400"/>
</linearGradient>
</defs>
</svg>
