<svg width="80" height="36" viewBox="0 0 80 36" fill="none" xmlns="http://www.w3.org/2000/svg">
<rect x="2" y="1.98901" width="77" height="32" rx="10" fill="url(#paint0_linear_38_1851)"/>
<rect x="2" y="1.98901" width="77" height="32" rx="10" stroke="#4A001C" stroke-width="3" stroke-linejoin="round"/>
<path d="M15.8496 11.8308L17.5312 12.364C17.2734 13.3015 16.8438 13.9988 16.2422 14.4558C15.6445 14.9089 14.8848 15.1355 13.9629 15.1355C12.8223 15.1355 11.8848 14.7468 11.1504 13.9695C10.416 13.1882 10.0488 12.1218 10.0488 10.7703C10.0488 9.34058 10.418 8.2312 11.1562 7.44214C11.8945 6.64917 12.8652 6.25269 14.0684 6.25269C15.1191 6.25269 15.9727 6.56323 16.6289 7.18433C17.0195 7.55151 17.3125 8.07886 17.5078 8.76636L15.791 9.17651C15.6895 8.7312 15.4766 8.37964 15.1523 8.12183C14.832 7.86401 14.4414 7.73511 13.9805 7.73511C13.3438 7.73511 12.8262 7.96362 12.4277 8.42065C12.0332 8.87769 11.8359 9.61792 11.8359 10.6414C11.8359 11.7273 12.0312 12.5007 12.4219 12.9617C12.8125 13.4226 13.3203 13.6531 13.9453 13.6531C14.4062 13.6531 14.8027 13.5066 15.1348 13.2136C15.4668 12.9207 15.7051 12.4597 15.8496 11.8308ZM24.5215 11.8308L26.2031 12.364C25.9453 13.3015 25.5156 13.9988 24.9141 14.4558C24.3164 14.9089 23.5566 15.1355 22.6348 15.1355C21.4941 15.1355 20.5566 14.7468 19.8223 13.9695C19.0879 13.1882 18.7207 12.1218 18.7207 10.7703C18.7207 9.34058 19.0898 8.2312 19.8281 7.44214C20.5664 6.64917 21.5371 6.25269 22.7402 6.25269C23.791 6.25269 24.6445 6.56323 25.3008 7.18433C25.6914 7.55151 25.9844 8.07886 26.1797 8.76636L24.4629 9.17651C24.3613 8.7312 24.1484 8.37964 23.8242 8.12183C23.5039 7.86401 23.1133 7.73511 22.6523 7.73511C22.0156 7.73511 21.498 7.96362 21.0996 8.42065C20.7051 8.87769 20.5078 9.61792 20.5078 10.6414C20.5078 11.7273 20.7031 12.5007 21.0938 12.9617C21.4844 13.4226 21.9922 13.6531 22.6172 13.6531C23.0781 13.6531 23.4746 13.5066 23.8066 13.2136C24.1387 12.9207 24.377 12.4597 24.5215 11.8308ZM27.7031 14.989V6.39917H31.3535C32.2715 6.39917 32.9375 6.47729 33.3516 6.63354C33.7695 6.78589 34.1035 7.05933 34.3535 7.45386C34.6035 7.84839 34.7285 8.29956 34.7285 8.80737C34.7285 9.4519 34.5391 9.98511 34.1602 10.407C33.7812 10.825 33.2148 11.0886 32.4609 11.198C32.8359 11.4167 33.1445 11.657 33.3867 11.9187C33.6328 12.1804 33.9629 12.6453 34.377 13.3132L35.4258 14.989H33.3516L32.0977 13.1199C31.6523 12.4519 31.3477 12.032 31.1836 11.8601C31.0195 11.6843 30.8457 11.5652 30.6621 11.5027C30.4785 11.4363 30.1875 11.4031 29.7891 11.4031H29.4375V14.989H27.7031ZM29.4375 10.032H30.7207C31.5527 10.032 32.0723 9.99683 32.2793 9.92651C32.4863 9.8562 32.6484 9.73511 32.7656 9.56323C32.8828 9.39136 32.9414 9.17651 32.9414 8.9187C32.9414 8.62964 32.8633 8.39722 32.707 8.22144C32.5547 8.04175 32.3379 7.92847 32.0566 7.88159C31.916 7.86206 31.4941 7.85229 30.791 7.85229H29.4375V10.032ZM39.2344 14.989V13.2605H35.7188V11.8191L39.4453 6.36401H40.8281V11.8132H41.8945V13.2605H40.8281V14.989H39.2344ZM39.2344 11.8132V8.87769L37.2598 11.8132H39.2344ZM42.8496 12.698V11.0515H46.084V12.698H42.8496ZM47.0625 14.989V6.39917H48.75L52.2656 12.1355V6.39917H53.877V14.989H52.1367L48.6738 9.38745V14.989H47.0625ZM55.3652 10.7468C55.3652 9.87183 55.4961 9.13745 55.7578 8.5437C55.9531 8.1062 56.2188 7.71362 56.5547 7.36597C56.8945 7.01831 57.2656 6.7605 57.668 6.59253C58.2031 6.36597 58.8203 6.25269 59.5195 6.25269C60.7852 6.25269 61.7969 6.64526 62.5547 7.43042C63.3164 8.21558 63.6973 9.30737 63.6973 10.7058C63.6973 12.0925 63.3203 13.1785 62.5664 13.9636C61.8125 14.7449 60.8047 15.1355 59.543 15.1355C58.2656 15.1355 57.25 14.7468 56.4961 13.9695C55.7422 13.1882 55.3652 12.114 55.3652 10.7468ZM57.1523 10.6882C57.1523 11.6609 57.377 12.3992 57.8262 12.9031C58.2754 13.4031 58.8457 13.6531 59.5371 13.6531C60.2285 13.6531 60.7949 13.405 61.2363 12.9089C61.6816 12.4089 61.9043 11.6609 61.9043 10.6648C61.9043 9.68042 61.6875 8.94604 61.2539 8.46167C60.8242 7.97729 60.252 7.73511 59.5371 7.73511C58.8223 7.73511 58.2461 7.9812 57.8086 8.47339C57.3711 8.96167 57.1523 9.69995 57.1523 10.6882ZM66.9902 14.989V7.85229H64.4414V6.39917H71.2676V7.85229H68.7246V14.989H66.9902ZM22.4238 24.6062L20.8008 24.8992C20.7461 24.575 20.6211 24.3308 20.4258 24.1667C20.2344 24.0027 19.9844 23.9207 19.6758 23.9207C19.2656 23.9207 18.9375 24.0632 18.6914 24.3484C18.4492 24.6296 18.3281 25.1023 18.3281 25.7664C18.3281 26.5046 18.4512 27.0261 18.6973 27.3308C18.9473 27.6355 19.2812 27.7878 19.6992 27.7878C20.0117 27.7878 20.2676 27.7 20.4668 27.5242C20.666 27.3445 20.8066 27.0378 20.8887 26.6042L22.5059 26.8796C22.3379 27.6218 22.0156 28.1824 21.5391 28.5613C21.0625 28.9402 20.4238 29.1296 19.623 29.1296C18.7129 29.1296 17.9863 28.8425 17.4434 28.2683C16.9043 27.6941 16.6348 26.8992 16.6348 25.8835C16.6348 24.8562 16.9062 24.0574 17.4492 23.4871C17.9922 22.9128 18.7266 22.6257 19.6523 22.6257C20.4102 22.6257 21.0117 22.7898 21.457 23.1179C21.9062 23.4421 22.2285 23.9382 22.4238 24.6062ZM23.2969 25.7898C23.2969 25.2429 23.4316 24.7136 23.7012 24.2019C23.9707 23.6902 24.3516 23.2996 24.8438 23.03C25.3398 22.7605 25.8926 22.6257 26.502 22.6257C27.4434 22.6257 28.2148 22.9324 28.8164 23.5457C29.418 24.155 29.7188 24.9265 29.7188 25.8601C29.7188 26.8015 29.4141 27.5828 28.8047 28.2039C28.1992 28.821 27.4355 29.1296 26.5137 29.1296C25.9434 29.1296 25.3984 29.0007 24.8789 28.7429C24.3633 28.4851 23.9707 28.1082 23.7012 27.6121C23.4316 27.1121 23.2969 26.5046 23.2969 25.7898ZM24.9844 25.8777C24.9844 26.4949 25.1309 26.9675 25.4238 27.2957C25.7168 27.6238 26.0781 27.7878 26.5078 27.7878C26.9375 27.7878 27.2969 27.6238 27.5859 27.2957C27.8789 26.9675 28.0254 26.491 28.0254 25.866C28.0254 25.2566 27.8789 24.7878 27.5859 24.4597C27.2969 24.1316 26.9375 23.9675 26.5078 23.9675C26.0781 23.9675 25.7168 24.1316 25.4238 24.4597C25.1309 24.7878 24.9844 25.2605 24.9844 25.8777ZM30.8906 22.7664H32.4082V23.616C32.9512 22.9558 33.5977 22.6257 34.3477 22.6257C34.7461 22.6257 35.0918 22.7078 35.3848 22.8718C35.6777 23.0359 35.918 23.2839 36.1055 23.616C36.3789 23.2839 36.6738 23.0359 36.9902 22.8718C37.3066 22.7078 37.6445 22.6257 38.0039 22.6257C38.4609 22.6257 38.8477 22.7195 39.1641 22.907C39.4805 23.0906 39.7168 23.3621 39.873 23.7214C39.9863 23.9871 40.043 24.4167 40.043 25.0105V28.989H38.3965V25.4324C38.3965 24.8152 38.3398 24.4167 38.2266 24.2371C38.0742 24.0027 37.8398 23.8855 37.5234 23.8855C37.293 23.8855 37.0762 23.9558 36.873 24.0964C36.6699 24.2371 36.5234 24.4441 36.4336 24.7175C36.3438 24.9871 36.2988 25.4148 36.2988 26.0007V28.989H34.6523V25.5789C34.6523 24.9734 34.623 24.5828 34.5645 24.407C34.5059 24.2312 34.4141 24.1003 34.2891 24.0144C34.168 23.9285 34.002 23.8855 33.791 23.8855C33.5371 23.8855 33.3086 23.9539 33.1055 24.0906C32.9023 24.2273 32.7559 24.4246 32.666 24.6824C32.5801 24.9402 32.5371 25.3679 32.5371 25.9656V28.989H30.8906V22.7664ZM41.6426 22.7664H43.1777V23.6804C43.377 23.3679 43.6465 23.114 43.9863 22.9187C44.3262 22.7234 44.7031 22.6257 45.1172 22.6257C45.8398 22.6257 46.4531 22.9089 46.957 23.4753C47.4609 24.0417 47.7129 24.8308 47.7129 25.8425C47.7129 26.8816 47.459 27.6902 46.9512 28.2683C46.4434 28.8425 45.8281 29.1296 45.1055 29.1296C44.7617 29.1296 44.4492 29.0613 44.168 28.9246C43.8906 28.7878 43.5977 28.5535 43.2891 28.2214V31.3562H41.6426V22.7664ZM43.2715 25.7722C43.2715 26.4714 43.4102 26.989 43.6875 27.325C43.9648 27.657 44.3027 27.823 44.7012 27.823C45.084 27.823 45.4023 27.6707 45.6562 27.366C45.9102 27.0574 46.0371 26.5535 46.0371 25.8542C46.0371 25.2019 45.9062 24.7175 45.6445 24.4011C45.3828 24.0847 45.0586 23.9265 44.6719 23.9265C44.2695 23.9265 43.9355 24.0828 43.6699 24.3953C43.4043 24.7039 43.2715 25.1628 43.2715 25.7722ZM49.0254 28.989V20.3992H50.6719V28.989H49.0254ZM55.9688 27.0085L57.6094 27.2839C57.3984 27.8855 57.0645 28.3445 56.6074 28.6609C56.1543 28.9734 55.5859 29.1296 54.9023 29.1296C53.8203 29.1296 53.0195 28.7761 52.5 28.0691C52.0898 27.5027 51.8848 26.7878 51.8848 25.9246C51.8848 24.8933 52.1543 24.0867 52.6934 23.5046C53.2324 22.9187 53.9141 22.6257 54.7383 22.6257C55.6641 22.6257 56.3945 22.9324 56.9297 23.5457C57.4648 24.155 57.7207 25.0906 57.6973 26.3523H53.5723C53.584 26.8406 53.7168 27.2214 53.9707 27.4949C54.2246 27.7644 54.541 27.8992 54.9199 27.8992C55.1777 27.8992 55.3945 27.8289 55.5703 27.6882C55.7461 27.5476 55.8789 27.321 55.9688 27.0085ZM56.0625 25.3445C56.0508 24.8679 55.9277 24.5066 55.6934 24.2605C55.459 24.0105 55.1738 23.8855 54.8379 23.8855C54.4785 23.8855 54.1816 24.0164 53.9473 24.2781C53.7129 24.5398 53.5977 24.8953 53.6016 25.3445H56.0625ZM58.2539 28.989L60.498 25.7839L58.3477 22.7664H60.3574L61.459 24.4773L62.6191 22.7664H64.5527L62.4434 25.7136L64.7461 28.989H62.7246L61.459 27.0613L60.1816 28.989H58.2539Z" fill="white"/>
<defs>
<linearGradient id="paint0_linear_38_1851" x1="40.5" y1="1.98901" x2="40.5" y2="33.989" gradientUnits="userSpaceOnUse">
<stop stop-color="#4A001C"/>
<stop offset="1" stop-color="#D11C61"/>
</linearGradient>
</defs>
</svg>
