<svg width="54" height="39" viewBox="0 0 54 39" fill="none" xmlns="http://www.w3.org/2000/svg">
<path d="M32.1234 29.7364C32.1234 34.6315 25.139 38.5997 16.5233 38.5997C7.90764 38.5997 0.92334 34.6314 0.92334 29.7364C0.92334 24.8413 7.90774 0.871826 16.5234 0.871826C25.139 0.871826 32.1234 24.8413 32.1234 29.7364Z" fill="url(#paint0_radial_86_3174)"/>
<path d="M53.1249 29.7364C53.1249 34.6315 46.1404 38.5997 37.5247 38.5997C28.909 38.5997 21.9247 34.6315 21.9247 29.7364C21.9247 24.8413 28.909 0.871826 37.5247 0.871826C46.1404 0.871826 53.1249 24.8413 53.1249 29.7364Z" fill="url(#paint1_radial_86_3174)"/>
<defs>
<radialGradient id="paint0_radial_86_3174" cx="0" cy="0" r="1" gradientUnits="userSpaceOnUse" gradientTransform="translate(16.3366 16.1018) scale(14.639 25.567)">
<stop stop-color="#FEBCC3"/>
<stop offset="0.02" stop-color="#F7B6BB"/>
<stop offset="0.1464" stop-color="#D09789"/>
<stop offset="0.2761" stop-color="#AE7B5F"/>
<stop offset="0.4069" stop-color="#92653D"/>
<stop offset="0.5393" stop-color="#7C5322"/>
<stop offset="0.6738" stop-color="#6D470F"/>
<stop offset="0.8119" stop-color="#643F04"/>
<stop offset="0.9587" stop-color="#613D00"/>
</radialGradient>
<radialGradient id="paint1_radial_86_3174" cx="0" cy="0" r="1" gradientUnits="userSpaceOnUse" gradientTransform="translate(37.338 16.1018) scale(14.639 25.567)">
<stop stop-color="#FEBCC3"/>
<stop offset="0.02" stop-color="#F7B6BA"/>
<stop offset="0.1452" stop-color="#D09689"/>
<stop offset="0.2736" stop-color="#AE7B5F"/>
<stop offset="0.4032" stop-color="#92653D"/>
<stop offset="0.5343" stop-color="#7C5322"/>
<stop offset="0.6676" stop-color="#6D470F"/>
<stop offset="0.8044" stop-color="#643F04"/>
<stop offset="0.95" stop-color="#613D00"/>
</radialGradient>
</defs>
</svg>
