<svg width="111" height="24" viewBox="0 0 111 24" fill="none" xmlns="http://www.w3.org/2000/svg">
<rect x="1" y="1.98901" width="109" height="20" rx="10" fill="#DB56E2"/>
<rect x="1" y="1.98901" width="109" height="20" rx="10" stroke="#AC00B5" stroke-width="3" stroke-linejoin="round"/>
<path d="M10.9336 15.989V8.85229H8.38477V7.39917H15.2109V8.85229H12.668V15.989H10.9336ZM16.3418 7.39917H19.7754C20.4551 7.39917 20.9609 7.42847 21.293 7.48706C21.6289 7.54175 21.9277 7.65894 22.1895 7.83862C22.4551 8.01831 22.6758 8.25854 22.8516 8.55933C23.0273 8.8562 23.1152 9.19019 23.1152 9.56128C23.1152 9.96362 23.0059 10.3328 22.7871 10.6687C22.5723 11.0046 22.2793 11.2566 21.9082 11.4246C22.4316 11.5769 22.834 11.8367 23.1152 12.2039C23.3965 12.571 23.5371 13.0027 23.5371 13.4988C23.5371 13.8894 23.4453 14.2703 23.2617 14.6414C23.082 15.0085 22.834 15.3035 22.5176 15.5261C22.2051 15.7449 21.8184 15.8796 21.3574 15.9304C21.0684 15.9617 20.3711 15.9812 19.2656 15.989H16.3418V7.39917ZM18.0762 8.82886V10.8152H19.2129C19.8887 10.8152 20.3086 10.8054 20.4727 10.7859C20.7695 10.7507 21.002 10.6492 21.1699 10.4812C21.3418 10.3093 21.4277 10.0847 21.4277 9.80737C21.4277 9.54175 21.3535 9.3269 21.2051 9.16284C21.0605 8.99487 20.8438 8.89331 20.5547 8.85815C20.3828 8.83862 19.8887 8.82886 19.0723 8.82886H18.0762ZM18.0762 12.2449V14.5417H19.6816C20.3066 14.5417 20.7031 14.5242 20.8711 14.489C21.1289 14.4421 21.3379 14.3289 21.498 14.1492C21.6621 13.9656 21.7441 13.7214 21.7441 13.4167C21.7441 13.1589 21.6816 12.9402 21.5566 12.7605C21.4316 12.5808 21.25 12.45 21.0117 12.3679C20.7773 12.2859 20.2656 12.2449 19.4766 12.2449H18.0762ZM25.0547 15.989V7.46948H26.7891V14.5417H31.1016V15.989H25.0547ZM36.1934 15.989H34.5469V9.78394C33.9453 10.3464 33.2363 10.7625 32.4199 11.032V9.53784C32.8496 9.39722 33.3164 9.13159 33.8203 8.74097C34.3242 8.34644 34.6699 7.88745 34.8574 7.36401H36.1934V15.989ZM38.1504 15.989L41.0859 11.5066L38.4258 7.39917H40.4531L42.1758 10.1589L43.8633 7.39917H45.873L43.2012 11.571L46.1367 15.989H44.0449L42.1406 13.0183L40.2305 15.989H38.1504ZM46.1367 16.1355L48.2637 7.25269H49.5L47.3496 16.1355H46.1367ZM52.3008 15.989V8.85229H49.752V7.39917H56.5781V8.85229H54.0352V15.989H52.3008ZM57.709 7.39917H61.1426C61.8223 7.39917 62.3281 7.42847 62.6602 7.48706C62.9961 7.54175 63.2949 7.65894 63.5566 7.83862C63.8223 8.01831 64.043 8.25854 64.2188 8.55933C64.3945 8.8562 64.4824 9.19019 64.4824 9.56128C64.4824 9.96362 64.373 10.3328 64.1543 10.6687C63.9395 11.0046 63.6465 11.2566 63.2754 11.4246C63.7988 11.5769 64.2012 11.8367 64.4824 12.2039C64.7637 12.571 64.9043 13.0027 64.9043 13.4988C64.9043 13.8894 64.8125 14.2703 64.6289 14.6414C64.4492 15.0085 64.2012 15.3035 63.8848 15.5261C63.5723 15.7449 63.1855 15.8796 62.7246 15.9304C62.4355 15.9617 61.7383 15.9812 60.6328 15.989H57.709V7.39917ZM59.4434 8.82886V10.8152H60.5801C61.2559 10.8152 61.6758 10.8054 61.8398 10.7859C62.1367 10.7507 62.3691 10.6492 62.5371 10.4812C62.709 10.3093 62.7949 10.0847 62.7949 9.80737C62.7949 9.54175 62.7207 9.3269 62.5723 9.16284C62.4277 8.99487 62.2109 8.89331 61.9219 8.85815C61.75 8.83862 61.2559 8.82886 60.4395 8.82886H59.4434ZM59.4434 12.2449V14.5417H61.0488C61.6738 14.5417 62.0703 14.5242 62.2383 14.489C62.4961 14.4421 62.7051 14.3289 62.8652 14.1492C63.0293 13.9656 63.1113 13.7214 63.1113 13.4167C63.1113 13.1589 63.0488 12.9402 62.9238 12.7605C62.7988 12.5808 62.6172 12.45 62.3789 12.3679C62.1445 12.2859 61.6328 12.2449 60.8438 12.2449H59.4434ZM66.4219 15.989V7.46948H68.1562V14.5417H72.4688V15.989H66.4219ZM77.5605 15.989H75.9141V9.78394C75.3125 10.3464 74.6035 10.7625 73.7871 11.032V9.53784C74.2168 9.39722 74.6836 9.13159 75.1875 8.74097C75.6914 8.34644 76.0371 7.88745 76.2246 7.36401H77.5605V15.989ZM79.5176 15.989L82.4531 11.5066L79.793 7.39917H81.8203L83.543 10.1589L85.2305 7.39917H87.2402L84.5684 11.571L87.5039 15.989H85.4121L83.5078 13.0183L81.5977 15.989H79.5176ZM88.4004 15.989V7.39917H92.0508C92.9688 7.39917 93.6348 7.47729 94.0488 7.63354C94.4668 7.78589 94.8008 8.05933 95.0508 8.45386C95.3008 8.84839 95.4258 9.29956 95.4258 9.80737C95.4258 10.4519 95.2363 10.9851 94.8574 11.407C94.4785 11.825 93.9121 12.0886 93.1582 12.198C93.5332 12.4167 93.8418 12.657 94.084 12.9187C94.3301 13.1804 94.6602 13.6453 95.0742 14.3132L96.123 15.989H94.0488L92.7949 14.1199C92.3496 13.4519 92.0449 13.032 91.8809 12.8601C91.7168 12.6843 91.543 12.5652 91.3594 12.5027C91.1758 12.4363 90.8848 12.4031 90.4863 12.4031H90.1348V15.989H88.4004ZM90.1348 11.032H91.418C92.25 11.032 92.7695 10.9968 92.9766 10.9265C93.1836 10.8562 93.3457 10.7351 93.4629 10.5632C93.5801 10.3914 93.6387 10.1765 93.6387 9.9187C93.6387 9.62964 93.5605 9.39722 93.4043 9.22144C93.252 9.04175 93.0352 8.92847 92.7539 8.88159C92.6133 8.86206 92.1914 8.85229 91.4883 8.85229H90.1348V11.032ZM100.916 15.989H99.2695V9.78394C98.668 10.3464 97.959 10.7625 97.1426 11.032V9.53784C97.5723 9.39722 98.0391 9.13159 98.543 8.74097C99.0469 8.34644 99.3926 7.88745 99.5801 7.36401H100.916V15.989Z" fill="white"/>
</svg>
