<svg width="44" height="24" viewBox="0 0 44 24" fill="none" xmlns="http://www.w3.org/2000/svg">
<rect x="2" y="1.98901" width="41" height="20" rx="10" fill="url(#paint0_linear_64_1843)"/>
<rect x="2" y="1.98901" width="41" height="20" rx="10" stroke="#E02536" stroke-width="3" stroke-linejoin="round"/>
<path d="M10.0137 15.989V7.39917H12.6094L14.168 13.2585L15.709 7.39917H18.3105V15.989H16.6992V9.22729L14.9941 15.989H13.3242L11.625 9.22729V15.989H10.0137ZM22.2891 15.989V12.3738L19.1426 7.39917H21.1758L23.1973 10.7976L25.1777 7.39917H27.1758L24.0176 12.3855V15.989H22.2891ZM33.5332 12.8308L35.2148 13.364C34.957 14.3015 34.5273 14.9988 33.9258 15.4558C33.3281 15.9089 32.5684 16.1355 31.6465 16.1355C30.5059 16.1355 29.5684 15.7468 28.834 14.9695C28.0996 14.1882 27.7324 13.1218 27.7324 11.7703C27.7324 10.3406 28.1016 9.2312 28.8398 8.44214C29.5781 7.64917 30.5488 7.25269 31.752 7.25269C32.8027 7.25269 33.6562 7.56323 34.3125 8.18433C34.7031 8.55151 34.9961 9.07886 35.1914 9.76636L33.4746 10.1765C33.373 9.7312 33.1602 9.37964 32.8359 9.12183C32.5156 8.86401 32.125 8.73511 31.6641 8.73511C31.0273 8.73511 30.5098 8.96362 30.1113 9.42065C29.7168 9.87769 29.5195 10.6179 29.5195 11.6414C29.5195 12.7273 29.7148 13.5007 30.1055 13.9617C30.4961 14.4226 31.0039 14.6531 31.6289 14.6531C32.0898 14.6531 32.4863 14.5066 32.8184 14.2136C33.1504 13.9207 33.3887 13.4597 33.5332 12.8308Z" fill="white"/>
<defs>
<linearGradient id="paint0_linear_64_1843" x1="22.5" y1="1.98901" x2="22.5" y2="21.989" gradientUnits="userSpaceOnUse">
<stop stop-color="#E02536"/>
<stop offset="1" stop-color="#85BA33"/>
</linearGradient>
</defs>
</svg>
