<svg width="42" height="44" viewBox="0 0 42 44" fill="none" xmlns="http://www.w3.org/2000/svg">
<path d="M21.3251 43.159C32.7217 43.159 41.9605 33.7189 41.9605 22.074C41.9605 10.4291 32.7217 0.989014 21.3251 0.989014C9.92857 0.989014 0.689819 10.4291 0.689819 22.074C0.689819 33.7189 9.92857 43.159 21.3251 43.159Z" fill="url(#paint0_radial_92_5215)"/>
<path d="M33.5441 35.6795C34.0475 37.0388 31.4975 39.1484 27.8485 40.3915C24.1995 41.6346 20.8333 41.5403 20.3298 40.1809C19.8264 38.8216 22.3764 36.712 26.0254 35.4689C29.6745 34.2259 33.0407 34.3201 33.5441 35.6795Z" fill="url(#paint1_radial_92_5215)"/>
<defs>
<radialGradient id="paint0_radial_92_5215" cx="0" cy="0" r="1" gradientUnits="userSpaceOnUse" gradientTransform="translate(15.0092 12.177) scale(20.6359 21.085)">
<stop stop-color="#C677B5"/>
<stop offset="1" stop-color="#0E212E"/>
</radialGradient>
<radialGradient id="paint1_radial_92_5215" cx="0" cy="0" r="1" gradientUnits="userSpaceOnUse" gradientTransform="translate(25.9405 39.3444) rotate(-18.8107) scale(6.34183 6.13735)">
<stop stop-color="#C677B5"/>
<stop offset="1" stop-color="#0E212E"/>
</radialGradient>
</defs>
</svg>
