<svg width="57" height="58" viewBox="0 0 57 58" fill="none" xmlns="http://www.w3.org/2000/svg">
<g clip-path="url(#clip0_85_2128)">
<path d="M53.1937 57.7473C51.2611 57.7473 49.6937 56.1799 49.6937 54.2473V8.41381C49.683 8.24581 49.5755 7.89041 49.4857 7.79371C49.4838 7.79421 49.3783 7.74731 49.0619 7.74731C48.7396 7.74731 48.6215 7.80541 48.6205 7.80641C48.5482 7.88601 48.4398 8.24491 48.4281 8.49001L48.4291 50.0803C48.4291 53.7971 45.7543 57.7473 40.7973 57.7473C35.8393 57.7473 33.1645 53.7971 33.1645 50.0803V8.41381C33.1538 8.24581 33.0463 7.89041 32.9565 7.79371C32.9515 7.79421 32.849 7.74731 32.5326 7.74731C32.2904 7.74731 32.1986 7.78781 32.1976 7.78831C32.0423 7.93721 31.9007 8.60711 31.9007 8.78201V50.0803C31.9007 53.7971 29.2254 57.7473 24.2679 57.7473C19.3104 57.7473 16.6356 53.7971 16.6356 50.0803V8.41381C16.6244 8.24581 16.5174 7.89041 16.4276 7.79371C16.4305 7.79951 16.306 7.74731 16.0038 7.74731C15.6815 7.74731 15.5634 7.80541 15.5624 7.80591C15.4911 7.88601 15.3827 8.24491 15.3705 8.49001L15.3715 50.0803C15.3715 53.7971 12.6967 57.7473 7.73921 57.7473C2.78171 57.7473 0.106812 53.7971 0.106812 50.0803V4.24731C0.106812 2.31421 1.67371 0.747314 3.60681 0.747314C5.53991 0.747314 7.10681 2.31421 7.10681 4.24731V50.0803C7.11801 50.2483 7.22501 50.6037 7.31481 50.7004C7.32511 50.7004 7.45061 50.7473 7.73911 50.7473C8.06141 50.7473 8.17901 50.6887 8.18051 50.6887C8.28261 50.5764 8.37141 50.0979 8.37141 50.0803V8.41381C8.37141 4.69751 11.0463 0.747314 16.0038 0.747314C20.9608 0.747314 23.6356 4.69751 23.6356 8.41381V50.0803C23.6468 50.2483 23.7538 50.6037 23.8436 50.7004C23.8539 50.7004 23.9794 50.7473 24.2679 50.7473C24.5902 50.7473 24.7078 50.6887 24.7093 50.6887C24.8114 50.5764 24.9002 50.0979 24.9002 50.0803V8.78201C24.9003 5.55252 26.933 0.747314 32.5326 0.747314C37.4896 0.747314 40.1644 4.69751 40.1644 8.41381V50.0803C40.1751 50.2483 40.2826 50.6037 40.3724 50.7004C40.3695 50.6985 40.4789 50.7473 40.7972 50.7473C41.1185 50.7473 41.2367 50.6887 41.2376 50.6887C41.3089 50.6086 41.4183 50.2492 41.43 50.0041L41.429 8.41381C41.4291 4.69751 44.1039 0.747314 49.0619 0.747314C54.0189 0.747314 56.6937 4.69751 56.6937 8.41381V54.2473C56.6937 56.1799 55.1263 57.7473 53.1937 57.7473Z" fill="url(#paint0_linear_85_2128)"/>
<path d="M2.19373 8.77539V48.5499" stroke="url(#paint1_linear_85_2128)" stroke-width="2" stroke-miterlimit="10" stroke-linecap="round" stroke-linejoin="round"/>
<path d="M2.19373 8.77539V48.5499" stroke="url(#paint2_linear_85_2128)" stroke-width="2" stroke-miterlimit="10" stroke-linecap="round" stroke-linejoin="round"/>
<path d="M10.4587 8.77539V48.5499" stroke="url(#paint3_linear_85_2128)" stroke-width="2" stroke-miterlimit="10" stroke-linecap="round" stroke-linejoin="round"/>
<path d="M18.7238 8.77539V48.5499" stroke="url(#paint4_linear_85_2128)" stroke-width="2" stroke-miterlimit="10" stroke-linecap="round" stroke-linejoin="round"/>
<path d="M26.9888 8.77539V48.5499" stroke="url(#paint5_linear_85_2128)" stroke-width="2" stroke-miterlimit="10" stroke-linecap="round" stroke-linejoin="round"/>
<path d="M35.2537 8.77539V48.5499" stroke="url(#paint6_linear_85_2128)" stroke-width="2" stroke-miterlimit="10" stroke-linecap="round" stroke-linejoin="round"/>
<path d="M43.5187 8.77539V48.5499" stroke="url(#paint7_linear_85_2128)" stroke-width="2" stroke-miterlimit="10" stroke-linecap="round" stroke-linejoin="round"/>
<path d="M51.7836 8.77539V48.5499" stroke="url(#paint8_linear_85_2128)" stroke-width="2" stroke-miterlimit="10" stroke-linecap="round" stroke-linejoin="round"/>
</g>
<defs>
<linearGradient id="paint0_linear_85_2128" x1="28.4003" y1="57.7473" x2="28.4003" y2="0.747314" gradientUnits="userSpaceOnUse">
<stop stop-color="#133348"/>
<stop offset="1" stop-color="#138448"/>
</linearGradient>
<linearGradient id="paint1_linear_85_2128" x1="2.69373" y1="8.77539" x2="2.69373" y2="48.5499" gradientUnits="userSpaceOnUse">
<stop stop-color="#ACEBC9" stop-opacity="0"/>
<stop offset="0.15" stop-color="#ACEBC9"/>
<stop offset="0.85" stop-color="#ACEBC9"/>
<stop offset="1" stop-color="#ACEBC9" stop-opacity="0"/>
</linearGradient>
<linearGradient id="paint2_linear_85_2128" x1="2.69373" y1="8.77539" x2="2.69373" y2="48.5499" gradientUnits="userSpaceOnUse">
<stop stop-color="#ACEBC9" stop-opacity="0"/>
<stop offset="0.15" stop-color="#ACEBC9"/>
<stop offset="0.85" stop-color="#ACEBC9"/>
<stop offset="1" stop-color="#ACEBC9" stop-opacity="0"/>
</linearGradient>
<linearGradient id="paint3_linear_85_2128" x1="10.9587" y1="8.77539" x2="10.9587" y2="48.5499" gradientUnits="userSpaceOnUse">
<stop stop-color="#ACEBC9" stop-opacity="0"/>
<stop offset="0.15" stop-color="#ACEBC9"/>
<stop offset="0.85" stop-color="#ACEBC9"/>
<stop offset="1" stop-color="#ACEBC9" stop-opacity="0"/>
</linearGradient>
<linearGradient id="paint4_linear_85_2128" x1="19.2238" y1="8.77539" x2="19.2238" y2="48.5499" gradientUnits="userSpaceOnUse">
<stop stop-color="#ACEBC9" stop-opacity="0"/>
<stop offset="0.15" stop-color="#ACEBC9"/>
<stop offset="0.85" stop-color="#ACEBC9"/>
<stop offset="1" stop-color="#ACEBC9" stop-opacity="0"/>
</linearGradient>
<linearGradient id="paint5_linear_85_2128" x1="27.4888" y1="8.77539" x2="27.4888" y2="48.5499" gradientUnits="userSpaceOnUse">
<stop stop-color="#ACEBC9" stop-opacity="0"/>
<stop offset="0.15" stop-color="#ACEBC9"/>
<stop offset="0.85" stop-color="#ACEBC9"/>
<stop offset="1" stop-color="#ACEBC9" stop-opacity="0"/>
</linearGradient>
<linearGradient id="paint6_linear_85_2128" x1="35.7537" y1="8.77539" x2="35.7537" y2="48.5499" gradientUnits="userSpaceOnUse">
<stop stop-color="#ACEBC9" stop-opacity="0"/>
<stop offset="0.15" stop-color="#ACEBC9"/>
<stop offset="0.85" stop-color="#ACEBC9"/>
<stop offset="1" stop-color="#ACEBC9" stop-opacity="0"/>
</linearGradient>
<linearGradient id="paint7_linear_85_2128" x1="44.0187" y1="8.77539" x2="44.0187" y2="48.5499" gradientUnits="userSpaceOnUse">
<stop stop-color="#ACEBC9" stop-opacity="0"/>
<stop offset="0.15" stop-color="#ACEBC9"/>
<stop offset="0.85" stop-color="#ACEBC9"/>
<stop offset="1" stop-color="#ACEBC9" stop-opacity="0"/>
</linearGradient>
<linearGradient id="paint8_linear_85_2128" x1="52.2836" y1="8.77539" x2="52.2836" y2="48.5499" gradientUnits="userSpaceOnUse">
<stop stop-color="#ACEBC9" stop-opacity="0"/>
<stop offset="0.149038" stop-color="#ACEBC9"/>
<stop offset="0.846154" stop-color="#ACEBC9"/>
<stop offset="1" stop-color="#ACEBC9" stop-opacity="0"/>
</linearGradient>
<clipPath id="clip0_85_2128">
<rect width="56.5869" height="57" fill="white" transform="translate(0.106812 0.747314)"/>
</clipPath>
</defs>
</svg>
