<svg width="67" height="24" viewBox="0 0 67 24" fill="none" xmlns="http://www.w3.org/2000/svg">
<rect x="1" y="1.98901" width="65" height="20" rx="10" fill="url(#paint0_linear_67_1857)"/>
<rect x="1" y="1.98901" width="65" height="20" rx="10" stroke="url(#paint1_linear_67_1857)" stroke-width="3" stroke-linejoin="round"/>
<path d="M9.03125 15.989V7.39917H11.8145C12.8691 7.39917 13.5566 7.44214 13.877 7.52808C14.3691 7.65698 14.7812 7.93823 15.1133 8.37183C15.4453 8.80151 15.6113 9.35815 15.6113 10.0417C15.6113 10.5691 15.5156 11.0125 15.3242 11.3718C15.1328 11.7312 14.8887 12.0144 14.5918 12.2214C14.2988 12.4246 14 12.5593 13.6953 12.6257C13.2812 12.7078 12.6816 12.7488 11.8965 12.7488H10.7656V15.989H9.03125ZM10.7656 8.85229V11.2898H11.7148C12.3984 11.2898 12.8555 11.2449 13.0859 11.155C13.3164 11.0652 13.4961 10.9246 13.625 10.7332C13.7578 10.5417 13.8242 10.3191 13.8242 10.0652C13.8242 9.75269 13.7324 9.49487 13.5488 9.29175C13.3652 9.08862 13.1328 8.96167 12.8516 8.91089C12.6445 8.87183 12.2285 8.85229 11.6035 8.85229H10.7656ZM16.6836 11.7468C16.6836 10.8718 16.8145 10.1375 17.0762 9.5437C17.2715 9.1062 17.5371 8.71362 17.873 8.36597C18.2129 8.01831 18.584 7.7605 18.9863 7.59253C19.5215 7.36597 20.1387 7.25269 20.8379 7.25269C22.1035 7.25269 23.1152 7.64526 23.873 8.43042C24.6348 9.21558 25.0156 10.3074 25.0156 11.7058C25.0156 13.0925 24.6387 14.1785 23.8848 14.9636C23.1309 15.7449 22.123 16.1355 20.8613 16.1355C19.584 16.1355 18.5684 15.7468 17.8145 14.9695C17.0605 14.1882 16.6836 13.114 16.6836 11.7468ZM18.4707 11.6882C18.4707 12.6609 18.6953 13.3992 19.1445 13.9031C19.5938 14.4031 20.1641 14.6531 20.8555 14.6531C21.5469 14.6531 22.1133 14.405 22.5547 13.9089C23 13.4089 23.2227 12.6609 23.2227 11.6648C23.2227 10.6804 23.0059 9.94604 22.5723 9.46167C22.1426 8.97729 21.5703 8.73511 20.8555 8.73511C20.1406 8.73511 19.5645 8.9812 19.127 9.47339C18.6895 9.96167 18.4707 10.7 18.4707 11.6882ZM26.4219 15.989V7.46948H28.1562V14.5417H32.4688V15.989H26.4219ZM33.7168 15.989V7.39917H37.3672C38.2852 7.39917 38.9512 7.47729 39.3652 7.63354C39.7832 7.78589 40.1172 8.05933 40.3672 8.45386C40.6172 8.84839 40.7422 9.29956 40.7422 9.80737C40.7422 10.4519 40.5527 10.9851 40.1738 11.407C39.7949 11.825 39.2285 12.0886 38.4746 12.198C38.8496 12.4167 39.1582 12.657 39.4004 12.9187C39.6465 13.1804 39.9766 13.6453 40.3906 14.3132L41.4395 15.989H39.3652L38.1113 14.1199C37.666 13.4519 37.3613 13.032 37.1973 12.8601C37.0332 12.6843 36.8594 12.5652 36.6758 12.5027C36.4922 12.4363 36.2012 12.4031 35.8027 12.4031H35.4512V15.989H33.7168ZM35.4512 11.032H36.7344C37.5664 11.032 38.0859 10.9968 38.293 10.9265C38.5 10.8562 38.6621 10.7351 38.7793 10.5632C38.8965 10.3914 38.9551 10.1765 38.9551 9.9187C38.9551 9.62964 38.877 9.39722 38.7207 9.22144C38.5684 9.04175 38.3516 8.92847 38.0703 8.88159C37.9297 8.86206 37.5078 8.85229 36.8047 8.85229H35.4512V11.032ZM42.3594 15.989V7.39917H44.9551L46.5137 13.2585L48.0547 7.39917H50.6562V15.989H49.0449V9.22729L47.3398 15.989H45.6699L43.9707 9.22729V15.989H42.3594ZM54.3125 15.989V8.85229H51.7637V7.39917H58.5898V8.85229H56.0469V15.989H54.3125Z" fill="white"/>
<defs>
<linearGradient id="paint0_linear_67_1857" x1="33.5" y1="1.98901" x2="33.5" y2="21.989" gradientUnits="userSpaceOnUse">
<stop stop-color="#0E98A2"/>
<stop offset="1" stop-color="#430024"/>
</linearGradient>
<linearGradient id="paint1_linear_67_1857" x1="33.5" y1="21.989" x2="33.5" y2="1.98901" gradientUnits="userSpaceOnUse">
<stop stop-color="#B78520"/>
<stop offset="1" stop-color="#A2BD7B"/>
</linearGradient>
</defs>
</svg>
