<svg width="48" height="24" viewBox="0 0 48 24" fill="none" xmlns="http://www.w3.org/2000/svg">
<rect x="2" y="1.98901" width="45" height="20" rx="10" fill="url(#paint0_linear_38_1883)"/>
<rect x="2" y="1.98901" width="45" height="20" rx="10" stroke="#D6AE03" stroke-width="3" stroke-linejoin="round"/>
<path d="M15.8574 12.8308L17.5391 13.364C17.2812 14.3015 16.8516 14.9988 16.25 15.4558C15.6523 15.9089 14.8926 16.1355 13.9707 16.1355C12.8301 16.1355 11.8926 15.7468 11.1582 14.9695C10.4238 14.1882 10.0566 13.1218 10.0566 11.7703C10.0566 10.3406 10.4258 9.2312 11.1641 8.44214C11.9023 7.64917 12.873 7.25269 14.0762 7.25269C15.127 7.25269 15.9805 7.56323 16.6367 8.18433C17.0273 8.55151 17.3203 9.07886 17.5156 9.76636L15.7988 10.1765C15.6973 9.7312 15.4844 9.37964 15.1602 9.12183C14.8398 8.86401 14.4492 8.73511 13.9883 8.73511C13.3516 8.73511 12.834 8.96362 12.4355 9.42065C12.041 9.87769 11.8438 10.6179 11.8438 11.6414C11.8438 12.7273 12.0391 13.5007 12.4297 13.9617C12.8203 14.4226 13.3281 14.6531 13.9531 14.6531C14.4141 14.6531 14.8105 14.5066 15.1426 14.2136C15.4746 13.9207 15.7129 13.4597 15.8574 12.8308ZM19.0449 15.989V7.39917H24.9336V8.85229H20.7793V10.8855H24.3652V12.3386H20.7793V15.989H19.0449ZM26.416 15.989V7.46948H28.1504V14.5417H32.4629V15.989H26.416ZM37.5547 15.989H35.9082V9.78394C35.3066 10.3464 34.5977 10.7625 33.7812 11.032V9.53784C34.2109 9.39722 34.6777 9.13159 35.1816 8.74097C35.6855 8.34644 36.0312 7.88745 36.2188 7.36401H37.5547V15.989Z" fill="white"/>
<defs>
<linearGradient id="paint0_linear_38_1883" x1="24.5" y1="1.98901" x2="24.5" y2="21.989" gradientUnits="userSpaceOnUse">
<stop stop-color="#D6AE03"/>
<stop offset="1" stop-color="#0403FB"/>
</linearGradient>
</defs>
</svg>
