<svg width="37" height="24" viewBox="0 0 37 24" fill="none" xmlns="http://www.w3.org/2000/svg">
<rect x="2" y="1.98901" width="34" height="20" rx="10" fill="url(#paint0_linear_84_2049)"/>
<rect x="2" y="1.98901" width="34" height="20" rx="10" stroke="#D53872" stroke-width="3" stroke-linejoin="round"/>
<path d="M12.1855 7.39917H13.9199V12.0515C13.9199 12.7898 13.9414 13.2683 13.9844 13.4871C14.0586 13.8386 14.2344 14.1218 14.5117 14.3367C14.793 14.5476 15.1758 14.6531 15.6602 14.6531C16.1523 14.6531 16.5234 14.5535 16.7734 14.3542C17.0234 14.1511 17.1738 13.9031 17.2246 13.6101C17.2754 13.3171 17.3008 12.8308 17.3008 12.1511V7.39917H19.0352V11.9109C19.0352 12.9421 18.9883 13.6707 18.8945 14.0964C18.8008 14.5222 18.627 14.8816 18.373 15.1746C18.123 15.4675 17.7871 15.7019 17.3652 15.8777C16.9434 16.0496 16.3926 16.1355 15.7129 16.1355C14.8926 16.1355 14.2695 16.0417 13.8438 15.8542C13.4219 15.6628 13.0879 15.4167 12.8418 15.116C12.5957 14.8113 12.4336 14.4929 12.3555 14.1609C12.2422 13.6687 12.1855 12.9421 12.1855 11.9812V7.39917ZM20.5293 13.78L22.1699 13.6101C22.2168 13.9812 22.3555 14.2761 22.5859 14.4949C22.8164 14.7097 23.082 14.8171 23.3828 14.8171C23.7266 14.8171 24.0176 14.6785 24.2559 14.4011C24.4941 14.1199 24.6133 13.698 24.6133 13.1355C24.6133 12.6082 24.4941 12.2136 24.2559 11.9519C24.0215 11.6863 23.7148 11.5535 23.3359 11.5535C22.8633 11.5535 22.4395 11.7625 22.0645 12.1804L20.7285 11.9871L21.5723 7.51636H25.9258V9.05737H22.8203L22.5625 10.5164C22.9297 10.3328 23.3047 10.241 23.6875 10.241C24.418 10.241 25.0371 10.5066 25.5449 11.0378C26.0527 11.5691 26.3066 12.2585 26.3066 13.1062C26.3066 13.8132 26.1016 14.4441 25.6914 14.9988C25.1328 15.7566 24.3574 16.1355 23.3652 16.1355C22.5723 16.1355 21.9258 15.9226 21.4258 15.4968C20.9258 15.071 20.627 14.4988 20.5293 13.78Z" fill="white"/>
<defs>
<linearGradient id="paint0_linear_84_2049" x1="19" y1="21.989" x2="19" y2="1.98901" gradientUnits="userSpaceOnUse">
<stop stop-color="#D53872"/>
<stop offset="1" stop-color="#A73A63"/>
</linearGradient>
</defs>
</svg>
