<svg width="54" height="24" viewBox="0 0 54 24" fill="none" xmlns="http://www.w3.org/2000/svg">
<rect x="2" y="1.98901" width="51" height="20" rx="10" fill="url(#paint0_linear_50_1811)"/>
<rect x="2" y="1.98901" width="51" height="20" rx="10" stroke="#B16DAD" stroke-width="3" stroke-linejoin="round"/>
<path d="M10.3027 15.989V7.39917H12.0371V15.989H10.3027ZM13.7012 15.989V7.39917H17.3516C18.2695 7.39917 18.9355 7.47729 19.3496 7.63354C19.7676 7.78589 20.1016 8.05933 20.3516 8.45386C20.6016 8.84839 20.7266 9.29956 20.7266 9.80737C20.7266 10.4519 20.5371 10.9851 20.1582 11.407C19.7793 11.825 19.2129 12.0886 18.459 12.198C18.834 12.4167 19.1426 12.657 19.3848 12.9187C19.6309 13.1804 19.9609 13.6453 20.375 14.3132L21.4238 15.989H19.3496L18.0957 14.1199C17.6504 13.4519 17.3457 13.032 17.1816 12.8601C17.0176 12.6843 16.8438 12.5652 16.6602 12.5027C16.4766 12.4363 16.1855 12.4031 15.7871 12.4031H15.4355V15.989H13.7012ZM15.4355 11.032H16.7188C17.5508 11.032 18.0703 10.9968 18.2773 10.9265C18.4844 10.8562 18.6465 10.7351 18.7637 10.5632C18.8809 10.3914 18.9395 10.1765 18.9395 9.9187C18.9395 9.62964 18.8613 9.39722 18.7051 9.22144C18.5527 9.04175 18.3359 8.92847 18.0547 8.88159C17.9141 8.86206 17.4922 8.85229 16.7891 8.85229H15.4355V11.032ZM30.1133 15.989H28.2266L27.4766 14.0378H24.043L23.334 15.989H21.4941L24.8398 7.39917H26.6738L30.1133 15.989ZM26.9199 12.5906L25.7363 9.40308L24.5762 12.5906H26.9199ZM31.0625 15.989V7.39917H32.7969V11.2136L36.3008 7.39917H38.6328L35.3984 10.7449L38.8086 15.989H36.5645L34.2031 11.9578L32.7969 13.3933V15.989H31.0625ZM42.5762 15.989V14.2605H39.0605V12.8191L42.7871 7.36401H44.1699V12.8132H45.2363V14.2605H44.1699V15.989H42.5762ZM42.5762 12.8132V9.87769L40.6016 12.8132H42.5762Z" fill="white"/>
<defs>
<linearGradient id="paint0_linear_50_1811" x1="27.5" y1="1.98901" x2="27.5" y2="21.989" gradientUnits="userSpaceOnUse">
<stop stop-color="#B16DAD"/>
<stop offset="1" stop-color="#3AA497"/>
</linearGradient>
</defs>
</svg>
