<svg width="49" height="24" viewBox="0 0 49 24" fill="none" xmlns="http://www.w3.org/2000/svg">
<rect x="2" y="1.98901" width="46" height="20" rx="10" fill="url(#paint0_linear_42_2623)"/>
<rect x="2" y="1.98901" width="46" height="20" rx="10" stroke="#E48716" stroke-width="3" stroke-linejoin="round"/>
<path d="M15.5781 12.8308L17.2598 13.364C17.002 14.3015 16.5723 14.9988 15.9707 15.4558C15.373 15.9089 14.6133 16.1355 13.6914 16.1355C12.5508 16.1355 11.6133 15.7468 10.8789 14.9695C10.1445 14.1882 9.77734 13.1218 9.77734 11.7703C9.77734 10.3406 10.1465 9.2312 10.8848 8.44214C11.623 7.64917 12.5938 7.25269 13.7969 7.25269C14.8477 7.25269 15.7012 7.56323 16.3574 8.18433C16.748 8.55151 17.041 9.07886 17.2363 9.76636L15.5195 10.1765C15.418 9.7312 15.2051 9.37964 14.8809 9.12183C14.5605 8.86401 14.1699 8.73511 13.709 8.73511C13.0723 8.73511 12.5547 8.96362 12.1562 9.42065C11.7617 9.87769 11.5645 10.6179 11.5645 11.6414C11.5645 12.7273 11.7598 13.5007 12.1504 13.9617C12.541 14.4226 13.0488 14.6531 13.6738 14.6531C14.1348 14.6531 14.5312 14.5066 14.8633 14.2136C15.1953 13.9207 15.4336 13.4597 15.5781 12.8308ZM18.7598 15.989V7.39917H22.4102C23.3281 7.39917 23.9941 7.47729 24.4082 7.63354C24.8262 7.78589 25.1602 8.05933 25.4102 8.45386C25.6602 8.84839 25.7852 9.29956 25.7852 9.80737C25.7852 10.4519 25.5957 10.9851 25.2168 11.407C24.8379 11.825 24.2715 12.0886 23.5176 12.198C23.8926 12.4167 24.2012 12.657 24.4434 12.9187C24.6895 13.1804 25.0195 13.6453 25.4336 14.3132L26.4824 15.989H24.4082L23.1543 14.1199C22.709 13.4519 22.4043 13.032 22.2402 12.8601C22.0762 12.6843 21.9023 12.5652 21.7188 12.5027C21.5352 12.4363 21.2441 12.4031 20.8457 12.4031H20.4941V15.989H18.7598ZM20.4941 11.032H21.7773C22.6094 11.032 23.1289 10.9968 23.3359 10.9265C23.543 10.8562 23.7051 10.7351 23.8223 10.5632C23.9395 10.3914 23.998 10.1765 23.998 9.9187C23.998 9.62964 23.9199 9.39722 23.7637 9.22144C23.6113 9.04175 23.3945 8.92847 23.1133 8.88159C22.9727 8.86206 22.5508 8.85229 21.8477 8.85229H20.4941V11.032ZM29.2363 15.989V12.3738L26.0898 7.39917H28.123L30.1445 10.7976L32.125 7.39917H34.123L30.9648 12.3855V15.989H29.2363ZM40.1816 14.4597V15.989H34.4102C34.4727 15.4109 34.6602 14.864 34.9727 14.3484C35.2852 13.8289 35.9023 13.1414 36.8242 12.2859C37.5664 11.5945 38.0215 11.1257 38.1895 10.8796C38.416 10.5398 38.5293 10.2039 38.5293 9.87183C38.5293 9.50464 38.4297 9.22339 38.2305 9.02808C38.0352 8.82886 37.7637 8.72925 37.416 8.72925C37.0723 8.72925 36.7988 8.83276 36.5957 9.03979C36.3926 9.24683 36.2754 9.59058 36.2441 10.071L34.6035 9.90698C34.7012 9.00073 35.0078 8.35034 35.5234 7.95581C36.0391 7.56128 36.6836 7.36401 37.457 7.36401C38.3047 7.36401 38.9707 7.59253 39.4551 8.04956C39.9395 8.50659 40.1816 9.07495 40.1816 9.75464C40.1816 10.1414 40.1113 10.5105 39.9707 10.8621C39.834 11.2097 39.6152 11.575 39.3145 11.9578C39.1152 12.2117 38.7559 12.5769 38.2363 13.0535C37.7168 13.53 37.3867 13.8464 37.2461 14.0027C37.1094 14.1589 36.998 14.3113 36.9121 14.4597H40.1816Z" fill="white"/>
<defs>
<linearGradient id="paint0_linear_42_2623" x1="25" y1="1.98901" x2="25" y2="21.989" gradientUnits="userSpaceOnUse">
<stop stop-color="#835069"/>
<stop offset="1" stop-color="#E48716"/>
</linearGradient>
</defs>
</svg>
