<svg width="79" height="24" viewBox="0 0 79 24" fill="none" xmlns="http://www.w3.org/2000/svg">
<rect x="1" y="1.98901" width="77" height="20" rx="10" fill="url(#paint0_linear_67_1916)"/>
<rect x="1" y="1.98901" width="77" height="20" rx="10" stroke="#8E7900" stroke-width="3" stroke-linejoin="round"/>
<path d="M8.90234 13.1941L10.5898 13.03C10.6914 13.5964 10.8965 14.0125 11.2051 14.2781C11.5176 14.5437 11.9375 14.6765 12.4648 14.6765C13.0234 14.6765 13.4434 14.5593 13.7246 14.325C14.0098 14.0867 14.1523 13.8093 14.1523 13.4929C14.1523 13.2898 14.0918 13.1179 13.9707 12.9773C13.8535 12.8328 13.6465 12.7078 13.3496 12.6023C13.1465 12.532 12.6836 12.407 11.9609 12.2273C11.0312 11.9968 10.3789 11.7136 10.0039 11.3777C9.47656 10.905 9.21289 10.3289 9.21289 9.64917C9.21289 9.21167 9.33594 8.80347 9.58203 8.42456C9.83203 8.04175 10.1895 7.75073 10.6543 7.55151C11.123 7.35229 11.6875 7.25269 12.3477 7.25269C13.4258 7.25269 14.2363 7.48901 14.7793 7.96167C15.3262 8.43433 15.6133 9.06519 15.6406 9.85425L13.9062 9.93042C13.832 9.48901 13.6719 9.17261 13.4258 8.9812C13.1836 8.78589 12.8184 8.68823 12.3301 8.68823C11.8262 8.68823 11.4316 8.79175 11.1465 8.99878C10.9629 9.13159 10.8711 9.30933 10.8711 9.53198C10.8711 9.73511 10.957 9.90894 11.1289 10.0535C11.3477 10.2371 11.8789 10.4285 12.7227 10.6277C13.5664 10.8269 14.1895 11.0339 14.5918 11.2488C14.998 11.4597 15.3145 11.7507 15.541 12.1218C15.7715 12.489 15.8867 12.9441 15.8867 13.4871C15.8867 13.9792 15.75 14.4402 15.4766 14.8699C15.2031 15.2996 14.8164 15.6199 14.3164 15.8308C13.8164 16.0378 13.1934 16.1414 12.4473 16.1414C11.3613 16.1414 10.5273 15.8914 9.94531 15.3914C9.36328 14.8875 9.01562 14.155 8.90234 13.1941ZM17.3223 15.989V7.39917H19.918L21.4766 13.2585L23.0176 7.39917H25.6191V15.989H24.0078V9.22729L22.3027 15.989H20.6328L18.9336 9.22729V15.989H17.3223ZM35.0879 15.989H33.2012L32.4512 14.0378H29.0176L28.3086 15.989H26.4688L29.8145 7.39917H31.6484L35.0879 15.989ZM31.8945 12.5906L30.7109 9.40308L29.5508 12.5906H31.8945ZM36.0078 7.39917H39.1777C39.8926 7.39917 40.4375 7.45386 40.8125 7.56323C41.3164 7.71167 41.748 7.97534 42.1074 8.35425C42.4668 8.73315 42.7402 9.198 42.9277 9.74878C43.1152 10.2957 43.209 10.9714 43.209 11.7761C43.209 12.4832 43.1211 13.0925 42.9453 13.6042C42.7305 14.2292 42.4238 14.7351 42.0254 15.1218C41.7246 15.4148 41.3184 15.6433 40.8066 15.8074C40.4238 15.9285 39.9121 15.989 39.2715 15.989H36.0078V7.39917ZM37.7422 8.85229V14.5417H39.0371C39.5215 14.5417 39.8711 14.5144 40.0859 14.4597C40.3672 14.3894 40.5996 14.2703 40.7832 14.1023C40.9707 13.9343 41.123 13.6589 41.2402 13.2761C41.3574 12.8894 41.416 12.364 41.416 11.7C41.416 11.0359 41.3574 10.5261 41.2402 10.1707C41.123 9.81519 40.959 9.53784 40.748 9.33862C40.5371 9.1394 40.2695 9.00464 39.9453 8.93433C39.7031 8.87964 39.2285 8.85229 38.5215 8.85229H37.7422ZM48.5352 15.989H46.8887V9.78394C46.2871 10.3464 45.5781 10.7625 44.7617 11.032V9.53784C45.1914 9.39722 45.6582 9.13159 46.1621 8.74097C46.666 8.34644 47.0117 7.88745 47.1992 7.36401H48.5352V15.989ZM51.3125 14.3425H52.959V15.5203C52.959 15.9968 52.918 16.3718 52.8359 16.6453C52.7539 16.9226 52.5977 17.1707 52.3672 17.3894C52.1406 17.6082 51.8516 17.78 51.5 17.905L51.1777 17.2253C51.5098 17.116 51.7461 16.9656 51.8867 16.7742C52.0273 16.5828 52.1016 16.321 52.1094 15.989H51.3125V14.3425ZM54.3652 13.78L56.0059 13.6101C56.0527 13.9812 56.1914 14.2761 56.4219 14.4949C56.6523 14.7097 56.918 14.8171 57.2188 14.8171C57.5625 14.8171 57.8535 14.6785 58.0918 14.4011C58.3301 14.1199 58.4492 13.698 58.4492 13.1355C58.4492 12.6082 58.3301 12.2136 58.0918 11.9519C57.8574 11.6863 57.5508 11.5535 57.1719 11.5535C56.6992 11.5535 56.2754 11.7625 55.9004 12.1804L54.5645 11.9871L55.4082 7.51636H59.7617V9.05737H56.6562L56.3984 10.5164C56.7656 10.3328 57.1406 10.241 57.5234 10.241C58.2539 10.241 58.873 10.5066 59.3809 11.0378C59.8887 11.5691 60.1426 12.2585 60.1426 13.1062C60.1426 13.8132 59.9375 14.4441 59.5273 14.9988C58.9688 15.7566 58.1934 16.1355 57.2012 16.1355C56.4082 16.1355 55.7617 15.9226 55.2617 15.4968C54.7617 15.071 54.4629 14.4988 54.3652 13.78ZM61.332 14.3425H62.9785V15.5203C62.9785 15.9968 62.9375 16.3718 62.8555 16.6453C62.7734 16.9226 62.6172 17.1707 62.3867 17.3894C62.1602 17.6082 61.8711 17.78 61.5195 17.905L61.1973 17.2253C61.5293 17.116 61.7656 16.9656 61.9062 16.7742C62.0469 16.5828 62.1211 16.321 62.1289 15.989H61.332V14.3425ZM65.7734 11.3542C65.3477 11.1746 65.0371 10.9285 64.8418 10.616C64.6504 10.2996 64.5547 9.95386 64.5547 9.57886C64.5547 8.93823 64.7773 8.40894 65.2227 7.99097C65.6719 7.573 66.3086 7.36401 67.1328 7.36401C67.9492 7.36401 68.582 7.573 69.0312 7.99097C69.4844 8.40894 69.7109 8.93823 69.7109 9.57886C69.7109 9.97729 69.6074 10.3328 69.4004 10.6453C69.1934 10.9539 68.9023 11.1902 68.5273 11.3542C69.0039 11.5457 69.3652 11.825 69.6113 12.1921C69.8613 12.5593 69.9863 12.9832 69.9863 13.4636C69.9863 14.2566 69.7324 14.9011 69.2246 15.3972C68.7207 15.8933 68.0488 16.1414 67.209 16.1414C66.4277 16.1414 65.7773 15.9363 65.2578 15.5261C64.6445 15.0417 64.3379 14.3777 64.3379 13.5339C64.3379 13.0691 64.4531 12.6433 64.6836 12.2566C64.9141 11.866 65.2773 11.5652 65.7734 11.3542ZM66.1133 9.69604C66.1133 10.0242 66.2051 10.28 66.3887 10.4636C66.5762 10.6472 66.8242 10.739 67.1328 10.739C67.4453 10.739 67.6953 10.6472 67.8828 10.4636C68.0703 10.2761 68.1641 10.0183 68.1641 9.69019C68.1641 9.38159 68.0703 9.1355 67.8828 8.9519C67.6992 8.7644 67.4551 8.67065 67.1504 8.67065C66.834 8.67065 66.582 8.7644 66.3945 8.9519C66.207 9.1394 66.1133 9.38745 66.1133 9.69604ZM65.9609 13.3757C65.9609 13.8289 66.0762 14.1824 66.3066 14.4363C66.541 14.6902 66.832 14.8171 67.1797 14.8171C67.5195 14.8171 67.8008 14.696 68.0234 14.4539C68.2461 14.2078 68.3574 13.8542 68.3574 13.3933C68.3574 12.991 68.2441 12.6687 68.0176 12.4265C67.791 12.1804 67.5039 12.0574 67.1562 12.0574C66.7539 12.0574 66.4531 12.196 66.2539 12.4734C66.0586 12.7507 65.9609 13.0515 65.9609 13.3757Z" fill="white"/>
<defs>
<linearGradient id="paint0_linear_67_1916" x1="39.5" y1="1.98901" x2="39.5" y2="21.989" gradientUnits="userSpaceOnUse">
<stop stop-color="#8E7900"/>
<stop offset="1" stop-color="#00537A"/>
</linearGradient>
</defs>
</svg>
