<svg width="52" height="24" viewBox="0 0 52 24" fill="none" xmlns="http://www.w3.org/2000/svg">
<rect x="2" y="1.98901" width="49" height="20" rx="10" fill="url(#paint0_linear_64_1851)"/>
<rect x="2" y="1.98901" width="49" height="20" rx="10" stroke="#C3378F" stroke-width="3" stroke-linejoin="round"/>
<path d="M15.666 15.989H14.0195V12.8132C14.0195 12.1414 13.9844 11.7078 13.9141 11.5125C13.8438 11.3132 13.7285 11.1589 13.5684 11.0496C13.4121 10.9402 13.2227 10.8855 13 10.8855C12.7148 10.8855 12.459 10.9636 12.2324 11.1199C12.0059 11.2761 11.8496 11.4832 11.7637 11.741C11.6816 11.9988 11.6406 12.4753 11.6406 13.1707V15.989H9.99414V9.76636H11.5234V10.6804C12.0664 9.97729 12.75 9.62573 13.5742 9.62573C13.9375 9.62573 14.2695 9.69214 14.5703 9.82495C14.8711 9.95386 15.0977 10.1199 15.25 10.323C15.4062 10.5261 15.5137 10.7566 15.5723 11.0144C15.6348 11.2722 15.666 11.6414 15.666 12.1218V15.989ZM17.2949 9.76636H18.8301V10.6804C19.0293 10.3679 19.2988 10.114 19.6387 9.9187C19.9785 9.72339 20.3555 9.62573 20.7695 9.62573C21.4922 9.62573 22.1055 9.90894 22.6094 10.4753C23.1133 11.0417 23.3652 11.8308 23.3652 12.8425C23.3652 13.8816 23.1113 14.6902 22.6035 15.2683C22.0957 15.8425 21.4805 16.1296 20.7578 16.1296C20.4141 16.1296 20.1016 16.0613 19.8203 15.9246C19.543 15.7878 19.25 15.5535 18.9414 15.2214V18.3562H17.2949V9.76636ZM18.9238 12.7722C18.9238 13.4714 19.0625 13.989 19.3398 14.325C19.6172 14.657 19.9551 14.823 20.3535 14.823C20.7363 14.823 21.0547 14.6707 21.3086 14.366C21.5625 14.0574 21.6895 13.5535 21.6895 12.8542C21.6895 12.2019 21.5586 11.7175 21.2969 11.4011C21.0352 11.0847 20.7109 10.9265 20.3242 10.9265C19.9219 10.9265 19.5879 11.0828 19.3223 11.3953C19.0566 11.7039 18.9238 12.1628 18.9238 12.7722ZM24.0977 14.2136L25.75 13.9617C25.8203 14.282 25.9629 14.5261 26.1777 14.6941C26.3926 14.8582 26.6934 14.9402 27.0801 14.9402C27.5059 14.9402 27.8262 14.8621 28.041 14.7058C28.1855 14.5964 28.2578 14.45 28.2578 14.2664C28.2578 14.1414 28.2188 14.0378 28.1406 13.9558C28.0586 13.8777 27.875 13.8054 27.5898 13.739C26.2617 13.446 25.4199 13.1785 25.0645 12.9363C24.5723 12.6003 24.3262 12.1335 24.3262 11.5359C24.3262 10.9968 24.5391 10.5437 24.9648 10.1765C25.3906 9.80933 26.0508 9.62573 26.9453 9.62573C27.7969 9.62573 28.4297 9.7644 28.8438 10.0417C29.2578 10.3191 29.543 10.7292 29.6992 11.2722L28.1465 11.5593C28.0801 11.3171 27.9531 11.1316 27.7656 11.0027C27.582 10.8738 27.3184 10.8093 26.9746 10.8093C26.541 10.8093 26.2305 10.8699 26.043 10.991C25.918 11.0769 25.8555 11.1882 25.8555 11.325C25.8555 11.4421 25.9102 11.5417 26.0195 11.6238C26.168 11.7332 26.6797 11.8875 27.5547 12.0867C28.4336 12.2859 29.0469 12.53 29.3945 12.8191C29.7383 13.1121 29.9102 13.5203 29.9102 14.0437C29.9102 14.614 29.6719 15.1042 29.1953 15.5144C28.7188 15.9246 28.0137 16.1296 27.0801 16.1296C26.2324 16.1296 25.5605 15.9578 25.0645 15.614C24.5723 15.2703 24.25 14.8035 24.0977 14.2136ZM35.2188 15.989H33.5723V9.78394C32.9707 10.3464 32.2617 10.7625 31.4453 11.032V9.53784C31.875 9.39722 32.3418 9.13159 32.8457 8.74097C33.3496 8.34644 33.6953 7.88745 33.8828 7.36401H35.2188V15.989ZM43.2637 9.50269L41.6699 9.67847C41.6309 9.35034 41.5293 9.10815 41.3652 8.9519C41.2012 8.79565 40.9883 8.71753 40.7266 8.71753C40.3789 8.71753 40.084 8.87378 39.8418 9.18628C39.6035 9.49878 39.4531 10.1492 39.3906 11.1375C39.8008 10.6531 40.3105 10.4109 40.9199 10.4109C41.6074 10.4109 42.1953 10.6726 42.6836 11.196C43.1758 11.7195 43.4219 12.3953 43.4219 13.2234C43.4219 14.1023 43.1641 14.8074 42.6484 15.3386C42.1328 15.8699 41.4707 16.1355 40.6621 16.1355C39.7949 16.1355 39.082 15.7996 38.5234 15.1277C37.9648 14.4519 37.6855 13.3464 37.6855 11.8113C37.6855 10.2371 37.9766 9.10229 38.5586 8.40698C39.1406 7.71167 39.8965 7.36401 40.8262 7.36401C41.4785 7.36401 42.0176 7.54761 42.4434 7.91479C42.873 8.27808 43.1465 8.80737 43.2637 9.50269ZM39.5312 13.0945C39.5312 13.6296 39.6543 14.0437 39.9004 14.3367C40.1465 14.6257 40.4277 14.7703 40.7441 14.7703C41.0488 14.7703 41.3027 14.6511 41.5059 14.4128C41.709 14.1746 41.8105 13.7839 41.8105 13.241C41.8105 12.6824 41.7012 12.2742 41.4824 12.0164C41.2637 11.7546 40.9902 11.6238 40.6621 11.6238C40.3457 11.6238 40.0781 11.7488 39.8594 11.9988C39.6406 12.2449 39.5312 12.6101 39.5312 13.0945Z" fill="white"/>
<defs>
<linearGradient id="paint0_linear_64_1851" x1="26.5" y1="1.98901" x2="26.5" y2="21.989" gradientUnits="userSpaceOnUse">
<stop stop-color="#F8EB75"/>
<stop offset="1" stop-color="#C3378F"/>
</linearGradient>
</defs>
</svg>
