<svg width="42" height="24" viewBox="0 0 42 24" fill="none" xmlns="http://www.w3.org/2000/svg">
<rect x="2" y="1.98901" width="39" height="20" rx="10" fill="url(#paint0_linear_42_2599)"/>
<rect x="2" y="1.98901" width="39" height="20" rx="10" stroke="#BF3F2E" stroke-width="3" stroke-linejoin="round"/>
<path d="M10.3613 7.39917H13.5312C14.2461 7.39917 14.791 7.45386 15.166 7.56323C15.6699 7.71167 16.1016 7.97534 16.4609 8.35425C16.8203 8.73315 17.0938 9.198 17.2812 9.74878C17.4688 10.2957 17.5625 10.9714 17.5625 11.7761C17.5625 12.4832 17.4746 13.0925 17.2988 13.6042C17.084 14.2292 16.7773 14.7351 16.3789 15.1218C16.0781 15.4148 15.6719 15.6433 15.1602 15.8074C14.7773 15.9285 14.2656 15.989 13.625 15.989H10.3613V7.39917ZM12.0957 8.85229V14.5417H13.3906C13.875 14.5417 14.2246 14.5144 14.4395 14.4597C14.7207 14.3894 14.9531 14.2703 15.1367 14.1023C15.3242 13.9343 15.4766 13.6589 15.5938 13.2761C15.7109 12.8894 15.7695 12.364 15.7695 11.7C15.7695 11.0359 15.7109 10.5261 15.5938 10.1707C15.4766 9.81519 15.3125 9.53784 15.1016 9.33862C14.8906 9.1394 14.623 9.00464 14.2988 8.93433C14.0566 8.87964 13.582 8.85229 12.875 8.85229H12.0957ZM21.2305 15.989L18.1602 7.39917H20.041L22.2148 13.7566L24.3184 7.39917H26.1582L23.082 15.989H21.2305ZM27.0898 15.989V7.46948H28.8242V14.5417H33.1367V15.989H27.0898Z" fill="white"/>
<defs>
<linearGradient id="paint0_linear_42_2599" x1="21.5" y1="1.98901" x2="21.5" y2="21.989" gradientUnits="userSpaceOnUse">
<stop stop-color="#BF3F2E"/>
<stop offset="1" stop-color="#3A8EDC"/>
</linearGradient>
</defs>
</svg>
