<svg width="17" height="193" viewBox="0 0 17 193" fill="none" xmlns="http://www.w3.org/2000/svg">
<path d="M15.0579 192.484H1.425C0.733596 192.484 0.173096 191.923 0.173096 191.232V181.369C0.173096 180.678 0.733596 180.117 1.425 180.117H15.058C15.7494 180.117 16.3099 180.678 16.3099 181.369V191.232C16.3098 191.923 15.7493 192.484 15.0579 192.484Z" fill="url(#paint0_linear_87_3947)"/>
<path d="M15.0579 192.484H1.425C0.733596 192.484 0.173096 191.923 0.173096 191.232V181.369C0.173096 180.678 0.733596 180.117 1.425 180.117H15.058C15.7494 180.117 16.3099 180.678 16.3099 181.369V191.232C16.3098 191.923 15.7493 192.484 15.0579 192.484Z" fill="url(#paint1_linear_87_3947)"/>
<path d="M8.24135 180.319C10.4694 180.319 12.2756 176.022 12.2756 170.721C12.2756 165.42 10.4694 161.122 8.24135 161.122C6.01333 161.122 4.20715 165.42 4.20715 170.721C4.20715 176.022 6.01333 180.319 8.24135 180.319Z" fill="url(#paint2_radial_87_3947)"/>
<path d="M14.3098 161.122H2.1731C1.0685 161.122 0.173096 160.227 0.173096 159.122V131.558C0.173096 130.454 1.0685 129.558 2.1731 129.558H14.3098C15.4144 129.558 16.3098 130.454 16.3098 131.558V159.122C16.3098 160.227 15.4144 161.122 14.3098 161.122Z" fill="url(#paint3_linear_87_3947)"/>
<path d="M14.3098 161.122H2.1731C1.0685 161.122 0.173096 160.227 0.173096 159.122V131.558C0.173096 130.454 1.0685 129.558 2.1731 129.558H14.3098C15.4144 129.558 16.3098 130.454 16.3098 131.558V159.122C16.3098 160.227 15.4144 161.122 14.3098 161.122Z" fill="url(#paint4_linear_87_3947)"/>
<path d="M8.2414 129.558C12.6974 129.558 16.3097 127.201 16.3097 124.293C16.3097 121.385 12.6974 119.028 8.2414 119.028C3.7854 119.028 0.173096 121.385 0.173096 124.293C0.173096 127.201 3.7854 129.558 8.2414 129.558Z" fill="url(#paint5_radial_87_3947)"/>
<path d="M14.3098 119.028H2.1731C1.0685 119.028 0.173096 118.133 0.173096 117.028V114.32C0.173096 113.215 1.0685 112.32 2.1731 112.32H14.3098C15.4144 112.32 16.3098 113.215 16.3098 114.32V117.028C16.3098 118.133 15.4144 119.028 14.3098 119.028Z" fill="url(#paint6_linear_87_3947)"/>
<path d="M14.3098 119.028H2.1731C1.0685 119.028 0.173096 118.133 0.173096 117.028V114.32C0.173096 113.215 1.0685 112.32 2.1731 112.32H14.3098C15.4144 112.32 16.3098 113.215 16.3098 114.32V117.028C16.3098 118.133 15.4144 119.028 14.3098 119.028Z" fill="url(#paint7_linear_87_3947)"/>
<path d="M8.24144 98.3909H3.78174V107.678H8.24144V98.3909Z" fill="url(#paint8_linear_87_3947)"/>
<path d="M12.7012 103.032H8.24146V112.32H12.7012V103.032Z" fill="url(#paint9_linear_87_3947)"/>
<path d="M14.3098 98.3908H2.1731C1.0685 98.3908 0.173096 97.4954 0.173096 96.3908V93.6824C0.173096 92.5778 1.0685 91.6824 2.1731 91.6824H14.3098C15.4144 91.6824 16.3098 92.5778 16.3098 93.6824V96.3908C16.3098 97.4953 15.4144 98.3908 14.3098 98.3908Z" fill="url(#paint10_linear_87_3947)"/>
<path d="M14.3098 98.3908H2.1731C1.0685 98.3908 0.173096 97.4954 0.173096 96.3908V93.6824C0.173096 92.5778 1.0685 91.6824 2.1731 91.6824H14.3098C15.4144 91.6824 16.3098 92.5778 16.3098 93.6824V96.3908C16.3098 97.4953 15.4144 98.3908 14.3098 98.3908Z" fill="url(#paint11_linear_87_3947)"/>
<path d="M14.3098 91.6825H2.1731C1.0685 91.6825 0.173096 90.7871 0.173096 89.6825V86.9741C0.173096 85.8695 1.0685 84.9741 2.1731 84.9741H14.3098C15.4144 84.9741 16.3098 85.8695 16.3098 86.9741V89.6825C16.3098 90.7871 15.4144 91.6825 14.3098 91.6825Z" fill="url(#paint12_linear_87_3947)"/>
<path d="M14.3098 91.6825H2.1731C1.0685 91.6825 0.173096 90.7871 0.173096 89.6825V86.9741C0.173096 85.8695 1.0685 84.9741 2.1731 84.9741H14.3098C15.4144 84.9741 16.3098 85.8695 16.3098 86.9741V89.6825C16.3098 90.7871 15.4144 91.6825 14.3098 91.6825Z" fill="url(#paint13_linear_87_3947)"/>
<path d="M14.3098 84.974H2.1731C1.0685 84.974 0.173096 84.0786 0.173096 82.974V80.2656C0.173096 79.161 1.0685 78.2656 2.1731 78.2656H14.3098C15.4144 78.2656 16.3098 79.161 16.3098 80.2656V82.974C16.3098 84.0786 15.4144 84.974 14.3098 84.974Z" fill="url(#paint14_linear_87_3947)"/>
<path d="M14.3098 84.974H2.1731C1.0685 84.974 0.173096 84.0786 0.173096 82.974V80.2656C0.173096 79.161 1.0685 78.2656 2.1731 78.2656H14.3098C15.4144 78.2656 16.3098 79.161 16.3098 80.2656V82.974C16.3098 84.0786 15.4144 84.974 14.3098 84.974Z" fill="url(#paint15_linear_87_3947)"/>
<path d="M14.3098 78.2657H2.1731C1.0685 78.2657 0.173096 77.3703 0.173096 76.2657V2.98755C0.173096 1.88295 1.0685 0.987549 2.1731 0.987549H14.3098C15.4144 0.987549 16.3098 1.88295 16.3098 2.98755V76.2657C16.3098 77.3703 15.4144 78.2657 14.3098 78.2657Z" fill="url(#paint16_linear_87_3947)"/>
<path d="M0.173096 8.71533H16.3098" stroke="#91D2FF" stroke-miterlimit="10"/>
<path d="M0.173096 16.4431H16.3098" stroke="#91D2FF" stroke-miterlimit="10"/>
<path d="M0.173096 24.1711H16.3098" stroke="#91D2FF" stroke-miterlimit="10"/>
<path d="M0.173096 31.8989H16.3098" stroke="#91D2FF" stroke-miterlimit="10"/>
<path d="M0.173096 39.6267H16.3098" stroke="#91D2FF" stroke-miterlimit="10"/>
<path d="M0.173096 47.3545H16.3098" stroke="#91D2FF" stroke-miterlimit="10"/>
<path d="M0.173096 55.0823H16.3098" stroke="#91D2FF" stroke-miterlimit="10"/>
<path d="M0.173096 62.8101H16.3098" stroke="#91D2FF" stroke-miterlimit="10"/>
<path d="M0.173096 70.5378H16.3098" stroke="#91D2FF" stroke-miterlimit="10"/>
<path d="M14.3098 78.2657H2.1731C1.0685 78.2657 0.173096 77.3703 0.173096 76.2657V2.98755C0.173096 1.88295 1.0685 0.987549 2.1731 0.987549H14.3098C15.4144 0.987549 16.3098 1.88295 16.3098 2.98755V76.2657C16.3098 77.3703 15.4144 78.2657 14.3098 78.2657Z" fill="url(#paint17_linear_87_3947)"/>
<path d="M14.3098 78.2657H2.1731C1.0685 78.2657 0.173096 77.3703 0.173096 76.2657V2.98755C0.173096 1.88295 1.0685 0.987549 2.1731 0.987549H14.3098C15.4144 0.987549 16.3098 1.88295 16.3098 2.98755V76.2657C16.3098 77.3703 15.4144 78.2657 14.3098 78.2657Z" fill="url(#paint18_linear_87_3947)"/>
<defs>
<linearGradient id="paint0_linear_87_3947" x1="0.173096" y1="186.3" x2="16.3098" y2="186.3" gradientUnits="userSpaceOnUse">
<stop stop-color="#4878CC"/>
<stop offset="0.1985" stop-color="#ADC7F5"/>
<stop offset="0.4998" stop-color="#4878CC"/>
<stop offset="1" stop-color="#233A63"/>
</linearGradient>
<linearGradient id="paint1_linear_87_3947" x1="8.2414" y1="180.117" x2="8.2414" y2="192.484" gradientUnits="userSpaceOnUse">
<stop offset="0.7753" stop-color="#4776C8" stop-opacity="0"/>
<stop offset="1" stop-color="#233A63"/>
</linearGradient>
<radialGradient id="paint2_radial_87_3947" cx="0" cy="0" r="1" gradientUnits="userSpaceOnUse" gradientTransform="translate(6.97465 168.565) scale(4.7842 9.66552)">
<stop stop-color="#51DAFF"/>
<stop offset="1" stop-color="#286C80"/>
</radialGradient>
<linearGradient id="paint3_linear_87_3947" x1="0.173096" y1="145.34" x2="16.3098" y2="145.34" gradientUnits="userSpaceOnUse">
<stop stop-color="#48A2CC"/>
<stop offset="0.1985" stop-color="#ADDEF5"/>
<stop offset="0.4998" stop-color="#48A2CC"/>
<stop offset="1" stop-color="#234F63"/>
</linearGradient>
<linearGradient id="paint4_linear_87_3947" x1="8.2414" y1="129.558" x2="8.2414" y2="161.122" gradientUnits="userSpaceOnUse">
<stop offset="0.7753" stop-color="#479FC8" stop-opacity="0"/>
<stop offset="1" stop-color="#234F63"/>
</linearGradient>
<radialGradient id="paint5_radial_87_3947" cx="0" cy="0" r="1" gradientUnits="userSpaceOnUse" gradientTransform="translate(5.7079 123.102) scale(10.9452 6.27051)">
<stop stop-color="#6BCCDE"/>
<stop offset="1" stop-color="#1D4952"/>
</radialGradient>
<linearGradient id="paint6_linear_87_3947" x1="0.173096" y1="115.674" x2="16.3098" y2="115.674" gradientUnits="userSpaceOnUse">
<stop stop-color="#486ECC"/>
<stop offset="0.1985" stop-color="#ADC2F5"/>
<stop offset="0.4998" stop-color="#486ECC"/>
<stop offset="1" stop-color="#233563"/>
</linearGradient>
<linearGradient id="paint7_linear_87_3947" x1="8.2414" y1="112.32" x2="8.2414" y2="119.028" gradientUnits="userSpaceOnUse">
<stop offset="0.3658" stop-color="#476CC8" stop-opacity="0"/>
<stop offset="1" stop-color="#233563"/>
</linearGradient>
<linearGradient id="paint8_linear_87_3947" x1="3.75904" y1="103.023" x2="8.26424" y2="103.046" gradientUnits="userSpaceOnUse">
<stop stop-color="#476CC8"/>
<stop offset="1" stop-color="#283D70"/>
</linearGradient>
<linearGradient id="paint9_linear_87_3947" x1="8.21876" y1="107.665" x2="12.7239" y2="107.687" gradientUnits="userSpaceOnUse">
<stop stop-color="#476CC8"/>
<stop offset="1" stop-color="#283D70"/>
</linearGradient>
<linearGradient id="paint10_linear_87_3947" x1="0.173096" y1="95.0365" x2="16.3098" y2="95.0365" gradientUnits="userSpaceOnUse">
<stop stop-color="#48B9CC"/>
<stop offset="0.1985" stop-color="#ADEAF5"/>
<stop offset="0.4998" stop-color="#48B9CC"/>
<stop offset="1" stop-color="#235A63"/>
</linearGradient>
<linearGradient id="paint11_linear_87_3947" x1="8.2414" y1="91.6824" x2="8.2414" y2="98.3907" gradientUnits="userSpaceOnUse">
<stop offset="0.3658" stop-color="#47B5C8" stop-opacity="0"/>
<stop offset="1" stop-color="#235A63"/>
</linearGradient>
<linearGradient id="paint12_linear_87_3947" x1="0.173096" y1="88.3283" x2="16.3098" y2="88.3283" gradientUnits="userSpaceOnUse">
<stop stop-color="#48B9CC"/>
<stop offset="0.1985" stop-color="#ADEAF5"/>
<stop offset="0.4998" stop-color="#48B9CC"/>
<stop offset="1" stop-color="#235A63"/>
</linearGradient>
<linearGradient id="paint13_linear_87_3947" x1="8.2414" y1="84.9741" x2="8.2414" y2="91.6825" gradientUnits="userSpaceOnUse">
<stop offset="0.3658" stop-color="#47B5C8" stop-opacity="0"/>
<stop offset="1" stop-color="#235A63"/>
</linearGradient>
<linearGradient id="paint14_linear_87_3947" x1="0.173096" y1="81.6198" x2="16.3098" y2="81.6198" gradientUnits="userSpaceOnUse">
<stop stop-color="#48B9CC"/>
<stop offset="0.1985" stop-color="#ADEAF5"/>
<stop offset="0.4998" stop-color="#48B9CC"/>
<stop offset="1" stop-color="#235A63"/>
</linearGradient>
<linearGradient id="paint15_linear_87_3947" x1="8.2414" y1="78.2656" x2="8.2414" y2="84.974" gradientUnits="userSpaceOnUse">
<stop offset="0.3658" stop-color="#47B5C8" stop-opacity="0"/>
<stop offset="1" stop-color="#235A63"/>
</linearGradient>
<linearGradient id="paint16_linear_87_3947" x1="-0.00630429" y1="39.5862" x2="16.4891" y2="39.667" gradientUnits="userSpaceOnUse">
<stop stop-color="#4896CC"/>
<stop offset="0.4998" stop-color="#4793C8"/>
<stop offset="1" stop-color="#234963"/>
</linearGradient>
<linearGradient id="paint17_linear_87_3947" x1="-0.00630429" y1="39.5862" x2="16.4891" y2="39.667" gradientUnits="userSpaceOnUse">
<stop stop-color="#ADD8F5" stop-opacity="0"/>
<stop offset="0.1985" stop-color="#ADD8F5"/>
<stop offset="0.4878" stop-color="#ADD8F5" stop-opacity="0"/>
<stop offset="0.7099" stop-color="#234963" stop-opacity="0"/>
<stop offset="1" stop-color="#234963"/>
</linearGradient>
<linearGradient id="paint18_linear_87_3947" x1="8.24139" y1="0.987549" x2="8.24139" y2="78.2657" gradientUnits="userSpaceOnUse">
<stop offset="0.7753" stop-color="#4793C8" stop-opacity="0"/>
<stop offset="1" stop-color="#234963"/>
</linearGradient>
</defs>
</svg>
