<svg width="88" height="50" viewBox="0 0 88 50" fill="none" xmlns="http://www.w3.org/2000/svg">
<path d="M63.5659 49.396C50.1899 49.396 39.3076 38.5142 39.3076 25.1382C39.3076 17.2764 32.9116 10.8799 25.0493 10.8799C17.1875 10.8799 10.7915 17.2764 10.7915 25.1382C10.7915 27.8994 8.5527 30.1382 5.7915 30.1382C3.0303 30.1382 0.791504 27.8994 0.791504 25.1382C0.791504 11.7622 11.6733 0.879883 25.0493 0.879883C38.4253 0.879883 49.3081 11.7622 49.3081 25.1382C49.3081 33 55.7036 39.396 63.5659 39.396C71.4272 39.396 77.8237 33 77.8237 25.1382C77.8237 22.377 80.062 20.1382 82.8237 20.1382C85.5854 20.1382 87.8237 22.377 87.8237 25.1382C87.8237 38.5142 76.9419 49.396 63.5659 49.396Z" fill="url(#paint0_linear_90_4522)"/>
<defs>
<linearGradient id="paint0_linear_90_4522" x1="0.791504" y1="25.138" x2="87.8237" y2="25.138" gradientUnits="userSpaceOnUse">
<stop stop-color="#7EBE88"/>
<stop offset="1" stop-color="#1D6100"/>
</linearGradient>
</defs>
</svg>
