<svg width="50" height="24" viewBox="0 0 50 24" fill="none" xmlns="http://www.w3.org/2000/svg">
<rect x="2" y="1.98901" width="47" height="20" rx="10" fill="url(#paint0_linear_64_1878)"/>
<rect x="2" y="1.98901" width="47" height="20" rx="10" stroke="#09101A" stroke-width="3" stroke-linejoin="round"/>
<path d="M10.0078 11.7468C10.0078 10.8718 10.1387 10.1375 10.4004 9.5437C10.5957 9.1062 10.8613 8.71362 11.1973 8.36597C11.5371 8.01831 11.9082 7.7605 12.3105 7.59253C12.8457 7.36597 13.4629 7.25269 14.1621 7.25269C15.4277 7.25269 16.4395 7.64526 17.1973 8.43042C17.959 9.21558 18.3398 10.3074 18.3398 11.7058C18.3398 13.0925 17.9629 14.1785 17.209 14.9636C16.4551 15.7449 15.4473 16.1355 14.1855 16.1355C12.9082 16.1355 11.8926 15.7468 11.1387 14.9695C10.3848 14.1882 10.0078 13.114 10.0078 11.7468ZM11.7949 11.6882C11.7949 12.6609 12.0195 13.3992 12.4688 13.9031C12.918 14.4031 13.4883 14.6531 14.1797 14.6531C14.8711 14.6531 15.4375 14.405 15.8789 13.9089C16.3242 13.4089 16.5469 12.6609 16.5469 11.6648C16.5469 10.6804 16.3301 9.94604 15.8965 9.46167C15.4668 8.97729 14.8945 8.73511 14.1797 8.73511C13.4648 8.73511 12.8887 8.9812 12.4512 9.47339C12.0137 9.96167 11.7949 10.7 11.7949 11.6882ZM25.1953 12.8308L26.877 13.364C26.6191 14.3015 26.1895 14.9988 25.5879 15.4558C24.9902 15.9089 24.2305 16.1355 23.3086 16.1355C22.168 16.1355 21.2305 15.7468 20.4961 14.9695C19.7617 14.1882 19.3945 13.1218 19.3945 11.7703C19.3945 10.3406 19.7637 9.2312 20.502 8.44214C21.2402 7.64917 22.2109 7.25269 23.4141 7.25269C24.4648 7.25269 25.3184 7.56323 25.9746 8.18433C26.3652 8.55151 26.6582 9.07886 26.8535 9.76636L25.1367 10.1765C25.0352 9.7312 24.8223 9.37964 24.498 9.12183C24.1777 8.86401 23.7871 8.73511 23.3262 8.73511C22.6895 8.73511 22.1719 8.96362 21.7734 9.42065C21.3789 9.87769 21.1816 10.6179 21.1816 11.6414C21.1816 12.7273 21.377 13.5007 21.7676 13.9617C22.1582 14.4226 22.666 14.6531 23.291 14.6531C23.752 14.6531 24.1484 14.5066 24.4805 14.2136C24.8125 13.9207 25.0508 13.4597 25.1953 12.8308ZM30.3047 15.989V8.85229H27.7559V7.39917H34.582V8.85229H32.0391V15.989H30.3047ZM38.5723 15.989V14.2605H35.0566V12.8191L38.7832 7.36401H40.166V12.8132H41.2324V14.2605H40.166V15.989H38.5723ZM38.5723 12.8132V9.87769L36.5977 12.8132H38.5723Z" fill="white"/>
<defs>
<linearGradient id="paint0_linear_64_1878" x1="25.5" y1="1.98901" x2="25.5" y2="21.989" gradientUnits="userSpaceOnUse">
<stop stop-color="#09101A"/>
<stop offset="1" stop-color="#3E6AAD"/>
</linearGradient>
</defs>
</svg>
