<svg width="63" height="24" viewBox="0 0 63 24" fill="none" xmlns="http://www.w3.org/2000/svg">
<rect x="2" y="1.98901" width="60" height="20" rx="10" fill="url(#paint0_linear_85_2075)"/>
<rect x="2" y="1.98901" width="60" height="20" rx="10" stroke="#FFD200" stroke-width="3" stroke-linejoin="round"/>
<path d="M12.4531 15.989V12.3738L9.30664 7.39917H11.3398L13.3613 10.7976L15.3418 7.39917H17.3398L14.1816 12.3855V15.989H12.4531ZM19.4199 15.989L17.3691 7.39917H19.1445L20.4395 13.2996L22.0098 7.39917H24.0723L25.5781 13.3992L26.8965 7.39917H28.6426L26.5566 15.989H24.7168L23.0059 9.56714L21.3008 15.989H19.4199ZM29.5391 15.989V7.39917H31.2734V10.78H34.6719V7.39917H36.4062V15.989H34.6719V12.2332H31.2734V15.989H29.5391ZM45.9512 15.989H44.0645L43.3145 14.0378H39.8809L39.1719 15.989H37.332L40.6777 7.39917H42.5117L45.9512 15.989ZM42.7578 12.5906L41.5742 9.40308L40.4141 12.5906H42.7578ZM46.8828 7.39917H50.3164C50.9961 7.39917 51.502 7.42847 51.834 7.48706C52.1699 7.54175 52.4688 7.65894 52.7305 7.83862C52.9961 8.01831 53.2168 8.25854 53.3926 8.55933C53.5684 8.8562 53.6562 9.19019 53.6562 9.56128C53.6562 9.96362 53.5469 10.3328 53.3281 10.6687C53.1133 11.0046 52.8203 11.2566 52.4492 11.4246C52.9727 11.5769 53.375 11.8367 53.6562 12.2039C53.9375 12.571 54.0781 13.0027 54.0781 13.4988C54.0781 13.8894 53.9863 14.2703 53.8027 14.6414C53.623 15.0085 53.375 15.3035 53.0586 15.5261C52.7461 15.7449 52.3594 15.8796 51.8984 15.9304C51.6094 15.9617 50.9121 15.9812 49.8066 15.989H46.8828V7.39917ZM48.6172 8.82886V10.8152H49.7539C50.4297 10.8152 50.8496 10.8054 51.0137 10.7859C51.3105 10.7507 51.543 10.6492 51.7109 10.4812C51.8828 10.3093 51.9688 10.0847 51.9688 9.80737C51.9688 9.54175 51.8945 9.3269 51.7461 9.16284C51.6016 8.99487 51.3848 8.89331 51.0957 8.85815C50.9238 8.83862 50.4297 8.82886 49.6133 8.82886H48.6172ZM48.6172 12.2449V14.5417H50.2227C50.8477 14.5417 51.2441 14.5242 51.4121 14.489C51.6699 14.4421 51.8789 14.3289 52.0391 14.1492C52.2031 13.9656 52.2852 13.7214 52.2852 13.4167C52.2852 13.1589 52.2227 12.9402 52.0977 12.7605C51.9727 12.5808 51.791 12.45 51.5527 12.3679C51.3184 12.2859 50.8066 12.2449 50.0176 12.2449H48.6172Z" fill="white"/>
<defs>
<linearGradient id="paint0_linear_85_2075" x1="32" y1="1.98901" x2="32" y2="21.989" gradientUnits="userSpaceOnUse">
<stop stop-color="#FFD200"/>
<stop offset="1" stop-color="#007575"/>
</linearGradient>
</defs>
</svg>
