<svg width="113" height="36" viewBox="0 0 113 36" fill="none" xmlns="http://www.w3.org/2000/svg">
<rect x="1" y="1.98901" width="111" height="32" rx="10" fill="url(#paint0_linear_46_4282)"/>
<rect x="1" y="1.98901" width="111" height="32" rx="10" stroke="#D18F1C" stroke-width="3" stroke-linejoin="round"/>
<path d="M51.0273 11.8308V10.3835H54.7656V13.8054C54.4023 14.157 53.875 14.4675 53.1836 14.7371C52.4961 15.0027 51.7988 15.1355 51.0918 15.1355C50.1934 15.1355 49.4102 14.948 48.7422 14.573C48.0742 14.1941 47.5723 13.655 47.2363 12.9558C46.9004 12.2527 46.7324 11.489 46.7324 10.6648C46.7324 9.77026 46.9199 8.97534 47.2949 8.28003C47.6699 7.58472 48.2188 7.05151 48.9414 6.68042C49.4922 6.39526 50.1777 6.25269 50.998 6.25269C52.0645 6.25269 52.8965 6.47729 53.4941 6.92651C54.0957 7.37183 54.4824 7.98901 54.6543 8.77808L52.9316 9.10034C52.8105 8.67847 52.582 8.34644 52.2461 8.10425C51.9141 7.85815 51.498 7.73511 50.998 7.73511C50.2402 7.73511 49.6367 7.97534 49.1875 8.45581C48.7422 8.93628 48.5195 9.64917 48.5195 10.5945C48.5195 11.614 48.7461 12.3796 49.1992 12.8914C49.6523 13.3992 50.2461 13.6531 50.9805 13.6531C51.3438 13.6531 51.707 13.5828 52.0703 13.4421C52.4375 13.2976 52.752 13.1238 53.0137 12.9207V11.8308H51.0273ZM56.3711 14.989V6.39917H59.1543C60.209 6.39917 60.8965 6.44214 61.2168 6.52808C61.709 6.65698 62.1211 6.93823 62.4531 7.37183C62.7852 7.80151 62.9512 8.35815 62.9512 9.04175C62.9512 9.56909 62.8555 10.0125 62.6641 10.3718C62.4727 10.7312 62.2285 11.0144 61.9316 11.2214C61.6387 11.4246 61.3398 11.5593 61.0352 11.6257C60.6211 11.7078 60.0215 11.7488 59.2363 11.7488H58.1055V14.989H56.3711ZM58.1055 7.85229V10.2898H59.0547C59.7383 10.2898 60.1953 10.2449 60.4258 10.155C60.6562 10.0652 60.8359 9.92456 60.9648 9.73315C61.0977 9.54175 61.1641 9.31909 61.1641 9.06519C61.1641 8.75269 61.0723 8.49487 60.8887 8.29175C60.7051 8.08862 60.4727 7.96167 60.1914 7.91089C59.9844 7.87183 59.5684 7.85229 58.9434 7.85229H58.1055ZM64.3223 14.989V6.39917H66.0566V14.989H64.3223ZM10.9492 28.989V21.8523H8.40039V20.3992H15.2266V21.8523H12.6836V28.989H10.9492ZM16.3574 28.989V20.3992H20.0078C20.9258 20.3992 21.5918 20.4773 22.0059 20.6335C22.4238 20.7859 22.7578 21.0593 23.0078 21.4539C23.2578 21.8484 23.3828 22.2996 23.3828 22.8074C23.3828 23.4519 23.1934 23.9851 22.8145 24.407C22.4355 24.825 21.8691 25.0886 21.1152 25.198C21.4902 25.4167 21.7988 25.657 22.041 25.9187C22.2871 26.1804 22.6172 26.6453 23.0312 27.3132L24.0801 28.989H22.0059L20.752 27.1199C20.3066 26.4519 20.002 26.032 19.8379 25.8601C19.6738 25.6843 19.5 25.5652 19.3164 25.5027C19.1328 25.4363 18.8418 25.4031 18.4434 25.4031H18.0918V28.989H16.3574ZM18.0918 24.032H19.375C20.207 24.032 20.7266 23.9968 20.9336 23.9265C21.1406 23.8562 21.3027 23.7351 21.4199 23.5632C21.5371 23.3914 21.5957 23.1765 21.5957 22.9187C21.5957 22.6296 21.5176 22.3972 21.3613 22.2214C21.209 22.0417 20.9922 21.9285 20.7109 21.8816C20.5703 21.8621 20.1484 21.8523 19.4453 21.8523H18.0918V24.032ZM32.7695 28.989H30.8828L30.1328 27.0378H26.6992L25.9902 28.989H24.1504L27.4961 20.3992H29.3301L32.7695 28.989ZM29.5762 25.5906L28.3926 22.4031L27.2324 25.5906H29.5762ZM33.7129 28.989V20.3992H35.4004L38.916 26.1355V20.3992H40.5273V28.989H38.7871L35.3242 23.3875V28.989H33.7129ZM41.9277 26.1941L43.6152 26.03C43.7168 26.5964 43.9219 27.0125 44.2305 27.2781C44.543 27.5437 44.9629 27.6765 45.4902 27.6765C46.0488 27.6765 46.4688 27.5593 46.75 27.325C47.0352 27.0867 47.1777 26.8093 47.1777 26.4929C47.1777 26.2898 47.1172 26.1179 46.9961 25.9773C46.8789 25.8328 46.6719 25.7078 46.375 25.6023C46.1719 25.532 45.709 25.407 44.9863 25.2273C44.0566 24.9968 43.4043 24.7136 43.0293 24.3777C42.502 23.905 42.2383 23.3289 42.2383 22.6492C42.2383 22.2117 42.3613 21.8035 42.6074 21.4246C42.8574 21.0417 43.2148 20.7507 43.6797 20.5515C44.1484 20.3523 44.7129 20.2527 45.373 20.2527C46.4512 20.2527 47.2617 20.489 47.8047 20.9617C48.3516 21.4343 48.6387 22.0652 48.666 22.8542L46.9316 22.9304C46.8574 22.489 46.6973 22.1726 46.4512 21.9812C46.209 21.7859 45.8438 21.6882 45.3555 21.6882C44.8516 21.6882 44.457 21.7917 44.1719 21.9988C43.9883 22.1316 43.8965 22.3093 43.8965 22.532C43.8965 22.7351 43.9824 22.9089 44.1543 23.0535C44.373 23.2371 44.9043 23.4285 45.748 23.6277C46.5918 23.8269 47.2148 24.0339 47.6172 24.2488C48.0234 24.4597 48.3398 24.7507 48.5664 25.1218C48.7969 25.489 48.9121 25.9441 48.9121 26.4871C48.9121 26.9792 48.7754 27.4402 48.502 27.8699C48.2285 28.2996 47.8418 28.6199 47.3418 28.8308C46.8418 29.0378 46.2188 29.1414 45.4727 29.1414C44.3867 29.1414 43.5527 28.8914 42.9707 28.3914C42.3887 27.8875 42.041 27.155 41.9277 26.1941ZM58.1172 28.989H56.2305L55.4805 27.0378H52.0469L51.3379 28.989H49.498L52.8438 20.3992H54.6777L58.1172 28.989ZM54.9238 25.5906L53.7402 22.4031L52.5801 25.5906H54.9238ZM59.0195 28.989V20.3992H61.6152L63.1738 26.2585L64.7148 20.3992H67.3164V28.989H65.7051V22.2273L64 28.989H62.3301L60.6309 22.2273V28.989H59.0195ZM68.9863 28.989V20.3992H70.7207V28.989H68.9863ZM72.373 20.3992H75.543C76.2578 20.3992 76.8027 20.4539 77.1777 20.5632C77.6816 20.7117 78.1133 20.9753 78.4727 21.3542C78.832 21.7332 79.1055 22.198 79.293 22.7488C79.4805 23.2957 79.5742 23.9714 79.5742 24.7761C79.5742 25.4832 79.4863 26.0925 79.3105 26.6042C79.0957 27.2292 78.7891 27.7351 78.3906 28.1218C78.0898 28.4148 77.6836 28.6433 77.1719 28.8074C76.7891 28.9285 76.2773 28.989 75.6367 28.989H72.373V20.3992ZM74.1074 21.8523V27.5417H75.4023C75.8867 27.5417 76.2363 27.5144 76.4512 27.4597C76.7324 27.3894 76.9648 27.2703 77.1484 27.1023C77.3359 26.9343 77.4883 26.6589 77.6055 26.2761C77.7227 25.8894 77.7812 25.364 77.7812 24.7C77.7812 24.0359 77.7227 23.5261 77.6055 23.1707C77.4883 22.8152 77.3242 22.5378 77.1133 22.3386C76.9023 22.1394 76.6348 22.0046 76.3105 21.9343C76.0684 21.8796 75.5938 21.8523 74.8867 21.8523H74.1074ZM88.7969 28.989H86.9102L86.1602 27.0378H82.7266L82.0176 28.989H80.1777L83.5234 20.3992H85.3574L88.7969 28.989ZM85.6035 25.5906L84.4199 22.4031L83.2598 25.5906H85.6035ZM89.2832 26.1941L90.9707 26.03C91.0723 26.5964 91.2773 27.0125 91.5859 27.2781C91.8984 27.5437 92.3184 27.6765 92.8457 27.6765C93.4043 27.6765 93.8242 27.5593 94.1055 27.325C94.3906 27.0867 94.5332 26.8093 94.5332 26.4929C94.5332 26.2898 94.4727 26.1179 94.3516 25.9773C94.2344 25.8328 94.0273 25.7078 93.7305 25.6023C93.5273 25.532 93.0645 25.407 92.3418 25.2273C91.4121 24.9968 90.7598 24.7136 90.3848 24.3777C89.8574 23.905 89.5938 23.3289 89.5938 22.6492C89.5938 22.2117 89.7168 21.8035 89.9629 21.4246C90.2129 21.0417 90.5703 20.7507 91.0352 20.5515C91.5039 20.3523 92.0684 20.2527 92.7285 20.2527C93.8066 20.2527 94.6172 20.489 95.1602 20.9617C95.707 21.4343 95.9941 22.0652 96.0215 22.8542L94.2871 22.9304C94.2129 22.489 94.0527 22.1726 93.8066 21.9812C93.5645 21.7859 93.1992 21.6882 92.7109 21.6882C92.207 21.6882 91.8125 21.7917 91.5273 21.9988C91.3438 22.1316 91.252 22.3093 91.252 22.532C91.252 22.7351 91.3379 22.9089 91.5098 23.0535C91.7285 23.2371 92.2598 23.4285 93.1035 23.6277C93.9473 23.8269 94.5703 24.0339 94.9727 24.2488C95.3789 24.4597 95.6953 24.7507 95.9219 25.1218C96.1523 25.489 96.2676 25.9441 96.2676 26.4871C96.2676 26.9792 96.1309 27.4402 95.8574 27.8699C95.584 28.2996 95.1973 28.6199 94.6973 28.8308C94.1973 29.0378 93.5742 29.1414 92.8281 29.1414C91.7422 29.1414 90.9082 28.8914 90.3262 28.3914C89.7441 27.8875 89.3965 27.155 89.2832 26.1941ZM97.7266 28.989V20.3992H104.096V21.8523H99.4609V23.7566H103.773V25.2039H99.4609V27.5417H104.26V28.989H97.7266Z" fill="white"/>
<defs>
<linearGradient id="paint0_linear_46_4282" x1="56.5" y1="1.98901" x2="56.5" y2="33.989" gradientUnits="userSpaceOnUse">
<stop stop-color="#D18F1C"/>
<stop offset="1" stop-color="#4A2F00"/>
</linearGradient>
</defs>
</svg>
