<svg width="43" height="24" viewBox="0 0 43 24" fill="none" xmlns="http://www.w3.org/2000/svg">
<rect x="2" y="1.98901" width="40" height="20" rx="10" fill="url(#paint0_linear_65_2000)"/>
<rect x="2" y="1.98901" width="40" height="20" rx="10" stroke="#599FFF" stroke-width="3" stroke-linejoin="round"/>
<path d="M10.1992 15.989V7.39917H12.9824C14.0371 7.39917 14.7246 7.44214 15.0449 7.52808C15.5371 7.65698 15.9492 7.93823 16.2812 8.37183C16.6133 8.80151 16.7793 9.35815 16.7793 10.0417C16.7793 10.5691 16.6836 11.0125 16.4922 11.3718C16.3008 11.7312 16.0566 12.0144 15.7598 12.2214C15.4668 12.4246 15.168 12.5593 14.8633 12.6257C14.4492 12.7078 13.8496 12.7488 13.0645 12.7488H11.9336V15.989H10.1992ZM11.9336 8.85229V11.2898H12.8828C13.5664 11.2898 14.0234 11.2449 14.2539 11.155C14.4844 11.0652 14.6641 10.9246 14.793 10.7332C14.9258 10.5417 14.9922 10.3191 14.9922 10.0652C14.9922 9.75269 14.9004 9.49487 14.7168 9.29175C14.5332 9.08862 14.3008 8.96167 14.0195 8.91089C13.8125 8.87183 13.3965 8.85229 12.7715 8.85229H11.9336ZM18.2266 15.989V7.39917H19.9609V11.2136L23.4648 7.39917H25.7969L22.5625 10.7449L25.9727 15.989H23.7285L21.3672 11.9578L19.9609 13.3933V15.989H18.2266ZM34.6211 15.989H32.7344L31.9844 14.0378H28.5508L27.8418 15.989H26.002L29.3477 7.39917H31.1816L34.6211 15.989ZM31.4277 12.5906L30.2441 9.40308L29.084 12.5906H31.4277Z" fill="white"/>
<defs>
<linearGradient id="paint0_linear_65_2000" x1="22" y1="1.98901" x2="22" y2="21.989" gradientUnits="userSpaceOnUse">
<stop stop-color="#599FFF"/>
<stop offset="1" stop-color="#BC44A7"/>
</linearGradient>
</defs>
</svg>
