<svg width="51" height="24" viewBox="0 0 51 24" fill="none" xmlns="http://www.w3.org/2000/svg">
<rect x="2" y="1.98901" width="48" height="20" rx="10" fill="url(#paint0_linear_64_1880)"/>
<rect x="2" y="1.98901" width="48" height="20" rx="10" stroke="#8C316E" stroke-width="3" stroke-linejoin="round"/>
<path d="M10.2148 15.989V7.39917H11.9023L15.418 13.1355V7.39917H17.0293V15.989H15.2891L11.8262 10.3875V15.989H10.2148ZM22.9531 15.989V15.0574C22.7266 15.3894 22.4277 15.6511 22.0566 15.8425C21.6895 16.0339 21.3008 16.1296 20.8906 16.1296C20.4727 16.1296 20.0977 16.0378 19.7656 15.8542C19.4336 15.6707 19.1934 15.4128 19.0449 15.0808C18.8965 14.7488 18.8223 14.2898 18.8223 13.7039V9.76636H20.4688V12.6257C20.4688 13.5007 20.498 14.0378 20.5566 14.2371C20.6191 14.4324 20.7305 14.5886 20.8906 14.7058C21.0508 14.8191 21.2539 14.8757 21.5 14.8757C21.7812 14.8757 22.0332 14.7996 22.2559 14.6472C22.4785 14.491 22.6309 14.2996 22.7129 14.073C22.7949 13.8425 22.8359 13.282 22.8359 12.3914V9.76636H24.4824V15.989H22.9531ZM26.2109 15.989V7.39917H29.8613C30.7793 7.39917 31.4453 7.47729 31.8594 7.63354C32.2773 7.78589 32.6113 8.05933 32.8613 8.45386C33.1113 8.84839 33.2363 9.29956 33.2363 9.80737C33.2363 10.4519 33.0469 10.9851 32.668 11.407C32.2891 11.825 31.7227 12.0886 30.9688 12.198C31.3438 12.4167 31.6523 12.657 31.8945 12.9187C32.1406 13.1804 32.4707 13.6453 32.8848 14.3132L33.9336 15.989H31.8594L30.6055 14.1199C30.1602 13.4519 29.8555 13.032 29.6914 12.8601C29.5273 12.6843 29.3535 12.5652 29.1699 12.5027C28.9863 12.4363 28.6953 12.4031 28.2969 12.4031H27.9453V15.989H26.2109ZM27.9453 11.032H29.2285C30.0605 11.032 30.5801 10.9968 30.7871 10.9265C30.9941 10.8562 31.1562 10.7351 31.2734 10.5632C31.3906 10.3914 31.4492 10.1765 31.4492 9.9187C31.4492 9.62964 31.3711 9.39722 31.2148 9.22144C31.0625 9.04175 30.8457 8.92847 30.5645 8.88159C30.4238 8.86206 30.002 8.85229 29.2988 8.85229H27.9453V11.032ZM34.8711 7.39917H38.041C38.7559 7.39917 39.3008 7.45386 39.6758 7.56323C40.1797 7.71167 40.6113 7.97534 40.9707 8.35425C41.3301 8.73315 41.6035 9.198 41.791 9.74878C41.9785 10.2957 42.0723 10.9714 42.0723 11.7761C42.0723 12.4832 41.9844 13.0925 41.8086 13.6042C41.5938 14.2292 41.2871 14.7351 40.8887 15.1218C40.5879 15.4148 40.1816 15.6433 39.6699 15.8074C39.2871 15.9285 38.7754 15.989 38.1348 15.989H34.8711V7.39917ZM36.6055 8.85229V14.5417H37.9004C38.3848 14.5417 38.7344 14.5144 38.9492 14.4597C39.2305 14.3894 39.4629 14.2703 39.6465 14.1023C39.834 13.9343 39.9863 13.6589 40.1035 13.2761C40.2207 12.8894 40.2793 12.364 40.2793 11.7C40.2793 11.0359 40.2207 10.5261 40.1035 10.1707C39.9863 9.81519 39.8223 9.53784 39.6113 9.33862C39.4004 9.1394 39.1328 9.00464 38.8086 8.93433C38.5664 8.87964 38.0918 8.85229 37.3848 8.85229H36.6055Z" fill="white"/>
<defs>
<linearGradient id="paint0_linear_64_1880" x1="26" y1="1.98901" x2="26" y2="21.989" gradientUnits="userSpaceOnUse">
<stop stop-color="#95DC9D"/>
<stop offset="1" stop-color="#8C316E"/>
</linearGradient>
</defs>
</svg>
