<svg width="52" height="24" viewBox="0 0 52 24" fill="none" xmlns="http://www.w3.org/2000/svg">
<rect x="2" y="1.98901" width="49" height="20" rx="10" fill="#305C86"/>
<rect x="2" y="1.98901" width="49" height="20" rx="10" stroke="#BF4E92" stroke-width="3" stroke-linejoin="round"/>
<path d="M10.375 15.989V7.39917H16.2637V8.85229H12.1094V10.8855H15.6953V12.3386H12.1094V15.989H10.375ZM17.3477 11.7468C17.3477 10.8718 17.4785 10.1375 17.7402 9.5437C17.9355 9.1062 18.2012 8.71362 18.5371 8.36597C18.877 8.01831 19.248 7.7605 19.6504 7.59253C20.1855 7.36597 20.8027 7.25269 21.502 7.25269C22.7676 7.25269 23.7793 7.64526 24.5371 8.43042C25.2988 9.21558 25.6797 10.3074 25.6797 11.7058C25.6797 13.0925 25.3027 14.1785 24.5488 14.9636C23.7949 15.7449 22.7871 16.1355 21.5254 16.1355C20.248 16.1355 19.2324 15.7468 18.4785 14.9695C17.7246 14.1882 17.3477 13.114 17.3477 11.7468ZM19.1348 11.6882C19.1348 12.6609 19.3594 13.3992 19.8086 13.9031C20.2578 14.4031 20.8281 14.6531 21.5195 14.6531C22.2109 14.6531 22.7773 14.405 23.2188 13.9089C23.6641 13.4089 23.8867 12.6609 23.8867 11.6648C23.8867 10.6804 23.6699 9.94604 23.2363 9.46167C22.8066 8.97729 22.2344 8.73511 21.5195 8.73511C20.8047 8.73511 20.2285 8.9812 19.791 9.47339C19.3535 9.96167 19.1348 10.7 19.1348 11.6882ZM26.166 15.989L29.1016 11.5066L26.4414 7.39917H28.4688L30.1914 10.1589L31.8789 7.39917H33.8887L31.2168 11.571L34.1523 15.989H32.0605L30.1562 13.0183L28.2461 15.989H26.166ZM34.6914 11.7468C34.6914 10.8718 34.8223 10.1375 35.084 9.5437C35.2793 9.1062 35.5449 8.71362 35.8809 8.36597C36.2207 8.01831 36.5918 7.7605 36.9941 7.59253C37.5293 7.36597 38.1465 7.25269 38.8457 7.25269C40.1113 7.25269 41.123 7.64526 41.8809 8.43042C42.6426 9.21558 43.0234 10.3074 43.0234 11.7058C43.0234 13.0925 42.6465 14.1785 41.8926 14.9636C41.1387 15.7449 40.1309 16.1355 38.8691 16.1355C37.5918 16.1355 36.5762 15.7468 35.8223 14.9695C35.0684 14.1882 34.6914 13.114 34.6914 11.7468ZM36.4785 11.6882C36.4785 12.6609 36.7031 13.3992 37.1523 13.9031C37.6016 14.4031 38.1719 14.6531 38.8633 14.6531C39.5547 14.6531 40.1211 14.405 40.5625 13.9089C41.0078 13.4089 41.2305 12.6609 41.2305 11.6648C41.2305 10.6804 41.0137 9.94604 40.5801 9.46167C40.1504 8.97729 39.5781 8.73511 38.8633 8.73511C38.1484 8.73511 37.5723 8.9812 37.1348 9.47339C36.6973 9.96167 36.4785 10.7 36.4785 11.6882Z" fill="white"/>
</svg>
