<svg width="44" height="24" viewBox="0 0 44 24" fill="none" xmlns="http://www.w3.org/2000/svg">
<rect x="2" y="1.98901" width="41" height="20" rx="10" fill="url(#paint0_linear_35_1430)"/>
<rect x="2" y="1.98901" width="41" height="20" rx="10" stroke="#765F59" stroke-width="3" stroke-linejoin="round"/>
<path d="M18.1113 15.989H16.2246L15.4746 14.0378H12.041L11.332 15.989H9.49219L12.8379 7.39917H14.6719L18.1113 15.989ZM14.918 12.5906L13.7344 9.40308L12.5742 12.5906H14.918ZM19.0254 7.39917H20.7598V12.0515C20.7598 12.7898 20.7812 13.2683 20.8242 13.4871C20.8984 13.8386 21.0742 14.1218 21.3516 14.3367C21.6328 14.5476 22.0156 14.6531 22.5 14.6531C22.9922 14.6531 23.3633 14.5535 23.6133 14.3542C23.8633 14.1511 24.0137 13.9031 24.0645 13.6101C24.1152 13.3171 24.1406 12.8308 24.1406 12.1511V7.39917H25.875V11.9109C25.875 12.9421 25.8281 13.6707 25.7344 14.0964C25.6406 14.5222 25.4668 14.8816 25.2129 15.1746C24.9629 15.4675 24.627 15.7019 24.2051 15.8777C23.7832 16.0496 23.2324 16.1355 22.5527 16.1355C21.7324 16.1355 21.1094 16.0417 20.6836 15.8542C20.2617 15.6628 19.9277 15.4167 19.6816 15.116C19.4355 14.8113 19.2734 14.4929 19.1953 14.1609C19.082 13.6687 19.0254 12.9421 19.0254 11.9812V7.39917ZM27.7148 15.989V7.39917H29.4492V10.78H32.8477V7.39917H34.582V15.989H32.8477V12.2332H29.4492V15.989H27.7148Z" fill="white"/>
<defs>
<linearGradient id="paint0_linear_35_1430" x1="22.5" y1="1.98901" x2="22.5" y2="21.989" gradientUnits="userSpaceOnUse">
<stop stop-color="#765F59"/>
<stop offset="1" stop-color="#FF6A9E"/>
</linearGradient>
</defs>
</svg>
