<svg width="41" height="13" viewBox="0 0 41 13" fill="none" xmlns="http://www.w3.org/2000/svg">
<path d="M5.8312 11.7356C3.08577 11.7356 0.852478 9.49276 0.852478 6.7356C0.852478 3.97843 3.08577 1.7356 5.8312 1.7356H34.8738C37.6192 1.7356 39.8525 3.97843 39.8525 6.7356C39.8525 9.49276 37.6192 11.7356 34.8738 11.7356H5.8312Z" fill="#2B3BED"/>
<path d="M28.1881 12.7307C27.1897 12.7201 26.1913 12.7068 25.1929 12.6902C23.5794 12.6633 21.966 12.6279 20.3525 12.5819C18.739 12.536 17.1255 12.4795 15.5121 12.4104C13.8986 12.3413 12.2851 12.2597 10.6716 12.1634C9.05816 12.0672 7.44465 11.9564 5.83123 11.8289C5.83123 11.7667 5.83123 11.7044 5.83123 11.6422C7.44465 11.5148 9.05816 11.404 10.6716 11.3077C12.2851 11.2115 13.8986 11.1298 15.5121 11.0607C17.1255 10.9917 18.739 10.9351 20.3525 10.8892C21.966 10.8432 23.5794 10.8078 25.1929 10.781C26.1913 10.7643 27.1897 10.751 28.1881 10.7404C28.8031 10.7363 29.4182 10.7349 30.0333 10.7359C31.6468 10.7384 33.2603 10.7566 34.8737 10.7811C35.271 10.7842 35.5605 10.7503 35.9218 10.6639C36.2642 10.5791 36.5963 10.4486 36.9075 10.2759C37.2186 10.1035 37.5085 9.88906 37.7667 9.64006C37.8804 9.53042 37.988 9.41409 38.0886 9.29188C38.216 9.13619 38.3324 8.97131 38.4366 8.79882C38.623 8.49043 38.7698 8.15806 38.8722 7.81087C38.976 7.44769 39.0295 7.14008 39.044 6.73559C39.0527 6.3321 39.0221 6.01708 38.939 5.64253C38.8572 5.28359 38.7285 4.93379 38.5559 4.60373C38.3834 4.27384 38.1671 3.96399 37.9136 3.68519C37.6601 3.40633 37.3693 3.15846 37.0499 2.95114C36.7304 2.74365 36.3825 2.57692 36.0161 2.45776C35.6394 2.33768 35.2902 2.26903 34.8741 2.24617C34.874 2.24616 34.8738 2.24616 34.8738 2.24616C33.2603 2.1758 31.6468 2.11398 30.0333 2.07224C28.4198 2.03051 26.8063 2.00886 25.1929 2.01886C24.6937 2.02196 24.1945 2.02808 23.6953 2.03758C22.5811 2.05811 21.4668 2.09685 20.3525 2.14465C18.739 2.21387 17.1255 2.30207 15.5121 2.38146C14.5135 2.4306 13.515 2.47635 12.5166 2.51214C11.9016 2.53006 11.2866 2.54341 10.6716 2.55274C9.05815 2.57723 7.44469 2.57409 5.83119 2.55338C5.42849 2.55078 5.11805 2.58721 4.74774 2.67592C4.39348 2.76324 4.04968 2.89712 3.72672 3.07405C3.40392 3.25078 3.10227 3.47037 2.83231 3.72584C2.71346 3.83828 2.60072 3.95764 2.49492 4.08318C2.3603 4.24282 2.23674 4.41235 2.12563 4.59021C1.92702 4.90804 1.76851 5.25213 1.65576 5.61317C1.54197 5.98629 1.47834 6.32277 1.45733 6.73559C1.44063 7.14685 1.46684 7.49532 1.54663 7.8871C1.62542 8.2674 1.75367 8.64017 1.92893 8.99424C2.10397 9.34813 2.32585 9.68303 2.58869 9.98742C2.85147 10.2919 3.15531 10.5659 3.49236 10.799C3.82952 11.0323 4.1997 11.2245 4.59339 11.3672C4.98694 11.5101 5.40326 11.6031 5.83119 11.6422C5.83119 11.7044 5.83119 11.7667 5.83119 11.8289C5.38719 11.8682 4.93362 11.8472 4.48658 11.763C4.03948 11.679 3.59995 11.5321 3.18477 11.3264C2.76971 11.121 2.37931 10.8573 2.02848 10.5441C1.67759 10.2309 1.36613 9.86816 1.10689 9.46757C0.847409 9.06687 0.640436 8.62852 0.495153 8.16724C0.350629 7.71775 0.264231 7.19631 0.247723 6.7356C0.226523 6.27645 0.275496 5.74301 0.386016 5.27487C0.497336 4.79433 0.674044 4.3273 0.910171 3.89035C1.04226 3.64581 1.19277 3.41076 1.36009 3.18775C1.49167 3.01242 1.63355 2.84447 1.78485 2.68504C2.12849 2.32283 2.52109 2.00467 2.9504 1.7429C3.37978 1.48091 3.84569 1.27569 4.33223 1.13626C4.80251 0.997932 5.36195 0.920266 5.83119 0.917861C7.44468 0.897159 9.05814 0.894018 10.6716 0.918505C11.2866 0.927838 11.9016 0.941184 12.5166 0.959102C13.515 0.994894 14.5135 1.04058 15.5121 1.08962C17.1255 1.16886 18.739 1.25683 20.3525 1.32588C21.4668 1.37357 22.5811 1.41223 23.6953 1.43276C24.1945 1.44225 24.6937 1.4484 25.1929 1.45152C26.8064 1.46161 28.4198 1.44018 30.0333 1.39864C31.6468 1.3571 33.2603 1.29545 34.8737 1.22509C34.8739 1.22509 34.874 1.22508 34.8741 1.22508C35.3297 1.20206 35.8502 1.2475 36.3139 1.3544C36.7882 1.46197 37.2501 1.63434 37.6829 1.86577C38.1156 2.09696 38.5191 2.38684 38.8792 2.72566C39.2394 3.06437 39.5565 3.45221 39.8183 3.87681C40.0804 4.30152 40.2869 4.76285 40.4292 5.24549C40.5704 5.71221 40.6525 6.26713 40.6609 6.73559C40.6756 7.2031 40.6165 7.76539 40.496 8.24348C40.3743 8.73787 40.1859 9.21662 39.9375 9.66301C39.7986 9.91273 39.6411 10.1523 39.4667 10.3791C39.3298 10.5579 39.1826 10.7291 39.0261 10.8914C38.6706 11.2601 38.2663 11.5835 37.8253 11.8495C37.3842 12.1158 36.9065 12.3243 36.4082 12.4663C35.9288 12.607 35.3486 12.6871 34.8738 12.6901C33.2603 12.7146 31.6468 12.7329 30.0333 12.7353C29.4182 12.7362 28.8031 12.7349 28.1881 12.7307Z" fill="#202CB2"/>
</svg>
