<svg width="101" height="121" viewBox="0 0 101 121" fill="none" xmlns="http://www.w3.org/2000/svg">
<path d="M40.9366 38.6951C40.5614 45.5703 40.3673 52.8755 40.364 60.2473C40.364 93.5185 44.1689 120.49 48.8623 120.49C53.5558 120.491 57.3608 93.5204 57.3609 60.249V60.2473C57.3586 54.4033 57.2363 48.5927 56.9978 42.9982C56.9549 43.2118 56.9029 43.4193 56.8383 43.6183C56.77 43.8285 56.69 44.0307 56.5992 44.2249C56.5084 44.4191 56.4065 44.6056 56.2947 44.784C56.1829 44.9625 56.0612 45.1331 55.9301 45.2959C55.6679 45.6217 55.3685 45.9163 55.0387 46.1811C54.7089 46.4458 54.3485 46.6806 53.9644 46.8861C53.5803 47.0915 53.1723 47.2679 52.7469 47.4156C52.3216 47.5634 51.8787 47.6828 51.4252 47.7745C50.9716 47.8663 50.5074 47.9304 50.0388 47.9679C49.5703 48.0054 49.0976 48.016 48.6271 48.0008C48.1567 47.9856 47.6887 47.9447 47.2295 47.8786C46.7703 47.8124 46.3202 47.7212 45.8854 47.6058C45.4505 47.4903 45.031 47.3507 44.6335 47.1877C44.2362 47.0246 43.8609 46.8379 43.5141 46.6288C43.1673 46.4198 42.849 46.1883 42.5659 45.9349C42.2828 45.6816 42.0346 45.4066 41.8284 45.1107C41.6221 44.8148 41.4574 44.4982 41.341 44.1613C41.2828 43.9929 41.2367 43.8194 41.2035 43.641C41.1703 43.4627 41.1499 43.2795 41.1432 43.0915C41.1895 42.4656 41.2012 41.8351 41.1817 41.2004C41.1623 40.5658 41.1115 39.9271 41.0329 39.2846C41.0089 39.0892 40.9656 38.8912 40.9366 38.6951Z" fill="url(#paint0_linear_91_5156)"/>
<path fill-rule="evenodd" clip-rule="evenodd" d="M31.5848 33.3461C36.4608 26.0247 50.0652 22.2322 53.1771 21.6033C49.462 23.3944 49.6355 25.8749 49.746 27.4543C49.7866 28.0344 49.8187 28.493 49.6465 28.7512C49.7402 28.7503 49.8339 28.7497 49.9276 28.7494C61.8985 25.583 77.7849 28.1312 81.6425 29.0057C75.4972 28.7882 71.8631 30.8113 69.6137 32.0635C68.7888 32.5227 68.1501 32.8782 67.6421 32.9816C67.7355 33.0343 67.8283 33.0874 67.9206 33.1409C83.6593 36.6443 97.0731 48.7264 100.348 52.3789C92.9575 47.6666 84.9709 46.8149 80.3165 46.3186C78.5973 46.1353 77.3327 46.0004 76.7207 45.7374C76.7215 45.7779 76.722 45.8185 76.7224 45.8591C87.0237 59.6829 79.0918 80.5238 75.6704 86.32C76.5354 75.5702 69.9806 67.8571 66.3989 63.6424C65.3795 62.4429 64.601 61.5267 64.3028 60.9046C64.051 61.0142 63.7965 61.1211 63.5395 61.2252C50.1654 77.7169 19.0282 81.2009 11.7378 81.0844C23.7776 76.9821 29.4636 68.8194 32.6465 64.2501C33.5213 62.9943 34.207 62.0099 34.7836 61.4558C34.6188 61.3909 34.4551 61.3247 34.2926 61.2575C12.0352 61.9738 1.6523 49.4183 0.348145 46.6767C5.7772 49.4309 13.682 47.9369 18.4718 47.0316C20.1288 46.7184 21.413 46.4757 22.093 46.5037C22.095 46.4147 22.0982 46.3257 22.1023 46.2368C14.8236 37.9769 22.0627 28.4043 23.9238 26.6016C23.3006 29.6058 27.2159 31.3363 29.6981 32.4334C30.5683 32.818 31.2623 33.1247 31.523 33.3812L31.5848 33.3461ZM56.9511 42.1601C56.7796 39.5567 53.3767 37.58 49.3411 37.5753C47.4039 37.5733 45.5 38.0247 44.0194 38.8459C42.5022 39.6875 41.5244 40.8649 41.3255 42.138C41.1191 43.4588 41.7669 44.7744 43.1619 45.7773C44.596 46.8084 46.67 47.4022 48.8966 47.4064C51.1237 47.4104 53.2531 46.8233 54.7822 45.7967C56.27 44.7975 57.0383 43.4827 56.9511 42.1601Z" fill="url(#paint1_radial_91_5156)"/>
<path d="M40.9366 38.6952C40.9656 38.8912 41.0089 39.0893 41.0329 39.2847C41.1115 39.9273 41.1622 40.566 41.1817 41.2006C41.2012 41.8352 41.1895 42.4658 41.1432 43.0916C41.1499 43.2797 41.1703 43.4629 41.2035 43.6412C41.2368 43.8195 41.2828 43.993 41.341 44.1615C41.4574 44.4984 41.6221 44.815 41.8284 45.1109C42.0347 45.4068 42.2828 45.6818 42.5659 45.9351C42.849 46.1884 43.1672 46.42 43.5141 46.629C43.8609 46.838 44.2362 47.0247 44.6335 47.1879C45.0309 47.3509 45.4505 47.4905 45.8854 47.6059C46.3202 47.7214 46.7703 47.8126 47.2295 47.8788C47.6887 47.945 48.1567 47.9858 48.6271 48.001C49.0976 48.0163 49.5703 48.0057 50.0388 47.9682C50.5073 47.9308 50.9716 47.8667 51.4252 47.7749C51.8787 47.6831 52.3215 47.5637 52.7469 47.416C53.1722 47.2682 53.5801 47.0919 53.9643 46.8864C54.3485 46.681 54.7089 46.4463 55.0386 46.1814C55.3684 45.9167 55.6677 45.622 55.9301 45.2963C56.0612 45.1334 56.1828 44.9628 56.2946 44.7843C56.4065 44.6059 56.5083 44.4195 56.5991 44.2253C56.69 44.031 56.7699 43.8288 56.8382 43.6186C56.9028 43.4195 56.9549 43.2121 56.9977 42.9986C55.923 17.5033 52.616 0.0264231 48.8623 0.00439453C45.3456 0.0342571 42.1947 15.4157 40.9366 38.6952Z" fill="url(#paint2_linear_91_5156)"/>
<defs>
<linearGradient id="paint0_linear_91_5156" x1="55.0826" y1="79.5203" x2="46.1284" y2="79.5545" gradientUnits="userSpaceOnUse">
<stop stop-color="#800000"/>
<stop offset="0.5065" stop-color="#FF5555"/>
<stop offset="1" stop-color="#AA0000"/>
</linearGradient>
<radialGradient id="paint1_radial_91_5156" cx="0" cy="0" r="1" gradientUnits="userSpaceOnUse" gradientTransform="translate(59.8299 32.2733) rotate(130.266) scale(115.397 121.366)">
<stop stop-color="#2B0000"/>
<stop offset="1" stop-color="#FF0000"/>
</radialGradient>
<linearGradient id="paint2_linear_91_5156" x1="54.8449" y1="23.9635" x2="46.3838" y2="24.0156" gradientUnits="userSpaceOnUse">
<stop stop-color="#800000"/>
<stop offset="0.5065" stop-color="#FF5555"/>
<stop offset="1" stop-color="#AA0000"/>
</linearGradient>
</defs>
</svg>
