<svg width="52" height="24" viewBox="0 0 52 24" fill="none" xmlns="http://www.w3.org/2000/svg">
<rect x="2" y="1.98901" width="49" height="20" rx="10" fill="url(#paint0_linear_67_1811)"/>
<rect x="2" y="1.98901" width="49" height="20" rx="10" stroke="#ED8600" stroke-width="3" stroke-linejoin="round"/>
<path d="M10.3574 15.989V7.39917H13.1406C14.1953 7.39917 14.8828 7.44214 15.2031 7.52808C15.6953 7.65698 16.1074 7.93823 16.4395 8.37183C16.7715 8.80151 16.9375 9.35815 16.9375 10.0417C16.9375 10.5691 16.8418 11.0125 16.6504 11.3718C16.459 11.7312 16.2148 12.0144 15.918 12.2214C15.625 12.4246 15.3262 12.5593 15.0215 12.6257C14.6074 12.7078 14.0078 12.7488 13.2227 12.7488H12.0918V15.989H10.3574ZM12.0918 8.85229V11.2898H13.041C13.7246 11.2898 14.1816 11.2449 14.4121 11.155C14.6426 11.0652 14.8223 10.9246 14.9512 10.7332C15.084 10.5417 15.1504 10.3191 15.1504 10.0652C15.1504 9.75269 15.0586 9.49487 14.875 9.29175C14.6914 9.08862 14.459 8.96167 14.1777 8.91089C13.9707 8.87183 13.5547 8.85229 12.9297 8.85229H12.0918ZM17.9219 13.1941L19.6094 13.03C19.7109 13.5964 19.916 14.0125 20.2246 14.2781C20.5371 14.5437 20.957 14.6765 21.4844 14.6765C22.043 14.6765 22.4629 14.5593 22.7441 14.325C23.0293 14.0867 23.1719 13.8093 23.1719 13.4929C23.1719 13.2898 23.1113 13.1179 22.9902 12.9773C22.873 12.8328 22.666 12.7078 22.3691 12.6023C22.166 12.532 21.7031 12.407 20.9805 12.2273C20.0508 11.9968 19.3984 11.7136 19.0234 11.3777C18.4961 10.905 18.2324 10.3289 18.2324 9.64917C18.2324 9.21167 18.3555 8.80347 18.6016 8.42456C18.8516 8.04175 19.209 7.75073 19.6738 7.55151C20.1426 7.35229 20.707 7.25269 21.3672 7.25269C22.4453 7.25269 23.2559 7.48901 23.7988 7.96167C24.3457 8.43433 24.6328 9.06519 24.6602 9.85425L22.9258 9.93042C22.8516 9.48901 22.6914 9.17261 22.4453 8.9812C22.2031 8.78589 21.8379 8.68823 21.3496 8.68823C20.8457 8.68823 20.4512 8.79175 20.166 8.99878C19.9824 9.13159 19.8906 9.30933 19.8906 9.53198C19.8906 9.73511 19.9766 9.90894 20.1484 10.0535C20.3672 10.2371 20.8984 10.4285 21.7422 10.6277C22.5859 10.8269 23.209 11.0339 23.6113 11.2488C24.0176 11.4597 24.334 11.7507 24.5605 12.1218C24.791 12.489 24.9062 12.9441 24.9062 13.4871C24.9062 13.9792 24.7695 14.4402 24.4961 14.8699C24.2227 15.2996 23.8359 15.6199 23.3359 15.8308C22.8359 16.0378 22.2129 16.1414 21.4668 16.1414C20.3809 16.1414 19.5469 15.8914 18.9648 15.3914C18.3828 14.8875 18.0352 14.155 17.9219 13.1941ZM26.3125 15.989V7.39917H28.0469V15.989H26.3125ZM29.7051 15.989V7.39917H32.4883C33.543 7.39917 34.2305 7.44214 34.5508 7.52808C35.043 7.65698 35.4551 7.93823 35.7871 8.37183C36.1191 8.80151 36.2852 9.35815 36.2852 10.0417C36.2852 10.5691 36.1895 11.0125 35.998 11.3718C35.8066 11.7312 35.5625 12.0144 35.2656 12.2214C34.9727 12.4246 34.6738 12.5593 34.3691 12.6257C33.9551 12.7078 33.3555 12.7488 32.5703 12.7488H31.4395V15.989H29.7051ZM31.4395 8.85229V11.2898H32.3887C33.0723 11.2898 33.5293 11.2449 33.7598 11.155C33.9902 11.0652 34.1699 10.9246 34.2988 10.7332C34.4316 10.5417 34.498 10.3191 34.498 10.0652C34.498 9.75269 34.4062 9.49487 34.2227 9.29175C34.0391 9.08862 33.8066 8.96167 33.5254 8.91089C33.3184 8.87183 32.9023 8.85229 32.2773 8.85229H31.4395ZM41.5586 15.989H39.9121V9.78394C39.3105 10.3464 38.6016 10.7625 37.7852 11.032V9.53784C38.2148 9.39722 38.6816 9.13159 39.1855 8.74097C39.6895 8.34644 40.0352 7.88745 40.2227 7.36401H41.5586V15.989Z" fill="white"/>
<defs>
<linearGradient id="paint0_linear_67_1811" x1="26.5" y1="1.98901" x2="26.5" y2="21.989" gradientUnits="userSpaceOnUse">
<stop stop-color="#ED8600"/>
<stop offset="1" stop-color="#7E629A"/>
</linearGradient>
</defs>
</svg>
