<svg width="69" height="24" viewBox="0 0 69 24" fill="none" xmlns="http://www.w3.org/2000/svg">
<rect x="1" y="1.98901" width="67" height="20" rx="10" fill="url(#paint0_linear_35_1487)"/>
<rect x="1" y="1.98901" width="67" height="20" rx="10" stroke="#B4E200" stroke-width="3" stroke-linejoin="round"/>
<path d="M16.752 15.989H14.8652L14.1152 14.0378H10.6816L9.97266 15.989H8.13281L11.4785 7.39917H13.3125L16.752 15.989ZM13.5586 12.5906L12.375 9.40308L11.2148 12.5906H13.5586ZM17.6953 15.989V7.39917H19.3828L22.8984 13.1355V7.39917H24.5098V15.989H22.7695L19.3066 10.3875V15.989H17.6953ZM26.373 15.989V7.39917H28.1074V11.2136L31.6113 7.39917H33.9434L30.709 10.7449L34.1191 15.989H31.875L29.5137 11.9578L28.1074 13.3933V15.989H26.373ZM38.8711 15.989H37.2246V9.78394C36.623 10.3464 35.9141 10.7625 35.0977 11.032V9.53784C35.5273 9.39722 35.9941 9.13159 36.498 8.74097C37.002 8.34644 37.3477 7.88745 37.5352 7.36401H38.8711V15.989ZM41.6484 14.3425H43.2949V15.5203C43.2949 15.9968 43.2539 16.3718 43.1719 16.6453C43.0898 16.9226 42.9336 17.1707 42.7031 17.3894C42.4766 17.6082 42.1875 17.78 41.8359 17.905L41.5137 17.2253C41.8457 17.116 42.082 16.9656 42.2227 16.7742C42.3633 16.5828 42.4375 16.321 42.4453 15.989H41.6484V14.3425ZM50.2383 14.4597V15.989H44.4668C44.5293 15.4109 44.7168 14.864 45.0293 14.3484C45.3418 13.8289 45.959 13.1414 46.8809 12.2859C47.623 11.5945 48.0781 11.1257 48.2461 10.8796C48.4727 10.5398 48.5859 10.2039 48.5859 9.87183C48.5859 9.50464 48.4863 9.22339 48.2871 9.02808C48.0918 8.82886 47.8203 8.72925 47.4727 8.72925C47.1289 8.72925 46.8555 8.83276 46.6523 9.03979C46.4492 9.24683 46.332 9.59058 46.3008 10.071L44.6602 9.90698C44.7578 9.00073 45.0645 8.35034 45.5801 7.95581C46.0957 7.56128 46.7402 7.36401 47.5137 7.36401C48.3613 7.36401 49.0273 7.59253 49.5117 8.04956C49.9961 8.50659 50.2383 9.07495 50.2383 9.75464C50.2383 10.1414 50.168 10.5105 50.0273 10.8621C49.8906 11.2097 49.6719 11.575 49.3711 11.9578C49.1719 12.2117 48.8125 12.5769 48.293 13.0535C47.7734 13.53 47.4434 13.8464 47.3027 14.0027C47.166 14.1589 47.0547 14.3113 46.9688 14.4597H50.2383ZM51.668 14.3425H53.3145V15.5203C53.3145 15.9968 53.2734 16.3718 53.1914 16.6453C53.1094 16.9226 52.9531 17.1707 52.7227 17.3894C52.4961 17.6082 52.207 17.78 51.8555 17.905L51.5332 17.2253C51.8652 17.116 52.1016 16.9656 52.2422 16.7742C52.3828 16.5828 52.457 16.321 52.4648 15.989H51.668V14.3425ZM54.6387 13.7097L56.2324 13.5164C56.2832 13.9226 56.4199 14.2332 56.6426 14.448C56.8652 14.6628 57.1348 14.7703 57.4512 14.7703C57.791 14.7703 58.0762 14.6414 58.3066 14.3835C58.541 14.1257 58.6582 13.7781 58.6582 13.3406C58.6582 12.9265 58.5469 12.5984 58.3242 12.3562C58.1016 12.114 57.8301 11.9929 57.5098 11.9929C57.2988 11.9929 57.0469 12.0339 56.7539 12.116L56.9355 10.7742C57.3809 10.7859 57.7207 10.6902 57.9551 10.4871C58.1895 10.28 58.3066 10.0066 58.3066 9.66675C58.3066 9.37769 58.2207 9.14722 58.0488 8.97534C57.877 8.80347 57.6484 8.71753 57.3633 8.71753C57.082 8.71753 56.8418 8.81519 56.6426 9.0105C56.4434 9.20581 56.3223 9.49097 56.2793 9.86597L54.7617 9.60815C54.8672 9.08862 55.0254 8.67456 55.2363 8.36597C55.4512 8.05347 55.748 7.80933 56.127 7.63354C56.5098 7.45386 56.9375 7.36401 57.4102 7.36401C58.2188 7.36401 58.8672 7.62183 59.3555 8.13745C59.7578 8.55933 59.959 9.03589 59.959 9.56714C59.959 10.321 59.5469 10.9226 58.7227 11.3718C59.2148 11.4773 59.6074 11.7136 59.9004 12.0808C60.1973 12.448 60.3457 12.8914 60.3457 13.4109C60.3457 14.1648 60.0703 14.8074 59.5195 15.3386C58.9688 15.8699 58.2832 16.1355 57.4629 16.1355C56.6855 16.1355 56.041 15.9128 55.5293 15.4675C55.0176 15.0183 54.7207 14.4324 54.6387 13.7097Z" fill="white"/>
<defs>
<linearGradient id="paint0_linear_35_1487" x1="34.5" y1="1.98901" x2="34.5" y2="21.989" gradientUnits="userSpaceOnUse">
<stop stop-color="#B4E200"/>
<stop offset="1" stop-color="#8449FF"/>
</linearGradient>
</defs>
</svg>
