<svg width="49" height="25" viewBox="0 0 49 25" fill="none" xmlns="http://www.w3.org/2000/svg">
<path d="M6.49606 12.5136C9.6785 12.5136 12.2584 9.93374 12.2584 6.75131C12.2584 3.56888 9.6785 0.989014 6.49606 0.989014C3.31363 0.989014 0.733765 3.56888 0.733765 6.75131C0.733765 9.93374 3.31363 12.5136 6.49606 12.5136Z" fill="url(#paint0_radial_85_2321)"/>
<path d="M18.4969 12.5136C21.6793 12.5136 24.2592 9.93374 24.2592 6.75131C24.2592 3.56888 21.6793 0.989014 18.4969 0.989014C15.3144 0.989014 12.7346 3.56888 12.7346 6.75131C12.7346 9.93374 15.3144 12.5136 18.4969 12.5136Z" fill="url(#paint1_radial_85_2321)"/>
<path d="M30.4976 12.5136C33.68 12.5136 36.2599 9.93374 36.2599 6.75131C36.2599 3.56888 33.68 0.989014 30.4976 0.989014C27.3151 0.989014 24.7353 3.56888 24.7353 6.75131C24.7353 9.93374 27.3151 12.5136 30.4976 12.5136Z" fill="url(#paint2_radial_85_2321)"/>
<path d="M42.4984 12.5136C45.6808 12.5136 48.2607 9.93374 48.2607 6.75131C48.2607 3.56888 45.6808 0.989014 42.4984 0.989014C39.3159 0.989014 36.7361 3.56888 36.7361 6.75131C36.7361 9.93374 39.3159 12.5136 42.4984 12.5136Z" fill="url(#paint3_radial_85_2321)"/>
<path d="M12.4965 24.6706C15.6789 24.6706 18.2588 22.0907 18.2588 18.9083C18.2588 15.7259 15.6789 13.146 12.4965 13.146C9.31403 13.146 6.73416 15.7259 6.73416 18.9083C6.73416 22.0907 9.31403 24.6706 12.4965 24.6706Z" fill="url(#paint4_radial_85_2321)"/>
<path d="M24.4973 24.6706C27.6797 24.6706 30.2596 22.0907 30.2596 18.9083C30.2596 15.7259 27.6797 13.146 24.4973 13.146C21.3148 13.146 18.735 15.7259 18.735 18.9083C18.735 22.0907 21.3148 24.6706 24.4973 24.6706Z" fill="url(#paint5_radial_85_2321)"/>
<path d="M36.498 24.6706C39.6804 24.6706 42.2603 22.0907 42.2603 18.9083C42.2603 15.7259 39.6804 13.146 36.498 13.146C33.3155 13.146 30.7357 15.7259 30.7357 18.9083C30.7357 22.0907 33.3155 24.6706 36.498 24.6706Z" fill="url(#paint6_radial_85_2321)"/>
<defs>
<radialGradient id="paint0_radial_85_2321" cx="0" cy="0" r="1" gradientUnits="userSpaceOnUse" gradientTransform="translate(5.53006 4.92661) scale(5.7623)">
<stop stop-color="#F5999B"/>
<stop offset="1" stop-color="#AD1F23"/>
</radialGradient>
<radialGradient id="paint1_radial_85_2321" cx="0" cy="0" r="1" gradientUnits="userSpaceOnUse" gradientTransform="translate(17.5309 4.92661) scale(5.7623)">
<stop stop-color="#FFD89B"/>
<stop offset="1" stop-color="#AD6D29"/>
</radialGradient>
<radialGradient id="paint2_radial_85_2321" cx="0" cy="0" r="1" gradientUnits="userSpaceOnUse" gradientTransform="translate(29.5316 4.92661) scale(5.7623)">
<stop stop-color="#FFE8C3"/>
<stop offset="1" stop-color="#AE874A"/>
</radialGradient>
<radialGradient id="paint3_radial_85_2321" cx="0" cy="0" r="1" gradientUnits="userSpaceOnUse" gradientTransform="translate(41.5324 4.92661) scale(5.7623)">
<stop stop-color="#FCF49E"/>
<stop offset="1" stop-color="#AC9F33"/>
</radialGradient>
<radialGradient id="paint4_radial_85_2321" cx="0" cy="0" r="1" gradientUnits="userSpaceOnUse" gradientTransform="translate(11.5305 17.0836) scale(5.7623)">
<stop stop-color="#A0ADD8"/>
<stop offset="1" stop-color="#293E98"/>
</radialGradient>
<radialGradient id="paint5_radial_85_2321" cx="0" cy="0" r="1" gradientUnits="userSpaceOnUse" gradientTransform="translate(23.5312 17.0836) scale(5.7623)">
<stop stop-color="#A0D0F0"/>
<stop offset="1" stop-color="#0464AD"/>
</radialGradient>
<radialGradient id="paint6_radial_85_2321" cx="0" cy="0" r="1" gradientUnits="userSpaceOnUse" gradientTransform="translate(35.532 17.0836) scale(5.7623)">
<stop stop-color="#CFE8F8"/>
<stop offset="1" stop-color="#377AAE"/>
</radialGradient>
</defs>
</svg>
