<svg width="50" height="24" viewBox="0 0 50 24" fill="none" xmlns="http://www.w3.org/2000/svg">
<rect x="2" y="1.98901" width="47" height="20" rx="10" fill="url(#paint0_linear_67_1898)"/>
<rect x="2" y="1.98901" width="47" height="20" rx="10" stroke="#6E5EB7" stroke-width="3" stroke-linejoin="round"/>
<path d="M10.3652 15.989V7.39917H14.0156C14.9336 7.39917 15.5996 7.47729 16.0137 7.63354C16.4316 7.78589 16.7656 8.05933 17.0156 8.45386C17.2656 8.84839 17.3906 9.29956 17.3906 9.80737C17.3906 10.4519 17.2012 10.9851 16.8223 11.407C16.4434 11.825 15.877 12.0886 15.123 12.198C15.498 12.4167 15.8066 12.657 16.0488 12.9187C16.2949 13.1804 16.625 13.6453 17.0391 14.3132L18.0879 15.989H16.0137L14.7598 14.1199C14.3145 13.4519 14.0098 13.032 13.8457 12.8601C13.6816 12.6843 13.5078 12.5652 13.3242 12.5027C13.1406 12.4363 12.8496 12.4031 12.4512 12.4031H12.0996V15.989H10.3652ZM12.0996 11.032H13.3828C14.2148 11.032 14.7344 10.9968 14.9414 10.9265C15.1484 10.8562 15.3105 10.7351 15.4277 10.5632C15.5449 10.3914 15.6035 10.1765 15.6035 9.9187C15.6035 9.62964 15.5254 9.39722 15.3691 9.22144C15.2168 9.04175 15 8.92847 14.7188 8.88159C14.5781 8.86206 14.1562 8.85229 13.4531 8.85229H12.0996V11.032ZM19.0371 15.989V7.39917H22.6875C23.6055 7.39917 24.2715 7.47729 24.6855 7.63354C25.1035 7.78589 25.4375 8.05933 25.6875 8.45386C25.9375 8.84839 26.0625 9.29956 26.0625 9.80737C26.0625 10.4519 25.873 10.9851 25.4941 11.407C25.1152 11.825 24.5488 12.0886 23.7949 12.198C24.1699 12.4167 24.4785 12.657 24.7207 12.9187C24.9668 13.1804 25.2969 13.6453 25.7109 14.3132L26.7598 15.989H24.6855L23.4316 14.1199C22.9863 13.4519 22.6816 13.032 22.5176 12.8601C22.3535 12.6843 22.1797 12.5652 21.9961 12.5027C21.8125 12.4363 21.5215 12.4031 21.123 12.4031H20.7715V15.989H19.0371ZM20.7715 11.032H22.0547C22.8867 11.032 23.4062 10.9968 23.6133 10.9265C23.8203 10.8562 23.9824 10.7351 24.0996 10.5632C24.2168 10.3914 24.2754 10.1765 24.2754 9.9187C24.2754 9.62964 24.1973 9.39722 24.041 9.22144C23.8887 9.04175 23.6719 8.92847 23.3906 8.88159C23.25 8.86206 22.8281 8.85229 22.125 8.85229H20.7715V11.032ZM27.7031 15.989V7.39917H30.4863C31.541 7.39917 32.2285 7.44214 32.5488 7.52808C33.041 7.65698 33.4531 7.93823 33.7852 8.37183C34.1172 8.80151 34.2832 9.35815 34.2832 10.0417C34.2832 10.5691 34.1875 11.0125 33.9961 11.3718C33.8047 11.7312 33.5605 12.0144 33.2637 12.2214C32.9707 12.4246 32.6719 12.5593 32.3672 12.6257C31.9531 12.7078 31.3535 12.7488 30.5684 12.7488H29.4375V15.989H27.7031ZM29.4375 8.85229V11.2898H30.3867C31.0703 11.2898 31.5273 11.2449 31.7578 11.155C31.9883 11.0652 32.168 10.9246 32.2969 10.7332C32.4297 10.5417 32.4961 10.3191 32.4961 10.0652C32.4961 9.75269 32.4043 9.49487 32.2207 9.29175C32.0371 9.08862 31.8047 8.96167 31.5234 8.91089C31.3164 8.87183 30.9004 8.85229 30.2754 8.85229H29.4375ZM36.7559 11.3542C36.3301 11.1746 36.0195 10.9285 35.8242 10.616C35.6328 10.2996 35.5371 9.95386 35.5371 9.57886C35.5371 8.93823 35.7598 8.40894 36.2051 7.99097C36.6543 7.573 37.291 7.36401 38.1152 7.36401C38.9316 7.36401 39.5645 7.573 40.0137 7.99097C40.4668 8.40894 40.6934 8.93823 40.6934 9.57886C40.6934 9.97729 40.5898 10.3328 40.3828 10.6453C40.1758 10.9539 39.8848 11.1902 39.5098 11.3542C39.9863 11.5457 40.3477 11.825 40.5938 12.1921C40.8438 12.5593 40.9688 12.9832 40.9688 13.4636C40.9688 14.2566 40.7148 14.9011 40.207 15.3972C39.7031 15.8933 39.0312 16.1414 38.1914 16.1414C37.4102 16.1414 36.7598 15.9363 36.2402 15.5261C35.627 15.0417 35.3203 14.3777 35.3203 13.5339C35.3203 13.0691 35.4355 12.6433 35.666 12.2566C35.8965 11.866 36.2598 11.5652 36.7559 11.3542ZM37.0957 9.69604C37.0957 10.0242 37.1875 10.28 37.3711 10.4636C37.5586 10.6472 37.8066 10.739 38.1152 10.739C38.4277 10.739 38.6777 10.6472 38.8652 10.4636C39.0527 10.2761 39.1465 10.0183 39.1465 9.69019C39.1465 9.38159 39.0527 9.1355 38.8652 8.9519C38.6816 8.7644 38.4375 8.67065 38.1328 8.67065C37.8164 8.67065 37.5645 8.7644 37.377 8.9519C37.1895 9.1394 37.0957 9.38745 37.0957 9.69604ZM36.9434 13.3757C36.9434 13.8289 37.0586 14.1824 37.2891 14.4363C37.5234 14.6902 37.8145 14.8171 38.1621 14.8171C38.502 14.8171 38.7832 14.696 39.0059 14.4539C39.2285 14.2078 39.3398 13.8542 39.3398 13.3933C39.3398 12.991 39.2266 12.6687 39 12.4265C38.7734 12.1804 38.4863 12.0574 38.1387 12.0574C37.7363 12.0574 37.4355 12.196 37.2363 12.4734C37.041 12.7507 36.9434 13.0515 36.9434 13.3757Z" fill="white"/>
<defs>
<linearGradient id="paint0_linear_67_1898" x1="25.5" y1="1.98901" x2="25.5" y2="21.989" gradientUnits="userSpaceOnUse">
<stop stop-color="#50BFA8"/>
<stop offset="1" stop-color="#6E5EB7"/>
</linearGradient>
</defs>
</svg>
