<svg width="65" height="24" viewBox="0 0 65 24" fill="none" xmlns="http://www.w3.org/2000/svg">
<rect x="1" y="1.98901" width="63" height="20" rx="10" fill="url(#paint0_linear_38_1846)"/>
<rect x="1" y="1.98901" width="63" height="20" rx="10" stroke="#007F9C" stroke-width="3" stroke-linejoin="round"/>
<path d="M14.8457 12.8308L16.5273 13.364C16.2695 14.3015 15.8398 14.9988 15.2383 15.4558C14.6406 15.9089 13.8809 16.1355 12.959 16.1355C11.8184 16.1355 10.8809 15.7468 10.1465 14.9695C9.41211 14.1882 9.04492 13.1218 9.04492 11.7703C9.04492 10.3406 9.41406 9.2312 10.1523 8.44214C10.8906 7.64917 11.8613 7.25269 13.0645 7.25269C14.1152 7.25269 14.9688 7.56323 15.625 8.18433C16.0156 8.55151 16.3086 9.07886 16.5039 9.76636L14.7871 10.1765C14.6855 9.7312 14.4727 9.37964 14.1484 9.12183C13.8281 8.86401 13.4375 8.73511 12.9766 8.73511C12.3398 8.73511 11.8223 8.96362 11.4238 9.42065C11.0293 9.87769 10.832 10.6179 10.832 11.6414C10.832 12.7273 11.0273 13.5007 11.418 13.9617C11.8086 14.4226 12.3164 14.6531 12.9414 14.6531C13.4023 14.6531 13.7988 14.5066 14.1309 14.2136C14.4629 13.9207 14.7012 13.4597 14.8457 12.8308ZM18.0156 7.39917H21.1855C21.9004 7.39917 22.4453 7.45386 22.8203 7.56323C23.3242 7.71167 23.7559 7.97534 24.1152 8.35425C24.4746 8.73315 24.748 9.198 24.9355 9.74878C25.123 10.2957 25.2168 10.9714 25.2168 11.7761C25.2168 12.4832 25.1289 13.0925 24.9531 13.6042C24.7383 14.2292 24.4316 14.7351 24.0332 15.1218C23.7324 15.4148 23.3262 15.6433 22.8145 15.8074C22.4316 15.9285 21.9199 15.989 21.2793 15.989H18.0156V7.39917ZM19.75 8.85229V14.5417H21.0449C21.5293 14.5417 21.8789 14.5144 22.0938 14.4597C22.375 14.3894 22.6074 14.2703 22.791 14.1023C22.9785 13.9343 23.1309 13.6589 23.248 13.2761C23.3652 12.8894 23.4238 12.364 23.4238 11.7C23.4238 11.0359 23.3652 10.5261 23.248 10.1707C23.1309 9.81519 22.9668 9.53784 22.7559 9.33862C22.5449 9.1394 22.2773 9.00464 21.9531 8.93433C21.7109 8.87964 21.2363 8.85229 20.5293 8.85229H19.75ZM32.1895 12.8308L33.8711 13.364C33.6133 14.3015 33.1836 14.9988 32.582 15.4558C31.9844 15.9089 31.2246 16.1355 30.3027 16.1355C29.1621 16.1355 28.2246 15.7468 27.4902 14.9695C26.7559 14.1882 26.3887 13.1218 26.3887 11.7703C26.3887 10.3406 26.7578 9.2312 27.4961 8.44214C28.2344 7.64917 29.2051 7.25269 30.4082 7.25269C31.459 7.25269 32.3125 7.56323 32.9688 8.18433C33.3594 8.55151 33.6523 9.07886 33.8477 9.76636L32.1309 10.1765C32.0293 9.7312 31.8164 9.37964 31.4922 9.12183C31.1719 8.86401 30.7812 8.73511 30.3203 8.73511C29.6836 8.73511 29.166 8.96362 28.7676 9.42065C28.373 9.87769 28.1758 10.6179 28.1758 11.6414C28.1758 12.7273 28.3711 13.5007 28.7617 13.9617C29.1523 14.4226 29.6602 14.6531 30.2852 14.6531C30.7461 14.6531 31.1426 14.5066 31.4746 14.2136C31.8066 13.9207 32.0449 13.4597 32.1895 12.8308ZM40.5625 14.4597V15.989H34.791C34.8535 15.4109 35.041 14.864 35.3535 14.3484C35.666 13.8289 36.2832 13.1414 37.2051 12.2859C37.9473 11.5945 38.4023 11.1257 38.5703 10.8796C38.7969 10.5398 38.9102 10.2039 38.9102 9.87183C38.9102 9.50464 38.8105 9.22339 38.6113 9.02808C38.416 8.82886 38.1445 8.72925 37.7969 8.72925C37.4531 8.72925 37.1797 8.83276 36.9766 9.03979C36.7734 9.24683 36.6562 9.59058 36.625 10.071L34.9844 9.90698C35.082 9.00073 35.3887 8.35034 35.9043 7.95581C36.4199 7.56128 37.0645 7.36401 37.8379 7.36401C38.6855 7.36401 39.3516 7.59253 39.8359 8.04956C40.3203 8.50659 40.5625 9.07495 40.5625 9.75464C40.5625 10.1414 40.4922 10.5105 40.3516 10.8621C40.2148 11.2097 39.9961 11.575 39.6953 11.9578C39.4961 12.2117 39.1367 12.5769 38.6172 13.0535C38.0977 13.53 37.7676 13.8464 37.627 14.0027C37.4902 14.1589 37.3789 14.3113 37.293 14.4597H40.5625ZM41.7051 13.78L43.3457 13.6101C43.3926 13.9812 43.5312 14.2761 43.7617 14.4949C43.9922 14.7097 44.2578 14.8171 44.5586 14.8171C44.9023 14.8171 45.1934 14.6785 45.4316 14.4011C45.6699 14.1199 45.7891 13.698 45.7891 13.1355C45.7891 12.6082 45.6699 12.2136 45.4316 11.9519C45.1973 11.6863 44.8906 11.5535 44.5117 11.5535C44.0391 11.5535 43.6152 11.7625 43.2402 12.1804L41.9043 11.9871L42.748 7.51636H47.1016V9.05737H43.9961L43.7383 10.5164C44.1055 10.3328 44.4805 10.241 44.8633 10.241C45.5938 10.241 46.2129 10.5066 46.7207 11.0378C47.2285 11.5691 47.4824 12.2585 47.4824 13.1062C47.4824 13.8132 47.2773 14.4441 46.8672 14.9988C46.3086 15.7566 45.5332 16.1355 44.541 16.1355C43.748 16.1355 43.1016 15.9226 42.6016 15.4968C42.1016 15.071 41.8027 14.4988 41.7051 13.78ZM56.4707 15.989H54.584L53.834 14.0378H50.4004L49.6914 15.989H47.8516L51.1973 7.39917H53.0312L56.4707 15.989ZM53.2773 12.5906L52.0938 9.40308L50.9336 12.5906H53.2773Z" fill="white"/>
<defs>
<linearGradient id="paint0_linear_38_1846" x1="32.5" y1="1.98901" x2="32.5" y2="21.989" gradientUnits="userSpaceOnUse">
<stop stop-color="#007F9C"/>
<stop offset="1" stop-color="#FF98AD"/>
</linearGradient>
</defs>
</svg>
