<svg width="56" height="44" viewBox="0 0 56 44" fill="none" xmlns="http://www.w3.org/2000/svg">
<path d="M27.804 1.03491C35.1778 1.03491 41.8821 3.33717 46.7532 7.0769C51.6246 10.817 54.6838 16.0165 54.6838 21.7878C54.6838 27.5592 51.6245 32.758 46.7532 36.4978C41.8821 40.2372 35.1778 42.5388 27.804 42.5388C20.431 42.5388 13.7275 40.2371 8.85669 36.4978C3.98553 32.7582 0.926071 27.5598 0.926025 21.7878C0.926025 16.0158 3.9855 10.8169 8.85669 7.0769C13.7275 3.33728 20.431 1.03495 27.804 1.03491Z" fill="url(#paint0_radial_97_5849)" stroke="#994286"/>
<path d="M6.95422 23.6755V15.0857H8.6886V23.6755H6.95422ZM14.3429 20.5173V19.0701H18.0812V22.4919C17.7179 22.8435 17.1906 23.1541 16.4991 23.4236C15.8116 23.6892 15.1144 23.822 14.4073 23.822C13.5089 23.822 12.7257 23.6345 12.0577 23.2595C11.3898 22.8806 10.8878 22.3416 10.5519 21.6423C10.2159 20.9392 10.048 20.1755 10.048 19.3513C10.048 18.4568 10.2355 17.6619 10.6105 16.9666C10.9855 16.2712 11.5343 15.738 12.257 15.3669C12.8077 15.0818 13.4933 14.9392 14.3136 14.9392C15.38 14.9392 16.212 15.1638 16.8097 15.613C17.4113 16.0583 17.798 16.6755 17.9698 17.4646L16.2472 17.7869C16.1261 17.365 15.8976 17.033 15.5616 16.7908C15.2296 16.5447 14.8136 16.4216 14.3136 16.4216C13.5558 16.4216 12.9523 16.6619 12.5031 17.1423C12.0577 17.6228 11.8351 18.3357 11.8351 19.281C11.8351 20.3005 12.0616 21.0662 12.5148 21.5779C12.9679 22.0857 13.5616 22.3396 14.296 22.3396C14.6593 22.3396 15.0226 22.2693 15.3859 22.1287C15.7531 21.9841 16.0675 21.8103 16.3292 21.6072V20.5173H14.3429ZM19.6984 23.6755V15.0857H25.587V16.5388H21.4327V18.572H25.0187V20.0251H21.4327V23.6755H19.6984ZM27.0284 15.0857H30.462C31.1417 15.0857 31.6476 15.115 31.9796 15.1736C32.3156 15.2283 32.6144 15.3455 32.8761 15.5251C33.1417 15.7048 33.3624 15.9451 33.5382 16.2458C33.714 16.5427 33.8019 16.8767 33.8019 17.2478C33.8019 17.6501 33.6925 18.0193 33.4738 18.3552C33.2589 18.6912 32.9659 18.9431 32.5948 19.1111C33.1183 19.2634 33.5206 19.5232 33.8019 19.8904C34.0831 20.2576 34.2238 20.6892 34.2238 21.1853C34.2238 21.5759 34.132 21.9568 33.9484 22.3279C33.7687 22.6951 33.5206 22.99 33.2042 23.2126C32.8917 23.4314 32.505 23.5662 32.0441 23.6169C31.755 23.6482 31.0577 23.6677 29.9523 23.6755H27.0284V15.0857ZM28.7628 16.5154V18.5017H29.8995C30.5753 18.5017 30.9952 18.4919 31.1593 18.4724C31.4562 18.4373 31.6886 18.3357 31.8566 18.1677C32.0284 17.9958 32.1144 17.7712 32.1144 17.4939C32.1144 17.2283 32.0402 17.0134 31.8917 16.8494C31.7472 16.6814 31.5304 16.5798 31.2413 16.5447C31.0695 16.5251 30.5753 16.5154 29.7589 16.5154H28.7628ZM28.7628 19.9314V22.2283H30.3683C30.9933 22.2283 31.3898 22.2107 31.5577 22.1755C31.8156 22.1287 32.0245 22.0154 32.1847 21.8357C32.3488 21.6521 32.4308 21.408 32.4308 21.1033C32.4308 20.8455 32.3683 20.6267 32.2433 20.447C32.1183 20.2673 31.9366 20.1365 31.6984 20.0544C31.464 19.9724 30.9523 19.9314 30.1632 19.9314H28.7628ZM35.6945 23.6755V15.0857H38.4777C39.5323 15.0857 40.2198 15.1287 40.5402 15.2146C41.0323 15.3435 41.4445 15.6248 41.7765 16.0583C42.1085 16.488 42.2745 17.0447 42.2745 17.7283C42.2745 18.2556 42.1788 18.699 41.9874 19.0583C41.796 19.4177 41.5519 19.7009 41.255 19.908C40.962 20.1111 40.6632 20.2458 40.3585 20.3123C39.9445 20.3943 39.3448 20.4353 38.5597 20.4353H37.4288V23.6755H35.6945ZM37.4288 16.5388V18.9763H38.3781C39.0616 18.9763 39.5187 18.9314 39.7491 18.8416C39.9796 18.7517 40.1593 18.6111 40.2882 18.4197C40.421 18.2283 40.4874 18.0056 40.4874 17.7517C40.4874 17.4392 40.3956 17.1814 40.212 16.9783C40.0284 16.7751 39.796 16.6482 39.5148 16.5974C39.3077 16.5583 38.8917 16.5388 38.2667 16.5388H37.4288ZM43.3351 16.7322V15.2029H48.9659V16.3982C48.5011 16.8552 48.0284 17.5115 47.548 18.3669C47.0675 19.2224 46.7003 20.1326 46.4464 21.0974C46.1964 22.0583 46.0734 22.9177 46.0773 23.6755H44.4894C44.5167 22.488 44.7609 21.2771 45.2218 20.0427C45.6866 18.8083 46.3058 17.7048 47.0792 16.7322H43.3351Z" fill="white"/>
<defs>
<radialGradient id="paint0_radial_97_5849" cx="0" cy="0" r="1" gradientUnits="userSpaceOnUse" gradientTransform="translate(21.9766 13.5482) scale(25.2635 19.3962)">
<stop stop-color="#FFB9F8"/>
<stop offset="1" stop-color="#C745A7"/>
</radialGradient>
</defs>
</svg>
