<svg width="44" height="44" viewBox="0 0 44 44" fill="none" xmlns="http://www.w3.org/2000/svg">
<path d="M21.9729 1.48901C33.4166 1.48926 42.7249 10.7996 42.7249 22.2419C42.7248 33.6844 33.4157 42.9929 21.9719 42.9929C10.5297 42.9927 1.22102 33.6856 1.22095 22.2419C1.22095 10.7981 10.5304 1.48901 21.9729 1.48901Z" fill="url(#paint0_radial_89_4118)" stroke="#99427F"/>
<path d="M10.5413 25.989V17.3992H12.2756V25.989H10.5413ZM13.9807 25.989V17.4695H15.7151V24.5417H20.0276V25.989H13.9807ZM25.1194 25.989H23.4729V19.7839C22.8713 20.3464 22.1624 20.7625 21.3459 21.032V19.5378C21.7756 19.3972 22.2424 19.1316 22.7463 18.741C23.2502 18.3464 23.5959 17.8875 23.7834 17.364H25.1194V25.989ZM28.9983 21.3542C28.5725 21.1746 28.262 20.9285 28.0667 20.616C27.8752 20.2996 27.7795 19.9539 27.7795 19.5789C27.7795 18.9382 28.0022 18.4089 28.4475 17.991C28.8967 17.573 29.5334 17.364 30.3577 17.364C31.1741 17.364 31.8069 17.573 32.2561 17.991C32.7092 18.4089 32.9358 18.9382 32.9358 19.5789C32.9358 19.9773 32.8323 20.3328 32.6252 20.6453C32.4182 20.9539 32.1272 21.1902 31.7522 21.3542C32.2288 21.5457 32.5901 21.825 32.8362 22.1921C33.0862 22.5593 33.2112 22.9832 33.2112 23.4636C33.2112 24.2566 32.9573 24.9011 32.4495 25.3972C31.9456 25.8933 31.2737 26.1414 30.4338 26.1414C29.6526 26.1414 29.0022 25.9363 28.4827 25.5261C27.8694 25.0417 27.5627 24.3777 27.5627 23.5339C27.5627 23.0691 27.678 22.6433 27.9084 22.2566C28.1389 21.866 28.5022 21.5652 28.9983 21.3542ZM29.3381 19.696C29.3381 20.0242 29.4299 20.28 29.6135 20.4636C29.801 20.6472 30.0491 20.739 30.3577 20.739C30.6702 20.739 30.9202 20.6472 31.1077 20.4636C31.2952 20.2761 31.3889 20.0183 31.3889 19.6902C31.3889 19.3816 31.2952 19.1355 31.1077 18.9519C30.9241 18.7644 30.6799 18.6707 30.3752 18.6707C30.0588 18.6707 29.8069 18.7644 29.6194 18.9519C29.4319 19.1394 29.3381 19.3875 29.3381 19.696ZM29.1858 23.3757C29.1858 23.8289 29.301 24.1824 29.5315 24.4363C29.7659 24.6902 30.0569 24.8171 30.4045 24.8171C30.7444 24.8171 31.0256 24.696 31.2483 24.4539C31.4709 24.2078 31.5823 23.8542 31.5823 23.3933C31.5823 22.991 31.469 22.6687 31.2424 22.4265C31.0159 22.1804 30.7288 22.0574 30.3811 22.0574C29.9788 22.0574 29.678 22.196 29.4788 22.4734C29.2834 22.7507 29.1858 23.0515 29.1858 23.3757Z" fill="white"/>
<defs>
<radialGradient id="paint0_radial_89_4118" cx="0" cy="0" r="1" gradientUnits="userSpaceOnUse" gradientTransform="translate(17.5002 14.0023) scale(19.3962)">
<stop stop-color="#FFE6B9"/>
<stop offset="1" stop-color="#C79030"/>
</radialGradient>
</defs>
</svg>
