<svg width="38" height="24" viewBox="0 0 38 24" fill="none" xmlns="http://www.w3.org/2000/svg">
<rect x="2" y="1.98901" width="35" height="20" rx="10" fill="url(#paint0_linear_64_1915)"/>
<rect x="2" y="1.98901" width="35" height="20" rx="10" stroke="#53411F" stroke-width="3" stroke-linejoin="round"/>
<path d="M9.9668 9.76636H11.502V10.6804C11.7012 10.3679 11.9707 10.114 12.3105 9.9187C12.6504 9.72339 13.0273 9.62573 13.4414 9.62573C14.1641 9.62573 14.7773 9.90894 15.2812 10.4753C15.7852 11.0417 16.0371 11.8308 16.0371 12.8425C16.0371 13.8816 15.7832 14.6902 15.2754 15.2683C14.7676 15.8425 14.1523 16.1296 13.4297 16.1296C13.0859 16.1296 12.7734 16.0613 12.4922 15.9246C12.2148 15.7878 11.9219 15.5535 11.6133 15.2214V18.3562H9.9668V9.76636ZM11.5957 12.7722C11.5957 13.4714 11.7344 13.989 12.0117 14.325C12.2891 14.657 12.627 14.823 13.0254 14.823C13.4082 14.823 13.7266 14.6707 13.9805 14.366C14.2344 14.0574 14.3613 13.5535 14.3613 12.8542C14.3613 12.2019 14.2305 11.7175 13.9688 11.4011C13.707 11.0847 13.3828 10.9265 12.9961 10.9265C12.5938 10.9265 12.2598 11.0828 11.9941 11.3953C11.7285 11.7039 11.5957 12.1628 11.5957 12.7722ZM22.5586 14.4597V15.989H16.7871C16.8496 15.4109 17.0371 14.864 17.3496 14.3484C17.6621 13.8289 18.2793 13.1414 19.2012 12.2859C19.9434 11.5945 20.3984 11.1257 20.5664 10.8796C20.793 10.5398 20.9062 10.2039 20.9062 9.87183C20.9062 9.50464 20.8066 9.22339 20.6074 9.02808C20.4121 8.82886 20.1406 8.72925 19.793 8.72925C19.4492 8.72925 19.1758 8.83276 18.9727 9.03979C18.7695 9.24683 18.6523 9.59058 18.6211 10.071L16.9805 9.90698C17.0781 9.00073 17.3848 8.35034 17.9004 7.95581C18.416 7.56128 19.0605 7.36401 19.834 7.36401C20.6816 7.36401 21.3477 7.59253 21.832 8.04956C22.3164 8.50659 22.5586 9.07495 22.5586 9.75464C22.5586 10.1414 22.4883 10.5105 22.3477 10.8621C22.2109 11.2097 21.9922 11.575 21.6914 11.9578C21.4922 12.2117 21.1328 12.5769 20.6133 13.0535C20.0938 13.53 19.7637 13.8464 19.623 14.0027C19.4863 14.1589 19.375 14.3113 19.2891 14.4597H22.5586ZM23.6191 13.7097L25.2129 13.5164C25.2637 13.9226 25.4004 14.2332 25.623 14.448C25.8457 14.6628 26.1152 14.7703 26.4316 14.7703C26.7715 14.7703 27.0566 14.6414 27.2871 14.3835C27.5215 14.1257 27.6387 13.7781 27.6387 13.3406C27.6387 12.9265 27.5273 12.5984 27.3047 12.3562C27.082 12.114 26.8105 11.9929 26.4902 11.9929C26.2793 11.9929 26.0273 12.0339 25.7344 12.116L25.916 10.7742C26.3613 10.7859 26.7012 10.6902 26.9355 10.4871C27.1699 10.28 27.2871 10.0066 27.2871 9.66675C27.2871 9.37769 27.2012 9.14722 27.0293 8.97534C26.8574 8.80347 26.6289 8.71753 26.3438 8.71753C26.0625 8.71753 25.8223 8.81519 25.623 9.0105C25.4238 9.20581 25.3027 9.49097 25.2598 9.86597L23.7422 9.60815C23.8477 9.08862 24.0059 8.67456 24.2168 8.36597C24.4316 8.05347 24.7285 7.80933 25.1074 7.63354C25.4902 7.45386 25.918 7.36401 26.3906 7.36401C27.1992 7.36401 27.8477 7.62183 28.3359 8.13745C28.7383 8.55933 28.9395 9.03589 28.9395 9.56714C28.9395 10.321 28.5273 10.9226 27.7031 11.3718C28.1953 11.4773 28.5879 11.7136 28.8809 12.0808C29.1777 12.448 29.3262 12.8914 29.3262 13.4109C29.3262 14.1648 29.0508 14.8074 28.5 15.3386C27.9492 15.8699 27.2637 16.1355 26.4434 16.1355C25.666 16.1355 25.0215 15.9128 24.5098 15.4675C23.998 15.0183 23.7012 14.4324 23.6191 13.7097Z" fill="white"/>
<defs>
<linearGradient id="paint0_linear_64_1915" x1="19.5" y1="1.98901" x2="19.5" y2="21.989" gradientUnits="userSpaceOnUse">
<stop stop-color="#53411F"/>
<stop offset="1" stop-color="#D00050"/>
</linearGradient>
</defs>
</svg>
