<svg width="64" height="24" viewBox="0 0 64 24" fill="none" xmlns="http://www.w3.org/2000/svg">
<rect x="2" y="1.98901" width="61" height="20" rx="10" fill="url(#paint0_linear_64_1907)"/>
<rect x="2" y="1.98901" width="61" height="20" rx="10" stroke="#ED6955" stroke-width="3" stroke-linejoin="round"/>
<path d="M10.1348 15.989V7.39917H12.918C13.9727 7.39917 14.6602 7.44214 14.9805 7.52808C15.4727 7.65698 15.8848 7.93823 16.2168 8.37183C16.5488 8.80151 16.7148 9.35815 16.7148 10.0417C16.7148 10.5691 16.6191 11.0125 16.4277 11.3718C16.2363 11.7312 15.9922 12.0144 15.6953 12.2214C15.4023 12.4246 15.1035 12.5593 14.7988 12.6257C14.3848 12.7078 13.7852 12.7488 13 12.7488H11.8691V15.989H10.1348ZM11.8691 8.85229V11.2898H12.8184C13.502 11.2898 13.959 11.2449 14.1895 11.155C14.4199 11.0652 14.5996 10.9246 14.7285 10.7332C14.8613 10.5417 14.9277 10.3191 14.9277 10.0652C14.9277 9.75269 14.8359 9.49487 14.6523 9.29175C14.4688 9.08862 14.2363 8.96167 13.9551 8.91089C13.748 8.87183 13.332 8.85229 12.707 8.85229H11.8691ZM24.9941 15.989H23.1074L22.3574 14.0378H18.9238L18.2148 15.989H16.375L19.7207 7.39917H21.5547L24.9941 15.989ZM21.8008 12.5906L20.6172 9.40308L19.457 12.5906H21.8008ZM25.9199 15.989V7.39917H28.7031C29.7578 7.39917 30.4453 7.44214 30.7656 7.52808C31.2578 7.65698 31.6699 7.93823 32.002 8.37183C32.334 8.80151 32.5 9.35815 32.5 10.0417C32.5 10.5691 32.4043 11.0125 32.2129 11.3718C32.0215 11.7312 31.7773 12.0144 31.4805 12.2214C31.1875 12.4246 30.8887 12.5593 30.584 12.6257C30.1699 12.7078 29.5703 12.7488 28.7852 12.7488H27.6543V15.989H25.9199ZM27.6543 8.85229V11.2898H28.6035C29.2871 11.2898 29.7441 11.2449 29.9746 11.155C30.2051 11.0652 30.3848 10.9246 30.5137 10.7332C30.6465 10.5417 30.7129 10.3191 30.7129 10.0652C30.7129 9.75269 30.6211 9.49487 30.4375 9.29175C30.2539 9.08862 30.0215 8.96167 29.7402 8.91089C29.5332 8.87183 29.1172 8.85229 28.4922 8.85229H27.6543ZM33.4844 13.1941L35.1719 13.03C35.2734 13.5964 35.4785 14.0125 35.7871 14.2781C36.0996 14.5437 36.5195 14.6765 37.0469 14.6765C37.6055 14.6765 38.0254 14.5593 38.3066 14.325C38.5918 14.0867 38.7344 13.8093 38.7344 13.4929C38.7344 13.2898 38.6738 13.1179 38.5527 12.9773C38.4355 12.8328 38.2285 12.7078 37.9316 12.6023C37.7285 12.532 37.2656 12.407 36.543 12.2273C35.6133 11.9968 34.9609 11.7136 34.5859 11.3777C34.0586 10.905 33.7949 10.3289 33.7949 9.64917C33.7949 9.21167 33.918 8.80347 34.1641 8.42456C34.4141 8.04175 34.7715 7.75073 35.2363 7.55151C35.7051 7.35229 36.2695 7.25269 36.9297 7.25269C38.0078 7.25269 38.8184 7.48901 39.3613 7.96167C39.9082 8.43433 40.1953 9.06519 40.2227 9.85425L38.4883 9.93042C38.4141 9.48901 38.2539 9.17261 38.0078 8.9812C37.7656 8.78589 37.4004 8.68823 36.9121 8.68823C36.4082 8.68823 36.0137 8.79175 35.7285 8.99878C35.5449 9.13159 35.4531 9.30933 35.4531 9.53198C35.4531 9.73511 35.5391 9.90894 35.7109 10.0535C35.9297 10.2371 36.4609 10.4285 37.3047 10.6277C38.1484 10.8269 38.7715 11.0339 39.1738 11.2488C39.5801 11.4597 39.8965 11.7507 40.123 12.1218C40.3535 12.489 40.4688 12.9441 40.4688 13.4871C40.4688 13.9792 40.332 14.4402 40.0586 14.8699C39.7852 15.2996 39.3984 15.6199 38.8984 15.8308C38.3984 16.0378 37.7754 16.1414 37.0293 16.1414C35.9434 16.1414 35.1094 15.8914 34.5273 15.3914C33.9453 14.8875 33.5977 14.155 33.4844 13.1941ZM41.4883 13.1941L43.1758 13.03C43.2773 13.5964 43.4824 14.0125 43.791 14.2781C44.1035 14.5437 44.5234 14.6765 45.0508 14.6765C45.6094 14.6765 46.0293 14.5593 46.3105 14.325C46.5957 14.0867 46.7383 13.8093 46.7383 13.4929C46.7383 13.2898 46.6777 13.1179 46.5566 12.9773C46.4395 12.8328 46.2324 12.7078 45.9355 12.6023C45.7324 12.532 45.2695 12.407 44.5469 12.2273C43.6172 11.9968 42.9648 11.7136 42.5898 11.3777C42.0625 10.905 41.7988 10.3289 41.7988 9.64917C41.7988 9.21167 41.9219 8.80347 42.168 8.42456C42.418 8.04175 42.7754 7.75073 43.2402 7.55151C43.709 7.35229 44.2734 7.25269 44.9336 7.25269C46.0117 7.25269 46.8223 7.48901 47.3652 7.96167C47.9121 8.43433 48.1992 9.06519 48.2266 9.85425L46.4922 9.93042C46.418 9.48901 46.2578 9.17261 46.0117 8.9812C45.7695 8.78589 45.4043 8.68823 44.916 8.68823C44.4121 8.68823 44.0176 8.79175 43.7324 8.99878C43.5488 9.13159 43.457 9.30933 43.457 9.53198C43.457 9.73511 43.543 9.90894 43.7148 10.0535C43.9336 10.2371 44.4648 10.4285 45.3086 10.6277C46.1523 10.8269 46.7754 11.0339 47.1777 11.2488C47.584 11.4597 47.9004 11.7507 48.127 12.1218C48.3574 12.489 48.4727 12.9441 48.4727 13.4871C48.4727 13.9792 48.3359 14.4402 48.0625 14.8699C47.7891 15.2996 47.4023 15.6199 46.9023 15.8308C46.4023 16.0378 45.7793 16.1414 45.0332 16.1414C43.9473 16.1414 43.1133 15.8914 42.5312 15.3914C41.9492 14.8875 41.6016 14.155 41.4883 13.1941ZM55.1289 14.4597V15.989H49.3574C49.4199 15.4109 49.6074 14.864 49.9199 14.3484C50.2324 13.8289 50.8496 13.1414 51.7715 12.2859C52.5137 11.5945 52.9688 11.1257 53.1367 10.8796C53.3633 10.5398 53.4766 10.2039 53.4766 9.87183C53.4766 9.50464 53.377 9.22339 53.1777 9.02808C52.9824 8.82886 52.7109 8.72925 52.3633 8.72925C52.0195 8.72925 51.7461 8.83276 51.543 9.03979C51.3398 9.24683 51.2227 9.59058 51.1914 10.071L49.5508 9.90698C49.6484 9.00073 49.9551 8.35034 50.4707 7.95581C50.9863 7.56128 51.6309 7.36401 52.4043 7.36401C53.252 7.36401 53.918 7.59253 54.4023 8.04956C54.8867 8.50659 55.1289 9.07495 55.1289 9.75464C55.1289 10.1414 55.0586 10.5105 54.918 10.8621C54.7812 11.2097 54.5625 11.575 54.2617 11.9578C54.0625 12.2117 53.7031 12.5769 53.1836 13.0535C52.6641 13.53 52.334 13.8464 52.1934 14.0027C52.0566 14.1589 51.9453 14.3113 51.8594 14.4597H55.1289Z" fill="white"/>
<defs>
<linearGradient id="paint0_linear_64_1907" x1="32.5" y1="1.98901" x2="32.5" y2="21.989" gradientUnits="userSpaceOnUse">
<stop stop-color="#B31E64"/>
<stop offset="1" stop-color="#ED6955"/>
</linearGradient>
</defs>
</svg>
