<svg width="43" height="24" viewBox="0 0 43 24" fill="none" xmlns="http://www.w3.org/2000/svg">
<rect x="2" y="1.98901" width="40" height="20" rx="10" fill="url(#paint0_linear_38_1872)"/>
<rect x="2" y="1.98901" width="40" height="20" rx="10" stroke="#FF00DD" stroke-width="3" stroke-linejoin="round"/>
<path d="M15.6953 12.8308L17.377 13.364C17.1191 14.3015 16.6895 14.9988 16.0879 15.4558C15.4902 15.9089 14.7305 16.1355 13.8086 16.1355C12.668 16.1355 11.7305 15.7468 10.9961 14.9695C10.2617 14.1882 9.89453 13.1218 9.89453 11.7703C9.89453 10.3406 10.2637 9.2312 11.002 8.44214C11.7402 7.64917 12.7109 7.25269 13.9141 7.25269C14.9648 7.25269 15.8184 7.56323 16.4746 8.18433C16.8652 8.55151 17.1582 9.07886 17.3535 9.76636L15.6367 10.1765C15.5352 9.7312 15.3223 9.37964 14.998 9.12183C14.6777 8.86401 14.2871 8.73511 13.8262 8.73511C13.1895 8.73511 12.6719 8.96362 12.2734 9.42065C11.8789 9.87769 11.6816 10.6179 11.6816 11.6414C11.6816 12.7273 11.877 13.5007 12.2676 13.9617C12.6582 14.4226 13.166 14.6531 13.791 14.6531C14.252 14.6531 14.6484 14.5066 14.9805 14.2136C15.3125 13.9207 15.5508 13.4597 15.6953 12.8308ZM26.6172 15.989H24.7305L23.9805 14.0378H20.5469L19.8379 15.989H17.998L21.3438 7.39917H23.1777L26.6172 15.989ZM23.4238 12.5906L22.2402 9.40308L21.0801 12.5906H23.4238ZM27.543 15.989V7.39917H30.3262C31.3809 7.39917 32.0684 7.44214 32.3887 7.52808C32.8809 7.65698 33.293 7.93823 33.625 8.37183C33.957 8.80151 34.123 9.35815 34.123 10.0417C34.123 10.5691 34.0273 11.0125 33.8359 11.3718C33.6445 11.7312 33.4004 12.0144 33.1035 12.2214C32.8105 12.4246 32.5117 12.5593 32.207 12.6257C31.793 12.7078 31.1934 12.7488 30.4082 12.7488H29.2773V15.989H27.543ZM29.2773 8.85229V11.2898H30.2266C30.9102 11.2898 31.3672 11.2449 31.5977 11.155C31.8281 11.0652 32.0078 10.9246 32.1367 10.7332C32.2695 10.5417 32.3359 10.3191 32.3359 10.0652C32.3359 9.75269 32.2441 9.49487 32.0605 9.29175C31.877 9.08862 31.6445 8.96167 31.3633 8.91089C31.1562 8.87183 30.7402 8.85229 30.1152 8.85229H29.2773Z" fill="white"/>
<defs>
<linearGradient id="paint0_linear_38_1872" x1="22" y1="1.98901" x2="22" y2="21.989" gradientUnits="userSpaceOnUse">
<stop stop-color="#FF00DD"/>
<stop offset="1" stop-color="#00B36E"/>
</linearGradient>
</defs>
</svg>
