<svg width="50" height="24" viewBox="0 0 50 24" fill="none" xmlns="http://www.w3.org/2000/svg">
<rect x="2" y="1.98901" width="47" height="20" rx="10" fill="url(#paint0_linear_84_2045)"/>
<rect x="2" y="1.98901" width="47" height="20" rx="10" stroke="#FFA0CC" stroke-width="3" stroke-linejoin="round"/>
<path d="M10.0137 7.39917H11.748V12.0515C11.748 12.7898 11.7695 13.2683 11.8125 13.4871C11.8867 13.8386 12.0625 14.1218 12.3398 14.3367C12.6211 14.5476 13.0039 14.6531 13.4883 14.6531C13.9805 14.6531 14.3516 14.5535 14.6016 14.3542C14.8516 14.1511 15.002 13.9031 15.0527 13.6101C15.1035 13.3171 15.1289 12.8308 15.1289 12.1511V7.39917H16.8633V11.9109C16.8633 12.9421 16.8164 13.6707 16.7227 14.0964C16.6289 14.5222 16.4551 14.8816 16.2012 15.1746C15.9512 15.4675 15.6152 15.7019 15.1934 15.8777C14.7715 16.0496 14.2207 16.1355 13.541 16.1355C12.7207 16.1355 12.0977 16.0417 11.6719 15.8542C11.25 15.6628 10.916 15.4167 10.6699 15.116C10.4238 14.8113 10.2617 14.4929 10.1836 14.1609C10.0703 13.6687 10.0137 12.9421 10.0137 11.9812V7.39917ZM18.7031 7.39917H22.1367C22.8164 7.39917 23.3223 7.42847 23.6543 7.48706C23.9902 7.54175 24.2891 7.65894 24.5508 7.83862C24.8164 8.01831 25.0371 8.25854 25.2129 8.55933C25.3887 8.8562 25.4766 9.19019 25.4766 9.56128C25.4766 9.96362 25.3672 10.3328 25.1484 10.6687C24.9336 11.0046 24.6406 11.2566 24.2695 11.4246C24.793 11.5769 25.1953 11.8367 25.4766 12.2039C25.7578 12.571 25.8984 13.0027 25.8984 13.4988C25.8984 13.8894 25.8066 14.2703 25.623 14.6414C25.4434 15.0085 25.1953 15.3035 24.8789 15.5261C24.5664 15.7449 24.1797 15.8796 23.7188 15.9304C23.4297 15.9617 22.7324 15.9812 21.627 15.989H18.7031V7.39917ZM20.4375 8.82886V10.8152H21.5742C22.25 10.8152 22.6699 10.8054 22.834 10.7859C23.1309 10.7507 23.3633 10.6492 23.5312 10.4812C23.7031 10.3093 23.7891 10.0847 23.7891 9.80737C23.7891 9.54175 23.7148 9.3269 23.5664 9.16284C23.4219 8.99487 23.2051 8.89331 22.916 8.85815C22.7441 8.83862 22.25 8.82886 21.4336 8.82886H20.4375ZM20.4375 12.2449V14.5417H22.043C22.668 14.5417 23.0645 14.5242 23.2324 14.489C23.4902 14.4421 23.6992 14.3289 23.8594 14.1492C24.0234 13.9656 24.1055 13.7214 24.1055 13.4167C24.1055 13.1589 24.043 12.9402 23.918 12.7605C23.793 12.5808 23.6113 12.45 23.373 12.3679C23.1387 12.2859 22.627 12.2449 21.8379 12.2449H20.4375ZM35.1152 15.989H33.2285L32.4785 14.0378H29.0449L28.3359 15.989H26.4961L29.8418 7.39917H31.6758L35.1152 15.989ZM31.9219 12.5906L30.7383 9.40308L29.5781 12.5906H31.9219ZM35.6191 13.7097L37.2129 13.5164C37.2637 13.9226 37.4004 14.2332 37.623 14.448C37.8457 14.6628 38.1152 14.7703 38.4316 14.7703C38.7715 14.7703 39.0566 14.6414 39.2871 14.3835C39.5215 14.1257 39.6387 13.7781 39.6387 13.3406C39.6387 12.9265 39.5273 12.5984 39.3047 12.3562C39.082 12.114 38.8105 11.9929 38.4902 11.9929C38.2793 11.9929 38.0273 12.0339 37.7344 12.116L37.916 10.7742C38.3613 10.7859 38.7012 10.6902 38.9355 10.4871C39.1699 10.28 39.2871 10.0066 39.2871 9.66675C39.2871 9.37769 39.2012 9.14722 39.0293 8.97534C38.8574 8.80347 38.6289 8.71753 38.3438 8.71753C38.0625 8.71753 37.8223 8.81519 37.623 9.0105C37.4238 9.20581 37.3027 9.49097 37.2598 9.86597L35.7422 9.60815C35.8477 9.08862 36.0059 8.67456 36.2168 8.36597C36.4316 8.05347 36.7285 7.80933 37.1074 7.63354C37.4902 7.45386 37.918 7.36401 38.3906 7.36401C39.1992 7.36401 39.8477 7.62183 40.3359 8.13745C40.7383 8.55933 40.9395 9.03589 40.9395 9.56714C40.9395 10.321 40.5273 10.9226 39.7031 11.3718C40.1953 11.4773 40.5879 11.7136 40.8809 12.0808C41.1777 12.448 41.3262 12.8914 41.3262 13.4109C41.3262 14.1648 41.0508 14.8074 40.5 15.3386C39.9492 15.8699 39.2637 16.1355 38.4434 16.1355C37.666 16.1355 37.0215 15.9128 36.5098 15.4675C35.998 15.0183 35.7012 14.4324 35.6191 13.7097Z" fill="white"/>
<defs>
<linearGradient id="paint0_linear_84_2045" x1="25.5" y1="1.98901" x2="25.5" y2="21.989" gradientUnits="userSpaceOnUse">
<stop stop-color="#FFA0CC"/>
<stop offset="1" stop-color="#0000CD"/>
</linearGradient>
</defs>
</svg>
