<svg width="58" height="24" viewBox="0 0 58 24" fill="none" xmlns="http://www.w3.org/2000/svg">
<rect x="2" y="1.98901" width="55" height="20" rx="10" fill="url(#paint0_linear_64_1885)"/>
<rect x="2" y="1.98901" width="55" height="20" rx="10" stroke="#003A81" stroke-width="3" stroke-linejoin="round"/>
<path d="M10.041 15.989V7.39917H11.7285L15.2441 13.1355V7.39917H16.8555V15.989H15.1152L11.6523 10.3875V15.989H10.041ZM18.2559 13.1941L19.9434 13.03C20.0449 13.5964 20.25 14.0125 20.5586 14.2781C20.8711 14.5437 21.291 14.6765 21.8184 14.6765C22.377 14.6765 22.7969 14.5593 23.0781 14.325C23.3633 14.0867 23.5059 13.8093 23.5059 13.4929C23.5059 13.2898 23.4453 13.1179 23.3242 12.9773C23.207 12.8328 23 12.7078 22.7031 12.6023C22.5 12.532 22.0371 12.407 21.3145 12.2273C20.3848 11.9968 19.7324 11.7136 19.3574 11.3777C18.8301 10.905 18.5664 10.3289 18.5664 9.64917C18.5664 9.21167 18.6895 8.80347 18.9355 8.42456C19.1855 8.04175 19.543 7.75073 20.0078 7.55151C20.4766 7.35229 21.041 7.25269 21.7012 7.25269C22.7793 7.25269 23.5898 7.48901 24.1328 7.96167C24.6797 8.43433 24.9668 9.06519 24.9941 9.85425L23.2598 9.93042C23.1855 9.48901 23.0254 9.17261 22.7793 8.9812C22.5371 8.78589 22.1719 8.68823 21.6836 8.68823C21.1797 8.68823 20.7852 8.79175 20.5 8.99878C20.3164 9.13159 20.2246 9.30933 20.2246 9.53198C20.2246 9.73511 20.3105 9.90894 20.4824 10.0535C20.7012 10.2371 21.2324 10.4285 22.0762 10.6277C22.9199 10.8269 23.543 11.0339 23.9453 11.2488C24.3516 11.4597 24.668 11.7507 24.8945 12.1218C25.125 12.489 25.2402 12.9441 25.2402 13.4871C25.2402 13.9792 25.1035 14.4402 24.8301 14.8699C24.5566 15.2996 24.1699 15.6199 23.6699 15.8308C23.1699 16.0378 22.5469 16.1414 21.8008 16.1414C20.7148 16.1414 19.8809 15.8914 19.2988 15.3914C18.7168 14.8875 18.3691 14.155 18.2559 13.1941ZM26.6875 7.39917H28.4219V12.0515C28.4219 12.7898 28.4434 13.2683 28.4863 13.4871C28.5605 13.8386 28.7363 14.1218 29.0137 14.3367C29.2949 14.5476 29.6777 14.6531 30.1621 14.6531C30.6543 14.6531 31.0254 14.5535 31.2754 14.3542C31.5254 14.1511 31.6758 13.9031 31.7266 13.6101C31.7773 13.3171 31.8027 12.8308 31.8027 12.1511V7.39917H33.5371V11.9109C33.5371 12.9421 33.4902 13.6707 33.3965 14.0964C33.3027 14.5222 33.1289 14.8816 32.875 15.1746C32.625 15.4675 32.2891 15.7019 31.8672 15.8777C31.4453 16.0496 30.8945 16.1355 30.2148 16.1355C29.3945 16.1355 28.7715 16.0417 28.3457 15.8542C27.9238 15.6628 27.5898 15.4167 27.3438 15.116C27.0977 14.8113 26.9355 14.4929 26.8574 14.1609C26.7441 13.6687 26.6875 12.9421 26.6875 11.9812V7.39917ZM35.3887 15.989V7.39917H37.0762L40.5918 13.1355V7.39917H42.2031V15.989H40.4629L37 10.3875V15.989H35.3887ZM49.2578 9.50269L47.6641 9.67847C47.625 9.35034 47.5234 9.10815 47.3594 8.9519C47.1953 8.79565 46.9824 8.71753 46.7207 8.71753C46.373 8.71753 46.0781 8.87378 45.8359 9.18628C45.5977 9.49878 45.4473 10.1492 45.3848 11.1375C45.7949 10.6531 46.3047 10.4109 46.9141 10.4109C47.6016 10.4109 48.1895 10.6726 48.6777 11.196C49.1699 11.7195 49.416 12.3953 49.416 13.2234C49.416 14.1023 49.1582 14.8074 48.6426 15.3386C48.127 15.8699 47.4648 16.1355 46.6562 16.1355C45.7891 16.1355 45.0762 15.7996 44.5176 15.1277C43.959 14.4519 43.6797 13.3464 43.6797 11.8113C43.6797 10.2371 43.9707 9.10229 44.5527 8.40698C45.1348 7.71167 45.8906 7.36401 46.8203 7.36401C47.4727 7.36401 48.0117 7.54761 48.4375 7.91479C48.8672 8.27808 49.1406 8.80737 49.2578 9.50269ZM45.5254 13.0945C45.5254 13.6296 45.6484 14.0437 45.8945 14.3367C46.1406 14.6257 46.4219 14.7703 46.7383 14.7703C47.043 14.7703 47.2969 14.6511 47.5 14.4128C47.7031 14.1746 47.8047 13.7839 47.8047 13.241C47.8047 12.6824 47.6953 12.2742 47.4766 12.0164C47.2578 11.7546 46.9844 11.6238 46.6562 11.6238C46.3398 11.6238 46.0723 11.7488 45.8535 11.9988C45.6348 12.2449 45.5254 12.6101 45.5254 13.0945Z" fill="white"/>
<defs>
<linearGradient id="paint0_linear_64_1885" x1="29.5" y1="1.98901" x2="29.5" y2="21.989" gradientUnits="userSpaceOnUse">
<stop stop-color="#003A81"/>
<stop offset="1" stop-color="#EEA094"/>
</linearGradient>
</defs>
</svg>
