<svg width="69" height="24" viewBox="0 0 69 24" fill="none" xmlns="http://www.w3.org/2000/svg">
<rect x="1" y="1.98901" width="67" height="20" rx="10" fill="url(#paint0_linear_66_2005)"/>
<rect x="1" y="1.98901" width="67" height="20" rx="10" stroke="#380F9C" stroke-width="3" stroke-linejoin="round"/>
<path d="M8.95898 9.76636H10.4941V10.6804C10.6934 10.3679 10.9629 10.114 11.3027 9.9187C11.6426 9.72339 12.0195 9.62573 12.4336 9.62573C13.1562 9.62573 13.7695 9.90894 14.2734 10.4753C14.7773 11.0417 15.0293 11.8308 15.0293 12.8425C15.0293 13.8816 14.7754 14.6902 14.2676 15.2683C13.7598 15.8425 13.1445 16.1296 12.4219 16.1296C12.0781 16.1296 11.7656 16.0613 11.4844 15.9246C11.207 15.7878 10.9141 15.5535 10.6055 15.2214V18.3562H8.95898V9.76636ZM10.5879 12.7722C10.5879 13.4714 10.7266 13.989 11.0039 14.325C11.2812 14.657 11.6191 14.823 12.0176 14.823C12.4004 14.823 12.7188 14.6707 12.9727 14.366C13.2266 14.0574 13.3535 13.5535 13.3535 12.8542C13.3535 12.2019 13.2227 11.7175 12.9609 11.4011C12.6992 11.0847 12.375 10.9265 11.9883 10.9265C11.5859 10.9265 11.252 11.0828 10.9863 11.3953C10.7207 11.7039 10.5879 12.1628 10.5879 12.7722ZM17.918 15.989H16.2715V9.76636H17.8008V10.6511C18.0625 10.2332 18.2969 9.95776 18.5039 9.82495C18.7148 9.69214 18.9531 9.62573 19.2188 9.62573C19.5938 9.62573 19.9551 9.72925 20.3027 9.93628L19.793 11.3718C19.5156 11.1921 19.2578 11.1023 19.0195 11.1023C18.7891 11.1023 18.5938 11.1667 18.4336 11.2957C18.2734 11.4207 18.1465 11.6492 18.0527 11.9812C17.9629 12.3132 17.918 13.0085 17.918 14.0671V15.989ZM24.6211 14.0085L26.2617 14.2839C26.0508 14.8855 25.7168 15.3445 25.2598 15.6609C24.8066 15.9734 24.2383 16.1296 23.5547 16.1296C22.4727 16.1296 21.6719 15.7761 21.1523 15.0691C20.7422 14.5027 20.5371 13.7878 20.5371 12.9246C20.5371 11.8933 20.8066 11.0867 21.3457 10.5046C21.8848 9.9187 22.5664 9.62573 23.3906 9.62573C24.3164 9.62573 25.0469 9.93237 25.582 10.5457C26.1172 11.155 26.373 12.0906 26.3496 13.3523H22.2246C22.2363 13.8406 22.3691 14.2214 22.623 14.4949C22.877 14.7644 23.1934 14.8992 23.5723 14.8992C23.8301 14.8992 24.0469 14.8289 24.2227 14.6882C24.3984 14.5476 24.5312 14.321 24.6211 14.0085ZM24.7148 12.3445C24.7031 11.8679 24.5801 11.5066 24.3457 11.2605C24.1113 11.0105 23.8262 10.8855 23.4902 10.8855C23.1309 10.8855 22.834 11.0164 22.5996 11.2781C22.3652 11.5398 22.25 11.8953 22.2539 12.3445H24.7148ZM27.5098 13.698V12.0515H30.7441V13.698H27.5098ZM31.7227 15.989V7.39917H33.4102L36.9258 13.1355V7.39917H38.5371V15.989H36.7969L33.334 10.3875V15.989H31.7227ZM42.3105 15.989V8.85229H39.7617V7.39917H46.5879V8.85229H44.0449V15.989H42.3105ZM47.7246 15.989V7.39917H53.6133V8.85229H49.459V10.8855H53.0449V12.3386H49.459V15.989H47.7246ZM57.9141 15.989V14.2605H54.3984V12.8191L58.125 7.36401H59.5078V12.8132H60.5742V14.2605H59.5078V15.989H57.9141ZM57.9141 12.8132V9.87769L55.9395 12.8132H57.9141Z" fill="white"/>
<defs>
<linearGradient id="paint0_linear_66_2005" x1="34.5" y1="1.98901" x2="34.5" y2="21.989" gradientUnits="userSpaceOnUse">
<stop stop-color="#BFA5FF"/>
<stop offset="1" stop-color="#380F9C"/>
</linearGradient>
</defs>
</svg>
