<svg width="69" height="24" viewBox="0 0 69 24" fill="none" xmlns="http://www.w3.org/2000/svg">
<rect x="1" y="1.98901" width="67" height="20" rx="10" fill="url(#paint0_linear_50_1846)"/>
<rect x="1" y="1.98901" width="67" height="20" rx="10" stroke="#1C00CD" stroke-width="3" stroke-linejoin="round"/>
<path d="M9.32812 15.989V7.39917H11.9238L13.4824 13.2585L15.0234 7.39917H17.625V15.989H16.0137V9.22729L14.3086 15.989H12.6387L10.9395 9.22729V15.989H9.32812ZM27.0938 15.989H25.207L24.457 14.0378H21.0234L20.3145 15.989H18.4746L21.8203 7.39917H23.6543L27.0938 15.989ZM23.9004 12.5906L22.7168 9.40308L21.5566 12.5906H23.9004ZM28.0195 15.989V7.39917H30.8027C31.8574 7.39917 32.5449 7.44214 32.8652 7.52808C33.3574 7.65698 33.7695 7.93823 34.1016 8.37183C34.4336 8.80151 34.5996 9.35815 34.5996 10.0417C34.5996 10.5691 34.5039 11.0125 34.3125 11.3718C34.1211 11.7312 33.877 12.0144 33.5801 12.2214C33.2871 12.4246 32.9883 12.5593 32.6836 12.6257C32.2695 12.7078 31.6699 12.7488 30.8848 12.7488H29.7539V15.989H28.0195ZM29.7539 8.85229V11.2898H30.7031C31.3867 11.2898 31.8438 11.2449 32.0742 11.155C32.3047 11.0652 32.4844 10.9246 32.6133 10.7332C32.7461 10.5417 32.8125 10.3191 32.8125 10.0652C32.8125 9.75269 32.7207 9.49487 32.5371 9.29175C32.3535 9.08862 32.1211 8.96167 31.8398 8.91089C31.6328 8.87183 31.2168 8.85229 30.5918 8.85229H29.7539ZM36.0469 15.989V7.39917H37.7812V11.2136L41.2852 7.39917H43.6172L40.3828 10.7449L43.793 15.989H41.5488L39.1875 11.9578L37.7812 13.3933V15.989H36.0469ZM48.5449 15.989H46.8984V9.78394C46.2969 10.3464 45.5879 10.7625 44.7715 11.032V9.53784C45.2012 9.39722 45.668 9.13159 46.1719 8.74097C46.6758 8.34644 47.0215 7.88745 47.209 7.36401H48.5449V15.989ZM51.3223 14.3425H52.9688V15.5203C52.9688 15.9968 52.9277 16.3718 52.8457 16.6453C52.7637 16.9226 52.6074 17.1707 52.377 17.3894C52.1504 17.6082 51.8613 17.78 51.5098 17.905L51.1875 17.2253C51.5195 17.116 51.7559 16.9656 51.8965 16.7742C52.0371 16.5828 52.1113 16.321 52.1191 15.989H51.3223V14.3425ZM54.293 13.7097L55.8867 13.5164C55.9375 13.9226 56.0742 14.2332 56.2969 14.448C56.5195 14.6628 56.7891 14.7703 57.1055 14.7703C57.4453 14.7703 57.7305 14.6414 57.9609 14.3835C58.1953 14.1257 58.3125 13.7781 58.3125 13.3406C58.3125 12.9265 58.2012 12.5984 57.9785 12.3562C57.7559 12.114 57.4844 11.9929 57.1641 11.9929C56.9531 11.9929 56.7012 12.0339 56.4082 12.116L56.5898 10.7742C57.0352 10.7859 57.375 10.6902 57.6094 10.4871C57.8438 10.28 57.9609 10.0066 57.9609 9.66675C57.9609 9.37769 57.875 9.14722 57.7031 8.97534C57.5312 8.80347 57.3027 8.71753 57.0176 8.71753C56.7363 8.71753 56.4961 8.81519 56.2969 9.0105C56.0977 9.20581 55.9766 9.49097 55.9336 9.86597L54.416 9.60815C54.5215 9.08862 54.6797 8.67456 54.8906 8.36597C55.1055 8.05347 55.4023 7.80933 55.7812 7.63354C56.1641 7.45386 56.5918 7.36401 57.0645 7.36401C57.873 7.36401 58.5215 7.62183 59.0098 8.13745C59.4121 8.55933 59.6133 9.03589 59.6133 9.56714C59.6133 10.321 59.2012 10.9226 58.377 11.3718C58.8691 11.4773 59.2617 11.7136 59.5547 12.0808C59.8516 12.448 60 12.8914 60 13.4109C60 14.1648 59.7246 14.8074 59.1738 15.3386C58.623 15.8699 57.9375 16.1355 57.1172 16.1355C56.3398 16.1355 55.6953 15.9128 55.1836 15.4675C54.6719 15.0183 54.375 14.4324 54.293 13.7097Z" fill="white"/>
<defs>
<linearGradient id="paint0_linear_50_1846" x1="34.5" y1="1.98901" x2="34.5" y2="21.989" gradientUnits="userSpaceOnUse">
<stop stop-color="#1C00CD"/>
<stop offset="1" stop-color="#E07236"/>
</linearGradient>
</defs>
</svg>
