<svg width="51" height="24" viewBox="0 0 51 24" fill="none" xmlns="http://www.w3.org/2000/svg">
<rect x="2" y="1.98901" width="48" height="20" rx="10" fill="url(#paint0_linear_84_2035)"/>
<rect x="2" y="1.98901" width="48" height="20" rx="10" stroke="#6F005A" stroke-width="3" stroke-linejoin="round"/>
<path d="M12.125 15.989V8.85229H9.57617V7.39917H16.4023V8.85229H13.8594V15.989H12.125ZM17.5332 15.989V7.39917H21.1836C22.1016 7.39917 22.7676 7.47729 23.1816 7.63354C23.5996 7.78589 23.9336 8.05933 24.1836 8.45386C24.4336 8.84839 24.5586 9.29956 24.5586 9.80737C24.5586 10.4519 24.3691 10.9851 23.9902 11.407C23.6113 11.825 23.0449 12.0886 22.291 12.198C22.666 12.4167 22.9746 12.657 23.2168 12.9187C23.4629 13.1804 23.793 13.6453 24.207 14.3132L25.2559 15.989H23.1816L21.9277 14.1199C21.4824 13.4519 21.1777 13.032 21.0137 12.8601C20.8496 12.6843 20.6758 12.5652 20.4922 12.5027C20.3086 12.4363 20.0176 12.4031 19.6191 12.4031H19.2676V15.989H17.5332ZM19.2676 11.032H20.5508C21.3828 11.032 21.9023 10.9968 22.1094 10.9265C22.3164 10.8562 22.4785 10.7351 22.5957 10.5632C22.7129 10.3914 22.7715 10.1765 22.7715 9.9187C22.7715 9.62964 22.6934 9.39722 22.5371 9.22144C22.3848 9.04175 22.168 8.92847 21.8867 8.88159C21.7461 8.86206 21.3242 8.85229 20.6211 8.85229H19.2676V11.032ZM26.1465 15.989V7.39917H27.8809V15.989H26.1465ZM31.4727 15.989V8.85229H28.9238V7.39917H35.75V8.85229H33.207V15.989H31.4727ZM40.7246 15.989H39.0781V9.78394C38.4766 10.3464 37.7676 10.7625 36.9512 11.032V9.53784C37.3809 9.39722 37.8477 9.13159 38.3516 8.74097C38.8555 8.34644 39.2012 7.88745 39.3887 7.36401H40.7246V15.989Z" fill="white"/>
<defs>
<linearGradient id="paint0_linear_84_2035" x1="26" y1="1.98901" x2="26" y2="21.989" gradientUnits="userSpaceOnUse">
<stop stop-color="#6F005A"/>
<stop offset="1" stop-color="#F7BF82"/>
</linearGradient>
</defs>
</svg>
