<svg width="131" height="36" viewBox="0 0 131 36" fill="none" xmlns="http://www.w3.org/2000/svg">
<rect x="1" y="1.98901" width="129" height="32" rx="10" fill="url(#paint0_linear_40_2570)"/>
<rect x="1" y="1.98901" width="129" height="32" rx="10" stroke="#0052AF" stroke-width="3" stroke-linejoin="round"/>
<path d="M9.00391 6.39917H12.1738C12.8887 6.39917 13.4336 6.45386 13.8086 6.56323C14.3125 6.71167 14.7441 6.97534 15.1035 7.35425C15.4629 7.73315 15.7363 8.198 15.9238 8.74878C16.1113 9.29565 16.2051 9.97144 16.2051 10.7761C16.2051 11.4832 16.1172 12.0925 15.9414 12.6042C15.7266 13.2292 15.4199 13.7351 15.0215 14.1218C14.7207 14.4148 14.3145 14.6433 13.8027 14.8074C13.4199 14.9285 12.9082 14.989 12.2676 14.989H9.00391V6.39917ZM10.7383 7.85229V13.5417H12.0332C12.5176 13.5417 12.8672 13.5144 13.082 13.4597C13.3633 13.3894 13.5957 13.2703 13.7793 13.1023C13.9668 12.9343 14.1191 12.6589 14.2363 12.2761C14.3535 11.8894 14.4121 11.364 14.4121 10.7C14.4121 10.0359 14.3535 9.52612 14.2363 9.17065C14.1191 8.81519 13.9551 8.53784 13.7441 8.33862C13.5332 8.1394 13.2656 8.00464 12.9414 7.93433C12.6992 7.87964 12.2246 7.85229 11.5176 7.85229H10.7383ZM17.6992 14.989V6.39917H19.3867L22.9023 12.1355V6.39917H24.5137V14.989H22.7734L19.3105 9.38745V14.989H17.6992ZM34.0996 14.989H32.2129L31.4629 13.0378H28.0293L27.3203 14.989H25.4805L28.8262 6.39917H30.6602L34.0996 14.989ZM30.9062 11.5906L29.7227 8.40308L28.5625 11.5906H30.9062ZM37.8965 14.989V6.39917H40.4922L42.0508 12.2585L43.5918 6.39917H46.1934V14.989H44.582V8.22729L42.877 14.989H41.207L39.5078 8.22729V14.989H37.8965ZM47.916 14.989V6.39917H54.2852V7.85229H49.6504V9.75659H53.9629V11.2039H49.6504V13.5417H54.4492V14.989H47.916ZM57.8535 14.989V7.85229H55.3047V6.39917H62.1309V7.85229H59.5879V14.989H57.8535ZM63.2617 14.989V6.39917H64.9961V9.78003H68.3945V6.39917H70.1289V14.989H68.3945V11.2332H64.9961V14.989H63.2617ZM74.1836 14.989V11.3738L71.0371 6.39917H73.0703L75.0918 9.79761L77.0723 6.39917H79.0703L75.9121 11.3855V14.989H74.1836ZM79.9785 14.989V6.46948H81.7129V13.5417H86.0254V14.989H79.9785ZM95.0137 14.989H93.127L92.377 13.0378H88.9434L88.2344 14.989H86.3945L89.7402 6.39917H91.5742L95.0137 14.989ZM91.8203 11.5906L90.6367 8.40308L89.4766 11.5906H91.8203ZM96.9824 14.989V7.85229H94.4336V6.39917H101.26V7.85229H98.7168V14.989H96.9824ZM102.332 14.989V6.39917H104.066V14.989H102.332ZM105.373 10.7468C105.373 9.87183 105.504 9.13745 105.766 8.5437C105.961 8.1062 106.227 7.71362 106.562 7.36597C106.902 7.01831 107.273 6.7605 107.676 6.59253C108.211 6.36597 108.828 6.25269 109.527 6.25269C110.793 6.25269 111.805 6.64526 112.562 7.43042C113.324 8.21558 113.705 9.30737 113.705 10.7058C113.705 12.0925 113.328 13.1785 112.574 13.9636C111.82 14.7449 110.812 15.1355 109.551 15.1355C108.273 15.1355 107.258 14.7468 106.504 13.9695C105.75 13.1882 105.373 12.114 105.373 10.7468ZM107.16 10.6882C107.16 11.6609 107.385 12.3992 107.834 12.9031C108.283 13.4031 108.854 13.6531 109.545 13.6531C110.236 13.6531 110.803 13.405 111.244 12.9089C111.689 12.4089 111.912 11.6609 111.912 10.6648C111.912 9.68042 111.695 8.94604 111.262 8.46167C110.832 7.97729 110.26 7.73511 109.545 7.73511C108.83 7.73511 108.254 7.9812 107.816 8.47339C107.379 8.96167 107.16 9.69995 107.16 10.6882ZM115.082 14.989V6.39917H116.77L120.285 12.1355V6.39917H121.896V14.989H120.156L116.693 9.38745V14.989H115.082ZM39.6895 28.989V20.3992H42.4727C43.5273 20.3992 44.2148 20.4421 44.5352 20.5281C45.0273 20.657 45.4395 20.9382 45.7715 21.3718C46.1035 21.8015 46.2695 22.3582 46.2695 23.0417C46.2695 23.5691 46.1738 24.0125 45.9824 24.3718C45.791 24.7312 45.5469 25.0144 45.25 25.2214C44.957 25.4246 44.6582 25.5593 44.3535 25.6257C43.9395 25.7078 43.3398 25.7488 42.5547 25.7488H41.4238V28.989H39.6895ZM41.4238 21.8523V24.2898H42.373C43.0566 24.2898 43.5137 24.2449 43.7441 24.155C43.9746 24.0652 44.1543 23.9246 44.2832 23.7332C44.416 23.5417 44.4824 23.3191 44.4824 23.0652C44.4824 22.7527 44.3906 22.4949 44.207 22.2917C44.0234 22.0886 43.791 21.9617 43.5098 21.9109C43.3027 21.8718 42.8867 21.8523 42.2617 21.8523H41.4238ZM47.6992 28.989V20.3992H51.3496C52.2676 20.3992 52.9336 20.4773 53.3477 20.6335C53.7656 20.7859 54.0996 21.0593 54.3496 21.4539C54.5996 21.8484 54.7246 22.2996 54.7246 22.8074C54.7246 23.4519 54.5352 23.9851 54.1562 24.407C53.7773 24.825 53.2109 25.0886 52.457 25.198C52.832 25.4167 53.1406 25.657 53.3828 25.9187C53.6289 26.1804 53.959 26.6453 54.373 27.3132L55.4219 28.989H53.3477L52.0938 27.1199C51.6484 26.4519 51.3438 26.032 51.1797 25.8601C51.0156 25.6843 50.8418 25.5652 50.6582 25.5027C50.4746 25.4363 50.1836 25.4031 49.7852 25.4031H49.4336V28.989H47.6992ZM49.4336 24.032H50.7168C51.5488 24.032 52.0684 23.9968 52.2754 23.9265C52.4824 23.8562 52.6445 23.7351 52.7617 23.5632C52.8789 23.3914 52.9375 23.1765 52.9375 22.9187C52.9375 22.6296 52.8594 22.3972 52.7031 22.2214C52.5508 22.0417 52.334 21.9285 52.0527 21.8816C51.9121 21.8621 51.4902 21.8523 50.7871 21.8523H49.4336V24.032ZM56.0137 24.7468C56.0137 23.8718 56.1445 23.1375 56.4062 22.5437C56.6016 22.1062 56.8672 21.7136 57.2031 21.366C57.543 21.0183 57.9141 20.7605 58.3164 20.5925C58.8516 20.366 59.4688 20.2527 60.168 20.2527C61.4336 20.2527 62.4453 20.6453 63.2031 21.4304C63.9648 22.2156 64.3457 23.3074 64.3457 24.7058C64.3457 26.0925 63.9688 27.1785 63.2148 27.9636C62.4609 28.7449 61.4531 29.1355 60.1914 29.1355C58.9141 29.1355 57.8984 28.7468 57.1445 27.9695C56.3906 27.1882 56.0137 26.114 56.0137 24.7468ZM57.8008 24.6882C57.8008 25.6609 58.0254 26.3992 58.4746 26.9031C58.9238 27.4031 59.4941 27.6531 60.1855 27.6531C60.877 27.6531 61.4434 27.405 61.8848 26.9089C62.3301 26.4089 62.5527 25.6609 62.5527 24.6648C62.5527 23.6804 62.3359 22.946 61.9023 22.4617C61.4727 21.9773 60.9004 21.7351 60.1855 21.7351C59.4707 21.7351 58.8945 21.9812 58.457 22.4734C58.0195 22.9617 57.8008 23.7 57.8008 24.6882ZM67.6387 28.989V21.8523H65.0898V20.3992H71.916V21.8523H69.373V28.989H67.6387ZM73.041 28.989V20.3992H79.4102V21.8523H74.7754V23.7566H79.0879V25.2039H74.7754V27.5417H79.5742V28.989H73.041ZM80.9922 28.989V20.3992H82.7266V28.989H80.9922ZM84.4023 28.989V20.3992H86.0898L89.6055 26.1355V20.3992H91.2168V28.989H89.4766L86.0137 23.3875V28.989H84.4023Z" fill="white"/>
<defs>
<linearGradient id="paint0_linear_40_2570" x1="65.5" y1="1.98901" x2="65.5" y2="33.989" gradientUnits="userSpaceOnUse">
<stop stop-color="#FF7267"/>
<stop offset="1" stop-color="#06A2B2"/>
</linearGradient>
</defs>
</svg>
