<svg width="41" height="24" viewBox="0 0 41 24" fill="none" xmlns="http://www.w3.org/2000/svg">
<rect x="2" y="1.98901" width="38" height="20" rx="10" fill="url(#paint0_linear_64_1895)"/>
<rect x="2" y="1.98901" width="38" height="20" rx="10" stroke="#9461F7" stroke-width="3" stroke-linejoin="round"/>
<path d="M10.2129 15.989V7.39917H11.9004L15.416 13.1355V7.39917H17.0273V15.989H15.2871L11.8242 10.3875V15.989H10.2129ZM18.4277 13.1941L20.1152 13.03C20.2168 13.5964 20.4219 14.0125 20.7305 14.2781C21.043 14.5437 21.4629 14.6765 21.9902 14.6765C22.5488 14.6765 22.9688 14.5593 23.25 14.325C23.5352 14.0867 23.6777 13.8093 23.6777 13.4929C23.6777 13.2898 23.6172 13.1179 23.4961 12.9773C23.3789 12.8328 23.1719 12.7078 22.875 12.6023C22.6719 12.532 22.209 12.407 21.4863 12.2273C20.5566 11.9968 19.9043 11.7136 19.5293 11.3777C19.002 10.905 18.7383 10.3289 18.7383 9.64917C18.7383 9.21167 18.8613 8.80347 19.1074 8.42456C19.3574 8.04175 19.7148 7.75073 20.1797 7.55151C20.6484 7.35229 21.2129 7.25269 21.873 7.25269C22.9512 7.25269 23.7617 7.48901 24.3047 7.96167C24.8516 8.43433 25.1387 9.06519 25.166 9.85425L23.4316 9.93042C23.3574 9.48901 23.1973 9.17261 22.9512 8.9812C22.709 8.78589 22.3438 8.68823 21.8555 8.68823C21.3516 8.68823 20.957 8.79175 20.6719 8.99878C20.4883 9.13159 20.3965 9.30933 20.3965 9.53198C20.3965 9.73511 20.4824 9.90894 20.6543 10.0535C20.873 10.2371 21.4043 10.4285 22.248 10.6277C23.0918 10.8269 23.7148 11.0339 24.1172 11.2488C24.5234 11.4597 24.8398 11.7507 25.0664 12.1218C25.2969 12.489 25.4121 12.9441 25.4121 13.4871C25.4121 13.9792 25.2754 14.4402 25.002 14.8699C24.7285 15.2996 24.3418 15.6199 23.8418 15.8308C23.3418 16.0378 22.7188 16.1414 21.9727 16.1414C20.8867 16.1414 20.0527 15.8914 19.4707 15.3914C18.8887 14.8875 18.541 14.155 18.4277 13.1941ZM32.0684 14.4597V15.989H26.2969C26.3594 15.4109 26.5469 14.864 26.8594 14.3484C27.1719 13.8289 27.7891 13.1414 28.7109 12.2859C29.4531 11.5945 29.9082 11.1257 30.0762 10.8796C30.3027 10.5398 30.416 10.2039 30.416 9.87183C30.416 9.50464 30.3164 9.22339 30.1172 9.02808C29.9219 8.82886 29.6504 8.72925 29.3027 8.72925C28.959 8.72925 28.6855 8.83276 28.4824 9.03979C28.2793 9.24683 28.1621 9.59058 28.1309 10.071L26.4902 9.90698C26.5879 9.00073 26.8945 8.35034 27.4102 7.95581C27.9258 7.56128 28.5703 7.36401 29.3438 7.36401C30.1914 7.36401 30.8574 7.59253 31.3418 8.04956C31.8262 8.50659 32.0684 9.07495 32.0684 9.75464C32.0684 10.1414 31.998 10.5105 31.8574 10.8621C31.7207 11.2097 31.502 11.575 31.2012 11.9578C31.002 12.2117 30.6426 12.5769 30.123 13.0535C29.6035 13.53 29.2734 13.8464 29.1328 14.0027C28.9961 14.1589 28.8848 14.3113 28.7988 14.4597H32.0684Z" fill="white"/>
<defs>
<linearGradient id="paint0_linear_64_1895" x1="21" y1="1.98901" x2="21" y2="21.989" gradientUnits="userSpaceOnUse">
<stop stop-color="#000875"/>
<stop offset="1" stop-color="#9461F7"/>
</linearGradient>
</defs>
</svg>
