<svg width="65" height="24" viewBox="0 0 65 24" fill="none" xmlns="http://www.w3.org/2000/svg">
<rect x="1" y="1.98901" width="63" height="20" rx="10" fill="url(#paint0_linear_52_1855)"/>
<rect x="1" y="1.98901" width="63" height="20" rx="10" stroke="#2764E0" stroke-width="3" stroke-linejoin="round"/>
<path d="M8.99805 15.989V7.39917H11.5938L13.1523 13.2585L14.6934 7.39917H17.2949V15.989H15.6836V9.22729L13.9785 15.989H12.3086L10.6094 9.22729V15.989H8.99805ZM26.7637 15.989H24.877L24.127 14.0378H20.6934L19.9844 15.989H18.1445L21.4902 7.39917H23.3242L26.7637 15.989ZM23.5703 12.5906L22.3867 9.40308L21.2266 12.5906H23.5703ZM27.6895 15.989V7.39917H30.4727C31.5273 7.39917 32.2148 7.44214 32.5352 7.52808C33.0273 7.65698 33.4395 7.93823 33.7715 8.37183C34.1035 8.80151 34.2695 9.35815 34.2695 10.0417C34.2695 10.5691 34.1738 11.0125 33.9824 11.3718C33.791 11.7312 33.5469 12.0144 33.25 12.2214C32.957 12.4246 32.6582 12.5593 32.3535 12.6257C31.9395 12.7078 31.3398 12.7488 30.5547 12.7488H29.4238V15.989H27.6895ZM29.4238 8.85229V11.2898H30.373C31.0566 11.2898 31.5137 11.2449 31.7441 11.155C31.9746 11.0652 32.1543 10.9246 32.2832 10.7332C32.416 10.5417 32.4824 10.3191 32.4824 10.0652C32.4824 9.75269 32.3906 9.49487 32.207 9.29175C32.0234 9.08862 31.791 8.96167 31.5098 8.91089C31.3027 8.87183 30.8867 8.85229 30.2617 8.85229H29.4238ZM40.8906 14.4597V15.989H35.1191C35.1816 15.4109 35.3691 14.864 35.6816 14.3484C35.9941 13.8289 36.6113 13.1414 37.5332 12.2859C38.2754 11.5945 38.7305 11.1257 38.8984 10.8796C39.125 10.5398 39.2383 10.2039 39.2383 9.87183C39.2383 9.50464 39.1387 9.22339 38.9395 9.02808C38.7441 8.82886 38.4727 8.72925 38.125 8.72925C37.7812 8.72925 37.5078 8.83276 37.3047 9.03979C37.1016 9.24683 36.9844 9.59058 36.9531 10.071L35.3125 9.90698C35.4102 9.00073 35.7168 8.35034 36.2324 7.95581C36.748 7.56128 37.3926 7.36401 38.166 7.36401C39.0137 7.36401 39.6797 7.59253 40.1641 8.04956C40.6484 8.50659 40.8906 9.07495 40.8906 9.75464C40.8906 10.1414 40.8203 10.5105 40.6797 10.8621C40.543 11.2097 40.3242 11.575 40.0234 11.9578C39.8242 12.2117 39.4648 12.5769 38.9453 13.0535C38.4258 13.53 38.0957 13.8464 37.9551 14.0027C37.8184 14.1589 37.707 14.3113 37.6211 14.4597H40.8906ZM42.3965 15.989V7.39917H44.1309V11.2136L47.6348 7.39917H49.9668L46.7324 10.7449L50.1426 15.989H47.8984L45.5371 11.9578L44.1309 13.3933V15.989H42.3965ZM56.2598 9.50269L54.666 9.67847C54.627 9.35034 54.5254 9.10815 54.3613 8.9519C54.1973 8.79565 53.9844 8.71753 53.7227 8.71753C53.375 8.71753 53.0801 8.87378 52.8379 9.18628C52.5996 9.49878 52.4492 10.1492 52.3867 11.1375C52.7969 10.6531 53.3066 10.4109 53.916 10.4109C54.6035 10.4109 55.1914 10.6726 55.6797 11.196C56.1719 11.7195 56.418 12.3953 56.418 13.2234C56.418 14.1023 56.1602 14.8074 55.6445 15.3386C55.1289 15.8699 54.4668 16.1355 53.6582 16.1355C52.791 16.1355 52.0781 15.7996 51.5195 15.1277C50.9609 14.4519 50.6816 13.3464 50.6816 11.8113C50.6816 10.2371 50.9727 9.10229 51.5547 8.40698C52.1367 7.71167 52.8926 7.36401 53.8223 7.36401C54.4746 7.36401 55.0137 7.54761 55.4395 7.91479C55.8691 8.27808 56.1426 8.80737 56.2598 9.50269ZM52.5273 13.0945C52.5273 13.6296 52.6504 14.0437 52.8965 14.3367C53.1426 14.6257 53.4238 14.7703 53.7402 14.7703C54.0449 14.7703 54.2988 14.6511 54.502 14.4128C54.7051 14.1746 54.8066 13.7839 54.8066 13.241C54.8066 12.6824 54.6973 12.2742 54.4785 12.0164C54.2598 11.7546 53.9863 11.6238 53.6582 11.6238C53.3418 11.6238 53.0742 11.7488 52.8555 11.9988C52.6367 12.2449 52.5273 12.6101 52.5273 13.0945Z" fill="white"/>
<defs>
<linearGradient id="paint0_linear_52_1855" x1="32.5" y1="1.98901" x2="32.5" y2="21.989" gradientUnits="userSpaceOnUse">
<stop stop-color="#2764E0"/>
<stop offset="1" stop-color="#48FF67"/>
</linearGradient>
</defs>
</svg>
