<svg width="70" height="24" viewBox="0 0 70 24" fill="none" xmlns="http://www.w3.org/2000/svg">
<rect x="1" y="1.98901" width="68" height="20" rx="10" fill="url(#paint0_linear_35_1501)"/>
<rect x="1" y="1.98901" width="68" height="20" rx="10" stroke="#BA198D" stroke-width="3" stroke-linejoin="round"/>
<path d="M8.9668 7.39917H12.4004C13.0801 7.39917 13.5859 7.42847 13.918 7.48706C14.2539 7.54175 14.5527 7.65894 14.8145 7.83862C15.0801 8.01831 15.3008 8.25854 15.4766 8.55933C15.6523 8.8562 15.7402 9.19019 15.7402 9.56128C15.7402 9.96362 15.6309 10.3328 15.4121 10.6687C15.1973 11.0046 14.9043 11.2566 14.5332 11.4246C15.0566 11.5769 15.459 11.8367 15.7402 12.2039C16.0215 12.571 16.1621 13.0027 16.1621 13.4988C16.1621 13.8894 16.0703 14.2703 15.8867 14.6414C15.707 15.0085 15.459 15.3035 15.1426 15.5261C14.8301 15.7449 14.4434 15.8796 13.9824 15.9304C13.6934 15.9617 12.9961 15.9812 11.8906 15.989H8.9668V7.39917ZM10.7012 8.82886V10.8152H11.8379C12.5137 10.8152 12.9336 10.8054 13.0977 10.7859C13.3945 10.7507 13.627 10.6492 13.7949 10.4812C13.9668 10.3093 14.0527 10.0847 14.0527 9.80737C14.0527 9.54175 13.9785 9.3269 13.8301 9.16284C13.6855 8.99487 13.4688 8.89331 13.1797 8.85815C13.0078 8.83862 12.5137 8.82886 11.6973 8.82886H10.7012ZM10.7012 12.2449V14.5417H12.3066C12.9316 14.5417 13.3281 14.5242 13.4961 14.489C13.7539 14.4421 13.9629 14.3289 14.123 14.1492C14.2871 13.9656 14.3691 13.7214 14.3691 13.4167C14.3691 13.1589 14.3066 12.9402 14.1816 12.7605C14.0566 12.5808 13.875 12.45 13.6367 12.3679C13.4023 12.2859 12.8906 12.2449 12.1016 12.2449H10.7012ZM20.498 15.989V14.2605H16.9824V12.8191L20.709 7.36401H22.0918V12.8132H23.1582V14.2605H22.0918V15.989H20.498ZM20.498 12.8132V9.87769L18.5234 12.8132H20.498ZM28.3086 12.8308V11.3835H32.0469V14.8054C31.6836 15.157 31.1562 15.4675 30.4648 15.7371C29.7773 16.0027 29.0801 16.1355 28.373 16.1355C27.4746 16.1355 26.6914 15.948 26.0234 15.573C25.3555 15.1941 24.8535 14.655 24.5176 13.9558C24.1816 13.2527 24.0137 12.489 24.0137 11.6648C24.0137 10.7703 24.2012 9.97534 24.5762 9.28003C24.9512 8.58472 25.5 8.05151 26.2227 7.68042C26.7734 7.39526 27.459 7.25269 28.2793 7.25269C29.3457 7.25269 30.1777 7.47729 30.7754 7.92651C31.377 8.37183 31.7637 8.98901 31.9355 9.77808L30.2129 10.1003C30.0918 9.67847 29.8633 9.34644 29.5273 9.10425C29.1953 8.85815 28.7793 8.73511 28.2793 8.73511C27.5215 8.73511 26.918 8.97534 26.4688 9.45581C26.0234 9.93628 25.8008 10.6492 25.8008 11.5945C25.8008 12.614 26.0273 13.3796 26.4805 13.8914C26.9336 14.3992 27.5273 14.6531 28.2617 14.6531C28.625 14.6531 28.9883 14.5828 29.3516 14.4421C29.7188 14.2976 30.0332 14.1238 30.2949 13.9207V12.8308H28.3086ZM41.3984 15.989H39.5117L38.7617 14.0378H35.3281L34.6191 15.989H32.7793L36.125 7.39917H37.959L41.3984 15.989ZM38.2051 12.5906L37.0215 9.40308L35.8613 12.5906H38.2051ZM42.3711 15.989V7.46948H44.1055V14.5417H48.418V15.989H42.3711ZM50.7031 15.989V8.85229H48.1543V7.39917H54.9805V8.85229H52.4375V15.989H50.7031ZM59.9551 15.989H58.3086V9.78394C57.707 10.3464 56.998 10.7625 56.1816 11.032V9.53784C56.6113 9.39722 57.0781 9.13159 57.582 8.74097C58.0859 8.34644 58.4316 7.88745 58.6191 7.36401H59.9551V15.989Z" fill="white"/>
<defs>
<linearGradient id="paint0_linear_35_1501" x1="35" y1="1.98901" x2="35" y2="21.989" gradientUnits="userSpaceOnUse">
<stop stop-color="#BA198D"/>
<stop offset="1" stop-color="#00D8FF"/>
</linearGradient>
</defs>
</svg>
