<svg width="62" height="24" viewBox="0 0 62 24" fill="none" xmlns="http://www.w3.org/2000/svg">
<rect x="2" y="1.98901" width="59" height="20" rx="10" fill="url(#paint0_linear_64_1942)"/>
<rect x="2" y="1.98901" width="59" height="20" rx="10" stroke="#22134F" stroke-width="3" stroke-linejoin="round"/>
<path d="M10.002 11.7468C10.002 10.8718 10.1328 10.1375 10.3945 9.5437C10.5898 9.1062 10.8555 8.71362 11.1914 8.36597C11.5312 8.01831 11.9023 7.7605 12.3047 7.59253C12.8398 7.36597 13.457 7.25269 14.1562 7.25269C15.4219 7.25269 16.4336 7.64526 17.1914 8.43042C17.9531 9.21558 18.334 10.3074 18.334 11.7058C18.334 13.0925 17.957 14.1785 17.2031 14.9636C16.4492 15.7449 15.4414 16.1355 14.1797 16.1355C12.9023 16.1355 11.8867 15.7468 11.1328 14.9695C10.3789 14.1882 10.002 13.114 10.002 11.7468ZM11.7891 11.6882C11.7891 12.6609 12.0137 13.3992 12.4629 13.9031C12.9121 14.4031 13.4824 14.6531 14.1738 14.6531C14.8652 14.6531 15.4316 14.405 15.873 13.9089C16.3184 13.4089 16.541 12.6609 16.541 11.6648C16.541 10.6804 16.3242 9.94604 15.8906 9.46167C15.4609 8.97729 14.8887 8.73511 14.1738 8.73511C13.459 8.73511 12.8828 8.9812 12.4453 9.47339C12.0078 9.96167 11.7891 10.7 11.7891 11.6882ZM19.6992 15.989V7.39917H23.3496C24.2676 7.39917 24.9336 7.47729 25.3477 7.63354C25.7656 7.78589 26.0996 8.05933 26.3496 8.45386C26.5996 8.84839 26.7246 9.29956 26.7246 9.80737C26.7246 10.4519 26.5352 10.9851 26.1562 11.407C25.7773 11.825 25.2109 12.0886 24.457 12.198C24.832 12.4167 25.1406 12.657 25.3828 12.9187C25.6289 13.1804 25.959 13.6453 26.373 14.3132L27.4219 15.989H25.3477L24.0938 14.1199C23.6484 13.4519 23.3438 13.032 23.1797 12.8601C23.0156 12.6843 22.8418 12.5652 22.6582 12.5027C22.4746 12.4363 22.1836 12.4031 21.7852 12.4031H21.4336V15.989H19.6992ZM21.4336 11.032H22.7168C23.5488 11.032 24.0684 10.9968 24.2754 10.9265C24.4824 10.8562 24.6445 10.7351 24.7617 10.5632C24.8789 10.3914 24.9375 10.1765 24.9375 9.9187C24.9375 9.62964 24.8594 9.39722 24.7031 9.22144C24.5508 9.04175 24.334 8.92847 24.0527 8.88159C23.9121 8.86206 23.4902 8.85229 22.7871 8.85229H21.4336V11.032ZM33.8613 12.8308L35.543 13.364C35.2852 14.3015 34.8555 14.9988 34.2539 15.4558C33.6562 15.9089 32.8965 16.1355 31.9746 16.1355C30.834 16.1355 29.8965 15.7468 29.1621 14.9695C28.4277 14.1882 28.0605 13.1218 28.0605 11.7703C28.0605 10.3406 28.4297 9.2312 29.168 8.44214C29.9062 7.64917 30.877 7.25269 32.0801 7.25269C33.1309 7.25269 33.9844 7.56323 34.6406 8.18433C35.0312 8.55151 35.3242 9.07886 35.5195 9.76636L33.8027 10.1765C33.7012 9.7312 33.4883 9.37964 33.1641 9.12183C32.8438 8.86401 32.4531 8.73511 31.9922 8.73511C31.3555 8.73511 30.8379 8.96362 30.4395 9.42065C30.0449 9.87769 29.8477 10.6179 29.8477 11.6414C29.8477 12.7273 30.043 13.5007 30.4336 13.9617C30.8242 14.4226 31.332 14.6531 31.957 14.6531C32.418 14.6531 32.8145 14.5066 33.1465 14.2136C33.4785 13.9207 33.7168 13.4597 33.8613 12.8308ZM42.2344 14.4597V15.989H36.4629C36.5254 15.4109 36.7129 14.864 37.0254 14.3484C37.3379 13.8289 37.9551 13.1414 38.877 12.2859C39.6191 11.5945 40.0742 11.1257 40.2422 10.8796C40.4688 10.5398 40.582 10.2039 40.582 9.87183C40.582 9.50464 40.4824 9.22339 40.2832 9.02808C40.0879 8.82886 39.8164 8.72925 39.4688 8.72925C39.125 8.72925 38.8516 8.83276 38.6484 9.03979C38.4453 9.24683 38.3281 9.59058 38.2969 10.071L36.6562 9.90698C36.7539 9.00073 37.0605 8.35034 37.5762 7.95581C38.0918 7.56128 38.7363 7.36401 39.5098 7.36401C40.3574 7.36401 41.0234 7.59253 41.5078 8.04956C41.9922 8.50659 42.2344 9.07495 42.2344 9.75464C42.2344 10.1414 42.1641 10.5105 42.0234 10.8621C41.8867 11.2097 41.668 11.575 41.3672 11.9578C41.168 12.2117 40.8086 12.5769 40.2891 13.0535C39.7695 13.53 39.4395 13.8464 39.2988 14.0027C39.1621 14.1589 39.0508 14.3113 38.9648 14.4597H42.2344ZM43.5176 13.698V12.0515H46.752V13.698H43.5176ZM47.373 13.78L49.0137 13.6101C49.0605 13.9812 49.1992 14.2761 49.4297 14.4949C49.6602 14.7097 49.9258 14.8171 50.2266 14.8171C50.5703 14.8171 50.8613 14.6785 51.0996 14.4011C51.3379 14.1199 51.457 13.698 51.457 13.1355C51.457 12.6082 51.3379 12.2136 51.0996 11.9519C50.8652 11.6863 50.5586 11.5535 50.1797 11.5535C49.707 11.5535 49.2832 11.7625 48.9082 12.1804L47.5723 11.9871L48.416 7.51636H52.7695V9.05737H49.6641L49.4062 10.5164C49.7734 10.3328 50.1484 10.241 50.5312 10.241C51.2617 10.241 51.8809 10.5066 52.3887 11.0378C52.8965 11.5691 53.1504 12.2585 53.1504 13.1062C53.1504 13.8132 52.9453 14.4441 52.5352 14.9988C51.9766 15.7566 51.2012 16.1355 50.209 16.1355C49.416 16.1355 48.7695 15.9226 48.2695 15.4968C47.7695 15.071 47.4707 14.4988 47.373 13.78Z" fill="white"/>
<defs>
<linearGradient id="paint0_linear_64_1942" x1="31.5" y1="1.98901" x2="31.5" y2="21.989" gradientUnits="userSpaceOnUse">
<stop stop-color="#22134F"/>
<stop offset="1" stop-color="#E7CA9A"/>
</linearGradient>
</defs>
</svg>
