<svg width="56" height="24" viewBox="0 0 56 24" fill="none" xmlns="http://www.w3.org/2000/svg">
<rect x="2" y="1.98901" width="53" height="20" rx="10" fill="url(#paint0_linear_46_4333)"/>
<rect x="2" y="1.98901" width="53" height="20" rx="10" stroke="#BFA500" stroke-width="3" stroke-linejoin="round"/>
<path d="M10.3066 15.989V7.39917H12.041V15.989H10.3066ZM13.7227 15.989V7.39917H15.457V11.2136L18.9609 7.39917H21.293L18.0586 10.7449L21.4688 15.989H19.2246L16.8633 11.9578L15.457 13.3933V15.989H13.7227ZM22.377 7.39917H25.8105C26.4902 7.39917 26.9961 7.42847 27.3281 7.48706C27.6641 7.54175 27.9629 7.65894 28.2246 7.83862C28.4902 8.01831 28.7109 8.25854 28.8867 8.55933C29.0625 8.8562 29.1504 9.19019 29.1504 9.56128C29.1504 9.96362 29.041 10.3328 28.8223 10.6687C28.6074 11.0046 28.3145 11.2566 27.9434 11.4246C28.4668 11.5769 28.8691 11.8367 29.1504 12.2039C29.4316 12.571 29.5723 13.0027 29.5723 13.4988C29.5723 13.8894 29.4805 14.2703 29.2969 14.6414C29.1172 15.0085 28.8691 15.3035 28.5527 15.5261C28.2402 15.7449 27.8535 15.8796 27.3926 15.9304C27.1035 15.9617 26.4062 15.9812 25.3008 15.989H22.377V7.39917ZM24.1113 8.82886V10.8152H25.248C25.9238 10.8152 26.3438 10.8054 26.5078 10.7859C26.8047 10.7507 27.0371 10.6492 27.2051 10.4812C27.377 10.3093 27.4629 10.0847 27.4629 9.80737C27.4629 9.54175 27.3887 9.3269 27.2402 9.16284C27.0957 8.99487 26.8789 8.89331 26.5898 8.85815C26.418 8.83862 25.9238 8.82886 25.1074 8.82886H24.1113ZM24.1113 12.2449V14.5417H25.7168C26.3418 14.5417 26.7383 14.5242 26.9062 14.489C27.1641 14.4421 27.373 14.3289 27.5332 14.1492C27.6973 13.9656 27.7793 13.7214 27.7793 13.4167C27.7793 13.1589 27.7168 12.9402 27.5918 12.7605C27.4668 12.5808 27.2852 12.45 27.0469 12.3679C26.8125 12.2859 26.3008 12.2449 25.5117 12.2449H24.1113ZM31.0664 15.989V7.39917H32.8008V11.2136L36.3047 7.39917H38.6367L35.4023 10.7449L38.8125 15.989H36.5684L34.207 11.9578L32.8008 13.3933V15.989H31.0664ZM39.7207 7.39917H43.1543C43.834 7.39917 44.3398 7.42847 44.6719 7.48706C45.0078 7.54175 45.3066 7.65894 45.5684 7.83862C45.834 8.01831 46.0547 8.25854 46.2305 8.55933C46.4062 8.8562 46.4941 9.19019 46.4941 9.56128C46.4941 9.96362 46.3848 10.3328 46.166 10.6687C45.9512 11.0046 45.6582 11.2566 45.2871 11.4246C45.8105 11.5769 46.2129 11.8367 46.4941 12.2039C46.7754 12.571 46.916 13.0027 46.916 13.4988C46.916 13.8894 46.8242 14.2703 46.6406 14.6414C46.4609 15.0085 46.2129 15.3035 45.8965 15.5261C45.584 15.7449 45.1973 15.8796 44.7363 15.9304C44.4473 15.9617 43.75 15.9812 42.6445 15.989H39.7207V7.39917ZM41.4551 8.82886V10.8152H42.5918C43.2676 10.8152 43.6875 10.8054 43.8516 10.7859C44.1484 10.7507 44.3809 10.6492 44.5488 10.4812C44.7207 10.3093 44.8066 10.0847 44.8066 9.80737C44.8066 9.54175 44.7324 9.3269 44.584 9.16284C44.4395 8.99487 44.2227 8.89331 43.9336 8.85815C43.7617 8.83862 43.2676 8.82886 42.4512 8.82886H41.4551ZM41.4551 12.2449V14.5417H43.0605C43.6855 14.5417 44.082 14.5242 44.25 14.489C44.5078 14.4421 44.7168 14.3289 44.877 14.1492C45.041 13.9656 45.123 13.7214 45.123 13.4167C45.123 13.1589 45.0605 12.9402 44.9355 12.7605C44.8105 12.5808 44.6289 12.45 44.3906 12.3679C44.1562 12.2859 43.6445 12.2449 42.8555 12.2449H41.4551Z" fill="white"/>
<defs>
<linearGradient id="paint0_linear_46_4333" x1="28.5" y1="1.98901" x2="28.5" y2="21.989" gradientUnits="userSpaceOnUse">
<stop stop-color="#00BAAD"/>
<stop offset="1" stop-color="#BFA500"/>
</linearGradient>
</defs>
</svg>
