<svg width="65" height="24" viewBox="0 0 65 24" fill="none" xmlns="http://www.w3.org/2000/svg">
<rect x="1" y="1.98901" width="63" height="20" rx="10" fill="url(#paint0_linear_84_2009)"/>
<rect x="1" y="1.98901" width="63" height="20" rx="10" stroke="#2F14BA" stroke-width="3" stroke-linejoin="round"/>
<path d="M11.2832 15.989V8.85229H8.73438V7.39917H15.5605V8.85229H13.0176V15.989H11.2832ZM16.6973 15.989V7.39917H22.5859V8.85229H18.4316V10.8855H22.0176V12.3386H18.4316V15.989H16.6973ZM24.0156 7.39917H27.1855C27.9004 7.39917 28.4453 7.45386 28.8203 7.56323C29.3242 7.71167 29.7559 7.97534 30.1152 8.35425C30.4746 8.73315 30.748 9.198 30.9355 9.74878C31.123 10.2957 31.2168 10.9714 31.2168 11.7761C31.2168 12.4832 31.1289 13.0925 30.9531 13.6042C30.7383 14.2292 30.4316 14.7351 30.0332 15.1218C29.7324 15.4148 29.3262 15.6433 28.8145 15.8074C28.4316 15.9285 27.9199 15.989 27.2793 15.989H24.0156V7.39917ZM25.75 8.85229V14.5417H27.0449C27.5293 14.5417 27.8789 14.5144 28.0938 14.4597C28.375 14.3894 28.6074 14.2703 28.791 14.1023C28.9785 13.9343 29.1309 13.6589 29.248 13.2761C29.3652 12.8894 29.4238 12.364 29.4238 11.7C29.4238 11.0359 29.3652 10.5261 29.248 10.1707C29.1309 9.81519 28.9668 9.53784 28.7559 9.33862C28.5449 9.1394 28.2773 9.00464 27.9531 8.93433C27.7109 8.87964 27.2363 8.85229 26.5293 8.85229H25.75ZM32.6934 15.989V7.39917H35.4766C36.5312 7.39917 37.2188 7.44214 37.5391 7.52808C38.0312 7.65698 38.4434 7.93823 38.7754 8.37183C39.1074 8.80151 39.2734 9.35815 39.2734 10.0417C39.2734 10.5691 39.1777 11.0125 38.9863 11.3718C38.7949 11.7312 38.5508 12.0144 38.2539 12.2214C37.9609 12.4246 37.6621 12.5593 37.3574 12.6257C36.9434 12.7078 36.3438 12.7488 35.5586 12.7488H34.4277V15.989H32.6934ZM34.4277 8.85229V11.2898H35.377C36.0605 11.2898 36.5176 11.2449 36.748 11.155C36.9785 11.0652 37.1582 10.9246 37.2871 10.7332C37.4199 10.5417 37.4863 10.3191 37.4863 10.0652C37.4863 9.75269 37.3945 9.49487 37.2109 9.29175C37.0273 9.08862 36.7949 8.96167 36.5137 8.91089C36.3066 8.87183 35.8906 8.85229 35.2656 8.85229H34.4277ZM44.5469 15.989H42.9004V9.78394C42.2988 10.3464 41.5898 10.7625 40.7734 11.032V9.53784C41.2031 9.39722 41.6699 9.13159 42.1738 8.74097C42.6777 8.34644 43.0234 7.88745 43.2109 7.36401H44.5469V15.989ZM47.3242 14.3425H48.9707V15.5203C48.9707 15.9968 48.9297 16.3718 48.8477 16.6453C48.7656 16.9226 48.6094 17.1707 48.3789 17.3894C48.1523 17.6082 47.8633 17.78 47.5117 17.905L47.1895 17.2253C47.5215 17.116 47.7578 16.9656 47.8984 16.7742C48.0391 16.5828 48.1133 16.321 48.1211 15.989H47.3242V14.3425ZM55.9141 14.4597V15.989H50.1426C50.2051 15.4109 50.3926 14.864 50.7051 14.3484C51.0176 13.8289 51.6348 13.1414 52.5566 12.2859C53.2988 11.5945 53.7539 11.1257 53.9219 10.8796C54.1484 10.5398 54.2617 10.2039 54.2617 9.87183C54.2617 9.50464 54.1621 9.22339 53.9629 9.02808C53.7676 8.82886 53.4961 8.72925 53.1484 8.72925C52.8047 8.72925 52.5312 8.83276 52.3281 9.03979C52.125 9.24683 52.0078 9.59058 51.9766 10.071L50.3359 9.90698C50.4336 9.00073 50.7402 8.35034 51.2559 7.95581C51.7715 7.56128 52.416 7.36401 53.1895 7.36401C54.0371 7.36401 54.7031 7.59253 55.1875 8.04956C55.6719 8.50659 55.9141 9.07495 55.9141 9.75464C55.9141 10.1414 55.8438 10.5105 55.7031 10.8621C55.5664 11.2097 55.3477 11.575 55.0469 11.9578C54.8477 12.2117 54.4883 12.5769 53.9688 13.0535C53.4492 13.53 53.1191 13.8464 52.9785 14.0027C52.8418 14.1589 52.7305 14.3113 52.6445 14.4597H55.9141Z" fill="white"/>
<defs>
<linearGradient id="paint0_linear_84_2009" x1="32.5" y1="1.98901" x2="32.5" y2="21.989" gradientUnits="userSpaceOnUse">
<stop stop-color="#318FD9"/>
<stop offset="1" stop-color="#2F14BA"/>
</linearGradient>
</defs>
</svg>
