<svg width="82" height="24" viewBox="0 0 82 24" fill="none" xmlns="http://www.w3.org/2000/svg">
<rect x="1" y="1.98901" width="80" height="20" rx="10" fill="#3C64A5"/>
<rect x="1" y="1.98901" width="80" height="20" rx="10" stroke="#0053CC" stroke-width="3" stroke-linejoin="round"/>
<path d="M9.1543 15.989V7.39917H11.75L13.3086 13.2585L14.8496 7.39917H17.4512V15.989H15.8398V9.22729L14.1348 15.989H12.4648L10.7656 9.22729V15.989H9.1543ZM26.9199 15.989H25.0332L24.2832 14.0378H20.8496L20.1406 15.989H18.3008L21.6465 7.39917H23.4805L26.9199 15.989ZM23.7266 12.5906L22.543 9.40308L21.3828 12.5906H23.7266ZM27.8457 15.989V7.39917H30.6289C31.6836 7.39917 32.3711 7.44214 32.6914 7.52808C33.1836 7.65698 33.5957 7.93823 33.9277 8.37183C34.2598 8.80151 34.4258 9.35815 34.4258 10.0417C34.4258 10.5691 34.3301 11.0125 34.1387 11.3718C33.9473 11.7312 33.7031 12.0144 33.4062 12.2214C33.1133 12.4246 32.8145 12.5593 32.5098 12.6257C32.0957 12.7078 31.4961 12.7488 30.7109 12.7488H29.5801V15.989H27.8457ZM29.5801 8.85229V11.2898H30.5293C31.2129 11.2898 31.6699 11.2449 31.9004 11.155C32.1309 11.0652 32.3105 10.9246 32.4395 10.7332C32.5723 10.5417 32.6387 10.3191 32.6387 10.0652C32.6387 9.75269 32.5469 9.49487 32.3633 9.29175C32.1797 9.08862 31.9473 8.96167 31.666 8.91089C31.459 8.87183 31.043 8.85229 30.418 8.85229H29.5801ZM35.873 15.989V7.39917H37.6074V11.2136L41.1113 7.39917H43.4434L40.209 10.7449L43.6191 15.989H41.375L39.0137 11.9578L37.6074 13.3933V15.989H35.873ZM48.3711 15.989H46.7246V9.78394C46.123 10.3464 45.4141 10.7625 44.5977 11.032V9.53784C45.0273 9.39722 45.4941 9.13159 45.998 8.74097C46.502 8.34644 46.8477 7.88745 47.0352 7.36401H48.3711V15.989ZM54.3828 15.989H52.7363V9.78394C52.1348 10.3464 51.4258 10.7625 50.6094 11.032V9.53784C51.0391 9.39722 51.5059 9.13159 52.0098 8.74097C52.5137 8.34644 52.8594 7.88745 53.0469 7.36401H54.3828V15.989ZM57.0137 13.698V12.0515H60.248V13.698H57.0137ZM65.0586 15.989H63.4121V9.78394C62.8105 10.3464 62.1016 10.7625 61.2852 11.032V9.53784C61.7148 9.39722 62.1816 9.13159 62.6855 8.74097C63.1895 8.34644 63.5352 7.88745 63.7227 7.36401H65.0586V15.989ZM70.7539 15.989V14.2605H67.2383V12.8191L70.9648 7.36401H72.3477V12.8132H73.4141V14.2605H72.3477V15.989H70.7539ZM70.7539 12.8132V9.87769L68.7793 12.8132H70.7539Z" fill="white"/>
</svg>
