<svg width="40" height="24" viewBox="0 0 40 24" fill="none" xmlns="http://www.w3.org/2000/svg">
<rect x="2" y="1.98901" width="37" height="20" rx="10" fill="url(#paint0_linear_84_2061)"/>
<rect x="2" y="1.98901" width="37" height="20" rx="10" stroke="#603780" stroke-width="3" stroke-linejoin="round"/>
<path d="M11.9688 15.989V8.85229H9.41992V7.39917H16.2461V8.85229H13.7031V15.989H11.9688ZM19.3047 15.989V8.85229H16.7559V7.39917H23.582V8.85229H21.0391V15.989H19.3047ZM24.707 15.989V7.39917H27.4902C28.5449 7.39917 29.2324 7.44214 29.5527 7.52808C30.0449 7.65698 30.457 7.93823 30.7891 8.37183C31.1211 8.80151 31.2871 9.35815 31.2871 10.0417C31.2871 10.5691 31.1914 11.0125 31 11.3718C30.8086 11.7312 30.5645 12.0144 30.2676 12.2214C29.9746 12.4246 29.6758 12.5593 29.3711 12.6257C28.957 12.7078 28.3574 12.7488 27.5723 12.7488H26.4414V15.989H24.707ZM26.4414 8.85229V11.2898H27.3906C28.0742 11.2898 28.5312 11.2449 28.7617 11.155C28.9922 11.0652 29.1719 10.9246 29.3008 10.7332C29.4336 10.5417 29.5 10.3191 29.5 10.0652C29.5 9.75269 29.4082 9.49487 29.2246 9.29175C29.041 9.08862 28.8086 8.96167 28.5273 8.91089C28.3203 8.87183 27.9043 8.85229 27.2793 8.85229H26.4414Z" fill="white"/>
<defs>
<linearGradient id="paint0_linear_84_2061" x1="20.5" y1="1.98901" x2="20.5" y2="21.989" gradientUnits="userSpaceOnUse">
<stop stop-color="#603780"/>
<stop offset="1" stop-color="#EE6C23"/>
</linearGradient>
</defs>
</svg>
