<svg width="58" height="24" viewBox="0 0 58 24" fill="none" xmlns="http://www.w3.org/2000/svg">
<rect x="2" y="1.98901" width="55" height="20" rx="10" fill="url(#paint0_linear_67_1818)"/>
<rect x="2" y="1.98901" width="55" height="20" rx="10" stroke="#AB3C8C" stroke-width="3" stroke-linejoin="round"/>
<path d="M10.0293 15.989V7.39917H12.8125C13.8672 7.39917 14.5547 7.44214 14.875 7.52808C15.3672 7.65698 15.7793 7.93823 16.1113 8.37183C16.4434 8.80151 16.6094 9.35815 16.6094 10.0417C16.6094 10.5691 16.5137 11.0125 16.3223 11.3718C16.1309 11.7312 15.8867 12.0144 15.5898 12.2214C15.2969 12.4246 14.998 12.5593 14.6934 12.6257C14.2793 12.7078 13.6797 12.7488 12.8945 12.7488H11.7637V15.989H10.0293ZM11.7637 8.85229V11.2898H12.7129C13.3965 11.2898 13.8535 11.2449 14.084 11.155C14.3145 11.0652 14.4941 10.9246 14.623 10.7332C14.7559 10.5417 14.8223 10.3191 14.8223 10.0652C14.8223 9.75269 14.7305 9.49487 14.5469 9.29175C14.3633 9.08862 14.1309 8.96167 13.8496 8.91089C13.6426 8.87183 13.2266 8.85229 12.6016 8.85229H11.7637ZM18.0391 15.989V7.39917H21.6895C22.6074 7.39917 23.2734 7.47729 23.6875 7.63354C24.1055 7.78589 24.4395 8.05933 24.6895 8.45386C24.9395 8.84839 25.0645 9.29956 25.0645 9.80737C25.0645 10.4519 24.875 10.9851 24.4961 11.407C24.1172 11.825 23.5508 12.0886 22.7969 12.198C23.1719 12.4167 23.4805 12.657 23.7227 12.9187C23.9688 13.1804 24.2988 13.6453 24.7129 14.3132L25.7617 15.989H23.6875L22.4336 14.1199C21.9883 13.4519 21.6836 13.032 21.5195 12.8601C21.3555 12.6843 21.1816 12.5652 20.998 12.5027C20.8145 12.4363 20.5234 12.4031 20.125 12.4031H19.7734V15.989H18.0391ZM19.7734 11.032H21.0566C21.8887 11.032 22.4082 10.9968 22.6152 10.9265C22.8223 10.8562 22.9844 10.7351 23.1016 10.5632C23.2188 10.3914 23.2773 10.1765 23.2773 9.9187C23.2773 9.62964 23.1992 9.39722 23.043 9.22144C22.8906 9.04175 22.6738 8.92847 22.3926 8.88159C22.252 8.86206 21.8301 8.85229 21.127 8.85229H19.7734V11.032ZM26.6816 15.989V7.39917H29.2773L30.8359 13.2585L32.377 7.39917H34.9785V15.989H33.3672V9.22729L31.6621 15.989H29.9922L28.293 9.22729V15.989H26.6816ZM38.6348 15.989V8.85229H36.0859V7.39917H42.9121V8.85229H40.3691V15.989H38.6348ZM43.6152 13.7097L45.209 13.5164C45.2598 13.9226 45.3965 14.2332 45.6191 14.448C45.8418 14.6628 46.1113 14.7703 46.4277 14.7703C46.7676 14.7703 47.0527 14.6414 47.2832 14.3835C47.5176 14.1257 47.6348 13.7781 47.6348 13.3406C47.6348 12.9265 47.5234 12.5984 47.3008 12.3562C47.0781 12.114 46.8066 11.9929 46.4863 11.9929C46.2754 11.9929 46.0234 12.0339 45.7305 12.116L45.9121 10.7742C46.3574 10.7859 46.6973 10.6902 46.9316 10.4871C47.166 10.28 47.2832 10.0066 47.2832 9.66675C47.2832 9.37769 47.1973 9.14722 47.0254 8.97534C46.8535 8.80347 46.625 8.71753 46.3398 8.71753C46.0586 8.71753 45.8184 8.81519 45.6191 9.0105C45.4199 9.20581 45.2988 9.49097 45.2559 9.86597L43.7383 9.60815C43.8438 9.08862 44.002 8.67456 44.2129 8.36597C44.4277 8.05347 44.7246 7.80933 45.1035 7.63354C45.4863 7.45386 45.9141 7.36401 46.3867 7.36401C47.1953 7.36401 47.8438 7.62183 48.332 8.13745C48.7344 8.55933 48.9355 9.03589 48.9355 9.56714C48.9355 10.321 48.5234 10.9226 47.6992 11.3718C48.1914 11.4773 48.584 11.7136 48.877 12.0808C49.1738 12.448 49.3223 12.8914 49.3223 13.4109C49.3223 14.1648 49.0469 14.8074 48.4961 15.3386C47.9453 15.8699 47.2598 16.1355 46.4395 16.1355C45.6621 16.1355 45.0176 15.9128 44.5059 15.4675C43.9941 15.0183 43.6973 14.4324 43.6152 13.7097Z" fill="white"/>
<defs>
<linearGradient id="paint0_linear_67_1818" x1="29.5" y1="1.98901" x2="29.5" y2="21.989" gradientUnits="userSpaceOnUse">
<stop stop-color="#AB3C8C"/>
<stop offset="1" stop-color="#E3C326"/>
</linearGradient>
</defs>
</svg>
