<svg width="64" height="51" viewBox="0 0 64 51" fill="none" xmlns="http://www.w3.org/2000/svg">
<path d="M62.3515 4.0957C59.4872 4.0957 59.3818 7.8047 59.3788 8.228V42.0503C59.3788 44.8618 57.9169 50.1802 52.3837 50.1802C46.8505 50.1802 45.3886 44.8618 45.3886 42.0503L45.3896 8.2261C45.3857 7.812 45.2656 4.0957 42.3959 4.0957C39.5277 4.0957 39.4091 7.811 39.4052 8.2344V42.0503C39.4028 44.8638 37.9364 50.1802 32.4052 50.1802C26.8725 50.1802 25.4106 44.8618 25.4106 42.0503V8.2256C25.4062 7.8115 25.2866 4.0957 22.416 4.0957C21.5889 4.0957 20.5556 4.3022 19.8999 5.9145C19.4443 7.0336 19.4243 8.2133 19.4243 8.2246V42.0503C19.4243 44.8618 17.9619 50.1802 12.4267 50.1802C9.54545 50.1802 7.33495 48.649 6.20265 45.8697C5.45265 44.0269 5.43165 42.2467 5.43165 42.0494L5.43215 8.2256C5.42775 7.8115 5.30765 4.0957 2.43555 4.0957C1.33105 4.0957 0.435547 3.2002 0.435547 2.0957C0.435547 0.991203 1.33105 0.0957031 2.43555 0.0957031C7.96925 0.0957031 9.43215 5.4136 9.43215 8.2256L9.43165 42.0503C9.43555 42.4653 9.55425 46.1802 12.4267 46.1802C15.3002 46.1802 15.4199 42.4644 15.4243 42.0406V8.2256C15.4243 8.0298 15.4448 6.249 16.1948 4.4068C17.3261 1.6269 19.5351 0.0957031 22.416 0.0957031C27.9487 0.0957031 29.4106 5.4136 29.4106 8.2256V42.0503C29.415 42.4644 29.5346 46.1802 32.4052 46.1802C35.3676 46.1802 35.4052 42.2173 35.4052 42.0484V8.2256C35.4052 8.0293 35.4262 6.249 36.1757 4.4068C37.3071 1.6269 39.5161 0.0957031 42.3959 0.0957031C47.9276 0.0957031 49.3896 5.4141 49.3896 8.2261L49.3886 42.0503C49.3925 42.4644 49.5126 46.1802 52.3837 46.1802C55.3446 46.1802 55.3788 42.2193 55.3788 42.0503V8.2256C55.3768 7.8311 55.4306 4.2412 57.7362 1.9277C58.9296 0.729003 60.5263 0.0957031 62.3515 0.0957031V4.0957Z" fill="#6B2222"/>
<path d="M2.08936 1.60474C7.08556 1.60474 7.08576 7.73464 7.08576 7.73464L7.08556 41.5591C7.08556 41.5591 7.08266 47.689 12.0805 47.689C17.0783 47.689 17.0783 41.5591 17.0783 41.5591V7.73464C17.0783 7.73464 17.075 1.60474 22.0698 1.60474C27.0646 1.60474 27.0644 7.73464 27.0644 7.73464V41.5591C27.0644 41.5591 27.0643 47.689 32.059 47.689C37.0537 47.689 37.059 41.5591 37.059 41.5591V7.73464C37.059 7.73464 37.0569 1.60474 42.0499 1.60474C47.0429 1.60474 47.043 7.73524 47.043 7.73524L47.0429 41.5591C47.0429 41.5591 47.0428 47.689 52.0375 47.689C57.0322 47.689 57.0322 41.5591 57.0322 41.5591V7.73464C57.0322 7.73464 57.0103 1.60474 62.0051 1.60474" stroke="#D93636" stroke-miterlimit="1" stroke-linecap="round"/>
<path d="M63.9761 2.0685C63.9761 3.158 63.4217 4.0957 62.3515 4.0957C61.2813 4.0957 60.7269 3.158 60.7269 2.0685C60.7269 0.979003 61.3825 0.0957031 62.3515 0.0957031C63.3205 0.0957031 63.9761 0.978903 63.9761 2.0685Z" fill="url(#paint0_linear_90_4496)"/>
<defs>
<linearGradient id="paint0_linear_90_4496" x1="63.7851" y1="1.1383" x2="60.9315" y2="3.0614" gradientUnits="userSpaceOnUse">
<stop stop-color="#D93636"/>
<stop offset="0.9975" stop-color="#6B2222"/>
</linearGradient>
</defs>
</svg>
