<svg width="49" height="24" viewBox="0 0 49 24" fill="none" xmlns="http://www.w3.org/2000/svg">
<rect x="2" y="1.98901" width="46" height="20" rx="10" fill="url(#paint0_linear_38_1892)"/>
<rect x="2" y="1.98901" width="46" height="20" rx="10" stroke="#006D73" stroke-width="3" stroke-linejoin="round"/>
<path d="M15.6895 12.8308L17.3711 13.364C17.1133 14.3015 16.6836 14.9988 16.082 15.4558C15.4844 15.9089 14.7246 16.1355 13.8027 16.1355C12.6621 16.1355 11.7246 15.7468 10.9902 14.9695C10.2559 14.1882 9.88867 13.1218 9.88867 11.7703C9.88867 10.3406 10.2578 9.2312 10.9961 8.44214C11.7344 7.64917 12.7051 7.25269 13.9082 7.25269C14.959 7.25269 15.8125 7.56323 16.4688 8.18433C16.8594 8.55151 17.1523 9.07886 17.3477 9.76636L15.6309 10.1765C15.5293 9.7312 15.3164 9.37964 14.9922 9.12183C14.6719 8.86401 14.2812 8.73511 13.8203 8.73511C13.1836 8.73511 12.666 8.96362 12.2676 9.42065C11.873 9.87769 11.6758 10.6179 11.6758 11.6414C11.6758 12.7273 11.8711 13.5007 12.2617 13.9617C12.6523 14.4226 13.1602 14.6531 13.7852 14.6531C14.2461 14.6531 14.6426 14.5066 14.9746 14.2136C15.3066 13.9207 15.5449 13.4597 15.6895 12.8308ZM18.8594 7.39917H22.0293C22.7441 7.39917 23.2891 7.45386 23.6641 7.56323C24.168 7.71167 24.5996 7.97534 24.959 8.35425C25.3184 8.73315 25.5918 9.198 25.7793 9.74878C25.9668 10.2957 26.0605 10.9714 26.0605 11.7761C26.0605 12.4832 25.9727 13.0925 25.7969 13.6042C25.582 14.2292 25.2754 14.7351 24.877 15.1218C24.5762 15.4148 24.1699 15.6433 23.6582 15.8074C23.2754 15.9285 22.7637 15.989 22.123 15.989H18.8594V7.39917ZM20.5938 8.85229V14.5417H21.8887C22.373 14.5417 22.7227 14.5144 22.9375 14.4597C23.2188 14.3894 23.4512 14.2703 23.6348 14.1023C23.8223 13.9343 23.9746 13.6589 24.0918 13.2761C24.209 12.8894 24.2676 12.364 24.2676 11.7C24.2676 11.0359 24.209 10.5261 24.0918 10.1707C23.9746 9.81519 23.8105 9.53784 23.5996 9.33862C23.3887 9.1394 23.1211 9.00464 22.7969 8.93433C22.5547 8.87964 22.0801 8.85229 21.373 8.85229H20.5938ZM29.4707 15.989V8.85229H26.9219V7.39917H33.748V8.85229H31.2051V15.989H29.4707ZM38.7227 15.989H37.0762V9.78394C36.4746 10.3464 35.7656 10.7625 34.9492 11.032V9.53784C35.3789 9.39722 35.8457 9.13159 36.3496 8.74097C36.8535 8.34644 37.1992 7.88745 37.3867 7.36401H38.7227V15.989Z" fill="white"/>
<defs>
<linearGradient id="paint0_linear_38_1892" x1="25" y1="1.98901" x2="25" y2="21.989" gradientUnits="userSpaceOnUse">
<stop stop-color="#00BFC9"/>
<stop offset="1" stop-color="#006D73"/>
</linearGradient>
</defs>
</svg>
