<svg width="51" height="24" viewBox="0 0 51 24" fill="none" xmlns="http://www.w3.org/2000/svg">
<rect x="2" y="1.98901" width="48" height="20" rx="10" fill="url(#paint0_linear_64_1977)"/>
<rect x="2" y="1.98901" width="48" height="20" rx="10" stroke="url(#paint1_linear_64_1977)" stroke-width="3" stroke-linejoin="round"/>
<path d="M10.1973 15.989V7.39917H12.9805C14.0352 7.39917 14.7227 7.44214 15.043 7.52808C15.5352 7.65698 15.9473 7.93823 16.2793 8.37183C16.6113 8.80151 16.7773 9.35815 16.7773 10.0417C16.7773 10.5691 16.6816 11.0125 16.4902 11.3718C16.2988 11.7312 16.0547 12.0144 15.7578 12.2214C15.4648 12.4246 15.166 12.5593 14.8613 12.6257C14.4473 12.7078 13.8477 12.7488 13.0625 12.7488H11.9316V15.989H10.1973ZM11.9316 8.85229V11.2898H12.8809C13.5645 11.2898 14.0215 11.2449 14.252 11.155C14.4824 11.0652 14.6621 10.9246 14.791 10.7332C14.9238 10.5417 14.9902 10.3191 14.9902 10.0652C14.9902 9.75269 14.8984 9.49487 14.7148 9.29175C14.5312 9.08862 14.2988 8.96167 14.0176 8.91089C13.8105 8.87183 13.3945 8.85229 12.7695 8.85229H11.9316ZM17.8496 11.7468C17.8496 10.8718 17.9805 10.1375 18.2422 9.5437C18.4375 9.1062 18.7031 8.71362 19.0391 8.36597C19.3789 8.01831 19.75 7.7605 20.1523 7.59253C20.6875 7.36597 21.3047 7.25269 22.0039 7.25269C23.2695 7.25269 24.2812 7.64526 25.0391 8.43042C25.8008 9.21558 26.1816 10.3074 26.1816 11.7058C26.1816 13.0925 25.8047 14.1785 25.0508 14.9636C24.2969 15.7449 23.2891 16.1355 22.0273 16.1355C20.75 16.1355 19.7344 15.7468 18.9805 14.9695C18.2266 14.1882 17.8496 13.114 17.8496 11.7468ZM19.6367 11.6882C19.6367 12.6609 19.8613 13.3992 20.3105 13.9031C20.7598 14.4031 21.3301 14.6531 22.0215 14.6531C22.7129 14.6531 23.2793 14.405 23.7207 13.9089C24.166 13.4089 24.3887 12.6609 24.3887 11.6648C24.3887 10.6804 24.1719 9.94604 23.7383 9.46167C23.3086 8.97729 22.7363 8.73511 22.0215 8.73511C21.3066 8.73511 20.7305 8.9812 20.293 9.47339C19.8555 9.96167 19.6367 10.7 19.6367 11.6882ZM27.5879 15.989V7.46948H29.3223V14.5417H33.6348V15.989H27.5879ZM42.623 15.989H40.7363L39.9863 14.0378H36.5527L35.8438 15.989H34.0039L37.3496 7.39917H39.1836L42.623 15.989ZM39.4297 12.5906L38.2461 9.40308L37.0859 12.5906H39.4297Z" fill="white"/>
<defs>
<linearGradient id="paint0_linear_64_1977" x1="26" y1="1.98901" x2="26" y2="21.989" gradientUnits="userSpaceOnUse">
<stop stop-color="#5CBAE6"/>
<stop offset="1" stop-color="#240417"/>
</linearGradient>
<linearGradient id="paint1_linear_64_1977" x1="26" y1="1.98901" x2="26" y2="21.989" gradientUnits="userSpaceOnUse">
<stop stop-color="#A2317B"/>
<stop offset="1" stop-color="#B78520"/>
</linearGradient>
</defs>
</svg>
