<svg width="53" height="39" viewBox="0 0 53 39" fill="none" xmlns="http://www.w3.org/2000/svg">
<path d="M31.5265 29.7364C31.5265 34.6315 24.5421 38.5997 15.9264 38.5997C7.31072 38.5997 0.326416 34.6314 0.326416 29.7364C0.326416 24.8413 7.31082 0.871826 15.9265 0.871826C24.5421 0.871826 31.5265 24.8413 31.5265 29.7364Z" fill="url(#paint0_radial_86_3172)"/>
<path d="M52.5279 29.7364C52.5279 34.6315 45.5435 38.5997 36.9278 38.5997C28.3121 38.5997 21.3277 34.6315 21.3277 29.7364C21.3277 24.8413 28.3121 0.871826 36.9278 0.871826C45.5435 0.871826 52.5279 24.8413 52.5279 29.7364Z" fill="url(#paint1_radial_86_3172)"/>
<defs>
<radialGradient id="paint0_radial_86_3172" cx="0" cy="0" r="1" gradientUnits="userSpaceOnUse" gradientTransform="translate(15.7397 16.1018) scale(14.639 25.567)">
<stop stop-color="#BFA5FF"/>
<stop offset="0.041" stop-color="#B398F6"/>
<stop offset="0.1843" stop-color="#8E6EDB"/>
<stop offset="0.331" stop-color="#6F4CC4"/>
<stop offset="0.4794" stop-color="#5731B2"/>
<stop offset="0.6303" stop-color="#461EA6"/>
<stop offset="0.7851" stop-color="#3B139E"/>
<stop offset="0.95" stop-color="#380F9C"/>
</radialGradient>
<radialGradient id="paint1_radial_86_3172" cx="0" cy="0" r="1" gradientUnits="userSpaceOnUse" gradientTransform="translate(36.741 16.1018) scale(14.639 25.567)">
<stop stop-color="#BFA5FF"/>
<stop offset="0.041" stop-color="#B398F6"/>
<stop offset="0.1843" stop-color="#8E6EDB"/>
<stop offset="0.331" stop-color="#6F4CC4"/>
<stop offset="0.4794" stop-color="#5731B2"/>
<stop offset="0.6303" stop-color="#461EA6"/>
<stop offset="0.7851" stop-color="#3B139E"/>
<stop offset="0.95" stop-color="#380F9C"/>
</radialGradient>
</defs>
</svg>
