<svg width="59" height="24" viewBox="0 0 59 24" fill="none" xmlns="http://www.w3.org/2000/svg">
<rect x="2" y="1.98901" width="56" height="20" rx="10" fill="url(#paint0_linear_65_1992)"/>
<rect x="2" y="1.98901" width="56" height="20" rx="10" stroke="#82A54F" stroke-width="3" stroke-linejoin="round"/>
<path d="M10.1953 15.989V7.39917H12.9785C14.0332 7.39917 14.7207 7.44214 15.041 7.52808C15.5332 7.65698 15.9453 7.93823 16.2773 8.37183C16.6094 8.80151 16.7754 9.35815 16.7754 10.0417C16.7754 10.5691 16.6797 11.0125 16.4883 11.3718C16.2969 11.7312 16.0527 12.0144 15.7559 12.2214C15.4629 12.4246 15.1641 12.5593 14.8594 12.6257C14.4453 12.7078 13.8457 12.7488 13.0605 12.7488H11.9297V15.989H10.1953ZM11.9297 8.85229V11.2898H12.8789C13.5625 11.2898 14.0195 11.2449 14.25 11.155C14.4805 11.0652 14.6602 10.9246 14.7891 10.7332C14.9219 10.5417 14.9883 10.3191 14.9883 10.0652C14.9883 9.75269 14.8965 9.49487 14.7129 9.29175C14.5293 9.08862 14.2969 8.96167 14.0156 8.91089C13.8086 8.87183 13.3926 8.85229 12.7676 8.85229H11.9297ZM18.2461 15.989V7.46948H19.9805V14.5417H24.293V15.989H18.2461ZM33.2812 15.989H31.3945L30.6445 14.0378H27.2109L26.502 15.989H24.6621L28.0078 7.39917H29.8418L33.2812 15.989ZM30.0879 12.5906L28.9043 9.40308L27.7441 12.5906H30.0879ZM34.1953 7.39917H35.9297V12.0515C35.9297 12.7898 35.9512 13.2683 35.9941 13.4871C36.0684 13.8386 36.2441 14.1218 36.5215 14.3367C36.8027 14.5476 37.1855 14.6531 37.6699 14.6531C38.1621 14.6531 38.5332 14.5535 38.7832 14.3542C39.0332 14.1511 39.1836 13.9031 39.2344 13.6101C39.2852 13.3171 39.3105 12.8308 39.3105 12.1511V7.39917H41.0449V11.9109C41.0449 12.9421 40.998 13.6707 40.9043 14.0964C40.8105 14.5222 40.6367 14.8816 40.3828 15.1746C40.1328 15.4675 39.7969 15.7019 39.375 15.8777C38.9531 16.0496 38.4023 16.1355 37.7227 16.1355C36.9023 16.1355 36.2793 16.0417 35.8535 15.8542C35.4316 15.6628 35.0977 15.4167 34.8516 15.116C34.6055 14.8113 34.4434 14.4929 34.3652 14.1609C34.252 13.6687 34.1953 12.9421 34.1953 11.9812V7.39917ZM42.8848 15.989V7.39917H46.5352C47.4531 7.39917 48.1191 7.47729 48.5332 7.63354C48.9512 7.78589 49.2852 8.05933 49.5352 8.45386C49.7852 8.84839 49.9102 9.29956 49.9102 9.80737C49.9102 10.4519 49.7207 10.9851 49.3418 11.407C48.9629 11.825 48.3965 12.0886 47.6426 12.198C48.0176 12.4167 48.3262 12.657 48.5684 12.9187C48.8145 13.1804 49.1445 13.6453 49.5586 14.3132L50.6074 15.989H48.5332L47.2793 14.1199C46.834 13.4519 46.5293 13.032 46.3652 12.8601C46.2012 12.6843 46.0273 12.5652 45.8438 12.5027C45.6602 12.4363 45.3691 12.4031 44.9707 12.4031H44.6191V15.989H42.8848ZM44.6191 11.032H45.9023C46.7344 11.032 47.2539 10.9968 47.4609 10.9265C47.668 10.8562 47.8301 10.7351 47.9473 10.5632C48.0645 10.3914 48.123 10.1765 48.123 9.9187C48.123 9.62964 48.0449 9.39722 47.8887 9.22144C47.7363 9.04175 47.5195 8.92847 47.2383 8.88159C47.0977 8.86206 46.6758 8.85229 45.9727 8.85229H44.6191V11.032Z" fill="white"/>
<defs>
<linearGradient id="paint0_linear_65_1992" x1="30" y1="1.98901" x2="30" y2="21.989" gradientUnits="userSpaceOnUse">
<stop stop-color="#82A54F"/>
<stop offset="1" stop-color="#C33857"/>
</linearGradient>
</defs>
</svg>
