<svg width="121" height="24" viewBox="0 0 121 24" fill="none" xmlns="http://www.w3.org/2000/svg">
<rect x="1" y="1.98901" width="119" height="20" rx="10" fill="#DBA628"/>
<rect x="1" y="1.98901" width="119" height="20" rx="10" stroke="#DE4E10" stroke-width="3" stroke-linejoin="round"/>
<path d="M9.00781 15.989V7.39917H11.791C12.8457 7.39917 13.5332 7.44214 13.8535 7.52808C14.3457 7.65698 14.7578 7.93823 15.0898 8.37183C15.4219 8.80151 15.5879 9.35815 15.5879 10.0417C15.5879 10.5691 15.4922 11.0125 15.3008 11.3718C15.1094 11.7312 14.8652 12.0144 14.5684 12.2214C14.2754 12.4246 13.9766 12.5593 13.6719 12.6257C13.2578 12.7078 12.6582 12.7488 11.873 12.7488H10.7422V15.989H9.00781ZM10.7422 8.85229V11.2898H11.6914C12.375 11.2898 12.832 11.2449 13.0625 11.155C13.293 11.0652 13.4727 10.9246 13.6016 10.7332C13.7344 10.5417 13.8008 10.3191 13.8008 10.0652C13.8008 9.75269 13.709 9.49487 13.5254 9.29175C13.3418 9.08862 13.1094 8.96167 12.8281 8.91089C12.6211 8.87183 12.2051 8.85229 11.5801 8.85229H10.7422ZM17.0176 15.989V7.39917H20.668C21.5859 7.39917 22.252 7.47729 22.666 7.63354C23.084 7.78589 23.418 8.05933 23.668 8.45386C23.918 8.84839 24.043 9.29956 24.043 9.80737C24.043 10.4519 23.8535 10.9851 23.4746 11.407C23.0957 11.825 22.5293 12.0886 21.7754 12.198C22.1504 12.4167 22.459 12.657 22.7012 12.9187C22.9473 13.1804 23.2773 13.6453 23.6914 14.3132L24.7402 15.989H22.666L21.4121 14.1199C20.9668 13.4519 20.6621 13.032 20.498 12.8601C20.334 12.6843 20.1602 12.5652 19.9766 12.5027C19.793 12.4363 19.502 12.4031 19.1035 12.4031H18.752V15.989H17.0176ZM18.752 11.032H20.0352C20.8672 11.032 21.3867 10.9968 21.5938 10.9265C21.8008 10.8562 21.9629 10.7351 22.0801 10.5632C22.1973 10.3914 22.2559 10.1765 22.2559 9.9187C22.2559 9.62964 22.1777 9.39722 22.0215 9.22144C21.8691 9.04175 21.6523 8.92847 21.3711 8.88159C21.2305 8.86206 20.8086 8.85229 20.1055 8.85229H18.752V11.032ZM25.6836 15.989V7.39917H32.0527V8.85229H27.418V10.7566H31.7305V12.2039H27.418V14.5417H32.2168V15.989H25.6836ZM33.6875 15.989V7.39917H36.4707C37.5254 7.39917 38.2129 7.44214 38.5332 7.52808C39.0254 7.65698 39.4375 7.93823 39.7695 8.37183C40.1016 8.80151 40.2676 9.35815 40.2676 10.0417C40.2676 10.5691 40.1719 11.0125 39.9805 11.3718C39.7891 11.7312 39.5449 12.0144 39.248 12.2214C38.9551 12.4246 38.6562 12.5593 38.3516 12.6257C37.9375 12.7078 37.3379 12.7488 36.5527 12.7488H35.4219V15.989H33.6875ZM35.4219 8.85229V11.2898H36.3711C37.0547 11.2898 37.5117 11.2449 37.7422 11.155C37.9727 11.0652 38.1523 10.9246 38.2812 10.7332C38.4141 10.5417 38.4805 10.3191 38.4805 10.0652C38.4805 9.75269 38.3887 9.49487 38.2051 9.29175C38.0215 9.08862 37.7891 8.96167 37.5078 8.91089C37.3008 8.87183 36.8848 8.85229 36.2598 8.85229H35.4219ZM41.6973 15.989V7.39917H45.3477C46.2656 7.39917 46.9316 7.47729 47.3457 7.63354C47.7637 7.78589 48.0977 8.05933 48.3477 8.45386C48.5977 8.84839 48.7227 9.29956 48.7227 9.80737C48.7227 10.4519 48.5332 10.9851 48.1543 11.407C47.7754 11.825 47.209 12.0886 46.4551 12.198C46.8301 12.4167 47.1387 12.657 47.3809 12.9187C47.627 13.1804 47.957 13.6453 48.3711 14.3132L49.4199 15.989H47.3457L46.0918 14.1199C45.6465 13.4519 45.3418 13.032 45.1777 12.8601C45.0137 12.6843 44.8398 12.5652 44.6562 12.5027C44.4727 12.4363 44.1816 12.4031 43.7832 12.4031H43.4316V15.989H41.6973ZM43.4316 11.032H44.7148C45.5469 11.032 46.0664 10.9968 46.2734 10.9265C46.4805 10.8562 46.6426 10.7351 46.7598 10.5632C46.877 10.3914 46.9355 10.1765 46.9355 9.9187C46.9355 9.62964 46.8574 9.39722 46.7012 9.22144C46.5488 9.04175 46.332 8.92847 46.0508 8.88159C45.9102 8.86206 45.4883 8.85229 44.7852 8.85229H43.4316V11.032ZM50.0117 11.7468C50.0117 10.8718 50.1426 10.1375 50.4043 9.5437C50.5996 9.1062 50.8652 8.71362 51.2012 8.36597C51.541 8.01831 51.9121 7.7605 52.3145 7.59253C52.8496 7.36597 53.4668 7.25269 54.166 7.25269C55.4316 7.25269 56.4434 7.64526 57.2012 8.43042C57.9629 9.21558 58.3438 10.3074 58.3438 11.7058C58.3438 13.0925 57.9668 14.1785 57.2129 14.9636C56.459 15.7449 55.4512 16.1355 54.1895 16.1355C52.9121 16.1355 51.8965 15.7468 51.1426 14.9695C50.3887 14.1882 50.0117 13.114 50.0117 11.7468ZM51.7988 11.6882C51.7988 12.6609 52.0234 13.3992 52.4727 13.9031C52.9219 14.4031 53.4922 14.6531 54.1836 14.6531C54.875 14.6531 55.4414 14.405 55.8828 13.9089C56.3281 13.4089 56.5508 12.6609 56.5508 11.6648C56.5508 10.6804 56.334 9.94604 55.9004 9.46167C55.4707 8.97729 54.8984 8.73511 54.1836 8.73511C53.4688 8.73511 52.8926 8.9812 52.4551 9.47339C52.0176 9.96167 51.7988 10.7 51.7988 11.6882ZM63.6992 12.8308V11.3835H67.4375V14.8054C67.0742 15.157 66.5469 15.4675 65.8555 15.7371C65.168 16.0027 64.4707 16.1355 63.7637 16.1355C62.8652 16.1355 62.082 15.948 61.4141 15.573C60.7461 15.1941 60.2441 14.655 59.9082 13.9558C59.5723 13.2527 59.4043 12.489 59.4043 11.6648C59.4043 10.7703 59.5918 9.97534 59.9668 9.28003C60.3418 8.58472 60.8906 8.05151 61.6133 7.68042C62.1641 7.39526 62.8496 7.25269 63.6699 7.25269C64.7363 7.25269 65.5684 7.47729 66.166 7.92651C66.7676 8.37183 67.1543 8.98901 67.3262 9.77808L65.6035 10.1003C65.4824 9.67847 65.2539 9.34644 64.918 9.10425C64.5859 8.85815 64.1699 8.73511 63.6699 8.73511C62.9121 8.73511 62.3086 8.97534 61.8594 9.45581C61.4141 9.93628 61.1914 10.6492 61.1914 11.5945C61.1914 12.614 61.418 13.3796 61.8711 13.8914C62.3242 14.3992 62.918 14.6531 63.6523 14.6531C64.0156 14.6531 64.3789 14.5828 64.7422 14.4421C65.1094 14.2976 65.4238 14.1238 65.6855 13.9207V12.8308H63.6992ZM69.0488 15.989V7.39917H70.7832V10.78H74.1816V7.39917H75.916V15.989H74.1816V12.2332H70.7832V15.989H69.0488ZM77.7207 15.989V7.39917H81.3711C82.2891 7.39917 82.9551 7.47729 83.3691 7.63354C83.7871 7.78589 84.1211 8.05933 84.3711 8.45386C84.6211 8.84839 84.7461 9.29956 84.7461 9.80737C84.7461 10.4519 84.5566 10.9851 84.1777 11.407C83.7988 11.825 83.2324 12.0886 82.4785 12.198C82.8535 12.4167 83.1621 12.657 83.4043 12.9187C83.6504 13.1804 83.9805 13.6453 84.3945 14.3132L85.4434 15.989H83.3691L82.1152 14.1199C81.6699 13.4519 81.3652 13.032 81.2012 12.8601C81.0371 12.6843 80.8633 12.5652 80.6797 12.5027C80.4961 12.4363 80.2051 12.4031 79.8066 12.4031H79.4551V15.989H77.7207ZM79.4551 11.032H80.7383C81.5703 11.032 82.0898 10.9968 82.2969 10.9265C82.5039 10.8562 82.666 10.7351 82.7832 10.5632C82.9004 10.3914 82.959 10.1765 82.959 9.9187C82.959 9.62964 82.8809 9.39722 82.7246 9.22144C82.5723 9.04175 82.3555 8.92847 82.0742 8.88159C81.9336 8.86206 81.5117 8.85229 80.8086 8.85229H79.4551V11.032ZM86.3867 15.989V7.39917H92.7559V8.85229H88.1211V10.7566H92.4336V12.2039H88.1211V14.5417H92.9199V15.989H86.3867ZM94.4375 15.989V7.46948H96.1719V14.5417H100.484V15.989H94.4375ZM101.674 15.989V7.39917H103.408V15.989H101.674ZM105.084 15.989V7.39917H106.771L110.287 13.1355V7.39917H111.898V15.989H110.158L106.695 10.3875V15.989H105.084Z" fill="white"/>
</svg>
