<svg width="60" height="24" viewBox="0 0 60 24" fill="none" xmlns="http://www.w3.org/2000/svg">
<rect x="2" y="1.98901" width="57" height="20" rx="10" fill="url(#paint0_linear_40_2548)"/>
<rect x="2" y="1.98901" width="57" height="20" rx="10" stroke="#4B3FB0" stroke-width="3" stroke-linejoin="round"/>
<path d="M10.0215 7.39917H13.1914C13.9062 7.39917 14.4512 7.45386 14.8262 7.56323C15.3301 7.71167 15.7617 7.97534 16.1211 8.35425C16.4805 8.73315 16.7539 9.198 16.9414 9.74878C17.1289 10.2957 17.2227 10.9714 17.2227 11.7761C17.2227 12.4832 17.1348 13.0925 16.959 13.6042C16.7441 14.2292 16.4375 14.7351 16.0391 15.1218C15.7383 15.4148 15.332 15.6433 14.8203 15.8074C14.4375 15.9285 13.9258 15.989 13.2852 15.989H10.0215V7.39917ZM11.7559 8.85229V14.5417H13.0508C13.5352 14.5417 13.8848 14.5144 14.0996 14.4597C14.3809 14.3894 14.6133 14.2703 14.7969 14.1023C14.9844 13.9343 15.1367 13.6589 15.2539 13.2761C15.3711 12.8894 15.4297 12.364 15.4297 11.7C15.4297 11.0359 15.3711 10.5261 15.2539 10.1707C15.1367 9.81519 14.9727 9.53784 14.7617 9.33862C14.5508 9.1394 14.2832 9.00464 13.959 8.93433C13.7168 8.87964 13.2422 8.85229 12.5352 8.85229H11.7559ZM26.4453 15.989H24.5586L23.8086 14.0378H20.375L19.666 15.989H17.8262L21.1719 7.39917H23.0059L26.4453 15.989ZM23.252 12.5906L22.0684 9.40308L20.9082 12.5906H23.252ZM35.1172 15.989H33.2305L32.4805 14.0378H29.0469L28.3379 15.989H26.498L29.8438 7.39917H31.6777L35.1172 15.989ZM31.9238 12.5906L30.7402 9.40308L29.5801 12.5906H31.9238ZM36.0195 15.989V7.39917H38.6152L40.1738 13.2585L41.7148 7.39917H44.3164V15.989H42.7051V9.22729L41 15.989H39.3301L37.6309 9.22729V15.989H36.0195ZM49.8887 15.989H48.2422V9.78394C47.6406 10.3464 46.9316 10.7625 46.1152 11.032V9.53784C46.5449 9.39722 47.0117 9.13159 47.5156 8.74097C48.0195 8.34644 48.3652 7.88745 48.5527 7.36401H49.8887V15.989Z" fill="white"/>
<defs>
<linearGradient id="paint0_linear_40_2548" x1="30.5" y1="1.98901" x2="30.5" y2="21.989" gradientUnits="userSpaceOnUse">
<stop stop-color="#4B3FB0"/>
<stop offset="1" stop-color="#E38E00"/>
</linearGradient>
</defs>
</svg>
