<svg width="52" height="24" viewBox="0 0 52 24" fill="none" xmlns="http://www.w3.org/2000/svg">
<rect x="2" y="1.98901" width="49" height="20" rx="10" fill="url(#paint0_linear_40_2547)"/>
<rect x="2" y="1.98901" width="49" height="20" rx="10" stroke="#420000" stroke-width="3" stroke-linejoin="round"/>
<path d="M10.3574 7.39917H13.5273C14.2422 7.39917 14.7871 7.45386 15.1621 7.56323C15.666 7.71167 16.0977 7.97534 16.457 8.35425C16.8164 8.73315 17.0898 9.198 17.2773 9.74878C17.4648 10.2957 17.5586 10.9714 17.5586 11.7761C17.5586 12.4832 17.4707 13.0925 17.2949 13.6042C17.0801 14.2292 16.7734 14.7351 16.375 15.1218C16.0742 15.4148 15.668 15.6433 15.1562 15.8074C14.7734 15.9285 14.2617 15.989 13.6211 15.989H10.3574V7.39917ZM12.0918 8.85229V14.5417H13.3867C13.8711 14.5417 14.2207 14.5144 14.4355 14.4597C14.7168 14.3894 14.9492 14.2703 15.1328 14.1023C15.3203 13.9343 15.4727 13.6589 15.5898 13.2761C15.707 12.8894 15.7656 12.364 15.7656 11.7C15.7656 11.0359 15.707 10.5261 15.5898 10.1707C15.4727 9.81519 15.3086 9.53784 15.0977 9.33862C14.8867 9.1394 14.6191 9.00464 14.2949 8.93433C14.0527 8.87964 13.5781 8.85229 12.8711 8.85229H12.0918ZM26.7812 15.989H24.8945L24.1445 14.0378H20.7109L20.002 15.989H18.1621L21.5078 7.39917H23.3418L26.7812 15.989ZM23.5879 12.5906L22.4043 9.40308L21.2441 12.5906H23.5879ZM27.707 15.989V7.39917H30.4902C31.5449 7.39917 32.2324 7.44214 32.5527 7.52808C33.0449 7.65698 33.457 7.93823 33.7891 8.37183C34.1211 8.80151 34.2871 9.35815 34.2871 10.0417C34.2871 10.5691 34.1914 11.0125 34 11.3718C33.8086 11.7312 33.5645 12.0144 33.2676 12.2214C32.9746 12.4246 32.6758 12.5593 32.3711 12.6257C31.957 12.7078 31.3574 12.7488 30.5723 12.7488H29.4414V15.989H27.707ZM29.4414 8.85229V11.2898H30.3906C31.0742 11.2898 31.5312 11.2449 31.7617 11.155C31.9922 11.0652 32.1719 10.9246 32.3008 10.7332C32.4336 10.5417 32.5 10.3191 32.5 10.0652C32.5 9.75269 32.4082 9.49487 32.2246 9.29175C32.041 9.08862 31.8086 8.96167 31.5273 8.91089C31.3203 8.87183 30.9043 8.85229 30.2793 8.85229H29.4414ZM35.7344 15.989V7.39917H37.4688V11.2136L40.9727 7.39917H43.3047L40.0703 10.7449L43.4805 15.989H41.2363L38.875 11.9578L37.4688 13.3933V15.989H35.7344Z" fill="white"/>
<defs>
<linearGradient id="paint0_linear_40_2547" x1="26.5" y1="1.98901" x2="26.5" y2="21.989" gradientUnits="userSpaceOnUse">
<stop stop-color="#420000"/>
<stop offset="1" stop-color="#009900"/>
</linearGradient>
</defs>
</svg>
