<svg width="60" height="24" viewBox="0 0 60 24" fill="none" xmlns="http://www.w3.org/2000/svg">
<rect x="2" y="1.98901" width="57" height="20" rx="10" fill="url(#paint0_linear_35_1428)"/>
<rect x="2" y="1.98901" width="57" height="20" rx="10" stroke="#F17600" stroke-width="3" stroke-linejoin="round"/>
<path d="M18.1074 15.989H16.2207L15.4707 14.0378H12.0371L11.3281 15.989H9.48828L12.834 7.39917H14.668L18.1074 15.989ZM14.9141 12.5906L13.7305 9.40308L12.5703 12.5906H14.9141ZM19.0098 15.989V7.39917H21.6055L23.1641 13.2585L24.7051 7.39917H27.3066V15.989H25.6953V9.22729L23.9902 15.989H22.3203L20.6211 9.22729V15.989H19.0098ZM29.0293 15.989V7.39917H35.3984V8.85229H30.7637V10.7566H35.0762V12.2039H30.7637V14.5417H35.5625V15.989H29.0293ZM37.0391 15.989V7.39917H40.6895C41.6074 7.39917 42.2734 7.47729 42.6875 7.63354C43.1055 7.78589 43.4395 8.05933 43.6895 8.45386C43.9395 8.84839 44.0645 9.29956 44.0645 9.80737C44.0645 10.4519 43.875 10.9851 43.4961 11.407C43.1172 11.825 42.5508 12.0886 41.7969 12.198C42.1719 12.4167 42.4805 12.657 42.7227 12.9187C42.9688 13.1804 43.2988 13.6453 43.7129 14.3132L44.7617 15.989H42.6875L41.4336 14.1199C40.9883 13.4519 40.6836 13.032 40.5195 12.8601C40.3555 12.6843 40.1816 12.5652 39.998 12.5027C39.8145 12.4363 39.5234 12.4031 39.125 12.4031H38.7734V15.989H37.0391ZM38.7734 11.032H40.0566C40.8887 11.032 41.4082 10.9968 41.6152 10.9265C41.8223 10.8562 41.9844 10.7351 42.1016 10.5632C42.2188 10.3914 42.2773 10.1765 42.2773 9.9187C42.2773 9.62964 42.1992 9.39722 42.043 9.22144C41.8906 9.04175 41.6738 8.92847 41.3926 8.88159C41.252 8.86206 40.8301 8.85229 40.127 8.85229H38.7734V11.032ZM49.5547 15.989H47.9082V9.78394C47.3066 10.3464 46.5977 10.7625 45.7812 11.032V9.53784C46.2109 9.39722 46.6777 9.13159 47.1816 8.74097C47.6855 8.34644 48.0312 7.88745 48.2188 7.36401H49.5547V15.989Z" fill="white"/>
<defs>
<linearGradient id="paint0_linear_35_1428" x1="30.5" y1="1.98901" x2="30.5" y2="21.989" gradientUnits="userSpaceOnUse">
<stop stop-color="#F17600"/>
<stop offset="1" stop-color="#4761B5"/>
</linearGradient>
</defs>
</svg>
