<svg width="44" height="24" viewBox="0 0 44 24" fill="none" xmlns="http://www.w3.org/2000/svg">
<rect x="2" y="1.98901" width="41" height="20" rx="10" fill="#92A541"/>
<rect x="2" y="1.98901" width="41" height="20" rx="10" stroke="#62AE02" stroke-width="3" stroke-linejoin="round"/>
<path d="M15.5273 12.8308L17.209 13.364C16.9512 14.3015 16.5215 14.9988 15.9199 15.4558C15.3223 15.9089 14.5625 16.1355 13.6406 16.1355C12.5 16.1355 11.5625 15.7468 10.8281 14.9695C10.0938 14.1882 9.72656 13.1218 9.72656 11.7703C9.72656 10.3406 10.0957 9.2312 10.834 8.44214C11.5723 7.64917 12.543 7.25269 13.7461 7.25269C14.7969 7.25269 15.6504 7.56323 16.3066 8.18433C16.6973 8.55151 16.9902 9.07886 17.1855 9.76636L15.4688 10.1765C15.3672 9.7312 15.1543 9.37964 14.8301 9.12183C14.5098 8.86401 14.1191 8.73511 13.6582 8.73511C13.0215 8.73511 12.5039 8.96362 12.1055 9.42065C11.7109 9.87769 11.5137 10.6179 11.5137 11.6414C11.5137 12.7273 11.709 13.5007 12.0996 13.9617C12.4902 14.4226 12.998 14.6531 13.623 14.6531C14.084 14.6531 14.4805 14.5066 14.8125 14.2136C15.1445 13.9207 15.3828 13.4597 15.5273 12.8308ZM22.6992 12.8308V11.3835H26.4375V14.8054C26.0742 15.157 25.5469 15.4675 24.8555 15.7371C24.168 16.0027 23.4707 16.1355 22.7637 16.1355C21.8652 16.1355 21.082 15.948 20.4141 15.573C19.7461 15.1941 19.2441 14.655 18.9082 13.9558C18.5723 13.2527 18.4043 12.489 18.4043 11.6648C18.4043 10.7703 18.5918 9.97534 18.9668 9.28003C19.3418 8.58472 19.8906 8.05151 20.6133 7.68042C21.1641 7.39526 21.8496 7.25269 22.6699 7.25269C23.7363 7.25269 24.5684 7.47729 25.166 7.92651C25.7676 8.37183 26.1543 8.98901 26.3262 9.77808L24.6035 10.1003C24.4824 9.67847 24.2539 9.34644 23.918 9.10425C23.5859 8.85815 23.1699 8.73511 22.6699 8.73511C21.9121 8.73511 21.3086 8.97534 20.8594 9.45581C20.4141 9.93628 20.1914 10.6492 20.1914 11.5945C20.1914 12.614 20.418 13.3796 20.8711 13.8914C21.3242 14.3992 21.918 14.6531 22.6523 14.6531C23.0156 14.6531 23.3789 14.5828 23.7422 14.4421C24.1094 14.2976 24.4238 14.1238 24.6855 13.9207V12.8308H22.6992ZM35.7891 15.989H33.9023L33.1523 14.0378H29.7188L29.0098 15.989H27.1699L30.5156 7.39917H32.3496L35.7891 15.989ZM32.5957 12.5906L31.4121 9.40308L30.252 12.5906H32.5957Z" fill="white"/>
</svg>
