<svg width="50" height="24" viewBox="0 0 50 24" fill="none" xmlns="http://www.w3.org/2000/svg">
<rect x="2" y="1.98901" width="47" height="20" rx="10" fill="url(#paint0_linear_65_1996)"/>
<rect x="2" y="1.98901" width="47" height="20" rx="10" stroke="#6B7ACE" stroke-width="3" stroke-linejoin="round"/>
<path d="M10.3594 15.989V7.39917H13.1426C14.1973 7.39917 14.8848 7.44214 15.2051 7.52808C15.6973 7.65698 16.1094 7.93823 16.4414 8.37183C16.7734 8.80151 16.9395 9.35815 16.9395 10.0417C16.9395 10.5691 16.8438 11.0125 16.6523 11.3718C16.4609 11.7312 16.2168 12.0144 15.9199 12.2214C15.627 12.4246 15.3281 12.5593 15.0234 12.6257C14.6094 12.7078 14.0098 12.7488 13.2246 12.7488H12.0938V15.989H10.3594ZM12.0938 8.85229V11.2898H13.043C13.7266 11.2898 14.1836 11.2449 14.4141 11.155C14.6445 11.0652 14.8242 10.9246 14.9531 10.7332C15.0859 10.5417 15.1523 10.3191 15.1523 10.0652C15.1523 9.75269 15.0605 9.49487 14.877 9.29175C14.6934 9.08862 14.4609 8.96167 14.1797 8.91089C13.9727 8.87183 13.5566 8.85229 12.9316 8.85229H12.0938ZM18.3867 15.989V7.39917H20.1211V11.2136L23.625 7.39917H25.957L22.7227 10.7449L26.1328 15.989H23.8887L21.5273 11.9578L20.1211 13.3933V15.989H18.3867ZM27.0527 15.989V7.39917H28.7402L32.2559 13.1355V7.39917H33.8672V15.989H32.127L28.6641 10.3875V15.989H27.0527ZM35.1152 14.2136L36.7676 13.9617C36.8379 14.282 36.9805 14.5261 37.1953 14.6941C37.4102 14.8582 37.7109 14.9402 38.0977 14.9402C38.5234 14.9402 38.8438 14.8621 39.0586 14.7058C39.2031 14.5964 39.2754 14.45 39.2754 14.2664C39.2754 14.1414 39.2363 14.0378 39.1582 13.9558C39.0762 13.8777 38.8926 13.8054 38.6074 13.739C37.2793 13.446 36.4375 13.1785 36.082 12.9363C35.5898 12.6003 35.3438 12.1335 35.3438 11.5359C35.3438 10.9968 35.5566 10.5437 35.9824 10.1765C36.4082 9.80933 37.0684 9.62573 37.9629 9.62573C38.8145 9.62573 39.4473 9.7644 39.8613 10.0417C40.2754 10.3191 40.5605 10.7292 40.7168 11.2722L39.1641 11.5593C39.0977 11.3171 38.9707 11.1316 38.7832 11.0027C38.5996 10.8738 38.3359 10.8093 37.9922 10.8093C37.5586 10.8093 37.248 10.8699 37.0605 10.991C36.9355 11.0769 36.873 11.1882 36.873 11.325C36.873 11.4421 36.9277 11.5417 37.0371 11.6238C37.1855 11.7332 37.6973 11.8875 38.5723 12.0867C39.4512 12.2859 40.0645 12.53 40.4121 12.8191C40.7559 13.1121 40.9277 13.5203 40.9277 14.0437C40.9277 14.614 40.6895 15.1042 40.2129 15.5144C39.7363 15.9246 39.0312 16.1296 38.0977 16.1296C37.25 16.1296 36.5781 15.9578 36.082 15.614C35.5898 15.2703 35.2676 14.8035 35.1152 14.2136Z" fill="white"/>
<defs>
<linearGradient id="paint0_linear_65_1996" x1="25.5" y1="1.98901" x2="25.5" y2="21.989" gradientUnits="userSpaceOnUse">
<stop stop-color="#6B7ACE"/>
<stop offset="1" stop-color="#FFE28C"/>
</linearGradient>
</defs>
</svg>
