<svg width="46" height="24" viewBox="0 0 46 24" fill="none" xmlns="http://www.w3.org/2000/svg">
<rect x="2" y="1.98901" width="43" height="20" rx="10" fill="url(#paint0_linear_50_1808)"/>
<rect x="2" y="1.98901" width="43" height="20" rx="10" stroke="#DEC313" stroke-width="3" stroke-linejoin="round"/>
<path d="M10.3047 15.989V7.39917H12.0391V15.989H10.3047ZM13.709 15.989V7.39917H19.5977V8.85229H15.4434V10.8855H19.0293V12.3386H15.4434V15.989H13.709ZM20.9805 15.989V7.39917H22.7148V15.989H20.9805ZM26.3066 15.989V8.85229H23.7578V7.39917H30.584V8.85229H28.041V15.989H26.3066ZM35.5586 15.989H33.9121V9.78394C33.3105 10.3464 32.6016 10.7625 31.7852 11.032V9.53784C32.2148 9.39722 32.6816 9.13159 33.1855 8.74097C33.6895 8.34644 34.0352 7.88745 34.2227 7.36401H35.5586V15.989Z" fill="white"/>
<defs>
<linearGradient id="paint0_linear_50_1808" x1="23.5" y1="1.98901" x2="23.5" y2="21.989" gradientUnits="userSpaceOnUse">
<stop stop-color="#192404"/>
<stop offset="1" stop-color="#DEC313"/>
</linearGradient>
</defs>
</svg>
