<svg width="62" height="24" viewBox="0 0 62 24" fill="none" xmlns="http://www.w3.org/2000/svg">
<rect x="2" y="1.98901" width="59" height="20" rx="10" fill="url(#paint0_linear_66_2008)"/>
<rect x="2" y="1.98901" width="59" height="20" rx="10" stroke="url(#paint1_linear_66_2008)" stroke-width="3" stroke-linejoin="round"/>
<path d="M10.0254 15.989V7.39917H12.8086C13.8633 7.39917 14.5508 7.44214 14.8711 7.52808C15.3633 7.65698 15.7754 7.93823 16.1074 8.37183C16.4395 8.80151 16.6055 9.35815 16.6055 10.0417C16.6055 10.5691 16.5098 11.0125 16.3184 11.3718C16.127 11.7312 15.8828 12.0144 15.5859 12.2214C15.293 12.4246 14.9941 12.5593 14.6895 12.6257C14.2754 12.7078 13.6758 12.7488 12.8906 12.7488H11.7598V15.989H10.0254ZM11.7598 8.85229V11.2898H12.709C13.3926 11.2898 13.8496 11.2449 14.0801 11.155C14.3105 11.0652 14.4902 10.9246 14.6191 10.7332C14.752 10.5417 14.8184 10.3191 14.8184 10.0652C14.8184 9.75269 14.7266 9.49487 14.543 9.29175C14.3594 9.08862 14.127 8.96167 13.8457 8.91089C13.6387 8.87183 13.2227 8.85229 12.5977 8.85229H11.7598ZM17.6777 11.7468C17.6777 10.8718 17.8086 10.1375 18.0703 9.5437C18.2656 9.1062 18.5312 8.71362 18.8672 8.36597C19.207 8.01831 19.5781 7.7605 19.9805 7.59253C20.5156 7.36597 21.1328 7.25269 21.832 7.25269C23.0977 7.25269 24.1094 7.64526 24.8672 8.43042C25.6289 9.21558 26.0098 10.3074 26.0098 11.7058C26.0098 13.0925 25.6328 14.1785 24.8789 14.9636C24.125 15.7449 23.1172 16.1355 21.8555 16.1355C20.5781 16.1355 19.5625 15.7468 18.8086 14.9695C18.0547 14.1882 17.6777 13.114 17.6777 11.7468ZM19.4648 11.6882C19.4648 12.6609 19.6895 13.3992 20.1387 13.9031C20.5879 14.4031 21.1582 14.6531 21.8496 14.6531C22.541 14.6531 23.1074 14.405 23.5488 13.9089C23.9941 13.4089 24.2168 12.6609 24.2168 11.6648C24.2168 10.6804 24 9.94604 23.5664 9.46167C23.1367 8.97729 22.5645 8.73511 21.8496 8.73511C21.1348 8.73511 20.5586 8.9812 20.1211 9.47339C19.6836 9.96167 19.4648 10.7 19.4648 11.6882ZM27.416 15.989V7.46948H29.1504V14.5417H33.4629V15.989H27.416ZM34.6992 7.39917H37.8691C38.584 7.39917 39.1289 7.45386 39.5039 7.56323C40.0078 7.71167 40.4395 7.97534 40.7988 8.35425C41.1582 8.73315 41.4316 9.198 41.6191 9.74878C41.8066 10.2957 41.9004 10.9714 41.9004 11.7761C41.9004 12.4832 41.8125 13.0925 41.6367 13.6042C41.4219 14.2292 41.1152 14.7351 40.7168 15.1218C40.416 15.4148 40.0098 15.6433 39.498 15.8074C39.1152 15.9285 38.6035 15.989 37.9629 15.989H34.6992V7.39917ZM36.4336 8.85229V14.5417H37.7285C38.2129 14.5417 38.5625 14.5144 38.7773 14.4597C39.0586 14.3894 39.291 14.2703 39.4746 14.1023C39.6621 13.9343 39.8145 13.6589 39.9316 13.2761C40.0488 12.8894 40.1074 12.364 40.1074 11.7C40.1074 11.0359 40.0488 10.5261 39.9316 10.1707C39.8145 9.81519 39.6504 9.53784 39.4395 9.33862C39.2285 9.1394 38.9609 9.00464 38.6367 8.93433C38.3945 8.87964 37.9199 8.85229 37.2129 8.85229H36.4336ZM43.3242 14.3425H44.9707V15.5203C44.9707 15.9968 44.9297 16.3718 44.8477 16.6453C44.7656 16.9226 44.6094 17.1707 44.3789 17.3894C44.1523 17.6082 43.8633 17.78 43.5117 17.905L43.1895 17.2253C43.5215 17.116 43.7578 16.9656 43.8984 16.7742C44.0391 16.5828 44.1133 16.321 44.1211 15.989H43.3242V14.3425ZM46.7168 15.989V7.39917H53.0859V8.85229H48.4512V10.7566H52.7637V12.2039H48.4512V14.5417H53.25V15.989H46.7168Z" fill="white"/>
<defs>
<linearGradient id="paint0_linear_66_2008" x1="31.5" y1="1.98901" x2="31.5" y2="21.989" gradientUnits="userSpaceOnUse">
<stop stop-color="#4170A2"/>
<stop offset="1" stop-color="#240417"/>
</linearGradient>
<linearGradient id="paint1_linear_66_2008" x1="31.5" y1="1.98901" x2="31.5" y2="21.989" gradientUnits="userSpaceOnUse">
<stop stop-color="#A2317B"/>
<stop offset="1" stop-color="#B78520"/>
</linearGradient>
</defs>
</svg>
