<svg width="65" height="24" viewBox="0 0 65 24" fill="none" xmlns="http://www.w3.org/2000/svg">
<rect x="2" y="1.98901" width="62" height="20" rx="10" fill="#94881D"/>
<rect x="2" y="1.98901" width="62" height="20" rx="10" stroke="url(#paint0_linear_67_1869)" stroke-width="3" stroke-linejoin="round"/>
<path d="M10.1953 15.989V7.39917H13.8457C14.7637 7.39917 15.4297 7.47729 15.8438 7.63354C16.2617 7.78589 16.5957 8.05933 16.8457 8.45386C17.0957 8.84839 17.2207 9.29956 17.2207 9.80737C17.2207 10.4519 17.0312 10.9851 16.6523 11.407C16.2734 11.825 15.707 12.0886 14.9531 12.198C15.3281 12.4167 15.6367 12.657 15.8789 12.9187C16.125 13.1804 16.4551 13.6453 16.8691 14.3132L17.918 15.989H15.8438L14.5898 14.1199C14.1445 13.4519 13.8398 13.032 13.6758 12.8601C13.5117 12.6843 13.3379 12.5652 13.1543 12.5027C12.9707 12.4363 12.6797 12.4031 12.2812 12.4031H11.9297V15.989H10.1953ZM11.9297 11.032H13.2129C14.0449 11.032 14.5645 10.9968 14.7715 10.9265C14.9785 10.8562 15.1406 10.7351 15.2578 10.5632C15.375 10.3914 15.4336 10.1765 15.4336 9.9187C15.4336 9.62964 15.3555 9.39722 15.1992 9.22144C15.0469 9.04175 14.8301 8.92847 14.5488 8.88159C14.4082 8.86206 13.9863 8.85229 13.2832 8.85229H11.9297V11.032ZM18.8672 15.989V7.39917H20.6016V10.78H24V7.39917H25.7344V15.989H24V12.2332H20.6016V15.989H18.8672ZM27.1816 11.7468C27.1816 10.8718 27.3125 10.1375 27.5742 9.5437C27.7695 9.1062 28.0352 8.71362 28.3711 8.36597C28.7109 8.01831 29.082 7.7605 29.4844 7.59253C30.0195 7.36597 30.6367 7.25269 31.3359 7.25269C32.6016 7.25269 33.6133 7.64526 34.3711 8.43042C35.1328 9.21558 35.5137 10.3074 35.5137 11.7058C35.5137 13.0925 35.1367 14.1785 34.3828 14.9636C33.6289 15.7449 32.6211 16.1355 31.3594 16.1355C30.082 16.1355 29.0664 15.7468 28.3125 14.9695C27.5586 14.1882 27.1816 13.114 27.1816 11.7468ZM28.9688 11.6882C28.9688 12.6609 29.1934 13.3992 29.6426 13.9031C30.0918 14.4031 30.6621 14.6531 31.3535 14.6531C32.0449 14.6531 32.6113 14.405 33.0527 13.9089C33.498 13.4089 33.7207 12.6609 33.7207 11.6648C33.7207 10.6804 33.5039 9.94604 33.0703 9.46167C32.6406 8.97729 32.0684 8.73511 31.3535 8.73511C30.6387 8.73511 30.0625 8.9812 29.625 9.47339C29.1875 9.96167 28.9688 10.7 28.9688 11.6882ZM44.6191 15.989H42.7324L41.9824 14.0378H38.5488L37.8398 15.989H36L39.3457 7.39917H41.1797L44.6191 15.989ZM41.4258 12.5906L40.2422 9.40308L39.082 12.5906H41.4258ZM45.4922 14.3425H47.1387V15.5203C47.1387 15.9968 47.0977 16.3718 47.0156 16.6453C46.9336 16.9226 46.7773 17.1707 46.5469 17.3894C46.3203 17.6082 46.0312 17.78 45.6797 17.905L45.3574 17.2253C45.6895 17.116 45.9258 16.9656 46.0664 16.7742C46.207 16.5828 46.2812 16.321 46.2891 15.989H45.4922V14.3425ZM48.8906 7.39917H52.3242C53.0039 7.39917 53.5098 7.42847 53.8418 7.48706C54.1777 7.54175 54.4766 7.65894 54.7383 7.83862C55.0039 8.01831 55.2246 8.25854 55.4004 8.55933C55.5762 8.8562 55.6641 9.19019 55.6641 9.56128C55.6641 9.96362 55.5547 10.3328 55.3359 10.6687C55.1211 11.0046 54.8281 11.2566 54.457 11.4246C54.9805 11.5769 55.3828 11.8367 55.6641 12.2039C55.9453 12.571 56.0859 13.0027 56.0859 13.4988C56.0859 13.8894 55.9941 14.2703 55.8105 14.6414C55.6309 15.0085 55.3828 15.3035 55.0664 15.5261C54.7539 15.7449 54.3672 15.8796 53.9062 15.9304C53.6172 15.9617 52.9199 15.9812 51.8145 15.989H48.8906V7.39917ZM50.625 8.82886V10.8152H51.7617C52.4375 10.8152 52.8574 10.8054 53.0215 10.7859C53.3184 10.7507 53.5508 10.6492 53.7188 10.4812C53.8906 10.3093 53.9766 10.0847 53.9766 9.80737C53.9766 9.54175 53.9023 9.3269 53.7539 9.16284C53.6094 8.99487 53.3926 8.89331 53.1035 8.85815C52.9316 8.83862 52.4375 8.82886 51.6211 8.82886H50.625ZM50.625 12.2449V14.5417H52.2305C52.8555 14.5417 53.252 14.5242 53.4199 14.489C53.6777 14.4421 53.8867 14.3289 54.0469 14.1492C54.2109 13.9656 54.293 13.7214 54.293 13.4167C54.293 13.1589 54.2305 12.9402 54.1055 12.7605C53.9805 12.5808 53.7988 12.45 53.5605 12.3679C53.3262 12.2859 52.8145 12.2449 52.0254 12.2449H50.625Z" fill="white"/>
<defs>
<linearGradient id="paint0_linear_67_1869" x1="33" y1="1.98901" x2="33" y2="21.989" gradientUnits="userSpaceOnUse">
<stop stop-color="#94881D"/>
<stop offset="1" stop-color="#1C474A"/>
</linearGradient>
</defs>
</svg>
