<svg width="57" height="24" viewBox="0 0 57 24" fill="none" xmlns="http://www.w3.org/2000/svg">
<rect x="2" y="1.98901" width="54" height="20" rx="10" fill="url(#paint0_linear_50_1819)"/>
<rect x="2" y="1.98901" width="54" height="20" rx="10" stroke="#00CFFF" stroke-width="3" stroke-linejoin="round"/>
<path d="M10.3262 15.989V7.39917H12.0605V11.2136L15.5645 7.39917H17.8965L14.6621 10.7449L18.0723 15.989H15.8281L13.4668 11.9578L12.0605 13.3933V15.989H10.3262ZM26.7207 15.989H24.834L24.084 14.0378H20.6504L19.9414 15.989H18.1016L21.4473 7.39917H23.2812L26.7207 15.989ZM23.5273 12.5906L22.3438 9.40308L21.1836 12.5906H23.5273ZM28.6895 15.989V8.85229H26.1406V7.39917H32.9668V8.85229H30.4238V15.989H28.6895ZM39.3066 9.50269L37.7129 9.67847C37.6738 9.35034 37.5723 9.10815 37.4082 8.9519C37.2441 8.79565 37.0312 8.71753 36.7695 8.71753C36.4219 8.71753 36.127 8.87378 35.8848 9.18628C35.6465 9.49878 35.4961 10.1492 35.4336 11.1375C35.8438 10.6531 36.3535 10.4109 36.9629 10.4109C37.6504 10.4109 38.2383 10.6726 38.7266 11.196C39.2188 11.7195 39.4648 12.3953 39.4648 13.2234C39.4648 14.1023 39.207 14.8074 38.6914 15.3386C38.1758 15.8699 37.5137 16.1355 36.7051 16.1355C35.8379 16.1355 35.125 15.7996 34.5664 15.1277C34.0078 14.4519 33.7285 13.3464 33.7285 11.8113C33.7285 10.2371 34.0195 9.10229 34.6016 8.40698C35.1836 7.71167 35.9395 7.36401 36.8691 7.36401C37.5215 7.36401 38.0605 7.54761 38.4863 7.91479C38.916 8.27808 39.1895 8.80737 39.3066 9.50269ZM35.5742 13.0945C35.5742 13.6296 35.6973 14.0437 35.9434 14.3367C36.1895 14.6257 36.4707 14.7703 36.7871 14.7703C37.0918 14.7703 37.3457 14.6511 37.5488 14.4128C37.752 14.1746 37.8535 13.7839 37.8535 13.241C37.8535 12.6824 37.7441 12.2742 37.5254 12.0164C37.3066 11.7546 37.0332 11.6238 36.7051 11.6238C36.3887 11.6238 36.1211 11.7488 35.9023 11.9988C35.6836 12.2449 35.5742 12.6101 35.5742 13.0945ZM48.5176 15.989H46.6309L45.8809 14.0378H42.4473L41.7383 15.989H39.8984L43.2441 7.39917H45.0781L48.5176 15.989ZM45.3242 12.5906L44.1406 9.40308L42.9805 12.5906H45.3242Z" fill="white"/>
<defs>
<linearGradient id="paint0_linear_50_1819" x1="29" y1="1.98901" x2="29" y2="21.989" gradientUnits="userSpaceOnUse">
<stop stop-color="#00CFFF"/>
<stop offset="1" stop-color="#FF0021"/>
</linearGradient>
</defs>
</svg>
