<svg width="97" height="24" viewBox="0 0 97 24" fill="none" xmlns="http://www.w3.org/2000/svg">
<rect x="1" y="1.98901" width="95" height="20" rx="10" fill="url(#paint0_linear_42_2724)"/>
<rect x="1" y="1.98901" width="95" height="20" rx="10" stroke="#1A9E9E" stroke-width="3" stroke-linejoin="round"/>
<path d="M9.35938 15.989V7.39917H15.248V8.85229H11.0938V10.8855H14.6797V12.3386H11.0938V15.989H9.35938ZM16.332 11.7468C16.332 10.8718 16.4629 10.1375 16.7246 9.5437C16.9199 9.1062 17.1855 8.71362 17.5215 8.36597C17.8613 8.01831 18.2324 7.7605 18.6348 7.59253C19.1699 7.36597 19.7871 7.25269 20.4863 7.25269C21.752 7.25269 22.7637 7.64526 23.5215 8.43042C24.2832 9.21558 24.6641 10.3074 24.6641 11.7058C24.6641 13.0925 24.2871 14.1785 23.5332 14.9636C22.7793 15.7449 21.7715 16.1355 20.5098 16.1355C19.2324 16.1355 18.2168 15.7468 17.4629 14.9695C16.709 14.1882 16.332 13.114 16.332 11.7468ZM18.1191 11.6882C18.1191 12.6609 18.3438 13.3992 18.793 13.9031C19.2422 14.4031 19.8125 14.6531 20.5039 14.6531C21.1953 14.6531 21.7617 14.405 22.2031 13.9089C22.6484 13.4089 22.8711 12.6609 22.8711 11.6648C22.8711 10.6804 22.6543 9.94604 22.2207 9.46167C21.791 8.97729 21.2188 8.73511 20.5039 8.73511C19.7891 8.73511 19.2129 8.9812 18.7754 9.47339C18.3379 9.96167 18.1191 10.7 18.1191 11.6882ZM26.0703 15.989V7.46948H27.8047V14.5417H32.1172V15.989H26.0703ZM33.4062 15.989V7.46948H35.1406V14.5417H39.4531V15.989H33.4062ZM40.6426 15.989V7.39917H42.377V15.989H40.6426ZM45.9688 15.989V8.85229H43.4199V7.39917H50.2461V8.85229H47.7031V15.989H45.9688ZM51.377 15.989V7.39917H55.0273C55.9453 7.39917 56.6113 7.47729 57.0254 7.63354C57.4434 7.78589 57.7773 8.05933 58.0273 8.45386C58.2773 8.84839 58.4023 9.29956 58.4023 9.80737C58.4023 10.4519 58.2129 10.9851 57.834 11.407C57.4551 11.825 56.8887 12.0886 56.1348 12.198C56.5098 12.4167 56.8184 12.657 57.0605 12.9187C57.3066 13.1804 57.6367 13.6453 58.0508 14.3132L59.0996 15.989H57.0254L55.7715 14.1199C55.3262 13.4519 55.0215 13.032 54.8574 12.8601C54.6934 12.6843 54.5195 12.5652 54.3359 12.5027C54.1523 12.4363 53.8613 12.4031 53.4629 12.4031H53.1113V15.989H51.377ZM53.1113 11.032H54.3945C55.2266 11.032 55.7461 10.9968 55.9531 10.9265C56.1602 10.8562 56.3223 10.7351 56.4395 10.5632C56.5566 10.3914 56.6152 10.1765 56.6152 9.9187C56.6152 9.62964 56.5371 9.39722 56.3809 9.22144C56.2285 9.04175 56.0117 8.92847 55.7305 8.88159C55.5898 8.86206 55.168 8.85229 54.4648 8.85229H53.1113V11.032ZM59.6914 11.7468C59.6914 10.8718 59.8223 10.1375 60.084 9.5437C60.2793 9.1062 60.5449 8.71362 60.8809 8.36597C61.2207 8.01831 61.5918 7.7605 61.9941 7.59253C62.5293 7.36597 63.1465 7.25269 63.8457 7.25269C65.1113 7.25269 66.123 7.64526 66.8809 8.43042C67.6426 9.21558 68.0234 10.3074 68.0234 11.7058C68.0234 13.0925 67.6465 14.1785 66.8926 14.9636C66.1387 15.7449 65.1309 16.1355 63.8691 16.1355C62.5918 16.1355 61.5762 15.7468 60.8223 14.9695C60.0684 14.1882 59.6914 13.114 59.6914 11.7468ZM61.4785 11.6882C61.4785 12.6609 61.7031 13.3992 62.1523 13.9031C62.6016 14.4031 63.1719 14.6531 63.8633 14.6531C64.5547 14.6531 65.1211 14.405 65.5625 13.9089C66.0078 13.4089 66.2305 12.6609 66.2305 11.6648C66.2305 10.6804 66.0137 9.94604 65.5801 9.46167C65.1504 8.97729 64.5781 8.73511 63.8633 8.73511C63.1484 8.73511 62.5723 8.9812 62.1348 9.47339C61.6973 9.96167 61.4785 10.7 61.4785 11.6882ZM69.3828 15.989V7.39917H72.166C73.2207 7.39917 73.9082 7.44214 74.2285 7.52808C74.7207 7.65698 75.1328 7.93823 75.4648 8.37183C75.7969 8.80151 75.9629 9.35815 75.9629 10.0417C75.9629 10.5691 75.8672 11.0125 75.6758 11.3718C75.4844 11.7312 75.2402 12.0144 74.9434 12.2214C74.6504 12.4246 74.3516 12.5593 74.0469 12.6257C73.6328 12.7078 73.0332 12.7488 72.248 12.7488H71.1172V15.989H69.3828ZM71.1172 8.85229V11.2898H72.0664C72.75 11.2898 73.207 11.2449 73.4375 11.155C73.668 11.0652 73.8477 10.9246 73.9766 10.7332C74.1094 10.5417 74.1758 10.3191 74.1758 10.0652C74.1758 9.75269 74.084 9.49487 73.9004 9.29175C73.7168 9.08862 73.4844 8.96167 73.2031 8.91089C72.9961 8.87183 72.5801 8.85229 71.9551 8.85229H71.1172ZM77.334 15.989V7.39917H79.0684V15.989H77.334ZM80.7441 15.989V7.39917H82.4316L85.9473 13.1355V7.39917H87.5586V15.989H85.8184L82.3555 10.3875V15.989H80.7441Z" fill="white"/>
<defs>
<linearGradient id="paint0_linear_42_2724" x1="48.5" y1="1.98901" x2="48.5" y2="21.989" gradientUnits="userSpaceOnUse">
<stop stop-color="#1A9E9E"/>
<stop offset="1" stop-color="#D67D1B"/>
</linearGradient>
</defs>
</svg>
