<svg width="62" height="24" viewBox="0 0 62 24" fill="none" xmlns="http://www.w3.org/2000/svg">
<rect x="2" y="1.98901" width="59" height="20" rx="10" fill="url(#paint0_linear_84_2016)"/>
<rect x="2" y="1.98901" width="59" height="20" rx="10" stroke="#B2353B" stroke-width="3" stroke-linejoin="round"/>
<path d="M12.2871 15.989V8.85229H9.73828V7.39917H16.5645V8.85229H14.0215V15.989H12.2871ZM23.1855 12.8308L24.8672 13.364C24.6094 14.3015 24.1797 14.9988 23.5781 15.4558C22.9805 15.9089 22.2207 16.1355 21.2988 16.1355C20.1582 16.1355 19.2207 15.7468 18.4863 14.9695C17.752 14.1882 17.3848 13.1218 17.3848 11.7703C17.3848 10.3406 17.7539 9.2312 18.4922 8.44214C19.2305 7.64917 20.2012 7.25269 21.4043 7.25269C22.4551 7.25269 23.3086 7.56323 23.9648 8.18433C24.3555 8.55151 24.6484 9.07886 24.8438 9.76636L23.127 10.1765C23.0254 9.7312 22.8125 9.37964 22.4883 9.12183C22.168 8.86401 21.7773 8.73511 21.3164 8.73511C20.6797 8.73511 20.1621 8.96362 19.7637 9.42065C19.3691 9.87769 19.1719 10.6179 19.1719 11.6414C19.1719 12.7273 19.3672 13.5007 19.7578 13.9617C20.1484 14.4226 20.6562 14.6531 21.2812 14.6531C21.7422 14.6531 22.1387 14.5066 22.4707 14.2136C22.8027 13.9207 23.041 13.4597 23.1855 12.8308ZM26.373 15.989V7.39917H32.2617V8.85229H28.1074V10.8855H31.6934V12.3386H28.1074V15.989H26.373ZM33.334 9.04565V7.51636H38.9648V8.71167C38.5 9.1687 38.0273 9.82495 37.5469 10.6804C37.0664 11.5359 36.6992 12.446 36.4453 13.4109C36.1953 14.3718 36.0723 15.2312 36.0762 15.989H34.4883C34.5156 14.8015 34.7598 13.5906 35.2207 12.3562C35.6855 11.1218 36.3047 10.0183 37.0781 9.04565H33.334ZM40.4238 15.989V7.46948H42.1582V14.5417H46.4707V15.989H40.4238ZM52.9102 14.4597V15.989H47.1387C47.2012 15.4109 47.3887 14.864 47.7012 14.3484C48.0137 13.8289 48.6309 13.1414 49.5527 12.2859C50.2949 11.5945 50.75 11.1257 50.918 10.8796C51.1445 10.5398 51.2578 10.2039 51.2578 9.87183C51.2578 9.50464 51.1582 9.22339 50.959 9.02808C50.7637 8.82886 50.4922 8.72925 50.1445 8.72925C49.8008 8.72925 49.5273 8.83276 49.3242 9.03979C49.1211 9.24683 49.0039 9.59058 48.9727 10.071L47.332 9.90698C47.4297 9.00073 47.7363 8.35034 48.252 7.95581C48.7676 7.56128 49.4121 7.36401 50.1855 7.36401C51.0332 7.36401 51.6992 7.59253 52.1836 8.04956C52.668 8.50659 52.9102 9.07495 52.9102 9.75464C52.9102 10.1414 52.8398 10.5105 52.6992 10.8621C52.5625 11.2097 52.3438 11.575 52.043 11.9578C51.8438 12.2117 51.4844 12.5769 50.9648 13.0535C50.4453 13.53 50.1152 13.8464 49.9746 14.0027C49.8379 14.1589 49.7266 14.3113 49.6406 14.4597H52.9102Z" fill="white"/>
<defs>
<linearGradient id="paint0_linear_84_2016" x1="31.5" y1="21.989" x2="31.5" y2="1.98901" gradientUnits="userSpaceOnUse">
<stop stop-color="#B2353B"/>
<stop offset="1" stop-color="#FF8565"/>
</linearGradient>
</defs>
</svg>
