<svg width="62" height="24" viewBox="0 0 62 24" fill="none" xmlns="http://www.w3.org/2000/svg">
<rect x="2" y="1.98901" width="59" height="20" rx="10" fill="url(#paint0_linear_37_1793)"/>
<rect x="2" y="1.98901" width="59" height="20" rx="10" stroke="#16947B" stroke-width="3" stroke-linejoin="round"/>
<path d="M15.8613 12.8308L17.543 13.364C17.2852 14.3015 16.8555 14.9988 16.2539 15.4558C15.6562 15.9089 14.8965 16.1355 13.9746 16.1355C12.834 16.1355 11.8965 15.7468 11.1621 14.9695C10.4277 14.1882 10.0605 13.1218 10.0605 11.7703C10.0605 10.3406 10.4297 9.2312 11.168 8.44214C11.9062 7.64917 12.877 7.25269 14.0801 7.25269C15.1309 7.25269 15.9844 7.56323 16.6406 8.18433C17.0312 8.55151 17.3242 9.07886 17.5195 9.76636L15.8027 10.1765C15.7012 9.7312 15.4883 9.37964 15.1641 9.12183C14.8438 8.86401 14.4531 8.73511 13.9922 8.73511C13.3555 8.73511 12.8379 8.96362 12.4395 9.42065C12.0449 9.87769 11.8477 10.6179 11.8477 11.6414C11.8477 12.7273 12.043 13.5007 12.4336 13.9617C12.8242 14.4226 13.332 14.6531 13.957 14.6531C14.418 14.6531 14.8145 14.5066 15.1465 14.2136C15.4785 13.9207 15.7168 13.4597 15.8613 12.8308ZM26.7832 15.989H24.8965L24.1465 14.0378H20.7129L20.0039 15.989H18.1641L21.5098 7.39917H23.3438L26.7832 15.989ZM23.5898 12.5906L22.4062 9.40308L21.2461 12.5906H23.5898ZM27.6855 15.989V7.39917H30.2812L31.8398 13.2585L33.3809 7.39917H35.9824V15.989H34.3711V9.22729L32.666 15.989H30.9961L29.2969 9.22729V15.989H27.6855ZM37.752 15.989V7.46948H39.4863V14.5417H43.7988V15.989H37.752ZM49.0371 12.8308V11.3835H52.7754V14.8054C52.4121 15.157 51.8848 15.4675 51.1934 15.7371C50.5059 16.0027 49.8086 16.1355 49.1016 16.1355C48.2031 16.1355 47.4199 15.948 46.752 15.573C46.084 15.1941 45.582 14.655 45.2461 13.9558C44.9102 13.2527 44.7422 12.489 44.7422 11.6648C44.7422 10.7703 44.9297 9.97534 45.3047 9.28003C45.6797 8.58472 46.2285 8.05151 46.9512 7.68042C47.502 7.39526 48.1875 7.25269 49.0078 7.25269C50.0742 7.25269 50.9062 7.47729 51.5039 7.92651C52.1055 8.37183 52.4922 8.98901 52.6641 9.77808L50.9414 10.1003C50.8203 9.67847 50.5918 9.34644 50.2559 9.10425C49.9238 8.85815 49.5078 8.73511 49.0078 8.73511C48.25 8.73511 47.6465 8.97534 47.1973 9.45581C46.752 9.93628 46.5293 10.6492 46.5293 11.5945C46.5293 12.614 46.7559 13.3796 47.209 13.8914C47.6621 14.3992 48.2559 14.6531 48.9902 14.6531C49.3535 14.6531 49.7168 14.5828 50.0801 14.4421C50.4473 14.2976 50.7617 14.1238 51.0234 13.9207V12.8308H49.0371Z" fill="white"/>
<defs>
<linearGradient id="paint0_linear_37_1793" x1="31.5" y1="1.98901" x2="31.5" y2="21.989" gradientUnits="userSpaceOnUse">
<stop stop-color="#16947B"/>
<stop offset="1" stop-color="#94B500"/>
</linearGradient>
</defs>
</svg>
