<svg width="65" height="24" viewBox="0 0 65 24" fill="none" xmlns="http://www.w3.org/2000/svg">
<rect x="1" y="1.98901" width="63" height="20" rx="10" fill="url(#paint0_linear_40_2538)"/>
<rect x="1" y="1.98901" width="63" height="20" rx="10" stroke="#690042" stroke-width="3" stroke-linejoin="round"/>
<path d="M14.5176 12.8308L16.1992 13.364C15.9414 14.3015 15.5117 14.9988 14.9102 15.4558C14.3125 15.9089 13.5527 16.1355 12.6309 16.1355C11.4902 16.1355 10.5527 15.7468 9.81836 14.9695C9.08398 14.1882 8.7168 13.1218 8.7168 11.7703C8.7168 10.3406 9.08594 9.2312 9.82422 8.44214C10.5625 7.64917 11.5332 7.25269 12.7363 7.25269C13.7871 7.25269 14.6406 7.56323 15.2969 8.18433C15.6875 8.55151 15.9805 9.07886 16.1758 9.76636L14.459 10.1765C14.3574 9.7312 14.1445 9.37964 13.8203 9.12183C13.5 8.86401 13.1094 8.73511 12.6484 8.73511C12.0117 8.73511 11.4941 8.96362 11.0957 9.42065C10.7012 9.87769 10.5039 10.6179 10.5039 11.6414C10.5039 12.7273 10.6992 13.5007 11.0898 13.9617C11.4805 14.4226 11.9883 14.6531 12.6133 14.6531C13.0742 14.6531 13.4707 14.5066 13.8027 14.2136C14.1348 13.9207 14.373 13.4597 14.5176 12.8308ZM19.627 15.989V8.85229H17.0781V7.39917H23.9043V8.85229H21.3613V15.989H19.627ZM25.0469 15.989V7.39917H26.7344L30.25 13.1355V7.39917H31.8613V15.989H30.1211L26.6582 10.3875V15.989H25.0469ZM33.7188 15.989V7.39917H35.4062L38.9219 13.1355V7.39917H40.5332V15.989H38.793L35.3301 10.3875V15.989H33.7188ZM42.3789 7.39917H45.8125C46.4922 7.39917 46.998 7.42847 47.3301 7.48706C47.666 7.54175 47.9648 7.65894 48.2266 7.83862C48.4922 8.01831 48.7129 8.25854 48.8887 8.55933C49.0645 8.8562 49.1523 9.19019 49.1523 9.56128C49.1523 9.96362 49.043 10.3328 48.8242 10.6687C48.6094 11.0046 48.3164 11.2566 47.9453 11.4246C48.4688 11.5769 48.8711 11.8367 49.1523 12.2039C49.4336 12.571 49.5742 13.0027 49.5742 13.4988C49.5742 13.8894 49.4824 14.2703 49.2988 14.6414C49.1191 15.0085 48.8711 15.3035 48.5547 15.5261C48.2422 15.7449 47.8555 15.8796 47.3945 15.9304C47.1055 15.9617 46.4082 15.9812 45.3027 15.989H42.3789V7.39917ZM44.1133 8.82886V10.8152H45.25C45.9258 10.8152 46.3457 10.8054 46.5098 10.7859C46.8066 10.7507 47.0391 10.6492 47.207 10.4812C47.3789 10.3093 47.4648 10.0847 47.4648 9.80737C47.4648 9.54175 47.3906 9.3269 47.2422 9.16284C47.0977 8.99487 46.8809 8.89331 46.5918 8.85815C46.4199 8.83862 45.9258 8.82886 45.1094 8.82886H44.1133ZM44.1133 12.2449V14.5417H45.7188C46.3438 14.5417 46.7402 14.5242 46.9082 14.489C47.166 14.4421 47.375 14.3289 47.5352 14.1492C47.6992 13.9656 47.7812 13.7214 47.7812 13.4167C47.7812 13.1589 47.7188 12.9402 47.5938 12.7605C47.4688 12.5808 47.2871 12.45 47.0488 12.3679C46.8145 12.2859 46.3027 12.2449 45.5137 12.2449H44.1133ZM54.8945 15.989H53.248V9.78394C52.6465 10.3464 51.9375 10.7625 51.1211 11.032V9.53784C51.5508 9.39722 52.0176 9.13159 52.5215 8.74097C53.0254 8.34644 53.3711 7.88745 53.5586 7.36401H54.8945V15.989Z" fill="white"/>
<defs>
<linearGradient id="paint0_linear_40_2538" x1="32.5" y1="1.98901" x2="32.5" y2="21.989" gradientUnits="userSpaceOnUse">
<stop stop-color="#6BCDFF"/>
<stop offset="1" stop-color="#690042"/>
</linearGradient>
</defs>
</svg>
