<svg width="76" height="24" viewBox="0 0 76 24" fill="none" xmlns="http://www.w3.org/2000/svg">
<rect x="1" y="1.98901" width="74" height="20" rx="10" fill="#E07286"/>
<rect x="1" y="1.98901" width="74" height="20" rx="10" stroke="#0053CC" stroke-width="3" stroke-linejoin="round"/>
<path d="M9.16016 15.989V7.39917H11.7559L13.3145 13.2585L14.8555 7.39917H17.457V15.989H15.8457V9.22729L14.1406 15.989H12.4707L10.7715 9.22729V15.989H9.16016ZM26.9258 15.989H25.0391L24.2891 14.0378H20.8555L20.1465 15.989H18.3066L21.6523 7.39917H23.4863L26.9258 15.989ZM23.7324 12.5906L22.5488 9.40308L21.3887 12.5906H23.7324ZM27.8516 15.989V7.39917H30.6348C31.6895 7.39917 32.377 7.44214 32.6973 7.52808C33.1895 7.65698 33.6016 7.93823 33.9336 8.37183C34.2656 8.80151 34.4316 9.35815 34.4316 10.0417C34.4316 10.5691 34.3359 11.0125 34.1445 11.3718C33.9531 11.7312 33.709 12.0144 33.4121 12.2214C33.1191 12.4246 32.8203 12.5593 32.5156 12.6257C32.1016 12.7078 31.502 12.7488 30.7168 12.7488H29.5859V15.989H27.8516ZM29.5859 8.85229V11.2898H30.5352C31.2188 11.2898 31.6758 11.2449 31.9062 11.155C32.1367 11.0652 32.3164 10.9246 32.4453 10.7332C32.5781 10.5417 32.6445 10.3191 32.6445 10.0652C32.6445 9.75269 32.5527 9.49487 32.3691 9.29175C32.1855 9.08862 31.9531 8.96167 31.6719 8.91089C31.4648 8.87183 31.0488 8.85229 30.4238 8.85229H29.5859ZM35.4336 13.7097L37.0273 13.5164C37.0781 13.9226 37.2148 14.2332 37.4375 14.448C37.6602 14.6628 37.9297 14.7703 38.2461 14.7703C38.5859 14.7703 38.8711 14.6414 39.1016 14.3835C39.3359 14.1257 39.4531 13.7781 39.4531 13.3406C39.4531 12.9265 39.3418 12.5984 39.1191 12.3562C38.8965 12.114 38.625 11.9929 38.3047 11.9929C38.0938 11.9929 37.8418 12.0339 37.5488 12.116L37.7305 10.7742C38.1758 10.7859 38.5156 10.6902 38.75 10.4871C38.9844 10.28 39.1016 10.0066 39.1016 9.66675C39.1016 9.37769 39.0156 9.14722 38.8438 8.97534C38.6719 8.80347 38.4434 8.71753 38.1582 8.71753C37.877 8.71753 37.6367 8.81519 37.4375 9.0105C37.2383 9.20581 37.1172 9.49097 37.0742 9.86597L35.5566 9.60815C35.6621 9.08862 35.8203 8.67456 36.0312 8.36597C36.2461 8.05347 36.543 7.80933 36.9219 7.63354C37.3047 7.45386 37.7324 7.36401 38.2051 7.36401C39.0137 7.36401 39.6621 7.62183 40.1504 8.13745C40.5527 8.55933 40.7539 9.03589 40.7539 9.56714C40.7539 10.321 40.3418 10.9226 39.5176 11.3718C40.0098 11.4773 40.4023 11.7136 40.6953 12.0808C40.9922 12.448 41.1406 12.8914 41.1406 13.4109C41.1406 14.1648 40.8652 14.8074 40.3145 15.3386C39.7637 15.8699 39.0781 16.1355 38.2578 16.1355C37.4805 16.1355 36.8359 15.9128 36.3242 15.4675C35.8125 15.0183 35.5156 14.4324 35.4336 13.7097ZM42.5586 15.989V7.39917H44.293V11.2136L47.7969 7.39917H50.1289L46.8945 10.7449L50.3047 15.989H48.0605L45.6992 11.9578L44.293 13.3933V15.989H42.5586ZM55.0566 15.989H53.4102V9.78394C52.8086 10.3464 52.0996 10.7625 51.2832 11.032V9.53784C51.7129 9.39722 52.1797 9.13159 52.6836 8.74097C53.1875 8.34644 53.5332 7.88745 53.7207 7.36401H55.0566V15.989ZM57.6875 13.698V12.0515H60.9219V13.698H57.6875ZM64.748 15.989V14.2605H61.2324V12.8191L64.959 7.36401H66.3418V12.8132H67.4082V14.2605H66.3418V15.989H64.748ZM64.748 12.8132V9.87769L62.7734 12.8132H64.748Z" fill="white"/>
</svg>
