<svg width="62" height="24" viewBox="0 0 62 24" fill="none" xmlns="http://www.w3.org/2000/svg">
<rect x="2" y="1.98901" width="59" height="20" rx="10" fill="url(#paint0_linear_83_2004)"/>
<rect x="2" y="1.98901" width="59" height="20" rx="10" stroke="#26AEB7" stroke-width="3" stroke-linejoin="round"/>
<path d="M11.959 15.989V8.85229H9.41016V7.39917H16.2363V8.85229H13.6934V15.989H11.959ZM17.3086 15.989V7.39917H19.043V15.989H17.3086ZM26.1973 12.8308L27.8789 13.364C27.6211 14.3015 27.1914 14.9988 26.5898 15.4558C25.9922 15.9089 25.2324 16.1355 24.3105 16.1355C23.1699 16.1355 22.2324 15.7468 21.498 14.9695C20.7637 14.1882 20.3965 13.1218 20.3965 11.7703C20.3965 10.3406 20.7656 9.2312 21.5039 8.44214C22.2422 7.64917 23.2129 7.25269 24.416 7.25269C25.4668 7.25269 26.3203 7.56323 26.9766 8.18433C27.3672 8.55151 27.6602 9.07886 27.8555 9.76636L26.1387 10.1765C26.0371 9.7312 25.8242 9.37964 25.5 9.12183C25.1797 8.86401 24.7891 8.73511 24.3281 8.73511C23.6914 8.73511 23.1738 8.96362 22.7754 9.42065C22.3809 9.87769 22.1836 10.6179 22.1836 11.6414C22.1836 12.7273 22.3789 13.5007 22.7695 13.9617C23.1602 14.4226 23.668 14.6531 24.293 14.6531C24.7539 14.6531 25.1504 14.5066 25.4824 14.2136C25.8145 13.9207 26.0527 13.4597 26.1973 12.8308ZM37.1191 15.989H35.2324L34.4824 14.0378H31.0488L30.3398 15.989H28.5L31.8457 7.39917H33.6797L37.1191 15.989ZM33.9258 12.5906L32.7422 9.40308L31.582 12.5906H33.9258ZM38.0215 15.989V7.39917H40.6172L42.1758 13.2585L43.7168 7.39917H46.3184V15.989H44.707V9.22729L43.002 15.989H41.332L39.6328 9.22729V15.989H38.0215ZM51.8906 15.989H50.2441V9.78394C49.6426 10.3464 48.9336 10.7625 48.1172 11.032V9.53784C48.5469 9.39722 49.0137 9.13159 49.5176 8.74097C50.0215 8.34644 50.3672 7.88745 50.5547 7.36401H51.8906V15.989Z" fill="white"/>
<defs>
<linearGradient id="paint0_linear_83_2004" x1="31.5" y1="1.98901" x2="31.5" y2="21.989" gradientUnits="userSpaceOnUse">
<stop stop-color="#26AEB7"/>
<stop offset="1" stop-color="#00000A"/>
</linearGradient>
</defs>
</svg>
