<svg width="57" height="24" viewBox="0 0 57 24" fill="none" xmlns="http://www.w3.org/2000/svg">
<rect x="2" y="1.98901" width="54" height="20" rx="10" fill="url(#paint0_linear_64_1884)"/>
<rect x="2" y="1.98901" width="54" height="20" rx="10" stroke="#1E1744" stroke-width="3" stroke-linejoin="round"/>
<path d="M10.2031 15.989V7.39917H11.8906L15.4062 13.1355V7.39917H17.0176V15.989H15.2773L11.8145 10.3875V15.989H10.2031ZM18.8633 15.989V7.39917H22.5137C23.4316 7.39917 24.0977 7.47729 24.5117 7.63354C24.9297 7.78589 25.2637 8.05933 25.5137 8.45386C25.7637 8.84839 25.8887 9.29956 25.8887 9.80737C25.8887 10.4519 25.6992 10.9851 25.3203 11.407C24.9414 11.825 24.375 12.0886 23.6211 12.198C23.9961 12.4167 24.3047 12.657 24.5469 12.9187C24.793 13.1804 25.123 13.6453 25.5371 14.3132L26.5859 15.989H24.5117L23.2578 14.1199C22.8125 13.4519 22.5078 13.032 22.3438 12.8601C22.1797 12.6843 22.0059 12.5652 21.8223 12.5027C21.6387 12.4363 21.3477 12.4031 20.9492 12.4031H20.5977V15.989H18.8633ZM20.5977 11.032H21.8809C22.7129 11.032 23.2324 10.9968 23.4395 10.9265C23.6465 10.8562 23.8086 10.7351 23.9258 10.5632C24.043 10.3914 24.1016 10.1765 24.1016 9.9187C24.1016 9.62964 24.0234 9.39722 23.8672 9.22144C23.7148 9.04175 23.498 8.92847 23.2168 8.88159C23.0762 8.86206 22.6543 8.85229 21.9512 8.85229H20.5977V11.032ZM31.3789 15.989H29.7324V9.78394C29.1309 10.3464 28.4219 10.7625 27.6055 11.032V9.53784C28.0352 9.39722 28.502 9.13159 29.0059 8.74097C29.5098 8.34644 29.8555 7.88745 30.043 7.36401H31.3789V15.989ZM34.2031 7.39917H37.373C38.0879 7.39917 38.6328 7.45386 39.0078 7.56323C39.5117 7.71167 39.9434 7.97534 40.3027 8.35425C40.6621 8.73315 40.9355 9.198 41.123 9.74878C41.3105 10.2957 41.4043 10.9714 41.4043 11.7761C41.4043 12.4832 41.3164 13.0925 41.1406 13.6042C40.9258 14.2292 40.6191 14.7351 40.2207 15.1218C39.9199 15.4148 39.5137 15.6433 39.002 15.8074C38.6191 15.9285 38.1074 15.989 37.4668 15.989H34.2031V7.39917ZM35.9375 8.85229V14.5417H37.2324C37.7168 14.5417 38.0664 14.5144 38.2812 14.4597C38.5625 14.3894 38.7949 14.2703 38.9785 14.1023C39.166 13.9343 39.3184 13.6589 39.4355 13.2761C39.5527 12.8894 39.6113 12.364 39.6113 11.7C39.6113 11.0359 39.5527 10.5261 39.4355 10.1707C39.3184 9.81519 39.1543 9.53784 38.9434 9.33862C38.7324 9.1394 38.4648 9.00464 38.1406 8.93433C37.8984 8.87964 37.4238 8.85229 36.7168 8.85229H35.9375ZM46.7305 15.989H45.084V9.78394C44.4824 10.3464 43.7734 10.7625 42.957 11.032V9.53784C43.3867 9.39722 43.8535 9.13159 44.3574 8.74097C44.8613 8.34644 45.207 7.88745 45.3945 7.36401H46.7305V15.989Z" fill="white"/>
<defs>
<linearGradient id="paint0_linear_64_1884" x1="29" y1="1.98901" x2="29" y2="21.989" gradientUnits="userSpaceOnUse">
<stop stop-color="#1E1744"/>
<stop offset="1" stop-color="#066BF9"/>
</linearGradient>
</defs>
</svg>
