<svg width="51" height="24" viewBox="0 0 51 24" fill="none" xmlns="http://www.w3.org/2000/svg">
<rect x="2" y="1.98901" width="48" height="20" rx="10" fill="url(#paint0_linear_63_1802)"/>
<rect x="2" y="1.98901" width="48" height="20" rx="10" stroke="#219C64" stroke-width="3" stroke-linejoin="round"/>
<path d="M10.2852 15.989V7.39917H12.8809L14.4395 13.2585L15.9805 7.39917H18.582V15.989H16.9707V9.22729L15.2656 15.989H13.5957L11.8965 9.22729V15.989H10.2852ZM22.2383 15.989V8.85229H19.6895V7.39917H26.5156V8.85229H23.9727V15.989H22.2383ZM27.0664 11.7468C27.0664 10.8718 27.1973 10.1375 27.459 9.5437C27.6543 9.1062 27.9199 8.71362 28.2559 8.36597C28.5957 8.01831 28.9668 7.7605 29.3691 7.59253C29.9043 7.36597 30.5215 7.25269 31.2207 7.25269C32.4863 7.25269 33.498 7.64526 34.2559 8.43042C35.0176 9.21558 35.3984 10.3074 35.3984 11.7058C35.3984 13.0925 35.0215 14.1785 34.2676 14.9636C33.5137 15.7449 32.5059 16.1355 31.2441 16.1355C29.9668 16.1355 28.9512 15.7468 28.1973 14.9695C27.4434 14.1882 27.0664 13.114 27.0664 11.7468ZM28.8535 11.6882C28.8535 12.6609 29.0781 13.3992 29.5273 13.9031C29.9766 14.4031 30.5469 14.6531 31.2383 14.6531C31.9297 14.6531 32.4961 14.405 32.9375 13.9089C33.3828 13.4089 33.6055 12.6609 33.6055 11.6648C33.6055 10.6804 33.3887 9.94604 32.9551 9.46167C32.5254 8.97729 31.9531 8.73511 31.2383 8.73511C30.5234 8.73511 29.9473 8.9812 29.5098 9.47339C29.0723 9.96167 28.8535 10.7 28.8535 11.6882ZM40.6074 15.989H38.9609V9.78394C38.3594 10.3464 37.6504 10.7625 36.834 11.032V9.53784C37.2637 9.39722 37.7305 9.13159 38.2344 8.74097C38.7383 8.34644 39.084 7.88745 39.2715 7.36401H40.6074V15.989Z" fill="white"/>
<defs>
<linearGradient id="paint0_linear_63_1802" x1="26" y1="1.98901" x2="26" y2="21.989" gradientUnits="userSpaceOnUse">
<stop stop-color="#AD006F"/>
<stop offset="1" stop-color="#219C64"/>
</linearGradient>
</defs>
</svg>
