<svg width="51" height="24" viewBox="0 0 51 24" fill="none" xmlns="http://www.w3.org/2000/svg">
<rect x="2" y="1.98901" width="48" height="20" rx="10" fill="url(#paint0_linear_40_2560)"/>
<rect x="2" y="1.98901" width="48" height="20" rx="10" stroke="#ED6955" stroke-width="3" stroke-linejoin="round"/>
<path d="M10.1914 7.39917H13.3613C14.0762 7.39917 14.6211 7.45386 14.9961 7.56323C15.5 7.71167 15.9316 7.97534 16.291 8.35425C16.6504 8.73315 16.9238 9.198 17.1113 9.74878C17.2988 10.2957 17.3926 10.9714 17.3926 11.7761C17.3926 12.4832 17.3047 13.0925 17.1289 13.6042C16.9141 14.2292 16.6074 14.7351 16.209 15.1218C15.9082 15.4148 15.502 15.6433 14.9902 15.8074C14.6074 15.9285 14.0957 15.989 13.4551 15.989H10.1914V7.39917ZM11.9258 8.85229V14.5417H13.2207C13.7051 14.5417 14.0547 14.5144 14.2695 14.4597C14.5508 14.3894 14.7832 14.2703 14.9668 14.1023C15.1543 13.9343 15.3066 13.6589 15.4238 13.2761C15.541 12.8894 15.5996 12.364 15.5996 11.7C15.5996 11.0359 15.541 10.5261 15.4238 10.1707C15.3066 9.81519 15.1426 9.53784 14.9316 9.33862C14.7207 9.1394 14.4531 9.00464 14.1289 8.93433C13.8867 8.87964 13.4121 8.85229 12.7051 8.85229H11.9258ZM18.8691 15.989V7.39917H21.6523C22.707 7.39917 23.3945 7.44214 23.7148 7.52808C24.207 7.65698 24.6191 7.93823 24.9512 8.37183C25.2832 8.80151 25.4492 9.35815 25.4492 10.0417C25.4492 10.5691 25.3535 11.0125 25.1621 11.3718C24.9707 11.7312 24.7266 12.0144 24.4297 12.2214C24.1367 12.4246 23.8379 12.5593 23.5332 12.6257C23.1191 12.7078 22.5195 12.7488 21.7344 12.7488H20.6035V15.989H18.8691ZM20.6035 8.85229V11.2898H21.5527C22.2363 11.2898 22.6934 11.2449 22.9238 11.155C23.1543 11.0652 23.334 10.9246 23.4629 10.7332C23.5957 10.5417 23.6621 10.3191 23.6621 10.0652C23.6621 9.75269 23.5703 9.49487 23.3867 9.29175C23.2031 9.08862 22.9707 8.96167 22.6895 8.91089C22.4824 8.87183 22.0664 8.85229 21.4414 8.85229H20.6035ZM26.8496 15.989V7.39917H29.4453L31.0039 13.2585L32.5449 7.39917H35.1465V15.989H33.5352V9.22729L31.8301 15.989H30.1602L28.4609 9.22729V15.989H26.8496ZM40.7188 15.989H39.0723V9.78394C38.4707 10.3464 37.7617 10.7625 36.9453 11.032V9.53784C37.375 9.39722 37.8418 9.13159 38.3457 8.74097C38.8496 8.34644 39.1953 7.88745 39.3828 7.36401H40.7188V15.989Z" fill="white"/>
<defs>
<linearGradient id="paint0_linear_40_2560" x1="26" y1="1.98901" x2="26" y2="21.989" gradientUnits="userSpaceOnUse">
<stop stop-color="#B3BAFF"/>
<stop offset="1" stop-color="#ED6955"/>
</linearGradient>
</defs>
</svg>
