<svg width="57" height="24" viewBox="0 0 57 24" fill="none" xmlns="http://www.w3.org/2000/svg">
<rect x="2" y="1.98901" width="54" height="20" rx="10" fill="url(#paint0_linear_42_2726)"/>
<rect x="2" y="1.98901" width="54" height="20" rx="10" stroke="#FFA521" stroke-width="3" stroke-linejoin="round"/>
<path d="M10.2031 15.989V7.39917H16.0918V8.85229H11.9375V10.8855H15.5234V12.3386H11.9375V15.989H10.2031ZM17.5508 15.989V7.39917H19.2852V11.2136L22.7891 7.39917H25.1211L21.8867 10.7449L25.2969 15.989H23.0527L20.6914 11.9578L19.2852 13.3933V15.989H17.5508ZM26.1992 15.989V7.39917H28.9824C30.0371 7.39917 30.7246 7.44214 31.0449 7.52808C31.5371 7.65698 31.9492 7.93823 32.2812 8.37183C32.6133 8.80151 32.7793 9.35815 32.7793 10.0417C32.7793 10.5691 32.6836 11.0125 32.4922 11.3718C32.3008 11.7312 32.0566 12.0144 31.7598 12.2214C31.4668 12.4246 31.168 12.5593 30.8633 12.6257C30.4492 12.7078 29.8496 12.7488 29.0645 12.7488H27.9336V15.989H26.1992ZM27.9336 8.85229V11.2898H28.8828C29.5664 11.2898 30.0234 11.2449 30.2539 11.155C30.4844 11.0652 30.6641 10.9246 30.793 10.7332C30.9258 10.5417 30.9922 10.3191 30.9922 10.0652C30.9922 9.75269 30.9004 9.49487 30.7168 9.29175C30.5332 9.08862 30.3008 8.96167 30.0195 8.91089C29.8125 8.87183 29.3965 8.85229 28.7715 8.85229H27.9336ZM34.209 7.39917H37.6426C38.3223 7.39917 38.8281 7.42847 39.1602 7.48706C39.4961 7.54175 39.7949 7.65894 40.0566 7.83862C40.3223 8.01831 40.543 8.25854 40.7188 8.55933C40.8945 8.8562 40.9824 9.19019 40.9824 9.56128C40.9824 9.96362 40.873 10.3328 40.6543 10.6687C40.4395 11.0046 40.1465 11.2566 39.7754 11.4246C40.2988 11.5769 40.7012 11.8367 40.9824 12.2039C41.2637 12.571 41.4043 13.0027 41.4043 13.4988C41.4043 13.8894 41.3125 14.2703 41.1289 14.6414C40.9492 15.0085 40.7012 15.3035 40.3848 15.5261C40.0723 15.7449 39.6855 15.8796 39.2246 15.9304C38.9355 15.9617 38.2383 15.9812 37.1328 15.989H34.209V7.39917ZM35.9434 8.82886V10.8152H37.0801C37.7559 10.8152 38.1758 10.8054 38.3398 10.7859C38.6367 10.7507 38.8691 10.6492 39.0371 10.4812C39.209 10.3093 39.2949 10.0847 39.2949 9.80737C39.2949 9.54175 39.2207 9.3269 39.0723 9.16284C38.9277 8.99487 38.7109 8.89331 38.4219 8.85815C38.25 8.83862 37.7559 8.82886 36.9395 8.82886H35.9434ZM35.9434 12.2449V14.5417H37.5488C38.1738 14.5417 38.5703 14.5242 38.7383 14.489C38.9961 14.4421 39.2051 14.3289 39.3652 14.1492C39.5293 13.9656 39.6113 13.7214 39.6113 13.4167C39.6113 13.1589 39.5488 12.9402 39.4238 12.7605C39.2988 12.5808 39.1172 12.45 38.8789 12.3679C38.6445 12.2859 38.1328 12.2449 37.3438 12.2449H35.9434ZM45.7402 15.989V14.2605H42.2246V12.8191L45.9512 7.36401H47.334V12.8132H48.4004V14.2605H47.334V15.989H45.7402ZM45.7402 12.8132V9.87769L43.7656 12.8132H45.7402Z" fill="white"/>
<defs>
<linearGradient id="paint0_linear_42_2726" x1="29" y1="1.98901" x2="29" y2="21.989" gradientUnits="userSpaceOnUse">
<stop stop-color="#FFA521"/>
<stop offset="1" stop-color="#9B439B"/>
</linearGradient>
</defs>
</svg>
