<svg width="55" height="24" viewBox="0 0 55 24" fill="none" xmlns="http://www.w3.org/2000/svg">
<rect x="2" y="1.98901" width="52" height="20" rx="10" fill="url(#paint0_linear_42_2728)"/>
<rect x="2" y="1.98901" width="52" height="20" rx="10" stroke="#2C3BAA" stroke-width="3" stroke-linejoin="round"/>
<path d="M10.1992 15.989V7.39917H16.0879V8.85229H11.9336V10.8855H15.5195V12.3386H11.9336V15.989H10.1992ZM21.5195 12.8308V11.3835H25.2578V14.8054C24.8945 15.157 24.3672 15.4675 23.6758 15.7371C22.9883 16.0027 22.291 16.1355 21.584 16.1355C20.6855 16.1355 19.9023 15.948 19.2344 15.573C18.5664 15.1941 18.0645 14.655 17.7285 13.9558C17.3926 13.2527 17.2246 12.489 17.2246 11.6648C17.2246 10.7703 17.4121 9.97534 17.7871 9.28003C18.1621 8.58472 18.7109 8.05151 19.4336 7.68042C19.9844 7.39526 20.6699 7.25269 21.4902 7.25269C22.5566 7.25269 23.3887 7.47729 23.9863 7.92651C24.5879 8.37183 24.9746 8.98901 25.1465 9.77808L23.4238 10.1003C23.3027 9.67847 23.0742 9.34644 22.7383 9.10425C22.4062 8.85815 21.9902 8.73511 21.4902 8.73511C20.7324 8.73511 20.1289 8.97534 19.6797 9.45581C19.2344 9.93628 19.0117 10.6492 19.0117 11.5945C19.0117 12.614 19.2383 13.3796 19.6914 13.8914C20.1445 14.3992 20.7383 14.6531 21.4727 14.6531C21.8359 14.6531 22.1992 14.5828 22.5625 14.4421C22.9297 14.2976 23.2441 14.1238 23.5059 13.9207V12.8308H21.5195ZM26.875 15.989V7.39917H32.7637V8.85229H28.6094V10.8855H32.1953V12.3386H28.6094V15.989H26.875ZM38.0488 15.989H36.4023V9.78394C35.8008 10.3464 35.0918 10.7625 34.2754 11.032V9.53784C34.7051 9.39722 35.1719 9.13159 35.6758 8.74097C36.1797 8.34644 36.5254 7.88745 36.7129 7.36401H38.0488V15.989ZM43.2988 7.36401C44.1309 7.36401 44.7812 7.66089 45.25 8.25464C45.8086 8.95776 46.0879 10.1238 46.0879 11.7527C46.0879 13.3777 45.8066 14.5457 45.2441 15.2566C44.7793 15.8425 44.1309 16.1355 43.2988 16.1355C42.4629 16.1355 41.7891 15.8152 41.2773 15.1746C40.7656 14.53 40.5098 13.3835 40.5098 11.7351C40.5098 10.1179 40.791 8.95386 41.3535 8.24292C41.8184 7.65698 42.4668 7.36401 43.2988 7.36401ZM43.2988 8.72925C43.0996 8.72925 42.9219 8.7937 42.7656 8.92261C42.6094 9.04761 42.4883 9.27417 42.4023 9.60229C42.2891 10.0281 42.2324 10.7449 42.2324 11.7527C42.2324 12.7605 42.2832 13.4539 42.3848 13.8328C42.4863 14.2078 42.6133 14.4578 42.7656 14.5828C42.9219 14.7078 43.0996 14.7703 43.2988 14.7703C43.498 14.7703 43.6758 14.7078 43.832 14.5828C43.9883 14.4539 44.1094 14.2253 44.1953 13.8972C44.3086 13.4753 44.3652 12.7605 44.3652 11.7527C44.3652 10.7449 44.3145 10.0535 44.2129 9.67847C44.1113 9.29956 43.9824 9.04761 43.8262 8.92261C43.6738 8.7937 43.498 8.72925 43.2988 8.72925Z" fill="white"/>
<defs>
<linearGradient id="paint0_linear_42_2728" x1="28" y1="1.98901" x2="28" y2="21.989" gradientUnits="userSpaceOnUse">
<stop stop-color="#BF9015"/>
<stop offset="1" stop-color="#2C3BAA"/>
</linearGradient>
</defs>
</svg>
