<svg width="78" height="37" viewBox="0 0 78 37" fill="none" xmlns="http://www.w3.org/2000/svg">
<path opacity="0.3" d="M74.1945 16.6362C75.7919 18.6128 76.6788 21.1092 76.6593 23.6782L76.6437 24.1929C76.5885 25.2002 76.3924 26.2132 76.045 27.2046L75.8868 27.6284C73.6531 33.2534 67.2286 36.0262 61.6036 33.7925L60.4005 33.3149L61.1661 32.271L72.6105 16.6733L73.379 15.6265L74.1945 16.6362Z" fill="url(#paint0_linear_92_5630)" stroke="#690042" stroke-width="2"/>
<path opacity="0.5" d="M64.0743 1.36816L64.4376 1.37402C66.2485 1.43362 67.9535 1.93639 69.4445 2.77637L70.1154 3.15527L69.921 3.90039L65.0421 22.6201L64.8468 23.3682H49.5831L50.0558 22.0342L57.1359 2.03418L57.3712 1.36816H64.0743Z" fill="url(#paint1_linear_92_5630)" stroke="#690042" stroke-width="2"/>
<path opacity="0.8" d="M41.1412 19.3784L50.1744 27.5396L50.9996 28.2856L50.1705 29.0269L43.6344 34.8716L43.108 35.3433L42.4879 35.0034L34.6666 30.7212L33.7897 30.2407L34.2701 29.3638L39.5944 19.6401L40.2018 18.5298L41.1412 19.3784Z" fill="url(#paint2_linear_92_5630)" stroke="#690042" stroke-width="2"/>
<path opacity="0.2" d="M52.0011 4.32056L49.8126 16.5745L49.6544 17.4592L48.7579 17.3967L36.6144 16.5413L35.8263 16.4856L35.6974 15.7063L34.2472 6.91138L34.0841 5.92505L35.0704 5.76196L50.8536 3.15845L52.2501 2.92798L52.0011 4.32056Z" fill="url(#paint3_linear_92_5630)" stroke="#690042" stroke-width="2"/>
<path opacity="0.6" d="M33.2313 19.5757L30.6815 33.6431L30.5028 34.6274L29.5194 34.4487L19.869 32.6997L19.2225 32.5825L19.0731 31.9419L16.9208 22.6733L16.6893 21.6802L17.6864 21.4692L32.0399 18.4185L33.4969 18.1089L33.2313 19.5757Z" fill="url(#paint4_linear_92_5630)" stroke="#690042" stroke-width="2"/>
<path opacity="0.4" d="M31.0814 2.36816V9.74219L30.4603 9.99609L16.8812 15.5576L15.973 15.9287L15.5844 15.0283L11.2748 5.04492L10.9183 4.21875L11.7015 3.77734C13.2923 2.88087 15.1268 2.36817 17.0736 2.36816H31.0814Z" fill="url(#paint5_linear_92_5630)" stroke="#690042" stroke-width="2"/>
<path opacity="0.7" d="M8.11047 11.2527L16.1925 29.9724L16.795 31.3689H12.0734C6.02115 31.3689 1.07349 26.4211 1.07336 20.3689C1.07336 16.2599 3.35375 12.6648 6.70129 10.7781L7.67004 10.2322L8.11047 11.2527Z" fill="url(#paint6_linear_92_5630)" stroke="#690042" stroke-width="2"/>
<defs>
<linearGradient id="paint0_linear_92_5630" x1="66.6165" y1="34.7074" x2="73.5261" y2="17.309" gradientUnits="userSpaceOnUse">
<stop stop-color="#690042"/>
<stop offset="1" stop-color="#6BCDFF"/>
</linearGradient>
<linearGradient id="paint1_linear_92_5630" x1="59.976" y1="22.3682" x2="59.976" y2="2.36816" gradientUnits="userSpaceOnUse">
<stop stop-color="#690042"/>
<stop offset="1" stop-color="#6BCDFF"/>
</linearGradient>
<linearGradient id="paint2_linear_92_5630" x1="40.3361" y1="32.6806" x2="45.6605" y2="22.9573" gradientUnits="userSpaceOnUse">
<stop stop-color="#690042"/>
<stop offset="1" stop-color="#6BCDFF"/>
</linearGradient>
<linearGradient id="paint3_linear_92_5630" x1="45.0378" y1="17.0218" x2="43.1275" y2="5.44345" gradientUnits="userSpaceOnUse">
<stop stop-color="#690042"/>
<stop offset="1" stop-color="#6BCDFF"/>
</linearGradient>
<linearGradient id="paint4_linear_92_5630" x1="23.019" y1="32.2571" x2="25.5682" y2="18.1886" gradientUnits="userSpaceOnUse">
<stop stop-color="#690042"/>
<stop offset="1" stop-color="#6BCDFF"/>
</linearGradient>
<linearGradient id="paint5_linear_92_5630" x1="21.137" y1="14.6319" x2="21.137" y2="3.36826" gradientUnits="userSpaceOnUse">
<stop stop-color="#690042"/>
<stop offset="1" stop-color="#6BCDFF"/>
</linearGradient>
<linearGradient id="paint6_linear_92_5630" x1="8.67376" y1="30.3687" x2="8.67376" y2="11.6492" gradientUnits="userSpaceOnUse">
<stop stop-color="#690042"/>
<stop offset="1" stop-color="#6BCDFF"/>
</linearGradient>
</defs>
</svg>
