<svg width="57" height="24" viewBox="0 0 57 24" fill="none" xmlns="http://www.w3.org/2000/svg">
<rect x="2" y="1.98901" width="54" height="20" rx="10" fill="url(#paint0_linear_35_1429)"/>
<rect x="2" y="1.98901" width="54" height="20" rx="10" stroke="#CFC629" stroke-width="3" stroke-linejoin="round"/>
<path d="M17.9375 15.989H16.0508L15.3008 14.0378H11.8672L11.1582 15.989H9.31836L12.6641 7.39917H14.498L17.9375 15.989ZM14.7441 12.5906L13.5605 9.40308L12.4004 12.5906H14.7441ZM18.9102 15.989V7.46948H20.6445V14.5417H24.957V15.989H18.9102ZM26.1992 15.989V7.39917H28.9824C30.0371 7.39917 30.7246 7.44214 31.0449 7.52808C31.5371 7.65698 31.9492 7.93823 32.2812 8.37183C32.6133 8.80151 32.7793 9.35815 32.7793 10.0417C32.7793 10.5691 32.6836 11.0125 32.4922 11.3718C32.3008 11.7312 32.0566 12.0144 31.7598 12.2214C31.4668 12.4246 31.168 12.5593 30.8633 12.6257C30.4492 12.7078 29.8496 12.7488 29.0645 12.7488H27.9336V15.989H26.1992ZM27.9336 8.85229V11.2898H28.8828C29.5664 11.2898 30.0234 11.2449 30.2539 11.155C30.4844 11.0652 30.6641 10.9246 30.793 10.7332C30.9258 10.5417 30.9922 10.3191 30.9922 10.0652C30.9922 9.75269 30.9004 9.49487 30.7168 9.29175C30.5332 9.08862 30.3008 8.96167 30.0195 8.91089C29.8125 8.87183 29.3965 8.85229 28.7715 8.85229H27.9336ZM34.2266 15.989V7.39917H35.9609V11.2136L39.4648 7.39917H41.7969L38.5625 10.7449L41.9727 15.989H39.7285L37.3672 11.9578L35.9609 13.3933V15.989H34.2266ZM46.7246 15.989H45.0781V9.78394C44.4766 10.3464 43.7676 10.7625 42.9512 11.032V9.53784C43.3809 9.39722 43.8477 9.13159 44.3516 8.74097C44.8555 8.34644 45.2012 7.88745 45.3887 7.36401H46.7246V15.989Z" fill="white"/>
<defs>
<linearGradient id="paint0_linear_35_1429" x1="29" y1="1.98901" x2="29" y2="21.989" gradientUnits="userSpaceOnUse">
<stop stop-color="#CFC629"/>
<stop offset="1" stop-color="#524818"/>
</linearGradient>
</defs>
</svg>
