<svg width="52" height="24" viewBox="0 0 52 24" fill="none" xmlns="http://www.w3.org/2000/svg">
<g clip-path="url(#clip0_97_5756)">
<rect x="1.52771" y="2.01123" width="50" height="20" rx="10" fill="#E0A734"/>
<rect width="20" height="20" transform="translate(16.5277 2.01123)" fill="#047BCC"/>
<path d="M17.9613 13.2163L19.6488 13.0522C19.7504 13.6187 19.9554 14.0347 20.264 14.3003C20.5765 14.5659 20.9965 14.6987 21.5238 14.6987C22.0824 14.6987 22.5023 14.5815 22.7836 14.3472C23.0687 14.1089 23.2113 13.8315 23.2113 13.5151C23.2113 13.312 23.1508 13.1401 23.0297 12.9995C22.9125 12.855 22.7054 12.73 22.4086 12.6245C22.2054 12.5542 21.7426 12.4292 21.0199 12.2495C20.0902 12.019 19.4379 11.7358 19.0629 11.3999C18.5355 10.9272 18.2719 10.3511 18.2719 9.67139C18.2719 9.23389 18.3949 8.82568 18.641 8.44678C18.891 8.06396 19.2484 7.77295 19.7133 7.57373C20.182 7.37451 20.7465 7.2749 21.4066 7.2749C22.4847 7.2749 23.2953 7.51123 23.8383 7.98389C24.3851 8.45654 24.6722 9.0874 24.6996 9.87646L22.9652 9.95264C22.891 9.51123 22.7308 9.19482 22.4847 9.00342C22.2426 8.80811 21.8773 8.71045 21.389 8.71045C20.8851 8.71045 20.4906 8.81396 20.2054 9.021C20.0219 9.15381 19.9301 9.33154 19.9301 9.5542C19.9301 9.75732 20.016 9.93115 20.1879 10.0757C20.4066 10.2593 20.9379 10.4507 21.7816 10.6499C22.6254 10.8491 23.2484 11.0562 23.6508 11.271C24.057 11.4819 24.3734 11.7729 24.6 12.144C24.8304 12.5112 24.9457 12.9663 24.9457 13.5093C24.9457 14.0015 24.809 14.4624 24.5355 14.8921C24.2621 15.3218 23.8754 15.6421 23.3754 15.853C22.8754 16.0601 22.2523 16.1636 21.5062 16.1636C20.4203 16.1636 19.5863 15.9136 19.0043 15.4136C18.4222 14.9097 18.0746 14.1772 17.9613 13.2163ZM25.514 16.1577L27.641 7.2749H28.8773L26.7269 16.1577H25.514ZM31.6781 16.0112V8.87451H29.1293V7.42139H35.9554V8.87451H33.4125V16.0112H31.6781Z" fill="white"/>
</g>
<rect x="1.52771" y="2.01123" width="50" height="20" rx="10" stroke="#997D0B" stroke-width="3" stroke-linejoin="round"/>
<defs>
<clipPath id="clip0_97_5756">
<rect x="1.52771" y="2.01123" width="50" height="20" rx="10" fill="white"/>
</clipPath>
</defs>
</svg>
