<svg width="52" height="24" viewBox="0 0 52 24" fill="none" xmlns="http://www.w3.org/2000/svg">
<rect x="2" y="1.98901" width="49" height="20" rx="10" fill="url(#paint0_linear_64_1848)"/>
<rect x="2" y="1.98901" width="49" height="20" rx="10" stroke="#7588FF" stroke-width="3" stroke-linejoin="round"/>
<path d="M10.0117 15.989V7.39917H12.6074L14.166 13.2585L15.707 7.39917H18.3086V15.989H16.6973V9.22729L14.9922 15.989H13.3223L11.623 9.22729V15.989H10.0117ZM21.9648 15.989V8.85229H19.416V7.39917H26.2422V8.85229H23.6992V15.989H21.9648ZM27.373 15.989V7.39917H31.0234C31.9414 7.39917 32.6074 7.47729 33.0215 7.63354C33.4395 7.78589 33.7734 8.05933 34.0234 8.45386C34.2734 8.84839 34.3984 9.29956 34.3984 9.80737C34.3984 10.4519 34.209 10.9851 33.8301 11.407C33.4512 11.825 32.8848 12.0886 32.1309 12.198C32.5059 12.4167 32.8145 12.657 33.0566 12.9187C33.3027 13.1804 33.6328 13.6453 34.0469 14.3132L35.0957 15.989H33.0215L31.7676 14.1199C31.3223 13.4519 31.0176 13.032 30.8535 12.8601C30.6895 12.6843 30.5156 12.5652 30.332 12.5027C30.1484 12.4363 29.8574 12.4031 29.459 12.4031H29.1074V15.989H27.373ZM29.1074 11.032H30.3906C31.2227 11.032 31.7422 10.9968 31.9492 10.9265C32.1562 10.8562 32.3184 10.7351 32.4355 10.5632C32.5527 10.3914 32.6113 10.1765 32.6113 9.9187C32.6113 9.62964 32.5332 9.39722 32.377 9.22144C32.2246 9.04175 32.0078 8.92847 31.7266 8.88159C31.5859 8.86206 31.1641 8.85229 30.4609 8.85229H29.1074V11.032ZM36.0449 15.989V7.39917H39.6953C40.6133 7.39917 41.2793 7.47729 41.6934 7.63354C42.1113 7.78589 42.4453 8.05933 42.6953 8.45386C42.9453 8.84839 43.0703 9.29956 43.0703 9.80737C43.0703 10.4519 42.8809 10.9851 42.502 11.407C42.123 11.825 41.5566 12.0886 40.8027 12.198C41.1777 12.4167 41.4863 12.657 41.7285 12.9187C41.9746 13.1804 42.3047 13.6453 42.7188 14.3132L43.7676 15.989H41.6934L40.4395 14.1199C39.9941 13.4519 39.6895 13.032 39.5254 12.8601C39.3613 12.6843 39.1875 12.5652 39.0039 12.5027C38.8203 12.4363 38.5293 12.4031 38.1309 12.4031H37.7793V15.989H36.0449ZM37.7793 11.032H39.0625C39.8945 11.032 40.4141 10.9968 40.6211 10.9265C40.8281 10.8562 40.9902 10.7351 41.1074 10.5632C41.2246 10.3914 41.2832 10.1765 41.2832 9.9187C41.2832 9.62964 41.2051 9.39722 41.0488 9.22144C40.8965 9.04175 40.6797 8.92847 40.3984 8.88159C40.2578 8.86206 39.8359 8.85229 39.1328 8.85229H37.7793V11.032Z" fill="white"/>
<defs>
<linearGradient id="paint0_linear_64_1848" x1="26.5" y1="1.98901" x2="26.5" y2="21.989" gradientUnits="userSpaceOnUse">
<stop stop-color="#7588FF"/>
<stop offset="1" stop-color="#4D0000"/>
</linearGradient>
</defs>
</svg>
