<svg width="81" height="30" viewBox="0 0 81 30" fill="none" xmlns="http://www.w3.org/2000/svg">
<path d="M74.3429 29.9807C71.1879 29.9807 68.6309 25.7833 68.6309 20.6064V9.66947C68.6309 4.49257 71.1879 0.295166 74.3429 0.295166C77.4979 0.295166 80.0549 4.49257 80.0549 9.66947V20.6064C80.0549 25.7834 77.4979 29.9807 74.3429 29.9807Z" fill="url(#paint0_radial_89_4265)"/>
<path d="M62.9188 29.9807C59.7638 29.9807 57.2068 25.7833 57.2068 20.6064V9.66947C57.2068 4.49257 59.7638 0.295166 62.9188 0.295166C66.0738 0.295166 68.6308 4.49257 68.6308 9.66947V20.6064C68.6308 25.7834 66.0738 29.9807 62.9188 29.9807Z" fill="url(#paint1_radial_89_4265)"/>
<path d="M51.495 29.9807C48.34 29.9807 45.783 25.7833 45.783 20.6064V9.66947C45.783 4.49257 48.34 0.295166 51.495 0.295166C54.65 0.295166 57.207 4.49257 57.207 9.66947V20.6064C57.207 25.7834 54.65 29.9807 51.495 29.9807Z" fill="url(#paint2_radial_89_4265)"/>
<path d="M40.0709 29.9807C36.9159 29.9807 34.3589 25.7833 34.3589 20.6064V9.66947C34.3589 4.49257 36.9159 0.295166 40.0709 0.295166C43.2259 0.295166 45.7829 4.49257 45.7829 9.66947V20.6064C45.7828 25.7834 43.2258 29.9807 40.0709 29.9807Z" fill="url(#paint3_radial_89_4265)"/>
<path d="M28.6471 29.9807C25.4921 29.9807 22.9351 25.7833 22.9351 20.6064V9.66947C22.9351 4.49257 25.4921 0.295166 28.6471 0.295166C31.8021 0.295166 34.3591 4.49257 34.3591 9.66947V20.6064C34.3591 25.7834 31.8021 29.9807 28.6471 29.9807Z" fill="url(#paint4_radial_89_4265)"/>
<path d="M17.223 29.9807C14.068 29.9807 11.511 25.7833 11.511 20.6064V9.66947C11.511 4.49257 14.068 0.295166 17.223 0.295166C20.378 0.295166 22.935 4.49257 22.935 9.66947V20.6064C22.935 25.7834 20.378 29.9807 17.223 29.9807Z" fill="url(#paint5_radial_89_4265)"/>
<path d="M5.79916 29.9807C2.64416 29.9807 0.0871582 25.7834 0.0871582 20.6064V9.66947C0.0871582 4.49257 2.64416 0.295166 5.79916 0.295166C8.95416 0.295166 11.5112 4.49257 11.5112 9.66947V20.6064C11.5111 25.7834 8.95406 29.9807 5.79916 29.9807Z" fill="url(#paint6_radial_89_4265)"/>
<path d="M29.007 19.2952V10.7756H30.7413V17.8479H35.0538V19.2952H29.007ZM36.3019 19.2952V10.7053H39.9523C40.8702 10.7053 41.5363 10.7834 41.9503 10.9397C42.3683 11.092 42.7023 11.3655 42.9523 11.76C43.2023 12.1545 43.3273 12.6057 43.3273 13.1135C43.3273 13.7581 43.1378 14.2913 42.7589 14.7131C42.38 15.1311 41.8136 15.3948 41.0597 15.5042C41.4347 15.7229 41.7433 15.9631 41.9855 16.2249C42.2316 16.4866 42.5616 16.9514 42.9757 17.6194L44.0245 19.2952H41.9503L40.6964 17.426C40.2511 16.7581 39.9464 16.3381 39.7823 16.1663C39.6183 15.9905 39.4445 15.8713 39.2609 15.8088C39.0773 15.7424 38.7863 15.7092 38.3878 15.7092H38.0363V19.2952H36.3019ZM38.0363 14.3381H39.3195C40.1515 14.3381 40.671 14.303 40.8781 14.2327C41.0851 14.1624 41.2472 14.0413 41.3644 13.8694C41.4816 13.6975 41.5402 13.4827 41.5402 13.2249C41.5402 12.9358 41.462 12.7034 41.3058 12.5276C41.1534 12.3479 40.9366 12.2346 40.6554 12.1877C40.5148 12.1682 40.0929 12.1584 39.3898 12.1584H38.0363V14.3381ZM44.9738 19.2952V10.7053H48.6241C49.5421 10.7053 50.2081 10.7834 50.6222 10.9397C51.0402 11.092 51.3741 11.3655 51.6241 11.76C51.8741 12.1545 51.9991 12.6057 51.9991 13.1135C51.9991 13.7581 51.8097 14.2913 51.4308 14.7131C51.0519 15.1311 50.4855 15.3948 49.7316 15.5042C50.1066 15.7229 50.4152 15.9631 50.6573 16.2249C50.9034 16.4866 51.2335 16.9514 51.6476 17.6194L52.6964 19.2952H50.6222L49.3683 17.426C48.923 16.7581 48.6183 16.3381 48.4542 16.1663C48.2902 15.9905 48.1163 15.8713 47.9327 15.8088C47.7491 15.7424 47.4581 15.7092 47.0597 15.7092H46.7081V19.2952H44.9738ZM46.7081 14.3381H47.9913C48.8234 14.3381 49.3429 14.303 49.5499 14.2327C49.757 14.1624 49.9191 14.0413 50.0363 13.8694C50.1534 13.6975 50.212 13.4827 50.212 13.2249C50.212 12.9358 50.1339 12.7034 49.9777 12.5276C49.8253 12.3479 49.6085 12.2346 49.3273 12.1877C49.1866 12.1682 48.7648 12.1584 48.0616 12.1584H46.7081V14.3381Z" fill="white"/>
<defs>
<radialGradient id="paint0_radial_89_4265" cx="0" cy="0" r="1" gradientUnits="userSpaceOnUse" gradientTransform="translate(73.1928 10.8289) scale(10.7939 17.7152)">
<stop stop-color="#8ADFFF"/>
<stop offset="0.0415" stop-color="#7ED5F5"/>
<stop offset="0.1746" stop-color="#5DB8DB"/>
<stop offset="0.2854" stop-color="#48A6CA"/>
<stop offset="0.3593" stop-color="#41A0C4"/>
<stop offset="1" stop-color="#0A3A4D"/>
</radialGradient>
<radialGradient id="paint1_radial_89_4265" cx="0" cy="0" r="1" gradientUnits="userSpaceOnUse" gradientTransform="translate(61.7688 10.8289) scale(10.7939 17.7152)">
<stop stop-color="#8ADFFF"/>
<stop offset="0.0415" stop-color="#7ED5F5"/>
<stop offset="0.1746" stop-color="#5DB8DB"/>
<stop offset="0.2854" stop-color="#48A6CA"/>
<stop offset="0.3593" stop-color="#41A0C4"/>
<stop offset="1" stop-color="#0A3A4D"/>
</radialGradient>
<radialGradient id="paint2_radial_89_4265" cx="0" cy="0" r="1" gradientUnits="userSpaceOnUse" gradientTransform="translate(50.3449 10.8289) scale(10.7939 17.7152)">
<stop stop-color="#8ADFFF"/>
<stop offset="0.0415" stop-color="#7ED5F5"/>
<stop offset="0.1746" stop-color="#5DB8DB"/>
<stop offset="0.2854" stop-color="#48A6CA"/>
<stop offset="0.3593" stop-color="#41A0C4"/>
<stop offset="1" stop-color="#0A3A4D"/>
</radialGradient>
<radialGradient id="paint3_radial_89_4265" cx="0" cy="0" r="1" gradientUnits="userSpaceOnUse" gradientTransform="translate(38.9209 10.8289) scale(10.7939 17.7152)">
<stop stop-color="#8ADFFF"/>
<stop offset="0.0415" stop-color="#7ED5F5"/>
<stop offset="0.1746" stop-color="#5DB8DB"/>
<stop offset="0.2854" stop-color="#48A6CA"/>
<stop offset="0.3593" stop-color="#41A0C4"/>
<stop offset="1" stop-color="#0A3A4D"/>
</radialGradient>
<radialGradient id="paint4_radial_89_4265" cx="0" cy="0" r="1" gradientUnits="userSpaceOnUse" gradientTransform="translate(27.497 10.8289) scale(10.7939 17.7152)">
<stop stop-color="#8ADFFF"/>
<stop offset="0.0415" stop-color="#7ED5F5"/>
<stop offset="0.1746" stop-color="#5DB8DB"/>
<stop offset="0.2854" stop-color="#48A6CA"/>
<stop offset="0.3593" stop-color="#41A0C4"/>
<stop offset="1" stop-color="#0A3A4D"/>
</radialGradient>
<radialGradient id="paint5_radial_89_4265" cx="0" cy="0" r="1" gradientUnits="userSpaceOnUse" gradientTransform="translate(16.073 10.8289) scale(10.7939 17.7152)">
<stop stop-color="#8ADFFF"/>
<stop offset="0.0415" stop-color="#7ED5F5"/>
<stop offset="0.1746" stop-color="#5DB8DB"/>
<stop offset="0.2854" stop-color="#48A6CA"/>
<stop offset="0.3593" stop-color="#41A0C4"/>
<stop offset="1" stop-color="#0A3A4D"/>
</radialGradient>
<radialGradient id="paint6_radial_89_4265" cx="0" cy="0" r="1" gradientUnits="userSpaceOnUse" gradientTransform="translate(4.64913 10.8289) scale(10.7939 17.7152)">
<stop stop-color="#8ADFFF"/>
<stop offset="0.0415" stop-color="#7ED5F5"/>
<stop offset="0.1746" stop-color="#5DB8DB"/>
<stop offset="0.2854" stop-color="#48A6CA"/>
<stop offset="0.3593" stop-color="#41A0C4"/>
<stop offset="1" stop-color="#0A3A4D"/>
</radialGradient>
</defs>
</svg>
