<svg width="17" height="193" viewBox="0 0 17 193" fill="none" xmlns="http://www.w3.org/2000/svg">
<path d="M15.4698 192.484H1.83686C1.14546 192.484 0.584961 191.923 0.584961 191.232V181.369C0.584961 180.678 1.14546 180.117 1.83686 180.117H15.4699C16.1613 180.117 16.7218 180.678 16.7218 181.369V191.232C16.7217 191.923 16.1612 192.484 15.4698 192.484Z" fill="url(#paint0_linear_86_3238)"/>
<path d="M15.4698 192.484H1.83686C1.14546 192.484 0.584961 191.923 0.584961 191.232V181.369C0.584961 180.678 1.14546 180.117 1.83686 180.117H15.4699C16.1613 180.117 16.7218 180.678 16.7218 181.369V191.232C16.7217 191.923 16.1612 192.484 15.4698 192.484Z" fill="url(#paint1_linear_86_3238)"/>
<path d="M8.65325 180.319C10.8813 180.319 12.6874 176.022 12.6874 170.721C12.6874 165.42 10.8813 161.122 8.65325 161.122C6.42522 161.122 4.61905 165.42 4.61905 170.721C4.61905 176.022 6.42522 180.319 8.65325 180.319Z" fill="url(#paint2_radial_86_3238)"/>
<path d="M14.7217 161.122H2.58496C1.48036 161.122 0.584961 160.227 0.584961 159.122V131.558C0.584961 130.454 1.48036 129.558 2.58496 129.558H14.7217C15.8263 129.558 16.7217 130.454 16.7217 131.558V159.122C16.7217 160.227 15.8263 161.122 14.7217 161.122Z" fill="url(#paint3_linear_86_3238)"/>
<path d="M14.7217 161.122H2.58496C1.48036 161.122 0.584961 160.227 0.584961 159.122V131.558C0.584961 130.454 1.48036 129.558 2.58496 129.558H14.7217C15.8263 129.558 16.7217 130.454 16.7217 131.558V159.122C16.7217 160.227 15.8263 161.122 14.7217 161.122Z" fill="url(#paint4_linear_86_3238)"/>
<path d="M8.65326 129.558C13.1093 129.558 16.7216 127.201 16.7216 124.293C16.7216 121.385 13.1093 119.028 8.65326 119.028C4.19726 119.028 0.584961 121.385 0.584961 124.293C0.584961 127.201 4.19726 129.558 8.65326 129.558Z" fill="url(#paint5_radial_86_3238)"/>
<path d="M14.7217 119.028H2.58496C1.48036 119.028 0.584961 118.133 0.584961 117.028V114.32C0.584961 113.215 1.48036 112.32 2.58496 112.32H14.7217C15.8263 112.32 16.7217 113.215 16.7217 114.32V117.028C16.7217 118.133 15.8263 119.028 14.7217 119.028Z" fill="url(#paint6_linear_86_3238)"/>
<path d="M14.7217 119.028H2.58496C1.48036 119.028 0.584961 118.133 0.584961 117.028V114.32C0.584961 113.215 1.48036 112.32 2.58496 112.32H14.7217C15.8263 112.32 16.7217 113.215 16.7217 114.32V117.028C16.7217 118.133 15.8263 119.028 14.7217 119.028Z" fill="url(#paint7_linear_86_3238)"/>
<path d="M13.113 98.3909H4.19357V112.32H13.113V98.3909Z" fill="url(#paint8_linear_86_3238)"/>
<path d="M14.7217 84.974H2.58496C1.48036 84.974 0.584961 84.0786 0.584961 82.974V80.2656C0.584961 79.161 1.48036 78.2656 2.58496 78.2656H14.7217C15.8263 78.2656 16.7217 79.161 16.7217 80.2656V82.974C16.7217 84.0786 15.8263 84.974 14.7217 84.974Z" fill="url(#paint9_linear_86_3238)"/>
<path d="M14.7217 84.974H2.58496C1.48036 84.974 0.584961 84.0786 0.584961 82.974V80.2656C0.584961 79.161 1.48036 78.2656 2.58496 78.2656H14.7217C15.8263 78.2656 16.7217 79.161 16.7217 80.2656V82.974C16.7217 84.0786 15.8263 84.974 14.7217 84.974Z" fill="url(#paint10_linear_86_3238)"/>
<path d="M14.7217 91.6825H2.58496C1.48036 91.6825 0.584961 90.7871 0.584961 89.6825V86.9741C0.584961 85.8695 1.48036 84.9741 2.58496 84.9741H14.7217C15.8263 84.9741 16.7217 85.8695 16.7217 86.9741V89.6825C16.7217 90.7871 15.8263 91.6825 14.7217 91.6825Z" fill="url(#paint11_linear_86_3238)"/>
<path d="M14.7217 91.6825H2.58496C1.48036 91.6825 0.584961 90.7871 0.584961 89.6825V86.9741C0.584961 85.8695 1.48036 84.9741 2.58496 84.9741H14.7217C15.8263 84.9741 16.7217 85.8695 16.7217 86.9741V89.6825C16.7217 90.7871 15.8263 91.6825 14.7217 91.6825Z" fill="url(#paint12_linear_86_3238)"/>
<path d="M14.7217 98.3908H2.58496C1.48036 98.3908 0.584961 97.4954 0.584961 96.3908V93.6824C0.584961 92.5778 1.48036 91.6824 2.58496 91.6824H14.7217C15.8263 91.6824 16.7217 92.5778 16.7217 93.6824V96.3908C16.7217 97.4953 15.8263 98.3908 14.7217 98.3908Z" fill="url(#paint13_linear_86_3238)"/>
<path d="M14.7217 98.3908H2.58496C1.48036 98.3908 0.584961 97.4954 0.584961 96.3908V93.6824C0.584961 92.5778 1.48036 91.6824 2.58496 91.6824H14.7217C15.8263 91.6824 16.7217 92.5778 16.7217 93.6824V96.3908C16.7217 97.4953 15.8263 98.3908 14.7217 98.3908Z" fill="url(#paint14_linear_86_3238)"/>
<path d="M14.7217 78.2657H2.58496C1.48036 78.2657 0.584961 77.3703 0.584961 76.2657V2.98755C0.584961 1.88295 1.48036 0.987549 2.58496 0.987549H14.7217C15.8263 0.987549 16.7217 1.88295 16.7217 2.98755V76.2657C16.7217 77.3703 15.8263 78.2657 14.7217 78.2657Z" fill="url(#paint15_linear_86_3238)"/>
<path d="M0.584961 8.71533H16.7217" stroke="#92A1FF" stroke-miterlimit="10"/>
<path d="M0.584961 16.4431H16.7217" stroke="#92A1FF" stroke-miterlimit="10"/>
<path d="M0.584961 24.1709H16.7217" stroke="#92A1FF" stroke-miterlimit="10"/>
<path d="M0.584961 31.8989H16.7217" stroke="#92A1FF" stroke-miterlimit="10"/>
<path d="M0.584961 39.6265H16.7217" stroke="#92A1FF" stroke-miterlimit="10"/>
<path d="M0.584961 47.3545H16.7217" stroke="#92A1FF" stroke-miterlimit="10"/>
<path d="M0.584961 55.0823H16.7217" stroke="#92A1FF" stroke-miterlimit="10"/>
<path d="M0.584961 62.8101H16.7217" stroke="#92A1FF" stroke-miterlimit="10"/>
<path d="M0.584961 70.5381H16.7217" stroke="#92A1FF" stroke-miterlimit="10"/>
<path d="M14.7217 78.2657H2.58496C1.48036 78.2657 0.584961 77.3703 0.584961 76.2657V2.98755C0.584961 1.88295 1.48036 0.987549 2.58496 0.987549H14.7217C15.8263 0.987549 16.7217 1.88295 16.7217 2.98755V76.2657C16.7217 77.3703 15.8263 78.2657 14.7217 78.2657Z" fill="url(#paint16_linear_86_3238)"/>
<defs>
<linearGradient id="paint0_linear_86_3238" x1="0.584961" y1="186.3" x2="16.7217" y2="186.3" gradientUnits="userSpaceOnUse">
<stop stop-color="#969696"/>
<stop offset="0.1985" stop-color="#E8E8E8"/>
<stop offset="0.4998" stop-color="#969696"/>
<stop offset="1" stop-color="#232C63"/>
</linearGradient>
<linearGradient id="paint1_linear_86_3238" x1="8.65336" y1="180.117" x2="8.65336" y2="192.484" gradientUnits="userSpaceOnUse">
<stop offset="0.7" stop-color="#4759C8" stop-opacity="0"/>
<stop offset="0.7532" stop-color="#4557C3" stop-opacity="0.1772"/>
<stop offset="0.8163" stop-color="#4050B5" stop-opacity="0.3875"/>
<stop offset="0.8844" stop-color="#38469D" stop-opacity="0.6146"/>
<stop offset="0.9556" stop-color="#2C377C" stop-opacity="0.8519"/>
<stop offset="1" stop-color="#232C63"/>
</linearGradient>
<radialGradient id="paint2_radial_86_3238" cx="0" cy="0" r="1" gradientUnits="userSpaceOnUse" gradientTransform="translate(7.38655 168.565) scale(4.7842 9.66552)">
<stop stop-color="#E8E8E8"/>
<stop offset="1" stop-color="#283480"/>
</radialGradient>
<linearGradient id="paint3_linear_86_3238" x1="0.584961" y1="145.34" x2="16.7217" y2="145.34" gradientUnits="userSpaceOnUse">
<stop stop-color="#969696"/>
<stop offset="0.1985" stop-color="#E8E8E8"/>
<stop offset="0.4998" stop-color="#969696"/>
<stop offset="1" stop-color="#232C63"/>
</linearGradient>
<linearGradient id="paint4_linear_86_3238" x1="8.65336" y1="129.558" x2="8.65336" y2="161.122" gradientUnits="userSpaceOnUse">
<stop offset="0.7" stop-color="#4759C8" stop-opacity="0"/>
<stop offset="0.7532" stop-color="#4557C3" stop-opacity="0.1772"/>
<stop offset="0.8163" stop-color="#4050B5" stop-opacity="0.3875"/>
<stop offset="0.8844" stop-color="#38469D" stop-opacity="0.6146"/>
<stop offset="0.9556" stop-color="#2C377C" stop-opacity="0.8519"/>
<stop offset="1" stop-color="#232C63"/>
</linearGradient>
<radialGradient id="paint5_radial_86_3238" cx="0" cy="0" r="1" gradientUnits="userSpaceOnUse" gradientTransform="translate(6.11976 123.119) scale(10.9452 6.27051)">
<stop stop-color="#E8E8E8"/>
<stop offset="1" stop-color="#1D2452"/>
</radialGradient>
<linearGradient id="paint6_linear_86_3238" x1="0.584961" y1="115.674" x2="16.7217" y2="115.674" gradientUnits="userSpaceOnUse">
<stop stop-color="#969696"/>
<stop offset="0.1985" stop-color="#E8E8E8"/>
<stop offset="0.4998" stop-color="#969696"/>
<stop offset="1" stop-color="#232C63"/>
</linearGradient>
<linearGradient id="paint7_linear_86_3238" x1="8.65336" y1="112.32" x2="8.65336" y2="119.028" gradientUnits="userSpaceOnUse">
<stop offset="0.3658" stop-color="#4759C8" stop-opacity="0"/>
<stop offset="0.4782" stop-color="#4557C3" stop-opacity="0.1772"/>
<stop offset="0.6116" stop-color="#4050B5" stop-opacity="0.3875"/>
<stop offset="0.7556" stop-color="#38469D" stop-opacity="0.6146"/>
<stop offset="0.9061" stop-color="#2C377C" stop-opacity="0.8519"/>
<stop offset="1" stop-color="#232C63"/>
</linearGradient>
<linearGradient id="paint8_linear_86_3238" x1="4.15957" y1="105.333" x2="13.1471" y2="105.377" gradientUnits="userSpaceOnUse">
<stop stop-color="#969696"/>
<stop offset="0.2264" stop-color="#939395"/>
<stop offset="0.4116" stop-color="#898A91"/>
<stop offset="0.5823" stop-color="#777A8B"/>
<stop offset="0.7443" stop-color="#5F6483"/>
<stop offset="0.8987" stop-color="#414879"/>
<stop offset="1" stop-color="#283270"/>
</linearGradient>
<linearGradient id="paint9_linear_86_3238" x1="0.584961" y1="81.6198" x2="16.7217" y2="81.6198" gradientUnits="userSpaceOnUse">
<stop stop-color="#969696"/>
<stop offset="0.1985" stop-color="#E8E8E8"/>
<stop offset="0.4998" stop-color="#969696"/>
<stop offset="1" stop-color="#232C63"/>
</linearGradient>
<linearGradient id="paint10_linear_86_3238" x1="8.65336" y1="78.2656" x2="8.65336" y2="84.974" gradientUnits="userSpaceOnUse">
<stop offset="0.3658" stop-color="#4759C8" stop-opacity="0"/>
<stop offset="0.4782" stop-color="#4557C3" stop-opacity="0.1772"/>
<stop offset="0.6116" stop-color="#4050B5" stop-opacity="0.3875"/>
<stop offset="0.7556" stop-color="#38469D" stop-opacity="0.6146"/>
<stop offset="0.9061" stop-color="#2C377C" stop-opacity="0.8519"/>
<stop offset="1" stop-color="#232C63"/>
</linearGradient>
<linearGradient id="paint11_linear_86_3238" x1="0.584961" y1="88.3283" x2="16.7217" y2="88.3283" gradientUnits="userSpaceOnUse">
<stop stop-color="#969696"/>
<stop offset="0.1985" stop-color="#E8E8E8"/>
<stop offset="0.4998" stop-color="#969696"/>
<stop offset="1" stop-color="#232C63"/>
</linearGradient>
<linearGradient id="paint12_linear_86_3238" x1="8.65336" y1="84.9741" x2="8.65336" y2="91.6825" gradientUnits="userSpaceOnUse">
<stop offset="0.3658" stop-color="#4759C8" stop-opacity="0"/>
<stop offset="0.4782" stop-color="#4557C3" stop-opacity="0.1772"/>
<stop offset="0.6116" stop-color="#4050B5" stop-opacity="0.3875"/>
<stop offset="0.7556" stop-color="#38469D" stop-opacity="0.6146"/>
<stop offset="0.9061" stop-color="#2C377C" stop-opacity="0.8519"/>
<stop offset="1" stop-color="#232C63"/>
</linearGradient>
<linearGradient id="paint13_linear_86_3238" x1="0.584961" y1="95.0366" x2="16.7217" y2="95.0366" gradientUnits="userSpaceOnUse">
<stop stop-color="#969696"/>
<stop offset="0.1985" stop-color="#E8E8E8"/>
<stop offset="0.4998" stop-color="#969696"/>
<stop offset="1" stop-color="#232C63"/>
</linearGradient>
<linearGradient id="paint14_linear_86_3238" x1="8.65336" y1="91.6824" x2="8.65336" y2="98.3907" gradientUnits="userSpaceOnUse">
<stop offset="0.3658" stop-color="#4759C8" stop-opacity="0"/>
<stop offset="0.4782" stop-color="#4557C3" stop-opacity="0.1772"/>
<stop offset="0.6116" stop-color="#4050B5" stop-opacity="0.3875"/>
<stop offset="0.7556" stop-color="#38469D" stop-opacity="0.6146"/>
<stop offset="0.9061" stop-color="#2C377C" stop-opacity="0.8519"/>
<stop offset="1" stop-color="#232C63"/>
</linearGradient>
<linearGradient id="paint15_linear_86_3238" x1="0.405561" y1="39.5862" x2="16.901" y2="39.667" gradientUnits="userSpaceOnUse">
<stop stop-color="#969696"/>
<stop offset="0.1985" stop-color="#E8E8E8"/>
<stop offset="0.4998" stop-color="#969696"/>
<stop offset="1" stop-color="#232C63"/>
</linearGradient>
<linearGradient id="paint16_linear_86_3238" x1="8.65336" y1="0.987549" x2="8.65336" y2="78.2657" gradientUnits="userSpaceOnUse">
<stop offset="0.9" stop-color="#4759C8" stop-opacity="0"/>
<stop offset="0.9177" stop-color="#4557C3" stop-opacity="0.1772"/>
<stop offset="0.9388" stop-color="#4050B5" stop-opacity="0.3875"/>
<stop offset="0.9615" stop-color="#38469D" stop-opacity="0.6146"/>
<stop offset="0.9852" stop-color="#2C377C" stop-opacity="0.8519"/>
<stop offset="1" stop-color="#232C63"/>
</linearGradient>
</defs>
</svg>
