<svg width="60" height="24" viewBox="0 0 60 24" fill="none" xmlns="http://www.w3.org/2000/svg">
<rect x="2" y="1.98901" width="57" height="20" rx="10" fill="url(#paint0_linear_64_1864)"/>
<rect x="2" y="1.98901" width="57" height="20" rx="10" stroke="#56F7F4" stroke-width="3" stroke-linejoin="round"/>
<path d="M10.0391 15.989V7.39917H11.7266L15.2422 13.1355V7.39917H16.8535V15.989H15.1133L11.6504 10.3875V15.989H10.0391ZM18.7168 15.989V7.39917H20.4512V11.2136L23.9551 7.39917H26.2871L23.0527 10.7449L26.4629 15.989H24.2188L21.8574 11.9578L20.4512 13.3933V15.989H18.7168ZM26.4922 15.989L29.4277 11.5066L26.7676 7.39917H28.7949L30.5176 10.1589L32.2051 7.39917H34.2148L31.543 11.571L34.4785 15.989H32.3867L30.4824 13.0183L28.5723 15.989H26.4922ZM40.584 9.50269L38.9902 9.67847C38.9512 9.35034 38.8496 9.10815 38.6855 8.9519C38.5215 8.79565 38.3086 8.71753 38.0469 8.71753C37.6992 8.71753 37.4043 8.87378 37.1621 9.18628C36.9238 9.49878 36.7734 10.1492 36.7109 11.1375C37.1211 10.6531 37.6309 10.4109 38.2402 10.4109C38.9277 10.4109 39.5156 10.6726 40.0039 11.196C40.4961 11.7195 40.7422 12.3953 40.7422 13.2234C40.7422 14.1023 40.4844 14.8074 39.9688 15.3386C39.4531 15.8699 38.791 16.1355 37.9824 16.1355C37.1152 16.1355 36.4023 15.7996 35.8438 15.1277C35.2852 14.4519 35.0059 13.3464 35.0059 11.8113C35.0059 10.2371 35.2969 9.10229 35.8789 8.40698C36.4609 7.71167 37.2168 7.36401 38.1465 7.36401C38.7988 7.36401 39.3379 7.54761 39.7637 7.91479C40.1934 8.27808 40.4668 8.80737 40.584 9.50269ZM36.8516 13.0945C36.8516 13.6296 36.9746 14.0437 37.2207 14.3367C37.4668 14.6257 37.748 14.7703 38.0645 14.7703C38.3691 14.7703 38.623 14.6511 38.8262 14.4128C39.0293 14.1746 39.1309 13.7839 39.1309 13.241C39.1309 12.6824 39.0215 12.2742 38.8027 12.0164C38.584 11.7546 38.3105 11.6238 37.9824 11.6238C37.666 11.6238 37.3984 11.7488 37.1797 11.9988C36.9609 12.2449 36.8516 12.6101 36.8516 13.0945ZM41.8496 13.698V12.0515H45.084V13.698H41.8496ZM49.8945 15.989H48.248V9.78394C47.6465 10.3464 46.9375 10.7625 46.1211 11.032V9.53784C46.5508 9.39722 47.0176 9.13159 47.5215 8.74097C48.0254 8.34644 48.3711 7.88745 48.5586 7.36401H49.8945V15.989Z" fill="white"/>
<defs>
<linearGradient id="paint0_linear_64_1864" x1="30.5" y1="21.989" x2="30.5" y2="1.98901" gradientUnits="userSpaceOnUse">
<stop stop-color="#16417F"/>
<stop offset="1" stop-color="#56F7F4"/>
</linearGradient>
</defs>
</svg>
