<svg width="67" height="24" viewBox="0 0 67 24" fill="none" xmlns="http://www.w3.org/2000/svg">
<rect x="1" y="1.98901" width="65" height="20" rx="10" fill="url(#paint0_linear_64_1844)"/>
<rect x="1" y="1.98901" width="65" height="20" rx="10" stroke="#6D1774" stroke-width="3" stroke-linejoin="round"/>
<path d="M9.33594 15.989V7.39917H11.9316L13.4902 13.2585L15.0312 7.39917H17.6328V15.989H16.0215V9.22729L14.3164 15.989H12.6465L10.9473 9.22729V15.989H9.33594ZM21.6113 15.989V12.3738L18.4648 7.39917H20.498L22.5195 10.7976L24.5 7.39917H26.498L23.3398 12.3855V15.989H21.6113ZM27.3652 7.39917H30.7988C31.4785 7.39917 31.9844 7.42847 32.3164 7.48706C32.6523 7.54175 32.9512 7.65894 33.2129 7.83862C33.4785 8.01831 33.6992 8.25854 33.875 8.55933C34.0508 8.8562 34.1387 9.19019 34.1387 9.56128C34.1387 9.96362 34.0293 10.3328 33.8105 10.6687C33.5957 11.0046 33.3027 11.2566 32.9316 11.4246C33.4551 11.5769 33.8574 11.8367 34.1387 12.2039C34.4199 12.571 34.5605 13.0027 34.5605 13.4988C34.5605 13.8894 34.4688 14.2703 34.2852 14.6414C34.1055 15.0085 33.8574 15.3035 33.541 15.5261C33.2285 15.7449 32.8418 15.8796 32.3809 15.9304C32.0918 15.9617 31.3945 15.9812 30.2891 15.989H27.3652V7.39917ZM29.0996 8.82886V10.8152H30.2363C30.9121 10.8152 31.332 10.8054 31.4961 10.7859C31.793 10.7507 32.0254 10.6492 32.1934 10.4812C32.3652 10.3093 32.4512 10.0847 32.4512 9.80737C32.4512 9.54175 32.377 9.3269 32.2285 9.16284C32.084 8.99487 31.8672 8.89331 31.5781 8.85815C31.4062 8.83862 30.9121 8.82886 30.0957 8.82886H29.0996ZM29.0996 12.2449V14.5417H30.7051C31.3301 14.5417 31.7266 14.5242 31.8945 14.489C32.1523 14.4421 32.3613 14.3289 32.5215 14.1492C32.6855 13.9656 32.7676 13.7214 32.7676 13.4167C32.7676 13.1589 32.7051 12.9402 32.5801 12.7605C32.4551 12.5808 32.2734 12.45 32.0352 12.3679C31.8008 12.2859 31.2891 12.2449 30.5 12.2449H29.0996ZM36.0371 7.39917H39.4707C40.1504 7.39917 40.6562 7.42847 40.9883 7.48706C41.3242 7.54175 41.623 7.65894 41.8848 7.83862C42.1504 8.01831 42.3711 8.25854 42.5469 8.55933C42.7227 8.8562 42.8105 9.19019 42.8105 9.56128C42.8105 9.96362 42.7012 10.3328 42.4824 10.6687C42.2676 11.0046 41.9746 11.2566 41.6035 11.4246C42.127 11.5769 42.5293 11.8367 42.8105 12.2039C43.0918 12.571 43.2324 13.0027 43.2324 13.4988C43.2324 13.8894 43.1406 14.2703 42.957 14.6414C42.7773 15.0085 42.5293 15.3035 42.2129 15.5261C41.9004 15.7449 41.5137 15.8796 41.0527 15.9304C40.7637 15.9617 40.0664 15.9812 38.9609 15.989H36.0371V7.39917ZM37.7715 8.82886V10.8152H38.9082C39.584 10.8152 40.0039 10.8054 40.168 10.7859C40.4648 10.7507 40.6973 10.6492 40.8652 10.4812C41.0371 10.3093 41.123 10.0847 41.123 9.80737C41.123 9.54175 41.0488 9.3269 40.9004 9.16284C40.7559 8.99487 40.5391 8.89331 40.25 8.85815C40.0781 8.83862 39.584 8.82886 38.7676 8.82886H37.7715ZM37.7715 12.2449V14.5417H39.377C40.002 14.5417 40.3984 14.5242 40.5664 14.489C40.8242 14.4421 41.0332 14.3289 41.1934 14.1492C41.3574 13.9656 41.4395 13.7214 41.4395 13.4167C41.4395 13.1589 41.377 12.9402 41.252 12.7605C41.127 12.5808 40.9453 12.45 40.707 12.3679C40.4727 12.2859 39.9609 12.2449 39.1719 12.2449H37.7715ZM44.7031 15.989V7.39917H47.4863C48.541 7.39917 49.2285 7.44214 49.5488 7.52808C50.041 7.65698 50.4531 7.93823 50.7852 8.37183C51.1172 8.80151 51.2832 9.35815 51.2832 10.0417C51.2832 10.5691 51.1875 11.0125 50.9961 11.3718C50.8047 11.7312 50.5605 12.0144 50.2637 12.2214C49.9707 12.4246 49.6719 12.5593 49.3672 12.6257C48.9531 12.7078 48.3535 12.7488 47.5684 12.7488H46.4375V15.989H44.7031ZM46.4375 8.85229V11.2898H47.3867C48.0703 11.2898 48.5273 11.2449 48.7578 11.155C48.9883 11.0652 49.168 10.9246 49.2969 10.7332C49.4297 10.5417 49.4961 10.3191 49.4961 10.0652C49.4961 9.75269 49.4043 9.49487 49.2207 9.29175C49.0371 9.08862 48.8047 8.96167 48.5234 8.91089C48.3164 8.87183 47.9004 8.85229 47.2754 8.85229H46.4375ZM56.5566 15.989H54.9102V9.78394C54.3086 10.3464 53.5996 10.7625 52.7832 11.032V9.53784C53.2129 9.39722 53.6797 9.13159 54.1836 8.74097C54.6875 8.34644 55.0332 7.88745 55.2207 7.36401H56.5566V15.989Z" fill="white"/>
<defs>
<linearGradient id="paint0_linear_64_1844" x1="33.5" y1="1.98901" x2="33.5" y2="21.989" gradientUnits="userSpaceOnUse">
<stop stop-color="#6D1774"/>
<stop offset="1" stop-color="#7EA570"/>
</linearGradient>
</defs>
</svg>
