<svg width="64" height="24" viewBox="0 0 64 24" fill="none" xmlns="http://www.w3.org/2000/svg">
<rect x="2" y="1.98901" width="61" height="20" rx="10" fill="url(#paint0_linear_42_2652)"/>
<rect x="2" y="1.98901" width="61" height="20" rx="10" stroke="#2A3ED1" stroke-width="3" stroke-linejoin="round"/>
<path d="M10.1348 15.989V7.39917H16.5039V8.85229H11.8691V10.7566H16.1816V12.2039H11.8691V14.5417H16.668V15.989H10.1348ZM17.6992 13.1941L19.3867 13.03C19.4883 13.5964 19.6934 14.0125 20.002 14.2781C20.3145 14.5437 20.7344 14.6765 21.2617 14.6765C21.8203 14.6765 22.2402 14.5593 22.5215 14.325C22.8066 14.0867 22.9492 13.8093 22.9492 13.4929C22.9492 13.2898 22.8887 13.1179 22.7676 12.9773C22.6504 12.8328 22.4434 12.7078 22.1465 12.6023C21.9434 12.532 21.4805 12.407 20.7578 12.2273C19.8281 11.9968 19.1758 11.7136 18.8008 11.3777C18.2734 10.905 18.0098 10.3289 18.0098 9.64917C18.0098 9.21167 18.1328 8.80347 18.3789 8.42456C18.6289 8.04175 18.9863 7.75073 19.4512 7.55151C19.9199 7.35229 20.4844 7.25269 21.1445 7.25269C22.2227 7.25269 23.0332 7.48901 23.5762 7.96167C24.123 8.43433 24.4102 9.06519 24.4375 9.85425L22.7031 9.93042C22.6289 9.48901 22.4688 9.17261 22.2227 8.9812C21.9805 8.78589 21.6152 8.68823 21.127 8.68823C20.623 8.68823 20.2285 8.79175 19.9434 8.99878C19.7598 9.13159 19.668 9.30933 19.668 9.53198C19.668 9.73511 19.7539 9.90894 19.9258 10.0535C20.1445 10.2371 20.6758 10.4285 21.5195 10.6277C22.3633 10.8269 22.9863 11.0339 23.3887 11.2488C23.7949 11.4597 24.1113 11.7507 24.3379 12.1218C24.5684 12.489 24.6836 12.9441 24.6836 13.4871C24.6836 13.9792 24.5469 14.4402 24.2734 14.8699C24 15.2996 23.6133 15.6199 23.1133 15.8308C22.6133 16.0378 21.9902 16.1414 21.2441 16.1414C20.1582 16.1414 19.3242 15.8914 18.7422 15.3914C18.1602 14.8875 17.8125 14.155 17.6992 13.1941ZM31.6387 12.8308L33.3203 13.364C33.0625 14.3015 32.6328 14.9988 32.0312 15.4558C31.4336 15.9089 30.6738 16.1355 29.752 16.1355C28.6113 16.1355 27.6738 15.7468 26.9395 14.9695C26.2051 14.1882 25.8379 13.1218 25.8379 11.7703C25.8379 10.3406 26.207 9.2312 26.9453 8.44214C27.6836 7.64917 28.6543 7.25269 29.8574 7.25269C30.9082 7.25269 31.7617 7.56323 32.418 8.18433C32.8086 8.55151 33.1016 9.07886 33.2969 9.76636L31.5801 10.1765C31.4785 9.7312 31.2656 9.37964 30.9414 9.12183C30.6211 8.86401 30.2305 8.73511 29.7695 8.73511C29.1328 8.73511 28.6152 8.96362 28.2168 9.42065C27.8223 9.87769 27.625 10.6179 27.625 11.6414C27.625 12.7273 27.8203 13.5007 28.2109 13.9617C28.6016 14.4226 29.1094 14.6531 29.7344 14.6531C30.1953 14.6531 30.5918 14.5066 30.9238 14.2136C31.2559 13.9207 31.4941 13.4597 31.6387 12.8308ZM34.8203 15.989V7.39917H38.4707C39.3887 7.39917 40.0547 7.47729 40.4688 7.63354C40.8867 7.78589 41.2207 8.05933 41.4707 8.45386C41.7207 8.84839 41.8457 9.29956 41.8457 9.80737C41.8457 10.4519 41.6562 10.9851 41.2773 11.407C40.8984 11.825 40.332 12.0886 39.5781 12.198C39.9531 12.4167 40.2617 12.657 40.5039 12.9187C40.75 13.1804 41.0801 13.6453 41.4941 14.3132L42.543 15.989H40.4688L39.2148 14.1199C38.7695 13.4519 38.4648 13.032 38.3008 12.8601C38.1367 12.6843 37.9629 12.5652 37.7793 12.5027C37.5957 12.4363 37.3047 12.4031 36.9062 12.4031H36.5547V15.989H34.8203ZM36.5547 11.032H37.8379C38.6699 11.032 39.1895 10.9968 39.3965 10.9265C39.6035 10.8562 39.7656 10.7351 39.8828 10.5632C40 10.3914 40.0586 10.1765 40.0586 9.9187C40.0586 9.62964 39.9805 9.39722 39.8242 9.22144C39.6719 9.04175 39.4551 8.92847 39.1738 8.88159C39.0332 8.86206 38.6113 8.85229 37.9082 8.85229H36.5547V11.032ZM45.4199 15.989V8.85229H42.8711V7.39917H49.6973V8.85229H47.1543V15.989H45.4199ZM49.3398 14.2136L50.9922 13.9617C51.0625 14.282 51.2051 14.5261 51.4199 14.6941C51.6348 14.8582 51.9355 14.9402 52.3223 14.9402C52.748 14.9402 53.0684 14.8621 53.2832 14.7058C53.4277 14.5964 53.5 14.45 53.5 14.2664C53.5 14.1414 53.4609 14.0378 53.3828 13.9558C53.3008 13.8777 53.1172 13.8054 52.832 13.739C51.5039 13.446 50.6621 13.1785 50.3066 12.9363C49.8145 12.6003 49.5684 12.1335 49.5684 11.5359C49.5684 10.9968 49.7812 10.5437 50.207 10.1765C50.6328 9.80933 51.293 9.62573 52.1875 9.62573C53.0391 9.62573 53.6719 9.7644 54.0859 10.0417C54.5 10.3191 54.7852 10.7292 54.9414 11.2722L53.3887 11.5593C53.3223 11.3171 53.1953 11.1316 53.0078 11.0027C52.8242 10.8738 52.5605 10.8093 52.2168 10.8093C51.7832 10.8093 51.4727 10.8699 51.2852 10.991C51.1602 11.0769 51.0977 11.1882 51.0977 11.325C51.0977 11.4421 51.1523 11.5417 51.2617 11.6238C51.4102 11.7332 51.9219 11.8875 52.7969 12.0867C53.6758 12.2859 54.2891 12.53 54.6367 12.8191C54.9805 13.1121 55.1523 13.5203 55.1523 14.0437C55.1523 14.614 54.9141 15.1042 54.4375 15.5144C53.9609 15.9246 53.2559 16.1296 52.3223 16.1296C51.4746 16.1296 50.8027 15.9578 50.3066 15.614C49.8145 15.2703 49.4922 14.8035 49.3398 14.2136Z" fill="white"/>
<defs>
<linearGradient id="paint0_linear_42_2652" x1="32.5" y1="1.98901" x2="32.5" y2="21.989" gradientUnits="userSpaceOnUse">
<stop stop-color="#2A3ED1"/>
<stop offset="1" stop-color="#00A6D5"/>
</linearGradient>
</defs>
</svg>
