<svg width="71" height="36" viewBox="0 0 71 36" fill="none" xmlns="http://www.w3.org/2000/svg">
<rect x="2" y="1.98901" width="68" height="32" rx="10" fill="#468DD3"/>
<rect x="2" y="1.98901" width="68" height="32" rx="10" stroke="#0052AF" stroke-width="3" stroke-linejoin="round"/>
<path d="M14.5723 14.989V7.85229H12.0234V6.39917H18.8496V7.85229H16.3066V14.989H14.5723ZM26.8301 14.989H24.9434L24.1934 13.0378H20.7598L20.0508 14.989H18.2109L21.5566 6.39917H23.3906L26.8301 14.989ZM23.6367 11.5906L22.4531 8.40308L21.293 11.5906H23.6367ZM27.7617 14.989V6.39917H31.4121C32.3301 6.39917 32.9961 6.47729 33.4102 6.63354C33.8281 6.78589 34.1621 7.05933 34.4121 7.45386C34.6621 7.84839 34.7871 8.29956 34.7871 8.80737C34.7871 9.4519 34.5977 9.98511 34.2188 10.407C33.8398 10.825 33.2734 11.0886 32.5195 11.198C32.8945 11.4167 33.2031 11.657 33.4453 11.9187C33.6914 12.1804 34.0215 12.6453 34.4355 13.3132L35.4844 14.989H33.4102L32.1562 13.1199C31.7109 12.4519 31.4062 12.032 31.2422 11.8601C31.0781 11.6843 30.9043 11.5652 30.7207 11.5027C30.5371 11.4363 30.2461 11.4031 29.8477 11.4031H29.4961V14.989H27.7617ZM29.4961 10.032H30.7793C31.6113 10.032 32.1309 9.99683 32.3379 9.92651C32.5449 9.8562 32.707 9.73511 32.8242 9.56323C32.9414 9.39136 33 9.17651 33 8.9187C33 8.62964 32.9219 8.39722 32.7656 8.22144C32.6133 8.04175 32.3965 7.92847 32.1152 7.88159C31.9746 7.86206 31.5527 7.85229 30.8496 7.85229H29.4961V10.032ZM40.4238 11.8308V10.3835H44.1621V13.8054C43.7988 14.157 43.2715 14.4675 42.5801 14.7371C41.8926 15.0027 41.1953 15.1355 40.4883 15.1355C39.5898 15.1355 38.8066 14.948 38.1387 14.573C37.4707 14.1941 36.9688 13.655 36.6328 12.9558C36.2969 12.2527 36.1289 11.489 36.1289 10.6648C36.1289 9.77026 36.3164 8.97534 36.6914 8.28003C37.0664 7.58472 37.6152 7.05151 38.3379 6.68042C38.8887 6.39526 39.5742 6.25269 40.3945 6.25269C41.4609 6.25269 42.293 6.47729 42.8906 6.92651C43.4922 7.37183 43.8789 7.98901 44.0508 8.77808L42.3281 9.10034C42.207 8.67847 41.9785 8.34644 41.6426 8.10425C41.3105 7.85815 40.8945 7.73511 40.3945 7.73511C39.6367 7.73511 39.0332 7.97534 38.584 8.45581C38.1387 8.93628 37.916 9.64917 37.916 10.5945C37.916 11.614 38.1426 12.3796 38.5957 12.8914C39.0488 13.3992 39.6426 13.6531 40.377 13.6531C40.7402 13.6531 41.1035 13.5828 41.4668 13.4421C41.834 13.2976 42.1484 13.1238 42.4102 12.9207V11.8308H40.4238ZM45.7676 14.989V6.39917H52.1367V7.85229H47.502V9.75659H51.8145V11.2039H47.502V13.5417H52.3008V14.989H45.7676ZM55.7051 14.989V7.85229H53.1562V6.39917H59.9824V7.85229H57.4395V14.989H55.7051ZM10.1895 28.989V20.3992H12.9727C14.0273 20.3992 14.7148 20.4421 15.0352 20.5281C15.5273 20.657 15.9395 20.9382 16.2715 21.3718C16.6035 21.8015 16.7695 22.3582 16.7695 23.0417C16.7695 23.5691 16.6738 24.0125 16.4824 24.3718C16.291 24.7312 16.0469 25.0144 15.75 25.2214C15.457 25.4246 15.1582 25.5593 14.8535 25.6257C14.4395 25.7078 13.8398 25.7488 13.0547 25.7488H11.9238V28.989H10.1895ZM11.9238 21.8523V24.2898H12.873C13.5566 24.2898 14.0137 24.2449 14.2441 24.155C14.4746 24.0652 14.6543 23.9246 14.7832 23.7332C14.916 23.5417 14.9824 23.3191 14.9824 23.0652C14.9824 22.7527 14.8906 22.4949 14.707 22.2917C14.5234 22.0886 14.291 21.9617 14.0098 21.9109C13.8027 21.8718 13.3867 21.8523 12.7617 21.8523H11.9238ZM18.1992 28.989V20.3992H21.8496C22.7676 20.3992 23.4336 20.4773 23.8477 20.6335C24.2656 20.7859 24.5996 21.0593 24.8496 21.4539C25.0996 21.8484 25.2246 22.2996 25.2246 22.8074C25.2246 23.4519 25.0352 23.9851 24.6562 24.407C24.2773 24.825 23.7109 25.0886 22.957 25.198C23.332 25.4167 23.6406 25.657 23.8828 25.9187C24.1289 26.1804 24.459 26.6453 24.873 27.3132L25.9219 28.989H23.8477L22.5938 27.1199C22.1484 26.4519 21.8438 26.032 21.6797 25.8601C21.5156 25.6843 21.3418 25.5652 21.1582 25.5027C20.9746 25.4363 20.6836 25.4031 20.2852 25.4031H19.9336V28.989H18.1992ZM19.9336 24.032H21.2168C22.0488 24.032 22.5684 23.9968 22.7754 23.9265C22.9824 23.8562 23.1445 23.7351 23.2617 23.5632C23.3789 23.3914 23.4375 23.1765 23.4375 22.9187C23.4375 22.6296 23.3594 22.3972 23.2031 22.2214C23.0508 22.0417 22.834 21.9285 22.5527 21.8816C22.4121 21.8621 21.9902 21.8523 21.2871 21.8523H19.9336V24.032ZM26.5137 24.7468C26.5137 23.8718 26.6445 23.1375 26.9062 22.5437C27.1016 22.1062 27.3672 21.7136 27.7031 21.366C28.043 21.0183 28.4141 20.7605 28.8164 20.5925C29.3516 20.366 29.9688 20.2527 30.668 20.2527C31.9336 20.2527 32.9453 20.6453 33.7031 21.4304C34.4648 22.2156 34.8457 23.3074 34.8457 24.7058C34.8457 26.0925 34.4688 27.1785 33.7148 27.9636C32.9609 28.7449 31.9531 29.1355 30.6914 29.1355C29.4141 29.1355 28.3984 28.7468 27.6445 27.9695C26.8906 27.1882 26.5137 26.114 26.5137 24.7468ZM28.3008 24.6882C28.3008 25.6609 28.5254 26.3992 28.9746 26.9031C29.4238 27.4031 29.9941 27.6531 30.6855 27.6531C31.377 27.6531 31.9434 27.405 32.3848 26.9089C32.8301 26.4089 33.0527 25.6609 33.0527 24.6648C33.0527 23.6804 32.8359 22.946 32.4023 22.4617C31.9727 21.9773 31.4004 21.7351 30.6855 21.7351C29.9707 21.7351 29.3945 21.9812 28.957 22.4734C28.5195 22.9617 28.3008 23.7 28.3008 24.6882ZM38.1387 28.989V21.8523H35.5898V20.3992H42.416V21.8523H39.873V28.989H38.1387ZM43.541 28.989V20.3992H49.9102V21.8523H45.2754V23.7566H49.5879V25.2039H45.2754V27.5417H50.0742V28.989H43.541ZM51.4922 28.989V20.3992H53.2266V28.989H51.4922ZM54.9023 28.989V20.3992H56.5898L60.1055 26.1355V20.3992H61.7168V28.989H59.9766L56.5137 23.3875V28.989H54.9023Z" fill="white"/>
</svg>
