<svg width="24" height="80" viewBox="0 0 24 80" fill="none" xmlns="http://www.w3.org/2000/svg">
<path d="M23.7861 6.04956C23.7861 1.67206 18.6522 0.331055 12.3193 0.331055C5.98638 0.331055 0.852478 1.67196 0.852478 6.04956C0.852478 8.64776 2.66148 11.7307 5.45608 13.8078C8.21228 15.8563 9.89258 19.3281 9.89258 23.0726V76.2376C9.89258 77.6928 10.8269 79.0032 12.1017 79.1294C13.5397 79.2717 14.7457 77.9865 14.7457 76.3807V23.0728C14.7457 19.3283 16.426 15.8565 19.1823 13.808C21.9771 11.7308 23.7861 8.64776 23.7861 6.04956Z" fill="url(#paint0_linear_86_2589)"/>
<path d="M23.7861 6.04956C23.7861 1.67206 18.6522 0.331055 12.3193 0.331055C5.98638 0.331055 0.852478 1.67196 0.852478 6.04956C0.852478 8.64776 2.66148 11.7307 5.45608 13.8078C8.21228 15.8563 9.89258 19.3281 9.89258 23.0726V76.2376C9.89258 77.6928 10.8269 79.0032 12.1017 79.1294C13.5397 79.2717 14.7457 77.9865 14.7457 76.3807V23.0728C14.7457 19.3283 16.426 15.8565 19.1823 13.808C21.9771 11.7308 23.7861 8.64776 23.7861 6.04956Z" fill="url(#paint1_linear_86_2589)"/>
<defs>
<linearGradient id="paint0_linear_86_2589" x1="0.852478" y1="39.7356" x2="23.7861" y2="39.7356" gradientUnits="userSpaceOnUse">
<stop offset="0.15" stop-color="#223664"/>
<stop offset="0.5" stop-color="#5E88BF"/>
<stop offset="0.85" stop-color="#223664"/>
</linearGradient>
<linearGradient id="paint1_linear_86_2589" x1="12.3193" y1="0.331055" x2="12.3193" y2="79.1401" gradientUnits="userSpaceOnUse">
<stop stop-color="#223664"/>
<stop offset="0.14" stop-color="#223664" stop-opacity="0.5"/>
<stop offset="1" stop-color="#223664" stop-opacity="0"/>
</linearGradient>
</defs>
</svg>
