<svg width="72" height="24" viewBox="0 0 72 24" fill="none" xmlns="http://www.w3.org/2000/svg">
<rect x="1" y="1.98901" width="70" height="20" rx="10" fill="url(#paint0_linear_64_1912)"/>
<rect x="1" y="1.98901" width="70" height="20" rx="10" stroke="#4F0023" stroke-width="3" stroke-linejoin="round"/>
<path d="M9.29883 15.989V7.39917H12.082C13.1367 7.39917 13.8242 7.44214 14.1445 7.52808C14.6367 7.65698 15.0488 7.93823 15.3809 8.37183C15.7129 8.80151 15.8789 9.35815 15.8789 10.0417C15.8789 10.5691 15.7832 11.0125 15.5918 11.3718C15.4004 11.7312 15.1562 12.0144 14.8594 12.2214C14.5664 12.4246 14.2676 12.5593 13.9629 12.6257C13.5488 12.7078 12.9492 12.7488 12.1641 12.7488H11.0332V15.989H9.29883ZM11.0332 8.85229V11.2898H11.9824C12.666 11.2898 13.123 11.2449 13.3535 11.155C13.584 11.0652 13.7637 10.9246 13.8926 10.7332C14.0254 10.5417 14.0918 10.3191 14.0918 10.0652C14.0918 9.75269 14 9.49487 13.8164 9.29175C13.6328 9.08862 13.4004 8.96167 13.1191 8.91089C12.9121 8.87183 12.4961 8.85229 11.8711 8.85229H11.0332ZM24.1582 15.989H22.2715L21.5215 14.0378H18.0879L17.3789 15.989H15.5391L18.8848 7.39917H20.7188L24.1582 15.989ZM20.9648 12.5906L19.7812 9.40308L18.6211 12.5906H20.9648ZM25.0898 7.39917H28.5234C29.2031 7.39917 29.709 7.42847 30.041 7.48706C30.377 7.54175 30.6758 7.65894 30.9375 7.83862C31.2031 8.01831 31.4238 8.25854 31.5996 8.55933C31.7754 8.8562 31.8633 9.19019 31.8633 9.56128C31.8633 9.96362 31.7539 10.3328 31.5352 10.6687C31.3203 11.0046 31.0273 11.2566 30.6562 11.4246C31.1797 11.5769 31.582 11.8367 31.8633 12.2039C32.1445 12.571 32.2852 13.0027 32.2852 13.4988C32.2852 13.8894 32.1934 14.2703 32.0098 14.6414C31.8301 15.0085 31.582 15.3035 31.2656 15.5261C30.9531 15.7449 30.5664 15.8796 30.1055 15.9304C29.8164 15.9617 29.1191 15.9812 28.0137 15.989H25.0898V7.39917ZM26.8242 8.82886V10.8152H27.9609C28.6367 10.8152 29.0566 10.8054 29.2207 10.7859C29.5176 10.7507 29.75 10.6492 29.918 10.4812C30.0898 10.3093 30.1758 10.0847 30.1758 9.80737C30.1758 9.54175 30.1016 9.3269 29.9531 9.16284C29.8086 8.99487 29.5918 8.89331 29.3027 8.85815C29.1309 8.83862 28.6367 8.82886 27.8203 8.82886H26.8242ZM26.8242 12.2449V14.5417H28.4297C29.0547 14.5417 29.4512 14.5242 29.6191 14.489C29.877 14.4421 30.0859 14.3289 30.2461 14.1492C30.4102 13.9656 30.4922 13.7214 30.4922 13.4167C30.4922 13.1589 30.4297 12.9402 30.3047 12.7605C30.1797 12.5808 29.998 12.45 29.7598 12.3679C29.5254 12.2859 29.0137 12.2449 28.2246 12.2449H26.8242ZM33.7559 15.989V7.39917H36.5391C37.5938 7.39917 38.2812 7.44214 38.6016 7.52808C39.0938 7.65698 39.5059 7.93823 39.8379 8.37183C40.1699 8.80151 40.3359 9.35815 40.3359 10.0417C40.3359 10.5691 40.2402 11.0125 40.0488 11.3718C39.8574 11.7312 39.6133 12.0144 39.3164 12.2214C39.0234 12.4246 38.7246 12.5593 38.4199 12.6257C38.0059 12.7078 37.4062 12.7488 36.6211 12.7488H35.4902V15.989H33.7559ZM35.4902 8.85229V11.2898H36.4395C37.123 11.2898 37.5801 11.2449 37.8105 11.155C38.041 11.0652 38.2207 10.9246 38.3496 10.7332C38.4824 10.5417 38.5488 10.3191 38.5488 10.0652C38.5488 9.75269 38.457 9.49487 38.2734 9.29175C38.0898 9.08862 37.8574 8.96167 37.5762 8.91089C37.3691 8.87183 36.9531 8.85229 36.3281 8.85229H35.4902ZM41.7773 15.989V7.39917H43.4648L46.9805 13.1355V7.39917H48.5918V15.989H46.8516L43.3887 10.3875V15.989H41.7773ZM54.2812 15.989H52.6348V9.78394C52.0332 10.3464 51.3242 10.7625 50.5078 11.032V9.53784C50.9375 9.39722 51.4043 9.13159 51.9082 8.74097C52.4121 8.34644 52.7578 7.88745 52.9453 7.36401H54.2812V15.989ZM57.1582 15.989V7.46948H58.8926V14.5417H63.2051V15.989H57.1582Z" fill="white"/>
<defs>
<linearGradient id="paint0_linear_64_1912" x1="36" y1="1.98901" x2="36" y2="21.989" gradientUnits="userSpaceOnUse">
<stop stop-color="#4F0023"/>
<stop offset="1" stop-color="#C9AB71"/>
</linearGradient>
</defs>
</svg>
