<svg width="44" height="44" viewBox="0 0 44 44" fill="none" xmlns="http://www.w3.org/2000/svg">
<path d="M22.0283 1.03491C33.4893 1.03491 42.7802 10.3259 42.7803 21.7869C42.7803 33.2479 33.4894 42.5388 22.0283 42.5388C10.5673 42.5387 1.27637 33.2479 1.27637 21.7869C1.27645 10.3259 10.5674 1.03499 22.0283 1.03491Z" fill="url(#paint0_radial_91_5160)" stroke="#943D9D"/>
<path d="M17.9523 25.0996H16.0656L15.3156 23.1484H11.882L11.173 25.0996H9.33313L12.6788 16.5098H14.5128L17.9523 25.0996ZM14.7589 21.7012L13.5753 18.5137L12.4152 21.7012H14.7589ZM18.8781 25.0996V16.5098H21.6613C22.7159 16.5098 23.4034 16.5527 23.7238 16.6387C24.2159 16.7676 24.6281 17.0488 24.9601 17.4824C25.2921 17.9121 25.4581 18.4688 25.4581 19.1523C25.4581 19.6797 25.3624 20.123 25.171 20.4824C24.9796 20.8418 24.7355 21.125 24.4386 21.332C24.1456 21.5352 23.8468 21.6699 23.5421 21.7363C23.1281 21.8184 22.5284 21.8594 21.7433 21.8594H20.6124V25.0996H18.8781ZM20.6124 17.9629V20.4004H21.5616C22.2452 20.4004 22.7023 20.3555 22.9327 20.2656C23.1632 20.1758 23.3429 20.0352 23.4718 19.8438C23.6046 19.6523 23.671 19.4297 23.671 19.1758C23.671 18.8633 23.5792 18.6055 23.3956 18.4023C23.212 18.1992 22.9796 18.0723 22.6984 18.0215C22.4913 17.9824 22.0753 17.9629 21.4503 17.9629H20.6124ZM26.6827 22.8086V21.1621H29.9171V22.8086H26.6827ZM34.7277 25.0996H33.0812V18.8945C32.4796 19.457 31.7706 19.873 30.9542 20.1426V18.6484C31.3839 18.5078 31.8507 18.2422 32.3546 17.8516C32.8585 17.457 33.2042 16.998 33.3917 16.4746H34.7277V25.0996Z" fill="white"/>
<defs>
<radialGradient id="paint0_radial_91_5160" cx="0" cy="0" r="1" gradientUnits="userSpaceOnUse" gradientTransform="translate(16.1507 17.4277) scale(19.3962)">
<stop stop-color="#EBC9A1"/>
<stop offset="1" stop-color="#B68E5F"/>
</radialGradient>
</defs>
</svg>
