<svg width="36" height="21" viewBox="0 0 36 21" fill="none" xmlns="http://www.w3.org/2000/svg">
<path d="M17.549 10.2755C27.2185 10.2755 35.0571 8.05518 35.0571 5.31623C35.0571 2.57729 27.2185 0.356934 17.549 0.356934C7.87954 0.356934 0.0408936 2.57729 0.0408936 5.31623C0.0408936 8.05518 7.87954 10.2755 17.549 10.2755Z" fill="url(#paint0_radial_90_4378)"/>
<path d="M17.549 20.1378C27.2185 20.1378 35.0571 17.9175 35.0571 15.1785C35.0571 12.4396 27.2185 10.2192 17.549 10.2192C7.87954 10.2192 0.0408936 12.4396 0.0408936 15.1785C0.0408936 17.9175 7.87954 20.1378 17.549 20.1378Z" fill="url(#paint1_radial_90_4378)"/>
<defs>
<radialGradient id="paint0_radial_90_4378" cx="0" cy="0" r="1" gradientUnits="userSpaceOnUse" gradientTransform="translate(13.981 3.96633) rotate(-90) scale(11.0335 16.1707)">
<stop stop-color="#FFB2DA"/>
<stop offset="0.036" stop-color="#F6A7D0"/>
<stop offset="0.1994" stop-color="#D07AA6"/>
<stop offset="0.3639" stop-color="#B05484"/>
<stop offset="0.527" stop-color="#983769"/>
<stop offset="0.6882" stop-color="#862356"/>
<stop offset="0.8469" stop-color="#7C164B"/>
<stop offset="1" stop-color="#781247"/>
</radialGradient>
<radialGradient id="paint1_radial_90_4378" cx="0" cy="0" r="1" gradientUnits="userSpaceOnUse" gradientTransform="translate(13.981 13.8286) rotate(-90) scale(11.0335 16.1707)">
<stop stop-color="#FFB2DA"/>
<stop offset="0.036" stop-color="#F6A7D0"/>
<stop offset="0.1994" stop-color="#D07AA6"/>
<stop offset="0.3639" stop-color="#B05484"/>
<stop offset="0.527" stop-color="#983769"/>
<stop offset="0.6882" stop-color="#862356"/>
<stop offset="0.8469" stop-color="#7C164B"/>
<stop offset="1" stop-color="#781247"/>
</radialGradient>
</defs>
</svg>
