<svg width="50" height="36" viewBox="0 0 50 36" fill="none" xmlns="http://www.w3.org/2000/svg">
<rect x="2" y="1.98901" width="47" height="32" rx="10" fill="url(#paint0_linear_64_1939)"/>
<rect x="2" y="1.98901" width="47" height="32" rx="10" stroke="#8F8100" stroke-width="3" stroke-linejoin="round"/>
<path d="M15.9668 8.76636H17.502V9.68042C17.7012 9.36792 17.9707 9.11401 18.3105 8.9187C18.6504 8.72339 19.0273 8.62573 19.4414 8.62573C20.1641 8.62573 20.7773 8.90894 21.2812 9.47534C21.7852 10.0417 22.0371 10.8308 22.0371 11.8425C22.0371 12.8816 21.7832 13.6902 21.2754 14.2683C20.7676 14.8425 20.1523 15.1296 19.4297 15.1296C19.0859 15.1296 18.7734 15.0613 18.4922 14.9246C18.2148 14.7878 17.9219 14.5535 17.6133 14.2214V17.3562H15.9668V8.76636ZM17.5957 11.7722C17.5957 12.4714 17.7344 12.989 18.0117 13.325C18.2891 13.657 18.627 13.823 19.0254 13.823C19.4082 13.823 19.7266 13.6707 19.9805 13.366C20.2344 13.0574 20.3613 12.5535 20.3613 11.8542C20.3613 11.2019 20.2305 10.7175 19.9688 10.4011C19.707 10.0847 19.3828 9.92651 18.9961 9.92651C18.5938 9.92651 18.2598 10.0828 17.9941 10.3953C17.7285 10.7039 17.5957 11.1628 17.5957 11.7722ZM27.2109 14.989H25.5645V8.78394C24.9629 9.34644 24.2539 9.76245 23.4375 10.032V8.53784C23.8672 8.39722 24.334 8.13159 24.8379 7.74097C25.3418 7.34644 25.6875 6.88745 25.875 6.36401H27.2109V14.989ZM32.9062 14.989V13.2605H29.3906V11.8191L33.1172 6.36401H34.5V11.8132H35.5664V13.2605H34.5V14.989H32.9062ZM32.9062 11.8132V8.87769L30.9316 11.8132H32.9062ZM23.0516 24.989H21.9195L21.4695 23.8183H19.4094L18.984 24.989H17.8801L19.8875 19.8351H20.9879L23.0516 24.989ZM21.1356 22.95L20.4254 21.0375L19.7293 22.95H21.1356ZM23.8266 24.989V19.8351H26.0168C26.5676 19.8351 26.9672 19.882 27.2156 19.9757C27.4664 20.0671 27.6668 20.2312 27.8168 20.4679C27.9668 20.7046 28.0418 20.9753 28.0418 21.28C28.0418 21.6667 27.9281 21.9867 27.7008 22.2398C27.4734 22.4906 27.1336 22.6488 26.6813 22.7144C26.9063 22.8457 27.0914 22.9898 27.2367 23.1468C27.3844 23.3039 27.5824 23.5828 27.8309 23.9835L28.4602 24.989H27.2156L26.4633 23.8675C26.1961 23.4667 26.0133 23.2148 25.9148 23.1117C25.8164 23.0062 25.7121 22.9347 25.602 22.8972C25.4918 22.8574 25.3172 22.8375 25.0781 22.8375H24.8672V24.989H23.8266ZM24.8672 22.0148H25.6371C26.1363 22.0148 26.448 21.9937 26.5723 21.9515C26.6965 21.9093 26.7938 21.8367 26.8641 21.7335C26.9344 21.6304 26.9695 21.5015 26.9695 21.3468C26.9695 21.1734 26.9227 21.0339 26.8289 20.9285C26.7375 20.8207 26.6074 20.7527 26.4387 20.7246C26.3543 20.7128 26.1012 20.707 25.6793 20.707H24.8672V22.0148ZM29.2492 24.989V19.8351H32.7824V20.707H30.2898V21.9269H32.4414V22.7988H30.2898V24.989H29.2492Z" fill="white"/>
<defs>
<linearGradient id="paint0_linear_64_1939" x1="25.5" y1="1.98901" x2="25.5" y2="33.989" gradientUnits="userSpaceOnUse">
<stop stop-color="#8F8100"/>
<stop offset="1" stop-color="#EB88DD"/>
</linearGradient>
</defs>
</svg>
