<svg width="45" height="23" viewBox="0 0 45 23" fill="none" xmlns="http://www.w3.org/2000/svg">
<path d="M1 11.989C1 6.46617 5.47715 1.98901 11 1.98901H43C43.5523 1.98901 44 2.43673 44 2.98901V20.989C44 21.5413 43.5523 21.989 43 21.989H11C5.47715 21.989 1 17.5119 1 11.989Z" fill="url(#paint0_linear_97_5797)"/>
<path d="M1 11.989C1 6.46617 5.47715 1.98901 11 1.98901H43C43.5523 1.98901 44 2.43673 44 2.98901V20.989C44 21.5413 43.5523 21.989 43 21.989H11C5.47715 21.989 1 17.5119 1 11.989Z" stroke="#0D5048" stroke-width="2" stroke-linejoin="round"/>
<path d="M9.04102 15.989V7.39917H10.7754V10.78H14.1738V7.39917H15.9082V15.989H14.1738V12.2332H10.7754V15.989H9.04102ZM19.3359 7.39917V10.5574C19.8672 9.93628 20.502 9.62573 21.2402 9.62573C21.6191 9.62573 21.9609 9.69604 22.2656 9.83667C22.5703 9.97729 22.7988 10.157 22.9512 10.3757C23.1074 10.5945 23.2129 10.8367 23.2676 11.1023C23.3262 11.3679 23.3555 11.78 23.3555 12.3386V15.989H21.709V12.7019C21.709 12.0496 21.6777 11.6355 21.6152 11.4597C21.5527 11.2839 21.4414 11.1453 21.2812 11.0437C21.125 10.9382 20.9277 10.8855 20.6895 10.8855C20.416 10.8855 20.1719 10.9519 19.957 11.0847C19.7422 11.2175 19.584 11.4187 19.4824 11.6882C19.3848 11.9539 19.3359 12.3484 19.3359 12.8718V15.989H17.6895V7.39917H19.3359ZM24.8438 13.698V12.0515H28.0781V13.698H24.8438ZM29.0566 15.989V7.39917H30.7441L34.2598 13.1355V7.39917H35.8711V15.989H34.1309L30.668 10.3875V15.989H29.0566Z" fill="white"/>
<defs>
<linearGradient id="paint0_linear_97_5797" x1="22.5" y1="1.98901" x2="22.5" y2="21.989" gradientUnits="userSpaceOnUse">
<stop stop-color="#4DC7B4"/>
<stop offset="1" stop-color="#0D5048"/>
</linearGradient>
</defs>
</svg>
