<svg width="58" height="24" viewBox="0 0 58 24" fill="none" xmlns="http://www.w3.org/2000/svg">
<rect x="2" y="1.98901" width="55" height="20" rx="10" fill="url(#paint0_linear_40_2524)"/>
<rect x="2" y="1.98901" width="55" height="20" rx="10" stroke="#E456F7" stroke-width="3" stroke-linejoin="round"/>
<path d="M15.5195 12.8308L17.2012 13.364C16.9434 14.3015 16.5137 14.9988 15.9121 15.4558C15.3145 15.9089 14.5547 16.1355 13.6328 16.1355C12.4922 16.1355 11.5547 15.7468 10.8203 14.9695C10.0859 14.1882 9.71875 13.1218 9.71875 11.7703C9.71875 10.3406 10.0879 9.2312 10.8262 8.44214C11.5645 7.64917 12.5352 7.25269 13.7383 7.25269C14.7891 7.25269 15.6426 7.56323 16.2988 8.18433C16.6895 8.55151 16.9824 9.07886 17.1777 9.76636L15.4609 10.1765C15.3594 9.7312 15.1465 9.37964 14.8223 9.12183C14.502 8.86401 14.1113 8.73511 13.6504 8.73511C13.0137 8.73511 12.4961 8.96362 12.0977 9.42065C11.7031 9.87769 11.5059 10.6179 11.5059 11.6414C11.5059 12.7273 11.7012 13.5007 12.0918 13.9617C12.4824 14.4226 12.9902 14.6531 13.6152 14.6531C14.0762 14.6531 14.4727 14.5066 14.8047 14.2136C15.1367 13.9207 15.375 13.4597 15.5195 12.8308ZM18.7012 15.989V7.39917H22.3516C23.2695 7.39917 23.9355 7.47729 24.3496 7.63354C24.7676 7.78589 25.1016 8.05933 25.3516 8.45386C25.6016 8.84839 25.7266 9.29956 25.7266 9.80737C25.7266 10.4519 25.5371 10.9851 25.1582 11.407C24.7793 11.825 24.2129 12.0886 23.459 12.198C23.834 12.4167 24.1426 12.657 24.3848 12.9187C24.6309 13.1804 24.9609 13.6453 25.375 14.3132L26.4238 15.989H24.3496L23.0957 14.1199C22.6504 13.4519 22.3457 13.032 22.1816 12.8601C22.0176 12.6843 21.8438 12.5652 21.6602 12.5027C21.4766 12.4363 21.1855 12.4031 20.7871 12.4031H20.4355V15.989H18.7012ZM20.4355 11.032H21.7188C22.5508 11.032 23.0703 10.9968 23.2773 10.9265C23.4844 10.8562 23.6465 10.7351 23.7637 10.5632C23.8809 10.3914 23.9395 10.1765 23.9395 9.9187C23.9395 9.62964 23.8613 9.39722 23.7051 9.22144C23.5527 9.04175 23.3359 8.92847 23.0547 8.88159C22.9141 8.86206 22.4922 8.85229 21.7891 8.85229H20.4355V11.032ZM27.3672 15.989V7.39917H33.7363V8.85229H29.1016V10.7566H33.4141V12.2039H29.1016V14.5417H33.9004V15.989H27.3672ZM35.377 7.39917H38.8105C39.4902 7.39917 39.9961 7.42847 40.3281 7.48706C40.6641 7.54175 40.9629 7.65894 41.2246 7.83862C41.4902 8.01831 41.7109 8.25854 41.8867 8.55933C42.0625 8.8562 42.1504 9.19019 42.1504 9.56128C42.1504 9.96362 42.041 10.3328 41.8223 10.6687C41.6074 11.0046 41.3145 11.2566 40.9434 11.4246C41.4668 11.5769 41.8691 11.8367 42.1504 12.2039C42.4316 12.571 42.5723 13.0027 42.5723 13.4988C42.5723 13.8894 42.4805 14.2703 42.2969 14.6414C42.1172 15.0085 41.8691 15.3035 41.5527 15.5261C41.2402 15.7449 40.8535 15.8796 40.3926 15.9304C40.1035 15.9617 39.4062 15.9812 38.3008 15.989H35.377V7.39917ZM37.1113 8.82886V10.8152H38.248C38.9238 10.8152 39.3438 10.8054 39.5078 10.7859C39.8047 10.7507 40.0371 10.6492 40.2051 10.4812C40.377 10.3093 40.4629 10.0847 40.4629 9.80737C40.4629 9.54175 40.3887 9.3269 40.2402 9.16284C40.0957 8.99487 39.8789 8.89331 39.5898 8.85815C39.418 8.83862 38.9238 8.82886 38.1074 8.82886H37.1113ZM37.1113 12.2449V14.5417H38.7168C39.3418 14.5417 39.7383 14.5242 39.9062 14.489C40.1641 14.4421 40.373 14.3289 40.5332 14.1492C40.6973 13.9656 40.7793 13.7214 40.7793 13.4167C40.7793 13.1589 40.7168 12.9402 40.5918 12.7605C40.4668 12.5808 40.2852 12.45 40.0469 12.3679C39.8125 12.2859 39.3008 12.2449 38.5117 12.2449H37.1113ZM47.8926 15.989H46.2461V9.78394C45.6445 10.3464 44.9355 10.7625 44.1191 11.032V9.53784C44.5488 9.39722 45.0156 9.13159 45.5195 8.74097C46.0234 8.34644 46.3691 7.88745 46.5566 7.36401H47.8926V15.989Z" fill="white"/>
<defs>
<linearGradient id="paint0_linear_40_2524" x1="29.5" y1="1.98901" x2="29.5" y2="21.989" gradientUnits="userSpaceOnUse">
<stop stop-color="#E456F7"/>
<stop offset="1" stop-color="#680075"/>
</linearGradient>
</defs>
</svg>
