<svg width="67" height="24" viewBox="0 0 67 24" fill="none" xmlns="http://www.w3.org/2000/svg">
<rect x="1" y="1.98901" width="65" height="20" rx="10" fill="url(#paint0_linear_40_2506)"/>
<rect x="1" y="1.98901" width="65" height="20" rx="10" stroke="#075EDD" stroke-width="3" stroke-linejoin="round"/>
<path d="M14.8496 12.8308L16.5312 13.364C16.2734 14.3015 15.8438 14.9988 15.2422 15.4558C14.6445 15.9089 13.8848 16.1355 12.9629 16.1355C11.8223 16.1355 10.8848 15.7468 10.1504 14.9695C9.41602 14.1882 9.04883 13.1218 9.04883 11.7703C9.04883 10.3406 9.41797 9.2312 10.1562 8.44214C10.8945 7.64917 11.8652 7.25269 13.0684 7.25269C14.1191 7.25269 14.9727 7.56323 15.6289 8.18433C16.0195 8.55151 16.3125 9.07886 16.5078 9.76636L14.791 10.1765C14.6895 9.7312 14.4766 9.37964 14.1523 9.12183C13.832 8.86401 13.4414 8.73511 12.9805 8.73511C12.3438 8.73511 11.8262 8.96362 11.4277 9.42065C11.0332 9.87769 10.8359 10.6179 10.8359 11.6414C10.8359 12.7273 11.0312 13.5007 11.4219 13.9617C11.8125 14.4226 12.3203 14.6531 12.9453 14.6531C13.4062 14.6531 13.8027 14.5066 14.1348 14.2136C14.4668 13.9207 14.7051 13.4597 14.8496 12.8308ZM18.0195 7.39917H21.1895C21.9043 7.39917 22.4492 7.45386 22.8242 7.56323C23.3281 7.71167 23.7598 7.97534 24.1191 8.35425C24.4785 8.73315 24.752 9.198 24.9395 9.74878C25.127 10.2957 25.2207 10.9714 25.2207 11.7761C25.2207 12.4832 25.1328 13.0925 24.957 13.6042C24.7422 14.2292 24.4355 14.7351 24.0371 15.1218C23.7363 15.4148 23.3301 15.6433 22.8184 15.8074C22.4355 15.9285 21.9238 15.989 21.2832 15.989H18.0195V7.39917ZM19.7539 8.85229V14.5417H21.0488C21.5332 14.5417 21.8828 14.5144 22.0977 14.4597C22.3789 14.3894 22.6113 14.2703 22.7949 14.1023C22.9824 13.9343 23.1348 13.6589 23.252 13.2761C23.3691 12.8894 23.4277 12.364 23.4277 11.7C23.4277 11.0359 23.3691 10.5261 23.252 10.1707C23.1348 9.81519 22.9707 9.53784 22.7598 9.33862C22.5488 9.1394 22.2812 9.00464 21.957 8.93433C21.7148 8.87964 21.2402 8.85229 20.5332 8.85229H19.7539ZM26.7207 15.989V7.39917H28.4551V11.2136L31.959 7.39917H34.291L31.0566 10.7449L34.4668 15.989H32.2227L29.8613 11.9578L28.4551 13.3933V15.989H26.7207ZM35.3867 15.989V7.39917H37.0742L40.5898 13.1355V7.39917H42.2012V15.989H40.4609L36.998 10.3875V15.989H35.3867ZM47.8906 15.989H46.2441V9.78394C45.6426 10.3464 44.9336 10.7625 44.1172 11.032V9.53784C44.5469 9.39722 45.0137 9.13159 45.5176 8.74097C46.0215 8.34644 46.3672 7.88745 46.5547 7.36401H47.8906V15.989ZM50.7266 7.39917H54.1602C54.8398 7.39917 55.3457 7.42847 55.6777 7.48706C56.0137 7.54175 56.3125 7.65894 56.5742 7.83862C56.8398 8.01831 57.0605 8.25854 57.2363 8.55933C57.4121 8.8562 57.5 9.19019 57.5 9.56128C57.5 9.96362 57.3906 10.3328 57.1719 10.6687C56.957 11.0046 56.6641 11.2566 56.293 11.4246C56.8164 11.5769 57.2188 11.8367 57.5 12.2039C57.7812 12.571 57.9219 13.0027 57.9219 13.4988C57.9219 13.8894 57.8301 14.2703 57.6465 14.6414C57.4668 15.0085 57.2188 15.3035 56.9023 15.5261C56.5898 15.7449 56.2031 15.8796 55.7422 15.9304C55.4531 15.9617 54.7559 15.9812 53.6504 15.989H50.7266V7.39917ZM52.4609 8.82886V10.8152H53.5977C54.2734 10.8152 54.6934 10.8054 54.8574 10.7859C55.1543 10.7507 55.3867 10.6492 55.5547 10.4812C55.7266 10.3093 55.8125 10.0847 55.8125 9.80737C55.8125 9.54175 55.7383 9.3269 55.5898 9.16284C55.4453 8.99487 55.2285 8.89331 54.9395 8.85815C54.7676 8.83862 54.2734 8.82886 53.457 8.82886H52.4609ZM52.4609 12.2449V14.5417H54.0664C54.6914 14.5417 55.0879 14.5242 55.2559 14.489C55.5137 14.4421 55.7227 14.3289 55.8828 14.1492C56.0469 13.9656 56.1289 13.7214 56.1289 13.4167C56.1289 13.1589 56.0664 12.9402 55.9414 12.7605C55.8164 12.5808 55.6348 12.45 55.3965 12.3679C55.1621 12.2859 54.6504 12.2449 53.8613 12.2449H52.4609Z" fill="white"/>
<defs>
<linearGradient id="paint0_linear_40_2506" x1="33.5" y1="1.98901" x2="33.5" y2="21.989" gradientUnits="userSpaceOnUse">
<stop stop-color="#075EDD"/>
<stop offset="1" stop-color="#E675FF"/>
</linearGradient>
</defs>
</svg>
