<svg width="44" height="24" viewBox="0 0 44 24" fill="none" xmlns="http://www.w3.org/2000/svg">
<rect x="2" y="1.98901" width="41" height="20" rx="10" fill="url(#paint0_linear_52_1880)"/>
<rect x="2" y="1.98901" width="41" height="20" rx="10" stroke="#2E8CCC" stroke-width="3" stroke-linejoin="round"/>
<path d="M10.0781 15.989V7.46948H11.8125V14.5417H16.125V15.989H10.0781ZM17.3145 15.989V7.39917H19.0488V15.989H17.3145ZM20.707 15.989V7.39917H23.4902C24.5449 7.39917 25.2324 7.44214 25.5527 7.52808C26.0449 7.65698 26.457 7.93823 26.7891 8.37183C27.1211 8.80151 27.2871 9.35815 27.2871 10.0417C27.2871 10.5691 27.1914 11.0125 27 11.3718C26.8086 11.7312 26.5645 12.0144 26.2676 12.2214C25.9746 12.4246 25.6758 12.5593 25.3711 12.6257C24.957 12.7078 24.3574 12.7488 23.5723 12.7488H22.4414V15.989H20.707ZM22.4414 8.85229V11.2898H23.3906C24.0742 11.2898 24.5312 11.2449 24.7617 11.155C24.9922 11.0652 25.1719 10.9246 25.3008 10.7332C25.4336 10.5417 25.5 10.3191 25.5 10.0652C25.5 9.75269 25.4082 9.49487 25.2246 9.29175C25.041 9.08862 24.8086 8.96167 24.5273 8.91089C24.3203 8.87183 23.9043 8.85229 23.2793 8.85229H22.4414ZM28.7109 15.989V7.39917H35.0801V8.85229H30.4453V10.7566H34.7578V12.2039H30.4453V14.5417H35.2441V15.989H28.7109Z" fill="white"/>
<defs>
<linearGradient id="paint0_linear_52_1880" x1="22.5" y1="1.98901" x2="22.5" y2="21.989" gradientUnits="userSpaceOnUse">
<stop stop-color="#2E8CCC"/>
<stop offset="1" stop-color="#FFFD54"/>
</linearGradient>
</defs>
</svg>
