<svg width="52" height="24" viewBox="0 0 52 24" fill="none" xmlns="http://www.w3.org/2000/svg">
<rect x="2" y="1.98901" width="49" height="20" rx="10" fill="url(#paint0_linear_40_2555)"/>
<rect x="2" y="1.98901" width="49" height="20" rx="10" stroke="#7D5203" stroke-width="3" stroke-linejoin="round"/>
<path d="M10.3574 7.39917H13.5273C14.2422 7.39917 14.7871 7.45386 15.1621 7.56323C15.666 7.71167 16.0977 7.97534 16.457 8.35425C16.8164 8.73315 17.0898 9.198 17.2773 9.74878C17.4648 10.2957 17.5586 10.9714 17.5586 11.7761C17.5586 12.4832 17.4707 13.0925 17.2949 13.6042C17.0801 14.2292 16.7734 14.7351 16.375 15.1218C16.0742 15.4148 15.668 15.6433 15.1562 15.8074C14.7734 15.9285 14.2617 15.989 13.6211 15.989H10.3574V7.39917ZM12.0918 8.85229V14.5417H13.3867C13.8711 14.5417 14.2207 14.5144 14.4355 14.4597C14.7168 14.3894 14.9492 14.2703 15.1328 14.1023C15.3203 13.9343 15.4727 13.6589 15.5898 13.2761C15.707 12.8894 15.7656 12.364 15.7656 11.7C15.7656 11.0359 15.707 10.5261 15.5898 10.1707C15.4727 9.81519 15.3086 9.53784 15.0977 9.33862C14.8867 9.1394 14.6191 9.00464 14.2949 8.93433C14.0527 8.87964 13.5781 8.85229 12.8711 8.85229H12.0918ZM18.6836 11.7468C18.6836 10.8718 18.8145 10.1375 19.0762 9.5437C19.2715 9.1062 19.5371 8.71362 19.873 8.36597C20.2129 8.01831 20.584 7.7605 20.9863 7.59253C21.5215 7.36597 22.1387 7.25269 22.8379 7.25269C24.1035 7.25269 25.1152 7.64526 25.873 8.43042C26.6348 9.21558 27.0156 10.3074 27.0156 11.7058C27.0156 13.0925 26.6387 14.1785 25.8848 14.9636C25.1309 15.7449 24.123 16.1355 22.8613 16.1355C21.584 16.1355 20.5684 15.7468 19.8145 14.9695C19.0605 14.1882 18.6836 13.114 18.6836 11.7468ZM20.4707 11.6882C20.4707 12.6609 20.6953 13.3992 21.1445 13.9031C21.5938 14.4031 22.1641 14.6531 22.8555 14.6531C23.5469 14.6531 24.1133 14.405 24.5547 13.9089C25 13.4089 25.2227 12.6609 25.2227 11.6648C25.2227 10.6804 25.0059 9.94604 24.5723 9.46167C24.1426 8.97729 23.5703 8.73511 22.8555 8.73511C22.1406 8.73511 21.5645 8.9812 21.127 9.47339C20.6895 9.96167 20.4707 10.7 20.4707 11.6882ZM28.4219 15.989V7.46948H30.1562V14.5417H34.4688V15.989H28.4219ZM35.7344 15.989V7.39917H37.4688V11.2136L40.9727 7.39917H43.3047L40.0703 10.7449L43.4805 15.989H41.2363L38.875 11.9578L37.4688 13.3933V15.989H35.7344Z" fill="white"/>
<defs>
<linearGradient id="paint0_linear_40_2555" x1="26.5" y1="1.98901" x2="26.5" y2="21.989" gradientUnits="userSpaceOnUse">
<stop stop-color="#9A51BF"/>
<stop offset="1" stop-color="#7D5203"/>
</linearGradient>
</defs>
</svg>
