<svg width="99" height="102" viewBox="0 0 99 102" fill="none" xmlns="http://www.w3.org/2000/svg">
<path d="M43.3507 101.132C40.5895 101.132 38.3507 98.8937 38.3507 96.132V34.8762C38.3507 24.1155 31.8448 15.2414 31.7789 15.1545C30.1095 12.9553 30.5396 9.81861 32.7394 8.14861C34.9381 6.47971 38.0758 6.91031 39.7448 9.10951C40.0964 9.57241 48.3508 20.6134 48.3508 34.8761V96.132C48.3507 98.8938 46.1119 101.132 43.3507 101.132Z" fill="url(#paint0_linear_86_2530)"/>
<path d="M31.1535 101.132C28.3923 101.132 26.1535 98.8937 26.1535 96.132V50.8645C26.1535 39.3596 17.1877 35.3235 17.0969 35.2844C14.5652 34.1819 13.406 31.2356 14.508 28.7043C15.6101 26.1711 18.5563 25.0148 21.0881 26.1145C21.7033 26.3831 36.1535 32.8791 36.1535 50.8645V96.1321C36.1535 98.8938 33.9148 101.132 31.1535 101.132Z" fill="url(#paint1_linear_86_2530)"/>
<path d="M18.9562 101.132C16.195 101.132 13.9562 98.8937 13.9562 96.132V66.8527C13.9562 65.9269 13.7833 65.297 13.442 64.9787C12.7779 64.3586 11.232 64.2267 10.9034 64.256C8.1485 64.4337 5.7594 62.3712 5.5665 59.6164C5.3736 56.8625 7.4508 54.4728 10.2052 54.2795C10.8175 54.2385 16.2975 53.968 20.2618 57.6652C21.9473 59.2365 23.9561 62.1056 23.9561 66.8527V96.132C23.9562 98.8938 21.7174 101.132 18.9562 101.132Z" fill="url(#paint2_linear_86_2530)"/>
<path d="M55.548 101.132C58.3092 101.132 60.548 98.8937 60.548 96.132V34.8762C60.548 24.1155 67.0539 15.2414 67.1198 15.1545C68.7892 12.9553 68.3591 9.81861 66.1594 8.14861C63.9607 6.47971 60.823 6.91031 59.154 9.10951C58.8024 9.57241 50.548 20.6134 50.548 34.8761V96.132C50.548 98.8938 52.7867 101.132 55.548 101.132Z" fill="url(#paint3_linear_86_2530)"/>
<path d="M67.7452 101.132C70.5064 101.132 72.7452 98.8937 72.7452 96.132V50.8645C72.7452 39.3596 81.711 35.3235 81.8018 35.2844C84.3335 34.1819 85.4927 31.2356 84.3907 28.7043C83.2886 26.1711 80.3424 25.0148 77.8106 26.1145C77.1954 26.3831 62.7452 32.8791 62.7452 50.8645V96.1321C62.7452 98.8938 64.984 101.132 67.7452 101.132Z" fill="url(#paint4_linear_86_2530)"/>
<path d="M79.9425 101.132C82.7037 101.132 84.9425 98.8937 84.9425 96.132V66.8527C84.9425 65.9269 85.1154 65.297 85.4567 64.9787C86.1208 64.3586 87.6667 64.2267 87.9953 64.256C90.7502 64.4337 93.1393 62.3712 93.3322 59.6164C93.5251 56.8625 91.4479 54.4728 88.6935 54.2795C88.0812 54.2385 82.6012 53.968 78.6369 57.6652C76.9514 59.2365 74.9426 62.1056 74.9426 66.8527V96.132C74.9425 98.8938 77.1813 101.132 79.9425 101.132Z" fill="url(#paint5_linear_86_2530)"/>
<path d="M36.318 18.174C35.8908 18.174 35.4567 18.1193 35.0241 18.0031L27.5514 16.0061C26.2643 15.6623 25.1681 14.8196 24.505 13.6633C23.5377 11.9768 23.5724 9.91724 24.5978 8.15354C26.42 5.01884 34.2169 0.546143 37.8551 0.546143C37.86 0.546143 37.8644 0.546143 37.8688 0.546143C39.9088 0.552043 41.7042 1.56374 42.671 3.25024C43.3307 4.40064 43.506 5.76584 43.1588 7.04614L41.1407 14.4826C40.5367 16.7082 38.5201 18.174 36.318 18.174Z" fill="#75CE36"/>
<path d="M12.6612 37.9435C11.7174 37.9435 10.7842 37.6759 9.97574 37.1613C8.33564 36.1164 7.40984 34.2765 7.49824 32.2384C7.65594 28.6095 12.4933 21.0128 15.714 19.3351C17.5231 18.3937 19.5827 18.4552 21.2218 19.4982C22.3405 20.2111 23.13 21.338 23.4176 22.632L25.0875 30.1535C25.6842 32.842 23.9947 35.507 21.3087 36.1145L13.7638 37.8206C13.399 37.9025 13.0294 37.9435 12.6612 37.9435Z" fill="#75CE36"/>
<path d="M6.46348 69.7287C6.45758 69.7287 6.45228 69.7287 6.44688 69.7287C0.35068 69.7082 0.37708 61.8283 0.38588 59.2385C0.39178 57.5207 0.52158 55.8742 0.75258 54.6028C1.70428 49.3635 5.07388 48.7893 6.49918 48.7893C6.50508 48.7893 6.51088 48.7893 6.51678 48.7893C7.84298 48.7942 9.11298 49.3245 10.0476 50.2659L15.4783 55.7327C17.4192 57.6858 17.4148 60.8421 15.468 62.7903L10.0007 68.263C9.06258 69.2014 7.79008 69.7287 6.46348 69.7287Z" fill="#75CE36"/>
<path d="M62.5807 18.174C63.0079 18.174 63.442 18.1193 63.8746 18.0031L71.3473 16.006C72.6344 15.6622 73.7306 14.8195 74.3937 13.6632C75.361 11.9767 75.3263 9.91714 74.3009 8.15344C72.4786 5.01884 64.6817 0.546143 61.0436 0.546143C61.0387 0.546143 61.0343 0.546143 61.0299 0.546143C58.9899 0.552043 57.1945 1.56374 56.2277 3.25024C55.568 4.40064 55.3927 5.76584 55.7399 7.04614L57.758 14.4826C58.3619 16.7082 60.3785 18.174 62.5807 18.174Z" fill="#75CE36"/>
<path d="M86.2374 37.9435C87.1812 37.9435 88.1144 37.6759 88.9229 37.1613C90.563 36.1164 91.4888 34.2765 91.4004 32.2384C91.2427 28.6095 86.4053 21.0128 83.1846 19.3351C81.3755 18.3937 79.3159 18.4552 77.6768 19.4982C76.5581 20.2111 75.7686 21.338 75.481 22.632L73.8111 30.1535C73.2144 32.842 74.9039 35.507 77.5899 36.1145L85.1348 37.8206C85.4996 37.9025 85.8692 37.9435 86.2374 37.9435Z" fill="#75CE36"/>
<path d="M92.4352 69.7287C92.4411 69.7287 92.4464 69.7287 92.4518 69.7287C98.548 69.7082 98.5216 61.8283 98.5128 59.2385C98.5069 57.5207 98.3771 55.8742 98.1461 54.6028C97.1944 49.3635 93.8248 48.7893 92.3995 48.7893C92.3936 48.7893 92.3878 48.7893 92.3819 48.7893C91.0557 48.7942 89.7857 49.3245 88.8511 50.2659L83.4204 55.7327C81.4795 57.6858 81.4839 60.8421 83.4307 62.7903L88.898 68.263C89.836 69.2014 91.1085 69.7287 92.4352 69.7287Z" fill="#75CE36"/>
<defs>
<linearGradient id="paint0_linear_86_2530" x1="38.0946" y1="54.1319" x2="48.3485" y2="54.1319" gradientUnits="userSpaceOnUse">
<stop stop-color="#598B36"/>
<stop offset="0.4" stop-color="#75CE36"/>
<stop offset="1" stop-color="#598B36"/>
</linearGradient>
<linearGradient id="paint1_linear_86_2530" x1="26.1937" y1="63.4154" x2="35.9903" y2="63.4154" gradientUnits="userSpaceOnUse">
<stop stop-color="#598B36"/>
<stop offset="0.4" stop-color="#75CE36"/>
<stop offset="1" stop-color="#598B36"/>
</linearGradient>
<linearGradient id="paint2_linear_86_2530" x1="13.8784" y1="77.6957" x2="23.7802" y2="77.6957" gradientUnits="userSpaceOnUse">
<stop stop-color="#598B36"/>
<stop offset="0.4" stop-color="#75CE36"/>
<stop offset="1" stop-color="#598B36"/>
</linearGradient>
<linearGradient id="paint3_linear_86_2530" x1="50.4476" y1="54.1319" x2="60.5509" y2="54.1319" gradientUnits="userSpaceOnUse">
<stop stop-color="#598B36"/>
<stop offset="0.4" stop-color="#75CE36"/>
<stop offset="1" stop-color="#598B36"/>
</linearGradient>
<linearGradient id="paint4_linear_86_2530" x1="62.8005" y1="63.4154" x2="73.2223" y2="63.4154" gradientUnits="userSpaceOnUse">
<stop stop-color="#598B36"/>
<stop offset="0.4" stop-color="#75CE36"/>
<stop offset="1" stop-color="#598B36"/>
</linearGradient>
<linearGradient id="paint5_linear_86_2530" x1="74.8521" y1="77.6957" x2="84.6452" y2="77.6957" gradientUnits="userSpaceOnUse">
<stop stop-color="#598B36"/>
<stop offset="0.4" stop-color="#75CE36"/>
<stop offset="1" stop-color="#598B36"/>
</linearGradient>
</defs>
</svg>
