<svg width="50" height="24" viewBox="0 0 50 24" fill="none" xmlns="http://www.w3.org/2000/svg">
<rect x="2" y="1.98901" width="47" height="20" rx="10" fill="url(#paint0_linear_85_2079)"/>
<rect x="2" y="1.98901" width="47" height="20" rx="10" stroke="#FF2D60" stroke-width="3" stroke-linejoin="round"/>
<path d="M9.48633 15.989L12.4219 11.5066L9.76172 7.39917H11.7891L13.5117 10.1589L15.1992 7.39917H17.209L14.5371 11.571L17.4727 15.989H15.3809L13.4766 13.0183L11.5664 15.989H9.48633ZM18.3633 15.989V7.39917H21.1465C22.2012 7.39917 22.8887 7.44214 23.209 7.52808C23.7012 7.65698 24.1133 7.93823 24.4453 8.37183C24.7773 8.80151 24.9434 9.35815 24.9434 10.0417C24.9434 10.5691 24.8477 11.0125 24.6562 11.3718C24.4648 11.7312 24.2207 12.0144 23.9238 12.2214C23.6309 12.4246 23.332 12.5593 23.0273 12.6257C22.6133 12.7078 22.0137 12.7488 21.2285 12.7488H20.0977V15.989H18.3633ZM20.0977 8.85229V11.2898H21.0469C21.7305 11.2898 22.1875 11.2449 22.418 11.155C22.6484 11.0652 22.8281 10.9246 22.957 10.7332C23.0898 10.5417 23.1562 10.3191 23.1562 10.0652C23.1562 9.75269 23.0645 9.49487 22.8809 9.29175C22.6973 9.08862 22.4648 8.96167 22.1836 8.91089C21.9766 8.87183 21.5605 8.85229 20.9355 8.85229H20.0977ZM26.0156 11.7468C26.0156 10.8718 26.1465 10.1375 26.4082 9.5437C26.6035 9.1062 26.8691 8.71362 27.2051 8.36597C27.5449 8.01831 27.916 7.7605 28.3184 7.59253C28.8535 7.36597 29.4707 7.25269 30.1699 7.25269C31.4355 7.25269 32.4473 7.64526 33.2051 8.43042C33.9668 9.21558 34.3477 10.3074 34.3477 11.7058C34.3477 13.0925 33.9707 14.1785 33.2168 14.9636C32.4629 15.7449 31.4551 16.1355 30.1934 16.1355C28.916 16.1355 27.9004 15.7468 27.1465 14.9695C26.3926 14.1882 26.0156 13.114 26.0156 11.7468ZM27.8027 11.6882C27.8027 12.6609 28.0273 13.3992 28.4766 13.9031C28.9258 14.4031 29.4961 14.6531 30.1875 14.6531C30.8789 14.6531 31.4453 14.405 31.8867 13.9089C32.332 13.4089 32.5547 12.6609 32.5547 11.6648C32.5547 10.6804 32.3379 9.94604 31.9043 9.46167C31.4746 8.97729 30.9023 8.73511 30.1875 8.73511C29.4727 8.73511 28.8965 8.9812 28.459 9.47339C28.0215 9.96167 27.8027 10.7 27.8027 11.6882ZM39.5566 15.989H37.9102V9.78394C37.3086 10.3464 36.5996 10.7625 35.7832 11.032V9.53784C36.2129 9.39722 36.6797 9.13159 37.1836 8.74097C37.6875 8.34644 38.0332 7.88745 38.2207 7.36401H39.5566V15.989Z" fill="white"/>
<defs>
<linearGradient id="paint0_linear_85_2079" x1="25.5" y1="1.98901" x2="25.5" y2="21.989" gradientUnits="userSpaceOnUse">
<stop stop-color="#2C2D60"/>
<stop offset="1" stop-color="#FF2D60"/>
</linearGradient>
</defs>
</svg>
