<svg width="66" height="24" viewBox="0 0 66 24" fill="none" xmlns="http://www.w3.org/2000/svg">
<rect x="1" y="1.98901" width="64" height="20" rx="10" fill="url(#paint0_linear_52_1873)"/>
<rect x="1" y="1.98901" width="64" height="20" rx="10" stroke="#34A688" stroke-width="3" stroke-linejoin="round"/>
<path d="M9.16406 15.989V7.39917H11.7598L13.3184 13.2585L14.8594 7.39917H17.4609V15.989H15.8496V9.22729L14.1445 15.989H12.4746L10.7754 9.22729V15.989H9.16406ZM26.9297 15.989H25.043L24.293 14.0378H20.8594L20.1504 15.989H18.3105L21.6562 7.39917H23.4902L26.9297 15.989ZM23.7363 12.5906L22.5527 9.40308L21.3926 12.5906H23.7363ZM27.873 15.989V7.39917H29.5605L33.0762 13.1355V7.39917H34.6875V15.989H32.9473L29.4844 10.3875V15.989H27.873ZM40.377 15.989H38.7305V9.78394C38.1289 10.3464 37.4199 10.7625 36.6035 11.032V9.53784C37.0332 9.39722 37.5 9.13159 38.0039 8.74097C38.5078 8.34644 38.8535 7.88745 39.041 7.36401H40.377V15.989ZM43.2129 7.39917H46.6465C47.3262 7.39917 47.832 7.42847 48.1641 7.48706C48.5 7.54175 48.7988 7.65894 49.0605 7.83862C49.3262 8.01831 49.5469 8.25854 49.7227 8.55933C49.8984 8.8562 49.9863 9.19019 49.9863 9.56128C49.9863 9.96362 49.877 10.3328 49.6582 10.6687C49.4434 11.0046 49.1504 11.2566 48.7793 11.4246C49.3027 11.5769 49.7051 11.8367 49.9863 12.2039C50.2676 12.571 50.4082 13.0027 50.4082 13.4988C50.4082 13.8894 50.3164 14.2703 50.1328 14.6414C49.9531 15.0085 49.7051 15.3035 49.3887 15.5261C49.0762 15.7449 48.6895 15.8796 48.2285 15.9304C47.9395 15.9617 47.2422 15.9812 46.1367 15.989H43.2129V7.39917ZM44.9473 8.82886V10.8152H46.084C46.7598 10.8152 47.1797 10.8054 47.3438 10.7859C47.6406 10.7507 47.873 10.6492 48.041 10.4812C48.2129 10.3093 48.2988 10.0847 48.2988 9.80737C48.2988 9.54175 48.2246 9.3269 48.0762 9.16284C47.9316 8.99487 47.7148 8.89331 47.4258 8.85815C47.2539 8.83862 46.7598 8.82886 45.9434 8.82886H44.9473ZM44.9473 12.2449V14.5417H46.5527C47.1777 14.5417 47.5742 14.5242 47.7422 14.489C48 14.4421 48.209 14.3289 48.3691 14.1492C48.5332 13.9656 48.6152 13.7214 48.6152 13.4167C48.6152 13.1589 48.5527 12.9402 48.4277 12.7605C48.3027 12.5808 48.1211 12.45 47.8828 12.3679C47.6484 12.2859 47.1367 12.2449 46.3477 12.2449H44.9473ZM55.7285 15.989H54.082V9.78394C53.4805 10.3464 52.7715 10.7625 51.9551 11.032V9.53784C52.3848 9.39722 52.8516 9.13159 53.3555 8.74097C53.8594 8.34644 54.2051 7.88745 54.3926 7.36401H55.7285V15.989Z" fill="white"/>
<defs>
<linearGradient id="paint0_linear_52_1873" x1="33" y1="1.98901" x2="33" y2="21.989" gradientUnits="userSpaceOnUse">
<stop stop-color="#34A688"/>
<stop offset="1" stop-color="#A30370"/>
</linearGradient>
</defs>
</svg>
