<svg width="59" height="24" viewBox="0 0 59 24" fill="none" xmlns="http://www.w3.org/2000/svg">
<rect x="2" y="1.98901" width="56" height="20" rx="10" fill="url(#paint0_linear_40_2572)"/>
<rect x="2" y="1.98901" width="56" height="20" rx="10" stroke="#FF8100" stroke-width="3" stroke-linejoin="round"/>
<path d="M10.1895 7.39917H13.3594C14.0742 7.39917 14.6191 7.45386 14.9941 7.56323C15.498 7.71167 15.9297 7.97534 16.2891 8.35425C16.6484 8.73315 16.9219 9.198 17.1094 9.74878C17.2969 10.2957 17.3906 10.9714 17.3906 11.7761C17.3906 12.4832 17.3027 13.0925 17.127 13.6042C16.9121 14.2292 16.6055 14.7351 16.207 15.1218C15.9062 15.4148 15.5 15.6433 14.9883 15.8074C14.6055 15.9285 14.0938 15.989 13.4531 15.989H10.1895V7.39917ZM11.9238 8.85229V14.5417H13.2188C13.7031 14.5417 14.0527 14.5144 14.2676 14.4597C14.5488 14.3894 14.7812 14.2703 14.9648 14.1023C15.1523 13.9343 15.3047 13.6589 15.4219 13.2761C15.5391 12.8894 15.5977 12.364 15.5977 11.7C15.5977 11.0359 15.5391 10.5261 15.4219 10.1707C15.3047 9.81519 15.1406 9.53784 14.9297 9.33862C14.7188 9.1394 14.4512 9.00464 14.127 8.93433C13.8848 8.87964 13.4102 8.85229 12.7031 8.85229H11.9238ZM18.8438 15.989V7.39917H21.4395L22.998 13.2585L24.5391 7.39917H27.1406V15.989H25.5293V9.22729L23.8242 15.989H22.1543L20.4551 9.22729V15.989H18.8438ZM28.8691 15.989V7.39917H32.5195C33.4375 7.39917 34.1035 7.47729 34.5176 7.63354C34.9355 7.78589 35.2695 8.05933 35.5195 8.45386C35.7695 8.84839 35.8945 9.29956 35.8945 9.80737C35.8945 10.4519 35.7051 10.9851 35.3262 11.407C34.9473 11.825 34.3809 12.0886 33.627 12.198C34.002 12.4167 34.3105 12.657 34.5527 12.9187C34.7988 13.1804 35.1289 13.6453 35.543 14.3132L36.5918 15.989H34.5176L33.2637 14.1199C32.8184 13.4519 32.5137 13.032 32.3496 12.8601C32.1855 12.6843 32.0117 12.5652 31.8281 12.5027C31.6445 12.4363 31.3535 12.4031 30.9551 12.4031H30.6035V15.989H28.8691ZM30.6035 11.032H31.8867C32.7188 11.032 33.2383 10.9968 33.4453 10.9265C33.6523 10.8562 33.8145 10.7351 33.9316 10.5632C34.0488 10.3914 34.1074 10.1765 34.1074 9.9187C34.1074 9.62964 34.0293 9.39722 33.873 9.22144C33.7207 9.04175 33.5039 8.92847 33.2227 8.88159C33.082 8.86206 32.6602 8.85229 31.957 8.85229H30.6035V11.032ZM39.4688 15.989V8.85229H36.9199V7.39917H43.7461V8.85229H41.2031V15.989H39.4688ZM48.7207 15.989H47.0742V9.78394C46.4727 10.3464 45.7637 10.7625 44.9473 11.032V9.53784C45.377 9.39722 45.8438 9.13159 46.3477 8.74097C46.8516 8.34644 47.1973 7.88745 47.3848 7.36401H48.7207V15.989Z" fill="white"/>
<defs>
<linearGradient id="paint0_linear_40_2572" x1="30" y1="1.98901" x2="30" y2="21.989" gradientUnits="userSpaceOnUse">
<stop stop-color="#FF8100"/>
<stop offset="1" stop-color="#4B9D01"/>
</linearGradient>
</defs>
</svg>
