<svg width="83" height="24" viewBox="0 0 83 24" fill="none" xmlns="http://www.w3.org/2000/svg">
<rect x="1" y="1.98901" width="81" height="20" rx="10" fill="url(#paint0_linear_35_1424)"/>
<rect x="1" y="1.98901" width="81" height="20" rx="10" stroke="#969B23" stroke-width="3" stroke-linejoin="round"/>
<path d="M16.7734 15.989H14.8867L14.1367 14.0378H10.7031L9.99414 15.989H8.1543L11.5 7.39917H13.334L16.7734 15.989ZM13.5801 12.5906L12.3965 9.40308L11.2363 12.5906H13.5801ZM17.6758 15.989V7.39917H20.2715L21.8301 13.2585L23.3711 7.39917H25.9727V15.989H24.3613V9.22729L22.6562 15.989H20.9863L19.2871 9.22729V15.989H17.6758ZM29.9512 15.989V12.3738L26.8047 7.39917H28.8379L30.8594 10.7976L32.8398 7.39917H34.8379L31.6797 12.3855V15.989H29.9512ZM35.7461 15.989V7.46948H37.4805V14.5417H41.793V15.989H35.7461ZM50.7812 15.989H48.8945L48.1445 14.0378H44.7109L44.002 15.989H42.1621L45.5078 7.39917H47.3418L50.7812 15.989ZM47.5879 12.5906L46.4043 9.40308L45.2441 12.5906H47.5879ZM51.2676 13.1941L52.9551 13.03C53.0566 13.5964 53.2617 14.0125 53.5703 14.2781C53.8828 14.5437 54.3027 14.6765 54.8301 14.6765C55.3887 14.6765 55.8086 14.5593 56.0898 14.325C56.375 14.0867 56.5176 13.8093 56.5176 13.4929C56.5176 13.2898 56.457 13.1179 56.3359 12.9773C56.2188 12.8328 56.0117 12.7078 55.7148 12.6023C55.5117 12.532 55.0488 12.407 54.3262 12.2273C53.3965 11.9968 52.7441 11.7136 52.3691 11.3777C51.8418 10.905 51.5781 10.3289 51.5781 9.64917C51.5781 9.21167 51.7012 8.80347 51.9473 8.42456C52.1973 8.04175 52.5547 7.75073 53.0195 7.55151C53.4883 7.35229 54.0527 7.25269 54.7129 7.25269C55.791 7.25269 56.6016 7.48901 57.1445 7.96167C57.6914 8.43433 57.9785 9.06519 58.0059 9.85425L56.2715 9.93042C56.1973 9.48901 56.0371 9.17261 55.791 8.9812C55.5488 8.78589 55.1836 8.68823 54.6953 8.68823C54.1914 8.68823 53.7969 8.79175 53.5117 8.99878C53.3281 9.13159 53.2363 9.30933 53.2363 9.53198C53.2363 9.73511 53.3223 9.90894 53.4941 10.0535C53.7129 10.2371 54.2441 10.4285 55.0879 10.6277C55.9316 10.8269 56.5547 11.0339 56.957 11.2488C57.3633 11.4597 57.6797 11.7507 57.9062 12.1218C58.1367 12.489 58.252 12.9441 58.252 13.4871C58.252 13.9792 58.1152 14.4402 57.8418 14.8699C57.5684 15.2996 57.1816 15.6199 56.6816 15.8308C56.1816 16.0378 55.5586 16.1414 54.8125 16.1414C53.7266 16.1414 52.8926 15.8914 52.3105 15.3914C51.7285 14.8875 51.3809 14.155 51.2676 13.1941ZM59.7109 15.989V7.39917H66.0801V8.85229H61.4453V10.7566H65.7578V12.2039H61.4453V14.5417H66.2441V15.989H59.7109ZM67.2754 13.1941L68.9629 13.03C69.0645 13.5964 69.2695 14.0125 69.5781 14.2781C69.8906 14.5437 70.3105 14.6765 70.8379 14.6765C71.3965 14.6765 71.8164 14.5593 72.0977 14.325C72.3828 14.0867 72.5254 13.8093 72.5254 13.4929C72.5254 13.2898 72.4648 13.1179 72.3438 12.9773C72.2266 12.8328 72.0195 12.7078 71.7227 12.6023C71.5195 12.532 71.0566 12.407 70.334 12.2273C69.4043 11.9968 68.752 11.7136 68.377 11.3777C67.8496 10.905 67.5859 10.3289 67.5859 9.64917C67.5859 9.21167 67.709 8.80347 67.9551 8.42456C68.2051 8.04175 68.5625 7.75073 69.0273 7.55151C69.4961 7.35229 70.0605 7.25269 70.7207 7.25269C71.7988 7.25269 72.6094 7.48901 73.1523 7.96167C73.6992 8.43433 73.9863 9.06519 74.0137 9.85425L72.2793 9.93042C72.2051 9.48901 72.0449 9.17261 71.7988 8.9812C71.5566 8.78589 71.1914 8.68823 70.7031 8.68823C70.1992 8.68823 69.8047 8.79175 69.5195 8.99878C69.3359 9.13159 69.2441 9.30933 69.2441 9.53198C69.2441 9.73511 69.3301 9.90894 69.502 10.0535C69.7207 10.2371 70.252 10.4285 71.0957 10.6277C71.9395 10.8269 72.5625 11.0339 72.9648 11.2488C73.3711 11.4597 73.6875 11.7507 73.9141 12.1218C74.1445 12.489 74.2598 12.9441 74.2598 13.4871C74.2598 13.9792 74.123 14.4402 73.8496 14.8699C73.5762 15.2996 73.1895 15.6199 72.6895 15.8308C72.1895 16.0378 71.5664 16.1414 70.8203 16.1414C69.7344 16.1414 68.9004 15.8914 68.3184 15.3914C67.7363 14.8875 67.3887 14.155 67.2754 13.1941Z" fill="white"/>
<defs>
<linearGradient id="paint0_linear_35_1424" x1="41.5" y1="1.98901" x2="41.5" y2="21.989" gradientUnits="userSpaceOnUse">
<stop stop-color="#969B23"/>
<stop offset="1" stop-color="#003D59"/>
</linearGradient>
</defs>
</svg>
