<svg width="58" height="24" viewBox="0 0 58 24" fill="none" xmlns="http://www.w3.org/2000/svg">
<rect x="2" y="1.98901" width="55" height="20" rx="10" fill="url(#paint0_linear_84_2031)"/>
<rect x="2" y="1.98901" width="55" height="20" rx="10" stroke="#FF5500" stroke-width="3" stroke-linejoin="round"/>
<path d="M12.2969 15.989V8.85229H9.74805V7.39917H16.5742V8.85229H14.0312V15.989H12.2969ZM17.7051 15.989V7.39917H21.3555C22.2734 7.39917 22.9395 7.47729 23.3535 7.63354C23.7715 7.78589 24.1055 8.05933 24.3555 8.45386C24.6055 8.84839 24.7305 9.29956 24.7305 9.80737C24.7305 10.4519 24.541 10.9851 24.1621 11.407C23.7832 11.825 23.2168 12.0886 22.4629 12.198C22.8379 12.4167 23.1465 12.657 23.3887 12.9187C23.6348 13.1804 23.9648 13.6453 24.3789 14.3132L25.4277 15.989H23.3535L22.0996 14.1199C21.6543 13.4519 21.3496 13.032 21.1855 12.8601C21.0215 12.6843 20.8477 12.5652 20.6641 12.5027C20.4805 12.4363 20.1895 12.4031 19.791 12.4031H19.4395V15.989H17.7051ZM19.4395 11.032H20.7227C21.5547 11.032 22.0742 10.9968 22.2812 10.9265C22.4883 10.8562 22.6504 10.7351 22.7676 10.5632C22.8848 10.3914 22.9434 10.1765 22.9434 9.9187C22.9434 9.62964 22.8652 9.39722 22.709 9.22144C22.5566 9.04175 22.3398 8.92847 22.0586 8.88159C21.918 8.86206 21.4961 8.85229 20.793 8.85229H19.4395V11.032ZM26.3477 15.989V7.39917H28.9434L30.502 13.2585L32.043 7.39917H34.6445V15.989H33.0332V9.22729L31.3281 15.989H29.6582L27.959 9.22729V15.989H26.3477ZM38.3008 15.989V8.85229H35.752V7.39917H42.5781V8.85229H40.0352V15.989H38.3008ZM48.918 9.50269L47.3242 9.67847C47.2852 9.35034 47.1836 9.10815 47.0195 8.9519C46.8555 8.79565 46.6426 8.71753 46.3809 8.71753C46.0332 8.71753 45.7383 8.87378 45.4961 9.18628C45.2578 9.49878 45.1074 10.1492 45.0449 11.1375C45.4551 10.6531 45.9648 10.4109 46.5742 10.4109C47.2617 10.4109 47.8496 10.6726 48.3379 11.196C48.8301 11.7195 49.0762 12.3953 49.0762 13.2234C49.0762 14.1023 48.8184 14.8074 48.3027 15.3386C47.7871 15.8699 47.125 16.1355 46.3164 16.1355C45.4492 16.1355 44.7363 15.7996 44.1777 15.1277C43.6191 14.4519 43.3398 13.3464 43.3398 11.8113C43.3398 10.2371 43.6309 9.10229 44.2129 8.40698C44.7949 7.71167 45.5508 7.36401 46.4805 7.36401C47.1328 7.36401 47.6719 7.54761 48.0977 7.91479C48.5273 8.27808 48.8008 8.80737 48.918 9.50269ZM45.1855 13.0945C45.1855 13.6296 45.3086 14.0437 45.5547 14.3367C45.8008 14.6257 46.082 14.7703 46.3984 14.7703C46.7031 14.7703 46.957 14.6511 47.1602 14.4128C47.3633 14.1746 47.4648 13.7839 47.4648 13.241C47.4648 12.6824 47.3555 12.2742 47.1367 12.0164C46.918 11.7546 46.6445 11.6238 46.3164 11.6238C46 11.6238 45.7324 11.7488 45.5137 11.9988C45.2949 12.2449 45.1855 12.6101 45.1855 13.0945Z" fill="white"/>
<defs>
<linearGradient id="paint0_linear_84_2031" x1="29.5" y1="1.98901" x2="29.5" y2="21.989" gradientUnits="userSpaceOnUse">
<stop stop-color="#FF5500"/>
<stop offset="1" stop-color="#2AA0D0"/>
</linearGradient>
</defs>
</svg>
