<svg width="117" height="24" viewBox="0 0 117 24" fill="none" xmlns="http://www.w3.org/2000/svg">
<rect x="1" y="1.98901" width="115" height="20" rx="10" fill="url(#paint0_linear_36_1579)"/>
<rect x="1" y="1.98901" width="115" height="20" rx="10" stroke="url(#paint1_linear_36_1579)" stroke-width="3" stroke-linejoin="round"/>
<path d="M9.33984 7.39917H12.7734C13.4531 7.39917 13.959 7.42847 14.291 7.48706C14.627 7.54175 14.9258 7.65894 15.1875 7.83862C15.4531 8.01831 15.6738 8.25854 15.8496 8.55933C16.0254 8.8562 16.1133 9.19019 16.1133 9.56128C16.1133 9.96362 16.0039 10.3328 15.7852 10.6687C15.5703 11.0046 15.2773 11.2566 14.9062 11.4246C15.4297 11.5769 15.832 11.8367 16.1133 12.2039C16.3945 12.571 16.5352 13.0027 16.5352 13.4988C16.5352 13.8894 16.4434 14.2703 16.2598 14.6414C16.0801 15.0085 15.832 15.3035 15.5156 15.5261C15.2031 15.7449 14.8164 15.8796 14.3555 15.9304C14.0664 15.9617 13.3691 15.9812 12.2637 15.989H9.33984V7.39917ZM11.0742 8.82886V10.8152H12.2109C12.8867 10.8152 13.3066 10.8054 13.4707 10.7859C13.7676 10.7507 14 10.6492 14.168 10.4812C14.3398 10.3093 14.4258 10.0847 14.4258 9.80737C14.4258 9.54175 14.3516 9.3269 14.2031 9.16284C14.0586 8.99487 13.8418 8.89331 13.5527 8.85815C13.3809 8.83862 12.8867 8.82886 12.0703 8.82886H11.0742ZM11.0742 12.2449V14.5417H12.6797C13.3047 14.5417 13.7012 14.5242 13.8691 14.489C14.127 14.4421 14.3359 14.3289 14.4961 14.1492C14.6602 13.9656 14.7422 13.7214 14.7422 13.4167C14.7422 13.1589 14.6797 12.9402 14.5547 12.7605C14.4297 12.5808 14.248 12.45 14.0098 12.3679C13.7754 12.2859 13.2637 12.2449 12.4746 12.2449H11.0742ZM17.6543 11.7468C17.6543 10.8718 17.7852 10.1375 18.0469 9.5437C18.2422 9.1062 18.5078 8.71362 18.8438 8.36597C19.1836 8.01831 19.5547 7.7605 19.957 7.59253C20.4922 7.36597 21.1094 7.25269 21.8086 7.25269C23.0742 7.25269 24.0859 7.64526 24.8438 8.43042C25.6055 9.21558 25.9863 10.3074 25.9863 11.7058C25.9863 13.0925 25.6094 14.1785 24.8555 14.9636C24.1016 15.7449 23.0938 16.1355 21.832 16.1355C20.5547 16.1355 19.5391 15.7468 18.7852 14.9695C18.0312 14.1882 17.6543 13.114 17.6543 11.7468ZM19.4414 11.6882C19.4414 12.6609 19.666 13.3992 20.1152 13.9031C20.5645 14.4031 21.1348 14.6531 21.8262 14.6531C22.5176 14.6531 23.084 14.405 23.5254 13.9089C23.9707 13.4089 24.1934 12.6609 24.1934 11.6648C24.1934 10.6804 23.9766 9.94604 23.543 9.46167C23.1133 8.97729 22.541 8.73511 21.8262 8.73511C21.1113 8.73511 20.5352 8.9812 20.0977 9.47339C19.6602 9.96167 19.4414 10.7 19.4414 11.6882ZM26.4727 15.989L29.4082 11.5066L26.748 7.39917H28.7754L30.498 10.1589L32.1855 7.39917H34.1953L31.5234 11.571L34.459 15.989H32.3672L30.4629 13.0183L28.5527 15.989H26.4727ZM44.1855 12.8308L45.8672 13.364C45.6094 14.3015 45.1797 14.9988 44.5781 15.4558C43.9805 15.9089 43.2207 16.1355 42.2988 16.1355C41.1582 16.1355 40.2207 15.7468 39.4863 14.9695C38.752 14.1882 38.3848 13.1218 38.3848 11.7703C38.3848 10.3406 38.7539 9.2312 39.4922 8.44214C40.2305 7.64917 41.2012 7.25269 42.4043 7.25269C43.4551 7.25269 44.3086 7.56323 44.9648 8.18433C45.3555 8.55151 45.6484 9.07886 45.8438 9.76636L44.127 10.1765C44.0254 9.7312 43.8125 9.37964 43.4883 9.12183C43.168 8.86401 42.7773 8.73511 42.3164 8.73511C41.6797 8.73511 41.1621 8.96362 40.7637 9.42065C40.3691 9.87769 40.1719 10.6179 40.1719 11.6414C40.1719 12.7273 40.3672 13.5007 40.7578 13.9617C41.1484 14.4226 41.6562 14.6531 42.2812 14.6531C42.7422 14.6531 43.1387 14.5066 43.4707 14.2136C43.8027 13.9207 44.041 13.4597 44.1855 12.8308ZM46.4707 16.1355L48.5977 7.25269H49.834L47.6836 16.1355H46.4707ZM50.6953 7.39917H53.8652C54.5801 7.39917 55.125 7.45386 55.5 7.56323C56.0039 7.71167 56.4355 7.97534 56.7949 8.35425C57.1543 8.73315 57.4277 9.198 57.6152 9.74878C57.8027 10.2957 57.8965 10.9714 57.8965 11.7761C57.8965 12.4832 57.8086 13.0925 57.6328 13.6042C57.418 14.2292 57.1113 14.7351 56.7129 15.1218C56.4121 15.4148 56.0059 15.6433 55.4941 15.8074C55.1113 15.9285 54.5996 15.989 53.959 15.989H50.6953V7.39917ZM52.4297 8.85229V14.5417H53.7246C54.209 14.5417 54.5586 14.5144 54.7734 14.4597C55.0547 14.3894 55.2871 14.2703 55.4707 14.1023C55.6582 13.9343 55.8105 13.6589 55.9277 13.2761C56.0449 12.8894 56.1035 12.364 56.1035 11.7C56.1035 11.0359 56.0449 10.5261 55.9277 10.1707C55.8105 9.81519 55.6465 9.53784 55.4355 9.33862C55.2246 9.1394 54.957 9.00464 54.6328 8.93433C54.3906 8.87964 53.916 8.85229 53.209 8.85229H52.4297ZM62.1211 14.2136L63.7734 13.9617C63.8438 14.282 63.9863 14.5261 64.2012 14.6941C64.416 14.8582 64.7168 14.9402 65.1035 14.9402C65.5293 14.9402 65.8496 14.8621 66.0645 14.7058C66.209 14.5964 66.2812 14.45 66.2812 14.2664C66.2812 14.1414 66.2422 14.0378 66.1641 13.9558C66.082 13.8777 65.8984 13.8054 65.6133 13.739C64.2852 13.446 63.4434 13.1785 63.0879 12.9363C62.5957 12.6003 62.3496 12.1335 62.3496 11.5359C62.3496 10.9968 62.5625 10.5437 62.9883 10.1765C63.4141 9.80933 64.0742 9.62573 64.9688 9.62573C65.8203 9.62573 66.4531 9.7644 66.8672 10.0417C67.2812 10.3191 67.5664 10.7292 67.7227 11.2722L66.1699 11.5593C66.1035 11.3171 65.9766 11.1316 65.7891 11.0027C65.6055 10.8738 65.3418 10.8093 64.998 10.8093C64.5645 10.8093 64.2539 10.8699 64.0664 10.991C63.9414 11.0769 63.8789 11.1882 63.8789 11.325C63.8789 11.4421 63.9336 11.5417 64.043 11.6238C64.1914 11.7332 64.7031 11.8875 65.5781 12.0867C66.457 12.2859 67.0703 12.53 67.418 12.8191C67.7617 13.1121 67.9336 13.5203 67.9336 14.0437C67.9336 14.614 67.6953 15.1042 67.2188 15.5144C66.7422 15.9246 66.0371 16.1296 65.1035 16.1296C64.2559 16.1296 63.584 15.9578 63.0879 15.614C62.5957 15.2703 62.2734 14.8035 62.1211 14.2136ZM75.041 15.989H73.3945V12.8132C73.3945 12.1414 73.3594 11.7078 73.2891 11.5125C73.2188 11.3132 73.1035 11.1589 72.9434 11.0496C72.7871 10.9402 72.5977 10.8855 72.375 10.8855C72.0898 10.8855 71.834 10.9636 71.6074 11.1199C71.3809 11.2761 71.2246 11.4832 71.1387 11.741C71.0566 11.9988 71.0156 12.4753 71.0156 13.1707V15.989H69.3691V9.76636H70.8984V10.6804C71.4414 9.97729 72.125 9.62573 72.9492 9.62573C73.3125 9.62573 73.6445 9.69214 73.9453 9.82495C74.2461 9.95386 74.4727 10.1199 74.625 10.323C74.7812 10.5261 74.8887 10.7566 74.9473 11.0144C75.0098 11.2722 75.041 11.6414 75.041 12.1218V15.989ZM76.3359 12.7898C76.3359 12.2429 76.4707 11.7136 76.7402 11.2019C77.0098 10.6902 77.3906 10.2996 77.8828 10.03C78.3789 9.7605 78.9316 9.62573 79.541 9.62573C80.4824 9.62573 81.2539 9.93237 81.8555 10.5457C82.457 11.155 82.7578 11.9265 82.7578 12.8601C82.7578 13.8015 82.4531 14.5828 81.8438 15.2039C81.2383 15.821 80.4746 16.1296 79.5527 16.1296C78.9824 16.1296 78.4375 16.0007 77.918 15.7429C77.4023 15.4851 77.0098 15.1082 76.7402 14.6121C76.4707 14.1121 76.3359 13.5046 76.3359 12.7898ZM78.0234 12.8777C78.0234 13.4949 78.1699 13.9675 78.4629 14.2957C78.7559 14.6238 79.1172 14.7878 79.5469 14.7878C79.9766 14.7878 80.3359 14.6238 80.625 14.2957C80.918 13.9675 81.0645 13.491 81.0645 12.866C81.0645 12.2566 80.918 11.7878 80.625 11.4597C80.3359 11.1316 79.9766 10.9675 79.5469 10.9675C79.1172 10.9675 78.7559 11.1316 78.4629 11.4597C78.1699 11.7878 78.0234 12.2605 78.0234 12.8777ZM84.0703 15.989V7.39917H87.7207C88.6387 7.39917 89.3047 7.47729 89.7188 7.63354C90.1367 7.78589 90.4707 8.05933 90.7207 8.45386C90.9707 8.84839 91.0957 9.29956 91.0957 9.80737C91.0957 10.4519 90.9062 10.9851 90.5273 11.407C90.1484 11.825 89.582 12.0886 88.8281 12.198C89.2031 12.4167 89.5117 12.657 89.7539 12.9187C90 13.1804 90.3301 13.6453 90.7441 14.3132L91.793 15.989H89.7188L88.4648 14.1199C88.0195 13.4519 87.7148 13.032 87.5508 12.8601C87.3867 12.6843 87.2129 12.5652 87.0293 12.5027C86.8457 12.4363 86.5547 12.4031 86.1562 12.4031H85.8047V15.989H84.0703ZM85.8047 11.032H87.0879C87.9199 11.032 88.4395 10.9968 88.6465 10.9265C88.8535 10.8562 89.0156 10.7351 89.1328 10.5632C89.25 10.3914 89.3086 10.1765 89.3086 9.9187C89.3086 9.62964 89.2305 9.39722 89.0742 9.22144C88.9219 9.04175 88.7051 8.92847 88.4238 8.88159C88.2832 8.86206 87.8613 8.85229 87.1582 8.85229H85.8047V11.032ZM92.7539 15.989V7.39917H94.4414L97.957 13.1355V7.39917H99.5684V15.989H97.8281L94.3652 10.3875V15.989H92.7539ZM101.408 15.989V7.39917H104.191C105.246 7.39917 105.934 7.44214 106.254 7.52808C106.746 7.65698 107.158 7.93823 107.49 8.37183C107.822 8.80151 107.988 9.35815 107.988 10.0417C107.988 10.5691 107.893 11.0125 107.701 11.3718C107.51 11.7312 107.266 12.0144 106.969 12.2214C106.676 12.4246 106.377 12.5593 106.072 12.6257C105.658 12.7078 105.059 12.7488 104.273 12.7488H103.143V15.989H101.408ZM103.143 8.85229V11.2898H104.092C104.775 11.2898 105.232 11.2449 105.463 11.155C105.693 11.0652 105.873 10.9246 106.002 10.7332C106.135 10.5417 106.201 10.3191 106.201 10.0652C106.201 9.75269 106.109 9.49487 105.926 9.29175C105.742 9.08862 105.51 8.96167 105.229 8.91089C105.021 8.87183 104.605 8.85229 103.98 8.85229H103.143Z" fill="white"/>
<defs>
<linearGradient id="paint0_linear_36_1579" x1="58.5" y1="1.98901" x2="58.5" y2="21.989" gradientUnits="userSpaceOnUse">
<stop stop-color="#9461EE"/>
<stop offset="1" stop-color="#3B994A"/>
</linearGradient>
<linearGradient id="paint1_linear_36_1579" x1="58.5" y1="1.98901" x2="58.5" y2="21.989" gradientUnits="userSpaceOnUse">
<stop stop-color="#CA4145"/>
<stop offset="1" stop-color="#0061EE"/>
</linearGradient>
</defs>
</svg>
