<svg width="46" height="24" viewBox="0 0 46 24" fill="none" xmlns="http://www.w3.org/2000/svg">
<rect x="2" y="1.98901" width="43" height="20" rx="10" fill="url(#paint0_linear_64_1815)"/>
<rect x="2" y="1.98901" width="43" height="20" rx="10" stroke="#359671" stroke-width="3" stroke-linejoin="round"/>
<path d="M10.3457 15.989V7.39917H12.9414L14.5 13.2585L16.041 7.39917H18.6426V15.989H17.0312V9.22729L15.3262 15.989H13.6562L11.957 9.22729V15.989H10.3457ZM20.0137 11.7468C20.0137 10.8718 20.1445 10.1375 20.4062 9.5437C20.6016 9.1062 20.8672 8.71362 21.2031 8.36597C21.543 8.01831 21.9141 7.7605 22.3164 7.59253C22.8516 7.36597 23.4688 7.25269 24.168 7.25269C25.4336 7.25269 26.4453 7.64526 27.2031 8.43042C27.9648 9.21558 28.3457 10.3074 28.3457 11.7058C28.3457 13.0925 27.9688 14.1785 27.2148 14.9636C26.4609 15.7449 25.4531 16.1355 24.1914 16.1355C22.9141 16.1355 21.8984 15.7468 21.1445 14.9695C20.3906 14.1882 20.0137 13.114 20.0137 11.7468ZM21.8008 11.6882C21.8008 12.6609 22.0254 13.3992 22.4746 13.9031C22.9238 14.4031 23.4941 14.6531 24.1855 14.6531C24.877 14.6531 25.4434 14.405 25.8848 13.9089C26.3301 13.4089 26.5527 12.6609 26.5527 11.6648C26.5527 10.6804 26.3359 9.94604 25.9023 9.46167C25.4727 8.97729 24.9004 8.73511 24.1855 8.73511C23.4707 8.73511 22.8945 8.9812 22.457 9.47339C22.0195 9.96167 21.8008 10.7 21.8008 11.6882ZM29.7109 7.39917H33.1445C33.8242 7.39917 34.3301 7.42847 34.6621 7.48706C34.998 7.54175 35.2969 7.65894 35.5586 7.83862C35.8242 8.01831 36.0449 8.25854 36.2207 8.55933C36.3965 8.8562 36.4844 9.19019 36.4844 9.56128C36.4844 9.96362 36.375 10.3328 36.1562 10.6687C35.9414 11.0046 35.6484 11.2566 35.2773 11.4246C35.8008 11.5769 36.2031 11.8367 36.4844 12.2039C36.7656 12.571 36.9062 13.0027 36.9062 13.4988C36.9062 13.8894 36.8145 14.2703 36.6309 14.6414C36.4512 15.0085 36.2031 15.3035 35.8867 15.5261C35.5742 15.7449 35.1875 15.8796 34.7266 15.9304C34.4375 15.9617 33.7402 15.9812 32.6348 15.989H29.7109V7.39917ZM31.4453 8.82886V10.8152H32.582C33.2578 10.8152 33.6777 10.8054 33.8418 10.7859C34.1387 10.7507 34.3711 10.6492 34.5391 10.4812C34.7109 10.3093 34.7969 10.0847 34.7969 9.80737C34.7969 9.54175 34.7227 9.3269 34.5742 9.16284C34.4297 8.99487 34.2129 8.89331 33.9238 8.85815C33.752 8.83862 33.2578 8.82886 32.4414 8.82886H31.4453ZM31.4453 12.2449V14.5417H33.0508C33.6758 14.5417 34.0723 14.5242 34.2402 14.489C34.498 14.4421 34.707 14.3289 34.8672 14.1492C35.0312 13.9656 35.1133 13.7214 35.1133 13.4167C35.1133 13.1589 35.0508 12.9402 34.9258 12.7605C34.8008 12.5808 34.6191 12.45 34.3809 12.3679C34.1465 12.2859 33.6348 12.2449 32.8457 12.2449H31.4453Z" fill="white"/>
<defs>
<linearGradient id="paint0_linear_64_1815" x1="23.5" y1="1.98901" x2="23.5" y2="21.989" gradientUnits="userSpaceOnUse">
<stop stop-color="#359671"/>
<stop offset="1" stop-color="#FFCDD5"/>
</linearGradient>
</defs>
</svg>
