<svg width="86" height="36" viewBox="0 0 86 36" fill="none" xmlns="http://www.w3.org/2000/svg">
<rect x="2" y="1.98901" width="83" height="32" rx="10" fill="url(#paint0_linear_67_1877)"/>
<rect x="2" y="1.98901" width="83" height="32" rx="10" stroke="#F46500" stroke-width="3" stroke-linejoin="round"/>
<path d="M10.0137 14.989V6.39917H13.6641C14.582 6.39917 15.248 6.47729 15.6621 6.63354C16.0801 6.78589 16.4141 7.05933 16.6641 7.45386C16.9141 7.84839 17.0391 8.29956 17.0391 8.80737C17.0391 9.4519 16.8496 9.98511 16.4707 10.407C16.0918 10.825 15.5254 11.0886 14.7715 11.198C15.1465 11.4167 15.4551 11.657 15.6973 11.9187C15.9434 12.1804 16.2734 12.6453 16.6875 13.3132L17.7363 14.989H15.6621L14.4082 13.1199C13.9629 12.4519 13.6582 12.032 13.4941 11.8601C13.3301 11.6843 13.1562 11.5652 12.9727 11.5027C12.7891 11.4363 12.498 11.4031 12.0996 11.4031H11.748V14.989H10.0137ZM11.748 10.032H13.0312C13.8633 10.032 14.3828 9.99683 14.5898 9.92651C14.7969 9.8562 14.959 9.73511 15.0762 9.56323C15.1934 9.39136 15.252 9.17651 15.252 8.9187C15.252 8.62964 15.1738 8.39722 15.0176 8.22144C14.8652 8.04175 14.6484 7.92847 14.3672 7.88159C14.2266 7.86206 13.8047 7.85229 13.1016 7.85229H11.748V10.032ZM22.2715 13.0085L23.9121 13.2839C23.7012 13.8855 23.3672 14.3445 22.9102 14.6609C22.457 14.9734 21.8887 15.1296 21.2051 15.1296C20.123 15.1296 19.3223 14.7761 18.8027 14.0691C18.3926 13.5027 18.1875 12.7878 18.1875 11.9246C18.1875 10.8933 18.457 10.0867 18.9961 9.50464C19.5352 8.9187 20.2168 8.62573 21.041 8.62573C21.9668 8.62573 22.6973 8.93237 23.2324 9.54565C23.7676 10.155 24.0234 11.0906 24 12.3523H19.875C19.8867 12.8406 20.0195 13.2214 20.2734 13.4949C20.5273 13.7644 20.8438 13.8992 21.2227 13.8992C21.4805 13.8992 21.6973 13.8289 21.873 13.6882C22.0488 13.5476 22.1816 13.321 22.2715 13.0085ZM22.3652 11.3445C22.3535 10.8679 22.2305 10.5066 21.9961 10.2605C21.7617 10.0105 21.4766 9.8855 21.1406 9.8855C20.7812 9.8855 20.4844 10.0164 20.25 10.2781C20.0156 10.5398 19.9004 10.8953 19.9043 11.3445H22.3652ZM25.2246 8.76636H26.7422V9.61597C27.2852 8.95581 27.9316 8.62573 28.6816 8.62573C29.0801 8.62573 29.4258 8.70776 29.7188 8.87183C30.0117 9.03589 30.252 9.28394 30.4395 9.61597C30.7129 9.28394 31.0078 9.03589 31.3242 8.87183C31.6406 8.70776 31.9785 8.62573 32.3379 8.62573C32.7949 8.62573 33.1816 8.71948 33.498 8.90698C33.8145 9.09058 34.0508 9.36206 34.207 9.72144C34.3203 9.98706 34.377 10.4167 34.377 11.0105V14.989H32.7305V11.4324C32.7305 10.8152 32.6738 10.4167 32.5605 10.2371C32.4082 10.0027 32.1738 9.8855 31.8574 9.8855C31.627 9.8855 31.4102 9.95581 31.207 10.0964C31.0039 10.2371 30.8574 10.4441 30.7676 10.7175C30.6777 10.9871 30.6328 11.4148 30.6328 12.0007V14.989H28.9863V11.5789C28.9863 10.9734 28.957 10.5828 28.8984 10.407C28.8398 10.2312 28.748 10.1003 28.623 10.0144C28.502 9.92847 28.3359 9.8855 28.125 9.8855C27.8711 9.8855 27.6426 9.95386 27.4395 10.0906C27.2363 10.2273 27.0898 10.4246 27 10.6824C26.9141 10.9402 26.8711 11.3679 26.8711 11.9656V14.989H25.2246V8.76636ZM35.6426 11.7898C35.6426 11.2429 35.7773 10.7136 36.0469 10.2019C36.3164 9.69019 36.6973 9.29956 37.1895 9.03003C37.6855 8.7605 38.2383 8.62573 38.8477 8.62573C39.7891 8.62573 40.5605 8.93237 41.1621 9.54565C41.7637 10.155 42.0645 10.9265 42.0645 11.8601C42.0645 12.8015 41.7598 13.5828 41.1504 14.2039C40.5449 14.821 39.7812 15.1296 38.8594 15.1296C38.2891 15.1296 37.7441 15.0007 37.2246 14.7429C36.709 14.4851 36.3164 14.1082 36.0469 13.6121C35.7773 13.1121 35.6426 12.5046 35.6426 11.7898ZM37.3301 11.8777C37.3301 12.4949 37.4766 12.9675 37.7695 13.2957C38.0625 13.6238 38.4238 13.7878 38.8535 13.7878C39.2832 13.7878 39.6426 13.6238 39.9316 13.2957C40.2246 12.9675 40.3711 12.491 40.3711 11.866C40.3711 11.2566 40.2246 10.7878 39.9316 10.4597C39.6426 10.1316 39.2832 9.96753 38.8535 9.96753C38.4238 9.96753 38.0625 10.1316 37.7695 10.4597C37.4766 10.7878 37.3301 11.2605 37.3301 11.8777ZM49.0664 14.989H47.5371V14.075C47.2832 14.4304 46.9824 14.696 46.6348 14.8718C46.291 15.0437 45.9434 15.1296 45.5918 15.1296C44.877 15.1296 44.2637 14.8425 43.752 14.2683C43.2441 13.6902 42.9902 12.8855 42.9902 11.8542C42.9902 10.7996 43.2383 9.99878 43.7344 9.4519C44.2305 8.90112 44.8574 8.62573 45.6152 8.62573C46.3105 8.62573 46.9121 8.91479 47.4199 9.49292V6.39917H49.0664V14.989ZM44.6719 11.7429C44.6719 12.407 44.7637 12.8875 44.9473 13.1843C45.2129 13.614 45.584 13.8289 46.0605 13.8289C46.4395 13.8289 46.7617 13.6687 47.0273 13.3484C47.293 13.0242 47.4258 12.5417 47.4258 11.9011C47.4258 11.1863 47.2969 10.6726 47.0391 10.3601C46.7812 10.0437 46.4512 9.8855 46.0488 9.8855C45.6582 9.8855 45.3301 10.0417 45.0645 10.3542C44.8027 10.6628 44.6719 11.1257 44.6719 11.7429ZM54.2988 13.0085L55.9395 13.2839C55.7285 13.8855 55.3945 14.3445 54.9375 14.6609C54.4844 14.9734 53.916 15.1296 53.2324 15.1296C52.1504 15.1296 51.3496 14.7761 50.8301 14.0691C50.4199 13.5027 50.2148 12.7878 50.2148 11.9246C50.2148 10.8933 50.4844 10.0867 51.0234 9.50464C51.5625 8.9187 52.2441 8.62573 53.0684 8.62573C53.9941 8.62573 54.7246 8.93237 55.2598 9.54565C55.7949 10.155 56.0508 11.0906 56.0273 12.3523H51.9023C51.9141 12.8406 52.0469 13.2214 52.3008 13.4949C52.5547 13.7644 52.8711 13.8992 53.25 13.8992C53.5078 13.8992 53.7246 13.8289 53.9004 13.6882C54.0762 13.5476 54.209 13.321 54.2988 13.0085ZM54.3926 11.3445C54.3809 10.8679 54.2578 10.5066 54.0234 10.2605C53.7891 10.0105 53.5039 9.8855 53.168 9.8855C52.8086 9.8855 52.5117 10.0164 52.2773 10.2781C52.043 10.5398 51.9277 10.8953 51.9316 11.3445H54.3926ZM57.375 14.989V6.39917H59.0215V14.989H57.375ZM60.7148 7.92261V6.39917H62.3613V7.92261H60.7148ZM60.7148 14.989V8.76636H62.3613V14.989H60.7148ZM69.7148 14.989H68.0684V11.8132C68.0684 11.1414 68.0332 10.7078 67.9629 10.5125C67.8926 10.3132 67.7773 10.1589 67.6172 10.0496C67.4609 9.94019 67.2715 9.8855 67.0488 9.8855C66.7637 9.8855 66.5078 9.96362 66.2812 10.1199C66.0547 10.2761 65.8984 10.4832 65.8125 10.741C65.7305 10.9988 65.6895 11.4753 65.6895 12.1707V14.989H64.043V8.76636H65.5723V9.68042C66.1152 8.97729 66.7988 8.62573 67.623 8.62573C67.9863 8.62573 68.3184 8.69214 68.6191 8.82495C68.9199 8.95386 69.1465 9.11987 69.2988 9.323C69.4551 9.52612 69.5625 9.75659 69.6211 10.0144C69.6836 10.2722 69.7148 10.6414 69.7148 11.1218V14.989ZM71.2383 15.3992L73.1191 15.6277C73.1504 15.8464 73.2227 15.9968 73.3359 16.0789C73.4922 16.196 73.7383 16.2546 74.0742 16.2546C74.5039 16.2546 74.8262 16.1902 75.041 16.0613C75.1855 15.9753 75.2949 15.8367 75.3691 15.6453C75.4199 15.5085 75.4453 15.2566 75.4453 14.8894V13.9812C74.9531 14.6531 74.332 14.989 73.582 14.989C72.7461 14.989 72.084 14.6355 71.5957 13.9285C71.2129 13.3699 71.0215 12.6746 71.0215 11.8425C71.0215 10.7996 71.2715 10.0027 71.7715 9.4519C72.2754 8.90112 72.9004 8.62573 73.6465 8.62573C74.416 8.62573 75.0508 8.96362 75.5508 9.6394V8.76636H77.0918V14.3503C77.0918 15.0847 77.0312 15.6335 76.9102 15.9968C76.7891 16.3601 76.6191 16.6453 76.4004 16.8523C76.1816 17.0593 75.8887 17.2214 75.5215 17.3386C75.1582 17.4558 74.6973 17.5144 74.1387 17.5144C73.084 17.5144 72.3359 17.3328 71.8945 16.9695C71.4531 16.6101 71.2324 16.1531 71.2324 15.5984C71.2324 15.5437 71.2344 15.4773 71.2383 15.3992ZM72.709 11.7488C72.709 12.4089 72.8359 12.8933 73.0898 13.2019C73.3477 13.5066 73.6641 13.6589 74.0391 13.6589C74.4414 13.6589 74.7812 13.5027 75.0586 13.1902C75.3359 12.8738 75.4746 12.407 75.4746 11.7898C75.4746 11.1453 75.3418 10.6667 75.0762 10.3542C74.8105 10.0417 74.4746 9.8855 74.0684 9.8855C73.6738 9.8855 73.3477 10.0398 73.0898 10.3484C72.8359 10.6531 72.709 11.1199 72.709 11.7488ZM25.4238 24.6062L23.8008 24.8992C23.7461 24.575 23.6211 24.3308 23.4258 24.1667C23.2344 24.0027 22.9844 23.9207 22.6758 23.9207C22.2656 23.9207 21.9375 24.0632 21.6914 24.3484C21.4492 24.6296 21.3281 25.1023 21.3281 25.7664C21.3281 26.5046 21.4512 27.0261 21.6973 27.3308C21.9473 27.6355 22.2812 27.7878 22.6992 27.7878C23.0117 27.7878 23.2676 27.7 23.4668 27.5242C23.666 27.3445 23.8066 27.0378 23.8887 26.6042L25.5059 26.8796C25.3379 27.6218 25.0156 28.1824 24.5391 28.5613C24.0625 28.9402 23.4238 29.1296 22.623 29.1296C21.7129 29.1296 20.9863 28.8425 20.4434 28.2683C19.9043 27.6941 19.6348 26.8992 19.6348 25.8835C19.6348 24.8562 19.9062 24.0574 20.4492 23.4871C20.9922 22.9128 21.7266 22.6257 22.6523 22.6257C23.4102 22.6257 24.0117 22.7898 24.457 23.1179C24.9062 23.4421 25.2285 23.9382 25.4238 24.6062ZM26.2969 25.7898C26.2969 25.2429 26.4316 24.7136 26.7012 24.2019C26.9707 23.6902 27.3516 23.2996 27.8438 23.03C28.3398 22.7605 28.8926 22.6257 29.502 22.6257C30.4434 22.6257 31.2148 22.9324 31.8164 23.5457C32.418 24.155 32.7188 24.9265 32.7188 25.8601C32.7188 26.8015 32.4141 27.5828 31.8047 28.2039C31.1992 28.821 30.4355 29.1296 29.5137 29.1296C28.9434 29.1296 28.3984 29.0007 27.8789 28.7429C27.3633 28.4851 26.9707 28.1082 26.7012 27.6121C26.4316 27.1121 26.2969 26.5046 26.2969 25.7898ZM27.9844 25.8777C27.9844 26.4949 28.1309 26.9675 28.4238 27.2957C28.7168 27.6238 29.0781 27.7878 29.5078 27.7878C29.9375 27.7878 30.2969 27.6238 30.5859 27.2957C30.8789 26.9675 31.0254 26.491 31.0254 25.866C31.0254 25.2566 30.8789 24.7878 30.5859 24.4597C30.2969 24.1316 29.9375 23.9675 29.5078 23.9675C29.0781 23.9675 28.7168 24.1316 28.4238 24.4597C28.1309 24.7878 27.9844 25.2605 27.9844 25.8777ZM33.8906 22.7664H35.4082V23.616C35.9512 22.9558 36.5977 22.6257 37.3477 22.6257C37.7461 22.6257 38.0918 22.7078 38.3848 22.8718C38.6777 23.0359 38.918 23.2839 39.1055 23.616C39.3789 23.2839 39.6738 23.0359 39.9902 22.8718C40.3066 22.7078 40.6445 22.6257 41.0039 22.6257C41.4609 22.6257 41.8477 22.7195 42.1641 22.907C42.4805 23.0906 42.7168 23.3621 42.873 23.7214C42.9863 23.9871 43.043 24.4167 43.043 25.0105V28.989H41.3965V25.4324C41.3965 24.8152 41.3398 24.4167 41.2266 24.2371C41.0742 24.0027 40.8398 23.8855 40.5234 23.8855C40.293 23.8855 40.0762 23.9558 39.873 24.0964C39.6699 24.2371 39.5234 24.4441 39.4336 24.7175C39.3438 24.9871 39.2988 25.4148 39.2988 26.0007V28.989H37.6523V25.5789C37.6523 24.9734 37.623 24.5828 37.5645 24.407C37.5059 24.2312 37.4141 24.1003 37.2891 24.0144C37.168 23.9285 37.002 23.8855 36.791 23.8855C36.5371 23.8855 36.3086 23.9539 36.1055 24.0906C35.9023 24.2273 35.7559 24.4246 35.666 24.6824C35.5801 24.9402 35.5371 25.3679 35.5371 25.9656V28.989H33.8906V22.7664ZM44.6426 22.7664H46.1777V23.6804C46.377 23.3679 46.6465 23.114 46.9863 22.9187C47.3262 22.7234 47.7031 22.6257 48.1172 22.6257C48.8398 22.6257 49.4531 22.9089 49.957 23.4753C50.4609 24.0417 50.7129 24.8308 50.7129 25.8425C50.7129 26.8816 50.459 27.6902 49.9512 28.2683C49.4434 28.8425 48.8281 29.1296 48.1055 29.1296C47.7617 29.1296 47.4492 29.0613 47.168 28.9246C46.8906 28.7878 46.5977 28.5535 46.2891 28.2214V31.3562H44.6426V22.7664ZM46.2715 25.7722C46.2715 26.4714 46.4102 26.989 46.6875 27.325C46.9648 27.657 47.3027 27.823 47.7012 27.823C48.084 27.823 48.4023 27.6707 48.6562 27.366C48.9102 27.0574 49.0371 26.5535 49.0371 25.8542C49.0371 25.2019 48.9062 24.7175 48.6445 24.4011C48.3828 24.0847 48.0586 23.9265 47.6719 23.9265C47.2695 23.9265 46.9355 24.0828 46.6699 24.3953C46.4043 24.7039 46.2715 25.1628 46.2715 25.7722ZM52.0254 28.989V20.3992H53.6719V28.989H52.0254ZM58.9688 27.0085L60.6094 27.2839C60.3984 27.8855 60.0645 28.3445 59.6074 28.6609C59.1543 28.9734 58.5859 29.1296 57.9023 29.1296C56.8203 29.1296 56.0195 28.7761 55.5 28.0691C55.0898 27.5027 54.8848 26.7878 54.8848 25.9246C54.8848 24.8933 55.1543 24.0867 55.6934 23.5046C56.2324 22.9187 56.9141 22.6257 57.7383 22.6257C58.6641 22.6257 59.3945 22.9324 59.9297 23.5457C60.4648 24.155 60.7207 25.0906 60.6973 26.3523H56.5723C56.584 26.8406 56.7168 27.2214 56.9707 27.4949C57.2246 27.7644 57.541 27.8992 57.9199 27.8992C58.1777 27.8992 58.3945 27.8289 58.5703 27.6882C58.7461 27.5476 58.8789 27.321 58.9688 27.0085ZM59.0625 25.3445C59.0508 24.8679 58.9277 24.5066 58.6934 24.2605C58.459 24.0105 58.1738 23.8855 57.8379 23.8855C57.4785 23.8855 57.1816 24.0164 56.9473 24.2781C56.7129 24.5398 56.5977 24.8953 56.6016 25.3445H59.0625ZM61.2539 28.989L63.498 25.7839L61.3477 22.7664H63.3574L64.459 24.4773L65.6191 22.7664H67.5527L65.4434 25.7136L67.7461 28.989H65.7246L64.459 27.0613L63.1816 28.989H61.2539Z" fill="white"/>
<defs>
<linearGradient id="paint0_linear_67_1877" x1="43.5" y1="1.98901" x2="43.5" y2="33.989" gradientUnits="userSpaceOnUse">
<stop stop-color="#F46500"/>
<stop offset="1" stop-color="#C75601"/>
</linearGradient>
</defs>
</svg>
