<svg width="66" height="24" viewBox="0 0 66 24" fill="none" xmlns="http://www.w3.org/2000/svg">
<rect x="1" y="1.98901" width="64" height="20" rx="10" fill="url(#paint0_linear_42_2622)"/>
<rect x="1" y="1.98901" width="64" height="20" rx="10" stroke="#DA82BA" stroke-width="3" stroke-linejoin="round"/>
<path d="M14.6836 12.8308L16.3652 13.364C16.1074 14.3015 15.6777 14.9988 15.0762 15.4558C14.4785 15.9089 13.7188 16.1355 12.7969 16.1355C11.6562 16.1355 10.7188 15.7468 9.98438 14.9695C9.25 14.1882 8.88281 13.1218 8.88281 11.7703C8.88281 10.3406 9.25195 9.2312 9.99023 8.44214C10.7285 7.64917 11.6992 7.25269 12.9023 7.25269C13.9531 7.25269 14.8066 7.56323 15.4629 8.18433C15.8535 8.55151 16.1465 9.07886 16.3418 9.76636L14.625 10.1765C14.5234 9.7312 14.3105 9.37964 13.9863 9.12183C13.666 8.86401 13.2754 8.73511 12.8145 8.73511C12.1777 8.73511 11.6602 8.96362 11.2617 9.42065C10.8672 9.87769 10.6699 10.6179 10.6699 11.6414C10.6699 12.7273 10.8652 13.5007 11.2559 13.9617C11.6465 14.4226 12.1543 14.6531 12.7793 14.6531C13.2402 14.6531 13.6367 14.5066 13.9688 14.2136C14.3008 13.9207 14.5391 13.4597 14.6836 12.8308ZM17.4199 13.1941L19.1074 13.03C19.209 13.5964 19.4141 14.0125 19.7227 14.2781C20.0352 14.5437 20.4551 14.6765 20.9824 14.6765C21.541 14.6765 21.9609 14.5593 22.2422 14.325C22.5273 14.0867 22.6699 13.8093 22.6699 13.4929C22.6699 13.2898 22.6094 13.1179 22.4883 12.9773C22.3711 12.8328 22.1641 12.7078 21.8672 12.6023C21.6641 12.532 21.2012 12.407 20.4785 12.2273C19.5488 11.9968 18.8965 11.7136 18.5215 11.3777C17.9941 10.905 17.7305 10.3289 17.7305 9.64917C17.7305 9.21167 17.8535 8.80347 18.0996 8.42456C18.3496 8.04175 18.707 7.75073 19.1719 7.55151C19.6406 7.35229 20.2051 7.25269 20.8652 7.25269C21.9434 7.25269 22.7539 7.48901 23.2969 7.96167C23.8438 8.43433 24.1309 9.06519 24.1582 9.85425L22.4238 9.93042C22.3496 9.48901 22.1895 9.17261 21.9434 8.9812C21.7012 8.78589 21.3359 8.68823 20.8477 8.68823C20.3438 8.68823 19.9492 8.79175 19.6641 8.99878C19.4805 9.13159 19.3887 9.30933 19.3887 9.53198C19.3887 9.73511 19.4746 9.90894 19.6465 10.0535C19.8652 10.2371 20.3965 10.4285 21.2402 10.6277C22.084 10.8269 22.707 11.0339 23.1094 11.2488C23.5156 11.4597 23.832 11.7507 24.0586 12.1218C24.2891 12.489 24.4043 12.9441 24.4043 13.4871C24.4043 13.9792 24.2676 14.4402 23.9941 14.8699C23.7207 15.2996 23.334 15.6199 22.834 15.8308C22.334 16.0378 21.7109 16.1414 20.9648 16.1414C19.8789 16.1414 19.0449 15.8914 18.4629 15.3914C17.8809 14.8875 17.5332 14.155 17.4199 13.1941ZM25.8809 15.989V7.39917H27.5684L31.084 13.1355V7.39917H32.6953V15.989H30.9551L27.4922 10.3875V15.989H25.8809ZM34.5586 15.989V7.39917H36.293V11.2136L39.7969 7.39917H42.1289L38.8945 10.7449L42.3047 15.989H40.0605L37.6992 11.9578L36.293 13.3933V15.989H34.5586ZM47.0566 15.989H45.4102V9.78394C44.8086 10.3464 44.0996 10.7625 43.2832 11.032V9.53784C43.7129 9.39722 44.1797 9.13159 44.6836 8.74097C45.1875 8.34644 45.5332 7.88745 45.7207 7.36401H47.0566V15.989ZM49.8809 7.39917H53.0508C53.7656 7.39917 54.3105 7.45386 54.6855 7.56323C55.1895 7.71167 55.6211 7.97534 55.9805 8.35425C56.3398 8.73315 56.6133 9.198 56.8008 9.74878C56.9883 10.2957 57.082 10.9714 57.082 11.7761C57.082 12.4832 56.9941 13.0925 56.8184 13.6042C56.6035 14.2292 56.2969 14.7351 55.8984 15.1218C55.5977 15.4148 55.1914 15.6433 54.6797 15.8074C54.2969 15.9285 53.7852 15.989 53.1445 15.989H49.8809V7.39917ZM51.6152 8.85229V14.5417H52.9102C53.3945 14.5417 53.7441 14.5144 53.959 14.4597C54.2402 14.3894 54.4727 14.2703 54.6562 14.1023C54.8438 13.9343 54.9961 13.6589 55.1133 13.2761C55.2305 12.8894 55.2891 12.364 55.2891 11.7C55.2891 11.0359 55.2305 10.5261 55.1133 10.1707C54.9961 9.81519 54.832 9.53784 54.6211 9.33862C54.4102 9.1394 54.1426 9.00464 53.8184 8.93433C53.5762 8.87964 53.1016 8.85229 52.3945 8.85229H51.6152Z" fill="white"/>
<defs>
<linearGradient id="paint0_linear_42_2622" x1="33" y1="1.98901" x2="33" y2="21.989" gradientUnits="userSpaceOnUse">
<stop stop-color="#DA82BA"/>
<stop offset="1" stop-color="#242465"/>
</linearGradient>
</defs>
</svg>
