<svg width="65" height="24" viewBox="0 0 65 24" fill="none" xmlns="http://www.w3.org/2000/svg">
<rect x="1" y="1.98901" width="63" height="20" rx="10" fill="url(#paint0_linear_64_1866)"/>
<rect x="1" y="1.98901" width="63" height="20" rx="10" stroke="#C41888" stroke-width="3" stroke-linejoin="round"/>
<path d="M9.03906 15.989V7.39917H10.7266L14.2422 13.1355V7.39917H15.8535V15.989H14.1133L10.6504 10.3875V15.989H9.03906ZM17.6992 15.989V7.39917H19.4336V10.78H22.832V7.39917H24.5664V15.989H22.832V12.2332H19.4336V15.989H17.6992ZM26.4121 15.989V7.46948H28.1465V14.5417H32.459V15.989H26.4121ZM33.707 15.989V7.39917H37.3574C38.2754 7.39917 38.9414 7.47729 39.3555 7.63354C39.7734 7.78589 40.1074 8.05933 40.3574 8.45386C40.6074 8.84839 40.7324 9.29956 40.7324 9.80737C40.7324 10.4519 40.543 10.9851 40.1641 11.407C39.7852 11.825 39.2188 12.0886 38.4648 12.198C38.8398 12.4167 39.1484 12.657 39.3906 12.9187C39.6367 13.1804 39.9668 13.6453 40.3809 14.3132L41.4297 15.989H39.3555L38.1016 14.1199C37.6562 13.4519 37.3516 13.032 37.1875 12.8601C37.0234 12.6843 36.8496 12.5652 36.666 12.5027C36.4824 12.4363 36.1914 12.4031 35.793 12.4031H35.4414V15.989H33.707ZM35.4414 11.032H36.7246C37.5566 11.032 38.0762 10.9968 38.2832 10.9265C38.4902 10.8562 38.6523 10.7351 38.7695 10.5632C38.8867 10.3914 38.9453 10.1765 38.9453 9.9187C38.9453 9.62964 38.8672 9.39722 38.7109 9.22144C38.5586 9.04175 38.3418 8.92847 38.0605 8.88159C37.9199 8.86206 37.498 8.85229 36.7949 8.85229H35.4414V11.032ZM47.8691 12.8308L49.5508 13.364C49.293 14.3015 48.8633 14.9988 48.2617 15.4558C47.6641 15.9089 46.9043 16.1355 45.9824 16.1355C44.8418 16.1355 43.9043 15.7468 43.1699 14.9695C42.4355 14.1882 42.0684 13.1218 42.0684 11.7703C42.0684 10.3406 42.4375 9.2312 43.1758 8.44214C43.9141 7.64917 44.8848 7.25269 46.0879 7.25269C47.1387 7.25269 47.9922 7.56323 48.6484 8.18433C49.0391 8.55151 49.332 9.07886 49.5273 9.76636L47.8105 10.1765C47.709 9.7312 47.4961 9.37964 47.1719 9.12183C46.8516 8.86401 46.4609 8.73511 46 8.73511C45.3633 8.73511 44.8457 8.96362 44.4473 9.42065C44.0527 9.87769 43.8555 10.6179 43.8555 11.6414C43.8555 12.7273 44.0508 13.5007 44.4414 13.9617C44.832 14.4226 45.3398 14.6531 45.9648 14.6531C46.4258 14.6531 46.8223 14.5066 47.1543 14.2136C47.4863 13.9207 47.7246 13.4597 47.8691 12.8308ZM54.8945 15.989H53.248V9.78394C52.6465 10.3464 51.9375 10.7625 51.1211 11.032V9.53784C51.5508 9.39722 52.0176 9.13159 52.5215 8.74097C53.0254 8.34644 53.3711 7.88745 53.5586 7.36401H54.8945V15.989Z" fill="white"/>
<defs>
<linearGradient id="paint0_linear_64_1866" x1="32.5" y1="1.98901" x2="32.5" y2="21.989" gradientUnits="userSpaceOnUse">
<stop stop-color="#C41888"/>
<stop offset="1" stop-color="#BB8348"/>
</linearGradient>
</defs>
</svg>
