<svg width="51" height="24" viewBox="0 0 51 24" fill="none" xmlns="http://www.w3.org/2000/svg">
<rect x="2" y="1.98901" width="48" height="20" rx="10" fill="url(#paint0_linear_42_2616)"/>
<rect x="2" y="1.98901" width="48" height="20" rx="10" stroke="#8B67D0" stroke-width="3" stroke-linejoin="round"/>
<path d="M13.7773 14.0085L15.418 14.2839C15.207 14.8855 14.873 15.3445 14.416 15.6609C13.9629 15.9734 13.3945 16.1296 12.7109 16.1296C11.6289 16.1296 10.8281 15.7761 10.3086 15.0691C9.89844 14.5027 9.69336 13.7878 9.69336 12.9246C9.69336 11.8933 9.96289 11.0867 10.502 10.5046C11.041 9.9187 11.7227 9.62573 12.5469 9.62573C13.4727 9.62573 14.2031 9.93237 14.7383 10.5457C15.2734 11.155 15.5293 12.0906 15.5059 13.3523H11.3809C11.3926 13.8406 11.5254 14.2214 11.7793 14.4949C12.0332 14.7644 12.3496 14.8992 12.7285 14.8992C12.9863 14.8992 13.2031 14.8289 13.3789 14.6882C13.5547 14.5476 13.6875 14.321 13.7773 14.0085ZM13.8711 12.3445C13.8594 11.8679 13.7363 11.5066 13.502 11.2605C13.2676 11.0105 12.9824 10.8855 12.6465 10.8855C12.2871 10.8855 11.9902 11.0164 11.7559 11.2781C11.5215 11.5398 11.4062 11.8953 11.4102 12.3445H13.8711ZM16.8125 15.989V7.39917H18.5469V15.989H16.8125ZM20.2168 15.989V7.39917H26.1055V8.85229H21.9512V10.8855H25.5371V12.3386H21.9512V15.989H20.2168ZM30.4062 15.989V14.2605H26.8906V12.8191L30.6172 7.36401H32V12.8132H33.0664V14.2605H32V15.989H30.4062ZM30.4062 12.8132V9.87769L28.4316 12.8132H30.4062ZM38.2168 12.8308V11.3835H41.9551V14.8054C41.5918 15.157 41.0645 15.4675 40.373 15.7371C39.6855 16.0027 38.9883 16.1355 38.2812 16.1355C37.3828 16.1355 36.5996 15.948 35.9316 15.573C35.2637 15.1941 34.7617 14.655 34.4258 13.9558C34.0898 13.2527 33.9219 12.489 33.9219 11.6648C33.9219 10.7703 34.1094 9.97534 34.4844 9.28003C34.8594 8.58472 35.4082 8.05151 36.1309 7.68042C36.6816 7.39526 37.3672 7.25269 38.1875 7.25269C39.2539 7.25269 40.0859 7.47729 40.6836 7.92651C41.2852 8.37183 41.6719 8.98901 41.8438 9.77808L40.1211 10.1003C40 9.67847 39.7715 9.34644 39.4355 9.10425C39.1035 8.85815 38.6875 8.73511 38.1875 8.73511C37.4297 8.73511 36.8262 8.97534 36.377 9.45581C35.9316 9.93628 35.709 10.6492 35.709 11.5945C35.709 12.614 35.9355 13.3796 36.3887 13.8914C36.8418 14.3992 37.4355 14.6531 38.1699 14.6531C38.5332 14.6531 38.8965 14.5828 39.2598 14.4421C39.627 14.2976 39.9414 14.1238 40.2031 13.9207V12.8308H38.2168Z" fill="white"/>
<defs>
<linearGradient id="paint0_linear_42_2616" x1="26" y1="1.98901" x2="26" y2="21.989" gradientUnits="userSpaceOnUse">
<stop stop-color="#8B67D0"/>
<stop offset="1" stop-color="#C9D700"/>
</linearGradient>
</defs>
</svg>
