<svg width="63" height="24" viewBox="0 0 63 24" fill="none" xmlns="http://www.w3.org/2000/svg">
<rect x="2" y="1.98901" width="60" height="20" rx="10" fill="url(#paint0_linear_64_1945)"/>
<rect x="2" y="1.98901" width="60" height="20" rx="10" stroke="#FF0000" stroke-width="3" stroke-linejoin="round"/>
<path d="M9.83984 11.7468C9.83984 10.8718 9.9707 10.1375 10.2324 9.5437C10.4277 9.1062 10.6934 8.71362 11.0293 8.36597C11.3691 8.01831 11.7402 7.7605 12.1426 7.59253C12.6777 7.36597 13.2949 7.25269 13.9941 7.25269C15.2598 7.25269 16.2715 7.64526 17.0293 8.43042C17.791 9.21558 18.1719 10.3074 18.1719 11.7058C18.1719 13.0925 17.7949 14.1785 17.041 14.9636C16.2871 15.7449 15.2793 16.1355 14.0176 16.1355C12.7402 16.1355 11.7246 15.7468 10.9707 14.9695C10.2168 14.1882 9.83984 13.114 9.83984 11.7468ZM11.627 11.6882C11.627 12.6609 11.8516 13.3992 12.3008 13.9031C12.75 14.4031 13.3203 14.6531 14.0117 14.6531C14.7031 14.6531 15.2695 14.405 15.7109 13.9089C16.1562 13.4089 16.3789 12.6609 16.3789 11.6648C16.3789 10.6804 16.1621 9.94604 15.7285 9.46167C15.2988 8.97729 14.7266 8.73511 14.0117 8.73511C13.2969 8.73511 12.7207 8.9812 12.2832 9.47339C11.8457 9.96167 11.627 10.7 11.627 11.6882ZM19.5312 15.989V7.39917H22.3145C23.3691 7.39917 24.0566 7.44214 24.377 7.52808C24.8691 7.65698 25.2812 7.93823 25.6133 8.37183C25.9453 8.80151 26.1113 9.35815 26.1113 10.0417C26.1113 10.5691 26.0156 11.0125 25.8242 11.3718C25.6328 11.7312 25.3887 12.0144 25.0918 12.2214C24.7988 12.4246 24.5 12.5593 24.1953 12.6257C23.7812 12.7078 23.1816 12.7488 22.3965 12.7488H21.2656V15.989H19.5312ZM21.2656 8.85229V11.2898H22.2148C22.8984 11.2898 23.3555 11.2449 23.5859 11.155C23.8164 11.0652 23.9961 10.9246 24.125 10.7332C24.2578 10.5417 24.3242 10.3191 24.3242 10.0652C24.3242 9.75269 24.2324 9.49487 24.0488 9.29175C23.8652 9.08862 23.6328 8.96167 23.3516 8.91089C23.1445 8.87183 22.7285 8.85229 22.1035 8.85229H21.2656ZM27.0957 13.1941L28.7832 13.03C28.8848 13.5964 29.0898 14.0125 29.3984 14.2781C29.7109 14.5437 30.1309 14.6765 30.6582 14.6765C31.2168 14.6765 31.6367 14.5593 31.918 14.325C32.2031 14.0867 32.3457 13.8093 32.3457 13.4929C32.3457 13.2898 32.2852 13.1179 32.1641 12.9773C32.0469 12.8328 31.8398 12.7078 31.543 12.6023C31.3398 12.532 30.877 12.407 30.1543 12.2273C29.2246 11.9968 28.5723 11.7136 28.1973 11.3777C27.6699 10.905 27.4062 10.3289 27.4062 9.64917C27.4062 9.21167 27.5293 8.80347 27.7754 8.42456C28.0254 8.04175 28.3828 7.75073 28.8477 7.55151C29.3164 7.35229 29.8809 7.25269 30.541 7.25269C31.6191 7.25269 32.4297 7.48901 32.9727 7.96167C33.5195 8.43433 33.8066 9.06519 33.834 9.85425L32.0996 9.93042C32.0254 9.48901 31.8652 9.17261 31.6191 8.9812C31.377 8.78589 31.0117 8.68823 30.5234 8.68823C30.0195 8.68823 29.625 8.79175 29.3398 8.99878C29.1562 9.13159 29.0645 9.30933 29.0645 9.53198C29.0645 9.73511 29.1504 9.90894 29.3223 10.0535C29.541 10.2371 30.0723 10.4285 30.916 10.6277C31.7598 10.8269 32.3828 11.0339 32.7852 11.2488C33.1914 11.4597 33.5078 11.7507 33.7344 12.1218C33.9648 12.489 34.0801 12.9441 34.0801 13.4871C34.0801 13.9792 33.9434 14.4402 33.6699 14.8699C33.3965 15.2996 33.0098 15.6199 32.5098 15.8308C32.0098 16.0378 31.3867 16.1414 30.6406 16.1414C29.5547 16.1414 28.7207 15.8914 28.1387 15.3914C27.5566 14.8875 27.209 14.155 27.0957 13.1941ZM35.4863 15.989V7.39917H37.2207V15.989H35.4863ZM38.8965 15.989V7.39917H40.584L44.0996 13.1355V7.39917H45.7109V15.989H43.9707L40.5078 10.3875V15.989H38.8965ZM47.1113 13.1941L48.7988 13.03C48.9004 13.5964 49.1055 14.0125 49.4141 14.2781C49.7266 14.5437 50.1465 14.6765 50.6738 14.6765C51.2324 14.6765 51.6523 14.5593 51.9336 14.325C52.2188 14.0867 52.3613 13.8093 52.3613 13.4929C52.3613 13.2898 52.3008 13.1179 52.1797 12.9773C52.0625 12.8328 51.8555 12.7078 51.5586 12.6023C51.3555 12.532 50.8926 12.407 50.1699 12.2273C49.2402 11.9968 48.5879 11.7136 48.2129 11.3777C47.6855 10.905 47.4219 10.3289 47.4219 9.64917C47.4219 9.21167 47.5449 8.80347 47.791 8.42456C48.041 8.04175 48.3984 7.75073 48.8633 7.55151C49.332 7.35229 49.8965 7.25269 50.5566 7.25269C51.6348 7.25269 52.4453 7.48901 52.9883 7.96167C53.5352 8.43433 53.8223 9.06519 53.8496 9.85425L52.1152 9.93042C52.041 9.48901 51.8809 9.17261 51.6348 8.9812C51.3926 8.78589 51.0273 8.68823 50.5391 8.68823C50.0352 8.68823 49.6406 8.79175 49.3555 8.99878C49.1719 9.13159 49.0801 9.30933 49.0801 9.53198C49.0801 9.73511 49.166 9.90894 49.3379 10.0535C49.5566 10.2371 50.0879 10.4285 50.9316 10.6277C51.7754 10.8269 52.3984 11.0339 52.8008 11.2488C53.207 11.4597 53.5234 11.7507 53.75 12.1218C53.9805 12.489 54.0957 12.9441 54.0957 13.4871C54.0957 13.9792 53.959 14.4402 53.6855 14.8699C53.4121 15.2996 53.0254 15.6199 52.5254 15.8308C52.0254 16.0378 51.4023 16.1414 50.6562 16.1414C49.5703 16.1414 48.7363 15.8914 48.1543 15.3914C47.5723 14.8875 47.2246 14.155 47.1113 13.1941Z" fill="white"/>
<defs>
<linearGradient id="paint0_linear_64_1945" x1="32" y1="1.98901" x2="32" y2="21.989" gradientUnits="userSpaceOnUse">
<stop stop-color="#0000FF"/>
<stop offset="1" stop-color="#00FF00"/>
</linearGradient>
</defs>
</svg>
