<svg width="53" height="24" viewBox="0 0 53 24" fill="none" xmlns="http://www.w3.org/2000/svg">
<rect x="2" y="1.98901" width="50" height="20" rx="10" fill="url(#paint0_linear_35_1496)"/>
<rect x="2" y="1.98901" width="50" height="20" rx="10" stroke="#D1B400" stroke-width="3" stroke-linejoin="round"/>
<path d="M17.9355 15.989H16.0488L15.2988 14.0378H11.8652L11.1562 15.989H9.31641L12.6621 7.39917H14.4961L17.9355 15.989ZM14.7422 12.5906L13.5586 9.40308L12.3984 12.5906H14.7422ZM17.9883 15.989L20.9238 11.5066L18.2637 7.39917H20.291L22.0137 10.1589L23.7012 7.39917H25.7109L23.0391 11.571L25.9746 15.989H23.8828L21.9785 13.0183L20.0684 15.989H17.9883ZM26.8125 15.989V7.39917H28.5469V15.989H26.8125ZM30.2227 15.989V7.39917H31.9102L35.4258 13.1355V7.39917H37.0371V15.989H35.2969L31.834 10.3875V15.989H30.2227ZM42.7266 15.989H41.0801V9.78394C40.4785 10.3464 39.7695 10.7625 38.9531 11.032V9.53784C39.3828 9.39722 39.8496 9.13159 40.3535 8.74097C40.8574 8.34644 41.2031 7.88745 41.3906 7.36401H42.7266V15.989Z" fill="white"/>
<defs>
<linearGradient id="paint0_linear_35_1496" x1="27" y1="1.98901" x2="27" y2="21.989" gradientUnits="userSpaceOnUse">
<stop stop-color="#D1B400"/>
<stop offset="1" stop-color="#4B3FB0"/>
</linearGradient>
</defs>
</svg>
