<svg width="43" height="44" viewBox="0 0 43 44" fill="none" xmlns="http://www.w3.org/2000/svg">
<path d="M21.4771 1.48901C32.9208 1.48926 42.2291 10.7996 42.2291 22.2419C42.229 33.6844 32.9199 42.9929 21.4761 42.9929C10.0339 42.9927 0.725229 33.6856 0.725159 22.2419C0.725159 10.7981 10.0347 1.48901 21.4771 1.48901Z" fill="url(#paint0_radial_89_4119)" stroke="#38448E"/>
<path d="M10.0454 25.989V17.3992H11.7798V25.989H10.0454ZM13.4849 25.989V17.4695H15.2192V24.5417H19.5317V25.989H13.4849ZM25.9712 24.4597V25.989H20.1997C20.2622 25.4109 20.4497 24.864 20.7622 24.3484C21.0747 23.8289 21.6919 23.1414 22.6138 22.2859C23.356 21.5945 23.811 21.1257 23.979 20.8796C24.2056 20.5398 24.3188 20.2039 24.3188 19.8718C24.3188 19.5046 24.2192 19.2234 24.02 19.0281C23.8247 18.8289 23.5532 18.7292 23.2056 18.7292C22.8618 18.7292 22.5884 18.8328 22.3853 19.0398C22.1821 19.2468 22.0649 19.5906 22.0337 20.071L20.3931 19.907C20.4907 19.0007 20.7974 18.3503 21.313 17.9558C21.8286 17.5613 22.4731 17.364 23.2466 17.364C24.0942 17.364 24.7603 17.5925 25.2446 18.0496C25.729 18.5066 25.9712 19.075 25.9712 19.7546C25.9712 20.1414 25.9009 20.5105 25.7603 20.8621C25.6235 21.2097 25.4048 21.575 25.104 21.9578C24.9048 22.2117 24.5454 22.5769 24.0259 23.0535C23.5063 23.53 23.1763 23.8464 23.0356 24.0027C22.8989 24.1589 22.7876 24.3113 22.7017 24.4597H25.9712ZM29.8735 17.364C30.7056 17.364 31.356 17.6609 31.8247 18.2546C32.3833 18.9578 32.6626 20.1238 32.6626 21.7527C32.6626 23.3777 32.3813 24.5457 31.8188 25.2566C31.354 25.8425 30.7056 26.1355 29.8735 26.1355C29.0376 26.1355 28.3638 25.8152 27.8521 25.1746C27.3403 24.53 27.0845 23.3835 27.0845 21.7351C27.0845 20.1179 27.3657 18.9539 27.9282 18.2429C28.3931 17.657 29.0415 17.364 29.8735 17.364ZM29.8735 18.7292C29.6743 18.7292 29.4966 18.7937 29.3403 18.9226C29.1841 19.0476 29.063 19.2742 28.9771 19.6023C28.8638 20.0281 28.8071 20.7449 28.8071 21.7527C28.8071 22.7605 28.8579 23.4539 28.9595 23.8328C29.061 24.2078 29.188 24.4578 29.3403 24.5828C29.4966 24.7078 29.6743 24.7703 29.8735 24.7703C30.0728 24.7703 30.2505 24.7078 30.4067 24.5828C30.563 24.4539 30.6841 24.2253 30.77 23.8972C30.8833 23.4753 30.9399 22.7605 30.9399 21.7527C30.9399 20.7449 30.8892 20.0535 30.7876 19.6785C30.686 19.2996 30.5571 19.0476 30.4009 18.9226C30.2485 18.7937 30.0728 18.7292 29.8735 18.7292Z" fill="white"/>
<defs>
<radialGradient id="paint0_radial_89_4119" cx="0" cy="0" r="1" gradientUnits="userSpaceOnUse" gradientTransform="translate(17.0045 14.0024) scale(19.3962)">
<stop stop-color="#98D9F6"/>
<stop offset="1" stop-color="#0058CC"/>
</radialGradient>
</defs>
</svg>
