<svg width="84" height="24" viewBox="0 0 84 24" fill="none" xmlns="http://www.w3.org/2000/svg">
<rect x="1" y="1.98901" width="82" height="20" rx="10" fill="url(#paint0_linear_50_1838)"/>
<rect x="1" y="1.98901" width="82" height="20" rx="10" stroke="#8F8100" stroke-width="3" stroke-linejoin="round"/>
<path d="M9.16406 15.989V7.39917H11.7598L13.3184 13.2585L14.8594 7.39917H17.4609V15.989H15.8496V9.22729L14.1445 15.989H12.4746L10.7754 9.22729V15.989H9.16406ZM26.9297 15.989H25.043L24.293 14.0378H20.8594L20.1504 15.989H18.3105L21.6562 7.39917H23.4902L26.9297 15.989ZM23.7363 12.5906L22.5527 9.40308L21.3926 12.5906H23.7363ZM27.8555 15.989V7.39917H30.6387C31.6934 7.39917 32.3809 7.44214 32.7012 7.52808C33.1934 7.65698 33.6055 7.93823 33.9375 8.37183C34.2695 8.80151 34.4355 9.35815 34.4355 10.0417C34.4355 10.5691 34.3398 11.0125 34.1484 11.3718C33.957 11.7312 33.7129 12.0144 33.416 12.2214C33.123 12.4246 32.8242 12.5593 32.5195 12.6257C32.1055 12.7078 31.5059 12.7488 30.7207 12.7488H29.5898V15.989H27.8555ZM29.5898 8.85229V11.2898H30.5391C31.2227 11.2898 31.6797 11.2449 31.9102 11.155C32.1406 11.0652 32.3203 10.9246 32.4492 10.7332C32.582 10.5417 32.6484 10.3191 32.6484 10.0652C32.6484 9.75269 32.5566 9.49487 32.373 9.29175C32.1895 9.08862 31.957 8.96167 31.6758 8.91089C31.4688 8.87183 31.0527 8.85229 30.4277 8.85229H29.5898ZM35.8828 15.989V7.39917H37.6172V11.2136L41.1211 7.39917H43.4531L40.2188 10.7449L43.6289 15.989H41.3848L39.0234 11.9578L37.6172 13.3933V15.989H35.8828ZM52.2773 15.989H50.3906L49.6406 14.0378H46.207L45.498 15.989H43.6582L47.0039 7.39917H48.8379L52.2773 15.989ZM49.084 12.5906L47.9004 9.40308L46.7402 12.5906H49.084ZM53.2031 15.989V7.39917H55.9863C57.041 7.39917 57.7285 7.44214 58.0488 7.52808C58.541 7.65698 58.9531 7.93823 59.2852 8.37183C59.6172 8.80151 59.7832 9.35815 59.7832 10.0417C59.7832 10.5691 59.6875 11.0125 59.4961 11.3718C59.3047 11.7312 59.0605 12.0144 58.7637 12.2214C58.4707 12.4246 58.1719 12.5593 57.8672 12.6257C57.4531 12.7078 56.8535 12.7488 56.0684 12.7488H54.9375V15.989H53.2031ZM54.9375 8.85229V11.2898H55.8867C56.5703 11.2898 57.0273 11.2449 57.2578 11.155C57.4883 11.0652 57.668 10.9246 57.7969 10.7332C57.9297 10.5417 57.9961 10.3191 57.9961 10.0652C57.9961 9.75269 57.9043 9.49487 57.7207 9.29175C57.5371 9.08862 57.3047 8.96167 57.0234 8.91089C56.8164 8.87183 56.4004 8.85229 55.7754 8.85229H54.9375ZM61.2305 15.989V7.39917H62.9648V11.2136L66.4688 7.39917H68.8008L65.5664 10.7449L68.9766 15.989H66.7324L64.3711 11.9578L62.9648 13.3933V15.989H61.2305ZM69.5391 13.78L71.1797 13.6101C71.2266 13.9812 71.3652 14.2761 71.5957 14.4949C71.8262 14.7097 72.0918 14.8171 72.3926 14.8171C72.7363 14.8171 73.0273 14.6785 73.2656 14.4011C73.5039 14.1199 73.623 13.698 73.623 13.1355C73.623 12.6082 73.5039 12.2136 73.2656 11.9519C73.0312 11.6863 72.7246 11.5535 72.3457 11.5535C71.873 11.5535 71.4492 11.7625 71.0742 12.1804L69.7383 11.9871L70.582 7.51636H74.9355V9.05737H71.8301L71.5723 10.5164C71.9395 10.3328 72.3145 10.241 72.6973 10.241C73.4277 10.241 74.0469 10.5066 74.5547 11.0378C75.0625 11.5691 75.3164 12.2585 75.3164 13.1062C75.3164 13.8132 75.1113 14.4441 74.7012 14.9988C74.1426 15.7566 73.3672 16.1355 72.375 16.1355C71.582 16.1355 70.9355 15.9226 70.4355 15.4968C69.9355 15.071 69.6367 14.4988 69.5391 13.78Z" fill="white"/>
<defs>
<linearGradient id="paint0_linear_50_1838" x1="42" y1="1.98901" x2="42" y2="21.989" gradientUnits="userSpaceOnUse">
<stop stop-color="#8F8100"/>
<stop offset="1" stop-color="#004D00"/>
</linearGradient>
</defs>
</svg>
