<svg width="50" height="24" viewBox="0 0 50 24" fill="none" xmlns="http://www.w3.org/2000/svg">
<rect x="2" y="1.98901" width="47" height="20" rx="10" fill="url(#paint0_linear_38_1855)"/>
<rect x="2" y="1.98901" width="47" height="20" rx="10" stroke="#5B3370" stroke-width="3" stroke-linejoin="round"/>
<path d="M15.8555 12.8308L17.5371 13.364C17.2793 14.3015 16.8496 14.9988 16.248 15.4558C15.6504 15.9089 14.8906 16.1355 13.9688 16.1355C12.8281 16.1355 11.8906 15.7468 11.1562 14.9695C10.4219 14.1882 10.0547 13.1218 10.0547 11.7703C10.0547 10.3406 10.4238 9.2312 11.1621 8.44214C11.9004 7.64917 12.8711 7.25269 14.0742 7.25269C15.125 7.25269 15.9785 7.56323 16.6348 8.18433C17.0254 8.55151 17.3184 9.07886 17.5137 9.76636L15.7969 10.1765C15.6953 9.7312 15.4824 9.37964 15.1582 9.12183C14.8379 8.86401 14.4473 8.73511 13.9863 8.73511C13.3496 8.73511 12.832 8.96362 12.4336 9.42065C12.0391 9.87769 11.8418 10.6179 11.8418 11.6414C11.8418 12.7273 12.0371 13.5007 12.4277 13.9617C12.8184 14.4226 13.3262 14.6531 13.9512 14.6531C14.4121 14.6531 14.8086 14.5066 15.1406 14.2136C15.4727 13.9207 15.7109 13.4597 15.8555 12.8308ZM19.0371 7.39917H22.4707C23.1504 7.39917 23.6562 7.42847 23.9883 7.48706C24.3242 7.54175 24.623 7.65894 24.8848 7.83862C25.1504 8.01831 25.3711 8.25854 25.5469 8.55933C25.7227 8.8562 25.8105 9.19019 25.8105 9.56128C25.8105 9.96362 25.7012 10.3328 25.4824 10.6687C25.2676 11.0046 24.9746 11.2566 24.6035 11.4246C25.127 11.5769 25.5293 11.8367 25.8105 12.2039C26.0918 12.571 26.2324 13.0027 26.2324 13.4988C26.2324 13.8894 26.1406 14.2703 25.957 14.6414C25.7773 15.0085 25.5293 15.3035 25.2129 15.5261C24.9004 15.7449 24.5137 15.8796 24.0527 15.9304C23.7637 15.9617 23.0664 15.9812 21.9609 15.989H19.0371V7.39917ZM20.7715 8.82886V10.8152H21.9082C22.584 10.8152 23.0039 10.8054 23.168 10.7859C23.4648 10.7507 23.6973 10.6492 23.8652 10.4812C24.0371 10.3093 24.123 10.0847 24.123 9.80737C24.123 9.54175 24.0488 9.3269 23.9004 9.16284C23.7559 8.99487 23.5391 8.89331 23.25 8.85815C23.0781 8.83862 22.584 8.82886 21.7676 8.82886H20.7715ZM20.7715 12.2449V14.5417H22.377C23.002 14.5417 23.3984 14.5242 23.5664 14.489C23.8242 14.4421 24.0332 14.3289 24.1934 14.1492C24.3574 13.9656 24.4395 13.7214 24.4395 13.4167C24.4395 13.1589 24.377 12.9402 24.252 12.7605C24.127 12.5808 23.9453 12.45 23.707 12.3679C23.4727 12.2859 22.9609 12.2449 22.1719 12.2449H20.7715ZM26.8301 15.989L29.7656 11.5066L27.1055 7.39917H29.1328L30.8555 10.1589L32.543 7.39917H34.5527L31.8809 11.571L34.8164 15.989H32.7246L30.8203 13.0183L28.9102 15.989H26.8301ZM35.2852 13.7097L36.8789 13.5164C36.9297 13.9226 37.0664 14.2332 37.2891 14.448C37.5117 14.6628 37.7812 14.7703 38.0977 14.7703C38.4375 14.7703 38.7227 14.6414 38.9531 14.3835C39.1875 14.1257 39.3047 13.7781 39.3047 13.3406C39.3047 12.9265 39.1934 12.5984 38.9707 12.3562C38.748 12.114 38.4766 11.9929 38.1562 11.9929C37.9453 11.9929 37.6934 12.0339 37.4004 12.116L37.582 10.7742C38.0273 10.7859 38.3672 10.6902 38.6016 10.4871C38.8359 10.28 38.9531 10.0066 38.9531 9.66675C38.9531 9.37769 38.8672 9.14722 38.6953 8.97534C38.5234 8.80347 38.2949 8.71753 38.0098 8.71753C37.7285 8.71753 37.4883 8.81519 37.2891 9.0105C37.0898 9.20581 36.9688 9.49097 36.9258 9.86597L35.4082 9.60815C35.5137 9.08862 35.6719 8.67456 35.8828 8.36597C36.0977 8.05347 36.3945 7.80933 36.7734 7.63354C37.1562 7.45386 37.584 7.36401 38.0566 7.36401C38.8652 7.36401 39.5137 7.62183 40.002 8.13745C40.4043 8.55933 40.6055 9.03589 40.6055 9.56714C40.6055 10.321 40.1934 10.9226 39.3691 11.3718C39.8613 11.4773 40.2539 11.7136 40.5469 12.0808C40.8438 12.448 40.9922 12.8914 40.9922 13.4109C40.9922 14.1648 40.7168 14.8074 40.166 15.3386C39.6152 15.8699 38.9297 16.1355 38.1094 16.1355C37.332 16.1355 36.6875 15.9128 36.1758 15.4675C35.6641 15.0183 35.3672 14.4324 35.2852 13.7097Z" fill="white"/>
<defs>
<linearGradient id="paint0_linear_38_1855" x1="25.5" y1="1.98901" x2="25.5" y2="21.989" gradientUnits="userSpaceOnUse">
<stop stop-color="#5B3370"/>
<stop offset="1" stop-color="#98DE97"/>
</linearGradient>
</defs>
</svg>
