<svg width="65" height="24" viewBox="0 0 65 24" fill="none" xmlns="http://www.w3.org/2000/svg">
<rect x="1" y="1.98901" width="63" height="20" rx="10" fill="url(#paint0_linear_67_1880)"/>
<rect x="1" y="1.98901" width="63" height="20" rx="10" stroke="#FA8072" stroke-width="3" stroke-linejoin="round"/>
<path d="M8.58203 13.1941L10.2695 13.03C10.3711 13.5964 10.5762 14.0125 10.8848 14.2781C11.1973 14.5437 11.6172 14.6765 12.1445 14.6765C12.7031 14.6765 13.123 14.5593 13.4043 14.325C13.6895 14.0867 13.832 13.8093 13.832 13.4929C13.832 13.2898 13.7715 13.1179 13.6504 12.9773C13.5332 12.8328 13.3262 12.7078 13.0293 12.6023C12.8262 12.532 12.3633 12.407 11.6406 12.2273C10.7109 11.9968 10.0586 11.7136 9.68359 11.3777C9.15625 10.905 8.89258 10.3289 8.89258 9.64917C8.89258 9.21167 9.01562 8.80347 9.26172 8.42456C9.51172 8.04175 9.86914 7.75073 10.334 7.55151C10.8027 7.35229 11.3672 7.25269 12.0273 7.25269C13.1055 7.25269 13.916 7.48901 14.459 7.96167C15.0059 8.43433 15.293 9.06519 15.3203 9.85425L13.5859 9.93042C13.5117 9.48901 13.3516 9.17261 13.1055 8.9812C12.8633 8.78589 12.498 8.68823 12.0098 8.68823C11.5059 8.68823 11.1113 8.79175 10.8262 8.99878C10.6426 9.13159 10.5508 9.30933 10.5508 9.53198C10.5508 9.73511 10.6367 9.90894 10.8086 10.0535C11.0273 10.2371 11.5586 10.4285 12.4023 10.6277C13.2461 10.8269 13.8691 11.0339 14.2715 11.2488C14.6777 11.4597 14.9941 11.7507 15.2207 12.1218C15.4512 12.489 15.5664 12.9441 15.5664 13.4871C15.5664 13.9792 15.4297 14.4402 15.1562 14.8699C14.8828 15.2996 14.4961 15.6199 13.9961 15.8308C13.4961 16.0378 12.873 16.1414 12.127 16.1414C11.041 16.1414 10.207 15.8914 9.625 15.3914C9.04297 14.8875 8.69531 14.155 8.58203 13.1941ZM22.5215 12.8308L24.2031 13.364C23.9453 14.3015 23.5156 14.9988 22.9141 15.4558C22.3164 15.9089 21.5566 16.1355 20.6348 16.1355C19.4941 16.1355 18.5566 15.7468 17.8223 14.9695C17.0879 14.1882 16.7207 13.1218 16.7207 11.7703C16.7207 10.3406 17.0898 9.2312 17.8281 8.44214C18.5664 7.64917 19.5371 7.25269 20.7402 7.25269C21.791 7.25269 22.6445 7.56323 23.3008 8.18433C23.6914 8.55151 23.9844 9.07886 24.1797 9.76636L22.4629 10.1765C22.3613 9.7312 22.1484 9.37964 21.8242 9.12183C21.5039 8.86401 21.1133 8.73511 20.6523 8.73511C20.0156 8.73511 19.498 8.96362 19.0996 9.42065C18.7051 9.87769 18.5078 10.6179 18.5078 11.6414C18.5078 12.7273 18.7031 13.5007 19.0938 13.9617C19.4844 14.4226 19.9922 14.6531 20.6172 14.6531C21.0781 14.6531 21.4746 14.5066 21.8066 14.2136C22.1387 13.9207 22.377 13.4597 22.5215 12.8308ZM25.6855 7.39917H27.4199V12.0515C27.4199 12.7898 27.4414 13.2683 27.4844 13.4871C27.5586 13.8386 27.7344 14.1218 28.0117 14.3367C28.293 14.5476 28.6758 14.6531 29.1602 14.6531C29.6523 14.6531 30.0234 14.5535 30.2734 14.3542C30.5234 14.1511 30.6738 13.9031 30.7246 13.6101C30.7754 13.3171 30.8008 12.8308 30.8008 12.1511V7.39917H32.5352V11.9109C32.5352 12.9421 32.4883 13.6707 32.3945 14.0964C32.3008 14.5222 32.127 14.8816 31.873 15.1746C31.623 15.4675 31.2871 15.7019 30.8652 15.8777C30.4434 16.0496 29.8926 16.1355 29.2129 16.1355C28.3926 16.1355 27.7695 16.0417 27.3438 15.8542C26.9219 15.6628 26.5879 15.4167 26.3418 15.116C26.0957 14.8113 25.9336 14.4929 25.8555 14.1609C25.7422 13.6687 25.6855 12.9421 25.6855 11.9812V7.39917ZM34.375 7.39917H37.8086C38.4883 7.39917 38.9941 7.42847 39.3262 7.48706C39.6621 7.54175 39.9609 7.65894 40.2227 7.83862C40.4883 8.01831 40.709 8.25854 40.8848 8.55933C41.0605 8.8562 41.1484 9.19019 41.1484 9.56128C41.1484 9.96362 41.0391 10.3328 40.8203 10.6687C40.6055 11.0046 40.3125 11.2566 39.9414 11.4246C40.4648 11.5769 40.8672 11.8367 41.1484 12.2039C41.4297 12.571 41.5703 13.0027 41.5703 13.4988C41.5703 13.8894 41.4785 14.2703 41.2949 14.6414C41.1152 15.0085 40.8672 15.3035 40.5508 15.5261C40.2383 15.7449 39.8516 15.8796 39.3906 15.9304C39.1016 15.9617 38.4043 15.9812 37.2988 15.989H34.375V7.39917ZM36.1094 8.82886V10.8152H37.2461C37.9219 10.8152 38.3418 10.8054 38.5059 10.7859C38.8027 10.7507 39.0352 10.6492 39.2031 10.4812C39.375 10.3093 39.4609 10.0847 39.4609 9.80737C39.4609 9.54175 39.3867 9.3269 39.2383 9.16284C39.0938 8.99487 38.877 8.89331 38.5879 8.85815C38.416 8.83862 37.9219 8.82886 37.1055 8.82886H36.1094ZM36.1094 12.2449V14.5417H37.7148C38.3398 14.5417 38.7363 14.5242 38.9043 14.489C39.1621 14.4421 39.3711 14.3289 39.5312 14.1492C39.6953 13.9656 39.7773 13.7214 39.7773 13.4167C39.7773 13.1589 39.7148 12.9402 39.5898 12.7605C39.4648 12.5808 39.2832 12.45 39.0449 12.3679C38.8105 12.2859 38.2988 12.2449 37.5098 12.2449H36.1094ZM43.041 15.989V7.39917H49.4102V8.85229H44.7754V10.7566H49.0879V12.2039H44.7754V14.5417H49.5742V15.989H43.041ZM56.2422 14.4597V15.989H50.4707C50.5332 15.4109 50.7207 14.864 51.0332 14.3484C51.3457 13.8289 51.9629 13.1414 52.8848 12.2859C53.627 11.5945 54.082 11.1257 54.25 10.8796C54.4766 10.5398 54.5898 10.2039 54.5898 9.87183C54.5898 9.50464 54.4902 9.22339 54.291 9.02808C54.0957 8.82886 53.8242 8.72925 53.4766 8.72925C53.1328 8.72925 52.8594 8.83276 52.6562 9.03979C52.4531 9.24683 52.3359 9.59058 52.3047 10.071L50.6641 9.90698C50.7617 9.00073 51.0684 8.35034 51.584 7.95581C52.0996 7.56128 52.7441 7.36401 53.5176 7.36401C54.3652 7.36401 55.0312 7.59253 55.5156 8.04956C56 8.50659 56.2422 9.07495 56.2422 9.75464C56.2422 10.1414 56.1719 10.5105 56.0312 10.8621C55.8945 11.2097 55.6758 11.575 55.375 11.9578C55.1758 12.2117 54.8164 12.5769 54.2969 13.0535C53.7773 13.53 53.4473 13.8464 53.3066 14.0027C53.1699 14.1589 53.0586 14.3113 52.9727 14.4597H56.2422Z" fill="white"/>
<defs>
<linearGradient id="paint0_linear_67_1880" x1="32.5" y1="1.98901" x2="32.5" y2="21.989" gradientUnits="userSpaceOnUse">
<stop stop-color="#FF3419"/>
<stop offset="1" stop-color="#FA8072"/>
</linearGradient>
</defs>
</svg>
