<svg width="51" height="24" viewBox="0 0 51 24" fill="none" xmlns="http://www.w3.org/2000/svg">
<rect x="2" y="1.98901" width="48" height="20" rx="10" fill="url(#paint0_linear_33_1393)"/>
<rect x="2" y="1.98901" width="48" height="20" rx="10" stroke="#EA7439" stroke-width="3" stroke-linejoin="round"/>
<path d="M17.9434 15.989H16.0566L15.3066 14.0378H11.873L11.1641 15.989H9.32422L12.6699 7.39917H14.5039L17.9434 15.989ZM14.75 12.5906L13.5664 9.40308L12.4062 12.5906H14.75ZM24.3652 12.8308L26.0469 13.364C25.7891 14.3015 25.3594 14.9988 24.7578 15.4558C24.1602 15.9089 23.4004 16.1355 22.4785 16.1355C21.3379 16.1355 20.4004 15.7468 19.666 14.9695C18.9316 14.1882 18.5645 13.1218 18.5645 11.7703C18.5645 10.3406 18.9336 9.2312 19.6719 8.44214C20.4102 7.64917 21.3809 7.25269 22.584 7.25269C23.6348 7.25269 24.4883 7.56323 25.1445 8.18433C25.5352 8.55151 25.8281 9.07886 26.0234 9.76636L24.3066 10.1765C24.2051 9.7312 23.9922 9.37964 23.668 9.12183C23.3477 8.86401 22.957 8.73511 22.4961 8.73511C21.8594 8.73511 21.3418 8.96362 20.9434 9.42065C20.5488 9.87769 20.3516 10.6179 20.3516 11.6414C20.3516 12.7273 20.5469 13.5007 20.9375 13.9617C21.3281 14.4226 21.8359 14.6531 22.4609 14.6531C22.9219 14.6531 23.3184 14.5066 23.6504 14.2136C23.9824 13.9207 24.2207 13.4597 24.3652 12.8308ZM29.4746 15.989V8.85229H26.9258V7.39917H33.752V8.85229H31.209V15.989H29.4746ZM34.8828 15.989V7.39917H36.6172V10.78H40.0156V7.39917H41.75V15.989H40.0156V12.2332H36.6172V15.989H34.8828Z" fill="white"/>
<defs>
<linearGradient id="paint0_linear_33_1393" x1="26" y1="1.98901" x2="26" y2="21.989" gradientUnits="userSpaceOnUse">
<stop stop-color="#EA7439"/>
<stop offset="1" stop-color="#3B0030"/>
</linearGradient>
</defs>
</svg>
