<svg width="68" height="24" viewBox="0 0 68 24" fill="none" xmlns="http://www.w3.org/2000/svg">
<rect x="1" y="1.98901" width="66" height="20" rx="10" fill="url(#paint0_linear_52_1874)"/>
<rect x="1" y="1.98901" width="66" height="20" rx="10" stroke="#D7A551" stroke-width="3" stroke-linejoin="round"/>
<path d="M9.16797 15.989V7.39917H11.7637L13.3223 13.2585L14.8633 7.39917H17.4648V15.989H15.8535V9.22729L14.1484 15.989H12.4785L10.7793 9.22729V15.989H9.16797ZM26.9336 15.989H25.0469L24.2969 14.0378H20.8633L20.1543 15.989H18.3145L21.6602 7.39917H23.4941L26.9336 15.989ZM23.7402 12.5906L22.5566 9.40308L21.3965 12.5906H23.7402ZM31.8555 12.8308V11.3835H35.5938V14.8054C35.2305 15.157 34.7031 15.4675 34.0117 15.7371C33.3242 16.0027 32.627 16.1355 31.9199 16.1355C31.0215 16.1355 30.2383 15.948 29.5703 15.573C28.9023 15.1941 28.4004 14.655 28.0645 13.9558C27.7285 13.2527 27.5605 12.489 27.5605 11.6648C27.5605 10.7703 27.748 9.97534 28.123 9.28003C28.498 8.58472 29.0469 8.05151 29.7695 7.68042C30.3203 7.39526 31.0059 7.25269 31.8262 7.25269C32.8926 7.25269 33.7246 7.47729 34.3223 7.92651C34.9238 8.37183 35.3105 8.98901 35.4824 9.77808L33.7598 10.1003C33.6387 9.67847 33.4102 9.34644 33.0742 9.10425C32.7422 8.85815 32.3262 8.73511 31.8262 8.73511C31.0684 8.73511 30.4648 8.97534 30.0156 9.45581C29.5703 9.93628 29.3477 10.6492 29.3477 11.5945C29.3477 12.614 29.5742 13.3796 30.0273 13.8914C30.4805 14.3992 31.0742 14.6531 31.8086 14.6531C32.1719 14.6531 32.5352 14.5828 32.8984 14.4421C33.2656 14.2976 33.5801 14.1238 33.8418 13.9207V12.8308H31.8555ZM37.1992 15.989V7.39917H43.5684V8.85229H38.9336V10.7566H43.2461V12.2039H38.9336V14.5417H43.7324V15.989H37.1992ZM45.1973 7.39917H48.3672C49.082 7.39917 49.627 7.45386 50.002 7.56323C50.5059 7.71167 50.9375 7.97534 51.2969 8.35425C51.6562 8.73315 51.9297 9.198 52.1172 9.74878C52.3047 10.2957 52.3984 10.9714 52.3984 11.7761C52.3984 12.4832 52.3105 13.0925 52.1348 13.6042C51.9199 14.2292 51.6133 14.7351 51.2148 15.1218C50.9141 15.4148 50.5078 15.6433 49.9961 15.8074C49.6133 15.9285 49.1016 15.989 48.4609 15.989H45.1973V7.39917ZM46.9316 8.85229V14.5417H48.2266C48.7109 14.5417 49.0605 14.5144 49.2754 14.4597C49.5566 14.3894 49.7891 14.2703 49.9727 14.1023C50.1602 13.9343 50.3125 13.6589 50.4297 13.2761C50.5469 12.8894 50.6055 12.364 50.6055 11.7C50.6055 11.0359 50.5469 10.5261 50.4297 10.1707C50.3125 9.81519 50.1484 9.53784 49.9375 9.33862C49.7266 9.1394 49.459 9.00464 49.1348 8.93433C48.8926 8.87964 48.418 8.85229 47.7109 8.85229H46.9316ZM57.7246 15.989H56.0781V9.78394C55.4766 10.3464 54.7676 10.7625 53.9512 11.032V9.53784C54.3809 9.39722 54.8477 9.13159 55.3516 8.74097C55.8555 8.34644 56.2012 7.88745 56.3887 7.36401H57.7246V15.989Z" fill="white"/>
<defs>
<linearGradient id="paint0_linear_52_1874" x1="34" y1="1.98901" x2="34" y2="21.989" gradientUnits="userSpaceOnUse">
<stop stop-color="#6821BF"/>
<stop offset="1" stop-color="#D7A551"/>
</linearGradient>
</defs>
</svg>
