<svg width="42" height="24" viewBox="0 0 42 24" fill="none" xmlns="http://www.w3.org/2000/svg">
<rect x="2" y="1.98901" width="39" height="20" rx="10" fill="url(#paint0_linear_50_1822)"/>
<rect x="2" y="1.98901" width="39" height="20" rx="10" stroke="#FDDA00" stroke-width="3" stroke-linejoin="round"/>
<path d="M13.4609 7.39917H15.1895V12.8367C15.1895 13.5476 15.127 14.0945 15.002 14.4773C14.834 14.9773 14.5293 15.3796 14.0879 15.6843C13.6465 15.9851 13.0645 16.1355 12.3418 16.1355C11.4941 16.1355 10.8418 15.8992 10.3848 15.4265C9.92773 14.95 9.69727 14.2527 9.69336 13.3347L11.3281 13.1472C11.3477 13.6394 11.4199 13.9871 11.5449 14.1902C11.7324 14.4988 12.0176 14.6531 12.4004 14.6531C12.7871 14.6531 13.0605 14.5437 13.2207 14.325C13.3809 14.1023 13.4609 13.6433 13.4609 12.948V7.39917ZM17.0293 7.39917H18.7637V12.0515C18.7637 12.7898 18.7852 13.2683 18.8281 13.4871C18.9023 13.8386 19.0781 14.1218 19.3555 14.3367C19.6367 14.5476 20.0195 14.6531 20.5039 14.6531C20.9961 14.6531 21.3672 14.5535 21.6172 14.3542C21.8672 14.1511 22.0176 13.9031 22.0684 13.6101C22.1191 13.3171 22.1445 12.8308 22.1445 12.1511V7.39917H23.8789V11.9109C23.8789 12.9421 23.832 13.6707 23.7383 14.0964C23.6445 14.5222 23.4707 14.8816 23.2168 15.1746C22.9668 15.4675 22.6309 15.7019 22.209 15.8777C21.7871 16.0496 21.2363 16.1355 20.5566 16.1355C19.7363 16.1355 19.1133 16.0417 18.6875 15.8542C18.2656 15.6628 17.9316 15.4167 17.6855 15.116C17.4395 14.8113 17.2773 14.4929 17.1992 14.1609C17.0859 13.6687 17.0293 12.9421 17.0293 11.9812V7.39917ZM25.7305 15.989V7.39917H27.418L30.9336 13.1355V7.39917H32.5449V15.989H30.8047L27.3418 10.3875V15.989H25.7305Z" fill="white"/>
<defs>
<linearGradient id="paint0_linear_50_1822" x1="21.5" y1="1.98901" x2="21.5" y2="21.989" gradientUnits="userSpaceOnUse">
<stop stop-color="#FDDA00"/>
<stop offset="1" stop-color="#EE3A87"/>
</linearGradient>
</defs>
</svg>
