<svg width="56" height="24" viewBox="0 0 56 24" fill="none" xmlns="http://www.w3.org/2000/svg">
<rect x="2" y="1.98901" width="53" height="20" rx="10" fill="url(#paint0_linear_35_1436)"/>
<rect x="2" y="1.98901" width="53" height="20" rx="10" stroke="#B80000" stroke-width="3" stroke-linejoin="round"/>
<path d="M17.8828 15.989H15.9961L15.2461 14.0378H11.8125L11.1035 15.989H9.26367L12.6094 7.39917H14.4434L17.8828 15.989ZM14.6895 12.5906L13.5059 9.40308L12.3457 12.5906H14.6895ZM18.8086 15.989V7.39917H21.5918C22.6465 7.39917 23.334 7.44214 23.6543 7.52808C24.1465 7.65698 24.5586 7.93823 24.8906 8.37183C25.2227 8.80151 25.3887 9.35815 25.3887 10.0417C25.3887 10.5691 25.293 11.0125 25.1016 11.3718C24.9102 11.7312 24.666 12.0144 24.3691 12.2214C24.0762 12.4246 23.7773 12.5593 23.4727 12.6257C23.0586 12.7078 22.459 12.7488 21.6738 12.7488H20.543V15.989H18.8086ZM20.543 8.85229V11.2898H21.4922C22.1758 11.2898 22.6328 11.2449 22.8633 11.155C23.0938 11.0652 23.2734 10.9246 23.4023 10.7332C23.5352 10.5417 23.6016 10.3191 23.6016 10.0652C23.6016 9.75269 23.5098 9.49487 23.3262 9.29175C23.1426 9.08862 22.9102 8.96167 22.6289 8.91089C22.4219 8.87183 22.0059 8.85229 21.3809 8.85229H20.543ZM33.668 15.989H31.7812L31.0312 14.0378H27.5977L26.8887 15.989H25.0488L28.3945 7.39917H30.2285L33.668 15.989ZM30.4746 12.5906L29.291 9.40308L28.1309 12.5906H30.4746ZM34.6055 15.989V7.39917H40.4941V8.85229H36.3398V10.8855H39.9258V12.3386H36.3398V15.989H34.6055ZM45.7793 15.989H44.1328V9.78394C43.5312 10.3464 42.8223 10.7625 42.0059 11.032V9.53784C42.4355 9.39722 42.9023 9.13159 43.4062 8.74097C43.9102 8.34644 44.2559 7.88745 44.4434 7.36401H45.7793V15.989Z" fill="white"/>
<defs>
<linearGradient id="paint0_linear_35_1436" x1="28.5" y1="1.98901" x2="28.5" y2="21.989" gradientUnits="userSpaceOnUse">
<stop stop-color="#B80000"/>
<stop offset="1" stop-color="#42004A"/>
</linearGradient>
</defs>
</svg>
