<svg width="56" height="24" viewBox="0 0 56 24" fill="none" xmlns="http://www.w3.org/2000/svg">
<rect x="2" y="1.98901" width="53" height="20" rx="10" fill="url(#paint0_linear_35_1422)"/>
<rect x="2" y="1.98901" width="53" height="20" rx="10" stroke="#008F6D" stroke-width="3" stroke-linejoin="round"/>
<path d="M18.1055 15.989H16.2188L15.4688 14.0378H12.0352L11.3262 15.989H9.48633L12.832 7.39917H14.666L18.1055 15.989ZM14.9121 12.5906L13.7285 9.40308L12.5684 12.5906H14.9121ZM18.9785 15.989V7.39917H20.7129V15.989H18.9785ZM27.8672 12.8308L29.5488 13.364C29.291 14.3015 28.8613 14.9988 28.2598 15.4558C27.6621 15.9089 26.9023 16.1355 25.9805 16.1355C24.8398 16.1355 23.9023 15.7468 23.168 14.9695C22.4336 14.1882 22.0664 13.1218 22.0664 11.7703C22.0664 10.3406 22.4355 9.2312 23.1738 8.44214C23.9121 7.64917 24.8828 7.25269 26.0859 7.25269C27.1367 7.25269 27.9902 7.56323 28.6465 8.18433C29.0371 8.55151 29.3301 9.07886 29.5254 9.76636L27.8086 10.1765C27.707 9.7312 27.4941 9.37964 27.1699 9.12183C26.8496 8.86401 26.459 8.73511 25.998 8.73511C25.3613 8.73511 24.8438 8.96362 24.4453 9.42065C24.0508 9.87769 23.8535 10.6179 23.8535 11.6414C23.8535 12.7273 24.0488 13.5007 24.4395 13.9617C24.8301 14.4226 25.3379 14.6531 25.9629 14.6531C26.4238 14.6531 26.8203 14.5066 27.1523 14.2136C27.4844 13.9207 27.7227 13.4597 27.8672 12.8308ZM31.0371 7.39917H34.207C34.9219 7.39917 35.4668 7.45386 35.8418 7.56323C36.3457 7.71167 36.7773 7.97534 37.1367 8.35425C37.4961 8.73315 37.7695 9.198 37.957 9.74878C38.1445 10.2957 38.2383 10.9714 38.2383 11.7761C38.2383 12.4832 38.1504 13.0925 37.9746 13.6042C37.7598 14.2292 37.4531 14.7351 37.0547 15.1218C36.7539 15.4148 36.3477 15.6433 35.8359 15.8074C35.4531 15.9285 34.9414 15.989 34.3008 15.989H31.0371V7.39917ZM32.7715 8.85229V14.5417H34.0664C34.5508 14.5417 34.9004 14.5144 35.1152 14.4597C35.3965 14.3894 35.6289 14.2703 35.8125 14.1023C36 13.9343 36.1523 13.6589 36.2695 13.2761C36.3867 12.8894 36.4453 12.364 36.4453 11.7C36.4453 11.0359 36.3867 10.5261 36.2695 10.1707C36.1523 9.81519 35.9883 9.53784 35.7773 9.33862C35.5664 9.1394 35.2988 9.00464 34.9746 8.93433C34.7324 8.87964 34.2578 8.85229 33.5508 8.85229H32.7715ZM47.4609 15.989H45.5742L44.8242 14.0378H41.3906L40.6816 15.989H38.8418L42.1875 7.39917H44.0215L47.4609 15.989ZM44.2676 12.5906L43.084 9.40308L41.9238 12.5906H44.2676Z" fill="white"/>
<defs>
<linearGradient id="paint0_linear_35_1422" x1="28.5" y1="1.98901" x2="28.5" y2="21.989" gradientUnits="userSpaceOnUse">
<stop stop-color="#768A45"/>
<stop offset="1" stop-color="#008F6D"/>
</linearGradient>
</defs>
</svg>
