<svg width="71" height="24" viewBox="0 0 71 24" fill="none" xmlns="http://www.w3.org/2000/svg">
<rect x="1" y="1.98901" width="69" height="20" rx="10" fill="url(#paint0_linear_85_2093)"/>
<rect x="1" y="1.98901" width="69" height="20" rx="10" stroke="#D0AEB7" stroke-width="3" stroke-linejoin="round"/>
<path d="M8.99805 7.39917H10.7324V12.0515C10.7324 12.7898 10.7539 13.2683 10.7969 13.4871C10.8711 13.8386 11.0469 14.1218 11.3242 14.3367C11.6055 14.5476 11.9883 14.6531 12.4727 14.6531C12.9648 14.6531 13.3359 14.5535 13.5859 14.3542C13.8359 14.1511 13.9863 13.9031 14.0371 13.6101C14.0879 13.3171 14.1133 12.8308 14.1133 12.1511V7.39917H15.8477V11.9109C15.8477 12.9421 15.8008 13.6707 15.707 14.0964C15.6133 14.5222 15.4395 14.8816 15.1855 15.1746C14.9355 15.4675 14.5996 15.7019 14.1777 15.8777C13.7559 16.0496 13.2051 16.1355 12.5254 16.1355C11.7051 16.1355 11.082 16.0417 10.6562 15.8542C10.2344 15.6628 9.90039 15.4167 9.6543 15.116C9.4082 14.8113 9.24609 14.4929 9.16797 14.1609C9.05469 13.6687 8.99805 12.9421 8.99805 11.9812V7.39917ZM17.6992 15.989V7.39917H19.3867L22.9023 13.1355V7.39917H24.5137V15.989H22.7734L19.3105 10.3875V15.989H17.6992ZM31.8496 12.8308L33.5312 13.364C33.2734 14.3015 32.8438 14.9988 32.2422 15.4558C31.6445 15.9089 30.8848 16.1355 29.9629 16.1355C28.8223 16.1355 27.8848 15.7468 27.1504 14.9695C26.416 14.1882 26.0488 13.1218 26.0488 11.7703C26.0488 10.3406 26.418 9.2312 27.1562 8.44214C27.8945 7.64917 28.8652 7.25269 30.0684 7.25269C31.1191 7.25269 31.9727 7.56323 32.6289 8.18433C33.0195 8.55151 33.3125 9.07886 33.5078 9.76636L31.791 10.1765C31.6895 9.7312 31.4766 9.37964 31.1523 9.12183C30.832 8.86401 30.4414 8.73511 29.9805 8.73511C29.3438 8.73511 28.8262 8.96362 28.4277 9.42065C28.0332 9.87769 27.8359 10.6179 27.8359 11.6414C27.8359 12.7273 28.0312 13.5007 28.4219 13.9617C28.8125 14.4226 29.3203 14.6531 29.9453 14.6531C30.4062 14.6531 30.8027 14.5066 31.1348 14.2136C31.4668 13.9207 31.7051 13.4597 31.8496 12.8308ZM34.6973 14.0027L36.291 13.8269C36.3301 14.1511 36.4316 14.3914 36.5957 14.5476C36.7598 14.7039 36.9766 14.782 37.2461 14.782C37.5859 14.782 37.875 14.6257 38.1133 14.3132C38.3516 14.0007 38.5039 13.3523 38.5703 12.3679C38.1562 12.8484 37.6387 13.0886 37.0176 13.0886C36.3418 13.0886 35.7578 12.8289 35.2656 12.3093C34.7773 11.7859 34.5332 11.1062 34.5332 10.2703C34.5332 9.39917 34.791 8.698 35.3066 8.16675C35.8262 7.63159 36.4863 7.36401 37.2871 7.36401C38.1582 7.36401 38.873 7.7019 39.4316 8.37769C39.9902 9.04956 40.2695 10.157 40.2695 11.7C40.2695 13.2703 39.9785 14.4031 39.3965 15.0984C38.8145 15.7937 38.0566 16.1414 37.123 16.1414C36.4512 16.1414 35.9082 15.9636 35.4941 15.6082C35.0801 15.2488 34.8145 14.7136 34.6973 14.0027ZM38.4238 10.405C38.4238 9.87378 38.3008 9.46167 38.0547 9.1687C37.8125 8.87573 37.5312 8.72925 37.2109 8.72925C36.9062 8.72925 36.6523 8.85034 36.4492 9.09253C36.25 9.33081 36.1504 9.72339 36.1504 10.2703C36.1504 10.825 36.2598 11.2332 36.4785 11.4949C36.6973 11.7527 36.9707 11.8816 37.2988 11.8816C37.6152 11.8816 37.8809 11.7566 38.0957 11.5066C38.3145 11.2566 38.4238 10.8894 38.4238 10.405ZM41.2832 13.7097L42.877 13.5164C42.9277 13.9226 43.0645 14.2332 43.2871 14.448C43.5098 14.6628 43.7793 14.7703 44.0957 14.7703C44.4355 14.7703 44.7207 14.6414 44.9512 14.3835C45.1855 14.1257 45.3027 13.7781 45.3027 13.3406C45.3027 12.9265 45.1914 12.5984 44.9688 12.3562C44.7461 12.114 44.4746 11.9929 44.1543 11.9929C43.9434 11.9929 43.6914 12.0339 43.3984 12.116L43.5801 10.7742C44.0254 10.7859 44.3652 10.6902 44.5996 10.4871C44.834 10.28 44.9512 10.0066 44.9512 9.66675C44.9512 9.37769 44.8652 9.14722 44.6934 8.97534C44.5215 8.80347 44.293 8.71753 44.0078 8.71753C43.7266 8.71753 43.4863 8.81519 43.2871 9.0105C43.0879 9.20581 42.9668 9.49097 42.9238 9.86597L41.4062 9.60815C41.5117 9.08862 41.6699 8.67456 41.8809 8.36597C42.0957 8.05347 42.3926 7.80933 42.7715 7.63354C43.1543 7.45386 43.582 7.36401 44.0547 7.36401C44.8633 7.36401 45.5117 7.62183 46 8.13745C46.4023 8.55933 46.6035 9.03589 46.6035 9.56714C46.6035 10.321 46.1914 10.9226 45.3672 11.3718C45.8594 11.4773 46.252 11.7136 46.5449 12.0808C46.8418 12.448 46.9902 12.8914 46.9902 13.4109C46.9902 14.1648 46.7148 14.8074 46.1641 15.3386C45.6133 15.8699 44.9277 16.1355 44.1074 16.1355C43.3301 16.1355 42.6855 15.9128 42.1738 15.4675C41.6621 15.0183 41.3652 14.4324 41.2832 13.7097ZM48.3906 7.39917H51.8242C52.5039 7.39917 53.0098 7.42847 53.3418 7.48706C53.6777 7.54175 53.9766 7.65894 54.2383 7.83862C54.5039 8.01831 54.7246 8.25854 54.9004 8.55933C55.0762 8.8562 55.1641 9.19019 55.1641 9.56128C55.1641 9.96362 55.0547 10.3328 54.8359 10.6687C54.6211 11.0046 54.3281 11.2566 53.957 11.4246C54.4805 11.5769 54.8828 11.8367 55.1641 12.2039C55.4453 12.571 55.5859 13.0027 55.5859 13.4988C55.5859 13.8894 55.4941 14.2703 55.3105 14.6414C55.1309 15.0085 54.8828 15.3035 54.5664 15.5261C54.2539 15.7449 53.8672 15.8796 53.4062 15.9304C53.1172 15.9617 52.4199 15.9812 51.3145 15.989H48.3906V7.39917ZM50.125 8.82886V10.8152H51.2617C51.9375 10.8152 52.3574 10.8054 52.5215 10.7859C52.8184 10.7507 53.0508 10.6492 53.2188 10.4812C53.3906 10.3093 53.4766 10.0847 53.4766 9.80737C53.4766 9.54175 53.4023 9.3269 53.2539 9.16284C53.1094 8.99487 52.8926 8.89331 52.6035 8.85815C52.4316 8.83862 51.9375 8.82886 51.1211 8.82886H50.125ZM50.125 12.2449V14.5417H51.7305C52.3555 14.5417 52.752 14.5242 52.9199 14.489C53.1777 14.4421 53.3867 14.3289 53.5469 14.1492C53.7109 13.9656 53.793 13.7214 53.793 13.4167C53.793 13.1589 53.7305 12.9402 53.6055 12.7605C53.4805 12.5808 53.2988 12.45 53.0605 12.3679C52.8262 12.2859 52.3145 12.2449 51.5254 12.2449H50.125ZM60.9062 15.989H59.2598V9.78394C58.6582 10.3464 57.9492 10.7625 57.1328 11.032V9.53784C57.5625 9.39722 58.0293 9.13159 58.5332 8.74097C59.0371 8.34644 59.3828 7.88745 59.5703 7.36401H60.9062V15.989Z" fill="white"/>
<defs>
<linearGradient id="paint0_linear_85_2093" x1="35.5" y1="1.98901" x2="35.5" y2="21.989" gradientUnits="userSpaceOnUse">
<stop stop-color="#D0AEB7"/>
<stop offset="1" stop-color="#BC000A"/>
</linearGradient>
</defs>
</svg>
