<svg width="51" height="24" viewBox="0 0 51 24" fill="none" xmlns="http://www.w3.org/2000/svg">
<rect x="2" y="1.98901" width="48" height="20" rx="10" fill="url(#paint0_linear_38_1879)"/>
<rect x="2" y="1.98901" width="48" height="20" rx="10" stroke="#5AB1F3" stroke-width="3" stroke-linejoin="round"/>
<path d="M15.6875 12.8308L17.3691 13.364C17.1113 14.3015 16.6816 14.9988 16.0801 15.4558C15.4824 15.9089 14.7227 16.1355 13.8008 16.1355C12.6602 16.1355 11.7227 15.7468 10.9883 14.9695C10.2539 14.1882 9.88672 13.1218 9.88672 11.7703C9.88672 10.3406 10.2559 9.2312 10.9941 8.44214C11.7324 7.64917 12.7031 7.25269 13.9062 7.25269C14.957 7.25269 15.8105 7.56323 16.4668 8.18433C16.8574 8.55151 17.1504 9.07886 17.3457 9.76636L15.6289 10.1765C15.5273 9.7312 15.3145 9.37964 14.9902 9.12183C14.6699 8.86401 14.2793 8.73511 13.8184 8.73511C13.1816 8.73511 12.6641 8.96362 12.2656 9.42065C11.8711 9.87769 11.6738 10.6179 11.6738 11.6414C11.6738 12.7273 11.8691 13.5007 12.2598 13.9617C12.6504 14.4226 13.1582 14.6531 13.7832 14.6531C14.2441 14.6531 14.6406 14.5066 14.9727 14.2136C15.3047 13.9207 15.543 13.4597 15.6875 12.8308ZM22.8594 12.8308V11.3835H26.5977V14.8054C26.2344 15.157 25.707 15.4675 25.0156 15.7371C24.3281 16.0027 23.6309 16.1355 22.9238 16.1355C22.0254 16.1355 21.2422 15.948 20.5742 15.573C19.9062 15.1941 19.4043 14.655 19.0684 13.9558C18.7324 13.2527 18.5645 12.489 18.5645 11.6648C18.5645 10.7703 18.752 9.97534 19.127 9.28003C19.502 8.58472 20.0508 8.05151 20.7734 7.68042C21.3242 7.39526 22.0098 7.25269 22.8301 7.25269C23.8965 7.25269 24.7285 7.47729 25.3262 7.92651C25.9277 8.37183 26.3145 8.98901 26.4863 9.77808L24.7637 10.1003C24.6426 9.67847 24.4141 9.34644 24.0781 9.10425C23.7461 8.85815 23.3301 8.73511 22.8301 8.73511C22.0723 8.73511 21.4688 8.97534 21.0195 9.45581C20.5742 9.93628 20.3516 10.6492 20.3516 11.5945C20.3516 12.614 20.5781 13.3796 21.0312 13.8914C21.4844 14.3992 22.0781 14.6531 22.8125 14.6531C23.1758 14.6531 23.5391 14.5828 23.9023 14.4421C24.2695 14.2976 24.584 14.1238 24.8457 13.9207V12.8308H22.8594ZM28.209 7.39917H31.6426C32.3223 7.39917 32.8281 7.42847 33.1602 7.48706C33.4961 7.54175 33.7949 7.65894 34.0566 7.83862C34.3223 8.01831 34.543 8.25854 34.7188 8.55933C34.8945 8.8562 34.9824 9.19019 34.9824 9.56128C34.9824 9.96362 34.873 10.3328 34.6543 10.6687C34.4395 11.0046 34.1465 11.2566 33.7754 11.4246C34.2988 11.5769 34.7012 11.8367 34.9824 12.2039C35.2637 12.571 35.4043 13.0027 35.4043 13.4988C35.4043 13.8894 35.3125 14.2703 35.1289 14.6414C34.9492 15.0085 34.7012 15.3035 34.3848 15.5261C34.0723 15.7449 33.6855 15.8796 33.2246 15.9304C32.9355 15.9617 32.2383 15.9812 31.1328 15.989H28.209V7.39917ZM29.9434 8.82886V10.8152H31.0801C31.7559 10.8152 32.1758 10.8054 32.3398 10.7859C32.6367 10.7507 32.8691 10.6492 33.0371 10.4812C33.209 10.3093 33.2949 10.0847 33.2949 9.80737C33.2949 9.54175 33.2207 9.3269 33.0723 9.16284C32.9277 8.99487 32.7109 8.89331 32.4219 8.85815C32.25 8.83862 31.7559 8.82886 30.9395 8.82886H29.9434ZM29.9434 12.2449V14.5417H31.5488C32.1738 14.5417 32.5703 14.5242 32.7383 14.489C32.9961 14.4421 33.2051 14.3289 33.3652 14.1492C33.5293 13.9656 33.6113 13.7214 33.6113 13.4167C33.6113 13.1589 33.5488 12.9402 33.4238 12.7605C33.2988 12.5808 33.1172 12.45 32.8789 12.3679C32.6445 12.2859 32.1328 12.2449 31.3438 12.2449H29.9434ZM36.4531 13.7097L38.0469 13.5164C38.0977 13.9226 38.2344 14.2332 38.457 14.448C38.6797 14.6628 38.9492 14.7703 39.2656 14.7703C39.6055 14.7703 39.8906 14.6414 40.1211 14.3835C40.3555 14.1257 40.4727 13.7781 40.4727 13.3406C40.4727 12.9265 40.3613 12.5984 40.1387 12.3562C39.916 12.114 39.6445 11.9929 39.3242 11.9929C39.1133 11.9929 38.8613 12.0339 38.5684 12.116L38.75 10.7742C39.1953 10.7859 39.5352 10.6902 39.7695 10.4871C40.0039 10.28 40.1211 10.0066 40.1211 9.66675C40.1211 9.37769 40.0352 9.14722 39.8633 8.97534C39.6914 8.80347 39.4629 8.71753 39.1777 8.71753C38.8965 8.71753 38.6562 8.81519 38.457 9.0105C38.2578 9.20581 38.1367 9.49097 38.0938 9.86597L36.5762 9.60815C36.6816 9.08862 36.8398 8.67456 37.0508 8.36597C37.2656 8.05347 37.5625 7.80933 37.9414 7.63354C38.3242 7.45386 38.752 7.36401 39.2246 7.36401C40.0332 7.36401 40.6816 7.62183 41.1699 8.13745C41.5723 8.55933 41.7734 9.03589 41.7734 9.56714C41.7734 10.321 41.3613 10.9226 40.5371 11.3718C41.0293 11.4773 41.4219 11.7136 41.7148 12.0808C42.0117 12.448 42.1602 12.8914 42.1602 13.4109C42.1602 14.1648 41.8848 14.8074 41.334 15.3386C40.7832 15.8699 40.0977 16.1355 39.2773 16.1355C38.5 16.1355 37.8555 15.9128 37.3438 15.4675C36.832 15.0183 36.5352 14.4324 36.4531 13.7097Z" fill="white"/>
<defs>
<linearGradient id="paint0_linear_38_1879" x1="26" y1="1.98901" x2="26" y2="21.989" gradientUnits="userSpaceOnUse">
<stop stop-color="#5AB1F3"/>
<stop offset="1" stop-color="#B6D8F3"/>
</linearGradient>
</defs>
</svg>
