<svg width="44" height="24" viewBox="0 0 44 24" fill="none" xmlns="http://www.w3.org/2000/svg">
<rect x="2" y="1.98901" width="41" height="20" rx="10" fill="url(#paint0_linear_44_4215)"/>
<rect x="2" y="1.98901" width="41" height="20" rx="10" stroke="#118950" stroke-width="3" stroke-linejoin="round"/>
<path d="M14.0273 12.8308V11.3835H17.7656V14.8054C17.4023 15.157 16.875 15.4675 16.1836 15.7371C15.4961 16.0027 14.7988 16.1355 14.0918 16.1355C13.1934 16.1355 12.4102 15.948 11.7422 15.573C11.0742 15.1941 10.5723 14.655 10.2363 13.9558C9.90039 13.2527 9.73242 12.489 9.73242 11.6648C9.73242 10.7703 9.91992 9.97534 10.2949 9.28003C10.6699 8.58472 11.2188 8.05151 11.9414 7.68042C12.4922 7.39526 13.1777 7.25269 13.998 7.25269C15.0645 7.25269 15.8965 7.47729 16.4941 7.92651C17.0957 8.37183 17.4824 8.98901 17.6543 9.77808L15.9316 10.1003C15.8105 9.67847 15.582 9.34644 15.2461 9.10425C14.9141 8.85815 14.498 8.73511 13.998 8.73511C13.2402 8.73511 12.6367 8.97534 12.1875 9.45581C11.7422 9.93628 11.5195 10.6492 11.5195 11.5945C11.5195 12.614 11.7461 13.3796 12.1992 13.8914C12.6523 14.3992 13.2461 14.6531 13.9805 14.6531C14.3438 14.6531 14.707 14.5828 15.0703 14.4421C15.4375 14.2976 15.752 14.1238 16.0137 13.9207V12.8308H14.0273ZM24.8672 12.8308L26.5488 13.364C26.291 14.3015 25.8613 14.9988 25.2598 15.4558C24.6621 15.9089 23.9023 16.1355 22.9805 16.1355C21.8398 16.1355 20.9023 15.7468 20.168 14.9695C19.4336 14.1882 19.0664 13.1218 19.0664 11.7703C19.0664 10.3406 19.4355 9.2312 20.1738 8.44214C20.9121 7.64917 21.8828 7.25269 23.0859 7.25269C24.1367 7.25269 24.9902 7.56323 25.6465 8.18433C26.0371 8.55151 26.3301 9.07886 26.5254 9.76636L24.8086 10.1765C24.707 9.7312 24.4941 9.37964 24.1699 9.12183C23.8496 8.86401 23.459 8.73511 22.998 8.73511C22.3613 8.73511 21.8438 8.96362 21.4453 9.42065C21.0508 9.87769 20.8535 10.6179 20.8535 11.6414C20.8535 12.7273 21.0488 13.5007 21.4395 13.9617C21.8301 14.4226 22.3379 14.6531 22.9629 14.6531C23.4238 14.6531 23.8203 14.5066 24.1523 14.2136C24.4844 13.9207 24.7227 13.4597 24.8672 12.8308ZM28.0664 15.989V7.39917H29.8008V11.2136L33.3047 7.39917H35.6367L32.4023 10.7449L35.8125 15.989H33.5684L31.207 11.9578L29.8008 13.3933V15.989H28.0664Z" fill="white"/>
<defs>
<linearGradient id="paint0_linear_44_4215" x1="22.5" y1="1.98901" x2="22.5" y2="21.989" gradientUnits="userSpaceOnUse">
<stop stop-color="#118950"/>
<stop offset="1" stop-color="#93CC81"/>
</linearGradient>
</defs>
</svg>
