<svg width="17" height="160" viewBox="0 0 17 160" fill="none" xmlns="http://www.w3.org/2000/svg">
<path d="M8.39099 159.444C5.07749 159.444 2.39099 156.758 2.39099 153.444L5.39119 75.9421C5.39119 72.6286 5.07749 69.9421 8.39099 69.9421C11.7045 69.9421 11.3908 72.6286 11.3908 75.9421L14.391 153.444C14.391 156.758 11.7044 159.444 8.39099 159.444Z" fill="url(#paint0_linear_86_3520)"/>
<path d="M13.2336 41.6709C13.2336 63.7557 19.0368 81.6547 13.8599 81.6547H2.92295C-2.25395 81.6547 3.54925 63.7557 3.54925 41.6709C3.54925 19.5861 -2.67705 6.42899 2.92295 1.68719C5.53615 -0.525612 11.2467 -0.525612 13.8599 1.68719C19.4078 6.38489 13.2336 19.5861 13.2336 41.6709Z" fill="url(#paint1_radial_86_3520)"/>
<defs>
<linearGradient id="paint0_linear_86_3520" x1="2.27079" y1="114.693" x2="14.3867" y2="114.693" gradientUnits="userSpaceOnUse">
<stop stop-color="#C4418B"/>
<stop offset="0.1012" stop-color="#E267AC"/>
<stop offset="0.1889" stop-color="#F780C3"/>
<stop offset="0.2412" stop-color="#FF8ACC"/>
<stop offset="0.4464" stop-color="#DB5DA4"/>
<stop offset="0.5957" stop-color="#C4418B"/>
<stop offset="1" stop-color="#4D0A30"/>
</linearGradient>
<radialGradient id="paint1_radial_86_3520" cx="0" cy="0" r="1" gradientUnits="userSpaceOnUse" gradientTransform="translate(6.11735 49.0671) rotate(-90) scale(51.951 12.1802)">
<stop stop-color="#FF8ACC"/>
<stop offset="0.0415" stop-color="#F57EC1"/>
<stop offset="0.1746" stop-color="#DB5DA4"/>
<stop offset="0.2854" stop-color="#CA4892"/>
<stop offset="0.3593" stop-color="#C4418B"/>
<stop offset="1" stop-color="#4D0A30"/>
</radialGradient>
</defs>
</svg>
