<svg width="52" height="24" viewBox="0 0 52 24" fill="none" xmlns="http://www.w3.org/2000/svg">
<rect x="2" y="1.98901" width="49" height="20" rx="10" fill="url(#paint0_linear_67_1899)"/>
<rect x="2" y="1.98901" width="49" height="20" rx="10" stroke="#A900AC" stroke-width="3" stroke-linejoin="round"/>
<path d="M10.3691 15.989V7.39917H14.0195C14.9375 7.39917 15.6035 7.47729 16.0176 7.63354C16.4355 7.78589 16.7695 8.05933 17.0195 8.45386C17.2695 8.84839 17.3945 9.29956 17.3945 9.80737C17.3945 10.4519 17.2051 10.9851 16.8262 11.407C16.4473 11.825 15.8809 12.0886 15.127 12.198C15.502 12.4167 15.8105 12.657 16.0527 12.9187C16.2988 13.1804 16.6289 13.6453 17.043 14.3132L18.0918 15.989H16.0176L14.7637 14.1199C14.3184 13.4519 14.0137 13.032 13.8496 12.8601C13.6855 12.6843 13.5117 12.5652 13.3281 12.5027C13.1445 12.4363 12.8535 12.4031 12.4551 12.4031H12.1035V15.989H10.3691ZM12.1035 11.032H13.3867C14.2188 11.032 14.7383 10.9968 14.9453 10.9265C15.1523 10.8562 15.3145 10.7351 15.4316 10.5632C15.5488 10.3914 15.6074 10.1765 15.6074 9.9187C15.6074 9.62964 15.5293 9.39722 15.373 9.22144C15.2207 9.04175 15.0039 8.92847 14.7227 8.88159C14.582 8.86206 14.1602 8.85229 13.457 8.85229H12.1035V11.032ZM19.041 15.989V7.39917H22.6914C23.6094 7.39917 24.2754 7.47729 24.6895 7.63354C25.1074 7.78589 25.4414 8.05933 25.6914 8.45386C25.9414 8.84839 26.0664 9.29956 26.0664 9.80737C26.0664 10.4519 25.877 10.9851 25.498 11.407C25.1191 11.825 24.5527 12.0886 23.7988 12.198C24.1738 12.4167 24.4824 12.657 24.7246 12.9187C24.9707 13.1804 25.3008 13.6453 25.7148 14.3132L26.7637 15.989H24.6895L23.4355 14.1199C22.9902 13.4519 22.6855 13.032 22.5215 12.8601C22.3574 12.6843 22.1836 12.5652 22 12.5027C21.8164 12.4363 21.5254 12.4031 21.127 12.4031H20.7754V15.989H19.041ZM20.7754 11.032H22.0586C22.8906 11.032 23.4102 10.9968 23.6172 10.9265C23.8242 10.8562 23.9863 10.7351 24.1035 10.5632C24.2207 10.3914 24.2793 10.1765 24.2793 9.9187C24.2793 9.62964 24.2012 9.39722 24.0449 9.22144C23.8926 9.04175 23.6758 8.92847 23.3945 8.88159C23.2539 8.86206 22.832 8.85229 22.1289 8.85229H20.7754V11.032ZM35.4531 15.989H33.5664L32.8164 14.0378H29.3828L28.6738 15.989H26.834L30.1797 7.39917H32.0137L35.4531 15.989ZM32.2598 12.5906L31.0762 9.40308L29.916 12.5906H32.2598ZM35.9395 13.1941L37.627 13.03C37.7285 13.5964 37.9336 14.0125 38.2422 14.2781C38.5547 14.5437 38.9746 14.6765 39.502 14.6765C40.0605 14.6765 40.4805 14.5593 40.7617 14.325C41.0469 14.0867 41.1895 13.8093 41.1895 13.4929C41.1895 13.2898 41.1289 13.1179 41.0078 12.9773C40.8906 12.8328 40.6836 12.7078 40.3867 12.6023C40.1836 12.532 39.7207 12.407 38.998 12.2273C38.0684 11.9968 37.416 11.7136 37.041 11.3777C36.5137 10.905 36.25 10.3289 36.25 9.64917C36.25 9.21167 36.373 8.80347 36.6191 8.42456C36.8691 8.04175 37.2266 7.75073 37.6914 7.55151C38.1602 7.35229 38.7246 7.25269 39.3848 7.25269C40.4629 7.25269 41.2734 7.48901 41.8164 7.96167C42.3633 8.43433 42.6504 9.06519 42.6777 9.85425L40.9434 9.93042C40.8691 9.48901 40.709 9.17261 40.4629 8.9812C40.2207 8.78589 39.8555 8.68823 39.3672 8.68823C38.8633 8.68823 38.4688 8.79175 38.1836 8.99878C38 9.13159 37.9082 9.30933 37.9082 9.53198C37.9082 9.73511 37.9941 9.90894 38.166 10.0535C38.3848 10.2371 38.916 10.4285 39.7598 10.6277C40.6035 10.8269 41.2266 11.0339 41.6289 11.2488C42.0352 11.4597 42.3516 11.7507 42.5781 12.1218C42.8086 12.489 42.9238 12.9441 42.9238 13.4871C42.9238 13.9792 42.7871 14.4402 42.5137 14.8699C42.2402 15.2996 41.8535 15.6199 41.3535 15.8308C40.8535 16.0378 40.2305 16.1414 39.4844 16.1414C38.3984 16.1414 37.5645 15.8914 36.9824 15.3914C36.4004 14.8875 36.0527 14.155 35.9395 13.1941Z" fill="white"/>
<defs>
<linearGradient id="paint0_linear_67_1899" x1="26.5" y1="1.98901" x2="26.5" y2="21.989" gradientUnits="userSpaceOnUse">
<stop stop-color="#A900AC"/>
<stop offset="1" stop-color="#0057C5"/>
</linearGradient>
</defs>
</svg>
