<svg width="49" height="24" viewBox="0 0 49 24" fill="none" xmlns="http://www.w3.org/2000/svg">
<rect x="2" y="1.98901" width="46" height="20" rx="10" fill="url(#paint0_linear_42_2624)"/>
<rect x="2" y="1.98901" width="46" height="20" rx="10" stroke="#AB8616" stroke-width="3" stroke-linejoin="round"/>
<path d="M15.5781 12.8308L17.2598 13.364C17.002 14.3015 16.5723 14.9988 15.9707 15.4558C15.373 15.9089 14.6133 16.1355 13.6914 16.1355C12.5508 16.1355 11.6133 15.7468 10.8789 14.9695C10.1445 14.1882 9.77734 13.1218 9.77734 11.7703C9.77734 10.3406 10.1465 9.2312 10.8848 8.44214C11.623 7.64917 12.5938 7.25269 13.7969 7.25269C14.8477 7.25269 15.7012 7.56323 16.3574 8.18433C16.748 8.55151 17.041 9.07886 17.2363 9.76636L15.5195 10.1765C15.418 9.7312 15.2051 9.37964 14.8809 9.12183C14.5605 8.86401 14.1699 8.73511 13.709 8.73511C13.0723 8.73511 12.5547 8.96362 12.1562 9.42065C11.7617 9.87769 11.5645 10.6179 11.5645 11.6414C11.5645 12.7273 11.7598 13.5007 12.1504 13.9617C12.541 14.4226 13.0488 14.6531 13.6738 14.6531C14.1348 14.6531 14.5312 14.5066 14.8633 14.2136C15.1953 13.9207 15.4336 13.4597 15.5781 12.8308ZM18.7598 15.989V7.39917H22.4102C23.3281 7.39917 23.9941 7.47729 24.4082 7.63354C24.8262 7.78589 25.1602 8.05933 25.4102 8.45386C25.6602 8.84839 25.7852 9.29956 25.7852 9.80737C25.7852 10.4519 25.5957 10.9851 25.2168 11.407C24.8379 11.825 24.2715 12.0886 23.5176 12.198C23.8926 12.4167 24.2012 12.657 24.4434 12.9187C24.6895 13.1804 25.0195 13.6453 25.4336 14.3132L26.4824 15.989H24.4082L23.1543 14.1199C22.709 13.4519 22.4043 13.032 22.2402 12.8601C22.0762 12.6843 21.9023 12.5652 21.7188 12.5027C21.5352 12.4363 21.2441 12.4031 20.8457 12.4031H20.4941V15.989H18.7598ZM20.4941 11.032H21.7773C22.6094 11.032 23.1289 10.9968 23.3359 10.9265C23.543 10.8562 23.7051 10.7351 23.8223 10.5632C23.9395 10.3914 23.998 10.1765 23.998 9.9187C23.998 9.62964 23.9199 9.39722 23.7637 9.22144C23.6113 9.04175 23.3945 8.92847 23.1133 8.88159C22.9727 8.86206 22.5508 8.85229 21.8477 8.85229H20.4941V11.032ZM29.2363 15.989V12.3738L26.0898 7.39917H28.123L30.1445 10.7976L32.125 7.39917H34.123L30.9648 12.3855V15.989H29.2363ZM38.834 15.989H37.1875V9.78394C36.5859 10.3464 35.877 10.7625 35.0605 11.032V9.53784C35.4902 9.39722 35.957 9.13159 36.4609 8.74097C36.9648 8.34644 37.3105 7.88745 37.498 7.36401H38.834V15.989Z" fill="white"/>
<defs>
<linearGradient id="paint0_linear_42_2624" x1="25" y1="1.98901" x2="25" y2="21.989" gradientUnits="userSpaceOnUse">
<stop stop-color="#AB8616"/>
<stop offset="1" stop-color="#C55169"/>
</linearGradient>
</defs>
</svg>
