<svg width="50" height="24" viewBox="0 0 50 24" fill="none" xmlns="http://www.w3.org/2000/svg">
<rect x="2" y="1.98901" width="47" height="20" rx="10" fill="url(#paint0_linear_35_1413)"/>
<rect x="2" y="1.98901" width="47" height="20" rx="10" stroke="#D741CE" stroke-width="3" stroke-linejoin="round"/>
<path d="M18.1055 15.989H16.2188L15.4688 14.0378H12.0352L11.3262 15.989H9.48633L12.832 7.39917H14.666L18.1055 15.989ZM14.9121 12.5906L13.7285 9.40308L12.5684 12.5906H14.9121ZM19.0781 15.989V7.46948H20.8125V14.5417H25.125V15.989H19.0781ZM30.3633 12.8308V11.3835H34.1016V14.8054C33.7383 15.157 33.2109 15.4675 32.5195 15.7371C31.832 16.0027 31.1348 16.1355 30.4277 16.1355C29.5293 16.1355 28.7461 15.948 28.0781 15.573C27.4102 15.1941 26.9082 14.655 26.5723 13.9558C26.2363 13.2527 26.0684 12.489 26.0684 11.6648C26.0684 10.7703 26.2559 9.97534 26.6309 9.28003C27.0059 8.58472 27.5547 8.05151 28.2773 7.68042C28.8281 7.39526 29.5137 7.25269 30.334 7.25269C31.4004 7.25269 32.2324 7.47729 32.8301 7.92651C33.4316 8.37183 33.8184 8.98901 33.9902 9.77808L32.2676 10.1003C32.1465 9.67847 31.918 9.34644 31.582 9.10425C31.25 8.85815 30.834 8.73511 30.334 8.73511C29.5762 8.73511 28.9727 8.97534 28.5234 9.45581C28.0781 9.93628 27.8555 10.6492 27.8555 11.5945C27.8555 12.614 28.082 13.3796 28.5352 13.8914C28.9883 14.3992 29.582 14.6531 30.3164 14.6531C30.6797 14.6531 31.043 14.5828 31.4062 14.4421C31.7734 14.2976 32.0879 14.1238 32.3496 13.9207V12.8308H30.3633ZM36.7559 11.3542C36.3301 11.1746 36.0195 10.9285 35.8242 10.616C35.6328 10.2996 35.5371 9.95386 35.5371 9.57886C35.5371 8.93823 35.7598 8.40894 36.2051 7.99097C36.6543 7.573 37.291 7.36401 38.1152 7.36401C38.9316 7.36401 39.5645 7.573 40.0137 7.99097C40.4668 8.40894 40.6934 8.93823 40.6934 9.57886C40.6934 9.97729 40.5898 10.3328 40.3828 10.6453C40.1758 10.9539 39.8848 11.1902 39.5098 11.3542C39.9863 11.5457 40.3477 11.825 40.5938 12.1921C40.8438 12.5593 40.9688 12.9832 40.9688 13.4636C40.9688 14.2566 40.7148 14.9011 40.207 15.3972C39.7031 15.8933 39.0312 16.1414 38.1914 16.1414C37.4102 16.1414 36.7598 15.9363 36.2402 15.5261C35.627 15.0417 35.3203 14.3777 35.3203 13.5339C35.3203 13.0691 35.4355 12.6433 35.666 12.2566C35.8965 11.866 36.2598 11.5652 36.7559 11.3542ZM37.0957 9.69604C37.0957 10.0242 37.1875 10.28 37.3711 10.4636C37.5586 10.6472 37.8066 10.739 38.1152 10.739C38.4277 10.739 38.6777 10.6472 38.8652 10.4636C39.0527 10.2761 39.1465 10.0183 39.1465 9.69019C39.1465 9.38159 39.0527 9.1355 38.8652 8.9519C38.6816 8.7644 38.4375 8.67065 38.1328 8.67065C37.8164 8.67065 37.5645 8.7644 37.377 8.9519C37.1895 9.1394 37.0957 9.38745 37.0957 9.69604ZM36.9434 13.3757C36.9434 13.8289 37.0586 14.1824 37.2891 14.4363C37.5234 14.6902 37.8145 14.8171 38.1621 14.8171C38.502 14.8171 38.7832 14.696 39.0059 14.4539C39.2285 14.2078 39.3398 13.8542 39.3398 13.3933C39.3398 12.991 39.2266 12.6687 39 12.4265C38.7734 12.1804 38.4863 12.0574 38.1387 12.0574C37.7363 12.0574 37.4355 12.196 37.2363 12.4734C37.041 12.7507 36.9434 13.0515 36.9434 13.3757Z" fill="white"/>
<defs>
<linearGradient id="paint0_linear_35_1413" x1="25.5" y1="1.98901" x2="25.5" y2="21.989" gradientUnits="userSpaceOnUse">
<stop stop-color="#1F7CEA"/>
<stop offset="1" stop-color="#D741CE"/>
</linearGradient>
</defs>
</svg>
