<svg width="17" height="95" viewBox="0 0 17 95" fill="none" xmlns="http://www.w3.org/2000/svg">
<path d="M9.25712 94.145H6.99512C3.12912 94.145 -0.00488281 91.011 -0.00488281 87.145V70.624C-0.00488281 66.758 3.12912 63.624 6.99512 63.624H9.25712C13.1231 63.624 16.2571 66.758 16.2571 70.624V87.145C16.2571 91.011 13.1231 94.145 9.25712 94.145Z" fill="url(#paint0_linear_92_5482)"/>
<path d="M9.62622 54.145H6.62622V63.624H9.62622V54.145Z" fill="#DC9443"/>
<path d="M9.25712 54.1451H6.99512C3.12912 54.1451 -0.00488281 51.0111 -0.00488281 47.1451V43.2134C-0.00488281 39.3474 3.12912 36.2134 6.99512 36.2134H9.25712C13.1231 36.2134 16.2571 39.3474 16.2571 43.2134V47.1451C16.2571 51.0111 13.1231 54.1451 9.25712 54.1451Z" fill="url(#paint1_linear_92_5482)"/>
<path d="M9.25712 36.2132H6.99512C3.12912 36.2132 -0.00488281 33.0792 -0.00488281 29.2132V25.2815C-0.00488281 21.4155 3.12912 18.2815 6.99512 18.2815H9.25712C13.1231 18.2815 16.2571 21.4155 16.2571 25.2815V29.2132C16.2571 33.0792 13.1231 36.2132 9.25712 36.2132Z" fill="url(#paint2_linear_92_5482)"/>
<path d="M9.25712 18.2816H6.99512C3.12912 18.2816 -0.00488281 15.1476 -0.00488281 11.2816V7.34985C-0.00488281 3.48385 3.12912 0.349854 6.99512 0.349854H9.25712C13.1231 0.349854 16.2571 3.48385 16.2571 7.34985V11.2816C16.2571 15.1476 13.1231 18.2816 9.25712 18.2816Z" fill="url(#paint3_linear_92_5482)"/>
<defs>
<linearGradient id="paint0_linear_92_5482" x1="8.12612" y1="94.145" x2="8.12612" y2="63.624" gradientUnits="userSpaceOnUse">
<stop offset="0.002" stop-color="#36210C"/>
<stop offset="0.719" stop-color="#B17635"/>
<stop offset="0.9995" stop-color="#DC9443"/>
</linearGradient>
<linearGradient id="paint1_linear_92_5482" x1="8.12612" y1="54.1451" x2="8.12612" y2="36.2134" gradientUnits="userSpaceOnUse">
<stop offset="0.002" stop-color="#36210C"/>
<stop offset="0.719" stop-color="#B17635"/>
<stop offset="0.9995" stop-color="#DC9443"/>
</linearGradient>
<linearGradient id="paint2_linear_92_5482" x1="8.12612" y1="36.2132" x2="8.12612" y2="18.2815" gradientUnits="userSpaceOnUse">
<stop offset="0.002" stop-color="#36210C"/>
<stop offset="0.719" stop-color="#B17635"/>
<stop offset="0.9995" stop-color="#DC9443"/>
</linearGradient>
<linearGradient id="paint3_linear_92_5482" x1="8.12612" y1="18.2816" x2="8.12612" y2="0.349854" gradientUnits="userSpaceOnUse">
<stop offset="0.002" stop-color="#36210C"/>
<stop offset="0.719" stop-color="#B17635"/>
<stop offset="0.9995" stop-color="#DC9443"/>
</linearGradient>
</defs>
</svg>
