<svg width="37" height="24" viewBox="0 0 37 24" fill="none" xmlns="http://www.w3.org/2000/svg">
<rect x="2" y="1.98901" width="34" height="20" rx="10" fill="url(#paint0_linear_45_4243)"/>
<rect x="2" y="1.98901" width="34" height="20" rx="10" stroke="#003E96" stroke-width="3" stroke-linejoin="round"/>
<path d="M15.8711 15.989V7.39917H18.6543C19.709 7.39917 20.3965 7.44214 20.7168 7.52808C21.209 7.65698 21.6211 7.93823 21.9531 8.37183C22.2852 8.80151 22.4512 9.35815 22.4512 10.0417C22.4512 10.5691 22.3555 11.0125 22.1641 11.3718C21.9727 11.7312 21.7285 12.0144 21.4316 12.2214C21.1387 12.4246 20.8398 12.5593 20.5352 12.6257C20.1211 12.7078 19.5215 12.7488 18.7363 12.7488H17.6055V15.989H15.8711ZM17.6055 8.85229V11.2898H18.5547C19.2383 11.2898 19.6953 11.2449 19.9258 11.155C20.1562 11.0652 20.3359 10.9246 20.4648 10.7332C20.5977 10.5417 20.6641 10.3191 20.6641 10.0652C20.6641 9.75269 20.5723 9.49487 20.3887 9.29175C20.2051 9.08862 19.9727 8.96167 19.6914 8.91089C19.4844 8.87183 19.0684 8.85229 18.4434 8.85229H17.6055Z" fill="white"/>
<defs>
<linearGradient id="paint0_linear_45_4243" x1="19" y1="1.98901" x2="19" y2="21.989" gradientUnits="userSpaceOnUse">
<stop stop-color="#FF9985"/>
<stop offset="1" stop-color="#003E96"/>
</linearGradient>
</defs>
</svg>
