<svg width="58" height="24" viewBox="0 0 58 24" fill="none" xmlns="http://www.w3.org/2000/svg">
<rect x="2" y="1.98901" width="55" height="20" rx="10" fill="url(#paint0_linear_40_2576)"/>
<rect x="2" y="1.98901" width="55" height="20" rx="10" stroke="#235275" stroke-width="3" stroke-linejoin="round"/>
<path d="M10.0117 7.39917H13.1816C13.8965 7.39917 14.4414 7.45386 14.8164 7.56323C15.3203 7.71167 15.752 7.97534 16.1113 8.35425C16.4707 8.73315 16.7441 9.198 16.9316 9.74878C17.1191 10.2957 17.2129 10.9714 17.2129 11.7761C17.2129 12.4832 17.125 13.0925 16.9492 13.6042C16.7344 14.2292 16.4277 14.7351 16.0293 15.1218C15.7285 15.4148 15.3223 15.6433 14.8105 15.8074C14.4277 15.9285 13.916 15.989 13.2754 15.989H10.0117V7.39917ZM11.7461 8.85229V14.5417H13.041C13.5254 14.5417 13.875 14.5144 14.0898 14.4597C14.3711 14.3894 14.6035 14.2703 14.7871 14.1023C14.9746 13.9343 15.127 13.6589 15.2441 13.2761C15.3613 12.8894 15.4199 12.364 15.4199 11.7C15.4199 11.0359 15.3613 10.5261 15.2441 10.1707C15.127 9.81519 14.9629 9.53784 14.752 9.33862C14.541 9.1394 14.2734 9.00464 13.9492 8.93433C13.707 8.87964 13.2324 8.85229 12.5254 8.85229H11.7461ZM18.6367 15.989V7.39917H20.3711V15.989H18.6367ZM21.5898 13.1941L23.2773 13.03C23.3789 13.5964 23.584 14.0125 23.8926 14.2781C24.2051 14.5437 24.625 14.6765 25.1523 14.6765C25.7109 14.6765 26.1309 14.5593 26.4121 14.325C26.6973 14.0867 26.8398 13.8093 26.8398 13.4929C26.8398 13.2898 26.7793 13.1179 26.6582 12.9773C26.541 12.8328 26.334 12.7078 26.0371 12.6023C25.834 12.532 25.3711 12.407 24.6484 12.2273C23.7188 11.9968 23.0664 11.7136 22.6914 11.3777C22.1641 10.905 21.9004 10.3289 21.9004 9.64917C21.9004 9.21167 22.0234 8.80347 22.2695 8.42456C22.5195 8.04175 22.877 7.75073 23.3418 7.55151C23.8105 7.35229 24.375 7.25269 25.0352 7.25269C26.1133 7.25269 26.9238 7.48901 27.4668 7.96167C28.0137 8.43433 28.3008 9.06519 28.3281 9.85425L26.5938 9.93042C26.5195 9.48901 26.3594 9.17261 26.1133 8.9812C25.8711 8.78589 25.5059 8.68823 25.0176 8.68823C24.5137 8.68823 24.1191 8.79175 23.834 8.99878C23.6504 9.13159 23.5586 9.30933 23.5586 9.53198C23.5586 9.73511 23.6445 9.90894 23.8164 10.0535C24.0352 10.2371 24.5664 10.4285 25.4102 10.6277C26.2539 10.8269 26.877 11.0339 27.2793 11.2488C27.6855 11.4597 28.002 11.7507 28.2285 12.1218C28.459 12.489 28.5742 12.9441 28.5742 13.4871C28.5742 13.9792 28.4375 14.4402 28.1641 14.8699C27.8906 15.2996 27.5039 15.6199 27.0039 15.8308C26.5039 16.0378 25.8809 16.1414 25.1348 16.1414C24.0488 16.1414 23.2148 15.8914 22.6328 15.3914C22.0508 14.8875 21.7031 14.155 21.5898 13.1941ZM29.6113 13.7097L31.2051 13.5164C31.2559 13.9226 31.3926 14.2332 31.6152 14.448C31.8379 14.6628 32.1074 14.7703 32.4238 14.7703C32.7637 14.7703 33.0488 14.6414 33.2793 14.3835C33.5137 14.1257 33.6309 13.7781 33.6309 13.3406C33.6309 12.9265 33.5195 12.5984 33.2969 12.3562C33.0742 12.114 32.8027 11.9929 32.4824 11.9929C32.2715 11.9929 32.0195 12.0339 31.7266 12.116L31.9082 10.7742C32.3535 10.7859 32.6934 10.6902 32.9277 10.4871C33.1621 10.28 33.2793 10.0066 33.2793 9.66675C33.2793 9.37769 33.1934 9.14722 33.0215 8.97534C32.8496 8.80347 32.6211 8.71753 32.3359 8.71753C32.0547 8.71753 31.8145 8.81519 31.6152 9.0105C31.416 9.20581 31.2949 9.49097 31.252 9.86597L29.7344 9.60815C29.8398 9.08862 29.998 8.67456 30.209 8.36597C30.4238 8.05347 30.7207 7.80933 31.0996 7.63354C31.4824 7.45386 31.9102 7.36401 32.3828 7.36401C33.1914 7.36401 33.8398 7.62183 34.3281 8.13745C34.7305 8.55933 34.9316 9.03589 34.9316 9.56714C34.9316 10.321 34.5195 10.9226 33.6953 11.3718C34.1875 11.4773 34.5801 11.7136 34.873 12.0808C35.1699 12.448 35.3184 12.8914 35.3184 13.4109C35.3184 14.1648 35.043 14.8074 34.4922 15.3386C33.9414 15.8699 33.2559 16.1355 32.4355 16.1355C31.6582 16.1355 31.0137 15.9128 30.502 15.4675C29.9902 15.0183 29.6934 14.4324 29.6113 13.7097ZM36.7598 15.989V7.46948H38.4941V14.5417H42.8066V15.989H36.7598ZM49.2461 14.4597V15.989H43.4746C43.5371 15.4109 43.7246 14.864 44.0371 14.3484C44.3496 13.8289 44.9668 13.1414 45.8887 12.2859C46.6309 11.5945 47.0859 11.1257 47.2539 10.8796C47.4805 10.5398 47.5938 10.2039 47.5938 9.87183C47.5938 9.50464 47.4941 9.22339 47.2949 9.02808C47.0996 8.82886 46.8281 8.72925 46.4805 8.72925C46.1367 8.72925 45.8633 8.83276 45.6602 9.03979C45.457 9.24683 45.3398 9.59058 45.3086 10.071L43.668 9.90698C43.7656 9.00073 44.0723 8.35034 44.5879 7.95581C45.1035 7.56128 45.748 7.36401 46.5215 7.36401C47.3691 7.36401 48.0352 7.59253 48.5195 8.04956C49.0039 8.50659 49.2461 9.07495 49.2461 9.75464C49.2461 10.1414 49.1758 10.5105 49.0352 10.8621C48.8984 11.2097 48.6797 11.575 48.3789 11.9578C48.1797 12.2117 47.8203 12.5769 47.3008 13.0535C46.7812 13.53 46.4512 13.8464 46.3105 14.0027C46.1738 14.1589 46.0625 14.3113 45.9766 14.4597H49.2461Z" fill="white"/>
<defs>
<linearGradient id="paint0_linear_40_2576" x1="29.5" y1="1.98901" x2="29.5" y2="21.989" gradientUnits="userSpaceOnUse">
<stop stop-color="#235275"/>
<stop offset="1" stop-color="#9ABA8F"/>
</linearGradient>
</defs>
</svg>
