<svg width="37" height="15" viewBox="0 0 37 15" fill="none" xmlns="http://www.w3.org/2000/svg">
<path d="M4.86267 14.83C2.26527 14.83 0.159668 11.6538 0.159668 7.73566C0.159668 3.81756 2.26527 0.641357 4.86267 0.641357H8.94507V14.83H4.86267Z" fill="url(#paint0_linear_86_2794)"/>
<path d="M8.94494 14.83C11.5423 14.83 13.6479 11.6537 13.6479 7.73566C13.6479 3.81758 11.5423 0.641357 8.94494 0.641357C6.34755 0.641357 4.24194 3.81758 4.24194 7.73566C4.24194 11.6537 6.34755 14.83 8.94494 14.83Z" fill="#B87125"/>
<path d="M10.5779 14.83C7.98054 14.83 5.87494 11.6538 5.87494 7.73566C5.87494 3.81756 7.98054 0.641357 10.5779 0.641357H14.6603V14.83H10.5779Z" fill="url(#paint1_linear_86_2794)"/>
<path d="M14.6603 14.83C17.2577 14.83 19.3633 11.6537 19.3633 7.73566C19.3633 3.81758 17.2577 0.641357 14.6603 0.641357C12.0629 0.641357 9.95734 3.81758 9.95734 7.73566C9.95734 11.6537 12.0629 14.83 14.6603 14.83Z" fill="#1C8C1C"/>
<path d="M16.2933 14.83C13.6959 14.83 11.5903 11.6538 11.5903 7.73566C11.5903 3.81756 13.696 0.641357 16.2933 0.641357H20.3757V14.83H16.2933Z" fill="url(#paint2_linear_86_2794)"/>
<path d="M20.3757 14.83C22.9731 14.83 25.0787 11.6537 25.0787 7.73566C25.0787 3.81758 22.9731 0.641357 20.3757 0.641357C17.7783 0.641357 15.6727 3.81758 15.6727 7.73566C15.6727 11.6537 17.7783 14.83 20.3757 14.83Z" fill="#2294A6"/>
<path d="M22.0087 14.83C19.4113 14.83 17.3057 11.6538 17.3057 7.73566C17.3057 3.81756 19.4113 0.641357 22.0087 0.641357H26.0911V14.83H22.0087Z" fill="url(#paint3_linear_86_2794)"/>
<path d="M26.0909 14.83C28.6883 14.83 30.7939 11.6537 30.7939 7.73566C30.7939 3.81758 28.6883 0.641357 26.0909 0.641357C23.4935 0.641357 21.3879 3.81758 21.3879 7.73566C21.3879 11.6537 23.4935 14.83 26.0909 14.83Z" fill="#2558B8"/>
<path d="M27.724 14.83C25.1266 14.83 23.021 11.6538 23.021 7.73566C23.021 3.81756 25.1266 0.641357 27.724 0.641357H31.8064V14.83H27.724Z" fill="url(#paint4_linear_86_2794)"/>
<path d="M31.8064 14.83C34.4038 14.83 36.5094 11.6537 36.5094 7.73566C36.5094 3.81758 34.4038 0.641357 31.8064 0.641357C29.209 0.641357 27.1034 3.81758 27.1034 7.73566C27.1034 11.6537 29.209 14.83 31.8064 14.83Z" fill="#4C25B8"/>
<defs>
<linearGradient id="paint0_linear_86_2794" x1="4.55237" y1="14.83" x2="4.55237" y2="0.641357" gradientUnits="userSpaceOnUse">
<stop stop-color="#B87125"/>
<stop offset="1" stop-color="#DFB486"/>
</linearGradient>
<linearGradient id="paint1_linear_86_2794" x1="10.2676" y1="14.83" x2="10.2676" y2="0.641357" gradientUnits="userSpaceOnUse">
<stop stop-color="#1C8C1C"/>
<stop offset="1" stop-color="#86DF86"/>
</linearGradient>
<linearGradient id="paint2_linear_86_2794" x1="15.983" y1="14.83" x2="15.983" y2="0.641357" gradientUnits="userSpaceOnUse">
<stop stop-color="#2194A6"/>
<stop offset="1" stop-color="#86D3DF"/>
</linearGradient>
<linearGradient id="paint3_linear_86_2794" x1="21.6984" y1="14.83" x2="21.6984" y2="0.641357" gradientUnits="userSpaceOnUse">
<stop stop-color="#255BB8"/>
<stop offset="1" stop-color="#86A7DF"/>
</linearGradient>
<linearGradient id="paint4_linear_86_2794" x1="27.4137" y1="14.83" x2="27.4137" y2="0.641357" gradientUnits="userSpaceOnUse">
<stop stop-color="#4C25B8"/>
<stop offset="1" stop-color="#9E86DF"/>
</linearGradient>
</defs>
</svg>
