<svg width="47" height="24" viewBox="0 0 47 24" fill="none" xmlns="http://www.w3.org/2000/svg">
<rect x="2" y="1.98901" width="44" height="20" rx="10" fill="url(#paint0_linear_35_1437)"/>
<rect x="2" y="1.98901" width="44" height="20" rx="10" stroke="#72439A" stroke-width="3" stroke-linejoin="round"/>
<path d="M18.0527 15.989H16.166L15.416 14.0378H11.9824L11.2734 15.989H9.43359L12.7793 7.39917H14.6133L18.0527 15.989ZM14.8594 12.5906L13.6758 9.40308L12.5156 12.5906H14.8594ZM20.0215 15.989V8.85229H17.4727V7.39917H24.2988V8.85229H21.7559V15.989H20.0215ZM25.4355 15.989V7.39917H31.3242V8.85229H27.1699V10.8855H30.7559V12.3386H27.1699V15.989H25.4355ZM37.957 14.4597V15.989H32.1855C32.248 15.4109 32.4355 14.864 32.748 14.3484C33.0605 13.8289 33.6777 13.1414 34.5996 12.2859C35.3418 11.5945 35.7969 11.1257 35.9648 10.8796C36.1914 10.5398 36.3047 10.2039 36.3047 9.87183C36.3047 9.50464 36.2051 9.22339 36.0059 9.02808C35.8105 8.82886 35.5391 8.72925 35.1914 8.72925C34.8477 8.72925 34.5742 8.83276 34.3711 9.03979C34.168 9.24683 34.0508 9.59058 34.0195 10.071L32.3789 9.90698C32.4766 9.00073 32.7832 8.35034 33.2988 7.95581C33.8145 7.56128 34.459 7.36401 35.2324 7.36401C36.0801 7.36401 36.7461 7.59253 37.2305 8.04956C37.7148 8.50659 37.957 9.07495 37.957 9.75464C37.957 10.1414 37.8867 10.5105 37.7461 10.8621C37.6094 11.2097 37.3906 11.575 37.0898 11.9578C36.8906 12.2117 36.5312 12.5769 36.0117 13.0535C35.4922 13.53 35.1621 13.8464 35.0215 14.0027C34.8848 14.1589 34.7734 14.3113 34.6875 14.4597H37.957Z" fill="white"/>
<defs>
<linearGradient id="paint0_linear_35_1437" x1="24" y1="1.98901" x2="24" y2="21.989" gradientUnits="userSpaceOnUse">
<stop stop-color="#72439A"/>
<stop offset="1" stop-color="#6DC282"/>
</linearGradient>
</defs>
</svg>
