<svg width="60" height="24" viewBox="0 0 60 24" fill="none" xmlns="http://www.w3.org/2000/svg">
<rect x="2" y="1.98901" width="57" height="20" rx="10" fill="url(#paint0_linear_46_4310)"/>
<rect x="2" y="1.98901" width="57" height="20" rx="10" stroke="#AF4100" stroke-width="3" stroke-linejoin="round"/>
<path d="M10.0332 15.989V7.39917H11.7676V10.78H15.166V7.39917H16.9004V15.989H15.166V12.2332H11.7676V15.989H10.0332ZM18.6758 15.989V7.39917H21.2715L22.8301 13.2585L24.3711 7.39917H26.9727V15.989H25.3613V9.22729L23.6562 15.989H21.9863L20.2871 9.22729V15.989H18.6758ZM28.3438 11.7468C28.3438 10.8718 28.4746 10.1375 28.7363 9.5437C28.9316 9.1062 29.1973 8.71362 29.5332 8.36597C29.873 8.01831 30.2441 7.7605 30.6465 7.59253C31.1816 7.36597 31.7988 7.25269 32.498 7.25269C33.7637 7.25269 34.7754 7.64526 35.5332 8.43042C36.2949 9.21558 36.6758 10.3074 36.6758 11.7058C36.6758 13.0925 36.2988 14.1785 35.5449 14.9636C34.791 15.7449 33.7832 16.1355 32.5215 16.1355C31.2441 16.1355 30.2285 15.7468 29.4746 14.9695C28.7207 14.1882 28.3438 13.114 28.3438 11.7468ZM30.1309 11.6882C30.1309 12.6609 30.3555 13.3992 30.8047 13.9031C31.2539 14.4031 31.8242 14.6531 32.5156 14.6531C33.207 14.6531 33.7734 14.405 34.2148 13.9089C34.6602 13.4089 34.8828 12.6609 34.8828 11.6648C34.8828 10.6804 34.666 9.94604 34.2324 9.46167C33.8027 8.97729 33.2305 8.73511 32.5156 8.73511C31.8008 8.73511 31.2246 8.9812 30.7871 9.47339C30.3496 9.96167 30.1309 10.7 30.1309 11.6882ZM37.1621 15.989L40.0977 11.5066L37.4375 7.39917H39.4648L41.1875 10.1589L42.875 7.39917H44.8848L42.2129 11.571L45.1484 15.989H43.0566L41.1523 13.0183L39.2422 15.989H37.1621ZM49.8887 15.989H48.2422V9.78394C47.6406 10.3464 46.9316 10.7625 46.1152 11.032V9.53784C46.5449 9.39722 47.0117 9.13159 47.5156 8.74097C48.0195 8.34644 48.3652 7.88745 48.5527 7.36401H49.8887V15.989Z" fill="white"/>
<defs>
<linearGradient id="paint0_linear_46_4310" x1="30.5" y1="1.98901" x2="30.5" y2="21.989" gradientUnits="userSpaceOnUse">
<stop stop-color="#AF4100"/>
<stop offset="1" stop-color="#5EC964"/>
</linearGradient>
</defs>
</svg>
