<svg width="17" height="176" viewBox="0 0 17 176" fill="none" xmlns="http://www.w3.org/2000/svg">
<path d="M16.5216 21.8981C16.5216 19.6921 15.5073 17.7088 13.8926 16.3357C13.0594 15.6271 13.0295 14.4107 13.847 13.6861C15.0267 12.6407 16.5216 10.8115 16.5216 8.0852C16.5216 3.83878 12.7747 0.760254 8.52122 0.760254C4.2678 0.760254 0.521606 3.98598 0.521606 8.0852C0.521606 10.2924 1.53702 12.2767 3.1532 13.6499C3.98779 14.359 3.98779 15.6243 3.1532 16.3334C1.53702 17.7067 0.521606 19.6908 0.521606 21.8981C0.521606 24.1053 1.53702 26.0895 3.1533 27.4628C3.98779 28.1719 3.98779 29.4372 3.1533 30.1463C1.53702 31.5196 0.521606 33.5038 0.521606 35.711C0.521606 37.9183 1.53702 39.9025 3.1533 41.2757C3.98788 41.9849 3.98779 43.2501 3.1533 43.9592C1.53702 45.3326 0.521606 47.3168 0.521606 49.524C0.521606 51.7312 1.53702 53.7155 3.1532 55.0887C3.98779 55.7978 3.98779 57.0631 3.1532 57.7722C1.53702 59.1455 0.521606 61.1298 0.521606 63.337C0.521606 66.0574 2.06529 68.4372 4.37429 69.7534C4.95595 70.0849 5.3218 70.6657 5.3218 71.3044V111.119C5.3218 112.095 5.13639 113.074 4.67759 113.949C4.00542 115.232 3.60255 116.856 3.60255 118.627C3.60255 120.397 4.00542 122.021 4.67759 123.304C5.13639 124.179 5.3218 125.158 5.3218 126.134C5.3218 127.109 5.13639 128.088 4.67759 128.964C4.00542 130.246 3.60255 131.871 3.60255 133.641C3.60255 135.411 4.00542 137.035 4.67759 138.318C5.13639 139.193 5.3218 140.172 5.3218 141.148C5.3218 142.123 5.13639 143.102 4.67759 143.978C4.00542 145.26 3.60255 146.885 3.60255 148.655C3.60255 150.425 4.00542 152.049 4.67759 153.332C5.13639 154.207 5.3218 155.186 5.3218 156.162C5.3218 157.137 5.13639 158.117 4.67759 158.992C4.00542 160.274 3.60255 161.899 3.60255 163.669C3.60255 165.439 4.00542 167.064 4.67759 168.346C5.13639 169.221 5.3218 170.201 5.3218 171.176V172.745C5.3218 172.745 5.24454 175.747 8.52102 175.747C11.7976 175.747 11.7218 172.745 11.7218 172.745V171.175C11.7218 170.2 11.9071 169.221 12.3658 168.346C13.0379 167.063 13.4407 165.439 13.4407 163.669C13.4407 161.899 13.0379 160.275 12.3658 158.992C11.9071 158.117 11.7218 157.138 11.7218 156.163V156.161C11.7218 155.186 11.9071 154.207 12.3658 153.331C13.0379 152.049 13.4407 150.425 13.4407 148.655C13.4407 146.885 13.0379 145.261 12.3658 143.978C11.9071 143.103 11.7218 142.124 11.7218 141.149V141.147C11.7218 140.172 11.9071 139.193 12.3658 138.317C13.0379 137.035 13.4407 135.411 13.4407 133.641C13.4407 131.871 13.0379 130.246 12.3658 128.964C11.9071 128.089 11.7218 127.11 11.7218 126.135V126.133C11.7218 125.158 11.9071 124.178 12.3658 123.303C13.0379 122.021 13.4407 120.396 13.4407 118.627C13.4407 116.857 13.0379 115.232 12.3658 113.95C11.9071 113.075 11.7218 112.096 11.7218 111.12V71.3042C11.7218 70.6656 12.0877 70.0848 12.6692 69.7533C14.9781 68.4371 16.5216 66.0573 16.5216 63.3371C16.5216 61.1298 15.5062 59.1456 13.8899 57.7724C13.0553 57.0633 13.0553 55.7979 13.8899 55.0889C15.5062 53.7157 16.5215 51.7314 16.5215 49.5242C16.5215 47.317 15.5061 45.3327 13.8899 43.9595C13.0553 43.2504 13.0553 41.9851 13.8899 41.276C15.5062 39.9027 16.5216 37.9185 16.5216 35.7113C16.5216 33.5041 15.5062 31.5199 13.89 30.1466C13.0554 29.4375 13.0554 28.1723 13.89 27.4631C15.5062 26.0895 16.5216 24.1053 16.5216 21.8981Z" fill="url(#paint0_linear_86_2752)"/>
<path d="M16.5216 21.8981C16.5216 19.6921 15.5073 17.7088 13.8926 16.3357C13.0594 15.6271 13.0295 14.4107 13.847 13.6861C15.0267 12.6407 16.5216 10.8115 16.5216 8.0852C16.5216 3.83878 12.7747 0.760254 8.52122 0.760254C4.2678 0.760254 0.521606 3.98598 0.521606 8.0852C0.521606 10.2924 1.53702 12.2767 3.1532 13.6499C3.98779 14.359 3.98779 15.6243 3.1532 16.3334C1.53702 17.7067 0.521606 19.6908 0.521606 21.8981C0.521606 24.1053 1.53702 26.0895 3.1533 27.4628C3.98779 28.1719 3.98779 29.4372 3.1533 30.1463C1.53702 31.5196 0.521606 33.5038 0.521606 35.711C0.521606 37.9183 1.53702 39.9025 3.1533 41.2757C3.98788 41.9849 3.98779 43.2501 3.1533 43.9592C1.53702 45.3326 0.521606 47.3168 0.521606 49.524C0.521606 51.7312 1.53702 53.7155 3.1532 55.0887C3.98779 55.7978 3.98779 57.0631 3.1532 57.7722C1.53702 59.1455 0.521606 61.1298 0.521606 63.337C0.521606 66.0574 2.06529 68.4372 4.37429 69.7534C4.95595 70.0849 5.3218 70.6657 5.3218 71.3044V111.119C5.3218 112.095 5.13639 113.074 4.67759 113.949C4.00542 115.232 3.60255 116.856 3.60255 118.627C3.60255 120.397 4.00542 122.021 4.67759 123.304C5.13639 124.179 5.3218 125.158 5.3218 126.134C5.3218 127.109 5.13639 128.088 4.67759 128.964C4.00542 130.246 3.60255 131.871 3.60255 133.641C3.60255 135.411 4.00542 137.035 4.67759 138.318C5.13639 139.193 5.3218 140.172 5.3218 141.148C5.3218 142.123 5.13639 143.102 4.67759 143.978C4.00542 145.26 3.60255 146.885 3.60255 148.655C3.60255 150.425 4.00542 152.049 4.67759 153.332C5.13639 154.207 5.3218 155.186 5.3218 156.162C5.3218 157.137 5.13639 158.117 4.67759 158.992C4.00542 160.274 3.60255 161.899 3.60255 163.669C3.60255 165.439 4.00542 167.064 4.67759 168.346C5.13639 169.221 5.3218 170.201 5.3218 171.176V172.745C5.3218 172.745 5.24454 175.747 8.52102 175.747C11.7976 175.747 11.7218 172.745 11.7218 172.745V171.175C11.7218 170.2 11.9071 169.221 12.3658 168.346C13.0379 167.063 13.4407 165.439 13.4407 163.669C13.4407 161.899 13.0379 160.275 12.3658 158.992C11.9071 158.117 11.7218 157.138 11.7218 156.163V156.161C11.7218 155.186 11.9071 154.207 12.3658 153.331C13.0379 152.049 13.4407 150.425 13.4407 148.655C13.4407 146.885 13.0379 145.261 12.3658 143.978C11.9071 143.103 11.7218 142.124 11.7218 141.149V141.147C11.7218 140.172 11.9071 139.193 12.3658 138.317C13.0379 137.035 13.4407 135.411 13.4407 133.641C13.4407 131.871 13.0379 130.246 12.3658 128.964C11.9071 128.089 11.7218 127.11 11.7218 126.135V126.133C11.7218 125.158 11.9071 124.178 12.3658 123.303C13.0379 122.021 13.4407 120.396 13.4407 118.627C13.4407 116.857 13.0379 115.232 12.3658 113.95C11.9071 113.075 11.7218 112.096 11.7218 111.12V71.3042C11.7218 70.6656 12.0877 70.0848 12.6692 69.7533C14.9781 68.4371 16.5216 66.0573 16.5216 63.3371C16.5216 61.1298 15.5062 59.1456 13.8899 57.7724C13.0553 57.0633 13.0553 55.7979 13.8899 55.0889C15.5062 53.7157 16.5215 51.7314 16.5215 49.5242C16.5215 47.317 15.5061 45.3327 13.8899 43.9595C13.0553 43.2504 13.0553 41.9851 13.8899 41.276C15.5062 39.9027 16.5216 37.9185 16.5216 35.7113C16.5216 33.5041 15.5062 31.5199 13.89 30.1466C13.0554 29.4375 13.0554 28.1723 13.89 27.4631C15.5062 26.0895 16.5216 24.1053 16.5216 21.8981Z" fill="url(#paint1_linear_86_2752)"/>
<path d="M8.52172 126.134C11.2384 126.134 13.4408 122.772 13.4408 118.626C13.4408 114.48 11.2384 111.119 8.52172 111.119C5.805 111.119 3.60266 114.48 3.60266 118.626C3.60266 122.772 5.805 126.134 8.52172 126.134Z" fill="url(#paint2_radial_86_2752)"/>
<path d="M8.52172 141.148C11.2384 141.148 13.4408 137.787 13.4408 133.641C13.4408 129.495 11.2384 126.134 8.52172 126.134C5.805 126.134 3.60266 129.495 3.60266 133.641C3.60266 137.787 5.805 141.148 8.52172 141.148Z" fill="url(#paint3_radial_86_2752)"/>
<path d="M8.52172 156.162C11.2384 156.162 13.4408 152.801 13.4408 148.655C13.4408 144.509 11.2384 141.148 8.52172 141.148C5.805 141.148 3.60266 144.509 3.60266 148.655C3.60266 152.801 5.805 156.162 8.52172 156.162Z" fill="url(#paint4_radial_86_2752)"/>
<path d="M8.52172 171.176C11.2384 171.176 13.4408 167.815 13.4408 163.669C13.4408 159.523 11.2384 156.162 8.52172 156.162C5.805 156.162 3.60266 159.523 3.60266 163.669C3.60266 167.815 5.805 171.176 8.52172 171.176Z" fill="url(#paint5_radial_86_2752)"/>
<path d="M8.52161 91.2476C12.9399 91.2476 16.5216 90.2379 16.5216 88.9922C16.5216 87.7466 12.9399 86.7368 8.52161 86.7368C4.10333 86.7368 0.521606 87.7466 0.521606 88.9922C0.521606 90.2379 4.10333 91.2476 8.52161 91.2476Z" fill="url(#paint6_radial_86_2752)"/>
<path d="M8.52161 87.5907C12.9399 87.5907 16.5216 86.5809 16.5216 85.3352C16.5216 84.0896 12.9399 83.0798 8.52161 83.0798C4.10333 83.0798 0.521606 84.0896 0.521606 85.3352C0.521606 86.5809 4.10333 87.5907 8.52161 87.5907Z" fill="url(#paint7_radial_86_2752)"/>
<path d="M8.52161 83.9337C12.9399 83.9337 16.5216 82.9239 16.5216 81.6783C16.5216 80.4326 12.9399 79.4229 8.52161 79.4229C4.10333 79.4229 0.521606 80.4326 0.521606 81.6783C0.521606 82.9239 4.10333 83.9337 8.52161 83.9337Z" fill="url(#paint8_radial_86_2752)"/>
<path d="M8.52161 70.8996C12.9399 70.8996 16.5216 67.5386 16.5216 63.3926C16.5216 59.2465 12.9399 55.8855 8.52161 55.8855C4.10333 55.8855 0.521606 59.2465 0.521606 63.3926C0.521606 67.5386 4.10333 70.8996 8.52161 70.8996Z" fill="url(#paint9_radial_86_2752)"/>
<path d="M8.52161 56.9853C12.9399 56.9853 16.5216 53.6243 16.5216 49.4783C16.5216 45.3322 12.9399 41.9712 8.52161 41.9712C4.10333 41.9712 0.521606 45.3322 0.521606 49.4783C0.521606 53.6243 4.10333 56.9853 8.52161 56.9853Z" fill="url(#paint10_radial_86_2752)"/>
<path d="M8.52161 43.2202C12.9399 43.2202 16.5216 39.8592 16.5216 35.7131C16.5216 31.5671 12.9399 28.2061 8.52161 28.2061C4.10333 28.2061 0.521606 31.5671 0.521606 35.7131C0.521606 39.8592 4.10333 43.2202 8.52161 43.2202Z" fill="url(#paint11_radial_86_2752)"/>
<path d="M8.52161 29.3803C12.9399 29.3803 16.5216 26.0193 16.5216 21.8733C16.5216 17.7272 12.9399 14.3662 8.52161 14.3662C4.10333 14.3662 0.521606 17.7272 0.521606 21.8733C0.521606 26.0193 4.10333 29.3803 8.52161 29.3803Z" fill="url(#paint12_radial_86_2752)"/>
<path d="M16.5216 8.08524C16.5216 3.93921 12.9399 0.747314 8.52161 0.747314C4.10334 0.747314 0.521606 3.93921 0.521606 8.08524C0.521606 12.2313 4.10334 15.5923 8.52161 15.5923C12.9399 15.5923 16.5216 12.2313 16.5216 8.08524Z" fill="url(#paint13_radial_86_2752)"/>
<defs>
<linearGradient id="paint0_linear_86_2752" x1="0.521608" y1="88.2538" x2="16.5216" y2="88.2538" gradientUnits="userSpaceOnUse">
<stop offset="0.2571" stop-color="#473607"/>
<stop offset="0.4609" stop-color="#E8AF14"/>
<stop offset="0.7076" stop-color="#473607"/>
</linearGradient>
<linearGradient id="paint1_linear_86_2752" x1="8.52161" y1="175.747" x2="8.52161" y2="0.760254" gradientUnits="userSpaceOnUse">
<stop offset="0.2571" stop-color="#473607"/>
<stop offset="0.409" stop-color="#E8AF14" stop-opacity="0"/>
<stop offset="0.4834" stop-color="#473607"/>
<stop offset="0.5366" stop-color="#E8AF14" stop-opacity="0"/>
<stop offset="0.597" stop-color="#473607"/>
<stop offset="1" stop-color="#E8AF14" stop-opacity="0"/>
</linearGradient>
<radialGradient id="paint2_radial_86_2752" cx="0" cy="0" r="1" gradientUnits="userSpaceOnUse" gradientTransform="translate(6.6523 116.975) scale(4.9192 7.50707)">
<stop stop-color="#E8AF14"/>
<stop offset="1" stop-color="#473607"/>
</radialGradient>
<radialGradient id="paint3_radial_86_2752" cx="0" cy="0" r="1" gradientUnits="userSpaceOnUse" gradientTransform="translate(6.6523 131.989) scale(4.9192 7.50707)">
<stop stop-color="#E8AF14"/>
<stop offset="1" stop-color="#473607"/>
</radialGradient>
<radialGradient id="paint4_radial_86_2752" cx="0" cy="0" r="1" gradientUnits="userSpaceOnUse" gradientTransform="translate(6.6523 147.003) scale(4.9192 7.50707)">
<stop stop-color="#E8AF14"/>
<stop offset="1" stop-color="#473607"/>
</radialGradient>
<radialGradient id="paint5_radial_86_2752" cx="0" cy="0" r="1" gradientUnits="userSpaceOnUse" gradientTransform="translate(6.6523 162.017) scale(4.9192 7.50707)">
<stop stop-color="#E8AF14"/>
<stop offset="1" stop-color="#473607"/>
</radialGradient>
<radialGradient id="paint6_radial_86_2752" cx="0" cy="0" r="1" gradientUnits="userSpaceOnUse" gradientTransform="translate(5.48159 88.4791) scale(8 2.25513)">
<stop stop-color="#E8AF14"/>
<stop offset="1" stop-color="#473607"/>
</radialGradient>
<radialGradient id="paint7_radial_86_2752" cx="0" cy="0" r="1" gradientUnits="userSpaceOnUse" gradientTransform="translate(5.48159 84.8225) scale(8 2.25513)">
<stop stop-color="#E8AF14"/>
<stop offset="1" stop-color="#473607"/>
</radialGradient>
<radialGradient id="paint8_radial_86_2752" cx="0" cy="0" r="1" gradientUnits="userSpaceOnUse" gradientTransform="translate(5.48159 81.166) scale(8 2.25513)">
<stop stop-color="#E8AF14"/>
<stop offset="1" stop-color="#473607"/>
</radialGradient>
<radialGradient id="paint9_radial_86_2752" cx="0" cy="0" r="1" gradientUnits="userSpaceOnUse" gradientTransform="translate(5.48159 61.741) scale(8 7.50707)">
<stop stop-color="#E8AF14"/>
<stop offset="1" stop-color="#473607"/>
</radialGradient>
<radialGradient id="paint10_radial_86_2752" cx="0" cy="0" r="1" gradientUnits="userSpaceOnUse" gradientTransform="translate(5.48159 47.6765) scale(8 7.50707)">
<stop stop-color="#E8AF14"/>
<stop offset="1" stop-color="#473607"/>
</radialGradient>
<radialGradient id="paint11_radial_86_2752" cx="0" cy="0" r="1" gradientUnits="userSpaceOnUse" gradientTransform="translate(5.80165 33.6112) scale(8 7.50707)">
<stop stop-color="#E8AF14"/>
<stop offset="1" stop-color="#473607"/>
</radialGradient>
<radialGradient id="paint12_radial_86_2752" cx="0" cy="0" r="1" gradientUnits="userSpaceOnUse" gradientTransform="translate(5.96163 19.6212) scale(8 7.50707)">
<stop stop-color="#E8AF14"/>
<stop offset="1" stop-color="#473607"/>
</radialGradient>
<radialGradient id="paint13_radial_86_2752" cx="0" cy="0" r="1" gradientUnits="userSpaceOnUse" gradientTransform="translate(5.96163 5.91769) scale(7.95508 7.46492)">
<stop stop-color="#E8AF14"/>
<stop offset="1" stop-color="#473607"/>
</radialGradient>
</defs>
</svg>
