<svg width="50" height="24" viewBox="0 0 50 24" fill="none" xmlns="http://www.w3.org/2000/svg">
<rect x="2" y="1.98901" width="47" height="20" rx="10" fill="url(#paint0_linear_46_4312)"/>
<rect x="2" y="1.98901" width="47" height="20" rx="10" stroke="#5E3D74" stroke-width="3" stroke-linejoin="round"/>
<path d="M10.0371 15.989V7.39917H11.7715V10.78H15.1699V7.39917H16.9043V15.989H15.1699V12.2332H11.7715V15.989H10.0371ZM18.75 15.989V7.46948H20.4844V14.5417H24.7969V15.989H18.75ZM31.5352 12.8308L33.2168 13.364C32.959 14.3015 32.5293 14.9988 31.9277 15.4558C31.3301 15.9089 30.5703 16.1355 29.6484 16.1355C28.5078 16.1355 27.5703 15.7468 26.8359 14.9695C26.1016 14.1882 25.7344 13.1218 25.7344 11.7703C25.7344 10.3406 26.1035 9.2312 26.8418 8.44214C27.5801 7.64917 28.5508 7.25269 29.7539 7.25269C30.8047 7.25269 31.6582 7.56323 32.3145 8.18433C32.7051 8.55151 32.998 9.07886 33.1934 9.76636L31.4766 10.1765C31.375 9.7312 31.1621 9.37964 30.8379 9.12183C30.5176 8.86401 30.127 8.73511 29.666 8.73511C29.0293 8.73511 28.5117 8.96362 28.1133 9.42065C27.7188 9.87769 27.5215 10.6179 27.5215 11.6414C27.5215 12.7273 27.7168 13.5007 28.1074 13.9617C28.498 14.4226 29.0059 14.6531 29.6309 14.6531C30.0918 14.6531 30.4883 14.5066 30.8203 14.2136C31.1523 13.9207 31.3906 13.4597 31.5352 12.8308ZM34.2715 13.1941L35.959 13.03C36.0605 13.5964 36.2656 14.0125 36.5742 14.2781C36.8867 14.5437 37.3066 14.6765 37.834 14.6765C38.3926 14.6765 38.8125 14.5593 39.0938 14.325C39.3789 14.0867 39.5215 13.8093 39.5215 13.4929C39.5215 13.2898 39.4609 13.1179 39.3398 12.9773C39.2227 12.8328 39.0156 12.7078 38.7188 12.6023C38.5156 12.532 38.0527 12.407 37.3301 12.2273C36.4004 11.9968 35.748 11.7136 35.373 11.3777C34.8457 10.905 34.582 10.3289 34.582 9.64917C34.582 9.21167 34.7051 8.80347 34.9512 8.42456C35.2012 8.04175 35.5586 7.75073 36.0234 7.55151C36.4922 7.35229 37.0566 7.25269 37.7168 7.25269C38.7949 7.25269 39.6055 7.48901 40.1484 7.96167C40.6953 8.43433 40.9824 9.06519 41.0098 9.85425L39.2754 9.93042C39.2012 9.48901 39.041 9.17261 38.7949 8.9812C38.5527 8.78589 38.1875 8.68823 37.6992 8.68823C37.1953 8.68823 36.8008 8.79175 36.5156 8.99878C36.332 9.13159 36.2402 9.30933 36.2402 9.53198C36.2402 9.73511 36.3262 9.90894 36.498 10.0535C36.7168 10.2371 37.248 10.4285 38.0918 10.6277C38.9355 10.8269 39.5586 11.0339 39.9609 11.2488C40.3672 11.4597 40.6836 11.7507 40.9102 12.1218C41.1406 12.489 41.2559 12.9441 41.2559 13.4871C41.2559 13.9792 41.1191 14.4402 40.8457 14.8699C40.5723 15.2996 40.1855 15.6199 39.6855 15.8308C39.1855 16.0378 38.5625 16.1414 37.8164 16.1414C36.7305 16.1414 35.8965 15.8914 35.3145 15.3914C34.7324 14.8875 34.3848 14.155 34.2715 13.1941Z" fill="white"/>
<defs>
<linearGradient id="paint0_linear_46_4312" x1="25.5" y1="1.98901" x2="25.5" y2="21.989" gradientUnits="userSpaceOnUse">
<stop stop-color="#5E3D74"/>
<stop offset="1" stop-color="#FFC04A"/>
</linearGradient>
</defs>
</svg>
