<svg width="55" height="72" viewBox="0 0 55 72" fill="none" xmlns="http://www.w3.org/2000/svg">
<path d="M42.7444 71.3899C37.2161 71.3899 35.7503 66.0735 35.7473 63.262V29.4362C35.7073 25.422 33.0549 25.3058 32.7522 25.3058C32.4504 25.3058 29.8049 25.4215 29.7795 29.4381V63.2599C29.7795 66.0714 28.3176 71.3898 22.7844 71.3898C19.904 71.3898 17.6946 69.8586 16.5622 67.0793C15.8117 65.2375 15.7902 63.4572 15.7902 63.26V29.4362C15.7502 25.422 13.0993 25.3058 12.797 25.3058C12.4947 25.3058 9.8445 25.4221 9.8064 29.4445V63.2599C9.804 66.0734 8.3376 71.3898 2.8064 71.3898C1.7019 71.3898 0.806396 70.4943 0.806396 69.3898C0.806396 68.2853 1.7019 67.3898 2.8064 67.3898C2.929 67.3898 5.803 67.3429 5.8064 63.258V29.4357C5.8064 29.2394 5.8274 27.4591 6.5769 25.6169C7.7078 22.8371 9.9172 21.3059 12.7971 21.3059C18.3288 21.3059 19.7903 26.6243 19.7903 29.4363V63.26C19.8299 67.2737 22.4817 67.3899 22.7844 67.3899C22.9065 67.3899 25.7795 67.343 25.7795 63.26V29.4357C25.7785 29.0412 25.8322 25.4503 28.1369 23.1374C29.3312 21.9392 30.9269 21.3059 32.7521 21.3059C38.2853 21.3059 39.7472 26.6243 39.7472 29.4363V63.26C39.7911 67.2737 42.4425 67.3899 42.7443 67.3899C43.0461 67.3899 45.6964 67.2737 45.7365 63.2502L45.7414 10.3005C45.7414 9.19604 46.6369 8.30054 47.7414 8.30054C48.8459 8.30054 49.7414 9.19604 49.7414 10.3005L49.7365 63.26C49.7366 66.0715 48.2756 71.3899 42.7444 71.3899Z" fill="#893F12"/>
<path d="M2.45996 68.7882C7.45466 68.7882 7.45996 62.6583 7.45996 62.6583V28.8338C7.45996 28.8338 7.45786 22.7039 12.4509 22.7039C17.4439 22.7039 17.444 28.8344 17.444 28.8344L17.4439 62.6583C17.4439 62.6583 17.4438 68.7882 22.4385 68.7882C27.4332 68.7882 27.4332 62.6583 27.4332 62.6583V28.8338C27.4332 28.8338 27.4113 22.7039 32.4061 22.7039C37.4009 22.7039 37.4007 28.8344 37.4007 28.8344V62.6583C37.4007 62.6583 37.4069 68.7882 42.3985 68.7882C47.3901 68.7882 47.3901 62.6583 47.3901 62.6583C47.3901 62.6583 47.3954 10.6985 47.3954 9.69849" stroke="#DD9A72" stroke-miterlimit="1" stroke-linecap="round"/>
<path d="M47.7417 17.4926C44.12 17.4926 41.1848 14.5567 41.1848 10.9357V7.44313C41.1848 3.82213 44.12 0.88623 47.7417 0.88623C51.3634 0.88623 54.2986 3.82213 54.2986 7.44313V10.9357C54.2986 14.5567 51.3633 17.4926 47.7417 17.4926Z" fill="url(#paint0_radial_92_5479)"/>
<defs>
<radialGradient id="paint0_radial_92_5479" cx="0" cy="0" r="1" gradientUnits="userSpaceOnUse" gradientTransform="translate(45.307 10.8472) scale(10.6036)">
<stop stop-color="#DE9B71"/>
<stop offset="0.1407" stop-color="#C68155"/>
<stop offset="0.3258" stop-color="#AD6538"/>
<stop offset="0.5085" stop-color="#9B5022"/>
<stop offset="0.6859" stop-color="#904415"/>
<stop offset="0.8519" stop-color="#8C4011"/>
</radialGradient>
</defs>
</svg>
