<svg width="71" height="24" viewBox="0 0 71 24" fill="none" xmlns="http://www.w3.org/2000/svg">
<rect x="1" y="1.98901" width="69" height="20" rx="10" fill="url(#paint0_linear_67_1942)"/>
<rect x="1" y="1.98901" width="69" height="20" rx="10" stroke="#CB5D5D" stroke-width="3" stroke-linejoin="round"/>
<path d="M8.91016 13.1941L10.5977 13.03C10.6992 13.5964 10.9043 14.0125 11.2129 14.2781C11.5254 14.5437 11.9453 14.6765 12.4727 14.6765C13.0312 14.6765 13.4512 14.5593 13.7324 14.325C14.0176 14.0867 14.1602 13.8093 14.1602 13.4929C14.1602 13.2898 14.0996 13.1179 13.9785 12.9773C13.8613 12.8328 13.6543 12.7078 13.3574 12.6023C13.1543 12.532 12.6914 12.407 11.9688 12.2273C11.0391 11.9968 10.3867 11.7136 10.0117 11.3777C9.48438 10.905 9.2207 10.3289 9.2207 9.64917C9.2207 9.21167 9.34375 8.80347 9.58984 8.42456C9.83984 8.04175 10.1973 7.75073 10.6621 7.55151C11.1309 7.35229 11.6953 7.25269 12.3555 7.25269C13.4336 7.25269 14.2441 7.48901 14.7871 7.96167C15.334 8.43433 15.6211 9.06519 15.6484 9.85425L13.9141 9.93042C13.8398 9.48901 13.6797 9.17261 13.4336 8.9812C13.1914 8.78589 12.8262 8.68823 12.3379 8.68823C11.834 8.68823 11.4395 8.79175 11.1543 8.99878C10.9707 9.13159 10.8789 9.30933 10.8789 9.53198C10.8789 9.73511 10.9648 9.90894 11.1367 10.0535C11.3555 10.2371 11.8867 10.4285 12.7305 10.6277C13.5742 10.8269 14.1973 11.0339 14.5996 11.2488C15.0059 11.4597 15.3223 11.7507 15.5488 12.1218C15.7793 12.489 15.8945 12.9441 15.8945 13.4871C15.8945 13.9792 15.7578 14.4402 15.4844 14.8699C15.2109 15.2996 14.8242 15.6199 14.3242 15.8308C13.8242 16.0378 13.2012 16.1414 12.4551 16.1414C11.3691 16.1414 10.5352 15.8914 9.95312 15.3914C9.37109 14.8875 9.02344 14.155 8.91016 13.1941ZM19.2871 15.989V8.85229H16.7383V7.39917H23.5645V8.85229H21.0215V15.989H19.2871ZM24.2676 13.7097L25.8613 13.5164C25.9121 13.9226 26.0488 14.2332 26.2715 14.448C26.4941 14.6628 26.7637 14.7703 27.0801 14.7703C27.4199 14.7703 27.7051 14.6414 27.9355 14.3835C28.1699 14.1257 28.2871 13.7781 28.2871 13.3406C28.2871 12.9265 28.1758 12.5984 27.9531 12.3562C27.7305 12.114 27.459 11.9929 27.1387 11.9929C26.9277 11.9929 26.6758 12.0339 26.3828 12.116L26.5645 10.7742C27.0098 10.7859 27.3496 10.6902 27.584 10.4871C27.8184 10.28 27.9355 10.0066 27.9355 9.66675C27.9355 9.37769 27.8496 9.14722 27.6777 8.97534C27.5059 8.80347 27.2773 8.71753 26.9922 8.71753C26.7109 8.71753 26.4707 8.81519 26.2715 9.0105C26.0723 9.20581 25.9512 9.49097 25.9082 9.86597L24.3906 9.60815C24.4961 9.08862 24.6543 8.67456 24.8652 8.36597C25.0801 8.05347 25.377 7.80933 25.7559 7.63354C26.1387 7.45386 26.5664 7.36401 27.0391 7.36401C27.8477 7.36401 28.4961 7.62183 28.9844 8.13745C29.3867 8.55933 29.5879 9.03589 29.5879 9.56714C29.5879 10.321 29.1758 10.9226 28.3516 11.3718C28.8438 11.4773 29.2363 11.7136 29.5293 12.0808C29.8262 12.448 29.9746 12.8914 29.9746 13.4109C29.9746 14.1648 29.6992 14.8074 29.1484 15.3386C28.5977 15.8699 27.9121 16.1355 27.0918 16.1355C26.3145 16.1355 25.6699 15.9128 25.1582 15.4675C24.6465 15.0183 24.3496 14.4324 24.2676 13.7097ZM35.3652 12.8308V11.3835H39.1035V14.8054C38.7402 15.157 38.2129 15.4675 37.5215 15.7371C36.834 16.0027 36.1367 16.1355 35.4297 16.1355C34.5312 16.1355 33.748 15.948 33.0801 15.573C32.4121 15.1941 31.9102 14.655 31.5742 13.9558C31.2383 13.2527 31.0703 12.489 31.0703 11.6648C31.0703 10.7703 31.2578 9.97534 31.6328 9.28003C32.0078 8.58472 32.5566 8.05151 33.2793 7.68042C33.8301 7.39526 34.5156 7.25269 35.3359 7.25269C36.4023 7.25269 37.2344 7.47729 37.832 7.92651C38.4336 8.37183 38.8203 8.98901 38.9922 9.77808L37.2695 10.1003C37.1484 9.67847 36.9199 9.34644 36.584 9.10425C36.252 8.85815 35.8359 8.73511 35.3359 8.73511C34.5781 8.73511 33.9746 8.97534 33.5254 9.45581C33.0801 9.93628 32.8574 10.6492 32.8574 11.5945C32.8574 12.614 33.084 13.3796 33.5371 13.8914C33.9902 14.3992 34.584 14.6531 35.3184 14.6531C35.6816 14.6531 36.0449 14.5828 36.4082 14.4421C36.7754 14.2976 37.0898 14.1238 37.3516 13.9207V12.8308H35.3652ZM48.4551 15.989H46.5684L45.8184 14.0378H42.3848L41.6758 15.989H39.8359L43.1816 7.39917H45.0156L48.4551 15.989ZM45.2617 12.5906L44.0781 9.40308L42.918 12.5906H45.2617ZM49.4277 15.989V7.46948H51.1621V14.5417H55.4746V15.989H49.4277ZM56.2949 13.7097L57.8887 13.5164C57.9395 13.9226 58.0762 14.2332 58.2988 14.448C58.5215 14.6628 58.791 14.7703 59.1074 14.7703C59.4473 14.7703 59.7324 14.6414 59.9629 14.3835C60.1973 14.1257 60.3145 13.7781 60.3145 13.3406C60.3145 12.9265 60.2031 12.5984 59.9805 12.3562C59.7578 12.114 59.4863 11.9929 59.166 11.9929C58.9551 11.9929 58.7031 12.0339 58.4102 12.116L58.5918 10.7742C59.0371 10.7859 59.377 10.6902 59.6113 10.4871C59.8457 10.28 59.9629 10.0066 59.9629 9.66675C59.9629 9.37769 59.877 9.14722 59.7051 8.97534C59.5332 8.80347 59.3047 8.71753 59.0195 8.71753C58.7383 8.71753 58.498 8.81519 58.2988 9.0105C58.0996 9.20581 57.9785 9.49097 57.9355 9.86597L56.418 9.60815C56.5234 9.08862 56.6816 8.67456 56.8926 8.36597C57.1074 8.05347 57.4043 7.80933 57.7832 7.63354C58.166 7.45386 58.5938 7.36401 59.0664 7.36401C59.875 7.36401 60.5234 7.62183 61.0117 8.13745C61.4141 8.55933 61.6152 9.03589 61.6152 9.56714C61.6152 10.321 61.2031 10.9226 60.3789 11.3718C60.8711 11.4773 61.2637 11.7136 61.5566 12.0808C61.8535 12.448 62.002 12.8914 62.002 13.4109C62.002 14.1648 61.7266 14.8074 61.1758 15.3386C60.625 15.8699 59.9395 16.1355 59.1191 16.1355C58.3418 16.1355 57.6973 15.9128 57.1855 15.4675C56.6738 15.0183 56.377 14.4324 56.2949 13.7097Z" fill="white"/>
<defs>
<linearGradient id="paint0_linear_67_1942" x1="35.5" y1="1.98901" x2="35.5" y2="21.989" gradientUnits="userSpaceOnUse">
<stop stop-color="#CB5D5D"/>
<stop offset="1" stop-color="#A3B31E"/>
</linearGradient>
</defs>
</svg>
