<svg width="58" height="24" viewBox="0 0 58 24" fill="none" xmlns="http://www.w3.org/2000/svg">
<rect x="2" y="1.98901" width="55" height="20" rx="10" fill="url(#paint0_linear_38_1863)"/>
<rect x="2" y="1.98901" width="55" height="20" rx="10" stroke="#4200A8" stroke-width="3" stroke-linejoin="round"/>
<path d="M15.8535 12.8308L17.5352 13.364C17.2773 14.3015 16.8477 14.9988 16.2461 15.4558C15.6484 15.9089 14.8887 16.1355 13.9668 16.1355C12.8262 16.1355 11.8887 15.7468 11.1543 14.9695C10.4199 14.1882 10.0527 13.1218 10.0527 11.7703C10.0527 10.3406 10.4219 9.2312 11.1602 8.44214C11.8984 7.64917 12.8691 7.25269 14.0723 7.25269C15.123 7.25269 15.9766 7.56323 16.6328 8.18433C17.0234 8.55151 17.3164 9.07886 17.5117 9.76636L15.7949 10.1765C15.6934 9.7312 15.4805 9.37964 15.1562 9.12183C14.8359 8.86401 14.4453 8.73511 13.9844 8.73511C13.3477 8.73511 12.8301 8.96362 12.4316 9.42065C12.0371 9.87769 11.8398 10.6179 11.8398 11.6414C11.8398 12.7273 12.0352 13.5007 12.4258 13.9617C12.8164 14.4226 13.3242 14.6531 13.9492 14.6531C14.4102 14.6531 14.8066 14.5066 15.1387 14.2136C15.4707 13.9207 15.709 13.4597 15.8535 12.8308ZM26.7754 15.989H24.8887L24.1387 14.0378H20.7051L19.9961 15.989H18.1562L21.502 7.39917H23.3359L26.7754 15.989ZM23.582 12.5906L22.3984 9.40308L21.2383 12.5906H23.582ZM27.2617 13.1941L28.9492 13.03C29.0508 13.5964 29.2559 14.0125 29.5645 14.2781C29.877 14.5437 30.2969 14.6765 30.8242 14.6765C31.3828 14.6765 31.8027 14.5593 32.084 14.325C32.3691 14.0867 32.5117 13.8093 32.5117 13.4929C32.5117 13.2898 32.4512 13.1179 32.3301 12.9773C32.2129 12.8328 32.0059 12.7078 31.709 12.6023C31.5059 12.532 31.043 12.407 30.3203 12.2273C29.3906 11.9968 28.7383 11.7136 28.3633 11.3777C27.8359 10.905 27.5723 10.3289 27.5723 9.64917C27.5723 9.21167 27.6953 8.80347 27.9414 8.42456C28.1914 8.04175 28.5488 7.75073 29.0137 7.55151C29.4824 7.35229 30.0469 7.25269 30.707 7.25269C31.7852 7.25269 32.5957 7.48901 33.1387 7.96167C33.6855 8.43433 33.9727 9.06519 34 9.85425L32.2656 9.93042C32.1914 9.48901 32.0312 9.17261 31.7852 8.9812C31.543 8.78589 31.1777 8.68823 30.6895 8.68823C30.1855 8.68823 29.791 8.79175 29.5059 8.99878C29.3223 9.13159 29.2305 9.30933 29.2305 9.53198C29.2305 9.73511 29.3164 9.90894 29.4883 10.0535C29.707 10.2371 30.2383 10.4285 31.082 10.6277C31.9258 10.8269 32.5488 11.0339 32.9512 11.2488C33.3574 11.4597 33.6738 11.7507 33.9004 12.1218C34.1309 12.489 34.2461 12.9441 34.2461 13.4871C34.2461 13.9792 34.1094 14.4402 33.8359 14.8699C33.5625 15.2996 33.1758 15.6199 32.6758 15.8308C32.1758 16.0378 31.5527 16.1414 30.8066 16.1414C29.7207 16.1414 28.8867 15.8914 28.3047 15.3914C27.7227 14.8875 27.375 14.155 27.2617 13.1941ZM35.7051 15.989V7.39917H38.4883C39.543 7.39917 40.2305 7.44214 40.5508 7.52808C41.043 7.65698 41.4551 7.93823 41.7871 8.37183C42.1191 8.80151 42.2852 9.35815 42.2852 10.0417C42.2852 10.5691 42.1895 11.0125 41.998 11.3718C41.8066 11.7312 41.5625 12.0144 41.2656 12.2214C40.9727 12.4246 40.6738 12.5593 40.3691 12.6257C39.9551 12.7078 39.3555 12.7488 38.5703 12.7488H37.4395V15.989H35.7051ZM37.4395 8.85229V11.2898H38.3887C39.0723 11.2898 39.5293 11.2449 39.7598 11.155C39.9902 11.0652 40.1699 10.9246 40.2988 10.7332C40.4316 10.5417 40.498 10.3191 40.498 10.0652C40.498 9.75269 40.4062 9.49487 40.2227 9.29175C40.0391 9.08862 39.8066 8.96167 39.5254 8.91089C39.3184 8.87183 38.9023 8.85229 38.2773 8.85229H37.4395ZM44.7578 11.3542C44.332 11.1746 44.0215 10.9285 43.8262 10.616C43.6348 10.2996 43.5391 9.95386 43.5391 9.57886C43.5391 8.93823 43.7617 8.40894 44.207 7.99097C44.6562 7.573 45.293 7.36401 46.1172 7.36401C46.9336 7.36401 47.5664 7.573 48.0156 7.99097C48.4688 8.40894 48.6953 8.93823 48.6953 9.57886C48.6953 9.97729 48.5918 10.3328 48.3848 10.6453C48.1777 10.9539 47.8867 11.1902 47.5117 11.3542C47.9883 11.5457 48.3496 11.825 48.5957 12.1921C48.8457 12.5593 48.9707 12.9832 48.9707 13.4636C48.9707 14.2566 48.7168 14.9011 48.209 15.3972C47.7051 15.8933 47.0332 16.1414 46.1934 16.1414C45.4121 16.1414 44.7617 15.9363 44.2422 15.5261C43.6289 15.0417 43.3223 14.3777 43.3223 13.5339C43.3223 13.0691 43.4375 12.6433 43.668 12.2566C43.8984 11.866 44.2617 11.5652 44.7578 11.3542ZM45.0977 9.69604C45.0977 10.0242 45.1895 10.28 45.373 10.4636C45.5605 10.6472 45.8086 10.739 46.1172 10.739C46.4297 10.739 46.6797 10.6472 46.8672 10.4636C47.0547 10.2761 47.1484 10.0183 47.1484 9.69019C47.1484 9.38159 47.0547 9.1355 46.8672 8.9519C46.6836 8.7644 46.4395 8.67065 46.1348 8.67065C45.8184 8.67065 45.5664 8.7644 45.3789 8.9519C45.1914 9.1394 45.0977 9.38745 45.0977 9.69604ZM44.9453 13.3757C44.9453 13.8289 45.0605 14.1824 45.291 14.4363C45.5254 14.6902 45.8164 14.8171 46.1641 14.8171C46.5039 14.8171 46.7852 14.696 47.0078 14.4539C47.2305 14.2078 47.3418 13.8542 47.3418 13.3933C47.3418 12.991 47.2285 12.6687 47.002 12.4265C46.7754 12.1804 46.4883 12.0574 46.1406 12.0574C45.7383 12.0574 45.4375 12.196 45.2383 12.4734C45.043 12.7507 44.9453 13.0515 44.9453 13.3757Z" fill="white"/>
<defs>
<linearGradient id="paint0_linear_38_1863" x1="29.5" y1="1.98901" x2="29.5" y2="21.989" gradientUnits="userSpaceOnUse">
<stop stop-color="#4200A8"/>
<stop offset="1" stop-color="#FF9900"/>
</linearGradient>
</defs>
</svg>
