<svg width="60" height="24" viewBox="0 0 60 24" fill="none" xmlns="http://www.w3.org/2000/svg">
<rect x="2" y="1.98901" width="57" height="20" rx="10" fill="url(#paint0_linear_67_1930)"/>
<rect x="2" y="1.98901" width="57" height="20" rx="10" stroke="#FF82D5" stroke-width="3" stroke-linejoin="round"/>
<path d="M9.58789 13.1941L11.2754 13.03C11.377 13.5964 11.582 14.0125 11.8906 14.2781C12.2031 14.5437 12.623 14.6765 13.1504 14.6765C13.709 14.6765 14.1289 14.5593 14.4102 14.325C14.6953 14.0867 14.8379 13.8093 14.8379 13.4929C14.8379 13.2898 14.7773 13.1179 14.6562 12.9773C14.5391 12.8328 14.332 12.7078 14.0352 12.6023C13.832 12.532 13.3691 12.407 12.6465 12.2273C11.7168 11.9968 11.0645 11.7136 10.6895 11.3777C10.1621 10.905 9.89844 10.3289 9.89844 9.64917C9.89844 9.21167 10.0215 8.80347 10.2676 8.42456C10.5176 8.04175 10.875 7.75073 11.3398 7.55151C11.8086 7.35229 12.373 7.25269 13.0332 7.25269C14.1113 7.25269 14.9219 7.48901 15.4648 7.96167C16.0117 8.43433 16.2988 9.06519 16.3262 9.85425L14.5918 9.93042C14.5176 9.48901 14.3574 9.17261 14.1113 8.9812C13.8691 8.78589 13.5039 8.68823 13.0156 8.68823C12.5117 8.68823 12.1172 8.79175 11.832 8.99878C11.6484 9.13159 11.5566 9.30933 11.5566 9.53198C11.5566 9.73511 11.6426 9.90894 11.8145 10.0535C12.0332 10.2371 12.5645 10.4285 13.4082 10.6277C14.252 10.8269 14.875 11.0339 15.2773 11.2488C15.6836 11.4597 16 11.7507 16.2266 12.1218C16.457 12.489 16.5723 12.9441 16.5723 13.4871C16.5723 13.9792 16.4355 14.4402 16.1621 14.8699C15.8887 15.2996 15.502 15.6199 15.002 15.8308C14.502 16.0378 13.8789 16.1414 13.1328 16.1414C12.0469 16.1414 11.2129 15.8914 10.6309 15.3914C10.0488 14.8875 9.70117 14.155 9.58789 13.1941ZM18.0371 15.989V7.39917H19.7715V10.78H23.1699V7.39917H24.9043V15.989H23.1699V12.2332H19.7715V15.989H18.0371ZM34.4492 15.989H32.5625L31.8125 14.0378H28.3789L27.6699 15.989H25.8301L29.1758 7.39917H31.0098L34.4492 15.989ZM31.2559 12.5906L30.0723 9.40308L28.9121 12.5906H31.2559ZM35.3926 15.989V7.39917H37.0801L40.5957 13.1355V7.39917H42.207V15.989H40.4668L37.0039 10.3875V15.989H35.3926ZM44.0703 15.989V7.39917H45.8047V11.2136L49.3086 7.39917H51.6406L48.4062 10.7449L51.8164 15.989H49.5723L47.2109 11.9578L45.8047 13.3933V15.989H44.0703Z" fill="white"/>
<defs>
<linearGradient id="paint0_linear_67_1930" x1="30.5" y1="1.98901" x2="30.5" y2="21.989" gradientUnits="userSpaceOnUse">
<stop stop-color="#FF82D5"/>
<stop offset="1" stop-color="#0043FF"/>
</linearGradient>
</defs>
</svg>
