<svg width="60" height="24" viewBox="0 0 60 24" fill="none" xmlns="http://www.w3.org/2000/svg">
<rect x="2" y="1.98901" width="57" height="20" rx="10" fill="url(#paint0_linear_64_1888)"/>
<rect x="2" y="1.98901" width="57" height="20" rx="10" stroke="#614300" stroke-width="3" stroke-linejoin="round"/>
<path d="M10.0508 15.989V7.39917H11.7383L15.2539 13.1355V7.39917H16.8652V15.989H15.125L11.6621 10.3875V15.989H10.0508ZM18.2656 13.1941L19.9531 13.03C20.0547 13.5964 20.2598 14.0125 20.5684 14.2781C20.8809 14.5437 21.3008 14.6765 21.8281 14.6765C22.3867 14.6765 22.8066 14.5593 23.0879 14.325C23.373 14.0867 23.5156 13.8093 23.5156 13.4929C23.5156 13.2898 23.4551 13.1179 23.334 12.9773C23.2168 12.8328 23.0098 12.7078 22.7129 12.6023C22.5098 12.532 22.0469 12.407 21.3242 12.2273C20.3945 11.9968 19.7422 11.7136 19.3672 11.3777C18.8398 10.905 18.5762 10.3289 18.5762 9.64917C18.5762 9.21167 18.6992 8.80347 18.9453 8.42456C19.1953 8.04175 19.5527 7.75073 20.0176 7.55151C20.4863 7.35229 21.0508 7.25269 21.7109 7.25269C22.7891 7.25269 23.5996 7.48901 24.1426 7.96167C24.6895 8.43433 24.9766 9.06519 25.0039 9.85425L23.2695 9.93042C23.1953 9.48901 23.0352 9.17261 22.7891 8.9812C22.5469 8.78589 22.1816 8.68823 21.6934 8.68823C21.1895 8.68823 20.7949 8.79175 20.5098 8.99878C20.3262 9.13159 20.2344 9.30933 20.2344 9.53198C20.2344 9.73511 20.3203 9.90894 20.4922 10.0535C20.7109 10.2371 21.2422 10.4285 22.0859 10.6277C22.9297 10.8269 23.5527 11.0339 23.9551 11.2488C24.3613 11.4597 24.6777 11.7507 24.9043 12.1218C25.1348 12.489 25.25 12.9441 25.25 13.4871C25.25 13.9792 25.1133 14.4402 24.8398 14.8699C24.5664 15.2996 24.1797 15.6199 23.6797 15.8308C23.1797 16.0378 22.5566 16.1414 21.8105 16.1414C20.7246 16.1414 19.8906 15.8914 19.3086 15.3914C18.7266 14.8875 18.3789 14.155 18.2656 13.1941ZM26.6855 15.989V7.39917H29.2812L30.8398 13.2585L32.3809 7.39917H34.9824V15.989H33.3711V9.22729L31.666 15.989H29.9961L28.2969 9.22729V15.989H26.6855ZM44.4512 15.989H42.5645L41.8145 14.0378H38.3809L37.6719 15.989H35.832L39.1777 7.39917H41.0117L44.4512 15.989ZM41.2578 12.5906L40.0742 9.40308L38.9141 12.5906H41.2578ZM45.3887 15.989V7.39917H51.2773V8.85229H47.123V10.8855H50.709V12.3386H47.123V15.989H45.3887Z" fill="white"/>
<defs>
<linearGradient id="paint0_linear_64_1888" x1="30.5" y1="1.98901" x2="30.5" y2="21.989" gradientUnits="userSpaceOnUse">
<stop stop-color="#614300"/>
<stop offset="1" stop-color="#44E1AD"/>
</linearGradient>
</defs>
</svg>
