<svg width="56" height="24" viewBox="0 0 56 24" fill="none" xmlns="http://www.w3.org/2000/svg">
<rect x="2" y="1.98901" width="53" height="20" rx="10" fill="url(#paint0_linear_46_4296)"/>
<rect x="2" y="1.98901" width="53" height="20" rx="10" stroke="#D787C8" stroke-width="3" stroke-linejoin="round"/>
<path d="M10.248 15.989V7.39917H11.9824V10.78H15.3809V7.39917H17.1152V15.989H15.3809V12.2332H11.9824V15.989H10.248ZM21.1699 15.989V12.3738L18.0234 7.39917H20.0566L22.0781 10.7976L24.0586 7.39917H26.0566L22.8984 12.3855V15.989H21.1699ZM33.5625 15.989H31.6758L30.9258 14.0378H27.4922L26.7832 15.989H24.9434L28.2891 7.39917H30.123L33.5625 15.989ZM30.3691 12.5906L29.1855 9.40308L28.0254 12.5906H30.3691ZM34.5352 15.989V7.46948H36.2695V14.5417H40.582V15.989H34.5352ZM45.6738 15.989H44.0273V9.78394C43.4258 10.3464 42.7168 10.7625 41.9004 11.032V9.53784C42.3301 9.39722 42.7969 9.13159 43.3008 8.74097C43.8047 8.34644 44.1504 7.88745 44.3379 7.36401H45.6738V15.989Z" fill="white"/>
<defs>
<linearGradient id="paint0_linear_46_4296" x1="28.5" y1="1.98901" x2="28.5" y2="21.989" gradientUnits="userSpaceOnUse">
<stop stop-color="#D787C8"/>
<stop offset="1" stop-color="#1C0026"/>
</linearGradient>
</defs>
</svg>
