<svg width="51" height="24" viewBox="0 0 51 24" fill="none" xmlns="http://www.w3.org/2000/svg">
<rect x="2" y="1.98901" width="48" height="20" rx="10" fill="url(#paint0_linear_84_2055)"/>
<rect x="2" y="1.98901" width="48" height="20" rx="10" stroke="#CF6F4D" stroke-width="3" stroke-linejoin="round"/>
<path d="M12.1309 15.989V8.85229H9.58203V7.39917H16.4082V8.85229H13.8652V15.989H12.1309ZM19.7891 15.989V12.3738L16.6426 7.39917H18.6758L20.6973 10.7976L22.6777 7.39917H24.6758L21.5176 12.3855V15.989H19.7891ZM26.7559 15.989L24.7051 7.39917H26.4805L27.7754 13.2996L29.3457 7.39917H31.4082L32.9141 13.3992L34.2324 7.39917H35.9785L33.8926 15.989H32.0527L30.3418 9.56714L28.6367 15.989H26.7559ZM36.4473 13.7097L38.041 13.5164C38.0918 13.9226 38.2285 14.2332 38.4512 14.448C38.6738 14.6628 38.9434 14.7703 39.2598 14.7703C39.5996 14.7703 39.8848 14.6414 40.1152 14.3835C40.3496 14.1257 40.4668 13.7781 40.4668 13.3406C40.4668 12.9265 40.3555 12.5984 40.1328 12.3562C39.9102 12.114 39.6387 11.9929 39.3184 11.9929C39.1074 11.9929 38.8555 12.0339 38.5625 12.116L38.7441 10.7742C39.1895 10.7859 39.5293 10.6902 39.7637 10.4871C39.998 10.28 40.1152 10.0066 40.1152 9.66675C40.1152 9.37769 40.0293 9.14722 39.8574 8.97534C39.6855 8.80347 39.457 8.71753 39.1719 8.71753C38.8906 8.71753 38.6504 8.81519 38.4512 9.0105C38.252 9.20581 38.1309 9.49097 38.0879 9.86597L36.5703 9.60815C36.6758 9.08862 36.834 8.67456 37.0449 8.36597C37.2598 8.05347 37.5566 7.80933 37.9355 7.63354C38.3184 7.45386 38.7461 7.36401 39.2188 7.36401C40.0273 7.36401 40.6758 7.62183 41.1641 8.13745C41.5664 8.55933 41.7676 9.03589 41.7676 9.56714C41.7676 10.321 41.3555 10.9226 40.5312 11.3718C41.0234 11.4773 41.416 11.7136 41.709 12.0808C42.0059 12.448 42.1543 12.8914 42.1543 13.4109C42.1543 14.1648 41.8789 14.8074 41.3281 15.3386C40.7773 15.8699 40.0918 16.1355 39.2715 16.1355C38.4941 16.1355 37.8496 15.9128 37.3379 15.4675C36.8262 15.0183 36.5293 14.4324 36.4473 13.7097Z" fill="white"/>
<defs>
<linearGradient id="paint0_linear_84_2055" x1="26" y1="1.98901" x2="26" y2="21.989" gradientUnits="userSpaceOnUse">
<stop stop-color="#CF6F4D"/>
<stop offset="1" stop-color="#2A56D0"/>
</linearGradient>
</defs>
</svg>
