<svg width="43" height="44" viewBox="0 0 43 44" fill="none" xmlns="http://www.w3.org/2000/svg">
<path d="M21.4687 1.48901C32.9123 1.48926 42.2206 10.7996 42.2206 22.2419C42.2206 33.6844 32.9115 42.9929 21.4677 42.9929C10.0255 42.9927 0.716806 33.6856 0.716736 22.2419C0.716736 10.7981 10.0262 1.48901 21.4687 1.48901Z" fill="url(#paint0_radial_89_4117)" stroke="#591159"/>
<path d="M10.0372 25.989V17.3992H11.7715V25.989H10.0372ZM13.4766 25.989V17.4695H15.211V24.5417H19.5235V25.989H13.4766ZM24.6153 25.989H22.9688V19.7839C22.3672 20.3464 21.6583 20.7625 20.8419 21.032V19.5378C21.2715 19.3972 21.7383 19.1316 22.2422 18.741C22.7462 18.3464 23.0919 17.8875 23.2794 17.364H24.6153V25.989ZM27.0821 19.0457V17.5164H32.713V18.7117C32.2481 19.1687 31.7755 19.825 31.295 20.6804C30.8145 21.5359 30.4473 22.446 30.1934 23.4109C29.9434 24.3718 29.8204 25.2312 29.8243 25.989H28.2364C28.2637 24.8015 28.5079 23.5906 28.9688 22.3562C29.4337 21.1218 30.0528 20.0183 30.8262 19.0457H27.0821Z" fill="white"/>
<defs>
<radialGradient id="paint0_radial_89_4117" cx="0" cy="0" r="1" gradientUnits="userSpaceOnUse" gradientTransform="translate(16.996 14.0023) scale(19.3962)">
<stop stop-color="#E58683"/>
<stop offset="1" stop-color="#CE524E"/>
</radialGradient>
</defs>
</svg>
