<svg width="59" height="24" viewBox="0 0 59 24" fill="none" xmlns="http://www.w3.org/2000/svg">
<rect x="2" y="1.98901" width="56" height="20" rx="10" fill="url(#paint0_linear_36_1578)"/>
<rect x="2" y="1.98901" width="56" height="20" rx="10" stroke="#529BEB" stroke-width="3" stroke-linejoin="round"/>
<path d="M10.1953 7.39917H13.6289C14.3086 7.39917 14.8145 7.42847 15.1465 7.48706C15.4824 7.54175 15.7812 7.65894 16.043 7.83862C16.3086 8.01831 16.5293 8.25854 16.7051 8.55933C16.8809 8.8562 16.9688 9.19019 16.9688 9.56128C16.9688 9.96362 16.8594 10.3328 16.6406 10.6687C16.4258 11.0046 16.1328 11.2566 15.7617 11.4246C16.2852 11.5769 16.6875 11.8367 16.9688 12.2039C17.25 12.571 17.3906 13.0027 17.3906 13.4988C17.3906 13.8894 17.2988 14.2703 17.1152 14.6414C16.9355 15.0085 16.6875 15.3035 16.3711 15.5261C16.0586 15.7449 15.6719 15.8796 15.2109 15.9304C14.9219 15.9617 14.2246 15.9812 13.1191 15.989H10.1953V7.39917ZM11.9297 8.82886V10.8152H13.0664C13.7422 10.8152 14.1621 10.8054 14.3262 10.7859C14.623 10.7507 14.8555 10.6492 15.0234 10.4812C15.1953 10.3093 15.2812 10.0847 15.2812 9.80737C15.2812 9.54175 15.207 9.3269 15.0586 9.16284C14.9141 8.99487 14.6973 8.89331 14.4082 8.85815C14.2363 8.83862 13.7422 8.82886 12.9258 8.82886H11.9297ZM11.9297 12.2449V14.5417H13.5352C14.1602 14.5417 14.5566 14.5242 14.7246 14.489C14.9824 14.4421 15.1914 14.3289 15.3516 14.1492C15.5156 13.9656 15.5977 13.7214 15.5977 13.4167C15.5977 13.1589 15.5352 12.9402 15.4102 12.7605C15.2852 12.5808 15.1035 12.45 14.8652 12.3679C14.6309 12.2859 14.1191 12.2449 13.3301 12.2449H11.9297ZM18.8496 7.39917H20.584V12.0515C20.584 12.7898 20.6055 13.2683 20.6484 13.4871C20.7227 13.8386 20.8984 14.1218 21.1758 14.3367C21.457 14.5476 21.8398 14.6531 22.3242 14.6531C22.8164 14.6531 23.1875 14.5535 23.4375 14.3542C23.6875 14.1511 23.8379 13.9031 23.8887 13.6101C23.9395 13.3171 23.9648 12.8308 23.9648 12.1511V7.39917H25.6992V11.9109C25.6992 12.9421 25.6523 13.6707 25.5586 14.0964C25.4648 14.5222 25.291 14.8816 25.0371 15.1746C24.7871 15.4675 24.4512 15.7019 24.0293 15.8777C23.6074 16.0496 23.0566 16.1355 22.377 16.1355C21.5566 16.1355 20.9336 16.0417 20.5078 15.8542C20.0859 15.6628 19.752 15.4167 19.5059 15.116C19.2598 14.8113 19.0977 14.4929 19.0195 14.1609C18.9062 13.6687 18.8496 12.9421 18.8496 11.9812V7.39917ZM27.5391 7.39917H30.9727C31.6523 7.39917 32.1582 7.42847 32.4902 7.48706C32.8262 7.54175 33.125 7.65894 33.3867 7.83862C33.6523 8.01831 33.873 8.25854 34.0488 8.55933C34.2246 8.8562 34.3125 9.19019 34.3125 9.56128C34.3125 9.96362 34.2031 10.3328 33.9844 10.6687C33.7695 11.0046 33.4766 11.2566 33.1055 11.4246C33.6289 11.5769 34.0312 11.8367 34.3125 12.2039C34.5938 12.571 34.7344 13.0027 34.7344 13.4988C34.7344 13.8894 34.6426 14.2703 34.459 14.6414C34.2793 15.0085 34.0312 15.3035 33.7148 15.5261C33.4023 15.7449 33.0156 15.8796 32.5547 15.9304C32.2656 15.9617 31.5684 15.9812 30.4629 15.989H27.5391V7.39917ZM29.2734 8.82886V10.8152H30.4102C31.0859 10.8152 31.5059 10.8054 31.6699 10.7859C31.9668 10.7507 32.1992 10.6492 32.3672 10.4812C32.5391 10.3093 32.625 10.0847 32.625 9.80737C32.625 9.54175 32.5508 9.3269 32.4023 9.16284C32.2578 8.99487 32.041 8.89331 31.752 8.85815C31.5801 8.83862 31.0859 8.82886 30.2695 8.82886H29.2734ZM29.2734 12.2449V14.5417H30.8789C31.5039 14.5417 31.9004 14.5242 32.0684 14.489C32.3262 14.4421 32.5352 14.3289 32.6953 14.1492C32.8594 13.9656 32.9414 13.7214 32.9414 13.4167C32.9414 13.1589 32.8789 12.9402 32.7539 12.7605C32.6289 12.5808 32.4473 12.45 32.209 12.3679C31.9746 12.2859 31.4629 12.2449 30.6738 12.2449H29.2734ZM40.0547 15.989H38.4082V9.78394C37.8066 10.3464 37.0977 10.7625 36.2812 11.032V9.53784C36.7109 9.39722 37.1777 9.13159 37.6816 8.74097C38.1855 8.34644 38.5312 7.88745 38.7188 7.36401H40.0547V15.989ZM42.8906 7.39917H46.3242C47.0039 7.39917 47.5098 7.42847 47.8418 7.48706C48.1777 7.54175 48.4766 7.65894 48.7383 7.83862C49.0039 8.01831 49.2246 8.25854 49.4004 8.55933C49.5762 8.8562 49.6641 9.19019 49.6641 9.56128C49.6641 9.96362 49.5547 10.3328 49.3359 10.6687C49.1211 11.0046 48.8281 11.2566 48.457 11.4246C48.9805 11.5769 49.3828 11.8367 49.6641 12.2039C49.9453 12.571 50.0859 13.0027 50.0859 13.4988C50.0859 13.8894 49.9941 14.2703 49.8105 14.6414C49.6309 15.0085 49.3828 15.3035 49.0664 15.5261C48.7539 15.7449 48.3672 15.8796 47.9062 15.9304C47.6172 15.9617 46.9199 15.9812 45.8145 15.989H42.8906V7.39917ZM44.625 8.82886V10.8152H45.7617C46.4375 10.8152 46.8574 10.8054 47.0215 10.7859C47.3184 10.7507 47.5508 10.6492 47.7188 10.4812C47.8906 10.3093 47.9766 10.0847 47.9766 9.80737C47.9766 9.54175 47.9023 9.3269 47.7539 9.16284C47.6094 8.99487 47.3926 8.89331 47.1035 8.85815C46.9316 8.83862 46.4375 8.82886 45.6211 8.82886H44.625ZM44.625 12.2449V14.5417H46.2305C46.8555 14.5417 47.252 14.5242 47.4199 14.489C47.6777 14.4421 47.8867 14.3289 48.0469 14.1492C48.2109 13.9656 48.293 13.7214 48.293 13.4167C48.293 13.1589 48.2305 12.9402 48.1055 12.7605C47.9805 12.5808 47.7988 12.45 47.5605 12.3679C47.3262 12.2859 46.8145 12.2449 46.0254 12.2449H44.625Z" fill="white"/>
<defs>
<linearGradient id="paint0_linear_36_1578" x1="30" y1="1.98901" x2="30" y2="21.989" gradientUnits="userSpaceOnUse">
<stop stop-color="#9A2282"/>
<stop offset="1" stop-color="#529BEB"/>
</linearGradient>
</defs>
</svg>
