<svg width="50" height="24" viewBox="0 0 50 24" fill="none" xmlns="http://www.w3.org/2000/svg">
<rect x="2" y="1.98901" width="47" height="20" rx="10" fill="url(#paint0_linear_35_1412)"/>
<rect x="2" y="1.98901" width="47" height="20" rx="10" stroke="#044FAA" stroke-width="3" stroke-linejoin="round"/>
<path d="M18.1055 15.989H16.2188L15.4688 14.0378H12.0352L11.3262 15.989H9.48633L12.832 7.39917H14.666L18.1055 15.989ZM14.9121 12.5906L13.7285 9.40308L12.5684 12.5906H14.9121ZM19.0781 15.989V7.46948H20.8125V14.5417H25.125V15.989H19.0781ZM30.3633 12.8308V11.3835H34.1016V14.8054C33.7383 15.157 33.2109 15.4675 32.5195 15.7371C31.832 16.0027 31.1348 16.1355 30.4277 16.1355C29.5293 16.1355 28.7461 15.948 28.0781 15.573C27.4102 15.1941 26.9082 14.655 26.5723 13.9558C26.2363 13.2527 26.0684 12.489 26.0684 11.6648C26.0684 10.7703 26.2559 9.97534 26.6309 9.28003C27.0059 8.58472 27.5547 8.05151 28.2773 7.68042C28.8281 7.39526 29.5137 7.25269 30.334 7.25269C31.4004 7.25269 32.2324 7.47729 32.8301 7.92651C33.4316 8.37183 33.8184 8.98901 33.9902 9.77808L32.2676 10.1003C32.1465 9.67847 31.918 9.34644 31.582 9.10425C31.25 8.85815 30.834 8.73511 30.334 8.73511C29.5762 8.73511 28.9727 8.97534 28.5234 9.45581C28.0781 9.93628 27.8555 10.6492 27.8555 11.5945C27.8555 12.614 28.082 13.3796 28.5352 13.8914C28.9883 14.3992 29.582 14.6531 30.3164 14.6531C30.6797 14.6531 31.043 14.5828 31.4062 14.4421C31.7734 14.2976 32.0879 14.1238 32.3496 13.9207V12.8308H30.3633ZM35.3789 14.0027L36.9727 13.8269C37.0117 14.1511 37.1133 14.3914 37.2773 14.5476C37.4414 14.7039 37.6582 14.782 37.9277 14.782C38.2676 14.782 38.5566 14.6257 38.7949 14.3132C39.0332 14.0007 39.1855 13.3523 39.252 12.3679C38.8379 12.8484 38.3203 13.0886 37.6992 13.0886C37.0234 13.0886 36.4395 12.8289 35.9473 12.3093C35.459 11.7859 35.2148 11.1062 35.2148 10.2703C35.2148 9.39917 35.4727 8.698 35.9883 8.16675C36.5078 7.63159 37.168 7.36401 37.9688 7.36401C38.8398 7.36401 39.5547 7.7019 40.1133 8.37769C40.6719 9.04956 40.9512 10.157 40.9512 11.7C40.9512 13.2703 40.6602 14.4031 40.0781 15.0984C39.4961 15.7937 38.7383 16.1414 37.8047 16.1414C37.1328 16.1414 36.5898 15.9636 36.1758 15.6082C35.7617 15.2488 35.4961 14.7136 35.3789 14.0027ZM39.1055 10.405C39.1055 9.87378 38.9824 9.46167 38.7363 9.1687C38.4941 8.87573 38.2129 8.72925 37.8926 8.72925C37.5879 8.72925 37.334 8.85034 37.1309 9.09253C36.9316 9.33081 36.832 9.72339 36.832 10.2703C36.832 10.825 36.9414 11.2332 37.1602 11.4949C37.3789 11.7527 37.6523 11.8816 37.9805 11.8816C38.2969 11.8816 38.5625 11.7566 38.7773 11.5066C38.9961 11.2566 39.1055 10.8894 39.1055 10.405Z" fill="white"/>
<defs>
<linearGradient id="paint0_linear_35_1412" x1="25.5" y1="1.98901" x2="25.5" y2="21.989" gradientUnits="userSpaceOnUse">
<stop stop-color="#D76C54"/>
<stop offset="1" stop-color="#044FAA"/>
</linearGradient>
</defs>
</svg>
