<svg width="14" height="152" viewBox="0 0 14 152" fill="none" xmlns="http://www.w3.org/2000/svg">
<path d="M13.1831 0.95459H0.845947V151.54H13.1831V0.95459Z" fill="url(#paint0_linear_86_3499)"/>
<path d="M3.88599 57.2476V48.6577H6.66919C7.72388 48.6577 8.41138 48.7007 8.73169 48.7866C9.22388 48.9155 9.63599 49.1968 9.96802 49.6304C10.3 50.0601 10.4661 50.6167 10.4661 51.3003C10.4661 51.8276 10.3704 52.271 10.179 52.6304C9.98755 52.9897 9.74341 53.2729 9.44653 53.48C9.15356 53.6831 8.85474 53.8179 8.55005 53.8843C8.13599 53.9663 7.53638 54.0073 6.75122 54.0073H5.62036V57.2476H3.88599ZM5.62036 50.1108V52.5483H6.56958C7.25317 52.5483 7.71021 52.5034 7.94067 52.4136C8.17114 52.3237 8.35083 52.1831 8.47974 51.9917C8.61255 51.8003 8.67896 51.5776 8.67896 51.3237C8.67896 51.0112 8.58716 50.7534 8.40356 50.5503C8.21997 50.3472 7.98755 50.2202 7.7063 50.1694C7.49927 50.1304 7.08325 50.1108 6.45825 50.1108H5.62036Z" fill="white"/>
<path d="M11.3009 71.6479H9.41418L8.66418 69.6968H5.23059L4.52161 71.6479H2.68176L6.02747 63.0581H7.86145L11.3009 71.6479ZM8.10754 68.2495L6.92395 65.062L5.76379 68.2495H8.10754Z" fill="white"/>
<path d="M7.21704 82.8892V81.4419H10.9553V84.8638C10.592 85.2153 10.0647 85.5259 9.37329 85.7954C8.68579 86.061 7.98853 86.1938 7.28149 86.1938C6.38306 86.1938 5.59985 86.0063 4.93188 85.6313C4.26392 85.2524 3.76196 84.7134 3.42603 84.0142C3.09009 83.311 2.92212 82.5474 2.92212 81.7231C2.92212 80.8286 3.10962 80.0337 3.48462 79.3384C3.85962 78.6431 4.40845 78.1099 5.1311 77.7388C5.68188 77.4536 6.36743 77.311 7.18774 77.311C8.25415 77.311 9.08618 77.5356 9.68384 77.9849C10.2854 78.4302 10.6721 79.0474 10.844 79.8364L9.12134 80.1587C9.00024 79.7368 8.77173 79.4048 8.43579 79.1626C8.10376 78.9165 7.68774 78.7935 7.18774 78.7935C6.42993 78.7935 5.82642 79.0337 5.3772 79.5142C4.93188 79.9946 4.70923 80.7075 4.70923 81.6528C4.70923 82.6724 4.93579 83.438 5.38892 83.9497C5.84204 84.4575 6.43579 84.7114 7.17017 84.7114C7.53345 84.7114 7.89673 84.6411 8.26001 84.5005C8.6272 84.356 8.94165 84.1821 9.20337 83.979V82.8892H7.21704Z" fill="white"/>
<path d="M8.40051 100.448H6.75403V94.2427C6.15247 94.8052 5.44348 95.2212 4.62708 95.4907V93.9966C5.05676 93.856 5.52356 93.5903 6.02747 93.1997C6.53137 92.8052 6.87708 92.3462 7.06458 91.8228H8.40051V100.448Z" fill="white"/>
<defs>
<linearGradient id="paint0_linear_86_3499" x1="0.845947" y1="76.2475" x2="13.1831" y2="76.2475" gradientUnits="userSpaceOnUse">
<stop stop-color="#224E6B"/>
<stop offset="0.0478" stop-color="#23546F"/>
<stop offset="0.1126" stop-color="#25657C"/>
<stop offset="0.1872" stop-color="#298291"/>
<stop offset="0.2691" stop-color="#2FAAAE"/>
<stop offset="0.3513" stop-color="#36D9D0"/>
<stop offset="0.3764" stop-color="#33C5C1"/>
<stop offset="0.4283" stop-color="#2EA0A7"/>
<stop offset="0.4829" stop-color="#2A8291"/>
<stop offset="0.5404" stop-color="#266B80"/>
<stop offset="0.6018" stop-color="#245B74"/>
<stop offset="0.67" stop-color="#22516D"/>
<stop offset="0.7585" stop-color="#224E6B"/>
</linearGradient>
</defs>
</svg>
