<svg width="48" height="24" viewBox="0 0 48 24" fill="none" xmlns="http://www.w3.org/2000/svg">
<rect x="2" y="1.98901" width="45" height="20" rx="10" fill="url(#paint0_linear_67_1808)"/>
<rect x="2" y="1.98901" width="45" height="20" rx="10" stroke="#006353" stroke-width="3" stroke-linejoin="round"/>
<path d="M10.0273 15.989V7.39917H12.8105C13.8652 7.39917 14.5527 7.44214 14.873 7.52808C15.3652 7.65698 15.7773 7.93823 16.1094 8.37183C16.4414 8.80151 16.6074 9.35815 16.6074 10.0417C16.6074 10.5691 16.5117 11.0125 16.3203 11.3718C16.1289 11.7312 15.8848 12.0144 15.5879 12.2214C15.2949 12.4246 14.9961 12.5593 14.6914 12.6257C14.2773 12.7078 13.6777 12.7488 12.8926 12.7488H11.7617V15.989H10.0273ZM11.7617 8.85229V11.2898H12.7109C13.3945 11.2898 13.8516 11.2449 14.082 11.155C14.3125 11.0652 14.4922 10.9246 14.6211 10.7332C14.7539 10.5417 14.8203 10.3191 14.8203 10.0652C14.8203 9.75269 14.7285 9.49487 14.5449 9.29175C14.3613 9.08862 14.1289 8.96167 13.8477 8.91089C13.6406 8.87183 13.2246 8.85229 12.5996 8.85229H11.7617ZM19.9648 15.989V8.85229H17.416V7.39917H24.2422V8.85229H21.6992V15.989H19.9648ZM25.3906 15.989V7.39917H27.125V11.2136L30.6289 7.39917H32.9609L29.7266 10.7449L33.1367 15.989H30.8926L28.5312 11.9578L27.125 13.3933V15.989H25.3906ZM39.2363 14.4597V15.989H33.4648C33.5273 15.4109 33.7148 14.864 34.0273 14.3484C34.3398 13.8289 34.957 13.1414 35.8789 12.2859C36.6211 11.5945 37.0762 11.1257 37.2441 10.8796C37.4707 10.5398 37.584 10.2039 37.584 9.87183C37.584 9.50464 37.4844 9.22339 37.2852 9.02808C37.0898 8.82886 36.8184 8.72925 36.4707 8.72925C36.127 8.72925 35.8535 8.83276 35.6504 9.03979C35.4473 9.24683 35.3301 9.59058 35.2988 10.071L33.6582 9.90698C33.7559 9.00073 34.0625 8.35034 34.5781 7.95581C35.0938 7.56128 35.7383 7.36401 36.5117 7.36401C37.3594 7.36401 38.0254 7.59253 38.5098 8.04956C38.9941 8.50659 39.2363 9.07495 39.2363 9.75464C39.2363 10.1414 39.166 10.5105 39.0254 10.8621C38.8887 11.2097 38.6699 11.575 38.3691 11.9578C38.1699 12.2117 37.8105 12.5769 37.291 13.0535C36.7715 13.53 36.4414 13.8464 36.3008 14.0027C36.1641 14.1589 36.0527 14.3113 35.9668 14.4597H39.2363Z" fill="white"/>
<defs>
<linearGradient id="paint0_linear_67_1808" x1="24.5" y1="1.98901" x2="24.5" y2="21.989" gradientUnits="userSpaceOnUse">
<stop stop-color="#FF5F3F"/>
<stop offset="1" stop-color="#006353"/>
</linearGradient>
</defs>
</svg>
