<svg width="79" height="24" viewBox="0 0 79 24" fill="none" xmlns="http://www.w3.org/2000/svg">
<rect x="1" y="1.98901" width="77" height="20" rx="10" fill="url(#paint0_linear_45_4257)"/>
<rect x="1" y="1.98901" width="77" height="20" rx="10" stroke="#A32702" stroke-width="3" stroke-linejoin="round"/>
<path d="M13.1152 12.8308V11.3835H16.8535V14.8054C16.4902 15.157 15.9629 15.4675 15.2715 15.7371C14.584 16.0027 13.8867 16.1355 13.1797 16.1355C12.2812 16.1355 11.498 15.948 10.8301 15.573C10.1621 15.1941 9.66016 14.655 9.32422 13.9558C8.98828 13.2527 8.82031 12.489 8.82031 11.6648C8.82031 10.7703 9.00781 9.97534 9.38281 9.28003C9.75781 8.58472 10.3066 8.05151 11.0293 7.68042C11.5801 7.39526 12.2656 7.25269 13.0859 7.25269C14.1523 7.25269 14.9844 7.47729 15.582 7.92651C16.1836 8.37183 16.5703 8.98901 16.7422 9.77808L15.0195 10.1003C14.8984 9.67847 14.6699 9.34644 14.334 9.10425C14.002 8.85815 13.5859 8.73511 13.0859 8.73511C12.3281 8.73511 11.7246 8.97534 11.2754 9.45581C10.8301 9.93628 10.6074 10.6492 10.6074 11.5945C10.6074 12.614 10.834 13.3796 11.2871 13.8914C11.7402 14.3992 12.334 14.6531 13.0684 14.6531C13.4316 14.6531 13.7949 14.5828 14.1582 14.4421C14.5254 14.2976 14.8398 14.1238 15.1016 13.9207V12.8308H13.1152ZM18.4062 15.989V7.39917H20.1406V15.989H18.4062ZM21.7988 15.989V7.39917H24.582C25.6367 7.39917 26.3242 7.44214 26.6445 7.52808C27.1367 7.65698 27.5488 7.93823 27.8809 8.37183C28.2129 8.80151 28.3789 9.35815 28.3789 10.0417C28.3789 10.5691 28.2832 11.0125 28.0918 11.3718C27.9004 11.7312 27.6562 12.0144 27.3594 12.2214C27.0664 12.4246 26.7676 12.5593 26.4629 12.6257C26.0488 12.7078 25.4492 12.7488 24.6641 12.7488H23.5332V15.989H21.7988ZM23.5332 8.85229V11.2898H24.4824C25.166 11.2898 25.623 11.2449 25.8535 11.155C26.084 11.0652 26.2637 10.9246 26.3926 10.7332C26.5254 10.5417 26.5918 10.3191 26.5918 10.0652C26.5918 9.75269 26.5 9.49487 26.3164 9.29175C26.1328 9.08862 25.9004 8.96167 25.6191 8.91089C25.4121 8.87183 24.9961 8.85229 24.3711 8.85229H23.5332ZM35.6387 18.5144H34.5078C33.9102 17.6121 33.4551 16.6746 33.1426 15.7019C32.8301 14.7292 32.6738 13.7878 32.6738 12.8777C32.6738 11.7488 32.8672 10.6804 33.2539 9.67261C33.5898 8.79761 34.0156 7.99097 34.5312 7.25269H35.6562C35.1211 8.43628 34.752 9.44409 34.5488 10.2761C34.3496 11.1042 34.25 11.9832 34.25 12.9128C34.25 13.5535 34.3086 14.2097 34.4258 14.8816C34.5469 15.5535 34.7109 16.1921 34.918 16.7976C35.0547 17.196 35.2949 17.7683 35.6387 18.5144ZM36.5762 13.78L38.2168 13.6101C38.2637 13.9812 38.4023 14.2761 38.6328 14.4949C38.8633 14.7097 39.1289 14.8171 39.4297 14.8171C39.7734 14.8171 40.0645 14.6785 40.3027 14.4011C40.541 14.1199 40.6602 13.698 40.6602 13.1355C40.6602 12.6082 40.541 12.2136 40.3027 11.9519C40.0684 11.6863 39.7617 11.5535 39.3828 11.5535C38.9102 11.5535 38.4863 11.7625 38.1113 12.1804L36.7754 11.9871L37.6191 7.51636H41.9727V9.05737H38.8672L38.6094 10.5164C38.9766 10.3328 39.3516 10.241 39.7344 10.241C40.4648 10.241 41.084 10.5066 41.5918 11.0378C42.0996 11.5691 42.3535 12.2585 42.3535 13.1062C42.3535 13.8132 42.1484 14.4441 41.7383 14.9988C41.1797 15.7566 40.4043 16.1355 39.4121 16.1355C38.6191 16.1355 37.9727 15.9226 37.4727 15.4968C36.9727 15.071 36.6738 14.4988 36.5762 13.78ZM46.4609 15.989V14.2605H42.9453V12.8191L46.6719 7.36401H48.0547V12.8132H49.1211V14.2605H48.0547V15.989H46.4609ZM46.4609 12.8132V9.87769L44.4863 12.8132H46.4609ZM50.0762 13.698V12.0515H53.3105V13.698H50.0762ZM53.9434 14.0027L55.5371 13.8269C55.5762 14.1511 55.6777 14.3914 55.8418 14.5476C56.0059 14.7039 56.2227 14.782 56.4922 14.782C56.832 14.782 57.1211 14.6257 57.3594 14.3132C57.5977 14.0007 57.75 13.3523 57.8164 12.3679C57.4023 12.8484 56.8848 13.0886 56.2637 13.0886C55.5879 13.0886 55.0039 12.8289 54.5117 12.3093C54.0234 11.7859 53.7793 11.1062 53.7793 10.2703C53.7793 9.39917 54.0371 8.698 54.5527 8.16675C55.0723 7.63159 55.7324 7.36401 56.5332 7.36401C57.4043 7.36401 58.1191 7.7019 58.6777 8.37769C59.2363 9.04956 59.5156 10.157 59.5156 11.7C59.5156 13.2703 59.2246 14.4031 58.6426 15.0984C58.0605 15.7937 57.3027 16.1414 56.3691 16.1414C55.6973 16.1414 55.1543 15.9636 54.7402 15.6082C54.3262 15.2488 54.0605 14.7136 53.9434 14.0027ZM57.6699 10.405C57.6699 9.87378 57.5469 9.46167 57.3008 9.1687C57.0586 8.87573 56.7773 8.72925 56.457 8.72925C56.1523 8.72925 55.8984 8.85034 55.6953 9.09253C55.4961 9.33081 55.3965 9.72339 55.3965 10.2703C55.3965 10.825 55.5059 11.2332 55.7246 11.4949C55.9434 11.7527 56.2168 11.8816 56.5449 11.8816C56.8613 11.8816 57.127 11.7566 57.3418 11.5066C57.5605 11.2566 57.6699 10.8894 57.6699 10.405ZM60.5293 13.7097L62.123 13.5164C62.1738 13.9226 62.3105 14.2332 62.5332 14.448C62.7559 14.6628 63.0254 14.7703 63.3418 14.7703C63.6816 14.7703 63.9668 14.6414 64.1973 14.3835C64.4316 14.1257 64.5488 13.7781 64.5488 13.3406C64.5488 12.9265 64.4375 12.5984 64.2148 12.3562C63.9922 12.114 63.7207 11.9929 63.4004 11.9929C63.1895 11.9929 62.9375 12.0339 62.6445 12.116L62.8262 10.7742C63.2715 10.7859 63.6113 10.6902 63.8457 10.4871C64.0801 10.28 64.1973 10.0066 64.1973 9.66675C64.1973 9.37769 64.1113 9.14722 63.9395 8.97534C63.7676 8.80347 63.5391 8.71753 63.2539 8.71753C62.9727 8.71753 62.7324 8.81519 62.5332 9.0105C62.334 9.20581 62.2129 9.49097 62.1699 9.86597L60.6523 9.60815C60.7578 9.08862 60.916 8.67456 61.127 8.36597C61.3418 8.05347 61.6387 7.80933 62.0176 7.63354C62.4004 7.45386 62.8281 7.36401 63.3008 7.36401C64.1094 7.36401 64.7578 7.62183 65.2461 8.13745C65.6484 8.55933 65.8496 9.03589 65.8496 9.56714C65.8496 10.321 65.4375 10.9226 64.6133 11.3718C65.1055 11.4773 65.498 11.7136 65.791 12.0808C66.0879 12.448 66.2363 12.8914 66.2363 13.4109C66.2363 14.1648 65.9609 14.8074 65.4102 15.3386C64.8594 15.8699 64.1738 16.1355 63.3535 16.1355C62.5762 16.1355 61.9316 15.9128 61.4199 15.4675C60.9082 15.0183 60.6113 14.4324 60.5293 13.7097ZM67.1621 18.5144C67.4863 17.8191 67.7148 17.2859 67.8477 16.9148C67.9805 16.5437 68.1035 16.116 68.2168 15.6316C68.3301 15.1472 68.4141 14.6882 68.4688 14.2546C68.5234 13.8171 68.5508 13.3699 68.5508 12.9128C68.5508 11.9832 68.4512 11.1042 68.252 10.2761C68.0527 9.44409 67.6855 8.43628 67.1504 7.25269H68.2695C68.8594 8.09253 69.3164 8.98315 69.6406 9.92456C69.9688 10.866 70.1328 11.821 70.1328 12.7898C70.1328 13.6062 70.0039 14.4812 69.7461 15.4148C69.4531 16.4617 68.9707 17.4949 68.2988 18.5144H67.1621Z" fill="white"/>
<defs>
<linearGradient id="paint0_linear_45_4257" x1="39.5" y1="1.98901" x2="39.5" y2="21.989" gradientUnits="userSpaceOnUse">
<stop stop-color="#A32702"/>
<stop offset="1" stop-color="#5F5E8F"/>
</linearGradient>
</defs>
</svg>
