<svg width="48" height="24" viewBox="0 0 48 24" fill="none" xmlns="http://www.w3.org/2000/svg">
<rect x="2" y="1.98901" width="45" height="20" rx="10" fill="url(#paint0_linear_42_2647)"/>
<rect x="2" y="1.98901" width="45" height="20" rx="10" stroke="#55EDB0" stroke-width="3" stroke-linejoin="round"/>
<path d="M10.3613 15.989V7.39917H16.7305V8.85229H12.0957V10.7566H16.4082V12.2039H12.0957V14.5417H16.8945V15.989H10.3613ZM17.4922 15.989L20.4277 11.5066L17.7676 7.39917H19.7949L21.5176 10.1589L23.2051 7.39917H25.2148L22.543 11.571L25.4785 15.989H23.3867L21.4824 13.0183L19.5723 15.989H17.4922ZM28.3027 15.989V8.85229H25.7539V7.39917H32.5801V8.85229H30.0371V15.989H28.3027ZM38.9023 14.4597V15.989H33.1309C33.1934 15.4109 33.3809 14.864 33.6934 14.3484C34.0059 13.8289 34.623 13.1414 35.5449 12.2859C36.2871 11.5945 36.7422 11.1257 36.9102 10.8796C37.1367 10.5398 37.25 10.2039 37.25 9.87183C37.25 9.50464 37.1504 9.22339 36.9512 9.02808C36.7559 8.82886 36.4844 8.72925 36.1367 8.72925C35.793 8.72925 35.5195 8.83276 35.3164 9.03979C35.1133 9.24683 34.9961 9.59058 34.9648 10.071L33.3242 9.90698C33.4219 9.00073 33.7285 8.35034 34.2441 7.95581C34.7598 7.56128 35.4043 7.36401 36.1777 7.36401C37.0254 7.36401 37.6914 7.59253 38.1758 8.04956C38.6602 8.50659 38.9023 9.07495 38.9023 9.75464C38.9023 10.1414 38.832 10.5105 38.6914 10.8621C38.5547 11.2097 38.3359 11.575 38.0352 11.9578C37.8359 12.2117 37.4766 12.5769 36.957 13.0535C36.4375 13.53 36.1074 13.8464 35.9668 14.0027C35.8301 14.1589 35.7188 14.3113 35.6328 14.4597H38.9023Z" fill="white"/>
<defs>
<linearGradient id="paint0_linear_42_2647" x1="24.5" y1="1.98901" x2="24.5" y2="21.989" gradientUnits="userSpaceOnUse">
<stop stop-color="#55EDB0"/>
<stop offset="1" stop-color="#2DB31E"/>
</linearGradient>
</defs>
</svg>
