<svg width="60" height="24" viewBox="0 0 60 24" fill="none" xmlns="http://www.w3.org/2000/svg">
<rect x="2" y="1.98901" width="57" height="20" rx="10" fill="url(#paint0_linear_85_2097)"/>
<rect x="2" y="1.98901" width="57" height="20" rx="10" stroke="#5E27CD" stroke-width="3" stroke-linejoin="round"/>
<path d="M10.3496 7.39917H12.084V12.0515C12.084 12.7898 12.1055 13.2683 12.1484 13.4871C12.2227 13.8386 12.3984 14.1218 12.6758 14.3367C12.957 14.5476 13.3398 14.6531 13.8242 14.6531C14.3164 14.6531 14.6875 14.5535 14.9375 14.3542C15.1875 14.1511 15.3379 13.9031 15.3887 13.6101C15.4395 13.3171 15.4648 12.8308 15.4648 12.1511V7.39917H17.1992V11.9109C17.1992 12.9421 17.1523 13.6707 17.0586 14.0964C16.9648 14.5222 16.791 14.8816 16.5371 15.1746C16.2871 15.4675 15.9512 15.7019 15.5293 15.8777C15.1074 16.0496 14.5566 16.1355 13.877 16.1355C13.0566 16.1355 12.4336 16.0417 12.0078 15.8542C11.5859 15.6628 11.252 15.4167 11.0059 15.116C10.7598 14.8113 10.5977 14.4929 10.5195 14.1609C10.4062 13.6687 10.3496 12.9421 10.3496 11.9812V7.39917ZM19.0391 7.39917H22.4727C23.1523 7.39917 23.6582 7.42847 23.9902 7.48706C24.3262 7.54175 24.625 7.65894 24.8867 7.83862C25.1523 8.01831 25.373 8.25854 25.5488 8.55933C25.7246 8.8562 25.8125 9.19019 25.8125 9.56128C25.8125 9.96362 25.7031 10.3328 25.4844 10.6687C25.2695 11.0046 24.9766 11.2566 24.6055 11.4246C25.1289 11.5769 25.5312 11.8367 25.8125 12.2039C26.0938 12.571 26.2344 13.0027 26.2344 13.4988C26.2344 13.8894 26.1426 14.2703 25.959 14.6414C25.7793 15.0085 25.5312 15.3035 25.2148 15.5261C24.9023 15.7449 24.5156 15.8796 24.0547 15.9304C23.7656 15.9617 23.0684 15.9812 21.9629 15.989H19.0391V7.39917ZM20.7734 8.82886V10.8152H21.9102C22.5859 10.8152 23.0059 10.8054 23.1699 10.7859C23.4668 10.7507 23.6992 10.6492 23.8672 10.4812C24.0391 10.3093 24.125 10.0847 24.125 9.80737C24.125 9.54175 24.0508 9.3269 23.9023 9.16284C23.7578 8.99487 23.541 8.89331 23.252 8.85815C23.0801 8.83862 22.5859 8.82886 21.7695 8.82886H20.7734ZM20.7734 12.2449V14.5417H22.3789C23.0039 14.5417 23.4004 14.5242 23.5684 14.489C23.8262 14.4421 24.0352 14.3289 24.1953 14.1492C24.3594 13.9656 24.4414 13.7214 24.4414 13.4167C24.4414 13.1589 24.3789 12.9402 24.2539 12.7605C24.1289 12.5808 23.9473 12.45 23.709 12.3679C23.4746 12.2859 22.9629 12.2449 22.1738 12.2449H20.7734ZM27.7051 15.989V7.39917H34.0742V8.85229H29.4395V10.7566H33.752V12.2039H29.4395V14.5417H34.2383V15.989H27.7051ZM40.9062 14.4597V15.989H35.1348C35.1973 15.4109 35.3848 14.864 35.6973 14.3484C36.0098 13.8289 36.627 13.1414 37.5488 12.2859C38.291 11.5945 38.7461 11.1257 38.9141 10.8796C39.1406 10.5398 39.2539 10.2039 39.2539 9.87183C39.2539 9.50464 39.1543 9.22339 38.9551 9.02808C38.7598 8.82886 38.4883 8.72925 38.1406 8.72925C37.7969 8.72925 37.5234 8.83276 37.3203 9.03979C37.1172 9.24683 37 9.59058 36.9688 10.071L35.3281 9.90698C35.4258 9.00073 35.7324 8.35034 36.248 7.95581C36.7637 7.56128 37.4082 7.36401 38.1816 7.36401C39.0293 7.36401 39.6953 7.59253 40.1797 8.04956C40.6641 8.50659 40.9062 9.07495 40.9062 9.75464C40.9062 10.1414 40.8359 10.5105 40.6953 10.8621C40.5586 11.2097 40.3398 11.575 40.0391 11.9578C39.8398 12.2117 39.4805 12.5769 38.9609 13.0535C38.4414 13.53 38.1113 13.8464 37.9707 14.0027C37.834 14.1589 37.7227 14.3113 37.6367 14.4597H40.9062ZM42.3652 15.989V7.39917H44.9609L46.5195 13.2585L48.0605 7.39917H50.6621V15.989H49.0508V9.22729L47.3457 15.989H45.6758L43.9766 9.22729V15.989H42.3652Z" fill="white"/>
<defs>
<linearGradient id="paint0_linear_85_2097" x1="30.5" y1="1.98901" x2="30.5" y2="21.989" gradientUnits="userSpaceOnUse">
<stop stop-color="#5E27CD"/>
<stop offset="1" stop-color="#63A521"/>
</linearGradient>
</defs>
</svg>
