<svg width="60" height="24" viewBox="0 0 60 24" fill="none" xmlns="http://www.w3.org/2000/svg">
<rect x="2" y="1.98901" width="57" height="20" rx="10" fill="url(#paint0_linear_50_1821)"/>
<rect x="2" y="1.98901" width="57" height="20" rx="10" stroke="#FF0041" stroke-width="3" stroke-linejoin="round"/>
<path d="M10.3848 15.989V7.39917H12.1191V11.2136L15.623 7.39917H17.9551L14.7207 10.7449L18.1309 15.989H15.8867L13.5254 11.9578L12.1191 13.3933V15.989H10.3848ZM26.7793 15.989H24.8926L24.1426 14.0378H20.709L20 15.989H18.1602L21.5059 7.39917H23.3398L26.7793 15.989ZM23.5859 12.5906L22.4023 9.40308L21.2422 12.5906H23.5859ZM27.752 15.989V7.46948H29.4863V14.5417H33.7988V15.989H27.752ZM35.0469 15.989V7.39917H38.6973C39.6152 7.39917 40.2812 7.47729 40.6953 7.63354C41.1133 7.78589 41.4473 8.05933 41.6973 8.45386C41.9473 8.84839 42.0723 9.29956 42.0723 9.80737C42.0723 10.4519 41.8828 10.9851 41.5039 11.407C41.125 11.825 40.5586 12.0886 39.8047 12.198C40.1797 12.4167 40.4883 12.657 40.7305 12.9187C40.9766 13.1804 41.3066 13.6453 41.7207 14.3132L42.7695 15.989H40.6953L39.4414 14.1199C38.9961 13.4519 38.6914 13.032 38.5273 12.8601C38.3633 12.6843 38.1895 12.5652 38.0059 12.5027C37.8223 12.4363 37.5312 12.4031 37.1328 12.4031H36.7812V15.989H35.0469ZM36.7812 11.032H38.0645C38.8965 11.032 39.416 10.9968 39.623 10.9265C39.8301 10.8562 39.9922 10.7351 40.1094 10.5632C40.2266 10.3914 40.2852 10.1765 40.2852 9.9187C40.2852 9.62964 40.207 9.39722 40.0508 9.22144C39.8984 9.04175 39.6816 8.92847 39.4004 8.88159C39.2598 8.86206 38.8379 8.85229 38.1348 8.85229H36.7812V11.032ZM43.7305 15.989V7.39917H45.418L48.9336 13.1355V7.39917H50.5449V15.989H48.8047L45.3418 10.3875V15.989H43.7305Z" fill="white"/>
<defs>
<linearGradient id="paint0_linear_50_1821" x1="30.5" y1="1.98901" x2="30.5" y2="21.989" gradientUnits="userSpaceOnUse">
<stop stop-color="#FF0041"/>
<stop offset="1" stop-color="#007500"/>
</linearGradient>
</defs>
</svg>
