<svg width="57" height="24" viewBox="0 0 57 24" fill="none" xmlns="http://www.w3.org/2000/svg">
<rect x="2" y="1.98901" width="54" height="20" rx="10" fill="url(#paint0_linear_64_1899)"/>
<rect x="2" y="1.98901" width="54" height="20" rx="10" stroke="#86005C" stroke-width="3" stroke-linejoin="round"/>
<path d="M10.2031 15.989V7.39917H11.8906L15.4062 13.1355V7.39917H17.0176V15.989H15.2773L11.8145 10.3875V15.989H10.2031ZM18.8633 15.989V7.39917H22.5137C23.4316 7.39917 24.0977 7.47729 24.5117 7.63354C24.9297 7.78589 25.2637 8.05933 25.5137 8.45386C25.7637 8.84839 25.8887 9.29956 25.8887 9.80737C25.8887 10.4519 25.6992 10.9851 25.3203 11.407C24.9414 11.825 24.375 12.0886 23.6211 12.198C23.9961 12.4167 24.3047 12.657 24.5469 12.9187C24.793 13.1804 25.123 13.6453 25.5371 14.3132L26.5859 15.989H24.5117L23.2578 14.1199C22.8125 13.4519 22.5078 13.032 22.3438 12.8601C22.1797 12.6843 22.0059 12.5652 21.8223 12.5027C21.6387 12.4363 21.3477 12.4031 20.9492 12.4031H20.5977V15.989H18.8633ZM20.5977 11.032H21.8809C22.7129 11.032 23.2324 10.9968 23.4395 10.9265C23.6465 10.8562 23.8086 10.7351 23.9258 10.5632C24.043 10.3914 24.1016 10.1765 24.1016 9.9187C24.1016 9.62964 24.0234 9.39722 23.8672 9.22144C23.7148 9.04175 23.498 8.92847 23.2168 8.88159C23.0762 8.86206 22.6543 8.85229 21.9512 8.85229H20.5977V11.032ZM30.3945 15.989V14.2605H26.8789V12.8191L30.6055 7.36401H31.9883V12.8132H33.0547V14.2605H31.9883V15.989H30.3945ZM30.3945 12.8132V9.87769L28.4199 12.8132H30.3945ZM41.9551 15.989H40.0684L39.3184 14.0378H35.8848L35.1758 15.989H33.3359L36.6816 7.39917H38.5156L41.9551 15.989ZM38.7617 12.5906L37.5781 9.40308L36.418 12.5906H38.7617ZM46.7305 15.989H45.084V9.78394C44.4824 10.3464 43.7734 10.7625 42.957 11.032V9.53784C43.3867 9.39722 43.8535 9.13159 44.3574 8.74097C44.8613 8.34644 45.207 7.88745 45.3945 7.36401H46.7305V15.989Z" fill="white"/>
<defs>
<linearGradient id="paint0_linear_64_1899" x1="29" y1="1.98901" x2="29" y2="21.989" gradientUnits="userSpaceOnUse">
<stop stop-color="#BFB792"/>
<stop offset="1" stop-color="#86005C"/>
</linearGradient>
</defs>
</svg>
