<svg width="36" height="133" viewBox="0 0 36 133" fill="none" xmlns="http://www.w3.org/2000/svg">
<path d="M35.6613 18.3856C35.6613 8.11088 26.7554 -0.0838232 16.2418 1.10008C8.38771 1.98448 2.00871 8.25678 1.00871 16.097C0.12031 23.0627 3.35601 29.347 8.60661 32.8543C11.4576 34.7587 13.2619 37.8748 13.2619 41.3033V127.297C13.2619 129.7 14.8712 131.909 17.2275 132.382C20.4414 133.025 23.2619 130.585 23.2619 127.485V41.2983C23.2619 37.922 24.9741 34.786 27.7971 32.9339C32.5329 29.8266 35.6613 24.4735 35.6613 18.3856Z" fill="url(#paint0_linear_87_3959)"/>
<path d="M35.6613 18.3856C35.6613 8.11088 26.7554 -0.0838232 16.2418 1.10008C8.38771 1.98448 2.00871 8.25678 1.00871 16.097C0.12031 23.0627 3.35601 29.347 8.60661 32.8543C11.4576 34.7587 13.2619 37.8748 13.2619 41.3033V127.297C13.2619 129.7 14.8712 131.909 17.2275 132.382C20.4414 133.025 23.2619 130.585 23.2619 127.485V41.2983C23.2619 37.922 24.9741 34.786 27.7971 32.9339C32.5329 29.8266 35.6613 24.4735 35.6613 18.3856Z" fill="url(#paint1_linear_87_3959)"/>
<defs>
<linearGradient id="paint0_linear_87_3959" x1="0.86241" y1="66.7358" x2="35.6613" y2="66.7358" gradientUnits="userSpaceOnUse">
<stop offset="0.15" stop-color="#174A43"/>
<stop offset="0.5" stop-color="#22C664"/>
<stop offset="0.85" stop-color="#174A43"/>
</linearGradient>
<linearGradient id="paint1_linear_87_3959" x1="18.2619" y1="0.986077" x2="18.2619" y2="132.485" gradientUnits="userSpaceOnUse">
<stop stop-color="#0F302C"/>
<stop offset="0.25" stop-color="#22C664" stop-opacity="0.05"/>
</linearGradient>
</defs>
</svg>
