<svg width="48" height="24" viewBox="0 0 48 24" fill="none" xmlns="http://www.w3.org/2000/svg">
<rect x="2" y="1.98901" width="45" height="20" rx="10" fill="url(#paint0_linear_67_1807)"/>
<rect x="2" y="1.98901" width="45" height="20" rx="10" stroke="#006353" stroke-width="3" stroke-linejoin="round"/>
<path d="M10.0273 15.989V7.39917H12.8105C13.8652 7.39917 14.5527 7.44214 14.873 7.52808C15.3652 7.65698 15.7773 7.93823 16.1094 8.37183C16.4414 8.80151 16.6074 9.35815 16.6074 10.0417C16.6074 10.5691 16.5117 11.0125 16.3203 11.3718C16.1289 11.7312 15.8848 12.0144 15.5879 12.2214C15.2949 12.4246 14.9961 12.5593 14.6914 12.6257C14.2773 12.7078 13.6777 12.7488 12.8926 12.7488H11.7617V15.989H10.0273ZM11.7617 8.85229V11.2898H12.7109C13.3945 11.2898 13.8516 11.2449 14.082 11.155C14.3125 11.0652 14.4922 10.9246 14.6211 10.7332C14.7539 10.5417 14.8203 10.3191 14.8203 10.0652C14.8203 9.75269 14.7285 9.49487 14.5449 9.29175C14.3613 9.08862 14.1289 8.96167 13.8477 8.91089C13.6406 8.87183 13.2246 8.85229 12.5996 8.85229H11.7617ZM19.9648 15.989V8.85229H17.416V7.39917H24.2422V8.85229H21.6992V15.989H19.9648ZM25.3906 15.989V7.39917H27.125V11.2136L30.6289 7.39917H32.9609L29.7266 10.7449L33.1367 15.989H30.8926L28.5312 11.9578L27.125 13.3933V15.989H25.3906ZM39.2539 9.50269L37.6602 9.67847C37.6211 9.35034 37.5195 9.10815 37.3555 8.9519C37.1914 8.79565 36.9785 8.71753 36.7168 8.71753C36.3691 8.71753 36.0742 8.87378 35.832 9.18628C35.5938 9.49878 35.4434 10.1492 35.3809 11.1375C35.791 10.6531 36.3008 10.4109 36.9102 10.4109C37.5977 10.4109 38.1855 10.6726 38.6738 11.196C39.166 11.7195 39.4121 12.3953 39.4121 13.2234C39.4121 14.1023 39.1543 14.8074 38.6387 15.3386C38.123 15.8699 37.4609 16.1355 36.6523 16.1355C35.7852 16.1355 35.0723 15.7996 34.5137 15.1277C33.9551 14.4519 33.6758 13.3464 33.6758 11.8113C33.6758 10.2371 33.9668 9.10229 34.5488 8.40698C35.1309 7.71167 35.8867 7.36401 36.8164 7.36401C37.4688 7.36401 38.0078 7.54761 38.4336 7.91479C38.8633 8.27808 39.1367 8.80737 39.2539 9.50269ZM35.5215 13.0945C35.5215 13.6296 35.6445 14.0437 35.8906 14.3367C36.1367 14.6257 36.418 14.7703 36.7344 14.7703C37.0391 14.7703 37.293 14.6511 37.4961 14.4128C37.6992 14.1746 37.8008 13.7839 37.8008 13.241C37.8008 12.6824 37.6914 12.2742 37.4727 12.0164C37.2539 11.7546 36.9805 11.6238 36.6523 11.6238C36.3359 11.6238 36.0684 11.7488 35.8496 11.9988C35.6309 12.2449 35.5215 12.6101 35.5215 13.0945Z" fill="white"/>
<defs>
<linearGradient id="paint0_linear_67_1807" x1="24.5" y1="1.98901" x2="24.5" y2="21.989" gradientUnits="userSpaceOnUse">
<stop stop-color="#FFC63F"/>
<stop offset="1" stop-color="#006353"/>
</linearGradient>
</defs>
</svg>
