<svg width="56" height="24" viewBox="0 0 56 24" fill="none" xmlns="http://www.w3.org/2000/svg">
<rect x="2" y="1.98901" width="53" height="20" rx="10" fill="url(#paint0_linear_46_4327)"/>
<rect x="2" y="1.98901" width="53" height="20" rx="10" stroke="#F0A5AD" stroke-width="3" stroke-linejoin="round"/>
<path d="M10.3066 15.989V7.39917H12.041V15.989H10.3066ZM13.7168 15.989V7.39917H15.4043L18.9199 13.1355V7.39917H20.5312V15.989H18.791L15.3281 10.3875V15.989H13.7168ZM22.377 15.989V7.39917H24.1113V10.78H27.5098V7.39917H29.2441V15.989H27.5098V12.2332H24.1113V15.989H22.377ZM31.0488 7.39917H34.4824C35.1621 7.39917 35.668 7.42847 36 7.48706C36.3359 7.54175 36.6348 7.65894 36.8965 7.83862C37.1621 8.01831 37.3828 8.25854 37.5586 8.55933C37.7344 8.8562 37.8223 9.19019 37.8223 9.56128C37.8223 9.96362 37.7129 10.3328 37.4941 10.6687C37.2793 11.0046 36.9863 11.2566 36.6152 11.4246C37.1387 11.5769 37.541 11.8367 37.8223 12.2039C38.1035 12.571 38.2441 13.0027 38.2441 13.4988C38.2441 13.8894 38.1523 14.2703 37.9688 14.6414C37.7891 15.0085 37.541 15.3035 37.2246 15.5261C36.9121 15.7449 36.5254 15.8796 36.0645 15.9304C35.7754 15.9617 35.0781 15.9812 33.9727 15.989H31.0488V7.39917ZM32.7832 8.82886V10.8152H33.9199C34.5957 10.8152 35.0156 10.8054 35.1797 10.7859C35.4766 10.7507 35.709 10.6492 35.877 10.4812C36.0488 10.3093 36.1348 10.0847 36.1348 9.80737C36.1348 9.54175 36.0605 9.3269 35.9121 9.16284C35.7676 8.99487 35.5508 8.89331 35.2617 8.85815C35.0898 8.83862 34.5957 8.82886 33.7793 8.82886H32.7832ZM32.7832 12.2449V14.5417H34.3887C35.0137 14.5417 35.4102 14.5242 35.5781 14.489C35.8359 14.4421 36.0449 14.3289 36.2051 14.1492C36.3691 13.9656 36.4512 13.7214 36.4512 13.4167C36.4512 13.1589 36.3887 12.9402 36.2637 12.7605C36.1387 12.5808 35.957 12.45 35.7188 12.3679C35.4844 12.2859 34.9727 12.2449 34.1836 12.2449H32.7832ZM47.4609 15.989H45.5742L44.8242 14.0378H41.3906L40.6816 15.989H38.8418L42.1875 7.39917H44.0215L47.4609 15.989ZM44.2676 12.5906L43.084 9.40308L41.9238 12.5906H44.2676Z" fill="white"/>
<defs>
<linearGradient id="paint0_linear_46_4327" x1="28.5" y1="1.98901" x2="28.5" y2="21.989" gradientUnits="userSpaceOnUse">
<stop stop-color="#F0A5AD"/>
<stop offset="1" stop-color="#AC2106"/>
</linearGradient>
</defs>
</svg>
