<svg width="60" height="24" viewBox="0 0 60 24" fill="none" xmlns="http://www.w3.org/2000/svg">
<rect x="2" y="1.98901" width="57" height="20" rx="10" fill="url(#paint0_linear_67_1822)"/>
<rect x="2" y="1.98901" width="57" height="20" rx="10" stroke="#06748E" stroke-width="3" stroke-linejoin="round"/>
<path d="M10.0273 15.989V7.39917H12.8105C13.8652 7.39917 14.5527 7.44214 14.873 7.52808C15.3652 7.65698 15.7773 7.93823 16.1094 8.37183C16.4414 8.80151 16.6074 9.35815 16.6074 10.0417C16.6074 10.5691 16.5117 11.0125 16.3203 11.3718C16.1289 11.7312 15.8848 12.0144 15.5879 12.2214C15.2949 12.4246 14.9961 12.5593 14.6914 12.6257C14.2773 12.7078 13.6777 12.7488 12.8926 12.7488H11.7617V15.989H10.0273ZM11.7617 8.85229V11.2898H12.7109C13.3945 11.2898 13.8516 11.2449 14.082 11.155C14.3125 11.0652 14.4922 10.9246 14.6211 10.7332C14.7539 10.5417 14.8203 10.3191 14.8203 10.0652C14.8203 9.75269 14.7285 9.49487 14.5449 9.29175C14.3613 9.08862 14.1289 8.96167 13.8477 8.91089C13.6406 8.87183 13.2246 8.85229 12.5996 8.85229H11.7617ZM18.0371 15.989V7.39917H21.6875C22.6055 7.39917 23.2715 7.47729 23.6855 7.63354C24.1035 7.78589 24.4375 8.05933 24.6875 8.45386C24.9375 8.84839 25.0625 9.29956 25.0625 9.80737C25.0625 10.4519 24.873 10.9851 24.4941 11.407C24.1152 11.825 23.5488 12.0886 22.7949 12.198C23.1699 12.4167 23.4785 12.657 23.7207 12.9187C23.9668 13.1804 24.2969 13.6453 24.7109 14.3132L25.7598 15.989H23.6855L22.4316 14.1199C21.9863 13.4519 21.6816 13.032 21.5176 12.8601C21.3535 12.6843 21.1797 12.5652 20.9961 12.5027C20.8125 12.4363 20.5215 12.4031 20.123 12.4031H19.7715V15.989H18.0371ZM19.7715 11.032H21.0547C21.8867 11.032 22.4062 10.9968 22.6133 10.9265C22.8203 10.8562 22.9824 10.7351 23.0996 10.5632C23.2168 10.3914 23.2754 10.1765 23.2754 9.9187C23.2754 9.62964 23.1973 9.39722 23.041 9.22144C22.8887 9.04175 22.6719 8.92847 22.3906 8.88159C22.25 8.86206 21.8281 8.85229 21.125 8.85229H19.7715V11.032ZM26.7266 15.989V7.39917H28.4609V11.2136L31.9648 7.39917H34.2969L31.0625 10.7449L34.4727 15.989H32.2285L29.8672 11.9578L28.4609 13.3933V15.989H26.7266ZM35.3691 7.39917H38.5391C39.2539 7.39917 39.7988 7.45386 40.1738 7.56323C40.6777 7.71167 41.1094 7.97534 41.4688 8.35425C41.8281 8.73315 42.1016 9.198 42.2891 9.74878C42.4766 10.2957 42.5703 10.9714 42.5703 11.7761C42.5703 12.4832 42.4824 13.0925 42.3066 13.6042C42.0918 14.2292 41.7852 14.7351 41.3867 15.1218C41.0859 15.4148 40.6797 15.6433 40.168 15.8074C39.7852 15.9285 39.2734 15.989 38.6328 15.989H35.3691V7.39917ZM37.1035 8.85229V14.5417H38.3984C38.8828 14.5417 39.2324 14.5144 39.4473 14.4597C39.7285 14.3894 39.9609 14.2703 40.1445 14.1023C40.332 13.9343 40.4844 13.6589 40.6016 13.2761C40.7188 12.8894 40.7773 12.364 40.7773 11.7C40.7773 11.0359 40.7188 10.5261 40.6016 10.1707C40.4844 9.81519 40.3203 9.53784 40.1094 9.33862C39.8984 9.1394 39.6309 9.00464 39.3066 8.93433C39.0645 8.87964 38.5898 8.85229 37.8828 8.85229H37.1035ZM49.543 12.8308L51.2246 13.364C50.9668 14.3015 50.5371 14.9988 49.9355 15.4558C49.3379 15.9089 48.5781 16.1355 47.6562 16.1355C46.5156 16.1355 45.5781 15.7468 44.8438 14.9695C44.1094 14.1882 43.7422 13.1218 43.7422 11.7703C43.7422 10.3406 44.1113 9.2312 44.8496 8.44214C45.5879 7.64917 46.5586 7.25269 47.7617 7.25269C48.8125 7.25269 49.666 7.56323 50.3223 8.18433C50.7129 8.55151 51.0059 9.07886 51.2012 9.76636L49.4844 10.1765C49.3828 9.7312 49.1699 9.37964 48.8457 9.12183C48.5254 8.86401 48.1348 8.73511 47.6738 8.73511C47.0371 8.73511 46.5195 8.96362 46.1211 9.42065C45.7266 9.87769 45.5293 10.6179 45.5293 11.6414C45.5293 12.7273 45.7246 13.5007 46.1152 13.9617C46.5059 14.4226 47.0137 14.6531 47.6387 14.6531C48.0996 14.6531 48.4961 14.5066 48.8281 14.2136C49.1602 13.9207 49.3984 13.4597 49.543 12.8308Z" fill="white"/>
<defs>
<linearGradient id="paint0_linear_67_1822" x1="30.5" y1="1.98901" x2="30.5" y2="21.989" gradientUnits="userSpaceOnUse">
<stop stop-color="#FF9FBF"/>
<stop offset="1" stop-color="#06748E"/>
</linearGradient>
</defs>
</svg>
