<svg width="37" height="24" viewBox="0 0 37 24" fill="none" xmlns="http://www.w3.org/2000/svg">
<rect x="2" y="1.98901" width="34" height="20" rx="10" fill="#25255E"/>
<rect x="2" y="1.98901" width="34" height="20" rx="10" stroke="#C593DB" stroke-width="3" stroke-linejoin="round"/>
<path d="M10.1465 15.989V7.39917H11.8809V15.989H10.1465ZM13.5449 15.989V7.39917H17.1953C18.1133 7.39917 18.7793 7.47729 19.1934 7.63354C19.6113 7.78589 19.9453 8.05933 20.1953 8.45386C20.4453 8.84839 20.5703 9.29956 20.5703 9.80737C20.5703 10.4519 20.3809 10.9851 20.002 11.407C19.623 11.825 19.0566 12.0886 18.3027 12.198C18.6777 12.4167 18.9863 12.657 19.2285 12.9187C19.4746 13.1804 19.8047 13.6453 20.2188 14.3132L21.2676 15.989H19.1934L17.9395 14.1199C17.4941 13.4519 17.1895 13.032 17.0254 12.8601C16.8613 12.6843 16.6875 12.5652 16.5039 12.5027C16.3203 12.4363 16.0293 12.4031 15.6309 12.4031H15.2793V15.989H13.5449ZM15.2793 11.032H16.5625C17.3945 11.032 17.9141 10.9968 18.1211 10.9265C18.3281 10.8562 18.4902 10.7351 18.6074 10.5632C18.7246 10.3914 18.7832 10.1765 18.7832 9.9187C18.7832 9.62964 18.7051 9.39722 18.5488 9.22144C18.3965 9.04175 18.1797 8.92847 17.8984 8.88159C17.7578 8.86206 17.3359 8.85229 16.6328 8.85229H15.2793V11.032ZM22.2227 15.989V7.39917H28.1113V8.85229H23.957V10.8855H27.543V12.3386H23.957V15.989H22.2227Z" fill="white"/>
</svg>
