<svg width="50" height="24" viewBox="0 0 50 24" fill="none" xmlns="http://www.w3.org/2000/svg">
<rect x="2" y="1.98901" width="47" height="20" rx="10" fill="url(#paint0_linear_37_1580)"/>
<rect x="2" y="1.98901" width="47" height="20" rx="10" stroke="#433E57" stroke-width="3" stroke-linejoin="round"/>
<path d="M10.3652 7.39917H13.7988C14.4785 7.39917 14.9844 7.42847 15.3164 7.48706C15.6523 7.54175 15.9512 7.65894 16.2129 7.83862C16.4785 8.01831 16.6992 8.25854 16.875 8.55933C17.0508 8.8562 17.1387 9.19019 17.1387 9.56128C17.1387 9.96362 17.0293 10.3328 16.8105 10.6687C16.5957 11.0046 16.3027 11.2566 15.9316 11.4246C16.4551 11.5769 16.8574 11.8367 17.1387 12.2039C17.4199 12.571 17.5605 13.0027 17.5605 13.4988C17.5605 13.8894 17.4688 14.2703 17.2852 14.6414C17.1055 15.0085 16.8574 15.3035 16.541 15.5261C16.2285 15.7449 15.8418 15.8796 15.3809 15.9304C15.0918 15.9617 14.3945 15.9812 13.2891 15.989H10.3652V7.39917ZM12.0996 8.82886V10.8152H13.2363C13.9121 10.8152 14.332 10.8054 14.4961 10.7859C14.793 10.7507 15.0254 10.6492 15.1934 10.4812C15.3652 10.3093 15.4512 10.0847 15.4512 9.80737C15.4512 9.54175 15.377 9.3269 15.2285 9.16284C15.084 8.99487 14.8672 8.89331 14.5781 8.85815C14.4062 8.83862 13.9121 8.82886 13.0957 8.82886H12.0996ZM12.0996 12.2449V14.5417H13.7051C14.3301 14.5417 14.7266 14.5242 14.8945 14.489C15.1523 14.4421 15.3613 14.3289 15.5215 14.1492C15.6855 13.9656 15.7676 13.7214 15.7676 13.4167C15.7676 13.1589 15.7051 12.9402 15.5801 12.7605C15.4551 12.5808 15.2734 12.45 15.0352 12.3679C14.8008 12.2859 14.2891 12.2449 13.5 12.2449H12.0996ZM20.9648 15.989V8.85229H18.416V7.39917H25.2422V8.85229H22.6992V15.989H20.9648ZM30.3633 12.8308V11.3835H34.1016V14.8054C33.7383 15.157 33.2109 15.4675 32.5195 15.7371C31.832 16.0027 31.1348 16.1355 30.4277 16.1355C29.5293 16.1355 28.7461 15.948 28.0781 15.573C27.4102 15.1941 26.9082 14.655 26.5723 13.9558C26.2363 13.2527 26.0684 12.489 26.0684 11.6648C26.0684 10.7703 26.2559 9.97534 26.6309 9.28003C27.0059 8.58472 27.5547 8.05151 28.2773 7.68042C28.8281 7.39526 29.5137 7.25269 30.334 7.25269C31.4004 7.25269 32.2324 7.47729 32.8301 7.92651C33.4316 8.37183 33.8184 8.98901 33.9902 9.77808L32.2676 10.1003C32.1465 9.67847 31.918 9.34644 31.582 9.10425C31.25 8.85815 30.834 8.73511 30.334 8.73511C29.5762 8.73511 28.9727 8.97534 28.5234 9.45581C28.0781 9.93628 27.8555 10.6492 27.8555 11.5945C27.8555 12.614 28.082 13.3796 28.5352 13.8914C28.9883 14.3992 29.582 14.6531 30.3164 14.6531C30.6797 14.6531 31.043 14.5828 31.4062 14.4421C31.7734 14.2976 32.0879 14.1238 32.3496 13.9207V12.8308H30.3633ZM38.5723 15.989V14.2605H35.0566V12.8191L38.7832 7.36401H40.166V12.8132H41.2324V14.2605H40.166V15.989H38.5723ZM38.5723 12.8132V9.87769L36.5977 12.8132H38.5723Z" fill="white"/>
<defs>
<linearGradient id="paint0_linear_37_1580" x1="25.5" y1="1.98901" x2="25.5" y2="21.989" gradientUnits="userSpaceOnUse">
<stop stop-color="#C077AE"/>
<stop offset="1" stop-color="#433E57"/>
</linearGradient>
</defs>
</svg>
