<svg width="51" height="24" viewBox="0 0 51 24" fill="none" xmlns="http://www.w3.org/2000/svg">
<rect x="2" y="1.98901" width="48" height="20" rx="10" fill="url(#paint0_linear_64_1867)"/>
<rect x="2" y="1.98901" width="48" height="20" rx="10" stroke="#FF6D1D" stroke-width="3" stroke-linejoin="round"/>
<path d="M10.2148 15.989V7.39917H11.9023L15.418 13.1355V7.39917H17.0293V15.989H15.2891L11.8262 10.3875V15.989H10.2148ZM22.8652 12.8308V11.3835H26.6035V14.8054C26.2402 15.157 25.7129 15.4675 25.0215 15.7371C24.334 16.0027 23.6367 16.1355 22.9297 16.1355C22.0312 16.1355 21.248 15.948 20.5801 15.573C19.9121 15.1941 19.4102 14.655 19.0742 13.9558C18.7383 13.2527 18.5703 12.489 18.5703 11.6648C18.5703 10.7703 18.7578 9.97534 19.1328 9.28003C19.5078 8.58472 20.0566 8.05151 20.7793 7.68042C21.3301 7.39526 22.0156 7.25269 22.8359 7.25269C23.9023 7.25269 24.7344 7.47729 25.332 7.92651C25.9336 8.37183 26.3203 8.98901 26.4922 9.77808L24.7695 10.1003C24.6484 9.67847 24.4199 9.34644 24.084 9.10425C23.752 8.85815 23.3359 8.73511 22.8359 8.73511C22.0781 8.73511 21.4746 8.97534 21.0254 9.45581C20.5801 9.93628 20.3574 10.6492 20.3574 11.5945C20.3574 12.614 20.584 13.3796 21.0371 13.8914C21.4902 14.3992 22.084 14.6531 22.8184 14.6531C23.1816 14.6531 23.5449 14.5828 23.9082 14.4421C24.2754 14.2976 24.5898 14.1238 24.8516 13.9207V12.8308H22.8652ZM28.209 15.989V7.39917H34.5781V8.85229H29.9434V10.7566H34.2559V12.2039H29.9434V14.5417H34.7422V15.989H28.209ZM36.2246 15.989V7.39917H42.1133V8.85229H37.959V10.8855H41.5449V12.3386H37.959V15.989H36.2246Z" fill="white"/>
<defs>
<linearGradient id="paint0_linear_64_1867" x1="26" y1="1.98901" x2="26" y2="21.989" gradientUnits="userSpaceOnUse">
<stop stop-color="#FF6D1D"/>
<stop offset="1" stop-color="#00304A"/>
</linearGradient>
</defs>
</svg>
