<svg width="67" height="24" viewBox="0 0 67 24" fill="none" xmlns="http://www.w3.org/2000/svg">
<rect x="1" y="1.98901" width="65" height="20" rx="10" fill="url(#paint0_linear_52_1881)"/>
<rect x="1" y="1.98901" width="65" height="20" rx="10" stroke="#FFD400" stroke-width="3" stroke-linejoin="round"/>
<path d="M9.18359 15.989V7.46948H10.918V14.5417H15.2305V15.989H9.18359ZM16.4199 15.989V7.39917H18.1543V15.989H16.4199ZM19.8125 15.989V7.39917H22.5957C23.6504 7.39917 24.3379 7.44214 24.6582 7.52808C25.1504 7.65698 25.5625 7.93823 25.8945 8.37183C26.2266 8.80151 26.3926 9.35815 26.3926 10.0417C26.3926 10.5691 26.2969 11.0125 26.1055 11.3718C25.9141 11.7312 25.6699 12.0144 25.373 12.2214C25.0801 12.4246 24.7812 12.5593 24.4766 12.6257C24.0625 12.7078 23.4629 12.7488 22.6777 12.7488H21.5469V15.989H19.8125ZM21.5469 8.85229V11.2898H22.4961C23.1797 11.2898 23.6367 11.2449 23.8672 11.155C24.0977 11.0652 24.2773 10.9246 24.4062 10.7332C24.5391 10.5417 24.6055 10.3191 24.6055 10.0652C24.6055 9.75269 24.5137 9.49487 24.3301 9.29175C24.1465 9.08862 23.9141 8.96167 23.6328 8.91089C23.4258 8.87183 23.0098 8.85229 22.3848 8.85229H21.5469ZM34.6719 15.989H32.7852L32.0352 14.0378H28.6016L27.8926 15.989H26.0527L29.3984 7.39917H31.2324L34.6719 15.989ZM31.4785 12.5906L30.2949 9.40308L29.1348 12.5906H31.4785ZM35.1582 13.1941L36.8457 13.03C36.9473 13.5964 37.1523 14.0125 37.4609 14.2781C37.7734 14.5437 38.1934 14.6765 38.7207 14.6765C39.2793 14.6765 39.6992 14.5593 39.9805 14.325C40.2656 14.0867 40.4082 13.8093 40.4082 13.4929C40.4082 13.2898 40.3477 13.1179 40.2266 12.9773C40.1094 12.8328 39.9023 12.7078 39.6055 12.6023C39.4023 12.532 38.9395 12.407 38.2168 12.2273C37.2871 11.9968 36.6348 11.7136 36.2598 11.3777C35.7324 10.905 35.4688 10.3289 35.4688 9.64917C35.4688 9.21167 35.5918 8.80347 35.8379 8.42456C36.0879 8.04175 36.4453 7.75073 36.9102 7.55151C37.3789 7.35229 37.9434 7.25269 38.6035 7.25269C39.6816 7.25269 40.4922 7.48901 41.0352 7.96167C41.582 8.43433 41.8691 9.06519 41.8965 9.85425L40.1621 9.93042C40.0879 9.48901 39.9277 9.17261 39.6816 8.9812C39.4395 8.78589 39.0742 8.68823 38.5859 8.68823C38.082 8.68823 37.6875 8.79175 37.4023 8.99878C37.2188 9.13159 37.127 9.30933 37.127 9.53198C37.127 9.73511 37.2129 9.90894 37.3848 10.0535C37.6035 10.2371 38.1348 10.4285 38.9785 10.6277C39.8223 10.8269 40.4453 11.0339 40.8477 11.2488C41.2539 11.4597 41.5703 11.7507 41.7969 12.1218C42.0273 12.489 42.1426 12.9441 42.1426 13.4871C42.1426 13.9792 42.0059 14.4402 41.7324 14.8699C41.459 15.2996 41.0723 15.6199 40.5723 15.8308C40.0723 16.0378 39.4492 16.1414 38.7031 16.1414C37.6172 16.1414 36.7832 15.8914 36.2012 15.3914C35.6191 14.8875 35.2715 14.155 35.1582 13.1941ZM43.6016 15.989V7.39917H49.9707V8.85229H45.3359V10.7566H49.6484V12.2039H45.3359V14.5417H50.1348V15.989H43.6016ZM51.166 13.1941L52.8535 13.03C52.9551 13.5964 53.1602 14.0125 53.4688 14.2781C53.7812 14.5437 54.2012 14.6765 54.7285 14.6765C55.2871 14.6765 55.707 14.5593 55.9883 14.325C56.2734 14.0867 56.416 13.8093 56.416 13.4929C56.416 13.2898 56.3555 13.1179 56.2344 12.9773C56.1172 12.8328 55.9102 12.7078 55.6133 12.6023C55.4102 12.532 54.9473 12.407 54.2246 12.2273C53.2949 11.9968 52.6426 11.7136 52.2676 11.3777C51.7402 10.905 51.4766 10.3289 51.4766 9.64917C51.4766 9.21167 51.5996 8.80347 51.8457 8.42456C52.0957 8.04175 52.4531 7.75073 52.918 7.55151C53.3867 7.35229 53.9512 7.25269 54.6113 7.25269C55.6895 7.25269 56.5 7.48901 57.043 7.96167C57.5898 8.43433 57.877 9.06519 57.9043 9.85425L56.1699 9.93042C56.0957 9.48901 55.9355 9.17261 55.6895 8.9812C55.4473 8.78589 55.082 8.68823 54.5938 8.68823C54.0898 8.68823 53.6953 8.79175 53.4102 8.99878C53.2266 9.13159 53.1348 9.30933 53.1348 9.53198C53.1348 9.73511 53.2207 9.90894 53.3926 10.0535C53.6113 10.2371 54.1426 10.4285 54.9863 10.6277C55.8301 10.8269 56.4531 11.0339 56.8555 11.2488C57.2617 11.4597 57.5781 11.7507 57.8047 12.1218C58.0352 12.489 58.1504 12.9441 58.1504 13.4871C58.1504 13.9792 58.0137 14.4402 57.7402 14.8699C57.4668 15.2996 57.0801 15.6199 56.5801 15.8308C56.0801 16.0378 55.457 16.1414 54.7109 16.1414C53.625 16.1414 52.791 15.8914 52.209 15.3914C51.627 14.8875 51.2793 14.155 51.166 13.1941Z" fill="white"/>
<defs>
<linearGradient id="paint0_linear_52_1881" x1="33.5" y1="1.98901" x2="33.5" y2="21.989" gradientUnits="userSpaceOnUse">
<stop stop-color="#FFD400"/>
<stop offset="1" stop-color="#8C0000"/>
</linearGradient>
</defs>
</svg>
