<svg width="40" height="24" viewBox="0 0 40 24" fill="none" xmlns="http://www.w3.org/2000/svg">
<rect x="2" y="1.98901" width="37" height="20" rx="10" fill="url(#paint0_linear_66_2019)"/>
<rect x="2" y="1.98901" width="37" height="20" rx="10" stroke="#3A89F4" stroke-width="3" stroke-linejoin="round"/>
<path d="M10.0293 15.989V7.39917H12.8125C13.8672 7.39917 14.5547 7.44214 14.875 7.52808C15.3672 7.65698 15.7793 7.93823 16.1113 8.37183C16.4434 8.80151 16.6094 9.35815 16.6094 10.0417C16.6094 10.5691 16.5137 11.0125 16.3223 11.3718C16.1309 11.7312 15.8867 12.0144 15.5898 12.2214C15.2969 12.4246 14.998 12.5593 14.6934 12.6257C14.2793 12.7078 13.6797 12.7488 12.8945 12.7488H11.7637V15.989H10.0293ZM11.7637 8.85229V11.2898H12.7129C13.3965 11.2898 13.8535 11.2449 14.084 11.155C14.3145 11.0652 14.4941 10.9246 14.623 10.7332C14.7559 10.5417 14.8223 10.3191 14.8223 10.0652C14.8223 9.75269 14.7305 9.49487 14.5469 9.29175C14.3633 9.08862 14.1309 8.96167 13.8496 8.91089C13.6426 8.87183 13.2266 8.85229 12.6016 8.85229H11.7637ZM18.0332 15.989V7.39917H20.8164C21.8711 7.39917 22.5586 7.44214 22.8789 7.52808C23.3711 7.65698 23.7832 7.93823 24.1152 8.37183C24.4473 8.80151 24.6133 9.35815 24.6133 10.0417C24.6133 10.5691 24.5176 11.0125 24.3262 11.3718C24.1348 11.7312 23.8906 12.0144 23.5938 12.2214C23.3008 12.4246 23.002 12.5593 22.6973 12.6257C22.2832 12.7078 21.6836 12.7488 20.8984 12.7488H19.7676V15.989H18.0332ZM19.7676 8.85229V11.2898H20.7168C21.4004 11.2898 21.8574 11.2449 22.0879 11.155C22.3184 11.0652 22.498 10.9246 22.627 10.7332C22.7598 10.5417 22.8262 10.3191 22.8262 10.0652C22.8262 9.75269 22.7344 9.49487 22.5508 9.29175C22.3672 9.08862 22.1348 8.96167 21.8535 8.91089C21.6465 8.87183 21.2305 8.85229 20.6055 8.85229H19.7676ZM29.8867 15.989H28.2402V9.78394C27.6387 10.3464 26.9297 10.7625 26.1133 11.032V9.53784C26.543 9.39722 27.0098 9.13159 27.5137 8.74097C28.0176 8.34644 28.3633 7.88745 28.5508 7.36401H29.8867V15.989Z" fill="white"/>
<defs>
<linearGradient id="paint0_linear_66_2019" x1="20.5" y1="1.98901" x2="20.5" y2="21.989" gradientUnits="userSpaceOnUse">
<stop stop-color="#3A89F4"/>
<stop offset="1" stop-color="#3B27FF"/>
</linearGradient>
</defs>
</svg>
