<svg width="19" height="50" viewBox="0 0 19 50" fill="none" xmlns="http://www.w3.org/2000/svg">
<path d="M18.9043 10.1873V45.5818C18.9043 47.5144 17.3369 49.0818 15.4043 49.0818C13.4717 49.0818 11.9043 47.5144 11.9043 45.5818V10.1873C11.9043 9.1521 11.6631 8.3572 11.2061 7.8894C10.7802 7.4548 10.2412 7.3894 9.95803 7.3894C9.59573 7.3894 7.78613 7.5251 7.78613 10.1873C7.78613 12.1199 6.21873 13.6873 4.28613 13.6873C2.35353 13.6873 0.786133 12.1199 0.786133 10.1873C0.786133 3.824 5.51173 0.389404 9.95803 0.389404C12.3476 0.389404 14.5693 1.3162 16.2129 2.9978C17.4404 4.2546 18.9043 6.5222 18.9043 10.1873Z" fill="url(#paint0_linear_86_3451)"/>
<defs>
<linearGradient id="paint0_linear_86_3451" x1="9.84513" y1="49.0818" x2="9.84513" y2="0.389404" gradientUnits="userSpaceOnUse">
<stop stop-color="#7300D4"/>
<stop offset="1" stop-color="#22003D"/>
</linearGradient>
</defs>
</svg>
