<svg width="59" height="24" viewBox="0 0 59 24" fill="none" xmlns="http://www.w3.org/2000/svg">
<rect x="2" y="1.98901" width="56" height="20" rx="10" fill="url(#paint0_linear_40_2564)"/>
<rect x="2" y="1.98901" width="56" height="20" rx="10" stroke="#765EB6" stroke-width="3" stroke-linejoin="round"/>
<path d="M10.1895 7.39917H13.3594C14.0742 7.39917 14.6191 7.45386 14.9941 7.56323C15.498 7.71167 15.9297 7.97534 16.2891 8.35425C16.6484 8.73315 16.9219 9.198 17.1094 9.74878C17.2969 10.2957 17.3906 10.9714 17.3906 11.7761C17.3906 12.4832 17.3027 13.0925 17.127 13.6042C16.9121 14.2292 16.6055 14.7351 16.207 15.1218C15.9062 15.4148 15.5 15.6433 14.9883 15.8074C14.6055 15.9285 14.0938 15.989 13.4531 15.989H10.1895V7.39917ZM11.9238 8.85229V14.5417H13.2188C13.7031 14.5417 14.0527 14.5144 14.2676 14.4597C14.5488 14.3894 14.7812 14.2703 14.9648 14.1023C15.1523 13.9343 15.3047 13.6589 15.4219 13.2761C15.5391 12.8894 15.5977 12.364 15.5977 11.7C15.5977 11.0359 15.5391 10.5261 15.4219 10.1707C15.3047 9.81519 15.1406 9.53784 14.9297 9.33862C14.7188 9.1394 14.4512 9.00464 14.127 8.93433C13.8848 8.87964 13.4102 8.85229 12.7031 8.85229H11.9238ZM18.8848 15.989V7.39917H20.5723L24.0879 13.1355V7.39917H25.6992V15.989H23.959L20.4961 10.3875V15.989H18.8848ZM27.5156 15.989V7.39917H30.1113L31.6699 13.2585L33.2109 7.39917H35.8125V15.989H34.2012V9.22729L32.4961 15.989H30.8262L29.127 9.22729V15.989H27.5156ZM39.4688 15.989V8.85229H36.9199V7.39917H43.7461V8.85229H41.2031V15.989H39.4688ZM48.7207 15.989H47.0742V9.78394C46.4727 10.3464 45.7637 10.7625 44.9473 11.032V9.53784C45.377 9.39722 45.8438 9.13159 46.3477 8.74097C46.8516 8.34644 47.1973 7.88745 47.3848 7.36401H48.7207V15.989Z" fill="white"/>
<defs>
<linearGradient id="paint0_linear_40_2564" x1="30" y1="1.98901" x2="30" y2="21.989" gradientUnits="userSpaceOnUse">
<stop stop-color="#765EB6"/>
<stop offset="1" stop-color="#1CFFA3"/>
</linearGradient>
</defs>
</svg>
