<svg width="66" height="36" viewBox="0 0 66 36" fill="none" xmlns="http://www.w3.org/2000/svg">
<rect x="2" y="1.98901" width="63" height="32" rx="10" fill="url(#paint0_linear_35_1484)"/>
<rect x="2" y="1.98901" width="63" height="32" rx="10" stroke="#4A00B8" stroke-width="3" stroke-linejoin="round"/>
<path d="M23.4395 14.989H21.5527L20.8027 13.0378H17.3691L16.6602 14.989H14.8203L18.166 6.39917H20L23.4395 14.989ZM20.2461 11.5906L19.0625 8.40308L17.9023 11.5906H20.2461ZM24.3652 14.989V6.39917H27.1484C28.2031 6.39917 28.8906 6.44214 29.2109 6.52808C29.7031 6.65698 30.1152 6.93823 30.4473 7.37183C30.7793 7.80151 30.9453 8.35815 30.9453 9.04175C30.9453 9.56909 30.8496 10.0125 30.6582 10.3718C30.4668 10.7312 30.2227 11.0144 29.9258 11.2214C29.6328 11.4246 29.334 11.5593 29.0293 11.6257C28.6152 11.7078 28.0156 11.7488 27.2305 11.7488H26.0996V14.989H24.3652ZM26.0996 7.85229V10.2898H27.0488C27.7324 10.2898 28.1895 10.2449 28.4199 10.155C28.6504 10.0652 28.8301 9.92456 28.959 9.73315C29.0918 9.54175 29.1582 9.31909 29.1582 9.06519C29.1582 8.75269 29.0664 8.49487 28.8828 8.29175C28.6992 8.08862 28.4668 7.96167 28.1855 7.91089C27.9785 7.87183 27.5625 7.85229 26.9375 7.85229H26.0996ZM37.8652 11.8308L39.5469 12.364C39.2891 13.3015 38.8594 13.9988 38.2578 14.4558C37.6602 14.9089 36.9004 15.1355 35.9785 15.1355C34.8379 15.1355 33.9004 14.7468 33.166 13.9695C32.4316 13.1882 32.0645 12.1218 32.0645 10.7703C32.0645 9.34058 32.4336 8.2312 33.1719 7.44214C33.9102 6.64917 34.8809 6.25269 36.084 6.25269C37.1348 6.25269 37.9883 6.56323 38.6445 7.18433C39.0352 7.55151 39.3281 8.07886 39.5234 8.76636L37.8066 9.17651C37.7051 8.7312 37.4922 8.37964 37.168 8.12183C36.8477 7.86401 36.457 7.73511 35.9961 7.73511C35.3594 7.73511 34.8418 7.96362 34.4434 8.42065C34.0488 8.87769 33.8516 9.61792 33.8516 10.6414C33.8516 11.7273 34.0469 12.5007 34.4375 12.9617C34.8281 13.4226 35.3359 13.6531 35.9609 13.6531C36.4219 13.6531 36.8184 13.5066 37.1504 13.2136C37.4824 12.9207 37.7207 12.4597 37.8652 11.8308ZM40.1504 15.1355L42.2773 6.25269H43.5137L41.3633 15.1355H40.1504ZM49.877 11.8308L51.5586 12.364C51.3008 13.3015 50.8711 13.9988 50.2695 14.4558C49.6719 14.9089 48.9121 15.1355 47.9902 15.1355C46.8496 15.1355 45.9121 14.7468 45.1777 13.9695C44.4434 13.1882 44.0762 12.1218 44.0762 10.7703C44.0762 9.34058 44.4453 8.2312 45.1836 7.44214C45.9219 6.64917 46.8926 6.25269 48.0957 6.25269C49.1465 6.25269 50 6.56323 50.6562 7.18433C51.0469 7.55151 51.3398 8.07886 51.5352 8.76636L49.8184 9.17651C49.7168 8.7312 49.5039 8.37964 49.1797 8.12183C48.8594 7.86401 48.4688 7.73511 48.0078 7.73511C47.3711 7.73511 46.8535 7.96362 46.4551 8.42065C46.0605 8.87769 45.8633 9.61792 45.8633 10.6414C45.8633 11.7273 46.0586 12.5007 46.4492 12.9617C46.8398 13.4226 47.3477 13.6531 47.9727 13.6531C48.4336 13.6531 48.8301 13.5066 49.1621 13.2136C49.4941 12.9207 49.7324 12.4597 49.877 11.8308ZM15.4238 24.6062L13.8008 24.8992C13.7461 24.575 13.6211 24.3308 13.4258 24.1667C13.2344 24.0027 12.9844 23.9207 12.6758 23.9207C12.2656 23.9207 11.9375 24.0632 11.6914 24.3484C11.4492 24.6296 11.3281 25.1023 11.3281 25.7664C11.3281 26.5046 11.4512 27.0261 11.6973 27.3308C11.9473 27.6355 12.2812 27.7878 12.6992 27.7878C13.0117 27.7878 13.2676 27.7 13.4668 27.5242C13.666 27.3445 13.8066 27.0378 13.8887 26.6042L15.5059 26.8796C15.3379 27.6218 15.0156 28.1824 14.5391 28.5613C14.0625 28.9402 13.4238 29.1296 12.623 29.1296C11.7129 29.1296 10.9863 28.8425 10.4434 28.2683C9.9043 27.6941 9.63477 26.8992 9.63477 25.8835C9.63477 24.8562 9.90625 24.0574 10.4492 23.4871C10.9922 22.9128 11.7266 22.6257 12.6523 22.6257C13.4102 22.6257 14.0117 22.7898 14.457 23.1179C14.9062 23.4421 15.2285 23.9382 15.4238 24.6062ZM16.2969 25.7898C16.2969 25.2429 16.4316 24.7136 16.7012 24.2019C16.9707 23.6902 17.3516 23.2996 17.8438 23.03C18.3398 22.7605 18.8926 22.6257 19.502 22.6257C20.4434 22.6257 21.2148 22.9324 21.8164 23.5457C22.418 24.155 22.7188 24.9265 22.7188 25.8601C22.7188 26.8015 22.4141 27.5828 21.8047 28.2039C21.1992 28.821 20.4355 29.1296 19.5137 29.1296C18.9434 29.1296 18.3984 29.0007 17.8789 28.7429C17.3633 28.4851 16.9707 28.1082 16.7012 27.6121C16.4316 27.1121 16.2969 26.5046 16.2969 25.7898ZM17.9844 25.8777C17.9844 26.4949 18.1309 26.9675 18.4238 27.2957C18.7168 27.6238 19.0781 27.7878 19.5078 27.7878C19.9375 27.7878 20.2969 27.6238 20.5859 27.2957C20.8789 26.9675 21.0254 26.491 21.0254 25.866C21.0254 25.2566 20.8789 24.7878 20.5859 24.4597C20.2969 24.1316 19.9375 23.9675 19.5078 23.9675C19.0781 23.9675 18.7168 24.1316 18.4238 24.4597C18.1309 24.7878 17.9844 25.2605 17.9844 25.8777ZM23.8906 22.7664H25.4082V23.616C25.9512 22.9558 26.5977 22.6257 27.3477 22.6257C27.7461 22.6257 28.0918 22.7078 28.3848 22.8718C28.6777 23.0359 28.918 23.2839 29.1055 23.616C29.3789 23.2839 29.6738 23.0359 29.9902 22.8718C30.3066 22.7078 30.6445 22.6257 31.0039 22.6257C31.4609 22.6257 31.8477 22.7195 32.1641 22.907C32.4805 23.0906 32.7168 23.3621 32.873 23.7214C32.9863 23.9871 33.043 24.4167 33.043 25.0105V28.989H31.3965V25.4324C31.3965 24.8152 31.3398 24.4167 31.2266 24.2371C31.0742 24.0027 30.8398 23.8855 30.5234 23.8855C30.293 23.8855 30.0762 23.9558 29.873 24.0964C29.6699 24.2371 29.5234 24.4441 29.4336 24.7175C29.3438 24.9871 29.2988 25.4148 29.2988 26.0007V28.989H27.6523V25.5789C27.6523 24.9734 27.623 24.5828 27.5645 24.407C27.5059 24.2312 27.4141 24.1003 27.2891 24.0144C27.168 23.9285 27.002 23.8855 26.791 23.8855C26.5371 23.8855 26.3086 23.9539 26.1055 24.0906C25.9023 24.2273 25.7559 24.4246 25.666 24.6824C25.5801 24.9402 25.5371 25.3679 25.5371 25.9656V28.989H23.8906V22.7664ZM34.6426 22.7664H36.1777V23.6804C36.377 23.3679 36.6465 23.114 36.9863 22.9187C37.3262 22.7234 37.7031 22.6257 38.1172 22.6257C38.8398 22.6257 39.4531 22.9089 39.957 23.4753C40.4609 24.0417 40.7129 24.8308 40.7129 25.8425C40.7129 26.8816 40.459 27.6902 39.9512 28.2683C39.4434 28.8425 38.8281 29.1296 38.1055 29.1296C37.7617 29.1296 37.4492 29.0613 37.168 28.9246C36.8906 28.7878 36.5977 28.5535 36.2891 28.2214V31.3562H34.6426V22.7664ZM36.2715 25.7722C36.2715 26.4714 36.4102 26.989 36.6875 27.325C36.9648 27.657 37.3027 27.823 37.7012 27.823C38.084 27.823 38.4023 27.6707 38.6562 27.366C38.9102 27.0574 39.0371 26.5535 39.0371 25.8542C39.0371 25.2019 38.9062 24.7175 38.6445 24.4011C38.3828 24.0847 38.0586 23.9265 37.6719 23.9265C37.2695 23.9265 36.9355 24.0828 36.6699 24.3953C36.4043 24.7039 36.2715 25.1628 36.2715 25.7722ZM42.0254 28.989V20.3992H43.6719V28.989H42.0254ZM48.9688 27.0085L50.6094 27.2839C50.3984 27.8855 50.0645 28.3445 49.6074 28.6609C49.1543 28.9734 48.5859 29.1296 47.9023 29.1296C46.8203 29.1296 46.0195 28.7761 45.5 28.0691C45.0898 27.5027 44.8848 26.7878 44.8848 25.9246C44.8848 24.8933 45.1543 24.0867 45.6934 23.5046C46.2324 22.9187 46.9141 22.6257 47.7383 22.6257C48.6641 22.6257 49.3945 22.9324 49.9297 23.5457C50.4648 24.155 50.7207 25.0906 50.6973 26.3523H46.5723C46.584 26.8406 46.7168 27.2214 46.9707 27.4949C47.2246 27.7644 47.541 27.8992 47.9199 27.8992C48.1777 27.8992 48.3945 27.8289 48.5703 27.6882C48.7461 27.5476 48.8789 27.321 48.9688 27.0085ZM49.0625 25.3445C49.0508 24.8679 48.9277 24.5066 48.6934 24.2605C48.459 24.0105 48.1738 23.8855 47.8379 23.8855C47.4785 23.8855 47.1816 24.0164 46.9473 24.2781C46.7129 24.5398 46.5977 24.8953 46.6016 25.3445H49.0625ZM51.2539 28.989L53.498 25.7839L51.3477 22.7664H53.3574L54.459 24.4773L55.6191 22.7664H57.5527L55.4434 25.7136L57.7461 28.989H55.7246L54.459 27.0613L53.1816 28.989H51.2539Z" fill="white"/>
<defs>
<linearGradient id="paint0_linear_35_1484" x1="33.5" y1="1.98901" x2="33.5" y2="33.989" gradientUnits="userSpaceOnUse">
<stop stop-color="#4A00B8"/>
<stop offset="1" stop-color="#C286D1"/>
</linearGradient>
</defs>
</svg>
