<svg width="75" height="24" viewBox="0 0 75 24" fill="none" xmlns="http://www.w3.org/2000/svg">
<rect x="1" y="1.98901" width="73" height="20" rx="10" fill="url(#paint0_linear_52_1858)"/>
<rect x="1" y="1.98901" width="73" height="20" rx="10" stroke="#2764E0" stroke-width="3" stroke-linejoin="round"/>
<path d="M8.98828 15.989V7.39917H11.584L13.1426 13.2585L14.6836 7.39917H17.2852V15.989H15.6738V9.22729L13.9688 15.989H12.2988L10.5996 9.22729V15.989H8.98828ZM26.7539 15.989H24.8672L24.1172 14.0378H20.6836L19.9746 15.989H18.1348L21.4805 7.39917H23.3145L26.7539 15.989ZM23.5605 12.5906L22.377 9.40308L21.2168 12.5906H23.5605ZM27.6797 15.989V7.39917H30.4629C31.5176 7.39917 32.2051 7.44214 32.5254 7.52808C33.0176 7.65698 33.4297 7.93823 33.7617 8.37183C34.0938 8.80151 34.2598 9.35815 34.2598 10.0417C34.2598 10.5691 34.1641 11.0125 33.9727 11.3718C33.7812 11.7312 33.5371 12.0144 33.2402 12.2214C32.9473 12.4246 32.6484 12.5593 32.3438 12.6257C31.9297 12.7078 31.3301 12.7488 30.5449 12.7488H29.4141V15.989H27.6797ZM29.4141 8.85229V11.2898H30.3633C31.0469 11.2898 31.5039 11.2449 31.7344 11.155C31.9648 11.0652 32.1445 10.9246 32.2734 10.7332C32.4062 10.5417 32.4727 10.3191 32.4727 10.0652C32.4727 9.75269 32.3809 9.49487 32.1973 9.29175C32.0137 9.08862 31.7812 8.96167 31.5 8.91089C31.293 8.87183 30.877 8.85229 30.252 8.85229H29.4141ZM40.8809 14.4597V15.989H35.1094C35.1719 15.4109 35.3594 14.864 35.6719 14.3484C35.9844 13.8289 36.6016 13.1414 37.5234 12.2859C38.2656 11.5945 38.7207 11.1257 38.8887 10.8796C39.1152 10.5398 39.2285 10.2039 39.2285 9.87183C39.2285 9.50464 39.1289 9.22339 38.9297 9.02808C38.7344 8.82886 38.4629 8.72925 38.1152 8.72925C37.7715 8.72925 37.498 8.83276 37.2949 9.03979C37.0918 9.24683 36.9746 9.59058 36.9434 10.071L35.3027 9.90698C35.4004 9.00073 35.707 8.35034 36.2227 7.95581C36.7383 7.56128 37.3828 7.36401 38.1562 7.36401C39.0039 7.36401 39.6699 7.59253 40.1543 8.04956C40.6387 8.50659 40.8809 9.07495 40.8809 9.75464C40.8809 10.1414 40.8105 10.5105 40.6699 10.8621C40.5332 11.2097 40.3145 11.575 40.0137 11.9578C39.8145 12.2117 39.4551 12.5769 38.9355 13.0535C38.416 13.53 38.0859 13.8464 37.9453 14.0027C37.8086 14.1589 37.6973 14.3113 37.6113 14.4597H40.8809ZM42.3867 15.989V7.39917H44.1211V11.2136L47.625 7.39917H49.957L46.7227 10.7449L50.1328 15.989H47.8887L45.5273 11.9578L44.1211 13.3933V15.989H42.3867ZM50.6133 13.7097L52.207 13.5164C52.2578 13.9226 52.3945 14.2332 52.6172 14.448C52.8398 14.6628 53.1094 14.7703 53.4258 14.7703C53.7656 14.7703 54.0508 14.6414 54.2812 14.3835C54.5156 14.1257 54.6328 13.7781 54.6328 13.3406C54.6328 12.9265 54.5215 12.5984 54.2988 12.3562C54.0762 12.114 53.8047 11.9929 53.4844 11.9929C53.2734 11.9929 53.0215 12.0339 52.7285 12.116L52.9102 10.7742C53.3555 10.7859 53.6953 10.6902 53.9297 10.4871C54.1641 10.28 54.2812 10.0066 54.2812 9.66675C54.2812 9.37769 54.1953 9.14722 54.0234 8.97534C53.8516 8.80347 53.623 8.71753 53.3379 8.71753C53.0566 8.71753 52.8164 8.81519 52.6172 9.0105C52.418 9.20581 52.2969 9.49097 52.2539 9.86597L50.7363 9.60815C50.8418 9.08862 51 8.67456 51.2109 8.36597C51.4258 8.05347 51.7227 7.80933 52.1016 7.63354C52.4844 7.45386 52.9121 7.36401 53.3848 7.36401C54.1934 7.36401 54.8418 7.62183 55.3301 8.13745C55.7324 8.55933 55.9336 9.03589 55.9336 9.56714C55.9336 10.321 55.5215 10.9226 54.6973 11.3718C55.1895 11.4773 55.582 11.7136 55.875 12.0808C56.1719 12.448 56.3203 12.8914 56.3203 13.4109C56.3203 14.1648 56.0449 14.8074 55.4941 15.3386C54.9434 15.8699 54.2578 16.1355 53.4375 16.1355C52.6602 16.1355 52.0156 15.9128 51.5039 15.4675C50.9922 15.0183 50.6953 14.4324 50.6133 13.7097ZM57.6621 14.3425H59.3086V15.5203C59.3086 15.9968 59.2676 16.3718 59.1855 16.6453C59.1035 16.9226 58.9473 17.1707 58.7168 17.3894C58.4902 17.6082 58.2012 17.78 57.8496 17.905L57.5273 17.2253C57.8594 17.116 58.0957 16.9656 58.2363 16.7742C58.377 16.5828 58.4512 16.321 58.459 15.989H57.6621V14.3425ZM66.2695 9.50269L64.6758 9.67847C64.6367 9.35034 64.5352 9.10815 64.3711 8.9519C64.207 8.79565 63.9941 8.71753 63.7324 8.71753C63.3848 8.71753 63.0898 8.87378 62.8477 9.18628C62.6094 9.49878 62.459 10.1492 62.3965 11.1375C62.8066 10.6531 63.3164 10.4109 63.9258 10.4109C64.6133 10.4109 65.2012 10.6726 65.6895 11.196C66.1816 11.7195 66.4277 12.3953 66.4277 13.2234C66.4277 14.1023 66.1699 14.8074 65.6543 15.3386C65.1387 15.8699 64.4766 16.1355 63.668 16.1355C62.8008 16.1355 62.0879 15.7996 61.5293 15.1277C60.9707 14.4519 60.6914 13.3464 60.6914 11.8113C60.6914 10.2371 60.9824 9.10229 61.5645 8.40698C62.1465 7.71167 62.9023 7.36401 63.832 7.36401C64.4844 7.36401 65.0234 7.54761 65.4492 7.91479C65.8789 8.27808 66.1523 8.80737 66.2695 9.50269ZM62.5371 13.0945C62.5371 13.6296 62.6602 14.0437 62.9062 14.3367C63.1523 14.6257 63.4336 14.7703 63.75 14.7703C64.0547 14.7703 64.3086 14.6511 64.5117 14.4128C64.7148 14.1746 64.8164 13.7839 64.8164 13.241C64.8164 12.6824 64.707 12.2742 64.4883 12.0164C64.2695 11.7546 63.9961 11.6238 63.668 11.6238C63.3516 11.6238 63.084 11.7488 62.8652 11.9988C62.6465 12.2449 62.5371 12.6101 62.5371 13.0945Z" fill="white"/>
<defs>
<linearGradient id="paint0_linear_52_1858" x1="37.5" y1="1.98901" x2="37.5" y2="21.989" gradientUnits="userSpaceOnUse">
<stop stop-color="#2764E0"/>
<stop offset="1" stop-color="#48FFB9"/>
</linearGradient>
</defs>
</svg>
