<svg width="42" height="24" viewBox="0 0 42 24" fill="none" xmlns="http://www.w3.org/2000/svg">
<rect x="2" y="1.98901" width="39" height="20" rx="10" fill="url(#paint0_linear_37_1820)"/>
<rect x="2" y="1.98901" width="39" height="20" rx="10" stroke="#1D6AE2" stroke-width="3" stroke-linejoin="round"/>
<path d="M15.8574 12.8308L17.5391 13.364C17.2812 14.3015 16.8516 14.9988 16.25 15.4558C15.6523 15.9089 14.8926 16.1355 13.9707 16.1355C12.8301 16.1355 11.8926 15.7468 11.1582 14.9695C10.4238 14.1882 10.0566 13.1218 10.0566 11.7703C10.0566 10.3406 10.4258 9.2312 11.1641 8.44214C11.9023 7.64917 12.873 7.25269 14.0762 7.25269C15.127 7.25269 15.9805 7.56323 16.6367 8.18433C17.0273 8.55151 17.3203 9.07886 17.5156 9.76636L15.7988 10.1765C15.6973 9.7312 15.4844 9.37964 15.1602 9.12183C14.8398 8.86401 14.4492 8.73511 13.9883 8.73511C13.3516 8.73511 12.834 8.96362 12.4355 9.42065C12.041 9.87769 11.8438 10.6179 11.8438 11.6414C11.8438 12.7273 12.0391 13.5007 12.4297 13.9617C12.8203 14.4226 13.3281 14.6531 13.9531 14.6531C14.4141 14.6531 14.8105 14.5066 15.1426 14.2136C15.4746 13.9207 15.7129 13.4597 15.8574 12.8308ZM26.7793 15.989H24.8926L24.1426 14.0378H20.709L20 15.989H18.1602L21.5059 7.39917H23.3398L26.7793 15.989ZM23.5859 12.5906L22.4023 9.40308L21.2422 12.5906H23.5859ZM30.5703 15.989V14.2605H27.0547V12.8191L30.7812 7.36401H32.1641V12.8132H33.2305V14.2605H32.1641V15.989H30.5703ZM30.5703 12.8132V9.87769L28.5957 12.8132H30.5703Z" fill="white"/>
<defs>
<linearGradient id="paint0_linear_37_1820" x1="21.5" y1="1.98901" x2="21.5" y2="21.989" gradientUnits="userSpaceOnUse">
<stop stop-color="#1D6AE2"/>
<stop offset="1" stop-color="#FFCE43"/>
</linearGradient>
</defs>
</svg>
