<svg width="46" height="24" viewBox="0 0 46 24" fill="none" xmlns="http://www.w3.org/2000/svg">
<rect x="2" y="1.98901" width="43" height="20" rx="10" fill="url(#paint0_linear_66_2017)"/>
<rect x="2" y="1.98901" width="43" height="20" rx="10" stroke="#67EBA1" stroke-width="3" stroke-linejoin="round"/>
<path d="M10.2988 9.76636H11.834V10.6804C12.0332 10.3679 12.3027 10.114 12.6426 9.9187C12.9824 9.72339 13.3594 9.62573 13.7734 9.62573C14.4961 9.62573 15.1094 9.90894 15.6133 10.4753C16.1172 11.0417 16.3691 11.8308 16.3691 12.8425C16.3691 13.8816 16.1152 14.6902 15.6074 15.2683C15.0996 15.8425 14.4844 16.1296 13.7617 16.1296C13.418 16.1296 13.1055 16.0613 12.8242 15.9246C12.5469 15.7878 12.2539 15.5535 11.9453 15.2214V18.3562H10.2988V9.76636ZM11.9277 12.7722C11.9277 13.4714 12.0664 13.989 12.3438 14.325C12.6211 14.657 12.959 14.823 13.3574 14.823C13.7402 14.823 14.0586 14.6707 14.3125 14.366C14.5664 14.0574 14.6934 13.5535 14.6934 12.8542C14.6934 12.2019 14.5625 11.7175 14.3008 11.4011C14.0391 11.0847 13.7148 10.9265 13.3281 10.9265C12.9258 10.9265 12.5918 11.0828 12.3262 11.3953C12.0605 11.7039 11.9277 12.1628 11.9277 12.7722ZM17.6348 9.76636H19.1699V10.6804C19.3691 10.3679 19.6387 10.114 19.9785 9.9187C20.3184 9.72339 20.6953 9.62573 21.1094 9.62573C21.832 9.62573 22.4453 9.90894 22.9492 10.4753C23.4531 11.0417 23.7051 11.8308 23.7051 12.8425C23.7051 13.8816 23.4512 14.6902 22.9434 15.2683C22.4355 15.8425 21.8203 16.1296 21.0977 16.1296C20.7539 16.1296 20.4414 16.0613 20.1602 15.9246C19.8828 15.7878 19.5898 15.5535 19.2812 15.2214V18.3562H17.6348V9.76636ZM19.2637 12.7722C19.2637 13.4714 19.4023 13.989 19.6797 14.325C19.957 14.657 20.2949 14.823 20.6934 14.823C21.0762 14.823 21.3945 14.6707 21.6484 14.366C21.9023 14.0574 22.0293 13.5535 22.0293 12.8542C22.0293 12.2019 21.8984 11.7175 21.6367 11.4011C21.375 11.0847 21.0508 10.9265 20.6641 10.9265C20.2617 10.9265 19.9277 11.0828 19.6621 11.3953C19.3965 11.7039 19.2637 12.1628 19.2637 12.7722ZM28.8789 15.989H27.2324V9.78394C26.6309 10.3464 25.9219 10.7625 25.1055 11.032V9.53784C25.5352 9.39722 26.002 9.13159 26.5059 8.74097C27.0098 8.34644 27.3555 7.88745 27.543 7.36401H28.8789V15.989ZM32.9277 11.6648L31.4336 11.3953C31.6016 10.7937 31.8906 10.3484 32.3008 10.0593C32.7109 9.77026 33.3203 9.62573 34.1289 9.62573C34.8633 9.62573 35.4102 9.71362 35.7695 9.8894C36.1289 10.0613 36.3809 10.282 36.5254 10.5515C36.6738 10.8171 36.748 11.3074 36.748 12.0222L36.7305 13.9441C36.7305 14.491 36.7559 14.8953 36.8066 15.157C36.8613 15.4148 36.9609 15.6921 37.1055 15.989H35.4766C35.4336 15.8796 35.3809 15.7175 35.3184 15.5027C35.291 15.405 35.2715 15.3406 35.2598 15.3093C34.9785 15.5828 34.6777 15.7878 34.3574 15.9246C34.0371 16.0613 33.6953 16.1296 33.332 16.1296C32.6914 16.1296 32.1855 15.9558 31.8145 15.6082C31.4473 15.2605 31.2637 14.821 31.2637 14.2898C31.2637 13.9382 31.3477 13.6257 31.5156 13.3523C31.6836 13.075 31.918 12.864 32.2188 12.7195C32.5234 12.571 32.9609 12.4421 33.5312 12.3328C34.3008 12.1882 34.834 12.0535 35.1309 11.9285V11.7644C35.1309 11.448 35.0527 11.2234 34.8965 11.0906C34.7402 10.9539 34.4453 10.8855 34.0117 10.8855C33.7188 10.8855 33.4902 10.9441 33.3262 11.0613C33.1621 11.1746 33.0293 11.3757 32.9277 11.6648ZM35.1309 13.0007C34.9199 13.071 34.5859 13.155 34.1289 13.2527C33.6719 13.3503 33.373 13.446 33.2324 13.5398C33.0176 13.6921 32.9102 13.8855 32.9102 14.1199C32.9102 14.3503 32.9961 14.5496 33.168 14.7175C33.3398 14.8855 33.5586 14.9695 33.8242 14.9695C34.1211 14.9695 34.4043 14.8718 34.6738 14.6765C34.873 14.5281 35.0039 14.3464 35.0664 14.1316C35.1094 13.991 35.1309 13.7234 35.1309 13.3289V13.0007Z" fill="white"/>
<defs>
<linearGradient id="paint0_linear_66_2017" x1="23.5" y1="1.98901" x2="23.5" y2="21.989" gradientUnits="userSpaceOnUse">
<stop stop-color="#00378F"/>
<stop offset="1" stop-color="#67EBA1"/>
</linearGradient>
</defs>
</svg>
