<svg width="81" height="24" viewBox="0 0 81 24" fill="none" xmlns="http://www.w3.org/2000/svg">
<rect x="1" y="1.98901" width="79" height="20" rx="10" fill="url(#paint0_linear_42_2629)"/>
<rect x="1" y="1.98901" width="79" height="20" rx="10" stroke="#00CE9A" stroke-width="3" stroke-linejoin="round"/>
<path d="M16.7637 15.989H14.877L14.127 14.0378H10.6934L9.98438 15.989H8.14453L11.4902 7.39917H13.3242L16.7637 15.989ZM13.5703 12.5906L12.3867 9.40308L11.2266 12.5906H13.5703ZM17.6836 7.39917H20.8535C21.5684 7.39917 22.1133 7.45386 22.4883 7.56323C22.9922 7.71167 23.4238 7.97534 23.7832 8.35425C24.1426 8.73315 24.416 9.198 24.6035 9.74878C24.791 10.2957 24.8848 10.9714 24.8848 11.7761C24.8848 12.4832 24.7969 13.0925 24.6211 13.6042C24.4062 14.2292 24.0996 14.7351 23.7012 15.1218C23.4004 15.4148 22.9941 15.6433 22.4824 15.8074C22.0996 15.9285 21.5879 15.989 20.9473 15.989H17.6836V7.39917ZM19.418 8.85229V14.5417H20.7129C21.1973 14.5417 21.5469 14.5144 21.7617 14.4597C22.043 14.3894 22.2754 14.2703 22.459 14.1023C22.6465 13.9343 22.7988 13.6589 22.916 13.2761C23.0332 12.8894 23.0918 12.364 23.0918 11.7C23.0918 11.0359 23.0332 10.5261 22.916 10.1707C22.7988 9.81519 22.6348 9.53784 22.4238 9.33862C22.2129 9.1394 21.9453 9.00464 21.6211 8.93433C21.3789 8.87964 20.9043 8.85229 20.1973 8.85229H19.418ZM34.1074 15.989H32.2207L31.4707 14.0378H28.0371L27.3281 15.989H25.4883L28.834 7.39917H30.668L34.1074 15.989ZM30.9141 12.5906L29.7305 9.40308L28.5703 12.5906H30.9141ZM35.0098 15.989V7.39917H37.6055L39.1641 13.2585L40.7051 7.39917H43.3066V15.989H41.6953V9.22729L39.9902 15.989H38.3203L36.6211 9.22729V15.989H35.0098ZM46.9629 15.989V8.85229H44.4141V7.39917H51.2402V8.85229H48.6973V15.989H46.9629ZM51.9258 13.1941L53.6133 13.03C53.7148 13.5964 53.9199 14.0125 54.2285 14.2781C54.541 14.5437 54.9609 14.6765 55.4883 14.6765C56.0469 14.6765 56.4668 14.5593 56.748 14.325C57.0332 14.0867 57.1758 13.8093 57.1758 13.4929C57.1758 13.2898 57.1152 13.1179 56.9941 12.9773C56.877 12.8328 56.6699 12.7078 56.373 12.6023C56.1699 12.532 55.707 12.407 54.9844 12.2273C54.0547 11.9968 53.4023 11.7136 53.0273 11.3777C52.5 10.905 52.2363 10.3289 52.2363 9.64917C52.2363 9.21167 52.3594 8.80347 52.6055 8.42456C52.8555 8.04175 53.2129 7.75073 53.6777 7.55151C54.1465 7.35229 54.7109 7.25269 55.3711 7.25269C56.4492 7.25269 57.2598 7.48901 57.8027 7.96167C58.3496 8.43433 58.6367 9.06519 58.6641 9.85425L56.9297 9.93042C56.8555 9.48901 56.6953 9.17261 56.4492 8.9812C56.207 8.78589 55.8418 8.68823 55.3535 8.68823C54.8496 8.68823 54.4551 8.79175 54.1699 8.99878C53.9863 9.13159 53.8945 9.30933 53.8945 9.53198C53.8945 9.73511 53.9805 9.90894 54.1523 10.0535C54.3711 10.2371 54.9023 10.4285 55.7461 10.6277C56.5898 10.8269 57.2129 11.0339 57.6152 11.2488C58.0215 11.4597 58.3379 11.7507 58.5645 12.1218C58.7949 12.489 58.9102 12.9441 58.9102 13.4871C58.9102 13.9792 58.7734 14.4402 58.5 14.8699C58.2266 15.2996 57.8398 15.6199 57.3398 15.8308C56.8398 16.0378 56.2168 16.1414 55.4707 16.1414C54.3848 16.1414 53.5508 15.8914 52.9688 15.3914C52.3867 14.8875 52.0391 14.155 51.9258 13.1941ZM64.2188 15.989H62.5723V9.78394C61.9707 10.3464 61.2617 10.7625 60.4453 11.032V9.53784C60.875 9.39722 61.3418 9.13159 61.8457 8.74097C62.3496 8.34644 62.6953 7.88745 62.8828 7.36401H64.2188V15.989ZM66.627 13.7097L68.2207 13.5164C68.2715 13.9226 68.4082 14.2332 68.6309 14.448C68.8535 14.6628 69.123 14.7703 69.4395 14.7703C69.7793 14.7703 70.0645 14.6414 70.2949 14.3835C70.5293 14.1257 70.6465 13.7781 70.6465 13.3406C70.6465 12.9265 70.5352 12.5984 70.3125 12.3562C70.0898 12.114 69.8184 11.9929 69.498 11.9929C69.2871 11.9929 69.0352 12.0339 68.7422 12.116L68.9238 10.7742C69.3691 10.7859 69.709 10.6902 69.9434 10.4871C70.1777 10.28 70.2949 10.0066 70.2949 9.66675C70.2949 9.37769 70.209 9.14722 70.0371 8.97534C69.8652 8.80347 69.6367 8.71753 69.3516 8.71753C69.0703 8.71753 68.8301 8.81519 68.6309 9.0105C68.4316 9.20581 68.3105 9.49097 68.2676 9.86597L66.75 9.60815C66.8555 9.08862 67.0137 8.67456 67.2246 8.36597C67.4395 8.05347 67.7363 7.80933 68.1152 7.63354C68.498 7.45386 68.9258 7.36401 69.3984 7.36401C70.207 7.36401 70.8555 7.62183 71.3438 8.13745C71.7461 8.55933 71.9473 9.03589 71.9473 9.56714C71.9473 10.321 71.5352 10.9226 70.7109 11.3718C71.2031 11.4773 71.5957 11.7136 71.8887 12.0808C72.1855 12.448 72.334 12.8914 72.334 13.4109C72.334 14.1648 72.0586 14.8074 71.5078 15.3386C70.957 15.8699 70.2715 16.1355 69.4512 16.1355C68.6738 16.1355 68.0293 15.9128 67.5176 15.4675C67.0059 15.0183 66.709 14.4324 66.627 13.7097Z" fill="white"/>
<defs>
<linearGradient id="paint0_linear_42_2629" x1="40.5" y1="1.98901" x2="40.5" y2="21.989" gradientUnits="userSpaceOnUse">
<stop stop-color="#00CE9A"/>
<stop offset="1" stop-color="#60A4C0"/>
</linearGradient>
</defs>
</svg>
