<svg width="48" height="24" viewBox="0 0 48 24" fill="none" xmlns="http://www.w3.org/2000/svg">
<rect x="2" y="1.98901" width="45" height="20" rx="10" fill="url(#paint0_linear_67_1875)"/>
<rect x="2" y="1.98901" width="45" height="20" rx="10" stroke="#2C5ABE" stroke-width="3" stroke-linejoin="round"/>
<path d="M10.0332 15.989V7.39917H13.6836C14.6016 7.39917 15.2676 7.47729 15.6816 7.63354C16.0996 7.78589 16.4336 8.05933 16.6836 8.45386C16.9336 8.84839 17.0586 9.29956 17.0586 9.80737C17.0586 10.4519 16.8691 10.9851 16.4902 11.407C16.1113 11.825 15.5449 12.0886 14.791 12.198C15.166 12.4167 15.4746 12.657 15.7168 12.9187C15.9629 13.1804 16.293 13.6453 16.707 14.3132L17.7559 15.989H15.6816L14.4277 14.1199C13.9824 13.4519 13.6777 13.032 13.5137 12.8601C13.3496 12.6843 13.1758 12.5652 12.9922 12.5027C12.8086 12.4363 12.5176 12.4031 12.1191 12.4031H11.7676V15.989H10.0332ZM11.7676 11.032H13.0508C13.8828 11.032 14.4023 10.9968 14.6094 10.9265C14.8164 10.8562 14.9785 10.7351 15.0957 10.5632C15.2129 10.3914 15.2715 10.1765 15.2715 9.9187C15.2715 9.62964 15.1934 9.39722 15.0371 9.22144C14.8848 9.04175 14.668 8.92847 14.3867 8.88159C14.2461 8.86206 13.8242 8.85229 13.1211 8.85229H11.7676V11.032ZM18.7109 15.989V7.39917H24.5996V8.85229H20.4453V10.8855H24.0312V12.3386H20.4453V15.989H18.7109ZM25.1621 15.989L28.0977 11.5066L25.4375 7.39917H27.4648L29.1875 10.1589L30.875 7.39917H32.8848L30.2129 11.571L33.1484 15.989H31.0566L29.1523 13.0183L27.2422 15.989H25.1621ZM39.2539 9.50269L37.6602 9.67847C37.6211 9.35034 37.5195 9.10815 37.3555 8.9519C37.1914 8.79565 36.9785 8.71753 36.7168 8.71753C36.3691 8.71753 36.0742 8.87378 35.832 9.18628C35.5938 9.49878 35.4434 10.1492 35.3809 11.1375C35.791 10.6531 36.3008 10.4109 36.9102 10.4109C37.5977 10.4109 38.1855 10.6726 38.6738 11.196C39.166 11.7195 39.4121 12.3953 39.4121 13.2234C39.4121 14.1023 39.1543 14.8074 38.6387 15.3386C38.123 15.8699 37.4609 16.1355 36.6523 16.1355C35.7852 16.1355 35.0723 15.7996 34.5137 15.1277C33.9551 14.4519 33.6758 13.3464 33.6758 11.8113C33.6758 10.2371 33.9668 9.10229 34.5488 8.40698C35.1309 7.71167 35.8867 7.36401 36.8164 7.36401C37.4688 7.36401 38.0078 7.54761 38.4336 7.91479C38.8633 8.27808 39.1367 8.80737 39.2539 9.50269ZM35.5215 13.0945C35.5215 13.6296 35.6445 14.0437 35.8906 14.3367C36.1367 14.6257 36.418 14.7703 36.7344 14.7703C37.0391 14.7703 37.293 14.6511 37.4961 14.4128C37.6992 14.1746 37.8008 13.7839 37.8008 13.241C37.8008 12.6824 37.6914 12.2742 37.4727 12.0164C37.2539 11.7546 36.9805 11.6238 36.6523 11.6238C36.3359 11.6238 36.0684 11.7488 35.8496 11.9988C35.6309 12.2449 35.5215 12.6101 35.5215 13.0945Z" fill="white"/>
<defs>
<linearGradient id="paint0_linear_67_1875" x1="24.5" y1="1.98901" x2="24.5" y2="21.989" gradientUnits="userSpaceOnUse">
<stop stop-color="#2C5ABE"/>
<stop offset="1" stop-color="#CE9A9A"/>
</linearGradient>
</defs>
</svg>
