<svg width="66" height="24" viewBox="0 0 66 24" fill="none" xmlns="http://www.w3.org/2000/svg">
<rect x="1" y="1.98901" width="64" height="20" rx="10" fill="url(#paint0_linear_64_1906)"/>
<rect x="1" y="1.98901" width="64" height="20" rx="10" stroke="#4B0000" stroke-width="3" stroke-linejoin="round"/>
<path d="M9.29297 15.989V7.39917H12.0762C13.1309 7.39917 13.8184 7.44214 14.1387 7.52808C14.6309 7.65698 15.043 7.93823 15.375 8.37183C15.707 8.80151 15.873 9.35815 15.873 10.0417C15.873 10.5691 15.7773 11.0125 15.5859 11.3718C15.3945 11.7312 15.1504 12.0144 14.8535 12.2214C14.5605 12.4246 14.2617 12.5593 13.957 12.6257C13.543 12.7078 12.9434 12.7488 12.1582 12.7488H11.0273V15.989H9.29297ZM11.0273 8.85229V11.2898H11.9766C12.6602 11.2898 13.1172 11.2449 13.3477 11.155C13.5781 11.0652 13.7578 10.9246 13.8867 10.7332C14.0195 10.5417 14.0859 10.3191 14.0859 10.0652C14.0859 9.75269 13.9941 9.49487 13.8105 9.29175C13.627 9.08862 13.3945 8.96167 13.1133 8.91089C12.9062 8.87183 12.4902 8.85229 11.8652 8.85229H11.0273ZM24.1523 15.989H22.2656L21.5156 14.0378H18.082L17.373 15.989H15.5332L18.8789 7.39917H20.7129L24.1523 15.989ZM20.959 12.5906L19.7754 9.40308L18.6152 12.5906H20.959ZM25.084 15.989V7.39917H28.7344C29.6523 7.39917 30.3184 7.47729 30.7324 7.63354C31.1504 7.78589 31.4844 8.05933 31.7344 8.45386C31.9844 8.84839 32.1094 9.29956 32.1094 9.80737C32.1094 10.4519 31.9199 10.9851 31.541 11.407C31.1621 11.825 30.5957 12.0886 29.8418 12.198C30.2168 12.4167 30.5254 12.657 30.7676 12.9187C31.0137 13.1804 31.3438 13.6453 31.7578 14.3132L32.8066 15.989H30.7324L29.4785 14.1199C29.0332 13.4519 28.7285 13.032 28.5645 12.8601C28.4004 12.6843 28.2266 12.5652 28.043 12.5027C27.8594 12.4363 27.5684 12.4031 27.1699 12.4031H26.8184V15.989H25.084ZM26.8184 11.032H28.1016C28.9336 11.032 29.4531 10.9968 29.6602 10.9265C29.8672 10.8562 30.0293 10.7351 30.1465 10.5632C30.2637 10.3914 30.3223 10.1765 30.3223 9.9187C30.3223 9.62964 30.2441 9.39722 30.0879 9.22144C29.9355 9.04175 29.7188 8.92847 29.4375 8.88159C29.2969 8.86206 28.875 8.85229 28.1719 8.85229H26.8184V11.032ZM33.75 15.989V7.39917H36.5332C37.5879 7.39917 38.2754 7.44214 38.5957 7.52808C39.0879 7.65698 39.5 7.93823 39.832 8.37183C40.1641 8.80151 40.3301 9.35815 40.3301 10.0417C40.3301 10.5691 40.2344 11.0125 40.043 11.3718C39.8516 11.7312 39.6074 12.0144 39.3105 12.2214C39.0176 12.4246 38.7188 12.5593 38.4141 12.6257C38 12.7078 37.4004 12.7488 36.6152 12.7488H35.4844V15.989H33.75ZM35.4844 8.85229V11.2898H36.4336C37.1172 11.2898 37.5742 11.2449 37.8047 11.155C38.0352 11.0652 38.2148 10.9246 38.3438 10.7332C38.4766 10.5417 38.543 10.3191 38.543 10.0652C38.543 9.75269 38.4512 9.49487 38.2676 9.29175C38.084 9.08862 37.8516 8.96167 37.5703 8.91089C37.3633 8.87183 36.9473 8.85229 36.3223 8.85229H35.4844ZM45.6035 15.989H43.957V9.78394C43.3555 10.3464 42.6465 10.7625 41.8301 11.032V9.53784C42.2598 9.39722 42.7266 9.13159 43.2305 8.74097C43.7344 8.34644 44.0801 7.88745 44.2676 7.36401H45.6035V15.989ZM48.3809 14.3425H50.0273V15.5203C50.0273 15.9968 49.9863 16.3718 49.9043 16.6453C49.8223 16.9226 49.666 17.1707 49.4355 17.3894C49.209 17.6082 48.9199 17.78 48.5684 17.905L48.2461 17.2253C48.5781 17.116 48.8145 16.9656 48.9551 16.7742C49.0957 16.5828 49.1699 16.321 49.1777 15.989H48.3809V14.3425ZM56.9707 14.4597V15.989H51.1992C51.2617 15.4109 51.4492 14.864 51.7617 14.3484C52.0742 13.8289 52.6914 13.1414 53.6133 12.2859C54.3555 11.5945 54.8105 11.1257 54.9785 10.8796C55.2051 10.5398 55.3184 10.2039 55.3184 9.87183C55.3184 9.50464 55.2188 9.22339 55.0195 9.02808C54.8242 8.82886 54.5527 8.72925 54.2051 8.72925C53.8613 8.72925 53.5879 8.83276 53.3848 9.03979C53.1816 9.24683 53.0645 9.59058 53.0332 10.071L51.3926 9.90698C51.4902 9.00073 51.7969 8.35034 52.3125 7.95581C52.8281 7.56128 53.4727 7.36401 54.2461 7.36401C55.0938 7.36401 55.7598 7.59253 56.2441 8.04956C56.7285 8.50659 56.9707 9.07495 56.9707 9.75464C56.9707 10.1414 56.9004 10.5105 56.7598 10.8621C56.623 11.2097 56.4043 11.575 56.1035 11.9578C55.9043 12.2117 55.5449 12.5769 55.0254 13.0535C54.5059 13.53 54.1758 13.8464 54.0352 14.0027C53.8984 14.1589 53.7871 14.3113 53.7012 14.4597H56.9707Z" fill="white"/>
<defs>
<linearGradient id="paint0_linear_64_1906" x1="33" y1="1.98901" x2="33" y2="21.989" gradientUnits="userSpaceOnUse">
<stop stop-color="#4B0000"/>
<stop offset="1" stop-color="#905BD4"/>
</linearGradient>
</defs>
</svg>
