<svg width="66" height="24" viewBox="0 0 66 24" fill="none" xmlns="http://www.w3.org/2000/svg">
<rect x="1" y="1.98901" width="64" height="20" rx="10" fill="url(#paint0_linear_84_2013)"/>
<rect x="1" y="1.98901" width="64" height="20" rx="10" stroke="#470647" stroke-width="3" stroke-linejoin="round"/>
<path d="M11.1094 15.989V8.85229H8.56055V7.39917H15.3867V8.85229H12.8438V15.989H11.1094ZM16.5117 15.989V7.39917H22.8809V8.85229H18.2461V10.7566H22.5586V12.2039H18.2461V14.5417H23.0449V15.989H16.5117ZM26.4492 15.989V8.85229H23.9004V7.39917H30.7266V8.85229H28.1836V15.989H26.4492ZM35.7012 15.989H34.0547V9.78394C33.4531 10.3464 32.7441 10.7625 31.9277 11.032V9.53784C32.3574 9.39722 32.8242 9.13159 33.3281 8.74097C33.832 8.34644 34.1777 7.88745 34.3652 7.36401H35.7012V15.989ZM38.4785 14.3425H40.125V15.5203C40.125 15.9968 40.084 16.3718 40.002 16.6453C39.9199 16.9226 39.7637 17.1707 39.5332 17.3894C39.3066 17.6082 39.0176 17.78 38.666 17.905L38.3438 17.2253C38.6758 17.116 38.9121 16.9656 39.0527 16.7742C39.1934 16.5828 39.2676 16.321 39.2754 15.989H38.4785V14.3425ZM47.0684 14.4597V15.989H41.2969C41.3594 15.4109 41.5469 14.864 41.8594 14.3484C42.1719 13.8289 42.7891 13.1414 43.7109 12.2859C44.4531 11.5945 44.9082 11.1257 45.0762 10.8796C45.3027 10.5398 45.416 10.2039 45.416 9.87183C45.416 9.50464 45.3164 9.22339 45.1172 9.02808C44.9219 8.82886 44.6504 8.72925 44.3027 8.72925C43.959 8.72925 43.6855 8.83276 43.4824 9.03979C43.2793 9.24683 43.1621 9.59058 43.1309 10.071L41.4902 9.90698C41.5879 9.00073 41.8945 8.35034 42.4102 7.95581C42.9258 7.56128 43.5703 7.36401 44.3438 7.36401C45.1914 7.36401 45.8574 7.59253 46.3418 8.04956C46.8262 8.50659 47.0684 9.07495 47.0684 9.75464C47.0684 10.1414 46.998 10.5105 46.8574 10.8621C46.7207 11.2097 46.502 11.575 46.2012 11.9578C46.002 12.2117 45.6426 12.5769 45.123 13.0535C44.6035 13.53 44.2734 13.8464 44.1328 14.0027C43.9961 14.1589 43.8848 14.3113 43.7988 14.4597H47.0684ZM48.498 14.3425H50.1445V15.5203C50.1445 15.9968 50.1035 16.3718 50.0215 16.6453C49.9395 16.9226 49.7832 17.1707 49.5527 17.3894C49.3262 17.6082 49.0371 17.78 48.6855 17.905L48.3633 17.2253C48.6953 17.116 48.9316 16.9656 49.0723 16.7742C49.2129 16.5828 49.2871 16.321 49.2949 15.989H48.498V14.3425ZM51.4688 13.7097L53.0625 13.5164C53.1133 13.9226 53.25 14.2332 53.4727 14.448C53.6953 14.6628 53.9648 14.7703 54.2812 14.7703C54.6211 14.7703 54.9062 14.6414 55.1367 14.3835C55.3711 14.1257 55.4883 13.7781 55.4883 13.3406C55.4883 12.9265 55.377 12.5984 55.1543 12.3562C54.9316 12.114 54.6602 11.9929 54.3398 11.9929C54.1289 11.9929 53.877 12.0339 53.584 12.116L53.7656 10.7742C54.2109 10.7859 54.5508 10.6902 54.7852 10.4871C55.0195 10.28 55.1367 10.0066 55.1367 9.66675C55.1367 9.37769 55.0508 9.14722 54.8789 8.97534C54.707 8.80347 54.4785 8.71753 54.1934 8.71753C53.9121 8.71753 53.6719 8.81519 53.4727 9.0105C53.2734 9.20581 53.1523 9.49097 53.1094 9.86597L51.5918 9.60815C51.6973 9.08862 51.8555 8.67456 52.0664 8.36597C52.2812 8.05347 52.5781 7.80933 52.957 7.63354C53.3398 7.45386 53.7676 7.36401 54.2402 7.36401C55.0488 7.36401 55.6973 7.62183 56.1855 8.13745C56.5879 8.55933 56.7891 9.03589 56.7891 9.56714C56.7891 10.321 56.377 10.9226 55.5527 11.3718C56.0449 11.4773 56.4375 11.7136 56.7305 12.0808C57.0273 12.448 57.1758 12.8914 57.1758 13.4109C57.1758 14.1648 56.9004 14.8074 56.3496 15.3386C55.7988 15.8699 55.1133 16.1355 54.293 16.1355C53.5156 16.1355 52.8711 15.9128 52.3594 15.4675C51.8477 15.0183 51.5508 14.4324 51.4688 13.7097Z" fill="white"/>
<defs>
<linearGradient id="paint0_linear_84_2013" x1="33" y1="1.98901" x2="33" y2="21.989" gradientUnits="userSpaceOnUse">
<stop stop-color="#470647"/>
<stop offset="1" stop-color="#74A343"/>
</linearGradient>
</defs>
</svg>
