<svg width="50" height="24" viewBox="0 0 50 24" fill="none" xmlns="http://www.w3.org/2000/svg">
<rect x="2" y="1.98901" width="47" height="20" rx="10" fill="url(#paint0_linear_38_1848)"/>
<rect x="2" y="1.98901" width="47" height="20" rx="10" stroke="#FF95A5" stroke-width="3" stroke-linejoin="round"/>
<path d="M15.5215 12.8308L17.2031 13.364C16.9453 14.3015 16.5156 14.9988 15.9141 15.4558C15.3164 15.9089 14.5566 16.1355 13.6348 16.1355C12.4941 16.1355 11.5566 15.7468 10.8223 14.9695C10.0879 14.1882 9.7207 13.1218 9.7207 11.7703C9.7207 10.3406 10.0898 9.2312 10.8281 8.44214C11.5664 7.64917 12.5371 7.25269 13.7402 7.25269C14.791 7.25269 15.6445 7.56323 16.3008 8.18433C16.6914 8.55151 16.9844 9.07886 17.1797 9.76636L15.4629 10.1765C15.3613 9.7312 15.1484 9.37964 14.8242 9.12183C14.5039 8.86401 14.1133 8.73511 13.6523 8.73511C13.0156 8.73511 12.498 8.96362 12.0996 9.42065C11.7051 9.87769 11.5078 10.6179 11.5078 11.6414C11.5078 12.7273 11.7031 13.5007 12.0938 13.9617C12.4844 14.4226 12.9922 14.6531 13.6172 14.6531C14.0781 14.6531 14.4746 14.5066 14.8066 14.2136C15.1387 13.9207 15.377 13.4597 15.5215 12.8308ZM18.6914 7.39917H21.8613C22.5762 7.39917 23.1211 7.45386 23.4961 7.56323C24 7.71167 24.4316 7.97534 24.791 8.35425C25.1504 8.73315 25.4238 9.198 25.6113 9.74878C25.7988 10.2957 25.8926 10.9714 25.8926 11.7761C25.8926 12.4832 25.8047 13.0925 25.6289 13.6042C25.4141 14.2292 25.1074 14.7351 24.709 15.1218C24.4082 15.4148 24.002 15.6433 23.4902 15.8074C23.1074 15.9285 22.5957 15.989 21.9551 15.989H18.6914V7.39917ZM20.4258 8.85229V14.5417H21.7207C22.2051 14.5417 22.5547 14.5144 22.7695 14.4597C23.0508 14.3894 23.2832 14.2703 23.4668 14.1023C23.6543 13.9343 23.8066 13.6589 23.9238 13.2761C24.041 12.8894 24.0996 12.364 24.0996 11.7C24.0996 11.0359 24.041 10.5261 23.9238 10.1707C23.8066 9.81519 23.6426 9.53784 23.4316 9.33862C23.2207 9.1394 22.9531 9.00464 22.6289 8.93433C22.3867 8.87964 21.9121 8.85229 21.2051 8.85229H20.4258ZM32.8652 12.8308L34.5469 13.364C34.2891 14.3015 33.8594 14.9988 33.2578 15.4558C32.6602 15.9089 31.9004 16.1355 30.9785 16.1355C29.8379 16.1355 28.9004 15.7468 28.166 14.9695C27.4316 14.1882 27.0645 13.1218 27.0645 11.7703C27.0645 10.3406 27.4336 9.2312 28.1719 8.44214C28.9102 7.64917 29.8809 7.25269 31.084 7.25269C32.1348 7.25269 32.9883 7.56323 33.6445 8.18433C34.0352 8.55151 34.3281 9.07886 34.5234 9.76636L32.8066 10.1765C32.7051 9.7312 32.4922 9.37964 32.168 9.12183C31.8477 8.86401 31.457 8.73511 30.9961 8.73511C30.3594 8.73511 29.8418 8.96362 29.4434 9.42065C29.0488 9.87769 28.8516 10.6179 28.8516 11.6414C28.8516 12.7273 29.0469 13.5007 29.4375 13.9617C29.8281 14.4226 30.3359 14.6531 30.9609 14.6531C31.4219 14.6531 31.8184 14.5066 32.1504 14.2136C32.4824 13.9207 32.7207 13.4597 32.8652 12.8308ZM41.2559 9.50269L39.6621 9.67847C39.623 9.35034 39.5215 9.10815 39.3574 8.9519C39.1934 8.79565 38.9805 8.71753 38.7188 8.71753C38.3711 8.71753 38.0762 8.87378 37.834 9.18628C37.5957 9.49878 37.4453 10.1492 37.3828 11.1375C37.793 10.6531 38.3027 10.4109 38.9121 10.4109C39.5996 10.4109 40.1875 10.6726 40.6758 11.196C41.168 11.7195 41.4141 12.3953 41.4141 13.2234C41.4141 14.1023 41.1562 14.8074 40.6406 15.3386C40.125 15.8699 39.4629 16.1355 38.6543 16.1355C37.7871 16.1355 37.0742 15.7996 36.5156 15.1277C35.957 14.4519 35.6777 13.3464 35.6777 11.8113C35.6777 10.2371 35.9688 9.10229 36.5508 8.40698C37.1328 7.71167 37.8887 7.36401 38.8184 7.36401C39.4707 7.36401 40.0098 7.54761 40.4355 7.91479C40.8652 8.27808 41.1387 8.80737 41.2559 9.50269ZM37.5234 13.0945C37.5234 13.6296 37.6465 14.0437 37.8926 14.3367C38.1387 14.6257 38.4199 14.7703 38.7363 14.7703C39.041 14.7703 39.2949 14.6511 39.498 14.4128C39.7012 14.1746 39.8027 13.7839 39.8027 13.241C39.8027 12.6824 39.6934 12.2742 39.4746 12.0164C39.2559 11.7546 38.9824 11.6238 38.6543 11.6238C38.3379 11.6238 38.0703 11.7488 37.8516 11.9988C37.6328 12.2449 37.5234 12.6101 37.5234 13.0945Z" fill="white"/>
<defs>
<linearGradient id="paint0_linear_38_1848" x1="25.5" y1="1.98901" x2="25.5" y2="21.989" gradientUnits="userSpaceOnUse">
<stop stop-color="#FF95A5"/>
<stop offset="1" stop-color="#0074C9"/>
</linearGradient>
</defs>
</svg>
