<svg width="38" height="24" viewBox="0 0 38 24" fill="none" xmlns="http://www.w3.org/2000/svg">
<rect x="2" y="1.98901" width="35" height="20" rx="10" fill="url(#paint0_linear_46_4293)"/>
<rect x="2" y="1.98901" width="35" height="20" rx="10" stroke="#D79756" stroke-width="3" stroke-linejoin="round"/>
<path d="M10.3125 15.989V7.39917H12.0469V15.989H10.3125ZM13.6992 7.39917H16.8691C17.584 7.39917 18.1289 7.45386 18.5039 7.56323C19.0078 7.71167 19.4395 7.97534 19.7988 8.35425C20.1582 8.73315 20.4316 9.198 20.6191 9.74878C20.8066 10.2957 20.9004 10.9714 20.9004 11.7761C20.9004 12.4832 20.8125 13.0925 20.6367 13.6042C20.4219 14.2292 20.1152 14.7351 19.7168 15.1218C19.416 15.4148 19.0098 15.6433 18.498 15.8074C18.1152 15.9285 17.6035 15.989 16.9629 15.989H13.6992V7.39917ZM15.4336 8.85229V14.5417H16.7285C17.2129 14.5417 17.5625 14.5144 17.7773 14.4597C18.0586 14.3894 18.291 14.2703 18.4746 14.1023C18.6621 13.9343 18.8145 13.6589 18.9316 13.2761C19.0488 12.8894 19.1074 12.364 19.1074 11.7C19.1074 11.0359 19.0488 10.5261 18.9316 10.1707C18.8145 9.81519 18.6504 9.53784 18.4395 9.33862C18.2285 9.1394 17.9609 9.00464 17.6367 8.93433C17.3945 8.87964 16.9199 8.85229 16.2129 8.85229H15.4336ZM21.9375 13.1941L23.625 13.03C23.7266 13.5964 23.9316 14.0125 24.2402 14.2781C24.5527 14.5437 24.9727 14.6765 25.5 14.6765C26.0586 14.6765 26.4785 14.5593 26.7598 14.325C27.0449 14.0867 27.1875 13.8093 27.1875 13.4929C27.1875 13.2898 27.127 13.1179 27.0059 12.9773C26.8887 12.8328 26.6816 12.7078 26.3848 12.6023C26.1816 12.532 25.7188 12.407 24.9961 12.2273C24.0664 11.9968 23.4141 11.7136 23.0391 11.3777C22.5117 10.905 22.248 10.3289 22.248 9.64917C22.248 9.21167 22.3711 8.80347 22.6172 8.42456C22.8672 8.04175 23.2246 7.75073 23.6895 7.55151C24.1582 7.35229 24.7227 7.25269 25.3828 7.25269C26.4609 7.25269 27.2715 7.48901 27.8145 7.96167C28.3613 8.43433 28.6484 9.06519 28.6758 9.85425L26.9414 9.93042C26.8672 9.48901 26.707 9.17261 26.4609 8.9812C26.2188 8.78589 25.8535 8.68823 25.3652 8.68823C24.8613 8.68823 24.4668 8.79175 24.1816 8.99878C23.998 9.13159 23.9062 9.30933 23.9062 9.53198C23.9062 9.73511 23.9922 9.90894 24.1641 10.0535C24.3828 10.2371 24.9141 10.4285 25.7578 10.6277C26.6016 10.8269 27.2246 11.0339 27.627 11.2488C28.0332 11.4597 28.3496 11.7507 28.5762 12.1218C28.8066 12.489 28.9219 12.9441 28.9219 13.4871C28.9219 13.9792 28.7852 14.4402 28.5117 14.8699C28.2383 15.2996 27.8516 15.6199 27.3516 15.8308C26.8516 16.0378 26.2285 16.1414 25.4824 16.1414C24.3965 16.1414 23.5625 15.8914 22.9805 15.3914C22.3984 14.8875 22.0508 14.155 21.9375 13.1941Z" fill="white"/>
<defs>
<linearGradient id="paint0_linear_46_4293" x1="19.5" y1="1.98901" x2="19.5" y2="21.989" gradientUnits="userSpaceOnUse">
<stop stop-color="#D79756"/>
<stop offset="1" stop-color="#3F237A"/>
</linearGradient>
</defs>
</svg>
