<svg width="22" height="66" viewBox="0 0 22 66" fill="none" xmlns="http://www.w3.org/2000/svg">
<path d="M13.612 64.9159C11.9071 65.7492 10.2023 65.7492 8.49744 64.9159L6.49744 50.3267H15.6121L13.612 64.9159Z" fill="url(#paint0_radial_97_5648)"/>
<path d="M20.4448 36.7774C18.9348 46.3693 15.2948 53.1255 11.0548 53.1255C5.44478 53.1254 0.904785 41.339 0.904785 26.8034C0.904785 21.0951 1.61479 15.8307 2.82479 11.5156C2.82479 20.1581 5.25479 24.6212 8.66479 30.465C9.42479 31.7719 10.2348 32.9678 11.0548 34.0281C15.1448 39.3048 19.5848 41.3144 20.4448 36.7774Z" fill="url(#paint1_radial_97_5648)"/>
<path d="M21.2048 26.8036C21.2048 30.342 20.9348 33.7077 20.4448 36.7776C19.5848 41.3146 15.1448 39.305 11.0548 34.0283C10.2348 32.968 9.42483 31.7721 8.66483 30.4652C5.25483 24.6213 2.82483 20.1583 2.82483 11.5158V11.5034C3.99483 7.29931 5.63483 4.01981 7.51483 2.17041C6.42483 3.77321 8.67483 9.14861 11.0548 12.2308C11.3548 12.613 11.6548 12.9582 11.9548 13.2664C15.6447 17.0268 20.2448 15.3623 19.2348 11.3554C20.4748 15.6952 21.2048 21.0337 21.2048 26.8036Z" fill="url(#paint2_radial_97_5648)"/>
<path d="M11.9547 13.2664C11.6547 12.9582 11.3547 12.613 11.0547 12.2308C8.67475 9.14865 6.42475 3.77335 7.51475 2.17045C7.51475 2.15815 7.51475 2.15815 7.52465 2.15815C8.63475 1.07325 9.81475 0.481445 11.0547 0.481445C14.2947 0.481445 17.2547 4.59935 19.1247 10.9609C19.1647 11.0966 19.2047 11.2198 19.2347 11.3554C20.2447 15.3623 15.6447 17.0268 11.9547 13.2664Z" fill="url(#paint3_radial_97_5648)"/>
<defs>
<radialGradient id="paint0_radial_97_5648" cx="0" cy="0" r="1" gradientUnits="userSpaceOnUse" gradientTransform="translate(9.77118 56.8244) rotate(120.12) scale(9.50136 7.42371)">
<stop stop-color="#FF85B4"/>
<stop offset="1" stop-color="#B7416E"/>
</radialGradient>
<radialGradient id="paint1_radial_97_5648" cx="0" cy="0" r="1" gradientUnits="userSpaceOnUse" gradientTransform="translate(10.6257 33.9242) rotate(125.582) scale(15.6751 19.7387)">
<stop stop-color="#FF85B4"/>
<stop offset="1" stop-color="#B7416E"/>
</radialGradient>
<radialGradient id="paint2_radial_97_5648" cx="0" cy="0" r="1" gradientUnits="userSpaceOnUse" gradientTransform="translate(11.8616 18.6673) rotate(137.664) scale(10.0568 19.6065)">
<stop stop-color="#FF85B4"/>
<stop offset="1" stop-color="#B7416E"/>
</radialGradient>
<radialGradient id="paint3_radial_97_5648" cx="0" cy="0" r="1" gradientUnits="userSpaceOnUse" gradientTransform="translate(14.3266 4.22611) rotate(130.213) scale(7.79793 11.5207)">
<stop stop-color="#FF85B4"/>
<stop offset="1" stop-color="#B7416E"/>
</radialGradient>
</defs>
</svg>
