<svg width="50" height="24" viewBox="0 0 50 24" fill="none" xmlns="http://www.w3.org/2000/svg">
<rect x="2" y="1.98901" width="47" height="20" rx="10" fill="url(#paint0_linear_42_2633)"/>
<rect x="2" y="1.98901" width="47" height="20" rx="10" stroke="#FFB92D" stroke-width="3" stroke-linejoin="round"/>
<path d="M10.377 15.989V7.39917H16.2656V8.85229H12.1113V10.8855H15.6973V12.3386H12.1113V15.989H10.377ZM24.7793 15.989H22.8926L22.1426 14.0378H18.709L18 15.989H16.1602L19.5059 7.39917H21.3398L24.7793 15.989ZM21.5859 12.5906L20.4023 9.40308L19.2422 12.5906H21.5859ZM25.7109 7.39917H29.1445C29.8242 7.39917 30.3301 7.42847 30.6621 7.48706C30.998 7.54175 31.2969 7.65894 31.5586 7.83862C31.8242 8.01831 32.0449 8.25854 32.2207 8.55933C32.3965 8.8562 32.4844 9.19019 32.4844 9.56128C32.4844 9.96362 32.375 10.3328 32.1562 10.6687C31.9414 11.0046 31.6484 11.2566 31.2773 11.4246C31.8008 11.5769 32.2031 11.8367 32.4844 12.2039C32.7656 12.571 32.9062 13.0027 32.9062 13.4988C32.9062 13.8894 32.8145 14.2703 32.6309 14.6414C32.4512 15.0085 32.2031 15.3035 31.8867 15.5261C31.5742 15.7449 31.1875 15.8796 30.7266 15.9304C30.4375 15.9617 29.7402 15.9812 28.6348 15.989H25.7109V7.39917ZM27.4453 8.82886V10.8152H28.582C29.2578 10.8152 29.6777 10.8054 29.8418 10.7859C30.1387 10.7507 30.3711 10.6492 30.5391 10.4812C30.7109 10.3093 30.7969 10.0847 30.7969 9.80737C30.7969 9.54175 30.7227 9.3269 30.5742 9.16284C30.4297 8.99487 30.2129 8.89331 29.9238 8.85815C29.752 8.83862 29.2578 8.82886 28.4414 8.82886H27.4453ZM27.4453 12.2449V14.5417H29.0508C29.6758 14.5417 30.0723 14.5242 30.2402 14.489C30.498 14.4421 30.707 14.3289 30.8672 14.1492C31.0312 13.9656 31.1133 13.7214 31.1133 13.4167C31.1133 13.1589 31.0508 12.9402 30.9258 12.7605C30.8008 12.5808 30.6191 12.45 30.3809 12.3679C30.1465 12.2859 29.6348 12.2449 28.8457 12.2449H27.4453ZM34.377 15.989V7.39917H37.1602C38.2148 7.39917 38.9023 7.44214 39.2227 7.52808C39.7148 7.65698 40.127 7.93823 40.459 8.37183C40.791 8.80151 40.957 9.35815 40.957 10.0417C40.957 10.5691 40.8613 11.0125 40.6699 11.3718C40.4785 11.7312 40.2344 12.0144 39.9375 12.2214C39.6445 12.4246 39.3457 12.5593 39.041 12.6257C38.627 12.7078 38.0273 12.7488 37.2422 12.7488H36.1113V15.989H34.377ZM36.1113 8.85229V11.2898H37.0605C37.7441 11.2898 38.2012 11.2449 38.4316 11.155C38.6621 11.0652 38.8418 10.9246 38.9707 10.7332C39.1035 10.5417 39.1699 10.3191 39.1699 10.0652C39.1699 9.75269 39.0781 9.49487 38.8945 9.29175C38.7109 9.08862 38.4785 8.96167 38.1973 8.91089C37.9902 8.87183 37.5742 8.85229 36.9492 8.85229H36.1113Z" fill="white"/>
<defs>
<linearGradient id="paint0_linear_42_2633" x1="25.5" y1="1.98901" x2="25.5" y2="21.989" gradientUnits="userSpaceOnUse">
<stop stop-color="#FFB92D"/>
<stop offset="1" stop-color="#A2317B"/>
</linearGradient>
</defs>
</svg>
