<svg width="127" height="51" viewBox="0 0 127 51" fill="none" xmlns="http://www.w3.org/2000/svg">
<path opacity="0.3" d="M114.547 49.8075C120.712 49.8075 125.71 38.8117 125.71 25.2476C125.71 11.6836 120.712 0.687744 114.547 0.687744C108.381 0.687744 103.383 11.6836 103.383 25.2476C103.383 38.8117 108.381 49.8075 114.547 49.8075Z" fill="#5EAF1E"/>
<path d="M11.8414 14.5804C12.8669 13.7383 14.0249 13.2476 15.3466 13.2476H18.2466C15.575 13.2476 13.5316 15.4173 11.8416 18.3228L11.8414 14.5804Z" fill="#0B6770"/>
<path d="M11.8417 22.3476C14.5447 29.1698 17.0427 37.2476 22.4467 37.2476H25.3467C18.0061 37.2476 16.2535 22.3464 11.8417 15.9832V22.3476Z" fill="#B89310"/>
<path d="M11.8418 35.1197C16.6449 29.2469 18.2298 13.3304 25.8466 13.2476H28.7466C19.7571 13.2476 19.2701 35.672 11.8417 37.1692L11.8418 35.1197Z" fill="#A20E40"/>
<path d="M35.8467 37.2476C26.5467 37.2476 26.4467 13.2476 18.2467 13.2476H15.3467C23.5467 13.2476 23.5467 37.2476 32.9467 37.2476H35.8467Z" fill="#0B6770"/>
<path d="M42.9467 13.2476C33.6467 13.2476 33.4467 37.2476 25.3467 37.2476H22.4467C30.6467 37.2476 30.7467 13.2476 40.0467 13.2476H42.9467Z" fill="#B89310"/>
<path d="M46.3404 37.2476C37.0404 37.2476 36.9467 13.2476 28.7466 13.2476H25.8466C34.0466 13.2476 34.0404 37.2476 43.4404 37.2476H46.3404Z" fill="#A20E40"/>
<path d="M53.4467 13.2476C44.1467 13.2476 43.9467 37.2476 35.8467 37.2476H32.9467C41.1467 37.2476 41.2404 13.2476 50.5405 13.2476H53.4467Z" fill="#0B6770"/>
<path d="M60.5403 37.2476C51.2403 37.2476 51.1465 13.2476 42.9465 13.2476H40.0465C48.2465 13.2476 48.2402 37.2476 57.6403 37.2476H60.5403Z" fill="#B89310"/>
<path d="M63.9341 13.2476C54.6341 13.2476 54.4403 37.2476 46.3403 37.2476H43.4403C51.6403 37.2476 51.734 13.2476 61.034 13.2476H63.9341Z" fill="#A20E40"/>
<path d="M71.0341 37.2476C61.7341 37.2476 61.6466 13.2476 53.4466 13.2476H50.5403C58.7403 13.2476 58.734 37.2476 68.134 37.2476H71.0341Z" fill="#0B6770"/>
<path d="M78.1073 13.2476C68.8073 13.2476 68.6404 37.2476 60.5404 37.2476H57.6404C65.8404 37.2476 65.9342 13.2476 75.2341 13.2476H78.1073Z" fill="#B89310"/>
<path d="M81.501 37.2476C72.201 37.2476 72.1341 13.2476 63.9341 13.2476H61.0341C69.2341 13.2476 69.201 37.2476 78.601 37.2476H81.501Z" fill="#A20E40"/>
<path d="M88.6009 13.2476C79.3009 13.2476 79.134 37.2476 71.034 37.2476H68.134C76.334 37.2476 76.4009 13.2476 85.7009 13.2476H88.6009Z" fill="#0B6770"/>
<path d="M95.7009 37.2476C86.4009 37.2476 86.2071 13.2476 78.1071 13.2476H75.234C83.434 13.2476 83.4009 37.2476 92.8009 37.2476H95.7009Z" fill="#B89310"/>
<path d="M99.0948 13.2476C89.7948 13.2476 89.6011 37.2476 81.501 37.2476H78.601C86.801 37.2476 86.8948 13.2476 96.1948 13.2476H99.0948Z" fill="#A20E40"/>
<path d="M106.195 37.2476C96.8947 37.2476 96.7009 13.2476 88.6009 13.2476H85.7009C93.9009 13.2476 93.8947 37.2476 103.295 37.2476H106.195Z" fill="#0B6770"/>
<path d="M113.295 13.2476C103.995 13.2476 103.901 37.2476 95.7009 37.2476H92.8009C101.001 37.2476 101.095 13.2476 110.395 13.2476H113.295Z" fill="#B89310"/>
<path d="M114.547 36.3966C107.441 32.7607 106.559 13.2476 99.0947 13.2476H96.1947C104.395 13.2476 104.547 37.2476 113.947 37.2476H114.547V36.3966Z" fill="#A20E40"/>
<path d="M114.547 27.4189C112.486 32.6151 109.816 37.2477 106.195 37.2477H103.295C108.7 37.2477 110.775 27.4928 114.547 20.6072V27.4189Z" fill="#0B6770"/>
<path d="M114.547 13.4744C114.279 13.3232 113.729 13.2476 113.295 13.2476H110.395C111.846 13.2476 113.533 13.9964 114.547 15.2222V13.4744Z" fill="#B89310"/>
<path opacity="0.51" d="M114.547 0.187744H11.8463C18.3845 0.192944 23.5052 11.1986 23.5052 25.2475C23.5052 39.2993 18.3822 50.3071 11.8416 50.3071L114.547 50.3073C121.087 50.3073 126.21 39.3 126.21 25.2477C126.21 11.4294 120.978 0.187744 114.547 0.187744Z" fill="url(#paint0_linear_86_2864)"/>
<path opacity="0.3" d="M11.8462 0.1877L11.8416 0.1875C5.30098 0.1875 0.177979 11.1953 0.177979 25.2476C0.177979 39.2994 5.30098 50.3072 11.8416 50.3072C18.3822 50.3072 23.5052 39.2994 23.5052 25.2476C23.5051 11.1987 18.3844 0.193 11.8462 0.1877Z" fill="#5EAF1E"/>
<defs>
<linearGradient id="paint0_linear_86_2864" x1="11.8417" y1="25.2476" x2="126.21" y2="25.2476" gradientUnits="userSpaceOnUse">
<stop stop-color="#84E51E"/>
<stop offset="0.4822" stop-color="#3E910E"/>
<stop offset="0.8313" stop-color="#115A04"/>
<stop offset="1" stop-color="#004500"/>
</linearGradient>
</defs>
</svg>
