<svg width="45" height="24" viewBox="0 0 45 24" fill="none" xmlns="http://www.w3.org/2000/svg">
<rect x="2" y="1.98901" width="42" height="20" rx="10" fill="url(#paint0_linear_38_1876)"/>
<rect x="2" y="1.98901" width="42" height="20" rx="10" stroke="#855E24" stroke-width="3" stroke-linejoin="round"/>
<path d="M15.6992 12.8308L17.3809 13.364C17.123 14.3015 16.6934 14.9988 16.0918 15.4558C15.4941 15.9089 14.7344 16.1355 13.8125 16.1355C12.6719 16.1355 11.7344 15.7468 11 14.9695C10.2656 14.1882 9.89844 13.1218 9.89844 11.7703C9.89844 10.3406 10.2676 9.2312 11.0059 8.44214C11.7441 7.64917 12.7148 7.25269 13.918 7.25269C14.9688 7.25269 15.8223 7.56323 16.4785 8.18433C16.8691 8.55151 17.1621 9.07886 17.3574 9.76636L15.6406 10.1765C15.5391 9.7312 15.3262 9.37964 15.002 9.12183C14.6816 8.86401 14.291 8.73511 13.8301 8.73511C13.1934 8.73511 12.6758 8.96362 12.2773 9.42065C11.8828 9.87769 11.6855 10.6179 11.6855 11.6414C11.6855 12.7273 11.8809 13.5007 12.2715 13.9617C12.6621 14.4226 13.1699 14.6531 13.7949 14.6531C14.2559 14.6531 14.6523 14.5066 14.9844 14.2136C15.3164 13.9207 15.5547 13.4597 15.6992 12.8308ZM18.8809 15.989V7.39917H20.6152V10.78H24.0137V7.39917H25.748V15.989H24.0137V12.2332H20.6152V15.989H18.8809ZM27.5234 15.989V7.39917H30.1191L31.6777 13.2585L33.2188 7.39917H35.8203V15.989H34.209V9.22729L32.5039 15.989H30.834L29.1348 9.22729V15.989H27.5234Z" fill="white"/>
<defs>
<linearGradient id="paint0_linear_38_1876" x1="23" y1="1.98901" x2="23" y2="21.989" gradientUnits="userSpaceOnUse">
<stop stop-color="#855E24"/>
<stop offset="1" stop-color="#53A555"/>
</linearGradient>
</defs>
</svg>
