<svg width="81" height="36" viewBox="0 0 81 36" fill="none" xmlns="http://www.w3.org/2000/svg">
<rect x="2" y="1.98901" width="78" height="32" rx="10" fill="#53A2D3"/>
<rect x="2" y="1.98901" width="78" height="32" rx="10" stroke="url(#paint0_linear_37_1832)" stroke-width="3" stroke-linejoin="round"/>
<path d="M39.6934 11.8308L41.375 12.364C41.1172 13.3015 40.6875 13.9988 40.0859 14.4558C39.4883 14.9089 38.7285 15.1355 37.8066 15.1355C36.666 15.1355 35.7285 14.7468 34.9941 13.9695C34.2598 13.1882 33.8926 12.1218 33.8926 10.7703C33.8926 9.34058 34.2617 8.2312 35 7.44214C35.7383 6.64917 36.709 6.25269 37.9121 6.25269C38.9629 6.25269 39.8164 6.56323 40.4727 7.18433C40.8633 7.55151 41.1562 8.07886 41.3516 8.76636L39.6348 9.17651C39.5332 8.7312 39.3203 8.37964 38.9961 8.12183C38.6758 7.86401 38.2852 7.73511 37.8242 7.73511C37.1875 7.73511 36.6699 7.96362 36.2715 8.42065C35.877 8.87769 35.6797 9.61792 35.6797 10.6414C35.6797 11.7273 35.875 12.5007 36.2656 12.9617C36.6562 13.4226 37.1641 13.6531 37.7891 13.6531C38.25 13.6531 38.6465 13.5066 38.9785 13.2136C39.3105 12.9207 39.5488 12.4597 39.6934 11.8308ZM42.5293 12.78L44.1699 12.6101C44.2168 12.9812 44.3555 13.2761 44.5859 13.4949C44.8164 13.7097 45.082 13.8171 45.3828 13.8171C45.7266 13.8171 46.0176 13.6785 46.2559 13.4011C46.4941 13.1199 46.6133 12.698 46.6133 12.1355C46.6133 11.6082 46.4941 11.2136 46.2559 10.9519C46.0215 10.6863 45.7148 10.5535 45.3359 10.5535C44.8633 10.5535 44.4395 10.7625 44.0645 11.1804L42.7285 10.9871L43.5723 6.51636H47.9258V8.05737H44.8203L44.5625 9.51636C44.9297 9.33276 45.3047 9.24097 45.6875 9.24097C46.418 9.24097 47.0371 9.50659 47.5449 10.0378C48.0527 10.5691 48.3066 11.2585 48.3066 12.1062C48.3066 12.8132 48.1016 13.4441 47.6914 13.9988C47.1328 14.7566 46.3574 15.1355 45.3652 15.1355C44.5723 15.1355 43.9258 14.9226 43.4258 14.4968C42.9258 14.071 42.627 13.4988 42.5293 12.78ZM15.5762 24.6062L13.9531 24.8992C13.8984 24.575 13.7734 24.3308 13.5781 24.1667C13.3867 24.0027 13.1367 23.9207 12.8281 23.9207C12.418 23.9207 12.0898 24.0632 11.8438 24.3484C11.6016 24.6296 11.4805 25.1023 11.4805 25.7664C11.4805 26.5046 11.6035 27.0261 11.8496 27.3308C12.0996 27.6355 12.4336 27.7878 12.8516 27.7878C13.1641 27.7878 13.4199 27.7 13.6191 27.5242C13.8184 27.3445 13.959 27.0378 14.041 26.6042L15.6582 26.8796C15.4902 27.6218 15.168 28.1824 14.6914 28.5613C14.2148 28.9402 13.5762 29.1296 12.7754 29.1296C11.8652 29.1296 11.1387 28.8425 10.5957 28.2683C10.0566 27.6941 9.78711 26.8992 9.78711 25.8835C9.78711 24.8562 10.0586 24.0574 10.6016 23.4871C11.1445 22.9128 11.8789 22.6257 12.8047 22.6257C13.5625 22.6257 14.1641 22.7898 14.6094 23.1179C15.0586 23.4421 15.3809 23.9382 15.5762 24.6062ZM16.4492 25.7898C16.4492 25.2429 16.584 24.7136 16.8535 24.2019C17.123 23.6902 17.5039 23.2996 17.9961 23.03C18.4922 22.7605 19.0449 22.6257 19.6543 22.6257C20.5957 22.6257 21.3672 22.9324 21.9688 23.5457C22.5703 24.155 22.8711 24.9265 22.8711 25.8601C22.8711 26.8015 22.5664 27.5828 21.957 28.2039C21.3516 28.821 20.5879 29.1296 19.666 29.1296C19.0957 29.1296 18.5508 29.0007 18.0312 28.7429C17.5156 28.4851 17.123 28.1082 16.8535 27.6121C16.584 27.1121 16.4492 26.5046 16.4492 25.7898ZM18.1367 25.8777C18.1367 26.4949 18.2832 26.9675 18.5762 27.2957C18.8691 27.6238 19.2305 27.7878 19.6602 27.7878C20.0898 27.7878 20.4492 27.6238 20.7383 27.2957C21.0312 26.9675 21.1777 26.491 21.1777 25.866C21.1777 25.2566 21.0312 24.7878 20.7383 24.4597C20.4492 24.1316 20.0898 23.9675 19.6602 23.9675C19.2305 23.9675 18.8691 24.1316 18.5762 24.4597C18.2832 24.7878 18.1367 25.2605 18.1367 25.8777ZM29.8262 28.989H28.1797V25.8132C28.1797 25.1414 28.1445 24.7078 28.0742 24.5125C28.0039 24.3132 27.8887 24.1589 27.7285 24.0496C27.5723 23.9402 27.3828 23.8855 27.1602 23.8855C26.875 23.8855 26.6191 23.9636 26.3926 24.1199C26.166 24.2761 26.0098 24.4832 25.9238 24.741C25.8418 24.9988 25.8008 25.4753 25.8008 26.1707V28.989H24.1543V22.7664H25.6836V23.6804C26.2266 22.9773 26.9102 22.6257 27.7344 22.6257C28.0977 22.6257 28.4297 22.6921 28.7305 22.825C29.0312 22.9539 29.2578 23.1199 29.4102 23.323C29.5664 23.5261 29.6738 23.7566 29.7324 24.0144C29.7949 24.2722 29.8262 24.6414 29.8262 25.1218V28.989ZM33.2129 28.989L30.7051 22.7664H32.4336L33.6055 25.9421L33.9453 27.0027C34.0352 26.7332 34.0918 26.5554 34.1152 26.4695C34.1699 26.2937 34.2285 26.1179 34.291 25.9421L35.4746 22.7664H37.168L34.6953 28.989H33.2129ZM41.7852 27.0085L43.4258 27.2839C43.2148 27.8855 42.8809 28.3445 42.4238 28.6609C41.9707 28.9734 41.4023 29.1296 40.7188 29.1296C39.6367 29.1296 38.8359 28.7761 38.3164 28.0691C37.9062 27.5027 37.7012 26.7878 37.7012 25.9246C37.7012 24.8933 37.9707 24.0867 38.5098 23.5046C39.0488 22.9187 39.7305 22.6257 40.5547 22.6257C41.4805 22.6257 42.2109 22.9324 42.7461 23.5457C43.2812 24.155 43.5371 25.0906 43.5137 26.3523H39.3887C39.4004 26.8406 39.5332 27.2214 39.7871 27.4949C40.041 27.7644 40.3574 27.8992 40.7363 27.8992C40.9941 27.8992 41.2109 27.8289 41.3867 27.6882C41.5625 27.5476 41.6953 27.321 41.7852 27.0085ZM41.8789 25.3445C41.8672 24.8679 41.7441 24.5066 41.5098 24.2605C41.2754 24.0105 40.9902 23.8855 40.6543 23.8855C40.2949 23.8855 39.998 24.0164 39.7637 24.2781C39.5293 24.5398 39.4141 24.8953 39.418 25.3445H41.8789ZM46.4375 28.989H44.791V22.7664H46.3203V23.6511C46.582 23.2332 46.8164 22.9578 47.0234 22.825C47.2344 22.6921 47.4727 22.6257 47.7383 22.6257C48.1133 22.6257 48.4746 22.7292 48.8223 22.9363L48.3125 24.3718C48.0352 24.1921 47.7773 24.1023 47.5391 24.1023C47.3086 24.1023 47.1133 24.1667 46.9531 24.2957C46.793 24.4207 46.666 24.6492 46.5723 24.9812C46.4824 25.3132 46.4375 26.0085 46.4375 27.0671V28.989ZM52.3906 22.7664V24.0789H51.2656V26.5867C51.2656 27.0945 51.2754 27.3914 51.2949 27.4773C51.3184 27.5593 51.3672 27.6277 51.4414 27.6824C51.5195 27.7371 51.6133 27.7644 51.7227 27.7644C51.875 27.7644 52.0957 27.7117 52.3848 27.6062L52.5254 28.8835C52.1426 29.0476 51.709 29.1296 51.2246 29.1296C50.9277 29.1296 50.6602 29.0808 50.4219 28.9832C50.1836 28.8816 50.0078 28.7527 49.8945 28.5964C49.7852 28.4363 49.709 28.2214 49.666 27.9519C49.6309 27.7605 49.6133 27.3738 49.6133 26.7917V24.0789H48.8574V22.7664H49.6133V21.53L51.2656 20.5691V22.7664H52.3906ZM54.7637 24.6648L53.2695 24.3953C53.4375 23.7937 53.7266 23.3484 54.1367 23.0593C54.5469 22.7703 55.1562 22.6257 55.9648 22.6257C56.6992 22.6257 57.2461 22.7136 57.6055 22.8894C57.9648 23.0613 58.2168 23.282 58.3613 23.5515C58.5098 23.8171 58.584 24.3074 58.584 25.0222L58.5664 26.9441C58.5664 27.491 58.5918 27.8953 58.6426 28.157C58.6973 28.4148 58.7969 28.6921 58.9414 28.989H57.3125C57.2695 28.8796 57.2168 28.7175 57.1543 28.5027C57.127 28.405 57.1074 28.3406 57.0957 28.3093C56.8145 28.5828 56.5137 28.7878 56.1934 28.9246C55.873 29.0613 55.5312 29.1296 55.168 29.1296C54.5273 29.1296 54.0215 28.9558 53.6504 28.6082C53.2832 28.2605 53.0996 27.821 53.0996 27.2898C53.0996 26.9382 53.1836 26.6257 53.3516 26.3523C53.5195 26.075 53.7539 25.864 54.0547 25.7195C54.3594 25.571 54.7969 25.4421 55.3672 25.3328C56.1367 25.1882 56.6699 25.0535 56.9668 24.9285V24.7644C56.9668 24.448 56.8887 24.2234 56.7324 24.0906C56.5762 23.9539 56.2812 23.8855 55.8477 23.8855C55.5547 23.8855 55.3262 23.9441 55.1621 24.0613C54.998 24.1746 54.8652 24.3757 54.7637 24.6648ZM56.9668 26.0007C56.7559 26.071 56.4219 26.155 55.9648 26.2527C55.5078 26.3503 55.209 26.446 55.0684 26.5398C54.8535 26.6921 54.7461 26.8855 54.7461 27.1199C54.7461 27.3503 54.832 27.5496 55.0039 27.7175C55.1758 27.8855 55.3945 27.9695 55.6602 27.9695C55.957 27.9695 56.2402 27.8718 56.5098 27.6765C56.709 27.5281 56.8398 27.3464 56.9023 27.1316C56.9453 26.991 56.9668 26.7234 56.9668 26.3289V26.0007ZM59.6328 27.2136L61.2852 26.9617C61.3555 27.282 61.498 27.5261 61.7129 27.6941C61.9277 27.8582 62.2285 27.9402 62.6152 27.9402C63.041 27.9402 63.3613 27.8621 63.5762 27.7058C63.7207 27.5964 63.793 27.45 63.793 27.2664C63.793 27.1414 63.7539 27.0378 63.6758 26.9558C63.5938 26.8777 63.4102 26.8054 63.125 26.739C61.7969 26.446 60.9551 26.1785 60.5996 25.9363C60.1074 25.6003 59.8613 25.1335 59.8613 24.5359C59.8613 23.9968 60.0742 23.5437 60.5 23.1765C60.9258 22.8093 61.5859 22.6257 62.4805 22.6257C63.332 22.6257 63.9648 22.7644 64.3789 23.0417C64.793 23.3191 65.0781 23.7292 65.2344 24.2722L63.6816 24.5593C63.6152 24.3171 63.4883 24.1316 63.3008 24.0027C63.1172 23.8738 62.8535 23.8093 62.5098 23.8093C62.0762 23.8093 61.7656 23.8699 61.5781 23.991C61.4531 24.0769 61.3906 24.1882 61.3906 24.325C61.3906 24.4421 61.4453 24.5417 61.5547 24.6238C61.7031 24.7332 62.2148 24.8875 63.0898 25.0867C63.9688 25.2859 64.582 25.53 64.9297 25.8191C65.2734 26.1121 65.4453 26.5203 65.4453 27.0437C65.4453 27.614 65.207 28.1042 64.7305 28.5144C64.2539 28.9246 63.5488 29.1296 62.6152 29.1296C61.7676 29.1296 61.0957 28.9578 60.5996 28.614C60.1074 28.2703 59.7852 27.8035 59.6328 27.2136ZM70.4961 27.0085L72.1367 27.2839C71.9258 27.8855 71.5918 28.3445 71.1348 28.6609C70.6816 28.9734 70.1133 29.1296 69.4297 29.1296C68.3477 29.1296 67.5469 28.7761 67.0273 28.0691C66.6172 27.5027 66.4121 26.7878 66.4121 25.9246C66.4121 24.8933 66.6816 24.0867 67.2207 23.5046C67.7598 22.9187 68.4414 22.6257 69.2656 22.6257C70.1914 22.6257 70.9219 22.9324 71.457 23.5457C71.9922 24.155 72.248 25.0906 72.2246 26.3523H68.0996C68.1113 26.8406 68.2441 27.2214 68.498 27.4949C68.752 27.7644 69.0684 27.8992 69.4473 27.8992C69.7051 27.8992 69.9219 27.8289 70.0977 27.6882C70.2734 27.5476 70.4062 27.321 70.4961 27.0085ZM70.5898 25.3445C70.5781 24.8679 70.4551 24.5066 70.2207 24.2605C69.9863 24.0105 69.7012 23.8855 69.3652 23.8855C69.0059 23.8855 68.709 24.0164 68.4746 24.2781C68.2402 24.5398 68.125 24.8953 68.1289 25.3445H70.5898Z" fill="white"/>
<defs>
<linearGradient id="paint0_linear_37_1832" x1="41" y1="1.98901" x2="41" y2="33.989" gradientUnits="userSpaceOnUse">
<stop stop-color="#204053"/>
<stop offset="1" stop-color="#53A2D3"/>
</linearGradient>
</defs>
</svg>
