<svg width="72" height="24" viewBox="0 0 72 24" fill="none" xmlns="http://www.w3.org/2000/svg">
<rect x="1" y="1.98901" width="70" height="20" rx="10" fill="url(#paint0_linear_67_1903)"/>
<rect x="1" y="1.98901" width="70" height="20" rx="10" stroke="#F9934E" stroke-width="3" stroke-linejoin="round"/>
<path d="M9.1875 15.989V7.39917H12.8379C13.7559 7.39917 14.4219 7.47729 14.8359 7.63354C15.2539 7.78589 15.5879 8.05933 15.8379 8.45386C16.0879 8.84839 16.2129 9.29956 16.2129 9.80737C16.2129 10.4519 16.0234 10.9851 15.6445 11.407C15.2656 11.825 14.6992 12.0886 13.9453 12.198C14.3203 12.4167 14.6289 12.657 14.8711 12.9187C15.1172 13.1804 15.4473 13.6453 15.8613 14.3132L16.9102 15.989H14.8359L13.582 14.1199C13.1367 13.4519 12.832 13.032 12.668 12.8601C12.5039 12.6843 12.3301 12.5652 12.1465 12.5027C11.9629 12.4363 11.6719 12.4031 11.2734 12.4031H10.9219V15.989H9.1875ZM10.9219 11.032H12.2051C13.0371 11.032 13.5566 10.9968 13.7637 10.9265C13.9707 10.8562 14.1328 10.7351 14.25 10.5632C14.3672 10.3914 14.4258 10.1765 14.4258 9.9187C14.4258 9.62964 14.3477 9.39722 14.1914 9.22144C14.0391 9.04175 13.8223 8.92847 13.541 8.88159C13.4004 8.86206 12.9785 8.85229 12.2754 8.85229H10.9219V11.032ZM17.8535 15.989V7.39917H20.6367C21.6914 7.39917 22.3789 7.44214 22.6992 7.52808C23.1914 7.65698 23.6035 7.93823 23.9355 8.37183C24.2676 8.80151 24.4336 9.35815 24.4336 10.0417C24.4336 10.5691 24.3379 11.0125 24.1465 11.3718C23.9551 11.7312 23.7109 12.0144 23.4141 12.2214C23.1211 12.4246 22.8223 12.5593 22.5176 12.6257C22.1035 12.7078 21.5039 12.7488 20.7188 12.7488H19.5879V15.989H17.8535ZM19.5879 8.85229V11.2898H20.5371C21.2207 11.2898 21.6777 11.2449 21.9082 11.155C22.1387 11.0652 22.3184 10.9246 22.4473 10.7332C22.5801 10.5417 22.6465 10.3191 22.6465 10.0652C22.6465 9.75269 22.5547 9.49487 22.3711 9.29175C22.1875 9.08862 21.9551 8.96167 21.6738 8.91089C21.4668 8.87183 21.0508 8.85229 20.4258 8.85229H19.5879ZM25.418 13.1941L27.1055 13.03C27.207 13.5964 27.4121 14.0125 27.7207 14.2781C28.0332 14.5437 28.4531 14.6765 28.9805 14.6765C29.5391 14.6765 29.959 14.5593 30.2402 14.325C30.5254 14.0867 30.668 13.8093 30.668 13.4929C30.668 13.2898 30.6074 13.1179 30.4863 12.9773C30.3691 12.8328 30.1621 12.7078 29.8652 12.6023C29.6621 12.532 29.1992 12.407 28.4766 12.2273C27.5469 11.9968 26.8945 11.7136 26.5195 11.3777C25.9922 10.905 25.7285 10.3289 25.7285 9.64917C25.7285 9.21167 25.8516 8.80347 26.0977 8.42456C26.3477 8.04175 26.7051 7.75073 27.1699 7.55151C27.6387 7.35229 28.2031 7.25269 28.8633 7.25269C29.9414 7.25269 30.752 7.48901 31.2949 7.96167C31.8418 8.43433 32.1289 9.06519 32.1562 9.85425L30.4219 9.93042C30.3477 9.48901 30.1875 9.17261 29.9414 8.9812C29.6992 8.78589 29.334 8.68823 28.8457 8.68823C28.3418 8.68823 27.9473 8.79175 27.6621 8.99878C27.4785 9.13159 27.3867 9.30933 27.3867 9.53198C27.3867 9.73511 27.4727 9.90894 27.6445 10.0535C27.8633 10.2371 28.3945 10.4285 29.2383 10.6277C30.082 10.8269 30.7051 11.0339 31.1074 11.2488C31.5137 11.4597 31.8301 11.7507 32.0566 12.1218C32.2871 12.489 32.4023 12.9441 32.4023 13.4871C32.4023 13.9792 32.2656 14.4402 31.9922 14.8699C31.7188 15.2996 31.332 15.6199 30.832 15.8308C30.332 16.0378 29.709 16.1414 28.9629 16.1414C27.877 16.1414 27.043 15.8914 26.4609 15.3914C25.8789 14.8875 25.5312 14.155 25.418 13.1941ZM39.0762 9.50269L37.4824 9.67847C37.4434 9.35034 37.3418 9.10815 37.1777 8.9519C37.0137 8.79565 36.8008 8.71753 36.5391 8.71753C36.1914 8.71753 35.8965 8.87378 35.6543 9.18628C35.416 9.49878 35.2656 10.1492 35.2031 11.1375C35.6133 10.6531 36.123 10.4109 36.7324 10.4109C37.4199 10.4109 38.0078 10.6726 38.4961 11.196C38.9883 11.7195 39.2344 12.3953 39.2344 13.2234C39.2344 14.1023 38.9766 14.8074 38.4609 15.3386C37.9453 15.8699 37.2832 16.1355 36.4746 16.1355C35.6074 16.1355 34.8945 15.7996 34.3359 15.1277C33.7773 14.4519 33.498 13.3464 33.498 11.8113C33.498 10.2371 33.7891 9.10229 34.3711 8.40698C34.9531 7.71167 35.709 7.36401 36.6387 7.36401C37.291 7.36401 37.8301 7.54761 38.2559 7.91479C38.6855 8.27808 38.959 8.80737 39.0762 9.50269ZM35.3438 13.0945C35.3438 13.6296 35.4668 14.0437 35.7129 14.3367C35.959 14.6257 36.2402 14.7703 36.5566 14.7703C36.8613 14.7703 37.1152 14.6511 37.3184 14.4128C37.5215 14.1746 37.623 13.7839 37.623 13.241C37.623 12.6824 37.5137 12.2742 37.2949 12.0164C37.0762 11.7546 36.8027 11.6238 36.4746 11.6238C36.1582 11.6238 35.8906 11.7488 35.6719 11.9988C35.4531 12.2449 35.3438 12.6101 35.3438 13.0945ZM40.5645 15.989V7.39917H42.2988V11.2136L45.8027 7.39917H48.1348L44.9004 10.7449L48.3105 15.989H46.0664L43.7051 11.9578L42.2988 13.3933V15.989H40.5645ZM56.959 15.989H55.0723L54.3223 14.0378H50.8887L50.1797 15.989H48.3398L51.6855 7.39917H53.5195L56.959 15.989ZM53.7656 12.5906L52.582 9.40308L51.4219 12.5906H53.7656ZM57.5449 13.78L59.1855 13.6101C59.2324 13.9812 59.3711 14.2761 59.6016 14.4949C59.832 14.7097 60.0977 14.8171 60.3984 14.8171C60.7422 14.8171 61.0332 14.6785 61.2715 14.4011C61.5098 14.1199 61.6289 13.698 61.6289 13.1355C61.6289 12.6082 61.5098 12.2136 61.2715 11.9519C61.0371 11.6863 60.7305 11.5535 60.3516 11.5535C59.8789 11.5535 59.4551 11.7625 59.0801 12.1804L57.7441 11.9871L58.5879 7.51636H62.9414V9.05737H59.8359L59.5781 10.5164C59.9453 10.3328 60.3203 10.241 60.7031 10.241C61.4336 10.241 62.0527 10.5066 62.5605 11.0378C63.0684 11.5691 63.3223 12.2585 63.3223 13.1062C63.3223 13.8132 63.1172 14.4441 62.707 14.9988C62.1484 15.7566 61.373 16.1355 60.3809 16.1355C59.5879 16.1355 58.9414 15.9226 58.4414 15.4968C57.9414 15.071 57.6426 14.4988 57.5449 13.78Z" fill="white"/>
<defs>
<linearGradient id="paint0_linear_67_1903" x1="36" y1="1.98901" x2="36" y2="21.989" gradientUnits="userSpaceOnUse">
<stop stop-color="#F9934E"/>
<stop offset="1" stop-color="#AB3C8C"/>
</linearGradient>
</defs>
</svg>
