<svg width="57" height="24" viewBox="0 0 57 24" fill="none" xmlns="http://www.w3.org/2000/svg">
<rect x="2" y="1.98901" width="54" height="20" rx="10" fill="url(#paint0_linear_45_4244)"/>
<rect x="2" y="1.98901" width="54" height="20" rx="10" stroke="#005E00" stroke-width="3" stroke-linejoin="round"/>
<path d="M13.9648 12.8308V11.3835H17.7031V14.8054C17.3398 15.157 16.8125 15.4675 16.1211 15.7371C15.4336 16.0027 14.7363 16.1355 14.0293 16.1355C13.1309 16.1355 12.3477 15.948 11.6797 15.573C11.0117 15.1941 10.5098 14.655 10.1738 13.9558C9.83789 13.2527 9.66992 12.489 9.66992 11.6648C9.66992 10.7703 9.85742 9.97534 10.2324 9.28003C10.6074 8.58472 11.1562 8.05151 11.8789 7.68042C12.4297 7.39526 13.1152 7.25269 13.9355 7.25269C15.002 7.25269 15.834 7.47729 16.4316 7.92651C17.0332 8.37183 17.4199 8.98901 17.5918 9.77808L15.8691 10.1003C15.748 9.67847 15.5195 9.34644 15.1836 9.10425C14.8516 8.85815 14.4355 8.73511 13.9355 8.73511C13.1777 8.73511 12.5742 8.97534 12.125 9.45581C11.6797 9.93628 11.457 10.6492 11.457 11.5945C11.457 12.614 11.6836 13.3796 12.1367 13.8914C12.5898 14.3992 13.1836 14.6531 13.918 14.6531C14.2812 14.6531 14.6445 14.5828 15.0078 14.4421C15.375 14.2976 15.6895 14.1238 15.9512 13.9207V12.8308H13.9648ZM19.3262 15.989V7.39917H21.0137L24.5293 13.1355V7.39917H26.1406V15.989H24.4004L20.9375 10.3875V15.989H19.3262ZM35.7266 15.989H33.8398L33.0898 14.0378H29.6562L28.9473 15.989H27.1074L30.4531 7.39917H32.2871L35.7266 15.989ZM32.5332 12.5906L31.3496 9.40308L30.1895 12.5906H32.5332ZM37.6953 15.989V8.85229H35.1465V7.39917H41.9727V8.85229H39.4297V15.989H37.6953ZM42.6758 13.7097L44.2695 13.5164C44.3203 13.9226 44.457 14.2332 44.6797 14.448C44.9023 14.6628 45.1719 14.7703 45.4883 14.7703C45.8281 14.7703 46.1133 14.6414 46.3438 14.3835C46.5781 14.1257 46.6953 13.7781 46.6953 13.3406C46.6953 12.9265 46.584 12.5984 46.3613 12.3562C46.1387 12.114 45.8672 11.9929 45.5469 11.9929C45.3359 11.9929 45.084 12.0339 44.791 12.116L44.9727 10.7742C45.418 10.7859 45.7578 10.6902 45.9922 10.4871C46.2266 10.28 46.3438 10.0066 46.3438 9.66675C46.3438 9.37769 46.2578 9.14722 46.0859 8.97534C45.9141 8.80347 45.6855 8.71753 45.4004 8.71753C45.1191 8.71753 44.8789 8.81519 44.6797 9.0105C44.4805 9.20581 44.3594 9.49097 44.3164 9.86597L42.7988 9.60815C42.9043 9.08862 43.0625 8.67456 43.2734 8.36597C43.4883 8.05347 43.7852 7.80933 44.1641 7.63354C44.5469 7.45386 44.9746 7.36401 45.4473 7.36401C46.2559 7.36401 46.9043 7.62183 47.3926 8.13745C47.7949 8.55933 47.9961 9.03589 47.9961 9.56714C47.9961 10.321 47.584 10.9226 46.7598 11.3718C47.252 11.4773 47.6445 11.7136 47.9375 12.0808C48.2344 12.448 48.3828 12.8914 48.3828 13.4109C48.3828 14.1648 48.1074 14.8074 47.5566 15.3386C47.0059 15.8699 46.3203 16.1355 45.5 16.1355C44.7227 16.1355 44.0781 15.9128 43.5664 15.4675C43.0547 15.0183 42.7578 14.4324 42.6758 13.7097Z" fill="white"/>
<defs>
<linearGradient id="paint0_linear_45_4244" x1="29" y1="1.98901" x2="29" y2="21.989" gradientUnits="userSpaceOnUse">
<stop stop-color="#005E00"/>
<stop offset="1" stop-color="#FFC369"/>
</linearGradient>
</defs>
</svg>
