<svg width="73" height="24" viewBox="0 0 73 24" fill="none" xmlns="http://www.w3.org/2000/svg">
<rect x="1" y="1.98901" width="71" height="20" rx="10" fill="url(#paint0_linear_67_1900)"/>
<rect x="1" y="1.98901" width="71" height="20" rx="10" stroke="#9C5140" stroke-width="3" stroke-linejoin="round"/>
<path d="M9.35938 15.989V7.39917H13.0098C13.9277 7.39917 14.5938 7.47729 15.0078 7.63354C15.4258 7.78589 15.7598 8.05933 16.0098 8.45386C16.2598 8.84839 16.3848 9.29956 16.3848 9.80737C16.3848 10.4519 16.1953 10.9851 15.8164 11.407C15.4375 11.825 14.8711 12.0886 14.1172 12.198C14.4922 12.4167 14.8008 12.657 15.043 12.9187C15.2891 13.1804 15.6191 13.6453 16.0332 14.3132L17.082 15.989H15.0078L13.7539 14.1199C13.3086 13.4519 13.0039 13.032 12.8398 12.8601C12.6758 12.6843 12.502 12.5652 12.3184 12.5027C12.1348 12.4363 11.8438 12.4031 11.4453 12.4031H11.0938V15.989H9.35938ZM11.0938 11.032H12.377C13.209 11.032 13.7285 10.9968 13.9355 10.9265C14.1426 10.8562 14.3047 10.7351 14.4219 10.5632C14.5391 10.3914 14.5977 10.1765 14.5977 9.9187C14.5977 9.62964 14.5195 9.39722 14.3633 9.22144C14.2109 9.04175 13.9941 8.92847 13.7129 8.88159C13.5723 8.86206 13.1504 8.85229 12.4473 8.85229H11.0938V11.032ZM18.0312 15.989V7.39917H21.6816C22.5996 7.39917 23.2656 7.47729 23.6797 7.63354C24.0977 7.78589 24.4316 8.05933 24.6816 8.45386C24.9316 8.84839 25.0566 9.29956 25.0566 9.80737C25.0566 10.4519 24.8672 10.9851 24.4883 11.407C24.1094 11.825 23.543 12.0886 22.7891 12.198C23.1641 12.4167 23.4727 12.657 23.7148 12.9187C23.9609 13.1804 24.291 13.6453 24.7051 14.3132L25.7539 15.989H23.6797L22.4258 14.1199C21.9805 13.4519 21.6758 13.032 21.5117 12.8601C21.3477 12.6843 21.1738 12.5652 20.9902 12.5027C20.8066 12.4363 20.5156 12.4031 20.1172 12.4031H19.7656V15.989H18.0312ZM19.7656 11.032H21.0488C21.8809 11.032 22.4004 10.9968 22.6074 10.9265C22.8145 10.8562 22.9766 10.7351 23.0938 10.5632C23.2109 10.3914 23.2695 10.1765 23.2695 9.9187C23.2695 9.62964 23.1914 9.39722 23.0352 9.22144C22.8828 9.04175 22.666 8.92847 22.3848 8.88159C22.2441 8.86206 21.8223 8.85229 21.1191 8.85229H19.7656V11.032ZM34.4434 15.989H32.5566L31.8066 14.0378H28.373L27.6641 15.989H25.8242L29.1699 7.39917H31.0039L34.4434 15.989ZM31.25 12.5906L30.0664 9.40308L28.9062 12.5906H31.25ZM39.3652 12.8308V11.3835H43.1035V14.8054C42.7402 15.157 42.2129 15.4675 41.5215 15.7371C40.834 16.0027 40.1367 16.1355 39.4297 16.1355C38.5312 16.1355 37.748 15.948 37.0801 15.573C36.4121 15.1941 35.9102 14.655 35.5742 13.9558C35.2383 13.2527 35.0703 12.489 35.0703 11.6648C35.0703 10.7703 35.2578 9.97534 35.6328 9.28003C36.0078 8.58472 36.5566 8.05151 37.2793 7.68042C37.8301 7.39526 38.5156 7.25269 39.3359 7.25269C40.4023 7.25269 41.2344 7.47729 41.832 7.92651C42.4336 8.37183 42.8203 8.98901 42.9922 9.77808L41.2695 10.1003C41.1484 9.67847 40.9199 9.34644 40.584 9.10425C40.252 8.85815 39.8359 8.73511 39.3359 8.73511C38.5781 8.73511 37.9746 8.97534 37.5254 9.45581C37.0801 9.93628 36.8574 10.6492 36.8574 11.5945C36.8574 12.614 37.084 13.3796 37.5371 13.8914C37.9902 14.3992 38.584 14.6531 39.3184 14.6531C39.6816 14.6531 40.0449 14.5828 40.4082 14.4421C40.7754 14.2976 41.0898 14.1238 41.3516 13.9207V12.8308H39.3652ZM50.2051 12.8308L51.8867 13.364C51.6289 14.3015 51.1992 14.9988 50.5977 15.4558C50 15.9089 49.2402 16.1355 48.3184 16.1355C47.1777 16.1355 46.2402 15.7468 45.5059 14.9695C44.7715 14.1882 44.4043 13.1218 44.4043 11.7703C44.4043 10.3406 44.7734 9.2312 45.5117 8.44214C46.25 7.64917 47.2207 7.25269 48.4238 7.25269C49.4746 7.25269 50.3281 7.56323 50.9844 8.18433C51.375 8.55151 51.668 9.07886 51.8633 9.76636L50.1465 10.1765C50.0449 9.7312 49.832 9.37964 49.5078 9.12183C49.1875 8.86401 48.7969 8.73511 48.3359 8.73511C47.6992 8.73511 47.1816 8.96362 46.7832 9.42065C46.3887 9.87769 46.1914 10.6179 46.1914 11.6414C46.1914 12.7273 46.3867 13.5007 46.7773 13.9617C47.168 14.4226 47.6758 14.6531 48.3008 14.6531C48.7617 14.6531 49.1582 14.5066 49.4902 14.2136C49.8223 13.9207 50.0605 13.4597 50.2051 12.8308ZM53.3281 14.3425H54.9746V15.5203C54.9746 15.9968 54.9336 16.3718 54.8516 16.6453C54.7695 16.9226 54.6133 17.1707 54.3828 17.3894C54.1562 17.6082 53.8672 17.78 53.5156 17.905L53.1934 17.2253C53.5254 17.116 53.7617 16.9656 53.9023 16.7742C54.043 16.5828 54.1172 16.321 54.125 15.989H53.3281V14.3425ZM56.7148 7.39917H59.8848C60.5996 7.39917 61.1445 7.45386 61.5195 7.56323C62.0234 7.71167 62.4551 7.97534 62.8145 8.35425C63.1738 8.73315 63.4473 9.198 63.6348 9.74878C63.8223 10.2957 63.916 10.9714 63.916 11.7761C63.916 12.4832 63.8281 13.0925 63.6523 13.6042C63.4375 14.2292 63.1309 14.7351 62.7324 15.1218C62.4316 15.4148 62.0254 15.6433 61.5137 15.8074C61.1309 15.9285 60.6191 15.989 59.9785 15.989H56.7148V7.39917ZM58.4492 8.85229V14.5417H59.7441C60.2285 14.5417 60.5781 14.5144 60.793 14.4597C61.0742 14.3894 61.3066 14.2703 61.4902 14.1023C61.6777 13.9343 61.8301 13.6589 61.9473 13.2761C62.0645 12.8894 62.123 12.364 62.123 11.7C62.123 11.0359 62.0645 10.5261 61.9473 10.1707C61.8301 9.81519 61.666 9.53784 61.4551 9.33862C61.2441 9.1394 60.9766 9.00464 60.6523 8.93433C60.4102 8.87964 59.9355 8.85229 59.2285 8.85229H58.4492Z" fill="white"/>
<defs>
<linearGradient id="paint0_linear_67_1900" x1="36.5" y1="1.98901" x2="36.5" y2="21.989" gradientUnits="userSpaceOnUse">
<stop stop-color="#9C5140"/>
<stop offset="1" stop-color="#4A3C9B"/>
</linearGradient>
</defs>
</svg>
