<svg width="37" height="24" viewBox="0 0 37 24" fill="none" xmlns="http://www.w3.org/2000/svg">
<rect x="2" y="1.98901" width="34" height="20" rx="10" fill="url(#paint0_linear_46_4288)"/>
<rect x="2" y="1.98901" width="34" height="20" rx="10" stroke="#0D00A8" stroke-width="3" stroke-linejoin="round"/>
<path d="M11.875 15.989V7.39917H13.6094V10.78H17.0078V7.39917H18.7422V15.989H17.0078V12.2332H13.6094V15.989H11.875ZM22.1699 7.39917V10.5574C22.7012 9.93628 23.3359 9.62573 24.0742 9.62573C24.4531 9.62573 24.7949 9.69604 25.0996 9.83667C25.4043 9.97729 25.6328 10.157 25.7852 10.3757C25.9414 10.5945 26.0469 10.8367 26.1016 11.1023C26.1602 11.3679 26.1895 11.78 26.1895 12.3386V15.989H24.543V12.7019C24.543 12.0496 24.5117 11.6355 24.4492 11.4597C24.3867 11.2839 24.2754 11.1453 24.1152 11.0437C23.959 10.9382 23.7617 10.8855 23.5234 10.8855C23.25 10.8855 23.0059 10.9519 22.791 11.0847C22.5762 11.2175 22.418 11.4187 22.3164 11.6882C22.2188 11.9539 22.1699 12.3484 22.1699 12.8718V15.989H20.5234V7.39917H22.1699Z" fill="white"/>
<defs>
<linearGradient id="paint0_linear_46_4288" x1="19" y1="1.98901" x2="19" y2="21.989" gradientUnits="userSpaceOnUse">
<stop stop-color="#4DC7B4"/>
<stop offset="1" stop-color="#0D00A8"/>
</linearGradient>
</defs>
</svg>
