<svg width="50" height="24" viewBox="0 0 50 24" fill="none" xmlns="http://www.w3.org/2000/svg">
<rect x="2" y="1.98901" width="47" height="20" rx="10" fill="url(#paint0_linear_35_1414)"/>
<rect x="2" y="1.98901" width="47" height="20" rx="10" stroke="#669700" stroke-width="3" stroke-linejoin="round"/>
<path d="M18.1055 15.989H16.2188L15.4688 14.0378H12.0352L11.3262 15.989H9.48633L12.832 7.39917H14.666L18.1055 15.989ZM14.9121 12.5906L13.7285 9.40308L12.5684 12.5906H14.9121ZM19.0781 15.989V7.46948H20.8125V14.5417H25.125V15.989H19.0781ZM30.3633 12.8308V11.3835H34.1016V14.8054C33.7383 15.157 33.2109 15.4675 32.5195 15.7371C31.832 16.0027 31.1348 16.1355 30.4277 16.1355C29.5293 16.1355 28.7461 15.948 28.0781 15.573C27.4102 15.1941 26.9082 14.655 26.5723 13.9558C26.2363 13.2527 26.0684 12.489 26.0684 11.6648C26.0684 10.7703 26.2559 9.97534 26.6309 9.28003C27.0059 8.58472 27.5547 8.05151 28.2773 7.68042C28.8281 7.39526 29.5137 7.25269 30.334 7.25269C31.4004 7.25269 32.2324 7.47729 32.8301 7.92651C33.4316 8.37183 33.8184 8.98901 33.9902 9.77808L32.2676 10.1003C32.1465 9.67847 31.918 9.34644 31.582 9.10425C31.25 8.85815 30.834 8.73511 30.334 8.73511C29.5762 8.73511 28.9727 8.97534 28.5234 9.45581C28.0781 9.93628 27.8555 10.6492 27.8555 11.5945C27.8555 12.614 28.082 13.3796 28.5352 13.8914C28.9883 14.3992 29.582 14.6531 30.3164 14.6531C30.6797 14.6531 31.043 14.5828 31.4062 14.4421C31.7734 14.2976 32.0879 14.1238 32.3496 13.9207V12.8308H30.3633ZM40.9219 9.50269L39.3281 9.67847C39.2891 9.35034 39.1875 9.10815 39.0234 8.9519C38.8594 8.79565 38.6465 8.71753 38.3848 8.71753C38.0371 8.71753 37.7422 8.87378 37.5 9.18628C37.2617 9.49878 37.1113 10.1492 37.0488 11.1375C37.459 10.6531 37.9688 10.4109 38.5781 10.4109C39.2656 10.4109 39.8535 10.6726 40.3418 11.196C40.834 11.7195 41.0801 12.3953 41.0801 13.2234C41.0801 14.1023 40.8223 14.8074 40.3066 15.3386C39.791 15.8699 39.1289 16.1355 38.3203 16.1355C37.4531 16.1355 36.7402 15.7996 36.1816 15.1277C35.623 14.4519 35.3438 13.3464 35.3438 11.8113C35.3438 10.2371 35.6348 9.10229 36.2168 8.40698C36.7988 7.71167 37.5547 7.36401 38.4844 7.36401C39.1367 7.36401 39.6758 7.54761 40.1016 7.91479C40.5312 8.27808 40.8047 8.80737 40.9219 9.50269ZM37.1895 13.0945C37.1895 13.6296 37.3125 14.0437 37.5586 14.3367C37.8047 14.6257 38.0859 14.7703 38.4023 14.7703C38.707 14.7703 38.9609 14.6511 39.1641 14.4128C39.3672 14.1746 39.4688 13.7839 39.4688 13.241C39.4688 12.6824 39.3594 12.2742 39.1406 12.0164C38.9219 11.7546 38.6484 11.6238 38.3203 11.6238C38.0039 11.6238 37.7363 11.7488 37.5176 11.9988C37.2988 12.2449 37.1895 12.6101 37.1895 13.0945Z" fill="white"/>
<defs>
<linearGradient id="paint0_linear_35_1414" x1="25.5" y1="1.98901" x2="25.5" y2="21.989" gradientUnits="userSpaceOnUse">
<stop stop-color="#6579ED"/>
<stop offset="1" stop-color="#669700"/>
</linearGradient>
</defs>
</svg>
