<svg width="54" height="24" viewBox="0 0 54 24" fill="none" xmlns="http://www.w3.org/2000/svg">
<rect x="2" y="1.98901" width="51" height="20" rx="10" fill="url(#paint0_linear_83_1987)"/>
<rect x="2" y="1.98901" width="51" height="20" rx="10" stroke="#3F1741" stroke-width="3" stroke-linejoin="round"/>
<path d="M9.81055 13.1941L11.498 13.03C11.5996 13.5964 11.8047 14.0125 12.1133 14.2781C12.4258 14.5437 12.8457 14.6765 13.373 14.6765C13.9316 14.6765 14.3516 14.5593 14.6328 14.325C14.918 14.0867 15.0605 13.8093 15.0605 13.4929C15.0605 13.2898 15 13.1179 14.8789 12.9773C14.7617 12.8328 14.5547 12.7078 14.2578 12.6023C14.0547 12.532 13.5918 12.407 12.8691 12.2273C11.9395 11.9968 11.2871 11.7136 10.9121 11.3777C10.3848 10.905 10.1211 10.3289 10.1211 9.64917C10.1211 9.21167 10.2441 8.80347 10.4902 8.42456C10.7402 8.04175 11.0977 7.75073 11.5625 7.55151C12.0312 7.35229 12.5957 7.25269 13.2559 7.25269C14.334 7.25269 15.1445 7.48901 15.6875 7.96167C16.2344 8.43433 16.5215 9.06519 16.5488 9.85425L14.8145 9.93042C14.7402 9.48901 14.5801 9.17261 14.334 8.9812C14.0918 8.78589 13.7266 8.68823 13.2383 8.68823C12.7344 8.68823 12.3398 8.79175 12.0547 8.99878C11.8711 9.13159 11.7793 9.30933 11.7793 9.53198C11.7793 9.73511 11.8652 9.90894 12.0371 10.0535C12.2559 10.2371 12.7871 10.4285 13.6309 10.6277C14.4746 10.8269 15.0977 11.0339 15.5 11.2488C15.9062 11.4597 16.2227 11.7507 16.4492 12.1218C16.6797 12.489 16.7949 12.9441 16.7949 13.4871C16.7949 13.9792 16.6582 14.4402 16.3848 14.8699C16.1113 15.2996 15.7246 15.6199 15.2246 15.8308C14.7246 16.0378 14.1016 16.1414 13.3555 16.1414C12.2695 16.1414 11.4355 15.8914 10.8535 15.3914C10.2715 14.8875 9.92383 14.155 9.81055 13.1941ZM20.1875 15.989V8.85229H17.6387V7.39917H24.4648V8.85229H21.9219V15.989H20.1875ZM32.4453 15.989H30.5586L29.8086 14.0378H26.375L25.666 15.989H23.8262L27.1719 7.39917H29.0059L32.4453 15.989ZM29.252 12.5906L28.0684 9.40308L26.9082 12.5906H29.252ZM34.4141 15.989V8.85229H31.8652V7.39917H38.6914V8.85229H36.1484V15.989H34.4141ZM39.3945 13.7097L40.9883 13.5164C41.0391 13.9226 41.1758 14.2332 41.3984 14.448C41.6211 14.6628 41.8906 14.7703 42.207 14.7703C42.5469 14.7703 42.832 14.6414 43.0625 14.3835C43.2969 14.1257 43.4141 13.7781 43.4141 13.3406C43.4141 12.9265 43.3027 12.5984 43.0801 12.3562C42.8574 12.114 42.5859 11.9929 42.2656 11.9929C42.0547 11.9929 41.8027 12.0339 41.5098 12.116L41.6914 10.7742C42.1367 10.7859 42.4766 10.6902 42.7109 10.4871C42.9453 10.28 43.0625 10.0066 43.0625 9.66675C43.0625 9.37769 42.9766 9.14722 42.8047 8.97534C42.6328 8.80347 42.4043 8.71753 42.1191 8.71753C41.8379 8.71753 41.5977 8.81519 41.3984 9.0105C41.1992 9.20581 41.0781 9.49097 41.0352 9.86597L39.5176 9.60815C39.623 9.08862 39.7812 8.67456 39.9922 8.36597C40.207 8.05347 40.5039 7.80933 40.8828 7.63354C41.2656 7.45386 41.6934 7.36401 42.166 7.36401C42.9746 7.36401 43.623 7.62183 44.1113 8.13745C44.5137 8.55933 44.7148 9.03589 44.7148 9.56714C44.7148 10.321 44.3027 10.9226 43.4785 11.3718C43.9707 11.4773 44.3633 11.7136 44.6562 12.0808C44.9531 12.448 45.1016 12.8914 45.1016 13.4109C45.1016 14.1648 44.8262 14.8074 44.2754 15.3386C43.7246 15.8699 43.0391 16.1355 42.2188 16.1355C41.4414 16.1355 40.7969 15.9128 40.2852 15.4675C39.7734 15.0183 39.4766 14.4324 39.3945 13.7097Z" fill="white"/>
<defs>
<linearGradient id="paint0_linear_83_1987" x1="27.5" y1="1.98901" x2="27.5" y2="21.989" gradientUnits="userSpaceOnUse">
<stop stop-color="#BB4C4F"/>
<stop offset="1" stop-color="#3F1741"/>
</linearGradient>
</defs>
</svg>
