<svg width="70" height="24" viewBox="0 0 70 24" fill="none" xmlns="http://www.w3.org/2000/svg">
<rect x="1" y="1.98901" width="68" height="20" rx="10" fill="url(#paint0_linear_35_1505)"/>
<rect x="1" y="1.98901" width="68" height="20" rx="10" stroke="#DF5050" stroke-width="3" stroke-linejoin="round"/>
<path d="M8.9668 7.39917H12.4004C13.0801 7.39917 13.5859 7.42847 13.918 7.48706C14.2539 7.54175 14.5527 7.65894 14.8145 7.83862C15.0801 8.01831 15.3008 8.25854 15.4766 8.55933C15.6523 8.8562 15.7402 9.19019 15.7402 9.56128C15.7402 9.96362 15.6309 10.3328 15.4121 10.6687C15.1973 11.0046 14.9043 11.2566 14.5332 11.4246C15.0566 11.5769 15.459 11.8367 15.7402 12.2039C16.0215 12.571 16.1621 13.0027 16.1621 13.4988C16.1621 13.8894 16.0703 14.2703 15.8867 14.6414C15.707 15.0085 15.459 15.3035 15.1426 15.5261C14.8301 15.7449 14.4434 15.8796 13.9824 15.9304C13.6934 15.9617 12.9961 15.9812 11.8906 15.989H8.9668V7.39917ZM10.7012 8.82886V10.8152H11.8379C12.5137 10.8152 12.9336 10.8054 13.0977 10.7859C13.3945 10.7507 13.627 10.6492 13.7949 10.4812C13.9668 10.3093 14.0527 10.0847 14.0527 9.80737C14.0527 9.54175 13.9785 9.3269 13.8301 9.16284C13.6855 8.99487 13.4688 8.89331 13.1797 8.85815C13.0078 8.83862 12.5137 8.82886 11.6973 8.82886H10.7012ZM10.7012 12.2449V14.5417H12.3066C12.9316 14.5417 13.3281 14.5242 13.4961 14.489C13.7539 14.4421 13.9629 14.3289 14.123 14.1492C14.2871 13.9656 14.3691 13.7214 14.3691 13.4167C14.3691 13.1589 14.3066 12.9402 14.1816 12.7605C14.0566 12.5808 13.875 12.45 13.6367 12.3679C13.4023 12.2859 12.8906 12.2449 12.1016 12.2449H10.7012ZM17.2109 13.7097L18.8047 13.5164C18.8555 13.9226 18.9922 14.2332 19.2148 14.448C19.4375 14.6628 19.707 14.7703 20.0234 14.7703C20.3633 14.7703 20.6484 14.6414 20.8789 14.3835C21.1133 14.1257 21.2305 13.7781 21.2305 13.3406C21.2305 12.9265 21.1191 12.5984 20.8965 12.3562C20.6738 12.114 20.4023 11.9929 20.082 11.9929C19.8711 11.9929 19.6191 12.0339 19.3262 12.116L19.5078 10.7742C19.9531 10.7859 20.293 10.6902 20.5273 10.4871C20.7617 10.28 20.8789 10.0066 20.8789 9.66675C20.8789 9.37769 20.793 9.14722 20.6211 8.97534C20.4492 8.80347 20.2207 8.71753 19.9355 8.71753C19.6543 8.71753 19.4141 8.81519 19.2148 9.0105C19.0156 9.20581 18.8945 9.49097 18.8516 9.86597L17.334 9.60815C17.4395 9.08862 17.5977 8.67456 17.8086 8.36597C18.0234 8.05347 18.3203 7.80933 18.6992 7.63354C19.082 7.45386 19.5098 7.36401 19.9824 7.36401C20.791 7.36401 21.4395 7.62183 21.9277 8.13745C22.3301 8.55933 22.5312 9.03589 22.5312 9.56714C22.5312 10.321 22.1191 10.9226 21.2949 11.3718C21.7871 11.4773 22.1797 11.7136 22.4727 12.0808C22.7695 12.448 22.918 12.8914 22.918 13.4109C22.918 14.1648 22.6426 14.8074 22.0918 15.3386C21.541 15.8699 20.8555 16.1355 20.0352 16.1355C19.2578 16.1355 18.6133 15.9128 18.1016 15.4675C17.5898 15.0183 17.293 14.4324 17.2109 13.7097ZM28.3086 12.8308V11.3835H32.0469V14.8054C31.6836 15.157 31.1562 15.4675 30.4648 15.7371C29.7773 16.0027 29.0801 16.1355 28.373 16.1355C27.4746 16.1355 26.6914 15.948 26.0234 15.573C25.3555 15.1941 24.8535 14.655 24.5176 13.9558C24.1816 13.2527 24.0137 12.489 24.0137 11.6648C24.0137 10.7703 24.2012 9.97534 24.5762 9.28003C24.9512 8.58472 25.5 8.05151 26.2227 7.68042C26.7734 7.39526 27.459 7.25269 28.2793 7.25269C29.3457 7.25269 30.1777 7.47729 30.7754 7.92651C31.377 8.37183 31.7637 8.98901 31.9355 9.77808L30.2129 10.1003C30.0918 9.67847 29.8633 9.34644 29.5273 9.10425C29.1953 8.85815 28.7793 8.73511 28.2793 8.73511C27.5215 8.73511 26.918 8.97534 26.4688 9.45581C26.0234 9.93628 25.8008 10.6492 25.8008 11.5945C25.8008 12.614 26.0273 13.3796 26.4805 13.8914C26.9336 14.3992 27.5273 14.6531 28.2617 14.6531C28.625 14.6531 28.9883 14.5828 29.3516 14.4421C29.7188 14.2976 30.0332 14.1238 30.2949 13.9207V12.8308H28.3086ZM41.3984 15.989H39.5117L38.7617 14.0378H35.3281L34.6191 15.989H32.7793L36.125 7.39917H37.959L41.3984 15.989ZM38.2051 12.5906L37.0215 9.40308L35.8613 12.5906H38.2051ZM42.3711 15.989V7.46948H44.1055V14.5417H48.418V15.989H42.3711ZM50.7031 15.989V8.85229H48.1543V7.39917H54.9805V8.85229H52.4375V15.989H50.7031ZM61.3203 9.50269L59.7266 9.67847C59.6875 9.35034 59.5859 9.10815 59.4219 8.9519C59.2578 8.79565 59.0449 8.71753 58.7832 8.71753C58.4355 8.71753 58.1406 8.87378 57.8984 9.18628C57.6602 9.49878 57.5098 10.1492 57.4473 11.1375C57.8574 10.6531 58.3672 10.4109 58.9766 10.4109C59.6641 10.4109 60.252 10.6726 60.7402 11.196C61.2324 11.7195 61.4785 12.3953 61.4785 13.2234C61.4785 14.1023 61.2207 14.8074 60.7051 15.3386C60.1895 15.8699 59.5273 16.1355 58.7188 16.1355C57.8516 16.1355 57.1387 15.7996 56.5801 15.1277C56.0215 14.4519 55.7422 13.3464 55.7422 11.8113C55.7422 10.2371 56.0332 9.10229 56.6152 8.40698C57.1973 7.71167 57.9531 7.36401 58.8828 7.36401C59.5352 7.36401 60.0742 7.54761 60.5 7.91479C60.9297 8.27808 61.2031 8.80737 61.3203 9.50269ZM57.5879 13.0945C57.5879 13.6296 57.7109 14.0437 57.957 14.3367C58.2031 14.6257 58.4844 14.7703 58.8008 14.7703C59.1055 14.7703 59.3594 14.6511 59.5625 14.4128C59.7656 14.1746 59.8672 13.7839 59.8672 13.241C59.8672 12.6824 59.7578 12.2742 59.5391 12.0164C59.3203 11.7546 59.0469 11.6238 58.7188 11.6238C58.4023 11.6238 58.1348 11.7488 57.916 11.9988C57.6973 12.2449 57.5879 12.6101 57.5879 13.0945Z" fill="white"/>
<defs>
<linearGradient id="paint0_linear_35_1505" x1="35" y1="1.98901" x2="35" y2="21.989" gradientUnits="userSpaceOnUse">
<stop stop-color="#DF5050"/>
<stop offset="1" stop-color="#49698D"/>
</linearGradient>
</defs>
</svg>
