<svg width="50" height="24" viewBox="0 0 50 24" fill="none" xmlns="http://www.w3.org/2000/svg">
<rect x="2" y="1.98901" width="47" height="20" rx="10" fill="url(#paint0_linear_67_1845)"/>
<rect x="2" y="1.98901" width="47" height="20" rx="10" stroke="#6BD1AC" stroke-width="3" stroke-linejoin="round"/>
<path d="M10.0312 15.989V7.39917H13.6816C14.5996 7.39917 15.2656 7.47729 15.6797 7.63354C16.0977 7.78589 16.4316 8.05933 16.6816 8.45386C16.9316 8.84839 17.0566 9.29956 17.0566 9.80737C17.0566 10.4519 16.8672 10.9851 16.4883 11.407C16.1094 11.825 15.543 12.0886 14.7891 12.198C15.1641 12.4167 15.4727 12.657 15.7148 12.9187C15.9609 13.1804 16.291 13.6453 16.7051 14.3132L17.7539 15.989H15.6797L14.4258 14.1199C13.9805 13.4519 13.6758 13.032 13.5117 12.8601C13.3477 12.6843 13.1738 12.5652 12.9902 12.5027C12.8066 12.4363 12.5156 12.4031 12.1172 12.4031H11.7656V15.989H10.0312ZM11.7656 11.032H13.0488C13.8809 11.032 14.4004 10.9968 14.6074 10.9265C14.8145 10.8562 14.9766 10.7351 15.0938 10.5632C15.2109 10.3914 15.2695 10.1765 15.2695 9.9187C15.2695 9.62964 15.1914 9.39722 15.0352 9.22144C14.8828 9.04175 14.666 8.92847 14.3848 8.88159C14.2441 8.86206 13.8223 8.85229 13.1191 8.85229H11.7656V11.032ZM26.4434 15.989H24.5566L23.8066 14.0378H20.373L19.6641 15.989H17.8242L21.1699 7.39917H23.0039L26.4434 15.989ZM23.25 12.5906L22.0664 9.40308L20.9062 12.5906H23.25ZM32.8652 12.8308L34.5469 13.364C34.2891 14.3015 33.8594 14.9988 33.2578 15.4558C32.6602 15.9089 31.9004 16.1355 30.9785 16.1355C29.8379 16.1355 28.9004 15.7468 28.166 14.9695C27.4316 14.1882 27.0645 13.1218 27.0645 11.7703C27.0645 10.3406 27.4336 9.2312 28.1719 8.44214C28.9102 7.64917 29.8809 7.25269 31.084 7.25269C32.1348 7.25269 32.9883 7.56323 33.6445 8.18433C34.0352 8.55151 34.3281 9.07886 34.5234 9.76636L32.8066 10.1765C32.7051 9.7312 32.4922 9.37964 32.168 9.12183C31.8477 8.86401 31.457 8.73511 30.9961 8.73511C30.3594 8.73511 29.8418 8.96362 29.4434 9.42065C29.0488 9.87769 28.8516 10.6179 28.8516 11.6414C28.8516 12.7273 29.0469 13.5007 29.4375 13.9617C29.8281 14.4226 30.3359 14.6531 30.9609 14.6531C31.4219 14.6531 31.8184 14.5066 32.1504 14.2136C32.4824 13.9207 32.7207 13.4597 32.8652 12.8308ZM39.8906 15.989H38.2441V9.78394C37.6426 10.3464 36.9336 10.7625 36.1172 11.032V9.53784C36.5469 9.39722 37.0137 9.13159 37.5176 8.74097C38.0215 8.34644 38.3672 7.88745 38.5547 7.36401H39.8906V15.989Z" fill="white"/>
<defs>
<linearGradient id="paint0_linear_67_1845" x1="25.5" y1="1.98901" x2="25.5" y2="21.989" gradientUnits="userSpaceOnUse">
<stop stop-color="#6BD1AC"/>
<stop offset="1" stop-color="#163D43"/>
</linearGradient>
</defs>
</svg>
