<svg width="62" height="103" viewBox="0 0 62 103" fill="none" xmlns="http://www.w3.org/2000/svg">
<path d="M31.0996 0.935303C36.8557 0.935303 41.5219 3.7128 41.5219 7.139C41.5219 10.5652 36.8557 13.3427 31.0996 13.3427C26.5723 17.2398 19.8585 30.4843 19.8585 51.7356C19.8585 56.6272 20.2142 61.0946 20.8171 65.1214C21.1795 67.338 17.9314 70.2107 13.1581 71.745C8.0639 73.3825 3.1552 72.881 2.2365 70.6191C2.192 70.5095 2.1576 70.3978 2.133 70.2842C0.961602 64.4817 0.346802 58.1989 0.346802 51.7357C0.346802 39.2069 2.6571 27.3563 6.8529 18.3667C12.2501 6.8002 20.4082 0.935303 31.0996 0.935303Z" fill="#D4AE40"/>
<path d="M2.13301 70.2842C3.23231 75.7298 4.82171 80.7525 6.85301 85.1046C12.2502 96.6711 20.4083 102.536 31.0997 102.536C41.7911 102.536 49.9493 96.6711 55.3464 85.1046C57.3798 80.7481 58.9703 75.7196 60.0697 70.2677L60.0688 70.2682C60.5384 68.0397 57.2416 65.1093 52.4024 63.5537C47.3082 61.9162 42.4338 62.4224 41.5151 64.6844C41.4596 64.8211 41.4198 64.961 41.3951 65.1037H41.3849C39.3701 78.5813 34.5865 87.1271 31.0997 90.1284C27.6145 87.1283 22.8335 78.5888 20.8172 65.1213C20.7928 64.9723 20.7766 64.8269 20.7187 64.6844C19.8 62.4225 14.9256 61.9162 9.83141 63.5537C4.98391 65.112 1.70691 68.0118 2.13301 70.2842Z" fill="#D4AE40"/>
<path d="M60.0008 70.6056C59.5575 72.8578 54.1697 73.3826 49.0755 71.7451C44.2736 70.2016 40.9804 67.2986 41.3889 65.0767C41.9877 61.0616 42.3408 56.6092 42.3408 51.7358C42.3408 30.4845 35.627 17.24 31.0997 13.3429C25.3436 13.3429 20.6774 10.5654 20.6774 7.1392C20.6774 3.713 25.3436 0.935303 31.0996 0.935303C41.791 0.935303 49.9492 6.8002 55.3463 18.3667C59.5421 27.3563 61.8524 39.2069 61.8524 51.7357C61.8525 58.3184 61.2147 64.7139 60.0008 70.6056Z" fill="#D4AE40"/>
<path d="M41.2968 37.7921C40.9069 35.4032 43.9184 31.4215 49.2534 30.8045C54.7328 30.1709 59.6847 31.5758 60.205 33.9043L60.458 35.2539C59.9933 32.9934 54.9583 31.3596 49.479 31.9932C44.144 32.6101 41.0969 36.2981 41.4727 38.9698L41.2968 37.7921Z" fill="#7A5B00"/>
<path d="M2.41894 31.83C2.02904 34.2189 4.98194 38.2006 10.3169 38.8176C15.7963 39.4512 20.7457 38.0463 21.266 35.7178L21.521 34.3682C21.0563 36.6287 16.0218 38.2625 10.5424 37.6289C5.20744 37.012 2.30454 33.324 2.68044 30.6523L2.41894 31.83Z" fill="#7A5B00"/>
<path d="M29.6556 90.0843C23.8995 90.0843 19.3019 92.9136 19.3019 96.3401C19.3019 99.7666 23.8277 102.364 29.6359 102.499L31.1232 102.536C25.3671 102.536 20.7162 99.7665 20.7162 96.34C20.7162 92.9135 25.3437 90.1285 31.0997 90.1285L31.0396 90.0684L29.6556 90.0843Z" fill="#7A5B00"/>
<path d="M61.8525 51.7357C61.8525 64.2645 59.5422 76.1151 55.3464 85.1047C49.9492 96.6712 41.7911 102.536 31.0997 102.536C20.4083 102.536 12.2501 96.6711 6.8529 85.1047C2.6571 76.1151 0.346802 64.2645 0.346802 51.7357C0.346802 39.2069 2.6571 27.3563 6.8529 18.3667C12.2501 6.8002 20.4082 0.935303 31.0996 0.935303C41.791 0.935303 49.9492 6.8002 55.3463 18.3667C59.5421 27.3563 61.8525 39.2068 61.8525 51.7357ZM31.0996 90.1286C35.6269 86.2315 42.3407 72.987 42.3407 51.7357C42.3407 30.4844 35.6269 17.2399 31.0996 13.3428C26.5723 17.2399 19.8585 30.4844 19.8585 51.7357C19.8585 72.987 26.5723 86.2315 31.0996 90.1286Z" fill="url(#paint0_radial_86_3410)"/>
<path opacity="0.7" d="M61.8525 51.7357C61.8525 64.2645 59.5422 76.1151 55.3464 85.1047C49.9492 96.6712 41.7911 102.536 31.0997 102.536C20.4083 102.536 12.2501 96.6711 6.8529 85.1047C2.6571 76.1151 0.346802 64.2645 0.346802 51.7357C0.346802 39.2069 2.6571 27.3563 6.8529 18.3667C12.2501 6.8002 20.4082 0.935303 31.0996 0.935303C41.791 0.935303 49.9492 6.8002 55.3463 18.3667C59.5421 27.3563 61.8525 39.2068 61.8525 51.7357ZM31.0996 90.1286C35.6269 86.2315 42.3407 72.987 42.3407 51.7357C42.3407 30.4844 35.6269 17.2399 31.0996 13.3428C26.5723 17.2399 19.8585 30.4844 19.8585 51.7357C19.8585 72.987 26.5723 86.2315 31.0996 90.1286Z" fill="url(#paint1_radial_86_3410)"/>
<defs>
<radialGradient id="paint0_radial_86_3410" cx="0" cy="0" r="1" gradientUnits="userSpaceOnUse" gradientTransform="translate(31.0984 51.7357) rotate(-90) scale(50.7674 28.4919)">
<stop offset="0.625" stop-color="#826107" stop-opacity="0"/>
<stop offset="1" stop-color="#826107" stop-opacity="0.8"/>
</radialGradient>
<radialGradient id="paint1_radial_86_3410" cx="0" cy="0" r="1" gradientUnits="userSpaceOnUse" gradientTransform="translate(24.7148 50.9157) rotate(-90) scale(65.9727 32.8432)">
<stop offset="0.581195" stop-color="white" stop-opacity="0"/>
<stop offset="0.664729" stop-color="white"/>
<stop offset="0.822515" stop-color="white" stop-opacity="0"/>
</radialGradient>
</defs>
</svg>
