<svg width="50" height="24" viewBox="0 0 50 24" fill="none" xmlns="http://www.w3.org/2000/svg">
<rect x="2" y="1.98901" width="47" height="20" rx="10" fill="url(#paint0_linear_84_2046)"/>
<rect x="2" y="1.98901" width="47" height="20" rx="10" stroke="#0000CD" stroke-width="3" stroke-linejoin="round"/>
<path d="M10.0137 7.39917H11.748V12.0515C11.748 12.7898 11.7695 13.2683 11.8125 13.4871C11.8867 13.8386 12.0625 14.1218 12.3398 14.3367C12.6211 14.5476 13.0039 14.6531 13.4883 14.6531C13.9805 14.6531 14.3516 14.5535 14.6016 14.3542C14.8516 14.1511 15.002 13.9031 15.0527 13.6101C15.1035 13.3171 15.1289 12.8308 15.1289 12.1511V7.39917H16.8633V11.9109C16.8633 12.9421 16.8164 13.6707 16.7227 14.0964C16.6289 14.5222 16.4551 14.8816 16.2012 15.1746C15.9512 15.4675 15.6152 15.7019 15.1934 15.8777C14.7715 16.0496 14.2207 16.1355 13.541 16.1355C12.7207 16.1355 12.0977 16.0417 11.6719 15.8542C11.25 15.6628 10.916 15.4167 10.6699 15.116C10.4238 14.8113 10.2617 14.4929 10.1836 14.1609C10.0703 13.6687 10.0137 12.9421 10.0137 11.9812V7.39917ZM18.7031 7.39917H22.1367C22.8164 7.39917 23.3223 7.42847 23.6543 7.48706C23.9902 7.54175 24.2891 7.65894 24.5508 7.83862C24.8164 8.01831 25.0371 8.25854 25.2129 8.55933C25.3887 8.8562 25.4766 9.19019 25.4766 9.56128C25.4766 9.96362 25.3672 10.3328 25.1484 10.6687C24.9336 11.0046 24.6406 11.2566 24.2695 11.4246C24.793 11.5769 25.1953 11.8367 25.4766 12.2039C25.7578 12.571 25.8984 13.0027 25.8984 13.4988C25.8984 13.8894 25.8066 14.2703 25.623 14.6414C25.4434 15.0085 25.1953 15.3035 24.8789 15.5261C24.5664 15.7449 24.1797 15.8796 23.7188 15.9304C23.4297 15.9617 22.7324 15.9812 21.627 15.989H18.7031V7.39917ZM20.4375 8.82886V10.8152H21.5742C22.25 10.8152 22.6699 10.8054 22.834 10.7859C23.1309 10.7507 23.3633 10.6492 23.5312 10.4812C23.7031 10.3093 23.7891 10.0847 23.7891 9.80737C23.7891 9.54175 23.7148 9.3269 23.5664 9.16284C23.4219 8.99487 23.2051 8.89331 22.916 8.85815C22.7441 8.83862 22.25 8.82886 21.4336 8.82886H20.4375ZM20.4375 12.2449V14.5417H22.043C22.668 14.5417 23.0645 14.5242 23.2324 14.489C23.4902 14.4421 23.6992 14.3289 23.8594 14.1492C24.0234 13.9656 24.1055 13.7214 24.1055 13.4167C24.1055 13.1589 24.043 12.9402 23.918 12.7605C23.793 12.5808 23.6113 12.45 23.373 12.3679C23.1387 12.2859 22.627 12.2449 21.8379 12.2449H20.4375ZM35.1152 15.989H33.2285L32.4785 14.0378H29.0449L28.3359 15.989H26.4961L29.8418 7.39917H31.6758L35.1152 15.989ZM31.9219 12.5906L30.7383 9.40308L29.5781 12.5906H31.9219ZM41.2383 14.4597V15.989H35.4668C35.5293 15.4109 35.7168 14.864 36.0293 14.3484C36.3418 13.8289 36.959 13.1414 37.8809 12.2859C38.623 11.5945 39.0781 11.1257 39.2461 10.8796C39.4727 10.5398 39.5859 10.2039 39.5859 9.87183C39.5859 9.50464 39.4863 9.22339 39.2871 9.02808C39.0918 8.82886 38.8203 8.72925 38.4727 8.72925C38.1289 8.72925 37.8555 8.83276 37.6523 9.03979C37.4492 9.24683 37.332 9.59058 37.3008 10.071L35.6602 9.90698C35.7578 9.00073 36.0645 8.35034 36.5801 7.95581C37.0957 7.56128 37.7402 7.36401 38.5137 7.36401C39.3613 7.36401 40.0273 7.59253 40.5117 8.04956C40.9961 8.50659 41.2383 9.07495 41.2383 9.75464C41.2383 10.1414 41.168 10.5105 41.0273 10.8621C40.8906 11.2097 40.6719 11.575 40.3711 11.9578C40.1719 12.2117 39.8125 12.5769 39.293 13.0535C38.7734 13.53 38.4434 13.8464 38.3027 14.0027C38.166 14.1589 38.0547 14.3113 37.9688 14.4597H41.2383Z" fill="white"/>
<defs>
<linearGradient id="paint0_linear_84_2046" x1="25.5" y1="1.98901" x2="25.5" y2="21.989" gradientUnits="userSpaceOnUse">
<stop stop-color="#0000CD"/>
<stop offset="1" stop-color="#7FA0CC"/>
</linearGradient>
</defs>
</svg>
