<svg width="52" height="24" viewBox="0 0 52 24" fill="none" xmlns="http://www.w3.org/2000/svg">
<rect x="2" y="1.98901" width="49" height="20" rx="10" fill="url(#paint0_linear_64_1859)"/>
<rect x="2" y="1.98901" width="49" height="20" rx="10" stroke="#D79756" stroke-width="3" stroke-linejoin="round"/>
<path d="M10.375 15.989V7.39917H12.0625L15.5781 13.1355V7.39917H17.1895V15.989H15.4492L11.9863 10.3875V15.989H10.375ZM19.0293 15.989V7.39917H25.3984V8.85229H20.7637V10.7566H25.0762V12.2039H20.7637V14.5417H25.5625V15.989H19.0293ZM26.9805 15.989V7.39917H28.7148V15.989H26.9805ZM30.4199 15.989V7.46948H32.1543V14.5417H36.4668V15.989H30.4199ZM41.5586 15.989H39.9121V9.78394C39.3105 10.3464 38.6016 10.7625 37.7852 11.032V9.53784C38.2148 9.39722 38.6816 9.13159 39.1855 8.74097C39.6895 8.34644 40.0352 7.88745 40.2227 7.36401H41.5586V15.989Z" fill="white"/>
<defs>
<linearGradient id="paint0_linear_64_1859" x1="26.5" y1="1.98901" x2="26.5" y2="21.989" gradientUnits="userSpaceOnUse">
<stop stop-color="#D79756"/>
<stop offset="1" stop-color="#41907A"/>
</linearGradient>
</defs>
</svg>
