<svg width="57" height="24" viewBox="0 0 57 24" fill="none" xmlns="http://www.w3.org/2000/svg">
<rect x="2" y="1.98901" width="54" height="20" rx="10" fill="url(#paint0_linear_64_1968)"/>
<rect x="2" y="1.98901" width="54" height="20" rx="10" stroke="#E03CAD" stroke-width="3" stroke-linejoin="round"/>
<path d="M10.1914 15.989V7.39917H12.9746C14.0293 7.39917 14.7168 7.44214 15.0371 7.52808C15.5293 7.65698 15.9414 7.93823 16.2734 8.37183C16.6055 8.80151 16.7715 9.35815 16.7715 10.0417C16.7715 10.5691 16.6758 11.0125 16.4844 11.3718C16.293 11.7312 16.0488 12.0144 15.752 12.2214C15.459 12.4246 15.1602 12.5593 14.8555 12.6257C14.4414 12.7078 13.8418 12.7488 13.0566 12.7488H11.9258V15.989H10.1914ZM11.9258 8.85229V11.2898H12.875C13.5586 11.2898 14.0156 11.2449 14.2461 11.155C14.4766 11.0652 14.6562 10.9246 14.7852 10.7332C14.918 10.5417 14.9844 10.3191 14.9844 10.0652C14.9844 9.75269 14.8926 9.49487 14.709 9.29175C14.5254 9.08862 14.293 8.96167 14.0117 8.91089C13.8047 8.87183 13.3887 8.85229 12.7637 8.85229H11.9258ZM18.1953 15.989V7.39917H24.5645V8.85229H19.9297V10.7566H24.2422V12.2039H19.9297V14.5417H24.7285V15.989H18.1953ZM26.2051 7.39917H29.6387C30.3184 7.39917 30.8242 7.42847 31.1562 7.48706C31.4922 7.54175 31.791 7.65894 32.0527 7.83862C32.3184 8.01831 32.5391 8.25854 32.7148 8.55933C32.8906 8.8562 32.9785 9.19019 32.9785 9.56128C32.9785 9.96362 32.8691 10.3328 32.6504 10.6687C32.4355 11.0046 32.1426 11.2566 31.7715 11.4246C32.2949 11.5769 32.6973 11.8367 32.9785 12.2039C33.2598 12.571 33.4004 13.0027 33.4004 13.4988C33.4004 13.8894 33.3086 14.2703 33.125 14.6414C32.9453 15.0085 32.6973 15.3035 32.3809 15.5261C32.0684 15.7449 31.6816 15.8796 31.2207 15.9304C30.9316 15.9617 30.2344 15.9812 29.1289 15.989H26.2051V7.39917ZM27.9395 8.82886V10.8152H29.0762C29.752 10.8152 30.1719 10.8054 30.3359 10.7859C30.6328 10.7507 30.8652 10.6492 31.0332 10.4812C31.2051 10.3093 31.291 10.0847 31.291 9.80737C31.291 9.54175 31.2168 9.3269 31.0684 9.16284C30.9238 8.99487 30.707 8.89331 30.418 8.85815C30.2461 8.83862 29.752 8.82886 28.9355 8.82886H27.9395ZM27.9395 12.2449V14.5417H29.5449C30.1699 14.5417 30.5664 14.5242 30.7344 14.489C30.9922 14.4421 31.2012 14.3289 31.3613 14.1492C31.5254 13.9656 31.6074 13.7214 31.6074 13.4167C31.6074 13.1589 31.5449 12.9402 31.4199 12.7605C31.2949 12.5808 31.1133 12.45 30.875 12.3679C30.6406 12.2859 30.1289 12.2449 29.3398 12.2449H27.9395ZM34.8711 15.989V7.39917H37.6543C38.709 7.39917 39.3965 7.44214 39.7168 7.52808C40.209 7.65698 40.6211 7.93823 40.9531 8.37183C41.2852 8.80151 41.4512 9.35815 41.4512 10.0417C41.4512 10.5691 41.3555 11.0125 41.1641 11.3718C40.9727 11.7312 40.7285 12.0144 40.4316 12.2214C40.1387 12.4246 39.8398 12.5593 39.5352 12.6257C39.1211 12.7078 38.5215 12.7488 37.7363 12.7488H36.6055V15.989H34.8711ZM36.6055 8.85229V11.2898H37.5547C38.2383 11.2898 38.6953 11.2449 38.9258 11.155C39.1562 11.0652 39.3359 10.9246 39.4648 10.7332C39.5977 10.5417 39.6641 10.3191 39.6641 10.0652C39.6641 9.75269 39.5723 9.49487 39.3887 9.29175C39.2051 9.08862 38.9727 8.96167 38.6914 8.91089C38.4844 8.87183 38.0684 8.85229 37.4434 8.85229H36.6055ZM46.7246 15.989H45.0781V9.78394C44.4766 10.3464 43.7676 10.7625 42.9512 11.032V9.53784C43.3809 9.39722 43.8477 9.13159 44.3516 8.74097C44.8555 8.34644 45.2012 7.88745 45.3887 7.36401H46.7246V15.989Z" fill="white"/>
<defs>
<linearGradient id="paint0_linear_64_1968" x1="29" y1="1.98901" x2="29" y2="21.989" gradientUnits="userSpaceOnUse">
<stop stop-color="#E03CAD"/>
<stop offset="1" stop-color="#85FFCD"/>
</linearGradient>
</defs>
</svg>
