<svg width="60" height="24" viewBox="0 0 60 24" fill="none" xmlns="http://www.w3.org/2000/svg">
<rect x="2" y="1.98901" width="57" height="20" rx="10" fill="url(#paint0_linear_67_1914)"/>
<rect x="2" y="1.98901" width="57" height="20" rx="10" stroke="#091A14" stroke-width="3" stroke-linejoin="round"/>
<path d="M9.92188 13.1941L11.6094 13.03C11.7109 13.5964 11.916 14.0125 12.2246 14.2781C12.5371 14.5437 12.957 14.6765 13.4844 14.6765C14.043 14.6765 14.4629 14.5593 14.7441 14.325C15.0293 14.0867 15.1719 13.8093 15.1719 13.4929C15.1719 13.2898 15.1113 13.1179 14.9902 12.9773C14.873 12.8328 14.666 12.7078 14.3691 12.6023C14.166 12.532 13.7031 12.407 12.9805 12.2273C12.0508 11.9968 11.3984 11.7136 11.0234 11.3777C10.4961 10.905 10.2324 10.3289 10.2324 9.64917C10.2324 9.21167 10.3555 8.80347 10.6016 8.42456C10.8516 8.04175 11.209 7.75073 11.6738 7.55151C12.1426 7.35229 12.707 7.25269 13.3672 7.25269C14.4453 7.25269 15.2559 7.48901 15.7988 7.96167C16.3457 8.43433 16.6328 9.06519 16.6602 9.85425L14.9258 9.93042C14.8516 9.48901 14.6914 9.17261 14.4453 8.9812C14.2031 8.78589 13.8379 8.68823 13.3496 8.68823C12.8457 8.68823 12.4512 8.79175 12.166 8.99878C11.9824 9.13159 11.8906 9.30933 11.8906 9.53198C11.8906 9.73511 11.9766 9.90894 12.1484 10.0535C12.3672 10.2371 12.8984 10.4285 13.7422 10.6277C14.5859 10.8269 15.209 11.0339 15.6113 11.2488C16.0176 11.4597 16.334 11.7507 16.5605 12.1218C16.791 12.489 16.9062 12.9441 16.9062 13.4871C16.9062 13.9792 16.7695 14.4402 16.4961 14.8699C16.2227 15.2996 15.8359 15.6199 15.3359 15.8308C14.8359 16.0378 14.2129 16.1414 13.4668 16.1414C12.3809 16.1414 11.5469 15.8914 10.9648 15.3914C10.3828 14.8875 10.0352 14.155 9.92188 13.1941ZM18.3418 15.989V7.39917H20.9375L22.4961 13.2585L24.0371 7.39917H26.6387V15.989H25.0273V9.22729L23.3223 15.989H21.6523L19.9531 9.22729V15.989H18.3418ZM36.1074 15.989H34.2207L33.4707 14.0378H30.0371L29.3281 15.989H27.4883L30.834 7.39917H32.668L36.1074 15.989ZM32.9141 12.5906L31.7305 9.40308L30.5703 12.5906H32.9141ZM37.0273 7.39917H40.1973C40.9121 7.39917 41.457 7.45386 41.832 7.56323C42.3359 7.71167 42.7676 7.97534 43.127 8.35425C43.4863 8.73315 43.7598 9.198 43.9473 9.74878C44.1348 10.2957 44.2285 10.9714 44.2285 11.7761C44.2285 12.4832 44.1406 13.0925 43.9648 13.6042C43.75 14.2292 43.4434 14.7351 43.0449 15.1218C42.7441 15.4148 42.3379 15.6433 41.8262 15.8074C41.4434 15.9285 40.9316 15.989 40.291 15.989H37.0273V7.39917ZM38.7617 8.85229V14.5417H40.0566C40.541 14.5417 40.8906 14.5144 41.1055 14.4597C41.3867 14.3894 41.6191 14.2703 41.8027 14.1023C41.9902 13.9343 42.1426 13.6589 42.2598 13.2761C42.377 12.8894 42.4355 12.364 42.4355 11.7C42.4355 11.0359 42.377 10.5261 42.2598 10.1707C42.1426 9.81519 41.9785 9.53784 41.7676 9.33862C41.5566 9.1394 41.2891 9.00464 40.9648 8.93433C40.7227 8.87964 40.248 8.85229 39.541 8.85229H38.7617ZM48.5703 15.989V14.2605H45.0547V12.8191L48.7812 7.36401H50.1641V12.8132H51.2305V14.2605H50.1641V15.989H48.5703ZM48.5703 12.8132V9.87769L46.5957 12.8132H48.5703Z" fill="white"/>
<defs>
<linearGradient id="paint0_linear_67_1914" x1="30.5" y1="1.98901" x2="30.5" y2="21.989" gradientUnits="userSpaceOnUse">
<stop stop-color="#091A14"/>
<stop offset="1" stop-color="#3EAD85"/>
</linearGradient>
</defs>
</svg>
