<svg width="50" height="24" viewBox="0 0 50 24" fill="none" xmlns="http://www.w3.org/2000/svg">
<rect x="2" y="1.98901" width="47" height="20" rx="10" fill="url(#paint0_linear_45_4233)"/>
<rect x="2" y="1.98901" width="47" height="20" rx="10" stroke="#324B6A" stroke-width="3" stroke-linejoin="round"/>
<path d="M14.0215 12.8308V11.3835H17.7598V14.8054C17.3965 15.157 16.8691 15.4675 16.1777 15.7371C15.4902 16.0027 14.793 16.1355 14.0859 16.1355C13.1875 16.1355 12.4043 15.948 11.7363 15.573C11.0684 15.1941 10.5664 14.655 10.2305 13.9558C9.89453 13.2527 9.72656 12.489 9.72656 11.6648C9.72656 10.7703 9.91406 9.97534 10.2891 9.28003C10.6641 8.58472 11.2129 8.05151 11.9355 7.68042C12.4863 7.39526 13.1719 7.25269 13.9922 7.25269C15.0586 7.25269 15.8906 7.47729 16.4883 7.92651C17.0898 8.37183 17.4766 8.98901 17.6484 9.77808L15.9258 10.1003C15.8047 9.67847 15.5762 9.34644 15.2402 9.10425C14.9082 8.85815 14.4922 8.73511 13.9922 8.73511C13.2344 8.73511 12.6309 8.97534 12.1816 9.45581C11.7363 9.93628 11.5137 10.6492 11.5137 11.5945C11.5137 12.614 11.7402 13.3796 12.1934 13.8914C12.6465 14.3992 13.2402 14.6531 13.9746 14.6531C14.3379 14.6531 14.7012 14.5828 15.0645 14.4421C15.4316 14.2976 15.7461 14.1238 16.0078 13.9207V12.8308H14.0215ZM24.5801 9.50269L22.9863 9.67847C22.9473 9.35034 22.8457 9.10815 22.6816 8.9519C22.5176 8.79565 22.3047 8.71753 22.043 8.71753C21.6953 8.71753 21.4004 8.87378 21.1582 9.18628C20.9199 9.49878 20.7695 10.1492 20.707 11.1375C21.1172 10.6531 21.627 10.4109 22.2363 10.4109C22.9238 10.4109 23.5117 10.6726 24 11.196C24.4922 11.7195 24.7383 12.3953 24.7383 13.2234C24.7383 14.1023 24.4805 14.8074 23.9648 15.3386C23.4492 15.8699 22.7871 16.1355 21.9785 16.1355C21.1113 16.1355 20.3984 15.7996 19.8398 15.1277C19.2812 14.4519 19.002 13.3464 19.002 11.8113C19.002 10.2371 19.293 9.10229 19.875 8.40698C20.457 7.71167 21.2129 7.36401 22.1426 7.36401C22.7949 7.36401 23.334 7.54761 23.7598 7.91479C24.1895 8.27808 24.4629 8.80737 24.5801 9.50269ZM20.8477 13.0945C20.8477 13.6296 20.9707 14.0437 21.2168 14.3367C21.4629 14.6257 21.7441 14.7703 22.0605 14.7703C22.3652 14.7703 22.6191 14.6511 22.8223 14.4128C23.0254 14.1746 23.127 13.7839 23.127 13.241C23.127 12.6824 23.0176 12.2742 22.7988 12.0164C22.5801 11.7546 22.3066 11.6238 21.9785 11.6238C21.6621 11.6238 21.3945 11.7488 21.1758 11.9988C20.957 12.2449 20.8477 12.6101 20.8477 13.0945ZM26.0449 15.989V7.39917H28.8281C29.8828 7.39917 30.5703 7.44214 30.8906 7.52808C31.3828 7.65698 31.7949 7.93823 32.127 8.37183C32.459 8.80151 32.625 9.35815 32.625 10.0417C32.625 10.5691 32.5293 11.0125 32.3379 11.3718C32.1465 11.7312 31.9023 12.0144 31.6055 12.2214C31.3125 12.4246 31.0137 12.5593 30.709 12.6257C30.2949 12.7078 29.6953 12.7488 28.9102 12.7488H27.7793V15.989H26.0449ZM27.7793 8.85229V11.2898H28.7285C29.4121 11.2898 29.8691 11.2449 30.0996 11.155C30.3301 11.0652 30.5098 10.9246 30.6387 10.7332C30.7715 10.5417 30.8379 10.3191 30.8379 10.0652C30.8379 9.75269 30.7461 9.49487 30.5625 9.29175C30.3789 9.08862 30.1465 8.96167 29.8652 8.91089C29.6582 8.87183 29.2422 8.85229 28.6172 8.85229H27.7793ZM39.5449 12.8308L41.2266 13.364C40.9688 14.3015 40.5391 14.9988 39.9375 15.4558C39.3398 15.9089 38.5801 16.1355 37.6582 16.1355C36.5176 16.1355 35.5801 15.7468 34.8457 14.9695C34.1113 14.1882 33.7441 13.1218 33.7441 11.7703C33.7441 10.3406 34.1133 9.2312 34.8516 8.44214C35.5898 7.64917 36.5605 7.25269 37.7637 7.25269C38.8145 7.25269 39.668 7.56323 40.3242 8.18433C40.7148 8.55151 41.0078 9.07886 41.2031 9.76636L39.4863 10.1765C39.3848 9.7312 39.1719 9.37964 38.8477 9.12183C38.5273 8.86401 38.1367 8.73511 37.6758 8.73511C37.0391 8.73511 36.5215 8.96362 36.123 9.42065C35.7285 9.87769 35.5312 10.6179 35.5312 11.6414C35.5312 12.7273 35.7266 13.5007 36.1172 13.9617C36.5078 14.4226 37.0156 14.6531 37.6406 14.6531C38.1016 14.6531 38.498 14.5066 38.8301 14.2136C39.1621 13.9207 39.4004 13.4597 39.5449 12.8308Z" fill="white"/>
<defs>
<linearGradient id="paint0_linear_45_4233" x1="25.5" y1="1.98901" x2="25.5" y2="21.989" gradientUnits="userSpaceOnUse">
<stop stop-color="#324B6A"/>
<stop offset="1" stop-color="#7593F4"/>
</linearGradient>
</defs>
</svg>
