<svg width="76" height="24" viewBox="0 0 76 24" fill="none" xmlns="http://www.w3.org/2000/svg">
<rect x="1" y="1.98901" width="74" height="20" rx="10" fill="url(#paint0_linear_67_1913)"/>
<rect x="1" y="1.98901" width="74" height="20" rx="10" stroke="#C15436" stroke-width="3" stroke-linejoin="round"/>
<path d="M8.75 13.1941L10.4375 13.03C10.5391 13.5964 10.7441 14.0125 11.0527 14.2781C11.3652 14.5437 11.7852 14.6765 12.3125 14.6765C12.8711 14.6765 13.291 14.5593 13.5723 14.325C13.8574 14.0867 14 13.8093 14 13.4929C14 13.2898 13.9395 13.1179 13.8184 12.9773C13.7012 12.8328 13.4941 12.7078 13.1973 12.6023C12.9941 12.532 12.5312 12.407 11.8086 12.2273C10.8789 11.9968 10.2266 11.7136 9.85156 11.3777C9.32422 10.905 9.06055 10.3289 9.06055 9.64917C9.06055 9.21167 9.18359 8.80347 9.42969 8.42456C9.67969 8.04175 10.0371 7.75073 10.502 7.55151C10.9707 7.35229 11.5352 7.25269 12.1953 7.25269C13.2734 7.25269 14.084 7.48901 14.627 7.96167C15.1738 8.43433 15.4609 9.06519 15.4883 9.85425L13.7539 9.93042C13.6797 9.48901 13.5195 9.17261 13.2734 8.9812C13.0312 8.78589 12.666 8.68823 12.1777 8.68823C11.6738 8.68823 11.2793 8.79175 10.9941 8.99878C10.8105 9.13159 10.7188 9.30933 10.7188 9.53198C10.7188 9.73511 10.8047 9.90894 10.9766 10.0535C11.1953 10.2371 11.7266 10.4285 12.5703 10.6277C13.4141 10.8269 14.0371 11.0339 14.4395 11.2488C14.8457 11.4597 15.1621 11.7507 15.3887 12.1218C15.6191 12.489 15.7344 12.9441 15.7344 13.4871C15.7344 13.9792 15.5977 14.4402 15.3242 14.8699C15.0508 15.2996 14.6641 15.6199 14.1641 15.8308C13.6641 16.0378 13.041 16.1414 12.2949 16.1414C11.209 16.1414 10.375 15.8914 9.79297 15.3914C9.21094 14.8875 8.86328 14.155 8.75 13.1941ZM17.1699 15.989V7.39917H19.7656L21.3242 13.2585L22.8652 7.39917H25.4668V15.989H23.8555V9.22729L22.1504 15.989H20.4805L18.7812 9.22729V15.989H17.1699ZM34.9355 15.989H33.0488L32.2988 14.0378H28.8652L28.1562 15.989H26.3164L29.6621 7.39917H31.4961L34.9355 15.989ZM31.7422 12.5906L30.5586 9.40308L29.3984 12.5906H31.7422ZM35.8672 15.989V7.39917H39.5176C40.4355 7.39917 41.1016 7.47729 41.5156 7.63354C41.9336 7.78589 42.2676 8.05933 42.5176 8.45386C42.7676 8.84839 42.8926 9.29956 42.8926 9.80737C42.8926 10.4519 42.7031 10.9851 42.3242 11.407C41.9453 11.825 41.3789 12.0886 40.625 12.198C41 12.4167 41.3086 12.657 41.5508 12.9187C41.7969 13.1804 42.127 13.6453 42.541 14.3132L43.5898 15.989H41.5156L40.2617 14.1199C39.8164 13.4519 39.5117 13.032 39.3477 12.8601C39.1836 12.6843 39.0098 12.5652 38.8262 12.5027C38.6426 12.4363 38.3516 12.4031 37.9531 12.4031H37.6016V15.989H35.8672ZM37.6016 11.032H38.8848C39.7168 11.032 40.2363 10.9968 40.4434 10.9265C40.6504 10.8562 40.8125 10.7351 40.9297 10.5632C41.0469 10.3914 41.1055 10.1765 41.1055 9.9187C41.1055 9.62964 41.0273 9.39722 40.8711 9.22144C40.7188 9.04175 40.502 8.92847 40.2207 8.88159C40.0801 8.86206 39.6582 8.85229 38.9551 8.85229H37.6016V11.032ZM50.0293 12.8308L51.7109 13.364C51.4531 14.3015 51.0234 14.9988 50.4219 15.4558C49.8242 15.9089 49.0645 16.1355 48.1426 16.1355C47.002 16.1355 46.0645 15.7468 45.3301 14.9695C44.5957 14.1882 44.2285 13.1218 44.2285 11.7703C44.2285 10.3406 44.5977 9.2312 45.3359 8.44214C46.0742 7.64917 47.0449 7.25269 48.248 7.25269C49.2988 7.25269 50.1523 7.56323 50.8086 8.18433C51.1992 8.55151 51.4922 9.07886 51.6875 9.76636L49.9707 10.1765C49.8691 9.7312 49.6562 9.37964 49.332 9.12183C49.0117 8.86401 48.6211 8.73511 48.1602 8.73511C47.5234 8.73511 47.0059 8.96362 46.6074 9.42065C46.2129 9.87769 46.0156 10.6179 46.0156 11.6414C46.0156 12.7273 46.2109 13.5007 46.6016 13.9617C46.9922 14.4226 47.5 14.6531 48.125 14.6531C48.5859 14.6531 48.9824 14.5066 49.3145 14.2136C49.6465 13.9207 49.8848 13.4597 50.0293 12.8308ZM60.9512 15.989H59.0645L58.3145 14.0378H54.8809L54.1719 15.989H52.332L55.6777 7.39917H57.5117L60.9512 15.989ZM57.7578 12.5906L56.5742 9.40308L55.4141 12.5906H57.7578ZM61.5371 13.78L63.1777 13.6101C63.2246 13.9812 63.3633 14.2761 63.5938 14.4949C63.8242 14.7097 64.0898 14.8171 64.3906 14.8171C64.7344 14.8171 65.0254 14.6785 65.2637 14.4011C65.502 14.1199 65.6211 13.698 65.6211 13.1355C65.6211 12.6082 65.502 12.2136 65.2637 11.9519C65.0293 11.6863 64.7227 11.5535 64.3438 11.5535C63.8711 11.5535 63.4473 11.7625 63.0723 12.1804L61.7363 11.9871L62.5801 7.51636H66.9336V9.05737H63.8281L63.5703 10.5164C63.9375 10.3328 64.3125 10.241 64.6953 10.241C65.4258 10.241 66.0449 10.5066 66.5527 11.0378C67.0605 11.5691 67.3145 12.2585 67.3145 13.1062C67.3145 13.8132 67.1094 14.4441 66.6992 14.9988C66.1406 15.7566 65.3652 16.1355 64.373 16.1355C63.5801 16.1355 62.9336 15.9226 62.4336 15.4968C61.9336 15.071 61.6348 14.4988 61.5371 13.78Z" fill="white"/>
<defs>
<linearGradient id="paint0_linear_67_1913" x1="38" y1="1.98901" x2="38" y2="21.989" gradientUnits="userSpaceOnUse">
<stop stop-color="#C15436"/>
<stop offset="1" stop-color="#00B6FF"/>
</linearGradient>
</defs>
</svg>
