<svg width="43" height="24" viewBox="0 0 43 24" fill="none" xmlns="http://www.w3.org/2000/svg">
<rect x="2" y="1.98901" width="40" height="20" rx="10" fill="url(#paint0_linear_42_2612)"/>
<rect x="2" y="1.98901" width="40" height="20" rx="10" stroke="#2AA077" stroke-width="3" stroke-linejoin="round"/>
<path d="M10.1992 15.989V7.39917H16.5684V8.85229H11.9336V10.7566H16.2461V12.2039H11.9336V14.5417H16.7324V15.989H10.1992ZM18.2266 15.989V7.39917H19.9609V11.2136L23.4648 7.39917H25.7969L22.5625 10.7449L25.9727 15.989H23.7285L21.3672 11.9578L19.9609 13.3933V15.989H18.2266ZM32.3711 12.8308L34.0527 13.364C33.7949 14.3015 33.3652 14.9988 32.7637 15.4558C32.166 15.9089 31.4062 16.1355 30.4844 16.1355C29.3438 16.1355 28.4062 15.7468 27.6719 14.9695C26.9375 14.1882 26.5703 13.1218 26.5703 11.7703C26.5703 10.3406 26.9395 9.2312 27.6777 8.44214C28.416 7.64917 29.3867 7.25269 30.5898 7.25269C31.6406 7.25269 32.4941 7.56323 33.1504 8.18433C33.541 8.55151 33.834 9.07886 34.0293 9.76636L32.3125 10.1765C32.2109 9.7312 31.998 9.37964 31.6738 9.12183C31.3535 8.86401 30.9629 8.73511 30.502 8.73511C29.8652 8.73511 29.3477 8.96362 28.9492 9.42065C28.5547 9.87769 28.3574 10.6179 28.3574 11.6414C28.3574 12.7273 28.5527 13.5007 28.9434 13.9617C29.334 14.4226 29.8418 14.6531 30.4668 14.6531C30.9277 14.6531 31.3242 14.5066 31.6562 14.2136C31.9883 13.9207 32.2266 13.4597 32.3711 12.8308Z" fill="white"/>
<defs>
<linearGradient id="paint0_linear_42_2612" x1="22" y1="1.98901" x2="22" y2="21.989" gradientUnits="userSpaceOnUse">
<stop stop-color="#2AA077"/>
<stop offset="1" stop-color="#A10647"/>
</linearGradient>
</defs>
</svg>
