<svg width="64" height="24" viewBox="0 0 64 24" fill="none" xmlns="http://www.w3.org/2000/svg">
<rect x="2" y="1.98901" width="61" height="20" rx="10" fill="url(#paint0_linear_84_2026)"/>
<rect x="2" y="1.98901" width="61" height="20" rx="10" stroke="#257E99" stroke-width="3" stroke-linejoin="round"/>
<path d="M11.957 15.989V8.85229H9.4082V7.39917H16.2344V8.85229H13.6914V15.989H11.957ZM17.3652 15.989V7.39917H21.0156C21.9336 7.39917 22.5996 7.47729 23.0137 7.63354C23.4316 7.78589 23.7656 8.05933 24.0156 8.45386C24.2656 8.84839 24.3906 9.29956 24.3906 9.80737C24.3906 10.4519 24.2012 10.9851 23.8223 11.407C23.4434 11.825 22.877 12.0886 22.123 12.198C22.498 12.4167 22.8066 12.657 23.0488 12.9187C23.2949 13.1804 23.625 13.6453 24.0391 14.3132L25.0879 15.989H23.0137L21.7598 14.1199C21.3145 13.4519 21.0098 13.032 20.8457 12.8601C20.6816 12.6843 20.5078 12.5652 20.3242 12.5027C20.1406 12.4363 19.8496 12.4031 19.4512 12.4031H19.0996V15.989H17.3652ZM19.0996 11.032H20.3828C21.2148 11.032 21.7344 10.9968 21.9414 10.9265C22.1484 10.8562 22.3105 10.7351 22.4277 10.5632C22.5449 10.3914 22.6035 10.1765 22.6035 9.9187C22.6035 9.62964 22.5254 9.39722 22.3691 9.22144C22.2168 9.04175 22 8.92847 21.7188 8.88159C21.5781 8.86206 21.1562 8.85229 20.4531 8.85229H19.0996V11.032ZM26.0078 15.989V7.39917H28.6035L30.1621 13.2585L31.7031 7.39917H34.3047V15.989H32.6934V9.22729L30.9883 15.989H29.3184L27.6191 9.22729V15.989H26.0078ZM37.9609 15.989V8.85229H35.4121V7.39917H42.2383V8.85229H39.6953V15.989H37.9609ZM47.2129 15.989H45.5664V9.78394C44.9648 10.3464 44.2559 10.7625 43.4395 11.032V9.53784C43.8691 9.39722 44.3359 9.13159 44.8398 8.74097C45.3438 8.34644 45.6895 7.88745 45.877 7.36401H47.2129V15.989ZM49.6211 13.7097L51.2148 13.5164C51.2656 13.9226 51.4023 14.2332 51.625 14.448C51.8477 14.6628 52.1172 14.7703 52.4336 14.7703C52.7734 14.7703 53.0586 14.6414 53.2891 14.3835C53.5234 14.1257 53.6406 13.7781 53.6406 13.3406C53.6406 12.9265 53.5293 12.5984 53.3066 12.3562C53.084 12.114 52.8125 11.9929 52.4922 11.9929C52.2812 11.9929 52.0293 12.0339 51.7363 12.116L51.918 10.7742C52.3633 10.7859 52.7031 10.6902 52.9375 10.4871C53.1719 10.28 53.2891 10.0066 53.2891 9.66675C53.2891 9.37769 53.2031 9.14722 53.0312 8.97534C52.8594 8.80347 52.6309 8.71753 52.3457 8.71753C52.0645 8.71753 51.8242 8.81519 51.625 9.0105C51.4258 9.20581 51.3047 9.49097 51.2617 9.86597L49.7441 9.60815C49.8496 9.08862 50.0078 8.67456 50.2188 8.36597C50.4336 8.05347 50.7305 7.80933 51.1094 7.63354C51.4922 7.45386 51.9199 7.36401 52.3926 7.36401C53.2012 7.36401 53.8496 7.62183 54.3379 8.13745C54.7402 8.55933 54.9414 9.03589 54.9414 9.56714C54.9414 10.321 54.5293 10.9226 53.7051 11.3718C54.1973 11.4773 54.5898 11.7136 54.8828 12.0808C55.1797 12.448 55.3281 12.8914 55.3281 13.4109C55.3281 14.1648 55.0527 14.8074 54.502 15.3386C53.9512 15.8699 53.2656 16.1355 52.4453 16.1355C51.668 16.1355 51.0234 15.9128 50.5117 15.4675C50 15.0183 49.7031 14.4324 49.6211 13.7097Z" fill="white"/>
<defs>
<linearGradient id="paint0_linear_84_2026" x1="32.5" y1="1.98901" x2="32.5" y2="21.989" gradientUnits="userSpaceOnUse">
<stop stop-color="#257E99"/>
<stop offset="1" stop-color="#FFE439"/>
</linearGradient>
</defs>
</svg>
