<svg width="62" height="24" viewBox="0 0 62 24" fill="none" xmlns="http://www.w3.org/2000/svg">
<rect x="2" y="1.98901" width="59" height="20" rx="10" fill="url(#paint0_linear_64_1834)"/>
<rect x="2" y="1.98901" width="59" height="20" rx="10" stroke="#0F1A09" stroke-width="3" stroke-linejoin="round"/>
<path d="M10.043 15.989V7.39917H11.7305L15.2461 13.1355V7.39917H16.8574V15.989H15.1172L11.6543 10.3875V15.989H10.043ZM26.4434 15.989H24.5566L23.8066 14.0378H20.373L19.6641 15.989H17.8242L21.1699 7.39917H23.0039L26.4434 15.989ZM23.25 12.5906L22.0664 9.40308L20.9062 12.5906H23.25ZM27.3867 15.989V7.39917H29.0742L32.5898 13.1355V7.39917H34.2012V15.989H32.4609L28.998 10.3875V15.989H27.3867ZM35.6895 11.7468C35.6895 10.8718 35.8203 10.1375 36.082 9.5437C36.2773 9.1062 36.543 8.71362 36.8789 8.36597C37.2188 8.01831 37.5898 7.7605 37.9922 7.59253C38.5273 7.36597 39.1445 7.25269 39.8438 7.25269C41.1094 7.25269 42.1211 7.64526 42.8789 8.43042C43.6406 9.21558 44.0215 10.3074 44.0215 11.7058C44.0215 13.0925 43.6445 14.1785 42.8906 14.9636C42.1367 15.7449 41.1289 16.1355 39.8672 16.1355C38.5898 16.1355 37.5742 15.7468 36.8203 14.9695C36.0664 14.1882 35.6895 13.114 35.6895 11.7468ZM37.4766 11.6882C37.4766 12.6609 37.7012 13.3992 38.1504 13.9031C38.5996 14.4031 39.1699 14.6531 39.8613 14.6531C40.5527 14.6531 41.1191 14.405 41.5605 13.9089C42.0059 13.4089 42.2285 12.6609 42.2285 11.6648C42.2285 10.6804 42.0117 9.94604 41.5781 9.46167C41.1484 8.97729 40.5762 8.73511 39.8613 8.73511C39.1465 8.73511 38.5703 8.9812 38.1328 9.47339C37.6953 9.96167 37.4766 10.7 37.4766 11.6882ZM49.377 12.8308V11.3835H53.1152V14.8054C52.752 15.157 52.2246 15.4675 51.5332 15.7371C50.8457 16.0027 50.1484 16.1355 49.4414 16.1355C48.543 16.1355 47.7598 15.948 47.0918 15.573C46.4238 15.1941 45.9219 14.655 45.5859 13.9558C45.25 13.2527 45.082 12.489 45.082 11.6648C45.082 10.7703 45.2695 9.97534 45.6445 9.28003C46.0195 8.58472 46.5684 8.05151 47.291 7.68042C47.8418 7.39526 48.5273 7.25269 49.3477 7.25269C50.4141 7.25269 51.2461 7.47729 51.8438 7.92651C52.4453 8.37183 52.832 8.98901 53.0039 9.77808L51.2812 10.1003C51.1602 9.67847 50.9316 9.34644 50.5957 9.10425C50.2637 8.85815 49.8477 8.73511 49.3477 8.73511C48.5898 8.73511 47.9863 8.97534 47.5371 9.45581C47.0918 9.93628 46.8691 10.6492 46.8691 11.5945C46.8691 12.614 47.0957 13.3796 47.5488 13.8914C48.002 14.3992 48.5957 14.6531 49.3301 14.6531C49.6934 14.6531 50.0566 14.5828 50.4199 14.4421C50.7871 14.2976 51.1016 14.1238 51.3633 13.9207V12.8308H49.377Z" fill="white"/>
<defs>
<linearGradient id="paint0_linear_64_1834" x1="31.5" y1="1.98901" x2="31.5" y2="21.989" gradientUnits="userSpaceOnUse">
<stop stop-color="#0F1A09"/>
<stop offset="1" stop-color="#65AD3E"/>
</linearGradient>
</defs>
</svg>
