<svg width="48" height="24" viewBox="0 0 48 24" fill="none" xmlns="http://www.w3.org/2000/svg">
<rect x="2" y="1.98901" width="45" height="20" rx="10" fill="url(#paint0_linear_50_1824)"/>
<rect x="2" y="1.98901" width="45" height="20" rx="10" stroke="#846DDE" stroke-width="3" stroke-linejoin="round"/>
<path d="M13.1211 7.39917H14.8496V12.8367C14.8496 13.5476 14.7871 14.0945 14.6621 14.4773C14.4941 14.9773 14.1895 15.3796 13.748 15.6843C13.3066 15.9851 12.7246 16.1355 12.002 16.1355C11.1543 16.1355 10.502 15.8992 10.0449 15.4265C9.58789 14.95 9.35742 14.2527 9.35352 13.3347L10.9883 13.1472C11.0078 13.6394 11.0801 13.9871 11.2051 14.1902C11.3926 14.4988 11.6777 14.6531 12.0605 14.6531C12.4473 14.6531 12.7207 14.5437 12.8809 14.325C13.041 14.1023 13.1211 13.6433 13.1211 12.948V7.39917ZM24.4473 15.989H22.5605L21.8105 14.0378H18.377L17.668 15.989H15.8281L19.1738 7.39917H21.0078L24.4473 15.989ZM21.2539 12.5906L20.0703 9.40308L18.9102 12.5906H21.2539ZM25.3965 15.989V7.39917H27.1309V11.2136L30.6348 7.39917H32.9668L29.7324 10.7449L33.1426 15.989H30.8984L28.5371 11.9578L27.1309 13.3933V15.989H25.3965ZM39.2422 14.4597V15.989H33.4707C33.5332 15.4109 33.7207 14.864 34.0332 14.3484C34.3457 13.8289 34.9629 13.1414 35.8848 12.2859C36.627 11.5945 37.082 11.1257 37.25 10.8796C37.4766 10.5398 37.5898 10.2039 37.5898 9.87183C37.5898 9.50464 37.4902 9.22339 37.291 9.02808C37.0957 8.82886 36.8242 8.72925 36.4766 8.72925C36.1328 8.72925 35.8594 8.83276 35.6562 9.03979C35.4531 9.24683 35.3359 9.59058 35.3047 10.071L33.6641 9.90698C33.7617 9.00073 34.0684 8.35034 34.584 7.95581C35.0996 7.56128 35.7441 7.36401 36.5176 7.36401C37.3652 7.36401 38.0312 7.59253 38.5156 8.04956C39 8.50659 39.2422 9.07495 39.2422 9.75464C39.2422 10.1414 39.1719 10.5105 39.0312 10.8621C38.8945 11.2097 38.6758 11.575 38.375 11.9578C38.1758 12.2117 37.8164 12.5769 37.2969 13.0535C36.7773 13.53 36.4473 13.8464 36.3066 14.0027C36.1699 14.1589 36.0586 14.3113 35.9727 14.4597H39.2422Z" fill="white"/>
<defs>
<linearGradient id="paint0_linear_50_1824" x1="24.5" y1="1.98901" x2="24.5" y2="21.989" gradientUnits="userSpaceOnUse">
<stop stop-color="#FFA82C"/>
<stop offset="1" stop-color="#846DDE"/>
</linearGradient>
</defs>
</svg>
