<svg width="40" height="40" viewBox="0 0 40 40" fill="none" xmlns="http://www.w3.org/2000/svg">
<path d="M20.0215 1.48901C30.356 1.48925 38.7637 9.89738 38.7637 20.2332C38.7634 30.5688 30.3559 38.9751 20.0215 38.9753C9.68571 38.9753 1.27758 30.5677 1.27734 20.2332C1.27734 9.89833 9.68542 1.48901 20.0215 1.48901Z" fill="url(#paint0_radial_89_4110)" stroke="#312BA5"/>
<path d="M12.5977 23.989V15.3992H14.332V23.989H12.5977ZM16.0371 23.989V15.4695H17.7715V22.5417H22.084V23.989H16.0371ZM26.1914 23.989V22.2605H22.6758V20.8191L26.4023 15.364H27.7852V20.8132H28.8516V22.2605H27.7852V23.989H26.1914ZM26.1914 20.8132V17.8777L24.2168 20.8132H26.1914Z" fill="white"/>
<defs>
<radialGradient id="paint0_radial_89_4110" cx="0" cy="0" r="1" gradientUnits="userSpaceOnUse" gradientTransform="translate(12.0667 10.7757) rotate(180) scale(17.472)">
<stop stop-color="#6DAEE3"/>
<stop offset="0.0426" stop-color="#61A3DA"/>
<stop offset="0.1471" stop-color="#4A8FC7"/>
<stop offset="0.2668" stop-color="#377FB9"/>
<stop offset="0.4091" stop-color="#2B73AF"/>
<stop offset="0.5961" stop-color="#236DA9"/>
<stop offset="0.9995" stop-color="#216BA7"/>
</radialGradient>
</defs>
</svg>
