<svg width="50" height="24" viewBox="0 0 50 24" fill="none" xmlns="http://www.w3.org/2000/svg">
<rect x="2" y="1.98901" width="47" height="20" rx="10" fill="url(#paint0_linear_42_2602)"/>
<rect x="2" y="1.98901" width="47" height="20" rx="10" stroke="#D15592" stroke-width="3" stroke-linejoin="round"/>
<path d="M10.3535 7.39917H13.5234C14.2383 7.39917 14.7832 7.45386 15.1582 7.56323C15.6621 7.71167 16.0938 7.97534 16.4531 8.35425C16.8125 8.73315 17.0859 9.198 17.2734 9.74878C17.4609 10.2957 17.5547 10.9714 17.5547 11.7761C17.5547 12.4832 17.4668 13.0925 17.291 13.6042C17.0762 14.2292 16.7695 14.7351 16.3711 15.1218C16.0703 15.4148 15.6641 15.6433 15.1523 15.8074C14.7695 15.9285 14.2578 15.989 13.6172 15.989H10.3535V7.39917ZM12.0879 8.85229V14.5417H13.3828C13.8672 14.5417 14.2168 14.5144 14.4316 14.4597C14.7129 14.3894 14.9453 14.2703 15.1289 14.1023C15.3164 13.9343 15.4688 13.6589 15.5859 13.2761C15.7031 12.8894 15.7617 12.364 15.7617 11.7C15.7617 11.0359 15.7031 10.5261 15.5859 10.1707C15.4688 9.81519 15.3047 9.53784 15.0938 9.33862C14.8828 9.1394 14.6152 9.00464 14.291 8.93433C14.0488 8.87964 13.5742 8.85229 12.8672 8.85229H12.0879ZM19.0195 7.39917H20.7539V12.0515C20.7539 12.7898 20.7754 13.2683 20.8184 13.4871C20.8926 13.8386 21.0684 14.1218 21.3457 14.3367C21.627 14.5476 22.0098 14.6531 22.4941 14.6531C22.9863 14.6531 23.3574 14.5535 23.6074 14.3542C23.8574 14.1511 24.0078 13.9031 24.0586 13.6101C24.1094 13.3171 24.1348 12.8308 24.1348 12.1511V7.39917H25.8691V11.9109C25.8691 12.9421 25.8223 13.6707 25.7285 14.0964C25.6348 14.5222 25.4609 14.8816 25.207 15.1746C24.957 15.4675 24.6211 15.7019 24.1992 15.8777C23.7773 16.0496 23.2266 16.1355 22.5469 16.1355C21.7266 16.1355 21.1035 16.0417 20.6777 15.8542C20.2559 15.6628 19.9219 15.4167 19.6758 15.116C19.4297 14.8113 19.2676 14.4929 19.1895 14.1609C19.0762 13.6687 19.0195 12.9421 19.0195 11.9812V7.39917ZM27.2637 13.1941L28.9512 13.03C29.0527 13.5964 29.2578 14.0125 29.5664 14.2781C29.8789 14.5437 30.2988 14.6765 30.8262 14.6765C31.3848 14.6765 31.8047 14.5593 32.0859 14.325C32.3711 14.0867 32.5137 13.8093 32.5137 13.4929C32.5137 13.2898 32.4531 13.1179 32.332 12.9773C32.2148 12.8328 32.0078 12.7078 31.7109 12.6023C31.5078 12.532 31.0449 12.407 30.3223 12.2273C29.3926 11.9968 28.7402 11.7136 28.3652 11.3777C27.8379 10.905 27.5742 10.3289 27.5742 9.64917C27.5742 9.21167 27.6973 8.80347 27.9434 8.42456C28.1934 8.04175 28.5508 7.75073 29.0156 7.55151C29.4844 7.35229 30.0488 7.25269 30.709 7.25269C31.7871 7.25269 32.5977 7.48901 33.1406 7.96167C33.6875 8.43433 33.9746 9.06519 34.002 9.85425L32.2676 9.93042C32.1934 9.48901 32.0332 9.17261 31.7871 8.9812C31.5449 8.78589 31.1797 8.68823 30.6914 8.68823C30.1875 8.68823 29.793 8.79175 29.5078 8.99878C29.3242 9.13159 29.2324 9.30933 29.2324 9.53198C29.2324 9.73511 29.3184 9.90894 29.4902 10.0535C29.709 10.2371 30.2402 10.4285 31.084 10.6277C31.9277 10.8269 32.5508 11.0339 32.9531 11.2488C33.3594 11.4597 33.6758 11.7507 33.9023 12.1218C34.1328 12.489 34.248 12.9441 34.248 13.4871C34.248 13.9792 34.1113 14.4402 33.8379 14.8699C33.5645 15.2996 33.1777 15.6199 32.6777 15.8308C32.1777 16.0378 31.5547 16.1414 30.8086 16.1414C29.7227 16.1414 28.8887 15.8914 28.3066 15.3914C27.7246 14.8875 27.377 14.155 27.2637 13.1941ZM40.9043 14.4597V15.989H35.1328C35.1953 15.4109 35.3828 14.864 35.6953 14.3484C36.0078 13.8289 36.625 13.1414 37.5469 12.2859C38.2891 11.5945 38.7441 11.1257 38.9121 10.8796C39.1387 10.5398 39.252 10.2039 39.252 9.87183C39.252 9.50464 39.1523 9.22339 38.9531 9.02808C38.7578 8.82886 38.4863 8.72925 38.1387 8.72925C37.7949 8.72925 37.5215 8.83276 37.3184 9.03979C37.1152 9.24683 36.998 9.59058 36.9668 10.071L35.3262 9.90698C35.4238 9.00073 35.7305 8.35034 36.2461 7.95581C36.7617 7.56128 37.4062 7.36401 38.1797 7.36401C39.0273 7.36401 39.6934 7.59253 40.1777 8.04956C40.6621 8.50659 40.9043 9.07495 40.9043 9.75464C40.9043 10.1414 40.834 10.5105 40.6934 10.8621C40.5566 11.2097 40.3379 11.575 40.0371 11.9578C39.8379 12.2117 39.4785 12.5769 38.959 13.0535C38.4395 13.53 38.1094 13.8464 37.9688 14.0027C37.832 14.1589 37.7207 14.3113 37.6348 14.4597H40.9043Z" fill="white"/>
<defs>
<linearGradient id="paint0_linear_42_2602" x1="25.5" y1="1.98901" x2="25.5" y2="21.989" gradientUnits="userSpaceOnUse">
<stop stop-color="#D15592"/>
<stop offset="1" stop-color="#9C86B8"/>
</linearGradient>
</defs>
</svg>
