<svg width="40" height="24" viewBox="0 0 40 24" fill="none" xmlns="http://www.w3.org/2000/svg">
<rect x="2" y="1.98901" width="37" height="20" rx="10" fill="url(#paint0_linear_37_1833)"/>
<rect x="2" y="1.98901" width="37" height="20" rx="10" stroke="#D5A852" stroke-width="3" stroke-linejoin="round"/>
<path d="M15.5254 12.8308L17.207 13.364C16.9492 14.3015 16.5195 14.9988 15.918 15.4558C15.3203 15.9089 14.5605 16.1355 13.6387 16.1355C12.498 16.1355 11.5605 15.7468 10.8262 14.9695C10.0918 14.1882 9.72461 13.1218 9.72461 11.7703C9.72461 10.3406 10.0938 9.2312 10.832 8.44214C11.5703 7.64917 12.541 7.25269 13.7441 7.25269C14.7949 7.25269 15.6484 7.56323 16.3047 8.18433C16.6953 8.55151 16.9883 9.07886 17.1836 9.76636L15.4668 10.1765C15.3652 9.7312 15.1523 9.37964 14.8281 9.12183C14.5078 8.86401 14.1172 8.73511 13.6562 8.73511C13.0195 8.73511 12.502 8.96362 12.1035 9.42065C11.709 9.87769 11.5117 10.6179 11.5117 11.6414C11.5117 12.7273 11.707 13.5007 12.0977 13.9617C12.4883 14.4226 12.9961 14.6531 13.6211 14.6531C14.082 14.6531 14.4785 14.5066 14.8105 14.2136C15.1426 13.9207 15.3809 13.4597 15.5254 12.8308ZM21.5664 15.989V14.2605H18.0508V12.8191L21.7773 7.36401H23.1602V12.8132H24.2266V14.2605H23.1602V15.989H21.5664ZM21.5664 12.8132V9.87769L19.5918 12.8132H21.5664ZM25.2988 15.989V7.39917H26.9453V10.4929C27.4531 9.91479 28.0547 9.62573 28.75 9.62573C29.5078 9.62573 30.1348 9.90112 30.6309 10.4519C31.127 10.9988 31.375 11.7859 31.375 12.8132C31.375 13.8757 31.1211 14.6941 30.6133 15.2683C30.1094 15.8425 29.4961 16.1296 28.7734 16.1296C28.418 16.1296 28.0664 16.0417 27.7188 15.866C27.375 15.6863 27.0781 15.4226 26.8281 15.075V15.989H25.2988ZM26.9336 12.7429C26.9336 13.3875 27.0352 13.864 27.2383 14.1726C27.5234 14.6101 27.9023 14.8289 28.375 14.8289C28.7383 14.8289 29.0469 14.6746 29.3008 14.366C29.5586 14.0535 29.6875 13.5632 29.6875 12.8953C29.6875 12.1843 29.5586 11.6726 29.3008 11.3601C29.043 11.0437 28.7129 10.8855 28.3105 10.8855C27.916 10.8855 27.5879 11.0398 27.3262 11.3484C27.0645 11.6531 26.9336 12.1179 26.9336 12.7429Z" fill="white"/>
<defs>
<linearGradient id="paint0_linear_37_1833" x1="20.5" y1="1.98901" x2="20.5" y2="21.989" gradientUnits="userSpaceOnUse">
<stop stop-color="#D5A852"/>
<stop offset="1" stop-color="#54421F"/>
</linearGradient>
</defs>
</svg>
