<svg width="53" height="24" viewBox="0 0 53 24" fill="none" xmlns="http://www.w3.org/2000/svg">
<rect x="2" y="1.98901" width="50" height="20" rx="10" fill="url(#paint0_linear_45_4252)"/>
<rect x="2" y="1.98901" width="50" height="20" rx="10" stroke="#20BFF3" stroke-width="3" stroke-linejoin="round"/>
<path d="M14.1914 12.8308V11.3835H17.9297V14.8054C17.5664 15.157 17.0391 15.4675 16.3477 15.7371C15.6602 16.0027 14.9629 16.1355 14.2559 16.1355C13.3574 16.1355 12.5742 15.948 11.9062 15.573C11.2383 15.1941 10.7363 14.655 10.4004 13.9558C10.0645 13.2527 9.89648 12.489 9.89648 11.6648C9.89648 10.7703 10.084 9.97534 10.459 9.28003C10.834 8.58472 11.3828 8.05151 12.1055 7.68042C12.6562 7.39526 13.3418 7.25269 14.1621 7.25269C15.2285 7.25269 16.0605 7.47729 16.6582 7.92651C17.2598 8.37183 17.6465 8.98901 17.8184 9.77808L16.0957 10.1003C15.9746 9.67847 15.7461 9.34644 15.4102 9.10425C15.0781 8.85815 14.6621 8.73511 14.1621 8.73511C13.4043 8.73511 12.8008 8.97534 12.3516 9.45581C11.9062 9.93628 11.6836 10.6492 11.6836 11.5945C11.6836 12.614 11.9102 13.3796 12.3633 13.8914C12.8164 14.3992 13.4102 14.6531 14.1445 14.6531C14.5078 14.6531 14.8711 14.5828 15.2344 14.4421C15.6016 14.2976 15.916 14.1238 16.1777 13.9207V12.8308H14.1914ZM19.582 15.989V7.46948H21.3164V14.5417H25.6289V15.989H19.582ZM26.8711 15.989V7.39917H29.6543C30.709 7.39917 31.3965 7.44214 31.7168 7.52808C32.209 7.65698 32.6211 7.93823 32.9531 8.37183C33.2852 8.80151 33.4512 9.35815 33.4512 10.0417C33.4512 10.5691 33.3555 11.0125 33.1641 11.3718C32.9727 11.7312 32.7285 12.0144 32.4316 12.2214C32.1387 12.4246 31.8398 12.5593 31.5352 12.6257C31.1211 12.7078 30.5215 12.7488 29.7363 12.7488H28.6055V15.989H26.8711ZM28.6055 8.85229V11.2898H29.5547C30.2383 11.2898 30.6953 11.2449 30.9258 11.155C31.1562 11.0652 31.3359 10.9246 31.4648 10.7332C31.5977 10.5417 31.6641 10.3191 31.6641 10.0652C31.6641 9.75269 31.5723 9.49487 31.3887 9.29175C31.2051 9.08862 30.9727 8.96167 30.6914 8.91089C30.4844 8.87183 30.0684 8.85229 29.4434 8.85229H28.6055ZM34.6758 13.698V12.0515H37.9102V13.698H34.6758ZM42.7207 15.989H41.0742V9.78394C40.4727 10.3464 39.7637 10.7625 38.9473 11.032V9.53784C39.377 9.39722 39.8438 9.13159 40.3477 8.74097C40.8516 8.34644 41.1973 7.88745 41.3848 7.36401H42.7207V15.989Z" fill="white"/>
<defs>
<linearGradient id="paint0_linear_45_4252" x1="27" y1="1.98901" x2="27" y2="21.989" gradientUnits="userSpaceOnUse">
<stop stop-color="#20BFF3"/>
<stop offset="1" stop-color="#A32702"/>
</linearGradient>
</defs>
</svg>
