<svg width="70" height="36" viewBox="0 0 70 36" fill="none" xmlns="http://www.w3.org/2000/svg">
<path d="M18.3729 0.462891C8.60913 0.462891 0.896729 8.28719 0.896729 17.939C0.896729 27.5909 8.54513 35.4152 18.3729 35.4152C28.2007 35.4152 26.8803 29.4148 35.4029 29.4148C43.9255 29.4148 42.7811 35.4152 52.4329 35.4152C62.0847 35.4152 69.9091 27.5909 69.9091 17.939C69.909 8.28719 62.1002 0.462891 52.4328 0.462891C42.7654 0.462891 44.4095 6.46329 35.4028 6.46329C26.3961 6.46329 28.1367 0.462891 18.3729 0.462891Z" fill="url(#paint0_linear_86_2601)"/>
<path d="M18.3851 0.0563965C8.62134 0.0563965 0.908936 7.8807 0.908936 17.5325C0.908936 27.1844 8.55734 35.0087 18.3851 35.0087C28.2129 35.0087 26.8925 29.0083 35.4151 29.0083C43.9377 29.0083 42.7933 35.0087 52.4451 35.0087C62.0969 35.0087 69.9213 27.1844 69.9213 17.5325C69.9212 7.8807 62.1124 0.0563965 52.445 0.0563965C42.7776 0.0563965 44.4217 6.0568 35.415 6.0568C26.4083 6.0568 28.1489 0.0563965 18.3851 0.0563965Z" fill="url(#paint1_linear_86_2601)"/>
<path d="M10.9447 19.2615L12.6322 19.0974C12.7338 19.6638 12.9388 20.0798 13.2474 20.3455C13.5599 20.6111 13.9799 20.7439 14.5072 20.7439C15.0658 20.7439 15.4857 20.6267 15.767 20.3923C16.0521 20.1541 16.1947 19.8767 16.1947 19.5603C16.1947 19.3572 16.1342 19.1853 16.0131 19.0447C15.8959 18.9001 15.6888 18.7751 15.392 18.6697C15.1888 18.5994 14.726 18.4744 14.0033 18.2947C13.0736 18.0642 12.4213 17.781 12.0463 17.4451C11.5189 16.9724 11.2552 16.3962 11.2552 15.7166C11.2552 15.2791 11.3783 14.8708 11.6244 14.4919C11.8744 14.1091 12.2318 13.8181 12.6967 13.6189C13.1654 13.4197 13.7299 13.3201 14.39 13.3201C15.4681 13.3201 16.2787 13.5564 16.8217 14.0291C17.3685 14.5017 17.6556 15.1326 17.683 15.9216L15.9486 15.9978C15.8744 15.5564 15.7142 15.24 15.4681 15.0486C15.226 14.8533 14.8607 14.7556 14.3724 14.7556C13.8685 14.7556 13.474 14.8591 13.1888 15.0662C13.0052 15.199 12.9135 15.3767 12.9135 15.5994C12.9135 15.8025 12.9994 15.9763 13.1713 16.1208C13.39 16.3044 13.9213 16.4958 14.765 16.6951C15.6088 16.8943 16.2318 17.1013 16.6342 17.3162C17.0404 17.5271 17.3568 17.8181 17.5834 18.1892C17.8138 18.5564 17.9291 19.0115 17.9291 19.5544C17.9291 20.0466 17.7924 20.5076 17.5189 20.9373C17.2455 21.3669 16.8588 21.6873 16.3588 21.8982C15.8588 22.1052 15.2357 22.2087 14.4896 22.2087C13.4037 22.2087 12.5697 21.9587 11.9877 21.4587C11.4056 20.9548 11.058 20.2224 10.9447 19.2615ZM19.3881 22.0564V13.4666H25.7572V14.9197H21.1224V16.824H25.4349V18.2712H21.1224V20.6091H25.9213V22.0564H19.3881ZM27.3685 22.0564V13.4666H29.9642L31.5228 19.3259L33.0638 13.4666H35.6654V22.0564H34.0541V15.2947L32.349 22.0564H30.6791L28.9799 15.2947V22.0564H27.3685ZM45.1342 22.0564H43.2474L42.4974 20.1052H39.0638L38.3549 22.0564H36.515L39.8607 13.4666H41.6947L45.1342 22.0564ZM41.9408 18.658L40.7572 15.4705L39.597 18.658H41.9408ZM45.6381 19.7771L47.2318 19.5837C47.2826 19.99 47.4193 20.3005 47.642 20.5154C47.8646 20.7302 48.1342 20.8376 48.4506 20.8376C48.7904 20.8376 49.0756 20.7087 49.306 20.4509C49.5404 20.1931 49.6576 19.8455 49.6576 19.408C49.6576 18.9939 49.5463 18.6658 49.3236 18.4236C49.101 18.1814 48.8295 18.0603 48.5092 18.0603C48.2982 18.0603 48.0463 18.1013 47.7533 18.1833L47.9349 16.8416C48.3802 16.8533 48.7201 16.7576 48.9545 16.5544C49.1888 16.3474 49.306 16.074 49.306 15.7341C49.306 15.4451 49.2201 15.2146 49.0482 15.0427C48.8763 14.8708 48.6478 14.7849 48.3627 14.7849C48.0814 14.7849 47.8412 14.8826 47.642 15.0779C47.4427 15.2732 47.3217 15.5583 47.2787 15.9333L45.7611 15.6755C45.8666 15.156 46.0248 14.7419 46.2357 14.4333C46.4506 14.1208 46.7474 13.8767 47.1263 13.7009C47.5092 13.5212 47.9369 13.4314 48.4095 13.4314C49.2181 13.4314 49.8666 13.6892 50.3549 14.2048C50.7572 14.6267 50.9584 15.1033 50.9584 15.6345C50.9584 16.3884 50.5463 16.99 49.722 17.4392C50.2142 17.5447 50.6068 17.781 50.8998 18.1482C51.1967 18.5154 51.3451 18.9587 51.3451 19.4783C51.3451 20.2322 51.0697 20.8748 50.5189 21.406C49.9681 21.9373 49.2826 22.2029 48.4623 22.2029C47.6849 22.2029 47.0404 21.9802 46.5287 21.5349C46.017 21.0857 45.7201 20.4998 45.6381 19.7771ZM60.4857 22.0564H58.599L57.849 20.1052H54.4154L53.7064 22.0564H51.8666L55.2123 13.4666H57.0463L60.4857 22.0564ZM57.2924 18.658L56.1088 15.4705L54.9486 18.658H57.2924Z" fill="white"/>
<defs>
<linearGradient id="paint0_linear_86_2601" x1="0.896729" y1="17.9391" x2="69.909" y2="17.9391" gradientUnits="userSpaceOnUse">
<stop stop-color="#300F0F"/>
<stop offset="0.0425" stop-color="#5D1212"/>
<stop offset="0.085" stop-color="#831414"/>
<stop offset="0.1273" stop-color="#A01616"/>
<stop offset="0.1692" stop-color="#B41717"/>
<stop offset="0.2103" stop-color="#C11818"/>
<stop offset="0.25" stop-color="#C51818"/>
<stop offset="0.2815" stop-color="#BC1717"/>
<stop offset="0.3329" stop-color="#A41616"/>
<stop offset="0.3978" stop-color="#7C1414"/>
<stop offset="0.4729" stop-color="#451010"/>
<stop offset="0.5" stop-color="#300F0F"/>
<stop offset="0.5271" stop-color="#451010"/>
<stop offset="0.6022" stop-color="#7C1414"/>
<stop offset="0.6671" stop-color="#A41616"/>
<stop offset="0.7185" stop-color="#BC1717"/>
<stop offset="0.75" stop-color="#C51818"/>
<stop offset="0.7897" stop-color="#C11818"/>
<stop offset="0.8308" stop-color="#B41717"/>
<stop offset="0.8727" stop-color="#A01616"/>
<stop offset="0.915" stop-color="#831414"/>
<stop offset="0.9575" stop-color="#5D1212"/>
<stop offset="1" stop-color="#300F0F"/>
</linearGradient>
<linearGradient id="paint1_linear_86_2601" x1="35.4151" y1="35.0087" x2="35.4151" y2="0.0563965" gradientUnits="userSpaceOnUse">
<stop stop-color="#300F0F"/>
<stop offset="0.0687" stop-color="#491212" stop-opacity="0.8695"/>
<stop offset="0.1501" stop-color="#5E1515" stop-opacity="0.7149"/>
<stop offset="0.2403" stop-color="#6D1717" stop-opacity="0.5434"/>
<stop offset="0.3453" stop-color="#761818" stop-opacity="0.3439"/>
<stop offset="0.5" stop-color="#791818" stop-opacity="0.05"/>
<stop offset="0.6547" stop-color="#761818" stop-opacity="0.3439"/>
<stop offset="0.7597" stop-color="#6D1717" stop-opacity="0.5434"/>
<stop offset="0.8499" stop-color="#5E1515" stop-opacity="0.7149"/>
<stop offset="0.9313" stop-color="#491212" stop-opacity="0.8695"/>
<stop offset="1" stop-color="#300F0F"/>
</linearGradient>
</defs>
</svg>
