<svg width="66" height="24" viewBox="0 0 66 24" fill="none" xmlns="http://www.w3.org/2000/svg">
<rect x="1" y="1.98901" width="64" height="20" rx="10" fill="url(#paint0_linear_42_2585)"/>
<rect x="1" y="1.98901" width="64" height="20" rx="10" stroke="#C0008F" stroke-width="3" stroke-linejoin="round"/>
<path d="M9.18164 15.989V7.39917H15.5508V8.85229H10.916V10.7566H15.2285V12.2039H10.916V14.5417H15.7148V15.989H9.18164ZM17.1328 15.989V7.39917H18.8672V15.989H17.1328ZM20.5371 15.989V7.39917H26.4258V8.85229H22.2715V10.8855H25.8574V12.3386H22.2715V15.989H20.5371ZM33.0586 14.4597V15.989H27.2871C27.3496 15.4109 27.5371 14.864 27.8496 14.3484C28.1621 13.8289 28.7793 13.1414 29.7012 12.2859C30.4434 11.5945 30.8984 11.1257 31.0664 10.8796C31.293 10.5398 31.4062 10.2039 31.4062 9.87183C31.4062 9.50464 31.3066 9.22339 31.1074 9.02808C30.9121 8.82886 30.6406 8.72925 30.293 8.72925C29.9492 8.72925 29.6758 8.83276 29.4727 9.03979C29.2695 9.24683 29.1523 9.59058 29.1211 10.071L27.4805 9.90698C27.5781 9.00073 27.8848 8.35034 28.4004 7.95581C28.916 7.56128 29.5605 7.36401 30.334 7.36401C31.1816 7.36401 31.8477 7.59253 32.332 8.04956C32.8164 8.50659 33.0586 9.07495 33.0586 9.75464C33.0586 10.1414 32.9883 10.5105 32.8477 10.8621C32.7109 11.2097 32.4922 11.575 32.1914 11.9578C31.9922 12.2117 31.6328 12.5769 31.1133 13.0535C30.5938 13.53 30.2637 13.8464 30.123 14.0027C29.9863 14.1589 29.875 14.3113 29.7891 14.4597H33.0586ZM42.2871 15.989H40.4004L39.6504 14.0378H36.2168L35.5078 15.989H33.668L37.0137 7.39917H38.8477L42.2871 15.989ZM39.0938 12.5906L37.9102 9.40308L36.75 12.5906H39.0938ZM43.2363 15.989V7.39917H44.9707V11.2136L48.4746 7.39917H50.8066L47.5723 10.7449L50.9824 15.989H48.7383L46.377 11.9578L44.9707 13.3933V15.989H43.2363ZM57.082 14.4597V15.989H51.3105C51.373 15.4109 51.5605 14.864 51.873 14.3484C52.1855 13.8289 52.8027 13.1414 53.7246 12.2859C54.4668 11.5945 54.9219 11.1257 55.0898 10.8796C55.3164 10.5398 55.4297 10.2039 55.4297 9.87183C55.4297 9.50464 55.3301 9.22339 55.1309 9.02808C54.9355 8.82886 54.6641 8.72925 54.3164 8.72925C53.9727 8.72925 53.6992 8.83276 53.4961 9.03979C53.293 9.24683 53.1758 9.59058 53.1445 10.071L51.5039 9.90698C51.6016 9.00073 51.9082 8.35034 52.4238 7.95581C52.9395 7.56128 53.584 7.36401 54.3574 7.36401C55.2051 7.36401 55.8711 7.59253 56.3555 8.04956C56.8398 8.50659 57.082 9.07495 57.082 9.75464C57.082 10.1414 57.0117 10.5105 56.8711 10.8621C56.7344 11.2097 56.5156 11.575 56.2148 11.9578C56.0156 12.2117 55.6562 12.5769 55.1367 13.0535C54.6172 13.53 54.2871 13.8464 54.1465 14.0027C54.0098 14.1589 53.8984 14.3113 53.8125 14.4597H57.082Z" fill="white"/>
<defs>
<linearGradient id="paint0_linear_42_2585" x1="33" y1="1.98901" x2="33" y2="21.989" gradientUnits="userSpaceOnUse">
<stop stop-color="#C0008F"/>
<stop offset="1" stop-color="#C98500"/>
</linearGradient>
</defs>
</svg>
