<svg width="82" height="72" viewBox="0 0 82 72" fill="none" xmlns="http://www.w3.org/2000/svg">
<path d="M30.9167 63.0628C38.6684 63.0628 44.9525 56.7788 44.9525 49.027C44.9525 41.2753 38.6684 34.9912 30.9167 34.9912C23.1649 34.9912 16.8809 41.2753 16.8809 49.027C16.8809 56.7788 23.1649 63.0628 30.9167 63.0628Z" fill="url(#paint0_radial_97_5824)"/>
<path d="M14.9157 46.0618C22.6674 46.0618 28.9515 39.7778 28.9515 32.026C28.9515 24.2743 22.6674 17.9902 14.9157 17.9902C7.16392 17.9902 0.879883 24.2743 0.879883 32.026C0.879883 39.7778 7.16392 46.0618 14.9157 46.0618Z" fill="url(#paint1_radial_97_5824)"/>
<path d="M47.9178 46.0618C55.6695 46.0618 61.9536 39.7778 61.9536 32.026C61.9536 24.2743 55.6695 17.9902 47.9178 17.9902C40.166 17.9902 33.882 24.2743 33.882 32.026C33.882 39.7778 40.166 46.0618 47.9178 46.0618Z" fill="url(#paint2_radial_97_5824)"/>
<path d="M31.9168 29.0606C39.6685 29.0606 45.9526 22.7766 45.9526 15.0248C45.9526 7.27306 39.6685 0.989014 31.9168 0.989014C24.165 0.989014 17.881 7.27306 17.881 15.0248C17.881 22.7766 24.165 29.0606 31.9168 29.0606Z" fill="url(#paint3_radial_97_5824)"/>
<path d="M50.918 71.0633C58.6698 71.0633 64.9538 64.7793 64.9538 57.0275C64.9538 49.2757 58.6698 42.9917 50.918 42.9917C43.1662 42.9917 36.8822 49.2757 36.8822 57.0275C36.8822 64.7793 43.1662 71.0633 50.918 71.0633Z" fill="url(#paint4_radial_97_5824)"/>
<path d="M34.917 54.0623C42.6687 54.0623 48.9528 47.7783 48.9528 40.0265C48.9528 32.2748 42.6687 25.9907 34.917 25.9907C27.1652 25.9907 20.8812 32.2748 20.8812 40.0265C20.8812 47.7783 27.1652 54.0623 34.917 54.0623Z" fill="url(#paint5_radial_97_5824)"/>
<path d="M67.919 54.0623C75.6707 54.0623 81.9548 47.7783 81.9548 40.0265C81.9548 32.2748 75.6707 25.9907 67.919 25.9907C60.1672 25.9907 53.8832 32.2748 53.8832 40.0265C53.8832 47.7783 60.1672 54.0623 67.919 54.0623Z" fill="url(#paint6_radial_97_5824)"/>
<path d="M51.918 37.0611C59.6698 37.0611 65.9538 30.7771 65.9538 23.0253C65.9538 15.2735 59.6698 8.9895 51.918 8.9895C44.1662 8.9895 37.8822 15.2735 37.8822 23.0253C37.8822 30.7771 44.1662 37.0611 51.918 37.0611Z" fill="url(#paint7_radial_97_5824)"/>
<defs>
<radialGradient id="paint0_radial_97_5824" cx="0" cy="0" r="1" gradientUnits="userSpaceOnUse" gradientTransform="translate(27.7835 44.4673) rotate(-7.94374) scale(14.0357 14.0357)">
<stop stop-color="#F7C590"/>
<stop offset="1" stop-color="#916F50"/>
</radialGradient>
<radialGradient id="paint1_radial_97_5824" cx="0" cy="0" r="1" gradientUnits="userSpaceOnUse" gradientTransform="translate(11.7824 27.4665) rotate(-7.94374) scale(14.0357)">
<stop stop-color="#B0EDF2"/>
<stop offset="1" stop-color="#2991A3"/>
</radialGradient>
<radialGradient id="paint2_radial_97_5824" cx="0" cy="0" r="1" gradientUnits="userSpaceOnUse" gradientTransform="translate(44.7846 27.4663) rotate(-7.94374) scale(14.0357)">
<stop stop-color="#F7C590"/>
<stop offset="1" stop-color="#916F50"/>
</radialGradient>
<radialGradient id="paint3_radial_97_5824" cx="0" cy="0" r="1" gradientUnits="userSpaceOnUse" gradientTransform="translate(28.7834 10.4653) rotate(-7.94374) scale(14.0357)">
<stop stop-color="#B0EDF2"/>
<stop offset="1" stop-color="#2991A3"/>
</radialGradient>
<radialGradient id="paint4_radial_97_5824" cx="0" cy="0" r="1" gradientUnits="userSpaceOnUse" gradientTransform="translate(47.7848 52.4674) rotate(-7.94374) scale(14.0357)">
<stop stop-color="#F7C523"/>
<stop offset="1" stop-color="#9E8127"/>
</radialGradient>
<radialGradient id="paint5_radial_97_5824" cx="0" cy="0" r="1" gradientUnits="userSpaceOnUse" gradientTransform="translate(31.7836 35.4667) rotate(-7.94374) scale(14.0357)">
<stop stop-color="#C8E323"/>
<stop offset="1" stop-color="#2F6540"/>
</radialGradient>
<radialGradient id="paint6_radial_97_5824" cx="0" cy="0" r="1" gradientUnits="userSpaceOnUse" gradientTransform="translate(64.7858 35.4664) rotate(-7.94374) scale(14.0357 14.0357)">
<stop stop-color="#F7C523"/>
<stop offset="1" stop-color="#9E8127"/>
</radialGradient>
<radialGradient id="paint7_radial_97_5824" cx="0" cy="0" r="1" gradientUnits="userSpaceOnUse" gradientTransform="translate(48.7847 18.4655) rotate(-7.94374) scale(14.0357)">
<stop stop-color="#C8E323"/>
<stop offset="1" stop-color="#2F6540"/>
</radialGradient>
</defs>
</svg>
