<svg width="17" height="166" viewBox="0 0 17 166" fill="none" xmlns="http://www.w3.org/2000/svg">
<path d="M15.3316 165.122H1.69868C1.00728 165.122 0.446777 164.562 0.446777 163.87V154.008C0.446777 153.316 1.00728 152.756 1.69868 152.756H15.3317C16.0231 152.756 16.5836 153.316 16.5836 154.008V163.87C16.5835 164.562 16.023 165.122 15.3316 165.122Z" fill="url(#paint0_linear_86_3945)"/>
<path d="M15.3316 165.122H1.69868C1.00728 165.122 0.446777 164.562 0.446777 163.87V154.008C0.446777 153.316 1.00728 152.756 1.69868 152.756H15.3317C16.0231 152.756 16.5836 153.316 16.5836 154.008V163.87C16.5835 164.562 16.023 165.122 15.3316 165.122Z" fill="url(#paint1_linear_86_3945)"/>
<path d="M14.5835 152.756H2.44678C1.34218 152.756 0.446777 151.86 0.446777 150.756V123.192C0.446777 122.088 1.34218 121.192 2.44678 121.192H14.5835C15.6881 121.192 16.5835 122.088 16.5835 123.192V150.756C16.5835 151.86 15.6881 152.756 14.5835 152.756Z" fill="url(#paint2_linear_86_3945)"/>
<path d="M14.5835 152.756H2.44678C1.34218 152.756 0.446777 151.86 0.446777 150.756V123.192C0.446777 122.088 1.34218 121.192 2.44678 121.192H14.5835C15.6881 121.192 16.5835 122.088 16.5835 123.192V150.756C16.5835 151.86 15.6881 152.756 14.5835 152.756Z" fill="url(#paint3_linear_86_3945)"/>
<path d="M8.51508 121.192C12.9711 121.192 16.5834 118.835 16.5834 115.927C16.5834 113.019 12.9711 110.662 8.51508 110.662C4.05908 110.662 0.446777 113.019 0.446777 115.927C0.446777 118.835 4.05908 121.192 8.51508 121.192Z" fill="url(#paint4_radial_86_3945)"/>
<path d="M14.5835 110.662H2.44678C1.34218 110.662 0.446777 109.766 0.446777 108.662V105.953C0.446777 104.849 1.34218 103.953 2.44678 103.953H14.5835C15.6881 103.953 16.5835 104.849 16.5835 105.953V108.662C16.5835 109.766 15.6881 110.662 14.5835 110.662Z" fill="url(#paint5_linear_86_3945)"/>
<path d="M14.5835 110.662H2.44678C1.34218 110.662 0.446777 109.766 0.446777 108.662V105.953C0.446777 104.849 1.34218 103.953 2.44678 103.953H14.5835C15.6881 103.953 16.5835 104.849 16.5835 105.953V108.662C16.5835 109.766 15.6881 110.662 14.5835 110.662Z" fill="url(#paint6_linear_86_3945)"/>
<path d="M8.51512 90.0247H4.05542V99.3121H8.51512V90.0247Z" fill="url(#paint7_linear_86_3945)"/>
<path d="M12.9748 94.666H8.51514V103.953H12.9748V94.666Z" fill="url(#paint8_linear_86_3945)"/>
<path d="M14.5835 90.0246H2.44678C1.34218 90.0246 0.446777 89.1292 0.446777 88.0246V85.3162C0.446777 84.2116 1.34218 83.3162 2.44678 83.3162H14.5835C15.6881 83.3162 16.5835 84.2116 16.5835 85.3162V88.0246C16.5835 89.1292 15.6881 90.0246 14.5835 90.0246Z" fill="url(#paint9_linear_86_3945)"/>
<path d="M14.5835 90.0246H2.44678C1.34218 90.0246 0.446777 89.1292 0.446777 88.0246V85.3162C0.446777 84.2116 1.34218 83.3162 2.44678 83.3162H14.5835C15.6881 83.3162 16.5835 84.2116 16.5835 85.3162V88.0246C16.5835 89.1292 15.6881 90.0246 14.5835 90.0246Z" fill="url(#paint10_linear_86_3945)"/>
<path d="M14.5835 83.3163H2.44678C1.34218 83.3163 0.446777 82.4209 0.446777 81.3163V78.6079C0.446777 77.5033 1.34218 76.6079 2.44678 76.6079H14.5835C15.6881 76.6079 16.5835 77.5033 16.5835 78.6079V81.3163C16.5835 82.4208 15.6881 83.3163 14.5835 83.3163Z" fill="url(#paint11_linear_86_3945)"/>
<path d="M14.5835 83.3163H2.44678C1.34218 83.3163 0.446777 82.4209 0.446777 81.3163V78.6079C0.446777 77.5033 1.34218 76.6079 2.44678 76.6079H14.5835C15.6881 76.6079 16.5835 77.5033 16.5835 78.6079V81.3163C16.5835 82.4208 15.6881 83.3163 14.5835 83.3163Z" fill="url(#paint12_linear_86_3945)"/>
<path d="M14.5835 76.6078H2.44678C1.34218 76.6078 0.446777 75.7124 0.446777 74.6078V71.8994C0.446777 70.7948 1.34218 69.8994 2.44678 69.8994H14.5835C15.6881 69.8994 16.5835 70.7948 16.5835 71.8994V74.6078C16.5835 75.7124 15.6881 76.6078 14.5835 76.6078Z" fill="url(#paint13_linear_86_3945)"/>
<path d="M14.5835 76.6078H2.44678C1.34218 76.6078 0.446777 75.7124 0.446777 74.6078V71.8994C0.446777 70.7948 1.34218 69.8994 2.44678 69.8994H14.5835C15.6881 69.8994 16.5835 70.7948 16.5835 71.8994V74.6078C16.5835 75.7124 15.6881 76.6078 14.5835 76.6078Z" fill="url(#paint14_linear_86_3945)"/>
<path d="M14.5835 69.8995H2.44678C1.34218 69.8995 0.446777 69.0041 0.446777 67.8995V2.34912C0.446777 1.24452 1.34218 0.349121 2.44678 0.349121H14.5835C15.6881 0.349121 16.5835 1.24452 16.5835 2.34912V67.8995C16.5835 69.0041 15.6881 69.8995 14.5835 69.8995Z" fill="url(#paint15_linear_86_3945)"/>
<path d="M0.446777 8.0769H16.5835" stroke="#F294FF" stroke-miterlimit="10"/>
<path d="M0.446777 15.8047H16.5835" stroke="#F294FF" stroke-miterlimit="10"/>
<path d="M0.446777 23.5327H16.5835" stroke="#F294FF" stroke-miterlimit="10"/>
<path d="M0.446777 31.2605H16.5835" stroke="#F294FF" stroke-miterlimit="10"/>
<path d="M0.446777 38.9883H16.5835" stroke="#F294FF" stroke-miterlimit="10"/>
<path d="M0.446777 46.7161H16.5835" stroke="#F294FF" stroke-miterlimit="10"/>
<path d="M0.446777 54.4438H16.5835" stroke="#F294FF" stroke-miterlimit="10"/>
<path d="M0.446777 62.1716H16.5835" stroke="#F294FF" stroke-miterlimit="10"/>
<path d="M14.5835 69.8995H2.44678C1.34218 69.8995 0.446777 69.0041 0.446777 67.8995V2.34912C0.446777 1.24452 1.34218 0.349121 2.44678 0.349121H14.5835C15.6881 0.349121 16.5835 1.24452 16.5835 2.34912V67.8995C16.5835 69.0041 15.6881 69.8995 14.5835 69.8995Z" fill="url(#paint16_linear_86_3945)"/>
<path d="M14.5835 69.8995H2.44678C1.34218 69.8995 0.446777 69.0041 0.446777 67.8995V2.34912C0.446777 1.24452 1.34218 0.349121 2.44678 0.349121H14.5835C15.6881 0.349121 16.5835 1.24452 16.5835 2.34912V67.8995C16.5835 69.0041 15.6881 69.8995 14.5835 69.8995Z" fill="url(#paint17_linear_86_3945)"/>
<defs>
<linearGradient id="paint0_linear_86_3945" x1="0.446777" y1="158.939" x2="16.5835" y2="158.939" gradientUnits="userSpaceOnUse">
<stop stop-color="#BD48CC"/>
<stop offset="0.1985" stop-color="#EDADF5"/>
<stop offset="0.4998" stop-color="#BD48CC"/>
<stop offset="1" stop-color="#5C2363"/>
</linearGradient>
<linearGradient id="paint1_linear_86_3945" x1="8.51508" y1="152.756" x2="8.51508" y2="165.122" gradientUnits="userSpaceOnUse">
<stop offset="0.7753" stop-color="#B947C8" stop-opacity="0"/>
<stop offset="1" stop-color="#5C2363"/>
</linearGradient>
<linearGradient id="paint2_linear_86_3945" x1="0.446777" y1="136.974" x2="16.5835" y2="136.974" gradientUnits="userSpaceOnUse">
<stop stop-color="#CC4853"/>
<stop offset="0.1985" stop-color="#F5ADB3"/>
<stop offset="0.4998" stop-color="#CC4853"/>
<stop offset="1" stop-color="#632328"/>
</linearGradient>
<linearGradient id="paint3_linear_86_3945" x1="8.51508" y1="121.192" x2="8.51508" y2="152.756" gradientUnits="userSpaceOnUse">
<stop offset="0.7753" stop-color="#C84752" stop-opacity="0"/>
<stop offset="1" stop-color="#632328"/>
</linearGradient>
<radialGradient id="paint4_radial_86_3945" cx="0" cy="0" r="1" gradientUnits="userSpaceOnUse" gradientTransform="translate(5.98158 114.757) scale(10.9452 6.27051)">
<stop stop-color="#FFCCDE"/>
<stop offset="1" stop-color="#823A54"/>
</radialGradient>
<linearGradient id="paint5_linear_86_3945" x1="0.446777" y1="107.308" x2="16.5835" y2="107.308" gradientUnits="userSpaceOnUse">
<stop stop-color="#CC4857"/>
<stop offset="0.1985" stop-color="#F5ADB5"/>
<stop offset="0.4998" stop-color="#CC4857"/>
<stop offset="1" stop-color="#63232A"/>
</linearGradient>
<linearGradient id="paint6_linear_86_3945" x1="8.51508" y1="103.953" x2="8.51508" y2="110.662" gradientUnits="userSpaceOnUse">
<stop offset="0.3658" stop-color="#C84756" stop-opacity="0"/>
<stop offset="1" stop-color="#63232A"/>
</linearGradient>
<linearGradient id="paint7_linear_86_3945" x1="4.03282" y1="94.6574" x2="8.53782" y2="94.6795" gradientUnits="userSpaceOnUse">
<stop stop-color="#C8479B"/>
<stop offset="1" stop-color="#702857"/>
</linearGradient>
<linearGradient id="paint8_linear_86_3945" x1="8.49244" y1="99.2987" x2="12.9975" y2="99.3208" gradientUnits="userSpaceOnUse">
<stop stop-color="#C8479B"/>
<stop offset="1" stop-color="#702857"/>
</linearGradient>
<linearGradient id="paint9_linear_86_3945" x1="0.446777" y1="86.6705" x2="16.5835" y2="86.6705" gradientUnits="userSpaceOnUse">
<stop stop-color="#FF76C8"/>
<stop offset="0.1985" stop-color="#F5C9DA"/>
<stop offset="0.4998" stop-color="#FF76C8"/>
<stop offset="1" stop-color="#63233C"/>
</linearGradient>
<linearGradient id="paint10_linear_86_3945" x1="8.51508" y1="83.3163" x2="8.51508" y2="90.0247" gradientUnits="userSpaceOnUse">
<stop offset="0.3658" stop-color="#C84779" stop-opacity="0"/>
<stop offset="1" stop-color="#63233C"/>
</linearGradient>
<linearGradient id="paint11_linear_86_3945" x1="0.446777" y1="79.9621" x2="16.5835" y2="79.9621" gradientUnits="userSpaceOnUse">
<stop stop-color="#FF76C8"/>
<stop offset="0.1985" stop-color="#F5C9DA"/>
<stop offset="0.4998" stop-color="#FF76C8"/>
<stop offset="1" stop-color="#63233C"/>
</linearGradient>
<linearGradient id="paint12_linear_86_3945" x1="8.51508" y1="76.6079" x2="8.51508" y2="83.3163" gradientUnits="userSpaceOnUse">
<stop offset="0.3658" stop-color="#C84779" stop-opacity="0"/>
<stop offset="1" stop-color="#63233C"/>
</linearGradient>
<linearGradient id="paint13_linear_86_3945" x1="0.446777" y1="73.2536" x2="16.5835" y2="73.2536" gradientUnits="userSpaceOnUse">
<stop stop-color="#FF76C8"/>
<stop offset="0.1985" stop-color="#F5C9DA"/>
<stop offset="0.4998" stop-color="#FF76C8"/>
<stop offset="1" stop-color="#63233C"/>
</linearGradient>
<linearGradient id="paint14_linear_86_3945" x1="8.51508" y1="69.8994" x2="8.51508" y2="76.6078" gradientUnits="userSpaceOnUse">
<stop offset="0.3658" stop-color="#C84779" stop-opacity="0"/>
<stop offset="0.4782" stop-color="#C34576" stop-opacity="0.1772"/>
<stop offset="0.6116" stop-color="#B5406D" stop-opacity="0.3875"/>
<stop offset="0.7556" stop-color="#9D385F" stop-opacity="0.6146"/>
<stop offset="0.9061" stop-color="#7C2C4B" stop-opacity="0.8519"/>
<stop offset="1" stop-color="#63233C"/>
</linearGradient>
<linearGradient id="paint15_linear_86_3945" x1="0.286377" y1="35.084" x2="16.7439" y2="35.1647" gradientUnits="userSpaceOnUse">
<stop stop-color="#BD48CC"/>
<stop offset="0.23" stop-color="#B947C8"/>
<stop offset="1" stop-color="#5C2363"/>
</linearGradient>
<linearGradient id="paint16_linear_86_3945" x1="0.286377" y1="35.084" x2="16.7439" y2="35.1647" gradientUnits="userSpaceOnUse">
<stop stop-color="#EDADF5" stop-opacity="0"/>
<stop offset="0.1985" stop-color="#EDADF5"/>
<stop offset="0.4878" stop-color="#EDADF5" stop-opacity="0"/>
<stop offset="0.7099" stop-color="#5C2363" stop-opacity="0"/>
<stop offset="1" stop-color="#5C2363"/>
</linearGradient>
<linearGradient id="paint17_linear_86_3945" x1="8.51508" y1="0.349121" x2="8.51508" y2="69.8995" gradientUnits="userSpaceOnUse">
<stop offset="0.7753" stop-color="#B947C8" stop-opacity="0"/>
<stop offset="1" stop-color="#5C2363"/>
</linearGradient>
</defs>
</svg>
