<svg width="75" height="24" viewBox="0 0 75 24" fill="none" xmlns="http://www.w3.org/2000/svg">
<rect x="1" y="1.98901" width="73" height="20" rx="10" fill="url(#paint0_linear_52_1852)"/>
<rect x="1" y="1.98901" width="73" height="20" rx="10" stroke="#0053CC" stroke-width="3" stroke-linejoin="round"/>
<path d="M8.98828 15.989V7.39917H11.584L13.1426 13.2585L14.6836 7.39917H17.2852V15.989H15.6738V9.22729L13.9688 15.989H12.2988L10.5996 9.22729V15.989H8.98828ZM26.7539 15.989H24.8672L24.1172 14.0378H20.6836L19.9746 15.989H18.1348L21.4805 7.39917H23.3145L26.7539 15.989ZM23.5605 12.5906L22.377 9.40308L21.2168 12.5906H23.5605ZM27.6797 15.989V7.39917H30.4629C31.5176 7.39917 32.2051 7.44214 32.5254 7.52808C33.0176 7.65698 33.4297 7.93823 33.7617 8.37183C34.0938 8.80151 34.2598 9.35815 34.2598 10.0417C34.2598 10.5691 34.1641 11.0125 33.9727 11.3718C33.7812 11.7312 33.5371 12.0144 33.2402 12.2214C32.9473 12.4246 32.6484 12.5593 32.3438 12.6257C31.9297 12.7078 31.3301 12.7488 30.5449 12.7488H29.4141V15.989H27.6797ZM29.4141 8.85229V11.2898H30.3633C31.0469 11.2898 31.5039 11.2449 31.7344 11.155C31.9648 11.0652 32.1445 10.9246 32.2734 10.7332C32.4062 10.5417 32.4727 10.3191 32.4727 10.0652C32.4727 9.75269 32.3809 9.49487 32.1973 9.29175C32.0137 9.08862 31.7812 8.96167 31.5 8.91089C31.293 8.87183 30.877 8.85229 30.252 8.85229H29.4141ZM35.2617 13.7097L36.8555 13.5164C36.9062 13.9226 37.043 14.2332 37.2656 14.448C37.4883 14.6628 37.7578 14.7703 38.0742 14.7703C38.4141 14.7703 38.6992 14.6414 38.9297 14.3835C39.1641 14.1257 39.2812 13.7781 39.2812 13.3406C39.2812 12.9265 39.1699 12.5984 38.9473 12.3562C38.7246 12.114 38.4531 11.9929 38.1328 11.9929C37.9219 11.9929 37.6699 12.0339 37.377 12.116L37.5586 10.7742C38.0039 10.7859 38.3438 10.6902 38.5781 10.4871C38.8125 10.28 38.9297 10.0066 38.9297 9.66675C38.9297 9.37769 38.8438 9.14722 38.6719 8.97534C38.5 8.80347 38.2715 8.71753 37.9863 8.71753C37.7051 8.71753 37.4648 8.81519 37.2656 9.0105C37.0664 9.20581 36.9453 9.49097 36.9023 9.86597L35.3848 9.60815C35.4902 9.08862 35.6484 8.67456 35.8594 8.36597C36.0742 8.05347 36.3711 7.80933 36.75 7.63354C37.1328 7.45386 37.5605 7.36401 38.0332 7.36401C38.8418 7.36401 39.4902 7.62183 39.9785 8.13745C40.3809 8.55933 40.582 9.03589 40.582 9.56714C40.582 10.321 40.1699 10.9226 39.3457 11.3718C39.8379 11.4773 40.2305 11.7136 40.5234 12.0808C40.8203 12.448 40.9688 12.8914 40.9688 13.4109C40.9688 14.1648 40.6934 14.8074 40.1426 15.3386C39.5918 15.8699 38.9062 16.1355 38.0859 16.1355C37.3086 16.1355 36.6641 15.9128 36.1523 15.4675C35.6406 15.0183 35.3438 14.4324 35.2617 13.7097ZM42.3867 15.989V7.39917H44.1211V11.2136L47.625 7.39917H49.957L46.7227 10.7449L50.1328 15.989H47.8887L45.5273 11.9578L44.1211 13.3933V15.989H42.3867ZM56.2324 14.4597V15.989H50.4609C50.5234 15.4109 50.7109 14.864 51.0234 14.3484C51.3359 13.8289 51.9531 13.1414 52.875 12.2859C53.6172 11.5945 54.0723 11.1257 54.2402 10.8796C54.4668 10.5398 54.5801 10.2039 54.5801 9.87183C54.5801 9.50464 54.4805 9.22339 54.2812 9.02808C54.0859 8.82886 53.8145 8.72925 53.4668 8.72925C53.123 8.72925 52.8496 8.83276 52.6465 9.03979C52.4434 9.24683 52.3262 9.59058 52.2949 10.071L50.6543 9.90698C50.752 9.00073 51.0586 8.35034 51.5742 7.95581C52.0898 7.56128 52.7344 7.36401 53.5078 7.36401C54.3555 7.36401 55.0215 7.59253 55.5059 8.04956C55.9902 8.50659 56.2324 9.07495 56.2324 9.75464C56.2324 10.1414 56.1621 10.5105 56.0215 10.8621C55.8848 11.2097 55.666 11.575 55.3652 11.9578C55.166 12.2117 54.8066 12.5769 54.2871 13.0535C53.7676 13.53 53.4375 13.8464 53.2969 14.0027C53.1602 14.1589 53.0488 14.3113 52.9629 14.4597H56.2324ZM57.6621 14.3425H59.3086V15.5203C59.3086 15.9968 59.2676 16.3718 59.1855 16.6453C59.1035 16.9226 58.9473 17.1707 58.7168 17.3894C58.4902 17.6082 58.2012 17.78 57.8496 17.905L57.5273 17.2253C57.8594 17.116 58.0957 16.9656 58.2363 16.7742C58.377 16.5828 58.4512 16.321 58.459 15.989H57.6621V14.3425ZM60.6328 13.7097L62.2266 13.5164C62.2773 13.9226 62.4141 14.2332 62.6367 14.448C62.8594 14.6628 63.1289 14.7703 63.4453 14.7703C63.7852 14.7703 64.0703 14.6414 64.3008 14.3835C64.5352 14.1257 64.6523 13.7781 64.6523 13.3406C64.6523 12.9265 64.541 12.5984 64.3184 12.3562C64.0957 12.114 63.8242 11.9929 63.5039 11.9929C63.293 11.9929 63.041 12.0339 62.748 12.116L62.9297 10.7742C63.375 10.7859 63.7148 10.6902 63.9492 10.4871C64.1836 10.28 64.3008 10.0066 64.3008 9.66675C64.3008 9.37769 64.2148 9.14722 64.043 8.97534C63.8711 8.80347 63.6426 8.71753 63.3574 8.71753C63.0762 8.71753 62.8359 8.81519 62.6367 9.0105C62.4375 9.20581 62.3164 9.49097 62.2734 9.86597L60.7559 9.60815C60.8613 9.08862 61.0195 8.67456 61.2305 8.36597C61.4453 8.05347 61.7422 7.80933 62.1211 7.63354C62.5039 7.45386 62.9316 7.36401 63.4043 7.36401C64.2129 7.36401 64.8613 7.62183 65.3496 8.13745C65.752 8.55933 65.9531 9.03589 65.9531 9.56714C65.9531 10.321 65.541 10.9226 64.7168 11.3718C65.209 11.4773 65.6016 11.7136 65.8945 12.0808C66.1914 12.448 66.3398 12.8914 66.3398 13.4109C66.3398 14.1648 66.0645 14.8074 65.5137 15.3386C64.9629 15.8699 64.2773 16.1355 63.457 16.1355C62.6797 16.1355 62.0352 15.9128 61.5234 15.4675C61.0117 15.0183 60.7148 14.4324 60.6328 13.7097Z" fill="white"/>
<defs>
<linearGradient id="paint0_linear_52_1852" x1="37.5" y1="1.98901" x2="37.5" y2="21.989" gradientUnits="userSpaceOnUse">
<stop stop-color="#B26EFF"/>
<stop offset="1" stop-color="#0053CC"/>
</linearGradient>
</defs>
</svg>
