<svg width="50" height="24" viewBox="0 0 50 24" fill="none" xmlns="http://www.w3.org/2000/svg">
<rect x="2" y="1.98901" width="47" height="20" rx="10" fill="url(#paint0_linear_83_1979)"/>
<rect x="2" y="1.98901" width="47" height="20" rx="10" stroke="#F4A8B1" stroke-width="3" stroke-linejoin="round"/>
<path d="M9.5918 13.1941L11.2793 13.03C11.3809 13.5964 11.5859 14.0125 11.8945 14.2781C12.207 14.5437 12.627 14.6765 13.1543 14.6765C13.7129 14.6765 14.1328 14.5593 14.4141 14.325C14.6992 14.0867 14.8418 13.8093 14.8418 13.4929C14.8418 13.2898 14.7812 13.1179 14.6602 12.9773C14.543 12.8328 14.3359 12.7078 14.0391 12.6023C13.8359 12.532 13.373 12.407 12.6504 12.2273C11.7207 11.9968 11.0684 11.7136 10.6934 11.3777C10.166 10.905 9.90234 10.3289 9.90234 9.64917C9.90234 9.21167 10.0254 8.80347 10.2715 8.42456C10.5215 8.04175 10.8789 7.75073 11.3438 7.55151C11.8125 7.35229 12.377 7.25269 13.0371 7.25269C14.1152 7.25269 14.9258 7.48901 15.4688 7.96167C16.0156 8.43433 16.3027 9.06519 16.3301 9.85425L14.5957 9.93042C14.5215 9.48901 14.3613 9.17261 14.1152 8.9812C13.873 8.78589 13.5078 8.68823 13.0195 8.68823C12.5156 8.68823 12.1211 8.79175 11.8359 8.99878C11.6523 9.13159 11.5605 9.30933 11.5605 9.53198C11.5605 9.73511 11.6465 9.90894 11.8184 10.0535C12.0371 10.2371 12.5684 10.4285 13.4121 10.6277C14.2559 10.8269 14.8789 11.0339 15.2812 11.2488C15.6875 11.4597 16.0039 11.7507 16.2305 12.1218C16.4609 12.489 16.5762 12.9441 16.5762 13.4871C16.5762 13.9792 16.4395 14.4402 16.166 14.8699C15.8926 15.2996 15.5059 15.6199 15.0059 15.8308C14.5059 16.0378 13.8828 16.1414 13.1367 16.1414C12.0508 16.1414 11.2168 15.8914 10.6348 15.3914C10.0527 14.8875 9.70508 14.155 9.5918 13.1941ZM18.0234 7.39917H19.7578V12.0515C19.7578 12.7898 19.7793 13.2683 19.8223 13.4871C19.8965 13.8386 20.0723 14.1218 20.3496 14.3367C20.6309 14.5476 21.0137 14.6531 21.498 14.6531C21.9902 14.6531 22.3613 14.5535 22.6113 14.3542C22.8613 14.1511 23.0117 13.9031 23.0625 13.6101C23.1133 13.3171 23.1387 12.8308 23.1387 12.1511V7.39917H24.873V11.9109C24.873 12.9421 24.8262 13.6707 24.7324 14.0964C24.6387 14.5222 24.4648 14.8816 24.2109 15.1746C23.9609 15.4675 23.625 15.7019 23.2031 15.8777C22.7812 16.0496 22.2305 16.1355 21.5508 16.1355C20.7305 16.1355 20.1074 16.0417 19.6816 15.8542C19.2598 15.6628 18.9258 15.4167 18.6797 15.116C18.4336 14.8113 18.2715 14.4929 18.1934 14.1609C18.0801 13.6687 18.0234 12.9421 18.0234 11.9812V7.39917ZM26.7188 15.989V7.39917H32.6074V8.85229H28.4531V10.8855H32.0391V12.3386H28.4531V15.989H26.7188ZM34.0312 7.39917H35.7656V12.0515C35.7656 12.7898 35.7871 13.2683 35.8301 13.4871C35.9043 13.8386 36.0801 14.1218 36.3574 14.3367C36.6387 14.5476 37.0215 14.6531 37.5059 14.6531C37.998 14.6531 38.3691 14.5535 38.6191 14.3542C38.8691 14.1511 39.0195 13.9031 39.0703 13.6101C39.1211 13.3171 39.1465 12.8308 39.1465 12.1511V7.39917H40.8809V11.9109C40.8809 12.9421 40.834 13.6707 40.7402 14.0964C40.6465 14.5222 40.4727 14.8816 40.2188 15.1746C39.9688 15.4675 39.6328 15.7019 39.2109 15.8777C38.7891 16.0496 38.2383 16.1355 37.5586 16.1355C36.7383 16.1355 36.1152 16.0417 35.6895 15.8542C35.2676 15.6628 34.9336 15.4167 34.6875 15.116C34.4414 14.8113 34.2793 14.4929 34.2012 14.1609C34.0879 13.6687 34.0312 12.9421 34.0312 11.9812V7.39917Z" fill="white"/>
<defs>
<linearGradient id="paint0_linear_83_1979" x1="25.5" y1="1.98901" x2="25.5" y2="21.989" gradientUnits="userSpaceOnUse">
<stop stop-color="#F4A8B1"/>
<stop offset="1" stop-color="#CF3C4E"/>
</linearGradient>
</defs>
</svg>
