<svg width="52" height="24" viewBox="0 0 52 24" fill="none" xmlns="http://www.w3.org/2000/svg">
<rect x="2" y="1.98901" width="49" height="20" rx="10" fill="url(#paint0_linear_64_1955)"/>
<rect x="2" y="1.98901" width="49" height="20" rx="10" stroke="#E89B2B" stroke-width="3" stroke-linejoin="round"/>
<path d="M10.3633 15.989V7.39917H13.1465C14.2012 7.39917 14.8887 7.44214 15.209 7.52808C15.7012 7.65698 16.1133 7.93823 16.4453 8.37183C16.7773 8.80151 16.9434 9.35815 16.9434 10.0417C16.9434 10.5691 16.8477 11.0125 16.6562 11.3718C16.4648 11.7312 16.2207 12.0144 15.9238 12.2214C15.6309 12.4246 15.332 12.5593 15.0273 12.6257C14.6133 12.7078 14.0137 12.7488 13.2285 12.7488H12.0977V15.989H10.3633ZM12.0977 8.85229V11.2898H13.0469C13.7305 11.2898 14.1875 11.2449 14.418 11.155C14.6484 11.0652 14.8281 10.9246 14.957 10.7332C15.0898 10.5417 15.1562 10.3191 15.1562 10.0652C15.1562 9.75269 15.0645 9.49487 14.8809 9.29175C14.6973 9.08862 14.4648 8.96167 14.1836 8.91089C13.9766 8.87183 13.5605 8.85229 12.9355 8.85229H12.0977ZM22.3633 12.8308V11.3835H26.1016V14.8054C25.7383 15.157 25.2109 15.4675 24.5195 15.7371C23.832 16.0027 23.1348 16.1355 22.4277 16.1355C21.5293 16.1355 20.7461 15.948 20.0781 15.573C19.4102 15.1941 18.9082 14.655 18.5723 13.9558C18.2363 13.2527 18.0684 12.489 18.0684 11.6648C18.0684 10.7703 18.2559 9.97534 18.6309 9.28003C19.0059 8.58472 19.5547 8.05151 20.2773 7.68042C20.8281 7.39526 21.5137 7.25269 22.334 7.25269C23.4004 7.25269 24.2324 7.47729 24.8301 7.92651C25.4316 8.37183 25.8184 8.98901 25.9902 9.77808L24.2676 10.1003C24.1465 9.67847 23.918 9.34644 23.582 9.10425C23.25 8.85815 22.834 8.73511 22.334 8.73511C21.5762 8.73511 20.9727 8.97534 20.5234 9.45581C20.0781 9.93628 19.8555 10.6492 19.8555 11.5945C19.8555 12.614 20.082 13.3796 20.5352 13.8914C20.9883 14.3992 21.582 14.6531 22.3164 14.6531C22.6797 14.6531 23.043 14.5828 23.4062 14.4421C23.7734 14.2976 24.0879 14.1238 24.3496 13.9207V12.8308H22.3633ZM27.6836 15.989V7.39917H30.2793L31.8379 13.2585L33.3789 7.39917H35.9805V15.989H34.3691V9.22729L32.6641 15.989H30.9941L29.2949 9.22729V15.989H27.6836ZM41.5527 15.989H39.9062V9.78394C39.3047 10.3464 38.5957 10.7625 37.7793 11.032V9.53784C38.209 9.39722 38.6758 9.13159 39.1797 8.74097C39.6836 8.34644 40.0293 7.88745 40.2168 7.36401H41.5527V15.989Z" fill="white"/>
<defs>
<linearGradient id="paint0_linear_64_1955" x1="26.5" y1="1.98901" x2="26.5" y2="21.989" gradientUnits="userSpaceOnUse">
<stop stop-color="#155DFF"/>
<stop offset="1" stop-color="#E89B2B"/>
</linearGradient>
</defs>
</svg>
