<svg width="55" height="24" viewBox="0 0 55 24" fill="none" xmlns="http://www.w3.org/2000/svg">
<rect x="2" y="1.98901" width="52" height="20" rx="10" fill="url(#paint0_linear_64_1958)"/>
<rect x="2" y="1.98901" width="52" height="20" rx="10" stroke="#6B460C" stroke-width="3" stroke-linejoin="round"/>
<path d="M10.1875 15.989V7.39917H12.9707C14.0254 7.39917 14.7129 7.44214 15.0332 7.52808C15.5254 7.65698 15.9375 7.93823 16.2695 8.37183C16.6016 8.80151 16.7676 9.35815 16.7676 10.0417C16.7676 10.5691 16.6719 11.0125 16.4805 11.3718C16.2891 11.7312 16.0449 12.0144 15.748 12.2214C15.4551 12.4246 15.1562 12.5593 14.8516 12.6257C14.4375 12.7078 13.8379 12.7488 13.0527 12.7488H11.9219V15.989H10.1875ZM11.9219 8.85229V11.2898H12.8711C13.5547 11.2898 14.0117 11.2449 14.2422 11.155C14.4727 11.0652 14.6523 10.9246 14.7812 10.7332C14.9141 10.5417 14.9805 10.3191 14.9805 10.0652C14.9805 9.75269 14.8887 9.49487 14.7051 9.29175C14.5215 9.08862 14.2891 8.96167 14.0078 8.91089C13.8008 8.87183 13.3848 8.85229 12.7598 8.85229H11.9219ZM18.1914 15.989V7.39917H24.5605V8.85229H19.9258V10.7566H24.2383V12.2039H19.9258V14.5417H24.7246V15.989H18.1914ZM25.3223 15.989L28.2578 11.5066L25.5977 7.39917H27.625L29.3477 10.1589L31.0352 7.39917H33.0449L30.373 11.571L33.3086 15.989H31.2168L29.3125 13.0183L27.4023 15.989H25.3223ZM38.0488 15.989H36.4023V9.78394C35.8008 10.3464 35.0918 10.7625 34.2754 11.032V9.53784C34.7051 9.39722 35.1719 9.13159 35.6758 8.74097C36.1797 8.34644 36.5254 7.88745 36.7129 7.36401H38.0488V15.989ZM40.5508 14.0027L42.1445 13.8269C42.1836 14.1511 42.2852 14.3914 42.4492 14.5476C42.6133 14.7039 42.8301 14.782 43.0996 14.782C43.4395 14.782 43.7285 14.6257 43.9668 14.3132C44.2051 14.0007 44.3574 13.3523 44.4238 12.3679C44.0098 12.8484 43.4922 13.0886 42.8711 13.0886C42.1953 13.0886 41.6113 12.8289 41.1191 12.3093C40.6309 11.7859 40.3867 11.1062 40.3867 10.2703C40.3867 9.39917 40.6445 8.698 41.1602 8.16675C41.6797 7.63159 42.3398 7.36401 43.1406 7.36401C44.0117 7.36401 44.7266 7.7019 45.2852 8.37769C45.8438 9.04956 46.123 10.157 46.123 11.7C46.123 13.2703 45.832 14.4031 45.25 15.0984C44.668 15.7937 43.9102 16.1414 42.9766 16.1414C42.3047 16.1414 41.7617 15.9636 41.3477 15.6082C40.9336 15.2488 40.668 14.7136 40.5508 14.0027ZM44.2773 10.405C44.2773 9.87378 44.1543 9.46167 43.9082 9.1687C43.666 8.87573 43.3848 8.72925 43.0645 8.72925C42.7598 8.72925 42.5059 8.85034 42.3027 9.09253C42.1035 9.33081 42.0039 9.72339 42.0039 10.2703C42.0039 10.825 42.1133 11.2332 42.332 11.4949C42.5508 11.7527 42.8242 11.8816 43.1523 11.8816C43.4688 11.8816 43.7344 11.7566 43.9492 11.5066C44.168 11.2566 44.2773 10.8894 44.2773 10.405Z" fill="white"/>
<defs>
<linearGradient id="paint0_linear_64_1958" x1="28" y1="1.98901" x2="28" y2="21.989" gradientUnits="userSpaceOnUse">
<stop stop-color="#FFB9C1"/>
<stop offset="1" stop-color="#6B460C"/>
</linearGradient>
</defs>
</svg>
