<svg width="100" height="24" viewBox="0 0 100 24" fill="none" xmlns="http://www.w3.org/2000/svg">
<rect x="1" y="1.98901" width="98" height="20" rx="10" fill="url(#paint0_linear_35_1486)"/>
<rect x="1" y="1.98901" width="98" height="20" rx="10" stroke="#6300C2" stroke-width="3" stroke-linejoin="round"/>
<path d="M16.9238 15.989H15.0371L14.2871 14.0378H10.8535L10.1445 15.989H8.30469L11.6504 7.39917H13.4844L16.9238 15.989ZM13.7305 12.5906L12.5469 9.40308L11.3867 12.5906H13.7305ZM17.8672 15.989V7.39917H19.5547L23.0703 13.1355V7.39917H24.6816V15.989H22.9414L19.4785 10.3875V15.989H17.8672ZM30.5176 12.8308V11.3835H34.2559V14.8054C33.8926 15.157 33.3652 15.4675 32.6738 15.7371C31.9863 16.0027 31.2891 16.1355 30.582 16.1355C29.6836 16.1355 28.9004 15.948 28.2324 15.573C27.5645 15.1941 27.0625 14.655 26.7266 13.9558C26.3906 13.2527 26.2227 12.489 26.2227 11.6648C26.2227 10.7703 26.4102 9.97534 26.7852 9.28003C27.1602 8.58472 27.709 8.05151 28.4316 7.68042C28.9824 7.39526 29.668 7.25269 30.4883 7.25269C31.5547 7.25269 32.3867 7.47729 32.9844 7.92651C33.5859 8.37183 33.9727 8.98901 34.1445 9.77808L32.4219 10.1003C32.3008 9.67847 32.0723 9.34644 31.7363 9.10425C31.4043 8.85815 30.9883 8.73511 30.4883 8.73511C29.7305 8.73511 29.127 8.97534 28.6777 9.45581C28.2324 9.93628 28.0098 10.6492 28.0098 11.5945C28.0098 12.614 28.2363 13.3796 28.6895 13.8914C29.1426 14.3992 29.7363 14.6531 30.4707 14.6531C30.834 14.6531 31.1973 14.5828 31.5605 14.4421C31.9277 14.2976 32.2422 14.1238 32.5039 13.9207V12.8308H30.5176ZM35.8086 15.989V7.39917H37.543V15.989H35.8086ZM38.8496 11.7468C38.8496 10.8718 38.9805 10.1375 39.2422 9.5437C39.4375 9.1062 39.7031 8.71362 40.0391 8.36597C40.3789 8.01831 40.75 7.7605 41.1523 7.59253C41.6875 7.36597 42.3047 7.25269 43.0039 7.25269C44.2695 7.25269 45.2812 7.64526 46.0391 8.43042C46.8008 9.21558 47.1816 10.3074 47.1816 11.7058C47.1816 13.0925 46.8047 14.1785 46.0508 14.9636C45.2969 15.7449 44.2891 16.1355 43.0273 16.1355C41.75 16.1355 40.7344 15.7468 39.9805 14.9695C39.2266 14.1882 38.8496 13.114 38.8496 11.7468ZM40.6367 11.6882C40.6367 12.6609 40.8613 13.3992 41.3105 13.9031C41.7598 14.4031 42.3301 14.6531 43.0215 14.6531C43.7129 14.6531 44.2793 14.405 44.7207 13.9089C45.166 13.4089 45.3887 12.6609 45.3887 11.6648C45.3887 10.6804 45.1719 9.94604 44.7383 9.46167C44.3086 8.97729 43.7363 8.73511 43.0215 8.73511C42.3066 8.73511 41.7305 8.9812 41.293 9.47339C40.8555 9.96167 40.6367 10.7 40.6367 11.6882ZM50.4746 15.989V8.85229H47.9258V7.39917H54.752V8.85229H52.209V15.989H50.4746ZM55.877 15.989V7.39917H62.2461V8.85229H57.6113V10.7566H61.9238V12.2039H57.6113V14.5417H62.4102V15.989H55.877ZM63.8984 15.989V7.39917H65.5859L69.1016 13.1355V7.39917H70.7129V15.989H68.9727L65.5098 10.3875V15.989H63.8984ZM72.1133 13.1941L73.8008 13.03C73.9023 13.5964 74.1074 14.0125 74.416 14.2781C74.7285 14.5437 75.1484 14.6765 75.6758 14.6765C76.2344 14.6765 76.6543 14.5593 76.9355 14.325C77.2207 14.0867 77.3633 13.8093 77.3633 13.4929C77.3633 13.2898 77.3027 13.1179 77.1816 12.9773C77.0645 12.8328 76.8574 12.7078 76.5605 12.6023C76.3574 12.532 75.8945 12.407 75.1719 12.2273C74.2422 11.9968 73.5898 11.7136 73.2148 11.3777C72.6875 10.905 72.4238 10.3289 72.4238 9.64917C72.4238 9.21167 72.5469 8.80347 72.793 8.42456C73.043 8.04175 73.4004 7.75073 73.8652 7.55151C74.334 7.35229 74.8984 7.25269 75.5586 7.25269C76.6367 7.25269 77.4473 7.48901 77.9902 7.96167C78.5371 8.43433 78.8242 9.06519 78.8516 9.85425L77.1172 9.93042C77.043 9.48901 76.8828 9.17261 76.6367 8.9812C76.3945 8.78589 76.0293 8.68823 75.541 8.68823C75.0371 8.68823 74.6426 8.79175 74.3574 8.99878C74.1738 9.13159 74.082 9.30933 74.082 9.53198C74.082 9.73511 74.168 9.90894 74.3398 10.0535C74.5586 10.2371 75.0898 10.4285 75.9336 10.6277C76.7773 10.8269 77.4004 11.0339 77.8027 11.2488C78.209 11.4597 78.5254 11.7507 78.752 12.1218C78.9824 12.489 79.0977 12.9441 79.0977 13.4871C79.0977 13.9792 78.9609 14.4402 78.6875 14.8699C78.4141 15.2996 78.0273 15.6199 77.5273 15.8308C77.0273 16.0378 76.4043 16.1414 75.6582 16.1414C74.5723 16.1414 73.7383 15.8914 73.1562 15.3914C72.5742 14.8875 72.2266 14.155 72.1133 13.1941ZM80.5039 15.989V7.39917H82.2383V15.989H80.5039ZM83.9141 15.989V7.39917H85.6016L89.1172 13.1355V7.39917H90.7285V15.989H88.9883L85.5254 10.3875V15.989H83.9141Z" fill="white"/>
<defs>
<linearGradient id="paint0_linear_35_1486" x1="50" y1="1.98901" x2="50" y2="21.989" gradientUnits="userSpaceOnUse">
<stop stop-color="#6300C2"/>
<stop offset="1" stop-color="#DBA628"/>
</linearGradient>
</defs>
</svg>
