<svg width="44" height="24" viewBox="0 0 44 24" fill="none" xmlns="http://www.w3.org/2000/svg">
<rect x="2" y="1.98901" width="41" height="20" rx="10" fill="url(#paint0_linear_45_4270)"/>
<rect x="2" y="1.98901" width="41" height="20" rx="10" stroke="#8A3B20" stroke-width="3" stroke-linejoin="round"/>
<path d="M14.0273 12.8308V11.3835H17.7656V14.8054C17.4023 15.157 16.875 15.4675 16.1836 15.7371C15.4961 16.0027 14.7988 16.1355 14.0918 16.1355C13.1934 16.1355 12.4102 15.948 11.7422 15.573C11.0742 15.1941 10.5723 14.655 10.2363 13.9558C9.90039 13.2527 9.73242 12.489 9.73242 11.6648C9.73242 10.7703 9.91992 9.97534 10.2949 9.28003C10.6699 8.58472 11.2188 8.05151 11.9414 7.68042C12.4922 7.39526 13.1777 7.25269 13.998 7.25269C15.0645 7.25269 15.8965 7.47729 16.4941 7.92651C17.0957 8.37183 17.4824 8.98901 17.6543 9.77808L15.9316 10.1003C15.8105 9.67847 15.582 9.34644 15.2461 9.10425C14.9141 8.85815 14.498 8.73511 13.998 8.73511C13.2402 8.73511 12.6367 8.97534 12.1875 9.45581C11.7422 9.93628 11.5195 10.6492 11.5195 11.5945C11.5195 12.614 11.7461 13.3796 12.1992 13.8914C12.6523 14.3992 13.2461 14.6531 13.9805 14.6531C14.3438 14.6531 14.707 14.5828 15.0703 14.4421C15.4375 14.2976 15.752 14.1238 16.0137 13.9207V12.8308H14.0273ZM21.627 15.989V12.3738L18.4805 7.39917H20.5137L22.5352 10.7976L24.5156 7.39917H26.5137L23.3555 12.3855V15.989H21.627ZM31.3711 12.8308V11.3835H35.1094V14.8054C34.7461 15.157 34.2188 15.4675 33.5273 15.7371C32.8398 16.0027 32.1426 16.1355 31.4355 16.1355C30.5371 16.1355 29.7539 15.948 29.0859 15.573C28.418 15.1941 27.916 14.655 27.5801 13.9558C27.2441 13.2527 27.0762 12.489 27.0762 11.6648C27.0762 10.7703 27.2637 9.97534 27.6387 9.28003C28.0137 8.58472 28.5625 8.05151 29.2852 7.68042C29.8359 7.39526 30.5215 7.25269 31.3418 7.25269C32.4082 7.25269 33.2402 7.47729 33.8379 7.92651C34.4395 8.37183 34.8262 8.98901 34.998 9.77808L33.2754 10.1003C33.1543 9.67847 32.9258 9.34644 32.5898 9.10425C32.2578 8.85815 31.8418 8.73511 31.3418 8.73511C30.584 8.73511 29.9805 8.97534 29.5312 9.45581C29.0859 9.93628 28.8633 10.6492 28.8633 11.5945C28.8633 12.614 29.0898 13.3796 29.543 13.8914C29.9961 14.3992 30.5898 14.6531 31.3242 14.6531C31.6875 14.6531 32.0508 14.5828 32.4141 14.4421C32.7812 14.2976 33.0957 14.1238 33.3574 13.9207V12.8308H31.3711Z" fill="white"/>
<defs>
<linearGradient id="paint0_linear_45_4270" x1="22.5" y1="1.98901" x2="22.5" y2="21.989" gradientUnits="userSpaceOnUse">
<stop stop-color="#EF3890"/>
<stop offset="1" stop-color="#8A3B20"/>
</linearGradient>
</defs>
</svg>
