<svg width="60" height="24" viewBox="0 0 60 24" fill="none" xmlns="http://www.w3.org/2000/svg">
<rect x="2" y="1.98901" width="57" height="20" rx="10" fill="url(#paint0_linear_45_4226)"/>
<rect x="2" y="1.98901" width="57" height="20" rx="10" stroke="#8A4500" stroke-width="3" stroke-linejoin="round"/>
<path d="M14.3574 12.8308V11.3835H18.0957V14.8054C17.7324 15.157 17.2051 15.4675 16.5137 15.7371C15.8262 16.0027 15.1289 16.1355 14.4219 16.1355C13.5234 16.1355 12.7402 15.948 12.0723 15.573C11.4043 15.1941 10.9023 14.655 10.5664 13.9558C10.2305 13.2527 10.0625 12.489 10.0625 11.6648C10.0625 10.7703 10.25 9.97534 10.625 9.28003C11 8.58472 11.5488 8.05151 12.2715 7.68042C12.8223 7.39526 13.5078 7.25269 14.3281 7.25269C15.3945 7.25269 16.2266 7.47729 16.8242 7.92651C17.4258 8.37183 17.8125 8.98901 17.9844 9.77808L16.2617 10.1003C16.1406 9.67847 15.9121 9.34644 15.5762 9.10425C15.2441 8.85815 14.8281 8.73511 14.3281 8.73511C13.5703 8.73511 12.9668 8.97534 12.5176 9.45581C12.0723 9.93628 11.8496 10.6492 11.8496 11.5945C11.8496 12.614 12.0762 13.3796 12.5293 13.8914C12.9824 14.3992 13.5762 14.6531 14.3105 14.6531C14.6738 14.6531 15.0371 14.5828 15.4004 14.4421C15.7676 14.2976 16.082 14.1238 16.3438 13.9207V12.8308H14.3574ZM27.4473 15.989H25.5605L24.8105 14.0378H21.377L20.668 15.989H18.8281L22.1738 7.39917H24.0078L27.4473 15.989ZM24.2539 12.5906L23.0703 9.40308L21.9102 12.5906H24.2539ZM28.4199 15.989V7.46948H30.1543V14.5417H34.4668V15.989H28.4199ZM35.7266 15.989V7.39917H37.4141L40.9297 13.1355V7.39917H42.541V15.989H40.8008L37.3379 10.3875V15.989H35.7266ZM43.9414 13.1941L45.6289 13.03C45.7305 13.5964 45.9355 14.0125 46.2441 14.2781C46.5566 14.5437 46.9766 14.6765 47.5039 14.6765C48.0625 14.6765 48.4824 14.5593 48.7637 14.325C49.0488 14.0867 49.1914 13.8093 49.1914 13.4929C49.1914 13.2898 49.1309 13.1179 49.0098 12.9773C48.8926 12.8328 48.6855 12.7078 48.3887 12.6023C48.1855 12.532 47.7227 12.407 47 12.2273C46.0703 11.9968 45.418 11.7136 45.043 11.3777C44.5156 10.905 44.252 10.3289 44.252 9.64917C44.252 9.21167 44.375 8.80347 44.6211 8.42456C44.8711 8.04175 45.2285 7.75073 45.6934 7.55151C46.1621 7.35229 46.7266 7.25269 47.3867 7.25269C48.4648 7.25269 49.2754 7.48901 49.8184 7.96167C50.3652 8.43433 50.6523 9.06519 50.6797 9.85425L48.9453 9.93042C48.8711 9.48901 48.7109 9.17261 48.4648 8.9812C48.2227 8.78589 47.8574 8.68823 47.3691 8.68823C46.8652 8.68823 46.4707 8.79175 46.1855 8.99878C46.002 9.13159 45.9102 9.30933 45.9102 9.53198C45.9102 9.73511 45.9961 9.90894 46.168 10.0535C46.3867 10.2371 46.918 10.4285 47.7617 10.6277C48.6055 10.8269 49.2285 11.0339 49.6309 11.2488C50.0371 11.4597 50.3535 11.7507 50.5801 12.1218C50.8105 12.489 50.9258 12.9441 50.9258 13.4871C50.9258 13.9792 50.7891 14.4402 50.5156 14.8699C50.2422 15.2996 49.8555 15.6199 49.3555 15.8308C48.8555 16.0378 48.2324 16.1414 47.4863 16.1414C46.4004 16.1414 45.5664 15.8914 44.9844 15.3914C44.4023 14.8875 44.0547 14.155 43.9414 13.1941Z" fill="white"/>
<defs>
<linearGradient id="paint0_linear_45_4226" x1="30.5" y1="1.98901" x2="30.5" y2="21.989" gradientUnits="userSpaceOnUse">
<stop stop-color="#8A4500"/>
<stop offset="1" stop-color="#EDC8B1"/>
</linearGradient>
</defs>
</svg>
