<svg width="44" height="24" viewBox="0 0 44 24" fill="none" xmlns="http://www.w3.org/2000/svg">
<rect x="2" y="1.98901" width="41" height="20" rx="10" fill="url(#paint0_linear_50_1818)"/>
<rect x="2" y="1.98901" width="41" height="20" rx="10" stroke="#98D8DF" stroke-width="3" stroke-linejoin="round"/>
<path d="M10.3828 15.989V7.39917H12.1172V11.2136L15.6211 7.39917H17.9531L14.7188 10.7449L18.1289 15.989H15.8848L13.5234 11.9578L12.1172 13.3933V15.989H10.3828ZM18.9785 15.989V7.39917H20.7129V15.989H18.9785ZM22.3828 15.989V7.39917H28.2715V8.85229H24.1172V10.8855H27.7031V12.3386H24.1172V15.989H22.3828ZM29.3438 9.04565V7.51636H34.9746V8.71167C34.5098 9.1687 34.0371 9.82495 33.5566 10.6804C33.0762 11.5359 32.709 12.446 32.4551 13.4109C32.2051 14.3718 32.082 15.2312 32.0859 15.989H30.498C30.5254 14.8015 30.7695 13.5906 31.2305 12.3562C31.6953 11.1218 32.3145 10.0183 33.0879 9.04565H29.3438Z" fill="white"/>
<defs>
<linearGradient id="paint0_linear_50_1818" x1="22.5" y1="1.98901" x2="22.5" y2="21.989" gradientUnits="userSpaceOnUse">
<stop stop-color="#0E2B8A"/>
<stop offset="1" stop-color="#98D8DF"/>
</linearGradient>
</defs>
</svg>
