<svg width="43" height="24" viewBox="0 0 43 24" fill="none" xmlns="http://www.w3.org/2000/svg">
<rect x="2" y="1.98901" width="40" height="20" rx="10" fill="url(#paint0_linear_35_1483)"/>
<rect x="2" y="1.98901" width="40" height="20" rx="10" stroke="#D16B6B" stroke-width="3" stroke-linejoin="round"/>
<path d="M17.9453 15.989H16.0586L15.3086 14.0378H11.875L11.166 15.989H9.32617L12.6719 7.39917H14.5059L17.9453 15.989ZM14.752 12.5906L13.5684 9.40308L12.4082 12.5906H14.752ZM18.8711 15.989V7.39917H21.6543C22.709 7.39917 23.3965 7.44214 23.7168 7.52808C24.209 7.65698 24.6211 7.93823 24.9531 8.37183C25.2852 8.80151 25.4512 9.35815 25.4512 10.0417C25.4512 10.5691 25.3555 11.0125 25.1641 11.3718C24.9727 11.7312 24.7285 12.0144 24.4316 12.2214C24.1387 12.4246 23.8398 12.5593 23.5352 12.6257C23.1211 12.7078 22.5215 12.7488 21.7363 12.7488H20.6055V15.989H18.8711ZM20.6055 8.85229V11.2898H21.5547C22.2383 11.2898 22.6953 11.2449 22.9258 11.155C23.1562 11.0652 23.3359 10.9246 23.4648 10.7332C23.5977 10.5417 23.6641 10.3191 23.6641 10.0652C23.6641 9.75269 23.5723 9.49487 23.3887 9.29175C23.2051 9.08862 22.9727 8.96167 22.6914 8.91089C22.4844 8.87183 22.0684 8.85229 21.4434 8.85229H20.6055ZM32.3711 12.8308L34.0527 13.364C33.7949 14.3015 33.3652 14.9988 32.7637 15.4558C32.166 15.9089 31.4062 16.1355 30.4844 16.1355C29.3438 16.1355 28.4062 15.7468 27.6719 14.9695C26.9375 14.1882 26.5703 13.1218 26.5703 11.7703C26.5703 10.3406 26.9395 9.2312 27.6777 8.44214C28.416 7.64917 29.3867 7.25269 30.5898 7.25269C31.6406 7.25269 32.4941 7.56323 33.1504 8.18433C33.541 8.55151 33.834 9.07886 34.0293 9.76636L32.3125 10.1765C32.2109 9.7312 31.998 9.37964 31.6738 9.12183C31.3535 8.86401 30.9629 8.73511 30.502 8.73511C29.8652 8.73511 29.3477 8.96362 28.9492 9.42065C28.5547 9.87769 28.3574 10.6179 28.3574 11.6414C28.3574 12.7273 28.5527 13.5007 28.9434 13.9617C29.334 14.4226 29.8418 14.6531 30.4668 14.6531C30.9277 14.6531 31.3242 14.5066 31.6562 14.2136C31.9883 13.9207 32.2266 13.4597 32.3711 12.8308Z" fill="white"/>
<defs>
<linearGradient id="paint0_linear_35_1483" x1="22" y1="1.98901" x2="22" y2="21.989" gradientUnits="userSpaceOnUse">
<stop stop-color="#D16B6B"/>
<stop offset="1" stop-color="#4B0043"/>
</linearGradient>
</defs>
</svg>
