<svg width="57" height="24" viewBox="0 0 57 24" fill="none" xmlns="http://www.w3.org/2000/svg">
<rect x="2" y="1.98901" width="54" height="20" rx="10" fill="url(#paint0_linear_40_2529)"/>
<rect x="2" y="1.98901" width="54" height="20" rx="10" stroke="#FF5E1E" stroke-width="3" stroke-linejoin="round"/>
<path d="M15.6875 12.8308L17.3691 13.364C17.1113 14.3015 16.6816 14.9988 16.0801 15.4558C15.4824 15.9089 14.7227 16.1355 13.8008 16.1355C12.6602 16.1355 11.7227 15.7468 10.9883 14.9695C10.2539 14.1882 9.88672 13.1218 9.88672 11.7703C9.88672 10.3406 10.2559 9.2312 10.9941 8.44214C11.7324 7.64917 12.7031 7.25269 13.9062 7.25269C14.957 7.25269 15.8105 7.56323 16.4668 8.18433C16.8574 8.55151 17.1504 9.07886 17.3457 9.76636L15.6289 10.1765C15.5273 9.7312 15.3145 9.37964 14.9902 9.12183C14.6699 8.86401 14.2793 8.73511 13.8184 8.73511C13.1816 8.73511 12.6641 8.96362 12.2656 9.42065C11.8711 9.87769 11.6738 10.6179 11.6738 11.6414C11.6738 12.7273 11.8691 13.5007 12.2598 13.9617C12.6504 14.4226 13.1582 14.6531 13.7832 14.6531C14.2441 14.6531 14.6406 14.5066 14.9727 14.2136C15.3047 13.9207 15.543 13.4597 15.6875 12.8308ZM18.8691 15.989V7.39917H20.6035V10.78H24.002V7.39917H25.7363V15.989H24.002V12.2332H20.6035V15.989H18.8691ZM27.0957 13.1941L28.7832 13.03C28.8848 13.5964 29.0898 14.0125 29.3984 14.2781C29.7109 14.5437 30.1309 14.6765 30.6582 14.6765C31.2168 14.6765 31.6367 14.5593 31.918 14.325C32.2031 14.0867 32.3457 13.8093 32.3457 13.4929C32.3457 13.2898 32.2852 13.1179 32.1641 12.9773C32.0469 12.8328 31.8398 12.7078 31.543 12.6023C31.3398 12.532 30.877 12.407 30.1543 12.2273C29.2246 11.9968 28.5723 11.7136 28.1973 11.3777C27.6699 10.905 27.4062 10.3289 27.4062 9.64917C27.4062 9.21167 27.5293 8.80347 27.7754 8.42456C28.0254 8.04175 28.3828 7.75073 28.8477 7.55151C29.3164 7.35229 29.8809 7.25269 30.541 7.25269C31.6191 7.25269 32.4297 7.48901 32.9727 7.96167C33.5195 8.43433 33.8066 9.06519 33.834 9.85425L32.0996 9.93042C32.0254 9.48901 31.8652 9.17261 31.6191 8.9812C31.377 8.78589 31.0117 8.68823 30.5234 8.68823C30.0195 8.68823 29.625 8.79175 29.3398 8.99878C29.1562 9.13159 29.0645 9.30933 29.0645 9.53198C29.0645 9.73511 29.1504 9.90894 29.3223 10.0535C29.541 10.2371 30.0723 10.4285 30.916 10.6277C31.7598 10.8269 32.3828 11.0339 32.7852 11.2488C33.1914 11.4597 33.5078 11.7507 33.7344 12.1218C33.9648 12.489 34.0801 12.9441 34.0801 13.4871C34.0801 13.9792 33.9434 14.4402 33.6699 14.8699C33.3965 15.2996 33.0098 15.6199 32.5098 15.8308C32.0098 16.0378 31.3867 16.1414 30.6406 16.1414C29.5547 16.1414 28.7207 15.8914 28.1387 15.3914C27.5566 14.8875 27.209 14.155 27.0957 13.1941ZM37.4727 15.989V8.85229H34.9238V7.39917H41.75V8.85229H39.207V15.989H37.4727ZM48.0898 9.50269L46.4961 9.67847C46.457 9.35034 46.3555 9.10815 46.1914 8.9519C46.0273 8.79565 45.8145 8.71753 45.5527 8.71753C45.2051 8.71753 44.9102 8.87378 44.668 9.18628C44.4297 9.49878 44.2793 10.1492 44.2168 11.1375C44.627 10.6531 45.1367 10.4109 45.7461 10.4109C46.4336 10.4109 47.0215 10.6726 47.5098 11.196C48.002 11.7195 48.248 12.3953 48.248 13.2234C48.248 14.1023 47.9902 14.8074 47.4746 15.3386C46.959 15.8699 46.2969 16.1355 45.4883 16.1355C44.6211 16.1355 43.9082 15.7996 43.3496 15.1277C42.791 14.4519 42.5117 13.3464 42.5117 11.8113C42.5117 10.2371 42.8027 9.10229 43.3848 8.40698C43.9668 7.71167 44.7227 7.36401 45.6523 7.36401C46.3047 7.36401 46.8438 7.54761 47.2695 7.91479C47.6992 8.27808 47.9727 8.80737 48.0898 9.50269ZM44.3574 13.0945C44.3574 13.6296 44.4805 14.0437 44.7266 14.3367C44.9727 14.6257 45.2539 14.7703 45.5703 14.7703C45.875 14.7703 46.1289 14.6511 46.332 14.4128C46.5352 14.1746 46.6367 13.7839 46.6367 13.241C46.6367 12.6824 46.5273 12.2742 46.3086 12.0164C46.0898 11.7546 45.8164 11.6238 45.4883 11.6238C45.1719 11.6238 44.9043 11.7488 44.6855 11.9988C44.4668 12.2449 44.3574 12.6101 44.3574 13.0945Z" fill="white"/>
<defs>
<linearGradient id="paint0_linear_40_2529" x1="29" y1="1.98901" x2="29" y2="21.989" gradientUnits="userSpaceOnUse">
<stop stop-color="#FF5E1E"/>
<stop offset="1" stop-color="#A1613A"/>
</linearGradient>
</defs>
</svg>
