<svg width="40" height="24" viewBox="0 0 40 24" fill="none" xmlns="http://www.w3.org/2000/svg">
<rect x="2" y="1.98901" width="37" height="20" rx="10" fill="url(#paint0_linear_67_1921)"/>
<rect x="2" y="1.98901" width="37" height="20" rx="10" stroke="#757D12" stroke-width="3" stroke-linejoin="round"/>
<path d="M9.92383 13.1941L11.6113 13.03C11.7129 13.5964 11.918 14.0125 12.2266 14.2781C12.5391 14.5437 12.959 14.6765 13.4863 14.6765C14.0449 14.6765 14.4648 14.5593 14.7461 14.325C15.0312 14.0867 15.1738 13.8093 15.1738 13.4929C15.1738 13.2898 15.1133 13.1179 14.9922 12.9773C14.875 12.8328 14.668 12.7078 14.3711 12.6023C14.168 12.532 13.7051 12.407 12.9824 12.2273C12.0527 11.9968 11.4004 11.7136 11.0254 11.3777C10.498 10.905 10.2344 10.3289 10.2344 9.64917C10.2344 9.21167 10.3574 8.80347 10.6035 8.42456C10.8535 8.04175 11.2109 7.75073 11.6758 7.55151C12.1445 7.35229 12.709 7.25269 13.3691 7.25269C14.4473 7.25269 15.2578 7.48901 15.8008 7.96167C16.3477 8.43433 16.6348 9.06519 16.6621 9.85425L14.9277 9.93042C14.8535 9.48901 14.6934 9.17261 14.4473 8.9812C14.2051 8.78589 13.8398 8.68823 13.3516 8.68823C12.8477 8.68823 12.4531 8.79175 12.168 8.99878C11.9844 9.13159 11.8926 9.30933 11.8926 9.53198C11.8926 9.73511 11.9785 9.90894 12.1504 10.0535C12.3691 10.2371 12.9004 10.4285 13.7441 10.6277C14.5879 10.8269 15.2109 11.0339 15.6133 11.2488C16.0195 11.4597 16.3359 11.7507 16.5625 12.1218C16.793 12.489 16.9082 12.9441 16.9082 13.4871C16.9082 13.9792 16.7715 14.4402 16.498 14.8699C16.2246 15.2996 15.8379 15.6199 15.3379 15.8308C14.8379 16.0378 14.2148 16.1414 13.4688 16.1414C12.3828 16.1414 11.5488 15.8914 10.9668 15.3914C10.3848 14.8875 10.0371 14.155 9.92383 13.1941ZM18.4141 15.989V7.46948H20.1484V14.5417H24.4609V15.989H18.4141ZM29.5527 15.989H27.9062V9.78394C27.3047 10.3464 26.5957 10.7625 25.7793 11.032V9.53784C26.209 9.39722 26.6758 9.13159 27.1797 8.74097C27.6836 8.34644 28.0293 7.88745 28.2168 7.36401H29.5527V15.989Z" fill="white"/>
<defs>
<linearGradient id="paint0_linear_67_1921" x1="20.5" y1="1.98901" x2="20.5" y2="21.989" gradientUnits="userSpaceOnUse">
<stop stop-color="#757D12"/>
<stop offset="1" stop-color="#5BB5FF"/>
</linearGradient>
</defs>
</svg>
