<svg width="37" height="94" viewBox="0 0 37 94" fill="none" xmlns="http://www.w3.org/2000/svg">
<path d="M18.5212 41.0374C17.1403 41.0374 16.0212 39.9183 16.0212 38.5374V2.80249C16.0212 1.42159 17.1403 0.30249 18.5212 0.30249C19.9021 0.30249 21.0212 1.42159 21.0212 2.80249V38.5374C21.0212 39.9182 19.902 41.0374 18.5212 41.0374Z" fill="url(#paint0_linear_92_5628)"/>
<path d="M18.5213 93.9735C28.5062 93.9735 36.6006 81.527 36.6006 66.1734C36.6006 50.8198 28.5062 38.3733 18.5213 38.3733C8.5364 38.3733 0.442017 50.8198 0.442017 66.1734C0.442017 81.527 8.5364 93.9735 18.5213 93.9735Z" fill="url(#paint1_radial_92_5628)"/>
<path d="M3.06107 70.3733V61.7834H9.43021V63.2366H4.79544V65.1409H9.10794V66.5881H4.79544V68.926H9.59427V70.3733H3.06107ZM11.0767 70.3733V61.7834H16.9654V63.2366H12.8111V65.2698H16.397V66.7229H12.8111V70.3733H11.0767ZM18.4185 70.3733V61.7834H20.106L23.6216 67.5198V61.7834H25.2329V70.3733H23.4927L20.0298 64.7717V70.3733H18.4185ZM34.8189 70.3733H32.9322L32.1822 68.4221H28.7486L28.0396 70.3733H26.1997L29.5454 61.7834H31.3794L34.8189 70.3733ZM31.6255 66.9749L30.4419 63.7874L29.2818 66.9749H31.6255Z" fill="white"/>
<defs>
<linearGradient id="paint0_linear_92_5628" x1="16.0212" y1="20.6699" x2="21.0212" y2="20.6699" gradientUnits="userSpaceOnUse">
<stop stop-color="#001E2A"/>
<stop offset="0.2727" stop-color="#4FA63F"/>
<stop offset="1" stop-color="#001E2A"/>
</linearGradient>
<radialGradient id="paint1_radial_92_5628" cx="0" cy="0" r="1" gradientUnits="userSpaceOnUse" gradientTransform="translate(15.357 56.9958) scale(18.9788 29.922)">
<stop stop-color="#4FA63F"/>
<stop offset="1" stop-color="#001E2A"/>
</radialGradient>
</defs>
</svg>
