<svg width="17" height="108" viewBox="0 0 17 108" fill="none" xmlns="http://www.w3.org/2000/svg">
<path d="M8.8137 98.0688H4.354V107.356H8.8137V98.0688Z" fill="url(#paint0_linear_92_5627)"/>
<path d="M14.8821 84.6523H2.74536C1.64076 84.6523 0.745361 83.7569 0.745361 82.6523V79.9438C0.745361 78.8392 1.64076 77.9438 2.74536 77.9438H14.8821C15.9867 77.9438 16.8821 78.8392 16.8821 79.9438V82.6523C16.8821 83.7569 15.9867 84.6523 14.8821 84.6523Z" fill="url(#paint1_linear_92_5627)"/>
<path d="M14.8821 84.6523H2.74536C1.64076 84.6523 0.745361 83.7569 0.745361 82.6523V79.9438C0.745361 78.8392 1.64076 77.9438 2.74536 77.9438H14.8821C15.9867 77.9438 16.8821 78.8392 16.8821 79.9438V82.6523C16.8821 83.7569 15.9867 84.6523 14.8821 84.6523Z" fill="url(#paint2_linear_92_5627)"/>
<path d="M14.8821 91.3607H2.74536C1.64076 91.3607 0.745361 90.4653 0.745361 89.3607V86.6523C0.745361 85.5477 1.64076 84.6523 2.74536 84.6523H14.8821C15.9867 84.6523 16.8821 85.5477 16.8821 86.6523V89.3607C16.8821 90.4653 15.9867 91.3607 14.8821 91.3607Z" fill="url(#paint3_linear_92_5627)"/>
<path d="M14.8821 91.3607H2.74536C1.64076 91.3607 0.745361 90.4653 0.745361 89.3607V86.6523C0.745361 85.5477 1.64076 84.6523 2.74536 84.6523H14.8821C15.9867 84.6523 16.8821 85.5477 16.8821 86.6523V89.3607C16.8821 90.4653 15.9867 91.3607 14.8821 91.3607Z" fill="url(#paint4_linear_92_5627)"/>
<path d="M14.8821 98.0687H2.74536C1.64076 98.0687 0.745361 97.1733 0.745361 96.0687V93.3604C0.745361 92.2558 1.64076 91.3604 2.74536 91.3604H14.8821C15.9867 91.3604 16.8821 92.2558 16.8821 93.3604V96.0687C16.8821 97.1732 15.9867 98.0687 14.8821 98.0687Z" fill="url(#paint5_linear_92_5627)"/>
<path d="M14.8821 98.0687H2.74536C1.64076 98.0687 0.745361 97.1733 0.745361 96.0687V93.3604C0.745361 92.2558 1.64076 91.3604 2.74536 91.3604H14.8821C15.9867 91.3604 16.8821 92.2558 16.8821 93.3604V96.0687C16.8821 97.1732 15.9867 98.0687 14.8821 98.0687Z" fill="url(#paint6_linear_92_5627)"/>
<path d="M14.8821 77.9436H2.74536C1.64076 77.9436 0.745361 77.0482 0.745361 75.9436V33.5767C0.745361 32.4721 1.64076 31.5767 2.74536 31.5767H14.8821C15.9867 31.5767 16.8821 32.4721 16.8821 33.5767V75.9436C16.8821 77.0482 15.9867 77.9436 14.8821 77.9436Z" fill="url(#paint7_linear_92_5627)"/>
<path d="M14.8821 31.5768H2.74536C1.64076 31.5768 0.745361 30.6814 0.745361 29.5768V18.1211C0.745361 17.0165 1.64076 16.1211 2.74536 16.1211H14.8821C15.9867 16.1211 16.8821 17.0165 16.8821 18.1211V29.5767C16.8821 30.6814 15.9867 31.5768 14.8821 31.5768Z" fill="url(#paint8_linear_92_5627)"/>
<path d="M14.8821 16.1214H2.74536C1.64076 16.1214 0.745361 15.226 0.745361 14.1214V10.3936C0.745361 9.28896 1.64076 8.39355 2.74536 8.39355H14.8821C15.9867 8.39355 16.8821 9.28896 16.8821 10.3936V14.1214C16.8821 15.226 15.9867 16.1214 14.8821 16.1214Z" fill="url(#paint9_linear_92_5627)"/>
<path d="M14.8821 8.39333H2.74536C1.64076 8.39333 0.745361 7.49793 0.745361 6.39333V2.66553C0.745361 1.56093 1.64076 0.665527 2.74536 0.665527H14.8821C15.9867 0.665527 16.8821 1.56093 16.8821 2.66553V6.39333C16.8821 7.49793 15.9867 8.39333 14.8821 8.39333Z" fill="url(#paint10_linear_92_5627)"/>
<path d="M14.8821 77.944H2.74536C1.64076 77.944 0.745361 77.0486 0.745361 75.944V33.5771C0.745361 32.4725 1.64076 31.5771 2.74536 31.5771H14.8821C15.9867 31.5771 16.8821 32.4725 16.8821 33.5771V75.944C16.8821 77.0486 15.9867 77.944 14.8821 77.944Z" fill="url(#paint11_linear_92_5627)"/>
<path d="M14.8821 31.5768H2.74536C1.64076 31.5768 0.745361 30.6814 0.745361 29.5768V18.1211C0.745361 17.0165 1.64076 16.1211 2.74536 16.1211H14.8821C15.9867 16.1211 16.8821 17.0165 16.8821 18.1211V29.5767C16.8821 30.6814 15.9867 31.5768 14.8821 31.5768Z" fill="url(#paint12_linear_92_5627)"/>
<path d="M14.8821 16.1214H2.74536C1.64076 16.1214 0.745361 15.226 0.745361 14.1214V10.3936C0.745361 9.28896 1.64076 8.39355 2.74536 8.39355H14.8821C15.9867 8.39355 16.8821 9.28896 16.8821 10.3936V14.1214C16.8821 15.226 15.9867 16.1214 14.8821 16.1214Z" fill="url(#paint13_linear_92_5627)"/>
<path d="M14.8821 8.39333H2.74536C1.64076 8.39333 0.745361 7.49793 0.745361 6.39333V2.66553C0.745361 1.56093 1.64076 0.665527 2.74536 0.665527H14.8821C15.9867 0.665527 16.8821 1.56093 16.8821 2.66553V6.39333C16.8821 7.49793 15.9867 8.39333 14.8821 8.39333Z" fill="url(#paint14_linear_92_5627)"/>
<path d="M0.745361 23.8491H16.8821" stroke="#FFD092" stroke-miterlimit="10"/>
<path d="M0.745361 39.3047H16.8821" stroke="#91D2FF" stroke-miterlimit="10"/>
<path d="M0.745361 47.0327H16.8821" stroke="#91D2FF" stroke-miterlimit="10"/>
<path d="M0.745361 54.7603H16.8821" stroke="#91D2FF" stroke-miterlimit="10"/>
<path d="M0.745361 62.4883H16.8821" stroke="#91D2FF" stroke-miterlimit="10"/>
<path d="M0.745361 70.2158H16.8821" stroke="#91D2FF" stroke-miterlimit="10"/>
<path d="M14.8821 77.944H2.74536C1.64076 77.944 0.745361 77.0486 0.745361 75.944V33.5771C0.745361 32.4725 1.64076 31.5771 2.74536 31.5771H14.8821C15.9867 31.5771 16.8821 32.4725 16.8821 33.5771V75.944C16.8821 77.0486 15.9867 77.944 14.8821 77.944Z" fill="url(#paint15_linear_92_5627)"/>
<path d="M14.8821 31.5768H2.74536C1.64076 31.5768 0.745361 30.6814 0.745361 29.5768V18.1211C0.745361 17.0165 1.64076 16.1211 2.74536 16.1211H14.8821C15.9867 16.1211 16.8821 17.0165 16.8821 18.1211V29.5767C16.8821 30.6814 15.9867 31.5768 14.8821 31.5768Z" fill="url(#paint16_linear_92_5627)"/>
<path d="M14.8821 16.1214H2.74536C1.64076 16.1214 0.745361 15.226 0.745361 14.1214V10.3936C0.745361 9.28896 1.64076 8.39355 2.74536 8.39355H14.8821C15.9867 8.39355 16.8821 9.28896 16.8821 10.3936V14.1214C16.8821 15.226 15.9867 16.1214 14.8821 16.1214Z" fill="url(#paint17_linear_92_5627)"/>
<path d="M14.8821 8.39333H2.74536C1.64076 8.39333 0.745361 7.49793 0.745361 6.39333V2.66553C0.745361 1.56093 1.64076 0.665527 2.74536 0.665527H14.8821C15.9867 0.665527 16.8821 1.56093 16.8821 2.66553V6.39333C16.8821 7.49793 15.9867 8.39333 14.8821 8.39333Z" fill="url(#paint18_linear_92_5627)"/>
<defs>
<linearGradient id="paint0_linear_92_5627" x1="4.3313" y1="102.701" x2="8.8365" y2="102.724" gradientUnits="userSpaceOnUse">
<stop stop-color="#476CC8"/>
<stop offset="0.2487" stop-color="#466AC5"/>
<stop offset="0.4522" stop-color="#4265BB"/>
<stop offset="0.6397" stop-color="#3C5CA9"/>
<stop offset="0.8177" stop-color="#344F91"/>
<stop offset="0.9874" stop-color="#293E73"/>
<stop offset="1" stop-color="#283D70"/>
</linearGradient>
<linearGradient id="paint1_linear_92_5627" x1="0.745361" y1="81.2979" x2="16.8821" y2="81.2979" gradientUnits="userSpaceOnUse">
<stop stop-color="#48B9CC"/>
<stop offset="0.1985" stop-color="#ADEAF5"/>
<stop offset="0.4998" stop-color="#47B5C8"/>
<stop offset="1" stop-color="#235A63"/>
</linearGradient>
<linearGradient id="paint2_linear_92_5627" x1="8.81366" y1="77.9438" x2="8.81366" y2="84.6522" gradientUnits="userSpaceOnUse">
<stop offset="0.3658" stop-color="#47B5C8" stop-opacity="0"/>
<stop offset="0.4782" stop-color="#45B1C3" stop-opacity="0.1772"/>
<stop offset="0.6116" stop-color="#40A4B5" stop-opacity="0.3875"/>
<stop offset="0.7556" stop-color="#388E9D" stop-opacity="0.6146"/>
<stop offset="0.9061" stop-color="#2C707C" stop-opacity="0.8519"/>
<stop offset="1" stop-color="#235A63"/>
</linearGradient>
<linearGradient id="paint3_linear_92_5627" x1="0.745361" y1="88.0064" x2="16.8821" y2="88.0064" gradientUnits="userSpaceOnUse">
<stop stop-color="#48B9CC"/>
<stop offset="0.1985" stop-color="#ADEAF5"/>
<stop offset="0.4998" stop-color="#47B5C8"/>
<stop offset="1" stop-color="#235A63"/>
</linearGradient>
<linearGradient id="paint4_linear_92_5627" x1="8.81366" y1="84.6523" x2="8.81366" y2="91.3606" gradientUnits="userSpaceOnUse">
<stop offset="0.3658" stop-color="#47B5C8" stop-opacity="0"/>
<stop offset="0.4782" stop-color="#45B1C3" stop-opacity="0.1772"/>
<stop offset="0.6116" stop-color="#40A4B5" stop-opacity="0.3875"/>
<stop offset="0.7556" stop-color="#388E9D" stop-opacity="0.6146"/>
<stop offset="0.9061" stop-color="#2C707C" stop-opacity="0.8519"/>
<stop offset="1" stop-color="#235A63"/>
</linearGradient>
<linearGradient id="paint5_linear_92_5627" x1="0.745361" y1="94.7144" x2="16.8821" y2="94.7144" gradientUnits="userSpaceOnUse">
<stop stop-color="#48B9CC"/>
<stop offset="0.1985" stop-color="#ADEAF5"/>
<stop offset="0.4998" stop-color="#47B5C8"/>
<stop offset="1" stop-color="#235A63"/>
</linearGradient>
<linearGradient id="paint6_linear_92_5627" x1="8.81366" y1="91.3604" x2="8.81366" y2="98.0686" gradientUnits="userSpaceOnUse">
<stop offset="0.3658" stop-color="#47B5C8" stop-opacity="0"/>
<stop offset="0.4782" stop-color="#45B1C3" stop-opacity="0.1772"/>
<stop offset="0.6116" stop-color="#40A4B5" stop-opacity="0.3875"/>
<stop offset="0.7556" stop-color="#388E9D" stop-opacity="0.6146"/>
<stop offset="0.9061" stop-color="#2C707C" stop-opacity="0.8519"/>
<stop offset="1" stop-color="#235A63"/>
</linearGradient>
<linearGradient id="paint7_linear_92_5627" x1="0.641761" y1="54.7201" x2="16.9857" y2="54.8002" gradientUnits="userSpaceOnUse">
<stop stop-color="#4896CC"/>
<stop offset="0.4998" stop-color="#4793C8"/>
<stop offset="1" stop-color="#234963"/>
</linearGradient>
<linearGradient id="paint8_linear_92_5627" x1="0.717461" y1="23.8093" x2="16.91" y2="23.8886" gradientUnits="userSpaceOnUse">
<stop stop-color="#CC9548"/>
<stop offset="0.4998" stop-color="#C89247"/>
<stop offset="1" stop-color="#634823"/>
</linearGradient>
<linearGradient id="paint9_linear_92_5627" x1="0.736361" y1="12.2179" x2="16.891" y2="12.2971" gradientUnits="userSpaceOnUse">
<stop stop-color="#CC5348"/>
<stop offset="0.4998" stop-color="#C85247"/>
<stop offset="1" stop-color="#632823"/>
</linearGradient>
<linearGradient id="paint10_linear_92_5627" x1="0.736361" y1="4.48983" x2="16.891" y2="4.56903" gradientUnits="userSpaceOnUse">
<stop stop-color="#CCC148"/>
<stop offset="0.4998" stop-color="#C8BD47"/>
<stop offset="1" stop-color="#635E23"/>
</linearGradient>
<linearGradient id="paint11_linear_92_5627" x1="0.641761" y1="54.7205" x2="16.9857" y2="54.8006" gradientUnits="userSpaceOnUse">
<stop stop-color="#ADD8F5" stop-opacity="0"/>
<stop offset="0.1985" stop-color="#ADD8F5"/>
<stop offset="0.4878" stop-color="#ADD8F5" stop-opacity="0"/>
<stop offset="0.7099" stop-color="#234963" stop-opacity="0"/>
<stop offset="1" stop-color="#234963"/>
</linearGradient>
<linearGradient id="paint12_linear_92_5627" x1="0.717461" y1="23.8093" x2="16.91" y2="23.8886" gradientUnits="userSpaceOnUse">
<stop stop-color="#F5D7AD" stop-opacity="0"/>
<stop offset="0.1985" stop-color="#F5D7AD"/>
<stop offset="0.4878" stop-color="#F5D7AD" stop-opacity="0"/>
<stop offset="0.7099" stop-color="#634823" stop-opacity="0"/>
<stop offset="1" stop-color="#634823"/>
</linearGradient>
<linearGradient id="paint13_linear_92_5627" x1="0.736361" y1="12.2179" x2="16.891" y2="12.2971" gradientUnits="userSpaceOnUse">
<stop stop-color="#F5B3AD" stop-opacity="0"/>
<stop offset="0.1985" stop-color="#F5B3AD"/>
<stop offset="0.4871" stop-color="#F5B3AD" stop-opacity="0"/>
<stop offset="0.7099" stop-color="#632823" stop-opacity="0"/>
<stop offset="1" stop-color="#632823"/>
</linearGradient>
<linearGradient id="paint14_linear_92_5627" x1="0.736361" y1="4.48983" x2="16.891" y2="4.56903" gradientUnits="userSpaceOnUse">
<stop stop-color="#F5EFAD" stop-opacity="0"/>
<stop offset="0.1985" stop-color="#F5EFAD"/>
<stop offset="0.4871" stop-color="#F5EFAD" stop-opacity="0"/>
<stop offset="0.7099" stop-color="#635E23" stop-opacity="0"/>
<stop offset="1" stop-color="#635E23"/>
</linearGradient>
<linearGradient id="paint15_linear_92_5627" x1="8.81366" y1="2.21995" x2="8.81366" y2="77.6732" gradientUnits="userSpaceOnUse">
<stop offset="0.7753" stop-color="#4793C8" stop-opacity="0"/>
<stop offset="0.8575" stop-color="#4691C6" stop-opacity="0.3657"/>
<stop offset="0.8969" stop-color="#448CBE" stop-opacity="0.5412"/>
<stop offset="0.9272" stop-color="#3F82B1" stop-opacity="0.6761"/>
<stop offset="0.9529" stop-color="#38759F" stop-opacity="0.7903"/>
<stop offset="0.9756" stop-color="#306387" stop-opacity="0.8914"/>
<stop offset="0.9959" stop-color="#254E6A" stop-opacity="0.9819"/>
<stop offset="1" stop-color="#234963"/>
</linearGradient>
<linearGradient id="paint16_linear_92_5627" x1="8.81366" y1="6.33539" x2="8.81366" y2="31.4865" gradientUnits="userSpaceOnUse">
<stop offset="0.7746" stop-color="#C89247" stop-opacity="0"/>
<stop offset="0.8568" stop-color="#C69046" stop-opacity="0.3657"/>
<stop offset="0.8962" stop-color="#BE8B44" stop-opacity="0.5412"/>
<stop offset="0.9265" stop-color="#B1813F" stop-opacity="0.6761"/>
<stop offset="0.9522" stop-color="#9F7438" stop-opacity="0.7903"/>
<stop offset="0.9749" stop-color="#876230" stop-opacity="0.8914"/>
<stop offset="0.9953" stop-color="#6A4D25" stop-opacity="0.9819"/>
<stop offset="0.9993" stop-color="#634823"/>
</linearGradient>
<linearGradient id="paint17_linear_92_5627" x1="8.81366" y1="3.50065" x2="8.81366" y2="16.0763" gradientUnits="userSpaceOnUse">
<stop offset="0.7753" stop-color="#C85247" stop-opacity="0"/>
<stop offset="0.8575" stop-color="#C65146" stop-opacity="0.3657"/>
<stop offset="0.8969" stop-color="#BE4E44" stop-opacity="0.5412"/>
<stop offset="0.9272" stop-color="#B1493F" stop-opacity="0.6761"/>
<stop offset="0.9529" stop-color="#9F4138" stop-opacity="0.7903"/>
<stop offset="0.9756" stop-color="#873730" stop-opacity="0.8914"/>
<stop offset="0.9959" stop-color="#6A2B25" stop-opacity="0.9819"/>
<stop offset="1" stop-color="#632823"/>
</linearGradient>
<linearGradient id="paint18_linear_92_5627" x1="8.81366" y1="-4.22737" x2="8.81366" y2="8.34813" gradientUnits="userSpaceOnUse">
<stop offset="0.7753" stop-color="#C8BD47" stop-opacity="0"/>
<stop offset="0.8572" stop-color="#C6BB46" stop-opacity="0.3657"/>
<stop offset="0.8966" stop-color="#BEB444" stop-opacity="0.5412"/>
<stop offset="0.9268" stop-color="#B1A83F" stop-opacity="0.6761"/>
<stop offset="0.9524" stop-color="#9F9638" stop-opacity="0.7903"/>
<stop offset="0.975" stop-color="#878030" stop-opacity="0.8914"/>
<stop offset="0.9953" stop-color="#6A6425" stop-opacity="0.9819"/>
<stop offset="0.9993" stop-color="#635E23"/>
</linearGradient>
</defs>
</svg>
