<svg width="50" height="24" viewBox="0 0 50 24" fill="none" xmlns="http://www.w3.org/2000/svg">
<rect x="2" y="1.98901" width="47" height="20" rx="10" fill="url(#paint0_linear_38_1843)"/>
<rect x="2" y="1.98901" width="47" height="20" rx="10" stroke="#34C6A8" stroke-width="3" stroke-linejoin="round"/>
<path d="M15.5215 12.8308L17.2031 13.364C16.9453 14.3015 16.5156 14.9988 15.9141 15.4558C15.3164 15.9089 14.5566 16.1355 13.6348 16.1355C12.4941 16.1355 11.5566 15.7468 10.8223 14.9695C10.0879 14.1882 9.7207 13.1218 9.7207 11.7703C9.7207 10.3406 10.0898 9.2312 10.8281 8.44214C11.5664 7.64917 12.5371 7.25269 13.7402 7.25269C14.791 7.25269 15.6445 7.56323 16.3008 8.18433C16.6914 8.55151 16.9844 9.07886 17.1797 9.76636L15.4629 10.1765C15.3613 9.7312 15.1484 9.37964 14.8242 9.12183C14.5039 8.86401 14.1133 8.73511 13.6523 8.73511C13.0156 8.73511 12.498 8.96362 12.0996 9.42065C11.7051 9.87769 11.5078 10.6179 11.5078 11.6414C11.5078 12.7273 11.7031 13.5007 12.0938 13.9617C12.4844 14.4226 12.9922 14.6531 13.6172 14.6531C14.0781 14.6531 14.4746 14.5066 14.8066 14.2136C15.1387 13.9207 15.377 13.4597 15.5215 12.8308ZM18.6914 7.39917H21.8613C22.5762 7.39917 23.1211 7.45386 23.4961 7.56323C24 7.71167 24.4316 7.97534 24.791 8.35425C25.1504 8.73315 25.4238 9.198 25.6113 9.74878C25.7988 10.2957 25.8926 10.9714 25.8926 11.7761C25.8926 12.4832 25.8047 13.0925 25.6289 13.6042C25.4141 14.2292 25.1074 14.7351 24.709 15.1218C24.4082 15.4148 24.002 15.6433 23.4902 15.8074C23.1074 15.9285 22.5957 15.989 21.9551 15.989H18.6914V7.39917ZM20.4258 8.85229V14.5417H21.7207C22.2051 14.5417 22.5547 14.5144 22.7695 14.4597C23.0508 14.3894 23.2832 14.2703 23.4668 14.1023C23.6543 13.9343 23.8066 13.6589 23.9238 13.2761C24.041 12.8894 24.0996 12.364 24.0996 11.7C24.0996 11.0359 24.041 10.5261 23.9238 10.1707C23.8066 9.81519 23.6426 9.53784 23.4316 9.33862C23.2207 9.1394 22.9531 9.00464 22.6289 8.93433C22.3867 8.87964 21.9121 8.85229 21.2051 8.85229H20.4258ZM27.375 15.989V7.39917H29.1094V10.78H32.5078V7.39917H34.2422V15.989H32.5078V12.2332H29.1094V15.989H27.375ZM35.7012 13.78L37.3418 13.6101C37.3887 13.9812 37.5273 14.2761 37.7578 14.4949C37.9883 14.7097 38.2539 14.8171 38.5547 14.8171C38.8984 14.8171 39.1895 14.6785 39.4277 14.4011C39.666 14.1199 39.7852 13.698 39.7852 13.1355C39.7852 12.6082 39.666 12.2136 39.4277 11.9519C39.1934 11.6863 38.8867 11.5535 38.5078 11.5535C38.0352 11.5535 37.6113 11.7625 37.2363 12.1804L35.9004 11.9871L36.7441 7.51636H41.0977V9.05737H37.9922L37.7344 10.5164C38.1016 10.3328 38.4766 10.241 38.8594 10.241C39.5898 10.241 40.209 10.5066 40.7168 11.0378C41.2246 11.5691 41.4785 12.2585 41.4785 13.1062C41.4785 13.8132 41.2734 14.4441 40.8633 14.9988C40.3047 15.7566 39.5293 16.1355 38.5371 16.1355C37.7441 16.1355 37.0977 15.9226 36.5977 15.4968C36.0977 15.071 35.7988 14.4988 35.7012 13.78Z" fill="white"/>
<defs>
<linearGradient id="paint0_linear_38_1843" x1="25.5" y1="1.98901" x2="25.5" y2="21.989" gradientUnits="userSpaceOnUse">
<stop stop-color="#34C6A8"/>
<stop offset="1" stop-color="#00D3D2"/>
</linearGradient>
</defs>
</svg>
