<svg width="45" height="24" viewBox="0 0 45 24" fill="none" xmlns="http://www.w3.org/2000/svg">
<rect x="2" y="1.98901" width="42" height="20" rx="10" fill="url(#paint0_linear_35_1427)"/>
<rect x="2" y="1.98901" width="42" height="20" rx="10" stroke="#2B7878" stroke-width="3" stroke-linejoin="round"/>
<path d="M17.9492 15.989H16.0625L15.3125 14.0378H11.8789L11.1699 15.989H9.33008L12.6758 7.39917H14.5098L17.9492 15.989ZM14.7559 12.5906L13.5723 9.40308L12.4121 12.5906H14.7559ZM18.8516 15.989V7.39917H21.4473L23.0059 13.2585L24.5469 7.39917H27.1484V15.989H25.5371V9.22729L23.832 15.989H22.1621L20.4629 9.22729V15.989H18.8516ZM28.8887 15.989V7.39917H30.5762L34.0918 13.1355V7.39917H35.7031V15.989H33.9629L30.5 10.3875V15.989H28.8887Z" fill="white"/>
<defs>
<linearGradient id="paint0_linear_35_1427" x1="23" y1="1.98901" x2="23" y2="21.989" gradientUnits="userSpaceOnUse">
<stop stop-color="#2B7878"/>
<stop offset="1" stop-color="#C982E1"/>
</linearGradient>
</defs>
</svg>
