<svg width="49" height="24" viewBox="0 0 49 24" fill="none" xmlns="http://www.w3.org/2000/svg">
<rect x="2" y="1.98901" width="46" height="20" rx="10" fill="url(#paint0_linear_64_1808)"/>
<rect x="2" y="1.98901" width="46" height="20" rx="10" stroke="#FF7800" stroke-width="3" stroke-linejoin="round"/>
<path d="M10.1758 15.989V7.39917H12.7715L14.3301 13.2585L15.8711 7.39917H18.4727V15.989H16.8613V9.22729L15.1562 15.989H13.4863L11.7871 9.22729V15.989H10.1758ZM20.1426 15.989V7.39917H21.877V15.989H20.1426ZM23.541 15.989V7.39917H27.1914C28.1094 7.39917 28.7754 7.47729 29.1895 7.63354C29.6074 7.78589 29.9414 8.05933 30.1914 8.45386C30.4414 8.84839 30.5664 9.29956 30.5664 9.80737C30.5664 10.4519 30.377 10.9851 29.998 11.407C29.6191 11.825 29.0527 12.0886 28.2988 12.198C28.6738 12.4167 28.9824 12.657 29.2246 12.9187C29.4707 13.1804 29.8008 13.6453 30.2148 14.3132L31.2637 15.989H29.1895L27.9355 14.1199C27.4902 13.4519 27.1855 13.032 27.0215 12.8601C26.8574 12.6843 26.6836 12.5652 26.5 12.5027C26.3164 12.4363 26.0254 12.4031 25.627 12.4031H25.2754V15.989H23.541ZM25.2754 11.032H26.5586C27.3906 11.032 27.9102 10.9968 28.1172 10.9265C28.3242 10.8562 28.4863 10.7351 28.6035 10.5632C28.7207 10.3914 28.7793 10.1765 28.7793 9.9187C28.7793 9.62964 28.7012 9.39722 28.5449 9.22144C28.3926 9.04175 28.1758 8.92847 27.8945 8.88159C27.7539 8.86206 27.332 8.85229 26.6289 8.85229H25.2754V11.032ZM31.8555 11.7468C31.8555 10.8718 31.9863 10.1375 32.248 9.5437C32.4434 9.1062 32.709 8.71362 33.0449 8.36597C33.3848 8.01831 33.7559 7.7605 34.1582 7.59253C34.6934 7.36597 35.3105 7.25269 36.0098 7.25269C37.2754 7.25269 38.2871 7.64526 39.0449 8.43042C39.8066 9.21558 40.1875 10.3074 40.1875 11.7058C40.1875 13.0925 39.8105 14.1785 39.0566 14.9636C38.3027 15.7449 37.2949 16.1355 36.0332 16.1355C34.7559 16.1355 33.7402 15.7468 32.9863 14.9695C32.2324 14.1882 31.8555 13.114 31.8555 11.7468ZM33.6426 11.6882C33.6426 12.6609 33.8672 13.3992 34.3164 13.9031C34.7656 14.4031 35.3359 14.6531 36.0273 14.6531C36.7188 14.6531 37.2852 14.405 37.7266 13.9089C38.1719 13.4089 38.3945 12.6609 38.3945 11.6648C38.3945 10.6804 38.1777 9.94604 37.7441 9.46167C37.3145 8.97729 36.7422 8.73511 36.0273 8.73511C35.3125 8.73511 34.7363 8.9812 34.2988 9.47339C33.8613 9.96167 33.6426 10.7 33.6426 11.6882Z" fill="white"/>
<defs>
<linearGradient id="paint0_linear_64_1808" x1="25" y1="1.98901" x2="25" y2="21.989" gradientUnits="userSpaceOnUse">
<stop stop-color="#0055FF"/>
<stop offset="1" stop-color="#FF7800"/>
</linearGradient>
</defs>
</svg>
