<svg width="65" height="24" viewBox="0 0 65 24" fill="none" xmlns="http://www.w3.org/2000/svg">
<rect x="2" y="1.98901" width="62" height="20" rx="10" fill="url(#paint0_linear_40_2561)"/>
<rect x="2" y="1.98901" width="62" height="20" rx="10" stroke="#5F1FD7" stroke-width="3" stroke-linejoin="round"/>
<path d="M9.96094 7.39917H13.1309C13.8457 7.39917 14.3906 7.45386 14.7656 7.56323C15.2695 7.71167 15.7012 7.97534 16.0605 8.35425C16.4199 8.73315 16.6934 9.198 16.8809 9.74878C17.0684 10.2957 17.1621 10.9714 17.1621 11.7761C17.1621 12.4832 17.0742 13.0925 16.8984 13.6042C16.6836 14.2292 16.377 14.7351 15.9785 15.1218C15.6777 15.4148 15.2715 15.6433 14.7598 15.8074C14.377 15.9285 13.8652 15.989 13.2246 15.989H9.96094V7.39917ZM11.6953 8.85229V14.5417H12.9902C13.4746 14.5417 13.8242 14.5144 14.0391 14.4597C14.3203 14.3894 14.5527 14.2703 14.7363 14.1023C14.9238 13.9343 15.0762 13.6589 15.1934 13.2761C15.3105 12.8894 15.3691 12.364 15.3691 11.7C15.3691 11.0359 15.3105 10.5261 15.1934 10.1707C15.0762 9.81519 14.9121 9.53784 14.7012 9.33862C14.4902 9.1394 14.2227 9.00464 13.8984 8.93433C13.6562 8.87964 13.1816 8.85229 12.4746 8.85229H11.6953ZM18.6387 15.989V7.39917H21.4219C22.4766 7.39917 23.1641 7.44214 23.4844 7.52808C23.9766 7.65698 24.3887 7.93823 24.7207 8.37183C25.0527 8.80151 25.2188 9.35815 25.2188 10.0417C25.2188 10.5691 25.123 11.0125 24.9316 11.3718C24.7402 11.7312 24.4961 12.0144 24.1992 12.2214C23.9062 12.4246 23.6074 12.5593 23.3027 12.6257C22.8887 12.7078 22.2891 12.7488 21.5039 12.7488H20.373V15.989H18.6387ZM20.373 8.85229V11.2898H21.3223C22.0059 11.2898 22.4629 11.2449 22.6934 11.155C22.9238 11.0652 23.1035 10.9246 23.2324 10.7332C23.3652 10.5417 23.4316 10.3191 23.4316 10.0652C23.4316 9.75269 23.3398 9.49487 23.1562 9.29175C22.9727 9.08862 22.7402 8.96167 22.459 8.91089C22.252 8.87183 21.8359 8.85229 21.2109 8.85229H20.373ZM33.498 15.989H31.6113L30.8613 14.0378H27.4277L26.7188 15.989H24.8789L28.2246 7.39917H30.0586L33.498 15.989ZM30.3047 12.5906L29.1211 9.40308L27.9609 12.5906H30.3047ZM38.4199 12.8308V11.3835H42.1582V14.8054C41.7949 15.157 41.2676 15.4675 40.5762 15.7371C39.8887 16.0027 39.1914 16.1355 38.4844 16.1355C37.5859 16.1355 36.8027 15.948 36.1348 15.573C35.4668 15.1941 34.9648 14.655 34.6289 13.9558C34.293 13.2527 34.125 12.489 34.125 11.6648C34.125 10.7703 34.3125 9.97534 34.6875 9.28003C35.0625 8.58472 35.6113 8.05151 36.334 7.68042C36.8848 7.39526 37.5703 7.25269 38.3906 7.25269C39.457 7.25269 40.2891 7.47729 40.8867 7.92651C41.4883 8.37183 41.875 8.98901 42.0469 9.77808L40.3242 10.1003C40.2031 9.67847 39.9746 9.34644 39.6387 9.10425C39.3066 8.85815 38.8906 8.73511 38.3906 8.73511C37.6328 8.73511 37.0293 8.97534 36.5801 9.45581C36.1348 9.93628 35.9121 10.6492 35.9121 11.5945C35.9121 12.614 36.1387 13.3796 36.5918 13.8914C37.0449 14.3992 37.6387 14.6531 38.373 14.6531C38.7363 14.6531 39.0996 14.5828 39.4629 14.4421C39.8301 14.2976 40.1445 14.1238 40.4062 13.9207V12.8308H38.4199ZM45.6973 15.989V8.85229H43.1484V7.39917H49.9746V8.85229H47.4316V15.989H45.6973ZM54.9492 15.989H53.3027V9.78394C52.7012 10.3464 51.9922 10.7625 51.1758 11.032V9.53784C51.6055 9.39722 52.0723 9.13159 52.5762 8.74097C53.0801 8.34644 53.4258 7.88745 53.6133 7.36401H54.9492V15.989Z" fill="white"/>
<defs>
<linearGradient id="paint0_linear_40_2561" x1="33" y1="1.98901" x2="33" y2="21.989" gradientUnits="userSpaceOnUse">
<stop stop-color="#5F1FD7"/>
<stop offset="1" stop-color="#ED65A9"/>
</linearGradient>
</defs>
</svg>
