<svg width="52" height="24" viewBox="0 0 52 24" fill="none" xmlns="http://www.w3.org/2000/svg">
<rect x="2" y="1.98901" width="49" height="20" rx="10" fill="url(#paint0_linear_46_4324)"/>
<rect x="2" y="1.98901" width="49" height="20" rx="10" stroke="#3266DA" stroke-width="3" stroke-linejoin="round"/>
<path d="M9.96484 15.989V7.39917H11.6992V15.989H9.96484ZM13.3691 15.989V7.39917H19.2578V8.85229H15.1035V10.8855H18.6895V12.3386H15.1035V15.989H13.3691ZM20.6406 15.989V7.39917H22.375V15.989H20.6406ZM26.8984 15.989V14.2605H23.3828V12.8191L27.1094 7.36401H28.4922V12.8132H29.5586V14.2605H28.4922V15.989H26.8984ZM26.8984 12.8132V9.87769L24.9238 12.8132H26.8984ZM33.5781 15.989V14.2605H30.0625V12.8191L33.7891 7.36401H35.1719V12.8132H36.2383V14.2605H35.1719V15.989H33.5781ZM33.5781 12.8132V9.87769L31.6035 12.8132H33.5781ZM37.4395 15.989V7.46948H39.1738V14.5417H43.4863V15.989H37.4395Z" fill="white"/>
<defs>
<linearGradient id="paint0_linear_46_4324" x1="26.5" y1="1.98901" x2="26.5" y2="21.989" gradientUnits="userSpaceOnUse">
<stop stop-color="#3266DA"/>
<stop offset="1" stop-color="#00A7C0"/>
</linearGradient>
</defs>
</svg>
