<svg width="49" height="24" viewBox="0 0 49 24" fill="none" xmlns="http://www.w3.org/2000/svg">
<rect x="2" y="1.98901" width="46" height="20" rx="10" fill="url(#paint0_linear_50_1814)"/>
<rect x="2" y="1.98901" width="46" height="20" rx="10" stroke="#843826" stroke-width="3" stroke-linejoin="round"/>
<path d="M10.2168 15.989V7.39917H11.9512V11.2136L15.4551 7.39917H17.7871L14.5527 10.7449L17.9629 15.989H15.7188L13.3574 11.9578L11.9512 13.3933V15.989H10.2168ZM20.7988 15.989V8.85229H18.25V7.39917H25.0762V8.85229H22.5332V15.989H20.7988ZM26.2188 15.989V7.39917H27.9062L31.4219 13.1355V7.39917H33.0332V15.989H31.293L27.8301 10.3875V15.989H26.2188ZM38.7227 15.989H37.0762V9.78394C36.4746 10.3464 35.7656 10.7625 34.9492 11.032V9.53784C35.3789 9.39722 35.8457 9.13159 36.3496 8.74097C36.8535 8.34644 37.1992 7.88745 37.3867 7.36401H38.7227V15.989Z" fill="white"/>
<defs>
<linearGradient id="paint0_linear_50_1814" x1="25" y1="1.98901" x2="25" y2="21.989" gradientUnits="userSpaceOnUse">
<stop stop-color="#843826"/>
<stop offset="1" stop-color="#B8E28C"/>
</linearGradient>
</defs>
</svg>
