<svg width="42" height="24" viewBox="0 0 42 24" fill="none" xmlns="http://www.w3.org/2000/svg">
<rect x="2" y="1.98901" width="39" height="20" rx="10" fill="url(#paint0_linear_67_1943)"/>
<rect x="2" y="1.98901" width="39" height="20" rx="10" stroke="#4E9BB9" stroke-width="3" stroke-linejoin="round"/>
<path d="M9.81641 13.1941L11.5039 13.03C11.6055 13.5964 11.8105 14.0125 12.1191 14.2781C12.4316 14.5437 12.8516 14.6765 13.3789 14.6765C13.9375 14.6765 14.3574 14.5593 14.6387 14.325C14.9238 14.0867 15.0664 13.8093 15.0664 13.4929C15.0664 13.2898 15.0059 13.1179 14.8848 12.9773C14.7676 12.8328 14.5605 12.7078 14.2637 12.6023C14.0605 12.532 13.5977 12.407 12.875 12.2273C11.9453 11.9968 11.293 11.7136 10.918 11.3777C10.3906 10.905 10.127 10.3289 10.127 9.64917C10.127 9.21167 10.25 8.80347 10.4961 8.42456C10.7461 8.04175 11.1035 7.75073 11.5684 7.55151C12.0371 7.35229 12.6016 7.25269 13.2617 7.25269C14.3398 7.25269 15.1504 7.48901 15.6934 7.96167C16.2402 8.43433 16.5273 9.06519 16.5547 9.85425L14.8203 9.93042C14.7461 9.48901 14.5859 9.17261 14.3398 8.9812C14.0977 8.78589 13.7324 8.68823 13.2441 8.68823C12.7402 8.68823 12.3457 8.79175 12.0605 8.99878C11.877 9.13159 11.7852 9.30933 11.7852 9.53198C11.7852 9.73511 11.8711 9.90894 12.043 10.0535C12.2617 10.2371 12.793 10.4285 13.6367 10.6277C14.4805 10.8269 15.1035 11.0339 15.5059 11.2488C15.9121 11.4597 16.2285 11.7507 16.4551 12.1218C16.6855 12.489 16.8008 12.9441 16.8008 13.4871C16.8008 13.9792 16.6641 14.4402 16.3906 14.8699C16.1172 15.2996 15.7305 15.6199 15.2305 15.8308C14.7305 16.0378 14.1074 16.1414 13.3613 16.1414C12.2754 16.1414 11.4414 15.8914 10.8594 15.3914C10.2773 14.8875 9.92969 14.155 9.81641 13.1941ZM18.2656 15.989V7.39917H21.916C22.834 7.39917 23.5 7.47729 23.9141 7.63354C24.332 7.78589 24.666 8.05933 24.916 8.45386C25.166 8.84839 25.291 9.29956 25.291 9.80737C25.291 10.4519 25.1016 10.9851 24.7227 11.407C24.3438 11.825 23.7773 12.0886 23.0234 12.198C23.3984 12.4167 23.707 12.657 23.9492 12.9187C24.1953 13.1804 24.5254 13.6453 24.9395 14.3132L25.9883 15.989H23.9141L22.6602 14.1199C22.2148 13.4519 21.9102 13.032 21.7461 12.8601C21.582 12.6843 21.4082 12.5652 21.2246 12.5027C21.041 12.4363 20.75 12.4031 20.3516 12.4031H20V15.989H18.2656ZM20 11.032H21.2832C22.1152 11.032 22.6348 10.9968 22.8418 10.9265C23.0488 10.8562 23.2109 10.7351 23.3281 10.5632C23.4453 10.3914 23.5039 10.1765 23.5039 9.9187C23.5039 9.62964 23.4258 9.39722 23.2695 9.22144C23.1172 9.04175 22.9004 8.92847 22.6191 8.88159C22.4785 8.86206 22.0566 8.85229 21.3535 8.85229H20V11.032ZM28.7422 15.989V12.3738L25.5957 7.39917H27.6289L29.6504 10.7976L31.6309 7.39917H33.6289L30.4707 12.3855V15.989H28.7422Z" fill="white"/>
<defs>
<linearGradient id="paint0_linear_67_1943" x1="21.5" y1="1.98901" x2="21.5" y2="21.989" gradientUnits="userSpaceOnUse">
<stop stop-color="#FF2D35"/>
<stop offset="1" stop-color="#4E9BB9"/>
</linearGradient>
</defs>
</svg>
