<svg width="76" height="24" viewBox="0 0 76 24" fill="none" xmlns="http://www.w3.org/2000/svg">
<rect x="1" y="1.98901" width="74" height="20" rx="10" fill="url(#paint0_linear_84_2050)"/>
<rect x="1" y="1.98901" width="74" height="20" rx="10" stroke="#A8A000" stroke-width="3" stroke-linejoin="round"/>
<path d="M11.0117 15.989V8.85229H8.46289V7.39917H15.2891V8.85229H12.7461V15.989H11.0117ZM16.4199 15.989V7.39917H20.0703C20.9883 7.39917 21.6543 7.47729 22.0684 7.63354C22.4863 7.78589 22.8203 8.05933 23.0703 8.45386C23.3203 8.84839 23.4453 9.29956 23.4453 9.80737C23.4453 10.4519 23.2559 10.9851 22.877 11.407C22.498 11.825 21.9316 12.0886 21.1777 12.198C21.5527 12.4167 21.8613 12.657 22.1035 12.9187C22.3496 13.1804 22.6797 13.6453 23.0938 14.3132L24.1426 15.989H22.0684L20.8145 14.1199C20.3691 13.4519 20.0645 13.032 19.9004 12.8601C19.7363 12.6843 19.5625 12.5652 19.3789 12.5027C19.1953 12.4363 18.9043 12.4031 18.5059 12.4031H18.1543V15.989H16.4199ZM18.1543 11.032H19.4375C20.2695 11.032 20.7891 10.9968 20.9961 10.9265C21.2031 10.8562 21.3652 10.7351 21.4824 10.5632C21.5996 10.3914 21.6582 10.1765 21.6582 9.9187C21.6582 9.62964 21.5801 9.39722 21.4238 9.22144C21.2715 9.04175 21.0547 8.92847 20.7734 8.88159C20.6328 8.86206 20.2109 8.85229 19.5078 8.85229H18.1543V11.032ZM26.8965 15.989V12.3738L23.75 7.39917H25.7832L27.8047 10.7976L29.7852 7.39917H31.7832L28.625 12.3855V15.989H26.8965ZM32.6445 15.989V7.39917H35.4277C36.4824 7.39917 37.1699 7.44214 37.4902 7.52808C37.9824 7.65698 38.3945 7.93823 38.7266 8.37183C39.0586 8.80151 39.2246 9.35815 39.2246 10.0417C39.2246 10.5691 39.1289 11.0125 38.9375 11.3718C38.7461 11.7312 38.502 12.0144 38.2051 12.2214C37.9121 12.4246 37.6133 12.5593 37.3086 12.6257C36.8945 12.7078 36.2949 12.7488 35.5098 12.7488H34.3789V15.989H32.6445ZM34.3789 8.85229V11.2898H35.3281C36.0117 11.2898 36.4688 11.2449 36.6992 11.155C36.9297 11.0652 37.1094 10.9246 37.2383 10.7332C37.3711 10.5417 37.4375 10.3191 37.4375 10.0652C37.4375 9.75269 37.3457 9.49487 37.1621 9.29175C36.9785 9.08862 36.7461 8.96167 36.4648 8.91089C36.2578 8.87183 35.8418 8.85229 35.2168 8.85229H34.3789ZM40.209 13.1941L41.8965 13.03C41.998 13.5964 42.2031 14.0125 42.5117 14.2781C42.8242 14.5437 43.2441 14.6765 43.7715 14.6765C44.3301 14.6765 44.75 14.5593 45.0312 14.325C45.3164 14.0867 45.459 13.8093 45.459 13.4929C45.459 13.2898 45.3984 13.1179 45.2773 12.9773C45.1602 12.8328 44.9531 12.7078 44.6562 12.6023C44.4531 12.532 43.9902 12.407 43.2676 12.2273C42.3379 11.9968 41.6855 11.7136 41.3105 11.3777C40.7832 10.905 40.5195 10.3289 40.5195 9.64917C40.5195 9.21167 40.6426 8.80347 40.8887 8.42456C41.1387 8.04175 41.4961 7.75073 41.9609 7.55151C42.4297 7.35229 42.9941 7.25269 43.6543 7.25269C44.7324 7.25269 45.543 7.48901 46.0859 7.96167C46.6328 8.43433 46.9199 9.06519 46.9473 9.85425L45.2129 9.93042C45.1387 9.48901 44.9785 9.17261 44.7324 8.9812C44.4902 8.78589 44.125 8.68823 43.6367 8.68823C43.1328 8.68823 42.7383 8.79175 42.4531 8.99878C42.2695 9.13159 42.1777 9.30933 42.1777 9.53198C42.1777 9.73511 42.2637 9.90894 42.4355 10.0535C42.6543 10.2371 43.1855 10.4285 44.0293 10.6277C44.873 10.8269 45.4961 11.0339 45.8984 11.2488C46.3047 11.4597 46.6211 11.7507 46.8477 12.1218C47.0781 12.489 47.1934 12.9441 47.1934 13.4871C47.1934 13.9792 47.0566 14.4402 46.7832 14.8699C46.5098 15.2996 46.123 15.6199 45.623 15.8308C45.123 16.0378 44.5 16.1414 43.7539 16.1414C42.668 16.1414 41.834 15.8914 41.252 15.3914C40.6699 14.8875 40.3223 14.155 40.209 13.1941ZM48.5996 15.989V7.39917H50.334V15.989H48.5996ZM52.0098 15.989V7.39917H53.6973L57.2129 13.1355V7.39917H58.8242V15.989H57.084L53.6211 10.3875V15.989H52.0098ZM60.2246 13.1941L61.9121 13.03C62.0137 13.5964 62.2188 14.0125 62.5273 14.2781C62.8398 14.5437 63.2598 14.6765 63.7871 14.6765C64.3457 14.6765 64.7656 14.5593 65.0469 14.325C65.332 14.0867 65.4746 13.8093 65.4746 13.4929C65.4746 13.2898 65.4141 13.1179 65.293 12.9773C65.1758 12.8328 64.9688 12.7078 64.6719 12.6023C64.4688 12.532 64.0059 12.407 63.2832 12.2273C62.3535 11.9968 61.7012 11.7136 61.3262 11.3777C60.7988 10.905 60.5352 10.3289 60.5352 9.64917C60.5352 9.21167 60.6582 8.80347 60.9043 8.42456C61.1543 8.04175 61.5117 7.75073 61.9766 7.55151C62.4453 7.35229 63.0098 7.25269 63.6699 7.25269C64.748 7.25269 65.5586 7.48901 66.1016 7.96167C66.6484 8.43433 66.9355 9.06519 66.9629 9.85425L65.2285 9.93042C65.1543 9.48901 64.9941 9.17261 64.748 8.9812C64.5059 8.78589 64.1406 8.68823 63.6523 8.68823C63.1484 8.68823 62.7539 8.79175 62.4688 8.99878C62.2852 9.13159 62.1934 9.30933 62.1934 9.53198C62.1934 9.73511 62.2793 9.90894 62.4512 10.0535C62.6699 10.2371 63.2012 10.4285 64.0449 10.6277C64.8887 10.8269 65.5117 11.0339 65.9141 11.2488C66.3203 11.4597 66.6367 11.7507 66.8633 12.1218C67.0938 12.489 67.209 12.9441 67.209 13.4871C67.209 13.9792 67.0723 14.4402 66.7988 14.8699C66.5254 15.2996 66.1387 15.6199 65.6387 15.8308C65.1387 16.0378 64.5156 16.1414 63.7695 16.1414C62.6836 16.1414 61.8496 15.8914 61.2676 15.3914C60.6855 14.8875 60.3379 14.155 60.2246 13.1941Z" fill="white"/>
<defs>
<linearGradient id="paint0_linear_84_2050" x1="38" y1="1.98901" x2="38" y2="21.989" gradientUnits="userSpaceOnUse">
<stop stop-color="#A8A000"/>
<stop offset="1" stop-color="#2E5400"/>
</linearGradient>
</defs>
</svg>
