<svg width="57" height="24" viewBox="0 0 57 24" fill="none" xmlns="http://www.w3.org/2000/svg">
<rect x="2" y="1.98901" width="54" height="20" rx="10" fill="url(#paint0_linear_50_1835)"/>
<rect x="2" y="1.98901" width="54" height="20" rx="10" stroke="#002D60" stroke-width="3" stroke-linejoin="round"/>
<path d="M10.2383 15.989V7.46948H11.9727V14.5417H16.2852V15.989H10.2383ZM25.2734 15.989H23.3867L22.6367 14.0378H19.2031L18.4941 15.989H16.6543L20 7.39917H21.834L25.2734 15.989ZM22.0801 12.5906L20.8965 9.40308L19.7363 12.5906H22.0801ZM26.2051 15.989V7.39917H29.8555C30.7734 7.39917 31.4395 7.47729 31.8535 7.63354C32.2715 7.78589 32.6055 8.05933 32.8555 8.45386C33.1055 8.84839 33.2305 9.29956 33.2305 9.80737C33.2305 10.4519 33.041 10.9851 32.6621 11.407C32.2832 11.825 31.7168 12.0886 30.9629 12.198C31.3379 12.4167 31.6465 12.657 31.8887 12.9187C32.1348 13.1804 32.4648 13.6453 32.8789 14.3132L33.9277 15.989H31.8535L30.5996 14.1199C30.1543 13.4519 29.8496 13.032 29.6855 12.8601C29.5215 12.6843 29.3477 12.5652 29.1641 12.5027C28.9805 12.4363 28.6895 12.4031 28.291 12.4031H27.9395V15.989H26.2051ZM27.9395 11.032H29.2227C30.0547 11.032 30.5742 10.9968 30.7812 10.9265C30.9883 10.8562 31.1504 10.7351 31.2676 10.5632C31.3848 10.3914 31.4434 10.1765 31.4434 9.9187C31.4434 9.62964 31.3652 9.39722 31.209 9.22144C31.0566 9.04175 30.8398 8.92847 30.5586 8.88159C30.418 8.86206 29.9961 8.85229 29.293 8.85229H27.9395V11.032ZM34.8711 15.989V7.39917H37.6543C38.709 7.39917 39.3965 7.44214 39.7168 7.52808C40.209 7.65698 40.6211 7.93823 40.9531 8.37183C41.2852 8.80151 41.4512 9.35815 41.4512 10.0417C41.4512 10.5691 41.3555 11.0125 41.1641 11.3718C40.9727 11.7312 40.7285 12.0144 40.4316 12.2214C40.1387 12.4246 39.8398 12.5593 39.5352 12.6257C39.1211 12.7078 38.5215 12.7488 37.7363 12.7488H36.6055V15.989H34.8711ZM36.6055 8.85229V11.2898H37.5547C38.2383 11.2898 38.6953 11.2449 38.9258 11.155C39.1562 11.0652 39.3359 10.9246 39.4648 10.7332C39.5977 10.5417 39.6641 10.3191 39.6641 10.0652C39.6641 9.75269 39.5723 9.49487 39.3887 9.29175C39.2051 9.08862 38.9727 8.96167 38.6914 8.91089C38.4844 8.87183 38.0684 8.85229 37.4434 8.85229H36.6055ZM42.5117 9.04565V7.51636H48.1426V8.71167C47.6777 9.1687 47.2051 9.82495 46.7246 10.6804C46.2441 11.5359 45.877 12.446 45.623 13.4109C45.373 14.3718 45.25 15.2312 45.2539 15.989H43.666C43.6934 14.8015 43.9375 13.5906 44.3984 12.3562C44.8633 11.1218 45.4824 10.0183 46.2559 9.04565H42.5117Z" fill="white"/>
<defs>
<linearGradient id="paint0_linear_50_1835" x1="29" y1="1.98901" x2="29" y2="21.989" gradientUnits="userSpaceOnUse">
<stop stop-color="#002D60"/>
<stop offset="1" stop-color="#BFD8FF"/>
</linearGradient>
</defs>
</svg>
