<svg width="54" height="24" viewBox="0 0 54 24" fill="none" xmlns="http://www.w3.org/2000/svg">
<rect x="2" y="1.98901" width="51" height="20" rx="10" fill="url(#paint0_linear_83_1984)"/>
<rect x="2" y="1.98901" width="51" height="20" rx="10" stroke="#6367A5" stroke-width="3" stroke-linejoin="round"/>
<path d="M9.81055 13.1941L11.498 13.03C11.5996 13.5964 11.8047 14.0125 12.1133 14.2781C12.4258 14.5437 12.8457 14.6765 13.373 14.6765C13.9316 14.6765 14.3516 14.5593 14.6328 14.325C14.918 14.0867 15.0605 13.8093 15.0605 13.4929C15.0605 13.2898 15 13.1179 14.8789 12.9773C14.7617 12.8328 14.5547 12.7078 14.2578 12.6023C14.0547 12.532 13.5918 12.407 12.8691 12.2273C11.9395 11.9968 11.2871 11.7136 10.9121 11.3777C10.3848 10.905 10.1211 10.3289 10.1211 9.64917C10.1211 9.21167 10.2441 8.80347 10.4902 8.42456C10.7402 8.04175 11.0977 7.75073 11.5625 7.55151C12.0312 7.35229 12.5957 7.25269 13.2559 7.25269C14.334 7.25269 15.1445 7.48901 15.6875 7.96167C16.2344 8.43433 16.5215 9.06519 16.5488 9.85425L14.8145 9.93042C14.7402 9.48901 14.5801 9.17261 14.334 8.9812C14.0918 8.78589 13.7266 8.68823 13.2383 8.68823C12.7344 8.68823 12.3398 8.79175 12.0547 8.99878C11.8711 9.13159 11.7793 9.30933 11.7793 9.53198C11.7793 9.73511 11.8652 9.90894 12.0371 10.0535C12.2559 10.2371 12.7871 10.4285 13.6309 10.6277C14.4746 10.8269 15.0977 11.0339 15.5 11.2488C15.9062 11.4597 16.2227 11.7507 16.4492 12.1218C16.6797 12.489 16.7949 12.9441 16.7949 13.4871C16.7949 13.9792 16.6582 14.4402 16.3848 14.8699C16.1113 15.2996 15.7246 15.6199 15.2246 15.8308C14.7246 16.0378 14.1016 16.1414 13.3555 16.1414C12.2695 16.1414 11.4355 15.8914 10.8535 15.3914C10.2715 14.8875 9.92383 14.155 9.81055 13.1941ZM20.1875 15.989V8.85229H17.6387V7.39917H24.4648V8.85229H21.9219V15.989H20.1875ZM32.4453 15.989H30.5586L29.8086 14.0378H26.375L25.666 15.989H23.8262L27.1719 7.39917H29.0059L32.4453 15.989ZM29.252 12.5906L28.0684 9.40308L26.9082 12.5906H29.252ZM34.4141 15.989V8.85229H31.8652V7.39917H38.6914V8.85229H36.1484V15.989H34.4141ZM45.0312 9.50269L43.4375 9.67847C43.3984 9.35034 43.2969 9.10815 43.1328 8.9519C42.9688 8.79565 42.7559 8.71753 42.4941 8.71753C42.1465 8.71753 41.8516 8.87378 41.6094 9.18628C41.3711 9.49878 41.2207 10.1492 41.1582 11.1375C41.5684 10.6531 42.0781 10.4109 42.6875 10.4109C43.375 10.4109 43.9629 10.6726 44.4512 11.196C44.9434 11.7195 45.1895 12.3953 45.1895 13.2234C45.1895 14.1023 44.9316 14.8074 44.416 15.3386C43.9004 15.8699 43.2383 16.1355 42.4297 16.1355C41.5625 16.1355 40.8496 15.7996 40.291 15.1277C39.7324 14.4519 39.4531 13.3464 39.4531 11.8113C39.4531 10.2371 39.7441 9.10229 40.3262 8.40698C40.9082 7.71167 41.6641 7.36401 42.5938 7.36401C43.2461 7.36401 43.7852 7.54761 44.2109 7.91479C44.6406 8.27808 44.9141 8.80737 45.0312 9.50269ZM41.2988 13.0945C41.2988 13.6296 41.4219 14.0437 41.668 14.3367C41.9141 14.6257 42.1953 14.7703 42.5117 14.7703C42.8164 14.7703 43.0703 14.6511 43.2734 14.4128C43.4766 14.1746 43.5781 13.7839 43.5781 13.241C43.5781 12.6824 43.4688 12.2742 43.25 12.0164C43.0312 11.7546 42.7578 11.6238 42.4297 11.6238C42.1133 11.6238 41.8457 11.7488 41.627 11.9988C41.4082 12.2449 41.2988 12.6101 41.2988 13.0945Z" fill="white"/>
<defs>
<linearGradient id="paint0_linear_83_1984" x1="27.5" y1="1.98901" x2="27.5" y2="21.989" gradientUnits="userSpaceOnUse">
<stop stop-color="#171A41"/>
<stop offset="1" stop-color="#6367A5"/>
</linearGradient>
</defs>
</svg>
