<svg width="59" height="24" viewBox="0 0 59 24" fill="none" xmlns="http://www.w3.org/2000/svg">
<rect x="2" y="1.98901" width="56" height="20" rx="10" fill="url(#paint0_linear_35_1563)"/>
<rect x="2" y="1.98901" width="56" height="20" rx="10" stroke="#21287A" stroke-width="3" stroke-linejoin="round"/>
<path d="M10.2012 7.39917H13.6348C14.3145 7.39917 14.8203 7.42847 15.1523 7.48706C15.4883 7.54175 15.7871 7.65894 16.0488 7.83862C16.3145 8.01831 16.5352 8.25854 16.7109 8.55933C16.8867 8.8562 16.9746 9.19019 16.9746 9.56128C16.9746 9.96362 16.8652 10.3328 16.6465 10.6687C16.4316 11.0046 16.1387 11.2566 15.7676 11.4246C16.291 11.5769 16.6934 11.8367 16.9746 12.2039C17.2559 12.571 17.3965 13.0027 17.3965 13.4988C17.3965 13.8894 17.3047 14.2703 17.1211 14.6414C16.9414 15.0085 16.6934 15.3035 16.377 15.5261C16.0645 15.7449 15.6777 15.8796 15.2168 15.9304C14.9277 15.9617 14.2305 15.9812 13.125 15.989H10.2012V7.39917ZM11.9355 8.82886V10.8152H13.0723C13.748 10.8152 14.168 10.8054 14.332 10.7859C14.6289 10.7507 14.8613 10.6492 15.0293 10.4812C15.2012 10.3093 15.2871 10.0847 15.2871 9.80737C15.2871 9.54175 15.2129 9.3269 15.0645 9.16284C14.9199 8.99487 14.7031 8.89331 14.4141 8.85815C14.2422 8.83862 13.748 8.82886 12.9316 8.82886H11.9355ZM11.9355 12.2449V14.5417H13.541C14.166 14.5417 14.5625 14.5242 14.7305 14.489C14.9883 14.4421 15.1973 14.3289 15.3574 14.1492C15.5215 13.9656 15.6035 13.7214 15.6035 13.4167C15.6035 13.1589 15.541 12.9402 15.416 12.7605C15.291 12.5808 15.1094 12.45 14.8711 12.3679C14.6367 12.2859 14.125 12.2449 13.3359 12.2449H11.9355ZM18.8438 15.989V7.39917H21.4395L22.998 13.2585L24.5391 7.39917H27.1406V15.989H25.5293V9.22729L23.8242 15.989H22.1543L20.4551 9.22729V15.989H18.8438ZM36.6094 15.989H34.7227L33.9727 14.0378H30.5391L29.8301 15.989H27.9902L31.3359 7.39917H33.1699L36.6094 15.989ZM33.416 12.5906L32.2324 9.40308L31.0723 12.5906H33.416ZM37.582 15.989V7.46948H39.3164V14.5417H43.6289V15.989H37.582ZM48.7207 15.989H47.0742V9.78394C46.4727 10.3464 45.7637 10.7625 44.9473 11.032V9.53784C45.377 9.39722 45.8438 9.13159 46.3477 8.74097C46.8516 8.34644 47.1973 7.88745 47.3848 7.36401H48.7207V15.989Z" fill="white"/>
<defs>
<linearGradient id="paint0_linear_35_1563" x1="30" y1="1.98901" x2="30" y2="21.989" gradientUnits="userSpaceOnUse">
<stop stop-color="#21287A"/>
<stop offset="1" stop-color="#FFA584"/>
</linearGradient>
</defs>
</svg>
