<svg width="65" height="24" viewBox="0 0 65 24" fill="none" xmlns="http://www.w3.org/2000/svg">
<rect x="2" y="1.98901" width="62" height="20" rx="10" fill="url(#paint0_linear_42_2716)"/>
<rect x="2" y="1.98901" width="62" height="20" rx="10" stroke="#E39226" stroke-width="3" stroke-linejoin="round"/>
<path d="M10.2012 15.989V7.39917H16.0898V8.85229H11.9355V10.8855H15.5215V12.3386H11.9355V15.989H10.2012ZM24.6035 15.989H22.7168L21.9668 14.0378H18.5332L17.8242 15.989H15.9844L19.3301 7.39917H21.1641L24.6035 15.989ZM21.4102 12.5906L20.2266 9.40308L19.0664 12.5906H21.4102ZM25.5059 15.989V7.39917H28.1016L29.6602 13.2585L31.2012 7.39917H33.8027V15.989H32.1914V9.22729L30.4863 15.989H28.8164L27.1172 9.22729V15.989H25.5059ZM40.7227 14.4597V15.989H34.9512C35.0137 15.4109 35.2012 14.864 35.5137 14.3484C35.8262 13.8289 36.4434 13.1414 37.3652 12.2859C38.1074 11.5945 38.5625 11.1257 38.7305 10.8796C38.957 10.5398 39.0703 10.2039 39.0703 9.87183C39.0703 9.50464 38.9707 9.22339 38.7715 9.02808C38.5762 8.82886 38.3047 8.72925 37.957 8.72925C37.6133 8.72925 37.3398 8.83276 37.1367 9.03979C36.9336 9.24683 36.8164 9.59058 36.7852 10.071L35.1445 9.90698C35.2422 9.00073 35.5488 8.35034 36.0645 7.95581C36.5801 7.56128 37.2246 7.36401 37.998 7.36401C38.8457 7.36401 39.5117 7.59253 39.9961 8.04956C40.4805 8.50659 40.7227 9.07495 40.7227 9.75464C40.7227 10.1414 40.6523 10.5105 40.5117 10.8621C40.375 11.2097 40.1562 11.575 39.8555 11.9578C39.6562 12.2117 39.2969 12.5769 38.7773 13.0535C38.2578 13.53 37.9277 13.8464 37.7871 14.0027C37.6504 14.1589 37.5391 14.3113 37.4531 14.4597H40.7227ZM44.625 7.36401C45.457 7.36401 46.1074 7.66089 46.5762 8.25464C47.1348 8.95776 47.4141 10.1238 47.4141 11.7527C47.4141 13.3777 47.1328 14.5457 46.5703 15.2566C46.1055 15.8425 45.457 16.1355 44.625 16.1355C43.7891 16.1355 43.1152 15.8152 42.6035 15.1746C42.0918 14.53 41.8359 13.3835 41.8359 11.7351C41.8359 10.1179 42.1172 8.95386 42.6797 8.24292C43.1445 7.65698 43.793 7.36401 44.625 7.36401ZM44.625 8.72925C44.4258 8.72925 44.248 8.7937 44.0918 8.92261C43.9355 9.04761 43.8145 9.27417 43.7285 9.60229C43.6152 10.0281 43.5586 10.7449 43.5586 11.7527C43.5586 12.7605 43.6094 13.4539 43.7109 13.8328C43.8125 14.2078 43.9395 14.4578 44.0918 14.5828C44.248 14.7078 44.4258 14.7703 44.625 14.7703C44.8242 14.7703 45.002 14.7078 45.1582 14.5828C45.3145 14.4539 45.4355 14.2253 45.5215 13.8972C45.6348 13.4753 45.6914 12.7605 45.6914 11.7527C45.6914 10.7449 45.6406 10.0535 45.5391 9.67847C45.4375 9.29956 45.3086 9.04761 45.1523 8.92261C45 8.7937 44.8242 8.72925 44.625 8.72925ZM56.6309 15.989H54.7441L53.9941 14.0378H50.5605L49.8516 15.989H48.0117L51.3574 7.39917H53.1914L56.6309 15.989ZM53.4375 12.5906L52.2539 9.40308L51.0938 12.5906H53.4375Z" fill="white"/>
<defs>
<linearGradient id="paint0_linear_42_2716" x1="33" y1="1.98901" x2="33" y2="21.989" gradientUnits="userSpaceOnUse">
<stop stop-color="#E39226"/>
<stop offset="1" stop-color="#35855B"/>
</linearGradient>
</defs>
</svg>
