<svg width="55" height="24" viewBox="0 0 55 24" fill="none" xmlns="http://www.w3.org/2000/svg">
<rect x="2" y="1.98901" width="52" height="20" rx="10" fill="url(#paint0_linear_67_1824)"/>
<rect x="2" y="1.98901" width="52" height="20" rx="10" stroke="#FF6369" stroke-width="3" stroke-linejoin="round"/>
<path d="M10.1934 15.989V7.39917H12.9766C14.0312 7.39917 14.7188 7.44214 15.0391 7.52808C15.5312 7.65698 15.9434 7.93823 16.2754 8.37183C16.6074 8.80151 16.7734 9.35815 16.7734 10.0417C16.7734 10.5691 16.6777 11.0125 16.4863 11.3718C16.2949 11.7312 16.0508 12.0144 15.7539 12.2214C15.4609 12.4246 15.1621 12.5593 14.8574 12.6257C14.4434 12.7078 13.8438 12.7488 13.0586 12.7488H11.9277V15.989H10.1934ZM11.9277 8.85229V11.2898H12.877C13.5605 11.2898 14.0176 11.2449 14.248 11.155C14.4785 11.0652 14.6582 10.9246 14.7871 10.7332C14.9199 10.5417 14.9863 10.3191 14.9863 10.0652C14.9863 9.75269 14.8945 9.49487 14.7109 9.29175C14.5273 9.08862 14.2949 8.96167 14.0137 8.91089C13.8066 8.87183 13.3906 8.85229 12.7656 8.85229H11.9277ZM18.2031 15.989V7.39917H21.8535C22.7715 7.39917 23.4375 7.47729 23.8516 7.63354C24.2695 7.78589 24.6035 8.05933 24.8535 8.45386C25.1035 8.84839 25.2285 9.29956 25.2285 9.80737C25.2285 10.4519 25.0391 10.9851 24.6602 11.407C24.2812 11.825 23.7148 12.0886 22.9609 12.198C23.3359 12.4167 23.6445 12.657 23.8867 12.9187C24.1328 13.1804 24.4629 13.6453 24.877 14.3132L25.9258 15.989H23.8516L22.5977 14.1199C22.1523 13.4519 21.8477 13.032 21.6836 12.8601C21.5195 12.6843 21.3457 12.5652 21.1621 12.5027C20.9785 12.4363 20.6875 12.4031 20.2891 12.4031H19.9375V15.989H18.2031ZM19.9375 11.032H21.2207C22.0527 11.032 22.5723 10.9968 22.7793 10.9265C22.9863 10.8562 23.1484 10.7351 23.2656 10.5632C23.3828 10.3914 23.4414 10.1765 23.4414 9.9187C23.4414 9.62964 23.3633 9.39722 23.207 9.22144C23.0547 9.04175 22.8379 8.92847 22.5566 8.88159C22.416 8.86206 21.9941 8.85229 21.291 8.85229H19.9375V11.032ZM26.8926 15.989V7.39917H28.627V11.2136L32.1309 7.39917H34.4629L31.2285 10.7449L34.6387 15.989H32.3945L30.0332 11.9578L28.627 13.3933V15.989H26.8926ZM41.0371 12.8308L42.7188 13.364C42.4609 14.3015 42.0312 14.9988 41.4297 15.4558C40.832 15.9089 40.0723 16.1355 39.1504 16.1355C38.0098 16.1355 37.0723 15.7468 36.3379 14.9695C35.6035 14.1882 35.2363 13.1218 35.2363 11.7703C35.2363 10.3406 35.6055 9.2312 36.3438 8.44214C37.082 7.64917 38.0527 7.25269 39.2559 7.25269C40.3066 7.25269 41.1602 7.56323 41.8164 8.18433C42.207 8.55151 42.5 9.07886 42.6953 9.76636L40.9785 10.1765C40.877 9.7312 40.6641 9.37964 40.3398 9.12183C40.0195 8.86401 39.6289 8.73511 39.168 8.73511C38.5312 8.73511 38.0137 8.96362 37.6152 9.42065C37.2207 9.87769 37.0234 10.6179 37.0234 11.6414C37.0234 12.7273 37.2188 13.5007 37.6094 13.9617C38 14.4226 38.5078 14.6531 39.1328 14.6531C39.5938 14.6531 39.9902 14.5066 40.3223 14.2136C40.6543 13.9207 40.8926 13.4597 41.0371 12.8308ZM44.1602 15.989V7.39917H45.8945V15.989H44.1602Z" fill="white"/>
<defs>
<linearGradient id="paint0_linear_67_1824" x1="28" y1="1.98901" x2="28" y2="21.989" gradientUnits="userSpaceOnUse">
<stop stop-color="#00587A"/>
<stop offset="1" stop-color="#FF6369"/>
</linearGradient>
</defs>
</svg>
