<svg width="41" height="24" viewBox="0 0 41 24" fill="none" xmlns="http://www.w3.org/2000/svg">
<rect x="2" y="1.98901" width="38" height="20" rx="10" fill="url(#paint0_linear_64_1892)"/>
<rect x="2" y="1.98901" width="38" height="20" rx="10" stroke="#003DBD" stroke-width="3" stroke-linejoin="round"/>
<path d="M10.2129 15.989V7.39917H11.9004L15.416 13.1355V7.39917H17.0273V15.989H15.2871L11.8242 10.3875V15.989H10.2129ZM18.4277 13.1941L20.1152 13.03C20.2168 13.5964 20.4219 14.0125 20.7305 14.2781C21.043 14.5437 21.4629 14.6765 21.9902 14.6765C22.5488 14.6765 22.9688 14.5593 23.25 14.325C23.5352 14.0867 23.6777 13.8093 23.6777 13.4929C23.6777 13.2898 23.6172 13.1179 23.4961 12.9773C23.3789 12.8328 23.1719 12.7078 22.875 12.6023C22.6719 12.532 22.209 12.407 21.4863 12.2273C20.5566 11.9968 19.9043 11.7136 19.5293 11.3777C19.002 10.905 18.7383 10.3289 18.7383 9.64917C18.7383 9.21167 18.8613 8.80347 19.1074 8.42456C19.3574 8.04175 19.7148 7.75073 20.1797 7.55151C20.6484 7.35229 21.2129 7.25269 21.873 7.25269C22.9512 7.25269 23.7617 7.48901 24.3047 7.96167C24.8516 8.43433 25.1387 9.06519 25.166 9.85425L23.4316 9.93042C23.3574 9.48901 23.1973 9.17261 22.9512 8.9812C22.709 8.78589 22.3438 8.68823 21.8555 8.68823C21.3516 8.68823 20.957 8.79175 20.6719 8.99878C20.4883 9.13159 20.3965 9.30933 20.3965 9.53198C20.3965 9.73511 20.4824 9.90894 20.6543 10.0535C20.873 10.2371 21.4043 10.4285 22.248 10.6277C23.0918 10.8269 23.7148 11.0339 24.1172 11.2488C24.5234 11.4597 24.8398 11.7507 25.0664 12.1218C25.2969 12.489 25.4121 12.9441 25.4121 13.4871C25.4121 13.9792 25.2754 14.4402 25.002 14.8699C24.7285 15.2996 24.3418 15.6199 23.8418 15.8308C23.3418 16.0378 22.7188 16.1414 21.9727 16.1414C20.8867 16.1414 20.0527 15.8914 19.4707 15.3914C18.8887 14.8875 18.541 14.155 18.4277 13.1941ZM26.4492 13.7097L28.043 13.5164C28.0938 13.9226 28.2305 14.2332 28.4531 14.448C28.6758 14.6628 28.9453 14.7703 29.2617 14.7703C29.6016 14.7703 29.8867 14.6414 30.1172 14.3835C30.3516 14.1257 30.4688 13.7781 30.4688 13.3406C30.4688 12.9265 30.3574 12.5984 30.1348 12.3562C29.9121 12.114 29.6406 11.9929 29.3203 11.9929C29.1094 11.9929 28.8574 12.0339 28.5645 12.116L28.7461 10.7742C29.1914 10.7859 29.5312 10.6902 29.7656 10.4871C30 10.28 30.1172 10.0066 30.1172 9.66675C30.1172 9.37769 30.0312 9.14722 29.8594 8.97534C29.6875 8.80347 29.459 8.71753 29.1738 8.71753C28.8926 8.71753 28.6523 8.81519 28.4531 9.0105C28.2539 9.20581 28.1328 9.49097 28.0898 9.86597L26.5723 9.60815C26.6777 9.08862 26.8359 8.67456 27.0469 8.36597C27.2617 8.05347 27.5586 7.80933 27.9375 7.63354C28.3203 7.45386 28.748 7.36401 29.2207 7.36401C30.0293 7.36401 30.6777 7.62183 31.166 8.13745C31.5684 8.55933 31.7695 9.03589 31.7695 9.56714C31.7695 10.321 31.3574 10.9226 30.5332 11.3718C31.0254 11.4773 31.418 11.7136 31.7109 12.0808C32.0078 12.448 32.1562 12.8914 32.1562 13.4109C32.1562 14.1648 31.8809 14.8074 31.3301 15.3386C30.7793 15.8699 30.0938 16.1355 29.2734 16.1355C28.4961 16.1355 27.8516 15.9128 27.3398 15.4675C26.8281 15.0183 26.5312 14.4324 26.4492 13.7097Z" fill="white"/>
<defs>
<linearGradient id="paint0_linear_64_1892" x1="21" y1="1.98901" x2="21" y2="21.989" gradientUnits="userSpaceOnUse">
<stop stop-color="#A2CFCC"/>
<stop offset="1" stop-color="#003DBD"/>
</linearGradient>
</defs>
</svg>
