<svg width="69" height="24" viewBox="0 0 69 24" fill="none" xmlns="http://www.w3.org/2000/svg">
<rect x="1" y="1.98901" width="67" height="20" rx="10" fill="url(#paint0_linear_64_1966)"/>
<rect x="1" y="1.98901" width="67" height="20" rx="10" stroke="#2E5400" stroke-width="3" stroke-linejoin="round"/>
<path d="M9.35742 15.989V7.39917H12.1406C13.1953 7.39917 13.8828 7.44214 14.2031 7.52808C14.6953 7.65698 15.1074 7.93823 15.4395 8.37183C15.7715 8.80151 15.9375 9.35815 15.9375 10.0417C15.9375 10.5691 15.8418 11.0125 15.6504 11.3718C15.459 11.7312 15.2148 12.0144 14.918 12.2214C14.625 12.4246 14.3262 12.5593 14.0215 12.6257C13.6074 12.7078 13.0078 12.7488 12.2227 12.7488H11.0918V15.989H9.35742ZM11.0918 8.85229V11.2898H12.041C12.7246 11.2898 13.1816 11.2449 13.4121 11.155C13.6426 11.0652 13.8223 10.9246 13.9512 10.7332C14.084 10.5417 14.1504 10.3191 14.1504 10.0652C14.1504 9.75269 14.0586 9.49487 13.875 9.29175C13.6914 9.08862 13.459 8.96167 13.1777 8.91089C12.9707 8.87183 12.5547 8.85229 11.9297 8.85229H11.0918ZM17.3613 15.989V7.39917H23.7305V8.85229H19.0957V10.7566H23.4082V12.2039H19.0957V14.5417H23.8945V15.989H17.3613ZM25.3652 15.989V7.39917H28.1484C29.2031 7.39917 29.8906 7.44214 30.2109 7.52808C30.7031 7.65698 31.1152 7.93823 31.4473 8.37183C31.7793 8.80151 31.9453 9.35815 31.9453 10.0417C31.9453 10.5691 31.8496 11.0125 31.6582 11.3718C31.4668 11.7312 31.2227 12.0144 30.9258 12.2214C30.6328 12.4246 30.334 12.5593 30.0293 12.6257C29.6152 12.7078 29.0156 12.7488 28.2305 12.7488H27.0996V15.989H25.3652ZM27.0996 8.85229V11.2898H28.0488C28.7324 11.2898 29.1895 11.2449 29.4199 11.155C29.6504 11.0652 29.8301 10.9246 29.959 10.7332C30.0918 10.5417 30.1582 10.3191 30.1582 10.0652C30.1582 9.75269 30.0664 9.49487 29.8828 9.29175C29.6992 9.08862 29.4668 8.96167 29.1855 8.91089C28.9785 8.87183 28.5625 8.85229 27.9375 8.85229H27.0996ZM32.9297 13.1941L34.6172 13.03C34.7188 13.5964 34.9238 14.0125 35.2324 14.2781C35.5449 14.5437 35.9648 14.6765 36.4922 14.6765C37.0508 14.6765 37.4707 14.5593 37.752 14.325C38.0371 14.0867 38.1797 13.8093 38.1797 13.4929C38.1797 13.2898 38.1191 13.1179 37.998 12.9773C37.8809 12.8328 37.6738 12.7078 37.377 12.6023C37.1738 12.532 36.7109 12.407 35.9883 12.2273C35.0586 11.9968 34.4062 11.7136 34.0312 11.3777C33.5039 10.905 33.2402 10.3289 33.2402 9.64917C33.2402 9.21167 33.3633 8.80347 33.6094 8.42456C33.8594 8.04175 34.2168 7.75073 34.6816 7.55151C35.1504 7.35229 35.7148 7.25269 36.375 7.25269C37.4531 7.25269 38.2637 7.48901 38.8066 7.96167C39.3535 8.43433 39.6406 9.06519 39.668 9.85425L37.9336 9.93042C37.8594 9.48901 37.6992 9.17261 37.4531 8.9812C37.2109 8.78589 36.8457 8.68823 36.3574 8.68823C35.8535 8.68823 35.459 8.79175 35.1738 8.99878C34.9902 9.13159 34.8984 9.30933 34.8984 9.53198C34.8984 9.73511 34.9844 9.90894 35.1562 10.0535C35.375 10.2371 35.9062 10.4285 36.75 10.6277C37.5938 10.8269 38.2168 11.0339 38.6191 11.2488C39.0254 11.4597 39.3418 11.7507 39.5684 12.1218C39.7988 12.489 39.9141 12.9441 39.9141 13.4871C39.9141 13.9792 39.7773 14.4402 39.5039 14.8699C39.2305 15.2996 38.8438 15.6199 38.3438 15.8308C37.8438 16.0378 37.2207 16.1414 36.4746 16.1414C35.3887 16.1414 34.5547 15.8914 33.9727 15.3914C33.3906 14.8875 33.043 14.155 32.9297 13.1941ZM41.3203 15.989V7.39917H43.0547V15.989H41.3203ZM44.7305 15.989V7.39917H46.418L49.9336 13.1355V7.39917H51.5449V15.989H49.8047L46.3418 10.3875V15.989H44.7305ZM52.9453 13.1941L54.6328 13.03C54.7344 13.5964 54.9395 14.0125 55.248 14.2781C55.5605 14.5437 55.9805 14.6765 56.5078 14.6765C57.0664 14.6765 57.4863 14.5593 57.7676 14.325C58.0527 14.0867 58.1953 13.8093 58.1953 13.4929C58.1953 13.2898 58.1348 13.1179 58.0137 12.9773C57.8965 12.8328 57.6895 12.7078 57.3926 12.6023C57.1895 12.532 56.7266 12.407 56.0039 12.2273C55.0742 11.9968 54.4219 11.7136 54.0469 11.3777C53.5195 10.905 53.2559 10.3289 53.2559 9.64917C53.2559 9.21167 53.3789 8.80347 53.625 8.42456C53.875 8.04175 54.2324 7.75073 54.6973 7.55151C55.166 7.35229 55.7305 7.25269 56.3906 7.25269C57.4688 7.25269 58.2793 7.48901 58.8223 7.96167C59.3691 8.43433 59.6562 9.06519 59.6836 9.85425L57.9492 9.93042C57.875 9.48901 57.7148 9.17261 57.4688 8.9812C57.2266 8.78589 56.8613 8.68823 56.373 8.68823C55.8691 8.68823 55.4746 8.79175 55.1895 8.99878C55.0059 9.13159 54.9141 9.30933 54.9141 9.53198C54.9141 9.73511 55 9.90894 55.1719 10.0535C55.3906 10.2371 55.9219 10.4285 56.7656 10.6277C57.6094 10.8269 58.2324 11.0339 58.6348 11.2488C59.041 11.4597 59.3574 11.7507 59.584 12.1218C59.8145 12.489 59.9297 12.9441 59.9297 13.4871C59.9297 13.9792 59.793 14.4402 59.5195 14.8699C59.2461 15.2996 58.8594 15.6199 58.3594 15.8308C57.8594 16.0378 57.2363 16.1414 56.4902 16.1414C55.4043 16.1414 54.5703 15.8914 53.9883 15.3914C53.4062 14.8875 53.0586 14.155 52.9453 13.1941Z" fill="white"/>
<defs>
<linearGradient id="paint0_linear_64_1966" x1="34.5" y1="1.98901" x2="34.5" y2="21.989" gradientUnits="userSpaceOnUse">
<stop stop-color="#2E5400"/>
<stop offset="1" stop-color="#FFA000"/>
</linearGradient>
</defs>
</svg>
