<svg width="77" height="24" viewBox="0 0 77 24" fill="none" xmlns="http://www.w3.org/2000/svg">
<rect x="1" y="1.98901" width="75" height="20" rx="10" fill="url(#paint0_linear_67_1935)"/>
<rect x="1" y="1.98901" width="75" height="20" rx="10" stroke="#A81289" stroke-width="3" stroke-linejoin="round"/>
<path d="M8.57617 13.1941L10.2637 13.03C10.3652 13.5964 10.5703 14.0125 10.8789 14.2781C11.1914 14.5437 11.6113 14.6765 12.1387 14.6765C12.6973 14.6765 13.1172 14.5593 13.3984 14.325C13.6836 14.0867 13.8262 13.8093 13.8262 13.4929C13.8262 13.2898 13.7656 13.1179 13.6445 12.9773C13.5273 12.8328 13.3203 12.7078 13.0234 12.6023C12.8203 12.532 12.3574 12.407 11.6348 12.2273C10.7051 11.9968 10.0527 11.7136 9.67773 11.3777C9.15039 10.905 8.88672 10.3289 8.88672 9.64917C8.88672 9.21167 9.00977 8.80347 9.25586 8.42456C9.50586 8.04175 9.86328 7.75073 10.3281 7.55151C10.7969 7.35229 11.3613 7.25269 12.0215 7.25269C13.0996 7.25269 13.9102 7.48901 14.4531 7.96167C15 8.43433 15.2871 9.06519 15.3145 9.85425L13.5801 9.93042C13.5059 9.48901 13.3457 9.17261 13.0996 8.9812C12.8574 8.78589 12.4922 8.68823 12.0039 8.68823C11.5 8.68823 11.1055 8.79175 10.8203 8.99878C10.6367 9.13159 10.5449 9.30933 10.5449 9.53198C10.5449 9.73511 10.6309 9.90894 10.8027 10.0535C11.0215 10.2371 11.5527 10.4285 12.3965 10.6277C13.2402 10.8269 13.8633 11.0339 14.2656 11.2488C14.6719 11.4597 14.9883 11.7507 15.2148 12.1218C15.4453 12.489 15.5605 12.9441 15.5605 13.4871C15.5605 13.9792 15.4238 14.4402 15.1504 14.8699C14.877 15.2996 14.4902 15.6199 13.9902 15.8308C13.4902 16.0378 12.8672 16.1414 12.1211 16.1414C11.0352 16.1414 10.2012 15.8914 9.61914 15.3914C9.03711 14.8875 8.68945 14.155 8.57617 13.1941ZM17.0195 15.989V7.39917H23.3887V8.85229H18.7539V10.7566H23.0664V12.2039H18.7539V14.5417H23.5527V15.989H17.0195ZM25.0293 15.989V7.39917H28.6797C29.5977 7.39917 30.2637 7.47729 30.6777 7.63354C31.0957 7.78589 31.4297 8.05933 31.6797 8.45386C31.9297 8.84839 32.0547 9.29956 32.0547 9.80737C32.0547 10.4519 31.8652 10.9851 31.4863 11.407C31.1074 11.825 30.541 12.0886 29.7871 12.198C30.1621 12.4167 30.4707 12.657 30.7129 12.9187C30.959 13.1804 31.2891 13.6453 31.7031 14.3132L32.752 15.989H30.6777L29.4238 14.1199C28.9785 13.4519 28.6738 13.032 28.5098 12.8601C28.3457 12.6843 28.1719 12.5652 27.9883 12.5027C27.8047 12.4363 27.5137 12.4031 27.1152 12.4031H26.7637V15.989H25.0293ZM26.7637 11.032H28.0469C28.8789 11.032 29.3984 10.9968 29.6055 10.9265C29.8125 10.8562 29.9746 10.7351 30.0918 10.5632C30.209 10.3914 30.2676 10.1765 30.2676 9.9187C30.2676 9.62964 30.1895 9.39722 30.0332 9.22144C29.8809 9.04175 29.6641 8.92847 29.3828 8.88159C29.2422 8.86206 28.8203 8.85229 28.1172 8.85229H26.7637V11.032ZM33.6953 15.989V7.39917H36.4785C37.5332 7.39917 38.2207 7.44214 38.541 7.52808C39.0332 7.65698 39.4453 7.93823 39.7773 8.37183C40.1094 8.80151 40.2754 9.35815 40.2754 10.0417C40.2754 10.5691 40.1797 11.0125 39.9883 11.3718C39.7969 11.7312 39.5527 12.0144 39.2559 12.2214C38.9629 12.4246 38.6641 12.5593 38.3594 12.6257C37.9453 12.7078 37.3457 12.7488 36.5605 12.7488H35.4297V15.989H33.6953ZM35.4297 8.85229V11.2898H36.3789C37.0625 11.2898 37.5195 11.2449 37.75 11.155C37.9805 11.0652 38.1602 10.9246 38.2891 10.7332C38.4219 10.5417 38.4883 10.3191 38.4883 10.0652C38.4883 9.75269 38.3965 9.49487 38.2129 9.29175C38.0293 9.08862 37.7969 8.96167 37.5156 8.91089C37.3086 8.87183 36.8926 8.85229 36.2676 8.85229H35.4297ZM41.6465 15.989V7.39917H43.3809V15.989H41.6465ZM45.0566 15.989V7.39917H46.7441L50.2598 13.1355V7.39917H51.8711V15.989H50.1309L46.668 10.3875V15.989H45.0566ZM57.707 12.8308V11.3835H61.4453V14.8054C61.082 15.157 60.5547 15.4675 59.8633 15.7371C59.1758 16.0027 58.4785 16.1355 57.7715 16.1355C56.873 16.1355 56.0898 15.948 55.4219 15.573C54.7539 15.1941 54.252 14.655 53.916 13.9558C53.5801 13.2527 53.4121 12.489 53.4121 11.6648C53.4121 10.7703 53.5996 9.97534 53.9746 9.28003C54.3496 8.58472 54.8984 8.05151 55.6211 7.68042C56.1719 7.39526 56.8574 7.25269 57.6777 7.25269C58.7441 7.25269 59.5762 7.47729 60.1738 7.92651C60.7754 8.37183 61.1621 8.98901 61.334 9.77808L59.6113 10.1003C59.4902 9.67847 59.2617 9.34644 58.9258 9.10425C58.5938 8.85815 58.1777 8.73511 57.6777 8.73511C56.9199 8.73511 56.3164 8.97534 55.8672 9.45581C55.4219 9.93628 55.1992 10.6492 55.1992 11.5945C55.1992 12.614 55.4258 13.3796 55.8789 13.8914C56.332 14.3992 56.9258 14.6531 57.6602 14.6531C58.0234 14.6531 58.3867 14.5828 58.75 14.4421C59.1172 14.2976 59.4316 14.1238 59.6934 13.9207V12.8308H57.707ZM66.9004 15.989H65.2539V9.78394C64.6523 10.3464 63.9434 10.7625 63.127 11.032V9.53784C63.5566 9.39722 64.0234 9.13159 64.5273 8.74097C65.0312 8.34644 65.377 7.88745 65.5645 7.36401H66.9004V15.989Z" fill="white"/>
<defs>
<linearGradient id="paint0_linear_67_1935" x1="38.5" y1="1.98901" x2="38.5" y2="21.989" gradientUnits="userSpaceOnUse">
<stop stop-color="#A81289"/>
<stop offset="1" stop-color="#4D3600"/>
</linearGradient>
</defs>
</svg>
