<svg width="35" height="65" viewBox="0 0 35 65" fill="none" xmlns="http://www.w3.org/2000/svg">
<path d="M32.8346 64.0112C31.7301 64.0112 30.8346 63.1157 30.8346 62.0112V12.0112C30.8346 5.28223 30.358 4.01123 27.8346 4.01123C25.3112 4.01123 24.8346 5.28223 24.8346 12.0112V52.0112C24.8346 57.3579 24.8346 64.0112 17.8346 64.0112C10.8346 64.0112 10.8346 57.3579 10.8346 52.0112V42.0112C10.8346 35.2827 10.358 34.0112 7.83459 34.0112C5.31119 34.0112 4.83459 35.2827 4.83459 42.0112V62.0112C4.83459 63.1157 3.93909 64.0112 2.83459 64.0112C1.73009 64.0112 0.834595 63.1157 0.834595 62.0112V42.0112C0.834595 36.6645 0.834595 30.0112 7.83459 30.0112C14.8346 30.0112 14.8346 36.6645 14.8346 42.0112V52.0112C14.8346 58.7397 15.3112 60.0112 17.8346 60.0112C20.358 60.0112 20.8346 58.7397 20.8346 52.0112V12.0112C20.8346 6.66503 20.8346 0.0112305 27.8346 0.0112305C34.8346 0.0112305 34.8346 6.66503 34.8346 12.0112V62.0112C34.8346 63.1157 33.9391 64.0112 32.8346 64.0112Z" fill="url(#paint0_linear_92_5480)"/>
<defs>
<linearGradient id="paint0_linear_92_5480" x1="0.834595" y1="32.0112" x2="34.8346" y2="32.0112" gradientUnits="userSpaceOnUse">
<stop stop-color="#FF686C"/>
<stop offset="0.5" stop-color="#9436B3"/>
<stop offset="1" stop-color="#2187CC"/>
</linearGradient>
</defs>
</svg>
