<svg width="48" height="14" viewBox="0 0 48 14" fill="none" xmlns="http://www.w3.org/2000/svg">
<path d="M41.2986 12.1379H6.29858C3.54858 12.1379 1.29858 9.88794 1.29858 7.13794C1.29858 4.38794 3.54858 2.13794 6.29858 2.13794H41.2986C44.0486 2.13794 46.2986 4.38794 46.2986 7.13794C46.2986 9.88794 44.0486 12.1379 41.2986 12.1379Z" fill="#42ED2B"/>
<path d="M31.6481 0.645284C32.9205 0.663087 34.1929 0.686181 35.4652 0.715584C37.4097 0.760518 39.3542 0.820186 41.2985 0.898217C41.7863 0.910976 42.4077 1.00746 42.9003 1.16507C43.4174 1.32443 43.9095 1.55279 44.3604 1.83955C44.8112 2.1261 45.2207 2.47067 45.5767 2.85986C45.9328 3.24898 46.2356 3.68297 46.4755 4.14675C46.7155 4.61064 46.8922 5.10415 46.9996 5.60949C47.1058 6.09799 47.1481 6.66944 47.1147 7.13795C47.0878 7.60898 46.9857 8.16096 46.8254 8.61943C46.664 9.09376 46.4396 9.54128 46.163 9.94761C45.8867 10.3539 45.5586 10.7189 45.1926 11.0319C44.8265 11.345 44.4224 11.6064 43.9954 11.8081C43.5682 12.01 43.1185 12.1519 42.663 12.2303C42.2075 12.3089 41.7474 12.3236 41.2986 12.2779C41.2986 12.1846 41.2986 12.0912 41.2986 11.9979C41.7232 11.9524 42.1344 11.8527 42.5211 11.704C42.9079 11.5555 43.2695 11.3584 43.5967 11.1219C43.9238 10.8856 44.2164 10.6101 44.4671 10.3064C44.7178 10.0028 44.9266 9.67105 45.0883 9.3232C45.2502 8.97518 45.3647 8.61137 45.4303 8.24337C45.4972 7.85974 45.5095 7.54034 45.4824 7.13795C45.4492 6.73296 45.377 6.43308 45.2561 6.07947C45.1365 5.74247 44.9742 5.42466 44.7758 5.1342C44.5777 4.84385 44.3436 4.58109 44.0829 4.35358C43.8223 4.126 43.5351 3.93367 43.2317 3.78219C42.9282 3.63053 42.609 3.51988 42.2838 3.45234C41.9343 3.38276 41.6844 3.36479 41.2985 3.37775C39.3542 3.45578 37.4097 3.51544 35.4652 3.56038C34.1929 3.58978 32.9205 3.61288 31.6481 3.63068C30.976 3.63669 30.304 3.63877 29.6319 3.63765C27.6875 3.63438 25.743 3.6042 23.7986 3.56419C22.1901 3.5311 20.5816 3.49128 18.9732 3.45442C18.6372 3.44793 18.3012 3.44068 17.9653 3.43271C16.0208 3.38658 14.0764 3.31619 12.1319 3.22641C10.1876 3.13664 8.24328 3.02749 6.29894 2.9038C6.29884 2.90379 6.29867 2.90379 6.29862 2.90378C5.89388 2.88133 5.56836 2.90138 5.18542 2.97758C4.81721 3.05245 4.45621 3.17821 4.11533 3.35169C3.77459 3.52494 3.45428 3.74569 3.16714 4.00649C2.87994 4.26719 2.62587 4.56799 2.41583 4.89862C2.20559 5.22932 2.03962 5.58962 1.92542 5.96741C1.81036 6.35401 1.75043 6.71874 1.74087 7.13793C1.73442 7.55647 1.77848 7.9264 1.87966 8.3208C1.97998 8.70665 2.13421 9.07876 2.33631 9.42347C2.53818 9.76807 2.78769 10.085 3.07457 10.362C3.27204 10.5527 3.48712 10.7245 3.71582 10.8742C3.81924 10.9421 3.9256 11.0055 4.03411 11.064C4.38277 11.2521 4.75553 11.3903 5.13793 11.4745C5.53122 11.5597 5.88594 11.5867 6.29858 11.5661C8.24301 11.465 10.1875 11.3252 12.1319 11.1968C13.4044 11.1127 14.6769 11.0335 15.9494 10.9731C16.6214 10.9472 17.2933 10.9277 17.9653 10.9138C19.9097 10.8735 21.8541 10.8803 23.7986 10.916C25.4069 10.9455 27.0153 10.9949 28.6236 11.0537C28.9597 11.0661 29.2958 11.0793 29.6319 11.0934C31.5763 11.1749 33.5208 11.2853 35.4653 11.4332C37.4097 11.5812 39.3542 11.7666 41.2985 11.9979C41.2985 12.0912 41.2985 12.1846 41.2985 12.2779C39.3542 12.5092 37.4097 12.6946 35.4653 12.8425C33.5208 12.9904 31.5763 13.1009 29.6319 13.1824C29.2958 13.1964 28.9597 13.2097 28.6236 13.2221C27.0153 13.2809 25.4069 13.3302 23.7986 13.3598C21.8541 13.3955 19.9097 13.4023 17.9653 13.362C17.2933 13.3481 16.6214 13.3286 15.9494 13.3027C14.6769 13.2423 13.4044 13.1632 12.1319 13.0793C10.1875 12.9511 8.24299 12.8117 6.29862 12.7109C5.83769 12.6905 5.32089 12.6031 4.87198 12.4611C4.41192 12.3184 3.97324 12.1176 3.56744 11.8672C3.44113 11.7893 3.31776 11.7064 3.19805 11.6192C2.93362 11.4262 2.68635 11.2113 2.4592 10.9773C2.12925 10.6376 1.84181 10.2576 1.60564 9.84797C1.3693 9.43821 1.18452 8.99888 1.05797 8.54229C0.931996 8.0945 0.861634 7.59291 0.85546 7.13795C0.845757 6.68364 0.90038 6.17689 1.01259 5.72135C1.12537 5.25678 1.2985 4.80573 1.52676 4.38208C1.75483 3.95857 2.03773 3.56263 2.36737 3.20672C2.69692 2.85077 3.07342 2.53466 3.48684 2.26992C3.90034 2.00501 4.35069 1.79179 4.82481 1.63979C5.28401 1.48883 5.82981 1.39443 6.29858 1.37218C6.29871 1.37218 6.29882 1.37217 6.29894 1.37216C8.24326 1.24841 10.1876 1.13925 12.1319 1.04949C14.0764 0.959728 16.0208 0.889375 17.9653 0.843252C18.3012 0.835282 18.6372 0.828036 18.9732 0.821538C20.5816 0.784679 22.1901 0.744823 23.7986 0.711695C25.743 0.671647 27.6875 0.64143 29.6319 0.638222C30.304 0.637113 30.976 0.63923 31.6481 0.645284Z" fill="#32B220"/>
</svg>
