<svg width="73" height="24" viewBox="0 0 73 24" fill="none" xmlns="http://www.w3.org/2000/svg">
<rect x="1" y="1.98901" width="71" height="20" rx="10" fill="url(#paint0_linear_67_1813)"/>
<rect x="1" y="1.98901" width="71" height="20" rx="10" stroke="#6E1643" stroke-width="3" stroke-linejoin="round"/>
<path d="M9.35352 15.989V7.39917H12.1367C13.1914 7.39917 13.8789 7.44214 14.1992 7.52808C14.6914 7.65698 15.1035 7.93823 15.4355 8.37183C15.7676 8.80151 15.9336 9.35815 15.9336 10.0417C15.9336 10.5691 15.8379 11.0125 15.6465 11.3718C15.4551 11.7312 15.2109 12.0144 14.9141 12.2214C14.6211 12.4246 14.3223 12.5593 14.0176 12.6257C13.6035 12.7078 13.0039 12.7488 12.2188 12.7488H11.0879V15.989H9.35352ZM11.0879 8.85229V11.2898H12.0371C12.7207 11.2898 13.1777 11.2449 13.4082 11.155C13.6387 11.0652 13.8184 10.9246 13.9473 10.7332C14.0801 10.5417 14.1465 10.3191 14.1465 10.0652C14.1465 9.75269 14.0547 9.49487 13.8711 9.29175C13.6875 9.08862 13.4551 8.96167 13.1738 8.91089C12.9668 8.87183 12.5508 8.85229 11.9258 8.85229H11.0879ZM17.3633 15.989V7.39917H21.0137C21.9316 7.39917 22.5977 7.47729 23.0117 7.63354C23.4297 7.78589 23.7637 8.05933 24.0137 8.45386C24.2637 8.84839 24.3887 9.29956 24.3887 9.80737C24.3887 10.4519 24.1992 10.9851 23.8203 11.407C23.4414 11.825 22.875 12.0886 22.1211 12.198C22.4961 12.4167 22.8047 12.657 23.0469 12.9187C23.293 13.1804 23.623 13.6453 24.0371 14.3132L25.0859 15.989H23.0117L21.7578 14.1199C21.3125 13.4519 21.0078 13.032 20.8438 12.8601C20.6797 12.6843 20.5059 12.5652 20.3223 12.5027C20.1387 12.4363 19.8477 12.4031 19.4492 12.4031H19.0977V15.989H17.3633ZM19.0977 11.032H20.3809C21.2129 11.032 21.7324 10.9968 21.9395 10.9265C22.1465 10.8562 22.3086 10.7351 22.4258 10.5632C22.543 10.3914 22.6016 10.1765 22.6016 9.9187C22.6016 9.62964 22.5234 9.39722 22.3672 9.22144C22.2148 9.04175 21.998 8.92847 21.7168 8.88159C21.5762 8.86206 21.1543 8.85229 20.4512 8.85229H19.0977V11.032ZM25.6777 11.7468C25.6777 10.8718 25.8086 10.1375 26.0703 9.5437C26.2656 9.1062 26.5312 8.71362 26.8672 8.36597C27.207 8.01831 27.5781 7.7605 27.9805 7.59253C28.5156 7.36597 29.1328 7.25269 29.832 7.25269C31.0977 7.25269 32.1094 7.64526 32.8672 8.43042C33.6289 9.21558 34.0098 10.3074 34.0098 11.7058C34.0098 13.0925 33.6328 14.1785 32.8789 14.9636C32.125 15.7449 31.1172 16.1355 29.8555 16.1355C28.5781 16.1355 27.5625 15.7468 26.8086 14.9695C26.0547 14.1882 25.6777 13.114 25.6777 11.7468ZM27.4648 11.6882C27.4648 12.6609 27.6895 13.3992 28.1387 13.9031C28.5879 14.4031 29.1582 14.6531 29.8496 14.6531C30.541 14.6531 31.1074 14.405 31.5488 13.9089C31.9941 13.4089 32.2168 12.6609 32.2168 11.6648C32.2168 10.6804 32 9.94604 31.5664 9.46167C31.1367 8.97729 30.5645 8.73511 29.8496 8.73511C29.1348 8.73511 28.5586 8.9812 28.1211 9.47339C27.6836 9.96167 27.4648 10.7 27.4648 11.6882ZM35.3809 15.989V7.39917H41.2695V8.85229H37.1152V10.8855H40.7012V12.3386H37.1152V15.989H35.3809ZM42.6523 15.989V7.39917H44.3867V15.989H42.6523ZM46.0918 15.989V7.46948H47.8262V14.5417H52.1387V15.989H46.0918ZM53.3281 15.989V7.39917H55.0625V15.989H53.3281ZM56.7383 15.989V7.39917H58.4258L61.9414 13.1355V7.39917H63.5527V15.989H61.8125L58.3496 10.3875V15.989H56.7383Z" fill="white"/>
<defs>
<linearGradient id="paint0_linear_67_1813" x1="36.5" y1="1.98901" x2="36.5" y2="21.989" gradientUnits="userSpaceOnUse">
<stop stop-color="#E68561"/>
<stop offset="1" stop-color="#6E1643"/>
</linearGradient>
</defs>
</svg>
