<svg width="56" height="24" viewBox="0 0 56 24" fill="none" xmlns="http://www.w3.org/2000/svg">
<rect x="2" y="1.98901" width="53" height="20" rx="10" fill="url(#paint0_linear_46_4316)"/>
<rect x="2" y="1.98901" width="53" height="20" rx="10" stroke="#3DA045" stroke-width="3" stroke-linejoin="round"/>
<path d="M10.3652 15.989V7.39917H12.0996V10.78H15.498V7.39917H17.2324V15.989H15.498V12.2332H12.0996V15.989H10.3652ZM18.9785 15.989V7.39917H20.7129V15.989H18.9785ZM22.377 7.39917H25.8105C26.4902 7.39917 26.9961 7.42847 27.3281 7.48706C27.6641 7.54175 27.9629 7.65894 28.2246 7.83862C28.4902 8.01831 28.7109 8.25854 28.8867 8.55933C29.0625 8.8562 29.1504 9.19019 29.1504 9.56128C29.1504 9.96362 29.041 10.3328 28.8223 10.6687C28.6074 11.0046 28.3145 11.2566 27.9434 11.4246C28.4668 11.5769 28.8691 11.8367 29.1504 12.2039C29.4316 12.571 29.5723 13.0027 29.5723 13.4988C29.5723 13.8894 29.4805 14.2703 29.2969 14.6414C29.1172 15.0085 28.8691 15.3035 28.5527 15.5261C28.2402 15.7449 27.8535 15.8796 27.3926 15.9304C27.1035 15.9617 26.4062 15.9812 25.3008 15.989H22.377V7.39917ZM24.1113 8.82886V10.8152H25.248C25.9238 10.8152 26.3438 10.8054 26.5078 10.7859C26.8047 10.7507 27.0371 10.6492 27.2051 10.4812C27.377 10.3093 27.4629 10.0847 27.4629 9.80737C27.4629 9.54175 27.3887 9.3269 27.2402 9.16284C27.0957 8.99487 26.8789 8.89331 26.5898 8.85815C26.418 8.83862 25.9238 8.82886 25.1074 8.82886H24.1113ZM24.1113 12.2449V14.5417H25.7168C26.3418 14.5417 26.7383 14.5242 26.9062 14.489C27.1641 14.4421 27.373 14.3289 27.5332 14.1492C27.6973 13.9656 27.7793 13.7214 27.7793 13.4167C27.7793 13.1589 27.7168 12.9402 27.5918 12.7605C27.4668 12.5808 27.2852 12.45 27.0469 12.3679C26.8125 12.2859 26.3008 12.2449 25.5117 12.2449H24.1113ZM36.5391 12.8308L38.2207 13.364C37.9629 14.3015 37.5332 14.9988 36.9316 15.4558C36.334 15.9089 35.5742 16.1355 34.6523 16.1355C33.5117 16.1355 32.5742 15.7468 31.8398 14.9695C31.1055 14.1882 30.7383 13.1218 30.7383 11.7703C30.7383 10.3406 31.1074 9.2312 31.8457 8.44214C32.584 7.64917 33.5547 7.25269 34.7578 7.25269C35.8086 7.25269 36.6621 7.56323 37.3184 8.18433C37.709 8.55151 38.002 9.07886 38.1973 9.76636L36.4805 10.1765C36.3789 9.7312 36.166 9.37964 35.8418 9.12183C35.5215 8.86401 35.1309 8.73511 34.6699 8.73511C34.0332 8.73511 33.5156 8.96362 33.1172 9.42065C32.7227 9.87769 32.5254 10.6179 32.5254 11.6414C32.5254 12.7273 32.7207 13.5007 33.1113 13.9617C33.502 14.4226 34.0098 14.6531 34.6348 14.6531C35.0957 14.6531 35.4922 14.5066 35.8242 14.2136C36.1562 13.9207 36.3945 13.4597 36.5391 12.8308ZM39.7207 15.989V7.39917H41.4551V10.78H44.8535V7.39917H46.5879V15.989H44.8535V12.2332H41.4551V15.989H39.7207Z" fill="white"/>
<defs>
<linearGradient id="paint0_linear_46_4316" x1="28.5" y1="1.98901" x2="28.5" y2="21.989" gradientUnits="userSpaceOnUse">
<stop stop-color="#3DA045"/>
<stop offset="1" stop-color="#7D688B"/>
</linearGradient>
</defs>
</svg>
