<svg width="53" height="24" viewBox="0 0 53 24" fill="none" xmlns="http://www.w3.org/2000/svg">
<rect x="2" y="1.98901" width="50" height="20" rx="10" fill="url(#paint0_linear_67_1867)"/>
<rect x="2" y="1.98901" width="50" height="20" rx="10" stroke="#1C474A" stroke-width="3" stroke-linejoin="round"/>
<path d="M10.2012 15.989V7.39917H13.8516C14.7695 7.39917 15.4355 7.47729 15.8496 7.63354C16.2676 7.78589 16.6016 8.05933 16.8516 8.45386C17.1016 8.84839 17.2266 9.29956 17.2266 9.80737C17.2266 10.4519 17.0371 10.9851 16.6582 11.407C16.2793 11.825 15.7129 12.0886 14.959 12.198C15.334 12.4167 15.6426 12.657 15.8848 12.9187C16.1309 13.1804 16.4609 13.6453 16.875 14.3132L17.9238 15.989H15.8496L14.5957 14.1199C14.1504 13.4519 13.8457 13.032 13.6816 12.8601C13.5176 12.6843 13.3438 12.5652 13.1602 12.5027C12.9766 12.4363 12.6855 12.4031 12.2871 12.4031H11.9355V15.989H10.2012ZM11.9355 11.032H13.2188C14.0508 11.032 14.5703 10.9968 14.7773 10.9265C14.9844 10.8562 15.1465 10.7351 15.2637 10.5632C15.3809 10.3914 15.4395 10.1765 15.4395 9.9187C15.4395 9.62964 15.3613 9.39722 15.2051 9.22144C15.0527 9.04175 14.8359 8.92847 14.5547 8.88159C14.4141 8.86206 13.9922 8.85229 13.2891 8.85229H11.9355V11.032ZM18.873 15.989V7.39917H20.6074V10.78H24.0059V7.39917H25.7402V15.989H24.0059V12.2332H20.6074V15.989H18.873ZM27.1875 11.7468C27.1875 10.8718 27.3184 10.1375 27.5801 9.5437C27.7754 9.1062 28.041 8.71362 28.377 8.36597C28.7168 8.01831 29.0879 7.7605 29.4902 7.59253C30.0254 7.36597 30.6426 7.25269 31.3418 7.25269C32.6074 7.25269 33.6191 7.64526 34.377 8.43042C35.1387 9.21558 35.5195 10.3074 35.5195 11.7058C35.5195 13.0925 35.1426 14.1785 34.3887 14.9636C33.6348 15.7449 32.627 16.1355 31.3652 16.1355C30.0879 16.1355 29.0723 15.7468 28.3184 14.9695C27.5645 14.1882 27.1875 13.114 27.1875 11.7468ZM28.9746 11.6882C28.9746 12.6609 29.1992 13.3992 29.6484 13.9031C30.0977 14.4031 30.668 14.6531 31.3594 14.6531C32.0508 14.6531 32.6172 14.405 33.0586 13.9089C33.5039 13.4089 33.7266 12.6609 33.7266 11.6648C33.7266 10.6804 33.5098 9.94604 33.0762 9.46167C32.6465 8.97729 32.0742 8.73511 31.3594 8.73511C30.6445 8.73511 30.0684 8.9812 29.6309 9.47339C29.1934 9.96167 28.9746 10.7 28.9746 11.6882ZM36.8848 7.39917H40.3184C40.998 7.39917 41.5039 7.42847 41.8359 7.48706C42.1719 7.54175 42.4707 7.65894 42.7324 7.83862C42.998 8.01831 43.2188 8.25854 43.3945 8.55933C43.5703 8.8562 43.6582 9.19019 43.6582 9.56128C43.6582 9.96362 43.5488 10.3328 43.3301 10.6687C43.1152 11.0046 42.8223 11.2566 42.4512 11.4246C42.9746 11.5769 43.377 11.8367 43.6582 12.2039C43.9395 12.571 44.0801 13.0027 44.0801 13.4988C44.0801 13.8894 43.9883 14.2703 43.8047 14.6414C43.625 15.0085 43.377 15.3035 43.0605 15.5261C42.748 15.7449 42.3613 15.8796 41.9004 15.9304C41.6113 15.9617 40.9141 15.9812 39.8086 15.989H36.8848V7.39917ZM38.6191 8.82886V10.8152H39.7559C40.4316 10.8152 40.8516 10.8054 41.0156 10.7859C41.3125 10.7507 41.5449 10.6492 41.7129 10.4812C41.8848 10.3093 41.9707 10.0847 41.9707 9.80737C41.9707 9.54175 41.8965 9.3269 41.748 9.16284C41.6035 8.99487 41.3867 8.89331 41.0977 8.85815C40.9258 8.83862 40.4316 8.82886 39.6152 8.82886H38.6191ZM38.6191 12.2449V14.5417H40.2246C40.8496 14.5417 41.2461 14.5242 41.4141 14.489C41.6719 14.4421 41.8809 14.3289 42.041 14.1492C42.2051 13.9656 42.2871 13.7214 42.2871 13.4167C42.2871 13.1589 42.2246 12.9402 42.0996 12.7605C41.9746 12.5808 41.793 12.45 41.5547 12.3679C41.3203 12.2859 40.8086 12.2449 40.0195 12.2449H38.6191Z" fill="white"/>
<defs>
<linearGradient id="paint0_linear_67_1867" x1="27" y1="1.98901" x2="27" y2="21.989" gradientUnits="userSpaceOnUse">
<stop stop-color="#1C474A"/>
<stop offset="1" stop-color="#E3D22D"/>
</linearGradient>
</defs>
</svg>
