<svg width="59" height="24" viewBox="0 0 59 24" fill="none" xmlns="http://www.w3.org/2000/svg">
<rect x="2" y="1.98901" width="56" height="20" rx="10" fill="url(#paint0_linear_97_5790)"/>
<rect x="2" y="1.98901" width="56" height="20" rx="10" stroke="#005EB6" stroke-width="3" stroke-linejoin="round"/>
<path d="M10.1953 15.989V7.39917H11.9297V10.78H15.3281V7.39917H17.0625V15.989H15.3281V12.2332H11.9297V15.989H10.1953ZM18.8555 7.39917H22.0254C22.7402 7.39917 23.2852 7.45386 23.6602 7.56323C24.1641 7.71167 24.5957 7.97534 24.9551 8.35425C25.3145 8.73315 25.5879 9.198 25.7754 9.74878C25.9629 10.2957 26.0566 10.9714 26.0566 11.7761C26.0566 12.4832 25.9688 13.0925 25.793 13.6042C25.5781 14.2292 25.2715 14.7351 24.873 15.1218C24.5723 15.4148 24.166 15.6433 23.6543 15.8074C23.2715 15.9285 22.7598 15.989 22.1191 15.989H18.8555V7.39917ZM20.5898 8.85229V14.5417H21.8848C22.3691 14.5417 22.7188 14.5144 22.9336 14.4597C23.2148 14.3894 23.4473 14.2703 23.6309 14.1023C23.8184 13.9343 23.9707 13.6589 24.0879 13.2761C24.2051 12.8894 24.2637 12.364 24.2637 11.7C24.2637 11.0359 24.2051 10.5261 24.0879 10.1707C23.9707 9.81519 23.8066 9.53784 23.5957 9.33862C23.3848 9.1394 23.1172 9.00464 22.793 8.93433C22.5508 8.87964 22.0762 8.85229 21.3691 8.85229H20.5898ZM35.2793 15.989H33.3926L32.6426 14.0378H29.209L28.5 15.989H26.6602L30.0059 7.39917H31.8398L35.2793 15.989ZM32.0859 12.5906L30.9023 9.40308L29.7422 12.5906H32.0859ZM41.7012 12.8308L43.3828 13.364C43.125 14.3015 42.6953 14.9988 42.0938 15.4558C41.4961 15.9089 40.7363 16.1355 39.8145 16.1355C38.6738 16.1355 37.7363 15.7468 37.002 14.9695C36.2676 14.1882 35.9004 13.1218 35.9004 11.7703C35.9004 10.3406 36.2695 9.2312 37.0078 8.44214C37.7461 7.64917 38.7168 7.25269 39.9199 7.25269C40.9707 7.25269 41.8242 7.56323 42.4805 8.18433C42.8711 8.55151 43.1641 9.07886 43.3594 9.76636L41.6426 10.1765C41.541 9.7312 41.3281 9.37964 41.0039 9.12183C40.6836 8.86401 40.293 8.73511 39.832 8.73511C39.1953 8.73511 38.6777 8.96362 38.2793 9.42065C37.8848 9.87769 37.6875 10.6179 37.6875 11.6414C37.6875 12.7273 37.8828 13.5007 38.2734 13.9617C38.6641 14.4226 39.1719 14.6531 39.7969 14.6531C40.2578 14.6531 40.6543 14.5066 40.9863 14.2136C41.3184 13.9207 41.5566 13.4597 41.7012 12.8308ZM44.4551 13.7097L46.0488 13.5164C46.0996 13.9226 46.2363 14.2332 46.459 14.448C46.6816 14.6628 46.9512 14.7703 47.2676 14.7703C47.6074 14.7703 47.8926 14.6414 48.123 14.3835C48.3574 14.1257 48.4746 13.7781 48.4746 13.3406C48.4746 12.9265 48.3633 12.5984 48.1406 12.3562C47.918 12.114 47.6465 11.9929 47.3262 11.9929C47.1152 11.9929 46.8633 12.0339 46.5703 12.116L46.752 10.7742C47.1973 10.7859 47.5371 10.6902 47.7715 10.4871C48.0059 10.28 48.123 10.0066 48.123 9.66675C48.123 9.37769 48.0371 9.14722 47.8652 8.97534C47.6934 8.80347 47.4648 8.71753 47.1797 8.71753C46.8984 8.71753 46.6582 8.81519 46.459 9.0105C46.2598 9.20581 46.1387 9.49097 46.0957 9.86597L44.5781 9.60815C44.6836 9.08862 44.8418 8.67456 45.0527 8.36597C45.2676 8.05347 45.5645 7.80933 45.9434 7.63354C46.3262 7.45386 46.7539 7.36401 47.2266 7.36401C48.0352 7.36401 48.6836 7.62183 49.1719 8.13745C49.5742 8.55933 49.7754 9.03589 49.7754 9.56714C49.7754 10.321 49.3633 10.9226 48.5391 11.3718C49.0312 11.4773 49.4238 11.7136 49.7168 12.0808C50.0137 12.448 50.1621 12.8914 50.1621 13.4109C50.1621 14.1648 49.8867 14.8074 49.3359 15.3386C48.7852 15.8699 48.0996 16.1355 47.2793 16.1355C46.502 16.1355 45.8574 15.9128 45.3457 15.4675C44.834 15.0183 44.5371 14.4324 44.4551 13.7097Z" fill="white"/>
<defs>
<linearGradient id="paint0_linear_97_5790" x1="30" y1="1.98901" x2="30" y2="21.989" gradientUnits="userSpaceOnUse">
<stop stop-color="#005EB6"/>
<stop offset="1" stop-color="#FF0071"/>
</linearGradient>
</defs>
</svg>
