<svg width="58" height="24" viewBox="0 0 58 24" fill="none" xmlns="http://www.w3.org/2000/svg">
<rect x="2" y="1.98901" width="55" height="20" rx="10" fill="url(#paint0_linear_85_2089)"/>
<rect x="2" y="1.98901" width="55" height="20" rx="10" stroke="#C24E00" stroke-width="3" stroke-linejoin="round"/>
<path d="M12.332 15.989L9.26172 7.39917H11.1426L13.3164 13.7566L15.4199 7.39917H17.2598L14.1836 15.989H12.332ZM25 15.989H23.1133L22.3633 14.0378H18.9297L18.2207 15.989H16.3809L19.7266 7.39917H21.5605L25 15.989ZM21.8066 12.5906L20.623 9.40308L19.4629 12.5906H21.8066ZM25.9023 15.989V7.39917H28.498L30.0566 13.2585L31.5977 7.39917H34.1992V15.989H32.5879V9.22729L30.8828 15.989H29.2129L27.5137 9.22729V15.989H25.9023ZM35.9219 15.989V7.39917H38.7051C39.7598 7.39917 40.4473 7.44214 40.7676 7.52808C41.2598 7.65698 41.6719 7.93823 42.0039 8.37183C42.3359 8.80151 42.502 9.35815 42.502 10.0417C42.502 10.5691 42.4062 11.0125 42.2148 11.3718C42.0234 11.7312 41.7793 12.0144 41.4824 12.2214C41.1895 12.4246 40.8906 12.5593 40.5859 12.6257C40.1719 12.7078 39.5723 12.7488 38.7871 12.7488H37.6562V15.989H35.9219ZM37.6562 8.85229V11.2898H38.6055C39.2891 11.2898 39.7461 11.2449 39.9766 11.155C40.207 11.0652 40.3867 10.9246 40.5156 10.7332C40.6484 10.5417 40.7148 10.3191 40.7148 10.0652C40.7148 9.75269 40.623 9.49487 40.4395 9.29175C40.2559 9.08862 40.0234 8.96167 39.7422 8.91089C39.5352 8.87183 39.1191 8.85229 38.4941 8.85229H37.6562ZM49.123 14.4597V15.989H43.3516C43.4141 15.4109 43.6016 14.864 43.9141 14.3484C44.2266 13.8289 44.8438 13.1414 45.7656 12.2859C46.5078 11.5945 46.9629 11.1257 47.1309 10.8796C47.3574 10.5398 47.4707 10.2039 47.4707 9.87183C47.4707 9.50464 47.3711 9.22339 47.1719 9.02808C46.9766 8.82886 46.7051 8.72925 46.3574 8.72925C46.0137 8.72925 45.7402 8.83276 45.5371 9.03979C45.334 9.24683 45.2168 9.59058 45.1855 10.071L43.5449 9.90698C43.6426 9.00073 43.9492 8.35034 44.4648 7.95581C44.9805 7.56128 45.625 7.36401 46.3984 7.36401C47.2461 7.36401 47.9121 7.59253 48.3965 8.04956C48.8809 8.50659 49.123 9.07495 49.123 9.75464C49.123 10.1414 49.0527 10.5105 48.9121 10.8621C48.7754 11.2097 48.5566 11.575 48.2559 11.9578C48.0566 12.2117 47.6973 12.5769 47.1777 13.0535C46.6582 13.53 46.3281 13.8464 46.1875 14.0027C46.0508 14.1589 45.9395 14.3113 45.8535 14.4597H49.123Z" fill="white"/>
<defs>
<linearGradient id="paint0_linear_85_2089" x1="29.5" y1="1.98901" x2="29.5" y2="21.989" gradientUnits="userSpaceOnUse">
<stop stop-color="#C24E00"/>
<stop offset="1" stop-color="#DD9743"/>
</linearGradient>
</defs>
</svg>
