<svg width="73" height="24" viewBox="0 0 73 24" fill="none" xmlns="http://www.w3.org/2000/svg">
<rect x="1" y="1.98901" width="71" height="20" rx="10" fill="url(#paint0_linear_66_2009)"/>
<rect x="1" y="1.98901" width="71" height="20" rx="10" stroke="#9C0F6A" stroke-width="3" stroke-linejoin="round"/>
<path d="M9.29492 9.76636H10.8301V10.6804C11.0293 10.3679 11.2988 10.114 11.6387 9.9187C11.9785 9.72339 12.3555 9.62573 12.7695 9.62573C13.4922 9.62573 14.1055 9.90894 14.6094 10.4753C15.1133 11.0417 15.3652 11.8308 15.3652 12.8425C15.3652 13.8816 15.1113 14.6902 14.6035 15.2683C14.0957 15.8425 13.4805 16.1296 12.7578 16.1296C12.4141 16.1296 12.1016 16.0613 11.8203 15.9246C11.543 15.7878 11.25 15.5535 10.9414 15.2214V18.3562H9.29492V9.76636ZM10.9238 12.7722C10.9238 13.4714 11.0625 13.989 11.3398 14.325C11.6172 14.657 11.9551 14.823 12.3535 14.823C12.7363 14.823 13.0547 14.6707 13.3086 14.366C13.5625 14.0574 13.6895 13.5535 13.6895 12.8542C13.6895 12.2019 13.5586 11.7175 13.2969 11.4011C13.0352 11.0847 12.7109 10.9265 12.3242 10.9265C11.9219 10.9265 11.5879 11.0828 11.3223 11.3953C11.0566 11.7039 10.9238 12.1628 10.9238 12.7722ZM18.2539 15.989H16.6074V9.76636H18.1367V10.6511C18.3984 10.2332 18.6328 9.95776 18.8398 9.82495C19.0508 9.69214 19.2891 9.62573 19.5547 9.62573C19.9297 9.62573 20.291 9.72925 20.6387 9.93628L20.1289 11.3718C19.8516 11.1921 19.5938 11.1023 19.3555 11.1023C19.125 11.1023 18.9297 11.1667 18.7695 11.2957C18.6094 11.4207 18.4824 11.6492 18.3887 11.9812C18.2988 12.3132 18.2539 13.0085 18.2539 14.0671V15.989ZM24.957 14.0085L26.5977 14.2839C26.3867 14.8855 26.0527 15.3445 25.5957 15.6609C25.1426 15.9734 24.5742 16.1296 23.8906 16.1296C22.8086 16.1296 22.0078 15.7761 21.4883 15.0691C21.0781 14.5027 20.873 13.7878 20.873 12.9246C20.873 11.8933 21.1426 11.0867 21.6816 10.5046C22.2207 9.9187 22.9023 9.62573 23.7266 9.62573C24.6523 9.62573 25.3828 9.93237 25.918 10.5457C26.4531 11.155 26.709 12.0906 26.6855 13.3523H22.5605C22.5723 13.8406 22.7051 14.2214 22.959 14.4949C23.2129 14.7644 23.5293 14.8992 23.9082 14.8992C24.166 14.8992 24.3828 14.8289 24.5586 14.6882C24.7344 14.5476 24.8672 14.321 24.957 14.0085ZM25.0508 12.3445C25.0391 11.8679 24.916 11.5066 24.6816 11.2605C24.4473 11.0105 24.1621 10.8855 23.8262 10.8855C23.4668 10.8855 23.1699 11.0164 22.9355 11.2781C22.7012 11.5398 22.5859 11.8953 22.5898 12.3445H25.0508ZM27.8457 13.698V12.0515H31.0801V13.698H27.8457ZM32.0469 7.39917H35.4805C36.1602 7.39917 36.666 7.42847 36.998 7.48706C37.334 7.54175 37.6328 7.65894 37.8945 7.83862C38.1602 8.01831 38.3809 8.25854 38.5566 8.55933C38.7324 8.8562 38.8203 9.19019 38.8203 9.56128C38.8203 9.96362 38.7109 10.3328 38.4922 10.6687C38.2773 11.0046 37.9844 11.2566 37.6133 11.4246C38.1367 11.5769 38.5391 11.8367 38.8203 12.2039C39.1016 12.571 39.2422 13.0027 39.2422 13.4988C39.2422 13.8894 39.1504 14.2703 38.9668 14.6414C38.7871 15.0085 38.5391 15.3035 38.2227 15.5261C37.9102 15.7449 37.5234 15.8796 37.0625 15.9304C36.7734 15.9617 36.0762 15.9812 34.9707 15.989H32.0469V7.39917ZM33.7812 8.82886V10.8152H34.918C35.5938 10.8152 36.0137 10.8054 36.1777 10.7859C36.4746 10.7507 36.707 10.6492 36.875 10.4812C37.0469 10.3093 37.1328 10.0847 37.1328 9.80737C37.1328 9.54175 37.0586 9.3269 36.9102 9.16284C36.7656 8.99487 36.5488 8.89331 36.2598 8.85815C36.0879 8.83862 35.5938 8.82886 34.7773 8.82886H33.7812ZM33.7812 12.2449V14.5417H35.3867C36.0117 14.5417 36.4082 14.5242 36.5762 14.489C36.834 14.4421 37.043 14.3289 37.2031 14.1492C37.3672 13.9656 37.4492 13.7214 37.4492 13.4167C37.4492 13.1589 37.3867 12.9402 37.2617 12.7605C37.1367 12.5808 36.9551 12.45 36.7168 12.3679C36.4824 12.2859 35.9707 12.2449 35.1816 12.2449H33.7812ZM40.707 7.39917H43.877C44.5918 7.39917 45.1367 7.45386 45.5117 7.56323C46.0156 7.71167 46.4473 7.97534 46.8066 8.35425C47.166 8.73315 47.4395 9.198 47.627 9.74878C47.8145 10.2957 47.9082 10.9714 47.9082 11.7761C47.9082 12.4832 47.8203 13.0925 47.6445 13.6042C47.4297 14.2292 47.123 14.7351 46.7246 15.1218C46.4238 15.4148 46.0176 15.6433 45.5059 15.8074C45.123 15.9285 44.6113 15.989 43.9707 15.989H40.707V7.39917ZM42.4414 8.85229V14.5417H43.7363C44.2207 14.5417 44.5703 14.5144 44.7852 14.4597C45.0664 14.3894 45.2988 14.2703 45.4824 14.1023C45.6699 13.9343 45.8223 13.6589 45.9395 13.2761C46.0566 12.8894 46.1152 12.364 46.1152 11.7C46.1152 11.0359 46.0566 10.5261 45.9395 10.1707C45.8223 9.81519 45.6582 9.53784 45.4473 9.33862C45.2363 9.1394 44.9688 9.00464 44.6445 8.93433C44.4023 8.87964 43.9277 8.85229 43.2207 8.85229H42.4414ZM49.4023 15.989V7.39917H51.0898L54.6055 13.1355V7.39917H56.2168V15.989H54.4766L51.0137 10.3875V15.989H49.4023ZM58.0684 15.989V7.39917H63.957V8.85229H59.8027V10.8855H63.3887V12.3386H59.8027V15.989H58.0684Z" fill="white"/>
<defs>
<linearGradient id="paint0_linear_66_2009" x1="36.5" y1="1.98901" x2="36.5" y2="21.989" gradientUnits="userSpaceOnUse">
<stop stop-color="#FFA5DF"/>
<stop offset="1" stop-color="#9C0F6A"/>
</linearGradient>
</defs>
</svg>
