<svg width="50" height="24" viewBox="0 0 50 24" fill="none" xmlns="http://www.w3.org/2000/svg">
<rect x="2" y="1.98901" width="47" height="20" rx="10" fill="url(#paint0_linear_42_2600)"/>
<rect x="2" y="1.98901" width="47" height="20" rx="10" stroke="#C27C67" stroke-width="3" stroke-linejoin="round"/>
<path d="M10.3535 7.39917H13.5234C14.2383 7.39917 14.7832 7.45386 15.1582 7.56323C15.6621 7.71167 16.0938 7.97534 16.4531 8.35425C16.8125 8.73315 17.0859 9.198 17.2734 9.74878C17.4609 10.2957 17.5547 10.9714 17.5547 11.7761C17.5547 12.4832 17.4668 13.0925 17.291 13.6042C17.0762 14.2292 16.7695 14.7351 16.3711 15.1218C16.0703 15.4148 15.6641 15.6433 15.1523 15.8074C14.7695 15.9285 14.2578 15.989 13.6172 15.989H10.3535V7.39917ZM12.0879 8.85229V14.5417H13.3828C13.8672 14.5417 14.2168 14.5144 14.4316 14.4597C14.7129 14.3894 14.9453 14.2703 15.1289 14.1023C15.3164 13.9343 15.4688 13.6589 15.5859 13.2761C15.7031 12.8894 15.7617 12.364 15.7617 11.7C15.7617 11.0359 15.7031 10.5261 15.5859 10.1707C15.4688 9.81519 15.3047 9.53784 15.0938 9.33862C14.8828 9.1394 14.6152 9.00464 14.291 8.93433C14.0488 8.87964 13.5742 8.85229 12.8672 8.85229H12.0879ZM19.0195 7.39917H20.7539V12.0515C20.7539 12.7898 20.7754 13.2683 20.8184 13.4871C20.8926 13.8386 21.0684 14.1218 21.3457 14.3367C21.627 14.5476 22.0098 14.6531 22.4941 14.6531C22.9863 14.6531 23.3574 14.5535 23.6074 14.3542C23.8574 14.1511 24.0078 13.9031 24.0586 13.6101C24.1094 13.3171 24.1348 12.8308 24.1348 12.1511V7.39917H25.8691V11.9109C25.8691 12.9421 25.8223 13.6707 25.7285 14.0964C25.6348 14.5222 25.4609 14.8816 25.207 15.1746C24.957 15.4675 24.6211 15.7019 24.1992 15.8777C23.7773 16.0496 23.2266 16.1355 22.5469 16.1355C21.7266 16.1355 21.1035 16.0417 20.6777 15.8542C20.2559 15.6628 19.9219 15.4167 19.6758 15.116C19.4297 14.8113 19.2676 14.4929 19.1895 14.1609C19.0762 13.6687 19.0195 12.9421 19.0195 11.9812V7.39917ZM26.8301 15.989L29.7656 11.5066L27.1055 7.39917H29.1328L30.8555 10.1589L32.543 7.39917H34.5527L31.8809 11.571L34.8164 15.989H32.7246L30.8203 13.0183L28.9102 15.989H26.8301ZM38.5723 15.989V14.2605H35.0566V12.8191L38.7832 7.36401H40.166V12.8132H41.2324V14.2605H40.166V15.989H38.5723ZM38.5723 12.8132V9.87769L36.5977 12.8132H38.5723Z" fill="white"/>
<defs>
<linearGradient id="paint0_linear_42_2600" x1="25.5" y1="1.98901" x2="25.5" y2="21.989" gradientUnits="userSpaceOnUse">
<stop stop-color="#C27C67"/>
<stop offset="1" stop-color="#A9F2C3"/>
</linearGradient>
</defs>
</svg>
