<svg width="42" height="24" viewBox="0 0 42 24" fill="none" xmlns="http://www.w3.org/2000/svg">
<rect x="2" y="1.98901" width="39" height="20" rx="10" fill="url(#paint0_linear_42_2590)"/>
<rect x="2" y="1.98901" width="39" height="20" rx="10" stroke="#8BC9D0" stroke-width="3" stroke-linejoin="round"/>
<path d="M13.9473 14.0085L15.5879 14.2839C15.377 14.8855 15.043 15.3445 14.5859 15.6609C14.1328 15.9734 13.5645 16.1296 12.8809 16.1296C11.7988 16.1296 10.998 15.7761 10.4785 15.0691C10.0684 14.5027 9.86328 13.7878 9.86328 12.9246C9.86328 11.8933 10.1328 11.0867 10.6719 10.5046C11.2109 9.9187 11.8926 9.62573 12.7168 9.62573C13.6426 9.62573 14.373 9.93237 14.9082 10.5457C15.4434 11.155 15.6992 12.0906 15.6758 13.3523H11.5508C11.5625 13.8406 11.6953 14.2214 11.9492 14.4949C12.2031 14.7644 12.5195 14.8992 12.8984 14.8992C13.1562 14.8992 13.373 14.8289 13.5488 14.6882C13.7246 14.5476 13.8574 14.321 13.9473 14.0085ZM14.041 12.3445C14.0293 11.8679 13.9062 11.5066 13.6719 11.2605C13.4375 11.0105 13.1523 10.8855 12.8164 10.8855C12.457 10.8855 12.1602 11.0164 11.9258 11.2781C11.6914 11.5398 11.5762 11.8953 11.5801 12.3445H14.041ZM16.9824 15.989V7.39917H18.7168V15.989H16.9824ZM20.3867 15.989V7.39917H26.2754V8.85229H22.1211V10.8855H25.707V12.3386H22.1211V15.989H20.3867ZM31.5605 15.989H29.9141V9.78394C29.3125 10.3464 28.6035 10.7625 27.7871 11.032V9.53784C28.2168 9.39722 28.6836 9.13159 29.1875 8.74097C29.6914 8.34644 30.0371 7.88745 30.2246 7.36401H31.5605V15.989Z" fill="white"/>
<defs>
<linearGradient id="paint0_linear_42_2590" x1="21.5" y1="1.98901" x2="21.5" y2="21.989" gradientUnits="userSpaceOnUse">
<stop stop-color="#8BC9D0"/>
<stop offset="1" stop-color="#C98500"/>
</linearGradient>
</defs>
</svg>
