<svg width="55" height="24" viewBox="0 0 55 24" fill="none" xmlns="http://www.w3.org/2000/svg">
<rect x="2" y="1.98901" width="52" height="20" rx="10" fill="url(#paint0_linear_42_2593)"/>
<rect x="2" y="1.98901" width="52" height="20" rx="10" stroke="#007FD0" stroke-width="3" stroke-linejoin="round"/>
<path d="M13.7793 14.0085L15.4199 14.2839C15.209 14.8855 14.875 15.3445 14.418 15.6609C13.9648 15.9734 13.3965 16.1296 12.7129 16.1296C11.6309 16.1296 10.8301 15.7761 10.3105 15.0691C9.90039 14.5027 9.69531 13.7878 9.69531 12.9246C9.69531 11.8933 9.96484 11.0867 10.5039 10.5046C11.043 9.9187 11.7246 9.62573 12.5488 9.62573C13.4746 9.62573 14.2051 9.93237 14.7402 10.5457C15.2754 11.155 15.5312 12.0906 15.5078 13.3523H11.3828C11.3945 13.8406 11.5273 14.2214 11.7812 14.4949C12.0352 14.7644 12.3516 14.8992 12.7305 14.8992C12.9883 14.8992 13.2051 14.8289 13.3809 14.6882C13.5566 14.5476 13.6895 14.321 13.7793 14.0085ZM13.873 12.3445C13.8613 11.8679 13.7383 11.5066 13.5039 11.2605C13.2695 11.0105 12.9844 10.8855 12.6484 10.8855C12.2891 10.8855 11.9922 11.0164 11.7578 11.2781C11.5234 11.5398 11.4082 11.8953 11.4121 12.3445H13.873ZM16.8672 15.989V7.39917H23.2363V8.85229H18.6016V10.7566H22.9141V12.2039H18.6016V14.5417H23.4004V15.989H16.8672ZM24.8828 15.989V7.39917H30.7715V8.85229H26.6172V10.8855H30.2031V12.3386H26.6172V15.989H24.8828ZM36.0566 15.989H34.4102V9.78394C33.8086 10.3464 33.0996 10.7625 32.2832 11.032V9.53784C32.7129 9.39722 33.1797 9.13159 33.6836 8.74097C34.1875 8.34644 34.5332 7.88745 34.7207 7.36401H36.0566V15.989ZM46.6328 15.989H44.7461L43.9961 14.0378H40.5625L39.8535 15.989H38.0137L41.3594 7.39917H43.1934L46.6328 15.989ZM43.4395 12.5906L42.2559 9.40308L41.0957 12.5906H43.4395Z" fill="white"/>
<defs>
<linearGradient id="paint0_linear_42_2593" x1="28" y1="1.98901" x2="28" y2="21.989" gradientUnits="userSpaceOnUse">
<stop stop-color="#007FD0"/>
<stop offset="1" stop-color="#C9895C"/>
</linearGradient>
</defs>
</svg>
