<svg width="57" height="24" viewBox="0 0 57 24" fill="none" xmlns="http://www.w3.org/2000/svg">
<rect x="2" y="1.98901" width="54" height="20" rx="10" fill="url(#paint0_linear_35_1482)"/>
<rect x="2" y="1.98901" width="54" height="20" rx="10" stroke="#00516B" stroke-width="3" stroke-linejoin="round"/>
<path d="M17.9375 15.989H16.0508L15.3008 14.0378H11.8672L11.1582 15.989H9.31836L12.6641 7.39917H14.498L17.9375 15.989ZM14.7441 12.5906L13.5605 9.40308L12.4004 12.5906H14.7441ZM18.8633 15.989V7.39917H21.6465C22.7012 7.39917 23.3887 7.44214 23.709 7.52808C24.2012 7.65698 24.6133 7.93823 24.9453 8.37183C25.2773 8.80151 25.4434 9.35815 25.4434 10.0417C25.4434 10.5691 25.3477 11.0125 25.1562 11.3718C24.9648 11.7312 24.7207 12.0144 24.4238 12.2214C24.1309 12.4246 23.832 12.5593 23.5273 12.6257C23.1133 12.7078 22.5137 12.7488 21.7285 12.7488H20.5977V15.989H18.8633ZM20.5977 8.85229V11.2898H21.5469C22.2305 11.2898 22.6875 11.2449 22.918 11.155C23.1484 11.0652 23.3281 10.9246 23.457 10.7332C23.5898 10.5417 23.6562 10.3191 23.6562 10.0652C23.6562 9.75269 23.5645 9.49487 23.3809 9.29175C23.1973 9.08862 22.9648 8.96167 22.6836 8.91089C22.4766 8.87183 22.0605 8.85229 21.4355 8.85229H20.5977ZM26.8672 15.989V7.39917H33.2363V8.85229H28.6016V10.7566H32.9141V12.2039H28.6016V14.5417H33.4004V15.989H26.8672ZM33.998 15.989L36.9336 11.5066L34.2734 7.39917H36.3008L38.0234 10.1589L39.7109 7.39917H41.7207L39.0488 11.571L41.9844 15.989H39.8926L37.9883 13.0183L36.0781 15.989H33.998ZM46.7246 15.989H45.0781V9.78394C44.4766 10.3464 43.7676 10.7625 42.9512 11.032V9.53784C43.3809 9.39722 43.8477 9.13159 44.3516 8.74097C44.8555 8.34644 45.2012 7.88745 45.3887 7.36401H46.7246V15.989Z" fill="white"/>
<defs>
<linearGradient id="paint0_linear_35_1482" x1="29" y1="1.98901" x2="29" y2="21.989" gradientUnits="userSpaceOnUse">
<stop stop-color="#3883FF"/>
<stop offset="1" stop-color="#00516B"/>
</linearGradient>
</defs>
</svg>
