<svg width="65" height="24" viewBox="0 0 65 24" fill="none" xmlns="http://www.w3.org/2000/svg">
<rect x="1" y="1.98901" width="63" height="20" rx="10" fill="url(#paint0_linear_45_4273)"/>
<rect x="1" y="1.98901" width="63" height="20" rx="10" stroke="#2AC46F" stroke-width="3" stroke-linejoin="round"/>
<path d="M13.3516 12.8308V11.3835H17.0898V14.8054C16.7266 15.157 16.1992 15.4675 15.5078 15.7371C14.8203 16.0027 14.123 16.1355 13.416 16.1355C12.5176 16.1355 11.7344 15.948 11.0664 15.573C10.3984 15.1941 9.89648 14.655 9.56055 13.9558C9.22461 13.2527 9.05664 12.489 9.05664 11.6648C9.05664 10.7703 9.24414 9.97534 9.61914 9.28003C9.99414 8.58472 10.543 8.05151 11.2656 7.68042C11.8164 7.39526 12.502 7.25269 13.3223 7.25269C14.3887 7.25269 15.2207 7.47729 15.8184 7.92651C16.4199 8.37183 16.8066 8.98901 16.9785 9.77808L15.2559 10.1003C15.1348 9.67847 14.9062 9.34644 14.5703 9.10425C14.2383 8.85815 13.8223 8.73511 13.3223 8.73511C12.5645 8.73511 11.9609 8.97534 11.5117 9.45581C11.0664 9.93628 10.8438 10.6492 10.8438 11.5945C10.8438 12.614 11.0703 13.3796 11.5234 13.8914C11.9766 14.3992 12.5703 14.6531 13.3047 14.6531C13.668 14.6531 14.0312 14.5828 14.3945 14.4421C14.7617 14.2976 15.0762 14.1238 15.3379 13.9207V12.8308H13.3516ZM20.6289 15.989V8.85229H18.0801V7.39917H24.9062V8.85229H22.3633V15.989H20.6289ZM26.0312 15.989V7.39917H28.8145C29.8691 7.39917 30.5566 7.44214 30.877 7.52808C31.3691 7.65698 31.7812 7.93823 32.1133 8.37183C32.4453 8.80151 32.6113 9.35815 32.6113 10.0417C32.6113 10.5691 32.5156 11.0125 32.3242 11.3718C32.1328 11.7312 31.8887 12.0144 31.5918 12.2214C31.2988 12.4246 31 12.5593 30.6953 12.6257C30.2812 12.7078 29.6816 12.7488 28.8965 12.7488H27.7656V15.989H26.0312ZM27.7656 8.85229V11.2898H28.7148C29.3984 11.2898 29.8555 11.2449 30.0859 11.155C30.3164 11.0652 30.4961 10.9246 30.625 10.7332C30.7578 10.5417 30.8242 10.3191 30.8242 10.0652C30.8242 9.75269 30.7324 9.49487 30.5488 9.29175C30.3652 9.08862 30.1328 8.96167 29.8516 8.91089C29.6445 8.87183 29.2285 8.85229 28.6035 8.85229H27.7656ZM34.041 7.39917H37.4746C38.1543 7.39917 38.6602 7.42847 38.9922 7.48706C39.3281 7.54175 39.627 7.65894 39.8887 7.83862C40.1543 8.01831 40.375 8.25854 40.5508 8.55933C40.7266 8.8562 40.8145 9.19019 40.8145 9.56128C40.8145 9.96362 40.7051 10.3328 40.4863 10.6687C40.2715 11.0046 39.9785 11.2566 39.6074 11.4246C40.1309 11.5769 40.5332 11.8367 40.8145 12.2039C41.0957 12.571 41.2363 13.0027 41.2363 13.4988C41.2363 13.8894 41.1445 14.2703 40.9609 14.6414C40.7812 15.0085 40.5332 15.3035 40.2168 15.5261C39.9043 15.7449 39.5176 15.8796 39.0566 15.9304C38.7676 15.9617 38.0703 15.9812 36.9648 15.989H34.041V7.39917ZM35.7754 8.82886V10.8152H36.9121C37.5879 10.8152 38.0078 10.8054 38.1719 10.7859C38.4688 10.7507 38.7012 10.6492 38.8691 10.4812C39.041 10.3093 39.127 10.0847 39.127 9.80737C39.127 9.54175 39.0527 9.3269 38.9043 9.16284C38.7598 8.99487 38.543 8.89331 38.2539 8.85815C38.082 8.83862 37.5879 8.82886 36.7715 8.82886H35.7754ZM35.7754 12.2449V14.5417H37.3809C38.0059 14.5417 38.4023 14.5242 38.5703 14.489C38.8281 14.4421 39.0371 14.3289 39.1973 14.1492C39.3613 13.9656 39.4434 13.7214 39.4434 13.4167C39.4434 13.1589 39.3809 12.9402 39.2559 12.7605C39.1309 12.5808 38.9492 12.45 38.7109 12.3679C38.4766 12.2859 37.9648 12.2449 37.1758 12.2449H35.7754ZM42.707 15.989V7.39917H45.4902C46.5449 7.39917 47.2324 7.44214 47.5527 7.52808C48.0449 7.65698 48.457 7.93823 48.7891 8.37183C49.1211 8.80151 49.2871 9.35815 49.2871 10.0417C49.2871 10.5691 49.1914 11.0125 49 11.3718C48.8086 11.7312 48.5645 12.0144 48.2676 12.2214C47.9746 12.4246 47.6758 12.5593 47.3711 12.6257C46.957 12.7078 46.3574 12.7488 45.5723 12.7488H44.4414V15.989H42.707ZM44.4414 8.85229V11.2898H45.3906C46.0742 11.2898 46.5312 11.2449 46.7617 11.155C46.9922 11.0652 47.1719 10.9246 47.3008 10.7332C47.4336 10.5417 47.5 10.3191 47.5 10.0652C47.5 9.75269 47.4082 9.49487 47.2246 9.29175C47.041 9.08862 46.8086 8.96167 46.5273 8.91089C46.3203 8.87183 45.9043 8.85229 45.2793 8.85229H44.4414ZM50.2891 13.7097L51.8828 13.5164C51.9336 13.9226 52.0703 14.2332 52.293 14.448C52.5156 14.6628 52.7852 14.7703 53.1016 14.7703C53.4414 14.7703 53.7266 14.6414 53.957 14.3835C54.1914 14.1257 54.3086 13.7781 54.3086 13.3406C54.3086 12.9265 54.1973 12.5984 53.9746 12.3562C53.752 12.114 53.4805 11.9929 53.1602 11.9929C52.9492 11.9929 52.6973 12.0339 52.4043 12.116L52.5859 10.7742C53.0312 10.7859 53.3711 10.6902 53.6055 10.4871C53.8398 10.28 53.957 10.0066 53.957 9.66675C53.957 9.37769 53.8711 9.14722 53.6992 8.97534C53.5273 8.80347 53.2988 8.71753 53.0137 8.71753C52.7324 8.71753 52.4922 8.81519 52.293 9.0105C52.0938 9.20581 51.9727 9.49097 51.9297 9.86597L50.4121 9.60815C50.5176 9.08862 50.6758 8.67456 50.8867 8.36597C51.1016 8.05347 51.3984 7.80933 51.7773 7.63354C52.1602 7.45386 52.5879 7.36401 53.0605 7.36401C53.8691 7.36401 54.5176 7.62183 55.0059 8.13745C55.4082 8.55933 55.6094 9.03589 55.6094 9.56714C55.6094 10.321 55.1973 10.9226 54.373 11.3718C54.8652 11.4773 55.2578 11.7136 55.5508 12.0808C55.8477 12.448 55.9961 12.8914 55.9961 13.4109C55.9961 14.1648 55.7207 14.8074 55.1699 15.3386C54.6191 15.8699 53.9336 16.1355 53.1133 16.1355C52.3359 16.1355 51.6914 15.9128 51.1797 15.4675C50.668 15.0183 50.3711 14.4324 50.2891 13.7097Z" fill="white"/>
<defs>
<linearGradient id="paint0_linear_45_4273" x1="32.5" y1="1.98901" x2="32.5" y2="21.989" gradientUnits="userSpaceOnUse">
<stop stop-color="#2AC46F"/>
<stop offset="1" stop-color="#752F85"/>
</linearGradient>
</defs>
</svg>
