<svg width="73" height="24" viewBox="0 0 73 24" fill="none" xmlns="http://www.w3.org/2000/svg">
<rect x="1" y="1.98901" width="71" height="20" rx="10" fill="url(#paint0_linear_45_4238)"/>
<rect x="1" y="1.98901" width="71" height="20" rx="10" stroke="#FF9914" stroke-width="3" stroke-linejoin="round"/>
<path d="M13.3496 12.8308V11.3835H17.0879V14.8054C16.7246 15.157 16.1973 15.4675 15.5059 15.7371C14.8184 16.0027 14.1211 16.1355 13.4141 16.1355C12.5156 16.1355 11.7324 15.948 11.0645 15.573C10.3965 15.1941 9.89453 14.655 9.55859 13.9558C9.22266 13.2527 9.05469 12.489 9.05469 11.6648C9.05469 10.7703 9.24219 9.97534 9.61719 9.28003C9.99219 8.58472 10.541 8.05151 11.2637 7.68042C11.8145 7.39526 12.5 7.25269 13.3203 7.25269C14.3867 7.25269 15.2188 7.47729 15.8164 7.92651C16.418 8.37183 16.8047 8.98901 16.9766 9.77808L15.2539 10.1003C15.1328 9.67847 14.9043 9.34644 14.5684 9.10425C14.2363 8.85815 13.8203 8.73511 13.3203 8.73511C12.5625 8.73511 11.959 8.97534 11.5098 9.45581C11.0645 9.93628 10.8418 10.6492 10.8418 11.5945C10.8418 12.614 11.0684 13.3796 11.5215 13.8914C11.9746 14.3992 12.5684 14.6531 13.3027 14.6531C13.666 14.6531 14.0293 14.5828 14.3926 14.4421C14.7598 14.2976 15.0742 14.1238 15.3359 13.9207V12.8308H13.3496ZM18.4941 13.698V12.0515H21.7285V13.698H18.4941ZM23.9082 11.6648L22.4141 11.3953C22.582 10.7937 22.8711 10.3484 23.2812 10.0593C23.6914 9.77026 24.3008 9.62573 25.1094 9.62573C25.8438 9.62573 26.3906 9.71362 26.75 9.8894C27.1094 10.0613 27.3613 10.282 27.5059 10.5515C27.6543 10.8171 27.7285 11.3074 27.7285 12.0222L27.7109 13.9441C27.7109 14.491 27.7363 14.8953 27.7871 15.157C27.8418 15.4148 27.9414 15.6921 28.0859 15.989H26.457C26.4141 15.8796 26.3613 15.7175 26.2988 15.5027C26.2715 15.405 26.252 15.3406 26.2402 15.3093C25.959 15.5828 25.6582 15.7878 25.3379 15.9246C25.0176 16.0613 24.6758 16.1296 24.3125 16.1296C23.6719 16.1296 23.166 15.9558 22.7949 15.6082C22.4277 15.2605 22.2441 14.821 22.2441 14.2898C22.2441 13.9382 22.3281 13.6257 22.4961 13.3523C22.6641 13.075 22.8984 12.864 23.1992 12.7195C23.5039 12.571 23.9414 12.4421 24.5117 12.3328C25.2812 12.1882 25.8145 12.0535 26.1113 11.9285V11.7644C26.1113 11.448 26.0332 11.2234 25.877 11.0906C25.7207 10.9539 25.4258 10.8855 24.9922 10.8855C24.6992 10.8855 24.4707 10.9441 24.3066 11.0613C24.1426 11.1746 24.0098 11.3757 23.9082 11.6648ZM26.1113 13.0007C25.9004 13.071 25.5664 13.155 25.1094 13.2527C24.6523 13.3503 24.3535 13.446 24.2129 13.5398C23.998 13.6921 23.8906 13.8855 23.8906 14.1199C23.8906 14.3503 23.9766 14.5496 24.1484 14.7175C24.3203 14.8855 24.5391 14.9695 24.8047 14.9695C25.1016 14.9695 25.3848 14.8718 25.6543 14.6765C25.8535 14.5281 25.9844 14.3464 26.0469 14.1316C26.0898 13.991 26.1113 13.7234 26.1113 13.3289V13.0007ZM29.3574 15.989V7.39917H31.0039V15.989H29.3574ZM32.6504 9.76636H34.1855V10.6804C34.3848 10.3679 34.6543 10.114 34.9941 9.9187C35.334 9.72339 35.7109 9.62573 36.125 9.62573C36.8477 9.62573 37.4609 9.90894 37.9648 10.4753C38.4688 11.0417 38.7207 11.8308 38.7207 12.8425C38.7207 13.8816 38.4668 14.6902 37.959 15.2683C37.4512 15.8425 36.8359 16.1296 36.1133 16.1296C35.7695 16.1296 35.457 16.0613 35.1758 15.9246C34.8984 15.7878 34.6055 15.5535 34.2969 15.2214V18.3562H32.6504V9.76636ZM34.2793 12.7722C34.2793 13.4714 34.418 13.989 34.6953 14.325C34.9727 14.657 35.3105 14.823 35.709 14.823C36.0918 14.823 36.4102 14.6707 36.6641 14.366C36.918 14.0574 37.0449 13.5535 37.0449 12.8542C37.0449 12.2019 36.9141 11.7175 36.6523 11.4011C36.3906 11.0847 36.0664 10.9265 35.6797 10.9265C35.2773 10.9265 34.9434 11.0828 34.6777 11.3953C34.4121 11.7039 34.2793 12.1628 34.2793 12.7722ZM41.6738 7.39917V10.5574C42.2051 9.93628 42.8398 9.62573 43.5781 9.62573C43.957 9.62573 44.2988 9.69604 44.6035 9.83667C44.9082 9.97729 45.1367 10.157 45.2891 10.3757C45.4453 10.5945 45.5508 10.8367 45.6055 11.1023C45.6641 11.3679 45.6934 11.78 45.6934 12.3386V15.989H44.0469V12.7019C44.0469 12.0496 44.0156 11.6355 43.9531 11.4597C43.8906 11.2839 43.7793 11.1453 43.6191 11.0437C43.4629 10.9382 43.2656 10.8855 43.0273 10.8855C42.7539 10.8855 42.5098 10.9519 42.2949 11.0847C42.0801 11.2175 41.9219 11.4187 41.8203 11.6882C41.7227 11.9539 41.6738 12.3484 41.6738 12.8718V15.989H40.0273V7.39917H41.6738ZM48.5996 11.6648L47.1055 11.3953C47.2734 10.7937 47.5625 10.3484 47.9727 10.0593C48.3828 9.77026 48.9922 9.62573 49.8008 9.62573C50.5352 9.62573 51.082 9.71362 51.4414 9.8894C51.8008 10.0613 52.0527 10.282 52.1973 10.5515C52.3457 10.8171 52.4199 11.3074 52.4199 12.0222L52.4023 13.9441C52.4023 14.491 52.4277 14.8953 52.4785 15.157C52.5332 15.4148 52.6328 15.6921 52.7773 15.989H51.1484C51.1055 15.8796 51.0527 15.7175 50.9902 15.5027C50.9629 15.405 50.9434 15.3406 50.9316 15.3093C50.6504 15.5828 50.3496 15.7878 50.0293 15.9246C49.709 16.0613 49.3672 16.1296 49.0039 16.1296C48.3633 16.1296 47.8574 15.9558 47.4863 15.6082C47.1191 15.2605 46.9355 14.821 46.9355 14.2898C46.9355 13.9382 47.0195 13.6257 47.1875 13.3523C47.3555 13.075 47.5898 12.864 47.8906 12.7195C48.1953 12.571 48.6328 12.4421 49.2031 12.3328C49.9727 12.1882 50.5059 12.0535 50.8027 11.9285V11.7644C50.8027 11.448 50.7246 11.2234 50.5684 11.0906C50.4121 10.9539 50.1172 10.8855 49.6836 10.8855C49.3906 10.8855 49.1621 10.9441 48.998 11.0613C48.834 11.1746 48.7012 11.3757 48.5996 11.6648ZM50.8027 13.0007C50.5918 13.071 50.2578 13.155 49.8008 13.2527C49.3438 13.3503 49.0449 13.446 48.9043 13.5398C48.6895 13.6921 48.582 13.8855 48.582 14.1199C48.582 14.3503 48.668 14.5496 48.8398 14.7175C49.0117 14.8855 49.2305 14.9695 49.4961 14.9695C49.793 14.9695 50.0762 14.8718 50.3457 14.6765C50.5449 14.5281 50.6758 14.3464 50.7383 14.1316C50.7812 13.991 50.8027 13.7234 50.8027 13.3289V13.0007ZM53.8613 13.698V12.0515H57.0957V13.698H53.8613ZM62.1113 18.3562V15.2273C61.8965 15.5046 61.6289 15.7253 61.3086 15.8894C60.9883 16.0496 60.6426 16.1296 60.2715 16.1296C59.5645 16.1296 58.9824 15.864 58.5254 15.3328C57.9863 14.7117 57.7168 13.8699 57.7168 12.8074C57.7168 11.8074 57.9688 11.0281 58.4727 10.4695C58.9805 9.90698 59.6094 9.62573 60.3594 9.62573C60.7734 9.62573 61.1309 9.71362 61.4316 9.8894C61.7363 10.0652 62.0059 10.3308 62.2402 10.6863V9.76636H63.7578V18.3562H62.1113ZM62.1641 12.8015C62.1641 12.1648 62.0332 11.6921 61.7715 11.3835C61.5137 11.071 61.1895 10.9148 60.7988 10.9148C60.4004 10.9148 60.0664 11.073 59.7969 11.3894C59.5312 11.7058 59.3984 12.2078 59.3984 12.8953C59.3984 13.5789 59.5273 14.073 59.7852 14.3777C60.043 14.6785 60.3613 14.8289 60.7402 14.8289C61.1191 14.8289 61.4512 14.6589 61.7363 14.3191C62.0215 13.9792 62.1641 13.4734 62.1641 12.8015Z" fill="white"/>
<defs>
<linearGradient id="paint0_linear_45_4238" x1="36.5" y1="1.98901" x2="36.5" y2="21.989" gradientUnits="userSpaceOnUse">
<stop stop-color="#8C5B00"/>
<stop offset="1" stop-color="#FF9914"/>
</linearGradient>
</defs>
</svg>
