<svg width="37" height="100" viewBox="0 0 37 100" fill="none" xmlns="http://www.w3.org/2000/svg">
<path d="M8.60399 99.6675C13.2349 99.6675 16.989 95.9134 16.989 91.2825C16.989 86.6516 13.2349 82.8975 8.60399 82.8975C3.97309 82.8975 0.218994 86.6516 0.218994 91.2825C0.218994 95.9134 3.97309 99.6675 8.60399 99.6675Z" fill="url(#paint0_radial_86_3318)"/>
<path d="M28.6052 99.6675C33.2361 99.6675 36.9902 95.9134 36.9902 91.2825C36.9902 86.6516 33.2361 82.8975 28.6052 82.8975C23.9743 82.8975 20.2202 86.6516 20.2202 91.2825C20.2202 95.9134 23.9743 99.6675 28.6052 99.6675Z" fill="url(#paint1_radial_86_3318)"/>
<path d="M8.604 88.7789C6.5327 88.7789 4.854 87.1002 4.854 85.0289V61.4932C4.854 59.4219 6.5327 57.7432 8.604 57.7432C10.6753 57.7432 12.354 59.4219 12.354 61.4932V85.0288C12.354 87.1002 10.6753 88.7789 8.604 88.7789Z" fill="url(#paint2_linear_86_3318)"/>
<path d="M28.605 88.7789C26.5337 88.7789 24.855 87.1002 24.855 85.0289V61.4932C24.855 59.4219 26.5337 57.7432 28.605 57.7432C30.6763 57.7432 32.355 59.4219 32.355 61.4932V85.0288C32.355 87.1002 30.6763 88.7789 28.605 88.7789Z" fill="url(#paint3_linear_86_3318)"/>
<path d="M8.604 63.6243C4.4614 63.6243 1.104 63.2669 1.104 59.1243V5.32739C1.104 1.18479 4.4614 0.827393 8.604 0.827393C12.7466 0.827393 16.104 1.18479 16.104 5.32739V59.1243C16.104 63.2669 12.7466 63.6243 8.604 63.6243Z" fill="url(#paint4_linear_86_3318)"/>
<path d="M28.605 63.6243C24.4624 63.6243 21.105 63.2669 21.105 59.1243V5.32739C21.105 1.18479 24.4624 0.827393 28.605 0.827393C32.7476 0.827393 36.105 1.18479 36.105 5.32739V59.1243C36.105 63.2669 32.7476 63.6243 28.605 63.6243Z" fill="url(#paint5_linear_86_3318)"/>
<path d="M16.104 56.4639V59.1245C16.104 63.2671 12.7466 63.6245 8.604 63.6245C4.4614 63.6245 1.104 63.2671 1.104 59.1245V56.4639H16.104Z" fill="url(#paint6_linear_86_3318)"/>
<path d="M36.105 56.4639V59.1245C36.105 63.2671 32.7476 63.6245 28.605 63.6245C24.4624 63.6245 21.105 63.2671 21.105 59.1245V56.4639H36.105Z" fill="url(#paint7_linear_86_3318)"/>
<path d="M16.104 7.98799V5.32739C16.104 1.18479 12.7466 0.827393 8.604 0.827393C4.4614 0.827393 1.104 1.18479 1.104 5.32739V7.98799H16.104Z" fill="url(#paint8_linear_86_3318)"/>
<path d="M36.105 7.98799V5.32739C36.105 1.18479 32.7476 0.827393 28.605 0.827393C24.4624 0.827393 21.105 1.18479 21.105 5.32739V7.98799H36.105Z" fill="url(#paint9_linear_86_3318)"/>
<defs>
<radialGradient id="paint0_radial_86_3318" cx="0" cy="0" r="1" gradientUnits="userSpaceOnUse" gradientTransform="translate(6.60399 88.2825) scale(8.385 8.385)">
<stop stop-color="#F7AC00"/>
<stop offset="1" stop-color="#6A4A00"/>
</radialGradient>
<radialGradient id="paint1_radial_86_3318" cx="0" cy="0" r="1" gradientUnits="userSpaceOnUse" gradientTransform="translate(25.9385 87.9491) scale(8.385 8.385)">
<stop stop-color="#F7AC00"/>
<stop offset="1" stop-color="#6A4A00"/>
</radialGradient>
<linearGradient id="paint2_linear_86_3318" x1="4.854" y1="73.2611" x2="12.354" y2="73.2611" gradientUnits="userSpaceOnUse">
<stop stop-color="#6A4A00"/>
<stop offset="0.0358" stop-color="#926600"/>
<stop offset="0.0752" stop-color="#B67F00"/>
<stop offset="0.1148" stop-color="#D39300"/>
<stop offset="0.1543" stop-color="#E7A100"/>
<stop offset="0.1935" stop-color="#F3A900"/>
<stop offset="0.2322" stop-color="#F7AC00"/>
<stop offset="1" stop-color="#6A4A00"/>
</linearGradient>
<linearGradient id="paint3_linear_86_3318" x1="24.855" y1="73.2611" x2="32.355" y2="73.2611" gradientUnits="userSpaceOnUse">
<stop stop-color="#6A4A00"/>
<stop offset="0.0358" stop-color="#926600"/>
<stop offset="0.0752" stop-color="#B67F00"/>
<stop offset="0.1148" stop-color="#D39300"/>
<stop offset="0.1543" stop-color="#E7A100"/>
<stop offset="0.1935" stop-color="#F3A900"/>
<stop offset="0.2322" stop-color="#F7AC00"/>
<stop offset="1" stop-color="#6A4A00"/>
</linearGradient>
<linearGradient id="paint4_linear_86_3318" x1="1.104" y1="32.2258" x2="16.104" y2="32.2258" gradientUnits="userSpaceOnUse">
<stop stop-color="#6A4A00"/>
<stop offset="0.25" stop-color="#E7A100"/>
<stop offset="1" stop-color="#6A4A00"/>
</linearGradient>
<linearGradient id="paint5_linear_86_3318" x1="21.105" y1="32.2258" x2="36.105" y2="32.2258" gradientUnits="userSpaceOnUse">
<stop stop-color="#6A4A00"/>
<stop offset="0.2322" stop-color="#E7A100"/>
<stop offset="1" stop-color="#6A4A00"/>
</linearGradient>
<linearGradient id="paint6_linear_86_3318" x1="8.604" y1="63.6245" x2="8.604" y2="56.4639" gradientUnits="userSpaceOnUse">
<stop stop-color="#6A4A00"/>
<stop offset="1" stop-color="#F3A900" stop-opacity="0"/>
</linearGradient>
<linearGradient id="paint7_linear_86_3318" x1="28.605" y1="63.6245" x2="28.605" y2="56.4639" gradientUnits="userSpaceOnUse">
<stop stop-color="#6A4A00"/>
<stop offset="1" stop-color="#F3A900" stop-opacity="0"/>
</linearGradient>
<linearGradient id="paint8_linear_86_3318" x1="8.604" y1="0.827393" x2="8.604" y2="7.98799" gradientUnits="userSpaceOnUse">
<stop stop-color="#6A4A00"/>
<stop offset="1" stop-color="#F3A900" stop-opacity="0"/>
</linearGradient>
<linearGradient id="paint9_linear_86_3318" x1="28.605" y1="0.827393" x2="28.605" y2="7.98799" gradientUnits="userSpaceOnUse">
<stop stop-color="#6A4A00"/>
<stop offset="1" stop-color="#F3A900" stop-opacity="0"/>
</linearGradient>
</defs>
</svg>
