<svg width="53" height="24" viewBox="0 0 53 24" fill="none" xmlns="http://www.w3.org/2000/svg">
<rect x="2" y="1.98901" width="50" height="20" rx="10" fill="url(#paint0_linear_85_2085)"/>
<rect x="2" y="1.98901" width="50" height="20" rx="10" stroke="#2C4407" stroke-width="3" stroke-linejoin="round"/>
<path d="M11.4141 15.989L9.36328 7.39917H11.1387L12.4336 13.2996L14.0039 7.39917H16.0664L17.5723 13.3992L18.8906 7.39917H20.6367L18.5508 15.989H16.7109L15 9.56714L13.2949 15.989H11.4141ZM21.5215 7.39917H24.6914C25.4062 7.39917 25.9512 7.45386 26.3262 7.56323C26.8301 7.71167 27.2617 7.97534 27.6211 8.35425C27.9805 8.73315 28.2539 9.198 28.4414 9.74878C28.6289 10.2957 28.7227 10.9714 28.7227 11.7761C28.7227 12.4832 28.6348 13.0925 28.459 13.6042C28.2441 14.2292 27.9375 14.7351 27.5391 15.1218C27.2383 15.4148 26.832 15.6433 26.3203 15.8074C25.9375 15.9285 25.4258 15.989 24.7852 15.989H21.5215V7.39917ZM23.2559 8.85229V14.5417H24.5508C25.0352 14.5417 25.3848 14.5144 25.5996 14.4597C25.8809 14.3894 26.1133 14.2703 26.2969 14.1023C26.4844 13.9343 26.6367 13.6589 26.7539 13.2761C26.8711 12.8894 26.9297 12.364 26.9297 11.7C26.9297 11.0359 26.8711 10.5261 26.7539 10.1707C26.6367 9.81519 26.4727 9.53784 26.2617 9.33862C26.0508 9.1394 25.7832 9.00464 25.459 8.93433C25.2168 8.87964 24.7422 8.85229 24.0352 8.85229H23.2559ZM30.2051 15.989V7.39917H33.8555C34.7734 7.39917 35.4395 7.47729 35.8535 7.63354C36.2715 7.78589 36.6055 8.05933 36.8555 8.45386C37.1055 8.84839 37.2305 9.29956 37.2305 9.80737C37.2305 10.4519 37.041 10.9851 36.6621 11.407C36.2832 11.825 35.7168 12.0886 34.9629 12.198C35.3379 12.4167 35.6465 12.657 35.8887 12.9187C36.1348 13.1804 36.4648 13.6453 36.8789 14.3132L37.9277 15.989H35.8535L34.5996 14.1199C34.1543 13.4519 33.8496 13.032 33.6855 12.8601C33.5215 12.6843 33.3477 12.5652 33.1641 12.5027C32.9805 12.4363 32.6895 12.4031 32.291 12.4031H31.9395V15.989H30.2051ZM31.9395 11.032H33.2227C34.0547 11.032 34.5742 10.9968 34.7812 10.9265C34.9883 10.8562 35.1504 10.7351 35.2676 10.5632C35.3848 10.3914 35.4434 10.1765 35.4434 9.9187C35.4434 9.62964 35.3652 9.39722 35.209 9.22144C35.0566 9.04175 34.8398 8.92847 34.5586 8.88159C34.418 8.86206 33.9961 8.85229 33.293 8.85229H31.9395V11.032ZM41.7363 15.989V14.2605H38.2207V12.8191L41.9473 7.36401H43.3301V12.8132H44.3965V14.2605H43.3301V15.989H41.7363ZM41.7363 12.8132V9.87769L39.7617 12.8132H41.7363Z" fill="white"/>
<defs>
<linearGradient id="paint0_linear_85_2085" x1="27" y1="1.98901" x2="27" y2="21.989" gradientUnits="userSpaceOnUse">
<stop stop-color="#2C4407"/>
<stop offset="1" stop-color="#CF9039"/>
</linearGradient>
</defs>
</svg>
