<svg width="56" height="24" viewBox="0 0 56 24" fill="none" xmlns="http://www.w3.org/2000/svg">
<rect x="2" y="1.98901" width="53" height="20" rx="10" fill="url(#paint0_linear_67_1810)"/>
<rect x="2" y="1.98901" width="53" height="20" rx="10" stroke="#FCB915" stroke-width="3" stroke-linejoin="round"/>
<path d="M10.3594 15.989V7.39917H13.1426C14.1973 7.39917 14.8848 7.44214 15.2051 7.52808C15.6973 7.65698 16.1094 7.93823 16.4414 8.37183C16.7734 8.80151 16.9395 9.35815 16.9395 10.0417C16.9395 10.5691 16.8438 11.0125 16.6523 11.3718C16.4609 11.7312 16.2168 12.0144 15.9199 12.2214C15.627 12.4246 15.3281 12.5593 15.0234 12.6257C14.6094 12.7078 14.0098 12.7488 13.2246 12.7488H12.0938V15.989H10.3594ZM12.0938 8.85229V11.2898H13.043C13.7266 11.2898 14.1836 11.2449 14.4141 11.155C14.6445 11.0652 14.8242 10.9246 14.9531 10.7332C15.0859 10.5417 15.1523 10.3191 15.1523 10.0652C15.1523 9.75269 15.0605 9.49487 14.877 9.29175C14.6934 9.08862 14.4609 8.96167 14.1797 8.91089C13.9727 8.87183 13.5566 8.85229 12.9316 8.85229H12.0938ZM20.2969 15.989V8.85229H17.748V7.39917H24.5742V8.85229H22.0312V15.989H20.2969ZM25.7109 15.989V7.39917H31.5996V8.85229H27.4453V10.8855H31.0312V12.3386H27.4453V15.989H25.7109ZM36.8848 15.989H35.2383V9.78394C34.6367 10.3464 33.9277 10.7625 33.1113 11.032V9.53784C33.541 9.39722 34.0078 9.13159 34.5117 8.74097C35.0156 8.34644 35.3613 7.88745 35.5488 7.36401H36.8848V15.989ZM47.4609 15.989H45.5742L44.8242 14.0378H41.3906L40.6816 15.989H38.8418L42.1875 7.39917H44.0215L47.4609 15.989ZM44.2676 12.5906L43.084 9.40308L41.9238 12.5906H44.2676Z" fill="white"/>
<defs>
<linearGradient id="paint0_linear_67_1810" x1="28.5" y1="1.98901" x2="28.5" y2="21.989" gradientUnits="userSpaceOnUse">
<stop stop-color="#FCB915"/>
<stop offset="1" stop-color="#2C3B0C"/>
</linearGradient>
</defs>
</svg>
