<svg width="51" height="59" viewBox="0 0 51 59" fill="none" xmlns="http://www.w3.org/2000/svg">
<path d="M50.1565 43.2329C50.1564 43.4114 50.0611 43.5763 49.9065 43.6655L25.6838 57.6509C25.5293 57.7401 25.3385 57.74 25.1838 57.6509L0.960205 43.6655C0.805617 43.5763 0.710331 43.4114 0.710205 43.2329V15.2622C0.710205 15.0836 0.805504 14.9179 0.960205 14.8286L25.1838 0.844238L25.2434 0.814941C25.3856 0.756438 25.5486 0.766131 25.6838 0.844238L49.9065 14.8286C50.0612 14.9179 50.1565 15.0836 50.1565 15.2622V43.2329Z" fill="#F9C0DA" stroke="#DB0E5D" stroke-linejoin="round"/>
<g opacity="0.4">
<path d="M25.4334 12.8833L11.2616 37.4294H39.6051L25.4334 12.8833Z" stroke="#DB0E5D" stroke-miterlimit="10" stroke-linecap="round" stroke-linejoin="round"/>
<path d="M25.4334 57.2178L11.2616 37.4294" stroke="#DB0E5D" stroke-miterlimit="10" stroke-linecap="round" stroke-linejoin="round"/>
<path d="M39.6051 37.4294L25.4333 57.2178" stroke="#DB0E5D" stroke-miterlimit="10" stroke-linecap="round" stroke-linejoin="round"/>
<path d="M25.4333 12.8833V1.27686" stroke="#DB0E5D" stroke-miterlimit="10" stroke-linecap="round" stroke-linejoin="round"/>
<path d="M1.21021 15.2621L25.4334 12.8833" stroke="#DB0E5D" stroke-miterlimit="10" stroke-linecap="round" stroke-linejoin="round"/>
<path d="M49.6565 15.2621L25.4333 12.8833" stroke="#DB0E5D" stroke-miterlimit="10" stroke-linecap="round" stroke-linejoin="round"/>
<path d="M11.2616 37.4293L1.21021 15.262" stroke="#DB0E5D" stroke-miterlimit="10" stroke-linecap="round" stroke-linejoin="round"/>
<path d="M1.21021 43.2326L11.2616 37.4294" stroke="#DB0E5D" stroke-miterlimit="10" stroke-linecap="round" stroke-linejoin="round"/>
<path d="M39.6051 37.4294L49.6565 43.2326" stroke="#DB0E5D" stroke-miterlimit="10" stroke-linecap="round" stroke-linejoin="round"/>
<path d="M49.6565 15.262L39.6051 37.4293" stroke="#DB0E5D" stroke-miterlimit="10" stroke-linecap="round" stroke-linejoin="round"/>
</g>
<path d="M25.4334 45.6114L39.6051 21.0652H11.2616L25.4334 45.6114Z" stroke="#DB0E5D" stroke-miterlimit="10" stroke-linecap="round" stroke-linejoin="round"/>
<path d="M25.4333 1.27686L39.6051 21.0653" stroke="#DB0E5D" stroke-miterlimit="10" stroke-linecap="round" stroke-linejoin="round"/>
<path d="M11.2616 21.0653L25.4334 1.27686" stroke="#DB0E5D" stroke-miterlimit="10" stroke-linecap="round" stroke-linejoin="round"/>
<path d="M25.4333 45.6116V57.2179" stroke="#DB0E5D" stroke-miterlimit="10" stroke-linecap="round" stroke-linejoin="round"/>
<path d="M49.6565 43.2327L25.4333 45.6116" stroke="#DB0E5D" stroke-miterlimit="10" stroke-linecap="round" stroke-linejoin="round"/>
<path d="M1.21021 43.2327L25.4334 45.6116" stroke="#DB0E5D" stroke-miterlimit="10" stroke-linecap="round" stroke-linejoin="round"/>
<path d="M39.6051 21.0652L49.6565 43.2325" stroke="#DB0E5D" stroke-miterlimit="10" stroke-linecap="round" stroke-linejoin="round"/>
<path d="M49.6565 15.262L39.6051 21.0652" stroke="#DB0E5D" stroke-miterlimit="10" stroke-linecap="round" stroke-linejoin="round"/>
<path d="M11.2616 21.0652L1.21021 15.262" stroke="#DB0E5D" stroke-miterlimit="10" stroke-linecap="round" stroke-linejoin="round"/>
<path d="M1.21021 43.2325L11.2616 21.0652" stroke="#DB0E5D" stroke-miterlimit="10" stroke-linecap="round" stroke-linejoin="round"/>
</svg>
