<svg width="74" height="24" viewBox="0 0 74 24" fill="none" xmlns="http://www.w3.org/2000/svg">
<rect x="1" y="1.98901" width="72" height="20" rx="10" fill="url(#paint0_linear_42_2609)"/>
<rect x="1" y="1.98901" width="72" height="20" rx="10" stroke="#161C43" stroke-width="3" stroke-linejoin="round"/>
<path d="M9.29688 15.989V7.39917H15.666V8.85229H11.0312V10.7566H15.3438V12.2039H11.0312V14.5417H15.8301V15.989H9.29688ZM22.9492 15.989H21.3027V12.8132C21.3027 12.1414 21.2676 11.7078 21.1973 11.5125C21.127 11.3132 21.0117 11.1589 20.8516 11.0496C20.6953 10.9402 20.5059 10.8855 20.2832 10.8855C19.998 10.8855 19.7422 10.9636 19.5156 11.1199C19.2891 11.2761 19.1328 11.4832 19.0469 11.741C18.9648 11.9988 18.9238 12.4753 18.9238 13.1707V15.989H17.2773V9.76636H18.8066V10.6804C19.3496 9.97729 20.0332 9.62573 20.8574 9.62573C21.2207 9.62573 21.5527 9.69214 21.8535 9.82495C22.1543 9.95386 22.3809 10.1199 22.5332 10.323C22.6895 10.5261 22.7969 10.7566 22.8555 11.0144C22.918 11.2722 22.9492 11.6414 22.9492 12.1218V15.989ZM25.8555 11.6648L24.3613 11.3953C24.5293 10.7937 24.8184 10.3484 25.2285 10.0593C25.6387 9.77026 26.248 9.62573 27.0566 9.62573C27.791 9.62573 28.3379 9.71362 28.6973 9.8894C29.0566 10.0613 29.3086 10.282 29.4531 10.5515C29.6016 10.8171 29.6758 11.3074 29.6758 12.0222L29.6582 13.9441C29.6582 14.491 29.6836 14.8953 29.7344 15.157C29.7891 15.4148 29.8887 15.6921 30.0332 15.989H28.4043C28.3613 15.8796 28.3086 15.7175 28.2461 15.5027C28.2188 15.405 28.1992 15.3406 28.1875 15.3093C27.9062 15.5828 27.6055 15.7878 27.2852 15.9246C26.9648 16.0613 26.623 16.1296 26.2598 16.1296C25.6191 16.1296 25.1133 15.9558 24.7422 15.6082C24.375 15.2605 24.1914 14.821 24.1914 14.2898C24.1914 13.9382 24.2754 13.6257 24.4434 13.3523C24.6113 13.075 24.8457 12.864 25.1465 12.7195C25.4512 12.571 25.8887 12.4421 26.459 12.3328C27.2285 12.1882 27.7617 12.0535 28.0586 11.9285V11.7644C28.0586 11.448 27.9805 11.2234 27.8242 11.0906C27.668 10.9539 27.373 10.8855 26.9395 10.8855C26.6465 10.8855 26.418 10.9441 26.2539 11.0613C26.0898 11.1746 25.957 11.3757 25.8555 11.6648ZM28.0586 13.0007C27.8477 13.071 27.5137 13.155 27.0566 13.2527C26.5996 13.3503 26.3008 13.446 26.1602 13.5398C25.9453 13.6921 25.8379 13.8855 25.8379 14.1199C25.8379 14.3503 25.9238 14.5496 26.0957 14.7175C26.2676 14.8855 26.4863 14.9695 26.752 14.9695C27.0488 14.9695 27.332 14.8718 27.6016 14.6765C27.8008 14.5281 27.9316 14.3464 27.9941 14.1316C28.0371 13.991 28.0586 13.7234 28.0586 13.3289V13.0007ZM30.4258 16.1355L32.5527 7.25269H33.7891L31.6387 16.1355H30.4258ZM36.8477 15.989L33.7773 7.39917H35.6582L37.832 13.7566L39.9355 7.39917H41.7754L38.6992 15.989H36.8477ZM49.5156 15.989H47.6289L46.8789 14.0378H43.4453L42.7363 15.989H40.8965L44.2422 7.39917H46.0762L49.5156 15.989ZM46.3223 12.5906L45.1387 9.40308L43.9785 12.5906H46.3223ZM50.002 13.1941L51.6895 13.03C51.791 13.5964 51.9961 14.0125 52.3047 14.2781C52.6172 14.5437 53.0371 14.6765 53.5645 14.6765C54.123 14.6765 54.543 14.5593 54.8242 14.325C55.1094 14.0867 55.252 13.8093 55.252 13.4929C55.252 13.2898 55.1914 13.1179 55.0703 12.9773C54.9531 12.8328 54.7461 12.7078 54.4492 12.6023C54.2461 12.532 53.7832 12.407 53.0605 12.2273C52.1309 11.9968 51.4785 11.7136 51.1035 11.3777C50.5762 10.905 50.3125 10.3289 50.3125 9.64917C50.3125 9.21167 50.4355 8.80347 50.6816 8.42456C50.9316 8.04175 51.2891 7.75073 51.7539 7.55151C52.2227 7.35229 52.7871 7.25269 53.4473 7.25269C54.5254 7.25269 55.3359 7.48901 55.8789 7.96167C56.4258 8.43433 56.7129 9.06519 56.7402 9.85425L55.0059 9.93042C54.9316 9.48901 54.7715 9.17261 54.5254 8.9812C54.2832 8.78589 53.918 8.68823 53.4297 8.68823C52.9258 8.68823 52.5312 8.79175 52.2461 8.99878C52.0625 9.13159 51.9707 9.30933 51.9707 9.53198C51.9707 9.73511 52.0566 9.90894 52.2285 10.0535C52.4473 10.2371 52.9785 10.4285 53.8223 10.6277C54.666 10.8269 55.2891 11.0339 55.6914 11.2488C56.0977 11.4597 56.4141 11.7507 56.6406 12.1218C56.8711 12.489 56.9863 12.9441 56.9863 13.4871C56.9863 13.9792 56.8496 14.4402 56.5762 14.8699C56.3027 15.2996 55.916 15.6199 55.416 15.8308C54.916 16.0378 54.293 16.1414 53.5469 16.1414C52.4609 16.1414 51.627 15.8914 51.0449 15.3914C50.4629 14.8875 50.1152 14.155 50.002 13.1941ZM58.4453 15.989V7.39917H61.2285C62.2832 7.39917 62.9707 7.44214 63.291 7.52808C63.7832 7.65698 64.1953 7.93823 64.5273 8.37183C64.8594 8.80151 65.0254 9.35815 65.0254 10.0417C65.0254 10.5691 64.9297 11.0125 64.7383 11.3718C64.5469 11.7312 64.3027 12.0144 64.0059 12.2214C63.7129 12.4246 63.4141 12.5593 63.1094 12.6257C62.6953 12.7078 62.0957 12.7488 61.3105 12.7488H60.1797V15.989H58.4453ZM60.1797 8.85229V11.2898H61.1289C61.8125 11.2898 62.2695 11.2449 62.5 11.155C62.7305 11.0652 62.9102 10.9246 63.0391 10.7332C63.1719 10.5417 63.2383 10.3191 63.2383 10.0652C63.2383 9.75269 63.1465 9.49487 62.9629 9.29175C62.7793 9.08862 62.5469 8.96167 62.2656 8.91089C62.0586 8.87183 61.6426 8.85229 61.0176 8.85229H60.1797Z" fill="white"/>
<defs>
<linearGradient id="paint0_linear_42_2609" x1="37" y1="1.98901" x2="37" y2="21.989" gradientUnits="userSpaceOnUse">
<stop stop-color="#FF7EFF"/>
<stop offset="1" stop-color="#161C43"/>
</linearGradient>
</defs>
</svg>
