<svg width="50" height="24" viewBox="0 0 50 24" fill="none" xmlns="http://www.w3.org/2000/svg">
<rect x="2" y="1.98901" width="47" height="20" rx="10" fill="url(#paint0_linear_67_1953)"/>
<rect x="2" y="1.98901" width="47" height="20" rx="10" stroke="#4D1E2B" stroke-width="3" stroke-linejoin="round"/>
<path d="M9.91992 13.1941L11.6074 13.03C11.709 13.5964 11.9141 14.0125 12.2227 14.2781C12.5352 14.5437 12.9551 14.6765 13.4824 14.6765C14.041 14.6765 14.4609 14.5593 14.7422 14.325C15.0273 14.0867 15.1699 13.8093 15.1699 13.4929C15.1699 13.2898 15.1094 13.1179 14.9883 12.9773C14.8711 12.8328 14.6641 12.7078 14.3672 12.6023C14.1641 12.532 13.7012 12.407 12.9785 12.2273C12.0488 11.9968 11.3965 11.7136 11.0215 11.3777C10.4941 10.905 10.2305 10.3289 10.2305 9.64917C10.2305 9.21167 10.3535 8.80347 10.5996 8.42456C10.8496 8.04175 11.207 7.75073 11.6719 7.55151C12.1406 7.35229 12.7051 7.25269 13.3652 7.25269C14.4434 7.25269 15.2539 7.48901 15.7969 7.96167C16.3438 8.43433 16.6309 9.06519 16.6582 9.85425L14.9238 9.93042C14.8496 9.48901 14.6895 9.17261 14.4434 8.9812C14.2012 8.78589 13.8359 8.68823 13.3477 8.68823C12.8438 8.68823 12.4492 8.79175 12.1641 8.99878C11.9805 9.13159 11.8887 9.30933 11.8887 9.53198C11.8887 9.73511 11.9746 9.90894 12.1465 10.0535C12.3652 10.2371 12.8965 10.4285 13.7402 10.6277C14.584 10.8269 15.207 11.0339 15.6094 11.2488C16.0156 11.4597 16.332 11.7507 16.5586 12.1218C16.7891 12.489 16.9043 12.9441 16.9043 13.4871C16.9043 13.9792 16.7676 14.4402 16.4941 14.8699C16.2207 15.2996 15.834 15.6199 15.334 15.8308C14.834 16.0378 14.2109 16.1414 13.4648 16.1414C12.3789 16.1414 11.5449 15.8914 10.9629 15.3914C10.3809 14.8875 10.0332 14.155 9.91992 13.1941ZM18.0117 11.7468C18.0117 10.8718 18.1426 10.1375 18.4043 9.5437C18.5996 9.1062 18.8652 8.71362 19.2012 8.36597C19.541 8.01831 19.9121 7.7605 20.3145 7.59253C20.8496 7.36597 21.4668 7.25269 22.166 7.25269C23.4316 7.25269 24.4434 7.64526 25.2012 8.43042C25.9629 9.21558 26.3438 10.3074 26.3438 11.7058C26.3438 13.0925 25.9668 14.1785 25.2129 14.9636C24.459 15.7449 23.4512 16.1355 22.1895 16.1355C20.9121 16.1355 19.8965 15.7468 19.1426 14.9695C18.3887 14.1882 18.0117 13.114 18.0117 11.7468ZM19.7988 11.6882C19.7988 12.6609 20.0234 13.3992 20.4727 13.9031C20.9219 14.4031 21.4922 14.6531 22.1836 14.6531C22.875 14.6531 23.4414 14.405 23.8828 13.9089C24.3281 13.4089 24.5508 12.6609 24.5508 11.6648C24.5508 10.6804 24.334 9.94604 23.9004 9.46167C23.4707 8.97729 22.8984 8.73511 22.1836 8.73511C21.4688 8.73511 20.8926 8.9812 20.4551 9.47339C20.0176 9.96167 19.7988 10.7 19.7988 11.6882ZM26.8301 15.989L29.7656 11.5066L27.1055 7.39917H29.1328L30.8555 10.1589L32.543 7.39917H34.5527L31.8809 11.571L34.8164 15.989H32.7246L30.8203 13.0183L28.9102 15.989H26.8301ZM35.3789 14.0027L36.9727 13.8269C37.0117 14.1511 37.1133 14.3914 37.2773 14.5476C37.4414 14.7039 37.6582 14.782 37.9277 14.782C38.2676 14.782 38.5566 14.6257 38.7949 14.3132C39.0332 14.0007 39.1855 13.3523 39.252 12.3679C38.8379 12.8484 38.3203 13.0886 37.6992 13.0886C37.0234 13.0886 36.4395 12.8289 35.9473 12.3093C35.459 11.7859 35.2148 11.1062 35.2148 10.2703C35.2148 9.39917 35.4727 8.698 35.9883 8.16675C36.5078 7.63159 37.168 7.36401 37.9688 7.36401C38.8398 7.36401 39.5547 7.7019 40.1133 8.37769C40.6719 9.04956 40.9512 10.157 40.9512 11.7C40.9512 13.2703 40.6602 14.4031 40.0781 15.0984C39.4961 15.7937 38.7383 16.1414 37.8047 16.1414C37.1328 16.1414 36.5898 15.9636 36.1758 15.6082C35.7617 15.2488 35.4961 14.7136 35.3789 14.0027ZM39.1055 10.405C39.1055 9.87378 38.9824 9.46167 38.7363 9.1687C38.4941 8.87573 38.2129 8.72925 37.8926 8.72925C37.5879 8.72925 37.334 8.85034 37.1309 9.09253C36.9316 9.33081 36.832 9.72339 36.832 10.2703C36.832 10.825 36.9414 11.2332 37.1602 11.4949C37.3789 11.7527 37.6523 11.8816 37.9805 11.8816C38.2969 11.8816 38.5625 11.7566 38.7773 11.5066C38.9961 11.2566 39.1055 10.8894 39.1055 10.405Z" fill="white"/>
<defs>
<linearGradient id="paint0_linear_67_1953" x1="25.5" y1="1.98901" x2="25.5" y2="21.989" gradientUnits="userSpaceOnUse">
<stop stop-color="#92C976"/>
<stop offset="1" stop-color="#4D1E2B"/>
</linearGradient>
</defs>
</svg>
