<svg width="60" height="24" viewBox="0 0 60 24" fill="none" xmlns="http://www.w3.org/2000/svg">
<rect x="2" y="1.98901" width="57" height="20" rx="10" fill="url(#paint0_linear_67_1963)"/>
<rect x="2" y="1.98901" width="57" height="20" rx="10" stroke="#3097DC" stroke-width="3" stroke-linejoin="round"/>
<path d="M9.59375 13.1941L11.2812 13.03C11.3828 13.5964 11.5879 14.0125 11.8965 14.2781C12.209 14.5437 12.6289 14.6765 13.1562 14.6765C13.7148 14.6765 14.1348 14.5593 14.416 14.325C14.7012 14.0867 14.8438 13.8093 14.8438 13.4929C14.8438 13.2898 14.7832 13.1179 14.6621 12.9773C14.5449 12.8328 14.3379 12.7078 14.041 12.6023C13.8379 12.532 13.375 12.407 12.6523 12.2273C11.7227 11.9968 11.0703 11.7136 10.6953 11.3777C10.168 10.905 9.9043 10.3289 9.9043 9.64917C9.9043 9.21167 10.0273 8.80347 10.2734 8.42456C10.5234 8.04175 10.8809 7.75073 11.3457 7.55151C11.8145 7.35229 12.3789 7.25269 13.0391 7.25269C14.1172 7.25269 14.9277 7.48901 15.4707 7.96167C16.0176 8.43433 16.3047 9.06519 16.332 9.85425L14.5977 9.93042C14.5234 9.48901 14.3633 9.17261 14.1172 8.9812C13.875 8.78589 13.5098 8.68823 13.0215 8.68823C12.5176 8.68823 12.123 8.79175 11.8379 8.99878C11.6543 9.13159 11.5625 9.30933 11.5625 9.53198C11.5625 9.73511 11.6484 9.90894 11.8203 10.0535C12.0391 10.2371 12.5703 10.4285 13.4141 10.6277C14.2578 10.8269 14.8809 11.0339 15.2832 11.2488C15.6895 11.4597 16.0059 11.7507 16.2324 12.1218C16.4629 12.489 16.5781 12.9441 16.5781 13.4871C16.5781 13.9792 16.4414 14.4402 16.168 14.8699C15.8945 15.2996 15.5078 15.6199 15.0078 15.8308C14.5078 16.0378 13.8848 16.1414 13.1387 16.1414C12.0527 16.1414 11.2188 15.8914 10.6367 15.3914C10.0547 14.8875 9.70703 14.155 9.59375 13.1941ZM18.0137 15.989V7.39917H20.6094L22.168 13.2585L23.709 7.39917H26.3105V15.989H24.6992V9.22729L22.9941 15.989H21.3242L19.625 9.22729V15.989H18.0137ZM28.0215 7.39917H29.7559V12.0515C29.7559 12.7898 29.7773 13.2683 29.8203 13.4871C29.8945 13.8386 30.0703 14.1218 30.3477 14.3367C30.6289 14.5476 31.0117 14.6531 31.4961 14.6531C31.9883 14.6531 32.3594 14.5535 32.6094 14.3542C32.8594 14.1511 33.0098 13.9031 33.0605 13.6101C33.1113 13.3171 33.1367 12.8308 33.1367 12.1511V7.39917H34.8711V11.9109C34.8711 12.9421 34.8242 13.6707 34.7305 14.0964C34.6367 14.5222 34.4629 14.8816 34.209 15.1746C33.959 15.4675 33.623 15.7019 33.2012 15.8777C32.7793 16.0496 32.2285 16.1355 31.5488 16.1355C30.7285 16.1355 30.1055 16.0417 29.6797 15.8542C29.2578 15.6628 28.9238 15.4167 28.6777 15.116C28.4316 14.8113 28.2695 14.4929 28.1914 14.1609C28.0781 13.6687 28.0215 12.9421 28.0215 11.9812V7.39917ZM36.7109 15.989V7.39917H40.3613C41.2793 7.39917 41.9453 7.47729 42.3594 7.63354C42.7773 7.78589 43.1113 8.05933 43.3613 8.45386C43.6113 8.84839 43.7363 9.29956 43.7363 9.80737C43.7363 10.4519 43.5469 10.9851 43.168 11.407C42.7891 11.825 42.2227 12.0886 41.4688 12.198C41.8438 12.4167 42.1523 12.657 42.3945 12.9187C42.6406 13.1804 42.9707 13.6453 43.3848 14.3132L44.4336 15.989H42.3594L41.1055 14.1199C40.6602 13.4519 40.3555 13.032 40.1914 12.8601C40.0273 12.6843 39.8535 12.5652 39.6699 12.5027C39.4863 12.4363 39.1953 12.4031 38.7969 12.4031H38.4453V15.989H36.7109ZM38.4453 11.032H39.7285C40.5605 11.032 41.0801 10.9968 41.2871 10.9265C41.4941 10.8562 41.6562 10.7351 41.7734 10.5632C41.8906 10.3914 41.9492 10.1765 41.9492 9.9187C41.9492 9.62964 41.8711 9.39722 41.7148 9.22144C41.5625 9.04175 41.3457 8.92847 41.0645 8.88159C40.9238 8.86206 40.502 8.85229 39.7988 8.85229H38.4453V11.032ZM45.3887 15.989V7.39917H51.2773V8.85229H47.123V10.8855H50.709V12.3386H47.123V15.989H45.3887Z" fill="white"/>
<defs>
<linearGradient id="paint0_linear_67_1963" x1="30.5" y1="1.98901" x2="30.5" y2="21.989" gradientUnits="userSpaceOnUse">
<stop stop-color="#536BD5"/>
<stop offset="1" stop-color="#3097DC"/>
</linearGradient>
</defs>
</svg>
