<svg width="88" height="24" viewBox="0 0 88 24" fill="none" xmlns="http://www.w3.org/2000/svg">
<rect x="1" y="1.98901" width="86" height="20" rx="10" fill="url(#paint0_linear_83_1969)"/>
<rect x="1" y="1.98901" width="86" height="20" rx="10" stroke="#5C87D6" stroke-width="3" stroke-linejoin="round"/>
<path d="M11.1172 15.989V8.85229H8.56836V7.39917H15.3945V8.85229H12.8516V15.989H11.1172ZM23.375 15.989H21.4883L20.7383 14.0378H17.3047L16.5957 15.989H14.7559L18.1016 7.39917H19.9355L23.375 15.989ZM20.1816 12.5906L18.998 9.40308L17.8379 12.5906H20.1816ZM27.1953 15.989V7.39917H29.9785C31.0332 7.39917 31.7207 7.44214 32.041 7.52808C32.5332 7.65698 32.9453 7.93823 33.2773 8.37183C33.6094 8.80151 33.7754 9.35815 33.7754 10.0417C33.7754 10.5691 33.6797 11.0125 33.4883 11.3718C33.2969 11.7312 33.0527 12.0144 32.7559 12.2214C32.4629 12.4246 32.1641 12.5593 31.8594 12.6257C31.4453 12.7078 30.8457 12.7488 30.0605 12.7488H28.9297V15.989H27.1953ZM28.9297 8.85229V11.2898H29.8789C30.5625 11.2898 31.0195 11.2449 31.25 11.155C31.4805 11.0652 31.6602 10.9246 31.7891 10.7332C31.9219 10.5417 31.9883 10.3191 31.9883 10.0652C31.9883 9.75269 31.8965 9.49487 31.7129 9.29175C31.5293 9.08862 31.2969 8.96167 31.0156 8.91089C30.8086 8.87183 30.3926 8.85229 29.7676 8.85229H28.9297ZM35.2051 15.989V7.39917H38.8555C39.7734 7.39917 40.4395 7.47729 40.8535 7.63354C41.2715 7.78589 41.6055 8.05933 41.8555 8.45386C42.1055 8.84839 42.2305 9.29956 42.2305 9.80737C42.2305 10.4519 42.041 10.9851 41.6621 11.407C41.2832 11.825 40.7168 12.0886 39.9629 12.198C40.3379 12.4167 40.6465 12.657 40.8887 12.9187C41.1348 13.1804 41.4648 13.6453 41.8789 14.3132L42.9277 15.989H40.8535L39.5996 14.1199C39.1543 13.4519 38.8496 13.032 38.6855 12.8601C38.5215 12.6843 38.3477 12.5652 38.1641 12.5027C37.9805 12.4363 37.6895 12.4031 37.291 12.4031H36.9395V15.989H35.2051ZM36.9395 11.032H38.2227C39.0547 11.032 39.5742 10.9968 39.7812 10.9265C39.9883 10.8562 40.1504 10.7351 40.2676 10.5632C40.3848 10.3914 40.4434 10.1765 40.4434 9.9187C40.4434 9.62964 40.3652 9.39722 40.209 9.22144C40.0566 9.04175 39.8398 8.92847 39.5586 8.88159C39.418 8.86206 38.9961 8.85229 38.293 8.85229H36.9395V11.032ZM43.5195 11.7468C43.5195 10.8718 43.6504 10.1375 43.9121 9.5437C44.1074 9.1062 44.373 8.71362 44.709 8.36597C45.0488 8.01831 45.4199 7.7605 45.8223 7.59253C46.3574 7.36597 46.9746 7.25269 47.6738 7.25269C48.9395 7.25269 49.9512 7.64526 50.709 8.43042C51.4707 9.21558 51.8516 10.3074 51.8516 11.7058C51.8516 13.0925 51.4746 14.1785 50.7207 14.9636C49.9668 15.7449 48.959 16.1355 47.6973 16.1355C46.4199 16.1355 45.4043 15.7468 44.6504 14.9695C43.8965 14.1882 43.5195 13.114 43.5195 11.7468ZM45.3066 11.6882C45.3066 12.6609 45.5312 13.3992 45.9805 13.9031C46.4297 14.4031 47 14.6531 47.6914 14.6531C48.3828 14.6531 48.9492 14.405 49.3906 13.9089C49.8359 13.4089 50.0586 12.6609 50.0586 11.6648C50.0586 10.6804 49.8418 9.94604 49.4082 9.46167C48.9785 8.97729 48.4062 8.73511 47.6914 8.73511C46.9766 8.73511 46.4004 8.9812 45.9629 9.47339C45.5254 9.96167 45.3066 10.7 45.3066 11.6882ZM55.1445 15.989V8.85229H52.5957V7.39917H59.4219V8.85229H56.8789V15.989H55.1445ZM60.5469 15.989V7.39917H66.916V8.85229H62.2812V10.7566H66.5938V12.2039H62.2812V14.5417H67.0801V15.989H60.5469ZM68.498 15.989V7.39917H70.2324V15.989H68.498ZM71.9082 15.989V7.39917H73.5957L77.1113 13.1355V7.39917H78.7227V15.989H76.9824L73.5195 10.3875V15.989H71.9082Z" fill="white"/>
<defs>
<linearGradient id="paint0_linear_83_1969" x1="44" y1="1.98901" x2="44" y2="21.989" gradientUnits="userSpaceOnUse">
<stop stop-color="#5C87D6"/>
<stop offset="1" stop-color="#D62B00"/>
</linearGradient>
</defs>
</svg>
