<svg width="65" height="24" viewBox="0 0 65 24" fill="none" xmlns="http://www.w3.org/2000/svg">
<rect x="2" y="1.98901" width="62" height="20" rx="10" fill="url(#paint0_linear_85_2082)"/>
<rect x="2" y="1.98901" width="62" height="20" rx="10" stroke="#AE486A" stroke-width="3" stroke-linejoin="round"/>
<path d="M10.1719 7.39917H11.9062V12.0515C11.9062 12.7898 11.9277 13.2683 11.9707 13.4871C12.0449 13.8386 12.2207 14.1218 12.498 14.3367C12.7793 14.5476 13.1621 14.6531 13.6465 14.6531C14.1387 14.6531 14.5098 14.5535 14.7598 14.3542C15.0098 14.1511 15.1602 13.9031 15.2109 13.6101C15.2617 13.3171 15.2871 12.8308 15.2871 12.1511V7.39917H17.0215V11.9109C17.0215 12.9421 16.9746 13.6707 16.8809 14.0964C16.7871 14.5222 16.6133 14.8816 16.3594 15.1746C16.1094 15.4675 15.7734 15.7019 15.3516 15.8777C14.9297 16.0496 14.3789 16.1355 13.6992 16.1355C12.8789 16.1355 12.2559 16.0417 11.8301 15.8542C11.4082 15.6628 11.0742 15.4167 10.8281 15.116C10.582 14.8113 10.4199 14.4929 10.3418 14.1609C10.2285 13.6687 10.1719 12.9421 10.1719 11.9812V7.39917ZM18.8613 7.39917H22.2949C22.9746 7.39917 23.4805 7.42847 23.8125 7.48706C24.1484 7.54175 24.4473 7.65894 24.709 7.83862C24.9746 8.01831 25.1953 8.25854 25.3711 8.55933C25.5469 8.8562 25.6348 9.19019 25.6348 9.56128C25.6348 9.96362 25.5254 10.3328 25.3066 10.6687C25.0918 11.0046 24.7988 11.2566 24.4277 11.4246C24.9512 11.5769 25.3535 11.8367 25.6348 12.2039C25.916 12.571 26.0566 13.0027 26.0566 13.4988C26.0566 13.8894 25.9648 14.2703 25.7812 14.6414C25.6016 15.0085 25.3535 15.3035 25.0371 15.5261C24.7246 15.7449 24.3379 15.8796 23.877 15.9304C23.5879 15.9617 22.8906 15.9812 21.7852 15.989H18.8613V7.39917ZM20.5957 8.82886V10.8152H21.7324C22.4082 10.8152 22.8281 10.8054 22.9922 10.7859C23.2891 10.7507 23.5215 10.6492 23.6895 10.4812C23.8613 10.3093 23.9473 10.0847 23.9473 9.80737C23.9473 9.54175 23.873 9.3269 23.7246 9.16284C23.5801 8.99487 23.3633 8.89331 23.0742 8.85815C22.9023 8.83862 22.4082 8.82886 21.5918 8.82886H20.5957ZM20.5957 12.2449V14.5417H22.2012C22.8262 14.5417 23.2227 14.5242 23.3906 14.489C23.6484 14.4421 23.8574 14.3289 24.0176 14.1492C24.1816 13.9656 24.2637 13.7214 24.2637 13.4167C24.2637 13.1589 24.2012 12.9402 24.0762 12.7605C23.9512 12.5808 23.7695 12.45 23.5312 12.3679C23.2969 12.2859 22.7852 12.2449 21.9961 12.2449H20.5957ZM27.5273 15.989V7.39917H33.8965V8.85229H29.2617V10.7566H33.5742V12.2039H29.2617V14.5417H34.0605V15.989H27.5273ZM40.7285 14.4597V15.989H34.957C35.0195 15.4109 35.207 14.864 35.5195 14.3484C35.832 13.8289 36.4492 13.1414 37.3711 12.2859C38.1133 11.5945 38.5684 11.1257 38.7363 10.8796C38.9629 10.5398 39.0762 10.2039 39.0762 9.87183C39.0762 9.50464 38.9766 9.22339 38.7773 9.02808C38.582 8.82886 38.3105 8.72925 37.9629 8.72925C37.6191 8.72925 37.3457 8.83276 37.1426 9.03979C36.9395 9.24683 36.8223 9.59058 36.791 10.071L35.1504 9.90698C35.248 9.00073 35.5547 8.35034 36.0703 7.95581C36.5859 7.56128 37.2305 7.36401 38.0039 7.36401C38.8516 7.36401 39.5176 7.59253 40.002 8.04956C40.4863 8.50659 40.7285 9.07495 40.7285 9.75464C40.7285 10.1414 40.6582 10.5105 40.5176 10.8621C40.3809 11.2097 40.1621 11.575 39.8613 11.9578C39.6621 12.2117 39.3027 12.5769 38.7832 13.0535C38.2637 13.53 37.9336 13.8464 37.793 14.0027C37.6562 14.1589 37.5449 14.3113 37.459 14.4597H40.7285ZM42.2051 7.39917H45.375C46.0898 7.39917 46.6348 7.45386 47.0098 7.56323C47.5137 7.71167 47.9453 7.97534 48.3047 8.35425C48.6641 8.73315 48.9375 9.198 49.125 9.74878C49.3125 10.2957 49.4062 10.9714 49.4062 11.7761C49.4062 12.4832 49.3184 13.0925 49.1426 13.6042C48.9277 14.2292 48.6211 14.7351 48.2227 15.1218C47.9219 15.4148 47.5156 15.6433 47.0039 15.8074C46.6211 15.9285 46.1094 15.989 45.4688 15.989H42.2051V7.39917ZM43.9395 8.85229V14.5417H45.2344C45.7188 14.5417 46.0684 14.5144 46.2832 14.4597C46.5645 14.3894 46.7969 14.2703 46.9805 14.1023C47.168 13.9343 47.3203 13.6589 47.4375 13.2761C47.5547 12.8894 47.6133 12.364 47.6133 11.7C47.6133 11.0359 47.5547 10.5261 47.4375 10.1707C47.3203 9.81519 47.1562 9.53784 46.9453 9.33862C46.7344 9.1394 46.4668 9.00464 46.1426 8.93433C45.9004 8.87964 45.4258 8.85229 44.7188 8.85229H43.9395ZM54.7324 15.989H53.0859V9.78394C52.4844 10.3464 51.7754 10.7625 50.959 11.032V9.53784C51.3887 9.39722 51.8555 9.13159 52.3594 8.74097C52.8633 8.34644 53.209 7.88745 53.3965 7.36401H54.7324V15.989Z" fill="white"/>
<defs>
<linearGradient id="paint0_linear_85_2082" x1="33" y1="1.98901" x2="33" y2="21.989" gradientUnits="userSpaceOnUse">
<stop stop-color="#AE486A"/>
<stop offset="1" stop-color="#00439B"/>
</linearGradient>
</defs>
</svg>
