<svg width="53" height="23" viewBox="0 0 53 23" fill="none" xmlns="http://www.w3.org/2000/svg">
<path d="M1 11.989C1 6.46617 5.47715 1.98901 11 1.98901H51C51.5523 1.98901 52 2.43673 52 2.98901V20.989C52 21.5413 51.5523 21.989 51 21.989H11C5.47715 21.989 1 17.5119 1 11.989Z" fill="url(#paint0_linear_97_5806)"/>
<path d="M1 11.989C1 6.46617 5.47715 1.98901 11 1.98901H51C51.5523 1.98901 52 2.43673 52 2.98901V20.989C52 21.5413 51.5523 21.989 51 21.989H11C5.47715 21.989 1 17.5119 1 11.989Z" stroke="#0D50BC" stroke-width="2" stroke-linejoin="round"/>
<path d="M9.37305 15.989V7.39917H11.1074V10.78H14.5059V7.39917H16.2402V15.989H14.5059V12.2332H11.1074V15.989H9.37305ZM19.668 7.39917V10.5574C20.1992 9.93628 20.834 9.62573 21.5723 9.62573C21.9512 9.62573 22.293 9.69604 22.5977 9.83667C22.9023 9.97729 23.1309 10.157 23.2832 10.3757C23.4395 10.5945 23.5449 10.8367 23.5996 11.1023C23.6582 11.3679 23.6875 11.78 23.6875 12.3386V15.989H22.041V12.7019C22.041 12.0496 22.0098 11.6355 21.9473 11.4597C21.8848 11.2839 21.7734 11.1453 21.6133 11.0437C21.457 10.9382 21.2598 10.8855 21.0215 10.8855C20.748 10.8855 20.5039 10.9519 20.2891 11.0847C20.0742 11.2175 19.916 11.4187 19.8145 11.6882C19.7168 11.9539 19.668 12.3484 19.668 12.8718V15.989H18.0215V7.39917H19.668ZM25.1758 13.698V12.0515H28.4102V13.698H25.1758ZM29.3887 15.989V7.39917H31.0762L34.5918 13.1355V7.39917H36.2031V15.989H34.4629L31 10.3875V15.989H29.3887ZM37.9844 9.76636H39.5195V10.6804C39.7188 10.3679 39.9883 10.114 40.3281 9.9187C40.668 9.72339 41.0449 9.62573 41.459 9.62573C42.1816 9.62573 42.7949 9.90894 43.2988 10.4753C43.8027 11.0417 44.0547 11.8308 44.0547 12.8425C44.0547 13.8816 43.8008 14.6902 43.293 15.2683C42.7852 15.8425 42.1699 16.1296 41.4473 16.1296C41.1035 16.1296 40.791 16.0613 40.5098 15.9246C40.2324 15.7878 39.9395 15.5535 39.6309 15.2214V18.3562H37.9844V9.76636ZM39.6133 12.7722C39.6133 13.4714 39.752 13.989 40.0293 14.325C40.3066 14.657 40.6445 14.823 41.043 14.823C41.4258 14.823 41.7441 14.6707 41.998 14.366C42.252 14.0574 42.3789 13.5535 42.3789 12.8542C42.3789 12.2019 42.248 11.7175 41.9863 11.4011C41.7246 11.0847 41.4004 10.9265 41.0137 10.9265C40.6113 10.9265 40.2773 11.0828 40.0117 11.3953C39.7461 11.7039 39.6133 12.1628 39.6133 12.7722Z" fill="white"/>
<defs>
<linearGradient id="paint0_linear_97_5806" x1="26.5" y1="1.98901" x2="26.5" y2="21.989" gradientUnits="userSpaceOnUse">
<stop stop-color="#4DC7B4"/>
<stop offset="1" stop-color="#0D50BC"/>
</linearGradient>
</defs>
</svg>
