<svg width="53" height="24" viewBox="0 0 53 24" fill="none" xmlns="http://www.w3.org/2000/svg">
<rect x="2" y="1.98901" width="50" height="20" rx="10" fill="url(#paint0_linear_66_2016)"/>
<rect x="2" y="1.98901" width="50" height="20" rx="10" stroke="#00378F" stroke-width="3" stroke-linejoin="round"/>
<path d="M10.1309 9.76636H11.666V10.6804C11.8652 10.3679 12.1348 10.114 12.4746 9.9187C12.8145 9.72339 13.1914 9.62573 13.6055 9.62573C14.3281 9.62573 14.9414 9.90894 15.4453 10.4753C15.9492 11.0417 16.2012 11.8308 16.2012 12.8425C16.2012 13.8816 15.9473 14.6902 15.4395 15.2683C14.9316 15.8425 14.3164 16.1296 13.5938 16.1296C13.25 16.1296 12.9375 16.0613 12.6562 15.9246C12.3789 15.7878 12.0859 15.5535 11.7773 15.2214V18.3562H10.1309V9.76636ZM11.7598 12.7722C11.7598 13.4714 11.8984 13.989 12.1758 14.325C12.4531 14.657 12.791 14.823 13.1895 14.823C13.5723 14.823 13.8906 14.6707 14.1445 14.366C14.3984 14.0574 14.5254 13.5535 14.5254 12.8542C14.5254 12.2019 14.3945 11.7175 14.1328 11.4011C13.8711 11.0847 13.5469 10.9265 13.1602 10.9265C12.7578 10.9265 12.4238 11.0828 12.1582 11.3953C11.8926 11.7039 11.7598 12.1628 11.7598 12.7722ZM17.4668 9.76636H19.002V10.6804C19.2012 10.3679 19.4707 10.114 19.8105 9.9187C20.1504 9.72339 20.5273 9.62573 20.9414 9.62573C21.6641 9.62573 22.2773 9.90894 22.7812 10.4753C23.2852 11.0417 23.5371 11.8308 23.5371 12.8425C23.5371 13.8816 23.2832 14.6902 22.7754 15.2683C22.2676 15.8425 21.6523 16.1296 20.9297 16.1296C20.5859 16.1296 20.2734 16.0613 19.9922 15.9246C19.7148 15.7878 19.4219 15.5535 19.1133 15.2214V18.3562H17.4668V9.76636ZM19.0957 12.7722C19.0957 13.4714 19.2344 13.989 19.5117 14.325C19.7891 14.657 20.127 14.823 20.5254 14.823C20.9082 14.823 21.2266 14.6707 21.4805 14.366C21.7344 14.0574 21.8613 13.5535 21.8613 12.8542C21.8613 12.2019 21.7305 11.7175 21.4688 11.4011C21.207 11.0847 20.8828 10.9265 20.4961 10.9265C20.0938 10.9265 19.7598 11.0828 19.4941 11.3953C19.2285 11.7039 19.0957 12.1628 19.0957 12.7722ZM28.7109 15.989H27.0645V9.78394C26.4629 10.3464 25.7539 10.7625 24.9375 11.032V9.53784C25.3672 9.39722 25.834 9.13159 26.3379 8.74097C26.8418 8.34644 27.1875 7.88745 27.375 7.36401H28.7109V15.989ZM32.7598 11.6648L31.2656 11.3953C31.4336 10.7937 31.7227 10.3484 32.1328 10.0593C32.543 9.77026 33.1523 9.62573 33.9609 9.62573C34.6953 9.62573 35.2422 9.71362 35.6016 9.8894C35.9609 10.0613 36.2129 10.282 36.3574 10.5515C36.5059 10.8171 36.5801 11.3074 36.5801 12.0222L36.5625 13.9441C36.5625 14.491 36.5879 14.8953 36.6387 15.157C36.6934 15.4148 36.793 15.6921 36.9375 15.989H35.3086C35.2656 15.8796 35.2129 15.7175 35.1504 15.5027C35.123 15.405 35.1035 15.3406 35.0918 15.3093C34.8105 15.5828 34.5098 15.7878 34.1895 15.9246C33.8691 16.0613 33.5273 16.1296 33.1641 16.1296C32.5234 16.1296 32.0176 15.9558 31.6465 15.6082C31.2793 15.2605 31.0957 14.821 31.0957 14.2898C31.0957 13.9382 31.1797 13.6257 31.3477 13.3523C31.5156 13.075 31.75 12.864 32.0508 12.7195C32.3555 12.571 32.793 12.4421 33.3633 12.3328C34.1328 12.1882 34.666 12.0535 34.9629 11.9285V11.7644C34.9629 11.448 34.8848 11.2234 34.7285 11.0906C34.5723 10.9539 34.2773 10.8855 33.8438 10.8855C33.5508 10.8855 33.3223 10.9441 33.1582 11.0613C32.9941 11.1746 32.8613 11.3757 32.7598 11.6648ZM34.9629 13.0007C34.752 13.071 34.418 13.155 33.9609 13.2527C33.5039 13.3503 33.2051 13.446 33.0645 13.5398C32.8496 13.6921 32.7422 13.8855 32.7422 14.1199C32.7422 14.3503 32.8281 14.5496 33 14.7175C33.1719 14.8855 33.3906 14.9695 33.6562 14.9695C33.9531 14.9695 34.2363 14.8718 34.5059 14.6765C34.7051 14.5281 34.8359 14.3464 34.8984 14.1316C34.9414 13.991 34.9629 13.7234 34.9629 13.3289V13.0007ZM38.1387 15.989V7.39917H39.7852V10.4929C40.293 9.91479 40.8945 9.62573 41.5898 9.62573C42.3477 9.62573 42.9746 9.90112 43.4707 10.4519C43.9668 10.9988 44.2148 11.7859 44.2148 12.8132C44.2148 13.8757 43.9609 14.6941 43.4531 15.2683C42.9492 15.8425 42.3359 16.1296 41.6133 16.1296C41.2578 16.1296 40.9062 16.0417 40.5586 15.866C40.2148 15.6863 39.918 15.4226 39.668 15.075V15.989H38.1387ZM39.7734 12.7429C39.7734 13.3875 39.875 13.864 40.0781 14.1726C40.3633 14.6101 40.7422 14.8289 41.2148 14.8289C41.5781 14.8289 41.8867 14.6746 42.1406 14.366C42.3984 14.0535 42.5273 13.5632 42.5273 12.8953C42.5273 12.1843 42.3984 11.6726 42.1406 11.3601C41.8828 11.0437 41.5527 10.8855 41.1504 10.8855C40.7559 10.8855 40.4277 11.0398 40.166 11.3484C39.9043 11.6531 39.7734 12.1179 39.7734 12.7429Z" fill="white"/>
<defs>
<linearGradient id="paint0_linear_66_2016" x1="27" y1="1.98901" x2="27" y2="21.989" gradientUnits="userSpaceOnUse">
<stop stop-color="#67EBA1"/>
<stop offset="1" stop-color="#00378F"/>
</linearGradient>
</defs>
</svg>
