<svg width="52" height="24" viewBox="0 0 52 24" fill="none" xmlns="http://www.w3.org/2000/svg">
<rect x="2" y="1.98901" width="49" height="20" rx="10" fill="url(#paint0_linear_38_1854)"/>
<rect x="2" y="1.98901" width="49" height="20" rx="10" stroke="#CF5975" stroke-width="3" stroke-linejoin="round"/>
<path d="M15.5254 12.8308L17.207 13.364C16.9492 14.3015 16.5195 14.9988 15.918 15.4558C15.3203 15.9089 14.5605 16.1355 13.6387 16.1355C12.498 16.1355 11.5605 15.7468 10.8262 14.9695C10.0918 14.1882 9.72461 13.1218 9.72461 11.7703C9.72461 10.3406 10.0938 9.2312 10.832 8.44214C11.5703 7.64917 12.541 7.25269 13.7441 7.25269C14.7949 7.25269 15.6484 7.56323 16.3047 8.18433C16.6953 8.55151 16.9883 9.07886 17.1836 9.76636L15.4668 10.1765C15.3652 9.7312 15.1523 9.37964 14.8281 9.12183C14.5078 8.86401 14.1172 8.73511 13.6562 8.73511C13.0195 8.73511 12.502 8.96362 12.1035 9.42065C11.709 9.87769 11.5117 10.6179 11.5117 11.6414C11.5117 12.7273 11.707 13.5007 12.0977 13.9617C12.4883 14.4226 12.9961 14.6531 13.6211 14.6531C14.082 14.6531 14.4785 14.5066 14.8105 14.2136C15.1426 13.9207 15.3809 13.4597 15.5254 12.8308ZM24.1973 12.8308L25.8789 13.364C25.6211 14.3015 25.1914 14.9988 24.5898 15.4558C23.9922 15.9089 23.2324 16.1355 22.3105 16.1355C21.1699 16.1355 20.2324 15.7468 19.498 14.9695C18.7637 14.1882 18.3965 13.1218 18.3965 11.7703C18.3965 10.3406 18.7656 9.2312 19.5039 8.44214C20.2422 7.64917 21.2129 7.25269 22.416 7.25269C23.4668 7.25269 24.3203 7.56323 24.9766 8.18433C25.3672 8.55151 25.6602 9.07886 25.8555 9.76636L24.1387 10.1765C24.0371 9.7312 23.8242 9.37964 23.5 9.12183C23.1797 8.86401 22.7891 8.73511 22.3281 8.73511C21.6914 8.73511 21.1738 8.96362 20.7754 9.42065C20.3809 9.87769 20.1836 10.6179 20.1836 11.6414C20.1836 12.7273 20.3789 13.5007 20.7695 13.9617C21.1602 14.4226 21.668 14.6531 22.293 14.6531C22.7539 14.6531 23.1504 14.5066 23.4824 14.2136C23.8145 13.9207 24.0527 13.4597 24.1973 12.8308ZM27.3906 15.989V7.39917H29.0781L32.5938 13.1355V7.39917H34.2051V15.989H32.4648L29.002 10.3875V15.989H27.3906ZM43.791 15.989H41.9043L41.1543 14.0378H37.7207L37.0117 15.989H35.1719L38.5176 7.39917H40.3516L43.791 15.989ZM40.5977 12.5906L39.4141 9.40308L38.2539 12.5906H40.5977Z" fill="white"/>
<defs>
<linearGradient id="paint0_linear_38_1854" x1="26.5" y1="1.98901" x2="26.5" y2="21.989" gradientUnits="userSpaceOnUse">
<stop stop-color="#CF5975"/>
<stop offset="1" stop-color="#1D4A08"/>
</linearGradient>
</defs>
</svg>
