<svg width="65" height="24" viewBox="0 0 65 24" fill="none" xmlns="http://www.w3.org/2000/svg">
<rect x="1" y="1.98901" width="63" height="20" rx="10" fill="url(#paint0_linear_64_1827)"/>
<rect x="1" y="1.98901" width="63" height="20" rx="10" stroke="#006781" stroke-width="3" stroke-linejoin="round"/>
<path d="M9.37305 15.989V7.39917H11.0605L14.5762 13.1355V7.39917H16.1875V15.989H14.4473L10.9844 10.3875V15.989H9.37305ZM18.0273 15.989V7.39917H24.3965V8.85229H19.7617V10.7566H24.0742V12.2039H19.7617V14.5417H24.5605V15.989H18.0273ZM26.0254 7.39917H29.1953C29.9102 7.39917 30.4551 7.45386 30.8301 7.56323C31.334 7.71167 31.7656 7.97534 32.125 8.35425C32.4844 8.73315 32.7578 9.198 32.9453 9.74878C33.1328 10.2957 33.2266 10.9714 33.2266 11.7761C33.2266 12.4832 33.1387 13.0925 32.9629 13.6042C32.748 14.2292 32.4414 14.7351 32.043 15.1218C31.7422 15.4148 31.3359 15.6433 30.8242 15.8074C30.4414 15.9285 29.9297 15.989 29.2891 15.989H26.0254V7.39917ZM27.7598 8.85229V14.5417H29.0547C29.5391 14.5417 29.8887 14.5144 30.1035 14.4597C30.3848 14.3894 30.6172 14.2703 30.8008 14.1023C30.9883 13.9343 31.1406 13.6589 31.2578 13.2761C31.375 12.8894 31.4336 12.364 31.4336 11.7C31.4336 11.0359 31.375 10.5261 31.2578 10.1707C31.1406 9.81519 30.9766 9.53784 30.7656 9.33862C30.5547 9.1394 30.2871 9.00464 29.9629 8.93433C29.7207 8.87964 29.2461 8.85229 28.5391 8.85229H27.7598ZM34.6973 7.39917H37.8672C38.582 7.39917 39.127 7.45386 39.502 7.56323C40.0059 7.71167 40.4375 7.97534 40.7969 8.35425C41.1562 8.73315 41.4297 9.198 41.6172 9.74878C41.8047 10.2957 41.8984 10.9714 41.8984 11.7761C41.8984 12.4832 41.8105 13.0925 41.6348 13.6042C41.4199 14.2292 41.1133 14.7351 40.7148 15.1218C40.4141 15.4148 40.0078 15.6433 39.4961 15.8074C39.1133 15.9285 38.6016 15.989 37.9609 15.989H34.6973V7.39917ZM36.4316 8.85229V14.5417H37.7266C38.2109 14.5417 38.5605 14.5144 38.7754 14.4597C39.0566 14.3894 39.2891 14.2703 39.4727 14.1023C39.6602 13.9343 39.8125 13.6589 39.9297 13.2761C40.0469 12.8894 40.1055 12.364 40.1055 11.7C40.1055 11.0359 40.0469 10.5261 39.9297 10.1707C39.8125 9.81519 39.6484 9.53784 39.4375 9.33862C39.2266 9.1394 38.959 9.00464 38.6348 8.93433C38.3926 8.87964 37.918 8.85229 37.2109 8.85229H36.4316ZM46.2402 15.989V14.2605H42.7246V12.8191L46.4512 7.36401H47.834V12.8132H48.9004V14.2605H47.834V15.989H46.2402ZM46.2402 12.8132V9.87769L44.2656 12.8132H46.2402ZM50.1016 15.989V7.46948H51.8359V14.5417H56.1484V15.989H50.1016Z" fill="white"/>
<defs>
<linearGradient id="paint0_linear_64_1827" x1="32.5" y1="1.98901" x2="32.5" y2="21.989" gradientUnits="userSpaceOnUse">
<stop stop-color="#00FF85"/>
<stop offset="1" stop-color="#006781"/>
</linearGradient>
</defs>
</svg>
