<svg width="89" height="46" viewBox="0 0 89 46" fill="none" xmlns="http://www.w3.org/2000/svg">
<path d="M70.1519 4.32464V10.2408C70.1519 12.1615 68.5949 13.7185 66.6742 13.7185H21.6187C19.698 13.7185 18.141 12.1615 18.141 10.2408V4.32454C18.141 1.55114 15.0654 -0.0852614 12.7382 1.42334C4.88414 6.51484 0.0339355 13.5046 0.0339355 21.2213C0.0339355 36.7988 19.7838 45.4266 44.1464 45.4266C68.5091 45.4266 88.2589 36.7988 88.2589 21.2213C88.2589 13.5047 83.4088 6.51484 75.5546 1.42334C73.2276 -0.0852614 70.1519 1.55124 70.1519 4.32464Z" fill="url(#paint0_radial_90_4526)"/>
<path d="M20.8834 30.8933V22.3035H23.4791L25.0377 28.1628L26.5787 22.3035H29.1803V30.8933H27.569V24.1316L25.8639 30.8933H24.194L22.4948 24.1316V30.8933H20.8834ZM30.9088 22.3035H34.3424C35.0221 22.3035 35.528 22.3328 35.86 22.3914C36.1959 22.446 36.4948 22.5632 36.7565 22.7429C37.0221 22.9226 37.2428 23.1628 37.4186 23.4636C37.5944 23.7605 37.6823 24.0945 37.6823 24.4656C37.6823 24.8679 37.5729 25.2371 37.3541 25.573C37.1393 25.9089 36.8463 26.1609 36.4752 26.3289C36.9987 26.4812 37.401 26.741 37.6823 27.1082C37.9635 27.4753 38.1041 27.907 38.1041 28.4031C38.1041 28.7937 38.0123 29.1746 37.8287 29.5457C37.649 29.9128 37.401 30.2078 37.0846 30.4304C36.7721 30.6492 36.3854 30.7839 35.9244 30.8347C35.6354 30.866 34.9381 30.8855 33.8326 30.8933H30.9088V22.3035ZM32.6432 23.7332V25.7195H33.7799C34.4557 25.7195 34.8756 25.7097 35.0397 25.6902C35.3365 25.655 35.569 25.5535 35.7369 25.3855C35.9088 25.2136 35.9948 24.989 35.9948 24.7117C35.9948 24.446 35.9205 24.2312 35.7721 24.0671C35.6276 23.8992 35.4108 23.7976 35.1217 23.7625C34.9498 23.7429 34.4557 23.7332 33.6393 23.7332H32.6432ZM32.6432 27.1492V29.446H34.2487C34.8737 29.446 35.2701 29.4285 35.4381 29.3933C35.6959 29.3464 35.9049 29.2332 36.0651 29.0535C36.2291 28.8699 36.3112 28.6257 36.3112 28.321C36.3112 28.0632 36.2487 27.8445 36.1237 27.6648C35.9987 27.4851 35.817 27.3542 35.5787 27.2722C35.3444 27.1902 34.8326 27.1492 34.0436 27.1492H32.6432ZM44.7721 29.364V30.8933H39.0006C39.0631 30.3152 39.2506 29.7683 39.5631 29.2527C39.8756 28.7332 40.4928 28.0457 41.4147 27.1902C42.1569 26.4988 42.6119 26.03 42.7799 25.7839C43.0065 25.4441 43.1198 25.1082 43.1198 24.7761C43.1198 24.4089 43.0201 24.1277 42.8209 23.9324C42.6256 23.7332 42.3541 23.6335 42.0065 23.6335C41.6627 23.6335 41.3893 23.7371 41.1862 23.9441C40.983 24.1511 40.8658 24.4949 40.8346 24.9753L39.194 24.8113C39.2916 23.905 39.5983 23.2546 40.1139 22.8601C40.6295 22.4656 41.274 22.2683 42.0475 22.2683C42.8951 22.2683 43.5612 22.4968 44.0455 22.9539C44.5299 23.4109 44.7721 23.9792 44.7721 24.6589C44.7721 25.0457 44.7018 25.4148 44.5612 25.7664C44.4244 26.114 44.2057 26.4792 43.9049 26.8621C43.7057 27.116 43.3463 27.4812 42.8268 27.9578C42.3073 28.4343 41.9772 28.7507 41.8365 28.907C41.6998 29.0632 41.5885 29.2156 41.5026 29.364H44.7721ZM50.1041 30.8933H48.4576V24.6882C47.8561 25.2507 47.1471 25.6667 46.3307 25.9363V24.4421C46.7604 24.3015 47.2272 24.0359 47.7311 23.6453C48.235 23.2507 48.5807 22.7917 48.7682 22.2683H50.1041V30.8933ZM52.9283 22.3035H56.0983C56.8131 22.3035 57.358 22.3582 57.733 22.4675C58.2369 22.616 58.6686 22.8796 59.028 23.2585C59.3873 23.6375 59.6608 24.1023 59.8483 24.6531C60.0358 25.2 60.1295 25.8757 60.1295 26.6804C60.1295 27.3875 60.0416 27.9968 59.8658 28.5085C59.651 29.1335 59.3444 29.6394 58.9459 30.0261C58.6451 30.3191 58.2389 30.5476 57.7272 30.7117C57.3444 30.8328 56.8326 30.8933 56.192 30.8933H52.9283V22.3035ZM54.6627 23.7566V29.446H55.9576C56.442 29.446 56.7916 29.4187 57.0065 29.364C57.2877 29.2937 57.5201 29.1746 57.7037 29.0066C57.8912 28.8386 58.0436 28.5632 58.1608 28.1804C58.278 27.7937 58.3365 27.2683 58.3365 26.6042C58.3365 25.9402 58.278 25.4304 58.1608 25.075C58.0436 24.7195 57.8795 24.4421 57.6686 24.2429C57.4576 24.0437 57.1901 23.9089 56.8658 23.8386C56.6237 23.7839 56.149 23.7566 55.442 23.7566H54.6627ZM65.4557 30.8933H63.8092V24.6882C63.2076 25.2507 62.4987 25.6667 61.6823 25.9363V24.4421C62.1119 24.3015 62.5787 24.0359 63.0826 23.6453C63.5865 23.2507 63.9323 22.7917 64.1198 22.2683H65.4557V30.8933Z" fill="white"/>
<defs>
<radialGradient id="paint0_radial_90_4526" cx="0" cy="0" r="1" gradientUnits="userSpaceOnUse" gradientTransform="translate(43.3911 -124.742) rotate(89.5416) scale(170.217 157.349)">
<stop offset="0.7524" stop-color="#3F0B45"/>
<stop offset="0.8699" stop-color="#CC5486"/>
<stop offset="0.8868" stop-color="#C45082"/>
<stop offset="0.9129" stop-color="#AF4578"/>
<stop offset="0.9449" stop-color="#8C3368"/>
<stop offset="0.9811" stop-color="#5B1A52"/>
<stop offset="1" stop-color="#3F0B45"/>
</radialGradient>
</defs>
</svg>
