<svg width="44" height="24" viewBox="0 0 44 24" fill="none" xmlns="http://www.w3.org/2000/svg">
<rect x="2" y="1.98901" width="41" height="20" rx="10" fill="url(#paint0_linear_45_4241)"/>
<rect x="2" y="1.98901" width="41" height="20" rx="10" stroke="#FFCA8C" stroke-width="3" stroke-linejoin="round"/>
<path d="M14.3613 12.8308V11.3835H18.0996V14.8054C17.7363 15.157 17.209 15.4675 16.5176 15.7371C15.8301 16.0027 15.1328 16.1355 14.4258 16.1355C13.5273 16.1355 12.7441 15.948 12.0762 15.573C11.4082 15.1941 10.9062 14.655 10.5703 13.9558C10.2344 13.2527 10.0664 12.489 10.0664 11.6648C10.0664 10.7703 10.2539 9.97534 10.6289 9.28003C11.0039 8.58472 11.5527 8.05151 12.2754 7.68042C12.8262 7.39526 13.5117 7.25269 14.332 7.25269C15.3984 7.25269 16.2305 7.47729 16.8281 7.92651C17.4297 8.37183 17.8164 8.98901 17.9883 9.77808L16.2656 10.1003C16.1445 9.67847 15.916 9.34644 15.5801 9.10425C15.248 8.85815 14.832 8.73511 14.332 8.73511C13.5742 8.73511 12.9707 8.97534 12.5215 9.45581C12.0762 9.93628 11.8535 10.6492 11.8535 11.5945C11.8535 12.614 12.0801 13.3796 12.5332 13.8914C12.9863 14.3992 13.5801 14.6531 14.3145 14.6531C14.6777 14.6531 15.041 14.5828 15.4043 14.4421C15.7715 14.2976 16.0859 14.1238 16.3477 13.9207V12.8308H14.3613ZM19.7227 15.989V7.39917H21.4102L24.9258 13.1355V7.39917H26.5371V15.989H24.7969L21.334 10.3875V15.989H19.7227ZM28.377 15.989V7.39917H34.7461V8.85229H30.1113V10.7566H34.4238V12.2039H30.1113V14.5417H34.9102V15.989H28.377Z" fill="white"/>
<defs>
<linearGradient id="paint0_linear_45_4241" x1="22.5" y1="21.989" x2="22.5" y2="1.98901" gradientUnits="userSpaceOnUse">
<stop stop-color="#FFCA8C"/>
<stop offset="1" stop-color="#2D501E"/>
</linearGradient>
</defs>
</svg>
