<svg width="50" height="24" viewBox="0 0 50 24" fill="none" xmlns="http://www.w3.org/2000/svg">
<rect x="2" y="1.98901" width="47" height="20" rx="10" fill="url(#paint0_linear_42_2619)"/>
<rect x="2" y="1.98901" width="47" height="20" rx="10" stroke="#8B67D0" stroke-width="3" stroke-linejoin="round"/>
<path d="M13.6113 14.0085L15.252 14.2839C15.041 14.8855 14.707 15.3445 14.25 15.6609C13.7969 15.9734 13.2285 16.1296 12.5449 16.1296C11.4629 16.1296 10.6621 15.7761 10.1426 15.0691C9.73242 14.5027 9.52734 13.7878 9.52734 12.9246C9.52734 11.8933 9.79688 11.0867 10.3359 10.5046C10.875 9.9187 11.5566 9.62573 12.3809 9.62573C13.3066 9.62573 14.0371 9.93237 14.5723 10.5457C15.1074 11.155 15.3633 12.0906 15.3398 13.3523H11.2148C11.2266 13.8406 11.3594 14.2214 11.6133 14.4949C11.8672 14.7644 12.1836 14.8992 12.5625 14.8992C12.8203 14.8992 13.0371 14.8289 13.2129 14.6882C13.3887 14.5476 13.5215 14.321 13.6113 14.0085ZM13.7051 12.3445C13.6934 11.8679 13.5703 11.5066 13.3359 11.2605C13.1016 11.0105 12.8164 10.8855 12.4805 10.8855C12.1211 10.8855 11.8242 11.0164 11.5898 11.2781C11.3555 11.5398 11.2402 11.8953 11.2441 12.3445H13.7051ZM16.6465 15.989V7.39917H18.3809V15.989H16.6465ZM20.0508 15.989V7.39917H25.9395V8.85229H21.7852V10.8855H25.3711V12.3386H21.7852V15.989H20.0508ZM30.2402 15.989V14.2605H26.7246V12.8191L30.4512 7.36401H31.834V12.8132H32.9004V14.2605H31.834V15.989H30.2402ZM30.2402 12.8132V9.87769L28.2656 12.8132H30.2402ZM41.8008 15.989H39.9141L39.1641 14.0378H35.7305L35.0215 15.989H33.1816L36.5273 7.39917H38.3613L41.8008 15.989ZM38.6074 12.5906L37.4238 9.40308L36.2637 12.5906H38.6074Z" fill="white"/>
<defs>
<linearGradient id="paint0_linear_42_2619" x1="25.5" y1="1.98901" x2="25.5" y2="21.989" gradientUnits="userSpaceOnUse">
<stop stop-color="#8B67D0"/>
<stop offset="1" stop-color="#C98500"/>
</linearGradient>
</defs>
</svg>
