<svg width="17" height="150" viewBox="0 0 17 150" fill="none" xmlns="http://www.w3.org/2000/svg">
<path d="M15.4683 149.394H1.8354C1.144 149.394 0.583496 148.834 0.583496 148.142V138.28C0.583496 137.588 1.144 137.028 1.8354 137.028H15.4684C16.1598 137.028 16.7203 137.588 16.7203 138.28V148.142C16.7202 148.834 16.1597 149.394 15.4683 149.394Z" fill="url(#paint0_linear_86_3944)"/>
<path d="M15.4683 149.394H1.8354C1.144 149.394 0.583496 148.834 0.583496 148.142V138.28C0.583496 137.588 1.144 137.028 1.8354 137.028H15.4684C16.1598 137.028 16.7203 137.588 16.7203 138.28V148.142C16.7202 148.834 16.1597 149.394 15.4683 149.394Z" fill="url(#paint1_linear_86_3944)"/>
<path d="M14.7202 137.028H2.5835C1.4789 137.028 0.583496 136.132 0.583496 135.028V107.464C0.583496 106.36 1.4789 105.464 2.5835 105.464H14.7202C15.8248 105.464 16.7202 106.36 16.7202 107.464V135.028C16.7202 136.132 15.8248 137.028 14.7202 137.028Z" fill="url(#paint2_linear_86_3944)"/>
<path d="M14.7202 137.028H2.5835C1.4789 137.028 0.583496 136.132 0.583496 135.028V107.464C0.583496 106.36 1.4789 105.464 2.5835 105.464H14.7202C15.8248 105.464 16.7202 106.36 16.7202 107.464V135.028C16.7202 136.132 15.8248 137.028 14.7202 137.028Z" fill="url(#paint3_linear_86_3944)"/>
<path d="M8.6518 105.464C13.1078 105.464 16.7201 103.107 16.7201 100.199C16.7201 97.2911 13.1078 94.9338 8.6518 94.9338C4.1958 94.9338 0.583496 97.2911 0.583496 100.199C0.583496 103.107 4.1958 105.464 8.6518 105.464Z" fill="url(#paint4_radial_86_3944)"/>
<path d="M14.7202 94.9337H2.5835C1.4789 94.9337 0.583496 94.0383 0.583496 92.9337V90.2253C0.583496 89.1207 1.4789 88.2253 2.5835 88.2253H14.7202C15.8248 88.2253 16.7202 89.1207 16.7202 90.2253V92.9337C16.7202 94.0383 15.8248 94.9337 14.7202 94.9337Z" fill="url(#paint5_linear_86_3944)"/>
<path d="M14.7202 94.9337H2.5835C1.4789 94.9337 0.583496 94.0383 0.583496 92.9337V90.2253C0.583496 89.1207 1.4789 88.2253 2.5835 88.2253H14.7202C15.8248 88.2253 16.7202 89.1207 16.7202 90.2253V92.9337C16.7202 94.0383 15.8248 94.9337 14.7202 94.9337Z" fill="url(#paint6_linear_86_3944)"/>
<path d="M8.65184 74.2969H4.19214V83.5843H8.65184V74.2969Z" fill="url(#paint7_linear_86_3944)"/>
<path d="M13.1116 78.9382H8.65186V88.2256H13.1116V78.9382Z" fill="url(#paint8_linear_86_3944)"/>
<path d="M14.7202 74.2968H2.5835C1.4789 74.2968 0.583496 73.4014 0.583496 72.2968V69.5884C0.583496 68.4838 1.4789 67.5884 2.5835 67.5884H14.7202C15.8248 67.5884 16.7202 68.4838 16.7202 69.5884V72.2968C16.7202 73.4014 15.8248 74.2968 14.7202 74.2968Z" fill="url(#paint9_linear_86_3944)"/>
<path d="M14.7202 74.2968H2.5835C1.4789 74.2968 0.583496 73.4014 0.583496 72.2968V69.5884C0.583496 68.4838 1.4789 67.5884 2.5835 67.5884H14.7202C15.8248 67.5884 16.7202 68.4838 16.7202 69.5884V72.2968C16.7202 73.4014 15.8248 74.2968 14.7202 74.2968Z" fill="url(#paint10_linear_86_3944)"/>
<path d="M14.7202 67.5885H2.5835C1.4789 67.5885 0.583496 66.6931 0.583496 65.5885V62.8801C0.583496 61.7755 1.4789 60.8801 2.5835 60.8801H14.7202C15.8248 60.8801 16.7202 61.7755 16.7202 62.8801V65.5885C16.7202 66.6931 15.8248 67.5885 14.7202 67.5885Z" fill="url(#paint11_linear_86_3944)"/>
<path d="M14.7202 67.5885H2.5835C1.4789 67.5885 0.583496 66.6931 0.583496 65.5885V62.8801C0.583496 61.7755 1.4789 60.8801 2.5835 60.8801H14.7202C15.8248 60.8801 16.7202 61.7755 16.7202 62.8801V65.5885C16.7202 66.6931 15.8248 67.5885 14.7202 67.5885Z" fill="url(#paint12_linear_86_3944)"/>
<path d="M14.7202 60.88H2.5835C1.4789 60.88 0.583496 59.9846 0.583496 58.88V56.1716C0.583496 55.067 1.4789 54.1716 2.5835 54.1716H14.7202C15.8248 54.1716 16.7202 55.067 16.7202 56.1716V58.88C16.7202 59.9846 15.8248 60.88 14.7202 60.88Z" fill="url(#paint13_linear_86_3944)"/>
<path d="M14.7202 60.88H2.5835C1.4789 60.88 0.583496 59.9846 0.583496 58.88V56.1716C0.583496 55.067 1.4789 54.1716 2.5835 54.1716H14.7202C15.8248 54.1716 16.7202 55.067 16.7202 56.1716V58.88C16.7202 59.9846 15.8248 60.88 14.7202 60.88Z" fill="url(#paint14_linear_86_3944)"/>
<path d="M14.9564 54.1717H2.3473C1.3732 54.1717 0.583496 53.382 0.583496 52.4078V1.8407C0.583496 0.866604 1.3732 0.0769043 2.3473 0.0769043H14.9563C15.9304 0.0769043 16.7201 0.866604 16.7201 1.8407V52.4078C16.7202 53.382 15.9305 54.1717 14.9564 54.1717Z" fill="url(#paint15_linear_86_3944)"/>
<path d="M0.583496 7.80469H16.7202" stroke="#97FFDF" stroke-miterlimit="10"/>
<path d="M0.583496 15.5325H16.7202" stroke="#97FFDF" stroke-miterlimit="10"/>
<path d="M0.583496 23.2605H16.7202" stroke="#97FFDF" stroke-miterlimit="10"/>
<path d="M0.583496 30.9883H16.7202" stroke="#97FFDF" stroke-miterlimit="10"/>
<path d="M0.583496 38.7161H16.7202" stroke="#97FFDF" stroke-miterlimit="10"/>
<path d="M0.583496 46.4438H16.7202" stroke="#97FFDF" stroke-miterlimit="10"/>
<path d="M14.9564 54.1717H2.3473C1.3732 54.1717 0.583496 53.382 0.583496 52.4078V1.8407C0.583496 0.866604 1.3732 0.0769043 2.3473 0.0769043H14.9563C15.9304 0.0769043 16.7201 0.866604 16.7201 1.8407V52.4078C16.7202 53.382 15.9305 54.1717 14.9564 54.1717Z" fill="url(#paint16_linear_86_3944)"/>
<path d="M14.9564 54.1717H2.3473C1.3732 54.1717 0.583496 53.382 0.583496 52.4078V1.8407C0.583496 0.866604 1.3732 0.0769043 2.3473 0.0769043H14.9563C15.9304 0.0769043 16.7201 0.866604 16.7201 1.8407V52.4078C16.7202 53.382 15.9305 54.1717 14.9564 54.1717Z" fill="url(#paint17_linear_86_3944)"/>
<defs>
<linearGradient id="paint0_linear_86_3944" x1="0.583496" y1="143.211" x2="16.7202" y2="143.211" gradientUnits="userSpaceOnUse">
<stop stop-color="#389E61"/>
<stop offset="0.1985" stop-color="#9FC4AE"/>
<stop offset="0.4998" stop-color="#389E61"/>
<stop offset="0.9995" stop-color="#174027"/>
</linearGradient>
<linearGradient id="paint1_linear_86_3944" x1="8.6518" y1="137.028" x2="8.6518" y2="149.394" gradientUnits="userSpaceOnUse">
<stop offset="0.7753" stop-color="#389E61" stop-opacity="0"/>
<stop offset="1" stop-color="#174027"/>
</linearGradient>
<linearGradient id="paint2_linear_86_3944" x1="0.583496" y1="121.246" x2="16.7202" y2="121.246" gradientUnits="userSpaceOnUse">
<stop stop-color="#5C8E47"/>
<stop offset="0.1985" stop-color="#C2F5AD"/>
<stop offset="0.4998" stop-color="#5C8E47"/>
<stop offset="1" stop-color="#324D26"/>
</linearGradient>
<linearGradient id="paint3_linear_86_3944" x1="8.6518" y1="105.464" x2="8.6518" y2="137.028" gradientUnits="userSpaceOnUse">
<stop offset="0.7753" stop-color="#5C8E47" stop-opacity="0"/>
<stop offset="1" stop-color="#416323"/>
</linearGradient>
<radialGradient id="paint4_radial_86_3944" cx="0" cy="0" r="1" gradientUnits="userSpaceOnUse" gradientTransform="translate(6.1183 99.0325) scale(10.9452 6.2705)">
<stop stop-color="#AEDE9A"/>
<stop offset="1" stop-color="#575623"/>
</radialGradient>
<linearGradient id="paint5_linear_86_3944" x1="0.583496" y1="91.5796" x2="16.7202" y2="91.5796" gradientUnits="userSpaceOnUse">
<stop stop-color="#8DCC48"/>
<stop offset="0.1985" stop-color="#D2F5AD"/>
<stop offset="0.5002" stop-color="#8DCC48"/>
<stop offset="1" stop-color="#446323"/>
</linearGradient>
<linearGradient id="paint6_linear_86_3944" x1="8.6518" y1="88.2254" x2="8.6518" y2="94.9338" gradientUnits="userSpaceOnUse">
<stop offset="0.3658" stop-color="#8AC847" stop-opacity="0"/>
<stop offset="1" stop-color="#446323"/>
</linearGradient>
<linearGradient id="paint7_linear_86_3944" x1="4.16954" y1="78.9295" x2="8.67454" y2="78.9516" gradientUnits="userSpaceOnUse">
<stop stop-color="#379C43"/>
<stop offset="1" stop-color="#1F5725"/>
</linearGradient>
<linearGradient id="paint8_linear_86_3944" x1="8.62916" y1="83.5708" x2="13.1343" y2="83.5929" gradientUnits="userSpaceOnUse">
<stop stop-color="#379C43"/>
<stop offset="1" stop-color="#1F5725"/>
</linearGradient>
<linearGradient id="paint9_linear_86_3944" x1="0.583496" y1="70.9426" x2="16.7202" y2="70.9426" gradientUnits="userSpaceOnUse">
<stop stop-color="#48CC4C"/>
<stop offset="0.1985" stop-color="#ADF5AF"/>
<stop offset="0.4998" stop-color="#48CC4C"/>
<stop offset="1" stop-color="#236325"/>
</linearGradient>
<linearGradient id="paint10_linear_86_3944" x1="8.6518" y1="67.5884" x2="8.6518" y2="74.2968" gradientUnits="userSpaceOnUse">
<stop offset="0.3658" stop-color="#47C84B" stop-opacity="0"/>
<stop offset="1" stop-color="#236325"/>
</linearGradient>
<linearGradient id="paint11_linear_86_3944" x1="0.583496" y1="64.2343" x2="16.7202" y2="64.2343" gradientUnits="userSpaceOnUse">
<stop stop-color="#48CC4C"/>
<stop offset="0.1985" stop-color="#ADF5AF"/>
<stop offset="0.5" stop-color="#48CC4C"/>
<stop offset="1" stop-color="#236325"/>
</linearGradient>
<linearGradient id="paint12_linear_86_3944" x1="8.6518" y1="60.8801" x2="8.6518" y2="67.5885" gradientUnits="userSpaceOnUse">
<stop offset="0.3658" stop-color="#47C84B" stop-opacity="0"/>
<stop offset="1" stop-color="#236325"/>
</linearGradient>
<linearGradient id="paint13_linear_86_3944" x1="0.583496" y1="57.5258" x2="16.7202" y2="57.5258" gradientUnits="userSpaceOnUse">
<stop stop-color="#48CC4C"/>
<stop offset="0.1985" stop-color="#ADF5AF"/>
<stop offset="0.5" stop-color="#48CC4C"/>
<stop offset="1" stop-color="#236325"/>
</linearGradient>
<linearGradient id="paint14_linear_86_3944" x1="8.6518" y1="54.1717" x2="8.6518" y2="60.88" gradientUnits="userSpaceOnUse">
<stop offset="0.3658" stop-color="#47C84B" stop-opacity="0"/>
<stop offset="1" stop-color="#236325"/>
</linearGradient>
<linearGradient id="paint15_linear_86_3944" x1="0.459796" y1="27.0841" x2="16.8439" y2="27.1644" gradientUnits="userSpaceOnUse">
<stop stop-color="#48CCA4"/>
<stop offset="0.225962" stop-color="#47C8A1"/>
<stop offset="1" stop-color="#236350"/>
</linearGradient>
<linearGradient id="paint16_linear_86_3944" x1="0.459796" y1="27.0841" x2="16.8439" y2="27.1644" gradientUnits="userSpaceOnUse">
<stop stop-color="#ADF5DF" stop-opacity="0"/>
<stop offset="0.1985" stop-color="#ADF5DF"/>
<stop offset="0.4878" stop-color="#ADF5DF" stop-opacity="0"/>
<stop offset="0.7099" stop-color="#236350" stop-opacity="0"/>
<stop offset="1" stop-color="#236350"/>
</linearGradient>
<linearGradient id="paint17_linear_86_3944" x1="8.6518" y1="0.0769043" x2="8.6518" y2="54.1717" gradientUnits="userSpaceOnUse">
<stop offset="0.7753" stop-color="#47C8A1" stop-opacity="0"/>
<stop offset="1" stop-color="#236350"/>
</linearGradient>
</defs>
</svg>
