<svg width="50" height="24" viewBox="0 0 50 24" fill="none" xmlns="http://www.w3.org/2000/svg">
<rect x="2" y="1.98901" width="47" height="20" rx="10" fill="url(#paint0_linear_67_1956)"/>
<rect x="2" y="1.98901" width="47" height="20" rx="10" stroke="#B84384" stroke-width="3" stroke-linejoin="round"/>
<path d="M9.91992 13.1941L11.6074 13.03C11.709 13.5964 11.9141 14.0125 12.2227 14.2781C12.5352 14.5437 12.9551 14.6765 13.4824 14.6765C14.041 14.6765 14.4609 14.5593 14.7422 14.325C15.0273 14.0867 15.1699 13.8093 15.1699 13.4929C15.1699 13.2898 15.1094 13.1179 14.9883 12.9773C14.8711 12.8328 14.6641 12.7078 14.3672 12.6023C14.1641 12.532 13.7012 12.407 12.9785 12.2273C12.0488 11.9968 11.3965 11.7136 11.0215 11.3777C10.4941 10.905 10.2305 10.3289 10.2305 9.64917C10.2305 9.21167 10.3535 8.80347 10.5996 8.42456C10.8496 8.04175 11.207 7.75073 11.6719 7.55151C12.1406 7.35229 12.7051 7.25269 13.3652 7.25269C14.4434 7.25269 15.2539 7.48901 15.7969 7.96167C16.3438 8.43433 16.6309 9.06519 16.6582 9.85425L14.9238 9.93042C14.8496 9.48901 14.6895 9.17261 14.4434 8.9812C14.2012 8.78589 13.8359 8.68823 13.3477 8.68823C12.8438 8.68823 12.4492 8.79175 12.1641 8.99878C11.9805 9.13159 11.8887 9.30933 11.8887 9.53198C11.8887 9.73511 11.9746 9.90894 12.1465 10.0535C12.3652 10.2371 12.8965 10.4285 13.7402 10.6277C14.584 10.8269 15.207 11.0339 15.6094 11.2488C16.0156 11.4597 16.332 11.7507 16.5586 12.1218C16.7891 12.489 16.9043 12.9441 16.9043 13.4871C16.9043 13.9792 16.7676 14.4402 16.4941 14.8699C16.2207 15.2996 15.834 15.6199 15.334 15.8308C14.834 16.0378 14.2109 16.1414 13.4648 16.1414C12.3789 16.1414 11.5449 15.8914 10.9629 15.3914C10.3809 14.8875 10.0332 14.155 9.91992 13.1941ZM18.0117 11.7468C18.0117 10.8718 18.1426 10.1375 18.4043 9.5437C18.5996 9.1062 18.8652 8.71362 19.2012 8.36597C19.541 8.01831 19.9121 7.7605 20.3145 7.59253C20.8496 7.36597 21.4668 7.25269 22.166 7.25269C23.4316 7.25269 24.4434 7.64526 25.2012 8.43042C25.9629 9.21558 26.3438 10.3074 26.3438 11.7058C26.3438 13.0925 25.9668 14.1785 25.2129 14.9636C24.459 15.7449 23.4512 16.1355 22.1895 16.1355C20.9121 16.1355 19.8965 15.7468 19.1426 14.9695C18.3887 14.1882 18.0117 13.114 18.0117 11.7468ZM19.7988 11.6882C19.7988 12.6609 20.0234 13.3992 20.4727 13.9031C20.9219 14.4031 21.4922 14.6531 22.1836 14.6531C22.875 14.6531 23.4414 14.405 23.8828 13.9089C24.3281 13.4089 24.5508 12.6609 24.5508 11.6648C24.5508 10.6804 24.334 9.94604 23.9004 9.46167C23.4707 8.97729 22.8984 8.73511 22.1836 8.73511C21.4688 8.73511 20.8926 8.9812 20.4551 9.47339C20.0176 9.96167 19.7988 10.7 19.7988 11.6882ZM27.2637 13.1941L28.9512 13.03C29.0527 13.5964 29.2578 14.0125 29.5664 14.2781C29.8789 14.5437 30.2988 14.6765 30.8262 14.6765C31.3848 14.6765 31.8047 14.5593 32.0859 14.325C32.3711 14.0867 32.5137 13.8093 32.5137 13.4929C32.5137 13.2898 32.4531 13.1179 32.332 12.9773C32.2148 12.8328 32.0078 12.7078 31.7109 12.6023C31.5078 12.532 31.0449 12.407 30.3223 12.2273C29.3926 11.9968 28.7402 11.7136 28.3652 11.3777C27.8379 10.905 27.5742 10.3289 27.5742 9.64917C27.5742 9.21167 27.6973 8.80347 27.9434 8.42456C28.1934 8.04175 28.5508 7.75073 29.0156 7.55151C29.4844 7.35229 30.0488 7.25269 30.709 7.25269C31.7871 7.25269 32.5977 7.48901 33.1406 7.96167C33.6875 8.43433 33.9746 9.06519 34.002 9.85425L32.2676 9.93042C32.1934 9.48901 32.0332 9.17261 31.7871 8.9812C31.5449 8.78589 31.1797 8.68823 30.6914 8.68823C30.1875 8.68823 29.793 8.79175 29.5078 8.99878C29.3242 9.13159 29.2324 9.30933 29.2324 9.53198C29.2324 9.73511 29.3184 9.90894 29.4902 10.0535C29.709 10.2371 30.2402 10.4285 31.084 10.6277C31.9277 10.8269 32.5508 11.0339 32.9531 11.2488C33.3594 11.4597 33.6758 11.7507 33.9023 12.1218C34.1328 12.489 34.248 12.9441 34.248 13.4871C34.248 13.9792 34.1113 14.4402 33.8379 14.8699C33.5645 15.2996 33.1777 15.6199 32.6777 15.8308C32.1777 16.0378 31.5547 16.1414 30.8086 16.1414C29.7227 16.1414 28.8887 15.8914 28.3066 15.3914C27.7246 14.8875 27.377 14.155 27.2637 13.1941ZM39.5566 15.989H37.9102V9.78394C37.3086 10.3464 36.5996 10.7625 35.7832 11.032V9.53784C36.2129 9.39722 36.6797 9.13159 37.1836 8.74097C37.6875 8.34644 38.0332 7.88745 38.2207 7.36401H39.5566V15.989Z" fill="white"/>
<defs>
<linearGradient id="paint0_linear_67_1956" x1="25.5" y1="1.98901" x2="25.5" y2="21.989" gradientUnits="userSpaceOnUse">
<stop stop-color="#B84384"/>
<stop offset="1" stop-color="#FF9D00"/>
</linearGradient>
</defs>
</svg>
