<svg width="55" height="24" viewBox="0 0 55 24" fill="none" xmlns="http://www.w3.org/2000/svg">
<rect x="2" y="1.98901" width="52" height="20" rx="10" fill="url(#paint0_linear_85_2074)"/>
<rect x="2" y="1.98901" width="52" height="20" rx="10" stroke="#0067FF" stroke-width="3" stroke-linejoin="round"/>
<path d="M9.44336 15.989V14.4246L13.9551 8.85229H9.95312V7.39917H16.2402V8.74683L11.5352 14.5417H16.4219V15.989H9.44336ZM25.2695 15.989H23.3828L22.6328 14.0378H19.1992L18.4902 15.989H16.6504L19.9961 7.39917H21.8301L25.2695 15.989ZM22.0762 12.5906L20.8926 9.40308L19.7324 12.5906H22.0762ZM26.1953 15.989V7.39917H28.9785C30.0332 7.39917 30.7207 7.44214 31.041 7.52808C31.5332 7.65698 31.9453 7.93823 32.2773 8.37183C32.6094 8.80151 32.7754 9.35815 32.7754 10.0417C32.7754 10.5691 32.6797 11.0125 32.4883 11.3718C32.2969 11.7312 32.0527 12.0144 31.7559 12.2214C31.4629 12.4246 31.1641 12.5593 30.8594 12.6257C30.4453 12.7078 29.8457 12.7488 29.0605 12.7488H27.9297V15.989H26.1953ZM27.9297 8.85229V11.2898H28.8789C29.5625 11.2898 30.0195 11.2449 30.25 11.155C30.4805 11.0652 30.6602 10.9246 30.7891 10.7332C30.9219 10.5417 30.9883 10.3191 30.9883 10.0652C30.9883 9.75269 30.8965 9.49487 30.7129 9.29175C30.5293 9.08862 30.2969 8.96167 30.0156 8.91089C29.8086 8.87183 29.3926 8.85229 28.7676 8.85229H27.9297ZM33.8359 9.04565V7.51636H39.4668V8.71167C39.002 9.1687 38.5293 9.82495 38.0488 10.6804C37.5684 11.5359 37.2012 12.446 36.9473 13.4109C36.6973 14.3718 36.5742 15.2312 36.5781 15.989H34.9902C35.0176 14.8015 35.2617 13.5906 35.7227 12.3562C36.1875 11.1218 36.8066 10.0183 37.5801 9.04565H33.8359ZM43.2988 7.36401C44.1309 7.36401 44.7812 7.66089 45.25 8.25464C45.8086 8.95776 46.0879 10.1238 46.0879 11.7527C46.0879 13.3777 45.8066 14.5457 45.2441 15.2566C44.7793 15.8425 44.1309 16.1355 43.2988 16.1355C42.4629 16.1355 41.7891 15.8152 41.2773 15.1746C40.7656 14.53 40.5098 13.3835 40.5098 11.7351C40.5098 10.1179 40.791 8.95386 41.3535 8.24292C41.8184 7.65698 42.4668 7.36401 43.2988 7.36401ZM43.2988 8.72925C43.0996 8.72925 42.9219 8.7937 42.7656 8.92261C42.6094 9.04761 42.4883 9.27417 42.4023 9.60229C42.2891 10.0281 42.2324 10.7449 42.2324 11.7527C42.2324 12.7605 42.2832 13.4539 42.3848 13.8328C42.4863 14.2078 42.6133 14.4578 42.7656 14.5828C42.9219 14.7078 43.0996 14.7703 43.2988 14.7703C43.498 14.7703 43.6758 14.7078 43.832 14.5828C43.9883 14.4539 44.1094 14.2253 44.1953 13.8972C44.3086 13.4753 44.3652 12.7605 44.3652 11.7527C44.3652 10.7449 44.3145 10.0535 44.2129 9.67847C44.1113 9.29956 43.9824 9.04761 43.8262 8.92261C43.6738 8.7937 43.498 8.72925 43.2988 8.72925Z" fill="white"/>
<defs>
<linearGradient id="paint0_linear_85_2074" x1="28" y1="1.98901" x2="28" y2="21.989" gradientUnits="userSpaceOnUse">
<stop stop-color="#0067FF"/>
<stop offset="1" stop-color="#004900"/>
</linearGradient>
</defs>
</svg>
