<svg width="56" height="24" viewBox="0 0 56 24" fill="none" xmlns="http://www.w3.org/2000/svg">
<rect x="2" y="1.98901" width="53" height="20" rx="10" fill="url(#paint0_linear_42_2733)"/>
<rect x="2" y="1.98901" width="53" height="20" rx="10" stroke="#4B742F" stroke-width="3" stroke-linejoin="round"/>
<path d="M10.0371 15.989V7.39917H15.9258V8.85229H11.7715V10.8855H15.3574V12.3386H11.7715V15.989H10.0371ZM24.4395 15.989H22.5527L21.8027 14.0378H18.3691L17.6602 15.989H15.8203L19.166 7.39917H21L24.4395 15.989ZM21.2461 12.5906L20.0625 9.40308L18.9023 12.5906H21.2461ZM25.3711 15.989V7.39917H29.0215C29.9395 7.39917 30.6055 7.47729 31.0195 7.63354C31.4375 7.78589 31.7715 8.05933 32.0215 8.45386C32.2715 8.84839 32.3965 9.29956 32.3965 9.80737C32.3965 10.4519 32.207 10.9851 31.8281 11.407C31.4492 11.825 30.8828 12.0886 30.1289 12.198C30.5039 12.4167 30.8125 12.657 31.0547 12.9187C31.3008 13.1804 31.6309 13.6453 32.0449 14.3132L33.0938 15.989H31.0195L29.7656 14.1199C29.3203 13.4519 29.0156 13.032 28.8516 12.8601C28.6875 12.6843 28.5137 12.5652 28.3301 12.5027C28.1465 12.4363 27.8555 12.4031 27.457 12.4031H27.1055V15.989H25.3711ZM27.1055 11.032H28.3887C29.2207 11.032 29.7402 10.9968 29.9473 10.9265C30.1543 10.8562 30.3164 10.7351 30.4336 10.5632C30.5508 10.3914 30.6094 10.1765 30.6094 9.9187C30.6094 9.62964 30.5312 9.39722 30.375 9.22144C30.2227 9.04175 30.0059 8.92847 29.7246 8.88159C29.584 8.86206 29.1621 8.85229 28.459 8.85229H27.1055V11.032ZM34.0371 15.989V7.39917H36.8203C37.875 7.39917 38.5625 7.44214 38.8828 7.52808C39.375 7.65698 39.7871 7.93823 40.1191 8.37183C40.4512 8.80151 40.6172 9.35815 40.6172 10.0417C40.6172 10.5691 40.5215 11.0125 40.3301 11.3718C40.1387 11.7312 39.8945 12.0144 39.5977 12.2214C39.3047 12.4246 39.0059 12.5593 38.7012 12.6257C38.2871 12.7078 37.6875 12.7488 36.9023 12.7488H35.7715V15.989H34.0371ZM35.7715 8.85229V11.2898H36.7207C37.4043 11.2898 37.8613 11.2449 38.0918 11.155C38.3223 11.0652 38.502 10.9246 38.6309 10.7332C38.7637 10.5417 38.8301 10.3191 38.8301 10.0652C38.8301 9.75269 38.7383 9.49487 38.5547 9.29175C38.3711 9.08862 38.1387 8.96167 37.8574 8.91089C37.6504 8.87183 37.2344 8.85229 36.6094 8.85229H35.7715ZM47.2383 14.4597V15.989H41.4668C41.5293 15.4109 41.7168 14.864 42.0293 14.3484C42.3418 13.8289 42.959 13.1414 43.8809 12.2859C44.623 11.5945 45.0781 11.1257 45.2461 10.8796C45.4727 10.5398 45.5859 10.2039 45.5859 9.87183C45.5859 9.50464 45.4863 9.22339 45.2871 9.02808C45.0918 8.82886 44.8203 8.72925 44.4727 8.72925C44.1289 8.72925 43.8555 8.83276 43.6523 9.03979C43.4492 9.24683 43.332 9.59058 43.3008 10.071L41.6602 9.90698C41.7578 9.00073 42.0645 8.35034 42.5801 7.95581C43.0957 7.56128 43.7402 7.36401 44.5137 7.36401C45.3613 7.36401 46.0273 7.59253 46.5117 8.04956C46.9961 8.50659 47.2383 9.07495 47.2383 9.75464C47.2383 10.1414 47.168 10.5105 47.0273 10.8621C46.8906 11.2097 46.6719 11.575 46.3711 11.9578C46.1719 12.2117 45.8125 12.5769 45.293 13.0535C44.7734 13.53 44.4434 13.8464 44.3027 14.0027C44.166 14.1589 44.0547 14.3113 43.9688 14.4597H47.2383Z" fill="white"/>
<defs>
<linearGradient id="paint0_linear_42_2733" x1="28.5" y1="1.98901" x2="28.5" y2="21.989" gradientUnits="userSpaceOnUse">
<stop stop-color="#4B742F"/>
<stop offset="1" stop-color="#FFA900"/>
</linearGradient>
</defs>
</svg>
