<svg width="75" height="24" viewBox="0 0 75 24" fill="none" xmlns="http://www.w3.org/2000/svg">
<rect x="1" y="1.98901" width="73" height="20" rx="10" fill="url(#paint0_linear_67_1839)"/>
<rect x="1" y="1.98901" width="73" height="20" rx="10" stroke="#EB9F2B" stroke-width="3" stroke-linejoin="round"/>
<path d="M9.02344 15.989V7.39917H12.6738C13.5918 7.39917 14.2578 7.47729 14.6719 7.63354C15.0898 7.78589 15.4238 8.05933 15.6738 8.45386C15.9238 8.84839 16.0488 9.29956 16.0488 9.80737C16.0488 10.4519 15.8594 10.9851 15.4805 11.407C15.1016 11.825 14.5352 12.0886 13.7812 12.198C14.1562 12.4167 14.4648 12.657 14.707 12.9187C14.9531 13.1804 15.2832 13.6453 15.6973 14.3132L16.7461 15.989H14.6719L13.418 14.1199C12.9727 13.4519 12.668 13.032 12.5039 12.8601C12.3398 12.6843 12.166 12.5652 11.9824 12.5027C11.7988 12.4363 11.5078 12.4031 11.1094 12.4031H10.7578V15.989H9.02344ZM10.7578 11.032H12.041C12.873 11.032 13.3926 10.9968 13.5996 10.9265C13.8066 10.8562 13.9688 10.7351 14.0859 10.5632C14.2031 10.3914 14.2617 10.1765 14.2617 9.9187C14.2617 9.62964 14.1836 9.39722 14.0273 9.22144C13.875 9.04175 13.6582 8.92847 13.377 8.88159C13.2363 8.86206 12.8145 8.85229 12.1113 8.85229H10.7578V11.032ZM25.4355 15.989H23.5488L22.7988 14.0378H19.3652L18.6562 15.989H16.8164L20.1621 7.39917H21.9961L25.4355 15.989ZM22.2422 12.5906L21.0586 9.40308L19.8984 12.5906H22.2422ZM26.3789 15.989V7.39917H28.0664L31.582 13.1355V7.39917H33.1934V15.989H31.4531L27.9902 10.3875V15.989H26.3789ZM39.0293 12.8308V11.3835H42.7676V14.8054C42.4043 15.157 41.877 15.4675 41.1855 15.7371C40.498 16.0027 39.8008 16.1355 39.0938 16.1355C38.1953 16.1355 37.4121 15.948 36.7441 15.573C36.0762 15.1941 35.5742 14.655 35.2383 13.9558C34.9023 13.2527 34.7344 12.489 34.7344 11.6648C34.7344 10.7703 34.9219 9.97534 35.2969 9.28003C35.6719 8.58472 36.2207 8.05151 36.9434 7.68042C37.4941 7.39526 38.1797 7.25269 39 7.25269C40.0664 7.25269 40.8984 7.47729 41.4961 7.92651C42.0977 8.37183 42.4844 8.98901 42.6562 9.77808L40.9336 10.1003C40.8125 9.67847 40.584 9.34644 40.248 9.10425C39.916 8.85815 39.5 8.73511 39 8.73511C38.2422 8.73511 37.6387 8.97534 37.1895 9.45581C36.7441 9.93628 36.5215 10.6492 36.5215 11.5945C36.5215 12.614 36.748 13.3796 37.2012 13.8914C37.6543 14.3992 38.248 14.6531 38.9824 14.6531C39.3457 14.6531 39.709 14.5828 40.0723 14.4421C40.4395 14.2976 40.7539 14.1238 41.0156 13.9207V12.8308H39.0293ZM52.1191 15.989H50.2324L49.4824 14.0378H46.0488L45.3398 15.989H43.5L46.8457 7.39917H48.6797L52.1191 15.989ZM48.9258 12.5906L47.7422 9.40308L46.582 12.5906H48.9258ZM53.0449 15.989V7.39917H55.8281C56.8828 7.39917 57.5703 7.44214 57.8906 7.52808C58.3828 7.65698 58.7949 7.93823 59.127 8.37183C59.459 8.80151 59.625 9.35815 59.625 10.0417C59.625 10.5691 59.5293 11.0125 59.3379 11.3718C59.1465 11.7312 58.9023 12.0144 58.6055 12.2214C58.3125 12.4246 58.0137 12.5593 57.709 12.6257C57.2949 12.7078 56.6953 12.7488 55.9102 12.7488H54.7793V15.989H53.0449ZM54.7793 8.85229V11.2898H55.7285C56.4121 11.2898 56.8691 11.2449 57.0996 11.155C57.3301 11.0652 57.5098 10.9246 57.6387 10.7332C57.7715 10.5417 57.8379 10.3191 57.8379 10.0652C57.8379 9.75269 57.7461 9.49487 57.5625 9.29175C57.3789 9.08862 57.1465 8.96167 56.8652 8.91089C56.6582 8.87183 56.2422 8.85229 55.6172 8.85229H54.7793ZM64.8984 15.989H63.252V9.78394C62.6504 10.3464 61.9414 10.7625 61.125 11.032V9.53784C61.5547 9.39722 62.0215 9.13159 62.5254 8.74097C63.0293 8.34644 63.375 7.88745 63.5625 7.36401H64.8984V15.989Z" fill="white"/>
<defs>
<linearGradient id="paint0_linear_67_1839" x1="37.5" y1="1.98901" x2="37.5" y2="21.989" gradientUnits="userSpaceOnUse">
<stop stop-color="#E7DE7F"/>
<stop offset="1" stop-color="#EB9F2B"/>
</linearGradient>
</defs>
</svg>
