<svg width="58" height="24" viewBox="0 0 58 24" fill="none" xmlns="http://www.w3.org/2000/svg">
<rect x="2" y="1.98901" width="55" height="20" rx="10" fill="url(#paint0_linear_85_2096)"/>
<rect x="2" y="1.98901" width="55" height="20" rx="10" stroke="#910000" stroke-width="3" stroke-linejoin="round"/>
<path d="M10.0117 7.39917H11.7461V12.0515C11.7461 12.7898 11.7676 13.2683 11.8105 13.4871C11.8848 13.8386 12.0605 14.1218 12.3379 14.3367C12.6191 14.5476 13.002 14.6531 13.4863 14.6531C13.9785 14.6531 14.3496 14.5535 14.5996 14.3542C14.8496 14.1511 15 13.9031 15.0508 13.6101C15.1016 13.3171 15.127 12.8308 15.127 12.1511V7.39917H16.8613V11.9109C16.8613 12.9421 16.8145 13.6707 16.7207 14.0964C16.627 14.5222 16.4531 14.8816 16.1992 15.1746C15.9492 15.4675 15.6133 15.7019 15.1914 15.8777C14.7695 16.0496 14.2188 16.1355 13.5391 16.1355C12.7188 16.1355 12.0957 16.0417 11.6699 15.8542C11.248 15.6628 10.9141 15.4167 10.668 15.116C10.4219 14.8113 10.2598 14.4929 10.1816 14.1609C10.0684 13.6687 10.0117 12.9421 10.0117 11.9812V7.39917ZM18.7012 7.39917H22.1348C22.8145 7.39917 23.3203 7.42847 23.6523 7.48706C23.9883 7.54175 24.2871 7.65894 24.5488 7.83862C24.8145 8.01831 25.0352 8.25854 25.2109 8.55933C25.3867 8.8562 25.4746 9.19019 25.4746 9.56128C25.4746 9.96362 25.3652 10.3328 25.1465 10.6687C24.9316 11.0046 24.6387 11.2566 24.2676 11.4246C24.791 11.5769 25.1934 11.8367 25.4746 12.2039C25.7559 12.571 25.8965 13.0027 25.8965 13.4988C25.8965 13.8894 25.8047 14.2703 25.6211 14.6414C25.4414 15.0085 25.1934 15.3035 24.877 15.5261C24.5645 15.7449 24.1777 15.8796 23.7168 15.9304C23.4277 15.9617 22.7305 15.9812 21.625 15.989H18.7012V7.39917ZM20.4355 8.82886V10.8152H21.5723C22.248 10.8152 22.668 10.8054 22.832 10.7859C23.1289 10.7507 23.3613 10.6492 23.5293 10.4812C23.7012 10.3093 23.7871 10.0847 23.7871 9.80737C23.7871 9.54175 23.7129 9.3269 23.5645 9.16284C23.4199 8.99487 23.2031 8.89331 22.9141 8.85815C22.7422 8.83862 22.248 8.82886 21.4316 8.82886H20.4355ZM20.4355 12.2449V14.5417H22.041C22.666 14.5417 23.0625 14.5242 23.2305 14.489C23.4883 14.4421 23.6973 14.3289 23.8574 14.1492C24.0215 13.9656 24.1035 13.7214 24.1035 13.4167C24.1035 13.1589 24.041 12.9402 23.916 12.7605C23.791 12.5808 23.6094 12.45 23.3711 12.3679C23.1367 12.2859 22.625 12.2449 21.8359 12.2449H20.4355ZM27.3672 15.989V7.39917H33.7363V8.85229H29.1016V10.7566H33.4141V12.2039H29.1016V14.5417H33.9004V15.989H27.3672ZM40.5684 14.4597V15.989H34.7969C34.8594 15.4109 35.0469 14.864 35.3594 14.3484C35.6719 13.8289 36.2891 13.1414 37.2109 12.2859C37.9531 11.5945 38.4082 11.1257 38.5762 10.8796C38.8027 10.5398 38.916 10.2039 38.916 9.87183C38.916 9.50464 38.8164 9.22339 38.6172 9.02808C38.4219 8.82886 38.1504 8.72925 37.8027 8.72925C37.459 8.72925 37.1855 8.83276 36.9824 9.03979C36.7793 9.24683 36.6621 9.59058 36.6309 10.071L34.9902 9.90698C35.0879 9.00073 35.3945 8.35034 35.9102 7.95581C36.4258 7.56128 37.0703 7.36401 37.8438 7.36401C38.6914 7.36401 39.3574 7.59253 39.8418 8.04956C40.3262 8.50659 40.5684 9.07495 40.5684 9.75464C40.5684 10.1414 40.498 10.5105 40.3574 10.8621C40.2207 11.2097 40.002 11.575 39.7012 11.9578C39.502 12.2117 39.1426 12.5769 38.623 13.0535C38.1035 13.53 37.7734 13.8464 37.6328 14.0027C37.4961 14.1589 37.3848 14.3113 37.2988 14.4597H40.5684ZM42.0684 15.989V7.39917H43.7559L47.2715 13.1355V7.39917H48.8828V15.989H47.1426L43.6797 10.3875V15.989H42.0684Z" fill="white"/>
<defs>
<linearGradient id="paint0_linear_85_2096" x1="29.5" y1="1.98901" x2="29.5" y2="21.989" gradientUnits="userSpaceOnUse">
<stop stop-color="#BDE5CF"/>
<stop offset="1" stop-color="#910000"/>
</linearGradient>
</defs>
</svg>
