<svg width="53" height="24" viewBox="0 0 53 24" fill="none" xmlns="http://www.w3.org/2000/svg">
<rect x="2" y="1.98901" width="50" height="20" rx="10" fill="url(#paint0_linear_67_1908)"/>
<rect x="2" y="1.98901" width="50" height="20" rx="10" stroke="#1C474A" stroke-width="3" stroke-linejoin="round"/>
<path d="M10.2012 15.989V7.39917H13.8516C14.7695 7.39917 15.4355 7.47729 15.8496 7.63354C16.2676 7.78589 16.6016 8.05933 16.8516 8.45386C17.1016 8.84839 17.2266 9.29956 17.2266 9.80737C17.2266 10.4519 17.0371 10.9851 16.6582 11.407C16.2793 11.825 15.7129 12.0886 14.959 12.198C15.334 12.4167 15.6426 12.657 15.8848 12.9187C16.1309 13.1804 16.4609 13.6453 16.875 14.3132L17.9238 15.989H15.8496L14.5957 14.1199C14.1504 13.4519 13.8457 13.032 13.6816 12.8601C13.5176 12.6843 13.3438 12.5652 13.1602 12.5027C12.9766 12.4363 12.6855 12.4031 12.2871 12.4031H11.9355V15.989H10.2012ZM11.9355 11.032H13.2188C14.0508 11.032 14.5703 10.9968 14.7773 10.9265C14.9844 10.8562 15.1465 10.7351 15.2637 10.5632C15.3809 10.3914 15.4395 10.1765 15.4395 9.9187C15.4395 9.62964 15.3613 9.39722 15.2051 9.22144C15.0527 9.04175 14.8359 8.92847 14.5547 8.88159C14.4141 8.86206 13.9922 8.85229 13.2891 8.85229H11.9355V11.032ZM18.5156 11.7468C18.5156 10.8718 18.6465 10.1375 18.9082 9.5437C19.1035 9.1062 19.3691 8.71362 19.7051 8.36597C20.0449 8.01831 20.416 7.7605 20.8184 7.59253C21.3535 7.36597 21.9707 7.25269 22.6699 7.25269C23.9355 7.25269 24.9473 7.64526 25.7051 8.43042C26.4668 9.21558 26.8477 10.3074 26.8477 11.7058C26.8477 13.0925 26.4707 14.1785 25.7168 14.9636C24.9629 15.7449 23.9551 16.1355 22.6934 16.1355C21.416 16.1355 20.4004 15.7468 19.6465 14.9695C18.8926 14.1882 18.5156 13.114 18.5156 11.7468ZM20.3027 11.6882C20.3027 12.6609 20.5273 13.3992 20.9766 13.9031C21.4258 14.4031 21.9961 14.6531 22.6875 14.6531C23.3789 14.6531 23.9453 14.405 24.3867 13.9089C24.832 13.4089 25.0547 12.6609 25.0547 11.6648C25.0547 10.6804 24.8379 9.94604 24.4043 9.46167C23.9746 8.97729 23.4023 8.73511 22.6875 8.73511C21.9727 8.73511 21.3965 8.9812 20.959 9.47339C20.5215 9.96167 20.3027 10.7 20.3027 11.6882ZM33.7031 12.8308L35.3848 13.364C35.127 14.3015 34.6973 14.9988 34.0957 15.4558C33.498 15.9089 32.7383 16.1355 31.8164 16.1355C30.6758 16.1355 29.7383 15.7468 29.0039 14.9695C28.2695 14.1882 27.9023 13.1218 27.9023 11.7703C27.9023 10.3406 28.2715 9.2312 29.0098 8.44214C29.748 7.64917 30.7188 7.25269 31.9219 7.25269C32.9727 7.25269 33.8262 7.56323 34.4824 8.18433C34.873 8.55151 35.166 9.07886 35.3613 9.76636L33.6445 10.1765C33.543 9.7312 33.3301 9.37964 33.0059 9.12183C32.6855 8.86401 32.2949 8.73511 31.834 8.73511C31.1973 8.73511 30.6797 8.96362 30.2812 9.42065C29.8867 9.87769 29.6895 10.6179 29.6895 11.6414C29.6895 12.7273 29.8848 13.5007 30.2754 13.9617C30.666 14.4226 31.1738 14.6531 31.7988 14.6531C32.2598 14.6531 32.6562 14.5066 32.9883 14.2136C33.3203 13.9207 33.5586 13.4597 33.7031 12.8308ZM36.9023 15.989V7.39917H38.6367V11.2136L42.1406 7.39917H44.4727L41.2383 10.7449L44.6484 15.989H42.4043L40.043 11.9578L38.6367 13.3933V15.989H36.9023Z" fill="white"/>
<defs>
<linearGradient id="paint0_linear_67_1908" x1="27" y1="1.98901" x2="27" y2="21.989" gradientUnits="userSpaceOnUse">
<stop stop-color="#1C474A"/>
<stop offset="1" stop-color="#00881D"/>
</linearGradient>
</defs>
</svg>
