<svg width="75" height="24" viewBox="0 0 75 24" fill="none" xmlns="http://www.w3.org/2000/svg">
<rect x="1" y="1.98901" width="73" height="20" rx="10" fill="url(#paint0_linear_64_1874)"/>
<rect x="1" y="1.98901" width="73" height="20" rx="10" stroke="#135958" stroke-width="3" stroke-linejoin="round"/>
<path d="M9.03516 15.989V7.39917H10.7227L14.2383 13.1355V7.39917H15.8496V15.989H14.1094L10.6465 10.3875V15.989H9.03516ZM17.6895 15.989V7.39917H24.0586V8.85229H19.4238V10.7566H23.7363V12.2039H19.4238V14.5417H24.2227V15.989H17.6895ZM25.6816 7.39917H27.416V12.0515C27.416 12.7898 27.4375 13.2683 27.4805 13.4871C27.5547 13.8386 27.7305 14.1218 28.0078 14.3367C28.2891 14.5476 28.6719 14.6531 29.1562 14.6531C29.6484 14.6531 30.0195 14.5535 30.2695 14.3542C30.5195 14.1511 30.6699 13.9031 30.7207 13.6101C30.7715 13.3171 30.7969 12.8308 30.7969 12.1511V7.39917H32.5312V11.9109C32.5312 12.9421 32.4844 13.6707 32.3906 14.0964C32.2969 14.5222 32.123 14.8816 31.8691 15.1746C31.6191 15.4675 31.2832 15.7019 30.8613 15.8777C30.4395 16.0496 29.8887 16.1355 29.209 16.1355C28.3887 16.1355 27.7656 16.0417 27.3398 15.8542C26.918 15.6628 26.584 15.4167 26.3379 15.116C26.0918 14.8113 25.9297 14.4929 25.8516 14.1609C25.7383 13.6687 25.6816 12.9421 25.6816 11.9812V7.39917ZM34.3711 15.989V7.39917H38.0215C38.9395 7.39917 39.6055 7.47729 40.0195 7.63354C40.4375 7.78589 40.7715 8.05933 41.0215 8.45386C41.2715 8.84839 41.3965 9.29956 41.3965 9.80737C41.3965 10.4519 41.207 10.9851 40.8281 11.407C40.4492 11.825 39.8828 12.0886 39.1289 12.198C39.5039 12.4167 39.8125 12.657 40.0547 12.9187C40.3008 13.1804 40.6309 13.6453 41.0449 14.3132L42.0938 15.989H40.0195L38.7656 14.1199C38.3203 13.4519 38.0156 13.032 37.8516 12.8601C37.6875 12.6843 37.5137 12.5652 37.3301 12.5027C37.1465 12.4363 36.8555 12.4031 36.457 12.4031H36.1055V15.989H34.3711ZM36.1055 11.032H37.3887C38.2207 11.032 38.7402 10.9968 38.9473 10.9265C39.1543 10.8562 39.3164 10.7351 39.4336 10.5632C39.5508 10.3914 39.6094 10.1765 39.6094 9.9187C39.6094 9.62964 39.5312 9.39722 39.375 9.22144C39.2227 9.04175 39.0059 8.92847 38.7246 8.88159C38.584 8.86206 38.1621 8.85229 37.459 8.85229H36.1055V11.032ZM42.6855 11.7468C42.6855 10.8718 42.8164 10.1375 43.0781 9.5437C43.2734 9.1062 43.5391 8.71362 43.875 8.36597C44.2148 8.01831 44.5859 7.7605 44.9883 7.59253C45.5234 7.36597 46.1406 7.25269 46.8398 7.25269C48.1055 7.25269 49.1172 7.64526 49.875 8.43042C50.6367 9.21558 51.0176 10.3074 51.0176 11.7058C51.0176 13.0925 50.6406 14.1785 49.8867 14.9636C49.1328 15.7449 48.125 16.1355 46.8633 16.1355C45.5859 16.1355 44.5703 15.7468 43.8164 14.9695C43.0625 14.1882 42.6855 13.114 42.6855 11.7468ZM44.4727 11.6882C44.4727 12.6609 44.6973 13.3992 45.1465 13.9031C45.5957 14.4031 46.166 14.6531 46.8574 14.6531C47.5488 14.6531 48.1152 14.405 48.5566 13.9089C49.002 13.4089 49.2246 12.6609 49.2246 11.6648C49.2246 10.6804 49.0078 9.94604 48.5742 9.46167C48.1445 8.97729 47.5723 8.73511 46.8574 8.73511C46.1426 8.73511 45.5664 8.9812 45.1289 9.47339C44.6914 9.96167 44.4727 10.7 44.4727 11.6882ZM52.3711 7.39917H55.541C56.2559 7.39917 56.8008 7.45386 57.1758 7.56323C57.6797 7.71167 58.1113 7.97534 58.4707 8.35425C58.8301 8.73315 59.1035 9.198 59.291 9.74878C59.4785 10.2957 59.5723 10.9714 59.5723 11.7761C59.5723 12.4832 59.4844 13.0925 59.3086 13.6042C59.0938 14.2292 58.7871 14.7351 58.3887 15.1218C58.0879 15.4148 57.6816 15.6433 57.1699 15.8074C56.7871 15.9285 56.2754 15.989 55.6348 15.989H52.3711V7.39917ZM54.1055 8.85229V14.5417H55.4004C55.8848 14.5417 56.2344 14.5144 56.4492 14.4597C56.7305 14.3894 56.9629 14.2703 57.1465 14.1023C57.334 13.9343 57.4863 13.6589 57.6035 13.2761C57.7207 12.8894 57.7793 12.364 57.7793 11.7C57.7793 11.0359 57.7207 10.5261 57.6035 10.1707C57.4863 9.81519 57.3223 9.53784 57.1113 9.33862C56.9004 9.1394 56.6328 9.00464 56.3086 8.93433C56.0664 8.87964 55.5918 8.85229 54.8848 8.85229H54.1055ZM64.8984 15.989H63.252V9.78394C62.6504 10.3464 61.9414 10.7625 61.125 11.032V9.53784C61.5547 9.39722 62.0215 9.13159 62.5254 8.74097C63.0293 8.34644 63.375 7.88745 63.5625 7.36401H64.8984V15.989Z" fill="white"/>
<defs>
<linearGradient id="paint0_linear_64_1874" x1="37.5" y1="1.98901" x2="37.5" y2="21.989" gradientUnits="userSpaceOnUse">
<stop stop-color="#135958"/>
<stop offset="1" stop-color="#1359A9"/>
</linearGradient>
</defs>
</svg>
