<svg width="160" height="104" viewBox="0 0 160 104" fill="none" xmlns="http://www.w3.org/2000/svg">
<path d="M93.961 10.8885C93.961 15.0127 88.4021 19.5941 87.5105 27.2034C86.1657 38.6806 88.3515 45.824 79.8905 45.824C71.4297 45.824 73.6154 38.681 72.2706 27.2039C71.379 19.5944 65.8201 15.0127 65.8201 10.8885C65.8201 6.30151 72.1197 2.58301 79.8906 2.58301C87.6615 2.58301 93.961 6.30151 93.961 10.8885Z" fill="url(#paint0_radial_92_5466)"/>
<path d="M110.944 12.8941C110.944 17.0183 105.385 21.5997 104.494 29.209C103.149 40.6862 105.335 47.8296 96.8737 47.8296C88.4128 47.8296 90.5986 40.6866 89.2538 29.2095C88.3622 21.6 82.8032 17.0183 82.8032 12.8941C82.8032 8.30712 89.1028 4.58862 96.8737 4.58862C104.645 4.58862 110.944 8.30712 110.944 12.8941Z" fill="url(#paint1_radial_92_5466)"/>
<path d="M121.954 17.5404C121.954 21.6646 116.395 26.246 115.503 33.8553C114.158 45.3325 116.344 52.4759 107.883 52.4759C99.4223 52.4759 101.608 45.3329 100.263 33.8558C99.3716 26.2463 93.8127 21.6646 93.8127 17.5404C93.8127 12.9534 100.112 9.23486 107.883 9.23486C115.654 9.23486 121.954 12.9534 121.954 17.5404Z" fill="url(#paint2_radial_92_5466)"/>
<path d="M132.255 25.8187C132.255 29.9429 126.696 34.5243 125.804 42.1336C124.46 53.6108 126.645 60.7542 118.184 60.7542C109.724 60.7542 111.909 53.6112 110.564 42.1341C109.673 34.5246 104.114 29.9429 104.114 25.8187C104.114 21.2317 110.413 17.5132 118.184 17.5132C125.955 17.5132 132.255 21.2317 132.255 25.8187Z" fill="url(#paint3_radial_92_5466)"/>
<path d="M137.891 35.6854C137.891 39.8096 132.332 44.391 131.441 52.0003C130.096 63.4775 132.282 70.6209 123.821 70.6209C115.36 70.6209 117.545 63.4779 116.201 52.0008C115.309 44.3913 109.75 39.8096 109.75 35.6854C109.75 31.0984 116.05 27.3799 123.821 27.3799C131.591 27.3799 137.891 31.0984 137.891 35.6854Z" fill="url(#paint4_radial_92_5466)"/>
<path d="M134.058 47.5606C134.058 51.9019 128.207 56.7245 127.268 64.7343C125.853 76.8157 128.154 84.6509 119.247 84.6509C110.341 84.6509 112.642 76.816 111.226 64.7348C110.288 56.7248 104.436 51.9019 104.436 47.5606C104.436 42.7321 111.067 38.8179 119.247 38.8179C127.427 38.8179 134.058 42.7321 134.058 47.5606Z" fill="url(#paint5_radial_92_5466)"/>
<path d="M77.0194 12.8941C77.0194 17.0183 71.4605 21.5997 70.5689 29.209C69.2241 40.6862 71.4099 47.8296 62.9489 47.8296C54.4881 47.8296 56.6738 40.6866 55.329 29.2095C54.4374 21.6 48.8784 17.0183 48.8784 12.8941C48.8784 8.30712 55.178 4.58862 62.9489 4.58862C70.7198 4.58862 77.0194 8.30712 77.0194 12.8941Z" fill="url(#paint6_radial_92_5466)"/>
<path d="M66.0101 17.5404C66.0101 21.6646 60.4512 26.246 59.5596 33.8553C58.2148 45.3325 60.4006 52.4759 51.9396 52.4759C43.4788 52.4759 45.6645 45.3329 44.3197 33.8558C43.4281 26.2463 37.8691 21.6646 37.8691 17.5404C37.8691 12.9534 44.1687 9.23486 51.9396 9.23486C59.7105 9.23486 66.0101 12.9534 66.0101 17.5404Z" fill="url(#paint7_radial_92_5466)"/>
<path d="M55.6502 25.8187C55.6502 29.9429 50.0913 34.5243 49.1997 42.1336C47.8549 53.6108 50.0407 60.7542 41.5797 60.7542C33.1189 60.7542 35.3046 53.6112 33.9598 42.1341C33.0682 34.5246 27.5092 29.9429 27.5092 25.8187C27.5092 21.2317 33.8088 17.5132 41.5797 17.5132C49.3506 17.5132 55.6502 21.2317 55.6502 25.8187Z" fill="url(#paint8_radial_92_5466)"/>
<path d="M49.9359 35.6854C49.9359 39.8096 44.377 44.391 43.4854 52.0003C42.1406 63.4775 44.3264 70.6209 35.8654 70.6209C27.4046 70.6209 29.5903 63.4779 28.2455 52.0008C27.3539 44.3913 21.7949 39.8096 21.7949 35.6854C21.7949 31.0984 28.0945 27.3799 35.8654 27.3799C43.6363 27.3799 49.9359 31.0984 49.9359 35.6854Z" fill="url(#paint9_radial_92_5466)"/>
<path d="M55.3866 47.5606C55.3866 51.9019 49.5351 56.7245 48.5966 64.7343C47.181 76.8157 49.4818 84.6509 40.5755 84.6509C31.6693 84.6509 33.9701 76.816 32.5544 64.7348C31.6158 56.7248 25.7643 51.9019 25.7643 47.5606C25.7643 42.7321 32.3955 38.8179 40.5755 38.8179C48.7555 38.8179 55.3866 42.7321 55.3866 47.5606Z" fill="url(#paint10_radial_92_5466)"/>
<path d="M125.932 56.7392C125.932 61.0805 120.081 65.9031 119.142 73.9129C117.727 85.9942 120.028 93.8294 111.121 93.8294C102.215 93.8294 104.516 85.9946 103.1 73.9134C102.162 65.9034 96.3102 61.0805 96.3102 56.7393C96.3102 51.9109 102.941 47.9966 111.121 47.9966C119.301 47.9966 125.932 51.9107 125.932 56.7392Z" fill="url(#paint11_radial_92_5466)"/>
<path d="M111.44 64.0419C111.44 68.3832 105.589 73.2058 104.65 81.2156C103.235 93.2969 105.536 101.132 96.6293 101.132C87.7231 101.132 90.0239 93.2973 88.6083 81.2161C87.6697 73.2061 81.8182 68.3832 81.8182 64.042C81.8182 59.2136 88.4494 55.2993 96.6293 55.2993C104.809 55.2993 111.44 59.2134 111.44 64.0419Z" fill="url(#paint12_radial_92_5466)"/>
<path d="M63.4707 56.7392C63.4707 61.0805 57.6192 65.9031 56.6807 73.9129C55.2651 85.9942 57.5659 93.8294 48.6596 93.8294C39.7534 93.8294 42.0542 85.9946 40.6386 73.9134C39.7 65.9034 33.8485 61.0805 33.8485 56.7393C33.8485 51.9109 40.4797 47.9966 48.6596 47.9966C56.8395 47.9966 63.4707 51.9107 63.4707 56.7392Z" fill="url(#paint13_radial_92_5466)"/>
<path d="M77.9628 64.0419C77.9628 68.3832 72.1113 73.2058 71.1728 81.2156C69.7572 93.2969 72.058 101.132 63.1517 101.132C54.2455 101.132 56.5463 93.2973 55.1307 81.2161C54.1921 73.2061 48.3406 68.3832 48.3406 64.042C48.3406 59.2136 54.9718 55.2993 63.1517 55.2993C71.3316 55.2993 77.9628 59.2134 77.9628 64.0419Z" fill="url(#paint14_radial_92_5466)"/>
<path d="M94.7015 66.8398C94.7015 71.1811 88.85 76.0037 87.9115 84.0135C86.4959 96.0948 88.7967 103.93 79.8904 103.93C70.9842 103.93 73.285 96.0952 71.8694 84.014C70.9308 76.004 65.0793 71.1811 65.0793 66.8399C65.0793 62.0115 71.7105 58.0972 79.8904 58.0972C88.0703 58.0972 94.7015 62.0113 94.7015 66.8398Z" fill="url(#paint15_radial_92_5466)"/>
<path d="M87.8349 83.9782C87.9641 82.8763 88.1942 81.8415 88.4812 80.8532C88.4962 80.9636 88.5186 81.069 88.5317 81.1807C89.9473 93.2619 87.6464 101.097 96.5526 101.097C103.791 101.097 103.627 95.9207 104.072 87.4958C104.694 91.5036 106.233 93.794 111.045 93.794C116.922 93.794 117.918 90.3807 118.324 84.5885C118.595 84.6056 118.876 84.6154 119.171 84.6154C126.65 84.6154 126.227 79.087 126.738 70.1606L126.737 70.1571C131.228 68.6109 130.413 62.9147 131.121 54.4219C130.728 55.1012 130.944 54.7189 130.814 54.8492C130.454 55.2125 128.403 57.807 125.164 59.548C124.485 61.1385 122.832 63.8713 122.645 64.0725C121.958 64.8127 117.773 69.992 111.612 70.2981C111.424 70.3074 111.236 70.3168 111.045 70.3168C110.321 70.3168 109.624 70.2453 108.954 70.1225C108.588 70.7536 108.343 71.1698 108.144 71.386C107.701 71.867 105.938 74.0121 103.208 75.6528C101.385 76.7483 99.1321 77.6194 96.5525 77.6194C94.2464 77.6194 92.201 76.9235 90.491 75.9933L89.9803 75.7026C89.3908 76.2807 88.6409 76.9482 87.75 77.5981C85.7494 79.0573 83.0377 80.4173 79.8138 80.4173C76.5899 80.4173 73.8781 79.0572 71.8775 77.598C70.9864 76.9482 70.2367 76.2806 69.6473 75.7026L69.1366 75.9934C67.4265 76.9236 65.3811 77.6194 63.075 77.6194C60.4953 77.6194 58.2426 76.7484 56.4199 75.653C54.0235 74.2127 52.3718 72.3837 51.7045 71.633C51.2699 71.144 51.0383 70.7524 50.6736 70.1224C50.0034 70.2452 49.3067 70.3167 48.5828 70.3167C48.4052 70.3167 48.2314 70.3074 48.057 70.2993C41.5884 70.0013 37.2884 64.325 36.9094 63.9993C36.8277 63.9291 35.1285 61.1162 34.4513 59.52C31.3146 57.8182 29.3037 55.3249 28.8811 54.8768C28.7156 54.7013 28.7853 54.8295 28.3896 54.1467C29.1473 62.881 28.2361 68.713 32.9353 70.2043C33.442 79.1052 33.0313 84.6152 40.4988 84.6152C40.7782 84.6152 41.0466 84.6074 41.3044 84.5921C41.7097 90.3821 42.7071 93.7938 48.5829 93.7938C53.3946 93.7938 54.9334 91.5035 55.5561 87.4956C55.556 87.4928 55.5558 87.4899 55.5556 87.4871L55.5561 87.4956C56.0008 95.9206 55.8362 101.097 63.075 101.097C71.9813 101.097 69.6805 93.2614 71.0961 81.1801C71.1091 81.0686 71.1315 80.9634 71.1465 80.8531C71.4334 81.8414 71.6637 82.8765 71.7928 83.9784C73.2084 96.0596 70.9076 103.894 79.8138 103.894C88.7201 103.895 86.4193 96.0595 87.8349 83.9782Z" fill="url(#paint16_radial_92_5466)"/>
<path fill-rule="evenodd" clip-rule="evenodd" d="M88.0475 24.4726C87.8083 25.3385 87.6225 26.247 87.5105 27.2034C87.1994 29.8582 87.0772 32.281 86.9685 34.4373C86.6072 41.603 86.3944 45.824 79.8905 45.824C73.3867 45.824 73.1738 41.6033 72.8125 34.4376V34.4375C72.7038 32.2813 72.5816 29.8586 72.2706 27.2039C72.1612 26.2705 71.9816 25.3826 71.7506 24.5356C71.1999 25.9615 70.768 27.5097 70.5689 29.209C70.2579 31.8638 70.1357 34.2867 70.027 36.4429C69.6657 43.6087 69.4528 47.8296 62.9489 47.8296C60.96 47.8296 59.5595 47.4349 58.563 46.682C58.3694 47.8941 58.083 48.9319 57.6264 49.7802C56.8764 49.4429 56.0702 49.147 55.2176 48.8981C55.3266 48.4454 55.3867 48.0005 55.3867 47.5606C55.3867 44.4315 52.6019 41.6864 48.4155 40.1417C49.296 38.5367 49.9359 37.0847 49.9359 35.6854C49.9359 32.5991 47.0841 29.906 42.8511 28.4742C42.0951 26.6909 41.1739 25.1023 40.3302 23.6475C39.0038 21.3604 37.8691 19.4037 37.8691 17.5404C37.8691 13.2876 43.2841 9.78139 50.2662 9.29299C52.5387 6.50944 57.3638 4.58862 62.9489 4.58862C65.2093 4.58862 67.3452 4.90325 69.2378 5.46235C71.8179 3.69898 75.6335 2.58301 79.8906 2.58301C84.1546 2.58301 87.9756 3.7026 90.5559 5.47094C92.4556 4.90647 94.6018 4.58862 96.8737 4.58862C102.459 4.58862 107.284 6.50944 109.556 9.29298C116.539 9.78131 121.954 13.2876 121.954 17.5404C121.954 19.4037 120.819 21.3603 119.493 23.6474C118.657 25.0878 117.746 26.6593 116.994 28.4211C112.674 29.8388 109.75 32.5605 109.75 35.6854C109.75 37.097 110.401 38.5622 111.294 40.1841C107.171 41.7363 104.436 44.4599 104.436 47.5606C104.436 47.9969 104.495 48.438 104.602 48.8868C103.748 49.1344 102.94 49.4291 102.188 49.7652C101.736 48.9196 101.452 47.8868 101.26 46.6818C100.263 47.4349 98.8627 47.8296 96.8737 47.8296C90.3699 47.8296 90.1571 43.6089 89.7958 36.4433V36.4432V36.4432C89.687 34.287 89.5649 31.8642 89.2538 29.2095C89.0518 27.485 88.61 25.916 88.0475 24.4726Z" fill="url(#paint17_radial_92_5466)"/>
<path d="M136.119 15.6064C105.038 -2.33783 54.6472 -2.33783 23.5671 15.6062C-7.51298 33.5504 -7.51298 62.6437 23.5674 80.5879C29.1189 83.7929 35.2937 86.4148 41.857 88.4749C45.8441 89.7264 49.9732 90.7693 54.2032 91.5983C54.7572 91.7069 55.3143 91.8078 55.8714 91.909C60.5848 92.7662 65.4063 93.3629 70.2745 93.7015C71.0345 93.7544 71.7938 93.8097 72.5555 93.8499C77.4349 94.1074 82.347 94.1069 87.2259 93.8461C87.9876 93.8053 88.7462 93.7484 89.5059 93.6951C94.3753 93.3531 99.1973 92.7523 103.911 91.8913C104.464 91.7903 105.017 91.6909 105.567 91.5828C109.804 90.7495 113.938 89.7 117.93 88.4427C124.456 86.3873 130.596 83.7766 136.119 80.588C167.199 62.644 167.199 33.5507 136.119 15.6064ZM28.2483 28.7088C27.8008 27.7036 27.5093 26.7481 27.5093 25.8188C27.5093 21.9865 31.9124 18.7694 37.8909 17.8115C37.886 17.7214 37.8692 17.6301 37.8692 17.5404C37.8692 13.2852 43.2933 9.78277 50.2813 9.29757C52.554 6.51427 57.3643 4.58867 62.949 4.58867C65.2124 4.58867 67.3435 4.91177 69.2381 5.47227C71.8184 3.70577 75.6292 2.58297 79.8907 2.58297C84.159 2.58297 87.9754 3.70917 90.556 5.48057C92.4574 4.91467 94.599 4.58867 96.8739 4.58867C102.459 4.58867 107.269 6.51417 109.542 9.29757C116.53 9.78277 121.954 13.2852 121.954 17.5404C121.954 17.633 121.937 17.7272 121.931 17.8202C127.881 18.7895 132.255 21.9988 132.255 25.8187C132.255 26.7555 131.959 27.7188 131.506 28.7329C134.305 29.8135 136.41 31.4662 137.349 33.4095C137.429 33.5766 137.501 33.7457 137.564 33.9169C137.571 33.9352 137.579 33.9532 137.586 33.9716C137.614 34.0522 137.637 34.1338 137.662 34.2151C137.702 34.3452 137.738 34.4758 137.767 34.608C137.789 34.7091 137.808 34.8109 137.824 34.9131C137.843 35.0339 137.856 35.1555 137.866 35.2778C137.874 35.3775 137.883 35.4773 137.885 35.5779C137.888 35.7642 137.885 35.95 137.867 36.1346C137.865 36.1524 137.866 36.1699 137.864 36.1877C137.836 36.4591 137.781 36.7338 137.712 37.0108C137.703 37.0475 137.695 37.0842 137.685 37.121C137.613 37.3916 137.524 37.6658 137.419 37.9432C137.417 37.9474 137.416 37.9514 137.414 37.9556C137.412 37.9618 137.409 37.9681 137.407 37.9743C137.193 38.5319 136.927 39.0828 136.647 39.6287C136.624 39.6728 136.6 39.7173 136.577 39.7616C136.32 40.2469 136.04 40.7444 135.743 41.26C135.496 41.6888 135.239 42.1296 134.979 42.5829C134.874 42.765 134.765 42.9458 134.662 43.1291C134.441 43.5249 134.04 44.2268 133.781 44.7615C133.678 44.9745 133.536 45.2502 133.536 45.2502C133.537 45.2526 133.538 45.255 133.539 45.2573C133.536 45.2634 133.533 45.2691 133.53 45.2752C133.641 45.5165 133.73 45.7629 133.807 46.0116C133.825 46.0689 133.842 46.1265 133.858 46.1842C133.928 46.4354 133.986 46.689 134.018 46.9469C134.02 46.9617 134.022 46.9765 134.024 46.9914C134.037 47.1021 134.039 47.2144 134.044 47.3262C134.052 47.4925 134.048 47.662 134.037 47.8334C134.035 47.8809 134.029 47.9288 134.026 47.9764C134.021 48.042 134.019 48.1073 134.011 48.1732C133.986 48.3798 133.947 48.5886 133.9 48.7983C133.892 48.8347 133.884 48.8711 133.876 48.9073C133.868 48.9426 133.863 48.9773 133.854 49.0126C133.798 49.2271 133.729 49.4446 133.653 49.6631C133.622 49.7532 133.598 49.8419 133.564 49.9328C133.519 50.052 133.464 50.1739 133.414 50.2944C133.303 50.5616 133.181 50.8324 133.048 51.1069L133.047 51.1092C132.92 51.371 132.763 51.6478 132.62 51.9169C132.176 52.7032 131.688 53.4305 131.236 54.0293C129.991 55.6818 129.05 57.6918 127.69 59.4503C121.014 68.0843 109.899 72.7205 99.5665 75.141C87.8048 77.8963 75.3311 78.0941 63.4684 75.8472C53.2177 73.9057 42.5148 70.0168 34.8739 62.6447C32.7347 60.5807 30.8817 58.2872 29.3636 55.7582C29.0738 55.2754 28.7747 54.8001 28.4776 54.3241C28.4737 54.2758 28.4708 54.2303 28.4666 54.1818C28.2417 53.7939 28.0259 53.4198 27.814 53.0488C27.7491 52.9353 27.6861 52.8231 27.6231 52.711C27.1778 51.9207 26.7823 51.1663 26.469 50.4374C26.4302 50.3469 26.3931 50.2569 26.3569 50.1672C26.2114 49.8059 26.0805 49.4489 25.9856 49.0987L25.9849 49.0961C25.8985 48.7765 25.8448 48.4621 25.8089 48.1497C25.8045 48.1115 25.804 48.0737 25.8004 48.0355C25.776 47.7875 25.7694 47.5465 25.7792 47.3082C25.7809 47.2758 25.7824 47.2434 25.7848 47.2111C25.7863 47.183 25.7872 47.1548 25.7897 47.1268C25.8105 46.8966 25.8434 46.6685 25.8952 46.4437C25.9164 46.3501 25.9445 46.2577 25.9719 46.1653C25.9812 46.1323 25.9892 46.099 25.9992 46.0661C26.0278 45.9722 26.059 45.879 26.0922 45.7861C26.1359 45.6643 26.1784 45.5421 26.2297 45.422C26.2265 45.4153 26.2231 45.409 26.2199 45.4023C26.2206 45.4002 26.2209 45.3984 26.2219 45.3963L25.9045 44.7611C25.6914 44.3013 25.2312 43.489 24.7802 42.7075C24.5744 42.3473 24.3713 41.9964 24.1718 41.6519C24.0766 41.4872 23.9765 41.3135 23.8837 41.152C23.8761 41.1388 23.8688 41.1259 23.8612 41.1127C23.724 40.8738 23.5909 40.6383 23.4615 40.4063C23.1607 39.8666 22.8846 39.3443 22.6466 38.8356C22.6373 38.8155 22.6288 38.7958 22.6195 38.7758C22.5192 38.5589 22.4276 38.3448 22.3429 38.1327C22.3248 38.088 22.307 38.0433 22.2899 37.9988C22.2008 37.7672 22.1195 37.5377 22.0526 37.311C22.0367 37.257 22.024 37.2035 22.0096 37.1497C21.9754 37.0234 21.9425 36.8974 21.9161 36.7724C21.8756 36.5796 21.8438 36.3881 21.8238 36.1978C21.8201 36.1639 21.8211 36.1304 21.8182 36.0965C21.8033 35.926 21.7989 35.7548 21.8018 35.5831C21.804 35.4771 21.8125 35.372 21.8213 35.2669C21.8308 35.1545 21.8428 35.0427 21.8596 34.9316C21.8606 34.9248 21.8618 34.918 21.863 34.9112C21.8796 34.8059 21.8984 34.701 21.9218 34.5969C21.9487 34.4764 21.9819 34.3573 22.0175 34.2384C22.0444 34.1486 22.0705 34.0587 22.1015 33.9697C22.1108 33.9435 22.122 33.9178 22.1318 33.8916C22.1919 33.7321 22.2583 33.574 22.3335 33.4179C23.2776 31.4566 25.4111 29.7904 28.2483 28.7088Z" fill="url(#paint18_radial_92_5466)"/>
<path d="M34.1158 22.3139C40.1217 22.3139 44.9904 17.4452 44.9904 11.4393C44.9904 5.43342 40.1217 0.564697 34.1158 0.564697C28.1099 0.564697 23.2412 5.43342 23.2412 11.4393C23.2412 17.4452 28.1099 22.3139 34.1158 22.3139Z" fill="url(#paint19_radial_92_5466)"/>
<path d="M25.1158 33.3139C31.1217 33.3139 35.9904 28.4452 35.9904 22.4393C35.9904 16.4334 31.1217 11.5647 25.1158 11.5647C19.1099 11.5647 14.2412 16.4334 14.2412 22.4393C14.2412 28.4452 19.1099 33.3139 25.1158 33.3139Z" fill="url(#paint20_radial_92_5466)"/>
<path d="M26.1158 46.3139C32.1217 46.3139 36.9904 41.4452 36.9904 35.4393C36.9904 29.4334 32.1217 24.5647 26.1158 24.5647C20.1099 24.5647 15.2412 29.4334 15.2412 35.4393C15.2412 41.4452 20.1099 46.3139 26.1158 46.3139Z" fill="url(#paint21_radial_92_5466)"/>
<path d="M34.1158 55.3139C40.1217 55.3139 44.9904 50.4452 44.9904 44.4393C44.9904 38.4334 40.1217 33.5647 34.1158 33.5647C28.1099 33.5647 23.2412 38.4334 23.2412 44.4393C23.2412 50.4452 28.1099 55.3139 34.1158 55.3139Z" fill="url(#paint22_radial_92_5466)"/>
<defs>
<radialGradient id="paint0_radial_92_5466" cx="0" cy="0" r="1" gradientUnits="userSpaceOnUse" gradientTransform="translate(79.7983 7.81321) scale(38.7347 38.7347)">
<stop stop-color="#54C5D4"/>
<stop offset="0.384615" stop-color="#27565D"/>
<stop offset="1" stop-color="#214D53"/>
</radialGradient>
<radialGradient id="paint1_radial_92_5466" cx="0" cy="0" r="1" gradientUnits="userSpaceOnUse" gradientTransform="translate(96.7815 9.81882) scale(38.7348 38.7347)">
<stop stop-color="#54C5D4"/>
<stop offset="0.384615" stop-color="#27565D"/>
<stop offset="1" stop-color="#214D53"/>
</radialGradient>
<radialGradient id="paint2_radial_92_5466" cx="0" cy="0" r="1" gradientUnits="userSpaceOnUse" gradientTransform="translate(107.791 14.4651) scale(38.7347 38.7347)">
<stop stop-color="#54C5D4"/>
<stop offset="0.384615" stop-color="#27565D"/>
<stop offset="1" stop-color="#214D53"/>
</radialGradient>
<radialGradient id="paint3_radial_92_5466" cx="0" cy="0" r="1" gradientUnits="userSpaceOnUse" gradientTransform="translate(118.092 22.7434) scale(38.7348 38.7347)">
<stop stop-color="#54C5D4"/>
<stop offset="0.384615" stop-color="#27565D"/>
<stop offset="1" stop-color="#214D53"/>
</radialGradient>
<radialGradient id="paint4_radial_92_5466" cx="0" cy="0" r="1" gradientUnits="userSpaceOnUse" gradientTransform="translate(123.728 32.6101) scale(38.7348 38.7347)">
<stop stop-color="#54C5D4"/>
<stop offset="0.384615" stop-color="#27565D"/>
<stop offset="1" stop-color="#214D53"/>
</radialGradient>
<radialGradient id="paint5_radial_92_5466" cx="0" cy="0" r="1" gradientUnits="userSpaceOnUse" gradientTransform="translate(119.15 44.3616) scale(40.7738 41.0566)">
<stop stop-color="#54C5D4"/>
<stop offset="0.384615" stop-color="#27565D"/>
<stop offset="1" stop-color="#214D53"/>
</radialGradient>
<radialGradient id="paint6_radial_92_5466" cx="0" cy="0" r="1" gradientUnits="userSpaceOnUse" gradientTransform="translate(62.8567 9.81882) scale(38.7348 38.7347)">
<stop stop-color="#54C5D4"/>
<stop offset="0.384615" stop-color="#27565D"/>
<stop offset="1" stop-color="#214D53"/>
</radialGradient>
<radialGradient id="paint7_radial_92_5466" cx="0" cy="0" r="1" gradientUnits="userSpaceOnUse" gradientTransform="translate(51.8474 14.4651) scale(38.7348 38.7347)">
<stop stop-color="#54C5D4"/>
<stop offset="0.384615" stop-color="#27565D"/>
<stop offset="1" stop-color="#214D53"/>
</radialGradient>
<radialGradient id="paint8_radial_92_5466" cx="0" cy="0" r="1" gradientUnits="userSpaceOnUse" gradientTransform="translate(41.4874 22.7434) scale(38.7348 38.7347)">
<stop stop-color="#54C5D4"/>
<stop offset="0.384615" stop-color="#27565D"/>
<stop offset="1" stop-color="#214D53"/>
</radialGradient>
<radialGradient id="paint9_radial_92_5466" cx="0" cy="0" r="1" gradientUnits="userSpaceOnUse" gradientTransform="translate(35.7732 32.6101) scale(38.7348 38.7347)">
<stop stop-color="#54C5D4"/>
<stop offset="0.384615" stop-color="#27565D"/>
<stop offset="1" stop-color="#214D53"/>
</radialGradient>
<radialGradient id="paint10_radial_92_5466" cx="0" cy="0" r="1" gradientUnits="userSpaceOnUse" gradientTransform="translate(40.4783 44.3616) scale(40.7738 41.0566)">
<stop stop-color="#54C5D4"/>
<stop offset="0.384615" stop-color="#27565D"/>
<stop offset="1" stop-color="#214D53"/>
</radialGradient>
<radialGradient id="paint11_radial_92_5466" cx="0" cy="0" r="1" gradientUnits="userSpaceOnUse" gradientTransform="translate(111.024 53.5403) scale(40.7736 41.0564)">
<stop stop-color="#54C5D4"/>
<stop offset="0.384615" stop-color="#27565D"/>
<stop offset="1" stop-color="#214D53"/>
</radialGradient>
<radialGradient id="paint12_radial_92_5466" cx="0" cy="0" r="1" gradientUnits="userSpaceOnUse" gradientTransform="translate(96.5322 60.843) scale(40.7736 41.0564)">
<stop stop-color="#54C5D4"/>
<stop offset="0.384615" stop-color="#27565D"/>
<stop offset="1" stop-color="#214D53"/>
</radialGradient>
<radialGradient id="paint13_radial_92_5466" cx="0" cy="0" r="1" gradientUnits="userSpaceOnUse" gradientTransform="translate(48.5625 53.5403) scale(40.7736 41.0564)">
<stop stop-color="#54C5D4"/>
<stop offset="0.384615" stop-color="#27565D"/>
<stop offset="1" stop-color="#214D53"/>
</radialGradient>
<radialGradient id="paint14_radial_92_5466" cx="0" cy="0" r="1" gradientUnits="userSpaceOnUse" gradientTransform="translate(63.0546 60.843) scale(40.7736 41.0564)">
<stop stop-color="#54C5D4"/>
<stop offset="0.384615" stop-color="#27565D"/>
<stop offset="1" stop-color="#214D53"/>
</radialGradient>
<radialGradient id="paint15_radial_92_5466" cx="0" cy="0" r="1" gradientUnits="userSpaceOnUse" gradientTransform="translate(79.7933 63.6409) scale(40.7736 41.0564)">
<stop stop-color="#54C5D4"/>
<stop offset="0.384615" stop-color="#27565D"/>
<stop offset="1" stop-color="#214D53"/>
</radialGradient>
<radialGradient id="paint16_radial_92_5466" cx="0" cy="0" r="1" gradientUnits="userSpaceOnUse" gradientTransform="translate(79.8911 57.4104) rotate(90) scale(53.5 90.2351)">
<stop offset="0.494041" stop-color="#090744" stop-opacity="0"/>
<stop offset="1" stop-color="#090744"/>
</radialGradient>
<radialGradient id="paint17_radial_92_5466" cx="0" cy="0" r="1" gradientUnits="userSpaceOnUse" gradientTransform="translate(79.9114 18.4011) rotate(90) scale(49.5 209.533)">
<stop offset="0.295674" stop-color="#090744" stop-opacity="0"/>
<stop offset="1" stop-color="#090744"/>
</radialGradient>
<radialGradient id="paint18_radial_92_5466" cx="0" cy="0" r="1" gradientUnits="userSpaceOnUse" gradientTransform="translate(79.843 46.6295) scale(78.0555 47.3407)">
<stop offset="0.6678" stop-color="#584F93" stop-opacity="0"/>
<stop offset="0.6958" stop-color="#5A4F93"/>
<stop offset="0.9864" stop-color="#584F93" stop-opacity="0"/>
</radialGradient>
<radialGradient id="paint19_radial_92_5466" cx="0" cy="0" r="1" gradientUnits="userSpaceOnUse" gradientTransform="translate(34.1158 11.4393) scale(10.8746)">
<stop stop-color="#54A0D3"/>
<stop offset="1" stop-color="#1F3F53"/>
</radialGradient>
<radialGradient id="paint20_radial_92_5466" cx="0" cy="0" r="1" gradientUnits="userSpaceOnUse" gradientTransform="translate(25.1158 22.4393) scale(10.8746)">
<stop offset="0.001" stop-color="#9B5BA5"/>
<stop offset="0.3165" stop-color="#9759A0"/>
<stop offset="0.5063" stop-color="#8F5296"/>
<stop offset="0.6627" stop-color="#814888"/>
<stop offset="0.8011" stop-color="#6F3B76"/>
<stop offset="0.9263" stop-color="#582B61"/>
<stop offset="1" stop-color="#472053"/>
</radialGradient>
<radialGradient id="paint21_radial_92_5466" cx="0" cy="0" r="1" gradientUnits="userSpaceOnUse" gradientTransform="translate(26.1158 35.4393) scale(10.8746)">
<stop offset="0.001" stop-color="#D37853"/>
<stop offset="0.2744" stop-color="#D07752"/>
<stop offset="0.4388" stop-color="#C7724F"/>
<stop offset="0.5744" stop-color="#B86A4A"/>
<stop offset="0.6944" stop-color="#A45F43"/>
<stop offset="0.804" stop-color="#8C5139"/>
<stop offset="0.9046" stop-color="#70412E"/>
<stop offset="0.9991" stop-color="#542F20"/>
<stop offset="1" stop-color="#532F20"/>
</radialGradient>
<radialGradient id="paint22_radial_92_5466" cx="0" cy="0" r="1" gradientUnits="userSpaceOnUse" gradientTransform="translate(34.1158 44.4393) scale(10.8746)">
<stop stop-color="#68C077"/>
<stop offset="0.3026" stop-color="#66BA74"/>
<stop offset="0.4845" stop-color="#5FAF6C"/>
<stop offset="0.6345" stop-color="#559E61"/>
<stop offset="0.7672" stop-color="#478953"/>
<stop offset="0.8873" stop-color="#357042"/>
<stop offset="0.9988" stop-color="#215430"/>
<stop offset="1" stop-color="#205430"/>
</radialGradient>
</defs>
</svg>
