<svg width="51" height="24" viewBox="0 0 51 24" fill="none" xmlns="http://www.w3.org/2000/svg">
<rect x="2" y="1.98901" width="48" height="20" rx="10" fill="url(#paint0_linear_37_1584)"/>
<rect x="2" y="1.98901" width="48" height="20" rx="10" stroke="#4B9184" stroke-width="3" stroke-linejoin="round"/>
<path d="M10.2031 7.39917H13.6367C14.3164 7.39917 14.8223 7.42847 15.1543 7.48706C15.4902 7.54175 15.7891 7.65894 16.0508 7.83862C16.3164 8.01831 16.5371 8.25854 16.7129 8.55933C16.8887 8.8562 16.9766 9.19019 16.9766 9.56128C16.9766 9.96362 16.8672 10.3328 16.6484 10.6687C16.4336 11.0046 16.1406 11.2566 15.7695 11.4246C16.293 11.5769 16.6953 11.8367 16.9766 12.2039C17.2578 12.571 17.3984 13.0027 17.3984 13.4988C17.3984 13.8894 17.3066 14.2703 17.123 14.6414C16.9434 15.0085 16.6953 15.3035 16.3789 15.5261C16.0664 15.7449 15.6797 15.8796 15.2188 15.9304C14.9297 15.9617 14.2324 15.9812 13.127 15.989H10.2031V7.39917ZM11.9375 8.82886V10.8152H13.0742C13.75 10.8152 14.1699 10.8054 14.334 10.7859C14.6309 10.7507 14.8633 10.6492 15.0312 10.4812C15.2031 10.3093 15.2891 10.0847 15.2891 9.80737C15.2891 9.54175 15.2148 9.3269 15.0664 9.16284C14.9219 8.99487 14.7051 8.89331 14.416 8.85815C14.2441 8.83862 13.75 8.82886 12.9336 8.82886H11.9375ZM11.9375 12.2449V14.5417H13.543C14.168 14.5417 14.5645 14.5242 14.7324 14.489C14.9902 14.4421 15.1992 14.3289 15.3594 14.1492C15.5234 13.9656 15.6055 13.7214 15.6055 13.4167C15.6055 13.1589 15.543 12.9402 15.418 12.7605C15.293 12.5808 15.1113 12.45 14.873 12.3679C14.6387 12.2859 14.127 12.2449 13.3379 12.2449H11.9375ZM18.875 15.989V7.39917H22.5254C23.4434 7.39917 24.1094 7.47729 24.5234 7.63354C24.9414 7.78589 25.2754 8.05933 25.5254 8.45386C25.7754 8.84839 25.9004 9.29956 25.9004 9.80737C25.9004 10.4519 25.7109 10.9851 25.332 11.407C24.9531 11.825 24.3867 12.0886 23.6328 12.198C24.0078 12.4167 24.3164 12.657 24.5586 12.9187C24.8047 13.1804 25.1348 13.6453 25.5488 14.3132L26.5977 15.989H24.5234L23.2695 14.1199C22.8242 13.4519 22.5195 13.032 22.3555 12.8601C22.1914 12.6843 22.0176 12.5652 21.834 12.5027C21.6504 12.4363 21.3594 12.4031 20.9609 12.4031H20.6094V15.989H18.875ZM20.6094 11.032H21.8926C22.7246 11.032 23.2441 10.9968 23.4512 10.9265C23.6582 10.8562 23.8203 10.7351 23.9375 10.5632C24.0547 10.3914 24.1133 10.1765 24.1133 9.9187C24.1133 9.62964 24.0352 9.39722 23.8789 9.22144C23.7266 9.04175 23.5098 8.92847 23.2285 8.88159C23.0879 8.86206 22.666 8.85229 21.9629 8.85229H20.6094V11.032ZM35.2871 15.989H33.4004L32.6504 14.0378H29.2168L28.5078 15.989H26.668L30.0137 7.39917H31.8477L35.2871 15.989ZM32.0938 12.5906L30.9102 9.40308L29.75 12.5906H32.0938ZM36.2246 15.989V7.39917H42.1133V8.85229H37.959V10.8855H41.5449V12.3386H37.959V15.989H36.2246Z" fill="white"/>
<defs>
<linearGradient id="paint0_linear_37_1584" x1="26" y1="1.98901" x2="26" y2="21.989" gradientUnits="userSpaceOnUse">
<stop stop-color="#4B9184"/>
<stop offset="1" stop-color="#3F1741"/>
</linearGradient>
</defs>
</svg>
