<svg width="58" height="24" viewBox="0 0 58 24" fill="none" xmlns="http://www.w3.org/2000/svg">
<rect x="2" y="1.98901" width="55" height="20" rx="10" fill="url(#paint0_linear_42_2601)"/>
<rect x="2" y="1.98901" width="55" height="20" rx="10" stroke="#2CC3F2" stroke-width="3" stroke-linejoin="round"/>
<path d="M10.3516 7.39917H13.5215C14.2363 7.39917 14.7812 7.45386 15.1562 7.56323C15.6602 7.71167 16.0918 7.97534 16.4512 8.35425C16.8105 8.73315 17.084 9.198 17.2715 9.74878C17.459 10.2957 17.5527 10.9714 17.5527 11.7761C17.5527 12.4832 17.4648 13.0925 17.2891 13.6042C17.0742 14.2292 16.7676 14.7351 16.3691 15.1218C16.0684 15.4148 15.6621 15.6433 15.1504 15.8074C14.7676 15.9285 14.2559 15.989 13.6152 15.989H10.3516V7.39917ZM12.0859 8.85229V14.5417H13.3809C13.8652 14.5417 14.2148 14.5144 14.4297 14.4597C14.7109 14.3894 14.9434 14.2703 15.127 14.1023C15.3145 13.9343 15.4668 13.6589 15.584 13.2761C15.7012 12.8894 15.7598 12.364 15.7598 11.7C15.7598 11.0359 15.7012 10.5261 15.584 10.1707C15.4668 9.81519 15.3027 9.53784 15.0918 9.33862C14.8809 9.1394 14.6133 9.00464 14.2891 8.93433C14.0469 8.87964 13.5723 8.85229 12.8652 8.85229H12.0859ZM19.0176 7.39917H20.752V12.0515C20.752 12.7898 20.7734 13.2683 20.8164 13.4871C20.8906 13.8386 21.0664 14.1218 21.3438 14.3367C21.625 14.5476 22.0078 14.6531 22.4922 14.6531C22.9844 14.6531 23.3555 14.5535 23.6055 14.3542C23.8555 14.1511 24.0059 13.9031 24.0566 13.6101C24.1074 13.3171 24.1328 12.8308 24.1328 12.1511V7.39917H25.8672V11.9109C25.8672 12.9421 25.8203 13.6707 25.7266 14.0964C25.6328 14.5222 25.459 14.8816 25.2051 15.1746C24.9551 15.4675 24.6191 15.7019 24.1973 15.8777C23.7754 16.0496 23.2246 16.1355 22.5449 16.1355C21.7246 16.1355 21.1016 16.0417 20.6758 15.8542C20.2539 15.6628 19.9199 15.4167 19.6738 15.116C19.4277 14.8113 19.2656 14.4929 19.1875 14.1609C19.0742 13.6687 19.0176 12.9421 19.0176 11.9812V7.39917ZM27.2617 13.1941L28.9492 13.03C29.0508 13.5964 29.2559 14.0125 29.5645 14.2781C29.877 14.5437 30.2969 14.6765 30.8242 14.6765C31.3828 14.6765 31.8027 14.5593 32.084 14.325C32.3691 14.0867 32.5117 13.8093 32.5117 13.4929C32.5117 13.2898 32.4512 13.1179 32.3301 12.9773C32.2129 12.8328 32.0059 12.7078 31.709 12.6023C31.5059 12.532 31.043 12.407 30.3203 12.2273C29.3906 11.9968 28.7383 11.7136 28.3633 11.3777C27.8359 10.905 27.5723 10.3289 27.5723 9.64917C27.5723 9.21167 27.6953 8.80347 27.9414 8.42456C28.1914 8.04175 28.5488 7.75073 29.0137 7.55151C29.4824 7.35229 30.0469 7.25269 30.707 7.25269C31.7852 7.25269 32.5957 7.48901 33.1387 7.96167C33.6855 8.43433 33.9727 9.06519 34 9.85425L32.2656 9.93042C32.1914 9.48901 32.0312 9.17261 31.7852 8.9812C31.543 8.78589 31.1777 8.68823 30.6895 8.68823C30.1855 8.68823 29.791 8.79175 29.5059 8.99878C29.3223 9.13159 29.2305 9.30933 29.2305 9.53198C29.2305 9.73511 29.3164 9.90894 29.4883 10.0535C29.707 10.2371 30.2383 10.4285 31.082 10.6277C31.9258 10.8269 32.5488 11.0339 32.9512 11.2488C33.3574 11.4597 33.6738 11.7507 33.9004 12.1218C34.1309 12.489 34.2461 12.9441 34.2461 13.4871C34.2461 13.9792 34.1094 14.4402 33.8359 14.8699C33.5625 15.2996 33.1758 15.6199 32.6758 15.8308C32.1758 16.0378 31.5527 16.1414 30.8066 16.1414C29.7207 16.1414 28.8867 15.8914 28.3047 15.3914C27.7227 14.8875 27.375 14.155 27.2617 13.1941ZM35.7051 15.989V7.39917H38.4883C39.543 7.39917 40.2305 7.44214 40.5508 7.52808C41.043 7.65698 41.4551 7.93823 41.7871 8.37183C42.1191 8.80151 42.2852 9.35815 42.2852 10.0417C42.2852 10.5691 42.1895 11.0125 41.998 11.3718C41.8066 11.7312 41.5625 12.0144 41.2656 12.2214C40.9727 12.4246 40.6738 12.5593 40.3691 12.6257C39.9551 12.7078 39.3555 12.7488 38.5703 12.7488H37.4395V15.989H35.7051ZM37.4395 8.85229V11.2898H38.3887C39.0723 11.2898 39.5293 11.2449 39.7598 11.155C39.9902 11.0652 40.1699 10.9246 40.2988 10.7332C40.4316 10.5417 40.498 10.3191 40.498 10.0652C40.498 9.75269 40.4062 9.49487 40.2227 9.29175C40.0391 9.08862 39.8066 8.96167 39.5254 8.91089C39.3184 8.87183 38.9023 8.85229 38.2773 8.85229H37.4395ZM43.1172 14.2136L44.7695 13.9617C44.8398 14.282 44.9824 14.5261 45.1973 14.6941C45.4121 14.8582 45.7129 14.9402 46.0996 14.9402C46.5254 14.9402 46.8457 14.8621 47.0605 14.7058C47.2051 14.5964 47.2773 14.45 47.2773 14.2664C47.2773 14.1414 47.2383 14.0378 47.1602 13.9558C47.0781 13.8777 46.8945 13.8054 46.6094 13.739C45.2812 13.446 44.4395 13.1785 44.084 12.9363C43.5918 12.6003 43.3457 12.1335 43.3457 11.5359C43.3457 10.9968 43.5586 10.5437 43.9844 10.1765C44.4102 9.80933 45.0703 9.62573 45.9648 9.62573C46.8164 9.62573 47.4492 9.7644 47.8633 10.0417C48.2773 10.3191 48.5625 10.7292 48.7188 11.2722L47.166 11.5593C47.0996 11.3171 46.9727 11.1316 46.7852 11.0027C46.6016 10.8738 46.3379 10.8093 45.9941 10.8093C45.5605 10.8093 45.25 10.8699 45.0625 10.991C44.9375 11.0769 44.875 11.1882 44.875 11.325C44.875 11.4421 44.9297 11.5417 45.0391 11.6238C45.1875 11.7332 45.6992 11.8875 46.5742 12.0867C47.4531 12.2859 48.0664 12.53 48.4141 12.8191C48.7578 13.1121 48.9297 13.5203 48.9297 14.0437C48.9297 14.614 48.6914 15.1042 48.2148 15.5144C47.7383 15.9246 47.0332 16.1296 46.0996 16.1296C45.252 16.1296 44.5801 15.9578 44.084 15.614C43.5918 15.2703 43.2695 14.8035 43.1172 14.2136Z" fill="white"/>
<defs>
<linearGradient id="paint0_linear_42_2601" x1="29.5" y1="1.98901" x2="29.5" y2="21.989" gradientUnits="userSpaceOnUse">
<stop stop-color="#2CC3F2"/>
<stop offset="1" stop-color="#A8A800"/>
</linearGradient>
</defs>
</svg>
