<svg width="63" height="42" viewBox="0 0 63 42" fill="none" xmlns="http://www.w3.org/2000/svg">
<path d="M41.1466 13.6497L41.1235 21.8013C36.9387 21.8142 33.2923 20.5064 31.3196 18.5627L31.3427 10.4111C33.3154 12.3548 36.9617 13.6626 41.1466 13.6497Z" fill="url(#paint0_linear_91_5158)"/>
<path d="M31.3426 10.4111L31.3195 18.5627C29.4044 20.5183 25.797 21.8484 21.6392 21.8612L21.6623 13.7096C25.8202 13.6968 29.4275 12.3668 31.3426 10.4111Z" fill="url(#paint1_linear_91_5158)"/>
<path d="M62.1189 16.8438L62.0958 24.9953C62.1487 28.5766 57.1611 31.5114 50.9693 31.5304L50.9924 23.3788C57.1842 23.3598 62.1718 20.4251 62.1189 16.8438Z" fill="url(#paint2_linear_91_5158)"/>
<path d="M12.1049 23.4982L12.0818 31.6498C5.86311 31.6689 0.789106 28.7651 0.736206 25.1838L0.759306 17.0322C0.812206 20.6135 5.88621 23.5173 12.1049 23.4982Z" fill="url(#paint3_linear_91_5158)"/>
<path d="M10.6086 34.8459L10.6317 26.6943C10.6316 26.7165 10.6318 26.7388 10.6321 26.7611C10.6851 30.3477 15.759 33.2463 21.9507 33.2272C26.1085 33.2144 29.7159 31.8844 31.631 29.9287L31.6079 38.0803C29.6928 40.0359 26.0854 41.366 21.9276 41.3787C15.7359 41.3977 10.662 38.4991 10.609 34.9126C10.6087 34.8904 10.6086 34.8682 10.6086 34.8459Z" fill="url(#paint4_linear_91_5158)"/>
<path d="M52.5345 26.6323L52.5114 34.7839C52.5644 38.3705 47.5767 41.3 41.3849 41.319C37.2271 41.3318 33.5807 40.0241 31.608 38.0804L31.6311 29.9288C33.6039 31.8725 37.2502 33.1802 41.4081 33.1674C47.5998 33.1484 52.5875 30.2188 52.5345 26.6323Z" fill="url(#paint5_linear_91_5158)"/>
<path d="M52.2464 7.17627L52.2233 10.4112L50.7732 10.3723C51.7042 9.42817 52.2431 8.33977 52.2464 7.17627Z" fill="url(#paint6_linear_91_5158)"/>
<path d="M11.8857 10.4919L10.3205 10.5588L10.3436 7.23828C10.3612 8.42688 10.9356 9.53558 11.8857 10.4919Z" fill="url(#paint7_linear_91_5158)"/>
<path d="M39.6413 20.2298L39.6644 16.8467C39.6644 16.8686 39.6645 16.8905 39.6648 16.9125C39.6823 18.0958 40.2657 19.2045 41.2158 20.1608H41.1927C41.2158 20.1608 39.6413 20.2298 39.6413 20.2298Z" fill="url(#paint8_linear_91_5158)"/>
<path d="M23.2138 17.0293L23.1907 20.2705L21.7405 20.2207C22.6716 19.2765 23.2105 18.188 23.2138 17.0293Z" fill="url(#paint9_linear_91_5158)"/>
<path d="M62.1189 16.8435C62.1718 20.4248 57.1842 23.3596 50.9924 23.3786C51.9425 24.3349 52.5169 25.4436 52.5345 26.6321C52.5875 30.2187 47.5998 33.1482 41.408 33.1672C37.2502 33.18 33.6038 31.8723 31.6311 29.9286C29.716 31.8842 26.1086 33.2143 21.9508 33.2271C15.7591 33.2461 10.6852 30.3475 10.6322 26.761C10.6146 25.5724 11.1562 24.4604 12.105 23.4982C5.8862 23.5173 0.812199 20.6135 0.759299 17.0321C0.706299 13.4455 5.694 10.5108 11.8857 10.4917C10.9356 9.53546 10.3612 8.42676 10.3436 7.23816C10.2907 3.65686 15.2784 0.722159 21.4701 0.703059C25.6279 0.690259 29.2743 1.99796 31.247 3.94166C33.1621 1.98606 36.7695 0.655959 40.9273 0.643159C47.119 0.624159 52.193 3.52796 52.2459 7.10926C52.2635 8.29786 51.7219 9.40996 50.7731 10.3721C56.9919 10.3531 62.0659 13.2569 62.1189 16.8435ZM41.2158 20.1608C40.2656 19.2045 39.6823 18.0958 39.6648 16.9125C39.6472 15.7239 40.1978 14.6118 41.1466 13.6497C36.9618 13.6626 33.3154 12.3548 31.3427 10.4111C29.4276 12.3667 25.8202 13.6968 21.6624 13.7096C22.6215 14.6659 23.1959 15.7745 23.2135 16.9631C23.231 18.1465 22.6894 19.2586 21.7406 20.2207C25.9164 20.2079 29.5628 21.5156 31.5355 23.4593C33.4506 21.5037 37.058 20.1736 41.2158 20.1608Z" fill="url(#paint10_radial_91_5158)"/>
<defs>
<linearGradient id="paint0_linear_91_5158" x1="31.3196" y1="16.1063" x2="41.1466" y2="16.1063" gradientUnits="userSpaceOnUse">
<stop stop-color="#5F532A"/>
<stop offset="0.9993" stop-color="#AA8E29"/>
</linearGradient>
<linearGradient id="paint1_linear_91_5158" x1="21.6392" y1="16.1362" x2="31.3426" y2="16.1362" gradientUnits="userSpaceOnUse">
<stop stop-color="#5F532A"/>
<stop offset="0.9993" stop-color="#AA8E29"/>
</linearGradient>
<linearGradient id="paint2_linear_91_5158" x1="50.9693" y1="24.1871" x2="62.1193" y2="24.1871" gradientUnits="userSpaceOnUse">
<stop stop-color="#5F532A"/>
<stop offset="0.9993" stop-color="#AA8E29"/>
</linearGradient>
<linearGradient id="paint3_linear_91_5158" x1="0.736206" y1="24.3411" x2="12.1049" y2="24.3411" gradientUnits="userSpaceOnUse">
<stop stop-color="#5F532A"/>
<stop offset="0.9993" stop-color="#AA8E29"/>
</linearGradient>
<linearGradient id="paint4_linear_91_5158" x1="10.6086" y1="34.0366" x2="31.631" y2="34.0366" gradientUnits="userSpaceOnUse">
<stop stop-color="#5F532A"/>
<stop offset="0.9993" stop-color="#AA8E29"/>
</linearGradient>
<linearGradient id="paint5_linear_91_5158" x1="31.608" y1="33.9758" x2="52.5349" y2="33.9758" gradientUnits="userSpaceOnUse">
<stop stop-color="#5F532A"/>
<stop offset="0.9993" stop-color="#AA8E29"/>
</linearGradient>
<linearGradient id="paint6_linear_91_5158" x1="50.7732" y1="8.79373" x2="52.2464" y2="8.79373" gradientUnits="userSpaceOnUse">
<stop stop-color="#5F532A"/>
<stop offset="0.9993" stop-color="#AA8E29"/>
</linearGradient>
<linearGradient id="paint7_linear_91_5158" x1="10.3205" y1="8.89854" x2="11.8857" y2="8.89854" gradientUnits="userSpaceOnUse">
<stop stop-color="#5F532A"/>
<stop offset="0.9993" stop-color="#AA8E29"/>
</linearGradient>
<linearGradient id="paint8_linear_91_5158" x1="39.6413" y1="18.5382" x2="41.2158" y2="18.5382" gradientUnits="userSpaceOnUse">
<stop stop-color="#5F532A"/>
<stop offset="0.9993" stop-color="#AA8E29"/>
</linearGradient>
<linearGradient id="paint9_linear_91_5158" x1="21.7405" y1="18.6499" x2="23.2138" y2="18.6499" gradientUnits="userSpaceOnUse">
<stop stop-color="#5F532A"/>
<stop offset="0.9993" stop-color="#AA8E29"/>
</linearGradient>
<radialGradient id="paint10_radial_91_5158" cx="0" cy="0" r="1" gradientUnits="userSpaceOnUse" gradientTransform="translate(31.4391 16.936) scale(24.5632 14.0993)">
<stop stop-color="#EBCE64"/>
<stop offset="1" stop-color="#AA8E29"/>
</radialGradient>
</defs>
</svg>
