<svg width="81" height="24" viewBox="0 0 81 24" fill="none" xmlns="http://www.w3.org/2000/svg">
<rect x="1" y="1.98901" width="79" height="20" rx="10" fill="url(#paint0_linear_84_2006)"/>
<rect x="1" y="1.98901" width="79" height="20" rx="10" stroke="#D93660" stroke-width="3" stroke-linejoin="round"/>
<path d="M10.957 15.989V8.85229H8.4082V7.39917H15.2344V8.85229H12.6914V15.989H10.957ZM16.3652 15.989V7.39917H18.0996V10.78H21.498V7.39917H23.2324V15.989H21.498V12.2332H18.0996V15.989H16.3652ZM25.0371 15.989V7.39917H28.6875C29.6055 7.39917 30.2715 7.47729 30.6855 7.63354C31.1035 7.78589 31.4375 8.05933 31.6875 8.45386C31.9375 8.84839 32.0625 9.29956 32.0625 9.80737C32.0625 10.4519 31.873 10.9851 31.4941 11.407C31.1152 11.825 30.5488 12.0886 29.7949 12.198C30.1699 12.4167 30.4785 12.657 30.7207 12.9187C30.9668 13.1804 31.2969 13.6453 31.7109 14.3132L32.7598 15.989H30.6855L29.4316 14.1199C28.9863 13.4519 28.6816 13.032 28.5176 12.8601C28.3535 12.6843 28.1797 12.5652 27.9961 12.5027C27.8125 12.4363 27.5215 12.4031 27.123 12.4031H26.7715V15.989H25.0371ZM26.7715 11.032H28.0547C28.8867 11.032 29.4062 10.9968 29.6133 10.9265C29.8203 10.8562 29.9824 10.7351 30.0996 10.5632C30.2168 10.3914 30.2754 10.1765 30.2754 9.9187C30.2754 9.62964 30.1973 9.39722 30.041 9.22144C29.8887 9.04175 29.6719 8.92847 29.3906 8.88159C29.25 8.86206 28.8281 8.85229 28.125 8.85229H26.7715V11.032ZM33.3516 11.7468C33.3516 10.8718 33.4824 10.1375 33.7441 9.5437C33.9395 9.1062 34.2051 8.71362 34.541 8.36597C34.8809 8.01831 35.252 7.7605 35.6543 7.59253C36.1895 7.36597 36.8066 7.25269 37.5059 7.25269C38.7715 7.25269 39.7832 7.64526 40.541 8.43042C41.3027 9.21558 41.6836 10.3074 41.6836 11.7058C41.6836 13.0925 41.3066 14.1785 40.5527 14.9636C39.7988 15.7449 38.791 16.1355 37.5293 16.1355C36.252 16.1355 35.2363 15.7468 34.4824 14.9695C33.7285 14.1882 33.3516 13.114 33.3516 11.7468ZM35.1387 11.6882C35.1387 12.6609 35.3633 13.3992 35.8125 13.9031C36.2617 14.4031 36.832 14.6531 37.5234 14.6531C38.2148 14.6531 38.7812 14.405 39.2227 13.9089C39.668 13.4089 39.8906 12.6609 39.8906 11.6648C39.8906 10.6804 39.6738 9.94604 39.2402 9.46167C38.8105 8.97729 38.2383 8.73511 37.5234 8.73511C36.8086 8.73511 36.2324 8.9812 35.7949 9.47339C35.3574 9.96167 35.1387 10.7 35.1387 11.6882ZM43.0195 15.989V7.39917H45.6152L47.1738 13.2585L48.7148 7.39917H51.3164V15.989H49.7051V9.22729L48 15.989H46.3301L44.6309 9.22729V15.989H43.0195ZM53.0449 7.39917H56.4785C57.1582 7.39917 57.6641 7.42847 57.9961 7.48706C58.332 7.54175 58.6309 7.65894 58.8926 7.83862C59.1582 8.01831 59.3789 8.25854 59.5547 8.55933C59.7305 8.8562 59.8184 9.19019 59.8184 9.56128C59.8184 9.96362 59.709 10.3328 59.4902 10.6687C59.2754 11.0046 58.9824 11.2566 58.6113 11.4246C59.1348 11.5769 59.5371 11.8367 59.8184 12.2039C60.0996 12.571 60.2402 13.0027 60.2402 13.4988C60.2402 13.8894 60.1484 14.2703 59.9648 14.6414C59.7852 15.0085 59.5371 15.3035 59.2207 15.5261C58.9082 15.7449 58.5215 15.8796 58.0605 15.9304C57.7715 15.9617 57.0742 15.9812 55.9688 15.989H53.0449V7.39917ZM54.7793 8.82886V10.8152H55.916C56.5918 10.8152 57.0117 10.8054 57.1758 10.7859C57.4727 10.7507 57.7051 10.6492 57.873 10.4812C58.0449 10.3093 58.1309 10.0847 58.1309 9.80737C58.1309 9.54175 58.0566 9.3269 57.9082 9.16284C57.7637 8.99487 57.5469 8.89331 57.2578 8.85815C57.0859 8.83862 56.5918 8.82886 55.7754 8.82886H54.7793ZM54.7793 12.2449V14.5417H56.3848C57.0098 14.5417 57.4062 14.5242 57.5742 14.489C57.832 14.4421 58.041 14.3289 58.2012 14.1492C58.3652 13.9656 58.4473 13.7214 58.4473 13.4167C58.4473 13.1589 58.3848 12.9402 58.2598 12.7605C58.1348 12.5808 57.9531 12.45 57.7148 12.3679C57.4805 12.2859 56.9688 12.2449 56.1797 12.2449H54.7793ZM61.6582 15.989V7.39917H63.3926V15.989H61.6582ZM65.0684 15.989V7.39917H66.7559L70.2715 13.1355V7.39917H71.8828V15.989H70.1426L66.6797 10.3875V15.989H65.0684Z" fill="white"/>
<defs>
<linearGradient id="paint0_linear_84_2006" x1="40.5" y1="1.98901" x2="40.5" y2="21.989" gradientUnits="userSpaceOnUse">
<stop stop-color="#D93660"/>
<stop offset="1" stop-color="#A30000"/>
</linearGradient>
</defs>
</svg>
