<svg width="59" height="24" viewBox="0 0 59 24" fill="none" xmlns="http://www.w3.org/2000/svg">
<rect x="2" y="1.98901" width="56" height="20" rx="10" fill="url(#paint0_linear_38_1886)"/>
<rect x="2" y="1.98901" width="56" height="20" rx="10" stroke="#351B8A" stroke-width="3" stroke-linejoin="round"/>
<path d="M15.6914 12.8308L17.373 13.364C17.1152 14.3015 16.6855 14.9988 16.084 15.4558C15.4863 15.9089 14.7266 16.1355 13.8047 16.1355C12.6641 16.1355 11.7266 15.7468 10.9922 14.9695C10.2578 14.1882 9.89062 13.1218 9.89062 11.7703C9.89062 10.3406 10.2598 9.2312 10.998 8.44214C11.7363 7.64917 12.707 7.25269 13.9102 7.25269C14.9609 7.25269 15.8145 7.56323 16.4707 8.18433C16.8613 8.55151 17.1543 9.07886 17.3496 9.76636L15.6328 10.1765C15.5312 9.7312 15.3184 9.37964 14.9941 9.12183C14.6738 8.86401 14.2832 8.73511 13.8223 8.73511C13.1855 8.73511 12.668 8.96362 12.2695 9.42065C11.875 9.87769 11.6777 10.6179 11.6777 11.6414C11.6777 12.7273 11.873 13.5007 12.2637 13.9617C12.6543 14.4226 13.1621 14.6531 13.7871 14.6531C14.248 14.6531 14.6445 14.5066 14.9766 14.2136C15.3086 13.9207 15.5469 13.4597 15.6914 12.8308ZM18.8672 15.989V7.39917H25.2363V8.85229H20.6016V10.7566H24.9141V12.2039H20.6016V14.5417H25.4004V15.989H18.8672ZM26.8887 15.989V7.39917H28.5762L32.0918 13.1355V7.39917H33.7031V15.989H31.9629L28.5 10.3875V15.989H26.8887ZM35.543 15.989V7.39917H38.3262C39.3809 7.39917 40.0684 7.44214 40.3887 7.52808C40.8809 7.65698 41.293 7.93823 41.625 8.37183C41.957 8.80151 42.123 9.35815 42.123 10.0417C42.123 10.5691 42.0273 11.0125 41.8359 11.3718C41.6445 11.7312 41.4004 12.0144 41.1035 12.2214C40.8105 12.4246 40.5117 12.5593 40.207 12.6257C39.793 12.7078 39.1934 12.7488 38.4082 12.7488H37.2773V15.989H35.543ZM37.2773 8.85229V11.2898H38.2266C38.9102 11.2898 39.3672 11.2449 39.5977 11.155C39.8281 11.0652 40.0078 10.9246 40.1367 10.7332C40.2695 10.5417 40.3359 10.3191 40.3359 10.0652C40.3359 9.75269 40.2441 9.49487 40.0605 9.29175C39.877 9.08862 39.6445 8.96167 39.3633 8.91089C39.1562 8.87183 38.7402 8.85229 38.1152 8.85229H37.2773ZM43.5469 15.989V7.39917H49.916V8.85229H45.2812V10.7566H49.5938V12.2039H45.2812V14.5417H50.0801V15.989H43.5469Z" fill="white"/>
<defs>
<linearGradient id="paint0_linear_38_1886" x1="30" y1="1.98901" x2="30" y2="21.989" gradientUnits="userSpaceOnUse">
<stop stop-color="#351B8A"/>
<stop offset="1" stop-color="#FFC600"/>
</linearGradient>
</defs>
</svg>
