<svg width="52" height="35" viewBox="0 0 52 35" fill="none" xmlns="http://www.w3.org/2000/svg">
<rect x="2" y="1.98901" width="48" height="32" rx="10" fill="#FF965E"/>
<rect x="2" y="1.98901" width="48" height="32" rx="10" stroke="url(#paint0_linear_66_2015)" stroke-width="3" stroke-linejoin="round"/>
<path d="M9.52344 14.989V6.39917H12.3066C13.3613 6.39917 14.0488 6.44214 14.3691 6.52808C14.8613 6.65698 15.2734 6.93823 15.6055 7.37183C15.9375 7.80151 16.1035 8.35815 16.1035 9.04175C16.1035 9.56909 16.0078 10.0125 15.8164 10.3718C15.625 10.7312 15.3809 11.0144 15.084 11.2214C14.791 11.4246 14.4922 11.5593 14.1875 11.6257C13.7734 11.7078 13.1738 11.7488 12.3887 11.7488H11.2578V14.989H9.52344ZM11.2578 7.85229V10.2898H12.207C12.8906 10.2898 13.3477 10.2449 13.5781 10.155C13.8086 10.0652 13.9883 9.92456 14.1172 9.73315C14.25 9.54175 14.3164 9.31909 14.3164 9.06519C14.3164 8.75269 14.2246 8.49487 14.041 8.29175C13.8574 8.08862 13.625 7.96167 13.3438 7.91089C13.1367 7.87183 12.7207 7.85229 12.0957 7.85229H11.2578ZM17.5273 14.989V6.39917H20.3105C21.3652 6.39917 22.0527 6.44214 22.373 6.52808C22.8652 6.65698 23.2773 6.93823 23.6094 7.37183C23.9414 7.80151 24.1074 8.35815 24.1074 9.04175C24.1074 9.56909 24.0117 10.0125 23.8203 10.3718C23.6289 10.7312 23.3848 11.0144 23.0879 11.2214C22.7949 11.4246 22.4961 11.5593 22.1914 11.6257C21.7773 11.7078 21.1777 11.7488 20.3926 11.7488H19.2617V14.989H17.5273ZM19.2617 7.85229V10.2898H20.2109C20.8945 10.2898 21.3516 10.2449 21.582 10.155C21.8125 10.0652 21.9922 9.92456 22.1211 9.73315C22.2539 9.54175 22.3203 9.31909 22.3203 9.06519C22.3203 8.75269 22.2285 8.49487 22.0449 8.29175C21.8613 8.08862 21.6289 7.96167 21.3477 7.91089C21.1406 7.87183 20.7246 7.85229 20.0996 7.85229H19.2617ZM30.7285 13.4597V14.989H24.957C25.0195 14.4109 25.207 13.864 25.5195 13.3484C25.832 12.8289 26.4492 12.1414 27.3711 11.2859C28.1133 10.5945 28.5684 10.1257 28.7363 9.87964C28.9629 9.53979 29.0762 9.20386 29.0762 8.87183C29.0762 8.50464 28.9766 8.22339 28.7773 8.02808C28.582 7.82886 28.3105 7.72925 27.9629 7.72925C27.6191 7.72925 27.3457 7.83276 27.1426 8.03979C26.9395 8.24683 26.8223 8.59058 26.791 9.07104L25.1504 8.90698C25.248 8.00073 25.5547 7.35034 26.0703 6.95581C26.5859 6.56128 27.2305 6.36401 28.0039 6.36401C28.8516 6.36401 29.5176 6.59253 30.002 7.04956C30.4863 7.50659 30.7285 8.07495 30.7285 8.75464C30.7285 9.14136 30.6582 9.5105 30.5176 9.86206C30.3809 10.2097 30.1621 10.575 29.8613 10.9578C29.6621 11.2117 29.3027 11.5769 28.7832 12.0535C28.2637 12.53 27.9336 12.8464 27.793 13.0027C27.6562 13.1589 27.5449 13.3113 27.459 13.4597H30.7285ZM39.957 14.989H38.0703L37.3203 13.0378H33.8867L33.1777 14.989H31.3379L34.6836 6.39917H36.5176L39.957 14.989ZM36.7637 11.5906L35.5801 8.40308L34.4199 11.5906H36.7637ZM40.8301 13.3425H42.4766V14.5203C42.4766 14.9968 42.4355 15.3718 42.3535 15.6453C42.2715 15.9226 42.1152 16.1707 41.8848 16.3894C41.6582 16.6082 41.3691 16.78 41.0176 16.905L40.6953 16.2253C41.0273 16.116 41.2637 15.9656 41.4043 15.7742C41.5449 15.5828 41.6191 15.321 41.627 14.989H40.8301V13.3425ZM7.19141 28.989V20.3992H9.97461C11.0293 20.3992 11.7168 20.4421 12.0371 20.5281C12.5293 20.657 12.9414 20.9382 13.2734 21.3718C13.6055 21.8015 13.7715 22.3582 13.7715 23.0417C13.7715 23.5691 13.6758 24.0125 13.4844 24.3718C13.293 24.7312 13.0488 25.0144 12.752 25.2214C12.459 25.4246 12.1602 25.5593 11.8555 25.6257C11.4414 25.7078 10.8418 25.7488 10.0566 25.7488H8.92578V28.989H7.19141ZM8.92578 21.8523V24.2898H9.875C10.5586 24.2898 11.0156 24.2449 11.2461 24.155C11.4766 24.0652 11.6562 23.9246 11.7852 23.7332C11.918 23.5417 11.9844 23.3191 11.9844 23.0652C11.9844 22.7527 11.8926 22.4949 11.709 22.2917C11.5254 22.0886 11.293 21.9617 11.0117 21.9109C10.8047 21.8718 10.3887 21.8523 9.76367 21.8523H8.92578ZM15.1953 28.989V20.3992H17.9785C19.0332 20.3992 19.7207 20.4421 20.041 20.5281C20.5332 20.657 20.9453 20.9382 21.2773 21.3718C21.6094 21.8015 21.7754 22.3582 21.7754 23.0417C21.7754 23.5691 21.6797 24.0125 21.4883 24.3718C21.2969 24.7312 21.0527 25.0144 20.7559 25.2214C20.4629 25.4246 20.1641 25.5593 19.8594 25.6257C19.4453 25.7078 18.8457 25.7488 18.0605 25.7488H16.9297V28.989H15.1953ZM16.9297 21.8523V24.2898H17.8789C18.5625 24.2898 19.0195 24.2449 19.25 24.155C19.4805 24.0652 19.6602 23.9246 19.7891 23.7332C19.9219 23.5417 19.9883 23.3191 19.9883 23.0652C19.9883 22.7527 19.8965 22.4949 19.7129 22.2917C19.5293 22.0886 19.2969 21.9617 19.0156 21.9109C18.8086 21.8718 18.3926 21.8523 17.7676 21.8523H16.9297ZM23.1992 28.989V20.3992H25.9824C27.0371 20.3992 27.7246 20.4421 28.0449 20.5281C28.5371 20.657 28.9492 20.9382 29.2812 21.3718C29.6133 21.8015 29.7793 22.3582 29.7793 23.0417C29.7793 23.5691 29.6836 24.0125 29.4922 24.3718C29.3008 24.7312 29.0566 25.0144 28.7598 25.2214C28.4668 25.4246 28.168 25.5593 27.8633 25.6257C27.4492 25.7078 26.8496 25.7488 26.0645 25.7488H24.9336V28.989H23.1992ZM24.9336 21.8523V24.2898H25.8828C26.5664 24.2898 27.0234 24.2449 27.2539 24.155C27.4844 24.0652 27.6641 23.9246 27.793 23.7332C27.9258 23.5417 27.9922 23.3191 27.9922 23.0652C27.9922 22.7527 27.9004 22.4949 27.7168 22.2917C27.5332 22.0886 27.3008 21.9617 27.0195 21.9109C26.8125 21.8718 26.3965 21.8523 25.7715 21.8523H24.9336ZM30.8633 26.78L32.5039 26.6101C32.5508 26.9812 32.6895 27.2761 32.9199 27.4949C33.1504 27.7097 33.416 27.8171 33.7168 27.8171C34.0605 27.8171 34.3516 27.6785 34.5898 27.4011C34.8281 27.1199 34.9473 26.698 34.9473 26.1355C34.9473 25.6082 34.8281 25.2136 34.5898 24.9519C34.3555 24.6863 34.0488 24.5535 33.6699 24.5535C33.1973 24.5535 32.7734 24.7625 32.3984 25.1804L31.0625 24.9871L31.9062 20.5164H36.2598V22.0574H33.1543L32.8965 23.5164C33.2637 23.3328 33.6387 23.241 34.0215 23.241C34.752 23.241 35.3711 23.5066 35.8789 24.0378C36.3867 24.5691 36.6406 25.2585 36.6406 26.1062C36.6406 26.8132 36.4355 27.4441 36.0254 27.9988C35.4668 28.7566 34.6914 29.1355 33.6992 29.1355C32.9062 29.1355 32.2598 28.9226 31.7598 28.4968C31.2598 28.071 30.9609 27.4988 30.8633 26.78ZM43.3789 25.8308L45.0605 26.364C44.8027 27.3015 44.373 27.9988 43.7715 28.4558C43.1738 28.9089 42.4141 29.1355 41.4922 29.1355C40.3516 29.1355 39.4141 28.7468 38.6797 27.9695C37.9453 27.1882 37.5781 26.1218 37.5781 24.7703C37.5781 23.3406 37.9473 22.2312 38.6855 21.4421C39.4238 20.6492 40.3945 20.2527 41.5977 20.2527C42.6484 20.2527 43.502 20.5632 44.1582 21.1843C44.5488 21.5515 44.8418 22.0789 45.0371 22.7664L43.3203 23.1765C43.2188 22.7312 43.0059 22.3796 42.6816 22.1218C42.3613 21.864 41.9707 21.7351 41.5098 21.7351C40.873 21.7351 40.3555 21.9636 39.957 22.4207C39.5625 22.8777 39.3652 23.6179 39.3652 24.6414C39.3652 25.7273 39.5605 26.5007 39.9512 26.9617C40.3418 27.4226 40.8496 27.6531 41.4746 27.6531C41.9355 27.6531 42.332 27.5066 42.6641 27.2136C42.9961 26.9207 43.2344 26.4597 43.3789 25.8308Z" fill="white"/>
<defs>
<linearGradient id="paint0_linear_66_2015" x1="26" y1="1.98901" x2="26" y2="33.989" gradientUnits="userSpaceOnUse">
<stop stop-color="#8552EB"/>
<stop offset="1" stop-color="#FF965E"/>
</linearGradient>
</defs>
</svg>
