<svg width="49" height="24" viewBox="0 0 49 24" fill="none" xmlns="http://www.w3.org/2000/svg">
<rect x="2" y="1.98901" width="46" height="20" rx="10" fill="url(#paint0_linear_45_4222)"/>
<rect x="2" y="1.98901" width="46" height="20" rx="10" stroke="#495FD5" stroke-width="3" stroke-linejoin="round"/>
<path d="M13.9727 12.8308V11.3835H17.7109V14.8054C17.3477 15.157 16.8203 15.4675 16.1289 15.7371C15.4414 16.0027 14.7441 16.1355 14.0371 16.1355C13.1387 16.1355 12.3555 15.948 11.6875 15.573C11.0195 15.1941 10.5176 14.655 10.1816 13.9558C9.8457 13.2527 9.67773 12.489 9.67773 11.6648C9.67773 10.7703 9.86523 9.97534 10.2402 9.28003C10.6152 8.58472 11.1641 8.05151 11.8867 7.68042C12.4375 7.39526 13.123 7.25269 13.9434 7.25269C15.0098 7.25269 15.8418 7.47729 16.4395 7.92651C17.041 8.37183 17.4277 8.98901 17.5996 9.77808L15.877 10.1003C15.7559 9.67847 15.5273 9.34644 15.1914 9.10425C14.8594 8.85815 14.4434 8.73511 13.9434 8.73511C13.1855 8.73511 12.582 8.97534 12.1328 9.45581C11.6875 9.93628 11.4648 10.6492 11.4648 11.5945C11.4648 12.614 11.6914 13.3796 12.1445 13.8914C12.5977 14.3992 13.1914 14.6531 13.9258 14.6531C14.2891 14.6531 14.6523 14.5828 15.0156 14.4421C15.3828 14.2976 15.6973 14.1238 15.959 13.9207V12.8308H13.9727ZM27.0625 15.989H25.1758L24.4258 14.0378H20.9922L20.2832 15.989H18.4434L21.7891 7.39917H23.623L27.0625 15.989ZM23.8691 12.5906L22.6855 9.40308L21.5254 12.5906H23.8691ZM28.0352 15.989V7.46948H29.7695V14.5417H34.082V15.989H28.0352ZM36.3672 15.989V8.85229H33.8184V7.39917H40.6445V8.85229H38.1016V15.989H36.3672Z" fill="white"/>
<defs>
<linearGradient id="paint0_linear_45_4222" x1="25" y1="1.98901" x2="25" y2="21.989" gradientUnits="userSpaceOnUse">
<stop stop-color="#DFD150"/>
<stop offset="1" stop-color="#495FD5"/>
</linearGradient>
</defs>
</svg>
