<svg width="33" height="20" viewBox="0 0 33 20" fill="none" xmlns="http://www.w3.org/2000/svg">
<path d="M31.773 10.0112C31.773 12.5029 31.1287 14.7643 30.148 16.3716C29.1513 18.0051 27.9283 18.7954 26.8033 18.7954C25.6783 18.7954 24.456 18.0049 23.4595 16.3716C22.479 14.7644 21.8345 12.5029 21.8345 10.0112C21.8345 7.51951 22.479 5.2581 23.4595 3.65088C24.456 2.01756 25.6783 1.22706 26.8033 1.22705C27.9284 1.22705 29.1513 2.01744 30.148 3.65088C31.1287 5.2581 31.773 7.51958 31.773 10.0112Z" fill="#D9AC18" stroke="#E8D545" stroke-width="2"/>
<path d="M11.773 10.0112C11.773 12.5598 11.141 14.8193 10.1714 16.4087C9.19127 18.0153 7.97145 18.7952 6.80426 18.7954C5.63694 18.7954 4.41738 18.0155 3.43707 16.4087C2.46738 14.8193 1.83453 12.56 1.83453 10.0112C1.83454 7.46244 2.46739 5.2032 3.43707 3.61377C4.41737 2.00698 5.63695 1.22705 6.80426 1.22705C7.97145 1.22725 9.19127 2.00714 10.1714 3.61377C11.141 5.20318 11.773 7.46262 11.773 10.0112Z" fill="#D9AC18" stroke="#E8D545" stroke-width="2"/>
</svg>
