<svg width="53" height="24" viewBox="0 0 53 24" fill="none" xmlns="http://www.w3.org/2000/svg">
<rect x="2" y="1.98901" width="50" height="20" rx="10" fill="url(#paint0_linear_67_1859)"/>
<rect x="2" y="1.98901" width="50" height="20" rx="10" stroke="#E5BDBD" stroke-width="3" stroke-linejoin="round"/>
<path d="M10.1953 15.989V7.39917H13.8457C14.7637 7.39917 15.4297 7.47729 15.8438 7.63354C16.2617 7.78589 16.5957 8.05933 16.8457 8.45386C17.0957 8.84839 17.2207 9.29956 17.2207 9.80737C17.2207 10.4519 17.0312 10.9851 16.6523 11.407C16.2734 11.825 15.707 12.0886 14.9531 12.198C15.3281 12.4167 15.6367 12.657 15.8789 12.9187C16.125 13.1804 16.4551 13.6453 16.8691 14.3132L17.918 15.989H15.8438L14.5898 14.1199C14.1445 13.4519 13.8398 13.032 13.6758 12.8601C13.5117 12.6843 13.3379 12.5652 13.1543 12.5027C12.9707 12.4363 12.6797 12.4031 12.2812 12.4031H11.9297V15.989H10.1953ZM11.9297 11.032H13.2129C14.0449 11.032 14.5645 10.9968 14.7715 10.9265C14.9785 10.8562 15.1406 10.7351 15.2578 10.5632C15.375 10.3914 15.4336 10.1765 15.4336 9.9187C15.4336 9.62964 15.3555 9.39722 15.1992 9.22144C15.0469 9.04175 14.8301 8.92847 14.5488 8.88159C14.4082 8.86206 13.9863 8.85229 13.2832 8.85229H11.9297V11.032ZM18.8086 15.989V7.39917H20.543V15.989H18.8086ZM22.2012 15.989V7.39917H24.9844C26.0391 7.39917 26.7266 7.44214 27.0469 7.52808C27.5391 7.65698 27.9512 7.93823 28.2832 8.37183C28.6152 8.80151 28.7812 9.35815 28.7812 10.0417C28.7812 10.5691 28.6855 11.0125 28.4941 11.3718C28.3027 11.7312 28.0586 12.0144 27.7617 12.2214C27.4688 12.4246 27.1699 12.5593 26.8652 12.6257C26.4512 12.7078 25.8516 12.7488 25.0664 12.7488H23.9355V15.989H22.2012ZM23.9355 8.85229V11.2898H24.8848C25.5684 11.2898 26.0254 11.2449 26.2559 11.155C26.4863 11.0652 26.666 10.9246 26.7949 10.7332C26.9277 10.5417 26.9941 10.3191 26.9941 10.0652C26.9941 9.75269 26.9023 9.49487 26.7188 9.29175C26.5352 9.08862 26.3027 8.96167 26.0215 8.91089C25.8145 8.87183 25.3984 8.85229 24.7734 8.85229H23.9355ZM30.2285 15.989V7.39917H31.9629V11.2136L35.4668 7.39917H37.7988L34.5645 10.7449L37.9746 15.989H35.7305L33.3691 11.9578L31.9629 13.3933V15.989H30.2285ZM42.7266 15.989H41.0801V9.78394C40.4785 10.3464 39.7695 10.7625 38.9531 11.032V9.53784C39.3828 9.39722 39.8496 9.13159 40.3535 8.74097C40.8574 8.34644 41.2031 7.88745 41.3906 7.36401H42.7266V15.989Z" fill="white"/>
<defs>
<linearGradient id="paint0_linear_67_1859" x1="27" y1="1.98901" x2="27" y2="21.989" gradientUnits="userSpaceOnUse">
<stop stop-color="#E5BDBD"/>
<stop offset="1" stop-color="#00002E"/>
</linearGradient>
</defs>
</svg>
