<svg width="51" height="24" viewBox="0 0 51 24" fill="none" xmlns="http://www.w3.org/2000/svg">
<rect x="2" y="1.98901" width="48" height="20" rx="10" fill="url(#paint0_linear_64_1807)"/>
<rect x="2" y="1.98901" width="48" height="20" rx="10" stroke="#55D8FF" stroke-width="3" stroke-linejoin="round"/>
<path d="M10.1738 15.989V7.39917H12.7695L14.3281 13.2585L15.8691 7.39917H18.4707V15.989H16.8594V9.22729L15.1543 15.989H13.4844L11.7852 9.22729V15.989H10.1738ZM19.7539 13.1941L21.4414 13.03C21.543 13.5964 21.748 14.0125 22.0566 14.2781C22.3691 14.5437 22.7891 14.6765 23.3164 14.6765C23.875 14.6765 24.2949 14.5593 24.5762 14.325C24.8613 14.0867 25.0039 13.8093 25.0039 13.4929C25.0039 13.2898 24.9434 13.1179 24.8223 12.9773C24.7051 12.8328 24.498 12.7078 24.2012 12.6023C23.998 12.532 23.5352 12.407 22.8125 12.2273C21.8828 11.9968 21.2305 11.7136 20.8555 11.3777C20.3281 10.905 20.0645 10.3289 20.0645 9.64917C20.0645 9.21167 20.1875 8.80347 20.4336 8.42456C20.6836 8.04175 21.041 7.75073 21.5059 7.55151C21.9746 7.35229 22.5391 7.25269 23.1992 7.25269C24.2773 7.25269 25.0879 7.48901 25.6309 7.96167C26.1777 8.43433 26.4648 9.06519 26.4922 9.85425L24.7578 9.93042C24.6836 9.48901 24.5234 9.17261 24.2773 8.9812C24.0352 8.78589 23.6699 8.68823 23.1816 8.68823C22.6777 8.68823 22.2832 8.79175 21.998 8.99878C21.8145 9.13159 21.7227 9.30933 21.7227 9.53198C21.7227 9.73511 21.8086 9.90894 21.9805 10.0535C22.1992 10.2371 22.7305 10.4285 23.5742 10.6277C24.418 10.8269 25.041 11.0339 25.4434 11.2488C25.8496 11.4597 26.166 11.7507 26.3926 12.1218C26.623 12.489 26.7383 12.9441 26.7383 13.4871C26.7383 13.9792 26.6016 14.4402 26.3281 14.8699C26.0547 15.2996 25.668 15.6199 25.168 15.8308C24.668 16.0378 24.0449 16.1414 23.2988 16.1414C22.2129 16.1414 21.3789 15.8914 20.7969 15.3914C20.2148 14.8875 19.8672 14.155 19.7539 13.1941ZM28.2031 15.989V7.39917H29.9375V10.78H33.3359V7.39917H35.0703V15.989H33.3359V12.2332H29.9375V15.989H28.2031ZM42.0664 14.4597V15.989H36.2949C36.3574 15.4109 36.5449 14.864 36.8574 14.3484C37.1699 13.8289 37.7871 13.1414 38.709 12.2859C39.4512 11.5945 39.9062 11.1257 40.0742 10.8796C40.3008 10.5398 40.4141 10.2039 40.4141 9.87183C40.4141 9.50464 40.3145 9.22339 40.1152 9.02808C39.9199 8.82886 39.6484 8.72925 39.3008 8.72925C38.957 8.72925 38.6836 8.83276 38.4805 9.03979C38.2773 9.24683 38.1602 9.59058 38.1289 10.071L36.4883 9.90698C36.5859 9.00073 36.8926 8.35034 37.4082 7.95581C37.9238 7.56128 38.5684 7.36401 39.3418 7.36401C40.1895 7.36401 40.8555 7.59253 41.3398 8.04956C41.8242 8.50659 42.0664 9.07495 42.0664 9.75464C42.0664 10.1414 41.9961 10.5105 41.8555 10.8621C41.7188 11.2097 41.5 11.575 41.1992 11.9578C41 12.2117 40.6406 12.5769 40.1211 13.0535C39.6016 13.53 39.2715 13.8464 39.1309 14.0027C38.9941 14.1589 38.8828 14.3113 38.7969 14.4597H42.0664Z" fill="white"/>
<defs>
<linearGradient id="paint0_linear_64_1807" x1="26" y1="1.98901" x2="26" y2="21.989" gradientUnits="userSpaceOnUse">
<stop stop-color="#55D8FF"/>
<stop offset="1" stop-color="#5C21A1"/>
</linearGradient>
</defs>
</svg>
