<svg width="59" height="24" viewBox="0 0 59 24" fill="none" xmlns="http://www.w3.org/2000/svg">
<rect x="2" y="1.98901" width="56" height="20" rx="10" fill="url(#paint0_linear_66_2012)"/>
<rect x="2" y="1.98901" width="56" height="20" rx="10" stroke="#832B53" stroke-width="3" stroke-linejoin="round"/>
<path d="M9.97266 15.989V7.39917H12.7559C13.8105 7.39917 14.498 7.44214 14.8184 7.52808C15.3105 7.65698 15.7227 7.93823 16.0547 8.37183C16.3867 8.80151 16.5527 9.35815 16.5527 10.0417C16.5527 10.5691 16.457 11.0125 16.2656 11.3718C16.0742 11.7312 15.8301 12.0144 15.5332 12.2214C15.2402 12.4246 14.9414 12.5593 14.6367 12.6257C14.2227 12.7078 13.623 12.7488 12.8379 12.7488H11.707V15.989H9.97266ZM11.707 8.85229V11.2898H12.6562C13.3398 11.2898 13.7969 11.2449 14.0273 11.155C14.2578 11.0652 14.4375 10.9246 14.5664 10.7332C14.6992 10.5417 14.7656 10.3191 14.7656 10.0652C14.7656 9.75269 14.6738 9.49487 14.4902 9.29175C14.3066 9.08862 14.0742 8.96167 13.793 8.91089C13.5859 8.87183 13.1699 8.85229 12.5449 8.85229H11.707ZM17.9766 15.989V7.39917H20.7598C21.8145 7.39917 22.502 7.44214 22.8223 7.52808C23.3145 7.65698 23.7266 7.93823 24.0586 8.37183C24.3906 8.80151 24.5566 9.35815 24.5566 10.0417C24.5566 10.5691 24.4609 11.0125 24.2695 11.3718C24.0781 11.7312 23.834 12.0144 23.5371 12.2214C23.2441 12.4246 22.9453 12.5593 22.6406 12.6257C22.2266 12.7078 21.627 12.7488 20.8418 12.7488H19.7109V15.989H17.9766ZM19.7109 8.85229V11.2898H20.6602C21.3438 11.2898 21.8008 11.2449 22.0312 11.155C22.2617 11.0652 22.4414 10.9246 22.5703 10.7332C22.7031 10.5417 22.7695 10.3191 22.7695 10.0652C22.7695 9.75269 22.6777 9.49487 22.4941 9.29175C22.3105 9.08862 22.0781 8.96167 21.7969 8.91089C21.5898 8.87183 21.1738 8.85229 20.5488 8.85229H19.7109ZM32.8359 15.989H30.9492L30.1992 14.0378H26.7656L26.0566 15.989H24.2168L27.5625 7.39917H29.3965L32.8359 15.989ZM29.6426 12.5906L28.459 9.40308L27.2988 12.5906H29.6426ZM33.7676 15.989V7.39917H37.418C38.3359 7.39917 39.002 7.47729 39.416 7.63354C39.834 7.78589 40.168 8.05933 40.418 8.45386C40.668 8.84839 40.793 9.29956 40.793 9.80737C40.793 10.4519 40.6035 10.9851 40.2246 11.407C39.8457 11.825 39.2793 12.0886 38.5254 12.198C38.9004 12.4167 39.209 12.657 39.4512 12.9187C39.6973 13.1804 40.0273 13.6453 40.4414 14.3132L41.4902 15.989H39.416L38.1621 14.1199C37.7168 13.4519 37.4121 13.032 37.248 12.8601C37.084 12.6843 36.9102 12.5652 36.7266 12.5027C36.543 12.4363 36.252 12.4031 35.8535 12.4031H35.502V15.989H33.7676ZM35.502 11.032H36.7852C37.6172 11.032 38.1367 10.9968 38.3438 10.9265C38.5508 10.8562 38.7129 10.7351 38.8301 10.5632C38.9473 10.3914 39.0059 10.1765 39.0059 9.9187C39.0059 9.62964 38.9277 9.39722 38.7715 9.22144C38.6191 9.04175 38.4023 8.92847 38.1211 8.88159C37.9805 8.86206 37.5586 8.85229 36.8555 8.85229H35.502V11.032ZM46.4297 12.8308V11.3835H50.168V14.8054C49.8047 15.157 49.2773 15.4675 48.5859 15.7371C47.8984 16.0027 47.2012 16.1355 46.4941 16.1355C45.5957 16.1355 44.8125 15.948 44.1445 15.573C43.4766 15.1941 42.9746 14.655 42.6387 13.9558C42.3027 13.2527 42.1348 12.489 42.1348 11.6648C42.1348 10.7703 42.3223 9.97534 42.6973 9.28003C43.0723 8.58472 43.6211 8.05151 44.3438 7.68042C44.8945 7.39526 45.5801 7.25269 46.4004 7.25269C47.4668 7.25269 48.2988 7.47729 48.8965 7.92651C49.498 8.37183 49.8848 8.98901 50.0566 9.77808L48.334 10.1003C48.2129 9.67847 47.9844 9.34644 47.6484 9.10425C47.3164 8.85815 46.9004 8.73511 46.4004 8.73511C45.6426 8.73511 45.0391 8.97534 44.5898 9.45581C44.1445 9.93628 43.9219 10.6492 43.9219 11.5945C43.9219 12.614 44.1484 13.3796 44.6016 13.8914C45.0547 14.3992 45.6484 14.6531 46.3828 14.6531C46.7461 14.6531 47.1094 14.5828 47.4727 14.4421C47.8398 14.2976 48.1543 14.1238 48.416 13.9207V12.8308H46.4297Z" fill="white"/>
<defs>
<linearGradient id="paint0_linear_66_2012" x1="30" y1="1.98901" x2="30" y2="21.989" gradientUnits="userSpaceOnUse">
<stop stop-color="#832B53"/>
<stop offset="1" stop-color="#DE70A2"/>
</linearGradient>
</defs>
</svg>
