<svg width="66" height="24" viewBox="0 0 66 24" fill="none" xmlns="http://www.w3.org/2000/svg">
<rect x="1" y="1.98901" width="64" height="20" rx="10" fill="url(#paint0_linear_52_1872)"/>
<rect x="1" y="1.98901" width="64" height="20" rx="10" stroke="#3F17D1" stroke-width="3" stroke-linejoin="round"/>
<path d="M8.94727 15.989V7.39917H11.543L13.1016 13.2585L14.6426 7.39917H17.2441V15.989H15.6328V9.22729L13.9277 15.989H12.2578L10.5586 9.22729V15.989H8.94727ZM18.9727 7.39917H22.4062C23.0859 7.39917 23.5918 7.42847 23.9238 7.48706C24.2598 7.54175 24.5586 7.65894 24.8203 7.83862C25.0859 8.01831 25.3066 8.25854 25.4824 8.55933C25.6582 8.8562 25.7461 9.19019 25.7461 9.56128C25.7461 9.96362 25.6367 10.3328 25.418 10.6687C25.2031 11.0046 24.9102 11.2566 24.5391 11.4246C25.0625 11.5769 25.4648 11.8367 25.7461 12.2039C26.0273 12.571 26.168 13.0027 26.168 13.4988C26.168 13.8894 26.0762 14.2703 25.8926 14.6414C25.7129 15.0085 25.4648 15.3035 25.1484 15.5261C24.8359 15.7449 24.4492 15.8796 23.9883 15.9304C23.6992 15.9617 23.002 15.9812 21.8965 15.989H18.9727V7.39917ZM20.707 8.82886V10.8152H21.8438C22.5195 10.8152 22.9395 10.8054 23.1035 10.7859C23.4004 10.7507 23.6328 10.6492 23.8008 10.4812C23.9727 10.3093 24.0586 10.0847 24.0586 9.80737C24.0586 9.54175 23.9844 9.3269 23.8359 9.16284C23.6914 8.99487 23.4746 8.89331 23.1855 8.85815C23.0137 8.83862 22.5195 8.82886 21.7031 8.82886H20.707ZM20.707 12.2449V14.5417H22.3125C22.9375 14.5417 23.334 14.5242 23.502 14.489C23.7598 14.4421 23.9688 14.3289 24.1289 14.1492C24.293 13.9656 24.375 13.7214 24.375 13.4167C24.375 13.1589 24.3125 12.9402 24.1875 12.7605C24.0625 12.5808 23.8809 12.45 23.6426 12.3679C23.4082 12.2859 22.8965 12.2449 22.1074 12.2449H20.707ZM27.2871 11.7468C27.2871 10.8718 27.418 10.1375 27.6797 9.5437C27.875 9.1062 28.1406 8.71362 28.4766 8.36597C28.8164 8.01831 29.1875 7.7605 29.5898 7.59253C30.125 7.36597 30.7422 7.25269 31.4414 7.25269C32.707 7.25269 33.7188 7.64526 34.4766 8.43042C35.2383 9.21558 35.6191 10.3074 35.6191 11.7058C35.6191 13.0925 35.2422 14.1785 34.4883 14.9636C33.7344 15.7449 32.7266 16.1355 31.4648 16.1355C30.1875 16.1355 29.1719 15.7468 28.418 14.9695C27.6641 14.1882 27.2871 13.114 27.2871 11.7468ZM29.0742 11.6882C29.0742 12.6609 29.2988 13.3992 29.748 13.9031C30.1973 14.4031 30.7676 14.6531 31.459 14.6531C32.1504 14.6531 32.7168 14.405 33.1582 13.9089C33.6035 13.4089 33.8262 12.6609 33.8262 11.6648C33.8262 10.6804 33.6094 9.94604 33.1758 9.46167C32.7461 8.97729 32.1738 8.73511 31.459 8.73511C30.7441 8.73511 30.168 8.9812 29.7305 9.47339C29.293 9.96167 29.0742 10.7 29.0742 11.6882ZM44.7246 15.989H42.8379L42.0879 14.0378H38.6543L37.9453 15.989H36.1055L39.4512 7.39917H41.2852L44.7246 15.989ZM41.5312 12.5906L40.3477 9.40308L39.1875 12.5906H41.5312ZM46.6934 15.989V8.85229H44.1445V7.39917H50.9707V8.85229H48.4277V15.989H46.6934ZM54.9609 15.989V14.2605H51.4453V12.8191L55.1719 7.36401H56.5547V12.8132H57.6211V14.2605H56.5547V15.989H54.9609ZM54.9609 12.8132V9.87769L52.9863 12.8132H54.9609Z" fill="white"/>
<defs>
<linearGradient id="paint0_linear_52_1872" x1="33" y1="1.98901" x2="33" y2="21.989" gradientUnits="userSpaceOnUse">
<stop stop-color="#3F17D1"/>
<stop offset="1" stop-color="#A327AA"/>
</linearGradient>
</defs>
</svg>
