<svg width="53" height="24" viewBox="0 0 53 24" fill="none" xmlns="http://www.w3.org/2000/svg">
<rect x="2" y="1.98901" width="50" height="20" rx="10" fill="url(#paint0_linear_64_1950)"/>
<rect x="2" y="1.98901" width="50" height="20" rx="10" stroke="#86008A" stroke-width="3" stroke-linejoin="round"/>
<path d="M10.1895 15.989V7.39917H12.9727C14.0273 7.39917 14.7148 7.44214 15.0352 7.52808C15.5273 7.65698 15.9395 7.93823 16.2715 8.37183C16.6035 8.80151 16.7695 9.35815 16.7695 10.0417C16.7695 10.5691 16.6738 11.0125 16.4824 11.3718C16.291 11.7312 16.0469 12.0144 15.75 12.2214C15.457 12.4246 15.1582 12.5593 14.8535 12.6257C14.4395 12.7078 13.8398 12.7488 13.0547 12.7488H11.9238V15.989H10.1895ZM11.9238 8.85229V11.2898H12.873C13.5566 11.2898 14.0137 11.2449 14.2441 11.155C14.4746 11.0652 14.6543 10.9246 14.7832 10.7332C14.916 10.5417 14.9824 10.3191 14.9824 10.0652C14.9824 9.75269 14.8906 9.49487 14.707 9.29175C14.5234 9.08862 14.291 8.96167 14.0098 8.91089C13.8027 8.87183 13.3867 8.85229 12.7617 8.85229H11.9238ZM18.1406 15.989V7.39917H19.875V15.989H18.1406ZM21.5508 15.989V7.39917H23.2383L26.7539 13.1355V7.39917H28.3652V15.989H26.625L23.1621 10.3875V15.989H21.5508ZM30.2285 15.989V7.39917H31.9629V11.2136L35.4668 7.39917H37.7988L34.5645 10.7449L37.9746 15.989H35.7305L33.3691 11.9578L31.9629 13.3933V15.989H30.2285ZM42.7266 15.989H41.0801V9.78394C40.4785 10.3464 39.7695 10.7625 38.9531 11.032V9.53784C39.3828 9.39722 39.8496 9.13159 40.3535 8.74097C40.8574 8.34644 41.2031 7.88745 41.3906 7.36401H42.7266V15.989Z" fill="white"/>
<defs>
<linearGradient id="paint0_linear_64_1950" x1="27" y1="1.98901" x2="27" y2="21.989" gradientUnits="userSpaceOnUse">
<stop stop-color="#F968BD"/>
<stop offset="1" stop-color="#86008A"/>
</linearGradient>
</defs>
</svg>
