<svg width="51" height="24" viewBox="0 0 51 24" fill="none" xmlns="http://www.w3.org/2000/svg">
<rect x="2" y="1.98901" width="48" height="20" rx="10" fill="url(#paint0_linear_64_1860)"/>
<rect x="2" y="1.98901" width="48" height="20" rx="10" stroke="#0E6660" stroke-width="3" stroke-linejoin="round"/>
<path d="M10.2148 15.989V7.39917H11.9023L15.418 13.1355V7.39917H17.0293V15.989H15.2891L11.8262 10.3875V15.989H10.2148ZM18.4766 12.7898C18.4766 12.2429 18.6113 11.7136 18.8809 11.2019C19.1504 10.6902 19.5312 10.2996 20.0234 10.03C20.5195 9.7605 21.0723 9.62573 21.6816 9.62573C22.623 9.62573 23.3945 9.93237 23.9961 10.5457C24.5977 11.155 24.8984 11.9265 24.8984 12.8601C24.8984 13.8015 24.5938 14.5828 23.9844 15.2039C23.3789 15.821 22.6152 16.1296 21.6934 16.1296C21.123 16.1296 20.5781 16.0007 20.0586 15.7429C19.543 15.4851 19.1504 15.1082 18.8809 14.6121C18.6113 14.1121 18.4766 13.5046 18.4766 12.7898ZM20.1641 12.8777C20.1641 13.4949 20.3105 13.9675 20.6035 14.2957C20.8965 14.6238 21.2578 14.7878 21.6875 14.7878C22.1172 14.7878 22.4766 14.6238 22.7656 14.2957C23.0586 13.9675 23.2051 13.491 23.2051 12.866C23.2051 12.2566 23.0586 11.7878 22.7656 11.4597C22.4766 11.1316 22.1172 10.9675 21.6875 10.9675C21.2578 10.9675 20.8965 11.1316 20.6035 11.4597C20.3105 11.7878 20.1641 12.2605 20.1641 12.8777ZM26.2109 15.989V7.39917H29.8613C30.7793 7.39917 31.4453 7.47729 31.8594 7.63354C32.2773 7.78589 32.6113 8.05933 32.8613 8.45386C33.1113 8.84839 33.2363 9.29956 33.2363 9.80737C33.2363 10.4519 33.0469 10.9851 32.668 11.407C32.2891 11.825 31.7227 12.0886 30.9688 12.198C31.3438 12.4167 31.6523 12.657 31.8945 12.9187C32.1406 13.1804 32.4707 13.6453 32.8848 14.3132L33.9336 15.989H31.8594L30.6055 14.1199C30.1602 13.4519 29.8555 13.032 29.6914 12.8601C29.5273 12.6843 29.3535 12.5652 29.1699 12.5027C28.9863 12.4363 28.6953 12.4031 28.2969 12.4031H27.9453V15.989H26.2109ZM27.9453 11.032H29.2285C30.0605 11.032 30.5801 10.9968 30.7871 10.9265C30.9941 10.8562 31.1562 10.7351 31.2734 10.5632C31.3906 10.3914 31.4492 10.1765 31.4492 9.9187C31.4492 9.62964 31.3711 9.39722 31.2148 9.22144C31.0625 9.04175 30.8457 8.92847 30.5645 8.88159C30.4238 8.86206 30.002 8.85229 29.2988 8.85229H27.9453V11.032ZM40.373 12.8308L42.0547 13.364C41.7969 14.3015 41.3672 14.9988 40.7656 15.4558C40.168 15.9089 39.4082 16.1355 38.4863 16.1355C37.3457 16.1355 36.4082 15.7468 35.6738 14.9695C34.9395 14.1882 34.5723 13.1218 34.5723 11.7703C34.5723 10.3406 34.9414 9.2312 35.6797 8.44214C36.418 7.64917 37.3887 7.25269 38.5918 7.25269C39.6426 7.25269 40.4961 7.56323 41.1523 8.18433C41.543 8.55151 41.8359 9.07886 42.0312 9.76636L40.3145 10.1765C40.2129 9.7312 40 9.37964 39.6758 9.12183C39.3555 8.86401 38.9648 8.73511 38.5039 8.73511C37.8672 8.73511 37.3496 8.96362 36.9512 9.42065C36.5566 9.87769 36.3594 10.6179 36.3594 11.6414C36.3594 12.7273 36.5547 13.5007 36.9453 13.9617C37.3359 14.4226 37.8438 14.6531 38.4688 14.6531C38.9297 14.6531 39.3262 14.5066 39.6582 14.2136C39.9902 13.9207 40.2285 13.4597 40.373 12.8308Z" fill="white"/>
<defs>
<linearGradient id="paint0_linear_64_1860" x1="26" y1="1.98901" x2="26" y2="21.989" gradientUnits="userSpaceOnUse">
<stop stop-color="#0E6660"/>
<stop offset="1" stop-color="#FFFF9D"/>
</linearGradient>
</defs>
</svg>
