<svg width="50" height="24" viewBox="0 0 50 24" fill="none" xmlns="http://www.w3.org/2000/svg">
<rect x="2" y="1.98901" width="47" height="20" rx="10" fill="url(#paint0_linear_42_2632)"/>
<rect x="2" y="1.98901" width="47" height="20" rx="10" stroke="#08232D" stroke-width="3" stroke-linejoin="round"/>
<path d="M10.043 15.989V7.39917H15.9316V8.85229H11.7773V10.8855H15.3633V12.3386H11.7773V15.989H10.043ZM24.4453 15.989H22.5586L21.8086 14.0378H18.375L17.666 15.989H15.8262L19.1719 7.39917H21.0059L24.4453 15.989ZM21.252 12.5906L20.0684 9.40308L18.9082 12.5906H21.252ZM25.3652 7.39917H28.5352C29.25 7.39917 29.7949 7.45386 30.1699 7.56323C30.6738 7.71167 31.1055 7.97534 31.4648 8.35425C31.8242 8.73315 32.0977 9.198 32.2852 9.74878C32.4727 10.2957 32.5664 10.9714 32.5664 11.7761C32.5664 12.4832 32.4785 13.0925 32.3027 13.6042C32.0879 14.2292 31.7812 14.7351 31.3828 15.1218C31.082 15.4148 30.6758 15.6433 30.1641 15.8074C29.7812 15.9285 29.2695 15.989 28.6289 15.989H25.3652V7.39917ZM27.0996 8.85229V14.5417H28.3945C28.8789 14.5417 29.2285 14.5144 29.4434 14.4597C29.7246 14.3894 29.957 14.2703 30.1406 14.1023C30.3281 13.9343 30.4805 13.6589 30.5977 13.2761C30.7148 12.8894 30.7734 12.364 30.7734 11.7C30.7734 11.0359 30.7148 10.5261 30.5977 10.1707C30.4805 9.81519 30.3164 9.53784 30.1055 9.33862C29.8945 9.1394 29.627 9.00464 29.3027 8.93433C29.0605 8.87964 28.5859 8.85229 27.8789 8.85229H27.0996ZM34.0371 7.39917H37.207C37.9219 7.39917 38.4668 7.45386 38.8418 7.56323C39.3457 7.71167 39.7773 7.97534 40.1367 8.35425C40.4961 8.73315 40.7695 9.198 40.957 9.74878C41.1445 10.2957 41.2383 10.9714 41.2383 11.7761C41.2383 12.4832 41.1504 13.0925 40.9746 13.6042C40.7598 14.2292 40.4531 14.7351 40.0547 15.1218C39.7539 15.4148 39.3477 15.6433 38.8359 15.8074C38.4531 15.9285 37.9414 15.989 37.3008 15.989H34.0371V7.39917ZM35.7715 8.85229V14.5417H37.0664C37.5508 14.5417 37.9004 14.5144 38.1152 14.4597C38.3965 14.3894 38.6289 14.2703 38.8125 14.1023C39 13.9343 39.1523 13.6589 39.2695 13.2761C39.3867 12.8894 39.4453 12.364 39.4453 11.7C39.4453 11.0359 39.3867 10.5261 39.2695 10.1707C39.1523 9.81519 38.9883 9.53784 38.7773 9.33862C38.5664 9.1394 38.2988 9.00464 37.9746 8.93433C37.7324 8.87964 37.2578 8.85229 36.5508 8.85229H35.7715Z" fill="white"/>
<defs>
<linearGradient id="paint0_linear_42_2632" x1="25.5" y1="1.98901" x2="25.5" y2="21.989" gradientUnits="userSpaceOnUse">
<stop stop-color="#08232D"/>
<stop offset="1" stop-color="#FFDA69"/>
</linearGradient>
</defs>
</svg>
