<svg width="44" height="24" viewBox="0 0 44 24" fill="none" xmlns="http://www.w3.org/2000/svg">
<rect x="2" y="1.98901" width="41" height="20" rx="10" fill="url(#paint0_linear_64_1879)"/>
<rect x="2" y="1.98901" width="41" height="20" rx="10" stroke="#A20E52" stroke-width="3" stroke-linejoin="round"/>
<path d="M10.0137 11.7468C10.0137 10.8718 10.1445 10.1375 10.4062 9.5437C10.6016 9.1062 10.8672 8.71362 11.2031 8.36597C11.543 8.01831 11.9141 7.7605 12.3164 7.59253C12.8516 7.36597 13.4688 7.25269 14.168 7.25269C15.4336 7.25269 16.4453 7.64526 17.2031 8.43042C17.9648 9.21558 18.3457 10.3074 18.3457 11.7058C18.3457 13.0925 17.9688 14.1785 17.2148 14.9636C16.4609 15.7449 15.4531 16.1355 14.1914 16.1355C12.9141 16.1355 11.8984 15.7468 11.1445 14.9695C10.3906 14.1882 10.0137 13.114 10.0137 11.7468ZM11.8008 11.6882C11.8008 12.6609 12.0254 13.3992 12.4746 13.9031C12.9238 14.4031 13.4941 14.6531 14.1855 14.6531C14.877 14.6531 15.4434 14.405 15.8848 13.9089C16.3301 13.4089 16.5527 12.6609 16.5527 11.6648C16.5527 10.6804 16.3359 9.94604 15.9023 9.46167C15.4727 8.97729 14.9004 8.73511 14.1855 8.73511C13.4707 8.73511 12.8945 8.9812 12.457 9.47339C12.0195 9.96167 11.8008 10.7 11.8008 11.6882ZM27.4512 15.989H25.5645L24.8145 14.0378H21.3809L20.6719 15.989H18.832L22.1777 7.39917H24.0117L27.4512 15.989ZM24.2578 12.5906L23.0742 9.40308L21.9141 12.5906H24.2578ZM27.9375 13.1941L29.625 13.03C29.7266 13.5964 29.9316 14.0125 30.2402 14.2781C30.5527 14.5437 30.9727 14.6765 31.5 14.6765C32.0586 14.6765 32.4785 14.5593 32.7598 14.325C33.0449 14.0867 33.1875 13.8093 33.1875 13.4929C33.1875 13.2898 33.127 13.1179 33.0059 12.9773C32.8887 12.8328 32.6816 12.7078 32.3848 12.6023C32.1816 12.532 31.7188 12.407 30.9961 12.2273C30.0664 11.9968 29.4141 11.7136 29.0391 11.3777C28.5117 10.905 28.248 10.3289 28.248 9.64917C28.248 9.21167 28.3711 8.80347 28.6172 8.42456C28.8672 8.04175 29.2246 7.75073 29.6895 7.55151C30.1582 7.35229 30.7227 7.25269 31.3828 7.25269C32.4609 7.25269 33.2715 7.48901 33.8145 7.96167C34.3613 8.43433 34.6484 9.06519 34.6758 9.85425L32.9414 9.93042C32.8672 9.48901 32.707 9.17261 32.4609 8.9812C32.2188 8.78589 31.8535 8.68823 31.3652 8.68823C30.8613 8.68823 30.4668 8.79175 30.1816 8.99878C29.998 9.13159 29.9062 9.30933 29.9062 9.53198C29.9062 9.73511 29.9922 9.90894 30.1641 10.0535C30.3828 10.2371 30.9141 10.4285 31.7578 10.6277C32.6016 10.8269 33.2246 11.0339 33.627 11.2488C34.0332 11.4597 34.3496 11.7507 34.5762 12.1218C34.8066 12.489 34.9219 12.9441 34.9219 13.4871C34.9219 13.9792 34.7852 14.4402 34.5117 14.8699C34.2383 15.2996 33.8516 15.6199 33.3516 15.8308C32.8516 16.0378 32.2285 16.1414 31.4824 16.1414C30.3965 16.1414 29.5625 15.8914 28.9805 15.3914C28.3984 14.8875 28.0508 14.155 27.9375 13.1941Z" fill="white"/>
<defs>
<linearGradient id="paint0_linear_64_1879" x1="22.5" y1="1.98901" x2="22.5" y2="21.989" gradientUnits="userSpaceOnUse">
<stop stop-color="#A20E52"/>
<stop offset="1" stop-color="#240410"/>
</linearGradient>
</defs>
</svg>
