<svg width="42" height="24" viewBox="0 0 42 24" fill="none" xmlns="http://www.w3.org/2000/svg">
<rect x="2" y="1.98901" width="39" height="20" rx="10" fill="url(#paint0_linear_38_1857)"/>
<rect x="2" y="1.98901" width="39" height="20" rx="10" stroke="#8E4F00" stroke-width="3" stroke-linejoin="round"/>
<path d="M15.5293 12.8308L17.2109 13.364C16.9531 14.3015 16.5234 14.9988 15.9219 15.4558C15.3242 15.9089 14.5645 16.1355 13.6426 16.1355C12.502 16.1355 11.5645 15.7468 10.8301 14.9695C10.0957 14.1882 9.72852 13.1218 9.72852 11.7703C9.72852 10.3406 10.0977 9.2312 10.8359 8.44214C11.5742 7.64917 12.5449 7.25269 13.748 7.25269C14.7988 7.25269 15.6523 7.56323 16.3086 8.18433C16.6992 8.55151 16.9922 9.07886 17.1875 9.76636L15.4707 10.1765C15.3691 9.7312 15.1562 9.37964 14.832 9.12183C14.5117 8.86401 14.1211 8.73511 13.6602 8.73511C13.0234 8.73511 12.5059 8.96362 12.1074 9.42065C11.7129 9.87769 11.5156 10.6179 11.5156 11.6414C11.5156 12.7273 11.7109 13.5007 12.1016 13.9617C12.4922 14.4226 13 14.6531 13.625 14.6531C14.0859 14.6531 14.4824 14.5066 14.8145 14.2136C15.1465 13.9207 15.3848 13.4597 15.5293 12.8308ZM18.7109 7.39917H22.1445C22.8242 7.39917 23.3301 7.42847 23.6621 7.48706C23.998 7.54175 24.2969 7.65894 24.5586 7.83862C24.8242 8.01831 25.0449 8.25854 25.2207 8.55933C25.3965 8.8562 25.4844 9.19019 25.4844 9.56128C25.4844 9.96362 25.375 10.3328 25.1562 10.6687C24.9414 11.0046 24.6484 11.2566 24.2773 11.4246C24.8008 11.5769 25.2031 11.8367 25.4844 12.2039C25.7656 12.571 25.9062 13.0027 25.9062 13.4988C25.9062 13.8894 25.8145 14.2703 25.6309 14.6414C25.4512 15.0085 25.2031 15.3035 24.8867 15.5261C24.5742 15.7449 24.1875 15.8796 23.7266 15.9304C23.4375 15.9617 22.7402 15.9812 21.6348 15.989H18.7109V7.39917ZM20.4453 8.82886V10.8152H21.582C22.2578 10.8152 22.6777 10.8054 22.8418 10.7859C23.1387 10.7507 23.3711 10.6492 23.5391 10.4812C23.7109 10.3093 23.7969 10.0847 23.7969 9.80737C23.7969 9.54175 23.7227 9.3269 23.5742 9.16284C23.4297 8.99487 23.2129 8.89331 22.9238 8.85815C22.752 8.83862 22.2578 8.82886 21.4414 8.82886H20.4453ZM20.4453 12.2449V14.5417H22.0508C22.6758 14.5417 23.0723 14.5242 23.2402 14.489C23.498 14.4421 23.707 14.3289 23.8672 14.1492C24.0312 13.9656 24.1133 13.7214 24.1133 13.4167C24.1133 13.1589 24.0508 12.9402 23.9258 12.7605C23.8008 12.5808 23.6191 12.45 23.3809 12.3679C23.1465 12.2859 22.6348 12.2449 21.8457 12.2449H20.4453ZM27.4238 15.989V7.46948H29.1582V14.5417H33.4707V15.989H27.4238Z" fill="white"/>
<defs>
<linearGradient id="paint0_linear_38_1857" x1="21.5" y1="1.98901" x2="21.5" y2="21.989" gradientUnits="userSpaceOnUse">
<stop stop-color="#CBA779"/>
<stop offset="1" stop-color="#8E4F00"/>
</linearGradient>
</defs>
</svg>
