<svg width="68" height="24" viewBox="0 0 68 24" fill="none" xmlns="http://www.w3.org/2000/svg">
<rect x="1" y="1.98901" width="66" height="20" rx="10" fill="url(#paint0_linear_37_1792)"/>
<rect x="1" y="1.98901" width="66" height="20" rx="10" stroke="#9E3FB0" stroke-width="3" stroke-linejoin="round"/>
<path d="M14.6875 12.8308L16.3691 13.364C16.1113 14.3015 15.6816 14.9988 15.0801 15.4558C14.4824 15.9089 13.7227 16.1355 12.8008 16.1355C11.6602 16.1355 10.7227 15.7468 9.98828 14.9695C9.25391 14.1882 8.88672 13.1218 8.88672 11.7703C8.88672 10.3406 9.25586 9.2312 9.99414 8.44214C10.7324 7.64917 11.7031 7.25269 12.9062 7.25269C13.957 7.25269 14.8105 7.56323 15.4668 8.18433C15.8574 8.55151 16.1504 9.07886 16.3457 9.76636L14.6289 10.1765C14.5273 9.7312 14.3145 9.37964 13.9902 9.12183C13.6699 8.86401 13.2793 8.73511 12.8184 8.73511C12.1816 8.73511 11.6641 8.96362 11.2656 9.42065C10.8711 9.87769 10.6738 10.6179 10.6738 11.6414C10.6738 12.7273 10.8691 13.5007 11.2598 13.9617C11.6504 14.4226 12.1582 14.6531 12.7832 14.6531C13.2441 14.6531 13.6406 14.5066 13.9727 14.2136C14.3047 13.9207 14.543 13.4597 14.6875 12.8308ZM25.6094 15.989H23.7227L22.9727 14.0378H19.5391L18.8301 15.989H16.9902L20.3359 7.39917H22.1699L25.6094 15.989ZM22.416 12.5906L21.2324 9.40308L20.0723 12.5906H22.416ZM26.5117 15.989V7.39917H29.1074L30.666 13.2585L32.207 7.39917H34.8086V15.989H33.1973V9.22729L31.4922 15.989H29.8223L28.123 9.22729V15.989H26.5117ZM36.5547 15.989V7.39917H38.2891V11.2136L41.793 7.39917H44.125L40.8906 10.7449L44.3008 15.989H42.0566L39.6953 11.9578L38.2891 13.3933V15.989H36.5547ZM50.4004 14.4597V15.989H44.6289C44.6914 15.4109 44.8789 14.864 45.1914 14.3484C45.5039 13.8289 46.1211 13.1414 47.043 12.2859C47.7852 11.5945 48.2402 11.1257 48.4082 10.8796C48.6348 10.5398 48.748 10.2039 48.748 9.87183C48.748 9.50464 48.6484 9.22339 48.4492 9.02808C48.2539 8.82886 47.9824 8.72925 47.6348 8.72925C47.291 8.72925 47.0176 8.83276 46.8145 9.03979C46.6113 9.24683 46.4941 9.59058 46.4629 10.071L44.8223 9.90698C44.9199 9.00073 45.2266 8.35034 45.7422 7.95581C46.2578 7.56128 46.9023 7.36401 47.6758 7.36401C48.5234 7.36401 49.1895 7.59253 49.6738 8.04956C50.1582 8.50659 50.4004 9.07495 50.4004 9.75464C50.4004 10.1414 50.3301 10.5105 50.1895 10.8621C50.0527 11.2097 49.834 11.575 49.5332 11.9578C49.334 12.2117 48.9746 12.5769 48.4551 13.0535C47.9355 13.53 47.6055 13.8464 47.4648 14.0027C47.3281 14.1589 47.2168 14.3113 47.1309 14.4597H50.4004ZM59.6289 15.989H57.7422L56.9922 14.0378H53.5586L52.8496 15.989H51.0098L54.3555 7.39917H56.1895L59.6289 15.989ZM56.4355 12.5906L55.252 9.40308L54.0918 12.5906H56.4355Z" fill="white"/>
<defs>
<linearGradient id="paint0_linear_37_1792" x1="34" y1="1.98901" x2="34" y2="21.989" gradientUnits="userSpaceOnUse">
<stop stop-color="#49E2FC"/>
<stop offset="1" stop-color="#9E3FB0"/>
</linearGradient>
</defs>
</svg>
