<svg width="51" height="24" viewBox="0 0 51 24" fill="none" xmlns="http://www.w3.org/2000/svg">
<rect x="2" y="1.98901" width="48" height="20" rx="10" fill="url(#paint0_linear_64_1943)"/>
<rect x="2" y="1.98901" width="48" height="20" rx="10" stroke="#22134F" stroke-width="3" stroke-linejoin="round"/>
<path d="M9.83984 11.7468C9.83984 10.8718 9.9707 10.1375 10.2324 9.5437C10.4277 9.1062 10.6934 8.71362 11.0293 8.36597C11.3691 8.01831 11.7402 7.7605 12.1426 7.59253C12.6777 7.36597 13.2949 7.25269 13.9941 7.25269C15.2598 7.25269 16.2715 7.64526 17.0293 8.43042C17.791 9.21558 18.1719 10.3074 18.1719 11.7058C18.1719 13.0925 17.7949 14.1785 17.041 14.9636C16.2871 15.7449 15.2793 16.1355 14.0176 16.1355C12.7402 16.1355 11.7246 15.7468 10.9707 14.9695C10.2168 14.1882 9.83984 13.114 9.83984 11.7468ZM11.627 11.6882C11.627 12.6609 11.8516 13.3992 12.3008 13.9031C12.75 14.4031 13.3203 14.6531 14.0117 14.6531C14.7031 14.6531 15.2695 14.405 15.7109 13.9089C16.1562 13.4089 16.3789 12.6609 16.3789 11.6648C16.3789 10.6804 16.1621 9.94604 15.7285 9.46167C15.2988 8.97729 14.7266 8.73511 14.0117 8.73511C13.2969 8.73511 12.7207 8.9812 12.2832 9.47339C11.8457 9.96167 11.627 10.7 11.627 11.6882ZM19.5371 15.989V7.39917H23.1875C24.1055 7.39917 24.7715 7.47729 25.1855 7.63354C25.6035 7.78589 25.9375 8.05933 26.1875 8.45386C26.4375 8.84839 26.5625 9.29956 26.5625 9.80737C26.5625 10.4519 26.373 10.9851 25.9941 11.407C25.6152 11.825 25.0488 12.0886 24.2949 12.198C24.6699 12.4167 24.9785 12.657 25.2207 12.9187C25.4668 13.1804 25.7969 13.6453 26.2109 14.3132L27.2598 15.989H25.1855L23.9316 14.1199C23.4863 13.4519 23.1816 13.032 23.0176 12.8601C22.8535 12.6843 22.6797 12.5652 22.4961 12.5027C22.3125 12.4363 22.0215 12.4031 21.623 12.4031H21.2715V15.989H19.5371ZM21.2715 11.032H22.5547C23.3867 11.032 23.9062 10.9968 24.1133 10.9265C24.3203 10.8562 24.4824 10.7351 24.5996 10.5632C24.7168 10.3914 24.7754 10.1765 24.7754 9.9187C24.7754 9.62964 24.6973 9.39722 24.541 9.22144C24.3887 9.04175 24.1719 8.92847 23.8906 8.88159C23.75 8.86206 23.3281 8.85229 22.625 8.85229H21.2715V11.032ZM33.6992 12.8308L35.3809 13.364C35.123 14.3015 34.6934 14.9988 34.0918 15.4558C33.4941 15.9089 32.7344 16.1355 31.8125 16.1355C30.6719 16.1355 29.7344 15.7468 29 14.9695C28.2656 14.1882 27.8984 13.1218 27.8984 11.7703C27.8984 10.3406 28.2676 9.2312 29.0059 8.44214C29.7441 7.64917 30.7148 7.25269 31.918 7.25269C32.9688 7.25269 33.8223 7.56323 34.4785 8.18433C34.8691 8.55151 35.1621 9.07886 35.3574 9.76636L33.6406 10.1765C33.5391 9.7312 33.3262 9.37964 33.002 9.12183C32.6816 8.86401 32.291 8.73511 31.8301 8.73511C31.1934 8.73511 30.6758 8.96362 30.2773 9.42065C29.8828 9.87769 29.6855 10.6179 29.6855 11.6414C29.6855 12.7273 29.8809 13.5007 30.2715 13.9617C30.6621 14.4226 31.1699 14.6531 31.7949 14.6531C32.2559 14.6531 32.6523 14.5066 32.9844 14.2136C33.3164 13.9207 33.5547 13.4597 33.6992 12.8308ZM40.7246 15.989H39.0781V9.78394C38.4766 10.3464 37.7676 10.7625 36.9512 11.032V9.53784C37.3809 9.39722 37.8477 9.13159 38.3516 8.74097C38.8555 8.34644 39.2012 7.88745 39.3887 7.36401H40.7246V15.989Z" fill="white"/>
<defs>
<linearGradient id="paint0_linear_64_1943" x1="26" y1="1.98901" x2="26" y2="21.989" gradientUnits="userSpaceOnUse">
<stop stop-color="#22134F"/>
<stop offset="1" stop-color="#3499C7"/>
</linearGradient>
</defs>
</svg>
