<svg width="44" height="44" viewBox="0 0 44 44" fill="none" xmlns="http://www.w3.org/2000/svg">
<path d="M21.853 1.03491C33.3793 1.03491 42.7513 10.4594 42.7515 22.0369C42.7515 33.6145 33.3792 43.0378 21.853 43.0378C10.3282 43.0378 0.956543 33.6159 0.956543 22.0369C0.95673 10.4581 10.3282 1.03497 21.853 1.03491Z" fill="url(#paint0_radial_97_5703)" stroke="#024D9E"/>
<path d="M17.3381 23.3687V21.9177H21.0859V25.3483C20.7217 25.7008 20.193 26.0121 19.4999 26.2823C18.8106 26.5486 18.1116 26.6818 17.4027 26.6818C16.502 26.6818 15.7168 26.4938 15.0471 26.1178C14.3774 25.738 13.8742 25.1975 13.5374 24.4965C13.2006 23.7916 13.0322 23.026 13.0322 22.1997C13.0322 21.3029 13.2202 20.5059 13.5962 19.8088C13.9721 19.1117 14.5223 18.5772 15.2468 18.2051C15.799 17.9192 16.4863 17.7763 17.3087 17.7763C18.3779 17.7763 19.212 18.0015 19.8112 18.4518C20.4143 18.8983 20.802 19.5171 20.9743 20.3081L19.2473 20.6312C19.1259 20.2083 18.8968 19.8754 18.56 19.6326C18.2271 19.3859 17.81 19.2625 17.3087 19.2625C16.549 19.2625 15.9439 19.5034 15.4936 19.985C15.0471 20.4667 14.8239 21.1814 14.8239 22.1292C14.8239 23.1513 15.051 23.9189 15.5053 24.4319C15.9596 24.941 16.5549 25.1956 17.2911 25.1956C17.6553 25.1956 18.0195 25.1251 18.3837 24.9841C18.7519 24.8392 19.0671 24.6649 19.3295 24.4613V23.3687H17.3381ZM22.7014 26.5349V17.9232H24.4402V21.3126H27.8473V17.9232H29.5861V26.5349H27.8473V22.7695H24.4402V26.5349H22.7014Z" fill="white"/>
<defs>
<radialGradient id="paint0_radial_97_5703" cx="0" cy="0" r="1" gradientUnits="userSpaceOnUse" gradientTransform="translate(17.3489 13.6966) scale(24.9897 25.1171)">
<stop stop-color="#BFB9FF"/>
<stop offset="1" stop-color="#1362C7"/>
</radialGradient>
</defs>
</svg>
