<svg width="34" height="35" viewBox="0 0 34 35" fill="none" xmlns="http://www.w3.org/2000/svg">
<path d="M17.1705 1.48901C26.0519 1.48901 33.2769 8.7142 33.277 17.5964C33.277 26.4788 26.0519 33.7029 17.1705 33.7029C8.28819 33.7028 1.06311 26.4777 1.06311 17.5964C1.06321 8.71526 8.28821 1.48911 17.1705 1.48901Z" fill="url(#paint0_radial_89_4109)"/>
<path d="M17.1705 1.48901C26.0519 1.48901 33.2769 8.7142 33.277 17.5964C33.277 26.4788 26.0519 33.7029 17.1705 33.7029C8.28819 33.7028 1.06311 26.4777 1.06311 17.5964C1.06321 8.71526 8.28821 1.48911 17.1705 1.48901Z" stroke="black"/>
<path d="M17.1705 1.48901C26.0519 1.48901 33.2769 8.7142 33.277 17.5964C33.277 26.4788 26.0519 33.7029 17.1705 33.7029C8.28819 33.7028 1.06311 26.4777 1.06311 17.5964C1.06321 8.71526 8.28821 1.48911 17.1705 1.48901Z" stroke="#A8602A" stroke-opacity="0.2"/>
<path d="M10.2648 21.989V14.6403H11.7485V21.989H10.2648ZM13.2073 21.989V14.7005H14.691V20.7509H18.3804V21.989H13.2073ZM19.0822 20.0391L20.4457 19.8736C20.4891 20.2212 20.6061 20.4869 20.7965 20.6707C20.987 20.8545 21.2176 20.9464 21.4883 20.9464C21.779 20.9464 22.023 20.8361 22.2202 20.6155C22.4207 20.395 22.5209 20.0975 22.5209 19.7233C22.5209 19.369 22.4257 19.0883 22.2352 18.8811C22.0447 18.6739 21.8125 18.5703 21.5384 18.5703C21.358 18.5703 21.1424 18.6054 20.8918 18.6756L21.0472 17.5277C21.4282 17.5377 21.7189 17.4558 21.9194 17.282C22.1199 17.1049 22.2202 16.871 22.2202 16.5803C22.2202 16.333 22.1466 16.1358 21.9996 15.9888C21.8526 15.8417 21.6571 15.7682 21.4131 15.7682C21.1725 15.7682 20.967 15.8517 20.7965 16.0188C20.6261 16.1859 20.5225 16.4299 20.4858 16.7507L19.1875 16.5301C19.2777 16.0857 19.413 15.7314 19.5935 15.4674C19.7773 15.2001 20.0313 14.9912 20.3554 14.8408C20.6829 14.6871 21.0489 14.6103 21.4532 14.6103C22.145 14.6103 22.6997 14.8308 23.1174 15.2719C23.4617 15.6329 23.6338 16.0406 23.6338 16.495C23.6338 17.14 23.2812 17.6547 22.5761 18.039C22.9971 18.1292 23.333 18.3314 23.5836 18.6455C23.8376 18.9596 23.9646 19.3389 23.9646 19.7834C23.9646 20.4284 23.729 20.9781 23.2578 21.4326C22.7866 21.8871 22.2001 22.1143 21.4983 22.1143C20.8333 22.1143 20.2819 21.9238 19.8441 21.5429C19.4063 21.1586 19.1524 20.6573 19.0822 20.0391Z" fill="white"/>
<defs>
<radialGradient id="paint0_radial_89_4109" cx="0" cy="0" r="1" gradientUnits="userSpaceOnUse" gradientTransform="translate(10.3657 9.50611) rotate(180) scale(14.9475)">
<stop stop-color="#E3D16D"/>
<stop offset="0.0426" stop-color="#DAC761"/>
<stop offset="0.1471" stop-color="#C7B44A"/>
<stop offset="0.2668" stop-color="#B9A537"/>
<stop offset="0.4091" stop-color="#AF9B2B"/>
<stop offset="0.5961" stop-color="#A99523"/>
<stop offset="0.9995" stop-color="#A79321"/>
</radialGradient>
</defs>
</svg>
