<svg width="61" height="24" viewBox="0 0 61 24" fill="none" xmlns="http://www.w3.org/2000/svg">
<rect x="2" y="1.98901" width="58" height="20" rx="10" fill="url(#paint0_linear_46_4325)"/>
<rect x="2" y="1.98901" width="58" height="20" rx="10" stroke="#264A26" stroke-width="3" stroke-linejoin="round"/>
<path d="M10.1348 15.989V7.39917H11.8691V15.989H10.1348ZM13.5449 15.989V7.39917H15.2324L18.748 13.1355V7.39917H20.3594V15.989H18.6191L15.1562 10.3875V15.989H13.5449ZM22.1992 15.989V7.39917H24.9824C26.0371 7.39917 26.7246 7.44214 27.0449 7.52808C27.5371 7.65698 27.9492 7.93823 28.2812 8.37183C28.6133 8.80151 28.7793 9.35815 28.7793 10.0417C28.7793 10.5691 28.6836 11.0125 28.4922 11.3718C28.3008 11.7312 28.0566 12.0144 27.7598 12.2214C27.4668 12.4246 27.168 12.5593 26.8633 12.6257C26.4492 12.7078 25.8496 12.7488 25.0645 12.7488H23.9336V15.989H22.1992ZM23.9336 8.85229V11.2898H24.8828C25.5664 11.2898 26.0234 11.2449 26.2539 11.155C26.4844 11.0652 26.6641 10.9246 26.793 10.7332C26.9258 10.5417 26.9922 10.3191 26.9922 10.0652C26.9922 9.75269 26.9004 9.49487 26.7168 9.29175C26.5332 9.08862 26.3008 8.96167 26.0195 8.91089C25.8125 8.87183 25.3965 8.85229 24.7715 8.85229H23.9336ZM30.2031 15.989V7.39917H32.9863C34.041 7.39917 34.7285 7.44214 35.0488 7.52808C35.541 7.65698 35.9531 7.93823 36.2852 8.37183C36.6172 8.80151 36.7832 9.35815 36.7832 10.0417C36.7832 10.5691 36.6875 11.0125 36.4961 11.3718C36.3047 11.7312 36.0605 12.0144 35.7637 12.2214C35.4707 12.4246 35.1719 12.5593 34.8672 12.6257C34.4531 12.7078 33.8535 12.7488 33.0684 12.7488H31.9375V15.989H30.2031ZM31.9375 8.85229V11.2898H32.8867C33.5703 11.2898 34.0273 11.2449 34.2578 11.155C34.4883 11.0652 34.668 10.9246 34.7969 10.7332C34.9297 10.5417 34.9961 10.3191 34.9961 10.0652C34.9961 9.75269 34.9043 9.49487 34.7207 9.29175C34.5371 9.08862 34.3047 8.96167 34.0234 8.91089C33.8164 8.87183 33.4004 8.85229 32.7754 8.85229H31.9375ZM37.8672 13.78L39.5078 13.6101C39.5547 13.9812 39.6934 14.2761 39.9238 14.4949C40.1543 14.7097 40.4199 14.8171 40.7207 14.8171C41.0645 14.8171 41.3555 14.6785 41.5938 14.4011C41.832 14.1199 41.9512 13.698 41.9512 13.1355C41.9512 12.6082 41.832 12.2136 41.5938 11.9519C41.3594 11.6863 41.0527 11.5535 40.6738 11.5535C40.2012 11.5535 39.7773 11.7625 39.4023 12.1804L38.0664 11.9871L38.9102 7.51636H43.2637V9.05737H40.1582L39.9004 10.5164C40.2676 10.3328 40.6426 10.241 41.0254 10.241C41.7559 10.241 42.375 10.5066 42.8828 11.0378C43.3906 11.5691 43.6445 12.2585 43.6445 13.1062C43.6445 13.8132 43.4395 14.4441 43.0293 14.9988C42.4707 15.7566 41.6953 16.1355 40.7031 16.1355C39.9102 16.1355 39.2637 15.9226 38.7637 15.4968C38.2637 15.071 37.9648 14.4988 37.8672 13.78ZM44.8809 7.39917H48.0508C48.7656 7.39917 49.3105 7.45386 49.6855 7.56323C50.1895 7.71167 50.6211 7.97534 50.9805 8.35425C51.3398 8.73315 51.6133 9.198 51.8008 9.74878C51.9883 10.2957 52.082 10.9714 52.082 11.7761C52.082 12.4832 51.9941 13.0925 51.8184 13.6042C51.6035 14.2292 51.2969 14.7351 50.8984 15.1218C50.5977 15.4148 50.1914 15.6433 49.6797 15.8074C49.2969 15.9285 48.7852 15.989 48.1445 15.989H44.8809V7.39917ZM46.6152 8.85229V14.5417H47.9102C48.3945 14.5417 48.7441 14.5144 48.959 14.4597C49.2402 14.3894 49.4727 14.2703 49.6562 14.1023C49.8438 13.9343 49.9961 13.6589 50.1133 13.2761C50.2305 12.8894 50.2891 12.364 50.2891 11.7C50.2891 11.0359 50.2305 10.5261 50.1133 10.1707C49.9961 9.81519 49.832 9.53784 49.6211 9.33862C49.4102 9.1394 49.1426 9.00464 48.8184 8.93433C48.5762 8.87964 48.1016 8.85229 47.3945 8.85229H46.6152Z" fill="white"/>
<defs>
<linearGradient id="paint0_linear_46_4325" x1="31" y1="1.98901" x2="31" y2="21.989" gradientUnits="userSpaceOnUse">
<stop stop-color="#264A26"/>
<stop offset="1" stop-color="#0BA300"/>
</linearGradient>
</defs>
</svg>
