<svg width="42" height="24" viewBox="0 0 42 24" fill="none" xmlns="http://www.w3.org/2000/svg">
<rect x="2" y="1.98901" width="39" height="20" rx="10" fill="url(#paint0_linear_38_1884)"/>
<rect x="2" y="1.98901" width="39" height="20" rx="10" stroke="#C31B78" stroke-width="3" stroke-linejoin="round"/>
<path d="M15.5293 12.8308L17.2109 13.364C16.9531 14.3015 16.5234 14.9988 15.9219 15.4558C15.3242 15.9089 14.5645 16.1355 13.6426 16.1355C12.502 16.1355 11.5645 15.7468 10.8301 14.9695C10.0957 14.1882 9.72852 13.1218 9.72852 11.7703C9.72852 10.3406 10.0977 9.2312 10.8359 8.44214C11.5742 7.64917 12.5449 7.25269 13.748 7.25269C14.7988 7.25269 15.6523 7.56323 16.3086 8.18433C16.6992 8.55151 16.9922 9.07886 17.1875 9.76636L15.4707 10.1765C15.3691 9.7312 15.1562 9.37964 14.832 9.12183C14.5117 8.86401 14.1211 8.73511 13.6602 8.73511C13.0234 8.73511 12.5059 8.96362 12.1074 9.42065C11.7129 9.87769 11.5156 10.6179 11.5156 11.6414C11.5156 12.7273 11.7109 13.5007 12.1016 13.9617C12.4922 14.4226 13 14.6531 13.625 14.6531C14.0859 14.6531 14.4824 14.5066 14.8145 14.2136C15.1465 13.9207 15.3848 13.4597 15.5293 12.8308ZM18.7168 15.989V7.39917H24.6055V8.85229H20.4512V10.8855H24.0371V12.3386H20.4512V15.989H18.7168ZM26.0352 7.39917H29.2051C29.9199 7.39917 30.4648 7.45386 30.8398 7.56323C31.3438 7.71167 31.7754 7.97534 32.1348 8.35425C32.4941 8.73315 32.7676 9.198 32.9551 9.74878C33.1426 10.2957 33.2363 10.9714 33.2363 11.7761C33.2363 12.4832 33.1484 13.0925 32.9727 13.6042C32.7578 14.2292 32.4512 14.7351 32.0527 15.1218C31.752 15.4148 31.3457 15.6433 30.834 15.8074C30.4512 15.9285 29.9395 15.989 29.2988 15.989H26.0352V7.39917ZM27.7695 8.85229V14.5417H29.0645C29.5488 14.5417 29.8984 14.5144 30.1133 14.4597C30.3945 14.3894 30.627 14.2703 30.8105 14.1023C30.998 13.9343 31.1504 13.6589 31.2676 13.2761C31.3848 12.8894 31.4434 12.364 31.4434 11.7C31.4434 11.0359 31.3848 10.5261 31.2676 10.1707C31.1504 9.81519 30.9863 9.53784 30.7754 9.33862C30.5645 9.1394 30.2969 9.00464 29.9727 8.93433C29.7305 8.87964 29.2559 8.85229 28.5488 8.85229H27.7695Z" fill="white"/>
<defs>
<linearGradient id="paint0_linear_38_1884" x1="21.5" y1="1.98901" x2="21.5" y2="21.989" gradientUnits="userSpaceOnUse">
<stop stop-color="#C31B78"/>
<stop offset="1" stop-color="#630D3D"/>
</linearGradient>
</defs>
</svg>
