<svg width="47" height="26" viewBox="0 0 47 26" fill="none" xmlns="http://www.w3.org/2000/svg">
<path d="M20.2222 1.64868C21.6425 1.37006 22.7309 2.01844 23.5278 2.52954C24.4627 3.12913 25.0154 3.52101 25.7407 3.51978L25.9653 3.50513C26.4795 3.43883 26.9405 3.14825 27.6216 2.69458C28.3187 2.23019 29.3142 1.54359 30.6343 1.62329L30.8657 1.64575C31.9998 1.79292 32.8261 2.48495 33.4028 2.93774C34.0959 3.48187 34.53 3.77885 35.0894 3.80103L35.2466 3.79614C35.605 3.76064 35.9312 3.55031 36.563 3.16821L36.7827 3.05103C37.902 2.53193 39.2653 3.01921 39.7661 4.19653L40.0522 4.84595C40.1511 5.06276 40.2511 5.27462 40.3462 5.46313C40.4397 5.64868 40.5216 5.79773 40.5864 5.90356C40.687 5.92913 40.8254 5.95637 41.0034 5.98267C41.403 6.04168 41.8019 6.0768 42.2788 6.13696L42.5005 6.17798C43.5089 6.4262 44.1097 7.44538 43.8892 8.43677L43.8296 8.64868C43.595 9.32649 43.4626 9.62775 43.4839 9.94653C43.4888 9.95509 43.4949 9.96495 43.5015 9.97583C43.5566 10.0667 43.6409 10.1886 43.7495 10.3333C43.965 10.62 44.2313 10.9381 44.439 11.176L44.5229 11.2795C44.8609 11.7368 44.8918 12.2882 44.7417 12.7454L44.6597 12.9495C44.6379 12.9957 44.6166 13.2051 44.7397 13.4036L45.0044 13.8118C45.3031 14.2719 45.6715 14.883 45.8071 15.5891L45.8276 15.719C45.9126 16.361 45.6933 16.8977 45.3091 17.2991C44.9691 17.6542 44.5107 17.8875 44.1987 18.0442C43.8294 18.2297 43.5564 18.3577 43.3169 18.5247C43.1515 18.64 43.048 18.7445 42.9829 18.8469L42.9302 18.9495C42.9284 18.9565 42.9069 19.0362 42.9087 19.2532C42.9106 19.4806 42.9323 19.7158 42.9536 20.0383C42.9727 20.3272 42.9912 20.6877 42.9526 21.0334C42.9196 21.3297 42.8349 21.7175 42.5884 22.0637L42.4731 22.2092C41.7325 23.0423 40.7203 22.8683 40.2017 22.7385C39.9357 22.672 39.6146 22.565 39.439 22.5129C39.3246 22.479 39.2413 22.4582 39.1812 22.4456L39.062 22.429C38.5974 22.4244 38.3273 22.6522 37.8345 23.2678C37.6193 23.5367 37.314 23.942 36.9546 24.2542C36.6095 24.5538 36.1668 24.8148 35.6011 24.8909L35.3511 24.9114L35.2993 24.9124C34.1719 24.892 33.3897 24.3938 32.7915 23.9495C32.232 23.5338 31.8971 23.2365 31.4751 23.0442L31.2876 22.968C30.4698 22.6748 29.8672 22.8443 28.9458 23.3401L28.5298 23.5725C27.5521 24.1323 26.6825 24.383 25.854 24.3411C25.0263 24.2991 24.3735 23.9696 23.8423 23.6389C22.7331 22.9485 22.121 22.3262 20.8286 22.2649H20.8276C19.6418 22.2088 19.0397 22.6804 18.0044 23.1741C17.5029 23.4132 16.8864 23.6476 16.1362 23.6155C15.4784 23.5872 14.8161 23.3597 14.1099 22.926L13.8042 22.7268C12.705 21.9741 11.9977 21.5684 11.0454 21.7043C11.0248 21.7113 10.9968 21.7208 10.9614 21.7336C10.8637 21.7692 10.7294 21.8211 10.5718 21.884C10.414 21.947 10.2376 22.0189 10.0571 22.0959L9.51709 22.3362C8.56284 22.7777 7.46718 22.3306 7.05127 21.4163L6.97705 21.2268C6.85779 20.8652 6.76511 20.5707 6.65088 20.3137C6.55517 20.0984 6.47843 19.9934 6.43408 19.9465C6.42473 19.9427 6.41292 19.9374 6.39795 19.9319C6.32262 19.9041 6.21301 19.8716 6.06787 19.8362C5.92287 19.8008 5.75938 19.7673 5.58447 19.7346L5.03174 19.6399C3.73971 19.4355 2.94535 18.1545 3.2915 16.9163L3.34814 16.6917C3.37872 16.551 3.39531 16.4271 3.39697 16.3108L3.38818 16.1418C3.34521 15.7786 3.24864 15.551 3.14209 15.385C3.02914 15.209 2.87364 15.0525 2.63721 14.8577C2.42471 14.6826 2.29335 14.4273 2.2749 14.1526C2.25654 13.8777 2.35313 13.6074 2.54053 13.4055C2.57338 13.3701 2.59232 13.3314 2.60107 13.2981C2.60506 13.2829 2.60712 13.2675 2.60693 13.2512L2.59912 13.1995C2.46786 12.7508 2.28781 12.3594 2.05518 11.8889L1.80518 11.386C1.29872 10.3701 1.77121 9.14325 2.81396 8.71899L3.42529 8.46704C3.90271 8.25979 4.16868 8.09178 4.35693 7.75122L4.396 7.67603C4.39883 7.66655 4.40774 7.63842 4.42041 7.58521C4.44116 7.49805 4.46423 7.38005 4.48779 7.23853C4.53487 6.95572 4.57764 6.61283 4.60107 6.29126L4.6333 6.03931C4.86503 4.80142 6.10179 3.95708 7.37842 4.29126L7.66064 4.36353C7.91532 4.42601 8.09643 4.45903 8.27295 4.4563C8.45916 4.45341 8.67115 4.40793 8.95752 4.19653L9.04736 4.1106C9.08673 4.06609 9.13565 4.00352 9.1958 3.91724C9.32133 3.73712 9.42436 3.5591 9.58545 3.30396C9.728 3.07817 9.91212 2.79967 10.1392 2.55688C10.3691 2.31103 10.6953 2.04499 11.1392 1.92212L11.3677 1.87134C11.8977 1.78354 12.3918 1.90028 12.7954 2.05786C13.251 2.23574 13.6865 2.50458 14.0513 2.74048C14.447 2.9964 14.7593 3.21156 15.0786 3.38892C15.3963 3.56536 15.604 3.63428 15.7378 3.64673L15.9897 3.65845C16.5556 3.65396 16.9749 3.43899 17.4819 3.09106C18.028 2.71634 18.8518 2.01858 19.9331 1.71802L20.2222 1.64868Z" fill="#BA1149" stroke="#8E0E3F" stroke-width="2" stroke-linejoin="round"/>
</svg>
