<svg width="51" height="24" viewBox="0 0 51 24" fill="none" xmlns="http://www.w3.org/2000/svg">
<rect x="2" y="1.98901" width="48" height="20" rx="10" fill="url(#paint0_linear_33_1394)"/>
<rect x="2" y="1.98901" width="48" height="20" rx="10" stroke="#95A551" stroke-width="3" stroke-linejoin="round"/>
<path d="M17.9434 15.989H16.0566L15.3066 14.0378H11.873L11.1641 15.989H9.32422L12.6699 7.39917H14.5039L17.9434 15.989ZM14.75 12.5906L13.5664 9.40308L12.4062 12.5906H14.75ZM24.3652 12.8308L26.0469 13.364C25.7891 14.3015 25.3594 14.9988 24.7578 15.4558C24.1602 15.9089 23.4004 16.1355 22.4785 16.1355C21.3379 16.1355 20.4004 15.7468 19.666 14.9695C18.9316 14.1882 18.5645 13.1218 18.5645 11.7703C18.5645 10.3406 18.9336 9.2312 19.6719 8.44214C20.4102 7.64917 21.3809 7.25269 22.584 7.25269C23.6348 7.25269 24.4883 7.56323 25.1445 8.18433C25.5352 8.55151 25.8281 9.07886 26.0234 9.76636L24.3066 10.1765C24.2051 9.7312 23.9922 9.37964 23.668 9.12183C23.3477 8.86401 22.957 8.73511 22.4961 8.73511C21.8594 8.73511 21.3418 8.96362 20.9434 9.42065C20.5488 9.87769 20.3516 10.6179 20.3516 11.6414C20.3516 12.7273 20.5469 13.5007 20.9375 13.9617C21.3281 14.4226 21.8359 14.6531 22.4609 14.6531C22.9219 14.6531 23.3184 14.5066 23.6504 14.2136C23.9824 13.9207 24.2207 13.4597 24.3652 12.8308ZM29.4746 15.989V8.85229H26.9258V7.39917H33.752V8.85229H31.209V15.989H29.4746ZM34.8828 7.39917H38.3164C38.9961 7.39917 39.502 7.42847 39.834 7.48706C40.1699 7.54175 40.4688 7.65894 40.7305 7.83862C40.9961 8.01831 41.2168 8.25854 41.3926 8.55933C41.5684 8.8562 41.6562 9.19019 41.6562 9.56128C41.6562 9.96362 41.5469 10.3328 41.3281 10.6687C41.1133 11.0046 40.8203 11.2566 40.4492 11.4246C40.9727 11.5769 41.375 11.8367 41.6562 12.2039C41.9375 12.571 42.0781 13.0027 42.0781 13.4988C42.0781 13.8894 41.9863 14.2703 41.8027 14.6414C41.623 15.0085 41.375 15.3035 41.0586 15.5261C40.7461 15.7449 40.3594 15.8796 39.8984 15.9304C39.6094 15.9617 38.9121 15.9812 37.8066 15.989H34.8828V7.39917ZM36.6172 8.82886V10.8152H37.7539C38.4297 10.8152 38.8496 10.8054 39.0137 10.7859C39.3105 10.7507 39.543 10.6492 39.7109 10.4812C39.8828 10.3093 39.9688 10.0847 39.9688 9.80737C39.9688 9.54175 39.8945 9.3269 39.7461 9.16284C39.6016 8.99487 39.3848 8.89331 39.0957 8.85815C38.9238 8.83862 38.4297 8.82886 37.6133 8.82886H36.6172ZM36.6172 12.2449V14.5417H38.2227C38.8477 14.5417 39.2441 14.5242 39.4121 14.489C39.6699 14.4421 39.8789 14.3289 40.0391 14.1492C40.2031 13.9656 40.2852 13.7214 40.2852 13.4167C40.2852 13.1589 40.2227 12.9402 40.0977 12.7605C39.9727 12.5808 39.791 12.45 39.5527 12.3679C39.3184 12.2859 38.8066 12.2449 38.0176 12.2449H36.6172Z" fill="white"/>
<defs>
<linearGradient id="paint0_linear_33_1394" x1="26" y1="1.98901" x2="26" y2="21.989" gradientUnits="userSpaceOnUse">
<stop stop-color="#95A551"/>
<stop offset="1" stop-color="#8D2106"/>
</linearGradient>
</defs>
</svg>
