<svg width="50" height="24" viewBox="0 0 50 24" fill="none" xmlns="http://www.w3.org/2000/svg">
<rect x="2" y="1.98901" width="47" height="20" rx="10" fill="url(#paint0_linear_52_1884)"/>
<rect x="2" y="1.98901" width="47" height="20" rx="10" stroke="#064F3B" stroke-width="3" stroke-linejoin="round"/>
<path d="M10.0781 15.989V7.46948H11.8125V14.5417H16.125V15.989H10.0781ZM17.3789 15.989V7.39917H23.2676V8.85229H19.1133V10.8855H22.6992V12.3386H19.1133V15.989H17.3789ZM24.7207 15.989V7.39917H26.4082L29.9238 13.1355V7.39917H31.5352V15.989H29.7949L26.332 10.3875V15.989H24.7207ZM37.3711 12.8308V11.3835H41.1094V14.8054C40.7461 15.157 40.2188 15.4675 39.5273 15.7371C38.8398 16.0027 38.1426 16.1355 37.4355 16.1355C36.5371 16.1355 35.7539 15.948 35.0859 15.573C34.418 15.1941 33.916 14.655 33.5801 13.9558C33.2441 13.2527 33.0762 12.489 33.0762 11.6648C33.0762 10.7703 33.2637 9.97534 33.6387 9.28003C34.0137 8.58472 34.5625 8.05151 35.2852 7.68042C35.8359 7.39526 36.5215 7.25269 37.3418 7.25269C38.4082 7.25269 39.2402 7.47729 39.8379 7.92651C40.4395 8.37183 40.8262 8.98901 40.998 9.77808L39.2754 10.1003C39.1543 9.67847 38.9258 9.34644 38.5898 9.10425C38.2578 8.85815 37.8418 8.73511 37.3418 8.73511C36.584 8.73511 35.9805 8.97534 35.5312 9.45581C35.0859 9.93628 34.8633 10.6492 34.8633 11.5945C34.8633 12.614 35.0898 13.3796 35.543 13.8914C35.9961 14.3992 36.5898 14.6531 37.3242 14.6531C37.6875 14.6531 38.0508 14.5828 38.4141 14.4421C38.7812 14.2976 39.0957 14.1238 39.3574 13.9207V12.8308H37.3711Z" fill="white"/>
<defs>
<linearGradient id="paint0_linear_52_1884" x1="25.5" y1="1.98901" x2="25.5" y2="21.989" gradientUnits="userSpaceOnUse">
<stop stop-color="#71D0FF"/>
<stop offset="1" stop-color="#064F3B"/>
</linearGradient>
</defs>
</svg>
