<svg width="51" height="24" viewBox="0 0 51 24" fill="none" xmlns="http://www.w3.org/2000/svg">
<rect x="2" y="1.98901" width="48" height="20" rx="10" fill="url(#paint0_linear_64_1806)"/>
<rect x="2" y="1.98901" width="48" height="20" rx="10" stroke="#B7991C" stroke-width="3" stroke-linejoin="round"/>
<path d="M10.1738 15.989V7.39917H12.7695L14.3281 13.2585L15.8691 7.39917H18.4707V15.989H16.8594V9.22729L15.1543 15.989H13.4844L11.7852 9.22729V15.989H10.1738ZM19.7539 13.1941L21.4414 13.03C21.543 13.5964 21.748 14.0125 22.0566 14.2781C22.3691 14.5437 22.7891 14.6765 23.3164 14.6765C23.875 14.6765 24.2949 14.5593 24.5762 14.325C24.8613 14.0867 25.0039 13.8093 25.0039 13.4929C25.0039 13.2898 24.9434 13.1179 24.8223 12.9773C24.7051 12.8328 24.498 12.7078 24.2012 12.6023C23.998 12.532 23.5352 12.407 22.8125 12.2273C21.8828 11.9968 21.2305 11.7136 20.8555 11.3777C20.3281 10.905 20.0645 10.3289 20.0645 9.64917C20.0645 9.21167 20.1875 8.80347 20.4336 8.42456C20.6836 8.04175 21.041 7.75073 21.5059 7.55151C21.9746 7.35229 22.5391 7.25269 23.1992 7.25269C24.2773 7.25269 25.0879 7.48901 25.6309 7.96167C26.1777 8.43433 26.4648 9.06519 26.4922 9.85425L24.7578 9.93042C24.6836 9.48901 24.5234 9.17261 24.2773 8.9812C24.0352 8.78589 23.6699 8.68823 23.1816 8.68823C22.6777 8.68823 22.2832 8.79175 21.998 8.99878C21.8145 9.13159 21.7227 9.30933 21.7227 9.53198C21.7227 9.73511 21.8086 9.90894 21.9805 10.0535C22.1992 10.2371 22.7305 10.4285 23.5742 10.6277C24.418 10.8269 25.041 11.0339 25.4434 11.2488C25.8496 11.4597 26.166 11.7507 26.3926 12.1218C26.623 12.489 26.7383 12.9441 26.7383 13.4871C26.7383 13.9792 26.6016 14.4402 26.3281 14.8699C26.0547 15.2996 25.668 15.6199 25.168 15.8308C24.668 16.0378 24.0449 16.1414 23.2988 16.1414C22.2129 16.1414 21.3789 15.8914 20.7969 15.3914C20.2148 14.8875 19.8672 14.155 19.7539 13.1941ZM28.2031 15.989V7.39917H29.9375V10.78H33.3359V7.39917H35.0703V15.989H33.3359V12.2332H29.9375V15.989H28.2031ZM36.4473 13.7097L38.041 13.5164C38.0918 13.9226 38.2285 14.2332 38.4512 14.448C38.6738 14.6628 38.9434 14.7703 39.2598 14.7703C39.5996 14.7703 39.8848 14.6414 40.1152 14.3835C40.3496 14.1257 40.4668 13.7781 40.4668 13.3406C40.4668 12.9265 40.3555 12.5984 40.1328 12.3562C39.9102 12.114 39.6387 11.9929 39.3184 11.9929C39.1074 11.9929 38.8555 12.0339 38.5625 12.116L38.7441 10.7742C39.1895 10.7859 39.5293 10.6902 39.7637 10.4871C39.998 10.28 40.1152 10.0066 40.1152 9.66675C40.1152 9.37769 40.0293 9.14722 39.8574 8.97534C39.6855 8.80347 39.457 8.71753 39.1719 8.71753C38.8906 8.71753 38.6504 8.81519 38.4512 9.0105C38.252 9.20581 38.1309 9.49097 38.0879 9.86597L36.5703 9.60815C36.6758 9.08862 36.834 8.67456 37.0449 8.36597C37.2598 8.05347 37.5566 7.80933 37.9355 7.63354C38.3184 7.45386 38.7461 7.36401 39.2188 7.36401C40.0273 7.36401 40.6758 7.62183 41.1641 8.13745C41.5664 8.55933 41.7676 9.03589 41.7676 9.56714C41.7676 10.321 41.3555 10.9226 40.5312 11.3718C41.0234 11.4773 41.416 11.7136 41.709 12.0808C42.0059 12.448 42.1543 12.8914 42.1543 13.4109C42.1543 14.1648 41.8789 14.8074 41.3281 15.3386C40.7773 15.8699 40.0918 16.1355 39.2715 16.1355C38.4941 16.1355 37.8496 15.9128 37.3379 15.4675C36.8262 15.0183 36.5293 14.4324 36.4473 13.7097Z" fill="white"/>
<defs>
<linearGradient id="paint0_linear_64_1806" x1="26" y1="1.98901" x2="26" y2="21.989" gradientUnits="userSpaceOnUse">
<stop stop-color="#55D8FF"/>
<stop offset="1" stop-color="#B7991C"/>
</linearGradient>
</defs>
</svg>
