<svg width="76" height="24" viewBox="0 0 76 24" fill="none" xmlns="http://www.w3.org/2000/svg">
<rect x="1" y="1.98901" width="74" height="20" rx="10" fill="url(#paint0_linear_67_1814)"/>
<rect x="1" y="1.98901" width="74" height="20" rx="10" stroke="#00A181" stroke-width="3" stroke-linejoin="round"/>
<path d="M9.13672 9.76636H10.6719V10.6804C10.8711 10.3679 11.1406 10.114 11.4805 9.9187C11.8203 9.72339 12.1973 9.62573 12.6113 9.62573C13.334 9.62573 13.9473 9.90894 14.4512 10.4753C14.9551 11.0417 15.207 11.8308 15.207 12.8425C15.207 13.8816 14.9531 14.6902 14.4453 15.2683C13.9375 15.8425 13.3223 16.1296 12.5996 16.1296C12.2559 16.1296 11.9434 16.0613 11.6621 15.9246C11.3848 15.7878 11.0918 15.5535 10.7832 15.2214V18.3562H9.13672V9.76636ZM10.7656 12.7722C10.7656 13.4714 10.9043 13.989 11.1816 14.325C11.459 14.657 11.7969 14.823 12.1953 14.823C12.5781 14.823 12.8965 14.6707 13.1504 14.366C13.4043 14.0574 13.5312 13.5535 13.5312 12.8542C13.5312 12.2019 13.4004 11.7175 13.1387 11.4011C12.877 11.0847 12.5527 10.9265 12.166 10.9265C11.7637 10.9265 11.4297 11.0828 11.1641 11.3953C10.8984 11.7039 10.7656 12.1628 10.7656 12.7722ZM18.0957 15.989H16.4492V9.76636H17.9785V10.6511C18.2402 10.2332 18.4746 9.95776 18.6816 9.82495C18.8926 9.69214 19.1309 9.62573 19.3965 9.62573C19.7715 9.62573 20.1328 9.72925 20.4805 9.93628L19.9707 11.3718C19.6934 11.1921 19.4355 11.1023 19.1973 11.1023C18.9668 11.1023 18.7715 11.1667 18.6113 11.2957C18.4512 11.4207 18.3242 11.6492 18.2305 11.9812C18.1406 12.3132 18.0957 13.0085 18.0957 14.0671V15.989ZM20.8145 12.7898C20.8145 12.2429 20.9492 11.7136 21.2188 11.2019C21.4883 10.6902 21.8691 10.2996 22.3613 10.03C22.8574 9.7605 23.4102 9.62573 24.0195 9.62573C24.9609 9.62573 25.7324 9.93237 26.334 10.5457C26.9355 11.155 27.2363 11.9265 27.2363 12.8601C27.2363 13.8015 26.9316 14.5828 26.3223 15.2039C25.7168 15.821 24.9531 16.1296 24.0312 16.1296C23.4609 16.1296 22.916 16.0007 22.3965 15.7429C21.8809 15.4851 21.4883 15.1082 21.2188 14.6121C20.9492 14.1121 20.8145 13.5046 20.8145 12.7898ZM22.502 12.8777C22.502 13.4949 22.6484 13.9675 22.9414 14.2957C23.2344 14.6238 23.5957 14.7878 24.0254 14.7878C24.4551 14.7878 24.8145 14.6238 25.1035 14.2957C25.3965 13.9675 25.543 13.491 25.543 12.866C25.543 12.2566 25.3965 11.7878 25.1035 11.4597C24.8145 11.1316 24.4551 10.9675 24.0254 10.9675C23.5957 10.9675 23.2344 11.1316 22.9414 11.4597C22.6484 11.7878 22.502 12.2605 22.502 12.8777ZM28.3438 13.698V12.0515H31.5781V13.698H28.3438ZM32.0996 13.1941L33.7871 13.03C33.8887 13.5964 34.0938 14.0125 34.4023 14.2781C34.7148 14.5437 35.1348 14.6765 35.6621 14.6765C36.2207 14.6765 36.6406 14.5593 36.9219 14.325C37.207 14.0867 37.3496 13.8093 37.3496 13.4929C37.3496 13.2898 37.2891 13.1179 37.168 12.9773C37.0508 12.8328 36.8438 12.7078 36.5469 12.6023C36.3438 12.532 35.8809 12.407 35.1582 12.2273C34.2285 11.9968 33.5762 11.7136 33.2012 11.3777C32.6738 10.905 32.4102 10.3289 32.4102 9.64917C32.4102 9.21167 32.5332 8.80347 32.7793 8.42456C33.0293 8.04175 33.3867 7.75073 33.8516 7.55151C34.3203 7.35229 34.8848 7.25269 35.5449 7.25269C36.623 7.25269 37.4336 7.48901 37.9766 7.96167C38.5234 8.43433 38.8105 9.06519 38.8379 9.85425L37.1035 9.93042C37.0293 9.48901 36.8691 9.17261 36.623 8.9812C36.3809 8.78589 36.0156 8.68823 35.5273 8.68823C35.0234 8.68823 34.6289 8.79175 34.3438 8.99878C34.1602 9.13159 34.0684 9.30933 34.0684 9.53198C34.0684 9.73511 34.1543 9.90894 34.3262 10.0535C34.5449 10.2371 35.0762 10.4285 35.9199 10.6277C36.7637 10.8269 37.3867 11.0339 37.7891 11.2488C38.1953 11.4597 38.5117 11.7507 38.7383 12.1218C38.9688 12.489 39.084 12.9441 39.084 13.4871C39.084 13.9792 38.9473 14.4402 38.6738 14.8699C38.4004 15.2996 38.0137 15.6199 37.5137 15.8308C37.0137 16.0378 36.3906 16.1414 35.6445 16.1414C34.5586 16.1414 33.7246 15.8914 33.1426 15.3914C32.5605 14.8875 32.2129 14.155 32.0996 13.1941ZM40.5312 7.39917H42.2656V12.0515C42.2656 12.7898 42.2871 13.2683 42.3301 13.4871C42.4043 13.8386 42.5801 14.1218 42.8574 14.3367C43.1387 14.5476 43.5215 14.6531 44.0059 14.6531C44.498 14.6531 44.8691 14.5535 45.1191 14.3542C45.3691 14.1511 45.5195 13.9031 45.5703 13.6101C45.6211 13.3171 45.6465 12.8308 45.6465 12.1511V7.39917H47.3809V11.9109C47.3809 12.9421 47.334 13.6707 47.2402 14.0964C47.1465 14.5222 46.9727 14.8816 46.7188 15.1746C46.4688 15.4675 46.1328 15.7019 45.7109 15.8777C45.2891 16.0496 44.7383 16.1355 44.0586 16.1355C43.2383 16.1355 42.6152 16.0417 42.1895 15.8542C41.7676 15.6628 41.4336 15.4167 41.1875 15.116C40.9414 14.8113 40.7793 14.4929 40.7012 14.1609C40.5879 13.6687 40.5312 12.9421 40.5312 11.9812V7.39917ZM49.1914 15.989V7.39917H51.7871L53.3457 13.2585L54.8867 7.39917H57.4883V15.989H55.877V9.22729L54.1719 15.989H52.502L50.8027 9.22729V15.989H49.1914ZM58.8594 11.7468C58.8594 10.8718 58.9902 10.1375 59.252 9.5437C59.4473 9.1062 59.7129 8.71362 60.0488 8.36597C60.3887 8.01831 60.7598 7.7605 61.1621 7.59253C61.6973 7.36597 62.3145 7.25269 63.0137 7.25269C64.2793 7.25269 65.291 7.64526 66.0488 8.43042C66.8105 9.21558 67.1914 10.3074 67.1914 11.7058C67.1914 13.0925 66.8145 14.1785 66.0605 14.9636C65.3066 15.7449 64.2988 16.1355 63.0371 16.1355C61.7598 16.1355 60.7441 15.7468 59.9902 14.9695C59.2363 14.1882 58.8594 13.114 58.8594 11.7468ZM60.6465 11.6882C60.6465 12.6609 60.8711 13.3992 61.3203 13.9031C61.7695 14.4031 62.3398 14.6531 63.0312 14.6531C63.7227 14.6531 64.2891 14.405 64.7305 13.9089C65.1758 13.4089 65.3984 12.6609 65.3984 11.6648C65.3984 10.6804 65.1816 9.94604 64.748 9.46167C64.3184 8.97729 63.7461 8.73511 63.0312 8.73511C62.3164 8.73511 61.7402 8.9812 61.3027 9.47339C60.8652 9.96167 60.6465 10.7 60.6465 11.6882Z" fill="white"/>
<defs>
<linearGradient id="paint0_linear_67_1814" x1="38" y1="1.98901" x2="38" y2="21.989" gradientUnits="userSpaceOnUse">
<stop stop-color="#00A181"/>
<stop offset="1" stop-color="#FFA0CC"/>
</linearGradient>
</defs>
</svg>
