<svg width="76" height="24" viewBox="0 0 76 24" fill="none" xmlns="http://www.w3.org/2000/svg">
<rect x="1" y="1.98901" width="74" height="20" rx="10" fill="url(#paint0_linear_67_1936)"/>
<rect x="1" y="1.98901" width="74" height="20" rx="10" stroke="#A81289" stroke-width="3" stroke-linejoin="round"/>
<path d="M8.74414 13.1941L10.4316 13.03C10.5332 13.5964 10.7383 14.0125 11.0469 14.2781C11.3594 14.5437 11.7793 14.6765 12.3066 14.6765C12.8652 14.6765 13.2852 14.5593 13.5664 14.325C13.8516 14.0867 13.9941 13.8093 13.9941 13.4929C13.9941 13.2898 13.9336 13.1179 13.8125 12.9773C13.6953 12.8328 13.4883 12.7078 13.1914 12.6023C12.9883 12.532 12.5254 12.407 11.8027 12.2273C10.873 11.9968 10.2207 11.7136 9.8457 11.3777C9.31836 10.905 9.05469 10.3289 9.05469 9.64917C9.05469 9.21167 9.17773 8.80347 9.42383 8.42456C9.67383 8.04175 10.0312 7.75073 10.4961 7.55151C10.9648 7.35229 11.5293 7.25269 12.1895 7.25269C13.2676 7.25269 14.0781 7.48901 14.6211 7.96167C15.168 8.43433 15.4551 9.06519 15.4824 9.85425L13.748 9.93042C13.6738 9.48901 13.5137 9.17261 13.2676 8.9812C13.0254 8.78589 12.6602 8.68823 12.1719 8.68823C11.668 8.68823 11.2734 8.79175 10.9883 8.99878C10.8047 9.13159 10.7129 9.30933 10.7129 9.53198C10.7129 9.73511 10.7988 9.90894 10.9707 10.0535C11.1895 10.2371 11.7207 10.4285 12.5645 10.6277C13.4082 10.8269 14.0312 11.0339 14.4336 11.2488C14.8398 11.4597 15.1562 11.7507 15.3828 12.1218C15.6133 12.489 15.7285 12.9441 15.7285 13.4871C15.7285 13.9792 15.5918 14.4402 15.3184 14.8699C15.0449 15.2996 14.6582 15.6199 14.1582 15.8308C13.6582 16.0378 13.0352 16.1414 12.2891 16.1414C11.2031 16.1414 10.3691 15.8914 9.78711 15.3914C9.20508 14.8875 8.85742 14.155 8.74414 13.1941ZM17.1875 15.989V7.39917H23.5566V8.85229H18.9219V10.7566H23.2344V12.2039H18.9219V14.5417H23.7207V15.989H17.1875ZM25.1973 15.989V7.39917H28.8477C29.7656 7.39917 30.4316 7.47729 30.8457 7.63354C31.2637 7.78589 31.5977 8.05933 31.8477 8.45386C32.0977 8.84839 32.2227 9.29956 32.2227 9.80737C32.2227 10.4519 32.0332 10.9851 31.6543 11.407C31.2754 11.825 30.709 12.0886 29.9551 12.198C30.3301 12.4167 30.6387 12.657 30.8809 12.9187C31.127 13.1804 31.457 13.6453 31.8711 14.3132L32.9199 15.989H30.8457L29.5918 14.1199C29.1465 13.4519 28.8418 13.032 28.6777 12.8601C28.5137 12.6843 28.3398 12.5652 28.1562 12.5027C27.9727 12.4363 27.6816 12.4031 27.2832 12.4031H26.9316V15.989H25.1973ZM26.9316 11.032H28.2148C29.0469 11.032 29.5664 10.9968 29.7734 10.9265C29.9805 10.8562 30.1426 10.7351 30.2598 10.5632C30.377 10.3914 30.4355 10.1765 30.4355 9.9187C30.4355 9.62964 30.3574 9.39722 30.2012 9.22144C30.0488 9.04175 29.832 8.92847 29.5508 8.88159C29.4102 8.86206 28.9883 8.85229 28.2852 8.85229H26.9316V11.032ZM33.8633 15.989V7.39917H36.6465C37.7012 7.39917 38.3887 7.44214 38.709 7.52808C39.2012 7.65698 39.6133 7.93823 39.9453 8.37183C40.2773 8.80151 40.4434 9.35815 40.4434 10.0417C40.4434 10.5691 40.3477 11.0125 40.1562 11.3718C39.9648 11.7312 39.7207 12.0144 39.4238 12.2214C39.1309 12.4246 38.832 12.5593 38.5273 12.6257C38.1133 12.7078 37.5137 12.7488 36.7285 12.7488H35.5977V15.989H33.8633ZM35.5977 8.85229V11.2898H36.5469C37.2305 11.2898 37.6875 11.2449 37.918 11.155C38.1484 11.0652 38.3281 10.9246 38.457 10.7332C38.5898 10.5417 38.6562 10.3191 38.6562 10.0652C38.6562 9.75269 38.5645 9.49487 38.3809 9.29175C38.1973 9.08862 37.9648 8.96167 37.6836 8.91089C37.4766 8.87183 37.0605 8.85229 36.4355 8.85229H35.5977ZM41.8145 15.989V7.39917H43.5488V15.989H41.8145ZM45.2246 15.989V7.39917H46.9121L50.4277 13.1355V7.39917H52.0391V15.989H50.2988L46.8359 10.3875V15.989H45.2246ZM53.8789 15.989V7.39917H60.248V8.85229H55.6133V10.7566H59.9258V12.2039H55.6133V14.5417H60.4121V15.989H53.8789ZM65.7324 15.989H64.0859V9.78394C63.4844 10.3464 62.7754 10.7625 61.959 11.032V9.53784C62.3887 9.39722 62.8555 9.13159 63.3594 8.74097C63.8633 8.34644 64.209 7.88745 64.3965 7.36401H65.7324V15.989Z" fill="white"/>
<defs>
<linearGradient id="paint0_linear_67_1936" x1="38" y1="1.98901" x2="38" y2="21.989" gradientUnits="userSpaceOnUse">
<stop stop-color="#A47B1B"/>
<stop offset="1" stop-color="#A81289"/>
</linearGradient>
</defs>
</svg>
