<svg width="164" height="157" viewBox="0 0 164 157" fill="none" xmlns="http://www.w3.org/2000/svg">
<path d="M150.744 103.462C155.83 103.462 159.954 99.339 159.954 94.2525C159.954 89.1659 155.83 85.0425 150.744 85.0425C145.657 85.0425 141.534 89.1659 141.534 94.2525C141.534 99.339 145.657 103.462 150.744 103.462Z" fill="url(#paint0_radial_91_5187)"/>
<path d="M148.951 81.2271C154.037 81.2271 158.161 77.1037 158.161 72.0171C158.161 66.9306 154.037 62.8071 148.951 62.8071C143.864 62.8071 139.741 66.9306 139.741 72.0171C139.741 77.1037 143.864 81.2271 148.951 81.2271Z" fill="url(#paint1_radial_91_5187)"/>
<path d="M134.113 101.785C139.2 101.785 143.323 97.6615 143.323 92.575C143.323 87.4884 139.2 83.365 134.113 83.365C129.027 83.365 124.903 87.4884 124.903 92.575C124.903 97.6615 129.027 101.785 134.113 101.785Z" fill="url(#paint2_radial_91_5187)"/>
<path d="M133.884 81.6851C138.97 81.6851 143.094 77.5617 143.094 72.4751C143.094 67.3886 138.97 63.2651 133.884 63.2651C128.797 63.2651 124.674 67.3886 124.674 72.4751C124.674 77.5617 128.797 81.6851 133.884 81.6851Z" fill="url(#paint3_radial_91_5187)"/>
<path d="M114.32 87.2523C119.407 87.2523 123.53 83.1288 123.53 78.0423C123.53 72.9557 119.407 68.8323 114.32 68.8323C109.234 68.8323 105.11 72.9557 105.11 78.0423C105.11 83.1288 109.234 87.2523 114.32 87.2523Z" fill="url(#paint4_radial_91_5187)"/>
<path d="M117.484 100.07C122.57 100.07 126.694 95.9469 126.694 90.8604C126.694 85.7738 122.57 81.6504 117.484 81.6504C112.397 81.6504 108.274 85.7738 108.274 90.8604C108.274 95.9469 112.397 100.07 117.484 100.07Z" fill="url(#paint5_radial_91_5187)"/>
<path d="M118.817 82.1434C123.904 82.1434 128.027 78.0199 128.027 72.9334C128.027 67.8468 123.904 63.7234 118.817 63.7234C113.73 63.7234 109.607 67.8468 109.607 72.9334C109.607 78.0199 113.73 82.1434 118.817 82.1434Z" fill="url(#paint6_radial_91_5187)"/>
<path d="M124.183 95.0833C129.27 95.0833 133.393 90.9599 133.393 85.8733C133.393 80.7868 129.27 76.6633 124.183 76.6633C119.097 76.6633 114.973 80.7868 114.973 85.8733C114.973 90.9599 119.097 95.0833 124.183 95.0833Z" fill="url(#paint7_radial_91_5187)"/>
<path d="M97.4392 84.7164C102.526 84.7164 106.649 80.5929 106.649 75.5064C106.649 70.4198 102.526 66.2964 97.4392 66.2964C92.3527 66.2964 88.2292 70.4198 88.2292 75.5064C88.2292 80.5929 92.3527 84.7164 97.4392 84.7164Z" fill="url(#paint8_radial_91_5187)"/>
<path d="M100.85 98.4666C105.937 98.4666 110.06 94.3432 110.06 89.2566C110.06 84.1701 105.937 80.0466 100.85 80.0466C95.7636 80.0466 91.6401 84.1701 91.6401 89.2566C91.6401 94.3432 95.7636 98.4666 100.85 98.4666Z" fill="url(#paint9_radial_91_5187)"/>
<path d="M103.519 82.5916C108.606 82.5916 112.729 78.4682 112.729 73.3816C112.729 68.2951 108.606 64.1716 103.519 64.1716C98.4329 64.1716 94.3094 68.2951 94.3094 73.3816C94.3094 78.4682 98.4329 82.5916 103.519 82.5916Z" fill="url(#paint10_radial_91_5187)"/>
<path d="M154.421 92.4737C159.508 92.4737 163.631 88.3503 163.631 83.2637C163.631 78.1772 159.508 74.0537 154.421 74.0537C149.335 74.0537 145.211 78.1772 145.211 83.2637C145.211 88.3503 149.335 92.4737 154.421 92.4737Z" fill="url(#paint11_radial_91_5187)"/>
<path d="M107.159 96.3145C112.245 96.3145 116.369 92.1911 116.369 87.1045C116.369 82.018 112.245 77.8945 107.159 77.8945C102.072 77.8945 97.9485 82.018 97.9485 87.1045C97.9485 92.1911 102.072 96.3145 107.159 96.3145Z" fill="url(#paint12_radial_91_5187)"/>
<path d="M73.5536 74.8482C78.6402 74.8482 82.7636 70.7248 82.7636 65.6382C82.7636 60.5517 78.6402 56.4282 73.5536 56.4282C68.4671 56.4282 64.3436 60.5517 64.3436 65.6382C64.3436 70.7248 68.4671 74.8482 73.5536 74.8482Z" fill="url(#paint13_radial_91_5187)"/>
<path d="M92.2436 87.0264C97.3302 87.0264 101.454 82.903 101.454 77.8164C101.454 72.7299 97.3302 68.6064 92.2436 68.6064C87.1571 68.6064 83.0336 72.7299 83.0336 77.8164C83.0336 82.903 87.1571 87.0264 92.2436 87.0264Z" fill="url(#paint14_radial_91_5187)"/>
<path d="M85.051 62.7152C90.1375 62.7152 94.261 58.5917 94.261 53.5052C94.261 48.4186 90.1375 44.2952 85.051 44.2952C79.9645 44.2952 75.841 48.4186 75.841 53.5052C75.841 58.5917 79.9645 62.7152 85.051 62.7152Z" fill="url(#paint15_radial_91_5187)"/>
<path d="M101.095 74.825C106.181 74.825 110.305 70.7016 110.305 65.615C110.305 60.5285 106.181 56.405 101.095 56.405C96.0083 56.405 91.8848 60.5285 91.8848 65.615C91.8848 70.7016 96.0083 74.825 101.095 74.825Z" fill="url(#paint16_radial_91_5187)"/>
<path d="M88.2123 71.7176C93.2989 71.7176 97.4223 67.5941 97.4223 62.5076C97.4223 57.4211 93.2989 53.2976 88.2123 53.2976C83.1258 53.2976 79.0023 57.4211 79.0023 62.5076C79.0023 67.5941 83.1258 71.7176 88.2123 71.7176Z" fill="url(#paint17_radial_91_5187)"/>
<path d="M108.653 55.9415C113.74 55.9415 117.863 51.818 117.863 46.7315C117.863 41.6449 113.74 37.5215 108.653 37.5215C103.567 37.5215 99.4434 41.6449 99.4434 46.7315C99.4434 51.818 103.567 55.9415 108.653 55.9415Z" fill="url(#paint18_radial_91_5187)"/>
<path d="M96.5768 50.606C101.663 50.606 105.787 46.4826 105.787 41.396C105.787 36.3095 101.663 32.186 96.5768 32.186C91.4903 32.186 87.3668 36.3095 87.3668 41.396C87.3668 46.4826 91.4903 50.606 96.5768 50.606Z" fill="url(#paint19_radial_91_5187)"/>
<path d="M109.946 62.6236C115.032 62.6236 119.156 58.5002 119.156 53.4136C119.156 48.3271 115.032 44.2036 109.946 44.2036C104.859 44.2036 100.736 48.3271 100.736 53.4136C100.736 58.5002 104.859 62.6236 109.946 62.6236Z" fill="url(#paint20_radial_91_5187)"/>
<path d="M96.4258 58.9569C101.512 58.9569 105.636 54.8334 105.636 49.7469C105.636 44.6603 101.512 40.5369 96.4258 40.5369C91.3393 40.5369 87.2158 44.6603 87.2158 49.7469C87.2158 54.8334 91.3393 58.9569 96.4258 58.9569Z" fill="url(#paint21_radial_91_5187)"/>
<path d="M120.983 44.1356C126.07 44.1356 130.193 40.0121 130.193 34.9256C130.193 29.839 126.07 25.7156 120.983 25.7156C115.896 25.7156 111.773 29.839 111.773 34.9256C111.773 40.0121 115.896 44.1356 120.983 44.1356Z" fill="url(#paint22_radial_91_5187)"/>
<path d="M108.018 38.4256C113.104 38.4256 117.228 34.3022 117.228 29.2156C117.228 24.1291 113.104 20.0056 108.018 20.0056C102.931 20.0056 98.8075 24.1291 98.8075 29.2156C98.8075 34.3022 102.931 38.4256 108.018 38.4256Z" fill="url(#paint23_radial_91_5187)"/>
<path d="M118.946 50.2457C124.033 50.2457 128.156 46.1222 128.156 41.0357C128.156 35.9491 124.033 31.8257 118.946 31.8257C113.859 31.8257 109.736 35.9491 109.736 41.0357C109.736 46.1222 113.859 50.2457 118.946 50.2457Z" fill="url(#paint24_radial_91_5187)"/>
<path d="M79.9995 84.4774C85.0861 84.4774 89.2095 80.3539 89.2095 75.2674C89.2095 70.1808 85.0861 66.0574 79.9995 66.0574C74.913 66.0574 70.7895 70.1808 70.7895 75.2674C70.7895 80.3539 74.913 84.4774 79.9995 84.4774Z" fill="url(#paint25_radial_91_5187)"/>
<path d="M105.863 44.7332C110.949 44.7332 115.073 40.6098 115.073 35.5232C115.073 30.4367 110.949 26.3132 105.863 26.3132C100.776 26.3132 96.6525 30.4367 96.6525 35.5232C96.6525 40.6098 100.776 44.7332 105.863 44.7332Z" fill="url(#paint26_radial_91_5187)"/>
<path d="M114.151 156.398C119.238 156.398 123.361 152.274 123.361 147.188C123.361 142.101 119.238 137.978 114.151 137.978C109.065 137.978 104.941 142.101 104.941 147.188C104.941 152.274 109.065 156.398 114.151 156.398Z" fill="url(#paint27_radial_91_5187)"/>
<path d="M131.894 142.877C136.981 142.877 141.104 138.754 141.104 133.667C141.104 128.58 136.981 124.457 131.894 124.457C126.808 124.457 122.684 128.58 122.684 133.667C122.684 138.754 126.808 142.877 131.894 142.877Z" fill="url(#paint28_radial_91_5187)"/>
<path d="M106.579 141.496C111.666 141.496 115.789 137.373 115.789 132.286C115.789 127.2 111.666 123.076 106.579 123.076C101.492 123.076 97.369 127.2 97.369 132.286C97.369 137.373 101.492 141.496 106.579 141.496Z" fill="url(#paint29_radial_91_5187)"/>
<path d="M123.37 130.445C128.456 130.445 132.58 126.322 132.58 121.235C132.58 116.149 128.456 112.025 123.37 112.025C118.283 112.025 114.16 116.149 114.16 121.235C114.16 126.322 118.283 130.445 123.37 130.445Z" fill="url(#paint30_radial_91_5187)"/>
<path d="M108.117 116.989C113.203 116.989 117.327 112.866 117.327 107.779C117.327 102.693 113.203 98.5691 108.117 98.5691C103.03 98.5691 98.9066 102.693 98.9066 107.779C98.9066 112.866 103.03 116.989 108.117 116.989Z" fill="url(#paint31_radial_91_5187)"/>
<path d="M99.0386 126.576C104.125 126.576 108.249 122.452 108.249 117.366C108.249 112.279 104.125 108.156 99.0386 108.156C93.9521 108.156 89.8286 112.279 89.8286 117.366C89.8286 122.452 93.9521 126.576 99.0386 126.576Z" fill="url(#paint32_radial_91_5187)"/>
<path d="M114.845 118.014C119.932 118.014 124.055 113.89 124.055 108.804C124.055 103.717 119.932 99.5935 114.845 99.5935C109.758 99.5935 105.635 103.717 105.635 108.804C105.635 113.89 109.758 118.014 114.845 118.014Z" fill="url(#paint33_radial_91_5187)"/>
<path d="M101.132 101.413C106.218 101.413 110.342 97.2897 110.342 92.2032C110.342 87.1166 106.218 82.9932 101.132 82.9932C96.045 82.9932 91.9215 87.1166 91.9215 92.2032C91.9215 97.2897 96.045 101.413 101.132 101.413Z" fill="url(#paint34_radial_91_5187)"/>
<path d="M91.4027 111.712C96.4893 111.712 100.613 107.588 100.613 102.502C100.613 97.415 96.4893 93.2915 91.4027 93.2915C86.3162 93.2915 82.1927 97.415 82.1927 102.502C82.1927 107.588 86.3162 111.712 91.4027 111.712Z" fill="url(#paint35_radial_91_5187)"/>
<path d="M125.385 153.556C130.472 153.556 134.595 149.433 134.595 144.346C134.595 139.26 130.472 135.136 125.385 135.136C120.298 135.136 116.175 139.26 116.175 144.346C116.175 149.433 120.298 153.556 125.385 153.556Z" fill="url(#paint36_radial_91_5187)"/>
<path d="M96.6215 115.858C101.708 115.858 105.831 111.734 105.831 106.648C105.831 101.561 101.708 97.4377 96.6215 97.4377C91.535 97.4377 87.4115 101.561 87.4115 106.648C87.4115 111.734 91.535 115.858 96.6215 115.858Z" fill="url(#paint37_radial_91_5187)"/>
<path d="M9.86991 119.701C14.9565 119.701 19.0799 115.578 19.0799 110.491C19.0799 105.405 14.9565 101.281 9.86991 101.281C4.78337 101.281 0.659912 105.405 0.659912 110.491C0.659912 115.578 4.78337 119.701 9.86991 119.701Z" fill="url(#paint38_radial_91_5187)"/>
<path d="M30.1138 129.072C35.2004 129.072 39.3238 124.949 39.3238 119.862C39.3238 114.776 35.2004 110.652 30.1138 110.652C25.0273 110.652 20.9038 114.776 20.9038 119.862C20.9038 124.949 25.0273 129.072 30.1138 129.072Z" fill="url(#paint39_radial_91_5187)"/>
<path d="M19.5077 106.045C24.5942 106.045 28.7177 101.921 28.7177 96.8345C28.7177 91.748 24.5942 87.6245 19.5077 87.6245C14.4212 87.6245 10.2977 91.748 10.2977 96.8345C10.2977 101.921 14.4212 106.045 19.5077 106.045Z" fill="url(#paint40_radial_91_5187)"/>
<path d="M37.1228 115.727C42.2094 115.727 46.3328 111.604 46.3328 106.517C46.3328 101.431 42.2094 97.3071 37.1228 97.3071C32.0363 97.3071 27.9128 101.431 27.9128 106.517C27.9128 111.604 32.0363 115.727 37.1228 115.727Z" fill="url(#paint41_radial_91_5187)"/>
<path d="M41.8941 95.9544C46.9807 95.9544 51.1041 91.831 51.1041 86.7444C51.1041 81.6579 46.9807 77.5344 41.8941 77.5344C36.8076 77.5344 32.6841 81.6579 32.6841 86.7444C32.6841 91.831 36.8076 95.9544 41.8941 95.9544Z" fill="url(#paint42_radial_91_5187)"/>
<path d="M29.1769 92.4068C34.2635 92.4068 38.3869 88.2834 38.3869 83.1968C38.3869 78.1103 34.2635 73.9868 29.1769 73.9868C24.0904 73.9868 19.9669 78.1103 19.9669 83.1968C19.9669 88.2834 24.0904 92.4068 29.1769 92.4068Z" fill="url(#paint43_radial_91_5187)"/>
<path d="M44.1319 102.382C49.2184 102.382 53.3419 98.2587 53.3419 93.1722C53.3419 88.0856 49.2184 83.9622 44.1319 83.9622C39.0454 83.9622 34.9219 88.0856 34.9219 93.1722C34.9219 98.2587 39.0454 102.382 44.1319 102.382Z" fill="url(#paint44_radial_91_5187)"/>
<path d="M30.2255 100.693C35.312 100.693 39.4355 96.5695 39.4355 91.4829C39.4355 86.3964 35.312 82.2729 30.2255 82.2729C25.139 82.2729 21.0155 86.3964 21.0155 91.4829C21.0155 96.5695 25.139 100.693 30.2255 100.693Z" fill="url(#paint45_radial_91_5187)"/>
<path d="M52.4022 82.5018C57.4887 82.5018 61.6122 78.3783 61.6122 73.2918C61.6122 68.2052 57.4887 64.0818 52.4022 64.0818C47.3157 64.0818 43.1922 68.2052 43.1922 73.2918C43.1922 78.3783 47.3157 82.5018 52.4022 82.5018Z" fill="url(#paint46_radial_91_5187)"/>
<path d="M38.7517 78.7113C43.8383 78.7113 47.9617 74.5878 47.9617 69.5013C47.9617 64.4147 43.8383 60.2913 38.7517 60.2913C33.6652 60.2913 29.5417 64.4147 29.5417 69.5013C29.5417 74.5878 33.6652 78.7113 38.7517 78.7113Z" fill="url(#paint47_radial_91_5187)"/>
<path d="M51.263 88.8409C56.3496 88.8409 60.473 84.7174 60.473 79.6309C60.473 74.5444 56.3496 70.4209 51.263 70.4209C46.1765 70.4209 42.053 74.5444 42.053 79.6309C42.053 84.7174 46.1765 88.8409 51.263 88.8409Z" fill="url(#paint48_radial_91_5187)"/>
<path d="M17.6307 128.306C22.7173 128.306 26.8407 124.183 26.8407 119.096C26.8407 114.01 22.7173 109.886 17.6307 109.886C12.5442 109.886 8.42072 114.01 8.42072 119.096C8.42072 124.183 12.5442 128.306 17.6307 128.306Z" fill="url(#paint49_radial_91_5187)"/>
<path d="M37.524 85.2625C42.6106 85.2625 46.734 81.1391 46.734 76.0525C46.734 70.966 42.6106 66.8425 37.524 66.8425C32.4375 66.8425 28.314 70.966 28.314 76.0525C28.314 81.1391 32.4375 85.2625 37.524 85.2625Z" fill="url(#paint50_radial_91_5187)"/>
<path d="M62.2478 72.503C67.3344 72.503 71.4578 68.3795 71.4578 63.293C71.4578 58.2065 67.3344 54.083 62.2478 54.083C57.1613 54.083 53.0378 58.2065 53.0378 63.293C53.0378 68.3795 57.1613 72.503 62.2478 72.503Z" fill="url(#paint51_radial_91_5187)"/>
<path d="M84.3978 69.856C89.4843 69.856 93.6078 65.7326 93.6078 60.646C93.6078 55.5595 89.4843 51.436 84.3978 51.436C79.3113 51.436 75.1878 55.5595 75.1878 60.646C75.1878 65.7326 79.3113 69.856 84.3978 69.856Z" fill="url(#paint52_radial_91_5187)"/>
<path d="M63.2848 55.8199C68.3713 55.8199 72.4948 51.6964 72.4948 46.6099C72.4948 41.5234 68.3713 37.3999 63.2848 37.3999C58.1983 37.3999 54.0748 41.5234 54.0748 46.6099C54.0748 51.6964 58.1983 55.8199 63.2848 55.8199Z" fill="url(#paint53_radial_91_5187)"/>
<path d="M83.3608 54.818C88.4474 54.818 92.5708 50.6945 92.5708 45.608C92.5708 40.5214 88.4474 36.3979 83.3608 36.3979C78.2743 36.3979 74.1508 40.5214 74.1508 45.608C74.1508 50.6945 78.2743 54.818 83.3608 54.818Z" fill="url(#paint54_radial_91_5187)"/>
<path d="M71.4848 60.6978C76.5714 60.6978 80.6948 56.5744 80.6948 51.4878C80.6948 46.4013 76.5714 42.2778 71.4848 42.2778C66.3983 42.2778 62.2748 46.4013 62.2748 51.4878C62.2748 56.5744 66.3983 60.6978 71.4848 60.6978Z" fill="url(#paint55_radial_91_5187)"/>
<path d="M77.0458 35.483C82.1324 35.483 86.2558 31.3595 86.2558 26.273C86.2558 21.1864 82.1324 17.063 77.0458 17.063C71.9593 17.063 67.8358 21.1864 67.8358 26.273C67.8358 31.3595 71.9593 35.483 77.0458 35.483Z" fill="url(#paint56_radial_91_5187)"/>
<path d="M64.3588 39.137C69.4453 39.137 73.5688 35.0136 73.5688 29.927C73.5688 24.8405 69.4453 20.717 64.3588 20.717C59.2723 20.717 55.1488 24.8405 55.1488 29.927C55.1488 35.0136 59.2723 39.137 64.3588 39.137Z" fill="url(#paint57_radial_91_5187)"/>
<path d="M82.3238 39.7799C87.4104 39.7799 91.5338 35.6564 91.5338 30.5699C91.5338 25.4833 87.4104 21.3599 82.3238 21.3599C77.2373 21.3599 73.1138 25.4833 73.1138 30.5699C73.1138 35.6564 77.2373 39.7799 82.3238 39.7799Z" fill="url(#paint58_radial_91_5187)"/>
<path d="M69.5998 45.64C74.6863 45.64 78.8098 41.5165 78.8098 36.43C78.8098 31.3434 74.6863 27.22 69.5998 27.22C64.5133 27.22 60.3898 31.3434 60.3898 36.43C60.3898 41.5165 64.5133 45.64 69.5998 45.64Z" fill="url(#paint59_radial_91_5187)"/>
<path d="M78.9308 18.5169C84.0174 18.5169 88.1408 14.3935 88.1408 9.30692C88.1408 4.22038 84.0174 0.0969238 78.9308 0.0969238C73.8443 0.0969238 69.7208 4.22038 69.7208 9.30692C69.7208 14.3935 73.8443 18.5169 78.9308 18.5169Z" fill="url(#paint60_radial_91_5187)"/>
<path d="M65.3218 22.4539C70.4084 22.4539 74.5318 18.3305 74.5318 13.2439C74.5318 8.15739 70.4084 4.03394 65.3218 4.03394C60.2353 4.03394 56.1118 8.15739 56.1118 13.2439C56.1118 18.3305 60.2353 22.4539 65.3218 22.4539Z" fill="url(#paint61_radial_91_5187)"/>
<path d="M81.2878 24.5108C86.3744 24.5108 90.4978 20.3874 90.4978 15.3008C90.4978 10.2143 86.3744 6.09082 81.2878 6.09082C76.2013 6.09082 72.0778 10.2143 72.0778 15.3008C72.0778 20.3874 76.2013 24.5108 81.2878 24.5108Z" fill="url(#paint62_radial_91_5187)"/>
<path d="M73.3698 75.755C78.4564 75.755 82.5798 71.6315 82.5798 66.545C82.5798 61.4584 78.4564 57.335 73.3698 57.335C68.2833 57.335 64.1598 61.4584 64.1598 66.545C64.1598 71.6315 68.2833 75.755 73.3698 75.755Z" fill="url(#paint63_radial_91_5187)"/>
<path d="M67.7148 28.6749C72.8014 28.6749 76.9248 24.5514 76.9248 19.4649C76.9248 14.3783 72.8014 10.2549 67.7148 10.2549C62.6283 10.2549 58.5048 14.3783 58.5048 19.4649C58.5048 24.5514 62.6283 28.6749 67.7148 28.6749Z" fill="url(#paint64_radial_91_5187)"/>
<path d="M57.9456 130.057C63.0321 130.057 67.1556 125.933 67.1556 120.847C67.1556 115.76 63.0321 111.637 57.9456 111.637C52.8591 111.637 48.7356 115.76 48.7356 120.847C48.7356 125.933 52.8591 130.057 57.9456 130.057Z" fill="url(#paint65_radial_91_5187)"/>
<path d="M76.7385 142.076C81.825 142.076 85.9485 137.952 85.9485 132.866C85.9485 127.779 81.825 123.656 76.7385 123.656C71.652 123.656 67.5285 127.779 67.5285 132.866C67.5285 137.952 71.652 142.076 76.7385 142.076Z" fill="url(#paint66_radial_91_5187)"/>
<path d="M69.3395 117.827C74.4261 117.827 78.5495 113.703 78.5495 108.617C78.5495 103.53 74.4261 99.4067 69.3395 99.4067C64.253 99.4067 60.1295 103.53 60.1295 108.617C60.1295 113.703 64.253 117.827 69.3395 117.827Z" fill="url(#paint67_radial_91_5187)"/>
<path d="M85.4856 129.8C90.5722 129.8 94.6956 125.676 94.6956 120.59C94.6956 115.503 90.5722 111.38 85.4856 111.38C80.3991 111.38 76.2756 115.503 76.2756 120.59C76.2756 125.676 80.3991 129.8 85.4856 129.8Z" fill="url(#paint68_radial_91_5187)"/>
<path d="M72.5772 126.802C77.6638 126.802 81.7872 122.678 81.7872 117.592C81.7872 112.505 77.6638 108.382 72.5772 108.382C67.4907 108.382 63.3672 112.505 63.3672 117.592C63.3672 122.678 67.4907 126.802 72.5772 126.802Z" fill="url(#paint69_radial_91_5187)"/>
<path d="M92.8835 110.853C97.9701 110.853 102.094 106.729 102.094 101.643C102.094 96.5561 97.9701 92.4326 92.8835 92.4326C87.797 92.4326 83.6735 96.5561 83.6735 101.643C83.6735 106.729 87.797 110.853 92.8835 110.853Z" fill="url(#paint70_radial_91_5187)"/>
<path d="M80.762 105.62C85.8485 105.62 89.972 101.497 89.972 96.41C89.972 91.3234 85.8485 87.2 80.762 87.2C75.6755 87.2 71.552 91.3234 71.552 96.41C71.552 101.497 75.6755 105.62 80.762 105.62Z" fill="url(#paint71_radial_91_5187)"/>
<path d="M80.6819 113.972C85.7685 113.972 89.8919 109.848 89.8919 104.762C89.8919 99.675 85.7685 95.5515 80.6819 95.5515C75.5954 95.5515 71.4719 99.675 71.4719 104.762C71.4719 109.848 75.5954 113.972 80.6819 113.972Z" fill="url(#paint72_radial_91_5187)"/>
<path d="M105.112 98.9422C110.199 98.9422 114.322 94.8188 114.322 89.7322C114.322 84.6457 110.199 80.5222 105.112 80.5222C100.026 80.5222 95.9022 84.6457 95.9022 89.7322C95.9022 94.8188 100.026 98.9422 105.112 98.9422Z" fill="url(#paint73_radial_91_5187)"/>
<path d="M92.0987 93.3426C97.1853 93.3426 101.309 89.2191 101.309 84.1326C101.309 79.0461 97.1853 74.9226 92.0987 74.9226C87.0122 74.9226 82.8887 79.0461 82.8887 84.1326C82.8887 89.2191 87.0122 93.3426 92.0987 93.3426Z" fill="url(#paint74_radial_91_5187)"/>
<path d="M103.127 105.069C108.214 105.069 112.337 100.946 112.337 95.8594C112.337 90.7729 108.214 86.6494 103.127 86.6494C98.0408 86.6494 93.9173 90.7729 93.9173 95.8594C93.9173 100.946 98.0408 105.069 103.127 105.069Z" fill="url(#paint75_radial_91_5187)"/>
<path d="M64.4732 139.631C69.5598 139.631 73.6832 135.507 73.6832 130.421C73.6832 125.334 69.5598 121.211 64.4732 121.211C59.3867 121.211 55.2632 125.334 55.2632 130.421C55.2632 135.507 59.3867 139.631 64.4732 139.631Z" fill="url(#paint76_radial_91_5187)"/>
<path d="M89.9974 99.6683C95.084 99.6683 99.2074 95.5448 99.2074 90.4583C99.2074 85.3717 95.084 81.2483 89.9974 81.2483C84.9109 81.2483 80.7874 85.3717 80.7874 90.4583C80.7874 95.5448 84.9109 99.6683 89.9974 99.6683Z" fill="url(#paint77_radial_91_5187)"/>
<path d="M60.9445 109.722C66.031 109.722 70.1545 105.598 70.1545 100.512C70.1545 95.425 66.031 91.3015 60.9445 91.3015C55.858 91.3015 51.7345 95.425 51.7345 100.512C51.7345 105.598 55.858 109.722 60.9445 109.722Z" fill="url(#paint78_radial_91_5187)"/>
<path d="M75.4369 92.7628C80.5235 92.7628 84.6469 88.6393 84.6469 83.5528C84.6469 78.4662 80.5235 74.3428 75.4369 74.3428C70.3504 74.3428 66.2269 78.4662 66.2269 83.5528C66.2269 88.6393 70.3504 92.7628 75.4369 92.7628Z" fill="url(#paint79_radial_91_5187)"/>
<path d="M50.3998 96.752C55.4864 96.752 59.6098 92.6286 59.6098 87.542C59.6098 82.4555 55.4864 78.332 50.3998 78.332C45.3133 78.332 41.1898 82.4555 41.1898 87.542C41.1898 92.6286 45.3133 96.752 50.3998 96.752Z" fill="url(#paint80_radial_91_5187)"/>
<path d="M64.4821 82.4085C69.5686 82.4085 73.6921 78.2851 73.6921 73.1985C73.6921 68.112 69.5686 63.9885 64.4821 63.9885C59.3956 63.9885 55.2721 68.112 55.2721 73.1985C55.2721 78.2851 59.3956 82.4085 64.4821 82.4085Z" fill="url(#paint81_radial_91_5187)"/>
<path d="M46.7342 72.472C51.8207 72.472 55.9442 68.3485 55.9442 63.262C55.9442 58.1755 51.8207 54.052 46.7342 54.052C41.6477 54.052 37.5242 58.1755 37.5242 63.262C37.5242 68.3485 41.6477 72.472 46.7342 72.472Z" fill="url(#paint82_radial_91_5187)"/>
<path d="M39.8823 83.7574C44.9688 83.7574 49.0923 79.6339 49.0923 74.5474C49.0923 69.4609 44.9688 65.3374 39.8823 65.3374C34.7958 65.3374 30.6723 69.4609 30.6723 74.5474C30.6723 79.6339 34.7958 83.7574 39.8823 83.7574Z" fill="url(#paint83_radial_91_5187)"/>
<path d="M53.5274 72.0543C58.614 72.0543 62.7374 67.9308 62.7374 62.8443C62.7374 57.7577 58.614 53.6343 53.5274 53.6343C48.4409 53.6343 44.3174 57.7577 44.3174 62.8443C44.3174 67.9308 48.4409 72.0543 53.5274 72.0543Z" fill="url(#paint84_radial_91_5187)"/>
<path d="M36.6213 58.7198C41.7079 58.7198 45.8313 54.5963 45.8313 49.5098C45.8313 44.4233 41.7079 40.2998 36.6213 40.2998C31.5348 40.2998 27.4113 44.4233 27.4113 49.5098C27.4113 54.5963 31.5348 58.7198 36.6213 58.7198Z" fill="url(#paint85_radial_91_5187)"/>
<path d="M29.2832 70.8382C34.3698 70.8382 38.4932 66.7148 38.4932 61.6282C38.4932 56.5417 34.3698 52.4182 29.2832 52.4182C24.1967 52.4182 20.0732 56.5417 20.0732 61.6282C20.0732 66.7148 24.1967 70.8382 29.2832 70.8382Z" fill="url(#paint86_radial_91_5187)"/>
<path d="M42.4169 61.5294C47.5035 61.5294 51.6269 57.4059 51.6269 52.3194C51.6269 47.2328 47.5035 43.1094 42.4169 43.1094C37.3304 43.1094 33.2069 47.2328 33.2069 52.3194C33.2069 57.4059 37.3304 61.5294 42.4169 61.5294Z" fill="url(#paint87_radial_91_5187)"/>
<path d="M71.3263 104.575C76.4128 104.575 80.5363 100.451 80.5363 95.3645C80.5363 90.278 76.4128 86.1545 71.3263 86.1545C66.2398 86.1545 62.1163 90.278 62.1163 95.3645C62.1163 100.451 66.2398 104.575 71.3263 104.575Z" fill="url(#paint88_radial_91_5187)"/>
<path d="M116.12 141.538C121.207 141.538 125.33 137.415 125.33 132.328C125.33 127.242 121.207 123.118 116.12 123.118C111.034 123.118 106.91 127.242 106.91 132.328C106.91 137.415 111.034 141.538 116.12 141.538Z" fill="url(#paint89_radial_91_5187)"/>
<path d="M23.9278 114.5C29.0143 114.5 33.1378 110.377 33.1378 105.29C33.1378 100.204 29.0143 96.0801 23.9278 96.0801C18.8413 96.0801 14.7178 100.204 14.7178 105.29C14.7178 110.377 18.8413 114.5 23.9278 114.5Z" fill="url(#paint90_radial_91_5187)"/>
<path d="M139.303 93.7784C144.389 93.7784 148.513 89.6549 148.513 84.5684C148.513 79.4819 144.389 75.3584 139.303 75.3584C134.216 75.3584 130.093 79.4819 130.093 84.5684C130.093 89.6549 134.216 93.7784 139.303 93.7784Z" fill="url(#paint91_radial_91_5187)"/>
<path d="M59.7352 94.7811C64.8217 94.7811 68.9452 90.6576 68.9452 85.5711C68.9452 80.4845 64.8217 76.3611 59.7352 76.3611C54.6487 76.3611 50.5252 80.4845 50.5252 85.5711C50.5252 90.6576 54.6487 94.7811 59.7352 94.7811Z" fill="url(#paint92_radial_91_5187)"/>
<path d="M48.1434 84.9869C53.23 84.9869 57.3534 80.8634 57.3534 75.7769C57.3534 70.6904 53.23 66.5669 48.1434 66.5669C43.0569 66.5669 38.9334 70.6904 38.9334 75.7769C38.9334 80.8634 43.0569 84.9869 48.1434 84.9869Z" fill="url(#paint93_radial_91_5187)"/>
<path d="M35.2591 73.7906C40.3456 73.7906 44.4691 69.6671 44.4691 64.5806C44.4691 59.4941 40.3456 55.3706 35.2591 55.3706C30.1726 55.3706 26.0491 59.4941 26.0491 64.5806C26.0491 69.6671 30.1726 73.7906 35.2591 73.7906Z" fill="url(#paint94_radial_91_5187)"/>
<path d="M106.855 129.52C111.941 129.52 116.065 125.396 116.065 120.31C116.065 115.223 111.941 111.1 106.855 111.1C101.768 111.1 97.6447 115.223 97.6447 120.31C97.6447 125.396 101.768 129.52 106.855 129.52Z" fill="url(#paint95_radial_91_5187)"/>
<path d="M94.2327 117.524C99.3192 117.524 103.443 113.4 103.443 108.314C103.443 103.227 99.3192 99.1035 94.2327 99.1035C89.1462 99.1035 85.0227 103.227 85.0227 108.314C85.0227 113.4 89.1462 117.524 94.2327 117.524Z" fill="url(#paint96_radial_91_5187)"/>
<defs>
<radialGradient id="paint0_radial_91_5187" cx="0" cy="0" r="1" gradientUnits="userSpaceOnUse" gradientTransform="translate(147.192 89.156) rotate(-87.7994) scale(9.21034)">
<stop stop-color="#FFD5D5"/>
<stop offset="1" stop-color="#FF0000"/>
</radialGradient>
<radialGradient id="paint1_radial_91_5187" cx="0" cy="0" r="1" gradientUnits="userSpaceOnUse" gradientTransform="translate(145.399 66.9206) rotate(-87.7994) scale(9.21035 9.21035)">
<stop stop-color="#FFD5D5"/>
<stop offset="1" stop-color="#FF0000"/>
</radialGradient>
<radialGradient id="paint2_radial_91_5187" cx="0" cy="0" r="1" gradientUnits="userSpaceOnUse" gradientTransform="translate(130.561 87.4785) rotate(-87.7994) scale(9.21035)">
<stop stop-color="#FFD5D5"/>
<stop offset="1" stop-color="#FF0000"/>
</radialGradient>
<radialGradient id="paint3_radial_91_5187" cx="0" cy="0" r="1" gradientUnits="userSpaceOnUse" gradientTransform="translate(130.332 67.3786) rotate(-87.7994) scale(9.21035 9.21035)">
<stop stop-color="#FFD5D5"/>
<stop offset="1" stop-color="#FF0000"/>
</radialGradient>
<radialGradient id="paint4_radial_91_5187" cx="0" cy="0" r="1" gradientUnits="userSpaceOnUse" gradientTransform="translate(110.768 72.9458) rotate(-87.7994) scale(9.21034)">
<stop stop-color="#FFD5D5"/>
<stop offset="1" stop-color="#FF0000"/>
</radialGradient>
<radialGradient id="paint5_radial_91_5187" cx="0" cy="0" r="1" gradientUnits="userSpaceOnUse" gradientTransform="translate(113.932 85.7639) rotate(-87.7994) scale(9.21034 9.21035)">
<stop stop-color="#FFD5D5"/>
<stop offset="1" stop-color="#FF0000"/>
</radialGradient>
<radialGradient id="paint6_radial_91_5187" cx="0" cy="0" r="1" gradientUnits="userSpaceOnUse" gradientTransform="translate(115.265 67.8369) rotate(-87.7994) scale(9.21035 9.21034)">
<stop stop-color="#FFD5D5"/>
<stop offset="1" stop-color="#FF0000"/>
</radialGradient>
<radialGradient id="paint7_radial_91_5187" cx="0" cy="0" r="1" gradientUnits="userSpaceOnUse" gradientTransform="translate(120.631 80.7768) rotate(-87.7994) scale(9.21034 9.21035)">
<stop stop-color="#FFD5D5"/>
<stop offset="1" stop-color="#FF0000"/>
</radialGradient>
<radialGradient id="paint8_radial_91_5187" cx="0" cy="0" r="1" gradientUnits="userSpaceOnUse" gradientTransform="translate(93.8873 70.4099) rotate(-87.7994) scale(9.21034)">
<stop stop-color="#FFD5D5"/>
<stop offset="1" stop-color="#FF0000"/>
</radialGradient>
<radialGradient id="paint9_radial_91_5187" cx="0" cy="0" r="1" gradientUnits="userSpaceOnUse" gradientTransform="translate(97.2982 84.1601) rotate(-87.7994) scale(9.21034)">
<stop stop-color="#FFD5D5"/>
<stop offset="1" stop-color="#FF0000"/>
</radialGradient>
<radialGradient id="paint10_radial_91_5187" cx="0" cy="0" r="1" gradientUnits="userSpaceOnUse" gradientTransform="translate(99.9675 68.2851) rotate(-87.7994) scale(9.21034)">
<stop stop-color="#FFD5D5"/>
<stop offset="1" stop-color="#FF0000"/>
</radialGradient>
<radialGradient id="paint11_radial_91_5187" cx="0" cy="0" r="1" gradientUnits="userSpaceOnUse" gradientTransform="translate(150.869 78.1672) rotate(-87.7994) scale(9.21034)">
<stop stop-color="#FFD5D5"/>
<stop offset="1" stop-color="#FF0000"/>
</radialGradient>
<radialGradient id="paint12_radial_91_5187" cx="0" cy="0" r="1" gradientUnits="userSpaceOnUse" gradientTransform="translate(103.607 82.008) rotate(-87.7994) scale(9.21034)">
<stop stop-color="#FFD5D5"/>
<stop offset="1" stop-color="#FF0000"/>
</radialGradient>
<radialGradient id="paint13_radial_91_5187" cx="0" cy="0" r="1" gradientUnits="userSpaceOnUse" gradientTransform="translate(70.0017 60.5417) rotate(-87.7994) scale(9.21034 9.21035)">
<stop stop-color="#FFD5D5"/>
<stop offset="1" stop-color="#FF0000"/>
</radialGradient>
<radialGradient id="paint14_radial_91_5187" cx="0" cy="0" r="1" gradientUnits="userSpaceOnUse" gradientTransform="translate(88.6917 72.7199) rotate(-87.7994) scale(9.21034)">
<stop stop-color="#FFD5D5"/>
<stop offset="1" stop-color="#FF0000"/>
</radialGradient>
<radialGradient id="paint15_radial_91_5187" cx="0" cy="0" r="1" gradientUnits="userSpaceOnUse" gradientTransform="translate(81.4991 48.4087) rotate(-87.7994) scale(9.21035 9.21034)">
<stop stop-color="#FFD5D5"/>
<stop offset="1" stop-color="#FF0000"/>
</radialGradient>
<radialGradient id="paint16_radial_91_5187" cx="0" cy="0" r="1" gradientUnits="userSpaceOnUse" gradientTransform="translate(97.5429 60.5185) rotate(-87.7994) scale(9.21035 9.21035)">
<stop stop-color="#FFD5D5"/>
<stop offset="1" stop-color="#FF0000"/>
</radialGradient>
<radialGradient id="paint17_radial_91_5187" cx="0" cy="0" r="1" gradientUnits="userSpaceOnUse" gradientTransform="translate(84.6604 57.4111) rotate(-87.7994) scale(9.21034 9.21035)">
<stop stop-color="#FFD5D5"/>
<stop offset="1" stop-color="#FF0000"/>
</radialGradient>
<radialGradient id="paint18_radial_91_5187" cx="0" cy="0" r="1" gradientUnits="userSpaceOnUse" gradientTransform="translate(105.101 41.635) rotate(-87.7994) scale(9.21035 9.21035)">
<stop stop-color="#FFD5D5"/>
<stop offset="1" stop-color="#FF0000"/>
</radialGradient>
<radialGradient id="paint19_radial_91_5187" cx="0" cy="0" r="1" gradientUnits="userSpaceOnUse" gradientTransform="translate(93.0249 36.2995) rotate(-87.7994) scale(9.21035 9.21034)">
<stop stop-color="#FFD5D5"/>
<stop offset="1" stop-color="#FF0000"/>
</radialGradient>
<radialGradient id="paint20_radial_91_5187" cx="0" cy="0" r="1" gradientUnits="userSpaceOnUse" gradientTransform="translate(106.394 48.3171) rotate(-87.7994) scale(9.21034)">
<stop stop-color="#FFD5D5"/>
<stop offset="1" stop-color="#FF0000"/>
</radialGradient>
<radialGradient id="paint21_radial_91_5187" cx="0" cy="0" r="1" gradientUnits="userSpaceOnUse" gradientTransform="translate(92.8739 44.6504) rotate(-87.7994) scale(9.21035 9.21035)">
<stop stop-color="#FFD5D5"/>
<stop offset="1" stop-color="#FF0000"/>
</radialGradient>
<radialGradient id="paint22_radial_91_5187" cx="0" cy="0" r="1" gradientUnits="userSpaceOnUse" gradientTransform="translate(117.431 29.8291) rotate(-87.7994) scale(9.21035 9.21034)">
<stop stop-color="#FFD5D5"/>
<stop offset="1" stop-color="#FF0000"/>
</radialGradient>
<radialGradient id="paint23_radial_91_5187" cx="0" cy="0" r="1" gradientUnits="userSpaceOnUse" gradientTransform="translate(104.466 24.1191) rotate(-87.7994) scale(9.21035)">
<stop stop-color="#FFD5D5"/>
<stop offset="1" stop-color="#FF0000"/>
</radialGradient>
<radialGradient id="paint24_radial_91_5187" cx="0" cy="0" r="1" gradientUnits="userSpaceOnUse" gradientTransform="translate(115.394 35.9392) rotate(-87.7994) scale(9.21035)">
<stop stop-color="#FFD5D5"/>
<stop offset="1" stop-color="#FF0000"/>
</radialGradient>
<radialGradient id="paint25_radial_91_5187" cx="0" cy="0" r="1" gradientUnits="userSpaceOnUse" gradientTransform="translate(76.4476 70.1709) rotate(-87.7994) scale(9.21034 9.21035)">
<stop stop-color="#FFD5D5"/>
<stop offset="1" stop-color="#FF0000"/>
</radialGradient>
<radialGradient id="paint26_radial_91_5187" cx="0" cy="0" r="1" gradientUnits="userSpaceOnUse" gradientTransform="translate(102.311 30.4267) rotate(-87.7994) scale(9.21035 9.21035)">
<stop stop-color="#FFD5D5"/>
<stop offset="1" stop-color="#FF0000"/>
</radialGradient>
<radialGradient id="paint27_radial_91_5187" cx="0" cy="0" r="1" gradientUnits="userSpaceOnUse" gradientTransform="translate(110.599 142.091) rotate(-87.7994) scale(9.21034)">
<stop stop-color="#FFD5D5"/>
<stop offset="1" stop-color="#FF0000"/>
</radialGradient>
<radialGradient id="paint28_radial_91_5187" cx="0" cy="0" r="1" gradientUnits="userSpaceOnUse" gradientTransform="translate(128.342 128.571) rotate(-87.7994) scale(9.21034 9.21035)">
<stop stop-color="#FFD5D5"/>
<stop offset="1" stop-color="#FF0000"/>
</radialGradient>
<radialGradient id="paint29_radial_91_5187" cx="0" cy="0" r="1" gradientUnits="userSpaceOnUse" gradientTransform="translate(103.027 127.19) rotate(-87.7994) scale(9.21034)">
<stop stop-color="#FFD5D5"/>
<stop offset="1" stop-color="#FF0000"/>
</radialGradient>
<radialGradient id="paint30_radial_91_5187" cx="0" cy="0" r="1" gradientUnits="userSpaceOnUse" gradientTransform="translate(119.818 116.139) rotate(-87.7994) scale(9.21035)">
<stop stop-color="#FFD5D5"/>
<stop offset="1" stop-color="#FF0000"/>
</radialGradient>
<radialGradient id="paint31_radial_91_5187" cx="0" cy="0" r="1" gradientUnits="userSpaceOnUse" gradientTransform="translate(104.565 102.683) rotate(-87.7994) scale(9.21034)">
<stop stop-color="#FFD5D5"/>
<stop offset="1" stop-color="#FF0000"/>
</radialGradient>
<radialGradient id="paint32_radial_91_5187" cx="0" cy="0" r="1" gradientUnits="userSpaceOnUse" gradientTransform="translate(95.4867 112.269) rotate(-87.7994) scale(9.21034)">
<stop stop-color="#FFD5D5"/>
<stop offset="1" stop-color="#FF0000"/>
</radialGradient>
<radialGradient id="paint33_radial_91_5187" cx="0" cy="0" r="1" gradientUnits="userSpaceOnUse" gradientTransform="translate(111.293 103.707) rotate(-87.7994) scale(9.21034)">
<stop stop-color="#FFD5D5"/>
<stop offset="1" stop-color="#FF0000"/>
</radialGradient>
<radialGradient id="paint34_radial_91_5187" cx="0" cy="0" r="1" gradientUnits="userSpaceOnUse" gradientTransform="translate(97.5796 87.1067) rotate(-87.7994) scale(9.21034)">
<stop stop-color="#FFD5D5"/>
<stop offset="1" stop-color="#FF0000"/>
</radialGradient>
<radialGradient id="paint35_radial_91_5187" cx="0" cy="0" r="1" gradientUnits="userSpaceOnUse" gradientTransform="translate(87.8508 97.405) rotate(-87.7994) scale(9.21034)">
<stop stop-color="#FFD5D5"/>
<stop offset="1" stop-color="#FF0000"/>
</radialGradient>
<radialGradient id="paint36_radial_91_5187" cx="0" cy="0" r="1" gradientUnits="userSpaceOnUse" gradientTransform="translate(121.833 139.25) rotate(-87.7994) scale(9.21034)">
<stop stop-color="#FFD5D5"/>
<stop offset="1" stop-color="#FF0000"/>
</radialGradient>
<radialGradient id="paint37_radial_91_5187" cx="0" cy="0" r="1" gradientUnits="userSpaceOnUse" gradientTransform="translate(93.0696 101.551) rotate(-87.7994) scale(9.21035 9.21034)">
<stop stop-color="#FFD5D5"/>
<stop offset="1" stop-color="#FF0000"/>
</radialGradient>
<radialGradient id="paint38_radial_91_5187" cx="0" cy="0" r="1" gradientUnits="userSpaceOnUse" gradientTransform="translate(6.31798 105.395) rotate(-87.7994) scale(9.21034)">
<stop stop-color="#FFD5D5"/>
<stop offset="1" stop-color="#FF0000"/>
</radialGradient>
<radialGradient id="paint39_radial_91_5187" cx="0" cy="0" r="1" gradientUnits="userSpaceOnUse" gradientTransform="translate(26.5619 114.766) rotate(-87.7994) scale(9.21034)">
<stop stop-color="#FFD5D5"/>
<stop offset="1" stop-color="#FF0000"/>
</radialGradient>
<radialGradient id="paint40_radial_91_5187" cx="0" cy="0" r="1" gradientUnits="userSpaceOnUse" gradientTransform="translate(15.9558 91.738) rotate(-87.7994) scale(9.21035 9.21034)">
<stop stop-color="#FFD5D5"/>
<stop offset="1" stop-color="#FF0000"/>
</radialGradient>
<radialGradient id="paint41_radial_91_5187" cx="0" cy="0" r="1" gradientUnits="userSpaceOnUse" gradientTransform="translate(33.5709 101.421) rotate(-87.7994) scale(9.21035 9.21034)">
<stop stop-color="#FFD5D5"/>
<stop offset="1" stop-color="#FF0000"/>
</radialGradient>
<radialGradient id="paint42_radial_91_5187" cx="0" cy="0" r="1" gradientUnits="userSpaceOnUse" gradientTransform="translate(38.3422 81.6479) rotate(-87.7994) scale(9.21034)">
<stop stop-color="#FFD5D5"/>
<stop offset="1" stop-color="#FF0000"/>
</radialGradient>
<radialGradient id="paint43_radial_91_5187" cx="0" cy="0" r="1" gradientUnits="userSpaceOnUse" gradientTransform="translate(25.625 78.1003) rotate(-87.7994) scale(9.21034)">
<stop stop-color="#FFD5D5"/>
<stop offset="1" stop-color="#FF0000"/>
</radialGradient>
<radialGradient id="paint44_radial_91_5187" cx="0" cy="0" r="1" gradientUnits="userSpaceOnUse" gradientTransform="translate(40.58 88.0757) rotate(-87.7994) scale(9.21035 9.21034)">
<stop stop-color="#FFD5D5"/>
<stop offset="1" stop-color="#FF0000"/>
</radialGradient>
<radialGradient id="paint45_radial_91_5187" cx="0" cy="0" r="1" gradientUnits="userSpaceOnUse" gradientTransform="translate(26.6736 86.3865) rotate(-87.7994) scale(9.21034 9.21035)">
<stop stop-color="#FFD5D5"/>
<stop offset="1" stop-color="#FF0000"/>
</radialGradient>
<radialGradient id="paint46_radial_91_5187" cx="0" cy="0" r="1" gradientUnits="userSpaceOnUse" gradientTransform="translate(48.8503 68.1953) rotate(-87.7994) scale(9.21035)">
<stop stop-color="#FFD5D5"/>
<stop offset="1" stop-color="#FF0000"/>
</radialGradient>
<radialGradient id="paint47_radial_91_5187" cx="0" cy="0" r="1" gradientUnits="userSpaceOnUse" gradientTransform="translate(35.1998 64.4048) rotate(-87.7994) scale(9.21035)">
<stop stop-color="#FFD5D5"/>
<stop offset="1" stop-color="#FF0000"/>
</radialGradient>
<radialGradient id="paint48_radial_91_5187" cx="0" cy="0" r="1" gradientUnits="userSpaceOnUse" gradientTransform="translate(47.7111 74.5344) rotate(-87.7994) scale(9.21035 9.21034)">
<stop stop-color="#FFD5D5"/>
<stop offset="1" stop-color="#FF0000"/>
</radialGradient>
<radialGradient id="paint49_radial_91_5187" cx="0" cy="0" r="1" gradientUnits="userSpaceOnUse" gradientTransform="translate(14.0788 114) rotate(-87.7994) scale(9.21035 9.21035)">
<stop stop-color="#FFD5D5"/>
<stop offset="1" stop-color="#FF0000"/>
</radialGradient>
<radialGradient id="paint50_radial_91_5187" cx="0" cy="0" r="1" gradientUnits="userSpaceOnUse" gradientTransform="translate(33.9721 70.956) rotate(-87.7994) scale(9.21035 9.21035)">
<stop stop-color="#FFD5D5"/>
<stop offset="1" stop-color="#FF0000"/>
</radialGradient>
<radialGradient id="paint51_radial_91_5187" cx="0" cy="0" r="1" gradientUnits="userSpaceOnUse" gradientTransform="translate(58.6959 58.1965) rotate(-87.7994) scale(9.21034 9.21035)">
<stop stop-color="#FFD5D5"/>
<stop offset="1" stop-color="#FF0000"/>
</radialGradient>
<radialGradient id="paint52_radial_91_5187" cx="0" cy="0" r="1" gradientUnits="userSpaceOnUse" gradientTransform="translate(80.8459 55.5495) rotate(-87.7994) scale(9.21035 9.21035)">
<stop stop-color="#FFD5D5"/>
<stop offset="1" stop-color="#FF0000"/>
</radialGradient>
<radialGradient id="paint53_radial_91_5187" cx="0" cy="0" r="1" gradientUnits="userSpaceOnUse" gradientTransform="translate(59.7329 41.5134) rotate(-87.7994) scale(9.21034)">
<stop stop-color="#FFD5D5"/>
<stop offset="1" stop-color="#FF0000"/>
</radialGradient>
<radialGradient id="paint54_radial_91_5187" cx="0" cy="0" r="1" gradientUnits="userSpaceOnUse" gradientTransform="translate(79.8089 40.5115) rotate(-87.7994) scale(9.21035 9.21034)">
<stop stop-color="#FFD5D5"/>
<stop offset="1" stop-color="#FF0000"/>
</radialGradient>
<radialGradient id="paint55_radial_91_5187" cx="0" cy="0" r="1" gradientUnits="userSpaceOnUse" gradientTransform="translate(67.9329 46.3913) rotate(-87.7994) scale(9.21035)">
<stop stop-color="#FFD5D5"/>
<stop offset="1" stop-color="#FF0000"/>
</radialGradient>
<radialGradient id="paint56_radial_91_5187" cx="0" cy="0" r="1" gradientUnits="userSpaceOnUse" gradientTransform="translate(73.4939 21.1765) rotate(-87.7994) scale(9.21035 9.21034)">
<stop stop-color="#FFD5D5"/>
<stop offset="1" stop-color="#FF0000"/>
</radialGradient>
<radialGradient id="paint57_radial_91_5187" cx="0" cy="0" r="1" gradientUnits="userSpaceOnUse" gradientTransform="translate(60.8069 24.8305) rotate(-87.7994) scale(9.21035)">
<stop stop-color="#FFD5D5"/>
<stop offset="1" stop-color="#FF0000"/>
</radialGradient>
<radialGradient id="paint58_radial_91_5187" cx="0" cy="0" r="1" gradientUnits="userSpaceOnUse" gradientTransform="translate(78.7719 25.4734) rotate(-87.7994) scale(9.21034)">
<stop stop-color="#FFD5D5"/>
<stop offset="1" stop-color="#FF0000"/>
</radialGradient>
<radialGradient id="paint59_radial_91_5187" cx="0" cy="0" r="1" gradientUnits="userSpaceOnUse" gradientTransform="translate(66.0479 31.3335) rotate(-87.7994) scale(9.21035)">
<stop stop-color="#FFD5D5"/>
<stop offset="1" stop-color="#FF0000"/>
</radialGradient>
<radialGradient id="paint60_radial_91_5187" cx="0" cy="0" r="1" gradientUnits="userSpaceOnUse" gradientTransform="translate(75.3789 4.21043) rotate(-87.7994) scale(9.21035)">
<stop stop-color="#FFD5D5"/>
<stop offset="1" stop-color="#FF0000"/>
</radialGradient>
<radialGradient id="paint61_radial_91_5187" cx="0" cy="0" r="1" gradientUnits="userSpaceOnUse" gradientTransform="translate(61.7699 8.14744) rotate(-87.7994) scale(9.21035)">
<stop stop-color="#FFD5D5"/>
<stop offset="1" stop-color="#FF0000"/>
</radialGradient>
<radialGradient id="paint62_radial_91_5187" cx="0" cy="0" r="1" gradientUnits="userSpaceOnUse" gradientTransform="translate(77.7359 10.2043) rotate(-87.7994) scale(9.21035 9.21035)">
<stop stop-color="#FFD5D5"/>
<stop offset="1" stop-color="#FF0000"/>
</radialGradient>
<radialGradient id="paint63_radial_91_5187" cx="0" cy="0" r="1" gradientUnits="userSpaceOnUse" gradientTransform="translate(69.8179 61.4485) rotate(-87.7994) scale(9.21034 9.21035)">
<stop stop-color="#FFD5D5"/>
<stop offset="1" stop-color="#FF0000"/>
</radialGradient>
<radialGradient id="paint64_radial_91_5187" cx="0" cy="0" r="1" gradientUnits="userSpaceOnUse" gradientTransform="translate(64.1629 14.3684) rotate(-87.7994) scale(9.21034)">
<stop stop-color="#FFD5D5"/>
<stop offset="1" stop-color="#FF0000"/>
</radialGradient>
<radialGradient id="paint65_radial_91_5187" cx="0" cy="0" r="1" gradientUnits="userSpaceOnUse" gradientTransform="translate(54.3937 115.75) rotate(-87.7994) scale(9.21034 9.21035)">
<stop stop-color="#FFD5D5"/>
<stop offset="1" stop-color="#FF0000"/>
</radialGradient>
<radialGradient id="paint66_radial_91_5187" cx="0" cy="0" r="1" gradientUnits="userSpaceOnUse" gradientTransform="translate(73.1866 127.769) rotate(-87.7994) scale(9.21035 9.21034)">
<stop stop-color="#FFD5D5"/>
<stop offset="1" stop-color="#FF0000"/>
</radialGradient>
<radialGradient id="paint67_radial_91_5187" cx="0" cy="0" r="1" gradientUnits="userSpaceOnUse" gradientTransform="translate(65.7876 103.52) rotate(-87.7994) scale(9.21034)">
<stop stop-color="#FFD5D5"/>
<stop offset="1" stop-color="#FF0000"/>
</radialGradient>
<radialGradient id="paint68_radial_91_5187" cx="0" cy="0" r="1" gradientUnits="userSpaceOnUse" gradientTransform="translate(81.9337 115.493) rotate(-87.7994) scale(9.21035)">
<stop stop-color="#FFD5D5"/>
<stop offset="1" stop-color="#FF0000"/>
</radialGradient>
<radialGradient id="paint69_radial_91_5187" cx="0" cy="0" r="1" gradientUnits="userSpaceOnUse" gradientTransform="translate(69.0253 112.495) rotate(-87.7994) scale(9.21034 9.21035)">
<stop stop-color="#FFD5D5"/>
<stop offset="1" stop-color="#FF0000"/>
</radialGradient>
<radialGradient id="paint70_radial_91_5187" cx="0" cy="0" r="1" gradientUnits="userSpaceOnUse" gradientTransform="translate(89.3316 96.5461) rotate(-87.7994) scale(9.21034)">
<stop stop-color="#FFD5D5"/>
<stop offset="1" stop-color="#FF0000"/>
</radialGradient>
<radialGradient id="paint71_radial_91_5187" cx="0" cy="0" r="1" gradientUnits="userSpaceOnUse" gradientTransform="translate(77.2101 91.3135) rotate(-87.7994) scale(9.21035 9.21034)">
<stop stop-color="#FFD5D5"/>
<stop offset="1" stop-color="#FF0000"/>
</radialGradient>
<radialGradient id="paint72_radial_91_5187" cx="0" cy="0" r="1" gradientUnits="userSpaceOnUse" gradientTransform="translate(77.13 99.665) rotate(-87.7994) scale(9.21035 9.21034)">
<stop stop-color="#FFD5D5"/>
<stop offset="1" stop-color="#FF0000"/>
</radialGradient>
<radialGradient id="paint73_radial_91_5187" cx="0" cy="0" r="1" gradientUnits="userSpaceOnUse" gradientTransform="translate(101.56 84.6357) rotate(-87.7994) scale(9.21034)">
<stop stop-color="#FFD5D5"/>
<stop offset="1" stop-color="#FF0000"/>
</radialGradient>
<radialGradient id="paint74_radial_91_5187" cx="0" cy="0" r="1" gradientUnits="userSpaceOnUse" gradientTransform="translate(88.5468 79.0361) rotate(-87.7994) scale(9.21034)">
<stop stop-color="#FFD5D5"/>
<stop offset="1" stop-color="#FF0000"/>
</radialGradient>
<radialGradient id="paint75_radial_91_5187" cx="0" cy="0" r="1" gradientUnits="userSpaceOnUse" gradientTransform="translate(99.5754 90.7629) rotate(-87.7994) scale(9.21034 9.21035)">
<stop stop-color="#FFD5D5"/>
<stop offset="1" stop-color="#FF0000"/>
</radialGradient>
<radialGradient id="paint76_radial_91_5187" cx="0" cy="0" r="1" gradientUnits="userSpaceOnUse" gradientTransform="translate(60.9213 125.324) rotate(-87.7994) scale(9.21034)">
<stop stop-color="#FFD5D5"/>
<stop offset="1" stop-color="#FF0000"/>
</radialGradient>
<radialGradient id="paint77_radial_91_5187" cx="0" cy="0" r="1" gradientUnits="userSpaceOnUse" gradientTransform="translate(86.4455 85.3618) rotate(-87.7994) scale(9.21034)">
<stop stop-color="#FFD5D5"/>
<stop offset="1" stop-color="#FF0000"/>
</radialGradient>
<radialGradient id="paint78_radial_91_5187" cx="0" cy="0" r="1" gradientUnits="userSpaceOnUse" gradientTransform="translate(57.3926 95.415) rotate(-87.7994) scale(9.21035 9.21035)">
<stop stop-color="#FFD5D5"/>
<stop offset="1" stop-color="#FF0000"/>
</radialGradient>
<radialGradient id="paint79_radial_91_5187" cx="0" cy="0" r="1" gradientUnits="userSpaceOnUse" gradientTransform="translate(71.885 78.4563) rotate(-87.7994) scale(9.21034)">
<stop stop-color="#FFD5D5"/>
<stop offset="1" stop-color="#FF0000"/>
</radialGradient>
<radialGradient id="paint80_radial_91_5187" cx="0" cy="0" r="1" gradientUnits="userSpaceOnUse" gradientTransform="translate(46.8479 82.4455) rotate(-87.7994) scale(9.21034)">
<stop stop-color="#FFD5D5"/>
<stop offset="1" stop-color="#FF0000"/>
</radialGradient>
<radialGradient id="paint81_radial_91_5187" cx="0" cy="0" r="1" gradientUnits="userSpaceOnUse" gradientTransform="translate(60.9302 68.102) rotate(-87.7994) scale(9.21034 9.21035)">
<stop stop-color="#FFD5D5"/>
<stop offset="1" stop-color="#FF0000"/>
</radialGradient>
<radialGradient id="paint82_radial_91_5187" cx="0" cy="0" r="1" gradientUnits="userSpaceOnUse" gradientTransform="translate(43.1823 58.1655) rotate(-87.7994) scale(9.21034)">
<stop stop-color="#FFD5D5"/>
<stop offset="1" stop-color="#FF0000"/>
</radialGradient>
<radialGradient id="paint83_radial_91_5187" cx="0" cy="0" r="1" gradientUnits="userSpaceOnUse" gradientTransform="translate(36.3304 69.4509) rotate(-87.7994) scale(9.21034)">
<stop stop-color="#FFD5D5"/>
<stop offset="1" stop-color="#FF0000"/>
</radialGradient>
<radialGradient id="paint84_radial_91_5187" cx="0" cy="0" r="1" gradientUnits="userSpaceOnUse" gradientTransform="translate(49.9755 57.7478) rotate(-87.7994) scale(9.21034 9.21035)">
<stop stop-color="#FFD5D5"/>
<stop offset="1" stop-color="#FF0000"/>
</radialGradient>
<radialGradient id="paint85_radial_91_5187" cx="0" cy="0" r="1" gradientUnits="userSpaceOnUse" gradientTransform="translate(33.0694 44.4133) rotate(-87.7994) scale(9.21034)">
<stop stop-color="#FFD5D5"/>
<stop offset="1" stop-color="#FF0000"/>
</radialGradient>
<radialGradient id="paint86_radial_91_5187" cx="0" cy="0" r="1" gradientUnits="userSpaceOnUse" gradientTransform="translate(25.7313 56.5317) rotate(-87.7994) scale(9.21035 9.21034)">
<stop stop-color="#FFD5D5"/>
<stop offset="1" stop-color="#FF0000"/>
</radialGradient>
<radialGradient id="paint87_radial_91_5187" cx="0" cy="0" r="1" gradientUnits="userSpaceOnUse" gradientTransform="translate(38.865 47.2229) rotate(-87.7994) scale(9.21034)">
<stop stop-color="#FFD5D5"/>
<stop offset="1" stop-color="#FF0000"/>
</radialGradient>
<radialGradient id="paint88_radial_91_5187" cx="0" cy="0" r="1" gradientUnits="userSpaceOnUse" gradientTransform="translate(67.7744 90.268) rotate(-87.7994) scale(9.21034 9.21035)">
<stop stop-color="#FFD5D5"/>
<stop offset="1" stop-color="#FF0000"/>
</radialGradient>
<radialGradient id="paint89_radial_91_5187" cx="0" cy="0" r="1" gradientUnits="userSpaceOnUse" gradientTransform="translate(112.568 127.232) rotate(-87.7994) scale(9.21035 9.21034)">
<stop stop-color="#FFD5D5"/>
<stop offset="1" stop-color="#FF0000"/>
</radialGradient>
<radialGradient id="paint90_radial_91_5187" cx="0" cy="0" r="1" gradientUnits="userSpaceOnUse" gradientTransform="translate(20.3759 100.194) rotate(-87.7994) scale(9.21034)">
<stop stop-color="#FFD5D5"/>
<stop offset="1" stop-color="#FF0000"/>
</radialGradient>
<radialGradient id="paint91_radial_91_5187" cx="0" cy="0" r="1" gradientUnits="userSpaceOnUse" gradientTransform="translate(135.751 79.4719) rotate(-87.7994) scale(9.21035 9.21034)">
<stop stop-color="#FFD5D5"/>
<stop offset="1" stop-color="#FF0000"/>
</radialGradient>
<radialGradient id="paint92_radial_91_5187" cx="0" cy="0" r="1" gradientUnits="userSpaceOnUse" gradientTransform="translate(56.1833 80.4746) rotate(-87.7994) scale(9.21034)">
<stop stop-color="#FFD5D5"/>
<stop offset="1" stop-color="#FF0000"/>
</radialGradient>
<radialGradient id="paint93_radial_91_5187" cx="0" cy="0" r="1" gradientUnits="userSpaceOnUse" gradientTransform="translate(44.5915 70.6804) rotate(-87.7994) scale(9.21034 9.21035)">
<stop stop-color="#FFD5D5"/>
<stop offset="1" stop-color="#FF0000"/>
</radialGradient>
<radialGradient id="paint94_radial_91_5187" cx="0" cy="0" r="1" gradientUnits="userSpaceOnUse" gradientTransform="translate(31.7072 59.4841) rotate(-87.7994) scale(9.21035)">
<stop stop-color="#FFD5D5"/>
<stop offset="1" stop-color="#FF0000"/>
</radialGradient>
<radialGradient id="paint95_radial_91_5187" cx="0" cy="0" r="1" gradientUnits="userSpaceOnUse" gradientTransform="translate(103.303 115.213) rotate(-87.7994) scale(9.21034)">
<stop stop-color="#FFD5D5"/>
<stop offset="1" stop-color="#FF0000"/>
</radialGradient>
<radialGradient id="paint96_radial_91_5187" cx="0" cy="0" r="1" gradientUnits="userSpaceOnUse" gradientTransform="translate(90.6808 103.217) rotate(-87.7994) scale(9.21034 9.21035)">
<stop stop-color="#FFD5D5"/>
<stop offset="1" stop-color="#FF0000"/>
</radialGradient>
</defs>
</svg>
