<svg width="75" height="104" viewBox="0 0 75 104" fill="none" xmlns="http://www.w3.org/2000/svg">
<path d="M37.8617 10.8096C41.9658 13.1673 44.959 17.3102 47.1989 21.3788C49.6993 25.9206 51.3933 30.8758 52.5266 35.9238C54.6431 45.3514 54.8225 55.2513 53.2425 64.7747C51.7997 73.471 48.7734 82.3836 43.0339 89.2166C41.6254 90.8935 39.9668 92.4513 38.0999 93.608C37.3862 94.0502 36.6673 94.4707 35.8197 94.5666C34.4409 94.7225 33.0687 94.7867 31.7004 95.0413C29.899 95.3764 27.5038 95.8595 26.1752 97.2548C25.1555 98.3256 25.7337 99.4256 26.8128 100.152C28.5898 101.348 30.9271 101.765 33.0076 102.05C35.2809 102.362 37.5889 102.42 39.8784 102.292C44.9347 102.012 49.9724 100.866 54.4097 98.3564C63.4307 93.2539 68.9554 83.1858 71.6521 73.4778C74.1927 64.3319 75.2089 54.7363 74.2824 45.269C73.3043 35.2735 70.7875 25.4942 65.3506 16.946C62.4761 12.4266 58.5735 8.49246 53.8127 5.98905C49.5585 3.75205 44.8228 2.68575 40.0431 2.42265C37.4122 2.27785 34.7626 2.35275 32.1602 2.78865C30.2884 3.10215 28.1146 3.54705 26.5703 4.72865C22.9949 7.46455 30.1242 9.38695 31.8419 9.69705C33.852 10.0599 36.0655 9.77696 37.8617 10.8096Z" fill="#55D8FF"/>
<path d="M37.6623 93.9013C33.5582 91.5436 30.565 87.4007 28.3251 83.3321C25.8247 78.7903 24.1307 73.8351 22.9974 68.7871C20.8809 59.3595 20.7015 49.4596 22.2815 39.9362C23.7243 31.2399 26.7506 22.3273 32.4901 15.4943C33.8986 13.8174 35.5572 12.2596 37.4241 11.1029C38.1378 10.6607 38.8567 10.2401 39.7043 10.1443C41.0831 9.98842 42.4553 9.92422 43.8236 9.66962C45.625 9.33442 48.0202 8.85142 49.3488 7.45612C50.3685 6.38532 49.7903 5.28532 48.7112 4.55902C46.9342 3.36282 44.5969 2.94582 42.5164 2.66072C40.2431 2.34922 37.9351 2.29132 35.6456 2.41842C30.5892 2.69892 25.5515 3.84451 21.1142 6.35441C12.0932 11.4569 6.56847 21.5249 3.87177 31.233C1.33117 40.3789 0.314972 49.9746 1.24147 59.4418C2.21957 69.4373 4.73637 79.2166 10.1733 87.7648C13.0478 92.2842 16.9504 96.2183 21.7112 98.7217C25.9654 100.959 30.9508 102.039 35.4808 102.288C38.1117 102.433 40.7613 102.358 43.3637 101.922C45.2355 101.609 47.4093 101.164 48.9536 99.9821C52.5291 97.2463 45.3999 95.3239 43.6821 95.0138C41.672 94.651 39.4585 94.9339 37.6623 93.9013Z" fill="#0D07C7"/>
<path opacity="0.2" d="M74.2814 45.2655C73.3033 35.27 70.7865 25.4907 65.3496 16.9425C62.475 12.423 58.5724 8.48899 53.8116 5.98559C49.852 3.90349 45.4743 2.84519 41.0333 2.49509C40.8276 2.47669 40.6218 2.46239 40.4157 2.44779C40.291 2.43979 40.1668 2.42599 40.0421 2.41919C39.9433 2.41369 39.844 2.41419 39.7451 2.40939C39.2991 2.38649 38.8531 2.37149 38.4064 2.36519C38.1855 2.36119 37.9649 2.35939 37.744 2.35889C37.4536 2.35989 37.1638 2.36489 36.8737 2.37229C36.4728 2.38049 36.0723 2.39239 35.672 2.41389C35.6628 2.41439 35.6536 2.41429 35.6445 2.41479C35.5959 2.41749 35.5475 2.42319 35.4989 2.42609C34.9821 2.45649 34.4656 2.49139 33.9507 2.54609C29.4697 2.97269 25.0545 4.12169 21.1131 6.35099C12.0921 11.4535 6.56742 21.5216 3.87072 31.2297C1.33012 40.3756 0.313917 49.9712 1.24032 59.4385C2.21852 69.434 4.73522 79.2133 10.1722 87.7615C13.0467 92.2809 16.9493 96.2149 21.71 98.7184C25.6697 100.801 30.0472 101.859 34.4883 102.209C34.694 102.227 34.8998 102.242 35.1059 102.256C35.2306 102.264 35.3548 102.278 35.4795 102.285C35.5783 102.29 35.6776 102.29 35.7765 102.295C36.2226 102.317 36.6686 102.332 37.1152 102.339C37.3361 102.343 37.5567 102.345 37.7776 102.345C38.0679 102.344 38.3577 102.339 38.6479 102.332C39.0488 102.323 39.4493 102.312 39.8497 102.29C39.8588 102.29 39.868 102.29 39.8771 102.289C39.9255 102.286 39.9737 102.281 40.0221 102.278C40.5392 102.248 41.0559 102.213 41.5711 102.158C46.052 101.731 50.4672 100.582 54.4085 98.3532C63.4294 93.2507 68.9542 83.1826 71.6509 73.4745C74.1916 64.3284 75.2078 54.7327 74.2814 45.2655ZM53.2413 64.7711C51.7984 73.4674 48.7722 82.38 43.0327 89.213C41.6242 90.8899 39.9656 92.4478 38.0987 93.6045C37.9454 93.6994 37.7913 93.7919 37.6363 93.8819C33.5454 91.5216 30.5592 87.3889 28.3239 83.3287C25.8234 78.787 24.1294 73.8318 22.9962 68.7838C20.8797 59.3561 20.7003 49.4563 22.2804 39.9329C23.7232 31.2367 26.7495 22.324 32.4889 15.491C33.8974 13.8141 35.5561 12.2562 37.4229 11.0996C37.5762 11.0046 37.7303 10.9122 37.8853 10.8222C41.9762 13.1824 44.9624 17.3152 47.1977 21.3754C49.6981 25.9172 51.3921 30.8724 52.5254 35.9204C54.6419 45.3478 54.8214 55.2476 53.2413 64.7711Z" fill="url(#paint0_radial_90_4519)"/>
<mask id="mask0_90_4519" style="mask-type:alpha" maskUnits="userSpaceOnUse" x="23" y="0" width="52" height="104">
<ellipse cx="49.4923" cy="52.0112" rx="25.5" ry="51.5" fill="black"/>
</mask>
<g mask="url(#mask0_90_4519)">
<path opacity="0.8" d="M74.2818 45.2655C73.3037 35.27 70.7869 25.4907 65.35 16.9425C62.4754 12.423 58.5728 8.48899 53.812 5.98559C49.8524 3.90349 45.4747 2.84519 41.0337 2.49509C40.828 2.47669 40.6222 2.46239 40.4161 2.44779C40.2914 2.43979 40.1672 2.42599 40.0425 2.41919C39.9437 2.41369 39.8444 2.41419 39.7455 2.40939C39.2995 2.38649 38.8535 2.37149 38.4068 2.36519C38.1859 2.36119 37.9653 2.35939 37.7444 2.35889C37.454 2.35989 37.1642 2.36489 36.8741 2.37229C36.4732 2.38049 36.0727 2.39239 35.6724 2.41389C35.6632 2.41439 35.654 2.41429 35.6449 2.41479C35.5963 2.41749 35.5479 2.42319 35.4993 2.42609C34.9825 2.45649 34.466 2.49139 33.9511 2.54609C29.4701 2.97269 25.0549 4.12169 21.1135 6.35099C12.0925 11.4535 6.56778 21.5216 3.87108 31.2297C1.33048 40.3756 0.314283 49.9712 1.24068 59.4385C2.21888 69.434 4.73558 79.2133 10.1726 87.7615C13.0471 92.2809 16.9497 96.2149 21.7104 98.7184C25.6701 100.801 30.0476 101.859 34.4887 102.209C34.6944 102.227 34.9002 102.242 35.1063 102.256C35.231 102.264 35.3552 102.278 35.4799 102.285C35.5787 102.29 35.678 102.29 35.7769 102.295C36.223 102.317 36.669 102.332 37.1156 102.339C37.3365 102.343 37.5571 102.345 37.778 102.345C38.0683 102.344 38.3581 102.339 38.6483 102.332C39.0492 102.323 39.4497 102.312 39.8501 102.29C39.8592 102.29 39.8684 102.29 39.8775 102.289C39.9259 102.286 39.9741 102.281 40.0225 102.278C40.5396 102.248 41.0563 102.213 41.5715 102.158C46.0524 101.731 50.4676 100.582 54.4089 98.3532C63.4298 93.2507 68.9546 83.1826 71.6513 73.4745C74.192 64.3284 75.2082 54.7327 74.2818 45.2655ZM53.2417 64.7711C51.7988 73.4674 48.7726 82.38 43.0331 89.213C41.6246 90.8899 39.966 92.4478 38.0991 93.6045C37.9458 93.6994 37.7917 93.7919 37.6367 93.8819C33.5458 91.5216 30.5596 87.3889 28.3243 83.3287C25.8238 78.787 24.1298 73.8318 22.9966 68.7838C20.8801 59.3561 20.7007 49.4563 22.2808 39.9329C23.7236 31.2367 26.7499 22.324 32.4893 15.491C33.8978 13.8141 35.5565 12.2562 37.4233 11.0996C37.5766 11.0046 37.7307 10.9122 37.8857 10.8222C41.9766 13.1824 44.9628 17.3152 47.1981 21.3754C49.6985 25.9172 51.3925 30.8724 52.5258 35.9204C54.6423 45.3478 54.8218 55.2476 53.2417 64.7711Z" fill="url(#paint1_radial_90_4519)" fill-opacity="0.75"/>
</g>
<mask id="mask1_90_4519" style="mask-type:alpha" maskUnits="userSpaceOnUse" x="1" y="0" width="70" height="104">
<ellipse cx="35.5194" cy="52.0112" rx="34.5" ry="51.5" fill="black"/>
</mask>
<g mask="url(#mask1_90_4519)">
<path d="M74.2818 45.2655C73.3037 35.27 70.7869 25.4907 65.35 16.9425C62.4754 12.423 58.5728 8.48899 53.812 5.98559C49.8524 3.90349 45.4747 2.84519 41.0337 2.49509C40.828 2.47669 40.6222 2.46239 40.4161 2.44779C40.2914 2.43979 40.1672 2.42599 40.0425 2.41919C39.9437 2.41369 39.8444 2.41419 39.7455 2.40939C39.2995 2.38649 38.8535 2.37149 38.4068 2.36519C38.1859 2.36119 37.9653 2.35939 37.7444 2.35889C37.454 2.35989 37.1642 2.36489 36.8741 2.37229C36.4732 2.38049 36.0727 2.39239 35.6724 2.41389C35.6632 2.41439 35.654 2.41429 35.6449 2.41479C35.5963 2.41749 35.5479 2.42319 35.4993 2.42609C34.9825 2.45649 34.466 2.49139 33.9511 2.54609C29.4701 2.97269 25.0549 4.12169 21.1135 6.35099C12.0925 11.4535 6.56778 21.5216 3.87108 31.2297C1.33048 40.3756 0.314283 49.9712 1.24068 59.4385C2.21888 69.434 4.73558 79.2133 10.1726 87.7615C13.0471 92.2809 16.9497 96.2149 21.7104 98.7184C25.6701 100.801 30.0476 101.859 34.4887 102.209C34.6944 102.227 34.9002 102.242 35.1063 102.256C35.231 102.264 35.3552 102.278 35.4799 102.285C35.5787 102.29 35.678 102.29 35.7769 102.295C36.223 102.317 36.669 102.332 37.1156 102.339C37.3365 102.343 37.5571 102.345 37.778 102.345C38.0683 102.344 38.3581 102.339 38.6483 102.332C39.0492 102.323 39.4497 102.312 39.8501 102.29C39.8592 102.29 39.8684 102.29 39.8775 102.289C39.9259 102.286 39.9741 102.281 40.0225 102.278C40.5396 102.248 41.0563 102.213 41.5715 102.158C46.0524 101.731 50.4676 100.582 54.4089 98.3532C63.4298 93.2507 68.9546 83.1826 71.6513 73.4745C74.192 64.3284 75.2082 54.7327 74.2818 45.2655ZM53.2417 64.7711C51.7988 73.4674 48.7726 82.38 43.0331 89.213C41.6246 90.8899 39.966 92.4478 38.0991 93.6045C37.9458 93.6994 37.7917 93.7919 37.6367 93.8819C33.5458 91.5216 30.5596 87.3889 28.3243 83.3287C25.8238 78.787 24.1298 73.8318 22.9966 68.7838C20.8801 59.3561 20.7007 49.4563 22.2808 39.9329C23.7236 31.2367 26.7499 22.324 32.4893 15.491C33.8978 13.8141 35.5565 12.2562 37.4233 11.0996C37.5766 11.0046 37.7307 10.9122 37.8857 10.8222C41.9766 13.1824 44.9628 17.3152 47.1981 21.3754C49.6985 25.9172 51.3925 30.8724 52.5258 35.9204C54.6423 45.3478 54.8218 55.2476 53.2417 64.7711Z" fill="url(#paint2_radial_90_4519)"/>
</g>
<path opacity="0.25" d="M74.2817 45.2655C73.3036 35.27 70.7868 25.4907 65.3499 16.9425C62.4753 12.423 58.5727 8.48899 53.8119 5.98559C49.8523 3.90349 45.4746 2.84519 41.0336 2.49509C40.8279 2.47669 40.6221 2.46239 40.416 2.44779C40.2913 2.43979 40.1671 2.42599 40.0424 2.41919C39.9436 2.41369 39.8443 2.41419 39.7454 2.40939C39.2994 2.38649 38.8534 2.37149 38.4067 2.36519C38.1858 2.36119 37.9652 2.35939 37.7443 2.35889C37.4539 2.35989 37.1641 2.36489 36.874 2.37229C36.4731 2.38049 36.0726 2.39239 35.6723 2.41389C35.6631 2.41439 35.6539 2.41429 35.6448 2.41479C35.5962 2.41749 35.5478 2.42319 35.4992 2.42609C34.9824 2.45649 34.4659 2.49139 33.951 2.54609C29.47 2.97269 25.0548 4.12169 21.1134 6.35099C12.0924 11.4535 6.56766 21.5216 3.87096 31.2297C1.33036 40.3756 0.314161 49.9712 1.24056 59.4385C2.21876 69.434 4.73546 79.2133 10.1725 87.7615C13.047 92.2809 16.9496 96.2149 21.7103 98.7184C25.67 100.801 30.0475 101.859 34.4886 102.209C34.6943 102.227 34.9001 102.242 35.1062 102.256C35.2309 102.264 35.3551 102.278 35.4798 102.285C35.5786 102.29 35.6779 102.29 35.7768 102.295C36.2229 102.317 36.6689 102.332 37.1155 102.339C37.3364 102.343 37.557 102.345 37.7779 102.345C38.0682 102.344 38.358 102.339 38.6482 102.332C39.0491 102.323 39.4496 102.312 39.85 102.29C39.8591 102.29 39.8683 102.29 39.8774 102.289C39.9258 102.286 39.974 102.281 40.0224 102.278C40.5395 102.248 41.0562 102.213 41.5714 102.158C46.0523 101.731 50.4675 100.582 54.4088 98.3532C63.4297 93.2507 68.9545 83.1826 71.6512 73.4745C74.1919 64.3284 75.2081 54.7327 74.2817 45.2655ZM53.2416 64.7711C51.7987 73.4674 48.7725 82.38 43.033 89.213C41.6245 90.8899 39.9659 92.4478 38.099 93.6045C37.9457 93.6994 37.7916 93.7919 37.6366 93.8819C33.5457 91.5216 30.5595 87.3889 28.3242 83.3287C25.8237 78.787 24.1297 73.8318 22.9965 68.7838C20.88 59.3561 20.7006 49.4563 22.2807 39.9329C23.7235 31.2367 26.7498 22.324 32.4892 15.491C33.8977 13.8141 35.5564 12.2562 37.4232 11.0996C37.5765 11.0046 37.7306 10.9122 37.8856 10.8222C41.9765 13.1824 44.9627 17.3152 47.198 21.3754C49.6984 25.9172 51.3924 30.8724 52.5257 35.9204C54.6422 45.3478 54.8217 55.2476 53.2416 64.7711Z" fill="url(#paint3_radial_90_4519)"/>
<defs>
<radialGradient id="paint0_radial_90_4519" cx="0" cy="0" r="1" gradientUnits="userSpaceOnUse" gradientTransform="translate(37.7609 52.3497) scale(42.368 60.7006)">
<stop offset="0.3879" stop-color="white" stop-opacity="0"/>
<stop offset="0.4247" stop-color="white" stop-opacity="0.1413"/>
<stop offset="0.6486" stop-color="white"/>
<stop offset="0.8311" stop-color="white" stop-opacity="0"/>
</radialGradient>
<radialGradient id="paint1_radial_90_4519" cx="0" cy="0" r="1" gradientUnits="userSpaceOnUse" gradientTransform="translate(37.7637 52.3519) rotate(-90) scale(50.1181 35.3132)">
<stop offset="0.87" stop-color="#421616"/>
<stop offset="1" stop-color="#421616" stop-opacity="0"/>
</radialGradient>
<radialGradient id="paint2_radial_90_4519" cx="0" cy="0" r="1" gradientUnits="userSpaceOnUse" gradientTransform="translate(37.7598 52.3519) rotate(-90) scale(71.8607 37.0801)">
<stop offset="0.5095" stop-color="#421616" stop-opacity="0"/>
<stop offset="1" stop-color="#421616"/>
</radialGradient>
<radialGradient id="paint3_radial_90_4519" cx="0" cy="0" r="1" gradientUnits="userSpaceOnUse" gradientTransform="translate(43.2338 52.2463) scale(43.9192 73.3802)">
<stop offset="0.571" stop-color="white" stop-opacity="0"/>
<stop offset="0.6496" stop-color="white"/>
<stop offset="0.713241" stop-color="white" stop-opacity="0"/>
</radialGradient>
</defs>
</svg>
