<svg width="53" height="24" viewBox="0 0 53 24" fill="none" xmlns="http://www.w3.org/2000/svg">
<rect x="2" y="1.98901" width="50" height="20" rx="10" fill="url(#paint0_linear_67_1907)"/>
<rect x="2" y="1.98901" width="50" height="20" rx="10" stroke="#115D72" stroke-width="3" stroke-linejoin="round"/>
<path d="M10.2012 15.989V7.39917H13.8516C14.7695 7.39917 15.4355 7.47729 15.8496 7.63354C16.2676 7.78589 16.6016 8.05933 16.8516 8.45386C17.1016 8.84839 17.2266 9.29956 17.2266 9.80737C17.2266 10.4519 17.0371 10.9851 16.6582 11.407C16.2793 11.825 15.7129 12.0886 14.959 12.198C15.334 12.4167 15.6426 12.657 15.8848 12.9187C16.1309 13.1804 16.4609 13.6453 16.875 14.3132L17.9238 15.989H15.8496L14.5957 14.1199C14.1504 13.4519 13.8457 13.032 13.6816 12.8601C13.5176 12.6843 13.3438 12.5652 13.1602 12.5027C12.9766 12.4363 12.6855 12.4031 12.2871 12.4031H11.9355V15.989H10.2012ZM11.9355 11.032H13.2188C14.0508 11.032 14.5703 10.9968 14.7773 10.9265C14.9844 10.8562 15.1465 10.7351 15.2637 10.5632C15.3809 10.3914 15.4395 10.1765 15.4395 9.9187C15.4395 9.62964 15.3613 9.39722 15.2051 9.22144C15.0527 9.04175 14.8359 8.92847 14.5547 8.88159C14.4141 8.86206 13.9922 8.85229 13.2891 8.85229H11.9355V11.032ZM18.5156 11.7468C18.5156 10.8718 18.6465 10.1375 18.9082 9.5437C19.1035 9.1062 19.3691 8.71362 19.7051 8.36597C20.0449 8.01831 20.416 7.7605 20.8184 7.59253C21.3535 7.36597 21.9707 7.25269 22.6699 7.25269C23.9355 7.25269 24.9473 7.64526 25.7051 8.43042C26.4668 9.21558 26.8477 10.3074 26.8477 11.7058C26.8477 13.0925 26.4707 14.1785 25.7168 14.9636C24.9629 15.7449 23.9551 16.1355 22.6934 16.1355C21.416 16.1355 20.4004 15.7468 19.6465 14.9695C18.8926 14.1882 18.5156 13.114 18.5156 11.7468ZM20.3027 11.6882C20.3027 12.6609 20.5273 13.3992 20.9766 13.9031C21.4258 14.4031 21.9961 14.6531 22.6875 14.6531C23.3789 14.6531 23.9453 14.405 24.3867 13.9089C24.832 13.4089 25.0547 12.6609 25.0547 11.6648C25.0547 10.6804 24.8379 9.94604 24.4043 9.46167C23.9746 8.97729 23.4023 8.73511 22.6875 8.73511C21.9727 8.73511 21.3965 8.9812 20.959 9.47339C20.5215 9.96167 20.3027 10.7 20.3027 11.6882ZM28.2129 15.989V7.39917H31.8633C32.7812 7.39917 33.4473 7.47729 33.8613 7.63354C34.2793 7.78589 34.6133 8.05933 34.8633 8.45386C35.1133 8.84839 35.2383 9.29956 35.2383 9.80737C35.2383 10.4519 35.0488 10.9851 34.6699 11.407C34.291 11.825 33.7246 12.0886 32.9707 12.198C33.3457 12.4167 33.6543 12.657 33.8965 12.9187C34.1426 13.1804 34.4727 13.6453 34.8867 14.3132L35.9355 15.989H33.8613L32.6074 14.1199C32.1621 13.4519 31.8574 13.032 31.6934 12.8601C31.5293 12.6843 31.3555 12.5652 31.1719 12.5027C30.9883 12.4363 30.6973 12.4031 30.2988 12.4031H29.9473V15.989H28.2129ZM29.9473 11.032H31.2305C32.0625 11.032 32.582 10.9968 32.7891 10.9265C32.9961 10.8562 33.1582 10.7351 33.2754 10.5632C33.3926 10.3914 33.4512 10.1765 33.4512 9.9187C33.4512 9.62964 33.373 9.39722 33.2168 9.22144C33.0645 9.04175 32.8477 8.92847 32.5664 8.88159C32.4258 8.86206 32.0039 8.85229 31.3008 8.85229H29.9473V11.032ZM44.625 15.989H42.7383L41.9883 14.0378H38.5547L37.8457 15.989H36.0059L39.3516 7.39917H41.1855L44.625 15.989ZM41.4316 12.5906L40.248 9.40308L39.0879 12.5906H41.4316Z" fill="white"/>
<defs>
<linearGradient id="paint0_linear_67_1907" x1="27" y1="1.98901" x2="27" y2="21.989" gradientUnits="userSpaceOnUse">
<stop stop-color="#115D72"/>
<stop offset="1" stop-color="#2EA571"/>
</linearGradient>
</defs>
</svg>
