<svg width="54" height="24" viewBox="0 0 54 24" fill="none" xmlns="http://www.w3.org/2000/svg">
<rect x="2" y="1.98901" width="51" height="20" rx="10" fill="url(#paint0_linear_67_1863)"/>
<rect x="2" y="1.98901" width="51" height="20" rx="10" stroke="#1C474A" stroke-width="3" stroke-linejoin="round"/>
<path d="M10.3672 15.989V7.39917H14.0176C14.9355 7.39917 15.6016 7.47729 16.0156 7.63354C16.4336 7.78589 16.7676 8.05933 17.0176 8.45386C17.2676 8.84839 17.3926 9.29956 17.3926 9.80737C17.3926 10.4519 17.2031 10.9851 16.8242 11.407C16.4453 11.825 15.8789 12.0886 15.125 12.198C15.5 12.4167 15.8086 12.657 16.0508 12.9187C16.2969 13.1804 16.627 13.6453 17.041 14.3132L18.0898 15.989H16.0156L14.7617 14.1199C14.3164 13.4519 14.0117 13.032 13.8477 12.8601C13.6836 12.6843 13.5098 12.5652 13.3262 12.5027C13.1426 12.4363 12.8516 12.4031 12.4531 12.4031H12.1016V15.989H10.3672ZM12.1016 11.032H13.3848C14.2168 11.032 14.7363 10.9968 14.9434 10.9265C15.1504 10.8562 15.3125 10.7351 15.4297 10.5632C15.5469 10.3914 15.6055 10.1765 15.6055 9.9187C15.6055 9.62964 15.5273 9.39722 15.3711 9.22144C15.2188 9.04175 15.002 8.92847 14.7207 8.88159C14.5801 8.86206 14.1582 8.85229 13.4551 8.85229H12.1016V11.032ZM19.0391 15.989V7.39917H20.7734V10.78H24.1719V7.39917H25.9062V15.989H24.1719V12.2332H20.7734V15.989H19.0391ZM27.3535 11.7468C27.3535 10.8718 27.4844 10.1375 27.7461 9.5437C27.9414 9.1062 28.207 8.71362 28.543 8.36597C28.8828 8.01831 29.2539 7.7605 29.6562 7.59253C30.1914 7.36597 30.8086 7.25269 31.5078 7.25269C32.7734 7.25269 33.7852 7.64526 34.543 8.43042C35.3047 9.21558 35.6855 10.3074 35.6855 11.7058C35.6855 13.0925 35.3086 14.1785 34.5547 14.9636C33.8008 15.7449 32.793 16.1355 31.5312 16.1355C30.2539 16.1355 29.2383 15.7468 28.4844 14.9695C27.7305 14.1882 27.3535 13.114 27.3535 11.7468ZM29.1406 11.6882C29.1406 12.6609 29.3652 13.3992 29.8145 13.9031C30.2637 14.4031 30.834 14.6531 31.5254 14.6531C32.2168 14.6531 32.7832 14.405 33.2246 13.9089C33.6699 13.4089 33.8926 12.6609 33.8926 11.6648C33.8926 10.6804 33.6758 9.94604 33.2422 9.46167C32.8125 8.97729 32.2402 8.73511 31.5254 8.73511C30.8105 8.73511 30.2344 8.9812 29.7969 9.47339C29.3594 9.96167 29.1406 10.7 29.1406 11.6882ZM41.041 12.8308V11.3835H44.7793V14.8054C44.416 15.157 43.8887 15.4675 43.1973 15.7371C42.5098 16.0027 41.8125 16.1355 41.1055 16.1355C40.207 16.1355 39.4238 15.948 38.7559 15.573C38.0879 15.1941 37.5859 14.655 37.25 13.9558C36.9141 13.2527 36.7461 12.489 36.7461 11.6648C36.7461 10.7703 36.9336 9.97534 37.3086 9.28003C37.6836 8.58472 38.2324 8.05151 38.9551 7.68042C39.5059 7.39526 40.1914 7.25269 41.0117 7.25269C42.0781 7.25269 42.9102 7.47729 43.5078 7.92651C44.1094 8.37183 44.4961 8.98901 44.668 9.77808L42.9453 10.1003C42.8242 9.67847 42.5957 9.34644 42.2598 9.10425C41.9277 8.85815 41.5117 8.73511 41.0117 8.73511C40.2539 8.73511 39.6504 8.97534 39.2012 9.45581C38.7559 9.93628 38.5332 10.6492 38.5332 11.5945C38.5332 12.614 38.7598 13.3796 39.2129 13.8914C39.666 14.3992 40.2598 14.6531 40.9941 14.6531C41.3574 14.6531 41.7207 14.5828 42.084 14.4421C42.4512 14.2976 42.7656 14.1238 43.0273 13.9207V12.8308H41.041Z" fill="white"/>
<defs>
<linearGradient id="paint0_linear_67_1863" x1="27.5" y1="1.98901" x2="27.5" y2="21.989" gradientUnits="userSpaceOnUse">
<stop stop-color="#1C474A"/>
<stop offset="1" stop-color="#FF5E93"/>
</linearGradient>
</defs>
</svg>
