<svg width="46" height="24" viewBox="0 0 46 24" fill="none" xmlns="http://www.w3.org/2000/svg">
<rect x="2" y="1.98901" width="43" height="20" rx="10" fill="url(#paint0_linear_64_1853)"/>
<rect x="2" y="1.98901" width="43" height="20" rx="10" stroke="#758407" stroke-width="3" stroke-linejoin="round"/>
<path d="M16.0059 15.989H14.3594V12.8132C14.3594 12.1414 14.3242 11.7078 14.2539 11.5125C14.1836 11.3132 14.0684 11.1589 13.9082 11.0496C13.752 10.9402 13.5625 10.8855 13.3398 10.8855C13.0547 10.8855 12.7988 10.9636 12.5723 11.1199C12.3457 11.2761 12.1895 11.4832 12.1035 11.741C12.0215 11.9988 11.9805 12.4753 11.9805 13.1707V15.989H10.334V9.76636H11.8633V10.6804C12.4062 9.97729 13.0898 9.62573 13.9141 9.62573C14.2773 9.62573 14.6094 9.69214 14.9102 9.82495C15.2109 9.95386 15.4375 10.1199 15.5898 10.323C15.7461 10.5261 15.8535 10.7566 15.9121 11.0144C15.9746 11.2722 16.0059 11.6414 16.0059 12.1218V15.989ZM17.6348 9.76636H19.1699V10.6804C19.3691 10.3679 19.6387 10.114 19.9785 9.9187C20.3184 9.72339 20.6953 9.62573 21.1094 9.62573C21.832 9.62573 22.4453 9.90894 22.9492 10.4753C23.4531 11.0417 23.7051 11.8308 23.7051 12.8425C23.7051 13.8816 23.4512 14.6902 22.9434 15.2683C22.4355 15.8425 21.8203 16.1296 21.0977 16.1296C20.7539 16.1296 20.4414 16.0613 20.1602 15.9246C19.8828 15.7878 19.5898 15.5535 19.2812 15.2214V18.3562H17.6348V9.76636ZM19.2637 12.7722C19.2637 13.4714 19.4023 13.989 19.6797 14.325C19.957 14.657 20.2949 14.823 20.6934 14.823C21.0762 14.823 21.3945 14.6707 21.6484 14.366C21.9023 14.0574 22.0293 13.5535 22.0293 12.8542C22.0293 12.2019 21.8984 11.7175 21.6367 11.4011C21.375 11.0847 21.0508 10.9265 20.6641 10.9265C20.2617 10.9265 19.9277 11.0828 19.6621 11.3953C19.3965 11.7039 19.2637 12.1628 19.2637 12.7722ZM24.4375 14.2136L26.0898 13.9617C26.1602 14.282 26.3027 14.5261 26.5176 14.6941C26.7324 14.8582 27.0332 14.9402 27.4199 14.9402C27.8457 14.9402 28.166 14.8621 28.3809 14.7058C28.5254 14.5964 28.5977 14.45 28.5977 14.2664C28.5977 14.1414 28.5586 14.0378 28.4805 13.9558C28.3984 13.8777 28.2148 13.8054 27.9297 13.739C26.6016 13.446 25.7598 13.1785 25.4043 12.9363C24.9121 12.6003 24.666 12.1335 24.666 11.5359C24.666 10.9968 24.8789 10.5437 25.3047 10.1765C25.7305 9.80933 26.3906 9.62573 27.2852 9.62573C28.1367 9.62573 28.7695 9.7644 29.1836 10.0417C29.5977 10.3191 29.8828 10.7292 30.0391 11.2722L28.4863 11.5593C28.4199 11.3171 28.293 11.1316 28.1055 11.0027C27.9219 10.8738 27.6582 10.8093 27.3145 10.8093C26.8809 10.8093 26.5703 10.8699 26.3828 10.991C26.2578 11.0769 26.1953 11.1882 26.1953 11.325C26.1953 11.4421 26.25 11.5417 26.3594 11.6238C26.5078 11.7332 27.0195 11.8875 27.8945 12.0867C28.7734 12.2859 29.3867 12.53 29.7344 12.8191C30.0781 13.1121 30.25 13.5203 30.25 14.0437C30.25 14.614 30.0117 15.1042 29.5352 15.5144C29.0586 15.9246 28.3535 16.1296 27.4199 16.1296C26.5723 16.1296 25.9004 15.9578 25.4043 15.614C24.9121 15.2703 24.5898 14.8035 24.4375 14.2136ZM31.3809 14.0027L32.9746 13.8269C33.0137 14.1511 33.1152 14.3914 33.2793 14.5476C33.4434 14.7039 33.6602 14.782 33.9297 14.782C34.2695 14.782 34.5586 14.6257 34.7969 14.3132C35.0352 14.0007 35.1875 13.3523 35.2539 12.3679C34.8398 12.8484 34.3223 13.0886 33.7012 13.0886C33.0254 13.0886 32.4414 12.8289 31.9492 12.3093C31.4609 11.7859 31.2168 11.1062 31.2168 10.2703C31.2168 9.39917 31.4746 8.698 31.9902 8.16675C32.5098 7.63159 33.1699 7.36401 33.9707 7.36401C34.8418 7.36401 35.5566 7.7019 36.1152 8.37769C36.6738 9.04956 36.9531 10.157 36.9531 11.7C36.9531 13.2703 36.6621 14.4031 36.0801 15.0984C35.498 15.7937 34.7402 16.1414 33.8066 16.1414C33.1348 16.1414 32.5918 15.9636 32.1777 15.6082C31.7637 15.2488 31.498 14.7136 31.3809 14.0027ZM35.1074 10.405C35.1074 9.87378 34.9844 9.46167 34.7383 9.1687C34.4961 8.87573 34.2148 8.72925 33.8945 8.72925C33.5898 8.72925 33.3359 8.85034 33.1328 9.09253C32.9336 9.33081 32.834 9.72339 32.834 10.2703C32.834 10.825 32.9434 11.2332 33.1621 11.4949C33.3809 11.7527 33.6543 11.8816 33.9824 11.8816C34.2988 11.8816 34.5645 11.7566 34.7793 11.5066C34.998 11.2566 35.1074 10.8894 35.1074 10.405Z" fill="white"/>
<defs>
<linearGradient id="paint0_linear_64_1853" x1="23.5" y1="1.98901" x2="23.5" y2="21.989" gradientUnits="userSpaceOnUse">
<stop stop-color="#ED6DB0"/>
<stop offset="1" stop-color="#758407"/>
</linearGradient>
</defs>
</svg>
