<svg width="60" height="24" viewBox="0 0 60 24" fill="none" xmlns="http://www.w3.org/2000/svg">
<rect x="2" y="1.98901" width="57" height="20" rx="10" fill="url(#paint0_linear_64_1849)"/>
<rect x="2" y="1.98901" width="57" height="20" rx="10" stroke="#B5FFC7" stroke-width="3" stroke-linejoin="round"/>
<path d="M10.3438 15.989V7.39917H12.9395L14.498 13.2585L16.0391 7.39917H18.6406V15.989H17.0293V9.22729L15.3242 15.989H13.6543L11.9551 9.22729V15.989H10.3438ZM22.2969 15.989V8.85229H19.748V7.39917H26.5742V8.85229H24.0312V15.989H22.2969ZM27.7051 15.989V7.39917H31.3555C32.2734 7.39917 32.9395 7.47729 33.3535 7.63354C33.7715 7.78589 34.1055 8.05933 34.3555 8.45386C34.6055 8.84839 34.7305 9.29956 34.7305 9.80737C34.7305 10.4519 34.541 10.9851 34.1621 11.407C33.7832 11.825 33.2168 12.0886 32.4629 12.198C32.8379 12.4167 33.1465 12.657 33.3887 12.9187C33.6348 13.1804 33.9648 13.6453 34.3789 14.3132L35.4277 15.989H33.3535L32.0996 14.1199C31.6543 13.4519 31.3496 13.032 31.1855 12.8601C31.0215 12.6843 30.8477 12.5652 30.6641 12.5027C30.4805 12.4363 30.1895 12.4031 29.791 12.4031H29.4395V15.989H27.7051ZM29.4395 11.032H30.7227C31.5547 11.032 32.0742 10.9968 32.2812 10.9265C32.4883 10.8562 32.6504 10.7351 32.7676 10.5632C32.8848 10.3914 32.9434 10.1765 32.9434 9.9187C32.9434 9.62964 32.8652 9.39722 32.709 9.22144C32.5566 9.04175 32.3398 8.92847 32.0586 8.88159C31.918 8.86206 31.4961 8.85229 30.793 8.85229H29.4395V11.032ZM36.3711 15.989V7.39917H42.7402V8.85229H38.1055V10.7566H42.418V12.2039H38.1055V14.5417H42.9043V15.989H36.3711ZM43.502 15.989L46.4375 11.5066L43.7773 7.39917H45.8047L47.5273 10.1589L49.2148 7.39917H51.2246L48.5527 11.571L51.4883 15.989H49.3965L47.4922 13.0183L45.582 15.989H43.502Z" fill="white"/>
<defs>
<linearGradient id="paint0_linear_64_1849" x1="30.5" y1="1.98901" x2="30.5" y2="21.989" gradientUnits="userSpaceOnUse">
<stop stop-color="#B5FFC7"/>
<stop offset="1" stop-color="#028229"/>
</linearGradient>
</defs>
</svg>
