<svg width="65" height="24" viewBox="0 0 65 24" fill="none" xmlns="http://www.w3.org/2000/svg">
<rect x="2" y="1.98901" width="62" height="20" rx="10" fill="url(#paint0_linear_83_1967)"/>
<rect x="2" y="1.98901" width="62" height="20" rx="10" stroke="#742049" stroke-width="3" stroke-linejoin="round"/>
<path d="M12.2344 15.989V8.85229H9.68555V7.39917H16.5117V8.85229H13.9688V15.989H12.2344ZM24.4922 15.989H22.6055L21.8555 14.0378H18.4219L17.7129 15.989H15.873L19.2188 7.39917H21.0527L24.4922 15.989ZM21.2988 12.5906L20.1152 9.40308L18.9551 12.5906H21.2988ZM25.4648 15.989V7.46948H27.1992V14.5417H31.5117V15.989H25.4648ZM32.748 7.39917H35.918C36.6328 7.39917 37.1777 7.45386 37.5527 7.56323C38.0566 7.71167 38.4883 7.97534 38.8477 8.35425C39.207 8.73315 39.4805 9.198 39.668 9.74878C39.8555 10.2957 39.9492 10.9714 39.9492 11.7761C39.9492 12.4832 39.8613 13.0925 39.6855 13.6042C39.4707 14.2292 39.1641 14.7351 38.7656 15.1218C38.4648 15.4148 38.0586 15.6433 37.5469 15.8074C37.1641 15.9285 36.6523 15.989 36.0117 15.989H32.748V7.39917ZM34.4824 8.85229V14.5417H35.7773C36.2617 14.5417 36.6113 14.5144 36.8262 14.4597C37.1074 14.3894 37.3398 14.2703 37.5234 14.1023C37.7109 13.9343 37.8633 13.6589 37.9805 13.2761C38.0977 12.8894 38.1562 12.364 38.1562 11.7C38.1562 11.0359 38.0977 10.5261 37.9805 10.1707C37.8633 9.81519 37.6992 9.53784 37.4883 9.33862C37.2773 9.1394 37.0098 9.00464 36.6855 8.93433C36.4434 8.87964 35.9688 8.85229 35.2617 8.85229H34.4824ZM41.0742 11.7468C41.0742 10.8718 41.2051 10.1375 41.4668 9.5437C41.6621 9.1062 41.9277 8.71362 42.2637 8.36597C42.6035 8.01831 42.9746 7.7605 43.377 7.59253C43.9121 7.36597 44.5293 7.25269 45.2285 7.25269C46.4941 7.25269 47.5059 7.64526 48.2637 8.43042C49.0254 9.21558 49.4062 10.3074 49.4062 11.7058C49.4062 13.0925 49.0293 14.1785 48.2754 14.9636C47.5215 15.7449 46.5137 16.1355 45.252 16.1355C43.9746 16.1355 42.959 15.7468 42.2051 14.9695C41.4512 14.1882 41.0742 13.114 41.0742 11.7468ZM42.8613 11.6882C42.8613 12.6609 43.0859 13.3992 43.5352 13.9031C43.9844 14.4031 44.5547 14.6531 45.2461 14.6531C45.9375 14.6531 46.5039 14.405 46.9453 13.9089C47.3906 13.4089 47.6133 12.6609 47.6133 11.6648C47.6133 10.6804 47.3965 9.94604 46.9629 9.46167C46.5332 8.97729 45.9609 8.73511 45.2461 8.73511C44.5312 8.73511 43.9551 8.9812 43.5176 9.47339C43.0801 9.96167 42.8613 10.7 42.8613 11.6882ZM54.6152 15.989H52.9688V9.78394C52.3672 10.3464 51.6582 10.7625 50.8418 11.032V9.53784C51.2715 9.39722 51.7383 9.13159 52.2422 8.74097C52.7461 8.34644 53.0918 7.88745 53.2793 7.36401H54.6152V15.989Z" fill="white"/>
<defs>
<linearGradient id="paint0_linear_83_1967" x1="33" y1="1.98901" x2="33" y2="21.989" gradientUnits="userSpaceOnUse">
<stop stop-color="#7AFFDC"/>
<stop offset="1" stop-color="#742049"/>
</linearGradient>
</defs>
</svg>
