<svg width="64" height="24" viewBox="0 0 64 24" fill="none" xmlns="http://www.w3.org/2000/svg">
<rect x="2" y="1.98901" width="61" height="20" rx="10" fill="url(#paint0_linear_83_1973)"/>
<rect x="2" y="1.98901" width="61" height="20" rx="10" stroke="#9F0071" stroke-width="3" stroke-linejoin="round"/>
<path d="M9.57812 13.1941L11.2656 13.03C11.3672 13.5964 11.5723 14.0125 11.8809 14.2781C12.1934 14.5437 12.6133 14.6765 13.1406 14.6765C13.6992 14.6765 14.1191 14.5593 14.4004 14.325C14.6855 14.0867 14.8281 13.8093 14.8281 13.4929C14.8281 13.2898 14.7676 13.1179 14.6465 12.9773C14.5293 12.8328 14.3223 12.7078 14.0254 12.6023C13.8223 12.532 13.3594 12.407 12.6367 12.2273C11.707 11.9968 11.0547 11.7136 10.6797 11.3777C10.1523 10.905 9.88867 10.3289 9.88867 9.64917C9.88867 9.21167 10.0117 8.80347 10.2578 8.42456C10.5078 8.04175 10.8652 7.75073 11.3301 7.55151C11.7988 7.35229 12.3633 7.25269 13.0234 7.25269C14.1016 7.25269 14.9121 7.48901 15.4551 7.96167C16.002 8.43433 16.2891 9.06519 16.3164 9.85425L14.582 9.93042C14.5078 9.48901 14.3477 9.17261 14.1016 8.9812C13.8594 8.78589 13.4941 8.68823 13.0059 8.68823C12.502 8.68823 12.1074 8.79175 11.8223 8.99878C11.6387 9.13159 11.5469 9.30933 11.5469 9.53198C11.5469 9.73511 11.6328 9.90894 11.8047 10.0535C12.0234 10.2371 12.5547 10.4285 13.3984 10.6277C14.2422 10.8269 14.8652 11.0339 15.2676 11.2488C15.6738 11.4597 15.9902 11.7507 16.2168 12.1218C16.4473 12.489 16.5625 12.9441 16.5625 13.4871C16.5625 13.9792 16.4258 14.4402 16.1523 14.8699C15.8789 15.2996 15.4922 15.6199 14.9922 15.8308C14.4922 16.0378 13.8691 16.1414 13.123 16.1414C12.0371 16.1414 11.2031 15.8914 10.6211 15.3914C10.0391 14.8875 9.69141 14.155 9.57812 13.1941ZM18.0098 7.39917H19.7441V12.0515C19.7441 12.7898 19.7656 13.2683 19.8086 13.4871C19.8828 13.8386 20.0586 14.1218 20.3359 14.3367C20.6172 14.5476 21 14.6531 21.4844 14.6531C21.9766 14.6531 22.3477 14.5535 22.5977 14.3542C22.8477 14.1511 22.998 13.9031 23.0488 13.6101C23.0996 13.3171 23.125 12.8308 23.125 12.1511V7.39917H24.8594V11.9109C24.8594 12.9421 24.8125 13.6707 24.7188 14.0964C24.625 14.5222 24.4512 14.8816 24.1973 15.1746C23.9473 15.4675 23.6113 15.7019 23.1895 15.8777C22.7676 16.0496 22.2168 16.1355 21.5371 16.1355C20.7168 16.1355 20.0938 16.0417 19.668 15.8542C19.2461 15.6628 18.9121 15.4167 18.666 15.116C18.4199 14.8113 18.2578 14.4929 18.1797 14.1609C18.0664 13.6687 18.0098 12.9421 18.0098 11.9812V7.39917ZM28.8848 15.989L25.8145 7.39917H27.6953L29.8691 13.7566L31.9727 7.39917H33.8125L30.7363 15.989H28.8848ZM34.2754 13.7097L35.8691 13.5164C35.9199 13.9226 36.0566 14.2332 36.2793 14.448C36.502 14.6628 36.7715 14.7703 37.0879 14.7703C37.4277 14.7703 37.7129 14.6414 37.9434 14.3835C38.1777 14.1257 38.2949 13.7781 38.2949 13.3406C38.2949 12.9265 38.1836 12.5984 37.9609 12.3562C37.7383 12.114 37.4668 11.9929 37.1465 11.9929C36.9355 11.9929 36.6836 12.0339 36.3906 12.116L36.5723 10.7742C37.0176 10.7859 37.3574 10.6902 37.5918 10.4871C37.8262 10.28 37.9434 10.0066 37.9434 9.66675C37.9434 9.37769 37.8574 9.14722 37.6855 8.97534C37.5137 8.80347 37.2852 8.71753 37 8.71753C36.7188 8.71753 36.4785 8.81519 36.2793 9.0105C36.0801 9.20581 35.959 9.49097 35.916 9.86597L34.3984 9.60815C34.5039 9.08862 34.6621 8.67456 34.873 8.36597C35.0879 8.05347 35.3848 7.80933 35.7637 7.63354C36.1465 7.45386 36.5742 7.36401 37.0469 7.36401C37.8555 7.36401 38.5039 7.62183 38.9922 8.13745C39.3945 8.55933 39.5957 9.03589 39.5957 9.56714C39.5957 10.321 39.1836 10.9226 38.3594 11.3718C38.8516 11.4773 39.2441 11.7136 39.5371 12.0808C39.834 12.448 39.9824 12.8914 39.9824 13.4109C39.9824 14.1648 39.707 14.8074 39.1562 15.3386C38.6055 15.8699 37.9199 16.1355 37.0996 16.1355C36.3223 16.1355 35.6777 15.9128 35.166 15.4675C34.6543 15.0183 34.3574 14.4324 34.2754 13.7097ZM41.0488 14.0027L42.6426 13.8269C42.6816 14.1511 42.7832 14.3914 42.9473 14.5476C43.1113 14.7039 43.3281 14.782 43.5977 14.782C43.9375 14.782 44.2266 14.6257 44.4648 14.3132C44.7031 14.0007 44.8555 13.3523 44.9219 12.3679C44.5078 12.8484 43.9902 13.0886 43.3691 13.0886C42.6934 13.0886 42.1094 12.8289 41.6172 12.3093C41.1289 11.7859 40.8848 11.1062 40.8848 10.2703C40.8848 9.39917 41.1426 8.698 41.6582 8.16675C42.1777 7.63159 42.8379 7.36401 43.6387 7.36401C44.5098 7.36401 45.2246 7.7019 45.7832 8.37769C46.3418 9.04956 46.6211 10.157 46.6211 11.7C46.6211 13.2703 46.3301 14.4031 45.748 15.0984C45.166 15.7937 44.4082 16.1414 43.4746 16.1414C42.8027 16.1414 42.2598 15.9636 41.8457 15.6082C41.4316 15.2488 41.166 14.7136 41.0488 14.0027ZM44.7754 10.405C44.7754 9.87378 44.6523 9.46167 44.4062 9.1687C44.1641 8.87573 43.8828 8.72925 43.5625 8.72925C43.2578 8.72925 43.0039 8.85034 42.8008 9.09253C42.6016 9.33081 42.502 9.72339 42.502 10.2703C42.502 10.825 42.6113 11.2332 42.8301 11.4949C43.0488 11.7527 43.3223 11.8816 43.6504 11.8816C43.9668 11.8816 44.2324 11.7566 44.4473 11.5066C44.666 11.2566 44.7754 10.8894 44.7754 10.405ZM48.0625 15.989V7.39917H49.7969V10.78H53.1953V7.39917H54.9297V15.989H53.1953V12.2332H49.7969V15.989H48.0625Z" fill="white"/>
<defs>
<linearGradient id="paint0_linear_83_1973" x1="32.5" y1="1.98901" x2="32.5" y2="21.989" gradientUnits="userSpaceOnUse">
<stop stop-color="#9F0071"/>
<stop offset="1" stop-color="#76FFD0"/>
</linearGradient>
</defs>
</svg>
