<svg width="67" height="24" viewBox="0 0 67 24" fill="none" xmlns="http://www.w3.org/2000/svg">
<rect x="1" y="1.98901" width="65" height="20" rx="10" fill="url(#paint0_linear_67_1882)"/>
<rect x="1" y="1.98901" width="65" height="20" rx="10" stroke="#BF8319" stroke-width="3" stroke-linejoin="round"/>
<path d="M8.58594 13.1941L10.2734 13.03C10.375 13.5964 10.5801 14.0125 10.8887 14.2781C11.2012 14.5437 11.6211 14.6765 12.1484 14.6765C12.707 14.6765 13.127 14.5593 13.4082 14.325C13.6934 14.0867 13.8359 13.8093 13.8359 13.4929C13.8359 13.2898 13.7754 13.1179 13.6543 12.9773C13.5371 12.8328 13.3301 12.7078 13.0332 12.6023C12.8301 12.532 12.3672 12.407 11.6445 12.2273C10.7148 11.9968 10.0625 11.7136 9.6875 11.3777C9.16016 10.905 8.89648 10.3289 8.89648 9.64917C8.89648 9.21167 9.01953 8.80347 9.26562 8.42456C9.51562 8.04175 9.87305 7.75073 10.3379 7.55151C10.8066 7.35229 11.3711 7.25269 12.0312 7.25269C13.1094 7.25269 13.9199 7.48901 14.4629 7.96167C15.0098 8.43433 15.2969 9.06519 15.3242 9.85425L13.5898 9.93042C13.5156 9.48901 13.3555 9.17261 13.1094 8.9812C12.8672 8.78589 12.502 8.68823 12.0137 8.68823C11.5098 8.68823 11.1152 8.79175 10.8301 8.99878C10.6465 9.13159 10.5547 9.30933 10.5547 9.53198C10.5547 9.73511 10.6406 9.90894 10.8125 10.0535C11.0312 10.2371 11.5625 10.4285 12.4062 10.6277C13.25 10.8269 13.873 11.0339 14.2754 11.2488C14.6816 11.4597 14.998 11.7507 15.2246 12.1218C15.4551 12.489 15.5703 12.9441 15.5703 13.4871C15.5703 13.9792 15.4336 14.4402 15.1602 14.8699C14.8867 15.2996 14.5 15.6199 14 15.8308C13.5 16.0378 12.877 16.1414 12.1309 16.1414C11.0449 16.1414 10.2109 15.8914 9.62891 15.3914C9.04688 14.8875 8.69922 14.155 8.58594 13.1941ZM24.7754 15.989H22.8887L22.1387 14.0378H18.7051L17.9961 15.989H16.1562L19.502 7.39917H21.3359L24.7754 15.989ZM21.582 12.5906L20.3984 9.40308L19.2383 12.5906H21.582ZM25.6777 15.989V7.39917H28.2734L29.832 13.2585L31.373 7.39917H33.9746V15.989H32.3633V9.22729L30.6582 15.989H28.9883L27.2891 9.22729V15.989H25.6777ZM35.7031 15.989V7.39917H37.4375V10.78H40.8359V7.39917H42.5703V15.989H40.8359V12.2332H37.4375V15.989H35.7031ZM44.3633 7.39917H47.5332C48.248 7.39917 48.793 7.45386 49.168 7.56323C49.6719 7.71167 50.1035 7.97534 50.4629 8.35425C50.8223 8.73315 51.0957 9.198 51.2832 9.74878C51.4707 10.2957 51.5645 10.9714 51.5645 11.7761C51.5645 12.4832 51.4766 13.0925 51.3008 13.6042C51.0859 14.2292 50.7793 14.7351 50.3809 15.1218C50.0801 15.4148 49.6738 15.6433 49.1621 15.8074C48.7793 15.9285 48.2676 15.989 47.627 15.989H44.3633V7.39917ZM46.0977 8.85229V14.5417H47.3926C47.877 14.5417 48.2266 14.5144 48.4414 14.4597C48.7227 14.3894 48.9551 14.2703 49.1387 14.1023C49.3262 13.9343 49.4785 13.6589 49.5957 13.2761C49.7129 12.8894 49.7715 12.364 49.7715 11.7C49.7715 11.0359 49.7129 10.5261 49.5957 10.1707C49.4785 9.81519 49.3145 9.53784 49.1035 9.33862C48.8926 9.1394 48.625 9.00464 48.3008 8.93433C48.0586 8.87964 47.584 8.85229 46.877 8.85229H46.0977ZM56.8906 15.989H55.2441V9.78394C54.6426 10.3464 53.9336 10.7625 53.1172 11.032V9.53784C53.5469 9.39722 54.0137 9.13159 54.5176 8.74097C55.0215 8.34644 55.3672 7.88745 55.5547 7.36401H56.8906V15.989Z" fill="white"/>
<defs>
<linearGradient id="paint0_linear_67_1882" x1="33.5" y1="1.98901" x2="33.5" y2="21.989" gradientUnits="userSpaceOnUse">
<stop stop-color="#BF8319"/>
<stop offset="1" stop-color="#FF2D60"/>
</linearGradient>
</defs>
</svg>
