<svg width="59" height="24" viewBox="0 0 59 24" fill="none" xmlns="http://www.w3.org/2000/svg">
<rect x="2" y="1.98901" width="56" height="20" rx="10" fill="url(#paint0_linear_37_1794)"/>
<rect x="2" y="1.98901" width="56" height="20" rx="10" stroke="#4D74FF" stroke-width="3" stroke-linejoin="round"/>
<path d="M15.6914 12.8308L17.373 13.364C17.1152 14.3015 16.6855 14.9988 16.084 15.4558C15.4863 15.9089 14.7266 16.1355 13.8047 16.1355C12.6641 16.1355 11.7266 15.7468 10.9922 14.9695C10.2578 14.1882 9.89062 13.1218 9.89062 11.7703C9.89062 10.3406 10.2598 9.2312 10.998 8.44214C11.7363 7.64917 12.707 7.25269 13.9102 7.25269C14.9609 7.25269 15.8145 7.56323 16.4707 8.18433C16.8613 8.55151 17.1543 9.07886 17.3496 9.76636L15.6328 10.1765C15.5312 9.7312 15.3184 9.37964 14.9941 9.12183C14.6738 8.86401 14.2832 8.73511 13.8223 8.73511C13.1855 8.73511 12.668 8.96362 12.2695 9.42065C11.875 9.87769 11.6777 10.6179 11.6777 11.6414C11.6777 12.7273 11.873 13.5007 12.2637 13.9617C12.6543 14.4226 13.1621 14.6531 13.7871 14.6531C14.248 14.6531 14.6445 14.5066 14.9766 14.2136C15.3086 13.9207 15.5469 13.4597 15.6914 12.8308ZM26.6133 15.989H24.7266L23.9766 14.0378H20.543L19.834 15.989H17.9941L21.3398 7.39917H23.1738L26.6133 15.989ZM23.4199 12.5906L22.2363 9.40308L21.0762 12.5906H23.4199ZM27.5859 15.989V7.46948H29.3203V14.5417H33.6328V15.989H27.5859ZM34.8516 15.989V7.39917H37.4473L39.0059 13.2585L40.5469 7.39917H43.1484V15.989H41.5371V9.22729L39.832 15.989H38.1621L36.4629 9.22729V15.989H34.8516ZM48.7207 15.989H47.0742V9.78394C46.4727 10.3464 45.7637 10.7625 44.9473 11.032V9.53784C45.377 9.39722 45.8438 9.13159 46.3477 8.74097C46.8516 8.34644 47.1973 7.88745 47.3848 7.36401H48.7207V15.989Z" fill="white"/>
<defs>
<linearGradient id="paint0_linear_37_1794" x1="30" y1="1.98901" x2="30" y2="21.989" gradientUnits="userSpaceOnUse">
<stop stop-color="#4D74FF"/>
<stop offset="1" stop-color="#D8D369"/>
</linearGradient>
</defs>
</svg>
