<svg width="44" height="44" viewBox="0 0 44 44" fill="none" xmlns="http://www.w3.org/2000/svg">
<path d="M21.8066 1.48901C33.2503 1.48926 42.5586 10.7996 42.5586 22.2419C42.5585 33.6844 33.2494 42.9929 21.8057 42.9929C10.3635 42.9927 1.05476 33.6856 1.05469 22.2419C1.05469 10.7981 10.3642 1.48901 21.8066 1.48901Z" fill="url(#paint0_radial_89_4107)" stroke="#417799"/>
<path d="M9.375 25.989V17.3992H11.1094V25.989H9.375ZM12.8145 25.989V17.4695H14.5488V24.5417H18.8613V25.989H12.8145ZM23.9531 25.989H22.3066V19.7839C21.7051 20.3464 20.9961 20.7625 20.1797 21.032V19.5378C20.6094 19.3972 21.0762 19.1316 21.5801 18.741C22.084 18.3464 22.4297 17.8875 22.6172 17.364H23.9531V25.989ZM26.7891 17.3992H30.2227C30.9023 17.3992 31.4082 17.4285 31.7402 17.4871C32.0762 17.5417 32.375 17.6589 32.6367 17.8386C32.9023 18.0183 33.123 18.2585 33.2988 18.5593C33.4746 18.8562 33.5625 19.1902 33.5625 19.5613C33.5625 19.9636 33.4531 20.3328 33.2344 20.6687C33.0195 21.0046 32.7266 21.2566 32.3555 21.4246C32.8789 21.5769 33.2812 21.8367 33.5625 22.2039C33.8438 22.571 33.9844 23.0027 33.9844 23.4988C33.9844 23.8894 33.8926 24.2703 33.709 24.6414C33.5293 25.0085 33.2812 25.3035 32.9648 25.5261C32.6523 25.7449 32.2656 25.8796 31.8047 25.9304C31.5156 25.9617 30.8184 25.9812 29.7129 25.989H26.7891V17.3992ZM28.5234 18.8289V20.8152H29.6602C30.3359 20.8152 30.7559 20.8054 30.9199 20.7859C31.2168 20.7507 31.4492 20.6492 31.6172 20.4812C31.7891 20.3093 31.875 20.0847 31.875 19.8074C31.875 19.5417 31.8008 19.3269 31.6523 19.1628C31.5078 18.9949 31.291 18.8933 31.002 18.8582C30.8301 18.8386 30.3359 18.8289 29.5195 18.8289H28.5234ZM28.5234 22.2449V24.5417H30.1289C30.7539 24.5417 31.1504 24.5242 31.3184 24.489C31.5762 24.4421 31.7852 24.3289 31.9453 24.1492C32.1094 23.9656 32.1914 23.7214 32.1914 23.4167C32.1914 23.1589 32.1289 22.9402 32.0039 22.7605C31.8789 22.5808 31.6973 22.45 31.459 22.3679C31.2246 22.2859 30.7129 22.2449 29.9238 22.2449H28.5234Z" fill="white"/>
<defs>
<radialGradient id="paint0_radial_89_4107" cx="0" cy="0" r="1" gradientUnits="userSpaceOnUse" gradientTransform="translate(17.334 14.0023) scale(19.3962)">
<stop stop-color="#BCB9FF"/>
<stop offset="1" stop-color="#8582C7"/>
</radialGradient>
</defs>
</svg>
