<svg width="24" height="113" viewBox="0 0 24 113" fill="none" xmlns="http://www.w3.org/2000/svg">
<path d="M20.4579 34.9587C20.4579 31.5435 18.4007 28.6121 15.4597 27.3263V23.1975C20.2449 21.765 23.7344 17.3334 23.7344 12.082C23.7344 5.67199 18.538 0.475586 12.128 0.475586C5.71798 0.475586 0.521484 5.67199 0.521484 12.0821C0.521484 17.3333 4.01088 21.7649 8.79588 23.1975V27.3265C5.85508 28.6124 3.79798 31.5437 3.79798 34.9587C3.79798 38.3737 5.85508 41.305 8.79588 42.5909V46.2543C7.86828 46.6591 6.99668 47.2335 6.23778 47.9925C4.61128 49.619 3.79798 55.2648 3.79798 57.3966C3.79798 59.5284 4.61118 65.1742 6.23778 66.8007C6.99668 67.5596 7.86828 68.1341 8.79588 68.5389V72.2023C5.85508 73.4882 3.79798 76.4195 3.79798 79.8345C3.79798 83.2495 5.85508 86.1808 8.79588 87.4667V108.687C8.79588 110.527 10.2878 112.019 12.1278 112.019C13.9678 112.019 15.4597 110.527 15.4597 108.687V87.4668C18.4007 86.181 20.4579 83.2496 20.4579 79.8345C20.4579 76.4194 18.4007 73.488 15.4597 72.2022V68.5391C16.3875 68.1343 17.2591 67.5598 18.0181 66.8008C19.6446 65.1743 20.4579 59.5285 20.4579 57.3967C20.4579 55.2649 19.6447 49.6191 18.0181 47.9926C17.2591 47.2336 16.3874 46.6591 15.4597 46.2543V42.5912C18.4007 41.3052 20.4579 38.3738 20.4579 34.9587Z" fill="url(#paint0_linear_86_3509)"/>
<path d="M12.1281 88.1644C16.7286 88.1644 20.4581 84.4349 20.4581 79.8344C20.4581 75.2339 16.7286 71.5044 12.1281 71.5044C7.52756 71.5044 3.7981 75.2339 3.7981 79.8344C3.7981 84.4349 7.52756 88.1644 12.1281 88.1644Z" fill="url(#paint1_radial_86_3509)"/>
<path d="M18.0183 66.8008C19.6448 65.1743 20.4581 59.5285 20.4581 57.3967C20.4581 55.2649 19.6448 49.6191 18.0183 47.9926C14.7652 44.7395 9.491 44.7395 6.2379 47.9926C4.6114 49.6191 3.7981 55.2649 3.7981 57.3967C3.7981 59.5285 4.6114 65.1743 6.2379 66.8008C9.491 70.0538 14.7652 70.0538 18.0183 66.8008Z" fill="url(#paint2_radial_86_3509)"/>
<path d="M12.1281 43.2887C16.7286 43.2887 20.4581 39.5592 20.4581 34.9587C20.4581 30.3581 16.7286 26.6287 12.1281 26.6287C7.52756 26.6287 3.7981 30.3581 3.7981 34.9587C3.7981 39.5592 7.52756 43.2887 12.1281 43.2887Z" fill="url(#paint3_radial_86_3509)"/>
<path d="M12.128 23.6886C18.5381 23.6886 23.7345 18.4922 23.7345 12.0821C23.7345 5.67199 18.5381 0.475586 12.128 0.475586C5.71789 0.475586 0.521484 5.67199 0.521484 12.0821C0.521484 18.4922 5.71789 23.6886 12.128 23.6886Z" fill="url(#paint4_radial_86_3509)"/>
<defs>
<linearGradient id="paint0_linear_86_3509" x1="12.128" y1="0.475586" x2="12.128" y2="112.019" gradientUnits="userSpaceOnUse">
<stop offset="0.8" stop-color="#11635A"/>
<stop offset="0.9" stop-color="#22C664"/>
<stop offset="1" stop-color="#11635A"/>
</linearGradient>
<radialGradient id="paint1_radial_86_3509" cx="0" cy="0" r="1" gradientUnits="userSpaceOnUse" gradientTransform="translate(12.1281 79.8344) scale(8.33 8.33)">
<stop stop-color="#22C664"/>
<stop offset="1" stop-color="#11635A"/>
</radialGradient>
<radialGradient id="paint2_radial_86_3509" cx="0" cy="0" r="1" gradientUnits="userSpaceOnUse" gradientTransform="translate(12.1281 57.3991) scale(8.456 11.6904)">
<stop stop-color="#22C664"/>
<stop offset="1" stop-color="#11635A"/>
</radialGradient>
<radialGradient id="paint3_radial_86_3509" cx="0" cy="0" r="1" gradientUnits="userSpaceOnUse" gradientTransform="translate(12.1281 34.9587) scale(8.33)">
<stop stop-color="#22C664"/>
<stop offset="1" stop-color="#11635A"/>
</radialGradient>
<radialGradient id="paint4_radial_86_3509" cx="0" cy="0" r="1" gradientUnits="userSpaceOnUse" gradientTransform="translate(12.128 12.0821) scale(11.6065)">
<stop stop-color="#22C664"/>
<stop offset="1" stop-color="#11635A"/>
</radialGradient>
</defs>
</svg>
