<svg width="50" height="24" viewBox="0 0 50 24" fill="none" xmlns="http://www.w3.org/2000/svg">
<rect x="2" y="1.98901" width="47" height="20" rx="10" fill="url(#paint0_linear_67_1846)"/>
<rect x="2" y="1.98901" width="47" height="20" rx="10" stroke="#D32976" stroke-width="3" stroke-linejoin="round"/>
<path d="M10.0312 15.989V7.39917H13.6816C14.5996 7.39917 15.2656 7.47729 15.6797 7.63354C16.0977 7.78589 16.4316 8.05933 16.6816 8.45386C16.9316 8.84839 17.0566 9.29956 17.0566 9.80737C17.0566 10.4519 16.8672 10.9851 16.4883 11.407C16.1094 11.825 15.543 12.0886 14.7891 12.198C15.1641 12.4167 15.4727 12.657 15.7148 12.9187C15.9609 13.1804 16.291 13.6453 16.7051 14.3132L17.7539 15.989H15.6797L14.4258 14.1199C13.9805 13.4519 13.6758 13.032 13.5117 12.8601C13.3477 12.6843 13.1738 12.5652 12.9902 12.5027C12.8066 12.4363 12.5156 12.4031 12.1172 12.4031H11.7656V15.989H10.0312ZM11.7656 11.032H13.0488C13.8809 11.032 14.4004 10.9968 14.6074 10.9265C14.8145 10.8562 14.9766 10.7351 15.0938 10.5632C15.2109 10.3914 15.2695 10.1765 15.2695 9.9187C15.2695 9.62964 15.1914 9.39722 15.0352 9.22144C14.8828 9.04175 14.666 8.92847 14.3848 8.88159C14.2441 8.86206 13.8223 8.85229 13.1191 8.85229H11.7656V11.032ZM26.4434 15.989H24.5566L23.8066 14.0378H20.373L19.6641 15.989H17.8242L21.1699 7.39917H23.0039L26.4434 15.989ZM23.25 12.5906L22.0664 9.40308L20.9062 12.5906H23.25ZM27.375 7.39917H30.8086C31.4883 7.39917 31.9941 7.42847 32.3262 7.48706C32.6621 7.54175 32.9609 7.65894 33.2227 7.83862C33.4883 8.01831 33.709 8.25854 33.8848 8.55933C34.0605 8.8562 34.1484 9.19019 34.1484 9.56128C34.1484 9.96362 34.0391 10.3328 33.8203 10.6687C33.6055 11.0046 33.3125 11.2566 32.9414 11.4246C33.4648 11.5769 33.8672 11.8367 34.1484 12.2039C34.4297 12.571 34.5703 13.0027 34.5703 13.4988C34.5703 13.8894 34.4785 14.2703 34.2949 14.6414C34.1152 15.0085 33.8672 15.3035 33.5508 15.5261C33.2383 15.7449 32.8516 15.8796 32.3906 15.9304C32.1016 15.9617 31.4043 15.9812 30.2988 15.989H27.375V7.39917ZM29.1094 8.82886V10.8152H30.2461C30.9219 10.8152 31.3418 10.8054 31.5059 10.7859C31.8027 10.7507 32.0352 10.6492 32.2031 10.4812C32.375 10.3093 32.4609 10.0847 32.4609 9.80737C32.4609 9.54175 32.3867 9.3269 32.2383 9.16284C32.0938 8.99487 31.877 8.89331 31.5879 8.85815C31.416 8.83862 30.9219 8.82886 30.1055 8.82886H29.1094ZM29.1094 12.2449V14.5417H30.7148C31.3398 14.5417 31.7363 14.5242 31.9043 14.489C32.1621 14.4421 32.3711 14.3289 32.5312 14.1492C32.6953 13.9656 32.7773 13.7214 32.7773 13.4167C32.7773 13.1589 32.7148 12.9402 32.5898 12.7605C32.4648 12.5808 32.2832 12.45 32.0449 12.3679C31.8105 12.2859 31.2988 12.2449 30.5098 12.2449H29.1094ZM35.4492 14.2136L37.1016 13.9617C37.1719 14.282 37.3145 14.5261 37.5293 14.6941C37.7441 14.8582 38.0449 14.9402 38.4316 14.9402C38.8574 14.9402 39.1777 14.8621 39.3926 14.7058C39.5371 14.5964 39.6094 14.45 39.6094 14.2664C39.6094 14.1414 39.5703 14.0378 39.4922 13.9558C39.4102 13.8777 39.2266 13.8054 38.9414 13.739C37.6133 13.446 36.7715 13.1785 36.416 12.9363C35.9238 12.6003 35.6777 12.1335 35.6777 11.5359C35.6777 10.9968 35.8906 10.5437 36.3164 10.1765C36.7422 9.80933 37.4023 9.62573 38.2969 9.62573C39.1484 9.62573 39.7812 9.7644 40.1953 10.0417C40.6094 10.3191 40.8945 10.7292 41.0508 11.2722L39.498 11.5593C39.4316 11.3171 39.3047 11.1316 39.1172 11.0027C38.9336 10.8738 38.6699 10.8093 38.3262 10.8093C37.8926 10.8093 37.582 10.8699 37.3945 10.991C37.2695 11.0769 37.207 11.1882 37.207 11.325C37.207 11.4421 37.2617 11.5417 37.3711 11.6238C37.5195 11.7332 38.0312 11.8875 38.9062 12.0867C39.7852 12.2859 40.3984 12.53 40.7461 12.8191C41.0898 13.1121 41.2617 13.5203 41.2617 14.0437C41.2617 14.614 41.0234 15.1042 40.5469 15.5144C40.0703 15.9246 39.3652 16.1296 38.4316 16.1296C37.584 16.1296 36.9121 15.9578 36.416 15.614C35.9238 15.2703 35.6016 14.8035 35.4492 14.2136Z" fill="white"/>
<defs>
<linearGradient id="paint0_linear_67_1846" x1="25.5" y1="1.98901" x2="25.5" y2="21.989" gradientUnits="userSpaceOnUse">
<stop stop-color="#D32976"/>
<stop offset="1" stop-color="#536BD5"/>
</linearGradient>
</defs>
</svg>
