<svg width="96" height="39" viewBox="0 0 96 39" fill="none" xmlns="http://www.w3.org/2000/svg">
<path d="M89.5142 10.2802C86.317 7.62302 82.1289 6.09912 78.0237 6.09912C73.9791 6.09912 70.7005 9.37782 70.7005 13.4223C70.7005 17.4668 73.9792 20.7455 78.0237 20.7455C79.1555 20.7455 80.73 21.63 80.73 22.5006C80.73 23.2674 80.5653 23.3906 80.4451 23.4806C80.0751 23.7574 77.8015 24.0809 76.6062 24.0809C72.5616 24.0809 69.283 27.3596 69.283 31.4041C69.283 35.4486 72.5617 38.7273 76.6062 38.7273C87.8932 38.7273 95.3765 31.9028 95.3765 22.5006C95.3764 17.7617 93.2946 13.4218 89.5142 10.2802Z" fill="url(#paint0_radial_91_4810)"/>
<path d="M35.1288 6.40942C35.0799 6.40952 28.6079 6.41012 21.7595 6.40942C2.55948 6.40742 0.298584 18.6531 0.298584 22.5007C0.298584 32.2066 7.16028 38.7275 19.0689 38.7274C23.1135 38.7274 26.3921 35.4487 26.3921 31.4042C26.3921 27.3597 23.1134 24.081 19.0689 24.081C17.4831 24.081 15.2259 23.6741 15.1001 23.5269C15.0987 23.5246 14.9451 23.2704 14.9451 22.5008C14.9451 22.4164 14.9499 22.3564 14.9548 22.3176C15.421 21.8613 16.4126 20.4349 21.9482 20.4349C28.9877 20.4349 34.9223 20.4349 35.1289 20.4349C37.9581 20.4349 39.8437 17.167 39.7455 13.1239C39.6473 9.08083 37.0033 6.40742 35.1288 6.40942Z" fill="url(#paint1_radial_91_4810)"/>
<path d="M23.8704 2.68359C23.8704 2.13131 24.3181 1.68359 24.8704 1.68359H62.8704C68.3932 1.68359 72.8704 6.16075 72.8704 11.6836C72.8704 17.2064 68.3932 21.6836 62.8704 21.6836H24.8704C24.3181 21.6836 23.8704 21.2359 23.8704 20.6836V2.68359Z" fill="url(#paint2_linear_91_4810)"/>
<path d="M23.8704 2.68359C23.8704 2.13131 24.3181 1.68359 24.8704 1.68359H62.8704C68.3932 1.68359 72.8704 6.16075 72.8704 11.6836C72.8704 17.2064 68.3932 21.6836 62.8704 21.6836H24.8704C24.3181 21.6836 23.8704 21.2359 23.8704 20.6836V2.68359Z" stroke="#FF7400" stroke-width="2" stroke-linejoin="round"/>
<path d="M37.3958 12.5254L39.0774 13.0586C38.8196 13.9961 38.3899 14.6934 37.7883 15.1504C37.1907 15.6035 36.4309 15.8301 35.509 15.8301C34.3684 15.8301 33.4309 15.4414 32.6965 14.6641C31.9622 13.8828 31.595 12.8164 31.595 11.4648C31.595 10.0352 31.9641 8.92578 32.7024 8.13672C33.4407 7.34375 34.4114 6.94727 35.6145 6.94727C36.6653 6.94727 37.5188 7.25781 38.175 7.87891C38.5657 8.24609 38.8586 8.77344 39.054 9.46094L37.3372 9.87109C37.2356 9.42578 37.0227 9.07422 36.6985 8.81641C36.3782 8.55859 35.9875 8.42969 35.5266 8.42969C34.8899 8.42969 34.3723 8.6582 33.9739 9.11523C33.5793 9.57227 33.3821 10.3125 33.3821 11.3359C33.3821 12.4219 33.5774 13.1953 33.968 13.6562C34.3586 14.1172 34.8665 14.3477 35.4915 14.3477C35.9524 14.3477 36.3489 14.2012 36.6809 13.9082C37.0129 13.6152 37.2512 13.1543 37.3958 12.5254ZM48.3176 15.6836H46.4309L45.6809 13.7324H42.2473L41.5383 15.6836H39.6985L43.0442 7.09375H44.8782L48.3176 15.6836ZM45.1243 12.2852L43.9407 9.09766L42.7805 12.2852H45.1243ZM49.2493 15.6836V7.09375H52.8997C53.8176 7.09375 54.4836 7.17188 54.8977 7.32812C55.3157 7.48047 55.6497 7.75391 55.8997 8.14844C56.1497 8.54297 56.2747 8.99414 56.2747 9.50195C56.2747 10.1465 56.0852 10.6797 55.7063 11.1016C55.3274 11.5195 54.761 11.7832 54.0071 11.8926C54.3821 12.1113 54.6907 12.3516 54.9329 12.6133C55.179 12.875 55.509 13.3398 55.9231 14.0078L56.9719 15.6836H54.8977L53.6438 13.8145C53.1985 13.1465 52.8938 12.7266 52.7297 12.5547C52.5657 12.3789 52.3918 12.2598 52.2083 12.1973C52.0247 12.1309 51.7336 12.0977 51.3352 12.0977H50.9836V15.6836H49.2493ZM50.9836 10.7266H52.2668C53.0989 10.7266 53.6184 10.6914 53.8254 10.6211C54.0325 10.5508 54.1946 10.4297 54.3118 10.2578C54.429 10.0859 54.4875 9.87109 54.4875 9.61328C54.4875 9.32422 54.4094 9.0918 54.2532 8.91602C54.1008 8.73633 53.884 8.62305 53.6028 8.57617C53.4622 8.55664 53.0403 8.54688 52.3372 8.54688H50.9836V10.7266ZM57.9094 7.09375H61.0793C61.7942 7.09375 62.3391 7.14844 62.7141 7.25781C63.218 7.40625 63.6497 7.66992 64.009 8.04883C64.3684 8.42773 64.6418 8.89258 64.8293 9.44336C65.0168 9.99023 65.1106 10.666 65.1106 11.4707C65.1106 12.1777 65.0227 12.7871 64.8469 13.2988C64.6321 13.9238 64.3254 14.4297 63.927 14.8164C63.6262 15.1094 63.22 15.3379 62.7083 15.502C62.3254 15.623 61.8137 15.6836 61.1731 15.6836H57.9094V7.09375ZM59.6438 8.54688V14.2363H60.9387C61.4231 14.2363 61.7727 14.209 61.9875 14.1543C62.2688 14.084 62.5012 13.9648 62.6848 13.7969C62.8723 13.6289 63.0247 13.3535 63.1418 12.9707C63.259 12.584 63.3176 12.0586 63.3176 11.3945C63.3176 10.7305 63.259 10.2207 63.1418 9.86523C63.0247 9.50977 62.8606 9.23242 62.6497 9.0332C62.4387 8.83398 62.1711 8.69922 61.8469 8.62891C61.6047 8.57422 61.1301 8.54688 60.4231 8.54688H59.6438Z" fill="white"/>
<path d="M75.519 38.757H19.6997C15.6551 38.757 12.3765 35.4783 12.3765 31.4338C12.3765 27.3893 15.6552 24.1106 19.6997 24.1106H75.519C79.5636 24.1106 82.8422 27.3893 82.8422 31.4338C82.8422 35.4783 79.5636 38.757 75.519 38.757Z" fill="url(#paint3_linear_91_4810)"/>
<path d="M18.2554 35.1106V26.5208H19.9897V29.9016H23.3882V26.5208H25.1226V35.1106H23.3882V31.3547H19.9897V35.1106H18.2554ZM26.9214 35.1106V26.5208H33.2905V27.9739H28.6558V29.8782H32.9683V31.3254H28.6558V33.6633H33.4546V35.1106H26.9214ZM34.9722 35.1106V26.5911H36.7065V33.6633H41.019V35.1106H34.9722ZM42.2085 35.1106V26.5208H43.9429V35.1106H42.2085ZM51.0972 31.9524L52.7788 32.4856C52.521 33.4231 52.0913 34.1204 51.4897 34.5774C50.8921 35.0305 50.1323 35.2571 49.2104 35.2571C48.0698 35.2571 47.1323 34.8684 46.3979 34.0911C45.6636 33.3098 45.2964 32.2434 45.2964 30.8918C45.2964 29.4622 45.6655 28.3528 46.4038 27.5637C47.1421 26.7708 48.1128 26.3743 49.3159 26.3743C50.3667 26.3743 51.2202 26.6848 51.8765 27.3059C52.2671 27.6731 52.5601 28.2004 52.7554 28.8879L51.0386 29.2981C50.937 28.8528 50.7241 28.5012 50.3999 28.2434C50.0796 27.9856 49.689 27.8567 49.228 27.8567C48.5913 27.8567 48.0737 28.0852 47.6753 28.5422C47.2808 28.9993 47.0835 29.7395 47.0835 30.7629C47.0835 31.8489 47.2788 32.6223 47.6694 33.0833C48.0601 33.5442 48.5679 33.7747 49.1929 33.7747C49.6538 33.7747 50.0503 33.6282 50.3823 33.3352C50.7144 33.0422 50.9526 32.5813 51.0972 31.9524ZM62.019 35.1106H60.1323L59.3823 33.1594H55.9487L55.2397 35.1106H53.3999L56.7456 26.5208H58.5796L62.019 35.1106ZM58.8257 31.7122L57.6421 28.5247L56.4819 31.7122H58.8257ZM62.5054 32.3157L64.1929 32.1516C64.2944 32.718 64.4995 33.134 64.8081 33.3997C65.1206 33.6653 65.5405 33.7981 66.0679 33.7981C66.6265 33.7981 67.0464 33.6809 67.3276 33.4465C67.6128 33.2083 67.7554 32.9309 67.7554 32.6145C67.7554 32.4114 67.6948 32.2395 67.5737 32.0989C67.4565 31.9543 67.2495 31.8293 66.9526 31.7239C66.7495 31.6536 66.2866 31.5286 65.564 31.3489C64.6343 31.1184 63.9819 30.8352 63.6069 30.4993C63.0796 30.0266 62.8159 29.4504 62.8159 28.7708C62.8159 28.3333 62.939 27.925 63.1851 27.5461C63.4351 27.1633 63.7925 26.8723 64.2573 26.6731C64.7261 26.4739 65.2905 26.3743 65.9507 26.3743C67.0288 26.3743 67.8394 26.6106 68.3823 27.0833C68.9292 27.5559 69.2163 28.1868 69.2437 28.9758L67.5093 29.052C67.4351 28.6106 67.2749 28.2942 67.0288 28.1028C66.7866 27.9075 66.4214 27.8098 65.9331 27.8098C65.4292 27.8098 65.0347 27.9133 64.7495 28.1204C64.5659 28.2532 64.4741 28.4309 64.4741 28.6536C64.4741 28.8567 64.5601 29.0305 64.7319 29.175C64.9507 29.3586 65.4819 29.55 66.3257 29.7493C67.1694 29.9485 67.7925 30.1555 68.1948 30.3704C68.6011 30.5813 68.9175 30.8723 69.144 31.2434C69.3745 31.6106 69.4897 32.0657 69.4897 32.6086C69.4897 33.1008 69.353 33.5618 69.0796 33.9915C68.8062 34.4211 68.4194 34.7415 67.9194 34.9524C67.4194 35.1594 66.7964 35.2629 66.0503 35.2629C64.9644 35.2629 64.1304 35.0129 63.5483 34.5129C62.9663 34.009 62.6187 33.2766 62.5054 32.3157ZM70.9487 35.1106V26.5208H77.3179V27.9739H72.6831V29.8782H76.9956V31.3254H72.6831V33.6633H77.4819V35.1106H70.9487Z" fill="white"/>
<defs>
<radialGradient id="paint0_radial_91_4810" cx="0" cy="0" r="1" gradientUnits="userSpaceOnUse" gradientTransform="translate(69.3765 18.9014) scale(25 20.2241)">
<stop offset="0.5107" stop-color="#B8871E"/>
<stop offset="0.7932" stop-color="#755613"/>
<stop offset="0.8415" stop-color="#6E5112"/>
<stop offset="0.9108" stop-color="#5B430F"/>
<stop offset="0.9716" stop-color="#45330B"/>
</radialGradient>
<radialGradient id="paint1_radial_91_4810" cx="0" cy="0" r="1" gradientUnits="userSpaceOnUse" gradientTransform="translate(21.9402 19.09) scale(22.8367 19.9935)">
<stop offset="0.5107" stop-color="#B8871E"/>
<stop offset="0.7932" stop-color="#755613"/>
<stop offset="0.8415" stop-color="#6E5112"/>
<stop offset="0.9108" stop-color="#5B430F"/>
<stop offset="0.9716" stop-color="#45330B"/>
</radialGradient>
<linearGradient id="paint2_linear_91_4810" x1="48.3704" y1="1.68359" x2="48.3704" y2="21.6836" gradientUnits="userSpaceOnUse">
<stop stop-color="#FF7400"/>
<stop offset="1" stop-color="#7F1600"/>
</linearGradient>
<linearGradient id="paint3_linear_91_4810" x1="47.6094" y1="38.6829" x2="47.6094" y2="24.0543" gradientUnits="userSpaceOnUse">
<stop stop-color="#012807"/>
<stop offset="1" stop-color="#025E11"/>
</linearGradient>
</defs>
</svg>
