<svg width="23" height="23" viewBox="0 0 23 23" fill="none" xmlns="http://www.w3.org/2000/svg">
<path d="M11.0752 22.5349C17.1503 22.5349 22.0752 17.61 22.0752 11.5349C22.0752 5.45978 17.1503 0.534912 11.0752 0.534912C5.00006 0.534912 0.0751953 5.45978 0.0751953 11.5349C0.0751953 17.61 5.00006 22.5349 11.0752 22.5349Z" fill="url(#paint0_radial_85_2333)"/>
<path d="M3.93262 6.94507H5.66699V11.5974C5.66699 12.3357 5.68848 12.8142 5.73145 13.033C5.80566 13.3845 5.98145 13.6677 6.25879 13.8826C6.54004 14.0935 6.92285 14.199 7.40723 14.199C7.89941 14.199 8.27051 14.0994 8.52051 13.9001C8.77051 13.697 8.9209 13.449 8.97168 13.156C9.02246 12.863 9.04785 12.3767 9.04785 11.697V6.94507H10.7822V11.4568C10.7822 12.488 10.7354 13.2166 10.6416 13.6423C10.5479 14.0681 10.374 14.4275 10.1201 14.7205C9.87012 15.0134 9.53418 15.2478 9.1123 15.4236C8.69043 15.5955 8.13965 15.6814 7.45996 15.6814C6.63965 15.6814 6.0166 15.5876 5.59082 15.4001C5.16895 15.2087 4.83496 14.9626 4.58887 14.6619C4.34277 14.3572 4.18066 14.0388 4.10254 13.7068C3.98926 13.2146 3.93262 12.488 3.93262 11.5271V6.94507ZM12.5342 15.5349V6.94507H14.1807V10.0388C14.6885 9.46069 15.29 9.17163 15.9854 9.17163C16.7432 9.17163 17.3701 9.44702 17.8662 9.9978C18.3623 10.5447 18.6104 11.3318 18.6104 12.3591C18.6104 13.4216 18.3564 14.24 17.8486 14.8142C17.3447 15.3884 16.7314 15.6755 16.0088 15.6755C15.6533 15.6755 15.3018 15.5876 14.9541 15.4119C14.6104 15.2322 14.3135 14.9685 14.0635 14.6208V15.5349H12.5342ZM14.1689 12.2888C14.1689 12.9333 14.2705 13.4099 14.4736 13.7185C14.7588 14.156 15.1377 14.3748 15.6104 14.3748C15.9736 14.3748 16.2822 14.2205 16.5361 13.9119C16.7939 13.5994 16.9229 13.1091 16.9229 12.4412C16.9229 11.7302 16.7939 11.2185 16.5361 10.906C16.2783 10.5896 15.9482 10.4314 15.5459 10.4314C15.1514 10.4314 14.8232 10.5857 14.5615 10.8943C14.2998 11.199 14.1689 11.6638 14.1689 12.2888Z" fill="white"/>
<defs>
<radialGradient id="paint0_radial_85_2333" cx="0" cy="0" r="1" gradientUnits="userSpaceOnUse" gradientTransform="translate(11.0752 11.5349) scale(11)">
<stop stop-color="#DABF68"/>
<stop offset="0.0962" stop-color="#AC9D68"/>
<stop offset="0.2063" stop-color="#807B67"/>
<stop offset="0.3213" stop-color="#595E67"/>
<stop offset="0.4395" stop-color="#3A4667"/>
<stop offset="0.5623" stop-color="#223466"/>
<stop offset="0.6913" stop-color="#112766"/>
<stop offset="0.8309" stop-color="#061F66"/>
<stop offset="1" stop-color="#031D66"/>
</radialGradient>
</defs>
</svg>
