<svg width="60" height="24" viewBox="0 0 60 24" fill="none" xmlns="http://www.w3.org/2000/svg">
<rect x="2" y="1.98901" width="57" height="20" rx="10" fill="url(#paint0_linear_66_2010)"/>
<rect x="2" y="1.98901" width="57" height="20" rx="10" stroke="#1CA97F" stroke-width="3" stroke-linejoin="round"/>
<path d="M10.3613 15.989V7.39917H13.1445C14.1992 7.39917 14.8867 7.44214 15.207 7.52808C15.6992 7.65698 16.1113 7.93823 16.4434 8.37183C16.7754 8.80151 16.9414 9.35815 16.9414 10.0417C16.9414 10.5691 16.8457 11.0125 16.6543 11.3718C16.4629 11.7312 16.2188 12.0144 15.9219 12.2214C15.6289 12.4246 15.3301 12.5593 15.0254 12.6257C14.6113 12.7078 14.0117 12.7488 13.2266 12.7488H12.0957V15.989H10.3613ZM12.0957 8.85229V11.2898H13.0449C13.7285 11.2898 14.1855 11.2449 14.416 11.155C14.6465 11.0652 14.8262 10.9246 14.9551 10.7332C15.0879 10.5417 15.1543 10.3191 15.1543 10.0652C15.1543 9.75269 15.0625 9.49487 14.8789 9.29175C14.6953 9.08862 14.4629 8.96167 14.1816 8.91089C13.9746 8.87183 13.5586 8.85229 12.9336 8.85229H12.0957ZM18.3711 15.989V7.39917H22.0215C22.9395 7.39917 23.6055 7.47729 24.0195 7.63354C24.4375 7.78589 24.7715 8.05933 25.0215 8.45386C25.2715 8.84839 25.3965 9.29956 25.3965 9.80737C25.3965 10.4519 25.207 10.9851 24.8281 11.407C24.4492 11.825 23.8828 12.0886 23.1289 12.198C23.5039 12.4167 23.8125 12.657 24.0547 12.9187C24.3008 13.1804 24.6309 13.6453 25.0449 14.3132L26.0938 15.989H24.0195L22.7656 14.1199C22.3203 13.4519 22.0156 13.032 21.8516 12.8601C21.6875 12.6843 21.5137 12.5652 21.3301 12.5027C21.1465 12.4363 20.8555 12.4031 20.457 12.4031H20.1055V15.989H18.3711ZM20.1055 11.032H21.3887C22.2207 11.032 22.7402 10.9968 22.9473 10.9265C23.1543 10.8562 23.3164 10.7351 23.4336 10.5632C23.5508 10.3914 23.6094 10.1765 23.6094 9.9187C23.6094 9.62964 23.5312 9.39722 23.375 9.22144C23.2227 9.04175 23.0059 8.92847 22.7246 8.88159C22.584 8.86206 22.1621 8.85229 21.459 8.85229H20.1055V11.032ZM27.0312 7.39917H30.2012C30.916 7.39917 31.4609 7.45386 31.8359 7.56323C32.3398 7.71167 32.7715 7.97534 33.1309 8.35425C33.4902 8.73315 33.7637 9.198 33.9512 9.74878C34.1387 10.2957 34.2324 10.9714 34.2324 11.7761C34.2324 12.4832 34.1445 13.0925 33.9688 13.6042C33.7539 14.2292 33.4473 14.7351 33.0488 15.1218C32.748 15.4148 32.3418 15.6433 31.8301 15.8074C31.4473 15.9285 30.9355 15.989 30.2949 15.989H27.0312V7.39917ZM28.7656 8.85229V14.5417H30.0605C30.5449 14.5417 30.8945 14.5144 31.1094 14.4597C31.3906 14.3894 31.623 14.2703 31.8066 14.1023C31.9941 13.9343 32.1465 13.6589 32.2637 13.2761C32.3809 12.8894 32.4395 12.364 32.4395 11.7C32.4395 11.0359 32.3809 10.5261 32.2637 10.1707C32.1465 9.81519 31.9824 9.53784 31.7715 9.33862C31.5605 9.1394 31.293 9.00464 30.9688 8.93433C30.7266 8.87964 30.252 8.85229 29.5449 8.85229H28.7656ZM35.6855 15.989V7.39917H38.2812L39.8398 13.2585L41.3809 7.39917H43.9824V15.989H42.3711V9.22729L40.666 15.989H38.9961L37.2969 9.22729V15.989H35.6855ZM48.5703 15.989V14.2605H45.0547V12.8191L48.7812 7.36401H50.1641V12.8132H51.2305V14.2605H50.1641V15.989H48.5703ZM48.5703 12.8132V9.87769L46.5957 12.8132H48.5703Z" fill="white"/>
<defs>
<linearGradient id="paint0_linear_66_2010" x1="30.5" y1="1.98901" x2="30.5" y2="21.989" gradientUnits="userSpaceOnUse">
<stop stop-color="#1CA97F"/>
<stop offset="1" stop-color="#505DE7"/>
</linearGradient>
</defs>
</svg>
