<svg width="64" height="24" viewBox="0 0 64 24" fill="none" xmlns="http://www.w3.org/2000/svg">
<rect x="2" y="1.98901" width="61" height="20" rx="10" fill="url(#paint0_linear_85_2099)"/>
<rect x="2" y="1.98901" width="61" height="20" rx="10" stroke="#63A56A" stroke-width="3" stroke-linejoin="round"/>
<path d="M10.0059 7.39917H11.7402V12.0515C11.7402 12.7898 11.7617 13.2683 11.8047 13.4871C11.8789 13.8386 12.0547 14.1218 12.332 14.3367C12.6133 14.5476 12.9961 14.6531 13.4805 14.6531C13.9727 14.6531 14.3438 14.5535 14.5938 14.3542C14.8438 14.1511 14.9941 13.9031 15.0449 13.6101C15.0957 13.3171 15.1211 12.8308 15.1211 12.1511V7.39917H16.8555V11.9109C16.8555 12.9421 16.8086 13.6707 16.7148 14.0964C16.6211 14.5222 16.4473 14.8816 16.1934 15.1746C15.9434 15.4675 15.6074 15.7019 15.1855 15.8777C14.7637 16.0496 14.2129 16.1355 13.5332 16.1355C12.7129 16.1355 12.0898 16.0417 11.6641 15.8542C11.2422 15.6628 10.9082 15.4167 10.6621 15.116C10.416 14.8113 10.2539 14.4929 10.1758 14.1609C10.0625 13.6687 10.0059 12.9421 10.0059 11.9812V7.39917ZM18.6953 7.39917H22.1289C22.8086 7.39917 23.3145 7.42847 23.6465 7.48706C23.9824 7.54175 24.2812 7.65894 24.543 7.83862C24.8086 8.01831 25.0293 8.25854 25.2051 8.55933C25.3809 8.8562 25.4688 9.19019 25.4688 9.56128C25.4688 9.96362 25.3594 10.3328 25.1406 10.6687C24.9258 11.0046 24.6328 11.2566 24.2617 11.4246C24.7852 11.5769 25.1875 11.8367 25.4688 12.2039C25.75 12.571 25.8906 13.0027 25.8906 13.4988C25.8906 13.8894 25.7988 14.2703 25.6152 14.6414C25.4355 15.0085 25.1875 15.3035 24.8711 15.5261C24.5586 15.7449 24.1719 15.8796 23.7109 15.9304C23.4219 15.9617 22.7246 15.9812 21.6191 15.989H18.6953V7.39917ZM20.4297 8.82886V10.8152H21.5664C22.2422 10.8152 22.6621 10.8054 22.8262 10.7859C23.123 10.7507 23.3555 10.6492 23.5234 10.4812C23.6953 10.3093 23.7812 10.0847 23.7812 9.80737C23.7812 9.54175 23.707 9.3269 23.5586 9.16284C23.4141 8.99487 23.1973 8.89331 22.9082 8.85815C22.7363 8.83862 22.2422 8.82886 21.4258 8.82886H20.4297ZM20.4297 12.2449V14.5417H22.0352C22.6602 14.5417 23.0566 14.5242 23.2246 14.489C23.4824 14.4421 23.6914 14.3289 23.8516 14.1492C24.0156 13.9656 24.0977 13.7214 24.0977 13.4167C24.0977 13.1589 24.0352 12.9402 23.9102 12.7605C23.7852 12.5808 23.6035 12.45 23.3652 12.3679C23.1309 12.2859 22.6191 12.2449 21.8301 12.2449H20.4297ZM27.3613 15.989V7.39917H33.7305V8.85229H29.0957V10.7566H33.4082V12.2039H29.0957V14.5417H33.8945V15.989H27.3613ZM40.5625 14.4597V15.989H34.791C34.8535 15.4109 35.041 14.864 35.3535 14.3484C35.666 13.8289 36.2832 13.1414 37.2051 12.2859C37.9473 11.5945 38.4023 11.1257 38.5703 10.8796C38.7969 10.5398 38.9102 10.2039 38.9102 9.87183C38.9102 9.50464 38.8105 9.22339 38.6113 9.02808C38.416 8.82886 38.1445 8.72925 37.7969 8.72925C37.4531 8.72925 37.1797 8.83276 36.9766 9.03979C36.7734 9.24683 36.6562 9.59058 36.625 10.071L34.9844 9.90698C35.082 9.00073 35.3887 8.35034 35.9043 7.95581C36.4199 7.56128 37.0645 7.36401 37.8379 7.36401C38.6855 7.36401 39.3516 7.59253 39.8359 8.04956C40.3203 8.50659 40.5625 9.07495 40.5625 9.75464C40.5625 10.1414 40.4922 10.5105 40.3516 10.8621C40.2148 11.2097 39.9961 11.575 39.6953 11.9578C39.4961 12.2117 39.1367 12.5769 38.6172 13.0535C38.0977 13.53 37.7676 13.8464 37.627 14.0027C37.4902 14.1589 37.3789 14.3113 37.293 14.4597H40.5625ZM42.0449 15.989V7.39917H48.4141V8.85229H43.7793V10.7566H48.0918V12.2039H43.7793V14.5417H48.5781V15.989H42.0449ZM55.2461 14.4597V15.989H49.4746C49.5371 15.4109 49.7246 14.864 50.0371 14.3484C50.3496 13.8289 50.9668 13.1414 51.8887 12.2859C52.6309 11.5945 53.0859 11.1257 53.2539 10.8796C53.4805 10.5398 53.5938 10.2039 53.5938 9.87183C53.5938 9.50464 53.4941 9.22339 53.2949 9.02808C53.0996 8.82886 52.8281 8.72925 52.4805 8.72925C52.1367 8.72925 51.8633 8.83276 51.6602 9.03979C51.457 9.24683 51.3398 9.59058 51.3086 10.071L49.668 9.90698C49.7656 9.00073 50.0723 8.35034 50.5879 7.95581C51.1035 7.56128 51.748 7.36401 52.5215 7.36401C53.3691 7.36401 54.0352 7.59253 54.5195 8.04956C55.0039 8.50659 55.2461 9.07495 55.2461 9.75464C55.2461 10.1414 55.1758 10.5105 55.0352 10.8621C54.8984 11.2097 54.6797 11.575 54.3789 11.9578C54.1797 12.2117 53.8203 12.5769 53.3008 13.0535C52.7812 13.53 52.4512 13.8464 52.3105 14.0027C52.1738 14.1589 52.0625 14.3113 51.9766 14.4597H55.2461Z" fill="white"/>
<defs>
<linearGradient id="paint0_linear_85_2099" x1="32.5" y1="1.98901" x2="32.5" y2="21.989" gradientUnits="userSpaceOnUse">
<stop stop-color="#63A56A"/>
<stop offset="1" stop-color="#00439B"/>
</linearGradient>
</defs>
</svg>
