<svg width="87" height="36" viewBox="0 0 87 36" fill="none" xmlns="http://www.w3.org/2000/svg">
<rect x="2" y="1.98901" width="84" height="32" rx="10" fill="url(#paint0_linear_40_2549)"/>
<rect x="2" y="1.98901" width="84" height="32" rx="10" stroke="#CF7200" stroke-width="3" stroke-linejoin="round"/>
<path d="M15.459 11.8308L17.1406 12.364C16.8828 13.3015 16.4531 13.9988 15.8516 14.4558C15.2539 14.9089 14.4941 15.1355 13.5723 15.1355C12.4316 15.1355 11.4941 14.7468 10.7598 13.9695C10.0254 13.1882 9.6582 12.1218 9.6582 10.7703C9.6582 9.34058 10.0273 8.2312 10.7656 7.44214C11.5039 6.64917 12.4746 6.25269 13.6777 6.25269C14.7285 6.25269 15.582 6.56323 16.2383 7.18433C16.6289 7.55151 16.9219 8.07886 17.1172 8.76636L15.4004 9.17651C15.2988 8.7312 15.0859 8.37964 14.7617 8.12183C14.4414 7.86401 14.0508 7.73511 13.5898 7.73511C12.9531 7.73511 12.4355 7.96362 12.0371 8.42065C11.6426 8.87769 11.4453 9.61792 11.4453 10.6414C11.4453 11.7273 11.6406 12.5007 12.0312 12.9617C12.4219 13.4226 12.9297 13.6531 13.5547 13.6531C14.0156 13.6531 14.4121 13.5066 14.7441 13.2136C15.0762 12.9207 15.3145 12.4597 15.459 11.8308ZM20.8906 14.989V11.3738L17.7441 6.39917H19.7773L21.7988 9.79761L23.7793 6.39917H25.7773L22.6191 11.3855V14.989H20.8906ZM28.5723 14.989V7.85229H26.0234V6.39917H32.8496V7.85229H30.3066V14.989H28.5723ZM33.4004 10.7468C33.4004 9.87183 33.5312 9.13745 33.793 8.5437C33.9883 8.1062 34.2539 7.71362 34.5898 7.36597C34.9297 7.01831 35.3008 6.7605 35.7031 6.59253C36.2383 6.36597 36.8555 6.25269 37.5547 6.25269C38.8203 6.25269 39.832 6.64526 40.5898 7.43042C41.3516 8.21558 41.7324 9.30737 41.7324 10.7058C41.7324 12.0925 41.3555 13.1785 40.6016 13.9636C39.8477 14.7449 38.8398 15.1355 37.5781 15.1355C36.3008 15.1355 35.2852 14.7468 34.5312 13.9695C33.7773 13.1882 33.4004 12.114 33.4004 10.7468ZM35.1875 10.6882C35.1875 11.6609 35.4121 12.3992 35.8613 12.9031C36.3105 13.4031 36.8809 13.6531 37.5723 13.6531C38.2637 13.6531 38.8301 13.405 39.2715 12.9089C39.7168 12.4089 39.9395 11.6609 39.9395 10.6648C39.9395 9.68042 39.7227 8.94604 39.2891 8.46167C38.8594 7.97729 38.2871 7.73511 37.5723 7.73511C36.8574 7.73511 36.2812 7.9812 35.8438 8.47339C35.4062 8.96167 35.1875 9.69995 35.1875 10.6882ZM42.6523 12.1941L44.3398 12.03C44.4414 12.5964 44.6465 13.0125 44.9551 13.2781C45.2676 13.5437 45.6875 13.6765 46.2148 13.6765C46.7734 13.6765 47.1934 13.5593 47.4746 13.325C47.7598 13.0867 47.9023 12.8093 47.9023 12.4929C47.9023 12.2898 47.8418 12.1179 47.7207 11.9773C47.6035 11.8328 47.3965 11.7078 47.0996 11.6023C46.8965 11.532 46.4336 11.407 45.7109 11.2273C44.7812 10.9968 44.1289 10.7136 43.7539 10.3777C43.2266 9.90503 42.9629 9.32886 42.9629 8.64917C42.9629 8.21167 43.0859 7.80347 43.332 7.42456C43.582 7.04175 43.9395 6.75073 44.4043 6.55151C44.873 6.35229 45.4375 6.25269 46.0977 6.25269C47.1758 6.25269 47.9863 6.48901 48.5293 6.96167C49.0762 7.43433 49.3633 8.06519 49.3906 8.85425L47.6562 8.93042C47.582 8.48901 47.4219 8.17261 47.1758 7.9812C46.9336 7.78589 46.5684 7.68823 46.0801 7.68823C45.5762 7.68823 45.1816 7.79175 44.8965 7.99878C44.7129 8.13159 44.6211 8.30933 44.6211 8.53198C44.6211 8.73511 44.707 8.90894 44.8789 9.05347C45.0977 9.23706 45.6289 9.42847 46.4727 9.62769C47.3164 9.8269 47.9395 10.0339 48.3418 10.2488C48.748 10.4597 49.0645 10.7507 49.291 11.1218C49.5215 11.489 49.6367 11.9441 49.6367 12.4871C49.6367 12.9792 49.5 13.4402 49.2266 13.8699C48.9531 14.2996 48.5664 14.6199 48.0664 14.8308C47.5664 15.0378 46.9434 15.1414 46.1973 15.1414C45.1113 15.1414 44.2773 14.8914 43.6953 14.3914C43.1133 13.8875 42.7656 13.155 42.6523 12.1941ZM50.7441 10.7468C50.7441 9.87183 50.875 9.13745 51.1367 8.5437C51.332 8.1062 51.5977 7.71362 51.9336 7.36597C52.2734 7.01831 52.6445 6.7605 53.0469 6.59253C53.582 6.36597 54.1992 6.25269 54.8984 6.25269C56.1641 6.25269 57.1758 6.64526 57.9336 7.43042C58.6953 8.21558 59.0762 9.30737 59.0762 10.7058C59.0762 12.0925 58.6992 13.1785 57.9453 13.9636C57.1914 14.7449 56.1836 15.1355 54.9219 15.1355C53.6445 15.1355 52.6289 14.7468 51.875 13.9695C51.1211 13.1882 50.7441 12.114 50.7441 10.7468ZM52.5312 10.6882C52.5312 11.6609 52.7559 12.3992 53.2051 12.9031C53.6543 13.4031 54.2246 13.6531 54.916 13.6531C55.6074 13.6531 56.1738 13.405 56.6152 12.9089C57.0605 12.4089 57.2832 11.6609 57.2832 10.6648C57.2832 9.68042 57.0664 8.94604 56.6328 8.46167C56.2031 7.97729 55.6309 7.73511 54.916 7.73511C54.2012 7.73511 53.625 7.9812 53.1875 8.47339C52.75 8.96167 52.5312 9.69995 52.5312 10.6882ZM60.4824 14.989V6.46948H62.2168V13.5417H66.5293V14.989H60.4824ZM67.7188 14.989V6.39917H69.4531V14.989H67.7188ZM76.6074 11.8308L78.2891 12.364C78.0312 13.3015 77.6016 13.9988 77 14.4558C76.4023 14.9089 75.6426 15.1355 74.7207 15.1355C73.5801 15.1355 72.6426 14.7468 71.9082 13.9695C71.1738 13.1882 70.8066 12.1218 70.8066 10.7703C70.8066 9.34058 71.1758 8.2312 71.9141 7.44214C72.6523 6.64917 73.623 6.25269 74.8262 6.25269C75.877 6.25269 76.7305 6.56323 77.3867 7.18433C77.7773 7.55151 78.0703 8.07886 78.2656 8.76636L76.5488 9.17651C76.4473 8.7312 76.2344 8.37964 75.9102 8.12183C75.5898 7.86401 75.1992 7.73511 74.7383 7.73511C74.1016 7.73511 73.584 7.96362 73.1855 8.42065C72.791 8.87769 72.5938 9.61792 72.5938 10.6414C72.5938 11.7273 72.7891 12.5007 73.1797 12.9617C73.5703 13.4226 74.0781 13.6531 74.7031 13.6531C75.1641 13.6531 75.5605 13.5066 75.8926 13.2136C76.2246 12.9207 76.4629 12.4597 76.6074 11.8308ZM18.1895 28.989V20.3992H20.9727C22.0273 20.3992 22.7148 20.4421 23.0352 20.5281C23.5273 20.657 23.9395 20.9382 24.2715 21.3718C24.6035 21.8015 24.7695 22.3582 24.7695 23.0417C24.7695 23.5691 24.6738 24.0125 24.4824 24.3718C24.291 24.7312 24.0469 25.0144 23.75 25.2214C23.457 25.4246 23.1582 25.5593 22.8535 25.6257C22.4395 25.7078 21.8398 25.7488 21.0547 25.7488H19.9238V28.989H18.1895ZM19.9238 21.8523V24.2898H20.873C21.5566 24.2898 22.0137 24.2449 22.2441 24.155C22.4746 24.0652 22.6543 23.9246 22.7832 23.7332C22.916 23.5417 22.9824 23.3191 22.9824 23.0652C22.9824 22.7527 22.8906 22.4949 22.707 22.2917C22.5234 22.0886 22.291 21.9617 22.0098 21.9109C21.8027 21.8718 21.3867 21.8523 20.7617 21.8523H19.9238ZM26.1992 28.989V20.3992H29.8496C30.7676 20.3992 31.4336 20.4773 31.8477 20.6335C32.2656 20.7859 32.5996 21.0593 32.8496 21.4539C33.0996 21.8484 33.2246 22.2996 33.2246 22.8074C33.2246 23.4519 33.0352 23.9851 32.6562 24.407C32.2773 24.825 31.7109 25.0886 30.957 25.198C31.332 25.4167 31.6406 25.657 31.8828 25.9187C32.1289 26.1804 32.459 26.6453 32.873 27.3132L33.9219 28.989H31.8477L30.5938 27.1199C30.1484 26.4519 29.8438 26.032 29.6797 25.8601C29.5156 25.6843 29.3418 25.5652 29.1582 25.5027C28.9746 25.4363 28.6836 25.4031 28.2852 25.4031H27.9336V28.989H26.1992ZM27.9336 24.032H29.2168C30.0488 24.032 30.5684 23.9968 30.7754 23.9265C30.9824 23.8562 31.1445 23.7351 31.2617 23.5632C31.3789 23.3914 31.4375 23.1765 31.4375 22.9187C31.4375 22.6296 31.3594 22.3972 31.2031 22.2214C31.0508 22.0417 30.834 21.9285 30.5527 21.8816C30.4121 21.8621 29.9902 21.8523 29.2871 21.8523H27.9336V24.032ZM34.5137 24.7468C34.5137 23.8718 34.6445 23.1375 34.9062 22.5437C35.1016 22.1062 35.3672 21.7136 35.7031 21.366C36.043 21.0183 36.4141 20.7605 36.8164 20.5925C37.3516 20.366 37.9688 20.2527 38.668 20.2527C39.9336 20.2527 40.9453 20.6453 41.7031 21.4304C42.4648 22.2156 42.8457 23.3074 42.8457 24.7058C42.8457 26.0925 42.4688 27.1785 41.7148 27.9636C40.9609 28.7449 39.9531 29.1355 38.6914 29.1355C37.4141 29.1355 36.3984 28.7468 35.6445 27.9695C34.8906 27.1882 34.5137 26.114 34.5137 24.7468ZM36.3008 24.6882C36.3008 25.6609 36.5254 26.3992 36.9746 26.9031C37.4238 27.4031 37.9941 27.6531 38.6855 27.6531C39.377 27.6531 39.9434 27.405 40.3848 26.9089C40.8301 26.4089 41.0527 25.6609 41.0527 24.6648C41.0527 23.6804 40.8359 22.946 40.4023 22.4617C39.9727 21.9773 39.4004 21.7351 38.6855 21.7351C37.9707 21.7351 37.3945 21.9812 36.957 22.4734C36.5195 22.9617 36.3008 23.7 36.3008 24.6882ZM46.1387 28.989V21.8523H43.5898V20.3992H50.416V21.8523H47.873V28.989H46.1387ZM51.541 28.989V20.3992H57.9102V21.8523H53.2754V23.7566H57.5879V25.2039H53.2754V27.5417H58.0742V28.989H51.541ZM59.4922 28.989V20.3992H61.2266V28.989H59.4922ZM62.9023 28.989V20.3992H64.5898L68.1055 26.1355V20.3992H69.7168V28.989H67.9766L64.5137 23.3875V28.989H62.9023Z" fill="white"/>
<defs>
<linearGradient id="paint0_linear_40_2549" x1="44" y1="1.98901" x2="44" y2="33.989" gradientUnits="userSpaceOnUse">
<stop stop-color="#B049C7"/>
<stop offset="1" stop-color="#CF7200"/>
</linearGradient>
</defs>
</svg>
