<svg width="52" height="24" viewBox="0 0 52 24" fill="none" xmlns="http://www.w3.org/2000/svg">
<rect x="2" y="1.98901" width="49" height="20" rx="10" fill="url(#paint0_linear_40_2533)"/>
<rect x="2" y="1.98901" width="49" height="20" rx="10" stroke="#EE0059" stroke-width="3" stroke-linejoin="round"/>
<path d="M15.5254 12.8308L17.207 13.364C16.9492 14.3015 16.5195 14.9988 15.918 15.4558C15.3203 15.9089 14.5605 16.1355 13.6387 16.1355C12.498 16.1355 11.5605 15.7468 10.8262 14.9695C10.0918 14.1882 9.72461 13.1218 9.72461 11.7703C9.72461 10.3406 10.0938 9.2312 10.832 8.44214C11.5703 7.64917 12.541 7.25269 13.7441 7.25269C14.7949 7.25269 15.6484 7.56323 16.3047 8.18433C16.6953 8.55151 16.9883 9.07886 17.1836 9.76636L15.4668 10.1765C15.3652 9.7312 15.1523 9.37964 14.8281 9.12183C14.5078 8.86401 14.1172 8.73511 13.6562 8.73511C13.0195 8.73511 12.502 8.96362 12.1035 9.42065C11.709 9.87769 11.5117 10.6179 11.5117 11.6414C11.5117 12.7273 11.707 13.5007 12.0977 13.9617C12.4883 14.4226 12.9961 14.6531 13.6211 14.6531C14.082 14.6531 14.4785 14.5066 14.8105 14.2136C15.1426 13.9207 15.3809 13.4597 15.5254 12.8308ZM18.707 15.989V7.39917H20.4414V10.78H23.8398V7.39917H25.5742V15.989H23.8398V12.2332H20.4414V15.989H18.707ZM27.3613 7.39917H29.0957V12.0515C29.0957 12.7898 29.1172 13.2683 29.1602 13.4871C29.2344 13.8386 29.4102 14.1218 29.6875 14.3367C29.9688 14.5476 30.3516 14.6531 30.8359 14.6531C31.3281 14.6531 31.6992 14.5535 31.9492 14.3542C32.1992 14.1511 32.3496 13.9031 32.4004 13.6101C32.4512 13.3171 32.4766 12.8308 32.4766 12.1511V7.39917H34.2109V11.9109C34.2109 12.9421 34.1641 13.6707 34.0703 14.0964C33.9766 14.5222 33.8027 14.8816 33.5488 15.1746C33.2988 15.4675 32.9629 15.7019 32.541 15.8777C32.1191 16.0496 31.5684 16.1355 30.8887 16.1355C30.0684 16.1355 29.4453 16.0417 29.0195 15.8542C28.5977 15.6628 28.2637 15.4167 28.0176 15.116C27.7715 14.8113 27.6094 14.4929 27.5312 14.1609C27.418 13.6687 27.3613 12.9421 27.3613 11.9812V7.39917ZM36.0684 15.989V7.39917H37.8027V11.2136L41.3066 7.39917H43.6387L40.4043 10.7449L43.8145 15.989H41.5703L39.209 11.9578L37.8027 13.3933V15.989H36.0684Z" fill="white"/>
<defs>
<linearGradient id="paint0_linear_40_2533" x1="26.5" y1="1.98901" x2="26.5" y2="21.989" gradientUnits="userSpaceOnUse">
<stop stop-color="#EE0059"/>
<stop offset="1" stop-color="#DFEA00"/>
</linearGradient>
</defs>
</svg>
