<svg width="71" height="24" viewBox="0 0 71 24" fill="none" xmlns="http://www.w3.org/2000/svg">
<rect x="1" y="1.98901" width="69" height="20" rx="10" fill="url(#paint0_linear_45_4223)"/>
<rect x="1" y="1.98901" width="69" height="20" rx="10" stroke="#354400" stroke-width="3" stroke-linejoin="round"/>
<path d="M13.0117 12.8308V11.3835H16.75V14.8054C16.3867 15.157 15.8594 15.4675 15.168 15.7371C14.4805 16.0027 13.7832 16.1355 13.0762 16.1355C12.1777 16.1355 11.3945 15.948 10.7266 15.573C10.0586 15.1941 9.55664 14.655 9.2207 13.9558C8.88477 13.2527 8.7168 12.489 8.7168 11.6648C8.7168 10.7703 8.9043 9.97534 9.2793 9.28003C9.6543 8.58472 10.2031 8.05151 10.9258 7.68042C11.4766 7.39526 12.1621 7.25269 12.9824 7.25269C14.0488 7.25269 14.8809 7.47729 15.4785 7.92651C16.0801 8.37183 16.4668 8.98901 16.6387 9.77808L14.916 10.1003C14.7949 9.67847 14.5664 9.34644 14.2305 9.10425C13.8984 8.85815 13.4824 8.73511 12.9824 8.73511C12.2246 8.73511 11.6211 8.97534 11.1719 9.45581C10.7266 9.93628 10.5039 10.6492 10.5039 11.5945C10.5039 12.614 10.7305 13.3796 11.1836 13.8914C11.6367 14.3992 12.2305 14.6531 12.9648 14.6531C13.3281 14.6531 13.6914 14.5828 14.0547 14.4421C14.4219 14.2976 14.7363 14.1238 14.998 13.9207V12.8308H13.0117ZM26.1016 15.989H24.2148L23.4648 14.0378H20.0312L19.3223 15.989H17.4824L20.8281 7.39917H22.6621L26.1016 15.989ZM22.9082 12.5906L21.7246 9.40308L20.5645 12.5906H22.9082ZM27.0742 15.989V7.46948H28.8086V14.5417H33.1211V15.989H27.0742ZM34.3809 15.989V7.39917H36.0684L39.584 13.1355V7.39917H41.1953V15.989H39.4551L35.9922 10.3875V15.989H34.3809ZM44.9688 15.989V8.85229H42.4199V7.39917H49.2461V8.85229H46.7031V15.989H44.9688ZM54.2207 15.989H52.5742V9.78394C51.9727 10.3464 51.2637 10.7625 50.4473 11.032V9.53784C50.877 9.39722 51.3438 9.13159 51.8477 8.74097C52.3516 8.34644 52.6973 7.88745 52.8848 7.36401H54.2207V15.989ZM62.248 14.4597V15.989H56.4766C56.5391 15.4109 56.7266 14.864 57.0391 14.3484C57.3516 13.8289 57.9688 13.1414 58.8906 12.2859C59.6328 11.5945 60.0879 11.1257 60.2559 10.8796C60.4824 10.5398 60.5957 10.2039 60.5957 9.87183C60.5957 9.50464 60.4961 9.22339 60.2969 9.02808C60.1016 8.82886 59.8301 8.72925 59.4824 8.72925C59.1387 8.72925 58.8652 8.83276 58.6621 9.03979C58.459 9.24683 58.3418 9.59058 58.3105 10.071L56.6699 9.90698C56.7676 9.00073 57.0742 8.35034 57.5898 7.95581C58.1055 7.56128 58.75 7.36401 59.5234 7.36401C60.3711 7.36401 61.0371 7.59253 61.5215 8.04956C62.0059 8.50659 62.248 9.07495 62.248 9.75464C62.248 10.1414 62.1777 10.5105 62.0371 10.8621C61.9004 11.2097 61.6816 11.575 61.3809 11.9578C61.1816 12.2117 60.8223 12.5769 60.3027 13.0535C59.7832 13.53 59.4531 13.8464 59.3125 14.0027C59.1758 14.1589 59.0645 14.3113 58.9785 14.4597H62.248Z" fill="white"/>
<defs>
<linearGradient id="paint0_linear_45_4223" x1="35.5" y1="1.98901" x2="35.5" y2="21.989" gradientUnits="userSpaceOnUse">
<stop stop-color="#354400"/>
<stop offset="1" stop-color="#FF9271"/>
</linearGradient>
</defs>
</svg>
