<svg width="58" height="24" viewBox="0 0 58 24" fill="none" xmlns="http://www.w3.org/2000/svg">
<rect x="2" y="1.98901" width="55" height="20" rx="10" fill="url(#paint0_linear_42_2591)"/>
<rect x="2" y="1.98901" width="55" height="20" rx="10" stroke="#FF57FF" stroke-width="3" stroke-linejoin="round"/>
<path d="M10.0293 15.989V7.39917H16.3984V8.85229H11.7637V10.7566H16.0762V12.2039H11.7637V14.5417H16.5625V15.989H10.0293ZM18.0391 15.989V7.39917H19.7734V10.78H23.1719V7.39917H24.9062V15.989H23.1719V12.2332H19.7734V15.989H18.0391ZM26.6816 15.989V7.39917H29.2773L30.8359 13.2585L32.377 7.39917H34.9785V15.989H33.3672V9.22729L31.6621 15.989H29.9922L28.293 9.22729V15.989H26.6816ZM38.6348 15.989V8.85229H36.0859V7.39917H42.9121V8.85229H40.3691V15.989H38.6348ZM49.2344 14.4597V15.989H43.4629C43.5254 15.4109 43.7129 14.864 44.0254 14.3484C44.3379 13.8289 44.9551 13.1414 45.877 12.2859C46.6191 11.5945 47.0742 11.1257 47.2422 10.8796C47.4688 10.5398 47.582 10.2039 47.582 9.87183C47.582 9.50464 47.4824 9.22339 47.2832 9.02808C47.0879 8.82886 46.8164 8.72925 46.4688 8.72925C46.125 8.72925 45.8516 8.83276 45.6484 9.03979C45.4453 9.24683 45.3281 9.59058 45.2969 10.071L43.6562 9.90698C43.7539 9.00073 44.0605 8.35034 44.5762 7.95581C45.0918 7.56128 45.7363 7.36401 46.5098 7.36401C47.3574 7.36401 48.0234 7.59253 48.5078 8.04956C48.9922 8.50659 49.2344 9.07495 49.2344 9.75464C49.2344 10.1414 49.1641 10.5105 49.0234 10.8621C48.8867 11.2097 48.668 11.575 48.3672 11.9578C48.168 12.2117 47.8086 12.5769 47.2891 13.0535C46.7695 13.53 46.4395 13.8464 46.2988 14.0027C46.1621 14.1589 46.0508 14.3113 45.9648 14.4597H49.2344Z" fill="white"/>
<defs>
<linearGradient id="paint0_linear_42_2591" x1="29.5" y1="1.98901" x2="29.5" y2="21.989" gradientUnits="userSpaceOnUse">
<stop stop-color="#FF57FF"/>
<stop offset="1" stop-color="#FF926E"/>
</linearGradient>
</defs>
</svg>
