<svg width="106" height="24" viewBox="0 0 106 24" fill="none" xmlns="http://www.w3.org/2000/svg">
<rect x="1" y="1.98901" width="104" height="20" rx="10" fill="url(#paint0_linear_65_1994)"/>
<rect x="1" y="1.98901" width="104" height="20" rx="10" stroke="#B79C2A" stroke-width="3" stroke-linejoin="round"/>
<path d="M9.18359 15.989V7.39917H11.9668C13.0215 7.39917 13.709 7.44214 14.0293 7.52808C14.5215 7.65698 14.9336 7.93823 15.2656 8.37183C15.5977 8.80151 15.7637 9.35815 15.7637 10.0417C15.7637 10.5691 15.668 11.0125 15.4766 11.3718C15.2852 11.7312 15.041 12.0144 14.7441 12.2214C14.4512 12.4246 14.1523 12.5593 13.8477 12.6257C13.4336 12.7078 12.834 12.7488 12.0488 12.7488H10.918V15.989H9.18359ZM10.918 8.85229V11.2898H11.8672C12.5508 11.2898 13.0078 11.2449 13.2383 11.155C13.4688 11.0652 13.6484 10.9246 13.7773 10.7332C13.9102 10.5417 13.9766 10.3191 13.9766 10.0652C13.9766 9.75269 13.8848 9.49487 13.7012 9.29175C13.5176 9.08862 13.2852 8.96167 13.0039 8.91089C12.7969 8.87183 12.3809 8.85229 11.7559 8.85229H10.918ZM17.2344 15.989V7.46948H18.9688V14.5417H23.2812V15.989H17.2344ZM32.2695 15.989H30.3828L29.6328 14.0378H26.1992L25.4902 15.989H23.6504L26.9961 7.39917H28.8301L32.2695 15.989ZM29.0762 12.5906L27.8926 9.40308L26.7324 12.5906H29.0762ZM32.7559 13.1941L34.4434 13.03C34.5449 13.5964 34.75 14.0125 35.0586 14.2781C35.3711 14.5437 35.791 14.6765 36.3184 14.6765C36.877 14.6765 37.2969 14.5593 37.5781 14.325C37.8633 14.0867 38.0059 13.8093 38.0059 13.4929C38.0059 13.2898 37.9453 13.1179 37.8242 12.9773C37.707 12.8328 37.5 12.7078 37.2031 12.6023C37 12.532 36.5371 12.407 35.8145 12.2273C34.8848 11.9968 34.2324 11.7136 33.8574 11.3777C33.3301 10.905 33.0664 10.3289 33.0664 9.64917C33.0664 9.21167 33.1895 8.80347 33.4355 8.42456C33.6855 8.04175 34.043 7.75073 34.5078 7.55151C34.9766 7.35229 35.541 7.25269 36.2012 7.25269C37.2793 7.25269 38.0898 7.48901 38.6328 7.96167C39.1797 8.43433 39.4668 9.06519 39.4941 9.85425L37.7598 9.93042C37.6855 9.48901 37.5254 9.17261 37.2793 8.9812C37.0371 8.78589 36.6719 8.68823 36.1836 8.68823C35.6797 8.68823 35.2852 8.79175 35 8.99878C34.8164 9.13159 34.7246 9.30933 34.7246 9.53198C34.7246 9.73511 34.8105 9.90894 34.9824 10.0535C35.2012 10.2371 35.7324 10.4285 36.5762 10.6277C37.4199 10.8269 38.043 11.0339 38.4453 11.2488C38.8516 11.4597 39.168 11.7507 39.3945 12.1218C39.625 12.489 39.7402 12.9441 39.7402 13.4871C39.7402 13.9792 39.6035 14.4402 39.3301 14.8699C39.0566 15.2996 38.6699 15.6199 38.1699 15.8308C37.6699 16.0378 37.0469 16.1414 36.3008 16.1414C35.2148 16.1414 34.3809 15.8914 33.7988 15.3914C33.2168 14.8875 32.8691 14.155 32.7559 13.1941ZM41.1758 15.989V7.39917H43.7715L45.3301 13.2585L46.8711 7.39917H49.4727V15.989H47.8613V9.22729L46.1562 15.989H44.4863L42.7871 9.22729V15.989H41.1758ZM51.1426 15.989V7.39917H52.877V15.989H51.1426ZM54.5527 15.989V7.39917H56.2402L59.7559 13.1355V7.39917H61.3672V15.989H59.627L56.1641 10.3875V15.989H54.5527ZM62.8555 11.7468C62.8555 10.8718 62.9863 10.1375 63.248 9.5437C63.4434 9.1062 63.709 8.71362 64.0449 8.36597C64.3848 8.01831 64.7559 7.7605 65.1582 7.59253C65.6934 7.36597 66.3105 7.25269 67.0098 7.25269C68.2754 7.25269 69.2871 7.64526 70.0449 8.43042C70.8066 9.21558 71.1875 10.3074 71.1875 11.7058C71.1875 13.0925 70.8105 14.1785 70.0566 14.9636C69.3027 15.7449 68.2949 16.1355 67.0332 16.1355C65.7559 16.1355 64.7402 15.7468 63.9863 14.9695C63.2324 14.1882 62.8555 13.114 62.8555 11.7468ZM64.6426 11.6882C64.6426 12.6609 64.8672 13.3992 65.3164 13.9031C65.7656 14.4031 66.3359 14.6531 67.0273 14.6531C67.7188 14.6531 68.2852 14.405 68.7266 13.9089C69.1719 13.4089 69.3945 12.6609 69.3945 11.6648C69.3945 10.6804 69.1777 9.94604 68.7441 9.46167C68.3145 8.97729 67.7422 8.73511 67.0273 8.73511C66.3125 8.73511 65.7363 8.9812 65.2988 9.47339C64.8613 9.96167 64.6426 10.7 64.6426 11.6882ZM76.543 12.8308V11.3835H80.2812V14.8054C79.918 15.157 79.3906 15.4675 78.6992 15.7371C78.0117 16.0027 77.3145 16.1355 76.6074 16.1355C75.709 16.1355 74.9258 15.948 74.2578 15.573C73.5898 15.1941 73.0879 14.655 72.752 13.9558C72.416 13.2527 72.248 12.489 72.248 11.6648C72.248 10.7703 72.4355 9.97534 72.8105 9.28003C73.1855 8.58472 73.7344 8.05151 74.457 7.68042C75.0078 7.39526 75.6934 7.25269 76.5137 7.25269C77.5801 7.25269 78.4121 7.47729 79.0098 7.92651C79.6113 8.37183 79.998 8.98901 80.1699 9.77808L78.4473 10.1003C78.3262 9.67847 78.0977 9.34644 77.7617 9.10425C77.4297 8.85815 77.0137 8.73511 76.5137 8.73511C75.7559 8.73511 75.1523 8.97534 74.7031 9.45581C74.2578 9.93628 74.0352 10.6492 74.0352 11.5945C74.0352 12.614 74.2617 13.3796 74.7148 13.8914C75.168 14.3992 75.7617 14.6531 76.4961 14.6531C76.8594 14.6531 77.2227 14.5828 77.5859 14.4421C77.9531 14.2976 78.2676 14.1238 78.5293 13.9207V12.8308H76.543ZM81.8867 15.989V7.39917H88.2559V8.85229H83.6211V10.7566H87.9336V12.2039H83.6211V14.5417H88.4199V15.989H81.8867ZM89.9082 15.989V7.39917H91.5957L95.1113 13.1355V7.39917H96.7227V15.989H94.9824L91.5195 10.3875V15.989H89.9082Z" fill="white"/>
<defs>
<linearGradient id="paint0_linear_65_1994" x1="53" y1="1.98901" x2="53" y2="21.989" gradientUnits="userSpaceOnUse">
<stop stop-color="#BB4C4F"/>
<stop offset="1" stop-color="#B79C2A"/>
</linearGradient>
</defs>
</svg>
