<svg width="42" height="24" viewBox="0 0 42 24" fill="none" xmlns="http://www.w3.org/2000/svg">
<rect x="2" y="1.98901" width="39" height="20" rx="10" fill="url(#paint0_linear_42_2594)"/>
<rect x="2" y="1.98901" width="39" height="20" rx="10" stroke="#B09421" stroke-width="3" stroke-linejoin="round"/>
<path d="M10.0332 15.989V7.39917H16.4023V8.85229H11.7676V10.7566H16.0801V12.2039H11.7676V14.5417H16.5664V15.989H10.0332ZM18.0371 15.989V7.39917H24.4062V8.85229H19.7715V10.7566H24.084V12.2039H19.7715V14.5417H24.5703V15.989H18.0371ZM26.0352 7.39917H29.2051C29.9199 7.39917 30.4648 7.45386 30.8398 7.56323C31.3438 7.71167 31.7754 7.97534 32.1348 8.35425C32.4941 8.73315 32.7676 9.198 32.9551 9.74878C33.1426 10.2957 33.2363 10.9714 33.2363 11.7761C33.2363 12.4832 33.1484 13.0925 32.9727 13.6042C32.7578 14.2292 32.4512 14.7351 32.0527 15.1218C31.752 15.4148 31.3457 15.6433 30.834 15.8074C30.4512 15.9285 29.9395 15.989 29.2988 15.989H26.0352V7.39917ZM27.7695 8.85229V14.5417H29.0645C29.5488 14.5417 29.8984 14.5144 30.1133 14.4597C30.3945 14.3894 30.627 14.2703 30.8105 14.1023C30.998 13.9343 31.1504 13.6589 31.2676 13.2761C31.3848 12.8894 31.4434 12.364 31.4434 11.7C31.4434 11.0359 31.3848 10.5261 31.2676 10.1707C31.1504 9.81519 30.9863 9.53784 30.7754 9.33862C30.5645 9.1394 30.2969 9.00464 29.9727 8.93433C29.7305 8.87964 29.2559 8.85229 28.5488 8.85229H27.7695Z" fill="white"/>
<defs>
<linearGradient id="paint0_linear_42_2594" x1="21.5" y1="1.98901" x2="21.5" y2="21.989" gradientUnits="userSpaceOnUse">
<stop stop-color="#B09421"/>
<stop offset="1" stop-color="#3F1741"/>
</linearGradient>
</defs>
</svg>
