<svg width="42" height="24" viewBox="0 0 42 24" fill="none" xmlns="http://www.w3.org/2000/svg">
<rect x="2" y="1.98901" width="39" height="20" rx="10" fill="#FFA82C"/>
<rect x="2" y="1.98901" width="39" height="20" rx="10" stroke="#846DDE" stroke-width="3" stroke-linejoin="round"/>
<path d="M13.4609 7.39917H15.1895V12.8367C15.1895 13.5476 15.127 14.0945 15.002 14.4773C14.834 14.9773 14.5293 15.3796 14.0879 15.6843C13.6465 15.9851 13.0645 16.1355 12.3418 16.1355C11.4941 16.1355 10.8418 15.8992 10.3848 15.4265C9.92773 14.95 9.69727 14.2527 9.69336 13.3347L11.3281 13.1472C11.3477 13.6394 11.4199 13.9871 11.5449 14.1902C11.7324 14.4988 12.0176 14.6531 12.4004 14.6531C12.7871 14.6531 13.0605 14.5437 13.2207 14.325C13.3809 14.1023 13.4609 13.6433 13.4609 12.948V7.39917ZM24.7871 15.989H22.9004L22.1504 14.0378H18.7168L18.0078 15.989H16.168L19.5137 7.39917H21.3477L24.7871 15.989ZM21.5938 12.5906L20.4102 9.40308L19.25 12.5906H21.5938ZM25.7363 15.989V7.39917H27.4707V11.2136L30.9746 7.39917H33.3066L30.0723 10.7449L33.4824 15.989H31.2383L28.877 11.9578L27.4707 13.3933V15.989H25.7363Z" fill="white"/>
</svg>
