<svg width="17" height="193" viewBox="0 0 17 193" fill="none" xmlns="http://www.w3.org/2000/svg">
<path d="M15.1947 192.484H1.56184C0.870436 192.484 0.309937 191.923 0.309937 191.232V181.369C0.309937 180.678 0.870436 180.117 1.56184 180.117H15.1948C15.8862 180.117 16.4467 180.678 16.4467 181.369V191.232C16.4466 191.923 15.8861 192.484 15.1947 192.484Z" fill="url(#paint0_linear_86_3946)"/>
<path d="M15.1947 192.484H1.56184C0.870436 192.484 0.309937 191.923 0.309937 191.232V181.369C0.309937 180.678 0.870436 180.117 1.56184 180.117H15.1948C15.8862 180.117 16.4467 180.678 16.4467 181.369V191.232C16.4466 191.923 15.8861 192.484 15.1947 192.484Z" fill="url(#paint1_linear_86_3946)"/>
<path d="M8.37819 180.319C10.6062 180.319 12.4124 176.022 12.4124 170.721C12.4124 165.42 10.6062 161.122 8.37819 161.122C6.15017 161.122 4.34399 165.42 4.34399 170.721C4.34399 176.022 6.15017 180.319 8.37819 180.319Z" fill="url(#paint2_radial_86_3946)"/>
<path d="M14.4466 161.122H2.30994C1.20534 161.122 0.309937 160.227 0.309937 159.122V131.558C0.309937 130.454 1.20534 129.558 2.30994 129.558H14.4466C15.5512 129.558 16.4466 130.454 16.4466 131.558V159.122C16.4466 160.227 15.5512 161.122 14.4466 161.122Z" fill="url(#paint3_linear_86_3946)"/>
<path d="M14.4466 161.122H2.30994C1.20534 161.122 0.309937 160.227 0.309937 159.122V131.558C0.309937 130.454 1.20534 129.558 2.30994 129.558H14.4466C15.5512 129.558 16.4466 130.454 16.4466 131.558V159.122C16.4466 160.227 15.5512 161.122 14.4466 161.122Z" fill="url(#paint4_linear_86_3946)"/>
<path d="M8.37824 129.558C12.8342 129.558 16.4465 127.201 16.4465 124.293C16.4465 121.385 12.8342 119.028 8.37824 119.028C3.92224 119.028 0.309937 121.385 0.309937 124.293C0.309937 127.201 3.92224 129.558 8.37824 129.558Z" fill="url(#paint5_radial_86_3946)"/>
<path d="M14.4466 119.028H2.30994C1.20534 119.028 0.309937 118.133 0.309937 117.028V114.32C0.309937 113.215 1.20534 112.32 2.30994 112.32H14.4466C15.5512 112.32 16.4466 113.215 16.4466 114.32V117.028C16.4466 118.133 15.5512 119.028 14.4466 119.028Z" fill="url(#paint6_linear_86_3946)"/>
<path d="M14.4466 119.028H2.30994C1.20534 119.028 0.309937 118.133 0.309937 117.028V114.32C0.309937 113.215 1.20534 112.32 2.30994 112.32H14.4466C15.5512 112.32 16.4466 113.215 16.4466 114.32V117.028C16.4466 118.133 15.5512 119.028 14.4466 119.028Z" fill="url(#paint7_linear_86_3946)"/>
<path d="M8.37828 98.3909H3.91858V107.678H8.37828V98.3909Z" fill="url(#paint8_linear_86_3946)"/>
<path d="M12.838 103.032H8.3783V112.32H12.838V103.032Z" fill="url(#paint9_linear_86_3946)"/>
<path d="M14.4466 98.3908H2.30994C1.20534 98.3908 0.309937 97.4954 0.309937 96.3908V93.6824C0.309937 92.5778 1.20534 91.6824 2.30994 91.6824H14.4466C15.5512 91.6824 16.4466 92.5778 16.4466 93.6824V96.3908C16.4466 97.4953 15.5512 98.3908 14.4466 98.3908Z" fill="url(#paint10_linear_86_3946)"/>
<path d="M14.4466 98.3908H2.30994C1.20534 98.3908 0.309937 97.4954 0.309937 96.3908V93.6824C0.309937 92.5778 1.20534 91.6824 2.30994 91.6824H14.4466C15.5512 91.6824 16.4466 92.5778 16.4466 93.6824V96.3908C16.4466 97.4953 15.5512 98.3908 14.4466 98.3908Z" fill="url(#paint11_linear_86_3946)"/>
<path d="M14.4466 91.6825H2.30994C1.20534 91.6825 0.309937 90.7871 0.309937 89.6825V86.9741C0.309937 85.8695 1.20534 84.9741 2.30994 84.9741H14.4466C15.5512 84.9741 16.4466 85.8695 16.4466 86.9741V89.6825C16.4466 90.7871 15.5512 91.6825 14.4466 91.6825Z" fill="url(#paint12_linear_86_3946)"/>
<path d="M14.4466 91.6825H2.30994C1.20534 91.6825 0.309937 90.7871 0.309937 89.6825V86.9741C0.309937 85.8695 1.20534 84.9741 2.30994 84.9741H14.4466C15.5512 84.9741 16.4466 85.8695 16.4466 86.9741V89.6825C16.4466 90.7871 15.5512 91.6825 14.4466 91.6825Z" fill="url(#paint13_linear_86_3946)"/>
<path d="M14.4466 84.974H2.30994C1.20534 84.974 0.309937 84.0786 0.309937 82.974V80.2656C0.309937 79.161 1.20534 78.2656 2.30994 78.2656H14.4466C15.5512 78.2656 16.4466 79.161 16.4466 80.2656V82.974C16.4466 84.0786 15.5512 84.974 14.4466 84.974Z" fill="url(#paint14_linear_86_3946)"/>
<path d="M14.4466 84.974H2.30994C1.20534 84.974 0.309937 84.0786 0.309937 82.974V80.2656C0.309937 79.161 1.20534 78.2656 2.30994 78.2656H14.4466C15.5512 78.2656 16.4466 79.161 16.4466 80.2656V82.974C16.4466 84.0786 15.5512 84.974 14.4466 84.974Z" fill="url(#paint15_linear_86_3946)"/>
<path d="M14.4466 78.2657H2.30994C1.20534 78.2657 0.309937 77.3703 0.309937 76.2657V2.98755C0.309937 1.88295 1.20534 0.987549 2.30994 0.987549H14.4466C15.5512 0.987549 16.4466 1.88295 16.4466 2.98755V76.2657C16.4466 77.3703 15.5512 78.2657 14.4466 78.2657Z" fill="url(#paint16_linear_86_3946)"/>
<path d="M0.309937 8.71533H16.4466" stroke="#FFDD92" stroke-miterlimit="10"/>
<path d="M0.309937 16.4431H16.4466" stroke="#FFDD92" stroke-miterlimit="10"/>
<path d="M0.309937 24.1711H16.4466" stroke="#FFDD92" stroke-miterlimit="10"/>
<path d="M0.309937 31.8989H16.4466" stroke="#FFDD92" stroke-miterlimit="10"/>
<path d="M0.309937 39.6267H16.4466" stroke="#FFDD92" stroke-miterlimit="10"/>
<path d="M0.309937 47.3545H16.4466" stroke="#FFDD92" stroke-miterlimit="10"/>
<path d="M0.309937 55.0823H16.4466" stroke="#FFDD92" stroke-miterlimit="10"/>
<path d="M0.309937 62.8101H16.4466" stroke="#FFDD92" stroke-miterlimit="10"/>
<path d="M0.309937 70.5378H16.4466" stroke="#FFDD92" stroke-miterlimit="10"/>
<path d="M14.4466 78.2657H2.30994C1.20534 78.2657 0.309937 77.3703 0.309937 76.2657V2.98755C0.309937 1.88295 1.20534 0.987549 2.30994 0.987549H14.4466C15.5512 0.987549 16.4466 1.88295 16.4466 2.98755V76.2657C16.4466 77.3703 15.5512 78.2657 14.4466 78.2657Z" fill="url(#paint17_linear_86_3946)"/>
<path d="M14.4466 78.2657H2.30994C1.20534 78.2657 0.309937 77.3703 0.309937 76.2657V2.98755C0.309937 1.88295 1.20534 0.987549 2.30994 0.987549H14.4466C15.5512 0.987549 16.4466 1.88295 16.4466 2.98755V76.2657C16.4466 77.3703 15.5512 78.2657 14.4466 78.2657Z" fill="url(#paint18_linear_86_3946)"/>
<defs>
<linearGradient id="paint0_linear_86_3946" x1="0.309937" y1="186.3" x2="16.4466" y2="186.3" gradientUnits="userSpaceOnUse">
<stop stop-color="#CCB748"/>
<stop offset="0.1985" stop-color="#F5E9AD"/>
<stop offset="0.4998" stop-color="#CCB748"/>
<stop offset="1" stop-color="#635923"/>
</linearGradient>
<linearGradient id="paint1_linear_86_3946" x1="8.37834" y1="180.117" x2="8.37834" y2="192.484" gradientUnits="userSpaceOnUse">
<stop offset="0.7753" stop-color="#C8B347" stop-opacity="0"/>
<stop offset="1" stop-color="#635923"/>
</linearGradient>
<radialGradient id="paint2_radial_86_3946" cx="0" cy="0" r="1" gradientUnits="userSpaceOnUse" gradientTransform="translate(7.11149 168.565) scale(4.7842 9.66552)">
<stop stop-color="#E4D897"/>
<stop offset="0.9995" stop-color="#7D6900"/>
</radialGradient>
<linearGradient id="paint3_linear_86_3946" x1="0.309937" y1="145.34" x2="16.4466" y2="145.34" gradientUnits="userSpaceOnUse">
<stop stop-color="#CC7E48"/>
<stop offset="0.1985" stop-color="#F5CBAD"/>
<stop offset="0.4998" stop-color="#CC7E48"/>
<stop offset="1" stop-color="#633D23"/>
</linearGradient>
<linearGradient id="paint4_linear_86_3946" x1="8.37834" y1="129.558" x2="8.37834" y2="161.122" gradientUnits="userSpaceOnUse">
<stop offset="0.7753" stop-color="#C87C47" stop-opacity="0"/>
<stop offset="1" stop-color="#633D23"/>
</linearGradient>
<radialGradient id="paint5_radial_86_3946" cx="0" cy="0" r="1" gradientUnits="userSpaceOnUse" gradientTransform="translate(5.84474 123.106) scale(10.9452 6.27051)">
<stop stop-color="#C3CC3A"/>
<stop offset="1" stop-color="#707521"/>
</radialGradient>
<linearGradient id="paint6_linear_86_3946" x1="0.309937" y1="115.674" x2="16.4466" y2="115.674" gradientUnits="userSpaceOnUse">
<stop stop-color="#CCA348"/>
<stop offset="0.1985" stop-color="#F5DFAD"/>
<stop offset="0.4998" stop-color="#CCA348"/>
<stop offset="1" stop-color="#634F23"/>
</linearGradient>
<linearGradient id="paint7_linear_86_3946" x1="8.37834" y1="112.32" x2="8.37834" y2="119.028" gradientUnits="userSpaceOnUse">
<stop offset="0.3658" stop-color="#C8A047" stop-opacity="0"/>
<stop offset="1" stop-color="#634F23"/>
</linearGradient>
<linearGradient id="paint8_linear_86_3946" x1="3.89598" y1="103.023" x2="8.40108" y2="103.046" gradientUnits="userSpaceOnUse">
<stop stop-color="#C8A047"/>
<stop offset="1" stop-color="#5E4C22"/>
</linearGradient>
<linearGradient id="paint9_linear_86_3946" x1="8.3557" y1="107.665" x2="12.8608" y2="107.687" gradientUnits="userSpaceOnUse">
<stop stop-color="#C8A047"/>
<stop offset="1" stop-color="#5E4C22"/>
</linearGradient>
<linearGradient id="paint10_linear_86_3946" x1="0.309937" y1="95.0365" x2="16.4466" y2="95.0365" gradientUnits="userSpaceOnUse">
<stop stop-color="#CCB648"/>
<stop offset="0.1985" stop-color="#F5E9AD"/>
<stop offset="0.4998" stop-color="#CCB648"/>
<stop offset="1" stop-color="#635823"/>
</linearGradient>
<linearGradient id="paint11_linear_86_3946" x1="8.37834" y1="91.6824" x2="8.37834" y2="98.3907" gradientUnits="userSpaceOnUse">
<stop offset="0.3658" stop-color="#C8B347" stop-opacity="0"/>
<stop offset="1" stop-color="#635823"/>
</linearGradient>
<linearGradient id="paint12_linear_86_3946" x1="0.309937" y1="88.3283" x2="16.4466" y2="88.3283" gradientUnits="userSpaceOnUse">
<stop stop-color="#CCB648"/>
<stop offset="0.1985" stop-color="#F5E9AD"/>
<stop offset="0.4998" stop-color="#CCB648"/>
<stop offset="1" stop-color="#635823"/>
</linearGradient>
<linearGradient id="paint13_linear_86_3946" x1="8.37834" y1="84.9741" x2="8.37834" y2="91.6825" gradientUnits="userSpaceOnUse">
<stop offset="0.3658" stop-color="#C8B347" stop-opacity="0"/>
<stop offset="1" stop-color="#635823"/>
</linearGradient>
<linearGradient id="paint14_linear_86_3946" x1="0.309937" y1="81.6198" x2="16.4466" y2="81.6198" gradientUnits="userSpaceOnUse">
<stop stop-color="#CCB648"/>
<stop offset="0.1985" stop-color="#F5E9AD"/>
<stop offset="0.4998" stop-color="#CCB648"/>
<stop offset="1" stop-color="#635823"/>
</linearGradient>
<linearGradient id="paint15_linear_86_3946" x1="8.37834" y1="78.2656" x2="8.37834" y2="84.974" gradientUnits="userSpaceOnUse">
<stop offset="0.3658" stop-color="#C8B347" stop-opacity="0"/>
<stop offset="1" stop-color="#635823"/>
</linearGradient>
<linearGradient id="paint16_linear_86_3946" x1="0.130637" y1="39.5862" x2="16.626" y2="39.667" gradientUnits="userSpaceOnUse">
<stop stop-color="#CCA348"/>
<stop offset="0.4998" stop-color="#C8A047"/>
<stop offset="1" stop-color="#634F23"/>
</linearGradient>
<linearGradient id="paint17_linear_86_3946" x1="0.130637" y1="39.5862" x2="16.626" y2="39.667" gradientUnits="userSpaceOnUse">
<stop stop-color="#F5DFAD" stop-opacity="0"/>
<stop offset="0.1985" stop-color="#F5DFAD"/>
<stop offset="0.4878" stop-color="#F5DFAD" stop-opacity="0"/>
<stop offset="0.7099" stop-color="#634F23" stop-opacity="0"/>
<stop offset="1" stop-color="#634F23"/>
</linearGradient>
<linearGradient id="paint18_linear_86_3946" x1="8.37834" y1="0.987549" x2="8.37834" y2="78.2657" gradientUnits="userSpaceOnUse">
<stop offset="0.7753" stop-color="#C8A047" stop-opacity="0"/>
<stop offset="1" stop-color="#634F23"/>
</linearGradient>
</defs>
</svg>
