<svg width="54" height="24" viewBox="0 0 54 24" fill="none" xmlns="http://www.w3.org/2000/svg">
<rect x="2" y="1.98901" width="51" height="20" rx="10" fill="url(#paint0_linear_45_4249)"/>
<rect x="2" y="1.98901" width="51" height="20" rx="10" stroke="#4A3600" stroke-width="3" stroke-linejoin="round"/>
<path d="M14.0293 12.8308V11.3835H17.7676V14.8054C17.4043 15.157 16.877 15.4675 16.1855 15.7371C15.498 16.0027 14.8008 16.1355 14.0938 16.1355C13.1953 16.1355 12.4121 15.948 11.7441 15.573C11.0762 15.1941 10.5742 14.655 10.2383 13.9558C9.90234 13.2527 9.73438 12.489 9.73438 11.6648C9.73438 10.7703 9.92188 9.97534 10.2969 9.28003C10.6719 8.58472 11.2207 8.05151 11.9434 7.68042C12.4941 7.39526 13.1797 7.25269 14 7.25269C15.0664 7.25269 15.8984 7.47729 16.4961 7.92651C17.0977 8.37183 17.4844 8.98901 17.6562 9.77808L15.9336 10.1003C15.8125 9.67847 15.584 9.34644 15.248 9.10425C14.916 8.85815 14.5 8.73511 14 8.73511C13.2422 8.73511 12.6387 8.97534 12.1895 9.45581C11.7441 9.93628 11.5215 10.6492 11.5215 11.5945C11.5215 12.614 11.748 13.3796 12.2012 13.8914C12.6543 14.3992 13.248 14.6531 13.9824 14.6531C14.3457 14.6531 14.709 14.5828 15.0723 14.4421C15.4395 14.2976 15.7539 14.1238 16.0156 13.9207V12.8308H14.0293ZM19.3496 15.989V7.39917H21.9453L23.5039 13.2585L25.0449 7.39917H27.6465V15.989H26.0352V9.22729L24.3301 15.989H22.6602L20.9609 9.22729V15.989H19.3496ZM29.3867 15.989V7.39917H31.0742L34.5898 13.1355V7.39917H36.2012V15.989H34.4609L30.998 10.3875V15.989H29.3867ZM38.0586 15.989V7.39917H39.7461L43.2617 13.1355V7.39917H44.873V15.989H43.1328L39.6699 10.3875V15.989H38.0586Z" fill="white"/>
<defs>
<linearGradient id="paint0_linear_45_4249" x1="27.5" y1="1.98901" x2="27.5" y2="21.989" gradientUnits="userSpaceOnUse">
<stop stop-color="#72941C"/>
<stop offset="1" stop-color="#4A3600"/>
</linearGradient>
</defs>
</svg>
