<svg width="67" height="24" viewBox="0 0 67 24" fill="none" xmlns="http://www.w3.org/2000/svg">
<rect x="1" y="1.98901" width="65" height="20" rx="10" fill="url(#paint0_linear_40_2505)"/>
<rect x="1" y="1.98901" width="65" height="20" rx="10" stroke="#075EDD" stroke-width="3" stroke-linejoin="round"/>
<path d="M14.8496 12.8308L16.5312 13.364C16.2734 14.3015 15.8438 14.9988 15.2422 15.4558C14.6445 15.9089 13.8848 16.1355 12.9629 16.1355C11.8223 16.1355 10.8848 15.7468 10.1504 14.9695C9.41602 14.1882 9.04883 13.1218 9.04883 11.7703C9.04883 10.3406 9.41797 9.2312 10.1562 8.44214C10.8945 7.64917 11.8652 7.25269 13.0684 7.25269C14.1191 7.25269 14.9727 7.56323 15.6289 8.18433C16.0195 8.55151 16.3125 9.07886 16.5078 9.76636L14.791 10.1765C14.6895 9.7312 14.4766 9.37964 14.1523 9.12183C13.832 8.86401 13.4414 8.73511 12.9805 8.73511C12.3438 8.73511 11.8262 8.96362 11.4277 9.42065C11.0332 9.87769 10.8359 10.6179 10.8359 11.6414C10.8359 12.7273 11.0312 13.5007 11.4219 13.9617C11.8125 14.4226 12.3203 14.6531 12.9453 14.6531C13.4062 14.6531 13.8027 14.5066 14.1348 14.2136C14.4668 13.9207 14.7051 13.4597 14.8496 12.8308ZM18.0195 7.39917H21.1895C21.9043 7.39917 22.4492 7.45386 22.8242 7.56323C23.3281 7.71167 23.7598 7.97534 24.1191 8.35425C24.4785 8.73315 24.752 9.198 24.9395 9.74878C25.127 10.2957 25.2207 10.9714 25.2207 11.7761C25.2207 12.4832 25.1328 13.0925 24.957 13.6042C24.7422 14.2292 24.4355 14.7351 24.0371 15.1218C23.7363 15.4148 23.3301 15.6433 22.8184 15.8074C22.4355 15.9285 21.9238 15.989 21.2832 15.989H18.0195V7.39917ZM19.7539 8.85229V14.5417H21.0488C21.5332 14.5417 21.8828 14.5144 22.0977 14.4597C22.3789 14.3894 22.6113 14.2703 22.7949 14.1023C22.9824 13.9343 23.1348 13.6589 23.252 13.2761C23.3691 12.8894 23.4277 12.364 23.4277 11.7C23.4277 11.0359 23.3691 10.5261 23.252 10.1707C23.1348 9.81519 22.9707 9.53784 22.7598 9.33862C22.5488 9.1394 22.2812 9.00464 21.957 8.93433C21.7148 8.87964 21.2402 8.85229 20.5332 8.85229H19.7539ZM26.7207 15.989V7.39917H28.4551V11.2136L31.959 7.39917H34.291L31.0566 10.7449L34.4668 15.989H32.2227L29.8613 11.9578L28.4551 13.3933V15.989H26.7207ZM35.3867 15.989V7.39917H37.0742L40.5898 13.1355V7.39917H42.2012V15.989H40.4609L36.998 10.3875V15.989H35.3867ZM49.2383 14.4597V15.989H43.4668C43.5293 15.4109 43.7168 14.864 44.0293 14.3484C44.3418 13.8289 44.959 13.1414 45.8809 12.2859C46.623 11.5945 47.0781 11.1257 47.2461 10.8796C47.4727 10.5398 47.5859 10.2039 47.5859 9.87183C47.5859 9.50464 47.4863 9.22339 47.2871 9.02808C47.0918 8.82886 46.8203 8.72925 46.4727 8.72925C46.1289 8.72925 45.8555 8.83276 45.6523 9.03979C45.4492 9.24683 45.332 9.59058 45.3008 10.071L43.6602 9.90698C43.7578 9.00073 44.0645 8.35034 44.5801 7.95581C45.0957 7.56128 45.7402 7.36401 46.5137 7.36401C47.3613 7.36401 48.0273 7.59253 48.5117 8.04956C48.9961 8.50659 49.2383 9.07495 49.2383 9.75464C49.2383 10.1414 49.168 10.5105 49.0273 10.8621C48.8906 11.2097 48.6719 11.575 48.3711 11.9578C48.1719 12.2117 47.8125 12.5769 47.293 13.0535C46.7734 13.53 46.4434 13.8464 46.3027 14.0027C46.166 14.1589 46.0547 14.3113 45.9688 14.4597H49.2383ZM58.4668 15.989H56.5801L55.8301 14.0378H52.3965L51.6875 15.989H49.8477L53.1934 7.39917H55.0273L58.4668 15.989ZM55.2734 12.5906L54.0898 9.40308L52.9297 12.5906H55.2734Z" fill="white"/>
<defs>
<linearGradient id="paint0_linear_40_2505" x1="33.5" y1="1.98901" x2="33.5" y2="21.989" gradientUnits="userSpaceOnUse">
<stop stop-color="#075EDD"/>
<stop offset="1" stop-color="#C5D015"/>
</linearGradient>
</defs>
</svg>
