<svg width="65" height="24" viewBox="0 0 65 24" fill="none" xmlns="http://www.w3.org/2000/svg">
<rect x="1" y="1.98901" width="63" height="20" rx="10" fill="url(#paint0_linear_45_4224)"/>
<rect x="1" y="1.98901" width="63" height="20" rx="10" stroke="#002744" stroke-width="3" stroke-linejoin="round"/>
<path d="M13.3516 12.8308V11.3835H17.0898V14.8054C16.7266 15.157 16.1992 15.4675 15.5078 15.7371C14.8203 16.0027 14.123 16.1355 13.416 16.1355C12.5176 16.1355 11.7344 15.948 11.0664 15.573C10.3984 15.1941 9.89648 14.655 9.56055 13.9558C9.22461 13.2527 9.05664 12.489 9.05664 11.6648C9.05664 10.7703 9.24414 9.97534 9.61914 9.28003C9.99414 8.58472 10.543 8.05151 11.2656 7.68042C11.8164 7.39526 12.502 7.25269 13.3223 7.25269C14.3887 7.25269 15.2207 7.47729 15.8184 7.92651C16.4199 8.37183 16.8066 8.98901 16.9785 9.77808L15.2559 10.1003C15.1348 9.67847 14.9062 9.34644 14.5703 9.10425C14.2383 8.85815 13.8223 8.73511 13.3223 8.73511C12.5645 8.73511 11.9609 8.97534 11.5117 9.45581C11.0664 9.93628 10.8438 10.6492 10.8438 11.5945C10.8438 12.614 11.0703 13.3796 11.5234 13.8914C11.9766 14.3992 12.5703 14.6531 13.3047 14.6531C13.668 14.6531 14.0312 14.5828 14.3945 14.4421C14.7617 14.2976 15.0762 14.1238 15.3379 13.9207V12.8308H13.3516ZM26.4414 15.989H24.5547L23.8047 14.0378H20.3711L19.6621 15.989H17.8223L21.168 7.39917H23.002L26.4414 15.989ZM23.248 12.5906L22.0645 9.40308L20.9043 12.5906H23.248ZM27.4141 15.989V7.46948H29.1484V14.5417H33.4609V15.989H27.4141ZM34.7207 15.989V7.39917H36.4082L39.9238 13.1355V7.39917H41.5352V15.989H39.7949L36.332 10.3875V15.989H34.7207ZM45.3086 15.989V8.85229H42.7598V7.39917H49.5859V8.85229H47.043V15.989H45.3086ZM50.2891 13.7097L51.8828 13.5164C51.9336 13.9226 52.0703 14.2332 52.293 14.448C52.5156 14.6628 52.7852 14.7703 53.1016 14.7703C53.4414 14.7703 53.7266 14.6414 53.957 14.3835C54.1914 14.1257 54.3086 13.7781 54.3086 13.3406C54.3086 12.9265 54.1973 12.5984 53.9746 12.3562C53.752 12.114 53.4805 11.9929 53.1602 11.9929C52.9492 11.9929 52.6973 12.0339 52.4043 12.116L52.5859 10.7742C53.0312 10.7859 53.3711 10.6902 53.6055 10.4871C53.8398 10.28 53.957 10.0066 53.957 9.66675C53.957 9.37769 53.8711 9.14722 53.6992 8.97534C53.5273 8.80347 53.2988 8.71753 53.0137 8.71753C52.7324 8.71753 52.4922 8.81519 52.293 9.0105C52.0938 9.20581 51.9727 9.49097 51.9297 9.86597L50.4121 9.60815C50.5176 9.08862 50.6758 8.67456 50.8867 8.36597C51.1016 8.05347 51.3984 7.80933 51.7773 7.63354C52.1602 7.45386 52.5879 7.36401 53.0605 7.36401C53.8691 7.36401 54.5176 7.62183 55.0059 8.13745C55.4082 8.55933 55.6094 9.03589 55.6094 9.56714C55.6094 10.321 55.1973 10.9226 54.373 11.3718C54.8652 11.4773 55.2578 11.7136 55.5508 12.0808C55.8477 12.448 55.9961 12.8914 55.9961 13.4109C55.9961 14.1648 55.7207 14.8074 55.1699 15.3386C54.6191 15.8699 53.9336 16.1355 53.1133 16.1355C52.3359 16.1355 51.6914 15.9128 51.1797 15.4675C50.668 15.0183 50.3711 14.4324 50.2891 13.7097Z" fill="white"/>
<defs>
<linearGradient id="paint0_linear_45_4224" x1="32.5" y1="1.98901" x2="32.5" y2="21.989" gradientUnits="userSpaceOnUse">
<stop stop-color="#002744"/>
<stop offset="1" stop-color="#4100FF"/>
</linearGradient>
</defs>
</svg>
