<svg width="24" height="159" viewBox="0 0 24 159" fill="none" xmlns="http://www.w3.org/2000/svg">
<path d="M23.7886 74.0137C23.7886 78.3912 18.6547 79.7322 12.3218 79.7322C5.98888 79.7322 0.85498 78.3912 0.85498 74.0137C0.85498 71.4155 2.66398 68.3326 5.45858 66.2555C8.21478 64.207 9.89508 60.7352 9.89508 56.9907V3.82568C9.89508 2.37048 10.8294 1.06007 12.1042 0.933876C13.5422 0.791573 14.7482 2.07668 14.7482 3.68258V56.9905C14.7482 60.735 16.4285 64.2068 19.1848 66.2553C21.9796 68.3325 23.7886 71.4154 23.7886 74.0137Z" fill="url(#paint0_linear_86_2593)"/>
<path d="M23.7886 74.0137C23.7886 78.3912 18.6547 79.7322 12.3218 79.7322C5.98888 79.7322 0.85498 78.3912 0.85498 74.0137C0.85498 71.4155 2.66398 68.3326 5.45858 66.2555C8.21478 64.207 9.89508 60.7352 9.89508 56.9907V3.82568C9.89508 2.37048 10.8294 1.06007 12.1042 0.933876C13.5422 0.791573 14.7482 2.07668 14.7482 3.68258V56.9905C14.7482 60.735 16.4285 64.2068 19.1848 66.2553C21.9796 68.3325 23.7886 71.4154 23.7886 74.0137Z" fill="url(#paint1_linear_86_2593)"/>
<path d="M23.7886 85.4575C23.7886 81.08 18.6547 79.739 12.3218 79.739C5.98888 79.739 0.85498 81.0799 0.85498 85.4575C0.85498 88.0557 2.66398 91.1386 5.45858 93.2157C8.21478 95.2642 9.89508 98.736 9.89508 102.481V155.646C9.89508 157.101 10.8294 158.411 12.1042 158.537C13.5422 158.68 14.7482 157.394 14.7482 155.789V102.481C14.7482 98.7362 16.4285 95.2644 19.1848 93.2159C21.9796 91.1387 23.7886 88.0557 23.7886 85.4575Z" fill="url(#paint2_linear_86_2593)"/>
<path d="M23.7886 85.4575C23.7886 81.08 18.6547 79.739 12.3218 79.739C5.98888 79.739 0.85498 81.0799 0.85498 85.4575C0.85498 88.0557 2.66398 91.1386 5.45858 93.2157C8.21478 95.2642 9.89508 98.736 9.89508 102.481V155.646C9.89508 157.101 10.8294 158.411 12.1042 158.537C13.5422 158.68 14.7482 157.394 14.7482 155.789V102.481C14.7482 98.7362 16.4285 95.2644 19.1848 93.2159C21.9796 91.1387 23.7886 88.0557 23.7886 85.4575Z" fill="url(#paint3_linear_86_2593)"/>
<defs>
<linearGradient id="paint0_linear_86_2593" x1="0.85498" y1="40.3277" x2="23.7886" y2="40.3277" gradientUnits="userSpaceOnUse">
<stop offset="0.15" stop-color="#226664"/>
<stop offset="0.5" stop-color="#5EB6BF"/>
<stop offset="0.85" stop-color="#226664"/>
</linearGradient>
<linearGradient id="paint1_linear_86_2593" x1="12.3218" y1="79.7322" x2="12.3218" y2="0.92318" gradientUnits="userSpaceOnUse">
<stop offset="0.0005" stop-color="#226664"/>
<stop offset="0.1418" stop-color="#226664" stop-opacity="0.5"/>
<stop offset="1" stop-color="#226664" stop-opacity="0"/>
</linearGradient>
<linearGradient id="paint2_linear_86_2593" x1="0.85498" y1="119.144" x2="23.7886" y2="119.144" gradientUnits="userSpaceOnUse">
<stop offset="0.15" stop-color="#223664"/>
<stop offset="0.5" stop-color="#5E88BF"/>
<stop offset="0.85" stop-color="#223664"/>
</linearGradient>
<linearGradient id="paint3_linear_86_2593" x1="12.3218" y1="79.739" x2="12.3218" y2="158.548" gradientUnits="userSpaceOnUse">
<stop stop-color="#223664"/>
<stop offset="0.14" stop-color="#223664" stop-opacity="0.5"/>
<stop offset="1" stop-color="#223664" stop-opacity="0"/>
</linearGradient>
</defs>
</svg>
