<svg width="39" height="40" viewBox="0 0 39 40" fill="none" xmlns="http://www.w3.org/2000/svg">
<path d="M19.5077 1.48901C29.8423 1.48925 38.2499 9.89738 38.2499 20.2332C38.2496 30.5688 29.8421 38.9751 19.5077 38.9753C9.17192 38.9753 0.763789 30.5677 0.76355 20.2332C0.76355 9.89833 9.17163 1.48901 19.5077 1.48901Z" fill="url(#paint0_radial_89_4111)" stroke="#0C3315"/>
<path d="M11.0839 23.989V15.3992H12.8182V23.989H11.0839ZM14.5233 23.989V15.4695H16.2577V22.5417H20.5702V23.989H14.5233ZM27.0272 17.5027L25.4335 17.6785C25.3944 17.3503 25.2928 17.1082 25.1288 16.9519C24.9647 16.7957 24.7518 16.7175 24.4901 16.7175C24.1425 16.7175 23.8475 16.8738 23.6053 17.1863C23.3671 17.4988 23.2167 18.1492 23.1542 19.1375C23.5643 18.6531 24.0741 18.4109 24.6835 18.4109C25.371 18.4109 25.9589 18.6726 26.4471 19.196C26.9393 19.7195 27.1854 20.3953 27.1854 21.2234C27.1854 22.1023 26.9276 22.8074 26.412 23.3386C25.8964 23.8699 25.2343 24.1355 24.4257 24.1355C23.5585 24.1355 22.8456 23.7996 22.287 23.1277C21.7284 22.4519 21.4491 21.3464 21.4491 19.8113C21.4491 18.2371 21.7401 17.1023 22.3221 16.407C22.9042 15.7117 23.66 15.364 24.5897 15.364C25.2421 15.364 25.7811 15.5476 26.2069 15.9148C26.6366 16.2781 26.91 16.8074 27.0272 17.5027ZM23.2948 21.0945C23.2948 21.6296 23.4178 22.0437 23.6639 22.3367C23.91 22.6257 24.1913 22.7703 24.5077 22.7703C24.8124 22.7703 25.0663 22.6511 25.2694 22.4128C25.4725 22.1746 25.5741 21.7839 25.5741 21.241C25.5741 20.6824 25.4647 20.2742 25.246 20.0164C25.0272 19.7546 24.7538 19.6238 24.4257 19.6238C24.1093 19.6238 23.8417 19.7488 23.6229 19.9988C23.4042 20.2449 23.2948 20.6101 23.2948 21.0945Z" fill="white"/>
<defs>
<radialGradient id="paint0_radial_89_4111" cx="0" cy="0" r="1" gradientUnits="userSpaceOnUse" gradientTransform="translate(11.5526 10.7757) rotate(180) scale(17.472)">
<stop stop-color="#E3D16D"/>
<stop offset="0.0162" stop-color="#DBCE68"/>
<stop offset="0.0906" stop-color="#B9C455"/>
<stop offset="0.173" stop-color="#9BBB45"/>
<stop offset="0.2641" stop-color="#84B438"/>
<stop offset="0.3675" stop-color="#71AE2E"/>
<stop offset="0.4903" stop-color="#65AA26"/>
<stop offset="0.6515" stop-color="#5DA822"/>
<stop offset="0.9995" stop-color="#5BA721"/>
</radialGradient>
</defs>
</svg>
