<svg width="57" height="24" viewBox="0 0 57 24" fill="none" xmlns="http://www.w3.org/2000/svg">
<rect x="2" y="1.98901" width="54" height="20" rx="10" fill="url(#paint0_linear_38_1874)"/>
<rect x="2" y="1.98901" width="54" height="20" rx="10" stroke="#A1613A" stroke-width="3" stroke-linejoin="round"/>
<path d="M15.6875 12.8308L17.3691 13.364C17.1113 14.3015 16.6816 14.9988 16.0801 15.4558C15.4824 15.9089 14.7227 16.1355 13.8008 16.1355C12.6602 16.1355 11.7227 15.7468 10.9883 14.9695C10.2539 14.1882 9.88672 13.1218 9.88672 11.7703C9.88672 10.3406 10.2559 9.2312 10.9941 8.44214C11.7324 7.64917 12.7031 7.25269 13.9062 7.25269C14.957 7.25269 15.8105 7.56323 16.4668 8.18433C16.8574 8.55151 17.1504 9.07886 17.3457 9.76636L15.6289 10.1765C15.5273 9.7312 15.3145 9.37964 14.9902 9.12183C14.6699 8.86401 14.2793 8.73511 13.8184 8.73511C13.1816 8.73511 12.6641 8.96362 12.2656 9.42065C11.8711 9.87769 11.6738 10.6179 11.6738 11.6414C11.6738 12.7273 11.8691 13.5007 12.2598 13.9617C12.6504 14.4226 13.1582 14.6531 13.7832 14.6531C14.2441 14.6531 14.6406 14.5066 14.9727 14.2136C15.3047 13.9207 15.543 13.4597 15.6875 12.8308ZM18.8691 15.989V7.39917H20.6035V10.78H24.002V7.39917H25.7363V15.989H24.002V12.2332H20.6035V15.989H18.8691ZM27.0957 13.1941L28.7832 13.03C28.8848 13.5964 29.0898 14.0125 29.3984 14.2781C29.7109 14.5437 30.1309 14.6765 30.6582 14.6765C31.2168 14.6765 31.6367 14.5593 31.918 14.325C32.2031 14.0867 32.3457 13.8093 32.3457 13.4929C32.3457 13.2898 32.2852 13.1179 32.1641 12.9773C32.0469 12.8328 31.8398 12.7078 31.543 12.6023C31.3398 12.532 30.877 12.407 30.1543 12.2273C29.2246 11.9968 28.5723 11.7136 28.1973 11.3777C27.6699 10.905 27.4062 10.3289 27.4062 9.64917C27.4062 9.21167 27.5293 8.80347 27.7754 8.42456C28.0254 8.04175 28.3828 7.75073 28.8477 7.55151C29.3164 7.35229 29.8809 7.25269 30.541 7.25269C31.6191 7.25269 32.4297 7.48901 32.9727 7.96167C33.5195 8.43433 33.8066 9.06519 33.834 9.85425L32.0996 9.93042C32.0254 9.48901 31.8652 9.17261 31.6191 8.9812C31.377 8.78589 31.0117 8.68823 30.5234 8.68823C30.0195 8.68823 29.625 8.79175 29.3398 8.99878C29.1562 9.13159 29.0645 9.30933 29.0645 9.53198C29.0645 9.73511 29.1504 9.90894 29.3223 10.0535C29.541 10.2371 30.0723 10.4285 30.916 10.6277C31.7598 10.8269 32.3828 11.0339 32.7852 11.2488C33.1914 11.4597 33.5078 11.7507 33.7344 12.1218C33.9648 12.489 34.0801 12.9441 34.0801 13.4871C34.0801 13.9792 33.9434 14.4402 33.6699 14.8699C33.3965 15.2996 33.0098 15.6199 32.5098 15.8308C32.0098 16.0378 31.3867 16.1414 30.6406 16.1414C29.5547 16.1414 28.7207 15.8914 28.1387 15.3914C27.5566 14.8875 27.209 14.155 27.0957 13.1941ZM37.4727 15.989V8.85229H34.9238V7.39917H41.75V8.85229H39.207V15.989H37.4727ZM42.4531 13.7097L44.0469 13.5164C44.0977 13.9226 44.2344 14.2332 44.457 14.448C44.6797 14.6628 44.9492 14.7703 45.2656 14.7703C45.6055 14.7703 45.8906 14.6414 46.1211 14.3835C46.3555 14.1257 46.4727 13.7781 46.4727 13.3406C46.4727 12.9265 46.3613 12.5984 46.1387 12.3562C45.916 12.114 45.6445 11.9929 45.3242 11.9929C45.1133 11.9929 44.8613 12.0339 44.5684 12.116L44.75 10.7742C45.1953 10.7859 45.5352 10.6902 45.7695 10.4871C46.0039 10.28 46.1211 10.0066 46.1211 9.66675C46.1211 9.37769 46.0352 9.14722 45.8633 8.97534C45.6914 8.80347 45.4629 8.71753 45.1777 8.71753C44.8965 8.71753 44.6562 8.81519 44.457 9.0105C44.2578 9.20581 44.1367 9.49097 44.0938 9.86597L42.5762 9.60815C42.6816 9.08862 42.8398 8.67456 43.0508 8.36597C43.2656 8.05347 43.5625 7.80933 43.9414 7.63354C44.3242 7.45386 44.752 7.36401 45.2246 7.36401C46.0332 7.36401 46.6816 7.62183 47.1699 8.13745C47.5723 8.55933 47.7734 9.03589 47.7734 9.56714C47.7734 10.321 47.3613 10.9226 46.5371 11.3718C47.0293 11.4773 47.4219 11.7136 47.7148 12.0808C48.0117 12.448 48.1602 12.8914 48.1602 13.4109C48.1602 14.1648 47.8848 14.8074 47.334 15.3386C46.7832 15.8699 46.0977 16.1355 45.2773 16.1355C44.5 16.1355 43.8555 15.9128 43.3438 15.4675C42.832 15.0183 42.5352 14.4324 42.4531 13.7097Z" fill="white"/>
<defs>
<linearGradient id="paint0_linear_38_1874" x1="29" y1="1.98901" x2="29" y2="21.989" gradientUnits="userSpaceOnUse">
<stop stop-color="#91B31E"/>
<stop offset="1" stop-color="#A1613A"/>
</linearGradient>
</defs>
</svg>
