<svg width="50" height="24" viewBox="0 0 50 24" fill="none" xmlns="http://www.w3.org/2000/svg">
<rect x="2" y="1.98901" width="47" height="20" rx="10" fill="url(#paint0_linear_40_2541)"/>
<rect x="2" y="1.98901" width="47" height="20" rx="10" stroke="#EEA223" stroke-width="3" stroke-linejoin="round"/>
<path d="M10.3535 7.39917H13.5234C14.2383 7.39917 14.7832 7.45386 15.1582 7.56323C15.6621 7.71167 16.0938 7.97534 16.4531 8.35425C16.8125 8.73315 17.0859 9.198 17.2734 9.74878C17.4609 10.2957 17.5547 10.9714 17.5547 11.7761C17.5547 12.4832 17.4668 13.0925 17.291 13.6042C17.0762 14.2292 16.7695 14.7351 16.3711 15.1218C16.0703 15.4148 15.6641 15.6433 15.1523 15.8074C14.7695 15.9285 14.2578 15.989 13.6172 15.989H10.3535V7.39917ZM12.0879 8.85229V14.5417H13.3828C13.8672 14.5417 14.2168 14.5144 14.4316 14.4597C14.7129 14.3894 14.9453 14.2703 15.1289 14.1023C15.3164 13.9343 15.4688 13.6589 15.5859 13.2761C15.7031 12.8894 15.7617 12.364 15.7617 11.7C15.7617 11.0359 15.7031 10.5261 15.5859 10.1707C15.4688 9.81519 15.3047 9.53784 15.0938 9.33862C14.8828 9.1394 14.6152 9.00464 14.291 8.93433C14.0488 8.87964 13.5742 8.85229 12.8672 8.85229H12.0879ZM24.5273 12.8308L26.209 13.364C25.9512 14.3015 25.5215 14.9988 24.9199 15.4558C24.3223 15.9089 23.5625 16.1355 22.6406 16.1355C21.5 16.1355 20.5625 15.7468 19.8281 14.9695C19.0938 14.1882 18.7266 13.1218 18.7266 11.7703C18.7266 10.3406 19.0957 9.2312 19.834 8.44214C20.5723 7.64917 21.543 7.25269 22.7461 7.25269C23.7969 7.25269 24.6504 7.56323 25.3066 8.18433C25.6973 8.55151 25.9902 9.07886 26.1855 9.76636L24.4688 10.1765C24.3672 9.7312 24.1543 9.37964 23.8301 9.12183C23.5098 8.86401 23.1191 8.73511 22.6582 8.73511C22.0215 8.73511 21.5039 8.96362 21.1055 9.42065C20.7109 9.87769 20.5137 10.6179 20.5137 11.6414C20.5137 12.7273 20.709 13.5007 21.0996 13.9617C21.4902 14.4226 21.998 14.6531 22.623 14.6531C23.084 14.6531 23.4805 14.5066 23.8125 14.2136C24.1445 13.9207 24.3828 13.4597 24.5273 12.8308ZM27.7031 15.989V7.39917H30.4863C31.541 7.39917 32.2285 7.44214 32.5488 7.52808C33.041 7.65698 33.4531 7.93823 33.7852 8.37183C34.1172 8.80151 34.2832 9.35815 34.2832 10.0417C34.2832 10.5691 34.1875 11.0125 33.9961 11.3718C33.8047 11.7312 33.5605 12.0144 33.2637 12.2214C32.9707 12.4246 32.6719 12.5593 32.3672 12.6257C31.9531 12.7078 31.3535 12.7488 30.5684 12.7488H29.4375V15.989H27.7031ZM29.4375 8.85229V11.2898H30.3867C31.0703 11.2898 31.5273 11.2449 31.7578 11.155C31.9883 11.0652 32.168 10.9246 32.2969 10.7332C32.4297 10.5417 32.4961 10.3191 32.4961 10.0652C32.4961 9.75269 32.4043 9.49487 32.2207 9.29175C32.0371 9.08862 31.8047 8.96167 31.5234 8.91089C31.3164 8.87183 30.9004 8.85229 30.2754 8.85229H29.4375ZM40.9043 14.4597V15.989H35.1328C35.1953 15.4109 35.3828 14.864 35.6953 14.3484C36.0078 13.8289 36.625 13.1414 37.5469 12.2859C38.2891 11.5945 38.7441 11.1257 38.9121 10.8796C39.1387 10.5398 39.252 10.2039 39.252 9.87183C39.252 9.50464 39.1523 9.22339 38.9531 9.02808C38.7578 8.82886 38.4863 8.72925 38.1387 8.72925C37.7949 8.72925 37.5215 8.83276 37.3184 9.03979C37.1152 9.24683 36.998 9.59058 36.9668 10.071L35.3262 9.90698C35.4238 9.00073 35.7305 8.35034 36.2461 7.95581C36.7617 7.56128 37.4062 7.36401 38.1797 7.36401C39.0273 7.36401 39.6934 7.59253 40.1777 8.04956C40.6621 8.50659 40.9043 9.07495 40.9043 9.75464C40.9043 10.1414 40.834 10.5105 40.6934 10.8621C40.5566 11.2097 40.3379 11.575 40.0371 11.9578C39.8379 12.2117 39.4785 12.5769 38.959 13.0535C38.4395 13.53 38.1094 13.8464 37.9688 14.0027C37.832 14.1589 37.7207 14.3113 37.6348 14.4597H40.9043Z" fill="white"/>
<defs>
<linearGradient id="paint0_linear_40_2541" x1="25.5" y1="1.98901" x2="25.5" y2="21.989" gradientUnits="userSpaceOnUse">
<stop stop-color="#005981"/>
<stop offset="1" stop-color="#EEA223"/>
</linearGradient>
</defs>
</svg>
