<svg width="77" height="24" viewBox="0 0 77 24" fill="none" xmlns="http://www.w3.org/2000/svg">
<rect x="1" y="1.98901" width="75" height="20" rx="10" fill="url(#paint0_linear_67_1887)"/>
<rect x="1" y="1.98901" width="75" height="20" rx="10" stroke="url(#paint1_linear_67_1887)" stroke-width="3" stroke-linejoin="round"/>
<path d="M9.35547 15.989V7.39917H13.0059C13.9238 7.39917 14.5898 7.47729 15.0039 7.63354C15.4219 7.78589 15.7559 8.05933 16.0059 8.45386C16.2559 8.84839 16.3809 9.29956 16.3809 9.80737C16.3809 10.4519 16.1914 10.9851 15.8125 11.407C15.4336 11.825 14.8672 12.0886 14.1133 12.198C14.4883 12.4167 14.7969 12.657 15.0391 12.9187C15.2852 13.1804 15.6152 13.6453 16.0293 14.3132L17.0781 15.989H15.0039L13.75 14.1199C13.3047 13.4519 13 13.032 12.8359 12.8601C12.6719 12.6843 12.498 12.5652 12.3145 12.5027C12.1309 12.4363 11.8398 12.4031 11.4414 12.4031H11.0898V15.989H9.35547ZM11.0898 11.032H12.373C13.2051 11.032 13.7246 10.9968 13.9316 10.9265C14.1387 10.8562 14.3008 10.7351 14.418 10.5632C14.5352 10.3914 14.5938 10.1765 14.5938 9.9187C14.5938 9.62964 14.5156 9.39722 14.3594 9.22144C14.207 9.04175 13.9902 8.92847 13.709 8.88159C13.5684 8.86206 13.1465 8.85229 12.4434 8.85229H11.0898V11.032ZM18.0391 15.989V7.39917H19.7266L23.2422 13.1355V7.39917H24.8535V15.989H23.1133L19.6504 10.3875V15.989H18.0391ZM34.4395 15.989H32.5527L31.8027 14.0378H28.3691L27.6602 15.989H25.8203L29.166 7.39917H31L34.4395 15.989ZM31.2461 12.5906L30.0625 9.40308L28.9023 12.5906H31.2461ZM38.2598 15.989V7.39917H41.043C42.0977 7.39917 42.7852 7.44214 43.1055 7.52808C43.5977 7.65698 44.0098 7.93823 44.3418 8.37183C44.6738 8.80151 44.8398 9.35815 44.8398 10.0417C44.8398 10.5691 44.7441 11.0125 44.5527 11.3718C44.3613 11.7312 44.1172 12.0144 43.8203 12.2214C43.5273 12.4246 43.2285 12.5593 42.9238 12.6257C42.5098 12.7078 41.9102 12.7488 41.125 12.7488H39.9941V15.989H38.2598ZM39.9941 8.85229V11.2898H40.9434C41.627 11.2898 42.084 11.2449 42.3145 11.155C42.5449 11.0652 42.7246 10.9246 42.8535 10.7332C42.9863 10.5417 43.0527 10.3191 43.0527 10.0652C43.0527 9.75269 42.9609 9.49487 42.7773 9.29175C42.5938 9.08862 42.3613 8.96167 42.0801 8.91089C41.873 8.87183 41.457 8.85229 40.832 8.85229H39.9941ZM45.9121 11.7468C45.9121 10.8718 46.043 10.1375 46.3047 9.5437C46.5 9.1062 46.7656 8.71362 47.1016 8.36597C47.4414 8.01831 47.8125 7.7605 48.2148 7.59253C48.75 7.36597 49.3672 7.25269 50.0664 7.25269C51.332 7.25269 52.3438 7.64526 53.1016 8.43042C53.8633 9.21558 54.2441 10.3074 54.2441 11.7058C54.2441 13.0925 53.8672 14.1785 53.1133 14.9636C52.3594 15.7449 51.3516 16.1355 50.0898 16.1355C48.8125 16.1355 47.7969 15.7468 47.043 14.9695C46.2891 14.1882 45.9121 13.114 45.9121 11.7468ZM47.6992 11.6882C47.6992 12.6609 47.9238 13.3992 48.373 13.9031C48.8223 14.4031 49.3926 14.6531 50.084 14.6531C50.7754 14.6531 51.3418 14.405 51.7832 13.9089C52.2285 13.4089 52.4512 12.6609 52.4512 11.6648C52.4512 10.6804 52.2344 9.94604 51.8008 9.46167C51.3711 8.97729 50.7988 8.73511 50.084 8.73511C49.3691 8.73511 48.793 8.9812 48.3555 9.47339C47.918 9.96167 47.6992 10.7 47.6992 11.6882ZM55.6504 15.989V7.46948H57.3848V14.5417H61.6973V15.989H55.6504ZM66.0039 15.989V7.39917H67.7383V15.989H66.0039Z" fill="white"/>
<defs>
<linearGradient id="paint0_linear_67_1887" x1="38.5" y1="1.98901" x2="38.5" y2="21.989" gradientUnits="userSpaceOnUse">
<stop stop-color="#0E98A2"/>
<stop offset="1" stop-color="#042224"/>
</linearGradient>
<linearGradient id="paint1_linear_67_1887" x1="38.5" y1="1.98901" x2="38.5" y2="21.989" gradientUnits="userSpaceOnUse">
<stop stop-color="#B78520"/>
<stop offset="1" stop-color="#A2317B"/>
</linearGradient>
</defs>
</svg>
