<svg width="57" height="24" viewBox="0 0 57 24" fill="none" xmlns="http://www.w3.org/2000/svg">
<rect x="2" y="1.98901" width="54" height="20" rx="10" fill="url(#paint0_linear_38_1844)"/>
<rect x="2" y="1.98901" width="54" height="20" rx="10" stroke="#2A5FB5" stroke-width="3" stroke-linejoin="round"/>
<path d="M15.6816 12.8308L17.3633 13.364C17.1055 14.3015 16.6758 14.9988 16.0742 15.4558C15.4766 15.9089 14.7168 16.1355 13.7949 16.1355C12.6543 16.1355 11.7168 15.7468 10.9824 14.9695C10.248 14.1882 9.88086 13.1218 9.88086 11.7703C9.88086 10.3406 10.25 9.2312 10.9883 8.44214C11.7266 7.64917 12.6973 7.25269 13.9004 7.25269C14.9512 7.25269 15.8047 7.56323 16.4609 8.18433C16.8516 8.55151 17.1445 9.07886 17.3398 9.76636L15.623 10.1765C15.5215 9.7312 15.3086 9.37964 14.9844 9.12183C14.6641 8.86401 14.2734 8.73511 13.8125 8.73511C13.1758 8.73511 12.6582 8.96362 12.2598 9.42065C11.8652 9.87769 11.668 10.6179 11.668 11.6414C11.668 12.7273 11.8633 13.5007 12.2539 13.9617C12.6445 14.4226 13.1523 14.6531 13.7773 14.6531C14.2383 14.6531 14.6348 14.5066 14.9668 14.2136C15.2988 13.9207 15.5371 13.4597 15.6816 12.8308ZM18.8516 7.39917H22.0215C22.7363 7.39917 23.2812 7.45386 23.6562 7.56323C24.1602 7.71167 24.5918 7.97534 24.9512 8.35425C25.3105 8.73315 25.584 9.198 25.7715 9.74878C25.959 10.2957 26.0527 10.9714 26.0527 11.7761C26.0527 12.4832 25.9648 13.0925 25.7891 13.6042C25.5742 14.2292 25.2676 14.7351 24.8691 15.1218C24.5684 15.4148 24.1621 15.6433 23.6504 15.8074C23.2676 15.9285 22.7559 15.989 22.1152 15.989H18.8516V7.39917ZM20.5859 8.85229V14.5417H21.8809C22.3652 14.5417 22.7148 14.5144 22.9297 14.4597C23.2109 14.3894 23.4434 14.2703 23.627 14.1023C23.8145 13.9343 23.9668 13.6589 24.084 13.2761C24.2012 12.8894 24.2598 12.364 24.2598 11.7C24.2598 11.0359 24.2012 10.5261 24.084 10.1707C23.9668 9.81519 23.8027 9.53784 23.5918 9.33862C23.3809 9.1394 23.1133 9.00464 22.7891 8.93433C22.5469 8.87964 22.0723 8.85229 21.3652 8.85229H20.5859ZM33.0254 12.8308L34.707 13.364C34.4492 14.3015 34.0195 14.9988 33.418 15.4558C32.8203 15.9089 32.0605 16.1355 31.1387 16.1355C29.998 16.1355 29.0605 15.7468 28.3262 14.9695C27.5918 14.1882 27.2246 13.1218 27.2246 11.7703C27.2246 10.3406 27.5938 9.2312 28.332 8.44214C29.0703 7.64917 30.041 7.25269 31.2441 7.25269C32.2949 7.25269 33.1484 7.56323 33.8047 8.18433C34.1953 8.55151 34.4883 9.07886 34.6836 9.76636L32.9668 10.1765C32.8652 9.7312 32.6523 9.37964 32.3281 9.12183C32.0078 8.86401 31.6172 8.73511 31.1562 8.73511C30.5195 8.73511 30.002 8.96362 29.6035 9.42065C29.209 9.87769 29.0117 10.6179 29.0117 11.6414C29.0117 12.7273 29.207 13.5007 29.5977 13.9617C29.9883 14.4226 30.4961 14.6531 31.1211 14.6531C31.582 14.6531 31.9785 14.5066 32.3105 14.2136C32.6426 13.9207 32.8809 13.4597 33.0254 12.8308ZM39.0664 15.989V14.2605H35.5508V12.8191L39.2773 7.36401H40.6602V12.8132H41.7266V14.2605H40.6602V15.989H39.0664ZM39.0664 12.8132V9.87769L37.0918 12.8132H39.0664ZM42.541 13.78L44.1816 13.6101C44.2285 13.9812 44.3672 14.2761 44.5977 14.4949C44.8281 14.7097 45.0938 14.8171 45.3945 14.8171C45.7383 14.8171 46.0293 14.6785 46.2676 14.4011C46.5059 14.1199 46.625 13.698 46.625 13.1355C46.625 12.6082 46.5059 12.2136 46.2676 11.9519C46.0332 11.6863 45.7266 11.5535 45.3477 11.5535C44.875 11.5535 44.4512 11.7625 44.0762 12.1804L42.7402 11.9871L43.584 7.51636H47.9375V9.05737H44.832L44.5742 10.5164C44.9414 10.3328 45.3164 10.241 45.6992 10.241C46.4297 10.241 47.0488 10.5066 47.5566 11.0378C48.0645 11.5691 48.3184 12.2585 48.3184 13.1062C48.3184 13.8132 48.1133 14.4441 47.7031 14.9988C47.1445 15.7566 46.3691 16.1355 45.377 16.1355C44.584 16.1355 43.9375 15.9226 43.4375 15.4968C42.9375 15.071 42.6387 14.4988 42.541 13.78Z" fill="white"/>
<defs>
<linearGradient id="paint0_linear_38_1844" x1="29" y1="1.98901" x2="29" y2="21.989" gradientUnits="userSpaceOnUse">
<stop stop-color="#2A5FB5"/>
<stop offset="1" stop-color="#FF4951"/>
</linearGradient>
</defs>
</svg>
