<svg width="76" height="24" viewBox="0 0 76 24" fill="none" xmlns="http://www.w3.org/2000/svg">
<rect x="1" y="1.98901" width="74" height="20" rx="10" fill="url(#paint0_linear_67_1848)"/>
<rect x="1" y="1.98901" width="74" height="20" rx="10" stroke="#D32976" stroke-width="3" stroke-linejoin="round"/>
<path d="M8.97266 15.989V7.39917H12.623C13.541 7.39917 14.207 7.47729 14.6211 7.63354C15.0391 7.78589 15.373 8.05933 15.623 8.45386C15.873 8.84839 15.998 9.29956 15.998 9.80737C15.998 10.4519 15.8086 10.9851 15.4297 11.407C15.0508 11.825 14.4844 12.0886 13.7305 12.198C14.1055 12.4167 14.4141 12.657 14.6562 12.9187C14.9023 13.1804 15.2324 13.6453 15.6465 14.3132L16.6953 15.989H14.6211L13.3672 14.1199C12.9219 13.4519 12.6172 13.032 12.4531 12.8601C12.2891 12.6843 12.1152 12.5652 11.9316 12.5027C11.748 12.4363 11.457 12.4031 11.0586 12.4031H10.707V15.989H8.97266ZM10.707 11.032H11.9902C12.8223 11.032 13.3418 10.9968 13.5488 10.9265C13.7559 10.8562 13.918 10.7351 14.0352 10.5632C14.1523 10.3914 14.2109 10.1765 14.2109 9.9187C14.2109 9.62964 14.1328 9.39722 13.9766 9.22144C13.8242 9.04175 13.6074 8.92847 13.3262 8.88159C13.1855 8.86206 12.7637 8.85229 12.0605 8.85229H10.707V11.032ZM25.3848 15.989H23.498L22.748 14.0378H19.3145L18.6055 15.989H16.7656L20.1113 7.39917H21.9453L25.3848 15.989ZM22.1914 12.5906L21.0078 9.40308L19.8477 12.5906H22.1914ZM26.3164 7.39917H29.75C30.4297 7.39917 30.9355 7.42847 31.2676 7.48706C31.6035 7.54175 31.9023 7.65894 32.1641 7.83862C32.4297 8.01831 32.6504 8.25854 32.8262 8.55933C33.002 8.8562 33.0898 9.19019 33.0898 9.56128C33.0898 9.96362 32.9805 10.3328 32.7617 10.6687C32.5469 11.0046 32.2539 11.2566 31.8828 11.4246C32.4062 11.5769 32.8086 11.8367 33.0898 12.2039C33.3711 12.571 33.5117 13.0027 33.5117 13.4988C33.5117 13.8894 33.4199 14.2703 33.2363 14.6414C33.0566 15.0085 32.8086 15.3035 32.4922 15.5261C32.1797 15.7449 31.793 15.8796 31.332 15.9304C31.043 15.9617 30.3457 15.9812 29.2402 15.989H26.3164V7.39917ZM28.0508 8.82886V10.8152H29.1875C29.8633 10.8152 30.2832 10.8054 30.4473 10.7859C30.7441 10.7507 30.9766 10.6492 31.1445 10.4812C31.3164 10.3093 31.4023 10.0847 31.4023 9.80737C31.4023 9.54175 31.3281 9.3269 31.1797 9.16284C31.0352 8.99487 30.8184 8.89331 30.5293 8.85815C30.3574 8.83862 29.8633 8.82886 29.0469 8.82886H28.0508ZM28.0508 12.2449V14.5417H29.6562C30.2812 14.5417 30.6777 14.5242 30.8457 14.489C31.1035 14.4421 31.3125 14.3289 31.4727 14.1492C31.6367 13.9656 31.7188 13.7214 31.7188 13.4167C31.7188 13.1589 31.6562 12.9402 31.5312 12.7605C31.4062 12.5808 31.2246 12.45 30.9863 12.3679C30.752 12.2859 30.2402 12.2449 29.4512 12.2449H28.0508ZM38.9785 12.8308V11.3835H42.7168V14.8054C42.3535 15.157 41.8262 15.4675 41.1348 15.7371C40.4473 16.0027 39.75 16.1355 39.043 16.1355C38.1445 16.1355 37.3613 15.948 36.6934 15.573C36.0254 15.1941 35.5234 14.655 35.1875 13.9558C34.8516 13.2527 34.6836 12.489 34.6836 11.6648C34.6836 10.7703 34.8711 9.97534 35.2461 9.28003C35.6211 8.58472 36.1699 8.05151 36.8926 7.68042C37.4434 7.39526 38.1289 7.25269 38.9492 7.25269C40.0156 7.25269 40.8477 7.47729 41.4453 7.92651C42.0469 8.37183 42.4336 8.98901 42.6055 9.77808L40.8828 10.1003C40.7617 9.67847 40.5332 9.34644 40.1973 9.10425C39.8652 8.85815 39.4492 8.73511 38.9492 8.73511C38.1914 8.73511 37.5879 8.97534 37.1387 9.45581C36.6934 9.93628 36.4707 10.6492 36.4707 11.5945C36.4707 12.614 36.6973 13.3796 37.1504 13.8914C37.6035 14.3992 38.1973 14.6531 38.9316 14.6531C39.2949 14.6531 39.6582 14.5828 40.0215 14.4421C40.3887 14.2976 40.7031 14.1238 40.9648 13.9207V12.8308H38.9785ZM48.3184 12.8308V11.3835H52.0566V14.8054C51.6934 15.157 51.166 15.4675 50.4746 15.7371C49.7871 16.0027 49.0898 16.1355 48.3828 16.1355C47.4844 16.1355 46.7012 15.948 46.0332 15.573C45.3652 15.1941 44.8633 14.655 44.5273 13.9558C44.1914 13.2527 44.0234 12.489 44.0234 11.6648C44.0234 10.7703 44.2109 9.97534 44.5859 9.28003C44.9609 8.58472 45.5098 8.05151 46.2324 7.68042C46.7832 7.39526 47.4688 7.25269 48.2891 7.25269C49.3555 7.25269 50.1875 7.47729 50.7852 7.92651C51.3867 8.37183 51.7734 8.98901 51.9453 9.77808L50.2227 10.1003C50.1016 9.67847 49.873 9.34644 49.5371 9.10425C49.2051 8.85815 48.7891 8.73511 48.2891 8.73511C47.5312 8.73511 46.9277 8.97534 46.4785 9.45581C46.0332 9.93628 45.8105 10.6492 45.8105 11.5945C45.8105 12.614 46.0371 13.3796 46.4902 13.8914C46.9434 14.3992 47.5371 14.6531 48.2715 14.6531C48.6348 14.6531 48.998 14.5828 49.3613 14.4421C49.7285 14.2976 50.043 14.1238 50.3047 13.9207V12.8308H48.3184ZM55.5957 15.989V8.85229H53.0469V7.39917H59.873V8.85229H57.3301V15.989H55.5957ZM67.8535 15.989H65.9668L65.2168 14.0378H61.7832L61.0742 15.989H59.2344L62.5801 7.39917H64.4141L67.8535 15.989ZM64.6602 12.5906L63.4766 9.40308L62.3164 12.5906H64.6602Z" fill="white"/>
<defs>
<linearGradient id="paint0_linear_67_1848" x1="38" y1="1.98901" x2="38" y2="21.989" gradientUnits="userSpaceOnUse">
<stop stop-color="#D32976"/>
<stop offset="1" stop-color="#53B278"/>
</linearGradient>
</defs>
</svg>
