<svg width="135" height="24" viewBox="0 0 135 24" fill="none" xmlns="http://www.w3.org/2000/svg">
<rect x="1" y="1.98901" width="133" height="20" rx="10" fill="url(#paint0_linear_40_2536)"/>
<rect x="1" y="1.98901" width="133" height="20" rx="10" stroke="#DBA628" stroke-width="3" stroke-linejoin="round"/>
<path d="M9.11133 7.39917H12.2812C12.9961 7.39917 13.541 7.45386 13.916 7.56323C14.4199 7.71167 14.8516 7.97534 15.2109 8.35425C15.5703 8.73315 15.8438 9.198 16.0312 9.74878C16.2188 10.2957 16.3125 10.9714 16.3125 11.7761C16.3125 12.4832 16.2246 13.0925 16.0488 13.6042C15.834 14.2292 15.5273 14.7351 15.1289 15.1218C14.8281 15.4148 14.4219 15.6433 13.9102 15.8074C13.5273 15.9285 13.0156 15.989 12.375 15.989H9.11133V7.39917ZM10.8457 8.85229V14.5417H12.1406C12.625 14.5417 12.9746 14.5144 13.1895 14.4597C13.4707 14.3894 13.7031 14.2703 13.8867 14.1023C14.0742 13.9343 14.2266 13.6589 14.3438 13.2761C14.4609 12.8894 14.5195 12.364 14.5195 11.7C14.5195 11.0359 14.4609 10.5261 14.3438 10.1707C14.2266 9.81519 14.0625 9.53784 13.8516 9.33862C13.6406 9.1394 13.373 9.00464 13.0488 8.93433C12.8066 8.87964 12.332 8.85229 11.625 8.85229H10.8457ZM17.7891 15.989V7.39917H24.1582V8.85229H19.5234V10.7566H23.8359V12.2039H19.5234V14.5417H24.3223V15.989H17.7891ZM25.3535 13.1941L27.041 13.03C27.1426 13.5964 27.3477 14.0125 27.6562 14.2781C27.9688 14.5437 28.3887 14.6765 28.916 14.6765C29.4746 14.6765 29.8945 14.5593 30.1758 14.325C30.4609 14.0867 30.6035 13.8093 30.6035 13.4929C30.6035 13.2898 30.543 13.1179 30.4219 12.9773C30.3047 12.8328 30.0977 12.7078 29.8008 12.6023C29.5977 12.532 29.1348 12.407 28.4121 12.2273C27.4824 11.9968 26.8301 11.7136 26.4551 11.3777C25.9277 10.905 25.6641 10.3289 25.6641 9.64917C25.6641 9.21167 25.7871 8.80347 26.0332 8.42456C26.2832 8.04175 26.6406 7.75073 27.1055 7.55151C27.5742 7.35229 28.1387 7.25269 28.7988 7.25269C29.877 7.25269 30.6875 7.48901 31.2305 7.96167C31.7773 8.43433 32.0645 9.06519 32.0918 9.85425L30.3574 9.93042C30.2832 9.48901 30.123 9.17261 29.877 8.9812C29.6348 8.78589 29.2695 8.68823 28.7812 8.68823C28.2773 8.68823 27.8828 8.79175 27.5977 8.99878C27.4141 9.13159 27.3223 9.30933 27.3223 9.53198C27.3223 9.73511 27.4082 9.90894 27.5801 10.0535C27.7988 10.2371 28.3301 10.4285 29.1738 10.6277C30.0176 10.8269 30.6406 11.0339 31.043 11.2488C31.4492 11.4597 31.7656 11.7507 31.9922 12.1218C32.2227 12.489 32.3379 12.9441 32.3379 13.4871C32.3379 13.9792 32.2012 14.4402 31.9277 14.8699C31.6543 15.2996 31.2676 15.6199 30.7676 15.8308C30.2676 16.0378 29.6445 16.1414 28.8984 16.1414C27.8125 16.1414 26.9785 15.8914 26.3965 15.3914C25.8145 14.8875 25.4668 14.155 25.3535 13.1941ZM33.5977 13.698V12.0515H36.832V13.698H33.5977ZM45.5391 15.989H43.6523L42.9023 14.0378H39.4688L38.7598 15.989H36.9199L40.2656 7.39917H42.0996L45.5391 15.989ZM42.3457 12.5906L41.1621 9.40308L40.002 12.5906H42.3457ZM51.9609 12.8308L53.6426 13.364C53.3848 14.3015 52.9551 14.9988 52.3535 15.4558C51.7559 15.9089 50.9961 16.1355 50.0742 16.1355C48.9336 16.1355 47.9961 15.7468 47.2617 14.9695C46.5273 14.1882 46.1602 13.1218 46.1602 11.7703C46.1602 10.3406 46.5293 9.2312 47.2676 8.44214C48.0059 7.64917 48.9766 7.25269 50.1797 7.25269C51.2305 7.25269 52.084 7.56323 52.7402 8.18433C53.1309 8.55151 53.4238 9.07886 53.6191 9.76636L51.9023 10.1765C51.8008 9.7312 51.5879 9.37964 51.2637 9.12183C50.9434 8.86401 50.5527 8.73511 50.0918 8.73511C49.4551 8.73511 48.9375 8.96362 48.5391 9.42065C48.1445 9.87769 47.9473 10.6179 47.9473 11.6414C47.9473 12.7273 48.1426 13.5007 48.5332 13.9617C48.9238 14.4226 49.4316 14.6531 50.0566 14.6531C50.5176 14.6531 50.9141 14.5066 51.2461 14.2136C51.5781 13.9207 51.8164 13.4597 51.9609 12.8308ZM57.3926 15.989V12.3738L54.2461 7.39917H56.2793L58.3008 10.7976L60.2812 7.39917H62.2793L59.1211 12.3855V15.989H57.3926ZM63.1875 15.989V7.46948H64.9219V14.5417H69.2344V15.989H63.1875ZM77.5898 12.8308V11.3835H81.3281V14.8054C80.9648 15.157 80.4375 15.4675 79.7461 15.7371C79.0586 16.0027 78.3613 16.1355 77.6543 16.1355C76.7559 16.1355 75.9727 15.948 75.3047 15.573C74.6367 15.1941 74.1348 14.655 73.7988 13.9558C73.4629 13.2527 73.2949 12.489 73.2949 11.6648C73.2949 10.7703 73.4824 9.97534 73.8574 9.28003C74.2324 8.58472 74.7812 8.05151 75.5039 7.68042C76.0547 7.39526 76.7402 7.25269 77.5605 7.25269C78.627 7.25269 79.459 7.47729 80.0566 7.92651C80.6582 8.37183 81.0449 8.98901 81.2168 9.77808L79.4941 10.1003C79.373 9.67847 79.1445 9.34644 78.8086 9.10425C78.4766 8.85815 78.0605 8.73511 77.5605 8.73511C76.8027 8.73511 76.1992 8.97534 75.75 9.45581C75.3047 9.93628 75.082 10.6492 75.082 11.5945C75.082 12.614 75.3086 13.3796 75.7617 13.8914C76.2148 14.3992 76.8086 14.6531 77.543 14.6531C77.9062 14.6531 78.2695 14.5828 78.6328 14.4421C79 14.2976 79.3145 14.1238 79.5762 13.9207V12.8308H77.5898ZM82.9395 15.989V7.39917H84.6738V10.78H88.0723V7.39917H89.8066V15.989H88.0723V12.2332H84.6738V15.989H82.9395ZM91.6113 15.989V7.39917H95.2617C96.1797 7.39917 96.8457 7.47729 97.2598 7.63354C97.6777 7.78589 98.0117 8.05933 98.2617 8.45386C98.5117 8.84839 98.6367 9.29956 98.6367 9.80737C98.6367 10.4519 98.4473 10.9851 98.0684 11.407C97.6895 11.825 97.123 12.0886 96.3691 12.198C96.7441 12.4167 97.0527 12.657 97.2949 12.9187C97.541 13.1804 97.8711 13.6453 98.2852 14.3132L99.334 15.989H97.2598L96.0059 14.1199C95.5605 13.4519 95.2559 13.032 95.0918 12.8601C94.9277 12.6843 94.7539 12.5652 94.5703 12.5027C94.3867 12.4363 94.0957 12.4031 93.6973 12.4031H93.3457V15.989H91.6113ZM93.3457 11.032H94.6289C95.4609 11.032 95.9805 10.9968 96.1875 10.9265C96.3945 10.8562 96.5566 10.7351 96.6738 10.5632C96.791 10.3914 96.8496 10.1765 96.8496 9.9187C96.8496 9.62964 96.7715 9.39722 96.6152 9.22144C96.4629 9.04175 96.2461 8.92847 95.9648 8.88159C95.8242 8.86206 95.4023 8.85229 94.6992 8.85229H93.3457V11.032ZM100.277 15.989V7.39917H106.646V8.85229H102.012V10.7566H106.324V12.2039H102.012V14.5417H106.811V15.989H100.277ZM108.328 15.989V7.46948H110.062V14.5417H114.375V15.989H108.328ZM115.564 15.989V7.39917H117.299V15.989H115.564ZM118.975 15.989V7.39917H120.662L124.178 13.1355V7.39917H125.789V15.989H124.049L120.586 10.3875V15.989H118.975Z" fill="white"/>
<defs>
<linearGradient id="paint0_linear_40_2536" x1="67.5" y1="1.98901" x2="67.5" y2="21.989" gradientUnits="userSpaceOnUse">
<stop stop-color="#DBA628"/>
<stop offset="1" stop-color="#A32702"/>
</linearGradient>
</defs>
</svg>
