<svg width="58" height="24" viewBox="0 0 58 24" fill="none" xmlns="http://www.w3.org/2000/svg">
<rect x="2" y="1.98901" width="55" height="20" rx="10" fill="url(#paint0_linear_46_4305)"/>
<rect x="2" y="1.98901" width="55" height="20" rx="10" stroke="#C4734E" stroke-width="3" stroke-linejoin="round"/>
<path d="M10.0293 15.989V7.39917H11.7637V10.78H15.1621V7.39917H16.8965V15.989H15.1621V12.2332H11.7637V15.989H10.0293ZM18.7129 15.989V7.39917H20.4004L23.916 13.1355V7.39917H25.5273V15.989H23.7871L20.3242 10.3875V15.989H18.7129ZM27.3789 15.989V7.39917H33.2676V8.85229H29.1133V10.8855H32.6992V12.3386H29.1133V15.989H27.3789ZM37.5684 15.989V14.2605H34.0527V12.8191L37.7793 7.36401H39.1621V12.8132H40.2285V14.2605H39.1621V15.989H37.5684ZM37.5684 12.8132V9.87769L35.5938 12.8132H37.5684ZM45.3789 12.8308V11.3835H49.1172V14.8054C48.7539 15.157 48.2266 15.4675 47.5352 15.7371C46.8477 16.0027 46.1504 16.1355 45.4434 16.1355C44.5449 16.1355 43.7617 15.948 43.0938 15.573C42.4258 15.1941 41.9238 14.655 41.5879 13.9558C41.252 13.2527 41.084 12.489 41.084 11.6648C41.084 10.7703 41.2715 9.97534 41.6465 9.28003C42.0215 8.58472 42.5703 8.05151 43.293 7.68042C43.8438 7.39526 44.5293 7.25269 45.3496 7.25269C46.416 7.25269 47.248 7.47729 47.8457 7.92651C48.4473 8.37183 48.834 8.98901 49.0059 9.77808L47.2832 10.1003C47.1621 9.67847 46.9336 9.34644 46.5977 9.10425C46.2656 8.85815 45.8496 8.73511 45.3496 8.73511C44.5918 8.73511 43.9883 8.97534 43.5391 9.45581C43.0938 9.93628 42.8711 10.6492 42.8711 11.5945C42.8711 12.614 43.0977 13.3796 43.5508 13.8914C44.0039 14.3992 44.5977 14.6531 45.332 14.6531C45.6953 14.6531 46.0586 14.5828 46.4219 14.4421C46.7891 14.2976 47.1035 14.1238 47.3652 13.9207V12.8308H45.3789Z" fill="white"/>
<defs>
<linearGradient id="paint0_linear_46_4305" x1="29.5" y1="1.98901" x2="29.5" y2="21.989" gradientUnits="userSpaceOnUse">
<stop stop-color="#C4734E"/>
<stop offset="1" stop-color="#2C8ABE"/>
</linearGradient>
</defs>
</svg>
