<svg width="49" height="24" viewBox="0 0 49 24" fill="none" xmlns="http://www.w3.org/2000/svg">
<rect x="2" y="1.98901" width="46" height="20" rx="10" fill="url(#paint0_linear_67_1923)"/>
<rect x="2" y="1.98901" width="46" height="20" rx="10" stroke="#2F1440" stroke-width="3" stroke-linejoin="round"/>
<path d="M9.75391 13.1941L11.4414 13.03C11.543 13.5964 11.748 14.0125 12.0566 14.2781C12.3691 14.5437 12.7891 14.6765 13.3164 14.6765C13.875 14.6765 14.2949 14.5593 14.5762 14.325C14.8613 14.0867 15.0039 13.8093 15.0039 13.4929C15.0039 13.2898 14.9434 13.1179 14.8223 12.9773C14.7051 12.8328 14.498 12.7078 14.2012 12.6023C13.998 12.532 13.5352 12.407 12.8125 12.2273C11.8828 11.9968 11.2305 11.7136 10.8555 11.3777C10.3281 10.905 10.0645 10.3289 10.0645 9.64917C10.0645 9.21167 10.1875 8.80347 10.4336 8.42456C10.6836 8.04175 11.041 7.75073 11.5059 7.55151C11.9746 7.35229 12.5391 7.25269 13.1992 7.25269C14.2773 7.25269 15.0879 7.48901 15.6309 7.96167C16.1777 8.43433 16.4648 9.06519 16.4922 9.85425L14.7578 9.93042C14.6836 9.48901 14.5234 9.17261 14.2773 8.9812C14.0352 8.78589 13.6699 8.68823 13.1816 8.68823C12.6777 8.68823 12.2832 8.79175 11.998 8.99878C11.8145 9.13159 11.7227 9.30933 11.7227 9.53198C11.7227 9.73511 11.8086 9.90894 11.9805 10.0535C12.1992 10.2371 12.7305 10.4285 13.5742 10.6277C14.418 10.8269 15.041 11.0339 15.4434 11.2488C15.8496 11.4597 16.166 11.7507 16.3926 12.1218C16.623 12.489 16.7383 12.9441 16.7383 13.4871C16.7383 13.9792 16.6016 14.4402 16.3281 14.8699C16.0547 15.2996 15.668 15.6199 15.168 15.8308C14.668 16.0378 14.0449 16.1414 13.2988 16.1414C12.2129 16.1414 11.3789 15.8914 10.7969 15.3914C10.2148 14.8875 9.86719 14.155 9.75391 13.1941ZM18.2207 15.989V7.39917H19.9551V11.2136L23.459 7.39917H25.791L22.5566 10.7449L25.9668 15.989H23.7227L21.3613 11.9578L19.9551 13.3933V15.989H18.2207ZM26.8691 15.989V7.39917H29.6523C30.707 7.39917 31.3945 7.44214 31.7148 7.52808C32.207 7.65698 32.6191 7.93823 32.9512 8.37183C33.2832 8.80151 33.4492 9.35815 33.4492 10.0417C33.4492 10.5691 33.3535 11.0125 33.1621 11.3718C32.9707 11.7312 32.7266 12.0144 32.4297 12.2214C32.1367 12.4246 31.8379 12.5593 31.5332 12.6257C31.1191 12.7078 30.5195 12.7488 29.7344 12.7488H28.6035V15.989H26.8691ZM28.6035 8.85229V11.2898H29.5527C30.2363 11.2898 30.6934 11.2449 30.9238 11.155C31.1543 11.0652 31.334 10.9246 31.4629 10.7332C31.5957 10.5417 31.6621 10.3191 31.6621 10.0652C31.6621 9.75269 31.5703 9.49487 31.3867 9.29175C31.2031 9.08862 30.9707 8.96167 30.6895 8.91089C30.4824 8.87183 30.0664 8.85229 29.4414 8.85229H28.6035ZM40.0703 14.4597V15.989H34.2988C34.3613 15.4109 34.5488 14.864 34.8613 14.3484C35.1738 13.8289 35.791 13.1414 36.7129 12.2859C37.4551 11.5945 37.9102 11.1257 38.0781 10.8796C38.3047 10.5398 38.418 10.2039 38.418 9.87183C38.418 9.50464 38.3184 9.22339 38.1191 9.02808C37.9238 8.82886 37.6523 8.72925 37.3047 8.72925C36.9609 8.72925 36.6875 8.83276 36.4844 9.03979C36.2812 9.24683 36.1641 9.59058 36.1328 10.071L34.4922 9.90698C34.5898 9.00073 34.8965 8.35034 35.4121 7.95581C35.9277 7.56128 36.5723 7.36401 37.3457 7.36401C38.1934 7.36401 38.8594 7.59253 39.3438 8.04956C39.8281 8.50659 40.0703 9.07495 40.0703 9.75464C40.0703 10.1414 40 10.5105 39.8594 10.8621C39.7227 11.2097 39.5039 11.575 39.2031 11.9578C39.0039 12.2117 38.6445 12.5769 38.125 13.0535C37.6055 13.53 37.2754 13.8464 37.1348 14.0027C36.998 14.1589 36.8867 14.3113 36.8008 14.4597H40.0703Z" fill="white"/>
<defs>
<linearGradient id="paint0_linear_67_1923" x1="25" y1="1.98901" x2="25" y2="21.989" gradientUnits="userSpaceOnUse">
<stop stop-color="#83E386"/>
<stop offset="1" stop-color="#2F1440"/>
</linearGradient>
</defs>
</svg>
