<svg width="57" height="24" viewBox="0 0 57 24" fill="none" xmlns="http://www.w3.org/2000/svg">
<rect x="2" y="1.98901" width="54" height="20" rx="10" fill="url(#paint0_linear_67_1850)"/>
<rect x="2" y="1.98901" width="54" height="20" rx="10" stroke="#002B81" stroke-width="3" stroke-linejoin="round"/>
<path d="M17.1055 14.8992C17.5312 15.2039 17.9941 15.446 18.4941 15.6257L17.8555 16.8503C17.5938 16.7722 17.3379 16.6648 17.0879 16.5281C17.0332 16.5007 16.6484 16.2468 15.9336 15.7664C15.3711 16.0125 14.748 16.1355 14.0645 16.1355C12.7441 16.1355 11.709 15.7468 10.959 14.9695C10.2129 14.1921 9.83984 13.1003 9.83984 11.6941C9.83984 10.2917 10.2148 9.2019 10.9648 8.42456C11.7148 7.64331 12.7324 7.25269 14.0176 7.25269C15.291 7.25269 16.3008 7.64331 17.0469 8.42456C17.793 9.2019 18.166 10.2917 18.166 11.6941C18.166 12.4363 18.0625 13.0886 17.8555 13.6511C17.6992 14.0808 17.4492 14.4968 17.1055 14.8992ZM15.7109 13.9207C15.9336 13.6589 16.0996 13.3425 16.209 12.9714C16.3223 12.6003 16.3789 12.1746 16.3789 11.6941C16.3789 10.7019 16.1602 9.96167 15.7227 9.47339C15.2852 8.9812 14.7129 8.73511 14.0059 8.73511C13.2988 8.73511 12.7246 8.9812 12.2832 9.47339C11.8457 9.96558 11.627 10.7058 11.627 11.6941C11.627 12.698 11.8457 13.45 12.2832 13.95C12.7246 14.446 13.2812 14.6941 13.9531 14.6941C14.2031 14.6941 14.4395 14.6531 14.6621 14.571C14.3105 14.3406 13.9531 14.1609 13.5898 14.032L14.0762 13.0417C14.6465 13.2371 15.1914 13.53 15.7109 13.9207ZM21.4648 15.989V8.85229H18.916V7.39917H25.7422V8.85229H23.1992V15.989H21.4648ZM26.873 15.989V7.39917H30.5234C31.4414 7.39917 32.1074 7.47729 32.5215 7.63354C32.9395 7.78589 33.2734 8.05933 33.5234 8.45386C33.7734 8.84839 33.8984 9.29956 33.8984 9.80737C33.8984 10.4519 33.709 10.9851 33.3301 11.407C32.9512 11.825 32.3848 12.0886 31.6309 12.198C32.0059 12.4167 32.3145 12.657 32.5566 12.9187C32.8027 13.1804 33.1328 13.6453 33.5469 14.3132L34.5957 15.989H32.5215L31.2676 14.1199C30.8223 13.4519 30.5176 13.032 30.3535 12.8601C30.1895 12.6843 30.0156 12.5652 29.832 12.5027C29.6484 12.4363 29.3574 12.4031 28.959 12.4031H28.6074V15.989H26.873ZM28.6074 11.032H29.8906C30.7227 11.032 31.2422 10.9968 31.4492 10.9265C31.6562 10.8562 31.8184 10.7351 31.9355 10.5632C32.0527 10.3914 32.1113 10.1765 32.1113 9.9187C32.1113 9.62964 32.0332 9.39722 31.877 9.22144C31.7246 9.04175 31.5078 8.92847 31.2266 8.88159C31.0859 8.86206 30.6641 8.85229 29.9609 8.85229H28.6074V11.032ZM37.4727 15.989V8.85229H34.9238V7.39917H41.75V8.85229H39.207V15.989H37.4727ZM46.7246 15.989H45.0781V9.78394C44.4766 10.3464 43.7676 10.7625 42.9512 11.032V9.53784C43.3809 9.39722 43.8477 9.13159 44.3516 8.74097C44.8555 8.34644 45.2012 7.88745 45.3887 7.36401H46.7246V15.989Z" fill="white"/>
<defs>
<linearGradient id="paint0_linear_67_1850" x1="29" y1="1.98901" x2="29" y2="21.989" gradientUnits="userSpaceOnUse">
<stop stop-color="#87A094"/>
<stop offset="1" stop-color="#002B81"/>
</linearGradient>
</defs>
</svg>
