<svg width="42" height="24" viewBox="0 0 42 24" fill="none" xmlns="http://www.w3.org/2000/svg">
<rect x="2" y="1.98901" width="39" height="20" rx="10" fill="url(#paint0_linear_40_2545)"/>
<rect x="2" y="1.98901" width="39" height="20" rx="10" stroke="#00755A" stroke-width="3" stroke-linejoin="round"/>
<path d="M10.0273 7.39917H13.1973C13.9121 7.39917 14.457 7.45386 14.832 7.56323C15.3359 7.71167 15.7676 7.97534 16.127 8.35425C16.4863 8.73315 16.7598 9.198 16.9473 9.74878C17.1348 10.2957 17.2285 10.9714 17.2285 11.7761C17.2285 12.4832 17.1406 13.0925 16.9648 13.6042C16.75 14.2292 16.4434 14.7351 16.0449 15.1218C15.7441 15.4148 15.3379 15.6433 14.8262 15.8074C14.4434 15.9285 13.9316 15.989 13.291 15.989H10.0273V7.39917ZM11.7617 8.85229V14.5417H13.0566C13.541 14.5417 13.8906 14.5144 14.1055 14.4597C14.3867 14.3894 14.6191 14.2703 14.8027 14.1023C14.9902 13.9343 15.1426 13.6589 15.2598 13.2761C15.377 12.8894 15.4355 12.364 15.4355 11.7C15.4355 11.0359 15.377 10.5261 15.2598 10.1707C15.1426 9.81519 14.9785 9.53784 14.7676 9.33862C14.5566 9.1394 14.2891 9.00464 13.9648 8.93433C13.7227 8.87964 13.248 8.85229 12.541 8.85229H11.7617ZM18.7109 7.39917H22.1445C22.8242 7.39917 23.3301 7.42847 23.6621 7.48706C23.998 7.54175 24.2969 7.65894 24.5586 7.83862C24.8242 8.01831 25.0449 8.25854 25.2207 8.55933C25.3965 8.8562 25.4844 9.19019 25.4844 9.56128C25.4844 9.96362 25.375 10.3328 25.1562 10.6687C24.9414 11.0046 24.6484 11.2566 24.2773 11.4246C24.8008 11.5769 25.2031 11.8367 25.4844 12.2039C25.7656 12.571 25.9062 13.0027 25.9062 13.4988C25.9062 13.8894 25.8145 14.2703 25.6309 14.6414C25.4512 15.0085 25.2031 15.3035 24.8867 15.5261C24.5742 15.7449 24.1875 15.8796 23.7266 15.9304C23.4375 15.9617 22.7402 15.9812 21.6348 15.989H18.7109V7.39917ZM20.4453 8.82886V10.8152H21.582C22.2578 10.8152 22.6777 10.8054 22.8418 10.7859C23.1387 10.7507 23.3711 10.6492 23.5391 10.4812C23.7109 10.3093 23.7969 10.0847 23.7969 9.80737C23.7969 9.54175 23.7227 9.3269 23.5742 9.16284C23.4297 8.99487 23.2129 8.89331 22.9238 8.85815C22.752 8.83862 22.2578 8.82886 21.4414 8.82886H20.4453ZM20.4453 12.2449V14.5417H22.0508C22.6758 14.5417 23.0723 14.5242 23.2402 14.489C23.498 14.4421 23.707 14.3289 23.8672 14.1492C24.0312 13.9656 24.1133 13.7214 24.1133 13.4167C24.1133 13.1589 24.0508 12.9402 23.9258 12.7605C23.8008 12.5808 23.6191 12.45 23.3809 12.3679C23.1465 12.2859 22.6348 12.2449 21.8457 12.2449H20.4453ZM29.3105 15.989V8.85229H26.7617V7.39917H33.5879V8.85229H31.0449V15.989H29.3105Z" fill="white"/>
<defs>
<linearGradient id="paint0_linear_40_2545" x1="21.5" y1="1.98901" x2="21.5" y2="21.989" gradientUnits="userSpaceOnUse">
<stop stop-color="#6DDAE5"/>
<stop offset="1" stop-color="#00755A"/>
</linearGradient>
</defs>
</svg>
