<svg width="43" height="30" viewBox="0 0 43 30" fill="none" xmlns="http://www.w3.org/2000/svg">
<path d="M2.53314 21.9543C1.80034 21.7133 1.29774 21.3743 0.95644 20.9187C0.50084 20.3095 0.39554 19.5333 0.66794 18.7891C0.96214 17.9834 1.86464 17.5564 2.65814 17.8647C3.20264 18.0638 3.56824 18.5359 3.65664 19.0698C5.60304 19.6405 12.5572 19.19 17.7311 18.8542C31.8987 17.9364 40.6172 17.6603 42.2474 21.5662C42.5777 22.357 42.2043 23.2658 41.413 23.5959C40.6226 23.9269 39.7136 23.5539 39.3833 22.7615C38.4848 20.6202 24.6048 21.519 17.932 21.9517C9.27704 22.5132 4.80404 22.7028 2.53314 21.9543Z" fill="url(#paint0_radial_92_5625)"/>
<path d="M4.41415 13.8118C3.37825 13.4704 2.64285 12.9131 2.20455 12.0836C1.80375 11.326 2.09355 10.3869 2.85145 9.98675C3.60715 9.58685 4.54215 9.87425 4.94475 10.6266C5.99625 11.9391 15.0774 10.4816 19.9564 9.69755C29.8305 8.10985 36.02 7.30035 38.7307 9.46765C39.5265 10.1034 39.9803 10.9731 40.0439 11.9824C40.0976 12.8378 39.4472 13.5751 38.5917 13.6288C37.7367 13.6843 36.9994 13.0327 36.9457 12.1773C36.9383 12.0562 36.9154 11.9902 36.7925 11.8917C34.9621 10.4252 26.5739 11.7776 20.4491 12.7621C12.6712 14.0124 7.34325 14.7772 4.41415 13.8118Z" fill="url(#paint1_radial_92_5625)"/>
<path d="M6.85105 28.8849C6.15825 28.6566 5.70255 27.9622 5.79915 27.2122C5.90905 26.3623 6.68705 25.7623 7.53715 25.8718C22.9135 27.8565 37.5468 24.5316 39.2895 22.4507C39.1564 21.7457 39.5288 21.0195 40.2176 20.7321C41.0084 20.4034 41.9177 20.7754 42.2474 21.5665C42.6106 22.4367 42.4607 23.4048 41.8364 24.2225C38.9575 27.9949 22.3814 30.9173 7.13965 28.9503C7.03975 28.937 6.94315 28.9153 6.85105 28.8849Z" fill="url(#paint2_radial_92_5625)"/>
<path d="M1.62483 20.8339C1.60753 20.8282 1.59073 20.8227 1.57383 20.816C0.768634 20.522 0.373334 19.5944 0.667834 18.7893C1.76083 15.8006 7.55203 15.3508 18.552 14.756C24.801 14.4182 36.4326 13.789 36.9952 11.6798C37.2165 10.8517 38.067 10.3597 38.8948 10.5803C39.7136 10.7959 40.2151 11.6516 39.9943 12.4799C38.9271 16.4781 31.245 17.1781 18.7199 17.8554C13.0894 18.1598 4.58153 18.6201 3.54563 19.9281C3.25773 20.7163 2.41503 21.0944 1.62483 20.8339Z" fill="url(#paint3_radial_92_5625)"/>
<path d="M3.09062 12.8325C2.72262 12.7112 2.39972 12.4532 2.20452 12.0836C1.42772 10.6138 1.70532 9.0372 2.96652 7.7572C7.81172 2.8409 34.8582 -0.0408006 36.6653 0.857499C37.2683 1.1647 37.6067 1.8326 37.4952 2.5001C37.3692 3.2585 36.828 3.711 35.8866 3.8449C35.6381 3.8806 35.4026 3.8673 35.172 3.7796C30.3625 3.912 7.42112 6.3147 4.95492 10.2066C4.85942 10.3576 4.83762 10.4238 4.94822 10.6336C5.34902 11.3912 5.05922 12.3303 4.30132 12.7304C3.91292 12.936 3.47732 12.96 3.09062 12.8325Z" fill="url(#paint4_radial_92_5625)"/>
<defs>
<radialGradient id="paint0_radial_92_5625" cx="0" cy="0" r="1" gradientUnits="userSpaceOnUse" gradientTransform="translate(21.4631 20.7606) rotate(18.2411) scale(15.243)">
<stop stop-color="#00A0EC"/>
<stop offset="0.3177" stop-color="#007FBC"/>
<stop offset="0.6126" stop-color="#006697"/>
<stop offset="0.8499" stop-color="#005780"/>
<stop offset="1" stop-color="#005178"/>
</radialGradient>
<radialGradient id="paint1_radial_92_5625" cx="0" cy="0" r="1" gradientUnits="userSpaceOnUse" gradientTransform="translate(21.1563 11.3504) rotate(18.2411) scale(13.9702)">
<stop stop-color="#00A0EC"/>
<stop offset="0.3177" stop-color="#007FBC"/>
<stop offset="0.6126" stop-color="#006697"/>
<stop offset="0.8499" stop-color="#005780"/>
<stop offset="1" stop-color="#005178"/>
</radialGradient>
<radialGradient id="paint2_radial_92_5625" cx="0" cy="0" r="1" gradientUnits="userSpaceOnUse" gradientTransform="translate(24.187 24.8234) rotate(18.2411) scale(13.5379 13.5379)">
<stop offset="0.0005" stop-color="#42C2FF"/>
<stop offset="0.4381" stop-color="#00A0EC"/>
<stop offset="1" stop-color="#005178"/>
</radialGradient>
<radialGradient id="paint3_radial_92_5625" cx="0" cy="0" r="1" gradientUnits="userSpaceOnUse" gradientTransform="translate(20.3045 15.7197) rotate(18.2411) scale(14.6201)">
<stop offset="0.0005" stop-color="#42C2FF"/>
<stop offset="0.4381" stop-color="#00A0EC"/>
<stop offset="1" stop-color="#005178"/>
</radialGradient>
<radialGradient id="paint4_radial_92_5625" cx="0" cy="0" r="1" gradientUnits="userSpaceOnUse" gradientTransform="translate(17.966 4.62006) rotate(-7.35953) scale(21.0568 6.6029)">
<stop offset="0.0005" stop-color="#42C2FF"/>
<stop offset="0.4381" stop-color="#00A0EC"/>
<stop offset="1" stop-color="#005178"/>
</radialGradient>
</defs>
</svg>
