<svg width="93" height="112" viewBox="0 0 93 112" fill="none" xmlns="http://www.w3.org/2000/svg">
<path d="M46.1464 87.1354C54.1388 87.1354 60.6179 80.6563 60.6179 72.6639C60.6179 64.6715 54.1388 58.1924 46.1464 58.1924C38.154 58.1924 31.6749 64.6715 31.6749 72.6639C31.6749 80.6563 38.154 87.1354 46.1464 87.1354Z" fill="url(#paint0_radial_92_5468)"/>
<path opacity="0.3" d="M34.9115 63.5492L43.0773 58.9305C44.1405 58.3291 45.3702 59.3955 44.9253 60.5332L36.1099 83.0748C37.3175 84.2392 38.7251 85.194 40.2788 85.8847L49.8256 61.4731C50.2536 60.3787 51.1797 59.7158 52.1916 59.5277C50.3501 58.6786 48.3073 58.1919 46.1465 58.1919C41.6099 58.192 37.5648 60.2825 34.9115 63.5492Z" fill="#262458"/>
<path d="M86.7067 92.7847L56.0688 55.0302L67.2707 61.2697C67.6486 61.4805 68.0582 61.5805 68.4618 61.5805C69.3229 61.5805 70.1583 61.126 70.6068 60.3206C71.2661 59.1373 70.8409 57.6433 69.6577 56.9845C69.6577 56.9845 56.906 49.8829 50.6761 46.4134C50.1492 46.1199 49.8257 45.5659 49.8257 44.9628V4.12921C49.8257 2.35001 48.6226 0.718809 46.8752 0.383509C44.5238 -0.0676906 42.4673 1.72251 42.4673 3.99261V44.9888C42.4673 45.59 42.1438 46.1447 41.6205 46.4406L6.41571 66.3504C5.28001 66.9927 4.71521 68.4055 5.26501 69.5887C5.68751 70.498 6.57631 71.0132 7.49411 71.0132C7.90311 71.0132 8.31811 70.9102 8.69951 70.6946L38.1717 54.0247C39.235 53.4233 40.4646 54.4897 40.0197 55.6274L21.5985 102.732C21.1229 103.948 21.5797 105.402 22.7563 105.969C23.1048 106.137 23.4708 106.216 23.8288 106.216C24.8091 106.216 25.7349 105.624 26.1139 104.656L44.9199 56.5674C45.802 54.3117 48.7898 53.8465 50.316 55.7272L82.8969 95.8759C83.3819 96.4735 84.0898 96.7831 84.803 96.7831C85.3461 96.7831 85.8929 96.6035 86.3474 96.2352C87.3995 95.3812 87.56 93.8368 86.7067 92.7847Z" fill="url(#paint1_linear_92_5468)"/>
<path d="M68.4616 61.5804C68.058 61.5804 67.6484 61.4804 67.2705 61.2696L44.9529 48.8386C43.7696 48.1799 43.3446 46.6858 44.0039 45.5025C44.6626 44.3204 46.1566 43.8941 47.3399 44.5534L69.6575 56.9844C70.8408 57.6431 71.2659 59.1372 70.6066 60.3205C70.158 61.1259 69.3227 61.5804 68.4616 61.5804Z" fill="url(#paint2_linear_92_5468)"/>
<path d="M7.49411 71.0132C6.63841 71.0132 5.80781 70.5653 5.35691 69.7676C4.68981 68.5885 5.10481 67.0914 6.28391 66.425L44.9386 44.5613C46.1183 43.8942 47.6147 44.3086 48.2812 45.4883C48.9483 46.6674 48.5333 48.1645 47.3542 48.8309L8.69951 70.6946C8.31811 70.9102 7.90311 71.0132 7.49411 71.0132Z" fill="url(#paint3_linear_92_5468)"/>
<path d="M84.803 96.783C84.0898 96.783 83.382 96.4734 82.8969 95.8758L44.2416 48.2416C43.3883 47.1895 43.5488 45.6451 44.6009 44.7912C45.6524 43.9397 47.1968 44.0978 48.0513 45.1505L86.7067 92.7847C87.56 93.8368 87.3995 95.3812 86.3474 96.2351C85.8929 96.6033 85.3462 96.783 84.803 96.783Z" fill="url(#paint4_linear_92_5468)"/>
<path d="M23.8288 106.216C23.5318 106.216 23.2294 106.161 22.936 106.047C21.6743 105.553 21.0515 104.131 21.5449 102.869L43.8619 45.8025C44.3547 44.5402 45.7769 43.918 47.0399 44.4114C48.3016 44.9048 48.9244 46.3276 48.431 47.5894L26.114 104.656C25.7349 105.624 24.8091 106.216 23.8288 106.216Z" fill="url(#paint5_linear_92_5468)"/>
<path d="M68.4616 61.5804C68.058 61.5804 67.6484 61.4804 67.2705 61.2696L44.9529 48.8386C43.7696 48.1799 43.3446 46.6858 44.0039 45.5025C44.6626 44.3204 46.1566 43.8941 47.3399 44.5534L69.6575 56.9844C70.8408 57.6431 71.2659 59.1372 70.6066 60.3205C70.158 61.1259 69.3227 61.5804 68.4616 61.5804Z" fill="url(#paint6_linear_92_5468)"/>
<path d="M7.49411 71.0132C6.63841 71.0132 5.80781 70.5653 5.35691 69.7676C4.68981 68.5885 5.10481 67.0914 6.28391 66.425L44.9386 44.5613C46.1183 43.8942 47.6147 44.3086 48.2812 45.4883C48.9483 46.6674 48.5333 48.1645 47.3542 48.8309L8.69951 70.6946C8.31811 70.9102 7.90311 71.0132 7.49411 71.0132Z" fill="url(#paint7_linear_92_5468)"/>
<path d="M84.803 96.783C84.0898 96.783 83.382 96.4734 82.8969 95.8758L44.2416 48.2416C43.3883 47.1895 43.5488 45.6451 44.6009 44.7912C45.6524 43.9397 47.1968 44.0978 48.0513 45.1505L86.7067 92.7847C87.56 93.8368 87.3995 95.3812 86.3474 96.2351C85.8929 96.6033 85.3462 96.783 84.803 96.783Z" fill="url(#paint8_linear_92_5468)"/>
<path d="M23.8288 106.216C23.5318 106.216 23.2294 106.161 22.936 106.047C21.6743 105.553 21.0515 104.131 21.5449 102.869L43.8619 45.8025C44.3547 44.5402 45.7769 43.918 47.0399 44.4114C48.3016 44.9048 48.9244 46.3276 48.431 47.5894L26.114 104.656C25.7349 105.624 24.8091 106.216 23.8288 106.216Z" fill="url(#paint9_linear_92_5468)"/>
<path d="M22.4123 104.229C24.7148 101.474 25.5543 98.382 24.2874 97.3231C23.0204 96.2642 20.1268 97.639 17.8242 100.394C15.5216 103.149 14.6822 106.24 15.9491 107.299C17.216 108.358 20.1097 106.983 22.4123 104.229Z" fill="url(#paint10_radial_92_5468)"/>
<path d="M24.5539 105.066C24.7311 101.48 26.2118 98.639 27.861 98.7205C29.5102 98.802 30.7035 101.775 30.5263 105.361C30.3491 108.947 28.8684 111.788 27.2192 111.707C25.5699 111.625 24.3767 108.652 24.5539 105.066Z" fill="url(#paint11_radial_92_5468)"/>
<path d="M26.6138 104.851C27.9215 101.508 27.7349 98.3095 26.1971 97.7081C24.6593 97.1067 22.3525 99.3298 21.0448 102.674C19.7371 106.017 19.9237 109.216 21.4615 109.817C22.9993 110.418 25.3061 108.195 26.6138 104.851Z" fill="url(#paint12_radial_92_5468)"/>
<path d="M84.5371 95.6456C83.4039 92.6194 81.357 90.5888 79.9653 91.1099C78.5736 91.6311 78.364 94.5067 79.4972 97.5329C80.6304 100.559 82.6773 102.59 84.069 102.069C85.4607 101.547 85.6703 98.6718 84.5371 95.6456Z" fill="url(#paint13_radial_92_5468)"/>
<path d="M86.1443 94.3416C83.4163 92.6096 81.8505 90.1885 82.6471 88.9339C83.4436 87.6793 86.3008 88.0663 89.0289 89.7982C91.757 91.5301 93.3227 93.9513 92.5261 95.2059C91.7295 96.4606 88.8723 96.0736 86.1443 94.3416Z" fill="url(#paint14_radial_92_5468)"/>
<path d="M86.8913 92.634C84.8551 90.1249 82.269 88.8499 81.1151 89.7864C79.9612 90.7229 80.6763 93.516 82.7125 96.0252C84.7487 98.5343 87.3348 99.8093 88.4887 98.8728C89.6426 97.9364 88.9275 95.1432 86.8913 92.634Z" fill="url(#paint15_radial_92_5468)"/>
<path d="M6.37687 68.1332C9.19677 67.5869 11.2791 66.0928 11.0279 64.7959C10.7767 63.499 8.28697 62.8905 5.46707 63.4368C2.64717 63.9831 0.564869 65.4772 0.816069 66.7741C1.06727 68.071 3.55697 68.6795 6.37687 68.1332Z" fill="url(#paint16_radial_92_5468)"/>
<path d="M7.28269 69.7345C9.20379 67.5992 11.5573 66.5844 12.5393 67.4679C13.5213 68.3514 12.7601 70.7987 10.839 72.934C8.91789 75.0693 6.56439 76.0841 5.58239 75.2006C4.60039 74.3171 5.36159 71.8698 7.28269 69.7345Z" fill="url(#paint17_radial_92_5468)"/>
<path d="M8.66895 70.6414C11.1691 69.2273 12.6687 67.1488 12.0183 65.999C11.368 64.8492 8.81395 65.0634 6.31385 66.4775C3.81375 67.8916 2.31415 69.9701 2.96455 71.1199C3.61495 72.2697 6.16885 72.0555 8.66895 70.6414Z" fill="url(#paint18_radial_92_5468)"/>
<path d="M68.6533 60.1542C66.9602 58.2968 64.8951 57.4223 64.0409 58.201C63.1867 58.9797 63.8668 61.1166 65.5599 62.974C67.253 64.8314 69.3181 65.7059 70.1723 64.9272C71.0266 64.1485 70.3465 62.0116 68.6533 60.1542Z" fill="url(#paint19_radial_92_5468)"/>
<path d="M69.4367 58.7478C66.9662 58.2859 65.1357 56.9905 65.3481 55.8543C65.5605 54.7181 67.7354 54.1715 70.2059 54.6333C72.6764 55.0952 74.5069 56.3906 74.2945 57.5268C74.0821 58.663 71.9072 59.2096 69.4367 58.7478Z" fill="url(#paint20_radial_92_5468)"/>
<path d="M69.4824 57.2988C67.2868 56.0758 65.0509 55.9029 64.4884 56.9127C63.9259 57.9225 65.2499 59.7325 67.4455 60.9556C69.6411 62.1787 71.877 62.3515 72.4395 61.3417C73.002 60.3319 71.6781 58.5218 69.4824 57.2988Z" fill="url(#paint21_radial_92_5468)"/>
<path d="M46.1464 50.3753C44.1146 50.3753 42.4672 48.7279 42.4672 46.6961V3.99268C42.4673 1.96088 44.1146 0.313477 46.1464 0.313477C48.1782 0.313477 49.8256 1.96088 49.8256 3.99268V46.6961C49.8256 48.7279 48.1783 50.3753 46.1464 50.3753Z" fill="url(#paint22_linear_92_5468)"/>
<path d="M46.1464 50.3753C44.1146 50.3753 42.4672 48.7279 42.4672 46.6961V3.99268C42.4673 1.96088 44.1146 0.313477 46.1464 0.313477C48.1782 0.313477 49.8256 1.96088 49.8256 3.99268V46.6961C49.8256 48.7279 48.1783 50.3753 46.1464 50.3753Z" fill="url(#paint23_linear_92_5468)"/>
<defs>
<radialGradient id="paint0_radial_92_5468" cx="0" cy="0" r="1" gradientUnits="userSpaceOnUse" gradientTransform="translate(43.4856 69.0079) scale(15.7111 15.7111)">
<stop offset="0.0015" stop-color="#D9C700"/>
<stop offset="0.0712" stop-color="#BDBD0A"/>
<stop offset="0.4667" stop-color="#117E35"/>
<stop offset="1" stop-color="#202E1B"/>
</radialGradient>
<linearGradient id="paint1_linear_92_5468" x1="46.1537" y1="106.216" x2="46.1537" y2="0.31354" gradientUnits="userSpaceOnUse">
<stop offset="0.0015" stop-color="#D9C700"/>
<stop offset="0.4233" stop-color="#93B247"/>
<stop offset="0.5241" stop-color="#8DAB43"/>
<stop offset="0.9994" stop-color="#3A9DB7"/>
</linearGradient>
<linearGradient id="paint2_linear_92_5468" x1="56.1089" y1="55.0575" x2="58.4135" y2="50.9232" gradientUnits="userSpaceOnUse">
<stop stop-color="#93B247"/>
<stop offset="0.0701" stop-color="#A6B83B"/>
<stop offset="0.1835" stop-color="#BDBF27"/>
<stop offset="0.3017" stop-color="#CDC40E"/>
<stop offset="0.4267" stop-color="#D6C600"/>
<stop offset="0.5696" stop-color="#D9C700"/>
<stop offset="0.6773" stop-color="#D6C600"/>
<stop offset="0.7718" stop-color="#CDC40F"/>
<stop offset="0.8614" stop-color="#BDBF28"/>
<stop offset="0.9474" stop-color="#A6B73B"/>
<stop offset="1" stop-color="#93B247"/>
</linearGradient>
<linearGradient id="paint3_linear_92_5468" x1="25.5866" y1="55.4397" x2="28.0202" y2="59.7606" gradientUnits="userSpaceOnUse">
<stop stop-color="#93B247"/>
<stop offset="0.0701" stop-color="#A6B83B"/>
<stop offset="0.1835" stop-color="#BDBF27"/>
<stop offset="0.3017" stop-color="#CDC40E"/>
<stop offset="0.4267" stop-color="#D6C600"/>
<stop offset="0.5696" stop-color="#D9C700"/>
<stop offset="0.6773" stop-color="#D6C600"/>
<stop offset="0.7718" stop-color="#CDC40F"/>
<stop offset="0.8614" stop-color="#BDBF28"/>
<stop offset="0.9474" stop-color="#A6B73B"/>
<stop offset="1" stop-color="#93B247"/>
</linearGradient>
<linearGradient id="paint4_linear_92_5468" x1="63.6591" y1="71.9699" x2="67.4337" y2="68.9403" gradientUnits="userSpaceOnUse">
<stop stop-color="#93B247"/>
<stop offset="0.0701" stop-color="#A6B83B"/>
<stop offset="0.1835" stop-color="#BDBF27"/>
<stop offset="0.3017" stop-color="#CDC40E"/>
<stop offset="0.4267" stop-color="#D6C600"/>
<stop offset="0.5696" stop-color="#D9C700"/>
<stop offset="0.6773" stop-color="#D6C600"/>
<stop offset="0.7718" stop-color="#CDC40F"/>
<stop offset="0.8614" stop-color="#BDBF28"/>
<stop offset="0.9474" stop-color="#A6B73B"/>
<stop offset="1" stop-color="#93B247"/>
</linearGradient>
<linearGradient id="paint5_linear_92_5468" x1="32.6284" y1="74.3116" x2="37.0983" y2="76.0499" gradientUnits="userSpaceOnUse">
<stop stop-color="#93B247"/>
<stop offset="0.0701" stop-color="#A6B83B"/>
<stop offset="0.1835" stop-color="#BDBF27"/>
<stop offset="0.3017" stop-color="#CDC40E"/>
<stop offset="0.4267" stop-color="#D6C600"/>
<stop offset="0.5696" stop-color="#D9C700"/>
<stop offset="0.6773" stop-color="#D6C600"/>
<stop offset="0.7718" stop-color="#CDC40F"/>
<stop offset="0.8614" stop-color="#BDBF28"/>
<stop offset="0.9474" stop-color="#A6B73B"/>
<stop offset="1" stop-color="#93B247"/>
</linearGradient>
<linearGradient id="paint6_linear_92_5468" x1="70.5959" y1="60.4973" x2="46.0701" y2="46.499" gradientUnits="userSpaceOnUse">
<stop offset="0.0015" stop-color="#D9C700" stop-opacity="0"/>
<stop offset="0.8733" stop-color="#93B247"/>
</linearGradient>
<linearGradient id="paint7_linear_92_5468" x1="5.35071" y1="69.9708" x2="47.8083" y2="45.5606" gradientUnits="userSpaceOnUse">
<stop offset="0.0015" stop-color="#D9C700" stop-opacity="0"/>
<stop offset="0.8733" stop-color="#93B247"/>
</linearGradient>
<linearGradient id="paint8_linear_92_5468" x1="86.1671" y1="96.3793" x2="44.9821" y2="44.8981" gradientUnits="userSpaceOnUse">
<stop offset="0.0015" stop-color="#D9C700" stop-opacity="0"/>
<stop offset="0.8733" stop-color="#93B247"/>
</linearGradient>
<linearGradient id="paint9_linear_92_5468" x1="22.9926" y1="106.069" x2="46.9199" y2="44.5523" gradientUnits="userSpaceOnUse">
<stop offset="0.0015" stop-color="#D9C700" stop-opacity="0"/>
<stop offset="0.8733" stop-color="#93B247"/>
</linearGradient>
<radialGradient id="paint10_radial_92_5468" cx="0" cy="0" r="1" gradientUnits="userSpaceOnUse" gradientTransform="translate(20.1171 102.309) rotate(40.1973) scale(2.865 6.47412)">
<stop stop-color="#D081B5"/>
<stop offset="0.4585" stop-color="#C1506E"/>
<stop offset="0.8282" stop-color="#B42F43"/>
<stop offset="1" stop-color="#AF2134"/>
</radialGradient>
<radialGradient id="paint11_radial_92_5468" cx="0" cy="0" r="1" gradientUnits="userSpaceOnUse" gradientTransform="translate(27.5357 105.208) rotate(2.65954) scale(2.96543 6.12325)">
<stop stop-color="#D081B5"/>
<stop offset="0.4585" stop-color="#C1506E"/>
<stop offset="0.8282" stop-color="#B42F43"/>
<stop offset="1" stop-color="#AF2134"/>
</radialGradient>
<radialGradient id="paint12_radial_92_5468" cx="0" cy="0" r="1" gradientUnits="userSpaceOnUse" gradientTransform="translate(23.8308 103.761) rotate(21.3588) scale(2.95784 6.35363)">
<stop stop-color="#D081B5"/>
<stop offset="0.4585" stop-color="#C1506E"/>
<stop offset="0.8282" stop-color="#B42F43"/>
<stop offset="1" stop-color="#AF2134"/>
</radialGradient>
<radialGradient id="paint13_radial_92_5468" cx="0" cy="0" r="1" gradientUnits="userSpaceOnUse" gradientTransform="translate(82.0161 96.5948) rotate(-20.2234) scale(2.57873 5.82685)">
<stop stop-color="#D081B5"/>
<stop offset="0.4585" stop-color="#C1506E"/>
<stop offset="0.8282" stop-color="#B42F43"/>
<stop offset="1" stop-color="#AF2134"/>
</radialGradient>
<radialGradient id="paint14_radial_92_5468" cx="0" cy="0" r="1" gradientUnits="userSpaceOnUse" gradientTransform="translate(87.5901 92.0695) rotate(-57.7578) scale(2.669 5.5112)">
<stop stop-color="#D081B5"/>
<stop offset="0.4585" stop-color="#C1506E"/>
<stop offset="0.8282" stop-color="#B42F43"/>
<stop offset="1" stop-color="#AF2134"/>
</radialGradient>
<radialGradient id="paint15_radial_92_5468" cx="0" cy="0" r="1" gradientUnits="userSpaceOnUse" gradientTransform="translate(84.799 94.3249) rotate(-39.058) scale(2.66207 5.71816)">
<stop stop-color="#D081B5"/>
<stop offset="0.4585" stop-color="#C1506E"/>
<stop offset="0.8282" stop-color="#B42F43"/>
<stop offset="1" stop-color="#AF2134"/>
</radialGradient>
<radialGradient id="paint16_radial_92_5468" cx="0" cy="0" r="1" gradientUnits="userSpaceOnUse" gradientTransform="translate(5.92158 65.7953) rotate(79.3451) scale(2.2922 5.17937)">
<stop stop-color="#D081B5"/>
<stop offset="0.4585" stop-color="#C1506E"/>
<stop offset="0.8282" stop-color="#B42F43"/>
<stop offset="1" stop-color="#AF2134"/>
</radialGradient>
<radialGradient id="paint17_radial_92_5468" cx="0" cy="0" r="1" gradientUnits="userSpaceOnUse" gradientTransform="translate(9.06335 71.3229) rotate(41.8058) scale(2.37237 4.89863)">
<stop stop-color="#D081B5"/>
<stop offset="0.4585" stop-color="#C1506E"/>
<stop offset="0.8282" stop-color="#B42F43"/>
<stop offset="1" stop-color="#AF2134"/>
</radialGradient>
<radialGradient id="paint18_radial_92_5468" cx="0" cy="0" r="1" gradientUnits="userSpaceOnUse" gradientTransform="translate(7.48958 68.5577) rotate(60.5074) scale(2.36625 5.08291)">
<stop stop-color="#D081B5"/>
<stop offset="0.4585" stop-color="#C1506E"/>
<stop offset="0.8282" stop-color="#B42F43"/>
<stop offset="1" stop-color="#AF2134"/>
</radialGradient>
<radialGradient id="paint19_radial_92_5468" cx="0" cy="0" r="1" gradientUnits="userSpaceOnUse" gradientTransform="translate(67.1136 61.5666) rotate(-42.0451) scale(2.00555 4.53199)">
<stop stop-color="#D081B5"/>
<stop offset="0.4585" stop-color="#C1506E"/>
<stop offset="0.8282" stop-color="#B42F43"/>
<stop offset="1" stop-color="#AF2134"/>
</radialGradient>
<radialGradient id="paint20_radial_92_5468" cx="0" cy="0" r="1" gradientUnits="userSpaceOnUse" gradientTransform="translate(69.8175 56.6893) rotate(-79.5778) scale(2.0759 4.28645)">
<stop stop-color="#D081B5"/>
<stop offset="0.4585" stop-color="#C1506E"/>
<stop offset="0.8282" stop-color="#B42F43"/>
<stop offset="1" stop-color="#AF2134"/>
</radialGradient>
<radialGradient id="paint21_radial_92_5468" cx="0" cy="0" r="1" gradientUnits="userSpaceOnUse" gradientTransform="translate(68.4701 59.125) rotate(-60.882) scale(2.07045 4.44743)">
<stop stop-color="#D081B5"/>
<stop offset="0.4585" stop-color="#C1506E"/>
<stop offset="0.8282" stop-color="#B42F43"/>
<stop offset="1" stop-color="#AF2134"/>
</radialGradient>
<linearGradient id="paint22_linear_92_5468" x1="42.4673" y1="25.3444" x2="49.8256" y2="25.3444" gradientUnits="userSpaceOnUse">
<stop stop-color="#93B247"/>
<stop offset="0.0701" stop-color="#A6B83B"/>
<stop offset="0.1835" stop-color="#BDBF27"/>
<stop offset="0.3017" stop-color="#CDC40E"/>
<stop offset="0.4267" stop-color="#D6C600"/>
<stop offset="0.5696" stop-color="#D9C700"/>
<stop offset="0.6773" stop-color="#D6C600"/>
<stop offset="0.7718" stop-color="#CDC40F"/>
<stop offset="0.8614" stop-color="#BDBF28"/>
<stop offset="0.9474" stop-color="#A6B73B"/>
<stop offset="1" stop-color="#93B247"/>
</linearGradient>
<linearGradient id="paint23_linear_92_5468" x1="46.1464" y1="50.3753" x2="46.1464" y2="0.313477" gradientUnits="userSpaceOnUse">
<stop stop-color="#8DAB43" stop-opacity="0"/>
<stop offset="0.9994" stop-color="#3A9DB7"/>
</linearGradient>
</defs>
</svg>
