<svg width="57" height="24" viewBox="0 0 57 24" fill="none" xmlns="http://www.w3.org/2000/svg">
<rect x="2" y="1.98901" width="54" height="20" rx="10" fill="url(#paint0_linear_45_4245)"/>
<rect x="2" y="1.98901" width="54" height="20" rx="10" stroke="#00A800" stroke-width="3" stroke-linejoin="round"/>
<path d="M13.9648 12.8308V11.3835H17.7031V14.8054C17.3398 15.157 16.8125 15.4675 16.1211 15.7371C15.4336 16.0027 14.7363 16.1355 14.0293 16.1355C13.1309 16.1355 12.3477 15.948 11.6797 15.573C11.0117 15.1941 10.5098 14.655 10.1738 13.9558C9.83789 13.2527 9.66992 12.489 9.66992 11.6648C9.66992 10.7703 9.85742 9.97534 10.2324 9.28003C10.6074 8.58472 11.1562 8.05151 11.8789 7.68042C12.4297 7.39526 13.1152 7.25269 13.9355 7.25269C15.002 7.25269 15.834 7.47729 16.4316 7.92651C17.0332 8.37183 17.4199 8.98901 17.5918 9.77808L15.8691 10.1003C15.748 9.67847 15.5195 9.34644 15.1836 9.10425C14.8516 8.85815 14.4355 8.73511 13.9355 8.73511C13.1777 8.73511 12.5742 8.97534 12.125 9.45581C11.6797 9.93628 11.457 10.6492 11.457 11.5945C11.457 12.614 11.6836 13.3796 12.1367 13.8914C12.5898 14.3992 13.1836 14.6531 13.918 14.6531C14.2812 14.6531 14.6445 14.5828 15.0078 14.4421C15.375 14.2976 15.6895 14.1238 15.9512 13.9207V12.8308H13.9648ZM19.3262 15.989V7.39917H21.0137L24.5293 13.1355V7.39917H26.1406V15.989H24.4004L20.9375 10.3875V15.989H19.3262ZM35.7266 15.989H33.8398L33.0898 14.0378H29.6562L28.9473 15.989H27.1074L30.4531 7.39917H32.2871L35.7266 15.989ZM32.5332 12.5906L31.3496 9.40308L30.1895 12.5906H32.5332ZM37.6953 15.989V8.85229H35.1465V7.39917H41.9727V8.85229H39.4297V15.989H37.6953ZM46.9473 15.989H45.3008V9.78394C44.6992 10.3464 43.9902 10.7625 43.1738 11.032V9.53784C43.6035 9.39722 44.0703 9.13159 44.5742 8.74097C45.0781 8.34644 45.4238 7.88745 45.6113 7.36401H46.9473V15.989Z" fill="white"/>
<defs>
<linearGradient id="paint0_linear_45_4245" x1="29" y1="1.98901" x2="29" y2="21.989" gradientUnits="userSpaceOnUse">
<stop stop-color="#00A800"/>
<stop offset="1" stop-color="#FF252F"/>
</linearGradient>
</defs>
</svg>
