<svg width="58" height="24" viewBox="0 0 58 24" fill="none" xmlns="http://www.w3.org/2000/svg">
<rect x="2" y="1.98901" width="55" height="20" rx="10" fill="url(#paint0_linear_40_2534)"/>
<rect x="2" y="1.98901" width="55" height="20" rx="10" stroke="#2DB3E5" stroke-width="3" stroke-linejoin="round"/>
<path d="M15.8535 12.8308L17.5352 13.364C17.2773 14.3015 16.8477 14.9988 16.2461 15.4558C15.6484 15.9089 14.8887 16.1355 13.9668 16.1355C12.8262 16.1355 11.8887 15.7468 11.1543 14.9695C10.4199 14.1882 10.0527 13.1218 10.0527 11.7703C10.0527 10.3406 10.4219 9.2312 11.1602 8.44214C11.8984 7.64917 12.8691 7.25269 14.0723 7.25269C15.123 7.25269 15.9766 7.56323 16.6328 8.18433C17.0234 8.55151 17.3164 9.07886 17.5117 9.76636L15.7949 10.1765C15.6934 9.7312 15.4805 9.37964 15.1562 9.12183C14.8359 8.86401 14.4453 8.73511 13.9844 8.73511C13.3477 8.73511 12.8301 8.96362 12.4316 9.42065C12.0371 9.87769 11.8398 10.6179 11.8398 11.6414C11.8398 12.7273 12.0352 13.5007 12.4258 13.9617C12.8164 14.4226 13.3242 14.6531 13.9492 14.6531C14.4102 14.6531 14.8066 14.5066 15.1387 14.2136C15.4707 13.9207 15.709 13.4597 15.8535 12.8308ZM19.0352 15.989V7.39917H20.7695V10.78H24.168V7.39917H25.9023V15.989H24.168V12.2332H20.7695V15.989H19.0352ZM27.2617 13.1941L28.9492 13.03C29.0508 13.5964 29.2559 14.0125 29.5645 14.2781C29.877 14.5437 30.2969 14.6765 30.8242 14.6765C31.3828 14.6765 31.8027 14.5593 32.084 14.325C32.3691 14.0867 32.5117 13.8093 32.5117 13.4929C32.5117 13.2898 32.4512 13.1179 32.3301 12.9773C32.2129 12.8328 32.0059 12.7078 31.709 12.6023C31.5059 12.532 31.043 12.407 30.3203 12.2273C29.3906 11.9968 28.7383 11.7136 28.3633 11.3777C27.8359 10.905 27.5723 10.3289 27.5723 9.64917C27.5723 9.21167 27.6953 8.80347 27.9414 8.42456C28.1914 8.04175 28.5488 7.75073 29.0137 7.55151C29.4824 7.35229 30.0469 7.25269 30.707 7.25269C31.7852 7.25269 32.5957 7.48901 33.1387 7.96167C33.6855 8.43433 33.9727 9.06519 34 9.85425L32.2656 9.93042C32.1914 9.48901 32.0312 9.17261 31.7852 8.9812C31.543 8.78589 31.1777 8.68823 30.6895 8.68823C30.1855 8.68823 29.791 8.79175 29.5059 8.99878C29.3223 9.13159 29.2305 9.30933 29.2305 9.53198C29.2305 9.73511 29.3164 9.90894 29.4883 10.0535C29.707 10.2371 30.2383 10.4285 31.082 10.6277C31.9258 10.8269 32.5488 11.0339 32.9512 11.2488C33.3574 11.4597 33.6738 11.7507 33.9004 12.1218C34.1309 12.489 34.2461 12.9441 34.2461 13.4871C34.2461 13.9792 34.1094 14.4402 33.8359 14.8699C33.5625 15.2996 33.1758 15.6199 32.6758 15.8308C32.1758 16.0378 31.5527 16.1414 30.8066 16.1414C29.7207 16.1414 28.8867 15.8914 28.3047 15.3914C27.7227 14.8875 27.375 14.155 27.2617 13.1941ZM37.9609 15.989V12.3738L34.8145 7.39917H36.8477L38.8691 10.7976L40.8496 7.39917H42.8477L39.6895 12.3855V15.989H37.9609ZM47.5586 15.989H45.9121V9.78394C45.3105 10.3464 44.6016 10.7625 43.7852 11.032V9.53784C44.2148 9.39722 44.6816 9.13159 45.1855 8.74097C45.6895 8.34644 46.0352 7.88745 46.2227 7.36401H47.5586V15.989Z" fill="white"/>
<defs>
<linearGradient id="paint0_linear_40_2534" x1="29.5" y1="1.98901" x2="29.5" y2="21.989" gradientUnits="userSpaceOnUse">
<stop stop-color="#ED9955"/>
<stop offset="1" stop-color="#2DB3E5"/>
</linearGradient>
</defs>
</svg>
