<svg width="53" height="24" viewBox="0 0 53 24" fill="none" xmlns="http://www.w3.org/2000/svg">
<rect x="2" y="1.98901" width="50" height="20" rx="10" fill="url(#paint0_linear_45_4227)"/>
<rect x="2" y="1.98901" width="50" height="20" rx="10" stroke="#D3A0BF" stroke-width="3" stroke-linejoin="round"/>
<path d="M14.1973 12.8308V11.3835H17.9355V14.8054C17.5723 15.157 17.0449 15.4675 16.3535 15.7371C15.666 16.0027 14.9688 16.1355 14.2617 16.1355C13.3633 16.1355 12.5801 15.948 11.9121 15.573C11.2441 15.1941 10.7422 14.655 10.4062 13.9558C10.0703 13.2527 9.90234 12.489 9.90234 11.6648C9.90234 10.7703 10.0898 9.97534 10.4648 9.28003C10.8398 8.58472 11.3887 8.05151 12.1113 7.68042C12.6621 7.39526 13.3477 7.25269 14.168 7.25269C15.2344 7.25269 16.0664 7.47729 16.6641 7.92651C17.2656 8.37183 17.6523 8.98901 17.8242 9.77808L16.1016 10.1003C15.9805 9.67847 15.752 9.34644 15.416 9.10425C15.084 8.85815 14.668 8.73511 14.168 8.73511C13.4102 8.73511 12.8066 8.97534 12.3574 9.45581C11.9121 9.93628 11.6895 10.6492 11.6895 11.5945C11.6895 12.614 11.916 13.3796 12.3691 13.8914C12.8223 14.3992 13.416 14.6531 14.1504 14.6531C14.5137 14.6531 14.877 14.5828 15.2402 14.4421C15.6074 14.2976 15.9219 14.1238 16.1836 13.9207V12.8308H14.1973ZM27.2871 15.989H25.4004L24.6504 14.0378H21.2168L20.5078 15.989H18.668L22.0137 7.39917H23.8477L27.2871 15.989ZM24.0938 12.5906L22.9102 9.40308L21.75 12.5906H24.0938ZM28.2598 15.989V7.46948H29.9941V14.5417H34.3066V15.989H28.2598ZM35.5254 15.989V7.39917H38.1211L39.6797 13.2585L41.2207 7.39917H43.8223V15.989H42.2109V9.22729L40.5059 15.989H38.8359L37.1367 9.22729V15.989H35.5254Z" fill="white"/>
<defs>
<linearGradient id="paint0_linear_45_4227" x1="27" y1="1.98901" x2="27" y2="21.989" gradientUnits="userSpaceOnUse">
<stop stop-color="#FF19A0"/>
<stop offset="1" stop-color="#D3A0BF"/>
</linearGradient>
</defs>
</svg>
