<svg width="17" height="176" viewBox="0 0 17 176" fill="none" xmlns="http://www.w3.org/2000/svg">
<path d="M16.5215 23.883C16.5215 21.47 15.5071 19.3006 13.8925 17.7986C13.0593 17.0235 13.0294 15.6929 13.8469 14.9004C15.0265 13.7569 16.5215 11.756 16.5215 8.77384C16.5215 4.12891 12.7745 0.761475 8.52109 0.761475C4.26768 0.761475 0.521484 4.28992 0.521484 8.77384C0.521484 11.1882 1.5369 13.3587 3.15308 14.8608C3.98766 15.6364 3.98766 17.0204 3.15308 17.7961C1.5369 19.2983 0.521484 21.4686 0.521484 23.883C0.521484 26.2974 1.5369 28.4678 3.15317 29.9699C3.98776 30.7456 3.98776 32.1297 3.15317 32.9053C1.5369 34.4075 0.521484 36.5779 0.521484 38.9923C0.521484 41.4067 1.5369 43.5771 3.15317 45.0792C3.98776 45.8549 3.98776 47.2389 3.15317 48.0145C1.5369 49.5167 0.521484 51.6872 0.521484 54.1016C0.521484 56.5158 1.5369 58.6864 3.15308 60.1885C3.98766 60.9641 3.98766 62.3481 3.15308 63.1238C1.5369 64.626 0.521484 66.7965 0.521484 69.2108C0.521484 72.1865 2.06507 74.7897 4.37407 76.2293C4.95573 76.592 5.32168 77.2273 5.32168 77.9258V121.477C5.32168 122.545 5.13627 123.616 4.67737 124.573C4.0053 125.976 3.60242 127.753 3.60242 129.689C3.60242 131.625 4.0053 133.402 4.67737 134.805C5.13617 135.762 5.32168 136.834 5.32168 137.901C5.32168 138.968 5.13627 140.039 4.67737 140.997C4.0053 142.399 3.60242 144.176 3.60242 146.112C3.60242 148.048 4.0053 149.825 4.67737 151.228C5.13617 152.186 5.32168 153.257 5.32168 154.324C5.32168 155.391 5.13627 156.462 4.67737 157.42C4.0053 158.822 3.60242 160.599 3.60242 162.535C3.60242 164.472 4.0053 166.249 4.67737 167.651C5.13617 168.609 5.32168 169.68 5.32168 170.747V172.463C5.32168 172.463 5.24442 175.747 8.521 175.747C11.7976 175.747 11.7218 172.463 11.7218 172.463V170.746C11.7218 169.679 11.9072 168.608 12.3659 167.651C13.0379 166.248 13.4406 164.471 13.4406 162.536C13.4406 160.6 13.0379 158.823 12.3659 157.42C11.9072 156.463 11.7218 155.392 11.7218 154.325V154.323C11.7218 153.256 11.9072 152.185 12.3659 151.228C13.0379 149.825 13.4406 148.048 13.4406 146.112C13.4406 144.176 13.0379 142.4 12.3659 140.997C11.9072 140.04 11.7218 138.969 11.7218 137.902V137.9C11.7218 136.833 11.9072 135.762 12.3659 134.805C13.0379 133.402 13.4406 131.625 13.4406 129.689C13.4406 127.753 13.0379 125.977 12.3659 124.574C11.9072 123.616 11.7218 122.545 11.7218 121.478V77.9258C11.7218 77.2274 12.0876 76.5922 12.6692 76.2294C14.978 74.7897 16.5216 72.1865 16.5216 69.211C16.5216 66.7967 15.5062 64.6262 13.8899 63.1241C13.0553 62.3484 13.0554 60.9644 13.8899 60.1888C15.5061 58.6867 16.5215 56.5162 16.5215 54.1019C16.5215 51.6875 15.5061 49.517 13.8899 48.0149C13.0553 47.2393 13.0553 45.8553 13.8899 45.0796C15.5061 43.5774 16.5216 41.407 16.5216 38.9927C16.5216 36.5783 15.5062 34.4079 13.89 32.9058C13.0554 32.1301 13.0554 30.7461 13.89 29.9704C15.5061 28.4678 16.5215 26.2974 16.5215 23.883Z" fill="url(#paint0_linear_86_2747)"/>
<path d="M16.5215 23.883C16.5215 21.47 15.5071 19.3006 13.8925 17.7986C13.0593 17.0235 13.0294 15.6929 13.8469 14.9004C15.0265 13.7569 16.5215 11.756 16.5215 8.77384C16.5215 4.12891 12.7745 0.761475 8.52109 0.761475C4.26768 0.761475 0.521484 4.28992 0.521484 8.77384C0.521484 11.1882 1.5369 13.3587 3.15308 14.8608C3.98766 15.6364 3.98766 17.0204 3.15308 17.7961C1.5369 19.2983 0.521484 21.4686 0.521484 23.883C0.521484 26.2974 1.5369 28.4678 3.15317 29.9699C3.98776 30.7456 3.98776 32.1297 3.15317 32.9053C1.5369 34.4075 0.521484 36.5779 0.521484 38.9923C0.521484 41.4067 1.5369 43.5771 3.15317 45.0792C3.98776 45.8549 3.98776 47.2389 3.15317 48.0145C1.5369 49.5167 0.521484 51.6872 0.521484 54.1016C0.521484 56.5158 1.5369 58.6864 3.15308 60.1885C3.98766 60.9641 3.98766 62.3481 3.15308 63.1238C1.5369 64.626 0.521484 66.7965 0.521484 69.2108C0.521484 72.1865 2.06507 74.7897 4.37407 76.2293C4.95573 76.592 5.32168 77.2273 5.32168 77.9258V121.477C5.32168 122.545 5.13627 123.616 4.67737 124.573C4.0053 125.976 3.60242 127.753 3.60242 129.689C3.60242 131.625 4.0053 133.402 4.67737 134.805C5.13617 135.762 5.32168 136.834 5.32168 137.901C5.32168 138.968 5.13627 140.039 4.67737 140.997C4.0053 142.399 3.60242 144.176 3.60242 146.112C3.60242 148.048 4.0053 149.825 4.67737 151.228C5.13617 152.186 5.32168 153.257 5.32168 154.324C5.32168 155.391 5.13627 156.462 4.67737 157.42C4.0053 158.822 3.60242 160.599 3.60242 162.535C3.60242 164.472 4.0053 166.249 4.67737 167.651C5.13617 168.609 5.32168 169.68 5.32168 170.747V172.463C5.32168 172.463 5.24442 175.747 8.521 175.747C11.7976 175.747 11.7218 172.463 11.7218 172.463V170.746C11.7218 169.679 11.9072 168.608 12.3659 167.651C13.0379 166.248 13.4406 164.471 13.4406 162.536C13.4406 160.6 13.0379 158.823 12.3659 157.42C11.9072 156.463 11.7218 155.392 11.7218 154.325V154.323C11.7218 153.256 11.9072 152.185 12.3659 151.228C13.0379 149.825 13.4406 148.048 13.4406 146.112C13.4406 144.176 13.0379 142.4 12.3659 140.997C11.9072 140.04 11.7218 138.969 11.7218 137.902V137.9C11.7218 136.833 11.9072 135.762 12.3659 134.805C13.0379 133.402 13.4406 131.625 13.4406 129.689C13.4406 127.753 13.0379 125.977 12.3659 124.574C11.9072 123.616 11.7218 122.545 11.7218 121.478V77.9258C11.7218 77.2274 12.0876 76.5922 12.6692 76.2294C14.978 74.7897 16.5216 72.1865 16.5216 69.211C16.5216 66.7967 15.5062 64.6262 13.8899 63.1241C13.0553 62.3484 13.0554 60.9644 13.8899 60.1888C15.5061 58.6867 16.5215 56.5162 16.5215 54.1019C16.5215 51.6875 15.5061 49.517 13.8899 48.0149C13.0553 47.2393 13.0553 45.8553 13.8899 45.0796C15.5061 43.5774 16.5216 41.407 16.5216 38.9927C16.5216 36.5783 15.5062 34.4079 13.89 32.9058C13.0554 32.1301 13.0554 30.7461 13.89 29.9704C15.5061 28.4678 16.5215 26.2974 16.5215 23.883Z" fill="url(#paint1_linear_86_2747)"/>
<path d="M8.5216 137.901C11.2383 137.901 13.4407 134.224 13.4407 129.689C13.4407 125.154 11.2383 121.478 8.5216 121.478C5.80488 121.478 3.60254 125.154 3.60254 129.689C3.60254 134.224 5.80488 137.901 8.5216 137.901Z" fill="url(#paint2_radial_86_2747)"/>
<path d="M8.5216 154.324C11.2383 154.324 13.4407 150.648 13.4407 146.112C13.4407 141.577 11.2383 137.901 8.5216 137.901C5.80488 137.901 3.60254 141.577 3.60254 146.112C3.60254 150.648 5.80488 154.324 8.5216 154.324Z" fill="url(#paint3_radial_86_2747)"/>
<path d="M8.5216 170.747C11.2383 170.747 13.4407 167.071 13.4407 162.536C13.4407 158 11.2383 154.324 8.5216 154.324C5.80488 154.324 3.60254 158 3.60254 162.536C3.60254 167.071 5.80488 170.747 8.5216 170.747Z" fill="url(#paint4_radial_86_2747)"/>
<path d="M8.52148 99.7408C12.9398 99.7408 16.5215 98.6362 16.5215 97.2737C16.5215 95.9112 12.9398 94.8066 8.52148 94.8066C4.10321 94.8066 0.521484 95.9112 0.521484 97.2737C0.521484 98.6362 4.10321 99.7408 8.52148 99.7408Z" fill="url(#paint5_radial_86_2747)"/>
<path d="M8.52148 95.7406C12.9398 95.7406 16.5215 94.636 16.5215 93.2735C16.5215 91.9109 12.9398 90.8064 8.52148 90.8064C4.10321 90.8064 0.521484 91.9109 0.521484 93.2735C0.521484 94.636 4.10321 95.7406 8.52148 95.7406Z" fill="url(#paint6_radial_86_2747)"/>
<path d="M8.52148 91.7403C12.9398 91.7403 16.5215 90.6358 16.5215 89.2732C16.5215 87.9107 12.9398 86.8062 8.52148 86.8062C4.10321 86.8062 0.521484 87.9107 0.521484 89.2732C0.521484 90.6358 4.10321 91.7403 8.52148 91.7403Z" fill="url(#paint7_radial_86_2747)"/>
<path d="M8.52148 77.4832C12.9398 77.4832 16.5215 73.8068 16.5215 69.2716C16.5215 64.7365 12.9398 61.0601 8.52148 61.0601C4.10321 61.0601 0.521484 64.7365 0.521484 69.2716C0.521484 73.8068 4.10321 77.4832 8.52148 77.4832Z" fill="url(#paint8_radial_86_2747)"/>
<path d="M8.52148 62.263C12.9398 62.263 16.5215 58.5866 16.5215 54.0514C16.5215 49.5163 12.9398 45.8398 8.52148 45.8398C4.10321 45.8398 0.521484 49.5163 0.521484 54.0514C0.521484 58.5866 4.10321 62.263 8.52148 62.263Z" fill="url(#paint9_radial_86_2747)"/>
<path d="M8.52148 47.2064C12.9398 47.2064 16.5215 43.5299 16.5215 38.9948C16.5215 34.4597 12.9398 30.7832 8.52148 30.7832C4.10321 30.7832 0.521484 34.4597 0.521484 38.9948C0.521484 43.5299 4.10321 47.2064 8.52148 47.2064Z" fill="url(#paint10_radial_86_2747)"/>
<path d="M8.52148 32.0672C12.9398 32.0672 16.5215 28.3908 16.5215 23.8556C16.5215 19.3205 12.9398 15.644 8.52148 15.644C4.10321 15.644 0.521484 19.3205 0.521484 23.8556C0.521484 28.3908 4.10321 32.0672 8.52148 32.0672Z" fill="url(#paint11_radial_86_2747)"/>
<path d="M16.5215 8.77388C16.5215 4.23876 12.9398 0.747314 8.52148 0.747314C4.10322 0.747314 0.521484 4.23876 0.521484 8.77388C0.521484 13.309 4.10322 16.9855 8.52148 16.9855C12.9398 16.9855 16.5215 13.309 16.5215 8.77388Z" fill="url(#paint12_radial_86_2747)"/>
<defs>
<linearGradient id="paint0_linear_86_2747" x1="0.521509" y1="88.2544" x2="16.5215" y2="88.2544" gradientUnits="userSpaceOnUse">
<stop offset="0.2614" stop-color="#470742"/>
<stop offset="0.4165" stop-color="#FF03EA"/>
<stop offset="0.7435" stop-color="#470742"/>
</linearGradient>
<linearGradient id="paint1_linear_86_2747" x1="8.52148" y1="175.747" x2="8.52148" y2="0.761475" gradientUnits="userSpaceOnUse">
<stop offset="0.2565" stop-color="#470742"/>
<stop offset="0.3638" stop-color="#FF03EA" stop-opacity="0"/>
<stop offset="0.4345" stop-color="#470742"/>
<stop offset="0.5039" stop-color="#FF03EA" stop-opacity="0"/>
<stop offset="0.5614" stop-color="#470742"/>
<stop offset="1" stop-color="#FF03EA" stop-opacity="0"/>
</linearGradient>
<radialGradient id="paint2_radial_86_2747" cx="0" cy="0" r="1" gradientUnits="userSpaceOnUse" gradientTransform="translate(6.65217 127.883) scale(4.9192 8.21158)">
<stop stop-color="#FF03EA"/>
<stop offset="1" stop-color="#470742"/>
</radialGradient>
<radialGradient id="paint3_radial_86_2747" cx="0" cy="0" r="1" gradientUnits="userSpaceOnUse" gradientTransform="translate(6.65217 144.306) scale(4.9192 8.21158)">
<stop stop-color="#FF03EA"/>
<stop offset="1" stop-color="#470742"/>
</radialGradient>
<radialGradient id="paint4_radial_86_2747" cx="0" cy="0" r="1" gradientUnits="userSpaceOnUse" gradientTransform="translate(6.65217 160.729) scale(4.9192 8.21158)">
<stop stop-color="#FF03EA"/>
<stop offset="1" stop-color="#470742"/>
</radialGradient>
<radialGradient id="paint5_radial_86_2747" cx="0" cy="0" r="1" gradientUnits="userSpaceOnUse" gradientTransform="translate(5.48146 96.7117) scale(8 2.46676)">
<stop stop-color="#FF03EA"/>
<stop offset="1" stop-color="#470742"/>
</radialGradient>
<radialGradient id="paint6_radial_86_2747" cx="0" cy="0" r="1" gradientUnits="userSpaceOnUse" gradientTransform="translate(5.48146 92.7119) scale(8 2.46676)">
<stop stop-color="#FF03EA"/>
<stop offset="1" stop-color="#470742"/>
</radialGradient>
<radialGradient id="paint7_radial_86_2747" cx="0" cy="0" r="1" gradientUnits="userSpaceOnUse" gradientTransform="translate(5.48146 88.7121) scale(8 2.46676)">
<stop stop-color="#FF03EA"/>
<stop offset="1" stop-color="#470742"/>
</radialGradient>
<radialGradient id="paint8_radial_86_2747" cx="0" cy="0" r="1" gradientUnits="userSpaceOnUse" gradientTransform="translate(5.48146 67.4651) scale(8 8.21158)">
<stop stop-color="#FF03EA"/>
<stop offset="1" stop-color="#470742"/>
</radialGradient>
<radialGradient id="paint9_radial_86_2747" cx="0" cy="0" r="1" gradientUnits="userSpaceOnUse" gradientTransform="translate(5.48146 52.0806) scale(8 8.21158)">
<stop stop-color="#FF03EA"/>
<stop offset="1" stop-color="#470742"/>
</radialGradient>
<radialGradient id="paint10_radial_86_2747" cx="0" cy="0" r="1" gradientUnits="userSpaceOnUse" gradientTransform="translate(5.80152 36.6956) scale(8 8.21158)">
<stop stop-color="#FF03EA"/>
<stop offset="1" stop-color="#470742"/>
</radialGradient>
<radialGradient id="paint11_radial_86_2747" cx="0" cy="0" r="1" gradientUnits="userSpaceOnUse" gradientTransform="translate(5.9615 21.3922) scale(8 8.21158)">
<stop stop-color="#FF03EA"/>
<stop offset="1" stop-color="#470742"/>
</radialGradient>
<radialGradient id="paint12_radial_86_2747" cx="0" cy="0" r="1" gradientUnits="userSpaceOnUse" gradientTransform="translate(5.9615 6.40292) scale(7.95508 8.16548)">
<stop stop-color="#FF03EA"/>
<stop offset="1" stop-color="#470742"/>
</radialGradient>
</defs>
</svg>
