<svg width="72" height="24" viewBox="0 0 72 24" fill="none" xmlns="http://www.w3.org/2000/svg">
<rect x="1" y="1.98901" width="70" height="20" rx="10" fill="url(#paint0_linear_45_4234)"/>
<rect x="1" y="1.98901" width="70" height="20" rx="10" stroke="#E263E2" stroke-width="3" stroke-linejoin="round"/>
<path d="M13.1777 12.8308V11.3835H16.916V14.8054C16.5527 15.157 16.0254 15.4675 15.334 15.7371C14.6465 16.0027 13.9492 16.1355 13.2422 16.1355C12.3438 16.1355 11.5605 15.948 10.8926 15.573C10.2246 15.1941 9.72266 14.655 9.38672 13.9558C9.05078 13.2527 8.88281 12.489 8.88281 11.6648C8.88281 10.7703 9.07031 9.97534 9.44531 9.28003C9.82031 8.58472 10.3691 8.05151 11.0918 7.68042C11.6426 7.39526 12.3281 7.25269 13.1484 7.25269C14.2148 7.25269 15.0469 7.47729 15.6445 7.92651C16.2461 8.37183 16.6328 8.98901 16.8047 9.77808L15.082 10.1003C14.9609 9.67847 14.7324 9.34644 14.3965 9.10425C14.0645 8.85815 13.6484 8.73511 13.1484 8.73511C12.3906 8.73511 11.7871 8.97534 11.3379 9.45581C10.8926 9.93628 10.6699 10.6492 10.6699 11.5945C10.6699 12.614 10.8965 13.3796 11.3496 13.8914C11.8027 14.3992 12.3965 14.6531 13.1309 14.6531C13.4941 14.6531 13.8574 14.5828 14.2207 14.4421C14.5879 14.2976 14.9023 14.1238 15.1641 13.9207V12.8308H13.1777ZM18.3223 13.698V12.0515H21.5566V13.698H18.3223ZM22.3535 16.3992L24.2344 16.6277C24.2656 16.8464 24.3379 16.9968 24.4512 17.0789C24.6074 17.196 24.8535 17.2546 25.1895 17.2546C25.6191 17.2546 25.9414 17.1902 26.1562 17.0613C26.3008 16.9753 26.4102 16.8367 26.4844 16.6453C26.5352 16.5085 26.5605 16.2566 26.5605 15.8894V14.9812C26.0684 15.6531 25.4473 15.989 24.6973 15.989C23.8613 15.989 23.1992 15.6355 22.7109 14.9285C22.3281 14.3699 22.1367 13.6746 22.1367 12.8425C22.1367 11.7996 22.3867 11.0027 22.8867 10.4519C23.3906 9.90112 24.0156 9.62573 24.7617 9.62573C25.5312 9.62573 26.166 9.96362 26.666 10.6394V9.76636H28.207V15.3503C28.207 16.0847 28.1465 16.6335 28.0254 16.9968C27.9043 17.3601 27.7344 17.6453 27.5156 17.8523C27.2969 18.0593 27.0039 18.2214 26.6367 18.3386C26.2734 18.4558 25.8125 18.5144 25.2539 18.5144C24.1992 18.5144 23.4512 18.3328 23.0098 17.9695C22.5684 17.6101 22.3477 17.1531 22.3477 16.5984C22.3477 16.5437 22.3496 16.4773 22.3535 16.3992ZM23.8242 12.7488C23.8242 13.4089 23.9512 13.8933 24.2051 14.2019C24.4629 14.5066 24.7793 14.6589 25.1543 14.6589C25.5566 14.6589 25.8965 14.5027 26.1738 14.1902C26.4512 13.8738 26.5898 13.407 26.5898 12.7898C26.5898 12.1453 26.457 11.6667 26.1914 11.3542C25.9258 11.0417 25.5898 10.8855 25.1836 10.8855C24.7891 10.8855 24.4629 11.0398 24.2051 11.3484C23.9512 11.6531 23.8242 12.1199 23.8242 12.7488ZM31.0723 11.6648L29.5781 11.3953C29.7461 10.7937 30.0352 10.3484 30.4453 10.0593C30.8555 9.77026 31.4648 9.62573 32.2734 9.62573C33.0078 9.62573 33.5547 9.71362 33.9141 9.8894C34.2734 10.0613 34.5254 10.282 34.6699 10.5515C34.8184 10.8171 34.8926 11.3074 34.8926 12.0222L34.875 13.9441C34.875 14.491 34.9004 14.8953 34.9512 15.157C35.0059 15.4148 35.1055 15.6921 35.25 15.989H33.6211C33.5781 15.8796 33.5254 15.7175 33.4629 15.5027C33.4355 15.405 33.416 15.3406 33.4043 15.3093C33.123 15.5828 32.8223 15.7878 32.502 15.9246C32.1816 16.0613 31.8398 16.1296 31.4766 16.1296C30.8359 16.1296 30.3301 15.9558 29.959 15.6082C29.5918 15.2605 29.4082 14.821 29.4082 14.2898C29.4082 13.9382 29.4922 13.6257 29.6602 13.3523C29.8281 13.075 30.0625 12.864 30.3633 12.7195C30.668 12.571 31.1055 12.4421 31.6758 12.3328C32.4453 12.1882 32.9785 12.0535 33.2754 11.9285V11.7644C33.2754 11.448 33.1973 11.2234 33.041 11.0906C32.8848 10.9539 32.5898 10.8855 32.1562 10.8855C31.8633 10.8855 31.6348 10.9441 31.4707 11.0613C31.3066 11.1746 31.1738 11.3757 31.0723 11.6648ZM33.2754 13.0007C33.0645 13.071 32.7305 13.155 32.2734 13.2527C31.8164 13.3503 31.5176 13.446 31.377 13.5398C31.1621 13.6921 31.0547 13.8855 31.0547 14.1199C31.0547 14.3503 31.1406 14.5496 31.3125 14.7175C31.4844 14.8855 31.7031 14.9695 31.9688 14.9695C32.2656 14.9695 32.5488 14.8718 32.8184 14.6765C33.0176 14.5281 33.1484 14.3464 33.2109 14.1316C33.2539 13.991 33.2754 13.7234 33.2754 13.3289V13.0007ZM36.3984 9.76636H37.916V10.616C38.459 9.95581 39.1055 9.62573 39.8555 9.62573C40.2539 9.62573 40.5996 9.70776 40.8926 9.87183C41.1855 10.0359 41.4258 10.2839 41.6133 10.616C41.8867 10.2839 42.1816 10.0359 42.498 9.87183C42.8145 9.70776 43.1523 9.62573 43.5117 9.62573C43.9688 9.62573 44.3555 9.71948 44.6719 9.90698C44.9883 10.0906 45.2246 10.3621 45.3809 10.7214C45.4941 10.9871 45.5508 11.4167 45.5508 12.0105V15.989H43.9043V12.4324C43.9043 11.8152 43.8477 11.4167 43.7344 11.2371C43.582 11.0027 43.3477 10.8855 43.0312 10.8855C42.8008 10.8855 42.584 10.9558 42.3809 11.0964C42.1777 11.2371 42.0312 11.4441 41.9414 11.7175C41.8516 11.9871 41.8066 12.4148 41.8066 13.0007V15.989H40.1602V12.5789C40.1602 11.9734 40.1309 11.5828 40.0723 11.407C40.0137 11.2312 39.9219 11.1003 39.7969 11.0144C39.6758 10.9285 39.5098 10.8855 39.2988 10.8855C39.0449 10.8855 38.8164 10.9539 38.6133 11.0906C38.4102 11.2273 38.2637 11.4246 38.1738 11.6824C38.0879 11.9402 38.0449 12.3679 38.0449 12.9656V15.989H36.3984V9.76636ZM47.0742 9.76636H48.5918V10.616C49.1348 9.95581 49.7812 9.62573 50.5312 9.62573C50.9297 9.62573 51.2754 9.70776 51.5684 9.87183C51.8613 10.0359 52.1016 10.2839 52.2891 10.616C52.5625 10.2839 52.8574 10.0359 53.1738 9.87183C53.4902 9.70776 53.8281 9.62573 54.1875 9.62573C54.6445 9.62573 55.0312 9.71948 55.3477 9.90698C55.6641 10.0906 55.9004 10.3621 56.0566 10.7214C56.1699 10.9871 56.2266 11.4167 56.2266 12.0105V15.989H54.5801V12.4324C54.5801 11.8152 54.5234 11.4167 54.4102 11.2371C54.2578 11.0027 54.0234 10.8855 53.707 10.8855C53.4766 10.8855 53.2598 10.9558 53.0566 11.0964C52.8535 11.2371 52.707 11.4441 52.6172 11.7175C52.5273 11.9871 52.4824 12.4148 52.4824 13.0007V15.989H50.8359V12.5789C50.8359 11.9734 50.8066 11.5828 50.748 11.407C50.6895 11.2312 50.5977 11.1003 50.4727 11.0144C50.3516 10.9285 50.1855 10.8855 49.9746 10.8855C49.7207 10.8855 49.4922 10.9539 49.2891 11.0906C49.0859 11.2273 48.9395 11.4246 48.8496 11.6824C48.7637 11.9402 48.7207 12.3679 48.7207 12.9656V15.989H47.0742V9.76636ZM59.1035 11.6648L57.6094 11.3953C57.7773 10.7937 58.0664 10.3484 58.4766 10.0593C58.8867 9.77026 59.4961 9.62573 60.3047 9.62573C61.0391 9.62573 61.5859 9.71362 61.9453 9.8894C62.3047 10.0613 62.5566 10.282 62.7012 10.5515C62.8496 10.8171 62.9238 11.3074 62.9238 12.0222L62.9062 13.9441C62.9062 14.491 62.9316 14.8953 62.9824 15.157C63.0371 15.4148 63.1367 15.6921 63.2812 15.989H61.6523C61.6094 15.8796 61.5566 15.7175 61.4941 15.5027C61.4668 15.405 61.4473 15.3406 61.4355 15.3093C61.1543 15.5828 60.8535 15.7878 60.5332 15.9246C60.2129 16.0613 59.8711 16.1296 59.5078 16.1296C58.8672 16.1296 58.3613 15.9558 57.9902 15.6082C57.623 15.2605 57.4395 14.821 57.4395 14.2898C57.4395 13.9382 57.5234 13.6257 57.6914 13.3523C57.8594 13.075 58.0938 12.864 58.3945 12.7195C58.6992 12.571 59.1367 12.4421 59.707 12.3328C60.4766 12.1882 61.0098 12.0535 61.3066 11.9285V11.7644C61.3066 11.448 61.2285 11.2234 61.0723 11.0906C60.916 10.9539 60.6211 10.8855 60.1875 10.8855C59.8945 10.8855 59.666 10.9441 59.502 11.0613C59.3379 11.1746 59.2051 11.3757 59.1035 11.6648ZM61.3066 13.0007C61.0957 13.071 60.7617 13.155 60.3047 13.2527C59.8477 13.3503 59.5488 13.446 59.4082 13.5398C59.1934 13.6921 59.0859 13.8855 59.0859 14.1199C59.0859 14.3503 59.1719 14.5496 59.3438 14.7175C59.5156 14.8855 59.7344 14.9695 60 14.9695C60.2969 14.9695 60.5801 14.8718 60.8496 14.6765C61.0488 14.5281 61.1797 14.3464 61.2422 14.1316C61.2852 13.991 61.3066 13.7234 61.3066 13.3289V13.0007Z" fill="white"/>
<defs>
<linearGradient id="paint0_linear_45_4234" x1="36" y1="1.98901" x2="36" y2="21.989" gradientUnits="userSpaceOnUse">
<stop stop-color="#E263E2"/>
<stop offset="1" stop-color="#FF9914"/>
</linearGradient>
</defs>
</svg>
