<svg width="60" height="24" viewBox="0 0 60 24" fill="none" xmlns="http://www.w3.org/2000/svg">
<rect x="2" y="1.98901" width="57" height="20" rx="10" fill="url(#paint0_linear_38_1890)"/>
<rect x="2" y="1.98901" width="57" height="20" rx="10" stroke="#9741A3" stroke-width="3" stroke-linejoin="round"/>
<path d="M15.8574 12.8308L17.5391 13.364C17.2812 14.3015 16.8516 14.9988 16.25 15.4558C15.6523 15.9089 14.8926 16.1355 13.9707 16.1355C12.8301 16.1355 11.8926 15.7468 11.1582 14.9695C10.4238 14.1882 10.0566 13.1218 10.0566 11.7703C10.0566 10.3406 10.4258 9.2312 11.1641 8.44214C11.9023 7.64917 12.873 7.25269 14.0762 7.25269C15.127 7.25269 15.9805 7.56323 16.6367 8.18433C17.0273 8.55151 17.3203 9.07886 17.5156 9.76636L15.7988 10.1765C15.6973 9.7312 15.4844 9.37964 15.1602 9.12183C14.8398 8.86401 14.4492 8.73511 13.9883 8.73511C13.3516 8.73511 12.834 8.96362 12.4355 9.42065C12.041 9.87769 11.8438 10.6179 11.8438 11.6414C11.8438 12.7273 12.0391 13.5007 12.4297 13.9617C12.8203 14.4226 13.3281 14.6531 13.9531 14.6531C14.4141 14.6531 14.8105 14.5066 15.1426 14.2136C15.4746 13.9207 15.7129 13.4597 15.8574 12.8308ZM19.0332 15.989V7.39917H25.4023V8.85229H20.7676V10.7566H25.0801V12.2039H20.7676V14.5417H25.5664V15.989H19.0332ZM27.043 7.39917H30.4766C31.1562 7.39917 31.6621 7.42847 31.9941 7.48706C32.3301 7.54175 32.6289 7.65894 32.8906 7.83862C33.1562 8.01831 33.377 8.25854 33.5527 8.55933C33.7285 8.8562 33.8164 9.19019 33.8164 9.56128C33.8164 9.96362 33.707 10.3328 33.4883 10.6687C33.2734 11.0046 32.9805 11.2566 32.6094 11.4246C33.1328 11.5769 33.5352 11.8367 33.8164 12.2039C34.0977 12.571 34.2383 13.0027 34.2383 13.4988C34.2383 13.8894 34.1465 14.2703 33.9629 14.6414C33.7832 15.0085 33.5352 15.3035 33.2188 15.5261C32.9062 15.7449 32.5195 15.8796 32.0586 15.9304C31.7695 15.9617 31.0723 15.9812 29.9668 15.989H27.043V7.39917ZM28.7773 8.82886V10.8152H29.9141C30.5898 10.8152 31.0098 10.8054 31.1738 10.7859C31.4707 10.7507 31.7031 10.6492 31.8711 10.4812C32.043 10.3093 32.1289 10.0847 32.1289 9.80737C32.1289 9.54175 32.0547 9.3269 31.9062 9.16284C31.7617 8.99487 31.5449 8.89331 31.2559 8.85815C31.084 8.83862 30.5898 8.82886 29.7734 8.82886H28.7773ZM28.7773 12.2449V14.5417H30.3828C31.0078 14.5417 31.4043 14.5242 31.5723 14.489C31.8301 14.4421 32.0391 14.3289 32.1992 14.1492C32.3633 13.9656 32.4453 13.7214 32.4453 13.4167C32.4453 13.1589 32.3828 12.9402 32.2578 12.7605C32.1328 12.5808 31.9512 12.45 31.7129 12.3679C31.4785 12.2859 30.9668 12.2449 30.1777 12.2449H28.7773ZM35.709 15.989V7.39917H38.4922C39.5469 7.39917 40.2344 7.44214 40.5547 7.52808C41.0469 7.65698 41.459 7.93823 41.791 8.37183C42.123 8.80151 42.2891 9.35815 42.2891 10.0417C42.2891 10.5691 42.1934 11.0125 42.002 11.3718C41.8105 11.7312 41.5664 12.0144 41.2695 12.2214C40.9766 12.4246 40.6777 12.5593 40.373 12.6257C39.959 12.7078 39.3594 12.7488 38.5742 12.7488H37.4434V15.989H35.709ZM37.4434 8.85229V11.2898H38.3926C39.0762 11.2898 39.5332 11.2449 39.7637 11.155C39.9941 11.0652 40.1738 10.9246 40.3027 10.7332C40.4355 10.5417 40.502 10.3191 40.502 10.0652C40.502 9.75269 40.4102 9.49487 40.2266 9.29175C40.043 9.08862 39.8105 8.96167 39.5293 8.91089C39.3223 8.87183 38.9062 8.85229 38.2812 8.85229H37.4434ZM43.7188 7.39917H47.1523C47.832 7.39917 48.3379 7.42847 48.6699 7.48706C49.0059 7.54175 49.3047 7.65894 49.5664 7.83862C49.832 8.01831 50.0527 8.25854 50.2285 8.55933C50.4043 8.8562 50.4922 9.19019 50.4922 9.56128C50.4922 9.96362 50.3828 10.3328 50.1641 10.6687C49.9492 11.0046 49.6562 11.2566 49.2852 11.4246C49.8086 11.5769 50.2109 11.8367 50.4922 12.2039C50.7734 12.571 50.9141 13.0027 50.9141 13.4988C50.9141 13.8894 50.8223 14.2703 50.6387 14.6414C50.459 15.0085 50.2109 15.3035 49.8945 15.5261C49.582 15.7449 49.1953 15.8796 48.7344 15.9304C48.4453 15.9617 47.748 15.9812 46.6426 15.989H43.7188V7.39917ZM45.4531 8.82886V10.8152H46.5898C47.2656 10.8152 47.6855 10.8054 47.8496 10.7859C48.1465 10.7507 48.3789 10.6492 48.5469 10.4812C48.7188 10.3093 48.8047 10.0847 48.8047 9.80737C48.8047 9.54175 48.7305 9.3269 48.582 9.16284C48.4375 8.99487 48.2207 8.89331 47.9316 8.85815C47.7598 8.83862 47.2656 8.82886 46.4492 8.82886H45.4531ZM45.4531 12.2449V14.5417H47.0586C47.6836 14.5417 48.0801 14.5242 48.248 14.489C48.5059 14.4421 48.7148 14.3289 48.875 14.1492C49.0391 13.9656 49.1211 13.7214 49.1211 13.4167C49.1211 13.1589 49.0586 12.9402 48.9336 12.7605C48.8086 12.5808 48.627 12.45 48.3887 12.3679C48.1543 12.2859 47.6426 12.2449 46.8535 12.2449H45.4531Z" fill="white"/>
<defs>
<linearGradient id="paint0_linear_38_1890" x1="30.5" y1="1.98901" x2="30.5" y2="21.989" gradientUnits="userSpaceOnUse">
<stop stop-color="#E456F7"/>
<stop offset="1" stop-color="#75001D"/>
</linearGradient>
</defs>
</svg>
