<svg width="116" height="24" viewBox="0 0 116 24" fill="none" xmlns="http://www.w3.org/2000/svg">
<rect x="1" y="1.98901" width="114" height="20" rx="10" fill="url(#paint0_linear_46_4283)"/>
<rect x="1" y="1.98901" width="114" height="20" rx="10" stroke="#C1DF4F" stroke-width="3" stroke-linejoin="round"/>
<path d="M13.1699 12.8308V11.3835H16.9082V14.8054C16.5449 15.157 16.0176 15.4675 15.3262 15.7371C14.6387 16.0027 13.9414 16.1355 13.2344 16.1355C12.3359 16.1355 11.5527 15.948 10.8848 15.573C10.2168 15.1941 9.71484 14.655 9.37891 13.9558C9.04297 13.2527 8.875 12.489 8.875 11.6648C8.875 10.7703 9.0625 9.97534 9.4375 9.28003C9.8125 8.58472 10.3613 8.05151 11.084 7.68042C11.6348 7.39526 12.3203 7.25269 13.1406 7.25269C14.207 7.25269 15.0391 7.47729 15.6367 7.92651C16.2383 8.37183 16.625 8.98901 16.7969 9.77808L15.0742 10.1003C14.9531 9.67847 14.7246 9.34644 14.3887 9.10425C14.0566 8.85815 13.6406 8.73511 13.1406 8.73511C12.3828 8.73511 11.7793 8.97534 11.3301 9.45581C10.8848 9.93628 10.6621 10.6492 10.6621 11.5945C10.6621 12.614 10.8887 13.3796 11.3418 13.8914C11.7949 14.3992 12.3887 14.6531 13.123 14.6531C13.4863 14.6531 13.8496 14.5828 14.2129 14.4421C14.5801 14.2976 14.8945 14.1238 15.1562 13.9207V12.8308H13.1699ZM18.1621 11.7468C18.1621 10.8718 18.293 10.1375 18.5547 9.5437C18.75 9.1062 19.0156 8.71362 19.3516 8.36597C19.6914 8.01831 20.0625 7.7605 20.4648 7.59253C21 7.36597 21.6172 7.25269 22.3164 7.25269C23.582 7.25269 24.5938 7.64526 25.3516 8.43042C26.1133 9.21558 26.4941 10.3074 26.4941 11.7058C26.4941 13.0925 26.1172 14.1785 25.3633 14.9636C24.6094 15.7449 23.6016 16.1355 22.3398 16.1355C21.0625 16.1355 20.0469 15.7468 19.293 14.9695C18.5391 14.1882 18.1621 13.114 18.1621 11.7468ZM19.9492 11.6882C19.9492 12.6609 20.1738 13.3992 20.623 13.9031C21.0723 14.4031 21.6426 14.6531 22.334 14.6531C23.0254 14.6531 23.5918 14.405 24.0332 13.9089C24.4785 13.4089 24.7012 12.6609 24.7012 11.6648C24.7012 10.6804 24.4844 9.94604 24.0508 9.46167C23.6211 8.97729 23.0488 8.73511 22.334 8.73511C21.6191 8.73511 21.043 8.9812 20.6055 9.47339C20.168 9.96167 19.9492 10.7 19.9492 11.6882ZM27.8711 15.989V7.39917H29.5586L33.0742 13.1355V7.39917H34.6855V15.989H32.9453L29.4824 10.3875V15.989H27.8711ZM44.2715 15.989H42.3848L41.6348 14.0378H38.2012L37.4922 15.989H35.6523L38.998 7.39917H40.832L44.2715 15.989ZM41.0781 12.5906L39.8945 9.40308L38.7344 12.5906H41.0781ZM45.1914 7.39917H48.3613C49.0762 7.39917 49.6211 7.45386 49.9961 7.56323C50.5 7.71167 50.9316 7.97534 51.291 8.35425C51.6504 8.73315 51.9238 9.198 52.1113 9.74878C52.2988 10.2957 52.3926 10.9714 52.3926 11.7761C52.3926 12.4832 52.3047 13.0925 52.1289 13.6042C51.9141 14.2292 51.6074 14.7351 51.209 15.1218C50.9082 15.4148 50.502 15.6433 49.9902 15.8074C49.6074 15.9285 49.0957 15.989 48.4551 15.989H45.1914V7.39917ZM46.9258 8.85229V14.5417H48.2207C48.7051 14.5417 49.0547 14.5144 49.2695 14.4597C49.5508 14.3894 49.7832 14.2703 49.9668 14.1023C50.1543 13.9343 50.3066 13.6589 50.4238 13.2761C50.541 12.8894 50.5996 12.364 50.5996 11.7C50.5996 11.0359 50.541 10.5261 50.4238 10.1707C50.3066 9.81519 50.1426 9.53784 49.9316 9.33862C49.7207 9.1394 49.4531 9.00464 49.1289 8.93433C48.8867 8.87964 48.4121 8.85229 47.7051 8.85229H46.9258ZM53.5176 11.7468C53.5176 10.8718 53.6484 10.1375 53.9102 9.5437C54.1055 9.1062 54.3711 8.71362 54.707 8.36597C55.0469 8.01831 55.418 7.7605 55.8203 7.59253C56.3555 7.36597 56.9727 7.25269 57.6719 7.25269C58.9375 7.25269 59.9492 7.64526 60.707 8.43042C61.4688 9.21558 61.8496 10.3074 61.8496 11.7058C61.8496 13.0925 61.4727 14.1785 60.7188 14.9636C59.9648 15.7449 58.957 16.1355 57.6953 16.1355C56.418 16.1355 55.4023 15.7468 54.6484 14.9695C53.8945 14.1882 53.5176 13.114 53.5176 11.7468ZM55.3047 11.6882C55.3047 12.6609 55.5293 13.3992 55.9785 13.9031C56.4277 14.4031 56.998 14.6531 57.6895 14.6531C58.3809 14.6531 58.9473 14.405 59.3887 13.9089C59.834 13.4089 60.0566 12.6609 60.0566 11.6648C60.0566 10.6804 59.8398 9.94604 59.4062 9.46167C58.9766 8.97729 58.4043 8.73511 57.6895 8.73511C56.9746 8.73511 56.3984 8.9812 55.9609 9.47339C55.5234 9.96167 55.3047 10.7 55.3047 11.6882ZM65.1426 15.989V8.85229H62.5938V7.39917H69.4199V8.85229H66.877V15.989H65.1426ZM70.5508 15.989V7.39917H74.2012C75.1191 7.39917 75.7852 7.47729 76.1992 7.63354C76.6172 7.78589 76.9512 8.05933 77.2012 8.45386C77.4512 8.84839 77.5762 9.29956 77.5762 9.80737C77.5762 10.4519 77.3867 10.9851 77.0078 11.407C76.6289 11.825 76.0625 12.0886 75.3086 12.198C75.6836 12.4167 75.9922 12.657 76.2344 12.9187C76.4805 13.1804 76.8105 13.6453 77.2246 14.3132L78.2734 15.989H76.1992L74.9453 14.1199C74.5 13.4519 74.1953 13.032 74.0312 12.8601C73.8672 12.6843 73.6934 12.5652 73.5098 12.5027C73.3262 12.4363 73.0352 12.4031 72.6367 12.4031H72.2852V15.989H70.5508ZM72.2852 11.032H73.5684C74.4004 11.032 74.9199 10.9968 75.127 10.9265C75.334 10.8562 75.4961 10.7351 75.6133 10.5632C75.7305 10.3914 75.7891 10.1765 75.7891 9.9187C75.7891 9.62964 75.7109 9.39722 75.5547 9.22144C75.4023 9.04175 75.1855 8.92847 74.9043 8.88159C74.7637 8.86206 74.3418 8.85229 73.6387 8.85229H72.2852V11.032ZM78.8652 11.7468C78.8652 10.8718 78.9961 10.1375 79.2578 9.5437C79.4531 9.1062 79.7188 8.71362 80.0547 8.36597C80.3945 8.01831 80.7656 7.7605 81.168 7.59253C81.7031 7.36597 82.3203 7.25269 83.0195 7.25269C84.2852 7.25269 85.2969 7.64526 86.0547 8.43042C86.8164 9.21558 87.1973 10.3074 87.1973 11.7058C87.1973 13.0925 86.8203 14.1785 86.0664 14.9636C85.3125 15.7449 84.3047 16.1355 83.043 16.1355C81.7656 16.1355 80.75 15.7468 79.9961 14.9695C79.2422 14.1882 78.8652 13.114 78.8652 11.7468ZM80.6523 11.6882C80.6523 12.6609 80.877 13.3992 81.3262 13.9031C81.7754 14.4031 82.3457 14.6531 83.0371 14.6531C83.7285 14.6531 84.2949 14.405 84.7363 13.9089C85.1816 13.4089 85.4043 12.6609 85.4043 11.6648C85.4043 10.6804 85.1875 9.94604 84.7539 9.46167C84.3242 8.97729 83.752 8.73511 83.0371 8.73511C82.3223 8.73511 81.7461 8.9812 81.3086 9.47339C80.8711 9.96167 80.6523 10.7 80.6523 11.6882ZM88.5566 15.989V7.39917H91.3398C92.3945 7.39917 93.082 7.44214 93.4023 7.52808C93.8945 7.65698 94.3066 7.93823 94.6387 8.37183C94.9707 8.80151 95.1367 9.35815 95.1367 10.0417C95.1367 10.5691 95.041 11.0125 94.8496 11.3718C94.6582 11.7312 94.4141 12.0144 94.1172 12.2214C93.8242 12.4246 93.5254 12.5593 93.2207 12.6257C92.8066 12.7078 92.207 12.7488 91.4219 12.7488H90.291V15.989H88.5566ZM90.291 8.85229V11.2898H91.2402C91.9238 11.2898 92.3809 11.2449 92.6113 11.155C92.8418 11.0652 93.0215 10.9246 93.1504 10.7332C93.2832 10.5417 93.3496 10.3191 93.3496 10.0652C93.3496 9.75269 93.2578 9.49487 93.0742 9.29175C92.8906 9.08862 92.6582 8.96167 92.377 8.91089C92.1699 8.87183 91.7539 8.85229 91.1289 8.85229H90.291ZM96.5078 15.989V7.39917H98.2422V15.989H96.5078ZM99.918 15.989V7.39917H101.605L105.121 13.1355V7.39917H106.732V15.989H104.992L101.529 10.3875V15.989H99.918Z" fill="white"/>
<defs>
<linearGradient id="paint0_linear_46_4283" x1="58" y1="1.98901" x2="58" y2="21.989" gradientUnits="userSpaceOnUse">
<stop stop-color="#C1DF4F"/>
<stop offset="1" stop-color="#1A509E"/>
</linearGradient>
</defs>
</svg>
