<svg width="60" height="24" viewBox="0 0 60 24" fill="none" xmlns="http://www.w3.org/2000/svg">
<rect x="2" y="1.98901" width="57" height="20" rx="10" fill="url(#paint0_linear_67_1836)"/>
<rect x="2" y="1.98901" width="57" height="20" rx="10" stroke="#616399" stroke-width="3" stroke-linejoin="round"/>
<path d="M10.3555 15.989V7.39917H13.1387C14.1934 7.39917 14.8809 7.44214 15.2012 7.52808C15.6934 7.65698 16.1055 7.93823 16.4375 8.37183C16.7695 8.80151 16.9355 9.35815 16.9355 10.0417C16.9355 10.5691 16.8398 11.0125 16.6484 11.3718C16.457 11.7312 16.2129 12.0144 15.916 12.2214C15.623 12.4246 15.3242 12.5593 15.0195 12.6257C14.6055 12.7078 14.0059 12.7488 13.2207 12.7488H12.0898V15.989H10.3555ZM12.0898 8.85229V11.2898H13.0391C13.7227 11.2898 14.1797 11.2449 14.4102 11.155C14.6406 11.0652 14.8203 10.9246 14.9492 10.7332C15.082 10.5417 15.1484 10.3191 15.1484 10.0652C15.1484 9.75269 15.0566 9.49487 14.873 9.29175C14.6895 9.08862 14.457 8.96167 14.1758 8.91089C13.9688 8.87183 13.5527 8.85229 12.9277 8.85229H12.0898ZM18.3477 7.39917H20.082V12.0515C20.082 12.7898 20.1035 13.2683 20.1465 13.4871C20.2207 13.8386 20.3965 14.1218 20.6738 14.3367C20.9551 14.5476 21.3379 14.6531 21.8223 14.6531C22.3145 14.6531 22.6855 14.5535 22.9355 14.3542C23.1855 14.1511 23.3359 13.9031 23.3867 13.6101C23.4375 13.3171 23.4629 12.8308 23.4629 12.1511V7.39917H25.1973V11.9109C25.1973 12.9421 25.1504 13.6707 25.0566 14.0964C24.9629 14.5222 24.7891 14.8816 24.5352 15.1746C24.2852 15.4675 23.9492 15.7019 23.5273 15.8777C23.1055 16.0496 22.5547 16.1355 21.875 16.1355C21.0547 16.1355 20.4316 16.0417 20.0059 15.8542C19.584 15.6628 19.25 15.4167 19.0039 15.116C18.7578 14.8113 18.5957 14.4929 18.5176 14.1609C18.4043 13.6687 18.3477 12.9421 18.3477 11.9812V7.39917ZM26.5918 13.1941L28.2793 13.03C28.3809 13.5964 28.5859 14.0125 28.8945 14.2781C29.207 14.5437 29.627 14.6765 30.1543 14.6765C30.7129 14.6765 31.1328 14.5593 31.4141 14.325C31.6992 14.0867 31.8418 13.8093 31.8418 13.4929C31.8418 13.2898 31.7812 13.1179 31.6602 12.9773C31.543 12.8328 31.3359 12.7078 31.0391 12.6023C30.8359 12.532 30.373 12.407 29.6504 12.2273C28.7207 11.9968 28.0684 11.7136 27.6934 11.3777C27.166 10.905 26.9023 10.3289 26.9023 9.64917C26.9023 9.21167 27.0254 8.80347 27.2715 8.42456C27.5215 8.04175 27.8789 7.75073 28.3438 7.55151C28.8125 7.35229 29.377 7.25269 30.0371 7.25269C31.1152 7.25269 31.9258 7.48901 32.4688 7.96167C33.0156 8.43433 33.3027 9.06519 33.3301 9.85425L31.5957 9.93042C31.5215 9.48901 31.3613 9.17261 31.1152 8.9812C30.873 8.78589 30.5078 8.68823 30.0195 8.68823C29.5156 8.68823 29.1211 8.79175 28.8359 8.99878C28.6523 9.13159 28.5605 9.30933 28.5605 9.53198C28.5605 9.73511 28.6465 9.90894 28.8184 10.0535C29.0371 10.2371 29.5684 10.4285 30.4121 10.6277C31.2559 10.8269 31.8789 11.0339 32.2812 11.2488C32.6875 11.4597 33.0039 11.7507 33.2305 12.1218C33.4609 12.489 33.5762 12.9441 33.5762 13.4871C33.5762 13.9792 33.4395 14.4402 33.166 14.8699C32.8926 15.2996 32.5059 15.6199 32.0059 15.8308C31.5059 16.0378 30.8828 16.1414 30.1367 16.1414C29.0508 16.1414 28.2168 15.8914 27.6348 15.3914C27.0527 14.8875 26.7051 14.155 26.5918 13.1941ZM38.8848 15.989H37.2383V9.78394C36.6367 10.3464 35.9277 10.7625 35.1113 11.032V9.53784C35.541 9.39722 36.0078 9.13159 36.5117 8.74097C37.0156 8.34644 37.3613 7.88745 37.5488 7.36401H38.8848V15.989ZM41.5156 13.698V12.0515H44.75V13.698H41.5156ZM49.5605 15.989H47.9141V9.78394C47.3125 10.3464 46.6035 10.7625 45.7871 11.032V9.53784C46.2168 9.39722 46.6836 9.13159 47.1875 8.74097C47.6914 8.34644 48.0371 7.88745 48.2246 7.36401H49.5605V15.989Z" fill="white"/>
<defs>
<linearGradient id="paint0_linear_67_1836" x1="30.5" y1="1.98901" x2="30.5" y2="21.989" gradientUnits="userSpaceOnUse">
<stop stop-color="#616399"/>
<stop offset="1" stop-color="#A61F15"/>
</linearGradient>
</defs>
</svg>
