<svg width="59" height="24" viewBox="0 0 59 24" fill="none" xmlns="http://www.w3.org/2000/svg">
<rect x="2" y="1.98901" width="56" height="20" rx="10" fill="url(#paint0_linear_38_1891)"/>
<rect x="2" y="1.98901" width="56" height="20" rx="10" stroke="#9741A3" stroke-width="3" stroke-linejoin="round"/>
<path d="M15.8027 12.8308L17.4844 13.364C17.2266 14.3015 16.7969 14.9988 16.1953 15.4558C15.5977 15.9089 14.8379 16.1355 13.916 16.1355C12.7754 16.1355 11.8379 15.7468 11.1035 14.9695C10.3691 14.1882 10.002 13.1218 10.002 11.7703C10.002 10.3406 10.3711 9.2312 11.1094 8.44214C11.8477 7.64917 12.8184 7.25269 14.0215 7.25269C15.0723 7.25269 15.9258 7.56323 16.582 8.18433C16.9727 8.55151 17.2656 9.07886 17.4609 9.76636L15.7441 10.1765C15.6426 9.7312 15.4297 9.37964 15.1055 9.12183C14.7852 8.86401 14.3945 8.73511 13.9336 8.73511C13.2969 8.73511 12.7793 8.96362 12.3809 9.42065C11.9863 9.87769 11.7891 10.6179 11.7891 11.6414C11.7891 12.7273 11.9844 13.5007 12.375 13.9617C12.7656 14.4226 13.2734 14.6531 13.8984 14.6531C14.3594 14.6531 14.7559 14.5066 15.0879 14.2136C15.4199 13.9207 15.6582 13.4597 15.8027 12.8308ZM18.9785 15.989V7.39917H25.3477V8.85229H20.7129V10.7566H25.0254V12.2039H20.7129V14.5417H25.5117V15.989H18.9785ZM26.9883 7.39917H30.4219C31.1016 7.39917 31.6074 7.42847 31.9395 7.48706C32.2754 7.54175 32.5742 7.65894 32.8359 7.83862C33.1016 8.01831 33.3223 8.25854 33.498 8.55933C33.6738 8.8562 33.7617 9.19019 33.7617 9.56128C33.7617 9.96362 33.6523 10.3328 33.4336 10.6687C33.2188 11.0046 32.9258 11.2566 32.5547 11.4246C33.0781 11.5769 33.4805 11.8367 33.7617 12.2039C34.043 12.571 34.1836 13.0027 34.1836 13.4988C34.1836 13.8894 34.0918 14.2703 33.9082 14.6414C33.7285 15.0085 33.4805 15.3035 33.1641 15.5261C32.8516 15.7449 32.4648 15.8796 32.0039 15.9304C31.7148 15.9617 31.0176 15.9812 29.9121 15.989H26.9883V7.39917ZM28.7227 8.82886V10.8152H29.8594C30.5352 10.8152 30.9551 10.8054 31.1191 10.7859C31.416 10.7507 31.6484 10.6492 31.8164 10.4812C31.9883 10.3093 32.0742 10.0847 32.0742 9.80737C32.0742 9.54175 32 9.3269 31.8516 9.16284C31.707 8.99487 31.4902 8.89331 31.2012 8.85815C31.0293 8.83862 30.5352 8.82886 29.7188 8.82886H28.7227ZM28.7227 12.2449V14.5417H30.3281C30.9531 14.5417 31.3496 14.5242 31.5176 14.489C31.7754 14.4421 31.9844 14.3289 32.1445 14.1492C32.3086 13.9656 32.3906 13.7214 32.3906 13.4167C32.3906 13.1589 32.3281 12.9402 32.2031 12.7605C32.0781 12.5808 31.8965 12.45 31.6582 12.3679C31.4238 12.2859 30.9121 12.2449 30.123 12.2449H28.7227ZM35.6543 15.989V7.39917H38.4375C39.4922 7.39917 40.1797 7.44214 40.5 7.52808C40.9922 7.65698 41.4043 7.93823 41.7363 8.37183C42.0684 8.80151 42.2344 9.35815 42.2344 10.0417C42.2344 10.5691 42.1387 11.0125 41.9473 11.3718C41.7559 11.7312 41.5117 12.0144 41.2148 12.2214C40.9219 12.4246 40.623 12.5593 40.3184 12.6257C39.9043 12.7078 39.3047 12.7488 38.5195 12.7488H37.3887V15.989H35.6543ZM37.3887 8.85229V11.2898H38.3379C39.0215 11.2898 39.4785 11.2449 39.709 11.155C39.9395 11.0652 40.1191 10.9246 40.248 10.7332C40.3809 10.5417 40.4473 10.3191 40.4473 10.0652C40.4473 9.75269 40.3555 9.49487 40.1719 9.29175C39.9883 9.08862 39.7559 8.96167 39.4746 8.91089C39.2676 8.87183 38.8516 8.85229 38.2266 8.85229H37.3887ZM50.5137 15.989H48.627L47.877 14.0378H44.4434L43.7344 15.989H41.8945L45.2402 7.39917H47.0742L50.5137 15.989ZM47.3203 12.5906L46.1367 9.40308L44.9766 12.5906H47.3203Z" fill="white"/>
<defs>
<linearGradient id="paint0_linear_38_1891" x1="30" y1="1.98901" x2="30" y2="21.989" gradientUnits="userSpaceOnUse">
<stop stop-color="#E456F7"/>
<stop offset="1" stop-color="#ED003A"/>
</linearGradient>
</defs>
</svg>
