<svg width="48" height="24" viewBox="0 0 48 24" fill="none" xmlns="http://www.w3.org/2000/svg">
<rect x="2" y="1.98901" width="45" height="20" rx="10" fill="url(#paint0_linear_50_1836)"/>
<rect x="2" y="1.98901" width="45" height="20" rx="10" stroke="#6875EA" stroke-width="3" stroke-linejoin="round"/>
<path d="M10.1914 15.989V7.46948H11.9258V14.5417H16.2383V15.989H10.1914ZM25.2266 15.989H23.3398L22.5898 14.0378H19.1562L18.4473 15.989H16.6074L19.9531 7.39917H21.7871L25.2266 15.989ZM22.0332 12.5906L20.8496 9.40308L19.6895 12.5906H22.0332ZM27.1953 15.989V8.85229H24.6465V7.39917H31.4727V8.85229H28.9297V15.989H27.1953ZM32.1582 13.1941L33.8457 13.03C33.9473 13.5964 34.1523 14.0125 34.4609 14.2781C34.7734 14.5437 35.1934 14.6765 35.7207 14.6765C36.2793 14.6765 36.6992 14.5593 36.9805 14.325C37.2656 14.0867 37.4082 13.8093 37.4082 13.4929C37.4082 13.2898 37.3477 13.1179 37.2266 12.9773C37.1094 12.8328 36.9023 12.7078 36.6055 12.6023C36.4023 12.532 35.9395 12.407 35.2168 12.2273C34.2871 11.9968 33.6348 11.7136 33.2598 11.3777C32.7324 10.905 32.4688 10.3289 32.4688 9.64917C32.4688 9.21167 32.5918 8.80347 32.8379 8.42456C33.0879 8.04175 33.4453 7.75073 33.9102 7.55151C34.3789 7.35229 34.9434 7.25269 35.6035 7.25269C36.6816 7.25269 37.4922 7.48901 38.0352 7.96167C38.582 8.43433 38.8691 9.06519 38.8965 9.85425L37.1621 9.93042C37.0879 9.48901 36.9277 9.17261 36.6816 8.9812C36.4395 8.78589 36.0742 8.68823 35.5859 8.68823C35.082 8.68823 34.6875 8.79175 34.4023 8.99878C34.2188 9.13159 34.127 9.30933 34.127 9.53198C34.127 9.73511 34.2129 9.90894 34.3848 10.0535C34.6035 10.2371 35.1348 10.4285 35.9785 10.6277C36.8223 10.8269 37.4453 11.0339 37.8477 11.2488C38.2539 11.4597 38.5703 11.7507 38.7969 12.1218C39.0273 12.489 39.1426 12.9441 39.1426 13.4871C39.1426 13.9792 39.0059 14.4402 38.7324 14.8699C38.459 15.2996 38.0723 15.6199 37.5723 15.8308C37.0723 16.0378 36.4492 16.1414 35.7031 16.1414C34.6172 16.1414 33.7832 15.8914 33.2012 15.3914C32.6191 14.8875 32.2715 14.155 32.1582 13.1941Z" fill="white"/>
<defs>
<linearGradient id="paint0_linear_50_1836" x1="24.5" y1="1.98901" x2="24.5" y2="21.989" gradientUnits="userSpaceOnUse">
<stop stop-color="#6875EA"/>
<stop offset="1" stop-color="#D7411F"/>
</linearGradient>
</defs>
</svg>
