<svg width="74" height="24" viewBox="0 0 74 24" fill="none" xmlns="http://www.w3.org/2000/svg">
<rect x="1" y="1.98901" width="72" height="20" rx="10" fill="url(#paint0_linear_38_1860)"/>
<rect x="1" y="1.98901" width="72" height="20" rx="10" stroke="#8D00A8" stroke-width="3" stroke-linejoin="round"/>
<path d="M14.7988 12.8308L16.4805 13.364C16.2227 14.3015 15.793 14.9988 15.1914 15.4558C14.5938 15.9089 13.834 16.1355 12.9121 16.1355C11.7715 16.1355 10.834 15.7468 10.0996 14.9695C9.36523 14.1882 8.99805 13.1218 8.99805 11.7703C8.99805 10.3406 9.36719 9.2312 10.1055 8.44214C10.8438 7.64917 11.8145 7.25269 13.0176 7.25269C14.0684 7.25269 14.9219 7.56323 15.5781 8.18433C15.9688 8.55151 16.2617 9.07886 16.457 9.76636L14.7402 10.1765C14.6387 9.7312 14.4258 9.37964 14.1016 9.12183C13.7812 8.86401 13.3906 8.73511 12.9297 8.73511C12.293 8.73511 11.7754 8.96362 11.377 9.42065C10.9824 9.87769 10.7852 10.6179 10.7852 11.6414C10.7852 12.7273 10.9805 13.5007 11.3711 13.9617C11.7617 14.4226 12.2695 14.6531 12.8945 14.6531C13.3555 14.6531 13.752 14.5066 14.084 14.2136C14.416 13.9207 14.6543 13.4597 14.7988 12.8308ZM25.7207 15.989H23.834L23.084 14.0378H19.6504L18.9414 15.989H17.1016L20.4473 7.39917H22.2812L25.7207 15.989ZM22.5273 12.5906L21.3438 9.40308L20.1836 12.5906H22.5273ZM26.207 13.1941L27.8945 13.03C27.9961 13.5964 28.2012 14.0125 28.5098 14.2781C28.8223 14.5437 29.2422 14.6765 29.7695 14.6765C30.3281 14.6765 30.748 14.5593 31.0293 14.325C31.3145 14.0867 31.457 13.8093 31.457 13.4929C31.457 13.2898 31.3965 13.1179 31.2754 12.9773C31.1582 12.8328 30.9512 12.7078 30.6543 12.6023C30.4512 12.532 29.9883 12.407 29.2656 12.2273C28.3359 11.9968 27.6836 11.7136 27.3086 11.3777C26.7812 10.905 26.5176 10.3289 26.5176 9.64917C26.5176 9.21167 26.6406 8.80347 26.8867 8.42456C27.1367 8.04175 27.4941 7.75073 27.959 7.55151C28.4277 7.35229 28.9922 7.25269 29.6523 7.25269C30.7305 7.25269 31.541 7.48901 32.084 7.96167C32.6309 8.43433 32.918 9.06519 32.9453 9.85425L31.2109 9.93042C31.1367 9.48901 30.9766 9.17261 30.7305 8.9812C30.4883 8.78589 30.123 8.68823 29.6348 8.68823C29.1309 8.68823 28.7363 8.79175 28.4512 8.99878C28.2676 9.13159 28.1758 9.30933 28.1758 9.53198C28.1758 9.73511 28.2617 9.90894 28.4336 10.0535C28.6523 10.2371 29.1836 10.4285 30.0273 10.6277C30.8711 10.8269 31.4941 11.0339 31.8965 11.2488C32.3027 11.4597 32.6191 11.7507 32.8457 12.1218C33.0762 12.489 33.1914 12.9441 33.1914 13.4871C33.1914 13.9792 33.0547 14.4402 32.7812 14.8699C32.5078 15.2996 32.1211 15.6199 31.6211 15.8308C31.1211 16.0378 30.498 16.1414 29.752 16.1414C28.666 16.1414 27.832 15.8914 27.25 15.3914C26.668 14.8875 26.3203 14.155 26.207 13.1941ZM34.6504 15.989V7.39917H37.4336C38.4883 7.39917 39.1758 7.44214 39.4961 7.52808C39.9883 7.65698 40.4004 7.93823 40.7324 8.37183C41.0645 8.80151 41.2305 9.35815 41.2305 10.0417C41.2305 10.5691 41.1348 11.0125 40.9434 11.3718C40.752 11.7312 40.5078 12.0144 40.2109 12.2214C39.918 12.4246 39.6191 12.5593 39.3145 12.6257C38.9004 12.7078 38.3008 12.7488 37.5156 12.7488H36.3848V15.989H34.6504ZM36.3848 8.85229V11.2898H37.334C38.0176 11.2898 38.4746 11.2449 38.7051 11.155C38.9355 11.0652 39.1152 10.9246 39.2441 10.7332C39.377 10.5417 39.4434 10.3191 39.4434 10.0652C39.4434 9.75269 39.3516 9.49487 39.168 9.29175C38.9844 9.08862 38.752 8.96167 38.4707 8.91089C38.2637 8.87183 37.8477 8.85229 37.2227 8.85229H36.3848ZM49.5098 15.989H47.623L46.873 14.0378H43.4395L42.7305 15.989H40.8906L44.2363 7.39917H46.0703L49.5098 15.989ZM46.3164 12.5906L45.1328 9.40308L43.9727 12.5906H46.3164ZM49.9961 13.1941L51.6836 13.03C51.7852 13.5964 51.9902 14.0125 52.2988 14.2781C52.6113 14.5437 53.0312 14.6765 53.5586 14.6765C54.1172 14.6765 54.5371 14.5593 54.8184 14.325C55.1035 14.0867 55.2461 13.8093 55.2461 13.4929C55.2461 13.2898 55.1855 13.1179 55.0645 12.9773C54.9473 12.8328 54.7402 12.7078 54.4434 12.6023C54.2402 12.532 53.7773 12.407 53.0547 12.2273C52.125 11.9968 51.4727 11.7136 51.0977 11.3777C50.5703 10.905 50.3066 10.3289 50.3066 9.64917C50.3066 9.21167 50.4297 8.80347 50.6758 8.42456C50.9258 8.04175 51.2832 7.75073 51.748 7.55151C52.2168 7.35229 52.7812 7.25269 53.4414 7.25269C54.5195 7.25269 55.3301 7.48901 55.873 7.96167C56.4199 8.43433 56.707 9.06519 56.7344 9.85425L55 9.93042C54.9258 9.48901 54.7656 9.17261 54.5195 8.9812C54.2773 8.78589 53.9121 8.68823 53.4238 8.68823C52.9199 8.68823 52.5254 8.79175 52.2402 8.99878C52.0566 9.13159 51.9648 9.30933 51.9648 9.53198C51.9648 9.73511 52.0508 9.90894 52.2227 10.0535C52.4414 10.2371 52.9727 10.4285 53.8164 10.6277C54.6602 10.8269 55.2832 11.0339 55.6855 11.2488C56.0918 11.4597 56.4082 11.7507 56.6348 12.1218C56.8652 12.489 56.9805 12.9441 56.9805 13.4871C56.9805 13.9792 56.8438 14.4402 56.5703 14.8699C56.2969 15.2996 55.9102 15.6199 55.4102 15.8308C54.9102 16.0378 54.2871 16.1414 53.541 16.1414C52.4551 16.1414 51.6211 15.8914 51.0391 15.3914C50.457 14.8875 50.1094 14.155 49.9961 13.1941ZM58.4395 15.989V7.39917H64.8086V8.85229H60.1738V10.7566H64.4863V12.2039H60.1738V14.5417H64.9727V15.989H58.4395Z" fill="white"/>
<defs>
<linearGradient id="paint0_linear_38_1860" x1="37" y1="1.98901" x2="37" y2="21.989" gradientUnits="userSpaceOnUse">
<stop stop-color="#8D00A8"/>
<stop offset="1" stop-color="#D93660"/>
</linearGradient>
</defs>
</svg>
