<svg width="50" height="24" viewBox="0 0 50 24" fill="none" xmlns="http://www.w3.org/2000/svg">
<rect x="2" y="1.98901" width="47" height="20" rx="10" fill="url(#paint0_linear_67_1879)"/>
<rect x="2" y="1.98901" width="47" height="20" rx="10" stroke="#DE577E" stroke-width="3" stroke-linejoin="round"/>
<path d="M10.0371 15.989V7.39917H13.6875C14.6055 7.39917 15.2715 7.47729 15.6855 7.63354C16.1035 7.78589 16.4375 8.05933 16.6875 8.45386C16.9375 8.84839 17.0625 9.29956 17.0625 9.80737C17.0625 10.4519 16.873 10.9851 16.4941 11.407C16.1152 11.825 15.5488 12.0886 14.7949 12.198C15.1699 12.4167 15.4785 12.657 15.7207 12.9187C15.9668 13.1804 16.2969 13.6453 16.7109 14.3132L17.7598 15.989H15.6855L14.4316 14.1199C13.9863 13.4519 13.6816 13.032 13.5176 12.8601C13.3535 12.6843 13.1797 12.5652 12.9961 12.5027C12.8125 12.4363 12.5215 12.4031 12.123 12.4031H11.7715V15.989H10.0371ZM11.7715 11.032H13.0547C13.8867 11.032 14.4062 10.9968 14.6133 10.9265C14.8203 10.8562 14.9824 10.7351 15.0996 10.5632C15.2168 10.3914 15.2754 10.1765 15.2754 9.9187C15.2754 9.62964 15.1973 9.39722 15.041 9.22144C14.8887 9.04175 14.6719 8.92847 14.3906 8.88159C14.25 8.86206 13.8281 8.85229 13.125 8.85229H11.7715V11.032ZM18.7031 15.989V7.39917H25.0723V8.85229H20.4375V10.7566H24.75V12.2039H20.4375V14.5417H25.2363V15.989H18.7031ZM26.7539 15.989V7.46948H28.4883V14.5417H32.8008V15.989H26.7539ZM41.7891 15.989H39.9023L39.1523 14.0378H35.7188L35.0098 15.989H33.1699L36.5156 7.39917H38.3496L41.7891 15.989ZM38.5957 12.5906L37.4121 9.40308L36.252 12.5906H38.5957Z" fill="white"/>
<defs>
<linearGradient id="paint0_linear_67_1879" x1="25.5" y1="1.98901" x2="25.5" y2="21.989" gradientUnits="userSpaceOnUse">
<stop stop-color="#19605B"/>
<stop offset="1" stop-color="#DE577E"/>
</linearGradient>
</defs>
</svg>
