<svg width="67" height="24" viewBox="0 0 67 24" fill="none" xmlns="http://www.w3.org/2000/svg">
<rect x="1" y="1.98901" width="65" height="20" rx="10" fill="url(#paint0_linear_85_2073)"/>
<rect x="1" y="1.98901" width="65" height="20" rx="10" stroke="#695062" stroke-width="3" stroke-linejoin="round"/>
<path d="M8.60352 15.989V14.4246L13.1152 8.85229H9.11328V7.39917H15.4004V8.74683L10.6953 14.5417H15.582V15.989H8.60352ZM16.6953 15.989V7.39917H22.584V8.85229H18.4297V10.8855H22.0156V12.3386H18.4297V15.989H16.6953ZM24.0195 15.989V7.39917H26.8027C27.8574 7.39917 28.5449 7.44214 28.8652 7.52808C29.3574 7.65698 29.7695 7.93823 30.1016 8.37183C30.4336 8.80151 30.5996 9.35815 30.5996 10.0417C30.5996 10.5691 30.5039 11.0125 30.3125 11.3718C30.1211 11.7312 29.877 12.0144 29.5801 12.2214C29.2871 12.4246 28.9883 12.5593 28.6836 12.6257C28.2695 12.7078 27.6699 12.7488 26.8848 12.7488H25.7539V15.989H24.0195ZM25.7539 8.85229V11.2898H26.7031C27.3867 11.2898 27.8438 11.2449 28.0742 11.155C28.3047 11.0652 28.4844 10.9246 28.6133 10.7332C28.7461 10.5417 28.8125 10.3191 28.8125 10.0652C28.8125 9.75269 28.7207 9.49487 28.5371 9.29175C28.3535 9.08862 28.1211 8.96167 27.8398 8.91089C27.6328 8.87183 27.2168 8.85229 26.5918 8.85229H25.7539ZM31.6016 13.7097L33.1953 13.5164C33.2461 13.9226 33.3828 14.2332 33.6055 14.448C33.8281 14.6628 34.0977 14.7703 34.4141 14.7703C34.7539 14.7703 35.0391 14.6414 35.2695 14.3835C35.5039 14.1257 35.6211 13.7781 35.6211 13.3406C35.6211 12.9265 35.5098 12.5984 35.2871 12.3562C35.0645 12.114 34.793 11.9929 34.4727 11.9929C34.2617 11.9929 34.0098 12.0339 33.7168 12.116L33.8984 10.7742C34.3438 10.7859 34.6836 10.6902 34.918 10.4871C35.1523 10.28 35.2695 10.0066 35.2695 9.66675C35.2695 9.37769 35.1836 9.14722 35.0117 8.97534C34.8398 8.80347 34.6113 8.71753 34.3262 8.71753C34.0449 8.71753 33.8047 8.81519 33.6055 9.0105C33.4062 9.20581 33.2852 9.49097 33.2422 9.86597L31.7246 9.60815C31.8301 9.08862 31.9883 8.67456 32.1992 8.36597C32.4141 8.05347 32.7109 7.80933 33.0898 7.63354C33.4727 7.45386 33.9004 7.36401 34.373 7.36401C35.1816 7.36401 35.8301 7.62183 36.3184 8.13745C36.7207 8.55933 36.9219 9.03589 36.9219 9.56714C36.9219 10.321 36.5098 10.9226 35.6855 11.3718C36.1777 11.4773 36.5703 11.7136 36.8633 12.0808C37.1602 12.448 37.3086 12.8914 37.3086 13.4109C37.3086 14.1648 37.0332 14.8074 36.4824 15.3386C35.9316 15.8699 35.2461 16.1355 34.4258 16.1355C33.6484 16.1355 33.0039 15.9128 32.4922 15.4675C31.9805 15.0183 31.6836 14.4324 31.6016 13.7097ZM43.918 9.50269L42.3242 9.67847C42.2852 9.35034 42.1836 9.10815 42.0195 8.9519C41.8555 8.79565 41.6426 8.71753 41.3809 8.71753C41.0332 8.71753 40.7383 8.87378 40.4961 9.18628C40.2578 9.49878 40.1074 10.1492 40.0449 11.1375C40.4551 10.6531 40.9648 10.4109 41.5742 10.4109C42.2617 10.4109 42.8496 10.6726 43.3379 11.196C43.8301 11.7195 44.0762 12.3953 44.0762 13.2234C44.0762 14.1023 43.8184 14.8074 43.3027 15.3386C42.7871 15.8699 42.125 16.1355 41.3164 16.1355C40.4492 16.1355 39.7363 15.7996 39.1777 15.1277C38.6191 14.4519 38.3398 13.3464 38.3398 11.8113C38.3398 10.2371 38.6309 9.10229 39.2129 8.40698C39.7949 7.71167 40.5508 7.36401 41.4805 7.36401C42.1328 7.36401 42.6719 7.54761 43.0977 7.91479C43.5273 8.27808 43.8008 8.80737 43.918 9.50269ZM40.1855 13.0945C40.1855 13.6296 40.3086 14.0437 40.5547 14.3367C40.8008 14.6257 41.082 14.7703 41.3984 14.7703C41.7031 14.7703 41.957 14.6511 42.1602 14.4128C42.3633 14.1746 42.4648 13.7839 42.4648 13.241C42.4648 12.6824 42.3555 12.2742 42.1367 12.0164C41.918 11.7546 41.6445 11.6238 41.3164 11.6238C41 11.6238 40.7324 11.7488 40.5137 11.9988C40.2949 12.2449 40.1855 12.6101 40.1855 13.0945ZM45.4297 15.989V7.46948H47.1641V14.5417H51.4766V15.989H45.4297ZM57.916 14.4597V15.989H52.1445C52.207 15.4109 52.3945 14.864 52.707 14.3484C53.0195 13.8289 53.6367 13.1414 54.5586 12.2859C55.3008 11.5945 55.7559 11.1257 55.9238 10.8796C56.1504 10.5398 56.2637 10.2039 56.2637 9.87183C56.2637 9.50464 56.1641 9.22339 55.9648 9.02808C55.7695 8.82886 55.498 8.72925 55.1504 8.72925C54.8066 8.72925 54.5332 8.83276 54.3301 9.03979C54.127 9.24683 54.0098 9.59058 53.9785 10.071L52.3379 9.90698C52.4355 9.00073 52.7422 8.35034 53.2578 7.95581C53.7734 7.56128 54.418 7.36401 55.1914 7.36401C56.0391 7.36401 56.7051 7.59253 57.1895 8.04956C57.6738 8.50659 57.916 9.07495 57.916 9.75464C57.916 10.1414 57.8457 10.5105 57.7051 10.8621C57.5684 11.2097 57.3496 11.575 57.0488 11.9578C56.8496 12.2117 56.4902 12.5769 55.9707 13.0535C55.4512 13.53 55.1211 13.8464 54.9805 14.0027C54.8438 14.1589 54.7324 14.3113 54.6465 14.4597H57.916Z" fill="white"/>
<defs>
<linearGradient id="paint0_linear_85_2073" x1="33.5" y1="1.98901" x2="33.5" y2="21.989" gradientUnits="userSpaceOnUse">
<stop stop-color="#695062"/>
<stop offset="1" stop-color="#C98500"/>
</linearGradient>
</defs>
</svg>
