<svg width="49" height="24" viewBox="0 0 49 24" fill="none" xmlns="http://www.w3.org/2000/svg">
<rect x="2" y="1.98901" width="46" height="20" rx="10" fill="url(#paint0_linear_67_1904)"/>
<rect x="2" y="1.98901" width="46" height="20" rx="10" stroke="#FF8C65" stroke-width="3" stroke-linejoin="round"/>
<path d="M10.1992 15.989V7.39917H13.8496C14.7676 7.39917 15.4336 7.47729 15.8477 7.63354C16.2656 7.78589 16.5996 8.05933 16.8496 8.45386C17.0996 8.84839 17.2246 9.29956 17.2246 9.80737C17.2246 10.4519 17.0352 10.9851 16.6562 11.407C16.2773 11.825 15.7109 12.0886 14.957 12.198C15.332 12.4167 15.6406 12.657 15.8828 12.9187C16.1289 13.1804 16.459 13.6453 16.873 14.3132L17.9219 15.989H15.8477L14.5938 14.1199C14.1484 13.4519 13.8438 13.032 13.6797 12.8601C13.5156 12.6843 13.3418 12.5652 13.1582 12.5027C12.9746 12.4363 12.6836 12.4031 12.2852 12.4031H11.9336V15.989H10.1992ZM11.9336 11.032H13.2168C14.0488 11.032 14.5684 10.9968 14.7754 10.9265C14.9824 10.8562 15.1445 10.7351 15.2617 10.5632C15.3789 10.3914 15.4375 10.1765 15.4375 9.9187C15.4375 9.62964 15.3594 9.39722 15.2031 9.22144C15.0508 9.04175 14.834 8.92847 14.5527 8.88159C14.4121 8.86206 13.9902 8.85229 13.2871 8.85229H11.9336V11.032ZM18.8652 15.989V7.39917H21.6484C22.7031 7.39917 23.3906 7.44214 23.7109 7.52808C24.2031 7.65698 24.6152 7.93823 24.9473 8.37183C25.2793 8.80151 25.4453 9.35815 25.4453 10.0417C25.4453 10.5691 25.3496 11.0125 25.1582 11.3718C24.9668 11.7312 24.7227 12.0144 24.4258 12.2214C24.1328 12.4246 23.834 12.5593 23.5293 12.6257C23.1152 12.7078 22.5156 12.7488 21.7305 12.7488H20.5996V15.989H18.8652ZM20.5996 8.85229V11.2898H21.5488C22.2324 11.2898 22.6895 11.2449 22.9199 11.155C23.1504 11.0652 23.3301 10.9246 23.459 10.7332C23.5918 10.5417 23.6582 10.3191 23.6582 10.0652C23.6582 9.75269 23.5664 9.49487 23.3828 9.29175C23.1992 9.08862 22.9668 8.96167 22.6855 8.91089C22.4785 8.87183 22.0625 8.85229 21.4375 8.85229H20.5996ZM26.4297 13.1941L28.1172 13.03C28.2188 13.5964 28.4238 14.0125 28.7324 14.2781C29.0449 14.5437 29.4648 14.6765 29.9922 14.6765C30.5508 14.6765 30.9707 14.5593 31.252 14.325C31.5371 14.0867 31.6797 13.8093 31.6797 13.4929C31.6797 13.2898 31.6191 13.1179 31.498 12.9773C31.3809 12.8328 31.1738 12.7078 30.877 12.6023C30.6738 12.532 30.2109 12.407 29.4883 12.2273C28.5586 11.9968 27.9062 11.7136 27.5312 11.3777C27.0039 10.905 26.7402 10.3289 26.7402 9.64917C26.7402 9.21167 26.8633 8.80347 27.1094 8.42456C27.3594 8.04175 27.7168 7.75073 28.1816 7.55151C28.6504 7.35229 29.2148 7.25269 29.875 7.25269C30.9531 7.25269 31.7637 7.48901 32.3066 7.96167C32.8535 8.43433 33.1406 9.06519 33.168 9.85425L31.4336 9.93042C31.3594 9.48901 31.1992 9.17261 30.9531 8.9812C30.7109 8.78589 30.3457 8.68823 29.8574 8.68823C29.3535 8.68823 28.959 8.79175 28.6738 8.99878C28.4902 9.13159 28.3984 9.30933 28.3984 9.53198C28.3984 9.73511 28.4844 9.90894 28.6562 10.0535C28.875 10.2371 29.4062 10.4285 30.25 10.6277C31.0938 10.8269 31.7168 11.0339 32.1191 11.2488C32.5254 11.4597 32.8418 11.7507 33.0684 12.1218C33.2988 12.489 33.4141 12.9441 33.4141 13.4871C33.4141 13.9792 33.2773 14.4402 33.0039 14.8699C32.7305 15.2996 32.3438 15.6199 31.8438 15.8308C31.3438 16.0378 30.7207 16.1414 29.9746 16.1414C28.8887 16.1414 28.0547 15.8914 27.4727 15.3914C26.8906 14.8875 26.543 14.155 26.4297 13.1941ZM40.0703 14.4597V15.989H34.2988C34.3613 15.4109 34.5488 14.864 34.8613 14.3484C35.1738 13.8289 35.791 13.1414 36.7129 12.2859C37.4551 11.5945 37.9102 11.1257 38.0781 10.8796C38.3047 10.5398 38.418 10.2039 38.418 9.87183C38.418 9.50464 38.3184 9.22339 38.1191 9.02808C37.9238 8.82886 37.6523 8.72925 37.3047 8.72925C36.9609 8.72925 36.6875 8.83276 36.4844 9.03979C36.2812 9.24683 36.1641 9.59058 36.1328 10.071L34.4922 9.90698C34.5898 9.00073 34.8965 8.35034 35.4121 7.95581C35.9277 7.56128 36.5723 7.36401 37.3457 7.36401C38.1934 7.36401 38.8594 7.59253 39.3438 8.04956C39.8281 8.50659 40.0703 9.07495 40.0703 9.75464C40.0703 10.1414 40 10.5105 39.8594 10.8621C39.7227 11.2097 39.5039 11.575 39.2031 11.9578C39.0039 12.2117 38.6445 12.5769 38.125 13.0535C37.6055 13.53 37.2754 13.8464 37.1348 14.0027C36.998 14.1589 36.8867 14.3113 36.8008 14.4597H40.0703Z" fill="white"/>
<defs>
<linearGradient id="paint0_linear_67_1904" x1="25" y1="1.98901" x2="25" y2="21.989" gradientUnits="userSpaceOnUse">
<stop stop-color="#FF8C65"/>
<stop offset="1" stop-color="#AB3C8C"/>
</linearGradient>
</defs>
</svg>
