<svg width="62" height="52" viewBox="0 0 62 52" fill="none" xmlns="http://www.w3.org/2000/svg">
<path d="M33.4246 51.2666C37.6241 51.2666 41.0286 47.8622 41.0286 43.6626C41.0286 39.463 37.6241 36.0586 33.4246 36.0586C29.225 36.0586 25.8206 39.463 25.8206 43.6626C25.8206 47.8622 29.225 51.2666 33.4246 51.2666Z" fill="#DB56E2" stroke="#AC00B5" stroke-miterlimit="10"/>
<path d="M18.5962 51.2666C22.7958 51.2666 26.2002 47.8622 26.2002 43.6626C26.2002 39.463 22.7958 36.0586 18.5962 36.0586C14.3966 36.0586 10.9922 39.463 10.9922 43.6626C10.9922 47.8622 14.3966 51.2666 18.5962 51.2666Z" fill="#DB56E2" stroke="#AC00B5" stroke-miterlimit="10"/>
<path d="M50.7727 31.2667C56.4369 31.2667 61.0286 26.675 61.0286 21.0108C61.0286 15.3466 56.4369 10.7549 50.7727 10.7549C45.1086 10.7549 40.5168 15.3466 40.5168 21.0108C40.5168 26.675 45.1086 31.2667 50.7727 31.2667Z" fill="url(#paint0_linear_86_3489)" stroke="#005EB6" stroke-miterlimit="10"/>
<path d="M50.7727 51.2667C56.4369 51.2667 61.0286 46.675 61.0286 41.0108C61.0286 35.3466 56.4369 30.7549 50.7727 30.7549C45.1086 30.7549 40.5168 35.3466 40.5168 41.0108C40.5168 46.675 45.1086 51.2667 50.7727 51.2667Z" fill="#D83064" stroke="#B50038" stroke-miterlimit="10"/>
<path d="M30.7727 31.2667C36.4369 31.2667 41.0286 26.675 41.0286 21.0108C41.0286 15.3466 36.4369 10.7549 30.7727 10.7549C25.1086 10.7549 20.5168 15.3466 20.5168 21.0108C20.5168 26.675 25.1086 31.2667 30.7727 31.2667Z" fill="url(#paint1_linear_86_3489)" stroke="#00A2B6" stroke-miterlimit="10"/>
<path opacity="0.3" d="M55.1725 30.8067C53.9657 28.6412 52.0363 26.9305 49.7077 26.0107C53.6955 24.4356 56.5285 20.5516 56.5285 16.0107C56.5285 14.3347 56.1323 12.7533 55.4455 11.3379C54.0299 10.6512 52.4486 10.2549 50.7726 10.2549C46.2316 10.2549 42.3478 13.0878 40.7726 17.0756C39.8527 14.7469 38.1422 12.8177 35.9767 11.6108C35.9071 11.765 35.8351 11.9177 35.7726 12.0756C35.6725 11.8216 35.5622 11.5727 35.4435 11.3285C34.0309 10.6423 32.4469 10.2549 30.7726 10.2549C24.8419 10.2549 20.0167 15.0801 20.0167 21.0108C20.0167 22.6868 20.4132 24.2682 21.0997 25.6836C22.5152 26.3703 24.0968 26.7667 25.7726 26.7667C30.3136 26.7667 34.1974 23.9338 35.7726 19.946C36.6925 22.2749 38.4059 24.196 40.5731 25.4007C40.641 25.2498 40.7115 25.1005 40.7726 24.946C40.8715 25.1964 40.9896 25.4365 41.1063 25.6773C41.347 25.794 41.5873 25.912 41.8375 26.0109C41.6832 26.0719 41.5406 26.1543 41.3897 26.2221C42.5948 28.3838 44.5127 30.0927 46.8375 31.0109C43.3929 32.3714 40.8207 35.456 40.1817 39.1988C38.7296 37.0079 36.2447 35.5587 33.4249 35.5587C30.1158 35.5587 27.2679 37.5544 26.0103 40.4034C24.7527 37.5545 21.9048 35.5587 18.5957 35.5587C14.1269 35.5587 10.4922 39.194 10.4922 43.6627C10.4922 44.5918 10.6572 45.4811 10.9463 46.3129C11.7778 46.6018 12.667 46.7667 13.5957 46.7667C16.9048 46.7667 19.7527 44.771 21.0103 41.922C22.2679 44.7709 25.1158 46.7667 28.4249 46.7667C32.1153 46.7667 35.2308 44.2848 36.2061 40.9043C37.991 44.3792 41.6048 46.7667 45.7725 46.7667C51.7032 46.7667 56.5284 41.9415 56.5284 36.0108C56.5284 34.3365 56.1409 32.7528 55.4547 31.3399C55.2106 31.2213 54.9615 31.1111 54.7076 31.0108C54.8656 30.9483 55.0184 30.8762 55.1725 30.8067Z" fill="#041456"/>
<path d="M23.4246 41.2666C27.6241 41.2666 31.0286 37.8622 31.0286 33.6626C31.0286 29.463 27.6241 26.0586 23.4246 26.0586C19.225 26.0586 15.8206 29.463 15.8206 33.6626C15.8206 37.8622 19.225 41.2666 23.4246 41.2666Z" fill="#DB56E2" stroke="#AC00B5" stroke-miterlimit="10"/>
<path d="M8.59619 41.2666C12.7958 41.2666 16.2002 37.8622 16.2002 33.6626C16.2002 29.463 12.7958 26.0586 8.59619 26.0586C4.39661 26.0586 0.992188 29.463 0.992188 33.6626C0.992188 37.8622 4.39661 41.2666 8.59619 41.2666Z" fill="#DB56E2" stroke="#AC00B5" stroke-miterlimit="10"/>
<path d="M40.7727 21.2667C46.4369 21.2667 51.0286 16.675 51.0286 11.0108C51.0286 5.34661 46.4369 0.754883 40.7727 0.754883C35.1086 0.754883 30.5168 5.34661 30.5168 11.0108C30.5168 16.675 35.1086 21.2667 40.7727 21.2667Z" fill="url(#paint2_linear_86_3489)" stroke="#005EB6" stroke-miterlimit="10"/>
<path d="M40.7727 41.2667C46.4369 41.2667 51.0286 36.675 51.0286 31.0108C51.0286 25.3466 46.4369 20.7549 40.7727 20.7549C35.1086 20.7549 30.5168 25.3466 30.5168 31.0108C30.5168 36.675 35.1086 41.2667 40.7727 41.2667Z" fill="#D83064" stroke="#B50038" stroke-miterlimit="10"/>
<path d="M20.7727 21.2667C26.4369 21.2667 31.0286 16.675 31.0286 11.0108C31.0286 5.34661 26.4369 0.754883 20.7727 0.754883C15.1086 0.754883 10.5168 5.34661 10.5168 11.0108C10.5168 16.675 15.1086 21.2667 20.7727 21.2667Z" fill="url(#paint3_linear_86_3489)" stroke="#00A2B6" stroke-miterlimit="10"/>
<defs>
<linearGradient id="paint0_linear_86_3489" x1="50.7728" y1="31.2667" x2="50.7728" y2="10.7549" gradientUnits="userSpaceOnUse">
<stop stop-color="#FF0071"/>
<stop offset="1" stop-color="#005EB6"/>
</linearGradient>
<linearGradient id="paint1_linear_86_3489" x1="30.7728" y1="31.2667" x2="30.7728" y2="10.7549" gradientUnits="userSpaceOnUse">
<stop stop-color="#FFB271"/>
<stop offset="1" stop-color="#00A2B6"/>
</linearGradient>
<linearGradient id="paint2_linear_86_3489" x1="40.7728" y1="21.2667" x2="40.7728" y2="0.754883" gradientUnits="userSpaceOnUse">
<stop stop-color="#FF0071"/>
<stop offset="1" stop-color="#005EB6"/>
</linearGradient>
<linearGradient id="paint3_linear_86_3489" x1="20.7727" y1="21.2667" x2="20.7727" y2="0.754883" gradientUnits="userSpaceOnUse">
<stop stop-color="#FFB271"/>
<stop offset="1" stop-color="#00A2B6"/>
</linearGradient>
</defs>
</svg>
