<svg width="59" height="24" viewBox="0 0 59 24" fill="none" xmlns="http://www.w3.org/2000/svg">
<rect x="2" y="1.98901" width="56" height="20" rx="10" fill="url(#paint0_linear_38_1889)"/>
<rect x="2" y="1.98901" width="56" height="20" rx="10" stroke="#5669F7" stroke-width="3" stroke-linejoin="round"/>
<path d="M15.6914 12.8308L17.373 13.364C17.1152 14.3015 16.6855 14.9988 16.084 15.4558C15.4863 15.9089 14.7266 16.1355 13.8047 16.1355C12.6641 16.1355 11.7266 15.7468 10.9922 14.9695C10.2578 14.1882 9.89062 13.1218 9.89062 11.7703C9.89062 10.3406 10.2598 9.2312 10.998 8.44214C11.7363 7.64917 12.707 7.25269 13.9102 7.25269C14.9609 7.25269 15.8145 7.56323 16.4707 8.18433C16.8613 8.55151 17.1543 9.07886 17.3496 9.76636L15.6328 10.1765C15.5312 9.7312 15.3184 9.37964 14.9941 9.12183C14.6738 8.86401 14.2832 8.73511 13.8223 8.73511C13.1855 8.73511 12.668 8.96362 12.2695 9.42065C11.875 9.87769 11.6777 10.6179 11.6777 11.6414C11.6777 12.7273 11.873 13.5007 12.2637 13.9617C12.6543 14.4226 13.1621 14.6531 13.7871 14.6531C14.248 14.6531 14.6445 14.5066 14.9766 14.2136C15.3086 13.9207 15.5469 13.4597 15.6914 12.8308ZM18.8672 15.989V7.39917H25.2363V8.85229H20.6016V10.7566H24.9141V12.2039H20.6016V14.5417H25.4004V15.989H18.8672ZM26.877 7.39917H30.3105C30.9902 7.39917 31.4961 7.42847 31.8281 7.48706C32.1641 7.54175 32.4629 7.65894 32.7246 7.83862C32.9902 8.01831 33.2109 8.25854 33.3867 8.55933C33.5625 8.8562 33.6504 9.19019 33.6504 9.56128C33.6504 9.96362 33.541 10.3328 33.3223 10.6687C33.1074 11.0046 32.8145 11.2566 32.4434 11.4246C32.9668 11.5769 33.3691 11.8367 33.6504 12.2039C33.9316 12.571 34.0723 13.0027 34.0723 13.4988C34.0723 13.8894 33.9805 14.2703 33.7969 14.6414C33.6172 15.0085 33.3691 15.3035 33.0527 15.5261C32.7402 15.7449 32.3535 15.8796 31.8926 15.9304C31.6035 15.9617 30.9062 15.9812 29.8008 15.989H26.877V7.39917ZM28.6113 8.82886V10.8152H29.748C30.4238 10.8152 30.8438 10.8054 31.0078 10.7859C31.3047 10.7507 31.5371 10.6492 31.7051 10.4812C31.877 10.3093 31.9629 10.0847 31.9629 9.80737C31.9629 9.54175 31.8887 9.3269 31.7402 9.16284C31.5957 8.99487 31.3789 8.89331 31.0898 8.85815C30.918 8.83862 30.4238 8.82886 29.6074 8.82886H28.6113ZM28.6113 12.2449V14.5417H30.2168C30.8418 14.5417 31.2383 14.5242 31.4062 14.489C31.6641 14.4421 31.873 14.3289 32.0332 14.1492C32.1973 13.9656 32.2793 13.7214 32.2793 13.4167C32.2793 13.1589 32.2168 12.9402 32.0918 12.7605C31.9668 12.5808 31.7852 12.45 31.5469 12.3679C31.3125 12.2859 30.8008 12.2449 30.0117 12.2449H28.6113ZM35.543 15.989V7.39917H38.3262C39.3809 7.39917 40.0684 7.44214 40.3887 7.52808C40.8809 7.65698 41.293 7.93823 41.625 8.37183C41.957 8.80151 42.123 9.35815 42.123 10.0417C42.123 10.5691 42.0273 11.0125 41.8359 11.3718C41.6445 11.7312 41.4004 12.0144 41.1035 12.2214C40.8105 12.4246 40.5117 12.5593 40.207 12.6257C39.793 12.7078 39.1934 12.7488 38.4082 12.7488H37.2773V15.989H35.543ZM37.2773 8.85229V11.2898H38.2266C38.9102 11.2898 39.3672 11.2449 39.5977 11.155C39.8281 11.0652 40.0078 10.9246 40.1367 10.7332C40.2695 10.5417 40.3359 10.3191 40.3359 10.0652C40.3359 9.75269 40.2441 9.49487 40.0605 9.29175C39.877 9.08862 39.6445 8.96167 39.3633 8.91089C39.1562 8.87183 38.7402 8.85229 38.1152 8.85229H37.2773ZM43.5469 15.989V7.39917H49.916V8.85229H45.2812V10.7566H49.5938V12.2039H45.2812V14.5417H50.0801V15.989H43.5469Z" fill="white"/>
<defs>
<linearGradient id="paint0_linear_38_1889" x1="30" y1="1.98901" x2="30" y2="21.989" gradientUnits="userSpaceOnUse">
<stop stop-color="#5669F7"/>
<stop offset="1" stop-color="#ED003A"/>
</linearGradient>
</defs>
</svg>
