<svg width="57" height="24" viewBox="0 0 57 24" fill="none" xmlns="http://www.w3.org/2000/svg">
<rect x="2" y="1.98901" width="54" height="20" rx="10" fill="url(#paint0_linear_46_4303)"/>
<rect x="2" y="1.98901" width="54" height="20" rx="10" stroke="#79DFC6" stroke-width="3" stroke-linejoin="round"/>
<path d="M10.1973 15.989V7.39917H11.9316V10.78H15.3301V7.39917H17.0645V15.989H15.3301V12.2332H11.9316V15.989H10.1973ZM18.8633 15.989V7.39917H21.6465C22.7012 7.39917 23.3887 7.44214 23.709 7.52808C24.2012 7.65698 24.6133 7.93823 24.9453 8.37183C25.2773 8.80151 25.4434 9.35815 25.4434 10.0417C25.4434 10.5691 25.3477 11.0125 25.1562 11.3718C24.9648 11.7312 24.7207 12.0144 24.4238 12.2214C24.1309 12.4246 23.832 12.5593 23.5273 12.6257C23.1133 12.7078 22.5137 12.7488 21.7285 12.7488H20.5977V15.989H18.8633ZM20.5977 8.85229V11.2898H21.5469C22.2305 11.2898 22.6875 11.2449 22.918 11.155C23.1484 11.0652 23.3281 10.9246 23.457 10.7332C23.5898 10.5417 23.6562 10.3191 23.6562 10.0652C23.6562 9.75269 23.5645 9.49487 23.3809 9.29175C23.1973 9.08862 22.9648 8.96167 22.6836 8.91089C22.4766 8.87183 22.0605 8.85229 21.4355 8.85229H20.5977ZM26.873 15.989V7.39917H30.5234C31.4414 7.39917 32.1074 7.47729 32.5215 7.63354C32.9395 7.78589 33.2734 8.05933 33.5234 8.45386C33.7734 8.84839 33.8984 9.29956 33.8984 9.80737C33.8984 10.4519 33.709 10.9851 33.3301 11.407C32.9512 11.825 32.3848 12.0886 31.6309 12.198C32.0059 12.4167 32.3145 12.657 32.5566 12.9187C32.8027 13.1804 33.1328 13.6453 33.5469 14.3132L34.5957 15.989H32.5215L31.2676 14.1199C30.8223 13.4519 30.5176 13.032 30.3535 12.8601C30.1895 12.6843 30.0156 12.5652 29.832 12.5027C29.6484 12.4363 29.3574 12.4031 28.959 12.4031H28.6074V15.989H26.873ZM28.6074 11.032H29.8906C30.7227 11.032 31.2422 10.9968 31.4492 10.9265C31.6562 10.8562 31.8184 10.7351 31.9355 10.5632C32.0527 10.3914 32.1113 10.1765 32.1113 9.9187C32.1113 9.62964 32.0332 9.39722 31.877 9.22144C31.7246 9.04175 31.5078 8.92847 31.2266 8.88159C31.0859 8.86206 30.6641 8.85229 29.9609 8.85229H28.6074V11.032ZM37.4727 15.989V8.85229H34.9238V7.39917H41.75V8.85229H39.207V15.989H37.4727ZM46.7246 15.989H45.0781V9.78394C44.4766 10.3464 43.7676 10.7625 42.9512 11.032V9.53784C43.3809 9.39722 43.8477 9.13159 44.3516 8.74097C44.8555 8.34644 45.2012 7.88745 45.3887 7.36401H46.7246V15.989Z" fill="white"/>
<defs>
<linearGradient id="paint0_linear_46_4303" x1="29" y1="1.98901" x2="29" y2="21.989" gradientUnits="userSpaceOnUse">
<stop stop-color="#EAA75C"/>
<stop offset="1" stop-color="#79DFC6"/>
</linearGradient>
</defs>
</svg>
