<svg width="31" height="159" viewBox="0 0 31 159" fill="none" xmlns="http://www.w3.org/2000/svg">
<path d="M15.5045 158.614C18.818 158.614 21.5045 155.928 21.5045 152.614V75.1121C21.5045 71.7986 18.818 69.1121 15.5045 69.1121C12.191 69.1121 9.50452 71.7986 9.50452 75.1121V152.614C9.50452 155.927 12.1911 158.614 15.5045 158.614Z" fill="url(#paint0_linear_87_3953)"/>
<path d="M0.661316 40.841C0.661316 62.9258 4.85872 80.8248 10.0356 80.8248H20.9725C26.1494 80.8248 30.3468 62.9258 30.3468 40.841C30.3468 18.7562 26.1495 0.857178 20.9725 0.857178H10.0356C4.85872 0.857178 0.661316 18.7562 0.661316 40.841Z" fill="url(#paint1_radial_87_3953)"/>
<defs>
<linearGradient id="paint0_linear_87_3953" x1="21.6247" y1="113.863" x2="9.50882" y2="113.863" gradientUnits="userSpaceOnUse">
<stop stop-color="#89C441"/>
<stop offset="1" stop-color="#0A3A4D"/>
</linearGradient>
<radialGradient id="paint1_radial_87_3953" cx="0" cy="0" r="1" gradientUnits="userSpaceOnUse" gradientTransform="translate(19.8132 48.9011) rotate(-90) scale(75.5589 17.7152)">
<stop stop-color="#CAFF8A"/>
<stop offset="1" stop-color="#0A3A4D"/>
</radialGradient>
</defs>
</svg>
