<svg width="17" height="176" viewBox="0 0 17 176" fill="none" xmlns="http://www.w3.org/2000/svg">
<path d="M16.4478 23.8832C16.4478 21.4702 15.4335 19.3008 13.8187 17.7988C12.9855 17.0236 12.9556 15.693 13.7731 14.9006C14.9526 13.7571 16.4476 11.7561 16.4476 8.77404C16.4476 4.12909 12.7007 0.761719 8.44725 0.761719C4.19396 0.761588 0.447754 4.28996 0.447754 8.77392C0.447754 11.1883 1.46318 13.3587 3.07944 14.8609C3.91396 15.6365 3.91409 17.0205 3.07944 17.7963C1.46318 19.2983 0.447754 21.4688 0.447754 23.8832C0.447754 26.2976 1.46318 28.468 3.07944 29.9702C3.91396 30.7458 3.91396 32.1299 3.07944 32.9056C1.46318 34.4076 0.447754 36.5781 0.447754 38.9924C0.447754 41.4068 1.46318 43.5771 3.07944 45.0793C3.91396 45.8549 3.91396 47.239 3.07944 48.0147C1.46318 49.5169 0.447754 51.6874 0.447754 54.1017C0.447754 56.5159 1.46318 58.6864 3.07944 60.1886C3.91396 60.9642 3.91409 62.3483 3.07944 63.124C1.46318 64.6261 0.447754 66.7966 0.447754 69.211C0.447754 72.1866 1.99137 74.7898 4.30031 76.2295C4.88194 76.5921 5.24793 77.2275 5.24793 77.9259V121.478C5.24793 122.545 5.06245 123.616 4.60372 124.573C3.93165 125.976 3.52876 127.753 3.52876 129.689C3.52876 131.625 3.93165 133.402 4.60372 134.805C5.06258 135.762 5.24793 136.834 5.24793 137.901C5.24793 138.968 5.24793 153.257 5.24793 154.324C5.24793 155.391 5.06245 156.462 4.60372 157.42C3.93165 158.822 3.52876 160.599 3.52876 162.536C3.52876 164.472 3.93165 166.249 4.60372 167.651C5.06258 168.609 5.24793 169.68 5.24793 170.747V172.463C5.24793 172.463 5.17059 175.747 8.44725 175.747C11.7238 175.747 11.648 172.463 11.648 172.463V170.746C11.648 169.679 11.8333 168.608 12.292 167.651C12.964 166.248 13.3669 164.471 13.3669 162.536C13.3669 160.6 12.9641 158.823 12.292 157.42C11.8333 156.463 11.648 155.392 11.648 154.325V154.323C11.648 153.256 11.648 138.968 11.648 137.902V137.9C11.648 136.833 11.8333 135.762 12.292 134.805C12.964 133.402 13.3669 131.625 13.3669 129.689C13.3669 127.753 12.9641 125.977 12.292 124.574C11.8333 123.617 11.648 122.545 11.648 121.478V77.9258C11.648 77.2273 12.0138 76.5921 12.5953 76.2295C14.9041 74.7897 16.4478 72.1866 16.4478 69.2111C16.4478 66.7967 15.4323 64.6263 13.8161 63.1242C12.9815 62.3485 12.9815 60.9645 13.8161 60.1887C15.4322 58.6867 16.4478 56.5161 16.4478 54.1018C16.4478 51.6874 15.4323 49.5169 13.8161 48.0149C12.9815 47.2392 12.9815 45.8552 13.8161 45.0794C15.4322 43.5773 16.4478 41.4068 16.4478 38.9925C16.4478 36.5781 15.4323 34.4077 13.8161 32.9056C12.9815 32.1299 12.9815 30.7459 13.8161 29.9702C15.4323 28.468 16.4478 26.2975 16.4478 23.8832Z" fill="url(#paint0_linear_86_2663)"/>
<path d="M16.4478 23.8832C16.4478 21.4702 15.4335 19.3008 13.8187 17.7988C12.9855 17.0236 12.9556 15.693 13.7731 14.9006C14.9526 13.7571 16.4476 11.7561 16.4476 8.77404C16.4476 4.12909 12.7007 0.761719 8.44725 0.761719C4.19396 0.761588 0.447754 4.28996 0.447754 8.77392C0.447754 11.1883 1.46318 13.3587 3.07944 14.8609C3.91396 15.6365 3.91409 17.0205 3.07944 17.7963C1.46318 19.2983 0.447754 21.4688 0.447754 23.8832C0.447754 26.2976 1.46318 28.468 3.07944 29.9702C3.91396 30.7458 3.91396 32.1299 3.07944 32.9056C1.46318 34.4076 0.447754 36.5781 0.447754 38.9924C0.447754 41.4068 1.46318 43.5771 3.07944 45.0793C3.91396 45.8549 3.91396 47.239 3.07944 48.0147C1.46318 49.5169 0.447754 51.6874 0.447754 54.1017C0.447754 56.5159 1.46318 58.6864 3.07944 60.1886C3.91396 60.9642 3.91409 62.3483 3.07944 63.124C1.46318 64.6261 0.447754 66.7966 0.447754 69.211C0.447754 72.1866 1.99137 74.7898 4.30031 76.2295C4.88194 76.5921 5.24793 77.2275 5.24793 77.9259V121.478C5.24793 122.545 5.06245 123.616 4.60372 124.573C3.93165 125.976 3.52876 127.753 3.52876 129.689C3.52876 131.625 3.93165 133.402 4.60372 134.805C5.06258 135.762 5.24793 136.834 5.24793 137.901C5.24793 138.968 5.24793 153.257 5.24793 154.324C5.24793 155.391 5.06245 156.462 4.60372 157.42C3.93165 158.822 3.52876 160.599 3.52876 162.536C3.52876 164.472 3.93165 166.249 4.60372 167.651C5.06258 168.609 5.24793 169.68 5.24793 170.747V172.463C5.24793 172.463 5.17059 175.747 8.44725 175.747C11.7238 175.747 11.648 172.463 11.648 172.463V170.746C11.648 169.679 11.8333 168.608 12.292 167.651C12.964 166.248 13.3669 164.471 13.3669 162.536C13.3669 160.6 12.9641 158.823 12.292 157.42C11.8333 156.463 11.648 155.392 11.648 154.325V154.323C11.648 153.256 11.648 138.968 11.648 137.902V137.9C11.648 136.833 11.8333 135.762 12.292 134.805C12.964 133.402 13.3669 131.625 13.3669 129.689C13.3669 127.753 12.9641 125.977 12.292 124.574C11.8333 123.617 11.648 122.545 11.648 121.478V77.9258C11.648 77.2273 12.0138 76.5921 12.5953 76.2295C14.9041 74.7897 16.4478 72.1866 16.4478 69.2111C16.4478 66.7967 15.4323 64.6263 13.8161 63.1242C12.9815 62.3485 12.9815 60.9645 13.8161 60.1887C15.4322 58.6867 16.4478 56.5161 16.4478 54.1018C16.4478 51.6874 15.4323 49.5169 13.8161 48.0149C12.9815 47.2392 12.9815 45.8552 13.8161 45.0794C15.4322 43.5773 16.4478 41.4068 16.4478 38.9925C16.4478 36.5781 15.4323 34.4077 13.8161 32.9056C12.9815 32.1299 12.9815 30.7459 13.8161 29.9702C15.4323 28.468 16.4478 26.2975 16.4478 23.8832Z" fill="url(#paint1_linear_86_2663)"/>
<path d="M8.44793 137.901C11.1647 137.901 13.3671 134.224 13.3671 129.689C13.3671 125.154 11.1647 121.478 8.44793 121.478C5.73118 121.478 3.52881 125.154 3.52881 129.689C3.52881 134.224 5.73118 137.901 8.44793 137.901Z" fill="url(#paint2_radial_86_2663)"/>
<path d="M8.44793 170.747C11.1647 170.747 13.3671 167.071 13.3671 162.536C13.3671 158 11.1647 154.324 8.44793 154.324C5.73118 154.324 3.52881 158 3.52881 162.536C3.52881 167.071 5.73118 170.747 8.44793 170.747Z" fill="url(#paint3_radial_86_2663)"/>
<path d="M8.44775 99.7407C12.866 99.7407 16.4478 98.6362 16.4478 97.2737C16.4478 95.9112 12.866 94.8066 8.44775 94.8066C4.02948 94.8066 0.447754 95.9112 0.447754 97.2737C0.447754 98.6362 4.02948 99.7407 8.44775 99.7407Z" fill="url(#paint4_radial_86_2663)"/>
<path d="M8.44775 95.7405C12.866 95.7405 16.4478 94.6359 16.4478 93.2734C16.4478 91.9109 12.866 90.8064 8.44775 90.8064C4.02948 90.8064 0.447754 91.9109 0.447754 93.2734C0.447754 94.6359 4.02948 95.7405 8.44775 95.7405Z" fill="url(#paint5_radial_86_2663)"/>
<path d="M8.44775 91.7402C12.866 91.7402 16.4478 90.6357 16.4478 89.2732C16.4478 87.9107 12.866 86.8062 8.44775 86.8062C4.02948 86.8062 0.447754 87.9107 0.447754 89.2732C0.447754 90.6357 4.02948 91.7402 8.44775 91.7402Z" fill="url(#paint6_radial_86_2663)"/>
<path d="M8.44775 77.4832C12.866 77.4832 16.4478 73.8068 16.4478 69.2716C16.4478 64.7365 12.866 61.0601 8.44775 61.0601C4.02948 61.0601 0.447754 64.7365 0.447754 69.2716C0.447754 73.8068 4.02948 77.4832 8.44775 77.4832Z" fill="url(#paint7_radial_86_2663)"/>
<path d="M8.44775 62.263C12.866 62.263 16.4478 58.5866 16.4478 54.0514C16.4478 49.5163 12.866 45.8398 8.44775 45.8398C4.02948 45.8398 0.447754 49.5163 0.447754 54.0514C0.447754 58.5866 4.02948 62.263 8.44775 62.263Z" fill="url(#paint8_radial_86_2663)"/>
<path d="M8.44775 47.2064C12.866 47.2064 16.4478 43.5299 16.4478 38.9948C16.4478 34.4597 12.866 30.7832 8.44775 30.7832C4.02948 30.7832 0.447754 34.4597 0.447754 38.9948C0.447754 43.5299 4.02948 47.2064 8.44775 47.2064Z" fill="url(#paint9_radial_86_2663)"/>
<path d="M8.44775 32.0672C12.866 32.0672 16.4478 28.3908 16.4478 23.8556C16.4478 19.3205 12.866 15.644 8.44775 15.644C4.02948 15.644 0.447754 19.3205 0.447754 23.8556C0.447754 28.3908 4.02948 32.0672 8.44775 32.0672Z" fill="url(#paint10_radial_86_2663)"/>
<path d="M16.4478 8.77388C16.4478 4.23874 12.866 0.747314 8.44775 0.747314C4.02947 0.747314 0.447754 4.23874 0.447754 8.77388C0.447754 13.309 4.02947 16.9855 8.44775 16.9855C12.866 16.9855 16.4478 13.309 16.4478 8.77388Z" fill="url(#paint11_radial_86_2663)"/>
<defs>
<linearGradient id="paint0_linear_86_2663" x1="0.447778" y1="88.2546" x2="16.4478" y2="88.2546" gradientUnits="userSpaceOnUse">
<stop offset="0.2614" stop-color="#592963"/>
<stop offset="0.4165" stop-color="#09F5C1"/>
<stop offset="0.7435" stop-color="#592963"/>
</linearGradient>
<linearGradient id="paint1_linear_86_2663" x1="8.44775" y1="175.747" x2="8.44775" y2="0.761583" gradientUnits="userSpaceOnUse">
<stop offset="0.1196" stop-color="#592963"/>
<stop offset="0.1246" stop-color="#553267" stop-opacity="0.92"/>
<stop offset="0.1327" stop-color="#4C4A72" stop-opacity="0.7894"/>
<stop offset="0.1429" stop-color="#3C7285" stop-opacity="0.6245"/>
<stop offset="0.1548" stop-color="#27A99E" stop-opacity="0.4318"/>
<stop offset="0.1681" stop-color="#0BEFBE" stop-opacity="0.2178"/>
<stop offset="0.1692" stop-color="#09F5C1" stop-opacity="0.2"/>
<stop offset="0.1703" stop-color="#0BEFBE" stop-opacity="0.2178"/>
<stop offset="0.1839" stop-color="#27A99E" stop-opacity="0.4318"/>
<stop offset="0.1962" stop-color="#3C7285" stop-opacity="0.6245"/>
<stop offset="0.2068" stop-color="#4C4A72" stop-opacity="0.7894"/>
<stop offset="0.2151" stop-color="#553267" stop-opacity="0.92"/>
<stop offset="0.2202" stop-color="#592963"/>
<stop offset="0.2571" stop-color="#592963"/>
<stop offset="0.3017" stop-color="#592963"/>
<stop offset="0.3638" stop-color="#09F5C1" stop-opacity="0"/>
<stop offset="0.3692" stop-color="#13DBB5" stop-opacity="0.0775"/>
<stop offset="0.3817" stop-color="#28A59C" stop-opacity="0.2532"/>
<stop offset="0.3938" stop-color="#3A7988" stop-opacity="0.425"/>
<stop offset="0.4055" stop-color="#475678" stop-opacity="0.5892"/>
<stop offset="0.4164" stop-color="#513D6C" stop-opacity="0.7437"/>
<stop offset="0.4264" stop-color="#572E65" stop-opacity="0.8847"/>
<stop offset="0.4345" stop-color="#592963"/>
<stop offset="0.5039" stop-color="#09F5C1" stop-opacity="0"/>
<stop offset="0.5614" stop-color="#592963"/>
<stop offset="1" stop-color="#09F5C1" stop-opacity="0"/>
</linearGradient>
<radialGradient id="paint2_radial_86_2663" cx="0" cy="0" r="1" gradientUnits="userSpaceOnUse" gradientTransform="translate(6.57818 127.884) scale(4.91938 8.21164)">
<stop stop-color="#09F5C1"/>
<stop offset="1" stop-color="#592963"/>
</radialGradient>
<radialGradient id="paint3_radial_86_2663" cx="0" cy="0" r="1" gradientUnits="userSpaceOnUse" gradientTransform="translate(6.57818 160.73) scale(4.91938 8.21165)">
<stop stop-color="#09F5C1"/>
<stop offset="1" stop-color="#592963"/>
</radialGradient>
<radialGradient id="paint4_radial_86_2663" cx="0" cy="0" r="1" gradientUnits="userSpaceOnUse" gradientTransform="translate(5.40784 96.7247) scale(8.00005 2.46696)">
<stop stop-color="#09F5C1"/>
<stop offset="1" stop-color="#592963"/>
</radialGradient>
<radialGradient id="paint5_radial_86_2663" cx="0" cy="0" r="1" gradientUnits="userSpaceOnUse" gradientTransform="translate(5.40784 92.7246) scale(8.00005 2.46696)">
<stop stop-color="#09F5C1"/>
<stop offset="1" stop-color="#592963"/>
</radialGradient>
<radialGradient id="paint6_radial_86_2663" cx="0" cy="0" r="1" gradientUnits="userSpaceOnUse" gradientTransform="translate(5.40784 88.7245) scale(8.00005 2.46696)">
<stop stop-color="#09F5C1"/>
<stop offset="1" stop-color="#592963"/>
</radialGradient>
<radialGradient id="paint7_radial_86_2663" cx="0" cy="0" r="1" gradientUnits="userSpaceOnUse" gradientTransform="translate(5.40784 67.4656) scale(8.00005 8.21164)">
<stop stop-color="#09F5C1"/>
<stop offset="1" stop-color="#592963"/>
</radialGradient>
<radialGradient id="paint8_radial_86_2663" cx="0" cy="0" r="1" gradientUnits="userSpaceOnUse" gradientTransform="translate(5.40784 52.0811) scale(8.00005 8.21165)">
<stop stop-color="#09F5C1"/>
<stop offset="1" stop-color="#592963"/>
</radialGradient>
<radialGradient id="paint9_radial_86_2663" cx="0" cy="0" r="1" gradientUnits="userSpaceOnUse" gradientTransform="translate(5.72782 36.6958) scale(8.00005 8.21165)">
<stop stop-color="#09F5C1"/>
<stop offset="1" stop-color="#592963"/>
</radialGradient>
<radialGradient id="paint10_radial_86_2663" cx="0" cy="0" r="1" gradientUnits="userSpaceOnUse" gradientTransform="translate(5.88786 21.3922) scale(8.00005 8.21165)">
<stop stop-color="#09F5C1"/>
<stop offset="1" stop-color="#592963"/>
</radialGradient>
<radialGradient id="paint11_radial_86_2663" cx="0" cy="0" r="1" gradientUnits="userSpaceOnUse" gradientTransform="translate(5.88786 6.40289) scale(7.95517 8.16557)">
<stop stop-color="#09F5C1"/>
<stop offset="1" stop-color="#592963"/>
</radialGradient>
</defs>
</svg>
