<svg width="62" height="24" viewBox="0 0 62 24" fill="none" xmlns="http://www.w3.org/2000/svg">
<rect x="2" y="1.98901" width="59" height="20" rx="10" fill="url(#paint0_linear_46_4304)"/>
<rect x="2" y="1.98901" width="59" height="20" rx="10" stroke="#FF5200" stroke-width="3" stroke-linejoin="round"/>
<path d="M10.0371 15.989V7.39917H11.7715V10.78H15.1699V7.39917H16.9043V15.989H15.1699V12.2332H11.7715V15.989H10.0371ZM18.3516 11.7468C18.3516 10.8718 18.4824 10.1375 18.7441 9.5437C18.9395 9.1062 19.2051 8.71362 19.541 8.36597C19.8809 8.01831 20.252 7.7605 20.6543 7.59253C21.1895 7.36597 21.8066 7.25269 22.5059 7.25269C23.7715 7.25269 24.7832 7.64526 25.541 8.43042C26.3027 9.21558 26.6836 10.3074 26.6836 11.7058C26.6836 13.0925 26.3066 14.1785 25.5527 14.9636C24.7988 15.7449 23.791 16.1355 22.5293 16.1355C21.252 16.1355 20.2363 15.7468 19.4824 14.9695C18.7285 14.1882 18.3516 13.114 18.3516 11.7468ZM20.1387 11.6882C20.1387 12.6609 20.3633 13.3992 20.8125 13.9031C21.2617 14.4031 21.832 14.6531 22.5234 14.6531C23.2148 14.6531 23.7812 14.405 24.2227 13.9089C24.668 13.4089 24.8906 12.6609 24.8906 11.6648C24.8906 10.6804 24.6738 9.94604 24.2402 9.46167C23.8105 8.97729 23.2383 8.73511 22.5234 8.73511C21.8086 8.73511 21.2324 8.9812 20.7949 9.47339C20.3574 9.96167 20.1387 10.7 20.1387 11.6882ZM28.0195 15.989V7.39917H30.6152L32.1738 13.2585L33.7148 7.39917H36.3164V15.989H34.7051V9.22729L33 15.989H31.3301L29.6309 9.22729V15.989H28.0195ZM38.0391 15.989V7.39917H44.4082V8.85229H39.7734V10.7566H44.0859V12.2039H39.7734V14.5417H44.5723V15.989H38.0391ZM46.0488 15.989V7.39917H49.6992C50.6172 7.39917 51.2832 7.47729 51.6973 7.63354C52.1152 7.78589 52.4492 8.05933 52.6992 8.45386C52.9492 8.84839 53.0742 9.29956 53.0742 9.80737C53.0742 10.4519 52.8848 10.9851 52.5059 11.407C52.127 11.825 51.5605 12.0886 50.8066 12.198C51.1816 12.4167 51.4902 12.657 51.7324 12.9187C51.9785 13.1804 52.3086 13.6453 52.7227 14.3132L53.7715 15.989H51.6973L50.4434 14.1199C49.998 13.4519 49.6934 13.032 49.5293 12.8601C49.3652 12.6843 49.1914 12.5652 49.0078 12.5027C48.8242 12.4363 48.5332 12.4031 48.1348 12.4031H47.7832V15.989H46.0488ZM47.7832 11.032H49.0664C49.8984 11.032 50.418 10.9968 50.625 10.9265C50.832 10.8562 50.9941 10.7351 51.1113 10.5632C51.2285 10.3914 51.2871 10.1765 51.2871 9.9187C51.2871 9.62964 51.209 9.39722 51.0527 9.22144C50.9004 9.04175 50.6836 8.92847 50.4023 8.88159C50.2617 8.86206 49.8398 8.85229 49.1367 8.85229H47.7832V11.032Z" fill="white"/>
<defs>
<linearGradient id="paint0_linear_46_4304" x1="31.5" y1="1.98901" x2="31.5" y2="21.989" gradientUnits="userSpaceOnUse">
<stop stop-color="#FF5200"/>
<stop offset="1" stop-color="#D8D369"/>
</linearGradient>
</defs>
</svg>
