<svg width="60" height="24" viewBox="0 0 60 24" fill="none" xmlns="http://www.w3.org/2000/svg">
<rect x="2" y="1.98901" width="57" height="20" rx="10" fill="url(#paint0_linear_40_2528)"/>
<rect x="2" y="1.98901" width="57" height="20" rx="10" stroke="#69330E" stroke-width="3" stroke-linejoin="round"/>
<path d="M15.5234 12.8308L17.2051 13.364C16.9473 14.3015 16.5176 14.9988 15.916 15.4558C15.3184 15.9089 14.5586 16.1355 13.6367 16.1355C12.4961 16.1355 11.5586 15.7468 10.8242 14.9695C10.0898 14.1882 9.72266 13.1218 9.72266 11.7703C9.72266 10.3406 10.0918 9.2312 10.8301 8.44214C11.5684 7.64917 12.5391 7.25269 13.7422 7.25269C14.793 7.25269 15.6465 7.56323 16.3027 8.18433C16.6934 8.55151 16.9863 9.07886 17.1816 9.76636L15.4648 10.1765C15.3633 9.7312 15.1504 9.37964 14.8262 9.12183C14.5059 8.86401 14.1152 8.73511 13.6543 8.73511C13.0176 8.73511 12.5 8.96362 12.1016 9.42065C11.707 9.87769 11.5098 10.6179 11.5098 11.6414C11.5098 12.7273 11.7051 13.5007 12.0957 13.9617C12.4863 14.4226 12.9941 14.6531 13.6191 14.6531C14.0801 14.6531 14.4766 14.5066 14.8086 14.2136C15.1406 13.9207 15.3789 13.4597 15.5234 12.8308ZM18.7461 15.989V7.46948H20.4805V14.5417H24.793V15.989H18.7461ZM25.6836 11.7468C25.6836 10.8718 25.8145 10.1375 26.0762 9.5437C26.2715 9.1062 26.5371 8.71362 26.873 8.36597C27.2129 8.01831 27.584 7.7605 27.9863 7.59253C28.5215 7.36597 29.1387 7.25269 29.8379 7.25269C31.1035 7.25269 32.1152 7.64526 32.873 8.43042C33.6348 9.21558 34.0156 10.3074 34.0156 11.7058C34.0156 13.0925 33.6387 14.1785 32.8848 14.9636C32.1309 15.7449 31.123 16.1355 29.8613 16.1355C28.584 16.1355 27.5684 15.7468 26.8145 14.9695C26.0605 14.1882 25.6836 13.114 25.6836 11.7468ZM27.4707 11.6882C27.4707 12.6609 27.6953 13.3992 28.1445 13.9031C28.5938 14.4031 29.1641 14.6531 29.8555 14.6531C30.5469 14.6531 31.1133 14.405 31.5547 13.9089C32 13.4089 32.2227 12.6609 32.2227 11.6648C32.2227 10.6804 32.0059 9.94604 31.5723 9.46167C31.1426 8.97729 30.5703 8.73511 29.8555 8.73511C29.1406 8.73511 28.5645 8.9812 28.127 9.47339C27.6895 9.96167 27.4707 10.7 27.4707 11.6882ZM40.8711 12.8308L42.5527 13.364C42.2949 14.3015 41.8652 14.9988 41.2637 15.4558C40.666 15.9089 39.9062 16.1355 38.9844 16.1355C37.8438 16.1355 36.9062 15.7468 36.1719 14.9695C35.4375 14.1882 35.0703 13.1218 35.0703 11.7703C35.0703 10.3406 35.4395 9.2312 36.1777 8.44214C36.916 7.64917 37.8867 7.25269 39.0898 7.25269C40.1406 7.25269 40.9941 7.56323 41.6504 8.18433C42.041 8.55151 42.334 9.07886 42.5293 9.76636L40.8125 10.1765C40.7109 9.7312 40.498 9.37964 40.1738 9.12183C39.8535 8.86401 39.4629 8.73511 39.002 8.73511C38.3652 8.73511 37.8477 8.96362 37.4492 9.42065C37.0547 9.87769 36.8574 10.6179 36.8574 11.6414C36.8574 12.7273 37.0527 13.5007 37.4434 13.9617C37.834 14.4226 38.3418 14.6531 38.9668 14.6531C39.4277 14.6531 39.8242 14.5066 40.1562 14.2136C40.4883 13.9207 40.7266 13.4597 40.8711 12.8308ZM44.0703 15.989V7.39917H45.8047V11.2136L49.3086 7.39917H51.6406L48.4062 10.7449L51.8164 15.989H49.5723L47.2109 11.9578L45.8047 13.3933V15.989H44.0703Z" fill="white"/>
<defs>
<linearGradient id="paint0_linear_40_2528" x1="30.5" y1="1.98901" x2="30.5" y2="21.989" gradientUnits="userSpaceOnUse">
<stop stop-color="#F5B221"/>
<stop offset="1" stop-color="#69330E"/>
</linearGradient>
</defs>
</svg>
