<svg width="42" height="24" viewBox="0 0 42 24" fill="none" xmlns="http://www.w3.org/2000/svg">
<rect x="2" y="1.98901" width="39" height="20" rx="10" fill="url(#paint0_linear_83_1971)"/>
<rect x="2" y="1.98901" width="39" height="20" rx="10" stroke="#3A98FF" stroke-width="3" stroke-linejoin="round"/>
<path d="M9.59375 13.1941L11.2812 13.03C11.3828 13.5964 11.5879 14.0125 11.8965 14.2781C12.209 14.5437 12.6289 14.6765 13.1562 14.6765C13.7148 14.6765 14.1348 14.5593 14.416 14.325C14.7012 14.0867 14.8438 13.8093 14.8438 13.4929C14.8438 13.2898 14.7832 13.1179 14.6621 12.9773C14.5449 12.8328 14.3379 12.7078 14.041 12.6023C13.8379 12.532 13.375 12.407 12.6523 12.2273C11.7227 11.9968 11.0703 11.7136 10.6953 11.3777C10.168 10.905 9.9043 10.3289 9.9043 9.64917C9.9043 9.21167 10.0273 8.80347 10.2734 8.42456C10.5234 8.04175 10.8809 7.75073 11.3457 7.55151C11.8145 7.35229 12.3789 7.25269 13.0391 7.25269C14.1172 7.25269 14.9277 7.48901 15.4707 7.96167C16.0176 8.43433 16.3047 9.06519 16.332 9.85425L14.5977 9.93042C14.5234 9.48901 14.3633 9.17261 14.1172 8.9812C13.875 8.78589 13.5098 8.68823 13.0215 8.68823C12.5176 8.68823 12.123 8.79175 11.8379 8.99878C11.6543 9.13159 11.5625 9.30933 11.5625 9.53198C11.5625 9.73511 11.6484 9.90894 11.8203 10.0535C12.0391 10.2371 12.5703 10.4285 13.4141 10.6277C14.2578 10.8269 14.8809 11.0339 15.2832 11.2488C15.6895 11.4597 16.0059 11.7507 16.2324 12.1218C16.4629 12.489 16.5781 12.9441 16.5781 13.4871C16.5781 13.9792 16.4414 14.4402 16.168 14.8699C15.8945 15.2996 15.5078 15.6199 15.0078 15.8308C14.5078 16.0378 13.8848 16.1414 13.1387 16.1414C12.0527 16.1414 11.2188 15.8914 10.6367 15.3914C10.0547 14.8875 9.70703 14.155 9.59375 13.1941ZM20.293 15.989V12.3738L17.1465 7.39917H19.1797L21.2012 10.7976L23.1816 7.39917H25.1797L22.0215 12.3855V15.989H20.293ZM26.0645 15.989V7.39917H27.7988V11.2136L31.3027 7.39917H33.6348L30.4004 10.7449L33.8105 15.989H31.5664L29.2051 11.9578L27.7988 13.3933V15.989H26.0645Z" fill="white"/>
<defs>
<linearGradient id="paint0_linear_83_1971" x1="21.5" y1="1.98901" x2="21.5" y2="21.989" gradientUnits="userSpaceOnUse">
<stop stop-color="#3A98FF"/>
<stop offset="1" stop-color="#B84384"/>
</linearGradient>
</defs>
</svg>
