<svg width="53" height="24" viewBox="0 0 53 24" fill="none" xmlns="http://www.w3.org/2000/svg">
<rect x="2" y="1.98901" width="50" height="20" rx="10" fill="url(#paint0_linear_63_1801)"/>
<rect x="2" y="1.98901" width="50" height="20" rx="10" stroke="#B5C700" stroke-width="3" stroke-linejoin="round"/>
<path d="M9.83789 9.76636H11.3555V10.616C11.8984 9.95581 12.5449 9.62573 13.2949 9.62573C13.6934 9.62573 14.0391 9.70776 14.332 9.87183C14.625 10.0359 14.8652 10.2839 15.0527 10.616C15.3262 10.2839 15.6211 10.0359 15.9375 9.87183C16.2539 9.70776 16.5918 9.62573 16.9512 9.62573C17.4082 9.62573 17.7949 9.71948 18.1113 9.90698C18.4277 10.0906 18.6641 10.3621 18.8203 10.7214C18.9336 10.9871 18.9902 11.4167 18.9902 12.0105V15.989H17.3438V12.4324C17.3438 11.8152 17.2871 11.4167 17.1738 11.2371C17.0215 11.0027 16.7871 10.8855 16.4707 10.8855C16.2402 10.8855 16.0234 10.9558 15.8203 11.0964C15.6172 11.2371 15.4707 11.4441 15.3809 11.7175C15.291 11.9871 15.2461 12.4148 15.2461 13.0007V15.989H13.5996V12.5789C13.5996 11.9734 13.5703 11.5828 13.5117 11.407C13.4531 11.2312 13.3613 11.1003 13.2363 11.0144C13.1152 10.9285 12.9492 10.8855 12.7383 10.8855C12.4844 10.8855 12.2559 10.9539 12.0527 11.0906C11.8496 11.2273 11.7031 11.4246 11.6133 11.6824C11.5273 11.9402 11.4844 12.3679 11.4844 12.9656V15.989H9.83789V9.76636ZM22.582 15.989V8.85229H20.0332V7.39917H26.8594V8.85229H24.3164V15.989H22.582ZM27.4102 11.7468C27.4102 10.8718 27.541 10.1375 27.8027 9.5437C27.998 9.1062 28.2637 8.71362 28.5996 8.36597C28.9395 8.01831 29.3105 7.7605 29.7129 7.59253C30.248 7.36597 30.8652 7.25269 31.5645 7.25269C32.8301 7.25269 33.8418 7.64526 34.5996 8.43042C35.3613 9.21558 35.7422 10.3074 35.7422 11.7058C35.7422 13.0925 35.3652 14.1785 34.6113 14.9636C33.8574 15.7449 32.8496 16.1355 31.5879 16.1355C30.3105 16.1355 29.2949 15.7468 28.541 14.9695C27.7871 14.1882 27.4102 13.114 27.4102 11.7468ZM29.1973 11.6882C29.1973 12.6609 29.4219 13.3992 29.8711 13.9031C30.3203 14.4031 30.8906 14.6531 31.582 14.6531C32.2734 14.6531 32.8398 14.405 33.2812 13.9089C33.7266 13.4089 33.9492 12.6609 33.9492 11.6648C33.9492 10.6804 33.7324 9.94604 33.2988 9.46167C32.8691 8.97729 32.2969 8.73511 31.582 8.73511C30.8672 8.73511 30.291 8.9812 29.8535 9.47339C29.416 9.96167 29.1973 10.7 29.1973 11.6882ZM37.1074 15.989V7.39917H40.7578C41.6758 7.39917 42.3418 7.47729 42.7559 7.63354C43.1738 7.78589 43.5078 8.05933 43.7578 8.45386C44.0078 8.84839 44.1328 9.29956 44.1328 9.80737C44.1328 10.4519 43.9434 10.9851 43.5645 11.407C43.1855 11.825 42.6191 12.0886 41.8652 12.198C42.2402 12.4167 42.5488 12.657 42.791 12.9187C43.0371 13.1804 43.3672 13.6453 43.7812 14.3132L44.8301 15.989H42.7559L41.502 14.1199C41.0566 13.4519 40.752 13.032 40.5879 12.8601C40.4238 12.6843 40.25 12.5652 40.0664 12.5027C39.8828 12.4363 39.5918 12.4031 39.1934 12.4031H38.8418V15.989H37.1074ZM38.8418 11.032H40.125C40.957 11.032 41.4766 10.9968 41.6836 10.9265C41.8906 10.8562 42.0527 10.7351 42.1699 10.5632C42.2871 10.3914 42.3457 10.1765 42.3457 9.9187C42.3457 9.62964 42.2676 9.39722 42.1113 9.22144C41.959 9.04175 41.7422 8.92847 41.4609 8.88159C41.3203 8.86206 40.8984 8.85229 40.1953 8.85229H38.8418V11.032Z" fill="white"/>
<defs>
<linearGradient id="paint0_linear_63_1801" x1="27" y1="1.98901" x2="27" y2="21.989" gradientUnits="userSpaceOnUse">
<stop stop-color="#B5C700"/>
<stop offset="1" stop-color="#E04000"/>
</linearGradient>
</defs>
</svg>
