<svg width="43" height="44" viewBox="0 0 43 44" fill="none" xmlns="http://www.w3.org/2000/svg">
<path d="M21.4783 1.48901C32.9219 1.48926 42.2302 10.7996 42.2302 22.2419C42.2302 33.6844 32.9211 42.9929 21.4773 42.9929C10.0351 42.9927 0.726389 33.6856 0.726318 22.2419C0.726318 10.7981 10.0358 1.48901 21.4783 1.48901Z" fill="url(#paint0_radial_89_4115)" stroke="#0B1F3F"/>
<path d="M10.0467 25.989V17.3992H11.7811V25.989H10.0467ZM13.4861 25.989V17.4695H15.2205V24.5417H19.533V25.989H13.4861ZM24.6248 25.989H22.9783V19.7839C22.3768 20.3464 21.6678 20.7625 20.8514 21.032V19.5378C21.2811 19.3972 21.7479 19.1316 22.2518 18.741C22.7557 18.3464 23.1014 17.8875 23.2889 17.364H24.6248V25.989ZM32.6522 24.4597V25.989H26.8807C26.9432 25.4109 27.1307 24.864 27.4432 24.3484C27.7557 23.8289 28.3729 23.1414 29.2947 22.2859C30.0369 21.5945 30.492 21.1257 30.66 20.8796C30.8865 20.5398 30.9998 20.2039 30.9998 19.8718C30.9998 19.5046 30.9002 19.2234 30.701 19.0281C30.5057 18.8289 30.2342 18.7292 29.8865 18.7292C29.5428 18.7292 29.2693 18.8328 29.0662 19.0398C28.8631 19.2468 28.7459 19.5906 28.7147 20.071L27.074 19.907C27.1717 19.0007 27.4783 18.3503 27.994 17.9558C28.5096 17.5613 29.1541 17.364 29.9276 17.364C30.7752 17.364 31.4412 17.5925 31.9256 18.0496C32.41 18.5066 32.6522 19.075 32.6522 19.7546C32.6522 20.1414 32.5818 20.5105 32.4412 20.8621C32.3045 21.2097 32.0858 21.575 31.785 21.9578C31.5858 22.2117 31.2264 22.5769 30.7068 23.0535C30.1873 23.53 29.8572 23.8464 29.7166 24.0027C29.5799 24.1589 29.4686 24.3113 29.3826 24.4597H32.6522Z" fill="white"/>
<defs>
<radialGradient id="paint0_radial_89_4115" cx="0" cy="0" r="1" gradientUnits="userSpaceOnUse" gradientTransform="translate(17.0057 14.0023) scale(19.3962)">
<stop stop-color="#E57A83"/>
<stop offset="0.9995" stop-color="#4E4472"/>
</radialGradient>
</defs>
</svg>
