<svg width="46" height="24" viewBox="0 0 46 24" fill="none" xmlns="http://www.w3.org/2000/svg">
<rect x="2" y="1.98901" width="43" height="20" rx="10" fill="url(#paint0_linear_40_2532)"/>
<rect x="2" y="1.98901" width="43" height="20" rx="10" stroke="#8D2106" stroke-width="3" stroke-linejoin="round"/>
<path d="M15.5254 12.8308L17.207 13.364C16.9492 14.3015 16.5195 14.9988 15.918 15.4558C15.3203 15.9089 14.5605 16.1355 13.6387 16.1355C12.498 16.1355 11.5605 15.7468 10.8262 14.9695C10.0918 14.1882 9.72461 13.1218 9.72461 11.7703C9.72461 10.3406 10.0938 9.2312 10.832 8.44214C11.5703 7.64917 12.541 7.25269 13.7441 7.25269C14.7949 7.25269 15.6484 7.56323 16.3047 8.18433C16.6953 8.55151 16.9883 9.07886 17.1836 9.76636L15.4668 10.1765C15.3652 9.7312 15.1523 9.37964 14.8281 9.12183C14.5078 8.86401 14.1172 8.73511 13.6562 8.73511C13.0195 8.73511 12.502 8.96362 12.1035 9.42065C11.709 9.87769 11.5117 10.6179 11.5117 11.6414C11.5117 12.7273 11.707 13.5007 12.0977 13.9617C12.4883 14.4226 12.9961 14.6531 13.6211 14.6531C14.082 14.6531 14.4785 14.5066 14.8105 14.2136C15.1426 13.9207 15.3809 13.4597 15.5254 12.8308ZM18.6484 15.989V7.39917H20.3828V15.989H18.6484ZM22.0645 15.989V7.39917H23.7988V11.2136L27.3027 7.39917H29.6348L26.4004 10.7449L29.8105 15.989H27.5664L25.2051 11.9578L23.7988 13.3933V15.989H22.0645ZM30.2734 13.1941L31.9609 13.03C32.0625 13.5964 32.2676 14.0125 32.5762 14.2781C32.8887 14.5437 33.3086 14.6765 33.8359 14.6765C34.3945 14.6765 34.8145 14.5593 35.0957 14.325C35.3809 14.0867 35.5234 13.8093 35.5234 13.4929C35.5234 13.2898 35.4629 13.1179 35.3418 12.9773C35.2246 12.8328 35.0176 12.7078 34.7207 12.6023C34.5176 12.532 34.0547 12.407 33.332 12.2273C32.4023 11.9968 31.75 11.7136 31.375 11.3777C30.8477 10.905 30.584 10.3289 30.584 9.64917C30.584 9.21167 30.707 8.80347 30.9531 8.42456C31.2031 8.04175 31.5605 7.75073 32.0254 7.55151C32.4941 7.35229 33.0586 7.25269 33.7188 7.25269C34.7969 7.25269 35.6074 7.48901 36.1504 7.96167C36.6973 8.43433 36.9844 9.06519 37.0117 9.85425L35.2773 9.93042C35.2031 9.48901 35.043 9.17261 34.7969 8.9812C34.5547 8.78589 34.1895 8.68823 33.7012 8.68823C33.1973 8.68823 32.8027 8.79175 32.5176 8.99878C32.334 9.13159 32.2422 9.30933 32.2422 9.53198C32.2422 9.73511 32.3281 9.90894 32.5 10.0535C32.7188 10.2371 33.25 10.4285 34.0938 10.6277C34.9375 10.8269 35.5605 11.0339 35.9629 11.2488C36.3691 11.4597 36.6855 11.7507 36.9121 12.1218C37.1426 12.489 37.2578 12.9441 37.2578 13.4871C37.2578 13.9792 37.1211 14.4402 36.8477 14.8699C36.5742 15.2996 36.1875 15.6199 35.6875 15.8308C35.1875 16.0378 34.5645 16.1414 33.8184 16.1414C32.7324 16.1414 31.8984 15.8914 31.3164 15.3914C30.7344 14.8875 30.3867 14.155 30.2734 13.1941Z" fill="white"/>
<defs>
<linearGradient id="paint0_linear_40_2532" x1="23.5" y1="1.98901" x2="23.5" y2="21.989" gradientUnits="userSpaceOnUse">
<stop stop-color="#8D2106"/>
<stop offset="1" stop-color="#95A551"/>
</linearGradient>
</defs>
</svg>
