<svg width="50" height="24" viewBox="0 0 50 24" fill="none" xmlns="http://www.w3.org/2000/svg">
<rect x="2" y="1.98901" width="47" height="20" rx="10" fill="url(#paint0_linear_67_1830)"/>
<rect x="2" y="1.98901" width="47" height="20" rx="10" stroke="#3D3DD6" stroke-width="3" stroke-linejoin="round"/>
<path d="M10.3652 15.989V7.39917H14.0156C14.9336 7.39917 15.5996 7.47729 16.0137 7.63354C16.4316 7.78589 16.7656 8.05933 17.0156 8.45386C17.2656 8.84839 17.3906 9.29956 17.3906 9.80737C17.3906 10.4519 17.2012 10.9851 16.8223 11.407C16.4434 11.825 15.877 12.0886 15.123 12.198C15.498 12.4167 15.8066 12.657 16.0488 12.9187C16.2949 13.1804 16.625 13.6453 17.0391 14.3132L18.0879 15.989H16.0137L14.7598 14.1199C14.3145 13.4519 14.0098 13.032 13.8457 12.8601C13.6816 12.6843 13.5078 12.5652 13.3242 12.5027C13.1406 12.4363 12.8496 12.4031 12.4512 12.4031H12.0996V15.989H10.3652ZM12.0996 11.032H13.3828C14.2148 11.032 14.7344 10.9968 14.9414 10.9265C15.1484 10.8562 15.3105 10.7351 15.4277 10.5632C15.5449 10.3914 15.6035 10.1765 15.6035 9.9187C15.6035 9.62964 15.5254 9.39722 15.3691 9.22144C15.2168 9.04175 15 8.92847 14.7188 8.88159C14.5781 8.86206 14.1562 8.85229 13.4531 8.85229H12.0996V11.032ZM19.0371 7.39917H22.4707C23.1504 7.39917 23.6562 7.42847 23.9883 7.48706C24.3242 7.54175 24.623 7.65894 24.8848 7.83862C25.1504 8.01831 25.3711 8.25854 25.5469 8.55933C25.7227 8.8562 25.8105 9.19019 25.8105 9.56128C25.8105 9.96362 25.7012 10.3328 25.4824 10.6687C25.2676 11.0046 24.9746 11.2566 24.6035 11.4246C25.127 11.5769 25.5293 11.8367 25.8105 12.2039C26.0918 12.571 26.2324 13.0027 26.2324 13.4988C26.2324 13.8894 26.1406 14.2703 25.957 14.6414C25.7773 15.0085 25.5293 15.3035 25.2129 15.5261C24.9004 15.7449 24.5137 15.8796 24.0527 15.9304C23.7637 15.9617 23.0664 15.9812 21.9609 15.989H19.0371V7.39917ZM20.7715 8.82886V10.8152H21.9082C22.584 10.8152 23.0039 10.8054 23.168 10.7859C23.4648 10.7507 23.6973 10.6492 23.8652 10.4812C24.0371 10.3093 24.123 10.0847 24.123 9.80737C24.123 9.54175 24.0488 9.3269 23.9004 9.16284C23.7559 8.99487 23.5391 8.89331 23.25 8.85815C23.0781 8.83862 22.584 8.82886 21.7676 8.82886H20.7715ZM20.7715 12.2449V14.5417H22.377C23.002 14.5417 23.3984 14.5242 23.5664 14.489C23.8242 14.4421 24.0332 14.3289 24.1934 14.1492C24.3574 13.9656 24.4395 13.7214 24.4395 13.4167C24.4395 13.1589 24.377 12.9402 24.252 12.7605C24.127 12.5808 23.9453 12.45 23.707 12.3679C23.4727 12.2859 22.9609 12.2449 22.1719 12.2449H20.7715ZM27.7031 15.989V7.39917H30.4863C31.541 7.39917 32.2285 7.44214 32.5488 7.52808C33.041 7.65698 33.4531 7.93823 33.7852 8.37183C34.1172 8.80151 34.2832 9.35815 34.2832 10.0417C34.2832 10.5691 34.1875 11.0125 33.9961 11.3718C33.8047 11.7312 33.5605 12.0144 33.2637 12.2214C32.9707 12.4246 32.6719 12.5593 32.3672 12.6257C31.9531 12.7078 31.3535 12.7488 30.5684 12.7488H29.4375V15.989H27.7031ZM29.4375 8.85229V11.2898H30.3867C31.0703 11.2898 31.5273 11.2449 31.7578 11.155C31.9883 11.0652 32.168 10.9246 32.2969 10.7332C32.4297 10.5417 32.4961 10.3191 32.4961 10.0652C32.4961 9.75269 32.4043 9.49487 32.2207 9.29175C32.0371 9.08862 31.8047 8.96167 31.5234 8.91089C31.3164 8.87183 30.9004 8.85229 30.2754 8.85229H29.4375ZM38.5723 15.989V14.2605H35.0566V12.8191L38.7832 7.36401H40.166V12.8132H41.2324V14.2605H40.166V15.989H38.5723ZM38.5723 12.8132V9.87769L36.5977 12.8132H38.5723Z" fill="white"/>
<defs>
<linearGradient id="paint0_linear_67_1830" x1="25.5" y1="1.98901" x2="25.5" y2="21.989" gradientUnits="userSpaceOnUse">
<stop stop-color="#A5C426"/>
<stop offset="1" stop-color="#3D3DD6"/>
</linearGradient>
</defs>
</svg>
