<svg width="57" height="24" viewBox="0 0 57 24" fill="none" xmlns="http://www.w3.org/2000/svg">
<rect x="2" y="1.98901" width="54" height="20" rx="10" fill="url(#paint0_linear_67_1862)"/>
<rect x="2" y="1.98901" width="54" height="20" rx="10" stroke="#933DB2" stroke-width="3" stroke-linejoin="round"/>
<path d="M10.1914 15.989V7.39917H13.8418C14.7598 7.39917 15.4258 7.47729 15.8398 7.63354C16.2578 7.78589 16.5918 8.05933 16.8418 8.45386C17.0918 8.84839 17.2168 9.29956 17.2168 9.80737C17.2168 10.4519 17.0273 10.9851 16.6484 11.407C16.2695 11.825 15.7031 12.0886 14.9492 12.198C15.3242 12.4167 15.6328 12.657 15.875 12.9187C16.1211 13.1804 16.4512 13.6453 16.8652 14.3132L17.9141 15.989H15.8398L14.5859 14.1199C14.1406 13.4519 13.8359 13.032 13.6719 12.8601C13.5078 12.6843 13.334 12.5652 13.1504 12.5027C12.9668 12.4363 12.6758 12.4031 12.2773 12.4031H11.9258V15.989H10.1914ZM11.9258 11.032H13.209C14.041 11.032 14.5605 10.9968 14.7676 10.9265C14.9746 10.8562 15.1367 10.7351 15.2539 10.5632C15.3711 10.3914 15.4297 10.1765 15.4297 9.9187C15.4297 9.62964 15.3516 9.39722 15.1953 9.22144C15.043 9.04175 14.8262 8.92847 14.5449 8.88159C14.4043 8.86206 13.9824 8.85229 13.2793 8.85229H11.9258V11.032ZM18.8516 7.39917H22.0215C22.7363 7.39917 23.2812 7.45386 23.6562 7.56323C24.1602 7.71167 24.5918 7.97534 24.9512 8.35425C25.3105 8.73315 25.584 9.198 25.7715 9.74878C25.959 10.2957 26.0527 10.9714 26.0527 11.7761C26.0527 12.4832 25.9648 13.0925 25.7891 13.6042C25.5742 14.2292 25.2676 14.7351 24.8691 15.1218C24.5684 15.4148 24.1621 15.6433 23.6504 15.8074C23.2676 15.9285 22.7559 15.989 22.1152 15.989H18.8516V7.39917ZM20.5859 8.85229V14.5417H21.8809C22.3652 14.5417 22.7148 14.5144 22.9297 14.4597C23.2109 14.3894 23.4434 14.2703 23.627 14.1023C23.8145 13.9343 23.9668 13.6589 24.084 13.2761C24.2012 12.8894 24.2598 12.364 24.2598 11.7C24.2598 11.0359 24.2012 10.5261 24.084 10.1707C23.9668 9.81519 23.8027 9.53784 23.5918 9.33862C23.3809 9.1394 23.1133 9.00464 22.7891 8.93433C22.5469 8.87964 22.0723 8.85229 21.3652 8.85229H20.5859ZM27.5352 15.989V7.39917H29.2695V10.78H32.668V7.39917H34.4023V15.989H32.668V12.2332H29.2695V15.989H27.5352ZM40.0508 15.989H38.4043V9.78394C37.8027 10.3464 37.0938 10.7625 36.2773 11.032V9.53784C36.707 9.39722 37.1738 9.13159 37.6777 8.74097C38.1816 8.34644 38.5273 7.88745 38.7148 7.36401H40.0508V15.989ZM48.0781 14.4597V15.989H42.3066C42.3691 15.4109 42.5566 14.864 42.8691 14.3484C43.1816 13.8289 43.7988 13.1414 44.7207 12.2859C45.4629 11.5945 45.918 11.1257 46.0859 10.8796C46.3125 10.5398 46.4258 10.2039 46.4258 9.87183C46.4258 9.50464 46.3262 9.22339 46.127 9.02808C45.9316 8.82886 45.6602 8.72925 45.3125 8.72925C44.9688 8.72925 44.6953 8.83276 44.4922 9.03979C44.2891 9.24683 44.1719 9.59058 44.1406 10.071L42.5 9.90698C42.5977 9.00073 42.9043 8.35034 43.4199 7.95581C43.9355 7.56128 44.5801 7.36401 45.3535 7.36401C46.2012 7.36401 46.8672 7.59253 47.3516 8.04956C47.8359 8.50659 48.0781 9.07495 48.0781 9.75464C48.0781 10.1414 48.0078 10.5105 47.8672 10.8621C47.7305 11.2097 47.5117 11.575 47.2109 11.9578C47.0117 12.2117 46.6523 12.5769 46.1328 13.0535C45.6133 13.53 45.2832 13.8464 45.1426 14.0027C45.0059 14.1589 44.8945 14.3113 44.8086 14.4597H48.0781Z" fill="white"/>
<defs>
<linearGradient id="paint0_linear_67_1862" x1="29" y1="1.98901" x2="29" y2="21.989" gradientUnits="userSpaceOnUse">
<stop stop-color="#A5C426"/>
<stop offset="1" stop-color="#933DB2"/>
</linearGradient>
</defs>
</svg>
