<svg width="64" height="24" viewBox="0 0 64 24" fill="none" xmlns="http://www.w3.org/2000/svg">
<rect x="2" y="1.98901" width="61" height="20" rx="10" fill="url(#paint0_linear_84_2024)"/>
<rect x="2" y="1.98901" width="61" height="20" rx="10" stroke="#2C56CE" stroke-width="3" stroke-linejoin="round"/>
<path d="M11.957 15.989V8.85229H9.4082V7.39917H16.2344V8.85229H13.6914V15.989H11.957ZM17.3652 15.989V7.39917H21.0156C21.9336 7.39917 22.5996 7.47729 23.0137 7.63354C23.4316 7.78589 23.7656 8.05933 24.0156 8.45386C24.2656 8.84839 24.3906 9.29956 24.3906 9.80737C24.3906 10.4519 24.2012 10.9851 23.8223 11.407C23.4434 11.825 22.877 12.0886 22.123 12.198C22.498 12.4167 22.8066 12.657 23.0488 12.9187C23.2949 13.1804 23.625 13.6453 24.0391 14.3132L25.0879 15.989H23.0137L21.7598 14.1199C21.3145 13.4519 21.0098 13.032 20.8457 12.8601C20.6816 12.6843 20.5078 12.5652 20.3242 12.5027C20.1406 12.4363 19.8496 12.4031 19.4512 12.4031H19.0996V15.989H17.3652ZM19.0996 11.032H20.3828C21.2148 11.032 21.7344 10.9968 21.9414 10.9265C22.1484 10.8562 22.3105 10.7351 22.4277 10.5632C22.5449 10.3914 22.6035 10.1765 22.6035 9.9187C22.6035 9.62964 22.5254 9.39722 22.3691 9.22144C22.2168 9.04175 22 8.92847 21.7188 8.88159C21.5781 8.86206 21.1562 8.85229 20.4531 8.85229H19.0996V11.032ZM26.0078 15.989V7.39917H28.6035L30.1621 13.2585L31.7031 7.39917H34.3047V15.989H32.6934V9.22729L30.9883 15.989H29.3184L27.6191 9.22729V15.989H26.0078ZM37.9609 15.989V8.85229H35.4121V7.39917H42.2383V8.85229H39.6953V15.989H37.9609ZM46.2285 15.989V14.2605H42.7129V12.8191L46.4395 7.36401H47.8223V12.8132H48.8887V14.2605H47.8223V15.989H46.2285ZM46.2285 12.8132V9.87769L44.2539 12.8132H46.2285ZM52.9082 15.989V14.2605H49.3926V12.8191L53.1191 7.36401H54.502V12.8132H55.5684V14.2605H54.502V15.989H52.9082ZM52.9082 12.8132V9.87769L50.9336 12.8132H52.9082Z" fill="white"/>
<defs>
<linearGradient id="paint0_linear_84_2024" x1="32.5" y1="1.98901" x2="32.5" y2="21.989" gradientUnits="userSpaceOnUse">
<stop stop-color="#2C56CE"/>
<stop offset="1" stop-color="#649039"/>
</linearGradient>
</defs>
</svg>
