<svg width="64" height="24" viewBox="0 0 64 24" fill="none" xmlns="http://www.w3.org/2000/svg">
<rect x="2" y="1.98901" width="61" height="20" rx="10" fill="url(#paint0_linear_52_1865)"/>
<rect x="2" y="1.98901" width="61" height="20" rx="10" stroke="#824C00" stroke-width="3" stroke-linejoin="round"/>
<path d="M10.0059 15.989V7.39917H12.6016L14.1602 13.2585L15.7012 7.39917H18.3027V15.989H16.6914V9.22729L14.9863 15.989H13.3164L11.6172 9.22729V15.989H10.0059ZM20.0254 15.989V7.39917H26.3945V8.85229H21.7598V10.7566H26.0723V12.2039H21.7598V14.5417H26.5586V15.989H20.0254ZM29.9629 15.989V8.85229H27.4141V7.39917H34.2402V8.85229H31.6973V15.989H29.9629ZM37.2988 15.989V8.85229H34.75V7.39917H41.5762V8.85229H39.0332V15.989H37.2988ZM42.748 15.989V7.46948H44.4824V14.5417H48.7949V15.989H42.748ZM53.8867 15.989H52.2402V9.78394C51.6387 10.3464 50.9297 10.7625 50.1133 11.032V9.53784C50.543 9.39722 51.0098 9.13159 51.5137 8.74097C52.0176 8.34644 52.3633 7.88745 52.5508 7.36401H53.8867V15.989Z" fill="white"/>
<defs>
<linearGradient id="paint0_linear_52_1865" x1="32.5" y1="1.98901" x2="32.5" y2="21.989" gradientUnits="userSpaceOnUse">
<stop stop-color="#FFDDAD"/>
<stop offset="1" stop-color="#824C00"/>
</linearGradient>
</defs>
</svg>
