<svg width="48" height="24" viewBox="0 0 48 24" fill="none" xmlns="http://www.w3.org/2000/svg">
<rect x="2" y="1.98901" width="45" height="20" rx="10" fill="url(#paint0_linear_65_1993)"/>
<rect x="2" y="1.98901" width="45" height="20" rx="10" stroke="#FFBA00" stroke-width="3" stroke-linejoin="round"/>
<path d="M10.1445 15.989V7.39917H12.9277C13.9824 7.39917 14.6699 7.44214 14.9902 7.52808C15.4824 7.65698 15.8945 7.93823 16.2266 8.37183C16.5586 8.80151 16.7246 9.35815 16.7246 10.0417C16.7246 10.5691 16.6289 11.0125 16.4375 11.3718C16.2461 11.7312 16.002 12.0144 15.7051 12.2214C15.4121 12.4246 15.1133 12.5593 14.8086 12.6257C14.3945 12.7078 13.7949 12.7488 13.0098 12.7488H11.8789V15.989H10.1445ZM11.8789 8.85229V11.2898H12.8281C13.5117 11.2898 13.9688 11.2449 14.1992 11.155C14.4297 11.0652 14.6094 10.9246 14.7383 10.7332C14.8711 10.5417 14.9375 10.3191 14.9375 10.0652C14.9375 9.75269 14.8457 9.49487 14.6621 9.29175C14.4785 9.08862 14.2461 8.96167 13.9648 8.91089C13.7578 8.87183 13.3418 8.85229 12.7168 8.85229H11.8789ZM18.1953 15.989V7.46948H19.9297V14.5417H24.2422V15.989H18.1953ZM33.2305 15.989H31.3438L30.5938 14.0378H27.1602L26.4512 15.989H24.6113L27.957 7.39917H29.791L33.2305 15.989ZM30.0371 12.5906L28.8535 9.40308L27.6934 12.5906H30.0371ZM35.1992 15.989V8.85229H32.6504V7.39917H39.4766V8.85229H36.9336V15.989H35.1992Z" fill="white"/>
<defs>
<linearGradient id="paint0_linear_65_1993" x1="24.5" y1="1.98901" x2="24.5" y2="21.989" gradientUnits="userSpaceOnUse">
<stop stop-color="#FFBA00"/>
<stop offset="1" stop-color="#6B00BD"/>
</linearGradient>
</defs>
</svg>
