<svg width="59" height="24" viewBox="0 0 59 24" fill="none" xmlns="http://www.w3.org/2000/svg">
<rect x="2" y="1.98901" width="56" height="20" rx="10" fill="url(#paint0_linear_67_1849)"/>
<rect x="2" y="1.98901" width="56" height="20" rx="10" stroke="#4D2B81" stroke-width="3" stroke-linejoin="round"/>
<path d="M17.1094 14.8992C17.5352 15.2039 17.998 15.446 18.498 15.6257L17.8594 16.8503C17.5977 16.7722 17.3418 16.6648 17.0918 16.5281C17.0371 16.5007 16.6523 16.2468 15.9375 15.7664C15.375 16.0125 14.752 16.1355 14.0684 16.1355C12.748 16.1355 11.7129 15.7468 10.9629 14.9695C10.2168 14.1921 9.84375 13.1003 9.84375 11.6941C9.84375 10.2917 10.2188 9.2019 10.9688 8.42456C11.7188 7.64331 12.7363 7.25269 14.0215 7.25269C15.2949 7.25269 16.3047 7.64331 17.0508 8.42456C17.7969 9.2019 18.1699 10.2917 18.1699 11.6941C18.1699 12.4363 18.0664 13.0886 17.8594 13.6511C17.7031 14.0808 17.4531 14.4968 17.1094 14.8992ZM15.7148 13.9207C15.9375 13.6589 16.1035 13.3425 16.2129 12.9714C16.3262 12.6003 16.3828 12.1746 16.3828 11.6941C16.3828 10.7019 16.1641 9.96167 15.7266 9.47339C15.2891 8.9812 14.7168 8.73511 14.0098 8.73511C13.3027 8.73511 12.7285 8.9812 12.2871 9.47339C11.8496 9.96558 11.6309 10.7058 11.6309 11.6941C11.6309 12.698 11.8496 13.45 12.2871 13.95C12.7285 14.446 13.2852 14.6941 13.957 14.6941C14.207 14.6941 14.4434 14.6531 14.666 14.571C14.3145 14.3406 13.957 14.1609 13.5938 14.032L14.0801 13.0417C14.6504 13.2371 15.1953 13.53 15.7148 13.9207ZM21.4688 15.989V8.85229H18.9199V7.39917H25.7461V8.85229H23.2031V15.989H21.4688ZM26.877 15.989V7.39917H30.5273C31.4453 7.39917 32.1113 7.47729 32.5254 7.63354C32.9434 7.78589 33.2773 8.05933 33.5273 8.45386C33.7773 8.84839 33.9023 9.29956 33.9023 9.80737C33.9023 10.4519 33.7129 10.9851 33.334 11.407C32.9551 11.825 32.3887 12.0886 31.6348 12.198C32.0098 12.4167 32.3184 12.657 32.5605 12.9187C32.8066 13.1804 33.1367 13.6453 33.5508 14.3132L34.5996 15.989H32.5254L31.2715 14.1199C30.8262 13.4519 30.5215 13.032 30.3574 12.8601C30.1934 12.6843 30.0195 12.5652 29.8359 12.5027C29.6523 12.4363 29.3613 12.4031 28.9629 12.4031H28.6113V15.989H26.877ZM28.6113 11.032H29.8945C30.7266 11.032 31.2461 10.9968 31.4531 10.9265C31.6602 10.8562 31.8223 10.7351 31.9395 10.5632C32.0566 10.3914 32.1152 10.1765 32.1152 9.9187C32.1152 9.62964 32.0371 9.39722 31.8809 9.22144C31.7285 9.04175 31.5117 8.92847 31.2305 8.88159C31.0898 8.86206 30.668 8.85229 29.9648 8.85229H28.6113V11.032ZM37.4766 15.989V8.85229H34.9277V7.39917H41.7539V8.85229H39.2109V15.989H37.4766ZM42.873 7.39917H46.043C46.7578 7.39917 47.3027 7.45386 47.6777 7.56323C48.1816 7.71167 48.6133 7.97534 48.9727 8.35425C49.332 8.73315 49.6055 9.198 49.793 9.74878C49.9805 10.2957 50.0742 10.9714 50.0742 11.7761C50.0742 12.4832 49.9863 13.0925 49.8105 13.6042C49.5957 14.2292 49.2891 14.7351 48.8906 15.1218C48.5898 15.4148 48.1836 15.6433 47.6719 15.8074C47.2891 15.9285 46.7773 15.989 46.1367 15.989H42.873V7.39917ZM44.6074 8.85229V14.5417H45.9023C46.3867 14.5417 46.7363 14.5144 46.9512 14.4597C47.2324 14.3894 47.4648 14.2703 47.6484 14.1023C47.8359 13.9343 47.9883 13.6589 48.1055 13.2761C48.2227 12.8894 48.2812 12.364 48.2812 11.7C48.2812 11.0359 48.2227 10.5261 48.1055 10.1707C47.9883 9.81519 47.8242 9.53784 47.6133 9.33862C47.4023 9.1394 47.1348 9.00464 46.8105 8.93433C46.5684 8.87964 46.0938 8.85229 45.3867 8.85229H44.6074Z" fill="white"/>
<defs>
<linearGradient id="paint0_linear_67_1849" x1="30" y1="1.98901" x2="30" y2="21.989" gradientUnits="userSpaceOnUse">
<stop stop-color="#87A094"/>
<stop offset="1" stop-color="#4D2B81"/>
</linearGradient>
</defs>
</svg>
