<svg width="42" height="24" viewBox="0 0 42 24" fill="none" xmlns="http://www.w3.org/2000/svg">
<rect x="2" y="1.98901" width="39" height="20" rx="10" fill="url(#paint0_linear_42_2615)"/>
<rect x="2" y="1.98901" width="39" height="20" rx="10" stroke="#C9BD00" stroke-width="3" stroke-linejoin="round"/>
<path d="M13.9473 14.0085L15.5879 14.2839C15.377 14.8855 15.043 15.3445 14.5859 15.6609C14.1328 15.9734 13.5645 16.1296 12.8809 16.1296C11.7988 16.1296 10.998 15.7761 10.4785 15.0691C10.0684 14.5027 9.86328 13.7878 9.86328 12.9246C9.86328 11.8933 10.1328 11.0867 10.6719 10.5046C11.2109 9.9187 11.8926 9.62573 12.7168 9.62573C13.6426 9.62573 14.373 9.93237 14.9082 10.5457C15.4434 11.155 15.6992 12.0906 15.6758 13.3523H11.5508C11.5625 13.8406 11.6953 14.2214 11.9492 14.4949C12.2031 14.7644 12.5195 14.8992 12.8984 14.8992C13.1562 14.8992 13.373 14.8289 13.5488 14.6882C13.7246 14.5476 13.8574 14.321 13.9473 14.0085ZM14.041 12.3445C14.0293 11.8679 13.9062 11.5066 13.6719 11.2605C13.4375 11.0105 13.1523 10.8855 12.8164 10.8855C12.457 10.8855 12.1602 11.0164 11.9258 11.2781C11.6914 11.5398 11.5762 11.8953 11.5801 12.3445H14.041ZM16.9824 15.989V7.39917H18.7168V15.989H16.9824ZM20.3867 15.989V7.39917H26.2754V8.85229H22.1211V10.8855H25.707V12.3386H22.1211V15.989H20.3867ZM27.3711 13.78L29.0117 13.6101C29.0586 13.9812 29.1973 14.2761 29.4277 14.4949C29.6582 14.7097 29.9238 14.8171 30.2246 14.8171C30.5684 14.8171 30.8594 14.6785 31.0977 14.4011C31.3359 14.1199 31.4551 13.698 31.4551 13.1355C31.4551 12.6082 31.3359 12.2136 31.0977 11.9519C30.8633 11.6863 30.5566 11.5535 30.1777 11.5535C29.7051 11.5535 29.2812 11.7625 28.9062 12.1804L27.5703 11.9871L28.4141 7.51636H32.7676V9.05737H29.6621L29.4043 10.5164C29.7715 10.3328 30.1465 10.241 30.5293 10.241C31.2598 10.241 31.8789 10.5066 32.3867 11.0378C32.8945 11.5691 33.1484 12.2585 33.1484 13.1062C33.1484 13.8132 32.9434 14.4441 32.5332 14.9988C31.9746 15.7566 31.1992 16.1355 30.207 16.1355C29.4141 16.1355 28.7676 15.9226 28.2676 15.4968C27.7676 15.071 27.4688 14.4988 27.3711 13.78Z" fill="white"/>
<defs>
<linearGradient id="paint0_linear_42_2615" x1="21.5" y1="1.98901" x2="21.5" y2="21.989" gradientUnits="userSpaceOnUse">
<stop stop-color="#C9BD00"/>
<stop offset="1" stop-color="#104B85"/>
</linearGradient>
</defs>
</svg>
