<svg width="65" height="24" viewBox="0 0 65 24" fill="none" xmlns="http://www.w3.org/2000/svg">
<rect x="1" y="1.98901" width="63" height="20" rx="10" fill="url(#paint0_linear_52_1851)"/>
<rect x="1" y="1.98901" width="63" height="20" rx="10" stroke="#0053CC" stroke-width="3" stroke-linejoin="round"/>
<path d="M8.99805 15.989V7.39917H11.5938L13.1523 13.2585L14.6934 7.39917H17.2949V15.989H15.6836V9.22729L13.9785 15.989H12.3086L10.6094 9.22729V15.989H8.99805ZM26.7637 15.989H24.877L24.127 14.0378H20.6934L19.9844 15.989H18.1445L21.4902 7.39917H23.3242L26.7637 15.989ZM23.5703 12.5906L22.3867 9.40308L21.2266 12.5906H23.5703ZM27.6895 15.989V7.39917H30.4727C31.5273 7.39917 32.2148 7.44214 32.5352 7.52808C33.0273 7.65698 33.4395 7.93823 33.7715 8.37183C34.1035 8.80151 34.2695 9.35815 34.2695 10.0417C34.2695 10.5691 34.1738 11.0125 33.9824 11.3718C33.791 11.7312 33.5469 12.0144 33.25 12.2214C32.957 12.4246 32.6582 12.5593 32.3535 12.6257C31.9395 12.7078 31.3398 12.7488 30.5547 12.7488H29.4238V15.989H27.6895ZM29.4238 8.85229V11.2898H30.373C31.0566 11.2898 31.5137 11.2449 31.7441 11.155C31.9746 11.0652 32.1543 10.9246 32.2832 10.7332C32.416 10.5417 32.4824 10.3191 32.4824 10.0652C32.4824 9.75269 32.3906 9.49487 32.207 9.29175C32.0234 9.08862 31.791 8.96167 31.5098 8.91089C31.3027 8.87183 30.8867 8.85229 30.2617 8.85229H29.4238ZM35.2715 13.7097L36.8652 13.5164C36.916 13.9226 37.0527 14.2332 37.2754 14.448C37.498 14.6628 37.7676 14.7703 38.084 14.7703C38.4238 14.7703 38.709 14.6414 38.9395 14.3835C39.1738 14.1257 39.291 13.7781 39.291 13.3406C39.291 12.9265 39.1797 12.5984 38.957 12.3562C38.7344 12.114 38.4629 11.9929 38.1426 11.9929C37.9316 11.9929 37.6797 12.0339 37.3867 12.116L37.5684 10.7742C38.0137 10.7859 38.3535 10.6902 38.5879 10.4871C38.8223 10.28 38.9395 10.0066 38.9395 9.66675C38.9395 9.37769 38.8535 9.14722 38.6816 8.97534C38.5098 8.80347 38.2812 8.71753 37.9961 8.71753C37.7148 8.71753 37.4746 8.81519 37.2754 9.0105C37.0762 9.20581 36.9551 9.49097 36.9121 9.86597L35.3945 9.60815C35.5 9.08862 35.6582 8.67456 35.8691 8.36597C36.084 8.05347 36.3809 7.80933 36.7598 7.63354C37.1426 7.45386 37.5703 7.36401 38.043 7.36401C38.8516 7.36401 39.5 7.62183 39.9883 8.13745C40.3906 8.55933 40.5918 9.03589 40.5918 9.56714C40.5918 10.321 40.1797 10.9226 39.3555 11.3718C39.8477 11.4773 40.2402 11.7136 40.5332 12.0808C40.8301 12.448 40.9785 12.8914 40.9785 13.4109C40.9785 14.1648 40.7031 14.8074 40.1523 15.3386C39.6016 15.8699 38.916 16.1355 38.0957 16.1355C37.3184 16.1355 36.6738 15.9128 36.1621 15.4675C35.6504 15.0183 35.3535 14.4324 35.2715 13.7097ZM42.3965 15.989V7.39917H44.1309V11.2136L47.6348 7.39917H49.9668L46.7324 10.7449L50.1426 15.989H47.8984L45.5371 11.9578L44.1309 13.3933V15.989H42.3965ZM50.6816 9.04565V7.51636H56.3125V8.71167C55.8477 9.1687 55.375 9.82495 54.8945 10.6804C54.4141 11.5359 54.0469 12.446 53.793 13.4109C53.543 14.3718 53.4199 15.2312 53.4238 15.989H51.8359C51.8633 14.8015 52.1074 13.5906 52.5684 12.3562C53.0332 11.1218 53.6523 10.0183 54.4258 9.04565H50.6816Z" fill="white"/>
<defs>
<linearGradient id="paint0_linear_52_1851" x1="32.5" y1="1.98901" x2="32.5" y2="21.989" gradientUnits="userSpaceOnUse">
<stop stop-color="#0053CC"/>
<stop offset="1" stop-color="#00AA86"/>
</linearGradient>
</defs>
</svg>
