<svg width="47" height="24" viewBox="0 0 47 24" fill="none" xmlns="http://www.w3.org/2000/svg">
<rect x="2" y="1.98901" width="44" height="20" rx="10" fill="url(#paint0_linear_42_2655)"/>
<rect x="2" y="1.98901" width="44" height="20" rx="10" stroke="#93212F" stroke-width="3" stroke-linejoin="round"/>
<path d="M13.7812 14.0085L15.4219 14.2839C15.2109 14.8855 14.877 15.3445 14.4199 15.6609C13.9668 15.9734 13.3984 16.1296 12.7148 16.1296C11.6328 16.1296 10.832 15.7761 10.3125 15.0691C9.90234 14.5027 9.69727 13.7878 9.69727 12.9246C9.69727 11.8933 9.9668 11.0867 10.5059 10.5046C11.0449 9.9187 11.7266 9.62573 12.5508 9.62573C13.4766 9.62573 14.207 9.93237 14.7422 10.5457C15.2773 11.155 15.5332 12.0906 15.5098 13.3523H11.3848C11.3965 13.8406 11.5293 14.2214 11.7832 14.4949C12.0371 14.7644 12.3535 14.8992 12.7324 14.8992C12.9902 14.8992 13.207 14.8289 13.3828 14.6882C13.5586 14.5476 13.6914 14.321 13.7812 14.0085ZM13.875 12.3445C13.8633 11.8679 13.7402 11.5066 13.5059 11.2605C13.2715 11.0105 12.9863 10.8855 12.6504 10.8855C12.291 10.8855 11.9941 11.0164 11.7598 11.2781C11.5254 11.5398 11.4102 11.8953 11.4141 12.3445H13.875ZM16.875 15.989V7.39917H20.5254C21.4434 7.39917 22.1094 7.47729 22.5234 7.63354C22.9414 7.78589 23.2754 8.05933 23.5254 8.45386C23.7754 8.84839 23.9004 9.29956 23.9004 9.80737C23.9004 10.4519 23.7109 10.9851 23.332 11.407C22.9531 11.825 22.3867 12.0886 21.6328 12.198C22.0078 12.4167 22.3164 12.657 22.5586 12.9187C22.8047 13.1804 23.1348 13.6453 23.5488 14.3132L24.5977 15.989H22.5234L21.2695 14.1199C20.8242 13.4519 20.5195 13.032 20.3555 12.8601C20.1914 12.6843 20.0176 12.5652 19.834 12.5027C19.6504 12.4363 19.3594 12.4031 18.9609 12.4031H18.6094V15.989H16.875ZM18.6094 11.032H19.8926C20.7246 11.032 21.2441 10.9968 21.4512 10.9265C21.6582 10.8562 21.8203 10.7351 21.9375 10.5632C22.0547 10.3914 22.1133 10.1765 22.1133 9.9187C22.1133 9.62964 22.0352 9.39722 21.8789 9.22144C21.7266 9.04175 21.5098 8.92847 21.2285 8.88159C21.0879 8.86206 20.666 8.85229 19.9629 8.85229H18.6094V11.032ZM25.5527 15.989V7.39917H31.4414V8.85229H27.2871V10.8855H30.873V12.3386H27.2871V15.989H25.5527ZM32.4551 13.7097L34.0488 13.5164C34.0996 13.9226 34.2363 14.2332 34.459 14.448C34.6816 14.6628 34.9512 14.7703 35.2676 14.7703C35.6074 14.7703 35.8926 14.6414 36.123 14.3835C36.3574 14.1257 36.4746 13.7781 36.4746 13.3406C36.4746 12.9265 36.3633 12.5984 36.1406 12.3562C35.918 12.114 35.6465 11.9929 35.3262 11.9929C35.1152 11.9929 34.8633 12.0339 34.5703 12.116L34.752 10.7742C35.1973 10.7859 35.5371 10.6902 35.7715 10.4871C36.0059 10.28 36.123 10.0066 36.123 9.66675C36.123 9.37769 36.0371 9.14722 35.8652 8.97534C35.6934 8.80347 35.4648 8.71753 35.1797 8.71753C34.8984 8.71753 34.6582 8.81519 34.459 9.0105C34.2598 9.20581 34.1387 9.49097 34.0957 9.86597L32.5781 9.60815C32.6836 9.08862 32.8418 8.67456 33.0527 8.36597C33.2676 8.05347 33.5645 7.80933 33.9434 7.63354C34.3262 7.45386 34.7539 7.36401 35.2266 7.36401C36.0352 7.36401 36.6836 7.62183 37.1719 8.13745C37.5742 8.55933 37.7754 9.03589 37.7754 9.56714C37.7754 10.321 37.3633 10.9226 36.5391 11.3718C37.0312 11.4773 37.4238 11.7136 37.7168 12.0808C38.0137 12.448 38.1621 12.8914 38.1621 13.4109C38.1621 14.1648 37.8867 14.8074 37.3359 15.3386C36.7852 15.8699 36.0996 16.1355 35.2793 16.1355C34.502 16.1355 33.8574 15.9128 33.3457 15.4675C32.834 15.0183 32.5371 14.4324 32.4551 13.7097Z" fill="white"/>
<defs>
<linearGradient id="paint0_linear_42_2655" x1="24" y1="1.98901" x2="24" y2="21.989" gradientUnits="userSpaceOnUse">
<stop stop-color="#93212F"/>
<stop offset="1" stop-color="#CF7ED0"/>
</linearGradient>
</defs>
</svg>
