<svg width="52" height="24" viewBox="0 0 52 24" fill="none" xmlns="http://www.w3.org/2000/svg">
<rect x="2" y="1.98901" width="49" height="20" rx="10" fill="url(#paint0_linear_65_1984)"/>
<rect x="2" y="1.98901" width="49" height="20" rx="10" stroke="#005E1E" stroke-width="3" stroke-linejoin="round"/>
<path d="M10.0352 15.989V7.39917H12.8184C13.873 7.39917 14.5605 7.44214 14.8809 7.52808C15.373 7.65698 15.7852 7.93823 16.1172 8.37183C16.4492 8.80151 16.6152 9.35815 16.6152 10.0417C16.6152 10.5691 16.5195 11.0125 16.3281 11.3718C16.1367 11.7312 15.8926 12.0144 15.5957 12.2214C15.3027 12.4246 15.0039 12.5593 14.6992 12.6257C14.2852 12.7078 13.6855 12.7488 12.9004 12.7488H11.7695V15.989H10.0352ZM11.7695 8.85229V11.2898H12.7188C13.4023 11.2898 13.8594 11.2449 14.0898 11.155C14.3203 11.0652 14.5 10.9246 14.6289 10.7332C14.7617 10.5417 14.8281 10.3191 14.8281 10.0652C14.8281 9.75269 14.7363 9.49487 14.5527 9.29175C14.3691 9.08862 14.1367 8.96167 13.8555 8.91089C13.6484 8.87183 13.2324 8.85229 12.6074 8.85229H11.7695ZM18.0156 15.989V7.39917H20.6113L22.1699 13.2585L23.7109 7.39917H26.3125V15.989H24.7012V9.22729L22.9961 15.989H21.3262L19.627 9.22729V15.989H18.0156ZM28.0117 15.989V7.39917H30.6074L32.166 13.2585L33.707 7.39917H36.3086V15.989H34.6973V9.22729L32.9922 15.989H31.3223L29.623 9.22729V15.989H28.0117ZM43.2285 14.4597V15.989H37.457C37.5195 15.4109 37.707 14.864 38.0195 14.3484C38.332 13.8289 38.9492 13.1414 39.8711 12.2859C40.6133 11.5945 41.0684 11.1257 41.2363 10.8796C41.4629 10.5398 41.5762 10.2039 41.5762 9.87183C41.5762 9.50464 41.4766 9.22339 41.2773 9.02808C41.082 8.82886 40.8105 8.72925 40.4629 8.72925C40.1191 8.72925 39.8457 8.83276 39.6426 9.03979C39.4395 9.24683 39.3223 9.59058 39.291 10.071L37.6504 9.90698C37.748 9.00073 38.0547 8.35034 38.5703 7.95581C39.0859 7.56128 39.7305 7.36401 40.5039 7.36401C41.3516 7.36401 42.0176 7.59253 42.502 8.04956C42.9863 8.50659 43.2285 9.07495 43.2285 9.75464C43.2285 10.1414 43.1582 10.5105 43.0176 10.8621C42.8809 11.2097 42.6621 11.575 42.3613 11.9578C42.1621 12.2117 41.8027 12.5769 41.2832 13.0535C40.7637 13.53 40.4336 13.8464 40.293 14.0027C40.1562 14.1589 40.0449 14.3113 39.959 14.4597H43.2285Z" fill="white"/>
<defs>
<linearGradient id="paint0_linear_65_1984" x1="26.5" y1="1.98901" x2="26.5" y2="21.989" gradientUnits="userSpaceOnUse">
<stop stop-color="#005E1E"/>
<stop offset="1" stop-color="#A1613A"/>
</linearGradient>
</defs>
</svg>
