<svg width="71" height="24" viewBox="0 0 71 24" fill="none" xmlns="http://www.w3.org/2000/svg">
<rect x="1" y="1.98901" width="69" height="20" rx="10" fill="url(#paint0_linear_83_1978)"/>
<rect x="1" y="1.98901" width="69" height="20" rx="10" stroke="#A63385" stroke-width="3" stroke-linejoin="round"/>
<path d="M8.91602 13.1941L10.6035 13.03C10.7051 13.5964 10.9102 14.0125 11.2188 14.2781C11.5312 14.5437 11.9512 14.6765 12.4785 14.6765C13.0371 14.6765 13.457 14.5593 13.7383 14.325C14.0234 14.0867 14.166 13.8093 14.166 13.4929C14.166 13.2898 14.1055 13.1179 13.9844 12.9773C13.8672 12.8328 13.6602 12.7078 13.3633 12.6023C13.1602 12.532 12.6973 12.407 11.9746 12.2273C11.0449 11.9968 10.3926 11.7136 10.0176 11.3777C9.49023 10.905 9.22656 10.3289 9.22656 9.64917C9.22656 9.21167 9.34961 8.80347 9.5957 8.42456C9.8457 8.04175 10.2031 7.75073 10.668 7.55151C11.1367 7.35229 11.7012 7.25269 12.3613 7.25269C13.4395 7.25269 14.25 7.48901 14.793 7.96167C15.3398 8.43433 15.627 9.06519 15.6543 9.85425L13.9199 9.93042C13.8457 9.48901 13.6855 9.17261 13.4395 8.9812C13.1973 8.78589 12.832 8.68823 12.3438 8.68823C11.8398 8.68823 11.4453 8.79175 11.1602 8.99878C10.9766 9.13159 10.8848 9.30933 10.8848 9.53198C10.8848 9.73511 10.9707 9.90894 11.1426 10.0535C11.3613 10.2371 11.8926 10.4285 12.7363 10.6277C13.5801 10.8269 14.2031 11.0339 14.6055 11.2488C15.0117 11.4597 15.3281 11.7507 15.5547 12.1218C15.7852 12.489 15.9004 12.9441 15.9004 13.4871C15.9004 13.9792 15.7637 14.4402 15.4902 14.8699C15.2168 15.2996 14.8301 15.6199 14.3301 15.8308C13.8301 16.0378 13.207 16.1414 12.4609 16.1414C11.375 16.1414 10.541 15.8914 9.95898 15.3914C9.37695 14.8875 9.0293 14.155 8.91602 13.1941ZM17.3477 7.39917H19.082V12.0515C19.082 12.7898 19.1035 13.2683 19.1465 13.4871C19.2207 13.8386 19.3965 14.1218 19.6738 14.3367C19.9551 14.5476 20.3379 14.6531 20.8223 14.6531C21.3145 14.6531 21.6855 14.5535 21.9355 14.3542C22.1855 14.1511 22.3359 13.9031 22.3867 13.6101C22.4375 13.3171 22.4629 12.8308 22.4629 12.1511V7.39917H24.1973V11.9109C24.1973 12.9421 24.1504 13.6707 24.0566 14.0964C23.9629 14.5222 23.7891 14.8816 23.5352 15.1746C23.2852 15.4675 22.9492 15.7019 22.5273 15.8777C22.1055 16.0496 21.5547 16.1355 20.875 16.1355C20.0547 16.1355 19.4316 16.0417 19.0059 15.8542C18.584 15.6628 18.25 15.4167 18.0039 15.116C17.7578 14.8113 17.5957 14.4929 17.5176 14.1609C17.4043 13.6687 17.3477 12.9421 17.3477 11.9812V7.39917ZM26.0078 15.989V7.39917H28.6035L30.1621 13.2585L31.7031 7.39917H34.3047V15.989H32.6934V9.22729L30.9883 15.989H29.3184L27.6191 9.22729V15.989H26.0078ZM35.6758 11.7468C35.6758 10.8718 35.8066 10.1375 36.0684 9.5437C36.2637 9.1062 36.5293 8.71362 36.8652 8.36597C37.2051 8.01831 37.5762 7.7605 37.9785 7.59253C38.5137 7.36597 39.1309 7.25269 39.8301 7.25269C41.0957 7.25269 42.1074 7.64526 42.8652 8.43042C43.627 9.21558 44.0078 10.3074 44.0078 11.7058C44.0078 13.0925 43.6309 14.1785 42.877 14.9636C42.123 15.7449 41.1152 16.1355 39.8535 16.1355C38.5762 16.1355 37.5605 15.7468 36.8066 14.9695C36.0527 14.1882 35.6758 13.114 35.6758 11.7468ZM37.4629 11.6882C37.4629 12.6609 37.6875 13.3992 38.1367 13.9031C38.5859 14.4031 39.1562 14.6531 39.8477 14.6531C40.5391 14.6531 41.1055 14.405 41.5469 13.9089C41.9922 13.4089 42.2148 12.6609 42.2148 11.6648C42.2148 10.6804 41.998 9.94604 41.5645 9.46167C41.1348 8.97729 40.5625 8.73511 39.8477 8.73511C39.1328 8.73511 38.5566 8.9812 38.1191 9.47339C37.6816 9.96167 37.4629 10.7 37.4629 11.6882ZM48.707 15.989V7.39917H55.0762V8.85229H50.4414V10.7566H54.7539V12.2039H50.4414V14.5417H55.2402V15.989H48.707ZM56.2891 13.7097L57.8828 13.5164C57.9336 13.9226 58.0703 14.2332 58.293 14.448C58.5156 14.6628 58.7852 14.7703 59.1016 14.7703C59.4414 14.7703 59.7266 14.6414 59.957 14.3835C60.1914 14.1257 60.3086 13.7781 60.3086 13.3406C60.3086 12.9265 60.1973 12.5984 59.9746 12.3562C59.752 12.114 59.4805 11.9929 59.1602 11.9929C58.9492 11.9929 58.6973 12.0339 58.4043 12.116L58.5859 10.7742C59.0312 10.7859 59.3711 10.6902 59.6055 10.4871C59.8398 10.28 59.957 10.0066 59.957 9.66675C59.957 9.37769 59.8711 9.14722 59.6992 8.97534C59.5273 8.80347 59.2988 8.71753 59.0137 8.71753C58.7324 8.71753 58.4922 8.81519 58.293 9.0105C58.0938 9.20581 57.9727 9.49097 57.9297 9.86597L56.4121 9.60815C56.5176 9.08862 56.6758 8.67456 56.8867 8.36597C57.1016 8.05347 57.3984 7.80933 57.7773 7.63354C58.1602 7.45386 58.5879 7.36401 59.0605 7.36401C59.8691 7.36401 60.5176 7.62183 61.0059 8.13745C61.4082 8.55933 61.6094 9.03589 61.6094 9.56714C61.6094 10.321 61.1973 10.9226 60.373 11.3718C60.8652 11.4773 61.2578 11.7136 61.5508 12.0808C61.8477 12.448 61.9961 12.8914 61.9961 13.4109C61.9961 14.1648 61.7207 14.8074 61.1699 15.3386C60.6191 15.8699 59.9336 16.1355 59.1133 16.1355C58.3359 16.1355 57.6914 15.9128 57.1797 15.4675C56.668 15.0183 56.3711 14.4324 56.2891 13.7097Z" fill="white"/>
<defs>
<linearGradient id="paint0_linear_83_1978" x1="35.5" y1="1.98901" x2="35.5" y2="21.989" gradientUnits="userSpaceOnUse">
<stop stop-color="#A63385"/>
<stop offset="1" stop-color="#00A181"/>
</linearGradient>
</defs>
</svg>
