<svg width="52" height="24" viewBox="0 0 52 24" fill="none" xmlns="http://www.w3.org/2000/svg">
<rect x="2" y="1.98901" width="49" height="20" rx="10" fill="url(#paint0_linear_64_1877)"/>
<rect x="2" y="1.98901" width="49" height="20" rx="10" stroke="#D75356" stroke-width="3" stroke-linejoin="round"/>
<path d="M9.67188 11.7468C9.67188 10.8718 9.80273 10.1375 10.0645 9.5437C10.2598 9.1062 10.5254 8.71362 10.8613 8.36597C11.2012 8.01831 11.5723 7.7605 11.9746 7.59253C12.5098 7.36597 13.127 7.25269 13.8262 7.25269C15.0918 7.25269 16.1035 7.64526 16.8613 8.43042C17.623 9.21558 18.0039 10.3074 18.0039 11.7058C18.0039 13.0925 17.627 14.1785 16.873 14.9636C16.1191 15.7449 15.1113 16.1355 13.8496 16.1355C12.5723 16.1355 11.5566 15.7468 10.8027 14.9695C10.0488 14.1882 9.67188 13.114 9.67188 11.7468ZM11.459 11.6882C11.459 12.6609 11.6836 13.3992 12.1328 13.9031C12.582 14.4031 13.1523 14.6531 13.8438 14.6531C14.5352 14.6531 15.1016 14.405 15.543 13.9089C15.9883 13.4089 16.2109 12.6609 16.2109 11.6648C16.2109 10.6804 15.9941 9.94604 15.5605 9.46167C15.1309 8.97729 14.5586 8.73511 13.8438 8.73511C13.1289 8.73511 12.5527 8.9812 12.1152 9.47339C11.6777 9.96167 11.459 10.7 11.459 11.6882ZM23.3594 12.8308V11.3835H27.0977V14.8054C26.7344 15.157 26.207 15.4675 25.5156 15.7371C24.8281 16.0027 24.1309 16.1355 23.4238 16.1355C22.5254 16.1355 21.7422 15.948 21.0742 15.573C20.4062 15.1941 19.9043 14.655 19.5684 13.9558C19.2324 13.2527 19.0645 12.489 19.0645 11.6648C19.0645 10.7703 19.252 9.97534 19.627 9.28003C20.002 8.58472 20.5508 8.05151 21.2734 7.68042C21.8242 7.39526 22.5098 7.25269 23.3301 7.25269C24.3965 7.25269 25.2285 7.47729 25.8262 7.92651C26.4277 8.37183 26.8145 8.98901 26.9863 9.77808L25.2637 10.1003C25.1426 9.67847 24.9141 9.34644 24.5781 9.10425C24.2461 8.85815 23.8301 8.73511 23.3301 8.73511C22.5723 8.73511 21.9688 8.97534 21.5195 9.45581C21.0742 9.93628 20.8516 10.6492 20.8516 11.5945C20.8516 12.614 21.0781 13.3796 21.5312 13.8914C21.9844 14.3992 22.5781 14.6531 23.3125 14.6531C23.6758 14.6531 24.0391 14.5828 24.4023 14.4421C24.7695 14.2976 25.084 14.1238 25.3457 13.9207V12.8308H23.3594ZM32.6992 12.8308V11.3835H36.4375V14.8054C36.0742 15.157 35.5469 15.4675 34.8555 15.7371C34.168 16.0027 33.4707 16.1355 32.7637 16.1355C31.8652 16.1355 31.082 15.948 30.4141 15.573C29.7461 15.1941 29.2441 14.655 28.9082 13.9558C28.5723 13.2527 28.4043 12.489 28.4043 11.6648C28.4043 10.7703 28.5918 9.97534 28.9668 9.28003C29.3418 8.58472 29.8906 8.05151 30.6133 7.68042C31.1641 7.39526 31.8496 7.25269 32.6699 7.25269C33.7363 7.25269 34.5684 7.47729 35.166 7.92651C35.7676 8.37183 36.1543 8.98901 36.3262 9.77808L34.6035 10.1003C34.4824 9.67847 34.2539 9.34644 33.918 9.10425C33.5859 8.85815 33.1699 8.73511 32.6699 8.73511C31.9121 8.73511 31.3086 8.97534 30.8594 9.45581C30.4141 9.93628 30.1914 10.6492 30.1914 11.5945C30.1914 12.614 30.418 13.3796 30.8711 13.8914C31.3242 14.3992 31.918 14.6531 32.6523 14.6531C33.0156 14.6531 33.3789 14.5828 33.7422 14.4421C34.1094 14.2976 34.4238 14.1238 34.6855 13.9207V12.8308H32.6992ZM41.8926 15.989H40.2461V9.78394C39.6445 10.3464 38.9355 10.7625 38.1191 11.032V9.53784C38.5488 9.39722 39.0156 9.13159 39.5195 8.74097C40.0234 8.34644 40.3691 7.88745 40.5566 7.36401H41.8926V15.989Z" fill="white"/>
<defs>
<linearGradient id="paint0_linear_64_1877" x1="26.5" y1="1.98901" x2="26.5" y2="21.989" gradientUnits="userSpaceOnUse">
<stop stop-color="#6D316F"/>
<stop offset="1" stop-color="#D75356"/>
</linearGradient>
</defs>
</svg>
