<svg width="52" height="24" viewBox="0 0 52 24" fill="none" xmlns="http://www.w3.org/2000/svg">
<rect x="2" y="1.98901" width="49" height="20" rx="10" fill="url(#paint0_linear_84_2020)"/>
<rect x="2" y="1.98901" width="49" height="20" rx="10" stroke="#A1006F" stroke-width="3" stroke-linejoin="round"/>
<path d="M11.9688 15.989V8.85229H9.41992V7.39917H16.2461V8.85229H13.7031V15.989H11.9688ZM17.377 15.989V7.39917H21.0273C21.9453 7.39917 22.6113 7.47729 23.0254 7.63354C23.4434 7.78589 23.7773 8.05933 24.0273 8.45386C24.2773 8.84839 24.4023 9.29956 24.4023 9.80737C24.4023 10.4519 24.2129 10.9851 23.834 11.407C23.4551 11.825 22.8887 12.0886 22.1348 12.198C22.5098 12.4167 22.8184 12.657 23.0605 12.9187C23.3066 13.1804 23.6367 13.6453 24.0508 14.3132L25.0996 15.989H23.0254L21.7715 14.1199C21.3262 13.4519 21.0215 13.032 20.8574 12.8601C20.6934 12.6843 20.5195 12.5652 20.3359 12.5027C20.1523 12.4363 19.8613 12.4031 19.4629 12.4031H19.1113V15.989H17.377ZM19.1113 11.032H20.3945C21.2266 11.032 21.7461 10.9968 21.9531 10.9265C22.1602 10.8562 22.3223 10.7351 22.4395 10.5632C22.5566 10.3914 22.6152 10.1765 22.6152 9.9187C22.6152 9.62964 22.5371 9.39722 22.3809 9.22144C22.2285 9.04175 22.0117 8.92847 21.7305 8.88159C21.5898 8.86206 21.168 8.85229 20.4648 8.85229H19.1113V11.032ZM26.0195 15.989V7.39917H28.6152L30.1738 13.2585L31.7148 7.39917H34.3164V15.989H32.7051V9.22729L31 15.989H29.3301L27.6309 9.22729V15.989H26.0195ZM36.0273 7.39917H37.7617V12.0515C37.7617 12.7898 37.7832 13.2683 37.8262 13.4871C37.9004 13.8386 38.0762 14.1218 38.3535 14.3367C38.6348 14.5476 39.0176 14.6531 39.502 14.6531C39.9941 14.6531 40.3652 14.5535 40.6152 14.3542C40.8652 14.1511 41.0156 13.9031 41.0664 13.6101C41.1172 13.3171 41.1426 12.8308 41.1426 12.1511V7.39917H42.877V11.9109C42.877 12.9421 42.8301 13.6707 42.7363 14.0964C42.6426 14.5222 42.4688 14.8816 42.2148 15.1746C41.9648 15.4675 41.6289 15.7019 41.207 15.8777C40.7852 16.0496 40.2344 16.1355 39.5547 16.1355C38.7344 16.1355 38.1113 16.0417 37.6855 15.8542C37.2637 15.6628 36.9297 15.4167 36.6836 15.116C36.4375 14.8113 36.2754 14.4929 36.1973 14.1609C36.084 13.6687 36.0273 12.9421 36.0273 11.9812V7.39917Z" fill="white"/>
<defs>
<linearGradient id="paint0_linear_84_2020" x1="26.5" y1="1.98901" x2="26.5" y2="21.989" gradientUnits="userSpaceOnUse">
<stop stop-color="#A1006F"/>
<stop offset="1" stop-color="#7B95C4"/>
</linearGradient>
</defs>
</svg>
