<svg width="115" height="24" viewBox="0 0 115 24" fill="none" xmlns="http://www.w3.org/2000/svg">
<rect x="1" y="1.98901" width="113" height="20" rx="10" fill="#73A628"/>
<rect x="1" y="1.98901" width="113" height="20" rx="10" stroke="#DEB510" stroke-width="3" stroke-linejoin="round"/>
<path d="M9.00781 15.989V7.39917H11.791C12.8457 7.39917 13.5332 7.44214 13.8535 7.52808C14.3457 7.65698 14.7578 7.93823 15.0898 8.37183C15.4219 8.80151 15.5879 9.35815 15.5879 10.0417C15.5879 10.5691 15.4922 11.0125 15.3008 11.3718C15.1094 11.7312 14.8652 12.0144 14.5684 12.2214C14.2754 12.4246 13.9766 12.5593 13.6719 12.6257C13.2578 12.7078 12.6582 12.7488 11.873 12.7488H10.7422V15.989H9.00781ZM10.7422 8.85229V11.2898H11.6914C12.375 11.2898 12.832 11.2449 13.0625 11.155C13.293 11.0652 13.4727 10.9246 13.6016 10.7332C13.7344 10.5417 13.8008 10.3191 13.8008 10.0652C13.8008 9.75269 13.709 9.49487 13.5254 9.29175C13.3418 9.08862 13.1094 8.96167 12.8281 8.91089C12.6211 8.87183 12.2051 8.85229 11.5801 8.85229H10.7422ZM17.0176 15.989V7.39917H20.668C21.5859 7.39917 22.252 7.47729 22.666 7.63354C23.084 7.78589 23.418 8.05933 23.668 8.45386C23.918 8.84839 24.043 9.29956 24.043 9.80737C24.043 10.4519 23.8535 10.9851 23.4746 11.407C23.0957 11.825 22.5293 12.0886 21.7754 12.198C22.1504 12.4167 22.459 12.657 22.7012 12.9187C22.9473 13.1804 23.2773 13.6453 23.6914 14.3132L24.7402 15.989H22.666L21.4121 14.1199C20.9668 13.4519 20.6621 13.032 20.498 12.8601C20.334 12.6843 20.1602 12.5652 19.9766 12.5027C19.793 12.4363 19.502 12.4031 19.1035 12.4031H18.752V15.989H17.0176ZM18.752 11.032H20.0352C20.8672 11.032 21.3867 10.9968 21.5938 10.9265C21.8008 10.8562 21.9629 10.7351 22.0801 10.5632C22.1973 10.3914 22.2559 10.1765 22.2559 9.9187C22.2559 9.62964 22.1777 9.39722 22.0215 9.22144C21.8691 9.04175 21.6523 8.92847 21.3711 8.88159C21.2305 8.86206 20.8086 8.85229 20.1055 8.85229H18.752V11.032ZM25.6836 15.989V7.39917H32.0527V8.85229H27.418V10.7566H31.7305V12.2039H27.418V14.5417H32.2168V15.989H25.6836ZM33.6875 15.989V7.39917H36.4707C37.5254 7.39917 38.2129 7.44214 38.5332 7.52808C39.0254 7.65698 39.4375 7.93823 39.7695 8.37183C40.1016 8.80151 40.2676 9.35815 40.2676 10.0417C40.2676 10.5691 40.1719 11.0125 39.9805 11.3718C39.7891 11.7312 39.5449 12.0144 39.248 12.2214C38.9551 12.4246 38.6562 12.5593 38.3516 12.6257C37.9375 12.7078 37.3379 12.7488 36.5527 12.7488H35.4219V15.989H33.6875ZM35.4219 8.85229V11.2898H36.3711C37.0547 11.2898 37.5117 11.2449 37.7422 11.155C37.9727 11.0652 38.1523 10.9246 38.2812 10.7332C38.4141 10.5417 38.4805 10.3191 38.4805 10.0652C38.4805 9.75269 38.3887 9.49487 38.2051 9.29175C38.0215 9.08862 37.7891 8.96167 37.5078 8.91089C37.3008 8.87183 36.8848 8.85229 36.2598 8.85229H35.4219ZM41.6973 15.989V7.39917H45.3477C46.2656 7.39917 46.9316 7.47729 47.3457 7.63354C47.7637 7.78589 48.0977 8.05933 48.3477 8.45386C48.5977 8.84839 48.7227 9.29956 48.7227 9.80737C48.7227 10.4519 48.5332 10.9851 48.1543 11.407C47.7754 11.825 47.209 12.0886 46.4551 12.198C46.8301 12.4167 47.1387 12.657 47.3809 12.9187C47.627 13.1804 47.957 13.6453 48.3711 14.3132L49.4199 15.989H47.3457L46.0918 14.1199C45.6465 13.4519 45.3418 13.032 45.1777 12.8601C45.0137 12.6843 44.8398 12.5652 44.6562 12.5027C44.4727 12.4363 44.1816 12.4031 43.7832 12.4031H43.4316V15.989H41.6973ZM43.4316 11.032H44.7148C45.5469 11.032 46.0664 10.9968 46.2734 10.9265C46.4805 10.8562 46.6426 10.7351 46.7598 10.5632C46.877 10.3914 46.9355 10.1765 46.9355 9.9187C46.9355 9.62964 46.8574 9.39722 46.7012 9.22144C46.5488 9.04175 46.332 8.92847 46.0508 8.88159C45.9102 8.86206 45.4883 8.85229 44.7852 8.85229H43.4316V11.032ZM50.0117 11.7468C50.0117 10.8718 50.1426 10.1375 50.4043 9.5437C50.5996 9.1062 50.8652 8.71362 51.2012 8.36597C51.541 8.01831 51.9121 7.7605 52.3145 7.59253C52.8496 7.36597 53.4668 7.25269 54.166 7.25269C55.4316 7.25269 56.4434 7.64526 57.2012 8.43042C57.9629 9.21558 58.3438 10.3074 58.3438 11.7058C58.3438 13.0925 57.9668 14.1785 57.2129 14.9636C56.459 15.7449 55.4512 16.1355 54.1895 16.1355C52.9121 16.1355 51.8965 15.7468 51.1426 14.9695C50.3887 14.1882 50.0117 13.114 50.0117 11.7468ZM51.7988 11.6882C51.7988 12.6609 52.0234 13.3992 52.4727 13.9031C52.9219 14.4031 53.4922 14.6531 54.1836 14.6531C54.875 14.6531 55.4414 14.405 55.8828 13.9089C56.3281 13.4089 56.5508 12.6609 56.5508 11.6648C56.5508 10.6804 56.334 9.94604 55.9004 9.46167C55.4707 8.97729 54.8984 8.73511 54.1836 8.73511C53.4688 8.73511 52.8926 8.9812 52.4551 9.47339C52.0176 9.96167 51.7988 10.7 51.7988 11.6882ZM59.6504 15.989V7.39917H61.3848V15.989H59.6504ZM63.0605 15.989V7.39917H64.748L68.2637 13.1355V7.39917H69.875V15.989H68.1348L64.6719 10.3875V15.989H63.0605ZM71.2754 13.1941L72.9629 13.03C73.0645 13.5964 73.2695 14.0125 73.5781 14.2781C73.8906 14.5437 74.3105 14.6765 74.8379 14.6765C75.3965 14.6765 75.8164 14.5593 76.0977 14.325C76.3828 14.0867 76.5254 13.8093 76.5254 13.4929C76.5254 13.2898 76.4648 13.1179 76.3438 12.9773C76.2266 12.8328 76.0195 12.7078 75.7227 12.6023C75.5195 12.532 75.0566 12.407 74.334 12.2273C73.4043 11.9968 72.752 11.7136 72.377 11.3777C71.8496 10.905 71.5859 10.3289 71.5859 9.64917C71.5859 9.21167 71.709 8.80347 71.9551 8.42456C72.2051 8.04175 72.5625 7.75073 73.0273 7.55151C73.4961 7.35229 74.0605 7.25269 74.7207 7.25269C75.7988 7.25269 76.6094 7.48901 77.1523 7.96167C77.6992 8.43433 77.9863 9.06519 78.0137 9.85425L76.2793 9.93042C76.2051 9.48901 76.0449 9.17261 75.7988 8.9812C75.5566 8.78589 75.1914 8.68823 74.7031 8.68823C74.1992 8.68823 73.8047 8.79175 73.5195 8.99878C73.3359 9.13159 73.2441 9.30933 73.2441 9.53198C73.2441 9.73511 73.3301 9.90894 73.502 10.0535C73.7207 10.2371 74.252 10.4285 75.0957 10.6277C75.9395 10.8269 76.5625 11.0339 76.9648 11.2488C77.3711 11.4597 77.6875 11.7507 77.9141 12.1218C78.1445 12.489 78.2598 12.9441 78.2598 13.4871C78.2598 13.9792 78.123 14.4402 77.8496 14.8699C77.5762 15.2996 77.1895 15.6199 76.6895 15.8308C76.1895 16.0378 75.5664 16.1414 74.8203 16.1414C73.7344 16.1414 72.9004 15.8914 72.3184 15.3914C71.7363 14.8875 71.3887 14.155 71.2754 13.1941ZM79.707 7.39917H81.4414V12.0515C81.4414 12.7898 81.4629 13.2683 81.5059 13.4871C81.5801 13.8386 81.7559 14.1218 82.0332 14.3367C82.3145 14.5476 82.6973 14.6531 83.1816 14.6531C83.6738 14.6531 84.0449 14.5535 84.2949 14.3542C84.5449 14.1511 84.6953 13.9031 84.7461 13.6101C84.7969 13.3171 84.8223 12.8308 84.8223 12.1511V7.39917H86.5566V11.9109C86.5566 12.9421 86.5098 13.6707 86.416 14.0964C86.3223 14.5222 86.1484 14.8816 85.8945 15.1746C85.6445 15.4675 85.3086 15.7019 84.8867 15.8777C84.4648 16.0496 83.9141 16.1355 83.2344 16.1355C82.4141 16.1355 81.791 16.0417 81.3652 15.8542C80.9434 15.6628 80.6094 15.4167 80.3633 15.116C80.1172 14.8113 79.9551 14.4929 79.877 14.1609C79.7637 13.6687 79.707 12.9421 79.707 11.9812V7.39917ZM88.4375 15.989V7.46948H90.1719V14.5417H94.4844V15.989H88.4375ZM95.6738 15.989V7.39917H97.4082V15.989H95.6738ZM99.084 15.989V7.39917H100.771L104.287 13.1355V7.39917H105.898V15.989H104.158L100.695 10.3875V15.989H99.084Z" fill="white"/>
</svg>
