<svg width="49" height="24" viewBox="0 0 49 24" fill="none" xmlns="http://www.w3.org/2000/svg">
<rect x="2" y="1.98901" width="46" height="20" rx="10" fill="url(#paint0_linear_40_2551)"/>
<rect x="2" y="1.98901" width="46" height="20" rx="10" stroke="#2003D2" stroke-width="3" stroke-linejoin="round"/>
<path d="M15.6895 12.8308L17.3711 13.364C17.1133 14.3015 16.6836 14.9988 16.082 15.4558C15.4844 15.9089 14.7246 16.1355 13.8027 16.1355C12.6621 16.1355 11.7246 15.7468 10.9902 14.9695C10.2559 14.1882 9.88867 13.1218 9.88867 11.7703C9.88867 10.3406 10.2578 9.2312 10.9961 8.44214C11.7344 7.64917 12.7051 7.25269 13.9082 7.25269C14.959 7.25269 15.8125 7.56323 16.4688 8.18433C16.8594 8.55151 17.1523 9.07886 17.3477 9.76636L15.6309 10.1765C15.5293 9.7312 15.3164 9.37964 14.9922 9.12183C14.6719 8.86401 14.2812 8.73511 13.8203 8.73511C13.1836 8.73511 12.666 8.96362 12.2676 9.42065C11.873 9.87769 11.6758 10.6179 11.6758 11.6414C11.6758 12.7273 11.8711 13.5007 12.2617 13.9617C12.6523 14.4226 13.1602 14.6531 13.7852 14.6531C14.2461 14.6531 14.6426 14.5066 14.9746 14.2136C15.3066 13.9207 15.5449 13.4597 15.6895 12.8308ZM18.8535 7.39917H20.5879V12.0515C20.5879 12.7898 20.6094 13.2683 20.6523 13.4871C20.7266 13.8386 20.9023 14.1218 21.1797 14.3367C21.4609 14.5476 21.8438 14.6531 22.3281 14.6531C22.8203 14.6531 23.1914 14.5535 23.4414 14.3542C23.6914 14.1511 23.8418 13.9031 23.8926 13.6101C23.9434 13.3171 23.9688 12.8308 23.9688 12.1511V7.39917H25.7031V11.9109C25.7031 12.9421 25.6562 13.6707 25.5625 14.0964C25.4688 14.5222 25.2949 14.8816 25.041 15.1746C24.791 15.4675 24.4551 15.7019 24.0332 15.8777C23.6113 16.0496 23.0605 16.1355 22.3809 16.1355C21.5605 16.1355 20.9375 16.0417 20.5117 15.8542C20.0898 15.6628 19.7559 15.4167 19.5098 15.116C19.2637 14.8113 19.1016 14.4929 19.0234 14.1609C18.9102 13.6687 18.8535 12.9421 18.8535 11.9812V7.39917ZM27.584 15.989V7.46948H29.3184V14.5417H33.6309V15.989H27.584ZM38.7227 15.989H37.0762V9.78394C36.4746 10.3464 35.7656 10.7625 34.9492 11.032V9.53784C35.3789 9.39722 35.8457 9.13159 36.3496 8.74097C36.8535 8.34644 37.1992 7.88745 37.3867 7.36401H38.7227V15.989Z" fill="white"/>
<defs>
<linearGradient id="paint0_linear_40_2551" x1="25" y1="1.98901" x2="25" y2="21.989" gradientUnits="userSpaceOnUse">
<stop stop-color="#2003D2"/>
<stop offset="1" stop-color="#8E2BFF"/>
</linearGradient>
</defs>
</svg>
