<svg width="50" height="24" viewBox="0 0 50 24" fill="none" xmlns="http://www.w3.org/2000/svg">
<rect x="2" y="1.98901" width="47" height="20" rx="10" fill="url(#paint0_linear_64_1858)"/>
<rect x="2" y="1.98901" width="47" height="20" rx="10" stroke="#492CA8" stroke-width="3" stroke-linejoin="round"/>
<path d="M10.043 15.989V7.39917H11.7305L15.2461 13.1355V7.39917H16.8574V15.989H15.1172L11.6543 10.3875V15.989H10.043ZM18.3457 11.7468C18.3457 10.8718 18.4766 10.1375 18.7383 9.5437C18.9336 9.1062 19.1992 8.71362 19.5352 8.36597C19.875 8.01831 20.2461 7.7605 20.6484 7.59253C21.1836 7.36597 21.8008 7.25269 22.5 7.25269C23.7656 7.25269 24.7773 7.64526 25.5352 8.43042C26.2969 9.21558 26.6777 10.3074 26.6777 11.7058C26.6777 13.0925 26.3008 14.1785 25.5469 14.9636C24.793 15.7449 23.7852 16.1355 22.5234 16.1355C21.2461 16.1355 20.2305 15.7468 19.4766 14.9695C18.7227 14.1882 18.3457 13.114 18.3457 11.7468ZM20.1328 11.6882C20.1328 12.6609 20.3574 13.3992 20.8066 13.9031C21.2559 14.4031 21.8262 14.6531 22.5176 14.6531C23.209 14.6531 23.7754 14.405 24.2168 13.9089C24.6621 13.4089 24.8848 12.6609 24.8848 11.6648C24.8848 10.6804 24.668 9.94604 24.2344 9.46167C23.8047 8.97729 23.2324 8.73511 22.5176 8.73511C21.8027 8.73511 21.2266 8.9812 20.7891 9.47339C20.3516 9.96167 20.1328 10.7 20.1328 11.6882ZM27.5977 13.1941L29.2852 13.03C29.3867 13.5964 29.5918 14.0125 29.9004 14.2781C30.2129 14.5437 30.6328 14.6765 31.1602 14.6765C31.7188 14.6765 32.1387 14.5593 32.4199 14.325C32.7051 14.0867 32.8477 13.8093 32.8477 13.4929C32.8477 13.2898 32.7871 13.1179 32.666 12.9773C32.5488 12.8328 32.3418 12.7078 32.0449 12.6023C31.8418 12.532 31.3789 12.407 30.6562 12.2273C29.7266 11.9968 29.0742 11.7136 28.6992 11.3777C28.1719 10.905 27.9082 10.3289 27.9082 9.64917C27.9082 9.21167 28.0312 8.80347 28.2773 8.42456C28.5273 8.04175 28.8848 7.75073 29.3496 7.55151C29.8184 7.35229 30.3828 7.25269 31.043 7.25269C32.1211 7.25269 32.9316 7.48901 33.4746 7.96167C34.0215 8.43433 34.3086 9.06519 34.3359 9.85425L32.6016 9.93042C32.5273 9.48901 32.3672 9.17261 32.1211 8.9812C31.8789 8.78589 31.5137 8.68823 31.0254 8.68823C30.5215 8.68823 30.127 8.79175 29.8418 8.99878C29.6582 9.13159 29.5664 9.30933 29.5664 9.53198C29.5664 9.73511 29.6523 9.90894 29.8242 10.0535C30.043 10.2371 30.5742 10.4285 31.418 10.6277C32.2617 10.8269 32.8848 11.0339 33.2871 11.2488C33.6934 11.4597 34.0098 11.7507 34.2363 12.1218C34.4668 12.489 34.582 12.9441 34.582 13.4871C34.582 13.9792 34.4453 14.4402 34.1719 14.8699C33.8984 15.2996 33.5117 15.6199 33.0117 15.8308C32.5117 16.0378 31.8887 16.1414 31.1426 16.1414C30.0566 16.1414 29.2227 15.8914 28.6406 15.3914C28.0586 14.8875 27.7109 14.155 27.5977 13.1941ZM35.6191 13.7097L37.2129 13.5164C37.2637 13.9226 37.4004 14.2332 37.623 14.448C37.8457 14.6628 38.1152 14.7703 38.4316 14.7703C38.7715 14.7703 39.0566 14.6414 39.2871 14.3835C39.5215 14.1257 39.6387 13.7781 39.6387 13.3406C39.6387 12.9265 39.5273 12.5984 39.3047 12.3562C39.082 12.114 38.8105 11.9929 38.4902 11.9929C38.2793 11.9929 38.0273 12.0339 37.7344 12.116L37.916 10.7742C38.3613 10.7859 38.7012 10.6902 38.9355 10.4871C39.1699 10.28 39.2871 10.0066 39.2871 9.66675C39.2871 9.37769 39.2012 9.14722 39.0293 8.97534C38.8574 8.80347 38.6289 8.71753 38.3438 8.71753C38.0625 8.71753 37.8223 8.81519 37.623 9.0105C37.4238 9.20581 37.3027 9.49097 37.2598 9.86597L35.7422 9.60815C35.8477 9.08862 36.0059 8.67456 36.2168 8.36597C36.4316 8.05347 36.7285 7.80933 37.1074 7.63354C37.4902 7.45386 37.918 7.36401 38.3906 7.36401C39.1992 7.36401 39.8477 7.62183 40.3359 8.13745C40.7383 8.55933 40.9395 9.03589 40.9395 9.56714C40.9395 10.321 40.5273 10.9226 39.7031 11.3718C40.1953 11.4773 40.5879 11.7136 40.8809 12.0808C41.1777 12.448 41.3262 12.8914 41.3262 13.4109C41.3262 14.1648 41.0508 14.8074 40.5 15.3386C39.9492 15.8699 39.2637 16.1355 38.4434 16.1355C37.666 16.1355 37.0215 15.9128 36.5098 15.4675C35.998 15.0183 35.7012 14.4324 35.6191 13.7097Z" fill="white"/>
<defs>
<linearGradient id="paint0_linear_64_1858" x1="25.5" y1="1.98901" x2="25.5" y2="21.989" gradientUnits="userSpaceOnUse">
<stop stop-color="#C2672A"/>
<stop offset="1" stop-color="#492CA8"/>
</linearGradient>
</defs>
</svg>
