<svg width="88" height="24" viewBox="0 0 88 24" fill="none" xmlns="http://www.w3.org/2000/svg">
<rect x="1" y="1.98901" width="86" height="20" rx="10" fill="#DB7FFB"/>
<rect x="1" y="1.98901" width="86" height="20" rx="10" stroke="#FFD000" stroke-width="3" stroke-linejoin="round"/>
<path d="M9.18359 15.989V7.39917H11.9668C13.0215 7.39917 13.709 7.44214 14.0293 7.52808C14.5215 7.65698 14.9336 7.93823 15.2656 8.37183C15.5977 8.80151 15.7637 9.35815 15.7637 10.0417C15.7637 10.5691 15.668 11.0125 15.4766 11.3718C15.2852 11.7312 15.041 12.0144 14.7441 12.2214C14.4512 12.4246 14.1523 12.5593 13.8477 12.6257C13.4336 12.7078 12.834 12.7488 12.0488 12.7488H10.918V15.989H9.18359ZM10.918 8.85229V11.2898H11.8672C12.5508 11.2898 13.0078 11.2449 13.2383 11.155C13.4688 11.0652 13.6484 10.9246 13.7773 10.7332C13.9102 10.5417 13.9766 10.3191 13.9766 10.0652C13.9766 9.75269 13.8848 9.49487 13.7012 9.29175C13.5176 9.08862 13.2852 8.96167 13.0039 8.91089C12.7969 8.87183 12.3809 8.85229 11.7559 8.85229H10.918ZM17.1934 15.989V7.39917H20.8438C21.7617 7.39917 22.4277 7.47729 22.8418 7.63354C23.2598 7.78589 23.5938 8.05933 23.8438 8.45386C24.0938 8.84839 24.2188 9.29956 24.2188 9.80737C24.2188 10.4519 24.0293 10.9851 23.6504 11.407C23.2715 11.825 22.7051 12.0886 21.9512 12.198C22.3262 12.4167 22.6348 12.657 22.877 12.9187C23.123 13.1804 23.4531 13.6453 23.8672 14.3132L24.916 15.989H22.8418L21.5879 14.1199C21.1426 13.4519 20.8379 13.032 20.6738 12.8601C20.5098 12.6843 20.3359 12.5652 20.1523 12.5027C19.9688 12.4363 19.6777 12.4031 19.2793 12.4031H18.9277V15.989H17.1934ZM18.9277 11.032H20.2109C21.043 11.032 21.5625 10.9968 21.7695 10.9265C21.9766 10.8562 22.1387 10.7351 22.2559 10.5632C22.373 10.3914 22.4316 10.1765 22.4316 9.9187C22.4316 9.62964 22.3535 9.39722 22.1973 9.22144C22.0449 9.04175 21.8281 8.92847 21.5469 8.88159C21.4062 8.86206 20.9844 8.85229 20.2812 8.85229H18.9277V11.032ZM25.8594 15.989V7.39917H32.2285V8.85229H27.5938V10.7566H31.9062V12.2039H27.5938V14.5417H32.3926V15.989H25.8594ZM33.8633 15.989V7.39917H36.6465C37.7012 7.39917 38.3887 7.44214 38.709 7.52808C39.2012 7.65698 39.6133 7.93823 39.9453 8.37183C40.2773 8.80151 40.4434 9.35815 40.4434 10.0417C40.4434 10.5691 40.3477 11.0125 40.1562 11.3718C39.9648 11.7312 39.7207 12.0144 39.4238 12.2214C39.1309 12.4246 38.832 12.5593 38.5273 12.6257C38.1133 12.7078 37.5137 12.7488 36.7285 12.7488H35.5977V15.989H33.8633ZM35.5977 8.85229V11.2898H36.5469C37.2305 11.2898 37.6875 11.2449 37.918 11.155C38.1484 11.0652 38.3281 10.9246 38.457 10.7332C38.5898 10.5417 38.6562 10.3191 38.6562 10.0652C38.6562 9.75269 38.5645 9.49487 38.3809 9.29175C38.1973 9.08862 37.9648 8.96167 37.6836 8.91089C37.4766 8.87183 37.0605 8.85229 36.4355 8.85229H35.5977ZM41.873 15.989V7.39917H45.5234C46.4414 7.39917 47.1074 7.47729 47.5215 7.63354C47.9395 7.78589 48.2734 8.05933 48.5234 8.45386C48.7734 8.84839 48.8984 9.29956 48.8984 9.80737C48.8984 10.4519 48.709 10.9851 48.3301 11.407C47.9512 11.825 47.3848 12.0886 46.6309 12.198C47.0059 12.4167 47.3145 12.657 47.5566 12.9187C47.8027 13.1804 48.1328 13.6453 48.5469 14.3132L49.5957 15.989H47.5215L46.2676 14.1199C45.8223 13.4519 45.5176 13.032 45.3535 12.8601C45.1895 12.6843 45.0156 12.5652 44.832 12.5027C44.6484 12.4363 44.3574 12.4031 43.959 12.4031H43.6074V15.989H41.873ZM43.6074 11.032H44.8906C45.7227 11.032 46.2422 10.9968 46.4492 10.9265C46.6562 10.8562 46.8184 10.7351 46.9355 10.5632C47.0527 10.3914 47.1113 10.1765 47.1113 9.9187C47.1113 9.62964 47.0332 9.39722 46.877 9.22144C46.7246 9.04175 46.5078 8.92847 46.2266 8.88159C46.0859 8.86206 45.6641 8.85229 44.9609 8.85229H43.6074V11.032ZM50.1875 11.7468C50.1875 10.8718 50.3184 10.1375 50.5801 9.5437C50.7754 9.1062 51.041 8.71362 51.377 8.36597C51.7168 8.01831 52.0879 7.7605 52.4902 7.59253C53.0254 7.36597 53.6426 7.25269 54.3418 7.25269C55.6074 7.25269 56.6191 7.64526 57.377 8.43042C58.1387 9.21558 58.5195 10.3074 58.5195 11.7058C58.5195 13.0925 58.1426 14.1785 57.3887 14.9636C56.6348 15.7449 55.627 16.1355 54.3652 16.1355C53.0879 16.1355 52.0723 15.7468 51.3184 14.9695C50.5645 14.1882 50.1875 13.114 50.1875 11.7468ZM51.9746 11.6882C51.9746 12.6609 52.1992 13.3992 52.6484 13.9031C53.0977 14.4031 53.668 14.6531 54.3594 14.6531C55.0508 14.6531 55.6172 14.405 56.0586 13.9089C56.5039 13.4089 56.7266 12.6609 56.7266 11.6648C56.7266 10.6804 56.5098 9.94604 56.0762 9.46167C55.6465 8.97729 55.0742 8.73511 54.3594 8.73511C53.6445 8.73511 53.0684 8.9812 52.6309 9.47339C52.1934 9.96167 51.9746 10.7 51.9746 11.6882ZM63.875 12.8308V11.3835H67.6133V14.8054C67.25 15.157 66.7227 15.4675 66.0312 15.7371C65.3438 16.0027 64.6465 16.1355 63.9395 16.1355C63.041 16.1355 62.2578 15.948 61.5898 15.573C60.9219 15.1941 60.4199 14.655 60.084 13.9558C59.748 13.2527 59.5801 12.489 59.5801 11.6648C59.5801 10.7703 59.7676 9.97534 60.1426 9.28003C60.5176 8.58472 61.0664 8.05151 61.7891 7.68042C62.3398 7.39526 63.0254 7.25269 63.8457 7.25269C64.9121 7.25269 65.7441 7.47729 66.3418 7.92651C66.9434 8.37183 67.3301 8.98901 67.502 9.77808L65.7793 10.1003C65.6582 9.67847 65.4297 9.34644 65.0938 9.10425C64.7617 8.85815 64.3457 8.73511 63.8457 8.73511C63.0879 8.73511 62.4844 8.97534 62.0352 9.45581C61.5898 9.93628 61.3672 10.6492 61.3672 11.5945C61.3672 12.614 61.5938 13.3796 62.0469 13.8914C62.5 14.3992 63.0938 14.6531 63.8281 14.6531C64.1914 14.6531 64.5547 14.5828 64.918 14.4421C65.2852 14.2976 65.5996 14.1238 65.8613 13.9207V12.8308H63.875ZM69.166 15.989V7.39917H70.9004V15.989H69.166ZM72.5586 15.989V7.39917H75.3418C76.3965 7.39917 77.084 7.44214 77.4043 7.52808C77.8965 7.65698 78.3086 7.93823 78.6406 8.37183C78.9727 8.80151 79.1387 9.35815 79.1387 10.0417C79.1387 10.5691 79.043 11.0125 78.8516 11.3718C78.6602 11.7312 78.416 12.0144 78.1191 12.2214C77.8262 12.4246 77.5273 12.5593 77.2227 12.6257C76.8086 12.7078 76.209 12.7488 75.4238 12.7488H74.293V15.989H72.5586ZM74.293 8.85229V11.2898H75.2422C75.9258 11.2898 76.3828 11.2449 76.6133 11.155C76.8438 11.0652 77.0234 10.9246 77.1523 10.7332C77.2852 10.5417 77.3516 10.3191 77.3516 10.0652C77.3516 9.75269 77.2598 9.49487 77.0762 9.29175C76.8926 9.08862 76.6602 8.96167 76.3789 8.91089C76.1719 8.87183 75.7559 8.85229 75.1309 8.85229H74.293Z" fill="white"/>
</svg>
