<svg width="69" height="24" viewBox="0 0 69 24" fill="none" xmlns="http://www.w3.org/2000/svg">
<rect x="1" y="1.98901" width="67" height="20" rx="10" fill="url(#paint0_linear_67_1915)"/>
<rect x="1" y="1.98901" width="67" height="20" rx="10" stroke="#E07900" stroke-width="3" stroke-linejoin="round"/>
<path d="M8.91211 13.1941L10.5996 13.03C10.7012 13.5964 10.9062 14.0125 11.2148 14.2781C11.5273 14.5437 11.9473 14.6765 12.4746 14.6765C13.0332 14.6765 13.4531 14.5593 13.7344 14.325C14.0195 14.0867 14.1621 13.8093 14.1621 13.4929C14.1621 13.2898 14.1016 13.1179 13.9805 12.9773C13.8633 12.8328 13.6562 12.7078 13.3594 12.6023C13.1562 12.532 12.6934 12.407 11.9707 12.2273C11.041 11.9968 10.3887 11.7136 10.0137 11.3777C9.48633 10.905 9.22266 10.3289 9.22266 9.64917C9.22266 9.21167 9.3457 8.80347 9.5918 8.42456C9.8418 8.04175 10.1992 7.75073 10.6641 7.55151C11.1328 7.35229 11.6973 7.25269 12.3574 7.25269C13.4355 7.25269 14.2461 7.48901 14.7891 7.96167C15.3359 8.43433 15.623 9.06519 15.6504 9.85425L13.916 9.93042C13.8418 9.48901 13.6816 9.17261 13.4355 8.9812C13.1934 8.78589 12.8281 8.68823 12.3398 8.68823C11.8359 8.68823 11.4414 8.79175 11.1562 8.99878C10.9727 9.13159 10.8809 9.30933 10.8809 9.53198C10.8809 9.73511 10.9668 9.90894 11.1387 10.0535C11.3574 10.2371 11.8887 10.4285 12.7324 10.6277C13.5762 10.8269 14.1992 11.0339 14.6016 11.2488C15.0078 11.4597 15.3242 11.7507 15.5508 12.1218C15.7812 12.489 15.8965 12.9441 15.8965 13.4871C15.8965 13.9792 15.7598 14.4402 15.4863 14.8699C15.2129 15.2996 14.8262 15.6199 14.3262 15.8308C13.8262 16.0378 13.2031 16.1414 12.457 16.1414C11.3711 16.1414 10.5371 15.8914 9.95508 15.3914C9.37305 14.8875 9.02539 14.155 8.91211 13.1941ZM17.332 15.989V7.39917H19.9277L21.4863 13.2585L23.0273 7.39917H25.6289V15.989H24.0176V9.22729L22.3125 15.989H20.6426L18.9434 9.22729V15.989H17.332ZM35.0977 15.989H33.2109L32.4609 14.0378H29.0273L28.3184 15.989H26.4785L29.8242 7.39917H31.6582L35.0977 15.989ZM31.9043 12.5906L30.7207 9.40308L29.5605 12.5906H31.9043ZM36.0176 7.39917H39.1875C39.9023 7.39917 40.4473 7.45386 40.8223 7.56323C41.3262 7.71167 41.7578 7.97534 42.1172 8.35425C42.4766 8.73315 42.75 9.198 42.9375 9.74878C43.125 10.2957 43.2188 10.9714 43.2188 11.7761C43.2188 12.4832 43.1309 13.0925 42.9551 13.6042C42.7402 14.2292 42.4336 14.7351 42.0352 15.1218C41.7344 15.4148 41.3281 15.6433 40.8164 15.8074C40.4336 15.9285 39.9219 15.989 39.2812 15.989H36.0176V7.39917ZM37.752 8.85229V14.5417H39.0469C39.5312 14.5417 39.8809 14.5144 40.0957 14.4597C40.377 14.3894 40.6094 14.2703 40.793 14.1023C40.9805 13.9343 41.1328 13.6589 41.25 13.2761C41.3672 12.8894 41.4258 12.364 41.4258 11.7C41.4258 11.0359 41.3672 10.5261 41.25 10.1707C41.1328 9.81519 40.9688 9.53784 40.7578 9.33862C40.5469 9.1394 40.2793 9.00464 39.9551 8.93433C39.7129 8.87964 39.2383 8.85229 38.5312 8.85229H37.752ZM49.8926 14.4597V15.989H44.1211C44.1836 15.4109 44.3711 14.864 44.6836 14.3484C44.9961 13.8289 45.6133 13.1414 46.5352 12.2859C47.2773 11.5945 47.7324 11.1257 47.9004 10.8796C48.127 10.5398 48.2402 10.2039 48.2402 9.87183C48.2402 9.50464 48.1406 9.22339 47.9414 9.02808C47.7461 8.82886 47.4746 8.72925 47.127 8.72925C46.7832 8.72925 46.5098 8.83276 46.3066 9.03979C46.1035 9.24683 45.9863 9.59058 45.9551 10.071L44.3145 9.90698C44.4121 9.00073 44.7188 8.35034 45.2344 7.95581C45.75 7.56128 46.3945 7.36401 47.168 7.36401C48.0156 7.36401 48.6816 7.59253 49.166 8.04956C49.6504 8.50659 49.8926 9.07495 49.8926 9.75464C49.8926 10.1414 49.8223 10.5105 49.6816 10.8621C49.5449 11.2097 49.3262 11.575 49.0254 11.9578C48.8262 12.2117 48.4668 12.5769 47.9473 13.0535C47.4277 13.53 47.0977 13.8464 46.957 14.0027C46.8203 14.1589 46.709 14.3113 46.623 14.4597H49.8926ZM51.3223 14.3425H52.9688V15.5203C52.9688 15.9968 52.9277 16.3718 52.8457 16.6453C52.7637 16.9226 52.6074 17.1707 52.377 17.3894C52.1504 17.6082 51.8613 17.78 51.5098 17.905L51.1875 17.2253C51.5195 17.116 51.7559 16.9656 51.8965 16.7742C52.0371 16.5828 52.1113 16.321 52.1191 15.989H51.3223V14.3425ZM54.293 13.7097L55.8867 13.5164C55.9375 13.9226 56.0742 14.2332 56.2969 14.448C56.5195 14.6628 56.7891 14.7703 57.1055 14.7703C57.4453 14.7703 57.7305 14.6414 57.9609 14.3835C58.1953 14.1257 58.3125 13.7781 58.3125 13.3406C58.3125 12.9265 58.2012 12.5984 57.9785 12.3562C57.7559 12.114 57.4844 11.9929 57.1641 11.9929C56.9531 11.9929 56.7012 12.0339 56.4082 12.116L56.5898 10.7742C57.0352 10.7859 57.375 10.6902 57.6094 10.4871C57.8438 10.28 57.9609 10.0066 57.9609 9.66675C57.9609 9.37769 57.875 9.14722 57.7031 8.97534C57.5312 8.80347 57.3027 8.71753 57.0176 8.71753C56.7363 8.71753 56.4961 8.81519 56.2969 9.0105C56.0977 9.20581 55.9766 9.49097 55.9336 9.86597L54.416 9.60815C54.5215 9.08862 54.6797 8.67456 54.8906 8.36597C55.1055 8.05347 55.4023 7.80933 55.7812 7.63354C56.1641 7.45386 56.5918 7.36401 57.0645 7.36401C57.873 7.36401 58.5215 7.62183 59.0098 8.13745C59.4121 8.55933 59.6133 9.03589 59.6133 9.56714C59.6133 10.321 59.2012 10.9226 58.377 11.3718C58.8691 11.4773 59.2617 11.7136 59.5547 12.0808C59.8516 12.448 60 12.8914 60 13.4109C60 14.1648 59.7246 14.8074 59.1738 15.3386C58.623 15.8699 57.9375 16.1355 57.1172 16.1355C56.3398 16.1355 55.6953 15.9128 55.1836 15.4675C54.6719 15.0183 54.375 14.4324 54.293 13.7097Z" fill="white"/>
<defs>
<linearGradient id="paint0_linear_67_1915" x1="34.5" y1="1.98901" x2="34.5" y2="21.989" gradientUnits="userSpaceOnUse">
<stop stop-color="#E07900"/>
<stop offset="1" stop-color="#3EAD85"/>
</linearGradient>
</defs>
</svg>
