<svg width="58" height="24" viewBox="0 0 58 24" fill="none" xmlns="http://www.w3.org/2000/svg">
<rect x="2" y="1.98901" width="55" height="20" rx="10" fill="url(#paint0_linear_84_2034)"/>
<rect x="2" y="1.98901" width="55" height="20" rx="10" stroke="#2A006F" stroke-width="3" stroke-linejoin="round"/>
<path d="M12.2969 15.989V8.85229H9.74805V7.39917H16.5742V8.85229H14.0312V15.989H12.2969ZM17.7051 15.989V7.39917H21.3555C22.2734 7.39917 22.9395 7.47729 23.3535 7.63354C23.7715 7.78589 24.1055 8.05933 24.3555 8.45386C24.6055 8.84839 24.7305 9.29956 24.7305 9.80737C24.7305 10.4519 24.541 10.9851 24.1621 11.407C23.7832 11.825 23.2168 12.0886 22.4629 12.198C22.8379 12.4167 23.1465 12.657 23.3887 12.9187C23.6348 13.1804 23.9648 13.6453 24.3789 14.3132L25.4277 15.989H23.3535L22.0996 14.1199C21.6543 13.4519 21.3496 13.032 21.1855 12.8601C21.0215 12.6843 20.8477 12.5652 20.6641 12.5027C20.4805 12.4363 20.1895 12.4031 19.791 12.4031H19.4395V15.989H17.7051ZM19.4395 11.032H20.7227C21.5547 11.032 22.0742 10.9968 22.2812 10.9265C22.4883 10.8562 22.6504 10.7351 22.7676 10.5632C22.8848 10.3914 22.9434 10.1765 22.9434 9.9187C22.9434 9.62964 22.8652 9.39722 22.709 9.22144C22.5566 9.04175 22.3398 8.92847 22.0586 8.88159C21.918 8.86206 21.4961 8.85229 20.793 8.85229H19.4395V11.032ZM26.3477 15.989V7.39917H28.9434L30.502 13.2585L32.043 7.39917H34.6445V15.989H33.0332V9.22729L31.3281 15.989H29.6582L27.959 9.22729V15.989H26.3477ZM36.0391 14.0027L37.6328 13.8269C37.6719 14.1511 37.7734 14.3914 37.9375 14.5476C38.1016 14.7039 38.3184 14.782 38.5879 14.782C38.9277 14.782 39.2168 14.6257 39.4551 14.3132C39.6934 14.0007 39.8457 13.3523 39.9121 12.3679C39.498 12.8484 38.9805 13.0886 38.3594 13.0886C37.6836 13.0886 37.0996 12.8289 36.6074 12.3093C36.1191 11.7859 35.875 11.1062 35.875 10.2703C35.875 9.39917 36.1328 8.698 36.6484 8.16675C37.168 7.63159 37.8281 7.36401 38.6289 7.36401C39.5 7.36401 40.2148 7.7019 40.7734 8.37769C41.332 9.04956 41.6113 10.157 41.6113 11.7C41.6113 13.2703 41.3203 14.4031 40.7383 15.0984C40.1562 15.7937 39.3984 16.1414 38.4648 16.1414C37.793 16.1414 37.25 15.9636 36.8359 15.6082C36.4219 15.2488 36.1562 14.7136 36.0391 14.0027ZM39.7656 10.405C39.7656 9.87378 39.6426 9.46167 39.3965 9.1687C39.1543 8.87573 38.873 8.72925 38.5527 8.72925C38.248 8.72925 37.9941 8.85034 37.791 9.09253C37.5918 9.33081 37.4922 9.72339 37.4922 10.2703C37.4922 10.825 37.6016 11.2332 37.8203 11.4949C38.0391 11.7527 38.3125 11.8816 38.6406 11.8816C38.957 11.8816 39.2227 11.7566 39.4375 11.5066C39.6562 11.2566 39.7656 10.8894 39.7656 10.405ZM43.0938 15.989V7.46948H44.8281V14.5417H49.1406V15.989H43.0938Z" fill="white"/>
<defs>
<linearGradient id="paint0_linear_84_2034" x1="29.5" y1="1.98901" x2="29.5" y2="21.989" gradientUnits="userSpaceOnUse">
<stop stop-color="#2A006F"/>
<stop offset="1" stop-color="#CF95C4"/>
</linearGradient>
</defs>
</svg>
