<svg width="38" height="24" viewBox="0 0 38 24" fill="none" xmlns="http://www.w3.org/2000/svg">
<rect x="2" y="1.98901" width="35" height="20" rx="10" fill="url(#paint0_linear_42_2642)"/>
<rect x="2" y="1.98901" width="35" height="20" rx="10" stroke="#7768FF" stroke-width="3" stroke-linejoin="round"/>
<path d="M10.0371 15.989V7.39917H15.9258V8.85229H11.7715V10.8855H15.3574V12.3386H11.7715V15.989H10.0371ZM17.0332 14.0027L18.627 13.8269C18.666 14.1511 18.7676 14.3914 18.9316 14.5476C19.0957 14.7039 19.3125 14.782 19.582 14.782C19.9219 14.782 20.2109 14.6257 20.4492 14.3132C20.6875 14.0007 20.8398 13.3523 20.9062 12.3679C20.4922 12.8484 19.9746 13.0886 19.3535 13.0886C18.6777 13.0886 18.0938 12.8289 17.6016 12.3093C17.1133 11.7859 16.8691 11.1062 16.8691 10.2703C16.8691 9.39917 17.127 8.698 17.6426 8.16675C18.1621 7.63159 18.8223 7.36401 19.623 7.36401C20.4941 7.36401 21.209 7.7019 21.7676 8.37769C22.3262 9.04956 22.6055 10.157 22.6055 11.7C22.6055 13.2703 22.3145 14.4031 21.7324 15.0984C21.1504 15.7937 20.3926 16.1414 19.459 16.1414C18.7871 16.1414 18.2441 15.9636 17.8301 15.6082C17.416 15.2488 17.1504 14.7136 17.0332 14.0027ZM20.7598 10.405C20.7598 9.87378 20.6367 9.46167 20.3906 9.1687C20.1484 8.87573 19.8672 8.72925 19.5469 8.72925C19.2422 8.72925 18.9883 8.85034 18.7852 9.09253C18.5859 9.33081 18.4863 9.72339 18.4863 10.2703C18.4863 10.825 18.5957 11.2332 18.8145 11.4949C19.0332 11.7527 19.3066 11.8816 19.6348 11.8816C19.9512 11.8816 20.2168 11.7566 20.4316 11.5066C20.6504 11.2566 20.7598 10.8894 20.7598 10.405ZM25.2598 11.6648L23.7656 11.3953C23.9336 10.7937 24.2227 10.3484 24.6328 10.0593C25.043 9.77026 25.6523 9.62573 26.4609 9.62573C27.1953 9.62573 27.7422 9.71362 28.1016 9.8894C28.4609 10.0613 28.7129 10.282 28.8574 10.5515C29.0059 10.8171 29.0801 11.3074 29.0801 12.0222L29.0625 13.9441C29.0625 14.491 29.0879 14.8953 29.1387 15.157C29.1934 15.4148 29.293 15.6921 29.4375 15.989H27.8086C27.7656 15.8796 27.7129 15.7175 27.6504 15.5027C27.623 15.405 27.6035 15.3406 27.5918 15.3093C27.3105 15.5828 27.0098 15.7878 26.6895 15.9246C26.3691 16.0613 26.0273 16.1296 25.6641 16.1296C25.0234 16.1296 24.5176 15.9558 24.1465 15.6082C23.7793 15.2605 23.5957 14.821 23.5957 14.2898C23.5957 13.9382 23.6797 13.6257 23.8477 13.3523C24.0156 13.075 24.25 12.864 24.5508 12.7195C24.8555 12.571 25.293 12.4421 25.8633 12.3328C26.6328 12.1882 27.166 12.0535 27.4629 11.9285V11.7644C27.4629 11.448 27.3848 11.2234 27.2285 11.0906C27.0723 10.9539 26.7773 10.8855 26.3438 10.8855C26.0508 10.8855 25.8223 10.9441 25.6582 11.0613C25.4941 11.1746 25.3613 11.3757 25.2598 11.6648ZM27.4629 13.0007C27.252 13.071 26.918 13.155 26.4609 13.2527C26.0039 13.3503 25.7051 13.446 25.5645 13.5398C25.3496 13.6921 25.2422 13.8855 25.2422 14.1199C25.2422 14.3503 25.3281 14.5496 25.5 14.7175C25.6719 14.8855 25.8906 14.9695 26.1562 14.9695C26.4531 14.9695 26.7363 14.8718 27.0059 14.6765C27.2051 14.5281 27.3359 14.3464 27.3984 14.1316C27.4414 13.991 27.4629 13.7234 27.4629 13.3289V13.0007Z" fill="white"/>
<defs>
<linearGradient id="paint0_linear_42_2642" x1="19.5" y1="1.98901" x2="19.5" y2="21.989" gradientUnits="userSpaceOnUse">
<stop stop-color="#2F5F5B"/>
<stop offset="1" stop-color="#7768FF"/>
</linearGradient>
</defs>
</svg>
