<svg width="69" height="24" viewBox="0 0 69 24" fill="none" xmlns="http://www.w3.org/2000/svg">
<rect x="1" y="1.98901" width="67" height="20" rx="10" fill="url(#paint0_linear_45_4221)"/>
<rect x="1" y="1.98901" width="67" height="20" rx="10" stroke="#FF9914" stroke-width="3" stroke-linejoin="round"/>
<path d="M13.3477 12.8308V11.3835H17.0859V14.8054C16.7227 15.157 16.1953 15.4675 15.5039 15.7371C14.8164 16.0027 14.1191 16.1355 13.4121 16.1355C12.5137 16.1355 11.7305 15.948 11.0625 15.573C10.3945 15.1941 9.89258 14.655 9.55664 13.9558C9.2207 13.2527 9.05273 12.489 9.05273 11.6648C9.05273 10.7703 9.24023 9.97534 9.61523 9.28003C9.99023 8.58472 10.5391 8.05151 11.2617 7.68042C11.8125 7.39526 12.498 7.25269 13.3184 7.25269C14.3848 7.25269 15.2168 7.47729 15.8145 7.92651C16.416 8.37183 16.8027 8.98901 16.9746 9.77808L15.252 10.1003C15.1309 9.67847 14.9023 9.34644 14.5664 9.10425C14.2344 8.85815 13.8184 8.73511 13.3184 8.73511C12.5605 8.73511 11.957 8.97534 11.5078 9.45581C11.0625 9.93628 10.8398 10.6492 10.8398 11.5945C10.8398 12.614 11.0664 13.3796 11.5195 13.8914C11.9727 14.3992 12.5664 14.6531 13.3008 14.6531C13.6641 14.6531 14.0273 14.5828 14.3906 14.4421C14.7578 14.2976 15.0723 14.1238 15.334 13.9207V12.8308H13.3477ZM18.4922 13.698V12.0515H21.7266V13.698H18.4922ZM23.9062 11.6648L22.4121 11.3953C22.5801 10.7937 22.8691 10.3484 23.2793 10.0593C23.6895 9.77026 24.2988 9.62573 25.1074 9.62573C25.8418 9.62573 26.3887 9.71362 26.748 9.8894C27.1074 10.0613 27.3594 10.282 27.5039 10.5515C27.6523 10.8171 27.7266 11.3074 27.7266 12.0222L27.709 13.9441C27.709 14.491 27.7344 14.8953 27.7852 15.157C27.8398 15.4148 27.9395 15.6921 28.084 15.989H26.4551C26.4121 15.8796 26.3594 15.7175 26.2969 15.5027C26.2695 15.405 26.25 15.3406 26.2383 15.3093C25.957 15.5828 25.6562 15.7878 25.3359 15.9246C25.0156 16.0613 24.6738 16.1296 24.3105 16.1296C23.6699 16.1296 23.1641 15.9558 22.793 15.6082C22.4258 15.2605 22.2422 14.821 22.2422 14.2898C22.2422 13.9382 22.3262 13.6257 22.4941 13.3523C22.6621 13.075 22.8965 12.864 23.1973 12.7195C23.502 12.571 23.9395 12.4421 24.5098 12.3328C25.2793 12.1882 25.8125 12.0535 26.1094 11.9285V11.7644C26.1094 11.448 26.0312 11.2234 25.875 11.0906C25.7188 10.9539 25.4238 10.8855 24.9902 10.8855C24.6973 10.8855 24.4688 10.9441 24.3047 11.0613C24.1406 11.1746 24.0078 11.3757 23.9062 11.6648ZM26.1094 13.0007C25.8984 13.071 25.5645 13.155 25.1074 13.2527C24.6504 13.3503 24.3516 13.446 24.2109 13.5398C23.9961 13.6921 23.8887 13.8855 23.8887 14.1199C23.8887 14.3503 23.9746 14.5496 24.1465 14.7175C24.3184 14.8855 24.5371 14.9695 24.8027 14.9695C25.0996 14.9695 25.3828 14.8718 25.6523 14.6765C25.8516 14.5281 25.9824 14.3464 26.0449 14.1316C26.0879 13.991 26.1094 13.7234 26.1094 13.3289V13.0007ZM29.3555 15.989V7.39917H31.002V15.989H29.3555ZM32.6484 9.76636H34.1836V10.6804C34.3828 10.3679 34.6523 10.114 34.9922 9.9187C35.332 9.72339 35.709 9.62573 36.123 9.62573C36.8457 9.62573 37.459 9.90894 37.9629 10.4753C38.4668 11.0417 38.7188 11.8308 38.7188 12.8425C38.7188 13.8816 38.4648 14.6902 37.957 15.2683C37.4492 15.8425 36.834 16.1296 36.1113 16.1296C35.7676 16.1296 35.4551 16.0613 35.1738 15.9246C34.8965 15.7878 34.6035 15.5535 34.2949 15.2214V18.3562H32.6484V9.76636ZM34.2773 12.7722C34.2773 13.4714 34.416 13.989 34.6934 14.325C34.9707 14.657 35.3086 14.823 35.707 14.823C36.0898 14.823 36.4082 14.6707 36.6621 14.366C36.916 14.0574 37.043 13.5535 37.043 12.8542C37.043 12.2019 36.9121 11.7175 36.6504 11.4011C36.3887 11.0847 36.0645 10.9265 35.6777 10.9265C35.2754 10.9265 34.9414 11.0828 34.6758 11.3953C34.4102 11.7039 34.2773 12.1628 34.2773 12.7722ZM41.6719 7.39917V10.5574C42.2031 9.93628 42.8379 9.62573 43.5762 9.62573C43.9551 9.62573 44.2969 9.69604 44.6016 9.83667C44.9062 9.97729 45.1348 10.157 45.2871 10.3757C45.4434 10.5945 45.5488 10.8367 45.6035 11.1023C45.6621 11.3679 45.6914 11.78 45.6914 12.3386V15.989H44.0449V12.7019C44.0449 12.0496 44.0137 11.6355 43.9512 11.4597C43.8887 11.2839 43.7773 11.1453 43.6172 11.0437C43.4609 10.9382 43.2637 10.8855 43.0254 10.8855C42.752 10.8855 42.5078 10.9519 42.293 11.0847C42.0781 11.2175 41.9199 11.4187 41.8184 11.6882C41.7207 11.9539 41.6719 12.3484 41.6719 12.8718V15.989H40.0254V7.39917H41.6719ZM48.5977 11.6648L47.1035 11.3953C47.2715 10.7937 47.5605 10.3484 47.9707 10.0593C48.3809 9.77026 48.9902 9.62573 49.7988 9.62573C50.5332 9.62573 51.0801 9.71362 51.4395 9.8894C51.7988 10.0613 52.0508 10.282 52.1953 10.5515C52.3438 10.8171 52.418 11.3074 52.418 12.0222L52.4004 13.9441C52.4004 14.491 52.4258 14.8953 52.4766 15.157C52.5312 15.4148 52.6309 15.6921 52.7754 15.989H51.1465C51.1035 15.8796 51.0508 15.7175 50.9883 15.5027C50.9609 15.405 50.9414 15.3406 50.9297 15.3093C50.6484 15.5828 50.3477 15.7878 50.0273 15.9246C49.707 16.0613 49.3652 16.1296 49.002 16.1296C48.3613 16.1296 47.8555 15.9558 47.4844 15.6082C47.1172 15.2605 46.9336 14.821 46.9336 14.2898C46.9336 13.9382 47.0176 13.6257 47.1855 13.3523C47.3535 13.075 47.5879 12.864 47.8887 12.7195C48.1934 12.571 48.6309 12.4421 49.2012 12.3328C49.9707 12.1882 50.5039 12.0535 50.8008 11.9285V11.7644C50.8008 11.448 50.7227 11.2234 50.5664 11.0906C50.4102 10.9539 50.1152 10.8855 49.6816 10.8855C49.3887 10.8855 49.1602 10.9441 48.9961 11.0613C48.832 11.1746 48.6992 11.3757 48.5977 11.6648ZM50.8008 13.0007C50.5898 13.071 50.2559 13.155 49.7988 13.2527C49.3418 13.3503 49.043 13.446 48.9023 13.5398C48.6875 13.6921 48.5801 13.8855 48.5801 14.1199C48.5801 14.3503 48.666 14.5496 48.8379 14.7175C49.0098 14.8855 49.2285 14.9695 49.4941 14.9695C49.791 14.9695 50.0742 14.8718 50.3438 14.6765C50.543 14.5281 50.6738 14.3464 50.7363 14.1316C50.7793 13.991 50.8008 13.7234 50.8008 13.3289V13.0007ZM53.8594 13.698V12.0515H57.0938V13.698H53.8594ZM58.043 8.92261V7.39917H59.6895V8.92261H58.043ZM58.043 15.989V9.76636H59.6895V15.989H58.043Z" fill="white"/>
<defs>
<linearGradient id="paint0_linear_45_4221" x1="34.5" y1="1.98901" x2="34.5" y2="21.989" gradientUnits="userSpaceOnUse">
<stop stop-color="#5C92E2"/>
<stop offset="1" stop-color="#FF9914"/>
</linearGradient>
</defs>
</svg>
