<svg width="90" height="36" viewBox="0 0 90 36" fill="none" xmlns="http://www.w3.org/2000/svg">
<rect x="2" y="1.98901" width="87" height="32" rx="10" fill="url(#paint0_linear_83_1980)"/>
<rect x="2" y="1.98901" width="87" height="32" rx="10" stroke="#823AC9" stroke-width="3" stroke-linejoin="round"/>
<path d="M9.69336 12.1941L11.3809 12.03C11.4824 12.5964 11.6875 13.0125 11.9961 13.2781C12.3086 13.5437 12.7285 13.6765 13.2559 13.6765C13.8145 13.6765 14.2344 13.5593 14.5156 13.325C14.8008 13.0867 14.9434 12.8093 14.9434 12.4929C14.9434 12.2898 14.8828 12.1179 14.7617 11.9773C14.6445 11.8328 14.4375 11.7078 14.1406 11.6023C13.9375 11.532 13.4746 11.407 12.752 11.2273C11.8223 10.9968 11.1699 10.7136 10.7949 10.3777C10.2676 9.90503 10.0039 9.32886 10.0039 8.64917C10.0039 8.21167 10.127 7.80347 10.373 7.42456C10.623 7.04175 10.9805 6.75073 11.4453 6.55151C11.9141 6.35229 12.4785 6.25269 13.1387 6.25269C14.2168 6.25269 15.0273 6.48901 15.5703 6.96167C16.1172 7.43433 16.4043 8.06519 16.4316 8.85425L14.6973 8.93042C14.623 8.48901 14.4629 8.17261 14.2168 7.9812C13.9746 7.78589 13.6094 7.68823 13.1211 7.68823C12.6172 7.68823 12.2227 7.79175 11.9375 7.99878C11.7539 8.13159 11.6621 8.30933 11.6621 8.53198C11.6621 8.73511 11.748 8.90894 11.9199 9.05347C12.1387 9.23706 12.6699 9.42847 13.5137 9.62769C14.3574 9.8269 14.9805 10.0339 15.3828 10.2488C15.7891 10.4597 16.1055 10.7507 16.332 11.1218C16.5625 11.489 16.6777 11.9441 16.6777 12.4871C16.6777 12.9792 16.541 13.4402 16.2676 13.8699C15.9941 14.2996 15.6074 14.6199 15.1074 14.8308C14.6074 15.0378 13.9844 15.1414 13.2383 15.1414C12.1523 15.1414 11.3184 14.8914 10.7363 14.3914C10.1543 13.8875 9.80664 13.155 9.69336 12.1941ZM18.125 6.39917H19.8594V11.0515C19.8594 11.7898 19.8809 12.2683 19.9238 12.4871C19.998 12.8386 20.1738 13.1218 20.4512 13.3367C20.7324 13.5476 21.1152 13.6531 21.5996 13.6531C22.0918 13.6531 22.4629 13.5535 22.7129 13.3542C22.9629 13.1511 23.1133 12.9031 23.1641 12.6101C23.2148 12.3171 23.2402 11.8308 23.2402 11.1511V6.39917H24.9746V10.9109C24.9746 11.9421 24.9277 12.6707 24.834 13.0964C24.7402 13.5222 24.5664 13.8816 24.3125 14.1746C24.0625 14.4675 23.7266 14.7019 23.3047 14.8777C22.8828 15.0496 22.332 15.1355 21.6523 15.1355C20.832 15.1355 20.209 15.0417 19.7832 14.8542C19.3613 14.6628 19.0273 14.4167 18.7812 14.116C18.5352 13.8113 18.373 13.4929 18.2949 13.1609C18.1816 12.6687 18.125 11.9421 18.125 10.9812V6.39917ZM26.8145 6.39917H30.248C30.9277 6.39917 31.4336 6.42847 31.7656 6.48706C32.1016 6.54175 32.4004 6.65894 32.6621 6.83862C32.9277 7.01831 33.1484 7.25854 33.3242 7.55933C33.5 7.8562 33.5879 8.19019 33.5879 8.56128C33.5879 8.96362 33.4785 9.33276 33.2598 9.6687C33.0449 10.0046 32.752 10.2566 32.3809 10.4246C32.9043 10.5769 33.3066 10.8367 33.5879 11.2039C33.8691 11.571 34.0098 12.0027 34.0098 12.4988C34.0098 12.8894 33.918 13.2703 33.7344 13.6414C33.5547 14.0085 33.3066 14.3035 32.9902 14.5261C32.6777 14.7449 32.291 14.8796 31.8301 14.9304C31.541 14.9617 30.8438 14.9812 29.7383 14.989H26.8145V6.39917ZM28.5488 7.82886V9.81519H29.6855C30.3613 9.81519 30.7812 9.80542 30.9453 9.78589C31.2422 9.75073 31.4746 9.64917 31.6426 9.4812C31.8145 9.30933 31.9004 9.08472 31.9004 8.80737C31.9004 8.54175 31.8262 8.3269 31.6777 8.16284C31.5332 7.99487 31.3164 7.89331 31.0273 7.85815C30.8555 7.83862 30.3613 7.82886 29.5449 7.82886H28.5488ZM28.5488 11.2449V13.5417H30.1543C30.7793 13.5417 31.1758 13.5242 31.3438 13.489C31.6016 13.4421 31.8105 13.3289 31.9707 13.1492C32.1348 12.9656 32.2168 12.7214 32.2168 12.4167C32.2168 12.1589 32.1543 11.9402 32.0293 11.7605C31.9043 11.5808 31.7227 11.45 31.4844 11.3679C31.25 11.2859 30.7383 11.2449 29.9492 11.2449H28.5488ZM35.041 12.1941L36.7285 12.03C36.8301 12.5964 37.0352 13.0125 37.3438 13.2781C37.6562 13.5437 38.0762 13.6765 38.6035 13.6765C39.1621 13.6765 39.582 13.5593 39.8633 13.325C40.1484 13.0867 40.291 12.8093 40.291 12.4929C40.291 12.2898 40.2305 12.1179 40.1094 11.9773C39.9922 11.8328 39.7852 11.7078 39.4883 11.6023C39.2852 11.532 38.8223 11.407 38.0996 11.2273C37.1699 10.9968 36.5176 10.7136 36.1426 10.3777C35.6152 9.90503 35.3516 9.32886 35.3516 8.64917C35.3516 8.21167 35.4746 7.80347 35.7207 7.42456C35.9707 7.04175 36.3281 6.75073 36.793 6.55151C37.2617 6.35229 37.8262 6.25269 38.4863 6.25269C39.5645 6.25269 40.375 6.48901 40.918 6.96167C41.4648 7.43433 41.752 8.06519 41.7793 8.85425L40.0449 8.93042C39.9707 8.48901 39.8105 8.17261 39.5645 7.9812C39.3223 7.78589 38.957 7.68823 38.4688 7.68823C37.9648 7.68823 37.5703 7.79175 37.2852 7.99878C37.1016 8.13159 37.0098 8.30933 37.0098 8.53198C37.0098 8.73511 37.0957 8.90894 37.2676 9.05347C37.4863 9.23706 38.0176 9.42847 38.8613 9.62769C39.7051 9.8269 40.3281 10.0339 40.7305 10.2488C41.1367 10.4597 41.4531 10.7507 41.6797 11.1218C41.9102 11.489 42.0254 11.9441 42.0254 12.4871C42.0254 12.9792 41.8887 13.4402 41.6152 13.8699C41.3418 14.2996 40.9551 14.6199 40.4551 14.8308C39.9551 15.0378 39.332 15.1414 38.5859 15.1414C37.5 15.1414 36.666 14.8914 36.084 14.3914C35.502 13.8875 35.1543 13.155 35.041 12.1941ZM45.418 14.989V7.85229H42.8691V6.39917H49.6953V7.85229H47.1523V14.989H45.418ZM50.8262 14.989V6.39917H54.4766C55.3945 6.39917 56.0605 6.47729 56.4746 6.63354C56.8926 6.78589 57.2266 7.05933 57.4766 7.45386C57.7266 7.84839 57.8516 8.29956 57.8516 8.80737C57.8516 9.4519 57.6621 9.98511 57.2832 10.407C56.9043 10.825 56.3379 11.0886 55.584 11.198C55.959 11.4167 56.2676 11.657 56.5098 11.9187C56.7559 12.1804 57.0859 12.6453 57.5 13.3132L58.5488 14.989H56.4746L55.2207 13.1199C54.7754 12.4519 54.4707 12.032 54.3066 11.8601C54.1426 11.6843 53.9688 11.5652 53.7852 11.5027C53.6016 11.4363 53.3105 11.4031 52.9121 11.4031H52.5605V14.989H50.8262ZM52.5605 10.032H53.8438C54.6758 10.032 55.1953 9.99683 55.4023 9.92651C55.6094 9.8562 55.7715 9.73511 55.8887 9.56323C56.0059 9.39136 56.0645 9.17651 56.0645 8.9187C56.0645 8.62964 55.9863 8.39722 55.8301 8.22144C55.6777 8.04175 55.4609 7.92847 55.1797 7.88159C55.0391 7.86206 54.6172 7.85229 53.9141 7.85229H52.5605V10.032ZM67.2383 14.989H65.3516L64.6016 13.0378H61.168L60.459 14.989H58.6191L61.9648 6.39917H63.7988L67.2383 14.989ZM64.0449 11.5906L62.8613 8.40308L61.7012 11.5906H64.0449ZM69.207 14.989V7.85229H66.6582V6.39917H73.4844V7.85229H70.9414V14.989H69.207ZM74.6094 14.989V6.39917H80.9785V7.85229H76.3438V9.75659H80.6562V11.2039H76.3438V13.5417H81.1426V14.989H74.6094ZM19.6895 28.989V20.3992H22.4727C23.5273 20.3992 24.2148 20.4421 24.5352 20.5281C25.0273 20.657 25.4395 20.9382 25.7715 21.3718C26.1035 21.8015 26.2695 22.3582 26.2695 23.0417C26.2695 23.5691 26.1738 24.0125 25.9824 24.3718C25.791 24.7312 25.5469 25.0144 25.25 25.2214C24.957 25.4246 24.6582 25.5593 24.3535 25.6257C23.9395 25.7078 23.3398 25.7488 22.5547 25.7488H21.4238V28.989H19.6895ZM21.4238 21.8523V24.2898H22.373C23.0566 24.2898 23.5137 24.2449 23.7441 24.155C23.9746 24.0652 24.1543 23.9246 24.2832 23.7332C24.416 23.5417 24.4824 23.3191 24.4824 23.0652C24.4824 22.7527 24.3906 22.4949 24.207 22.2917C24.0234 22.0886 23.791 21.9617 23.5098 21.9109C23.3027 21.8718 22.8867 21.8523 22.2617 21.8523H21.4238ZM27.6992 28.989V20.3992H31.3496C32.2676 20.3992 32.9336 20.4773 33.3477 20.6335C33.7656 20.7859 34.0996 21.0593 34.3496 21.4539C34.5996 21.8484 34.7246 22.2996 34.7246 22.8074C34.7246 23.4519 34.5352 23.9851 34.1562 24.407C33.7773 24.825 33.2109 25.0886 32.457 25.198C32.832 25.4167 33.1406 25.657 33.3828 25.9187C33.6289 26.1804 33.959 26.6453 34.373 27.3132L35.4219 28.989H33.3477L32.0938 27.1199C31.6484 26.4519 31.3438 26.032 31.1797 25.8601C31.0156 25.6843 30.8418 25.5652 30.6582 25.5027C30.4746 25.4363 30.1836 25.4031 29.7852 25.4031H29.4336V28.989H27.6992ZM29.4336 24.032H30.7168C31.5488 24.032 32.0684 23.9968 32.2754 23.9265C32.4824 23.8562 32.6445 23.7351 32.7617 23.5632C32.8789 23.3914 32.9375 23.1765 32.9375 22.9187C32.9375 22.6296 32.8594 22.3972 32.7031 22.2214C32.5508 22.0417 32.334 21.9285 32.0527 21.8816C31.9121 21.8621 31.4902 21.8523 30.7871 21.8523H29.4336V24.032ZM36.0137 24.7468C36.0137 23.8718 36.1445 23.1375 36.4062 22.5437C36.6016 22.1062 36.8672 21.7136 37.2031 21.366C37.543 21.0183 37.9141 20.7605 38.3164 20.5925C38.8516 20.366 39.4688 20.2527 40.168 20.2527C41.4336 20.2527 42.4453 20.6453 43.2031 21.4304C43.9648 22.2156 44.3457 23.3074 44.3457 24.7058C44.3457 26.0925 43.9688 27.1785 43.2148 27.9636C42.4609 28.7449 41.4531 29.1355 40.1914 29.1355C38.9141 29.1355 37.8984 28.7468 37.1445 27.9695C36.3906 27.1882 36.0137 26.114 36.0137 24.7468ZM37.8008 24.6882C37.8008 25.6609 38.0254 26.3992 38.4746 26.9031C38.9238 27.4031 39.4941 27.6531 40.1855 27.6531C40.877 27.6531 41.4434 27.405 41.8848 26.9089C42.3301 26.4089 42.5527 25.6609 42.5527 24.6648C42.5527 23.6804 42.3359 22.946 41.9023 22.4617C41.4727 21.9773 40.9004 21.7351 40.1855 21.7351C39.4707 21.7351 38.8945 21.9812 38.457 22.4734C38.0195 22.9617 37.8008 23.7 37.8008 24.6882ZM47.6387 28.989V21.8523H45.0898V20.3992H51.916V21.8523H49.373V28.989H47.6387ZM53.041 28.989V20.3992H59.4102V21.8523H54.7754V23.7566H59.0879V25.2039H54.7754V27.5417H59.5742V28.989H53.041ZM60.9922 28.989V20.3992H62.7266V28.989H60.9922ZM64.4023 28.989V20.3992H66.0898L69.6055 26.1355V20.3992H71.2168V28.989H69.4766L66.0137 23.3875V28.989H64.4023Z" fill="white"/>
<defs>
<linearGradient id="paint0_linear_83_1980" x1="45.5" y1="1.98901" x2="45.5" y2="33.989" gradientUnits="userSpaceOnUse">
<stop stop-color="#823AC9"/>
<stop offset="1" stop-color="#BFBF00"/>
</linearGradient>
</defs>
</svg>
