<svg width="48" height="24" viewBox="0 0 48 24" fill="none" xmlns="http://www.w3.org/2000/svg">
<rect x="2" y="1.98901" width="45" height="20" rx="10" fill="url(#paint0_linear_85_2067)"/>
<rect x="2" y="1.98901" width="45" height="20" rx="10" stroke="#B2913D" stroke-width="3" stroke-linejoin="round"/>
<path d="M11.9609 15.989V8.85229H9.41211V7.39917H16.2383V8.85229H13.6953V15.989H11.9609ZM16.9238 13.1941L18.6113 13.03C18.7129 13.5964 18.918 14.0125 19.2266 14.2781C19.5391 14.5437 19.959 14.6765 20.4863 14.6765C21.0449 14.6765 21.4648 14.5593 21.7461 14.325C22.0312 14.0867 22.1738 13.8093 22.1738 13.4929C22.1738 13.2898 22.1133 13.1179 21.9922 12.9773C21.875 12.8328 21.668 12.7078 21.3711 12.6023C21.168 12.532 20.7051 12.407 19.9824 12.2273C19.0527 11.9968 18.4004 11.7136 18.0254 11.3777C17.498 10.905 17.2344 10.3289 17.2344 9.64917C17.2344 9.21167 17.3574 8.80347 17.6035 8.42456C17.8535 8.04175 18.2109 7.75073 18.6758 7.55151C19.1445 7.35229 19.709 7.25269 20.3691 7.25269C21.4473 7.25269 22.2578 7.48901 22.8008 7.96167C23.3477 8.43433 23.6348 9.06519 23.6621 9.85425L21.9277 9.93042C21.8535 9.48901 21.6934 9.17261 21.4473 8.9812C21.2051 8.78589 20.8398 8.68823 20.3516 8.68823C19.8477 8.68823 19.4531 8.79175 19.168 8.99878C18.9844 9.13159 18.8926 9.30933 18.8926 9.53198C18.8926 9.73511 18.9785 9.90894 19.1504 10.0535C19.3691 10.2371 19.9004 10.4285 20.7441 10.6277C21.5879 10.8269 22.2109 11.0339 22.6133 11.2488C23.0195 11.4597 23.3359 11.7507 23.5625 12.1218C23.793 12.489 23.9082 12.9441 23.9082 13.4871C23.9082 13.9792 23.7715 14.4402 23.498 14.8699C23.2246 15.2996 22.8379 15.6199 22.3379 15.8308C21.8379 16.0378 21.2148 16.1414 20.4688 16.1414C19.3828 16.1414 18.5488 15.8914 17.9668 15.3914C17.3848 14.8875 17.0371 14.155 16.9238 13.1941ZM30.8633 12.8308L32.5449 13.364C32.2871 14.3015 31.8574 14.9988 31.2559 15.4558C30.6582 15.9089 29.8984 16.1355 28.9766 16.1355C27.8359 16.1355 26.8984 15.7468 26.1641 14.9695C25.4297 14.1882 25.0625 13.1218 25.0625 11.7703C25.0625 10.3406 25.4316 9.2312 26.1699 8.44214C26.9082 7.64917 27.8789 7.25269 29.082 7.25269C30.1328 7.25269 30.9863 7.56323 31.6426 8.18433C32.0332 8.55151 32.3262 9.07886 32.5215 9.76636L30.8047 10.1765C30.7031 9.7312 30.4902 9.37964 30.166 9.12183C29.8457 8.86401 29.4551 8.73511 28.9941 8.73511C28.3574 8.73511 27.8398 8.96362 27.4414 9.42065C27.0469 9.87769 26.8496 10.6179 26.8496 11.6414C26.8496 12.7273 27.0449 13.5007 27.4355 13.9617C27.8262 14.4226 28.334 14.6531 28.959 14.6531C29.4199 14.6531 29.8164 14.5066 30.1484 14.2136C30.4805 13.9207 30.7188 13.4597 30.8633 12.8308ZM39.2363 14.4597V15.989H33.4648C33.5273 15.4109 33.7148 14.864 34.0273 14.3484C34.3398 13.8289 34.957 13.1414 35.8789 12.2859C36.6211 11.5945 37.0762 11.1257 37.2441 10.8796C37.4707 10.5398 37.584 10.2039 37.584 9.87183C37.584 9.50464 37.4844 9.22339 37.2852 9.02808C37.0898 8.82886 36.8184 8.72925 36.4707 8.72925C36.127 8.72925 35.8535 8.83276 35.6504 9.03979C35.4473 9.24683 35.3301 9.59058 35.2988 10.071L33.6582 9.90698C33.7559 9.00073 34.0625 8.35034 34.5781 7.95581C35.0938 7.56128 35.7383 7.36401 36.5117 7.36401C37.3594 7.36401 38.0254 7.59253 38.5098 8.04956C38.9941 8.50659 39.2363 9.07495 39.2363 9.75464C39.2363 10.1414 39.166 10.5105 39.0254 10.8621C38.8887 11.2097 38.6699 11.575 38.3691 11.9578C38.1699 12.2117 37.8105 12.5769 37.291 13.0535C36.7715 13.53 36.4414 13.8464 36.3008 14.0027C36.1641 14.1589 36.0527 14.3113 35.9668 14.4597H39.2363Z" fill="white"/>
<defs>
<linearGradient id="paint0_linear_85_2067" x1="24.5" y1="1.98901" x2="24.5" y2="21.989" gradientUnits="userSpaceOnUse">
<stop stop-color="#4DDEFF"/>
<stop offset="1" stop-color="#B2913D"/>
</linearGradient>
</defs>
</svg>
