<svg width="47" height="19" viewBox="0 0 47 19" fill="none" xmlns="http://www.w3.org/2000/svg">
<path d="M16.3099 18.1106C24.9256 18.1106 31.91 14.1424 31.91 9.24733C31.91 4.35227 24.9256 0.384033 16.3099 0.384033C7.69424 0.384033 0.709839 4.35227 0.709839 9.24733C0.709839 14.1424 7.69424 18.1106 16.3099 18.1106Z" fill="url(#paint0_radial_90_4375)"/>
<path d="M31.1039 18.1106C39.7195 18.1106 46.7038 14.1424 46.7038 9.24733C46.7038 4.35227 39.7195 0.384033 31.1039 0.384033C22.4883 0.384033 15.504 4.35227 15.504 9.24733C15.504 14.1424 22.4883 18.1106 31.1039 18.1106Z" fill="url(#paint1_radial_90_4375)"/>
<defs>
<radialGradient id="paint0_radial_90_4375" cx="0" cy="0" r="1" gradientUnits="userSpaceOnUse" gradientTransform="translate(13.1458 6.83601) rotate(-90) scale(19.7191 14.4077)">
<stop stop-color="#B2FFDB"/>
<stop offset="0.0845" stop-color="#96EBC3"/>
<stop offset="0.2206" stop-color="#6FCFA2"/>
<stop offset="0.3617" stop-color="#4EB886"/>
<stop offset="0.5066" stop-color="#35A671"/>
<stop offset="0.657" stop-color="#239962"/>
<stop offset="0.8164" stop-color="#189159"/>
<stop offset="1" stop-color="#158F56"/>
</radialGradient>
<radialGradient id="paint1_radial_90_4375" cx="0" cy="0" r="1" gradientUnits="userSpaceOnUse" gradientTransform="translate(27.9398 6.83601) rotate(-90) scale(19.7191 14.4075)">
<stop stop-color="#B2FFDB"/>
<stop offset="0.0845" stop-color="#96EBC3"/>
<stop offset="0.2206" stop-color="#6FCFA2"/>
<stop offset="0.3617" stop-color="#4EB886"/>
<stop offset="0.5066" stop-color="#35A671"/>
<stop offset="0.657" stop-color="#239962"/>
<stop offset="0.8164" stop-color="#189159"/>
<stop offset="1" stop-color="#158F56"/>
</radialGradient>
</defs>
</svg>
