<svg width="87" height="36" viewBox="0 0 87 36" fill="none" xmlns="http://www.w3.org/2000/svg">
<rect x="2" y="1.98901" width="84" height="32" rx="10" fill="url(#paint0_linear_67_1926)"/>
<rect x="2" y="1.98901" width="84" height="32" rx="10" stroke="#00493B" stroke-width="3" stroke-linejoin="round"/>
<path d="M31.0859 12.1941L32.7734 12.03C32.875 12.5964 33.0801 13.0125 33.3887 13.2781C33.7012 13.5437 34.1211 13.6765 34.6484 13.6765C35.207 13.6765 35.627 13.5593 35.9082 13.325C36.1934 13.0867 36.3359 12.8093 36.3359 12.4929C36.3359 12.2898 36.2754 12.1179 36.1543 11.9773C36.0371 11.8328 35.8301 11.7078 35.5332 11.6023C35.3301 11.532 34.8672 11.407 34.1445 11.2273C33.2148 10.9968 32.5625 10.7136 32.1875 10.3777C31.6602 9.90503 31.3965 9.32886 31.3965 8.64917C31.3965 8.21167 31.5195 7.80347 31.7656 7.42456C32.0156 7.04175 32.373 6.75073 32.8379 6.55151C33.3066 6.35229 33.8711 6.25269 34.5312 6.25269C35.6094 6.25269 36.4199 6.48901 36.9629 6.96167C37.5098 7.43433 37.7969 8.06519 37.8242 8.85425L36.0898 8.93042C36.0156 8.48901 35.8555 8.17261 35.6094 7.9812C35.3672 7.78589 35.002 7.68823 34.5137 7.68823C34.0098 7.68823 33.6152 7.79175 33.3301 7.99878C33.1465 8.13159 33.0547 8.30933 33.0547 8.53198C33.0547 8.73511 33.1406 8.90894 33.3125 9.05347C33.5312 9.23706 34.0625 9.42847 34.9062 9.62769C35.75 9.8269 36.373 10.0339 36.7754 10.2488C37.1816 10.4597 37.498 10.7507 37.7246 11.1218C37.9551 11.489 38.0703 11.9441 38.0703 12.4871C38.0703 12.9792 37.9336 13.4402 37.6602 13.8699C37.3867 14.2996 37 14.6199 36.5 14.8308C36 15.0378 35.377 15.1414 34.6309 15.1414C33.5449 15.1414 32.7109 14.8914 32.1289 14.3914C31.5469 13.8875 31.1992 13.155 31.0859 12.1941ZM39.4766 14.989V6.39917H41.2109V14.989H39.4766ZM42.8867 14.989V6.39917H44.5742L48.0898 12.1355V6.39917H49.7012V14.989H47.9609L44.498 9.38745V14.989H42.8867ZM51.1191 12.7097L52.7129 12.5164C52.7637 12.9226 52.9004 13.2332 53.123 13.448C53.3457 13.6628 53.6152 13.7703 53.9316 13.7703C54.2715 13.7703 54.5566 13.6414 54.7871 13.3835C55.0215 13.1257 55.1387 12.7781 55.1387 12.3406C55.1387 11.9265 55.0273 11.5984 54.8047 11.3562C54.582 11.114 54.3105 10.9929 53.9902 10.9929C53.7793 10.9929 53.5273 11.0339 53.2344 11.116L53.416 9.77417C53.8613 9.78589 54.2012 9.69019 54.4355 9.48706C54.6699 9.28003 54.7871 9.00659 54.7871 8.66675C54.7871 8.37769 54.7012 8.14722 54.5293 7.97534C54.3574 7.80347 54.1289 7.71753 53.8438 7.71753C53.5625 7.71753 53.3223 7.81519 53.123 8.0105C52.9238 8.20581 52.8027 8.49097 52.7598 8.86597L51.2422 8.60815C51.3477 8.08862 51.5059 7.67456 51.7168 7.36597C51.9316 7.05347 52.2285 6.80933 52.6074 6.63354C52.9902 6.45386 53.418 6.36401 53.8906 6.36401C54.6992 6.36401 55.3477 6.62183 55.8359 7.13745C56.2383 7.55933 56.4395 8.03589 56.4395 8.56714C56.4395 9.32104 56.0273 9.92261 55.2031 10.3718C55.6953 10.4773 56.0879 10.7136 56.3809 11.0808C56.6777 11.448 56.8262 11.8914 56.8262 12.4109C56.8262 13.1648 56.5508 13.8074 56 14.3386C55.4492 14.8699 54.7637 15.1355 53.9434 15.1355C53.166 15.1355 52.5215 14.9128 52.0098 14.4675C51.498 14.0183 51.2012 13.4324 51.1191 12.7097ZM15.5703 24.6062L13.9473 24.8992C13.8926 24.575 13.7676 24.3308 13.5723 24.1667C13.3809 24.0027 13.1309 23.9207 12.8223 23.9207C12.4121 23.9207 12.084 24.0632 11.8379 24.3484C11.5957 24.6296 11.4746 25.1023 11.4746 25.7664C11.4746 26.5046 11.5977 27.0261 11.8438 27.3308C12.0938 27.6355 12.4277 27.7878 12.8457 27.7878C13.1582 27.7878 13.4141 27.7 13.6133 27.5242C13.8125 27.3445 13.9531 27.0378 14.0352 26.6042L15.6523 26.8796C15.4844 27.6218 15.1621 28.1824 14.6855 28.5613C14.209 28.9402 13.5703 29.1296 12.7695 29.1296C11.8594 29.1296 11.1328 28.8425 10.5898 28.2683C10.0508 27.6941 9.78125 26.8992 9.78125 25.8835C9.78125 24.8562 10.0527 24.0574 10.5957 23.4871C11.1387 22.9128 11.873 22.6257 12.7988 22.6257C13.5566 22.6257 14.1582 22.7898 14.6035 23.1179C15.0527 23.4421 15.375 23.9382 15.5703 24.6062ZM16.4434 25.7898C16.4434 25.2429 16.5781 24.7136 16.8477 24.2019C17.1172 23.6902 17.498 23.2996 17.9902 23.03C18.4863 22.7605 19.0391 22.6257 19.6484 22.6257C20.5898 22.6257 21.3613 22.9324 21.9629 23.5457C22.5645 24.155 22.8652 24.9265 22.8652 25.8601C22.8652 26.8015 22.5605 27.5828 21.9512 28.2039C21.3457 28.821 20.582 29.1296 19.6602 29.1296C19.0898 29.1296 18.5449 29.0007 18.0254 28.7429C17.5098 28.4851 17.1172 28.1082 16.8477 27.6121C16.5781 27.1121 16.4434 26.5046 16.4434 25.7898ZM18.1309 25.8777C18.1309 26.4949 18.2773 26.9675 18.5703 27.2957C18.8633 27.6238 19.2246 27.7878 19.6543 27.7878C20.084 27.7878 20.4434 27.6238 20.7324 27.2957C21.0254 26.9675 21.1719 26.491 21.1719 25.866C21.1719 25.2566 21.0254 24.7878 20.7324 24.4597C20.4434 24.1316 20.084 23.9675 19.6543 23.9675C19.2246 23.9675 18.8633 24.1316 18.5703 24.4597C18.2773 24.7878 18.1309 25.2605 18.1309 25.8777ZM25.7363 28.989H24.0898V22.7664H25.6191V23.6511C25.8809 23.2332 26.1152 22.9578 26.3223 22.825C26.5332 22.6921 26.7715 22.6257 27.0371 22.6257C27.4121 22.6257 27.7734 22.7292 28.1211 22.9363L27.6113 24.3718C27.334 24.1921 27.0762 24.1023 26.8379 24.1023C26.6074 24.1023 26.4121 24.1667 26.252 24.2957C26.0918 24.4207 25.9648 24.6492 25.8711 24.9812C25.7812 25.3132 25.7363 26.0085 25.7363 27.0671V28.989ZM32.4395 27.0085L34.0801 27.2839C33.8691 27.8855 33.5352 28.3445 33.0781 28.6609C32.625 28.9734 32.0566 29.1296 31.373 29.1296C30.291 29.1296 29.4902 28.7761 28.9707 28.0691C28.5605 27.5027 28.3555 26.7878 28.3555 25.9246C28.3555 24.8933 28.625 24.0867 29.1641 23.5046C29.7031 22.9187 30.3848 22.6257 31.209 22.6257C32.1348 22.6257 32.8652 22.9324 33.4004 23.5457C33.9355 24.155 34.1914 25.0906 34.168 26.3523H30.043C30.0547 26.8406 30.1875 27.2214 30.4414 27.4949C30.6953 27.7644 31.0117 27.8992 31.3906 27.8992C31.6484 27.8992 31.8652 27.8289 32.041 27.6882C32.2168 27.5476 32.3496 27.321 32.4395 27.0085ZM32.5332 25.3445C32.5215 24.8679 32.3984 24.5066 32.1641 24.2605C31.9297 24.0105 31.6445 23.8855 31.3086 23.8855C30.9492 23.8855 30.6523 24.0164 30.418 24.2781C30.1836 24.5398 30.0684 24.8953 30.0723 25.3445H32.5332ZM35.4688 22.7664H37.0039V23.6804C37.2031 23.3679 37.4727 23.114 37.8125 22.9187C38.1523 22.7234 38.5293 22.6257 38.9434 22.6257C39.666 22.6257 40.2793 22.9089 40.7832 23.4753C41.2871 24.0417 41.5391 24.8308 41.5391 25.8425C41.5391 26.8816 41.2852 27.6902 40.7773 28.2683C40.2695 28.8425 39.6543 29.1296 38.9316 29.1296C38.5879 29.1296 38.2754 29.0613 37.9941 28.9246C37.7168 28.7878 37.4238 28.5535 37.1152 28.2214V31.3562H35.4688V22.7664ZM37.0977 25.7722C37.0977 26.4714 37.2363 26.989 37.5137 27.325C37.791 27.657 38.1289 27.823 38.5273 27.823C38.9102 27.823 39.2285 27.6707 39.4824 27.366C39.7363 27.0574 39.8633 26.5535 39.8633 25.8542C39.8633 25.2019 39.7324 24.7175 39.4707 24.4011C39.209 24.0847 38.8848 23.9265 38.498 23.9265C38.0957 23.9265 37.7617 24.0828 37.4961 24.3953C37.2305 24.7039 37.0977 25.1628 37.0977 25.7722ZM44.4277 28.989H42.7812V22.7664H44.3105V23.6511C44.5723 23.2332 44.8066 22.9578 45.0137 22.825C45.2246 22.6921 45.4629 22.6257 45.7285 22.6257C46.1035 22.6257 46.4648 22.7292 46.8125 22.9363L46.3027 24.3718C46.0254 24.1921 45.7676 24.1023 45.5293 24.1023C45.2988 24.1023 45.1035 24.1667 44.9434 24.2957C44.7832 24.4207 44.6562 24.6492 44.5625 24.9812C44.4727 25.3132 44.4277 26.0085 44.4277 27.0671V28.989ZM51.1309 27.0085L52.7715 27.2839C52.5605 27.8855 52.2266 28.3445 51.7695 28.6609C51.3164 28.9734 50.748 29.1296 50.0645 29.1296C48.9824 29.1296 48.1816 28.7761 47.6621 28.0691C47.252 27.5027 47.0469 26.7878 47.0469 25.9246C47.0469 24.8933 47.3164 24.0867 47.8555 23.5046C48.3945 22.9187 49.0762 22.6257 49.9004 22.6257C50.8262 22.6257 51.5566 22.9324 52.0918 23.5457C52.627 24.155 52.8828 25.0906 52.8594 26.3523H48.7344C48.7461 26.8406 48.8789 27.2214 49.1328 27.4949C49.3867 27.7644 49.7031 27.8992 50.082 27.8992C50.3398 27.8992 50.5566 27.8289 50.7324 27.6882C50.9082 27.5476 51.041 27.321 51.1309 27.0085ZM51.2246 25.3445C51.2129 24.8679 51.0898 24.5066 50.8555 24.2605C50.6211 24.0105 50.3359 23.8855 50 23.8855C49.6406 23.8855 49.3438 24.0164 49.1094 24.2781C48.875 24.5398 48.7598 24.8953 48.7637 25.3445H51.2246ZM53.627 27.2136L55.2793 26.9617C55.3496 27.282 55.4922 27.5261 55.707 27.6941C55.9219 27.8582 56.2227 27.9402 56.6094 27.9402C57.0352 27.9402 57.3555 27.8621 57.5703 27.7058C57.7148 27.5964 57.7871 27.45 57.7871 27.2664C57.7871 27.1414 57.748 27.0378 57.6699 26.9558C57.5879 26.8777 57.4043 26.8054 57.1191 26.739C55.791 26.446 54.9492 26.1785 54.5938 25.9363C54.1016 25.6003 53.8555 25.1335 53.8555 24.5359C53.8555 23.9968 54.0684 23.5437 54.4941 23.1765C54.9199 22.8093 55.5801 22.6257 56.4746 22.6257C57.3262 22.6257 57.959 22.7644 58.373 23.0417C58.7871 23.3191 59.0723 23.7292 59.2285 24.2722L57.6758 24.5593C57.6094 24.3171 57.4824 24.1316 57.2949 24.0027C57.1113 23.8738 56.8477 23.8093 56.5039 23.8093C56.0703 23.8093 55.7598 23.8699 55.5723 23.991C55.4473 24.0769 55.3848 24.1882 55.3848 24.325C55.3848 24.4421 55.4395 24.5417 55.5488 24.6238C55.6973 24.7332 56.209 24.8875 57.084 25.0867C57.9629 25.2859 58.5762 25.53 58.9238 25.8191C59.2676 26.1121 59.4395 26.5203 59.4395 27.0437C59.4395 27.614 59.2012 28.1042 58.7246 28.5144C58.248 28.9246 57.543 29.1296 56.6094 29.1296C55.7617 29.1296 55.0898 28.9578 54.5938 28.614C54.1016 28.2703 53.7793 27.8035 53.627 27.2136ZM60.3066 27.2136L61.959 26.9617C62.0293 27.282 62.1719 27.5261 62.3867 27.6941C62.6016 27.8582 62.9023 27.9402 63.2891 27.9402C63.7148 27.9402 64.0352 27.8621 64.25 27.7058C64.3945 27.5964 64.4668 27.45 64.4668 27.2664C64.4668 27.1414 64.4277 27.0378 64.3496 26.9558C64.2676 26.8777 64.084 26.8054 63.7988 26.739C62.4707 26.446 61.6289 26.1785 61.2734 25.9363C60.7812 25.6003 60.5352 25.1335 60.5352 24.5359C60.5352 23.9968 60.748 23.5437 61.1738 23.1765C61.5996 22.8093 62.2598 22.6257 63.1543 22.6257C64.0059 22.6257 64.6387 22.7644 65.0527 23.0417C65.4668 23.3191 65.752 23.7292 65.9082 24.2722L64.3555 24.5593C64.2891 24.3171 64.1621 24.1316 63.9746 24.0027C63.791 23.8738 63.5273 23.8093 63.1836 23.8093C62.75 23.8093 62.4395 23.8699 62.252 23.991C62.127 24.0769 62.0645 24.1882 62.0645 24.325C62.0645 24.4421 62.1191 24.5417 62.2285 24.6238C62.377 24.7332 62.8887 24.8875 63.7637 25.0867C64.6426 25.2859 65.2559 25.53 65.6035 25.8191C65.9473 26.1121 66.1191 26.5203 66.1191 27.0437C66.1191 27.614 65.8809 28.1042 65.4043 28.5144C64.9277 28.9246 64.2227 29.1296 63.2891 29.1296C62.4414 29.1296 61.7695 28.9578 61.2734 28.614C60.7812 28.2703 60.459 27.8035 60.3066 27.2136ZM67.1855 25.7898C67.1855 25.2429 67.3203 24.7136 67.5898 24.2019C67.8594 23.6902 68.2402 23.2996 68.7324 23.03C69.2285 22.7605 69.7812 22.6257 70.3906 22.6257C71.332 22.6257 72.1035 22.9324 72.7051 23.5457C73.3066 24.155 73.6074 24.9265 73.6074 25.8601C73.6074 26.8015 73.3027 27.5828 72.6934 28.2039C72.0879 28.821 71.3242 29.1296 70.4023 29.1296C69.832 29.1296 69.2871 29.0007 68.7676 28.7429C68.252 28.4851 67.8594 28.1082 67.5898 27.6121C67.3203 27.1121 67.1855 26.5046 67.1855 25.7898ZM68.873 25.8777C68.873 26.4949 69.0195 26.9675 69.3125 27.2957C69.6055 27.6238 69.9668 27.7878 70.3965 27.7878C70.8262 27.7878 71.1855 27.6238 71.4746 27.2957C71.7676 26.9675 71.9141 26.491 71.9141 25.866C71.9141 25.2566 71.7676 24.7878 71.4746 24.4597C71.1855 24.1316 70.8262 23.9675 70.3965 23.9675C69.9668 23.9675 69.6055 24.1316 69.3125 24.4597C69.0195 24.7878 68.873 25.2605 68.873 25.8777ZM76.4785 28.989H74.832V22.7664H76.3613V23.6511C76.623 23.2332 76.8574 22.9578 77.0645 22.825C77.2754 22.6921 77.5137 22.6257 77.7793 22.6257C78.1543 22.6257 78.5156 22.7292 78.8633 22.9363L78.3535 24.3718C78.0762 24.1921 77.8184 24.1023 77.5801 24.1023C77.3496 24.1023 77.1543 24.1667 76.9941 24.2957C76.834 24.4207 76.707 24.6492 76.6133 24.9812C76.5234 25.3132 76.4785 26.0085 76.4785 27.0671V28.989Z" fill="white"/>
<defs>
<linearGradient id="paint0_linear_67_1926" x1="44" y1="1.98901" x2="44" y2="33.989" gradientUnits="userSpaceOnUse">
<stop stop-color="#00493B"/>
<stop offset="1" stop-color="#C5D11C"/>
</linearGradient>
</defs>
</svg>
