<svg width="49" height="24" viewBox="0 0 49 24" fill="none" xmlns="http://www.w3.org/2000/svg">
<rect x="2" y="1.98901" width="46" height="20" rx="10" fill="url(#paint0_linear_46_4297)"/>
<rect x="2" y="1.98901" width="46" height="20" rx="10" stroke="#FF229B" stroke-width="3" stroke-linejoin="round"/>
<path d="M10.1992 15.989V7.39917H11.9336V10.78H15.332V7.39917H17.0664V15.989H15.332V12.2332H11.9336V15.989H10.1992ZM18.4258 13.1941L20.1133 13.03C20.2148 13.5964 20.4199 14.0125 20.7285 14.2781C21.041 14.5437 21.4609 14.6765 21.9883 14.6765C22.5469 14.6765 22.9668 14.5593 23.248 14.325C23.5332 14.0867 23.6758 13.8093 23.6758 13.4929C23.6758 13.2898 23.6152 13.1179 23.4941 12.9773C23.377 12.8328 23.1699 12.7078 22.873 12.6023C22.6699 12.532 22.207 12.407 21.4844 12.2273C20.5547 11.9968 19.9023 11.7136 19.5273 11.3777C19 10.905 18.7363 10.3289 18.7363 9.64917C18.7363 9.21167 18.8594 8.80347 19.1055 8.42456C19.3555 8.04175 19.7129 7.75073 20.1777 7.55151C20.6465 7.35229 21.2109 7.25269 21.8711 7.25269C22.9492 7.25269 23.7598 7.48901 24.3027 7.96167C24.8496 8.43433 25.1367 9.06519 25.1641 9.85425L23.4297 9.93042C23.3555 9.48901 23.1953 9.17261 22.9492 8.9812C22.707 8.78589 22.3418 8.68823 21.8535 8.68823C21.3496 8.68823 20.9551 8.79175 20.6699 8.99878C20.4863 9.13159 20.3945 9.30933 20.3945 9.53198C20.3945 9.73511 20.4805 9.90894 20.6523 10.0535C20.8711 10.2371 21.4023 10.4285 22.2461 10.6277C23.0898 10.8269 23.7129 11.0339 24.1152 11.2488C24.5215 11.4597 24.8379 11.7507 25.0645 12.1218C25.2949 12.489 25.4102 12.9441 25.4102 13.4871C25.4102 13.9792 25.2734 14.4402 25 14.8699C24.7266 15.2996 24.3398 15.6199 23.8398 15.8308C23.3398 16.0378 22.7168 16.1414 21.9707 16.1414C20.8848 16.1414 20.0508 15.8914 19.4688 15.3914C18.8867 14.8875 18.5391 14.155 18.4258 13.1941ZM26.8691 15.989V7.39917H29.6523C30.707 7.39917 31.3945 7.44214 31.7148 7.52808C32.207 7.65698 32.6191 7.93823 32.9512 8.37183C33.2832 8.80151 33.4492 9.35815 33.4492 10.0417C33.4492 10.5691 33.3535 11.0125 33.1621 11.3718C32.9707 11.7312 32.7266 12.0144 32.4297 12.2214C32.1367 12.4246 31.8379 12.5593 31.5332 12.6257C31.1191 12.7078 30.5195 12.7488 29.7344 12.7488H28.6035V15.989H26.8691ZM28.6035 8.85229V11.2898H29.5527C30.2363 11.2898 30.6934 11.2449 30.9238 11.155C31.1543 11.0652 31.334 10.9246 31.4629 10.7332C31.5957 10.5417 31.6621 10.3191 31.6621 10.0652C31.6621 9.75269 31.5703 9.49487 31.3867 9.29175C31.2031 9.08862 30.9707 8.96167 30.6895 8.91089C30.4824 8.87183 30.0664 8.85229 29.4414 8.85229H28.6035ZM34.2812 14.2136L35.9336 13.9617C36.0039 14.282 36.1465 14.5261 36.3613 14.6941C36.5762 14.8582 36.877 14.9402 37.2637 14.9402C37.6895 14.9402 38.0098 14.8621 38.2246 14.7058C38.3691 14.5964 38.4414 14.45 38.4414 14.2664C38.4414 14.1414 38.4023 14.0378 38.3242 13.9558C38.2422 13.8777 38.0586 13.8054 37.7734 13.739C36.4453 13.446 35.6035 13.1785 35.248 12.9363C34.7559 12.6003 34.5098 12.1335 34.5098 11.5359C34.5098 10.9968 34.7227 10.5437 35.1484 10.1765C35.5742 9.80933 36.2344 9.62573 37.1289 9.62573C37.9805 9.62573 38.6133 9.7644 39.0273 10.0417C39.4414 10.3191 39.7266 10.7292 39.8828 11.2722L38.3301 11.5593C38.2637 11.3171 38.1367 11.1316 37.9492 11.0027C37.7656 10.8738 37.502 10.8093 37.1582 10.8093C36.7246 10.8093 36.4141 10.8699 36.2266 10.991C36.1016 11.0769 36.0391 11.1882 36.0391 11.325C36.0391 11.4421 36.0938 11.5417 36.2031 11.6238C36.3516 11.7332 36.8633 11.8875 37.7383 12.0867C38.6172 12.2859 39.2305 12.53 39.5781 12.8191C39.9219 13.1121 40.0938 13.5203 40.0938 14.0437C40.0938 14.614 39.8555 15.1042 39.3789 15.5144C38.9023 15.9246 38.1973 16.1296 37.2637 16.1296C36.416 16.1296 35.7441 15.9578 35.248 15.614C34.7559 15.2703 34.4336 14.8035 34.2812 14.2136Z" fill="white"/>
<defs>
<linearGradient id="paint0_linear_46_4297" x1="25" y1="1.98901" x2="25" y2="21.989" gradientUnits="userSpaceOnUse">
<stop stop-color="#FF229B"/>
<stop offset="1" stop-color="#2E00AD"/>
</linearGradient>
</defs>
</svg>
