<svg width="73" height="24" viewBox="0 0 73 24" fill="none" xmlns="http://www.w3.org/2000/svg">
<rect x="1" y="1.98901" width="71" height="20" rx="10" fill="url(#paint0_linear_64_1978)"/>
<rect x="1" y="1.98901" width="71" height="20" rx="10" stroke="#5621D6" stroke-width="3" stroke-linejoin="round"/>
<path d="M9.01953 15.989V7.39917H11.8027C12.8574 7.39917 13.5449 7.44214 13.8652 7.52808C14.3574 7.65698 14.7695 7.93823 15.1016 8.37183C15.4336 8.80151 15.5996 9.35815 15.5996 10.0417C15.5996 10.5691 15.5039 11.0125 15.3125 11.3718C15.1211 11.7312 14.877 12.0144 14.5801 12.2214C14.2871 12.4246 13.9883 12.5593 13.6836 12.6257C13.2695 12.7078 12.6699 12.7488 11.8848 12.7488H10.7539V15.989H9.01953ZM10.7539 8.85229V11.2898H11.7031C12.3867 11.2898 12.8438 11.2449 13.0742 11.155C13.3047 11.0652 13.4844 10.9246 13.6133 10.7332C13.7461 10.5417 13.8125 10.3191 13.8125 10.0652C13.8125 9.75269 13.7207 9.49487 13.5371 9.29175C13.3535 9.08862 13.1211 8.96167 12.8398 8.91089C12.6328 8.87183 12.2168 8.85229 11.5918 8.85229H10.7539ZM16.6719 11.7468C16.6719 10.8718 16.8027 10.1375 17.0645 9.5437C17.2598 9.1062 17.5254 8.71362 17.8613 8.36597C18.2012 8.01831 18.5723 7.7605 18.9746 7.59253C19.5098 7.36597 20.127 7.25269 20.8262 7.25269C22.0918 7.25269 23.1035 7.64526 23.8613 8.43042C24.623 9.21558 25.0039 10.3074 25.0039 11.7058C25.0039 13.0925 24.627 14.1785 23.873 14.9636C23.1191 15.7449 22.1113 16.1355 20.8496 16.1355C19.5723 16.1355 18.5566 15.7468 17.8027 14.9695C17.0488 14.1882 16.6719 13.114 16.6719 11.7468ZM18.459 11.6882C18.459 12.6609 18.6836 13.3992 19.1328 13.9031C19.582 14.4031 20.1523 14.6531 20.8438 14.6531C21.5352 14.6531 22.1016 14.405 22.543 13.9089C22.9883 13.4089 23.2109 12.6609 23.2109 11.6648C23.2109 10.6804 22.9941 9.94604 22.5605 9.46167C22.1309 8.97729 21.5586 8.73511 20.8438 8.73511C20.1289 8.73511 19.5527 8.9812 19.1152 9.47339C18.6777 9.96167 18.459 10.7 18.459 11.6882ZM30.3594 12.8308V11.3835H34.0977V14.8054C33.7344 15.157 33.207 15.4675 32.5156 15.7371C31.8281 16.0027 31.1309 16.1355 30.4238 16.1355C29.5254 16.1355 28.7422 15.948 28.0742 15.573C27.4062 15.1941 26.9043 14.655 26.5684 13.9558C26.2324 13.2527 26.0645 12.489 26.0645 11.6648C26.0645 10.7703 26.252 9.97534 26.627 9.28003C27.002 8.58472 27.5508 8.05151 28.2734 7.68042C28.8242 7.39526 29.5098 7.25269 30.3301 7.25269C31.3965 7.25269 32.2285 7.47729 32.8262 7.92651C33.4277 8.37183 33.8145 8.98901 33.9863 9.77808L32.2637 10.1003C32.1426 9.67847 31.9141 9.34644 31.5781 9.10425C31.2461 8.85815 30.8301 8.73511 30.3301 8.73511C29.5723 8.73511 28.9688 8.97534 28.5195 9.45581C28.0742 9.93628 27.8516 10.6492 27.8516 11.5945C27.8516 12.614 28.0781 13.3796 28.5312 13.8914C28.9844 14.3992 29.5781 14.6531 30.3125 14.6531C30.6758 14.6531 31.0391 14.5828 31.4023 14.4421C31.7695 14.2976 32.084 14.1238 32.3457 13.9207V12.8308H30.3594ZM35.75 15.989V7.46948H37.4844V14.5417H41.7969V15.989H35.75ZM43.0273 7.39917H44.7617V12.0515C44.7617 12.7898 44.7832 13.2683 44.8262 13.4871C44.9004 13.8386 45.0762 14.1218 45.3535 14.3367C45.6348 14.5476 46.0176 14.6531 46.502 14.6531C46.9941 14.6531 47.3652 14.5535 47.6152 14.3542C47.8652 14.1511 48.0156 13.9031 48.0664 13.6101C48.1172 13.3171 48.1426 12.8308 48.1426 12.1511V7.39917H49.877V11.9109C49.877 12.9421 49.8301 13.6707 49.7363 14.0964C49.6426 14.5222 49.4688 14.8816 49.2148 15.1746C48.9648 15.4675 48.6289 15.7019 48.207 15.8777C47.7852 16.0496 47.2344 16.1355 46.5547 16.1355C45.7344 16.1355 45.1113 16.0417 44.6855 15.8542C44.2637 15.6628 43.9297 15.4167 43.6836 15.116C43.4375 14.8113 43.2754 14.4929 43.1973 14.1609C43.084 13.6687 43.0273 12.9421 43.0273 11.9812V7.39917ZM53.6445 15.989V8.85229H51.0957V7.39917H57.9219V8.85229H55.3789V15.989H53.6445ZM62.8965 15.989H61.25V9.78394C60.6484 10.3464 59.9395 10.7625 59.123 11.032V9.53784C59.5527 9.39722 60.0195 9.13159 60.5234 8.74097C61.0273 8.34644 61.373 7.88745 61.5605 7.36401H62.8965V15.989Z" fill="white"/>
<defs>
<linearGradient id="paint0_linear_64_1978" x1="36.5" y1="1.98901" x2="36.5" y2="21.989" gradientUnits="userSpaceOnUse">
<stop stop-color="#5621D6"/>
<stop offset="1" stop-color="#A34D00"/>
</linearGradient>
</defs>
</svg>
