<svg width="54" height="24" viewBox="0 0 54 24" fill="none" xmlns="http://www.w3.org/2000/svg">
<rect x="2" y="1.98901" width="51" height="20" rx="10" fill="url(#paint0_linear_83_1998)"/>
<rect x="2" y="1.98901" width="51" height="20" rx="10" stroke="#E5A76B" stroke-width="3" stroke-linejoin="round"/>
<path d="M12.2949 15.989V8.85229H9.74609V7.39917H16.5723V8.85229H14.0293V15.989H12.2949ZM17.6445 15.989V7.39917H19.3789V15.989H17.6445ZM21.043 15.989V7.39917H24.6934C25.6113 7.39917 26.2773 7.47729 26.6914 7.63354C27.1094 7.78589 27.4434 8.05933 27.6934 8.45386C27.9434 8.84839 28.0684 9.29956 28.0684 9.80737C28.0684 10.4519 27.8789 10.9851 27.5 11.407C27.1211 11.825 26.5547 12.0886 25.8008 12.198C26.1758 12.4167 26.4844 12.657 26.7266 12.9187C26.9727 13.1804 27.3027 13.6453 27.7168 14.3132L28.7656 15.989H26.6914L25.4375 14.1199C24.9922 13.4519 24.6875 13.032 24.5234 12.8601C24.3594 12.6843 24.1855 12.5652 24.002 12.5027C23.8184 12.4363 23.5273 12.4031 23.1289 12.4031H22.7773V15.989H21.043ZM22.7773 11.032H24.0605C24.8926 11.032 25.4121 10.9968 25.6191 10.9265C25.8262 10.8562 25.9883 10.7351 26.1055 10.5632C26.2227 10.3914 26.2812 10.1765 26.2812 9.9187C26.2812 9.62964 26.2031 9.39722 26.0469 9.22144C25.8945 9.04175 25.6777 8.92847 25.3965 8.88159C25.2559 8.86206 24.834 8.85229 24.1309 8.85229H22.7773V11.032ZM37.4551 15.989H35.5684L34.8184 14.0378H31.3848L30.6758 15.989H28.8359L32.1816 7.39917H34.0156L37.4551 15.989ZM34.2617 12.5906L33.0781 9.40308L31.918 12.5906H34.2617ZM38.3809 15.989V7.39917H41.1641C42.2188 7.39917 42.9062 7.44214 43.2266 7.52808C43.7188 7.65698 44.1309 7.93823 44.4629 8.37183C44.7949 8.80151 44.9609 9.35815 44.9609 10.0417C44.9609 10.5691 44.8652 11.0125 44.6738 11.3718C44.4824 11.7312 44.2383 12.0144 43.9414 12.2214C43.6484 12.4246 43.3496 12.5593 43.0449 12.6257C42.6309 12.7078 42.0312 12.7488 41.2461 12.7488H40.1152V15.989H38.3809ZM40.1152 8.85229V11.2898H41.0645C41.748 11.2898 42.2051 11.2449 42.4355 11.155C42.666 11.0652 42.8457 10.9246 42.9746 10.7332C43.1074 10.5417 43.1738 10.3191 43.1738 10.0652C43.1738 9.75269 43.082 9.49487 42.8984 9.29175C42.7148 9.08862 42.4824 8.96167 42.2012 8.91089C41.9941 8.87183 41.5781 8.85229 40.9531 8.85229H40.1152Z" fill="white"/>
<defs>
<linearGradient id="paint0_linear_83_1998" x1="27.5" y1="1.98901" x2="27.5" y2="21.989" gradientUnits="userSpaceOnUse">
<stop stop-color="#E5A76B"/>
<stop offset="1" stop-color="#3F1741"/>
</linearGradient>
</defs>
</svg>
