<svg width="44" height="24" viewBox="0 0 44 24" fill="none" xmlns="http://www.w3.org/2000/svg">
<rect x="2" y="1.98901" width="41" height="20" rx="10" fill="url(#paint0_linear_64_1850)"/>
<rect x="2" y="1.98901" width="41" height="20" rx="10" stroke="#A88589" stroke-width="3" stroke-linejoin="round"/>
<path d="M10.3477 15.989V7.39917H12.9434L14.502 13.2585L16.043 7.39917H18.6445V15.989H17.0332V9.22729L15.3281 15.989H13.6582L11.959 9.22729V15.989H10.3477ZM22.3008 15.989V8.85229H19.752V7.39917H26.5781V8.85229H24.0352V15.989H22.3008ZM27.709 15.989V7.39917H31.3594C32.2773 7.39917 32.9434 7.47729 33.3574 7.63354C33.7754 7.78589 34.1094 8.05933 34.3594 8.45386C34.6094 8.84839 34.7344 9.29956 34.7344 9.80737C34.7344 10.4519 34.5449 10.9851 34.166 11.407C33.7871 11.825 33.2207 12.0886 32.4668 12.198C32.8418 12.4167 33.1504 12.657 33.3926 12.9187C33.6387 13.1804 33.9688 13.6453 34.3828 14.3132L35.4316 15.989H33.3574L32.1035 14.1199C31.6582 13.4519 31.3535 13.032 31.1895 12.8601C31.0254 12.6843 30.8516 12.5652 30.668 12.5027C30.4844 12.4363 30.1934 12.4031 29.7949 12.4031H29.4434V15.989H27.709ZM29.4434 11.032H30.7266C31.5586 11.032 32.0781 10.9968 32.2852 10.9265C32.4922 10.8562 32.6543 10.7351 32.7715 10.5632C32.8887 10.3914 32.9473 10.1765 32.9473 9.9187C32.9473 9.62964 32.8691 9.39722 32.7129 9.22144C32.5605 9.04175 32.3438 8.92847 32.0625 8.88159C31.9219 8.86206 31.5 8.85229 30.7969 8.85229H29.4434V11.032Z" fill="white"/>
<defs>
<linearGradient id="paint0_linear_64_1850" x1="22.5" y1="1.98901" x2="22.5" y2="21.989" gradientUnits="userSpaceOnUse">
<stop stop-color="#4D3600"/>
<stop offset="1" stop-color="#A88589"/>
</linearGradient>
</defs>
</svg>
