<svg width="117" height="24" viewBox="0 0 117 24" fill="none" xmlns="http://www.w3.org/2000/svg">
<rect x="1" y="1.98901" width="115" height="20" rx="10" fill="url(#paint0_linear_40_2527)"/>
<rect x="1" y="1.98901" width="115" height="20" rx="10" stroke="#1A9E9E" stroke-width="3" stroke-linejoin="round"/>
<path d="M14.502 12.8308L16.1836 13.364C15.9258 14.3015 15.4961 14.9988 14.8945 15.4558C14.2969 15.9089 13.5371 16.1355 12.6152 16.1355C11.4746 16.1355 10.5371 15.7468 9.80273 14.9695C9.06836 14.1882 8.70117 13.1218 8.70117 11.7703C8.70117 10.3406 9.07031 9.2312 9.80859 8.44214C10.5469 7.64917 11.5176 7.25269 12.7207 7.25269C13.7715 7.25269 14.625 7.56323 15.2812 8.18433C15.6719 8.55151 15.9648 9.07886 16.1602 9.76636L14.4434 10.1765C14.3418 9.7312 14.1289 9.37964 13.8047 9.12183C13.4844 8.86401 13.0938 8.73511 12.6328 8.73511C11.9961 8.73511 11.4785 8.96362 11.0801 9.42065C10.6855 9.87769 10.4883 10.6179 10.4883 11.6414C10.4883 12.7273 10.6836 13.5007 11.0742 13.9617C11.4648 14.4226 11.9727 14.6531 12.5977 14.6531C13.0586 14.6531 13.4551 14.5066 13.7871 14.2136C14.1191 13.9207 14.3574 13.4597 14.502 12.8308ZM17.3262 11.7468C17.3262 10.8718 17.457 10.1375 17.7188 9.5437C17.9141 9.1062 18.1797 8.71362 18.5156 8.36597C18.8555 8.01831 19.2266 7.7605 19.6289 7.59253C20.1641 7.36597 20.7812 7.25269 21.4805 7.25269C22.7461 7.25269 23.7578 7.64526 24.5156 8.43042C25.2773 9.21558 25.6582 10.3074 25.6582 11.7058C25.6582 13.0925 25.2812 14.1785 24.5273 14.9636C23.7734 15.7449 22.7656 16.1355 21.5039 16.1355C20.2266 16.1355 19.2109 15.7468 18.457 14.9695C17.7031 14.1882 17.3262 13.114 17.3262 11.7468ZM19.1133 11.6882C19.1133 12.6609 19.3379 13.3992 19.7871 13.9031C20.2363 14.4031 20.8066 14.6531 21.498 14.6531C22.1895 14.6531 22.7559 14.405 23.1973 13.9089C23.6426 13.4089 23.8652 12.6609 23.8652 11.6648C23.8652 10.6804 23.6484 9.94604 23.2148 9.46167C22.7852 8.97729 22.2129 8.73511 21.498 8.73511C20.7832 8.73511 20.207 8.9812 19.7695 9.47339C19.332 9.96167 19.1133 10.7 19.1133 11.6882ZM27.0234 15.989V7.39917H30.6738C31.5918 7.39917 32.2578 7.47729 32.6719 7.63354C33.0898 7.78589 33.4238 8.05933 33.6738 8.45386C33.9238 8.84839 34.0488 9.29956 34.0488 9.80737C34.0488 10.4519 33.8594 10.9851 33.4805 11.407C33.1016 11.825 32.5352 12.0886 31.7812 12.198C32.1562 12.4167 32.4648 12.657 32.707 12.9187C32.9531 13.1804 33.2832 13.6453 33.6973 14.3132L34.7461 15.989H32.6719L31.418 14.1199C30.9727 13.4519 30.668 13.032 30.5039 12.8601C30.3398 12.6843 30.166 12.5652 29.9824 12.5027C29.7988 12.4363 29.5078 12.4031 29.1094 12.4031H28.7578V15.989H27.0234ZM28.7578 11.032H30.041C30.873 11.032 31.3926 10.9968 31.5996 10.9265C31.8066 10.8562 31.9688 10.7351 32.0859 10.5632C32.2031 10.3914 32.2617 10.1765 32.2617 9.9187C32.2617 9.62964 32.1836 9.39722 32.0273 9.22144C31.875 9.04175 31.6582 8.92847 31.377 8.88159C31.2363 8.86206 30.8145 8.85229 30.1113 8.85229H28.7578V11.032ZM37.623 15.989V8.85229H35.0742V7.39917H41.9004V8.85229H39.3574V15.989H37.623ZM42.9727 15.989V7.39917H44.707V15.989H42.9727ZM51.8613 12.8308L53.543 13.364C53.2852 14.3015 52.8555 14.9988 52.2539 15.4558C51.6562 15.9089 50.8965 16.1355 49.9746 16.1355C48.834 16.1355 47.8965 15.7468 47.1621 14.9695C46.4277 14.1882 46.0605 13.1218 46.0605 11.7703C46.0605 10.3406 46.4297 9.2312 47.168 8.44214C47.9062 7.64917 48.877 7.25269 50.0801 7.25269C51.1309 7.25269 51.9844 7.56323 52.6406 8.18433C53.0312 8.55151 53.3242 9.07886 53.5195 9.76636L51.8027 10.1765C51.7012 9.7312 51.4883 9.37964 51.1641 9.12183C50.8438 8.86401 50.4531 8.73511 49.9922 8.73511C49.3555 8.73511 48.8379 8.96362 48.4395 9.42065C48.0449 9.87769 47.8477 10.6179 47.8477 11.6414C47.8477 12.7273 48.043 13.5007 48.4336 13.9617C48.8242 14.4226 49.332 14.6531 49.957 14.6531C50.418 14.6531 50.8145 14.5066 51.1465 14.2136C51.4785 13.9207 51.7168 13.4597 51.8613 12.8308ZM54.6855 11.7468C54.6855 10.8718 54.8164 10.1375 55.0781 9.5437C55.2734 9.1062 55.5391 8.71362 55.875 8.36597C56.2148 8.01831 56.5859 7.7605 56.9883 7.59253C57.5234 7.36597 58.1406 7.25269 58.8398 7.25269C60.1055 7.25269 61.1172 7.64526 61.875 8.43042C62.6367 9.21558 63.0176 10.3074 63.0176 11.7058C63.0176 13.0925 62.6406 14.1785 61.8867 14.9636C61.1328 15.7449 60.125 16.1355 58.8633 16.1355C57.5859 16.1355 56.5703 15.7468 55.8164 14.9695C55.0625 14.1882 54.6855 13.114 54.6855 11.7468ZM56.4727 11.6882C56.4727 12.6609 56.6973 13.3992 57.1465 13.9031C57.5957 14.4031 58.166 14.6531 58.8574 14.6531C59.5488 14.6531 60.1152 14.405 60.5566 13.9089C61.002 13.4089 61.2246 12.6609 61.2246 11.6648C61.2246 10.6804 61.0078 9.94604 60.5742 9.46167C60.1445 8.97729 59.5723 8.73511 58.8574 8.73511C58.1426 8.73511 57.5664 8.9812 57.1289 9.47339C56.6914 9.96167 56.4727 10.7 56.4727 11.6882ZM66.3105 15.989V8.85229H63.7617V7.39917H70.5879V8.85229H68.0449V15.989H66.3105ZM71.7188 15.989V7.39917H75.3691C76.2871 7.39917 76.9531 7.47729 77.3672 7.63354C77.7852 7.78589 78.1191 8.05933 78.3691 8.45386C78.6191 8.84839 78.7441 9.29956 78.7441 9.80737C78.7441 10.4519 78.5547 10.9851 78.1758 11.407C77.7969 11.825 77.2305 12.0886 76.4766 12.198C76.8516 12.4167 77.1602 12.657 77.4023 12.9187C77.6484 13.1804 77.9785 13.6453 78.3926 14.3132L79.4414 15.989H77.3672L76.1133 14.1199C75.668 13.4519 75.3633 13.032 75.1992 12.8601C75.0352 12.6843 74.8613 12.5652 74.6777 12.5027C74.4941 12.4363 74.2031 12.4031 73.8047 12.4031H73.4531V15.989H71.7188ZM73.4531 11.032H74.7363C75.5684 11.032 76.0879 10.9968 76.2949 10.9265C76.502 10.8562 76.6641 10.7351 76.7812 10.5632C76.8984 10.3914 76.957 10.1765 76.957 9.9187C76.957 9.62964 76.8789 9.39722 76.7227 9.22144C76.5703 9.04175 76.3535 8.92847 76.0723 8.88159C75.9316 8.86206 75.5098 8.85229 74.8066 8.85229H73.4531V11.032ZM80.0332 11.7468C80.0332 10.8718 80.1641 10.1375 80.4258 9.5437C80.6211 9.1062 80.8867 8.71362 81.2227 8.36597C81.5625 8.01831 81.9336 7.7605 82.3359 7.59253C82.8711 7.36597 83.4883 7.25269 84.1875 7.25269C85.4531 7.25269 86.4648 7.64526 87.2227 8.43042C87.9844 9.21558 88.3652 10.3074 88.3652 11.7058C88.3652 13.0925 87.9883 14.1785 87.2344 14.9636C86.4805 15.7449 85.4727 16.1355 84.2109 16.1355C82.9336 16.1355 81.918 15.7468 81.1641 14.9695C80.4102 14.1882 80.0332 13.114 80.0332 11.7468ZM81.8203 11.6882C81.8203 12.6609 82.0449 13.3992 82.4941 13.9031C82.9434 14.4031 83.5137 14.6531 84.2051 14.6531C84.8965 14.6531 85.4629 14.405 85.9043 13.9089C86.3496 13.4089 86.5723 12.6609 86.5723 11.6648C86.5723 10.6804 86.3555 9.94604 85.9219 9.46167C85.4922 8.97729 84.9199 8.73511 84.2051 8.73511C83.4902 8.73511 82.9141 8.9812 82.4766 9.47339C82.0391 9.96167 81.8203 10.7 81.8203 11.6882ZM89.7246 15.989V7.39917H92.5078C93.5625 7.39917 94.25 7.44214 94.5703 7.52808C95.0625 7.65698 95.4746 7.93823 95.8066 8.37183C96.1387 8.80151 96.3047 9.35815 96.3047 10.0417C96.3047 10.5691 96.209 11.0125 96.0176 11.3718C95.8262 11.7312 95.582 12.0144 95.2852 12.2214C94.9922 12.4246 94.6934 12.5593 94.3887 12.6257C93.9746 12.7078 93.375 12.7488 92.5898 12.7488H91.459V15.989H89.7246ZM91.459 8.85229V11.2898H92.4082C93.0918 11.2898 93.5488 11.2449 93.7793 11.155C94.0098 11.0652 94.1895 10.9246 94.3184 10.7332C94.4512 10.5417 94.5176 10.3191 94.5176 10.0652C94.5176 9.75269 94.4258 9.49487 94.2422 9.29175C94.0586 9.08862 93.8262 8.96167 93.5449 8.91089C93.3379 8.87183 92.9219 8.85229 92.2969 8.85229H91.459ZM97.6758 15.989V7.39917H99.4102V15.989H97.6758ZM101.086 15.989V7.39917H102.773L106.289 13.1355V7.39917H107.9V15.989H106.16L102.697 10.3875V15.989H101.086Z" fill="white"/>
<defs>
<linearGradient id="paint0_linear_40_2527" x1="58.5" y1="1.98901" x2="58.5" y2="21.989" gradientUnits="userSpaceOnUse">
<stop stop-color="#1A9E9E"/>
<stop offset="1" stop-color="#DB5528"/>
</linearGradient>
</defs>
</svg>
