<svg width="50" height="24" viewBox="0 0 50 24" fill="none" xmlns="http://www.w3.org/2000/svg">
<rect x="2" y="1.98901" width="47" height="20" rx="10" fill="url(#paint0_linear_67_1828)"/>
<rect x="2" y="1.98901" width="47" height="20" rx="10" stroke="#B53D7F" stroke-width="3" stroke-linejoin="round"/>
<path d="M10.0312 15.989V7.39917H13.6816C14.5996 7.39917 15.2656 7.47729 15.6797 7.63354C16.0977 7.78589 16.4316 8.05933 16.6816 8.45386C16.9316 8.84839 17.0566 9.29956 17.0566 9.80737C17.0566 10.4519 16.8672 10.9851 16.4883 11.407C16.1094 11.825 15.543 12.0886 14.7891 12.198C15.1641 12.4167 15.4727 12.657 15.7148 12.9187C15.9609 13.1804 16.291 13.6453 16.7051 14.3132L17.7539 15.989H15.6797L14.4258 14.1199C13.9805 13.4519 13.6758 13.032 13.5117 12.8601C13.3477 12.6843 13.1738 12.5652 12.9902 12.5027C12.8066 12.4363 12.5156 12.4031 12.1172 12.4031H11.7656V15.989H10.0312ZM11.7656 11.032H13.0488C13.8809 11.032 14.4004 10.9968 14.6074 10.9265C14.8145 10.8562 14.9766 10.7351 15.0938 10.5632C15.2109 10.3914 15.2695 10.1765 15.2695 9.9187C15.2695 9.62964 15.1914 9.39722 15.0352 9.22144C14.8828 9.04175 14.666 8.92847 14.3848 8.88159C14.2441 8.86206 13.8223 8.85229 13.1191 8.85229H11.7656V11.032ZM18.6914 7.39917H21.8613C22.5762 7.39917 23.1211 7.45386 23.4961 7.56323C24 7.71167 24.4316 7.97534 24.791 8.35425C25.1504 8.73315 25.4238 9.198 25.6113 9.74878C25.7988 10.2957 25.8926 10.9714 25.8926 11.7761C25.8926 12.4832 25.8047 13.0925 25.6289 13.6042C25.4141 14.2292 25.1074 14.7351 24.709 15.1218C24.4082 15.4148 24.002 15.6433 23.4902 15.8074C23.1074 15.9285 22.5957 15.989 21.9551 15.989H18.6914V7.39917ZM20.4258 8.85229V14.5417H21.7207C22.2051 14.5417 22.5547 14.5144 22.7695 14.4597C23.0508 14.3894 23.2832 14.2703 23.4668 14.1023C23.6543 13.9343 23.8066 13.6589 23.9238 13.2761C24.041 12.8894 24.0996 12.364 24.0996 11.7C24.0996 11.0359 24.041 10.5261 23.9238 10.1707C23.8066 9.81519 23.6426 9.53784 23.4316 9.33862C23.2207 9.1394 22.9531 9.00464 22.6289 8.93433C22.3867 8.87964 21.9121 8.85229 21.2051 8.85229H20.4258ZM27.375 15.989V7.39917H29.1094V10.78H32.5078V7.39917H34.2422V15.989H32.5078V12.2332H29.1094V15.989H27.375ZM35.7012 13.78L37.3418 13.6101C37.3887 13.9812 37.5273 14.2761 37.7578 14.4949C37.9883 14.7097 38.2539 14.8171 38.5547 14.8171C38.8984 14.8171 39.1895 14.6785 39.4277 14.4011C39.666 14.1199 39.7852 13.698 39.7852 13.1355C39.7852 12.6082 39.666 12.2136 39.4277 11.9519C39.1934 11.6863 38.8867 11.5535 38.5078 11.5535C38.0352 11.5535 37.6113 11.7625 37.2363 12.1804L35.9004 11.9871L36.7441 7.51636H41.0977V9.05737H37.9922L37.7344 10.5164C38.1016 10.3328 38.4766 10.241 38.8594 10.241C39.5898 10.241 40.209 10.5066 40.7168 11.0378C41.2246 11.5691 41.4785 12.2585 41.4785 13.1062C41.4785 13.8132 41.2734 14.4441 40.8633 14.9988C40.3047 15.7566 39.5293 16.1355 38.5371 16.1355C37.7441 16.1355 37.0977 15.9226 36.5977 15.4968C36.0977 15.071 35.7988 14.4988 35.7012 13.78Z" fill="white"/>
<defs>
<linearGradient id="paint0_linear_67_1828" x1="25.5" y1="1.98901" x2="25.5" y2="21.989" gradientUnits="userSpaceOnUse">
<stop stop-color="#A5C426"/>
<stop offset="1" stop-color="#B53D7F"/>
</linearGradient>
</defs>
</svg>
