<svg width="80" height="24" viewBox="0 0 80 24" fill="none" xmlns="http://www.w3.org/2000/svg">
<rect x="1" y="1.98901" width="78" height="20" rx="10" fill="url(#paint0_linear_67_1815)"/>
<rect x="1" y="1.98901" width="78" height="20" rx="10" stroke="#4200A8" stroke-width="3" stroke-linejoin="round"/>
<path d="M9.12695 9.76636H10.6621V10.6804C10.8613 10.3679 11.1309 10.114 11.4707 9.9187C11.8105 9.72339 12.1875 9.62573 12.6016 9.62573C13.3242 9.62573 13.9375 9.90894 14.4414 10.4753C14.9453 11.0417 15.1973 11.8308 15.1973 12.8425C15.1973 13.8816 14.9434 14.6902 14.4355 15.2683C13.9277 15.8425 13.3125 16.1296 12.5898 16.1296C12.2461 16.1296 11.9336 16.0613 11.6523 15.9246C11.375 15.7878 11.082 15.5535 10.7734 15.2214V18.3562H9.12695V9.76636ZM10.7559 12.7722C10.7559 13.4714 10.8945 13.989 11.1719 14.325C11.4492 14.657 11.7871 14.823 12.1855 14.823C12.5684 14.823 12.8867 14.6707 13.1406 14.366C13.3945 14.0574 13.5215 13.5535 13.5215 12.8542C13.5215 12.2019 13.3906 11.7175 13.1289 11.4011C12.8672 11.0847 12.543 10.9265 12.1562 10.9265C11.7539 10.9265 11.4199 11.0828 11.1543 11.3953C10.8887 11.7039 10.7559 12.1628 10.7559 12.7722ZM18.0859 15.989H16.4395V9.76636H17.9688V10.6511C18.2305 10.2332 18.4648 9.95776 18.6719 9.82495C18.8828 9.69214 19.1211 9.62573 19.3867 9.62573C19.7617 9.62573 20.123 9.72925 20.4707 9.93628L19.9609 11.3718C19.6836 11.1921 19.4258 11.1023 19.1875 11.1023C18.957 11.1023 18.7617 11.1667 18.6016 11.2957C18.4414 11.4207 18.3145 11.6492 18.2207 11.9812C18.1309 12.3132 18.0859 13.0085 18.0859 14.0671V15.989ZM20.8047 12.7898C20.8047 12.2429 20.9395 11.7136 21.209 11.2019C21.4785 10.6902 21.8594 10.2996 22.3516 10.03C22.8477 9.7605 23.4004 9.62573 24.0098 9.62573C24.9512 9.62573 25.7227 9.93237 26.3242 10.5457C26.9258 11.155 27.2266 11.9265 27.2266 12.8601C27.2266 13.8015 26.9219 14.5828 26.3125 15.2039C25.707 15.821 24.9434 16.1296 24.0215 16.1296C23.4512 16.1296 22.9062 16.0007 22.3867 15.7429C21.8711 15.4851 21.4785 15.1082 21.209 14.6121C20.9395 14.1121 20.8047 13.5046 20.8047 12.7898ZM22.4922 12.8777C22.4922 13.4949 22.6387 13.9675 22.9316 14.2957C23.2246 14.6238 23.5859 14.7878 24.0156 14.7878C24.4453 14.7878 24.8047 14.6238 25.0938 14.2957C25.3867 13.9675 25.5332 13.491 25.5332 12.866C25.5332 12.2566 25.3867 11.7878 25.0938 11.4597C24.8047 11.1316 24.4453 10.9675 24.0156 10.9675C23.5859 10.9675 23.2246 11.1316 22.9316 11.4597C22.6387 11.7878 22.4922 12.2605 22.4922 12.8777ZM28.334 13.698V12.0515H31.5684V13.698H28.334ZM38.0254 12.8308L39.707 13.364C39.4492 14.3015 39.0195 14.9988 38.418 15.4558C37.8203 15.9089 37.0605 16.1355 36.1387 16.1355C34.998 16.1355 34.0605 15.7468 33.3262 14.9695C32.5918 14.1882 32.2246 13.1218 32.2246 11.7703C32.2246 10.3406 32.5938 9.2312 33.332 8.44214C34.0703 7.64917 35.041 7.25269 36.2441 7.25269C37.2949 7.25269 38.1484 7.56323 38.8047 8.18433C39.1953 8.55151 39.4883 9.07886 39.6836 9.76636L37.9668 10.1765C37.8652 9.7312 37.6523 9.37964 37.3281 9.12183C37.0078 8.86401 36.6172 8.73511 36.1562 8.73511C35.5195 8.73511 35.002 8.96362 34.6035 9.42065C34.209 9.87769 34.0117 10.6179 34.0117 11.6414C34.0117 12.7273 34.207 13.5007 34.5977 13.9617C34.9883 14.4226 35.4961 14.6531 36.1211 14.6531C36.582 14.6531 36.9785 14.5066 37.3105 14.2136C37.6426 13.9207 37.8809 13.4597 38.0254 12.8308ZM48.9473 15.989H47.0605L46.3105 14.0378H42.877L42.168 15.989H40.3281L43.6738 7.39917H45.5078L48.9473 15.989ZM45.7539 12.5906L44.5703 9.40308L43.4102 12.5906H45.7539ZM49.4336 13.1941L51.1211 13.03C51.2227 13.5964 51.4277 14.0125 51.7363 14.2781C52.0488 14.5437 52.4688 14.6765 52.9961 14.6765C53.5547 14.6765 53.9746 14.5593 54.2559 14.325C54.541 14.0867 54.6836 13.8093 54.6836 13.4929C54.6836 13.2898 54.623 13.1179 54.502 12.9773C54.3848 12.8328 54.1777 12.7078 53.8809 12.6023C53.6777 12.532 53.2148 12.407 52.4922 12.2273C51.5625 11.9968 50.9102 11.7136 50.5352 11.3777C50.0078 10.905 49.7441 10.3289 49.7441 9.64917C49.7441 9.21167 49.8672 8.80347 50.1133 8.42456C50.3633 8.04175 50.7207 7.75073 51.1855 7.55151C51.6543 7.35229 52.2188 7.25269 52.8789 7.25269C53.957 7.25269 54.7676 7.48901 55.3105 7.96167C55.8574 8.43433 56.1445 9.06519 56.1719 9.85425L54.4375 9.93042C54.3633 9.48901 54.2031 9.17261 53.957 8.9812C53.7148 8.78589 53.3496 8.68823 52.8613 8.68823C52.3574 8.68823 51.9629 8.79175 51.6777 8.99878C51.4941 9.13159 51.4023 9.30933 51.4023 9.53198C51.4023 9.73511 51.4883 9.90894 51.6602 10.0535C51.8789 10.2371 52.4102 10.4285 53.2539 10.6277C54.0977 10.8269 54.7207 11.0339 55.123 11.2488C55.5293 11.4597 55.8457 11.7507 56.0723 12.1218C56.3027 12.489 56.418 12.9441 56.418 13.4871C56.418 13.9792 56.2812 14.4402 56.0078 14.8699C55.7344 15.2996 55.3477 15.6199 54.8477 15.8308C54.3477 16.0378 53.7246 16.1414 52.9785 16.1414C51.8926 16.1414 51.0586 15.8914 50.4766 15.3914C49.8945 14.8875 49.5469 14.155 49.4336 13.1941ZM57.877 15.989V7.39917H60.6602C61.7148 7.39917 62.4023 7.44214 62.7227 7.52808C63.2148 7.65698 63.627 7.93823 63.959 8.37183C64.291 8.80151 64.457 9.35815 64.457 10.0417C64.457 10.5691 64.3613 11.0125 64.1699 11.3718C63.9785 11.7312 63.7344 12.0144 63.4375 12.2214C63.1445 12.4246 62.8457 12.5593 62.541 12.6257C62.127 12.7078 61.5273 12.7488 60.7422 12.7488H59.6113V15.989H57.877ZM59.6113 8.85229V11.2898H60.5605C61.2441 11.2898 61.7012 11.2449 61.9316 11.155C62.1621 11.0652 62.3418 10.9246 62.4707 10.7332C62.6035 10.5417 62.6699 10.3191 62.6699 10.0652C62.6699 9.75269 62.5781 9.49487 62.3945 9.29175C62.2109 9.08862 61.9785 8.96167 61.6973 8.91089C61.4902 8.87183 61.0742 8.85229 60.4492 8.85229H59.6113ZM66.9297 11.3542C66.5039 11.1746 66.1934 10.9285 65.998 10.616C65.8066 10.2996 65.7109 9.95386 65.7109 9.57886C65.7109 8.93823 65.9336 8.40894 66.3789 7.99097C66.8281 7.573 67.4648 7.36401 68.2891 7.36401C69.1055 7.36401 69.7383 7.573 70.1875 7.99097C70.6406 8.40894 70.8672 8.93823 70.8672 9.57886C70.8672 9.97729 70.7637 10.3328 70.5566 10.6453C70.3496 10.9539 70.0586 11.1902 69.6836 11.3542C70.1602 11.5457 70.5215 11.825 70.7676 12.1921C71.0176 12.5593 71.1426 12.9832 71.1426 13.4636C71.1426 14.2566 70.8887 14.9011 70.3809 15.3972C69.877 15.8933 69.2051 16.1414 68.3652 16.1414C67.584 16.1414 66.9336 15.9363 66.4141 15.5261C65.8008 15.0417 65.4941 14.3777 65.4941 13.5339C65.4941 13.0691 65.6094 12.6433 65.8398 12.2566C66.0703 11.866 66.4336 11.5652 66.9297 11.3542ZM67.2695 9.69604C67.2695 10.0242 67.3613 10.28 67.5449 10.4636C67.7324 10.6472 67.9805 10.739 68.2891 10.739C68.6016 10.739 68.8516 10.6472 69.0391 10.4636C69.2266 10.2761 69.3203 10.0183 69.3203 9.69019C69.3203 9.38159 69.2266 9.1355 69.0391 8.9519C68.8555 8.7644 68.6113 8.67065 68.3066 8.67065C67.9902 8.67065 67.7383 8.7644 67.5508 8.9519C67.3633 9.1394 67.2695 9.38745 67.2695 9.69604ZM67.1172 13.3757C67.1172 13.8289 67.2324 14.1824 67.4629 14.4363C67.6973 14.6902 67.9883 14.8171 68.3359 14.8171C68.6758 14.8171 68.957 14.696 69.1797 14.4539C69.4023 14.2078 69.5137 13.8542 69.5137 13.3933C69.5137 12.991 69.4004 12.6687 69.1738 12.4265C68.9473 12.1804 68.6602 12.0574 68.3125 12.0574C67.9102 12.0574 67.6094 12.196 67.4102 12.4734C67.2148 12.7507 67.1172 13.0515 67.1172 13.3757Z" fill="white"/>
<defs>
<linearGradient id="paint0_linear_67_1815" x1="40" y1="1.98901" x2="40" y2="21.989" gradientUnits="userSpaceOnUse">
<stop stop-color="#4200A8"/>
<stop offset="1" stop-color="#D9AF60"/>
</linearGradient>
</defs>
</svg>
