<svg width="54" height="25" viewBox="0 0 54 25" fill="none" xmlns="http://www.w3.org/2000/svg">
<path d="M41.6527 0.168577C37.4962 -0.367323 33.6297 0.694877 30.7252 2.75358C28.5436 4.29998 25.3258 4.29998 23.1442 2.75358C20.2397 0.694877 16.3734 -0.367323 12.217 0.168477C6.04048 0.964777 1.12518 5.43568 0.436877 10.8506C-0.500223 18.2232 6.08888 24.4642 14.3483 24.4642C17.6258 24.4642 20.6351 23.479 23.0166 21.8308C25.3168 20.2389 28.5529 20.2389 30.853 21.8308C33.2344 23.479 36.2437 24.4642 39.5211 24.4642C47.7805 24.4642 54.3694 18.2233 53.4325 10.8508C52.7443 5.43598 47.829 0.964877 41.6527 0.168577Z" fill="url(#paint0_radial_97_5689)"/>
<path d="M5.23267 16.8276V8.23779H11.1213V9.69092H6.96704V11.7241H10.553V13.1772H6.96704V16.8276H5.23267ZM12.6038 16.8276V8.30811H14.3381V15.3804H18.6506V16.8276H12.6038ZM20.9358 16.8276V9.69092H18.387V8.23779H25.2131V9.69092H22.6702V16.8276H20.9358ZM25.9163 14.5483L27.51 14.355C27.5608 14.7612 27.6975 15.0718 27.9202 15.2866C28.1428 15.5015 28.4124 15.6089 28.7288 15.6089C29.0686 15.6089 29.3538 15.48 29.5842 15.2222C29.8186 14.9644 29.9358 14.6167 29.9358 14.1792C29.9358 13.7651 29.8245 13.437 29.6018 13.1948C29.3792 12.9526 29.1077 12.8315 28.7874 12.8315C28.5764 12.8315 28.3245 12.8726 28.0315 12.9546L28.2131 11.6128C28.6584 11.6245 28.9983 11.5288 29.2327 11.3257C29.467 11.1187 29.5842 10.8452 29.5842 10.5054C29.5842 10.2163 29.4983 9.98584 29.3264 9.81396C29.1545 9.64209 28.926 9.55615 28.6409 9.55615C28.3596 9.55615 28.1194 9.65381 27.9202 9.84912C27.7209 10.0444 27.5999 10.3296 27.5569 10.7046L26.0393 10.4468C26.1448 9.92725 26.303 9.51318 26.5139 9.20459C26.7288 8.89209 27.0256 8.64795 27.4045 8.47217C27.7874 8.29248 28.2151 8.20264 28.6877 8.20264C29.4963 8.20264 30.1448 8.46045 30.6331 8.97607C31.0354 9.39795 31.2366 9.87451 31.2366 10.4058C31.2366 11.1597 30.8245 11.7612 30.0002 12.2104C30.4924 12.3159 30.885 12.5522 31.178 12.9194C31.4749 13.2866 31.6233 13.73 31.6233 14.2495C31.6233 15.0034 31.3479 15.646 30.7971 16.1772C30.2463 16.7085 29.5608 16.9741 28.7405 16.9741C27.9631 16.9741 27.3186 16.7515 26.8069 16.3062C26.2952 15.8569 25.9983 15.271 25.9163 14.5483ZM33.0647 16.8276V8.30811H34.7991V15.3804H39.1116V16.8276H33.0647ZM44.3499 13.6694V12.2222H48.0881V15.644C47.7249 15.9956 47.1975 16.3062 46.5061 16.5757C45.8186 16.8413 45.1213 16.9741 44.4143 16.9741C43.5159 16.9741 42.7327 16.7866 42.0647 16.4116C41.3967 16.0327 40.8948 15.4937 40.5588 14.7944C40.2229 14.0913 40.0549 13.3276 40.0549 12.5034C40.0549 11.6089 40.2424 10.814 40.6174 10.1187C40.9924 9.42334 41.5413 8.89014 42.2639 8.51904C42.8147 8.23389 43.5002 8.09131 44.3206 8.09131C45.387 8.09131 46.219 8.31592 46.8167 8.76514C47.4182 9.21045 47.8049 9.82764 47.9768 10.6167L46.2542 10.939C46.1331 10.5171 45.9045 10.1851 45.5686 9.94287C45.2366 9.69678 44.8206 9.57373 44.3206 9.57373C43.5627 9.57373 42.9592 9.81396 42.51 10.2944C42.0647 10.7749 41.842 11.4878 41.842 12.4331C41.842 13.4526 42.0686 14.2183 42.5217 14.73C42.9749 15.2378 43.5686 15.4917 44.303 15.4917C44.6663 15.4917 45.0295 15.4214 45.3928 15.2808C45.76 15.1362 46.0745 14.9624 46.3362 14.7593V13.6694H44.3499Z" fill="white"/>
<defs>
<radialGradient id="paint0_radial_97_5689" cx="0" cy="0" r="1" gradientUnits="userSpaceOnUse" gradientTransform="translate(26.9287 12.2474) scale(26.9853 14.8863)">
<stop stop-color="#F089B8"/>
<stop offset="0.1485" stop-color="#D287B1"/>
<stop offset="0.4725" stop-color="#87829F"/>
<stop offset="0.9445" stop-color="#0F7983"/>
<stop offset="1" stop-color="#007880"/>
</radialGradient>
</defs>
</svg>
