<svg width="59" height="24" viewBox="0 0 59 24" fill="none" xmlns="http://www.w3.org/2000/svg">
<rect x="2" y="1.98901" width="56" height="20" rx="10" fill="url(#paint0_linear_45_4274)"/>
<rect x="2" y="1.98901" width="56" height="20" rx="10" stroke="#93FF96" stroke-width="3" stroke-linejoin="round"/>
<path d="M14.1855 12.8308V11.3835H17.9238V14.8054C17.5605 15.157 17.0332 15.4675 16.3418 15.7371C15.6543 16.0027 14.957 16.1355 14.25 16.1355C13.3516 16.1355 12.5684 15.948 11.9004 15.573C11.2324 15.1941 10.7305 14.655 10.3945 13.9558C10.0586 13.2527 9.89062 12.489 9.89062 11.6648C9.89062 10.7703 10.0781 9.97534 10.4531 9.28003C10.8281 8.58472 11.377 8.05151 12.0996 7.68042C12.6504 7.39526 13.3359 7.25269 14.1562 7.25269C15.2227 7.25269 16.0547 7.47729 16.6523 7.92651C17.2539 8.37183 17.6406 8.98901 17.8125 9.77808L16.0898 10.1003C15.9688 9.67847 15.7402 9.34644 15.4043 9.10425C15.0723 8.85815 14.6562 8.73511 14.1562 8.73511C13.3984 8.73511 12.7949 8.97534 12.3457 9.45581C11.9004 9.93628 11.6777 10.6492 11.6777 11.5945C11.6777 12.614 11.9043 13.3796 12.3574 13.8914C12.8105 14.3992 13.4043 14.6531 14.1387 14.6531C14.502 14.6531 14.8652 14.5828 15.2285 14.4421C15.5957 14.2976 15.9102 14.1238 16.1719 13.9207V12.8308H14.1855ZM19.0898 13.1941L20.7773 13.03C20.8789 13.5964 21.084 14.0125 21.3926 14.2781C21.7051 14.5437 22.125 14.6765 22.6523 14.6765C23.2109 14.6765 23.6309 14.5593 23.9121 14.325C24.1973 14.0867 24.3398 13.8093 24.3398 13.4929C24.3398 13.2898 24.2793 13.1179 24.1582 12.9773C24.041 12.8328 23.834 12.7078 23.5371 12.6023C23.334 12.532 22.8711 12.407 22.1484 12.2273C21.2188 11.9968 20.5664 11.7136 20.1914 11.3777C19.6641 10.905 19.4004 10.3289 19.4004 9.64917C19.4004 9.21167 19.5234 8.80347 19.7695 8.42456C20.0195 8.04175 20.377 7.75073 20.8418 7.55151C21.3105 7.35229 21.875 7.25269 22.5352 7.25269C23.6133 7.25269 24.4238 7.48901 24.9668 7.96167C25.5137 8.43433 25.8008 9.06519 25.8281 9.85425L24.0938 9.93042C24.0195 9.48901 23.8594 9.17261 23.6133 8.9812C23.3711 8.78589 23.0059 8.68823 22.5176 8.68823C22.0137 8.68823 21.6191 8.79175 21.334 8.99878C21.1504 9.13159 21.0586 9.30933 21.0586 9.53198C21.0586 9.73511 21.1445 9.90894 21.3164 10.0535C21.5352 10.2371 22.0664 10.4285 22.9102 10.6277C23.7539 10.8269 24.377 11.0339 24.7793 11.2488C25.1855 11.4597 25.502 11.7507 25.7285 12.1218C25.959 12.489 26.0742 12.9441 26.0742 13.4871C26.0742 13.9792 25.9375 14.4402 25.6641 14.8699C25.3906 15.2996 25.0039 15.6199 24.5039 15.8308C24.0039 16.0378 23.3809 16.1414 22.6348 16.1414C21.5488 16.1414 20.7148 15.8914 20.1328 15.3914C19.5508 14.8875 19.2031 14.155 19.0898 13.1941ZM27.5566 15.989V7.39917H29.291V11.2136L32.7949 7.39917H35.127L31.8926 10.7449L35.3027 15.989H33.0586L30.6973 11.9578L29.291 13.3933V15.989H27.5566ZM35.7832 13.7097L37.377 13.5164C37.4277 13.9226 37.5645 14.2332 37.7871 14.448C38.0098 14.6628 38.2793 14.7703 38.5957 14.7703C38.9355 14.7703 39.2207 14.6414 39.4512 14.3835C39.6855 14.1257 39.8027 13.7781 39.8027 13.3406C39.8027 12.9265 39.6914 12.5984 39.4688 12.3562C39.2461 12.114 38.9746 11.9929 38.6543 11.9929C38.4434 11.9929 38.1914 12.0339 37.8984 12.116L38.0801 10.7742C38.5254 10.7859 38.8652 10.6902 39.0996 10.4871C39.334 10.28 39.4512 10.0066 39.4512 9.66675C39.4512 9.37769 39.3652 9.14722 39.1934 8.97534C39.0215 8.80347 38.793 8.71753 38.5078 8.71753C38.2266 8.71753 37.9863 8.81519 37.7871 9.0105C37.5879 9.20581 37.4668 9.49097 37.4238 9.86597L35.9062 9.60815C36.0117 9.08862 36.1699 8.67456 36.3809 8.36597C36.5957 8.05347 36.8926 7.80933 37.2715 7.63354C37.6543 7.45386 38.082 7.36401 38.5547 7.36401C39.3633 7.36401 40.0117 7.62183 40.5 8.13745C40.9023 8.55933 41.1035 9.03589 41.1035 9.56714C41.1035 10.321 40.6914 10.9226 39.8672 11.3718C40.3594 11.4773 40.752 11.7136 41.0449 12.0808C41.3418 12.448 41.4902 12.8914 41.4902 13.4109C41.4902 14.1648 41.2148 14.8074 40.6641 15.3386C40.1133 15.8699 39.4277 16.1355 38.6074 16.1355C37.8301 16.1355 37.1855 15.9128 36.6738 15.4675C36.1621 15.0183 35.8652 14.4324 35.7832 13.7097ZM42.8906 7.39917H46.3242C47.0039 7.39917 47.5098 7.42847 47.8418 7.48706C48.1777 7.54175 48.4766 7.65894 48.7383 7.83862C49.0039 8.01831 49.2246 8.25854 49.4004 8.55933C49.5762 8.8562 49.6641 9.19019 49.6641 9.56128C49.6641 9.96362 49.5547 10.3328 49.3359 10.6687C49.1211 11.0046 48.8281 11.2566 48.457 11.4246C48.9805 11.5769 49.3828 11.8367 49.6641 12.2039C49.9453 12.571 50.0859 13.0027 50.0859 13.4988C50.0859 13.8894 49.9941 14.2703 49.8105 14.6414C49.6309 15.0085 49.3828 15.3035 49.0664 15.5261C48.7539 15.7449 48.3672 15.8796 47.9062 15.9304C47.6172 15.9617 46.9199 15.9812 45.8145 15.989H42.8906V7.39917ZM44.625 8.82886V10.8152H45.7617C46.4375 10.8152 46.8574 10.8054 47.0215 10.7859C47.3184 10.7507 47.5508 10.6492 47.7188 10.4812C47.8906 10.3093 47.9766 10.0847 47.9766 9.80737C47.9766 9.54175 47.9023 9.3269 47.7539 9.16284C47.6094 8.99487 47.3926 8.89331 47.1035 8.85815C46.9316 8.83862 46.4375 8.82886 45.6211 8.82886H44.625ZM44.625 12.2449V14.5417H46.2305C46.8555 14.5417 47.252 14.5242 47.4199 14.489C47.6777 14.4421 47.8867 14.3289 48.0469 14.1492C48.2109 13.9656 48.293 13.7214 48.293 13.4167C48.293 13.1589 48.2305 12.9402 48.1055 12.7605C47.9805 12.5808 47.7988 12.45 47.5605 12.3679C47.3262 12.2859 46.8145 12.2449 46.0254 12.2449H44.625Z" fill="white"/>
<defs>
<linearGradient id="paint0_linear_45_4274" x1="30" y1="1.98901" x2="30" y2="21.989" gradientUnits="userSpaceOnUse">
<stop stop-color="#AA2C85"/>
<stop offset="1" stop-color="#93FF96"/>
</linearGradient>
</defs>
</svg>
