<svg width="49" height="24" viewBox="0 0 49 24" fill="none" xmlns="http://www.w3.org/2000/svg">
<rect x="2" y="1.98901" width="46" height="20" rx="10" fill="url(#paint0_linear_64_1963)"/>
<rect x="2" y="1.98901" width="46" height="20" rx="10" stroke="#2EA3CD" stroke-width="3" stroke-linejoin="round"/>
<path d="M10.1934 15.989V7.39917H12.9766C14.0312 7.39917 14.7188 7.44214 15.0391 7.52808C15.5312 7.65698 15.9434 7.93823 16.2754 8.37183C16.6074 8.80151 16.7734 9.35815 16.7734 10.0417C16.7734 10.5691 16.6777 11.0125 16.4863 11.3718C16.2949 11.7312 16.0508 12.0144 15.7539 12.2214C15.4609 12.4246 15.1621 12.5593 14.8574 12.6257C14.4434 12.7078 13.8438 12.7488 13.0586 12.7488H11.9277V15.989H10.1934ZM11.9277 8.85229V11.2898H12.877C13.5605 11.2898 14.0176 11.2449 14.248 11.155C14.4785 11.0652 14.6582 10.9246 14.7871 10.7332C14.9199 10.5417 14.9863 10.3191 14.9863 10.0652C14.9863 9.75269 14.8945 9.49487 14.7109 9.29175C14.5273 9.08862 14.2949 8.96167 14.0137 8.91089C13.8066 8.87183 13.3906 8.85229 12.7656 8.85229H11.9277ZM18.1973 15.989V7.39917H24.5664V8.85229H19.9316V10.7566H24.2441V12.2039H19.9316V14.5417H24.7305V15.989H18.1973ZM26.207 15.989V7.39917H29.8574C30.7754 7.39917 31.4414 7.47729 31.8555 7.63354C32.2734 7.78589 32.6074 8.05933 32.8574 8.45386C33.1074 8.84839 33.2324 9.29956 33.2324 9.80737C33.2324 10.4519 33.043 10.9851 32.6641 11.407C32.2852 11.825 31.7188 12.0886 30.9648 12.198C31.3398 12.4167 31.6484 12.657 31.8906 12.9187C32.1367 13.1804 32.4668 13.6453 32.8809 14.3132L33.9297 15.989H31.8555L30.6016 14.1199C30.1562 13.4519 29.8516 13.032 29.6875 12.8601C29.5234 12.6843 29.3496 12.5652 29.166 12.5027C28.9824 12.4363 28.6914 12.4031 28.293 12.4031H27.9414V15.989H26.207ZM27.9414 11.032H29.2246C30.0566 11.032 30.5762 10.9968 30.7832 10.9265C30.9902 10.8562 31.1523 10.7351 31.2695 10.5632C31.3867 10.3914 31.4453 10.1765 31.4453 9.9187C31.4453 9.62964 31.3672 9.39722 31.2109 9.22144C31.0586 9.04175 30.8418 8.92847 30.5605 8.88159C30.4199 8.86206 29.998 8.85229 29.2949 8.85229H27.9414V11.032ZM40.0703 14.4597V15.989H34.2988C34.3613 15.4109 34.5488 14.864 34.8613 14.3484C35.1738 13.8289 35.791 13.1414 36.7129 12.2859C37.4551 11.5945 37.9102 11.1257 38.0781 10.8796C38.3047 10.5398 38.418 10.2039 38.418 9.87183C38.418 9.50464 38.3184 9.22339 38.1191 9.02808C37.9238 8.82886 37.6523 8.72925 37.3047 8.72925C36.9609 8.72925 36.6875 8.83276 36.4844 9.03979C36.2812 9.24683 36.1641 9.59058 36.1328 10.071L34.4922 9.90698C34.5898 9.00073 34.8965 8.35034 35.4121 7.95581C35.9277 7.56128 36.5723 7.36401 37.3457 7.36401C38.1934 7.36401 38.8594 7.59253 39.3438 8.04956C39.8281 8.50659 40.0703 9.07495 40.0703 9.75464C40.0703 10.1414 40 10.5105 39.8594 10.8621C39.7227 11.2097 39.5039 11.575 39.2031 11.9578C39.0039 12.2117 38.6445 12.5769 38.125 13.0535C37.6055 13.53 37.2754 13.8464 37.1348 14.0027C36.998 14.1589 36.8867 14.3113 36.8008 14.4597H40.0703Z" fill="white"/>
<defs>
<linearGradient id="paint0_linear_64_1963" x1="25" y1="1.98901" x2="25" y2="21.989" gradientUnits="userSpaceOnUse">
<stop stop-color="#2EA3CD"/>
<stop offset="1" stop-color="#6C5197"/>
</linearGradient>
</defs>
</svg>
