<svg width="50" height="24" viewBox="0 0 50 24" fill="none" xmlns="http://www.w3.org/2000/svg">
<rect x="2" y="1.98901" width="47" height="20" rx="10" fill="url(#paint0_linear_64_1836)"/>
<rect x="2" y="1.98901" width="47" height="20" rx="10" stroke="#63A56A" stroke-width="3" stroke-linejoin="round"/>
<path d="M10.377 15.989V7.39917H12.0645L15.5801 13.1355V7.39917H17.1914V15.989H15.4512L11.9883 10.3875V15.989H10.377ZM26.7773 15.989H24.8906L24.1406 14.0378H20.707L19.998 15.989H18.1582L21.5039 7.39917H23.3379L26.7773 15.989ZM23.584 12.5906L22.4004 9.40308L21.2402 12.5906H23.584ZM27.7031 15.989V7.39917H34.0723V8.85229H29.4375V10.7566H33.75V12.2039H29.4375V14.5417H34.2363V15.989H27.7031ZM39.5566 15.989H37.9102V9.78394C37.3086 10.3464 36.5996 10.7625 35.7832 11.032V9.53784C36.2129 9.39722 36.6797 9.13159 37.1836 8.74097C37.6875 8.34644 38.0332 7.88745 38.2207 7.36401H39.5566V15.989Z" fill="white"/>
<defs>
<linearGradient id="paint0_linear_64_1836" x1="25.5" y1="1.98901" x2="25.5" y2="21.989" gradientUnits="userSpaceOnUse">
<stop stop-color="#63A56A"/>
<stop offset="1" stop-color="#00439B"/>
</linearGradient>
</defs>
</svg>
