<svg width="58" height="24" viewBox="0 0 58 24" fill="none" xmlns="http://www.w3.org/2000/svg">
<rect x="2" y="1.98901" width="55" height="20" rx="10" fill="url(#paint0_linear_50_1813)"/>
<rect x="2" y="1.98901" width="55" height="20" rx="10" stroke="#AD4081" stroke-width="3" stroke-linejoin="round"/>
<path d="M10.0762 15.989V7.46948H11.8105V14.5417H16.123V15.989H10.0762ZM25.1113 15.989H23.2246L22.4746 14.0378H19.041L18.332 15.989H16.4922L19.8379 7.39917H21.6719L25.1113 15.989ZM21.918 12.5906L20.7344 9.40308L19.5742 12.5906H21.918ZM26.0137 15.989V7.39917H28.6094L30.168 13.2585L31.709 7.39917H34.3105V15.989H32.6992V9.22729L30.9941 15.989H29.3242L27.625 9.22729V15.989H26.0137ZM36.0332 15.989V7.39917H38.8164C39.8711 7.39917 40.5586 7.44214 40.8789 7.52808C41.3711 7.65698 41.7832 7.93823 42.1152 8.37183C42.4473 8.80151 42.6133 9.35815 42.6133 10.0417C42.6133 10.5691 42.5176 11.0125 42.3262 11.3718C42.1348 11.7312 41.8906 12.0144 41.5938 12.2214C41.3008 12.4246 41.002 12.5593 40.6973 12.6257C40.2832 12.7078 39.6836 12.7488 38.8984 12.7488H37.7676V15.989H36.0332ZM37.7676 8.85229V11.2898H38.7168C39.4004 11.2898 39.8574 11.2449 40.0879 11.155C40.3184 11.0652 40.498 10.9246 40.627 10.7332C40.7598 10.5417 40.8262 10.3191 40.8262 10.0652C40.8262 9.75269 40.7344 9.49487 40.5508 9.29175C40.3672 9.08862 40.1348 8.96167 39.8535 8.91089C39.6465 8.87183 39.2305 8.85229 38.6055 8.85229H37.7676ZM49.2344 14.4597V15.989H43.4629C43.5254 15.4109 43.7129 14.864 44.0254 14.3484C44.3379 13.8289 44.9551 13.1414 45.877 12.2859C46.6191 11.5945 47.0742 11.1257 47.2422 10.8796C47.4688 10.5398 47.582 10.2039 47.582 9.87183C47.582 9.50464 47.4824 9.22339 47.2832 9.02808C47.0879 8.82886 46.8164 8.72925 46.4688 8.72925C46.125 8.72925 45.8516 8.83276 45.6484 9.03979C45.4453 9.24683 45.3281 9.59058 45.2969 10.071L43.6562 9.90698C43.7539 9.00073 44.0605 8.35034 44.5762 7.95581C45.0918 7.56128 45.7363 7.36401 46.5098 7.36401C47.3574 7.36401 48.0234 7.59253 48.5078 8.04956C48.9922 8.50659 49.2344 9.07495 49.2344 9.75464C49.2344 10.1414 49.1641 10.5105 49.0234 10.8621C48.8867 11.2097 48.668 11.575 48.3672 11.9578C48.168 12.2117 47.8086 12.5769 47.2891 13.0535C46.7695 13.53 46.4395 13.8464 46.2988 14.0027C46.1621 14.1589 46.0508 14.3113 45.9648 14.4597H49.2344Z" fill="white"/>
<defs>
<linearGradient id="paint0_linear_50_1813" x1="29.5" y1="1.98901" x2="29.5" y2="21.989" gradientUnits="userSpaceOnUse">
<stop stop-color="#AD4081"/>
<stop offset="1" stop-color="#92FFD7"/>
</linearGradient>
</defs>
</svg>
