<svg width="55" height="24" viewBox="0 0 55 24" fill="none" xmlns="http://www.w3.org/2000/svg">
<rect x="2" y="1.98901" width="52" height="20" rx="10" fill="url(#paint0_linear_83_1972)"/>
<rect x="2" y="1.98901" width="52" height="20" rx="10" stroke="#FF6E00" stroke-width="3" stroke-linejoin="round"/>
<path d="M9.74805 13.1941L11.4355 13.03C11.5371 13.5964 11.7422 14.0125 12.0508 14.2781C12.3633 14.5437 12.7832 14.6765 13.3105 14.6765C13.8691 14.6765 14.2891 14.5593 14.5703 14.325C14.8555 14.0867 14.998 13.8093 14.998 13.4929C14.998 13.2898 14.9375 13.1179 14.8164 12.9773C14.6992 12.8328 14.4922 12.7078 14.1953 12.6023C13.9922 12.532 13.5293 12.407 12.8066 12.2273C11.877 11.9968 11.2246 11.7136 10.8496 11.3777C10.3223 10.905 10.0586 10.3289 10.0586 9.64917C10.0586 9.21167 10.1816 8.80347 10.4277 8.42456C10.6777 8.04175 11.0352 7.75073 11.5 7.55151C11.9688 7.35229 12.5332 7.25269 13.1934 7.25269C14.2715 7.25269 15.082 7.48901 15.625 7.96167C16.1719 8.43433 16.459 9.06519 16.4863 9.85425L14.752 9.93042C14.6777 9.48901 14.5176 9.17261 14.2715 8.9812C14.0293 8.78589 13.6641 8.68823 13.1758 8.68823C12.6719 8.68823 12.2773 8.79175 11.9922 8.99878C11.8086 9.13159 11.7168 9.30933 11.7168 9.53198C11.7168 9.73511 11.8027 9.90894 11.9746 10.0535C12.1934 10.2371 12.7246 10.4285 13.5684 10.6277C14.4121 10.8269 15.0352 11.0339 15.4375 11.2488C15.8438 11.4597 16.1602 11.7507 16.3867 12.1218C16.6172 12.489 16.7324 12.9441 16.7324 13.4871C16.7324 13.9792 16.5957 14.4402 16.3223 14.8699C16.0488 15.2996 15.6621 15.6199 15.1621 15.8308C14.6621 16.0378 14.0391 16.1414 13.293 16.1414C12.207 16.1414 11.373 15.8914 10.791 15.3914C10.209 14.8875 9.86133 14.155 9.74805 13.1941ZM18.1797 7.39917H19.9141V12.0515C19.9141 12.7898 19.9355 13.2683 19.9785 13.4871C20.0527 13.8386 20.2285 14.1218 20.5059 14.3367C20.7871 14.5476 21.1699 14.6531 21.6543 14.6531C22.1465 14.6531 22.5176 14.5535 22.7676 14.3542C23.0176 14.1511 23.168 13.9031 23.2188 13.6101C23.2695 13.3171 23.2949 12.8308 23.2949 12.1511V7.39917H25.0293V11.9109C25.0293 12.9421 24.9824 13.6707 24.8887 14.0964C24.7949 14.5222 24.6211 14.8816 24.3672 15.1746C24.1172 15.4675 23.7812 15.7019 23.3594 15.8777C22.9375 16.0496 22.3867 16.1355 21.707 16.1355C20.8867 16.1355 20.2637 16.0417 19.8379 15.8542C19.416 15.6628 19.082 15.4167 18.8359 15.116C18.5898 14.8113 18.4277 14.4929 18.3496 14.1609C18.2363 13.6687 18.1797 12.9421 18.1797 11.9812V7.39917ZM26.1191 15.989V14.4246L30.6309 8.85229H26.6289V7.39917H32.916V8.74683L28.2109 14.5417H33.0977V15.989H26.1191ZM38.0488 15.989H36.4023V9.78394C35.8008 10.3464 35.0918 10.7625 34.2754 11.032V9.53784C34.7051 9.39722 35.1719 9.13159 35.6758 8.74097C36.1797 8.34644 36.5254 7.88745 36.7129 7.36401H38.0488V15.989ZM46.0762 14.4597V15.989H40.3047C40.3672 15.4109 40.5547 14.864 40.8672 14.3484C41.1797 13.8289 41.7969 13.1414 42.7188 12.2859C43.4609 11.5945 43.916 11.1257 44.084 10.8796C44.3105 10.5398 44.4238 10.2039 44.4238 9.87183C44.4238 9.50464 44.3242 9.22339 44.125 9.02808C43.9297 8.82886 43.6582 8.72925 43.3105 8.72925C42.9668 8.72925 42.6934 8.83276 42.4902 9.03979C42.2871 9.24683 42.1699 9.59058 42.1387 10.071L40.498 9.90698C40.5957 9.00073 40.9023 8.35034 41.418 7.95581C41.9336 7.56128 42.5781 7.36401 43.3516 7.36401C44.1992 7.36401 44.8652 7.59253 45.3496 8.04956C45.834 8.50659 46.0762 9.07495 46.0762 9.75464C46.0762 10.1414 46.0059 10.5105 45.8652 10.8621C45.7285 11.2097 45.5098 11.575 45.209 11.9578C45.0098 12.2117 44.6504 12.5769 44.1309 13.0535C43.6113 13.53 43.2812 13.8464 43.1406 14.0027C43.0039 14.1589 42.8926 14.3113 42.8066 14.4597H46.0762Z" fill="white"/>
<defs>
<linearGradient id="paint0_linear_83_1972" x1="28" y1="1.98901" x2="28" y2="21.989" gradientUnits="userSpaceOnUse">
<stop stop-color="#FF6E00"/>
<stop offset="1" stop-color="#00AFFF"/>
</linearGradient>
</defs>
</svg>
