<svg width="72" height="24" viewBox="0 0 72 24" fill="none" xmlns="http://www.w3.org/2000/svg">
<rect x="1" y="1.98901" width="70" height="20" rx="10" fill="url(#paint0_linear_42_2730)"/>
<rect x="1" y="1.98901" width="70" height="20" rx="10" stroke="#AF4100" stroke-width="3" stroke-linejoin="round"/>
<path d="M9.19922 15.989V7.39917H15.0879V8.85229H10.9336V10.8855H14.5195V12.3386H10.9336V15.989H9.19922ZM16.5234 15.989V7.39917H22.8926V8.85229H18.2578V10.7566H22.5703V12.2039H18.2578V14.5417H23.0566V15.989H16.5234ZM24.5332 15.989V7.39917H28.1836C29.1016 7.39917 29.7676 7.47729 30.1816 7.63354C30.5996 7.78589 30.9336 8.05933 31.1836 8.45386C31.4336 8.84839 31.5586 9.29956 31.5586 9.80737C31.5586 10.4519 31.3691 10.9851 30.9902 11.407C30.6113 11.825 30.0449 12.0886 29.291 12.198C29.666 12.4167 29.9746 12.657 30.2168 12.9187C30.4629 13.1804 30.793 13.6453 31.207 14.3132L32.2559 15.989H30.1816L28.9277 14.1199C28.4824 13.4519 28.1777 13.032 28.0137 12.8601C27.8496 12.6843 27.6758 12.5652 27.4922 12.5027C27.3086 12.4363 27.0176 12.4031 26.6191 12.4031H26.2676V15.989H24.5332ZM26.2676 11.032H27.5508C28.3828 11.032 28.9023 10.9968 29.1094 10.9265C29.3164 10.8562 29.4785 10.7351 29.5957 10.5632C29.7129 10.3914 29.7715 10.1765 29.7715 9.9187C29.7715 9.62964 29.6934 9.39722 29.5371 9.22144C29.3848 9.04175 29.168 8.92847 28.8867 8.88159C28.7461 8.86206 28.3242 8.85229 27.6211 8.85229H26.2676V11.032ZM33.2051 15.989V7.39917H36.8555C37.7734 7.39917 38.4395 7.47729 38.8535 7.63354C39.2715 7.78589 39.6055 8.05933 39.8555 8.45386C40.1055 8.84839 40.2305 9.29956 40.2305 9.80737C40.2305 10.4519 40.041 10.9851 39.6621 11.407C39.2832 11.825 38.7168 12.0886 37.9629 12.198C38.3379 12.4167 38.6465 12.657 38.8887 12.9187C39.1348 13.1804 39.4648 13.6453 39.8789 14.3132L40.9277 15.989H38.8535L37.5996 14.1199C37.1543 13.4519 36.8496 13.032 36.6855 12.8601C36.5215 12.6843 36.3477 12.5652 36.1641 12.5027C35.9805 12.4363 35.6895 12.4031 35.291 12.4031H34.9395V15.989H33.2051ZM34.9395 11.032H36.2227C37.0547 11.032 37.5742 10.9968 37.7812 10.9265C37.9883 10.8562 38.1504 10.7351 38.2676 10.5632C38.3848 10.3914 38.4434 10.1765 38.4434 9.9187C38.4434 9.62964 38.3652 9.39722 38.209 9.22144C38.0566 9.04175 37.8398 8.92847 37.5586 8.88159C37.418 8.86206 36.9961 8.85229 36.293 8.85229H34.9395V11.032ZM41.8184 15.989V7.39917H43.5527V15.989H41.8184ZM47.1445 15.989V8.85229H44.5957V7.39917H51.4219V8.85229H48.8789V15.989H47.1445ZM52.4941 15.989V7.39917H54.2285V15.989H52.4941ZM55.9043 15.989V7.39917H57.5918L61.1074 13.1355V7.39917H62.7188V15.989H60.9785L57.5156 10.3875V15.989H55.9043Z" fill="white"/>
<defs>
<linearGradient id="paint0_linear_42_2730" x1="36" y1="1.98901" x2="36" y2="21.989" gradientUnits="userSpaceOnUse">
<stop stop-color="#5EC9BE"/>
<stop offset="1" stop-color="#AF4100"/>
</linearGradient>
</defs>
</svg>
