<svg width="17" height="176" viewBox="0 0 17 176" fill="none" xmlns="http://www.w3.org/2000/svg">
<path d="M16.5214 23.883C16.5214 21.47 15.507 19.3006 13.8924 17.7986C13.0592 17.0235 13.0293 15.6929 13.8468 14.9004C15.0264 13.7569 16.5214 11.7559 16.5214 8.77383C16.5214 4.12891 12.7744 0.761475 8.52105 0.761475C4.26766 0.761475 0.521484 4.28992 0.521484 8.77383C0.521484 11.1882 1.5369 13.3587 3.15306 14.8608C3.98764 15.6364 3.98764 17.0204 3.15306 17.7961C1.5369 19.2983 0.521484 21.4686 0.521484 23.883C0.521484 26.2974 1.5369 28.4678 3.15316 29.9699C3.98774 30.7456 3.98774 32.1297 3.15316 32.9052C1.5369 34.4074 0.521484 36.5779 0.521484 38.9922C0.521484 41.4066 1.5369 43.5771 3.15316 45.0792C3.98774 45.8548 3.98774 47.2388 3.15316 48.0145C1.5369 49.5167 0.521484 51.6871 0.521484 54.1015C0.521484 56.5158 1.5369 58.6863 3.15306 60.1884C3.98764 60.9641 3.98764 62.3481 3.15306 63.1237C1.5369 64.6259 0.521484 66.7964 0.521484 69.2108C0.521484 72.1865 2.06506 74.7896 4.37405 76.2292C4.9557 76.5919 5.32165 77.2272 5.32165 77.9258V121.477C5.32165 122.544 5.13624 123.616 4.67735 124.573C4.00528 125.976 3.60241 127.753 3.60241 129.689C3.60241 131.625 4.00528 133.402 4.67735 134.805C5.13614 135.762 5.32165 136.833 5.32165 137.901C5.32165 138.968 5.13624 140.039 4.67735 140.996C4.00528 142.399 3.60241 144.176 3.60241 146.112C3.60241 148.048 4.00528 149.825 4.67735 151.228C5.13614 152.185 5.32165 153.257 5.32165 154.324C5.32165 155.391 5.13624 156.462 4.67735 157.42C4.00528 158.822 3.60241 160.599 3.60241 162.535C3.60241 164.471 4.00528 166.248 4.67735 167.651C5.13614 168.609 5.32165 169.68 5.32165 170.747V172.463C5.32165 172.463 5.24439 175.747 8.52095 175.747C11.7975 175.747 11.7217 172.463 11.7217 172.463V170.746C11.7217 169.679 11.9071 168.608 12.3658 167.651C13.0378 166.248 13.4406 164.471 13.4406 162.535C13.4406 160.599 13.0378 158.823 12.3658 157.42C11.9071 156.463 11.7217 155.392 11.7217 154.325V154.323C11.7217 153.256 11.9071 152.185 12.3658 151.228C13.0378 149.825 13.4406 148.048 13.4406 146.112C13.4406 144.176 13.0378 142.4 12.3658 140.997C11.9071 140.039 11.7217 138.968 11.7217 137.901V137.9C11.7217 136.833 11.9071 135.762 12.3658 134.804C13.0378 133.402 13.4406 131.625 13.4406 129.689C13.4406 127.753 13.0378 125.976 12.3658 124.574C11.9071 123.616 11.7217 122.545 11.7217 121.478V77.9258C11.7217 77.2273 12.0876 76.5921 12.6691 76.2293C14.9779 74.7896 16.5215 72.1865 16.5215 69.211C16.5215 66.7966 15.5061 64.6261 13.8898 63.124C13.0552 62.3484 13.0553 60.9644 13.8898 60.1887C15.506 58.6866 16.5214 56.5162 16.5214 54.1018C16.5214 51.6874 15.506 49.517 13.8898 48.0149C13.0552 47.2392 13.0552 45.8552 13.8898 45.0796C15.506 43.5774 16.5215 41.4069 16.5215 38.9926C16.5215 36.5783 15.5061 34.4078 13.8899 32.9057C13.0553 32.1301 13.0553 30.7461 13.8899 29.9704C15.506 28.4678 16.5214 26.2974 16.5214 23.883Z" fill="url(#paint0_linear_86_2643)"/>
<path d="M16.5214 23.883C16.5214 21.47 15.507 19.3006 13.8924 17.7986C13.0592 17.0235 13.0293 15.6929 13.8468 14.9004C15.0264 13.7569 16.5214 11.7559 16.5214 8.77383C16.5214 4.12891 12.7744 0.761475 8.52105 0.761475C4.26766 0.761475 0.521484 4.28992 0.521484 8.77383C0.521484 11.1882 1.5369 13.3587 3.15306 14.8608C3.98764 15.6364 3.98764 17.0204 3.15306 17.7961C1.5369 19.2983 0.521484 21.4686 0.521484 23.883C0.521484 26.2974 1.5369 28.4678 3.15316 29.9699C3.98774 30.7456 3.98774 32.1297 3.15316 32.9052C1.5369 34.4074 0.521484 36.5779 0.521484 38.9922C0.521484 41.4066 1.5369 43.5771 3.15316 45.0792C3.98774 45.8548 3.98774 47.2388 3.15316 48.0145C1.5369 49.5167 0.521484 51.6871 0.521484 54.1015C0.521484 56.5158 1.5369 58.6863 3.15306 60.1884C3.98764 60.9641 3.98764 62.3481 3.15306 63.1237C1.5369 64.6259 0.521484 66.7964 0.521484 69.2108C0.521484 72.1865 2.06506 74.7896 4.37405 76.2292C4.9557 76.5919 5.32165 77.2272 5.32165 77.9258V121.477C5.32165 122.544 5.13624 123.616 4.67735 124.573C4.00528 125.976 3.60241 127.753 3.60241 129.689C3.60241 131.625 4.00528 133.402 4.67735 134.805C5.13614 135.762 5.32165 136.833 5.32165 137.901C5.32165 138.968 5.13624 140.039 4.67735 140.996C4.00528 142.399 3.60241 144.176 3.60241 146.112C3.60241 148.048 4.00528 149.825 4.67735 151.228C5.13614 152.185 5.32165 153.257 5.32165 154.324C5.32165 155.391 5.13624 156.462 4.67735 157.42C4.00528 158.822 3.60241 160.599 3.60241 162.535C3.60241 164.471 4.00528 166.248 4.67735 167.651C5.13614 168.609 5.32165 169.68 5.32165 170.747V172.463C5.32165 172.463 5.24439 175.747 8.52095 175.747C11.7975 175.747 11.7217 172.463 11.7217 172.463V170.746C11.7217 169.679 11.9071 168.608 12.3658 167.651C13.0378 166.248 13.4406 164.471 13.4406 162.535C13.4406 160.599 13.0378 158.823 12.3658 157.42C11.9071 156.463 11.7217 155.392 11.7217 154.325V154.323C11.7217 153.256 11.9071 152.185 12.3658 151.228C13.0378 149.825 13.4406 148.048 13.4406 146.112C13.4406 144.176 13.0378 142.4 12.3658 140.997C11.9071 140.039 11.7217 138.968 11.7217 137.901V137.9C11.7217 136.833 11.9071 135.762 12.3658 134.804C13.0378 133.402 13.4406 131.625 13.4406 129.689C13.4406 127.753 13.0378 125.976 12.3658 124.574C11.9071 123.616 11.7217 122.545 11.7217 121.478V77.9258C11.7217 77.2273 12.0876 76.5921 12.6691 76.2293C14.9779 74.7896 16.5215 72.1865 16.5215 69.211C16.5215 66.7966 15.5061 64.6261 13.8898 63.124C13.0552 62.3484 13.0553 60.9644 13.8898 60.1887C15.506 58.6866 16.5214 56.5162 16.5214 54.1018C16.5214 51.6874 15.506 49.517 13.8898 48.0149C13.0552 47.2392 13.0552 45.8552 13.8898 45.0796C15.506 43.5774 16.5215 41.4069 16.5215 38.9926C16.5215 36.5783 15.5061 34.4078 13.8899 32.9057C13.0553 32.1301 13.0553 30.7461 13.8899 29.9704C15.506 28.4678 16.5214 26.2974 16.5214 23.883Z" fill="url(#paint1_linear_86_2643)"/>
<path d="M8.52133 137.9C11.238 137.9 13.4404 134.224 13.4404 129.689C13.4404 125.154 11.238 121.477 8.52133 121.477C5.80462 121.477 3.60229 125.154 3.60229 129.689C3.60229 134.224 5.80462 137.9 8.52133 137.9Z" fill="url(#paint2_radial_86_2643)"/>
<path d="M8.52133 154.324C11.238 154.324 13.4404 150.647 13.4404 146.112C13.4404 141.577 11.238 137.9 8.52133 137.9C5.80462 137.9 3.60229 141.577 3.60229 146.112C3.60229 150.647 5.80462 154.324 8.52133 154.324Z" fill="url(#paint3_radial_86_2643)"/>
<path d="M8.52133 170.747C11.238 170.747 13.4404 167.07 13.4404 162.535C13.4404 158 11.238 154.323 8.52133 154.323C5.80462 154.323 3.60229 158 3.60229 162.535C3.60229 167.07 5.80462 170.747 8.52133 170.747Z" fill="url(#paint4_radial_86_2643)"/>
<path d="M8.52144 99.7405C12.9397 99.7405 16.5214 98.636 16.5214 97.2735C16.5214 95.9109 12.9397 94.8064 8.52144 94.8064C4.10319 94.8064 0.521484 95.9109 0.521484 97.2735C0.521484 98.636 4.10319 99.7405 8.52144 99.7405Z" fill="url(#paint5_radial_86_2643)"/>
<path d="M8.52144 95.7403C12.9397 95.7403 16.5214 94.6358 16.5214 93.2732C16.5214 91.9107 12.9397 90.8062 8.52144 90.8062C4.10319 90.8062 0.521484 91.9107 0.521484 93.2732C0.521484 94.6358 4.10319 95.7403 8.52144 95.7403Z" fill="url(#paint6_radial_86_2643)"/>
<path d="M8.52144 91.7401C12.9397 91.7401 16.5214 90.6355 16.5214 89.273C16.5214 87.9105 12.9397 86.8059 8.52144 86.8059C4.10319 86.8059 0.521484 87.9105 0.521484 89.273C0.521484 90.6355 4.10319 91.7401 8.52144 91.7401Z" fill="url(#paint7_radial_86_2643)"/>
<path d="M8.52144 77.4832C12.9397 77.4832 16.5214 73.8068 16.5214 69.2716C16.5214 64.7365 12.9397 61.0601 8.52144 61.0601C4.10319 61.0601 0.521484 64.7365 0.521484 69.2716C0.521484 73.8068 4.10319 77.4832 8.52144 77.4832Z" fill="url(#paint8_radial_86_2643)"/>
<path d="M8.52144 62.263C12.9397 62.263 16.5214 58.5865 16.5214 54.0514C16.5214 49.5163 12.9397 45.8398 8.52144 45.8398C4.10319 45.8398 0.521484 49.5163 0.521484 54.0514C0.521484 58.5865 4.10319 62.263 8.52144 62.263Z" fill="url(#paint9_radial_86_2643)"/>
<path d="M8.52144 47.2063C12.9397 47.2063 16.5214 43.5299 16.5214 38.9948C16.5214 34.4597 12.9397 30.7832 8.52144 30.7832C4.10319 30.7832 0.521484 34.4597 0.521484 38.9948C0.521484 43.5299 4.10319 47.2063 8.52144 47.2063Z" fill="url(#paint10_radial_86_2643)"/>
<path d="M8.52144 32.0672C12.9397 32.0672 16.5214 28.3907 16.5214 23.8556C16.5214 19.3205 12.9397 15.644 8.52144 15.644C4.10319 15.644 0.521484 19.3205 0.521484 23.8556C0.521484 28.3907 4.10319 32.0672 8.52144 32.0672Z" fill="url(#paint11_radial_86_2643)"/>
<path d="M16.5214 8.77387C16.5214 4.23876 12.9397 0.747314 8.52144 0.747314C4.10319 0.747314 0.521484 4.23876 0.521484 8.77387C0.521484 13.309 4.10319 16.9854 8.52144 16.9854C12.9397 16.9854 16.5214 13.309 16.5214 8.77387Z" fill="url(#paint12_radial_86_2643)"/>
<defs>
<linearGradient id="paint0_linear_86_2643" x1="0.521509" y1="88.2543" x2="16.5214" y2="88.2543" gradientUnits="userSpaceOnUse">
<stop offset="0.2614" stop-color="#074739"/>
<stop offset="0.4165" stop-color="#09F5C1"/>
<stop offset="0.7435" stop-color="#074739"/>
</linearGradient>
<linearGradient id="paint1_linear_86_2643" x1="8.52143" y1="175.747" x2="8.52143" y2="0.761475" gradientUnits="userSpaceOnUse">
<stop offset="0.2571" stop-color="#074739"/>
<stop offset="0.3638" stop-color="#09F5C1" stop-opacity="0"/>
<stop offset="0.4345" stop-color="#074739"/>
<stop offset="0.5039" stop-color="#09F5C1" stop-opacity="0"/>
<stop offset="0.5614" stop-color="#074739"/>
<stop offset="1" stop-color="#09F5C1" stop-opacity="0"/>
</linearGradient>
<radialGradient id="paint2_radial_86_2643" cx="0" cy="0" r="1" gradientUnits="userSpaceOnUse" gradientTransform="translate(6.65191 127.882) scale(4.91917 8.21157)">
<stop stop-color="#09F5C1"/>
<stop offset="1" stop-color="#074739"/>
</radialGradient>
<radialGradient id="paint3_radial_86_2643" cx="0" cy="0" r="1" gradientUnits="userSpaceOnUse" gradientTransform="translate(6.65191 144.305) scale(4.91917 8.21157)">
<stop stop-color="#09F5C1"/>
<stop offset="1" stop-color="#074739"/>
</radialGradient>
<radialGradient id="paint4_radial_86_2643" cx="0" cy="0" r="1" gradientUnits="userSpaceOnUse" gradientTransform="translate(6.65191 160.729) scale(4.91917 8.21157)">
<stop stop-color="#09F5C1"/>
<stop offset="1" stop-color="#074739"/>
</radialGradient>
<radialGradient id="paint5_radial_86_2643" cx="0" cy="0" r="1" gradientUnits="userSpaceOnUse" gradientTransform="translate(5.48144 96.7115) scale(7.99995 2.46676)">
<stop stop-color="#09F5C1"/>
<stop offset="1" stop-color="#074739"/>
</radialGradient>
<radialGradient id="paint6_radial_86_2643" cx="0" cy="0" r="1" gradientUnits="userSpaceOnUse" gradientTransform="translate(5.48144 92.7117) scale(7.99995 2.46676)">
<stop stop-color="#09F5C1"/>
<stop offset="1" stop-color="#074739"/>
</radialGradient>
<radialGradient id="paint7_radial_86_2643" cx="0" cy="0" r="1" gradientUnits="userSpaceOnUse" gradientTransform="translate(5.48144 88.7119) scale(7.99995 2.46676)">
<stop stop-color="#09F5C1"/>
<stop offset="1" stop-color="#074739"/>
</radialGradient>
<radialGradient id="paint8_radial_86_2643" cx="0" cy="0" r="1" gradientUnits="userSpaceOnUse" gradientTransform="translate(5.48144 67.4651) scale(7.99995 8.21157)">
<stop stop-color="#09F5C1"/>
<stop offset="1" stop-color="#074739"/>
</radialGradient>
<radialGradient id="paint9_radial_86_2643" cx="0" cy="0" r="1" gradientUnits="userSpaceOnUse" gradientTransform="translate(5.48144 52.0806) scale(7.99995 8.21157)">
<stop stop-color="#09F5C1"/>
<stop offset="1" stop-color="#074739"/>
</radialGradient>
<radialGradient id="paint10_radial_86_2643" cx="0" cy="0" r="1" gradientUnits="userSpaceOnUse" gradientTransform="translate(5.80149 36.6956) scale(7.99995 8.21157)">
<stop stop-color="#09F5C1"/>
<stop offset="1" stop-color="#074739"/>
</radialGradient>
<radialGradient id="paint11_radial_86_2643" cx="0" cy="0" r="1" gradientUnits="userSpaceOnUse" gradientTransform="translate(5.96147 21.3921) scale(7.99995 8.21157)">
<stop stop-color="#09F5C1"/>
<stop offset="1" stop-color="#074739"/>
</radialGradient>
<radialGradient id="paint12_radial_86_2643" cx="0" cy="0" r="1" gradientUnits="userSpaceOnUse" gradientTransform="translate(5.96147 6.40291) scale(7.95504 8.16547)">
<stop stop-color="#09F5C1"/>
<stop offset="1" stop-color="#074739"/>
</radialGradient>
</defs>
</svg>
