<svg width="57" height="36" viewBox="0 0 57 36" fill="none" xmlns="http://www.w3.org/2000/svg">
<rect x="2" y="1.98901" width="54" height="32" rx="10" fill="url(#paint0_linear_64_1925)"/>
<rect x="2" y="1.98901" width="54" height="32" rx="10" stroke="#8F8100" stroke-width="3" stroke-linejoin="round"/>
<path d="M15.7553 8.76636H17.2904V9.68042C17.4897 9.36792 17.7592 9.11401 18.099 8.9187C18.4389 8.72339 18.8158 8.62573 19.2299 8.62573C19.9525 8.62573 20.5658 8.90894 21.0697 9.47534C21.5736 10.0417 21.8256 10.8308 21.8256 11.8425C21.8256 12.8816 21.5717 13.6902 21.0639 14.2683C20.5561 14.8425 19.9408 15.1296 19.2182 15.1296C18.8744 15.1296 18.5619 15.0613 18.2807 14.9246C18.0033 14.7878 17.7104 14.5535 17.4018 14.2214V17.3562H15.7553V8.76636ZM17.3842 11.7722C17.3842 12.4714 17.5229 12.989 17.8002 13.325C18.0775 13.657 18.4154 13.823 18.8139 13.823C19.1967 13.823 19.515 13.6707 19.769 13.366C20.0229 13.0574 20.1498 12.5535 20.1498 11.8542C20.1498 11.2019 20.019 10.7175 19.7572 10.4011C19.4955 10.0847 19.1713 9.92651 18.7846 9.92651C18.3822 9.92651 18.0483 10.0828 17.7826 10.3953C17.517 10.7039 17.3842 11.1628 17.3842 11.7722ZM26.9994 14.989H25.3529V8.78394C24.7514 9.34644 24.0424 9.76245 23.226 10.032V8.53784C23.6557 8.39722 24.1225 8.13159 24.6264 7.74097C25.1303 7.34644 25.476 6.88745 25.6635 6.36401H26.9994V14.989ZM35.0443 8.50269L33.4506 8.67847C33.4115 8.35034 33.31 8.10815 33.1459 7.9519C32.9818 7.79565 32.769 7.71753 32.5072 7.71753C32.1596 7.71753 31.8647 7.87378 31.6225 8.18628C31.3842 8.49878 31.2338 9.14917 31.1713 10.1375C31.5815 9.65308 32.0912 9.41089 32.7006 9.41089C33.3881 9.41089 33.976 9.67261 34.4643 10.196C34.9565 10.7195 35.2025 11.3953 35.2025 12.2234C35.2025 13.1023 34.9447 13.8074 34.4291 14.3386C33.9135 14.8699 33.2514 15.1355 32.4428 15.1355C31.5756 15.1355 30.8627 14.7996 30.3041 14.1277C29.7455 13.4519 29.4662 12.3464 29.4662 10.8113C29.4662 9.23706 29.7572 8.10229 30.3393 7.40698C30.9213 6.71167 31.6772 6.36401 32.6068 6.36401C33.2592 6.36401 33.7983 6.54761 34.224 6.91479C34.6537 7.27808 34.9272 7.80737 35.0443 8.50269ZM31.3119 12.0945C31.3119 12.6296 31.435 13.0437 31.6811 13.3367C31.9272 13.6257 32.2084 13.7703 32.5248 13.7703C32.8295 13.7703 33.0834 13.6511 33.2865 13.4128C33.4897 13.1746 33.5912 12.7839 33.5912 12.241C33.5912 11.6824 33.4818 11.2742 33.2631 11.0164C33.0443 10.7546 32.7709 10.6238 32.4428 10.6238C32.1264 10.6238 31.8588 10.7488 31.64 10.9988C31.4213 11.2449 31.3119 11.6101 31.3119 12.0945ZM36.1283 10.989V5.83511H37.169V10.989H36.1283ZM38.3904 10.989V5.83511H39.4029L41.5123 9.2769V5.83511H42.4791V10.989H41.435L39.3572 7.62808V10.989H38.3904ZM22.1149 24.989V19.8351H23.1555V22.1238L25.2578 19.8351H26.657L24.7164 21.8425L26.7625 24.989H25.416L23.9992 22.5703L23.1555 23.4316V24.989H22.1149ZM29.2391 24.989V23.9519H27.1297V23.0871L29.3656 19.814H30.1953V23.0835H30.8352V23.9519H30.1953V24.989H29.2391ZM29.2391 23.0835V21.3222L28.0543 23.0835H29.2391ZM36.3914 24.989H35.2594L34.8094 23.8183H32.7492L32.3238 24.989H31.2199L33.2273 19.8351H34.3277L36.3914 24.989ZM34.4754 22.95L33.7652 21.0375L33.0691 22.95H34.4754Z" fill="white"/>
<defs>
<linearGradient id="paint0_linear_64_1925" x1="29" y1="1.98901" x2="29" y2="33.989" gradientUnits="userSpaceOnUse">
<stop stop-color="#8F8100"/>
<stop offset="1" stop-color="#0788DD"/>
</linearGradient>
</defs>
</svg>
