<svg width="105" height="36" viewBox="0 0 105 36" fill="none" xmlns="http://www.w3.org/2000/svg">
<rect x="2" y="1.98901" width="102" height="32" rx="10" fill="url(#paint0_linear_83_1976)"/>
<rect x="2" y="1.98901" width="102" height="32" rx="10" stroke="#0052AF" stroke-width="3" stroke-linejoin="round"/>
<path d="M9.52344 12.1941L11.2109 12.03C11.3125 12.5964 11.5176 13.0125 11.8262 13.2781C12.1387 13.5437 12.5586 13.6765 13.0859 13.6765C13.6445 13.6765 14.0645 13.5593 14.3457 13.325C14.6309 13.0867 14.7734 12.8093 14.7734 12.4929C14.7734 12.2898 14.7129 12.1179 14.5918 11.9773C14.4746 11.8328 14.2676 11.7078 13.9707 11.6023C13.7676 11.532 13.3047 11.407 12.582 11.2273C11.6523 10.9968 11 10.7136 10.625 10.3777C10.0977 9.90503 9.83398 9.32886 9.83398 8.64917C9.83398 8.21167 9.95703 7.80347 10.2031 7.42456C10.4531 7.04175 10.8105 6.75073 11.2754 6.55151C11.7441 6.35229 12.3086 6.25269 12.9688 6.25269C14.0469 6.25269 14.8574 6.48901 15.4004 6.96167C15.9473 7.43433 16.2344 8.06519 16.2617 8.85425L14.5273 8.93042C14.4531 8.48901 14.293 8.17261 14.0469 7.9812C13.8047 7.78589 13.4395 7.68823 12.9512 7.68823C12.4473 7.68823 12.0527 7.79175 11.7676 7.99878C11.584 8.13159 11.4922 8.30933 11.4922 8.53198C11.4922 8.73511 11.5781 8.90894 11.75 9.05347C11.9688 9.23706 12.5 9.42847 13.3438 9.62769C14.1875 9.8269 14.8105 10.0339 15.2129 10.2488C15.6191 10.4597 15.9355 10.7507 16.1621 11.1218C16.3926 11.489 16.5078 11.9441 16.5078 12.4871C16.5078 12.9792 16.3711 13.4402 16.0977 13.8699C15.8242 14.2996 15.4375 14.6199 14.9375 14.8308C14.4375 15.0378 13.8145 15.1414 13.0684 15.1414C11.9824 15.1414 11.1484 14.8914 10.5664 14.3914C9.98438 13.8875 9.63672 13.155 9.52344 12.1941ZM17.9551 6.39917H19.6895V11.0515C19.6895 11.7898 19.7109 12.2683 19.7539 12.4871C19.8281 12.8386 20.0039 13.1218 20.2812 13.3367C20.5625 13.5476 20.9453 13.6531 21.4297 13.6531C21.9219 13.6531 22.293 13.5535 22.543 13.3542C22.793 13.1511 22.9434 12.9031 22.9941 12.6101C23.0449 12.3171 23.0703 11.8308 23.0703 11.1511V6.39917H24.8047V10.9109C24.8047 11.9421 24.7578 12.6707 24.6641 13.0964C24.5703 13.5222 24.3965 13.8816 24.1426 14.1746C23.8926 14.4675 23.5566 14.7019 23.1348 14.8777C22.7129 15.0496 22.1621 15.1355 21.4824 15.1355C20.6621 15.1355 20.0391 15.0417 19.6133 14.8542C19.1914 14.6628 18.8574 14.4167 18.6113 14.116C18.3652 13.8113 18.2031 13.4929 18.125 13.1609C18.0117 12.6687 17.9551 11.9421 17.9551 10.9812V6.39917ZM26.6152 14.989V6.39917H29.2109L30.7695 12.2585L32.3105 6.39917H34.9121V14.989H33.3008V8.22729L31.5957 14.989H29.9258L28.2266 8.22729V14.989H26.6152ZM36.2832 10.7468C36.2832 9.87183 36.4141 9.13745 36.6758 8.5437C36.8711 8.1062 37.1367 7.71362 37.4727 7.36597C37.8125 7.01831 38.1836 6.7605 38.5859 6.59253C39.1211 6.36597 39.7383 6.25269 40.4375 6.25269C41.7031 6.25269 42.7148 6.64526 43.4727 7.43042C44.2344 8.21558 44.6152 9.30737 44.6152 10.7058C44.6152 12.0925 44.2383 13.1785 43.4844 13.9636C42.7305 14.7449 41.7227 15.1355 40.4609 15.1355C39.1836 15.1355 38.168 14.7468 37.4141 13.9695C36.6602 13.1882 36.2832 12.114 36.2832 10.7468ZM38.0703 10.6882C38.0703 11.6609 38.2949 12.3992 38.7441 12.9031C39.1934 13.4031 39.7637 13.6531 40.4551 13.6531C41.1465 13.6531 41.7129 13.405 42.1543 12.9089C42.5996 12.4089 42.8223 11.6609 42.8223 10.6648C42.8223 9.68042 42.6055 8.94604 42.1719 8.46167C41.7422 7.97729 41.1699 7.73511 40.4551 7.73511C39.7402 7.73511 39.1641 7.9812 38.7266 8.47339C38.2891 8.96167 38.0703 9.69995 38.0703 10.6882ZM48.2305 14.989V11.3738L45.084 6.39917H47.1172L49.1387 9.79761L51.1191 6.39917H53.1172L49.959 11.3855V14.989H48.2305ZM54.0254 14.989V6.46948H55.7598V13.5417H60.0723V14.989H54.0254ZM69.0605 14.989H67.1738L66.4238 13.0378H62.9902L62.2812 14.989H60.4414L63.7871 6.39917H65.6211L69.0605 14.989ZM65.8672 11.5906L64.6836 8.40308L63.5234 11.5906H65.8672ZM71.0293 14.989V7.85229H68.4805V6.39917H75.3066V7.85229H72.7637V14.989H71.0293ZM76.3789 14.989V6.39917H78.1133V14.989H76.3789ZM79.4199 10.7468C79.4199 9.87183 79.5508 9.13745 79.8125 8.5437C80.0078 8.1062 80.2734 7.71362 80.6094 7.36597C80.9492 7.01831 81.3203 6.7605 81.7227 6.59253C82.2578 6.36597 82.875 6.25269 83.5742 6.25269C84.8398 6.25269 85.8516 6.64526 86.6094 7.43042C87.3711 8.21558 87.752 9.30737 87.752 10.7058C87.752 12.0925 87.375 13.1785 86.6211 13.9636C85.8672 14.7449 84.8594 15.1355 83.5977 15.1355C82.3203 15.1355 81.3047 14.7468 80.5508 13.9695C79.7969 13.1882 79.4199 12.114 79.4199 10.7468ZM81.207 10.6882C81.207 11.6609 81.4316 12.3992 81.8809 12.9031C82.3301 13.4031 82.9004 13.6531 83.5918 13.6531C84.2832 13.6531 84.8496 13.405 85.291 12.9089C85.7363 12.4089 85.959 11.6609 85.959 10.6648C85.959 9.68042 85.7422 8.94604 85.3086 8.46167C84.8789 7.97729 84.3066 7.73511 83.5918 7.73511C82.877 7.73511 82.3008 7.9812 81.8633 8.47339C81.4258 8.96167 81.207 9.69995 81.207 10.6882ZM89.1289 14.989V6.39917H90.8164L94.332 12.1355V6.39917H95.9434V14.989H94.2031L90.7402 9.38745V14.989H89.1289ZM27.1895 28.989V20.3992H29.9727C31.0273 20.3992 31.7148 20.4421 32.0352 20.5281C32.5273 20.657 32.9395 20.9382 33.2715 21.3718C33.6035 21.8015 33.7695 22.3582 33.7695 23.0417C33.7695 23.5691 33.6738 24.0125 33.4824 24.3718C33.291 24.7312 33.0469 25.0144 32.75 25.2214C32.457 25.4246 32.1582 25.5593 31.8535 25.6257C31.4395 25.7078 30.8398 25.7488 30.0547 25.7488H28.9238V28.989H27.1895ZM28.9238 21.8523V24.2898H29.873C30.5566 24.2898 31.0137 24.2449 31.2441 24.155C31.4746 24.0652 31.6543 23.9246 31.7832 23.7332C31.916 23.5417 31.9824 23.3191 31.9824 23.0652C31.9824 22.7527 31.8906 22.4949 31.707 22.2917C31.5234 22.0886 31.291 21.9617 31.0098 21.9109C30.8027 21.8718 30.3867 21.8523 29.7617 21.8523H28.9238ZM35.1992 28.989V20.3992H38.8496C39.7676 20.3992 40.4336 20.4773 40.8477 20.6335C41.2656 20.7859 41.5996 21.0593 41.8496 21.4539C42.0996 21.8484 42.2246 22.2996 42.2246 22.8074C42.2246 23.4519 42.0352 23.9851 41.6562 24.407C41.2773 24.825 40.7109 25.0886 39.957 25.198C40.332 25.4167 40.6406 25.657 40.8828 25.9187C41.1289 26.1804 41.459 26.6453 41.873 27.3132L42.9219 28.989H40.8477L39.5938 27.1199C39.1484 26.4519 38.8438 26.032 38.6797 25.8601C38.5156 25.6843 38.3418 25.5652 38.1582 25.5027C37.9746 25.4363 37.6836 25.4031 37.2852 25.4031H36.9336V28.989H35.1992ZM36.9336 24.032H38.2168C39.0488 24.032 39.5684 23.9968 39.7754 23.9265C39.9824 23.8562 40.1445 23.7351 40.2617 23.5632C40.3789 23.3914 40.4375 23.1765 40.4375 22.9187C40.4375 22.6296 40.3594 22.3972 40.2031 22.2214C40.0508 22.0417 39.834 21.9285 39.5527 21.8816C39.4121 21.8621 38.9902 21.8523 38.2871 21.8523H36.9336V24.032ZM43.5137 24.7468C43.5137 23.8718 43.6445 23.1375 43.9062 22.5437C44.1016 22.1062 44.3672 21.7136 44.7031 21.366C45.043 21.0183 45.4141 20.7605 45.8164 20.5925C46.3516 20.366 46.9688 20.2527 47.668 20.2527C48.9336 20.2527 49.9453 20.6453 50.7031 21.4304C51.4648 22.2156 51.8457 23.3074 51.8457 24.7058C51.8457 26.0925 51.4688 27.1785 50.7148 27.9636C49.9609 28.7449 48.9531 29.1355 47.6914 29.1355C46.4141 29.1355 45.3984 28.7468 44.6445 27.9695C43.8906 27.1882 43.5137 26.114 43.5137 24.7468ZM45.3008 24.6882C45.3008 25.6609 45.5254 26.3992 45.9746 26.9031C46.4238 27.4031 46.9941 27.6531 47.6855 27.6531C48.377 27.6531 48.9434 27.405 49.3848 26.9089C49.8301 26.4089 50.0527 25.6609 50.0527 24.6648C50.0527 23.6804 49.8359 22.946 49.4023 22.4617C48.9727 21.9773 48.4004 21.7351 47.6855 21.7351C46.9707 21.7351 46.3945 21.9812 45.957 22.4734C45.5195 22.9617 45.3008 23.7 45.3008 24.6882ZM55.1387 28.989V21.8523H52.5898V20.3992H59.416V21.8523H56.873V28.989H55.1387ZM60.541 28.989V20.3992H66.9102V21.8523H62.2754V23.7566H66.5879V25.2039H62.2754V27.5417H67.0742V28.989H60.541ZM68.4922 28.989V20.3992H70.2266V28.989H68.4922ZM71.9023 28.989V20.3992H73.5898L77.1055 26.1355V20.3992H78.7168V28.989H76.9766L73.5137 23.3875V28.989H71.9023Z" fill="white"/>
<defs>
<linearGradient id="paint0_linear_83_1976" x1="53" y1="1.98901" x2="53" y2="33.989" gradientUnits="userSpaceOnUse">
<stop stop-color="#FFA0CC"/>
<stop offset="1" stop-color="#06A2B2"/>
</linearGradient>
</defs>
</svg>
