<svg width="58" height="24" viewBox="0 0 58 24" fill="none" xmlns="http://www.w3.org/2000/svg">
<rect x="2" y="1.98901" width="55" height="20" rx="10" fill="url(#paint0_linear_38_1877)"/>
<rect x="2" y="1.98901" width="55" height="20" rx="10" stroke="#FF00AD" stroke-width="3" stroke-linejoin="round"/>
<path d="M15.5195 12.8308L17.2012 13.364C16.9434 14.3015 16.5137 14.9988 15.9121 15.4558C15.3145 15.9089 14.5547 16.1355 13.6328 16.1355C12.4922 16.1355 11.5547 15.7468 10.8203 14.9695C10.0859 14.1882 9.71875 13.1218 9.71875 11.7703C9.71875 10.3406 10.0879 9.2312 10.8262 8.44214C11.5645 7.64917 12.5352 7.25269 13.7383 7.25269C14.7891 7.25269 15.6426 7.56323 16.2988 8.18433C16.6895 8.55151 16.9824 9.07886 17.1777 9.76636L15.4609 10.1765C15.3594 9.7312 15.1465 9.37964 14.8223 9.12183C14.502 8.86401 14.1113 8.73511 13.6504 8.73511C13.0137 8.73511 12.4961 8.96362 12.0977 9.42065C11.7031 9.87769 11.5059 10.6179 11.5059 11.6414C11.5059 12.7273 11.7012 13.5007 12.0918 13.9617C12.4824 14.4226 12.9902 14.6531 13.6152 14.6531C14.0762 14.6531 14.4727 14.5066 14.8047 14.2136C15.1367 13.9207 15.375 13.4597 15.5195 12.8308ZM18.7012 15.989V7.39917H20.4355V10.78H23.834V7.39917H25.5684V15.989H23.834V12.2332H20.4355V15.989H18.7012ZM27.3672 15.989V7.39917H33.7363V8.85229H29.1016V10.7566H33.4141V12.2039H29.1016V14.5417H33.9004V15.989H27.3672ZM35.3945 15.989V7.39917H37.1289V11.2136L40.6328 7.39917H42.9648L39.7305 10.7449L43.1406 15.989H40.8965L38.5352 11.9578L37.1289 13.3933V15.989H35.3945ZM49.2402 14.4597V15.989H43.4688C43.5312 15.4109 43.7188 14.864 44.0312 14.3484C44.3438 13.8289 44.9609 13.1414 45.8828 12.2859C46.625 11.5945 47.0801 11.1257 47.248 10.8796C47.4746 10.5398 47.5879 10.2039 47.5879 9.87183C47.5879 9.50464 47.4883 9.22339 47.2891 9.02808C47.0938 8.82886 46.8223 8.72925 46.4746 8.72925C46.1309 8.72925 45.8574 8.83276 45.6543 9.03979C45.4512 9.24683 45.334 9.59058 45.3027 10.071L43.6621 9.90698C43.7598 9.00073 44.0664 8.35034 44.582 7.95581C45.0977 7.56128 45.7422 7.36401 46.5156 7.36401C47.3633 7.36401 48.0293 7.59253 48.5137 8.04956C48.998 8.50659 49.2402 9.07495 49.2402 9.75464C49.2402 10.1414 49.1699 10.5105 49.0293 10.8621C48.8926 11.2097 48.6738 11.575 48.373 11.9578C48.1738 12.2117 47.8145 12.5769 47.2949 13.0535C46.7754 13.53 46.4453 13.8464 46.3047 14.0027C46.168 14.1589 46.0566 14.3113 45.9707 14.4597H49.2402Z" fill="white"/>
<defs>
<linearGradient id="paint0_linear_38_1877" x1="29.5" y1="1.98901" x2="29.5" y2="21.989" gradientUnits="userSpaceOnUse">
<stop stop-color="#FF00AD"/>
<stop offset="1" stop-color="#3B0000"/>
</linearGradient>
</defs>
</svg>
