<svg width="60" height="24" viewBox="0 0 60 24" fill="none" xmlns="http://www.w3.org/2000/svg">
<rect x="2" y="1.98901" width="57" height="20" rx="10" fill="url(#paint0_linear_40_2577)"/>
<rect x="2" y="1.98901" width="57" height="20" rx="10" stroke="#009900" stroke-width="3" stroke-linejoin="round"/>
<path d="M10.3438 7.39917H13.5137C14.2285 7.39917 14.7734 7.45386 15.1484 7.56323C15.6523 7.71167 16.084 7.97534 16.4434 8.35425C16.8027 8.73315 17.0762 9.198 17.2637 9.74878C17.4512 10.2957 17.5449 10.9714 17.5449 11.7761C17.5449 12.4832 17.457 13.0925 17.2812 13.6042C17.0664 14.2292 16.7598 14.7351 16.3613 15.1218C16.0605 15.4148 15.6543 15.6433 15.1426 15.8074C14.7598 15.9285 14.248 15.989 13.6074 15.989H10.3438V7.39917ZM12.0781 8.85229V14.5417H13.373C13.8574 14.5417 14.207 14.5144 14.4219 14.4597C14.7031 14.3894 14.9355 14.2703 15.1191 14.1023C15.3066 13.9343 15.459 13.6589 15.5762 13.2761C15.6934 12.8894 15.752 12.364 15.752 11.7C15.752 11.0359 15.6934 10.5261 15.5762 10.1707C15.459 9.81519 15.2949 9.53784 15.084 9.33862C14.873 9.1394 14.6055 9.00464 14.2812 8.93433C14.0391 8.87964 13.5645 8.85229 12.8574 8.85229H12.0781ZM18.9688 15.989V7.39917H20.7031V15.989H18.9688ZM22.3613 15.989V7.39917H25.1445C26.1992 7.39917 26.8867 7.44214 27.207 7.52808C27.6992 7.65698 28.1113 7.93823 28.4434 8.37183C28.7754 8.80151 28.9414 9.35815 28.9414 10.0417C28.9414 10.5691 28.8457 11.0125 28.6543 11.3718C28.4629 11.7312 28.2188 12.0144 27.9219 12.2214C27.6289 12.4246 27.3301 12.5593 27.0254 12.6257C26.6113 12.7078 26.0117 12.7488 25.2266 12.7488H24.0957V15.989H22.3613ZM24.0957 8.85229V11.2898H25.0449C25.7285 11.2898 26.1855 11.2449 26.416 11.155C26.6465 11.0652 26.8262 10.9246 26.9551 10.7332C27.0879 10.5417 27.1543 10.3191 27.1543 10.0652C27.1543 9.75269 27.0625 9.49487 26.8789 9.29175C26.6953 9.08862 26.4629 8.96167 26.1816 8.91089C25.9746 8.87183 25.5586 8.85229 24.9336 8.85229H24.0957ZM34.2148 15.989H32.5684V9.78394C31.9668 10.3464 31.2578 10.7625 30.4414 11.032V9.53784C30.8711 9.39722 31.3379 9.13159 31.8418 8.74097C32.3457 8.34644 32.6914 7.88745 32.8789 7.36401H34.2148V15.989ZM36.623 13.7097L38.2168 13.5164C38.2676 13.9226 38.4043 14.2332 38.627 14.448C38.8496 14.6628 39.1191 14.7703 39.4355 14.7703C39.7754 14.7703 40.0605 14.6414 40.291 14.3835C40.5254 14.1257 40.6426 13.7781 40.6426 13.3406C40.6426 12.9265 40.5312 12.5984 40.3086 12.3562C40.0859 12.114 39.8145 11.9929 39.4941 11.9929C39.2832 11.9929 39.0312 12.0339 38.7383 12.116L38.9199 10.7742C39.3652 10.7859 39.7051 10.6902 39.9395 10.4871C40.1738 10.28 40.291 10.0066 40.291 9.66675C40.291 9.37769 40.2051 9.14722 40.0332 8.97534C39.8613 8.80347 39.6328 8.71753 39.3477 8.71753C39.0664 8.71753 38.8262 8.81519 38.627 9.0105C38.4277 9.20581 38.3066 9.49097 38.2637 9.86597L36.7461 9.60815C36.8516 9.08862 37.0098 8.67456 37.2207 8.36597C37.4355 8.05347 37.7324 7.80933 38.1113 7.63354C38.4941 7.45386 38.9219 7.36401 39.3945 7.36401C40.2031 7.36401 40.8516 7.62183 41.3398 8.13745C41.7422 8.55933 41.9434 9.03589 41.9434 9.56714C41.9434 10.321 41.5312 10.9226 40.707 11.3718C41.1992 11.4773 41.5918 11.7136 41.8848 12.0808C42.1816 12.448 42.3301 12.8914 42.3301 13.4109C42.3301 14.1648 42.0547 14.8074 41.5039 15.3386C40.9531 15.8699 40.2676 16.1355 39.4473 16.1355C38.6699 16.1355 38.0254 15.9128 37.5137 15.4675C37.002 15.0183 36.7051 14.4324 36.623 13.7097ZM51.4707 15.989H49.584L48.834 14.0378H45.4004L44.6914 15.989H42.8516L46.1973 7.39917H48.0312L51.4707 15.989ZM48.2773 12.5906L47.0938 9.40308L45.9336 12.5906H48.2773Z" fill="white"/>
<defs>
<linearGradient id="paint0_linear_40_2577" x1="30.5" y1="1.98901" x2="30.5" y2="21.989" gradientUnits="userSpaceOnUse">
<stop stop-color="#009900"/>
<stop offset="1" stop-color="#4200A8"/>
</linearGradient>
</defs>
</svg>
