<svg width="65" height="24" viewBox="0 0 65 24" fill="none" xmlns="http://www.w3.org/2000/svg">
<rect x="1" y="1.98901" width="63" height="20" rx="10" fill="url(#paint0_linear_65_1997)"/>
<rect x="1" y="1.98901" width="63" height="20" rx="10" stroke="#D4A900" stroke-width="3" stroke-linejoin="round"/>
<path d="M9.02734 15.989V7.39917H11.8105C12.8652 7.39917 13.5527 7.44214 13.873 7.52808C14.3652 7.65698 14.7773 7.93823 15.1094 8.37183C15.4414 8.80151 15.6074 9.35815 15.6074 10.0417C15.6074 10.5691 15.5117 11.0125 15.3203 11.3718C15.1289 11.7312 14.8848 12.0144 14.5879 12.2214C14.2949 12.4246 13.9961 12.5593 13.6914 12.6257C13.2773 12.7078 12.6777 12.7488 11.8926 12.7488H10.7617V15.989H9.02734ZM10.7617 8.85229V11.2898H11.7109C12.3945 11.2898 12.8516 11.2449 13.082 11.155C13.3125 11.0652 13.4922 10.9246 13.6211 10.7332C13.7539 10.5417 13.8203 10.3191 13.8203 10.0652C13.8203 9.75269 13.7285 9.49487 13.5449 9.29175C13.3613 9.08862 13.1289 8.96167 12.8477 8.91089C12.6406 8.87183 12.2246 8.85229 11.5996 8.85229H10.7617ZM17.0547 15.989V7.39917H18.7891V11.2136L22.293 7.39917H24.625L21.3906 10.7449L24.8008 15.989H22.5566L20.1953 11.9578L18.7891 13.3933V15.989H17.0547ZM25.6797 15.989V7.39917H28.2754L29.834 13.2585L31.375 7.39917H33.9766V15.989H32.3652V9.22729L30.6602 15.989H28.9902L27.291 9.22729V15.989H25.6797ZM37.9551 15.989V12.3738L34.8086 7.39917H36.8418L38.8633 10.7976L40.8438 7.39917H42.8418L39.6836 12.3855V15.989H37.9551ZM45.6367 15.989V8.85229H43.0879V7.39917H49.9141V8.85229H47.3711V15.989H45.6367ZM54.8887 15.989H53.2422V9.78394C52.6406 10.3464 51.9316 10.7625 51.1152 11.032V9.53784C51.5449 9.39722 52.0117 9.13159 52.5156 8.74097C53.0195 8.34644 53.3652 7.88745 53.5527 7.36401H54.8887V15.989Z" fill="white"/>
<defs>
<linearGradient id="paint0_linear_65_1997" x1="32.5" y1="1.98901" x2="32.5" y2="21.989" gradientUnits="userSpaceOnUse">
<stop stop-color="#78AD43"/>
<stop offset="1" stop-color="#D4A900"/>
</linearGradient>
</defs>
</svg>
