<svg width="43" height="24" viewBox="0 0 43 24" fill="none" xmlns="http://www.w3.org/2000/svg">
<rect x="2" y="1.98901" width="40" height="20" rx="10" fill="url(#paint0_linear_40_2539)"/>
<rect x="2" y="1.98901" width="40" height="20" rx="10" stroke="#A8005E" stroke-width="3" stroke-linejoin="round"/>
<path d="M10.1934 7.39917H13.3633C14.0781 7.39917 14.623 7.45386 14.998 7.56323C15.502 7.71167 15.9336 7.97534 16.293 8.35425C16.6523 8.73315 16.9258 9.198 17.1133 9.74878C17.3008 10.2957 17.3945 10.9714 17.3945 11.7761C17.3945 12.4832 17.3066 13.0925 17.1309 13.6042C16.916 14.2292 16.6094 14.7351 16.2109 15.1218C15.9102 15.4148 15.5039 15.6433 14.9922 15.8074C14.6094 15.9285 14.0977 15.989 13.457 15.989H10.1934V7.39917ZM11.9277 8.85229V14.5417H13.2227C13.707 14.5417 14.0566 14.5144 14.2715 14.4597C14.5527 14.3894 14.7852 14.2703 14.9688 14.1023C15.1562 13.9343 15.3086 13.6589 15.4258 13.2761C15.543 12.8894 15.6016 12.364 15.6016 11.7C15.6016 11.0359 15.543 10.5261 15.4258 10.1707C15.3086 9.81519 15.1445 9.53784 14.9336 9.33862C14.7227 9.1394 14.4551 9.00464 14.1309 8.93433C13.8887 8.87964 13.4141 8.85229 12.707 8.85229H11.9277ZM18.8711 15.989V7.39917H25.2402V8.85229H20.6055V10.7566H24.918V12.2039H20.6055V14.5417H25.4043V15.989H18.8711ZM26.8984 15.989V7.39917H28.6328V11.2136L32.1367 7.39917H34.4688L31.2344 10.7449L34.6445 15.989H32.4004L30.0391 11.9578L28.6328 13.3933V15.989H26.8984Z" fill="white"/>
<defs>
<linearGradient id="paint0_linear_40_2539" x1="22" y1="1.98901" x2="22" y2="21.989" gradientUnits="userSpaceOnUse">
<stop stop-color="#A8005E"/>
<stop offset="1" stop-color="#6BD1AC"/>
</linearGradient>
</defs>
</svg>
