<svg width="74" height="24" viewBox="0 0 74 24" fill="none" xmlns="http://www.w3.org/2000/svg">
<rect x="1" y="1.98901" width="72" height="20" rx="10" fill="url(#paint0_linear_64_1946)"/>
<rect x="1" y="1.98901" width="72" height="20" rx="10" stroke="#BFB915" stroke-width="3" stroke-linejoin="round"/>
<path d="M8.83398 11.7468C8.83398 10.8718 8.96484 10.1375 9.22656 9.5437C9.42188 9.1062 9.6875 8.71362 10.0234 8.36597C10.3633 8.01831 10.7344 7.7605 11.1367 7.59253C11.6719 7.36597 12.2891 7.25269 12.9883 7.25269C14.2539 7.25269 15.2656 7.64526 16.0234 8.43042C16.7852 9.21558 17.166 10.3074 17.166 11.7058C17.166 13.0925 16.7891 14.1785 16.0352 14.9636C15.2812 15.7449 14.2734 16.1355 13.0117 16.1355C11.7344 16.1355 10.7188 15.7468 9.96484 14.9695C9.21094 14.1882 8.83398 13.114 8.83398 11.7468ZM10.6211 11.6882C10.6211 12.6609 10.8457 13.3992 11.2949 13.9031C11.7441 14.4031 12.3145 14.6531 13.0059 14.6531C13.6973 14.6531 14.2637 14.405 14.7051 13.9089C15.1504 13.4089 15.373 12.6609 15.373 11.6648C15.373 10.6804 15.1562 9.94604 14.7227 9.46167C14.293 8.97729 13.7207 8.73511 13.0059 8.73511C12.291 8.73511 11.7148 8.9812 11.2773 9.47339C10.8398 9.96167 10.6211 10.7 10.6211 11.6882ZM18.543 15.989V7.39917H20.2305L23.7461 13.1355V7.39917H25.3574V15.989H23.6172L20.1543 10.3875V15.989H18.543ZM27.1973 15.989V7.39917H33.5664V8.85229H28.9316V10.7566H33.2441V12.2039H28.9316V14.5417H33.7305V15.989H27.1973ZM40.6973 12.8308L42.3789 13.364C42.1211 14.3015 41.6914 14.9988 41.0898 15.4558C40.4922 15.9089 39.7324 16.1355 38.8105 16.1355C37.6699 16.1355 36.7324 15.7468 35.998 14.9695C35.2637 14.1882 34.8965 13.1218 34.8965 11.7703C34.8965 10.3406 35.2656 9.2312 36.0039 8.44214C36.7422 7.64917 37.7129 7.25269 38.916 7.25269C39.9668 7.25269 40.8203 7.56323 41.4766 8.18433C41.8672 8.55151 42.1602 9.07886 42.3555 9.76636L40.6387 10.1765C40.5371 9.7312 40.3242 9.37964 40 9.12183C39.6797 8.86401 39.2891 8.73511 38.8281 8.73511C38.1914 8.73511 37.6738 8.96362 37.2754 9.42065C36.8809 9.87769 36.6836 10.6179 36.6836 11.6414C36.6836 12.7273 36.8789 13.5007 37.2695 13.9617C37.6602 14.4226 38.168 14.6531 38.793 14.6531C39.2539 14.6531 39.6504 14.5066 39.9824 14.2136C40.3145 13.9207 40.5527 13.4597 40.6973 12.8308ZM43.8613 7.39917H45.5957V12.0515C45.5957 12.7898 45.6172 13.2683 45.6602 13.4871C45.7344 13.8386 45.9102 14.1218 46.1875 14.3367C46.4688 14.5476 46.8516 14.6531 47.3359 14.6531C47.8281 14.6531 48.1992 14.5535 48.4492 14.3542C48.6992 14.1511 48.8496 13.9031 48.9004 13.6101C48.9512 13.3171 48.9766 12.8308 48.9766 12.1511V7.39917H50.7109V11.9109C50.7109 12.9421 50.6641 13.6707 50.5703 14.0964C50.4766 14.5222 50.3027 14.8816 50.0488 15.1746C49.7988 15.4675 49.4629 15.7019 49.041 15.8777C48.6191 16.0496 48.0684 16.1355 47.3887 16.1355C46.5684 16.1355 45.9453 16.0417 45.5195 15.8542C45.0977 15.6628 44.7637 15.4167 44.5176 15.116C44.2715 14.8113 44.1094 14.4929 44.0312 14.1609C43.918 13.6687 43.8613 12.9421 43.8613 11.9812V7.39917ZM54.4785 15.989V8.85229H51.9297V7.39917H58.7559V8.85229H56.2129V15.989H54.4785ZM59.459 13.7097L61.0527 13.5164C61.1035 13.9226 61.2402 14.2332 61.4629 14.448C61.6855 14.6628 61.9551 14.7703 62.2715 14.7703C62.6113 14.7703 62.8965 14.6414 63.127 14.3835C63.3613 14.1257 63.4785 13.7781 63.4785 13.3406C63.4785 12.9265 63.3672 12.5984 63.1445 12.3562C62.9219 12.114 62.6504 11.9929 62.3301 11.9929C62.1191 11.9929 61.8672 12.0339 61.5742 12.116L61.7559 10.7742C62.2012 10.7859 62.541 10.6902 62.7754 10.4871C63.0098 10.28 63.127 10.0066 63.127 9.66675C63.127 9.37769 63.041 9.14722 62.8691 8.97534C62.6973 8.80347 62.4688 8.71753 62.1836 8.71753C61.9023 8.71753 61.6621 8.81519 61.4629 9.0105C61.2637 9.20581 61.1426 9.49097 61.0996 9.86597L59.582 9.60815C59.6875 9.08862 59.8457 8.67456 60.0566 8.36597C60.2715 8.05347 60.5684 7.80933 60.9473 7.63354C61.3301 7.45386 61.7578 7.36401 62.2305 7.36401C63.0391 7.36401 63.6875 7.62183 64.1758 8.13745C64.5781 8.55933 64.7793 9.03589 64.7793 9.56714C64.7793 10.321 64.3672 10.9226 63.543 11.3718C64.0352 11.4773 64.4277 11.7136 64.7207 12.0808C65.0176 12.448 65.166 12.8914 65.166 13.4109C65.166 14.1648 64.8906 14.8074 64.3398 15.3386C63.7891 15.8699 63.1035 16.1355 62.2832 16.1355C61.5059 16.1355 60.8613 15.9128 60.3496 15.4675C59.8379 15.0183 59.541 14.4324 59.459 13.7097Z" fill="white"/>
<defs>
<linearGradient id="paint0_linear_64_1946" x1="37" y1="1.98901" x2="37" y2="21.989" gradientUnits="userSpaceOnUse">
<stop stop-color="#BFB915"/>
<stop offset="1" stop-color="#2C3B0C"/>
</linearGradient>
</defs>
</svg>
