<svg width="60" height="24" viewBox="0 0 60 24" fill="none" xmlns="http://www.w3.org/2000/svg">
<rect x="2" y="1.98901" width="57" height="20" rx="10" fill="url(#paint0_linear_50_1844)"/>
<rect x="2" y="1.98901" width="57" height="20" rx="10" stroke="#4A94FF" stroke-width="3" stroke-linejoin="round"/>
<path d="M10.3379 15.989V7.39917H12.9336L14.4922 13.2585L16.0332 7.39917H18.6348V15.989H17.0234V9.22729L15.3184 15.989H13.6484L11.9492 9.22729V15.989H10.3379ZM28.1035 15.989H26.2168L25.4668 14.0378H22.0332L21.3242 15.989H19.4844L22.8301 7.39917H24.6641L28.1035 15.989ZM24.9102 12.5906L23.7266 9.40308L22.5664 12.5906H24.9102ZM29.0293 15.989V7.39917H31.8125C32.8672 7.39917 33.5547 7.44214 33.875 7.52808C34.3672 7.65698 34.7793 7.93823 35.1113 8.37183C35.4434 8.80151 35.6094 9.35815 35.6094 10.0417C35.6094 10.5691 35.5137 11.0125 35.3223 11.3718C35.1309 11.7312 34.8867 12.0144 34.5898 12.2214C34.2969 12.4246 33.998 12.5593 33.6934 12.6257C33.2793 12.7078 32.6797 12.7488 31.8945 12.7488H30.7637V15.989H29.0293ZM30.7637 8.85229V11.2898H31.7129C32.3965 11.2898 32.8535 11.2449 33.084 11.155C33.3145 11.0652 33.4941 10.9246 33.623 10.7332C33.7559 10.5417 33.8223 10.3191 33.8223 10.0652C33.8223 9.75269 33.7305 9.49487 33.5469 9.29175C33.3633 9.08862 33.1309 8.96167 32.8496 8.91089C32.6426 8.87183 32.2266 8.85229 31.6016 8.85229H30.7637ZM37.0566 15.989V7.39917H38.791V11.2136L42.2949 7.39917H44.627L41.3926 10.7449L44.8027 15.989H42.5586L40.1973 11.9578L38.791 13.3933V15.989H37.0566ZM45.3418 9.04565V7.51636H50.9727V8.71167C50.5078 9.1687 50.0352 9.82495 49.5547 10.6804C49.0742 11.5359 48.707 12.446 48.4531 13.4109C48.2031 14.3718 48.0801 15.2312 48.084 15.989H46.4961C46.5234 14.8015 46.7676 13.5906 47.2285 12.3562C47.6934 11.1218 48.3125 10.0183 49.0859 9.04565H45.3418Z" fill="white"/>
<defs>
<linearGradient id="paint0_linear_50_1844" x1="30.5" y1="1.98901" x2="30.5" y2="21.989" gradientUnits="userSpaceOnUse">
<stop stop-color="#4A94FF"/>
<stop offset="1" stop-color="#BA752B"/>
</linearGradient>
</defs>
</svg>
