<svg width="65" height="24" viewBox="0 0 65 24" fill="none" xmlns="http://www.w3.org/2000/svg">
<rect x="1" y="1.98901" width="63" height="20" rx="10" fill="url(#paint0_linear_46_4321)"/>
<rect x="1" y="1.98901" width="63" height="20" rx="10" stroke="#664F03" stroke-width="3" stroke-linejoin="round"/>
<path d="M9.30273 15.989V7.39917H11.0371V15.989H9.30273ZM12.7129 15.989V7.39917H14.4004L17.916 13.1355V7.39917H19.5273V15.989H17.7871L14.3242 10.3875V15.989H12.7129ZM20.9277 13.1941L22.6152 13.03C22.7168 13.5964 22.9219 14.0125 23.2305 14.2781C23.543 14.5437 23.9629 14.6765 24.4902 14.6765C25.0488 14.6765 25.4688 14.5593 25.75 14.325C26.0352 14.0867 26.1777 13.8093 26.1777 13.4929C26.1777 13.2898 26.1172 13.1179 25.9961 12.9773C25.8789 12.8328 25.6719 12.7078 25.375 12.6023C25.1719 12.532 24.709 12.407 23.9863 12.2273C23.0566 11.9968 22.4043 11.7136 22.0293 11.3777C21.502 10.905 21.2383 10.3289 21.2383 9.64917C21.2383 9.21167 21.3613 8.80347 21.6074 8.42456C21.8574 8.04175 22.2148 7.75073 22.6797 7.55151C23.1484 7.35229 23.7129 7.25269 24.373 7.25269C25.4512 7.25269 26.2617 7.48901 26.8047 7.96167C27.3516 8.43433 27.6387 9.06519 27.666 9.85425L25.9316 9.93042C25.8574 9.48901 25.6973 9.17261 25.4512 8.9812C25.209 8.78589 24.8438 8.68823 24.3555 8.68823C23.8516 8.68823 23.457 8.79175 23.1719 8.99878C22.9883 9.13159 22.8965 9.30933 22.8965 9.53198C22.8965 9.73511 22.9824 9.90894 23.1543 10.0535C23.373 10.2371 23.9043 10.4285 24.748 10.6277C25.5918 10.8269 26.2148 11.0339 26.6172 11.2488C27.0234 11.4597 27.3398 11.7507 27.5664 12.1218C27.7969 12.489 27.9121 12.9441 27.9121 13.4871C27.9121 13.9792 27.7754 14.4402 27.502 14.8699C27.2285 15.2996 26.8418 15.6199 26.3418 15.8308C25.8418 16.0378 25.2188 16.1414 24.4727 16.1414C23.3867 16.1414 22.5527 15.8914 21.9707 15.3914C21.3887 14.8875 21.041 14.155 20.9277 13.1941ZM29.3594 7.39917H31.0938V12.0515C31.0938 12.7898 31.1152 13.2683 31.1582 13.4871C31.2324 13.8386 31.4082 14.1218 31.6855 14.3367C31.9668 14.5476 32.3496 14.6531 32.834 14.6531C33.3262 14.6531 33.6973 14.5535 33.9473 14.3542C34.1973 14.1511 34.3477 13.9031 34.3984 13.6101C34.4492 13.3171 34.4746 12.8308 34.4746 12.1511V7.39917H36.209V11.9109C36.209 12.9421 36.1621 13.6707 36.0684 14.0964C35.9746 14.5222 35.8008 14.8816 35.5469 15.1746C35.2969 15.4675 34.9609 15.7019 34.5391 15.8777C34.1172 16.0496 33.5664 16.1355 32.8867 16.1355C32.0664 16.1355 31.4434 16.0417 31.0176 15.8542C30.5957 15.6628 30.2617 15.4167 30.0156 15.116C29.7695 14.8113 29.6074 14.4929 29.5293 14.1609C29.416 13.6687 29.3594 12.9421 29.3594 11.9812V7.39917ZM38.0898 15.989V7.46948H39.8242V14.5417H44.1367V15.989H38.0898ZM45.3262 15.989V7.39917H47.0605V15.989H45.3262ZM48.7363 15.989V7.39917H50.4238L53.9395 13.1355V7.39917H55.5508V15.989H53.8105L50.3477 10.3875V15.989H48.7363Z" fill="white"/>
<defs>
<linearGradient id="paint0_linear_46_4321" x1="32.5" y1="1.98901" x2="32.5" y2="21.989" gradientUnits="userSpaceOnUse">
<stop stop-color="#664F03"/>
<stop offset="1" stop-color="#99DD36"/>
</linearGradient>
</defs>
</svg>
