<svg width="100" height="72" viewBox="0 0 100 72" fill="none" xmlns="http://www.w3.org/2000/svg">
<g opacity="0.7">
<path d="M41.4359 2.01709H57.2592C57.5356 2.01709 57.7592 2.24087 57.7592 2.51709V37.8569C57.7589 42.4947 53.9853 46.269 49.348 46.269C44.7102 46.269 40.9362 42.4947 40.9359 37.8569V2.51709C40.9359 2.24103 41.1599 2.01709 41.4359 2.01709Z" fill="url(#paint0_linear_97_5746)" stroke="#006F9C"/>
<path d="M41.4359 1.01709H57.2601C58.0885 1.01721 58.7601 1.6887 58.7601 2.51709V37.8569C58.7601 43.0462 54.5373 47.269 49.348 47.269C44.1587 47.269 39.9359 43.0463 39.9359 37.8569V2.51709C39.9359 1.68863 40.6075 1.01709 41.4359 1.01709ZM40.9359 37.8569C40.9359 42.4847 44.7203 46.269 49.348 46.269C53.9757 46.269 57.7601 42.4846 57.7601 37.8569V2.01709H40.9359V37.8569Z" fill="url(#paint1_linear_97_5746)" stroke="#006F9C"/>
<path d="M28.4666 5.18213H44.2899C44.5659 5.18213 44.7899 5.40607 44.7899 5.68213V41.022L44.7791 41.4546C44.5532 45.8923 40.8716 49.4341 36.3787 49.4341C31.7408 49.4341 27.9666 45.6599 27.9666 41.022V5.68213C27.9666 5.40607 28.1906 5.18213 28.4666 5.18213Z" fill="url(#paint2_linear_97_5746)" stroke="#006F9C"/>
<path d="M28.4665 4.18213H44.2907C45.1191 4.18225 45.7907 4.85374 45.7907 5.68213V41.022C45.7907 46.2113 41.5679 50.434 36.3786 50.4341C31.1893 50.4341 26.9665 46.2113 26.9665 41.022V5.68213C26.9665 4.85367 27.6381 4.18213 28.4665 4.18213ZM27.9665 41.022C27.9665 45.6497 31.7509 49.4341 36.3786 49.4341C41.0063 49.434 44.7907 45.6497 44.7907 41.022V5.18213H27.9665V41.022Z" fill="url(#paint3_linear_97_5746)" stroke="#006F9C"/>
<path d="M54.8397 5.18213H70.6639C70.9403 5.18214 71.1639 5.40591 71.1639 5.68213V41.022C71.1639 45.6599 67.3897 49.4341 62.7518 49.4341C58.1139 49.4341 54.3397 45.6599 54.3397 41.022V5.68213C54.3397 5.40591 54.5633 5.18213 54.8397 5.18213Z" fill="url(#paint4_linear_97_5746)" stroke="#006F9C"/>
<path d="M54.8399 4.18213H70.6641C71.4924 4.18225 72.1641 4.85376 72.1641 5.68213V41.022C72.1641 46.2113 67.9413 50.434 62.752 50.4341C57.5627 50.4341 53.3399 46.2113 53.3399 41.022V5.68213C53.3399 4.85367 54.0114 4.18213 54.8399 4.18213ZM54.3399 41.022C54.3399 45.6497 58.1243 49.4341 62.752 49.4341C67.3797 49.434 71.1641 45.6497 71.1641 41.022V5.18213H54.3399V41.022Z" fill="url(#paint5_linear_97_5746)" stroke="#006F9C"/>
<path d="M15.4974 9.1377H31.3207C31.5967 9.1377 31.8207 9.36164 31.8207 9.6377V44.9775C31.8207 49.6155 28.0465 53.3896 23.4086 53.3896C18.7709 53.3894 14.9974 49.6154 14.9974 44.9775V9.6377C14.9974 9.36164 15.2214 9.1377 15.4974 9.1377Z" fill="url(#paint6_linear_97_5746)" stroke="#006F9C"/>
<path d="M15.4972 8.1377H31.3214C32.1497 8.13781 32.8214 8.80933 32.8214 9.6377V44.9775C32.8214 50.1668 28.5986 54.3896 23.4093 54.3896C18.22 54.3896 13.9972 50.1669 13.9972 44.9775V9.6377C13.9972 8.80924 14.6688 8.1377 15.4972 8.1377ZM14.9972 44.9775C14.9972 49.6053 18.7816 53.3896 23.4093 53.3896C28.037 53.3896 31.8214 49.6052 31.8214 44.9775V9.1377H14.9972V44.9775Z" fill="url(#paint7_linear_97_5746)" stroke="#006F9C"/>
<path d="M68.244 9.1377H84.0682C84.3446 9.13771 84.5682 9.36148 84.5682 9.6377V44.9775C84.5682 49.6155 80.794 53.3896 76.1561 53.3896C71.5182 53.3896 67.744 49.6155 67.744 44.9775V9.6377C67.744 9.36147 67.9676 9.1377 68.244 9.1377Z" fill="url(#paint8_linear_97_5746)" stroke="#006F9C"/>
<path d="M68.2439 8.1377H84.0681C84.8964 8.13781 85.5681 8.80933 85.5681 9.6377V44.9775C85.5681 50.1668 81.3453 54.3896 76.156 54.3896C70.9667 54.3896 66.7439 50.1669 66.7439 44.9775V9.6377C66.7439 8.80924 67.4155 8.1377 68.2439 8.1377ZM67.7439 44.9775C67.7439 49.6053 71.5283 53.3896 76.156 53.3896C80.7837 53.3896 84.5681 49.6052 84.5681 44.9775V9.1377H67.7439V44.9775Z" fill="url(#paint9_linear_97_5746)" stroke="#006F9C"/>
</g>
<g opacity="0.7">
<path d="M2.52774 13.8853H18.352C18.628 13.8853 18.852 14.1092 18.852 14.3853V49.7251C18.8519 54.363 15.0777 58.1372 10.4398 58.1372C5.80189 58.1372 2.02774 54.3631 2.02774 49.7251V14.3853C2.02774 14.1092 2.25168 13.8853 2.52774 13.8853Z" fill="url(#paint10_linear_97_5746)" stroke="#006F9C"/>
<path d="M2.52783 12.8853H18.3521C19.1804 12.8854 19.8521 13.557 19.8521 14.3853V49.7251C19.852 54.9144 15.6292 59.1371 10.4399 59.1372C5.25063 59.1372 1.02791 54.9144 1.02783 49.7251V14.3853C1.02783 13.5568 1.69937 12.8853 2.52783 12.8853ZM2.02783 49.7251C2.02791 54.3528 5.81225 58.1372 10.4399 58.1372C15.0676 58.1371 18.852 54.3527 18.8521 49.7251V13.8853H2.02783V49.7251Z" fill="url(#paint11_linear_97_5746)" stroke="#006F9C"/>
<path d="M13.1234 18.6323H28.9476C29.2237 18.6323 29.4476 18.8563 29.4476 19.1323V54.4722C29.4476 59.1101 25.6734 62.8843 21.0355 62.8843C16.3976 62.8843 12.6234 59.1101 12.6234 54.4722V19.1323C12.6234 18.8563 12.8474 18.6323 13.1234 18.6323Z" fill="url(#paint12_linear_97_5746)" stroke="#006F9C"/>
<path d="M13.1236 17.6323H28.9478C29.7761 17.6324 30.4478 18.304 30.4478 19.1323V54.4722C30.4478 59.6615 26.225 63.8842 21.0357 63.8843C15.8464 63.8843 11.6236 59.6615 11.6236 54.4722V19.1323C11.6236 18.3039 12.2952 17.6323 13.1236 17.6323ZM12.6236 54.4722C12.6236 59.0999 16.408 62.8843 21.0357 62.8843C25.6634 62.8842 29.4478 59.0999 29.4478 54.4722V18.6323H12.6236V54.4722Z" fill="url(#paint13_linear_97_5746)" stroke="#006F9C"/>
<path d="M81.6483 13.8853H97.4716C97.748 13.8853 97.9716 14.109 97.9716 14.3853V49.7251C97.9716 54.363 94.1974 58.1372 89.5595 58.1372C84.9216 58.1372 81.1483 54.3631 81.1483 49.7251V14.3853C81.1483 14.109 81.372 13.8853 81.6483 13.8853Z" fill="url(#paint14_linear_97_5746)" stroke="#006F9C"/>
<path d="M81.6479 12.8853H97.4722C98.3004 12.8854 98.9722 13.557 98.9722 14.3853V49.7251C98.9721 54.9144 94.7493 59.1371 89.5601 59.1372C84.3707 59.1372 80.148 54.9144 80.1479 49.7251V14.3853C80.1479 13.5568 80.8195 12.8853 81.6479 12.8853ZM81.1479 49.7251C81.148 54.3528 84.9324 58.1372 89.5601 58.1372C94.1877 58.1371 97.9721 54.3527 97.9722 49.7251V13.8853H81.1479V49.7251Z" fill="url(#paint15_linear_97_5746)" stroke="#006F9C"/>
<path d="M70.617 18.6323H86.4413C86.7176 18.6323 86.9413 18.8561 86.9413 19.1323V54.4722C86.9412 59.1101 83.1671 62.8843 78.5291 62.8843C73.8912 62.8843 70.1171 59.1101 70.117 54.4722V19.1323C70.117 18.8561 70.3406 18.6323 70.617 18.6323Z" fill="url(#paint16_linear_97_5746)" stroke="#006F9C"/>
<path d="M70.6175 17.6323H86.4417C87.27 17.6324 87.9417 18.304 87.9417 19.1323V54.4722C87.9417 59.6615 83.7189 63.8842 78.5296 63.8843C73.3403 63.8843 69.1175 59.6615 69.1175 54.4722V19.1323C69.1175 18.3039 69.7891 17.6323 70.6175 17.6323ZM70.1175 54.4722C70.1175 59.0999 73.9019 62.8843 78.5296 62.8843C83.1573 62.8842 86.9417 59.0999 86.9417 54.4722V18.6323H70.1175V54.4722Z" fill="url(#paint17_linear_97_5746)" stroke="#006F9C"/>
<path d="M26.0931 22.5884H41.9164C42.1924 22.5884 42.4164 22.8123 42.4164 23.0884V58.4282C42.4164 63.0662 38.6422 66.8403 34.0043 66.8403C29.3666 66.8401 25.5931 63.0661 25.5931 58.4282V23.0884C25.5931 22.8123 25.8171 22.5884 26.0931 22.5884Z" fill="url(#paint18_linear_97_5746)" stroke="#006F9C"/>
<path d="M26.0929 21.5884H41.9171C42.7455 21.5885 43.4171 22.2601 43.4171 23.0884V58.4282C43.4171 63.6175 39.1943 67.8403 34.005 67.8403C28.8157 67.8403 24.593 63.6176 24.5929 58.4282V23.0884C24.5929 22.2599 25.2645 21.5884 26.0929 21.5884ZM25.5929 58.4282C25.593 63.0559 29.3773 66.8403 34.005 66.8403C38.6327 66.8403 42.4171 63.0559 42.4171 58.4282V22.5884H25.5929V58.4282Z" fill="url(#paint19_linear_97_5746)" stroke="#006F9C"/>
<path d="M57.2137 22.5884H73.038C73.3143 22.5884 73.538 22.8122 73.538 23.0884V58.4282C73.5379 63.0662 69.7638 66.8403 65.1259 66.8403C60.4879 66.8403 56.7137 63.0662 56.7137 58.4282V23.0884C56.7137 22.8122 56.9374 22.5884 57.2137 22.5884Z" fill="url(#paint20_linear_97_5746)" stroke="#006F9C"/>
<path d="M57.2135 21.5884H73.0378C73.8661 21.5885 74.5378 22.2601 74.5378 23.0884V58.4282C74.5377 63.6175 70.3149 67.8403 65.1256 67.8403C59.9363 67.8403 55.7136 63.6176 55.7135 58.4282V23.0884C55.7135 22.2599 56.3851 21.5884 57.2135 21.5884ZM56.7135 58.4282C56.7136 63.0559 60.4979 66.8403 65.1256 66.8403C69.7533 66.8403 73.5377 63.0559 73.5378 58.4282V22.5884H56.7135V58.4282Z" fill="url(#paint21_linear_97_5746)" stroke="#006F9C"/>
<path d="M41.4359 25.7534H57.2592C57.5356 25.7534 57.7592 25.9772 57.7592 26.2534V61.5933C57.7592 66.2312 53.9855 70.0054 49.3481 70.0054C44.7101 70.0054 40.936 66.2312 40.9359 61.5933V26.2534C40.9359 25.9774 41.1599 25.7534 41.4359 25.7534Z" fill="url(#paint22_linear_97_5746)" stroke="#006F9C"/>
<path d="M41.4359 24.7534H57.2602C58.0885 24.7535 58.7602 25.4251 58.7602 26.2534V61.5933C58.7601 66.7825 54.5373 71.0053 49.3481 71.0054C44.1587 71.0054 39.936 66.7826 39.9359 61.5933V26.2534C39.9359 25.425 40.6075 24.7534 41.4359 24.7534ZM40.9359 61.5933C40.936 66.2209 44.7204 70.0054 49.3481 70.0054C53.9757 70.0053 57.7601 66.2209 57.7602 61.5933V25.7534H40.9359V61.5933Z" fill="url(#paint23_linear_97_5746)" stroke="#006F9C"/>
</g>
<path d="M18.3518 12.3851C19.4564 12.3851 20.3518 13.2805 20.3518 14.3851V17.1323H28.9476C30.0522 17.1323 30.9476 18.0277 30.9476 19.1323V21.0883H41.917C43.0216 21.0883 43.917 21.9837 43.917 23.0883V24.2531H55.2135V23.0883C55.2135 21.9837 56.1089 21.0883 57.2135 21.0883H68.6175V19.1323C68.6175 18.0277 69.5129 17.1323 70.6175 17.1323H79.6478V14.3851C79.6478 13.2805 80.5432 12.3851 81.6478 12.3851H86.0678V9.63789C86.0678 8.53329 85.1724 7.63789 84.0678 7.63789H72.6639V5.68189C72.6639 4.57729 71.7685 3.68189 70.6639 3.68189H59.2599V2.51709C59.2599 1.41249 58.3645 0.51709 57.2599 0.51709H41.4359C40.3313 0.51709 39.4359 1.41249 39.4359 2.51709V3.68189H28.4665C27.3619 3.68189 26.4665 4.57729 26.4665 5.68189V7.63789H15.4972C14.3926 7.63789 13.4972 8.53329 13.4972 9.63789V12.3852L18.3518 12.3851Z" fill="url(#paint24_radial_97_5746)"/>
<defs>
<linearGradient id="paint0_linear_97_5746" x1="58.2596" y1="24.1428" x2="40.4359" y2="24.1428" gradientUnits="userSpaceOnUse">
<stop stop-color="#006F9C"/>
<stop offset="1" stop-color="#FF614D"/>
</linearGradient>
<linearGradient id="paint1_linear_97_5746" x1="59.2599" y1="24.1429" x2="39.4359" y2="24.1429" gradientUnits="userSpaceOnUse">
<stop stop-color="#006F9C"/>
<stop offset="1" stop-color="#FF614D"/>
</linearGradient>
<linearGradient id="paint2_linear_97_5746" x1="45.2903" y1="27.308" x2="27.4666" y2="27.308" gradientUnits="userSpaceOnUse">
<stop stop-color="#006F9C"/>
<stop offset="1" stop-color="#FF614D"/>
</linearGradient>
<linearGradient id="paint3_linear_97_5746" x1="46.2905" y1="27.308" x2="26.4665" y2="27.308" gradientUnits="userSpaceOnUse">
<stop stop-color="#006F9C"/>
<stop offset="1" stop-color="#FF614D"/>
</linearGradient>
<linearGradient id="paint4_linear_97_5746" x1="71.6639" y1="27.308" x2="53.8397" y2="27.308" gradientUnits="userSpaceOnUse">
<stop stop-color="#006F9C"/>
<stop offset="1" stop-color="#FF614D"/>
</linearGradient>
<linearGradient id="paint5_linear_97_5746" x1="72.6639" y1="27.308" x2="52.8399" y2="27.308" gradientUnits="userSpaceOnUse">
<stop stop-color="#006F9C"/>
<stop offset="1" stop-color="#FF614D"/>
</linearGradient>
<linearGradient id="paint6_linear_97_5746" x1="32.3211" y1="31.2636" x2="14.4974" y2="31.2636" gradientUnits="userSpaceOnUse">
<stop stop-color="#006F9C"/>
<stop offset="1" stop-color="#FF614D"/>
</linearGradient>
<linearGradient id="paint7_linear_97_5746" x1="33.3212" y1="31.2635" x2="13.4972" y2="31.2635" gradientUnits="userSpaceOnUse">
<stop stop-color="#006F9C"/>
<stop offset="1" stop-color="#FF614D"/>
</linearGradient>
<linearGradient id="paint8_linear_97_5746" x1="85.0682" y1="31.2636" x2="67.244" y2="31.2636" gradientUnits="userSpaceOnUse">
<stop stop-color="#006F9C"/>
<stop offset="1" stop-color="#FF614D"/>
</linearGradient>
<linearGradient id="paint9_linear_97_5746" x1="86.0679" y1="31.2635" x2="66.2439" y2="31.2635" gradientUnits="userSpaceOnUse">
<stop stop-color="#006F9C"/>
<stop offset="1" stop-color="#FF614D"/>
</linearGradient>
<linearGradient id="paint10_linear_97_5746" x1="19.3519" y1="36.0112" x2="1.52774" y2="36.0112" gradientUnits="userSpaceOnUse">
<stop stop-color="#006F9C"/>
<stop offset="1" stop-color="#FF614D"/>
</linearGradient>
<linearGradient id="paint11_linear_97_5746" x1="20.3518" y1="36.0111" x2="0.527832" y2="36.0111" gradientUnits="userSpaceOnUse">
<stop stop-color="#006F9C"/>
<stop offset="1" stop-color="#FF614D"/>
</linearGradient>
<linearGradient id="paint12_linear_97_5746" x1="29.9476" y1="40.7582" x2="12.1234" y2="40.7582" gradientUnits="userSpaceOnUse">
<stop stop-color="#006F9C"/>
<stop offset="1" stop-color="#FF614D"/>
</linearGradient>
<linearGradient id="paint13_linear_97_5746" x1="30.9476" y1="40.7582" x2="11.1236" y2="40.7582" gradientUnits="userSpaceOnUse">
<stop stop-color="#006F9C"/>
<stop offset="1" stop-color="#FF614D"/>
</linearGradient>
<linearGradient id="paint14_linear_97_5746" x1="98.4715" y1="36.0112" x2="80.6483" y2="36.0112" gradientUnits="userSpaceOnUse">
<stop stop-color="#006F9C"/>
<stop offset="1" stop-color="#FF614D"/>
</linearGradient>
<linearGradient id="paint15_linear_97_5746" x1="99.4719" y1="36.0111" x2="79.6479" y2="36.0111" gradientUnits="userSpaceOnUse">
<stop stop-color="#006F9C"/>
<stop offset="1" stop-color="#FF614D"/>
</linearGradient>
<linearGradient id="paint16_linear_97_5746" x1="87.4412" y1="40.7582" x2="69.617" y2="40.7582" gradientUnits="userSpaceOnUse">
<stop stop-color="#006F9C"/>
<stop offset="1" stop-color="#FF614D"/>
</linearGradient>
<linearGradient id="paint17_linear_97_5746" x1="88.4415" y1="40.7582" x2="68.6175" y2="40.7582" gradientUnits="userSpaceOnUse">
<stop stop-color="#006F9C"/>
<stop offset="1" stop-color="#FF614D"/>
</linearGradient>
<linearGradient id="paint18_linear_97_5746" x1="42.9168" y1="44.7143" x2="25.0931" y2="44.7143" gradientUnits="userSpaceOnUse">
<stop stop-color="#006F9C"/>
<stop offset="1" stop-color="#FF614D"/>
</linearGradient>
<linearGradient id="paint19_linear_97_5746" x1="43.9169" y1="44.7142" x2="24.0929" y2="44.7142" gradientUnits="userSpaceOnUse">
<stop stop-color="#006F9C"/>
<stop offset="1" stop-color="#FF614D"/>
</linearGradient>
<linearGradient id="paint20_linear_97_5746" x1="74.0379" y1="44.7143" x2="56.2137" y2="44.7143" gradientUnits="userSpaceOnUse">
<stop stop-color="#006F9C"/>
<stop offset="1" stop-color="#FF614D"/>
</linearGradient>
<linearGradient id="paint21_linear_97_5746" x1="75.0375" y1="44.7142" x2="55.2135" y2="44.7142" gradientUnits="userSpaceOnUse">
<stop stop-color="#006F9C"/>
<stop offset="1" stop-color="#FF614D"/>
</linearGradient>
<linearGradient id="paint22_linear_97_5746" x1="58.2596" y1="47.8793" x2="40.4359" y2="47.8793" gradientUnits="userSpaceOnUse">
<stop stop-color="#006F9C"/>
<stop offset="1" stop-color="#FF614D"/>
</linearGradient>
<linearGradient id="paint23_linear_97_5746" x1="59.2599" y1="47.8792" x2="39.4359" y2="47.8792" gradientUnits="userSpaceOnUse">
<stop stop-color="#006F9C"/>
<stop offset="1" stop-color="#FF614D"/>
</linearGradient>
<radialGradient id="paint24_radial_97_5746" cx="0" cy="0" r="1" gradientUnits="userSpaceOnUse" gradientTransform="translate(50.3387 29.7716) scale(38.0935 26.1398)">
<stop stop-color="#000054"/>
<stop offset="1" stop-color="#000054" stop-opacity="0"/>
</radialGradient>
</defs>
</svg>
