<svg width="82" height="24" viewBox="0 0 82 24" fill="none" xmlns="http://www.w3.org/2000/svg">
<rect x="1" y="1.98901" width="80" height="20" rx="10" fill="url(#paint0_linear_35_1447)"/>
<rect x="1" y="1.98901" width="80" height="20" rx="10" stroke="#9F9CFF" stroke-width="3" stroke-linejoin="round"/>
<path d="M16.9238 15.989H15.0371L14.2871 14.0378H10.8535L10.1445 15.989H8.30469L11.6504 7.39917H13.4844L16.9238 15.989ZM13.7305 12.5906L12.5469 9.40308L11.3867 12.5906H13.7305ZM17.8555 15.989V7.39917H21.5059C22.4238 7.39917 23.0898 7.47729 23.5039 7.63354C23.9219 7.78589 24.2559 8.05933 24.5059 8.45386C24.7559 8.84839 24.8809 9.29956 24.8809 9.80737C24.8809 10.4519 24.6914 10.9851 24.3125 11.407C23.9336 11.825 23.3672 12.0886 22.6133 12.198C22.9883 12.4167 23.2969 12.657 23.5391 12.9187C23.7852 13.1804 24.1152 13.6453 24.5293 14.3132L25.5781 15.989H23.5039L22.25 14.1199C21.8047 13.4519 21.5 13.032 21.3359 12.8601C21.1719 12.6843 20.998 12.5652 20.8145 12.5027C20.6309 12.4363 20.3398 12.4031 19.9414 12.4031H19.5898V15.989H17.8555ZM19.5898 11.032H20.873C21.7051 11.032 22.2246 10.9968 22.4316 10.9265C22.6387 10.8562 22.8008 10.7351 22.918 10.5632C23.0352 10.3914 23.0938 10.1765 23.0938 9.9187C23.0938 9.62964 23.0156 9.39722 22.8594 9.22144C22.707 9.04175 22.4902 8.92847 22.209 8.88159C22.0684 8.86206 21.6465 8.85229 20.9434 8.85229H19.5898V11.032ZM26.5273 15.989V7.39917H28.2617V10.78H31.6602V7.39917H33.3945V15.989H31.6602V12.2332H28.2617V15.989H26.5273ZM39.1895 12.8308V11.3835H42.9277V14.8054C42.5645 15.157 42.0371 15.4675 41.3457 15.7371C40.6582 16.0027 39.9609 16.1355 39.2539 16.1355C38.3555 16.1355 37.5723 15.948 36.9043 15.573C36.2363 15.1941 35.7344 14.655 35.3984 13.9558C35.0625 13.2527 34.8945 12.489 34.8945 11.6648C34.8945 10.7703 35.082 9.97534 35.457 9.28003C35.832 8.58472 36.3809 8.05151 37.1035 7.68042C37.6543 7.39526 38.3398 7.25269 39.1602 7.25269C40.2266 7.25269 41.0586 7.47729 41.6562 7.92651C42.2578 8.37183 42.6445 8.98901 42.8164 9.77808L41.0938 10.1003C40.9727 9.67847 40.7441 9.34644 40.4082 9.10425C40.0762 8.85815 39.6602 8.73511 39.1602 8.73511C38.4023 8.73511 37.7988 8.97534 37.3496 9.45581C36.9043 9.93628 36.6816 10.6492 36.6816 11.5945C36.6816 12.614 36.9082 13.3796 37.3613 13.8914C37.8145 14.3992 38.4082 14.6531 39.1426 14.6531C39.5059 14.6531 39.8691 14.5828 40.2324 14.4421C40.5996 14.2976 40.9141 14.1238 41.1758 13.9207V12.8308H39.1895ZM52.2793 15.989H50.3926L49.6426 14.0378H46.209L45.5 15.989H43.6602L47.0059 7.39917H48.8398L52.2793 15.989ZM49.0859 12.5906L47.9023 9.40308L46.7422 12.5906H49.0859ZM53.2051 15.989V7.39917H55.9883C57.043 7.39917 57.7305 7.44214 58.0508 7.52808C58.543 7.65698 58.9551 7.93823 59.2871 8.37183C59.6191 8.80151 59.7852 9.35815 59.7852 10.0417C59.7852 10.5691 59.6895 11.0125 59.498 11.3718C59.3066 11.7312 59.0625 12.0144 58.7656 12.2214C58.4727 12.4246 58.1738 12.5593 57.8691 12.6257C57.4551 12.7078 56.8555 12.7488 56.0703 12.7488H54.9395V15.989H53.2051ZM54.9395 8.85229V11.2898H55.8887C56.5723 11.2898 57.0293 11.2449 57.2598 11.155C57.4902 11.0652 57.6699 10.9246 57.7988 10.7332C57.9316 10.5417 57.998 10.3191 57.998 10.0652C57.998 9.75269 57.9062 9.49487 57.7227 9.29175C57.5391 9.08862 57.3066 8.96167 57.0254 8.91089C56.8184 8.87183 56.4023 8.85229 55.7773 8.85229H54.9395ZM60.7871 13.7097L62.3809 13.5164C62.4316 13.9226 62.5684 14.2332 62.791 14.448C63.0137 14.6628 63.2832 14.7703 63.5996 14.7703C63.9395 14.7703 64.2246 14.6414 64.4551 14.3835C64.6895 14.1257 64.8066 13.7781 64.8066 13.3406C64.8066 12.9265 64.6953 12.5984 64.4727 12.3562C64.25 12.114 63.9785 11.9929 63.6582 11.9929C63.4473 11.9929 63.1953 12.0339 62.9023 12.116L63.084 10.7742C63.5293 10.7859 63.8691 10.6902 64.1035 10.4871C64.3379 10.28 64.4551 10.0066 64.4551 9.66675C64.4551 9.37769 64.3691 9.14722 64.1973 8.97534C64.0254 8.80347 63.7969 8.71753 63.5117 8.71753C63.2305 8.71753 62.9902 8.81519 62.791 9.0105C62.5918 9.20581 62.4707 9.49097 62.4277 9.86597L60.9102 9.60815C61.0156 9.08862 61.1738 8.67456 61.3848 8.36597C61.5996 8.05347 61.8965 7.80933 62.2754 7.63354C62.6582 7.45386 63.0859 7.36401 63.5586 7.36401C64.3672 7.36401 65.0156 7.62183 65.5039 8.13745C65.9062 8.55933 66.1074 9.03589 66.1074 9.56714C66.1074 10.321 65.6953 10.9226 64.8711 11.3718C65.3633 11.4773 65.7559 11.7136 66.0488 12.0808C66.3457 12.448 66.4941 12.8914 66.4941 13.4109C66.4941 14.1648 66.2188 14.8074 65.668 15.3386C65.1172 15.8699 64.4316 16.1355 63.6113 16.1355C62.834 16.1355 62.1895 15.9128 61.6777 15.4675C61.166 15.0183 60.8691 14.4324 60.7871 13.7097ZM67.5488 13.78L69.1895 13.6101C69.2363 13.9812 69.375 14.2761 69.6055 14.4949C69.8359 14.7097 70.1016 14.8171 70.4023 14.8171C70.7461 14.8171 71.0371 14.6785 71.2754 14.4011C71.5137 14.1199 71.6328 13.698 71.6328 13.1355C71.6328 12.6082 71.5137 12.2136 71.2754 11.9519C71.041 11.6863 70.7344 11.5535 70.3555 11.5535C69.8828 11.5535 69.459 11.7625 69.084 12.1804L67.748 11.9871L68.5918 7.51636H72.9453V9.05737H69.8398L69.582 10.5164C69.9492 10.3328 70.3242 10.241 70.707 10.241C71.4375 10.241 72.0566 10.5066 72.5645 11.0378C73.0723 11.5691 73.3262 12.2585 73.3262 13.1062C73.3262 13.8132 73.1211 14.4441 72.7109 14.9988C72.1523 15.7566 71.377 16.1355 70.3848 16.1355C69.5918 16.1355 68.9453 15.9226 68.4453 15.4968C67.9453 15.071 67.6465 14.4988 67.5488 13.78Z" fill="white"/>
<defs>
<linearGradient id="paint0_linear_35_1447" x1="41" y1="1.98901" x2="41" y2="21.989" gradientUnits="userSpaceOnUse">
<stop stop-color="#9F9CFF"/>
<stop offset="1" stop-color="#163D43"/>
</linearGradient>
</defs>
</svg>
