<svg width="61" height="24" viewBox="0 0 61 24" fill="none" xmlns="http://www.w3.org/2000/svg">
<rect x="2" y="1.98901" width="58" height="20" rx="10" fill="url(#paint0_linear_46_4334)"/>
<rect x="2" y="1.98901" width="58" height="20" rx="10" stroke="#99DD36" stroke-width="3" stroke-linejoin="round"/>
<path d="M10.1348 15.989V7.39917H11.8691V15.989H10.1348ZM17.5234 12.8308V11.3835H21.2617V14.8054C20.8984 15.157 20.3711 15.4675 19.6797 15.7371C18.9922 16.0027 18.2949 16.1355 17.5879 16.1355C16.6895 16.1355 15.9062 15.948 15.2383 15.573C14.5703 15.1941 14.0684 14.655 13.7324 13.9558C13.3965 13.2527 13.2285 12.489 13.2285 11.6648C13.2285 10.7703 13.416 9.97534 13.791 9.28003C14.166 8.58472 14.7148 8.05151 15.4375 7.68042C15.9883 7.39526 16.6738 7.25269 17.4941 7.25269C18.5605 7.25269 19.3926 7.47729 19.9902 7.92651C20.5918 8.37183 20.9785 8.98901 21.1504 9.77808L19.4277 10.1003C19.3066 9.67847 19.0781 9.34644 18.7422 9.10425C18.4102 8.85815 17.9941 8.73511 17.4941 8.73511C16.7363 8.73511 16.1328 8.97534 15.6836 9.45581C15.2383 9.93628 15.0156 10.6492 15.0156 11.5945C15.0156 12.614 15.2422 13.3796 15.6953 13.8914C16.1484 14.3992 16.7422 14.6531 17.4766 14.6531C17.8398 14.6531 18.2031 14.5828 18.5664 14.4421C18.9336 14.2976 19.248 14.1238 19.5098 13.9207V12.8308H17.5234ZM22.8789 15.989V7.39917H28.7676V8.85229H24.6133V10.8855H28.1992V12.3386H24.6133V15.989H22.8789ZM30.209 7.39917H33.6426C34.3223 7.39917 34.8281 7.42847 35.1602 7.48706C35.4961 7.54175 35.7949 7.65894 36.0566 7.83862C36.3223 8.01831 36.543 8.25854 36.7188 8.55933C36.8945 8.8562 36.9824 9.19019 36.9824 9.56128C36.9824 9.96362 36.873 10.3328 36.6543 10.6687C36.4395 11.0046 36.1465 11.2566 35.7754 11.4246C36.2988 11.5769 36.7012 11.8367 36.9824 12.2039C37.2637 12.571 37.4043 13.0027 37.4043 13.4988C37.4043 13.8894 37.3125 14.2703 37.1289 14.6414C36.9492 15.0085 36.7012 15.3035 36.3848 15.5261C36.0723 15.7449 35.6855 15.8796 35.2246 15.9304C34.9355 15.9617 34.2383 15.9812 33.1328 15.989H30.209V7.39917ZM31.9434 8.82886V10.8152H33.0801C33.7559 10.8152 34.1758 10.8054 34.3398 10.7859C34.6367 10.7507 34.8691 10.6492 35.0371 10.4812C35.209 10.3093 35.2949 10.0847 35.2949 9.80737C35.2949 9.54175 35.2207 9.3269 35.0723 9.16284C34.9277 8.99487 34.7109 8.89331 34.4219 8.85815C34.25 8.83862 33.7559 8.82886 32.9395 8.82886H31.9434ZM31.9434 12.2449V14.5417H33.5488C34.1738 14.5417 34.5703 14.5242 34.7383 14.489C34.9961 14.4421 35.2051 14.3289 35.3652 14.1492C35.5293 13.9656 35.6113 13.7214 35.6113 13.4167C35.6113 13.1589 35.5488 12.9402 35.4238 12.7605C35.2988 12.5808 35.1172 12.45 34.8789 12.3679C34.6445 12.2859 34.1328 12.2449 33.3438 12.2449H31.9434ZM38.875 15.989V7.39917H41.6582C42.7129 7.39917 43.4004 7.44214 43.7207 7.52808C44.2129 7.65698 44.625 7.93823 44.957 8.37183C45.2891 8.80151 45.4551 9.35815 45.4551 10.0417C45.4551 10.5691 45.3594 11.0125 45.168 11.3718C44.9766 11.7312 44.7324 12.0144 44.4355 12.2214C44.1426 12.4246 43.8438 12.5593 43.5391 12.6257C43.125 12.7078 42.5254 12.7488 41.7402 12.7488H40.6094V15.989H38.875ZM40.6094 8.85229V11.2898H41.5586C42.2422 11.2898 42.6992 11.2449 42.9297 11.155C43.1602 11.0652 43.3398 10.9246 43.4688 10.7332C43.6016 10.5417 43.668 10.3191 43.668 10.0652C43.668 9.75269 43.5762 9.49487 43.3926 9.29175C43.209 9.08862 42.9766 8.96167 42.6953 8.91089C42.4883 8.87183 42.0723 8.85229 41.4473 8.85229H40.6094ZM49.7441 15.989V14.2605H46.2285V12.8191L49.9551 7.36401H51.3379V12.8132H52.4043V14.2605H51.3379V15.989H49.7441ZM49.7441 12.8132V9.87769L47.7695 12.8132H49.7441Z" fill="white"/>
<defs>
<linearGradient id="paint0_linear_46_4334" x1="31" y1="1.98901" x2="31" y2="21.989" gradientUnits="userSpaceOnUse">
<stop stop-color="#0096F3"/>
<stop offset="1" stop-color="#99DD36"/>
</linearGradient>
</defs>
</svg>
