<svg width="47" height="24" viewBox="0 0 47 24" fill="none" xmlns="http://www.w3.org/2000/svg">
<rect x="2" y="1.98901" width="44" height="20" rx="10" fill="url(#paint0_linear_42_2656)"/>
<rect x="2" y="1.98901" width="44" height="20" rx="10" stroke="#C9535C" stroke-width="3" stroke-linejoin="round"/>
<path d="M13.7812 14.0085L15.4219 14.2839C15.2109 14.8855 14.877 15.3445 14.4199 15.6609C13.9668 15.9734 13.3984 16.1296 12.7148 16.1296C11.6328 16.1296 10.832 15.7761 10.3125 15.0691C9.90234 14.5027 9.69727 13.7878 9.69727 12.9246C9.69727 11.8933 9.9668 11.0867 10.5059 10.5046C11.0449 9.9187 11.7266 9.62573 12.5508 9.62573C13.4766 9.62573 14.207 9.93237 14.7422 10.5457C15.2773 11.155 15.5332 12.0906 15.5098 13.3523H11.3848C11.3965 13.8406 11.5293 14.2214 11.7832 14.4949C12.0371 14.7644 12.3535 14.8992 12.7324 14.8992C12.9902 14.8992 13.207 14.8289 13.3828 14.6882C13.5586 14.5476 13.6914 14.321 13.7812 14.0085ZM13.875 12.3445C13.8633 11.8679 13.7402 11.5066 13.5059 11.2605C13.2715 11.0105 12.9863 10.8855 12.6504 10.8855C12.291 10.8855 11.9941 11.0164 11.7598 11.2781C11.5254 11.5398 11.4102 11.8953 11.4141 12.3445H13.875ZM16.875 15.989V7.39917H20.5254C21.4434 7.39917 22.1094 7.47729 22.5234 7.63354C22.9414 7.78589 23.2754 8.05933 23.5254 8.45386C23.7754 8.84839 23.9004 9.29956 23.9004 9.80737C23.9004 10.4519 23.7109 10.9851 23.332 11.407C22.9531 11.825 22.3867 12.0886 21.6328 12.198C22.0078 12.4167 22.3164 12.657 22.5586 12.9187C22.8047 13.1804 23.1348 13.6453 23.5488 14.3132L24.5977 15.989H22.5234L21.2695 14.1199C20.8242 13.4519 20.5195 13.032 20.3555 12.8601C20.1914 12.6843 20.0176 12.5652 19.834 12.5027C19.6504 12.4363 19.3594 12.4031 18.9609 12.4031H18.6094V15.989H16.875ZM18.6094 11.032H19.8926C20.7246 11.032 21.2441 10.9968 21.4512 10.9265C21.6582 10.8562 21.8203 10.7351 21.9375 10.5632C22.0547 10.3914 22.1133 10.1765 22.1133 9.9187C22.1133 9.62964 22.0352 9.39722 21.8789 9.22144C21.7266 9.04175 21.5098 8.92847 21.2285 8.88159C21.0879 8.86206 20.666 8.85229 19.9629 8.85229H18.6094V11.032ZM25.5527 15.989V7.39917H31.4414V8.85229H27.2871V10.8855H30.873V12.3386H27.2871V15.989H25.5527ZM36.7266 15.989H35.0801V9.78394C34.4785 10.3464 33.7695 10.7625 32.9531 11.032V9.53784C33.3828 9.39722 33.8496 9.13159 34.3535 8.74097C34.8574 8.34644 35.2031 7.88745 35.3906 7.36401H36.7266V15.989Z" fill="white"/>
<defs>
<linearGradient id="paint0_linear_42_2656" x1="24" y1="1.98901" x2="24" y2="21.989" gradientUnits="userSpaceOnUse">
<stop stop-color="#C9535C"/>
<stop offset="1" stop-color="#51C0D0"/>
</linearGradient>
</defs>
</svg>
