<svg width="15" height="112" viewBox="0 0 15 112" fill="none" xmlns="http://www.w3.org/2000/svg">
<path d="M9.73119 110.437C4.91719 108.754 1.74229 105.254 10.3188 96.9204C15.5775 91.8102 14.2489 86.9375 10.41 85.8492C1.15689 83.2259 1.76219 81.7791 1.76139 72.1137V65.4443C1.76139 55.6721 11.0811 61.2596 11.0818 53.2064C11.0818 50.7145 8.99159 48.5367 6.41209 48.5367C3.83259 48.5367 1.74239 46.4465 1.74239 43.867C1.74239 41.2875 3.83259 39.1972 6.41209 39.1973C8.99159 39.1974 11.0819 37.1071 11.0818 34.5276C11.0818 31.9481 8.99159 29.8579 6.41209 29.8579C3.83259 29.8579 1.74239 27.7677 1.74239 25.1882C1.74239 22.6087 3.83259 20.5184 6.41209 20.5185C8.99159 20.5185 11.0819 18.4283 11.0818 15.8488C11.0818 13.2693 8.99159 11.1791 6.41209 11.1791C5.21709 11.1791 4.02139 10.723 3.10989 9.81149C1.28629 7.98789 1.28629 5.03079 3.10989 3.20709C4.93349 1.38339 7.89059 1.38349 9.71429 3.20709C10.6265 4.11929 11.0818 5.31429 11.0819 6.50929" stroke="url(#paint0_linear_90_4524)" stroke-width="2" stroke-miterlimit="10" stroke-linecap="round" stroke-linejoin="round"/>
<defs>
<linearGradient id="paint0_linear_90_4524" x1="0.736088" y1="56.1304" x2="14.7857" y2="56.1304" gradientUnits="userSpaceOnUse">
<stop stop-color="#FF74B9"/>
<stop offset="1" stop-color="#250000"/>
</linearGradient>
</defs>
</svg>
