<svg width="57" height="24" viewBox="0 0 57 24" fill="none" xmlns="http://www.w3.org/2000/svg">
<rect x="2" y="1.98901" width="54" height="20" rx="10" fill="url(#paint0_linear_42_2727)"/>
<rect x="2" y="1.98901" width="54" height="20" rx="10" stroke="#CDA2BF" stroke-width="3" stroke-linejoin="round"/>
<path d="M10.2031 15.989V7.39917H16.0918V8.85229H11.9375V10.8855H15.5234V12.3386H11.9375V15.989H10.2031ZM17.5508 15.989V7.39917H19.2852V11.2136L22.7891 7.39917H25.1211L21.8867 10.7449L25.2969 15.989H23.0527L20.6914 11.9578L19.2852 13.3933V15.989H17.5508ZM26.2051 7.39917H29.6387C30.3184 7.39917 30.8242 7.42847 31.1562 7.48706C31.4922 7.54175 31.791 7.65894 32.0527 7.83862C32.3184 8.01831 32.5391 8.25854 32.7148 8.55933C32.8906 8.8562 32.9785 9.19019 32.9785 9.56128C32.9785 9.96362 32.8691 10.3328 32.6504 10.6687C32.4355 11.0046 32.1426 11.2566 31.7715 11.4246C32.2949 11.5769 32.6973 11.8367 32.9785 12.2039C33.2598 12.571 33.4004 13.0027 33.4004 13.4988C33.4004 13.8894 33.3086 14.2703 33.125 14.6414C32.9453 15.0085 32.6973 15.3035 32.3809 15.5261C32.0684 15.7449 31.6816 15.8796 31.2207 15.9304C30.9316 15.9617 30.2344 15.9812 29.1289 15.989H26.2051V7.39917ZM27.9395 8.82886V10.8152H29.0762C29.752 10.8152 30.1719 10.8054 30.3359 10.7859C30.6328 10.7507 30.8652 10.6492 31.0332 10.4812C31.2051 10.3093 31.291 10.0847 31.291 9.80737C31.291 9.54175 31.2168 9.3269 31.0684 9.16284C30.9238 8.99487 30.707 8.89331 30.418 8.85815C30.2461 8.83862 29.752 8.82886 28.9355 8.82886H27.9395ZM27.9395 12.2449V14.5417H29.5449C30.1699 14.5417 30.5664 14.5242 30.7344 14.489C30.9922 14.4421 31.2012 14.3289 31.3613 14.1492C31.5254 13.9656 31.6074 13.7214 31.6074 13.4167C31.6074 13.1589 31.5449 12.9402 31.4199 12.7605C31.2949 12.5808 31.1133 12.45 30.875 12.3679C30.6406 12.2859 30.1289 12.2449 29.3398 12.2449H27.9395ZM34.8711 15.989V7.39917H37.6543C38.709 7.39917 39.3965 7.44214 39.7168 7.52808C40.209 7.65698 40.6211 7.93823 40.9531 8.37183C41.2852 8.80151 41.4512 9.35815 41.4512 10.0417C41.4512 10.5691 41.3555 11.0125 41.1641 11.3718C40.9727 11.7312 40.7285 12.0144 40.4316 12.2214C40.1387 12.4246 39.8398 12.5593 39.5352 12.6257C39.1211 12.7078 38.5215 12.7488 37.7363 12.7488H36.6055V15.989H34.8711ZM36.6055 8.85229V11.2898H37.5547C38.2383 11.2898 38.6953 11.2449 38.9258 11.155C39.1562 11.0652 39.3359 10.9246 39.4648 10.7332C39.5977 10.5417 39.6641 10.3191 39.6641 10.0652C39.6641 9.75269 39.5723 9.49487 39.3887 9.29175C39.2051 9.08862 38.9727 8.96167 38.6914 8.91089C38.4844 8.87183 38.0684 8.85229 37.4434 8.85229H36.6055ZM42.5352 13.78L44.1758 13.6101C44.2227 13.9812 44.3613 14.2761 44.5918 14.4949C44.8223 14.7097 45.0879 14.8171 45.3887 14.8171C45.7324 14.8171 46.0234 14.6785 46.2617 14.4011C46.5 14.1199 46.6191 13.698 46.6191 13.1355C46.6191 12.6082 46.5 12.2136 46.2617 11.9519C46.0273 11.6863 45.7207 11.5535 45.3418 11.5535C44.8691 11.5535 44.4453 11.7625 44.0703 12.1804L42.7344 11.9871L43.5781 7.51636H47.9316V9.05737H44.8262L44.5684 10.5164C44.9355 10.3328 45.3105 10.241 45.6934 10.241C46.4238 10.241 47.043 10.5066 47.5508 11.0378C48.0586 11.5691 48.3125 12.2585 48.3125 13.1062C48.3125 13.8132 48.1074 14.4441 47.6973 14.9988C47.1387 15.7566 46.3633 16.1355 45.3711 16.1355C44.5781 16.1355 43.9316 15.9226 43.4316 15.4968C42.9316 15.071 42.6328 14.4988 42.5352 13.78Z" fill="white"/>
<defs>
<linearGradient id="paint0_linear_42_2727" x1="29" y1="1.98901" x2="29" y2="21.989" gradientUnits="userSpaceOnUse">
<stop stop-color="#DE8F69"/>
<stop offset="1" stop-color="#CDA2BF"/>
</linearGradient>
</defs>
</svg>
