<svg width="49" height="24" viewBox="0 0 49 24" fill="none" xmlns="http://www.w3.org/2000/svg">
<rect x="2" y="1.98901" width="46" height="20" rx="10" fill="url(#paint0_linear_67_1842)"/>
<rect x="2" y="1.98901" width="46" height="20" rx="10" stroke="#2172FF" stroke-width="3" stroke-linejoin="round"/>
<path d="M10.1992 15.989V7.39917H13.8496C14.7676 7.39917 15.4336 7.47729 15.8477 7.63354C16.2656 7.78589 16.5996 8.05933 16.8496 8.45386C17.0996 8.84839 17.2246 9.29956 17.2246 9.80737C17.2246 10.4519 17.0352 10.9851 16.6562 11.407C16.2773 11.825 15.7109 12.0886 14.957 12.198C15.332 12.4167 15.6406 12.657 15.8828 12.9187C16.1289 13.1804 16.459 13.6453 16.873 14.3132L17.9219 15.989H15.8477L14.5938 14.1199C14.1484 13.4519 13.8438 13.032 13.6797 12.8601C13.5156 12.6843 13.3418 12.5652 13.1582 12.5027C12.9746 12.4363 12.6836 12.4031 12.2852 12.4031H11.9336V15.989H10.1992ZM11.9336 11.032H13.2168C14.0488 11.032 14.5684 10.9968 14.7754 10.9265C14.9824 10.8562 15.1445 10.7351 15.2617 10.5632C15.3789 10.3914 15.4375 10.1765 15.4375 9.9187C15.4375 9.62964 15.3594 9.39722 15.2031 9.22144C15.0508 9.04175 14.834 8.92847 14.5527 8.88159C14.4121 8.86206 13.9902 8.85229 13.2871 8.85229H11.9336V11.032ZM26.6113 15.989H24.7246L23.9746 14.0378H20.541L19.832 15.989H17.9922L21.3379 7.39917H23.1719L26.6113 15.989ZM23.418 12.5906L22.2344 9.40308L21.0742 12.5906H23.418ZM27.5488 15.989V7.39917H33.4375V8.85229H29.2832V10.8855H32.8691V12.3386H29.2832V15.989H27.5488ZM38.7227 15.989H37.0762V9.78394C36.4746 10.3464 35.7656 10.7625 34.9492 11.032V9.53784C35.3789 9.39722 35.8457 9.13159 36.3496 8.74097C36.8535 8.34644 37.1992 7.88745 37.3867 7.36401H38.7227V15.989Z" fill="white"/>
<defs>
<linearGradient id="paint0_linear_67_1842" x1="25" y1="1.98901" x2="25" y2="21.989" gradientUnits="userSpaceOnUse">
<stop stop-color="#836BD1"/>
<stop offset="1" stop-color="#2172FF"/>
</linearGradient>
</defs>
</svg>
