<svg width="67" height="24" viewBox="0 0 67 24" fill="none" xmlns="http://www.w3.org/2000/svg">
<rect x="1" y="1.98901" width="65" height="20" rx="10" fill="url(#paint0_linear_64_1898)"/>
<rect x="1" y="1.98901" width="65" height="20" rx="10" stroke="#69B9AF" stroke-width="3" stroke-linejoin="round"/>
<path d="M9.36523 15.989V7.39917H11.0527L14.5684 13.1355V7.39917H16.1797V15.989H14.4395L10.9766 10.3875V15.989H9.36523ZM18.0254 15.989V7.39917H21.6758C22.5938 7.39917 23.2598 7.47729 23.6738 7.63354C24.0918 7.78589 24.4258 8.05933 24.6758 8.45386C24.9258 8.84839 25.0508 9.29956 25.0508 9.80737C25.0508 10.4519 24.8613 10.9851 24.4824 11.407C24.1035 11.825 23.5371 12.0886 22.7832 12.198C23.1582 12.4167 23.4668 12.657 23.709 12.9187C23.9551 13.1804 24.2852 13.6453 24.6992 14.3132L25.748 15.989H23.6738L22.4199 14.1199C21.9746 13.4519 21.6699 13.032 21.5059 12.8601C21.3418 12.6843 21.168 12.5652 20.9844 12.5027C20.8008 12.4363 20.5098 12.4031 20.1113 12.4031H19.7598V15.989H18.0254ZM19.7598 11.032H21.043C21.875 11.032 22.3945 10.9968 22.6016 10.9265C22.8086 10.8562 22.9707 10.7351 23.0879 10.5632C23.2051 10.3914 23.2637 10.1765 23.2637 9.9187C23.2637 9.62964 23.1855 9.39722 23.0293 9.22144C22.877 9.04175 22.6602 8.92847 22.3789 8.88159C22.2383 8.86206 21.8164 8.85229 21.1133 8.85229H19.7598V11.032ZM26.3516 13.78L27.9922 13.6101C28.0391 13.9812 28.1777 14.2761 28.4082 14.4949C28.6387 14.7097 28.9043 14.8171 29.2051 14.8171C29.5488 14.8171 29.8398 14.6785 30.0781 14.4011C30.3164 14.1199 30.4355 13.698 30.4355 13.1355C30.4355 12.6082 30.3164 12.2136 30.0781 11.9519C29.8438 11.6863 29.5371 11.5535 29.1582 11.5535C28.6855 11.5535 28.2617 11.7625 27.8867 12.1804L26.5508 11.9871L27.3945 7.51636H31.748V9.05737H28.6426L28.3848 10.5164C28.752 10.3328 29.127 10.241 29.5098 10.241C30.2402 10.241 30.8594 10.5066 31.3672 11.0378C31.875 11.5691 32.1289 12.2585 32.1289 13.1062C32.1289 13.8132 31.9238 14.4441 31.5137 14.9988C30.9551 15.7566 30.1797 16.1355 29.1875 16.1355C28.3945 16.1355 27.748 15.9226 27.248 15.4968C26.748 15.071 26.4492 14.4988 26.3516 13.78ZM41.1172 15.989H39.2305L38.4805 14.0378H35.0469L34.3379 15.989H32.498L35.8438 7.39917H37.6777L41.1172 15.989ZM37.9238 12.5906L36.7402 9.40308L35.5801 12.5906H37.9238ZM47.2402 14.4597V15.989H41.4688C41.5312 15.4109 41.7188 14.864 42.0312 14.3484C42.3438 13.8289 42.9609 13.1414 43.8828 12.2859C44.625 11.5945 45.0801 11.1257 45.248 10.8796C45.4746 10.5398 45.5879 10.2039 45.5879 9.87183C45.5879 9.50464 45.4883 9.22339 45.2891 9.02808C45.0938 8.82886 44.8223 8.72925 44.4746 8.72925C44.1309 8.72925 43.8574 8.83276 43.6543 9.03979C43.4512 9.24683 43.334 9.59058 43.3027 10.071L41.6621 9.90698C41.7598 9.00073 42.0664 8.35034 42.582 7.95581C43.0977 7.56128 43.7422 7.36401 44.5156 7.36401C45.3633 7.36401 46.0293 7.59253 46.5137 8.04956C46.998 8.50659 47.2402 9.07495 47.2402 9.75464C47.2402 10.1414 47.1699 10.5105 47.0293 10.8621C46.8926 11.2097 46.6738 11.575 46.373 11.9578C46.1738 12.2117 45.8145 12.5769 45.2949 13.0535C44.7754 13.53 44.4453 13.8464 44.3047 14.0027C44.168 14.1589 44.0566 14.3113 43.9707 14.4597H47.2402ZM48.5234 13.698V12.0515H51.7578V13.698H48.5234ZM56.5684 15.989H54.9219V9.78394C54.3203 10.3464 53.6113 10.7625 52.7949 11.032V9.53784C53.2246 9.39722 53.6914 9.13159 54.1953 8.74097C54.6992 8.34644 55.0449 7.88745 55.2324 7.36401H56.5684V15.989Z" fill="white"/>
<defs>
<linearGradient id="paint0_linear_64_1898" x1="33.5" y1="1.98901" x2="33.5" y2="21.989" gradientUnits="userSpaceOnUse">
<stop stop-color="#69B9AF"/>
<stop offset="1" stop-color="#965300"/>
</linearGradient>
</defs>
</svg>
