<svg width="67" height="24" viewBox="0 0 67 24" fill="none" xmlns="http://www.w3.org/2000/svg">
<rect x="1" y="1.98901" width="65" height="20" rx="10" fill="url(#paint0_linear_46_4335)"/>
<rect x="1" y="1.98901" width="65" height="20" rx="10" stroke="#9BA138" stroke-width="3" stroke-linejoin="round"/>
<path d="M9.29492 15.989V7.39917H11.0293V15.989H9.29492ZM16.6836 12.8308V11.3835H20.4219V14.8054C20.0586 15.157 19.5312 15.4675 18.8398 15.7371C18.1523 16.0027 17.4551 16.1355 16.748 16.1355C15.8496 16.1355 15.0664 15.948 14.3984 15.573C13.7305 15.1941 13.2285 14.655 12.8926 13.9558C12.5566 13.2527 12.3887 12.489 12.3887 11.6648C12.3887 10.7703 12.5762 9.97534 12.9512 9.28003C13.3262 8.58472 13.875 8.05151 14.5977 7.68042C15.1484 7.39526 15.834 7.25269 16.6543 7.25269C17.7207 7.25269 18.5527 7.47729 19.1504 7.92651C19.752 8.37183 20.1387 8.98901 20.3105 9.77808L18.5879 10.1003C18.4668 9.67847 18.2383 9.34644 17.9023 9.10425C17.5703 8.85815 17.1543 8.73511 16.6543 8.73511C15.8965 8.73511 15.293 8.97534 14.8438 9.45581C14.3984 9.93628 14.1758 10.6492 14.1758 11.5945C14.1758 12.614 14.4023 13.3796 14.8555 13.8914C15.3086 14.3992 15.9023 14.6531 16.6367 14.6531C17 14.6531 17.3633 14.5828 17.7266 14.4421C18.0938 14.2976 18.4082 14.1238 18.6699 13.9207V12.8308H16.6836ZM22.0391 15.989V7.39917H27.9277V8.85229H23.7734V10.8855H27.3594V12.3386H23.7734V15.989H22.0391ZM34.5605 14.4597V15.989H28.7891C28.8516 15.4109 29.0391 14.864 29.3516 14.3484C29.6641 13.8289 30.2812 13.1414 31.2031 12.2859C31.9453 11.5945 32.4004 11.1257 32.5684 10.8796C32.7949 10.5398 32.9082 10.2039 32.9082 9.87183C32.9082 9.50464 32.8086 9.22339 32.6094 9.02808C32.4141 8.82886 32.1426 8.72925 31.7949 8.72925C31.4512 8.72925 31.1777 8.83276 30.9746 9.03979C30.7715 9.24683 30.6543 9.59058 30.623 10.071L28.9824 9.90698C29.0801 9.00073 29.3867 8.35034 29.9023 7.95581C30.418 7.56128 31.0625 7.36401 31.8359 7.36401C32.6836 7.36401 33.3496 7.59253 33.834 8.04956C34.3184 8.50659 34.5605 9.07495 34.5605 9.75464C34.5605 10.1414 34.4902 10.5105 34.3496 10.8621C34.2129 11.2097 33.9941 11.575 33.6934 11.9578C33.4941 12.2117 33.1348 12.5769 32.6152 13.0535C32.0957 13.53 31.7656 13.8464 31.625 14.0027C31.4883 14.1589 31.377 14.3113 31.291 14.4597H34.5605ZM36.0488 7.39917H39.4824C40.1621 7.39917 40.668 7.42847 41 7.48706C41.3359 7.54175 41.6348 7.65894 41.8965 7.83862C42.1621 8.01831 42.3828 8.25854 42.5586 8.55933C42.7344 8.8562 42.8223 9.19019 42.8223 9.56128C42.8223 9.96362 42.7129 10.3328 42.4941 10.6687C42.2793 11.0046 41.9863 11.2566 41.6152 11.4246C42.1387 11.5769 42.541 11.8367 42.8223 12.2039C43.1035 12.571 43.2441 13.0027 43.2441 13.4988C43.2441 13.8894 43.1523 14.2703 42.9688 14.6414C42.7891 15.0085 42.541 15.3035 42.2246 15.5261C41.9121 15.7449 41.5254 15.8796 41.0645 15.9304C40.7754 15.9617 40.0781 15.9812 38.9727 15.989H36.0488V7.39917ZM37.7832 8.82886V10.8152H38.9199C39.5957 10.8152 40.0156 10.8054 40.1797 10.7859C40.4766 10.7507 40.709 10.6492 40.877 10.4812C41.0488 10.3093 41.1348 10.0847 41.1348 9.80737C41.1348 9.54175 41.0605 9.3269 40.9121 9.16284C40.7676 8.99487 40.5508 8.89331 40.2617 8.85815C40.0898 8.83862 39.5957 8.82886 38.7793 8.82886H37.7832ZM37.7832 12.2449V14.5417H39.3887C40.0137 14.5417 40.4102 14.5242 40.5781 14.489C40.8359 14.4421 41.0449 14.3289 41.2051 14.1492C41.3691 13.9656 41.4512 13.7214 41.4512 13.4167C41.4512 13.1589 41.3887 12.9402 41.2637 12.7605C41.1387 12.5808 40.957 12.45 40.7188 12.3679C40.4844 12.2859 39.9727 12.2449 39.1836 12.2449H37.7832ZM44.7148 15.989V7.39917H47.498C48.5527 7.39917 49.2402 7.44214 49.5605 7.52808C50.0527 7.65698 50.4648 7.93823 50.7969 8.37183C51.1289 8.80151 51.2949 9.35815 51.2949 10.0417C51.2949 10.5691 51.1992 11.0125 51.0078 11.3718C50.8164 11.7312 50.5723 12.0144 50.2754 12.2214C49.9824 12.4246 49.6836 12.5593 49.3789 12.6257C48.9648 12.7078 48.3652 12.7488 47.5801 12.7488H46.4492V15.989H44.7148ZM46.4492 8.85229V11.2898H47.3984C48.082 11.2898 48.5391 11.2449 48.7695 11.155C49 11.0652 49.1797 10.9246 49.3086 10.7332C49.4414 10.5417 49.5078 10.3191 49.5078 10.0652C49.5078 9.75269 49.416 9.49487 49.2324 9.29175C49.0488 9.08862 48.8164 8.96167 48.5352 8.91089C48.3281 8.87183 47.9121 8.85229 47.2871 8.85229H46.4492ZM56.5684 15.989H54.9219V9.78394C54.3203 10.3464 53.6113 10.7625 52.7949 11.032V9.53784C53.2246 9.39722 53.6914 9.13159 54.1953 8.74097C54.6992 8.34644 55.0449 7.88745 55.2324 7.36401H56.5684V15.989Z" fill="white"/>
<defs>
<linearGradient id="paint0_linear_46_4335" x1="33.5" y1="1.98901" x2="33.5" y2="21.989" gradientUnits="userSpaceOnUse">
<stop stop-color="#BA6E1C"/>
<stop offset="1" stop-color="#9BA138"/>
</linearGradient>
</defs>
</svg>
