<svg width="71" height="24" viewBox="0 0 71 24" fill="none" xmlns="http://www.w3.org/2000/svg">
<rect x="1" y="1.98901" width="69" height="20" rx="10" fill="url(#paint0_linear_64_1817)"/>
<rect x="1" y="1.98901" width="69" height="20" rx="10" stroke="#6BC1D6" stroke-width="3" stroke-linejoin="round"/>
<path d="M9.00977 15.989V7.39917H11.6055L13.1641 13.2585L14.7051 7.39917H17.3066V15.989H15.6953V9.22729L13.9902 15.989H12.3203L10.6211 9.22729V15.989H9.00977ZM19.0059 15.989V7.39917H21.6016L23.1602 13.2585L24.7012 7.39917H27.3027V15.989H25.6914V9.22729L23.9863 15.989H22.3164L20.6172 9.22729V15.989H19.0059ZM36.7715 15.989H34.8848L34.1348 14.0378H30.7012L29.9922 15.989H28.1523L31.498 7.39917H33.332L36.7715 15.989ZM33.5781 12.5906L32.3945 9.40308L31.2344 12.5906H33.5781ZM37.6914 7.39917H40.8613C41.5762 7.39917 42.1211 7.45386 42.4961 7.56323C43 7.71167 43.4316 7.97534 43.791 8.35425C44.1504 8.73315 44.4238 9.198 44.6113 9.74878C44.7988 10.2957 44.8926 10.9714 44.8926 11.7761C44.8926 12.4832 44.8047 13.0925 44.6289 13.6042C44.4141 14.2292 44.1074 14.7351 43.709 15.1218C43.4082 15.4148 43.002 15.6433 42.4902 15.8074C42.1074 15.9285 41.5957 15.989 40.9551 15.989H37.6914V7.39917ZM39.4258 8.85229V14.5417H40.7207C41.2051 14.5417 41.5547 14.5144 41.7695 14.4597C42.0508 14.3894 42.2832 14.2703 42.4668 14.1023C42.6543 13.9343 42.8066 13.6589 42.9238 13.2761C43.041 12.8894 43.0996 12.364 43.0996 11.7C43.0996 11.0359 43.041 10.5261 42.9238 10.1707C42.8066 9.81519 42.6426 9.53784 42.4316 9.33862C42.2207 9.1394 41.9531 9.00464 41.6289 8.93433C41.3867 8.87964 40.9121 8.85229 40.2051 8.85229H39.4258ZM46.375 15.989V7.39917H48.1094V10.78H51.5078V7.39917H53.2422V15.989H51.5078V12.2332H48.1094V15.989H46.375ZM60.5371 12.8308L62.2188 13.364C61.9609 14.3015 61.5312 14.9988 60.9297 15.4558C60.332 15.9089 59.5723 16.1355 58.6504 16.1355C57.5098 16.1355 56.5723 15.7468 55.8379 14.9695C55.1035 14.1882 54.7363 13.1218 54.7363 11.7703C54.7363 10.3406 55.1055 9.2312 55.8438 8.44214C56.582 7.64917 57.5527 7.25269 58.7559 7.25269C59.8066 7.25269 60.6602 7.56323 61.3164 8.18433C61.707 8.55151 62 9.07886 62.1953 9.76636L60.4785 10.1765C60.377 9.7312 60.1641 9.37964 59.8398 9.12183C59.5195 8.86401 59.1289 8.73511 58.668 8.73511C58.0312 8.73511 57.5137 8.96362 57.1152 9.42065C56.7207 9.87769 56.5234 10.6179 56.5234 11.6414C56.5234 12.7273 56.7188 13.5007 57.1094 13.9617C57.5 14.4226 58.0078 14.6531 58.6328 14.6531C59.0938 14.6531 59.4902 14.5066 59.8223 14.2136C60.1543 13.9207 60.3926 13.4597 60.5371 12.8308Z" fill="white"/>
<defs>
<linearGradient id="paint0_linear_64_1817" x1="35.5" y1="1.98901" x2="35.5" y2="21.989" gradientUnits="userSpaceOnUse">
<stop stop-color="#6BC1D6"/>
<stop offset="1" stop-color="#0F0075"/>
</linearGradient>
</defs>
</svg>
