<svg width="69" height="24" viewBox="0 0 69 24" fill="none" xmlns="http://www.w3.org/2000/svg">
<rect x="1" y="1.98901" width="67" height="20" rx="10" fill="url(#paint0_linear_83_1993)"/>
<rect x="1" y="1.98901" width="67" height="20" rx="10" stroke="#059130" stroke-width="3" stroke-linejoin="round"/>
<path d="M11.2793 15.989V8.85229H8.73047V7.39917H15.5566V8.85229H13.0137V15.989H11.2793ZM16.6816 15.989V7.39917H19.4648C20.5195 7.39917 21.207 7.44214 21.5273 7.52808C22.0195 7.65698 22.4316 7.93823 22.7637 8.37183C23.0957 8.80151 23.2617 9.35815 23.2617 10.0417C23.2617 10.5691 23.166 11.0125 22.9746 11.3718C22.7832 11.7312 22.5391 12.0144 22.2422 12.2214C21.9492 12.4246 21.6504 12.5593 21.3457 12.6257C20.9316 12.7078 20.332 12.7488 19.5469 12.7488H18.416V15.989H16.6816ZM18.416 8.85229V11.2898H19.3652C20.0488 11.2898 20.5059 11.2449 20.7363 11.155C20.9668 11.0652 21.1465 10.9246 21.2754 10.7332C21.4082 10.5417 21.4746 10.3191 21.4746 10.0652C21.4746 9.75269 21.3828 9.49487 21.1992 9.29175C21.0156 9.08862 20.7832 8.96167 20.502 8.91089C20.2949 8.87183 19.8789 8.85229 19.2539 8.85229H18.416ZM24.3457 13.78L25.9863 13.6101C26.0332 13.9812 26.1719 14.2761 26.4023 14.4949C26.6328 14.7097 26.8984 14.8171 27.1992 14.8171C27.543 14.8171 27.834 14.6785 28.0723 14.4011C28.3105 14.1199 28.4297 13.698 28.4297 13.1355C28.4297 12.6082 28.3105 12.2136 28.0723 11.9519C27.8379 11.6863 27.5312 11.5535 27.1523 11.5535C26.6797 11.5535 26.2559 11.7625 25.8809 12.1804L24.5449 11.9871L25.3887 7.51636H29.7422V9.05737H26.6367L26.3789 10.5164C26.7461 10.3328 27.1211 10.241 27.5039 10.241C28.2344 10.241 28.8535 10.5066 29.3613 11.0378C29.8691 11.5691 30.123 12.2585 30.123 13.1062C30.123 13.8132 29.918 14.4441 29.5078 14.9988C28.9492 15.7566 28.1738 16.1355 27.1816 16.1355C26.3887 16.1355 25.7422 15.9226 25.2422 15.4968C24.7422 15.071 24.4434 14.4988 24.3457 13.78ZM30.9434 13.7097L32.5371 13.5164C32.5879 13.9226 32.7246 14.2332 32.9473 14.448C33.1699 14.6628 33.4395 14.7703 33.7559 14.7703C34.0957 14.7703 34.3809 14.6414 34.6113 14.3835C34.8457 14.1257 34.9629 13.7781 34.9629 13.3406C34.9629 12.9265 34.8516 12.5984 34.6289 12.3562C34.4062 12.114 34.1348 11.9929 33.8145 11.9929C33.6035 11.9929 33.3516 12.0339 33.0586 12.116L33.2402 10.7742C33.6855 10.7859 34.0254 10.6902 34.2598 10.4871C34.4941 10.28 34.6113 10.0066 34.6113 9.66675C34.6113 9.37769 34.5254 9.14722 34.3535 8.97534C34.1816 8.80347 33.9531 8.71753 33.668 8.71753C33.3867 8.71753 33.1465 8.81519 32.9473 9.0105C32.748 9.20581 32.627 9.49097 32.584 9.86597L31.0664 9.60815C31.1719 9.08862 31.3301 8.67456 31.541 8.36597C31.7559 8.05347 32.0527 7.80933 32.4316 7.63354C32.8145 7.45386 33.2422 7.36401 33.7148 7.36401C34.5234 7.36401 35.1719 7.62183 35.6602 8.13745C36.0625 8.55933 36.2637 9.03589 36.2637 9.56714C36.2637 10.321 35.8516 10.9226 35.0273 11.3718C35.5195 11.4773 35.9121 11.7136 36.2051 12.0808C36.502 12.448 36.6504 12.8914 36.6504 13.4109C36.6504 14.1648 36.375 14.8074 35.8242 15.3386C35.2734 15.8699 34.5879 16.1355 33.7676 16.1355C32.9902 16.1355 32.3457 15.9128 31.834 15.4675C31.3223 15.0183 31.0254 14.4324 30.9434 13.7097ZM38.0508 7.39917H41.4844C42.1641 7.39917 42.6699 7.42847 43.002 7.48706C43.3379 7.54175 43.6367 7.65894 43.8984 7.83862C44.1641 8.01831 44.3848 8.25854 44.5605 8.55933C44.7363 8.8562 44.8242 9.19019 44.8242 9.56128C44.8242 9.96362 44.7148 10.3328 44.4961 10.6687C44.2812 11.0046 43.9883 11.2566 43.6172 11.4246C44.1406 11.5769 44.543 11.8367 44.8242 12.2039C45.1055 12.571 45.2461 13.0027 45.2461 13.4988C45.2461 13.8894 45.1543 14.2703 44.9707 14.6414C44.791 15.0085 44.543 15.3035 44.2266 15.5261C43.9141 15.7449 43.5273 15.8796 43.0664 15.9304C42.7773 15.9617 42.0801 15.9812 40.9746 15.989H38.0508V7.39917ZM39.7852 8.82886V10.8152H40.9219C41.5977 10.8152 42.0176 10.8054 42.1816 10.7859C42.4785 10.7507 42.7109 10.6492 42.8789 10.4812C43.0508 10.3093 43.1367 10.0847 43.1367 9.80737C43.1367 9.54175 43.0625 9.3269 42.9141 9.16284C42.7695 8.99487 42.5527 8.89331 42.2637 8.85815C42.0918 8.83862 41.5977 8.82886 40.7812 8.82886H39.7852ZM39.7852 12.2449V14.5417H41.3906C42.0156 14.5417 42.4121 14.5242 42.5801 14.489C42.8379 14.4421 43.0469 14.3289 43.207 14.1492C43.3711 13.9656 43.4531 13.7214 43.4531 13.4167C43.4531 13.1589 43.3906 12.9402 43.2656 12.7605C43.1406 12.5808 42.959 12.45 42.7207 12.3679C42.4863 12.2859 41.9746 12.2449 41.1855 12.2449H39.7852ZM46.7168 15.989V7.39917H49.5C50.5547 7.39917 51.2422 7.44214 51.5625 7.52808C52.0547 7.65698 52.4668 7.93823 52.7988 8.37183C53.1309 8.80151 53.2969 9.35815 53.2969 10.0417C53.2969 10.5691 53.2012 11.0125 53.0098 11.3718C52.8184 11.7312 52.5742 12.0144 52.2773 12.2214C51.9844 12.4246 51.6855 12.5593 51.3809 12.6257C50.9668 12.7078 50.3672 12.7488 49.582 12.7488H48.4512V15.989H46.7168ZM48.4512 8.85229V11.2898H49.4004C50.084 11.2898 50.541 11.2449 50.7715 11.155C51.002 11.0652 51.1816 10.9246 51.3105 10.7332C51.4434 10.5417 51.5098 10.3191 51.5098 10.0652C51.5098 9.75269 51.418 9.49487 51.2344 9.29175C51.0508 9.08862 50.8184 8.96167 50.5371 8.91089C50.3301 8.87183 49.9141 8.85229 49.2891 8.85229H48.4512ZM58.5703 15.989H56.9238V9.78394C56.3223 10.3464 55.6133 10.7625 54.7969 11.032V9.53784C55.2266 9.39722 55.6934 9.13159 56.1973 8.74097C56.7012 8.34644 57.0469 7.88745 57.2344 7.36401H58.5703V15.989Z" fill="white"/>
<defs>
<linearGradient id="paint0_linear_83_1993" x1="34.5" y1="1.98901" x2="34.5" y2="21.989" gradientUnits="userSpaceOnUse">
<stop stop-color="#FFB95F"/>
<stop offset="1" stop-color="#059130"/>
</linearGradient>
</defs>
</svg>
