<svg width="44" height="24" viewBox="0 0 44 24" fill="none" xmlns="http://www.w3.org/2000/svg">
<rect x="2" y="1.98901" width="41" height="20" rx="10" fill="url(#paint0_linear_35_1562)"/>
<rect x="2" y="1.98901" width="41" height="20" rx="10" stroke="#7852D5" stroke-width="3" stroke-linejoin="round"/>
<path d="M10.043 7.39917H13.4766C14.1562 7.39917 14.6621 7.42847 14.9941 7.48706C15.3301 7.54175 15.6289 7.65894 15.8906 7.83862C16.1562 8.01831 16.377 8.25854 16.5527 8.55933C16.7285 8.8562 16.8164 9.19019 16.8164 9.56128C16.8164 9.96362 16.707 10.3328 16.4883 10.6687C16.2734 11.0046 15.9805 11.2566 15.6094 11.4246C16.1328 11.5769 16.5352 11.8367 16.8164 12.2039C17.0977 12.571 17.2383 13.0027 17.2383 13.4988C17.2383 13.8894 17.1465 14.2703 16.9629 14.6414C16.7832 15.0085 16.5352 15.3035 16.2188 15.5261C15.9062 15.7449 15.5195 15.8796 15.0586 15.9304C14.7695 15.9617 14.0723 15.9812 12.9668 15.989H10.043V7.39917ZM11.7773 8.82886V10.8152H12.9141C13.5898 10.8152 14.0098 10.8054 14.1738 10.7859C14.4707 10.7507 14.7031 10.6492 14.8711 10.4812C15.043 10.3093 15.1289 10.0847 15.1289 9.80737C15.1289 9.54175 15.0547 9.3269 14.9062 9.16284C14.7617 8.99487 14.5449 8.89331 14.2559 8.85815C14.084 8.83862 13.5898 8.82886 12.7734 8.82886H11.7773ZM11.7773 12.2449V14.5417H13.3828C14.0078 14.5417 14.4043 14.5242 14.5723 14.489C14.8301 14.4421 15.0391 14.3289 15.1992 14.1492C15.3633 13.9656 15.4453 13.7214 15.4453 13.4167C15.4453 13.1589 15.3828 12.9402 15.2578 12.7605C15.1328 12.5808 14.9512 12.45 14.7129 12.3679C14.4785 12.2859 13.9668 12.2449 13.1777 12.2449H11.7773ZM18.6855 15.989V7.39917H21.2812L22.8398 13.2585L24.3809 7.39917H26.9824V15.989H25.3711V9.22729L23.666 15.989H21.9961L20.2969 9.22729V15.989H18.6855ZM28.7051 15.989V7.39917H31.4883C32.543 7.39917 33.2305 7.44214 33.5508 7.52808C34.043 7.65698 34.4551 7.93823 34.7871 8.37183C35.1191 8.80151 35.2852 9.35815 35.2852 10.0417C35.2852 10.5691 35.1895 11.0125 34.998 11.3718C34.8066 11.7312 34.5625 12.0144 34.2656 12.2214C33.9727 12.4246 33.6738 12.5593 33.3691 12.6257C32.9551 12.7078 32.3555 12.7488 31.5703 12.7488H30.4395V15.989H28.7051ZM30.4395 8.85229V11.2898H31.3887C32.0723 11.2898 32.5293 11.2449 32.7598 11.155C32.9902 11.0652 33.1699 10.9246 33.2988 10.7332C33.4316 10.5417 33.498 10.3191 33.498 10.0652C33.498 9.75269 33.4062 9.49487 33.2227 9.29175C33.0391 9.08862 32.8066 8.96167 32.5254 8.91089C32.3184 8.87183 31.9023 8.85229 31.2773 8.85229H30.4395Z" fill="white"/>
<defs>
<linearGradient id="paint0_linear_35_1562" x1="22.5" y1="1.98901" x2="22.5" y2="21.989" gradientUnits="userSpaceOnUse">
<stop stop-color="#7852D5"/>
<stop offset="1" stop-color="#396303"/>
</linearGradient>
</defs>
</svg>
