<svg width="50" height="24" viewBox="0 0 50 24" fill="none" xmlns="http://www.w3.org/2000/svg">
<rect x="2" y="1.98901" width="47" height="20" rx="10" fill="url(#paint0_linear_67_1920)"/>
<rect x="2" y="1.98901" width="47" height="20" rx="10" stroke="#D09E47" stroke-width="3" stroke-linejoin="round"/>
<path d="M9.92578 13.1941L11.6133 13.03C11.7148 13.5964 11.9199 14.0125 12.2285 14.2781C12.541 14.5437 12.9609 14.6765 13.4883 14.6765C14.0469 14.6765 14.4668 14.5593 14.748 14.325C15.0332 14.0867 15.1758 13.8093 15.1758 13.4929C15.1758 13.2898 15.1152 13.1179 14.9941 12.9773C14.877 12.8328 14.6699 12.7078 14.373 12.6023C14.1699 12.532 13.707 12.407 12.9844 12.2273C12.0547 11.9968 11.4023 11.7136 11.0273 11.3777C10.5 10.905 10.2363 10.3289 10.2363 9.64917C10.2363 9.21167 10.3594 8.80347 10.6055 8.42456C10.8555 8.04175 11.2129 7.75073 11.6777 7.55151C12.1465 7.35229 12.7109 7.25269 13.3711 7.25269C14.4492 7.25269 15.2598 7.48901 15.8027 7.96167C16.3496 8.43433 16.6367 9.06519 16.6641 9.85425L14.9297 9.93042C14.8555 9.48901 14.6953 9.17261 14.4492 8.9812C14.207 8.78589 13.8418 8.68823 13.3535 8.68823C12.8496 8.68823 12.4551 8.79175 12.1699 8.99878C11.9863 9.13159 11.8945 9.30933 11.8945 9.53198C11.8945 9.73511 11.9805 9.90894 12.1523 10.0535C12.3711 10.2371 12.9023 10.4285 13.7461 10.6277C14.5898 10.8269 15.2129 11.0339 15.6152 11.2488C16.0215 11.4597 16.3379 11.7507 16.5645 12.1218C16.7949 12.489 16.9102 12.9441 16.9102 13.4871C16.9102 13.9792 16.7734 14.4402 16.5 14.8699C16.2266 15.2996 15.8398 15.6199 15.3398 15.8308C14.8398 16.0378 14.2168 16.1414 13.4707 16.1414C12.3848 16.1414 11.5508 15.8914 10.9688 15.3914C10.3867 14.8875 10.0391 14.155 9.92578 13.1941ZM18.416 15.989V7.46948H20.1504V14.5417H24.4629V15.989H18.416ZM25.7109 7.39917H29.1445C29.8242 7.39917 30.3301 7.42847 30.6621 7.48706C30.998 7.54175 31.2969 7.65894 31.5586 7.83862C31.8242 8.01831 32.0449 8.25854 32.2207 8.55933C32.3965 8.8562 32.4844 9.19019 32.4844 9.56128C32.4844 9.96362 32.375 10.3328 32.1562 10.6687C31.9414 11.0046 31.6484 11.2566 31.2773 11.4246C31.8008 11.5769 32.2031 11.8367 32.4844 12.2039C32.7656 12.571 32.9062 13.0027 32.9062 13.4988C32.9062 13.8894 32.8145 14.2703 32.6309 14.6414C32.4512 15.0085 32.2031 15.3035 31.8867 15.5261C31.5742 15.7449 31.1875 15.8796 30.7266 15.9304C30.4375 15.9617 29.7402 15.9812 28.6348 15.989H25.7109V7.39917ZM27.4453 8.82886V10.8152H28.582C29.2578 10.8152 29.6777 10.8054 29.8418 10.7859C30.1387 10.7507 30.3711 10.6492 30.5391 10.4812C30.7109 10.3093 30.7969 10.0847 30.7969 9.80737C30.7969 9.54175 30.7227 9.3269 30.5742 9.16284C30.4297 8.99487 30.2129 8.89331 29.9238 8.85815C29.752 8.83862 29.2578 8.82886 28.4414 8.82886H27.4453ZM27.4453 12.2449V14.5417H29.0508C29.6758 14.5417 30.0723 14.5242 30.2402 14.489C30.498 14.4421 30.707 14.3289 30.8672 14.1492C31.0312 13.9656 31.1133 13.7214 31.1133 13.4167C31.1133 13.1589 31.0508 12.9402 30.9258 12.7605C30.8008 12.5808 30.6191 12.45 30.3809 12.3679C30.1465 12.2859 29.6348 12.2449 28.8457 12.2449H27.4453ZM34.377 15.989V7.39917H37.1602C38.2148 7.39917 38.9023 7.44214 39.2227 7.52808C39.7148 7.65698 40.127 7.93823 40.459 8.37183C40.791 8.80151 40.957 9.35815 40.957 10.0417C40.957 10.5691 40.8613 11.0125 40.6699 11.3718C40.4785 11.7312 40.2344 12.0144 39.9375 12.2214C39.6445 12.4246 39.3457 12.5593 39.041 12.6257C38.627 12.7078 38.0273 12.7488 37.2422 12.7488H36.1113V15.989H34.377ZM36.1113 8.85229V11.2898H37.0605C37.7441 11.2898 38.2012 11.2449 38.4316 11.155C38.6621 11.0652 38.8418 10.9246 38.9707 10.7332C39.1035 10.5417 39.1699 10.3191 39.1699 10.0652C39.1699 9.75269 39.0781 9.49487 38.8945 9.29175C38.7109 9.08862 38.4785 8.96167 38.1973 8.91089C37.9902 8.87183 37.5742 8.85229 36.9492 8.85229H36.1113Z" fill="white"/>
<defs>
<linearGradient id="paint0_linear_67_1920" x1="25.5" y1="1.98901" x2="25.5" y2="21.989" gradientUnits="userSpaceOnUse">
<stop stop-color="#D09E47"/>
<stop offset="1" stop-color="#FDE744"/>
</linearGradient>
</defs>
</svg>
