<svg width="58" height="24" viewBox="0 0 58 24" fill="none" xmlns="http://www.w3.org/2000/svg">
<rect x="2" y="1.98901" width="55" height="20" rx="10" fill="url(#paint0_linear_35_1439)"/>
<rect x="2" y="1.98901" width="55" height="20" rx="10" stroke="#D63EC4" stroke-width="3" stroke-linejoin="round"/>
<path d="M17.7695 15.989H15.8828L15.1328 14.0378H11.6992L10.9902 15.989H9.15039L12.4961 7.39917H14.3301L17.7695 15.989ZM14.5762 12.5906L13.3926 9.40308L12.2324 12.5906H14.5762ZM18.2559 13.1941L19.9434 13.03C20.0449 13.5964 20.25 14.0125 20.5586 14.2781C20.8711 14.5437 21.291 14.6765 21.8184 14.6765C22.377 14.6765 22.7969 14.5593 23.0781 14.325C23.3633 14.0867 23.5059 13.8093 23.5059 13.4929C23.5059 13.2898 23.4453 13.1179 23.3242 12.9773C23.207 12.8328 23 12.7078 22.7031 12.6023C22.5 12.532 22.0371 12.407 21.3145 12.2273C20.3848 11.9968 19.7324 11.7136 19.3574 11.3777C18.8301 10.905 18.5664 10.3289 18.5664 9.64917C18.5664 9.21167 18.6895 8.80347 18.9355 8.42456C19.1855 8.04175 19.543 7.75073 20.0078 7.55151C20.4766 7.35229 21.041 7.25269 21.7012 7.25269C22.7793 7.25269 23.5898 7.48901 24.1328 7.96167C24.6797 8.43433 24.9668 9.06519 24.9941 9.85425L23.2598 9.93042C23.1855 9.48901 23.0254 9.17261 22.7793 8.9812C22.5371 8.78589 22.1719 8.68823 21.6836 8.68823C21.1797 8.68823 20.7852 8.79175 20.5 8.99878C20.3164 9.13159 20.2246 9.30933 20.2246 9.53198C20.2246 9.73511 20.3105 9.90894 20.4824 10.0535C20.7012 10.2371 21.2324 10.4285 22.0762 10.6277C22.9199 10.8269 23.543 11.0339 23.9453 11.2488C24.3516 11.4597 24.668 11.7507 24.8945 12.1218C25.125 12.489 25.2402 12.9441 25.2402 13.4871C25.2402 13.9792 25.1035 14.4402 24.8301 14.8699C24.5566 15.2996 24.1699 15.6199 23.6699 15.8308C23.1699 16.0378 22.5469 16.1414 21.8008 16.1414C20.7148 16.1414 19.8809 15.8914 19.2988 15.3914C18.7168 14.8875 18.3691 14.155 18.2559 13.1941ZM26.7168 15.989V7.39917H28.4043L31.9199 13.1355V7.39917H33.5312V15.989H31.791L28.3281 10.3875V15.989H26.7168ZM43.1172 15.989H41.2305L40.4805 14.0378H37.0469L36.3379 15.989H34.498L37.8438 7.39917H39.6777L43.1172 15.989ZM39.9238 12.5906L38.7402 9.40308L37.5801 12.5906H39.9238ZM47.8926 15.989H46.2461V9.78394C45.6445 10.3464 44.9355 10.7625 44.1191 11.032V9.53784C44.5488 9.39722 45.0156 9.13159 45.5195 8.74097C46.0234 8.34644 46.3691 7.88745 46.5566 7.36401H47.8926V15.989Z" fill="white"/>
<defs>
<linearGradient id="paint0_linear_35_1439" x1="29.5" y1="1.98901" x2="29.5" y2="21.989" gradientUnits="userSpaceOnUse">
<stop stop-color="#D63EC4"/>
<stop offset="1" stop-color="#9EB8C2"/>
</linearGradient>
</defs>
</svg>
