<svg width="51" height="24" viewBox="0 0 51 24" fill="none" xmlns="http://www.w3.org/2000/svg">
<path d="M25.2571 23.8271C39.0642 23.8271 50.2571 18.6426 50.2571 12.2473C50.2571 5.85193 39.0642 0.66748 25.2571 0.66748C11.45 0.66748 0.25708 5.85193 0.25708 12.2473C0.25708 18.6426 11.45 23.8271 25.2571 23.8271Z" fill="url(#paint0_radial_90_4336)"/>
<mask id="mask0_90_4336" style="mask-type:alpha" maskUnits="userSpaceOnUse" x="0" y="0" width="30" height="24">
<path d="M24.2571 0.794189C10.4499 0.794189 0.25708 5.66677 0.25708 12.2942C0.25708 17.9288 7.84779 22.0043 18.7571 23.2942C27.2571 24.2853 34.2571 0.794189 24.2571 0.794189Z" fill="black"/>
</mask>
<g mask="url(#mask0_90_4336)">
<path d="M25.2571 23.8271C39.0642 23.8271 50.2571 18.6426 50.2571 12.2473C50.2571 5.85193 39.0642 0.66748 25.2571 0.66748C11.45 0.66748 0.25708 5.85193 0.25708 12.2473C0.25708 18.6426 11.45 23.8271 25.2571 23.8271Z" fill="url(#paint1_radial_90_4336)"/>
</g>
<defs>
<radialGradient id="paint0_radial_90_4336" cx="0" cy="0" r="1" gradientUnits="userSpaceOnUse" gradientTransform="translate(20.1784 9.09518) rotate(-90) scale(16.8054 24.63)">
<stop stop-color="#C9E3CC"/>
<stop offset="0.0908" stop-color="#ADCCAE"/>
<stop offset="0.2449" stop-color="#85AD83"/>
<stop offset="0.4" stop-color="#619663"/>
<stop offset="0.5538" stop-color="#44874D"/>
<stop offset="0.706" stop-color="#2D7C40"/>
<stop offset="0.8556" stop-color="#1B773A"/>
<stop offset="1" stop-color="#137538"/>
</radialGradient>
<radialGradient id="paint1_radial_90_4336" cx="0" cy="0" r="1" gradientUnits="userSpaceOnUse" gradientTransform="translate(20.1784 9.09518) rotate(-90) scale(16.8054 24.63)">
<stop stop-color="#F6B7BB"/>
<stop offset="0.0053" stop-color="#F5B5B8"/>
<stop offset="0.1495" stop-color="#D2837D"/>
<stop offset="0.2953" stop-color="#B65C52"/>
<stop offset="0.4402" stop-color="#A04035"/>
<stop offset="0.5837" stop-color="#902D22"/>
<stop offset="0.7257" stop-color="#852118"/>
<stop offset="0.8653" stop-color="#7F1A13"/>
<stop offset="1" stop-color="#7D1711"/>
</radialGradient>
</defs>
</svg>
