<svg width="66" height="32" viewBox="0 0 66 32" fill="none" xmlns="http://www.w3.org/2000/svg">
<mask id="path-1-outside-1_86_2971" maskUnits="userSpaceOnUse" x="-0.472168" y="0.0720215" width="66" height="32" fill="black">
<rect fill="white" x="-0.472168" y="0.0720215" width="66" height="32"/>
<path d="M47.5727 29.3993C46.4008 29.3993 45.8579 28.4179 45.5327 27.8319C45.4302 27.6473 45.2583 27.3368 45.1684 27.2733C44.9067 27.2958 44.7846 27.3602 44.5424 27.4872C44.2035 27.6649 43.7406 27.9091 42.9106 27.9091C41.9487 27.9091 41.4272 27.4462 41.0815 27.1405C40.8208 26.9081 40.77 26.8749 40.5795 26.8749C39.5082 26.8749 38.9545 26.1649 38.6244 25.7401C38.4916 25.5702 38.4144 25.4794 38.3617 25.4305C38.2445 25.6287 38.1029 25.9881 38.0111 26.2225C37.6595 27.1141 37.1791 28.3348 35.9154 28.3348C35.6136 28.3348 35.5131 28.3963 35.2709 28.5448C34.9232 28.7577 34.4477 29.0497 33.5824 29.0497C32.7582 29.0497 32.2972 28.8134 31.9603 28.6415C31.7152 28.5165 31.5916 28.453 31.2494 28.453C30.4384 28.453 29.9828 28.2333 29.6498 28.0721C29.3993 27.951 29.2738 27.8905 28.9203 27.8905C28.6913 27.8905 28.6259 27.9432 28.3832 28.1395C28.0414 28.4159 27.5253 28.8338 26.5883 28.8338C25.2699 28.8338 24.8246 27.4119 24.4667 26.2693C24.3568 25.9197 24.185 25.3699 24.0429 25.114C23.7963 25.1335 23.6586 25.1882 23.457 25.2693C23.1176 25.4041 22.6948 25.573 21.9189 25.573C21.7866 25.573 21.7529 25.5818 21.4731 25.8748C21.1445 26.2176 20.5937 26.7928 19.583 26.7928C18.6558 26.7928 18.1411 26.3934 17.8003 26.1287C17.5527 25.9363 17.4858 25.8846 17.2437 25.8846C16.1666 25.8846 15.6128 25.1649 15.2818 24.7342C15.1978 24.6248 15.1358 24.5477 15.088 24.494C14.9181 24.7567 14.7057 25.1551 14.5611 25.4256C13.9708 26.533 13.4605 27.4891 12.5103 27.4891H12.397L12.2334 27.4579C11.1382 27.2069 11.0386 25.952 10.9424 24.7391C10.917 24.4207 10.8779 23.9266 10.8198 23.6639L10.7651 23.6375C10.3042 23.4187 9.9609 23.2557 9.455 22.867C9.2641 22.8826 8.9911 22.9481 8.747 23.0066C8.3447 23.1033 7.9291 23.2029 7.5297 23.2029C6.849 23.2029 6.4662 22.9031 6.2651 22.6521C6.1357 22.49 5.9936 22.3308 5.851 22.1697C5.4692 21.74 5.0365 21.2527 4.747 20.656C4.6591 20.4753 4.5585 20.2908 4.4565 20.1023C4.1699 19.575 3.8457 18.9773 3.6948 18.3211C3.6513 18.1307 3.5234 17.8553 3.3999 17.5887C3.1494 17.0477 2.8657 16.4344 2.8657 15.7616V14.7616H3.2002C2.769 14.2289 2.4072 13.6342 2.5659 12.9432C2.7192 12.2757 3.1953 11.7254 3.6152 11.2396C3.8198 11.0023 4.0522 10.7337 4.1318 10.5692C4.5605 9.68642 5.6391 9.68642 6.1577 9.68642C6.3296 9.68642 6.5088 9.69132 6.688 9.69622C6.8486 9.70052 7.1767 9.70492 7.1835 9.70492C7.0717 9.38072 6.9096 8.98182 6.7944 8.69812C6.2211 7.28792 5.726 6.06972 6.6074 5.36462C7.2695 4.83532 8.435 4.14102 9.1347 3.80112L9.3417 3.70052L9.6527 3.68242C10.4818 3.68242 11.0643 4.41042 12.1996 5.92462C12.4335 6.23612 12.7616 6.67462 13.0399 7.00812C13.0609 6.95932 13.0809 6.91292 13.0985 6.87242C13.4144 6.13662 13.8475 5.12872 14.9042 5.12872C14.9516 5.08872 15.1181 4.81672 15.2172 4.65412C15.5448 4.11942 16.0927 3.22392 17.2362 3.22392C17.5902 3.22392 17.7162 3.16342 17.9667 3.04232C18.2992 2.88212 18.7548 2.66292 19.5658 2.66292C20.9022 2.66292 21.3226 4.12732 21.6932 5.41972C21.742 5.59012 21.8031 5.80252 21.8685 6.01252C21.953 5.71662 22.0321 5.40122 22.0931 5.15702C22.473 3.64042 22.8656 2.07202 24.2288 2.07202C25.5838 2.07202 25.9974 3.64962 26.3626 5.04172C26.4695 5.44892 26.6321 6.07002 26.7815 6.42062C26.8313 6.37422 26.8962 6.30592 26.988 6.20532C27.301 5.86152 27.8147 5.29712 28.7458 5.24292C28.8669 5.06962 29.029 4.66382 29.1311 4.40792C29.4636 3.57642 29.9656 2.32002 31.2258 2.32002C32.6037 2.32002 32.9743 3.91962 33.3664 5.61352C33.4875 6.13502 33.6765 6.95242 33.8478 7.33762C34.006 7.31032 34.1164 7.25612 34.2824 7.17452C34.5939 7.02172 35.0138 6.81562 35.7326 6.78922C35.8556 6.60662 36.0187 6.18572 36.1213 5.92012C36.4719 5.01532 36.9524 3.77652 38.2199 3.77652C38.6213 3.77652 38.7853 3.71452 39.0334 3.62072C39.3703 3.49372 39.7883 3.33602 40.5549 3.33602C41.7278 3.33602 42.2717 4.31792 42.5969 4.90482C42.6994 5.09082 42.8723 5.40192 42.9621 5.46582C42.9777 5.46532 42.9924 5.46532 43.007 5.46532C43.9943 5.46532 44.5363 6.19722 44.8615 6.63722C45.0871 6.94192 45.1613 7.02052 45.2248 7.02052C45.7404 7.02052 45.9797 6.98732 46.256 6.94822C46.5626 6.90522 46.9103 6.85692 47.5646 6.85692C47.6085 6.81592 47.7775 6.53612 47.8781 6.36912C48.2052 5.82422 48.7541 4.91212 49.9045 4.91212C50.6897 4.91212 51.3733 5.07272 52.0354 5.22802L52.1184 5.24752C52.3518 5.12052 52.7913 4.76462 53.0676 4.54052C53.8469 3.90922 54.5197 3.36422 55.2414 3.36422C55.4475 3.36422 55.6428 3.40812 55.8215 3.49512C56.7307 3.93652 56.7395 5.06742 56.7483 6.26462C56.7512 6.58642 56.7551 7.08832 56.7952 7.35302C56.9475 7.41452 57.179 7.47702 57.347 7.52242C57.9144 7.67472 58.6195 7.86522 59.0804 8.44092C59.6175 9.11232 59.4486 9.96042 59.3128 10.6421C59.2864 10.7715 59.2503 10.9531 59.2298 11.104C59.5589 11.1768 60.0784 11.2422 60.4251 11.2856C61.8704 11.4668 63.1185 11.6235 63.3616 12.687C63.555 13.5264 62.9368 14.1343 62.0901 14.7612H62.4339V15.7612C62.4339 15.9414 62.5648 16.3486 62.6693 16.6753C62.891 17.3648 63.1205 18.0776 62.9672 18.7456C62.7631 19.6333 61.8559 20.019 60.9789 20.3921C60.7182 20.5034 60.2963 20.6821 60.141 20.7954C59.7728 21.5552 59.3978 22.3149 58.8988 22.938C58.7523 23.1206 58.4174 23.4273 57.8158 23.4273C57.2455 23.4273 56.5873 23.1441 55.89 22.8433C55.7826 22.7974 55.6537 22.7417 55.5199 22.6861C55.6254 23.106 55.765 23.5865 55.8676 23.941C56.4614 25.9918 56.853 27.3472 55.7494 27.8814C55.5824 27.9625 55.4008 28.0035 55.2103 28.0035C54.4046 28.0035 53.7406 27.2838 52.8226 26.2867C52.516 25.9537 52.0277 25.4234 51.765 25.2242C51.7318 25.2262 51.6996 25.2271 51.6673 25.2271C51.0286 25.2271 50.5716 24.8814 50.2376 24.6285C50.2073 24.606 50.1722 24.5797 50.137 24.5533C49.9817 24.9683 49.8196 25.6637 49.7122 26.1256C49.3198 27.8094 48.9496 29.3993 47.5727 29.3993Z"/>
</mask>
<path d="M47.5727 29.3993C46.4008 29.3993 45.8579 28.4179 45.5327 27.8319C45.4302 27.6473 45.2583 27.3368 45.1684 27.2733C44.9067 27.2958 44.7846 27.3602 44.5424 27.4872C44.2035 27.6649 43.7406 27.9091 42.9106 27.9091C41.9487 27.9091 41.4272 27.4462 41.0815 27.1405C40.8208 26.9081 40.77 26.8749 40.5795 26.8749C39.5082 26.8749 38.9545 26.1649 38.6244 25.7401C38.4916 25.5702 38.4144 25.4794 38.3617 25.4305C38.2445 25.6287 38.1029 25.9881 38.0111 26.2225C37.6595 27.1141 37.1791 28.3348 35.9154 28.3348C35.6136 28.3348 35.5131 28.3963 35.2709 28.5448C34.9232 28.7577 34.4477 29.0497 33.5824 29.0497C32.7582 29.0497 32.2972 28.8134 31.9603 28.6415C31.7152 28.5165 31.5916 28.453 31.2494 28.453C30.4384 28.453 29.9828 28.2333 29.6498 28.0721C29.3993 27.951 29.2738 27.8905 28.9203 27.8905C28.6913 27.8905 28.6259 27.9432 28.3832 28.1395C28.0414 28.4159 27.5253 28.8338 26.5883 28.8338C25.2699 28.8338 24.8246 27.4119 24.4667 26.2693C24.3568 25.9197 24.185 25.3699 24.0429 25.114C23.7963 25.1335 23.6586 25.1882 23.457 25.2693C23.1176 25.4041 22.6948 25.573 21.9189 25.573C21.7866 25.573 21.7529 25.5818 21.4731 25.8748C21.1445 26.2176 20.5937 26.7928 19.583 26.7928C18.6558 26.7928 18.1411 26.3934 17.8003 26.1287C17.5527 25.9363 17.4858 25.8846 17.2437 25.8846C16.1666 25.8846 15.6128 25.1649 15.2818 24.7342C15.1978 24.6248 15.1358 24.5477 15.088 24.494C14.9181 24.7567 14.7057 25.1551 14.5611 25.4256C13.9708 26.533 13.4605 27.4891 12.5103 27.4891H12.397L12.2334 27.4579C11.1382 27.2069 11.0386 25.952 10.9424 24.7391C10.917 24.4207 10.8779 23.9266 10.8198 23.6639L10.7651 23.6375C10.3042 23.4187 9.9609 23.2557 9.455 22.867C9.2641 22.8826 8.9911 22.9481 8.747 23.0066C8.3447 23.1033 7.9291 23.2029 7.5297 23.2029C6.849 23.2029 6.4662 22.9031 6.2651 22.6521C6.1357 22.49 5.9936 22.3308 5.851 22.1697C5.4692 21.74 5.0365 21.2527 4.747 20.656C4.6591 20.4753 4.5585 20.2908 4.4565 20.1023C4.1699 19.575 3.8457 18.9773 3.6948 18.3211C3.6513 18.1307 3.5234 17.8553 3.3999 17.5887C3.1494 17.0477 2.8657 16.4344 2.8657 15.7616V14.7616H3.2002C2.769 14.2289 2.4072 13.6342 2.5659 12.9432C2.7192 12.2757 3.1953 11.7254 3.6152 11.2396C3.8198 11.0023 4.0522 10.7337 4.1318 10.5692C4.5605 9.68642 5.6391 9.68642 6.1577 9.68642C6.3296 9.68642 6.5088 9.69132 6.688 9.69622C6.8486 9.70052 7.1767 9.70492 7.1835 9.70492C7.0717 9.38072 6.9096 8.98182 6.7944 8.69812C6.2211 7.28792 5.726 6.06972 6.6074 5.36462C7.2695 4.83532 8.435 4.14102 9.1347 3.80112L9.3417 3.70052L9.6527 3.68242C10.4818 3.68242 11.0643 4.41042 12.1996 5.92462C12.4335 6.23612 12.7616 6.67462 13.0399 7.00812C13.0609 6.95932 13.0809 6.91292 13.0985 6.87242C13.4144 6.13662 13.8475 5.12872 14.9042 5.12872C14.9516 5.08872 15.1181 4.81672 15.2172 4.65412C15.5448 4.11942 16.0927 3.22392 17.2362 3.22392C17.5902 3.22392 17.7162 3.16342 17.9667 3.04232C18.2992 2.88212 18.7548 2.66292 19.5658 2.66292C20.9022 2.66292 21.3226 4.12732 21.6932 5.41972C21.742 5.59012 21.8031 5.80252 21.8685 6.01252C21.953 5.71662 22.0321 5.40122 22.0931 5.15702C22.473 3.64042 22.8656 2.07202 24.2288 2.07202C25.5838 2.07202 25.9974 3.64962 26.3626 5.04172C26.4695 5.44892 26.6321 6.07002 26.7815 6.42062C26.8313 6.37422 26.8962 6.30592 26.988 6.20532C27.301 5.86152 27.8147 5.29712 28.7458 5.24292C28.8669 5.06962 29.029 4.66382 29.1311 4.40792C29.4636 3.57642 29.9656 2.32002 31.2258 2.32002C32.6037 2.32002 32.9743 3.91962 33.3664 5.61352C33.4875 6.13502 33.6765 6.95242 33.8478 7.33762C34.006 7.31032 34.1164 7.25612 34.2824 7.17452C34.5939 7.02172 35.0138 6.81562 35.7326 6.78922C35.8556 6.60662 36.0187 6.18572 36.1213 5.92012C36.4719 5.01532 36.9524 3.77652 38.2199 3.77652C38.6213 3.77652 38.7853 3.71452 39.0334 3.62072C39.3703 3.49372 39.7883 3.33602 40.5549 3.33602C41.7278 3.33602 42.2717 4.31792 42.5969 4.90482C42.6994 5.09082 42.8723 5.40192 42.9621 5.46582C42.9777 5.46532 42.9924 5.46532 43.007 5.46532C43.9943 5.46532 44.5363 6.19722 44.8615 6.63722C45.0871 6.94192 45.1613 7.02052 45.2248 7.02052C45.7404 7.02052 45.9797 6.98732 46.256 6.94822C46.5626 6.90522 46.9103 6.85692 47.5646 6.85692C47.6085 6.81592 47.7775 6.53612 47.8781 6.36912C48.2052 5.82422 48.7541 4.91212 49.9045 4.91212C50.6897 4.91212 51.3733 5.07272 52.0354 5.22802L52.1184 5.24752C52.3518 5.12052 52.7913 4.76462 53.0676 4.54052C53.8469 3.90922 54.5197 3.36422 55.2414 3.36422C55.4475 3.36422 55.6428 3.40812 55.8215 3.49512C56.7307 3.93652 56.7395 5.06742 56.7483 6.26462C56.7512 6.58642 56.7551 7.08832 56.7952 7.35302C56.9475 7.41452 57.179 7.47702 57.347 7.52242C57.9144 7.67472 58.6195 7.86522 59.0804 8.44092C59.6175 9.11232 59.4486 9.96042 59.3128 10.6421C59.2864 10.7715 59.2503 10.9531 59.2298 11.104C59.5589 11.1768 60.0784 11.2422 60.4251 11.2856C61.8704 11.4668 63.1185 11.6235 63.3616 12.687C63.555 13.5264 62.9368 14.1343 62.0901 14.7612H62.4339V15.7612C62.4339 15.9414 62.5648 16.3486 62.6693 16.6753C62.891 17.3648 63.1205 18.0776 62.9672 18.7456C62.7631 19.6333 61.8559 20.019 60.9789 20.3921C60.7182 20.5034 60.2963 20.6821 60.141 20.7954C59.7728 21.5552 59.3978 22.3149 58.8988 22.938C58.7523 23.1206 58.4174 23.4273 57.8158 23.4273C57.2455 23.4273 56.5873 23.1441 55.89 22.8433C55.7826 22.7974 55.6537 22.7417 55.5199 22.6861C55.6254 23.106 55.765 23.5865 55.8676 23.941C56.4614 25.9918 56.853 27.3472 55.7494 27.8814C55.5824 27.9625 55.4008 28.0035 55.2103 28.0035C54.4046 28.0035 53.7406 27.2838 52.8226 26.2867C52.516 25.9537 52.0277 25.4234 51.765 25.2242C51.7318 25.2262 51.6996 25.2271 51.6673 25.2271C51.0286 25.2271 50.5716 24.8814 50.2376 24.6285C50.2073 24.606 50.1722 24.5797 50.137 24.5533C49.9817 24.9683 49.8196 25.6637 49.7122 26.1256C49.3198 27.8094 48.9496 29.3993 47.5727 29.3993Z" fill="#E0A734"/>
<path d="M47.5727 29.3993C46.4008 29.3993 45.8579 28.4179 45.5327 27.8319C45.4302 27.6473 45.2583 27.3368 45.1684 27.2733C44.9067 27.2958 44.7846 27.3602 44.5424 27.4872C44.2035 27.6649 43.7406 27.9091 42.9106 27.9091C41.9487 27.9091 41.4272 27.4462 41.0815 27.1405C40.8208 26.9081 40.77 26.8749 40.5795 26.8749C39.5082 26.8749 38.9545 26.1649 38.6244 25.7401C38.4916 25.5702 38.4144 25.4794 38.3617 25.4305C38.2445 25.6287 38.1029 25.9881 38.0111 26.2225C37.6595 27.1141 37.1791 28.3348 35.9154 28.3348C35.6136 28.3348 35.5131 28.3963 35.2709 28.5448C34.9232 28.7577 34.4477 29.0497 33.5824 29.0497C32.7582 29.0497 32.2972 28.8134 31.9603 28.6415C31.7152 28.5165 31.5916 28.453 31.2494 28.453C30.4384 28.453 29.9828 28.2333 29.6498 28.0721C29.3993 27.951 29.2738 27.8905 28.9203 27.8905C28.6913 27.8905 28.6259 27.9432 28.3832 28.1395C28.0414 28.4159 27.5253 28.8338 26.5883 28.8338C25.2699 28.8338 24.8246 27.4119 24.4667 26.2693C24.3568 25.9197 24.185 25.3699 24.0429 25.114C23.7963 25.1335 23.6586 25.1882 23.457 25.2693C23.1176 25.4041 22.6948 25.573 21.9189 25.573C21.7866 25.573 21.7529 25.5818 21.4731 25.8748C21.1445 26.2176 20.5937 26.7928 19.583 26.7928C18.6558 26.7928 18.1411 26.3934 17.8003 26.1287C17.5527 25.9363 17.4858 25.8846 17.2437 25.8846C16.1666 25.8846 15.6128 25.1649 15.2818 24.7342C15.1978 24.6248 15.1358 24.5477 15.088 24.494C14.9181 24.7567 14.7057 25.1551 14.5611 25.4256C13.9708 26.533 13.4605 27.4891 12.5103 27.4891H12.397L12.2334 27.4579C11.1382 27.2069 11.0386 25.952 10.9424 24.7391C10.917 24.4207 10.8779 23.9266 10.8198 23.6639L10.7651 23.6375C10.3042 23.4187 9.9609 23.2557 9.455 22.867C9.2641 22.8826 8.9911 22.9481 8.747 23.0066C8.3447 23.1033 7.9291 23.2029 7.5297 23.2029C6.849 23.2029 6.4662 22.9031 6.2651 22.6521C6.1357 22.49 5.9936 22.3308 5.851 22.1697C5.4692 21.74 5.0365 21.2527 4.747 20.656C4.6591 20.4753 4.5585 20.2908 4.4565 20.1023C4.1699 19.575 3.8457 18.9773 3.6948 18.3211C3.6513 18.1307 3.5234 17.8553 3.3999 17.5887C3.1494 17.0477 2.8657 16.4344 2.8657 15.7616V14.7616H3.2002C2.769 14.2289 2.4072 13.6342 2.5659 12.9432C2.7192 12.2757 3.1953 11.7254 3.6152 11.2396C3.8198 11.0023 4.0522 10.7337 4.1318 10.5692C4.5605 9.68642 5.6391 9.68642 6.1577 9.68642C6.3296 9.68642 6.5088 9.69132 6.688 9.69622C6.8486 9.70052 7.1767 9.70492 7.1835 9.70492C7.0717 9.38072 6.9096 8.98182 6.7944 8.69812C6.2211 7.28792 5.726 6.06972 6.6074 5.36462C7.2695 4.83532 8.435 4.14102 9.1347 3.80112L9.3417 3.70052L9.6527 3.68242C10.4818 3.68242 11.0643 4.41042 12.1996 5.92462C12.4335 6.23612 12.7616 6.67462 13.0399 7.00812C13.0609 6.95932 13.0809 6.91292 13.0985 6.87242C13.4144 6.13662 13.8475 5.12872 14.9042 5.12872C14.9516 5.08872 15.1181 4.81672 15.2172 4.65412C15.5448 4.11942 16.0927 3.22392 17.2362 3.22392C17.5902 3.22392 17.7162 3.16342 17.9667 3.04232C18.2992 2.88212 18.7548 2.66292 19.5658 2.66292C20.9022 2.66292 21.3226 4.12732 21.6932 5.41972C21.742 5.59012 21.8031 5.80252 21.8685 6.01252C21.953 5.71662 22.0321 5.40122 22.0931 5.15702C22.473 3.64042 22.8656 2.07202 24.2288 2.07202C25.5838 2.07202 25.9974 3.64962 26.3626 5.04172C26.4695 5.44892 26.6321 6.07002 26.7815 6.42062C26.8313 6.37422 26.8962 6.30592 26.988 6.20532C27.301 5.86152 27.8147 5.29712 28.7458 5.24292C28.8669 5.06962 29.029 4.66382 29.1311 4.40792C29.4636 3.57642 29.9656 2.32002 31.2258 2.32002C32.6037 2.32002 32.9743 3.91962 33.3664 5.61352C33.4875 6.13502 33.6765 6.95242 33.8478 7.33762C34.006 7.31032 34.1164 7.25612 34.2824 7.17452C34.5939 7.02172 35.0138 6.81562 35.7326 6.78922C35.8556 6.60662 36.0187 6.18572 36.1213 5.92012C36.4719 5.01532 36.9524 3.77652 38.2199 3.77652C38.6213 3.77652 38.7853 3.71452 39.0334 3.62072C39.3703 3.49372 39.7883 3.33602 40.5549 3.33602C41.7278 3.33602 42.2717 4.31792 42.5969 4.90482C42.6994 5.09082 42.8723 5.40192 42.9621 5.46582C42.9777 5.46532 42.9924 5.46532 43.007 5.46532C43.9943 5.46532 44.5363 6.19722 44.8615 6.63722C45.0871 6.94192 45.1613 7.02052 45.2248 7.02052C45.7404 7.02052 45.9797 6.98732 46.256 6.94822C46.5626 6.90522 46.9103 6.85692 47.5646 6.85692C47.6085 6.81592 47.7775 6.53612 47.8781 6.36912C48.2052 5.82422 48.7541 4.91212 49.9045 4.91212C50.6897 4.91212 51.3733 5.07272 52.0354 5.22802L52.1184 5.24752C52.3518 5.12052 52.7913 4.76462 53.0676 4.54052C53.8469 3.90922 54.5197 3.36422 55.2414 3.36422C55.4475 3.36422 55.6428 3.40812 55.8215 3.49512C56.7307 3.93652 56.7395 5.06742 56.7483 6.26462C56.7512 6.58642 56.7551 7.08832 56.7952 7.35302C56.9475 7.41452 57.179 7.47702 57.347 7.52242C57.9144 7.67472 58.6195 7.86522 59.0804 8.44092C59.6175 9.11232 59.4486 9.96042 59.3128 10.6421C59.2864 10.7715 59.2503 10.9531 59.2298 11.104C59.5589 11.1768 60.0784 11.2422 60.4251 11.2856C61.8704 11.4668 63.1185 11.6235 63.3616 12.687C63.555 13.5264 62.9368 14.1343 62.0901 14.7612H62.4339V15.7612C62.4339 15.9414 62.5648 16.3486 62.6693 16.6753C62.891 17.3648 63.1205 18.0776 62.9672 18.7456C62.7631 19.6333 61.8559 20.019 60.9789 20.3921C60.7182 20.5034 60.2963 20.6821 60.141 20.7954C59.7728 21.5552 59.3978 22.3149 58.8988 22.938C58.7523 23.1206 58.4174 23.4273 57.8158 23.4273C57.2455 23.4273 56.5873 23.1441 55.89 22.8433C55.7826 22.7974 55.6537 22.7417 55.5199 22.6861C55.6254 23.106 55.765 23.5865 55.8676 23.941C56.4614 25.9918 56.853 27.3472 55.7494 27.8814C55.5824 27.9625 55.4008 28.0035 55.2103 28.0035C54.4046 28.0035 53.7406 27.2838 52.8226 26.2867C52.516 25.9537 52.0277 25.4234 51.765 25.2242C51.7318 25.2262 51.6996 25.2271 51.6673 25.2271C51.0286 25.2271 50.5716 24.8814 50.2376 24.6285C50.2073 24.606 50.1722 24.5797 50.137 24.5533C49.9817 24.9683 49.8196 25.6637 49.7122 26.1256C49.3198 27.8094 48.9496 29.3993 47.5727 29.3993Z" stroke="#997D0B" stroke-width="4" mask="url(#path-1-outside-1_86_2971)"/>
</svg>
