<svg width="49" height="24" viewBox="0 0 49 24" fill="none" xmlns="http://www.w3.org/2000/svg">
<rect x="2" y="1.98901" width="46" height="20" rx="10" fill="url(#paint0_linear_40_2553)"/>
<rect x="2" y="1.98901" width="46" height="20" rx="10" stroke="#2EB8B6" stroke-width="3" stroke-linejoin="round"/>
<path d="M15.6895 12.8308L17.3711 13.364C17.1133 14.3015 16.6836 14.9988 16.082 15.4558C15.4844 15.9089 14.7246 16.1355 13.8027 16.1355C12.6621 16.1355 11.7246 15.7468 10.9902 14.9695C10.2559 14.1882 9.88867 13.1218 9.88867 11.7703C9.88867 10.3406 10.2578 9.2312 10.9961 8.44214C11.7344 7.64917 12.7051 7.25269 13.9082 7.25269C14.959 7.25269 15.8125 7.56323 16.4688 8.18433C16.8594 8.55151 17.1523 9.07886 17.3477 9.76636L15.6309 10.1765C15.5293 9.7312 15.3164 9.37964 14.9922 9.12183C14.6719 8.86401 14.2812 8.73511 13.8203 8.73511C13.1836 8.73511 12.666 8.96362 12.2676 9.42065C11.873 9.87769 11.6758 10.6179 11.6758 11.6414C11.6758 12.7273 11.8711 13.5007 12.2617 13.9617C12.6523 14.4226 13.1602 14.6531 13.7852 14.6531C14.2461 14.6531 14.6426 14.5066 14.9746 14.2136C15.3066 13.9207 15.5449 13.4597 15.6895 12.8308ZM20.7988 15.989V8.85229H18.25V7.39917H25.0762V8.85229H22.5332V15.989H20.7988ZM26.1895 7.39917H27.9238V12.0515C27.9238 12.7898 27.9453 13.2683 27.9883 13.4871C28.0625 13.8386 28.2383 14.1218 28.5156 14.3367C28.7969 14.5476 29.1797 14.6531 29.6641 14.6531C30.1562 14.6531 30.5273 14.5535 30.7773 14.3542C31.0273 14.1511 31.1777 13.9031 31.2285 13.6101C31.2793 13.3171 31.3047 12.8308 31.3047 12.1511V7.39917H33.0391V11.9109C33.0391 12.9421 32.9922 13.6707 32.8984 14.0964C32.8047 14.5222 32.6309 14.8816 32.377 15.1746C32.127 15.4675 31.791 15.7019 31.3691 15.8777C30.9473 16.0496 30.3965 16.1355 29.7168 16.1355C28.8965 16.1355 28.2734 16.0417 27.8477 15.8542C27.4258 15.6628 27.0918 15.4167 26.8457 15.116C26.5996 14.8113 26.4375 14.4929 26.3594 14.1609C26.2461 13.6687 26.1895 12.9421 26.1895 11.9812V7.39917ZM40.0703 14.4597V15.989H34.2988C34.3613 15.4109 34.5488 14.864 34.8613 14.3484C35.1738 13.8289 35.791 13.1414 36.7129 12.2859C37.4551 11.5945 37.9102 11.1257 38.0781 10.8796C38.3047 10.5398 38.418 10.2039 38.418 9.87183C38.418 9.50464 38.3184 9.22339 38.1191 9.02808C37.9238 8.82886 37.6523 8.72925 37.3047 8.72925C36.9609 8.72925 36.6875 8.83276 36.4844 9.03979C36.2812 9.24683 36.1641 9.59058 36.1328 10.071L34.4922 9.90698C34.5898 9.00073 34.8965 8.35034 35.4121 7.95581C35.9277 7.56128 36.5723 7.36401 37.3457 7.36401C38.1934 7.36401 38.8594 7.59253 39.3438 8.04956C39.8281 8.50659 40.0703 9.07495 40.0703 9.75464C40.0703 10.1414 40 10.5105 39.8594 10.8621C39.7227 11.2097 39.5039 11.575 39.2031 11.9578C39.0039 12.2117 38.6445 12.5769 38.125 13.0535C37.6055 13.53 37.2754 13.8464 37.1348 14.0027C36.998 14.1589 36.8867 14.3113 36.8008 14.4597H40.0703Z" fill="white"/>
<defs>
<linearGradient id="paint0_linear_40_2553" x1="25" y1="1.98901" x2="25" y2="21.989" gradientUnits="userSpaceOnUse">
<stop stop-color="#2EB8B6"/>
<stop offset="1" stop-color="#EA508F"/>
</linearGradient>
</defs>
</svg>
