<svg width="67" height="24" viewBox="0 0 67 24" fill="none" xmlns="http://www.w3.org/2000/svg">
<rect x="1" y="1.98901" width="65" height="20" rx="10" fill="url(#paint0_linear_40_2562)"/>
<rect x="1" y="1.98901" width="65" height="20" rx="10" stroke="#1C3DA3" stroke-width="3" stroke-linejoin="round"/>
<path d="M9.35352 7.39917H12.5234C13.2383 7.39917 13.7832 7.45386 14.1582 7.56323C14.6621 7.71167 15.0938 7.97534 15.4531 8.35425C15.8125 8.73315 16.0859 9.198 16.2734 9.74878C16.4609 10.2957 16.5547 10.9714 16.5547 11.7761C16.5547 12.4832 16.4668 13.0925 16.291 13.6042C16.0762 14.2292 15.7695 14.7351 15.3711 15.1218C15.0703 15.4148 14.6641 15.6433 14.1523 15.8074C13.7695 15.9285 13.2578 15.989 12.6172 15.989H9.35352V7.39917ZM11.0879 8.85229V14.5417H12.3828C12.8672 14.5417 13.2168 14.5144 13.4316 14.4597C13.7129 14.3894 13.9453 14.2703 14.1289 14.1023C14.3164 13.9343 14.4688 13.6589 14.5859 13.2761C14.7031 12.8894 14.7617 12.364 14.7617 11.7C14.7617 11.0359 14.7031 10.5261 14.5859 10.1707C14.4688 9.81519 14.3047 9.53784 14.0938 9.33862C13.8828 9.1394 13.6152 9.00464 13.291 8.93433C13.0488 8.87964 12.5742 8.85229 11.8672 8.85229H11.0879ZM18.0488 15.989V7.39917H19.7363L23.252 13.1355V7.39917H24.8633V15.989H23.123L19.6602 10.3875V15.989H18.0488ZM26.6797 15.989V7.39917H29.2754L30.834 13.2585L32.375 7.39917H34.9766V15.989H33.3652V9.22729L31.6602 15.989H29.9902L28.291 9.22729V15.989H26.6797ZM38.6328 15.989V8.85229H36.084V7.39917H42.9102V8.85229H40.3672V15.989H38.6328ZM43.6133 13.7097L45.207 13.5164C45.2578 13.9226 45.3945 14.2332 45.6172 14.448C45.8398 14.6628 46.1094 14.7703 46.4258 14.7703C46.7656 14.7703 47.0508 14.6414 47.2812 14.3835C47.5156 14.1257 47.6328 13.7781 47.6328 13.3406C47.6328 12.9265 47.5215 12.5984 47.2988 12.3562C47.0762 12.114 46.8047 11.9929 46.4844 11.9929C46.2734 11.9929 46.0215 12.0339 45.7285 12.116L45.9102 10.7742C46.3555 10.7859 46.6953 10.6902 46.9297 10.4871C47.1641 10.28 47.2812 10.0066 47.2812 9.66675C47.2812 9.37769 47.1953 9.14722 47.0234 8.97534C46.8516 8.80347 46.623 8.71753 46.3379 8.71753C46.0566 8.71753 45.8164 8.81519 45.6172 9.0105C45.418 9.20581 45.2969 9.49097 45.2539 9.86597L43.7363 9.60815C43.8418 9.08862 44 8.67456 44.2109 8.36597C44.4258 8.05347 44.7227 7.80933 45.1016 7.63354C45.4844 7.45386 45.9121 7.36401 46.3848 7.36401C47.1934 7.36401 47.8418 7.62183 48.3301 8.13745C48.7324 8.55933 48.9336 9.03589 48.9336 9.56714C48.9336 10.321 48.5215 10.9226 47.6973 11.3718C48.1895 11.4773 48.582 11.7136 48.875 12.0808C49.1719 12.448 49.3203 12.8914 49.3203 13.4109C49.3203 14.1648 49.0449 14.8074 48.4941 15.3386C47.9434 15.8699 47.2578 16.1355 46.4375 16.1355C45.6602 16.1355 45.0156 15.9128 44.5039 15.4675C43.9922 15.0183 43.6953 14.4324 43.6133 13.7097ZM50.7207 7.39917H54.1543C54.834 7.39917 55.3398 7.42847 55.6719 7.48706C56.0078 7.54175 56.3066 7.65894 56.5684 7.83862C56.834 8.01831 57.0547 8.25854 57.2305 8.55933C57.4062 8.8562 57.4941 9.19019 57.4941 9.56128C57.4941 9.96362 57.3848 10.3328 57.166 10.6687C56.9512 11.0046 56.6582 11.2566 56.2871 11.4246C56.8105 11.5769 57.2129 11.8367 57.4941 12.2039C57.7754 12.571 57.916 13.0027 57.916 13.4988C57.916 13.8894 57.8242 14.2703 57.6406 14.6414C57.4609 15.0085 57.2129 15.3035 56.8965 15.5261C56.584 15.7449 56.1973 15.8796 55.7363 15.9304C55.4473 15.9617 54.75 15.9812 53.6445 15.989H50.7207V7.39917ZM52.4551 8.82886V10.8152H53.5918C54.2676 10.8152 54.6875 10.8054 54.8516 10.7859C55.1484 10.7507 55.3809 10.6492 55.5488 10.4812C55.7207 10.3093 55.8066 10.0847 55.8066 9.80737C55.8066 9.54175 55.7324 9.3269 55.584 9.16284C55.4395 8.99487 55.2227 8.89331 54.9336 8.85815C54.7617 8.83862 54.2676 8.82886 53.4512 8.82886H52.4551ZM52.4551 12.2449V14.5417H54.0605C54.6855 14.5417 55.082 14.5242 55.25 14.489C55.5078 14.4421 55.7168 14.3289 55.877 14.1492C56.041 13.9656 56.123 13.7214 56.123 13.4167C56.123 13.1589 56.0605 12.9402 55.9355 12.7605C55.8105 12.5808 55.6289 12.45 55.3906 12.3679C55.1562 12.2859 54.6445 12.2449 53.8555 12.2449H52.4551Z" fill="white"/>
<defs>
<linearGradient id="paint0_linear_40_2562" x1="33.5" y1="1.98901" x2="33.5" y2="21.989" gradientUnits="userSpaceOnUse">
<stop stop-color="#1C3DA3"/>
<stop offset="1" stop-color="#765EB6"/>
</linearGradient>
</defs>
</svg>
