<svg width="104" height="36" viewBox="0 0 104 36" fill="none" xmlns="http://www.w3.org/2000/svg">
<rect x="2" y="1.98901" width="101" height="32" rx="10" fill="url(#paint0_linear_40_2563)"/>
<rect x="2" y="1.98901" width="101" height="32" rx="10" stroke="#870F2F" stroke-width="3" stroke-linejoin="round"/>
<path d="M10.0078 6.39917H13.1777C13.8926 6.39917 14.4375 6.45386 14.8125 6.56323C15.3164 6.71167 15.748 6.97534 16.1074 7.35425C16.4668 7.73315 16.7402 8.198 16.9277 8.74878C17.1152 9.29565 17.209 9.97144 17.209 10.7761C17.209 11.4832 17.1211 12.0925 16.9453 12.6042C16.7305 13.2292 16.4238 13.7351 16.0254 14.1218C15.7246 14.4148 15.3184 14.6433 14.8066 14.8074C14.4238 14.9285 13.9121 14.989 13.2715 14.989H10.0078V6.39917ZM11.7422 7.85229V13.5417H13.0371C13.5215 13.5417 13.8711 13.5144 14.0859 13.4597C14.3672 13.3894 14.5996 13.2703 14.7832 13.1023C14.9707 12.9343 15.123 12.6589 15.2402 12.2761C15.3574 11.8894 15.416 11.364 15.416 10.7C15.416 10.0359 15.3574 9.52612 15.2402 9.17065C15.123 8.81519 14.959 8.53784 14.748 8.33862C14.5371 8.1394 14.2695 8.00464 13.9453 7.93433C13.7031 7.87964 13.2285 7.85229 12.5215 7.85229H11.7422ZM18.6855 14.989V6.39917H25.0547V7.85229H20.4199V9.75659H24.7324V11.2039H20.4199V13.5417H25.2188V14.989H18.6855ZM26.25 12.1941L27.9375 12.03C28.0391 12.5964 28.2441 13.0125 28.5527 13.2781C28.8652 13.5437 29.2852 13.6765 29.8125 13.6765C30.3711 13.6765 30.791 13.5593 31.0723 13.325C31.3574 13.0867 31.5 12.8093 31.5 12.4929C31.5 12.2898 31.4395 12.1179 31.3184 11.9773C31.2012 11.8328 30.9941 11.7078 30.6973 11.6023C30.4941 11.532 30.0312 11.407 29.3086 11.2273C28.3789 10.9968 27.7266 10.7136 27.3516 10.3777C26.8242 9.90503 26.5605 9.32886 26.5605 8.64917C26.5605 8.21167 26.6836 7.80347 26.9297 7.42456C27.1797 7.04175 27.5371 6.75073 28.002 6.55151C28.4707 6.35229 29.0352 6.25269 29.6953 6.25269C30.7734 6.25269 31.584 6.48901 32.127 6.96167C32.6738 7.43433 32.9609 8.06519 32.9883 8.85425L31.2539 8.93042C31.1797 8.48901 31.0195 8.17261 30.7734 7.9812C30.5312 7.78589 30.166 7.68823 29.6777 7.68823C29.1738 7.68823 28.7793 7.79175 28.4941 7.99878C28.3105 8.13159 28.2188 8.30933 28.2188 8.53198C28.2188 8.73511 28.3047 8.90894 28.4766 9.05347C28.6953 9.23706 29.2266 9.42847 30.0703 9.62769C30.9141 9.8269 31.5371 10.0339 31.9395 10.2488C32.3457 10.4597 32.6621 10.7507 32.8887 11.1218C33.1191 11.489 33.2344 11.9441 33.2344 12.4871C33.2344 12.9792 33.0977 13.4402 32.8242 13.8699C32.5508 14.2996 32.1641 14.6199 31.6641 14.8308C31.1641 15.0378 30.541 15.1414 29.7949 15.1414C28.709 15.1414 27.875 14.8914 27.293 14.3914C26.7109 13.8875 26.3633 13.155 26.25 12.1941ZM36.627 14.989V7.85229H34.0781V6.39917H40.9043V7.85229H38.3613V14.989H36.627ZM42.0352 14.989V6.39917H45.6855C46.6035 6.39917 47.2695 6.47729 47.6836 6.63354C48.1016 6.78589 48.4355 7.05933 48.6855 7.45386C48.9355 7.84839 49.0605 8.29956 49.0605 8.80737C49.0605 9.4519 48.8711 9.98511 48.4922 10.407C48.1133 10.825 47.5469 11.0886 46.793 11.198C47.168 11.4167 47.4766 11.657 47.7188 11.9187C47.9648 12.1804 48.2949 12.6453 48.709 13.3132L49.7578 14.989H47.6836L46.4297 13.1199C45.9844 12.4519 45.6797 12.032 45.5156 11.8601C45.3516 11.6843 45.1777 11.5652 44.9941 11.5027C44.8105 11.4363 44.5195 11.4031 44.1211 11.4031H43.7695V14.989H42.0352ZM43.7695 10.032H45.0527C45.8848 10.032 46.4043 9.99683 46.6113 9.92651C46.8184 9.8562 46.9805 9.73511 47.0977 9.56323C47.2148 9.39136 47.2734 9.17651 47.2734 8.9187C47.2734 8.62964 47.1953 8.39722 47.0391 8.22144C46.8867 8.04175 46.6699 7.92847 46.3887 7.88159C46.248 7.86206 45.8262 7.85229 45.123 7.85229H43.7695V10.032ZM50.6895 6.39917H52.4238V11.0515C52.4238 11.7898 52.4453 12.2683 52.4883 12.4871C52.5625 12.8386 52.7383 13.1218 53.0156 13.3367C53.2969 13.5476 53.6797 13.6531 54.1641 13.6531C54.6562 13.6531 55.0273 13.5535 55.2773 13.3542C55.5273 13.1511 55.6777 12.9031 55.7285 12.6101C55.7793 12.3171 55.8047 11.8308 55.8047 11.1511V6.39917H57.5391V10.9109C57.5391 11.9421 57.4922 12.6707 57.3984 13.0964C57.3047 13.5222 57.1309 13.8816 56.877 14.1746C56.627 14.4675 56.291 14.7019 55.8691 14.8777C55.4473 15.0496 54.8965 15.1355 54.2168 15.1355C53.3965 15.1355 52.7734 15.0417 52.3477 14.8542C51.9258 14.6628 51.5918 14.4167 51.3457 14.116C51.0996 13.8113 50.9375 13.4929 50.8594 13.1609C50.7461 12.6687 50.6895 11.9421 50.6895 10.9812V6.39917ZM64.8691 11.8308L66.5508 12.364C66.293 13.3015 65.8633 13.9988 65.2617 14.4558C64.6641 14.9089 63.9043 15.1355 62.9824 15.1355C61.8418 15.1355 60.9043 14.7468 60.1699 13.9695C59.4355 13.1882 59.0684 12.1218 59.0684 10.7703C59.0684 9.34058 59.4375 8.2312 60.1758 7.44214C60.9141 6.64917 61.8848 6.25269 63.0879 6.25269C64.1387 6.25269 64.9922 6.56323 65.6484 7.18433C66.0391 7.55151 66.332 8.07886 66.5273 8.76636L64.8105 9.17651C64.709 8.7312 64.4961 8.37964 64.1719 8.12183C63.8516 7.86401 63.4609 7.73511 63 7.73511C62.3633 7.73511 61.8457 7.96362 61.4473 8.42065C61.0527 8.87769 60.8555 9.61792 60.8555 10.6414C60.8555 11.7273 61.0508 12.5007 61.4414 12.9617C61.832 13.4226 62.3398 13.6531 62.9648 13.6531C63.4258 13.6531 63.8223 13.5066 64.1543 13.2136C64.4863 12.9207 64.7246 12.4597 64.8691 11.8308ZM69.9785 14.989V7.85229H67.4297V6.39917H74.2559V7.85229H71.7129V14.989H69.9785ZM75.3281 14.989V6.39917H77.0625V14.989H75.3281ZM78.3691 10.7468C78.3691 9.87183 78.5 9.13745 78.7617 8.5437C78.957 8.1062 79.2227 7.71362 79.5586 7.36597C79.8984 7.01831 80.2695 6.7605 80.6719 6.59253C81.207 6.36597 81.8242 6.25269 82.5234 6.25269C83.7891 6.25269 84.8008 6.64526 85.5586 7.43042C86.3203 8.21558 86.7012 9.30737 86.7012 10.7058C86.7012 12.0925 86.3242 13.1785 85.5703 13.9636C84.8164 14.7449 83.8086 15.1355 82.5469 15.1355C81.2695 15.1355 80.2539 14.7468 79.5 13.9695C78.7461 13.1882 78.3691 12.114 78.3691 10.7468ZM80.1562 10.6882C80.1562 11.6609 80.3809 12.3992 80.8301 12.9031C81.2793 13.4031 81.8496 13.6531 82.541 13.6531C83.2324 13.6531 83.7988 13.405 84.2402 12.9089C84.6855 12.4089 84.9082 11.6609 84.9082 10.6648C84.9082 9.68042 84.6914 8.94604 84.2578 8.46167C83.8281 7.97729 83.2559 7.73511 82.541 7.73511C81.8262 7.73511 81.25 7.9812 80.8125 8.47339C80.375 8.96167 80.1562 9.69995 80.1562 10.6882ZM88.0781 14.989V6.39917H89.7656L93.2812 12.1355V6.39917H94.8926V14.989H93.1523L89.6895 9.38745V14.989H88.0781ZM29.1914 25.8308L30.873 26.364C30.6152 27.3015 30.1855 27.9988 29.584 28.4558C28.9863 28.9089 28.2266 29.1355 27.3047 29.1355C26.1641 29.1355 25.2266 28.7468 24.4922 27.9695C23.7578 27.1882 23.3906 26.1218 23.3906 24.7703C23.3906 23.3406 23.7598 22.2312 24.498 21.4421C25.2363 20.6492 26.207 20.2527 27.4102 20.2527C28.4609 20.2527 29.3145 20.5632 29.9707 21.1843C30.3613 21.5515 30.6543 22.0789 30.8496 22.7664L29.1328 23.1765C29.0312 22.7312 28.8184 22.3796 28.4941 22.1218C28.1738 21.864 27.7832 21.7351 27.3223 21.7351C26.6855 21.7351 26.168 21.9636 25.7695 22.4207C25.375 22.8777 25.1777 23.6179 25.1777 24.6414C25.1777 25.7273 25.373 26.5007 25.7637 26.9617C26.1543 27.4226 26.6621 27.6531 27.2871 27.6531C27.748 27.6531 28.1445 27.5066 28.4766 27.2136C28.8086 26.9207 29.0469 26.4597 29.1914 25.8308ZM32.0156 24.7468C32.0156 23.8718 32.1465 23.1375 32.4082 22.5437C32.6035 22.1062 32.8691 21.7136 33.2051 21.366C33.5449 21.0183 33.916 20.7605 34.3184 20.5925C34.8535 20.366 35.4707 20.2527 36.1699 20.2527C37.4355 20.2527 38.4473 20.6453 39.2051 21.4304C39.9668 22.2156 40.3477 23.3074 40.3477 24.7058C40.3477 26.0925 39.9707 27.1785 39.2168 27.9636C38.4629 28.7449 37.4551 29.1355 36.1934 29.1355C34.916 29.1355 33.9004 28.7468 33.1465 27.9695C32.3926 27.1882 32.0156 26.114 32.0156 24.7468ZM33.8027 24.6882C33.8027 25.6609 34.0273 26.3992 34.4766 26.9031C34.9258 27.4031 35.4961 27.6531 36.1875 27.6531C36.8789 27.6531 37.4453 27.405 37.8867 26.9089C38.332 26.4089 38.5547 25.6609 38.5547 24.6648C38.5547 23.6804 38.3379 22.946 37.9043 22.4617C37.4746 21.9773 36.9023 21.7351 36.1875 21.7351C35.4727 21.7351 34.8965 21.9812 34.459 22.4734C34.0215 22.9617 33.8027 23.7 33.8027 24.6882ZM41.6836 28.989V20.3992H44.2793L45.8379 26.2585L47.3789 20.3992H49.9805V28.989H48.3691V22.2273L46.6641 28.989H44.9941L43.2949 22.2273V28.989H41.6836ZM51.7031 28.989V20.3992H54.4863C55.541 20.3992 56.2285 20.4421 56.5488 20.5281C57.041 20.657 57.4531 20.9382 57.7852 21.3718C58.1172 21.8015 58.2832 22.3582 58.2832 23.0417C58.2832 23.5691 58.1875 24.0125 57.9961 24.3718C57.8047 24.7312 57.5605 25.0144 57.2637 25.2214C56.9707 25.4246 56.6719 25.5593 56.3672 25.6257C55.9531 25.7078 55.3535 25.7488 54.5684 25.7488H53.4375V28.989H51.7031ZM53.4375 21.8523V24.2898H54.3867C55.0703 24.2898 55.5273 24.2449 55.7578 24.155C55.9883 24.0652 56.168 23.9246 56.2969 23.7332C56.4297 23.5417 56.4961 23.3191 56.4961 23.0652C56.4961 22.7527 56.4043 22.4949 56.2207 22.2917C56.0371 22.0886 55.8047 21.9617 55.5234 21.9109C55.3164 21.8718 54.9004 21.8523 54.2754 21.8523H53.4375ZM59.7539 28.989V20.4695H61.4883V27.5417H65.8008V28.989H59.7539ZM67.043 28.989V20.3992H73.4121V21.8523H68.7773V23.7566H73.0898V25.2039H68.7773V27.5417H73.5762V28.989H67.043ZM74.1738 28.989L77.1094 24.5066L74.4492 20.3992H76.4766L78.1992 23.1589L79.8867 20.3992H81.8965L79.2246 24.571L82.1602 28.989H80.0684L78.1641 26.0183L76.2539 28.989H74.1738Z" fill="white"/>
<defs>
<linearGradient id="paint0_linear_40_2563" x1="52.5" y1="1.98901" x2="52.5" y2="33.989" gradientUnits="userSpaceOnUse">
<stop stop-color="#FF00EE"/>
<stop offset="1" stop-color="#870F2F"/>
</linearGradient>
</defs>
</svg>
