<svg width="51" height="24" viewBox="0 0 51 24" fill="none" xmlns="http://www.w3.org/2000/svg">
<rect x="2" y="1.98901" width="48" height="20" rx="10" fill="url(#paint0_linear_64_1961)"/>
<rect x="2" y="1.98901" width="48" height="20" rx="10" stroke="#D39D26" stroke-width="3" stroke-linejoin="round"/>
<path d="M10.1973 15.989V7.39917H12.9805C14.0352 7.39917 14.7227 7.44214 15.043 7.52808C15.5352 7.65698 15.9473 7.93823 16.2793 8.37183C16.6113 8.80151 16.7773 9.35815 16.7773 10.0417C16.7773 10.5691 16.6816 11.0125 16.4902 11.3718C16.2988 11.7312 16.0547 12.0144 15.7578 12.2214C15.4648 12.4246 15.166 12.5593 14.8613 12.6257C14.4473 12.7078 13.8477 12.7488 13.0625 12.7488H11.9316V15.989H10.1973ZM11.9316 8.85229V11.2898H12.8809C13.5645 11.2898 14.0215 11.2449 14.252 11.155C14.4824 11.0652 14.6621 10.9246 14.791 10.7332C14.9238 10.5417 14.9902 10.3191 14.9902 10.0652C14.9902 9.75269 14.8984 9.49487 14.7148 9.29175C14.5312 9.08862 14.2988 8.96167 14.0176 8.91089C13.8105 8.87183 13.3945 8.85229 12.7695 8.85229H11.9316ZM18.2012 15.989V7.39917H24.5703V8.85229H19.9355V10.7566H24.248V12.2039H19.9355V14.5417H24.7344V15.989H18.2012ZM26.2109 15.989V7.39917H29.8613C30.7793 7.39917 31.4453 7.47729 31.8594 7.63354C32.2773 7.78589 32.6113 8.05933 32.8613 8.45386C33.1113 8.84839 33.2363 9.29956 33.2363 9.80737C33.2363 10.4519 33.0469 10.9851 32.668 11.407C32.2891 11.825 31.7227 12.0886 30.9688 12.198C31.3438 12.4167 31.6523 12.657 31.8945 12.9187C32.1406 13.1804 32.4707 13.6453 32.8848 14.3132L33.9336 15.989H31.8594L30.6055 14.1199C30.1602 13.4519 29.8555 13.032 29.6914 12.8601C29.5273 12.6843 29.3535 12.5652 29.1699 12.5027C28.9863 12.4363 28.6953 12.4031 28.2969 12.4031H27.9453V15.989H26.2109ZM27.9453 11.032H29.2285C30.0605 11.032 30.5801 10.9968 30.7871 10.9265C30.9941 10.8562 31.1562 10.7351 31.2734 10.5632C31.3906 10.3914 31.4492 10.1765 31.4492 9.9187C31.4492 9.62964 31.3711 9.39722 31.2148 9.22144C31.0625 9.04175 30.8457 8.92847 30.5645 8.88159C30.4238 8.86206 30.002 8.85229 29.2988 8.85229H27.9453V11.032ZM34.9004 15.989V7.39917H36.6348V11.2136L40.1387 7.39917H42.4707L39.2363 10.7449L42.6465 15.989H40.4023L38.041 11.9578L36.6348 13.3933V15.989H34.9004Z" fill="white"/>
<defs>
<linearGradient id="paint0_linear_64_1961" x1="26" y1="1.98901" x2="26" y2="21.989" gradientUnits="userSpaceOnUse">
<stop stop-color="#FF86FF"/>
<stop offset="1" stop-color="#4C0000"/>
</linearGradient>
</defs>
</svg>
