<svg width="57" height="24" viewBox="0 0 57 24" fill="none" xmlns="http://www.w3.org/2000/svg">
<rect x="2" y="1.98901" width="54" height="20" rx="10" fill="url(#paint0_linear_64_1900)"/>
<rect x="2" y="1.98901" width="54" height="20" rx="10" stroke="#066BF9" stroke-width="3" stroke-linejoin="round"/>
<path d="M10.2031 15.989V7.39917H11.8906L15.4062 13.1355V7.39917H17.0176V15.989H15.2773L11.8145 10.3875V15.989H10.2031ZM18.8633 15.989V7.39917H22.5137C23.4316 7.39917 24.0977 7.47729 24.5117 7.63354C24.9297 7.78589 25.2637 8.05933 25.5137 8.45386C25.7637 8.84839 25.8887 9.29956 25.8887 9.80737C25.8887 10.4519 25.6992 10.9851 25.3203 11.407C24.9414 11.825 24.375 12.0886 23.6211 12.198C23.9961 12.4167 24.3047 12.657 24.5469 12.9187C24.793 13.1804 25.123 13.6453 25.5371 14.3132L26.5859 15.989H24.5117L23.2578 14.1199C22.8125 13.4519 22.5078 13.032 22.3438 12.8601C22.1797 12.6843 22.0059 12.5652 21.8223 12.5027C21.6387 12.4363 21.3477 12.4031 20.9492 12.4031H20.5977V15.989H18.8633ZM20.5977 11.032H21.8809C22.7129 11.032 23.2324 10.9968 23.4395 10.9265C23.6465 10.8562 23.8086 10.7351 23.9258 10.5632C24.043 10.3914 24.1016 10.1765 24.1016 9.9187C24.1016 9.62964 24.0234 9.39722 23.8672 9.22144C23.7148 9.04175 23.498 8.92847 23.2168 8.88159C23.0762 8.86206 22.6543 8.85229 21.9512 8.85229H20.5977V11.032ZM27.1074 13.7097L28.7012 13.5164C28.752 13.9226 28.8887 14.2332 29.1113 14.448C29.334 14.6628 29.6035 14.7703 29.9199 14.7703C30.2598 14.7703 30.5449 14.6414 30.7754 14.3835C31.0098 14.1257 31.127 13.7781 31.127 13.3406C31.127 12.9265 31.0156 12.5984 30.793 12.3562C30.5703 12.114 30.2988 11.9929 29.9785 11.9929C29.7676 11.9929 29.5156 12.0339 29.2227 12.116L29.4043 10.7742C29.8496 10.7859 30.1895 10.6902 30.4238 10.4871C30.6582 10.28 30.7754 10.0066 30.7754 9.66675C30.7754 9.37769 30.6895 9.14722 30.5176 8.97534C30.3457 8.80347 30.1172 8.71753 29.832 8.71753C29.5508 8.71753 29.3105 8.81519 29.1113 9.0105C28.9121 9.20581 28.791 9.49097 28.748 9.86597L27.2305 9.60815C27.3359 9.08862 27.4941 8.67456 27.7051 8.36597C27.9199 8.05347 28.2168 7.80933 28.5957 7.63354C28.9785 7.45386 29.4062 7.36401 29.8789 7.36401C30.6875 7.36401 31.3359 7.62183 31.8242 8.13745C32.2266 8.55933 32.4277 9.03589 32.4277 9.56714C32.4277 10.321 32.0156 10.9226 31.1914 11.3718C31.6836 11.4773 32.0762 11.7136 32.3691 12.0808C32.666 12.448 32.8145 12.8914 32.8145 13.4109C32.8145 14.1648 32.5391 14.8074 31.9883 15.3386C31.4375 15.8699 30.752 16.1355 29.9316 16.1355C29.1543 16.1355 28.5098 15.9128 27.998 15.4675C27.4863 15.0183 27.1895 14.4324 27.1074 13.7097ZM39.7051 12.8308L41.3867 13.364C41.1289 14.3015 40.6992 14.9988 40.0977 15.4558C39.5 15.9089 38.7402 16.1355 37.8184 16.1355C36.6777 16.1355 35.7402 15.7468 35.0059 14.9695C34.2715 14.1882 33.9043 13.1218 33.9043 11.7703C33.9043 10.3406 34.2734 9.2312 35.0117 8.44214C35.75 7.64917 36.7207 7.25269 37.9238 7.25269C38.9746 7.25269 39.8281 7.56323 40.4844 8.18433C40.875 8.55151 41.168 9.07886 41.3633 9.76636L39.6465 10.1765C39.5449 9.7312 39.332 9.37964 39.0078 9.12183C38.6875 8.86401 38.2969 8.73511 37.8359 8.73511C37.1992 8.73511 36.6816 8.96362 36.2832 9.42065C35.8887 9.87769 35.6914 10.6179 35.6914 11.6414C35.6914 12.7273 35.8867 13.5007 36.2773 13.9617C36.668 14.4226 37.1758 14.6531 37.8008 14.6531C38.2617 14.6531 38.6582 14.5066 38.9902 14.2136C39.3223 13.9207 39.5605 13.4597 39.7051 12.8308ZM48.0781 14.4597V15.989H42.3066C42.3691 15.4109 42.5566 14.864 42.8691 14.3484C43.1816 13.8289 43.7988 13.1414 44.7207 12.2859C45.4629 11.5945 45.918 11.1257 46.0859 10.8796C46.3125 10.5398 46.4258 10.2039 46.4258 9.87183C46.4258 9.50464 46.3262 9.22339 46.127 9.02808C45.9316 8.82886 45.6602 8.72925 45.3125 8.72925C44.9688 8.72925 44.6953 8.83276 44.4922 9.03979C44.2891 9.24683 44.1719 9.59058 44.1406 10.071L42.5 9.90698C42.5977 9.00073 42.9043 8.35034 43.4199 7.95581C43.9355 7.56128 44.5801 7.36401 45.3535 7.36401C46.2012 7.36401 46.8672 7.59253 47.3516 8.04956C47.8359 8.50659 48.0781 9.07495 48.0781 9.75464C48.0781 10.1414 48.0078 10.5105 47.8672 10.8621C47.7305 11.2097 47.5117 11.575 47.2109 11.9578C47.0117 12.2117 46.6523 12.5769 46.1328 13.0535C45.6133 13.53 45.2832 13.8464 45.1426 14.0027C45.0059 14.1589 44.8945 14.3113 44.8086 14.4597H48.0781Z" fill="white"/>
<defs>
<linearGradient id="paint0_linear_64_1900" x1="29" y1="1.98901" x2="29" y2="21.989" gradientUnits="userSpaceOnUse">
<stop stop-color="#066BF9"/>
<stop offset="1" stop-color="#1EA044"/>
</linearGradient>
</defs>
</svg>
