<svg width="54" height="24" viewBox="0 0 54 24" fill="none" xmlns="http://www.w3.org/2000/svg">
<rect x="2" y="1.98901" width="51" height="20" rx="10" fill="url(#paint0_linear_42_2713)"/>
<rect x="2" y="1.98901" width="51" height="20" rx="10" stroke="#93A31D" stroke-width="3" stroke-linejoin="round"/>
<path d="M10.3672 15.989V7.39917H16.2559V8.85229H12.1016V10.8855H15.6875V12.3386H12.1016V15.989H10.3672ZM19.625 15.989V8.85229H17.0762V7.39917H23.9023V8.85229H21.3594V15.989H19.625ZM24.5879 13.1941L26.2754 13.03C26.377 13.5964 26.582 14.0125 26.8906 14.2781C27.2031 14.5437 27.623 14.6765 28.1504 14.6765C28.709 14.6765 29.1289 14.5593 29.4102 14.325C29.6953 14.0867 29.8379 13.8093 29.8379 13.4929C29.8379 13.2898 29.7773 13.1179 29.6562 12.9773C29.5391 12.8328 29.332 12.7078 29.0352 12.6023C28.832 12.532 28.3691 12.407 27.6465 12.2273C26.7168 11.9968 26.0645 11.7136 25.6895 11.3777C25.1621 10.905 24.8984 10.3289 24.8984 9.64917C24.8984 9.21167 25.0215 8.80347 25.2676 8.42456C25.5176 8.04175 25.875 7.75073 26.3398 7.55151C26.8086 7.35229 27.373 7.25269 28.0332 7.25269C29.1113 7.25269 29.9219 7.48901 30.4648 7.96167C31.0117 8.43433 31.2988 9.06519 31.3262 9.85425L29.5918 9.93042C29.5176 9.48901 29.3574 9.17261 29.1113 8.9812C28.8691 8.78589 28.5039 8.68823 28.0156 8.68823C27.5117 8.68823 27.1172 8.79175 26.832 8.99878C26.6484 9.13159 26.5566 9.30933 26.5566 9.53198C26.5566 9.73511 26.6426 9.90894 26.8145 10.0535C27.0332 10.2371 27.5645 10.4285 28.4082 10.6277C29.252 10.8269 29.875 11.0339 30.2773 11.2488C30.6836 11.4597 31 11.7507 31.2266 12.1218C31.457 12.489 31.5723 12.9441 31.5723 13.4871C31.5723 13.9792 31.4355 14.4402 31.1621 14.8699C30.8887 15.2996 30.502 15.6199 30.002 15.8308C29.502 16.0378 28.8789 16.1414 28.1328 16.1414C27.0469 16.1414 26.2129 15.8914 25.6309 15.3914C25.0488 14.8875 24.7012 14.155 24.5879 13.1941ZM36.1309 7.39917H37.8594V12.8367C37.8594 13.5476 37.7969 14.0945 37.6719 14.4773C37.5039 14.9773 37.1992 15.3796 36.7578 15.6843C36.3164 15.9851 35.7344 16.1355 35.0117 16.1355C34.1641 16.1355 33.5117 15.8992 33.0547 15.4265C32.5977 14.95 32.3672 14.2527 32.3633 13.3347L33.998 13.1472C34.0176 13.6394 34.0898 13.9871 34.2148 14.1902C34.4023 14.4988 34.6875 14.6531 35.0703 14.6531C35.457 14.6531 35.7305 14.5437 35.8906 14.325C36.0508 14.1023 36.1309 13.6433 36.1309 12.948V7.39917ZM43.5605 15.989H41.9141V9.78394C41.3125 10.3464 40.6035 10.7625 39.7871 11.032V9.53784C40.2168 9.39722 40.6836 9.13159 41.1875 8.74097C41.6914 8.34644 42.0371 7.88745 42.2246 7.36401H43.5605V15.989Z" fill="white"/>
<defs>
<linearGradient id="paint0_linear_42_2713" x1="27.5" y1="1.98901" x2="27.5" y2="21.989" gradientUnits="userSpaceOnUse">
<stop stop-color="#93A31D"/>
<stop offset="1" stop-color="#CF5D39"/>
</linearGradient>
</defs>
</svg>
