<svg width="37" height="58" viewBox="0 0 37 58" fill="none" xmlns="http://www.w3.org/2000/svg">
<path d="M18.3999 47.3924C21.9045 47.3924 24.7454 36.9241 24.7454 24.0109C24.7454 11.0976 21.9045 0.629395 18.3999 0.629395C14.8954 0.629395 12.0544 11.0976 12.0544 24.0109C12.0544 36.9241 14.8954 47.3924 18.3999 47.3924Z" fill="url(#paint0_radial_89_4267)"/>
<path d="M12.8269 27.0109C12.8269 39.9241 17.7474 50.3924 11.4814 50.3924C5.21539 50.3924 0.135986 39.9242 0.135986 27.0109C0.135986 14.0976 5.21549 3.62939 11.4815 3.62939C17.7475 3.62939 12.8269 14.0977 12.8269 27.0109Z" fill="url(#paint1_radial_89_4267)"/>
<path d="M23.9728 27.0109C23.9728 39.9241 19.0523 50.3924 25.3183 50.3924C31.5843 50.3924 36.6638 39.9241 36.6638 27.0109C36.6638 14.0977 31.5842 3.62939 25.3183 3.62939C19.0524 3.62939 23.9728 14.0977 23.9728 27.0109Z" fill="url(#paint2_radial_89_4267)"/>
<path d="M25.3183 3.62939C24.2994 3.62939 23.5803 3.91049 23.0837 4.42969C22.148 2.02949 20.6875 0.629395 18.3999 0.629395C16.1123 0.629395 14.6517 2.02949 13.7161 4.42969C13.2195 3.91049 12.5004 3.62939 11.4815 3.62939C5.21549 3.62939 0.135986 14.0977 0.135986 27.0109C0.135986 39.9241 5.21549 50.3924 11.4815 50.3924C14.1312 50.3924 14.7773 48.5153 14.6443 45.3781C15.5463 46.6691 16.7595 47.3924 18.3999 47.3924C20.0403 47.3924 21.2535 46.6691 22.1555 45.3781C22.0224 48.5152 22.6686 50.3924 25.3183 50.3924C31.5842 50.3924 36.6638 39.9241 36.6638 27.0109C36.6637 14.0977 31.5842 3.62939 25.3183 3.62939Z" fill="url(#paint3_radial_89_4267)"/>
<path d="M12.8269 31.0109C12.8269 43.9241 17.7474 54.3924 11.4814 54.3924C5.21539 54.3924 0.135986 43.9242 0.135986 31.0109C0.135986 18.0976 5.21549 7.62939 11.4815 7.62939C17.7475 7.62939 12.8269 18.0977 12.8269 31.0109Z" fill="url(#paint4_radial_89_4267)"/>
<path d="M23.9728 31.0109C23.9728 43.9241 19.0523 54.3924 25.3183 54.3924C31.5843 54.3924 36.6638 43.9241 36.6638 31.0109C36.6638 18.0977 31.5842 7.62939 25.3183 7.62939C19.0524 7.62939 23.9728 18.0977 23.9728 31.0109Z" fill="url(#paint5_radial_89_4267)"/>
<path d="M18.3999 57.3924C21.9045 57.3924 24.7454 46.9241 24.7454 34.0109C24.7454 21.0976 21.9045 10.6294 18.3999 10.6294C14.8954 10.6294 12.0544 21.0976 12.0544 34.0109C12.0544 46.9241 14.8954 57.3924 18.3999 57.3924Z" fill="url(#paint6_radial_89_4267)"/>
<defs>
<radialGradient id="paint0_radial_89_4267" cx="0" cy="0" r="1" gradientUnits="userSpaceOnUse" gradientTransform="translate(16.3622 23.8358) rotate(180) scale(8.28509 23.1576)">
<stop stop-color="#0F82BC"/>
<stop offset="0.9361" stop-color="#145F84"/>
<stop offset="1" stop-color="#155575"/>
</radialGradient>
<radialGradient id="paint1_radial_89_4267" cx="0" cy="0" r="1" gradientUnits="userSpaceOnUse" gradientTransform="translate(5.06716 26.8358) rotate(180) scale(9.48418 23.1576)">
<stop stop-color="#0F82BC"/>
<stop offset="0.9361" stop-color="#145F84"/>
<stop offset="1" stop-color="#155575"/>
</radialGradient>
<radialGradient id="paint2_radial_89_4267" cx="0" cy="0" r="1" gradientUnits="userSpaceOnUse" gradientTransform="translate(27.0672 26.8358) rotate(180) scale(9.4842 23.1576)">
<stop stop-color="#0F82BC"/>
<stop offset="0.9361" stop-color="#145F84"/>
<stop offset="1" stop-color="#155575"/>
</radialGradient>
<radialGradient id="paint3_radial_89_4267" cx="0" cy="0" r="1" gradientUnits="userSpaceOnUse" gradientTransform="translate(18.3999 25.0294) scale(18.2342 24.1166)">
<stop offset="0.6" stop-color="#302300"/>
<stop offset="0.9" stop-color="#302300" stop-opacity="0"/>
</radialGradient>
<radialGradient id="paint4_radial_89_4267" cx="0" cy="0" r="1" gradientUnits="userSpaceOnUse" gradientTransform="translate(5.06716 30.8358) rotate(180) scale(9.48418 23.1576)">
<stop stop-color="#0F82BC"/>
<stop offset="0.9361" stop-color="#145F84"/>
<stop offset="1" stop-color="#155575"/>
</radialGradient>
<radialGradient id="paint5_radial_89_4267" cx="0" cy="0" r="1" gradientUnits="userSpaceOnUse" gradientTransform="translate(27.0672 30.8358) rotate(180) scale(9.4842 23.1576)">
<stop stop-color="#0F82BC"/>
<stop offset="0.9361" stop-color="#145F84"/>
<stop offset="1" stop-color="#155575"/>
</radialGradient>
<radialGradient id="paint6_radial_89_4267" cx="0" cy="0" r="1" gradientUnits="userSpaceOnUse" gradientTransform="translate(16.3622 33.8358) rotate(180) scale(8.28509 23.1576)">
<stop stop-color="#0F82BC"/>
<stop offset="0.9361" stop-color="#145F84"/>
<stop offset="1" stop-color="#155575"/>
</radialGradient>
</defs>
</svg>
