<svg width="52" height="24" viewBox="0 0 52 24" fill="none" xmlns="http://www.w3.org/2000/svg">
<rect x="2" y="1.98901" width="49" height="20" rx="10" fill="url(#paint0_linear_35_1405)"/>
<rect x="2" y="1.98901" width="49" height="20" rx="10" stroke="#2E00AD" stroke-width="3" stroke-linejoin="round"/>
<path d="M18.1035 15.989H16.2168L15.4668 14.0378H12.0332L11.3242 15.989H9.48438L12.8301 7.39917H14.6641L18.1035 15.989ZM14.9102 12.5906L13.7266 9.40308L12.5664 12.5906H14.9102ZM23.0254 12.8308V11.3835H26.7637V14.8054C26.4004 15.157 25.873 15.4675 25.1816 15.7371C24.4941 16.0027 23.7969 16.1355 23.0898 16.1355C22.1914 16.1355 21.4082 15.948 20.7402 15.573C20.0723 15.1941 19.5703 14.655 19.2344 13.9558C18.8984 13.2527 18.7305 12.489 18.7305 11.6648C18.7305 10.7703 18.918 9.97534 19.293 9.28003C19.668 8.58472 20.2168 8.05151 20.9395 7.68042C21.4902 7.39526 22.1758 7.25269 22.9961 7.25269C24.0625 7.25269 24.8945 7.47729 25.4922 7.92651C26.0938 8.37183 26.4805 8.98901 26.6523 9.77808L24.9297 10.1003C24.8086 9.67847 24.5801 9.34644 24.2441 9.10425C23.9121 8.85815 23.4961 8.73511 22.9961 8.73511C22.2383 8.73511 21.6348 8.97534 21.1855 9.45581C20.7402 9.93628 20.5176 10.6492 20.5176 11.5945C20.5176 12.614 20.7441 13.3796 21.1973 13.8914C21.6504 14.3992 22.2441 14.6531 22.9785 14.6531C23.3418 14.6531 23.7051 14.5828 24.0684 14.4421C24.4355 14.2976 24.75 14.1238 25.0117 13.9207V12.8308H23.0254ZM28.0176 11.7468C28.0176 10.8718 28.1484 10.1375 28.4102 9.5437C28.6055 9.1062 28.8711 8.71362 29.207 8.36597C29.5469 8.01831 29.918 7.7605 30.3203 7.59253C30.8555 7.36597 31.4727 7.25269 32.1719 7.25269C33.4375 7.25269 34.4492 7.64526 35.207 8.43042C35.9688 9.21558 36.3496 10.3074 36.3496 11.7058C36.3496 13.0925 35.9727 14.1785 35.2188 14.9636C34.4648 15.7449 33.457 16.1355 32.1953 16.1355C30.918 16.1355 29.9023 15.7468 29.1484 14.9695C28.3945 14.1882 28.0176 13.114 28.0176 11.7468ZM29.8047 11.6882C29.8047 12.6609 30.0293 13.3992 30.4785 13.9031C30.9277 14.4031 31.498 14.6531 32.1895 14.6531C32.8809 14.6531 33.4473 14.405 33.8887 13.9089C34.334 13.4089 34.5566 12.6609 34.5566 11.6648C34.5566 10.6804 34.3398 9.94604 33.9062 9.46167C33.4766 8.97729 32.9043 8.73511 32.1895 8.73511C31.4746 8.73511 30.8984 8.9812 30.4609 9.47339C30.0234 9.96167 29.8047 10.7 29.8047 11.6882ZM42.9062 14.4597V15.989H37.1348C37.1973 15.4109 37.3848 14.864 37.6973 14.3484C38.0098 13.8289 38.627 13.1414 39.5488 12.2859C40.291 11.5945 40.7461 11.1257 40.9141 10.8796C41.1406 10.5398 41.2539 10.2039 41.2539 9.87183C41.2539 9.50464 41.1543 9.22339 40.9551 9.02808C40.7598 8.82886 40.4883 8.72925 40.1406 8.72925C39.7969 8.72925 39.5234 8.83276 39.3203 9.03979C39.1172 9.24683 39 9.59058 38.9688 10.071L37.3281 9.90698C37.4258 9.00073 37.7324 8.35034 38.248 7.95581C38.7637 7.56128 39.4082 7.36401 40.1816 7.36401C41.0293 7.36401 41.6953 7.59253 42.1797 8.04956C42.6641 8.50659 42.9062 9.07495 42.9062 9.75464C42.9062 10.1414 42.8359 10.5105 42.6953 10.8621C42.5586 11.2097 42.3398 11.575 42.0391 11.9578C41.8398 12.2117 41.4805 12.5769 40.9609 13.0535C40.4414 13.53 40.1113 13.8464 39.9707 14.0027C39.834 14.1589 39.7227 14.3113 39.6367 14.4597H42.9062Z" fill="white"/>
<defs>
<linearGradient id="paint0_linear_35_1405" x1="26.5" y1="1.98901" x2="26.5" y2="21.989" gradientUnits="userSpaceOnUse">
<stop stop-color="#2E00AD"/>
<stop offset="1" stop-color="#8F6461"/>
</linearGradient>
</defs>
</svg>
