<svg width="48" height="24" viewBox="0 0 48 24" fill="none" xmlns="http://www.w3.org/2000/svg">
<rect x="2" y="1.98901" width="45" height="20" rx="10" fill="url(#paint0_linear_85_2076)"/>
<rect x="2" y="1.98901" width="45" height="20" rx="10" stroke="#C6B72E" stroke-width="3" stroke-linejoin="round"/>
<path d="M12.5 15.989V12.3738L9.35352 7.39917H11.3867L13.4082 10.7976L15.3887 7.39917H17.3867L14.2285 12.3855V15.989H12.5ZM24.8926 15.989H23.0059L22.2559 14.0378H18.8223L18.1133 15.989H16.2734L19.6191 7.39917H21.4531L24.8926 15.989ZM21.6992 12.5906L20.5156 9.40308L19.3555 12.5906H21.6992ZM25.8184 15.989V7.39917H28.6016C29.6562 7.39917 30.3438 7.44214 30.6641 7.52808C31.1562 7.65698 31.5684 7.93823 31.9004 8.37183C32.2324 8.80151 32.3984 9.35815 32.3984 10.0417C32.3984 10.5691 32.3027 11.0125 32.1113 11.3718C31.9199 11.7312 31.6758 12.0144 31.3789 12.2214C31.0859 12.4246 30.7871 12.5593 30.4824 12.6257C30.0684 12.7078 29.4688 12.7488 28.6836 12.7488H27.5527V15.989H25.8184ZM27.5527 8.85229V11.2898H28.502C29.1855 11.2898 29.6426 11.2449 29.873 11.155C30.1035 11.0652 30.2832 10.9246 30.4121 10.7332C30.5449 10.5417 30.6113 10.3191 30.6113 10.0652C30.6113 9.75269 30.5195 9.49487 30.3359 9.29175C30.1523 9.08862 29.9199 8.96167 29.6387 8.91089C29.4316 8.87183 29.0156 8.85229 28.3906 8.85229H27.5527ZM37.6719 15.989H36.0254V9.78394C35.4238 10.3464 34.7148 10.7625 33.8984 11.032V9.53784C34.3281 9.39722 34.7949 9.13159 35.2988 8.74097C35.8027 8.34644 36.1484 7.88745 36.3359 7.36401H37.6719V15.989Z" fill="white"/>
<defs>
<linearGradient id="paint0_linear_85_2076" x1="24.5" y1="1.98901" x2="24.5" y2="21.989" gradientUnits="userSpaceOnUse">
<stop stop-color="#C6B72E"/>
<stop offset="1" stop-color="#00CDD5"/>
</linearGradient>
</defs>
</svg>
