<svg width="65" height="24" viewBox="0 0 65 24" fill="none" xmlns="http://www.w3.org/2000/svg">
<rect x="2" y="1.98901" width="62" height="20" rx="10" fill="url(#paint0_linear_64_1913)"/>
<rect x="2" y="1.98901" width="62" height="20" rx="10" stroke="#853151" stroke-width="3" stroke-linejoin="round"/>
<path d="M9.9668 15.989V7.39917H12.75C13.8047 7.39917 14.4922 7.44214 14.8125 7.52808C15.3047 7.65698 15.7168 7.93823 16.0488 8.37183C16.3809 8.80151 16.5469 9.35815 16.5469 10.0417C16.5469 10.5691 16.4512 11.0125 16.2598 11.3718C16.0684 11.7312 15.8242 12.0144 15.5273 12.2214C15.2344 12.4246 14.9355 12.5593 14.6309 12.6257C14.2168 12.7078 13.6172 12.7488 12.832 12.7488H11.7012V15.989H9.9668ZM11.7012 8.85229V11.2898H12.6504C13.334 11.2898 13.791 11.2449 14.0215 11.155C14.252 11.0652 14.4316 10.9246 14.5605 10.7332C14.6934 10.5417 14.7598 10.3191 14.7598 10.0652C14.7598 9.75269 14.668 9.49487 14.4844 9.29175C14.3008 9.08862 14.0684 8.96167 13.7871 8.91089C13.5801 8.87183 13.1641 8.85229 12.5391 8.85229H11.7012ZM24.8262 15.989H22.9395L22.1895 14.0378H18.7559L18.0469 15.989H16.207L19.5527 7.39917H21.3867L24.8262 15.989ZM21.6328 12.5906L20.4492 9.40308L19.2891 12.5906H21.6328ZM25.7578 7.39917H29.1914C29.8711 7.39917 30.377 7.42847 30.709 7.48706C31.0449 7.54175 31.3438 7.65894 31.6055 7.83862C31.8711 8.01831 32.0918 8.25854 32.2676 8.55933C32.4434 8.8562 32.5312 9.19019 32.5312 9.56128C32.5312 9.96362 32.4219 10.3328 32.2031 10.6687C31.9883 11.0046 31.6953 11.2566 31.3242 11.4246C31.8477 11.5769 32.25 11.8367 32.5312 12.2039C32.8125 12.571 32.9531 13.0027 32.9531 13.4988C32.9531 13.8894 32.8613 14.2703 32.6777 14.6414C32.498 15.0085 32.25 15.3035 31.9336 15.5261C31.6211 15.7449 31.2344 15.8796 30.7734 15.9304C30.4844 15.9617 29.7871 15.9812 28.6816 15.989H25.7578V7.39917ZM27.4922 8.82886V10.8152H28.6289C29.3047 10.8152 29.7246 10.8054 29.8887 10.7859C30.1855 10.7507 30.418 10.6492 30.5859 10.4812C30.7578 10.3093 30.8438 10.0847 30.8438 9.80737C30.8438 9.54175 30.7695 9.3269 30.6211 9.16284C30.4766 8.99487 30.2598 8.89331 29.9707 8.85815C29.7988 8.83862 29.3047 8.82886 28.4883 8.82886H27.4922ZM27.4922 12.2449V14.5417H29.0977C29.7227 14.5417 30.1191 14.5242 30.2871 14.489C30.5449 14.4421 30.7539 14.3289 30.9141 14.1492C31.0781 13.9656 31.1602 13.7214 31.1602 13.4167C31.1602 13.1589 31.0977 12.9402 30.9727 12.7605C30.8477 12.5808 30.666 12.45 30.4277 12.3679C30.1934 12.2859 29.6816 12.2449 28.8926 12.2449H27.4922ZM34.4238 15.989V7.39917H37.207C38.2617 7.39917 38.9492 7.44214 39.2695 7.52808C39.7617 7.65698 40.1738 7.93823 40.5059 8.37183C40.8379 8.80151 41.0039 9.35815 41.0039 10.0417C41.0039 10.5691 40.9082 11.0125 40.7168 11.3718C40.5254 11.7312 40.2812 12.0144 39.9844 12.2214C39.6914 12.4246 39.3926 12.5593 39.0879 12.6257C38.6738 12.7078 38.0742 12.7488 37.2891 12.7488H36.1582V15.989H34.4238ZM36.1582 8.85229V11.2898H37.1074C37.791 11.2898 38.248 11.2449 38.4785 11.155C38.709 11.0652 38.8887 10.9246 39.0176 10.7332C39.1504 10.5417 39.2168 10.3191 39.2168 10.0652C39.2168 9.75269 39.125 9.49487 38.9414 9.29175C38.7578 9.08862 38.5254 8.96167 38.2441 8.91089C38.0371 8.87183 37.6211 8.85229 36.9961 8.85229H36.1582ZM42.4453 15.989V7.39917H44.1328L47.6484 13.1355V7.39917H49.2598V15.989H47.5195L44.0566 10.3875V15.989H42.4453ZM54.9492 15.989H53.3027V9.78394C52.7012 10.3464 51.9922 10.7625 51.1758 11.032V9.53784C51.6055 9.39722 52.0723 9.13159 52.5762 8.74097C53.0801 8.34644 53.4258 7.88745 53.6133 7.36401H54.9492V15.989Z" fill="white"/>
<defs>
<linearGradient id="paint0_linear_64_1913" x1="33" y1="1.98901" x2="33" y2="21.989" gradientUnits="userSpaceOnUse">
<stop stop-color="#853151"/>
<stop offset="1" stop-color="#C985D3"/>
</linearGradient>
</defs>
</svg>
