<svg width="97" height="24" viewBox="0 0 97 24" fill="none" xmlns="http://www.w3.org/2000/svg">
<rect x="1" y="1.98901" width="95" height="20" rx="10" fill="url(#paint0_linear_35_1445)"/>
<rect x="1" y="1.98901" width="95" height="20" rx="10" stroke="#C2B64A" stroke-width="3" stroke-linejoin="round"/>
<path d="M17.0762 15.989H15.1895L14.4395 14.0378H11.0059L10.2969 15.989H8.45703L11.8027 7.39917H13.6367L17.0762 15.989ZM13.8828 12.5906L12.6992 9.40308L11.5391 12.5906H13.8828ZM18.0078 15.989V7.39917H21.6582C22.5762 7.39917 23.2422 7.47729 23.6562 7.63354C24.0742 7.78589 24.4082 8.05933 24.6582 8.45386C24.9082 8.84839 25.0332 9.29956 25.0332 9.80737C25.0332 10.4519 24.8438 10.9851 24.4648 11.407C24.0859 11.825 23.5195 12.0886 22.7656 12.198C23.1406 12.4167 23.4492 12.657 23.6914 12.9187C23.9375 13.1804 24.2676 13.6453 24.6816 14.3132L25.7305 15.989H23.6562L22.4023 14.1199C21.957 13.4519 21.6523 13.032 21.4883 12.8601C21.3242 12.6843 21.1504 12.5652 20.9668 12.5027C20.7832 12.4363 20.4922 12.4031 20.0938 12.4031H19.7422V15.989H18.0078ZM19.7422 11.032H21.0254C21.8574 11.032 22.377 10.9968 22.584 10.9265C22.791 10.8562 22.9531 10.7351 23.0703 10.5632C23.1875 10.3914 23.2461 10.1765 23.2461 9.9187C23.2461 9.62964 23.168 9.39722 23.0117 9.22144C22.8594 9.04175 22.6426 8.92847 22.3613 8.88159C22.2207 8.86206 21.7988 8.85229 21.0957 8.85229H19.7422V11.032ZM26.6797 15.989V7.39917H28.4141V10.78H31.8125V7.39917H33.5469V15.989H31.8125V12.2332H28.4141V15.989H26.6797ZM39.3418 12.8308V11.3835H43.0801V14.8054C42.7168 15.157 42.1895 15.4675 41.498 15.7371C40.8105 16.0027 40.1133 16.1355 39.4062 16.1355C38.5078 16.1355 37.7246 15.948 37.0566 15.573C36.3887 15.1941 35.8867 14.655 35.5508 13.9558C35.2148 13.2527 35.0469 12.489 35.0469 11.6648C35.0469 10.7703 35.2344 9.97534 35.6094 9.28003C35.9844 8.58472 36.5332 8.05151 37.2559 7.68042C37.8066 7.39526 38.4922 7.25269 39.3125 7.25269C40.3789 7.25269 41.2109 7.47729 41.8086 7.92651C42.4102 8.37183 42.7969 8.98901 42.9688 9.77808L41.2461 10.1003C41.125 9.67847 40.8965 9.34644 40.5605 9.10425C40.2285 8.85815 39.8125 8.73511 39.3125 8.73511C38.5547 8.73511 37.9512 8.97534 37.502 9.45581C37.0566 9.93628 36.834 10.6492 36.834 11.5945C36.834 12.614 37.0605 13.3796 37.5137 13.8914C37.9668 14.3992 38.5605 14.6531 39.2949 14.6531C39.6582 14.6531 40.0215 14.5828 40.3848 14.4421C40.752 14.2976 41.0664 14.1238 41.3281 13.9207V12.8308H39.3418ZM44.6855 15.989V7.39917H51.0547V8.85229H46.4199V10.7566H50.7324V12.2039H46.4199V14.5417H51.2188V15.989H44.6855ZM52.7012 15.989V7.39917H58.5898V8.85229H54.4355V10.8855H58.0215V12.3386H54.4355V15.989H52.7012ZM63.875 15.989H62.2285V9.78394C61.627 10.3464 60.918 10.7625 60.1016 11.032V9.53784C60.5312 9.39722 60.998 9.13159 61.502 8.74097C62.0059 8.34644 62.3516 7.88745 62.5391 7.36401H63.875V15.989ZM69.8867 15.989H68.2402V9.78394C67.6387 10.3464 66.9297 10.7625 66.1133 11.032V9.53784C66.543 9.39722 67.0098 9.13159 67.5137 8.74097C68.0176 8.34644 68.3633 7.88745 68.5508 7.36401H69.8867V15.989ZM72.6641 14.3425H74.3105V15.5203C74.3105 15.9968 74.2695 16.3718 74.1875 16.6453C74.1055 16.9226 73.9492 17.1707 73.7188 17.3894C73.4922 17.6082 73.2031 17.78 72.8516 17.905L72.5293 17.2253C72.8613 17.116 73.0977 16.9656 73.2383 16.7742C73.3789 16.5828 73.4531 16.321 73.4609 15.989H72.6641V14.3425ZM79.9062 15.989H78.2598V9.78394C77.6582 10.3464 76.9492 10.7625 76.1328 11.032V9.53784C76.5625 9.39722 77.0293 9.13159 77.5332 8.74097C78.0371 8.34644 78.3828 7.88745 78.5703 7.36401H79.9062V15.989ZM87.9336 14.4597V15.989H82.1621C82.2246 15.4109 82.4121 14.864 82.7246 14.3484C83.0371 13.8289 83.6543 13.1414 84.5762 12.2859C85.3184 11.5945 85.7734 11.1257 85.9414 10.8796C86.168 10.5398 86.2812 10.2039 86.2812 9.87183C86.2812 9.50464 86.1816 9.22339 85.9824 9.02808C85.7871 8.82886 85.5156 8.72925 85.168 8.72925C84.8242 8.72925 84.5508 8.83276 84.3477 9.03979C84.1445 9.24683 84.0273 9.59058 83.9961 10.071L82.3555 9.90698C82.4531 9.00073 82.7598 8.35034 83.2754 7.95581C83.791 7.56128 84.4355 7.36401 85.209 7.36401C86.0566 7.36401 86.7227 7.59253 87.207 8.04956C87.6914 8.50659 87.9336 9.07495 87.9336 9.75464C87.9336 10.1414 87.8633 10.5105 87.7227 10.8621C87.5859 11.2097 87.3672 11.575 87.0664 11.9578C86.8672 12.2117 86.5078 12.5769 85.9883 13.0535C85.4688 13.53 85.1387 13.8464 84.998 14.0027C84.8613 14.1589 84.75 14.3113 84.6641 14.4597H87.9336Z" fill="white"/>
<defs>
<linearGradient id="paint0_linear_35_1445" x1="48.5" y1="1.98901" x2="48.5" y2="21.989" gradientUnits="userSpaceOnUse">
<stop stop-color="#C2B64A"/>
<stop offset="1" stop-color="#0F542D"/>
</linearGradient>
</defs>
</svg>
