<svg width="61" height="24" viewBox="0 0 61 24" fill="none" xmlns="http://www.w3.org/2000/svg">
<rect x="2" y="1.98901" width="58" height="20" rx="10" fill="url(#paint0_linear_67_1819)"/>
<rect x="2" y="1.98901" width="58" height="20" rx="10" stroke="#214B63" stroke-width="3" stroke-linejoin="round"/>
<path d="M10.1875 15.989V7.39917H12.9707C14.0254 7.39917 14.7129 7.44214 15.0332 7.52808C15.5254 7.65698 15.9375 7.93823 16.2695 8.37183C16.6016 8.80151 16.7676 9.35815 16.7676 10.0417C16.7676 10.5691 16.6719 11.0125 16.4805 11.3718C16.2891 11.7312 16.0449 12.0144 15.748 12.2214C15.4551 12.4246 15.1562 12.5593 14.8516 12.6257C14.4375 12.7078 13.8379 12.7488 13.0527 12.7488H11.9219V15.989H10.1875ZM11.9219 8.85229V11.2898H12.8711C13.5547 11.2898 14.0117 11.2449 14.2422 11.155C14.4727 11.0652 14.6523 10.9246 14.7812 10.7332C14.9141 10.5417 14.9805 10.3191 14.9805 10.0652C14.9805 9.75269 14.8887 9.49487 14.7051 9.29175C14.5215 9.08862 14.2891 8.96167 14.0078 8.91089C13.8008 8.87183 13.3848 8.85229 12.7598 8.85229H11.9219ZM18.1973 15.989V7.39917H21.8477C22.7656 7.39917 23.4316 7.47729 23.8457 7.63354C24.2637 7.78589 24.5977 8.05933 24.8477 8.45386C25.0977 8.84839 25.2227 9.29956 25.2227 9.80737C25.2227 10.4519 25.0332 10.9851 24.6543 11.407C24.2754 11.825 23.709 12.0886 22.9551 12.198C23.3301 12.4167 23.6387 12.657 23.8809 12.9187C24.127 13.1804 24.457 13.6453 24.8711 14.3132L25.9199 15.989H23.8457L22.5918 14.1199C22.1465 13.4519 21.8418 13.032 21.6777 12.8601C21.5137 12.6843 21.3398 12.5652 21.1562 12.5027C20.9727 12.4363 20.6816 12.4031 20.2832 12.4031H19.9316V15.989H18.1973ZM19.9316 11.032H21.2148C22.0469 11.032 22.5664 10.9968 22.7734 10.9265C22.9805 10.8562 23.1426 10.7351 23.2598 10.5632C23.377 10.3914 23.4355 10.1765 23.4355 9.9187C23.4355 9.62964 23.3574 9.39722 23.2012 9.22144C23.0488 9.04175 22.832 8.92847 22.5508 8.88159C22.4102 8.86206 21.9883 8.85229 21.2852 8.85229H19.9316V11.032ZM26.8398 15.989V7.39917H29.4355L30.9941 13.2585L32.5352 7.39917H35.1367V15.989H33.5254V9.22729L31.8203 15.989H30.1504L28.4512 9.22729V15.989H26.8398ZM40.709 15.989H39.0625V9.78394C38.4609 10.3464 37.752 10.7625 36.9355 11.032V9.53784C37.3652 9.39722 37.832 9.13159 38.3359 8.74097C38.8398 8.34644 39.1855 7.88745 39.373 7.36401H40.709V15.989ZM43.4863 14.3425H45.1328V15.5203C45.1328 15.9968 45.0918 16.3718 45.0098 16.6453C44.9277 16.9226 44.7715 17.1707 44.541 17.3894C44.3145 17.6082 44.0254 17.78 43.6738 17.905L43.3516 17.2253C43.6836 17.116 43.9199 16.9656 44.0605 16.7742C44.2012 16.5828 44.2754 16.321 44.2832 15.989H43.4863V14.3425ZM52.0762 14.4597V15.989H46.3047C46.3672 15.4109 46.5547 14.864 46.8672 14.3484C47.1797 13.8289 47.7969 13.1414 48.7188 12.2859C49.4609 11.5945 49.916 11.1257 50.084 10.8796C50.3105 10.5398 50.4238 10.2039 50.4238 9.87183C50.4238 9.50464 50.3242 9.22339 50.125 9.02808C49.9297 8.82886 49.6582 8.72925 49.3105 8.72925C48.9668 8.72925 48.6934 8.83276 48.4902 9.03979C48.2871 9.24683 48.1699 9.59058 48.1387 10.071L46.498 9.90698C46.5957 9.00073 46.9023 8.35034 47.418 7.95581C47.9336 7.56128 48.5781 7.36401 49.3516 7.36401C50.1992 7.36401 50.8652 7.59253 51.3496 8.04956C51.834 8.50659 52.0762 9.07495 52.0762 9.75464C52.0762 10.1414 52.0059 10.5105 51.8652 10.8621C51.7285 11.2097 51.5098 11.575 51.209 11.9578C51.0098 12.2117 50.6504 12.5769 50.1309 13.0535C49.6113 13.53 49.2812 13.8464 49.1406 14.0027C49.0039 14.1589 48.8926 14.3113 48.8066 14.4597H52.0762Z" fill="white"/>
<defs>
<linearGradient id="paint0_linear_67_1819" x1="31" y1="1.98901" x2="31" y2="21.989" gradientUnits="userSpaceOnUse">
<stop stop-color="#597E9A"/>
<stop offset="1" stop-color="#214B63"/>
</linearGradient>
</defs>
</svg>
