<svg width="51" height="24" viewBox="0 0 51 24" fill="none" xmlns="http://www.w3.org/2000/svg">
<rect x="2" y="1.98901" width="48" height="20" rx="10" fill="url(#paint0_linear_44_4214)"/>
<rect x="2" y="1.98901" width="48" height="20" rx="10" stroke="#C0008F" stroke-width="3" stroke-linejoin="round"/>
<path d="M14.1875 12.8308V11.3835H17.9258V14.8054C17.5625 15.157 17.0352 15.4675 16.3438 15.7371C15.6562 16.0027 14.959 16.1355 14.252 16.1355C13.3535 16.1355 12.5703 15.948 11.9023 15.573C11.2344 15.1941 10.7324 14.655 10.3965 13.9558C10.0605 13.2527 9.89258 12.489 9.89258 11.6648C9.89258 10.7703 10.0801 9.97534 10.4551 9.28003C10.8301 8.58472 11.3789 8.05151 12.1016 7.68042C12.6523 7.39526 13.3379 7.25269 14.1582 7.25269C15.2246 7.25269 16.0566 7.47729 16.6543 7.92651C17.2559 8.37183 17.6426 8.98901 17.8145 9.77808L16.0918 10.1003C15.9707 9.67847 15.7422 9.34644 15.4062 9.10425C15.0742 8.85815 14.6582 8.73511 14.1582 8.73511C13.4004 8.73511 12.7969 8.97534 12.3477 9.45581C11.9023 9.93628 11.6797 10.6492 11.6797 11.5945C11.6797 12.614 11.9062 13.3796 12.3594 13.8914C12.8125 14.3992 13.4062 14.6531 14.1406 14.6531C14.5039 14.6531 14.8672 14.5828 15.2305 14.4421C15.5977 14.2976 15.9121 14.1238 16.1738 13.9207V12.8308H14.1875ZM25.0273 12.8308L26.709 13.364C26.4512 14.3015 26.0215 14.9988 25.4199 15.4558C24.8223 15.9089 24.0625 16.1355 23.1406 16.1355C22 16.1355 21.0625 15.7468 20.3281 14.9695C19.5938 14.1882 19.2266 13.1218 19.2266 11.7703C19.2266 10.3406 19.5957 9.2312 20.334 8.44214C21.0723 7.64917 22.043 7.25269 23.2461 7.25269C24.2969 7.25269 25.1504 7.56323 25.8066 8.18433C26.1973 8.55151 26.4902 9.07886 26.6855 9.76636L24.9688 10.1765C24.8672 9.7312 24.6543 9.37964 24.3301 9.12183C24.0098 8.86401 23.6191 8.73511 23.1582 8.73511C22.5215 8.73511 22.0039 8.96362 21.6055 9.42065C21.2109 9.87769 21.0137 10.6179 21.0137 11.6414C21.0137 12.7273 21.209 13.5007 21.5996 13.9617C21.9902 14.4226 22.498 14.6531 23.123 14.6531C23.584 14.6531 23.9805 14.5066 24.3125 14.2136C24.6445 13.9207 24.8828 13.4597 25.0273 12.8308ZM28.2207 15.989V7.39917H29.9082L33.4238 13.1355V7.39917H35.0352V15.989H33.2949L29.832 10.3875V15.989H28.2207ZM40.7246 15.989H39.0781V9.78394C38.4766 10.3464 37.7676 10.7625 36.9512 11.032V9.53784C37.3809 9.39722 37.8477 9.13159 38.3516 8.74097C38.8555 8.34644 39.2012 7.88745 39.3887 7.36401H40.7246V15.989Z" fill="white"/>
<defs>
<linearGradient id="paint0_linear_44_4214" x1="26" y1="1.98901" x2="26" y2="21.989" gradientUnits="userSpaceOnUse">
<stop stop-color="#C0008F"/>
<stop offset="1" stop-color="#C9D200"/>
</linearGradient>
</defs>
</svg>
