<svg width="133" height="36" viewBox="0 0 133 36" fill="none" xmlns="http://www.w3.org/2000/svg">
<rect x="1" y="1.98901" width="131" height="32" rx="10" fill="url(#paint0_linear_66_2025)"/>
<rect x="1" y="1.98901" width="131" height="32" rx="10" stroke="#0052AF" stroke-width="3" stroke-linejoin="round"/>
<path d="M9.21875 14.989V6.39917H12.002C13.0566 6.39917 13.7441 6.44214 14.0645 6.52808C14.5566 6.65698 14.9688 6.93823 15.3008 7.37183C15.6328 7.80151 15.7988 8.35815 15.7988 9.04175C15.7988 9.56909 15.7031 10.0125 15.5117 10.3718C15.3203 10.7312 15.0762 11.0144 14.7793 11.2214C14.4863 11.4246 14.1875 11.5593 13.8828 11.6257C13.4688 11.7078 12.8691 11.7488 12.084 11.7488H10.9531V14.989H9.21875ZM10.9531 7.85229V10.2898H11.9023C12.5859 10.2898 13.043 10.2449 13.2734 10.155C13.5039 10.0652 13.6836 9.92456 13.8125 9.73315C13.9453 9.54175 14.0117 9.31909 14.0117 9.06519C14.0117 8.75269 13.9199 8.49487 13.7363 8.29175C13.5527 8.08862 13.3203 7.96167 13.0391 7.91089C12.832 7.87183 12.416 7.85229 11.791 7.85229H10.9531ZM16.8711 10.7468C16.8711 9.87183 17.002 9.13745 17.2637 8.5437C17.459 8.1062 17.7246 7.71362 18.0605 7.36597C18.4004 7.01831 18.7715 6.7605 19.1738 6.59253C19.709 6.36597 20.3262 6.25269 21.0254 6.25269C22.291 6.25269 23.3027 6.64526 24.0605 7.43042C24.8223 8.21558 25.2031 9.30737 25.2031 10.7058C25.2031 12.0925 24.8262 13.1785 24.0723 13.9636C23.3184 14.7449 22.3105 15.1355 21.0488 15.1355C19.7715 15.1355 18.7559 14.7468 18.002 13.9695C17.248 13.1882 16.8711 12.114 16.8711 10.7468ZM18.6582 10.6882C18.6582 11.6609 18.8828 12.3992 19.332 12.9031C19.7812 13.4031 20.3516 13.6531 21.043 13.6531C21.7344 13.6531 22.3008 13.405 22.7422 12.9089C23.1875 12.4089 23.4102 11.6609 23.4102 10.6648C23.4102 9.68042 23.1934 8.94604 22.7598 8.46167C22.3301 7.97729 21.7578 7.73511 21.043 7.73511C20.3281 7.73511 19.752 7.9812 19.3145 8.47339C18.877 8.96167 18.6582 9.69995 18.6582 10.6882ZM26.6094 14.989V6.46948H28.3438V13.5417H32.6562V14.989H26.6094ZM35.0527 14.989V11.3738L31.9062 6.39917H33.9395L35.9609 9.79761L37.9414 6.39917H39.9395L36.7812 11.3855V14.989H35.0527ZM47.4453 14.989H45.5586L44.8086 13.0378H41.375L40.666 14.989H38.8262L42.1719 6.39917H44.0059L47.4453 14.989ZM44.252 11.5906L43.0684 8.40308L41.9082 11.5906H44.252ZM48.3652 6.39917H51.5352C52.25 6.39917 52.7949 6.45386 53.1699 6.56323C53.6738 6.71167 54.1055 6.97534 54.4648 7.35425C54.8242 7.73315 55.0977 8.198 55.2852 8.74878C55.4727 9.29565 55.5664 9.97144 55.5664 10.7761C55.5664 11.4832 55.4785 12.0925 55.3027 12.6042C55.0879 13.2292 54.7812 13.7351 54.3828 14.1218C54.082 14.4148 53.6758 14.6433 53.1641 14.8074C52.7812 14.9285 52.2695 14.989 51.6289 14.989H48.3652V6.39917ZM50.0996 7.85229V13.5417H51.3945C51.8789 13.5417 52.2285 13.5144 52.4434 13.4597C52.7246 13.3894 52.957 13.2703 53.1406 13.1023C53.3281 12.9343 53.4805 12.6589 53.5977 12.2761C53.7148 11.8894 53.7734 11.364 53.7734 10.7C53.7734 10.0359 53.7148 9.52612 53.5977 9.17065C53.4805 8.81519 53.3164 8.53784 53.1055 8.33862C52.8945 8.1394 52.627 8.00464 52.3027 7.93433C52.0605 7.87964 51.5859 7.85229 50.8789 7.85229H50.0996ZM57.043 14.989V6.39917H63.4121V7.85229H58.7773V9.75659H63.0898V11.2039H58.7773V13.5417H63.5762V14.989H57.043ZM65.0645 14.989V6.39917H66.752L70.2676 12.1355V6.39917H71.8789V14.989H70.1387L66.6758 9.38745V14.989H65.0645ZM75.9746 14.989V11.3738L72.8281 6.39917H74.8613L76.8828 9.79761L78.8633 6.39917H80.8613L77.7031 11.3855V14.989H75.9746ZM81.7695 14.989V6.46948H83.5039V13.5417H87.8164V14.989H81.7695ZM96.8047 14.989H94.918L94.168 13.0378H90.7344L90.0254 14.989H88.1855L91.5312 6.39917H93.3652L96.8047 14.989ZM93.6113 11.5906L92.4277 8.40308L91.2676 11.5906H93.6113ZM98.7734 14.989V7.85229H96.2246V6.39917H103.051V7.85229H100.508V14.989H98.7734ZM104.123 14.989V6.39917H105.857V14.989H104.123ZM107.164 10.7468C107.164 9.87183 107.295 9.13745 107.557 8.5437C107.752 8.1062 108.018 7.71362 108.354 7.36597C108.693 7.01831 109.064 6.7605 109.467 6.59253C110.002 6.36597 110.619 6.25269 111.318 6.25269C112.584 6.25269 113.596 6.64526 114.354 7.43042C115.115 8.21558 115.496 9.30737 115.496 10.7058C115.496 12.0925 115.119 13.1785 114.365 13.9636C113.611 14.7449 112.604 15.1355 111.342 15.1355C110.064 15.1355 109.049 14.7468 108.295 13.9695C107.541 13.1882 107.164 12.114 107.164 10.7468ZM108.951 10.6882C108.951 11.6609 109.176 12.3992 109.625 12.9031C110.074 13.4031 110.645 13.6531 111.336 13.6531C112.027 13.6531 112.594 13.405 113.035 12.9089C113.48 12.4089 113.703 11.6609 113.703 10.6648C113.703 9.68042 113.486 8.94604 113.053 8.46167C112.623 7.97729 112.051 7.73511 111.336 7.73511C110.621 7.73511 110.045 7.9812 109.607 8.47339C109.17 8.96167 108.951 9.69995 108.951 10.6882ZM116.873 14.989V6.39917H118.561L122.076 12.1355V6.39917H123.688V14.989H121.947L118.484 9.38745V14.989H116.873ZM40.6895 28.989V20.3992H43.4727C44.5273 20.3992 45.2148 20.4421 45.5352 20.5281C46.0273 20.657 46.4395 20.9382 46.7715 21.3718C47.1035 21.8015 47.2695 22.3582 47.2695 23.0417C47.2695 23.5691 47.1738 24.0125 46.9824 24.3718C46.791 24.7312 46.5469 25.0144 46.25 25.2214C45.957 25.4246 45.6582 25.5593 45.3535 25.6257C44.9395 25.7078 44.3398 25.7488 43.5547 25.7488H42.4238V28.989H40.6895ZM42.4238 21.8523V24.2898H43.373C44.0566 24.2898 44.5137 24.2449 44.7441 24.155C44.9746 24.0652 45.1543 23.9246 45.2832 23.7332C45.416 23.5417 45.4824 23.3191 45.4824 23.0652C45.4824 22.7527 45.3906 22.4949 45.207 22.2917C45.0234 22.0886 44.791 21.9617 44.5098 21.9109C44.3027 21.8718 43.8867 21.8523 43.2617 21.8523H42.4238ZM48.6992 28.989V20.3992H52.3496C53.2676 20.3992 53.9336 20.4773 54.3477 20.6335C54.7656 20.7859 55.0996 21.0593 55.3496 21.4539C55.5996 21.8484 55.7246 22.2996 55.7246 22.8074C55.7246 23.4519 55.5352 23.9851 55.1562 24.407C54.7773 24.825 54.2109 25.0886 53.457 25.198C53.832 25.4167 54.1406 25.657 54.3828 25.9187C54.6289 26.1804 54.959 26.6453 55.373 27.3132L56.4219 28.989H54.3477L53.0938 27.1199C52.6484 26.4519 52.3438 26.032 52.1797 25.8601C52.0156 25.6843 51.8418 25.5652 51.6582 25.5027C51.4746 25.4363 51.1836 25.4031 50.7852 25.4031H50.4336V28.989H48.6992ZM50.4336 24.032H51.7168C52.5488 24.032 53.0684 23.9968 53.2754 23.9265C53.4824 23.8562 53.6445 23.7351 53.7617 23.5632C53.8789 23.3914 53.9375 23.1765 53.9375 22.9187C53.9375 22.6296 53.8594 22.3972 53.7031 22.2214C53.5508 22.0417 53.334 21.9285 53.0527 21.8816C52.9121 21.8621 52.4902 21.8523 51.7871 21.8523H50.4336V24.032ZM57.0137 24.7468C57.0137 23.8718 57.1445 23.1375 57.4062 22.5437C57.6016 22.1062 57.8672 21.7136 58.2031 21.366C58.543 21.0183 58.9141 20.7605 59.3164 20.5925C59.8516 20.366 60.4688 20.2527 61.168 20.2527C62.4336 20.2527 63.4453 20.6453 64.2031 21.4304C64.9648 22.2156 65.3457 23.3074 65.3457 24.7058C65.3457 26.0925 64.9688 27.1785 64.2148 27.9636C63.4609 28.7449 62.4531 29.1355 61.1914 29.1355C59.9141 29.1355 58.8984 28.7468 58.1445 27.9695C57.3906 27.1882 57.0137 26.114 57.0137 24.7468ZM58.8008 24.6882C58.8008 25.6609 59.0254 26.3992 59.4746 26.9031C59.9238 27.4031 60.4941 27.6531 61.1855 27.6531C61.877 27.6531 62.4434 27.405 62.8848 26.9089C63.3301 26.4089 63.5527 25.6609 63.5527 24.6648C63.5527 23.6804 63.3359 22.946 62.9023 22.4617C62.4727 21.9773 61.9004 21.7351 61.1855 21.7351C60.4707 21.7351 59.8945 21.9812 59.457 22.4734C59.0195 22.9617 58.8008 23.7 58.8008 24.6882ZM68.6387 28.989V21.8523H66.0898V20.3992H72.916V21.8523H70.373V28.989H68.6387ZM74.041 28.989V20.3992H80.4102V21.8523H75.7754V23.7566H80.0879V25.2039H75.7754V27.5417H80.5742V28.989H74.041ZM81.9922 28.989V20.3992H83.7266V28.989H81.9922ZM85.4023 28.989V20.3992H87.0898L90.6055 26.1355V20.3992H92.2168V28.989H90.4766L87.0137 23.3875V28.989H85.4023Z" fill="white"/>
<defs>
<linearGradient id="paint0_linear_66_2025" x1="66.5" y1="1.98901" x2="66.5" y2="33.989" gradientUnits="userSpaceOnUse">
<stop stop-color="#73BABF"/>
<stop offset="1" stop-color="#06A2B2"/>
</linearGradient>
</defs>
</svg>
