<svg width="93" height="24" viewBox="0 0 93 24" fill="none" xmlns="http://www.w3.org/2000/svg">
<rect x="1" y="1.98901" width="91" height="20" rx="10" fill="url(#paint0_linear_40_2510)"/>
<rect x="1" y="1.98901" width="91" height="20" rx="10" stroke="#325F75" stroke-width="3" stroke-linejoin="round"/>
<path d="M14.502 12.8308L16.1836 13.364C15.9258 14.3015 15.4961 14.9988 14.8945 15.4558C14.2969 15.9089 13.5371 16.1355 12.6152 16.1355C11.4746 16.1355 10.5371 15.7468 9.80273 14.9695C9.06836 14.1882 8.70117 13.1218 8.70117 11.7703C8.70117 10.3406 9.07031 9.2312 9.80859 8.44214C10.5469 7.64917 11.5176 7.25269 12.7207 7.25269C13.7715 7.25269 14.625 7.56323 15.2812 8.18433C15.6719 8.55151 15.9648 9.07886 16.1602 9.76636L14.4434 10.1765C14.3418 9.7312 14.1289 9.37964 13.8047 9.12183C13.4844 8.86401 13.0938 8.73511 12.6328 8.73511C11.9961 8.73511 11.4785 8.96362 11.0801 9.42065C10.6855 9.87769 10.4883 10.6179 10.4883 11.6414C10.4883 12.7273 10.6836 13.5007 11.0742 13.9617C11.4648 14.4226 11.9727 14.6531 12.5977 14.6531C13.0586 14.6531 13.4551 14.5066 13.7871 14.2136C14.1191 13.9207 14.3574 13.4597 14.502 12.8308ZM17.6719 7.39917H20.8418C21.5566 7.39917 22.1016 7.45386 22.4766 7.56323C22.9805 7.71167 23.4121 7.97534 23.7715 8.35425C24.1309 8.73315 24.4043 9.198 24.5918 9.74878C24.7793 10.2957 24.873 10.9714 24.873 11.7761C24.873 12.4832 24.7852 13.0925 24.6094 13.6042C24.3945 14.2292 24.0879 14.7351 23.6895 15.1218C23.3887 15.4148 22.9824 15.6433 22.4707 15.8074C22.0879 15.9285 21.5762 15.989 20.9355 15.989H17.6719V7.39917ZM19.4062 8.85229V14.5417H20.7012C21.1855 14.5417 21.5352 14.5144 21.75 14.4597C22.0312 14.3894 22.2637 14.2703 22.4473 14.1023C22.6348 13.9343 22.7871 13.6589 22.9043 13.2761C23.0215 12.8894 23.0801 12.364 23.0801 11.7C23.0801 11.0359 23.0215 10.5261 22.9043 10.1707C22.7871 9.81519 22.623 9.53784 22.4121 9.33862C22.2012 9.1394 21.9336 9.00464 21.6094 8.93433C21.3672 8.87964 20.8926 8.85229 20.1855 8.85229H19.4062ZM26.373 15.989V7.39917H28.1074V11.2136L31.6113 7.39917H33.9434L30.709 10.7449L34.1191 15.989H31.875L29.5137 11.9578L28.1074 13.3933V15.989H26.373ZM34.6816 13.78L36.3223 13.6101C36.3691 13.9812 36.5078 14.2761 36.7383 14.4949C36.9688 14.7097 37.2344 14.8171 37.5352 14.8171C37.8789 14.8171 38.1699 14.6785 38.4082 14.4011C38.6465 14.1199 38.7656 13.698 38.7656 13.1355C38.7656 12.6082 38.6465 12.2136 38.4082 11.9519C38.1738 11.6863 37.8672 11.5535 37.4883 11.5535C37.0156 11.5535 36.5918 11.7625 36.2168 12.1804L34.8809 11.9871L35.7246 7.51636H40.0781V9.05737H36.9727L36.7148 10.5164C37.082 10.3328 37.457 10.241 37.8398 10.241C38.5703 10.241 39.1895 10.5066 39.6973 11.0378C40.2051 11.5691 40.459 12.2585 40.459 13.1062C40.459 13.8132 40.2539 14.4441 39.8438 14.9988C39.2852 15.7566 38.5098 16.1355 37.5176 16.1355C36.7246 16.1355 36.0781 15.9226 35.5781 15.4968C35.0781 15.071 34.7793 14.4988 34.6816 13.78ZM41.707 15.989V7.39917H45.3574C46.2754 7.39917 46.9414 7.47729 47.3555 7.63354C47.7734 7.78589 48.1074 8.05933 48.3574 8.45386C48.6074 8.84839 48.7324 9.29956 48.7324 9.80737C48.7324 10.4519 48.543 10.9851 48.1641 11.407C47.7852 11.825 47.2188 12.0886 46.4648 12.198C46.8398 12.4167 47.1484 12.657 47.3906 12.9187C47.6367 13.1804 47.9668 13.6453 48.3809 14.3132L49.4297 15.989H47.3555L46.1016 14.1199C45.6562 13.4519 45.3516 13.032 45.1875 12.8601C45.0234 12.6843 44.8496 12.5652 44.666 12.5027C44.4824 12.4363 44.1914 12.4031 43.793 12.4031H43.4414V15.989H41.707ZM43.4414 11.032H44.7246C45.5566 11.032 46.0762 10.9968 46.2832 10.9265C46.4902 10.8562 46.6523 10.7351 46.7695 10.5632C46.8867 10.3914 46.9453 10.1765 46.9453 9.9187C46.9453 9.62964 46.8672 9.39722 46.7109 9.22144C46.5586 9.04175 46.3418 8.92847 46.0605 8.88159C45.9199 8.86206 45.498 8.85229 44.7949 8.85229H43.4414V11.032ZM54.2227 15.989H52.5762V9.78394C51.9746 10.3464 51.2656 10.7625 50.4492 11.032V9.53784C50.8789 9.39722 51.3457 9.13159 51.8496 8.74097C52.3535 8.34644 52.6992 7.88745 52.8867 7.36401H54.2227V15.989ZM59.7715 18.5144H58.6406C58.043 17.6121 57.5879 16.6746 57.2754 15.7019C56.9629 14.7292 56.8066 13.7878 56.8066 12.8777C56.8066 11.7488 57 10.6804 57.3867 9.67261C57.7227 8.79761 58.1484 7.99097 58.6641 7.25269H59.7891C59.2539 8.43628 58.8848 9.44409 58.6816 10.2761C58.4824 11.1042 58.3828 11.9832 58.3828 12.9128C58.3828 13.5535 58.4414 14.2097 58.5586 14.8816C58.6797 15.5535 58.8438 16.1921 59.0508 16.7976C59.1875 17.196 59.4277 17.7683 59.7715 18.5144ZM60.9902 9.76636H62.5254V10.6804C62.7246 10.3679 62.9941 10.114 63.334 9.9187C63.6738 9.72339 64.0508 9.62573 64.4648 9.62573C65.1875 9.62573 65.8008 9.90894 66.3047 10.4753C66.8086 11.0417 67.0605 11.8308 67.0605 12.8425C67.0605 13.8816 66.8066 14.6902 66.2988 15.2683C65.791 15.8425 65.1758 16.1296 64.4531 16.1296C64.1094 16.1296 63.7969 16.0613 63.5156 15.9246C63.2383 15.7878 62.9453 15.5535 62.6367 15.2214V18.3562H60.9902V9.76636ZM62.6191 12.7722C62.6191 13.4714 62.7578 13.989 63.0352 14.325C63.3125 14.657 63.6504 14.823 64.0488 14.823C64.4316 14.823 64.75 14.6707 65.0039 14.366C65.2578 14.0574 65.3848 13.5535 65.3848 12.8542C65.3848 12.2019 65.2539 11.7175 64.9922 11.4011C64.7305 11.0847 64.4062 10.9265 64.0195 10.9265C63.6172 10.9265 63.2832 11.0828 63.0176 11.3953C62.752 11.7039 62.6191 12.1628 62.6191 12.7722ZM73.582 14.4597V15.989H67.8105C67.873 15.4109 68.0605 14.864 68.373 14.3484C68.6855 13.8289 69.3027 13.1414 70.2246 12.2859C70.9668 11.5945 71.4219 11.1257 71.5898 10.8796C71.8164 10.5398 71.9297 10.2039 71.9297 9.87183C71.9297 9.50464 71.8301 9.22339 71.6309 9.02808C71.4355 8.82886 71.1641 8.72925 70.8164 8.72925C70.4727 8.72925 70.1992 8.83276 69.9961 9.03979C69.793 9.24683 69.6758 9.59058 69.6445 10.071L68.0039 9.90698C68.1016 9.00073 68.4082 8.35034 68.9238 7.95581C69.4395 7.56128 70.084 7.36401 70.8574 7.36401C71.7051 7.36401 72.3711 7.59253 72.8555 8.04956C73.3398 8.50659 73.582 9.07495 73.582 9.75464C73.582 10.1414 73.5117 10.5105 73.3711 10.8621C73.2344 11.2097 73.0156 11.575 72.7148 11.9578C72.5156 12.2117 72.1562 12.5769 71.6367 13.0535C71.1172 13.53 70.7871 13.8464 70.6465 14.0027C70.5098 14.1589 70.3984 14.3113 70.3125 14.4597H73.582ZM74.7246 13.78L76.3652 13.6101C76.4121 13.9812 76.5508 14.2761 76.7812 14.4949C77.0117 14.7097 77.2773 14.8171 77.5781 14.8171C77.9219 14.8171 78.2129 14.6785 78.4512 14.4011C78.6895 14.1199 78.8086 13.698 78.8086 13.1355C78.8086 12.6082 78.6895 12.2136 78.4512 11.9519C78.2168 11.6863 77.9102 11.5535 77.5312 11.5535C77.0586 11.5535 76.6348 11.7625 76.2598 12.1804L74.9238 11.9871L75.7676 7.51636H80.1211V9.05737H77.0156L76.7578 10.5164C77.125 10.3328 77.5 10.241 77.8828 10.241C78.6133 10.241 79.2324 10.5066 79.7402 11.0378C80.248 11.5691 80.502 12.2585 80.502 13.1062C80.502 13.8132 80.2969 14.4441 79.8867 14.9988C79.3281 15.7566 78.5527 16.1355 77.5605 16.1355C76.7676 16.1355 76.1211 15.9226 75.6211 15.4968C75.1211 15.071 74.8223 14.4988 74.7246 13.78ZM81.2754 18.5144C81.5996 17.8191 81.8281 17.2859 81.9609 16.9148C82.0938 16.5437 82.2168 16.116 82.3301 15.6316C82.4434 15.1472 82.5273 14.6882 82.582 14.2546C82.6367 13.8171 82.6641 13.3699 82.6641 12.9128C82.6641 11.9832 82.5645 11.1042 82.3652 10.2761C82.166 9.44409 81.7988 8.43628 81.2637 7.25269H82.3828C82.9727 8.09253 83.4297 8.98315 83.7539 9.92456C84.082 10.866 84.2461 11.821 84.2461 12.7898C84.2461 13.6062 84.1172 14.4812 83.8594 15.4148C83.5664 16.4617 83.084 17.4949 82.4121 18.5144H81.2754Z" fill="white"/>
<defs>
<linearGradient id="paint0_linear_40_2510" x1="46.5" y1="1.98901" x2="46.5" y2="21.989" gradientUnits="userSpaceOnUse">
<stop stop-color="#325F75"/>
<stop offset="1" stop-color="#C570D8"/>
</linearGradient>
</defs>
</svg>
