<svg width="123" height="24" viewBox="0 0 123 24" fill="none" xmlns="http://www.w3.org/2000/svg">
<rect x="1" y="1.98901" width="121" height="20" rx="10" fill="url(#paint0_linear_45_4251)"/>
<rect x="1" y="1.98901" width="121" height="20" rx="10" stroke="#1A509E" stroke-width="3" stroke-linejoin="round"/>
<path d="M12.8906 12.8308V11.3835H16.6289V14.8054C16.2656 15.157 15.7383 15.4675 15.0469 15.7371C14.3594 16.0027 13.6621 16.1355 12.9551 16.1355C12.0566 16.1355 11.2734 15.948 10.6055 15.573C9.9375 15.1941 9.43555 14.655 9.09961 13.9558C8.76367 13.2527 8.5957 12.489 8.5957 11.6648C8.5957 10.7703 8.7832 9.97534 9.1582 9.28003C9.5332 8.58472 10.082 8.05151 10.8047 7.68042C11.3555 7.39526 12.041 7.25269 12.8613 7.25269C13.9277 7.25269 14.7598 7.47729 15.3574 7.92651C15.959 8.37183 16.3457 8.98901 16.5176 9.77808L14.7949 10.1003C14.6738 9.67847 14.4453 9.34644 14.1094 9.10425C13.7773 8.85815 13.3613 8.73511 12.8613 8.73511C12.1035 8.73511 11.5 8.97534 11.0508 9.45581C10.6055 9.93628 10.3828 10.6492 10.3828 11.5945C10.3828 12.614 10.6094 13.3796 11.0625 13.8914C11.5156 14.3992 12.1094 14.6531 12.8438 14.6531C13.207 14.6531 13.5703 14.5828 13.9336 14.4421C14.3008 14.2976 14.6152 14.1238 14.877 13.9207V12.8308H12.8906ZM18.2812 15.989V7.46948H20.0156V14.5417H24.3281V15.989H18.2812ZM26.7246 15.989V12.3738L23.5781 7.39917H25.6113L27.6328 10.7976L29.6133 7.39917H31.6113L28.4531 12.3855V15.989H26.7246ZM37.9688 12.8308L39.6504 13.364C39.3926 14.3015 38.9629 14.9988 38.3613 15.4558C37.7637 15.9089 37.0039 16.1355 36.082 16.1355C34.9414 16.1355 34.0039 15.7468 33.2695 14.9695C32.5352 14.1882 32.168 13.1218 32.168 11.7703C32.168 10.3406 32.5371 9.2312 33.2754 8.44214C34.0137 7.64917 34.9844 7.25269 36.1875 7.25269C37.2383 7.25269 38.0918 7.56323 38.748 8.18433C39.1387 8.55151 39.4316 9.07886 39.627 9.76636L37.9102 10.1765C37.8086 9.7312 37.5957 9.37964 37.2715 9.12183C36.9512 8.86401 36.5605 8.73511 36.0996 8.73511C35.4629 8.73511 34.9453 8.96362 34.5469 9.42065C34.1523 9.87769 33.9551 10.6179 33.9551 11.6414C33.9551 12.7273 34.1504 13.5007 34.541 13.9617C34.9316 14.4226 35.4395 14.6531 36.0645 14.6531C36.5254 14.6531 36.9219 14.5066 37.2539 14.2136C37.5859 13.9207 37.8242 13.4597 37.9688 12.8308ZM40.793 11.7468C40.793 10.8718 40.9238 10.1375 41.1855 9.5437C41.3809 9.1062 41.6465 8.71362 41.9824 8.36597C42.3223 8.01831 42.6934 7.7605 43.0957 7.59253C43.6309 7.36597 44.248 7.25269 44.9473 7.25269C46.2129 7.25269 47.2246 7.64526 47.9824 8.43042C48.7441 9.21558 49.125 10.3074 49.125 11.7058C49.125 13.0925 48.748 14.1785 47.9941 14.9636C47.2402 15.7449 46.2324 16.1355 44.9707 16.1355C43.6934 16.1355 42.6777 15.7468 41.9238 14.9695C41.1699 14.1882 40.793 13.114 40.793 11.7468ZM42.5801 11.6882C42.5801 12.6609 42.8047 13.3992 43.2539 13.9031C43.7031 14.4031 44.2734 14.6531 44.9648 14.6531C45.6562 14.6531 46.2227 14.405 46.6641 13.9089C47.1094 13.4089 47.332 12.6609 47.332 11.6648C47.332 10.6804 47.1152 9.94604 46.6816 9.46167C46.252 8.97729 45.6797 8.73511 44.9648 8.73511C44.25 8.73511 43.6738 8.9812 43.2363 9.47339C42.7988 9.96167 42.5801 10.7 42.5801 11.6882ZM50.2852 13.698V12.0515H53.5195V13.698H50.2852ZM54.5273 15.989V7.46948H56.2617V14.5417H60.5742V15.989H54.5273ZM61.8047 7.39917H63.5391V12.0515C63.5391 12.7898 63.5605 13.2683 63.6035 13.4871C63.6777 13.8386 63.8535 14.1218 64.1309 14.3367C64.4121 14.5476 64.7949 14.6531 65.2793 14.6531C65.7715 14.6531 66.1426 14.5535 66.3926 14.3542C66.6426 14.1511 66.793 13.9031 66.8438 13.6101C66.8945 13.3171 66.9199 12.8308 66.9199 12.1511V7.39917H68.6543V11.9109C68.6543 12.9421 68.6074 13.6707 68.5137 14.0964C68.4199 14.5222 68.2461 14.8816 67.9922 15.1746C67.7422 15.4675 67.4062 15.7019 66.9844 15.8777C66.5625 16.0496 66.0117 16.1355 65.332 16.1355C64.5117 16.1355 63.8887 16.0417 63.4629 15.8542C63.041 15.6628 62.707 15.4167 62.4609 15.116C62.2148 14.8113 62.0527 14.4929 61.9746 14.1609C61.8613 13.6687 61.8047 12.9421 61.8047 11.9812V7.39917ZM72.4219 15.989V8.85229H69.873V7.39917H76.6992V8.85229H74.1562V15.989H72.4219ZM77.8301 15.989V7.39917H81.4805C82.3984 7.39917 83.0645 7.47729 83.4785 7.63354C83.8965 7.78589 84.2305 8.05933 84.4805 8.45386C84.7305 8.84839 84.8555 9.29956 84.8555 9.80737C84.8555 10.4519 84.666 10.9851 84.2871 11.407C83.9082 11.825 83.3418 12.0886 82.5879 12.198C82.9629 12.4167 83.2715 12.657 83.5137 12.9187C83.7598 13.1804 84.0898 13.6453 84.5039 14.3132L85.5527 15.989H83.4785L82.2246 14.1199C81.7793 13.4519 81.4746 13.032 81.3105 12.8601C81.1465 12.6843 80.9727 12.5652 80.7891 12.5027C80.6055 12.4363 80.3145 12.4031 79.916 12.4031H79.5645V15.989H77.8301ZM79.5645 11.032H80.8477C81.6797 11.032 82.1992 10.9968 82.4062 10.9265C82.6133 10.8562 82.7754 10.7351 82.8926 10.5632C83.0098 10.3914 83.0684 10.1765 83.0684 9.9187C83.0684 9.62964 82.9902 9.39722 82.834 9.22144C82.6816 9.04175 82.4648 8.92847 82.1836 8.88159C82.043 8.86206 81.6211 8.85229 80.918 8.85229H79.5645V11.032ZM86.1445 11.7468C86.1445 10.8718 86.2754 10.1375 86.5371 9.5437C86.7324 9.1062 86.998 8.71362 87.334 8.36597C87.6738 8.01831 88.0449 7.7605 88.4473 7.59253C88.9824 7.36597 89.5996 7.25269 90.2988 7.25269C91.5645 7.25269 92.5762 7.64526 93.334 8.43042C94.0957 9.21558 94.4766 10.3074 94.4766 11.7058C94.4766 13.0925 94.0996 14.1785 93.3457 14.9636C92.5918 15.7449 91.584 16.1355 90.3223 16.1355C89.0449 16.1355 88.0293 15.7468 87.2754 14.9695C86.5215 14.1882 86.1445 13.114 86.1445 11.7468ZM87.9316 11.6882C87.9316 12.6609 88.1562 13.3992 88.6055 13.9031C89.0547 14.4031 89.625 14.6531 90.3164 14.6531C91.0078 14.6531 91.5742 14.405 92.0156 13.9089C92.4609 13.4089 92.6836 12.6609 92.6836 11.6648C92.6836 10.6804 92.4668 9.94604 92.0332 9.46167C91.6035 8.97729 91.0312 8.73511 90.3164 8.73511C89.6016 8.73511 89.0254 8.9812 88.5879 9.47339C88.1504 9.96167 87.9316 10.7 87.9316 11.6882ZM95.8359 15.989V7.39917H98.6191C99.6738 7.39917 100.361 7.44214 100.682 7.52808C101.174 7.65698 101.586 7.93823 101.918 8.37183C102.25 8.80151 102.416 9.35815 102.416 10.0417C102.416 10.5691 102.32 11.0125 102.129 11.3718C101.938 11.7312 101.693 12.0144 101.396 12.2214C101.104 12.4246 100.805 12.5593 100.5 12.6257C100.086 12.7078 99.4863 12.7488 98.7012 12.7488H97.5703V15.989H95.8359ZM97.5703 8.85229V11.2898H98.5195C99.2031 11.2898 99.6602 11.2449 99.8906 11.155C100.121 11.0652 100.301 10.9246 100.43 10.7332C100.562 10.5417 100.629 10.3191 100.629 10.0652C100.629 9.75269 100.537 9.49487 100.354 9.29175C100.17 9.08862 99.9375 8.96167 99.6562 8.91089C99.4492 8.87183 99.0332 8.85229 98.4082 8.85229H97.5703ZM103.787 15.989V7.39917H105.521V15.989H103.787ZM107.197 15.989V7.39917H108.885L112.4 13.1355V7.39917H114.012V15.989H112.271L108.809 10.3875V15.989H107.197Z" fill="white"/>
<defs>
<linearGradient id="paint0_linear_45_4251" x1="61.5" y1="1.98901" x2="61.5" y2="21.989" gradientUnits="userSpaceOnUse">
<stop stop-color="#1A509E"/>
<stop offset="1" stop-color="#C19E4F"/>
</linearGradient>
</defs>
</svg>
