<svg width="49" height="24" viewBox="0 0 49 24" fill="none" xmlns="http://www.w3.org/2000/svg">
<rect x="2" y="1.98901" width="46" height="20" rx="10" fill="url(#paint0_linear_35_1420)"/>
<rect x="2" y="1.98901" width="46" height="20" rx="10" stroke="#9900A8" stroke-width="3" stroke-linejoin="round"/>
<path d="M17.9395 15.989H16.0527L15.3027 14.0378H11.8691L11.1602 15.989H9.32031L12.666 7.39917H14.5L17.9395 15.989ZM14.7461 12.5906L13.5625 9.40308L12.4023 12.5906H14.7461ZM18.8887 15.989V7.39917H20.623V11.2136L24.127 7.39917H26.459L23.2246 10.7449L26.6348 15.989H24.3906L22.0293 11.9578L20.623 13.3933V15.989H18.8887ZM29.4707 15.989V8.85229H26.9219V7.39917H33.748V8.85229H31.2051V15.989H29.4707ZM38.7227 15.989H37.0762V9.78394C36.4746 10.3464 35.7656 10.7625 34.9492 11.032V9.53784C35.3789 9.39722 35.8457 9.13159 36.3496 8.74097C36.8535 8.34644 37.1992 7.88745 37.3867 7.36401H38.7227V15.989Z" fill="white"/>
<defs>
<linearGradient id="paint0_linear_35_1420" x1="25" y1="1.98901" x2="25" y2="21.989" gradientUnits="userSpaceOnUse">
<stop stop-color="#9900A8"/>
<stop offset="1" stop-color="#3F1741"/>
</linearGradient>
</defs>
</svg>
