<svg width="66" height="24" viewBox="0 0 66 24" fill="none" xmlns="http://www.w3.org/2000/svg">
<rect x="1" y="1.98901" width="64" height="20" rx="10" fill="url(#paint0_linear_97_5800)"/>
<rect x="1" y="1.98901" width="64" height="20" rx="10" stroke="#6E0037" stroke-width="3" stroke-linejoin="round"/>
<path d="M8.97656 15.989V7.39917H10.7109V10.78H14.1094V7.39917H15.8438V15.989H14.1094V12.2332H10.7109V15.989H8.97656ZM21.6387 12.8308V11.3835H25.377V14.8054C25.0137 15.157 24.4863 15.4675 23.7949 15.7371C23.1074 16.0027 22.4102 16.1355 21.7031 16.1355C20.8047 16.1355 20.0215 15.948 19.3535 15.573C18.6855 15.1941 18.1836 14.655 17.8477 13.9558C17.5117 13.2527 17.3438 12.489 17.3438 11.6648C17.3438 10.7703 17.5312 9.97534 17.9062 9.28003C18.2812 8.58472 18.8301 8.05151 19.5527 7.68042C20.1035 7.39526 20.7891 7.25269 21.6094 7.25269C22.6758 7.25269 23.5078 7.47729 24.1055 7.92651C24.707 8.37183 25.0938 8.98901 25.2656 9.77808L23.543 10.1003C23.4219 9.67847 23.1934 9.34644 22.8574 9.10425C22.5254 8.85815 22.1094 8.73511 21.6094 8.73511C20.8516 8.73511 20.248 8.97534 19.7988 9.45581C19.3535 9.93628 19.1309 10.6492 19.1309 11.5945C19.1309 12.614 19.3574 13.3796 19.8105 13.8914C20.2637 14.3992 20.8574 14.6531 21.5918 14.6531C21.9551 14.6531 22.3184 14.5828 22.6816 14.4421C23.0488 14.2976 23.3633 14.1238 23.625 13.9207V12.8308H21.6387ZM26.543 13.1941L28.2305 13.03C28.332 13.5964 28.5371 14.0125 28.8457 14.2781C29.1582 14.5437 29.5781 14.6765 30.1055 14.6765C30.6641 14.6765 31.084 14.5593 31.3652 14.325C31.6504 14.0867 31.793 13.8093 31.793 13.4929C31.793 13.2898 31.7324 13.1179 31.6113 12.9773C31.4941 12.8328 31.2871 12.7078 30.9902 12.6023C30.7871 12.532 30.3242 12.407 29.6016 12.2273C28.6719 11.9968 28.0195 11.7136 27.6445 11.3777C27.1172 10.905 26.8535 10.3289 26.8535 9.64917C26.8535 9.21167 26.9766 8.80347 27.2227 8.42456C27.4727 8.04175 27.8301 7.75073 28.2949 7.55151C28.7637 7.35229 29.3281 7.25269 29.9883 7.25269C31.0664 7.25269 31.877 7.48901 32.4199 7.96167C32.9668 8.43433 33.2539 9.06519 33.2812 9.85425L31.5469 9.93042C31.4727 9.48901 31.3125 9.17261 31.0664 8.9812C30.8242 8.78589 30.459 8.68823 29.9707 8.68823C29.4668 8.68823 29.0723 8.79175 28.7871 8.99878C28.6035 9.13159 28.5117 9.30933 28.5117 9.53198C28.5117 9.73511 28.5977 9.90894 28.7695 10.0535C28.9883 10.2371 29.5195 10.4285 30.3633 10.6277C31.207 10.8269 31.8301 11.0339 32.2324 11.2488C32.6387 11.4597 32.9551 11.7507 33.1816 12.1218C33.4121 12.489 33.5273 12.9441 33.5273 13.4871C33.5273 13.9792 33.3906 14.4402 33.1172 14.8699C32.8438 15.2996 32.457 15.6199 31.957 15.8308C31.457 16.0378 30.834 16.1414 30.0879 16.1414C29.002 16.1414 28.168 15.8914 27.5859 15.3914C27.0039 14.8875 26.6562 14.155 26.543 13.1941ZM35.0039 15.989V7.39917H36.6914L40.207 13.1355V7.39917H41.8184V15.989H40.0781L36.6152 10.3875V15.989H35.0039ZM51.4043 15.989H49.5176L48.7676 14.0378H45.334L44.625 15.989H42.7852L46.1309 7.39917H47.9648L51.4043 15.989ZM48.2109 12.5906L47.0273 9.40308L45.8672 12.5906H48.2109ZM53.373 15.989V8.85229H50.8242V7.39917H57.6504V8.85229H55.1074V15.989H53.373Z" fill="white"/>
<defs>
<linearGradient id="paint0_linear_97_5800" x1="33" y1="1.98901" x2="33" y2="21.989" gradientUnits="userSpaceOnUse">
<stop stop-color="#A3FFA5"/>
<stop offset="1" stop-color="#6E0037"/>
</linearGradient>
</defs>
</svg>
