<svg width="44" height="24" viewBox="0 0 44 24" fill="none" xmlns="http://www.w3.org/2000/svg">
<rect x="2" y="1.98901" width="41" height="20" rx="10" fill="url(#paint0_linear_64_1831)"/>
<rect x="2" y="1.98901" width="41" height="20" rx="10" stroke="#1AB2C9" stroke-width="3" stroke-linejoin="round"/>
<path d="M10.3828 15.989V7.39917H12.0703L15.5859 13.1355V7.39917H17.1973V15.989H15.457L11.9941 10.3875V15.989H10.3828ZM24.5332 12.8308L26.2148 13.364C25.957 14.3015 25.5273 14.9988 24.9258 15.4558C24.3281 15.9089 23.5684 16.1355 22.6465 16.1355C21.5059 16.1355 20.5684 15.7468 19.834 14.9695C19.0996 14.1882 18.7324 13.1218 18.7324 11.7703C18.7324 10.3406 19.1016 9.2312 19.8398 8.44214C20.5781 7.64917 21.5488 7.25269 22.752 7.25269C23.8027 7.25269 24.6562 7.56323 25.3125 8.18433C25.7031 8.55151 25.9961 9.07886 26.1914 9.76636L24.4746 10.1765C24.373 9.7312 24.1602 9.37964 23.8359 9.12183C23.5156 8.86401 23.125 8.73511 22.6641 8.73511C22.0273 8.73511 21.5098 8.96362 21.1113 9.42065C20.7168 9.87769 20.5195 10.6179 20.5195 11.6414C20.5195 12.7273 20.7148 13.5007 21.1055 13.9617C21.4961 14.4226 22.0039 14.6531 22.6289 14.6531C23.0898 14.6531 23.4863 14.5066 23.8184 14.2136C24.1504 13.9207 24.3887 13.4597 24.5332 12.8308ZM27.7324 15.989V7.39917H29.4668V11.2136L32.9707 7.39917H35.3027L32.0684 10.7449L35.4785 15.989H33.2344L30.873 11.9578L29.4668 13.3933V15.989H27.7324Z" fill="white"/>
<defs>
<linearGradient id="paint0_linear_64_1831" x1="22.5" y1="1.98901" x2="22.5" y2="21.989" gradientUnits="userSpaceOnUse">
<stop stop-color="#1AB2C9"/>
<stop offset="1" stop-color="#00424D"/>
</linearGradient>
</defs>
</svg>
