<svg width="50" height="24" viewBox="0 0 50 24" fill="none" xmlns="http://www.w3.org/2000/svg">
<rect x="2" y="1.98901" width="47" height="20" rx="10" fill="url(#paint0_linear_40_2512)"/>
<rect x="2" y="1.98901" width="47" height="20" rx="10" stroke="#930054" stroke-width="3" stroke-linejoin="round"/>
<path d="M15.5273 12.8308L17.209 13.364C16.9512 14.3015 16.5215 14.9988 15.9199 15.4558C15.3223 15.9089 14.5625 16.1355 13.6406 16.1355C12.5 16.1355 11.5625 15.7468 10.8281 14.9695C10.0938 14.1882 9.72656 13.1218 9.72656 11.7703C9.72656 10.3406 10.0957 9.2312 10.834 8.44214C11.5723 7.64917 12.543 7.25269 13.7461 7.25269C14.7969 7.25269 15.6504 7.56323 16.3066 8.18433C16.6973 8.55151 16.9902 9.07886 17.1855 9.76636L15.4688 10.1765C15.3672 9.7312 15.1543 9.37964 14.8301 9.12183C14.5098 8.86401 14.1191 8.73511 13.6582 8.73511C13.0215 8.73511 12.5039 8.96362 12.1055 9.42065C11.7109 9.87769 11.5137 10.6179 11.5137 11.6414C11.5137 12.7273 11.709 13.5007 12.0996 13.9617C12.4902 14.4226 12.998 14.6531 13.623 14.6531C14.084 14.6531 14.4805 14.5066 14.8125 14.2136C15.1445 13.9207 15.3828 13.4597 15.5273 12.8308ZM20.6367 15.989V8.85229H18.0879V7.39917H24.9141V8.85229H22.3711V15.989H20.6367ZM26.0449 7.39917H29.4785C30.1582 7.39917 30.6641 7.42847 30.9961 7.48706C31.332 7.54175 31.6309 7.65894 31.8926 7.83862C32.1582 8.01831 32.3789 8.25854 32.5547 8.55933C32.7305 8.8562 32.8184 9.19019 32.8184 9.56128C32.8184 9.96362 32.709 10.3328 32.4902 10.6687C32.2754 11.0046 31.9824 11.2566 31.6113 11.4246C32.1348 11.5769 32.5371 11.8367 32.8184 12.2039C33.0996 12.571 33.2402 13.0027 33.2402 13.4988C33.2402 13.8894 33.1484 14.2703 32.9648 14.6414C32.7852 15.0085 32.5371 15.3035 32.2207 15.5261C31.9082 15.7449 31.5215 15.8796 31.0605 15.9304C30.7715 15.9617 30.0742 15.9812 28.9688 15.989H26.0449V7.39917ZM27.7793 8.82886V10.8152H28.916C29.5918 10.8152 30.0117 10.8054 30.1758 10.7859C30.4727 10.7507 30.7051 10.6492 30.873 10.4812C31.0449 10.3093 31.1309 10.0847 31.1309 9.80737C31.1309 9.54175 31.0566 9.3269 30.9082 9.16284C30.7637 8.99487 30.5469 8.89331 30.2578 8.85815C30.0859 8.83862 29.5918 8.82886 28.7754 8.82886H27.7793ZM27.7793 12.2449V14.5417H29.3848C30.0098 14.5417 30.4062 14.5242 30.5742 14.489C30.832 14.4421 31.041 14.3289 31.2012 14.1492C31.3652 13.9656 31.4473 13.7214 31.4473 13.4167C31.4473 13.1589 31.3848 12.9402 31.2598 12.7605C31.1348 12.5808 30.9531 12.45 30.7148 12.3679C30.4805 12.2859 29.9688 12.2449 29.1797 12.2449H27.7793ZM34.7109 15.989V7.39917H37.4941C38.5488 7.39917 39.2363 7.44214 39.5566 7.52808C40.0488 7.65698 40.4609 7.93823 40.793 8.37183C41.125 8.80151 41.291 9.35815 41.291 10.0417C41.291 10.5691 41.1953 11.0125 41.0039 11.3718C40.8125 11.7312 40.5684 12.0144 40.2715 12.2214C39.9785 12.4246 39.6797 12.5593 39.375 12.6257C38.9609 12.7078 38.3613 12.7488 37.5762 12.7488H36.4453V15.989H34.7109ZM36.4453 8.85229V11.2898H37.3945C38.0781 11.2898 38.5352 11.2449 38.7656 11.155C38.9961 11.0652 39.1758 10.9246 39.3047 10.7332C39.4375 10.5417 39.5039 10.3191 39.5039 10.0652C39.5039 9.75269 39.4121 9.49487 39.2285 9.29175C39.0449 9.08862 38.8125 8.96167 38.5312 8.91089C38.3242 8.87183 37.9082 8.85229 37.2832 8.85229H36.4453Z" fill="white"/>
<defs>
<linearGradient id="paint0_linear_40_2512" x1="25.5" y1="1.98901" x2="25.5" y2="21.989" gradientUnits="userSpaceOnUse">
<stop stop-color="#D2737E"/>
<stop offset="1" stop-color="#930054"/>
</linearGradient>
</defs>
</svg>
