<svg width="64" height="24" viewBox="0 0 64 24" fill="none" xmlns="http://www.w3.org/2000/svg">
<rect x="2" y="1.98901" width="61" height="20" rx="10" fill="url(#paint0_linear_36_1564)"/>
<rect x="2" y="1.98901" width="61" height="20" rx="10" stroke="#171A41" stroke-width="3" stroke-linejoin="round"/>
<path d="M10.3516 7.39917H13.7852C14.4648 7.39917 14.9707 7.42847 15.3027 7.48706C15.6387 7.54175 15.9375 7.65894 16.1992 7.83862C16.4648 8.01831 16.6855 8.25854 16.8613 8.55933C17.0371 8.8562 17.125 9.19019 17.125 9.56128C17.125 9.96362 17.0156 10.3328 16.7969 10.6687C16.582 11.0046 16.2891 11.2566 15.918 11.4246C16.4414 11.5769 16.8438 11.8367 17.125 12.2039C17.4062 12.571 17.5469 13.0027 17.5469 13.4988C17.5469 13.8894 17.4551 14.2703 17.2715 14.6414C17.0918 15.0085 16.8438 15.3035 16.5273 15.5261C16.2148 15.7449 15.8281 15.8796 15.3672 15.9304C15.0781 15.9617 14.3809 15.9812 13.2754 15.989H10.3516V7.39917ZM12.0859 8.82886V10.8152H13.2227C13.8984 10.8152 14.3184 10.8054 14.4824 10.7859C14.7793 10.7507 15.0117 10.6492 15.1797 10.4812C15.3516 10.3093 15.4375 10.0847 15.4375 9.80737C15.4375 9.54175 15.3633 9.3269 15.2148 9.16284C15.0703 8.99487 14.8535 8.89331 14.5645 8.85815C14.3926 8.83862 13.8984 8.82886 13.082 8.82886H12.0859ZM12.0859 12.2449V14.5417H13.6914C14.3164 14.5417 14.7129 14.5242 14.8809 14.489C15.1387 14.4421 15.3477 14.3289 15.5078 14.1492C15.6719 13.9656 15.7539 13.7214 15.7539 13.4167C15.7539 13.1589 15.6914 12.9402 15.5664 12.7605C15.4414 12.5808 15.2598 12.45 15.0215 12.3679C14.7871 12.2859 14.2754 12.2449 13.4863 12.2449H12.0859ZM18.9648 15.989V7.39917H20.6992V15.989H18.9648ZM22.3633 15.989V7.39917H26.0137C26.9316 7.39917 27.5977 7.47729 28.0117 7.63354C28.4297 7.78589 28.7637 8.05933 29.0137 8.45386C29.2637 8.84839 29.3887 9.29956 29.3887 9.80737C29.3887 10.4519 29.1992 10.9851 28.8203 11.407C28.4414 11.825 27.875 12.0886 27.1211 12.198C27.4961 12.4167 27.8047 12.657 28.0469 12.9187C28.293 13.1804 28.623 13.6453 29.0371 14.3132L30.0859 15.989H28.0117L26.7578 14.1199C26.3125 13.4519 26.0078 13.032 25.8438 12.8601C25.6797 12.6843 25.5059 12.5652 25.3223 12.5027C25.1387 12.4363 24.8477 12.4031 24.4492 12.4031H24.0977V15.989H22.3633ZM24.0977 11.032H25.3809C26.2129 11.032 26.7324 10.9968 26.9395 10.9265C27.1465 10.8562 27.3086 10.7351 27.4258 10.5632C27.543 10.3914 27.6016 10.1765 27.6016 9.9187C27.6016 9.62964 27.5234 9.39722 27.3672 9.22144C27.2148 9.04175 26.998 8.92847 26.7168 8.88159C26.5762 8.86206 26.1543 8.85229 25.4512 8.85229H24.0977V11.032ZM36.5254 12.8308L38.207 13.364C37.9492 14.3015 37.5195 14.9988 36.918 15.4558C36.3203 15.9089 35.5605 16.1355 34.6387 16.1355C33.498 16.1355 32.5605 15.7468 31.8262 14.9695C31.0918 14.1882 30.7246 13.1218 30.7246 11.7703C30.7246 10.3406 31.0938 9.2312 31.832 8.44214C32.5703 7.64917 33.541 7.25269 34.7441 7.25269C35.7949 7.25269 36.6484 7.56323 37.3047 8.18433C37.6953 8.55151 37.9883 9.07886 38.1836 9.76636L36.4668 10.1765C36.3652 9.7312 36.1523 9.37964 35.8281 9.12183C35.5078 8.86401 35.1172 8.73511 34.6562 8.73511C34.0195 8.73511 33.502 8.96362 33.1035 9.42065C32.709 9.87769 32.5117 10.6179 32.5117 11.6414C32.5117 12.7273 32.707 13.5007 33.0977 13.9617C33.4883 14.4226 33.9961 14.6531 34.6211 14.6531C35.082 14.6531 35.4785 14.5066 35.8105 14.2136C36.1426 13.9207 36.3809 13.4597 36.5254 12.8308ZM44.8984 14.4597V15.989H39.127C39.1895 15.4109 39.377 14.864 39.6895 14.3484C40.002 13.8289 40.6191 13.1414 41.541 12.2859C42.2832 11.5945 42.7383 11.1257 42.9062 10.8796C43.1328 10.5398 43.2461 10.2039 43.2461 9.87183C43.2461 9.50464 43.1465 9.22339 42.9473 9.02808C42.752 8.82886 42.4805 8.72925 42.1328 8.72925C41.7891 8.72925 41.5156 8.83276 41.3125 9.03979C41.1094 9.24683 40.9922 9.59058 40.9609 10.071L39.3203 9.90698C39.418 9.00073 39.7246 8.35034 40.2402 7.95581C40.7559 7.56128 41.4004 7.36401 42.1738 7.36401C43.0215 7.36401 43.6875 7.59253 44.1719 8.04956C44.6562 8.50659 44.8984 9.07495 44.8984 9.75464C44.8984 10.1414 44.8281 10.5105 44.6875 10.8621C44.5508 11.2097 44.332 11.575 44.0312 11.9578C43.832 12.2117 43.4727 12.5769 42.9531 13.0535C42.4336 13.53 42.1035 13.8464 41.9629 14.0027C41.8262 14.1589 41.7148 14.3113 41.6289 14.4597H44.8984ZM46.3281 14.3425H47.9746V15.5203C47.9746 15.9968 47.9336 16.3718 47.8516 16.6453C47.7695 16.9226 47.6133 17.1707 47.3828 17.3894C47.1562 17.6082 46.8672 17.78 46.5156 17.905L46.1934 17.2253C46.5254 17.116 46.7617 16.9656 46.9023 16.7742C47.043 16.5828 47.1172 16.321 47.125 15.989H46.3281V14.3425ZM49.2988 13.7097L50.8926 13.5164C50.9434 13.9226 51.0801 14.2332 51.3027 14.448C51.5254 14.6628 51.7949 14.7703 52.1113 14.7703C52.4512 14.7703 52.7363 14.6414 52.9668 14.3835C53.2012 14.1257 53.3184 13.7781 53.3184 13.3406C53.3184 12.9265 53.207 12.5984 52.9844 12.3562C52.7617 12.114 52.4902 11.9929 52.1699 11.9929C51.959 11.9929 51.707 12.0339 51.4141 12.116L51.5957 10.7742C52.041 10.7859 52.3809 10.6902 52.6152 10.4871C52.8496 10.28 52.9668 10.0066 52.9668 9.66675C52.9668 9.37769 52.8809 9.14722 52.709 8.97534C52.5371 8.80347 52.3086 8.71753 52.0234 8.71753C51.7422 8.71753 51.502 8.81519 51.3027 9.0105C51.1035 9.20581 50.9824 9.49097 50.9395 9.86597L49.4219 9.60815C49.5273 9.08862 49.6855 8.67456 49.8965 8.36597C50.1113 8.05347 50.4082 7.80933 50.7871 7.63354C51.1699 7.45386 51.5977 7.36401 52.0703 7.36401C52.8789 7.36401 53.5273 7.62183 54.0156 8.13745C54.418 8.55933 54.6191 9.03589 54.6191 9.56714C54.6191 10.321 54.207 10.9226 53.3828 11.3718C53.875 11.4773 54.2676 11.7136 54.5605 12.0808C54.8574 12.448 55.0059 12.8914 55.0059 13.4109C55.0059 14.1648 54.7305 14.8074 54.1797 15.3386C53.6289 15.8699 52.9434 16.1355 52.123 16.1355C51.3457 16.1355 50.7012 15.9128 50.1895 15.4675C49.6777 15.0183 49.3809 14.4324 49.2988 13.7097Z" fill="white"/>
<defs>
<linearGradient id="paint0_linear_36_1564" x1="32.5" y1="1.98901" x2="32.5" y2="21.989" gradientUnits="userSpaceOnUse">
<stop stop-color="#171A41"/>
<stop offset="1" stop-color="#B83E37"/>
</linearGradient>
</defs>
</svg>
