<svg width="53" height="24" viewBox="0 0 53 24" fill="none" xmlns="http://www.w3.org/2000/svg">
<rect x="2" y="1.98901" width="50" height="20" rx="10" fill="url(#paint0_linear_35_1432)"/>
<rect x="2" y="1.98901" width="50" height="20" rx="10" stroke="#44A7D4" stroke-width="3" stroke-linejoin="round"/>
<path d="M18.0527 15.989H16.166L15.416 14.0378H11.9824L11.2734 15.989H9.43359L12.7793 7.39917H14.6133L18.0527 15.989ZM14.8594 12.5906L13.6758 9.40308L12.5156 12.5906H14.8594ZM20.0215 15.989V8.85229H17.4727V7.39917H24.2988V8.85229H21.7559V15.989H20.0215ZM25.4297 15.989V7.39917H29.0801C29.998 7.39917 30.6641 7.47729 31.0781 7.63354C31.4961 7.78589 31.8301 8.05933 32.0801 8.45386C32.3301 8.84839 32.4551 9.29956 32.4551 9.80737C32.4551 10.4519 32.2656 10.9851 31.8867 11.407C31.5078 11.825 30.9414 12.0886 30.1875 12.198C30.5625 12.4167 30.8711 12.657 31.1133 12.9187C31.3594 13.1804 31.6895 13.6453 32.1035 14.3132L33.1523 15.989H31.0781L29.8242 14.1199C29.3789 13.4519 29.0742 13.032 28.9102 12.8601C28.7461 12.6843 28.5723 12.5652 28.3887 12.5027C28.2051 12.4363 27.9141 12.4031 27.5156 12.4031H27.1641V15.989H25.4297ZM27.1641 11.032H28.4473C29.2793 11.032 29.7988 10.9968 30.0059 10.9265C30.2129 10.8562 30.375 10.7351 30.4922 10.5632C30.6094 10.3914 30.668 10.1765 30.668 9.9187C30.668 9.62964 30.5898 9.39722 30.4336 9.22144C30.2812 9.04175 30.0645 8.92847 29.7832 8.88159C29.6426 8.86206 29.2207 8.85229 28.5176 8.85229H27.1641V11.032ZM34.043 15.989V7.39917H35.7773V15.989H34.043ZM37.4355 15.989V7.39917H40.2188C41.2734 7.39917 41.9609 7.44214 42.2812 7.52808C42.7734 7.65698 43.1855 7.93823 43.5176 8.37183C43.8496 8.80151 44.0156 9.35815 44.0156 10.0417C44.0156 10.5691 43.9199 11.0125 43.7285 11.3718C43.5371 11.7312 43.293 12.0144 42.9961 12.2214C42.7031 12.4246 42.4043 12.5593 42.0996 12.6257C41.6855 12.7078 41.0859 12.7488 40.3008 12.7488H39.1699V15.989H37.4355ZM39.1699 8.85229V11.2898H40.1191C40.8027 11.2898 41.2598 11.2449 41.4902 11.155C41.7207 11.0652 41.9004 10.9246 42.0293 10.7332C42.1621 10.5417 42.2285 10.3191 42.2285 10.0652C42.2285 9.75269 42.1367 9.49487 41.9531 9.29175C41.7695 9.08862 41.5371 8.96167 41.2559 8.91089C41.0488 8.87183 40.6328 8.85229 40.0078 8.85229H39.1699Z" fill="white"/>
<defs>
<linearGradient id="paint0_linear_35_1432" x1="27" y1="1.98901" x2="27" y2="21.989" gradientUnits="userSpaceOnUse">
<stop stop-color="#44A7D4"/>
<stop offset="1" stop-color="#53001F"/>
</linearGradient>
</defs>
</svg>
