<svg width="44" height="24" viewBox="0 0 44 24" fill="none" xmlns="http://www.w3.org/2000/svg">
<rect x="2" y="1.98901" width="41" height="20" rx="10" fill="url(#paint0_linear_50_1832)"/>
<rect x="2" y="1.98901" width="41" height="20" rx="10" stroke="#6E7FDB" stroke-width="3" stroke-linejoin="round"/>
<path d="M10.3066 15.989V7.39917H12.041V15.989H10.3066ZM13.7051 15.989V7.39917H17.3555C18.2734 7.39917 18.9395 7.47729 19.3535 7.63354C19.7715 7.78589 20.1055 8.05933 20.3555 8.45386C20.6055 8.84839 20.7305 9.29956 20.7305 9.80737C20.7305 10.4519 20.541 10.9851 20.1621 11.407C19.7832 11.825 19.2168 12.0886 18.4629 12.198C18.8379 12.4167 19.1465 12.657 19.3887 12.9187C19.6348 13.1804 19.9648 13.6453 20.3789 14.3132L21.4277 15.989H19.3535L18.0996 14.1199C17.6543 13.4519 17.3496 13.032 17.1855 12.8601C17.0215 12.6843 16.8477 12.5652 16.6641 12.5027C16.4805 12.4363 16.1895 12.4031 15.791 12.4031H15.4395V15.989H13.7051ZM15.4395 11.032H16.7227C17.5547 11.032 18.0742 10.9968 18.2812 10.9265C18.4883 10.8562 18.6504 10.7351 18.7676 10.5632C18.8848 10.3914 18.9434 10.1765 18.9434 9.9187C18.9434 9.62964 18.8652 9.39722 18.709 9.22144C18.5566 9.04175 18.3398 8.92847 18.0586 8.88159C17.918 8.86206 17.4961 8.85229 16.793 8.85229H15.4395V11.032ZM22.3828 15.989V7.39917H28.2715V8.85229H24.1172V10.8855H27.7031V12.3386H24.1172V15.989H22.3828ZM29.3789 14.0027L30.9727 13.8269C31.0117 14.1511 31.1133 14.3914 31.2773 14.5476C31.4414 14.7039 31.6582 14.782 31.9277 14.782C32.2676 14.782 32.5566 14.6257 32.7949 14.3132C33.0332 14.0007 33.1855 13.3523 33.252 12.3679C32.8379 12.8484 32.3203 13.0886 31.6992 13.0886C31.0234 13.0886 30.4395 12.8289 29.9473 12.3093C29.459 11.7859 29.2148 11.1062 29.2148 10.2703C29.2148 9.39917 29.4727 8.698 29.9883 8.16675C30.5078 7.63159 31.168 7.36401 31.9688 7.36401C32.8398 7.36401 33.5547 7.7019 34.1133 8.37769C34.6719 9.04956 34.9512 10.157 34.9512 11.7C34.9512 13.2703 34.6602 14.4031 34.0781 15.0984C33.4961 15.7937 32.7383 16.1414 31.8047 16.1414C31.1328 16.1414 30.5898 15.9636 30.1758 15.6082C29.7617 15.2488 29.4961 14.7136 29.3789 14.0027ZM33.1055 10.405C33.1055 9.87378 32.9824 9.46167 32.7363 9.1687C32.4941 8.87573 32.2129 8.72925 31.8926 8.72925C31.5879 8.72925 31.334 8.85034 31.1309 9.09253C30.9316 9.33081 30.832 9.72339 30.832 10.2703C30.832 10.825 30.9414 11.2332 31.1602 11.4949C31.3789 11.7527 31.6523 11.8816 31.9805 11.8816C32.2969 11.8816 32.5625 11.7566 32.7773 11.5066C32.9961 11.2566 33.1055 10.8894 33.1055 10.405Z" fill="white"/>
<defs>
<linearGradient id="paint0_linear_50_1832" x1="22.5" y1="1.98901" x2="22.5" y2="21.989" gradientUnits="userSpaceOnUse">
<stop stop-color="#3F1741"/>
<stop offset="1" stop-color="#6E7FDB"/>
</linearGradient>
</defs>
</svg>
