<svg width="58" height="24" viewBox="0 0 58 24" fill="none" xmlns="http://www.w3.org/2000/svg">
<rect x="2" y="1.98901" width="55" height="20" rx="10" fill="url(#paint0_linear_64_1869)"/>
<rect x="2" y="1.98901" width="55" height="20" rx="10" stroke="#D04BD6" stroke-width="3" stroke-linejoin="round"/>
<path d="M10.375 15.989V7.39917H12.0625L15.5781 13.1355V7.39917H17.1895V15.989H15.4492L11.9863 10.3875V15.989H10.375ZM19.041 15.989V7.39917H24.9297V8.85229H20.7754V10.8855H24.3613V12.3386H20.7754V15.989H19.041ZM26.3887 15.989V7.39917H28.123V11.2136L31.627 7.39917H33.959L30.7246 10.7449L34.1348 15.989H31.8906L29.5293 11.9578L28.123 13.3933V15.989H26.3887ZM35.043 7.39917H38.4766C39.1562 7.39917 39.6621 7.42847 39.9941 7.48706C40.3301 7.54175 40.6289 7.65894 40.8906 7.83862C41.1562 8.01831 41.377 8.25854 41.5527 8.55933C41.7285 8.8562 41.8164 9.19019 41.8164 9.56128C41.8164 9.96362 41.707 10.3328 41.4883 10.6687C41.2734 11.0046 40.9805 11.2566 40.6094 11.4246C41.1328 11.5769 41.5352 11.8367 41.8164 12.2039C42.0977 12.571 42.2383 13.0027 42.2383 13.4988C42.2383 13.8894 42.1465 14.2703 41.9629 14.6414C41.7832 15.0085 41.5352 15.3035 41.2188 15.5261C40.9062 15.7449 40.5195 15.8796 40.0586 15.9304C39.7695 15.9617 39.0723 15.9812 37.9668 15.989H35.043V7.39917ZM36.7773 8.82886V10.8152H37.9141C38.5898 10.8152 39.0098 10.8054 39.1738 10.7859C39.4707 10.7507 39.7031 10.6492 39.8711 10.4812C40.043 10.3093 40.1289 10.0847 40.1289 9.80737C40.1289 9.54175 40.0547 9.3269 39.9062 9.16284C39.7617 8.99487 39.5449 8.89331 39.2559 8.85815C39.084 8.83862 38.5898 8.82886 37.7734 8.82886H36.7773ZM36.7773 12.2449V14.5417H38.3828C39.0078 14.5417 39.4043 14.5242 39.5723 14.489C39.8301 14.4421 40.0391 14.3289 40.1992 14.1492C40.3633 13.9656 40.4453 13.7214 40.4453 13.4167C40.4453 13.1589 40.3828 12.9402 40.2578 12.7605C40.1328 12.5808 39.9512 12.45 39.7129 12.3679C39.4785 12.2859 38.9668 12.2449 38.1777 12.2449H36.7773ZM47.5586 15.989H45.9121V9.78394C45.3105 10.3464 44.6016 10.7625 43.7852 11.032V9.53784C44.2148 9.39722 44.6816 9.13159 45.1855 8.74097C45.6895 8.34644 46.0352 7.88745 46.2227 7.36401H47.5586V15.989Z" fill="white"/>
<defs>
<linearGradient id="paint0_linear_64_1869" x1="29.5" y1="1.98901" x2="29.5" y2="21.989" gradientUnits="userSpaceOnUse">
<stop stop-color="#D04BD6"/>
<stop offset="1" stop-color="#3F1741"/>
</linearGradient>
</defs>
</svg>
