<svg width="73" height="24" viewBox="0 0 73 24" fill="none" xmlns="http://www.w3.org/2000/svg">
<rect x="1" y="1.98901" width="71" height="20" rx="10" fill="url(#paint0_linear_66_2021)"/>
<rect x="1" y="1.98901" width="71" height="20" rx="10" stroke="#8F34FF" stroke-width="3" stroke-linejoin="round"/>
<path d="M9.00781 15.989V7.39917H11.791C12.8457 7.39917 13.5332 7.44214 13.8535 7.52808C14.3457 7.65698 14.7578 7.93823 15.0898 8.37183C15.4219 8.80151 15.5879 9.35815 15.5879 10.0417C15.5879 10.5691 15.4922 11.0125 15.3008 11.3718C15.1094 11.7312 14.8652 12.0144 14.5684 12.2214C14.2754 12.4246 13.9766 12.5593 13.6719 12.6257C13.2578 12.7078 12.6582 12.7488 11.873 12.7488H10.7422V15.989H9.00781ZM10.7422 8.85229V11.2898H11.6914C12.375 11.2898 12.832 11.2449 13.0625 11.155C13.293 11.0652 13.4727 10.9246 13.6016 10.7332C13.7344 10.5417 13.8008 10.3191 13.8008 10.0652C13.8008 9.75269 13.709 9.49487 13.5254 9.29175C13.3418 9.08862 13.1094 8.96167 12.8281 8.91089C12.6211 8.87183 12.2051 8.85229 11.5801 8.85229H10.7422ZM16.6602 11.7468C16.6602 10.8718 16.791 10.1375 17.0527 9.5437C17.248 9.1062 17.5137 8.71362 17.8496 8.36597C18.1895 8.01831 18.5605 7.7605 18.9629 7.59253C19.498 7.36597 20.1152 7.25269 20.8145 7.25269C22.0801 7.25269 23.0918 7.64526 23.8496 8.43042C24.6113 9.21558 24.9922 10.3074 24.9922 11.7058C24.9922 13.0925 24.6152 14.1785 23.8613 14.9636C23.1074 15.7449 22.0996 16.1355 20.8379 16.1355C19.5605 16.1355 18.5449 15.7468 17.791 14.9695C17.0371 14.1882 16.6602 13.114 16.6602 11.7468ZM18.4473 11.6882C18.4473 12.6609 18.6719 13.3992 19.1211 13.9031C19.5703 14.4031 20.1406 14.6531 20.832 14.6531C21.5234 14.6531 22.0898 14.405 22.5312 13.9089C22.9766 13.4089 23.1992 12.6609 23.1992 11.6648C23.1992 10.6804 22.9824 9.94604 22.5488 9.46167C22.1191 8.97729 21.5469 8.73511 20.832 8.73511C20.1172 8.73511 19.541 8.9812 19.1035 9.47339C18.666 9.96167 18.4473 10.7 18.4473 11.6882ZM26.3398 7.39917H28.0742V12.0515C28.0742 12.7898 28.0957 13.2683 28.1387 13.4871C28.2129 13.8386 28.3887 14.1218 28.666 14.3367C28.9473 14.5476 29.3301 14.6531 29.8145 14.6531C30.3066 14.6531 30.6777 14.5535 30.9277 14.3542C31.1777 14.1511 31.3281 13.9031 31.3789 13.6101C31.4297 13.3171 31.4551 12.8308 31.4551 12.1511V7.39917H33.1895V11.9109C33.1895 12.9421 33.1426 13.6707 33.0488 14.0964C32.9551 14.5222 32.7812 14.8816 32.5273 15.1746C32.2773 15.4675 31.9414 15.7019 31.5195 15.8777C31.0977 16.0496 30.5469 16.1355 29.8672 16.1355C29.0469 16.1355 28.4238 16.0417 27.998 15.8542C27.5762 15.6628 27.2422 15.4167 26.9961 15.116C26.75 14.8113 26.5879 14.4929 26.5098 14.1609C26.3965 13.6687 26.3398 12.9421 26.3398 11.9812V7.39917ZM37.8887 15.989V14.2605H34.373V12.8191L38.0996 7.36401H39.4824V12.8132H40.5488V14.2605H39.4824V15.989H37.8887ZM37.8887 12.8132V9.87769L35.9141 12.8132H37.8887ZM41.7148 15.989V7.39917H47.6035V8.85229H43.4492V10.8855H47.0352V12.3386H43.4492V15.989H41.7148ZM52.8887 15.989H51.2422V9.78394C50.6406 10.3464 49.9316 10.7625 49.1152 11.032V9.53784C49.5449 9.39722 50.0117 9.13159 50.5156 8.74097C51.0195 8.34644 51.3652 7.88745 51.5527 7.36401H52.8887V15.989ZM55.666 14.3425H57.3125V15.5203C57.3125 15.9968 57.2715 16.3718 57.1895 16.6453C57.1074 16.9226 56.9512 17.1707 56.7207 17.3894C56.4941 17.6082 56.2051 17.78 55.8535 17.905L55.5312 17.2253C55.8633 17.116 56.0996 16.9656 56.2402 16.7742C56.3809 16.5828 56.4551 16.321 56.4629 15.989H55.666V14.3425ZM64.2559 14.4597V15.989H58.4844C58.5469 15.4109 58.7344 14.864 59.0469 14.3484C59.3594 13.8289 59.9766 13.1414 60.8984 12.2859C61.6406 11.5945 62.0957 11.1257 62.2637 10.8796C62.4902 10.5398 62.6035 10.2039 62.6035 9.87183C62.6035 9.50464 62.5039 9.22339 62.3047 9.02808C62.1094 8.82886 61.8379 8.72925 61.4902 8.72925C61.1465 8.72925 60.873 8.83276 60.6699 9.03979C60.4668 9.24683 60.3496 9.59058 60.3184 10.071L58.6777 9.90698C58.7754 9.00073 59.082 8.35034 59.5977 7.95581C60.1133 7.56128 60.7578 7.36401 61.5312 7.36401C62.3789 7.36401 63.0449 7.59253 63.5293 8.04956C64.0137 8.50659 64.2559 9.07495 64.2559 9.75464C64.2559 10.1414 64.1855 10.5105 64.0449 10.8621C63.9082 11.2097 63.6895 11.575 63.3887 11.9578C63.1895 12.2117 62.8301 12.5769 62.3105 13.0535C61.791 13.53 61.4609 13.8464 61.3203 14.0027C61.1836 14.1589 61.0723 14.3113 60.9863 14.4597H64.2559Z" fill="white"/>
<defs>
<linearGradient id="paint0_linear_66_2021" x1="36.5" y1="1.98901" x2="36.5" y2="21.989" gradientUnits="userSpaceOnUse">
<stop stop-color="#8F34FF"/>
<stop offset="1" stop-color="#00D8FF"/>
</linearGradient>
</defs>
</svg>
