<svg width="84" height="24" viewBox="0 0 84 24" fill="none" xmlns="http://www.w3.org/2000/svg">
<rect x="1" y="1.98901" width="82" height="20" rx="10" fill="url(#paint0_linear_35_1480)"/>
<rect x="1" y="1.98901" width="82" height="20" rx="10" stroke="#5AAA26" stroke-width="3" stroke-linejoin="round"/>
<path d="M16.9277 15.989H15.041L14.291 14.0378H10.8574L10.1484 15.989H8.30859L11.6543 7.39917H13.4883L16.9277 15.989ZM13.7344 12.5906L12.5508 9.40308L11.3906 12.5906H13.7344ZM17.8535 15.989V7.39917H20.6367C21.6914 7.39917 22.3789 7.44214 22.6992 7.52808C23.1914 7.65698 23.6035 7.93823 23.9355 8.37183C24.2676 8.80151 24.4336 9.35815 24.4336 10.0417C24.4336 10.5691 24.3379 11.0125 24.1465 11.3718C23.9551 11.7312 23.7109 12.0144 23.4141 12.2214C23.1211 12.4246 22.8223 12.5593 22.5176 12.6257C22.1035 12.7078 21.5039 12.7488 20.7188 12.7488H19.5879V15.989H17.8535ZM19.5879 8.85229V11.2898H20.5371C21.2207 11.2898 21.6777 11.2449 21.9082 11.155C22.1387 11.0652 22.3184 10.9246 22.4473 10.7332C22.5801 10.5417 22.6465 10.3191 22.6465 10.0652C22.6465 9.75269 22.5547 9.49487 22.3711 9.29175C22.1875 9.08862 21.9551 8.96167 21.6738 8.91089C21.4668 8.87183 21.0508 8.85229 20.4258 8.85229H19.5879ZM25.5059 11.7468C25.5059 10.8718 25.6367 10.1375 25.8984 9.5437C26.0938 9.1062 26.3594 8.71362 26.6953 8.36597C27.0352 8.01831 27.4062 7.7605 27.8086 7.59253C28.3438 7.36597 28.9609 7.25269 29.6602 7.25269C30.9258 7.25269 31.9375 7.64526 32.6953 8.43042C33.457 9.21558 33.8379 10.3074 33.8379 11.7058C33.8379 13.0925 33.4609 14.1785 32.707 14.9636C31.9531 15.7449 30.9453 16.1355 29.6836 16.1355C28.4062 16.1355 27.3906 15.7468 26.6367 14.9695C25.8828 14.1882 25.5059 13.114 25.5059 11.7468ZM27.293 11.6882C27.293 12.6609 27.5176 13.3992 27.9668 13.9031C28.416 14.4031 28.9863 14.6531 29.6777 14.6531C30.3691 14.6531 30.9355 14.405 31.377 13.9089C31.8223 13.4089 32.0449 12.6609 32.0449 11.6648C32.0449 10.6804 31.8281 9.94604 31.3945 9.46167C30.9648 8.97729 30.3926 8.73511 29.6777 8.73511C28.9629 8.73511 28.3867 8.9812 27.9492 9.47339C27.5117 9.96167 27.293 10.7 27.293 11.6882ZM35.2031 7.39917H38.6367C39.3164 7.39917 39.8223 7.42847 40.1543 7.48706C40.4902 7.54175 40.7891 7.65894 41.0508 7.83862C41.3164 8.01831 41.5371 8.25854 41.7129 8.55933C41.8887 8.8562 41.9766 9.19019 41.9766 9.56128C41.9766 9.96362 41.8672 10.3328 41.6484 10.6687C41.4336 11.0046 41.1406 11.2566 40.7695 11.4246C41.293 11.5769 41.6953 11.8367 41.9766 12.2039C42.2578 12.571 42.3984 13.0027 42.3984 13.4988C42.3984 13.8894 42.3066 14.2703 42.123 14.6414C41.9434 15.0085 41.6953 15.3035 41.3789 15.5261C41.0664 15.7449 40.6797 15.8796 40.2188 15.9304C39.9297 15.9617 39.2324 15.9812 38.127 15.989H35.2031V7.39917ZM36.9375 8.82886V10.8152H38.0742C38.75 10.8152 39.1699 10.8054 39.334 10.7859C39.6309 10.7507 39.8633 10.6492 40.0312 10.4812C40.2031 10.3093 40.2891 10.0847 40.2891 9.80737C40.2891 9.54175 40.2148 9.3269 40.0664 9.16284C39.9219 8.99487 39.7051 8.89331 39.416 8.85815C39.2441 8.83862 38.75 8.82886 37.9336 8.82886H36.9375ZM36.9375 12.2449V14.5417H38.543C39.168 14.5417 39.5645 14.5242 39.7324 14.489C39.9902 14.4421 40.1992 14.3289 40.3594 14.1492C40.5234 13.9656 40.6055 13.7214 40.6055 13.4167C40.6055 13.1589 40.543 12.9402 40.418 12.7605C40.293 12.5808 40.1113 12.45 39.873 12.3679C39.6387 12.2859 39.127 12.2449 38.3379 12.2449H36.9375ZM43.8691 15.989V7.39917H50.2383V8.85229H45.6035V10.7566H49.916V12.2039H45.6035V14.5417H50.4023V15.989H43.8691ZM57.3691 12.8308L59.0508 13.364C58.793 14.3015 58.3633 14.9988 57.7617 15.4558C57.1641 15.9089 56.4043 16.1355 55.4824 16.1355C54.3418 16.1355 53.4043 15.7468 52.6699 14.9695C51.9355 14.1882 51.5684 13.1218 51.5684 11.7703C51.5684 10.3406 51.9375 9.2312 52.6758 8.44214C53.4141 7.64917 54.3848 7.25269 55.5879 7.25269C56.6387 7.25269 57.4922 7.56323 58.1484 8.18433C58.5391 8.55151 58.832 9.07886 59.0273 9.76636L57.3105 10.1765C57.209 9.7312 56.9961 9.37964 56.6719 9.12183C56.3516 8.86401 55.9609 8.73511 55.5 8.73511C54.8633 8.73511 54.3457 8.96362 53.9473 9.42065C53.5527 9.87769 53.3555 10.6179 53.3555 11.6414C53.3555 12.7273 53.5508 13.5007 53.9414 13.9617C54.332 14.4226 54.8398 14.6531 55.4648 14.6531C55.9258 14.6531 56.3223 14.5066 56.6543 14.2136C56.9863 13.9207 57.2246 13.4597 57.3691 12.8308ZM60.123 13.7097L61.7168 13.5164C61.7676 13.9226 61.9043 14.2332 62.127 14.448C62.3496 14.6628 62.6191 14.7703 62.9355 14.7703C63.2754 14.7703 63.5605 14.6414 63.791 14.3835C64.0254 14.1257 64.1426 13.7781 64.1426 13.3406C64.1426 12.9265 64.0312 12.5984 63.8086 12.3562C63.5859 12.114 63.3145 11.9929 62.9941 11.9929C62.7832 11.9929 62.5312 12.0339 62.2383 12.116L62.4199 10.7742C62.8652 10.7859 63.2051 10.6902 63.4395 10.4871C63.6738 10.28 63.791 10.0066 63.791 9.66675C63.791 9.37769 63.7051 9.14722 63.5332 8.97534C63.3613 8.80347 63.1328 8.71753 62.8477 8.71753C62.5664 8.71753 62.3262 8.81519 62.127 9.0105C61.9277 9.20581 61.8066 9.49097 61.7637 9.86597L60.2461 9.60815C60.3516 9.08862 60.5098 8.67456 60.7207 8.36597C60.9355 8.05347 61.2324 7.80933 61.6113 7.63354C61.9941 7.45386 62.4219 7.36401 62.8945 7.36401C63.7031 7.36401 64.3516 7.62183 64.8398 8.13745C65.2422 8.55933 65.4434 9.03589 65.4434 9.56714C65.4434 10.321 65.0312 10.9226 64.207 11.3718C64.6992 11.4773 65.0918 11.7136 65.3848 12.0808C65.6816 12.448 65.8301 12.8914 65.8301 13.4109C65.8301 14.1648 65.5547 14.8074 65.0039 15.3386C64.4531 15.8699 63.7676 16.1355 62.9473 16.1355C62.1699 16.1355 61.5254 15.9128 61.0137 15.4675C60.502 15.0183 60.2051 14.4324 60.123 13.7097ZM71.2207 12.8308V11.3835H74.959V14.8054C74.5957 15.157 74.0684 15.4675 73.377 15.7371C72.6895 16.0027 71.9922 16.1355 71.2852 16.1355C70.3867 16.1355 69.6035 15.948 68.9355 15.573C68.2676 15.1941 67.7656 14.655 67.4297 13.9558C67.0938 13.2527 66.9258 12.489 66.9258 11.6648C66.9258 10.7703 67.1133 9.97534 67.4883 9.28003C67.8633 8.58472 68.4121 8.05151 69.1348 7.68042C69.6855 7.39526 70.3711 7.25269 71.1914 7.25269C72.2578 7.25269 73.0898 7.47729 73.6875 7.92651C74.2891 8.37183 74.6758 8.98901 74.8477 9.77808L73.125 10.1003C73.0039 9.67847 72.7754 9.34644 72.4395 9.10425C72.1074 8.85815 71.6914 8.73511 71.1914 8.73511C70.4336 8.73511 69.8301 8.97534 69.3809 9.45581C68.9355 9.93628 68.7129 10.6492 68.7129 11.5945C68.7129 12.614 68.9395 13.3796 69.3926 13.8914C69.8457 14.3992 70.4395 14.6531 71.1738 14.6531C71.5371 14.6531 71.9004 14.5828 72.2637 14.4421C72.6309 14.2976 72.9453 14.1238 73.207 13.9207V12.8308H71.2207Z" fill="white"/>
<defs>
<linearGradient id="paint0_linear_35_1480" x1="42" y1="1.98901" x2="42" y2="21.989" gradientUnits="userSpaceOnUse">
<stop stop-color="#E49000"/>
<stop offset="1" stop-color="#5AAA26"/>
</linearGradient>
</defs>
</svg>
