<svg width="51" height="24" viewBox="0 0 51 24" fill="none" xmlns="http://www.w3.org/2000/svg">
<rect x="2" y="1.98901" width="48" height="20" rx="10" fill="url(#paint0_linear_42_2725)"/>
<rect x="2" y="1.98901" width="48" height="20" rx="10" stroke="#315993" stroke-width="3" stroke-linejoin="round"/>
<path d="M10.2148 15.989V7.39917H16.1035V8.85229H11.9492V10.8855H15.5352V12.3386H11.9492V15.989H10.2148ZM17.5156 15.989V7.39917H20.1113L21.6699 13.2585L23.2109 7.39917H25.8125V15.989H24.2012V9.22729L22.4961 15.989H20.8262L19.127 9.22729V15.989H17.5156ZM27.5527 15.989V7.39917H29.2402L32.7559 13.1355V7.39917H34.3672V15.989H32.627L29.1641 10.3875V15.989H27.5527ZM36.2539 15.989V7.46948H37.9883V14.5417H42.3008V15.989H36.2539Z" fill="white"/>
<defs>
<linearGradient id="paint0_linear_42_2725" x1="26" y1="1.98901" x2="26" y2="21.989" gradientUnits="userSpaceOnUse">
<stop stop-color="#F2E263"/>
<stop offset="1" stop-color="#315993"/>
</linearGradient>
</defs>
</svg>
