<svg width="50" height="24" viewBox="0 0 50 24" fill="none" xmlns="http://www.w3.org/2000/svg">
<rect x="2" y="1.98901" width="47" height="20" rx="10" fill="url(#paint0_linear_85_2094)"/>
<rect x="2" y="1.98901" width="47" height="20" rx="10" stroke="#755200" stroke-width="3" stroke-linejoin="round"/>
<path d="M10.3477 7.39917H12.082V12.0515C12.082 12.7898 12.1035 13.2683 12.1465 13.4871C12.2207 13.8386 12.3965 14.1218 12.6738 14.3367C12.9551 14.5476 13.3379 14.6531 13.8223 14.6531C14.3145 14.6531 14.6855 14.5535 14.9355 14.3542C15.1855 14.1511 15.3359 13.9031 15.3867 13.6101C15.4375 13.3171 15.4629 12.8308 15.4629 12.1511V7.39917H17.1973V11.9109C17.1973 12.9421 17.1504 13.6707 17.0566 14.0964C16.9629 14.5222 16.7891 14.8816 16.5352 15.1746C16.2852 15.4675 15.9492 15.7019 15.5273 15.8777C15.1055 16.0496 14.5547 16.1355 13.875 16.1355C13.0547 16.1355 12.4316 16.0417 12.0059 15.8542C11.584 15.6628 11.25 15.4167 11.0039 15.116C10.7578 14.8113 10.5957 14.4929 10.5176 14.1609C10.4043 13.6687 10.3477 12.9421 10.3477 11.9812V7.39917ZM24.5273 12.8308L26.209 13.364C25.9512 14.3015 25.5215 14.9988 24.9199 15.4558C24.3223 15.9089 23.5625 16.1355 22.6406 16.1355C21.5 16.1355 20.5625 15.7468 19.8281 14.9695C19.0938 14.1882 18.7266 13.1218 18.7266 11.7703C18.7266 10.3406 19.0957 9.2312 19.834 8.44214C20.5723 7.64917 21.543 7.25269 22.7461 7.25269C23.7969 7.25269 24.6504 7.56323 25.3066 8.18433C25.6973 8.55151 25.9902 9.07886 26.1855 9.76636L24.4688 10.1765C24.3672 9.7312 24.1543 9.37964 23.8301 9.12183C23.5098 8.86401 23.1191 8.73511 22.6582 8.73511C22.0215 8.73511 21.5039 8.96362 21.1055 9.42065C20.7109 9.87769 20.5137 10.6179 20.5137 11.6414C20.5137 12.7273 20.709 13.5007 21.0996 13.9617C21.4902 14.4226 21.998 14.6531 22.623 14.6531C23.084 14.6531 23.4805 14.5066 23.8125 14.2136C24.1445 13.9207 24.3828 13.4597 24.5273 12.8308ZM27.7031 15.989V7.39917H30.4863C31.541 7.39917 32.2285 7.44214 32.5488 7.52808C33.041 7.65698 33.4531 7.93823 33.7852 8.37183C34.1172 8.80151 34.2832 9.35815 34.2832 10.0417C34.2832 10.5691 34.1875 11.0125 33.9961 11.3718C33.8047 11.7312 33.5605 12.0144 33.2637 12.2214C32.9707 12.4246 32.6719 12.5593 32.3672 12.6257C31.9531 12.7078 31.3535 12.7488 30.5684 12.7488H29.4375V15.989H27.7031ZM29.4375 8.85229V11.2898H30.3867C31.0703 11.2898 31.5273 11.2449 31.7578 11.155C31.9883 11.0652 32.168 10.9246 32.2969 10.7332C32.4297 10.5417 32.4961 10.3191 32.4961 10.0652C32.4961 9.75269 32.4043 9.49487 32.2207 9.29175C32.0371 9.08862 31.8047 8.96167 31.5234 8.91089C31.3164 8.87183 30.9004 8.85229 30.2754 8.85229H29.4375ZM39.5566 15.989H37.9102V9.78394C37.3086 10.3464 36.5996 10.7625 35.7832 11.032V9.53784C36.2129 9.39722 36.6797 9.13159 37.1836 8.74097C37.6875 8.34644 38.0332 7.88745 38.2207 7.36401H39.5566V15.989Z" fill="white"/>
<defs>
<linearGradient id="paint0_linear_85_2094" x1="25.5" y1="1.98901" x2="25.5" y2="21.989" gradientUnits="userSpaceOnUse">
<stop stop-color="#F7C7A2"/>
<stop offset="1" stop-color="#755200"/>
</linearGradient>
</defs>
</svg>
