<svg width="53" height="24" viewBox="0 0 53 24" fill="none" xmlns="http://www.w3.org/2000/svg">
<rect x="2" y="1.98901" width="50" height="20" rx="10" fill="url(#paint0_linear_67_1874)"/>
<rect x="2" y="1.98901" width="50" height="20" rx="10" stroke="#612F00" stroke-width="3" stroke-linejoin="round"/>
<path d="M10.2012 15.989V7.39917H13.8516C14.7695 7.39917 15.4355 7.47729 15.8496 7.63354C16.2676 7.78589 16.6016 8.05933 16.8516 8.45386C17.1016 8.84839 17.2266 9.29956 17.2266 9.80737C17.2266 10.4519 17.0371 10.9851 16.6582 11.407C16.2793 11.825 15.7129 12.0886 14.959 12.198C15.334 12.4167 15.6426 12.657 15.8848 12.9187C16.1309 13.1804 16.4609 13.6453 16.875 14.3132L17.9238 15.989H15.8496L14.5957 14.1199C14.1504 13.4519 13.8457 13.032 13.6816 12.8601C13.5176 12.6843 13.3438 12.5652 13.1602 12.5027C12.9766 12.4363 12.6855 12.4031 12.2871 12.4031H11.9355V15.989H10.2012ZM11.9355 11.032H13.2188C14.0508 11.032 14.5703 10.9968 14.7773 10.9265C14.9844 10.8562 15.1465 10.7351 15.2637 10.5632C15.3809 10.3914 15.4395 10.1765 15.4395 9.9187C15.4395 9.62964 15.3613 9.39722 15.2051 9.22144C15.0527 9.04175 14.8359 8.92847 14.5547 8.88159C14.4141 8.86206 13.9922 8.85229 13.2891 8.85229H11.9355V11.032ZM18.873 15.989V7.39917H20.6074V10.78H24.0059V7.39917H25.7402V15.989H24.0059V12.2332H20.6074V15.989H18.873ZM35.2852 15.989H33.3984L32.6484 14.0378H29.2148L28.5059 15.989H26.666L30.0117 7.39917H31.8457L35.2852 15.989ZM32.0918 12.5906L30.9082 9.40308L29.748 12.5906H32.0918ZM40.207 12.8308V11.3835H43.9453V14.8054C43.582 15.157 43.0547 15.4675 42.3633 15.7371C41.6758 16.0027 40.9785 16.1355 40.2715 16.1355C39.373 16.1355 38.5898 15.948 37.9219 15.573C37.2539 15.1941 36.752 14.655 36.416 13.9558C36.0801 13.2527 35.9121 12.489 35.9121 11.6648C35.9121 10.7703 36.0996 9.97534 36.4746 9.28003C36.8496 8.58472 37.3984 8.05151 38.1211 7.68042C38.6719 7.39526 39.3574 7.25269 40.1777 7.25269C41.2441 7.25269 42.0762 7.47729 42.6738 7.92651C43.2754 8.37183 43.6621 8.98901 43.834 9.77808L42.1113 10.1003C41.9902 9.67847 41.7617 9.34644 41.4258 9.10425C41.0938 8.85815 40.6777 8.73511 40.1777 8.73511C39.4199 8.73511 38.8164 8.97534 38.3672 9.45581C37.9219 9.93628 37.6992 10.6492 37.6992 11.5945C37.6992 12.614 37.9258 13.3796 38.3789 13.8914C38.832 14.3992 39.4258 14.6531 40.1602 14.6531C40.5234 14.6531 40.8867 14.5828 41.25 14.4421C41.6172 14.2976 41.9316 14.1238 42.1934 13.9207V12.8308H40.207Z" fill="white"/>
<defs>
<linearGradient id="paint0_linear_67_1874" x1="27" y1="1.98901" x2="27" y2="21.989" gradientUnits="userSpaceOnUse">
<stop stop-color="#612F00"/>
<stop offset="1" stop-color="#C16F1B"/>
</linearGradient>
</defs>
</svg>
