<svg width="103" height="36" viewBox="0 0 103 36" fill="none" xmlns="http://www.w3.org/2000/svg">
<rect x="2" y="1.98901" width="100" height="32" rx="10" fill="url(#paint0_linear_67_1854)"/>
<rect x="2" y="1.98901" width="100" height="32" rx="10" stroke="#0052AF" stroke-width="3" stroke-linejoin="round"/>
<path d="M10.0703 14.989V6.39917H13.7207C14.6387 6.39917 15.3047 6.47729 15.7188 6.63354C16.1367 6.78589 16.4707 7.05933 16.7207 7.45386C16.9707 7.84839 17.0957 8.29956 17.0957 8.80737C17.0957 9.4519 16.9062 9.98511 16.5273 10.407C16.1484 10.825 15.582 11.0886 14.8281 11.198C15.2031 11.4167 15.5117 11.657 15.7539 11.9187C16 12.1804 16.3301 12.6453 16.7441 13.3132L17.793 14.989H15.7188L14.4648 13.1199C14.0195 12.4519 13.7148 12.032 13.5508 11.8601C13.3867 11.6843 13.2129 11.5652 13.0293 11.5027C12.8457 11.4363 12.5547 11.4031 12.1562 11.4031H11.8047V14.989H10.0703ZM11.8047 10.032H13.0879C13.9199 10.032 14.4395 9.99683 14.6465 9.92651C14.8535 9.8562 15.0156 9.73511 15.1328 9.56323C15.25 9.39136 15.3086 9.17651 15.3086 8.9187C15.3086 8.62964 15.2305 8.39722 15.0742 8.22144C14.9219 8.04175 14.7051 7.92847 14.4238 7.88159C14.2832 7.86206 13.8613 7.85229 13.1582 7.85229H11.8047V10.032ZM18.7539 14.989V6.39917H20.4414L23.957 12.1355V6.39917H25.5684V14.989H23.8281L20.3652 9.38745V14.989H18.7539ZM35.1543 14.989H33.2676L32.5176 13.0378H29.084L28.375 14.989H26.5352L29.8809 6.39917H31.7148L35.1543 14.989ZM31.9609 11.5906L30.7773 8.40308L29.6172 11.5906H31.9609ZM38.5352 12.1941L40.2227 12.03C40.3242 12.5964 40.5293 13.0125 40.8379 13.2781C41.1504 13.5437 41.5703 13.6765 42.0977 13.6765C42.6562 13.6765 43.0762 13.5593 43.3574 13.325C43.6426 13.0867 43.7852 12.8093 43.7852 12.4929C43.7852 12.2898 43.7246 12.1179 43.6035 11.9773C43.4863 11.8328 43.2793 11.7078 42.9824 11.6023C42.7793 11.532 42.3164 11.407 41.5938 11.2273C40.6641 10.9968 40.0117 10.7136 39.6367 10.3777C39.1094 9.90503 38.8457 9.32886 38.8457 8.64917C38.8457 8.21167 38.9688 7.80347 39.2148 7.42456C39.4648 7.04175 39.8223 6.75073 40.2871 6.55151C40.7559 6.35229 41.3203 6.25269 41.9805 6.25269C43.0586 6.25269 43.8691 6.48901 44.4121 6.96167C44.959 7.43433 45.2461 8.06519 45.2734 8.85425L43.5391 8.93042C43.4648 8.48901 43.3047 8.17261 43.0586 7.9812C42.8164 7.78589 42.4512 7.68823 41.9629 7.68823C41.459 7.68823 41.0645 7.79175 40.7793 7.99878C40.5957 8.13159 40.5039 8.30933 40.5039 8.53198C40.5039 8.73511 40.5898 8.90894 40.7617 9.05347C40.9805 9.23706 41.5117 9.42847 42.3555 9.62769C43.1992 9.8269 43.8223 10.0339 44.2246 10.2488C44.6309 10.4597 44.9473 10.7507 45.1738 11.1218C45.4043 11.489 45.5195 11.9441 45.5195 12.4871C45.5195 12.9792 45.3828 13.4402 45.1094 13.8699C44.8359 14.2996 44.4492 14.6199 43.9492 14.8308C43.4492 15.0378 42.8262 15.1414 42.0801 15.1414C40.9941 15.1414 40.1602 14.8914 39.5781 14.3914C38.9961 13.8875 38.6484 13.155 38.5352 12.1941ZM46.9785 14.989V6.39917H49.7617C50.8164 6.39917 51.5039 6.44214 51.8242 6.52808C52.3164 6.65698 52.7285 6.93823 53.0605 7.37183C53.3926 7.80151 53.5586 8.35815 53.5586 9.04175C53.5586 9.56909 53.4629 10.0125 53.2715 10.3718C53.0801 10.7312 52.8359 11.0144 52.5391 11.2214C52.2461 11.4246 51.9473 11.5593 51.6426 11.6257C51.2285 11.7078 50.6289 11.7488 49.8438 11.7488H48.7129V14.989H46.9785ZM48.7129 7.85229V10.2898H49.6621C50.3457 10.2898 50.8027 10.2449 51.0332 10.155C51.2637 10.0652 51.4434 9.92456 51.5723 9.73315C51.7051 9.54175 51.7715 9.31909 51.7715 9.06519C51.7715 8.75269 51.6797 8.49487 51.4961 8.29175C51.3125 8.08862 51.0801 7.96167 50.7988 7.91089C50.5918 7.87183 50.1758 7.85229 49.5508 7.85229H48.7129ZM55.0293 14.989V6.46948H56.7637V13.5417H61.0762V14.989H55.0293ZM62.2656 14.989V6.39917H64V14.989H62.2656ZM71.1543 11.8308L72.8359 12.364C72.5781 13.3015 72.1484 13.9988 71.5469 14.4558C70.9492 14.9089 70.1895 15.1355 69.2676 15.1355C68.127 15.1355 67.1895 14.7468 66.4551 13.9695C65.7207 13.1882 65.3535 12.1218 65.3535 10.7703C65.3535 9.34058 65.7227 8.2312 66.4609 7.44214C67.1992 6.64917 68.1699 6.25269 69.373 6.25269C70.4238 6.25269 71.2773 6.56323 71.9336 7.18433C72.3242 7.55151 72.6172 8.07886 72.8125 8.76636L71.0957 9.17651C70.9941 8.7312 70.7812 8.37964 70.457 8.12183C70.1367 7.86401 69.7461 7.73511 69.2852 7.73511C68.6484 7.73511 68.1309 7.96362 67.7324 8.42065C67.3379 8.87769 67.1406 9.61792 67.1406 10.6414C67.1406 11.7273 67.3359 12.5007 67.7266 12.9617C68.1172 13.4226 68.625 13.6531 69.25 13.6531C69.7109 13.6531 70.1074 13.5066 70.4395 13.2136C70.7715 12.9207 71.0098 12.4597 71.1543 11.8308ZM74.2773 14.989V6.39917H76.0117V14.989H74.2773ZM77.6875 14.989V6.39917H79.375L82.8906 12.1355V6.39917H84.502V14.989H82.7617L79.2988 9.38745V14.989H77.6875ZM90.3379 11.8308V10.3835H94.0762V13.8054C93.7129 14.157 93.1855 14.4675 92.4941 14.7371C91.8066 15.0027 91.1094 15.1355 90.4023 15.1355C89.5039 15.1355 88.7207 14.948 88.0527 14.573C87.3848 14.1941 86.8828 13.655 86.5469 12.9558C86.2109 12.2527 86.043 11.489 86.043 10.6648C86.043 9.77026 86.2305 8.97534 86.6055 8.28003C86.9805 7.58472 87.5293 7.05151 88.252 6.68042C88.8027 6.39526 89.4883 6.25269 90.3086 6.25269C91.375 6.25269 92.207 6.47729 92.8047 6.92651C93.4062 7.37183 93.793 7.98901 93.9648 8.77808L92.2422 9.10034C92.1211 8.67847 91.8926 8.34644 91.5566 8.10425C91.2246 7.85815 90.8086 7.73511 90.3086 7.73511C89.5508 7.73511 88.9473 7.97534 88.498 8.45581C88.0527 8.93628 87.8301 9.64917 87.8301 10.5945C87.8301 11.614 88.0566 12.3796 88.5098 12.8914C88.9629 13.3992 89.5566 13.6531 90.291 13.6531C90.6543 13.6531 91.0176 13.5828 91.3809 13.4421C91.748 13.2976 92.0625 13.1238 92.3242 12.9207V11.8308H90.3379ZM26.1895 28.989V20.3992H28.9727C30.0273 20.3992 30.7148 20.4421 31.0352 20.5281C31.5273 20.657 31.9395 20.9382 32.2715 21.3718C32.6035 21.8015 32.7695 22.3582 32.7695 23.0417C32.7695 23.5691 32.6738 24.0125 32.4824 24.3718C32.291 24.7312 32.0469 25.0144 31.75 25.2214C31.457 25.4246 31.1582 25.5593 30.8535 25.6257C30.4395 25.7078 29.8398 25.7488 29.0547 25.7488H27.9238V28.989H26.1895ZM27.9238 21.8523V24.2898H28.873C29.5566 24.2898 30.0137 24.2449 30.2441 24.155C30.4746 24.0652 30.6543 23.9246 30.7832 23.7332C30.916 23.5417 30.9824 23.3191 30.9824 23.0652C30.9824 22.7527 30.8906 22.4949 30.707 22.2917C30.5234 22.0886 30.291 21.9617 30.0098 21.9109C29.8027 21.8718 29.3867 21.8523 28.7617 21.8523H27.9238ZM34.1992 28.989V20.3992H37.8496C38.7676 20.3992 39.4336 20.4773 39.8477 20.6335C40.2656 20.7859 40.5996 21.0593 40.8496 21.4539C41.0996 21.8484 41.2246 22.2996 41.2246 22.8074C41.2246 23.4519 41.0352 23.9851 40.6562 24.407C40.2773 24.825 39.7109 25.0886 38.957 25.198C39.332 25.4167 39.6406 25.657 39.8828 25.9187C40.1289 26.1804 40.459 26.6453 40.873 27.3132L41.9219 28.989H39.8477L38.5938 27.1199C38.1484 26.4519 37.8438 26.032 37.6797 25.8601C37.5156 25.6843 37.3418 25.5652 37.1582 25.5027C36.9746 25.4363 36.6836 25.4031 36.2852 25.4031H35.9336V28.989H34.1992ZM35.9336 24.032H37.2168C38.0488 24.032 38.5684 23.9968 38.7754 23.9265C38.9824 23.8562 39.1445 23.7351 39.2617 23.5632C39.3789 23.3914 39.4375 23.1765 39.4375 22.9187C39.4375 22.6296 39.3594 22.3972 39.2031 22.2214C39.0508 22.0417 38.834 21.9285 38.5527 21.8816C38.4121 21.8621 37.9902 21.8523 37.2871 21.8523H35.9336V24.032ZM42.5137 24.7468C42.5137 23.8718 42.6445 23.1375 42.9062 22.5437C43.1016 22.1062 43.3672 21.7136 43.7031 21.366C44.043 21.0183 44.4141 20.7605 44.8164 20.5925C45.3516 20.366 45.9688 20.2527 46.668 20.2527C47.9336 20.2527 48.9453 20.6453 49.7031 21.4304C50.4648 22.2156 50.8457 23.3074 50.8457 24.7058C50.8457 26.0925 50.4688 27.1785 49.7148 27.9636C48.9609 28.7449 47.9531 29.1355 46.6914 29.1355C45.4141 29.1355 44.3984 28.7468 43.6445 27.9695C42.8906 27.1882 42.5137 26.114 42.5137 24.7468ZM44.3008 24.6882C44.3008 25.6609 44.5254 26.3992 44.9746 26.9031C45.4238 27.4031 45.9941 27.6531 46.6855 27.6531C47.377 27.6531 47.9434 27.405 48.3848 26.9089C48.8301 26.4089 49.0527 25.6609 49.0527 24.6648C49.0527 23.6804 48.8359 22.946 48.4023 22.4617C47.9727 21.9773 47.4004 21.7351 46.6855 21.7351C45.9707 21.7351 45.3945 21.9812 44.957 22.4734C44.5195 22.9617 44.3008 23.7 44.3008 24.6882ZM54.1387 28.989V21.8523H51.5898V20.3992H58.416V21.8523H55.873V28.989H54.1387ZM59.541 28.989V20.3992H65.9102V21.8523H61.2754V23.7566H65.5879V25.2039H61.2754V27.5417H66.0742V28.989H59.541ZM67.4922 28.989V20.3992H69.2266V28.989H67.4922ZM70.9023 28.989V20.3992H72.5898L76.1055 26.1355V20.3992H77.7168V28.989H75.9766L72.5137 23.3875V28.989H70.9023Z" fill="white"/>
<defs>
<linearGradient id="paint0_linear_67_1854" x1="52" y1="1.98901" x2="52" y2="33.989" gradientUnits="userSpaceOnUse">
<stop stop-color="#A68510"/>
<stop offset="1" stop-color="#06A2B2"/>
</linearGradient>
</defs>
</svg>
