<svg width="39" height="40" viewBox="0 0 39 40" fill="none" xmlns="http://www.w3.org/2000/svg">
<path d="M19.498 1.48901C29.8326 1.48925 38.2402 9.89738 38.2402 20.2332C38.24 30.5688 29.8324 38.9751 19.498 38.9753C9.16227 38.9753 0.754145 30.5677 0.753906 20.2332C0.753906 9.89833 9.16198 1.48901 19.498 1.48901Z" fill="url(#paint0_radial_89_4113)" stroke="#0A4654"/>
<path d="M11.0742 23.989V15.3992H12.8086V23.989H11.0742ZM14.5137 23.989V15.4695H16.248V22.5417H20.5605V23.989H14.5137ZM22.8516 19.3542C22.4258 19.1746 22.1152 18.9285 21.9199 18.616C21.7285 18.2996 21.6328 17.9539 21.6328 17.5789C21.6328 16.9382 21.8555 16.4089 22.3008 15.991C22.75 15.573 23.3867 15.364 24.2109 15.364C25.0273 15.364 25.6602 15.573 26.1094 15.991C26.5625 16.4089 26.7891 16.9382 26.7891 17.5789C26.7891 17.9773 26.6855 18.3328 26.4785 18.6453C26.2715 18.9539 25.9805 19.1902 25.6055 19.3542C26.082 19.5457 26.4434 19.825 26.6895 20.1921C26.9395 20.5593 27.0645 20.9832 27.0645 21.4636C27.0645 22.2566 26.8105 22.9011 26.3027 23.3972C25.7988 23.8933 25.127 24.1414 24.2871 24.1414C23.5059 24.1414 22.8555 23.9363 22.3359 23.5261C21.7227 23.0417 21.416 22.3777 21.416 21.5339C21.416 21.0691 21.5312 20.6433 21.7617 20.2566C21.9922 19.866 22.3555 19.5652 22.8516 19.3542ZM23.1914 17.696C23.1914 18.0242 23.2832 18.28 23.4668 18.4636C23.6543 18.6472 23.9023 18.739 24.2109 18.739C24.5234 18.739 24.7734 18.6472 24.9609 18.4636C25.1484 18.2761 25.2422 18.0183 25.2422 17.6902C25.2422 17.3816 25.1484 17.1355 24.9609 16.9519C24.7773 16.7644 24.5332 16.6707 24.2285 16.6707C23.9121 16.6707 23.6602 16.7644 23.4727 16.9519C23.2852 17.1394 23.1914 17.3875 23.1914 17.696ZM23.0391 21.3757C23.0391 21.8289 23.1543 22.1824 23.3848 22.4363C23.6191 22.6902 23.9102 22.8171 24.2578 22.8171C24.5977 22.8171 24.8789 22.696 25.1016 22.4539C25.3242 22.2078 25.4355 21.8542 25.4355 21.3933C25.4355 20.991 25.3223 20.6687 25.0957 20.4265C24.8691 20.1804 24.582 20.0574 24.2344 20.0574C23.832 20.0574 23.5312 20.196 23.332 20.4734C23.1367 20.7507 23.0391 21.0515 23.0391 21.3757Z" fill="white"/>
<defs>
<radialGradient id="paint0_radial_89_4113" cx="0" cy="0" r="1" gradientUnits="userSpaceOnUse" gradientTransform="translate(11.543 10.7757) rotate(180) scale(17.472)">
<stop stop-color="#9FD179"/>
<stop offset="0.0088" stop-color="#9ACF7C"/>
<stop offset="0.0838" stop-color="#79C48F"/>
<stop offset="0.1669" stop-color="#5BB99F"/>
<stop offset="0.2587" stop-color="#44B1AC"/>
<stop offset="0.3628" stop-color="#31ABB6"/>
<stop offset="0.4866" stop-color="#25A6BE"/>
<stop offset="0.6492" stop-color="#1DA4C2"/>
<stop offset="1" stop-color="#1BA3C3"/>
</radialGradient>
</defs>
</svg>
