<svg width="61" height="174" viewBox="0 0 61 174" fill="none" xmlns="http://www.w3.org/2000/svg">
<path d="M40.7915 154.988H50.7915C55.762 154.988 59.7915 159.017 59.7915 163.988C59.7915 168.958 55.7621 172.988 50.7915 172.988H40.7915C35.821 172.988 31.7915 168.958 31.7915 163.988C31.7915 159.017 35.8209 154.988 40.7915 154.988Z" fill="#88D0D8" stroke="#00283B" stroke-width="2"/>
<path d="M10.7915 154.988H20.7915C25.762 154.988 29.7915 159.017 29.7915 163.988C29.7915 168.958 25.7621 172.988 20.7915 172.988H10.7915C5.82099 172.988 1.7915 168.958 1.7915 163.988C1.7915 159.017 5.8209 154.988 10.7915 154.988Z" fill="#88D0D8" stroke="#00283B" stroke-width="2"/>
<path d="M44.7817 21.2883H46.8013C53.9755 21.2883 59.7915 27.1043 59.7915 34.2786V139.997L59.7876 140.333C59.6095 147.352 53.8632 152.988 46.8013 152.988H44.7817C37.6075 152.988 31.7915 147.172 31.7915 139.997V34.2786C31.7915 27.1043 37.6075 21.2883 44.7817 21.2883Z" fill="#88D0D8" stroke="#00283B" stroke-width="2"/>
<path d="M14.7817 21.2883H16.8013C23.9755 21.2883 29.7915 27.1043 29.7915 34.2786V139.997L29.7876 140.333C29.6095 147.352 23.8632 152.988 16.8013 152.988H14.7817C7.60752 152.988 1.7915 147.172 1.7915 139.997V34.2786C1.7915 27.1043 7.60752 21.2883 14.7817 21.2883Z" fill="#88D0D8" stroke="#00283B" stroke-width="2"/>
<path d="M40.7915 1.28833H50.7915C55.762 1.28833 59.7915 5.31772 59.7915 10.2883C59.7915 15.2589 55.7621 19.2883 50.7915 19.2883H40.7915C35.821 19.2883 31.7915 15.2589 31.7915 10.2883C31.7915 5.31781 35.8209 1.28833 40.7915 1.28833Z" fill="#88D0D8" stroke="#00283B" stroke-width="2"/>
<path d="M10.7915 1.28833H20.7915C25.762 1.28833 29.7915 5.31772 29.7915 10.2883C29.7915 15.2589 25.7621 19.2883 20.7915 19.2883H10.7915C5.82098 19.2883 1.7915 15.2589 1.7915 10.2883C1.7915 5.31781 5.8209 1.28833 10.7915 1.28833Z" fill="#88D0D8" stroke="#00283B" stroke-width="2"/>
</svg>
