<svg width="58" height="24" viewBox="0 0 58 24" fill="none" xmlns="http://www.w3.org/2000/svg">
<rect x="2" y="1.98901" width="55" height="20" rx="10" fill="url(#paint0_linear_42_2595)"/>
<rect x="2" y="1.98901" width="55" height="20" rx="10" stroke="#61145C" stroke-width="3" stroke-linejoin="round"/>
<path d="M10.3574 15.989V7.39917H16.7266V8.85229H12.0918V10.7566H16.4043V12.2039H12.0918V14.5417H16.8906V15.989H10.3574ZM23.8574 12.8308L25.5391 13.364C25.2812 14.3015 24.8516 14.9988 24.25 15.4558C23.6523 15.9089 22.8926 16.1355 21.9707 16.1355C20.8301 16.1355 19.8926 15.7468 19.1582 14.9695C18.4238 14.1882 18.0566 13.1218 18.0566 11.7703C18.0566 10.3406 18.4258 9.2312 19.1641 8.44214C19.9023 7.64917 20.873 7.25269 22.0762 7.25269C23.127 7.25269 23.9805 7.56323 24.6367 8.18433C25.0273 8.55151 25.3203 9.07886 25.5156 9.76636L23.7988 10.1765C23.6973 9.7312 23.4844 9.37964 23.1602 9.12183C22.8398 8.86401 22.4492 8.73511 21.9883 8.73511C21.3516 8.73511 20.834 8.96362 20.4355 9.42065C20.041 9.87769 19.8438 10.6179 19.8438 11.6414C19.8438 12.7273 20.0391 13.5007 20.4297 13.9617C20.8203 14.4226 21.3281 14.6531 21.9531 14.6531C22.4141 14.6531 22.8105 14.5066 23.1426 14.2136C23.4746 13.9207 23.7129 13.4597 23.8574 12.8308ZM27.0391 15.989V7.39917H28.7734V10.78H32.1719V7.39917H33.9062V15.989H32.1719V12.2332H28.7734V15.989H27.0391ZM35.2656 13.1941L36.9531 13.03C37.0547 13.5964 37.2598 14.0125 37.5684 14.2781C37.8809 14.5437 38.3008 14.6765 38.8281 14.6765C39.3867 14.6765 39.8066 14.5593 40.0879 14.325C40.373 14.0867 40.5156 13.8093 40.5156 13.4929C40.5156 13.2898 40.4551 13.1179 40.334 12.9773C40.2168 12.8328 40.0098 12.7078 39.7129 12.6023C39.5098 12.532 39.0469 12.407 38.3242 12.2273C37.3945 11.9968 36.7422 11.7136 36.3672 11.3777C35.8398 10.905 35.5762 10.3289 35.5762 9.64917C35.5762 9.21167 35.6992 8.80347 35.9453 8.42456C36.1953 8.04175 36.5527 7.75073 37.0176 7.55151C37.4863 7.35229 38.0508 7.25269 38.7109 7.25269C39.7891 7.25269 40.5996 7.48901 41.1426 7.96167C41.6895 8.43433 41.9766 9.06519 42.0039 9.85425L40.2695 9.93042C40.1953 9.48901 40.0352 9.17261 39.7891 8.9812C39.5469 8.78589 39.1816 8.68823 38.6934 8.68823C38.1895 8.68823 37.7949 8.79175 37.5098 8.99878C37.3262 9.13159 37.2344 9.30933 37.2344 9.53198C37.2344 9.73511 37.3203 9.90894 37.4922 10.0535C37.7109 10.2371 38.2422 10.4285 39.0859 10.6277C39.9297 10.8269 40.5527 11.0339 40.9551 11.2488C41.3613 11.4597 41.6777 11.7507 41.9043 12.1218C42.1348 12.489 42.25 12.9441 42.25 13.4871C42.25 13.9792 42.1133 14.4402 41.8398 14.8699C41.5664 15.2996 41.1797 15.6199 40.6797 15.8308C40.1797 16.0378 39.5566 16.1414 38.8105 16.1414C37.7246 16.1414 36.8906 15.8914 36.3086 15.3914C35.7266 14.8875 35.3789 14.155 35.2656 13.1941ZM47.5586 15.989H45.9121V9.78394C45.3105 10.3464 44.6016 10.7625 43.7852 11.032V9.53784C44.2148 9.39722 44.6816 9.13159 45.1855 8.74097C45.6895 8.34644 46.0352 7.88745 46.2227 7.36401H47.5586V15.989Z" fill="white"/>
<defs>
<linearGradient id="paint0_linear_42_2595" x1="29.5" y1="1.98901" x2="29.5" y2="21.989" gradientUnits="userSpaceOnUse">
<stop stop-color="#61145C"/>
<stop offset="1" stop-color="#FD8B48"/>
</linearGradient>
</defs>
</svg>
