<svg width="69" height="24" viewBox="0 0 69 24" fill="none" xmlns="http://www.w3.org/2000/svg">
<rect x="1" y="1.98901" width="67" height="20" rx="10" fill="url(#paint0_linear_50_1845)"/>
<rect x="1" y="1.98901" width="67" height="20" rx="10" stroke="#000079" stroke-width="3" stroke-linejoin="round"/>
<path d="M9.32812 15.989V7.39917H11.9238L13.4824 13.2585L15.0234 7.39917H17.625V15.989H16.0137V9.22729L14.3086 15.989H12.6387L10.9395 9.22729V15.989H9.32812ZM27.0938 15.989H25.207L24.457 14.0378H21.0234L20.3145 15.989H18.4746L21.8203 7.39917H23.6543L27.0938 15.989ZM23.9004 12.5906L22.7168 9.40308L21.5566 12.5906H23.9004ZM28.0195 15.989V7.39917H30.8027C31.8574 7.39917 32.5449 7.44214 32.8652 7.52808C33.3574 7.65698 33.7695 7.93823 34.1016 8.37183C34.4336 8.80151 34.5996 9.35815 34.5996 10.0417C34.5996 10.5691 34.5039 11.0125 34.3125 11.3718C34.1211 11.7312 33.877 12.0144 33.5801 12.2214C33.2871 12.4246 32.9883 12.5593 32.6836 12.6257C32.2695 12.7078 31.6699 12.7488 30.8848 12.7488H29.7539V15.989H28.0195ZM29.7539 8.85229V11.2898H30.7031C31.3867 11.2898 31.8438 11.2449 32.0742 11.155C32.3047 11.0652 32.4844 10.9246 32.6133 10.7332C32.7461 10.5417 32.8125 10.3191 32.8125 10.0652C32.8125 9.75269 32.7207 9.49487 32.5371 9.29175C32.3535 9.08862 32.1211 8.96167 31.8398 8.91089C31.6328 8.87183 31.2168 8.85229 30.5918 8.85229H29.7539ZM36.0469 15.989V7.39917H37.7812V11.2136L41.2852 7.39917H43.6172L40.3828 10.7449L43.793 15.989H41.5488L39.1875 11.9578L37.7812 13.3933V15.989H36.0469ZM47.5605 15.989V14.2605H44.0449V12.8191L47.7715 7.36401H49.1543V12.8132H50.2207V14.2605H49.1543V15.989H47.5605ZM47.5605 12.8132V9.87769L45.5859 12.8132H47.5605ZM51.3223 14.3425H52.9688V15.5203C52.9688 15.9968 52.9277 16.3718 52.8457 16.6453C52.7637 16.9226 52.6074 17.1707 52.377 17.3894C52.1504 17.6082 51.8613 17.78 51.5098 17.905L51.1875 17.2253C51.5195 17.116 51.7559 16.9656 51.8965 16.7742C52.0371 16.5828 52.1113 16.321 52.1191 15.989H51.3223V14.3425ZM59.9297 9.50269L58.3359 9.67847C58.2969 9.35034 58.1953 9.10815 58.0312 8.9519C57.8672 8.79565 57.6543 8.71753 57.3926 8.71753C57.0449 8.71753 56.75 8.87378 56.5078 9.18628C56.2695 9.49878 56.1191 10.1492 56.0566 11.1375C56.4668 10.6531 56.9766 10.4109 57.5859 10.4109C58.2734 10.4109 58.8613 10.6726 59.3496 11.196C59.8418 11.7195 60.0879 12.3953 60.0879 13.2234C60.0879 14.1023 59.8301 14.8074 59.3145 15.3386C58.7988 15.8699 58.1367 16.1355 57.3281 16.1355C56.4609 16.1355 55.748 15.7996 55.1895 15.1277C54.6309 14.4519 54.3516 13.3464 54.3516 11.8113C54.3516 10.2371 54.6426 9.10229 55.2246 8.40698C55.8066 7.71167 56.5625 7.36401 57.4922 7.36401C58.1445 7.36401 58.6836 7.54761 59.1094 7.91479C59.5391 8.27808 59.8125 8.80737 59.9297 9.50269ZM56.1973 13.0945C56.1973 13.6296 56.3203 14.0437 56.5664 14.3367C56.8125 14.6257 57.0938 14.7703 57.4102 14.7703C57.7148 14.7703 57.9688 14.6511 58.1719 14.4128C58.375 14.1746 58.4766 13.7839 58.4766 13.241C58.4766 12.6824 58.3672 12.2742 58.1484 12.0164C57.9297 11.7546 57.6562 11.6238 57.3281 11.6238C57.0117 11.6238 56.7441 11.7488 56.5254 11.9988C56.3066 12.2449 56.1973 12.6101 56.1973 13.0945Z" fill="white"/>
<defs>
<linearGradient id="paint0_linear_50_1845" x1="34.5" y1="1.98901" x2="34.5" y2="21.989" gradientUnits="userSpaceOnUse">
<stop stop-color="#A27297"/>
<stop offset="1" stop-color="#000079"/>
</linearGradient>
</defs>
</svg>
