<svg width="53" height="24" viewBox="0 0 53 24" fill="none" xmlns="http://www.w3.org/2000/svg">
<rect x="2" y="1.98901" width="50" height="20" rx="10" fill="url(#paint0_linear_85_2087)"/>
<rect x="2" y="1.98901" width="50" height="20" rx="10" stroke="#6B20AC" stroke-width="3" stroke-linejoin="round"/>
<path d="M11.4199 15.989L9.36914 7.39917H11.1445L12.4395 13.2996L14.0098 7.39917H16.0723L17.5781 13.3992L18.8965 7.39917H20.6426L18.5566 15.989H16.7168L15.0059 9.56714L13.3008 15.989H11.4199ZM28.6113 15.989H26.7246L25.9746 14.0378H22.541L21.832 15.989H19.9922L23.3379 7.39917H25.1719L28.6113 15.989ZM25.418 12.5906L24.2344 9.40308L23.0742 12.5906H25.418ZM29.0977 13.1941L30.7852 13.03C30.8867 13.5964 31.0918 14.0125 31.4004 14.2781C31.7129 14.5437 32.1328 14.6765 32.6602 14.6765C33.2188 14.6765 33.6387 14.5593 33.9199 14.325C34.2051 14.0867 34.3477 13.8093 34.3477 13.4929C34.3477 13.2898 34.2871 13.1179 34.166 12.9773C34.0488 12.8328 33.8418 12.7078 33.5449 12.6023C33.3418 12.532 32.8789 12.407 32.1562 12.2273C31.2266 11.9968 30.5742 11.7136 30.1992 11.3777C29.6719 10.905 29.4082 10.3289 29.4082 9.64917C29.4082 9.21167 29.5312 8.80347 29.7773 8.42456C30.0273 8.04175 30.3848 7.75073 30.8496 7.55151C31.3184 7.35229 31.8828 7.25269 32.543 7.25269C33.6211 7.25269 34.4316 7.48901 34.9746 7.96167C35.5215 8.43433 35.8086 9.06519 35.8359 9.85425L34.1016 9.93042C34.0273 9.48901 33.8672 9.17261 33.6211 8.9812C33.3789 8.78589 33.0137 8.68823 32.5254 8.68823C32.0215 8.68823 31.627 8.79175 31.3418 8.99878C31.1582 9.13159 31.0664 9.30933 31.0664 9.53198C31.0664 9.73511 31.1523 9.90894 31.3242 10.0535C31.543 10.2371 32.0742 10.4285 32.918 10.6277C33.7617 10.8269 34.3848 11.0339 34.7871 11.2488C35.1934 11.4597 35.5098 11.7507 35.7363 12.1218C35.9668 12.489 36.082 12.9441 36.082 13.4871C36.082 13.9792 35.9453 14.4402 35.6719 14.8699C35.3984 15.2996 35.0117 15.6199 34.5117 15.8308C34.0117 16.0378 33.3887 16.1414 32.6426 16.1414C31.5566 16.1414 30.7227 15.8914 30.1406 15.3914C29.5586 14.8875 29.2109 14.155 29.0977 13.1941ZM37.541 15.989V7.39917H40.3242C41.3789 7.39917 42.0664 7.44214 42.3867 7.52808C42.8789 7.65698 43.291 7.93823 43.623 8.37183C43.9551 8.80151 44.1211 9.35815 44.1211 10.0417C44.1211 10.5691 44.0254 11.0125 43.834 11.3718C43.6426 11.7312 43.3984 12.0144 43.1016 12.2214C42.8086 12.4246 42.5098 12.5593 42.2051 12.6257C41.791 12.7078 41.1914 12.7488 40.4062 12.7488H39.2754V15.989H37.541ZM39.2754 8.85229V11.2898H40.2246C40.9082 11.2898 41.3652 11.2449 41.5957 11.155C41.8262 11.0652 42.0059 10.9246 42.1348 10.7332C42.2676 10.5417 42.334 10.3191 42.334 10.0652C42.334 9.75269 42.2422 9.49487 42.0586 9.29175C41.875 9.08862 41.6426 8.96167 41.3613 8.91089C41.1543 8.87183 40.7383 8.85229 40.1133 8.85229H39.2754Z" fill="white"/>
<defs>
<linearGradient id="paint0_linear_85_2087" x1="27" y1="1.98901" x2="27" y2="21.989" gradientUnits="userSpaceOnUse">
<stop stop-color="#6B20AC"/>
<stop offset="1" stop-color="#61A0FF"/>
</linearGradient>
</defs>
</svg>
