<svg width="59" height="24" viewBox="0 0 59 24" fill="none" xmlns="http://www.w3.org/2000/svg">
<rect x="2" y="1.98901" width="56" height="20" rx="10" fill="url(#paint0_linear_66_2011)"/>
<rect x="2" y="1.98901" width="56" height="20" rx="10" stroke="#9DE569" stroke-width="3" stroke-linejoin="round"/>
<path d="M10.1953 15.989V7.39917H12.9785C14.0332 7.39917 14.7207 7.44214 15.041 7.52808C15.5332 7.65698 15.9453 7.93823 16.2773 8.37183C16.6094 8.80151 16.7754 9.35815 16.7754 10.0417C16.7754 10.5691 16.6797 11.0125 16.4883 11.3718C16.2969 11.7312 16.0527 12.0144 15.7559 12.2214C15.4629 12.4246 15.1641 12.5593 14.8594 12.6257C14.4453 12.7078 13.8457 12.7488 13.0605 12.7488H11.9297V15.989H10.1953ZM11.9297 8.85229V11.2898H12.8789C13.5625 11.2898 14.0195 11.2449 14.25 11.155C14.4805 11.0652 14.6602 10.9246 14.7891 10.7332C14.9219 10.5417 14.9883 10.3191 14.9883 10.0652C14.9883 9.75269 14.8965 9.49487 14.7129 9.29175C14.5293 9.08862 14.2969 8.96167 14.0156 8.91089C13.8086 8.87183 13.3926 8.85229 12.7676 8.85229H11.9297ZM18.1992 15.989V7.39917H20.9824C22.0371 7.39917 22.7246 7.44214 23.0449 7.52808C23.5371 7.65698 23.9492 7.93823 24.2812 8.37183C24.6133 8.80151 24.7793 9.35815 24.7793 10.0417C24.7793 10.5691 24.6836 11.0125 24.4922 11.3718C24.3008 11.7312 24.0566 12.0144 23.7598 12.2214C23.4668 12.4246 23.168 12.5593 22.8633 12.6257C22.4492 12.7078 21.8496 12.7488 21.0645 12.7488H19.9336V15.989H18.1992ZM19.9336 8.85229V11.2898H20.8828C21.5664 11.2898 22.0234 11.2449 22.2539 11.155C22.4844 11.0652 22.6641 10.9246 22.793 10.7332C22.9258 10.5417 22.9922 10.3191 22.9922 10.0652C22.9922 9.75269 22.9004 9.49487 22.7168 9.29175C22.5332 9.08862 22.3008 8.96167 22.0195 8.91089C21.8125 8.87183 21.3965 8.85229 20.7715 8.85229H19.9336ZM26.1797 15.989V7.39917H28.7754L30.334 13.2585L31.875 7.39917H34.4766V15.989H32.8652V9.22729L31.1602 15.989H29.4902L27.791 9.22729V15.989H26.1797ZM40.0488 15.989H38.4023V9.78394C37.8008 10.3464 37.0918 10.7625 36.2754 11.032V9.53784C36.7051 9.39722 37.1719 9.13159 37.6758 8.74097C38.1797 8.34644 38.5254 7.88745 38.7129 7.36401H40.0488V15.989ZM42.9023 15.989V7.39917H44.6367V11.2136L48.1406 7.39917H50.4727L47.2383 10.7449L50.6484 15.989H48.4043L46.043 11.9578L44.6367 13.3933V15.989H42.9023Z" fill="white"/>
<defs>
<linearGradient id="paint0_linear_66_2011" x1="30" y1="1.98901" x2="30" y2="21.989" gradientUnits="userSpaceOnUse">
<stop stop-color="#9DE569"/>
<stop offset="1" stop-color="#CB5824"/>
</linearGradient>
</defs>
</svg>
