<svg width="44" height="24" viewBox="0 0 44 24" fill="none" xmlns="http://www.w3.org/2000/svg">
<rect x="2" y="1.98901" width="41" height="20" rx="10" fill="url(#paint0_linear_42_2636)"/>
<rect x="2" y="1.98901" width="41" height="20" rx="10" stroke="#9D4192" stroke-width="3" stroke-linejoin="round"/>
<path d="M10.0312 15.989V7.39917H15.9199V8.85229H11.7656V10.8855H15.3516V12.3386H11.7656V15.989H10.0312ZM21.2051 15.989H19.5586V9.78394C18.957 10.3464 18.248 10.7625 17.4316 11.032V9.53784C17.8613 9.39722 18.3281 9.13159 18.832 8.74097C19.3359 8.34644 19.6816 7.88745 19.8691 7.36401H21.2051V15.989ZM27.2168 15.989H25.5703V9.78394C24.9688 10.3464 24.2598 10.7625 23.4434 11.032V9.53784C23.873 9.39722 24.3398 9.13159 24.8438 8.74097C25.3477 8.34644 25.6934 7.88745 25.8809 7.36401H27.2168V15.989ZM31.2656 11.6648L29.7715 11.3953C29.9395 10.7937 30.2285 10.3484 30.6387 10.0593C31.0488 9.77026 31.6582 9.62573 32.4668 9.62573C33.2012 9.62573 33.748 9.71362 34.1074 9.8894C34.4668 10.0613 34.7188 10.282 34.8633 10.5515C35.0117 10.8171 35.0859 11.3074 35.0859 12.0222L35.0684 13.9441C35.0684 14.491 35.0938 14.8953 35.1445 15.157C35.1992 15.4148 35.2988 15.6921 35.4434 15.989H33.8145C33.7715 15.8796 33.7188 15.7175 33.6562 15.5027C33.6289 15.405 33.6094 15.3406 33.5977 15.3093C33.3164 15.5828 33.0156 15.7878 32.6953 15.9246C32.375 16.0613 32.0332 16.1296 31.6699 16.1296C31.0293 16.1296 30.5234 15.9558 30.1523 15.6082C29.7852 15.2605 29.6016 14.821 29.6016 14.2898C29.6016 13.9382 29.6855 13.6257 29.8535 13.3523C30.0215 13.075 30.2559 12.864 30.5566 12.7195C30.8613 12.571 31.2988 12.4421 31.8691 12.3328C32.6387 12.1882 33.1719 12.0535 33.4688 11.9285V11.7644C33.4688 11.448 33.3906 11.2234 33.2344 11.0906C33.0781 10.9539 32.7832 10.8855 32.3496 10.8855C32.0566 10.8855 31.8281 10.9441 31.6641 11.0613C31.5 11.1746 31.3672 11.3757 31.2656 11.6648ZM33.4688 13.0007C33.2578 13.071 32.9238 13.155 32.4668 13.2527C32.0098 13.3503 31.7109 13.446 31.5703 13.5398C31.3555 13.6921 31.248 13.8855 31.248 14.1199C31.248 14.3503 31.334 14.5496 31.5059 14.7175C31.6777 14.8855 31.8965 14.9695 32.1621 14.9695C32.459 14.9695 32.7422 14.8718 33.0117 14.6765C33.2109 14.5281 33.3418 14.3464 33.4043 14.1316C33.4473 13.991 33.4688 13.7234 33.4688 13.3289V13.0007Z" fill="white"/>
<defs>
<linearGradient id="paint0_linear_42_2636" x1="22.5" y1="1.98901" x2="22.5" y2="21.989" gradientUnits="userSpaceOnUse">
<stop stop-color="#305F5B"/>
<stop offset="1" stop-color="#9D4192"/>
</linearGradient>
</defs>
</svg>
