<svg width="43" height="24" viewBox="0 0 43 24" fill="none" xmlns="http://www.w3.org/2000/svg">
<rect x="2" y="1.98901" width="40" height="20" rx="10" fill="url(#paint0_linear_67_1884)"/>
<rect x="2" y="1.98901" width="40" height="20" rx="10" stroke="#1F2B53" stroke-width="3" stroke-linejoin="round"/>
<path d="M10.2051 15.989V7.39917H13.8555C14.7734 7.39917 15.4395 7.47729 15.8535 7.63354C16.2715 7.78589 16.6055 8.05933 16.8555 8.45386C17.1055 8.84839 17.2305 9.29956 17.2305 9.80737C17.2305 10.4519 17.041 10.9851 16.6621 11.407C16.2832 11.825 15.7168 12.0886 14.9629 12.198C15.3379 12.4167 15.6465 12.657 15.8887 12.9187C16.1348 13.1804 16.4648 13.6453 16.8789 14.3132L17.9277 15.989H15.8535L14.5996 14.1199C14.1543 13.4519 13.8496 13.032 13.6855 12.8601C13.5215 12.6843 13.3477 12.5652 13.1641 12.5027C12.9805 12.4363 12.6895 12.4031 12.291 12.4031H11.9395V15.989H10.2051ZM11.9395 11.032H13.2227C14.0547 11.032 14.5742 10.9968 14.7812 10.9265C14.9883 10.8562 15.1504 10.7351 15.2676 10.5632C15.3848 10.3914 15.4434 10.1765 15.4434 9.9187C15.4434 9.62964 15.3652 9.39722 15.209 9.22144C15.0566 9.04175 14.8398 8.92847 14.5586 8.88159C14.418 8.86206 13.9961 8.85229 13.293 8.85229H11.9395V11.032ZM17.998 15.989L20.9336 11.5066L18.2734 7.39917H20.3008L22.0234 10.1589L23.7109 7.39917H25.7207L23.0488 11.571L25.9844 15.989H23.8926L21.9883 13.0183L20.0781 15.989H17.998ZM26.8809 15.989V7.39917H30.5312C31.4492 7.39917 32.1152 7.47729 32.5293 7.63354C32.9473 7.78589 33.2812 8.05933 33.5312 8.45386C33.7812 8.84839 33.9062 9.29956 33.9062 9.80737C33.9062 10.4519 33.7168 10.9851 33.3379 11.407C32.959 11.825 32.3926 12.0886 31.6387 12.198C32.0137 12.4167 32.3223 12.657 32.5645 12.9187C32.8105 13.1804 33.1406 13.6453 33.5547 14.3132L34.6035 15.989H32.5293L31.2754 14.1199C30.8301 13.4519 30.5254 13.032 30.3613 12.8601C30.1973 12.6843 30.0234 12.5652 29.8398 12.5027C29.6562 12.4363 29.3652 12.4031 28.9668 12.4031H28.6152V15.989H26.8809ZM28.6152 11.032H29.8984C30.7305 11.032 31.25 10.9968 31.457 10.9265C31.6641 10.8562 31.8262 10.7351 31.9434 10.5632C32.0605 10.3914 32.1191 10.1765 32.1191 9.9187C32.1191 9.62964 32.041 9.39722 31.8848 9.22144C31.7324 9.04175 31.5156 8.92847 31.2344 8.88159C31.0938 8.86206 30.6719 8.85229 29.9688 8.85229H28.6152V11.032Z" fill="white"/>
<defs>
<linearGradient id="paint0_linear_67_1884" x1="22" y1="1.98901" x2="22" y2="21.989" gradientUnits="userSpaceOnUse">
<stop stop-color="#1F2B53"/>
<stop offset="1" stop-color="#52C477"/>
</linearGradient>
</defs>
</svg>
