<svg width="65" height="24" viewBox="0 0 65 24" fill="none" xmlns="http://www.w3.org/2000/svg">
<rect x="1" y="1.98901" width="63" height="20" rx="10" fill="url(#paint0_linear_13_505)"/>
<rect x="1" y="1.98901" width="63" height="20" rx="10" stroke="#F03EFF" stroke-width="3" stroke-linejoin="round"/>
<path d="M17.1016 15.989H15.2148L14.4648 14.0378H11.0312L10.3223 15.989H8.48242L11.8281 7.39917H13.6621L17.1016 15.989ZM13.9082 12.5906L12.7246 9.40308L11.5645 12.5906H13.9082ZM23.5234 12.8308L25.2051 13.364C24.9473 14.3015 24.5176 14.9988 23.916 15.4558C23.3184 15.9089 22.5586 16.1355 21.6367 16.1355C20.4961 16.1355 19.5586 15.7468 18.8242 14.9695C18.0898 14.1882 17.7227 13.1218 17.7227 11.7703C17.7227 10.3406 18.0918 9.2312 18.8301 8.44214C19.5684 7.64917 20.5391 7.25269 21.7422 7.25269C22.793 7.25269 23.6465 7.56323 24.3027 8.18433C24.6934 8.55151 24.9863 9.07886 25.1816 9.76636L23.4648 10.1765C23.3633 9.7312 23.1504 9.37964 22.8262 9.12183C22.5059 8.86401 22.1152 8.73511 21.6543 8.73511C21.0176 8.73511 20.5 8.96362 20.1016 9.42065C19.707 9.87769 19.5098 10.6179 19.5098 11.6414C19.5098 12.7273 19.7051 13.5007 20.0957 13.9617C20.4863 14.4226 20.9941 14.6531 21.6191 14.6531C22.0801 14.6531 22.4766 14.5066 22.8086 14.2136C23.1406 13.9207 23.3789 13.4597 23.5234 12.8308ZM28.6328 15.989V8.85229H26.084V7.39917H32.9102V8.85229H30.3672V15.989H28.6328ZM33.9824 15.989V7.39917H35.7168V15.989H33.9824ZM39.5664 15.989L36.4961 7.39917H38.377L40.5508 13.7566L42.6543 7.39917H44.4941L41.418 15.989H39.5664ZM45.3262 15.989V7.39917H47.0605V15.989H45.3262ZM48.7363 15.989V7.39917H50.4238L53.9395 13.1355V7.39917H55.5508V15.989H53.8105L50.3477 10.3875V15.989H48.7363Z" fill="white"/>
<defs>
<linearGradient id="paint0_linear_13_505" x1="32.5" y1="1.98901" x2="32.5" y2="21.989" gradientUnits="userSpaceOnUse">
<stop stop-color="#F03EFF"/>
<stop offset="1" stop-color="#64008F"/>
</linearGradient>
</defs>
</svg>
