<svg width="59" height="24" viewBox="0 0 59 24" fill="none" xmlns="http://www.w3.org/2000/svg">
<rect x="2" y="1.98901" width="56" height="20" rx="10" fill="url(#paint0_linear_45_4239)"/>
<rect x="2" y="1.98901" width="56" height="20" rx="10" stroke="#EA7439" stroke-width="3" stroke-linejoin="round"/>
<path d="M14.1855 12.8308V11.3835H17.9238V14.8054C17.5605 15.157 17.0332 15.4675 16.3418 15.7371C15.6543 16.0027 14.957 16.1355 14.25 16.1355C13.3516 16.1355 12.5684 15.948 11.9004 15.573C11.2324 15.1941 10.7305 14.655 10.3945 13.9558C10.0586 13.2527 9.89062 12.489 9.89062 11.6648C9.89062 10.7703 10.0781 9.97534 10.4531 9.28003C10.8281 8.58472 11.377 8.05151 12.0996 7.68042C12.6504 7.39526 13.3359 7.25269 14.1562 7.25269C15.2227 7.25269 16.0547 7.47729 16.6523 7.92651C17.2539 8.37183 17.6406 8.98901 17.8125 9.77808L16.0898 10.1003C15.9688 9.67847 15.7402 9.34644 15.4043 9.10425C15.0723 8.85815 14.6562 8.73511 14.1562 8.73511C13.3984 8.73511 12.7949 8.97534 12.3457 9.45581C11.9004 9.93628 11.6777 10.6492 11.6777 11.5945C11.6777 12.614 11.9043 13.3796 12.3574 13.8914C12.8105 14.3992 13.4043 14.6531 14.1387 14.6531C14.502 14.6531 14.8652 14.5828 15.2285 14.4421C15.5957 14.2976 15.9102 14.1238 16.1719 13.9207V12.8308H14.1855ZM19.5469 15.989V7.39917H21.2344L24.75 13.1355V7.39917H26.3613V15.989H24.6211L21.1582 10.3875V15.989H19.5469ZM32.1973 12.8308V11.3835H35.9355V14.8054C35.5723 15.157 35.0449 15.4675 34.3535 15.7371C33.666 16.0027 32.9688 16.1355 32.2617 16.1355C31.3633 16.1355 30.5801 15.948 29.9121 15.573C29.2441 15.1941 28.7422 14.655 28.4062 13.9558C28.0703 13.2527 27.9023 12.489 27.9023 11.6648C27.9023 10.7703 28.0898 9.97534 28.4648 9.28003C28.8398 8.58472 29.3887 8.05151 30.1113 7.68042C30.6621 7.39526 31.3477 7.25269 32.168 7.25269C33.2344 7.25269 34.0664 7.47729 34.6641 7.92651C35.2656 8.37183 35.6523 8.98901 35.8242 9.77808L34.1016 10.1003C33.9805 9.67847 33.752 9.34644 33.416 9.10425C33.084 8.85815 32.668 8.73511 32.168 8.73511C31.4102 8.73511 30.8066 8.97534 30.3574 9.45581C29.9121 9.93628 29.6895 10.6492 29.6895 11.5945C29.6895 12.614 29.916 13.3796 30.3691 13.8914C30.8223 14.3992 31.416 14.6531 32.1504 14.6531C32.5137 14.6531 32.877 14.5828 33.2402 14.4421C33.6074 14.2976 33.9219 14.1238 34.1836 13.9207V12.8308H32.1973ZM39.4746 15.989V8.85229H36.9258V7.39917H43.752V8.85229H41.209V15.989H39.4746ZM48.7266 15.989H47.0801V9.78394C46.4785 10.3464 45.7695 10.7625 44.9531 11.032V9.53784C45.3828 9.39722 45.8496 9.13159 46.3535 8.74097C46.8574 8.34644 47.2031 7.88745 47.3906 7.36401H48.7266V15.989Z" fill="white"/>
<defs>
<linearGradient id="paint0_linear_45_4239" x1="30" y1="1.98901" x2="30" y2="21.989" gradientUnits="userSpaceOnUse">
<stop stop-color="#EA7439"/>
<stop offset="1" stop-color="#00694B"/>
</linearGradient>
</defs>
</svg>
