<svg width="66" height="36" viewBox="0 0 66 36" fill="none" xmlns="http://www.w3.org/2000/svg">
<rect x="2" y="1.98901" width="63" height="32" rx="10" fill="url(#paint0_linear_83_1974)"/>
<rect x="2" y="1.98901" width="63" height="32" rx="10" stroke="#434A00" stroke-width="3" stroke-linejoin="round"/>
<path d="M17.5918 12.1941L19.2793 12.03C19.3809 12.5964 19.5859 13.0125 19.8945 13.2781C20.207 13.5437 20.627 13.6765 21.1543 13.6765C21.7129 13.6765 22.1328 13.5593 22.4141 13.325C22.6992 13.0867 22.8418 12.8093 22.8418 12.4929C22.8418 12.2898 22.7812 12.1179 22.6602 11.9773C22.543 11.8328 22.3359 11.7078 22.0391 11.6023C21.8359 11.532 21.373 11.407 20.6504 11.2273C19.7207 10.9968 19.0684 10.7136 18.6934 10.3777C18.166 9.90503 17.9023 9.32886 17.9023 8.64917C17.9023 8.21167 18.0254 7.80347 18.2715 7.42456C18.5215 7.04175 18.8789 6.75073 19.3438 6.55151C19.8125 6.35229 20.377 6.25269 21.0371 6.25269C22.1152 6.25269 22.9258 6.48901 23.4688 6.96167C24.0156 7.43433 24.3027 8.06519 24.3301 8.85425L22.5957 8.93042C22.5215 8.48901 22.3613 8.17261 22.1152 7.9812C21.873 7.78589 21.5078 7.68823 21.0195 7.68823C20.5156 7.68823 20.1211 7.79175 19.8359 7.99878C19.6523 8.13159 19.5605 8.30933 19.5605 8.53198C19.5605 8.73511 19.6465 8.90894 19.8184 9.05347C20.0371 9.23706 20.5684 9.42847 21.4121 9.62769C22.2559 9.8269 22.8789 10.0339 23.2812 10.2488C23.6875 10.4597 24.0039 10.7507 24.2305 11.1218C24.4609 11.489 24.5762 11.9441 24.5762 12.4871C24.5762 12.9792 24.4395 13.4402 24.166 13.8699C23.8926 14.2996 23.5059 14.6199 23.0059 14.8308C22.5059 15.0378 21.8828 15.1414 21.1367 15.1414C20.0508 15.1414 19.2168 14.8914 18.6348 14.3914C18.0527 13.8875 17.7051 13.155 17.5918 12.1941ZM26.0234 6.39917H27.7578V11.0515C27.7578 11.7898 27.7793 12.2683 27.8223 12.4871C27.8965 12.8386 28.0723 13.1218 28.3496 13.3367C28.6309 13.5476 29.0137 13.6531 29.498 13.6531C29.9902 13.6531 30.3613 13.5535 30.6113 13.3542C30.8613 13.1511 31.0117 12.9031 31.0625 12.6101C31.1133 12.3171 31.1387 11.8308 31.1387 11.1511V6.39917H32.873V10.9109C32.873 11.9421 32.8262 12.6707 32.7324 13.0964C32.6387 13.5222 32.4648 13.8816 32.2109 14.1746C31.9609 14.4675 31.625 14.7019 31.2031 14.8777C30.7812 15.0496 30.2305 15.1355 29.5508 15.1355C28.7305 15.1355 28.1074 15.0417 27.6816 14.8542C27.2598 14.6628 26.9258 14.4167 26.6797 14.116C26.4336 13.8113 26.2715 13.4929 26.1934 13.1609C26.0801 12.6687 26.0234 11.9421 26.0234 10.9812V6.39917ZM34.7129 14.989V6.39917H38.3633C39.2812 6.39917 39.9473 6.47729 40.3613 6.63354C40.7793 6.78589 41.1133 7.05933 41.3633 7.45386C41.6133 7.84839 41.7383 8.29956 41.7383 8.80737C41.7383 9.4519 41.5488 9.98511 41.1699 10.407C40.791 10.825 40.2246 11.0886 39.4707 11.198C39.8457 11.4167 40.1543 11.657 40.3965 11.9187C40.6426 12.1804 40.9727 12.6453 41.3867 13.3132L42.4355 14.989H40.3613L39.1074 13.1199C38.6621 12.4519 38.3574 12.032 38.1934 11.8601C38.0293 11.6843 37.8555 11.5652 37.6719 11.5027C37.4883 11.4363 37.1973 11.4031 36.7988 11.4031H36.4473V14.989H34.7129ZM36.4473 10.032H37.7305C38.5625 10.032 39.082 9.99683 39.2891 9.92651C39.4961 9.8562 39.6582 9.73511 39.7754 9.56323C39.8926 9.39136 39.9512 9.17651 39.9512 8.9187C39.9512 8.62964 39.873 8.39722 39.7168 8.22144C39.5645 8.04175 39.3477 7.92847 39.0664 7.88159C38.9258 7.86206 38.5039 7.85229 37.8008 7.85229H36.4473V10.032ZM43.3906 14.989V6.39917H49.2793V7.85229H45.125V9.8855H48.7109V11.3386H45.125V14.989H43.3906ZM15.4238 24.6062L13.8008 24.8992C13.7461 24.575 13.6211 24.3308 13.4258 24.1667C13.2344 24.0027 12.9844 23.9207 12.6758 23.9207C12.2656 23.9207 11.9375 24.0632 11.6914 24.3484C11.4492 24.6296 11.3281 25.1023 11.3281 25.7664C11.3281 26.5046 11.4512 27.0261 11.6973 27.3308C11.9473 27.6355 12.2812 27.7878 12.6992 27.7878C13.0117 27.7878 13.2676 27.7 13.4668 27.5242C13.666 27.3445 13.8066 27.0378 13.8887 26.6042L15.5059 26.8796C15.3379 27.6218 15.0156 28.1824 14.5391 28.5613C14.0625 28.9402 13.4238 29.1296 12.623 29.1296C11.7129 29.1296 10.9863 28.8425 10.4434 28.2683C9.9043 27.6941 9.63477 26.8992 9.63477 25.8835C9.63477 24.8562 9.90625 24.0574 10.4492 23.4871C10.9922 22.9128 11.7266 22.6257 12.6523 22.6257C13.4102 22.6257 14.0117 22.7898 14.457 23.1179C14.9062 23.4421 15.2285 23.9382 15.4238 24.6062ZM16.2969 25.7898C16.2969 25.2429 16.4316 24.7136 16.7012 24.2019C16.9707 23.6902 17.3516 23.2996 17.8438 23.03C18.3398 22.7605 18.8926 22.6257 19.502 22.6257C20.4434 22.6257 21.2148 22.9324 21.8164 23.5457C22.418 24.155 22.7188 24.9265 22.7188 25.8601C22.7188 26.8015 22.4141 27.5828 21.8047 28.2039C21.1992 28.821 20.4355 29.1296 19.5137 29.1296C18.9434 29.1296 18.3984 29.0007 17.8789 28.7429C17.3633 28.4851 16.9707 28.1082 16.7012 27.6121C16.4316 27.1121 16.2969 26.5046 16.2969 25.7898ZM17.9844 25.8777C17.9844 26.4949 18.1309 26.9675 18.4238 27.2957C18.7168 27.6238 19.0781 27.7878 19.5078 27.7878C19.9375 27.7878 20.2969 27.6238 20.5859 27.2957C20.8789 26.9675 21.0254 26.491 21.0254 25.866C21.0254 25.2566 20.8789 24.7878 20.5859 24.4597C20.2969 24.1316 19.9375 23.9675 19.5078 23.9675C19.0781 23.9675 18.7168 24.1316 18.4238 24.4597C18.1309 24.7878 17.9844 25.2605 17.9844 25.8777ZM23.8906 22.7664H25.4082V23.616C25.9512 22.9558 26.5977 22.6257 27.3477 22.6257C27.7461 22.6257 28.0918 22.7078 28.3848 22.8718C28.6777 23.0359 28.918 23.2839 29.1055 23.616C29.3789 23.2839 29.6738 23.0359 29.9902 22.8718C30.3066 22.7078 30.6445 22.6257 31.0039 22.6257C31.4609 22.6257 31.8477 22.7195 32.1641 22.907C32.4805 23.0906 32.7168 23.3621 32.873 23.7214C32.9863 23.9871 33.043 24.4167 33.043 25.0105V28.989H31.3965V25.4324C31.3965 24.8152 31.3398 24.4167 31.2266 24.2371C31.0742 24.0027 30.8398 23.8855 30.5234 23.8855C30.293 23.8855 30.0762 23.9558 29.873 24.0964C29.6699 24.2371 29.5234 24.4441 29.4336 24.7175C29.3438 24.9871 29.2988 25.4148 29.2988 26.0007V28.989H27.6523V25.5789C27.6523 24.9734 27.623 24.5828 27.5645 24.407C27.5059 24.2312 27.4141 24.1003 27.2891 24.0144C27.168 23.9285 27.002 23.8855 26.791 23.8855C26.5371 23.8855 26.3086 23.9539 26.1055 24.0906C25.9023 24.2273 25.7559 24.4246 25.666 24.6824C25.5801 24.9402 25.5371 25.3679 25.5371 25.9656V28.989H23.8906V22.7664ZM34.6426 22.7664H36.1777V23.6804C36.377 23.3679 36.6465 23.114 36.9863 22.9187C37.3262 22.7234 37.7031 22.6257 38.1172 22.6257C38.8398 22.6257 39.4531 22.9089 39.957 23.4753C40.4609 24.0417 40.7129 24.8308 40.7129 25.8425C40.7129 26.8816 40.459 27.6902 39.9512 28.2683C39.4434 28.8425 38.8281 29.1296 38.1055 29.1296C37.7617 29.1296 37.4492 29.0613 37.168 28.9246C36.8906 28.7878 36.5977 28.5535 36.2891 28.2214V31.3562H34.6426V22.7664ZM36.2715 25.7722C36.2715 26.4714 36.4102 26.989 36.6875 27.325C36.9648 27.657 37.3027 27.823 37.7012 27.823C38.084 27.823 38.4023 27.6707 38.6562 27.366C38.9102 27.0574 39.0371 26.5535 39.0371 25.8542C39.0371 25.2019 38.9062 24.7175 38.6445 24.4011C38.3828 24.0847 38.0586 23.9265 37.6719 23.9265C37.2695 23.9265 36.9355 24.0828 36.6699 24.3953C36.4043 24.7039 36.2715 25.1628 36.2715 25.7722ZM42.0254 28.989V20.3992H43.6719V28.989H42.0254ZM48.9688 27.0085L50.6094 27.2839C50.3984 27.8855 50.0645 28.3445 49.6074 28.6609C49.1543 28.9734 48.5859 29.1296 47.9023 29.1296C46.8203 29.1296 46.0195 28.7761 45.5 28.0691C45.0898 27.5027 44.8848 26.7878 44.8848 25.9246C44.8848 24.8933 45.1543 24.0867 45.6934 23.5046C46.2324 22.9187 46.9141 22.6257 47.7383 22.6257C48.6641 22.6257 49.3945 22.9324 49.9297 23.5457C50.4648 24.155 50.7207 25.0906 50.6973 26.3523H46.5723C46.584 26.8406 46.7168 27.2214 46.9707 27.4949C47.2246 27.7644 47.541 27.8992 47.9199 27.8992C48.1777 27.8992 48.3945 27.8289 48.5703 27.6882C48.7461 27.5476 48.8789 27.321 48.9688 27.0085ZM49.0625 25.3445C49.0508 24.8679 48.9277 24.5066 48.6934 24.2605C48.459 24.0105 48.1738 23.8855 47.8379 23.8855C47.4785 23.8855 47.1816 24.0164 46.9473 24.2781C46.7129 24.5398 46.5977 24.8953 46.6016 25.3445H49.0625ZM51.2539 28.989L53.498 25.7839L51.3477 22.7664H53.3574L54.459 24.4773L55.6191 22.7664H57.5527L55.4434 25.7136L57.7461 28.989H55.7246L54.459 27.0613L53.1816 28.989H51.2539Z" fill="white"/>
<defs>
<linearGradient id="paint0_linear_83_1974" x1="33.5" y1="1.98901" x2="33.5" y2="33.989" gradientUnits="userSpaceOnUse">
<stop stop-color="#434A00"/>
<stop offset="1" stop-color="#BFD11C"/>
</linearGradient>
</defs>
</svg>
