<svg width="42" height="24" viewBox="0 0 42 24" fill="none" xmlns="http://www.w3.org/2000/svg">
<rect x="2" y="1.98901" width="39" height="20" rx="10" fill="url(#paint0_linear_38_1882)"/>
<rect x="2" y="1.98901" width="39" height="20" rx="10" stroke="#098064" stroke-width="3" stroke-linejoin="round"/>
<path d="M15.8633 12.8308L17.5449 13.364C17.2871 14.3015 16.8574 14.9988 16.2559 15.4558C15.6582 15.9089 14.8984 16.1355 13.9766 16.1355C12.8359 16.1355 11.8984 15.7468 11.1641 14.9695C10.4297 14.1882 10.0625 13.1218 10.0625 11.7703C10.0625 10.3406 10.4316 9.2312 11.1699 8.44214C11.9082 7.64917 12.8789 7.25269 14.082 7.25269C15.1328 7.25269 15.9863 7.56323 16.6426 8.18433C17.0332 8.55151 17.3262 9.07886 17.5215 9.76636L15.8047 10.1765C15.7031 9.7312 15.4902 9.37964 15.166 9.12183C14.8457 8.86401 14.4551 8.73511 13.9941 8.73511C13.3574 8.73511 12.8398 8.96362 12.4414 9.42065C12.0469 9.87769 11.8496 10.6179 11.8496 11.6414C11.8496 12.7273 12.0449 13.5007 12.4355 13.9617C12.8262 14.4226 13.334 14.6531 13.959 14.6531C14.4199 14.6531 14.8164 14.5066 15.1484 14.2136C15.4805 13.9207 15.7188 13.4597 15.8633 12.8308ZM19.0508 15.989V7.39917H24.9395V8.85229H20.7852V10.8855H24.3711V12.3386H20.7852V15.989H19.0508ZM26.375 15.989V7.39917H29.1582C30.2129 7.39917 30.9004 7.44214 31.2207 7.52808C31.7129 7.65698 32.125 7.93823 32.457 8.37183C32.7891 8.80151 32.9551 9.35815 32.9551 10.0417C32.9551 10.5691 32.8594 11.0125 32.668 11.3718C32.4766 11.7312 32.2324 12.0144 31.9355 12.2214C31.6426 12.4246 31.3438 12.5593 31.0391 12.6257C30.625 12.7078 30.0254 12.7488 29.2402 12.7488H28.1094V15.989H26.375ZM28.1094 8.85229V11.2898H29.0586C29.7422 11.2898 30.1992 11.2449 30.4297 11.155C30.6602 11.0652 30.8398 10.9246 30.9688 10.7332C31.1016 10.5417 31.168 10.3191 31.168 10.0652C31.168 9.75269 31.0762 9.49487 30.8926 9.29175C30.709 9.08862 30.4766 8.96167 30.1953 8.91089C29.9883 8.87183 29.5723 8.85229 28.9473 8.85229H28.1094Z" fill="white"/>
<defs>
<linearGradient id="paint0_linear_38_1882" x1="21.5" y1="1.98901" x2="21.5" y2="21.989" gradientUnits="userSpaceOnUse">
<stop stop-color="#014031"/>
<stop offset="1" stop-color="#098064"/>
</linearGradient>
</defs>
</svg>
