<svg width="64" height="24" viewBox="0 0 64 24" fill="none" xmlns="http://www.w3.org/2000/svg">
<rect x="2" y="1.98901" width="61" height="20" rx="10" fill="url(#paint0_linear_83_1981)"/>
<rect x="2" y="1.98901" width="61" height="20" rx="10" stroke="#004384" stroke-width="3" stroke-linejoin="round"/>
<path d="M9.58398 13.1941L11.2715 13.03C11.373 13.5964 11.5781 14.0125 11.8867 14.2781C12.1992 14.5437 12.6191 14.6765 13.1465 14.6765C13.7051 14.6765 14.125 14.5593 14.4062 14.325C14.6914 14.0867 14.834 13.8093 14.834 13.4929C14.834 13.2898 14.7734 13.1179 14.6523 12.9773C14.5352 12.8328 14.3281 12.7078 14.0312 12.6023C13.8281 12.532 13.3652 12.407 12.6426 12.2273C11.7129 11.9968 11.0605 11.7136 10.6855 11.3777C10.1582 10.905 9.89453 10.3289 9.89453 9.64917C9.89453 9.21167 10.0176 8.80347 10.2637 8.42456C10.5137 8.04175 10.8711 7.75073 11.3359 7.55151C11.8047 7.35229 12.3691 7.25269 13.0293 7.25269C14.1074 7.25269 14.918 7.48901 15.4609 7.96167C16.0078 8.43433 16.2949 9.06519 16.3223 9.85425L14.5879 9.93042C14.5137 9.48901 14.3535 9.17261 14.1074 8.9812C13.8652 8.78589 13.5 8.68823 13.0117 8.68823C12.5078 8.68823 12.1133 8.79175 11.8281 8.99878C11.6445 9.13159 11.5527 9.30933 11.5527 9.53198C11.5527 9.73511 11.6387 9.90894 11.8105 10.0535C12.0293 10.2371 12.5605 10.4285 13.4043 10.6277C14.248 10.8269 14.8711 11.0339 15.2734 11.2488C15.6797 11.4597 15.9961 11.7507 16.2227 12.1218C16.4531 12.489 16.5684 12.9441 16.5684 13.4871C16.5684 13.9792 16.4316 14.4402 16.1582 14.8699C15.8848 15.2996 15.498 15.6199 14.998 15.8308C14.498 16.0378 13.875 16.1414 13.1289 16.1414C12.043 16.1414 11.209 15.8914 10.627 15.3914C10.0449 14.8875 9.69727 14.155 9.58398 13.1941ZM19.9609 15.989V8.85229H17.4121V7.39917H24.2383V8.85229H21.6953V15.989H19.9609ZM24.4902 15.989L27.4258 11.5066L24.7656 7.39917H26.793L28.5156 10.1589L30.2031 7.39917H32.2129L29.541 11.571L32.4766 15.989H30.3848L28.4805 13.0183L26.5703 15.989H24.4902ZM33.373 7.39917H36.8066C37.4863 7.39917 37.9922 7.42847 38.3242 7.48706C38.6602 7.54175 38.959 7.65894 39.2207 7.83862C39.4863 8.01831 39.707 8.25854 39.8828 8.55933C40.0586 8.8562 40.1465 9.19019 40.1465 9.56128C40.1465 9.96362 40.0371 10.3328 39.8184 10.6687C39.6035 11.0046 39.3105 11.2566 38.9395 11.4246C39.4629 11.5769 39.8652 11.8367 40.1465 12.2039C40.4277 12.571 40.5684 13.0027 40.5684 13.4988C40.5684 13.8894 40.4766 14.2703 40.293 14.6414C40.1133 15.0085 39.8652 15.3035 39.5488 15.5261C39.2363 15.7449 38.8496 15.8796 38.3887 15.9304C38.0996 15.9617 37.4023 15.9812 36.2969 15.989H33.373V7.39917ZM35.1074 8.82886V10.8152H36.2441C36.9199 10.8152 37.3398 10.8054 37.5039 10.7859C37.8008 10.7507 38.0332 10.6492 38.2012 10.4812C38.373 10.3093 38.459 10.0847 38.459 9.80737C38.459 9.54175 38.3848 9.3269 38.2363 9.16284C38.0918 8.99487 37.875 8.89331 37.5859 8.85815C37.4141 8.83862 36.9199 8.82886 36.1035 8.82886H35.1074ZM35.1074 12.2449V14.5417H36.7129C37.3379 14.5417 37.7344 14.5242 37.9023 14.489C38.1602 14.4421 38.3691 14.3289 38.5293 14.1492C38.6934 13.9656 38.7754 13.7214 38.7754 13.4167C38.7754 13.1589 38.7129 12.9402 38.5879 12.7605C38.4629 12.5808 38.2812 12.45 38.043 12.3679C37.8086 12.2859 37.2969 12.2449 36.5078 12.2449H35.1074ZM42.0391 15.989V7.39917H44.8223C45.877 7.39917 46.5645 7.44214 46.8848 7.52808C47.377 7.65698 47.7891 7.93823 48.1211 8.37183C48.4531 8.80151 48.6191 9.35815 48.6191 10.0417C48.6191 10.5691 48.5234 11.0125 48.332 11.3718C48.1406 11.7312 47.8965 12.0144 47.5996 12.2214C47.3066 12.4246 47.0078 12.5593 46.7031 12.6257C46.2891 12.7078 45.6895 12.7488 44.9043 12.7488H43.7734V15.989H42.0391ZM43.7734 8.85229V11.2898H44.7227C45.4062 11.2898 45.8633 11.2449 46.0938 11.155C46.3242 11.0652 46.5039 10.9246 46.6328 10.7332C46.7656 10.5417 46.832 10.3191 46.832 10.0652C46.832 9.75269 46.7402 9.49487 46.5566 9.29175C46.373 9.08862 46.1406 8.96167 45.8594 8.91089C45.6523 8.87183 45.2363 8.85229 44.6113 8.85229H43.7734ZM53.8926 15.989H52.2461V9.78394C51.6445 10.3464 50.9355 10.7625 50.1191 11.032V9.53784C50.5488 9.39722 51.0156 9.13159 51.5195 8.74097C52.0234 8.34644 52.3691 7.88745 52.5566 7.36401H53.8926V15.989Z" fill="white"/>
<defs>
<linearGradient id="paint0_linear_83_1981" x1="32.5" y1="1.98901" x2="32.5" y2="21.989" gradientUnits="userSpaceOnUse">
<stop stop-color="#004384"/>
<stop offset="1" stop-color="#FF9D00"/>
</linearGradient>
</defs>
</svg>
