<svg width="38" height="24" viewBox="0 0 38 24" fill="none" xmlns="http://www.w3.org/2000/svg">
<rect x="2" y="1.98901" width="35" height="20" rx="10" fill="url(#paint0_linear_42_2635)"/>
<rect x="2" y="1.98901" width="35" height="20" rx="10" stroke="#881751" stroke-width="3" stroke-linejoin="round"/>
<path d="M10.0371 15.989V7.39917H15.9258V8.85229H11.7715V10.8855H15.3574V12.3386H11.7715V15.989H10.0371ZM21.2109 15.989H19.5645V9.78394C18.9629 10.3464 18.2539 10.7625 17.4375 11.032V9.53784C17.8672 9.39722 18.334 9.13159 18.8379 8.74097C19.3418 8.34644 19.6875 7.88745 19.875 7.36401H21.2109V15.989ZM29.2383 14.4597V15.989H23.4668C23.5293 15.4109 23.7168 14.864 24.0293 14.3484C24.3418 13.8289 24.959 13.1414 25.8809 12.2859C26.623 11.5945 27.0781 11.1257 27.2461 10.8796C27.4727 10.5398 27.5859 10.2039 27.5859 9.87183C27.5859 9.50464 27.4863 9.22339 27.2871 9.02808C27.0918 8.82886 26.8203 8.72925 26.4727 8.72925C26.1289 8.72925 25.8555 8.83276 25.6523 9.03979C25.4492 9.24683 25.332 9.59058 25.3008 10.071L23.6602 9.90698C23.7578 9.00073 24.0645 8.35034 24.5801 7.95581C25.0957 7.56128 25.7402 7.36401 26.5137 7.36401C27.3613 7.36401 28.0273 7.59253 28.5117 8.04956C28.9961 8.50659 29.2383 9.07495 29.2383 9.75464C29.2383 10.1414 29.168 10.5105 29.0273 10.8621C28.8906 11.2097 28.6719 11.575 28.3711 11.9578C28.1719 12.2117 27.8125 12.5769 27.293 13.0535C26.7734 13.53 26.4434 13.8464 26.3027 14.0027C26.166 14.1589 26.0547 14.3113 25.9688 14.4597H29.2383Z" fill="white"/>
<defs>
<linearGradient id="paint0_linear_42_2635" x1="19.5" y1="1.98901" x2="19.5" y2="21.989" gradientUnits="userSpaceOnUse">
<stop stop-color="#881751"/>
<stop offset="1" stop-color="#19605B"/>
</linearGradient>
</defs>
</svg>
