<svg width="52" height="24" viewBox="0 0 52 24" fill="none" xmlns="http://www.w3.org/2000/svg">
<rect x="2" y="1.98901" width="49" height="20" rx="10" fill="url(#paint0_linear_85_2091)"/>
<rect x="2" y="1.98901" width="49" height="20" rx="10" stroke="#2C67CE" stroke-width="3" stroke-linejoin="round"/>
<path d="M10.3516 7.39917H12.0859V12.0515C12.0859 12.7898 12.1074 13.2683 12.1504 13.4871C12.2246 13.8386 12.4004 14.1218 12.6777 14.3367C12.959 14.5476 13.3418 14.6531 13.8262 14.6531C14.3184 14.6531 14.6895 14.5535 14.9395 14.3542C15.1895 14.1511 15.3398 13.9031 15.3906 13.6101C15.4414 13.3171 15.4668 12.8308 15.4668 12.1511V7.39917H17.2012V11.9109C17.2012 12.9421 17.1543 13.6707 17.0605 14.0964C16.9668 14.5222 16.793 14.8816 16.5391 15.1746C16.2891 15.4675 15.9531 15.7019 15.5312 15.8777C15.1094 16.0496 14.5586 16.1355 13.8789 16.1355C13.0586 16.1355 12.4355 16.0417 12.0098 15.8542C11.5879 15.6628 11.2539 15.4167 11.0078 15.116C10.7617 14.8113 10.5996 14.4929 10.5215 14.1609C10.4082 13.6687 10.3516 12.9421 10.3516 11.9812V7.39917ZM19.041 15.989V7.39917H22.6914C23.6094 7.39917 24.2754 7.47729 24.6895 7.63354C25.1074 7.78589 25.4414 8.05933 25.6914 8.45386C25.9414 8.84839 26.0664 9.29956 26.0664 9.80737C26.0664 10.4519 25.877 10.9851 25.498 11.407C25.1191 11.825 24.5527 12.0886 23.7988 12.198C24.1738 12.4167 24.4824 12.657 24.7246 12.9187C24.9707 13.1804 25.3008 13.6453 25.7148 14.3132L26.7637 15.989H24.6895L23.4355 14.1199C22.9902 13.4519 22.6855 13.032 22.5215 12.8601C22.3574 12.6843 22.1836 12.5652 22 12.5027C21.8164 12.4363 21.5254 12.4031 21.127 12.4031H20.7754V15.989H19.041ZM20.7754 11.032H22.0586C22.8906 11.032 23.4102 10.9968 23.6172 10.9265C23.8242 10.8562 23.9863 10.7351 24.1035 10.5632C24.2207 10.3914 24.2793 10.1765 24.2793 9.9187C24.2793 9.62964 24.2012 9.39722 24.0449 9.22144C23.8926 9.04175 23.6758 8.92847 23.3945 8.88159C23.2539 8.86206 22.832 8.85229 22.1289 8.85229H20.7754V11.032ZM27.6836 15.989V7.39917H30.2793L31.8379 13.2585L33.3789 7.39917H35.9805V15.989H34.3691V9.22729L32.6641 15.989H30.9941L29.2949 9.22729V15.989H27.6836ZM41.5527 15.989H39.9062V9.78394C39.3047 10.3464 38.5957 10.7625 37.7793 11.032V9.53784C38.209 9.39722 38.6758 9.13159 39.1797 8.74097C39.6836 8.34644 40.0293 7.88745 40.2168 7.36401H41.5527V15.989Z" fill="white"/>
<defs>
<linearGradient id="paint0_linear_85_2091" x1="26.5" y1="1.98901" x2="26.5" y2="21.989" gradientUnits="userSpaceOnUse">
<stop stop-color="#2C67CE"/>
<stop offset="1" stop-color="#CF9039"/>
</linearGradient>
</defs>
</svg>
