<svg width="62" height="24" viewBox="0 0 62 24" fill="none" xmlns="http://www.w3.org/2000/svg">
<rect x="2" y="1.98901" width="59" height="20" rx="10" fill="url(#paint0_linear_64_1870)"/>
<rect x="2" y="1.98901" width="59" height="20" rx="10" stroke="#FF5042" stroke-width="3" stroke-linejoin="round"/>
<path d="M10.0371 15.989V7.39917H11.7246L15.2402 13.1355V7.39917H16.8516V15.989H15.1113L11.6484 10.3875V15.989H10.0371ZM18.7031 15.989V7.39917H24.5918V8.85229H20.4375V10.8855H24.0234V12.3386H20.4375V15.989H18.7031ZM26.0273 15.989V7.39917H32.3965V8.85229H27.7617V10.7566H32.0742V12.2039H27.7617V14.5417H32.5605V15.989H26.0273ZM39.2285 14.4597V15.989H33.457C33.5195 15.4109 33.707 14.864 34.0195 14.3484C34.332 13.8289 34.9492 13.1414 35.8711 12.2859C36.6133 11.5945 37.0684 11.1257 37.2363 10.8796C37.4629 10.5398 37.5762 10.2039 37.5762 9.87183C37.5762 9.50464 37.4766 9.22339 37.2773 9.02808C37.082 8.82886 36.8105 8.72925 36.4629 8.72925C36.1191 8.72925 35.8457 8.83276 35.6426 9.03979C35.4395 9.24683 35.3223 9.59058 35.291 10.071L33.6504 9.90698C33.748 9.00073 34.0547 8.35034 34.5703 7.95581C35.0859 7.56128 35.7305 7.36401 36.5039 7.36401C37.3516 7.36401 38.0176 7.59253 38.502 8.04956C38.9863 8.50659 39.2285 9.07495 39.2285 9.75464C39.2285 10.1414 39.1582 10.5105 39.0176 10.8621C38.8809 11.2097 38.6621 11.575 38.3613 11.9578C38.1621 12.2117 37.8027 12.5769 37.2832 13.0535C36.7637 13.53 36.4336 13.8464 36.293 14.0027C36.1562 14.1589 36.0449 14.3113 35.959 14.4597H39.2285ZM40.7578 15.989V7.46948H42.4922V14.5417H46.8047V15.989H40.7578ZM53.2441 14.4597V15.989H47.4727C47.5352 15.4109 47.7227 14.864 48.0352 14.3484C48.3477 13.8289 48.9648 13.1414 49.8867 12.2859C50.6289 11.5945 51.084 11.1257 51.252 10.8796C51.4785 10.5398 51.5918 10.2039 51.5918 9.87183C51.5918 9.50464 51.4922 9.22339 51.293 9.02808C51.0977 8.82886 50.8262 8.72925 50.4785 8.72925C50.1348 8.72925 49.8613 8.83276 49.6582 9.03979C49.4551 9.24683 49.3379 9.59058 49.3066 10.071L47.666 9.90698C47.7637 9.00073 48.0703 8.35034 48.5859 7.95581C49.1016 7.56128 49.7461 7.36401 50.5195 7.36401C51.3672 7.36401 52.0332 7.59253 52.5176 8.04956C53.002 8.50659 53.2441 9.07495 53.2441 9.75464C53.2441 10.1414 53.1738 10.5105 53.0332 10.8621C52.8965 11.2097 52.6777 11.575 52.377 11.9578C52.1777 12.2117 51.8184 12.5769 51.2988 13.0535C50.7793 13.53 50.4492 13.8464 50.3086 14.0027C50.1719 14.1589 50.0605 14.3113 49.9746 14.4597H53.2441Z" fill="white"/>
<defs>
<linearGradient id="paint0_linear_64_1870" x1="31.5" y1="1.98901" x2="31.5" y2="21.989" gradientUnits="userSpaceOnUse">
<stop stop-color="#FF5042"/>
<stop offset="1" stop-color="#B185B9"/>
</linearGradient>
</defs>
</svg>
