<svg width="60" height="24" viewBox="0 0 60 24" fill="none" xmlns="http://www.w3.org/2000/svg">
<rect x="2" y="1.98901" width="57" height="20" rx="10" fill="url(#paint0_linear_64_1813)"/>
<rect x="2" y="1.98901" width="57" height="20" rx="10" stroke="#8FB9FF" stroke-width="3" stroke-linejoin="round"/>
<path d="M10.3379 15.989V7.39917H12.9336L14.4922 13.2585L16.0332 7.39917H18.6348V15.989H17.0234V9.22729L15.3184 15.989H13.6484L11.9492 9.22729V15.989H10.3379ZM20.3574 15.989V7.39917H23.1406C24.1953 7.39917 24.8828 7.44214 25.2031 7.52808C25.6953 7.65698 26.1074 7.93823 26.4395 8.37183C26.7715 8.80151 26.9375 9.35815 26.9375 10.0417C26.9375 10.5691 26.8418 11.0125 26.6504 11.3718C26.459 11.7312 26.2148 12.0144 25.918 12.2214C25.625 12.4246 25.3262 12.5593 25.0215 12.6257C24.6074 12.7078 24.0078 12.7488 23.2227 12.7488H22.0918V15.989H20.3574ZM22.0918 8.85229V11.2898H23.041C23.7246 11.2898 24.1816 11.2449 24.4121 11.155C24.6426 11.0652 24.8223 10.9246 24.9512 10.7332C25.084 10.5417 25.1504 10.3191 25.1504 10.0652C25.1504 9.75269 25.0586 9.49487 24.875 9.29175C24.6914 9.08862 24.459 8.96167 24.1777 8.91089C23.9707 8.87183 23.5547 8.85229 22.9297 8.85229H22.0918ZM28.3555 7.39917H31.5254C32.2402 7.39917 32.7852 7.45386 33.1602 7.56323C33.6641 7.71167 34.0957 7.97534 34.4551 8.35425C34.8145 8.73315 35.0879 9.198 35.2754 9.74878C35.4629 10.2957 35.5566 10.9714 35.5566 11.7761C35.5566 12.4832 35.4688 13.0925 35.293 13.6042C35.0781 14.2292 34.7715 14.7351 34.373 15.1218C34.0723 15.4148 33.666 15.6433 33.1543 15.8074C32.7715 15.9285 32.2598 15.989 31.6191 15.989H28.3555V7.39917ZM30.0898 8.85229V14.5417H31.3848C31.8691 14.5417 32.2188 14.5144 32.4336 14.4597C32.7148 14.3894 32.9473 14.2703 33.1309 14.1023C33.3184 13.9343 33.4707 13.6589 33.5879 13.2761C33.7051 12.8894 33.7637 12.364 33.7637 11.7C33.7637 11.0359 33.7051 10.5261 33.5879 10.1707C33.4707 9.81519 33.3066 9.53784 33.0957 9.33862C32.8848 9.1394 32.6172 9.00464 32.293 8.93433C32.0508 8.87964 31.5762 8.85229 30.8691 8.85229H30.0898ZM37.0215 7.39917H38.7559V12.0515C38.7559 12.7898 38.7773 13.2683 38.8203 13.4871C38.8945 13.8386 39.0703 14.1218 39.3477 14.3367C39.6289 14.5476 40.0117 14.6531 40.4961 14.6531C40.9883 14.6531 41.3594 14.5535 41.6094 14.3542C41.8594 14.1511 42.0098 13.9031 42.0605 13.6101C42.1113 13.3171 42.1367 12.8308 42.1367 12.1511V7.39917H43.8711V11.9109C43.8711 12.9421 43.8242 13.6707 43.7305 14.0964C43.6367 14.5222 43.4629 14.8816 43.209 15.1746C42.959 15.4675 42.623 15.7019 42.2012 15.8777C41.7793 16.0496 41.2285 16.1355 40.5488 16.1355C39.7285 16.1355 39.1055 16.0417 38.6797 15.8542C38.2578 15.6628 37.9238 15.4167 37.6777 15.116C37.4316 14.8113 37.2695 14.4929 37.1914 14.1609C37.0781 13.6687 37.0215 12.9421 37.0215 11.9812V7.39917ZM49.5547 15.989H47.9082V9.78394C47.3066 10.3464 46.5977 10.7625 45.7812 11.032V9.53784C46.2109 9.39722 46.6777 9.13159 47.1816 8.74097C47.6855 8.34644 48.0312 7.88745 48.2188 7.36401H49.5547V15.989Z" fill="white"/>
<defs>
<linearGradient id="paint0_linear_64_1813" x1="30.5" y1="1.98901" x2="30.5" y2="21.989" gradientUnits="userSpaceOnUse">
<stop stop-color="#110987"/>
<stop offset="1" stop-color="#8FB9FF"/>
</linearGradient>
</defs>
</svg>
