<svg width="55" height="24" viewBox="0 0 55 24" fill="none" xmlns="http://www.w3.org/2000/svg">
<rect x="2" y="1.98901" width="52" height="20" rx="10" fill="url(#paint0_linear_40_2579)"/>
<rect x="2" y="1.98901" width="52" height="20" rx="10" stroke="#BF8245" stroke-width="3" stroke-linejoin="round"/>
<path d="M10.1875 7.39917H13.3574C14.0723 7.39917 14.6172 7.45386 14.9922 7.56323C15.4961 7.71167 15.9277 7.97534 16.2871 8.35425C16.6465 8.73315 16.9199 9.198 17.1074 9.74878C17.2949 10.2957 17.3887 10.9714 17.3887 11.7761C17.3887 12.4832 17.3008 13.0925 17.125 13.6042C16.9102 14.2292 16.6035 14.7351 16.2051 15.1218C15.9043 15.4148 15.498 15.6433 14.9863 15.8074C14.6035 15.9285 14.0918 15.989 13.4512 15.989H10.1875V7.39917ZM11.9219 8.85229V14.5417H13.2168C13.7012 14.5417 14.0508 14.5144 14.2656 14.4597C14.5469 14.3894 14.7793 14.2703 14.9629 14.1023C15.1504 13.9343 15.3027 13.6589 15.4199 13.2761C15.5371 12.8894 15.5957 12.364 15.5957 11.7C15.5957 11.0359 15.5371 10.5261 15.4199 10.1707C15.3027 9.81519 15.1387 9.53784 14.9277 9.33862C14.7168 9.1394 14.4492 9.00464 14.125 8.93433C13.8828 8.87964 13.4082 8.85229 12.7012 8.85229H11.9219ZM18.8125 15.989V7.39917H20.5469V15.989H18.8125ZM29.9512 15.989H28.0645L27.3145 14.0378H23.8809L23.1719 15.989H21.332L24.6777 7.39917H26.5117L29.9512 15.989ZM26.7578 12.5906L25.5742 9.40308L24.4141 12.5906H26.7578ZM30.877 15.989V7.39917H33.6602C34.7148 7.39917 35.4023 7.44214 35.7227 7.52808C36.2148 7.65698 36.627 7.93823 36.959 8.37183C37.291 8.80151 37.457 9.35815 37.457 10.0417C37.457 10.5691 37.3613 11.0125 37.1699 11.3718C36.9785 11.7312 36.7344 12.0144 36.4375 12.2214C36.1445 12.4246 35.8457 12.5593 35.541 12.6257C35.127 12.7078 34.5273 12.7488 33.7422 12.7488H32.6113V15.989H30.877ZM32.6113 8.85229V11.2898H33.5605C34.2441 11.2898 34.7012 11.2449 34.9316 11.155C35.1621 11.0652 35.3418 10.9246 35.4707 10.7332C35.6035 10.5417 35.6699 10.3191 35.6699 10.0652C35.6699 9.75269 35.5781 9.49487 35.3945 9.29175C35.2109 9.08862 34.9785 8.96167 34.6973 8.91089C34.4902 8.87183 34.0742 8.85229 33.4492 8.85229H32.6113ZM38.8867 15.989V7.39917H40.6211V10.78H44.0195V7.39917H45.7539V15.989H44.0195V12.2332H40.6211V15.989H38.8867Z" fill="white"/>
<defs>
<linearGradient id="paint0_linear_40_2579" x1="28" y1="1.98901" x2="28" y2="21.989" gradientUnits="userSpaceOnUse">
<stop stop-color="#BF8245"/>
<stop offset="1" stop-color="#2E3B75"/>
</linearGradient>
</defs>
</svg>
