<svg width="38" height="24" viewBox="0 0 38 24" fill="none" xmlns="http://www.w3.org/2000/svg">
<rect x="2" y="1.98901" width="35" height="20" rx="10" fill="url(#paint0_linear_50_1827)"/>
<rect x="2" y="1.98901" width="35" height="20" rx="10" stroke="#E55681" stroke-width="3" stroke-linejoin="round"/>
<path d="M10.3125 15.989V7.39917H12.0469V15.989H10.3125ZM15.8965 15.989L12.8262 7.39917H14.707L16.8809 13.7566L18.9844 7.39917H20.8242L17.748 15.989H15.8965ZM21.7031 7.39917H24.873C25.5879 7.39917 26.1328 7.45386 26.5078 7.56323C27.0117 7.71167 27.4434 7.97534 27.8027 8.35425C28.1621 8.73315 28.4355 9.198 28.623 9.74878C28.8105 10.2957 28.9043 10.9714 28.9043 11.7761C28.9043 12.4832 28.8164 13.0925 28.6406 13.6042C28.4258 14.2292 28.1191 14.7351 27.7207 15.1218C27.4199 15.4148 27.0137 15.6433 26.502 15.8074C26.1191 15.9285 25.6074 15.989 24.9668 15.989H21.7031V7.39917ZM23.4375 8.85229V14.5417H24.7324C25.2168 14.5417 25.5664 14.5144 25.7812 14.4597C26.0625 14.3894 26.2949 14.2703 26.4785 14.1023C26.666 13.9343 26.8184 13.6589 26.9355 13.2761C27.0527 12.8894 27.1113 12.364 27.1113 11.7C27.1113 11.0359 27.0527 10.5261 26.9355 10.1707C26.8184 9.81519 26.6543 9.53784 26.4434 9.33862C26.2324 9.1394 25.9648 9.00464 25.6406 8.93433C25.3984 8.87964 24.9238 8.85229 24.2168 8.85229H23.4375Z" fill="white"/>
<defs>
<linearGradient id="paint0_linear_50_1827" x1="19.5" y1="1.98901" x2="19.5" y2="21.989" gradientUnits="userSpaceOnUse">
<stop stop-color="#40887F"/>
<stop offset="1" stop-color="#E55681"/>
</linearGradient>
</defs>
</svg>
