<svg width="37" height="24" viewBox="0 0 37 24" fill="none" xmlns="http://www.w3.org/2000/svg">
<rect x="2" y="1.98901" width="34" height="20" rx="10" fill="url(#paint0_linear_83_1999)"/>
<rect x="2" y="1.98901" width="34" height="20" rx="10" stroke="#0052AF" stroke-width="3" stroke-linejoin="round"/>
<path d="M13.8027 15.989V8.85229H11.2539V7.39917H18.0801V8.85229H15.5371V15.989H13.8027ZM24.7012 12.8308L26.3828 13.364C26.125 14.3015 25.6953 14.9988 25.0938 15.4558C24.4961 15.9089 23.7363 16.1355 22.8145 16.1355C21.6738 16.1355 20.7363 15.7468 20.002 14.9695C19.2676 14.1882 18.9004 13.1218 18.9004 11.7703C18.9004 10.3406 19.2695 9.2312 20.0078 8.44214C20.7461 7.64917 21.7168 7.25269 22.9199 7.25269C23.9707 7.25269 24.8242 7.56323 25.4805 8.18433C25.8711 8.55151 26.1641 9.07886 26.3594 9.76636L24.6426 10.1765C24.541 9.7312 24.3281 9.37964 24.0039 9.12183C23.6836 8.86401 23.293 8.73511 22.832 8.73511C22.1953 8.73511 21.6777 8.96362 21.2793 9.42065C20.8848 9.87769 20.6875 10.6179 20.6875 11.6414C20.6875 12.7273 20.8828 13.5007 21.2734 13.9617C21.6641 14.4226 22.1719 14.6531 22.7969 14.6531C23.2578 14.6531 23.6543 14.5066 23.9863 14.2136C24.3184 13.9207 24.5566 13.4597 24.7012 12.8308Z" fill="white"/>
<defs>
<linearGradient id="paint0_linear_83_1999" x1="19" y1="1.98901" x2="19" y2="21.989" gradientUnits="userSpaceOnUse">
<stop stop-color="#820300"/>
<stop offset="1" stop-color="#06A2B2"/>
</linearGradient>
</defs>
</svg>
