<svg width="72" height="163" viewBox="0 0 72 163" fill="none" xmlns="http://www.w3.org/2000/svg">
<path d="M58.9623 11.3489C61.7405 21.9711 61.5798 40.8265 45.9725 53.3101C37.2037 60.3238 20.2226 59.3671 16.2098 48.3694C9.52125 30.0385 31.4124 17.3124 43.5282 29.4719C69.7884 55.8267 62.3357 69.9758 32.57 92.0505C-5.86111 120.552 16.6691 156.842 40.7501 151.376C84.4287 141.463 37.8177 105.372 61.7405 97.6268" stroke="black" stroke-width="5.71614"/>
<path d="M48.1935 12.3945L49.5589 9.6928L49.5703 9.67069C50.3111 8.06071 53.2714 6.26027 57.0621 5.26524C60.8582 4.2688 64.3211 4.38318 65.7572 5.42175L65.7779 5.43542L68.2943 7.11816C67.8049 6.82576 67.1778 6.59823 66.4391 6.44783C64.2178 5.99802 60.9865 6.17667 57.5389 7.08162C54.0914 7.98658 51.1943 9.41659 49.4802 10.8994C48.9106 11.3932 48.4762 11.8995 48.1935 12.3945Z" fill="white" stroke="#4141AA" stroke-width="0.95269" stroke-miterlimit="10"/>
<path d="M48.9636 15.3295L51.48 17.0122L51.5008 17.0259C52.9345 18.0555 56.3974 18.1699 60.1881 17.1749C63.9788 16.1798 66.9361 14.3897 67.6823 12.7784L67.7134 12.7224L69.0645 10.0531C69.3951 9.47862 69.5126 8.92172 69.3763 8.40274C69.2401 7.88377 68.8619 7.44743 68.2941 7.11824C67.8047 6.82584 67.1776 6.59831 66.4389 6.4479C64.2175 5.99804 60.9863 6.17675 57.5387 7.0817C54.0912 7.98666 51.1941 9.41661 49.48 10.8995C48.9104 11.3933 48.4759 11.8995 48.1933 12.3946C47.8603 12.9602 47.7452 13.526 47.8814 14.045C48.0177 14.564 48.3935 14.9914 48.9636 15.3295Z" fill="white" stroke="#4141AA" stroke-width="0.95269" stroke-miterlimit="10"/>
<path d="M49.2666 17.1014L51.0332 14.6431L51.0479 14.6231C52.0286 13.1469 55.2316 11.8255 59.1305 11.4282C63.0349 11.0304 66.4386 11.6785 67.6969 12.9265L67.7153 12.9432L69.9414 14.9946C69.5031 14.6301 68.9187 14.3084 68.2121 14.0457C66.0869 13.258 62.8668 12.9352 59.3209 13.2965C55.7749 13.6578 52.6916 14.623 50.769 15.8231C50.1299 16.223 49.6224 16.656 49.2666 17.1014Z" fill="white" stroke="#4141AA" stroke-width="0.95269" stroke-miterlimit="10"/>
<path d="M49.574 20.1202L51.8001 22.1716L51.8185 22.1883C53.0759 23.4271 56.4796 24.0753 60.3785 23.678C64.2774 23.2807 67.4758 21.9691 68.462 20.4924L68.5015 20.4419L70.2488 18.0135C70.6642 17.497 70.8663 16.9649 70.8119 16.4311C70.7575 15.8973 70.4513 15.4078 69.9412 14.9948C69.5029 14.6303 68.9184 14.3086 68.2119 14.0458C66.0867 13.2581 62.8666 12.9353 59.3206 13.2967C55.7747 13.658 52.6914 14.6231 50.7688 15.8233C50.1297 16.2231 49.6222 16.6561 49.2664 17.1015C48.8501 17.6089 48.6489 18.1502 48.7033 18.684C48.7577 19.2178 49.063 19.6981 49.574 20.1202Z" fill="white" stroke="#4141AA" stroke-width="0.95269" stroke-miterlimit="10"/>
<path d="M49.6331 22.0873L51.7327 19.9066L51.7501 19.8889C52.9317 18.568 56.2906 17.7178 60.2063 17.8816C64.1275 18.0457 67.4037 19.1735 68.4707 20.5885L68.4866 20.6077L70.3967 22.9561C70.015 22.5327 69.4825 22.1307 68.8208 21.7697C66.8299 20.6865 63.689 19.9069 60.1278 19.7579C56.5665 19.6089 53.377 20.1236 51.3026 21.0367C50.613 21.3412 50.0489 21.6973 49.6331 22.0873Z" fill="white" stroke="#4141AA" stroke-width="0.95269" stroke-miterlimit="10"/>
<path d="M49.506 25.1188L51.4162 27.4672L51.432 27.4864C52.4995 28.8921 55.7756 30.02 59.6913 30.1838C63.607 30.3476 66.96 29.5065 68.1471 28.1858L68.1933 28.1415L70.2697 25.9876C70.7546 25.5358 71.0307 25.038 71.0531 24.502C71.0755 23.9659 70.8424 23.4376 70.3965 22.956C70.0148 22.5326 69.4823 22.1307 68.8205 21.7697C66.8297 20.6864 63.6888 19.9068 60.1276 19.7578C56.5663 19.6088 53.3768 20.1235 51.3024 21.0367C50.6128 21.3411 50.0486 21.6971 49.6329 22.0872C49.1483 22.5299 48.8719 23.0368 48.8494 23.5729C48.827 24.109 49.0605 24.628 49.506 25.1188Z" fill="white" stroke="#4141AA" stroke-width="0.95269" stroke-miterlimit="10"/>
<path d="M49.291 26.9944L51.6938 25.1532L51.7137 25.1382C53.0799 24.0094 56.5283 23.6724 60.3752 24.4214C64.2275 25.1716 67.2975 26.7778 68.1404 28.3367L68.1532 28.3581L69.6897 30.9663C69.3757 30.4905 68.9096 30.0133 68.3094 29.5571C66.5035 28.1877 63.5149 26.946 60.0163 26.2647C56.5177 25.5835 53.287 25.6142 51.0992 26.206C50.3717 26.4037 49.7605 26.6711 49.291 26.9944Z" fill="white" stroke="#4141AA" stroke-width="0.95269" stroke-miterlimit="10"/>
<path d="M48.7108 29.9724L50.2473 32.5806L50.2601 32.6019C51.1047 34.1518 54.1747 35.7581 58.0216 36.5071C61.8685 37.2562 65.3097 36.9272 66.6813 35.7995L66.7337 35.7625L69.1095 33.9443C69.6567 33.5703 70.0043 33.1196 70.1068 32.5929C70.2094 32.0662 70.0581 31.509 69.6894 30.966C69.3755 30.4901 68.9093 30.0129 68.3091 29.5568C66.5032 28.1872 63.5147 26.9456 60.016 26.2644C56.5174 25.5831 53.2868 25.6138 51.0989 26.2057C50.3714 26.4033 49.7603 26.6707 49.2907 26.994C48.7453 27.359 48.396 27.8188 48.2934 28.3455C48.1909 28.8721 48.3439 29.4203 48.7108 29.9724Z" fill="white" stroke="#4141AA" stroke-width="0.95269" stroke-miterlimit="10"/>
<path d="M48.2396 31.6688L50.9116 30.2461L50.9336 30.2346C52.4663 29.3448 55.9233 29.5773 59.5955 30.9464C63.2729 32.3174 66.0384 34.4049 66.6144 36.0809L66.6236 36.104L67.712 38.9287C67.4803 38.4079 67.0986 37.8607 66.5812 37.3125C65.024 35.6656 62.2793 33.9512 58.9395 32.706C55.5997 31.4608 52.4077 30.9619 50.1525 31.1873C49.4024 31.2631 48.7557 31.4268 48.2396 31.6688Z" fill="white" stroke="#4141AA" stroke-width="0.95269" stroke-miterlimit="10"/>
<path d="M47.1794 34.5118L48.2679 37.3365L48.277 37.3596C48.8563 39.0269 51.6218 41.1144 55.2939 42.4835C58.9661 43.8526 62.4147 44.0918 63.9526 43.204L64.0103 43.1762L66.6519 41.7717C67.253 41.4924 67.6697 41.1047 67.8571 40.6019C68.0445 40.0992 67.9866 39.5247 67.7119 38.9286C67.4801 38.4078 67.0984 37.8606 66.5811 37.3124C65.0239 35.6655 62.2791 33.9511 58.9393 32.7059C55.5996 31.4607 52.4076 30.9617 50.1523 31.1872C49.4023 31.263 48.7556 31.4267 48.2394 31.6687C47.6415 31.9394 47.2216 32.3358 47.0342 32.8385C46.8467 33.3413 46.9079 33.9071 47.1794 34.5118Z" fill="white" stroke="#4141AA" stroke-width="0.95269" stroke-miterlimit="10"/>
<path d="M46.4903 35.9598L49.3667 35.0165L49.3904 35.0089C51.0529 34.3952 54.4189 35.2171 57.8019 37.1957C61.1896 39.177 63.5561 41.7078 63.8363 43.4578L63.8413 43.4821L64.4292 46.4517C64.2902 45.8988 64.008 45.2943 63.5923 44.6654C62.3406 42.776 59.9305 40.6162 56.8538 38.8167C53.777 37.0172 50.7179 35.9782 48.4574 35.8135C47.7055 35.7596 47.0403 35.81 46.4903 35.9598Z" fill="white" stroke="#4141AA" stroke-width="0.95269" stroke-miterlimit="10"/>
<path d="M44.9582 38.5792L45.5461 41.5487L45.5511 41.5731C45.836 43.315 48.2024 45.8458 51.5854 47.8244C54.9684 49.803 58.3249 50.6301 59.9922 50.0192L60.0539 50.0016L62.8972 49.071C63.5372 48.8989 64.0142 48.5884 64.2851 48.1252C64.556 47.6621 64.5974 47.0862 64.429 46.4518C64.29 45.8989 64.0078 45.2944 63.5922 44.6656C62.3405 42.776 59.9304 40.6163 56.8536 38.8168C53.7769 37.0173 50.7177 35.9783 48.4572 35.8137C47.7053 35.7597 47.0401 35.8101 46.4901 35.96C45.8546 36.1242 45.373 36.4426 45.1021 36.9058C44.8312 37.3689 44.7944 37.9369 44.9582 38.5792Z" fill="white" stroke="#4141AA" stroke-width="0.95269" stroke-miterlimit="10"/>
<path d="M44.0107 39.8881L47.009 39.4716L47.0337 39.4684C48.7789 39.1602 51.9449 40.5679 54.9219 43.1168C57.9031 45.6694 59.7815 48.5808 59.7458 50.3527L59.7464 50.3776L59.7966 53.4043C59.7582 52.8355 59.588 52.1905 59.2909 51.4977C58.3954 49.4156 56.408 46.8615 53.7005 44.5433C50.993 42.2251 48.1675 40.6584 45.9724 40.0942C45.2421 39.9073 44.5785 39.8385 44.0107 39.8881Z" fill="white" stroke="#4141AA" stroke-width="0.95269" stroke-miterlimit="10"/>
<path d="M42.0371 42.1928L42.0873 45.2195L42.0879 45.2444C42.0582 47.0092 43.9366 49.9207 46.9136 52.4697C49.8906 55.0186 53.0464 56.4297 54.7958 56.1252L54.8596 56.1189L57.8231 55.709C58.4836 55.6535 59.0082 55.4328 59.3572 55.0253C59.7061 54.6177 59.8494 54.0583 59.7965 53.4041C59.7581 52.8353 59.5879 52.1903 59.2908 51.4975C58.3953 49.4154 56.4079 46.8613 53.7004 44.5431C50.9929 42.2249 48.1675 40.6582 45.9723 40.094C45.242 39.9071 44.5785 39.8383 44.0105 39.8879C43.356 39.9365 42.8254 40.1641 42.4764 40.5717C42.1274 40.9793 41.9902 41.5316 42.0371 42.1928Z" fill="white" stroke="#4141AA" stroke-width="0.95269" stroke-miterlimit="10"/>
<path d="M40.8113 43.371L43.837 43.4644L43.8618 43.4653C45.634 43.4549 48.5184 45.3747 51.0246 48.3877C53.5344 51.405 54.8968 54.5907 54.5638 56.3314L54.5602 56.356L54.101 59.3481C54.1587 58.781 54.0993 58.1165 53.9229 57.3836C53.39 55.1807 51.8602 52.3289 49.5809 49.5886C47.3015 46.8483 44.7795 44.829 42.7105 43.9039C42.022 43.5969 41.3794 43.4176 40.8113 43.371Z" fill="white" stroke="#4141AA" stroke-width="0.95269" stroke-miterlimit="10"/>
<path d="M38.4786 45.3117L38.0193 48.3038L38.0157 48.3284C37.6899 50.0631 39.0522 53.2489 41.5584 56.2619C44.0647 59.275 46.9384 61.1964 48.7141 61.1902L48.778 61.1947L51.7683 61.2888C52.4287 61.3451 52.983 61.2157 53.3955 60.8726C53.808 60.5295 54.0432 60.0022 54.101 59.3484C54.1588 58.7812 54.0994 58.1167 53.923 57.3839C53.3901 55.1809 51.8603 52.3291 49.581 49.5888C47.3016 46.8486 44.7797 44.8292 42.7106 43.9041C42.0221 43.5971 41.3795 43.4178 40.8113 43.3713C40.158 43.3091 39.5966 43.4443 39.1841 43.7875C38.7716 44.1306 38.5435 44.652 38.4786 45.3117Z" fill="white" stroke="#4141AA" stroke-width="0.95269" stroke-miterlimit="10"/>
<path d="M38.2814 45.4337L41.1162 46.4955L41.1395 46.5044C42.8208 47.0647 44.9342 49.8103 46.3379 53.4695C47.7435 57.1338 48.0085 60.5885 47.1332 62.1295L47.1219 62.1516L45.7245 64.8369C45.9616 64.3185 46.1192 63.6703 46.1879 62.9196C46.3921 60.6623 45.8611 57.4699 44.5845 54.1421C43.3079 50.8142 41.5697 48.0908 39.9082 46.5492C39.3551 46.0371 38.8044 45.6606 38.2814 45.4337Z" fill="white" stroke="#4141AA" stroke-width="0.95269" stroke-miterlimit="10"/>
<path d="M35.4484 46.5204L34.0509 49.2057L34.0396 49.2278C33.173 50.7655 33.438 54.2202 34.8416 57.8793C36.2453 61.5385 38.3481 64.2822 40.0314 64.8477L40.0904 64.8725L42.8915 65.9236C43.4987 66.1894 44.0651 66.2452 44.566 66.053C45.067 65.8609 45.4594 65.4372 45.7245 64.8368C45.9616 64.3184 46.1192 63.6702 46.1879 62.9195C46.3921 60.6622 45.8611 57.4699 44.5845 54.142C43.3079 50.8141 41.5697 48.0907 39.9082 46.5491C39.3551 46.037 38.8044 45.6605 38.2814 45.4336C37.6827 45.1645 37.1077 45.112 36.6068 45.3042C36.1058 45.4963 35.722 45.9167 35.4484 46.5204Z" fill="white" stroke="#4141AA" stroke-width="0.95269" stroke-miterlimit="10"/>
<path d="M34.8167 46.6364L37.2631 48.4193L37.2831 48.4341C38.7527 49.4246 40.0528 52.6363 40.4242 56.5377C40.7961 60.4447 40.1253 63.844 38.869 65.094L38.8521 65.1123L36.786 67.3247C37.1534 66.8888 37.479 66.3066 37.7464 65.6018C38.5482 63.4818 38.8924 60.264 38.5547 56.7157C38.2169 53.1674 37.2723 50.0778 36.0849 48.1472C35.6893 47.5055 35.2597 46.9952 34.8167 46.6364Z" fill="white" stroke="#4141AA" stroke-width="0.95269" stroke-miterlimit="10"/>
<path d="M31.796 46.9237L29.7299 49.1361L29.713 49.1544C28.4659 50.4035 27.7951 53.8028 28.1665 57.7043C28.5379 61.6057 29.8282 64.8128 31.2983 65.8088L31.3486 65.8486L33.7653 67.612C34.2791 68.0308 34.8098 68.2364 35.3439 68.1856C35.878 68.1347 36.3696 67.8318 36.786 67.3244C37.1534 66.8885 37.479 66.3063 37.7464 65.6015C38.5482 63.4816 38.8924 60.2637 38.5546 56.7154C38.2169 53.1671 37.2723 50.0775 36.0849 48.1469C35.6893 47.5053 35.2597 46.9949 34.8166 46.6361C34.312 46.2164 33.7721 46.0117 33.238 46.0625C32.7039 46.1134 32.2215 46.4154 31.796 46.9237Z" fill="white" stroke="#4141AA" stroke-width="0.95269" stroke-miterlimit="10"/>
<path d="M31.2109 46.8997L33.0771 49.2832L33.0923 49.3029C34.2354 50.6572 34.6084 54.1019 33.8996 57.9564C33.1898 61.8164 31.6158 64.903 30.0657 65.7622L30.0445 65.7752L27.4525 67.3389C27.9251 67.0199 28.3973 66.5488 28.8472 65.9439C30.1977 64.1237 31.408 61.1224 32.0527 57.6168C32.6973 54.1112 32.6328 50.8811 32.0181 48.6996C31.8129 47.9742 31.539 47.3659 31.2109 46.8997Z" fill="white" stroke="#4141AA" stroke-width="0.95269" stroke-miterlimit="10"/>
<path d="M28.2267 46.3509L25.6347 47.9146L25.6135 47.9276C24.0725 48.7885 22.4985 51.8751 21.7897 55.7296C21.0809 59.5841 21.4459 63.0217 22.5879 64.3814L22.6254 64.4334L24.4683 66.7901C24.848 67.3334 25.3024 67.6762 25.8301 67.7732C26.3578 67.8702 26.9134 67.7131 27.4526 67.3388C27.9251 67.0199 28.3974 66.5488 28.8472 65.9439C30.1978 64.1237 31.4081 61.1224 32.0527 57.6168C32.6973 54.1112 32.6329 50.8811 32.0182 48.6995C31.8129 47.9742 31.5391 47.3659 31.211 46.8997C30.8402 46.3581 30.3768 46.0136 29.8491 45.9166C29.3214 45.8195 28.7749 45.9783 28.2267 46.3509Z" fill="white" stroke="#4141AA" stroke-width="0.95269" stroke-miterlimit="10"/>
<path d="M28.3932 46.4555L29.3225 49.3365L29.33 49.3602C29.9356 51.0257 29.0974 54.3876 27.1024 57.761C25.1046 61.1391 22.5624 63.4932 20.8111 63.7649L20.7867 63.7698L17.8143 64.3433C18.3679 64.2069 18.9737 63.9277 19.6046 63.5151C21.5001 62.2726 23.6716 59.873 25.486 56.805C27.3004 53.7371 28.3542 50.683 28.5299 48.4233C28.5875 47.6717 28.5403 47.0062 28.3932 46.4555Z" fill="white" stroke="#4141AA" stroke-width="0.95269" stroke-miterlimit="10"/>
<path d="M25.7814 44.9108L22.8091 45.4843L22.7847 45.4892C21.0414 45.7655 18.4991 48.1197 16.5041 51.493C14.5091 54.8664 13.6657 58.2188 14.2685 59.8891L14.2858 59.9508L15.2026 62.7986C15.3716 63.4395 15.6798 63.918 16.1416 64.1911C16.6034 64.4643 17.1792 64.5085 17.8143 64.3432C18.3679 64.2068 18.9737 63.9276 19.6046 63.515C21.5002 62.2725 23.6716 59.8729 25.486 56.8049C27.3004 53.737 28.3543 50.6829 28.5299 48.4232C28.5875 47.6716 28.5404 47.0061 28.3932 46.4554C28.232 45.8191 27.9159 45.3359 27.4541 45.0628C26.9923 44.7897 26.4245 44.7501 25.7814 44.9108Z" fill="white" stroke="#4141AA" stroke-width="0.95269" stroke-miterlimit="10"/>
<path d="M26.8454 46.0197L26.3174 49.0005L26.3129 49.025C26.0681 50.7802 23.7531 53.3582 20.4107 55.4046C17.0636 57.4539 13.7149 58.3435 12.0403 57.7634L12.0164 57.7563L9.12158 56.8711C9.67452 57.0099 10.3406 57.0468 11.0913 56.9777C13.348 56.7675 16.3903 55.6641 19.4301 53.803C22.47 51.9419 24.8313 49.7368 26.0447 47.8225C26.4475 47.1853 26.7175 46.5753 26.8454 46.0197Z" fill="white" stroke="#4141AA" stroke-width="0.95269" stroke-miterlimit="10"/>
<path d="M25.2611 43.4317L22.3663 42.5465L22.3424 42.5394C20.6727 41.9672 17.3239 42.8568 13.9815 44.9031C10.6391 46.9495 8.32404 49.5167 8.07449 51.2748L8.06083 51.3375L7.53733 54.283C7.38653 54.9285 7.43475 55.4956 7.71492 55.9532C7.99508 56.4108 8.48306 56.7194 9.12171 56.8708C9.67465 57.0096 10.3407 57.0465 11.0914 56.9774C13.3481 56.7672 16.3904 55.6638 19.4303 53.8027C22.4701 51.9416 24.8315 49.7366 26.0448 47.8222C26.4477 47.1851 26.7177 46.575 26.8455 46.0195C27.0011 45.3818 26.948 44.8069 26.6679 44.3492C26.3877 43.8916 25.9045 43.5908 25.2611 43.4317Z" fill="white" stroke="#4141AA" stroke-width="0.95269" stroke-miterlimit="10"/>
<path d="M25.6004 43.9243L23.9802 46.4814L23.9668 46.5023C23.0738 48.0332 19.9534 49.5391 16.0843 50.1631C12.2097 50.7881 8.774 50.3396 7.44506 49.1671L7.4257 49.1515L5.08374 47.2334C5.54258 47.5717 6.14476 47.8588 6.86544 48.0799C9.03296 48.7423 12.2664 48.8767 15.7852 48.3092C19.3041 47.7416 22.3258 46.5983 24.1752 45.2881C24.7898 44.8516 25.2712 44.3897 25.6004 43.9243Z" fill="white" stroke="#4141AA" stroke-width="0.95269" stroke-miterlimit="10"/>
<path d="M25.1175 40.9287L22.7755 39.0106L22.7561 38.995C21.4287 37.8317 17.993 37.3831 14.1239 38.0071C10.2548 38.6312 7.13831 40.1271 6.2399 41.6588L6.20349 41.7115L4.60078 44.2377C4.2162 44.7776 4.04548 45.3205 4.13092 45.8502C4.21635 46.3799 4.55058 46.8508 5.08393 47.2333C5.54277 47.5716 6.14495 47.8587 6.86563 48.0798C9.03315 48.7422 12.2666 48.8766 15.7854 48.3091C19.3043 47.7416 22.326 46.5983 24.1754 45.288C24.79 44.8515 25.2714 44.3897 25.6006 43.9243C25.9867 43.3935 26.1559 42.8414 26.0705 42.3117C25.985 41.782 25.6523 41.3202 25.1175 40.9287Z" fill="white" stroke="#4141AA" stroke-width="0.95269" stroke-miterlimit="10"/>
<path d="M25.0739 41.3755L22.6194 43.1472L22.5991 43.1616C21.2011 44.2509 17.7445 44.4891 13.9206 43.6303C10.0914 42.7704 7.06851 41.077 6.27057 39.4946L6.2584 39.4729L4.79712 36.8218C5.09734 37.3064 5.54968 37.7967 6.13656 38.2698C7.90259 39.6904 10.8544 41.017 14.3321 41.7981C17.8098 42.5791 21.04 42.6408 23.2439 42.1118C23.9767 41.935 24.5953 41.6851 25.0739 41.3755Z" fill="white" stroke="#4141AA" stroke-width="0.95269" stroke-miterlimit="10"/>
<path d="M25.739 38.4151L24.2777 35.764L24.2656 35.7423C23.4656 34.1689 20.4427 32.4755 16.6189 31.6168C12.795 30.758 9.3458 30.9884 7.94245 32.0765L7.88904 32.1119L5.46221 33.8614C4.90453 34.2196 4.54424 34.6602 4.42667 35.1838C4.3091 35.7073 4.44438 36.2686 4.79734 36.822C5.09756 37.3066 5.5499 37.7969 6.13678 38.27C7.9028 39.6907 10.8546 41.0172 14.3323 41.7982C17.8101 42.5793 21.0403 42.641 23.2441 42.112C23.977 41.9352 24.5955 41.6854 25.0741 41.3757C25.6298 41.0264 25.9921 40.5768 26.1097 40.0533C26.2273 39.5297 26.09 38.9774 25.739 38.4151Z" fill="white" stroke="#4141AA" stroke-width="0.95269" stroke-miterlimit="10"/>
<path d="M25.4887 38.9866L22.5368 39.6572L22.5125 39.6625C20.7999 40.1182 17.5254 38.9855 14.342 36.6996C11.1541 34.4104 9.03441 31.6696 8.91896 29.9012L8.91624 29.8764L8.60828 26.865C8.69503 27.4284 8.91956 28.0566 9.27464 28.7216C10.3444 30.7197 12.5422 33.0952 15.4374 35.1742C18.3326 37.2532 21.2813 38.5734 23.5166 38.9485C24.2601 39.0725 24.9272 39.0844 25.4887 38.9866Z" fill="white" stroke="#4141AA" stroke-width="0.95269" stroke-miterlimit="10"/>
<path d="M27.2587 36.522L26.9507 33.5105L26.948 33.4858C26.8271 31.7248 24.7074 28.984 21.524 26.6981C18.3407 24.4121 15.0761 23.2752 13.359 23.7276L13.296 23.7394L10.3782 24.4003C9.72484 24.5119 9.22092 24.7765 8.90796 25.2123C8.59499 25.6481 8.49994 26.2177 8.60836 26.865C8.69512 27.4284 8.91965 28.0566 9.27473 28.7216C10.3444 30.7198 12.5423 33.0952 15.4375 35.1742C18.3327 37.2532 21.2814 38.5734 23.5166 38.9485C24.2602 39.0725 24.9272 39.0845 25.4888 38.9866C26.1369 38.8825 26.6462 38.6104 26.9591 38.1746C27.2721 37.7388 27.3618 37.1767 27.2587 36.522Z" fill="white" stroke="#4141AA" stroke-width="0.95269" stroke-miterlimit="10"/>
<path d="M26.9594 36.8201L23.9659 36.3698L23.9414 36.3659C22.1803 36.1668 19.5431 33.9196 17.4105 30.6315C15.2749 27.3387 14.2986 24.0143 14.835 22.3252L14.8415 22.3012L15.6511 19.3843C15.5268 19.9406 15.5072 20.6075 15.5958 21.3561C15.8646 23.6065 17.0466 26.6192 18.9861 29.6096C20.9256 32.6001 23.1913 34.9033 25.1365 36.0665C25.7839 36.4527 26.4008 36.7067 26.9594 36.8201Z" fill="white" stroke="#4141AA" stroke-width="0.95269" stroke-miterlimit="10"/>
<path d="M29.5053 35.1693L30.3149 32.2524L30.3214 32.2284C30.85 30.5443 29.8737 27.2199 27.7411 23.9318C25.6086 20.6437 22.9821 18.3961 21.2181 18.1923L21.1551 18.1803L18.197 17.7335C17.5478 17.5995 16.9822 17.6625 16.532 17.9544C16.0818 18.2464 15.7859 18.7422 15.6512 19.3846C15.5269 19.941 15.5073 20.6078 15.5959 21.3564C15.8646 23.6069 17.0467 26.6195 18.9862 29.6099C20.9257 32.6004 23.1913 34.9036 25.1366 36.0668C25.784 36.453 26.4008 36.707 26.9595 36.8204C27.601 36.9593 28.1744 36.8914 28.6245 36.5994C29.0747 36.3075 29.3629 35.8166 29.5053 35.1693Z" fill="white" stroke="#4141AA" stroke-width="0.95269" stroke-miterlimit="10"/>
<path d="M29.1111 35.3061L26.4733 33.8209L26.4517 33.8086C24.8766 32.9964 23.2106 29.9584 22.3864 26.1269C21.561 22.29 21.8305 18.8357 22.9323 17.4476L22.9469 17.4275L24.7407 14.989C24.4267 15.4648 24.1713 16.0811 23.9879 16.8123C23.439 19.0113 23.4727 22.2473 24.2223 25.732C24.9719 29.2166 26.2707 32.1748 27.6752 33.9536C28.143 34.5448 28.6293 35.0015 29.1111 35.3061Z" fill="white" stroke="#4141AA" stroke-width="0.95269" stroke-miterlimit="10"/>
<path d="M32.0778 34.6679L33.8716 32.2295L33.8861 32.2093C34.9789 30.8232 35.2484 27.3689 34.4242 23.5374C33.6001 19.7059 31.9442 16.6714 30.368 15.8538L30.3134 15.8201L27.7074 14.3508C27.1483 13.9948 26.5972 13.8525 26.0726 13.9654C25.5481 14.0782 25.0952 14.4364 24.7409 14.9889C24.4269 15.4647 24.1715 16.081 23.9881 16.8122C23.4392 19.0112 23.4729 22.2472 24.2225 25.7319C24.9721 29.2165 26.2708 32.1748 27.6754 33.9536C28.1432 34.5447 28.6294 35.0014 29.1113 35.306C29.6615 35.664 30.2216 35.8043 30.7461 35.6915C31.2707 35.5786 31.7145 35.2223 32.0778 34.6679Z" fill="white" stroke="#4141AA" stroke-width="0.95269" stroke-miterlimit="10"/>
<path d="M31.5251 34.6333L29.6745 32.2377L29.6595 32.2179C28.5253 30.8561 28.1748 27.409 28.9088 23.5593C29.6439 19.704 31.2381 16.6277 32.7937 15.7788L32.815 15.7659L35.4172 14.2192C34.9426 14.5351 34.4673 15.0031 34.0135 15.605C32.6511 17.4163 31.4211 20.4097 30.7535 23.911C30.086 27.4122 30.1293 30.6427 30.7297 32.8282C30.9302 33.5549 31.2 34.165 31.5251 34.6333Z" fill="white" stroke="#4141AA" stroke-width="0.95269" stroke-miterlimit="10"/>
<path d="M34.5056 35.2019L37.1078 33.6553L37.1291 33.6424C38.6756 32.7917 40.2699 29.7154 41.0039 25.8656C41.7379 22.0159 41.3954 18.576 40.2624 17.2088L40.2252 17.1565L38.3978 14.7878C38.0216 14.2421 37.5695 13.8963 37.0424 13.7958C36.5154 13.6953 35.9587 13.8488 35.4171 14.2196C34.9425 14.5354 34.4672 15.0034 34.0134 15.6054C32.6509 17.4166 31.421 20.41 30.7534 23.9113C30.0859 27.4126 30.1292 30.643 30.7296 32.8286C30.9301 33.5552 31.1999 34.1654 31.525 34.6337C31.8922 35.1777 32.3533 35.5252 32.8803 35.6257C33.4074 35.7262 33.955 35.571 34.5056 35.2019Z" fill="white" stroke="#4141AA" stroke-width="0.95269" stroke-miterlimit="10"/>
<path d="M33.6686 34.839L32.926 31.9044L32.9201 31.8802C32.4226 30.1792 33.4748 26.878 35.6822 23.6397C37.8927 20.3967 40.5808 18.2106 42.3459 18.0519L42.3705 18.0486L45.3735 17.667C44.8124 17.7675 44.1899 18.0073 43.5338 18.3786C41.5624 19.4969 39.2415 21.7522 37.2339 24.6974C35.2264 27.6426 33.9787 30.6228 33.6584 32.8665C33.5527 33.6129 33.5571 34.28 33.6686 34.839Z" fill="white" stroke="#4141AA" stroke-width="0.95269" stroke-miterlimit="10"/>
<path d="M36.1757 36.5479L39.1787 36.1664L39.2034 36.163C40.9608 35.9991 43.6489 33.813 45.8563 30.5746C48.0637 27.3363 49.1204 24.0449 48.6261 22.3393L48.6128 22.2766L47.8806 19.3759C47.7531 18.7255 47.4763 18.2282 47.0329 17.926C46.5896 17.6238 46.0179 17.5427 45.3734 17.6669C44.8122 17.7674 44.1897 18.0072 43.5337 18.3785C41.5623 19.4968 39.2413 21.7521 37.2338 24.6973C35.2262 27.6425 33.9786 30.6226 33.6583 32.8664C33.5526 33.6128 33.5569 34.2799 33.6685 34.8389C33.7884 35.4842 34.0729 35.9867 34.5162 36.2889C34.9596 36.5911 35.5237 36.667 36.1757 36.5479Z" fill="white" stroke="#4141AA" stroke-width="0.95269" stroke-miterlimit="10"/>
<path d="M36.9296 37.518L36.8275 34.4926L36.8268 34.4677C36.7021 32.6999 38.4317 29.6977 41.2768 27.0022C44.1258 24.303 47.217 22.7379 48.9756 22.9579L49.0003 22.9599L52.0159 23.2251C51.4462 23.2041 50.7869 23.3062 50.0669 23.5295C47.903 24.2035 45.1558 25.9141 42.5683 28.3655C39.9808 30.8169 38.1285 33.4639 37.3388 35.5884C37.0769 36.2952 36.9394 36.9481 36.9296 37.518Z" fill="white" stroke="#4141AA" stroke-width="0.95269" stroke-miterlimit="10"/>
<path d="M39.0163 39.7209L42.0319 39.9861L42.0566 39.9881C43.8088 40.2013 46.9 38.6363 49.7451 35.9409C52.5901 33.2455 54.3221 30.2537 54.2014 28.4821L54.2017 28.418L54.1026 25.428C54.1162 24.7653 53.9514 24.2205 53.5823 23.831C53.2133 23.4415 52.6719 23.2408 52.0158 23.2253C51.4461 23.2042 50.7868 23.3063 50.0668 23.5297C47.9028 24.2036 45.1557 25.9142 42.5682 28.3656C39.9807 30.8171 38.1283 33.4641 37.3386 35.5885C37.0767 36.2954 36.9392 36.9482 36.9295 37.5182C36.9096 38.1742 37.0808 38.7257 37.4498 39.1152C37.8188 39.5047 38.3539 39.6987 39.0163 39.7209Z" fill="white" stroke="#4141AA" stroke-width="0.95269" stroke-miterlimit="10"/>
<path d="M40.9554 41.8854L41.0667 38.8603L41.0678 38.8355C41.0679 37.0632 43.0047 34.1903 46.0325 31.702C49.0646 29.2102 52.2584 27.8667 53.997 28.21L54.0216 28.2137L57.011 28.6907C56.4442 28.6296 55.7794 28.685 55.0455 28.8571C52.8394 29.3769 49.9786 30.8898 47.2248 33.1528C44.4711 35.4159 42.4369 37.9259 41.4995 39.9894C41.1884 40.6761 41.0053 41.3176 40.9554 41.8854Z" fill="white" stroke="#4141AA" stroke-width="0.95269" stroke-miterlimit="10"/>
<path d="M42.8819 44.2298L45.8712 44.7068L45.8958 44.7105C47.6286 45.0466 50.8224 43.7032 53.8502 41.2149C56.878 38.7266 58.8164 35.8643 58.8208 34.0886L58.8257 34.0247L58.9375 31.035C58.9977 30.375 58.8716 29.8199 58.531 29.4054C58.1903 28.9909 57.6644 28.7525 57.0109 28.6908C56.4441 28.6297 55.7793 28.6851 55.0454 28.8572C52.8393 29.377 49.9785 30.8899 47.2248 33.153C44.471 35.416 42.4368 37.926 41.4994 39.9895C41.1884 40.6762 41.0052 41.3177 40.9553 41.8856C40.8893 42.5386 41.0212 43.1007 41.3619 43.5152C41.7025 43.9298 42.2226 44.161 42.8819 44.2298Z" fill="white" stroke="#4141AA" stroke-width="0.95269" stroke-miterlimit="10"/>
<path d="M44.2695 46.0568L44.6895 43.0589L44.6932 43.0343C44.8745 41.2714 47.095 38.6116 50.3614 36.446C53.6325 34.2773 56.9469 33.2675 58.6414 33.7868L58.6654 33.793L61.5903 34.5732C61.0327 34.4545 60.3658 34.4416 59.6181 34.5378C57.3704 34.8292 54.3699 36.0416 51.3991 38.0111C48.4284 39.9807 46.1481 42.2695 45.0046 44.2263C44.625 44.8776 44.3772 45.497 44.2695 46.0568Z" fill="white" stroke="#4141AA" stroke-width="0.95269" stroke-miterlimit="10"/>
<path d="M45.9461 48.5858L48.871 49.3659L48.895 49.3722C50.5843 49.8838 53.8988 48.874 57.1652 46.7084C60.4317 44.5428 62.6526 41.8937 62.8386 40.1278L62.85 40.0647L63.2669 37.1022C63.3943 36.4517 63.3257 35.8867 63.0292 35.4395C62.7327 34.9923 62.2339 34.7015 61.5902 34.5732C61.0327 34.4545 60.3657 34.4416 59.618 34.5378C57.3703 34.8292 54.3698 36.0416 51.399 38.0111C48.4283 39.9807 46.148 42.2694 45.0045 44.2263C44.6249 44.8776 44.3771 45.497 44.2694 46.0568C44.1369 46.6996 44.2106 47.2723 44.5071 47.7195C44.8036 48.1667 45.2973 48.4499 45.9461 48.5858Z" fill="white" stroke="#4141AA" stroke-width="0.95269" stroke-miterlimit="10"/>
<path d="M46.9317 50.2774L47.8378 47.389L47.8454 47.3654C48.3134 45.656 50.94 43.3964 54.5174 41.7959C58.0998 40.193 61.535 39.7405 63.1213 40.5306L63.144 40.5407L65.9014 41.79C65.3708 41.5815 64.715 41.4594 63.9616 41.4316C61.6966 41.3505 58.5379 42.0543 55.2843 43.51C52.0308 44.9657 49.4061 46.8495 47.9571 48.5923C47.4758 49.1725 47.1298 49.7429 46.9317 50.2774Z" fill="white" stroke="#4141AA" stroke-width="0.95269" stroke-miterlimit="10"/>
<path d="M48.1707 53.0472L50.9281 54.2965L50.9508 54.3066C52.5333 55.0883 55.9685 54.6358 59.5459 53.0352C63.1233 51.4346 65.7486 49.1857 66.2217 47.4742L66.2433 47.4138L67.1404 44.5598C67.3728 43.939 67.3977 43.3704 67.1786 42.8807C66.9595 42.3909 66.5151 42.0222 65.9012 41.7901C65.3706 41.5815 64.7148 41.4594 63.9615 41.4316C61.6964 41.3505 58.5377 42.0544 55.2841 43.5101C52.0306 44.9658 49.4059 46.8495 47.9569 48.5924C47.4756 49.1726 47.1296 49.7429 46.9315 50.2775C46.6954 50.8899 46.6742 51.4669 46.8933 51.9567C47.1125 52.4464 47.553 52.8068 48.1707 53.0472Z" fill="white" stroke="#4141AA" stroke-width="0.95269" stroke-miterlimit="10"/>
<path d="M48.4755 53.8713L50.0648 51.2948L50.078 51.2738C50.9524 49.7322 54.0544 48.1888 57.9157 47.5181C61.7825 46.8465 65.2233 47.2535 66.5663 48.4099L66.5859 48.4253L68.9508 50.3149C68.4879 49.9822 67.8823 49.7024 67.159 49.49C64.9837 48.8538 61.7489 48.7584 58.2371 49.3683C54.7253 49.9783 51.7176 51.158 49.8842 52.4905C49.2749 52.9343 48.7991 53.402 48.4755 53.8713Z" fill="white" stroke="#4141AA" stroke-width="0.95269" stroke-miterlimit="10"/>
<path d="M48.9947 56.8608L51.3597 58.7505L51.3792 58.7659C52.7206 59.9131 56.1615 60.3202 60.0228 59.6495C63.8841 58.9789 66.9823 57.4454 67.8621 55.903L67.8979 55.8498L69.47 53.3045C69.8481 52.7601 70.0122 52.2151 69.9204 51.6864C69.8286 51.1578 69.4887 50.691 68.9508 50.315C68.4879 49.9822 67.8823 49.7024 67.159 49.49C64.9836 48.8538 61.7488 48.7584 58.2371 49.3684C54.7253 49.9783 51.7176 51.158 49.8842 52.4905C49.2748 52.9343 48.7991 53.4019 48.4755 53.8713C48.0959 54.4067 47.9333 54.9608 48.0251 55.4894C48.1169 56.0181 48.4553 56.4758 48.9947 56.8608Z" fill="white" stroke="#4141AA" stroke-width="0.95269" stroke-miterlimit="10"/>
<path d="M49.0114 56.9877L51.3289 55.0402L51.3481 55.0243C52.6621 53.8351 56.0918 53.3432 59.9685 53.9183C63.8507 54.4942 66.9899 55.9605 67.9021 57.48L67.9159 57.5007L69.5682 60.0371C69.2332 59.5759 68.746 59.1202 68.1259 58.6915C66.2601 57.4048 63.2187 56.2989 59.6929 55.7759C56.1672 55.2529 52.9412 55.429 50.7822 56.1188C50.0644 56.3489 49.4659 56.6437 49.0114 56.9877Z" fill="white" stroke="#4141AA" stroke-width="0.95269" stroke-miterlimit="10"/>
<path d="M48.566 59.9888L50.2184 62.5252L50.2321 62.5459C51.1457 64.0562 54.2849 65.5226 58.1616 66.0977C62.0383 66.6727 65.4612 66.1891 66.7807 65.0008L66.8314 64.9615L69.1229 63.0382C69.6527 62.6399 69.9796 62.174 70.0583 61.6432C70.1371 61.1125 69.9608 60.5626 69.5681 60.0367C69.2331 59.5755 68.7459 59.1198 68.1258 58.6912C66.26 57.4043 63.2186 56.2985 59.6928 55.7755C56.1671 55.2525 52.9411 55.4286 50.7821 56.1184C50.0643 56.3486 49.4658 56.6432 49.0112 56.9873C48.4828 57.3766 48.1545 57.8516 48.0758 58.3823C47.9971 58.9131 48.1746 59.4538 48.566 59.9888Z" fill="white" stroke="#4141AA" stroke-width="0.95269" stroke-miterlimit="10"/>
<path d="M48.3952 60.3793L51.1712 59.172L51.194 59.1623C52.7922 58.3963 56.2201 58.901 59.7727 60.5557C63.3304 62.2127 65.9224 64.512 66.3644 66.2282L66.3717 66.252L67.2338 69.1538C67.0438 68.6163 66.7065 68.0408 66.2341 67.4533C64.8117 65.6887 62.2109 63.7629 58.9798 62.258C55.7488 60.7531 52.6061 60.0037 50.3401 60.0504C49.5864 60.0667 48.9288 60.1789 48.3952 60.3793Z" fill="white" stroke="#4141AA" stroke-width="0.95269" stroke-miterlimit="10"/>
<path d="M47.1139 63.1306L47.976 66.0324L47.9833 66.0562C48.4292 67.764 51.0212 70.0633 54.5739 71.718C58.1265 73.3727 61.5455 73.8834 63.1486 73.1198L63.2084 73.0966L65.9526 71.905C66.5738 71.674 67.0198 71.3204 67.2464 70.834C67.4729 70.3476 67.4605 69.7704 67.2337 69.1544C67.0438 68.6169 66.7064 68.0414 66.234 67.454C64.8117 65.6893 62.2108 63.7636 58.9797 62.2586C55.7487 60.7537 52.606 60.0043 50.34 60.051C49.5864 60.0674 48.9288 60.1795 48.3951 60.38C47.7777 60.6027 47.3278 60.9646 47.1013 61.451C46.8747 61.9374 46.891 62.5063 47.1139 63.1306Z" fill="white" stroke="#4141AA" stroke-width="0.95269" stroke-miterlimit="10"/>
<path d="M46.3523 64.2886L49.3125 63.6556L49.3369 63.6506C51.0551 63.2166 54.3149 64.3908 57.4691 66.717C60.6276 69.0464 62.7124 71.8139 62.8054 73.5837L62.8078 73.6084L63.0775 76.6235C62.9979 76.059 62.7814 75.428 62.4348 74.7586C61.3905 72.7471 59.223 70.3439 56.3544 68.2283C53.4858 66.1127 50.5541 64.7552 48.3238 64.3518C47.5819 64.2184 46.9151 64.198 46.3523 64.2886Z" fill="white" stroke="#4141AA" stroke-width="0.95269" stroke-miterlimit="10"/>
<path d="M44.5511 66.7305L44.8208 69.7456L44.8232 69.7703C44.9217 71.5327 47.0064 74.3002 50.1605 76.6263C53.3146 78.9525 56.5645 80.1308 58.2872 79.7002L58.3504 79.6892L61.2763 79.0654C61.931 78.9621 62.4383 78.7039 62.7567 78.2721C63.0752 77.8403 63.1775 77.272 63.0773 76.6234C62.9977 76.0589 62.7812 75.4279 62.4345 74.7585C61.3903 72.7469 59.2228 70.3437 56.3542 68.2281C53.4856 66.1125 50.5539 64.755 48.3236 64.3516C47.5817 64.2182 46.9149 64.1977 46.352 64.2884C45.7027 64.3843 45.19 64.6499 44.8716 65.0818C44.5531 65.5136 44.4563 66.0744 44.5511 66.7305Z" fill="white" stroke="#4141AA" stroke-width="0.95269" stroke-miterlimit="10"/>
<path d="M43.1145 68.3761L46.131 68.1224L46.1558 68.1205C47.9152 67.9073 51.0004 69.4842 53.8351 72.1904C56.6738 74.9005 58.392 77.9093 58.2605 79.6767L58.2598 79.7015L58.1461 82.7266C58.1385 82.1565 58.0035 81.5032 57.7443 80.7954C56.9627 78.6679 55.1165 76.01 52.5384 73.5487C49.9602 71.0875 47.2236 69.3702 45.0623 68.688C44.3432 68.4619 43.6843 68.3573 43.1145 68.3761Z" fill="white" stroke="#4141AA" stroke-width="0.95269" stroke-miterlimit="10"/>
<path d="M41.0192 70.5706L40.9055 73.5956L40.9048 73.6205C40.7797 75.3811 42.4978 78.39 45.3325 81.0962C48.1673 83.8025 51.2421 85.3822 53.0054 85.1729L53.0694 85.17L56.0508 84.921C56.7133 84.9014 57.2491 84.7094 57.6196 84.3213C57.9901 83.9332 58.1634 83.3824 58.146 82.7263C58.1384 82.1563 58.0034 81.503 57.7442 80.7951C56.9627 78.6676 55.1164 76.0098 52.5383 73.5485C49.9602 71.0872 47.2236 69.3699 45.0622 68.6878C44.3431 68.4617 43.6842 68.357 43.1144 68.3759C42.4582 68.3889 41.9161 68.5876 41.5456 68.9757C41.175 69.3637 41.0081 69.9079 41.0192 70.5706Z" fill="white" stroke="#4141AA" stroke-width="0.95269" stroke-miterlimit="10"/>
<path d="M39.113 72.3895L42.1401 72.3689L42.1649 72.3689C43.9355 72.2918 46.8901 74.1016 49.508 77.0181C52.1295 79.9388 53.6109 83.071 53.3437 84.823L53.341 84.8477L52.9948 87.855C53.0311 87.2861 52.9468 86.6243 52.7429 85.8986C52.1274 83.7173 50.4914 80.925 48.1105 78.2725C45.7296 75.62 43.1333 73.6971 41.0309 72.8505C40.3314 72.5697 39.6825 72.4147 39.113 72.3895Z" fill="white" stroke="#4141AA" stroke-width="0.95269" stroke-miterlimit="10"/>
<path d="M36.8548 74.416L36.5085 77.4233L36.5058 77.4481C36.2455 79.1938 37.7268 82.3261 40.3447 85.2426C42.9626 88.1591 45.9066 89.971 47.6808 89.898L47.7449 89.9001L50.7365 89.8815C51.3986 89.9129 51.9476 89.7628 52.3469 89.4044C52.7462 89.046 52.9614 88.5102 52.9946 87.8547C53.0309 87.2857 52.9466 86.624 52.7427 85.8982C52.1273 83.7169 50.4912 80.9247 48.1103 78.2722C45.7294 75.6197 43.1332 73.6967 41.0308 72.8502C40.3312 72.5693 39.6824 72.4143 39.1128 72.3892C38.4576 72.3517 37.9017 72.5079 37.5024 72.8663C37.1031 73.2248 36.8948 73.7544 36.8548 74.416Z" fill="white" stroke="#4141AA" stroke-width="0.95269" stroke-miterlimit="10"/>
<path d="M34.622 76.3031L37.6464 76.4339L37.6712 76.4352C39.4434 76.4467 42.3038 78.4019 44.7726 81.4457C47.2448 84.4938 48.5677 87.6962 48.2132 89.4326L48.2093 89.4571L47.7131 92.4434C47.7779 91.877 47.7268 91.2118 47.5594 90.4768C47.0538 88.2674 45.5594 85.3969 43.3141 82.6287C41.0688 79.8604 38.572 77.8101 36.5145 76.8594C35.8299 76.544 35.1895 76.3567 34.622 76.3031Z" fill="white" stroke="#4141AA" stroke-width="0.95269" stroke-miterlimit="10"/>
<path d="M32.2653 78.2145L31.7691 81.2007L31.7652 81.2253C31.418 82.9559 32.7408 86.1583 35.2096 89.202C37.6783 92.2458 40.5281 94.2026 42.3037 94.2185L42.3676 94.2237L45.3564 94.3547C46.0161 94.4192 46.5719 94.2967 46.9887 93.9587C47.4054 93.6207 47.6471 93.0964 47.713 92.4433C47.7778 91.8769 47.7267 91.2118 47.5593 90.4768C47.0537 88.2674 45.5593 85.3969 43.314 82.6287C41.0687 79.8604 38.5719 77.81 36.5144 76.8594C35.8298 76.544 35.1895 76.3567 34.6219 76.3031C33.9693 76.2329 33.4064 76.3612 32.9897 76.6992C32.5729 77.0372 32.3384 77.5557 32.2653 78.2145Z" fill="white" stroke="#4141AA" stroke-width="0.95269" stroke-miterlimit="10"/>
<path d="M29.8378 80.1048L32.8563 80.3335L32.8811 80.3356C34.652 80.4046 37.4474 82.4516 39.8162 85.5739C42.1883 88.7006 43.4066 91.9441 42.9959 93.6682L42.9912 93.6926L42.3984 96.6611C42.4815 96.0971 42.452 95.4307 42.3086 94.6906C41.8749 92.466 40.4744 89.5485 38.3201 86.7089C36.1658 83.8693 33.7368 81.739 31.7112 80.7221C31.0372 80.3846 30.4033 80.1767 29.8378 80.1048Z" fill="white" stroke="#4141AA" stroke-width="0.95269" stroke-miterlimit="10"/>
<path d="M27.4203 81.9388L26.8275 84.9074L26.8228 84.9318C26.4196 86.6502 27.6378 89.8938 30.0066 93.0161C32.3753 96.1384 35.1601 98.1866 36.9343 98.26L36.9979 98.2674L39.981 98.4952C40.6382 98.5811 41.1977 98.4767 41.6252 98.1524C42.0526 97.8281 42.3112 97.3118 42.3983 96.6613C42.4814 96.0973 42.4519 95.4308 42.3084 94.6908C41.8748 92.4661 40.4743 89.5487 38.3199 86.7091C36.1656 83.8694 33.7367 81.7392 31.7111 80.7223C31.037 80.3848 30.4032 80.1768 29.8376 80.1049C29.1877 80.0135 28.6209 80.1235 28.1934 80.4478C27.7659 80.7721 27.5147 81.2828 27.4203 81.9388Z" fill="white" stroke="#4141AA" stroke-width="0.95269" stroke-miterlimit="10"/>
<path d="M24.2127 84.3393L27.2368 84.4753L27.2617 84.4766C29.0339 84.4912 31.8908 86.4515 34.3543 89.4997C36.8212 92.5521 38.1384 95.7567 37.7809 97.4925L37.777 97.5171L37.2755 100.502C37.3412 99.9362 37.2913 99.2709 37.1252 98.5356C36.6235 96.3254 35.1341 93.4522 32.8937 90.6801C30.6533 87.9079 28.16 85.8532 26.1043 84.8989C25.4202 84.5822 24.7802 84.3938 24.2127 84.3393Z" fill="white" stroke="#4141AA" stroke-width="0.95269" stroke-miterlimit="10"/>
<path d="M21.8526 86.2464L21.3512 89.2317L21.3473 89.2563C20.9969 90.9863 22.3142 94.191 24.7776 97.2391C27.241 100.287 30.0873 102.249 31.8629 102.268L31.9268 102.273L34.9154 102.41C35.575 102.475 36.131 102.354 36.5483 102.016C36.9656 101.679 37.2083 101.155 37.2753 100.502C37.3411 99.936 37.2911 99.2708 37.125 98.5355C36.6234 96.3252 35.134 93.4521 32.8935 90.6799C30.6531 87.9077 28.1599 85.853 26.1041 84.8988C25.42 84.5821 24.7801 84.3937 24.2126 84.3391C23.5601 84.2677 22.9969 84.3951 22.5796 84.7323C22.1623 85.0696 21.9268 85.5877 21.8526 86.2464Z" fill="white" stroke="#4141AA" stroke-width="0.95269" stroke-miterlimit="10"/>
<path d="M18.5399 89.2172L21.5629 89.0581L21.5877 89.057C23.3529 88.8989 26.3872 90.5716 29.1358 93.3653C31.8883 96.1629 33.5114 99.2241 33.3247 100.986L33.3232 101.011L33.1149 104.031C33.1251 103.461 33.0106 102.804 32.7737 102.088C32.0591 99.9376 30.297 97.2231 27.7972 94.6824C25.2974 92.1416 22.6159 90.3395 20.4769 89.59C19.7653 89.3414 19.11 89.2163 18.5399 89.2172Z" fill="white" stroke="#4141AA" stroke-width="0.95269" stroke-miterlimit="10"/>
<path d="M16.3769 91.3452L16.1686 94.3651L16.1671 94.39C15.9869 96.1458 17.61 99.207 20.3586 102.001C23.1072 104.794 26.1311 106.47 27.9001 106.315L27.9642 106.315L30.9518 106.159C31.6147 106.16 32.1562 105.985 32.5387 105.609C32.9212 105.233 33.1116 104.687 33.1148 104.031C33.1251 103.461 33.0106 102.804 32.7736 102.088C32.0591 99.9374 30.2969 97.223 27.7971 94.6822C25.2973 92.1414 22.6159 90.3393 20.4769 89.5898C19.7652 89.3413 19.1099 89.2161 18.5398 89.2171C17.8835 89.2096 17.3354 89.3912 16.9529 89.7675C16.5705 90.1438 16.3866 90.6824 16.3769 91.3452Z" fill="white" stroke="#4141AA" stroke-width="0.95269" stroke-miterlimit="10"/>
<path d="M13.2666 94.7999L16.2502 94.2882L16.2747 94.2842C18.0093 93.9207 21.2185 95.227 24.275 97.6799C27.3359 100.136 29.306 102.987 29.3267 104.759L29.3281 104.784L29.4745 107.807C29.418 107.24 29.2274 106.601 28.9084 105.918C27.9471 103.865 25.8795 101.375 23.0996 99.1445C20.3198 96.9136 17.4459 95.4376 15.2339 94.9434C14.498 94.7799 13.8326 94.7323 13.2666 94.7999Z" fill="white" stroke="#4141AA" stroke-width="0.95269" stroke-miterlimit="10"/>
<path d="M11.3673 97.1663L11.5137 100.19L11.5151 100.215C11.5416 101.98 13.5116 104.83 16.5682 107.283C19.6247 109.736 22.8238 111.046 24.5627 110.686L24.6262 110.677L27.5752 110.174C28.2336 110.097 28.7509 109.86 29.0867 109.441C29.4226 109.023 29.548 108.459 29.4743 107.807C29.4178 107.24 29.2272 106.6 28.9082 105.917C27.9469 103.865 25.8793 101.375 23.0995 99.1445C20.3196 96.9136 17.4457 95.4375 15.2338 94.9434C14.4979 94.7798 13.8325 94.7322 13.2664 94.7998C12.6137 94.8692 12.0906 95.1136 11.7548 95.5321C11.419 95.9505 11.2994 96.507 11.3673 97.1663Z" fill="white" stroke="#4141AA" stroke-width="0.95269" stroke-miterlimit="10"/>
<path d="M8.51996 101.293L11.3981 100.354L11.4218 100.347C13.0855 99.7361 16.4499 100.564 19.8293 102.549C23.2135 104.536 25.5754 107.071 25.8523 108.822L25.8573 108.846L26.4398 111.817C26.3018 111.264 26.0207 110.659 25.6062 110.029C24.3579 108.137 21.9518 105.973 18.8783 104.168C15.8048 102.363 12.7475 101.319 10.4874 101.15C9.73556 101.094 9.07024 101.144 8.51996 101.293Z" fill="white" stroke="#4141AA" stroke-width="0.95269" stroke-miterlimit="10"/>
<path d="M6.98314 103.91L7.56567 106.88L7.57064 106.905C7.8523 108.647 10.2142 111.182 13.5935 113.167C16.9729 115.152 20.3279 115.985 21.9964 115.377L22.058 115.359L24.903 114.434C25.5434 114.263 26.021 113.953 26.2927 113.491C26.5644 113.028 26.6069 112.452 26.4396 111.818C26.3016 111.264 26.0205 110.659 25.606 110.03C24.3578 108.138 21.9516 105.974 18.8781 104.169C15.8046 102.364 12.7474 101.319 10.4872 101.15C9.73538 101.095 9.07009 101.144 8.51978 101.293C7.88402 101.456 7.40179 101.774 7.13006 102.236C6.85834 102.699 6.82053 103.267 6.98314 103.91Z" fill="white" stroke="#4141AA" stroke-width="0.95269" stroke-miterlimit="10"/>
<path d="M4.72614 108.603L7.40451 107.192L7.42661 107.181C8.96326 106.298 12.4192 106.546 16.0852 107.932C19.7564 109.319 22.5125 111.419 23.0811 113.097L23.0901 113.121L24.1659 115.95C23.9365 115.428 23.5572 114.879 23.0423 114.329C21.4925 112.675 18.7555 110.948 15.4213 109.688C12.0872 108.428 8.89739 107.915 6.64118 108.13C5.89084 108.203 5.24338 108.363 4.72614 108.603Z" fill="white" stroke="#4141AA" stroke-width="0.95269" stroke-miterlimit="10"/>
<path d="M3.65324 111.442L4.72904 114.271L4.73806 114.294C5.30992 115.964 8.06596 118.064 11.732 119.45C15.398 120.835 18.8455 121.09 20.3873 120.209L20.4452 120.181L23.093 118.789C23.6953 118.512 24.1138 118.126 24.3034 117.624C24.4931 117.122 24.4378 116.548 24.1657 115.95C23.9363 115.428 23.557 114.88 23.0422 114.329C21.4924 112.675 18.7553 110.949 15.4212 109.688C12.087 108.428 8.89725 107.915 6.64101 108.13C5.89067 108.203 5.24323 108.364 4.72597 108.603C4.12687 108.871 3.7052 109.266 3.51551 109.768C3.32581 110.27 3.38445 110.836 3.65324 111.442Z" fill="white" stroke="#4141AA" stroke-width="0.95269" stroke-miterlimit="10"/>
<path d="M2.24943 116.588L4.6073 114.69L4.6268 114.674C5.96547 113.513 9.40477 113.093 13.2685 113.749C17.1378 114.407 20.2456 115.939 21.1257 117.477L21.139 117.498L22.7378 120.068C22.4125 119.6 21.935 119.134 21.324 118.693C19.4856 117.367 16.4681 116.198 12.9541 115.601C9.44006 115.004 6.21109 115.112 4.03813 115.757C3.31563 115.972 2.71106 116.254 2.24943 116.588Z" fill="white" stroke="#4141AA" stroke-width="0.95269" stroke-miterlimit="10"/>
<path d="M1.74112 119.579L3.33992 122.15L3.35321 122.171C4.2349 123.7 7.34268 125.232 11.2064 125.888C15.0702 126.545 18.5025 126.133 19.8466 124.973L19.8981 124.934L22.2295 123.06C22.7675 122.672 23.1041 122.213 23.194 121.685C23.2838 121.156 23.1192 120.602 22.7376 120.068C22.4123 119.6 21.9348 119.134 21.3238 118.693C19.4854 117.367 16.4679 116.197 12.9539 115.601C9.43987 115.004 6.21091 115.112 4.03794 115.756C3.31544 115.971 2.71088 116.254 2.24923 116.588C1.71271 116.966 1.37457 117.434 1.28472 117.963C1.19487 118.492 1.36105 119.036 1.74112 119.579Z" fill="white" stroke="#4141AA" stroke-width="0.95269" stroke-miterlimit="10"/>
<path d="M1.40746 125.492L3.27955 123.113L3.29508 123.094C4.33921 121.662 7.59677 120.482 11.5093 120.255C15.4274 120.027 18.7996 120.823 20.0022 122.125L20.0199 122.143L22.1544 124.289C21.7324 123.906 21.1626 123.559 20.4682 123.266C18.3793 122.386 15.1764 121.923 11.618 122.129C8.05967 122.336 4.93725 123.166 2.96411 124.281C2.30824 124.652 1.78234 125.063 1.40746 125.492Z" fill="white" stroke="#4141AA" stroke-width="0.95269" stroke-miterlimit="10"/>
<path d="M1.5828 128.522L3.71732 130.668L3.73499 130.686C4.93712 131.978 8.3093 132.774 12.2218 132.547C16.1344 132.32 19.3869 131.149 20.4366 129.717L20.4782 129.668L22.3298 127.319C22.7673 126.821 22.9924 126.298 22.9613 125.762C22.9303 125.227 22.6457 124.724 22.1541 124.289C21.7321 123.906 21.1623 123.559 20.4678 123.266C18.379 122.386 15.1761 121.923 11.6177 122.13C8.05935 122.336 4.93692 123.166 2.96378 124.281C2.30792 124.653 1.78201 125.063 1.40713 125.492C0.969053 125.981 0.744481 126.513 0.775545 127.049C0.806608 127.585 1.09063 128.078 1.5828 128.522Z" fill="white" stroke="#4141AA" stroke-width="0.95269" stroke-miterlimit="10"/>
<path d="M2.58073 134.215L3.85037 131.467L3.86098 131.445C4.54472 129.81 7.4399 127.906 11.1933 126.778C14.9519 125.649 18.4168 125.642 19.8884 126.629L19.9097 126.642L22.4836 128.235C21.9843 127.96 21.3496 127.755 20.6061 127.631C18.3702 127.259 15.1472 127.551 11.7336 128.577C8.32003 129.603 5.47501 131.134 3.81413 132.676C3.26228 133.189 2.84586 133.711 2.58073 134.215Z" fill="white" stroke="#4141AA" stroke-width="0.95269" stroke-miterlimit="10"/>
<path d="M3.45369 137.121L6.02767 138.714L6.04892 138.727C7.5179 139.706 10.9827 139.698 14.7361 138.571C18.4895 137.443 21.382 135.55 22.0711 133.913L22.1002 133.856L23.3566 131.141C23.6668 130.555 23.7646 129.995 23.6102 129.481C23.4558 128.967 23.0626 128.544 22.4835 128.235C21.9841 127.96 21.3494 127.755 20.6059 127.631C18.3701 127.259 15.1471 127.551 11.7335 128.577C8.31989 129.602 5.47486 131.133 3.814 132.676C3.26214 133.189 2.8457 133.71 2.5806 134.215C2.26775 134.792 2.17261 135.362 2.327 135.875C2.48139 136.389 2.87202 136.803 3.45369 137.121Z" fill="white" stroke="#4141AA" stroke-width="0.95269" stroke-miterlimit="10"/>
<path d="M5.8377 142.572L6.40332 139.599L6.40815 139.574C6.67514 137.822 9.02256 135.274 12.3906 133.27C15.7634 131.263 19.1231 130.416 20.7902 131.017L20.814 131.025L23.6974 131.946C23.1462 131.801 22.4807 131.755 21.7292 131.815C19.47 131.996 16.414 133.061 13.3508 134.884C10.2877 136.706 7.89864 138.881 6.66115 140.78C6.25024 141.412 5.97259 142.019 5.8377 142.572Z" fill="white" stroke="#4141AA" stroke-width="0.95269" stroke-miterlimit="10"/>
<path d="M7.38921 145.18L10.2726 146.102L10.2964 146.109C11.9588 146.702 15.3185 145.855 18.6865 143.851C22.0546 141.848 24.4019 139.31 24.6737 137.555L24.6882 137.493L25.2489 134.554C25.4079 133.91 25.3668 133.343 25.0925 132.882C24.8181 132.42 24.3341 132.106 23.6974 131.946C23.1463 131.8 22.4807 131.755 21.7292 131.815C19.47 131.996 16.414 133.061 13.3508 134.884C10.2877 136.706 7.89862 138.881 6.66115 140.78C6.25024 141.412 5.97256 142.019 5.83771 142.572C5.67407 143.208 5.71982 143.784 5.99417 144.245C6.26853 144.706 6.74784 145.013 7.38921 145.18Z" fill="white" stroke="#4141AA" stroke-width="0.95269" stroke-miterlimit="10"/>
<path d="M11.0229 149.88L10.8317 146.859L10.8303 146.834C10.6535 145.071 12.2939 142.019 15.0582 139.241C17.8264 136.459 20.8702 134.803 22.6344 134.971L22.6592 134.973L25.6813 135.149C25.1112 135.145 24.4552 135.266 23.7422 135.511C21.599 136.248 18.9035 138.039 16.3894 140.566C13.8753 143.092 12.1018 145.793 11.375 147.939C11.1341 148.654 11.0159 149.31 11.0229 149.88Z" fill="white" stroke="#4141AA" stroke-width="0.95269" stroke-miterlimit="10"/>
<path d="M13.1738 152.021L16.1958 152.197L16.2206 152.198C17.9783 152.36 21.0221 150.704 23.7864 147.926C26.5507 145.148 28.1938 142.107 28.0209 140.339L28.0194 140.275L27.8322 137.29C27.8262 136.627 27.6454 136.087 27.265 135.709C26.8847 135.33 26.3376 135.146 25.6813 135.149C25.1112 135.145 24.4552 135.267 23.7422 135.511C21.599 136.248 18.9035 138.039 16.3894 140.566C13.8753 143.093 12.1017 145.793 11.375 147.94C11.1341 148.654 11.0158 149.311 11.0229 149.881C11.0223 150.537 11.2097 151.083 11.5901 151.462C11.9704 151.84 12.511 152.018 13.1738 152.021Z" fill="white" stroke="#4141AA" stroke-width="0.95269" stroke-miterlimit="10"/>
<path d="M18.3306 155.949L17.335 153.091L17.327 153.067C16.6831 151.416 17.4436 148.035 19.3602 144.617C21.2796 141.194 23.7669 138.782 25.5114 138.47L25.5357 138.464L28.494 137.822C27.9438 137.971 27.3445 138.265 26.7233 138.692C24.857 139.977 22.7414 142.426 20.9983 145.535C19.2551 148.644 18.272 151.722 18.1485 153.985C18.1083 154.738 18.1708 155.402 18.3306 155.949Z" fill="white" stroke="#4141AA" stroke-width="0.95269" stroke-miterlimit="10"/>
<path d="M20.9772 157.433L23.9356 156.791L23.9598 156.786C25.6963 156.469 28.1836 154.057 30.1003 150.639C32.0169 147.22 32.7827 143.849 32.1416 142.193L32.1229 142.132L31.1407 139.306C30.9569 138.669 30.6378 138.198 30.1698 137.936C29.7018 137.673 29.1252 137.642 28.494 137.822C27.9437 137.971 27.3445 138.265 26.7233 138.692C24.8569 139.977 22.7414 142.427 20.9982 145.536C19.2551 148.645 18.2719 151.722 18.1485 153.985C18.1082 154.738 18.1707 155.402 18.3306 155.949C18.5063 156.582 18.8335 157.057 19.3015 157.32C19.7695 157.582 20.338 157.609 20.9772 157.433Z" fill="white" stroke="#4141AA" stroke-width="0.95269" stroke-miterlimit="10"/>
<path d="M26.7128 159.693L24.9642 157.222L24.95 157.202C23.8739 155.793 23.6682 152.335 24.5628 148.519C25.4587 144.698 27.1804 141.691 28.7703 140.908L28.7921 140.896L31.4568 139.46C30.9694 139.756 30.4748 140.203 29.9962 140.786C28.5591 142.538 27.2048 145.478 26.3911 148.948C25.5775 152.418 25.4854 155.647 25.9937 157.856C26.1636 158.591 26.4076 159.212 26.7128 159.693Z" fill="white" stroke="#4141AA" stroke-width="0.95269" stroke-miterlimit="10"/>
<path d="M29.667 160.386L32.3317 158.95L32.3535 158.938C33.9344 158.153 35.6561 155.146 36.5508 151.33C37.4454 147.514 37.2474 144.063 36.1726 142.65L36.1377 142.596L34.411 140.153C34.058 139.592 33.6208 139.227 33.0985 139.105C32.5761 138.982 32.0135 139.112 31.4568 139.46C30.9694 139.756 30.4749 140.204 29.9962 140.786C28.5591 142.539 27.2048 145.478 26.3912 148.948C25.5775 152.418 25.4854 155.648 25.9938 157.856C26.1636 158.591 26.4076 159.212 26.7128 159.693C27.0569 160.252 27.5031 160.619 28.0254 160.741C28.5478 160.864 29.1014 160.732 29.667 160.386Z" fill="white" stroke="#4141AA" stroke-width="0.95269" stroke-miterlimit="10"/>
<path d="M36.1713 160.956L33.7756 159.105L33.7561 159.09C32.3147 158.059 31.105 154.812 30.8429 150.902C30.5804 146.986 31.3459 143.607 32.6367 142.392L32.6541 142.374L34.7812 140.221C34.4018 140.646 34.06 141.219 33.773 141.916C32.9123 144.013 32.4782 147.22 32.7166 150.776C32.955 154.332 33.8129 157.447 34.9458 159.41C35.3233 160.063 35.7385 160.585 36.1713 160.956Z" fill="white" stroke="#4141AA" stroke-width="0.95269" stroke-miterlimit="10"/>
<path d="M39.1989 160.753L41.3261 158.599L41.3434 158.581C42.6249 157.368 43.3905 153.989 43.1284 150.078C42.8663 146.168 41.6661 142.926 40.2245 141.889L40.1753 141.848L37.8088 140.018C37.307 139.585 36.7823 139.364 36.2469 139.4C35.7116 139.436 35.2117 139.725 34.7813 140.221C34.4019 140.646 34.0601 141.219 33.7731 141.916C32.9123 144.013 32.4783 147.22 32.7167 150.776C32.9551 154.333 33.8129 157.447 34.9458 159.41C35.3234 160.063 35.7385 160.585 36.1714 160.956C36.664 161.39 37.198 161.609 37.7333 161.574C38.2687 161.538 38.7593 161.249 39.1989 160.753Z" fill="white" stroke="#4141AA" stroke-width="0.95269" stroke-miterlimit="10"/>
<path d="M44.5531 159.724L41.8284 158.405L41.8061 158.394C40.1836 157.681 38.3325 154.752 37.2725 150.979C36.211 147.201 36.2658 143.736 37.2796 142.283L37.2929 142.262L38.9321 139.717C38.6482 140.211 38.4315 140.842 38.2938 141.583C37.8822 143.812 38.1164 147.04 39.0804 150.471C40.0445 153.903 41.5241 156.775 43.0362 158.463C43.5397 159.024 44.0533 159.45 44.5531 159.724Z" fill="white" stroke="#4141AA" stroke-width="0.95269" stroke-miterlimit="10"/>
<path d="M47.4744 158.904L49.1137 156.359L49.127 156.338C50.1318 154.887 50.1867 151.422 49.1266 147.649C48.0666 143.876 46.2259 140.95 44.602 140.232L44.5455 140.202L41.8534 138.897C41.2733 138.576 40.7145 138.468 40.1979 138.613C39.6814 138.758 39.2516 139.144 38.9322 139.717C38.6483 140.212 38.4315 140.843 38.2939 141.584C37.8822 143.812 38.1164 147.04 39.0805 150.472C40.0446 153.903 41.5241 156.775 43.0362 158.464C43.5398 159.025 44.0534 159.45 44.5532 159.724C45.1245 160.048 45.6922 160.153 46.2087 160.008C46.7253 159.863 47.1462 159.48 47.4744 158.904Z" fill="white" stroke="#4141AA" stroke-width="0.95269" stroke-miterlimit="10"/>
<path d="M52.8888 156.956L49.9807 156.115L49.9568 156.108C48.2374 155.679 45.9191 153.104 44.2382 149.564C42.5549 146.018 42.0249 142.594 42.7791 140.99L42.7887 140.967L43.9755 138.183C43.7789 138.718 43.6717 139.376 43.6609 140.13C43.6309 142.396 44.4059 145.538 45.9346 148.758C47.4633 151.978 49.4059 154.56 51.181 155.969C51.7719 156.437 52.3499 156.77 52.8888 156.956Z" fill="white" stroke="#4141AA" stroke-width="0.95269" stroke-miterlimit="10"/>
<path d="M55.63 155.654L56.8167 152.869L56.8263 152.847C57.5721 151.247 57.0422 147.823 55.3613 144.282C53.6804 140.742 51.3728 138.168 49.651 137.734L49.5902 137.714L46.7166 136.881C46.0908 136.663 45.5218 136.651 45.0371 136.881C44.5524 137.111 44.1937 137.563 43.9756 138.182C43.779 138.718 43.6718 139.376 43.661 140.13C43.631 142.396 44.406 145.538 45.9347 148.758C47.4635 151.978 49.406 154.559 51.1811 155.969C51.772 156.437 52.35 156.77 52.8889 156.956C53.5065 157.178 54.0838 157.186 54.5685 156.956C55.0532 156.726 55.4035 156.277 55.63 155.654Z" fill="white" stroke="#4141AA" stroke-width="0.95269" stroke-miterlimit="10"/>
<path d="M60.7606 152.386L57.7334 152.388L57.7086 152.388C55.9376 152.454 52.9939 150.627 50.3937 147.695C47.7898 144.758 46.3273 141.617 46.6051 139.867L46.6079 139.842L46.9723 136.837C46.9325 137.406 47.0129 138.068 47.2124 138.795C47.8147 140.98 49.4339 143.782 51.7987 146.449C54.1636 149.115 56.7482 151.054 58.8455 151.913C59.5433 152.198 60.1913 152.357 60.7606 152.386Z" fill="white" stroke="#4141AA" stroke-width="0.95269" stroke-miterlimit="10"/>
<path d="M63.0309 150.373L63.3953 147.367L63.3981 147.343C63.6689 145.599 62.2065 142.457 59.6063 139.525C57.006 136.593 54.073 134.763 52.2984 134.826L52.2343 134.823L49.2426 134.824C48.5807 134.788 48.0308 134.935 47.6294 135.291C47.2279 135.647 47.0095 136.182 46.9724 136.837C46.9326 137.406 47.0129 138.068 47.2125 138.795C47.8147 140.98 49.4339 143.782 51.7988 146.449C54.1637 149.115 56.7482 151.054 58.8455 151.913C59.5434 152.198 60.1913 152.357 60.7607 152.386C61.4157 152.427 61.9725 152.274 62.3739 151.918C62.7754 151.562 62.9869 151.034 63.0309 150.373Z" fill="white" stroke="#4141AA" stroke-width="0.95269" stroke-miterlimit="10"/>
<path d="M68.0161 143.444L65.3113 144.803L65.289 144.814C63.7358 145.668 60.2852 145.354 56.6463 143.899C53.0022 142.442 50.2867 140.29 49.7502 138.6L49.7416 138.577L48.72 135.728C48.9394 136.254 49.3081 136.81 49.8124 137.37C51.3304 139.053 54.034 140.832 57.3435 142.155C60.6531 143.479 63.8325 144.053 66.0924 143.88C66.844 143.822 67.4944 143.674 68.0161 143.444Z" fill="white" stroke="#4141AA" stroke-width="0.95269" stroke-miterlimit="10"/>
<path d="M69.1429 140.627L68.1212 137.778L68.1126 137.754C67.5727 136.074 64.8572 133.922 61.2183 132.467C57.5794 131.011 54.1373 130.691 52.579 131.542L52.5206 131.569L49.8467 132.911C49.2392 133.176 48.8135 133.554 48.6143 134.052C48.4151 134.55 48.4595 135.126 48.7201 135.728C48.9395 136.254 49.3082 136.81 49.8125 137.371C51.3305 139.054 54.0341 140.832 57.3437 142.156C60.6532 143.479 63.8326 144.053 66.0925 143.881C66.8441 143.823 67.4945 143.674 68.0162 143.445C68.6203 143.188 69.0494 142.802 69.2486 142.304C69.4479 141.805 69.4001 141.238 69.1429 140.627Z" fill="white" stroke="#4141AA" stroke-width="0.95269" stroke-miterlimit="10"/>
<path d="M70.4005 133.13L68.4421 135.438L68.4259 135.457C67.3297 136.849 64.0309 137.909 60.1127 137.992C56.1889 138.075 52.8483 137.155 51.6944 135.81L51.6774 135.792L49.6233 133.568C50.0309 133.967 50.5876 134.335 51.2707 134.653C53.3258 135.609 56.5095 136.19 60.073 136.114C63.6366 136.039 66.7874 135.325 68.8003 134.283C69.4694 133.936 70.01 133.545 70.4005 133.13Z" fill="white" stroke="#4141AA" stroke-width="0.95269" stroke-miterlimit="10"/>
<path d="M70.3366 130.096L68.2825 127.872L68.2655 127.854C67.1118 126.518 63.7712 125.599 59.8529 125.681C55.9347 125.764 52.6412 126.815 51.5396 128.207L51.4962 128.254L49.5594 130.535C49.1038 131.016 48.8596 131.53 48.871 132.067C48.8823 132.603 49.1482 133.116 49.6234 133.568C50.0311 133.967 50.5877 134.334 51.2709 134.653C53.3259 135.609 56.5097 136.189 60.0732 136.114C63.6367 136.039 66.7876 135.325 68.8004 134.283C69.4695 133.936 70.0102 133.545 70.4006 133.129C70.8564 132.657 71.1004 132.134 71.0891 131.597C71.0778 131.061 70.8121 130.558 70.3366 130.096Z" fill="white" stroke="#4141AA" stroke-width="0.95269" stroke-miterlimit="10"/>
<path d="M69.5339 124.499L68.0996 127.165L68.0876 127.186C67.3058 128.777 64.3002 130.501 60.4853 131.398C56.6649 132.297 53.206 132.094 51.7971 131.019L51.7767 131.005L49.3043 129.258C49.7861 129.563 50.4071 129.806 51.1417 129.976C53.3508 130.482 56.5856 130.386 60.0552 129.57C63.5249 128.754 66.4577 127.399 68.2092 125.96C68.7913 125.481 69.2386 124.986 69.5339 124.499Z" fill="white" stroke="#4141AA" stroke-width="0.95269" stroke-miterlimit="10"/>
<path d="M68.8392 121.546L66.3668 119.799L66.3464 119.785C64.9396 118.719 61.4807 118.515 57.6658 119.413C53.8508 120.31 50.8486 122.024 50.0613 123.616L50.0287 123.671L48.6096 126.305C48.2644 126.87 48.1327 127.424 48.2556 127.946C48.3784 128.469 48.7453 128.915 49.3045 129.258C49.7862 129.563 50.4073 129.807 51.1418 129.976C53.351 130.483 56.5858 130.387 60.0554 129.571C63.525 128.754 66.4578 127.399 68.2094 125.961C68.7914 125.482 69.2388 124.987 69.5341 124.499C69.8814 123.942 70.011 123.38 69.8881 122.857C69.7652 122.335 69.4005 121.898 68.8392 121.546Z" fill="white" stroke="#4141AA" stroke-width="0.95269" stroke-miterlimit="10"/>
<path d="M67.6713 117.52L66.4403 120.285L66.43 120.308C65.7693 121.952 62.9011 123.896 59.164 125.077C55.4215 126.258 51.9571 126.315 50.4718 125.348L50.4503 125.335L47.8542 123.778C48.3574 124.046 48.995 124.243 49.7401 124.357C51.981 124.697 55.1996 124.359 58.5984 123.286C61.9973 122.212 64.8205 120.642 66.4596 119.076C67.0042 118.555 67.4132 118.028 67.6713 117.52Z" fill="white" stroke="#4141AA" stroke-width="0.95269" stroke-miterlimit="10"/>
<path d="M66.7575 114.627L64.1614 113.07L64.14 113.057C62.6574 112.099 59.193 112.155 55.4559 113.335C51.7187 114.516 48.853 116.449 48.187 118.095L48.1587 118.153L46.9405 120.885C46.6385 121.475 46.5486 122.037 46.7102 122.549C46.8718 123.061 47.271 123.478 47.8543 123.779C48.3575 124.047 48.995 124.243 49.7402 124.357C51.981 124.697 55.1996 124.36 58.5985 123.286C61.9973 122.213 64.8206 120.642 66.4596 119.077C67.0042 118.555 67.4133 118.028 67.6713 117.52C67.976 116.939 68.0632 116.368 67.9016 115.856C67.74 115.345 67.3436 114.936 66.7575 114.627Z" fill="white" stroke="#4141AA" stroke-width="0.95269" stroke-miterlimit="10"/>
<path d="M65.8185 111.698L64.5003 114.423L64.4893 114.445C63.7766 116.068 60.848 117.919 57.0752 118.98C53.297 120.042 49.8326 119.988 48.3788 118.975L48.3577 118.961L45.8125 117.323C46.3069 117.607 46.9379 117.823 47.679 117.961C49.9079 118.372 53.1356 118.137 56.5669 117.172C59.9982 116.207 62.87 114.727 64.558 113.215C65.1189 112.711 65.5445 112.197 65.8185 111.698Z" fill="white" stroke="#4141AA" stroke-width="0.95269" stroke-miterlimit="10"/>
<path d="M64.9975 108.777L62.4523 107.138L62.4312 107.125C60.9799 106.12 57.5154 106.066 53.7426 107.127C49.9698 108.188 47.0441 110.029 46.3261 111.653L46.2959 111.71L44.9915 114.402C44.6709 114.982 44.5631 115.541 44.7084 116.057C44.8536 116.574 45.2393 117.004 45.8128 117.323C46.3072 117.607 46.9381 117.823 47.6793 117.961C49.9082 118.372 53.1359 118.137 56.5672 117.172C59.9984 116.208 62.8702 114.728 64.5582 113.215C65.1191 112.711 65.5448 112.198 65.8188 111.698C66.1419 111.127 66.2471 110.559 66.1019 110.042C65.9566 109.526 65.5734 109.105 64.9975 108.777Z" fill="white" stroke="#4141AA" stroke-width="0.95269" stroke-miterlimit="10"/>
<path d="M64.6416 107.578L62.7616 109.951L62.746 109.97C61.6971 111.399 58.4356 112.569 54.5223 112.782C50.6035 112.996 47.234 112.189 46.0357 110.884L46.0181 110.866L43.8907 108.712C44.3115 109.097 44.8801 109.446 45.5736 109.742C47.6595 110.628 50.8608 111.102 54.4199 110.907C57.9789 110.713 61.1041 109.893 63.0809 108.785C63.738 108.415 64.2653 108.007 64.6416 107.578Z" fill="white" stroke="#4141AA" stroke-width="0.95269" stroke-miterlimit="10"/>
<path d="M64.4762 104.548L62.3489 102.395L62.3313 102.377C61.1335 101.081 57.764 100.273 53.8507 100.487C49.9374 100.701 46.681 101.861 45.6265 103.29L45.5848 103.339L43.7254 105.682C43.2862 106.179 43.0593 106.701 43.0886 107.236C43.1179 107.772 43.4007 108.276 43.8909 108.712C44.3117 109.097 44.8803 109.446 45.5738 109.741C47.6596 110.628 50.861 111.101 54.42 110.907C57.9791 110.712 61.1043 109.893 63.0811 108.784C63.7382 108.415 64.2655 108.006 64.6418 107.578C65.0815 107.091 65.3078 106.56 65.2786 106.024C65.2493 105.488 64.9669 104.994 64.4762 104.548Z" fill="white" stroke="#4141AA" stroke-width="0.95269" stroke-miterlimit="10"/>
<path d="M63.261 107.724L60.312 108.407L60.2877 108.413C58.577 108.876 55.2977 107.757 52.1044 105.485C48.9066 103.21 46.775 100.479 46.6519 98.7106L46.649 98.6859L46.328 95.6758C46.4172 96.2388 46.6445 96.8661 47.0024 97.5295C48.0808 99.5229 50.2889 101.889 53.1931 103.955C56.0974 106.022 59.0518 107.329 61.2886 107.694C62.0327 107.815 62.6998 107.824 63.261 107.724Z" fill="white" stroke="#4141AA" stroke-width="0.95269" stroke-miterlimit="10"/>
<path d="M65.0203 105.252L64.6993 102.242L64.6964 102.217C64.5679 100.456 62.4363 97.7248 59.243 95.4528C56.0498 93.1807 52.7803 92.0579 51.0652 92.5178L51.0022 92.5298L48.0873 93.2034C47.4344 93.3178 46.9317 93.5846 46.6206 94.0218C46.3095 94.459 46.217 95.0289 46.3282 95.6758C46.4174 96.2388 46.6447 96.866 47.0026 97.5295C48.081 99.523 50.2891 101.889 53.1933 103.955C56.0976 106.022 59.052 107.329 61.2888 107.694C62.0329 107.815 62.7 107.824 63.2612 107.724C63.9087 107.617 64.4169 107.343 64.7279 106.906C65.039 106.468 65.1262 105.906 65.0203 105.252Z" fill="white" stroke="#4141AA" stroke-width="0.95269" stroke-miterlimit="10"/>
<path d="M62.8842 107.204L60.0778 106.069L60.0548 106.059C58.3886 105.455 56.3471 102.656 55.0389 98.9615C53.7288 95.2619 53.5534 91.8016 54.4684 90.2838L54.4803 90.2619L55.9469 87.6138C55.6964 88.1259 55.5221 88.7698 55.4339 89.5185C55.1713 91.7697 55.6192 94.9747 56.8091 98.3346C57.9989 101.694 59.6659 104.462 61.2868 106.046C61.8265 106.572 62.3673 106.963 62.8842 107.204Z" fill="white" stroke="#4141AA" stroke-width="0.95269" stroke-miterlimit="10"/>
<path d="M65.7445 106.191L67.2111 103.543L67.223 103.521C68.1292 102.006 67.9539 98.5456 66.6457 94.8513C65.3374 91.157 63.3065 88.3596 61.6384 87.7506L61.58 87.7243L58.8072 86.6009C58.2071 86.3195 57.6423 86.249 57.1366 86.4281C56.6308 86.6072 56.2276 87.0205 55.947 87.6138C55.6965 88.1259 55.5221 88.7699 55.434 89.5185C55.1713 91.7697 55.6193 94.9748 56.8091 98.3347C57.999 101.695 59.666 104.462 61.2869 106.046C61.8265 106.573 62.3673 106.963 62.8842 107.204C63.4757 107.488 64.0492 107.556 64.5549 107.376C65.0607 107.197 65.4552 106.787 65.7445 106.191Z" fill="white" stroke="#4141AA" stroke-width="0.95269" stroke-miterlimit="10"/>
</svg>
