<svg width="65" height="24" viewBox="0 0 65 24" fill="none" xmlns="http://www.w3.org/2000/svg">
<rect x="1" y="1.98901" width="63" height="20" rx="10" fill="url(#paint0_linear_40_2567)"/>
<rect x="1" y="1.98901" width="63" height="20" rx="10" stroke="#A79BB7" stroke-width="3" stroke-linejoin="round"/>
<path d="M9.34375 7.39917H12.5137C13.2285 7.39917 13.7734 7.45386 14.1484 7.56323C14.6523 7.71167 15.084 7.97534 15.4434 8.35425C15.8027 8.73315 16.0762 9.198 16.2637 9.74878C16.4512 10.2957 16.5449 10.9714 16.5449 11.7761C16.5449 12.4832 16.457 13.0925 16.2812 13.6042C16.0664 14.2292 15.7598 14.7351 15.3613 15.1218C15.0605 15.4148 14.6543 15.6433 14.1426 15.8074C13.7598 15.9285 13.248 15.989 12.6074 15.989H9.34375V7.39917ZM11.0781 8.85229V14.5417H12.373C12.8574 14.5417 13.207 14.5144 13.4219 14.4597C13.7031 14.3894 13.9355 14.2703 14.1191 14.1023C14.3066 13.9343 14.459 13.6589 14.5762 13.2761C14.6934 12.8894 14.752 12.364 14.752 11.7C14.752 11.0359 14.6934 10.5261 14.5762 10.1707C14.459 9.81519 14.2949 9.53784 14.084 9.33862C13.873 9.1394 13.6055 9.00464 13.2812 8.93433C13.0391 8.87964 12.5645 8.85229 11.8574 8.85229H11.0781ZM18.0391 15.989V7.39917H19.7266L23.2422 13.1355V7.39917H24.8535V15.989H23.1133L19.6504 10.3875V15.989H18.0391ZM34.4395 15.989H32.5527L31.8027 14.0378H28.3691L27.6602 15.989H25.8203L29.166 7.39917H31L34.4395 15.989ZM31.2461 12.5906L30.0625 9.40308L28.9023 12.5906H31.2461ZM38.4648 7.39917H40.1934V12.8367C40.1934 13.5476 40.1309 14.0945 40.0059 14.4773C39.8379 14.9773 39.5332 15.3796 39.0918 15.6843C38.6504 15.9851 38.0684 16.1355 37.3457 16.1355C36.498 16.1355 35.8457 15.8992 35.3887 15.4265C34.9316 14.95 34.7012 14.2527 34.6973 13.3347L36.332 13.1472C36.3516 13.6394 36.4238 13.9871 36.5488 14.1902C36.7363 14.4988 37.0215 14.6531 37.4043 14.6531C37.791 14.6531 38.0645 14.5437 38.2246 14.325C38.3848 14.1023 38.4648 13.6433 38.4648 12.948V7.39917ZM49.791 15.989H47.9043L47.1543 14.0378H43.7207L43.0117 15.989H41.1719L44.5176 7.39917H46.3516L49.791 15.989ZM46.5977 12.5906L45.4141 9.40308L44.2539 12.5906H46.5977ZM54.5664 15.989H52.9199V9.78394C52.3184 10.3464 51.6094 10.7625 50.793 11.032V9.53784C51.2227 9.39722 51.6895 9.13159 52.1934 8.74097C52.6973 8.34644 53.043 7.88745 53.2305 7.36401H54.5664V15.989Z" fill="white"/>
<defs>
<linearGradient id="paint0_linear_40_2567" x1="32.5" y1="1.98901" x2="32.5" y2="21.989" gradientUnits="userSpaceOnUse">
<stop stop-color="#A79BB7"/>
<stop offset="1" stop-color="#FF57B9"/>
</linearGradient>
</defs>
</svg>
