<svg width="40" height="40" viewBox="0 0 40 40" fill="none" xmlns="http://www.w3.org/2000/svg">
<path d="M20.2146 1.03491C30.5492 1.03515 38.9568 9.44328 38.9568 19.7791C38.9565 30.1147 30.549 38.521 20.2146 38.5212C9.87883 38.5212 1.4707 30.1136 1.47046 19.7791C1.47046 9.44423 9.87854 1.03491 20.2146 1.03491Z" fill="url(#paint0_radial_97_5655)" stroke="#006E87"/>
<path d="M7.84351 23.5349V14.9451H14.2126V16.3982H9.57788V18.3025H13.8904V19.7498H9.57788V22.0876H14.3767V23.5349H7.84351ZM15.8474 23.5349V14.9451H18.6306C19.6853 14.9451 20.3728 14.988 20.6931 15.074C21.1853 15.2029 21.5974 15.4841 21.9294 15.9177C22.2615 16.3474 22.4275 16.9041 22.4275 17.5876C22.4275 18.115 22.3318 18.5583 22.1404 18.9177C21.949 19.2771 21.7048 19.5603 21.408 19.7673C21.115 19.9705 20.8162 20.1052 20.5115 20.1716C20.0974 20.2537 19.4978 20.2947 18.7126 20.2947H17.5818V23.5349H15.8474ZM17.5818 16.3982V18.8357H18.531C19.2146 18.8357 19.6716 18.7908 19.9021 18.7009C20.1326 18.6111 20.3123 18.4705 20.4412 18.2791C20.574 18.0876 20.6404 17.865 20.6404 17.6111C20.6404 17.2986 20.5486 17.0408 20.365 16.8376C20.1814 16.6345 19.949 16.5076 19.6677 16.4568C19.4607 16.4177 19.0447 16.3982 18.4197 16.3982H17.5818ZM23.4998 19.2927C23.4998 18.4177 23.6306 17.6833 23.8923 17.0896C24.0876 16.6521 24.3533 16.2595 24.6892 15.9119C25.0291 15.5642 25.4001 15.3064 25.8025 15.1384C26.3376 14.9119 26.9548 14.7986 27.6541 14.7986C28.9197 14.7986 29.9314 15.1912 30.6892 15.9763C31.4509 16.7615 31.8318 17.8533 31.8318 19.2517C31.8318 20.6384 31.4548 21.7244 30.7009 22.5095C29.947 23.2908 28.9392 23.6814 27.6775 23.6814C26.4001 23.6814 25.3845 23.2927 24.6306 22.5154C23.8767 21.7341 23.4998 20.6599 23.4998 19.2927ZM25.2869 19.2341C25.2869 20.2068 25.5115 20.9451 25.9607 21.449C26.4099 21.949 26.9802 22.199 27.6716 22.199C28.363 22.199 28.9294 21.9509 29.3708 21.4548C29.8162 20.9548 30.0388 20.2068 30.0388 19.2107C30.0388 18.2263 29.822 17.4919 29.3884 17.0076C28.9587 16.5232 28.3865 16.281 27.6716 16.281C26.9568 16.281 26.3806 16.5271 25.9431 17.0193C25.5056 17.5076 25.2869 18.2458 25.2869 19.2341Z" fill="white"/>
<defs>
<radialGradient id="paint0_radial_97_5655" cx="0" cy="0" r="1" gradientUnits="userSpaceOnUse" gradientTransform="translate(12.2596 10.3216) rotate(180) scale(17.472)">
<stop stop-color="#A1EDFF"/>
<stop offset="0.0801" stop-color="#82DCF1"/>
<stop offset="0.1818" stop-color="#63CAE3"/>
<stop offset="0.2927" stop-color="#48BCD7"/>
<stop offset="0.4143" stop-color="#34B1CE"/>
<stop offset="0.552" stop-color="#26A9C8"/>
<stop offset="0.7193" stop-color="#1EA4C4"/>
<stop offset="1" stop-color="#1BA3C3"/>
</radialGradient>
</defs>
</svg>
