<svg width="56" height="24" viewBox="0 0 56 24" fill="none" xmlns="http://www.w3.org/2000/svg">
<rect x="2" y="1.98901" width="53" height="20" rx="10" fill="url(#paint0_linear_45_4235)"/>
<rect x="2" y="1.98901" width="53" height="20" rx="10" stroke="#FF9914" stroke-width="3" stroke-linejoin="round"/>
<path d="M14.3555 12.8308V11.3835H18.0938V14.8054C17.7305 15.157 17.2031 15.4675 16.5117 15.7371C15.8242 16.0027 15.127 16.1355 14.4199 16.1355C13.5215 16.1355 12.7383 15.948 12.0703 15.573C11.4023 15.1941 10.9004 14.655 10.5645 13.9558C10.2285 13.2527 10.0605 12.489 10.0605 11.6648C10.0605 10.7703 10.248 9.97534 10.623 9.28003C10.998 8.58472 11.5469 8.05151 12.2695 7.68042C12.8203 7.39526 13.5059 7.25269 14.3262 7.25269C15.3926 7.25269 16.2246 7.47729 16.8223 7.92651C17.4238 8.37183 17.8105 8.98901 17.9824 9.77808L16.2598 10.1003C16.1387 9.67847 15.9102 9.34644 15.5742 9.10425C15.2422 8.85815 14.8262 8.73511 14.3262 8.73511C13.5684 8.73511 12.9648 8.97534 12.5156 9.45581C12.0703 9.93628 11.8477 10.6492 11.8477 11.5945C11.8477 12.614 12.0742 13.3796 12.5273 13.8914C12.9805 14.3992 13.5742 14.6531 14.3086 14.6531C14.6719 14.6531 15.0352 14.5828 15.3984 14.4421C15.7656 14.2976 16.0801 14.1238 16.3418 13.9207V12.8308H14.3555ZM19.5 13.698V12.0515H22.7344V13.698H19.5ZM23.6133 15.989V7.39917H25.2598V10.4929C25.7676 9.91479 26.3691 9.62573 27.0645 9.62573C27.8223 9.62573 28.4492 9.90112 28.9453 10.4519C29.4414 10.9988 29.6895 11.7859 29.6895 12.8132C29.6895 13.8757 29.4355 14.6941 28.9277 15.2683C28.4238 15.8425 27.8105 16.1296 27.0879 16.1296C26.7324 16.1296 26.3809 16.0417 26.0332 15.866C25.6895 15.6863 25.3926 15.4226 25.1426 15.075V15.989H23.6133ZM25.248 12.7429C25.248 13.3875 25.3496 13.864 25.5527 14.1726C25.8379 14.6101 26.2168 14.8289 26.6895 14.8289C27.0527 14.8289 27.3613 14.6746 27.6152 14.366C27.873 14.0535 28.002 13.5632 28.002 12.8953C28.002 12.1843 27.873 11.6726 27.6152 11.3601C27.3574 11.0437 27.0273 10.8855 26.625 10.8855C26.2305 10.8855 25.9023 11.0398 25.6406 11.3484C25.3789 11.6531 25.248 12.1179 25.248 12.7429ZM34.623 14.0085L36.2637 14.2839C36.0527 14.8855 35.7188 15.3445 35.2617 15.6609C34.8086 15.9734 34.2402 16.1296 33.5566 16.1296C32.4746 16.1296 31.6738 15.7761 31.1543 15.0691C30.7441 14.5027 30.5391 13.7878 30.5391 12.9246C30.5391 11.8933 30.8086 11.0867 31.3477 10.5046C31.8867 9.9187 32.5684 9.62573 33.3926 9.62573C34.3184 9.62573 35.0488 9.93237 35.584 10.5457C36.1191 11.155 36.375 12.0906 36.3516 13.3523H32.2266C32.2383 13.8406 32.3711 14.2214 32.625 14.4949C32.8789 14.7644 33.1953 14.8992 33.5742 14.8992C33.832 14.8992 34.0488 14.8289 34.2246 14.6882C34.4004 14.5476 34.5332 14.321 34.623 14.0085ZM34.7168 12.3445C34.7051 11.8679 34.582 11.5066 34.3477 11.2605C34.1133 11.0105 33.8281 10.8855 33.4922 10.8855C33.1328 10.8855 32.8359 11.0164 32.6016 11.2781C32.3672 11.5398 32.252 11.8953 32.2559 12.3445H34.7168ZM40.5527 9.76636V11.0789H39.4277V13.5867C39.4277 14.0945 39.4375 14.3914 39.457 14.4773C39.4805 14.5593 39.5293 14.6277 39.6035 14.6824C39.6816 14.7371 39.7754 14.7644 39.8848 14.7644C40.0371 14.7644 40.2578 14.7117 40.5469 14.6062L40.6875 15.8835C40.3047 16.0476 39.8711 16.1296 39.3867 16.1296C39.0898 16.1296 38.8223 16.0808 38.584 15.9832C38.3457 15.8816 38.1699 15.7527 38.0566 15.5964C37.9473 15.4363 37.8711 15.2214 37.8281 14.9519C37.793 14.7605 37.7754 14.3738 37.7754 13.7917V11.0789H37.0195V9.76636H37.7754V8.53003L39.4277 7.56909V9.76636H40.5527ZM42.9258 11.6648L41.4316 11.3953C41.5996 10.7937 41.8887 10.3484 42.2988 10.0593C42.709 9.77026 43.3184 9.62573 44.127 9.62573C44.8613 9.62573 45.4082 9.71362 45.7676 9.8894C46.127 10.0613 46.3789 10.282 46.5234 10.5515C46.6719 10.8171 46.7461 11.3074 46.7461 12.0222L46.7285 13.9441C46.7285 14.491 46.7539 14.8953 46.8047 15.157C46.8594 15.4148 46.959 15.6921 47.1035 15.989H45.4746C45.4316 15.8796 45.3789 15.7175 45.3164 15.5027C45.2891 15.405 45.2695 15.3406 45.2578 15.3093C44.9766 15.5828 44.6758 15.7878 44.3555 15.9246C44.0352 16.0613 43.6934 16.1296 43.3301 16.1296C42.6895 16.1296 42.1836 15.9558 41.8125 15.6082C41.4453 15.2605 41.2617 14.821 41.2617 14.2898C41.2617 13.9382 41.3457 13.6257 41.5137 13.3523C41.6816 13.075 41.916 12.864 42.2168 12.7195C42.5215 12.571 42.959 12.4421 43.5293 12.3328C44.2988 12.1882 44.832 12.0535 45.1289 11.9285V11.7644C45.1289 11.448 45.0508 11.2234 44.8945 11.0906C44.7383 10.9539 44.4434 10.8855 44.0098 10.8855C43.7168 10.8855 43.4883 10.9441 43.3242 11.0613C43.1602 11.1746 43.0273 11.3757 42.9258 11.6648ZM45.1289 13.0007C44.918 13.071 44.584 13.155 44.127 13.2527C43.6699 13.3503 43.3711 13.446 43.2305 13.5398C43.0156 13.6921 42.9082 13.8855 42.9082 14.1199C42.9082 14.3503 42.9941 14.5496 43.166 14.7175C43.3379 14.8855 43.5566 14.9695 43.8223 14.9695C44.1191 14.9695 44.4023 14.8718 44.6719 14.6765C44.8711 14.5281 45.002 14.3464 45.0645 14.1316C45.1074 13.991 45.1289 13.7234 45.1289 13.3289V13.0007Z" fill="white"/>
<defs>
<linearGradient id="paint0_linear_45_4235" x1="28.5" y1="1.98901" x2="28.5" y2="21.989" gradientUnits="userSpaceOnUse">
<stop stop-color="#FF9914"/>
<stop offset="1" stop-color="#E263E2"/>
</linearGradient>
</defs>
</svg>
