<svg width="52" height="24" viewBox="0 0 52 24" fill="none" xmlns="http://www.w3.org/2000/svg">
<rect x="2" y="1.98901" width="49" height="20" rx="10" fill="url(#paint0_linear_45_4255)"/>
<rect x="2" y="1.98901" width="49" height="20" rx="10" stroke="#001369" stroke-width="3" stroke-linejoin="round"/>
<path d="M14.0254 12.8308V11.3835H17.7637V14.8054C17.4004 15.157 16.873 15.4675 16.1816 15.7371C15.4941 16.0027 14.7969 16.1355 14.0898 16.1355C13.1914 16.1355 12.4082 15.948 11.7402 15.573C11.0723 15.1941 10.5703 14.655 10.2344 13.9558C9.89844 13.2527 9.73047 12.489 9.73047 11.6648C9.73047 10.7703 9.91797 9.97534 10.293 9.28003C10.668 8.58472 11.2168 8.05151 11.9395 7.68042C12.4902 7.39526 13.1758 7.25269 13.9961 7.25269C15.0625 7.25269 15.8945 7.47729 16.4922 7.92651C17.0938 8.37183 17.4805 8.98901 17.6523 9.77808L15.9297 10.1003C15.8086 9.67847 15.5801 9.34644 15.2441 9.10425C14.9121 8.85815 14.4961 8.73511 13.9961 8.73511C13.2383 8.73511 12.6348 8.97534 12.1855 9.45581C11.7402 9.93628 11.5176 10.6492 11.5176 11.5945C11.5176 12.614 11.7441 13.3796 12.1973 13.8914C12.6504 14.3992 13.2441 14.6531 13.9785 14.6531C14.3418 14.6531 14.7051 14.5828 15.0684 14.4421C15.4355 14.2976 15.75 14.1238 16.0117 13.9207V12.8308H14.0254ZM19.3926 15.989V7.39917H21.127V11.2136L24.6309 7.39917H26.9629L23.7285 10.7449L27.1387 15.989H24.8945L22.5332 11.9578L21.127 13.3933V15.989H19.3926ZM35.7871 15.989H33.9004L33.1504 14.0378H29.7168L29.0078 15.989H27.168L30.5137 7.39917H32.3477L35.7871 15.989ZM32.5938 12.5906L31.4102 9.40308L30.25 12.5906H32.5938ZM36.7129 15.989V7.39917H39.4961C40.5508 7.39917 41.2383 7.44214 41.5586 7.52808C42.0508 7.65698 42.4629 7.93823 42.7949 8.37183C43.127 8.80151 43.293 9.35815 43.293 10.0417C43.293 10.5691 43.1973 11.0125 43.0059 11.3718C42.8145 11.7312 42.5703 12.0144 42.2734 12.2214C41.9805 12.4246 41.6816 12.5593 41.377 12.6257C40.9629 12.7078 40.3633 12.7488 39.5781 12.7488H38.4473V15.989H36.7129ZM38.4473 8.85229V11.2898H39.3965C40.0801 11.2898 40.5371 11.2449 40.7676 11.155C40.998 11.0652 41.1777 10.9246 41.3066 10.7332C41.4395 10.5417 41.5059 10.3191 41.5059 10.0652C41.5059 9.75269 41.4141 9.49487 41.2305 9.29175C41.0469 9.08862 40.8145 8.96167 40.5332 8.91089C40.3262 8.87183 39.9102 8.85229 39.2852 8.85229H38.4473Z" fill="white"/>
<defs>
<linearGradient id="paint0_linear_45_4255" x1="26.5" y1="1.98901" x2="26.5" y2="21.989" gradientUnits="userSpaceOnUse">
<stop stop-color="#001369"/>
<stop offset="1" stop-color="#FF5200"/>
</linearGradient>
</defs>
</svg>
