<svg width="50" height="24" viewBox="0 0 50 24" fill="none" xmlns="http://www.w3.org/2000/svg">
<rect x="2" y="1.98901" width="47" height="20" rx="10" fill="url(#paint0_linear_65_1991)"/>
<rect x="2" y="1.98901" width="47" height="20" rx="10" stroke="#8D7BFF" stroke-width="3" stroke-linejoin="round"/>
<path d="M10.0312 15.989V7.39917H12.8145C13.8691 7.39917 14.5566 7.44214 14.877 7.52808C15.3691 7.65698 15.7812 7.93823 16.1133 8.37183C16.4453 8.80151 16.6113 9.35815 16.6113 10.0417C16.6113 10.5691 16.5156 11.0125 16.3242 11.3718C16.1328 11.7312 15.8887 12.0144 15.5918 12.2214C15.2988 12.4246 15 12.5593 14.6953 12.6257C14.2812 12.7078 13.6816 12.7488 12.8965 12.7488H11.7656V15.989H10.0312ZM11.7656 8.85229V11.2898H12.7148C13.3984 11.2898 13.8555 11.2449 14.0859 11.155C14.3164 11.0652 14.4961 10.9246 14.625 10.7332C14.7578 10.5417 14.8242 10.3191 14.8242 10.0652C14.8242 9.75269 14.7324 9.49487 14.5488 9.29175C14.3652 9.08862 14.1328 8.96167 13.8516 8.91089C13.6445 8.87183 13.2285 8.85229 12.6035 8.85229H11.7656ZM18.082 15.989V7.46948H19.8164V14.5417H24.1289V15.989H18.082ZM30.8672 12.8308L32.5488 13.364C32.291 14.3015 31.8613 14.9988 31.2598 15.4558C30.6621 15.9089 29.9023 16.1355 28.9805 16.1355C27.8398 16.1355 26.9023 15.7468 26.168 14.9695C25.4336 14.1882 25.0664 13.1218 25.0664 11.7703C25.0664 10.3406 25.4355 9.2312 26.1738 8.44214C26.9121 7.64917 27.8828 7.25269 29.0859 7.25269C30.1367 7.25269 30.9902 7.56323 31.6465 8.18433C32.0371 8.55151 32.3301 9.07886 32.5254 9.76636L30.8086 10.1765C30.707 9.7312 30.4941 9.37964 30.1699 9.12183C29.8496 8.86401 29.459 8.73511 28.998 8.73511C28.3613 8.73511 27.8438 8.96362 27.4453 9.42065C27.0508 9.87769 26.8535 10.6179 26.8535 11.6414C26.8535 12.7273 27.0488 13.5007 27.4395 13.9617C27.8301 14.4226 28.3379 14.6531 28.9629 14.6531C29.4238 14.6531 29.8203 14.5066 30.1523 14.2136C30.4844 13.9207 30.7227 13.4597 30.8672 12.8308ZM34.0488 7.39917H37.4824C38.1621 7.39917 38.668 7.42847 39 7.48706C39.3359 7.54175 39.6348 7.65894 39.8965 7.83862C40.1621 8.01831 40.3828 8.25854 40.5586 8.55933C40.7344 8.8562 40.8223 9.19019 40.8223 9.56128C40.8223 9.96362 40.7129 10.3328 40.4941 10.6687C40.2793 11.0046 39.9863 11.2566 39.6152 11.4246C40.1387 11.5769 40.541 11.8367 40.8223 12.2039C41.1035 12.571 41.2441 13.0027 41.2441 13.4988C41.2441 13.8894 41.1523 14.2703 40.9688 14.6414C40.7891 15.0085 40.541 15.3035 40.2246 15.5261C39.9121 15.7449 39.5254 15.8796 39.0645 15.9304C38.7754 15.9617 38.0781 15.9812 36.9727 15.989H34.0488V7.39917ZM35.7832 8.82886V10.8152H36.9199C37.5957 10.8152 38.0156 10.8054 38.1797 10.7859C38.4766 10.7507 38.709 10.6492 38.877 10.4812C39.0488 10.3093 39.1348 10.0847 39.1348 9.80737C39.1348 9.54175 39.0605 9.3269 38.9121 9.16284C38.7676 8.99487 38.5508 8.89331 38.2617 8.85815C38.0898 8.83862 37.5957 8.82886 36.7793 8.82886H35.7832ZM35.7832 12.2449V14.5417H37.3887C38.0137 14.5417 38.4102 14.5242 38.5781 14.489C38.8359 14.4421 39.0449 14.3289 39.2051 14.1492C39.3691 13.9656 39.4512 13.7214 39.4512 13.4167C39.4512 13.1589 39.3887 12.9402 39.2637 12.7605C39.1387 12.5808 38.957 12.45 38.7188 12.3679C38.4844 12.2859 37.9727 12.2449 37.1836 12.2449H35.7832Z" fill="white"/>
<defs>
<linearGradient id="paint0_linear_65_1991" x1="25.5" y1="1.98901" x2="25.5" y2="21.989" gradientUnits="userSpaceOnUse">
<stop stop-color="#8D7BFF"/>
<stop offset="1" stop-color="#D96E60"/>
</linearGradient>
</defs>
</svg>
