<svg width="99" height="102" viewBox="0 0 99 102" fill="none" xmlns="http://www.w3.org/2000/svg">
<path d="M42.9656 101.132C40.2044 101.132 37.9656 98.8937 37.9656 96.132V34.8762C37.9656 24.1155 31.4597 15.2414 31.3938 15.1545C29.7244 12.9553 30.1545 9.81861 32.3543 8.14861C34.553 6.47971 37.6907 6.91031 39.3597 9.10951C39.7113 9.57241 47.9657 20.6134 47.9657 34.8761V96.132C47.9656 98.8938 45.7268 101.132 42.9656 101.132Z" fill="#CE5A36"/>
<path d="M30.7684 101.132C28.0072 101.132 25.7684 98.8937 25.7684 96.132V50.8645C25.7684 39.3596 16.8026 35.3235 16.7118 35.2844C14.1801 34.1819 13.0209 31.2356 14.1229 28.7043C15.225 26.1711 18.1712 25.0148 20.703 26.1145C21.3182 26.3831 35.7684 32.8791 35.7684 50.8645V96.1321C35.7684 98.8938 33.5297 101.132 30.7684 101.132Z" fill="#CE5A36"/>
<path d="M18.5711 101.132C15.8099 101.132 13.5711 98.8937 13.5711 96.132V66.8527C13.5711 65.9269 13.3982 65.297 13.0569 64.9787C12.3928 64.3586 10.8469 64.2267 10.5183 64.256C7.76336 64.4337 5.37426 62.3712 5.18136 59.6164C4.98846 56.8625 7.06566 54.4728 9.82006 54.2795C10.4324 54.2385 15.9124 53.968 19.8767 57.6652C21.5622 59.2365 23.571 62.1056 23.571 66.8527V96.132C23.5711 98.8938 21.3323 101.132 18.5711 101.132Z" fill="#CE5A36"/>
<path d="M35.9328 18.174C35.5056 18.174 35.0715 18.1193 34.6389 18.0031L27.1662 16.0061C25.8791 15.6623 24.7829 14.8196 24.1198 13.6633C23.1525 11.9768 23.1872 9.91724 24.2126 8.15354C26.0348 5.01884 33.8317 0.546143 37.4699 0.546143C37.4748 0.546143 37.4792 0.546143 37.4836 0.546143C39.5236 0.552043 41.319 1.56374 42.2858 3.25024C42.9455 4.40064 43.1208 5.76584 42.7736 7.04614L40.7555 14.4826C40.1515 16.7082 38.1349 18.174 35.9328 18.174Z" fill="#CE5A36"/>
<path d="M12.2761 37.9435C11.3323 37.9435 10.3991 37.6759 9.5906 37.1613C7.9505 36.1164 7.0247 34.2765 7.1131 32.2384C7.2708 28.6095 12.1082 21.0128 15.3289 19.3351C17.138 18.3937 19.1976 18.4552 20.8367 19.4982C21.9554 20.2111 22.7449 21.338 23.0325 22.632L24.7024 30.1535C25.2991 32.842 23.6096 35.507 20.9236 36.1145L13.3787 37.8206C13.0139 37.9025 12.6443 37.9435 12.2761 37.9435Z" fill="#CE5A36"/>
<path d="M6.07835 69.7287C6.07245 69.7287 6.06715 69.7287 6.06175 69.7287C-0.034452 69.7082 -0.00805201 61.8283 0.000747988 59.2385C0.00664799 57.5207 0.136448 55.8742 0.367448 54.6028C1.31915 49.3635 4.68875 48.7893 6.11405 48.7893C6.11995 48.7893 6.12575 48.7893 6.13165 48.7893C7.45785 48.7942 8.72785 49.3245 9.66245 50.2659L15.0931 55.7327C17.034 57.6858 17.0296 60.8421 15.0828 62.7903L9.61555 68.263C8.67745 69.2014 7.40495 69.7287 6.07835 69.7287Z" fill="#CE5A36"/>
<path d="M55.1628 101.132C57.924 101.132 60.1628 98.8937 60.1628 96.132V34.8762C60.1628 24.1155 66.6687 15.2414 66.7346 15.1545C68.404 12.9553 67.9739 9.81861 65.7742 8.14861C63.5755 6.47971 60.4378 6.91031 58.7688 9.10951C58.4172 9.57241 50.1628 20.6134 50.1628 34.8761V96.132C50.1628 98.8938 52.4015 101.132 55.1628 101.132Z" fill="#CE5A36"/>
<path d="M67.3601 101.132C70.1213 101.132 72.3601 98.8937 72.3601 96.132V50.8645C72.3601 39.3596 81.3259 35.3235 81.4167 35.2844C83.9484 34.1819 85.1076 31.2356 84.0056 28.7043C82.9035 26.1711 79.9573 25.0148 77.4255 26.1145C76.8103 26.3831 62.3601 32.8791 62.3601 50.8645V96.1321C62.3601 98.8938 64.5989 101.132 67.3601 101.132Z" fill="#CE5A36"/>
<path d="M79.5574 101.132C82.3186 101.132 84.5574 98.8937 84.5574 96.132V66.8527C84.5574 65.9269 84.7303 65.297 85.0716 64.9787C85.7357 64.3586 87.2816 64.2267 87.6102 64.256C90.3651 64.4337 92.7542 62.3712 92.9471 59.6164C93.14 56.8625 91.0628 54.4728 88.3084 54.2795C87.6961 54.2385 82.2161 53.968 78.2518 57.6652C76.5663 59.2365 74.5575 62.1056 74.5575 66.8527V96.132C74.5574 98.8938 76.7962 101.132 79.5574 101.132Z" fill="#CE5A36"/>
<path d="M62.1956 18.174C62.6228 18.174 63.0569 18.1193 63.4895 18.0031L70.9622 16.006C72.2493 15.6622 73.3455 14.8195 74.0086 13.6632C74.9759 11.9767 74.9412 9.91714 73.9158 8.15344C72.0935 5.01884 64.2966 0.546143 60.6585 0.546143C60.6536 0.546143 60.6492 0.546143 60.6448 0.546143C58.6048 0.552043 56.8094 1.56374 55.8426 3.25024C55.1829 4.40064 55.0076 5.76584 55.3548 7.04614L57.3729 14.4826C57.9768 16.7082 59.9934 18.174 62.1956 18.174Z" fill="#CE5A36"/>
<path d="M85.8523 37.9435C86.7961 37.9435 87.7293 37.6759 88.5378 37.1613C90.1779 36.1164 91.1037 34.2765 91.0153 32.2384C90.8576 28.6095 86.0202 21.0128 82.7995 19.3351C80.9904 18.3937 78.9308 18.4552 77.2917 19.4982C76.173 20.2111 75.3835 21.338 75.0959 22.632L73.426 30.1535C72.8293 32.842 74.5188 35.507 77.2048 36.1145L84.7497 37.8206C85.1145 37.9025 85.4841 37.9435 85.8523 37.9435Z" fill="#CE5A36"/>
<path d="M92.0501 69.7287C92.056 69.7287 92.0613 69.7287 92.0667 69.7287C98.1629 69.7082 98.1365 61.8283 98.1277 59.2385C98.1218 57.5207 97.992 55.8742 97.761 54.6028C96.8093 49.3635 93.4397 48.7893 92.0144 48.7893C92.0085 48.7893 92.0027 48.7893 91.9968 48.7893C90.6706 48.7942 89.4006 49.3245 88.466 50.2659L83.0353 55.7327C81.0944 57.6858 81.0988 60.8421 83.0456 62.7903L88.5129 68.263C89.4509 69.2014 90.7234 69.7287 92.0501 69.7287Z" fill="#CE5A36"/>
</svg>
