<svg width="38" height="24" viewBox="0 0 38 24" fill="none" xmlns="http://www.w3.org/2000/svg">
<rect x="2" y="1.98901" width="35" height="20" rx="10" fill="url(#paint0_linear_50_1831)"/>
<rect x="2" y="1.98901" width="35" height="20" rx="10" stroke="#63A57C" stroke-width="3" stroke-linejoin="round"/>
<path d="M10.3125 15.989V7.39917H12.0469V15.989H10.3125ZM13.7109 15.989V7.39917H17.3613C18.2793 7.39917 18.9453 7.47729 19.3594 7.63354C19.7773 7.78589 20.1113 8.05933 20.3613 8.45386C20.6113 8.84839 20.7363 9.29956 20.7363 9.80737C20.7363 10.4519 20.5469 10.9851 20.168 11.407C19.7891 11.825 19.2227 12.0886 18.4688 12.198C18.8438 12.4167 19.1523 12.657 19.3945 12.9187C19.6406 13.1804 19.9707 13.6453 20.3848 14.3132L21.4336 15.989H19.3594L18.1055 14.1199C17.6602 13.4519 17.3555 13.032 17.1914 12.8601C17.0273 12.6843 16.8535 12.5652 16.6699 12.5027C16.4863 12.4363 16.1953 12.4031 15.7969 12.4031H15.4453V15.989H13.7109ZM15.4453 11.032H16.7285C17.5605 11.032 18.0801 10.9968 18.2871 10.9265C18.4941 10.8562 18.6562 10.7351 18.7734 10.5632C18.8906 10.3914 18.9492 10.1765 18.9492 9.9187C18.9492 9.62964 18.8711 9.39722 18.7148 9.22144C18.5625 9.04175 18.3457 8.92847 18.0645 8.88159C17.9238 8.86206 17.502 8.85229 16.7988 8.85229H15.4453V11.032ZM21.9375 13.1941L23.625 13.03C23.7266 13.5964 23.9316 14.0125 24.2402 14.2781C24.5527 14.5437 24.9727 14.6765 25.5 14.6765C26.0586 14.6765 26.4785 14.5593 26.7598 14.325C27.0449 14.0867 27.1875 13.8093 27.1875 13.4929C27.1875 13.2898 27.127 13.1179 27.0059 12.9773C26.8887 12.8328 26.6816 12.7078 26.3848 12.6023C26.1816 12.532 25.7188 12.407 24.9961 12.2273C24.0664 11.9968 23.4141 11.7136 23.0391 11.3777C22.5117 10.905 22.248 10.3289 22.248 9.64917C22.248 9.21167 22.3711 8.80347 22.6172 8.42456C22.8672 8.04175 23.2246 7.75073 23.6895 7.55151C24.1582 7.35229 24.7227 7.25269 25.3828 7.25269C26.4609 7.25269 27.2715 7.48901 27.8145 7.96167C28.3613 8.43433 28.6484 9.06519 28.6758 9.85425L26.9414 9.93042C26.8672 9.48901 26.707 9.17261 26.4609 8.9812C26.2188 8.78589 25.8535 8.68823 25.3652 8.68823C24.8613 8.68823 24.4668 8.79175 24.1816 8.99878C23.998 9.13159 23.9062 9.30933 23.9062 9.53198C23.9062 9.73511 23.9922 9.90894 24.1641 10.0535C24.3828 10.2371 24.9141 10.4285 25.7578 10.6277C26.6016 10.8269 27.2246 11.0339 27.627 11.2488C28.0332 11.4597 28.3496 11.7507 28.5762 12.1218C28.8066 12.489 28.9219 12.9441 28.9219 13.4871C28.9219 13.9792 28.7852 14.4402 28.5117 14.8699C28.2383 15.2996 27.8516 15.6199 27.3516 15.8308C26.8516 16.0378 26.2285 16.1414 25.4824 16.1414C24.3965 16.1414 23.5625 15.8914 22.9805 15.3914C22.3984 14.8875 22.0508 14.155 21.9375 13.1941Z" fill="white"/>
<defs>
<linearGradient id="paint0_linear_50_1831" x1="19.5" y1="1.98901" x2="19.5" y2="21.989" gradientUnits="userSpaceOnUse">
<stop stop-color="#63A57C"/>
<stop offset="1" stop-color="#174127"/>
</linearGradient>
</defs>
</svg>
