<svg width="58" height="24" viewBox="0 0 58 24" fill="none" xmlns="http://www.w3.org/2000/svg">
<rect x="2" y="1.98901" width="55" height="20" rx="10" fill="url(#paint0_linear_64_1972)"/>
<rect x="2" y="1.98901" width="55" height="20" rx="10" stroke="#537BFF" stroke-width="3" stroke-linejoin="round"/>
<path d="M10.3574 15.989V7.39917H13.1406C14.1953 7.39917 14.8828 7.44214 15.2031 7.52808C15.6953 7.65698 16.1074 7.93823 16.4395 8.37183C16.7715 8.80151 16.9375 9.35815 16.9375 10.0417C16.9375 10.5691 16.8418 11.0125 16.6504 11.3718C16.459 11.7312 16.2148 12.0144 15.918 12.2214C15.625 12.4246 15.3262 12.5593 15.0215 12.6257C14.6074 12.7078 14.0078 12.7488 13.2227 12.7488H12.0918V15.989H10.3574ZM12.0918 8.85229V11.2898H13.041C13.7246 11.2898 14.1816 11.2449 14.4121 11.155C14.6426 11.0652 14.8223 10.9246 14.9512 10.7332C15.084 10.5417 15.1504 10.3191 15.1504 10.0652C15.1504 9.75269 15.0586 9.49487 14.875 9.29175C14.6914 9.08862 14.459 8.96167 14.1777 8.91089C13.9707 8.87183 13.5547 8.85229 12.9297 8.85229H12.0918ZM18.3555 7.39917H21.5254C22.2402 7.39917 22.7852 7.45386 23.1602 7.56323C23.6641 7.71167 24.0957 7.97534 24.4551 8.35425C24.8145 8.73315 25.0879 9.198 25.2754 9.74878C25.4629 10.2957 25.5566 10.9714 25.5566 11.7761C25.5566 12.4832 25.4688 13.0925 25.293 13.6042C25.0781 14.2292 24.7715 14.7351 24.373 15.1218C24.0723 15.4148 23.666 15.6433 23.1543 15.8074C22.7715 15.9285 22.2598 15.989 21.6191 15.989H18.3555V7.39917ZM20.0898 8.85229V14.5417H21.3848C21.8691 14.5417 22.2188 14.5144 22.4336 14.4597C22.7148 14.3894 22.9473 14.2703 23.1309 14.1023C23.3184 13.9343 23.4707 13.6589 23.5879 13.2761C23.7051 12.8894 23.7637 12.364 23.7637 11.7C23.7637 11.0359 23.7051 10.5261 23.5879 10.1707C23.4707 9.81519 23.3066 9.53784 23.0957 9.33862C22.8848 9.1394 22.6172 9.00464 22.293 8.93433C22.0508 8.87964 21.5762 8.85229 20.8691 8.85229H20.0898ZM27.0332 15.989V7.39917H33.4023V8.85229H28.7676V10.7566H33.0801V12.2039H28.7676V14.5417H33.5664V15.989H27.0332ZM40.252 9.50269L38.6582 9.67847C38.6191 9.35034 38.5176 9.10815 38.3535 8.9519C38.1895 8.79565 37.9766 8.71753 37.7148 8.71753C37.3672 8.71753 37.0723 8.87378 36.8301 9.18628C36.5918 9.49878 36.4414 10.1492 36.3789 11.1375C36.7891 10.6531 37.2988 10.4109 37.9082 10.4109C38.5957 10.4109 39.1836 10.6726 39.6719 11.196C40.1641 11.7195 40.4102 12.3953 40.4102 13.2234C40.4102 14.1023 40.1523 14.8074 39.6367 15.3386C39.1211 15.8699 38.459 16.1355 37.6504 16.1355C36.7832 16.1355 36.0703 15.7996 35.5117 15.1277C34.9531 14.4519 34.6738 13.3464 34.6738 11.8113C34.6738 10.2371 34.9648 9.10229 35.5469 8.40698C36.1289 7.71167 36.8848 7.36401 37.8145 7.36401C38.4668 7.36401 39.0059 7.54761 39.4316 7.91479C39.8613 8.27808 40.1348 8.80737 40.252 9.50269ZM36.5195 13.0945C36.5195 13.6296 36.6426 14.0437 36.8887 14.3367C37.1348 14.6257 37.416 14.7703 37.7324 14.7703C38.0371 14.7703 38.291 14.6511 38.4941 14.4128C38.6973 14.1746 38.7988 13.7839 38.7988 13.241C38.7988 12.6824 38.6895 12.2742 38.4707 12.0164C38.252 11.7546 37.9785 11.6238 37.6504 11.6238C37.334 11.6238 37.0664 11.7488 36.8477 11.9988C36.6289 12.2449 36.5195 12.6101 36.5195 13.0945ZM41.7227 7.39917H45.1562C45.8359 7.39917 46.3418 7.42847 46.6738 7.48706C47.0098 7.54175 47.3086 7.65894 47.5703 7.83862C47.8359 8.01831 48.0566 8.25854 48.2324 8.55933C48.4082 8.8562 48.4961 9.19019 48.4961 9.56128C48.4961 9.96362 48.3867 10.3328 48.168 10.6687C47.9531 11.0046 47.6602 11.2566 47.2891 11.4246C47.8125 11.5769 48.2148 11.8367 48.4961 12.2039C48.7773 12.571 48.918 13.0027 48.918 13.4988C48.918 13.8894 48.8262 14.2703 48.6426 14.6414C48.4629 15.0085 48.2148 15.3035 47.8984 15.5261C47.5859 15.7449 47.1992 15.8796 46.7383 15.9304C46.4492 15.9617 45.752 15.9812 44.6465 15.989H41.7227V7.39917ZM43.457 8.82886V10.8152H44.5938C45.2695 10.8152 45.6895 10.8054 45.8535 10.7859C46.1504 10.7507 46.3828 10.6492 46.5508 10.4812C46.7227 10.3093 46.8086 10.0847 46.8086 9.80737C46.8086 9.54175 46.7344 9.3269 46.5859 9.16284C46.4414 8.99487 46.2246 8.89331 45.9355 8.85815C45.7637 8.83862 45.2695 8.82886 44.4531 8.82886H43.457ZM43.457 12.2449V14.5417H45.0625C45.6875 14.5417 46.084 14.5242 46.252 14.489C46.5098 14.4421 46.7188 14.3289 46.8789 14.1492C47.043 13.9656 47.125 13.7214 47.125 13.4167C47.125 13.1589 47.0625 12.9402 46.9375 12.7605C46.8125 12.5808 46.6309 12.45 46.3926 12.3679C46.1582 12.2859 45.6465 12.2449 44.8574 12.2449H43.457Z" fill="white"/>
<defs>
<linearGradient id="paint0_linear_64_1972" x1="29.5" y1="1.98901" x2="29.5" y2="21.989" gradientUnits="userSpaceOnUse">
<stop stop-color="#E74F96"/>
<stop offset="1" stop-color="#537BFF"/>
</linearGradient>
</defs>
</svg>
