<svg width="72" height="24" viewBox="0 0 72 24" fill="none" xmlns="http://www.w3.org/2000/svg">
<rect x="1" y="1.98901" width="70" height="20" rx="10" fill="url(#paint0_linear_50_1849)"/>
<rect x="1" y="1.98901" width="70" height="20" rx="10" stroke="#8F8100" stroke-width="3" stroke-linejoin="round"/>
<path d="M9.1582 15.989V7.39917H11.7539L13.3125 13.2585L14.8535 7.39917H17.4551V15.989H15.8438V9.22729L14.1387 15.989H12.4688L10.7695 9.22729V15.989H9.1582ZM26.9238 15.989H25.0371L24.2871 14.0378H20.8535L20.1445 15.989H18.3047L21.6504 7.39917H23.4844L26.9238 15.989ZM23.7305 12.5906L22.5469 9.40308L21.3867 12.5906H23.7305ZM27.8496 15.989V7.39917H30.6328C31.6875 7.39917 32.375 7.44214 32.6953 7.52808C33.1875 7.65698 33.5996 7.93823 33.9316 8.37183C34.2637 8.80151 34.4297 9.35815 34.4297 10.0417C34.4297 10.5691 34.334 11.0125 34.1426 11.3718C33.9512 11.7312 33.707 12.0144 33.4102 12.2214C33.1172 12.4246 32.8184 12.5593 32.5137 12.6257C32.0996 12.7078 31.5 12.7488 30.7148 12.7488H29.584V15.989H27.8496ZM29.584 8.85229V11.2898H30.5332C31.2168 11.2898 31.6738 11.2449 31.9043 11.155C32.1348 11.0652 32.3145 10.9246 32.4434 10.7332C32.5762 10.5417 32.6426 10.3191 32.6426 10.0652C32.6426 9.75269 32.5508 9.49487 32.3672 9.29175C32.1836 9.08862 31.9512 8.96167 31.6699 8.91089C31.4629 8.87183 31.0469 8.85229 30.4219 8.85229H29.584ZM35.4316 13.7097L37.0254 13.5164C37.0762 13.9226 37.2129 14.2332 37.4355 14.448C37.6582 14.6628 37.9277 14.7703 38.2441 14.7703C38.584 14.7703 38.8691 14.6414 39.0996 14.3835C39.334 14.1257 39.4512 13.7781 39.4512 13.3406C39.4512 12.9265 39.3398 12.5984 39.1172 12.3562C38.8945 12.114 38.623 11.9929 38.3027 11.9929C38.0918 11.9929 37.8398 12.0339 37.5469 12.116L37.7285 10.7742C38.1738 10.7859 38.5137 10.6902 38.748 10.4871C38.9824 10.28 39.0996 10.0066 39.0996 9.66675C39.0996 9.37769 39.0137 9.14722 38.8418 8.97534C38.6699 8.80347 38.4414 8.71753 38.1562 8.71753C37.875 8.71753 37.6348 8.81519 37.4355 9.0105C37.2363 9.20581 37.1152 9.49097 37.0723 9.86597L35.5547 9.60815C35.6602 9.08862 35.8184 8.67456 36.0293 8.36597C36.2441 8.05347 36.541 7.80933 36.9199 7.63354C37.3027 7.45386 37.7305 7.36401 38.2031 7.36401C39.0117 7.36401 39.6602 7.62183 40.1484 8.13745C40.5508 8.55933 40.752 9.03589 40.752 9.56714C40.752 10.321 40.3398 10.9226 39.5156 11.3718C40.0078 11.4773 40.4004 11.7136 40.6934 12.0808C40.9902 12.448 41.1387 12.8914 41.1387 13.4109C41.1387 14.1648 40.8633 14.8074 40.3125 15.3386C39.7617 15.8699 39.0762 16.1355 38.2559 16.1355C37.4785 16.1355 36.834 15.9128 36.3223 15.4675C35.8105 15.0183 35.5137 14.4324 35.4316 13.7097ZM42.5566 15.989V7.39917H44.291V11.2136L47.7949 7.39917H50.127L46.8926 10.7449L50.3027 15.989H48.0586L45.6973 11.9578L44.291 13.3933V15.989H42.5566ZM55.0547 15.989H53.4082V9.78394C52.8066 10.3464 52.0977 10.7625 51.2812 11.032V9.53784C51.7109 9.39722 52.1777 9.13159 52.6816 8.74097C53.1855 8.34644 53.5312 7.88745 53.7188 7.36401H55.0547V15.989ZM60.75 15.989V14.2605H57.2344V12.8191L60.9609 7.36401H62.3438V12.8132H63.4102V14.2605H62.3438V15.989H60.75ZM60.75 12.8132V9.87769L58.7754 12.8132H60.75Z" fill="white"/>
<defs>
<linearGradient id="paint0_linear_50_1849" x1="36" y1="1.98901" x2="36" y2="21.989" gradientUnits="userSpaceOnUse">
<stop stop-color="#8F8100"/>
<stop offset="1" stop-color="#DD4D00"/>
</linearGradient>
</defs>
</svg>
