<svg width="96" height="36" viewBox="0 0 96 36" fill="none" xmlns="http://www.w3.org/2000/svg">
<rect x="2" y="1.98901" width="93" height="32" rx="10" fill="url(#paint0_linear_37_1819)"/>
<rect x="2" y="1.98901" width="93" height="32" rx="10" stroke="#06A2B2" stroke-width="3" stroke-linejoin="round"/>
<path d="M15.8477 11.8308L17.5293 12.364C17.2715 13.3015 16.8418 13.9988 16.2402 14.4558C15.6426 14.9089 14.8828 15.1355 13.961 15.1355C12.8203 15.1355 11.8828 14.7468 11.1485 13.9695C10.4141 13.1882 10.0469 12.1218 10.0469 10.7703C10.0469 9.34058 10.416 8.2312 11.1543 7.44214C11.8926 6.64917 12.8633 6.25269 14.0664 6.25269C15.1172 6.25269 15.9707 6.56323 16.627 7.18433C17.0176 7.55151 17.3106 8.07886 17.5059 8.76636L15.7891 9.17651C15.6875 8.7312 15.4746 8.37964 15.1504 8.12183C14.8301 7.86401 14.4395 7.73511 13.9785 7.73511C13.3418 7.73511 12.8242 7.96362 12.4258 8.42065C12.0313 8.87769 11.834 9.61792 11.834 10.6414C11.834 11.7273 12.0293 12.5007 12.4199 12.9617C12.8106 13.4226 13.3184 13.6531 13.9434 13.6531C14.4043 13.6531 14.8008 13.5066 15.1328 13.2136C15.4649 12.9207 15.7031 12.4597 15.8477 11.8308ZM20.2422 10.6648L18.7481 10.3953C18.916 9.7937 19.2051 9.34839 19.6152 9.05933C20.0254 8.77026 20.6348 8.62573 21.4434 8.62573C22.1777 8.62573 22.7246 8.71362 23.084 8.8894C23.4434 9.06128 23.6953 9.28198 23.8399 9.55151C23.9883 9.81714 24.0625 10.3074 24.0625 11.0222L24.0449 12.9441C24.0449 13.491 24.0703 13.8953 24.1211 14.157C24.1758 14.4148 24.2754 14.6921 24.4199 14.989H22.791C22.7481 14.8796 22.6953 14.7175 22.6328 14.5027C22.6055 14.405 22.586 14.3406 22.5742 14.3093C22.293 14.5828 21.9922 14.7878 21.6719 14.9246C21.3516 15.0613 21.0098 15.1296 20.6465 15.1296C20.0059 15.1296 19.5 14.9558 19.1289 14.6082C18.7617 14.2605 18.5781 13.821 18.5781 13.2898C18.5781 12.9382 18.6621 12.6257 18.8301 12.3523C18.9981 12.075 19.2324 11.864 19.5332 11.7195C19.8379 11.571 20.2754 11.4421 20.8457 11.3328C21.6152 11.1882 22.1485 11.0535 22.4453 10.9285V10.7644C22.4453 10.448 22.3672 10.2234 22.211 10.0906C22.0547 9.95386 21.7598 9.8855 21.3262 9.8855C21.0332 9.8855 20.8047 9.94409 20.6406 10.0613C20.4766 10.1746 20.3438 10.3757 20.2422 10.6648ZM22.4453 12.0007C22.2344 12.071 21.9004 12.155 21.4434 12.2527C20.9863 12.3503 20.6875 12.446 20.5469 12.5398C20.332 12.6921 20.2246 12.8855 20.2246 13.1199C20.2246 13.3503 20.3106 13.5496 20.4824 13.7175C20.6543 13.8855 20.8731 13.9695 21.1387 13.9695C21.4356 13.9695 21.7188 13.8718 21.9883 13.6765C22.1875 13.5281 22.3184 13.3464 22.3809 13.1316C22.4238 12.991 22.4453 12.7234 22.4453 12.3289V12.0007ZM28.4723 10.0714V10.989H25.0094C25.0469 10.6421 25.1594 10.314 25.3469 10.0046C25.5344 9.69292 25.9047 9.28042 26.4578 8.76714C26.9031 8.35229 27.1762 8.07104 27.277 7.92339C27.4129 7.71948 27.4809 7.51792 27.4809 7.3187C27.4809 7.09839 27.4211 6.92964 27.3016 6.81245C27.1844 6.69292 27.0215 6.63315 26.8129 6.63315C26.6067 6.63315 26.4426 6.69526 26.3207 6.81948C26.1988 6.9437 26.1285 7.14995 26.1098 7.43823L25.1254 7.33979C25.184 6.79604 25.368 6.40581 25.6774 6.16909C25.9867 5.93237 26.3735 5.81401 26.8375 5.81401C27.3461 5.81401 27.7457 5.95112 28.0363 6.22534C28.327 6.49956 28.4723 6.84058 28.4723 7.24839C28.4723 7.48042 28.4301 7.7019 28.3457 7.91284C28.2637 8.12144 28.1324 8.34058 27.952 8.57026C27.8324 8.72261 27.6168 8.94175 27.3051 9.22769C26.9934 9.51362 26.7953 9.70347 26.711 9.79722C26.6289 9.89097 26.5621 9.98237 26.5106 10.0714H28.4723ZM30.7027 10.2472V8.90776H29.3527V7.98315H30.7027V6.6437H31.6027V7.98315H32.9562V8.90776H31.6027V10.2472H30.7027ZM37.6933 6.39917H41.1269C41.8066 6.39917 42.3125 6.42847 42.6445 6.48706C42.9805 6.54175 43.2793 6.65894 43.541 6.83862C43.8066 7.01831 44.0273 7.25854 44.2031 7.55933C44.3789 7.8562 44.4668 8.19019 44.4668 8.56128C44.4668 8.96362 44.3574 9.33276 44.1387 9.6687C43.9238 10.0046 43.6308 10.2566 43.2598 10.4246C43.7832 10.5769 44.1855 10.8367 44.4668 11.2039C44.748 11.571 44.8887 12.0027 44.8887 12.4988C44.8887 12.8894 44.7969 13.2703 44.6133 13.6414C44.4336 14.0085 44.1855 14.3035 43.8691 14.5261C43.5566 14.7449 43.1699 14.8796 42.709 14.9304C42.4199 14.9617 41.7226 14.9812 40.6172 14.989H37.6933V6.39917ZM39.4277 7.82886V9.81519H40.5644C41.2402 9.81519 41.6601 9.80542 41.8242 9.78589C42.1211 9.75073 42.3535 9.64917 42.5215 9.4812C42.6933 9.30933 42.7793 9.08472 42.7793 8.80737C42.7793 8.54175 42.7051 8.3269 42.5566 8.16284C42.4121 7.99487 42.1953 7.89331 41.9062 7.85815C41.7344 7.83862 41.2402 7.82886 40.4238 7.82886H39.4277ZM39.4277 11.2449V13.5417H41.0332C41.6582 13.5417 42.0547 13.5242 42.2226 13.489C42.4805 13.4421 42.6894 13.3289 42.8496 13.1492C43.0137 12.9656 43.0957 12.7214 43.0957 12.4167C43.0957 12.1589 43.0332 11.9402 42.9082 11.7605C42.7832 11.5808 42.6015 11.45 42.3633 11.3679C42.1289 11.2859 41.6172 11.2449 40.8281 11.2449H39.4277ZM46.3066 14.989V6.39917H48.041V14.989H46.3066ZM49.7168 14.989V6.39917H51.4043L54.9199 12.1355V6.39917H56.5312V14.989H54.791L51.3281 9.38745V14.989H49.7168ZM58.3652 6.39917H61.5351C62.25 6.39917 62.7949 6.45386 63.1699 6.56323C63.6738 6.71167 64.1055 6.97534 64.4648 7.35425C64.8242 7.73315 65.0976 8.198 65.2851 8.74878C65.4726 9.29565 65.5664 9.97144 65.5664 10.7761C65.5664 11.4832 65.4785 12.0925 65.3027 12.6042C65.0879 13.2292 64.7812 13.7351 64.3828 14.1218C64.082 14.4148 63.6758 14.6433 63.164 14.8074C62.7812 14.9285 62.2695 14.989 61.6289 14.989H58.3652V6.39917ZM60.0996 7.85229V13.5417H61.3945C61.8789 13.5417 62.2285 13.5144 62.4433 13.4597C62.7246 13.3894 62.957 13.2703 63.1406 13.1023C63.3281 12.9343 63.4805 12.6589 63.5976 12.2761C63.7148 11.8894 63.7734 11.364 63.7734 10.7C63.7734 10.0359 63.7148 9.52612 63.5976 9.17065C63.4805 8.81519 63.3164 8.53784 63.1055 8.33862C62.8945 8.1394 62.6269 8.00464 62.3027 7.93433C62.0605 7.87964 61.5859 7.85229 60.8789 7.85229H60.0996ZM66.9902 14.989V6.39917H68.7246V14.989H66.9902ZM70.4004 14.989V6.39917H72.0879L75.6035 12.1355V6.39917H77.2148V14.989H75.4746L72.0117 9.38745V14.989H70.4004ZM83.0508 11.8308V10.3835H86.789V13.8054C86.4258 14.157 85.8984 14.4675 85.207 14.7371C84.5195 15.0027 83.8223 15.1355 83.1152 15.1355C82.2168 15.1355 81.4336 14.948 80.7656 14.573C80.0976 14.1941 79.5957 13.655 79.2598 12.9558C78.9238 12.2527 78.7558 11.489 78.7558 10.6648C78.7558 9.77026 78.9433 8.97534 79.3183 8.28003C79.6933 7.58472 80.2422 7.05151 80.9648 6.68042C81.5156 6.39526 82.2012 6.25269 83.0215 6.25269C84.0879 6.25269 84.9199 6.47729 85.5176 6.92651C86.1191 7.37183 86.5058 7.98901 86.6777 8.77808L84.9551 9.10034C84.834 8.67847 84.6055 8.34644 84.2695 8.10425C83.9375 7.85815 83.5215 7.73511 83.0215 7.73511C82.2637 7.73511 81.6601 7.97534 81.2109 8.45581C80.7656 8.93628 80.543 9.64917 80.543 10.5945C80.543 11.614 80.7695 12.3796 81.2226 12.8914C81.6758 13.3992 82.2695 13.6531 83.0039 13.6531C83.3672 13.6531 83.7305 13.5828 84.0937 13.4421C84.4609 13.2976 84.7754 13.1238 85.0371 12.9207V11.8308H83.0508ZM18.6875 28.989V20.3992H21.4707C22.5254 20.3992 23.2129 20.4421 23.5332 20.5281C24.0254 20.657 24.4375 20.9382 24.7695 21.3718C25.1016 21.8015 25.2676 22.3582 25.2676 23.0417C25.2676 23.5691 25.1719 24.0125 24.9805 24.3718C24.7891 24.7312 24.5449 25.0144 24.248 25.2214C23.9551 25.4246 23.6562 25.5593 23.3516 25.6257C22.9375 25.7078 22.3379 25.7488 21.5527 25.7488H20.4219V28.989H18.6875ZM20.4219 21.8523V24.2898H21.3711C22.0547 24.2898 22.5117 24.2449 22.7422 24.155C22.9727 24.0652 23.1523 23.9246 23.2812 23.7332C23.4141 23.5417 23.4805 23.3191 23.4805 23.0652C23.4805 22.7527 23.3887 22.4949 23.2051 22.2917C23.0215 22.0886 22.7891 21.9617 22.5078 21.9109C22.3008 21.8718 21.8848 21.8523 21.2598 21.8523H20.4219ZM26.6973 28.989V20.3992H30.3477C31.2656 20.3992 31.9316 20.4773 32.3457 20.6335C32.7637 20.7859 33.0977 21.0593 33.3477 21.4539C33.5977 21.8484 33.7227 22.2996 33.7227 22.8074C33.7227 23.4519 33.5332 23.9851 33.1543 24.407C32.7754 24.825 32.209 25.0886 31.4551 25.198C31.8301 25.4167 32.1387 25.657 32.3809 25.9187C32.627 26.1804 32.957 26.6453 33.3711 27.3132L34.4199 28.989H32.3457L31.0918 27.1199C30.6465 26.4519 30.3418 26.032 30.1777 25.8601C30.0137 25.6843 29.8398 25.5652 29.6562 25.5027C29.4727 25.4363 29.1816 25.4031 28.7832 25.4031H28.4316V28.989H26.6973ZM28.4316 24.032H29.7148C30.5469 24.032 31.0664 23.9968 31.2734 23.9265C31.4805 23.8562 31.6426 23.7351 31.7598 23.5632C31.877 23.3914 31.9355 23.1765 31.9355 22.9187C31.9355 22.6296 31.8574 22.3972 31.7012 22.2214C31.5488 22.0417 31.332 21.9285 31.0508 21.8816C30.9102 21.8621 30.4883 21.8523 29.7852 21.8523H28.4316V24.032ZM35.0117 24.7468C35.0117 23.8718 35.1426 23.1375 35.4043 22.5437C35.5996 22.1062 35.8652 21.7136 36.2012 21.366C36.541 21.0183 36.9121 20.7605 37.3145 20.5925C37.8496 20.366 38.4668 20.2527 39.166 20.2527C40.4316 20.2527 41.4434 20.6453 42.2012 21.4304C42.9629 22.2156 43.3438 23.3074 43.3438 24.7058C43.3438 26.0925 42.9668 27.1785 42.2129 27.9636C41.459 28.7449 40.4512 29.1355 39.1895 29.1355C37.9121 29.1355 36.8965 28.7468 36.1426 27.9695C35.3887 27.1882 35.0117 26.114 35.0117 24.7468ZM36.7988 24.6882C36.7988 25.6609 37.0234 26.3992 37.4727 26.9031C37.9219 27.4031 38.4922 27.6531 39.1836 27.6531C39.875 27.6531 40.4414 27.405 40.8828 26.9089C41.3281 26.4089 41.5508 25.6609 41.5508 24.6648C41.5508 23.6804 41.334 22.946 40.9004 22.4617C40.4707 21.9773 39.8984 21.7351 39.1836 21.7351C38.4688 21.7351 37.8926 21.9812 37.4551 22.4734C37.0176 22.9617 36.7988 23.7 36.7988 24.6882ZM46.6367 28.989V21.8523H44.0879V20.3992H50.9141V21.8523H48.3711V28.989H46.6367ZM52.0391 28.989V20.3992H58.4082V21.8523H53.7734V23.7566H58.0859V25.2039H53.7734V27.5417H58.5723V28.989H52.0391ZM59.9902 28.989V20.3992H61.7246V28.989H59.9902ZM63.4004 28.989V20.3992H65.0879L68.6035 26.1355V20.3992H70.2148V28.989H68.4746L65.0117 23.3875V28.989H63.4004ZM71.6152 26.1941L73.3027 26.03C73.4043 26.5964 73.6094 27.0125 73.918 27.2781C74.2305 27.5437 74.6504 27.6765 75.1777 27.6765C75.7363 27.6765 76.1562 27.5593 76.4375 27.325C76.7227 27.0867 76.8652 26.8093 76.8652 26.4929C76.8652 26.2898 76.8047 26.1179 76.6836 25.9773C76.5664 25.8328 76.3594 25.7078 76.0625 25.6023C75.8594 25.532 75.3965 25.407 74.6738 25.2273C73.7441 24.9968 73.0918 24.7136 72.7168 24.3777C72.1895 23.905 71.9258 23.3289 71.9258 22.6492C71.9258 22.2117 72.0488 21.8035 72.2949 21.4246C72.5449 21.0417 72.9023 20.7507 73.3672 20.5515C73.8359 20.3523 74.4004 20.2527 75.0605 20.2527C76.1387 20.2527 76.9492 20.489 77.4922 20.9617C78.0391 21.4343 78.3262 22.0652 78.3535 22.8542L76.6191 22.9304C76.5449 22.489 76.3848 22.1726 76.1387 21.9812C75.8965 21.7859 75.5312 21.6882 75.043 21.6882C74.5391 21.6882 74.1445 21.7917 73.8594 21.9988C73.6758 22.1316 73.584 22.3093 73.584 22.532C73.584 22.7351 73.6699 22.9089 73.8418 23.0535C74.0605 23.2371 74.5918 23.4285 75.4355 23.6277C76.2793 23.8269 76.9023 24.0339 77.3047 24.2488C77.7109 24.4597 78.0273 24.7507 78.2539 25.1218C78.4844 25.489 78.5996 25.9441 78.5996 26.4871C78.5996 26.9792 78.4629 27.4402 78.1895 27.8699C77.916 28.2996 77.5293 28.6199 77.0293 28.8308C76.5293 29.0378 75.9062 29.1414 75.1602 29.1414C74.0742 29.1414 73.2402 28.8914 72.6582 28.3914C72.0762 27.8875 71.7285 27.155 71.6152 26.1941Z" fill="white"/>
<defs>
<linearGradient id="paint0_linear_37_1819" x1="48.5" y1="1.98901" x2="48.5" y2="33.989" gradientUnits="userSpaceOnUse">
<stop stop-color="#823AC9"/>
<stop offset="1" stop-color="#06A2B2"/>
</linearGradient>
</defs>
</svg>
