<svg width="54" height="24" viewBox="0 0 54 24" fill="none" xmlns="http://www.w3.org/2000/svg">
<rect x="2" y="1.98901" width="51" height="20" rx="10" fill="url(#paint0_linear_42_2608)"/>
<rect x="2" y="1.98901" width="51" height="20" rx="10" stroke="#008429" stroke-width="3" stroke-linejoin="round"/>
<path d="M10.3496 15.989V7.39917H16.7188V8.85229H12.084V10.7566H16.3965V12.2039H12.084V14.5417H16.8828V15.989H10.3496ZM18.3535 15.989V7.39917H21.1367C22.1914 7.39917 22.8789 7.44214 23.1992 7.52808C23.6914 7.65698 24.1035 7.93823 24.4355 8.37183C24.7676 8.80151 24.9336 9.35815 24.9336 10.0417C24.9336 10.5691 24.8379 11.0125 24.6465 11.3718C24.4551 11.7312 24.2109 12.0144 23.9141 12.2214C23.6211 12.4246 23.3223 12.5593 23.0176 12.6257C22.6035 12.7078 22.0039 12.7488 21.2188 12.7488H20.0879V15.989H18.3535ZM20.0879 8.85229V11.2898H21.0371C21.7207 11.2898 22.1777 11.2449 22.4082 11.155C22.6387 11.0652 22.8184 10.9246 22.9473 10.7332C23.0801 10.5417 23.1465 10.3191 23.1465 10.0652C23.1465 9.75269 23.0547 9.49487 22.8711 9.29175C22.6875 9.08862 22.4551 8.96167 22.1738 8.91089C21.9668 8.87183 21.5508 8.85229 20.9258 8.85229H20.0879ZM25.9355 13.7097L27.5293 13.5164C27.5801 13.9226 27.7168 14.2332 27.9395 14.448C28.1621 14.6628 28.4316 14.7703 28.748 14.7703C29.0879 14.7703 29.373 14.6414 29.6035 14.3835C29.8379 14.1257 29.9551 13.7781 29.9551 13.3406C29.9551 12.9265 29.8438 12.5984 29.6211 12.3562C29.3984 12.114 29.127 11.9929 28.8066 11.9929C28.5957 11.9929 28.3438 12.0339 28.0508 12.116L28.2324 10.7742C28.6777 10.7859 29.0176 10.6902 29.252 10.4871C29.4863 10.28 29.6035 10.0066 29.6035 9.66675C29.6035 9.37769 29.5176 9.14722 29.3457 8.97534C29.1738 8.80347 28.9453 8.71753 28.6602 8.71753C28.3789 8.71753 28.1387 8.81519 27.9395 9.0105C27.7402 9.20581 27.6191 9.49097 27.5762 9.86597L26.0586 9.60815C26.1641 9.08862 26.3223 8.67456 26.5332 8.36597C26.748 8.05347 27.0449 7.80933 27.4238 7.63354C27.8066 7.45386 28.2344 7.36401 28.707 7.36401C29.5156 7.36401 30.1641 7.62183 30.6523 8.13745C31.0547 8.55933 31.2559 9.03589 31.2559 9.56714C31.2559 10.321 30.8438 10.9226 30.0195 11.3718C30.5117 11.4773 30.9043 11.7136 31.1973 12.0808C31.4941 12.448 31.6426 12.8914 31.6426 13.4109C31.6426 14.1648 31.3672 14.8074 30.8164 15.3386C30.2656 15.8699 29.5801 16.1355 28.7598 16.1355C27.9824 16.1355 27.3379 15.9128 26.8262 15.4675C26.3145 15.0183 26.0176 14.4324 25.9355 13.7097ZM35.457 7.36401C36.2891 7.36401 36.9395 7.66089 37.4082 8.25464C37.9668 8.95776 38.2461 10.1238 38.2461 11.7527C38.2461 13.3777 37.9648 14.5457 37.4023 15.2566C36.9375 15.8425 36.2891 16.1355 35.457 16.1355C34.6211 16.1355 33.9473 15.8152 33.4355 15.1746C32.9238 14.53 32.668 13.3835 32.668 11.7351C32.668 10.1179 32.9492 8.95386 33.5117 8.24292C33.9766 7.65698 34.625 7.36401 35.457 7.36401ZM35.457 8.72925C35.2578 8.72925 35.0801 8.7937 34.9238 8.92261C34.7676 9.04761 34.6465 9.27417 34.5605 9.60229C34.4473 10.0281 34.3906 10.7449 34.3906 11.7527C34.3906 12.7605 34.4414 13.4539 34.543 13.8328C34.6445 14.2078 34.7715 14.4578 34.9238 14.5828C35.0801 14.7078 35.2578 14.7703 35.457 14.7703C35.6562 14.7703 35.834 14.7078 35.9902 14.5828C36.1465 14.4539 36.2676 14.2253 36.3535 13.8972C36.4668 13.4753 36.5234 12.7605 36.5234 11.7527C36.5234 10.7449 36.4727 10.0535 36.3711 9.67847C36.2695 9.29956 36.1406 9.04761 35.9844 8.92261C35.832 8.7937 35.6562 8.72925 35.457 8.72925ZM42.1367 7.36401C42.9688 7.36401 43.6191 7.66089 44.0879 8.25464C44.6465 8.95776 44.9258 10.1238 44.9258 11.7527C44.9258 13.3777 44.6445 14.5457 44.082 15.2566C43.6172 15.8425 42.9688 16.1355 42.1367 16.1355C41.3008 16.1355 40.627 15.8152 40.1152 15.1746C39.6035 14.53 39.3477 13.3835 39.3477 11.7351C39.3477 10.1179 39.6289 8.95386 40.1914 8.24292C40.6562 7.65698 41.3047 7.36401 42.1367 7.36401ZM42.1367 8.72925C41.9375 8.72925 41.7598 8.7937 41.6035 8.92261C41.4473 9.04761 41.3262 9.27417 41.2402 9.60229C41.127 10.0281 41.0703 10.7449 41.0703 11.7527C41.0703 12.7605 41.1211 13.4539 41.2227 13.8328C41.3242 14.2078 41.4512 14.4578 41.6035 14.5828C41.7598 14.7078 41.9375 14.7703 42.1367 14.7703C42.3359 14.7703 42.5137 14.7078 42.6699 14.5828C42.8262 14.4539 42.9473 14.2253 43.0332 13.8972C43.1465 13.4753 43.2031 12.7605 43.2031 11.7527C43.2031 10.7449 43.1523 10.0535 43.0508 9.67847C42.9492 9.29956 42.8203 9.04761 42.6641 8.92261C42.5117 8.7937 42.3359 8.72925 42.1367 8.72925Z" fill="white"/>
<defs>
<linearGradient id="paint0_linear_42_2608" x1="27.5" y1="1.98901" x2="27.5" y2="21.989" gradientUnits="userSpaceOnUse">
<stop stop-color="#008429"/>
<stop offset="1" stop-color="#FFCECD"/>
</linearGradient>
</defs>
</svg>
