<svg width="42" height="24" viewBox="0 0 42 24" fill="none" xmlns="http://www.w3.org/2000/svg">
<rect x="2" y="1.98901" width="39" height="20" rx="10" fill="url(#paint0_linear_67_1833)"/>
<rect x="2" y="1.98901" width="39" height="20" rx="10" stroke="#C2AA00" stroke-width="3" stroke-linejoin="round"/>
<path d="M10.3672 15.989V7.39917H14.0176C14.9355 7.39917 15.6016 7.47729 16.0156 7.63354C16.4336 7.78589 16.7676 8.05933 17.0176 8.45386C17.2676 8.84839 17.3926 9.29956 17.3926 9.80737C17.3926 10.4519 17.2031 10.9851 16.8242 11.407C16.4453 11.825 15.8789 12.0886 15.125 12.198C15.5 12.4167 15.8086 12.657 16.0508 12.9187C16.2969 13.1804 16.627 13.6453 17.041 14.3132L18.0898 15.989H16.0156L14.7617 14.1199C14.3164 13.4519 14.0117 13.032 13.8477 12.8601C13.6836 12.6843 13.5098 12.5652 13.3262 12.5027C13.1426 12.4363 12.8516 12.4031 12.4531 12.4031H12.1016V15.989H10.3672ZM12.1016 11.032H13.3848C14.2168 11.032 14.7363 10.9968 14.9434 10.9265C15.1504 10.8562 15.3125 10.7351 15.4297 10.5632C15.5469 10.3914 15.6055 10.1765 15.6055 9.9187C15.6055 9.62964 15.5273 9.39722 15.3711 9.22144C15.2188 9.04175 15.002 8.92847 14.7207 8.88159C14.5801 8.86206 14.1582 8.85229 13.4551 8.85229H12.1016V11.032ZM19.0391 7.39917H22.4727C23.1523 7.39917 23.6582 7.42847 23.9902 7.48706C24.3262 7.54175 24.625 7.65894 24.8867 7.83862C25.1523 8.01831 25.373 8.25854 25.5488 8.55933C25.7246 8.8562 25.8125 9.19019 25.8125 9.56128C25.8125 9.96362 25.7031 10.3328 25.4844 10.6687C25.2695 11.0046 24.9766 11.2566 24.6055 11.4246C25.1289 11.5769 25.5312 11.8367 25.8125 12.2039C26.0938 12.571 26.2344 13.0027 26.2344 13.4988C26.2344 13.8894 26.1426 14.2703 25.959 14.6414C25.7793 15.0085 25.5312 15.3035 25.2148 15.5261C24.9023 15.7449 24.5156 15.8796 24.0547 15.9304C23.7656 15.9617 23.0684 15.9812 21.9629 15.989H19.0391V7.39917ZM20.7734 8.82886V10.8152H21.9102C22.5859 10.8152 23.0059 10.8054 23.1699 10.7859C23.4668 10.7507 23.6992 10.6492 23.8672 10.4812C24.0391 10.3093 24.125 10.0847 24.125 9.80737C24.125 9.54175 24.0508 9.3269 23.9023 9.16284C23.7578 8.99487 23.541 8.89331 23.252 8.85815C23.0801 8.83862 22.5859 8.82886 21.7695 8.82886H20.7734ZM20.7734 12.2449V14.5417H22.3789C23.0039 14.5417 23.4004 14.5242 23.5684 14.489C23.8262 14.4421 24.0352 14.3289 24.1953 14.1492C24.3594 13.9656 24.4414 13.7214 24.4414 13.4167C24.4414 13.1589 24.3789 12.9402 24.2539 12.7605C24.1289 12.5808 23.9473 12.45 23.709 12.3679C23.4746 12.2859 22.9629 12.2449 22.1738 12.2449H20.7734ZM31.5547 15.989H29.9082V9.78394C29.3066 10.3464 28.5977 10.7625 27.7812 11.032V9.53784C28.2109 9.39722 28.6777 9.13159 29.1816 8.74097C29.6855 8.34644 30.0312 7.88745 30.2188 7.36401H31.5547V15.989Z" fill="white"/>
<defs>
<linearGradient id="paint0_linear_67_1833" x1="21.5" y1="1.98901" x2="21.5" y2="21.989" gradientUnits="userSpaceOnUse">
<stop stop-color="#C2AA00"/>
<stop offset="1" stop-color="#854ECD"/>
</linearGradient>
</defs>
</svg>
