<svg width="96" height="101" viewBox="0 0 96 101" fill="none" xmlns="http://www.w3.org/2000/svg">
<rect x="0.897217" y="1.2356" width="94" height="99" rx="4.5" stroke="#9747FF" stroke-dasharray="10 5"/>
<path d="M35.3022 22.1426L35.3237 22.1436C36.3343 22.1494 37.3028 22.5373 38.0366 23.2256L38.1802 23.3672L44.5806 30.0078C44.769 30.2031 45.0289 30.3135 45.3003 30.3135C45.5717 30.3135 45.8316 30.2031 46.02 30.0078L52.4204 23.3672C53.1742 22.585 54.2141 22.1436 55.3003 22.1436C56.3187 22.1436 57.2963 22.5315 58.0356 23.2246L58.1802 23.3672L64.646 30.0752C64.8323 30.2683 65.0886 30.3784 65.3569 30.3809C65.6252 30.3832 65.8831 30.2776 66.0728 30.0879L72.6587 23.502C74.1714 21.9893 76.5957 21.9418 78.1665 23.3604L78.3159 23.502C79.8291 25.0152 79.8762 27.4396 78.4575 29.0098L78.3159 29.1592L68.1284 39.3467C67.415 40.0604 66.4825 40.4764 65.4692 40.5156L65.2651 40.5176H65.2642C64.2576 40.5081 63.2937 40.1202 62.563 39.4346L62.4204 39.2939L56.02 32.6543C55.8315 32.4588 55.5719 32.3477 55.3003 32.3477C55.0625 32.3477 54.8336 32.4327 54.6538 32.585L54.5806 32.6543L48.1802 39.2939C47.4263 40.0761 46.3866 40.5176 45.3003 40.5176C44.2818 40.5176 43.3043 40.1296 42.5649 39.4365L42.4204 39.2939L35.978 32.6104C35.791 32.4164 35.5336 32.3063 35.2642 32.3047C35.0283 32.3033 34.8007 32.3851 34.6206 32.5342L34.5464 32.6016L28.147 39.0859C26.6441 40.6092 24.2211 40.6722 22.6411 39.2637L22.4907 39.123C20.9676 37.62 20.9036 35.1956 22.312 33.6162L22.4536 33.4668L32.4536 23.334V23.333C33.2242 22.5518 34.2242 22.1133 35.3022 22.1426Z" fill="#E0A734" stroke="#997D0B" stroke-width="2" stroke-linejoin="round"/>
<path d="M30.3972 61.7356H65.3972C70.3449 61.7356 74.3972 65.7879 74.3972 70.7356C74.3972 75.6833 70.3449 79.7356 65.3972 79.7356H30.3972C25.4495 79.7356 21.3972 75.6833 21.3972 70.7356C21.3972 65.7879 25.4495 61.7356 30.3972 61.7356Z" fill="#E0A734" stroke="#997D0B" stroke-width="2" stroke-miterlimit="10" stroke-linecap="round" stroke-linejoin="round"/>
</svg>
