<svg width="45" height="24" viewBox="0 0 45 24" fill="none" xmlns="http://www.w3.org/2000/svg">
<rect x="2" y="1.98901" width="42" height="20" rx="10" fill="url(#paint0_linear_65_1985)"/>
<rect x="2" y="1.98901" width="42" height="20" rx="10" stroke="#CF8C3B" stroke-width="3" stroke-linejoin="round"/>
<path d="M10.1973 15.989V7.39917H12.9805C14.0352 7.39917 14.7227 7.44214 15.043 7.52808C15.5352 7.65698 15.9473 7.93823 16.2793 8.37183C16.6113 8.80151 16.7773 9.35815 16.7773 10.0417C16.7773 10.5691 16.6816 11.0125 16.4902 11.3718C16.2988 11.7312 16.0547 12.0144 15.7578 12.2214C15.4648 12.4246 15.166 12.5593 14.8613 12.6257C14.4473 12.7078 13.8477 12.7488 13.0625 12.7488H11.9316V15.989H10.1973ZM11.9316 8.85229V11.2898H12.8809C13.5645 11.2898 14.0215 11.2449 14.252 11.155C14.4824 11.0652 14.6621 10.9246 14.791 10.7332C14.9238 10.5417 14.9902 10.3191 14.9902 10.0652C14.9902 9.75269 14.8984 9.49487 14.7148 9.29175C14.5312 9.08862 14.2988 8.96167 14.0176 8.91089C13.8105 8.87183 13.3945 8.85229 12.7695 8.85229H11.9316ZM18.248 15.989V7.46948H19.9824V14.5417H24.2949V15.989H18.248ZM25.4844 15.989V7.39917H27.2188V15.989H25.4844ZM28.8945 15.989V7.39917H30.582L34.0977 13.1355V7.39917H35.709V15.989H33.9688L30.5059 10.3875V15.989H28.8945Z" fill="white"/>
<defs>
<linearGradient id="paint0_linear_65_1985" x1="23" y1="1.98901" x2="23" y2="21.989" gradientUnits="userSpaceOnUse">
<stop stop-color="#CF8C3B"/>
<stop offset="1" stop-color="#F9FF8B"/>
</linearGradient>
</defs>
</svg>
