<svg width="60" height="24" viewBox="0 0 60 24" fill="none" xmlns="http://www.w3.org/2000/svg">
<rect x="2" y="1.98901" width="57" height="20" rx="10" fill="url(#paint0_linear_64_1951)"/>
<rect x="2" y="1.98901" width="57" height="20" rx="10" stroke="#4FA5A1" stroke-width="3" stroke-linejoin="round"/>
<path d="M10.3496 15.989V7.39917H13.1328C14.1875 7.39917 14.875 7.44214 15.1953 7.52808C15.6875 7.65698 16.0996 7.93823 16.4316 8.37183C16.7637 8.80151 16.9297 9.35815 16.9297 10.0417C16.9297 10.5691 16.834 11.0125 16.6426 11.3718C16.4512 11.7312 16.207 12.0144 15.9102 12.2214C15.6172 12.4246 15.3184 12.5593 15.0137 12.6257C14.5996 12.7078 14 12.7488 13.2148 12.7488H12.084V15.989H10.3496ZM12.084 8.85229V11.2898H13.0332C13.7168 11.2898 14.1738 11.2449 14.4043 11.155C14.6348 11.0652 14.8145 10.9246 14.9434 10.7332C15.0762 10.5417 15.1426 10.3191 15.1426 10.0652C15.1426 9.75269 15.0508 9.49487 14.8672 9.29175C14.6836 9.08862 14.4512 8.96167 14.1699 8.91089C13.9629 8.87183 13.5469 8.85229 12.9219 8.85229H12.084ZM18.3008 15.989V7.39917H20.0352V15.989H18.3008ZM21.7168 15.989V7.39917H23.4512V11.2136L26.9551 7.39917H29.2871L26.0527 10.7449L29.4629 15.989H27.2188L24.8574 11.9578L23.4512 13.3933V15.989H21.7168ZM29.9434 13.7097L31.5371 13.5164C31.5879 13.9226 31.7246 14.2332 31.9473 14.448C32.1699 14.6628 32.4395 14.7703 32.7559 14.7703C33.0957 14.7703 33.3809 14.6414 33.6113 14.3835C33.8457 14.1257 33.9629 13.7781 33.9629 13.3406C33.9629 12.9265 33.8516 12.5984 33.6289 12.3562C33.4062 12.114 33.1348 11.9929 32.8145 11.9929C32.6035 11.9929 32.3516 12.0339 32.0586 12.116L32.2402 10.7742C32.6855 10.7859 33.0254 10.6902 33.2598 10.4871C33.4941 10.28 33.6113 10.0066 33.6113 9.66675C33.6113 9.37769 33.5254 9.14722 33.3535 8.97534C33.1816 8.80347 32.9531 8.71753 32.668 8.71753C32.3867 8.71753 32.1465 8.81519 31.9473 9.0105C31.748 9.20581 31.627 9.49097 31.584 9.86597L30.0664 9.60815C30.1719 9.08862 30.3301 8.67456 30.541 8.36597C30.7559 8.05347 31.0527 7.80933 31.4316 7.63354C31.8145 7.45386 32.2422 7.36401 32.7148 7.36401C33.5234 7.36401 34.1719 7.62183 34.6602 8.13745C35.0625 8.55933 35.2637 9.03589 35.2637 9.56714C35.2637 10.321 34.8516 10.9226 34.0273 11.3718C34.5195 11.4773 34.9121 11.7136 35.2051 12.0808C35.502 12.448 35.6504 12.8914 35.6504 13.4109C35.6504 14.1648 35.375 14.8074 34.8242 15.3386C34.2734 15.8699 33.5879 16.1355 32.7676 16.1355C31.9902 16.1355 31.3457 15.9128 30.834 15.4675C30.3223 15.0183 30.0254 14.4324 29.9434 13.7097ZM37.0508 15.989V7.39917H40.7012C41.6191 7.39917 42.2852 7.47729 42.6992 7.63354C43.1172 7.78589 43.4512 8.05933 43.7012 8.45386C43.9512 8.84839 44.0762 9.29956 44.0762 9.80737C44.0762 10.4519 43.8867 10.9851 43.5078 11.407C43.1289 11.825 42.5625 12.0886 41.8086 12.198C42.1836 12.4167 42.4922 12.657 42.7344 12.9187C42.9805 13.1804 43.3105 13.6453 43.7246 14.3132L44.7734 15.989H42.6992L41.4453 14.1199C41 13.4519 40.6953 13.032 40.5312 12.8601C40.3672 12.6843 40.1934 12.5652 40.0098 12.5027C39.8262 12.4363 39.5352 12.4031 39.1367 12.4031H38.7852V15.989H37.0508ZM38.7852 11.032H40.0684C40.9004 11.032 41.4199 10.9968 41.627 10.9265C41.834 10.8562 41.9961 10.7351 42.1133 10.5632C42.2305 10.3914 42.2891 10.1765 42.2891 9.9187C42.2891 9.62964 42.2109 9.39722 42.0547 9.22144C41.9023 9.04175 41.6855 8.92847 41.4043 8.88159C41.2637 8.86206 40.8418 8.85229 40.1387 8.85229H38.7852V11.032ZM49.5664 15.989H47.9199V9.78394C47.3184 10.3464 46.6094 10.7625 45.793 11.032V9.53784C46.2227 9.39722 46.6895 9.13159 47.1934 8.74097C47.6973 8.34644 48.043 7.88745 48.2305 7.36401H49.5664V15.989Z" fill="white"/>
<defs>
<linearGradient id="paint0_linear_64_1951" x1="30.5" y1="1.98901" x2="30.5" y2="21.989" gradientUnits="userSpaceOnUse">
<stop stop-color="#4FA5A1"/>
<stop offset="1" stop-color="#3F1741"/>
</linearGradient>
</defs>
</svg>
