<svg width="42" height="24" viewBox="0 0 42 24" fill="none" xmlns="http://www.w3.org/2000/svg">
<rect x="2" y="1.98901" width="39" height="20" rx="10" fill="url(#paint0_linear_37_1581)"/>
<rect x="2" y="1.98901" width="39" height="20" rx="10" stroke="#5E3D74" stroke-width="3" stroke-linejoin="round"/>
<path d="M10.0391 7.39917H13.4727C14.1523 7.39917 14.6582 7.42847 14.9902 7.48706C15.3262 7.54175 15.625 7.65894 15.8867 7.83862C16.1523 8.01831 16.373 8.25854 16.5488 8.55933C16.7246 8.8562 16.8125 9.19019 16.8125 9.56128C16.8125 9.96362 16.7031 10.3328 16.4844 10.6687C16.2695 11.0046 15.9766 11.2566 15.6055 11.4246C16.1289 11.5769 16.5312 11.8367 16.8125 12.2039C17.0938 12.571 17.2344 13.0027 17.2344 13.4988C17.2344 13.8894 17.1426 14.2703 16.959 14.6414C16.7793 15.0085 16.5312 15.3035 16.2148 15.5261C15.9023 15.7449 15.5156 15.8796 15.0547 15.9304C14.7656 15.9617 14.0684 15.9812 12.9629 15.989H10.0391V7.39917ZM11.7734 8.82886V10.8152H12.9102C13.5859 10.8152 14.0059 10.8054 14.1699 10.7859C14.4668 10.7507 14.6992 10.6492 14.8672 10.4812C15.0391 10.3093 15.125 10.0847 15.125 9.80737C15.125 9.54175 15.0508 9.3269 14.9023 9.16284C14.7578 8.99487 14.541 8.89331 14.252 8.85815C14.0801 8.83862 13.5859 8.82886 12.7695 8.82886H11.7734ZM11.7734 12.2449V14.5417H13.3789C14.0039 14.5417 14.4004 14.5242 14.5684 14.489C14.8262 14.4421 15.0352 14.3289 15.1953 14.1492C15.3594 13.9656 15.4414 13.7214 15.4414 13.4167C15.4414 13.1589 15.3789 12.9402 15.2539 12.7605C15.1289 12.5808 14.9473 12.45 14.709 12.3679C14.4746 12.2859 13.9629 12.2449 13.1738 12.2449H11.7734ZM20.6387 15.989V8.85229H18.0898V7.39917H24.916V8.85229H22.373V15.989H20.6387ZM26.0352 7.39917H29.2051C29.9199 7.39917 30.4648 7.45386 30.8398 7.56323C31.3438 7.71167 31.7754 7.97534 32.1348 8.35425C32.4941 8.73315 32.7676 9.198 32.9551 9.74878C33.1426 10.2957 33.2363 10.9714 33.2363 11.7761C33.2363 12.4832 33.1484 13.0925 32.9727 13.6042C32.7578 14.2292 32.4512 14.7351 32.0527 15.1218C31.752 15.4148 31.3457 15.6433 30.834 15.8074C30.4512 15.9285 29.9395 15.989 29.2988 15.989H26.0352V7.39917ZM27.7695 8.85229V14.5417H29.0645C29.5488 14.5417 29.8984 14.5144 30.1133 14.4597C30.3945 14.3894 30.627 14.2703 30.8105 14.1023C30.998 13.9343 31.1504 13.6589 31.2676 13.2761C31.3848 12.8894 31.4434 12.364 31.4434 11.7C31.4434 11.0359 31.3848 10.5261 31.2676 10.1707C31.1504 9.81519 30.9863 9.53784 30.7754 9.33862C30.5645 9.1394 30.2969 9.00464 29.9727 8.93433C29.7305 8.87964 29.2559 8.85229 28.5488 8.85229H27.7695Z" fill="white"/>
<defs>
<linearGradient id="paint0_linear_37_1581" x1="21.5" y1="1.98901" x2="21.5" y2="21.989" gradientUnits="userSpaceOnUse">
<stop stop-color="#5E3D74"/>
<stop offset="1" stop-color="#FF7A81"/>
</linearGradient>
</defs>
</svg>
