<svg width="49" height="24" viewBox="0 0 49 24" fill="none" xmlns="http://www.w3.org/2000/svg">
<rect x="2" y="1.98901" width="46" height="20" rx="10" fill="url(#paint0_linear_83_1965)"/>
<rect x="2" y="1.98901" width="46" height="20" rx="10" stroke="#3D78BD" stroke-width="3" stroke-linejoin="round"/>
<path d="M12.127 15.989V8.85229H9.57812V7.39917H16.4043V8.85229H13.8613V15.989H12.127ZM17.5352 7.39917H20.9688C21.6484 7.39917 22.1543 7.42847 22.4863 7.48706C22.8223 7.54175 23.1211 7.65894 23.3828 7.83862C23.6484 8.01831 23.8691 8.25854 24.0449 8.55933C24.2207 8.8562 24.3086 9.19019 24.3086 9.56128C24.3086 9.96362 24.1992 10.3328 23.9805 10.6687C23.7656 11.0046 23.4727 11.2566 23.1016 11.4246C23.625 11.5769 24.0273 11.8367 24.3086 12.2039C24.5898 12.571 24.7305 13.0027 24.7305 13.4988C24.7305 13.8894 24.6387 14.2703 24.4551 14.6414C24.2754 15.0085 24.0273 15.3035 23.7109 15.5261C23.3984 15.7449 23.0117 15.8796 22.5508 15.9304C22.2617 15.9617 21.5645 15.9812 20.459 15.989H17.5352V7.39917ZM19.2695 8.82886V10.8152H20.4062C21.082 10.8152 21.502 10.8054 21.666 10.7859C21.9629 10.7507 22.1953 10.6492 22.3633 10.4812C22.5352 10.3093 22.6211 10.0847 22.6211 9.80737C22.6211 9.54175 22.5469 9.3269 22.3984 9.16284C22.2539 8.99487 22.0371 8.89331 21.748 8.85815C21.5762 8.83862 21.082 8.82886 20.2656 8.82886H19.2695ZM19.2695 12.2449V14.5417H20.875C21.5 14.5417 21.8965 14.5242 22.0645 14.489C22.3223 14.4421 22.5312 14.3289 22.6914 14.1492C22.8555 13.9656 22.9375 13.7214 22.9375 13.4167C22.9375 13.1589 22.875 12.9402 22.75 12.7605C22.625 12.5808 22.4434 12.45 22.2051 12.3679C21.9707 12.2859 21.459 12.2449 20.6699 12.2449H19.2695ZM26.2246 15.989V7.39917H27.959V11.2136L31.4629 7.39917H33.7949L30.5605 10.7449L33.9707 15.989H31.7266L29.3652 11.9578L27.959 13.3933V15.989H26.2246ZM38.7227 15.989H37.0762V9.78394C36.4746 10.3464 35.7656 10.7625 34.9492 11.032V9.53784C35.3789 9.39722 35.8457 9.13159 36.3496 8.74097C36.8535 8.34644 37.1992 7.88745 37.3867 7.36401H38.7227V15.989Z" fill="white"/>
<defs>
<linearGradient id="paint0_linear_83_1965" x1="25" y1="1.98901" x2="25" y2="21.989" gradientUnits="userSpaceOnUse">
<stop stop-color="#337967"/>
<stop offset="1" stop-color="#3D78BD"/>
</linearGradient>
</defs>
</svg>
