<svg width="65" height="24" viewBox="0 0 65 24" fill="none" xmlns="http://www.w3.org/2000/svg">
<rect x="1" y="1.98901" width="63" height="20" rx="10" fill="url(#paint0_linear_45_4219)"/>
<rect x="1" y="1.98901" width="63" height="20" rx="10" stroke="#313CD3" stroke-width="3" stroke-linejoin="round"/>
<path d="M12.9062 12.8308V11.3835H16.6445V14.8054C16.2812 15.157 15.7539 15.4675 15.0625 15.7371C14.375 16.0027 13.6777 16.1355 12.9707 16.1355C12.0723 16.1355 11.2891 15.948 10.6211 15.573C9.95312 15.1941 9.45117 14.655 9.11523 13.9558C8.7793 13.2527 8.61133 12.489 8.61133 11.6648C8.61133 10.7703 8.79883 9.97534 9.17383 9.28003C9.54883 8.58472 10.0977 8.05151 10.8203 7.68042C11.3711 7.39526 12.0566 7.25269 12.877 7.25269C13.9434 7.25269 14.7754 7.47729 15.373 7.92651C15.9746 8.37183 16.3613 8.98901 16.5332 9.77808L14.8105 10.1003C14.6895 9.67847 14.4609 9.34644 14.125 9.10425C13.793 8.85815 13.377 8.73511 12.877 8.73511C12.1191 8.73511 11.5156 8.97534 11.0664 9.45581C10.6211 9.93628 10.3984 10.6492 10.3984 11.5945C10.3984 12.614 10.625 13.3796 11.0781 13.8914C11.5312 14.3992 12.125 14.6531 12.8594 14.6531C13.2227 14.6531 13.5859 14.5828 13.9492 14.4421C14.3164 14.2976 14.6309 14.1238 14.8926 13.9207V12.8308H12.9062ZM25.9961 15.989H24.1094L23.3594 14.0378H19.9258L19.2168 15.989H17.377L20.7227 7.39917H22.5566L25.9961 15.989ZM22.8027 12.5906L21.6191 9.40308L20.459 12.5906H22.8027ZM27.9648 15.989V8.85229H25.416V7.39917H32.2422V8.85229H29.6992V15.989H27.9648ZM32.793 11.7468C32.793 10.8718 32.9238 10.1375 33.1855 9.5437C33.3809 9.1062 33.6465 8.71362 33.9824 8.36597C34.3223 8.01831 34.6934 7.7605 35.0957 7.59253C35.6309 7.36597 36.248 7.25269 36.9473 7.25269C38.2129 7.25269 39.2246 7.64526 39.9824 8.43042C40.7441 9.21558 41.125 10.3074 41.125 11.7058C41.125 13.0925 40.748 14.1785 39.9941 14.9636C39.2402 15.7449 38.2324 16.1355 36.9707 16.1355C35.6934 16.1355 34.6777 15.7468 33.9238 14.9695C33.1699 14.1882 32.793 13.114 32.793 11.7468ZM34.5801 11.6882C34.5801 12.6609 34.8047 13.3992 35.2539 13.9031C35.7031 14.4031 36.2734 14.6531 36.9648 14.6531C37.6562 14.6531 38.2227 14.405 38.6641 13.9089C39.1094 13.4089 39.332 12.6609 39.332 11.6648C39.332 10.6804 39.1152 9.94604 38.6816 9.46167C38.252 8.97729 37.6797 8.73511 36.9648 8.73511C36.25 8.73511 35.6738 8.9812 35.2363 9.47339C34.7988 9.96167 34.5801 10.7 34.5801 11.6882ZM42.4902 15.989V7.39917H46.1406C47.0586 7.39917 47.7246 7.47729 48.1387 7.63354C48.5566 7.78589 48.8906 8.05933 49.1406 8.45386C49.3906 8.84839 49.5156 9.29956 49.5156 9.80737C49.5156 10.4519 49.3262 10.9851 48.9473 11.407C48.5684 11.825 48.002 12.0886 47.248 12.198C47.623 12.4167 47.9316 12.657 48.1738 12.9187C48.4199 13.1804 48.75 13.6453 49.1641 14.3132L50.2129 15.989H48.1387L46.8848 14.1199C46.4395 13.4519 46.1348 13.032 45.9707 12.8601C45.8066 12.6843 45.6328 12.5652 45.4492 12.5027C45.2656 12.4363 44.9746 12.4031 44.5762 12.4031H44.2246V15.989H42.4902ZM44.2246 11.032H45.5078C46.3398 11.032 46.8594 10.9968 47.0664 10.9265C47.2734 10.8562 47.4355 10.7351 47.5527 10.5632C47.6699 10.3914 47.7285 10.1765 47.7285 9.9187C47.7285 9.62964 47.6504 9.39722 47.4941 9.22144C47.3418 9.04175 47.125 8.92847 46.8438 8.88159C46.7031 8.86206 46.2812 8.85229 45.5781 8.85229H44.2246V11.032ZM55.0059 15.989H53.3594V9.78394C52.7578 10.3464 52.0488 10.7625 51.2324 11.032V9.53784C51.6621 9.39722 52.1289 9.13159 52.6328 8.74097C53.1367 8.34644 53.4824 7.88745 53.6699 7.36401H55.0059V15.989Z" fill="white"/>
<defs>
<linearGradient id="paint0_linear_45_4219" x1="32.5" y1="1.98901" x2="32.5" y2="21.989" gradientUnits="userSpaceOnUse">
<stop stop-color="#313CD3"/>
<stop offset="1" stop-color="#8B9D00"/>
</linearGradient>
</defs>
</svg>
