<svg width="60" height="24" viewBox="0 0 60 24" fill="none" xmlns="http://www.w3.org/2000/svg">
<rect x="2" y="1.98901" width="57" height="20" rx="10" fill="url(#paint0_linear_37_1586)"/>
<rect x="2" y="1.98901" width="57" height="20" rx="10" stroke="#6C3FB0" stroke-width="3" stroke-linejoin="round"/>
<path d="M15.5234 12.8308L17.2051 13.364C16.9473 14.3015 16.5176 14.9988 15.916 15.4558C15.3184 15.9089 14.5586 16.1355 13.6367 16.1355C12.4961 16.1355 11.5586 15.7468 10.8242 14.9695C10.0898 14.1882 9.72266 13.1218 9.72266 11.7703C9.72266 10.3406 10.0918 9.2312 10.8301 8.44214C11.5684 7.64917 12.5391 7.25269 13.7422 7.25269C14.793 7.25269 15.6465 7.56323 16.3027 8.18433C16.6934 8.55151 16.9863 9.07886 17.1816 9.76636L15.4648 10.1765C15.3633 9.7312 15.1504 9.37964 14.8262 9.12183C14.5059 8.86401 14.1152 8.73511 13.6543 8.73511C13.0176 8.73511 12.5 8.96362 12.1016 9.42065C11.707 9.87769 11.5098 10.6179 11.5098 11.6414C11.5098 12.7273 11.7051 13.5007 12.0957 13.9617C12.4863 14.4226 12.9941 14.6531 13.6191 14.6531C14.0801 14.6531 14.4766 14.5066 14.8086 14.2136C15.1406 13.9207 15.3789 13.4597 15.5234 12.8308ZM26.4453 15.989H24.5586L23.8086 14.0378H20.375L19.666 15.989H17.8262L21.1719 7.39917H23.0059L26.4453 15.989ZM23.252 12.5906L22.0684 9.40308L20.9082 12.5906H23.252ZM27.3477 15.989V7.39917H29.9434L31.502 13.2585L33.043 7.39917H35.6445V15.989H34.0332V9.22729L32.3281 15.989H30.6582L28.959 9.22729V15.989H27.3477ZM37.3906 15.989V7.39917H39.125V11.2136L42.6289 7.39917H44.9609L41.7266 10.7449L45.1367 15.989H42.8926L40.5312 11.9578L39.125 13.3933V15.989H37.3906ZM48.9043 15.989V14.2605H45.3887V12.8191L49.1152 7.36401H50.498V12.8132H51.5645V14.2605H50.498V15.989H48.9043ZM48.9043 12.8132V9.87769L46.9297 12.8132H48.9043Z" fill="white"/>
<defs>
<linearGradient id="paint0_linear_37_1586" x1="30.5" y1="1.98901" x2="30.5" y2="21.989" gradientUnits="userSpaceOnUse">
<stop stop-color="#ACE2FC"/>
<stop offset="1" stop-color="#6C3FB0"/>
</linearGradient>
</defs>
</svg>
