<svg width="58" height="24" viewBox="0 0 58 24" fill="none" xmlns="http://www.w3.org/2000/svg">
<rect x="2" y="1.98901" width="55" height="20" rx="10" fill="url(#paint0_linear_52_1886)"/>
<rect x="2" y="1.98901" width="55" height="20" rx="10" stroke="#4A0B00" stroke-width="3" stroke-linejoin="round"/>
<path d="M10.4102 15.989V7.46948H12.1445V14.5417H16.457V15.989H10.4102ZM23.1953 12.8308L24.877 13.364C24.6191 14.3015 24.1895 14.9988 23.5879 15.4558C22.9902 15.9089 22.2305 16.1355 21.3086 16.1355C20.168 16.1355 19.2305 15.7468 18.4961 14.9695C17.7617 14.1882 17.3945 13.1218 17.3945 11.7703C17.3945 10.3406 17.7637 9.2312 18.502 8.44214C19.2402 7.64917 20.2109 7.25269 21.4141 7.25269C22.4648 7.25269 23.3184 7.56323 23.9746 8.18433C24.3652 8.55151 24.6582 9.07886 24.8535 9.76636L23.1367 10.1765C23.0352 9.7312 22.8223 9.37964 22.498 9.12183C22.1777 8.86401 21.7871 8.73511 21.3262 8.73511C20.6895 8.73511 20.1719 8.96362 19.7734 9.42065C19.3789 9.87769 19.1816 10.6179 19.1816 11.6414C19.1816 12.7273 19.377 13.5007 19.7676 13.9617C20.1582 14.4226 20.666 14.6531 21.291 14.6531C21.752 14.6531 22.1484 14.5066 22.4805 14.2136C22.8125 13.9207 23.0508 13.4597 23.1953 12.8308ZM26.3477 15.989V7.39917H28.9434L30.502 13.2585L32.043 7.39917H34.6445V15.989H33.0332V9.22729L31.3281 15.989H29.6582L27.959 9.22729V15.989H26.3477ZM38.3008 15.989V8.85229H35.752V7.39917H42.5781V8.85229H40.0352V15.989H38.3008ZM48.9004 14.4597V15.989H43.1289C43.1914 15.4109 43.3789 14.864 43.6914 14.3484C44.0039 13.8289 44.6211 13.1414 45.543 12.2859C46.2852 11.5945 46.7402 11.1257 46.9082 10.8796C47.1348 10.5398 47.248 10.2039 47.248 9.87183C47.248 9.50464 47.1484 9.22339 46.9492 9.02808C46.7539 8.82886 46.4824 8.72925 46.1348 8.72925C45.791 8.72925 45.5176 8.83276 45.3145 9.03979C45.1113 9.24683 44.9941 9.59058 44.9629 10.071L43.3223 9.90698C43.4199 9.00073 43.7266 8.35034 44.2422 7.95581C44.7578 7.56128 45.4023 7.36401 46.1758 7.36401C47.0234 7.36401 47.6895 7.59253 48.1738 8.04956C48.6582 8.50659 48.9004 9.07495 48.9004 9.75464C48.9004 10.1414 48.8301 10.5105 48.6895 10.8621C48.5527 11.2097 48.334 11.575 48.0332 11.9578C47.834 12.2117 47.4746 12.5769 46.9551 13.0535C46.4355 13.53 46.1055 13.8464 45.9648 14.0027C45.8281 14.1589 45.7168 14.3113 45.6309 14.4597H48.9004Z" fill="white"/>
<defs>
<linearGradient id="paint0_linear_52_1886" x1="29.5" y1="1.98901" x2="29.5" y2="21.989" gradientUnits="userSpaceOnUse">
<stop stop-color="#FFD7D0"/>
<stop offset="1" stop-color="#4A0B00"/>
</linearGradient>
</defs>
</svg>
