<svg width="72" height="24" viewBox="0 0 72 24" fill="none" xmlns="http://www.w3.org/2000/svg">
<rect x="1" y="1.98901" width="70" height="20" rx="10" fill="url(#paint0_linear_45_4237)"/>
<rect x="1" y="1.98901" width="70" height="20" rx="10" stroke="#FF9914" stroke-width="3" stroke-linejoin="round"/>
<path d="M13.1777 12.8308V11.3835H16.916V14.8054C16.5527 15.157 16.0254 15.4675 15.334 15.7371C14.6465 16.0027 13.9492 16.1355 13.2422 16.1355C12.3438 16.1355 11.5605 15.948 10.8926 15.573C10.2246 15.1941 9.72266 14.655 9.38672 13.9558C9.05078 13.2527 8.88281 12.489 8.88281 11.6648C8.88281 10.7703 9.07031 9.97534 9.44531 9.28003C9.82031 8.58472 10.3691 8.05151 11.0918 7.68042C11.6426 7.39526 12.3281 7.25269 13.1484 7.25269C14.2148 7.25269 15.0469 7.47729 15.6445 7.92651C16.2461 8.37183 16.6328 8.98901 16.8047 9.77808L15.082 10.1003C14.9609 9.67847 14.7324 9.34644 14.3965 9.10425C14.0645 8.85815 13.6484 8.73511 13.1484 8.73511C12.3906 8.73511 11.7871 8.97534 11.3379 9.45581C10.8926 9.93628 10.6699 10.6492 10.6699 11.5945C10.6699 12.614 10.8965 13.3796 11.3496 13.8914C11.8027 14.3992 12.3965 14.6531 13.1309 14.6531C13.4941 14.6531 13.8574 14.5828 14.2207 14.4421C14.5879 14.2976 14.9023 14.1238 15.1641 13.9207V12.8308H13.1777ZM18.3223 13.698V12.0515H21.5566V13.698H18.3223ZM23.7363 11.6648L22.2422 11.3953C22.4102 10.7937 22.6992 10.3484 23.1094 10.0593C23.5195 9.77026 24.1289 9.62573 24.9375 9.62573C25.6719 9.62573 26.2188 9.71362 26.5781 9.8894C26.9375 10.0613 27.1895 10.282 27.334 10.5515C27.4824 10.8171 27.5566 11.3074 27.5566 12.0222L27.5391 13.9441C27.5391 14.491 27.5645 14.8953 27.6152 15.157C27.6699 15.4148 27.7695 15.6921 27.9141 15.989H26.2852C26.2422 15.8796 26.1895 15.7175 26.127 15.5027C26.0996 15.405 26.0801 15.3406 26.0684 15.3093C25.7871 15.5828 25.4863 15.7878 25.166 15.9246C24.8457 16.0613 24.5039 16.1296 24.1406 16.1296C23.5 16.1296 22.9941 15.9558 22.623 15.6082C22.2559 15.2605 22.0723 14.821 22.0723 14.2898C22.0723 13.9382 22.1562 13.6257 22.3242 13.3523C22.4922 13.075 22.7266 12.864 23.0273 12.7195C23.332 12.571 23.7695 12.4421 24.3398 12.3328C25.1094 12.1882 25.6426 12.0535 25.9395 11.9285V11.7644C25.9395 11.448 25.8613 11.2234 25.7051 11.0906C25.5488 10.9539 25.2539 10.8855 24.8203 10.8855C24.5273 10.8855 24.2988 10.9441 24.1348 11.0613C23.9707 11.1746 23.8379 11.3757 23.7363 11.6648ZM25.9395 13.0007C25.7285 13.071 25.3945 13.155 24.9375 13.2527C24.4805 13.3503 24.1816 13.446 24.041 13.5398C23.8262 13.6921 23.7188 13.8855 23.7188 14.1199C23.7188 14.3503 23.8047 14.5496 23.9766 14.7175C24.1484 14.8855 24.3672 14.9695 24.6328 14.9695C24.9297 14.9695 25.2129 14.8718 25.4824 14.6765C25.6816 14.5281 25.8125 14.3464 25.875 14.1316C25.918 13.991 25.9395 13.7234 25.9395 13.3289V13.0007ZM29.1855 15.989V7.39917H30.832V15.989H29.1855ZM32.4785 9.76636H34.0137V10.6804C34.2129 10.3679 34.4824 10.114 34.8223 9.9187C35.1621 9.72339 35.5391 9.62573 35.9531 9.62573C36.6758 9.62573 37.2891 9.90894 37.793 10.4753C38.2969 11.0417 38.5488 11.8308 38.5488 12.8425C38.5488 13.8816 38.2949 14.6902 37.7871 15.2683C37.2793 15.8425 36.6641 16.1296 35.9414 16.1296C35.5977 16.1296 35.2852 16.0613 35.0039 15.9246C34.7266 15.7878 34.4336 15.5535 34.125 15.2214V18.3562H32.4785V9.76636ZM34.1074 12.7722C34.1074 13.4714 34.2461 13.989 34.5234 14.325C34.8008 14.657 35.1387 14.823 35.5371 14.823C35.9199 14.823 36.2383 14.6707 36.4922 14.366C36.7461 14.0574 36.873 13.5535 36.873 12.8542C36.873 12.2019 36.7422 11.7175 36.4805 11.4011C36.2188 11.0847 35.8945 10.9265 35.5078 10.9265C35.1055 10.9265 34.7715 11.0828 34.5059 11.3953C34.2402 11.7039 34.1074 12.1628 34.1074 12.7722ZM41.502 7.39917V10.5574C42.0332 9.93628 42.668 9.62573 43.4062 9.62573C43.7852 9.62573 44.127 9.69604 44.4316 9.83667C44.7363 9.97729 44.9648 10.157 45.1172 10.3757C45.2734 10.5945 45.3789 10.8367 45.4336 11.1023C45.4922 11.3679 45.5215 11.78 45.5215 12.3386V15.989H43.875V12.7019C43.875 12.0496 43.8438 11.6355 43.7812 11.4597C43.7188 11.2839 43.6074 11.1453 43.4473 11.0437C43.291 10.9382 43.0938 10.8855 42.8555 10.8855C42.582 10.8855 42.3379 10.9519 42.123 11.0847C41.9082 11.2175 41.75 11.4187 41.6484 11.6882C41.5508 11.9539 41.502 12.3484 41.502 12.8718V15.989H39.8555V7.39917H41.502ZM48.4277 11.6648L46.9336 11.3953C47.1016 10.7937 47.3906 10.3484 47.8008 10.0593C48.2109 9.77026 48.8203 9.62573 49.6289 9.62573C50.3633 9.62573 50.9102 9.71362 51.2695 9.8894C51.6289 10.0613 51.8809 10.282 52.0254 10.5515C52.1738 10.8171 52.248 11.3074 52.248 12.0222L52.2305 13.9441C52.2305 14.491 52.2559 14.8953 52.3066 15.157C52.3613 15.4148 52.4609 15.6921 52.6055 15.989H50.9766C50.9336 15.8796 50.8809 15.7175 50.8184 15.5027C50.791 15.405 50.7715 15.3406 50.7598 15.3093C50.4785 15.5828 50.1777 15.7878 49.8574 15.9246C49.5371 16.0613 49.1953 16.1296 48.832 16.1296C48.1914 16.1296 47.6855 15.9558 47.3145 15.6082C46.9473 15.2605 46.7637 14.821 46.7637 14.2898C46.7637 13.9382 46.8477 13.6257 47.0156 13.3523C47.1836 13.075 47.418 12.864 47.7188 12.7195C48.0234 12.571 48.4609 12.4421 49.0312 12.3328C49.8008 12.1882 50.334 12.0535 50.6309 11.9285V11.7644C50.6309 11.448 50.5527 11.2234 50.3965 11.0906C50.2402 10.9539 49.9453 10.8855 49.5117 10.8855C49.2188 10.8855 48.9902 10.9441 48.8262 11.0613C48.6621 11.1746 48.5293 11.3757 48.4277 11.6648ZM50.6309 13.0007C50.4199 13.071 50.0859 13.155 49.6289 13.2527C49.1719 13.3503 48.873 13.446 48.7324 13.5398C48.5176 13.6921 48.4102 13.8855 48.4102 14.1199C48.4102 14.3503 48.4961 14.5496 48.668 14.7175C48.8398 14.8855 49.0586 14.9695 49.3242 14.9695C49.6211 14.9695 49.9043 14.8718 50.1738 14.6765C50.373 14.5281 50.5039 14.3464 50.5664 14.1316C50.6094 13.991 50.6309 13.7234 50.6309 13.3289V13.0007ZM53.6895 13.698V12.0515H56.9238V13.698H53.6895ZM57.293 14.2136L58.9453 13.9617C59.0156 14.282 59.1582 14.5261 59.373 14.6941C59.5879 14.8582 59.8887 14.9402 60.2754 14.9402C60.7012 14.9402 61.0215 14.8621 61.2363 14.7058C61.3809 14.5964 61.4531 14.45 61.4531 14.2664C61.4531 14.1414 61.4141 14.0378 61.3359 13.9558C61.2539 13.8777 61.0703 13.8054 60.7852 13.739C59.457 13.446 58.6152 13.1785 58.2598 12.9363C57.7676 12.6003 57.5215 12.1335 57.5215 11.5359C57.5215 10.9968 57.7344 10.5437 58.1602 10.1765C58.5859 9.80933 59.2461 9.62573 60.1406 9.62573C60.9922 9.62573 61.625 9.7644 62.0391 10.0417C62.4531 10.3191 62.7383 10.7292 62.8945 11.2722L61.3418 11.5593C61.2754 11.3171 61.1484 11.1316 60.9609 11.0027C60.7773 10.8738 60.5137 10.8093 60.1699 10.8093C59.7363 10.8093 59.4258 10.8699 59.2383 10.991C59.1133 11.0769 59.0508 11.1882 59.0508 11.325C59.0508 11.4421 59.1055 11.5417 59.2148 11.6238C59.3633 11.7332 59.875 11.8875 60.75 12.0867C61.6289 12.2859 62.2422 12.53 62.5898 12.8191C62.9336 13.1121 63.1055 13.5203 63.1055 14.0437C63.1055 14.614 62.8672 15.1042 62.3906 15.5144C61.9141 15.9246 61.209 16.1296 60.2754 16.1296C59.4277 16.1296 58.7559 15.9578 58.2598 15.614C57.7676 15.2703 57.4453 14.8035 57.293 14.2136Z" fill="white"/>
<defs>
<linearGradient id="paint0_linear_45_4237" x1="36" y1="1.98901" x2="36" y2="21.989" gradientUnits="userSpaceOnUse">
<stop stop-color="#7E63E2"/>
<stop offset="1" stop-color="#FF9914"/>
</linearGradient>
</defs>
</svg>
