<svg width="46" height="170" viewBox="0 0 46 170" fill="none" xmlns="http://www.w3.org/2000/svg">
<path d="M19.1722 163.593C24.2587 163.593 28.3822 159.469 28.3822 154.383C28.3822 149.296 24.2587 145.173 19.1722 145.173C14.0856 145.173 9.96216 149.296 9.96216 154.383C9.96216 159.469 14.0856 163.593 19.1722 163.593Z" fill="url(#paint0_radial_91_5186)"/>
<path d="M9.8411 169.531C14.9276 169.531 19.0511 165.407 19.0511 160.321C19.0511 155.234 14.9276 151.111 9.8411 151.111C4.75456 151.111 0.631104 155.234 0.631104 160.321C0.631104 165.407 4.75456 169.531 9.8411 169.531Z" fill="url(#paint1_radial_91_5186)"/>
<path d="M36.138 163.593C41.2245 163.593 45.348 159.469 45.348 154.383C45.348 149.296 41.2245 145.173 36.138 145.173C31.0514 145.173 26.928 149.296 26.928 154.383C26.928 159.469 31.0514 163.593 36.138 163.593Z" fill="url(#paint2_radial_91_5186)"/>
<path d="M26.8062 169.531C31.8927 169.531 36.0162 165.407 36.0162 160.321C36.0162 155.234 31.8927 151.111 26.8062 151.111C21.7196 151.111 17.5962 155.234 17.5962 160.321C17.5962 165.407 21.7196 169.531 26.8062 169.531Z" fill="url(#paint3_radial_91_5186)"/>
<path d="M10.877 152.848C15.9635 152.848 20.087 148.725 20.087 143.638C20.087 138.551 15.9635 134.428 10.877 134.428C5.79045 134.428 1.66699 138.551 1.66699 143.638C1.66699 148.725 5.79045 152.848 10.877 152.848Z" fill="url(#paint4_radial_91_5186)"/>
<path d="M35.1011 148.555C40.1877 148.555 44.3111 144.431 44.3111 139.345C44.3111 134.258 40.1877 130.135 35.1011 130.135C30.0146 130.135 25.8911 134.258 25.8911 139.345C25.8911 144.431 30.0146 148.555 35.1011 148.555Z" fill="url(#paint5_radial_91_5186)"/>
<path d="M24.9212 154.474C30.0077 154.474 34.1312 150.35 34.1312 145.264C34.1312 140.177 30.0077 136.054 24.9212 136.054C19.8346 136.054 15.7112 140.177 15.7112 145.264C15.7112 150.35 19.8346 154.474 24.9212 154.474Z" fill="url(#paint6_radial_91_5186)"/>
<path d="M28.5972 82.1788C33.6837 82.1788 37.8072 78.0553 37.8072 72.9688C37.8072 67.8822 33.6837 63.7588 28.5972 63.7588C23.5107 63.7588 19.3872 67.8822 19.3872 72.9688C19.3872 78.0553 23.5107 82.1788 28.5972 82.1788Z" fill="url(#paint7_radial_91_5186)"/>
<path d="M11.9141 136.165C17.0006 136.165 21.1241 132.041 21.1241 126.955C21.1241 121.868 17.0006 117.745 11.9141 117.745C6.82756 117.745 2.7041 121.868 2.7041 126.955C2.7041 132.041 6.82756 136.165 11.9141 136.165Z" fill="url(#paint8_radial_91_5186)"/>
<path d="M34.064 133.518C39.1505 133.518 43.274 129.394 43.274 124.308C43.274 119.221 39.1505 115.098 34.064 115.098C28.9775 115.098 24.854 119.221 24.854 124.308C24.854 129.394 28.9775 133.518 34.064 133.518Z" fill="url(#paint9_radial_91_5186)"/>
<path d="M12.9512 119.482C18.0378 119.482 22.1612 115.358 22.1612 110.272C22.1612 105.185 18.0378 101.062 12.9512 101.062C7.86468 101.062 3.74121 105.185 3.74121 110.272C3.74121 115.358 7.86468 119.482 12.9512 119.482Z" fill="url(#paint10_radial_91_5186)"/>
<path d="M33.0271 118.48C38.1137 118.48 42.2371 114.356 42.2371 109.27C42.2371 104.183 38.1137 100.06 33.0271 100.06C27.9406 100.06 23.8171 104.183 23.8171 109.27C23.8171 114.356 27.9406 118.48 33.0271 118.48Z" fill="url(#paint11_radial_91_5186)"/>
<path d="M26.7122 99.1449C31.7987 99.1449 35.9222 95.0214 35.9222 89.9348C35.9222 84.8483 31.7987 80.7249 26.7122 80.7249C21.6257 80.7249 17.5022 84.8483 17.5022 89.9348C17.5022 95.0214 21.6257 99.1449 26.7122 99.1449Z" fill="url(#paint12_radial_91_5186)"/>
<path d="M14.0252 102.799C19.1117 102.799 23.2352 98.6754 23.2352 93.5889C23.2352 88.5024 19.1117 84.3789 14.0252 84.3789C8.93864 84.3789 4.81519 88.5024 4.81519 93.5889C4.81519 98.6754 8.93864 102.799 14.0252 102.799Z" fill="url(#paint13_radial_91_5186)"/>
<path d="M31.99 103.442C37.0766 103.442 41.2 99.3185 41.2 94.232C41.2 89.1454 37.0766 85.022 31.99 85.022C26.9035 85.022 22.78 89.1454 22.78 94.232C22.78 99.3185 26.9035 103.442 31.99 103.442Z" fill="url(#paint14_radial_91_5186)"/>
<path d="M14.9881 86.1158C20.0746 86.1158 24.1981 81.9923 24.1981 76.9058C24.1981 71.8193 20.0746 67.6958 14.9881 67.6958C9.90153 67.6958 5.77808 71.8193 5.77808 76.9058C5.77808 81.9923 9.90153 86.1158 14.9881 86.1158Z" fill="url(#paint15_radial_91_5186)"/>
<path d="M30.9541 88.1729C36.0407 88.1729 40.1641 84.0495 40.1641 78.9629C40.1641 73.8764 36.0407 69.7529 30.9541 69.7529C25.8676 69.7529 21.7441 73.8764 21.7441 78.9629C21.7441 84.0495 25.8676 88.1729 30.9541 88.1729Z" fill="url(#paint16_radial_91_5186)"/>
<path d="M23.0362 139.417C28.1227 139.417 32.2462 135.293 32.2462 130.207C32.2462 125.12 28.1227 120.997 23.0362 120.997C17.9496 120.997 13.8262 125.12 13.8262 130.207C13.8262 135.293 17.9496 139.417 23.0362 139.417Z" fill="url(#paint17_radial_91_5186)"/>
<path d="M21.1512 124.36C26.2377 124.36 30.3612 120.236 30.3612 115.15C30.3612 110.063 26.2377 105.94 21.1512 105.94C16.0646 105.94 11.9412 110.063 11.9412 115.15C11.9412 120.236 16.0646 124.36 21.1512 124.36Z" fill="url(#paint18_radial_91_5186)"/>
<path d="M19.2662 109.302C24.3527 109.302 28.4762 105.178 28.4762 100.092C28.4762 95.0053 24.3527 90.8818 19.2662 90.8818C14.1796 90.8818 10.0562 95.0053 10.0562 100.092C10.0562 105.178 14.1796 109.302 19.2662 109.302Z" fill="url(#paint19_radial_91_5186)"/>
<path d="M17.3811 92.3367C22.4677 92.3367 26.5911 88.2133 26.5911 83.1267C26.5911 78.0402 22.4677 73.9167 17.3811 73.9167C12.2946 73.9167 8.17114 78.0402 8.17114 83.1267C8.17114 88.2133 12.2946 92.3367 17.3811 92.3367Z" fill="url(#paint20_radial_91_5186)"/>
<path d="M30.4822 65.2139C35.5688 65.2139 39.6922 61.0905 39.6922 56.0039C39.6922 50.9174 35.5688 46.7939 30.4822 46.7939C25.3957 46.7939 21.2722 50.9174 21.2722 56.0039C21.2722 61.0905 25.3957 65.2139 30.4822 65.2139Z" fill="url(#paint21_radial_91_5186)"/>
<path d="M16.0611 69.4329C21.1476 69.4329 25.2711 65.3095 25.2711 60.2229C25.2711 55.1364 21.1476 51.0129 16.0611 51.0129C10.9745 51.0129 6.85107 55.1364 6.85107 60.2229C6.85107 65.3095 10.9745 69.4329 16.0611 69.4329Z" fill="url(#paint22_radial_91_5186)"/>
<path d="M29.917 72.056C35.0036 72.056 39.127 67.9325 39.127 62.846C39.127 57.7594 35.0036 53.636 29.917 53.636C24.8305 53.636 20.707 57.7594 20.707 62.846C20.707 67.9325 24.8305 72.056 29.917 72.056Z" fill="url(#paint23_radial_91_5186)"/>
<path d="M32.3682 49.0958C37.4547 49.0958 41.5782 44.9723 41.5782 39.8858C41.5782 34.7992 37.4547 30.6758 32.3682 30.6758C27.2817 30.6758 23.1582 34.7992 23.1582 39.8858C23.1582 44.9723 27.2817 49.0958 32.3682 49.0958Z" fill="url(#paint24_radial_91_5186)"/>
<path d="M17.0982 52.7498C22.1847 52.7498 26.3082 48.6264 26.3082 43.5398C26.3082 38.4533 22.1847 34.3298 17.0982 34.3298C12.0116 34.3298 7.88818 38.4533 7.88818 43.5398C7.88818 48.6264 12.0116 52.7498 17.0982 52.7498Z" fill="url(#paint25_radial_91_5186)"/>
<path d="M28.8802 57.6348C33.9667 57.6348 38.0902 53.5114 38.0902 48.4248C38.0902 43.3383 33.9667 39.2148 28.8802 39.2148C23.7936 39.2148 19.6702 43.3383 19.6702 48.4248C19.6702 53.5114 23.7936 57.6348 28.8802 57.6348Z" fill="url(#paint26_radial_91_5186)"/>
<path d="M34.2532 32.9788C39.3398 32.9788 43.4632 28.8554 43.4632 23.7688C43.4632 18.6823 39.3398 14.5588 34.2532 14.5588C29.1667 14.5588 25.0432 18.6823 25.0432 23.7688C25.0432 28.8554 29.1667 32.9788 34.2532 32.9788Z" fill="url(#paint27_radial_91_5186)"/>
<path d="M18.135 36.067C23.2216 36.067 27.345 31.9435 27.345 26.857C27.345 21.7704 23.2216 17.647 18.135 17.647C13.0485 17.647 8.92505 21.7704 8.92505 26.857C8.92505 31.9435 13.0485 36.067 18.135 36.067Z" fill="url(#paint28_radial_91_5186)"/>
<path d="M27.8431 41.5169C32.9296 41.5169 37.0531 37.3935 37.0531 32.3069C37.0531 27.2204 32.9296 23.0969 27.8431 23.0969C22.7565 23.0969 18.6331 27.2204 18.6331 32.3069C18.6331 37.3935 22.7565 41.5169 27.8431 41.5169Z" fill="url(#paint29_radial_91_5186)"/>
<path d="M19.1722 19.3839C24.2587 19.3839 28.3822 15.2604 28.3822 10.1739C28.3822 5.08732 24.2587 0.963867 19.1722 0.963867C14.0856 0.963867 9.96216 5.08732 9.96216 10.1739C9.96216 15.2604 14.0856 19.3839 19.1722 19.3839Z" fill="url(#paint30_radial_91_5186)"/>
<path d="M36.138 19.3839C41.2245 19.3839 45.348 15.2604 45.348 10.1739C45.348 5.08732 41.2245 0.963867 36.138 0.963867C31.0514 0.963867 26.928 5.08732 26.928 10.1739C26.928 15.2604 31.0514 19.3839 36.138 19.3839Z" fill="url(#paint31_radial_91_5186)"/>
<path d="M26.8062 25.3219C31.8927 25.3219 36.0162 21.1984 36.0162 16.1119C36.0162 11.0253 31.8927 6.90186 26.8062 6.90186C21.7196 6.90186 17.5962 11.0253 17.5962 16.1119C17.5962 21.1984 21.7196 25.3219 26.8062 25.3219Z" fill="url(#paint32_radial_91_5186)"/>
<path d="M15.4961 75.3709C20.5827 75.3709 24.7061 71.2475 24.7061 66.1609C24.7061 61.0744 20.5827 56.9509 15.4961 56.9509C10.4096 56.9509 6.28613 61.0744 6.28613 66.1609C6.28613 71.2475 10.4096 75.3709 15.4961 75.3709Z" fill="url(#paint33_radial_91_5186)"/>
<path d="M13.6111 58.4049C18.6977 58.4049 22.8211 54.2814 22.8211 49.1949C22.8211 44.1083 18.6977 39.9849 13.6111 39.9849C8.52458 39.9849 4.40112 44.1083 4.40112 49.1949C4.40112 54.2814 8.52458 58.4049 13.6111 58.4049Z" fill="url(#paint34_radial_91_5186)"/>
<path d="M11.7261 41.4388C16.8127 41.4388 20.9361 37.3153 20.9361 32.2288C20.9361 27.1423 16.8127 23.0188 11.7261 23.0188C6.63957 23.0188 2.51611 27.1423 2.51611 32.2288C2.51611 37.3153 6.63957 41.4388 11.7261 41.4388Z" fill="url(#paint35_radial_91_5186)"/>
<path d="M9.8411 25.3219C14.9276 25.3219 19.0511 21.1984 19.0511 16.1119C19.0511 11.0253 14.9276 6.90186 9.8411 6.90186C4.75456 6.90186 0.631104 11.0253 0.631104 16.1119C0.631104 21.1984 4.75456 25.3219 9.8411 25.3219Z" fill="url(#paint36_radial_91_5186)"/>
<defs>
<radialGradient id="paint0_radial_91_5186" cx="0" cy="0" r="1" gradientUnits="userSpaceOnUse" gradientTransform="translate(16.6892 151.589) scale(9.21 9.21)">
<stop stop-color="#FFE6D5"/>
<stop offset="1" stop-color="#FF7F2A"/>
</radialGradient>
<radialGradient id="paint1_radial_91_5186" cx="0" cy="0" r="1" gradientUnits="userSpaceOnUse" gradientTransform="translate(7.3581 157.527) scale(9.21)">
<stop stop-color="#FFE6D5"/>
<stop offset="1" stop-color="#FF7F2A"/>
</radialGradient>
<radialGradient id="paint2_radial_91_5186" cx="0" cy="0" r="1" gradientUnits="userSpaceOnUse" gradientTransform="translate(33.655 151.589) scale(9.21 9.21)">
<stop stop-color="#FFE6D5"/>
<stop offset="1" stop-color="#FF7F2A"/>
</radialGradient>
<radialGradient id="paint3_radial_91_5186" cx="0" cy="0" r="1" gradientUnits="userSpaceOnUse" gradientTransform="translate(24.3232 157.527) scale(9.21)">
<stop stop-color="#FFE6D5"/>
<stop offset="1" stop-color="#FF7F2A"/>
</radialGradient>
<radialGradient id="paint4_radial_91_5186" cx="0" cy="0" r="1" gradientUnits="userSpaceOnUse" gradientTransform="translate(8.39399 140.844) scale(9.21 9.21)">
<stop stop-color="#FFE6D5"/>
<stop offset="1" stop-color="#FF7F2A"/>
</radialGradient>
<radialGradient id="paint5_radial_91_5186" cx="0" cy="0" r="1" gradientUnits="userSpaceOnUse" gradientTransform="translate(32.6181 136.551) scale(9.21 9.21)">
<stop stop-color="#FFE6D5"/>
<stop offset="1" stop-color="#FF7F2A"/>
</radialGradient>
<radialGradient id="paint6_radial_91_5186" cx="0" cy="0" r="1" gradientUnits="userSpaceOnUse" gradientTransform="translate(22.4382 142.47) scale(9.21 9.21)">
<stop stop-color="#FFE6D5"/>
<stop offset="1" stop-color="#FF7F2A"/>
</radialGradient>
<radialGradient id="paint7_radial_91_5186" cx="0" cy="0" r="1" gradientUnits="userSpaceOnUse" gradientTransform="translate(26.1142 70.1748) scale(9.21 9.21)">
<stop stop-color="#FFE6D5"/>
<stop offset="1" stop-color="#FF7F2A"/>
</radialGradient>
<radialGradient id="paint8_radial_91_5186" cx="0" cy="0" r="1" gradientUnits="userSpaceOnUse" gradientTransform="translate(9.4301 124.16) scale(9.21)">
<stop stop-color="#FFD5D5"/>
<stop offset="1" stop-color="#FF0000"/>
</radialGradient>
<radialGradient id="paint9_radial_91_5186" cx="0" cy="0" r="1" gradientUnits="userSpaceOnUse" gradientTransform="translate(31.58 121.513) scale(9.21 9.21)">
<stop stop-color="#FFD5D5"/>
<stop offset="1" stop-color="#FF0000"/>
</radialGradient>
<radialGradient id="paint10_radial_91_5186" cx="0" cy="0" r="1" gradientUnits="userSpaceOnUse" gradientTransform="translate(10.4672 107.477) scale(9.21 9.21)">
<stop stop-color="#FFD5D5"/>
<stop offset="1" stop-color="#FF0000"/>
</radialGradient>
<radialGradient id="paint11_radial_91_5186" cx="0" cy="0" r="1" gradientUnits="userSpaceOnUse" gradientTransform="translate(30.5431 106.475) scale(9.21 9.21)">
<stop stop-color="#FFD5D5"/>
<stop offset="1" stop-color="#FF0000"/>
</radialGradient>
<radialGradient id="paint12_radial_91_5186" cx="0" cy="0" r="1" gradientUnits="userSpaceOnUse" gradientTransform="translate(24.2282 87.1399) scale(9.21)">
<stop stop-color="#FFD5D5"/>
<stop offset="1" stop-color="#FF0000"/>
</radialGradient>
<radialGradient id="paint13_radial_91_5186" cx="0" cy="0" r="1" gradientUnits="userSpaceOnUse" gradientTransform="translate(11.5412 90.7939) scale(9.21 9.21)">
<stop stop-color="#FFD5D5"/>
<stop offset="1" stop-color="#FF0000"/>
</radialGradient>
<radialGradient id="paint14_radial_91_5186" cx="0" cy="0" r="1" gradientUnits="userSpaceOnUse" gradientTransform="translate(29.506 91.437) scale(9.21 9.21)">
<stop stop-color="#FFD5D5"/>
<stop offset="1" stop-color="#FF0000"/>
</radialGradient>
<radialGradient id="paint15_radial_91_5186" cx="0" cy="0" r="1" gradientUnits="userSpaceOnUse" gradientTransform="translate(12.5041 74.1108) scale(9.21 9.21)">
<stop stop-color="#FFD5D5"/>
<stop offset="1" stop-color="#FF0000"/>
</radialGradient>
<radialGradient id="paint16_radial_91_5186" cx="0" cy="0" r="1" gradientUnits="userSpaceOnUse" gradientTransform="translate(28.4701 76.1679) scale(9.21)">
<stop stop-color="#FFD5D5"/>
<stop offset="1" stop-color="#FF0000"/>
</radialGradient>
<radialGradient id="paint17_radial_91_5186" cx="0" cy="0" r="1" gradientUnits="userSpaceOnUse" gradientTransform="translate(20.5522 127.412) scale(9.21)">
<stop stop-color="#FFD5D5"/>
<stop offset="1" stop-color="#FF0000"/>
</radialGradient>
<radialGradient id="paint18_radial_91_5186" cx="0" cy="0" r="1" gradientUnits="userSpaceOnUse" gradientTransform="translate(18.6672 112.355) scale(9.21)">
<stop stop-color="#FFD5D5"/>
<stop offset="1" stop-color="#FF0000"/>
</radialGradient>
<radialGradient id="paint19_radial_91_5186" cx="0" cy="0" r="1" gradientUnits="userSpaceOnUse" gradientTransform="translate(16.7822 97.2968) scale(9.21 9.21)">
<stop stop-color="#FFD5D5"/>
<stop offset="1" stop-color="#FF0000"/>
</radialGradient>
<radialGradient id="paint20_radial_91_5186" cx="0" cy="0" r="1" gradientUnits="userSpaceOnUse" gradientTransform="translate(14.8971 80.3317) scale(9.21 9.21)">
<stop stop-color="#FFD5D5"/>
<stop offset="1" stop-color="#FF0000"/>
</radialGradient>
<radialGradient id="paint21_radial_91_5186" cx="0" cy="0" r="1" gradientUnits="userSpaceOnUse" gradientTransform="translate(27.9992 53.2099) scale(9.21)">
<stop stop-color="#FFE6D5"/>
<stop offset="1" stop-color="#FF7F2A"/>
</radialGradient>
<radialGradient id="paint22_radial_91_5186" cx="0" cy="0" r="1" gradientUnits="userSpaceOnUse" gradientTransform="translate(13.5781 57.4289) scale(9.21)">
<stop stop-color="#FFE6D5"/>
<stop offset="1" stop-color="#FF7F2A"/>
</radialGradient>
<radialGradient id="paint23_radial_91_5186" cx="0" cy="0" r="1" gradientUnits="userSpaceOnUse" gradientTransform="translate(27.434 60.052) scale(9.21)">
<stop stop-color="#FFE6D5"/>
<stop offset="1" stop-color="#FF7F2A"/>
</radialGradient>
<radialGradient id="paint24_radial_91_5186" cx="0" cy="0" r="1" gradientUnits="userSpaceOnUse" gradientTransform="translate(29.8852 37.0918) scale(9.21)">
<stop stop-color="#FFE6D5"/>
<stop offset="1" stop-color="#FF7F2A"/>
</radialGradient>
<radialGradient id="paint25_radial_91_5186" cx="0" cy="0" r="1" gradientUnits="userSpaceOnUse" gradientTransform="translate(14.6152 40.7458) scale(9.21)">
<stop stop-color="#FFE6D5"/>
<stop offset="1" stop-color="#FF7F2A"/>
</radialGradient>
<radialGradient id="paint26_radial_91_5186" cx="0" cy="0" r="1" gradientUnits="userSpaceOnUse" gradientTransform="translate(26.3972 45.6308) scale(9.21 9.21)">
<stop stop-color="#FFE6D5"/>
<stop offset="1" stop-color="#FF7F2A"/>
</radialGradient>
<radialGradient id="paint27_radial_91_5186" cx="0" cy="0" r="1" gradientUnits="userSpaceOnUse" gradientTransform="translate(31.7702 20.9748) scale(9.21)">
<stop stop-color="#FFE6D5"/>
<stop offset="1" stop-color="#FF7F2A"/>
</radialGradient>
<radialGradient id="paint28_radial_91_5186" cx="0" cy="0" r="1" gradientUnits="userSpaceOnUse" gradientTransform="translate(15.652 24.063) scale(9.21)">
<stop stop-color="#FFE6D5"/>
<stop offset="1" stop-color="#FF7F2A"/>
</radialGradient>
<radialGradient id="paint29_radial_91_5186" cx="0" cy="0" r="1" gradientUnits="userSpaceOnUse" gradientTransform="translate(25.3601 29.5129) scale(9.21)">
<stop stop-color="#FFE6D5"/>
<stop offset="1" stop-color="#FF7F2A"/>
</radialGradient>
<radialGradient id="paint30_radial_91_5186" cx="0" cy="0" r="1" gradientUnits="userSpaceOnUse" gradientTransform="translate(16.6892 7.37987) scale(9.21)">
<stop stop-color="#FFE6D5"/>
<stop offset="1" stop-color="#FF7F2A"/>
</radialGradient>
<radialGradient id="paint31_radial_91_5186" cx="0" cy="0" r="1" gradientUnits="userSpaceOnUse" gradientTransform="translate(33.655 7.37987) scale(9.21)">
<stop stop-color="#FFE6D5"/>
<stop offset="1" stop-color="#FF7F2A"/>
</radialGradient>
<radialGradient id="paint32_radial_91_5186" cx="0" cy="0" r="1" gradientUnits="userSpaceOnUse" gradientTransform="translate(24.3232 13.3179) scale(9.21)">
<stop stop-color="#FFE6D5"/>
<stop offset="1" stop-color="#FF7F2A"/>
</radialGradient>
<radialGradient id="paint33_radial_91_5186" cx="0" cy="0" r="1" gradientUnits="userSpaceOnUse" gradientTransform="translate(13.0131 63.3669) scale(9.21 9.21)">
<stop stop-color="#FFE6D5"/>
<stop offset="1" stop-color="#FF7F2A"/>
</radialGradient>
<radialGradient id="paint34_radial_91_5186" cx="0" cy="0" r="1" gradientUnits="userSpaceOnUse" gradientTransform="translate(11.1281 46.4009) scale(9.21)">
<stop stop-color="#FFE6D5"/>
<stop offset="1" stop-color="#FF7F2A"/>
</radialGradient>
<radialGradient id="paint35_radial_91_5186" cx="0" cy="0" r="1" gradientUnits="userSpaceOnUse" gradientTransform="translate(9.24311 29.4348) scale(9.21)">
<stop stop-color="#FFE6D5"/>
<stop offset="1" stop-color="#FF7F2A"/>
</radialGradient>
<radialGradient id="paint36_radial_91_5186" cx="0" cy="0" r="1" gradientUnits="userSpaceOnUse" gradientTransform="translate(7.3581 13.3179) scale(9.21)">
<stop stop-color="#FFE6D5"/>
<stop offset="1" stop-color="#FF7F2A"/>
</radialGradient>
</defs>
</svg>
