<svg width="62" height="36" viewBox="0 0 62 36" fill="none" xmlns="http://www.w3.org/2000/svg">
<rect x="2" y="1.98901" width="59" height="32" rx="10" fill="url(#paint0_linear_67_1881)"/>
<rect x="2" y="1.98901" width="59" height="32" rx="10" stroke="#BF5500" stroke-width="3" stroke-linejoin="round"/>
<path d="M10.916 12.1941L12.6035 12.03C12.7051 12.5964 12.9102 13.0125 13.2188 13.2781C13.5312 13.5437 13.9512 13.6765 14.4785 13.6765C15.0371 13.6765 15.457 13.5593 15.7383 13.325C16.0234 13.0867 16.166 12.8093 16.166 12.4929C16.166 12.2898 16.1055 12.1179 15.9844 11.9773C15.8672 11.8328 15.6602 11.7078 15.3633 11.6023C15.1602 11.532 14.6973 11.407 13.9746 11.2273C13.0449 10.9968 12.3926 10.7136 12.0176 10.3777C11.4902 9.90503 11.2266 9.32886 11.2266 8.64917C11.2266 8.21167 11.3496 7.80347 11.5957 7.42456C11.8457 7.04175 12.2031 6.75073 12.668 6.55151C13.1367 6.35229 13.7012 6.25269 14.3613 6.25269C15.4395 6.25269 16.25 6.48901 16.793 6.96167C17.3398 7.43433 17.627 8.06519 17.6543 8.85425L15.9199 8.93042C15.8457 8.48901 15.6855 8.17261 15.4395 7.9812C15.1973 7.78589 14.832 7.68823 14.3438 7.68823C13.8398 7.68823 13.4453 7.79175 13.1602 7.99878C12.9766 8.13159 12.8848 8.30933 12.8848 8.53198C12.8848 8.73511 12.9707 8.90894 13.1426 9.05347C13.3613 9.23706 13.8926 9.42847 14.7363 9.62769C15.5801 9.8269 16.2031 10.0339 16.6055 10.2488C17.0117 10.4597 17.3281 10.7507 17.5547 11.1218C17.7852 11.489 17.9004 11.9441 17.9004 12.4871C17.9004 12.9792 17.7637 13.4402 17.4902 13.8699C17.2168 14.2996 16.8301 14.6199 16.3301 14.8308C15.8301 15.0378 15.207 15.1414 14.4609 15.1414C13.375 15.1414 12.541 14.8914 11.959 14.3914C11.377 13.8875 11.0293 13.155 10.916 12.1941ZM24.8555 11.8308L26.5371 12.364C26.2793 13.3015 25.8496 13.9988 25.248 14.4558C24.6504 14.9089 23.8906 15.1355 22.9688 15.1355C21.8281 15.1355 20.8906 14.7468 20.1562 13.9695C19.4219 13.1882 19.0547 12.1218 19.0547 10.7703C19.0547 9.34058 19.4238 8.2312 20.1621 7.44214C20.9004 6.64917 21.8711 6.25269 23.0742 6.25269C24.125 6.25269 24.9785 6.56323 25.6348 7.18433C26.0254 7.55151 26.3184 8.07886 26.5137 8.76636L24.7969 9.17651C24.6953 8.7312 24.4824 8.37964 24.1582 8.12183C23.8379 7.86401 23.4473 7.73511 22.9863 7.73511C22.3496 7.73511 21.832 7.96362 21.4336 8.42065C21.0391 8.87769 20.8418 9.61792 20.8418 10.6414C20.8418 11.7273 21.0371 12.5007 21.4277 12.9617C21.8184 13.4226 22.3262 13.6531 22.9512 13.6531C23.4121 13.6531 23.8086 13.5066 24.1406 13.2136C24.4727 12.9207 24.7109 12.4597 24.8555 11.8308ZM28.043 14.989V6.39917H33.9316V7.85229H29.7773V9.8855H33.3633V11.3386H29.7773V14.989H28.043ZM38.707 14.989V6.39917H45.0762V7.85229H40.4414V9.75659H44.7539V11.2039H40.4414V13.5417H45.2402V14.989H38.707ZM46.2891 12.7097L47.8828 12.5164C47.9336 12.9226 48.0703 13.2332 48.293 13.448C48.5156 13.6628 48.7852 13.7703 49.1016 13.7703C49.4414 13.7703 49.7266 13.6414 49.957 13.3835C50.1914 13.1257 50.3086 12.7781 50.3086 12.3406C50.3086 11.9265 50.1973 11.5984 49.9746 11.3562C49.752 11.114 49.4805 10.9929 49.1602 10.9929C48.9492 10.9929 48.6973 11.0339 48.4043 11.116L48.5859 9.77417C49.0312 9.78589 49.3711 9.69019 49.6055 9.48706C49.8398 9.28003 49.957 9.00659 49.957 8.66675C49.957 8.37769 49.8711 8.14722 49.6992 7.97534C49.5273 7.80347 49.2988 7.71753 49.0137 7.71753C48.7324 7.71753 48.4922 7.81519 48.293 8.0105C48.0938 8.20581 47.9727 8.49097 47.9297 8.86597L46.4121 8.60815C46.5176 8.08862 46.6758 7.67456 46.8867 7.36597C47.1016 7.05347 47.3984 6.80933 47.7773 6.63354C48.1602 6.45386 48.5879 6.36401 49.0605 6.36401C49.8691 6.36401 50.5176 6.62183 51.0059 7.13745C51.4082 7.55933 51.6094 8.03589 51.6094 8.56714C51.6094 9.32104 51.1973 9.92261 50.373 10.3718C50.8652 10.4773 51.2578 10.7136 51.5508 11.0808C51.8477 11.448 51.9961 11.8914 51.9961 12.4109C51.9961 13.1648 51.7207 13.8074 51.1699 14.3386C50.6191 14.8699 49.9336 15.1355 49.1133 15.1355C48.3359 15.1355 47.6914 14.9128 47.1797 14.4675C46.668 14.0183 46.3711 13.4324 46.2891 12.7097ZM10.0723 28.989V20.4695H11.8066V27.5417H16.1191V28.989H10.0723ZM17.3086 28.989V20.3992H19.043V28.989H17.3086ZM24.6973 25.8308V24.3835H28.4355V27.8054C28.0723 28.157 27.5449 28.4675 26.8535 28.7371C26.166 29.0027 25.4688 29.1355 24.7617 29.1355C23.8633 29.1355 23.0801 28.948 22.4121 28.573C21.7441 28.1941 21.2422 27.655 20.9062 26.9558C20.5703 26.2527 20.4023 25.489 20.4023 24.6648C20.4023 23.7703 20.5898 22.9753 20.9648 22.28C21.3398 21.5847 21.8887 21.0515 22.6113 20.6804C23.1621 20.3953 23.8477 20.2527 24.668 20.2527C25.7344 20.2527 26.5664 20.4773 27.1641 20.9265C27.7656 21.3718 28.1523 21.989 28.3242 22.7781L26.6016 23.1003C26.4805 22.6785 26.252 22.3464 25.916 22.1042C25.584 21.8582 25.168 21.7351 24.668 21.7351C23.9102 21.7351 23.3066 21.9753 22.8574 22.4558C22.4121 22.9363 22.1895 23.6492 22.1895 24.5945C22.1895 25.614 22.416 26.3796 22.8691 26.8914C23.3223 27.3992 23.916 27.6531 24.6504 27.6531C25.0137 27.6531 25.377 27.5828 25.7402 27.4421C26.1074 27.2976 26.4219 27.1238 26.6836 26.9207V25.8308H24.6973ZM37.7871 28.989H35.9004L35.1504 27.0378H31.7168L31.0078 28.989H29.168L32.5137 20.3992H34.3477L37.7871 28.989ZM34.5938 25.5906L33.4102 22.4031L32.25 25.5906H34.5938ZM38.2734 26.1941L39.9609 26.03C40.0625 26.5964 40.2676 27.0125 40.5762 27.2781C40.8887 27.5437 41.3086 27.6765 41.8359 27.6765C42.3945 27.6765 42.8145 27.5593 43.0957 27.325C43.3809 27.0867 43.5234 26.8093 43.5234 26.4929C43.5234 26.2898 43.4629 26.1179 43.3418 25.9773C43.2246 25.8328 43.0176 25.7078 42.7207 25.6023C42.5176 25.532 42.0547 25.407 41.332 25.2273C40.4023 24.9968 39.75 24.7136 39.375 24.3777C38.8477 23.905 38.584 23.3289 38.584 22.6492C38.584 22.2117 38.707 21.8035 38.9531 21.4246C39.2031 21.0417 39.5605 20.7507 40.0254 20.5515C40.4941 20.3523 41.0586 20.2527 41.7188 20.2527C42.7969 20.2527 43.6074 20.489 44.1504 20.9617C44.6973 21.4343 44.9844 22.0652 45.0117 22.8542L43.2773 22.9304C43.2031 22.489 43.043 22.1726 42.7969 21.9812C42.5547 21.7859 42.1895 21.6882 41.7012 21.6882C41.1973 21.6882 40.8027 21.7917 40.5176 21.9988C40.334 22.1316 40.2422 22.3093 40.2422 22.532C40.2422 22.7351 40.3281 22.9089 40.5 23.0535C40.7188 23.2371 41.25 23.4285 42.0938 23.6277C42.9375 23.8269 43.5605 24.0339 43.9629 24.2488C44.3691 24.4597 44.6855 24.7507 44.9121 25.1218C45.1426 25.489 45.2578 25.9441 45.2578 26.4871C45.2578 26.9792 45.1211 27.4402 44.8477 27.8699C44.5742 28.2996 44.1875 28.6199 43.6875 28.8308C43.1875 29.0378 42.5645 29.1414 41.8184 29.1414C40.7324 29.1414 39.8984 28.8914 39.3164 28.3914C38.7344 27.8875 38.3867 27.155 38.2734 26.1941ZM46.7168 28.989V20.3992H53.0859V21.8523H48.4512V23.7566H52.7637V25.2039H48.4512V27.5417H53.25V28.989H46.7168Z" fill="white"/>
<defs>
<linearGradient id="paint0_linear_67_1881" x1="31.5" y1="1.98901" x2="31.5" y2="33.989" gradientUnits="userSpaceOnUse">
<stop stop-color="#BF5500"/>
<stop offset="1" stop-color="#82FFC9"/>
</linearGradient>
</defs>
</svg>
