<svg width="104" height="24" viewBox="0 0 104 24" fill="none" xmlns="http://www.w3.org/2000/svg">
<rect x="1" y="1.98901" width="102" height="20" rx="10" fill="url(#paint0_linear_83_2005)"/>
<rect x="1" y="1.98901" width="102" height="20" rx="10" stroke="#8BA11B" stroke-width="3" stroke-linejoin="round"/>
<path d="M11.1133 15.989V8.85229H8.56445V7.39917H15.3906V8.85229H12.8477V15.989H11.1133ZM16.5215 15.989V7.39917H18.2559V10.78H21.6543V7.39917H23.3887V15.989H21.6543V12.2332H18.2559V15.989H16.5215ZM27.4434 15.989V12.3738L24.2969 7.39917H26.3301L28.3516 10.7976L30.332 7.39917H32.3301L29.1719 12.3855V15.989H27.4434ZM33.1973 15.989V7.39917H36.8477C37.7656 7.39917 38.4316 7.47729 38.8457 7.63354C39.2637 7.78589 39.5977 8.05933 39.8477 8.45386C40.0977 8.84839 40.2227 9.29956 40.2227 9.80737C40.2227 10.4519 40.0332 10.9851 39.6543 11.407C39.2754 11.825 38.709 12.0886 37.9551 12.198C38.3301 12.4167 38.6387 12.657 38.8809 12.9187C39.127 13.1804 39.457 13.6453 39.8711 14.3132L40.9199 15.989H38.8457L37.5918 14.1199C37.1465 13.4519 36.8418 13.032 36.6777 12.8601C36.5137 12.6843 36.3398 12.5652 36.1562 12.5027C35.9727 12.4363 35.6816 12.4031 35.2832 12.4031H34.9316V15.989H33.1973ZM34.9316 11.032H36.2148C37.0469 11.032 37.5664 10.9968 37.7734 10.9265C37.9805 10.8562 38.1426 10.7351 38.2598 10.5632C38.377 10.3914 38.4355 10.1765 38.4355 9.9187C38.4355 9.62964 38.3574 9.39722 38.2012 9.22144C38.0488 9.04175 37.832 8.92847 37.5508 8.88159C37.4102 8.86206 36.9883 8.85229 36.2852 8.85229H34.9316V11.032ZM41.5117 11.7468C41.5117 10.8718 41.6426 10.1375 41.9043 9.5437C42.0996 9.1062 42.3652 8.71362 42.7012 8.36597C43.041 8.01831 43.4121 7.7605 43.8145 7.59253C44.3496 7.36597 44.9668 7.25269 45.666 7.25269C46.9316 7.25269 47.9434 7.64526 48.7012 8.43042C49.4629 9.21558 49.8438 10.3074 49.8438 11.7058C49.8438 13.0925 49.4668 14.1785 48.7129 14.9636C47.959 15.7449 46.9512 16.1355 45.6895 16.1355C44.4121 16.1355 43.3965 15.7468 42.6426 14.9695C41.8887 14.1882 41.5117 13.114 41.5117 11.7468ZM43.2988 11.6882C43.2988 12.6609 43.5234 13.3992 43.9727 13.9031C44.4219 14.4031 44.9922 14.6531 45.6836 14.6531C46.375 14.6531 46.9414 14.405 47.3828 13.9089C47.8281 13.4089 48.0508 12.6609 48.0508 11.6648C48.0508 10.6804 47.834 9.94604 47.4004 9.46167C46.9707 8.97729 46.3984 8.73511 45.6836 8.73511C44.9688 8.73511 44.3926 8.9812 43.9551 9.47339C43.5176 9.96167 43.2988 10.7 43.2988 11.6882ZM53.1367 15.989V8.85229H50.5879V7.39917H57.4141V8.85229H54.8711V15.989H53.1367ZM58.5449 15.989V7.39917H62.1953C63.1133 7.39917 63.7793 7.47729 64.1934 7.63354C64.6113 7.78589 64.9453 8.05933 65.1953 8.45386C65.4453 8.84839 65.5703 9.29956 65.5703 9.80737C65.5703 10.4519 65.3809 10.9851 65.002 11.407C64.623 11.825 64.0566 12.0886 63.3027 12.198C63.6777 12.4167 63.9863 12.657 64.2285 12.9187C64.4746 13.1804 64.8047 13.6453 65.2188 14.3132L66.2676 15.989H64.1934L62.9395 14.1199C62.4941 13.4519 62.1895 13.032 62.0254 12.8601C61.8613 12.6843 61.6875 12.5652 61.5039 12.5027C61.3203 12.4363 61.0293 12.4031 60.6309 12.4031H60.2793V15.989H58.5449ZM60.2793 11.032H61.5625C62.3945 11.032 62.9141 10.9968 63.1211 10.9265C63.3281 10.8562 63.4902 10.7351 63.6074 10.5632C63.7246 10.3914 63.7832 10.1765 63.7832 9.9187C63.7832 9.62964 63.7051 9.39722 63.5488 9.22144C63.3965 9.04175 63.1797 8.92847 62.8984 8.88159C62.7578 8.86206 62.3359 8.85229 61.6328 8.85229H60.2793V11.032ZM66.8594 11.7468C66.8594 10.8718 66.9902 10.1375 67.252 9.5437C67.4473 9.1062 67.7129 8.71362 68.0488 8.36597C68.3887 8.01831 68.7598 7.7605 69.1621 7.59253C69.6973 7.36597 70.3145 7.25269 71.0137 7.25269C72.2793 7.25269 73.291 7.64526 74.0488 8.43042C74.8105 9.21558 75.1914 10.3074 75.1914 11.7058C75.1914 13.0925 74.8145 14.1785 74.0605 14.9636C73.3066 15.7449 72.2988 16.1355 71.0371 16.1355C69.7598 16.1355 68.7441 15.7468 67.9902 14.9695C67.2363 14.1882 66.8594 13.114 66.8594 11.7468ZM68.6465 11.6882C68.6465 12.6609 68.8711 13.3992 69.3203 13.9031C69.7695 14.4031 70.3398 14.6531 71.0312 14.6531C71.7227 14.6531 72.2891 14.405 72.7305 13.9089C73.1758 13.4089 73.3984 12.6609 73.3984 11.6648C73.3984 10.6804 73.1816 9.94604 72.748 9.46167C72.3184 8.97729 71.7461 8.73511 71.0312 8.73511C70.3164 8.73511 69.7402 8.9812 69.3027 9.47339C68.8652 9.96167 68.6465 10.7 68.6465 11.6882ZM76.5508 15.989V7.39917H79.334C80.3887 7.39917 81.0762 7.44214 81.3965 7.52808C81.8887 7.65698 82.3008 7.93823 82.6328 8.37183C82.9648 8.80151 83.1309 9.35815 83.1309 10.0417C83.1309 10.5691 83.0352 11.0125 82.8438 11.3718C82.6523 11.7312 82.4082 12.0144 82.1113 12.2214C81.8184 12.4246 81.5195 12.5593 81.2148 12.6257C80.8008 12.7078 80.2012 12.7488 79.416 12.7488H78.2852V15.989H76.5508ZM78.2852 8.85229V11.2898H79.2344C79.918 11.2898 80.375 11.2449 80.6055 11.155C80.8359 11.0652 81.0156 10.9246 81.1445 10.7332C81.2773 10.5417 81.3438 10.3191 81.3438 10.0652C81.3438 9.75269 81.252 9.49487 81.0684 9.29175C80.8848 9.08862 80.6523 8.96167 80.3711 8.91089C80.1641 8.87183 79.748 8.85229 79.123 8.85229H78.2852ZM84.502 15.989V7.39917H86.2363V15.989H84.502ZM87.9121 15.989V7.39917H89.5996L93.1152 13.1355V7.39917H94.7266V15.989H92.9863L89.5234 10.3875V15.989H87.9121Z" fill="white"/>
<defs>
<linearGradient id="paint0_linear_83_2005" x1="52" y1="1.98901" x2="52" y2="21.989" gradientUnits="userSpaceOnUse">
<stop stop-color="#8BA11B"/>
<stop offset="1" stop-color="#1A9E9E"/>
</linearGradient>
</defs>
</svg>
