<svg width="44" height="24" viewBox="0 0 44 24" fill="none" xmlns="http://www.w3.org/2000/svg">
<rect x="2" y="1.98901" width="41" height="20" rx="10" fill="url(#paint0_linear_45_4231)"/>
<rect x="2" y="1.98901" width="41" height="20" rx="10" stroke="#8600F7" stroke-width="3" stroke-linejoin="round"/>
<path d="M14.0273 12.8308V11.3835H17.7656V14.8054C17.4023 15.157 16.875 15.4675 16.1836 15.7371C15.4961 16.0027 14.7988 16.1355 14.0918 16.1355C13.1934 16.1355 12.4102 15.948 11.7422 15.573C11.0742 15.1941 10.5723 14.655 10.2363 13.9558C9.90039 13.2527 9.73242 12.489 9.73242 11.6648C9.73242 10.7703 9.91992 9.97534 10.2949 9.28003C10.6699 8.58472 11.2188 8.05151 11.9414 7.68042C12.4922 7.39526 13.1777 7.25269 13.998 7.25269C15.0645 7.25269 15.8965 7.47729 16.4941 7.92651C17.0957 8.37183 17.4824 8.98901 17.6543 9.77808L15.9316 10.1003C15.8105 9.67847 15.582 9.34644 15.2461 9.10425C14.9141 8.85815 14.498 8.73511 13.998 8.73511C13.2402 8.73511 12.6367 8.97534 12.1875 9.45581C11.7422 9.93628 11.5195 10.6492 11.5195 11.5945C11.5195 12.614 11.7461 13.3796 12.1992 13.8914C12.6523 14.3992 13.2461 14.6531 13.9805 14.6531C14.3438 14.6531 14.707 14.5828 15.0703 14.4421C15.4375 14.2976 15.752 14.1238 16.0137 13.9207V12.8308H14.0273ZM27.1172 15.989H25.2305L24.4805 14.0378H21.0469L20.3379 15.989H18.498L21.8438 7.39917H23.6777L27.1172 15.989ZM23.9238 12.5906L22.7402 9.40308L21.5801 12.5906H23.9238ZM35.7891 15.989H33.9023L33.1523 14.0378H29.7188L29.0098 15.989H27.1699L30.5156 7.39917H32.3496L35.7891 15.989ZM32.5957 12.5906L31.4121 9.40308L30.252 12.5906H32.5957Z" fill="white"/>
<defs>
<linearGradient id="paint0_linear_45_4231" x1="22.5" y1="1.98901" x2="22.5" y2="21.989" gradientUnits="userSpaceOnUse">
<stop stop-color="#DE93F4"/>
<stop offset="1" stop-color="#8600F7"/>
</linearGradient>
</defs>
</svg>
