<svg width="66" height="36" viewBox="0 0 66 36" fill="none" xmlns="http://www.w3.org/2000/svg">
<rect x="2" y="1.98901" width="63" height="32" rx="10" fill="url(#paint0_linear_83_2000)"/>
<rect x="2" y="1.98901" width="63" height="32" rx="10" stroke="#094151" stroke-width="3" stroke-linejoin="round"/>
<path d="M14.293 14.989V7.85229H11.7441V6.39917H18.5703V7.85229H16.0273V14.989H14.293ZM19.6426 14.989V6.39917H21.377V14.989H19.6426ZM23.0117 14.989V6.39917H25.6074L27.166 12.2585L28.707 6.39917H31.3086V14.989H29.6973V8.22729L27.9922 14.989H26.3223L24.623 8.22729V14.989H23.0117ZM33.0078 14.989V6.39917H35.6035L37.1621 12.2585L38.7031 6.39917H41.3047V14.989H39.6934V8.22729L37.9883 14.989H36.3184L34.6191 8.22729V14.989H33.0078ZM48.2246 13.4597V14.989H42.4531C42.5156 14.4109 42.7031 13.864 43.0156 13.3484C43.3281 12.8289 43.9453 12.1414 44.8672 11.2859C45.6094 10.5945 46.0645 10.1257 46.2324 9.87964C46.459 9.53979 46.5723 9.20386 46.5723 8.87183C46.5723 8.50464 46.4727 8.22339 46.2734 8.02808C46.0781 7.82886 45.8066 7.72925 45.459 7.72925C45.1152 7.72925 44.8418 7.83276 44.6387 8.03979C44.4355 8.24683 44.3184 8.59058 44.2871 9.07104L42.6465 8.90698C42.7441 8.00073 43.0508 7.35034 43.5664 6.95581C44.082 6.56128 44.7266 6.36401 45.5 6.36401C46.3477 6.36401 47.0137 6.59253 47.498 7.04956C47.9824 7.50659 48.2246 8.07495 48.2246 8.75464C48.2246 9.14136 48.1543 9.5105 48.0137 9.86206C47.877 10.2097 47.6582 10.575 47.3574 10.9578C47.1582 11.2117 46.7988 11.5769 46.2793 12.0535C45.7598 12.53 45.4297 12.8464 45.2891 13.0027C45.1523 13.1589 45.041 13.3113 44.9551 13.4597H48.2246ZM49.2852 12.7097L50.8789 12.5164C50.9297 12.9226 51.0664 13.2332 51.2891 13.448C51.5117 13.6628 51.7812 13.7703 52.0977 13.7703C52.4375 13.7703 52.7227 13.6414 52.9531 13.3835C53.1875 13.1257 53.3047 12.7781 53.3047 12.3406C53.3047 11.9265 53.1934 11.5984 52.9707 11.3562C52.748 11.114 52.4766 10.9929 52.1562 10.9929C51.9453 10.9929 51.6934 11.0339 51.4004 11.116L51.582 9.77417C52.0273 9.78589 52.3672 9.69019 52.6016 9.48706C52.8359 9.28003 52.9531 9.00659 52.9531 8.66675C52.9531 8.37769 52.8672 8.14722 52.6953 7.97534C52.5234 7.80347 52.2949 7.71753 52.0098 7.71753C51.7285 7.71753 51.4883 7.81519 51.2891 8.0105C51.0898 8.20581 50.9688 8.49097 50.9258 8.86597L49.4082 8.60815C49.5137 8.08862 49.6719 7.67456 49.8828 7.36597C50.0977 7.05347 50.3945 6.80933 50.7734 6.63354C51.1562 6.45386 51.584 6.36401 52.0566 6.36401C52.8652 6.36401 53.5137 6.62183 54.002 7.13745C54.4043 7.55933 54.6055 8.03589 54.6055 8.56714C54.6055 9.32104 54.1934 9.92261 53.3691 10.3718C53.8613 10.4773 54.2539 10.7136 54.5469 11.0808C54.8438 11.448 54.9922 11.8914 54.9922 12.4109C54.9922 13.1648 54.7168 13.8074 54.166 14.3386C53.6152 14.8699 52.9297 15.1355 52.1094 15.1355C51.332 15.1355 50.6875 14.9128 50.1758 14.4675C49.6641 14.0183 49.3672 13.4324 49.2852 12.7097ZM15.4238 24.6062L13.8008 24.8992C13.7461 24.575 13.6211 24.3308 13.4258 24.1667C13.2344 24.0027 12.9844 23.9207 12.6758 23.9207C12.2656 23.9207 11.9375 24.0632 11.6914 24.3484C11.4492 24.6296 11.3281 25.1023 11.3281 25.7664C11.3281 26.5046 11.4512 27.0261 11.6973 27.3308C11.9473 27.6355 12.2812 27.7878 12.6992 27.7878C13.0117 27.7878 13.2676 27.7 13.4668 27.5242C13.666 27.3445 13.8066 27.0378 13.8887 26.6042L15.5059 26.8796C15.3379 27.6218 15.0156 28.1824 14.5391 28.5613C14.0625 28.9402 13.4238 29.1296 12.623 29.1296C11.7129 29.1296 10.9863 28.8425 10.4434 28.2683C9.9043 27.6941 9.63477 26.8992 9.63477 25.8835C9.63477 24.8562 9.90625 24.0574 10.4492 23.4871C10.9922 22.9128 11.7266 22.6257 12.6523 22.6257C13.4102 22.6257 14.0117 22.7898 14.457 23.1179C14.9062 23.4421 15.2285 23.9382 15.4238 24.6062ZM16.2969 25.7898C16.2969 25.2429 16.4316 24.7136 16.7012 24.2019C16.9707 23.6902 17.3516 23.2996 17.8438 23.03C18.3398 22.7605 18.8926 22.6257 19.502 22.6257C20.4434 22.6257 21.2148 22.9324 21.8164 23.5457C22.418 24.155 22.7188 24.9265 22.7188 25.8601C22.7188 26.8015 22.4141 27.5828 21.8047 28.2039C21.1992 28.821 20.4355 29.1296 19.5137 29.1296C18.9434 29.1296 18.3984 29.0007 17.8789 28.7429C17.3633 28.4851 16.9707 28.1082 16.7012 27.6121C16.4316 27.1121 16.2969 26.5046 16.2969 25.7898ZM17.9844 25.8777C17.9844 26.4949 18.1309 26.9675 18.4238 27.2957C18.7168 27.6238 19.0781 27.7878 19.5078 27.7878C19.9375 27.7878 20.2969 27.6238 20.5859 27.2957C20.8789 26.9675 21.0254 26.491 21.0254 25.866C21.0254 25.2566 20.8789 24.7878 20.5859 24.4597C20.2969 24.1316 19.9375 23.9675 19.5078 23.9675C19.0781 23.9675 18.7168 24.1316 18.4238 24.4597C18.1309 24.7878 17.9844 25.2605 17.9844 25.8777ZM23.8906 22.7664H25.4082V23.616C25.9512 22.9558 26.5977 22.6257 27.3477 22.6257C27.7461 22.6257 28.0918 22.7078 28.3848 22.8718C28.6777 23.0359 28.918 23.2839 29.1055 23.616C29.3789 23.2839 29.6738 23.0359 29.9902 22.8718C30.3066 22.7078 30.6445 22.6257 31.0039 22.6257C31.4609 22.6257 31.8477 22.7195 32.1641 22.907C32.4805 23.0906 32.7168 23.3621 32.873 23.7214C32.9863 23.9871 33.043 24.4167 33.043 25.0105V28.989H31.3965V25.4324C31.3965 24.8152 31.3398 24.4167 31.2266 24.2371C31.0742 24.0027 30.8398 23.8855 30.5234 23.8855C30.293 23.8855 30.0762 23.9558 29.873 24.0964C29.6699 24.2371 29.5234 24.4441 29.4336 24.7175C29.3438 24.9871 29.2988 25.4148 29.2988 26.0007V28.989H27.6523V25.5789C27.6523 24.9734 27.623 24.5828 27.5645 24.407C27.5059 24.2312 27.4141 24.1003 27.2891 24.0144C27.168 23.9285 27.002 23.8855 26.791 23.8855C26.5371 23.8855 26.3086 23.9539 26.1055 24.0906C25.9023 24.2273 25.7559 24.4246 25.666 24.6824C25.5801 24.9402 25.5371 25.3679 25.5371 25.9656V28.989H23.8906V22.7664ZM34.6426 22.7664H36.1777V23.6804C36.377 23.3679 36.6465 23.114 36.9863 22.9187C37.3262 22.7234 37.7031 22.6257 38.1172 22.6257C38.8398 22.6257 39.4531 22.9089 39.957 23.4753C40.4609 24.0417 40.7129 24.8308 40.7129 25.8425C40.7129 26.8816 40.459 27.6902 39.9512 28.2683C39.4434 28.8425 38.8281 29.1296 38.1055 29.1296C37.7617 29.1296 37.4492 29.0613 37.168 28.9246C36.8906 28.7878 36.5977 28.5535 36.2891 28.2214V31.3562H34.6426V22.7664ZM36.2715 25.7722C36.2715 26.4714 36.4102 26.989 36.6875 27.325C36.9648 27.657 37.3027 27.823 37.7012 27.823C38.084 27.823 38.4023 27.6707 38.6562 27.366C38.9102 27.0574 39.0371 26.5535 39.0371 25.8542C39.0371 25.2019 38.9062 24.7175 38.6445 24.4011C38.3828 24.0847 38.0586 23.9265 37.6719 23.9265C37.2695 23.9265 36.9355 24.0828 36.6699 24.3953C36.4043 24.7039 36.2715 25.1628 36.2715 25.7722ZM42.0254 28.989V20.3992H43.6719V28.989H42.0254ZM48.9688 27.0085L50.6094 27.2839C50.3984 27.8855 50.0645 28.3445 49.6074 28.6609C49.1543 28.9734 48.5859 29.1296 47.9023 29.1296C46.8203 29.1296 46.0195 28.7761 45.5 28.0691C45.0898 27.5027 44.8848 26.7878 44.8848 25.9246C44.8848 24.8933 45.1543 24.0867 45.6934 23.5046C46.2324 22.9187 46.9141 22.6257 47.7383 22.6257C48.6641 22.6257 49.3945 22.9324 49.9297 23.5457C50.4648 24.155 50.7207 25.0906 50.6973 26.3523H46.5723C46.584 26.8406 46.7168 27.2214 46.9707 27.4949C47.2246 27.7644 47.541 27.8992 47.9199 27.8992C48.1777 27.8992 48.3945 27.8289 48.5703 27.6882C48.7461 27.5476 48.8789 27.321 48.9688 27.0085ZM49.0625 25.3445C49.0508 24.8679 48.9277 24.5066 48.6934 24.2605C48.459 24.0105 48.1738 23.8855 47.8379 23.8855C47.4785 23.8855 47.1816 24.0164 46.9473 24.2781C46.7129 24.5398 46.5977 24.8953 46.6016 25.3445H49.0625ZM51.2539 28.989L53.498 25.7839L51.3477 22.7664H53.3574L54.459 24.4773L55.6191 22.7664H57.5527L55.4434 25.7136L57.7461 28.989H55.7246L54.459 27.0613L53.1816 28.989H51.2539Z" fill="white"/>
<defs>
<linearGradient id="paint0_linear_83_2000" x1="33.5" y1="1.98901" x2="33.5" y2="33.989" gradientUnits="userSpaceOnUse">
<stop stop-color="#094151"/>
<stop offset="1" stop-color="#A3EBFF"/>
</linearGradient>
</defs>
</svg>
