<svg width="50" height="24" viewBox="0 0 50 24" fill="none" xmlns="http://www.w3.org/2000/svg">
<rect x="2" y="1.98901" width="47" height="20" rx="10" fill="url(#paint0_linear_42_2617)"/>
<rect x="2" y="1.98901" width="47" height="20" rx="10" stroke="#8B67D0" stroke-width="3" stroke-linejoin="round"/>
<path d="M13.9453 14.0085L15.5859 14.2839C15.375 14.8855 15.041 15.3445 14.584 15.6609C14.1309 15.9734 13.5625 16.1296 12.8789 16.1296C11.7969 16.1296 10.9961 15.7761 10.4766 15.0691C10.0664 14.5027 9.86133 13.7878 9.86133 12.9246C9.86133 11.8933 10.1309 11.0867 10.6699 10.5046C11.209 9.9187 11.8906 9.62573 12.7148 9.62573C13.6406 9.62573 14.3711 9.93237 14.9062 10.5457C15.4414 11.155 15.6973 12.0906 15.6738 13.3523H11.5488C11.5605 13.8406 11.6934 14.2214 11.9473 14.4949C12.2012 14.7644 12.5176 14.8992 12.8965 14.8992C13.1543 14.8992 13.3711 14.8289 13.5469 14.6882C13.7227 14.5476 13.8555 14.321 13.9453 14.0085ZM14.0391 12.3445C14.0273 11.8679 13.9043 11.5066 13.6699 11.2605C13.4355 11.0105 13.1504 10.8855 12.8145 10.8855C12.4551 10.8855 12.1582 11.0164 11.9238 11.2781C11.6895 11.5398 11.5742 11.8953 11.5781 12.3445H14.0391ZM16.9805 15.989V7.39917H18.7148V15.989H16.9805ZM20.3848 15.989V7.39917H26.2734V8.85229H22.1191V10.8855H25.7051V12.3386H22.1191V15.989H20.3848ZM30.5742 15.989V14.2605H27.0586V12.8191L30.7852 7.36401H32.168V12.8132H33.2344V14.2605H32.168V15.989H30.5742ZM30.5742 12.8132V9.87769L28.5996 12.8132H30.5742ZM34.3887 15.989V7.39917H40.7578V8.85229H36.123V10.7566H40.4355V12.2039H36.123V14.5417H40.9219V15.989H34.3887Z" fill="white"/>
<defs>
<linearGradient id="paint0_linear_42_2617" x1="25.5" y1="1.98901" x2="25.5" y2="21.989" gradientUnits="userSpaceOnUse">
<stop stop-color="#8B67D0"/>
<stop offset="1" stop-color="#C93B00"/>
</linearGradient>
</defs>
</svg>
