<svg width="53" height="48" viewBox="0 0 53 48" fill="none" xmlns="http://www.w3.org/2000/svg">
<path d="M30.0812 47.8867C30.0812 47.8867 31.3722 47.8867 31.3722 46.1424C31.3722 44.3981 30.0812 44.3981 30.0812 44.3981C22.8966 44.3981 15.8252 43.3311 10.6797 41.4709C5.44048 39.5767 2.31278 36.8784 2.31278 34.2537C2.31278 29.469 11.3429 22.519 25.4927 22.519C39.7723 22.519 49.4073 27.613 49.8314 29.8534C49.8314 30.8169 50.3206 31.5718 50.9264 31.5718C51.5322 31.5718 52.0214 30.765 52.0214 29.8016C52.0214 22.7738 36.6147 19.0303 25.4928 19.0303C13.2899 19.0302 0.119385 24.8506 0.119385 34.2536C0.119385 45.0154 18.9528 47.8867 30.0812 47.8867Z" fill="url(#paint0_linear_97_5640)"/>
<path d="M28.5814 40.0493C32.4956 40.0493 52.0213 39.5546 52.0213 29.8013C52.0213 28.8378 51.5304 28.057 50.9246 28.057C50.3189 28.057 49.8279 28.8379 49.8279 29.8013C49.8279 32.6345 42.4446 36.5606 28.5814 36.5606C22.2819 36.5606 16.1589 35.6475 11.7824 34.0558C7.38619 32.4559 4.76189 30.1869 4.76189 27.9833C4.76189 23.8296 12.9228 17.7953 25.7111 17.7953C38.3153 17.7953 47.0506 21.8522 47.6067 24.0613C47.6067 25.0248 48.0934 25.7552 48.6991 25.7552C49.3044 25.7552 49.7911 24.9253 49.7911 23.9618C49.7911 17.302 35.7098 14.3066 25.7112 14.3066C14.3352 14.3066 2.56859 19.4224 2.56859 27.9833C2.56859 32.1629 5.50389 35.3504 11.2937 37.4559C15.8898 39.128 22.0295 40.0493 28.5814 40.0493Z" fill="url(#paint1_linear_97_5640)"/>
<path d="M29.433 33.0651C34.2087 33.0651 49.7911 32.4082 49.7911 23.9618C49.7911 22.9983 49.3002 22.2175 48.6944 22.2175C48.0886 22.2175 47.5977 22.9984 47.5977 23.9618C47.5977 26.2567 41.129 29.5764 29.433 29.5764C23.621 29.5764 17.9187 28.7192 13.7877 27.2256C8.93829 25.4717 7.21059 23.2273 7.21059 21.7132C7.21059 18.1046 14.3322 13.0706 25.9301 13.0706C37.348 13.0706 44.6963 16.4557 45.3705 18.2382C45.4082 19.1485 45.8837 19.8667 46.4646 19.8667C47.0703 19.8667 47.5613 19.0858 47.5613 18.1224C47.5613 11.1164 31.9468 9.58203 25.9301 9.58203C15.7922 9.58203 5.01729 13.8338 5.01729 21.7133C5.01729 25.6394 7.80439 28.6389 13.3016 30.6271C17.585 32.1766 23.4646 33.0651 29.433 33.0651Z" fill="url(#paint2_linear_97_5640)"/>
<path d="M30.2782 26.096C34.742 26.096 38.8272 25.5332 41.7805 24.5111C45.6703 23.1633 47.5612 21.0742 47.5612 18.1225C47.5612 17.159 47.0703 16.3782 46.4645 16.3782C45.8587 16.3782 45.3678 17.1591 45.3678 18.1225C45.3678 18.5613 44.6395 19.95 41.3144 21.1015C38.5093 22.0731 34.5899 22.6074 30.2782 22.6074C18.4773 22.6074 9.65918 18.8244 9.65918 15.442C9.65918 12.4794 15.9321 8.34749 26.1484 8.34749C36.2495 8.34749 42.4097 10.9586 43.1427 12.4726C43.1997 13.3516 43.6662 14.0371 44.2338 14.0371C44.8395 14.0371 45.3305 13.2562 45.3305 12.2928C45.3305 9.71989 43.3329 7.89929 39.0443 6.56239C35.5212 5.46399 30.9413 4.85889 26.1484 4.85889C17.1504 4.85889 7.46578 8.17039 7.46578 15.4421C7.46578 19.1665 10.0332 21.9016 15.3152 23.8054C19.3576 25.2607 24.8111 26.096 30.2782 26.096Z" fill="url(#paint3_linear_97_5640)"/>
<path d="M31.1153 19.1554C34.8616 19.1554 38.1182 18.7071 40.5331 17.8594C41.7197 17.4424 45.3307 16.1737 45.3307 12.2925C45.3307 11.329 44.8398 10.5482 44.234 10.5482C43.6283 10.5482 43.1373 11.3291 43.1373 12.2925C43.1373 13.286 39.678 15.6667 31.1153 15.6667C19.6888 15.6667 12.108 11.7569 12.108 9.17175C12.108 6.90415 17.1857 3.62395 26.3675 3.62395C26.3675 3.62395 27.6599 3.62395 27.6599 1.87965C27.6599 0.135354 26.3674 0.135254 26.3674 0.135254C18.7776 0.135254 9.91458 2.50235 9.91458 9.17175C9.91458 12.6373 12.3427 15.1966 17.3378 16.9954C21.1479 18.3677 26.1695 19.1554 31.1153 19.1554Z" fill="url(#paint4_linear_97_5640)"/>
<defs>
<linearGradient id="paint0_linear_97_5640" x1="22.3657" y1="18.4634" x2="26.6459" y2="34.4372" gradientUnits="userSpaceOnUse">
<stop stop-color="#00FF76"/>
<stop offset="0.94" stop-color="#2A3ED1"/>
</linearGradient>
<linearGradient id="paint1_linear_97_5640" x1="23.1126" y1="13.654" x2="27.3243" y2="29.3723" gradientUnits="userSpaceOnUse">
<stop stop-color="#00FF76"/>
<stop offset="0.906" stop-color="#2A3ED1"/>
</linearGradient>
<linearGradient id="paint2_linear_97_5640" x1="23.5891" y1="8.93173" x2="27.1726" y2="22.3054" gradientUnits="userSpaceOnUse">
<stop stop-color="#00FF76"/>
<stop offset="0.9571" stop-color="#2A3ED1"/>
</linearGradient>
<linearGradient id="paint3_linear_97_5640" x1="24.0527" y1="4.17819" x2="28.3469" y2="20.2048" gradientUnits="userSpaceOnUse">
<stop stop-color="#00FF76"/>
<stop offset="0.9598" stop-color="#2A3ED1"/>
</linearGradient>
<linearGradient id="paint4_linear_97_5640" x1="24.5233" y1="-0.562446" x2="30.2133" y2="20.673" gradientUnits="userSpaceOnUse">
<stop stop-color="#00FF76"/>
<stop offset="1" stop-color="#2A3ED1"/>
</linearGradient>
</defs>
</svg>
