<svg width="50" height="24" viewBox="0 0 50 24" fill="none" xmlns="http://www.w3.org/2000/svg">
<rect x="2" y="1.98901" width="47" height="20" rx="10" fill="url(#paint0_linear_64_1861)"/>
<rect x="2" y="1.98901" width="47" height="20" rx="10" stroke="#94C3EE" stroke-width="3" stroke-linejoin="round"/>
<path d="M10.043 15.989V7.39917H11.7305L15.2461 13.1355V7.39917H16.8574V15.989H15.1172L11.6543 10.3875V15.989H10.043ZM18.3457 11.7468C18.3457 10.8718 18.4766 10.1375 18.7383 9.5437C18.9336 9.1062 19.1992 8.71362 19.5352 8.36597C19.875 8.01831 20.2461 7.7605 20.6484 7.59253C21.1836 7.36597 21.8008 7.25269 22.5 7.25269C23.7656 7.25269 24.7773 7.64526 25.5352 8.43042C26.2969 9.21558 26.6777 10.3074 26.6777 11.7058C26.6777 13.0925 26.3008 14.1785 25.5469 14.9636C24.793 15.7449 23.7852 16.1355 22.5234 16.1355C21.2461 16.1355 20.2305 15.7468 19.4766 14.9695C18.7227 14.1882 18.3457 13.114 18.3457 11.7468ZM20.1328 11.6882C20.1328 12.6609 20.3574 13.3992 20.8066 13.9031C21.2559 14.4031 21.8262 14.6531 22.5176 14.6531C23.209 14.6531 23.7754 14.405 24.2168 13.9089C24.6621 13.4089 24.8848 12.6609 24.8848 11.6648C24.8848 10.6804 24.668 9.94604 24.2344 9.46167C23.8047 8.97729 23.2324 8.73511 22.5176 8.73511C21.8027 8.73511 21.2266 8.9812 20.7891 9.47339C20.3516 9.96167 20.1328 10.7 20.1328 11.6882ZM28.0371 15.989V7.39917H30.8203C31.875 7.39917 32.5625 7.44214 32.8828 7.52808C33.375 7.65698 33.7871 7.93823 34.1191 8.37183C34.4512 8.80151 34.6172 9.35815 34.6172 10.0417C34.6172 10.5691 34.5215 11.0125 34.3301 11.3718C34.1387 11.7312 33.8945 12.0144 33.5977 12.2214C33.3047 12.4246 33.0059 12.5593 32.7012 12.6257C32.2871 12.7078 31.6875 12.7488 30.9023 12.7488H29.7715V15.989H28.0371ZM29.7715 8.85229V11.2898H30.7207C31.4043 11.2898 31.8613 11.2449 32.0918 11.155C32.3223 11.0652 32.502 10.9246 32.6309 10.7332C32.7637 10.5417 32.8301 10.3191 32.8301 10.0652C32.8301 9.75269 32.7383 9.49487 32.5547 9.29175C32.3711 9.08862 32.1387 8.96167 31.8574 8.91089C31.6504 8.87183 31.2344 8.85229 30.6094 8.85229H29.7715ZM41.2383 14.4597V15.989H35.4668C35.5293 15.4109 35.7168 14.864 36.0293 14.3484C36.3418 13.8289 36.959 13.1414 37.8809 12.2859C38.623 11.5945 39.0781 11.1257 39.2461 10.8796C39.4727 10.5398 39.5859 10.2039 39.5859 9.87183C39.5859 9.50464 39.4863 9.22339 39.2871 9.02808C39.0918 8.82886 38.8203 8.72925 38.4727 8.72925C38.1289 8.72925 37.8555 8.83276 37.6523 9.03979C37.4492 9.24683 37.332 9.59058 37.3008 10.071L35.6602 9.90698C35.7578 9.00073 36.0645 8.35034 36.5801 7.95581C37.0957 7.56128 37.7402 7.36401 38.5137 7.36401C39.3613 7.36401 40.0273 7.59253 40.5117 8.04956C40.9961 8.50659 41.2383 9.07495 41.2383 9.75464C41.2383 10.1414 41.168 10.5105 41.0273 10.8621C40.8906 11.2097 40.6719 11.575 40.3711 11.9578C40.1719 12.2117 39.8125 12.5769 39.293 13.0535C38.7734 13.53 38.4434 13.8464 38.3027 14.0027C38.166 14.1589 38.0547 14.3113 37.9688 14.4597H41.2383Z" fill="white"/>
<defs>
<linearGradient id="paint0_linear_64_1861" x1="25.5" y1="1.98901" x2="25.5" y2="21.989" gradientUnits="userSpaceOnUse">
<stop stop-color="#94C3EE"/>
<stop offset="1" stop-color="#81002B"/>
</linearGradient>
</defs>
</svg>
