<svg width="56" height="24" viewBox="0 0 56 24" fill="none" xmlns="http://www.w3.org/2000/svg">
<rect x="2" y="1.98901" width="53" height="20" rx="10" fill="url(#paint0_linear_85_2090)"/>
<rect x="2" y="1.98901" width="53" height="20" rx="10" stroke="#3F1741" stroke-width="3" stroke-linejoin="round"/>
<path d="M10.3418 7.39917H12.0762V12.0515C12.0762 12.7898 12.0977 13.2683 12.1406 13.4871C12.2148 13.8386 12.3906 14.1218 12.668 14.3367C12.9492 14.5476 13.332 14.6531 13.8164 14.6531C14.3086 14.6531 14.6797 14.5535 14.9297 14.3542C15.1797 14.1511 15.3301 13.9031 15.3809 13.6101C15.4316 13.3171 15.457 12.8308 15.457 12.1511V7.39917H17.1914V11.9109C17.1914 12.9421 17.1445 13.6707 17.0508 14.0964C16.957 14.5222 16.7832 14.8816 16.5293 15.1746C16.2793 15.4675 15.9434 15.7019 15.5215 15.8777C15.0996 16.0496 14.5488 16.1355 13.8691 16.1355C13.0488 16.1355 12.4258 16.0417 12 15.8542C11.5781 15.6628 11.2441 15.4167 10.998 15.116C10.752 14.8113 10.5898 14.4929 10.5117 14.1609C10.3984 13.6687 10.3418 12.9421 10.3418 11.9812V7.39917ZM18.5859 13.1941L20.2734 13.03C20.375 13.5964 20.5801 14.0125 20.8887 14.2781C21.2012 14.5437 21.6211 14.6765 22.1484 14.6765C22.707 14.6765 23.127 14.5593 23.4082 14.325C23.6934 14.0867 23.8359 13.8093 23.8359 13.4929C23.8359 13.2898 23.7754 13.1179 23.6543 12.9773C23.5371 12.8328 23.3301 12.7078 23.0332 12.6023C22.8301 12.532 22.3672 12.407 21.6445 12.2273C20.7148 11.9968 20.0625 11.7136 19.6875 11.3777C19.1602 10.905 18.8965 10.3289 18.8965 9.64917C18.8965 9.21167 19.0195 8.80347 19.2656 8.42456C19.5156 8.04175 19.873 7.75073 20.3379 7.55151C20.8066 7.35229 21.3711 7.25269 22.0312 7.25269C23.1094 7.25269 23.9199 7.48901 24.4629 7.96167C25.0098 8.43433 25.2969 9.06519 25.3242 9.85425L23.5898 9.93042C23.5156 9.48901 23.3555 9.17261 23.1094 8.9812C22.8672 8.78589 22.502 8.68823 22.0137 8.68823C21.5098 8.68823 21.1152 8.79175 20.8301 8.99878C20.6465 9.13159 20.5547 9.30933 20.5547 9.53198C20.5547 9.73511 20.6406 9.90894 20.8125 10.0535C21.0312 10.2371 21.5625 10.4285 22.4062 10.6277C23.25 10.8269 23.873 11.0339 24.2754 11.2488C24.6816 11.4597 24.998 11.7507 25.2246 12.1218C25.4551 12.489 25.5703 12.9441 25.5703 13.4871C25.5703 13.9792 25.4336 14.4402 25.1602 14.8699C24.8867 15.2996 24.5 15.6199 24 15.8308C23.5 16.0378 22.877 16.1414 22.1309 16.1414C21.0449 16.1414 20.2109 15.8914 19.6289 15.3914C19.0469 14.8875 18.6992 14.155 18.5859 13.1941ZM27.0293 15.989V7.39917H29.8125C30.8672 7.39917 31.5547 7.44214 31.875 7.52808C32.3672 7.65698 32.7793 7.93823 33.1113 8.37183C33.4434 8.80151 33.6094 9.35815 33.6094 10.0417C33.6094 10.5691 33.5137 11.0125 33.3223 11.3718C33.1309 11.7312 32.8867 12.0144 32.5898 12.2214C32.2969 12.4246 31.998 12.5593 31.6934 12.6257C31.2793 12.7078 30.6797 12.7488 29.8945 12.7488H28.7637V15.989H27.0293ZM28.7637 8.85229V11.2898H29.7129C30.3965 11.2898 30.8535 11.2449 31.084 11.155C31.3145 11.0652 31.4941 10.9246 31.623 10.7332C31.7559 10.5417 31.8223 10.3191 31.8223 10.0652C31.8223 9.75269 31.7305 9.49487 31.5469 9.29175C31.3633 9.08862 31.1309 8.96167 30.8496 8.91089C30.6426 8.87183 30.2266 8.85229 29.6016 8.85229H28.7637ZM38.8828 15.989H37.2363V9.78394C36.6348 10.3464 35.9258 10.7625 35.1094 11.032V9.53784C35.5391 9.39722 36.0059 9.13159 36.5098 8.74097C37.0137 8.34644 37.3594 7.88745 37.5469 7.36401H38.8828V15.989ZM42.7617 11.3542C42.3359 11.1746 42.0254 10.9285 41.8301 10.616C41.6387 10.2996 41.543 9.95386 41.543 9.57886C41.543 8.93823 41.7656 8.40894 42.2109 7.99097C42.6602 7.573 43.2969 7.36401 44.1211 7.36401C44.9375 7.36401 45.5703 7.573 46.0195 7.99097C46.4727 8.40894 46.6992 8.93823 46.6992 9.57886C46.6992 9.97729 46.5957 10.3328 46.3887 10.6453C46.1816 10.9539 45.8906 11.1902 45.5156 11.3542C45.9922 11.5457 46.3535 11.825 46.5996 12.1921C46.8496 12.5593 46.9746 12.9832 46.9746 13.4636C46.9746 14.2566 46.7207 14.9011 46.2129 15.3972C45.709 15.8933 45.0371 16.1414 44.1973 16.1414C43.416 16.1414 42.7656 15.9363 42.2461 15.5261C41.6328 15.0417 41.3262 14.3777 41.3262 13.5339C41.3262 13.0691 41.4414 12.6433 41.6719 12.2566C41.9023 11.866 42.2656 11.5652 42.7617 11.3542ZM43.1016 9.69604C43.1016 10.0242 43.1934 10.28 43.377 10.4636C43.5645 10.6472 43.8125 10.739 44.1211 10.739C44.4336 10.739 44.6836 10.6472 44.8711 10.4636C45.0586 10.2761 45.1523 10.0183 45.1523 9.69019C45.1523 9.38159 45.0586 9.1355 44.8711 8.9519C44.6875 8.7644 44.4434 8.67065 44.1387 8.67065C43.8223 8.67065 43.5703 8.7644 43.3828 8.9519C43.1953 9.1394 43.1016 9.38745 43.1016 9.69604ZM42.9492 13.3757C42.9492 13.8289 43.0645 14.1824 43.2949 14.4363C43.5293 14.6902 43.8203 14.8171 44.168 14.8171C44.5078 14.8171 44.7891 14.696 45.0117 14.4539C45.2344 14.2078 45.3457 13.8542 45.3457 13.3933C45.3457 12.991 45.2324 12.6687 45.0059 12.4265C44.7793 12.1804 44.4922 12.0574 44.1445 12.0574C43.7422 12.0574 43.4414 12.196 43.2422 12.4734C43.0469 12.7507 42.9492 13.0515 42.9492 13.3757Z" fill="white"/>
<defs>
<linearGradient id="paint0_linear_85_2090" x1="28.5" y1="1.98901" x2="28.5" y2="21.989" gradientUnits="userSpaceOnUse">
<stop stop-color="#3F1741"/>
<stop offset="1" stop-color="#E5998A"/>
</linearGradient>
</defs>
</svg>
