<svg width="60" height="24" viewBox="0 0 60 24" fill="none" xmlns="http://www.w3.org/2000/svg">
<rect x="2" y="1.98901" width="57" height="20" rx="10" fill="url(#paint0_linear_52_1854)"/>
<rect x="2" y="1.98901" width="57" height="20" rx="10" stroke="#1C00CD" stroke-width="3" stroke-linejoin="round"/>
<path d="M10.3379 15.989V7.39917H12.9336L14.4922 13.2585L16.0332 7.39917H18.6348V15.989H17.0234V9.22729L15.3184 15.989H13.6484L11.9492 9.22729V15.989H10.3379ZM28.1035 15.989H26.2168L25.4668 14.0378H22.0332L21.3242 15.989H19.4844L22.8301 7.39917H24.6641L28.1035 15.989ZM24.9102 12.5906L23.7266 9.40308L22.5664 12.5906H24.9102ZM29.0293 15.989V7.39917H31.8125C32.8672 7.39917 33.5547 7.44214 33.875 7.52808C34.3672 7.65698 34.7793 7.93823 35.1113 8.37183C35.4434 8.80151 35.6094 9.35815 35.6094 10.0417C35.6094 10.5691 35.5137 11.0125 35.3223 11.3718C35.1309 11.7312 34.8867 12.0144 34.5898 12.2214C34.2969 12.4246 33.998 12.5593 33.6934 12.6257C33.2793 12.7078 32.6797 12.7488 31.8945 12.7488H30.7637V15.989H29.0293ZM30.7637 8.85229V11.2898H31.7129C32.3965 11.2898 32.8535 11.2449 33.084 11.155C33.3145 11.0652 33.4941 10.9246 33.623 10.7332C33.7559 10.5417 33.8223 10.3191 33.8223 10.0652C33.8223 9.75269 33.7305 9.49487 33.5469 9.29175C33.3633 9.08862 33.1309 8.96167 32.8496 8.91089C32.6426 8.87183 32.2266 8.85229 31.6016 8.85229H30.7637ZM36.6113 13.7097L38.2051 13.5164C38.2559 13.9226 38.3926 14.2332 38.6152 14.448C38.8379 14.6628 39.1074 14.7703 39.4238 14.7703C39.7637 14.7703 40.0488 14.6414 40.2793 14.3835C40.5137 14.1257 40.6309 13.7781 40.6309 13.3406C40.6309 12.9265 40.5195 12.5984 40.2969 12.3562C40.0742 12.114 39.8027 11.9929 39.4824 11.9929C39.2715 11.9929 39.0195 12.0339 38.7266 12.116L38.9082 10.7742C39.3535 10.7859 39.6934 10.6902 39.9277 10.4871C40.1621 10.28 40.2793 10.0066 40.2793 9.66675C40.2793 9.37769 40.1934 9.14722 40.0215 8.97534C39.8496 8.80347 39.6211 8.71753 39.3359 8.71753C39.0547 8.71753 38.8145 8.81519 38.6152 9.0105C38.416 9.20581 38.2949 9.49097 38.252 9.86597L36.7344 9.60815C36.8398 9.08862 36.998 8.67456 37.209 8.36597C37.4238 8.05347 37.7207 7.80933 38.0996 7.63354C38.4824 7.45386 38.9102 7.36401 39.3828 7.36401C40.1914 7.36401 40.8398 7.62183 41.3281 8.13745C41.7305 8.55933 41.9316 9.03589 41.9316 9.56714C41.9316 10.321 41.5195 10.9226 40.6953 11.3718C41.1875 11.4773 41.5801 11.7136 41.873 12.0808C42.1699 12.448 42.3184 12.8914 42.3184 13.4109C42.3184 14.1648 42.043 14.8074 41.4922 15.3386C40.9414 15.8699 40.2559 16.1355 39.4355 16.1355C38.6582 16.1355 38.0137 15.9128 37.502 15.4675C36.9902 15.0183 36.6934 14.4324 36.6113 13.7097ZM43.7363 15.989V7.39917H45.4707V11.2136L48.9746 7.39917H51.3066L48.0723 10.7449L51.4824 15.989H49.2383L46.877 11.9578L45.4707 13.3933V15.989H43.7363Z" fill="white"/>
<defs>
<linearGradient id="paint0_linear_52_1854" x1="30.5" y1="21.989" x2="30.5" y2="1.98901" gradientUnits="userSpaceOnUse">
<stop stop-color="#843D7D"/>
<stop offset="1" stop-color="#1C00CD"/>
</linearGradient>
</defs>
</svg>
