<svg width="56" height="24" viewBox="0 0 56 24" fill="none" xmlns="http://www.w3.org/2000/svg">
<rect x="2" y="1.98901" width="53" height="20" rx="10" fill="url(#paint0_linear_35_1408)"/>
<rect x="2" y="1.98901" width="53" height="20" rx="10" stroke="#BAA300" stroke-width="3" stroke-linejoin="round"/>
<path d="M17.7656 15.989H15.8789L15.1289 14.0378H11.6953L10.9863 15.989H9.14648L12.4922 7.39917H14.3262L17.7656 15.989ZM14.5723 12.5906L13.3887 9.40308L12.2285 12.5906H14.5723ZM18.7383 15.989V7.46948H20.4727V14.5417H24.7852V15.989H18.7383ZM30.0234 12.8308V11.3835H33.7617V14.8054C33.3984 15.157 32.8711 15.4675 32.1797 15.7371C31.4922 16.0027 30.7949 16.1355 30.0879 16.1355C29.1895 16.1355 28.4062 15.948 27.7383 15.573C27.0703 15.1941 26.5684 14.655 26.2324 13.9558C25.8965 13.2527 25.7285 12.489 25.7285 11.6648C25.7285 10.7703 25.916 9.97534 26.291 9.28003C26.666 8.58472 27.2148 8.05151 27.9375 7.68042C28.4883 7.39526 29.1738 7.25269 29.9941 7.25269C31.0605 7.25269 31.8926 7.47729 32.4902 7.92651C33.0918 8.37183 33.4785 8.98901 33.6504 9.77808L31.9277 10.1003C31.8066 9.67847 31.5781 9.34644 31.2422 9.10425C30.9102 8.85815 30.4941 8.73511 29.9941 8.73511C29.2363 8.73511 28.6328 8.97534 28.1836 9.45581C27.7383 9.93628 27.5156 10.6492 27.5156 11.5945C27.5156 12.614 27.7422 13.3796 28.1953 13.8914C28.6484 14.3992 29.2422 14.6531 29.9766 14.6531C30.3398 14.6531 30.7031 14.5828 31.0664 14.4421C31.4336 14.2976 31.748 14.1238 32.0098 13.9207V12.8308H30.0234ZM39.2168 15.989H37.5703V9.78394C36.9688 10.3464 36.2598 10.7625 35.4434 11.032V9.53784C35.873 9.39722 36.3398 9.13159 36.8438 8.74097C37.3477 8.34644 37.6934 7.88745 37.8809 7.36401H39.2168V15.989ZM47.2441 14.4597V15.989H41.4727C41.5352 15.4109 41.7227 14.864 42.0352 14.3484C42.3477 13.8289 42.9648 13.1414 43.8867 12.2859C44.6289 11.5945 45.084 11.1257 45.252 10.8796C45.4785 10.5398 45.5918 10.2039 45.5918 9.87183C45.5918 9.50464 45.4922 9.22339 45.293 9.02808C45.0977 8.82886 44.8262 8.72925 44.4785 8.72925C44.1348 8.72925 43.8613 8.83276 43.6582 9.03979C43.4551 9.24683 43.3379 9.59058 43.3066 10.071L41.666 9.90698C41.7637 9.00073 42.0703 8.35034 42.5859 7.95581C43.1016 7.56128 43.7461 7.36401 44.5195 7.36401C45.3672 7.36401 46.0332 7.59253 46.5176 8.04956C47.002 8.50659 47.2441 9.07495 47.2441 9.75464C47.2441 10.1414 47.1738 10.5105 47.0332 10.8621C46.8965 11.2097 46.6777 11.575 46.377 11.9578C46.1777 12.2117 45.8184 12.5769 45.2988 13.0535C44.7793 13.53 44.4492 13.8464 44.3086 14.0027C44.1719 14.1589 44.0605 14.3113 43.9746 14.4597H47.2441Z" fill="white"/>
<defs>
<linearGradient id="paint0_linear_35_1408" x1="28.5" y1="1.98901" x2="28.5" y2="21.989" gradientUnits="userSpaceOnUse">
<stop stop-color="#23449E"/>
<stop offset="1" stop-color="#BAA300"/>
</linearGradient>
</defs>
</svg>
