<svg width="66" height="68" viewBox="0 0 66 68" fill="none" xmlns="http://www.w3.org/2000/svg">
<path d="M38.3608 1.94336C41.6745 1.94336 44.3608 4.62967 44.3608 7.94336L44.353 8.25195C44.1923 11.4222 41.5711 13.9434 38.3608 13.9434H28.3608C25.0472 13.9434 22.3608 11.257 22.3608 7.94336C22.3608 4.62967 25.0472 1.94336 28.3608 1.94336H38.3608Z" fill="#73A628" stroke="#DEB510" stroke-width="2"/>
<path d="M50.7917 11.7039C53.6794 10.0785 57.3382 11.1015 58.9636 13.989L63.8689 22.7039L64.0134 22.9763C65.4285 25.8178 64.3802 29.3011 61.5828 30.8757C58.6952 32.5008 55.0372 31.477 53.4119 28.5896H53.4109L48.5066 19.8757C46.8812 16.9881 47.9043 13.3293 50.7917 11.7039Z" fill="#73A628" stroke="#DEB510" stroke-width="2"/>
<path d="M7.6626 14.0435C9.32389 11.3385 12.8339 10.3837 15.6509 11.9233L15.9175 12.0776C18.5351 13.6854 19.5139 17.0238 18.1792 19.7905L18.0376 20.0659L13.2417 28.8403C11.7022 31.6572 8.2334 32.748 5.37451 31.3687L5.09912 31.228C2.19157 29.6388 1.12315 25.9931 2.7124 23.0854L7.5083 14.3101L7.6626 14.0435Z" fill="#73A628" stroke="#DEB510" stroke-width="2"/>
<path d="M38.2566 54.3325L38.5652 54.3403C41.7355 54.501 44.2566 57.1223 44.2566 60.3325C44.2566 63.6462 41.5703 66.3325 38.2566 66.3325H28.2566C24.9429 66.3325 22.2566 63.6462 22.2566 60.3325L22.2644 60.0239C22.425 56.8537 25.0464 54.3325 28.2566 54.3325H38.2566Z" fill="#73A628" stroke="#DEB510" stroke-width="2"/>
<path d="M5.30713 37.2563C8.14852 35.8415 11.6309 36.8888 13.2056 39.686L18.1108 48.4009L18.2554 48.6733C19.6705 51.5148 18.6222 54.9981 15.8247 56.5728C13.0274 58.147 9.50708 57.2356 7.81201 54.5522L7.65381 54.2866H7.65283L2.74854 45.5728C1.12318 42.6851 2.14625 39.0263 5.03369 37.4009L5.30713 37.2563Z" fill="#73A628" stroke="#DEB510" stroke-width="2"/>
<path d="M53.5298 39.1687C55.1911 36.4637 58.7011 35.5089 61.5181 37.0486L61.7847 37.2029C64.4022 38.8105 65.3812 42.1491 64.0464 44.9158L63.9048 45.1912L59.1089 53.9656C57.5694 56.7823 54.1006 57.8732 51.2417 56.4939L50.9663 56.3533C48.0587 54.764 46.9905 51.1184 48.5796 48.2107L53.3755 39.4353L53.5298 39.1687Z" fill="#73A628" stroke="#DEB510" stroke-width="2"/>
</svg>
