<svg width="64" height="24" viewBox="0 0 64 24" fill="none" xmlns="http://www.w3.org/2000/svg">
<rect x="2" y="1.98901" width="61" height="20" rx="10" fill="url(#paint0_linear_84_2027)"/>
<rect x="2" y="1.98901" width="61" height="20" rx="10" stroke="#2CCE5A" stroke-width="3" stroke-linejoin="round"/>
<path d="M11.957 15.989V8.85229H9.4082V7.39917H16.2344V8.85229H13.6914V15.989H11.957ZM17.3652 15.989V7.39917H21.0156C21.9336 7.39917 22.5996 7.47729 23.0137 7.63354C23.4316 7.78589 23.7656 8.05933 24.0156 8.45386C24.2656 8.84839 24.3906 9.29956 24.3906 9.80737C24.3906 10.4519 24.2012 10.9851 23.8223 11.407C23.4434 11.825 22.877 12.0886 22.123 12.198C22.498 12.4167 22.8066 12.657 23.0488 12.9187C23.2949 13.1804 23.625 13.6453 24.0391 14.3132L25.0879 15.989H23.0137L21.7598 14.1199C21.3145 13.4519 21.0098 13.032 20.8457 12.8601C20.6816 12.6843 20.5078 12.5652 20.3242 12.5027C20.1406 12.4363 19.8496 12.4031 19.4512 12.4031H19.0996V15.989H17.3652ZM19.0996 11.032H20.3828C21.2148 11.032 21.7344 10.9968 21.9414 10.9265C22.1484 10.8562 22.3105 10.7351 22.4277 10.5632C22.5449 10.3914 22.6035 10.1765 22.6035 9.9187C22.6035 9.62964 22.5254 9.39722 22.3691 9.22144C22.2168 9.04175 22 8.92847 21.7188 8.88159C21.5781 8.86206 21.1562 8.85229 20.4531 8.85229H19.0996V11.032ZM26.0078 15.989V7.39917H28.6035L30.1621 13.2585L31.7031 7.39917H34.3047V15.989H32.6934V9.22729L30.9883 15.989H29.3184L27.6191 9.22729V15.989H26.0078ZM37.9609 15.989V8.85229H35.4121V7.39917H42.2383V8.85229H39.6953V15.989H37.9609ZM47.2129 15.989H45.5664V9.78394C44.9648 10.3464 44.2559 10.7625 43.4395 11.032V9.53784C43.8691 9.39722 44.3359 9.13159 44.8398 8.74097C45.3438 8.34644 45.6895 7.88745 45.877 7.36401H47.2129V15.989ZM55.2402 14.4597V15.989H49.4688C49.5312 15.4109 49.7188 14.864 50.0312 14.3484C50.3438 13.8289 50.9609 13.1414 51.8828 12.2859C52.625 11.5945 53.0801 11.1257 53.248 10.8796C53.4746 10.5398 53.5879 10.2039 53.5879 9.87183C53.5879 9.50464 53.4883 9.22339 53.2891 9.02808C53.0938 8.82886 52.8223 8.72925 52.4746 8.72925C52.1309 8.72925 51.8574 8.83276 51.6543 9.03979C51.4512 9.24683 51.334 9.59058 51.3027 10.071L49.6621 9.90698C49.7598 9.00073 50.0664 8.35034 50.582 7.95581C51.0977 7.56128 51.7422 7.36401 52.5156 7.36401C53.3633 7.36401 54.0293 7.59253 54.5137 8.04956C54.998 8.50659 55.2402 9.07495 55.2402 9.75464C55.2402 10.1414 55.1699 10.5105 55.0293 10.8621C54.8926 11.2097 54.6738 11.575 54.373 11.9578C54.1738 12.2117 53.8145 12.5769 53.2949 13.0535C52.7754 13.53 52.4453 13.8464 52.3047 14.0027C52.168 14.1589 52.0566 14.3113 51.9707 14.4597H55.2402Z" fill="white"/>
<defs>
<linearGradient id="paint0_linear_84_2027" x1="32.5" y1="1.98901" x2="32.5" y2="21.989" gradientUnits="userSpaceOnUse">
<stop stop-color="#2CCE5A"/>
<stop offset="1" stop-color="#CF9039"/>
</linearGradient>
</defs>
</svg>
