<svg width="57" height="24" viewBox="0 0 57 24" fill="none" xmlns="http://www.w3.org/2000/svg">
<rect x="2" y="1.98901" width="54" height="20" rx="10" fill="url(#paint0_linear_35_1440)"/>
<rect x="2" y="1.98901" width="54" height="20" rx="10" stroke="#112F99" stroke-width="3" stroke-linejoin="round"/>
<path d="M17.9375 15.989H16.0508L15.3008 14.0378H11.8672L11.1582 15.989H9.31836L12.6641 7.39917H14.498L17.9375 15.989ZM14.7441 12.5906L13.5605 9.40308L12.4004 12.5906H14.7441ZM18.4238 13.1941L20.1113 13.03C20.2129 13.5964 20.418 14.0125 20.7266 14.2781C21.0391 14.5437 21.459 14.6765 21.9863 14.6765C22.5449 14.6765 22.9648 14.5593 23.2461 14.325C23.5312 14.0867 23.6738 13.8093 23.6738 13.4929C23.6738 13.2898 23.6133 13.1179 23.4922 12.9773C23.375 12.8328 23.168 12.7078 22.8711 12.6023C22.668 12.532 22.2051 12.407 21.4824 12.2273C20.5527 11.9968 19.9004 11.7136 19.5254 11.3777C18.998 10.905 18.7344 10.3289 18.7344 9.64917C18.7344 9.21167 18.8574 8.80347 19.1035 8.42456C19.3535 8.04175 19.7109 7.75073 20.1758 7.55151C20.6445 7.35229 21.209 7.25269 21.8691 7.25269C22.9473 7.25269 23.7578 7.48901 24.3008 7.96167C24.8477 8.43433 25.1348 9.06519 25.1621 9.85425L23.4277 9.93042C23.3535 9.48901 23.1934 9.17261 22.9473 8.9812C22.7051 8.78589 22.3398 8.68823 21.8516 8.68823C21.3477 8.68823 20.9531 8.79175 20.668 8.99878C20.4844 9.13159 20.3926 9.30933 20.3926 9.53198C20.3926 9.73511 20.4785 9.90894 20.6504 10.0535C20.8691 10.2371 21.4004 10.4285 22.2441 10.6277C23.0879 10.8269 23.7109 11.0339 24.1133 11.2488C24.5195 11.4597 24.8359 11.7507 25.0625 12.1218C25.293 12.489 25.4082 12.9441 25.4082 13.4871C25.4082 13.9792 25.2715 14.4402 24.998 14.8699C24.7246 15.2996 24.3379 15.6199 23.8379 15.8308C23.3379 16.0378 22.7148 16.1414 21.9688 16.1414C20.8828 16.1414 20.0488 15.8914 19.4668 15.3914C18.8848 14.8875 18.5371 14.155 18.4238 13.1941ZM26.873 15.989V7.39917H28.6074V10.78H32.0059V7.39917H33.7402V15.989H32.0059V12.2332H28.6074V15.989H26.873ZM40.7363 14.4597V15.989H34.9648C35.0273 15.4109 35.2148 14.864 35.5273 14.3484C35.8398 13.8289 36.457 13.1414 37.3789 12.2859C38.1211 11.5945 38.5762 11.1257 38.7441 10.8796C38.9707 10.5398 39.084 10.2039 39.084 9.87183C39.084 9.50464 38.9844 9.22339 38.7852 9.02808C38.5898 8.82886 38.3184 8.72925 37.9707 8.72925C37.627 8.72925 37.3535 8.83276 37.1504 9.03979C36.9473 9.24683 36.8301 9.59058 36.7988 10.071L35.1582 9.90698C35.2559 9.00073 35.5625 8.35034 36.0781 7.95581C36.5938 7.56128 37.2383 7.36401 38.0117 7.36401C38.8594 7.36401 39.5254 7.59253 40.0098 8.04956C40.4941 8.50659 40.7363 9.07495 40.7363 9.75464C40.7363 10.1414 40.666 10.5105 40.5254 10.8621C40.3887 11.2097 40.1699 11.575 39.8691 11.9578C39.6699 12.2117 39.3105 12.5769 38.791 13.0535C38.2715 13.53 37.9414 13.8464 37.8008 14.0027C37.6641 14.1589 37.5527 14.3113 37.4668 14.4597H40.7363ZM42.2656 15.989V7.46948H44V14.5417H48.3125V15.989H42.2656Z" fill="white"/>
<defs>
<linearGradient id="paint0_linear_35_1440" x1="29" y1="1.98901" x2="29" y2="21.989" gradientUnits="userSpaceOnUse">
<stop stop-color="#DCE3C8"/>
<stop offset="1" stop-color="#112F99"/>
</linearGradient>
</defs>
</svg>
