<svg width="58" height="24" viewBox="0 0 58 24" fill="none" xmlns="http://www.w3.org/2000/svg">
<rect x="2" y="1.98901" width="55" height="20" rx="10" fill="url(#paint0_linear_40_2515)"/>
<rect x="2" y="1.98901" width="55" height="20" rx="10" stroke="#AD84BC" stroke-width="3" stroke-linejoin="round"/>
<path d="M15.5195 12.8308L17.2012 13.364C16.9434 14.3015 16.5137 14.9988 15.9121 15.4558C15.3145 15.9089 14.5547 16.1355 13.6328 16.1355C12.4922 16.1355 11.5547 15.7468 10.8203 14.9695C10.0859 14.1882 9.71875 13.1218 9.71875 11.7703C9.71875 10.3406 10.0879 9.2312 10.8262 8.44214C11.5645 7.64917 12.5352 7.25269 13.7383 7.25269C14.7891 7.25269 15.6426 7.56323 16.2988 8.18433C16.6895 8.55151 16.9824 9.07886 17.1777 9.76636L15.4609 10.1765C15.3594 9.7312 15.1465 9.37964 14.8223 9.12183C14.502 8.86401 14.1113 8.73511 13.6504 8.73511C13.0137 8.73511 12.4961 8.96362 12.0977 9.42065C11.7031 9.87769 11.5059 10.6179 11.5059 11.6414C11.5059 12.7273 11.7012 13.5007 12.0918 13.9617C12.4824 14.4226 12.9902 14.6531 13.6152 14.6531C14.0762 14.6531 14.4727 14.5066 14.8047 14.2136C15.1367 13.9207 15.375 13.4597 15.5195 12.8308ZM18.2559 13.1941L19.9434 13.03C20.0449 13.5964 20.25 14.0125 20.5586 14.2781C20.8711 14.5437 21.291 14.6765 21.8184 14.6765C22.377 14.6765 22.7969 14.5593 23.0781 14.325C23.3633 14.0867 23.5059 13.8093 23.5059 13.4929C23.5059 13.2898 23.4453 13.1179 23.3242 12.9773C23.207 12.8328 23 12.7078 22.7031 12.6023C22.5 12.532 22.0371 12.407 21.3145 12.2273C20.3848 11.9968 19.7324 11.7136 19.3574 11.3777C18.8301 10.905 18.5664 10.3289 18.5664 9.64917C18.5664 9.21167 18.6895 8.80347 18.9355 8.42456C19.1855 8.04175 19.543 7.75073 20.0078 7.55151C20.4766 7.35229 21.041 7.25269 21.7012 7.25269C22.7793 7.25269 23.5898 7.48901 24.1328 7.96167C24.6797 8.43433 24.9668 9.06519 24.9941 9.85425L23.2598 9.93042C23.1855 9.48901 23.0254 9.17261 22.7793 8.9812C22.5371 8.78589 22.1719 8.68823 21.6836 8.68823C21.1797 8.68823 20.7852 8.79175 20.5 8.99878C20.3164 9.13159 20.2246 9.30933 20.2246 9.53198C20.2246 9.73511 20.3105 9.90894 20.4824 10.0535C20.7012 10.2371 21.2324 10.4285 22.0762 10.6277C22.9199 10.8269 23.543 11.0339 23.9453 11.2488C24.3516 11.4597 24.668 11.7507 24.8945 12.1218C25.125 12.489 25.2402 12.9441 25.2402 13.4871C25.2402 13.9792 25.1035 14.4402 24.8301 14.8699C24.5566 15.2996 24.1699 15.6199 23.6699 15.8308C23.1699 16.0378 22.5469 16.1414 21.8008 16.1414C20.7148 16.1414 19.8809 15.8914 19.2988 15.3914C18.7168 14.8875 18.3691 14.155 18.2559 13.1941ZM26.7168 15.989V7.39917H28.4043L31.9199 13.1355V7.39917H33.5312V15.989H31.791L28.3281 10.3875V15.989H26.7168ZM35.3945 15.989V7.39917H37.1289V11.2136L40.6328 7.39917H42.9648L39.7305 10.7449L43.1406 15.989H40.8965L38.5352 11.9578L37.1289 13.3933V15.989H35.3945ZM47.8926 15.989H46.2461V9.78394C45.6445 10.3464 44.9355 10.7625 44.1191 11.032V9.53784C44.5488 9.39722 45.0156 9.13159 45.5195 8.74097C46.0234 8.34644 46.3691 7.88745 46.5566 7.36401H47.8926V15.989Z" fill="white"/>
<defs>
<linearGradient id="paint0_linear_40_2515" x1="29.5" y1="1.98901" x2="29.5" y2="21.989" gradientUnits="userSpaceOnUse">
<stop stop-color="#AD84BC"/>
<stop offset="1" stop-color="#461E7D"/>
</linearGradient>
</defs>
</svg>
