<svg width="40" height="24" viewBox="0 0 40 24" fill="none" xmlns="http://www.w3.org/2000/svg">
<rect x="2" y="1.98901" width="37" height="20" rx="10" fill="url(#paint0_linear_38_1837)"/>
<rect x="2" y="1.98901" width="37" height="20" rx="10" stroke="#5973B7" stroke-width="3" stroke-linejoin="round"/>
<path d="M15.8535 12.8308L17.5352 13.364C17.2773 14.3015 16.8477 14.9988 16.2461 15.4558C15.6484 15.9089 14.8887 16.1355 13.9668 16.1355C12.8262 16.1355 11.8887 15.7468 11.1543 14.9695C10.4199 14.1882 10.0527 13.1218 10.0527 11.7703C10.0527 10.3406 10.4219 9.2312 11.1602 8.44214C11.8984 7.64917 12.8691 7.25269 14.0723 7.25269C15.123 7.25269 15.9766 7.56323 16.6328 8.18433C17.0234 8.55151 17.3164 9.07886 17.5117 9.76636L15.7949 10.1765C15.6934 9.7312 15.4805 9.37964 15.1562 9.12183C14.8359 8.86401 14.4453 8.73511 13.9844 8.73511C13.3477 8.73511 12.8301 8.96362 12.4316 9.42065C12.0371 9.87769 11.8398 10.6179 11.8398 11.6414C11.8398 12.7273 12.0352 13.5007 12.4258 13.9617C12.8164 14.4226 13.3242 14.6531 13.9492 14.6531C14.4102 14.6531 14.8066 14.5066 15.1387 14.2136C15.4707 13.9207 15.709 13.4597 15.8535 12.8308ZM18.6074 13.7097L20.2012 13.5164C20.252 13.9226 20.3887 14.2332 20.6113 14.448C20.834 14.6628 21.1035 14.7703 21.4199 14.7703C21.7598 14.7703 22.0449 14.6414 22.2754 14.3835C22.5098 14.1257 22.627 13.7781 22.627 13.3406C22.627 12.9265 22.5156 12.5984 22.293 12.3562C22.0703 12.114 21.7988 11.9929 21.4785 11.9929C21.2676 11.9929 21.0156 12.0339 20.7227 12.116L20.9043 10.7742C21.3496 10.7859 21.6895 10.6902 21.9238 10.4871C22.1582 10.28 22.2754 10.0066 22.2754 9.66675C22.2754 9.37769 22.1895 9.14722 22.0176 8.97534C21.8457 8.80347 21.6172 8.71753 21.332 8.71753C21.0508 8.71753 20.8105 8.81519 20.6113 9.0105C20.4121 9.20581 20.291 9.49097 20.248 9.86597L18.7305 9.60815C18.8359 9.08862 18.9941 8.67456 19.2051 8.36597C19.4199 8.05347 19.7168 7.80933 20.0957 7.63354C20.4785 7.45386 20.9062 7.36401 21.3789 7.36401C22.1875 7.36401 22.8359 7.62183 23.3242 8.13745C23.7266 8.55933 23.9277 9.03589 23.9277 9.56714C23.9277 10.321 23.5156 10.9226 22.6914 11.3718C23.1836 11.4773 23.5762 11.7136 23.8691 12.0808C24.166 12.448 24.3145 12.8914 24.3145 13.4109C24.3145 14.1648 24.0391 14.8074 23.4883 15.3386C22.9375 15.8699 22.252 16.1355 21.4316 16.1355C20.6543 16.1355 20.0098 15.9128 19.498 15.4675C18.9863 15.0183 18.6895 14.4324 18.6074 13.7097ZM26.9277 11.6648L25.4336 11.3953C25.6016 10.7937 25.8906 10.3484 26.3008 10.0593C26.7109 9.77026 27.3203 9.62573 28.1289 9.62573C28.8633 9.62573 29.4102 9.71362 29.7695 9.8894C30.1289 10.0613 30.3809 10.282 30.5254 10.5515C30.6738 10.8171 30.748 11.3074 30.748 12.0222L30.7305 13.9441C30.7305 14.491 30.7559 14.8953 30.8066 15.157C30.8613 15.4148 30.9609 15.6921 31.1055 15.989H29.4766C29.4336 15.8796 29.3809 15.7175 29.3184 15.5027C29.291 15.405 29.2715 15.3406 29.2598 15.3093C28.9785 15.5828 28.6777 15.7878 28.3574 15.9246C28.0371 16.0613 27.6953 16.1296 27.332 16.1296C26.6914 16.1296 26.1855 15.9558 25.8145 15.6082C25.4473 15.2605 25.2637 14.821 25.2637 14.2898C25.2637 13.9382 25.3477 13.6257 25.5156 13.3523C25.6836 13.075 25.918 12.864 26.2188 12.7195C26.5234 12.571 26.9609 12.4421 27.5312 12.3328C28.3008 12.1882 28.834 12.0535 29.1309 11.9285V11.7644C29.1309 11.448 29.0527 11.2234 28.8965 11.0906C28.7402 10.9539 28.4453 10.8855 28.0117 10.8855C27.7188 10.8855 27.4902 10.9441 27.3262 11.0613C27.1621 11.1746 27.0293 11.3757 26.9277 11.6648ZM29.1309 13.0007C28.9199 13.071 28.5859 13.155 28.1289 13.2527C27.6719 13.3503 27.373 13.446 27.2324 13.5398C27.0176 13.6921 26.9102 13.8855 26.9102 14.1199C26.9102 14.3503 26.9961 14.5496 27.168 14.7175C27.3398 14.8855 27.5586 14.9695 27.8242 14.9695C28.1211 14.9695 28.4043 14.8718 28.6738 14.6765C28.873 14.5281 29.0039 14.3464 29.0664 14.1316C29.1094 13.991 29.1309 13.7234 29.1309 13.3289V13.0007Z" fill="white"/>
<defs>
<linearGradient id="paint0_linear_38_1837" x1="20.5" y1="1.98901" x2="20.5" y2="21.989" gradientUnits="userSpaceOnUse">
<stop stop-color="#1F2E53"/>
<stop offset="1" stop-color="#5973B7"/>
</linearGradient>
</defs>
</svg>
