<svg width="50" height="24" viewBox="0 0 50 24" fill="none" xmlns="http://www.w3.org/2000/svg">
<rect x="2" y="1.98901" width="47" height="20" rx="10" fill="url(#paint0_linear_85_2066)"/>
<rect x="2" y="1.98901" width="47" height="20" rx="10" stroke="#3A95AA" stroke-width="3" stroke-linejoin="round"/>
<path d="M12.2988 15.989V8.85229H9.75V7.39917H16.5762V8.85229H14.0332V15.989H12.2988ZM17.2617 13.1941L18.9492 13.03C19.0508 13.5964 19.2559 14.0125 19.5645 14.2781C19.877 14.5437 20.2969 14.6765 20.8242 14.6765C21.3828 14.6765 21.8027 14.5593 22.084 14.325C22.3691 14.0867 22.5117 13.8093 22.5117 13.4929C22.5117 13.2898 22.4512 13.1179 22.3301 12.9773C22.2129 12.8328 22.0059 12.7078 21.709 12.6023C21.5059 12.532 21.043 12.407 20.3203 12.2273C19.3906 11.9968 18.7383 11.7136 18.3633 11.3777C17.8359 10.905 17.5723 10.3289 17.5723 9.64917C17.5723 9.21167 17.6953 8.80347 17.9414 8.42456C18.1914 8.04175 18.5488 7.75073 19.0137 7.55151C19.4824 7.35229 20.0469 7.25269 20.707 7.25269C21.7852 7.25269 22.5957 7.48901 23.1387 7.96167C23.6855 8.43433 23.9727 9.06519 24 9.85425L22.2656 9.93042C22.1914 9.48901 22.0312 9.17261 21.7852 8.9812C21.543 8.78589 21.1777 8.68823 20.6895 8.68823C20.1855 8.68823 19.791 8.79175 19.5059 8.99878C19.3223 9.13159 19.2305 9.30933 19.2305 9.53198C19.2305 9.73511 19.3164 9.90894 19.4883 10.0535C19.707 10.2371 20.2383 10.4285 21.082 10.6277C21.9258 10.8269 22.5488 11.0339 22.9512 11.2488C23.3574 11.4597 23.6738 11.7507 23.9004 12.1218C24.1309 12.489 24.2461 12.9441 24.2461 13.4871C24.2461 13.9792 24.1094 14.4402 23.8359 14.8699C23.5625 15.2996 23.1758 15.6199 22.6758 15.8308C22.1758 16.0378 21.5527 16.1414 20.8066 16.1414C19.7207 16.1414 18.8867 15.8914 18.3047 15.3914C17.7227 14.8875 17.375 14.155 17.2617 13.1941ZM25.7051 15.989V7.39917H32.0742V8.85229H27.4395V10.7566H31.752V12.2039H27.4395V14.5417H32.2383V15.989H25.7051ZM33.7266 15.989V7.39917H35.4141L38.9297 13.1355V7.39917H40.541V15.989H38.8008L35.3379 10.3875V15.989H33.7266Z" fill="white"/>
<defs>
<linearGradient id="paint0_linear_85_2066" x1="25.5" y1="1.98901" x2="25.5" y2="21.989" gradientUnits="userSpaceOnUse">
<stop stop-color="#3A95AA"/>
<stop offset="1" stop-color="#FF6381"/>
</linearGradient>
</defs>
</svg>
