<svg width="98" height="84" viewBox="0 0 98 84" fill="none" xmlns="http://www.w3.org/2000/svg">
<path d="M48.0769 83.754C47.3464 83.7545 46.5193 83.6515 45.5798 83.422C38.8269 81.7745 39.3943 77.1046 39.7693 74.0148C40.1248 71.0851 40.0847 69.9987 38.2381 69.3073C36.1151 68.5158 35.1151 69.5734 33.1746 72.3688C31.5721 74.6769 29.1512 78.1623 24.8435 75.7418C18.53 72.1959 20.6267 67.5899 22.0134 64.5421C23.3982 61.4986 23.7907 60.1119 22.0691 58.6319C20.2996 57.1114 18.8142 57.7925 15.8455 59.7105C13.8269 61.0147 11.7459 62.3653 9.40406 61.8023C7.85426 61.4297 6.53686 60.2759 5.37676 58.275C2.77816 53.7931 6.30056 51.2325 8.87286 49.3629C11.8348 47.2096 13.6053 45.7351 12.7323 42.6852C11.9677 40.0119 10.5135 39.9655 7.56236 40.1115C5.64636 40.2067 3.47256 40.3161 1.90516 38.8254C0.740961 37.7174 0.174561 35.942 0.174561 33.3976C0.174561 26.1276 5.23906 25.8713 8.58956 25.7013C11.0584 25.5763 12.2683 25.4074 12.7068 24.4059C14.3757 20.59 12.489 18.966 10.3045 17.0856C8.89036 15.8683 7.42746 14.61 7.38066 12.7262C7.34846 11.4152 8.03596 10.1075 9.48516 8.72865C11.5125 6.79895 13.3485 5.89805 15.1141 5.96745C17.4139 6.06075 18.9491 7.78045 20.1834 9.16175C21.7391 10.9029 22.327 11.359 23.2361 10.9996C25.2302 10.2149 26.4334 9.28775 26.8113 8.24335C27.3318 6.80585 26.3318 4.98115 25.45 3.37125L25.1004 2.72725C24.7117 1.99585 24.9891 1.08765 25.7205 0.698448C26.4461 0.308348 27.3592 0.585648 27.7488 1.31805L28.0808 1.92935C29.1501 3.88055 30.614 6.55235 29.6326 9.26475C28.9392 11.1812 27.2058 12.6617 24.3338 13.7916C21.3484 14.9693 19.3817 12.7677 17.9461 11.1603C16.9568 10.0529 16.0223 9.00705 14.992 8.96505C14.1238 8.92845 12.9217 9.59935 11.5535 10.9015C10.4803 11.923 10.3748 12.4655 10.3797 12.651C10.3934 13.2042 11.3426 14.0216 12.2615 14.8116C14.5515 16.7828 18.0125 19.7618 15.4549 25.608C14.2264 28.4195 11.1854 28.5733 8.74196 28.6974C4.98216 28.8878 3.17456 29.1671 3.17456 33.3976C3.17456 35.0294 3.45096 36.1544 3.97336 36.6516C4.60816 37.2561 5.97136 37.1886 7.41286 37.1149C10.0955 36.9801 14.1619 36.7771 15.617 41.8601C17.1111 47.0822 13.369 49.8029 10.6365 51.7892C7.51636 54.0583 6.87666 54.8811 7.97236 56.7702C8.68816 58.0061 9.40596 58.7175 10.1062 58.8859C11.1863 59.1447 12.6609 58.196 14.2175 57.1906C16.8152 55.5129 20.3728 53.2175 24.0241 56.3571C27.6257 59.4523 25.9596 63.1125 24.7438 65.7848C23.2838 68.9933 22.402 70.9304 26.3122 73.1266C28.0183 74.0846 28.7409 73.4972 30.7097 70.6583C32.4236 68.1886 34.7673 64.8053 39.2888 66.4977C43.5124 68.0778 43.07 71.7184 42.7468 74.3761C42.3601 77.566 42.1257 79.4918 46.2907 80.5079C49.8542 81.3746 50.2468 80.0499 51.1149 77.1471C51.9098 74.4865 52.9997 70.8424 57.9596 70.8424C63.4977 70.8424 64.5006 74.6925 65.1647 77.2399C65.5329 78.652 65.8502 79.8712 66.6647 80.3488C67.4254 80.7936 68.8434 80.7619 70.7663 80.2599C72.2702 79.8668 73.2302 79.3317 73.5456 78.7125C73.987 77.8429 73.364 76.257 72.7614 74.7228C71.6471 71.8878 69.9626 67.6027 74.8346 64.8385C79.1666 62.381 81.9264 64.7672 83.7516 66.3453C84.6959 67.1612 85.526 67.877 86.2213 67.8067C86.6979 67.7682 87.5494 67.3838 88.899 65.7706C90.6763 63.6456 90.0924 62.9713 87.7916 60.9591C85.7926 59.2101 82.7701 56.5665 84.9557 52.0021C87.0455 47.6369 90.3991 47.0651 92.6178 46.6872C94.7936 46.3161 95.0211 46.2775 94.7448 44.1774C94.5651 42.8048 93.779 42.5168 90.9714 42.1735C88.4372 41.8634 84.9675 41.4391 84.1618 37.5119C83.1169 32.4181 85.4011 29.0448 89.9451 27.6537C90.7371 27.4096 91.576 27.8563 91.8191 28.6488C92.0613 29.4408 91.616 30.2797 90.824 30.5218C85.0603 32.2864 86.7165 35.0333 87.1013 36.9093C87.4392 38.5592 88.5906 38.8601 91.3357 39.1954C93.8152 39.4986 97.2107 39.9142 97.7195 43.7867C98.3709 48.7496 95.2127 49.2878 93.1218 49.6441C91.0437 49.9986 89.0808 50.3331 87.6609 53.2974C86.5134 55.6958 87.5935 56.7998 89.7673 58.7012C91.8269 60.5025 94.9392 63.2251 91.1999 67.6953C89.5358 69.6846 88.031 70.6704 86.4626 70.7969C84.5134 70.9575 83.0603 69.7119 81.7907 68.6148C79.8298 66.92 78.694 66.0982 76.3151 67.4478C73.9313 68.7999 74.2135 70.2159 75.5534 73.6255C76.3591 75.6763 77.2722 78.0005 76.2194 80.0718C75.485 81.5171 73.9499 82.5279 71.526 83.1621C68.6979 83.9028 66.6735 83.8306 65.1481 82.937C63.2604 81.831 62.7301 79.7939 62.2614 77.9961C61.5505 75.2666 61.0358 73.8423 57.9596 73.8423C55.3551 73.8423 54.8073 75.2701 53.9889 78.0064C53.284 80.3663 52.2703 83.754 48.0769 83.754Z" fill="url(#paint0_radial_92_5502)"/>
<defs>
<radialGradient id="paint0_radial_92_5502" cx="0" cy="0" r="1" gradientUnits="userSpaceOnUse" gradientTransform="translate(48.1552 42.305) rotate(29.1642) scale(50.5416 40.6604)">
<stop offset="0.5923" stop-color="#00A0EC"/>
<stop offset="1" stop-color="#CFA01D"/>
</radialGradient>
</defs>
</svg>
