<svg width="39" height="24" viewBox="0 0 39 24" fill="none" xmlns="http://www.w3.org/2000/svg">
<rect x="2" y="1.98901" width="36" height="20" rx="10" fill="url(#paint0_linear_64_1812)"/>
<rect x="2" y="1.98901" width="36" height="20" rx="10" stroke="#EDE3B8" stroke-width="3" stroke-linejoin="round"/>
<path d="M10.1797 15.989V7.39917H12.7754L14.334 13.2585L15.875 7.39917H18.4766V15.989H16.8652V9.22729L15.1602 15.989H13.4902L11.791 9.22729V15.989H10.1797ZM20.1992 15.989V7.39917H22.9824C24.0371 7.39917 24.7246 7.44214 25.0449 7.52808C25.5371 7.65698 25.9492 7.93823 26.2812 8.37183C26.6133 8.80151 26.7793 9.35815 26.7793 10.0417C26.7793 10.5691 26.6836 11.0125 26.4922 11.3718C26.3008 11.7312 26.0566 12.0144 25.7598 12.2214C25.4668 12.4246 25.168 12.5593 24.8633 12.6257C24.4492 12.7078 23.8496 12.7488 23.0645 12.7488H21.9336V15.989H20.1992ZM21.9336 8.85229V11.2898H22.8828C23.5664 11.2898 24.0234 11.2449 24.2539 11.155C24.4844 11.0652 24.6641 10.9246 24.793 10.7332C24.9258 10.5417 24.9922 10.3191 24.9922 10.0652C24.9922 9.75269 24.9004 9.49487 24.7168 9.29175C24.5332 9.08862 24.3008 8.96167 24.0195 8.91089C23.8125 8.87183 23.3965 8.85229 22.7715 8.85229H21.9336ZM28.1504 15.989V7.39917H29.8848V15.989H28.1504Z" fill="white"/>
<defs>
<linearGradient id="paint0_linear_64_1812" x1="20" y1="1.98901" x2="20" y2="21.989" gradientUnits="userSpaceOnUse">
<stop stop-color="#D86B1E"/>
<stop offset="1" stop-color="#EDE3B8"/>
</linearGradient>
</defs>
</svg>
