<svg width="43" height="24" viewBox="0 0 43 24" fill="none" xmlns="http://www.w3.org/2000/svg">
<rect x="2" y="1.98901" width="40" height="20" rx="10" fill="url(#paint0_linear_67_1834)"/>
<rect x="2" y="1.98901" width="40" height="20" rx="10" stroke="#E07236" stroke-width="3" stroke-linejoin="round"/>
<path d="M10.2051 15.989V7.39917H13.8555C14.7734 7.39917 15.4395 7.47729 15.8535 7.63354C16.2715 7.78589 16.6055 8.05933 16.8555 8.45386C17.1055 8.84839 17.2305 9.29956 17.2305 9.80737C17.2305 10.4519 17.041 10.9851 16.6621 11.407C16.2832 11.825 15.7168 12.0886 14.9629 12.198C15.3379 12.4167 15.6465 12.657 15.8887 12.9187C16.1348 13.1804 16.4648 13.6453 16.8789 14.3132L17.9277 15.989H15.8535L14.5996 14.1199C14.1543 13.4519 13.8496 13.032 13.6855 12.8601C13.5215 12.6843 13.3477 12.5652 13.1641 12.5027C12.9805 12.4363 12.6895 12.4031 12.291 12.4031H11.9395V15.989H10.2051ZM11.9395 11.032H13.2227C14.0547 11.032 14.5742 10.9968 14.7812 10.9265C14.9883 10.8562 15.1504 10.7351 15.2676 10.5632C15.3848 10.3914 15.4434 10.1765 15.4434 9.9187C15.4434 9.62964 15.3652 9.39722 15.209 9.22144C15.0566 9.04175 14.8398 8.92847 14.5586 8.88159C14.418 8.86206 13.9961 8.85229 13.293 8.85229H11.9395V11.032ZM26.6172 15.989H24.7305L23.9805 14.0378H20.5469L19.8379 15.989H17.998L21.3438 7.39917H23.1777L26.6172 15.989ZM23.4238 12.5906L22.2402 9.40308L21.0801 12.5906H23.4238ZM27.1035 13.1941L28.791 13.03C28.8926 13.5964 29.0977 14.0125 29.4062 14.2781C29.7188 14.5437 30.1387 14.6765 30.666 14.6765C31.2246 14.6765 31.6445 14.5593 31.9258 14.325C32.2109 14.0867 32.3535 13.8093 32.3535 13.4929C32.3535 13.2898 32.293 13.1179 32.1719 12.9773C32.0547 12.8328 31.8477 12.7078 31.5508 12.6023C31.3477 12.532 30.8848 12.407 30.1621 12.2273C29.2324 11.9968 28.5801 11.7136 28.2051 11.3777C27.6777 10.905 27.4141 10.3289 27.4141 9.64917C27.4141 9.21167 27.5371 8.80347 27.7832 8.42456C28.0332 8.04175 28.3906 7.75073 28.8555 7.55151C29.3242 7.35229 29.8887 7.25269 30.5488 7.25269C31.627 7.25269 32.4375 7.48901 32.9805 7.96167C33.5273 8.43433 33.8145 9.06519 33.8418 9.85425L32.1074 9.93042C32.0332 9.48901 31.873 9.17261 31.627 8.9812C31.3848 8.78589 31.0195 8.68823 30.5312 8.68823C30.0273 8.68823 29.6328 8.79175 29.3477 8.99878C29.1641 9.13159 29.0723 9.30933 29.0723 9.53198C29.0723 9.73511 29.1582 9.90894 29.3301 10.0535C29.5488 10.2371 30.0801 10.4285 30.9238 10.6277C31.7676 10.8269 32.3906 11.0339 32.793 11.2488C33.1992 11.4597 33.5156 11.7507 33.7422 12.1218C33.9727 12.489 34.0879 12.9441 34.0879 13.4871C34.0879 13.9792 33.9512 14.4402 33.6777 14.8699C33.4043 15.2996 33.0176 15.6199 32.5176 15.8308C32.0176 16.0378 31.3945 16.1414 30.6484 16.1414C29.5625 16.1414 28.7285 15.8914 28.1465 15.3914C27.5645 14.8875 27.2168 14.155 27.1035 13.1941Z" fill="white"/>
<defs>
<linearGradient id="paint0_linear_67_1834" x1="22" y1="1.98901" x2="22" y2="21.989" gradientUnits="userSpaceOnUse">
<stop stop-color="#E07236"/>
<stop offset="1" stop-color="#85FFCD"/>
</linearGradient>
</defs>
</svg>
