<svg width="42" height="24" viewBox="0 0 42 24" fill="none" xmlns="http://www.w3.org/2000/svg">
<rect x="2" y="1.98901" width="39" height="20" rx="10" fill="url(#paint0_linear_42_2715)"/>
<rect x="2" y="1.98901" width="39" height="20" rx="10" stroke="#EBA52C" stroke-width="3" stroke-linejoin="round"/>
<path d="M10.3789 15.989V7.39917H16.2676V8.85229H12.1133V10.8855H15.6992V12.3386H12.1133V15.989H10.3789ZM17.709 15.989V7.39917H21.3594C22.2773 7.39917 22.9434 7.47729 23.3574 7.63354C23.7754 7.78589 24.1094 8.05933 24.3594 8.45386C24.6094 8.84839 24.7344 9.29956 24.7344 9.80737C24.7344 10.4519 24.5449 10.9851 24.166 11.407C23.7871 11.825 23.2207 12.0886 22.4668 12.198C22.8418 12.4167 23.1504 12.657 23.3926 12.9187C23.6387 13.1804 23.9688 13.6453 24.3828 14.3132L25.4316 15.989H23.3574L22.1035 14.1199C21.6582 13.4519 21.3535 13.032 21.1895 12.8601C21.0254 12.6843 20.8516 12.5652 20.668 12.5027C20.4844 12.4363 20.1934 12.4031 19.7949 12.4031H19.4434V15.989H17.709ZM19.4434 11.032H20.7266C21.5586 11.032 22.0781 10.9968 22.2852 10.9265C22.4922 10.8562 22.6543 10.7351 22.7715 10.5632C22.8887 10.3914 22.9473 10.1765 22.9473 9.9187C22.9473 9.62964 22.8691 9.39722 22.7129 9.22144C22.5605 9.04175 22.3438 8.92847 22.0625 8.88159C21.9219 8.86206 21.5 8.85229 20.7969 8.85229H19.4434V11.032ZM25.9355 13.1941L27.623 13.03C27.7246 13.5964 27.9297 14.0125 28.2383 14.2781C28.5508 14.5437 28.9707 14.6765 29.498 14.6765C30.0566 14.6765 30.4766 14.5593 30.7578 14.325C31.043 14.0867 31.1855 13.8093 31.1855 13.4929C31.1855 13.2898 31.125 13.1179 31.0039 12.9773C30.8867 12.8328 30.6797 12.7078 30.3828 12.6023C30.1797 12.532 29.7168 12.407 28.9941 12.2273C28.0645 11.9968 27.4121 11.7136 27.0371 11.3777C26.5098 10.905 26.2461 10.3289 26.2461 9.64917C26.2461 9.21167 26.3691 8.80347 26.6152 8.42456C26.8652 8.04175 27.2227 7.75073 27.6875 7.55151C28.1562 7.35229 28.7207 7.25269 29.3809 7.25269C30.459 7.25269 31.2695 7.48901 31.8125 7.96167C32.3594 8.43433 32.6465 9.06519 32.6738 9.85425L30.9395 9.93042C30.8652 9.48901 30.7051 9.17261 30.459 8.9812C30.2168 8.78589 29.8516 8.68823 29.3633 8.68823C28.8594 8.68823 28.4648 8.79175 28.1797 8.99878C27.9961 9.13159 27.9043 9.30933 27.9043 9.53198C27.9043 9.73511 27.9902 9.90894 28.1621 10.0535C28.3809 10.2371 28.9121 10.4285 29.7559 10.6277C30.5996 10.8269 31.2227 11.0339 31.625 11.2488C32.0312 11.4597 32.3477 11.7507 32.5742 12.1218C32.8047 12.489 32.9199 12.9441 32.9199 13.4871C32.9199 13.9792 32.7832 14.4402 32.5098 14.8699C32.2363 15.2996 31.8496 15.6199 31.3496 15.8308C30.8496 16.0378 30.2266 16.1414 29.4805 16.1414C28.3945 16.1414 27.5605 15.8914 26.9785 15.3914C26.3965 14.8875 26.0488 14.155 25.9355 13.1941Z" fill="white"/>
<defs>
<linearGradient id="paint0_linear_42_2715" x1="21.5" y1="1.98901" x2="21.5" y2="21.989" gradientUnits="userSpaceOnUse">
<stop stop-color="#5A72C5"/>
<stop offset="1" stop-color="#EBA52C"/>
</linearGradient>
</defs>
</svg>
