<svg width="58" height="24" viewBox="0 0 58 24" fill="none" xmlns="http://www.w3.org/2000/svg">
<rect x="2" y="1.98901" width="55" height="20" rx="10" fill="url(#paint0_linear_42_2657)"/>
<rect x="2" y="1.98901" width="55" height="20" rx="10" stroke="#1F5E20" stroke-width="3" stroke-linejoin="round"/>
<path d="M10.0234 15.989V7.39917H16.3926V8.85229H11.7578V10.7566H16.0703V12.2039H11.7578V14.5417H16.5566V15.989H10.0234ZM18.0332 15.989V7.39917H21.6836C22.6016 7.39917 23.2676 7.47729 23.6816 7.63354C24.0996 7.78589 24.4336 8.05933 24.6836 8.45386C24.9336 8.84839 25.0586 9.29956 25.0586 9.80737C25.0586 10.4519 24.8691 10.9851 24.4902 11.407C24.1113 11.825 23.5449 12.0886 22.791 12.198C23.166 12.4167 23.4746 12.657 23.7168 12.9187C23.9629 13.1804 24.293 13.6453 24.707 14.3132L25.7559 15.989H23.6816L22.4277 14.1199C21.9824 13.4519 21.6777 13.032 21.5137 12.8601C21.3496 12.6843 21.1758 12.5652 20.9922 12.5027C20.8086 12.4363 20.5176 12.4031 20.1191 12.4031H19.7676V15.989H18.0332ZM19.7676 11.032H21.0508C21.8828 11.032 22.4023 10.9968 22.6094 10.9265C22.8164 10.8562 22.9785 10.7351 23.0957 10.5632C23.2129 10.3914 23.2715 10.1765 23.2715 9.9187C23.2715 9.62964 23.1934 9.39722 23.0371 9.22144C22.8848 9.04175 22.668 8.92847 22.3867 8.88159C22.2461 8.86206 21.8242 8.85229 21.1211 8.85229H19.7676V11.032ZM32.1953 12.8308L33.877 13.364C33.6191 14.3015 33.1895 14.9988 32.5879 15.4558C31.9902 15.9089 31.2305 16.1355 30.3086 16.1355C29.168 16.1355 28.2305 15.7468 27.4961 14.9695C26.7617 14.1882 26.3945 13.1218 26.3945 11.7703C26.3945 10.3406 26.7637 9.2312 27.502 8.44214C28.2402 7.64917 29.2109 7.25269 30.4141 7.25269C31.4648 7.25269 32.3184 7.56323 32.9746 8.18433C33.3652 8.55151 33.6582 9.07886 33.8535 9.76636L32.1367 10.1765C32.0352 9.7312 31.8223 9.37964 31.498 9.12183C31.1777 8.86401 30.7871 8.73511 30.3262 8.73511C29.6895 8.73511 29.1719 8.96362 28.7734 9.42065C28.3789 9.87769 28.1816 10.6179 28.1816 11.6414C28.1816 12.7273 28.377 13.5007 28.7676 13.9617C29.1582 14.4226 29.666 14.6531 30.291 14.6531C30.752 14.6531 31.1484 14.5066 31.4805 14.2136C31.8125 13.9207 32.0508 13.4597 32.1953 12.8308ZM40.8672 12.8308L42.5488 13.364C42.291 14.3015 41.8613 14.9988 41.2598 15.4558C40.6621 15.9089 39.9023 16.1355 38.9805 16.1355C37.8398 16.1355 36.9023 15.7468 36.168 14.9695C35.4336 14.1882 35.0664 13.1218 35.0664 11.7703C35.0664 10.3406 35.4355 9.2312 36.1738 8.44214C36.9121 7.64917 37.8828 7.25269 39.0859 7.25269C40.1367 7.25269 40.9902 7.56323 41.6465 8.18433C42.0371 8.55151 42.3301 9.07886 42.5254 9.76636L40.8086 10.1765C40.707 9.7312 40.4941 9.37964 40.1699 9.12183C39.8496 8.86401 39.459 8.73511 38.998 8.73511C38.3613 8.73511 37.8438 8.96362 37.4453 9.42065C37.0508 9.87769 36.8535 10.6179 36.8535 11.6414C36.8535 12.7273 37.0488 13.5007 37.4395 13.9617C37.8301 14.4226 38.3379 14.6531 38.9629 14.6531C39.4238 14.6531 39.8203 14.5066 40.1523 14.2136C40.4844 13.9207 40.7227 13.4597 40.8672 12.8308ZM49.2578 9.50269L47.6641 9.67847C47.625 9.35034 47.5234 9.10815 47.3594 8.9519C47.1953 8.79565 46.9824 8.71753 46.7207 8.71753C46.373 8.71753 46.0781 8.87378 45.8359 9.18628C45.5977 9.49878 45.4473 10.1492 45.3848 11.1375C45.7949 10.6531 46.3047 10.4109 46.9141 10.4109C47.6016 10.4109 48.1895 10.6726 48.6777 11.196C49.1699 11.7195 49.416 12.3953 49.416 13.2234C49.416 14.1023 49.1582 14.8074 48.6426 15.3386C48.127 15.8699 47.4648 16.1355 46.6562 16.1355C45.7891 16.1355 45.0762 15.7996 44.5176 15.1277C43.959 14.4519 43.6797 13.3464 43.6797 11.8113C43.6797 10.2371 43.9707 9.10229 44.5527 8.40698C45.1348 7.71167 45.8906 7.36401 46.8203 7.36401C47.4727 7.36401 48.0117 7.54761 48.4375 7.91479C48.8672 8.27808 49.1406 8.80737 49.2578 9.50269ZM45.5254 13.0945C45.5254 13.6296 45.6484 14.0437 45.8945 14.3367C46.1406 14.6257 46.4219 14.7703 46.7383 14.7703C47.043 14.7703 47.2969 14.6511 47.5 14.4128C47.7031 14.1746 47.8047 13.7839 47.8047 13.241C47.8047 12.6824 47.6953 12.2742 47.4766 12.0164C47.2578 11.7546 46.9844 11.6238 46.6562 11.6238C46.3398 11.6238 46.0723 11.7488 45.8535 11.9988C45.6348 12.2449 45.5254 12.6101 45.5254 13.0945Z" fill="white"/>
<defs>
<linearGradient id="paint0_linear_42_2657" x1="29.5" y1="1.98901" x2="29.5" y2="21.989" gradientUnits="userSpaceOnUse">
<stop stop-color="#1F5E20"/>
<stop offset="1" stop-color="#FFB900"/>
</linearGradient>
</defs>
</svg>
