<svg width="52" height="24" viewBox="0 0 52 24" fill="none" xmlns="http://www.w3.org/2000/svg">
<rect x="2" y="1.98901" width="49" height="20" rx="10" fill="url(#paint0_linear_38_1858)"/>
<rect x="2" y="1.98901" width="49" height="20" rx="10" stroke="#58BA00" stroke-width="3" stroke-linejoin="round"/>
<path d="M15.8594 12.8308L17.541 13.364C17.2832 14.3015 16.8535 14.9988 16.252 15.4558C15.6543 15.9089 14.8945 16.1355 13.9727 16.1355C12.832 16.1355 11.8945 15.7468 11.1602 14.9695C10.4258 14.1882 10.0586 13.1218 10.0586 11.7703C10.0586 10.3406 10.4277 9.2312 11.166 8.44214C11.9043 7.64917 12.875 7.25269 14.0781 7.25269C15.1289 7.25269 15.9824 7.56323 16.6387 8.18433C17.0293 8.55151 17.3223 9.07886 17.5176 9.76636L15.8008 10.1765C15.6992 9.7312 15.4863 9.37964 15.1621 9.12183C14.8418 8.86401 14.4512 8.73511 13.9902 8.73511C13.3535 8.73511 12.8359 8.96362 12.4375 9.42065C12.043 9.87769 11.8457 10.6179 11.8457 11.6414C11.8457 12.7273 12.041 13.5007 12.4316 13.9617C12.8223 14.4226 13.3301 14.6531 13.9551 14.6531C14.416 14.6531 14.8125 14.5066 15.1445 14.2136C15.4766 13.9207 15.7148 13.4597 15.8594 12.8308ZM26.7812 15.989H24.8945L24.1445 14.0378H20.7109L20.002 15.989H18.1621L21.5078 7.39917H23.3418L26.7812 15.989ZM23.5879 12.5906L22.4043 9.40308L21.2441 12.5906H23.5879ZM27.2676 13.1941L28.9551 13.03C29.0566 13.5964 29.2617 14.0125 29.5703 14.2781C29.8828 14.5437 30.3027 14.6765 30.8301 14.6765C31.3887 14.6765 31.8086 14.5593 32.0898 14.325C32.375 14.0867 32.5176 13.8093 32.5176 13.4929C32.5176 13.2898 32.457 13.1179 32.3359 12.9773C32.2188 12.8328 32.0117 12.7078 31.7148 12.6023C31.5117 12.532 31.0488 12.407 30.3262 12.2273C29.3965 11.9968 28.7441 11.7136 28.3691 11.3777C27.8418 10.905 27.5781 10.3289 27.5781 9.64917C27.5781 9.21167 27.7012 8.80347 27.9473 8.42456C28.1973 8.04175 28.5547 7.75073 29.0195 7.55151C29.4883 7.35229 30.0527 7.25269 30.7129 7.25269C31.791 7.25269 32.6016 7.48901 33.1445 7.96167C33.6914 8.43433 33.9785 9.06519 34.0059 9.85425L32.2715 9.93042C32.1973 9.48901 32.0371 9.17261 31.791 8.9812C31.5488 8.78589 31.1836 8.68823 30.6953 8.68823C30.1914 8.68823 29.7969 8.79175 29.5117 8.99878C29.3281 9.13159 29.2363 9.30933 29.2363 9.53198C29.2363 9.73511 29.3223 9.90894 29.4941 10.0535C29.7129 10.2371 30.2441 10.4285 31.0879 10.6277C31.9316 10.8269 32.5547 11.0339 32.957 11.2488C33.3633 11.4597 33.6797 11.7507 33.9062 12.1218C34.1367 12.489 34.252 12.9441 34.252 13.4871C34.252 13.9792 34.1152 14.4402 33.8418 14.8699C33.5684 15.2996 33.1816 15.6199 32.6816 15.8308C32.1816 16.0378 31.5586 16.1414 30.8125 16.1414C29.7266 16.1414 28.8926 15.8914 28.3105 15.3914C27.7285 14.8875 27.3809 14.155 27.2676 13.1941ZM35.7344 15.989V7.39917H37.4688V11.2136L40.9727 7.39917H43.3047L40.0703 10.7449L43.4805 15.989H41.2363L38.875 11.9578L37.4688 13.3933V15.989H35.7344Z" fill="white"/>
<defs>
<linearGradient id="paint0_linear_38_1858" x1="26.5" y1="1.98901" x2="26.5" y2="21.989" gradientUnits="userSpaceOnUse">
<stop stop-color="#58BA00"/>
<stop offset="1" stop-color="#5001A2"/>
</linearGradient>
</defs>
</svg>
