<svg width="69" height="24" viewBox="0 0 69 24" fill="none" xmlns="http://www.w3.org/2000/svg">
<rect x="1" y="1.98901" width="67" height="20" rx="10" fill="url(#paint0_linear_50_1829)"/>
<rect x="1" y="1.98901" width="67" height="20" rx="10" stroke="#DF2106" stroke-width="3" stroke-linejoin="round"/>
<path d="M9.29883 15.989V7.39917H11.0332V15.989H9.29883ZM14.625 15.989V8.85229H12.0762V7.39917H18.9023V8.85229H16.3594V15.989H14.625ZM24.0234 12.8308V11.3835H27.7617V14.8054C27.3984 15.157 26.8711 15.4675 26.1797 15.7371C25.4922 16.0027 24.7949 16.1355 24.0879 16.1355C23.1895 16.1355 22.4062 15.948 21.7383 15.573C21.0703 15.1941 20.5684 14.655 20.2324 13.9558C19.8965 13.2527 19.7285 12.489 19.7285 11.6648C19.7285 10.7703 19.916 9.97534 20.291 9.28003C20.666 8.58472 21.2148 8.05151 21.9375 7.68042C22.4883 7.39526 23.1738 7.25269 23.9941 7.25269C25.0605 7.25269 25.8926 7.47729 26.4902 7.92651C27.0918 8.37183 27.4785 8.98901 27.6504 9.77808L25.9277 10.1003C25.8066 9.67847 25.5781 9.34644 25.2422 9.10425C24.9102 8.85815 24.4941 8.73511 23.9941 8.73511C23.2363 8.73511 22.6328 8.97534 22.1836 9.45581C21.7383 9.93628 21.5156 10.6492 21.5156 11.5945C21.5156 12.614 21.7422 13.3796 22.1953 13.8914C22.6484 14.3992 23.2422 14.6531 23.9766 14.6531C24.3398 14.6531 24.7031 14.5828 25.0664 14.4421C25.4336 14.2976 25.748 14.1238 26.0098 13.9207V12.8308H24.0234ZM29.373 7.39917H32.8066C33.4863 7.39917 33.9922 7.42847 34.3242 7.48706C34.6602 7.54175 34.959 7.65894 35.2207 7.83862C35.4863 8.01831 35.707 8.25854 35.8828 8.55933C36.0586 8.8562 36.1465 9.19019 36.1465 9.56128C36.1465 9.96362 36.0371 10.3328 35.8184 10.6687C35.6035 11.0046 35.3105 11.2566 34.9395 11.4246C35.4629 11.5769 35.8652 11.8367 36.1465 12.2039C36.4277 12.571 36.5684 13.0027 36.5684 13.4988C36.5684 13.8894 36.4766 14.2703 36.293 14.6414C36.1133 15.0085 35.8652 15.3035 35.5488 15.5261C35.2363 15.7449 34.8496 15.8796 34.3887 15.9304C34.0996 15.9617 33.4023 15.9812 32.2969 15.989H29.373V7.39917ZM31.1074 8.82886V10.8152H32.2441C32.9199 10.8152 33.3398 10.8054 33.5039 10.7859C33.8008 10.7507 34.0332 10.6492 34.2012 10.4812C34.373 10.3093 34.459 10.0847 34.459 9.80737C34.459 9.54175 34.3848 9.3269 34.2363 9.16284C34.0918 8.99487 33.875 8.89331 33.5859 8.85815C33.4141 8.83862 32.9199 8.82886 32.1035 8.82886H31.1074ZM31.1074 12.2449V14.5417H32.7129C33.3379 14.5417 33.7344 14.5242 33.9023 14.489C34.1602 14.4421 34.3691 14.3289 34.5293 14.1492C34.6934 13.9656 34.7754 13.7214 34.7754 13.4167C34.7754 13.1589 34.7129 12.9402 34.5879 12.7605C34.4629 12.5808 34.2812 12.45 34.043 12.3679C33.8086 12.2859 33.2969 12.2449 32.5078 12.2449H31.1074ZM37.6172 13.7097L39.2109 13.5164C39.2617 13.9226 39.3984 14.2332 39.6211 14.448C39.8438 14.6628 40.1133 14.7703 40.4297 14.7703C40.7695 14.7703 41.0547 14.6414 41.2852 14.3835C41.5195 14.1257 41.6367 13.7781 41.6367 13.3406C41.6367 12.9265 41.5254 12.5984 41.3027 12.3562C41.0801 12.114 40.8086 11.9929 40.4883 11.9929C40.2773 11.9929 40.0254 12.0339 39.7324 12.116L39.9141 10.7742C40.3594 10.7859 40.6992 10.6902 40.9336 10.4871C41.168 10.28 41.2852 10.0066 41.2852 9.66675C41.2852 9.37769 41.1992 9.14722 41.0273 8.97534C40.8555 8.80347 40.627 8.71753 40.3418 8.71753C40.0605 8.71753 39.8203 8.81519 39.6211 9.0105C39.4219 9.20581 39.3008 9.49097 39.2578 9.86597L37.7402 9.60815C37.8457 9.08862 38.0039 8.67456 38.2148 8.36597C38.4297 8.05347 38.7266 7.80933 39.1055 7.63354C39.4883 7.45386 39.916 7.36401 40.3887 7.36401C41.1973 7.36401 41.8457 7.62183 42.334 8.13745C42.7363 8.55933 42.9375 9.03589 42.9375 9.56714C42.9375 10.321 42.5254 10.9226 41.7012 11.3718C42.1934 11.4773 42.5859 11.7136 42.8789 12.0808C43.1758 12.448 43.3242 12.8914 43.3242 13.4109C43.3242 14.1648 43.0488 14.8074 42.498 15.3386C41.9473 15.8699 41.2617 16.1355 40.4414 16.1355C39.6641 16.1355 39.0195 15.9128 38.5078 15.4675C37.9961 15.0183 37.6992 14.4324 37.6172 13.7097ZM44.7246 7.39917H48.1582C48.8379 7.39917 49.3438 7.42847 49.6758 7.48706C50.0117 7.54175 50.3105 7.65894 50.5723 7.83862C50.8379 8.01831 51.0586 8.25854 51.2344 8.55933C51.4102 8.8562 51.498 9.19019 51.498 9.56128C51.498 9.96362 51.3887 10.3328 51.1699 10.6687C50.9551 11.0046 50.6621 11.2566 50.291 11.4246C50.8145 11.5769 51.2168 11.8367 51.498 12.2039C51.7793 12.571 51.9199 13.0027 51.9199 13.4988C51.9199 13.8894 51.8281 14.2703 51.6445 14.6414C51.4648 15.0085 51.2168 15.3035 50.9004 15.5261C50.5879 15.7449 50.2012 15.8796 49.7402 15.9304C49.4512 15.9617 48.7539 15.9812 47.6484 15.989H44.7246V7.39917ZM46.459 8.82886V10.8152H47.5957C48.2715 10.8152 48.6914 10.8054 48.8555 10.7859C49.1523 10.7507 49.3848 10.6492 49.5527 10.4812C49.7246 10.3093 49.8105 10.0847 49.8105 9.80737C49.8105 9.54175 49.7363 9.3269 49.5879 9.16284C49.4434 8.99487 49.2266 8.89331 48.9375 8.85815C48.7656 8.83862 48.2715 8.82886 47.4551 8.82886H46.459ZM46.459 12.2449V14.5417H48.0645C48.6895 14.5417 49.0859 14.5242 49.2539 14.489C49.5117 14.4421 49.7207 14.3289 49.8809 14.1492C50.0449 13.9656 50.127 13.7214 50.127 13.4167C50.127 13.1589 50.0645 12.9402 49.9395 12.7605C49.8145 12.5808 49.6328 12.45 49.3945 12.3679C49.1602 12.2859 48.6484 12.2449 47.8594 12.2449H46.459ZM53.3906 15.989V7.39917H56.1738C57.2285 7.39917 57.916 7.44214 58.2363 7.52808C58.7285 7.65698 59.1406 7.93823 59.4727 8.37183C59.8047 8.80151 59.9707 9.35815 59.9707 10.0417C59.9707 10.5691 59.875 11.0125 59.6836 11.3718C59.4922 11.7312 59.248 12.0144 58.9512 12.2214C58.6582 12.4246 58.3594 12.5593 58.0547 12.6257C57.6406 12.7078 57.041 12.7488 56.2559 12.7488H55.125V15.989H53.3906ZM55.125 8.85229V11.2898H56.0742C56.7578 11.2898 57.2148 11.2449 57.4453 11.155C57.6758 11.0652 57.8555 10.9246 57.9844 10.7332C58.1172 10.5417 58.1836 10.3191 58.1836 10.0652C58.1836 9.75269 58.0918 9.49487 57.9082 9.29175C57.7246 9.08862 57.4922 8.96167 57.2109 8.91089C57.0039 8.87183 56.5879 8.85229 55.9629 8.85229H55.125Z" fill="white"/>
<defs>
<linearGradient id="paint0_linear_50_1829" x1="34.5" y1="1.98901" x2="34.5" y2="21.989" gradientUnits="userSpaceOnUse">
<stop stop-color="#DF2106"/>
<stop offset="1" stop-color="#503A51"/>
</linearGradient>
</defs>
</svg>
