<svg width="56" height="24" viewBox="0 0 56 24" fill="none" xmlns="http://www.w3.org/2000/svg">
<rect x="2" y="1.98901" width="53" height="20" rx="10" fill="url(#paint0_linear_42_2605)"/>
<rect x="2" y="1.98901" width="53" height="20" rx="10" stroke="#598B77" stroke-width="3" stroke-linejoin="round"/>
<path d="M10.3477 7.39917H13.5176C14.2324 7.39917 14.7773 7.45386 15.1523 7.56323C15.6562 7.71167 16.0879 7.97534 16.4473 8.35425C16.8066 8.73315 17.0801 9.198 17.2676 9.74878C17.4551 10.2957 17.5488 10.9714 17.5488 11.7761C17.5488 12.4832 17.4609 13.0925 17.2852 13.6042C17.0703 14.2292 16.7637 14.7351 16.3652 15.1218C16.0645 15.4148 15.6582 15.6433 15.1465 15.8074C14.7637 15.9285 14.252 15.989 13.6113 15.989H10.3477V7.39917ZM12.082 8.85229V14.5417H13.377C13.8613 14.5417 14.2109 14.5144 14.4258 14.4597C14.707 14.3894 14.9395 14.2703 15.123 14.1023C15.3105 13.9343 15.4629 13.6589 15.5801 13.2761C15.6973 12.8894 15.7559 12.364 15.7559 11.7C15.7559 11.0359 15.6973 10.5261 15.5801 10.1707C15.4629 9.81519 15.2988 9.53784 15.0879 9.33862C14.877 9.1394 14.6094 9.00464 14.2852 8.93433C14.043 8.87964 13.5684 8.85229 12.8613 8.85229H12.082ZM19.0254 15.989V7.39917H21.8086C22.8633 7.39917 23.5508 7.44214 23.8711 7.52808C24.3633 7.65698 24.7754 7.93823 25.1074 8.37183C25.4395 8.80151 25.6055 9.35815 25.6055 10.0417C25.6055 10.5691 25.5098 11.0125 25.3184 11.3718C25.127 11.7312 24.8828 12.0144 24.5859 12.2214C24.293 12.4246 23.9941 12.5593 23.6895 12.6257C23.2754 12.7078 22.6758 12.7488 21.8906 12.7488H20.7598V15.989H19.0254ZM20.7598 8.85229V11.2898H21.709C22.3926 11.2898 22.8496 11.2449 23.0801 11.155C23.3105 11.0652 23.4902 10.9246 23.6191 10.7332C23.752 10.5417 23.8184 10.3191 23.8184 10.0652C23.8184 9.75269 23.7266 9.49487 23.543 9.29175C23.3594 9.08862 23.127 8.96167 22.8457 8.91089C22.6387 8.87183 22.2227 8.85229 21.5977 8.85229H20.7598ZM29.2852 15.989V12.3738L26.1387 7.39917H28.1719L30.1934 10.7976L32.1738 7.39917H34.1719L31.0137 12.3855V15.989H29.2852ZM34.6113 13.7097L36.2051 13.5164C36.2559 13.9226 36.3926 14.2332 36.6152 14.448C36.8379 14.6628 37.1074 14.7703 37.4238 14.7703C37.7637 14.7703 38.0488 14.6414 38.2793 14.3835C38.5137 14.1257 38.6309 13.7781 38.6309 13.3406C38.6309 12.9265 38.5195 12.5984 38.2969 12.3562C38.0742 12.114 37.8027 11.9929 37.4824 11.9929C37.2715 11.9929 37.0195 12.0339 36.7266 12.116L36.9082 10.7742C37.3535 10.7859 37.6934 10.6902 37.9277 10.4871C38.1621 10.28 38.2793 10.0066 38.2793 9.66675C38.2793 9.37769 38.1934 9.14722 38.0215 8.97534C37.8496 8.80347 37.6211 8.71753 37.3359 8.71753C37.0547 8.71753 36.8145 8.81519 36.6152 9.0105C36.416 9.20581 36.2949 9.49097 36.252 9.86597L34.7344 9.60815C34.8398 9.08862 34.998 8.67456 35.209 8.36597C35.4238 8.05347 35.7207 7.80933 36.0996 7.63354C36.4824 7.45386 36.9102 7.36401 37.3828 7.36401C38.1914 7.36401 38.8398 7.62183 39.3281 8.13745C39.7305 8.55933 39.9316 9.03589 39.9316 9.56714C39.9316 10.321 39.5195 10.9226 38.6953 11.3718C39.1875 11.4773 39.5801 11.7136 39.873 12.0808C40.1699 12.448 40.3184 12.8914 40.3184 13.4109C40.3184 14.1648 40.043 14.8074 39.4922 15.3386C38.9414 15.8699 38.2559 16.1355 37.4355 16.1355C36.6582 16.1355 36.0137 15.9128 35.502 15.4675C34.9902 15.0183 34.6934 14.4324 34.6113 13.7097ZM44.1328 7.36401C44.9648 7.36401 45.6152 7.66089 46.084 8.25464C46.6426 8.95776 46.9219 10.1238 46.9219 11.7527C46.9219 13.3777 46.6406 14.5457 46.0781 15.2566C45.6133 15.8425 44.9648 16.1355 44.1328 16.1355C43.2969 16.1355 42.623 15.8152 42.1113 15.1746C41.5996 14.53 41.3438 13.3835 41.3438 11.7351C41.3438 10.1179 41.625 8.95386 42.1875 8.24292C42.6523 7.65698 43.3008 7.36401 44.1328 7.36401ZM44.1328 8.72925C43.9336 8.72925 43.7559 8.7937 43.5996 8.92261C43.4434 9.04761 43.3223 9.27417 43.2363 9.60229C43.123 10.0281 43.0664 10.7449 43.0664 11.7527C43.0664 12.7605 43.1172 13.4539 43.2188 13.8328C43.3203 14.2078 43.4473 14.4578 43.5996 14.5828C43.7559 14.7078 43.9336 14.7703 44.1328 14.7703C44.332 14.7703 44.5098 14.7078 44.666 14.5828C44.8223 14.4539 44.9434 14.2253 45.0293 13.8972C45.1426 13.4753 45.1992 12.7605 45.1992 11.7527C45.1992 10.7449 45.1484 10.0535 45.0469 9.67847C44.9453 9.29956 44.8164 9.04761 44.6602 8.92261C44.5078 8.7937 44.332 8.72925 44.1328 8.72925Z" fill="white"/>
<defs>
<linearGradient id="paint0_linear_42_2605" x1="28.5" y1="1.98901" x2="28.5" y2="21.989" gradientUnits="userSpaceOnUse">
<stop stop-color="#83E386"/>
<stop offset="1" stop-color="#598B77"/>
</linearGradient>
</defs>
</svg>
