<svg width="59" height="24" viewBox="0 0 59 24" fill="none" xmlns="http://www.w3.org/2000/svg">
<rect x="2" y="1.98901" width="56" height="20" rx="10" fill="url(#paint0_linear_97_5791)"/>
<rect x="2" y="1.98901" width="56" height="20" rx="10" stroke="#FF0071" stroke-width="3" stroke-linejoin="round"/>
<path d="M10.1953 15.989V7.39917H11.9297V10.78H15.3281V7.39917H17.0625V15.989H15.3281V12.2332H11.9297V15.989H10.1953ZM18.8555 7.39917H22.0254C22.7402 7.39917 23.2852 7.45386 23.6602 7.56323C24.1641 7.71167 24.5957 7.97534 24.9551 8.35425C25.3145 8.73315 25.5879 9.198 25.7754 9.74878C25.9629 10.2957 26.0566 10.9714 26.0566 11.7761C26.0566 12.4832 25.9688 13.0925 25.793 13.6042C25.5781 14.2292 25.2715 14.7351 24.873 15.1218C24.5723 15.4148 24.166 15.6433 23.6543 15.8074C23.2715 15.9285 22.7598 15.989 22.1191 15.989H18.8555V7.39917ZM20.5898 8.85229V14.5417H21.8848C22.3691 14.5417 22.7188 14.5144 22.9336 14.4597C23.2148 14.3894 23.4473 14.2703 23.6309 14.1023C23.8184 13.9343 23.9707 13.6589 24.0879 13.2761C24.2051 12.8894 24.2637 12.364 24.2637 11.7C24.2637 11.0359 24.2051 10.5261 24.0879 10.1707C23.9707 9.81519 23.8066 9.53784 23.5957 9.33862C23.3848 9.1394 23.1172 9.00464 22.793 8.93433C22.5508 8.87964 22.0762 8.85229 21.3691 8.85229H20.5898ZM35.2793 15.989H33.3926L32.6426 14.0378H29.209L28.5 15.989H26.6602L30.0059 7.39917H31.8398L35.2793 15.989ZM32.0859 12.5906L30.9023 9.40308L29.7422 12.5906H32.0859ZM41.7012 12.8308L43.3828 13.364C43.125 14.3015 42.6953 14.9988 42.0938 15.4558C41.4961 15.9089 40.7363 16.1355 39.8145 16.1355C38.6738 16.1355 37.7363 15.7468 37.002 14.9695C36.2676 14.1882 35.9004 13.1218 35.9004 11.7703C35.9004 10.3406 36.2695 9.2312 37.0078 8.44214C37.7461 7.64917 38.7168 7.25269 39.9199 7.25269C40.9707 7.25269 41.8242 7.56323 42.4805 8.18433C42.8711 8.55151 43.1641 9.07886 43.3594 9.76636L41.6426 10.1765C41.541 9.7312 41.3281 9.37964 41.0039 9.12183C40.6836 8.86401 40.293 8.73511 39.832 8.73511C39.1953 8.73511 38.6777 8.96362 38.2793 9.42065C37.8848 9.87769 37.6875 10.6179 37.6875 11.6414C37.6875 12.7273 37.8828 13.5007 38.2734 13.9617C38.6641 14.4226 39.1719 14.6531 39.7969 14.6531C40.2578 14.6531 40.6543 14.5066 40.9863 14.2136C41.3184 13.9207 41.5566 13.4597 41.7012 12.8308ZM50.0918 9.50269L48.498 9.67847C48.459 9.35034 48.3574 9.10815 48.1934 8.9519C48.0293 8.79565 47.8164 8.71753 47.5547 8.71753C47.207 8.71753 46.9121 8.87378 46.6699 9.18628C46.4316 9.49878 46.2812 10.1492 46.2188 11.1375C46.6289 10.6531 47.1387 10.4109 47.748 10.4109C48.4355 10.4109 49.0234 10.6726 49.5117 11.196C50.0039 11.7195 50.25 12.3953 50.25 13.2234C50.25 14.1023 49.9922 14.8074 49.4766 15.3386C48.9609 15.8699 48.2988 16.1355 47.4902 16.1355C46.623 16.1355 45.9102 15.7996 45.3516 15.1277C44.793 14.4519 44.5137 13.3464 44.5137 11.8113C44.5137 10.2371 44.8047 9.10229 45.3867 8.40698C45.9688 7.71167 46.7246 7.36401 47.6543 7.36401C48.3066 7.36401 48.8457 7.54761 49.2715 7.91479C49.7012 8.27808 49.9746 8.80737 50.0918 9.50269ZM46.3594 13.0945C46.3594 13.6296 46.4824 14.0437 46.7285 14.3367C46.9746 14.6257 47.2559 14.7703 47.5723 14.7703C47.877 14.7703 48.1309 14.6511 48.334 14.4128C48.5371 14.1746 48.6387 13.7839 48.6387 13.241C48.6387 12.6824 48.5293 12.2742 48.3105 12.0164C48.0918 11.7546 47.8184 11.6238 47.4902 11.6238C47.1738 11.6238 46.9062 11.7488 46.6875 11.9988C46.4688 12.2449 46.3594 12.6101 46.3594 13.0945Z" fill="white"/>
<defs>
<linearGradient id="paint0_linear_97_5791" x1="30" y1="1.98901" x2="30" y2="21.989" gradientUnits="userSpaceOnUse">
<stop stop-color="#00BEB6"/>
<stop offset="1" stop-color="#FF0071"/>
</linearGradient>
</defs>
</svg>
