<svg width="63" height="101" viewBox="0 0 63 101" fill="none" xmlns="http://www.w3.org/2000/svg">
<path d="M60.0205 68.3787C60.0231 68.3667 60.0221 68.3541 60.0244 68.3421C61.1892 62.6446 61.8042 56.4813 61.8042 50.1382C61.8042 37.8068 59.4938 26.1431 55.2981 17.2953C50.0983 6.32725 42.3283 0.584531 32.2064 0.178238C31.8268 0.153632 31.4423 0.138672 31.0515 0.138672C30.6607 0.138672 30.2762 0.153632 29.8966 0.178238C19.7746 0.584531 12.0046 6.32725 6.80468 17.2953C2.60898 26.1432 0.298584 37.8069 0.298584 50.1383C0.298584 56.4996 0.913484 62.6834 2.08478 68.3945C3.18398 73.7543 4.77348 78.6978 6.80468 82.9813C12.2019 94.3654 20.36 100.138 31.0515 100.138C41.7429 100.138 49.901 94.3653 55.2982 82.9813C57.2856 78.7903 58.8465 73.9648 59.9427 68.7387C59.9448 68.729 59.9506 68.7205 59.9526 68.7108C59.9636 68.658 59.9728 68.6037 59.9837 68.5509C59.9957 68.4928 60.0086 68.4368 60.0205 68.3787ZM31.0515 80.3684C28.2638 78.0066 24.4398 71.2843 22.8263 60.6829C22.8261 60.6815 22.8263 60.68 22.826 60.6786C22.8253 60.6744 22.8245 60.6702 22.8239 60.6659C22.3427 57.4983 22.0587 53.9851 22.0587 50.1383C22.0587 33.4052 27.4297 22.9767 31.0516 19.9081C34.6734 22.9767 40.0445 33.4052 40.0445 50.1383C40.0445 53.9756 39.7621 57.4813 39.283 60.6429C39.2817 60.6499 39.2825 60.6572 39.2813 60.6643H39.2796C37.6678 71.2764 33.8409 78.0052 31.0515 80.3684Z" fill="#7BB6F2"/>
<path d="M38.8387 63.1703C38.4013 65.808 41.8768 70.2045 47.8618 70.8857C54.0088 71.5853 59.6158 70.034 60.1995 67.463C60.2776 67.0817 60.3712 66.5637 60.4727 65.9729C59.9514 68.4688 54.2618 70.2728 48.1148 69.5731C42.1298 68.8919 38.6562 64.8198 39.0778 61.8699L38.8387 63.1703Z" fill="#2369B0"/>
<path d="M2.3242 69.5201C1.9791 67.1554 5.46779 63.0707 11.5365 62.2436C17.7695 61.3941 23.1258 62.5969 23.621 64.8962L23.944 66.2307C23.509 63.9969 17.9769 62.5696 11.7439 63.419C5.67519 64.2461 2.27239 68.0363 2.59009 70.6832C2.48879 70.2581 2.3999 69.8713 2.3242 69.5201Z" fill="#2369B0"/>
<path d="M29.5837 19.9756C23.8276 19.9756 19.23 15.4682 19.23 10.0096C19.23 4.55089 23.7558 0.408634 29.564 0.194071C30.0011 0.175961 30.5948 0.131375 31.0513 0.138757C25.2952 0.138757 20.6443 4.55079 20.6443 10.0096C20.6443 15.4683 25.2953 19.9082 31.0513 19.9082L30.944 20.0008L29.5837 19.9756Z" fill="#2369B0"/>
<path d="M61.8093 50.1385C61.8093 62.4698 59.4989 74.1336 55.3031 82.9814C49.9059 94.3656 41.7477 100.138 31.0563 100.138C20.3649 100.138 12.2066 94.3655 6.80942 82.9814C2.61362 74.1336 0.303223 62.4698 0.303223 50.1385C0.303223 37.8072 2.61362 26.1434 6.80942 17.2955C12.2066 5.91136 20.3648 0.138916 31.0563 0.138916C41.7478 0.138916 49.906 5.91136 55.3031 17.2955C59.4989 26.1433 61.8093 37.8071 61.8093 50.1385ZM31.0514 80.3686C34.6733 77.3 40.0443 66.8716 40.0443 50.1385C40.0443 33.4054 34.6733 22.9768 31.0514 19.9083C27.4295 22.9768 22.0585 33.4054 22.0585 50.1385C22.0585 66.8716 27.4296 77.3 31.0514 80.3686Z" fill="url(#paint0_radial_92_5478)"/>
<mask id="mask0_92_5478" style="mask-type:alpha" maskUnits="userSpaceOnUse" x="0" y="0" width="39" height="101">
<ellipse cx="19.9426" cy="50.2148" rx="19" ry="50" fill="black"/>
</mask>
<g mask="url(#mask0_92_5478)">
<path d="M61.8093 50.1385C61.8093 62.4698 59.4989 74.1336 55.3031 82.9814C49.9059 94.3656 41.7477 100.138 31.0563 100.138C20.3649 100.138 12.2066 94.3655 6.80942 82.9814C2.61362 74.1336 0.303223 62.4698 0.303223 50.1385C0.303223 37.8072 2.61362 26.1434 6.80942 17.2955C12.2066 5.91136 20.3648 0.138916 31.0563 0.138916C41.7478 0.138916 49.906 5.91136 55.3031 17.2955C59.4989 26.1433 61.8093 37.8071 61.8093 50.1385ZM31.0514 80.3686C34.6733 77.3 40.0443 66.8716 40.0443 50.1385C40.0443 33.4054 34.6733 22.9768 31.0514 19.9083C27.4295 22.9768 22.0585 33.4054 22.0585 50.1385C22.0585 66.8716 27.4296 77.3 31.0514 80.3686Z" fill="url(#paint1_radial_92_5478)"/>
</g>
<path opacity="0.7" d="M61.8093 50.1385C61.8093 62.4698 59.4989 74.1336 55.3031 82.9814C49.9059 94.3656 41.7477 100.138 31.0563 100.138C20.3649 100.138 12.2066 94.3655 6.80942 82.9814C2.61362 74.1336 0.303223 62.4698 0.303223 50.1385C0.303223 37.8072 2.61362 26.1434 6.80942 17.2955C12.2066 5.91136 20.3648 0.138916 31.0563 0.138916C41.7478 0.138916 49.906 5.91136 55.3031 17.2955C59.4989 26.1433 61.8093 37.8071 61.8093 50.1385ZM31.0514 80.3686C34.6733 77.3 40.0443 66.8715 40.0443 50.1385C40.0443 33.4055 34.6733 22.9768 31.0514 19.9083C27.4295 22.9768 22.0585 33.4054 22.0585 50.1385C22.0585 66.8716 27.4296 77.3 31.0514 80.3686Z" fill="url(#paint2_radial_92_5478)"/>
<defs>
<radialGradient id="paint0_radial_92_5478" cx="0" cy="0" r="1" gradientUnits="userSpaceOnUse" gradientTransform="translate(31.0567 50.1384) rotate(-89.9276) scale(66.7698 33.1087)">
<stop offset="0.635979" stop-color="#0C0A50" stop-opacity="0"/>
<stop offset="1" stop-color="#0C0A50"/>
</radialGradient>
<radialGradient id="paint1_radial_92_5478" cx="0" cy="0" r="1" gradientUnits="userSpaceOnUse" gradientTransform="translate(29.8329 49.6427) rotate(-89.7439) scale(67.3082 32.7703)">
<stop offset="0.3176" stop-color="#0C0A50"/>
<stop offset="0.9312" stop-color="#0C0A50" stop-opacity="0"/>
</radialGradient>
<radialGradient id="paint2_radial_92_5478" cx="0" cy="0" r="1" gradientUnits="userSpaceOnUse" gradientTransform="translate(24.4804 49.9545) rotate(-90) scale(67.5867 33.6616)">
<stop offset="0.575" stop-color="white" stop-opacity="0.0837"/>
<stop offset="0.6557" stop-color="white"/>
<stop offset="0.75" stop-color="white" stop-opacity="0"/>
</radialGradient>
</defs>
</svg>
