<svg width="56" height="24" viewBox="0 0 56 24" fill="none" xmlns="http://www.w3.org/2000/svg">
<rect x="2" y="1.98901" width="53" height="20" rx="10" fill="url(#paint0_linear_67_1812)"/>
<rect x="2" y="1.98901" width="53" height="20" rx="10" stroke="#3EAD85" stroke-width="3" stroke-linejoin="round"/>
<path d="M10.3535 15.989V7.39917H13.1367C14.1914 7.39917 14.8789 7.44214 15.1992 7.52808C15.6914 7.65698 16.1035 7.93823 16.4355 8.37183C16.7676 8.80151 16.9336 9.35815 16.9336 10.0417C16.9336 10.5691 16.8379 11.0125 16.6465 11.3718C16.4551 11.7312 16.2109 12.0144 15.9141 12.2214C15.6211 12.4246 15.3223 12.5593 15.0176 12.6257C14.6035 12.7078 14.0039 12.7488 13.2188 12.7488H12.0879V15.989H10.3535ZM12.0879 8.85229V11.2898H13.0371C13.7207 11.2898 14.1777 11.2449 14.4082 11.155C14.6387 11.0652 14.8184 10.9246 14.9473 10.7332C15.0801 10.5417 15.1465 10.3191 15.1465 10.0652C15.1465 9.75269 15.0547 9.49487 14.8711 9.29175C14.6875 9.08862 14.4551 8.96167 14.1738 8.91089C13.9668 8.87183 13.5508 8.85229 12.9258 8.85229H12.0879ZM17.918 13.1941L19.6055 13.03C19.707 13.5964 19.9121 14.0125 20.2207 14.2781C20.5332 14.5437 20.9531 14.6765 21.4805 14.6765C22.0391 14.6765 22.459 14.5593 22.7402 14.325C23.0254 14.0867 23.168 13.8093 23.168 13.4929C23.168 13.2898 23.1074 13.1179 22.9863 12.9773C22.8691 12.8328 22.6621 12.7078 22.3652 12.6023C22.1621 12.532 21.6992 12.407 20.9766 12.2273C20.0469 11.9968 19.3945 11.7136 19.0195 11.3777C18.4922 10.905 18.2285 10.3289 18.2285 9.64917C18.2285 9.21167 18.3516 8.80347 18.5977 8.42456C18.8477 8.04175 19.2051 7.75073 19.6699 7.55151C20.1387 7.35229 20.7031 7.25269 21.3633 7.25269C22.4414 7.25269 23.252 7.48901 23.7949 7.96167C24.3418 8.43433 24.6289 9.06519 24.6562 9.85425L22.9219 9.93042C22.8477 9.48901 22.6875 9.17261 22.4414 8.9812C22.1992 8.78589 21.834 8.68823 21.3457 8.68823C20.8418 8.68823 20.4473 8.79175 20.1621 8.99878C19.9785 9.13159 19.8867 9.30933 19.8867 9.53198C19.8867 9.73511 19.9727 9.90894 20.1445 10.0535C20.3633 10.2371 20.8945 10.4285 21.7383 10.6277C22.582 10.8269 23.2051 11.0339 23.6074 11.2488C24.0137 11.4597 24.3301 11.7507 24.5566 12.1218C24.7871 12.489 24.9023 12.9441 24.9023 13.4871C24.9023 13.9792 24.7656 14.4402 24.4922 14.8699C24.2188 15.2996 23.832 15.6199 23.332 15.8308C22.832 16.0378 22.209 16.1414 21.4629 16.1414C20.377 16.1414 19.543 15.8914 18.9609 15.3914C18.3789 14.8875 18.0312 14.155 17.918 13.1941ZM26.3555 7.39917H29.5254C30.2402 7.39917 30.7852 7.45386 31.1602 7.56323C31.6641 7.71167 32.0957 7.97534 32.4551 8.35425C32.8145 8.73315 33.0879 9.198 33.2754 9.74878C33.4629 10.2957 33.5566 10.9714 33.5566 11.7761C33.5566 12.4832 33.4688 13.0925 33.293 13.6042C33.0781 14.2292 32.7715 14.7351 32.373 15.1218C32.0723 15.4148 31.666 15.6433 31.1543 15.8074C30.7715 15.9285 30.2598 15.989 29.6191 15.989H26.3555V7.39917ZM28.0898 8.85229V14.5417H29.3848C29.8691 14.5417 30.2188 14.5144 30.4336 14.4597C30.7148 14.3894 30.9473 14.2703 31.1309 14.1023C31.3184 13.9343 31.4707 13.6589 31.5879 13.2761C31.7051 12.8894 31.7637 12.364 31.7637 11.7C31.7637 11.0359 31.7051 10.5261 31.5879 10.1707C31.4707 9.81519 31.3066 9.53784 31.0957 9.33862C30.8848 9.1394 30.6172 9.00464 30.293 8.93433C30.0508 8.87964 29.5762 8.85229 28.8691 8.85229H28.0898ZM34.7051 14.0027L36.2988 13.8269C36.3379 14.1511 36.4395 14.3914 36.6035 14.5476C36.7676 14.7039 36.9844 14.782 37.2539 14.782C37.5938 14.782 37.8828 14.6257 38.1211 14.3132C38.3594 14.0007 38.5117 13.3523 38.5781 12.3679C38.1641 12.8484 37.6465 13.0886 37.0254 13.0886C36.3496 13.0886 35.7656 12.8289 35.2734 12.3093C34.7852 11.7859 34.541 11.1062 34.541 10.2703C34.541 9.39917 34.7988 8.698 35.3145 8.16675C35.834 7.63159 36.4941 7.36401 37.2949 7.36401C38.166 7.36401 38.8809 7.7019 39.4395 8.37769C39.998 9.04956 40.2773 10.157 40.2773 11.7C40.2773 13.2703 39.9863 14.4031 39.4043 15.0984C38.8223 15.7937 38.0645 16.1414 37.1309 16.1414C36.459 16.1414 35.916 15.9636 35.502 15.6082C35.0879 15.2488 34.8223 14.7136 34.7051 14.0027ZM38.4316 10.405C38.4316 9.87378 38.3086 9.46167 38.0625 9.1687C37.8203 8.87573 37.5391 8.72925 37.2188 8.72925C36.9141 8.72925 36.6602 8.85034 36.457 9.09253C36.2578 9.33081 36.1582 9.72339 36.1582 10.2703C36.1582 10.825 36.2676 11.2332 36.4863 11.4949C36.7051 11.7527 36.9785 11.8816 37.3066 11.8816C37.623 11.8816 37.8887 11.7566 38.1035 11.5066C38.3223 11.2566 38.4316 10.8894 38.4316 10.405ZM41.373 13.78L43.0137 13.6101C43.0605 13.9812 43.1992 14.2761 43.4297 14.4949C43.6602 14.7097 43.9258 14.8171 44.2266 14.8171C44.5703 14.8171 44.8613 14.6785 45.0996 14.4011C45.3379 14.1199 45.457 13.698 45.457 13.1355C45.457 12.6082 45.3379 12.2136 45.0996 11.9519C44.8652 11.6863 44.5586 11.5535 44.1797 11.5535C43.707 11.5535 43.2832 11.7625 42.9082 12.1804L41.5723 11.9871L42.416 7.51636H46.7695V9.05737H43.6641L43.4062 10.5164C43.7734 10.3328 44.1484 10.241 44.5312 10.241C45.2617 10.241 45.8809 10.5066 46.3887 11.0378C46.8965 11.5691 47.1504 12.2585 47.1504 13.1062C47.1504 13.8132 46.9453 14.4441 46.5352 14.9988C45.9766 15.7566 45.2012 16.1355 44.209 16.1355C43.416 16.1355 42.7695 15.9226 42.2695 15.4968C41.7695 15.071 41.4707 14.4988 41.373 13.78Z" fill="white"/>
<defs>
<linearGradient id="paint0_linear_67_1812" x1="28.5" y1="1.98901" x2="28.5" y2="21.989" gradientUnits="userSpaceOnUse">
<stop stop-color="#3EAD85"/>
<stop offset="1" stop-color="#900014"/>
</linearGradient>
</defs>
</svg>
