<svg width="58" height="24" viewBox="0 0 58 24" fill="none" xmlns="http://www.w3.org/2000/svg">
<rect x="2" y="1.98901" width="55" height="20" rx="10" fill="url(#paint0_linear_42_2583)"/>
<rect x="2" y="1.98901" width="55" height="20" rx="10" stroke="#C98500" stroke-width="3" stroke-linejoin="round"/>
<path d="M10.3516 15.989V7.39917H16.7207V8.85229H12.0859V10.7566H16.3984V12.2039H12.0859V14.5417H16.8848V15.989H10.3516ZM18.3027 15.989V7.39917H20.0371V15.989H18.3027ZM21.707 15.989V7.39917H27.5957V8.85229H23.4414V10.8855H27.0273V12.3386H23.4414V15.989H21.707ZM34.2285 14.4597V15.989H28.457C28.5195 15.4109 28.707 14.864 29.0195 14.3484C29.332 13.8289 29.9492 13.1414 30.8711 12.2859C31.6133 11.5945 32.0684 11.1257 32.2363 10.8796C32.4629 10.5398 32.5762 10.2039 32.5762 9.87183C32.5762 9.50464 32.4766 9.22339 32.2773 9.02808C32.082 8.82886 31.8105 8.72925 31.4629 8.72925C31.1191 8.72925 30.8457 8.83276 30.6426 9.03979C30.4395 9.24683 30.3223 9.59058 30.291 10.071L28.6504 9.90698C28.748 9.00073 29.0547 8.35034 29.5703 7.95581C30.0859 7.56128 30.7305 7.36401 31.5039 7.36401C32.3516 7.36401 33.0176 7.59253 33.502 8.04956C33.9863 8.50659 34.2285 9.07495 34.2285 9.75464C34.2285 10.1414 34.1582 10.5105 34.0176 10.8621C33.8809 11.2097 33.6621 11.575 33.3613 11.9578C33.1621 12.2117 32.8027 12.5769 32.2832 13.0535C31.7637 13.53 31.4336 13.8464 31.293 14.0027C31.1562 14.1589 31.0449 14.3113 30.959 14.4597H34.2285ZM35.2715 13.1941L36.959 13.03C37.0605 13.5964 37.2656 14.0125 37.5742 14.2781C37.8867 14.5437 38.3066 14.6765 38.834 14.6765C39.3926 14.6765 39.8125 14.5593 40.0938 14.325C40.3789 14.0867 40.5215 13.8093 40.5215 13.4929C40.5215 13.2898 40.4609 13.1179 40.3398 12.9773C40.2227 12.8328 40.0156 12.7078 39.7188 12.6023C39.5156 12.532 39.0527 12.407 38.3301 12.2273C37.4004 11.9968 36.748 11.7136 36.373 11.3777C35.8457 10.905 35.582 10.3289 35.582 9.64917C35.582 9.21167 35.7051 8.80347 35.9512 8.42456C36.2012 8.04175 36.5586 7.75073 37.0234 7.55151C37.4922 7.35229 38.0566 7.25269 38.7168 7.25269C39.7949 7.25269 40.6055 7.48901 41.1484 7.96167C41.6953 8.43433 41.9824 9.06519 42.0098 9.85425L40.2754 9.93042C40.2012 9.48901 40.041 9.17261 39.7949 8.9812C39.5527 8.78589 39.1875 8.68823 38.6992 8.68823C38.1953 8.68823 37.8008 8.79175 37.5156 8.99878C37.332 9.13159 37.2402 9.30933 37.2402 9.53198C37.2402 9.73511 37.3262 9.90894 37.498 10.0535C37.7168 10.2371 38.248 10.4285 39.0918 10.6277C39.9355 10.8269 40.5586 11.0339 40.9609 11.2488C41.3672 11.4597 41.6836 11.7507 41.9102 12.1218C42.1406 12.489 42.2559 12.9441 42.2559 13.4871C42.2559 13.9792 42.1191 14.4402 41.8457 14.8699C41.5723 15.2996 41.1855 15.6199 40.6855 15.8308C40.1855 16.0378 39.5625 16.1414 38.8164 16.1414C37.7305 16.1414 36.8965 15.8914 36.3145 15.3914C35.7324 14.8875 35.3848 14.155 35.2715 13.1941ZM47.5645 15.989H45.918V9.78394C45.3164 10.3464 44.6074 10.7625 43.791 11.032V9.53784C44.2207 9.39722 44.6875 9.13159 45.1914 8.74097C45.6953 8.34644 46.041 7.88745 46.2285 7.36401H47.5645V15.989Z" fill="white"/>
<defs>
<linearGradient id="paint0_linear_42_2583" x1="29.5" y1="1.98901" x2="29.5" y2="21.989" gradientUnits="userSpaceOnUse">
<stop stop-color="#C98500"/>
<stop offset="1" stop-color="#8B94D0"/>
</linearGradient>
</defs>
</svg>
