<svg width="97" height="36" viewBox="0 0 97 36" fill="none" xmlns="http://www.w3.org/2000/svg">
<rect x="2" y="1.98901" width="94" height="32" rx="10" fill="url(#paint0_linear_67_1855)"/>
<rect x="2" y="1.98901" width="94" height="32" rx="10" stroke="#0052AF" stroke-width="3" stroke-linejoin="round"/>
<path d="M10.0703 14.989V6.39917H13.7207C14.6387 6.39917 15.3047 6.47729 15.7188 6.63354C16.1367 6.78589 16.4707 7.05933 16.7207 7.45386C16.9707 7.84839 17.0957 8.29956 17.0957 8.80737C17.0957 9.4519 16.9062 9.98511 16.5273 10.407C16.1484 10.825 15.582 11.0886 14.8281 11.198C15.2031 11.4167 15.5117 11.657 15.7539 11.9187C16 12.1804 16.3301 12.6453 16.7441 13.3132L17.793 14.989H15.7188L14.4648 13.1199C14.0195 12.4519 13.7148 12.032 13.5508 11.8601C13.3867 11.6843 13.2129 11.5652 13.0293 11.5027C12.8457 11.4363 12.5547 11.4031 12.1562 11.4031H11.8047V14.989H10.0703ZM11.8047 10.032H13.0879C13.9199 10.032 14.4395 9.99683 14.6465 9.92651C14.8535 9.8562 15.0156 9.73511 15.1328 9.56323C15.25 9.39136 15.3086 9.17651 15.3086 8.9187C15.3086 8.62964 15.2305 8.39722 15.0742 8.22144C14.9219 8.04175 14.7051 7.92847 14.4238 7.88159C14.2832 7.86206 13.8613 7.85229 13.1582 7.85229H11.8047V10.032ZM18.7539 14.989V6.39917H20.4414L23.957 12.1355V6.39917H25.5684V14.989H23.8281L20.3652 9.38745V14.989H18.7539ZM35.1543 14.989H33.2676L32.5176 13.0378H29.084L28.375 14.989H26.5352L29.8809 6.39917H31.7148L35.1543 14.989ZM31.9609 11.5906L30.7773 8.40308L29.6172 11.5906H31.9609ZM38.9805 6.39917H42.4141C43.0938 6.39917 43.5996 6.42847 43.9316 6.48706C44.2676 6.54175 44.5664 6.65894 44.8281 6.83862C45.0938 7.01831 45.3145 7.25854 45.4902 7.55933C45.666 7.8562 45.7539 8.19019 45.7539 8.56128C45.7539 8.96362 45.6445 9.33276 45.4258 9.6687C45.2109 10.0046 44.918 10.2566 44.5469 10.4246C45.0703 10.5769 45.4727 10.8367 45.7539 11.2039C46.0352 11.571 46.1758 12.0027 46.1758 12.4988C46.1758 12.8894 46.084 13.2703 45.9004 13.6414C45.7207 14.0085 45.4727 14.3035 45.1562 14.5261C44.8438 14.7449 44.457 14.8796 43.9961 14.9304C43.707 14.9617 43.0098 14.9812 41.9043 14.989H38.9805V6.39917ZM40.7148 7.82886V9.81519H41.8516C42.5273 9.81519 42.9473 9.80542 43.1113 9.78589C43.4082 9.75073 43.6406 9.64917 43.8086 9.4812C43.9805 9.30933 44.0664 9.08472 44.0664 8.80737C44.0664 8.54175 43.9922 8.3269 43.8438 8.16284C43.6992 7.99487 43.4824 7.89331 43.1934 7.85815C43.0215 7.83862 42.5273 7.82886 41.7109 7.82886H40.7148ZM40.7148 11.2449V13.5417H42.3203C42.9453 13.5417 43.3418 13.5242 43.5098 13.489C43.7676 13.4421 43.9766 13.3289 44.1367 13.1492C44.3008 12.9656 44.3828 12.7214 44.3828 12.4167C44.3828 12.1589 44.3203 11.9402 44.1953 11.7605C44.0703 11.5808 43.8887 11.45 43.6504 11.3679C43.416 11.2859 42.9043 11.2449 42.1152 11.2449H40.7148ZM47.5938 14.989V6.39917H49.3281V14.989H47.5938ZM51.0039 14.989V6.39917H52.6914L56.207 12.1355V6.39917H57.8184V14.989H56.0781L52.6152 9.38745V14.989H51.0039ZM59.6523 6.39917H62.8223C63.5371 6.39917 64.082 6.45386 64.457 6.56323C64.9609 6.71167 65.3926 6.97534 65.752 7.35425C66.1113 7.73315 66.3848 8.198 66.5723 8.74878C66.7598 9.29565 66.8535 9.97144 66.8535 10.7761C66.8535 11.4832 66.7656 12.0925 66.5898 12.6042C66.375 13.2292 66.0684 13.7351 65.6699 14.1218C65.3691 14.4148 64.9629 14.6433 64.4512 14.8074C64.0684 14.9285 63.5566 14.989 62.916 14.989H59.6523V6.39917ZM61.3867 7.85229V13.5417H62.6816C63.166 13.5417 63.5156 13.5144 63.7305 13.4597C64.0117 13.3894 64.2441 13.2703 64.4277 13.1023C64.6152 12.9343 64.7676 12.6589 64.8848 12.2761C65.002 11.8894 65.0605 11.364 65.0605 10.7C65.0605 10.0359 65.002 9.52612 64.8848 9.17065C64.7676 8.81519 64.6035 8.53784 64.3926 8.33862C64.1816 8.1394 63.9141 8.00464 63.5898 7.93433C63.3477 7.87964 62.873 7.85229 62.166 7.85229H61.3867ZM68.2773 14.989V6.39917H70.0117V14.989H68.2773ZM71.6875 14.989V6.39917H73.375L76.8906 12.1355V6.39917H78.502V14.989H76.7617L73.2988 9.38745V14.989H71.6875ZM84.3379 11.8308V10.3835H88.0762V13.8054C87.7129 14.157 87.1855 14.4675 86.4941 14.7371C85.8066 15.0027 85.1094 15.1355 84.4023 15.1355C83.5039 15.1355 82.7207 14.948 82.0527 14.573C81.3848 14.1941 80.8828 13.655 80.5469 12.9558C80.2109 12.2527 80.043 11.489 80.043 10.6648C80.043 9.77026 80.2305 8.97534 80.6055 8.28003C80.9805 7.58472 81.5293 7.05151 82.252 6.68042C82.8027 6.39526 83.4883 6.25269 84.3086 6.25269C85.375 6.25269 86.207 6.47729 86.8047 6.92651C87.4062 7.37183 87.793 7.98901 87.9648 8.77808L86.2422 9.10034C86.1211 8.67847 85.8926 8.34644 85.5566 8.10425C85.2246 7.85815 84.8086 7.73511 84.3086 7.73511C83.5508 7.73511 82.9473 7.97534 82.498 8.45581C82.0527 8.93628 81.8301 9.64917 81.8301 10.5945C81.8301 11.614 82.0566 12.3796 82.5098 12.8914C82.9629 13.3992 83.5566 13.6531 84.291 13.6531C84.6543 13.6531 85.0176 13.5828 85.3809 13.4421C85.748 13.2976 86.0625 13.1238 86.3242 12.9207V11.8308H84.3379ZM23.1895 28.989V20.3992H25.9727C27.0273 20.3992 27.7148 20.4421 28.0352 20.5281C28.5273 20.657 28.9395 20.9382 29.2715 21.3718C29.6035 21.8015 29.7695 22.3582 29.7695 23.0417C29.7695 23.5691 29.6738 24.0125 29.4824 24.3718C29.291 24.7312 29.0469 25.0144 28.75 25.2214C28.457 25.4246 28.1582 25.5593 27.8535 25.6257C27.4395 25.7078 26.8398 25.7488 26.0547 25.7488H24.9238V28.989H23.1895ZM24.9238 21.8523V24.2898H25.873C26.5566 24.2898 27.0137 24.2449 27.2441 24.155C27.4746 24.0652 27.6543 23.9246 27.7832 23.7332C27.916 23.5417 27.9824 23.3191 27.9824 23.0652C27.9824 22.7527 27.8906 22.4949 27.707 22.2917C27.5234 22.0886 27.291 21.9617 27.0098 21.9109C26.8027 21.8718 26.3867 21.8523 25.7617 21.8523H24.9238ZM31.1992 28.989V20.3992H34.8496C35.7676 20.3992 36.4336 20.4773 36.8477 20.6335C37.2656 20.7859 37.5996 21.0593 37.8496 21.4539C38.0996 21.8484 38.2246 22.2996 38.2246 22.8074C38.2246 23.4519 38.0352 23.9851 37.6562 24.407C37.2773 24.825 36.7109 25.0886 35.957 25.198C36.332 25.4167 36.6406 25.657 36.8828 25.9187C37.1289 26.1804 37.459 26.6453 37.873 27.3132L38.9219 28.989H36.8477L35.5938 27.1199C35.1484 26.4519 34.8438 26.032 34.6797 25.8601C34.5156 25.6843 34.3418 25.5652 34.1582 25.5027C33.9746 25.4363 33.6836 25.4031 33.2852 25.4031H32.9336V28.989H31.1992ZM32.9336 24.032H34.2168C35.0488 24.032 35.5684 23.9968 35.7754 23.9265C35.9824 23.8562 36.1445 23.7351 36.2617 23.5632C36.3789 23.3914 36.4375 23.1765 36.4375 22.9187C36.4375 22.6296 36.3594 22.3972 36.2031 22.2214C36.0508 22.0417 35.834 21.9285 35.5527 21.8816C35.4121 21.8621 34.9902 21.8523 34.2871 21.8523H32.9336V24.032ZM39.5137 24.7468C39.5137 23.8718 39.6445 23.1375 39.9062 22.5437C40.1016 22.1062 40.3672 21.7136 40.7031 21.366C41.043 21.0183 41.4141 20.7605 41.8164 20.5925C42.3516 20.366 42.9688 20.2527 43.668 20.2527C44.9336 20.2527 45.9453 20.6453 46.7031 21.4304C47.4648 22.2156 47.8457 23.3074 47.8457 24.7058C47.8457 26.0925 47.4688 27.1785 46.7148 27.9636C45.9609 28.7449 44.9531 29.1355 43.6914 29.1355C42.4141 29.1355 41.3984 28.7468 40.6445 27.9695C39.8906 27.1882 39.5137 26.114 39.5137 24.7468ZM41.3008 24.6882C41.3008 25.6609 41.5254 26.3992 41.9746 26.9031C42.4238 27.4031 42.9941 27.6531 43.6855 27.6531C44.377 27.6531 44.9434 27.405 45.3848 26.9089C45.8301 26.4089 46.0527 25.6609 46.0527 24.6648C46.0527 23.6804 45.8359 22.946 45.4023 22.4617C44.9727 21.9773 44.4004 21.7351 43.6855 21.7351C42.9707 21.7351 42.3945 21.9812 41.957 22.4734C41.5195 22.9617 41.3008 23.7 41.3008 24.6882ZM51.1387 28.989V21.8523H48.5898V20.3992H55.416V21.8523H52.873V28.989H51.1387ZM56.541 28.989V20.3992H62.9102V21.8523H58.2754V23.7566H62.5879V25.2039H58.2754V27.5417H63.0742V28.989H56.541ZM64.4922 28.989V20.3992H66.2266V28.989H64.4922ZM67.9023 28.989V20.3992H69.5898L73.1055 26.1355V20.3992H74.7168V28.989H72.9766L69.5137 23.3875V28.989H67.9023Z" fill="white"/>
<defs>
<linearGradient id="paint0_linear_67_1855" x1="49" y1="1.98901" x2="49" y2="33.989" gradientUnits="userSpaceOnUse">
<stop stop-color="#2A8541"/>
<stop offset="1" stop-color="#06A2B2"/>
</linearGradient>
</defs>
</svg>
