<svg width="67" height="24" viewBox="0 0 67 24" fill="none" xmlns="http://www.w3.org/2000/svg">
<rect x="1" y="1.98901" width="65" height="20" rx="10" fill="url(#paint0_linear_64_1967)"/>
<rect x="1" y="1.98901" width="65" height="20" rx="10" stroke="#F489A8" stroke-width="3" stroke-linejoin="round"/>
<path d="M9.35938 15.989V7.39917H12.1426C13.1973 7.39917 13.8848 7.44214 14.2051 7.52808C14.6973 7.65698 15.1094 7.93823 15.4414 8.37183C15.7734 8.80151 15.9395 9.35815 15.9395 10.0417C15.9395 10.5691 15.8438 11.0125 15.6523 11.3718C15.4609 11.7312 15.2168 12.0144 14.9199 12.2214C14.627 12.4246 14.3281 12.5593 14.0234 12.6257C13.6094 12.7078 13.0098 12.7488 12.2246 12.7488H11.0938V15.989H9.35938ZM11.0938 8.85229V11.2898H12.043C12.7266 11.2898 13.1836 11.2449 13.4141 11.155C13.6445 11.0652 13.8242 10.9246 13.9531 10.7332C14.0859 10.5417 14.1523 10.3191 14.1523 10.0652C14.1523 9.75269 14.0605 9.49487 13.877 9.29175C13.6934 9.08862 13.4609 8.96167 13.1797 8.91089C12.9727 8.87183 12.5566 8.85229 11.9316 8.85229H11.0938ZM17.3633 15.989V7.39917H23.7324V8.85229H19.0977V10.7566H23.4102V12.2039H19.0977V14.5417H23.8965V15.989H17.3633ZM30.8633 12.8308L32.5449 13.364C32.2871 14.3015 31.8574 14.9988 31.2559 15.4558C30.6582 15.9089 29.8984 16.1355 28.9766 16.1355C27.8359 16.1355 26.8984 15.7468 26.1641 14.9695C25.4297 14.1882 25.0625 13.1218 25.0625 11.7703C25.0625 10.3406 25.4316 9.2312 26.1699 8.44214C26.9082 7.64917 27.8789 7.25269 29.082 7.25269C30.1328 7.25269 30.9863 7.56323 31.6426 8.18433C32.0332 8.55151 32.3262 9.07886 32.5215 9.76636L30.8047 10.1765C30.7031 9.7312 30.4902 9.37964 30.166 9.12183C29.8457 8.86401 29.4551 8.73511 28.9941 8.73511C28.3574 8.73511 27.8398 8.96362 27.4414 9.42065C27.0469 9.87769 26.8496 10.6179 26.8496 11.6414C26.8496 12.7273 27.0449 13.5007 27.4355 13.9617C27.8262 14.4226 28.334 14.6531 28.959 14.6531C29.4199 14.6531 29.8164 14.5066 30.1484 14.2136C30.4805 13.9207 30.7188 13.4597 30.8633 12.8308ZM41.7852 15.989H39.8984L39.1484 14.0378H35.7148L35.0059 15.989H33.166L36.5117 7.39917H38.3457L41.7852 15.989ZM38.5918 12.5906L37.4082 9.40308L36.248 12.5906H38.5918ZM42.6875 15.989V7.39917H45.2832L46.8418 13.2585L48.3828 7.39917H50.9844V15.989H49.373V9.22729L47.668 15.989H45.998L44.2988 9.22729V15.989H42.6875ZM56.5566 15.989H54.9102V9.78394C54.3086 10.3464 53.5996 10.7625 52.7832 11.032V9.53784C53.2129 9.39722 53.6797 9.13159 54.1836 8.74097C54.6875 8.34644 55.0332 7.88745 55.2207 7.36401H56.5566V15.989Z" fill="white"/>
<defs>
<linearGradient id="paint0_linear_64_1967" x1="33.5" y1="1.98901" x2="33.5" y2="21.989" gradientUnits="userSpaceOnUse">
<stop stop-color="#A41741"/>
<stop offset="1" stop-color="#F489A8"/>
</linearGradient>
</defs>
</svg>
