<svg width="48" height="44" viewBox="0 0 48 44" fill="none" xmlns="http://www.w3.org/2000/svg">
<path d="M32.1536 17.489C36.6752 17.489 40.3406 13.8235 40.3406 9.30199C40.3406 4.78044 36.6752 1.11499 32.1536 1.11499C27.6321 1.11499 23.9666 4.78044 23.9666 9.30199C23.9666 13.8235 27.6321 17.489 32.1536 17.489Z" fill="url(#paint0_radial_89_4262)"/>
<path d="M16.8348 17.363C21.3564 17.363 25.0218 13.6976 25.0218 9.17601C25.0218 4.65446 21.3564 0.989014 16.8348 0.989014C12.3133 0.989014 8.64783 4.65446 8.64783 9.17601C8.64783 13.6976 12.3133 17.363 16.8348 17.363Z" fill="url(#paint1_radial_89_4262)"/>
<path d="M9.16204 30.3445C13.6836 30.3445 17.349 26.679 17.349 22.1575C17.349 17.6359 13.6836 13.9705 9.16204 13.9705C4.64048 13.9705 0.975037 17.6359 0.975037 22.1575C0.975037 26.679 4.64048 30.3445 9.16204 30.3445Z" fill="url(#paint2_radial_89_4262)"/>
<path d="M16.5801 43.6628C21.1016 43.6628 24.7671 39.9974 24.7671 35.4758C24.7671 30.9543 21.1016 27.2888 16.5801 27.2888C12.0585 27.2888 8.39307 30.9543 8.39307 35.4758C8.39307 39.9974 12.0585 43.6628 16.5801 43.6628Z" fill="url(#paint3_radial_89_4262)"/>
<path d="M31.9426 43.8149C36.4642 43.8149 40.1296 40.1495 40.1296 35.6279C40.1296 31.1064 36.4642 27.4409 31.9426 27.4409C27.4211 27.4409 23.7556 31.1064 23.7556 35.6279C23.7556 40.1495 27.4211 43.8149 31.9426 43.8149Z" fill="url(#paint4_radial_89_4262)"/>
<path d="M39.6155 30.8335C44.1371 30.8335 47.8025 27.168 47.8025 22.6465C47.8025 18.1249 44.1371 14.4595 39.6155 14.4595C35.094 14.4595 31.4285 18.1249 31.4285 22.6465C31.4285 27.168 35.094 30.8335 39.6155 30.8335Z" fill="url(#paint5_radial_89_4262)"/>
<path d="M32.1536 17.489C36.6752 17.489 40.3406 13.8235 40.3406 9.30199C40.3406 4.78044 36.6752 1.11499 32.1536 1.11499C27.6321 1.11499 23.9666 4.78044 23.9666 9.30199C23.9666 13.8235 27.6321 17.489 32.1536 17.489Z" fill="url(#paint6_radial_89_4262)"/>
<defs>
<radialGradient id="paint0_radial_89_4262" cx="0" cy="0" r="1" gradientUnits="userSpaceOnUse" gradientTransform="translate(30.5357 6.85431) rotate(-5.57206) scale(8.18721)">
<stop stop-color="#F5999B"/>
<stop offset="1" stop-color="#721012"/>
</radialGradient>
<radialGradient id="paint1_radial_89_4262" cx="0" cy="0" r="1" gradientUnits="userSpaceOnUse" gradientTransform="translate(15.2169 6.72833) rotate(-5.57206) scale(8.18721)">
<stop stop-color="#F5999B"/>
<stop offset="1" stop-color="#721012"/>
</radialGradient>
<radialGradient id="paint2_radial_89_4262" cx="0" cy="0" r="1" gradientUnits="userSpaceOnUse" gradientTransform="translate(7.54413 19.7098) rotate(-5.57206) scale(8.18721)">
<stop stop-color="#F5999B"/>
<stop offset="1" stop-color="#721012"/>
</radialGradient>
<radialGradient id="paint3_radial_89_4262" cx="0" cy="0" r="1" gradientUnits="userSpaceOnUse" gradientTransform="translate(14.9622 33.0281) rotate(-5.57206) scale(8.18721)">
<stop stop-color="#F5999B"/>
<stop offset="1" stop-color="#721012"/>
</radialGradient>
<radialGradient id="paint4_radial_89_4262" cx="0" cy="0" r="1" gradientUnits="userSpaceOnUse" gradientTransform="translate(30.3247 33.1802) rotate(-5.57206) scale(8.18721)">
<stop stop-color="#F5999B"/>
<stop offset="1" stop-color="#721012"/>
</radialGradient>
<radialGradient id="paint5_radial_89_4262" cx="0" cy="0" r="1" gradientUnits="userSpaceOnUse" gradientTransform="translate(37.9976 20.1988) rotate(-5.57206) scale(8.18721)">
<stop stop-color="#F5999B"/>
<stop offset="1" stop-color="#721012"/>
</radialGradient>
<radialGradient id="paint6_radial_89_4262" cx="0" cy="0" r="1" gradientUnits="userSpaceOnUse" gradientTransform="translate(30.5357 6.85431) rotate(-5.57206) scale(8.18721)">
<stop stop-color="#F5999B"/>
<stop offset="1" stop-color="#721012"/>
</radialGradient>
</defs>
</svg>
