<svg width="55" height="24" viewBox="0 0 55 24" fill="none" xmlns="http://www.w3.org/2000/svg">
<rect x="2" y="1.98901" width="52" height="20" rx="10" fill="url(#paint0_linear_38_1842)"/>
<rect x="2" y="1.98901" width="52" height="20" rx="10" stroke="#4464BD" stroke-width="3" stroke-linejoin="round"/>
<path d="M15.6777 12.8308L17.3594 13.364C17.1016 14.3015 16.6719 14.9988 16.0703 15.4558C15.4727 15.9089 14.7129 16.1355 13.791 16.1355C12.6504 16.1355 11.7129 15.7468 10.9785 14.9695C10.2441 14.1882 9.87695 13.1218 9.87695 11.7703C9.87695 10.3406 10.2461 9.2312 10.9844 8.44214C11.7227 7.64917 12.6934 7.25269 13.8965 7.25269C14.9473 7.25269 15.8008 7.56323 16.457 8.18433C16.8477 8.55151 17.1406 9.07886 17.3359 9.76636L15.6191 10.1765C15.5176 9.7312 15.3047 9.37964 14.9805 9.12183C14.6602 8.86401 14.2695 8.73511 13.8086 8.73511C13.1719 8.73511 12.6543 8.96362 12.2559 9.42065C11.8613 9.87769 11.6641 10.6179 11.6641 11.6414C11.6641 12.7273 11.8594 13.5007 12.25 13.9617C12.6406 14.4226 13.1484 14.6531 13.7734 14.6531C14.2344 14.6531 14.6309 14.5066 14.9629 14.2136C15.2949 13.9207 15.5332 13.4597 15.6777 12.8308ZM18.8477 7.39917H22.0176C22.7324 7.39917 23.2773 7.45386 23.6523 7.56323C24.1562 7.71167 24.5879 7.97534 24.9473 8.35425C25.3066 8.73315 25.5801 9.198 25.7676 9.74878C25.9551 10.2957 26.0488 10.9714 26.0488 11.7761C26.0488 12.4832 25.9609 13.0925 25.7852 13.6042C25.5703 14.2292 25.2637 14.7351 24.8652 15.1218C24.5645 15.4148 24.1582 15.6433 23.6465 15.8074C23.2637 15.9285 22.752 15.989 22.1113 15.989H18.8477V7.39917ZM20.582 8.85229V14.5417H21.877C22.3613 14.5417 22.7109 14.5144 22.9258 14.4597C23.207 14.3894 23.4395 14.2703 23.623 14.1023C23.8105 13.9343 23.9629 13.6589 24.0801 13.2761C24.1973 12.8894 24.2559 12.364 24.2559 11.7C24.2559 11.0359 24.1973 10.5261 24.0801 10.1707C23.9629 9.81519 23.7988 9.53784 23.5879 9.33862C23.377 9.1394 23.1094 9.00464 22.7852 8.93433C22.543 8.87964 22.0684 8.85229 21.3613 8.85229H20.582ZM27.1035 13.7097L28.6973 13.5164C28.748 13.9226 28.8848 14.2332 29.1074 14.448C29.3301 14.6628 29.5996 14.7703 29.916 14.7703C30.2559 14.7703 30.541 14.6414 30.7715 14.3835C31.0059 14.1257 31.123 13.7781 31.123 13.3406C31.123 12.9265 31.0117 12.5984 30.7891 12.3562C30.5664 12.114 30.2949 11.9929 29.9746 11.9929C29.7637 11.9929 29.5117 12.0339 29.2188 12.116L29.4004 10.7742C29.8457 10.7859 30.1855 10.6902 30.4199 10.4871C30.6543 10.28 30.7715 10.0066 30.7715 9.66675C30.7715 9.37769 30.6855 9.14722 30.5137 8.97534C30.3418 8.80347 30.1133 8.71753 29.8281 8.71753C29.5469 8.71753 29.3066 8.81519 29.1074 9.0105C28.9082 9.20581 28.7871 9.49097 28.7441 9.86597L27.2266 9.60815C27.332 9.08862 27.4902 8.67456 27.7012 8.36597C27.916 8.05347 28.2129 7.80933 28.5918 7.63354C28.9746 7.45386 29.4023 7.36401 29.875 7.36401C30.6836 7.36401 31.332 7.62183 31.8203 8.13745C32.2227 8.55933 32.4238 9.03589 32.4238 9.56714C32.4238 10.321 32.0117 10.9226 31.1875 11.3718C31.6797 11.4773 32.0723 11.7136 32.3652 12.0808C32.6621 12.448 32.8105 12.8914 32.8105 13.4109C32.8105 14.1648 32.5352 14.8074 31.9844 15.3386C31.4336 15.8699 30.748 16.1355 29.9277 16.1355C29.1504 16.1355 28.5059 15.9128 27.9941 15.4675C27.4824 15.0183 27.1855 14.4324 27.1035 13.7097ZM39.4023 14.4597V15.989H33.6309C33.6934 15.4109 33.8809 14.864 34.1934 14.3484C34.5059 13.8289 35.123 13.1414 36.0449 12.2859C36.7871 11.5945 37.2422 11.1257 37.4102 10.8796C37.6367 10.5398 37.75 10.2039 37.75 9.87183C37.75 9.50464 37.6504 9.22339 37.4512 9.02808C37.2559 8.82886 36.9844 8.72925 36.6367 8.72925C36.293 8.72925 36.0195 8.83276 35.8164 9.03979C35.6133 9.24683 35.4961 9.59058 35.4648 10.071L33.8242 9.90698C33.9219 9.00073 34.2285 8.35034 34.7441 7.95581C35.2598 7.56128 35.9043 7.36401 36.6777 7.36401C37.5254 7.36401 38.1914 7.59253 38.6758 8.04956C39.1602 8.50659 39.4023 9.07495 39.4023 9.75464C39.4023 10.1414 39.332 10.5105 39.1914 10.8621C39.0547 11.2097 38.8359 11.575 38.5352 11.9578C38.3359 12.2117 37.9766 12.5769 37.457 13.0535C36.9375 13.53 36.6074 13.8464 36.4668 14.0027C36.3301 14.1589 36.2188 14.3113 36.1328 14.4597H39.4023ZM43.3047 7.36401C44.1367 7.36401 44.7871 7.66089 45.2559 8.25464C45.8145 8.95776 46.0938 10.1238 46.0938 11.7527C46.0938 13.3777 45.8125 14.5457 45.25 15.2566C44.7852 15.8425 44.1367 16.1355 43.3047 16.1355C42.4688 16.1355 41.7949 15.8152 41.2832 15.1746C40.7715 14.53 40.5156 13.3835 40.5156 11.7351C40.5156 10.1179 40.7969 8.95386 41.3594 8.24292C41.8242 7.65698 42.4727 7.36401 43.3047 7.36401ZM43.3047 8.72925C43.1055 8.72925 42.9277 8.7937 42.7715 8.92261C42.6152 9.04761 42.4941 9.27417 42.4082 9.60229C42.2949 10.0281 42.2383 10.7449 42.2383 11.7527C42.2383 12.7605 42.2891 13.4539 42.3906 13.8328C42.4922 14.2078 42.6191 14.4578 42.7715 14.5828C42.9277 14.7078 43.1055 14.7703 43.3047 14.7703C43.5039 14.7703 43.6816 14.7078 43.8379 14.5828C43.9941 14.4539 44.1152 14.2253 44.2012 13.8972C44.3145 13.4753 44.3711 12.7605 44.3711 11.7527C44.3711 10.7449 44.3203 10.0535 44.2188 9.67847C44.1172 9.29956 43.9883 9.04761 43.832 8.92261C43.6797 8.7937 43.5039 8.72925 43.3047 8.72925Z" fill="white"/>
<defs>
<linearGradient id="paint0_linear_38_1842" x1="28" y1="1.98901" x2="28" y2="21.989" gradientUnits="userSpaceOnUse">
<stop stop-color="#33A0E1"/>
<stop offset="1" stop-color="#4464BD"/>
</linearGradient>
</defs>
</svg>
