<svg width="50" height="24" viewBox="0 0 50 24" fill="none" xmlns="http://www.w3.org/2000/svg">
<rect x="2" y="1.98901" width="47" height="20" rx="10" fill="url(#paint0_linear_35_1479)"/>
<rect x="2" y="1.98901" width="47" height="20" rx="10" stroke="#EAA75C" stroke-width="3" stroke-linejoin="round"/>
<path d="M17.7773 15.989H15.8906L15.1406 14.0378H11.707L10.998 15.989H9.1582L12.5039 7.39917H14.3379L17.7773 15.989ZM14.584 12.5906L13.4004 9.40308L12.2402 12.5906H14.584ZM18.7031 15.989V7.39917H21.4863C22.541 7.39917 23.2285 7.44214 23.5488 7.52808C24.041 7.65698 24.4531 7.93823 24.7852 8.37183C25.1172 8.80151 25.2832 9.35815 25.2832 10.0417C25.2832 10.5691 25.1875 11.0125 24.9961 11.3718C24.8047 11.7312 24.5605 12.0144 24.2637 12.2214C23.9707 12.4246 23.6719 12.5593 23.3672 12.6257C22.9531 12.7078 22.3535 12.7488 21.5684 12.7488H20.4375V15.989H18.7031ZM20.4375 8.85229V11.2898H21.3867C22.0703 11.2898 22.5273 11.2449 22.7578 11.155C22.9883 11.0652 23.168 10.9246 23.2969 10.7332C23.4297 10.5417 23.4961 10.3191 23.4961 10.0652C23.4961 9.75269 23.4043 9.49487 23.2207 9.29175C23.0371 9.08862 22.8047 8.96167 22.5234 8.91089C22.3164 8.87183 21.9004 8.85229 21.2754 8.85229H20.4375ZM26.7129 15.989V7.39917H30.3633C31.2812 7.39917 31.9473 7.47729 32.3613 7.63354C32.7793 7.78589 33.1133 8.05933 33.3633 8.45386C33.6133 8.84839 33.7383 9.29956 33.7383 9.80737C33.7383 10.4519 33.5488 10.9851 33.1699 11.407C32.791 11.825 32.2246 12.0886 31.4707 12.198C31.8457 12.4167 32.1543 12.657 32.3965 12.9187C32.6426 13.1804 32.9727 13.6453 33.3867 14.3132L34.4355 15.989H32.3613L31.1074 14.1199C30.6621 13.4519 30.3574 13.032 30.1934 12.8601C30.0293 12.6843 29.8555 12.5652 29.6719 12.5027C29.4883 12.4363 29.1973 12.4031 28.7988 12.4031H28.4473V15.989H26.7129ZM28.4473 11.032H29.7305C30.5625 11.032 31.082 10.9968 31.2891 10.9265C31.4961 10.8562 31.6582 10.7351 31.7754 10.5632C31.8926 10.3914 31.9512 10.1765 31.9512 9.9187C31.9512 9.62964 31.873 9.39722 31.7168 9.22144C31.5645 9.04175 31.3477 8.92847 31.0664 8.88159C30.9258 8.86206 30.5039 8.85229 29.8008 8.85229H28.4473V11.032ZM37.3125 15.989V8.85229H34.7637V7.39917H41.5898V8.85229H39.0469V15.989H37.3125Z" fill="white"/>
<defs>
<linearGradient id="paint0_linear_35_1479" x1="25.5" y1="1.98901" x2="25.5" y2="21.989" gradientUnits="userSpaceOnUse">
<stop stop-color="#EAA75C"/>
<stop offset="1" stop-color="#984675"/>
</linearGradient>
</defs>
</svg>
