<svg width="48" height="24" viewBox="0 0 48 24" fill="none" xmlns="http://www.w3.org/2000/svg">
<rect x="2" y="1.98901" width="45" height="20" rx="10" fill="url(#paint0_linear_50_1823)"/>
<rect x="2" y="1.98901" width="45" height="20" rx="10" stroke="#846DDE" stroke-width="3" stroke-linejoin="round"/>
<path d="M13.1211 7.39917H14.8496V12.8367C14.8496 13.5476 14.7871 14.0945 14.6621 14.4773C14.4941 14.9773 14.1895 15.3796 13.748 15.6843C13.3066 15.9851 12.7246 16.1355 12.002 16.1355C11.1543 16.1355 10.502 15.8992 10.0449 15.4265C9.58789 14.95 9.35742 14.2527 9.35352 13.3347L10.9883 13.1472C11.0078 13.6394 11.0801 13.9871 11.2051 14.1902C11.3926 14.4988 11.6777 14.6531 12.0605 14.6531C12.4473 14.6531 12.7207 14.5437 12.8809 14.325C13.041 14.1023 13.1211 13.6433 13.1211 12.948V7.39917ZM24.4473 15.989H22.5605L21.8105 14.0378H18.377L17.668 15.989H15.8281L19.1738 7.39917H21.0078L24.4473 15.989ZM21.2539 12.5906L20.0703 9.40308L18.9102 12.5906H21.2539ZM25.3965 15.989V7.39917H27.1309V11.2136L30.6348 7.39917H32.9668L29.7324 10.7449L33.1426 15.989H30.8984L28.5371 11.9578L27.1309 13.3933V15.989H25.3965ZM33.623 13.7097L35.2168 13.5164C35.2676 13.9226 35.4043 14.2332 35.627 14.448C35.8496 14.6628 36.1191 14.7703 36.4355 14.7703C36.7754 14.7703 37.0605 14.6414 37.291 14.3835C37.5254 14.1257 37.6426 13.7781 37.6426 13.3406C37.6426 12.9265 37.5312 12.5984 37.3086 12.3562C37.0859 12.114 36.8145 11.9929 36.4941 11.9929C36.2832 11.9929 36.0312 12.0339 35.7383 12.116L35.9199 10.7742C36.3652 10.7859 36.7051 10.6902 36.9395 10.4871C37.1738 10.28 37.291 10.0066 37.291 9.66675C37.291 9.37769 37.2051 9.14722 37.0332 8.97534C36.8613 8.80347 36.6328 8.71753 36.3477 8.71753C36.0664 8.71753 35.8262 8.81519 35.627 9.0105C35.4277 9.20581 35.3066 9.49097 35.2637 9.86597L33.7461 9.60815C33.8516 9.08862 34.0098 8.67456 34.2207 8.36597C34.4355 8.05347 34.7324 7.80933 35.1113 7.63354C35.4941 7.45386 35.9219 7.36401 36.3945 7.36401C37.2031 7.36401 37.8516 7.62183 38.3398 8.13745C38.7422 8.55933 38.9434 9.03589 38.9434 9.56714C38.9434 10.321 38.5312 10.9226 37.707 11.3718C38.1992 11.4773 38.5918 11.7136 38.8848 12.0808C39.1816 12.448 39.3301 12.8914 39.3301 13.4109C39.3301 14.1648 39.0547 14.8074 38.5039 15.3386C37.9531 15.8699 37.2676 16.1355 36.4473 16.1355C35.6699 16.1355 35.0254 15.9128 34.5137 15.4675C34.002 15.0183 33.7051 14.4324 33.623 13.7097Z" fill="white"/>
<defs>
<linearGradient id="paint0_linear_50_1823" x1="24.5" y1="21.989" x2="24.5" y2="1.98901" gradientUnits="userSpaceOnUse">
<stop stop-color="#E6501E"/>
<stop offset="1" stop-color="#846DDE"/>
</linearGradient>
</defs>
</svg>
