<svg width="37" height="24" viewBox="0 0 37 24" fill="none" xmlns="http://www.w3.org/2000/svg">
<rect x="2" y="1.98901" width="34" height="20" rx="10" fill="#612A0E"/>
<rect x="2" y="1.98901" width="34" height="20" rx="10" stroke="#C14C27" stroke-width="3" stroke-linejoin="round"/>
<path d="M12.2031 7.39917H15.6367C16.3164 7.39917 16.8223 7.42847 17.1543 7.48706C17.4902 7.54175 17.7891 7.65894 18.0508 7.83862C18.3164 8.01831 18.5371 8.25854 18.7129 8.55933C18.8887 8.8562 18.9766 9.19019 18.9766 9.56128C18.9766 9.96362 18.8672 10.3328 18.6484 10.6687C18.4336 11.0046 18.1406 11.2566 17.7695 11.4246C18.293 11.5769 18.6953 11.8367 18.9766 12.2039C19.2578 12.571 19.3984 13.0027 19.3984 13.4988C19.3984 13.8894 19.3066 14.2703 19.123 14.6414C18.9434 15.0085 18.6953 15.3035 18.3789 15.5261C18.0664 15.7449 17.6797 15.8796 17.2188 15.9304C16.9297 15.9617 16.2324 15.9812 15.127 15.989H12.2031V7.39917ZM13.9375 8.82886V10.8152H15.0742C15.75 10.8152 16.1699 10.8054 16.334 10.7859C16.6309 10.7507 16.8633 10.6492 17.0312 10.4812C17.2031 10.3093 17.2891 10.0847 17.2891 9.80737C17.2891 9.54175 17.2148 9.3269 17.0664 9.16284C16.9219 8.99487 16.7051 8.89331 16.416 8.85815C16.2441 8.83862 15.75 8.82886 14.9336 8.82886H13.9375ZM13.9375 12.2449V14.5417H15.543C16.168 14.5417 16.5645 14.5242 16.7324 14.489C16.9902 14.4421 17.1992 14.3289 17.3594 14.1492C17.5234 13.9656 17.6055 13.7214 17.6055 13.4167C17.6055 13.1589 17.543 12.9402 17.418 12.7605C17.293 12.5808 17.1113 12.45 16.873 12.3679C16.6387 12.2859 16.127 12.2449 15.3379 12.2449H13.9375ZM22.0879 11.6648L20.5938 11.3953C20.7617 10.7937 21.0508 10.3484 21.4609 10.0593C21.8711 9.77026 22.4805 9.62573 23.2891 9.62573C24.0234 9.62573 24.5703 9.71362 24.9297 9.8894C25.2891 10.0613 25.541 10.282 25.6855 10.5515C25.834 10.8171 25.9082 11.3074 25.9082 12.0222L25.8906 13.9441C25.8906 14.491 25.916 14.8953 25.9668 15.157C26.0215 15.4148 26.1211 15.6921 26.2656 15.989H24.6367C24.5938 15.8796 24.541 15.7175 24.4785 15.5027C24.4512 15.405 24.4316 15.3406 24.4199 15.3093C24.1387 15.5828 23.8379 15.7878 23.5176 15.9246C23.1973 16.0613 22.8555 16.1296 22.4922 16.1296C21.8516 16.1296 21.3457 15.9558 20.9746 15.6082C20.6074 15.2605 20.4238 14.821 20.4238 14.2898C20.4238 13.9382 20.5078 13.6257 20.6758 13.3523C20.8438 13.075 21.0781 12.864 21.3789 12.7195C21.6836 12.571 22.1211 12.4421 22.6914 12.3328C23.4609 12.1882 23.9941 12.0535 24.291 11.9285V11.7644C24.291 11.448 24.2129 11.2234 24.0566 11.0906C23.9004 10.9539 23.6055 10.8855 23.1719 10.8855C22.8789 10.8855 22.6504 10.9441 22.4863 11.0613C22.3223 11.1746 22.1895 11.3757 22.0879 11.6648ZM24.291 13.0007C24.0801 13.071 23.7461 13.155 23.2891 13.2527C22.832 13.3503 22.5332 13.446 22.3926 13.5398C22.1777 13.6921 22.0703 13.8855 22.0703 14.1199C22.0703 14.3503 22.1562 14.5496 22.3281 14.7175C22.5 14.8855 22.7188 14.9695 22.9844 14.9695C23.2812 14.9695 23.5645 14.8718 23.834 14.6765C24.0332 14.5281 24.1641 14.3464 24.2266 14.1316C24.2695 13.991 24.291 13.7234 24.291 13.3289V13.0007Z" fill="white"/>
</svg>
