<svg width="24" height="80" viewBox="0 0 24 80" fill="none" xmlns="http://www.w3.org/2000/svg">
<path d="M23.855 6.04955C23.855 1.67205 18.7211 0.331055 12.3882 0.331055C6.05529 0.331055 0.921387 1.67205 0.921387 6.04955C0.921387 8.64775 2.73039 11.7307 5.52499 13.8078C8.28119 15.8563 9.96149 19.3281 9.96149 23.0726V76.2376C9.96149 77.6928 10.8958 79.0032 12.1706 79.1294C13.6086 79.2717 14.8146 77.9866 14.8146 76.3807V23.0728C14.8146 19.3283 16.4949 15.8565 19.2512 13.808C22.046 11.7308 23.855 8.64785 23.855 6.04955Z" fill="url(#paint0_linear_86_2572)"/>
<path d="M23.855 6.04955C23.855 1.67205 18.7211 0.331055 12.3882 0.331055C6.05529 0.331055 0.921387 1.67205 0.921387 6.04955C0.921387 8.64775 2.73039 11.7307 5.52499 13.8078C8.28119 15.8563 9.96149 19.3281 9.96149 23.0726V76.2376C9.96149 77.6928 10.8958 79.0032 12.1706 79.1294C13.6086 79.2717 14.8146 77.9866 14.8146 76.3807V23.0728C14.8146 19.3283 16.4949 15.8565 19.2512 13.808C22.046 11.7308 23.855 8.64785 23.855 6.04955Z" fill="url(#paint1_linear_86_2572)"/>
<defs>
<linearGradient id="paint0_linear_86_2572" x1="0.921387" y1="39.7356" x2="23.855" y2="39.7356" gradientUnits="userSpaceOnUse">
<stop offset="0.15" stop-color="#226664"/>
<stop offset="0.5" stop-color="#5EB6BF"/>
<stop offset="0.85" stop-color="#226664"/>
</linearGradient>
<linearGradient id="paint1_linear_86_2572" x1="12.3882" y1="0.331055" x2="12.3882" y2="79.1401" gradientUnits="userSpaceOnUse">
<stop offset="0.0005" stop-color="#226664"/>
<stop offset="0.1418" stop-color="#226664" stop-opacity="0.5"/>
<stop offset="1" stop-color="#226664" stop-opacity="0"/>
</linearGradient>
</defs>
</svg>
