<svg width="50" height="24" viewBox="0 0 50 24" fill="none" xmlns="http://www.w3.org/2000/svg">
<rect x="2" y="1.98901" width="47" height="20" rx="10" fill="url(#paint0_linear_83_1995)"/>
<rect x="2" y="1.98901" width="47" height="20" rx="10" stroke="#002E8B" stroke-width="3" stroke-linejoin="round"/>
<path d="M11.9648 15.989V8.85229H9.41602V7.39917H16.2422V8.85229H13.6992V15.989H11.9648ZM17.3848 15.989V7.39917H19.0723L22.5879 13.1355V7.39917H24.1992V15.989H22.459L18.9961 10.3875V15.989H17.3848ZM26.0625 15.989V7.39917H27.7969V11.2136L31.3008 7.39917H33.6328L30.3984 10.7449L33.8086 15.989H31.5645L29.2031 11.9578L27.7969 13.3933V15.989H26.0625ZM34.2715 13.1941L35.959 13.03C36.0605 13.5964 36.2656 14.0125 36.5742 14.2781C36.8867 14.5437 37.3066 14.6765 37.834 14.6765C38.3926 14.6765 38.8125 14.5593 39.0938 14.325C39.3789 14.0867 39.5215 13.8093 39.5215 13.4929C39.5215 13.2898 39.4609 13.1179 39.3398 12.9773C39.2227 12.8328 39.0156 12.7078 38.7188 12.6023C38.5156 12.532 38.0527 12.407 37.3301 12.2273C36.4004 11.9968 35.748 11.7136 35.373 11.3777C34.8457 10.905 34.582 10.3289 34.582 9.64917C34.582 9.21167 34.7051 8.80347 34.9512 8.42456C35.2012 8.04175 35.5586 7.75073 36.0234 7.55151C36.4922 7.35229 37.0566 7.25269 37.7168 7.25269C38.7949 7.25269 39.6055 7.48901 40.1484 7.96167C40.6953 8.43433 40.9824 9.06519 41.0098 9.85425L39.2754 9.93042C39.2012 9.48901 39.041 9.17261 38.7949 8.9812C38.5527 8.78589 38.1875 8.68823 37.6992 8.68823C37.1953 8.68823 36.8008 8.79175 36.5156 8.99878C36.332 9.13159 36.2402 9.30933 36.2402 9.53198C36.2402 9.73511 36.3262 9.90894 36.498 10.0535C36.7168 10.2371 37.248 10.4285 38.0918 10.6277C38.9355 10.8269 39.5586 11.0339 39.9609 11.2488C40.3672 11.4597 40.6836 11.7507 40.9102 12.1218C41.1406 12.489 41.2559 12.9441 41.2559 13.4871C41.2559 13.9792 41.1191 14.4402 40.8457 14.8699C40.5723 15.2996 40.1855 15.6199 39.6855 15.8308C39.1855 16.0378 38.5625 16.1414 37.8164 16.1414C36.7305 16.1414 35.8965 15.8914 35.3145 15.3914C34.7324 14.8875 34.3848 14.155 34.2715 13.1941Z" fill="white"/>
<defs>
<linearGradient id="paint0_linear_83_1995" x1="25.5" y1="1.98901" x2="25.5" y2="21.989" gradientUnits="userSpaceOnUse">
<stop stop-color="#CBA779"/>
<stop offset="1" stop-color="#002E8B"/>
</linearGradient>
</defs>
</svg>
