<svg width="44" height="44" viewBox="0 0 44 44" fill="none" xmlns="http://www.w3.org/2000/svg">
<path d="M22.0017 1.48901C33.4454 1.48926 42.7537 10.7996 42.7537 22.2419C42.7536 33.6844 33.4445 42.9929 22.0007 42.9929C10.5585 42.9927 1.24983 33.6856 1.24976 22.2419C1.24976 10.7981 10.5592 1.48901 22.0017 1.48901Z" fill="url(#paint0_radial_89_4112)" stroke="#464199"/>
<path d="M14.5699 25.989V17.3992H16.3043V25.989H14.5699ZM18.0094 25.989V17.4695H19.7438V24.5417H24.0563V25.989H18.0094ZM24.9352 19.0457V17.5164H30.566V18.7117C30.1012 19.1687 29.6285 19.825 29.1481 20.6804C28.6676 21.5359 28.3004 22.446 28.0465 23.4109C27.7965 24.3718 27.6735 25.2312 27.6774 25.989H26.0895C26.1168 24.8015 26.361 23.5906 26.8219 22.3562C27.2867 21.1218 27.9059 20.0183 28.6793 19.0457H24.9352Z" fill="white"/>
<defs>
<radialGradient id="paint0_radial_89_4112" cx="0" cy="0" r="1" gradientUnits="userSpaceOnUse" gradientTransform="translate(17.5291 14.0023) scale(19.3962)">
<stop stop-color="#E5B983"/>
<stop offset="1" stop-color="#CE824E"/>
</radialGradient>
</defs>
</svg>
