<svg width="44" height="44" viewBox="0 0 44 44" fill="none" xmlns="http://www.w3.org/2000/svg">
<path d="M21.7972 1.48901C33.2411 1.48901 42.5502 10.7994 42.5502 22.2419C42.55 33.6844 33.241 42.9929 21.7972 42.9929C10.3551 42.9927 1.04639 33.6855 1.04626 22.2419C1.04626 10.7984 10.355 1.48924 21.7972 1.48901Z" fill="url(#paint0_radial_89_4015)" stroke="#1A1A5B"/>
<path d="M13.3667 25.989V17.3992H15.1011V25.989H13.3667ZM16.8062 25.989V17.4695H18.5405V24.5417H22.853V25.989H16.8062ZM27.6226 23.7742H26.1284C26.1245 23.5593 26.1226 23.4285 26.1226 23.3816C26.1226 22.8972 26.2026 22.4988 26.3628 22.1863C26.5229 21.8738 26.8433 21.5222 27.3237 21.1316C27.8042 20.741 28.0913 20.4851 28.1851 20.364C28.3296 20.1726 28.4019 19.9617 28.4019 19.7312C28.4019 19.4109 28.2729 19.1375 28.0151 18.9109C27.7612 18.6804 27.4175 18.5652 26.9839 18.5652C26.5659 18.5652 26.2163 18.6843 25.9351 18.9226C25.6538 19.1609 25.4604 19.5242 25.355 20.0125L23.8433 19.825C23.8862 19.1257 24.1831 18.532 24.7339 18.0437C25.2886 17.5554 26.0151 17.3113 26.9136 17.3113C27.8589 17.3113 28.6108 17.5593 29.1694 18.0554C29.728 18.5476 30.0073 19.1218 30.0073 19.7781C30.0073 20.1414 29.9038 20.4851 29.6968 20.8093C29.4937 21.1335 29.0562 21.575 28.3843 22.1335C28.0366 22.4226 27.8198 22.655 27.7339 22.8308C27.6519 23.0066 27.6147 23.321 27.6226 23.7742ZM26.1284 25.989V24.3425H27.7749V25.989H26.1284Z" fill="white"/>
<defs>
<radialGradient id="paint0_radial_89_4015" cx="0" cy="0" r="1" gradientUnits="userSpaceOnUse" gradientTransform="translate(17.3255 14.0022) scale(19.3962)">
<stop stop-color="#D2D2D2"/>
<stop offset="0.0404" stop-color="#C5C5C5"/>
<stop offset="0.2098" stop-color="#969696"/>
<stop offset="0.3786" stop-color="#6E6E6E"/>
<stop offset="0.5439" stop-color="#505050"/>
<stop offset="0.7048" stop-color="#3A3A3A"/>
<stop offset="0.8592" stop-color="#2C2C2C"/>
<stop offset="1" stop-color="#282828"/>
</radialGradient>
</defs>
</svg>
