<svg width="53" height="39" viewBox="0 0 53 39" fill="none" xmlns="http://www.w3.org/2000/svg">
<path d="M31.9219 29.7364C31.9219 34.6315 24.9375 38.5997 16.3218 38.5997C7.7061 38.5997 0.721802 34.6314 0.721802 29.7364C0.721802 24.8413 7.7062 0.871826 16.3219 0.871826C24.9375 0.871826 31.9219 24.8413 31.9219 29.7364Z" fill="url(#paint0_radial_86_3171)"/>
<path d="M52.9233 29.7364C52.9233 34.6315 45.9389 38.5997 37.3232 38.5997C28.7075 38.5997 21.7231 34.6315 21.7231 29.7364C21.7231 24.8413 28.7075 0.871826 37.3232 0.871826C45.9389 0.871826 52.9233 24.8413 52.9233 29.7364Z" fill="url(#paint1_radial_86_3171)"/>
<defs>
<radialGradient id="paint0_radial_86_3171" cx="0" cy="0" r="1" gradientUnits="userSpaceOnUse" gradientTransform="translate(16.1351 16.1018) scale(14.639 25.567)">
<stop stop-color="#FFA5DF"/>
<stop offset="0.041" stop-color="#F698D5"/>
<stop offset="0.1843" stop-color="#DB6EB4"/>
<stop offset="0.331" stop-color="#C44C99"/>
<stop offset="0.4794" stop-color="#B23185"/>
<stop offset="0.6303" stop-color="#A61E76"/>
<stop offset="0.7851" stop-color="#9E136D"/>
<stop offset="0.95" stop-color="#9C0F6A"/>
</radialGradient>
<radialGradient id="paint1_radial_86_3171" cx="0" cy="0" r="1" gradientUnits="userSpaceOnUse" gradientTransform="translate(37.1364 16.1018) scale(14.639 25.567)">
<stop stop-color="#FFA5DF"/>
<stop offset="0.041" stop-color="#F698D5"/>
<stop offset="0.1843" stop-color="#DB6EB4"/>
<stop offset="0.331" stop-color="#C44C99"/>
<stop offset="0.4794" stop-color="#B23185"/>
<stop offset="0.6303" stop-color="#A61E76"/>
<stop offset="0.7851" stop-color="#9E136D"/>
<stop offset="0.95" stop-color="#9C0F6A"/>
</radialGradient>
</defs>
</svg>
