<svg width="57" height="24" viewBox="0 0 57 24" fill="none" xmlns="http://www.w3.org/2000/svg">
<rect x="2" y="1.98901" width="54" height="20" rx="10" fill="url(#paint0_linear_35_1403)"/>
<rect x="2" y="1.98901" width="54" height="20" rx="10" stroke="#6B457C" stroke-width="3" stroke-linejoin="round"/>
<path d="M18.0488 15.989H16.1621L15.4121 14.0378H11.9785L11.2695 15.989H9.42969L12.7754 7.39917H14.6094L18.0488 15.989ZM14.8555 12.5906L13.6719 9.40308L12.5117 12.5906H14.8555ZM18.9688 7.39917H22.1387C22.8535 7.39917 23.3984 7.45386 23.7734 7.56323C24.2773 7.71167 24.709 7.97534 25.0684 8.35425C25.4277 8.73315 25.7012 9.198 25.8887 9.74878C26.0762 10.2957 26.1699 10.9714 26.1699 11.7761C26.1699 12.4832 26.082 13.0925 25.9062 13.6042C25.6914 14.2292 25.3848 14.7351 24.9863 15.1218C24.6855 15.4148 24.2793 15.6433 23.7676 15.8074C23.3848 15.9285 22.873 15.989 22.2324 15.989H18.9688V7.39917ZM20.7031 8.85229V14.5417H21.998C22.4824 14.5417 22.832 14.5144 23.0469 14.4597C23.3281 14.3894 23.5605 14.2703 23.7441 14.1023C23.9316 13.9343 24.084 13.6589 24.2012 13.2761C24.3184 12.8894 24.377 12.364 24.377 11.7C24.377 11.0359 24.3184 10.5261 24.2012 10.1707C24.084 9.81519 23.9199 9.53784 23.709 9.33862C23.498 9.1394 23.2305 9.00464 22.9062 8.93433C22.6641 8.87964 22.1895 8.85229 21.4824 8.85229H20.7031ZM35.3926 15.989H33.5059L32.7559 14.0378H29.3223L28.6133 15.989H26.7734L30.1191 7.39917H31.9531L35.3926 15.989ZM32.1992 12.5906L31.0156 9.40308L29.8555 12.5906H32.1992ZM37.3613 15.989V8.85229H34.8125V7.39917H41.6387V8.85229H39.0957V15.989H37.3613ZM46.6133 15.989H44.9668V9.78394C44.3652 10.3464 43.6562 10.7625 42.8398 11.032V9.53784C43.2695 9.39722 43.7363 9.13159 44.2402 8.74097C44.7441 8.34644 45.0898 7.88745 45.2773 7.36401H46.6133V15.989Z" fill="white"/>
<defs>
<linearGradient id="paint0_linear_35_1403" x1="29" y1="1.98901" x2="29" y2="21.989" gradientUnits="userSpaceOnUse">
<stop stop-color="#6B457C"/>
<stop offset="1" stop-color="#00CF8A"/>
</linearGradient>
</defs>
</svg>
