<svg width="25" height="122" viewBox="0 0 25 122" fill="none" xmlns="http://www.w3.org/2000/svg">
<path d="M5.80871 87.3805C5.80871 91.7805 10.4227 94.1805 14.0227 96.0805C15.8227 96.9805 18.0227 98.1805 18.0227 98.8805C18.0227 99.1805 17.6227 99.7805 16.3227 100.581C10.1227 104.481 3.72271 111.081 4.12271 116.381C4.22271 118.081 5.22271 120.381 8.82271 121.781L9.52271 119.981C7.32271 119.081 6.22271 117.881 6.12271 116.181C5.72271 111.981 11.6227 105.881 17.4227 102.181C18.5227 101.481 20.1227 100.281 20.0227 98.7805C19.8227 96.7805 17.6227 95.6805 14.9227 94.2805C11.6227 92.5805 7.82271 90.6805 7.82271 87.3805H7.80861V61.5825C9.53661 62.7635 11.5996 63.4145 13.7176 63.4145C19.4836 63.4145 24.1746 58.7235 24.1746 52.9575C24.1746 47.1905 19.4836 42.4995 13.7176 42.4995C11.2606 42.4995 8.87661 43.3765 7.00561 44.9385L5.03161 41.7395C6.20061 42.1795 7.44861 42.4135 8.71661 42.4135C14.4836 42.4135 19.1746 37.7225 19.1746 31.9555C19.1746 26.1895 14.4836 21.4985 8.71661 21.4985C7.45361 21.4985 6.21161 21.7295 5.04761 22.1665L7.01961 18.9835C8.88861 20.5385 11.2676 21.4115 13.7176 21.4115C19.4836 21.4115 24.1746 16.7205 24.1746 10.9535C24.1746 5.18651 19.4836 0.495605 13.7176 0.495605C10.8346 0.495605 8.05161 1.70361 6.08061 3.80761L7.54161 5.17361C9.15761 3.44561 11.3516 2.49461 13.7176 2.49461C18.3806 2.49461 22.1746 6.28861 22.1746 10.9526C22.1746 15.6166 18.3806 19.4106 13.7176 19.4106C11.3536 19.4106 9.16061 18.4596 7.54261 16.7326L5.96361 16.8896L0.955613 24.9726L2.53561 26.1816C4.15261 24.4506 6.34761 23.4966 8.71661 23.4966C13.3806 23.4966 17.1746 27.2906 17.1746 31.9536C17.1746 36.6176 13.3806 40.4116 8.71661 40.4116C6.34861 40.4116 4.15461 39.4586 2.53561 37.7266L0.953613 38.9336L5.94661 47.0316L7.52961 47.1886C9.12461 45.4786 11.3806 44.4976 13.7176 44.4976C18.3806 44.4976 22.1746 48.2916 22.1746 52.9556C22.1746 57.6186 18.3806 61.4126 13.7176 61.4126C11.3506 61.4126 9.15561 60.4606 7.53861 58.7306L5.80861 59.4136L5.80871 87.3805Z" fill="url(#paint0_linear_92_5472)"/>
<defs>
<linearGradient id="paint0_linear_92_5472" x1="0.832713" y1="61.1381" x2="24.0883" y2="61.1381" gradientUnits="userSpaceOnUse">
<stop stop-color="#EA6924"/>
<stop offset="1" stop-color="#00104F"/>
</linearGradient>
</defs>
</svg>
