<svg width="50" height="24" viewBox="0 0 50 24" fill="none" xmlns="http://www.w3.org/2000/svg">
<rect x="2" y="1.98901" width="47" height="20" rx="10" fill="url(#paint0_linear_45_4267)"/>
<rect x="2" y="1.98901" width="47" height="20" rx="10" stroke="#EF7F90" stroke-width="3" stroke-linejoin="round"/>
<path d="M14.3555 12.8308V11.3835H18.0938V14.8054C17.7305 15.157 17.2031 15.4675 16.5117 15.7371C15.8242 16.0027 15.127 16.1355 14.4199 16.1355C13.5215 16.1355 12.7383 15.948 12.0703 15.573C11.4023 15.1941 10.9004 14.655 10.5645 13.9558C10.2285 13.2527 10.0605 12.489 10.0605 11.6648C10.0605 10.7703 10.248 9.97534 10.623 9.28003C10.998 8.58472 11.5469 8.05151 12.2695 7.68042C12.8203 7.39526 13.5059 7.25269 14.3262 7.25269C15.3926 7.25269 16.2246 7.47729 16.8223 7.92651C17.4238 8.37183 17.8105 8.98901 17.9824 9.77808L16.2598 10.1003C16.1387 9.67847 15.9102 9.34644 15.5742 9.10425C15.2422 8.85815 14.8262 8.73511 14.3262 8.73511C13.5684 8.73511 12.9648 8.97534 12.5156 9.45581C12.0703 9.93628 11.8477 10.6492 11.8477 11.5945C11.8477 12.614 12.0742 13.3796 12.5273 13.8914C12.9805 14.3992 13.5742 14.6531 14.3086 14.6531C14.6719 14.6531 15.0352 14.5828 15.3984 14.4421C15.7656 14.2976 16.0801 14.1238 16.3418 13.9207V12.8308H14.3555ZM21.9551 15.989V12.3738L18.8086 7.39917H20.8418L22.8633 10.7976L24.8438 7.39917H26.8418L23.6836 12.3855V15.989H21.9551ZM27.2637 13.1941L28.9512 13.03C29.0527 13.5964 29.2578 14.0125 29.5664 14.2781C29.8789 14.5437 30.2988 14.6765 30.8262 14.6765C31.3848 14.6765 31.8047 14.5593 32.0859 14.325C32.3711 14.0867 32.5137 13.8093 32.5137 13.4929C32.5137 13.2898 32.4531 13.1179 32.332 12.9773C32.2148 12.8328 32.0078 12.7078 31.7109 12.6023C31.5078 12.532 31.0449 12.407 30.3223 12.2273C29.3926 11.9968 28.7402 11.7136 28.3652 11.3777C27.8379 10.905 27.5742 10.3289 27.5742 9.64917C27.5742 9.21167 27.6973 8.80347 27.9434 8.42456C28.1934 8.04175 28.5508 7.75073 29.0156 7.55151C29.4844 7.35229 30.0488 7.25269 30.709 7.25269C31.7871 7.25269 32.5977 7.48901 33.1406 7.96167C33.6875 8.43433 33.9746 9.06519 34.002 9.85425L32.2676 9.93042C32.1934 9.48901 32.0332 9.17261 31.7871 8.9812C31.5449 8.78589 31.1797 8.68823 30.6914 8.68823C30.1875 8.68823 29.793 8.79175 29.5078 8.99878C29.3242 9.13159 29.2324 9.30933 29.2324 9.53198C29.2324 9.73511 29.3184 9.90894 29.4902 10.0535C29.709 10.2371 30.2402 10.4285 31.084 10.6277C31.9277 10.8269 32.5508 11.0339 32.9531 11.2488C33.3594 11.4597 33.6758 11.7507 33.9023 12.1218C34.1328 12.489 34.248 12.9441 34.248 13.4871C34.248 13.9792 34.1113 14.4402 33.8379 14.8699C33.5645 15.2996 33.1777 15.6199 32.6777 15.8308C32.1777 16.0378 31.5547 16.1414 30.8086 16.1414C29.7227 16.1414 28.8887 15.8914 28.3066 15.3914C27.7246 14.8875 27.377 14.155 27.2637 13.1941ZM40.9043 14.4597V15.989H35.1328C35.1953 15.4109 35.3828 14.864 35.6953 14.3484C36.0078 13.8289 36.625 13.1414 37.5469 12.2859C38.2891 11.5945 38.7441 11.1257 38.9121 10.8796C39.1387 10.5398 39.252 10.2039 39.252 9.87183C39.252 9.50464 39.1523 9.22339 38.9531 9.02808C38.7578 8.82886 38.4863 8.72925 38.1387 8.72925C37.7949 8.72925 37.5215 8.83276 37.3184 9.03979C37.1152 9.24683 36.998 9.59058 36.9668 10.071L35.3262 9.90698C35.4238 9.00073 35.7305 8.35034 36.2461 7.95581C36.7617 7.56128 37.4062 7.36401 38.1797 7.36401C39.0273 7.36401 39.6934 7.59253 40.1777 8.04956C40.6621 8.50659 40.9043 9.07495 40.9043 9.75464C40.9043 10.1414 40.834 10.5105 40.6934 10.8621C40.5566 11.2097 40.3379 11.575 40.0371 11.9578C39.8379 12.2117 39.4785 12.5769 38.959 13.0535C38.4395 13.53 38.1094 13.8464 37.9688 14.0027C37.832 14.1589 37.7207 14.3113 37.6348 14.4597H40.9043Z" fill="white"/>
<defs>
<linearGradient id="paint0_linear_45_4267" x1="25.5" y1="1.98901" x2="25.5" y2="21.989" gradientUnits="userSpaceOnUse">
<stop stop-color="#4061A8"/>
<stop offset="1" stop-color="#EF7F90"/>
</linearGradient>
</defs>
</svg>
