<svg width="48" height="24" viewBox="0 0 48 24" fill="none" xmlns="http://www.w3.org/2000/svg">
<rect x="2" y="1.98901" width="45" height="20" rx="10" fill="url(#paint0_linear_67_1950)"/>
<rect x="2" y="1.98901" width="45" height="20" rx="10" stroke="#974FB2" stroke-width="3" stroke-linejoin="round"/>
<path d="M9.92188 13.1941L11.6094 13.03C11.7109 13.5964 11.916 14.0125 12.2246 14.2781C12.5371 14.5437 12.957 14.6765 13.4844 14.6765C14.043 14.6765 14.4629 14.5593 14.7441 14.325C15.0293 14.0867 15.1719 13.8093 15.1719 13.4929C15.1719 13.2898 15.1113 13.1179 14.9902 12.9773C14.873 12.8328 14.666 12.7078 14.3691 12.6023C14.166 12.532 13.7031 12.407 12.9805 12.2273C12.0508 11.9968 11.3984 11.7136 11.0234 11.3777C10.4961 10.905 10.2324 10.3289 10.2324 9.64917C10.2324 9.21167 10.3555 8.80347 10.6016 8.42456C10.8516 8.04175 11.209 7.75073 11.6738 7.55151C12.1426 7.35229 12.707 7.25269 13.3672 7.25269C14.4453 7.25269 15.2559 7.48901 15.7988 7.96167C16.3457 8.43433 16.6328 9.06519 16.6602 9.85425L14.9258 9.93042C14.8516 9.48901 14.6914 9.17261 14.4453 8.9812C14.2031 8.78589 13.8379 8.68823 13.3496 8.68823C12.8457 8.68823 12.4512 8.79175 12.166 8.99878C11.9824 9.13159 11.8906 9.30933 11.8906 9.53198C11.8906 9.73511 11.9766 9.90894 12.1484 10.0535C12.3672 10.2371 12.8984 10.4285 13.7422 10.6277C14.5859 10.8269 15.209 11.0339 15.6113 11.2488C16.0176 11.4597 16.334 11.7507 16.5605 12.1218C16.791 12.489 16.9062 12.9441 16.9062 13.4871C16.9062 13.9792 16.7695 14.4402 16.4961 14.8699C16.2227 15.2996 15.8359 15.6199 15.3359 15.8308C14.8359 16.0378 14.2129 16.1414 13.4668 16.1414C12.3809 16.1414 11.5469 15.8914 10.9648 15.3914C10.3828 14.8875 10.0352 14.155 9.92188 13.1941ZM18.3652 15.989V7.39917H21.1484C22.2031 7.39917 22.8906 7.44214 23.2109 7.52808C23.7031 7.65698 24.1152 7.93823 24.4473 8.37183C24.7793 8.80151 24.9453 9.35815 24.9453 10.0417C24.9453 10.5691 24.8496 11.0125 24.6582 11.3718C24.4668 11.7312 24.2227 12.0144 23.9258 12.2214C23.6328 12.4246 23.334 12.5593 23.0293 12.6257C22.6152 12.7078 22.0156 12.7488 21.2305 12.7488H20.0996V15.989H18.3652ZM20.0996 8.85229V11.2898H21.0488C21.7324 11.2898 22.1895 11.2449 22.4199 11.155C22.6504 11.0652 22.8301 10.9246 22.959 10.7332C23.0918 10.5417 23.1582 10.3191 23.1582 10.0652C23.1582 9.75269 23.0664 9.49487 22.8828 9.29175C22.6992 9.08862 22.4668 8.96167 22.1855 8.91089C21.9785 8.87183 21.5625 8.85229 20.9375 8.85229H20.0996ZM28.3027 15.989V8.85229H25.7539V7.39917H32.5801V8.85229H30.0371V15.989H28.3027ZM37.5547 15.989H35.9082V9.78394C35.3066 10.3464 34.5977 10.7625 33.7812 11.032V9.53784C34.2109 9.39722 34.6777 9.13159 35.1816 8.74097C35.6855 8.34644 36.0312 7.88745 36.2188 7.36401H37.5547V15.989Z" fill="white"/>
<defs>
<linearGradient id="paint0_linear_67_1950" x1="24.5" y1="1.98901" x2="24.5" y2="21.989" gradientUnits="userSpaceOnUse">
<stop stop-color="#974FB2"/>
<stop offset="1" stop-color="#C4A762"/>
</linearGradient>
</defs>
</svg>
