<svg width="44" height="24" viewBox="0 0 44 24" fill="none" xmlns="http://www.w3.org/2000/svg">
<rect x="2" y="1.98901" width="41" height="20" rx="10" fill="url(#paint0_linear_64_1944)"/>
<rect x="2" y="1.98901" width="41" height="20" rx="10" stroke="#22134F" stroke-width="3" stroke-linejoin="round"/>
<path d="M9.67969 11.7468C9.67969 10.8718 9.81055 10.1375 10.0723 9.5437C10.2676 9.1062 10.5332 8.71362 10.8691 8.36597C11.209 8.01831 11.5801 7.7605 11.9824 7.59253C12.5176 7.36597 13.1348 7.25269 13.834 7.25269C15.0996 7.25269 16.1113 7.64526 16.8691 8.43042C17.6309 9.21558 18.0117 10.3074 18.0117 11.7058C18.0117 13.0925 17.6348 14.1785 16.8809 14.9636C16.127 15.7449 15.1191 16.1355 13.8574 16.1355C12.5801 16.1355 11.5645 15.7468 10.8105 14.9695C10.0566 14.1882 9.67969 13.114 9.67969 11.7468ZM11.4668 11.6882C11.4668 12.6609 11.6914 13.3992 12.1406 13.9031C12.5898 14.4031 13.1602 14.6531 13.8516 14.6531C14.543 14.6531 15.1094 14.405 15.5508 13.9089C15.9961 13.4089 16.2188 12.6609 16.2188 11.6648C16.2188 10.6804 16.002 9.94604 15.5684 9.46167C15.1387 8.97729 14.5664 8.73511 13.8516 8.73511C13.1367 8.73511 12.5605 8.9812 12.123 9.47339C11.6855 9.96167 11.4668 10.7 11.4668 11.6882ZM19.377 15.989V7.39917H23.0273C23.9453 7.39917 24.6113 7.47729 25.0254 7.63354C25.4434 7.78589 25.7773 8.05933 26.0273 8.45386C26.2773 8.84839 26.4023 9.29956 26.4023 9.80737C26.4023 10.4519 26.2129 10.9851 25.834 11.407C25.4551 11.825 24.8887 12.0886 24.1348 12.198C24.5098 12.4167 24.8184 12.657 25.0605 12.9187C25.3066 13.1804 25.6367 13.6453 26.0508 14.3132L27.0996 15.989H25.0254L23.7715 14.1199C23.3262 13.4519 23.0215 13.032 22.8574 12.8601C22.6934 12.6843 22.5195 12.5652 22.3359 12.5027C22.1523 12.4363 21.8613 12.4031 21.4629 12.4031H21.1113V15.989H19.377ZM21.1113 11.032H22.3945C23.2266 11.032 23.7461 10.9968 23.9531 10.9265C24.1602 10.8562 24.3223 10.7351 24.4395 10.5632C24.5566 10.3914 24.6152 10.1765 24.6152 9.9187C24.6152 9.62964 24.5371 9.39722 24.3809 9.22144C24.2285 9.04175 24.0117 8.92847 23.7305 8.88159C23.5898 8.86206 23.168 8.85229 22.4648 8.85229H21.1113V11.032ZM33.5391 12.8308L35.2207 13.364C34.9629 14.3015 34.5332 14.9988 33.9316 15.4558C33.334 15.9089 32.5742 16.1355 31.6523 16.1355C30.5117 16.1355 29.5742 15.7468 28.8398 14.9695C28.1055 14.1882 27.7383 13.1218 27.7383 11.7703C27.7383 10.3406 28.1074 9.2312 28.8457 8.44214C29.584 7.64917 30.5547 7.25269 31.7578 7.25269C32.8086 7.25269 33.6621 7.56323 34.3184 8.18433C34.709 8.55151 35.002 9.07886 35.1973 9.76636L33.4805 10.1765C33.3789 9.7312 33.166 9.37964 32.8418 9.12183C32.5215 8.86401 32.1309 8.73511 31.6699 8.73511C31.0332 8.73511 30.5156 8.96362 30.1172 9.42065C29.7227 9.87769 29.5254 10.6179 29.5254 11.6414C29.5254 12.7273 29.7207 13.5007 30.1113 13.9617C30.502 14.4226 31.0098 14.6531 31.6348 14.6531C32.0957 14.6531 32.4922 14.5066 32.8242 14.2136C33.1562 13.9207 33.3945 13.4597 33.5391 12.8308Z" fill="white"/>
<defs>
<linearGradient id="paint0_linear_64_1944" x1="22.5" y1="1.98901" x2="22.5" y2="21.989" gradientUnits="userSpaceOnUse">
<stop stop-color="#22134F"/>
<stop offset="1" stop-color="#8699C7"/>
</linearGradient>
</defs>
</svg>
