<svg width="44" height="24" viewBox="0 0 44 24" fill="none" xmlns="http://www.w3.org/2000/svg">
<rect x="2" y="1.98901" width="41" height="20" rx="10" fill="url(#paint0_linear_64_1954)"/>
<rect x="2" y="1.98901" width="41" height="20" rx="10" stroke="#64A54F" stroke-width="3" stroke-linejoin="round"/>
<path d="M10.0254 15.989V7.39917H12.8086C13.8633 7.39917 14.5508 7.44214 14.8711 7.52808C15.3633 7.65698 15.7754 7.93823 16.1074 8.37183C16.4395 8.80151 16.6055 9.35815 16.6055 10.0417C16.6055 10.5691 16.5098 11.0125 16.3184 11.3718C16.127 11.7312 15.8828 12.0144 15.5859 12.2214C15.293 12.4246 14.9941 12.5593 14.6895 12.6257C14.2754 12.7078 13.6758 12.7488 12.8906 12.7488H11.7598V15.989H10.0254ZM11.7598 8.85229V11.2898H12.709C13.3926 11.2898 13.8496 11.2449 14.0801 11.155C14.3105 11.0652 14.4902 10.9246 14.6191 10.7332C14.752 10.5417 14.8184 10.3191 14.8184 10.0652C14.8184 9.75269 14.7266 9.49487 14.543 9.29175C14.3594 9.08862 14.127 8.96167 13.8457 8.91089C13.6387 8.87183 13.2227 8.85229 12.5977 8.85229H11.7598ZM17.9766 15.989V7.39917H19.7109V15.989H17.9766ZM20.9473 13.7097L22.541 13.5164C22.5918 13.9226 22.7285 14.2332 22.9512 14.448C23.1738 14.6628 23.4434 14.7703 23.7598 14.7703C24.0996 14.7703 24.3848 14.6414 24.6152 14.3835C24.8496 14.1257 24.9668 13.7781 24.9668 13.3406C24.9668 12.9265 24.8555 12.5984 24.6328 12.3562C24.4102 12.114 24.1387 11.9929 23.8184 11.9929C23.6074 11.9929 23.3555 12.0339 23.0625 12.116L23.2441 10.7742C23.6895 10.7859 24.0293 10.6902 24.2637 10.4871C24.498 10.28 24.6152 10.0066 24.6152 9.66675C24.6152 9.37769 24.5293 9.14722 24.3574 8.97534C24.1855 8.80347 23.957 8.71753 23.6719 8.71753C23.3906 8.71753 23.1504 8.81519 22.9512 9.0105C22.752 9.20581 22.6309 9.49097 22.5879 9.86597L21.0703 9.60815C21.1758 9.08862 21.334 8.67456 21.5449 8.36597C21.7598 8.05347 22.0566 7.80933 22.4355 7.63354C22.8184 7.45386 23.2461 7.36401 23.7188 7.36401C24.5273 7.36401 25.1758 7.62183 25.6641 8.13745C26.0664 8.55933 26.2676 9.03589 26.2676 9.56714C26.2676 10.321 25.8555 10.9226 25.0312 11.3718C25.5234 11.4773 25.916 11.7136 26.209 12.0808C26.5059 12.448 26.6543 12.8914 26.6543 13.4109C26.6543 14.1648 26.3789 14.8074 25.8281 15.3386C25.2773 15.8699 24.5918 16.1355 23.7715 16.1355C22.9941 16.1355 22.3496 15.9128 21.8379 15.4675C21.3262 15.0183 21.0293 14.4324 20.9473 13.7097ZM28.0723 15.989V7.39917H29.8066V11.2136L33.3105 7.39917H35.6426L32.4082 10.7449L35.8184 15.989H33.5742L31.2129 11.9578L29.8066 13.3933V15.989H28.0723Z" fill="white"/>
<defs>
<linearGradient id="paint0_linear_64_1954" x1="22.5" y1="1.98901" x2="22.5" y2="21.989" gradientUnits="userSpaceOnUse">
<stop stop-color="#64A54F"/>
<stop offset="1" stop-color="#3F1741"/>
</linearGradient>
</defs>
</svg>
