<svg width="50" height="24" viewBox="0 0 50 24" fill="none" xmlns="http://www.w3.org/2000/svg">
<rect x="2" y="1.98901" width="47" height="20" rx="10" fill="url(#paint0_linear_38_1887)"/>
<rect x="2" y="1.98901" width="47" height="20" rx="10" stroke="#5CBEEA" stroke-width="3" stroke-linejoin="round"/>
<path d="M15.5273 12.8308L17.209 13.364C16.9512 14.3015 16.5215 14.9988 15.9199 15.4558C15.3223 15.9089 14.5625 16.1355 13.6406 16.1355C12.5 16.1355 11.5625 15.7468 10.8281 14.9695C10.0938 14.1882 9.72656 13.1218 9.72656 11.7703C9.72656 10.3406 10.0957 9.2312 10.834 8.44214C11.5723 7.64917 12.543 7.25269 13.7461 7.25269C14.7969 7.25269 15.6504 7.56323 16.3066 8.18433C16.6973 8.55151 16.9902 9.07886 17.1855 9.76636L15.4688 10.1765C15.3672 9.7312 15.1543 9.37964 14.8301 9.12183C14.5098 8.86401 14.1191 8.73511 13.6582 8.73511C13.0215 8.73511 12.5039 8.96362 12.1055 9.42065C11.7109 9.87769 11.5137 10.6179 11.5137 11.6414C11.5137 12.7273 11.709 13.5007 12.0996 13.9617C12.4902 14.4226 12.998 14.6531 13.623 14.6531C14.084 14.6531 14.4805 14.5066 14.8125 14.2136C15.1445 13.9207 15.3828 13.4597 15.5273 12.8308ZM18.7031 15.989V7.39917H25.0723V8.85229H20.4375V10.7566H24.75V12.2039H20.4375V14.5417H25.2363V15.989H18.7031ZM26.7539 15.989V7.46948H28.4883V14.5417H32.8008V15.989H26.7539ZM41.7891 15.989H39.9023L39.1523 14.0378H35.7188L35.0098 15.989H33.1699L36.5156 7.39917H38.3496L41.7891 15.989ZM38.5957 12.5906L37.4121 9.40308L36.252 12.5906H38.5957Z" fill="white"/>
<defs>
<linearGradient id="paint0_linear_38_1887" x1="25.5" y1="1.98901" x2="25.5" y2="21.989" gradientUnits="userSpaceOnUse">
<stop stop-color="#5CBEEA"/>
<stop offset="1" stop-color="#7900A7"/>
</linearGradient>
</defs>
</svg>
