<svg width="75" height="24" viewBox="0 0 75 24" fill="none" xmlns="http://www.w3.org/2000/svg">
<rect x="1" y="1.98901" width="73" height="20" rx="10" fill="url(#paint0_linear_85_2086)"/>
<rect x="1" y="1.98901" width="73" height="20" rx="10" stroke="#79C194" stroke-width="3" stroke-linejoin="round"/>
<path d="M10.2363 15.989L8.18555 7.39917H9.96094L11.2559 13.2996L12.8262 7.39917H14.8887L16.3945 13.3992L17.7129 7.39917H19.459L17.373 15.989H15.5332L13.8223 9.56714L12.1172 15.989H10.2363ZM20.3555 7.39917H23.7891C24.4688 7.39917 24.9746 7.42847 25.3066 7.48706C25.6426 7.54175 25.9414 7.65894 26.2031 7.83862C26.4688 8.01831 26.6895 8.25854 26.8652 8.55933C27.041 8.8562 27.1289 9.19019 27.1289 9.56128C27.1289 9.96362 27.0195 10.3328 26.8008 10.6687C26.5859 11.0046 26.293 11.2566 25.9219 11.4246C26.4453 11.5769 26.8477 11.8367 27.1289 12.2039C27.4102 12.571 27.5508 13.0027 27.5508 13.4988C27.5508 13.8894 27.459 14.2703 27.2754 14.6414C27.0957 15.0085 26.8477 15.3035 26.5312 15.5261C26.2188 15.7449 25.832 15.8796 25.3711 15.9304C25.082 15.9617 24.3848 15.9812 23.2793 15.989H20.3555V7.39917ZM22.0898 8.82886V10.8152H23.2266C23.9023 10.8152 24.3223 10.8054 24.4863 10.7859C24.7832 10.7507 25.0156 10.6492 25.1836 10.4812C25.3555 10.3093 25.4414 10.0847 25.4414 9.80737C25.4414 9.54175 25.3672 9.3269 25.2188 9.16284C25.0742 8.99487 24.8574 8.89331 24.5684 8.85815C24.3965 8.83862 23.9023 8.82886 23.0859 8.82886H22.0898ZM22.0898 12.2449V14.5417H23.6953C24.3203 14.5417 24.7168 14.5242 24.8848 14.489C25.1426 14.4421 25.3516 14.3289 25.5117 14.1492C25.6758 13.9656 25.7578 13.7214 25.7578 13.4167C25.7578 13.1589 25.6953 12.9402 25.5703 12.7605C25.4453 12.5808 25.2637 12.45 25.0254 12.3679C24.791 12.2859 24.2793 12.2449 23.4902 12.2449H22.0898ZM28.582 13.1941L30.2695 13.03C30.3711 13.5964 30.5762 14.0125 30.8848 14.2781C31.1973 14.5437 31.6172 14.6765 32.1445 14.6765C32.7031 14.6765 33.123 14.5593 33.4043 14.325C33.6895 14.0867 33.832 13.8093 33.832 13.4929C33.832 13.2898 33.7715 13.1179 33.6504 12.9773C33.5332 12.8328 33.3262 12.7078 33.0293 12.6023C32.8262 12.532 32.3633 12.407 31.6406 12.2273C30.7109 11.9968 30.0586 11.7136 29.6836 11.3777C29.1562 10.905 28.8926 10.3289 28.8926 9.64917C28.8926 9.21167 29.0156 8.80347 29.2617 8.42456C29.5117 8.04175 29.8691 7.75073 30.334 7.55151C30.8027 7.35229 31.3672 7.25269 32.0273 7.25269C33.1055 7.25269 33.916 7.48901 34.459 7.96167C35.0059 8.43433 35.293 9.06519 35.3203 9.85425L33.5859 9.93042C33.5117 9.48901 33.3516 9.17261 33.1055 8.9812C32.8633 8.78589 32.498 8.68823 32.0098 8.68823C31.5059 8.68823 31.1113 8.79175 30.8262 8.99878C30.6426 9.13159 30.5508 9.30933 30.5508 9.53198C30.5508 9.73511 30.6367 9.90894 30.8086 10.0535C31.0273 10.2371 31.5586 10.4285 32.4023 10.6277C33.2461 10.8269 33.8691 11.0339 34.2715 11.2488C34.6777 11.4597 34.9941 11.7507 35.2207 12.1218C35.4512 12.489 35.5664 12.9441 35.5664 13.4871C35.5664 13.9792 35.4297 14.4402 35.1562 14.8699C34.8828 15.2996 34.4961 15.6199 33.9961 15.8308C33.4961 16.0378 32.873 16.1414 32.127 16.1414C31.041 16.1414 30.207 15.8914 29.625 15.3914C29.043 14.8875 28.6953 14.155 28.582 13.1941ZM42.5215 12.8308L44.2031 13.364C43.9453 14.3015 43.5156 14.9988 42.9141 15.4558C42.3164 15.9089 41.5566 16.1355 40.6348 16.1355C39.4941 16.1355 38.5566 15.7468 37.8223 14.9695C37.0879 14.1882 36.7207 13.1218 36.7207 11.7703C36.7207 10.3406 37.0898 9.2312 37.8281 8.44214C38.5664 7.64917 39.5371 7.25269 40.7402 7.25269C41.791 7.25269 42.6445 7.56323 43.3008 8.18433C43.6914 8.55151 43.9844 9.07886 44.1797 9.76636L42.4629 10.1765C42.3613 9.7312 42.1484 9.37964 41.8242 9.12183C41.5039 8.86401 41.1133 8.73511 40.6523 8.73511C40.0156 8.73511 39.498 8.96362 39.0996 9.42065C38.7051 9.87769 38.5078 10.6179 38.5078 11.6414C38.5078 12.7273 38.7031 13.5007 39.0938 13.9617C39.4844 14.4226 39.9922 14.6531 40.6172 14.6531C41.0781 14.6531 41.4746 14.5066 41.8066 14.2136C42.1387 13.9207 42.377 13.4597 42.5215 12.8308ZM45.7031 15.989V7.39917H49.3535C50.2715 7.39917 50.9375 7.47729 51.3516 7.63354C51.7695 7.78589 52.1035 8.05933 52.3535 8.45386C52.6035 8.84839 52.7285 9.29956 52.7285 9.80737C52.7285 10.4519 52.5391 10.9851 52.1602 11.407C51.7812 11.825 51.2148 12.0886 50.4609 12.198C50.8359 12.4167 51.1445 12.657 51.3867 12.9187C51.6328 13.1804 51.9629 13.6453 52.377 14.3132L53.4258 15.989H51.3516L50.0977 14.1199C49.6523 13.4519 49.3477 13.032 49.1836 12.8601C49.0195 12.6843 48.8457 12.5652 48.6621 12.5027C48.4785 12.4363 48.1875 12.4031 47.7891 12.4031H47.4375V15.989H45.7031ZM47.4375 11.032H48.7207C49.5527 11.032 50.0723 10.9968 50.2793 10.9265C50.4863 10.8562 50.6484 10.7351 50.7656 10.5632C50.8828 10.3914 50.9414 10.1765 50.9414 9.9187C50.9414 9.62964 50.8633 9.39722 50.707 9.22144C50.5547 9.04175 50.3379 8.92847 50.0566 8.88159C49.916 8.86206 49.4941 8.85229 48.791 8.85229H47.4375V11.032ZM59.5664 14.4597V15.989H53.7949C53.8574 15.4109 54.0449 14.864 54.3574 14.3484C54.6699 13.8289 55.2871 13.1414 56.209 12.2859C56.9512 11.5945 57.4062 11.1257 57.5742 10.8796C57.8008 10.5398 57.9141 10.2039 57.9141 9.87183C57.9141 9.50464 57.8145 9.22339 57.6152 9.02808C57.4199 8.82886 57.1484 8.72925 56.8008 8.72925C56.457 8.72925 56.1836 8.83276 55.9805 9.03979C55.7773 9.24683 55.6602 9.59058 55.6289 10.071L53.9883 9.90698C54.0859 9.00073 54.3926 8.35034 54.9082 7.95581C55.4238 7.56128 56.0684 7.36401 56.8418 7.36401C57.6895 7.36401 58.3555 7.59253 58.8398 8.04956C59.3242 8.50659 59.5664 9.07495 59.5664 9.75464C59.5664 10.1414 59.4961 10.5105 59.3555 10.8621C59.2188 11.2097 59 11.575 58.6992 11.9578C58.5 12.2117 58.1406 12.5769 57.6211 13.0535C57.1016 13.53 56.7715 13.8464 56.6309 14.0027C56.4941 14.1589 56.3828 14.3113 56.2969 14.4597H59.5664ZM66.2461 14.4597V15.989H60.4746C60.5371 15.4109 60.7246 14.864 61.0371 14.3484C61.3496 13.8289 61.9668 13.1414 62.8887 12.2859C63.6309 11.5945 64.0859 11.1257 64.2539 10.8796C64.4805 10.5398 64.5938 10.2039 64.5938 9.87183C64.5938 9.50464 64.4941 9.22339 64.2949 9.02808C64.0996 8.82886 63.8281 8.72925 63.4805 8.72925C63.1367 8.72925 62.8633 8.83276 62.6602 9.03979C62.457 9.24683 62.3398 9.59058 62.3086 10.071L60.668 9.90698C60.7656 9.00073 61.0723 8.35034 61.5879 7.95581C62.1035 7.56128 62.748 7.36401 63.5215 7.36401C64.3691 7.36401 65.0352 7.59253 65.5195 8.04956C66.0039 8.50659 66.2461 9.07495 66.2461 9.75464C66.2461 10.1414 66.1758 10.5105 66.0352 10.8621C65.8984 11.2097 65.6797 11.575 65.3789 11.9578C65.1797 12.2117 64.8203 12.5769 64.3008 13.0535C63.7812 13.53 63.4512 13.8464 63.3105 14.0027C63.1738 14.1589 63.0625 14.3113 62.9766 14.4597H66.2461Z" fill="white"/>
<defs>
<linearGradient id="paint0_linear_85_2086" x1="37.5" y1="1.98901" x2="37.5" y2="21.989" gradientUnits="userSpaceOnUse">
<stop stop-color="#79C194"/>
<stop offset="1" stop-color="#5F3A81"/>
</linearGradient>
</defs>
</svg>
