<svg width="44" height="24" viewBox="0 0 44 24" fill="none" xmlns="http://www.w3.org/2000/svg">
<rect x="2" y="1.98901" width="41" height="20" rx="10" fill="url(#paint0_linear_35_1497)"/>
<rect x="2" y="1.98901" width="41" height="20" rx="10" stroke="#771899" stroke-width="3" stroke-linejoin="round"/>
<path d="M10.3711 7.39917H13.8047C14.4844 7.39917 14.9902 7.42847 15.3223 7.48706C15.6582 7.54175 15.957 7.65894 16.2188 7.83862C16.4844 8.01831 16.7051 8.25854 16.8809 8.55933C17.0566 8.8562 17.1445 9.19019 17.1445 9.56128C17.1445 9.96362 17.0352 10.3328 16.8164 10.6687C16.6016 11.0046 16.3086 11.2566 15.9375 11.4246C16.4609 11.5769 16.8633 11.8367 17.1445 12.2039C17.4258 12.571 17.5664 13.0027 17.5664 13.4988C17.5664 13.8894 17.4746 14.2703 17.291 14.6414C17.1113 15.0085 16.8633 15.3035 16.5469 15.5261C16.2344 15.7449 15.8477 15.8796 15.3867 15.9304C15.0977 15.9617 14.4004 15.9812 13.2949 15.989H10.3711V7.39917ZM12.1055 8.82886V10.8152H13.2422C13.918 10.8152 14.3379 10.8054 14.502 10.7859C14.7988 10.7507 15.0312 10.6492 15.1992 10.4812C15.3711 10.3093 15.457 10.0847 15.457 9.80737C15.457 9.54175 15.3828 9.3269 15.2344 9.16284C15.0898 8.99487 14.873 8.89331 14.584 8.85815C14.4121 8.83862 13.918 8.82886 13.1016 8.82886H12.1055ZM12.1055 12.2449V14.5417H13.7109C14.3359 14.5417 14.7324 14.5242 14.9004 14.489C15.1582 14.4421 15.3672 14.3289 15.5273 14.1492C15.6914 13.9656 15.7734 13.7214 15.7734 13.4167C15.7734 13.1589 15.7109 12.9402 15.5859 12.7605C15.4609 12.5808 15.2793 12.45 15.041 12.3679C14.8066 12.2859 14.2949 12.2449 13.5059 12.2449H12.1055ZM26.7832 15.989H24.8965L24.1465 14.0378H20.7129L20.0039 15.989H18.1641L21.5098 7.39917H23.3438L26.7832 15.989ZM23.5898 12.5906L22.4062 9.40308L21.2461 12.5906H23.5898ZM27.7031 7.39917H30.873C31.5879 7.39917 32.1328 7.45386 32.5078 7.56323C33.0117 7.71167 33.4434 7.97534 33.8027 8.35425C34.1621 8.73315 34.4355 9.198 34.623 9.74878C34.8105 10.2957 34.9043 10.9714 34.9043 11.7761C34.9043 12.4832 34.8164 13.0925 34.6406 13.6042C34.4258 14.2292 34.1191 14.7351 33.7207 15.1218C33.4199 15.4148 33.0137 15.6433 32.502 15.8074C32.1191 15.9285 31.6074 15.989 30.9668 15.989H27.7031V7.39917ZM29.4375 8.85229V14.5417H30.7324C31.2168 14.5417 31.5664 14.5144 31.7812 14.4597C32.0625 14.3894 32.2949 14.2703 32.4785 14.1023C32.666 13.9343 32.8184 13.6589 32.9355 13.2761C33.0527 12.8894 33.1113 12.364 33.1113 11.7C33.1113 11.0359 33.0527 10.5261 32.9355 10.1707C32.8184 9.81519 32.6543 9.53784 32.4434 9.33862C32.2324 9.1394 31.9648 9.00464 31.6406 8.93433C31.3984 8.87964 30.9238 8.85229 30.2168 8.85229H29.4375Z" fill="white"/>
<defs>
<linearGradient id="paint0_linear_35_1497" x1="22.5" y1="1.98901" x2="22.5" y2="21.989" gradientUnits="userSpaceOnUse">
<stop stop-color="#771899"/>
<stop offset="1" stop-color="#F0CA0E"/>
</linearGradient>
</defs>
</svg>
