<svg width="58" height="24" viewBox="0 0 58 24" fill="none" xmlns="http://www.w3.org/2000/svg">
<rect x="2" y="1.98901" width="55" height="20" rx="10" fill="url(#paint0_linear_42_2722)"/>
<rect x="2" y="1.98901" width="55" height="20" rx="10" stroke="#BF4E92" stroke-width="3" stroke-linejoin="round"/>
<path d="M10.3691 15.989V7.39917H16.2578V8.85229H12.1035V10.8855H15.6895V12.3386H12.1035V15.989H10.3691ZM17.3418 11.7468C17.3418 10.8718 17.4727 10.1375 17.7344 9.5437C17.9297 9.1062 18.1953 8.71362 18.5312 8.36597C18.8711 8.01831 19.2422 7.7605 19.6445 7.59253C20.1797 7.36597 20.7969 7.25269 21.4961 7.25269C22.7617 7.25269 23.7734 7.64526 24.5312 8.43042C25.293 9.21558 25.6738 10.3074 25.6738 11.7058C25.6738 13.0925 25.2969 14.1785 24.543 14.9636C23.7891 15.7449 22.7812 16.1355 21.5195 16.1355C20.2422 16.1355 19.2266 15.7468 18.4727 14.9695C17.7188 14.1882 17.3418 13.114 17.3418 11.7468ZM19.1289 11.6882C19.1289 12.6609 19.3535 13.3992 19.8027 13.9031C20.252 14.4031 20.8223 14.6531 21.5137 14.6531C22.2051 14.6531 22.7715 14.405 23.2129 13.9089C23.6582 13.4089 23.8809 12.6609 23.8809 11.6648C23.8809 10.6804 23.6641 9.94604 23.2305 9.46167C22.8008 8.97729 22.2285 8.73511 21.5137 8.73511C20.7988 8.73511 20.2227 8.9812 19.7852 9.47339C19.3477 9.96167 19.1289 10.7 19.1289 11.6882ZM26.1602 15.989L29.0957 11.5066L26.4355 7.39917H28.4629L30.1855 10.1589L31.873 7.39917H33.8828L31.2109 11.571L34.1465 15.989H32.0547L30.1504 13.0183L28.2402 15.989H26.1602ZM42.7832 15.989H40.8965L40.1465 14.0378H36.7129L36.0039 15.989H34.1641L37.5098 7.39917H39.3438L42.7832 15.989ZM39.5898 12.5906L38.4062 9.40308L37.2461 12.5906H39.5898ZM43.2871 13.7097L44.8809 13.5164C44.9316 13.9226 45.0684 14.2332 45.291 14.448C45.5137 14.6628 45.7832 14.7703 46.0996 14.7703C46.4395 14.7703 46.7246 14.6414 46.9551 14.3835C47.1895 14.1257 47.3066 13.7781 47.3066 13.3406C47.3066 12.9265 47.1953 12.5984 46.9727 12.3562C46.75 12.114 46.4785 11.9929 46.1582 11.9929C45.9473 11.9929 45.6953 12.0339 45.4023 12.116L45.584 10.7742C46.0293 10.7859 46.3691 10.6902 46.6035 10.4871C46.8379 10.28 46.9551 10.0066 46.9551 9.66675C46.9551 9.37769 46.8691 9.14722 46.6973 8.97534C46.5254 8.80347 46.2969 8.71753 46.0117 8.71753C45.7305 8.71753 45.4902 8.81519 45.291 9.0105C45.0918 9.20581 44.9707 9.49097 44.9277 9.86597L43.4102 9.60815C43.5156 9.08862 43.6738 8.67456 43.8848 8.36597C44.0996 8.05347 44.3965 7.80933 44.7754 7.63354C45.1582 7.45386 45.5859 7.36401 46.0586 7.36401C46.8672 7.36401 47.5156 7.62183 48.0039 8.13745C48.4062 8.55933 48.6074 9.03589 48.6074 9.56714C48.6074 10.321 48.1953 10.9226 47.3711 11.3718C47.8633 11.4773 48.2559 11.7136 48.5488 12.0808C48.8457 12.448 48.9941 12.8914 48.9941 13.4109C48.9941 14.1648 48.7188 14.8074 48.168 15.3386C47.6172 15.8699 46.9316 16.1355 46.1113 16.1355C45.334 16.1355 44.6895 15.9128 44.1777 15.4675C43.666 15.0183 43.3691 14.4324 43.2871 13.7097Z" fill="white"/>
<defs>
<linearGradient id="paint0_linear_42_2722" x1="29.5" y1="1.98901" x2="29.5" y2="21.989" gradientUnits="userSpaceOnUse">
<stop stop-color="#BF4E92"/>
<stop offset="1" stop-color="#64FF86"/>
</linearGradient>
</defs>
</svg>
