<svg width="56" height="24" viewBox="0 0 56 24" fill="none" xmlns="http://www.w3.org/2000/svg">
<rect x="2" y="1.98901" width="53" height="20" rx="10" fill="url(#paint0_linear_84_2040)"/>
<rect x="2" y="1.98901" width="53" height="20" rx="10" stroke="#1C2106" stroke-width="3" stroke-linejoin="round"/>
<path d="M11.959 15.989V8.85229H9.41016V7.39917H16.2363V8.85229H13.6934V15.989H11.959ZM17.3672 15.989V7.39917H21.0176C21.9355 7.39917 22.6016 7.47729 23.0156 7.63354C23.4336 7.78589 23.7676 8.05933 24.0176 8.45386C24.2676 8.84839 24.3926 9.29956 24.3926 9.80737C24.3926 10.4519 24.2031 10.9851 23.8242 11.407C23.4453 11.825 22.8789 12.0886 22.125 12.198C22.5 12.4167 22.8086 12.657 23.0508 12.9187C23.2969 13.1804 23.627 13.6453 24.041 14.3132L25.0898 15.989H23.0156L21.7617 14.1199C21.3164 13.4519 21.0117 13.032 20.8477 12.8601C20.6836 12.6843 20.5098 12.5652 20.3262 12.5027C20.1426 12.4363 19.8516 12.4031 19.4531 12.4031H19.1016V15.989H17.3672ZM19.1016 11.032H20.3848C21.2168 11.032 21.7363 10.9968 21.9434 10.9265C22.1504 10.8562 22.3125 10.7351 22.4297 10.5632C22.5469 10.3914 22.6055 10.1765 22.6055 9.9187C22.6055 9.62964 22.5273 9.39722 22.3711 9.22144C22.2188 9.04175 22.002 8.92847 21.7207 8.88159C21.5801 8.86206 21.1582 8.85229 20.4551 8.85229H19.1016V11.032ZM33.7793 15.989H31.8926L31.1426 14.0378H27.709L27 15.989H25.1602L28.5059 7.39917H30.3398L33.7793 15.989ZM30.5859 12.5906L29.4023 9.40308L28.2422 12.5906H30.5859ZM34.7168 15.989V7.39917H40.6055V8.85229H36.4512V10.8855H40.0371V12.3386H36.4512V15.989H34.7168ZM47.2559 9.50269L45.6621 9.67847C45.623 9.35034 45.5215 9.10815 45.3574 8.9519C45.1934 8.79565 44.9805 8.71753 44.7188 8.71753C44.3711 8.71753 44.0762 8.87378 43.834 9.18628C43.5957 9.49878 43.4453 10.1492 43.3828 11.1375C43.793 10.6531 44.3027 10.4109 44.9121 10.4109C45.5996 10.4109 46.1875 10.6726 46.6758 11.196C47.168 11.7195 47.4141 12.3953 47.4141 13.2234C47.4141 14.1023 47.1562 14.8074 46.6406 15.3386C46.125 15.8699 45.4629 16.1355 44.6543 16.1355C43.7871 16.1355 43.0742 15.7996 42.5156 15.1277C41.957 14.4519 41.6777 13.3464 41.6777 11.8113C41.6777 10.2371 41.9688 9.10229 42.5508 8.40698C43.1328 7.71167 43.8887 7.36401 44.8184 7.36401C45.4707 7.36401 46.0098 7.54761 46.4355 7.91479C46.8652 8.27808 47.1387 8.80737 47.2559 9.50269ZM43.5234 13.0945C43.5234 13.6296 43.6465 14.0437 43.8926 14.3367C44.1387 14.6257 44.4199 14.7703 44.7363 14.7703C45.041 14.7703 45.2949 14.6511 45.498 14.4128C45.7012 14.1746 45.8027 13.7839 45.8027 13.241C45.8027 12.6824 45.6934 12.2742 45.4746 12.0164C45.2559 11.7546 44.9824 11.6238 44.6543 11.6238C44.3379 11.6238 44.0703 11.7488 43.8516 11.9988C43.6328 12.2449 43.5234 12.6101 43.5234 13.0945Z" fill="white"/>
<defs>
<linearGradient id="paint0_linear_84_2040" x1="28.5" y1="1.98901" x2="28.5" y2="21.989" gradientUnits="userSpaceOnUse">
<stop stop-color="#50A551"/>
<stop offset="1" stop-color="#1C2106"/>
</linearGradient>
</defs>
</svg>
