<svg width="58" height="24" viewBox="0 0 58 24" fill="none" xmlns="http://www.w3.org/2000/svg">
<rect x="2" y="1.98901" width="55" height="20" rx="10" fill="url(#paint0_linear_67_1817)"/>
<rect x="2" y="1.98901" width="55" height="20" rx="10" stroke="#9BCF9B" stroke-width="3" stroke-linejoin="round"/>
<path d="M10.0293 15.989V7.39917H12.8125C13.8672 7.39917 14.5547 7.44214 14.875 7.52808C15.3672 7.65698 15.7793 7.93823 16.1113 8.37183C16.4434 8.80151 16.6094 9.35815 16.6094 10.0417C16.6094 10.5691 16.5137 11.0125 16.3223 11.3718C16.1309 11.7312 15.8867 12.0144 15.5898 12.2214C15.2969 12.4246 14.998 12.5593 14.6934 12.6257C14.2793 12.7078 13.6797 12.7488 12.8945 12.7488H11.7637V15.989H10.0293ZM11.7637 8.85229V11.2898H12.7129C13.3965 11.2898 13.8535 11.2449 14.084 11.155C14.3145 11.0652 14.4941 10.9246 14.623 10.7332C14.7559 10.5417 14.8223 10.3191 14.8223 10.0652C14.8223 9.75269 14.7305 9.49487 14.5469 9.29175C14.3633 9.08862 14.1309 8.96167 13.8496 8.91089C13.6426 8.87183 13.2266 8.85229 12.6016 8.85229H11.7637ZM18.0391 15.989V7.39917H21.6895C22.6074 7.39917 23.2734 7.47729 23.6875 7.63354C24.1055 7.78589 24.4395 8.05933 24.6895 8.45386C24.9395 8.84839 25.0645 9.29956 25.0645 9.80737C25.0645 10.4519 24.875 10.9851 24.4961 11.407C24.1172 11.825 23.5508 12.0886 22.7969 12.198C23.1719 12.4167 23.4805 12.657 23.7227 12.9187C23.9688 13.1804 24.2988 13.6453 24.7129 14.3132L25.7617 15.989H23.6875L22.4336 14.1199C21.9883 13.4519 21.6836 13.032 21.5195 12.8601C21.3555 12.6843 21.1816 12.5652 20.998 12.5027C20.8145 12.4363 20.5234 12.4031 20.125 12.4031H19.7734V15.989H18.0391ZM19.7734 11.032H21.0566C21.8887 11.032 22.4082 10.9968 22.6152 10.9265C22.8223 10.8562 22.9844 10.7351 23.1016 10.5632C23.2188 10.3914 23.2773 10.1765 23.2773 9.9187C23.2773 9.62964 23.1992 9.39722 23.043 9.22144C22.8906 9.04175 22.6738 8.92847 22.3926 8.88159C22.252 8.86206 21.8301 8.85229 21.127 8.85229H19.7734V11.032ZM26.6816 15.989V7.39917H29.2773L30.8359 13.2585L32.377 7.39917H34.9785V15.989H33.3672V9.22729L31.6621 15.989H29.9922L28.293 9.22729V15.989H26.6816ZM38.6348 15.989V8.85229H36.0859V7.39917H42.9121V8.85229H40.3691V15.989H38.6348ZM43.6973 13.78L45.3379 13.6101C45.3848 13.9812 45.5234 14.2761 45.7539 14.4949C45.9844 14.7097 46.25 14.8171 46.5508 14.8171C46.8945 14.8171 47.1855 14.6785 47.4238 14.4011C47.6621 14.1199 47.7812 13.698 47.7812 13.1355C47.7812 12.6082 47.6621 12.2136 47.4238 11.9519C47.1895 11.6863 46.8828 11.5535 46.5039 11.5535C46.0312 11.5535 45.6074 11.7625 45.2324 12.1804L43.8965 11.9871L44.7402 7.51636H49.0938V9.05737H45.9883L45.7305 10.5164C46.0977 10.3328 46.4727 10.241 46.8555 10.241C47.5859 10.241 48.2051 10.5066 48.7129 11.0378C49.2207 11.5691 49.4746 12.2585 49.4746 13.1062C49.4746 13.8132 49.2695 14.4441 48.8594 14.9988C48.3008 15.7566 47.5254 16.1355 46.5332 16.1355C45.7402 16.1355 45.0938 15.9226 44.5938 15.4968C44.0938 15.071 43.7949 14.4988 43.6973 13.78Z" fill="white"/>
<defs>
<linearGradient id="paint0_linear_67_1817" x1="29.5" y1="1.98901" x2="29.5" y2="21.989" gradientUnits="userSpaceOnUse">
<stop stop-color="#9BCF9B"/>
<stop offset="1" stop-color="#FFA521"/>
</linearGradient>
</defs>
</svg>
