<svg width="76" height="24" viewBox="0 0 76 24" fill="none" xmlns="http://www.w3.org/2000/svg">
<rect x="1" y="1.98901" width="74" height="20" rx="10" fill="#94881D"/>
<rect x="1" y="1.98901" width="74" height="20" rx="10" stroke="url(#paint0_linear_67_1870)" stroke-width="3" stroke-linejoin="round"/>
<path d="M9.18945 15.989V7.39917H12.8398C13.7578 7.39917 14.4238 7.47729 14.8379 7.63354C15.2559 7.78589 15.5898 8.05933 15.8398 8.45386C16.0898 8.84839 16.2148 9.29956 16.2148 9.80737C16.2148 10.4519 16.0254 10.9851 15.6465 11.407C15.2676 11.825 14.7012 12.0886 13.9473 12.198C14.3223 12.4167 14.6309 12.657 14.873 12.9187C15.1191 13.1804 15.4492 13.6453 15.8633 14.3132L16.9121 15.989H14.8379L13.584 14.1199C13.1387 13.4519 12.834 13.032 12.6699 12.8601C12.5059 12.6843 12.332 12.5652 12.1484 12.5027C11.9648 12.4363 11.6738 12.4031 11.2754 12.4031H10.9238V15.989H9.18945ZM10.9238 11.032H12.207C13.0391 11.032 13.5586 10.9968 13.7656 10.9265C13.9727 10.8562 14.1348 10.7351 14.252 10.5632C14.3691 10.3914 14.4277 10.1765 14.4277 9.9187C14.4277 9.62964 14.3496 9.39722 14.1934 9.22144C14.041 9.04175 13.8242 8.92847 13.543 8.88159C13.4023 8.86206 12.9805 8.85229 12.2773 8.85229H10.9238V11.032ZM17.8613 15.989V7.39917H19.5957V10.78H22.9941V7.39917H24.7285V15.989H22.9941V12.2332H19.5957V15.989H17.8613ZM26.1758 11.7468C26.1758 10.8718 26.3066 10.1375 26.5684 9.5437C26.7637 9.1062 27.0293 8.71362 27.3652 8.36597C27.7051 8.01831 28.0762 7.7605 28.4785 7.59253C29.0137 7.36597 29.6309 7.25269 30.3301 7.25269C31.5957 7.25269 32.6074 7.64526 33.3652 8.43042C34.127 9.21558 34.5078 10.3074 34.5078 11.7058C34.5078 13.0925 34.1309 14.1785 33.377 14.9636C32.623 15.7449 31.6152 16.1355 30.3535 16.1355C29.0762 16.1355 28.0605 15.7468 27.3066 14.9695C26.5527 14.1882 26.1758 13.114 26.1758 11.7468ZM27.9629 11.6882C27.9629 12.6609 28.1875 13.3992 28.6367 13.9031C29.0859 14.4031 29.6562 14.6531 30.3477 14.6531C31.0391 14.6531 31.6055 14.405 32.0469 13.9089C32.4922 13.4089 32.7148 12.6609 32.7148 11.6648C32.7148 10.6804 32.498 9.94604 32.0645 9.46167C31.6348 8.97729 31.0625 8.73511 30.3477 8.73511C29.6328 8.73511 29.0566 8.9812 28.6191 9.47339C28.1816 9.96167 27.9629 10.7 27.9629 11.6882ZM43.6133 15.989H41.7266L40.9766 14.0378H37.543L36.834 15.989H34.9941L38.3398 7.39917H40.1738L43.6133 15.989ZM40.4199 12.5906L39.2363 9.40308L38.0762 12.5906H40.4199ZM44.4863 14.3425H46.1328V15.5203C46.1328 15.9968 46.0918 16.3718 46.0098 16.6453C45.9277 16.9226 45.7715 17.1707 45.541 17.3894C45.3145 17.6082 45.0254 17.78 44.6738 17.905L44.3516 17.2253C44.6836 17.116 44.9199 16.9656 45.0605 16.7742C45.2012 16.5828 45.2754 16.321 45.2832 15.989H44.4863V14.3425ZM47.8848 7.39917H51.3184C51.998 7.39917 52.5039 7.42847 52.8359 7.48706C53.1719 7.54175 53.4707 7.65894 53.7324 7.83862C53.998 8.01831 54.2188 8.25854 54.3945 8.55933C54.5703 8.8562 54.6582 9.19019 54.6582 9.56128C54.6582 9.96362 54.5488 10.3328 54.3301 10.6687C54.1152 11.0046 53.8223 11.2566 53.4512 11.4246C53.9746 11.5769 54.377 11.8367 54.6582 12.2039C54.9395 12.571 55.0801 13.0027 55.0801 13.4988C55.0801 13.8894 54.9883 14.2703 54.8047 14.6414C54.625 15.0085 54.377 15.3035 54.0605 15.5261C53.748 15.7449 53.3613 15.8796 52.9004 15.9304C52.6113 15.9617 51.9141 15.9812 50.8086 15.989H47.8848V7.39917ZM49.6191 8.82886V10.8152H50.7559C51.4316 10.8152 51.8516 10.8054 52.0156 10.7859C52.3125 10.7507 52.5449 10.6492 52.7129 10.4812C52.8848 10.3093 52.9707 10.0847 52.9707 9.80737C52.9707 9.54175 52.8965 9.3269 52.748 9.16284C52.6035 8.99487 52.3867 8.89331 52.0977 8.85815C51.9258 8.83862 51.4316 8.82886 50.6152 8.82886H49.6191ZM49.6191 12.2449V14.5417H51.2246C51.8496 14.5417 52.2461 14.5242 52.4141 14.489C52.6719 14.4421 52.8809 14.3289 53.041 14.1492C53.2051 13.9656 53.2871 13.7214 53.2871 13.4167C53.2871 13.1589 53.2246 12.9402 53.0996 12.7605C52.9746 12.5808 52.793 12.45 52.5547 12.3679C52.3203 12.2859 51.8086 12.2449 51.0195 12.2449H49.6191ZM56.498 14.3425H58.1445V15.5203C58.1445 15.9968 58.1035 16.3718 58.0215 16.6453C57.9395 16.9226 57.7832 17.1707 57.5527 17.3894C57.3262 17.6082 57.0371 17.78 56.6855 17.905L56.3633 17.2253C56.6953 17.116 56.9316 16.9656 57.0723 16.7742C57.2129 16.5828 57.2871 16.321 57.2949 15.989H56.498V14.3425ZM65.3867 12.8308L67.0684 13.364C66.8105 14.3015 66.3809 14.9988 65.7793 15.4558C65.1816 15.9089 64.4219 16.1355 63.5 16.1355C62.3594 16.1355 61.4219 15.7468 60.6875 14.9695C59.9531 14.1882 59.5859 13.1218 59.5859 11.7703C59.5859 10.3406 59.9551 9.2312 60.6934 8.44214C61.4316 7.64917 62.4023 7.25269 63.6055 7.25269C64.6562 7.25269 65.5098 7.56323 66.166 8.18433C66.5566 8.55151 66.8496 9.07886 67.0449 9.76636L65.3281 10.1765C65.2266 9.7312 65.0137 9.37964 64.6895 9.12183C64.3691 8.86401 63.9785 8.73511 63.5176 8.73511C62.8809 8.73511 62.3633 8.96362 61.9648 9.42065C61.5703 9.87769 61.373 10.6179 61.373 11.6414C61.373 12.7273 61.5684 13.5007 61.959 13.9617C62.3496 14.4226 62.8574 14.6531 63.4824 14.6531C63.9434 14.6531 64.3398 14.5066 64.6719 14.2136C65.0039 13.9207 65.2422 13.4597 65.3867 12.8308Z" fill="white"/>
<defs>
<linearGradient id="paint0_linear_67_1870" x1="38" y1="1.98901" x2="38" y2="21.989" gradientUnits="userSpaceOnUse">
<stop stop-color="#1C474A"/>
<stop offset="1" stop-color="#94881D"/>
</linearGradient>
</defs>
</svg>
