<svg width="59" height="24" viewBox="0 0 59 24" fill="none" xmlns="http://www.w3.org/2000/svg">
<rect x="2" y="1.98901" width="56" height="20" rx="10" fill="url(#paint0_linear_46_4279)"/>
<rect x="2" y="1.98901" width="56" height="20" rx="10" stroke="#91B000" stroke-width="3" stroke-linejoin="round"/>
<path d="M14.1855 12.8308V11.3835H17.9238V14.8054C17.5605 15.157 17.0332 15.4675 16.3418 15.7371C15.6543 16.0027 14.957 16.1355 14.25 16.1355C13.3516 16.1355 12.5684 15.948 11.9004 15.573C11.2324 15.1941 10.7305 14.655 10.3945 13.9558C10.0586 13.2527 9.89062 12.489 9.89062 11.6648C9.89062 10.7703 10.0781 9.97534 10.4531 9.28003C10.8281 8.58472 11.377 8.05151 12.0996 7.68042C12.6504 7.39526 13.3359 7.25269 14.1562 7.25269C15.2227 7.25269 16.0547 7.47729 16.6523 7.92651C17.2539 8.37183 17.6406 8.98901 17.8125 9.77808L16.0898 10.1003C15.9688 9.67847 15.7402 9.34644 15.4043 9.10425C15.0723 8.85815 14.6562 8.73511 14.1562 8.73511C13.3984 8.73511 12.7949 8.97534 12.3457 9.45581C11.9004 9.93628 11.6777 10.6492 11.6777 11.5945C11.6777 12.614 11.9043 13.3796 12.3574 13.8914C12.8105 14.3992 13.4043 14.6531 14.1387 14.6531C14.502 14.6531 14.8652 14.5828 15.2285 14.4421C15.5957 14.2976 15.9102 14.1238 16.1719 13.9207V12.8308H14.1855ZM19.5352 15.989V7.39917H23.1855C24.1035 7.39917 24.7695 7.47729 25.1836 7.63354C25.6016 7.78589 25.9355 8.05933 26.1855 8.45386C26.4355 8.84839 26.5605 9.29956 26.5605 9.80737C26.5605 10.4519 26.3711 10.9851 25.9922 11.407C25.6133 11.825 25.0469 12.0886 24.293 12.198C24.668 12.4167 24.9766 12.657 25.2188 12.9187C25.4648 13.1804 25.7949 13.6453 26.209 14.3132L27.2578 15.989H25.1836L23.9297 14.1199C23.4844 13.4519 23.1797 13.032 23.0156 12.8601C22.8516 12.6843 22.6777 12.5652 22.4941 12.5027C22.3105 12.4363 22.0195 12.4031 21.6211 12.4031H21.2695V15.989H19.5352ZM21.2695 11.032H22.5527C23.3848 11.032 23.9043 10.9968 24.1113 10.9265C24.3184 10.8562 24.4805 10.7351 24.5977 10.5632C24.7148 10.3914 24.7734 10.1765 24.7734 9.9187C24.7734 9.62964 24.6953 9.39722 24.5391 9.22144C24.3867 9.04175 24.1699 8.92847 23.8887 8.88159C23.748 8.86206 23.3262 8.85229 22.623 8.85229H21.2695V11.032ZM35.9473 15.989H34.0605L33.3105 14.0378H29.877L29.168 15.989H27.3281L30.6738 7.39917H32.5078L35.9473 15.989ZM32.7539 12.5906L31.5703 9.40308L30.4102 12.5906H32.7539ZM36.873 15.989V7.39917H39.6562C40.7109 7.39917 41.3984 7.44214 41.7188 7.52808C42.2109 7.65698 42.623 7.93823 42.9551 8.37183C43.2871 8.80151 43.4531 9.35815 43.4531 10.0417C43.4531 10.5691 43.3574 11.0125 43.166 11.3718C42.9746 11.7312 42.7305 12.0144 42.4336 12.2214C42.1406 12.4246 41.8418 12.5593 41.5371 12.6257C41.123 12.7078 40.5234 12.7488 39.7383 12.7488H38.6074V15.989H36.873ZM38.6074 8.85229V11.2898H39.5566C40.2402 11.2898 40.6973 11.2449 40.9277 11.155C41.1582 11.0652 41.3379 10.9246 41.4668 10.7332C41.5996 10.5417 41.666 10.3191 41.666 10.0652C41.666 9.75269 41.5742 9.49487 41.3906 9.29175C41.207 9.08862 40.9746 8.96167 40.6934 8.91089C40.4863 8.87183 40.0703 8.85229 39.4453 8.85229H38.6074ZM50.0742 14.4597V15.989H44.3027C44.3652 15.4109 44.5527 14.864 44.8652 14.3484C45.1777 13.8289 45.7949 13.1414 46.7168 12.2859C47.459 11.5945 47.9141 11.1257 48.082 10.8796C48.3086 10.5398 48.4219 10.2039 48.4219 9.87183C48.4219 9.50464 48.3223 9.22339 48.123 9.02808C47.9277 8.82886 47.6562 8.72925 47.3086 8.72925C46.9648 8.72925 46.6914 8.83276 46.4883 9.03979C46.2852 9.24683 46.168 9.59058 46.1367 10.071L44.4961 9.90698C44.5938 9.00073 44.9004 8.35034 45.416 7.95581C45.9316 7.56128 46.5762 7.36401 47.3496 7.36401C48.1973 7.36401 48.8633 7.59253 49.3477 8.04956C49.832 8.50659 50.0742 9.07495 50.0742 9.75464C50.0742 10.1414 50.0039 10.5105 49.8633 10.8621C49.7266 11.2097 49.5078 11.575 49.207 11.9578C49.0078 12.2117 48.6484 12.5769 48.1289 13.0535C47.6094 13.53 47.2793 13.8464 47.1387 14.0027C47.002 14.1589 46.8906 14.3113 46.8047 14.4597H50.0742Z" fill="white"/>
<defs>
<linearGradient id="paint0_linear_46_4279" x1="30" y1="1.98901" x2="30" y2="21.989" gradientUnits="userSpaceOnUse">
<stop stop-color="#91B000"/>
<stop offset="1" stop-color="#00CEA3"/>
</linearGradient>
</defs>
</svg>
