<svg width="38" height="24" viewBox="0 0 38 24" fill="none" xmlns="http://www.w3.org/2000/svg">
<rect x="2" y="1.98901" width="35" height="20" rx="10" fill="url(#paint0_linear_42_2638)"/>
<rect x="2" y="1.98901" width="35" height="20" rx="10" stroke="#9D4192" stroke-width="3" stroke-linejoin="round"/>
<path d="M10.3711 15.989V7.39917H16.2598V8.85229H12.1055V10.8855H15.6914V12.3386H12.1055V15.989H10.3711ZM21.5449 15.989H19.8984V9.78394C19.2969 10.3464 18.5879 10.7625 17.7715 11.032V9.53784C18.2012 9.39722 18.668 9.13159 19.1719 8.74097C19.6758 8.34644 20.0215 7.88745 20.209 7.36401H21.5449V15.989ZM27.5566 15.989H25.9102V9.78394C25.3086 10.3464 24.5996 10.7625 23.7832 11.032V9.53784C24.2129 9.39722 24.6797 9.13159 25.1836 8.74097C25.6875 8.34644 26.0332 7.88745 26.2207 7.36401H27.5566V15.989Z" fill="white"/>
<defs>
<linearGradient id="paint0_linear_42_2638" x1="19.5" y1="1.98901" x2="19.5" y2="21.989" gradientUnits="userSpaceOnUse">
<stop stop-color="#9D4192"/>
<stop offset="1" stop-color="#305F5B"/>
</linearGradient>
</defs>
</svg>
