<svg width="68" height="24" viewBox="0 0 68 24" fill="none" xmlns="http://www.w3.org/2000/svg">
<rect x="1" y="1.98901" width="66" height="20" rx="10" fill="url(#paint0_linear_67_1825)"/>
<rect x="1" y="1.98901" width="66" height="20" rx="10" stroke="#6385FF" stroke-width="3" stroke-linejoin="round"/>
<path d="M9.19141 15.989V7.39917H11.9746C13.0293 7.39917 13.7168 7.44214 14.0371 7.52808C14.5293 7.65698 14.9414 7.93823 15.2734 8.37183C15.6055 8.80151 15.7715 9.35815 15.7715 10.0417C15.7715 10.5691 15.6758 11.0125 15.4844 11.3718C15.293 11.7312 15.0488 12.0144 14.752 12.2214C14.459 12.4246 14.1602 12.5593 13.8555 12.6257C13.4414 12.7078 12.8418 12.7488 12.0566 12.7488H10.9258V15.989H9.19141ZM10.9258 8.85229V11.2898H11.875C12.5586 11.2898 13.0156 11.2449 13.2461 11.155C13.4766 11.0652 13.6562 10.9246 13.7852 10.7332C13.918 10.5417 13.9844 10.3191 13.9844 10.0652C13.9844 9.75269 13.8926 9.49487 13.709 9.29175C13.5254 9.08862 13.293 8.96167 13.0117 8.91089C12.8047 8.87183 12.3887 8.85229 11.7637 8.85229H10.9258ZM17.2012 15.989V7.39917H20.8516C21.7695 7.39917 22.4355 7.47729 22.8496 7.63354C23.2676 7.78589 23.6016 8.05933 23.8516 8.45386C24.1016 8.84839 24.2266 9.29956 24.2266 9.80737C24.2266 10.4519 24.0371 10.9851 23.6582 11.407C23.2793 11.825 22.7129 12.0886 21.959 12.198C22.334 12.4167 22.6426 12.657 22.8848 12.9187C23.1309 13.1804 23.4609 13.6453 23.875 14.3132L24.9238 15.989H22.8496L21.5957 14.1199C21.1504 13.4519 20.8457 13.032 20.6816 12.8601C20.5176 12.6843 20.3438 12.5652 20.1602 12.5027C19.9766 12.4363 19.6855 12.4031 19.2871 12.4031H18.9355V15.989H17.2012ZM18.9355 11.032H20.2188C21.0508 11.032 21.5703 10.9968 21.7773 10.9265C21.9844 10.8562 22.1465 10.7351 22.2637 10.5632C22.3809 10.3914 22.4395 10.1765 22.4395 9.9187C22.4395 9.62964 22.3613 9.39722 22.2051 9.22144C22.0527 9.04175 21.8359 8.92847 21.5547 8.88159C21.4141 8.86206 20.9922 8.85229 20.2891 8.85229H18.9355V11.032ZM25.8906 15.989V7.39917H27.625V11.2136L31.1289 7.39917H33.4609L30.2266 10.7449L33.6367 15.989H31.3926L29.0312 11.9578L27.625 13.3933V15.989H25.8906ZM42.2852 15.989H40.3984L39.6484 14.0378H36.2148L35.5059 15.989H33.666L37.0117 7.39917H38.8457L42.2852 15.989ZM39.0918 12.5906L37.9082 9.40308L36.748 12.5906H39.0918ZM48.707 12.8308L50.3887 13.364C50.1309 14.3015 49.7012 14.9988 49.0996 15.4558C48.502 15.9089 47.7422 16.1355 46.8203 16.1355C45.6797 16.1355 44.7422 15.7468 44.0078 14.9695C43.2734 14.1882 42.9062 13.1218 42.9062 11.7703C42.9062 10.3406 43.2754 9.2312 44.0137 8.44214C44.752 7.64917 45.7227 7.25269 46.9258 7.25269C47.9766 7.25269 48.8301 7.56323 49.4863 8.18433C49.877 8.55151 50.1699 9.07886 50.3652 9.76636L48.6484 10.1765C48.5469 9.7312 48.334 9.37964 48.0098 9.12183C47.6895 8.86401 47.2988 8.73511 46.8379 8.73511C46.2012 8.73511 45.6836 8.96362 45.2852 9.42065C44.8906 9.87769 44.6934 10.6179 44.6934 11.6414C44.6934 12.7273 44.8887 13.5007 45.2793 13.9617C45.6699 14.4226 46.1777 14.6531 46.8027 14.6531C47.2637 14.6531 47.6602 14.5066 47.9922 14.2136C48.3242 13.9207 48.5625 13.4597 48.707 12.8308ZM59.6289 15.989H57.7422L56.9922 14.0378H53.5586L52.8496 15.989H51.0098L54.3555 7.39917H56.1895L59.6289 15.989ZM56.4355 12.5906L55.252 9.40308L54.0918 12.5906H56.4355Z" fill="white"/>
<defs>
<linearGradient id="paint0_linear_67_1825" x1="34" y1="1.98901" x2="34" y2="21.989" gradientUnits="userSpaceOnUse">
<stop stop-color="#001F7A"/>
<stop offset="1" stop-color="#6385FF"/>
</linearGradient>
</defs>
</svg>
