<svg width="49" height="24" viewBox="0 0 49 24" fill="none" xmlns="http://www.w3.org/2000/svg">
<rect x="2" y="1.98901" width="46" height="20" rx="10" fill="url(#paint0_linear_52_1879)"/>
<rect x="2" y="1.98901" width="46" height="20" rx="10" stroke="#007FBD" stroke-width="3" stroke-linejoin="round"/>
<path d="M10.3574 15.989V7.46948H12.0918V14.5417H16.4043V15.989H10.3574ZM17.6523 15.989V7.39917H21.3027C22.2207 7.39917 22.8867 7.47729 23.3008 7.63354C23.7188 7.78589 24.0527 8.05933 24.3027 8.45386C24.5527 8.84839 24.6777 9.29956 24.6777 9.80737C24.6777 10.4519 24.4883 10.9851 24.1094 11.407C23.7305 11.825 23.1641 12.0886 22.4102 12.198C22.7852 12.4167 23.0938 12.657 23.3359 12.9187C23.582 13.1804 23.9121 13.6453 24.3262 14.3132L25.375 15.989H23.3008L22.0469 14.1199C21.6016 13.4519 21.2969 13.032 21.1328 12.8601C20.9688 12.6843 20.7949 12.5652 20.6113 12.5027C20.4277 12.4363 20.1367 12.4031 19.7383 12.4031H19.3867V15.989H17.6523ZM19.3867 11.032H20.6699C21.502 11.032 22.0215 10.9968 22.2285 10.9265C22.4355 10.8562 22.5977 10.7351 22.7148 10.5632C22.832 10.3914 22.8906 10.1765 22.8906 9.9187C22.8906 9.62964 22.8125 9.39722 22.6562 9.22144C22.5039 9.04175 22.2871 8.92847 22.0059 8.88159C21.8652 8.86206 21.4434 8.85229 20.7402 8.85229H19.3867V11.032ZM34.0645 15.989H32.1777L31.4277 14.0378H27.9941L27.2852 15.989H25.4453L28.791 7.39917H30.625L34.0645 15.989ZM30.8711 12.5906L29.6875 9.40308L28.5273 12.5906H30.8711ZM36.0332 15.989V8.85229H33.4844V7.39917H40.3105V8.85229H37.7676V15.989H36.0332Z" fill="white"/>
<defs>
<linearGradient id="paint0_linear_52_1879" x1="25" y1="1.98901" x2="25" y2="21.989" gradientUnits="userSpaceOnUse">
<stop stop-color="#A5C426"/>
<stop offset="1" stop-color="#007FBD"/>
</linearGradient>
</defs>
</svg>
