<svg width="63" height="24" viewBox="0 0 63 24" fill="none" xmlns="http://www.w3.org/2000/svg">
<rect x="2" y="1.98901" width="60" height="20" rx="10" fill="url(#paint0_linear_40_2526)"/>
<rect x="2" y="1.98901" width="60" height="20" rx="10" stroke="#4196B5" stroke-width="3" stroke-linejoin="round"/>
<path d="M15.6816 12.8308L17.3633 13.364C17.1055 14.3015 16.6758 14.9988 16.0742 15.4558C15.4766 15.9089 14.7168 16.1355 13.7949 16.1355C12.6543 16.1355 11.7168 15.7468 10.9824 14.9695C10.248 14.1882 9.88086 13.1218 9.88086 11.7703C9.88086 10.3406 10.25 9.2312 10.9883 8.44214C11.7266 7.64917 12.6973 7.25269 13.9004 7.25269C14.9512 7.25269 15.8047 7.56323 16.4609 8.18433C16.8516 8.55151 17.1445 9.07886 17.3398 9.76636L15.623 10.1765C15.5215 9.7312 15.3086 9.37964 14.9844 9.12183C14.6641 8.86401 14.2734 8.73511 13.8125 8.73511C13.1758 8.73511 12.6582 8.96362 12.2598 9.42065C11.8652 9.87769 11.668 10.6179 11.668 11.6414C11.668 12.7273 11.8633 13.5007 12.2539 13.9617C12.6445 14.4226 13.1523 14.6531 13.7773 14.6531C14.2383 14.6531 14.6348 14.5066 14.9668 14.2136C15.2988 13.9207 15.5371 13.4597 15.6816 12.8308ZM18.8574 15.989V7.39917H21.6406C22.6953 7.39917 23.3828 7.44214 23.7031 7.52808C24.1953 7.65698 24.6074 7.93823 24.9395 8.37183C25.2715 8.80151 25.4375 9.35815 25.4375 10.0417C25.4375 10.5691 25.3418 11.0125 25.1504 11.3718C24.959 11.7312 24.7148 12.0144 24.418 12.2214C24.125 12.4246 23.8262 12.5593 23.5215 12.6257C23.1074 12.7078 22.5078 12.7488 21.7227 12.7488H20.5918V15.989H18.8574ZM20.5918 8.85229V11.2898H21.541C22.2246 11.2898 22.6816 11.2449 22.9121 11.155C23.1426 11.0652 23.3223 10.9246 23.4512 10.7332C23.584 10.5417 23.6504 10.3191 23.6504 10.0652C23.6504 9.75269 23.5586 9.49487 23.375 9.29175C23.1914 9.08862 22.959 8.96167 22.6777 8.91089C22.4707 8.87183 22.0547 8.85229 21.4297 8.85229H20.5918ZM26.4219 13.1941L28.1094 13.03C28.2109 13.5964 28.416 14.0125 28.7246 14.2781C29.0371 14.5437 29.457 14.6765 29.9844 14.6765C30.543 14.6765 30.9629 14.5593 31.2441 14.325C31.5293 14.0867 31.6719 13.8093 31.6719 13.4929C31.6719 13.2898 31.6113 13.1179 31.4902 12.9773C31.373 12.8328 31.166 12.7078 30.8691 12.6023C30.666 12.532 30.2031 12.407 29.4805 12.2273C28.5508 11.9968 27.8984 11.7136 27.5234 11.3777C26.9961 10.905 26.7324 10.3289 26.7324 9.64917C26.7324 9.21167 26.8555 8.80347 27.1016 8.42456C27.3516 8.04175 27.709 7.75073 28.1738 7.55151C28.6426 7.35229 29.207 7.25269 29.8672 7.25269C30.9453 7.25269 31.7559 7.48901 32.2988 7.96167C32.8457 8.43433 33.1328 9.06519 33.1602 9.85425L31.4258 9.93042C31.3516 9.48901 31.1914 9.17261 30.9453 8.9812C30.7031 8.78589 30.3379 8.68823 29.8496 8.68823C29.3457 8.68823 28.9512 8.79175 28.666 8.99878C28.4824 9.13159 28.3906 9.30933 28.3906 9.53198C28.3906 9.73511 28.4766 9.90894 28.6484 10.0535C28.8672 10.2371 29.3984 10.4285 30.2422 10.6277C31.0859 10.8269 31.709 11.0339 32.1113 11.2488C32.5176 11.4597 32.834 11.7507 33.0605 12.1218C33.291 12.489 33.4062 12.9441 33.4062 13.4871C33.4062 13.9792 33.2695 14.4402 32.9961 14.8699C32.7227 15.2996 32.3359 15.6199 31.8359 15.8308C31.3359 16.0378 30.7129 16.1414 29.9668 16.1414C28.8809 16.1414 28.0469 15.8914 27.4648 15.3914C26.8828 14.8875 26.5352 14.155 26.4219 13.1941ZM34.877 15.989V7.39917H40.7656V8.85229H36.6113V10.8855H40.1973V12.3386H36.6113V15.989H34.877ZM41.8379 9.04565V7.51636H47.4688V8.71167C47.0039 9.1687 46.5312 9.82495 46.0508 10.6804C45.5703 11.5359 45.2031 12.446 44.9492 13.4109C44.6992 14.3718 44.5762 15.2312 44.5801 15.989H42.9922C43.0195 14.8015 43.2637 13.5906 43.7246 12.3562C44.1895 11.1218 44.8086 10.0183 45.582 9.04565H41.8379ZM48.459 13.7097L50.0527 13.5164C50.1035 13.9226 50.2402 14.2332 50.4629 14.448C50.6855 14.6628 50.9551 14.7703 51.2715 14.7703C51.6113 14.7703 51.8965 14.6414 52.127 14.3835C52.3613 14.1257 52.4785 13.7781 52.4785 13.3406C52.4785 12.9265 52.3672 12.5984 52.1445 12.3562C51.9219 12.114 51.6504 11.9929 51.3301 11.9929C51.1191 11.9929 50.8672 12.0339 50.5742 12.116L50.7559 10.7742C51.2012 10.7859 51.541 10.6902 51.7754 10.4871C52.0098 10.28 52.127 10.0066 52.127 9.66675C52.127 9.37769 52.041 9.14722 51.8691 8.97534C51.6973 8.80347 51.4688 8.71753 51.1836 8.71753C50.9023 8.71753 50.6621 8.81519 50.4629 9.0105C50.2637 9.20581 50.1426 9.49097 50.0996 9.86597L48.582 9.60815C48.6875 9.08862 48.8457 8.67456 49.0566 8.36597C49.2715 8.05347 49.5684 7.80933 49.9473 7.63354C50.3301 7.45386 50.7578 7.36401 51.2305 7.36401C52.0391 7.36401 52.6875 7.62183 53.1758 8.13745C53.5781 8.55933 53.7793 9.03589 53.7793 9.56714C53.7793 10.321 53.3672 10.9226 52.543 11.3718C53.0352 11.4773 53.4277 11.7136 53.7207 12.0808C54.0176 12.448 54.166 12.8914 54.166 13.4109C54.166 14.1648 53.8906 14.8074 53.3398 15.3386C52.7891 15.8699 52.1035 16.1355 51.2832 16.1355C50.5059 16.1355 49.8613 15.9128 49.3496 15.4675C48.8379 15.0183 48.541 14.4324 48.459 13.7097Z" fill="white"/>
<defs>
<linearGradient id="paint0_linear_40_2526" x1="32" y1="1.98901" x2="32" y2="21.989" gradientUnits="userSpaceOnUse">
<stop stop-color="#4196B5"/>
<stop offset="1" stop-color="#EE5A9F"/>
</linearGradient>
</defs>
</svg>
