<svg width="51" height="24" viewBox="0 0 51 24" fill="none" xmlns="http://www.w3.org/2000/svg">
<rect x="2" y="1.98901" width="48" height="20" rx="10" fill="url(#paint0_linear_36_1575)"/>
<rect x="2" y="1.98901" width="48" height="20" rx="10" stroke="#E23FB0" stroke-width="3" stroke-linejoin="round"/>
<path d="M10.2031 7.39917H13.6367C14.3164 7.39917 14.8223 7.42847 15.1543 7.48706C15.4902 7.54175 15.7891 7.65894 16.0508 7.83862C16.3164 8.01831 16.5371 8.25854 16.7129 8.55933C16.8887 8.8562 16.9766 9.19019 16.9766 9.56128C16.9766 9.96362 16.8672 10.3328 16.6484 10.6687C16.4336 11.0046 16.1406 11.2566 15.7695 11.4246C16.293 11.5769 16.6953 11.8367 16.9766 12.2039C17.2578 12.571 17.3984 13.0027 17.3984 13.4988C17.3984 13.8894 17.3066 14.2703 17.123 14.6414C16.9434 15.0085 16.6953 15.3035 16.3789 15.5261C16.0664 15.7449 15.6797 15.8796 15.2188 15.9304C14.9297 15.9617 14.2324 15.9812 13.127 15.989H10.2031V7.39917ZM11.9375 8.82886V10.8152H13.0742C13.75 10.8152 14.1699 10.8054 14.334 10.7859C14.6309 10.7507 14.8633 10.6492 15.0312 10.4812C15.2031 10.3093 15.2891 10.0847 15.2891 9.80737C15.2891 9.54175 15.2148 9.3269 15.0664 9.16284C14.9219 8.99487 14.7051 8.89331 14.416 8.85815C14.2441 8.83862 13.75 8.82886 12.9336 8.82886H11.9375ZM11.9375 12.2449V14.5417H13.543C14.168 14.5417 14.5645 14.5242 14.7324 14.489C14.9902 14.4421 15.1992 14.3289 15.3594 14.1492C15.5234 13.9656 15.6055 13.7214 15.6055 13.4167C15.6055 13.1589 15.543 12.9402 15.418 12.7605C15.293 12.5808 15.1113 12.45 14.873 12.3679C14.6387 12.2859 14.127 12.2449 13.3379 12.2449H11.9375ZM20.8027 15.989V8.85229H18.2539V7.39917H25.0801V8.85229H22.5371V15.989H20.8027ZM26.2109 15.989V7.39917H29.8613C30.7793 7.39917 31.4453 7.47729 31.8594 7.63354C32.2773 7.78589 32.6113 8.05933 32.8613 8.45386C33.1113 8.84839 33.2363 9.29956 33.2363 9.80737C33.2363 10.4519 33.0469 10.9851 32.668 11.407C32.2891 11.825 31.7227 12.0886 30.9688 12.198C31.3438 12.4167 31.6523 12.657 31.8945 12.9187C32.1406 13.1804 32.4707 13.6453 32.8848 14.3132L33.9336 15.989H31.8594L30.6055 14.1199C30.1602 13.4519 29.8555 13.032 29.6914 12.8601C29.5273 12.6843 29.3535 12.5652 29.1699 12.5027C28.9863 12.4363 28.6953 12.4031 28.2969 12.4031H27.9453V15.989H26.2109ZM27.9453 11.032H29.2285C30.0605 11.032 30.5801 10.9968 30.7871 10.9265C30.9941 10.8562 31.1562 10.7351 31.2734 10.5632C31.3906 10.3914 31.4492 10.1765 31.4492 9.9187C31.4492 9.62964 31.3711 9.39722 31.2148 9.22144C31.0625 9.04175 30.8457 8.92847 30.5645 8.88159C30.4238 8.86206 30.002 8.85229 29.2988 8.85229H27.9453V11.032ZM40.373 12.8308L42.0547 13.364C41.7969 14.3015 41.3672 14.9988 40.7656 15.4558C40.168 15.9089 39.4082 16.1355 38.4863 16.1355C37.3457 16.1355 36.4082 15.7468 35.6738 14.9695C34.9395 14.1882 34.5723 13.1218 34.5723 11.7703C34.5723 10.3406 34.9414 9.2312 35.6797 8.44214C36.418 7.64917 37.3887 7.25269 38.5918 7.25269C39.6426 7.25269 40.4961 7.56323 41.1523 8.18433C41.543 8.55151 41.8359 9.07886 42.0312 9.76636L40.3145 10.1765C40.2129 9.7312 40 9.37964 39.6758 9.12183C39.3555 8.86401 38.9648 8.73511 38.5039 8.73511C37.8672 8.73511 37.3496 8.96362 36.9512 9.42065C36.5566 9.87769 36.3594 10.6179 36.3594 11.6414C36.3594 12.7273 36.5547 13.5007 36.9453 13.9617C37.3359 14.4226 37.8438 14.6531 38.4688 14.6531C38.9297 14.6531 39.3262 14.5066 39.6582 14.2136C39.9902 13.9207 40.2285 13.4597 40.373 12.8308Z" fill="white"/>
<defs>
<linearGradient id="paint0_linear_36_1575" x1="26" y1="1.98901" x2="26" y2="21.989" gradientUnits="userSpaceOnUse">
<stop stop-color="#E23FB0"/>
<stop offset="1" stop-color="#A0C622"/>
</linearGradient>
</defs>
</svg>
