<svg width="52" height="24" viewBox="0 0 52 24" fill="none" xmlns="http://www.w3.org/2000/svg">
<rect x="2" y="1.98901" width="49" height="20" rx="10" fill="url(#paint0_linear_40_2566)"/>
<rect x="2" y="1.98901" width="49" height="20" rx="10" stroke="#765EB6" stroke-width="3" stroke-linejoin="round"/>
<path d="M10.0293 7.39917H13.1992C13.9141 7.39917 14.459 7.45386 14.834 7.56323C15.3379 7.71167 15.7695 7.97534 16.1289 8.35425C16.4883 8.73315 16.7617 9.198 16.9492 9.74878C17.1367 10.2957 17.2305 10.9714 17.2305 11.7761C17.2305 12.4832 17.1426 13.0925 16.9668 13.6042C16.752 14.2292 16.4453 14.7351 16.0469 15.1218C15.7461 15.4148 15.3398 15.6433 14.8281 15.8074C14.4453 15.9285 13.9336 15.989 13.293 15.989H10.0293V7.39917ZM11.7637 8.85229V14.5417H13.0586C13.543 14.5417 13.8926 14.5144 14.1074 14.4597C14.3887 14.3894 14.6211 14.2703 14.8047 14.1023C14.9922 13.9343 15.1445 13.6589 15.2617 13.2761C15.3789 12.8894 15.4375 12.364 15.4375 11.7C15.4375 11.0359 15.3789 10.5261 15.2617 10.1707C15.1445 9.81519 14.9805 9.53784 14.7695 9.33862C14.5586 9.1394 14.291 9.00464 13.9668 8.93433C13.7246 8.87964 13.25 8.85229 12.543 8.85229H11.7637ZM18.7246 15.989V7.39917H20.4121L23.9277 13.1355V7.39917H25.5391V15.989H23.7988L20.3359 10.3875V15.989H18.7246ZM27.3555 15.989V7.39917H29.9512L31.5098 13.2585L33.0508 7.39917H35.6523V15.989H34.041V9.22729L32.3359 15.989H30.666L28.9668 9.22729V15.989H27.3555ZM39.3086 15.989V8.85229H36.7598V7.39917H43.5859V8.85229H41.043V15.989H39.3086Z" fill="white"/>
<defs>
<linearGradient id="paint0_linear_40_2566" x1="26.5" y1="1.98901" x2="26.5" y2="21.989" gradientUnits="userSpaceOnUse">
<stop stop-color="#765EB6"/>
<stop offset="1" stop-color="#1C96A3"/>
</linearGradient>
</defs>
</svg>
