<svg width="63" height="24" viewBox="0 0 63 24" fill="none" xmlns="http://www.w3.org/2000/svg">
<rect x="2" y="1.98901" width="60" height="20" rx="10" fill="url(#paint0_linear_46_4319)"/>
<rect x="2" y="1.98901" width="60" height="20" rx="10" stroke="#1B597F" stroke-width="3" stroke-linejoin="round"/>
<path d="M10.1328 15.989V7.39917H11.8672V15.989H10.1328ZM20.4395 14.8992C20.8652 15.2039 21.3281 15.446 21.8281 15.6257L21.1895 16.8503C20.9277 16.7722 20.6719 16.6648 20.4219 16.5281C20.3672 16.5007 19.9824 16.2468 19.2676 15.7664C18.7051 16.0125 18.082 16.1355 17.3984 16.1355C16.0781 16.1355 15.043 15.7468 14.293 14.9695C13.5469 14.1921 13.1738 13.1003 13.1738 11.6941C13.1738 10.2917 13.5488 9.2019 14.2988 8.42456C15.0488 7.64331 16.0664 7.25269 17.3516 7.25269C18.625 7.25269 19.6348 7.64331 20.3809 8.42456C21.127 9.2019 21.5 10.2917 21.5 11.6941C21.5 12.4363 21.3965 13.0886 21.1895 13.6511C21.0332 14.0808 20.7832 14.4968 20.4395 14.8992ZM19.0449 13.9207C19.2676 13.6589 19.4336 13.3425 19.543 12.9714C19.6562 12.6003 19.7129 12.1746 19.7129 11.6941C19.7129 10.7019 19.4941 9.96167 19.0566 9.47339C18.6191 8.9812 18.0469 8.73511 17.3398 8.73511C16.6328 8.73511 16.0586 8.9812 15.6172 9.47339C15.1797 9.96558 14.9609 10.7058 14.9609 11.6941C14.9609 12.698 15.1797 13.45 15.6172 13.95C16.0586 14.446 16.6152 14.6941 17.2871 14.6941C17.5371 14.6941 17.7734 14.6531 17.9961 14.571C17.6445 14.3406 17.2871 14.1609 16.9238 14.032L17.4102 13.0417C17.9805 13.2371 18.5254 13.53 19.0449 13.9207ZM26.8613 12.8308V11.3835H30.5996V14.8054C30.2363 15.157 29.709 15.4675 29.0176 15.7371C28.3301 16.0027 27.6328 16.1355 26.9258 16.1355C26.0273 16.1355 25.2441 15.948 24.5762 15.573C23.9082 15.1941 23.4062 14.655 23.0703 13.9558C22.7344 13.2527 22.5664 12.489 22.5664 11.6648C22.5664 10.7703 22.7539 9.97534 23.1289 9.28003C23.5039 8.58472 24.0527 8.05151 24.7754 7.68042C25.3262 7.39526 26.0117 7.25269 26.832 7.25269C27.8984 7.25269 28.7305 7.47729 29.3281 7.92651C29.9297 8.37183 30.3164 8.98901 30.4883 9.77808L28.7656 10.1003C28.6445 9.67847 28.416 9.34644 28.0801 9.10425C27.748 8.85815 27.332 8.73511 26.832 8.73511C26.0742 8.73511 25.4707 8.97534 25.0215 9.45581C24.5762 9.93628 24.3535 10.6492 24.3535 11.5945C24.3535 12.614 24.5801 13.3796 25.0332 13.8914C25.4863 14.3992 26.0801 14.6531 26.8145 14.6531C27.1777 14.6531 27.541 14.5828 27.9043 14.4421C28.2715 14.2976 28.5859 14.1238 28.8477 13.9207V12.8308H26.8613ZM39.9512 15.989H38.0645L37.3145 14.0378H33.8809L33.1719 15.989H31.332L34.6777 7.39917H36.5117L39.9512 15.989ZM36.7578 12.5906L35.5742 9.40308L34.4141 12.5906H36.7578ZM40.877 15.989V7.39917H43.6602C44.7148 7.39917 45.4023 7.44214 45.7227 7.52808C46.2148 7.65698 46.627 7.93823 46.959 8.37183C47.291 8.80151 47.457 9.35815 47.457 10.0417C47.457 10.5691 47.3613 11.0125 47.1699 11.3718C46.9785 11.7312 46.7344 12.0144 46.4375 12.2214C46.1445 12.4246 45.8457 12.5593 45.541 12.6257C45.127 12.7078 44.5273 12.7488 43.7422 12.7488H42.6113V15.989H40.877ZM42.6113 8.85229V11.2898H43.5605C44.2441 11.2898 44.7012 11.2449 44.9316 11.155C45.1621 11.0652 45.3418 10.9246 45.4707 10.7332C45.6035 10.5417 45.6699 10.3191 45.6699 10.0652C45.6699 9.75269 45.5781 9.49487 45.3945 9.29175C45.2109 9.08862 44.9785 8.96167 44.6973 8.91089C44.4902 8.87183 44.0742 8.85229 43.4492 8.85229H42.6113ZM48.2891 14.2136L49.9414 13.9617C50.0117 14.282 50.1543 14.5261 50.3691 14.6941C50.584 14.8582 50.8848 14.9402 51.2715 14.9402C51.6973 14.9402 52.0176 14.8621 52.2324 14.7058C52.377 14.5964 52.4492 14.45 52.4492 14.2664C52.4492 14.1414 52.4102 14.0378 52.332 13.9558C52.25 13.8777 52.0664 13.8054 51.7812 13.739C50.4531 13.446 49.6113 13.1785 49.2559 12.9363C48.7637 12.6003 48.5176 12.1335 48.5176 11.5359C48.5176 10.9968 48.7305 10.5437 49.1562 10.1765C49.582 9.80933 50.2422 9.62573 51.1367 9.62573C51.9883 9.62573 52.6211 9.7644 53.0352 10.0417C53.4492 10.3191 53.7344 10.7292 53.8906 11.2722L52.3379 11.5593C52.2715 11.3171 52.1445 11.1316 51.957 11.0027C51.7734 10.8738 51.5098 10.8093 51.166 10.8093C50.7324 10.8093 50.4219 10.8699 50.2344 10.991C50.1094 11.0769 50.0469 11.1882 50.0469 11.325C50.0469 11.4421 50.1016 11.5417 50.2109 11.6238C50.3594 11.7332 50.8711 11.8875 51.7461 12.0867C52.625 12.2859 53.2383 12.53 53.5859 12.8191C53.9297 13.1121 54.1016 13.5203 54.1016 14.0437C54.1016 14.614 53.8633 15.1042 53.3867 15.5144C52.9102 15.9246 52.2051 16.1296 51.2715 16.1296C50.4238 16.1296 49.752 15.9578 49.2559 15.614C48.7637 15.2703 48.4414 14.8035 48.2891 14.2136Z" fill="white"/>
<defs>
<linearGradient id="paint0_linear_46_4319" x1="32" y1="1.98901" x2="32" y2="21.989" gradientUnits="userSpaceOnUse">
<stop stop-color="#1B597F"/>
<stop offset="1" stop-color="#16959E"/>
</linearGradient>
</defs>
</svg>
