<svg width="51" height="24" viewBox="0 0 51 24" fill="none" xmlns="http://www.w3.org/2000/svg">
<rect x="2" y="1.98901" width="48" height="20" rx="10" fill="url(#paint0_linear_45_4269)"/>
<rect x="2" y="1.98901" width="48" height="20" rx="10" stroke="#8A3B8A" stroke-width="3" stroke-linejoin="round"/>
<path d="M14.1875 12.8308V11.3835H17.9258V14.8054C17.5625 15.157 17.0352 15.4675 16.3438 15.7371C15.6562 16.0027 14.959 16.1355 14.252 16.1355C13.3535 16.1355 12.5703 15.948 11.9023 15.573C11.2344 15.1941 10.7324 14.655 10.3965 13.9558C10.0605 13.2527 9.89258 12.489 9.89258 11.6648C9.89258 10.7703 10.0801 9.97534 10.4551 9.28003C10.8301 8.58472 11.3789 8.05151 12.1016 7.68042C12.6523 7.39526 13.3379 7.25269 14.1582 7.25269C15.2246 7.25269 16.0566 7.47729 16.6543 7.92651C17.2559 8.37183 17.6426 8.98901 17.8145 9.77808L16.0918 10.1003C15.9707 9.67847 15.7422 9.34644 15.4062 9.10425C15.0742 8.85815 14.6582 8.73511 14.1582 8.73511C13.4004 8.73511 12.7969 8.97534 12.3477 9.45581C11.9023 9.93628 11.6797 10.6492 11.6797 11.5945C11.6797 12.614 11.9062 13.3796 12.3594 13.8914C12.8125 14.3992 13.4062 14.6531 14.1406 14.6531C14.5039 14.6531 14.8672 14.5828 15.2305 14.4421C15.5977 14.2976 15.9121 14.1238 16.1738 13.9207V12.8308H14.1875ZM21.7871 15.989V12.3738L18.6406 7.39917H20.6738L22.6953 10.7976L24.6758 7.39917H26.6738L23.5156 12.3855V15.989H21.7871ZM31.5312 12.8308V11.3835H35.2695V14.8054C34.9062 15.157 34.3789 15.4675 33.6875 15.7371C33 16.0027 32.3027 16.1355 31.5957 16.1355C30.6973 16.1355 29.9141 15.948 29.2461 15.573C28.5781 15.1941 28.0762 14.655 27.7402 13.9558C27.4043 13.2527 27.2363 12.489 27.2363 11.6648C27.2363 10.7703 27.4238 9.97534 27.7988 9.28003C28.1738 8.58472 28.7227 8.05151 29.4453 7.68042C29.9961 7.39526 30.6816 7.25269 31.502 7.25269C32.5684 7.25269 33.4004 7.47729 33.998 7.92651C34.5996 8.37183 34.9863 8.98901 35.1582 9.77808L33.4355 10.1003C33.3145 9.67847 33.0859 9.34644 32.75 9.10425C32.418 8.85815 32.002 8.73511 31.502 8.73511C30.7441 8.73511 30.1406 8.97534 29.6914 9.45581C29.2461 9.93628 29.0234 10.6492 29.0234 11.5945C29.0234 12.614 29.25 13.3796 29.7031 13.8914C30.1562 14.3992 30.75 14.6531 31.4844 14.6531C31.8477 14.6531 32.2109 14.5828 32.5742 14.4421C32.9414 14.2976 33.2559 14.1238 33.5176 13.9207V12.8308H31.5312ZM40.7246 15.989H39.0781V9.78394C38.4766 10.3464 37.7676 10.7625 36.9512 11.032V9.53784C37.3809 9.39722 37.8477 9.13159 38.3516 8.74097C38.8555 8.34644 39.2012 7.88745 39.3887 7.36401H40.7246V15.989Z" fill="white"/>
<defs>
<linearGradient id="paint0_linear_45_4269" x1="26" y1="1.98901" x2="26" y2="21.989" gradientUnits="userSpaceOnUse">
<stop stop-color="#EF3890"/>
<stop offset="1" stop-color="#8A3B8A"/>
</linearGradient>
</defs>
</svg>
