<svg width="49" height="24" viewBox="0 0 49 24" fill="none" xmlns="http://www.w3.org/2000/svg">
<rect x="2" y="1.98901" width="46" height="20" rx="10" fill="url(#paint0_linear_35_1431)"/>
<rect x="2" y="1.98901" width="46" height="20" rx="10" stroke="#8FD5FF" stroke-width="3" stroke-linejoin="round"/>
<path d="M17.7227 15.989H15.8359L15.0859 14.0378H11.6523L10.9434 15.989H9.10352L12.4492 7.39917H14.2832L17.7227 15.989ZM14.5293 12.5906L13.3457 9.40308L12.1855 12.5906H14.5293ZM19.6914 15.989V8.85229H17.1426V7.39917H23.9688V8.85229H21.4258V15.989H19.6914ZM25.0996 15.989V7.39917H28.75C29.668 7.39917 30.334 7.47729 30.748 7.63354C31.166 7.78589 31.5 8.05933 31.75 8.45386C32 8.84839 32.125 9.29956 32.125 9.80737C32.125 10.4519 31.9355 10.9851 31.5566 11.407C31.1777 11.825 30.6113 12.0886 29.8574 12.198C30.2324 12.4167 30.541 12.657 30.7832 12.9187C31.0293 13.1804 31.3594 13.6453 31.7734 14.3132L32.8223 15.989H30.748L29.4941 14.1199C29.0488 13.4519 28.7441 13.032 28.5801 12.8601C28.416 12.6843 28.2422 12.5652 28.0586 12.5027C27.875 12.4363 27.584 12.4031 27.1855 12.4031H26.834V15.989H25.0996ZM26.834 11.032H28.1172C28.9492 11.032 29.4688 10.9968 29.6758 10.9265C29.8828 10.8562 30.0449 10.7351 30.1621 10.5632C30.2793 10.3914 30.3379 10.1765 30.3379 9.9187C30.3379 9.62964 30.2598 9.39722 30.1035 9.22144C29.9512 9.04175 29.7344 8.92847 29.4531 8.88159C29.3125 8.86206 28.8906 8.85229 28.1875 8.85229H26.834V11.032ZM32.8926 15.989L35.8281 11.5066L33.168 7.39917H35.1953L36.918 10.1589L38.6055 7.39917H40.6152L37.9434 11.571L40.8789 15.989H38.7871L36.8828 13.0183L34.9727 15.989H32.8926Z" fill="white"/>
<defs>
<linearGradient id="paint0_linear_35_1431" x1="25" y1="1.98901" x2="25" y2="21.989" gradientUnits="userSpaceOnUse">
<stop stop-color="#8FD5FF"/>
<stop offset="1" stop-color="#3F1741"/>
</linearGradient>
</defs>
</svg>
