<svg width="47" height="24" viewBox="0 0 47 24" fill="none" xmlns="http://www.w3.org/2000/svg">
<rect x="2" y="1.98901" width="44" height="20" rx="10" fill="url(#paint0_linear_46_4313)"/>
<rect x="2" y="1.98901" width="44" height="20" rx="10" stroke="#8F64BA" stroke-width="3" stroke-linejoin="round"/>
<path d="M10.2012 15.989V7.39917H11.9355V10.78H15.334V7.39917H17.0684V15.989H15.334V12.2332H11.9355V15.989H10.2012ZM18.8145 15.989V7.39917H20.5488V15.989H18.8145ZM22.2129 15.989V7.39917H25.8633C26.7812 7.39917 27.4473 7.47729 27.8613 7.63354C28.2793 7.78589 28.6133 8.05933 28.8633 8.45386C29.1133 8.84839 29.2383 9.29956 29.2383 9.80737C29.2383 10.4519 29.0488 10.9851 28.6699 11.407C28.291 11.825 27.7246 12.0886 26.9707 12.198C27.3457 12.4167 27.6543 12.657 27.8965 12.9187C28.1426 13.1804 28.4727 13.6453 28.8867 14.3132L29.9355 15.989H27.8613L26.6074 14.1199C26.1621 13.4519 25.8574 13.032 25.6934 12.8601C25.5293 12.6843 25.3555 12.5652 25.1719 12.5027C24.9883 12.4363 24.6973 12.4031 24.2988 12.4031H23.9473V15.989H22.2129ZM23.9473 11.032H25.2305C26.0625 11.032 26.582 10.9968 26.7891 10.9265C26.9961 10.8562 27.1582 10.7351 27.2754 10.5632C27.3926 10.3914 27.4512 10.1765 27.4512 9.9187C27.4512 9.62964 27.373 9.39722 27.2168 9.22144C27.0645 9.04175 26.8477 8.92847 26.5664 8.88159C26.4258 8.86206 26.0039 8.85229 25.3008 8.85229H23.9473V11.032ZM38.625 15.989H36.7383L35.9883 14.0378H32.5547L31.8457 15.989H30.0059L33.3516 7.39917H35.1855L38.625 15.989ZM35.4316 12.5906L34.248 9.40308L33.0879 12.5906H35.4316Z" fill="white"/>
<defs>
<linearGradient id="paint0_linear_46_4313" x1="24" y1="1.98901" x2="24" y2="21.989" gradientUnits="userSpaceOnUse">
<stop stop-color="#8F64BA"/>
<stop offset="1" stop-color="#70476A"/>
</linearGradient>
</defs>
</svg>
