<svg width="52" height="24" viewBox="0 0 52 24" fill="none" xmlns="http://www.w3.org/2000/svg">
<rect x="2" y="1.98901" width="49" height="20" rx="10" fill="url(#paint0_linear_45_4248)"/>
<rect x="2" y="1.98901" width="49" height="20" rx="10" stroke="#FF9914" stroke-width="3" stroke-linejoin="round"/>
<path d="M14.3594 12.8308V11.3835H18.0977V14.8054C17.7344 15.157 17.207 15.4675 16.5156 15.7371C15.8281 16.0027 15.1309 16.1355 14.4238 16.1355C13.5254 16.1355 12.7422 15.948 12.0742 15.573C11.4062 15.1941 10.9043 14.655 10.5684 13.9558C10.2324 13.2527 10.0645 12.489 10.0645 11.6648C10.0645 10.7703 10.252 9.97534 10.627 9.28003C11.002 8.58472 11.5508 8.05151 12.2734 7.68042C12.8242 7.39526 13.5098 7.25269 14.3301 7.25269C15.3965 7.25269 16.2285 7.47729 16.8262 7.92651C17.4277 8.37183 17.8145 8.98901 17.9863 9.77808L16.2637 10.1003C16.1426 9.67847 15.9141 9.34644 15.5781 9.10425C15.2461 8.85815 14.8301 8.73511 14.3301 8.73511C13.5723 8.73511 12.9688 8.97534 12.5195 9.45581C12.0742 9.93628 11.8516 10.6492 11.8516 11.5945C11.8516 12.614 12.0781 13.3796 12.5312 13.8914C12.9844 14.3992 13.5781 14.6531 14.3125 14.6531C14.6758 14.6531 15.0391 14.5828 15.4023 14.4421C15.7695 14.2976 16.084 14.1238 16.3457 13.9207V12.8308H14.3594ZM19.7207 15.989V7.39917H21.4082L24.9238 13.1355V7.39917H26.5352V15.989H24.7949L21.332 10.3875V15.989H19.7207ZM36.1211 15.989H34.2344L33.4844 14.0378H30.0508L29.3418 15.989H27.502L30.8477 7.39917H32.6816L36.1211 15.989ZM32.9277 12.5906L31.7441 9.40308L30.584 12.5906H32.9277ZM37.0938 15.989V7.46948H38.8281V14.5417H43.1406V15.989H37.0938Z" fill="white"/>
<defs>
<linearGradient id="paint0_linear_45_4248" x1="26.5" y1="1.98901" x2="26.5" y2="21.989" gradientUnits="userSpaceOnUse">
<stop stop-color="#FF9914"/>
<stop offset="1" stop-color="#0000FF"/>
</linearGradient>
</defs>
</svg>
