<svg width="37" height="24" viewBox="0 0 37 24" fill="none" xmlns="http://www.w3.org/2000/svg">
<rect x="2" y="1.98901" width="34" height="20" rx="10" fill="url(#paint0_linear_84_2052)"/>
<rect x="2" y="1.98901" width="34" height="20" rx="10" stroke="#D3AE35" stroke-width="3" stroke-linejoin="round"/>
<path d="M12.1855 7.39917H13.9199V12.0515C13.9199 12.7898 13.9414 13.2683 13.9844 13.4871C14.0586 13.8386 14.2344 14.1218 14.5117 14.3367C14.793 14.5476 15.1758 14.6531 15.6602 14.6531C16.1523 14.6531 16.5234 14.5535 16.7734 14.3542C17.0234 14.1511 17.1738 13.9031 17.2246 13.6101C17.2754 13.3171 17.3008 12.8308 17.3008 12.1511V7.39917H19.0352V11.9109C19.0352 12.9421 18.9883 13.6707 18.8945 14.0964C18.8008 14.5222 18.627 14.8816 18.373 15.1746C18.123 15.4675 17.7871 15.7019 17.3652 15.8777C16.9434 16.0496 16.3926 16.1355 15.7129 16.1355C14.8926 16.1355 14.2695 16.0417 13.8438 15.8542C13.4219 15.6628 13.0879 15.4167 12.8418 15.116C12.5957 14.8113 12.4336 14.4929 12.3555 14.1609C12.2422 13.6687 12.1855 12.9421 12.1855 11.9812V7.39917ZM26.0664 14.4597V15.989H20.2949C20.3574 15.4109 20.5449 14.864 20.8574 14.3484C21.1699 13.8289 21.7871 13.1414 22.709 12.2859C23.4512 11.5945 23.9062 11.1257 24.0742 10.8796C24.3008 10.5398 24.4141 10.2039 24.4141 9.87183C24.4141 9.50464 24.3145 9.22339 24.1152 9.02808C23.9199 8.82886 23.6484 8.72925 23.3008 8.72925C22.957 8.72925 22.6836 8.83276 22.4805 9.03979C22.2773 9.24683 22.1602 9.59058 22.1289 10.071L20.4883 9.90698C20.5859 9.00073 20.8926 8.35034 21.4082 7.95581C21.9238 7.56128 22.5684 7.36401 23.3418 7.36401C24.1895 7.36401 24.8555 7.59253 25.3398 8.04956C25.8242 8.50659 26.0664 9.07495 26.0664 9.75464C26.0664 10.1414 25.9961 10.5105 25.8555 10.8621C25.7188 11.2097 25.5 11.575 25.1992 11.9578C25 12.2117 24.6406 12.5769 24.1211 13.0535C23.6016 13.53 23.2715 13.8464 23.1309 14.0027C22.9941 14.1589 22.8828 14.3113 22.7969 14.4597H26.0664Z" fill="white"/>
<defs>
<linearGradient id="paint0_linear_84_2052" x1="19" y1="1.98901" x2="19" y2="21.989" gradientUnits="userSpaceOnUse">
<stop stop-color="#A78D3A"/>
<stop offset="1" stop-color="#D3AE35"/>
</linearGradient>
</defs>
</svg>
