<svg width="61" height="66" viewBox="0 0 61 66" fill="none" xmlns="http://www.w3.org/2000/svg">
<path d="M31.3204 52.3957H9.67943C4.47663 52.3957 0.259033 48.178 0.259033 42.9753C0.259033 37.7726 4.47663 33.5549 9.67943 33.5549H31.3204C36.5231 33.5549 40.7408 37.7725 40.7408 42.9753C40.7408 48.178 36.5231 52.3957 31.3204 52.3957Z" fill="url(#paint0_linear_90_4525)"/>
<path d="M31.3204 52.3957H9.67943C4.47663 52.3957 0.259033 48.178 0.259033 42.9753C0.259033 37.7726 4.47663 33.5549 9.67943 33.5549H31.3204C36.5231 33.5549 40.7408 37.7725 40.7408 42.9753C40.7408 48.178 36.5231 52.3957 31.3204 52.3957Z" fill="url(#paint1_radial_90_4525)"/>
<path d="M31.3204 33.5549H9.67943C4.47663 33.5549 0.259033 29.3373 0.259033 24.1345C0.259033 18.9318 4.47663 14.7141 9.67943 14.7141H31.3204C36.5231 14.7141 40.7408 18.9317 40.7408 24.1345C40.7408 29.3373 36.5231 33.5549 31.3204 33.5549Z" fill="url(#paint2_linear_90_4525)"/>
<path d="M31.3204 33.5549H9.67943C4.47663 33.5549 0.259033 29.3373 0.259033 24.1345C0.259033 18.9318 4.47663 14.7141 9.67943 14.7141H31.3204C36.5231 14.7141 40.7408 18.9317 40.7408 24.1345C40.7408 29.3373 36.5231 33.5549 31.3204 33.5549Z" fill="url(#paint3_radial_90_4525)"/>
<path d="M40.7408 24.1345C40.7408 18.9317 36.5231 14.7141 31.3204 14.7141H9.67943C4.47673 14.7141 0.259033 18.9318 0.259033 24.1345C0.259033 29.3372 4.47673 33.5549 9.67933 33.5549C4.47673 33.5549 0.259033 37.7725 0.259033 42.9752C0.259033 48.1779 4.47673 52.3956 9.67933 52.3956H31.3204C36.5231 52.3956 40.7408 48.1779 40.7408 42.9753C40.7408 37.7726 40.7408 29.3372 40.7408 24.1345Z" fill="url(#paint4_radial_90_4525)"/>
<path d="M41.321 19.1406H19.68C14.4773 19.1406 10.2596 14.923 10.2596 9.7202C10.2596 4.5174 14.4773 0.299805 19.68 0.299805H41.321C46.5237 0.299805 50.7414 4.5174 50.7414 9.7202C50.7414 14.9229 46.5238 19.1406 41.321 19.1406Z" fill="url(#paint5_linear_90_4525)"/>
<path d="M41.321 19.1406H19.68C14.4773 19.1406 10.2596 14.923 10.2596 9.7202C10.2596 4.5174 14.4773 0.299805 19.68 0.299805H41.321C46.5237 0.299805 50.7414 4.5174 50.7414 9.7202C50.7414 14.9229 46.5238 19.1406 41.321 19.1406Z" fill="url(#paint6_radial_90_4525)"/>
<path d="M41.321 65.9763H19.68C14.4773 65.9763 10.2596 61.7587 10.2596 56.5559C10.2596 51.3532 14.4772 47.1355 19.68 47.1355H41.321C46.5237 47.1355 50.7414 51.3531 50.7414 56.5559C50.7414 61.7587 46.5238 65.9763 41.321 65.9763Z" fill="url(#paint7_linear_90_4525)"/>
<path d="M41.321 65.9763H19.68C14.4773 65.9763 10.2596 61.7587 10.2596 56.5559C10.2596 51.3532 14.4772 47.1355 19.68 47.1355H41.321C46.5237 47.1355 50.7414 51.3531 50.7414 56.5559C50.7414 61.7587 46.5238 65.9763 41.321 65.9763Z" fill="url(#paint8_radial_90_4525)"/>
<path d="M51.3218 33.5549H29.6808C24.4781 33.5549 20.2604 29.3373 20.2604 24.1345C20.2604 18.9318 24.478 14.7141 29.6808 14.7141H51.3218C56.5245 14.7141 60.7422 18.9317 60.7422 24.1345C60.7421 29.3373 56.5245 33.5549 51.3218 33.5549Z" fill="url(#paint9_linear_90_4525)"/>
<path d="M51.3218 33.5549H29.6808C24.4781 33.5549 20.2604 29.3373 20.2604 24.1345C20.2604 18.9318 24.478 14.7141 29.6808 14.7141H51.3218C56.5245 14.7141 60.7422 18.9317 60.7422 24.1345C60.7421 29.3373 56.5245 33.5549 51.3218 33.5549Z" fill="url(#paint10_radial_90_4525)"/>
<path d="M51.3218 52.3957H29.6808C24.4781 52.3957 20.2604 48.1781 20.2604 42.9753C20.2604 37.7726 24.478 33.5549 29.6808 33.5549H51.3218C56.5245 33.5549 60.7422 37.7725 60.7422 42.9753C60.7421 48.178 56.5245 52.3957 51.3218 52.3957Z" fill="url(#paint11_linear_90_4525)"/>
<path d="M51.3218 52.3957H29.6808C24.4781 52.3957 20.2604 48.1781 20.2604 42.9753C20.2604 37.7726 24.478 33.5549 29.6808 33.5549H51.3218C56.5245 33.5549 60.7422 37.7725 60.7422 42.9753C60.7421 48.178 56.5245 52.3957 51.3218 52.3957Z" fill="url(#paint12_radial_90_4525)"/>
<defs>
<linearGradient id="paint0_linear_90_4525" x1="20.4999" y1="52.3957" x2="20.4999" y2="33.555" gradientUnits="userSpaceOnUse">
<stop stop-color="#4B2A11"/>
<stop offset="0.0048" stop-color="#4E2E15"/>
<stop offset="0.0766" stop-color="#7D6345"/>
<stop offset="0.1492" stop-color="#A59170"/>
<stop offset="0.2213" stop-color="#C5B792"/>
<stop offset="0.2928" stop-color="#DFD4AD"/>
<stop offset="0.3634" stop-color="#F1E8C0"/>
<stop offset="0.433" stop-color="#FBF5CB"/>
<stop offset="0.5" stop-color="#FFF9CF"/>
<stop offset="0.567" stop-color="#FBF5CB"/>
<stop offset="0.6366" stop-color="#F1E8C0"/>
<stop offset="0.7072" stop-color="#DFD4AD"/>
<stop offset="0.7787" stop-color="#C5B792"/>
<stop offset="0.8508" stop-color="#A59170"/>
<stop offset="0.9234" stop-color="#7D6345"/>
<stop offset="0.9952" stop-color="#4E2E15"/>
<stop offset="1" stop-color="#4B2A11"/>
</linearGradient>
<radialGradient id="paint1_radial_90_4525" cx="0" cy="0" r="1" gradientUnits="userSpaceOnUse" gradientTransform="translate(20.4999 42.9752) scale(20.957 16.1348)">
<stop offset="0.2367" stop-color="#FFF9CF" stop-opacity="0"/>
<stop offset="0.3432" stop-color="#FCF5CB" stop-opacity="0.1395"/>
<stop offset="0.4495" stop-color="#F1E9C0" stop-opacity="0.2789"/>
<stop offset="0.5558" stop-color="#E0D5AE" stop-opacity="0.4181"/>
<stop offset="0.6622" stop-color="#C7B994" stop-opacity="0.5575"/>
<stop offset="0.7687" stop-color="#A89573" stop-opacity="0.697"/>
<stop offset="0.8753" stop-color="#81684A" stop-opacity="0.8367"/>
<stop offset="0.9801" stop-color="#54351B" stop-opacity="0.974"/>
<stop offset="1" stop-color="#4B2A11"/>
</radialGradient>
<linearGradient id="paint2_linear_90_4525" x1="20.4999" y1="33.5549" x2="20.4999" y2="14.7142" gradientUnits="userSpaceOnUse">
<stop stop-color="#4B2A11"/>
<stop offset="0.0048" stop-color="#4E2E15"/>
<stop offset="0.0766" stop-color="#7D6345"/>
<stop offset="0.1492" stop-color="#A59170"/>
<stop offset="0.2213" stop-color="#C5B792"/>
<stop offset="0.2928" stop-color="#DFD4AD"/>
<stop offset="0.3634" stop-color="#F1E8C0"/>
<stop offset="0.433" stop-color="#FBF5CB"/>
<stop offset="0.5" stop-color="#FFF9CF"/>
<stop offset="0.567" stop-color="#FBF5CB"/>
<stop offset="0.6366" stop-color="#F1E8C0"/>
<stop offset="0.7072" stop-color="#DFD4AD"/>
<stop offset="0.7787" stop-color="#C5B792"/>
<stop offset="0.8508" stop-color="#A59170"/>
<stop offset="0.9234" stop-color="#7D6345"/>
<stop offset="0.9952" stop-color="#4E2E15"/>
<stop offset="1" stop-color="#4B2A11"/>
</linearGradient>
<radialGradient id="paint3_radial_90_4525" cx="0" cy="0" r="1" gradientUnits="userSpaceOnUse" gradientTransform="translate(20.4999 24.1344) scale(20.957 16.1348)">
<stop offset="0.2367" stop-color="#FFF9CF" stop-opacity="0"/>
<stop offset="0.3432" stop-color="#FCF5CB" stop-opacity="0.1395"/>
<stop offset="0.4495" stop-color="#F1E9C0" stop-opacity="0.2789"/>
<stop offset="0.5558" stop-color="#E0D5AE" stop-opacity="0.4181"/>
<stop offset="0.6622" stop-color="#C7B994" stop-opacity="0.5575"/>
<stop offset="0.7687" stop-color="#A89573" stop-opacity="0.697"/>
<stop offset="0.8753" stop-color="#81684A" stop-opacity="0.8367"/>
<stop offset="0.9801" stop-color="#54351B" stop-opacity="0.974"/>
<stop offset="1" stop-color="#4B2A11"/>
</radialGradient>
<radialGradient id="paint4_radial_90_4525" cx="0" cy="0" r="1" gradientUnits="userSpaceOnUse" gradientTransform="translate(2.55193 36.4469) scale(25.9573 40.8776)">
<stop offset="0.2997" stop-color="#4B2A11" stop-opacity="0"/>
<stop offset="0.8002" stop-color="#4B2A11"/>
</radialGradient>
<linearGradient id="paint5_linear_90_4525" x1="30.5005" y1="19.1406" x2="30.5005" y2="0.299906" gradientUnits="userSpaceOnUse">
<stop stop-color="#4B2A11"/>
<stop offset="0.0048" stop-color="#4E2E15"/>
<stop offset="0.0766" stop-color="#7D6345"/>
<stop offset="0.1492" stop-color="#A59170"/>
<stop offset="0.2213" stop-color="#C5B792"/>
<stop offset="0.2928" stop-color="#DFD4AD"/>
<stop offset="0.3634" stop-color="#F1E8C0"/>
<stop offset="0.433" stop-color="#FBF5CB"/>
<stop offset="0.5" stop-color="#FFF9CF"/>
<stop offset="0.567" stop-color="#FBF5CB"/>
<stop offset="0.6366" stop-color="#F1E8C0"/>
<stop offset="0.7072" stop-color="#DFD4AD"/>
<stop offset="0.7787" stop-color="#C5B792"/>
<stop offset="0.8508" stop-color="#A59170"/>
<stop offset="0.9234" stop-color="#7D6345"/>
<stop offset="0.9952" stop-color="#4E2E15"/>
<stop offset="1" stop-color="#4B2A11"/>
</linearGradient>
<radialGradient id="paint6_radial_90_4525" cx="0" cy="0" r="1" gradientUnits="userSpaceOnUse" gradientTransform="translate(30.5005 9.72007) scale(20.957 16.1348)">
<stop offset="0.2367" stop-color="#FFF9CF" stop-opacity="0"/>
<stop offset="0.3432" stop-color="#FCF5CB" stop-opacity="0.1395"/>
<stop offset="0.4495" stop-color="#F1E9C0" stop-opacity="0.2789"/>
<stop offset="0.5558" stop-color="#E0D5AE" stop-opacity="0.4181"/>
<stop offset="0.6622" stop-color="#C7B994" stop-opacity="0.5575"/>
<stop offset="0.7687" stop-color="#A89573" stop-opacity="0.697"/>
<stop offset="0.8753" stop-color="#81684A" stop-opacity="0.8367"/>
<stop offset="0.9801" stop-color="#54351B" stop-opacity="0.974"/>
<stop offset="1" stop-color="#4B2A11"/>
</radialGradient>
<linearGradient id="paint7_linear_90_4525" x1="30.5005" y1="65.9763" x2="30.5005" y2="47.1356" gradientUnits="userSpaceOnUse">
<stop stop-color="#4B2A11"/>
<stop offset="0.0048" stop-color="#4E2E15"/>
<stop offset="0.0766" stop-color="#7D6345"/>
<stop offset="0.1492" stop-color="#A59170"/>
<stop offset="0.2213" stop-color="#C5B792"/>
<stop offset="0.2928" stop-color="#DFD4AD"/>
<stop offset="0.3634" stop-color="#F1E8C0"/>
<stop offset="0.433" stop-color="#FBF5CB"/>
<stop offset="0.5" stop-color="#FFF9CF"/>
<stop offset="0.567" stop-color="#FBF5CB"/>
<stop offset="0.6366" stop-color="#F1E8C0"/>
<stop offset="0.7072" stop-color="#DFD4AD"/>
<stop offset="0.7787" stop-color="#C5B792"/>
<stop offset="0.8508" stop-color="#A59170"/>
<stop offset="0.9234" stop-color="#7D6345"/>
<stop offset="0.9952" stop-color="#4E2E15"/>
<stop offset="1" stop-color="#4B2A11"/>
</linearGradient>
<radialGradient id="paint8_radial_90_4525" cx="0" cy="0" r="1" gradientUnits="userSpaceOnUse" gradientTransform="translate(30.5005 56.5558) scale(20.957 16.1348)">
<stop offset="0.2367" stop-color="#FFF9CF" stop-opacity="0"/>
<stop offset="0.3432" stop-color="#FCF5CB" stop-opacity="0.1395"/>
<stop offset="0.4495" stop-color="#F1E9C0" stop-opacity="0.2789"/>
<stop offset="0.5558" stop-color="#E0D5AE" stop-opacity="0.4181"/>
<stop offset="0.6622" stop-color="#C7B994" stop-opacity="0.5575"/>
<stop offset="0.7687" stop-color="#A89573" stop-opacity="0.697"/>
<stop offset="0.8753" stop-color="#81684A" stop-opacity="0.8367"/>
<stop offset="0.9801" stop-color="#54351B" stop-opacity="0.974"/>
<stop offset="1" stop-color="#4B2A11"/>
</radialGradient>
<linearGradient id="paint9_linear_90_4525" x1="40.5013" y1="33.5549" x2="40.5013" y2="14.7142" gradientUnits="userSpaceOnUse">
<stop stop-color="#4B2A11"/>
<stop offset="0.0048" stop-color="#4E2E15"/>
<stop offset="0.0766" stop-color="#7D6345"/>
<stop offset="0.1492" stop-color="#A59170"/>
<stop offset="0.2213" stop-color="#C5B792"/>
<stop offset="0.2928" stop-color="#DFD4AD"/>
<stop offset="0.3634" stop-color="#F1E8C0"/>
<stop offset="0.433" stop-color="#FBF5CB"/>
<stop offset="0.5" stop-color="#FFF9CF"/>
<stop offset="0.567" stop-color="#FBF5CB"/>
<stop offset="0.6366" stop-color="#F1E8C0"/>
<stop offset="0.7072" stop-color="#DFD4AD"/>
<stop offset="0.7787" stop-color="#C5B792"/>
<stop offset="0.8508" stop-color="#A59170"/>
<stop offset="0.9234" stop-color="#7D6345"/>
<stop offset="0.9952" stop-color="#4E2E15"/>
<stop offset="1" stop-color="#4B2A11"/>
</linearGradient>
<radialGradient id="paint10_radial_90_4525" cx="0" cy="0" r="1" gradientUnits="userSpaceOnUse" gradientTransform="translate(40.5013 24.1344) scale(20.957 16.1348)">
<stop offset="0.2367" stop-color="#FFF9CF" stop-opacity="0"/>
<stop offset="0.3432" stop-color="#FCF5CB" stop-opacity="0.1395"/>
<stop offset="0.4495" stop-color="#F1E9C0" stop-opacity="0.2789"/>
<stop offset="0.5558" stop-color="#E0D5AE" stop-opacity="0.4181"/>
<stop offset="0.6622" stop-color="#C7B994" stop-opacity="0.5575"/>
<stop offset="0.7687" stop-color="#A89573" stop-opacity="0.697"/>
<stop offset="0.8753" stop-color="#81684A" stop-opacity="0.8367"/>
<stop offset="0.9801" stop-color="#54351B" stop-opacity="0.974"/>
<stop offset="1" stop-color="#4B2A11"/>
</radialGradient>
<linearGradient id="paint11_linear_90_4525" x1="40.5013" y1="52.3957" x2="40.5013" y2="33.555" gradientUnits="userSpaceOnUse">
<stop stop-color="#4B2A11"/>
<stop offset="0.0048" stop-color="#4E2E15"/>
<stop offset="0.0766" stop-color="#7D6345"/>
<stop offset="0.1492" stop-color="#A59170"/>
<stop offset="0.2213" stop-color="#C5B792"/>
<stop offset="0.2928" stop-color="#DFD4AD"/>
<stop offset="0.3634" stop-color="#F1E8C0"/>
<stop offset="0.433" stop-color="#FBF5CB"/>
<stop offset="0.5" stop-color="#FFF9CF"/>
<stop offset="0.567" stop-color="#FBF5CB"/>
<stop offset="0.6366" stop-color="#F1E8C0"/>
<stop offset="0.7072" stop-color="#DFD4AD"/>
<stop offset="0.7787" stop-color="#C5B792"/>
<stop offset="0.8508" stop-color="#A59170"/>
<stop offset="0.9234" stop-color="#7D6345"/>
<stop offset="0.9952" stop-color="#4E2E15"/>
<stop offset="1" stop-color="#4B2A11"/>
</linearGradient>
<radialGradient id="paint12_radial_90_4525" cx="0" cy="0" r="1" gradientUnits="userSpaceOnUse" gradientTransform="translate(40.5013 42.9752) scale(20.957 16.1348)">
<stop offset="0.2367" stop-color="#FFF9CF" stop-opacity="0"/>
<stop offset="0.3432" stop-color="#FCF5CB" stop-opacity="0.1395"/>
<stop offset="0.4495" stop-color="#F1E9C0" stop-opacity="0.2789"/>
<stop offset="0.5558" stop-color="#E0D5AE" stop-opacity="0.4181"/>
<stop offset="0.6622" stop-color="#C7B994" stop-opacity="0.5575"/>
<stop offset="0.7687" stop-color="#A89573" stop-opacity="0.697"/>
<stop offset="0.8753" stop-color="#81684A" stop-opacity="0.8367"/>
<stop offset="0.9801" stop-color="#54351B" stop-opacity="0.974"/>
<stop offset="1" stop-color="#4B2A11"/>
</radialGradient>
</defs>
</svg>
