<svg width="78" height="24" viewBox="0 0 78 24" fill="none" xmlns="http://www.w3.org/2000/svg">
<rect x="1" y="1.98901" width="76" height="20" rx="10" fill="url(#paint0_linear_67_1873)"/>
<rect x="1" y="1.98901" width="76" height="20" rx="10" stroke="#1C474A" stroke-width="3" stroke-linejoin="round"/>
<path d="M9.1875 15.989V7.39917H12.8379C13.7559 7.39917 14.4219 7.47729 14.8359 7.63354C15.2539 7.78589 15.5879 8.05933 15.8379 8.45386C16.0879 8.84839 16.2129 9.29956 16.2129 9.80737C16.2129 10.4519 16.0234 10.9851 15.6445 11.407C15.2656 11.825 14.6992 12.0886 13.9453 12.198C14.3203 12.4167 14.6289 12.657 14.8711 12.9187C15.1172 13.1804 15.4473 13.6453 15.8613 14.3132L16.9102 15.989H14.8359L13.582 14.1199C13.1367 13.4519 12.832 13.032 12.668 12.8601C12.5039 12.6843 12.3301 12.5652 12.1465 12.5027C11.9629 12.4363 11.6719 12.4031 11.2734 12.4031H10.9219V15.989H9.1875ZM10.9219 11.032H12.2051C13.0371 11.032 13.5566 10.9968 13.7637 10.9265C13.9707 10.8562 14.1328 10.7351 14.25 10.5632C14.3672 10.3914 14.4258 10.1765 14.4258 9.9187C14.4258 9.62964 14.3477 9.39722 14.1914 9.22144C14.0391 9.04175 13.8223 8.92847 13.541 8.88159C13.4004 8.86206 12.9785 8.85229 12.2754 8.85229H10.9219V11.032ZM17.8594 15.989V7.39917H19.5938V10.78H22.9922V7.39917H24.7266V15.989H22.9922V12.2332H19.5938V15.989H17.8594ZM26.1738 11.7468C26.1738 10.8718 26.3047 10.1375 26.5664 9.5437C26.7617 9.1062 27.0273 8.71362 27.3633 8.36597C27.7031 8.01831 28.0742 7.7605 28.4766 7.59253C29.0117 7.36597 29.6289 7.25269 30.3281 7.25269C31.5938 7.25269 32.6055 7.64526 33.3633 8.43042C34.125 9.21558 34.5059 10.3074 34.5059 11.7058C34.5059 13.0925 34.1289 14.1785 33.375 14.9636C32.6211 15.7449 31.6133 16.1355 30.3516 16.1355C29.0742 16.1355 28.0586 15.7468 27.3047 14.9695C26.5508 14.1882 26.1738 13.114 26.1738 11.7468ZM27.9609 11.6882C27.9609 12.6609 28.1855 13.3992 28.6348 13.9031C29.084 14.4031 29.6543 14.6531 30.3457 14.6531C31.0371 14.6531 31.6035 14.405 32.0449 13.9089C32.4902 13.4089 32.7129 12.6609 32.7129 11.6648C32.7129 10.6804 32.4961 9.94604 32.0625 9.46167C31.6328 8.97729 31.0605 8.73511 30.3457 8.73511C29.6309 8.73511 29.0547 8.9812 28.6172 9.47339C28.1797 9.96167 27.9609 10.7 27.9609 11.6882ZM43.2012 12.8308V11.3835H46.9395V14.8054C46.5762 15.157 46.0488 15.4675 45.3574 15.7371C44.6699 16.0027 43.9727 16.1355 43.2656 16.1355C42.3672 16.1355 41.584 15.948 40.916 15.573C40.248 15.1941 39.7461 14.655 39.4102 13.9558C39.0742 13.2527 38.9062 12.489 38.9062 11.6648C38.9062 10.7703 39.0938 9.97534 39.4688 9.28003C39.8438 8.58472 40.3926 8.05151 41.1152 7.68042C41.666 7.39526 42.3516 7.25269 43.1719 7.25269C44.2383 7.25269 45.0703 7.47729 45.668 7.92651C46.2695 8.37183 46.6562 8.98901 46.8281 9.77808L45.1055 10.1003C44.9844 9.67847 44.7559 9.34644 44.4199 9.10425C44.0879 8.85815 43.6719 8.73511 43.1719 8.73511C42.4141 8.73511 41.8105 8.97534 41.3613 9.45581C40.916 9.93628 40.6934 10.6492 40.6934 11.5945C40.6934 12.614 40.9199 13.3796 41.373 13.8914C41.8262 14.3992 42.4199 14.6531 43.1543 14.6531C43.5176 14.6531 43.8809 14.5828 44.2441 14.4421C44.6113 14.2976 44.9258 14.1238 45.1875 13.9207V12.8308H43.2012ZM48.5449 15.989V7.39917H54.9141V8.85229H50.2793V10.7566H54.5918V12.2039H50.2793V14.5417H55.0781V15.989H48.5449ZM56.5605 15.989V7.39917H62.4492V8.85229H58.2949V10.8855H61.8809V12.3386H58.2949V15.989H56.5605ZM63.293 14.2136L64.9453 13.9617C65.0156 14.282 65.1582 14.5261 65.373 14.6941C65.5879 14.8582 65.8887 14.9402 66.2754 14.9402C66.7012 14.9402 67.0215 14.8621 67.2363 14.7058C67.3809 14.5964 67.4531 14.45 67.4531 14.2664C67.4531 14.1414 67.4141 14.0378 67.3359 13.9558C67.2539 13.8777 67.0703 13.8054 66.7852 13.739C65.457 13.446 64.6152 13.1785 64.2598 12.9363C63.7676 12.6003 63.5215 12.1335 63.5215 11.5359C63.5215 10.9968 63.7344 10.5437 64.1602 10.1765C64.5859 9.80933 65.2461 9.62573 66.1406 9.62573C66.9922 9.62573 67.625 9.7644 68.0391 10.0417C68.4531 10.3191 68.7383 10.7292 68.8945 11.2722L67.3418 11.5593C67.2754 11.3171 67.1484 11.1316 66.9609 11.0027C66.7773 10.8738 66.5137 10.8093 66.1699 10.8093C65.7363 10.8093 65.4258 10.8699 65.2383 10.991C65.1133 11.0769 65.0508 11.1882 65.0508 11.325C65.0508 11.4421 65.1055 11.5417 65.2148 11.6238C65.3633 11.7332 65.875 11.8875 66.75 12.0867C67.6289 12.2859 68.2422 12.53 68.5898 12.8191C68.9336 13.1121 69.1055 13.5203 69.1055 14.0437C69.1055 14.614 68.8672 15.1042 68.3906 15.5144C67.9141 15.9246 67.209 16.1296 66.2754 16.1296C65.4277 16.1296 64.7559 15.9578 64.2598 15.614C63.7676 15.2703 63.4453 14.8035 63.293 14.2136Z" fill="white"/>
<defs>
<linearGradient id="paint0_linear_67_1873" x1="39" y1="1.98901" x2="39" y2="21.989" gradientUnits="userSpaceOnUse">
<stop stop-color="#536BD5"/>
<stop offset="1" stop-color="#1C474A"/>
</linearGradient>
</defs>
</svg>
