<svg width="65" height="24" viewBox="0 0 65 24" fill="none" xmlns="http://www.w3.org/2000/svg">
<rect x="2" y="1.98901" width="62" height="20" rx="10" fill="url(#paint0_linear_42_2654)"/>
<rect x="2" y="1.98901" width="62" height="20" rx="10" stroke="#2A3ED1" stroke-width="3" stroke-linejoin="round"/>
<path d="M10.1953 15.989V7.39917H16.5645V8.85229H11.9297V10.7566H16.2422V12.2039H11.9297V14.5417H16.7285V15.989H10.1953ZM17.7598 13.1941L19.4473 13.03C19.5488 13.5964 19.7539 14.0125 20.0625 14.2781C20.375 14.5437 20.7949 14.6765 21.3223 14.6765C21.8809 14.6765 22.3008 14.5593 22.582 14.325C22.8672 14.0867 23.0098 13.8093 23.0098 13.4929C23.0098 13.2898 22.9492 13.1179 22.8281 12.9773C22.7109 12.8328 22.5039 12.7078 22.207 12.6023C22.0039 12.532 21.541 12.407 20.8184 12.2273C19.8887 11.9968 19.2363 11.7136 18.8613 11.3777C18.334 10.905 18.0703 10.3289 18.0703 9.64917C18.0703 9.21167 18.1934 8.80347 18.4395 8.42456C18.6895 8.04175 19.0469 7.75073 19.5117 7.55151C19.9805 7.35229 20.5449 7.25269 21.2051 7.25269C22.2832 7.25269 23.0938 7.48901 23.6367 7.96167C24.1836 8.43433 24.4707 9.06519 24.498 9.85425L22.7637 9.93042C22.6895 9.48901 22.5293 9.17261 22.2832 8.9812C22.041 8.78589 21.6758 8.68823 21.1875 8.68823C20.6836 8.68823 20.2891 8.79175 20.0039 8.99878C19.8203 9.13159 19.7285 9.30933 19.7285 9.53198C19.7285 9.73511 19.8145 9.90894 19.9863 10.0535C20.2051 10.2371 20.7363 10.4285 21.5801 10.6277C22.4238 10.8269 23.0469 11.0339 23.4492 11.2488C23.8555 11.4597 24.1719 11.7507 24.3984 12.1218C24.6289 12.489 24.7441 12.9441 24.7441 13.4871C24.7441 13.9792 24.6074 14.4402 24.334 14.8699C24.0605 15.2996 23.6738 15.6199 23.1738 15.8308C22.6738 16.0378 22.0508 16.1414 21.3047 16.1414C20.2188 16.1414 19.3848 15.8914 18.8027 15.3914C18.2207 14.8875 17.873 14.155 17.7598 13.1941ZM31.6992 12.8308L33.3809 13.364C33.123 14.3015 32.6934 14.9988 32.0918 15.4558C31.4941 15.9089 30.7344 16.1355 29.8125 16.1355C28.6719 16.1355 27.7344 15.7468 27 14.9695C26.2656 14.1882 25.8984 13.1218 25.8984 11.7703C25.8984 10.3406 26.2676 9.2312 27.0059 8.44214C27.7441 7.64917 28.7148 7.25269 29.918 7.25269C30.9688 7.25269 31.8223 7.56323 32.4785 8.18433C32.8691 8.55151 33.1621 9.07886 33.3574 9.76636L31.6406 10.1765C31.5391 9.7312 31.3262 9.37964 31.002 9.12183C30.6816 8.86401 30.291 8.73511 29.8301 8.73511C29.1934 8.73511 28.6758 8.96362 28.2773 9.42065C27.8828 9.87769 27.6855 10.6179 27.6855 11.6414C27.6855 12.7273 27.8809 13.5007 28.2715 13.9617C28.6621 14.4226 29.1699 14.6531 29.7949 14.6531C30.2559 14.6531 30.6523 14.5066 30.9844 14.2136C31.3164 13.9207 31.5547 13.4597 31.6992 12.8308ZM34.8809 15.989V7.39917H38.5312C39.4492 7.39917 40.1152 7.47729 40.5293 7.63354C40.9473 7.78589 41.2812 8.05933 41.5312 8.45386C41.7812 8.84839 41.9062 9.29956 41.9062 9.80737C41.9062 10.4519 41.7168 10.9851 41.3379 11.407C40.959 11.825 40.3926 12.0886 39.6387 12.198C40.0137 12.4167 40.3223 12.657 40.5645 12.9187C40.8105 13.1804 41.1406 13.6453 41.5547 14.3132L42.6035 15.989H40.5293L39.2754 14.1199C38.8301 13.4519 38.5254 13.032 38.3613 12.8601C38.1973 12.6843 38.0234 12.5652 37.8398 12.5027C37.6562 12.4363 37.3652 12.4031 36.9668 12.4031H36.6152V15.989H34.8809ZM36.6152 11.032H37.8984C38.7305 11.032 39.25 10.9968 39.457 10.9265C39.6641 10.8562 39.8262 10.7351 39.9434 10.5632C40.0605 10.3914 40.1191 10.1765 40.1191 9.9187C40.1191 9.62964 40.041 9.39722 39.8848 9.22144C39.7324 9.04175 39.5156 8.92847 39.2344 8.88159C39.0938 8.86206 38.6719 8.85229 37.9688 8.85229H36.6152V11.032ZM45.4805 15.989V8.85229H42.9316V7.39917H49.7578V8.85229H47.2148V15.989H45.4805ZM50.0156 13.698V12.0515H53.25V13.698H50.0156ZM54.1582 15.989V7.39917H55.8926V15.989H54.1582Z" fill="white"/>
<defs>
<linearGradient id="paint0_linear_42_2654" x1="33" y1="1.98901" x2="33" y2="21.989" gradientUnits="userSpaceOnUse">
<stop stop-color="#2A3ED1"/>
<stop offset="1" stop-color="#00FFD5"/>
</linearGradient>
</defs>
</svg>
