<svg width="69" height="36" viewBox="0 0 69 36" fill="none" xmlns="http://www.w3.org/2000/svg">
<rect x="2" y="1.98901" width="66" height="32" rx="10" fill="url(#paint0_linear_37_1795)"/>
<rect x="2" y="1.98901" width="66" height="32" rx="10" stroke="#21004A" stroke-width="3" stroke-linejoin="round"/>
<path d="M15.6875 11.8308L17.3691 12.364C17.1113 13.3015 16.6816 13.9988 16.0801 14.4558C15.4824 14.9089 14.7227 15.1355 13.8008 15.1355C12.6602 15.1355 11.7227 14.7468 10.9883 13.9695C10.2539 13.1882 9.88672 12.1218 9.88672 10.7703C9.88672 9.34058 10.2559 8.2312 10.9941 7.44214C11.7324 6.64917 12.7031 6.25269 13.9062 6.25269C14.957 6.25269 15.8105 6.56323 16.4668 7.18433C16.8574 7.55151 17.1504 8.07886 17.3457 8.76636L15.6289 9.17651C15.5273 8.7312 15.3145 8.37964 14.9902 8.12183C14.6699 7.86401 14.2793 7.73511 13.8184 7.73511C13.1816 7.73511 12.6641 7.96362 12.2656 8.42065C11.8711 8.87769 11.6738 9.61792 11.6738 10.6414C11.6738 11.7273 11.8691 12.5007 12.2598 12.9617C12.6504 13.4226 13.1582 13.6531 13.7832 13.6531C14.2441 13.6531 14.6406 13.5066 14.9727 13.2136C15.3047 12.9207 15.543 12.4597 15.6875 11.8308ZM26.6094 14.989H24.7227L23.9727 13.0378H20.5391L19.8301 14.989H17.9902L21.3359 6.39917H23.1699L26.6094 14.989ZM23.416 11.5906L22.2324 8.40308L21.0723 11.5906H23.416ZM27.582 14.989V6.46948H29.3164V13.5417H33.6289V14.989H27.582ZM34.8652 6.39917H38.0352C38.75 6.39917 39.2949 6.45386 39.6699 6.56323C40.1738 6.71167 40.6055 6.97534 40.9648 7.35425C41.3242 7.73315 41.5977 8.198 41.7852 8.74878C41.9727 9.29565 42.0664 9.97144 42.0664 10.7761C42.0664 11.4832 41.9785 12.0925 41.8027 12.6042C41.5879 13.2292 41.2812 13.7351 40.8828 14.1218C40.582 14.4148 40.1758 14.6433 39.6641 14.8074C39.2812 14.9285 38.7695 14.989 38.1289 14.989H34.8652V6.39917ZM36.5996 7.85229V13.5417H37.8945C38.3789 13.5417 38.7285 13.5144 38.9434 13.4597C39.2246 13.3894 39.457 13.2703 39.6406 13.1023C39.8281 12.9343 39.9805 12.6589 40.0977 12.2761C40.2148 11.8894 40.2734 11.364 40.2734 10.7C40.2734 10.0359 40.2148 9.52612 40.0977 9.17065C39.9805 8.81519 39.8164 8.53784 39.6055 8.33862C39.3945 8.1394 39.127 8.00464 38.8027 7.93433C38.5605 7.87964 38.0859 7.85229 37.3789 7.85229H36.5996ZM51.2891 14.989H49.4023L48.6523 13.0378H45.2188L44.5098 14.989H42.6699L46.0156 6.39917H47.8496L51.2891 14.989ZM48.0957 11.5906L46.9121 8.40308L45.752 11.5906H48.0957ZM56.2109 11.8308V10.3835H59.9492V13.8054C59.5859 14.157 59.0586 14.4675 58.3672 14.7371C57.6797 15.0027 56.9824 15.1355 56.2754 15.1355C55.377 15.1355 54.5938 14.948 53.9258 14.573C53.2578 14.1941 52.7559 13.655 52.4199 12.9558C52.084 12.2527 51.916 11.489 51.916 10.6648C51.916 9.77026 52.1035 8.97534 52.4785 8.28003C52.8535 7.58472 53.4023 7.05151 54.125 6.68042C54.6758 6.39526 55.3613 6.25269 56.1816 6.25269C57.248 6.25269 58.0801 6.47729 58.6777 6.92651C59.2793 7.37183 59.666 7.98901 59.8379 8.77808L58.1152 9.10034C57.9941 8.67847 57.7656 8.34644 57.4297 8.10425C57.0977 7.85815 56.6816 7.73511 56.1816 7.73511C55.4238 7.73511 54.8203 7.97534 54.3711 8.45581C53.9258 8.93628 53.7031 9.64917 53.7031 10.5945C53.7031 11.614 53.9297 12.3796 54.3828 12.8914C54.8359 13.3992 55.4297 13.6531 56.1641 13.6531C56.5273 13.6531 56.8906 13.5828 57.2539 13.4421C57.6211 13.2976 57.9355 13.1238 58.1973 12.9207V11.8308H56.2109ZM24.1895 25.8308V24.3835H27.9277V27.8054C27.5645 28.157 27.0371 28.4675 26.3457 28.7371C25.6582 29.0027 24.9609 29.1355 24.2539 29.1355C23.3555 29.1355 22.5723 28.948 21.9043 28.573C21.2363 28.1941 20.7344 27.655 20.3984 26.9558C20.0625 26.2527 19.8945 25.489 19.8945 24.6648C19.8945 23.7703 20.082 22.9753 20.457 22.28C20.832 21.5847 21.3809 21.0515 22.1035 20.6804C22.6543 20.3953 23.3398 20.2527 24.1602 20.2527C25.2266 20.2527 26.0586 20.4773 26.6562 20.9265C27.2578 21.3718 27.6445 21.989 27.8164 22.7781L26.0938 23.1003C25.9727 22.6785 25.7441 22.3464 25.4082 22.1042C25.0762 21.8582 24.6602 21.7351 24.1602 21.7351C23.4023 21.7351 22.7988 21.9753 22.3496 22.4558C21.9043 22.9363 21.6816 23.6492 21.6816 24.5945C21.6816 25.614 21.9082 26.3796 22.3613 26.8914C22.8145 27.3992 23.4082 27.6531 24.1426 27.6531C24.5059 27.6531 24.8691 27.5828 25.2324 27.4421C25.5996 27.2976 25.9141 27.1238 26.1758 26.9207V25.8308H24.1895ZM29.5332 28.989V20.3992H35.9023V21.8523H31.2676V23.7566H35.5801V25.2039H31.2676V27.5417H36.0664V28.989H29.5332ZM37.5488 28.989V20.3992H43.4375V21.8523H39.2832V23.8855H42.8691V25.3386H39.2832V28.989H37.5488ZM44.2812 27.2136L45.9336 26.9617C46.0039 27.282 46.1465 27.5261 46.3613 27.6941C46.5762 27.8582 46.877 27.9402 47.2637 27.9402C47.6895 27.9402 48.0098 27.8621 48.2246 27.7058C48.3691 27.5964 48.4414 27.45 48.4414 27.2664C48.4414 27.1414 48.4023 27.0378 48.3242 26.9558C48.2422 26.8777 48.0586 26.8054 47.7734 26.739C46.4453 26.446 45.6035 26.1785 45.248 25.9363C44.7559 25.6003 44.5098 25.1335 44.5098 24.5359C44.5098 23.9968 44.7227 23.5437 45.1484 23.1765C45.5742 22.8093 46.2344 22.6257 47.1289 22.6257C47.9805 22.6257 48.6133 22.7644 49.0273 23.0417C49.4414 23.3191 49.7266 23.7292 49.8828 24.2722L48.3301 24.5593C48.2637 24.3171 48.1367 24.1316 47.9492 24.0027C47.7656 23.8738 47.502 23.8093 47.1582 23.8093C46.7246 23.8093 46.4141 23.8699 46.2266 23.991C46.1016 24.0769 46.0391 24.1882 46.0391 24.325C46.0391 24.4421 46.0938 24.5417 46.2031 24.6238C46.3516 24.7332 46.8633 24.8875 47.7383 25.0867C48.6172 25.2859 49.2305 25.53 49.5781 25.8191C49.9219 26.1121 50.0938 26.5203 50.0938 27.0437C50.0938 27.614 49.8555 28.1042 49.3789 28.5144C48.9023 28.9246 48.1973 29.1296 47.2637 29.1296C46.416 29.1296 45.7441 28.9578 45.248 28.614C44.7559 28.2703 44.4336 27.8035 44.2812 27.2136Z" fill="white"/>
<defs>
<linearGradient id="paint0_linear_37_1795" x1="35" y1="1.98901" x2="35" y2="33.989" gradientUnits="userSpaceOnUse">
<stop stop-color="#21004A"/>
<stop offset="1" stop-color="#6D1CD1"/>
</linearGradient>
</defs>
</svg>
