<svg width="56" height="24" viewBox="0 0 56 24" fill="none" xmlns="http://www.w3.org/2000/svg">
<rect x="2" y="1.98901" width="53" height="20" rx="10" fill="url(#paint0_linear_84_2041)"/>
<rect x="2" y="1.98901" width="53" height="20" rx="10" stroke="#95A551" stroke-width="3" stroke-linejoin="round"/>
<path d="M11.959 15.989V8.85229H9.41016V7.39917H16.2363V8.85229H13.6934V15.989H11.959ZM17.3672 15.989V7.39917H21.0176C21.9355 7.39917 22.6016 7.47729 23.0156 7.63354C23.4336 7.78589 23.7676 8.05933 24.0176 8.45386C24.2676 8.84839 24.3926 9.29956 24.3926 9.80737C24.3926 10.4519 24.2031 10.9851 23.8242 11.407C23.4453 11.825 22.8789 12.0886 22.125 12.198C22.5 12.4167 22.8086 12.657 23.0508 12.9187C23.2969 13.1804 23.627 13.6453 24.041 14.3132L25.0898 15.989H23.0156L21.7617 14.1199C21.3164 13.4519 21.0117 13.032 20.8477 12.8601C20.6836 12.6843 20.5098 12.5652 20.3262 12.5027C20.1426 12.4363 19.8516 12.4031 19.4531 12.4031H19.1016V15.989H17.3672ZM19.1016 11.032H20.3848C21.2168 11.032 21.7363 10.9968 21.9434 10.9265C22.1504 10.8562 22.3125 10.7351 22.4297 10.5632C22.5469 10.3914 22.6055 10.1765 22.6055 9.9187C22.6055 9.62964 22.5273 9.39722 22.3711 9.22144C22.2188 9.04175 22.002 8.92847 21.7207 8.88159C21.5801 8.86206 21.1582 8.85229 20.4551 8.85229H19.1016V11.032ZM33.7793 15.989H31.8926L31.1426 14.0378H27.709L27 15.989H25.1602L28.5059 7.39917H30.3398L33.7793 15.989ZM30.5859 12.5906L29.4023 9.40308L28.2422 12.5906H30.5859ZM34.7168 15.989V7.39917H40.6055V8.85229H36.4512V10.8855H40.0371V12.3386H36.4512V15.989H34.7168ZM41.6191 13.7097L43.2129 13.5164C43.2637 13.9226 43.4004 14.2332 43.623 14.448C43.8457 14.6628 44.1152 14.7703 44.4316 14.7703C44.7715 14.7703 45.0566 14.6414 45.2871 14.3835C45.5215 14.1257 45.6387 13.7781 45.6387 13.3406C45.6387 12.9265 45.5273 12.5984 45.3047 12.3562C45.082 12.114 44.8105 11.9929 44.4902 11.9929C44.2793 11.9929 44.0273 12.0339 43.7344 12.116L43.916 10.7742C44.3613 10.7859 44.7012 10.6902 44.9355 10.4871C45.1699 10.28 45.2871 10.0066 45.2871 9.66675C45.2871 9.37769 45.2012 9.14722 45.0293 8.97534C44.8574 8.80347 44.6289 8.71753 44.3438 8.71753C44.0625 8.71753 43.8223 8.81519 43.623 9.0105C43.4238 9.20581 43.3027 9.49097 43.2598 9.86597L41.7422 9.60815C41.8477 9.08862 42.0059 8.67456 42.2168 8.36597C42.4316 8.05347 42.7285 7.80933 43.1074 7.63354C43.4902 7.45386 43.918 7.36401 44.3906 7.36401C45.1992 7.36401 45.8477 7.62183 46.3359 8.13745C46.7383 8.55933 46.9395 9.03589 46.9395 9.56714C46.9395 10.321 46.5273 10.9226 45.7031 11.3718C46.1953 11.4773 46.5879 11.7136 46.8809 12.0808C47.1777 12.448 47.3262 12.8914 47.3262 13.4109C47.3262 14.1648 47.0508 14.8074 46.5 15.3386C45.9492 15.8699 45.2637 16.1355 44.4434 16.1355C43.666 16.1355 43.0215 15.9128 42.5098 15.4675C41.998 15.0183 41.7012 14.4324 41.6191 13.7097Z" fill="white"/>
<defs>
<linearGradient id="paint0_linear_84_2041" x1="28.5" y1="1.98901" x2="28.5" y2="21.989" gradientUnits="userSpaceOnUse">
<stop stop-color="#95A551"/>
<stop offset="1" stop-color="#1C2106"/>
</linearGradient>
</defs>
</svg>
