<svg width="51" height="24" viewBox="0 0 51 24" fill="none" xmlns="http://www.w3.org/2000/svg">
<rect x="2" y="1.98901" width="48" height="20" rx="10" fill="url(#paint0_linear_46_4291)"/>
<rect x="2" y="1.98901" width="48" height="20" rx="10" stroke="#D86B1E" stroke-width="3" stroke-linejoin="round"/>
<path d="M10.2031 15.989V7.39917H11.9375V10.78H15.3359V7.39917H17.0703V15.989H15.3359V12.2332H11.9375V15.989H10.2031ZM18.8691 15.989V7.39917H25.2383V8.85229H20.6035V10.7566H24.916V12.2039H20.6035V14.5417H25.4023V15.989H18.8691ZM26 15.989L28.9355 11.5066L26.2754 7.39917H28.3027L30.0254 10.1589L31.7129 7.39917H33.7227L31.0508 11.571L33.9863 15.989H31.8945L29.9902 13.0183L28.0801 15.989H26ZM34.8828 7.39917H38.3164C38.9961 7.39917 39.502 7.42847 39.834 7.48706C40.1699 7.54175 40.4688 7.65894 40.7305 7.83862C40.9961 8.01831 41.2168 8.25854 41.3926 8.55933C41.5684 8.8562 41.6562 9.19019 41.6562 9.56128C41.6562 9.96362 41.5469 10.3328 41.3281 10.6687C41.1133 11.0046 40.8203 11.2566 40.4492 11.4246C40.9727 11.5769 41.375 11.8367 41.6562 12.2039C41.9375 12.571 42.0781 13.0027 42.0781 13.4988C42.0781 13.8894 41.9863 14.2703 41.8027 14.6414C41.623 15.0085 41.375 15.3035 41.0586 15.5261C40.7461 15.7449 40.3594 15.8796 39.8984 15.9304C39.6094 15.9617 38.9121 15.9812 37.8066 15.989H34.8828V7.39917ZM36.6172 8.82886V10.8152H37.7539C38.4297 10.8152 38.8496 10.8054 39.0137 10.7859C39.3105 10.7507 39.543 10.6492 39.7109 10.4812C39.8828 10.3093 39.9688 10.0847 39.9688 9.80737C39.9688 9.54175 39.8945 9.3269 39.7461 9.16284C39.6016 8.99487 39.3848 8.89331 39.0957 8.85815C38.9238 8.83862 38.4297 8.82886 37.6133 8.82886H36.6172ZM36.6172 12.2449V14.5417H38.2227C38.8477 14.5417 39.2441 14.5242 39.4121 14.489C39.6699 14.4421 39.8789 14.3289 40.0391 14.1492C40.2031 13.9656 40.2852 13.7214 40.2852 13.4167C40.2852 13.1589 40.2227 12.9402 40.0977 12.7605C39.9727 12.5808 39.791 12.45 39.5527 12.3679C39.3184 12.2859 38.8066 12.2449 38.0176 12.2449H36.6172Z" fill="white"/>
<defs>
<linearGradient id="paint0_linear_46_4291" x1="26" y1="21.989" x2="26" y2="1.98901" gradientUnits="userSpaceOnUse">
<stop stop-color="#D86B1E"/>
<stop offset="1" stop-color="#ED82B8"/>
</linearGradient>
</defs>
</svg>
