<svg width="56" height="24" viewBox="0 0 56 24" fill="none" xmlns="http://www.w3.org/2000/svg">
<rect x="2" y="1.98901" width="53" height="20" rx="10" fill="url(#paint0_linear_64_1980)"/>
<rect x="2" y="1.98901" width="53" height="20" rx="10" stroke="#5B5999" stroke-width="3" stroke-linejoin="round"/>
<path d="M10.0254 15.989V7.39917H12.8086C13.8633 7.39917 14.5508 7.44214 14.8711 7.52808C15.3633 7.65698 15.7754 7.93823 16.1074 8.37183C16.4395 8.80151 16.6055 9.35815 16.6055 10.0417C16.6055 10.5691 16.5098 11.0125 16.3184 11.3718C16.127 11.7312 15.8828 12.0144 15.5859 12.2214C15.293 12.4246 14.9941 12.5593 14.6895 12.6257C14.2754 12.7078 13.6758 12.7488 12.8906 12.7488H11.7598V15.989H10.0254ZM11.7598 8.85229V11.2898H12.709C13.3926 11.2898 13.8496 11.2449 14.0801 11.155C14.3105 11.0652 14.4902 10.9246 14.6191 10.7332C14.752 10.5417 14.8184 10.3191 14.8184 10.0652C14.8184 9.75269 14.7266 9.49487 14.543 9.29175C14.3594 9.08862 14.127 8.96167 13.8457 8.91089C13.6387 8.87183 13.2227 8.85229 12.5977 8.85229H11.7598ZM18.0469 15.989V7.39917H19.7344L23.25 13.1355V7.39917H24.8613V15.989H23.1211L19.6582 10.3875V15.989H18.0469ZM26.7012 15.989V7.39917H29.4844C30.5391 7.39917 31.2266 7.44214 31.5469 7.52808C32.0391 7.65698 32.4512 7.93823 32.7832 8.37183C33.1152 8.80151 33.2812 9.35815 33.2812 10.0417C33.2812 10.5691 33.1855 11.0125 32.9941 11.3718C32.8027 11.7312 32.5586 12.0144 32.2617 12.2214C31.9688 12.4246 31.6699 12.5593 31.3652 12.6257C30.9512 12.7078 30.3516 12.7488 29.5664 12.7488H28.4355V15.989H26.7012ZM28.4355 8.85229V11.2898H29.3848C30.0684 11.2898 30.5254 11.2449 30.7559 11.155C30.9863 11.0652 31.166 10.9246 31.2949 10.7332C31.4277 10.5417 31.4941 10.3191 31.4941 10.0652C31.4941 9.75269 31.4023 9.49487 31.2188 9.29175C31.0352 9.08862 30.8027 8.96167 30.5215 8.91089C30.3145 8.87183 29.8984 8.85229 29.2734 8.85229H28.4355ZM36.6387 15.989V8.85229H34.0898V7.39917H40.916V8.85229H38.373V15.989H36.6387ZM45.8906 15.989H44.2441V9.78394C43.6426 10.3464 42.9336 10.7625 42.1172 11.032V9.53784C42.5469 9.39722 43.0137 9.13159 43.5176 8.74097C44.0215 8.34644 44.3672 7.88745 44.5547 7.36401H45.8906V15.989Z" fill="white"/>
<defs>
<linearGradient id="paint0_linear_64_1980" x1="28.5" y1="1.98901" x2="28.5" y2="21.989" gradientUnits="userSpaceOnUse">
<stop stop-color="#F0A5AD"/>
<stop offset="1" stop-color="#5B5999"/>
</linearGradient>
</defs>
</svg>
