<svg width="56" height="24" viewBox="0 0 56 24" fill="none" xmlns="http://www.w3.org/2000/svg">
<rect x="2" y="1.98901" width="53" height="20" rx="10" fill="url(#paint0_linear_35_1409)"/>
<rect x="2" y="1.98901" width="53" height="20" rx="10" stroke="#23449E" stroke-width="3" stroke-linejoin="round"/>
<path d="M18.0996 15.989H16.2129L15.4629 14.0378H12.0293L11.3203 15.989H9.48047L12.8262 7.39917H14.6602L18.0996 15.989ZM14.9062 12.5906L13.7227 9.40308L12.5625 12.5906H14.9062ZM19.0723 15.989V7.46948H20.8066V14.5417H25.1191V15.989H19.0723ZM30.3574 12.8308V11.3835H34.0957V14.8054C33.7324 15.157 33.2051 15.4675 32.5137 15.7371C31.8262 16.0027 31.1289 16.1355 30.4219 16.1355C29.5234 16.1355 28.7402 15.948 28.0723 15.573C27.4043 15.1941 26.9023 14.655 26.5664 13.9558C26.2305 13.2527 26.0625 12.489 26.0625 11.6648C26.0625 10.7703 26.25 9.97534 26.625 9.28003C27 8.58472 27.5488 8.05151 28.2715 7.68042C28.8223 7.39526 29.5078 7.25269 30.3281 7.25269C31.3945 7.25269 32.2266 7.47729 32.8242 7.92651C33.4258 8.37183 33.8125 8.98901 33.9844 9.77808L32.2617 10.1003C32.1406 9.67847 31.9121 9.34644 31.5762 9.10425C31.2441 8.85815 30.8281 8.73511 30.3281 8.73511C29.5703 8.73511 28.9668 8.97534 28.5176 9.45581C28.0723 9.93628 27.8496 10.6492 27.8496 11.5945C27.8496 12.614 28.0762 13.3796 28.5293 13.8914C28.9824 14.3992 29.5762 14.6531 30.3105 14.6531C30.6738 14.6531 31.0371 14.5828 31.4004 14.4421C31.7676 14.2976 32.082 14.1238 32.3438 13.9207V12.8308H30.3574ZM39.5508 15.989H37.9043V9.78394C37.3027 10.3464 36.5938 10.7625 35.7773 11.032V9.53784C36.207 9.39722 36.6738 9.13159 37.1777 8.74097C37.6816 8.34644 38.0273 7.88745 38.2148 7.36401H39.5508V15.989ZM45.5625 15.989H43.916V9.78394C43.3145 10.3464 42.6055 10.7625 41.7891 11.032V9.53784C42.2188 9.39722 42.6855 9.13159 43.1895 8.74097C43.6934 8.34644 44.0391 7.88745 44.2266 7.36401H45.5625V15.989Z" fill="white"/>
<defs>
<linearGradient id="paint0_linear_35_1409" x1="28.5" y1="1.98901" x2="28.5" y2="21.989" gradientUnits="userSpaceOnUse">
<stop stop-color="#BAA300"/>
<stop offset="1" stop-color="#23449E"/>
</linearGradient>
</defs>
</svg>
