<svg width="53" height="24" viewBox="0 0 53 24" fill="none" xmlns="http://www.w3.org/2000/svg">
<rect x="2" y="1.98901" width="50" height="20" rx="10" fill="url(#paint0_linear_35_1561)"/>
<rect x="2" y="1.98901" width="50" height="20" rx="10" stroke="#0059FF" stroke-width="3" stroke-linejoin="round"/>
<path d="M10.1953 7.39917H13.6289C14.3086 7.39917 14.8145 7.42847 15.1465 7.48706C15.4824 7.54175 15.7812 7.65894 16.043 7.83862C16.3086 8.01831 16.5293 8.25854 16.7051 8.55933C16.8809 8.8562 16.9688 9.19019 16.9688 9.56128C16.9688 9.96362 16.8594 10.3328 16.6406 10.6687C16.4258 11.0046 16.1328 11.2566 15.7617 11.4246C16.2852 11.5769 16.6875 11.8367 16.9688 12.2039C17.25 12.571 17.3906 13.0027 17.3906 13.4988C17.3906 13.8894 17.2988 14.2703 17.1152 14.6414C16.9355 15.0085 16.6875 15.3035 16.3711 15.5261C16.0586 15.7449 15.6719 15.8796 15.2109 15.9304C14.9219 15.9617 14.2246 15.9812 13.1191 15.989H10.1953V7.39917ZM11.9297 8.82886V10.8152H13.0664C13.7422 10.8152 14.1621 10.8054 14.3262 10.7859C14.623 10.7507 14.8555 10.6492 15.0234 10.4812C15.1953 10.3093 15.2812 10.0847 15.2812 9.80737C15.2812 9.54175 15.207 9.3269 15.0586 9.16284C14.9141 8.99487 14.6973 8.89331 14.4082 8.85815C14.2363 8.83862 13.7422 8.82886 12.9258 8.82886H11.9297ZM11.9297 12.2449V14.5417H13.5352C14.1602 14.5417 14.5566 14.5242 14.7246 14.489C14.9824 14.4421 15.1914 14.3289 15.3516 14.1492C15.5156 13.9656 15.5977 13.7214 15.5977 13.4167C15.5977 13.1589 15.5352 12.9402 15.4102 12.7605C15.2852 12.5808 15.1035 12.45 14.8652 12.3679C14.6309 12.2859 14.1191 12.2449 13.3301 12.2449H11.9297ZM18.8789 15.989V7.39917H20.5664L24.082 13.1355V7.39917H25.6934V15.989H23.9531L20.4902 10.3875V15.989H18.8789ZM27.4805 15.989V7.39917H29.2148V15.989H27.4805ZM30.873 15.989V7.39917H33.6562C34.7109 7.39917 35.3984 7.44214 35.7188 7.52808C36.2109 7.65698 36.623 7.93823 36.9551 8.37183C37.2871 8.80151 37.4531 9.35815 37.4531 10.0417C37.4531 10.5691 37.3574 11.0125 37.166 11.3718C36.9746 11.7312 36.7305 12.0144 36.4336 12.2214C36.1406 12.4246 35.8418 12.5593 35.5371 12.6257C35.123 12.7078 34.5234 12.7488 33.7383 12.7488H32.6074V15.989H30.873ZM32.6074 8.85229V11.2898H33.5566C34.2402 11.2898 34.6973 11.2449 34.9277 11.155C35.1582 11.0652 35.3379 10.9246 35.4668 10.7332C35.5996 10.5417 35.666 10.3191 35.666 10.0652C35.666 9.75269 35.5742 9.49487 35.3906 9.29175C35.207 9.08862 34.9746 8.96167 34.6934 8.91089C34.4863 8.87183 34.0703 8.85229 33.4453 8.85229H32.6074ZM44.0742 14.4597V15.989H38.3027C38.3652 15.4109 38.5527 14.864 38.8652 14.3484C39.1777 13.8289 39.7949 13.1414 40.7168 12.2859C41.459 11.5945 41.9141 11.1257 42.082 10.8796C42.3086 10.5398 42.4219 10.2039 42.4219 9.87183C42.4219 9.50464 42.3223 9.22339 42.123 9.02808C41.9277 8.82886 41.6562 8.72925 41.3086 8.72925C40.9648 8.72925 40.6914 8.83276 40.4883 9.03979C40.2852 9.24683 40.168 9.59058 40.1367 10.071L38.4961 9.90698C38.5938 9.00073 38.9004 8.35034 39.416 7.95581C39.9316 7.56128 40.5762 7.36401 41.3496 7.36401C42.1973 7.36401 42.8633 7.59253 43.3477 8.04956C43.832 8.50659 44.0742 9.07495 44.0742 9.75464C44.0742 10.1414 44.0039 10.5105 43.8633 10.8621C43.7266 11.2097 43.5078 11.575 43.207 11.9578C43.0078 12.2117 42.6484 12.5769 42.1289 13.0535C41.6094 13.53 41.2793 13.8464 41.1387 14.0027C41.002 14.1589 40.8906 14.3113 40.8047 14.4597H44.0742Z" fill="white"/>
<defs>
<linearGradient id="paint0_linear_35_1561" x1="27" y1="1.98901" x2="27" y2="21.989" gradientUnits="userSpaceOnUse">
<stop stop-color="#0059FF"/>
<stop offset="1" stop-color="#C98300"/>
</linearGradient>
</defs>
</svg>
