<svg width="44" height="24" viewBox="0 0 44 24" fill="none" xmlns="http://www.w3.org/2000/svg">
<rect x="2" y="1.98901" width="41" height="20" rx="10" fill="url(#paint0_linear_42_2603)"/>
<rect x="2" y="1.98901" width="41" height="20" rx="10" stroke="#E7A54F" stroke-width="3" stroke-linejoin="round"/>
<path d="M10.3594 7.39917H13.5293C14.2441 7.39917 14.7891 7.45386 15.1641 7.56323C15.668 7.71167 16.0996 7.97534 16.459 8.35425C16.8184 8.73315 17.0918 9.198 17.2793 9.74878C17.4668 10.2957 17.5605 10.9714 17.5605 11.7761C17.5605 12.4832 17.4727 13.0925 17.2969 13.6042C17.082 14.2292 16.7754 14.7351 16.377 15.1218C16.0762 15.4148 15.6699 15.6433 15.1582 15.8074C14.7754 15.9285 14.2637 15.989 13.623 15.989H10.3594V7.39917ZM12.0938 8.85229V14.5417H13.3887C13.873 14.5417 14.2227 14.5144 14.4375 14.4597C14.7188 14.3894 14.9512 14.2703 15.1348 14.1023C15.3223 13.9343 15.4746 13.6589 15.5918 13.2761C15.709 12.8894 15.7676 12.364 15.7676 11.7C15.7676 11.0359 15.709 10.5261 15.5918 10.1707C15.4746 9.81519 15.3105 9.53784 15.0996 9.33862C14.8887 9.1394 14.6211 9.00464 14.2969 8.93433C14.0547 8.87964 13.5801 8.85229 12.873 8.85229H12.0938ZM19.0254 7.39917H20.7598V12.0515C20.7598 12.7898 20.7812 13.2683 20.8242 13.4871C20.8984 13.8386 21.0742 14.1218 21.3516 14.3367C21.6328 14.5476 22.0156 14.6531 22.5 14.6531C22.9922 14.6531 23.3633 14.5535 23.6133 14.3542C23.8633 14.1511 24.0137 13.9031 24.0645 13.6101C24.1152 13.3171 24.1406 12.8308 24.1406 12.1511V7.39917H25.875V11.9109C25.875 12.9421 25.8281 13.6707 25.7344 14.0964C25.6406 14.5222 25.4668 14.8816 25.2129 15.1746C24.9629 15.4675 24.627 15.7019 24.2051 15.8777C23.7832 16.0496 23.2324 16.1355 22.5527 16.1355C21.7324 16.1355 21.1094 16.0417 20.6836 15.8542C20.2617 15.6628 19.9277 15.4167 19.6816 15.116C19.4355 14.8113 19.2734 14.4929 19.1953 14.1609C19.082 13.6687 19.0254 12.9421 19.0254 11.9812V7.39917ZM27.7148 7.39917H31.1484C31.8281 7.39917 32.334 7.42847 32.666 7.48706C33.002 7.54175 33.3008 7.65894 33.5625 7.83862C33.8281 8.01831 34.0488 8.25854 34.2246 8.55933C34.4004 8.8562 34.4883 9.19019 34.4883 9.56128C34.4883 9.96362 34.3789 10.3328 34.1602 10.6687C33.9453 11.0046 33.6523 11.2566 33.2812 11.4246C33.8047 11.5769 34.207 11.8367 34.4883 12.2039C34.7695 12.571 34.9102 13.0027 34.9102 13.4988C34.9102 13.8894 34.8184 14.2703 34.6348 14.6414C34.4551 15.0085 34.207 15.3035 33.8906 15.5261C33.5781 15.7449 33.1914 15.8796 32.7305 15.9304C32.4414 15.9617 31.7441 15.9812 30.6387 15.989H27.7148V7.39917ZM29.4492 8.82886V10.8152H30.5859C31.2617 10.8152 31.6816 10.8054 31.8457 10.7859C32.1426 10.7507 32.375 10.6492 32.543 10.4812C32.7148 10.3093 32.8008 10.0847 32.8008 9.80737C32.8008 9.54175 32.7266 9.3269 32.5781 9.16284C32.4336 8.99487 32.2168 8.89331 31.9277 8.85815C31.7559 8.83862 31.2617 8.82886 30.4453 8.82886H29.4492ZM29.4492 12.2449V14.5417H31.0547C31.6797 14.5417 32.0762 14.5242 32.2441 14.489C32.502 14.4421 32.7109 14.3289 32.8711 14.1492C33.0352 13.9656 33.1172 13.7214 33.1172 13.4167C33.1172 13.1589 33.0547 12.9402 32.9297 12.7605C32.8047 12.5808 32.623 12.45 32.3848 12.3679C32.1504 12.2859 31.6387 12.2449 30.8496 12.2449H29.4492Z" fill="white"/>
<defs>
<linearGradient id="paint0_linear_42_2603" x1="22.5" y1="1.98901" x2="22.5" y2="21.989" gradientUnits="userSpaceOnUse">
<stop stop-color="#E7A54F"/>
<stop offset="1" stop-color="#823857"/>
</linearGradient>
</defs>
</svg>
