<svg width="17" height="171" viewBox="0 0 17 171" fill="none" xmlns="http://www.w3.org/2000/svg">
<path d="M10.6808 82.0134H6.58057V117.49H10.6808V82.0134Z" fill="#B8874A"/>
<path d="M8.99501 170.247H8.26611C3.84781 170.247 0.266113 166.666 0.266113 162.247V149.239C0.266113 144.82 3.84781 141.239 8.26611 141.239H8.99501C13.4133 141.239 16.995 144.82 16.995 149.239V162.247C16.995 166.666 13.4133 170.247 8.99501 170.247Z" fill="url(#paint0_linear_86_3013)"/>
<path d="M8.63051 87.273C4.71881 87.273 2.39221 83.5281 2.39221 78.9086V66.6288C2.39221 62.0092 4.71891 58.2644 8.63051 58.2644C12.5421 58.2644 14.8688 62.0093 14.8688 66.6288V78.9085C14.8689 83.5281 12.5422 87.273 8.63051 87.273Z" fill="url(#paint1_linear_86_3013)"/>
<path d="M8.63051 58.2645C4.71881 58.2645 2.39221 54.5196 2.39221 49.9001V37.6203C2.39221 33.0008 4.71891 29.2559 8.63051 29.2559C12.5421 29.2559 14.8688 33.0008 14.8688 37.6203V49.9C14.8689 54.5196 12.5422 58.2645 8.63051 58.2645Z" fill="url(#paint2_linear_86_3013)"/>
<path d="M8.63051 29.2559C4.71881 29.2559 2.39221 25.511 2.39221 20.8915V8.61171C2.39221 3.99221 4.71891 0.247314 8.63051 0.247314C12.5421 0.247314 14.8688 3.99221 14.8688 8.61171V20.8914C14.8689 25.511 12.5422 29.2559 8.63051 29.2559Z" fill="url(#paint3_linear_86_3013)"/>
<path d="M8.99501 141.239H8.26611C3.84781 141.239 0.266113 137.657 0.266113 133.239V120.23C0.266113 115.812 3.84781 112.23 8.26611 112.23H8.99501C13.4133 112.23 16.995 115.812 16.995 120.23V133.239C16.995 137.657 13.4133 141.239 8.99501 141.239Z" fill="url(#paint4_linear_86_3013)"/>
<defs>
<linearGradient id="paint0_linear_86_3013" x1="8.63051" y1="170.247" x2="8.63051" y2="141.239" gradientUnits="userSpaceOnUse">
<stop stop-color="#B8874A"/>
<stop offset="1" stop-color="#692263"/>
</linearGradient>
<linearGradient id="paint1_linear_86_3013" x1="8.63051" y1="87.273" x2="8.63051" y2="58.2644" gradientUnits="userSpaceOnUse">
<stop stop-color="#B8874A"/>
<stop offset="1" stop-color="#692263"/>
</linearGradient>
<linearGradient id="paint2_linear_86_3013" x1="8.63051" y1="58.2645" x2="8.63051" y2="29.2559" gradientUnits="userSpaceOnUse">
<stop stop-color="#B8874A"/>
<stop offset="1" stop-color="#692263"/>
</linearGradient>
<linearGradient id="paint3_linear_86_3013" x1="8.63051" y1="29.2559" x2="8.63051" y2="0.247314" gradientUnits="userSpaceOnUse">
<stop stop-color="#B8874A"/>
<stop offset="1" stop-color="#692263"/>
</linearGradient>
<linearGradient id="paint4_linear_86_3013" x1="8.63051" y1="141.239" x2="8.63051" y2="112.23" gradientUnits="userSpaceOnUse">
<stop stop-color="#B8874A"/>
<stop offset="1" stop-color="#692263"/>
</linearGradient>
</defs>
</svg>
