<svg width="54" height="24" viewBox="0 0 54 24" fill="none" xmlns="http://www.w3.org/2000/svg">
<rect x="2" y="1.98901" width="51" height="20" rx="10" fill="url(#paint0_linear_46_4311)"/>
<rect x="2" y="1.98901" width="51" height="20" rx="10" stroke="#AF7351" stroke-width="3" stroke-linejoin="round"/>
<path d="M10.373 15.989V7.39917H12.1074V10.78H15.5059V7.39917H17.2402V15.989H15.5059V12.2332H12.1074V15.989H10.373ZM19.0156 15.989V7.39917H21.6113L23.1699 13.2585L24.7109 7.39917H27.3125V15.989H25.7012V9.22729L23.9961 15.989H22.3262L20.627 9.22729V15.989H19.0156ZM28.6836 11.7468C28.6836 10.8718 28.8145 10.1375 29.0762 9.5437C29.2715 9.1062 29.5371 8.71362 29.873 8.36597C30.2129 8.01831 30.584 7.7605 30.9863 7.59253C31.5215 7.36597 32.1387 7.25269 32.8379 7.25269C34.1035 7.25269 35.1152 7.64526 35.873 8.43042C36.6348 9.21558 37.0156 10.3074 37.0156 11.7058C37.0156 13.0925 36.6387 14.1785 35.8848 14.9636C35.1309 15.7449 34.123 16.1355 32.8613 16.1355C31.584 16.1355 30.5684 15.7468 29.8145 14.9695C29.0605 14.1882 28.6836 13.114 28.6836 11.7468ZM30.4707 11.6882C30.4707 12.6609 30.6953 13.3992 31.1445 13.9031C31.5938 14.4031 32.1641 14.6531 32.8555 14.6531C33.5469 14.6531 34.1133 14.405 34.5547 13.9089C35 13.4089 35.2227 12.6609 35.2227 11.6648C35.2227 10.6804 35.0059 9.94604 34.5723 9.46167C34.1426 8.97729 33.5703 8.73511 32.8555 8.73511C32.1406 8.73511 31.5645 8.9812 31.127 9.47339C30.6895 9.96167 30.4707 10.7 30.4707 11.6882ZM37.502 15.989L40.4375 11.5066L37.7773 7.39917H39.8047L41.5273 10.1589L43.2148 7.39917H45.2246L42.5527 11.571L45.4883 15.989H43.3965L41.4922 13.0183L39.582 15.989H37.502Z" fill="white"/>
<defs>
<linearGradient id="paint0_linear_46_4311" x1="27.5" y1="1.98901" x2="27.5" y2="21.989" gradientUnits="userSpaceOnUse">
<stop stop-color="#AF7351"/>
<stop offset="1" stop-color="#5EC9BE"/>
</linearGradient>
</defs>
</svg>
