<svg width="70" height="24" viewBox="0 0 70 24" fill="none" xmlns="http://www.w3.org/2000/svg">
<rect x="1" y="1.98901" width="68" height="20" rx="10" fill="url(#paint0_linear_83_1975)"/>
<rect x="1" y="1.98901" width="68" height="20" rx="10" stroke="#918700" stroke-width="3" stroke-linejoin="round"/>
<path d="M8.74414 13.1941L10.4316 13.03C10.5332 13.5964 10.7383 14.0125 11.0469 14.2781C11.3594 14.5437 11.7793 14.6765 12.3066 14.6765C12.8652 14.6765 13.2852 14.5593 13.5664 14.325C13.8516 14.0867 13.9941 13.8093 13.9941 13.4929C13.9941 13.2898 13.9336 13.1179 13.8125 12.9773C13.6953 12.8328 13.4883 12.7078 13.1914 12.6023C12.9883 12.532 12.5254 12.407 11.8027 12.2273C10.873 11.9968 10.2207 11.7136 9.8457 11.3777C9.31836 10.905 9.05469 10.3289 9.05469 9.64917C9.05469 9.21167 9.17773 8.80347 9.42383 8.42456C9.67383 8.04175 10.0312 7.75073 10.4961 7.55151C10.9648 7.35229 11.5293 7.25269 12.1895 7.25269C13.2676 7.25269 14.0781 7.48901 14.6211 7.96167C15.168 8.43433 15.4551 9.06519 15.4824 9.85425L13.748 9.93042C13.6738 9.48901 13.5137 9.17261 13.2676 8.9812C13.0254 8.78589 12.6602 8.68823 12.1719 8.68823C11.668 8.68823 11.2734 8.79175 10.9883 8.99878C10.8047 9.13159 10.7129 9.30933 10.7129 9.53198C10.7129 9.73511 10.7988 9.90894 10.9707 10.0535C11.1895 10.2371 11.7207 10.4285 12.5645 10.6277C13.4082 10.8269 14.0312 11.0339 14.4336 11.2488C14.8398 11.4597 15.1562 11.7507 15.3828 12.1218C15.6133 12.489 15.7285 12.9441 15.7285 13.4871C15.7285 13.9792 15.5918 14.4402 15.3184 14.8699C15.0449 15.2996 14.6582 15.6199 14.1582 15.8308C13.6582 16.0378 13.0352 16.1414 12.2891 16.1414C11.2031 16.1414 10.3691 15.8914 9.78711 15.3914C9.20508 14.8875 8.85742 14.155 8.74414 13.1941ZM17.1758 7.39917H18.9102V12.0515C18.9102 12.7898 18.9316 13.2683 18.9746 13.4871C19.0488 13.8386 19.2246 14.1218 19.502 14.3367C19.7832 14.5476 20.166 14.6531 20.6504 14.6531C21.1426 14.6531 21.5137 14.5535 21.7637 14.3542C22.0137 14.1511 22.1641 13.9031 22.2148 13.6101C22.2656 13.3171 22.291 12.8308 22.291 12.1511V7.39917H24.0254V11.9109C24.0254 12.9421 23.9785 13.6707 23.8848 14.0964C23.791 14.5222 23.6172 14.8816 23.3633 15.1746C23.1133 15.4675 22.7773 15.7019 22.3555 15.8777C21.9336 16.0496 21.3828 16.1355 20.7031 16.1355C19.8828 16.1355 19.2598 16.0417 18.834 15.8542C18.4121 15.6628 18.0781 15.4167 17.832 15.116C17.5859 14.8113 17.4238 14.4929 17.3457 14.1609C17.2324 13.6687 17.1758 12.9421 17.1758 11.9812V7.39917ZM25.8594 15.989V7.39917H28.6426C29.6973 7.39917 30.3848 7.44214 30.7051 7.52808C31.1973 7.65698 31.6094 7.93823 31.9414 8.37183C32.2734 8.80151 32.4395 9.35815 32.4395 10.0417C32.4395 10.5691 32.3438 11.0125 32.1523 11.3718C31.9609 11.7312 31.7168 12.0144 31.4199 12.2214C31.127 12.4246 30.8281 12.5593 30.5234 12.6257C30.1094 12.7078 29.5098 12.7488 28.7246 12.7488H27.5938V15.989H25.8594ZM27.5938 8.85229V11.2898H28.543C29.2266 11.2898 29.6836 11.2449 29.9141 11.155C30.1445 11.0652 30.3242 10.9246 30.4531 10.7332C30.5859 10.5417 30.6523 10.3191 30.6523 10.0652C30.6523 9.75269 30.5605 9.49487 30.377 9.29175C30.1934 9.08862 29.9609 8.96167 29.6797 8.91089C29.4727 8.87183 29.0566 8.85229 28.4316 8.85229H27.5938ZM36.0547 15.989L32.9844 7.39917H34.8652L37.0391 13.7566L39.1426 7.39917H40.9824L37.9062 15.989H36.0547ZM41.4453 13.7097L43.0391 13.5164C43.0898 13.9226 43.2266 14.2332 43.4492 14.448C43.6719 14.6628 43.9414 14.7703 44.2578 14.7703C44.5977 14.7703 44.8828 14.6414 45.1133 14.3835C45.3477 14.1257 45.4648 13.7781 45.4648 13.3406C45.4648 12.9265 45.3535 12.5984 45.1309 12.3562C44.9082 12.114 44.6367 11.9929 44.3164 11.9929C44.1055 11.9929 43.8535 12.0339 43.5605 12.116L43.7422 10.7742C44.1875 10.7859 44.5273 10.6902 44.7617 10.4871C44.9961 10.28 45.1133 10.0066 45.1133 9.66675C45.1133 9.37769 45.0273 9.14722 44.8555 8.97534C44.6836 8.80347 44.4551 8.71753 44.1699 8.71753C43.8887 8.71753 43.6484 8.81519 43.4492 9.0105C43.25 9.20581 43.1289 9.49097 43.0859 9.86597L41.5684 9.60815C41.6738 9.08862 41.832 8.67456 42.043 8.36597C42.2578 8.05347 42.5547 7.80933 42.9336 7.63354C43.3164 7.45386 43.7441 7.36401 44.2168 7.36401C45.0254 7.36401 45.6738 7.62183 46.1621 8.13745C46.5645 8.55933 46.7656 9.03589 46.7656 9.56714C46.7656 10.321 46.3535 10.9226 45.5293 11.3718C46.0215 11.4773 46.4141 11.7136 46.707 12.0808C47.0039 12.448 47.1523 12.8914 47.1523 13.4109C47.1523 14.1648 46.877 14.8074 46.3262 15.3386C45.7754 15.8699 45.0898 16.1355 44.2695 16.1355C43.4922 16.1355 42.8477 15.9128 42.3359 15.4675C41.8242 15.0183 41.5273 14.4324 41.4453 13.7097ZM48.5938 15.989V7.46948H50.3281V14.5417H54.6406V15.989H48.5938ZM59.7324 15.989H58.0859V9.78394C57.4844 10.3464 56.7754 10.7625 55.959 11.032V9.53784C56.3887 9.39722 56.8555 9.13159 57.3594 8.74097C57.8633 8.34644 58.209 7.88745 58.3965 7.36401H59.7324V15.989Z" fill="white"/>
<defs>
<linearGradient id="paint0_linear_83_1975" x1="35" y1="1.98901" x2="35" y2="21.989" gradientUnits="userSpaceOnUse">
<stop stop-color="#918700"/>
<stop offset="1" stop-color="#DB9BD8"/>
</linearGradient>
</defs>
</svg>
