<svg width="41" height="24" viewBox="0 0 41 24" fill="none" xmlns="http://www.w3.org/2000/svg">
<rect x="2" y="1.98901" width="38" height="20" rx="10" fill="url(#paint0_linear_84_2017)"/>
<rect x="2" y="1.98901" width="38" height="20" rx="10" stroke="#A63F3F" stroke-width="3" stroke-linejoin="round"/>
<path d="M12.1348 15.989V8.85229H9.58594V7.39917H16.4121V8.85229H13.8691V15.989H12.1348ZM23.0332 12.8308L24.7148 13.364C24.457 14.3015 24.0273 14.9988 23.4258 15.4558C22.8281 15.9089 22.0684 16.1355 21.1465 16.1355C20.0059 16.1355 19.0684 15.7468 18.334 14.9695C17.5996 14.1882 17.2324 13.1218 17.2324 11.7703C17.2324 10.3406 17.6016 9.2312 18.3398 8.44214C19.0781 7.64917 20.0488 7.25269 21.252 7.25269C22.3027 7.25269 23.1562 7.56323 23.8125 8.18433C24.2031 8.55151 24.4961 9.07886 24.6914 9.76636L22.9746 10.1765C22.873 9.7312 22.6602 9.37964 22.3359 9.12183C22.0156 8.86401 21.625 8.73511 21.1641 8.73511C20.5273 8.73511 20.0098 8.96362 19.6113 9.42065C19.2168 9.87769 19.0195 10.6179 19.0195 11.6414C19.0195 12.7273 19.2148 13.5007 19.6055 13.9617C19.9961 14.4226 20.5039 14.6531 21.1289 14.6531C21.5898 14.6531 21.9863 14.5066 22.3184 14.2136C22.6504 13.9207 22.8887 13.4597 23.0332 12.8308ZM26.2207 15.989V7.39917H32.1094V8.85229H27.9551V10.8855H31.541V12.3386H27.9551V15.989H26.2207Z" fill="white"/>
<defs>
<linearGradient id="paint0_linear_84_2017" x1="21" y1="1.98901" x2="21" y2="21.989" gradientUnits="userSpaceOnUse">
<stop stop-color="#A63F3F"/>
<stop offset="1" stop-color="#CAFF6E"/>
</linearGradient>
</defs>
</svg>
