<svg width="52" height="24" viewBox="0 0 52 24" fill="none" xmlns="http://www.w3.org/2000/svg">
<rect x="2" y="1.98901" width="49" height="20" rx="10" fill="url(#paint0_linear_67_1931)"/>
<rect x="2" y="1.98901" width="49" height="20" rx="10" stroke="#424A00" stroke-width="3" stroke-linejoin="round"/>
<path d="M9.92383 13.1941L11.6113 13.03C11.7129 13.5964 11.918 14.0125 12.2266 14.2781C12.5391 14.5437 12.959 14.6765 13.4863 14.6765C14.0449 14.6765 14.4648 14.5593 14.7461 14.325C15.0312 14.0867 15.1738 13.8093 15.1738 13.4929C15.1738 13.2898 15.1133 13.1179 14.9922 12.9773C14.875 12.8328 14.668 12.7078 14.3711 12.6023C14.168 12.532 13.7051 12.407 12.9824 12.2273C12.0527 11.9968 11.4004 11.7136 11.0254 11.3777C10.498 10.905 10.2344 10.3289 10.2344 9.64917C10.2344 9.21167 10.3574 8.80347 10.6035 8.42456C10.8535 8.04175 11.2109 7.75073 11.6758 7.55151C12.1445 7.35229 12.709 7.25269 13.3691 7.25269C14.4473 7.25269 15.2578 7.48901 15.8008 7.96167C16.3477 8.43433 16.6348 9.06519 16.6621 9.85425L14.9277 9.93042C14.8535 9.48901 14.6934 9.17261 14.4473 8.9812C14.2051 8.78589 13.8398 8.68823 13.3516 8.68823C12.8477 8.68823 12.4531 8.79175 12.168 8.99878C11.9844 9.13159 11.8926 9.30933 11.8926 9.53198C11.8926 9.73511 11.9785 9.90894 12.1504 10.0535C12.3691 10.2371 12.9004 10.4285 13.7441 10.6277C14.5879 10.8269 15.2109 11.0339 15.6133 11.2488C16.0195 11.4597 16.3359 11.7507 16.5625 12.1218C16.793 12.489 16.9082 12.9441 16.9082 13.4871C16.9082 13.9792 16.7715 14.4402 16.498 14.8699C16.2246 15.2996 15.8379 15.6199 15.3379 15.8308C14.8379 16.0378 14.2148 16.1414 13.4688 16.1414C12.3828 16.1414 11.5488 15.8914 10.9668 15.3914C10.3848 14.8875 10.0371 14.155 9.92383 13.1941ZM22.3633 12.8308V11.3835H26.1016V14.8054C25.7383 15.157 25.2109 15.4675 24.5195 15.7371C23.832 16.0027 23.1348 16.1355 22.4277 16.1355C21.5293 16.1355 20.7461 15.948 20.0781 15.573C19.4102 15.1941 18.9082 14.655 18.5723 13.9558C18.2363 13.2527 18.0684 12.489 18.0684 11.6648C18.0684 10.7703 18.2559 9.97534 18.6309 9.28003C19.0059 8.58472 19.5547 8.05151 20.2773 7.68042C20.8281 7.39526 21.5137 7.25269 22.334 7.25269C23.4004 7.25269 24.2324 7.47729 24.8301 7.92651C25.4316 8.37183 25.8184 8.98901 25.9902 9.77808L24.2676 10.1003C24.1465 9.67847 23.918 9.34644 23.582 9.10425C23.25 8.85815 22.834 8.73511 22.334 8.73511C21.5762 8.73511 20.9727 8.97534 20.5234 9.45581C20.0781 9.93628 19.8555 10.6492 19.8555 11.5945C19.8555 12.614 20.082 13.3796 20.5352 13.8914C20.9883 14.3992 21.582 14.6531 22.3164 14.6531C22.6797 14.6531 23.043 14.5828 23.4062 14.4421C23.7734 14.2976 24.0879 14.1238 24.3496 13.9207V12.8308H22.3633ZM27.2676 13.1941L28.9551 13.03C29.0566 13.5964 29.2617 14.0125 29.5703 14.2781C29.8828 14.5437 30.3027 14.6765 30.8301 14.6765C31.3887 14.6765 31.8086 14.5593 32.0898 14.325C32.375 14.0867 32.5176 13.8093 32.5176 13.4929C32.5176 13.2898 32.457 13.1179 32.3359 12.9773C32.2188 12.8328 32.0117 12.7078 31.7148 12.6023C31.5117 12.532 31.0488 12.407 30.3262 12.2273C29.3965 11.9968 28.7441 11.7136 28.3691 11.3777C27.8418 10.905 27.5781 10.3289 27.5781 9.64917C27.5781 9.21167 27.7012 8.80347 27.9473 8.42456C28.1973 8.04175 28.5547 7.75073 29.0195 7.55151C29.4883 7.35229 30.0527 7.25269 30.7129 7.25269C31.791 7.25269 32.6016 7.48901 33.1445 7.96167C33.6914 8.43433 33.9785 9.06519 34.0059 9.85425L32.2715 9.93042C32.1973 9.48901 32.0371 9.17261 31.791 8.9812C31.5488 8.78589 31.1836 8.68823 30.6953 8.68823C30.1914 8.68823 29.7969 8.79175 29.5117 8.99878C29.3281 9.13159 29.2363 9.30933 29.2363 9.53198C29.2363 9.73511 29.3223 9.90894 29.4941 10.0535C29.7129 10.2371 30.2441 10.4285 31.0879 10.6277C31.9316 10.8269 32.5547 11.0339 32.957 11.2488C33.3633 11.4597 33.6797 11.7507 33.9062 12.1218C34.1367 12.489 34.252 12.9441 34.252 13.4871C34.252 13.9792 34.1152 14.4402 33.8418 14.8699C33.5684 15.2996 33.1816 15.6199 32.6816 15.8308C32.1816 16.0378 31.5586 16.1414 30.8125 16.1414C29.7266 16.1414 28.8926 15.8914 28.3105 15.3914C27.7285 14.8875 27.3809 14.155 27.2676 13.1941ZM35.7168 15.989V7.39917H37.4512V10.78H40.8496V7.39917H42.584V15.989H40.8496V12.2332H37.4512V15.989H35.7168Z" fill="white"/>
<defs>
<linearGradient id="paint0_linear_67_1931" x1="26.5" y1="1.98901" x2="26.5" y2="21.989" gradientUnits="userSpaceOnUse">
<stop stop-color="#478CC2"/>
<stop offset="1" stop-color="#424A00"/>
</linearGradient>
</defs>
</svg>
