<svg width="72" height="24" viewBox="0 0 72 24" fill="none" xmlns="http://www.w3.org/2000/svg">
<rect x="1" y="1.98901" width="70" height="20" rx="10" fill="url(#paint0_linear_84_2029)"/>
<rect x="1" y="1.98901" width="70" height="20" rx="10" stroke="#2C89CE" stroke-width="3" stroke-linejoin="round"/>
<path d="M11.1211 15.989V8.85229H8.57227V7.39917H15.3984V8.85229H12.8555V15.989H11.1211ZM16.5293 15.989V7.39917H20.1797C21.0977 7.39917 21.7637 7.47729 22.1777 7.63354C22.5957 7.78589 22.9297 8.05933 23.1797 8.45386C23.4297 8.84839 23.5547 9.29956 23.5547 9.80737C23.5547 10.4519 23.3652 10.9851 22.9863 11.407C22.6074 11.825 22.041 12.0886 21.2871 12.198C21.6621 12.4167 21.9707 12.657 22.2129 12.9187C22.459 13.1804 22.7891 13.6453 23.2031 14.3132L24.252 15.989H22.1777L20.9238 14.1199C20.4785 13.4519 20.1738 13.032 20.0098 12.8601C19.8457 12.6843 19.6719 12.5652 19.4883 12.5027C19.3047 12.4363 19.0137 12.4031 18.6152 12.4031H18.2637V15.989H16.5293ZM18.2637 11.032H19.5469C20.3789 11.032 20.8984 10.9968 21.1055 10.9265C21.3125 10.8562 21.4746 10.7351 21.5918 10.5632C21.709 10.3914 21.7676 10.1765 21.7676 9.9187C21.7676 9.62964 21.6895 9.39722 21.5332 9.22144C21.3809 9.04175 21.1641 8.92847 20.8828 8.88159C20.7422 8.86206 20.3203 8.85229 19.6172 8.85229H18.2637V11.032ZM25.1719 15.989V7.39917H27.7676L29.3262 13.2585L30.8672 7.39917H33.4688V15.989H31.8574V9.22729L30.1523 15.989H28.4824L26.7832 9.22729V15.989H25.1719ZM37.125 15.989V8.85229H34.5762V7.39917H41.4023V8.85229H38.8594V15.989H37.125ZM46.377 15.989H44.7305V9.78394C44.1289 10.3464 43.4199 10.7625 42.6035 11.032V9.53784C43.0332 9.39722 43.5 9.13159 44.0039 8.74097C44.5078 8.34644 44.8535 7.88745 45.041 7.36401H46.377V15.989ZM51.627 7.36401C52.459 7.36401 53.1094 7.66089 53.5781 8.25464C54.1367 8.95776 54.416 10.1238 54.416 11.7527C54.416 13.3777 54.1348 14.5457 53.5723 15.2566C53.1074 15.8425 52.459 16.1355 51.627 16.1355C50.791 16.1355 50.1172 15.8152 49.6055 15.1746C49.0938 14.53 48.8379 13.3835 48.8379 11.7351C48.8379 10.1179 49.1191 8.95386 49.6816 8.24292C50.1465 7.65698 50.7949 7.36401 51.627 7.36401ZM51.627 8.72925C51.4277 8.72925 51.25 8.7937 51.0938 8.92261C50.9375 9.04761 50.8164 9.27417 50.7305 9.60229C50.6172 10.0281 50.5605 10.7449 50.5605 11.7527C50.5605 12.7605 50.6113 13.4539 50.7129 13.8328C50.8145 14.2078 50.9414 14.4578 51.0938 14.5828C51.25 14.7078 51.4277 14.7703 51.627 14.7703C51.8262 14.7703 52.0039 14.7078 52.1602 14.5828C52.3164 14.4539 52.4375 14.2253 52.5234 13.8972C52.6367 13.4753 52.6934 12.7605 52.6934 11.7527C52.6934 10.7449 52.6426 10.0535 52.541 9.67847C52.4395 9.29956 52.3105 9.04761 52.1543 8.92261C52.002 8.7937 51.8262 8.72925 51.627 8.72925ZM61.3828 12.8308L63.0645 13.364C62.8066 14.3015 62.377 14.9988 61.7754 15.4558C61.1777 15.9089 60.418 16.1355 59.4961 16.1355C58.3555 16.1355 57.418 15.7468 56.6836 14.9695C55.9492 14.1882 55.582 13.1218 55.582 11.7703C55.582 10.3406 55.9512 9.2312 56.6895 8.44214C57.4277 7.64917 58.3984 7.25269 59.6016 7.25269C60.6523 7.25269 61.5059 7.56323 62.1621 8.18433C62.5527 8.55151 62.8457 9.07886 63.041 9.76636L61.3242 10.1765C61.2227 9.7312 61.0098 9.37964 60.6855 9.12183C60.3652 8.86401 59.9746 8.73511 59.5137 8.73511C58.877 8.73511 58.3594 8.96362 57.9609 9.42065C57.5664 9.87769 57.3691 10.6179 57.3691 11.6414C57.3691 12.7273 57.5645 13.5007 57.9551 13.9617C58.3457 14.4226 58.8535 14.6531 59.4785 14.6531C59.9395 14.6531 60.3359 14.5066 60.668 14.2136C61 13.9207 61.2383 13.4597 61.3828 12.8308Z" fill="white"/>
<defs>
<linearGradient id="paint0_linear_84_2029" x1="36" y1="1.98901" x2="36" y2="21.989" gradientUnits="userSpaceOnUse">
<stop stop-color="#2C89CE"/>
<stop offset="1" stop-color="#9CA839"/>
</linearGradient>
</defs>
</svg>
