<svg width="72" height="24" viewBox="0 0 72 24" fill="none" xmlns="http://www.w3.org/2000/svg">
<rect x="1" y="1.98901" width="70" height="20" rx="10" fill="url(#paint0_linear_84_2023)"/>
<rect x="1" y="1.98901" width="70" height="20" rx="10" stroke="#6B2CCE" stroke-width="3" stroke-linejoin="round"/>
<path d="M11.1211 15.989V8.85229H8.57227V7.39917H15.3984V8.85229H12.8555V15.989H11.1211ZM16.5293 15.989V7.39917H20.1797C21.0977 7.39917 21.7637 7.47729 22.1777 7.63354C22.5957 7.78589 22.9297 8.05933 23.1797 8.45386C23.4297 8.84839 23.5547 9.29956 23.5547 9.80737C23.5547 10.4519 23.3652 10.9851 22.9863 11.407C22.6074 11.825 22.041 12.0886 21.2871 12.198C21.6621 12.4167 21.9707 12.657 22.2129 12.9187C22.459 13.1804 22.7891 13.6453 23.2031 14.3132L24.252 15.989H22.1777L20.9238 14.1199C20.4785 13.4519 20.1738 13.032 20.0098 12.8601C19.8457 12.6843 19.6719 12.5652 19.4883 12.5027C19.3047 12.4363 19.0137 12.4031 18.6152 12.4031H18.2637V15.989H16.5293ZM18.2637 11.032H19.5469C20.3789 11.032 20.8984 10.9968 21.1055 10.9265C21.3125 10.8562 21.4746 10.7351 21.5918 10.5632C21.709 10.3914 21.7676 10.1765 21.7676 9.9187C21.7676 9.62964 21.6895 9.39722 21.5332 9.22144C21.3809 9.04175 21.1641 8.92847 20.8828 8.88159C20.7422 8.86206 20.3203 8.85229 19.6172 8.85229H18.2637V11.032ZM25.1719 15.989V7.39917H27.7676L29.3262 13.2585L30.8672 7.39917H33.4688V15.989H31.8574V9.22729L30.1523 15.989H28.4824L26.7832 9.22729V15.989H25.1719ZM37.125 15.989V8.85229H34.5762V7.39917H41.4023V8.85229H38.8594V15.989H37.125ZM47.7422 9.50269L46.1484 9.67847C46.1094 9.35034 46.0078 9.10815 45.8438 8.9519C45.6797 8.79565 45.4668 8.71753 45.2051 8.71753C44.8574 8.71753 44.5625 8.87378 44.3203 9.18628C44.082 9.49878 43.9316 10.1492 43.8691 11.1375C44.2793 10.6531 44.7891 10.4109 45.3984 10.4109C46.0859 10.4109 46.6738 10.6726 47.1621 11.196C47.6543 11.7195 47.9004 12.3953 47.9004 13.2234C47.9004 14.1023 47.6426 14.8074 47.127 15.3386C46.6113 15.8699 45.9492 16.1355 45.1406 16.1355C44.2734 16.1355 43.5605 15.7996 43.002 15.1277C42.4434 14.4519 42.1641 13.3464 42.1641 11.8113C42.1641 10.2371 42.4551 9.10229 43.0371 8.40698C43.6191 7.71167 44.375 7.36401 45.3047 7.36401C45.957 7.36401 46.4961 7.54761 46.9219 7.91479C47.3516 8.27808 47.625 8.80737 47.7422 9.50269ZM44.0098 13.0945C44.0098 13.6296 44.1328 14.0437 44.3789 14.3367C44.625 14.6257 44.9062 14.7703 45.2227 14.7703C45.5273 14.7703 45.7812 14.6511 45.9844 14.4128C46.1875 14.1746 46.2891 13.7839 46.2891 13.241C46.2891 12.6824 46.1797 12.2742 45.9609 12.0164C45.7422 11.7546 45.4688 11.6238 45.1406 11.6238C44.8242 11.6238 44.5566 11.7488 44.3379 11.9988C44.1191 12.2449 44.0098 12.6101 44.0098 13.0945ZM53.0566 15.989H51.4102V9.78394C50.8086 10.3464 50.0996 10.7625 49.2832 11.032V9.53784C49.7129 9.39722 50.1797 9.13159 50.6836 8.74097C51.1875 8.34644 51.5332 7.88745 51.7207 7.36401H53.0566V15.989ZM63.6328 15.989H61.7461L60.9961 14.0378H57.5625L56.8535 15.989H55.0137L58.3594 7.39917H60.1934L63.6328 15.989ZM60.4395 12.5906L59.2559 9.40308L58.0957 12.5906H60.4395Z" fill="white"/>
<defs>
<linearGradient id="paint0_linear_84_2023" x1="36" y1="1.98901" x2="36" y2="21.989" gradientUnits="userSpaceOnUse">
<stop stop-color="#6B2CCE"/>
<stop offset="1" stop-color="#CF9039"/>
</linearGradient>
</defs>
</svg>
