<svg width="38" height="24" viewBox="0 0 38 24" fill="none" xmlns="http://www.w3.org/2000/svg">
<rect x="2" y="1.98901" width="35" height="20" rx="10" fill="url(#paint0_linear_42_2641)"/>
<rect x="2" y="1.98901" width="35" height="20" rx="10" stroke="#A36BAC" stroke-width="3" stroke-linejoin="round"/>
<path d="M10.0371 15.989V7.39917H15.9258V8.85229H11.7715V10.8855H15.3574V12.3386H11.7715V15.989H10.0371ZM21.2109 15.989H19.5645V9.78394C18.9629 10.3464 18.2539 10.7625 17.4375 11.032V9.53784C17.8672 9.39722 18.334 9.13159 18.8379 8.74097C19.3418 8.34644 19.6875 7.88745 19.875 7.36401H21.2109V15.989ZM26.4609 7.36401C27.293 7.36401 27.9434 7.66089 28.4121 8.25464C28.9707 8.95776 29.25 10.1238 29.25 11.7527C29.25 13.3777 28.9688 14.5457 28.4062 15.2566C27.9414 15.8425 27.293 16.1355 26.4609 16.1355C25.625 16.1355 24.9512 15.8152 24.4395 15.1746C23.9277 14.53 23.6719 13.3835 23.6719 11.7351C23.6719 10.1179 23.9531 8.95386 24.5156 8.24292C24.9805 7.65698 25.6289 7.36401 26.4609 7.36401ZM26.4609 8.72925C26.2617 8.72925 26.084 8.7937 25.9277 8.92261C25.7715 9.04761 25.6504 9.27417 25.5645 9.60229C25.4512 10.0281 25.3945 10.7449 25.3945 11.7527C25.3945 12.7605 25.4453 13.4539 25.5469 13.8328C25.6484 14.2078 25.7754 14.4578 25.9277 14.5828C26.084 14.7078 26.2617 14.7703 26.4609 14.7703C26.6602 14.7703 26.8379 14.7078 26.9941 14.5828C27.1504 14.4539 27.2715 14.2253 27.3574 13.8972C27.4707 13.4753 27.5273 12.7605 27.5273 11.7527C27.5273 10.7449 27.4766 10.0535 27.375 9.67847C27.2734 9.29956 27.1445 9.04761 26.9883 8.92261C26.8359 8.7937 26.6602 8.72925 26.4609 8.72925Z" fill="white"/>
<defs>
<linearGradient id="paint0_linear_42_2641" x1="19.5" y1="1.98901" x2="19.5" y2="21.989" gradientUnits="userSpaceOnUse">
<stop stop-color="#A36BAC"/>
<stop offset="1" stop-color="#305F5B"/>
</linearGradient>
</defs>
</svg>
