<svg width="58" height="24" viewBox="0 0 58 24" fill="none" xmlns="http://www.w3.org/2000/svg">
<rect x="2" y="1.98901" width="55" height="20" rx="10" fill="url(#paint0_linear_42_2723)"/>
<rect x="2" y="1.98901" width="55" height="20" rx="10" stroke="#135618" stroke-width="3" stroke-linejoin="round"/>
<path d="M10.3691 15.989V7.39917H16.2578V8.85229H12.1035V10.8855H15.6895V12.3386H12.1035V15.989H10.3691ZM17.3418 11.7468C17.3418 10.8718 17.4727 10.1375 17.7344 9.5437C17.9297 9.1062 18.1953 8.71362 18.5312 8.36597C18.8711 8.01831 19.2422 7.7605 19.6445 7.59253C20.1797 7.36597 20.7969 7.25269 21.4961 7.25269C22.7617 7.25269 23.7734 7.64526 24.5312 8.43042C25.293 9.21558 25.6738 10.3074 25.6738 11.7058C25.6738 13.0925 25.2969 14.1785 24.543 14.9636C23.7891 15.7449 22.7812 16.1355 21.5195 16.1355C20.2422 16.1355 19.2266 15.7468 18.4727 14.9695C17.7188 14.1882 17.3418 13.114 17.3418 11.7468ZM19.1289 11.6882C19.1289 12.6609 19.3535 13.3992 19.8027 13.9031C20.252 14.4031 20.8223 14.6531 21.5137 14.6531C22.2051 14.6531 22.7715 14.405 23.2129 13.9089C23.6582 13.4089 23.8809 12.6609 23.8809 11.6648C23.8809 10.6804 23.6641 9.94604 23.2305 9.46167C22.8008 8.97729 22.2285 8.73511 21.5137 8.73511C20.7988 8.73511 20.2227 8.9812 19.7852 9.47339C19.3477 9.96167 19.1289 10.7 19.1289 11.6882ZM26.1602 15.989L29.0957 11.5066L26.4355 7.39917H28.4629L30.1855 10.1589L31.873 7.39917H33.8828L31.2109 11.571L34.1465 15.989H32.0547L30.1504 13.0183L28.2402 15.989H26.1602ZM42.7832 15.989H40.8965L40.1465 14.0378H36.7129L36.0039 15.989H34.1641L37.5098 7.39917H39.3438L42.7832 15.989ZM39.5898 12.5906L38.4062 9.40308L37.2461 12.5906H39.5898ZM48.9062 14.4597V15.989H43.1348C43.1973 15.4109 43.3848 14.864 43.6973 14.3484C44.0098 13.8289 44.627 13.1414 45.5488 12.2859C46.291 11.5945 46.7461 11.1257 46.9141 10.8796C47.1406 10.5398 47.2539 10.2039 47.2539 9.87183C47.2539 9.50464 47.1543 9.22339 46.9551 9.02808C46.7598 8.82886 46.4883 8.72925 46.1406 8.72925C45.7969 8.72925 45.5234 8.83276 45.3203 9.03979C45.1172 9.24683 45 9.59058 44.9688 10.071L43.3281 9.90698C43.4258 9.00073 43.7324 8.35034 44.248 7.95581C44.7637 7.56128 45.4082 7.36401 46.1816 7.36401C47.0293 7.36401 47.6953 7.59253 48.1797 8.04956C48.6641 8.50659 48.9062 9.07495 48.9062 9.75464C48.9062 10.1414 48.8359 10.5105 48.6953 10.8621C48.5586 11.2097 48.3398 11.575 48.0391 11.9578C47.8398 12.2117 47.4805 12.5769 46.9609 13.0535C46.4414 13.53 46.1113 13.8464 45.9707 14.0027C45.834 14.1589 45.7227 14.3113 45.6367 14.4597H48.9062Z" fill="white"/>
<defs>
<linearGradient id="paint0_linear_42_2723" x1="29.5" y1="1.98901" x2="29.5" y2="21.989" gradientUnits="userSpaceOnUse">
<stop stop-color="#135618"/>
<stop offset="1" stop-color="#5AF756"/>
</linearGradient>
</defs>
</svg>
