<svg width="57" height="24" viewBox="0 0 57 24" fill="none" xmlns="http://www.w3.org/2000/svg">
<rect x="2" y="1.98901" width="54" height="20" rx="10" fill="url(#paint0_linear_83_1982)"/>
<rect x="2" y="1.98901" width="54" height="20" rx="10" stroke="#A5C426" stroke-width="3" stroke-linejoin="round"/>
<path d="M9.75195 13.1941L11.4395 13.03C11.541 13.5964 11.7461 14.0125 12.0547 14.2781C12.3672 14.5437 12.7871 14.6765 13.3145 14.6765C13.873 14.6765 14.293 14.5593 14.5742 14.325C14.8594 14.0867 15.002 13.8093 15.002 13.4929C15.002 13.2898 14.9414 13.1179 14.8203 12.9773C14.7031 12.8328 14.4961 12.7078 14.1992 12.6023C13.9961 12.532 13.5332 12.407 12.8105 12.2273C11.8809 11.9968 11.2285 11.7136 10.8535 11.3777C10.3262 10.905 10.0625 10.3289 10.0625 9.64917C10.0625 9.21167 10.1855 8.80347 10.4316 8.42456C10.6816 8.04175 11.0391 7.75073 11.5039 7.55151C11.9727 7.35229 12.5371 7.25269 13.1973 7.25269C14.2754 7.25269 15.0859 7.48901 15.6289 7.96167C16.1758 8.43433 16.4629 9.06519 16.4902 9.85425L14.7559 9.93042C14.6816 9.48901 14.5215 9.17261 14.2754 8.9812C14.0332 8.78589 13.668 8.68823 13.1797 8.68823C12.6758 8.68823 12.2812 8.79175 11.9961 8.99878C11.8125 9.13159 11.7207 9.30933 11.7207 9.53198C11.7207 9.73511 11.8066 9.90894 11.9785 10.0535C12.1973 10.2371 12.7285 10.4285 13.5723 10.6277C14.416 10.8269 15.0391 11.0339 15.4414 11.2488C15.8477 11.4597 16.1641 11.7507 16.3906 12.1218C16.6211 12.489 16.7363 12.9441 16.7363 13.4871C16.7363 13.9792 16.5996 14.4402 16.3262 14.8699C16.0527 15.2996 15.666 15.6199 15.166 15.8308C14.666 16.0378 14.043 16.1414 13.2969 16.1414C12.2109 16.1414 11.377 15.8914 10.7949 15.3914C10.2129 14.8875 9.86523 14.155 9.75195 13.1941ZM20.1289 15.989V8.85229H17.5801V7.39917H24.4062V8.85229H21.8633V15.989H20.1289ZM25.5371 15.989V7.39917H29.1875C30.1055 7.39917 30.7715 7.47729 31.1855 7.63354C31.6035 7.78589 31.9375 8.05933 32.1875 8.45386C32.4375 8.84839 32.5625 9.29956 32.5625 9.80737C32.5625 10.4519 32.373 10.9851 31.9941 11.407C31.6152 11.825 31.0488 12.0886 30.2949 12.198C30.6699 12.4167 30.9785 12.657 31.2207 12.9187C31.4668 13.1804 31.7969 13.6453 32.2109 14.3132L33.2598 15.989H31.1855L29.9316 14.1199C29.4863 13.4519 29.1816 13.032 29.0176 12.8601C28.8535 12.6843 28.6797 12.5652 28.4961 12.5027C28.3125 12.4363 28.0215 12.4031 27.623 12.4031H27.2715V15.989H25.5371ZM27.2715 11.032H28.5547C29.3867 11.032 29.9062 10.9968 30.1133 10.9265C30.3203 10.8562 30.4824 10.7351 30.5996 10.5632C30.7168 10.3914 30.7754 10.1765 30.7754 9.9187C30.7754 9.62964 30.6973 9.39722 30.541 9.22144C30.3887 9.04175 30.1719 8.92847 29.8906 8.88159C29.75 8.86206 29.3281 8.85229 28.625 8.85229H27.2715V11.032ZM41.9492 15.989H40.0625L39.3125 14.0378H35.8789L35.1699 15.989H33.3301L36.6758 7.39917H38.5098L41.9492 15.989ZM38.7559 12.5906L37.5723 9.40308L36.4121 12.5906H38.7559ZM48.0898 9.50269L46.4961 9.67847C46.457 9.35034 46.3555 9.10815 46.1914 8.9519C46.0273 8.79565 45.8145 8.71753 45.5527 8.71753C45.2051 8.71753 44.9102 8.87378 44.668 9.18628C44.4297 9.49878 44.2793 10.1492 44.2168 11.1375C44.627 10.6531 45.1367 10.4109 45.7461 10.4109C46.4336 10.4109 47.0215 10.6726 47.5098 11.196C48.002 11.7195 48.248 12.3953 48.248 13.2234C48.248 14.1023 47.9902 14.8074 47.4746 15.3386C46.959 15.8699 46.2969 16.1355 45.4883 16.1355C44.6211 16.1355 43.9082 15.7996 43.3496 15.1277C42.791 14.4519 42.5117 13.3464 42.5117 11.8113C42.5117 10.2371 42.8027 9.10229 43.3848 8.40698C43.9668 7.71167 44.7227 7.36401 45.6523 7.36401C46.3047 7.36401 46.8438 7.54761 47.2695 7.91479C47.6992 8.27808 47.9727 8.80737 48.0898 9.50269ZM44.3574 13.0945C44.3574 13.6296 44.4805 14.0437 44.7266 14.3367C44.9727 14.6257 45.2539 14.7703 45.5703 14.7703C45.875 14.7703 46.1289 14.6511 46.332 14.4128C46.5352 14.1746 46.6367 13.7839 46.6367 13.241C46.6367 12.6824 46.5273 12.2742 46.3086 12.0164C46.0898 11.7546 45.8164 11.6238 45.4883 11.6238C45.1719 11.6238 44.9043 11.7488 44.6855 11.9988C44.4668 12.2449 44.3574 12.6101 44.3574 13.0945Z" fill="white"/>
<defs>
<linearGradient id="paint0_linear_83_1982" x1="29" y1="1.98901" x2="29" y2="21.989" gradientUnits="userSpaceOnUse">
<stop stop-color="#CC00E7"/>
<stop offset="1" stop-color="#A5C426"/>
</linearGradient>
</defs>
</svg>
