<svg width="52" height="24" viewBox="0 0 52 24" fill="none" xmlns="http://www.w3.org/2000/svg">
<rect x="2" y="1.98901" width="49" height="20" rx="10" fill="url(#paint0_linear_45_4247)"/>
<rect x="2" y="1.98901" width="49" height="20" rx="10" stroke="#FF9914" stroke-width="3" stroke-linejoin="round"/>
<path d="M14.0254 12.8308V11.3835H17.7637V14.8054C17.4004 15.157 16.873 15.4675 16.1816 15.7371C15.4941 16.0027 14.7969 16.1355 14.0898 16.1355C13.1914 16.1355 12.4082 15.948 11.7402 15.573C11.0723 15.1941 10.5703 14.655 10.2344 13.9558C9.89844 13.2527 9.73047 12.489 9.73047 11.6648C9.73047 10.7703 9.91797 9.97534 10.293 9.28003C10.668 8.58472 11.2168 8.05151 11.9395 7.68042C12.4902 7.39526 13.1758 7.25269 13.9961 7.25269C15.0625 7.25269 15.8945 7.47729 16.4922 7.92651C17.0938 8.37183 17.4805 8.98901 17.6523 9.77808L15.9297 10.1003C15.8086 9.67847 15.5801 9.34644 15.2441 9.10425C14.9121 8.85815 14.4961 8.73511 13.9961 8.73511C13.2383 8.73511 12.6348 8.97534 12.1855 9.45581C11.7402 9.93628 11.5176 10.6492 11.5176 11.5945C11.5176 12.614 11.7441 13.3796 12.1973 13.8914C12.6504 14.3992 13.2441 14.6531 13.9785 14.6531C14.3418 14.6531 14.7051 14.5828 15.0684 14.4421C15.4355 14.2976 15.75 14.1238 16.0117 13.9207V12.8308H14.0254ZM19.3867 15.989V7.39917H21.0742L24.5898 13.1355V7.39917H26.2012V15.989H24.4609L20.998 10.3875V15.989H19.3867ZM35.7871 15.989H33.9004L33.1504 14.0378H29.7168L29.0078 15.989H27.168L30.5137 7.39917H32.3477L35.7871 15.989ZM32.5938 12.5906L31.4102 9.40308L30.25 12.5906H32.5938ZM36.2734 13.1941L37.9609 13.03C38.0625 13.5964 38.2676 14.0125 38.5762 14.2781C38.8887 14.5437 39.3086 14.6765 39.8359 14.6765C40.3945 14.6765 40.8145 14.5593 41.0957 14.325C41.3809 14.0867 41.5234 13.8093 41.5234 13.4929C41.5234 13.2898 41.4629 13.1179 41.3418 12.9773C41.2246 12.8328 41.0176 12.7078 40.7207 12.6023C40.5176 12.532 40.0547 12.407 39.332 12.2273C38.4023 11.9968 37.75 11.7136 37.375 11.3777C36.8477 10.905 36.584 10.3289 36.584 9.64917C36.584 9.21167 36.707 8.80347 36.9531 8.42456C37.2031 8.04175 37.5605 7.75073 38.0254 7.55151C38.4941 7.35229 39.0586 7.25269 39.7188 7.25269C40.7969 7.25269 41.6074 7.48901 42.1504 7.96167C42.6973 8.43433 42.9844 9.06519 43.0117 9.85425L41.2773 9.93042C41.2031 9.48901 41.043 9.17261 40.7969 8.9812C40.5547 8.78589 40.1895 8.68823 39.7012 8.68823C39.1973 8.68823 38.8027 8.79175 38.5176 8.99878C38.334 9.13159 38.2422 9.30933 38.2422 9.53198C38.2422 9.73511 38.3281 9.90894 38.5 10.0535C38.7188 10.2371 39.25 10.4285 40.0938 10.6277C40.9375 10.8269 41.5605 11.0339 41.9629 11.2488C42.3691 11.4597 42.6855 11.7507 42.9121 12.1218C43.1426 12.489 43.2578 12.9441 43.2578 13.4871C43.2578 13.9792 43.1211 14.4402 42.8477 14.8699C42.5742 15.2996 42.1875 15.6199 41.6875 15.8308C41.1875 16.0378 40.5645 16.1414 39.8184 16.1414C38.7324 16.1414 37.8984 15.8914 37.3164 15.3914C36.7344 14.8875 36.3867 14.155 36.2734 13.1941Z" fill="white"/>
<defs>
<linearGradient id="paint0_linear_45_4247" x1="26.5" y1="1.98901" x2="26.5" y2="21.989" gradientUnits="userSpaceOnUse">
<stop stop-color="#FF9914"/>
<stop offset="1" stop-color="#0763E2"/>
</linearGradient>
</defs>
</svg>
