<svg width="53" height="24" viewBox="0 0 53 24" fill="none" xmlns="http://www.w3.org/2000/svg">
<rect x="2" y="1.98901" width="50" height="20" rx="10" fill="url(#paint0_linear_45_4259)"/>
<rect x="2" y="1.98901" width="50" height="20" rx="10" stroke="#FF5F5B" stroke-width="3" stroke-linejoin="round"/>
<path d="M14.1914 12.8308V11.3835H17.9297V14.8054C17.5664 15.157 17.0391 15.4675 16.3477 15.7371C15.6602 16.0027 14.9629 16.1355 14.2559 16.1355C13.3574 16.1355 12.5742 15.948 11.9062 15.573C11.2383 15.1941 10.7363 14.655 10.4004 13.9558C10.0645 13.2527 9.89648 12.489 9.89648 11.6648C9.89648 10.7703 10.084 9.97534 10.459 9.28003C10.834 8.58472 11.3828 8.05151 12.1055 7.68042C12.6562 7.39526 13.3418 7.25269 14.1621 7.25269C15.2285 7.25269 16.0605 7.47729 16.6582 7.92651C17.2598 8.37183 17.6465 8.98901 17.8184 9.77808L16.0957 10.1003C15.9746 9.67847 15.7461 9.34644 15.4102 9.10425C15.0781 8.85815 14.6621 8.73511 14.1621 8.73511C13.4043 8.73511 12.8008 8.97534 12.3516 9.45581C11.9062 9.93628 11.6836 10.6492 11.6836 11.5945C11.6836 12.614 11.9102 13.3796 12.3633 13.8914C12.8164 14.3992 13.4102 14.6531 14.1445 14.6531C14.5078 14.6531 14.8711 14.5828 15.2344 14.4421C15.6016 14.2976 15.916 14.1238 16.1777 13.9207V12.8308H14.1914ZM23.5312 12.8308V11.3835H27.2695V14.8054C26.9062 15.157 26.3789 15.4675 25.6875 15.7371C25 16.0027 24.3027 16.1355 23.5957 16.1355C22.6973 16.1355 21.9141 15.948 21.2461 15.573C20.5781 15.1941 20.0762 14.655 19.7402 13.9558C19.4043 13.2527 19.2363 12.489 19.2363 11.6648C19.2363 10.7703 19.4238 9.97534 19.7988 9.28003C20.1738 8.58472 20.7227 8.05151 21.4453 7.68042C21.9961 7.39526 22.6816 7.25269 23.502 7.25269C24.5684 7.25269 25.4004 7.47729 25.998 7.92651C26.5996 8.37183 26.9863 8.98901 27.1582 9.77808L25.4355 10.1003C25.3145 9.67847 25.0859 9.34644 24.75 9.10425C24.418 8.85815 24.002 8.73511 23.502 8.73511C22.7441 8.73511 22.1406 8.97534 21.6914 9.45581C21.2461 9.93628 21.0234 10.6492 21.0234 11.5945C21.0234 12.614 21.25 13.3796 21.7031 13.8914C22.1562 14.3992 22.75 14.6531 23.4844 14.6531C23.8477 14.6531 24.2109 14.5828 24.5742 14.4421C24.9414 14.2976 25.2559 14.1238 25.5176 13.9207V12.8308H23.5312ZM34.3711 12.8308L36.0527 13.364C35.7949 14.3015 35.3652 14.9988 34.7637 15.4558C34.166 15.9089 33.4062 16.1355 32.4844 16.1355C31.3438 16.1355 30.4062 15.7468 29.6719 14.9695C28.9375 14.1882 28.5703 13.1218 28.5703 11.7703C28.5703 10.3406 28.9395 9.2312 29.6777 8.44214C30.416 7.64917 31.3867 7.25269 32.5898 7.25269C33.6406 7.25269 34.4941 7.56323 35.1504 8.18433C35.541 8.55151 35.834 9.07886 36.0293 9.76636L34.3125 10.1765C34.2109 9.7312 33.998 9.37964 33.6738 9.12183C33.3535 8.86401 32.9629 8.73511 32.502 8.73511C31.8652 8.73511 31.3477 8.96362 30.9492 9.42065C30.5547 9.87769 30.3574 10.6179 30.3574 11.6414C30.3574 12.7273 30.5527 13.5007 30.9434 13.9617C31.334 14.4226 31.8418 14.6531 32.4668 14.6531C32.9277 14.6531 33.3242 14.5066 33.6562 14.2136C33.9883 13.9207 34.2266 13.4597 34.3711 12.8308ZM36.6738 15.989L39.6094 11.5066L36.9492 7.39917H38.9766L40.6992 10.1589L42.3867 7.39917H44.3965L41.7246 11.571L44.6602 15.989H42.5684L40.6641 13.0183L38.7539 15.989H36.6738Z" fill="white"/>
<defs>
<linearGradient id="paint0_linear_45_4259" x1="27" y1="1.98901" x2="27" y2="21.989" gradientUnits="userSpaceOnUse">
<stop stop-color="#FF5F5B"/>
<stop offset="1" stop-color="#7A92CD"/>
</linearGradient>
</defs>
</svg>
