<svg width="57" height="24" viewBox="0 0 57 24" fill="none" xmlns="http://www.w3.org/2000/svg">
<rect x="2" y="1.98901" width="54" height="20" rx="10" fill="url(#paint0_linear_65_1989)"/>
<rect x="2" y="1.98901" width="54" height="20" rx="10" stroke="#8D7BFF" stroke-width="3" stroke-linejoin="round"/>
<path d="M10.1914 15.989V7.39917H12.9746C14.0293 7.39917 14.7168 7.44214 15.0371 7.52808C15.5293 7.65698 15.9414 7.93823 16.2734 8.37183C16.6055 8.80151 16.7715 9.35815 16.7715 10.0417C16.7715 10.5691 16.6758 11.0125 16.4844 11.3718C16.293 11.7312 16.0488 12.0144 15.752 12.2214C15.459 12.4246 15.1602 12.5593 14.8555 12.6257C14.4414 12.7078 13.8418 12.7488 13.0566 12.7488H11.9258V15.989H10.1914ZM11.9258 8.85229V11.2898H12.875C13.5586 11.2898 14.0156 11.2449 14.2461 11.155C14.4766 11.0652 14.6562 10.9246 14.7852 10.7332C14.918 10.5417 14.9844 10.3191 14.9844 10.0652C14.9844 9.75269 14.8926 9.49487 14.709 9.29175C14.5254 9.08862 14.293 8.96167 14.0117 8.91089C13.8047 8.87183 13.3887 8.85229 12.7637 8.85229H11.9258ZM18.2422 15.989V7.46948H19.9766V14.5417H24.2891V15.989H18.2422ZM31.0273 12.8308L32.709 13.364C32.4512 14.3015 32.0215 14.9988 31.4199 15.4558C30.8223 15.9089 30.0625 16.1355 29.1406 16.1355C28 16.1355 27.0625 15.7468 26.3281 14.9695C25.5938 14.1882 25.2266 13.1218 25.2266 11.7703C25.2266 10.3406 25.5957 9.2312 26.334 8.44214C27.0723 7.64917 28.043 7.25269 29.2461 7.25269C30.2969 7.25269 31.1504 7.56323 31.8066 8.18433C32.1973 8.55151 32.4902 9.07886 32.6855 9.76636L30.9688 10.1765C30.8672 9.7312 30.6543 9.37964 30.3301 9.12183C30.0098 8.86401 29.6191 8.73511 29.1582 8.73511C28.5215 8.73511 28.0039 8.96362 27.6055 9.42065C27.2109 9.87769 27.0137 10.6179 27.0137 11.6414C27.0137 12.7273 27.209 13.5007 27.5996 13.9617C27.9902 14.4226 28.498 14.6531 29.123 14.6531C29.584 14.6531 29.9805 14.5066 30.3125 14.2136C30.6445 13.9207 30.8828 13.4597 31.0273 12.8308ZM34.209 7.39917H37.6426C38.3223 7.39917 38.8281 7.42847 39.1602 7.48706C39.4961 7.54175 39.7949 7.65894 40.0566 7.83862C40.3223 8.01831 40.543 8.25854 40.7188 8.55933C40.8945 8.8562 40.9824 9.19019 40.9824 9.56128C40.9824 9.96362 40.873 10.3328 40.6543 10.6687C40.4395 11.0046 40.1465 11.2566 39.7754 11.4246C40.2988 11.5769 40.7012 11.8367 40.9824 12.2039C41.2637 12.571 41.4043 13.0027 41.4043 13.4988C41.4043 13.8894 41.3125 14.2703 41.1289 14.6414C40.9492 15.0085 40.7012 15.3035 40.3848 15.5261C40.0723 15.7449 39.6855 15.8796 39.2246 15.9304C38.9355 15.9617 38.2383 15.9812 37.1328 15.989H34.209V7.39917ZM35.9434 8.82886V10.8152H37.0801C37.7559 10.8152 38.1758 10.8054 38.3398 10.7859C38.6367 10.7507 38.8691 10.6492 39.0371 10.4812C39.209 10.3093 39.2949 10.0847 39.2949 9.80737C39.2949 9.54175 39.2207 9.3269 39.0723 9.16284C38.9277 8.99487 38.7109 8.89331 38.4219 8.85815C38.25 8.83862 37.7559 8.82886 36.9395 8.82886H35.9434ZM35.9434 12.2449V14.5417H37.5488C38.1738 14.5417 38.5703 14.5242 38.7383 14.489C38.9961 14.4421 39.2051 14.3289 39.3652 14.1492C39.5293 13.9656 39.6113 13.7214 39.6113 13.4167C39.6113 13.1589 39.5488 12.9402 39.4238 12.7605C39.2988 12.5808 39.1172 12.45 38.8789 12.3679C38.6445 12.2859 38.1328 12.2449 37.3438 12.2449H35.9434ZM46.7246 15.989H45.0781V9.78394C44.4766 10.3464 43.7676 10.7625 42.9512 11.032V9.53784C43.3809 9.39722 43.8477 9.13159 44.3516 8.74097C44.8555 8.34644 45.2012 7.88745 45.3887 7.36401H46.7246V15.989Z" fill="white"/>
<defs>
<linearGradient id="paint0_linear_65_1989" x1="29" y1="1.98901" x2="29" y2="21.989" gradientUnits="userSpaceOnUse">
<stop stop-color="#8D7BFF"/>
<stop offset="1" stop-color="#D93660"/>
</linearGradient>
</defs>
</svg>
