<svg width="58" height="24" viewBox="0 0 58 24" fill="none" xmlns="http://www.w3.org/2000/svg">
<rect x="2" y="1.98901" width="55" height="20" rx="10" fill="url(#paint0_linear_67_1961)"/>
<rect x="2" y="1.98901" width="55" height="20" rx="10" stroke="#7FDE81" stroke-width="3" stroke-linejoin="round"/>
<path d="M9.58398 13.1941L11.2715 13.03C11.373 13.5964 11.5781 14.0125 11.8867 14.2781C12.1992 14.5437 12.6191 14.6765 13.1465 14.6765C13.7051 14.6765 14.125 14.5593 14.4062 14.325C14.6914 14.0867 14.834 13.8093 14.834 13.4929C14.834 13.2898 14.7734 13.1179 14.6523 12.9773C14.5352 12.8328 14.3281 12.7078 14.0312 12.6023C13.8281 12.532 13.3652 12.407 12.6426 12.2273C11.7129 11.9968 11.0605 11.7136 10.6855 11.3777C10.1582 10.905 9.89453 10.3289 9.89453 9.64917C9.89453 9.21167 10.0176 8.80347 10.2637 8.42456C10.5137 8.04175 10.8711 7.75073 11.3359 7.55151C11.8047 7.35229 12.3691 7.25269 13.0293 7.25269C14.1074 7.25269 14.918 7.48901 15.4609 7.96167C16.0078 8.43433 16.2949 9.06519 16.3223 9.85425L14.5879 9.93042C14.5137 9.48901 14.3535 9.17261 14.1074 8.9812C13.8652 8.78589 13.5 8.68823 13.0117 8.68823C12.5078 8.68823 12.1133 8.79175 11.8281 8.99878C11.6445 9.13159 11.5527 9.30933 11.5527 9.53198C11.5527 9.73511 11.6387 9.90894 11.8105 10.0535C12.0293 10.2371 12.5605 10.4285 13.4043 10.6277C14.248 10.8269 14.8711 11.0339 15.2734 11.2488C15.6797 11.4597 15.9961 11.7507 16.2227 12.1218C16.4531 12.489 16.5684 12.9441 16.5684 13.4871C16.5684 13.9792 16.4316 14.4402 16.1582 14.8699C15.8848 15.2996 15.498 15.6199 14.998 15.8308C14.498 16.0378 13.875 16.1414 13.1289 16.1414C12.043 16.1414 11.209 15.8914 10.627 15.3914C10.0449 14.8875 9.69727 14.155 9.58398 13.1941ZM17.6758 11.7468C17.6758 10.8718 17.8066 10.1375 18.0684 9.5437C18.2637 9.1062 18.5293 8.71362 18.8652 8.36597C19.2051 8.01831 19.5762 7.7605 19.9785 7.59253C20.5137 7.36597 21.1309 7.25269 21.8301 7.25269C23.0957 7.25269 24.1074 7.64526 24.8652 8.43042C25.627 9.21558 26.0078 10.3074 26.0078 11.7058C26.0078 13.0925 25.6309 14.1785 24.877 14.9636C24.123 15.7449 23.1152 16.1355 21.8535 16.1355C20.5762 16.1355 19.5605 15.7468 18.8066 14.9695C18.0527 14.1882 17.6758 13.114 17.6758 11.7468ZM19.4629 11.6882C19.4629 12.6609 19.6875 13.3992 20.1367 13.9031C20.5859 14.4031 21.1562 14.6531 21.8477 14.6531C22.5391 14.6531 23.1055 14.405 23.5469 13.9089C23.9922 13.4089 24.2148 12.6609 24.2148 11.6648C24.2148 10.6804 23.998 9.94604 23.5645 9.46167C23.1348 8.97729 22.5625 8.73511 21.8477 8.73511C21.1328 8.73511 20.5566 8.9812 20.1191 9.47339C19.6816 9.96167 19.4629 10.7 19.4629 11.6882ZM32.8633 12.8308L34.5449 13.364C34.2871 14.3015 33.8574 14.9988 33.2559 15.4558C32.6582 15.9089 31.8984 16.1355 30.9766 16.1355C29.8359 16.1355 28.8984 15.7468 28.1641 14.9695C27.4297 14.1882 27.0625 13.1218 27.0625 11.7703C27.0625 10.3406 27.4316 9.2312 28.1699 8.44214C28.9082 7.64917 29.8789 7.25269 31.082 7.25269C32.1328 7.25269 32.9863 7.56323 33.6426 8.18433C34.0332 8.55151 34.3262 9.07886 34.5215 9.76636L32.8047 10.1765C32.7031 9.7312 32.4902 9.37964 32.166 9.12183C31.8457 8.86401 31.4551 8.73511 30.9941 8.73511C30.3574 8.73511 29.8398 8.96362 29.4414 9.42065C29.0469 9.87769 28.8496 10.6179 28.8496 11.6414C28.8496 12.7273 29.0449 13.5007 29.4355 13.9617C29.8262 14.4226 30.334 14.6531 30.959 14.6531C31.4199 14.6531 31.8164 14.5066 32.1484 14.2136C32.4805 13.9207 32.7188 13.4597 32.8633 12.8308ZM35.5996 13.1941L37.2871 13.03C37.3887 13.5964 37.5938 14.0125 37.9023 14.2781C38.2148 14.5437 38.6348 14.6765 39.1621 14.6765C39.7207 14.6765 40.1406 14.5593 40.4219 14.325C40.707 14.0867 40.8496 13.8093 40.8496 13.4929C40.8496 13.2898 40.7891 13.1179 40.668 12.9773C40.5508 12.8328 40.3438 12.7078 40.0469 12.6023C39.8438 12.532 39.3809 12.407 38.6582 12.2273C37.7285 11.9968 37.0762 11.7136 36.7012 11.3777C36.1738 10.905 35.9102 10.3289 35.9102 9.64917C35.9102 9.21167 36.0332 8.80347 36.2793 8.42456C36.5293 8.04175 36.8867 7.75073 37.3516 7.55151C37.8203 7.35229 38.3848 7.25269 39.0449 7.25269C40.123 7.25269 40.9336 7.48901 41.4766 7.96167C42.0234 8.43433 42.3105 9.06519 42.3379 9.85425L40.6035 9.93042C40.5293 9.48901 40.3691 9.17261 40.123 8.9812C39.8809 8.78589 39.5156 8.68823 39.0273 8.68823C38.5234 8.68823 38.1289 8.79175 37.8438 8.99878C37.6602 9.13159 37.5684 9.30933 37.5684 9.53198C37.5684 9.73511 37.6543 9.90894 37.8262 10.0535C38.0449 10.2371 38.5762 10.4285 39.4199 10.6277C40.2637 10.8269 40.8867 11.0339 41.2891 11.2488C41.6953 11.4597 42.0117 11.7507 42.2383 12.1218C42.4688 12.489 42.584 12.9441 42.584 13.4871C42.584 13.9792 42.4473 14.4402 42.1738 14.8699C41.9004 15.2996 41.5137 15.6199 41.0137 15.8308C40.5137 16.0378 39.8906 16.1414 39.1445 16.1414C38.0586 16.1414 37.2246 15.8914 36.6426 15.3914C36.0605 14.8875 35.7129 14.155 35.5996 13.1941ZM43.6211 13.7097L45.2148 13.5164C45.2656 13.9226 45.4023 14.2332 45.625 14.448C45.8477 14.6628 46.1172 14.7703 46.4336 14.7703C46.7734 14.7703 47.0586 14.6414 47.2891 14.3835C47.5234 14.1257 47.6406 13.7781 47.6406 13.3406C47.6406 12.9265 47.5293 12.5984 47.3066 12.3562C47.084 12.114 46.8125 11.9929 46.4922 11.9929C46.2812 11.9929 46.0293 12.0339 45.7363 12.116L45.918 10.7742C46.3633 10.7859 46.7031 10.6902 46.9375 10.4871C47.1719 10.28 47.2891 10.0066 47.2891 9.66675C47.2891 9.37769 47.2031 9.14722 47.0312 8.97534C46.8594 8.80347 46.6309 8.71753 46.3457 8.71753C46.0645 8.71753 45.8242 8.81519 45.625 9.0105C45.4258 9.20581 45.3047 9.49097 45.2617 9.86597L43.7441 9.60815C43.8496 9.08862 44.0078 8.67456 44.2188 8.36597C44.4336 8.05347 44.7305 7.80933 45.1094 7.63354C45.4922 7.45386 45.9199 7.36401 46.3926 7.36401C47.2012 7.36401 47.8496 7.62183 48.3379 8.13745C48.7402 8.55933 48.9414 9.03589 48.9414 9.56714C48.9414 10.321 48.5293 10.9226 47.7051 11.3718C48.1973 11.4773 48.5898 11.7136 48.8828 12.0808C49.1797 12.448 49.3281 12.8914 49.3281 13.4109C49.3281 14.1648 49.0527 14.8074 48.502 15.3386C47.9512 15.8699 47.2656 16.1355 46.4453 16.1355C45.668 16.1355 45.0234 15.9128 44.5117 15.4675C44 15.0183 43.7031 14.4324 43.6211 13.7097Z" fill="white"/>
<defs>
<linearGradient id="paint0_linear_67_1961" x1="29.5" y1="1.98901" x2="29.5" y2="21.989" gradientUnits="userSpaceOnUse">
<stop stop-color="#7FDE81"/>
<stop offset="1" stop-color="#AC4600"/>
</linearGradient>
</defs>
</svg>
