<svg width="48" height="24" viewBox="0 0 48 24" fill="none" xmlns="http://www.w3.org/2000/svg">
<rect x="2" y="1.98901" width="45" height="20" rx="10" fill="url(#paint0_linear_42_2596)"/>
<rect x="2" y="1.98901" width="45" height="20" rx="10" stroke="#5661F7" stroke-width="3" stroke-linejoin="round"/>
<path d="M10.0273 15.989V7.39917H16.3965V8.85229H11.7617V10.7566H16.0742V12.2039H11.7617V14.5417H16.5605V15.989H10.0273ZM18.0371 7.39917H21.4707C22.1504 7.39917 22.6562 7.42847 22.9883 7.48706C23.3242 7.54175 23.623 7.65894 23.8848 7.83862C24.1504 8.01831 24.3711 8.25854 24.5469 8.55933C24.7227 8.8562 24.8105 9.19019 24.8105 9.56128C24.8105 9.96362 24.7012 10.3328 24.4824 10.6687C24.2676 11.0046 23.9746 11.2566 23.6035 11.4246C24.127 11.5769 24.5293 11.8367 24.8105 12.2039C25.0918 12.571 25.2324 13.0027 25.2324 13.4988C25.2324 13.8894 25.1406 14.2703 24.957 14.6414C24.7773 15.0085 24.5293 15.3035 24.2129 15.5261C23.9004 15.7449 23.5137 15.8796 23.0527 15.9304C22.7637 15.9617 22.0664 15.9812 20.9609 15.989H18.0371V7.39917ZM19.7715 8.82886V10.8152H20.9082C21.584 10.8152 22.0039 10.8054 22.168 10.7859C22.4648 10.7507 22.6973 10.6492 22.8652 10.4812C23.0371 10.3093 23.123 10.0847 23.123 9.80737C23.123 9.54175 23.0488 9.3269 22.9004 9.16284C22.7559 8.99487 22.5391 8.89331 22.25 8.85815C22.0781 8.83862 21.584 8.82886 20.7676 8.82886H19.7715ZM19.7715 12.2449V14.5417H21.377C22.002 14.5417 22.3984 14.5242 22.5664 14.489C22.8242 14.4421 23.0332 14.3289 23.1934 14.1492C23.3574 13.9656 23.4395 13.7214 23.4395 13.4167C23.4395 13.1589 23.377 12.9402 23.252 12.7605C23.127 12.5808 22.9453 12.45 22.707 12.3679C22.4727 12.2859 21.9609 12.2449 21.1719 12.2449H19.7715ZM26.7148 15.989V7.39917H32.6035V8.85229H28.4492V10.8855H32.0352V12.3386H28.4492V15.989H26.7148ZM39.2363 14.4597V15.989H33.4648C33.5273 15.4109 33.7148 14.864 34.0273 14.3484C34.3398 13.8289 34.957 13.1414 35.8789 12.2859C36.6211 11.5945 37.0762 11.1257 37.2441 10.8796C37.4707 10.5398 37.584 10.2039 37.584 9.87183C37.584 9.50464 37.4844 9.22339 37.2852 9.02808C37.0898 8.82886 36.8184 8.72925 36.4707 8.72925C36.127 8.72925 35.8535 8.83276 35.6504 9.03979C35.4473 9.24683 35.3301 9.59058 35.2988 10.071L33.6582 9.90698C33.7559 9.00073 34.0625 8.35034 34.5781 7.95581C35.0938 7.56128 35.7383 7.36401 36.5117 7.36401C37.3594 7.36401 38.0254 7.59253 38.5098 8.04956C38.9941 8.50659 39.2363 9.07495 39.2363 9.75464C39.2363 10.1414 39.166 10.5105 39.0254 10.8621C38.8887 11.2097 38.6699 11.575 38.3691 11.9578C38.1699 12.2117 37.8105 12.5769 37.291 13.0535C36.7715 13.53 36.4414 13.8464 36.3008 14.0027C36.1641 14.1589 36.0527 14.3113 35.9668 14.4597H39.2363Z" fill="white"/>
<defs>
<linearGradient id="paint0_linear_42_2596" x1="24.5" y1="1.98901" x2="24.5" y2="21.989" gradientUnits="userSpaceOnUse">
<stop stop-color="#5661F7"/>
<stop offset="1" stop-color="#000875"/>
</linearGradient>
</defs>
</svg>
