<svg width="59" height="24" viewBox="0 0 59 24" fill="none" xmlns="http://www.w3.org/2000/svg">
<rect x="2" y="1.98901" width="56" height="20" rx="10" fill="url(#paint0_linear_38_1873)"/>
<rect x="2" y="1.98901" width="56" height="20" rx="10" stroke="#483275" stroke-width="3" stroke-linejoin="round"/>
<path d="M15.6855 12.8308L17.3672 13.364C17.1094 14.3015 16.6797 14.9988 16.0781 15.4558C15.4805 15.9089 14.7207 16.1355 13.7988 16.1355C12.6582 16.1355 11.7207 15.7468 10.9863 14.9695C10.252 14.1882 9.88477 13.1218 9.88477 11.7703C9.88477 10.3406 10.2539 9.2312 10.9922 8.44214C11.7305 7.64917 12.7012 7.25269 13.9043 7.25269C14.9551 7.25269 15.8086 7.56323 16.4648 8.18433C16.8555 8.55151 17.1484 9.07886 17.3438 9.76636L15.627 10.1765C15.5254 9.7312 15.3125 9.37964 14.9883 9.12183C14.668 8.86401 14.2773 8.73511 13.8164 8.73511C13.1797 8.73511 12.6621 8.96362 12.2637 9.42065C11.8691 9.87769 11.6719 10.6179 11.6719 11.6414C11.6719 12.7273 11.8672 13.5007 12.2578 13.9617C12.6484 14.4226 13.1562 14.6531 13.7812 14.6531C14.2422 14.6531 14.6387 14.5066 14.9707 14.2136C15.3027 13.9207 15.541 13.4597 15.6855 12.8308ZM22.7109 15.989H21.0645V9.78394C20.4629 10.3464 19.7539 10.7625 18.9375 11.032V9.53784C19.3672 9.39722 19.834 9.13159 20.3379 8.74097C20.8418 8.34644 21.1875 7.88745 21.375 7.36401H22.7109V15.989ZM32.4551 14.8992C32.8809 15.2039 33.3438 15.446 33.8438 15.6257L33.2051 16.8503C32.9434 16.7722 32.6875 16.6648 32.4375 16.5281C32.3828 16.5007 31.998 16.2468 31.2832 15.7664C30.7207 16.0125 30.0977 16.1355 29.4141 16.1355C28.0938 16.1355 27.0586 15.7468 26.3086 14.9695C25.5625 14.1921 25.1895 13.1003 25.1895 11.6941C25.1895 10.2917 25.5645 9.2019 26.3145 8.42456C27.0645 7.64331 28.082 7.25269 29.3672 7.25269C30.6406 7.25269 31.6504 7.64331 32.3965 8.42456C33.1426 9.2019 33.5156 10.2917 33.5156 11.6941C33.5156 12.4363 33.4121 13.0886 33.2051 13.6511C33.0488 14.0808 32.7988 14.4968 32.4551 14.8992ZM31.0605 13.9207C31.2832 13.6589 31.4492 13.3425 31.5586 12.9714C31.6719 12.6003 31.7285 12.1746 31.7285 11.6941C31.7285 10.7019 31.5098 9.96167 31.0723 9.47339C30.6348 8.9812 30.0625 8.73511 29.3555 8.73511C28.6484 8.73511 28.0742 8.9812 27.6328 9.47339C27.1953 9.96558 26.9766 10.7058 26.9766 11.6941C26.9766 12.698 27.1953 13.45 27.6328 13.95C28.0742 14.446 28.6309 14.6941 29.3027 14.6941C29.5527 14.6941 29.7891 14.6531 30.0117 14.571C29.6602 14.3406 29.3027 14.1609 28.9395 14.032L29.4258 13.0417C29.9961 13.2371 30.541 13.53 31.0605 13.9207ZM34.8867 7.39917H38.3203C39 7.39917 39.5059 7.42847 39.8379 7.48706C40.1738 7.54175 40.4727 7.65894 40.7344 7.83862C41 8.01831 41.2207 8.25854 41.3965 8.55933C41.5723 8.8562 41.6602 9.19019 41.6602 9.56128C41.6602 9.96362 41.5508 10.3328 41.332 10.6687C41.1172 11.0046 40.8242 11.2566 40.4531 11.4246C40.9766 11.5769 41.3789 11.8367 41.6602 12.2039C41.9414 12.571 42.082 13.0027 42.082 13.4988C42.082 13.8894 41.9902 14.2703 41.8066 14.6414C41.627 15.0085 41.3789 15.3035 41.0625 15.5261C40.75 15.7449 40.3633 15.8796 39.9023 15.9304C39.6133 15.9617 38.916 15.9812 37.8105 15.989H34.8867V7.39917ZM36.6211 8.82886V10.8152H37.7578C38.4336 10.8152 38.8535 10.8054 39.0176 10.7859C39.3145 10.7507 39.5469 10.6492 39.7148 10.4812C39.8867 10.3093 39.9727 10.0847 39.9727 9.80737C39.9727 9.54175 39.8984 9.3269 39.75 9.16284C39.6055 8.99487 39.3887 8.89331 39.0996 8.85815C38.9277 8.83862 38.4336 8.82886 37.6172 8.82886H36.6211ZM36.6211 12.2449V14.5417H38.2266C38.8516 14.5417 39.248 14.5242 39.416 14.489C39.6738 14.4421 39.8828 14.3289 40.043 14.1492C40.207 13.9656 40.2891 13.7214 40.2891 13.4167C40.2891 13.1589 40.2266 12.9402 40.1016 12.7605C39.9766 12.5808 39.7949 12.45 39.5566 12.3679C39.3223 12.2859 38.8105 12.2449 38.0215 12.2449H36.6211ZM43.5527 15.989V7.39917H46.3359C47.3906 7.39917 48.0781 7.44214 48.3984 7.52808C48.8906 7.65698 49.3027 7.93823 49.6348 8.37183C49.9668 8.80151 50.1328 9.35815 50.1328 10.0417C50.1328 10.5691 50.0371 11.0125 49.8457 11.3718C49.6543 11.7312 49.4102 12.0144 49.1133 12.2214C48.8203 12.4246 48.5215 12.5593 48.2168 12.6257C47.8027 12.7078 47.2031 12.7488 46.418 12.7488H45.2871V15.989H43.5527ZM45.2871 8.85229V11.2898H46.2363C46.9199 11.2898 47.377 11.2449 47.6074 11.155C47.8379 11.0652 48.0176 10.9246 48.1465 10.7332C48.2793 10.5417 48.3457 10.3191 48.3457 10.0652C48.3457 9.75269 48.2539 9.49487 48.0703 9.29175C47.8867 9.08862 47.6543 8.96167 47.373 8.91089C47.166 8.87183 46.75 8.85229 46.125 8.85229H45.2871Z" fill="white"/>
<defs>
<linearGradient id="paint0_linear_38_1873" x1="30" y1="1.98901" x2="30" y2="21.989" gradientUnits="userSpaceOnUse">
<stop stop-color="#483275"/>
<stop offset="1" stop-color="#A2D870"/>
</linearGradient>
</defs>
</svg>
