<svg width="48" height="49" viewBox="0 0 48 49" fill="none" xmlns="http://www.w3.org/2000/svg">
<rect x="2" y="1.98901" width="44" height="46" rx="10" fill="#A18536"/>
<rect x="2" y="1.98901" width="44" height="46" rx="10" stroke="url(#paint0_linear_13_522)" stroke-width="3" stroke-linejoin="round"/>
<path d="M14.9414 14.989H13.0547L12.3047 13.0378H8.87109L8.16211 14.989H6.32227L9.66797 6.39917H11.502L14.9414 14.989ZM11.748 11.5906L10.5645 8.40308L9.4043 11.5906H11.748ZM15.873 14.989V6.39917H19.5234C20.4414 6.39917 21.1074 6.47729 21.5215 6.63354C21.9395 6.78589 22.2734 7.05933 22.5234 7.45386C22.7734 7.84839 22.8984 8.29956 22.8984 8.80737C22.8984 9.4519 22.709 9.98511 22.3301 10.407C21.9512 10.825 21.3848 11.0886 20.6309 11.198C21.0059 11.4167 21.3145 11.657 21.5566 11.9187C21.8027 12.1804 22.1328 12.6453 22.5469 13.3132L23.5957 14.989H21.5215L20.2676 13.1199C19.8223 12.4519 19.5176 12.032 19.3535 11.8601C19.1895 11.6843 19.0156 11.5652 18.832 11.5027C18.6484 11.4363 18.3574 11.4031 17.959 11.4031H17.6074V14.989H15.873ZM17.6074 10.032H18.8906C19.7227 10.032 20.2422 9.99683 20.4492 9.92651C20.6562 9.8562 20.8184 9.73511 20.9355 9.56323C21.0527 9.39136 21.1113 9.17651 21.1113 8.9187C21.1113 8.62964 21.0332 8.39722 20.877 8.22144C20.7246 8.04175 20.5078 7.92847 20.2266 7.88159C20.0859 7.86206 19.6641 7.85229 18.9609 7.85229H17.6074V10.032ZM32.2852 14.989H30.3984L29.6484 13.0378H26.2148L25.5059 14.989H23.666L27.0117 6.39917H28.8457L32.2852 14.989ZM29.0918 11.5906L27.9082 8.40308L26.748 11.5906H29.0918ZM33.2227 14.989V6.39917H39.1113V7.85229H34.957V9.8855H38.543V11.3386H34.957V14.989H33.2227ZM39.1582 13.3425H40.8047V14.5203C40.8047 14.9968 40.7637 15.3718 40.6816 15.6453C40.5996 15.9226 40.4434 16.1707 40.2129 16.3894C39.9863 16.6082 39.6973 16.78 39.3457 16.905L39.0234 16.2253C39.3555 16.116 39.5918 15.9656 39.7324 15.7742C39.873 15.5828 39.9473 15.321 39.9551 14.989H39.1582V13.3425ZM7.20117 20.3992H10.6348C11.3145 20.3992 11.8203 20.4285 12.1523 20.4871C12.4883 20.5417 12.7871 20.6589 13.0488 20.8386C13.3145 21.0183 13.5352 21.2585 13.7109 21.5593C13.8867 21.8562 13.9746 22.1902 13.9746 22.5613C13.9746 22.9636 13.8652 23.3328 13.6465 23.6687C13.4316 24.0046 13.1387 24.2566 12.7676 24.4246C13.291 24.5769 13.6934 24.8367 13.9746 25.2039C14.2559 25.571 14.3965 26.0027 14.3965 26.4988C14.3965 26.8894 14.3047 27.2703 14.1211 27.6414C13.9414 28.0085 13.6934 28.3035 13.377 28.5261C13.0645 28.7449 12.6777 28.8796 12.2168 28.9304C11.9277 28.9617 11.2305 28.9812 10.125 28.989H7.20117V20.3992ZM8.93555 21.8289V23.8152H10.0723C10.748 23.8152 11.168 23.8054 11.332 23.7859C11.6289 23.7507 11.8613 23.6492 12.0293 23.4812C12.2012 23.3093 12.2871 23.0847 12.2871 22.8074C12.2871 22.5417 12.2129 22.3269 12.0645 22.1628C11.9199 21.9949 11.7031 21.8933 11.4141 21.8582C11.2422 21.8386 10.748 21.8289 9.93164 21.8289H8.93555ZM8.93555 25.2449V27.5417H10.541C11.166 27.5417 11.5625 27.5242 11.7305 27.489C11.9883 27.4421 12.1973 27.3289 12.3574 27.1492C12.5215 26.9656 12.6035 26.7214 12.6035 26.4167C12.6035 26.1589 12.541 25.9402 12.416 25.7605C12.291 25.5808 12.1094 25.45 11.8711 25.3679C11.6367 25.2859 11.125 25.2449 10.3359 25.2449H8.93555ZM15.873 28.989V20.3992H19.5234C20.4414 20.3992 21.1074 20.4773 21.5215 20.6335C21.9395 20.7859 22.2734 21.0593 22.5234 21.4539C22.7734 21.8484 22.8984 22.2996 22.8984 22.8074C22.8984 23.4519 22.709 23.9851 22.3301 24.407C21.9512 24.825 21.3848 25.0886 20.6309 25.198C21.0059 25.4167 21.3145 25.657 21.5566 25.9187C21.8027 26.1804 22.1328 26.6453 22.5469 27.3132L23.5957 28.989H21.5215L20.2676 27.1199C19.8223 26.4519 19.5176 26.032 19.3535 25.8601C19.1895 25.6843 19.0156 25.5652 18.832 25.5027C18.6484 25.4363 18.3574 25.4031 17.959 25.4031H17.6074V28.989H15.873ZM17.6074 24.032H18.8906C19.7227 24.032 20.2422 23.9968 20.4492 23.9265C20.6562 23.8562 20.8184 23.7351 20.9355 23.5632C21.0527 23.3914 21.1113 23.1765 21.1113 22.9187C21.1113 22.6296 21.0332 22.3972 20.877 22.2214C20.7246 22.0417 20.5078 21.9285 20.2266 21.8816C20.0859 21.8621 19.6641 21.8523 18.9609 21.8523H17.6074V24.032ZM32.2852 28.989H30.3984L29.6484 27.0378H26.2148L25.5059 28.989H23.666L27.0117 20.3992H28.8457L32.2852 28.989ZM29.0918 25.5906L27.9082 22.4031L26.748 25.5906H29.0918ZM33.2227 28.989V20.3992H39.1113V21.8523H34.957V23.8855H38.543V25.3386H34.957V28.989H33.2227ZM39.1582 27.3425H40.8047V28.5203C40.8047 28.9968 40.7637 29.3718 40.6816 29.6453C40.5996 29.9226 40.4434 30.1707 40.2129 30.3894C39.9863 30.6082 39.6973 30.78 39.3457 30.905L39.0234 30.2253C39.3555 30.116 39.5918 29.9656 39.7324 29.7742C39.873 29.5828 39.9473 29.321 39.9551 28.989H39.1582V27.3425ZM9.19922 42.989V34.3992H12.8496C13.7676 34.3992 14.4336 34.4773 14.8477 34.6335C15.2656 34.7859 15.5996 35.0593 15.8496 35.4539C16.0996 35.8484 16.2246 36.2996 16.2246 36.8074C16.2246 37.4519 16.0352 37.9851 15.6562 38.407C15.2773 38.825 14.7109 39.0886 13.957 39.198C14.332 39.4167 14.6406 39.657 14.8828 39.9187C15.1289 40.1804 15.459 40.6453 15.873 41.3132L16.9219 42.989H14.8477L13.5938 41.1199C13.1484 40.4519 12.8438 40.032 12.6797 39.8601C12.5156 39.6843 12.3418 39.5652 12.1582 39.5027C11.9746 39.4363 11.6836 39.4031 11.2852 39.4031H10.9336V42.989H9.19922ZM10.9336 38.032H12.2168C13.0488 38.032 13.5684 37.9968 13.7754 37.9265C13.9824 37.8562 14.1445 37.7351 14.2617 37.5632C14.3789 37.3914 14.4375 37.1765 14.4375 36.9187C14.4375 36.6296 14.3594 36.3972 14.2031 36.2214C14.0508 36.0417 13.834 35.9285 13.5527 35.8816C13.4121 35.8621 12.9902 35.8523 12.2871 35.8523H10.9336V38.032ZM25.6113 42.989H23.7246L22.9746 41.0378H19.541L18.832 42.989H16.9922L20.3379 34.3992H22.1719L25.6113 42.989ZM22.418 39.5906L21.2344 36.4031L20.0742 39.5906H22.418ZM26.5488 42.989V34.3992H32.4375V35.8523H28.2832V37.8855H31.8691V39.3386H28.2832V42.989H26.5488ZM37.7227 42.989H36.0762V36.7839C35.4746 37.3464 34.7656 37.7625 33.9492 38.032V36.5378C34.3789 36.3972 34.8457 36.1316 35.3496 35.741C35.8535 35.3464 36.1992 34.8875 36.3867 34.364H37.7227V42.989Z" fill="white"/>
<defs>
<linearGradient id="paint0_linear_13_522" x1="33.6787" y1="48.2491" x2="33.6787" y2="1.98901" gradientUnits="userSpaceOnUse">
<stop stop-color="#A18536"/>
<stop offset="1" stop-color="#002B4C"/>
</linearGradient>
</defs>
</svg>
