<svg width="49" height="24" viewBox="0 0 49 24" fill="none" xmlns="http://www.w3.org/2000/svg">
<rect x="2" y="1.98901" width="46" height="20" rx="10" fill="url(#paint0_linear_42_2649)"/>
<rect x="2" y="1.98901" width="46" height="20" rx="10" stroke="#82B6E2" stroke-width="3" stroke-linejoin="round"/>
<path d="M10.1934 15.989V7.39917H16.5625V8.85229H11.9277V10.7566H16.2402V12.2039H11.9277V14.5417H16.7266V15.989H10.1934ZM20.3887 15.989L17.3184 7.39917H19.1992L21.373 13.7566L23.4766 7.39917H25.3164L22.2402 15.989H20.3887ZM31.6973 12.8308L33.3789 13.364C33.1211 14.3015 32.6914 14.9988 32.0898 15.4558C31.4922 15.9089 30.7324 16.1355 29.8105 16.1355C28.6699 16.1355 27.7324 15.7468 26.998 14.9695C26.2637 14.1882 25.8965 13.1218 25.8965 11.7703C25.8965 10.3406 26.2656 9.2312 27.0039 8.44214C27.7422 7.64917 28.7129 7.25269 29.916 7.25269C30.9668 7.25269 31.8203 7.56323 32.4766 8.18433C32.8672 8.55151 33.1602 9.07886 33.3555 9.76636L31.6387 10.1765C31.5371 9.7312 31.3242 9.37964 31 9.12183C30.6797 8.86401 30.2891 8.73511 29.8281 8.73511C29.1914 8.73511 28.6738 8.96362 28.2754 9.42065C27.8809 9.87769 27.6836 10.6179 27.6836 11.6414C27.6836 12.7273 27.8789 13.5007 28.2695 13.9617C28.6602 14.4226 29.168 14.6531 29.793 14.6531C30.2539 14.6531 30.6504 14.5066 30.9824 14.2136C31.3145 13.9207 31.5527 13.4597 31.6973 12.8308ZM40.0703 14.4597V15.989H34.2988C34.3613 15.4109 34.5488 14.864 34.8613 14.3484C35.1738 13.8289 35.791 13.1414 36.7129 12.2859C37.4551 11.5945 37.9102 11.1257 38.0781 10.8796C38.3047 10.5398 38.418 10.2039 38.418 9.87183C38.418 9.50464 38.3184 9.22339 38.1191 9.02808C37.9238 8.82886 37.6523 8.72925 37.3047 8.72925C36.9609 8.72925 36.6875 8.83276 36.4844 9.03979C36.2812 9.24683 36.1641 9.59058 36.1328 10.071L34.4922 9.90698C34.5898 9.00073 34.8965 8.35034 35.4121 7.95581C35.9277 7.56128 36.5723 7.36401 37.3457 7.36401C38.1934 7.36401 38.8594 7.59253 39.3438 8.04956C39.8281 8.50659 40.0703 9.07495 40.0703 9.75464C40.0703 10.1414 40 10.5105 39.8594 10.8621C39.7227 11.2097 39.5039 11.575 39.2031 11.9578C39.0039 12.2117 38.6445 12.5769 38.125 13.0535C37.6055 13.53 37.2754 13.8464 37.1348 14.0027C36.998 14.1589 36.8867 14.3113 36.8008 14.4597H40.0703Z" fill="white"/>
<defs>
<linearGradient id="paint0_linear_42_2649" x1="25" y1="1.98901" x2="25" y2="21.989" gradientUnits="userSpaceOnUse">
<stop stop-color="#82B6E2"/>
<stop offset="1" stop-color="#5372CC"/>
</linearGradient>
</defs>
</svg>
