<svg width="64" height="24" viewBox="0 0 64 24" fill="none" xmlns="http://www.w3.org/2000/svg">
<rect x="2" y="1.98901" width="61" height="20" rx="10" fill="url(#paint0_linear_67_1962)"/>
<rect x="2" y="1.98901" width="61" height="20" rx="10" stroke="#5300D1" stroke-width="3" stroke-linejoin="round"/>
<path d="M9.57812 13.1941L11.2656 13.03C11.3672 13.5964 11.5723 14.0125 11.8809 14.2781C12.1934 14.5437 12.6133 14.6765 13.1406 14.6765C13.6992 14.6765 14.1191 14.5593 14.4004 14.325C14.6855 14.0867 14.8281 13.8093 14.8281 13.4929C14.8281 13.2898 14.7676 13.1179 14.6465 12.9773C14.5293 12.8328 14.3223 12.7078 14.0254 12.6023C13.8223 12.532 13.3594 12.407 12.6367 12.2273C11.707 11.9968 11.0547 11.7136 10.6797 11.3777C10.1523 10.905 9.88867 10.3289 9.88867 9.64917C9.88867 9.21167 10.0117 8.80347 10.2578 8.42456C10.5078 8.04175 10.8652 7.75073 11.3301 7.55151C11.7988 7.35229 12.3633 7.25269 13.0234 7.25269C14.1016 7.25269 14.9121 7.48901 15.4551 7.96167C16.002 8.43433 16.2891 9.06519 16.3164 9.85425L14.582 9.93042C14.5078 9.48901 14.3477 9.17261 14.1016 8.9812C13.8594 8.78589 13.4941 8.68823 13.0059 8.68823C12.502 8.68823 12.1074 8.79175 11.8223 8.99878C11.6387 9.13159 11.5469 9.30933 11.5469 9.53198C11.5469 9.73511 11.6328 9.90894 11.8047 10.0535C12.0234 10.2371 12.5547 10.4285 13.3984 10.6277C14.2422 10.8269 14.8652 11.0339 15.2676 11.2488C15.6738 11.4597 15.9902 11.7507 16.2168 12.1218C16.4473 12.489 16.5625 12.9441 16.5625 13.4871C16.5625 13.9792 16.4258 14.4402 16.1523 14.8699C15.8789 15.2996 15.4922 15.6199 14.9922 15.8308C14.4922 16.0378 13.8691 16.1414 13.123 16.1414C12.0371 16.1414 11.2031 15.8914 10.6211 15.3914C10.0391 14.8875 9.69141 14.155 9.57812 13.1941ZM18.0391 15.989V7.39917H19.7266L23.2422 13.1355V7.39917H24.8535V15.989H23.1133L19.6504 10.3875V15.989H18.0391ZM34.4395 15.989H32.5527L31.8027 14.0378H28.3691L27.6602 15.989H25.8203L29.166 7.39917H31L34.4395 15.989ZM31.2461 12.5906L30.0625 9.40308L28.9023 12.5906H31.2461ZM35.3652 15.989V7.39917H38.1484C39.2031 7.39917 39.8906 7.44214 40.2109 7.52808C40.7031 7.65698 41.1152 7.93823 41.4473 8.37183C41.7793 8.80151 41.9453 9.35815 41.9453 10.0417C41.9453 10.5691 41.8496 11.0125 41.6582 11.3718C41.4668 11.7312 41.2227 12.0144 40.9258 12.2214C40.6328 12.4246 40.334 12.5593 40.0293 12.6257C39.6152 12.7078 39.0156 12.7488 38.2305 12.7488H37.0996V15.989H35.3652ZM37.0996 8.85229V11.2898H38.0488C38.7324 11.2898 39.1895 11.2449 39.4199 11.155C39.6504 11.0652 39.8301 10.9246 39.959 10.7332C40.0918 10.5417 40.1582 10.3191 40.1582 10.0652C40.1582 9.75269 40.0664 9.49487 39.8828 9.29175C39.6992 9.08862 39.4668 8.96167 39.1855 8.91089C38.9785 8.87183 38.5625 8.85229 37.9375 8.85229H37.0996ZM48.5664 14.4597V15.989H42.7949C42.8574 15.4109 43.0449 14.864 43.3574 14.3484C43.6699 13.8289 44.2871 13.1414 45.209 12.2859C45.9512 11.5945 46.4062 11.1257 46.5742 10.8796C46.8008 10.5398 46.9141 10.2039 46.9141 9.87183C46.9141 9.50464 46.8145 9.22339 46.6152 9.02808C46.4199 8.82886 46.1484 8.72925 45.8008 8.72925C45.457 8.72925 45.1836 8.83276 44.9805 9.03979C44.7773 9.24683 44.6602 9.59058 44.6289 10.071L42.9883 9.90698C43.0859 9.00073 43.3926 8.35034 43.9082 7.95581C44.4238 7.56128 45.0684 7.36401 45.8418 7.36401C46.6895 7.36401 47.3555 7.59253 47.8398 8.04956C48.3242 8.50659 48.5664 9.07495 48.5664 9.75464C48.5664 10.1414 48.4961 10.5105 48.3555 10.8621C48.2188 11.2097 48 11.575 47.6992 11.9578C47.5 12.2117 47.1406 12.5769 46.6211 13.0535C46.1016 13.53 45.7715 13.8464 45.6309 14.0027C45.4941 14.1589 45.3828 14.3113 45.2969 14.4597H48.5664ZM49.709 13.78L51.3496 13.6101C51.3965 13.9812 51.5352 14.2761 51.7656 14.4949C51.9961 14.7097 52.2617 14.8171 52.5625 14.8171C52.9062 14.8171 53.1973 14.6785 53.4355 14.4011C53.6738 14.1199 53.793 13.698 53.793 13.1355C53.793 12.6082 53.6738 12.2136 53.4355 11.9519C53.2012 11.6863 52.8945 11.5535 52.5156 11.5535C52.043 11.5535 51.6191 11.7625 51.2441 12.1804L49.9082 11.9871L50.752 7.51636H55.1055V9.05737H52L51.7422 10.5164C52.1094 10.3328 52.4844 10.241 52.8672 10.241C53.5977 10.241 54.2168 10.5066 54.7246 11.0378C55.2324 11.5691 55.4863 12.2585 55.4863 13.1062C55.4863 13.8132 55.2812 14.4441 54.8711 14.9988C54.3125 15.7566 53.5371 16.1355 52.5449 16.1355C51.752 16.1355 51.1055 15.9226 50.6055 15.4968C50.1055 15.071 49.8066 14.4988 49.709 13.78Z" fill="white"/>
<defs>
<linearGradient id="paint0_linear_67_1962" x1="32.5" y1="1.98901" x2="32.5" y2="21.989" gradientUnits="userSpaceOnUse">
<stop stop-color="#5300D1"/>
<stop offset="1" stop-color="#DD1643"/>
</linearGradient>
</defs>
</svg>
