<svg width="60" height="24" viewBox="0 0 60 24" fill="none" xmlns="http://www.w3.org/2000/svg">
<rect x="2" y="1.98901" width="57" height="20" rx="10" fill="url(#paint0_linear_64_1840)"/>
<rect x="2" y="1.98901" width="57" height="20" rx="10" stroke="#1F5E20" stroke-width="3" stroke-linejoin="round"/>
<path d="M10.0039 15.989V7.39917H12.5996L14.1582 13.2585L15.6992 7.39917H18.3008V15.989H16.6895V9.22729L14.9844 15.989H13.3145L11.6152 9.22729V15.989H10.0039ZM22.2793 15.989V12.3738L19.1328 7.39917H21.166L23.1875 10.7976L25.168 7.39917H27.166L24.0078 12.3855V15.989H22.2793ZM27.6758 11.7468C27.6758 10.8718 27.8066 10.1375 28.0684 9.5437C28.2637 9.1062 28.5293 8.71362 28.8652 8.36597C29.2051 8.01831 29.5762 7.7605 29.9785 7.59253C30.5137 7.36597 31.1309 7.25269 31.8301 7.25269C33.0957 7.25269 34.1074 7.64526 34.8652 8.43042C35.627 9.21558 36.0078 10.3074 36.0078 11.7058C36.0078 13.0925 35.6309 14.1785 34.877 14.9636C34.123 15.7449 33.1152 16.1355 31.8535 16.1355C30.5762 16.1355 29.5605 15.7468 28.8066 14.9695C28.0527 14.1882 27.6758 13.114 27.6758 11.7468ZM29.4629 11.6882C29.4629 12.6609 29.6875 13.3992 30.1367 13.9031C30.5859 14.4031 31.1562 14.6531 31.8477 14.6531C32.5391 14.6531 33.1055 14.405 33.5469 13.9089C33.9922 13.4089 34.2148 12.6609 34.2148 11.6648C34.2148 10.6804 33.998 9.94604 33.5645 9.46167C33.1348 8.97729 32.5625 8.73511 31.8477 8.73511C31.1328 8.73511 30.5566 8.9812 30.1191 9.47339C29.6816 9.96167 29.4629 10.7 29.4629 11.6882ZM41.2168 15.989H39.5703V9.78394C38.9688 10.3464 38.2598 10.7625 37.4434 11.032V9.53784C37.873 9.39722 38.3398 9.13159 38.8438 8.74097C39.3477 8.34644 39.6934 7.88745 39.8809 7.36401H41.2168V15.989ZM49.543 12.8308L51.2246 13.364C50.9668 14.3015 50.5371 14.9988 49.9355 15.4558C49.3379 15.9089 48.5781 16.1355 47.6562 16.1355C46.5156 16.1355 45.5781 15.7468 44.8438 14.9695C44.1094 14.1882 43.7422 13.1218 43.7422 11.7703C43.7422 10.3406 44.1113 9.2312 44.8496 8.44214C45.5879 7.64917 46.5586 7.25269 47.7617 7.25269C48.8125 7.25269 49.666 7.56323 50.3223 8.18433C50.7129 8.55151 51.0059 9.07886 51.2012 9.76636L49.4844 10.1765C49.3828 9.7312 49.1699 9.37964 48.8457 9.12183C48.5254 8.86401 48.1348 8.73511 47.6738 8.73511C47.0371 8.73511 46.5195 8.96362 46.1211 9.42065C45.7266 9.87769 45.5293 10.6179 45.5293 11.6414C45.5293 12.7273 45.7246 13.5007 46.1152 13.9617C46.5059 14.4226 47.0137 14.6531 47.6387 14.6531C48.0996 14.6531 48.4961 14.5066 48.8281 14.2136C49.1602 13.9207 49.3984 13.4597 49.543 12.8308Z" fill="white"/>
<defs>
<linearGradient id="paint0_linear_64_1840" x1="30.5" y1="1.98901" x2="30.5" y2="21.989" gradientUnits="userSpaceOnUse">
<stop stop-color="#1F5E20"/>
<stop offset="1" stop-color="#D000A8"/>
</linearGradient>
</defs>
</svg>
