<svg width="57" height="24" viewBox="0 0 57 24" fill="none" xmlns="http://www.w3.org/2000/svg">
<rect x="2" y="1.98901" width="54" height="20" rx="10" fill="url(#paint0_linear_64_1847)"/>
<rect x="2" y="1.98901" width="54" height="20" rx="10" stroke="#952744" stroke-width="3" stroke-linejoin="round"/>
<path d="M10.1738 15.989V7.39917H12.7695L14.3281 13.2585L15.8691 7.39917H18.4707V15.989H16.8594V9.22729L15.1543 15.989H13.4844L11.7852 9.22729V15.989H10.1738ZM20.1816 7.39917H21.916V12.0515C21.916 12.7898 21.9375 13.2683 21.9805 13.4871C22.0547 13.8386 22.2305 14.1218 22.5078 14.3367C22.7891 14.5476 23.1719 14.6531 23.6562 14.6531C24.1484 14.6531 24.5195 14.5535 24.7695 14.3542C25.0195 14.1511 25.1699 13.9031 25.2207 13.6101C25.2715 13.3171 25.2969 12.8308 25.2969 12.1511V7.39917H27.0312V11.9109C27.0312 12.9421 26.9844 13.6707 26.8906 14.0964C26.7969 14.5222 26.623 14.8816 26.3691 15.1746C26.1191 15.4675 25.7832 15.7019 25.3613 15.8777C24.9395 16.0496 24.3887 16.1355 23.709 16.1355C22.8887 16.1355 22.2656 16.0417 21.8398 15.8542C21.418 15.6628 21.084 15.4167 20.8379 15.116C20.5918 14.8113 20.4297 14.4929 20.3516 14.1609C20.2383 13.6687 20.1816 12.9421 20.1816 11.9812V7.39917ZM34.3613 12.8308L36.043 13.364C35.7852 14.3015 35.3555 14.9988 34.7539 15.4558C34.1562 15.9089 33.3965 16.1355 32.4746 16.1355C31.334 16.1355 30.3965 15.7468 29.6621 14.9695C28.9277 14.1882 28.5605 13.1218 28.5605 11.7703C28.5605 10.3406 28.9297 9.2312 29.668 8.44214C30.4062 7.64917 31.377 7.25269 32.5801 7.25269C33.6309 7.25269 34.4844 7.56323 35.1406 8.18433C35.5312 8.55151 35.8242 9.07886 36.0195 9.76636L34.3027 10.1765C34.2012 9.7312 33.9883 9.37964 33.6641 9.12183C33.3438 8.86401 32.9531 8.73511 32.4922 8.73511C31.8555 8.73511 31.3379 8.96362 30.9395 9.42065C30.5449 9.87769 30.3477 10.6179 30.3477 11.6414C30.3477 12.7273 30.543 13.5007 30.9336 13.9617C31.3242 14.4226 31.832 14.6531 32.457 14.6531C32.918 14.6531 33.3145 14.5066 33.6465 14.2136C33.9785 13.9207 34.2168 13.4597 34.3613 12.8308ZM37.4844 15.989V7.39917H39.2188V15.989H37.4844ZM40.8945 15.989V7.39917H42.582L46.0977 13.1355V7.39917H47.709V15.989H45.9688L42.5059 10.3875V15.989H40.8945Z" fill="white"/>
<defs>
<linearGradient id="paint0_linear_64_1847" x1="29" y1="1.98901" x2="29" y2="21.989" gradientUnits="userSpaceOnUse">
<stop stop-color="#952744"/>
<stop offset="1" stop-color="#FFE5BA"/>
</linearGradient>
</defs>
</svg>
