<svg width="51" height="24" viewBox="0 0 51 24" fill="none" xmlns="http://www.w3.org/2000/svg">
<rect x="2" y="1.98901" width="48" height="20" rx="10" fill="url(#paint0_linear_64_1976)"/>
<rect x="2" y="1.98901" width="48" height="20" rx="10" stroke="url(#paint1_linear_64_1976)" stroke-width="3" stroke-linejoin="round"/>
<path d="M10.1973 15.989V7.39917H12.9805C14.0352 7.39917 14.7227 7.44214 15.043 7.52808C15.5352 7.65698 15.9473 7.93823 16.2793 8.37183C16.6113 8.80151 16.7773 9.35815 16.7773 10.0417C16.7773 10.5691 16.6816 11.0125 16.4902 11.3718C16.2988 11.7312 16.0547 12.0144 15.7578 12.2214C15.4648 12.4246 15.166 12.5593 14.8613 12.6257C14.4473 12.7078 13.8477 12.7488 13.0625 12.7488H11.9316V15.989H10.1973ZM11.9316 8.85229V11.2898H12.8809C13.5645 11.2898 14.0215 11.2449 14.252 11.155C14.4824 11.0652 14.6621 10.9246 14.791 10.7332C14.9238 10.5417 14.9902 10.3191 14.9902 10.0652C14.9902 9.75269 14.8984 9.49487 14.7148 9.29175C14.5312 9.08862 14.2988 8.96167 14.0176 8.91089C13.8105 8.87183 13.3945 8.85229 12.7695 8.85229H11.9316ZM17.8496 11.7468C17.8496 10.8718 17.9805 10.1375 18.2422 9.5437C18.4375 9.1062 18.7031 8.71362 19.0391 8.36597C19.3789 8.01831 19.75 7.7605 20.1523 7.59253C20.6875 7.36597 21.3047 7.25269 22.0039 7.25269C23.2695 7.25269 24.2812 7.64526 25.0391 8.43042C25.8008 9.21558 26.1816 10.3074 26.1816 11.7058C26.1816 13.0925 25.8047 14.1785 25.0508 14.9636C24.2969 15.7449 23.2891 16.1355 22.0273 16.1355C20.75 16.1355 19.7344 15.7468 18.9805 14.9695C18.2266 14.1882 17.8496 13.114 17.8496 11.7468ZM19.6367 11.6882C19.6367 12.6609 19.8613 13.3992 20.3105 13.9031C20.7598 14.4031 21.3301 14.6531 22.0215 14.6531C22.7129 14.6531 23.2793 14.405 23.7207 13.9089C24.166 13.4089 24.3887 12.6609 24.3887 11.6648C24.3887 10.6804 24.1719 9.94604 23.7383 9.46167C23.3086 8.97729 22.7363 8.73511 22.0215 8.73511C21.3066 8.73511 20.7305 8.9812 20.293 9.47339C19.8555 9.96167 19.6367 10.7 19.6367 11.6882ZM27.5879 15.989V7.46948H29.3223V14.5417H33.6348V15.989H27.5879ZM34.8828 7.39917H38.3164C38.9961 7.39917 39.502 7.42847 39.834 7.48706C40.1699 7.54175 40.4688 7.65894 40.7305 7.83862C40.9961 8.01831 41.2168 8.25854 41.3926 8.55933C41.5684 8.8562 41.6562 9.19019 41.6562 9.56128C41.6562 9.96362 41.5469 10.3328 41.3281 10.6687C41.1133 11.0046 40.8203 11.2566 40.4492 11.4246C40.9727 11.5769 41.375 11.8367 41.6562 12.2039C41.9375 12.571 42.0781 13.0027 42.0781 13.4988C42.0781 13.8894 41.9863 14.2703 41.8027 14.6414C41.623 15.0085 41.375 15.3035 41.0586 15.5261C40.7461 15.7449 40.3594 15.8796 39.8984 15.9304C39.6094 15.9617 38.9121 15.9812 37.8066 15.989H34.8828V7.39917ZM36.6172 8.82886V10.8152H37.7539C38.4297 10.8152 38.8496 10.8054 39.0137 10.7859C39.3105 10.7507 39.543 10.6492 39.7109 10.4812C39.8828 10.3093 39.9688 10.0847 39.9688 9.80737C39.9688 9.54175 39.8945 9.3269 39.7461 9.16284C39.6016 8.99487 39.3848 8.89331 39.0957 8.85815C38.9238 8.83862 38.4297 8.82886 37.6133 8.82886H36.6172ZM36.6172 12.2449V14.5417H38.2227C38.8477 14.5417 39.2441 14.5242 39.4121 14.489C39.6699 14.4421 39.8789 14.3289 40.0391 14.1492C40.2031 13.9656 40.2852 13.7214 40.2852 13.4167C40.2852 13.1589 40.2227 12.9402 40.0977 12.7605C39.9727 12.5808 39.791 12.45 39.5527 12.3679C39.3184 12.2859 38.8066 12.2449 38.0176 12.2449H36.6172Z" fill="white"/>
<defs>
<linearGradient id="paint0_linear_64_1976" x1="26" y1="1.98901" x2="26" y2="21.989" gradientUnits="userSpaceOnUse">
<stop stop-color="#240417"/>
<stop offset="1" stop-color="#41A279"/>
</linearGradient>
<linearGradient id="paint1_linear_64_1976" x1="26" y1="1.98901" x2="26" y2="21.989" gradientUnits="userSpaceOnUse">
<stop stop-color="#A2317B"/>
<stop offset="1" stop-color="#B78520"/>
</linearGradient>
</defs>
</svg>
