<svg width="36" height="21" viewBox="0 0 36 21" fill="none" xmlns="http://www.w3.org/2000/svg">
<path d="M18.2017 10.2755C27.8712 10.2755 35.7098 8.05518 35.7098 5.31623C35.7098 2.57729 27.8712 0.356934 18.2017 0.356934C8.53225 0.356934 0.693604 2.57729 0.693604 5.31623C0.693604 8.05518 8.53225 10.2755 18.2017 10.2755Z" fill="url(#paint0_radial_90_4377)"/>
<path d="M18.2017 20.1378C27.8712 20.1378 35.7098 17.9175 35.7098 15.1785C35.7098 12.4396 27.8712 10.2192 18.2017 10.2192C8.53225 10.2192 0.693604 12.4396 0.693604 15.1785C0.693604 17.9175 8.53225 20.1378 18.2017 20.1378Z" fill="url(#paint1_radial_90_4377)"/>
<defs>
<radialGradient id="paint0_radial_90_4377" cx="0" cy="0" r="1" gradientUnits="userSpaceOnUse" gradientTransform="translate(14.6337 3.96633) rotate(-90) scale(11.0335 16.1707)">
<stop stop-color="#BEFFB2"/>
<stop offset="0.036" stop-color="#B3F6A7"/>
<stop offset="0.1994" stop-color="#87D07A"/>
<stop offset="0.3639" stop-color="#63B054"/>
<stop offset="0.527" stop-color="#469837"/>
<stop offset="0.6882" stop-color="#328623"/>
<stop offset="0.8469" stop-color="#267C16"/>
<stop offset="1" stop-color="#227812"/>
</radialGradient>
<radialGradient id="paint1_radial_90_4377" cx="0" cy="0" r="1" gradientUnits="userSpaceOnUse" gradientTransform="translate(14.6337 13.8286) rotate(-90) scale(11.0335 16.1707)">
<stop stop-color="#BEFFB2"/>
<stop offset="0.036" stop-color="#B3F6A7"/>
<stop offset="0.1994" stop-color="#87D07A"/>
<stop offset="0.3639" stop-color="#63B054"/>
<stop offset="0.527" stop-color="#469837"/>
<stop offset="0.6882" stop-color="#328623"/>
<stop offset="0.8469" stop-color="#267C16"/>
<stop offset="1" stop-color="#227812"/>
</radialGradient>
</defs>
</svg>
