<svg width="89" height="46" viewBox="0 0 89 46" fill="none" xmlns="http://www.w3.org/2000/svg">
<path d="M70.3284 4.32464V10.2408C70.3284 12.1615 68.7714 13.7185 66.8507 13.7185H21.7952C19.8745 13.7185 18.3175 12.1615 18.3175 10.2408V4.32454C18.3175 1.55114 15.2419 -0.0852614 12.9147 1.42334C5.06065 6.51484 0.210449 13.5046 0.210449 21.2213C0.210449 36.7988 19.9603 45.4266 44.3229 45.4266C68.6856 45.4266 88.4354 36.7988 88.4354 21.2213C88.4354 13.5047 83.5854 6.51484 75.7311 1.42334C73.4041 -0.0852614 70.3284 1.55124 70.3284 4.32464Z" fill="url(#paint0_radial_97_5855)"/>
<path d="M31.0308 30.8933V22.3035H32.7651V30.8933H31.0308ZM34.4351 30.8933V22.3035H40.3237V23.7566H36.1694V25.7898H39.7554V27.2429H36.1694V30.8933H34.4351ZM41.7065 30.8933V22.3035H43.4409V30.8933H41.7065ZM48.9487 30.8933H47.3022V24.6882C46.7007 25.2507 45.9917 25.6667 45.1753 25.9363V24.4421C45.605 24.3015 46.0718 24.0359 46.5757 23.6453C47.0796 23.2507 47.4253 22.7917 47.6128 22.2683H48.9487V30.8933ZM56.9937 24.407L55.3999 24.5828C55.3608 24.2546 55.2593 24.0125 55.0952 23.8562C54.9312 23.7 54.7183 23.6218 54.4565 23.6218C54.1089 23.6218 53.814 23.7781 53.5718 24.0906C53.3335 24.4031 53.1831 25.0535 53.1206 26.0417C53.5308 25.5574 54.0405 25.3152 54.6499 25.3152C55.3374 25.3152 55.9253 25.5769 56.4136 26.1003C56.9058 26.6238 57.1519 27.2996 57.1519 28.1277C57.1519 29.0066 56.894 29.7117 56.3784 30.2429C55.8628 30.7742 55.2007 31.0398 54.3921 31.0398C53.5249 31.0398 52.812 30.7039 52.2534 30.032C51.6948 29.3562 51.4155 28.2507 51.4155 26.7156C51.4155 25.1414 51.7065 24.0066 52.2886 23.3113C52.8706 22.616 53.6265 22.2683 54.5562 22.2683C55.2085 22.2683 55.7476 22.4519 56.1733 22.8191C56.603 23.1824 56.8765 23.7117 56.9937 24.407ZM53.2612 27.9988C53.2612 28.5339 53.3843 28.948 53.6304 29.241C53.8765 29.53 54.1577 29.6746 54.4741 29.6746C54.7788 29.6746 55.0327 29.5554 55.2358 29.3171C55.439 29.0789 55.5405 28.6882 55.5405 28.1453C55.5405 27.5867 55.4312 27.1785 55.2124 26.9207C54.9937 26.6589 54.7202 26.5281 54.3921 26.5281C54.0757 26.5281 53.8081 26.6531 53.5894 26.9031C53.3706 27.1492 53.2612 27.5144 53.2612 27.9988Z" fill="white"/>
<defs>
<radialGradient id="paint0_radial_97_5855" cx="0" cy="0" r="1" gradientUnits="userSpaceOnUse" gradientTransform="translate(43.5677 -124.742) rotate(89.5416) scale(170.217 157.349)">
<stop offset="0.7524" stop-color="#0B3C45"/>
<stop offset="0.8699" stop-color="#54BACC"/>
<stop offset="0.8874" stop-color="#50B3C4"/>
<stop offset="0.9143" stop-color="#449FAF"/>
<stop offset="0.9472" stop-color="#317E8C"/>
<stop offset="0.9846" stop-color="#17515B"/>
<stop offset="1" stop-color="#0B3C45"/>
</radialGradient>
</defs>
</svg>
