<svg width="133" height="24" viewBox="0 0 133 24" fill="none" xmlns="http://www.w3.org/2000/svg">
<rect x="1" y="1.98901" width="131" height="20" rx="10" fill="url(#paint0_linear_37_1585)"/>
<rect x="1" y="1.98901" width="131" height="20" rx="10" stroke="url(#paint1_linear_37_1585)" stroke-width="3" stroke-linejoin="round"/>
<path d="M8.89062 7.39917H12.3242C13.0039 7.39917 13.5098 7.42847 13.8418 7.48706C14.1777 7.54175 14.4766 7.65894 14.7383 7.83862C15.0039 8.01831 15.2246 8.25854 15.4004 8.55933C15.5762 8.8562 15.6641 9.19019 15.6641 9.56128C15.6641 9.96362 15.5547 10.3328 15.3359 10.6687C15.1211 11.0046 14.8281 11.2566 14.457 11.4246C14.9805 11.5769 15.3828 11.8367 15.6641 12.2039C15.9453 12.571 16.0859 13.0027 16.0859 13.4988C16.0859 13.8894 15.9941 14.2703 15.8105 14.6414C15.6309 15.0085 15.3828 15.3035 15.0664 15.5261C14.7539 15.7449 14.3672 15.8796 13.9062 15.9304C13.6172 15.9617 12.9199 15.9812 11.8145 15.989H8.89062V7.39917ZM10.625 8.82886V10.8152H11.7617C12.4375 10.8152 12.8574 10.8054 13.0215 10.7859C13.3184 10.7507 13.5508 10.6492 13.7188 10.4812C13.8906 10.3093 13.9766 10.0847 13.9766 9.80737C13.9766 9.54175 13.9023 9.3269 13.7539 9.16284C13.6094 8.99487 13.3926 8.89331 13.1035 8.85815C12.9316 8.83862 12.4375 8.82886 11.6211 8.82886H10.625ZM10.625 12.2449V14.5417H12.2305C12.8555 14.5417 13.252 14.5242 13.4199 14.489C13.6777 14.4421 13.8867 14.3289 14.0469 14.1492C14.2109 13.9656 14.293 13.7214 14.293 13.4167C14.293 13.1589 14.2305 12.9402 14.1055 12.7605C13.9805 12.5808 13.7988 12.45 13.5605 12.3679C13.3262 12.2859 12.8145 12.2449 12.0254 12.2449H10.625ZM17.2051 11.7468C17.2051 10.8718 17.3359 10.1375 17.5977 9.5437C17.793 9.1062 18.0586 8.71362 18.3945 8.36597C18.7344 8.01831 19.1055 7.7605 19.5078 7.59253C20.043 7.36597 20.6602 7.25269 21.3594 7.25269C22.625 7.25269 23.6367 7.64526 24.3945 8.43042C25.1562 9.21558 25.5371 10.3074 25.5371 11.7058C25.5371 13.0925 25.1602 14.1785 24.4062 14.9636C23.6523 15.7449 22.6445 16.1355 21.3828 16.1355C20.1055 16.1355 19.0898 15.7468 18.3359 14.9695C17.582 14.1882 17.2051 13.114 17.2051 11.7468ZM18.9922 11.6882C18.9922 12.6609 19.2168 13.3992 19.666 13.9031C20.1152 14.4031 20.6855 14.6531 21.377 14.6531C22.0684 14.6531 22.6348 14.405 23.0762 13.9089C23.5215 13.4089 23.7441 12.6609 23.7441 11.6648C23.7441 10.6804 23.5273 9.94604 23.0938 9.46167C22.6641 8.97729 22.0918 8.73511 21.377 8.73511C20.6621 8.73511 20.0859 8.9812 19.6484 9.47339C19.2109 9.96167 18.9922 10.7 18.9922 11.6882ZM26.0234 15.989L28.959 11.5066L26.2988 7.39917H28.3262L30.0488 10.1589L31.7363 7.39917H33.7461L31.0742 11.571L34.0098 15.989H31.918L30.0137 13.0183L28.1035 15.989H26.0234ZM38.2461 15.989V7.39917H39.9805V10.78H43.3789V7.39917H45.1133V15.989H43.3789V12.2332H39.9805V15.989H38.2461ZM46.0215 16.1355L48.1484 7.25269H49.3848L47.2344 16.1355H46.0215ZM57.998 15.989H56.1113L55.3613 14.0378H51.9277L51.2188 15.989H49.3789L52.7246 7.39917H54.5586L57.998 15.989ZM54.8047 12.5906L53.6211 9.40308L52.4609 12.5906H54.8047ZM64.4199 12.8308L66.1016 13.364C65.8438 14.3015 65.4141 14.9988 64.8125 15.4558C64.2148 15.9089 63.4551 16.1355 62.5332 16.1355C61.3926 16.1355 60.4551 15.7468 59.7207 14.9695C58.9863 14.1882 58.6191 13.1218 58.6191 11.7703C58.6191 10.3406 58.9883 9.2312 59.7266 8.44214C60.4648 7.64917 61.4355 7.25269 62.6387 7.25269C63.6895 7.25269 64.543 7.56323 65.1992 8.18433C65.5898 8.55151 65.8828 9.07886 66.0781 9.76636L64.3613 10.1765C64.2598 9.7312 64.0469 9.37964 63.7227 9.12183C63.4023 8.86401 63.0117 8.73511 62.5508 8.73511C61.9141 8.73511 61.3965 8.96362 60.998 9.42065C60.6035 9.87769 60.4062 10.6179 60.4062 11.6414C60.4062 12.7273 60.6016 13.5007 60.9922 13.9617C61.3828 14.4226 61.8906 14.6531 62.5156 14.6531C62.9766 14.6531 63.373 14.5066 63.7051 14.2136C64.0371 13.9207 64.2754 13.4597 64.4199 12.8308ZM75.3418 15.989H73.4551L72.7051 14.0378H69.2715L68.5625 15.989H66.7227L70.0684 7.39917H71.9023L75.3418 15.989ZM72.1484 12.5906L70.9648 9.40308L69.8047 12.5906H72.1484ZM78.5703 14.2136L80.2227 13.9617C80.293 14.282 80.4355 14.5261 80.6504 14.6941C80.8652 14.8582 81.166 14.9402 81.5527 14.9402C81.9785 14.9402 82.2988 14.8621 82.5137 14.7058C82.6582 14.5964 82.7305 14.45 82.7305 14.2664C82.7305 14.1414 82.6914 14.0378 82.6133 13.9558C82.5312 13.8777 82.3477 13.8054 82.0625 13.739C80.7344 13.446 79.8926 13.1785 79.5371 12.9363C79.0449 12.6003 78.7988 12.1335 78.7988 11.5359C78.7988 10.9968 79.0117 10.5437 79.4375 10.1765C79.8633 9.80933 80.5234 9.62573 81.418 9.62573C82.2695 9.62573 82.9023 9.7644 83.3164 10.0417C83.7305 10.3191 84.0156 10.7292 84.1719 11.2722L82.6191 11.5593C82.5527 11.3171 82.4258 11.1316 82.2383 11.0027C82.0547 10.8738 81.791 10.8093 81.4473 10.8093C81.0137 10.8093 80.7031 10.8699 80.5156 10.991C80.3906 11.0769 80.3281 11.1882 80.3281 11.325C80.3281 11.4421 80.3828 11.5417 80.4922 11.6238C80.6406 11.7332 81.1523 11.8875 82.0273 12.0867C82.9062 12.2859 83.5195 12.53 83.8672 12.8191C84.2109 13.1121 84.3828 13.5203 84.3828 14.0437C84.3828 14.614 84.1445 15.1042 83.668 15.5144C83.1914 15.9246 82.4863 16.1296 81.5527 16.1296C80.7051 16.1296 80.0332 15.9578 79.5371 15.614C79.0449 15.2703 78.7227 14.8035 78.5703 14.2136ZM91.4902 15.989H89.8438V12.8132C89.8438 12.1414 89.8086 11.7078 89.7383 11.5125C89.668 11.3132 89.5527 11.1589 89.3926 11.0496C89.2363 10.9402 89.0469 10.8855 88.8242 10.8855C88.5391 10.8855 88.2832 10.9636 88.0566 11.1199C87.8301 11.2761 87.6738 11.4832 87.5879 11.741C87.5059 11.9988 87.4648 12.4753 87.4648 13.1707V15.989H85.8184V9.76636H87.3477V10.6804C87.8906 9.97729 88.5742 9.62573 89.3984 9.62573C89.7617 9.62573 90.0938 9.69214 90.3945 9.82495C90.6953 9.95386 90.9219 10.1199 91.0742 10.323C91.2305 10.5261 91.3379 10.7566 91.3965 11.0144C91.459 11.2722 91.4902 11.6414 91.4902 12.1218V15.989ZM92.7852 12.7898C92.7852 12.2429 92.9199 11.7136 93.1895 11.2019C93.459 10.6902 93.8398 10.2996 94.332 10.03C94.8281 9.7605 95.3809 9.62573 95.9902 9.62573C96.9316 9.62573 97.7031 9.93237 98.3047 10.5457C98.9062 11.155 99.207 11.9265 99.207 12.8601C99.207 13.8015 98.9023 14.5828 98.293 15.2039C97.6875 15.821 96.9238 16.1296 96.002 16.1296C95.4316 16.1296 94.8867 16.0007 94.3672 15.7429C93.8516 15.4851 93.459 15.1082 93.1895 14.6121C92.9199 14.1121 92.7852 13.5046 92.7852 12.7898ZM94.4727 12.8777C94.4727 13.4949 94.6191 13.9675 94.9121 14.2957C95.2051 14.6238 95.5664 14.7878 95.9961 14.7878C96.4258 14.7878 96.7852 14.6238 97.0742 14.2957C97.3672 13.9675 97.5137 13.491 97.5137 12.866C97.5137 12.2566 97.3672 11.7878 97.0742 11.4597C96.7852 11.1316 96.4258 10.9675 95.9961 10.9675C95.5664 10.9675 95.2051 11.1316 94.9121 11.4597C94.6191 11.7878 94.4727 12.2605 94.4727 12.8777ZM100.52 15.989V7.39917H104.17C105.088 7.39917 105.754 7.47729 106.168 7.63354C106.586 7.78589 106.92 8.05933 107.17 8.45386C107.42 8.84839 107.545 9.29956 107.545 9.80737C107.545 10.4519 107.355 10.9851 106.977 11.407C106.598 11.825 106.031 12.0886 105.277 12.198C105.652 12.4167 105.961 12.657 106.203 12.9187C106.449 13.1804 106.779 13.6453 107.193 14.3132L108.242 15.989H106.168L104.914 14.1199C104.469 13.4519 104.164 13.032 104 12.8601C103.836 12.6843 103.662 12.5652 103.479 12.5027C103.295 12.4363 103.004 12.4031 102.605 12.4031H102.254V15.989H100.52ZM102.254 11.032H103.537C104.369 11.032 104.889 10.9968 105.096 10.9265C105.303 10.8562 105.465 10.7351 105.582 10.5632C105.699 10.3914 105.758 10.1765 105.758 9.9187C105.758 9.62964 105.68 9.39722 105.523 9.22144C105.371 9.04175 105.154 8.92847 104.873 8.88159C104.732 8.86206 104.311 8.85229 103.607 8.85229H102.254V11.032ZM109.203 15.989V7.39917H110.891L114.406 13.1355V7.39917H116.018V15.989H114.277L110.814 10.3875V15.989H109.203ZM117.857 15.989V7.39917H120.641C121.695 7.39917 122.383 7.44214 122.703 7.52808C123.195 7.65698 123.607 7.93823 123.939 8.37183C124.271 8.80151 124.438 9.35815 124.438 10.0417C124.438 10.5691 124.342 11.0125 124.15 11.3718C123.959 11.7312 123.715 12.0144 123.418 12.2214C123.125 12.4246 122.826 12.5593 122.521 12.6257C122.107 12.7078 121.508 12.7488 120.723 12.7488H119.592V15.989H117.857ZM119.592 8.85229V11.2898H120.541C121.225 11.2898 121.682 11.2449 121.912 11.155C122.143 11.0652 122.322 10.9246 122.451 10.7332C122.584 10.5417 122.65 10.3191 122.65 10.0652C122.65 9.75269 122.559 9.49487 122.375 9.29175C122.191 9.08862 121.959 8.96167 121.678 8.91089C121.471 8.87183 121.055 8.85229 120.43 8.85229H119.592Z" fill="white"/>
<defs>
<linearGradient id="paint0_linear_37_1585" x1="66.5" y1="1.98901" x2="66.5" y2="21.989" gradientUnits="userSpaceOnUse">
<stop stop-color="#9461EE"/>
<stop offset="1" stop-color="#3B994A"/>
</linearGradient>
<linearGradient id="paint1_linear_37_1585" x1="66.5" y1="1.98901" x2="66.5" y2="21.989" gradientUnits="userSpaceOnUse">
<stop stop-color="#CA4145"/>
<stop offset="1" stop-color="#0061EE"/>
</linearGradient>
</defs>
</svg>
