<svg width="49" height="24" viewBox="0 0 49 24" fill="none" xmlns="http://www.w3.org/2000/svg">
<rect x="2" y="1.98901" width="46" height="20" rx="10" fill="url(#paint0_linear_33_1391)"/>
<rect x="2" y="1.98901" width="46" height="20" rx="10" stroke="#FF4900" stroke-width="3" stroke-linejoin="round"/>
<path d="M17.9395 15.989H16.0527L15.3027 14.0378H11.8691L11.1602 15.989H9.32031L12.666 7.39917H14.5L17.9395 15.989ZM14.7461 12.5906L13.5625 9.40308L12.4023 12.5906H14.7461ZM18.8711 7.39917H22.3047C22.9844 7.39917 23.4902 7.42847 23.8223 7.48706C24.1582 7.54175 24.457 7.65894 24.7188 7.83862C24.9844 8.01831 25.2051 8.25854 25.3809 8.55933C25.5566 8.8562 25.6445 9.19019 25.6445 9.56128C25.6445 9.96362 25.5352 10.3328 25.3164 10.6687C25.1016 11.0046 24.8086 11.2566 24.4375 11.4246C24.9609 11.5769 25.3633 11.8367 25.6445 12.2039C25.9258 12.571 26.0664 13.0027 26.0664 13.4988C26.0664 13.8894 25.9746 14.2703 25.791 14.6414C25.6113 15.0085 25.3633 15.3035 25.0469 15.5261C24.7344 15.7449 24.3477 15.8796 23.8867 15.9304C23.5977 15.9617 22.9004 15.9812 21.7949 15.989H18.8711V7.39917ZM20.6055 8.82886V10.8152H21.7422C22.418 10.8152 22.8379 10.8054 23.002 10.7859C23.2988 10.7507 23.5312 10.6492 23.6992 10.4812C23.8711 10.3093 23.957 10.0847 23.957 9.80737C23.957 9.54175 23.8828 9.3269 23.7344 9.16284C23.5898 8.99487 23.373 8.89331 23.084 8.85815C22.9121 8.83862 22.418 8.82886 21.6016 8.82886H20.6055ZM20.6055 12.2449V14.5417H22.2109C22.8359 14.5417 23.2324 14.5242 23.4004 14.489C23.6582 14.4421 23.8672 14.3289 24.0273 14.1492C24.1914 13.9656 24.2734 13.7214 24.2734 13.4167C24.2734 13.1589 24.2109 12.9402 24.0859 12.7605C23.9609 12.5808 23.7793 12.45 23.541 12.3679C23.3066 12.2859 22.7949 12.2449 22.0059 12.2449H20.6055ZM27.584 15.989V7.46948H29.3184V14.5417H33.6309V15.989H27.584ZM38.7227 15.989H37.0762V9.78394C36.4746 10.3464 35.7656 10.7625 34.9492 11.032V9.53784C35.3789 9.39722 35.8457 9.13159 36.3496 8.74097C36.8535 8.34644 37.1992 7.88745 37.3867 7.36401H38.7227V15.989Z" fill="white"/>
<defs>
<linearGradient id="paint0_linear_33_1391" x1="25" y1="1.98901" x2="25" y2="21.989" gradientUnits="userSpaceOnUse">
<stop stop-color="#FF4900"/>
<stop offset="1" stop-color="#003CC9"/>
</linearGradient>
</defs>
</svg>
