<svg width="58" height="24" viewBox="0 0 58 24" fill="none" xmlns="http://www.w3.org/2000/svg">
<rect x="2" y="1.98901" width="55" height="20" rx="10" fill="url(#paint0_linear_67_1886)"/>
<rect x="2" y="1.98901" width="55" height="20" rx="10" stroke="#D67B32" stroke-width="3" stroke-linejoin="round"/>
<path d="M10.0293 15.989V7.39917H13.6797C14.5977 7.39917 15.2637 7.47729 15.6777 7.63354C16.0957 7.78589 16.4297 8.05933 16.6797 8.45386C16.9297 8.84839 17.0547 9.29956 17.0547 9.80737C17.0547 10.4519 16.8652 10.9851 16.4863 11.407C16.1074 11.825 15.541 12.0886 14.7871 12.198C15.1621 12.4167 15.4707 12.657 15.7129 12.9187C15.959 13.1804 16.2891 13.6453 16.7031 14.3132L17.752 15.989H15.6777L14.4238 14.1199C13.9785 13.4519 13.6738 13.032 13.5098 12.8601C13.3457 12.6843 13.1719 12.5652 12.9883 12.5027C12.8047 12.4363 12.5137 12.4031 12.1152 12.4031H11.7637V15.989H10.0293ZM11.7637 11.032H13.0469C13.8789 11.032 14.3984 10.9968 14.6055 10.9265C14.8125 10.8562 14.9746 10.7351 15.0918 10.5632C15.209 10.3914 15.2676 10.1765 15.2676 9.9187C15.2676 9.62964 15.1895 9.39722 15.0332 9.22144C14.8809 9.04175 14.6641 8.92847 14.3828 8.88159C14.2422 8.86206 13.8203 8.85229 13.1172 8.85229H11.7637V11.032ZM18.6836 7.39917H20.418V12.0515C20.418 12.7898 20.4395 13.2683 20.4824 13.4871C20.5566 13.8386 20.7324 14.1218 21.0098 14.3367C21.291 14.5476 21.6738 14.6531 22.1582 14.6531C22.6504 14.6531 23.0215 14.5535 23.2715 14.3542C23.5215 14.1511 23.6719 13.9031 23.7227 13.6101C23.7734 13.3171 23.7988 12.8308 23.7988 12.1511V7.39917H25.5332V11.9109C25.5332 12.9421 25.4863 13.6707 25.3926 14.0964C25.2988 14.5222 25.125 14.8816 24.8711 15.1746C24.6211 15.4675 24.2852 15.7019 23.8633 15.8777C23.4414 16.0496 22.8906 16.1355 22.2109 16.1355C21.3906 16.1355 20.7676 16.0417 20.3418 15.8542C19.9199 15.6628 19.5859 15.4167 19.3398 15.116C19.0938 14.8113 18.9316 14.4929 18.8535 14.1609C18.7402 13.6687 18.6836 12.9421 18.6836 11.9812V7.39917ZM27.3848 15.989V7.39917H29.0723L32.5879 13.1355V7.39917H34.1992V15.989H32.459L28.9961 10.3875V15.989H27.3848ZM35.166 15.989L38.1016 11.5066L35.4414 7.39917H37.4688L39.1914 10.1589L40.8789 7.39917H42.8887L40.2168 11.571L43.1523 15.989H41.0605L39.1562 13.0183L37.2461 15.989H35.166ZM47.8926 15.989H46.2461V9.78394C45.6445 10.3464 44.9355 10.7625 44.1191 11.032V9.53784C44.5488 9.39722 45.0156 9.13159 45.5195 8.74097C46.0234 8.34644 46.3691 7.88745 46.5566 7.36401H47.8926V15.989Z" fill="white"/>
<defs>
<linearGradient id="paint0_linear_67_1886" x1="29.5" y1="1.98901" x2="29.5" y2="21.989" gradientUnits="userSpaceOnUse">
<stop stop-color="#D67B32"/>
<stop offset="1" stop-color="#663000"/>
</linearGradient>
</defs>
</svg>
