<svg width="65" height="24" viewBox="0 0 65 24" fill="none" xmlns="http://www.w3.org/2000/svg">
<rect x="1" y="1.98901" width="63" height="20" rx="10" fill="url(#paint0_linear_40_2508)"/>
<rect x="1" y="1.98901" width="63" height="20" rx="10" stroke="#0047AB" stroke-width="3" stroke-linejoin="round"/>
<path d="M14.5176 12.8308L16.1992 13.364C15.9414 14.3015 15.5117 14.9988 14.9102 15.4558C14.3125 15.9089 13.5527 16.1355 12.6309 16.1355C11.4902 16.1355 10.5527 15.7468 9.81836 14.9695C9.08398 14.1882 8.7168 13.1218 8.7168 11.7703C8.7168 10.3406 9.08594 9.2312 9.82422 8.44214C10.5625 7.64917 11.5332 7.25269 12.7363 7.25269C13.7871 7.25269 14.6406 7.56323 15.2969 8.18433C15.6875 8.55151 15.9805 9.07886 16.1758 9.76636L14.459 10.1765C14.3574 9.7312 14.1445 9.37964 13.8203 9.12183C13.5 8.86401 13.1094 8.73511 12.6484 8.73511C12.0117 8.73511 11.4941 8.96362 11.0957 9.42065C10.7012 9.87769 10.5039 10.6179 10.5039 11.6414C10.5039 12.7273 10.6992 13.5007 11.0898 13.9617C11.4805 14.4226 11.9883 14.6531 12.6133 14.6531C13.0742 14.6531 13.4707 14.5066 13.8027 14.2136C14.1348 13.9207 14.373 13.4597 14.5176 12.8308ZM17.6875 7.39917H20.8574C21.5723 7.39917 22.1172 7.45386 22.4922 7.56323C22.9961 7.71167 23.4277 7.97534 23.7871 8.35425C24.1465 8.73315 24.4199 9.198 24.6074 9.74878C24.7949 10.2957 24.8887 10.9714 24.8887 11.7761C24.8887 12.4832 24.8008 13.0925 24.625 13.6042C24.4102 14.2292 24.1035 14.7351 23.7051 15.1218C23.4043 15.4148 22.998 15.6433 22.4863 15.8074C22.1035 15.9285 21.5918 15.989 20.9512 15.989H17.6875V7.39917ZM19.4219 8.85229V14.5417H20.7168C21.2012 14.5417 21.5508 14.5144 21.7656 14.4597C22.0469 14.3894 22.2793 14.2703 22.4629 14.1023C22.6504 13.9343 22.8027 13.6589 22.9199 13.2761C23.0371 12.8894 23.0957 12.364 23.0957 11.7C23.0957 11.0359 23.0371 10.5261 22.9199 10.1707C22.8027 9.81519 22.6387 9.53784 22.4277 9.33862C22.2168 9.1394 21.9492 9.00464 21.625 8.93433C21.3828 8.87964 20.9082 8.85229 20.2012 8.85229H19.4219ZM26.3887 15.989V7.39917H28.123V11.2136L31.627 7.39917H33.959L30.7246 10.7449L34.1348 15.989H31.8906L29.5293 11.9578L28.123 13.3933V15.989H26.3887ZM42.7832 15.989H40.8965L40.1465 14.0378H36.7129L36.0039 15.989H34.1641L37.5098 7.39917H39.3438L42.7832 15.989ZM39.5898 12.5906L38.4062 9.40308L37.2461 12.5906H39.5898ZM43.7559 15.989V7.46948H45.4902V14.5417H49.8027V15.989H43.7559ZM54.8945 15.989H53.248V9.78394C52.6465 10.3464 51.9375 10.7625 51.1211 11.032V9.53784C51.5508 9.39722 52.0176 9.13159 52.5215 8.74097C53.0254 8.34644 53.3711 7.88745 53.5586 7.36401H54.8945V15.989Z" fill="white"/>
<defs>
<linearGradient id="paint0_linear_40_2508" x1="32.5" y1="1.98901" x2="32.5" y2="21.989" gradientUnits="userSpaceOnUse">
<stop stop-color="#0047AB"/>
<stop offset="1" stop-color="#FFFF7B"/>
</linearGradient>
</defs>
</svg>
