<svg width="51" height="24" viewBox="0 0 51 24" fill="none" xmlns="http://www.w3.org/2000/svg">
<rect x="2" y="1.98901" width="48" height="20" rx="10" fill="url(#paint0_linear_40_2558)"/>
<rect x="2" y="1.98901" width="48" height="20" rx="10" stroke="#EDC98E" stroke-width="3" stroke-linejoin="round"/>
<path d="M10.1914 7.39917H13.3613C14.0762 7.39917 14.6211 7.45386 14.9961 7.56323C15.5 7.71167 15.9316 7.97534 16.291 8.35425C16.6504 8.73315 16.9238 9.198 17.1113 9.74878C17.2988 10.2957 17.3926 10.9714 17.3926 11.7761C17.3926 12.4832 17.3047 13.0925 17.1289 13.6042C16.9141 14.2292 16.6074 14.7351 16.209 15.1218C15.9082 15.4148 15.502 15.6433 14.9902 15.8074C14.6074 15.9285 14.0957 15.989 13.4551 15.989H10.1914V7.39917ZM11.9258 8.85229V14.5417H13.2207C13.7051 14.5417 14.0547 14.5144 14.2695 14.4597C14.5508 14.3894 14.7832 14.2703 14.9668 14.1023C15.1543 13.9343 15.3066 13.6589 15.4238 13.2761C15.541 12.8894 15.5996 12.364 15.5996 11.7C15.5996 11.0359 15.541 10.5261 15.4238 10.1707C15.3066 9.81519 15.1426 9.53784 14.9316 9.33862C14.7207 9.1394 14.4531 9.00464 14.1289 8.93433C13.8867 8.87964 13.4121 8.85229 12.7051 8.85229H11.9258ZM18.8691 15.989V7.39917H21.6523C22.707 7.39917 23.3945 7.44214 23.7148 7.52808C24.207 7.65698 24.6191 7.93823 24.9512 8.37183C25.2832 8.80151 25.4492 9.35815 25.4492 10.0417C25.4492 10.5691 25.3535 11.0125 25.1621 11.3718C24.9707 11.7312 24.7266 12.0144 24.4297 12.2214C24.1367 12.4246 23.8379 12.5593 23.5332 12.6257C23.1191 12.7078 22.5195 12.7488 21.7344 12.7488H20.6035V15.989H18.8691ZM20.6035 8.85229V11.2898H21.5527C22.2363 11.2898 22.6934 11.2449 22.9238 11.155C23.1543 11.0652 23.334 10.9246 23.4629 10.7332C23.5957 10.5417 23.6621 10.3191 23.6621 10.0652C23.6621 9.75269 23.5703 9.49487 23.3867 9.29175C23.2031 9.08862 22.9707 8.96167 22.6895 8.91089C22.4824 8.87183 22.0664 8.85229 21.4414 8.85229H20.6035ZM26.8496 15.989V7.39917H29.4453L31.0039 13.2585L32.5449 7.39917H35.1465V15.989H33.5352V9.22729L31.8301 15.989H30.1602L28.4609 9.22729V15.989H26.8496ZM36.4473 13.7097L38.041 13.5164C38.0918 13.9226 38.2285 14.2332 38.4512 14.448C38.6738 14.6628 38.9434 14.7703 39.2598 14.7703C39.5996 14.7703 39.8848 14.6414 40.1152 14.3835C40.3496 14.1257 40.4668 13.7781 40.4668 13.3406C40.4668 12.9265 40.3555 12.5984 40.1328 12.3562C39.9102 12.114 39.6387 11.9929 39.3184 11.9929C39.1074 11.9929 38.8555 12.0339 38.5625 12.116L38.7441 10.7742C39.1895 10.7859 39.5293 10.6902 39.7637 10.4871C39.998 10.28 40.1152 10.0066 40.1152 9.66675C40.1152 9.37769 40.0293 9.14722 39.8574 8.97534C39.6855 8.80347 39.457 8.71753 39.1719 8.71753C38.8906 8.71753 38.6504 8.81519 38.4512 9.0105C38.252 9.20581 38.1309 9.49097 38.0879 9.86597L36.5703 9.60815C36.6758 9.08862 36.834 8.67456 37.0449 8.36597C37.2598 8.05347 37.5566 7.80933 37.9355 7.63354C38.3184 7.45386 38.7461 7.36401 39.2188 7.36401C40.0273 7.36401 40.6758 7.62183 41.1641 8.13745C41.5664 8.55933 41.7676 9.03589 41.7676 9.56714C41.7676 10.321 41.3555 10.9226 40.5312 11.3718C41.0234 11.4773 41.416 11.7136 41.709 12.0808C42.0059 12.448 42.1543 12.8914 42.1543 13.4109C42.1543 14.1648 41.8789 14.8074 41.3281 15.3386C40.7773 15.8699 40.0918 16.1355 39.2715 16.1355C38.4941 16.1355 37.8496 15.9128 37.3379 15.4675C36.8262 15.0183 36.5293 14.4324 36.4473 13.7097Z" fill="white"/>
<defs>
<linearGradient id="paint0_linear_40_2558" x1="26" y1="1.98901" x2="26" y2="21.989" gradientUnits="userSpaceOnUse">
<stop stop-color="#EDC98E"/>
<stop offset="1" stop-color="#5C6BFF"/>
</linearGradient>
</defs>
</svg>
