<svg width="51" height="24" viewBox="0 0 51 24" fill="none" xmlns="http://www.w3.org/2000/svg">
<rect x="2" y="1.98901" width="48" height="20" rx="10" fill="url(#paint0_linear_84_2054)"/>
<rect x="2" y="1.98901" width="48" height="20" rx="10" stroke="#CF4D4D" stroke-width="3" stroke-linejoin="round"/>
<path d="M12.1309 15.989V8.85229H9.58203V7.39917H16.4082V8.85229H13.8652V15.989H12.1309ZM19.7891 15.989V12.3738L16.6426 7.39917H18.6758L20.6973 10.7976L22.6777 7.39917H24.6758L21.5176 12.3855V15.989H19.7891ZM26.7559 15.989L24.7051 7.39917H26.4805L27.7754 13.2996L29.3457 7.39917H31.4082L32.9141 13.3992L34.2324 7.39917H35.9785L33.8926 15.989H32.0527L30.3418 9.56714L28.6367 15.989H26.7559ZM36.5293 13.78L38.1699 13.6101C38.2168 13.9812 38.3555 14.2761 38.5859 14.4949C38.8164 14.7097 39.082 14.8171 39.3828 14.8171C39.7266 14.8171 40.0176 14.6785 40.2559 14.4011C40.4941 14.1199 40.6133 13.698 40.6133 13.1355C40.6133 12.6082 40.4941 12.2136 40.2559 11.9519C40.0215 11.6863 39.7148 11.5535 39.3359 11.5535C38.8633 11.5535 38.4395 11.7625 38.0645 12.1804L36.7285 11.9871L37.5723 7.51636H41.9258V9.05737H38.8203L38.5625 10.5164C38.9297 10.3328 39.3047 10.241 39.6875 10.241C40.418 10.241 41.0371 10.5066 41.5449 11.0378C42.0527 11.5691 42.3066 12.2585 42.3066 13.1062C42.3066 13.8132 42.1016 14.4441 41.6914 14.9988C41.1328 15.7566 40.3574 16.1355 39.3652 16.1355C38.5723 16.1355 37.9258 15.9226 37.4258 15.4968C36.9258 15.071 36.627 14.4988 36.5293 13.78Z" fill="white"/>
<defs>
<linearGradient id="paint0_linear_84_2054" x1="26" y1="1.98901" x2="26" y2="21.989" gradientUnits="userSpaceOnUse">
<stop stop-color="#CF4D4D"/>
<stop offset="1" stop-color="#0078B3"/>
</linearGradient>
</defs>
</svg>
