<svg width="52" height="24" viewBox="0 0 52 24" fill="none" xmlns="http://www.w3.org/2000/svg">
<rect x="2" y="1.98901" width="49" height="20" rx="10" fill="url(#paint0_linear_37_1821)"/>
<rect x="2" y="1.98901" width="49" height="20" rx="10" stroke="#612F00" stroke-width="3" stroke-linejoin="round"/>
<path d="M15.8477 12.8308L17.5293 13.364C17.2715 14.3015 16.8418 14.9988 16.2402 15.4558C15.6426 15.9089 14.8828 16.1355 13.9609 16.1355C12.8203 16.1355 11.8828 15.7468 11.1484 14.9695C10.4141 14.1882 10.0469 13.1218 10.0469 11.7703C10.0469 10.3406 10.416 9.2312 11.1543 8.44214C11.8926 7.64917 12.8633 7.25269 14.0664 7.25269C15.1172 7.25269 15.9707 7.56323 16.627 8.18433C17.0176 8.55151 17.3105 9.07886 17.5059 9.76636L15.7891 10.1765C15.6875 9.7312 15.4746 9.37964 15.1504 9.12183C14.8301 8.86401 14.4395 8.73511 13.9785 8.73511C13.3418 8.73511 12.8242 8.96362 12.4258 9.42065C12.0312 9.87769 11.834 10.6179 11.834 11.6414C11.834 12.7273 12.0293 13.5007 12.4199 13.9617C12.8105 14.4226 13.3184 14.6531 13.9434 14.6531C14.4043 14.6531 14.8008 14.5066 15.1328 14.2136C15.4648 13.9207 15.7031 13.4597 15.8477 12.8308ZM26.7695 15.989H24.8828L24.1328 14.0378H20.6992L19.9902 15.989H18.1504L21.4961 7.39917H23.3301L26.7695 15.989ZM23.5762 12.5906L22.3926 9.40308L21.2324 12.5906H23.5762ZM31.5449 15.989H29.8984V9.78394C29.2969 10.3464 28.5879 10.7625 27.7715 11.032V9.53784C28.2012 9.39722 28.668 9.13159 29.1719 8.74097C29.6758 8.34644 30.0215 7.88745 30.209 7.36401H31.5449V15.989ZM34.3223 14.3425H35.9688V15.5203C35.9688 15.9968 35.9277 16.3718 35.8457 16.6453C35.7637 16.9226 35.6074 17.1707 35.377 17.3894C35.1504 17.6082 34.8613 17.78 34.5098 17.905L34.1875 17.2253C34.5195 17.116 34.7559 16.9656 34.8965 16.7742C35.0371 16.5828 35.1113 16.321 35.1191 15.989H34.3223V14.3425ZM42.9121 14.4597V15.989H37.1406C37.2031 15.4109 37.3906 14.864 37.7031 14.3484C38.0156 13.8289 38.6328 13.1414 39.5547 12.2859C40.2969 11.5945 40.752 11.1257 40.9199 10.8796C41.1465 10.5398 41.2598 10.2039 41.2598 9.87183C41.2598 9.50464 41.1602 9.22339 40.9609 9.02808C40.7656 8.82886 40.4941 8.72925 40.1465 8.72925C39.8027 8.72925 39.5293 8.83276 39.3262 9.03979C39.123 9.24683 39.0059 9.59058 38.9746 10.071L37.334 9.90698C37.4316 9.00073 37.7383 8.35034 38.2539 7.95581C38.7695 7.56128 39.4141 7.36401 40.1875 7.36401C41.0352 7.36401 41.7012 7.59253 42.1855 8.04956C42.6699 8.50659 42.9121 9.07495 42.9121 9.75464C42.9121 10.1414 42.8418 10.5105 42.7012 10.8621C42.5645 11.2097 42.3457 11.575 42.0449 11.9578C41.8457 12.2117 41.4863 12.5769 40.9668 13.0535C40.4473 13.53 40.1172 13.8464 39.9766 14.0027C39.8398 14.1589 39.7285 14.3113 39.6426 14.4597H42.9121Z" fill="white"/>
<defs>
<linearGradient id="paint0_linear_37_1821" x1="26.5" y1="1.98901" x2="26.5" y2="21.989" gradientUnits="userSpaceOnUse">
<stop stop-color="#612F00"/>
<stop offset="1" stop-color="#0F6F1B"/>
</linearGradient>
</defs>
</svg>
