<svg width="59" height="24" viewBox="0 0 59 24" fill="none" xmlns="http://www.w3.org/2000/svg">
<rect x="2" y="1.98901" width="56" height="20" rx="10" fill="url(#paint0_linear_42_2628)"/>
<rect x="2" y="1.98901" width="56" height="20" rx="10" stroke="#734EA8" stroke-width="3" stroke-linejoin="round"/>
<path d="M10.1953 7.39917H13.6289C14.3086 7.39917 14.8145 7.42847 15.1465 7.48706C15.4824 7.54175 15.7812 7.65894 16.043 7.83862C16.3086 8.01831 16.5293 8.25854 16.7051 8.55933C16.8809 8.8562 16.9688 9.19019 16.9688 9.56128C16.9688 9.96362 16.8594 10.3328 16.6406 10.6687C16.4258 11.0046 16.1328 11.2566 15.7617 11.4246C16.2852 11.5769 16.6875 11.8367 16.9688 12.2039C17.25 12.571 17.3906 13.0027 17.3906 13.4988C17.3906 13.8894 17.2988 14.2703 17.1152 14.6414C16.9355 15.0085 16.6875 15.3035 16.3711 15.5261C16.0586 15.7449 15.6719 15.8796 15.2109 15.9304C14.9219 15.9617 14.2246 15.9812 13.1191 15.989H10.1953V7.39917ZM11.9297 8.82886V10.8152H13.0664C13.7422 10.8152 14.1621 10.8054 14.3262 10.7859C14.623 10.7507 14.8555 10.6492 15.0234 10.4812C15.1953 10.3093 15.2812 10.0847 15.2812 9.80737C15.2812 9.54175 15.207 9.3269 15.0586 9.16284C14.9141 8.99487 14.6973 8.89331 14.4082 8.85815C14.2363 8.83862 13.7422 8.82886 12.9258 8.82886H11.9297ZM11.9297 12.2449V14.5417H13.5352C14.1602 14.5417 14.5566 14.5242 14.7246 14.489C14.9824 14.4421 15.1914 14.3289 15.3516 14.1492C15.5156 13.9656 15.5977 13.7214 15.5977 13.4167C15.5977 13.1589 15.5352 12.9402 15.4102 12.7605C15.2852 12.5808 15.1035 12.45 14.8652 12.3679C14.6309 12.2859 14.1191 12.2449 13.3301 12.2449H11.9297ZM26.6074 15.989H24.7207L23.9707 14.0378H20.5371L19.8281 15.989H17.9883L21.334 7.39917H23.168L26.6074 15.989ZM23.4141 12.5906L22.2305 9.40308L21.0703 12.5906H23.4141ZM27.5391 15.989V7.39917H31.1895C32.1074 7.39917 32.7734 7.47729 33.1875 7.63354C33.6055 7.78589 33.9395 8.05933 34.1895 8.45386C34.4395 8.84839 34.5645 9.29956 34.5645 9.80737C34.5645 10.4519 34.375 10.9851 33.9961 11.407C33.6172 11.825 33.0508 12.0886 32.2969 12.198C32.6719 12.4167 32.9805 12.657 33.2227 12.9187C33.4688 13.1804 33.7988 13.6453 34.2129 14.3132L35.2617 15.989H33.1875L31.9336 14.1199C31.4883 13.4519 31.1836 13.032 31.0195 12.8601C30.8555 12.6843 30.6816 12.5652 30.498 12.5027C30.3145 12.4363 30.0234 12.4031 29.625 12.4031H29.2734V15.989H27.5391ZM29.2734 11.032H30.5566C31.3887 11.032 31.9082 10.9968 32.1152 10.9265C32.3223 10.8562 32.4844 10.7351 32.6016 10.5632C32.7188 10.3914 32.7773 10.1765 32.7773 9.9187C32.7773 9.62964 32.6992 9.39722 32.543 9.22144C32.3906 9.04175 32.1738 8.92847 31.8926 8.88159C31.752 8.86206 31.3301 8.85229 30.627 8.85229H29.2734V11.032ZM36.1992 7.39917H39.3691C40.084 7.39917 40.6289 7.45386 41.0039 7.56323C41.5078 7.71167 41.9395 7.97534 42.2988 8.35425C42.6582 8.73315 42.9316 9.198 43.1191 9.74878C43.3066 10.2957 43.4004 10.9714 43.4004 11.7761C43.4004 12.4832 43.3125 13.0925 43.1367 13.6042C42.9219 14.2292 42.6152 14.7351 42.2168 15.1218C41.916 15.4148 41.5098 15.6433 40.998 15.8074C40.6152 15.9285 40.1035 15.989 39.4629 15.989H36.1992V7.39917ZM37.9336 8.85229V14.5417H39.2285C39.7129 14.5417 40.0625 14.5144 40.2773 14.4597C40.5586 14.3894 40.791 14.2703 40.9746 14.1023C41.1621 13.9343 41.3145 13.6589 41.4316 13.2761C41.5488 12.8894 41.6074 12.364 41.6074 11.7C41.6074 11.0359 41.5488 10.5261 41.4316 10.1707C41.3145 9.81519 41.1504 9.53784 40.9395 9.33862C40.7285 9.1394 40.4609 9.00464 40.1367 8.93433C39.8945 8.87964 39.4199 8.85229 38.7129 8.85229H37.9336ZM48.7266 15.989H47.0801V9.78394C46.4785 10.3464 45.7695 10.7625 44.9531 11.032V9.53784C45.3828 9.39722 45.8496 9.13159 46.3535 8.74097C46.8574 8.34644 47.2031 7.88745 47.3906 7.36401H48.7266V15.989Z" fill="white"/>
<defs>
<linearGradient id="paint0_linear_42_2628" x1="30" y1="1.98901" x2="30" y2="21.989" gradientUnits="userSpaceOnUse">
<stop stop-color="#FFBAAD"/>
<stop offset="1" stop-color="#734EA8"/>
</linearGradient>
</defs>
</svg>
