<svg width="61" height="24" viewBox="0 0 61 24" fill="none" xmlns="http://www.w3.org/2000/svg">
<rect x="2" y="1.98901" width="58" height="20" rx="10" fill="url(#paint0_linear_36_1567)"/>
<rect x="2" y="1.98901" width="58" height="20" rx="10" stroke="#F467CA" stroke-width="3" stroke-linejoin="round"/>
<path d="M10.1992 7.39917H13.6328C14.3125 7.39917 14.8184 7.42847 15.1504 7.48706C15.4863 7.54175 15.7852 7.65894 16.0469 7.83862C16.3125 8.01831 16.5332 8.25854 16.709 8.55933C16.8848 8.8562 16.9727 9.19019 16.9727 9.56128C16.9727 9.96362 16.8633 10.3328 16.6445 10.6687C16.4297 11.0046 16.1367 11.2566 15.7656 11.4246C16.2891 11.5769 16.6914 11.8367 16.9727 12.2039C17.2539 12.571 17.3945 13.0027 17.3945 13.4988C17.3945 13.8894 17.3027 14.2703 17.1191 14.6414C16.9395 15.0085 16.6914 15.3035 16.375 15.5261C16.0625 15.7449 15.6758 15.8796 15.2148 15.9304C14.9258 15.9617 14.2285 15.9812 13.123 15.989H10.1992V7.39917ZM11.9336 8.82886V10.8152H13.0703C13.7461 10.8152 14.166 10.8054 14.3301 10.7859C14.627 10.7507 14.8594 10.6492 15.0273 10.4812C15.1992 10.3093 15.2852 10.0847 15.2852 9.80737C15.2852 9.54175 15.2109 9.3269 15.0625 9.16284C14.918 8.99487 14.7012 8.89331 14.4121 8.85815C14.2402 8.83862 13.7461 8.82886 12.9297 8.82886H11.9336ZM11.9336 12.2449V14.5417H13.5391C14.1641 14.5417 14.5605 14.5242 14.7285 14.489C14.9863 14.4421 15.1953 14.3289 15.3555 14.1492C15.5195 13.9656 15.6016 13.7214 15.6016 13.4167C15.6016 13.1589 15.5391 12.9402 15.4141 12.7605C15.2891 12.5808 15.1074 12.45 14.8691 12.3679C14.6348 12.2859 14.123 12.2449 13.334 12.2449H11.9336ZM24.3613 12.8308L26.043 13.364C25.7852 14.3015 25.3555 14.9988 24.7539 15.4558C24.1562 15.9089 23.3965 16.1355 22.4746 16.1355C21.334 16.1355 20.3965 15.7468 19.6621 14.9695C18.9277 14.1882 18.5605 13.1218 18.5605 11.7703C18.5605 10.3406 18.9297 9.2312 19.668 8.44214C20.4062 7.64917 21.377 7.25269 22.5801 7.25269C23.6309 7.25269 24.4844 7.56323 25.1406 8.18433C25.5312 8.55151 25.8242 9.07886 26.0195 9.76636L24.3027 10.1765C24.2012 9.7312 23.9883 9.37964 23.6641 9.12183C23.3438 8.86401 22.9531 8.73511 22.4922 8.73511C21.8555 8.73511 21.3379 8.96362 20.9395 9.42065C20.5449 9.87769 20.3477 10.6179 20.3477 11.6414C20.3477 12.7273 20.543 13.5007 20.9336 13.9617C21.3242 14.4226 21.832 14.6531 22.457 14.6531C22.918 14.6531 23.3145 14.5066 23.6465 14.2136C23.9785 13.9207 24.2168 13.4597 24.3613 12.8308ZM27.5605 15.989V7.39917H29.2949V11.2136L32.7988 7.39917H35.1309L31.8965 10.7449L35.3066 15.989H33.0625L30.7012 11.9578L29.2949 13.3933V15.989H27.5605ZM36.2031 7.39917H39.373C40.0879 7.39917 40.6328 7.45386 41.0078 7.56323C41.5117 7.71167 41.9434 7.97534 42.3027 8.35425C42.6621 8.73315 42.9355 9.198 43.123 9.74878C43.3105 10.2957 43.4043 10.9714 43.4043 11.7761C43.4043 12.4832 43.3164 13.0925 43.1406 13.6042C42.9258 14.2292 42.6191 14.7351 42.2207 15.1218C41.9199 15.4148 41.5137 15.6433 41.002 15.8074C40.6191 15.9285 40.1074 15.989 39.4668 15.989H36.2031V7.39917ZM37.9375 8.85229V14.5417H39.2324C39.7168 14.5417 40.0664 14.5144 40.2812 14.4597C40.5625 14.3894 40.7949 14.2703 40.9785 14.1023C41.166 13.9343 41.3184 13.6589 41.4355 13.2761C41.5527 12.8894 41.6113 12.364 41.6113 11.7C41.6113 11.0359 41.5527 10.5261 41.4355 10.1707C41.3184 9.81519 41.1543 9.53784 40.9434 9.33862C40.7324 9.1394 40.4648 9.00464 40.1406 8.93433C39.8984 8.87964 39.4238 8.85229 38.7168 8.85229H37.9375ZM44.9043 15.989V7.39917H46.6387V11.2136L50.1426 7.39917H52.4746L49.2402 10.7449L52.6504 15.989H50.4062L48.0449 11.9578L46.6387 13.3933V15.989H44.9043Z" fill="white"/>
<defs>
<linearGradient id="paint0_linear_36_1567" x1="31" y1="1.98901" x2="31" y2="21.989" gradientUnits="userSpaceOnUse">
<stop stop-color="#F467CA"/>
<stop offset="1" stop-color="#00A7C0"/>
</linearGradient>
</defs>
</svg>
