<svg width="53" height="24" viewBox="0 0 53 24" fill="none" xmlns="http://www.w3.org/2000/svg">
<rect x="2" y="1.98901" width="50" height="20" rx="10" fill="url(#paint0_linear_67_1856)"/>
<rect x="2" y="1.98901" width="50" height="20" rx="10" stroke="#00002E" stroke-width="3" stroke-linejoin="round"/>
<path d="M10.1953 15.989V7.39917H13.8457C14.7637 7.39917 15.4297 7.47729 15.8438 7.63354C16.2617 7.78589 16.5957 8.05933 16.8457 8.45386C17.0957 8.84839 17.2207 9.29956 17.2207 9.80737C17.2207 10.4519 17.0312 10.9851 16.6523 11.407C16.2734 11.825 15.707 12.0886 14.9531 12.198C15.3281 12.4167 15.6367 12.657 15.8789 12.9187C16.125 13.1804 16.4551 13.6453 16.8691 14.3132L17.918 15.989H15.8438L14.5898 14.1199C14.1445 13.4519 13.8398 13.032 13.6758 12.8601C13.5117 12.6843 13.3379 12.5652 13.1543 12.5027C12.9707 12.4363 12.6797 12.4031 12.2812 12.4031H11.9297V15.989H10.1953ZM11.9297 11.032H13.2129C14.0449 11.032 14.5645 10.9968 14.7715 10.9265C14.9785 10.8562 15.1406 10.7351 15.2578 10.5632C15.375 10.3914 15.4336 10.1765 15.4336 9.9187C15.4336 9.62964 15.3555 9.39722 15.1992 9.22144C15.0469 9.04175 14.8301 8.92847 14.5488 8.88159C14.4082 8.86206 13.9863 8.85229 13.2832 8.85229H11.9297V11.032ZM18.8086 15.989V7.39917H20.543V15.989H18.8086ZM22.2012 15.989V7.39917H24.9844C26.0391 7.39917 26.7266 7.44214 27.0469 7.52808C27.5391 7.65698 27.9512 7.93823 28.2832 8.37183C28.6152 8.80151 28.7812 9.35815 28.7812 10.0417C28.7812 10.5691 28.6855 11.0125 28.4941 11.3718C28.3027 11.7312 28.0586 12.0144 27.7617 12.2214C27.4688 12.4246 27.1699 12.5593 26.8652 12.6257C26.4512 12.7078 25.8516 12.7488 25.0664 12.7488H23.9355V15.989H22.2012ZM23.9355 8.85229V11.2898H24.8848C25.5684 11.2898 26.0254 11.2449 26.2559 11.155C26.4863 11.0652 26.666 10.9246 26.7949 10.7332C26.9277 10.5417 26.9941 10.3191 26.9941 10.0652C26.9941 9.75269 26.9023 9.49487 26.7188 9.29175C26.5352 9.08862 26.3027 8.96167 26.0215 8.91089C25.8145 8.87183 25.3984 8.85229 24.7734 8.85229H23.9355ZM30.2285 15.989V7.39917H31.9629V11.2136L35.4668 7.39917H37.7988L34.5645 10.7449L37.9746 15.989H35.7305L33.3691 11.9578L31.9629 13.3933V15.989H30.2285ZM38.4551 13.7097L40.0488 13.5164C40.0996 13.9226 40.2363 14.2332 40.459 14.448C40.6816 14.6628 40.9512 14.7703 41.2676 14.7703C41.6074 14.7703 41.8926 14.6414 42.123 14.3835C42.3574 14.1257 42.4746 13.7781 42.4746 13.3406C42.4746 12.9265 42.3633 12.5984 42.1406 12.3562C41.918 12.114 41.6465 11.9929 41.3262 11.9929C41.1152 11.9929 40.8633 12.0339 40.5703 12.116L40.752 10.7742C41.1973 10.7859 41.5371 10.6902 41.7715 10.4871C42.0059 10.28 42.123 10.0066 42.123 9.66675C42.123 9.37769 42.0371 9.14722 41.8652 8.97534C41.6934 8.80347 41.4648 8.71753 41.1797 8.71753C40.8984 8.71753 40.6582 8.81519 40.459 9.0105C40.2598 9.20581 40.1387 9.49097 40.0957 9.86597L38.5781 9.60815C38.6836 9.08862 38.8418 8.67456 39.0527 8.36597C39.2676 8.05347 39.5645 7.80933 39.9434 7.63354C40.3262 7.45386 40.7539 7.36401 41.2266 7.36401C42.0352 7.36401 42.6836 7.62183 43.1719 8.13745C43.5742 8.55933 43.7754 9.03589 43.7754 9.56714C43.7754 10.321 43.3633 10.9226 42.5391 11.3718C43.0312 11.4773 43.4238 11.7136 43.7168 12.0808C44.0137 12.448 44.1621 12.8914 44.1621 13.4109C44.1621 14.1648 43.8867 14.8074 43.3359 15.3386C42.7852 15.8699 42.0996 16.1355 41.2793 16.1355C40.502 16.1355 39.8574 15.9128 39.3457 15.4675C38.834 15.0183 38.5371 14.4324 38.4551 13.7097Z" fill="white"/>
<defs>
<linearGradient id="paint0_linear_67_1856" x1="27" y1="21.989" x2="27" y2="1.98901" gradientUnits="userSpaceOnUse">
<stop stop-color="#00002E"/>
<stop offset="1" stop-color="#DBE593"/>
</linearGradient>
</defs>
</svg>
