<svg width="37" height="24" viewBox="0 0 37 24" fill="none" xmlns="http://www.w3.org/2000/svg">
<rect x="2" y="1.98901" width="34" height="20" rx="10" fill="url(#paint0_linear_42_2645)"/>
<rect x="2" y="1.98901" width="34" height="20" rx="10" stroke="#2B63B3" stroke-width="3" stroke-linejoin="round"/>
<path d="M12.877 15.989V7.39917H18.7656V8.85229H14.6113V10.8855H18.1973V12.3386H14.6113V15.989H12.877ZM21.25 11.3542C20.8242 11.1746 20.5137 10.9285 20.3184 10.616C20.127 10.2996 20.0312 9.95386 20.0312 9.57886C20.0312 8.93823 20.2539 8.40894 20.6992 7.99097C21.1484 7.573 21.7852 7.36401 22.6094 7.36401C23.4258 7.36401 24.0586 7.573 24.5078 7.99097C24.9609 8.40894 25.1875 8.93823 25.1875 9.57886C25.1875 9.97729 25.084 10.3328 24.877 10.6453C24.6699 10.9539 24.3789 11.1902 24.0039 11.3542C24.4805 11.5457 24.8418 11.825 25.0879 12.1921C25.3379 12.5593 25.4629 12.9832 25.4629 13.4636C25.4629 14.2566 25.209 14.9011 24.7012 15.3972C24.1973 15.8933 23.5254 16.1414 22.6855 16.1414C21.9043 16.1414 21.2539 15.9363 20.7344 15.5261C20.1211 15.0417 19.8145 14.3777 19.8145 13.5339C19.8145 13.0691 19.9297 12.6433 20.1602 12.2566C20.3906 11.866 20.7539 11.5652 21.25 11.3542ZM21.5898 9.69604C21.5898 10.0242 21.6816 10.28 21.8652 10.4636C22.0527 10.6472 22.3008 10.739 22.6094 10.739C22.9219 10.739 23.1719 10.6472 23.3594 10.4636C23.5469 10.2761 23.6406 10.0183 23.6406 9.69019C23.6406 9.38159 23.5469 9.1355 23.3594 8.9519C23.1758 8.7644 22.9316 8.67065 22.627 8.67065C22.3105 8.67065 22.0586 8.7644 21.8711 8.9519C21.6836 9.1394 21.5898 9.38745 21.5898 9.69604ZM21.4375 13.3757C21.4375 13.8289 21.5527 14.1824 21.7832 14.4363C22.0176 14.6902 22.3086 14.8171 22.6562 14.8171C22.9961 14.8171 23.2773 14.696 23.5 14.4539C23.7227 14.2078 23.834 13.8542 23.834 13.3933C23.834 12.991 23.7207 12.6687 23.4941 12.4265C23.2676 12.1804 22.9805 12.0574 22.6328 12.0574C22.2305 12.0574 21.9297 12.196 21.7305 12.4734C21.5352 12.7507 21.4375 13.0515 21.4375 13.3757Z" fill="white"/>
<defs>
<linearGradient id="paint0_linear_42_2645" x1="19" y1="1.98901" x2="19" y2="21.989" gradientUnits="userSpaceOnUse">
<stop stop-color="#2B63B3"/>
<stop offset="1" stop-color="#19605B"/>
</linearGradient>
</defs>
</svg>
