<svg width="58" height="24" viewBox="0 0 58 24" fill="none" xmlns="http://www.w3.org/2000/svg">
<rect x="2" y="1.98901" width="55" height="20" rx="10" fill="url(#paint0_linear_67_1803)"/>
<rect x="2" y="1.98901" width="55" height="20" rx="10" stroke="#0049D8" stroke-width="3" stroke-linejoin="round"/>
<path d="M10.0293 15.989V7.39917H12.8125C13.8672 7.39917 14.5547 7.44214 14.875 7.52808C15.3672 7.65698 15.7793 7.93823 16.1113 8.37183C16.4434 8.80151 16.6094 9.35815 16.6094 10.0417C16.6094 10.5691 16.5137 11.0125 16.3223 11.3718C16.1309 11.7312 15.8867 12.0144 15.5898 12.2214C15.2969 12.4246 14.998 12.5593 14.6934 12.6257C14.2793 12.7078 13.6797 12.7488 12.8945 12.7488H11.7637V15.989H10.0293ZM11.7637 8.85229V11.2898H12.7129C13.3965 11.2898 13.8535 11.2449 14.084 11.155C14.3145 11.0652 14.4941 10.9246 14.623 10.7332C14.7559 10.5417 14.8223 10.3191 14.8223 10.0652C14.8223 9.75269 14.7305 9.49487 14.5469 9.29175C14.3633 9.08862 14.1309 8.96167 13.8496 8.91089C13.6426 8.87183 13.2266 8.85229 12.6016 8.85229H11.7637ZM19.9668 15.989V8.85229H17.418V7.39917H24.2441V8.85229H21.7012V15.989H19.9668ZM25.3691 15.989V7.39917H28.1523C29.207 7.39917 29.8945 7.44214 30.2148 7.52808C30.707 7.65698 31.1191 7.93823 31.4512 8.37183C31.7832 8.80151 31.9492 9.35815 31.9492 10.0417C31.9492 10.5691 31.8535 11.0125 31.6621 11.3718C31.4707 11.7312 31.2266 12.0144 30.9297 12.2214C30.6367 12.4246 30.3379 12.5593 30.0332 12.6257C29.6191 12.7078 29.0195 12.7488 28.2344 12.7488H27.1035V15.989H25.3691ZM27.1035 8.85229V11.2898H28.0527C28.7363 11.2898 29.1934 11.2449 29.4238 11.155C29.6543 11.0652 29.834 10.9246 29.9629 10.7332C30.0957 10.5417 30.1621 10.3191 30.1621 10.0652C30.1621 9.75269 30.0703 9.49487 29.8867 9.29175C29.7031 9.08862 29.4707 8.96167 29.1895 8.91089C28.9824 8.87183 28.5664 8.85229 27.9414 8.85229H27.1035ZM33.3789 15.989V7.39917H37.0293C37.9473 7.39917 38.6133 7.47729 39.0273 7.63354C39.4453 7.78589 39.7793 8.05933 40.0293 8.45386C40.2793 8.84839 40.4043 9.29956 40.4043 9.80737C40.4043 10.4519 40.2148 10.9851 39.8359 11.407C39.457 11.825 38.8906 12.0886 38.1367 12.198C38.5117 12.4167 38.8203 12.657 39.0625 12.9187C39.3086 13.1804 39.6387 13.6453 40.0527 14.3132L41.1016 15.989H39.0273L37.7734 14.1199C37.3281 13.4519 37.0234 13.032 36.8594 12.8601C36.6953 12.6843 36.5215 12.5652 36.3379 12.5027C36.1543 12.4363 35.8633 12.4031 35.4648 12.4031H35.1133V15.989H33.3789ZM35.1133 11.032H36.3965C37.2285 11.032 37.748 10.9968 37.9551 10.9265C38.1621 10.8562 38.3242 10.7351 38.4414 10.5632C38.5586 10.3914 38.6172 10.1765 38.6172 9.9187C38.6172 9.62964 38.5391 9.39722 38.3828 9.22144C38.2305 9.04175 38.0137 8.92847 37.7324 8.88159C37.5918 8.86206 37.1699 8.85229 36.4668 8.85229H35.1133V11.032ZM49.791 15.989H47.9043L47.1543 14.0378H43.7207L43.0117 15.989H41.1719L44.5176 7.39917H46.3516L49.791 15.989ZM46.5977 12.5906L45.4141 9.40308L44.2539 12.5906H46.5977Z" fill="white"/>
<defs>
<linearGradient id="paint0_linear_67_1803" x1="29.5" y1="1.98901" x2="29.5" y2="21.989" gradientUnits="userSpaceOnUse">
<stop stop-color="#0049D8"/>
<stop offset="1" stop-color="#B89584"/>
</linearGradient>
</defs>
</svg>
