<svg width="62" height="24" viewBox="0 0 62 24" fill="none" xmlns="http://www.w3.org/2000/svg">
<rect x="2" y="1.98901" width="59" height="20" rx="10" fill="url(#paint0_linear_67_1805)"/>
<rect x="2" y="1.98901" width="59" height="20" rx="10" stroke="#FF9D00" stroke-width="3" stroke-linejoin="round"/>
<path d="M10.0195 15.989V7.39917H12.8027C13.8574 7.39917 14.5449 7.44214 14.8652 7.52808C15.3574 7.65698 15.7695 7.93823 16.1016 8.37183C16.4336 8.80151 16.5996 9.35815 16.5996 10.0417C16.5996 10.5691 16.5039 11.0125 16.3125 11.3718C16.1211 11.7312 15.877 12.0144 15.5801 12.2214C15.2871 12.4246 14.9883 12.5593 14.6836 12.6257C14.2695 12.7078 13.6699 12.7488 12.8848 12.7488H11.7539V15.989H10.0195ZM11.7539 8.85229V11.2898H12.7031C13.3867 11.2898 13.8438 11.2449 14.0742 11.155C14.3047 11.0652 14.4844 10.9246 14.6133 10.7332C14.7461 10.5417 14.8125 10.3191 14.8125 10.0652C14.8125 9.75269 14.7207 9.49487 14.5371 9.29175C14.3535 9.08862 14.1211 8.96167 13.8398 8.91089C13.6328 8.87183 13.2168 8.85229 12.5918 8.85229H11.7539ZM19.957 15.989V8.85229H17.4082V7.39917H24.2344V8.85229H21.6914V15.989H19.957ZM25.3594 15.989V7.39917H28.1426C29.1973 7.39917 29.8848 7.44214 30.2051 7.52808C30.6973 7.65698 31.1094 7.93823 31.4414 8.37183C31.7734 8.80151 31.9395 9.35815 31.9395 10.0417C31.9395 10.5691 31.8438 11.0125 31.6523 11.3718C31.4609 11.7312 31.2168 12.0144 30.9199 12.2214C30.627 12.4246 30.3281 12.5593 30.0234 12.6257C29.6094 12.7078 29.0098 12.7488 28.2246 12.7488H27.0938V15.989H25.3594ZM27.0938 8.85229V11.2898H28.043C28.7266 11.2898 29.1836 11.2449 29.4141 11.155C29.6445 11.0652 29.8242 10.9246 29.9531 10.7332C30.0859 10.5417 30.1523 10.3191 30.1523 10.0652C30.1523 9.75269 30.0605 9.49487 29.877 9.29175C29.6934 9.08862 29.4609 8.96167 29.1797 8.91089C28.9727 8.87183 28.5566 8.85229 27.9316 8.85229H27.0938ZM33.3809 15.989V7.39917H35.0684L38.584 13.1355V7.39917H40.1953V15.989H38.4551L34.9922 10.3875V15.989H33.3809ZM45.8848 15.989H44.2383V9.78394C43.6367 10.3464 42.9277 10.7625 42.1113 11.032V9.53784C42.541 9.39722 43.0078 9.13159 43.5117 8.74097C44.0156 8.34644 44.3613 7.88745 44.5488 7.36401H45.8848V15.989ZM51.8965 15.989H50.25V9.78394C49.6484 10.3464 48.9395 10.7625 48.123 11.032V9.53784C48.5527 9.39722 49.0195 9.13159 49.5234 8.74097C50.0273 8.34644 50.373 7.88745 50.5605 7.36401H51.8965V15.989Z" fill="white"/>
<defs>
<linearGradient id="paint0_linear_67_1805" x1="31.5" y1="1.98901" x2="31.5" y2="21.989" gradientUnits="userSpaceOnUse">
<stop stop-color="#FF9D00"/>
<stop offset="1" stop-color="#004384"/>
</linearGradient>
</defs>
</svg>
