<svg width="118" height="96" viewBox="0 0 118 96" fill="none" xmlns="http://www.w3.org/2000/svg">
<path d="M63.2943 23.8142C82.009 42.529 88.7919 38.4053 63.2943 63.903C52.2241 74.9732 36.0845 78.5068 23.2055 63.903C9.99045 48.9182 12.1353 34.8844 23.2055 23.8142C34.2757 12.744 52.2241 12.744 63.2943 23.8142Z" fill="url(#paint0_radial_213_2037)"/>
<path opacity="0.3" d="M71.1848 23.0238C81.5822 38.8809 81.1671 44.7382 70.0969 55.8084C56.1125 69.7928 45.733 80.1723 29.3065 55.7014C20.5809 42.7028 15.1168 31.2685 32.4067 17.8228C44.7652 8.21199 61.4682 8.20509 71.1848 23.0238Z" fill="#052160"/>
<path d="M72.9675 18.2901C83.3649 34.1472 85.3484 42.1077 74.2782 53.1779C60.2938 67.1623 48.459 72.732 32.7323 50.61C23.6611 37.8501 16.8995 26.5348 34.1894 13.0891C46.5478 3.47835 63.2509 3.47145 72.9675 18.2901Z" fill="url(#paint1_radial_213_2037)"/>
<mask id="mask0_213_2037" style="mask-type:alpha" maskUnits="userSpaceOnUse" x="0" y="0" width="87" height="96">
<path d="M86.0104 95.27H0.78479V0.72998H86.0104V95.27ZM72.9674 18.2905C63.2508 3.47183 46.5475 3.47856 34.1891 13.0894C16.8997 26.5349 23.661 37.8501 32.7321 50.6099C48.4587 72.7317 60.2937 67.1624 74.278 53.1782C85.3481 42.1081 83.3647 34.1475 72.9674 18.2905Z" fill="white"/>
</mask>
<g mask="url(#mask0_213_2037)">
<path d="M3.50456 30.0174C9.04383 35.5567 17.665 18.722 25.9555 27.0125L27.3018 28.3773C22.0416 23.1171 12.817 39.3298 5.05663 31.5695L3.50456 30.0174Z" fill="url(#paint2_linear_213_2037)"/>
<path d="M22.5575 49.0704C28.0968 54.6097 36.718 37.775 45.0085 46.0655L46.3548 47.4302C41.0946 42.1701 31.8699 58.3828 24.1096 50.6225L22.5575 49.0704Z" fill="url(#paint3_linear_213_2037)"/>
<path d="M41.6105 68.1233C47.1497 73.6626 55.7709 56.828 64.0614 65.1185L65.4077 66.4832C60.1475 61.223 50.9229 77.4357 43.1625 69.6754L41.6105 68.1233Z" fill="url(#paint4_linear_213_2037)"/>
<path d="M60.6634 87.1763C66.2027 92.7156 74.8239 75.8809 83.1144 84.1714L84.4607 85.5361C79.2005 80.276 69.9758 96.4887 62.2155 88.7284L60.6634 87.1763Z" fill="url(#paint5_linear_213_2037)"/>
<path d="M5.0388 31.5516C-0.500477 26.0124 15.853 16.91 8.24024 9.29725L6.68817 7.74518C11.9483 13.0053 -4.48768 22.0252 3.48673 29.9996L5.0388 31.5516Z" fill="url(#paint6_linear_213_2037)"/>
<path d="M24.0917 50.6046C18.5524 45.0653 34.9059 35.963 27.2932 28.3502L25.7411 26.7981C31.0013 32.0583 14.5652 41.0781 22.5396 49.0525L24.0917 50.6046Z" fill="url(#paint7_linear_213_2037)"/>
<path d="M43.1447 69.6576C37.6054 64.1183 53.9589 55.016 46.3461 47.4032L44.7941 45.8511C50.0542 51.1113 33.6182 60.1311 41.5926 68.1055L43.1447 69.6576Z" fill="url(#paint8_linear_213_2037)"/>
<path d="M62.1977 88.7105C56.6584 83.1712 73.0119 74.0689 65.3991 66.4561L63.847 64.9041C69.1072 70.1642 52.6712 79.184 60.6456 87.1585L62.1977 88.7105Z" fill="url(#paint9_linear_213_2037)"/>
</g>
<path d="M72.4807 48.3611L72.5022 48.3621C73.5127 48.368 74.4813 48.7559 75.2151 49.4442L75.3586 49.5858L81.759 56.2264C81.9475 56.4217 82.2073 56.532 82.4788 56.532C82.7502 56.532 83.01 56.4217 83.1985 56.2264L89.5989 49.5858C90.3527 48.8036 91.3925 48.3621 92.4788 48.3621C93.4972 48.3621 94.4748 48.7501 95.2141 49.4432L95.3586 49.5858L101.824 56.2938C102.011 56.4869 102.267 56.597 102.535 56.5994C102.804 56.6018 103.062 56.4962 103.251 56.3065L109.837 49.7205C111.35 48.2078 113.774 48.1604 115.345 49.5789L115.494 49.7205C117.008 51.2338 117.055 53.6582 115.636 55.2283L115.494 55.3777L105.307 65.5652C104.593 66.279 103.661 66.695 102.648 66.7342L102.444 66.7361H102.443C101.436 66.7266 100.472 66.3387 99.7415 65.6531L99.5989 65.5125L93.1985 58.8729C93.01 58.6773 92.7503 58.5662 92.4788 58.5662C92.241 58.5662 92.0121 58.6512 91.8323 58.8035L91.759 58.8729L85.3586 65.5125C84.6048 66.2946 83.565 66.7361 82.4788 66.7361C81.4603 66.7361 80.4827 66.3482 79.7434 65.6551L79.5989 65.5125L73.1565 58.8289C72.9694 58.635 72.7121 58.5248 72.4426 58.5233C72.2067 58.5219 71.9791 58.6037 71.7991 58.7527L71.7249 58.8201L65.3254 65.3045C63.8226 66.8278 61.3995 66.8908 59.8196 65.4822L59.6692 65.3416C58.1461 63.8385 58.0821 61.4142 59.4905 59.8348L59.6321 59.6854L69.6321 49.5526V49.5516C70.4026 48.7703 71.4027 48.3318 72.4807 48.3611Z" fill="#E0A734" stroke="#997D0B" stroke-width="2" stroke-linejoin="round"/>
<defs>
<radialGradient id="paint0_radial_213_2037" cx="0" cy="0" r="1" gradientUnits="userSpaceOnUse" gradientTransform="translate(42.9288 35.7108) rotate(56.3989) scale(37.4977 27.9982)">
<stop stop-color="#FFA3B5"/>
<stop offset="0.786" stop-color="#D85972"/>
<stop offset="1" stop-color="#873243"/>
</radialGradient>
<radialGradient id="paint1_radial_213_2037" cx="0" cy="0" r="1" gradientUnits="userSpaceOnUse" gradientTransform="translate(58.6961 23.9127) rotate(57.8993) scale(39.472 35.7603)">
<stop stop-color="#FFA3B5"/>
<stop offset="0.786" stop-color="#D85972"/>
<stop offset="1" stop-color="#873243"/>
</radialGradient>
<linearGradient id="paint2_linear_213_2037" x1="9.06181" y1="35.5387" x2="21.7538" y2="22.8467" gradientUnits="userSpaceOnUse">
<stop stop-color="#241A04"/>
<stop offset="0.1959" stop-color="#A28746"/>
<stop offset="0.3113" stop-color="#E2E0DC"/>
<stop offset="0.4279" stop-color="#A2760E"/>
<stop offset="1" stop-color="#241A04"/>
</linearGradient>
<linearGradient id="paint3_linear_213_2037" x1="28.1148" y1="54.5917" x2="40.8068" y2="41.8997" gradientUnits="userSpaceOnUse">
<stop stop-color="#241A04"/>
<stop offset="0.1959" stop-color="#A28746"/>
<stop offset="0.3113" stop-color="#E2E0DC"/>
<stop offset="0.4279" stop-color="#A2760E"/>
<stop offset="1" stop-color="#241A04"/>
</linearGradient>
<linearGradient id="paint4_linear_213_2037" x1="47.1677" y1="73.6446" x2="59.8597" y2="60.9527" gradientUnits="userSpaceOnUse">
<stop stop-color="#241A04"/>
<stop offset="0.1959" stop-color="#A28746"/>
<stop offset="0.3113" stop-color="#E2E0DC"/>
<stop offset="0.4279" stop-color="#A2760E"/>
<stop offset="1" stop-color="#241A04"/>
</linearGradient>
<linearGradient id="paint5_linear_213_2037" x1="66.2207" y1="92.6976" x2="78.9127" y2="80.0056" gradientUnits="userSpaceOnUse">
<stop stop-color="#241A04"/>
<stop offset="0.1959" stop-color="#A28746"/>
<stop offset="0.3113" stop-color="#E2E0DC"/>
<stop offset="0.4279" stop-color="#A2760E"/>
<stop offset="1" stop-color="#241A04"/>
</linearGradient>
<linearGradient id="paint6_linear_213_2037" x1="12.2095" y1="13.3024" x2="-0.4825" y2="25.9944" gradientUnits="userSpaceOnUse">
<stop stop-color="#71530D"/>
<stop offset="0.0919" stop-color="#A27713"/>
<stop offset="0.2499" stop-color="#E2E0DC"/>
<stop offset="0.5868" stop-color="#A2760E"/>
<stop offset="1" stop-color="#241A04"/>
</linearGradient>
<linearGradient id="paint7_linear_213_2037" x1="31.2624" y1="32.3554" x2="18.5704" y2="45.0473" gradientUnits="userSpaceOnUse">
<stop stop-color="#71530D"/>
<stop offset="0.0919" stop-color="#A27713"/>
<stop offset="0.2499" stop-color="#E2E0DC"/>
<stop offset="0.5868" stop-color="#A2760E"/>
<stop offset="1" stop-color="#241A04"/>
</linearGradient>
<linearGradient id="paint8_linear_213_2037" x1="50.3154" y1="51.4084" x2="37.6234" y2="64.1003" gradientUnits="userSpaceOnUse">
<stop stop-color="#71530D"/>
<stop offset="0.0919" stop-color="#A27713"/>
<stop offset="0.2499" stop-color="#E2E0DC"/>
<stop offset="0.5868" stop-color="#A2760E"/>
<stop offset="1" stop-color="#241A04"/>
</linearGradient>
<linearGradient id="paint9_linear_213_2037" x1="69.3683" y1="70.4613" x2="56.6764" y2="83.1533" gradientUnits="userSpaceOnUse">
<stop stop-color="#71530D"/>
<stop offset="0.0919" stop-color="#A27713"/>
<stop offset="0.2499" stop-color="#E2E0DC"/>
<stop offset="0.5868" stop-color="#A2760E"/>
<stop offset="1" stop-color="#241A04"/>
</linearGradient>
</defs>
</svg>
