<svg width="52" height="24" viewBox="0 0 52 24" fill="none" xmlns="http://www.w3.org/2000/svg">
<rect x="2" y="1.98901" width="49" height="20" rx="10" fill="url(#paint0_linear_42_2610)"/>
<rect x="2" y="1.98901" width="49" height="20" rx="10" stroke="#5C88BC" stroke-width="3" stroke-linejoin="round"/>
<path d="M10.3633 15.989V7.39917H16.7324V8.85229H12.0977V10.7566H16.4102V12.2039H12.0977V14.5417H16.8965V15.989H10.3633ZM18.3438 15.989V7.39917H20.9395L22.498 13.2585L24.0391 7.39917H26.6406V15.989H25.0293V9.22729L23.3242 15.989H21.6543L19.9551 9.22729V15.989H18.3438ZM32.3594 12.8308V11.3835H36.0977V14.8054C35.7344 15.157 35.207 15.4675 34.5156 15.7371C33.8281 16.0027 33.1309 16.1355 32.4238 16.1355C31.5254 16.1355 30.7422 15.948 30.0742 15.573C29.4062 15.1941 28.9043 14.655 28.5684 13.9558C28.2324 13.2527 28.0645 12.489 28.0645 11.6648C28.0645 10.7703 28.252 9.97534 28.627 9.28003C29.002 8.58472 29.5508 8.05151 30.2734 7.68042C30.8242 7.39526 31.5098 7.25269 32.3301 7.25269C33.3965 7.25269 34.2285 7.47729 34.8262 7.92651C35.4277 8.37183 35.8145 8.98901 35.9863 9.77808L34.2637 10.1003C34.1426 9.67847 33.9141 9.34644 33.5781 9.10425C33.2461 8.85815 32.8301 8.73511 32.3301 8.73511C31.5723 8.73511 30.9688 8.97534 30.5195 9.45581C30.0742 9.93628 29.8516 10.6492 29.8516 11.5945C29.8516 12.614 30.0781 13.3796 30.5312 13.8914C30.9844 14.3992 31.5781 14.6531 32.3125 14.6531C32.6758 14.6531 33.0391 14.5828 33.4023 14.4421C33.7695 14.2976 34.084 14.1238 34.3457 13.9207V12.8308H32.3594ZM41.5527 15.989H39.9062V9.78394C39.3047 10.3464 38.5957 10.7625 37.7793 11.032V9.53784C38.209 9.39722 38.6758 9.13159 39.1797 8.74097C39.6836 8.34644 40.0293 7.88745 40.2168 7.36401H41.5527V15.989Z" fill="white"/>
<defs>
<linearGradient id="paint0_linear_42_2610" x1="26.5" y1="1.98901" x2="26.5" y2="21.989" gradientUnits="userSpaceOnUse">
<stop stop-color="#5C88BC"/>
<stop offset="1" stop-color="#813E00"/>
</linearGradient>
</defs>
</svg>
