<svg width="42" height="24" viewBox="0 0 42 24" fill="none" xmlns="http://www.w3.org/2000/svg">
<rect x="2" y="1.98901" width="39" height="20" rx="10" fill="url(#paint0_linear_42_2650)"/>
<rect x="2" y="1.98901" width="39" height="20" rx="10" stroke="#5372CC" stroke-width="3" stroke-linejoin="round"/>
<path d="M10.0332 15.989V7.39917H16.4023V8.85229H11.7676V10.7566H16.0801V12.2039H11.7676V14.5417H16.5664V15.989H10.0332ZM20.2285 15.989L17.1582 7.39917H19.0391L21.2129 13.7566L23.3164 7.39917H25.1562L22.0801 15.989H20.2285ZM31.5371 12.8308L33.2188 13.364C32.9609 14.3015 32.5312 14.9988 31.9297 15.4558C31.332 15.9089 30.5723 16.1355 29.6504 16.1355C28.5098 16.1355 27.5723 15.7468 26.8379 14.9695C26.1035 14.1882 25.7363 13.1218 25.7363 11.7703C25.7363 10.3406 26.1055 9.2312 26.8438 8.44214C27.582 7.64917 28.5527 7.25269 29.7559 7.25269C30.8066 7.25269 31.6602 7.56323 32.3164 8.18433C32.707 8.55151 33 9.07886 33.1953 9.76636L31.4785 10.1765C31.377 9.7312 31.1641 9.37964 30.8398 9.12183C30.5195 8.86401 30.1289 8.73511 29.668 8.73511C29.0312 8.73511 28.5137 8.96362 28.1152 9.42065C27.7207 9.87769 27.5234 10.6179 27.5234 11.6414C27.5234 12.7273 27.7188 13.5007 28.1094 13.9617C28.5 14.4226 29.0078 14.6531 29.6328 14.6531C30.0938 14.6531 30.4902 14.5066 30.8223 14.2136C31.1543 13.9207 31.3926 13.4597 31.5371 12.8308Z" fill="white"/>
<defs>
<linearGradient id="paint0_linear_42_2650" x1="21.5" y1="1.98901" x2="21.5" y2="21.989" gradientUnits="userSpaceOnUse">
<stop stop-color="#5372CC"/>
<stop offset="1" stop-color="#82B6E2"/>
</linearGradient>
</defs>
</svg>
