<svg width="53" height="24" viewBox="0 0 53 24" fill="none" xmlns="http://www.w3.org/2000/svg">
<rect x="2" y="1.98901" width="50" height="20" rx="10" fill="url(#paint0_linear_64_1816)"/>
<rect x="2" y="1.98901" width="50" height="20" rx="10" stroke="#008A31" stroke-width="3" stroke-linejoin="round"/>
<path d="M9.84961 15.989V7.39917H12.4453L14.0039 13.2585L15.5449 7.39917H18.1465V15.989H16.5352V9.22729L14.8301 15.989H13.1602L11.4609 9.22729V15.989H9.84961ZM19.8457 15.989V7.39917H22.4414L24 13.2585L25.541 7.39917H28.1426V15.989H26.5312V9.22729L24.8262 15.989H23.1562L21.457 9.22729V15.989H19.8457ZM29.8535 7.39917H31.5879V12.0515C31.5879 12.7898 31.6094 13.2683 31.6523 13.4871C31.7266 13.8386 31.9023 14.1218 32.1797 14.3367C32.4609 14.5476 32.8438 14.6531 33.3281 14.6531C33.8203 14.6531 34.1914 14.5535 34.4414 14.3542C34.6914 14.1511 34.8418 13.9031 34.8926 13.6101C34.9434 13.3171 34.9688 12.8308 34.9688 12.1511V7.39917H36.7031V11.9109C36.7031 12.9421 36.6562 13.6707 36.5625 14.0964C36.4688 14.5222 36.2949 14.8816 36.041 15.1746C35.791 15.4675 35.4551 15.7019 35.0332 15.8777C34.6113 16.0496 34.0605 16.1355 33.3809 16.1355C32.5605 16.1355 31.9375 16.0417 31.5117 15.8542C31.0898 15.6628 30.7559 15.4167 30.5098 15.116C30.2637 14.8113 30.1016 14.4929 30.0234 14.1609C29.9102 13.6687 29.8535 12.9421 29.8535 11.9812V7.39917ZM40.4707 15.989V8.85229H37.9219V7.39917H44.748V8.85229H42.2051V15.989H40.4707Z" fill="white"/>
<defs>
<linearGradient id="paint0_linear_64_1816" x1="27" y1="1.98901" x2="27" y2="21.989" gradientUnits="userSpaceOnUse">
<stop stop-color="#008A31"/>
<stop offset="1" stop-color="#9F3600"/>
</linearGradient>
</defs>
</svg>
