<svg width="50" height="24" viewBox="0 0 50 24" fill="none" xmlns="http://www.w3.org/2000/svg">
<rect x="2" y="1.98901" width="47" height="20" rx="10" fill="url(#paint0_linear_35_1416)"/>
<rect x="2" y="1.98901" width="47" height="20" rx="10" stroke="#D77C1F" stroke-width="3" stroke-linejoin="round"/>
<path d="M18.1055 15.989H16.2188L15.4688 14.0378H12.0352L11.3262 15.989H9.48633L12.832 7.39917H14.666L18.1055 15.989ZM14.9121 12.5906L13.7285 9.40308L12.5684 12.5906H14.9121ZM19.0781 15.989V7.46948H20.8125V14.5417H25.125V15.989H19.0781ZM30.3633 12.8308V11.3835H34.1016V14.8054C33.7383 15.157 33.2109 15.4675 32.5195 15.7371C31.832 16.0027 31.1348 16.1355 30.4277 16.1355C29.5293 16.1355 28.7461 15.948 28.0781 15.573C27.4102 15.1941 26.9082 14.655 26.5723 13.9558C26.2363 13.2527 26.0684 12.489 26.0684 11.6648C26.0684 10.7703 26.2559 9.97534 26.6309 9.28003C27.0059 8.58472 27.5547 8.05151 28.2773 7.68042C28.8281 7.39526 29.5137 7.25269 30.334 7.25269C31.4004 7.25269 32.2324 7.47729 32.8301 7.92651C33.4316 8.37183 33.8184 8.98901 33.9902 9.77808L32.2676 10.1003C32.1465 9.67847 31.918 9.34644 31.582 9.10425C31.25 8.85815 30.834 8.73511 30.334 8.73511C29.5762 8.73511 28.9727 8.97534 28.5234 9.45581C28.0781 9.93628 27.8555 10.6492 27.8555 11.5945C27.8555 12.614 28.082 13.3796 28.5352 13.8914C28.9883 14.3992 29.582 14.6531 30.3164 14.6531C30.6797 14.6531 31.043 14.5828 31.4062 14.4421C31.7734 14.2976 32.0879 14.1238 32.3496 13.9207V12.8308H30.3633ZM40.9043 14.4597V15.989H35.1328C35.1953 15.4109 35.3828 14.864 35.6953 14.3484C36.0078 13.8289 36.625 13.1414 37.5469 12.2859C38.2891 11.5945 38.7441 11.1257 38.9121 10.8796C39.1387 10.5398 39.252 10.2039 39.252 9.87183C39.252 9.50464 39.1523 9.22339 38.9531 9.02808C38.7578 8.82886 38.4863 8.72925 38.1387 8.72925C37.7949 8.72925 37.5215 8.83276 37.3184 9.03979C37.1152 9.24683 36.998 9.59058 36.9668 10.071L35.3262 9.90698C35.4238 9.00073 35.7305 8.35034 36.2461 7.95581C36.7617 7.56128 37.4062 7.36401 38.1797 7.36401C39.0273 7.36401 39.6934 7.59253 40.1777 8.04956C40.6621 8.50659 40.9043 9.07495 40.9043 9.75464C40.9043 10.1414 40.834 10.5105 40.6934 10.8621C40.5566 11.2097 40.3379 11.575 40.0371 11.9578C39.8379 12.2117 39.4785 12.5769 38.959 13.0535C38.4395 13.53 38.1094 13.8464 37.9688 14.0027C37.832 14.1589 37.7207 14.3113 37.6348 14.4597H40.9043Z" fill="white"/>
<defs>
<linearGradient id="paint0_linear_35_1416" x1="25.5" y1="1.98901" x2="25.5" y2="21.989" gradientUnits="userSpaceOnUse">
<stop stop-color="#659EED"/>
<stop offset="1" stop-color="#D77C1F"/>
</linearGradient>
</defs>
</svg>
