<svg width="44" height="24" viewBox="0 0 44 24" fill="none" xmlns="http://www.w3.org/2000/svg">
<rect x="2" y="1.98901" width="41" height="20" rx="10" fill="url(#paint0_linear_83_2001)"/>
<rect x="2" y="1.98901" width="41" height="20" rx="10" stroke="#E5A76B" stroke-width="3" stroke-linejoin="round"/>
<path d="M12.2988 15.989V8.85229H9.75V7.39917H16.5762V8.85229H14.0332V15.989H12.2988ZM17.6484 15.989V7.39917H19.3828V15.989H17.6484ZM21.0527 15.989V7.39917H26.9414V8.85229H22.7871V10.8855H26.373V12.3386H22.7871V15.989H21.0527ZM35.4551 15.989H33.5684L32.8184 14.0378H29.3848L28.6758 15.989H26.8359L30.1816 7.39917H32.0156L35.4551 15.989ZM32.2617 12.5906L31.0781 9.40308L29.918 12.5906H32.2617Z" fill="white"/>
<defs>
<linearGradient id="paint0_linear_83_2001" x1="22.5" y1="1.98901" x2="22.5" y2="21.989" gradientUnits="userSpaceOnUse">
<stop stop-color="#E5A76B"/>
<stop offset="1" stop-color="#AE17CA"/>
</linearGradient>
</defs>
</svg>
