<svg width="37" height="24" viewBox="0 0 37 24" fill="none" xmlns="http://www.w3.org/2000/svg">
<rect x="2" y="1.98901" width="34" height="20" rx="10" fill="#D5A852"/>
<rect x="2" y="1.98901" width="34" height="20" rx="10" stroke="#54421F" stroke-width="3" stroke-linejoin="round"/>
<path d="M17.6934 12.8308L19.375 13.364C19.1172 14.3015 18.6875 14.9988 18.0859 15.4558C17.4883 15.9089 16.7285 16.1355 15.8066 16.1355C14.666 16.1355 13.7285 15.7468 12.9941 14.9695C12.2598 14.1882 11.8926 13.1218 11.8926 11.7703C11.8926 10.3406 12.2617 9.2312 13 8.44214C13.7383 7.64917 14.709 7.25269 15.9121 7.25269C16.9629 7.25269 17.8164 7.56323 18.4727 8.18433C18.8633 8.55151 19.1562 9.07886 19.3516 9.76636L17.6348 10.1765C17.5332 9.7312 17.3203 9.37964 16.9961 9.12183C16.6758 8.86401 16.2852 8.73511 15.8242 8.73511C15.1875 8.73511 14.6699 8.96362 14.2715 9.42065C13.877 9.87769 13.6797 10.6179 13.6797 11.6414C13.6797 12.7273 13.875 13.5007 14.2656 13.9617C14.6562 14.4226 15.1641 14.6531 15.7891 14.6531C16.25 14.6531 16.6465 14.5066 16.9785 14.2136C17.3105 13.9207 17.5488 13.4597 17.6934 12.8308ZM23.7344 15.989V14.2605H20.2188V12.8191L23.9453 7.36401H25.3281V12.8132H26.3945V14.2605H25.3281V15.989H23.7344ZM23.7344 12.8132V9.87769L21.7598 12.8132H23.7344Z" fill="white"/>
</svg>
