<svg width="62" height="24" viewBox="0 0 62 24" fill="none" xmlns="http://www.w3.org/2000/svg">
<rect x="2" y="1.98901" width="59" height="20" rx="10" fill="url(#paint0_linear_46_4276)"/>
<rect x="2" y="1.98901" width="59" height="20" rx="10" stroke="#006F9C" stroke-width="3" stroke-linejoin="round"/>
<path d="M14.0273 12.8308V11.3835H17.7656V14.8054C17.4023 15.157 16.875 15.4675 16.1836 15.7371C15.4961 16.0027 14.7988 16.1355 14.0918 16.1355C13.1934 16.1355 12.4102 15.948 11.7422 15.573C11.0742 15.1941 10.5723 14.655 10.2363 13.9558C9.90039 13.2527 9.73242 12.489 9.73242 11.6648C9.73242 10.7703 9.91992 9.97534 10.2949 9.28003C10.6699 8.58472 11.2188 8.05151 11.9414 7.68042C12.4922 7.39526 13.1777 7.25269 13.998 7.25269C15.0645 7.25269 15.8965 7.47729 16.4941 7.92651C17.0957 8.37183 17.4824 8.98901 17.6543 9.77808L15.9316 10.1003C15.8105 9.67847 15.582 9.34644 15.2461 9.10425C14.9141 8.85815 14.498 8.73511 13.998 8.73511C13.2402 8.73511 12.6367 8.97534 12.1875 9.45581C11.7422 9.93628 11.5195 10.6492 11.5195 11.5945C11.5195 12.614 11.7461 13.3796 12.1992 13.8914C12.6523 14.3992 13.2461 14.6531 13.9805 14.6531C14.3438 14.6531 14.707 14.5828 15.0703 14.4421C15.4375 14.2976 15.752 14.1238 16.0137 13.9207V12.8308H14.0273ZM18.9316 13.1941L20.6191 13.03C20.7207 13.5964 20.9258 14.0125 21.2344 14.2781C21.5469 14.5437 21.9668 14.6765 22.4941 14.6765C23.0527 14.6765 23.4727 14.5593 23.7539 14.325C24.0391 14.0867 24.1816 13.8093 24.1816 13.4929C24.1816 13.2898 24.1211 13.1179 24 12.9773C23.8828 12.8328 23.6758 12.7078 23.3789 12.6023C23.1758 12.532 22.7129 12.407 21.9902 12.2273C21.0605 11.9968 20.4082 11.7136 20.0332 11.3777C19.5059 10.905 19.2422 10.3289 19.2422 9.64917C19.2422 9.21167 19.3652 8.80347 19.6113 8.42456C19.8613 8.04175 20.2188 7.75073 20.6836 7.55151C21.1523 7.35229 21.7168 7.25269 22.377 7.25269C23.4551 7.25269 24.2656 7.48901 24.8086 7.96167C25.3555 8.43433 25.6426 9.06519 25.6699 9.85425L23.9355 9.93042C23.8613 9.48901 23.7012 9.17261 23.4551 8.9812C23.2129 8.78589 22.8477 8.68823 22.3594 8.68823C21.8555 8.68823 21.4609 8.79175 21.1758 8.99878C20.9922 9.13159 20.9004 9.30933 20.9004 9.53198C20.9004 9.73511 20.9863 9.90894 21.1582 10.0535C21.377 10.2371 21.9082 10.4285 22.752 10.6277C23.5957 10.8269 24.2188 11.0339 24.6211 11.2488C25.0273 11.4597 25.3438 11.7507 25.5703 12.1218C25.8008 12.489 25.916 12.9441 25.916 13.4871C25.916 13.9792 25.7793 14.4402 25.5059 14.8699C25.2324 15.2996 24.8457 15.6199 24.3457 15.8308C23.8457 16.0378 23.2227 16.1414 22.4766 16.1414C21.3906 16.1414 20.5566 15.8914 19.9746 15.3914C19.3926 14.8875 19.0449 14.155 18.9316 13.1941ZM27.3691 7.39917H30.5391C31.2539 7.39917 31.7988 7.45386 32.1738 7.56323C32.6777 7.71167 33.1094 7.97534 33.4688 8.35425C33.8281 8.73315 34.1016 9.198 34.2891 9.74878C34.4766 10.2957 34.5703 10.9714 34.5703 11.7761C34.5703 12.4832 34.4824 13.0925 34.3066 13.6042C34.0918 14.2292 33.7852 14.7351 33.3867 15.1218C33.0859 15.4148 32.6797 15.6433 32.168 15.8074C31.7852 15.9285 31.2734 15.989 30.6328 15.989H27.3691V7.39917ZM29.1035 8.85229V14.5417H30.3984C30.8828 14.5417 31.2324 14.5144 31.4473 14.4597C31.7285 14.3894 31.9609 14.2703 32.1445 14.1023C32.332 13.9343 32.4844 13.6589 32.6016 13.2761C32.7188 12.8894 32.7773 12.364 32.7773 11.7C32.7773 11.0359 32.7188 10.5261 32.6016 10.1707C32.4844 9.81519 32.3203 9.53784 32.1094 9.33862C31.8984 9.1394 31.6309 9.00464 31.3066 8.93433C31.0645 8.87964 30.5898 8.85229 29.8828 8.85229H29.1035ZM36.0234 15.989V7.39917H38.6191L40.1777 13.2585L41.7188 7.39917H44.3203V15.989H42.709V9.22729L41.0039 15.989H39.334L37.6348 9.22729V15.989H36.0234ZM46.0371 7.39917H49.207C49.9219 7.39917 50.4668 7.45386 50.8418 7.56323C51.3457 7.71167 51.7773 7.97534 52.1367 8.35425C52.4961 8.73315 52.7695 9.198 52.957 9.74878C53.1445 10.2957 53.2383 10.9714 53.2383 11.7761C53.2383 12.4832 53.1504 13.0925 52.9746 13.6042C52.7598 14.2292 52.4531 14.7351 52.0547 15.1218C51.7539 15.4148 51.3477 15.6433 50.8359 15.8074C50.4531 15.9285 49.9414 15.989 49.3008 15.989H46.0371V7.39917ZM47.7715 8.85229V14.5417H49.0664C49.5508 14.5417 49.9004 14.5144 50.1152 14.4597C50.3965 14.3894 50.6289 14.2703 50.8125 14.1023C51 13.9343 51.1523 13.6589 51.2695 13.2761C51.3867 12.8894 51.4453 12.364 51.4453 11.7C51.4453 11.0359 51.3867 10.5261 51.2695 10.1707C51.1523 9.81519 50.9883 9.53784 50.7773 9.33862C50.5664 9.1394 50.2988 9.00464 49.9746 8.93433C49.7324 8.87964 49.2578 8.85229 48.5508 8.85229H47.7715Z" fill="white"/>
<defs>
<linearGradient id="paint0_linear_46_4276" x1="31.5" y1="1.98901" x2="31.5" y2="21.989" gradientUnits="userSpaceOnUse">
<stop stop-color="#FF614D"/>
<stop offset="1" stop-color="#006F9C"/>
</linearGradient>
</defs>
</svg>
