<svg width="59" height="24" viewBox="0 0 59 24" fill="none" xmlns="http://www.w3.org/2000/svg">
<rect x="2" y="1.98901" width="56" height="20" rx="10" fill="url(#paint0_linear_84_2043)"/>
<rect x="2" y="1.98901" width="56" height="20" rx="10" stroke="#E59924" stroke-width="3" stroke-linejoin="round"/>
<path d="M10.1777 7.39917H11.9121V12.0515C11.9121 12.7898 11.9336 13.2683 11.9766 13.4871C12.0508 13.8386 12.2266 14.1218 12.5039 14.3367C12.7852 14.5476 13.168 14.6531 13.6523 14.6531C14.1445 14.6531 14.5156 14.5535 14.7656 14.3542C15.0156 14.1511 15.166 13.9031 15.2168 13.6101C15.2676 13.3171 15.293 12.8308 15.293 12.1511V7.39917H17.0273V11.9109C17.0273 12.9421 16.9805 13.6707 16.8867 14.0964C16.793 14.5222 16.6191 14.8816 16.3652 15.1746C16.1152 15.4675 15.7793 15.7019 15.3574 15.8777C14.9355 16.0496 14.3848 16.1355 13.7051 16.1355C12.8848 16.1355 12.2617 16.0417 11.8359 15.8542C11.4141 15.6628 11.0801 15.4167 10.834 15.116C10.5879 14.8113 10.4258 14.4929 10.3477 14.1609C10.2344 13.6687 10.1777 12.9421 10.1777 11.9812V7.39917ZM18.8672 7.39917H22.3008C22.9805 7.39917 23.4863 7.42847 23.8184 7.48706C24.1543 7.54175 24.4531 7.65894 24.7148 7.83862C24.9805 8.01831 25.2012 8.25854 25.377 8.55933C25.5527 8.8562 25.6406 9.19019 25.6406 9.56128C25.6406 9.96362 25.5312 10.3328 25.3125 10.6687C25.0977 11.0046 24.8047 11.2566 24.4336 11.4246C24.957 11.5769 25.3594 11.8367 25.6406 12.2039C25.9219 12.571 26.0625 13.0027 26.0625 13.4988C26.0625 13.8894 25.9707 14.2703 25.7871 14.6414C25.6074 15.0085 25.3594 15.3035 25.043 15.5261C24.7305 15.7449 24.3438 15.8796 23.8828 15.9304C23.5938 15.9617 22.8965 15.9812 21.791 15.989H18.8672V7.39917ZM20.6016 8.82886V10.8152H21.7383C22.4141 10.8152 22.834 10.8054 22.998 10.7859C23.2949 10.7507 23.5273 10.6492 23.6953 10.4812C23.8672 10.3093 23.9531 10.0847 23.9531 9.80737C23.9531 9.54175 23.8789 9.3269 23.7305 9.16284C23.5859 8.99487 23.3691 8.89331 23.0801 8.85815C22.9082 8.83862 22.4141 8.82886 21.5977 8.82886H20.6016ZM20.6016 12.2449V14.5417H22.207C22.832 14.5417 23.2285 14.5242 23.3965 14.489C23.6543 14.4421 23.8633 14.3289 24.0234 14.1492C24.1875 13.9656 24.2695 13.7214 24.2695 13.4167C24.2695 13.1589 24.207 12.9402 24.082 12.7605C23.957 12.5808 23.7754 12.45 23.5371 12.3679C23.3027 12.2859 22.791 12.2449 22.002 12.2449H20.6016ZM33.0293 12.8308L34.7109 13.364C34.4531 14.3015 34.0234 14.9988 33.4219 15.4558C32.8242 15.9089 32.0645 16.1355 31.1426 16.1355C30.002 16.1355 29.0645 15.7468 28.3301 14.9695C27.5957 14.1882 27.2285 13.1218 27.2285 11.7703C27.2285 10.3406 27.5977 9.2312 28.3359 8.44214C29.0742 7.64917 30.0449 7.25269 31.248 7.25269C32.2988 7.25269 33.1523 7.56323 33.8086 8.18433C34.1992 8.55151 34.4922 9.07886 34.6875 9.76636L32.9707 10.1765C32.8691 9.7312 32.6562 9.37964 32.332 9.12183C32.0117 8.86401 31.6211 8.73511 31.1602 8.73511C30.5234 8.73511 30.0059 8.96362 29.6074 9.42065C29.2129 9.87769 29.0156 10.6179 29.0156 11.6414C29.0156 12.7273 29.2109 13.5007 29.6016 13.9617C29.9922 14.4226 30.5 14.6531 31.125 14.6531C31.5859 14.6531 31.9824 14.5066 32.3145 14.2136C32.6465 13.9207 32.8848 13.4597 33.0293 12.8308ZM36.2109 15.989V7.39917H37.9453V10.78H41.3438V7.39917H43.0781V15.989H41.3438V12.2332H37.9453V15.989H36.2109ZM45.9258 11.3542C45.5 11.1746 45.1895 10.9285 44.9941 10.616C44.8027 10.2996 44.707 9.95386 44.707 9.57886C44.707 8.93823 44.9297 8.40894 45.375 7.99097C45.8242 7.573 46.4609 7.36401 47.2852 7.36401C48.1016 7.36401 48.7344 7.573 49.1836 7.99097C49.6367 8.40894 49.8633 8.93823 49.8633 9.57886C49.8633 9.97729 49.7598 10.3328 49.5527 10.6453C49.3457 10.9539 49.0547 11.1902 48.6797 11.3542C49.1562 11.5457 49.5176 11.825 49.7637 12.1921C50.0137 12.5593 50.1387 12.9832 50.1387 13.4636C50.1387 14.2566 49.8848 14.9011 49.377 15.3972C48.873 15.8933 48.2012 16.1414 47.3613 16.1414C46.5801 16.1414 45.9297 15.9363 45.4102 15.5261C44.7969 15.0417 44.4902 14.3777 44.4902 13.5339C44.4902 13.0691 44.6055 12.6433 44.8359 12.2566C45.0664 11.866 45.4297 11.5652 45.9258 11.3542ZM46.2656 9.69604C46.2656 10.0242 46.3574 10.28 46.541 10.4636C46.7285 10.6472 46.9766 10.739 47.2852 10.739C47.5977 10.739 47.8477 10.6472 48.0352 10.4636C48.2227 10.2761 48.3164 10.0183 48.3164 9.69019C48.3164 9.38159 48.2227 9.1355 48.0352 8.9519C47.8516 8.7644 47.6074 8.67065 47.3027 8.67065C46.9863 8.67065 46.7344 8.7644 46.5469 8.9519C46.3594 9.1394 46.2656 9.38745 46.2656 9.69604ZM46.1133 13.3757C46.1133 13.8289 46.2285 14.1824 46.459 14.4363C46.6934 14.6902 46.9844 14.8171 47.332 14.8171C47.6719 14.8171 47.9531 14.696 48.1758 14.4539C48.3984 14.2078 48.5098 13.8542 48.5098 13.3933C48.5098 12.991 48.3965 12.6687 48.1699 12.4265C47.9434 12.1804 47.6562 12.0574 47.3086 12.0574C46.9062 12.0574 46.6055 12.196 46.4062 12.4734C46.2109 12.7507 46.1133 13.0515 46.1133 13.3757Z" fill="white"/>
<defs>
<linearGradient id="paint0_linear_84_2043" x1="30" y1="1.98901" x2="30" y2="21.989" gradientUnits="userSpaceOnUse">
<stop stop-color="#E59924"/>
<stop offset="1" stop-color="#3F1741"/>
</linearGradient>
</defs>
</svg>
