<svg width="122" height="100" viewBox="0 0 122 100" fill="none" xmlns="http://www.w3.org/2000/svg">
<path d="M40.1076 36.6975L29.3476 30.4875C29.4476 31.8375 29.1376 33.1875 28.4476 34.3875C27.7675 35.5675 26.7476 36.4976 25.5576 37.0976L36.2976 43.2975C38.0576 44.3175 40.4976 43.6475 41.4976 41.9075C42.0176 41.0175 42.1476 39.9975 41.8876 39.0175C41.6176 38.0275 40.9876 37.2076 40.1076 36.6975Z" fill="#FFB700"/>
<path d="M94.2676 34.3875C93.5776 33.1875 93.2676 31.8375 93.3676 30.4875L82.6076 36.6975C81.7276 37.2076 81.0976 38.0275 80.8276 39.0175C80.5677 39.9975 80.6977 41.0175 81.2076 41.9075C82.2176 43.6476 84.6576 44.3175 86.4076 43.2975L97.1576 37.0875C95.9676 36.4975 94.9476 35.5675 94.2676 34.3875Z" fill="#FFB700"/>
<path d="M56.0377 26.0775L37.9477 15.6375C38.0277 16.9375 37.7477 18.2775 37.0477 19.4975C36.3577 20.6975 35.3277 21.6375 34.1077 22.2175L49.5777 31.1476C50.0377 31.4176 50.3277 31.9075 50.3277 32.4476V92.7775C50.3277 94.8775 52.0377 96.5875 54.1378 96.5875C56.2378 96.5875 57.9478 94.8775 57.9478 92.7775V29.3776C57.9477 28.0275 57.2177 26.7575 56.0377 26.0775Z" fill="#3BA33B"/>
<path d="M85.6677 19.4975C84.9677 18.2775 84.6877 16.9375 84.7677 15.6375L66.6777 26.0775C65.4977 26.7575 64.7677 28.0275 64.7677 29.3775V92.7775C64.7677 94.8774 66.4777 96.5874 68.5777 96.5874C70.6777 96.5874 72.3878 94.8774 72.3878 92.7775V32.4475C72.3878 31.9075 72.6778 31.4175 73.1378 31.1475L88.6078 22.2174C87.3877 21.6375 86.3577 20.6975 85.6677 19.4975Z" fill="#3BA33B"/>
<path d="M24.4576 27.6774L24.3476 27.6174L21.2576 25.8274L19.5876 24.8574L9.57762 19.0774C8.97762 18.7374 8.32762 18.5674 7.67762 18.5674C6.35762 18.5674 5.07762 19.2574 4.37762 20.4774C3.32762 22.2874 3.94762 24.6274 5.76762 25.6774L15.7976 31.4774L17.4876 32.4474L20.6476 34.2774C20.7076 34.3074 20.7576 34.3374 20.8176 34.3574C22.5676 35.2574 24.8676 34.5774 25.8476 32.8774C26.3576 31.9974 26.4976 30.9774 26.2376 29.9974C25.9676 29.0075 25.3376 28.1875 24.4576 27.6774Z" fill="#FF6561"/>
<path d="M118.338 20.4674C117.638 19.2574 116.358 18.5674 115.038 18.5674C114.388 18.5674 113.738 18.7374 113.138 19.0774L103.128 24.8574L101.458 25.8274L98.3677 27.6174L98.2577 27.6774C97.3777 28.1874 96.7477 29.0074 96.4777 29.9974C96.2177 30.9774 96.3577 31.9974 96.8677 32.8774C97.8477 34.5874 100.158 35.2574 101.898 34.3574C101.958 34.3374 102.008 34.3074 102.068 34.2774L105.228 32.4474L106.918 31.4774L116.948 25.6774C118.768 24.6275 119.388 22.2874 118.338 20.4674Z" fill="#FF6561"/>
<path d="M33.1476 12.8675C33.1176 12.8375 33.0776 12.8175 33.0476 12.7975L29.8576 10.9575L28.1576 9.97751L18.1376 4.20751C17.5576 3.86751 16.9076 3.69751 16.2476 3.69751C15.9076 3.69751 15.5776 3.73751 15.2476 3.82751C14.2676 4.08751 13.4476 4.72751 12.9376 5.60751C11.8876 7.42751 12.5176 9.75751 14.3376 10.8075L24.3476 16.5775L26.0476 17.5475L29.0776 19.2975L29.2476 19.3975C31.0076 20.4275 33.4376 19.7475 34.4476 17.9975C35.4776 16.2075 34.8876 13.9375 33.1476 12.8675Z" fill="#FF6561"/>
<path d="M98.3676 16.5775L108.378 10.8075C110.198 9.75751 110.828 7.42751 109.778 5.60751C109.268 4.72751 108.448 4.08751 107.468 3.82751C107.138 3.73751 106.808 3.69751 106.468 3.69751C105.808 3.69751 105.158 3.86751 104.578 4.20751L94.5677 9.97751L92.8577 10.9575L89.6677 12.7975C89.6377 12.8175 89.5977 12.8375 89.5677 12.8675C87.8276 13.9375 87.2377 16.2075 88.2677 17.9975C89.2777 19.7475 91.7077 20.4175 93.4677 19.3975L93.6377 19.2975L96.6677 17.5475L98.3676 16.5775Z" fill="#FF6561"/>
<path d="M41.6076 34.0973L25.9876 25.0773C25.8576 24.9973 25.7176 24.9273 25.5776 24.8573L11.0776 16.4773C7.82761 14.5973 3.65761 15.7173 1.77761 18.9673C-0.102393 22.2273 1.01761 26.3974 4.26761 28.2673L19.1476 36.8673C19.1576 36.8773 19.1676 36.8773 19.1776 36.8773C19.2276 36.9173 19.2876 36.9473 19.3376 36.9673L34.7976 45.8974C35.8376 46.4974 37.0076 46.8074 38.1976 46.8074C40.6276 46.8074 42.8976 45.5074 44.0976 43.4074C45.0176 41.8274 45.2576 39.9974 44.7876 38.2374C44.3176 36.4773 43.1876 35.0074 41.6076 34.0973ZM20.8176 34.3573C20.7576 34.3373 20.7076 34.3073 20.6476 34.2773L17.4876 32.4473L15.7976 31.4773L5.76761 25.6773C3.94771 24.6273 3.32761 22.2873 4.37761 20.4773C5.07761 19.2573 6.35761 18.5673 7.67761 18.5673C8.32761 18.5673 8.97761 18.7373 9.57761 19.0773L19.5876 24.8573L21.2576 25.8273L24.3476 27.6173L24.4576 27.6773C25.3376 28.1873 25.9676 29.0073 26.2376 29.9973C26.4976 30.9773 26.3576 31.9973 25.8476 32.8773C24.8676 34.5774 22.5676 35.2574 20.8176 34.3573ZM41.4976 41.9073C40.4976 43.6474 38.0576 44.3173 36.2976 43.2973L25.5576 37.0973C26.7476 36.4973 27.7676 35.5673 28.4476 34.3873C29.1376 33.1873 29.4476 31.8373 29.3476 30.4873L40.1076 36.6973C40.9876 37.2073 41.6176 38.0273 41.8876 39.0173C42.1476 39.9974 42.0176 41.0174 41.4976 41.9073Z" fill="#3855FC"/>
<path d="M120.938 18.9673C119.058 15.7173 114.888 14.5973 111.638 16.4773L97.1377 24.8573C96.9977 24.9273 96.8577 24.9973 96.7277 25.0773L81.1077 34.0973C79.5277 35.0073 78.3977 36.4773 77.9277 38.2373C77.4577 39.9973 77.6977 41.8273 78.6077 43.4073C79.8177 45.5073 82.0877 46.8073 84.5177 46.8073C85.7077 46.8073 86.8777 46.4973 87.9177 45.8973L103.378 36.9672C103.428 36.9472 103.488 36.9172 103.538 36.8772C103.548 36.8772 103.558 36.8772 103.568 36.8672L118.448 28.2672C121.698 26.3974 122.818 22.2273 120.938 18.9673ZM86.4077 43.2973C84.6577 44.3173 82.2177 43.6473 81.2077 41.9073C80.6978 41.0173 80.5677 39.9973 80.8277 39.0173C81.0977 38.0273 81.7277 37.2073 82.6077 36.6973L93.3677 30.4873C93.2677 31.8373 93.5777 33.1873 94.2677 34.3873C94.9478 35.5673 95.9677 36.4973 97.1577 37.0873L86.4077 43.2973ZM116.948 25.6773L106.918 31.4773L105.228 32.4473L102.068 34.2773C102.008 34.3073 101.958 34.3373 101.898 34.3573C100.158 35.2573 97.8477 34.5873 96.8677 32.8773C96.3577 31.9973 96.2177 30.9773 96.4777 29.9973C96.7477 29.0073 97.3777 28.1873 98.2577 27.6773L98.3677 27.6173L101.458 25.8273L103.128 24.8573L113.138 19.0773C113.738 18.7373 114.388 18.5673 115.038 18.5673C116.358 18.5673 117.638 19.2573 118.338 20.4673C119.388 22.2873 118.768 24.6274 116.948 25.6773Z" fill="#3855FC"/>
<path d="M57.5377 23.4775L34.7577 10.3275C34.6877 10.2775 34.6177 10.2375 34.5477 10.1975L19.6377 1.60749C18.0677 0.697493 16.2277 0.447493 14.4677 0.927493C12.7177 1.39749 11.2477 2.52749 10.3377 4.10749C9.42767 5.67749 9.18767 7.51749 9.65767 9.27749C10.1277 11.0275 11.2577 12.4975 12.8377 13.4074L27.5977 21.9174C27.6377 21.9474 27.6877 21.9774 27.7377 22.0074L47.3277 33.3174V92.7774C47.3277 96.5274 50.3777 99.5874 54.1378 99.5874C57.8878 99.5874 60.9478 96.5274 60.9478 92.7774V29.3774C60.9477 26.9576 59.6377 24.6976 57.5377 23.4775ZM29.2477 19.3976L29.0777 19.2976L26.0477 17.5476L24.3477 16.5776L14.3377 10.8076C12.5177 9.75759 11.8877 7.42759 12.9377 5.60759C13.4477 4.72759 14.2677 4.08759 15.2477 3.82759C15.5777 3.73759 15.9077 3.69759 16.2477 3.69759C16.9077 3.69759 17.5577 3.86759 18.1377 4.20759L28.1577 9.97759L29.8577 10.9576L33.0477 12.7976C33.0777 12.8176 33.1177 12.8376 33.1477 12.8676C34.8878 13.9376 35.4777 16.2076 34.4477 17.9976C33.4377 19.7476 31.0077 20.4275 29.2477 19.3976ZM57.9477 92.7776C57.9477 94.8776 56.2377 96.5876 54.1377 96.5876C52.0377 96.5876 50.3276 94.8776 50.3276 92.7776V32.4476C50.3276 31.9076 50.0376 31.4176 49.5776 31.1476L34.1076 22.2175C35.3276 21.6375 36.3576 20.6975 37.0476 19.4975C37.7476 18.2775 38.0276 16.9375 37.9476 15.6375L56.0376 26.0775C57.2176 26.7575 57.9476 28.0275 57.9476 29.3775L57.9477 92.7776Z" fill="#3855FC"/>
<path d="M95.1976 21.8676L109.878 13.4076C111.458 12.4976 112.588 11.0277 113.058 9.27769C113.528 7.51769 113.288 5.67769 112.378 4.10769C111.468 2.52769 109.998 1.39769 108.248 0.927687C106.488 0.457687 104.648 0.697687 103.078 1.60769L88.1676 10.1977C88.0976 10.2377 88.0276 10.2777 87.9576 10.3277L65.1776 23.4777C63.0776 24.6977 61.7676 26.9577 61.7676 29.3777V92.7777C61.7676 96.5277 64.8276 99.5877 68.5776 99.5877C72.3376 99.5877 75.3877 96.5277 75.3877 92.7777V33.3177L94.9777 22.0077C95.0576 21.9675 95.1276 21.9175 95.1976 21.8676ZM73.1376 31.1476C72.6776 31.4176 72.3876 31.9075 72.3876 32.4476V92.7776C72.3876 94.8776 70.6776 96.5876 68.5775 96.5876C66.4775 96.5876 64.7675 94.8776 64.7675 92.7776V29.3776C64.7675 28.0276 65.4975 26.7576 66.6775 26.0776L84.7675 15.6376C84.6875 16.9376 84.9675 18.2776 85.6675 19.4976C86.3575 20.6976 87.3875 21.6376 88.6075 22.2176L73.1376 31.1476ZM93.4676 19.3976C91.7076 20.4176 89.2776 19.7476 88.2676 17.9976C87.2376 16.2076 87.8276 13.9376 89.5676 12.8676C89.5976 12.8376 89.6376 12.8176 89.6676 12.7976L92.8576 10.9576L94.5676 9.97759L104.577 4.20759C105.157 3.86759 105.807 3.69759 106.467 3.69759C106.807 3.69759 107.137 3.73759 107.467 3.82759C108.447 4.08759 109.267 4.72759 109.777 5.60759C110.827 7.42759 110.197 9.75759 108.377 10.8076L98.3675 16.5776L96.6675 17.5476L93.6375 19.2976L93.4676 19.3976Z" fill="#3855FC"/>
</svg>
