<svg width="85" height="129" viewBox="0 0 85 129" fill="none" xmlns="http://www.w3.org/2000/svg">
<path d="M52.6411 83.8933C55.1264 83.8933 57.1411 81.8786 57.1411 79.3933C57.1411 76.908 55.1264 74.8933 52.6411 74.8933C50.1558 74.8933 48.1411 76.908 48.1411 79.3933C48.1411 81.8786 50.1558 83.8933 52.6411 83.8933Z" fill="url(#paint0_radial_92_5469)"/>
<path d="M16.1975 90.033C18.9589 90.033 21.1975 87.7944 21.1975 85.033C21.1975 82.2715 18.9589 80.033 16.1975 80.033C13.4361 80.033 11.1975 82.2715 11.1975 85.033C11.1975 87.7944 13.4361 90.033 16.1975 90.033Z" fill="url(#paint1_radial_92_5469)"/>
<path d="M35.1292 63.25C33.1961 63.25 31.6292 61.6831 31.6292 59.75V5.33105C31.6292 3.39795 33.1961 1.83105 35.1292 1.83105C37.0623 1.83105 38.6292 3.39795 38.6292 5.33105V59.7501C38.6292 61.6832 37.0623 63.25 35.1292 63.25Z" fill="url(#paint2_linear_92_5469)"/>
<path d="M45.7111 61.5044C43.778 61.5044 42.2111 59.9375 42.2111 58.0044V3.58496C42.2111 1.65186 43.778 0.0849609 45.7111 0.0849609C47.6442 0.0849609 49.2111 1.65186 49.2111 3.58496V58.0044C49.2111 59.9375 47.6442 61.5044 45.7111 61.5044Z" fill="url(#paint3_linear_92_5469)"/>
<path d="M18.5567 85.3915C17.8292 85.3915 17.0958 85.1659 16.4673 84.6977C14.918 83.5419 14.5982 81.3491 15.7534 79.7993L31.6291 58.4805C31.6291 58.4805 31.6291 62.0933 35.0458 62.5976C37.1658 62.9105 37.9887 61.7687 37.9887 61.7687L21.3657 83.9838C20.6782 84.9052 19.624 85.3915 18.5567 85.3915Z" fill="url(#paint4_linear_92_5469)"/>
<path d="M51.7613 80.187C50.2847 80.187 48.9122 79.2456 48.4327 77.7646L42.3815 59.083C42.3815 59.083 42.96 60.7591 44.8929 60.7756C48.9405 60.8103 49.2111 57.4517 49.2111 57.4517L55.0919 75.6074C55.6876 77.4463 54.6798 79.4199 52.8409 80.0156C52.4825 80.1319 52.1187 80.187 51.7613 80.187Z" fill="url(#paint5_linear_92_5469)"/>
<path d="M60.1099 82.3729C59.7328 82.262 59.3647 82.0994 59.015 81.8818C53.5956 78.5148 47.8608 76.8286 41.4815 76.7264C39.0244 76.6915 37.0666 74.6643 37.1056 72.2085C37.1448 69.7521 39.1678 67.793 41.6235 67.8326C49.5475 67.9589 56.9781 70.1437 63.7094 74.3265C65.7957 75.6224 66.4364 78.3647 65.1398 80.4514C64.0611 82.1879 61.9803 82.9229 60.1099 82.3729Z" fill="url(#paint6_radial_92_5469)"/>
<path d="M40.2556 76.8827C39.9294 77.102 39.5691 77.2814 39.1783 77.4113C33.1258 79.4298 28.165 82.7647 24.0111 87.6074C22.4146 89.4755 19.6043 89.6867 17.7398 88.0878C15.875 86.4885 15.6602 83.6805 17.2594 81.8165C22.4186 75.8008 28.8465 71.4797 36.3646 68.9731C38.6944 68.1959 41.2135 69.4548 41.9906 71.7853C42.6374 73.7246 41.8736 75.795 40.2556 76.8827Z" fill="url(#paint7_radial_92_5469)"/>
<path d="M44.4853 86.2198C44.8115 86.0005 45.1718 85.8211 45.5626 85.6912C51.6151 83.6727 56.5759 80.3378 60.7298 75.4951C62.3263 73.627 65.1366 73.4158 67.0011 75.0147C68.8659 76.614 69.0807 79.422 67.4815 81.286C62.3223 87.3017 55.8944 91.6228 48.3763 94.1294C46.0465 94.9066 43.5274 93.6477 42.7503 91.3172C42.1035 89.3779 42.8673 87.3075 44.4853 86.2198Z" fill="url(#paint8_radial_92_5469)"/>
<path d="M48.3763 94.1295C46.0465 94.9067 43.5274 93.6478 42.7503 91.3173C42.1035 89.3781 42.8672 87.3077 44.4852 86.22L48.3763 94.1295Z" fill="url(#paint9_radial_92_5469)"/>
<path d="M23.0878 82.0037C23.4649 82.1146 23.833 82.2771 24.1827 82.4948C29.6021 85.8618 35.3369 87.548 41.7162 87.6502C44.1733 87.6851 46.1311 89.7123 46.0921 92.1681C46.0529 94.6245 44.0299 96.5836 41.5742 96.544C33.6502 96.4177 26.2195 94.2329 19.4883 90.0501C17.402 88.7542 16.7613 86.0119 18.0579 83.9252C19.1366 82.1887 21.2173 81.4537 23.0878 82.0037Z" fill="url(#paint10_radial_92_5469)"/>
<path d="M41.7162 87.6501C44.1733 87.685 46.1311 89.7122 46.0921 92.168C46.0529 94.6244 44.0299 96.5835 41.5742 96.5439L41.7162 87.6501Z" fill="url(#paint11_radial_92_5469)"/>
<path opacity="0.3" d="M80.5057 89.4251C80.2663 89.3768 79.9352 89.4065 79.5575 89.4896L56.9582 61.2486V8.05816C56.9582 6.12506 55.3913 4.55816 53.4582 4.55816C51.5251 4.55816 49.9582 6.12506 49.9582 8.05816V10.7364C49.6958 10.7869 49.4492 10.8759 49.2111 10.9812V3.58496C49.2111 1.65186 47.6442 0.0849609 45.7111 0.0849609C43.778 0.0849609 42.2111 1.65186 42.2111 3.58496V13.1308C41.6129 12.6536 40.8649 12.3565 40.0402 12.3565C39.5371 12.3565 39.0614 12.4669 38.6291 12.658V5.33106C38.6291 3.39796 37.0622 1.83106 35.1291 1.83106C33.196 1.83106 31.6291 3.39796 31.6291 5.33106V7.89936C30.0137 8.20966 28.7922 9.62656 28.7922 11.3326V62.29L15.7535 79.7992C15.6831 79.8937 15.6352 79.9968 15.5757 80.0957C13.1112 80.405 11.1975 82.4846 11.1975 85.033C11.1975 86.6714 11.9966 88.1123 13.2143 89.0242C10.4036 93.4035 7.80015 97.459 5.99655 100.268C5.68535 100.188 5.46565 100.15 5.41445 100.159C2.58396 100.641 0.428955 103.106 0.428955 106.074C0.428955 109.387 3.11526 112.074 6.42896 112.074C9.74265 112.074 12.429 109.387 12.429 106.074C12.429 105.465 12.3382 104.877 12.1695 104.323C12.1571 104.282 12.0601 104.162 11.915 104.003L20.4931 90.6298C24.4736 92.9635 28.6848 94.6269 33.0965 95.577L30.4813 114.971C30.3592 114.993 30.2525 115.018 30.1823 115.051C27.7795 116.159 26.112 118.59 26.112 121.41C26.112 125.276 29.246 128.41 33.112 128.41C36.978 128.41 40.112 125.276 40.112 121.41C40.112 119.317 39.1938 117.439 37.7385 116.157C37.6517 116.08 37.5398 116.008 37.4145 115.938L40.0398 96.4691C40.5511 96.4947 41.0587 96.5357 41.5742 96.5439C43.3224 96.5721 44.8363 95.5779 45.5863 94.122C46.4636 94.4111 47.4328 94.4441 48.3763 94.1293C50.979 93.2616 53.4414 92.1616 55.7753 90.8639L64.3972 112.385C63.9899 112.697 63.7305 112.942 63.6873 113.032C63.2806 113.881 63.0533 114.832 63.0533 115.837C63.0533 119.427 65.9635 122.337 69.5533 122.337C73.1432 122.337 76.0533 119.427 76.0533 115.837C76.0533 113.069 74.3228 110.705 71.8846 109.767C71.7758 109.726 71.4082 109.729 70.8967 109.785L61.7139 86.864C63.0829 85.7619 64.3958 84.5796 65.6374 83.2989L74.0182 93.7719C73.8962 94.1064 73.8218 94.4488 73.8218 94.7974C73.8218 97.835 76.2842 100.297 79.3218 100.297C82.3593 100.297 84.8218 97.835 84.8218 94.7974C84.8218 92.1662 82.9831 89.9245 80.5057 89.4251ZM34.2887 86.7361C31.8911 86.1647 29.5774 85.3267 27.325 84.2194C29.7369 82.0647 32.3982 80.3221 35.3389 78.9483L34.2887 86.7361ZM36.3647 68.9731C35.4828 69.2671 34.6189 69.591 33.7673 69.9348L35.2384 67.6412C35.3397 67.4833 35.4217 67.3215 35.4944 67.1558C35.5136 67.112 35.5282 67.0664 35.5457 67.0217C35.5776 66.9399 35.6136 66.8604 35.6401 66.7751C35.6475 66.7513 35.6419 66.7216 35.6466 66.6966C35.7319 66.3941 35.7921 66.0813 35.7921 65.7515V64.7041L36.5401 63.7044V68.9283C36.4817 68.9451 36.423 68.9536 36.3647 68.9731ZM55.1966 70.2518C55.1442 70.2333 55.0905 70.2186 55.038 70.2003L54.9203 69.9064L55.1966 70.2518ZM43.5402 62.6602L45.2884 68.0573C44.7082 68.0032 44.1254 67.9596 43.5402 67.925V62.6602ZM45.5627 85.6913C45.1718 85.8213 44.8115 86.0006 44.4853 86.2199C43.8515 86.6459 43.3547 87.2256 43.0165 87.8863C42.6037 87.7521 42.1732 87.6567 41.7163 87.6503C41.5532 87.6477 41.3942 87.6346 41.2319 87.6299L42.6953 76.7776C44.6386 76.8729 46.521 77.1262 48.3558 77.5269L48.4328 77.7646C48.4365 77.7761 48.4426 77.786 48.4465 77.7974C48.257 78.2949 48.1412 78.8291 48.1412 79.3932C48.1412 81.2006 49.2132 82.7482 50.7505 83.464C49.1161 84.3309 47.3954 85.08 45.5627 85.6913Z" fill="#262458"/>
<path d="M53.4581 65.9771C51.525 65.9771 49.9581 64.4102 49.9581 62.4771V8.05811C49.9581 6.12501 51.525 4.55811 53.4581 4.55811C55.3912 4.55811 56.9581 6.12501 56.9581 8.05811V62.4771C56.9581 64.4102 55.3912 65.9771 53.4581 65.9771Z" fill="url(#paint12_linear_92_5469)"/>
<path d="M79.3242 98.2974C78.2973 98.2974 77.2803 97.8482 76.5888 96.9844L50.7251 64.6641C49.5176 63.1548 51.463 61.6306 53.2251 60.8355C54.3827 60.3132 56.1631 60.2805 56.958 61.2487L82.0547 92.6104C83.2622 94.1197 83.0181 96.3223 81.5088 97.5303C80.8633 98.0464 80.0908 98.2974 79.3242 98.2974Z" fill="url(#paint13_linear_92_5469)"/>
<path d="M50.6217 72.0884C48.6886 72.0884 47.1217 70.5215 47.1217 68.5884V14.1694C47.1217 12.2363 48.6886 10.6694 50.6217 10.6694C52.5548 10.6694 54.1217 12.2363 54.1217 14.1694V68.5884C54.1217 70.5215 52.5548 72.0884 50.6217 72.0884Z" fill="url(#paint14_linear_92_5469)"/>
<path d="M69.5543 119.345C68.1661 119.345 66.8522 118.513 66.3043 117.145L47.3726 69.8901C46.6538 68.0957 48.7469 65.7869 50.9509 65.5969C53.1929 65.4036 53.636 66.775 53.8707 67.2866L72.8023 114.542C73.5211 116.336 72.6495 118.374 70.855 119.093C70.4283 119.264 69.9874 119.345 69.5543 119.345Z" fill="url(#paint15_linear_92_5469)"/>
<path d="M84.8218 94.7974C84.8218 92.1663 82.9831 89.9246 80.5057 89.4251C78.953 89.1121 73.8218 91.7598 73.8218 94.7974C73.8218 97.835 76.2842 100.297 79.3218 100.297C82.3594 100.297 84.8218 97.835 84.8218 94.7974Z" fill="url(#paint16_radial_92_5469)"/>
<path d="M76.0534 115.837C76.0534 113.069 74.3229 110.705 71.8847 109.768C71.5857 109.653 69.3642 109.865 67.4187 110.65C65.4731 111.434 63.8035 112.79 63.6875 113.032C63.2808 113.881 63.0535 114.833 63.0535 115.837C63.0535 119.427 65.9636 122.337 69.5535 122.337C73.1434 122.337 76.0534 119.427 76.0534 115.837Z" fill="url(#paint17_radial_92_5469)"/>
<path d="M40.0402 73.7754C38.1071 73.7754 36.5402 72.2085 36.5402 70.2754V15.8564C36.5402 13.9233 38.1071 12.3564 40.0402 12.3564C41.9733 12.3564 43.5402 13.9233 43.5402 15.8564V70.2754C43.5402 72.2085 41.9733 73.7754 40.0402 73.7754Z" fill="url(#paint18_linear_92_5469)"/>
<path d="M32.2921 69.2515C30.359 69.2515 28.7921 67.6846 28.7921 65.7515V11.3325C28.7921 9.39942 30.359 7.83252 32.2921 7.83252C34.2252 7.83252 35.7921 9.39942 35.7921 11.3325V65.7515C35.7921 67.6846 34.2252 69.2515 32.2921 69.2515Z" fill="url(#paint19_linear_92_5469)"/>
<path d="M33.1163 125.154C32.9605 125.154 32.8028 125.144 32.6441 125.123C30.7286 124.864 29.3848 123.102 29.6431 121.186L36.5713 69.8077C36.8301 67.8922 38.5908 66.5494 40.5078 66.8067C42.4233 67.065 43.7671 68.8277 43.5088 70.7432L36.5806 122.122C36.3438 123.879 34.8414 125.154 33.1163 125.154Z" fill="url(#paint20_linear_92_5469)"/>
<path d="M6.42552 109.574C5.77852 109.574 5.12422 109.395 4.53932 109.02C2.91232 107.976 2.43922 105.811 3.48272 104.184C3.48272 104.184 26.3556 68.5621 28.7923 64.7252C31.0837 61.117 36.1104 65.263 35.6403 66.7752C35.5447 67.0828 35.4156 67.3653 35.2386 67.6413L9.37522 107.963C8.70672 109.005 7.57782 109.574 6.42552 109.574Z" fill="url(#paint21_linear_92_5469)"/>
<path d="M12.429 106.074C12.429 105.465 12.3383 104.877 12.1695 104.323C12.113 104.138 10.5271 102.504 8.84175 101.473C7.25885 100.506 5.57415 100.132 5.41445 100.159C2.58396 100.641 0.428955 103.106 0.428955 106.074C0.428955 109.388 3.11526 112.074 6.42896 112.074C9.74265 112.074 12.429 109.388 12.429 106.074Z" fill="url(#paint22_radial_92_5469)"/>
<path d="M40.1119 121.41C40.1119 119.318 39.1938 117.44 37.7384 116.157C36.5049 115.07 31.0735 114.639 30.1822 115.051C27.7794 116.16 26.1118 118.59 26.1118 121.41C26.1118 125.276 29.2458 128.41 33.1118 128.41C36.9778 128.41 40.1119 125.276 40.1119 121.41Z" fill="url(#paint23_radial_92_5469)"/>
<defs>
<radialGradient id="paint0_radial_92_5469" cx="0" cy="0" r="1" gradientUnits="userSpaceOnUse" gradientTransform="translate(52.6411 79.3933) scale(4.5)">
<stop stop-color="#D3A94D"/>
<stop offset="1" stop-color="#9C7A35"/>
</radialGradient>
<radialGradient id="paint1_radial_92_5469" cx="0" cy="0" r="1" gradientUnits="userSpaceOnUse" gradientTransform="translate(14.9427 83.0855) scale(5)">
<stop stop-color="#D3A94D"/>
<stop offset="1" stop-color="#9C7A35"/>
</radialGradient>
<linearGradient id="paint2_linear_92_5469" x1="31.6292" y1="32.5406" x2="38.6292" y2="32.5406" gradientUnits="userSpaceOnUse">
<stop stop-color="#9C7A35"/>
<stop offset="0.0264" stop-color="#A58138"/>
<stop offset="0.1159" stop-color="#BE9643"/>
<stop offset="0.2042" stop-color="#CEA44A"/>
<stop offset="0.2895" stop-color="#D3A94D"/>
<stop offset="1" stop-color="#9C7A35"/>
</linearGradient>
<linearGradient id="paint3_linear_92_5469" x1="42.2111" y1="30.7947" x2="49.2111" y2="30.7947" gradientUnits="userSpaceOnUse">
<stop stop-color="#9C7A35"/>
<stop offset="0.0264" stop-color="#A58138"/>
<stop offset="0.1159" stop-color="#BE9643"/>
<stop offset="0.2042" stop-color="#CEA44A"/>
<stop offset="0.2895" stop-color="#D3A94D"/>
<stop offset="1" stop-color="#9C7A35"/>
</linearGradient>
<linearGradient id="paint4_linear_92_5469" x1="22.8655" y1="70.0325" x2="28.6429" y2="74.2714" gradientUnits="userSpaceOnUse">
<stop stop-color="#9C7A35"/>
<stop offset="0.0264" stop-color="#A58138"/>
<stop offset="0.1159" stop-color="#BE9643"/>
<stop offset="0.2042" stop-color="#CEA44A"/>
<stop offset="0.2895" stop-color="#D3A94D"/>
<stop offset="1" stop-color="#9C7A35"/>
</linearGradient>
<linearGradient id="paint5_linear_92_5469" x1="45.9155" y1="70.1068" x2="52.6696" y2="67.8867" gradientUnits="userSpaceOnUse">
<stop stop-color="#9C7A35"/>
<stop offset="0.0264" stop-color="#A58138"/>
<stop offset="0.1159" stop-color="#BE9643"/>
<stop offset="0.2042" stop-color="#CEA44A"/>
<stop offset="0.2895" stop-color="#D3A94D"/>
<stop offset="1" stop-color="#9C7A35"/>
</linearGradient>
<radialGradient id="paint6_radial_92_5469" cx="0" cy="0" r="1" gradientUnits="userSpaceOnUse" gradientTransform="translate(39.7142 113.507) rotate(16.3853) scale(46.0373 46.0373)">
<stop offset="0.8175" stop-color="#237AA9"/>
<stop offset="0.823" stop-color="#4186B2"/>
<stop offset="0.8374" stop-color="#75A3C8"/>
<stop offset="0.8521" stop-color="#9ABDDB"/>
<stop offset="0.8666" stop-color="#B6D2EA"/>
<stop offset="0.8812" stop-color="#C9E2F4"/>
<stop offset="0.8957" stop-color="#D3EBFB"/>
<stop offset="0.9103" stop-color="#D7EEFD"/>
<stop offset="0.9227" stop-color="#D3EBFA"/>
<stop offset="0.937" stop-color="#C6E0F3"/>
<stop offset="0.952" stop-color="#B0CEE7"/>
<stop offset="0.9677" stop-color="#91B7D6"/>
<stop offset="0.9839" stop-color="#659AC1"/>
<stop offset="1" stop-color="#237AA9"/>
</radialGradient>
<radialGradient id="paint7_radial_92_5469" cx="0" cy="0" r="1" gradientUnits="userSpaceOnUse" gradientTransform="translate(51.1778 112.461) rotate(-33.911) scale(46.0363)">
<stop offset="0.8175" stop-color="#612F77"/>
<stop offset="0.8286" stop-color="#7C4C8A"/>
<stop offset="0.8421" stop-color="#9B71A4"/>
<stop offset="0.8557" stop-color="#B693BC"/>
<stop offset="0.8694" stop-color="#CBAFCF"/>
<stop offset="0.883" stop-color="#DBC3DD"/>
<stop offset="0.8967" stop-color="#E4CFE5"/>
<stop offset="0.9103" stop-color="#E8D3E8"/>
<stop offset="0.9218" stop-color="#E4CEE5"/>
<stop offset="0.935" stop-color="#D9C0DC"/>
<stop offset="0.9489" stop-color="#C8AACC"/>
<stop offset="0.9634" stop-color="#AF8BB6"/>
<stop offset="0.9783" stop-color="#92659B"/>
<stop offset="0.9934" stop-color="#6F3D80"/>
<stop offset="0.9995" stop-color="#612F77"/>
</radialGradient>
<radialGradient id="paint8_radial_92_5469" cx="0" cy="0" r="1" gradientUnits="userSpaceOnUse" gradientTransform="translate(33.5636 50.6363) rotate(146.089) scale(46.0363 46.0363)">
<stop offset="0.8175" stop-color="#612F77"/>
<stop offset="0.9103" stop-color="#E8D3E8"/>
<stop offset="0.9995" stop-color="#612F77"/>
</radialGradient>
<radialGradient id="paint9_radial_92_5469" cx="0" cy="0" r="1" gradientUnits="userSpaceOnUse" gradientTransform="translate(46.6796 90.1964) rotate(160.471) scale(3.60463 4.50518)">
<stop offset="0.105554" stop-color="#E8D3E8" stop-opacity="0"/>
<stop offset="1" stop-color="#612F77"/>
</radialGradient>
<radialGradient id="paint10_radial_92_5469" cx="0" cy="0" r="1" gradientUnits="userSpaceOnUse" gradientTransform="translate(43.4822 50.8806) rotate(-163.615) scale(46.0373 46.0373)">
<stop offset="0.8175" stop-color="#237AA9"/>
<stop offset="0.9103" stop-color="#D7EEFD"/>
<stop offset="1" stop-color="#237AA9"/>
</radialGradient>
<radialGradient id="paint11_radial_92_5469" cx="0" cy="0" r="1" gradientUnits="userSpaceOnUse" gradientTransform="translate(41.7262 92.6945) rotate(-163.615) scale(3.81986 3.81985)">
<stop stop-color="#D7EEFD" stop-opacity="0"/>
<stop offset="1" stop-color="#237AA9"/>
</radialGradient>
<linearGradient id="paint12_linear_92_5469" x1="49.9581" y1="35.2676" x2="56.9581" y2="35.2676" gradientUnits="userSpaceOnUse">
<stop stop-color="#9C6537"/>
<stop offset="0.0322" stop-color="#A66D3B"/>
<stop offset="0.1197" stop-color="#BE7E45"/>
<stop offset="0.2061" stop-color="#CD894B"/>
<stop offset="0.2895" stop-color="#D28D4D"/>
<stop offset="1" stop-color="#9C6537"/>
</linearGradient>
<linearGradient id="paint13_linear_92_5469" x1="64.2574" y1="81.4873" x2="69.7255" y2="77.1337" gradientUnits="userSpaceOnUse">
<stop stop-color="#9C6537"/>
<stop offset="0.0613" stop-color="#A66D3B"/>
<stop offset="0.2277" stop-color="#BE7E45"/>
<stop offset="0.392" stop-color="#CD894B"/>
<stop offset="0.5506" stop-color="#D28D4D"/>
<stop offset="1" stop-color="#9C6537"/>
</linearGradient>
<linearGradient id="paint14_linear_92_5469" x1="47.1217" y1="41.3789" x2="54.1217" y2="41.3789" gradientUnits="userSpaceOnUse">
<stop stop-color="#9C6537"/>
<stop offset="0.0489" stop-color="#A66D3B"/>
<stop offset="0.1818" stop-color="#BE7E45"/>
<stop offset="0.313" stop-color="#CD894B"/>
<stop offset="0.4396" stop-color="#D28D4D"/>
<stop offset="1" stop-color="#9C6537"/>
</linearGradient>
<linearGradient id="paint15_linear_92_5469" x1="57.0696" y1="93.7702" x2="63.4432" y2="91.2626" gradientUnits="userSpaceOnUse">
<stop stop-color="#9C6537"/>
<stop offset="0.0613" stop-color="#A66D3B"/>
<stop offset="0.2277" stop-color="#BE7E45"/>
<stop offset="0.392" stop-color="#CD894B"/>
<stop offset="0.5506" stop-color="#D28D4D"/>
<stop offset="1" stop-color="#9C6537"/>
</linearGradient>
<radialGradient id="paint16_radial_92_5469" cx="0" cy="0" r="1" gradientUnits="userSpaceOnUse" gradientTransform="translate(79.2643 90.1523) scale(5.4604)">
<stop stop-color="#D28D4D"/>
<stop offset="1" stop-color="#9C6537"/>
</radialGradient>
<radialGradient id="paint17_radial_92_5469" cx="0" cy="0" r="1" gradientUnits="userSpaceOnUse" gradientTransform="translate(69.7553 111.919) scale(6.3528)">
<stop stop-color="#D28D4D"/>
<stop offset="1" stop-color="#9C6537"/>
</radialGradient>
<linearGradient id="paint18_linear_92_5469" x1="36.5402" y1="43.066" x2="43.5402" y2="43.066" gradientUnits="userSpaceOnUse">
<stop stop-color="#9A8B20"/>
<stop offset="0.0603" stop-color="#A89929"/>
<stop offset="0.1783" stop-color="#C0AF39"/>
<stop offset="0.2949" stop-color="#CEBE45"/>
<stop offset="0.4074" stop-color="#D3C349"/>
<stop offset="1" stop-color="#9B8D30"/>
</linearGradient>
<linearGradient id="paint19_linear_92_5469" x1="28.7921" y1="38.542" x2="35.7921" y2="38.542" gradientUnits="userSpaceOnUse">
<stop stop-color="#9A8B20"/>
<stop offset="0.0603" stop-color="#A89929"/>
<stop offset="0.1783" stop-color="#C0AF39"/>
<stop offset="0.2949" stop-color="#CEBE45"/>
<stop offset="0.4074" stop-color="#D3C349"/>
<stop offset="1" stop-color="#9B8D30"/>
</linearGradient>
<linearGradient id="paint20_linear_92_5469" x1="32.3686" y1="95.3811" x2="40.0491" y2="96.4463" gradientUnits="userSpaceOnUse">
<stop offset="0.0541" stop-color="#9A8B20"/>
<stop offset="0.1008" stop-color="#A89929"/>
<stop offset="0.1922" stop-color="#C0AF39"/>
<stop offset="0.2825" stop-color="#CEBE45"/>
<stop offset="0.3697" stop-color="#D3C349"/>
<stop offset="1" stop-color="#9B8D30"/>
</linearGradient>
<linearGradient id="paint21_linear_92_5469" x1="15.2426" y1="84.0575" x2="21.7898" y2="88.2744" gradientUnits="userSpaceOnUse">
<stop offset="0.0541" stop-color="#9A8B20"/>
<stop offset="0.0883" stop-color="#A89929"/>
<stop offset="0.1554" stop-color="#C0AF39"/>
<stop offset="0.2217" stop-color="#CEBE45"/>
<stop offset="0.2857" stop-color="#D3C349"/>
<stop offset="1" stop-color="#9B8D30"/>
</linearGradient>
<radialGradient id="paint22_radial_92_5469" cx="0" cy="0" r="1" gradientUnits="userSpaceOnUse" gradientTransform="translate(6.83526 102.923) scale(5.9693 5.9693)">
<stop stop-color="#D3C349"/>
<stop offset="1" stop-color="#9B8D30"/>
</radialGradient>
<radialGradient id="paint23_radial_92_5469" cx="0" cy="0" r="1" gradientUnits="userSpaceOnUse" gradientTransform="translate(31.5597 117.842) scale(6.8793 6.8793)">
<stop stop-color="#D3C349"/>
<stop offset="1" stop-color="#9B8D30"/>
</radialGradient>
</defs>
</svg>
