<svg width="71" height="24" viewBox="0 0 71 24" fill="none" xmlns="http://www.w3.org/2000/svg">
<rect x="1" y="1.98901" width="69" height="20" rx="10" fill="url(#paint0_linear_45_4236)"/>
<rect x="1" y="1.98901" width="69" height="20" rx="10" stroke="#FF9914" stroke-width="3" stroke-linejoin="round"/>
<path d="M13.0176 12.8308V11.3835H16.7559V14.8054C16.3926 15.157 15.8652 15.4675 15.1738 15.7371C14.4863 16.0027 13.7891 16.1355 13.082 16.1355C12.1836 16.1355 11.4004 15.948 10.7324 15.573C10.0645 15.1941 9.5625 14.655 9.22656 13.9558C8.89062 13.2527 8.72266 12.489 8.72266 11.6648C8.72266 10.7703 8.91016 9.97534 9.28516 9.28003C9.66016 8.58472 10.209 8.05151 10.9316 7.68042C11.4824 7.39526 12.168 7.25269 12.9883 7.25269C14.0547 7.25269 14.8867 7.47729 15.4844 7.92651C16.0859 8.37183 16.4727 8.98901 16.6445 9.77808L14.9219 10.1003C14.8008 9.67847 14.5723 9.34644 14.2363 9.10425C13.9043 8.85815 13.4883 8.73511 12.9883 8.73511C12.2305 8.73511 11.627 8.97534 11.1777 9.45581C10.7324 9.93628 10.5098 10.6492 10.5098 11.5945C10.5098 12.614 10.7363 13.3796 11.1895 13.8914C11.6426 14.3992 12.2363 14.6531 12.9707 14.6531C13.334 14.6531 13.6973 14.5828 14.0605 14.4421C14.4277 14.2976 14.7422 14.1238 15.0039 13.9207V12.8308H13.0176ZM18.1621 13.698V12.0515H21.3965V13.698H18.1621ZM23.5762 11.6648L22.082 11.3953C22.25 10.7937 22.5391 10.3484 22.9492 10.0593C23.3594 9.77026 23.9688 9.62573 24.7773 9.62573C25.5117 9.62573 26.0586 9.71362 26.418 9.8894C26.7773 10.0613 27.0293 10.282 27.1738 10.5515C27.3223 10.8171 27.3965 11.3074 27.3965 12.0222L27.3789 13.9441C27.3789 14.491 27.4043 14.8953 27.4551 15.157C27.5098 15.4148 27.6094 15.6921 27.7539 15.989H26.125C26.082 15.8796 26.0293 15.7175 25.9668 15.5027C25.9395 15.405 25.9199 15.3406 25.9082 15.3093C25.627 15.5828 25.3262 15.7878 25.0059 15.9246C24.6855 16.0613 24.3438 16.1296 23.9805 16.1296C23.3398 16.1296 22.834 15.9558 22.4629 15.6082C22.0957 15.2605 21.9121 14.821 21.9121 14.2898C21.9121 13.9382 21.9961 13.6257 22.1641 13.3523C22.332 13.075 22.5664 12.864 22.8672 12.7195C23.1719 12.571 23.6094 12.4421 24.1797 12.3328C24.9492 12.1882 25.4824 12.0535 25.7793 11.9285V11.7644C25.7793 11.448 25.7012 11.2234 25.5449 11.0906C25.3887 10.9539 25.0938 10.8855 24.6602 10.8855C24.3672 10.8855 24.1387 10.9441 23.9746 11.0613C23.8105 11.1746 23.6777 11.3757 23.5762 11.6648ZM25.7793 13.0007C25.5684 13.071 25.2344 13.155 24.7773 13.2527C24.3203 13.3503 24.0215 13.446 23.8809 13.5398C23.666 13.6921 23.5586 13.8855 23.5586 14.1199C23.5586 14.3503 23.6445 14.5496 23.8164 14.7175C23.9883 14.8855 24.207 14.9695 24.4727 14.9695C24.7695 14.9695 25.0527 14.8718 25.3223 14.6765C25.5215 14.5281 25.6523 14.3464 25.7148 14.1316C25.7578 13.991 25.7793 13.7234 25.7793 13.3289V13.0007ZM29.0254 15.989V7.39917H30.6719V15.989H29.0254ZM32.3184 9.76636H33.8535V10.6804C34.0527 10.3679 34.3223 10.114 34.6621 9.9187C35.002 9.72339 35.3789 9.62573 35.793 9.62573C36.5156 9.62573 37.1289 9.90894 37.6328 10.4753C38.1367 11.0417 38.3887 11.8308 38.3887 12.8425C38.3887 13.8816 38.1348 14.6902 37.627 15.2683C37.1191 15.8425 36.5039 16.1296 35.7812 16.1296C35.4375 16.1296 35.125 16.0613 34.8438 15.9246C34.5664 15.7878 34.2734 15.5535 33.9648 15.2214V18.3562H32.3184V9.76636ZM33.9473 12.7722C33.9473 13.4714 34.0859 13.989 34.3633 14.325C34.6406 14.657 34.9785 14.823 35.377 14.823C35.7598 14.823 36.0781 14.6707 36.332 14.366C36.5859 14.0574 36.7129 13.5535 36.7129 12.8542C36.7129 12.2019 36.582 11.7175 36.3203 11.4011C36.0586 11.0847 35.7344 10.9265 35.3477 10.9265C34.9453 10.9265 34.6113 11.0828 34.3457 11.3953C34.0801 11.7039 33.9473 12.1628 33.9473 12.7722ZM41.3418 7.39917V10.5574C41.873 9.93628 42.5078 9.62573 43.2461 9.62573C43.625 9.62573 43.9668 9.69604 44.2715 9.83667C44.5762 9.97729 44.8047 10.157 44.957 10.3757C45.1133 10.5945 45.2188 10.8367 45.2734 11.1023C45.332 11.3679 45.3613 11.78 45.3613 12.3386V15.989H43.7148V12.7019C43.7148 12.0496 43.6836 11.6355 43.6211 11.4597C43.5586 11.2839 43.4473 11.1453 43.2871 11.0437C43.1309 10.9382 42.9336 10.8855 42.6953 10.8855C42.4219 10.8855 42.1777 10.9519 41.9629 11.0847C41.748 11.2175 41.5898 11.4187 41.4883 11.6882C41.3906 11.9539 41.3418 12.3484 41.3418 12.8718V15.989H39.6953V7.39917H41.3418ZM48.2676 11.6648L46.7734 11.3953C46.9414 10.7937 47.2305 10.3484 47.6406 10.0593C48.0508 9.77026 48.6602 9.62573 49.4688 9.62573C50.2031 9.62573 50.75 9.71362 51.1094 9.8894C51.4688 10.0613 51.7207 10.282 51.8652 10.5515C52.0137 10.8171 52.0879 11.3074 52.0879 12.0222L52.0703 13.9441C52.0703 14.491 52.0957 14.8953 52.1465 15.157C52.2012 15.4148 52.3008 15.6921 52.4453 15.989H50.8164C50.7734 15.8796 50.7207 15.7175 50.6582 15.5027C50.6309 15.405 50.6113 15.3406 50.5996 15.3093C50.3184 15.5828 50.0176 15.7878 49.6973 15.9246C49.377 16.0613 49.0352 16.1296 48.6719 16.1296C48.0312 16.1296 47.5254 15.9558 47.1543 15.6082C46.7871 15.2605 46.6035 14.821 46.6035 14.2898C46.6035 13.9382 46.6875 13.6257 46.8555 13.3523C47.0234 13.075 47.2578 12.864 47.5586 12.7195C47.8633 12.571 48.3008 12.4421 48.8711 12.3328C49.6406 12.1882 50.1738 12.0535 50.4707 11.9285V11.7644C50.4707 11.448 50.3926 11.2234 50.2363 11.0906C50.0801 10.9539 49.7852 10.8855 49.3516 10.8855C49.0586 10.8855 48.8301 10.9441 48.666 11.0613C48.502 11.1746 48.3691 11.3757 48.2676 11.6648ZM50.4707 13.0007C50.2598 13.071 49.9258 13.155 49.4688 13.2527C49.0117 13.3503 48.7129 13.446 48.5723 13.5398C48.3574 13.6921 48.25 13.8855 48.25 14.1199C48.25 14.3503 48.3359 14.5496 48.5078 14.7175C48.6797 14.8855 48.8984 14.9695 49.1641 14.9695C49.4609 14.9695 49.7441 14.8718 50.0137 14.6765C50.2129 14.5281 50.3438 14.3464 50.4062 14.1316C50.4492 13.991 50.4707 13.7234 50.4707 13.3289V13.0007ZM53.5293 13.698V12.0515H56.7637V13.698H53.5293ZM57.0508 15.989V14.7058L59.3828 12.0281C59.7656 11.5906 60.0488 11.28 60.2324 11.0964C60.041 11.1082 59.7891 11.116 59.4766 11.1199L57.2793 11.1316V9.76636H62.4238V10.9324L60.0449 13.6746L59.207 14.5828C59.6641 14.5554 59.9473 14.5417 60.0566 14.5417H62.6055V15.989H57.0508Z" fill="white"/>
<defs>
<linearGradient id="paint0_linear_45_4236" x1="35.5" y1="1.98901" x2="35.5" y2="21.989" gradientUnits="userSpaceOnUse">
<stop stop-color="#5C9200"/>
<stop offset="1" stop-color="#FF9914"/>
</linearGradient>
</defs>
</svg>
