<svg width="52" height="24" viewBox="0 0 52 24" fill="none" xmlns="http://www.w3.org/2000/svg">
<rect x="2" y="1.98901" width="49" height="20" rx="10" fill="url(#paint0_linear_64_1809)"/>
<rect x="2" y="1.98901" width="49" height="20" rx="10" stroke="#FFA900" stroke-width="3" stroke-linejoin="round"/>
<path d="M10.0117 15.989V7.39917H12.6074L14.166 13.2585L15.707 7.39917H18.3086V15.989H16.6973V9.22729L14.9922 15.989H13.3223L11.623 9.22729V15.989H10.0117ZM20.0371 15.989V7.39917H23.6875C24.6055 7.39917 25.2715 7.47729 25.6855 7.63354C26.1035 7.78589 26.4375 8.05933 26.6875 8.45386C26.9375 8.84839 27.0625 9.29956 27.0625 9.80737C27.0625 10.4519 26.873 10.9851 26.4941 11.407C26.1152 11.825 25.5488 12.0886 24.7949 12.198C25.1699 12.4167 25.4785 12.657 25.7207 12.9187C25.9668 13.1804 26.2969 13.6453 26.7109 14.3132L27.7598 15.989H25.6855L24.4316 14.1199C23.9863 13.4519 23.6816 13.032 23.5176 12.8601C23.3535 12.6843 23.1797 12.5652 22.9961 12.5027C22.8125 12.4363 22.5215 12.4031 22.123 12.4031H21.7715V15.989H20.0371ZM21.7715 11.032H23.0547C23.8867 11.032 24.4062 10.9968 24.6133 10.9265C24.8203 10.8562 24.9824 10.7351 25.0996 10.5632C25.2168 10.3914 25.2754 10.1765 25.2754 9.9187C25.2754 9.62964 25.1973 9.39722 25.041 9.22144C24.8887 9.04175 24.6719 8.92847 24.3906 8.88159C24.25 8.86206 23.8281 8.85229 23.125 8.85229H21.7715V11.032ZM28.75 15.989V7.46948H30.4844V14.5417H34.7969V15.989H28.75ZM41.5352 12.8308L43.2168 13.364C42.959 14.3015 42.5293 14.9988 41.9277 15.4558C41.3301 15.9089 40.5703 16.1355 39.6484 16.1355C38.5078 16.1355 37.5703 15.7468 36.8359 14.9695C36.1016 14.1882 35.7344 13.1218 35.7344 11.7703C35.7344 10.3406 36.1035 9.2312 36.8418 8.44214C37.5801 7.64917 38.5508 7.25269 39.7539 7.25269C40.8047 7.25269 41.6582 7.56323 42.3145 8.18433C42.7051 8.55151 42.998 9.07886 43.1934 9.76636L41.4766 10.1765C41.375 9.7312 41.1621 9.37964 40.8379 9.12183C40.5176 8.86401 40.127 8.73511 39.666 8.73511C39.0293 8.73511 38.5117 8.96362 38.1133 9.42065C37.7188 9.87769 37.5215 10.6179 37.5215 11.6414C37.5215 12.7273 37.7168 13.5007 38.1074 13.9617C38.498 14.4226 39.0059 14.6531 39.6309 14.6531C40.0918 14.6531 40.4883 14.5066 40.8203 14.2136C41.1523 13.9207 41.3906 13.4597 41.5352 12.8308Z" fill="white"/>
<defs>
<linearGradient id="paint0_linear_64_1809" x1="26.5" y1="1.98901" x2="26.5" y2="21.989" gradientUnits="userSpaceOnUse">
<stop stop-color="#FFA900"/>
<stop offset="1" stop-color="#6F6DB8"/>
</linearGradient>
</defs>
</svg>
