<svg width="42" height="24" viewBox="0 0 42 24" fill="none" xmlns="http://www.w3.org/2000/svg">
<rect x="2" y="1.98901" width="39" height="20" rx="10" fill="url(#paint0_linear_35_1478)"/>
<rect x="2" y="1.98901" width="39" height="20" rx="10" stroke="#BA7F71" stroke-width="3" stroke-linejoin="round"/>
<path d="M17.7793 15.989H15.8926L15.1426 14.0378H11.709L11 15.989H9.16016L12.5059 7.39917H14.3398L17.7793 15.989ZM14.5859 12.5906L13.4023 9.40308L12.2422 12.5906H14.5859ZM18.7109 15.989V7.39917H22.3613C23.2793 7.39917 23.9453 7.47729 24.3594 7.63354C24.7773 7.78589 25.1113 8.05933 25.3613 8.45386C25.6113 8.84839 25.7363 9.29956 25.7363 9.80737C25.7363 10.4519 25.5469 10.9851 25.168 11.407C24.7891 11.825 24.2227 12.0886 23.4688 12.198C23.8438 12.4167 24.1523 12.657 24.3945 12.9187C24.6406 13.1804 24.9707 13.6453 25.3848 14.3132L26.4336 15.989H24.3594L23.1055 14.1199C22.6602 13.4519 22.3555 13.032 22.1914 12.8601C22.0273 12.6843 21.8535 12.5652 21.6699 12.5027C21.4863 12.4363 21.1953 12.4031 20.7969 12.4031H20.4453V15.989H18.7109ZM20.4453 11.032H21.7285C22.5605 11.032 23.0801 10.9968 23.2871 10.9265C23.4941 10.8562 23.6562 10.7351 23.7734 10.5632C23.8906 10.3914 23.9492 10.1765 23.9492 9.9187C23.9492 9.62964 23.8711 9.39722 23.7148 9.22144C23.5625 9.04175 23.3457 8.92847 23.0645 8.88159C22.9238 8.86206 22.502 8.85229 21.7988 8.85229H20.4453V11.032ZM27.3887 15.989V7.39917H33.2773V8.85229H29.123V10.8855H32.709V12.3386H29.123V15.989H27.3887Z" fill="white"/>
<defs>
<linearGradient id="paint0_linear_35_1478" x1="21.5" y1="1.98901" x2="21.5" y2="21.989" gradientUnits="userSpaceOnUse">
<stop stop-color="#BA7F71"/>
<stop offset="1" stop-color="#5DD200"/>
</linearGradient>
</defs>
</svg>
