<svg width="59" height="24" viewBox="0 0 59 24" fill="none" xmlns="http://www.w3.org/2000/svg">
<rect x="2" y="1.98901" width="56" height="20" rx="10" fill="url(#paint0_linear_38_1853)"/>
<rect x="2" y="1.98901" width="56" height="20" rx="10" stroke="#FF2E75" stroke-width="3" stroke-linejoin="round"/>
<path d="M15.6855 12.8308L17.3672 13.364C17.1094 14.3015 16.6797 14.9988 16.0781 15.4558C15.4805 15.9089 14.7207 16.1355 13.7988 16.1355C12.6582 16.1355 11.7207 15.7468 10.9863 14.9695C10.252 14.1882 9.88477 13.1218 9.88477 11.7703C9.88477 10.3406 10.2539 9.2312 10.9922 8.44214C11.7305 7.64917 12.7012 7.25269 13.9043 7.25269C14.9551 7.25269 15.8086 7.56323 16.4648 8.18433C16.8555 8.55151 17.1484 9.07886 17.3438 9.76636L15.627 10.1765C15.5254 9.7312 15.3125 9.37964 14.9883 9.12183C14.668 8.86401 14.2773 8.73511 13.8164 8.73511C13.1797 8.73511 12.6621 8.96362 12.2637 9.42065C11.8691 9.87769 11.6719 10.6179 11.6719 11.6414C11.6719 12.7273 11.8672 13.5007 12.2578 13.9617C12.6484 14.4226 13.1562 14.6531 13.7812 14.6531C14.2422 14.6531 14.6387 14.5066 14.9707 14.2136C15.3027 13.9207 15.541 13.4597 15.6855 12.8308ZM24.3574 12.8308L26.0391 13.364C25.7812 14.3015 25.3516 14.9988 24.75 15.4558C24.1523 15.9089 23.3926 16.1355 22.4707 16.1355C21.3301 16.1355 20.3926 15.7468 19.6582 14.9695C18.9238 14.1882 18.5566 13.1218 18.5566 11.7703C18.5566 10.3406 18.9258 9.2312 19.6641 8.44214C20.4023 7.64917 21.373 7.25269 22.5762 7.25269C23.627 7.25269 24.4805 7.56323 25.1367 8.18433C25.5273 8.55151 25.8203 9.07886 26.0156 9.76636L24.2988 10.1765C24.1973 9.7312 23.9844 9.37964 23.6602 9.12183C23.3398 8.86401 22.9492 8.73511 22.4883 8.73511C21.8516 8.73511 21.334 8.96362 20.9355 9.42065C20.541 9.87769 20.3438 10.6179 20.3438 11.6414C20.3438 12.7273 20.5391 13.5007 20.9297 13.9617C21.3203 14.4226 21.8281 14.6531 22.4531 14.6531C22.9141 14.6531 23.3105 14.5066 23.6426 14.2136C23.9746 13.9207 24.2129 13.4597 24.3574 12.8308ZM27.5508 15.989V7.39917H29.2383L32.7539 13.1355V7.39917H34.3652V15.989H32.625L29.1621 10.3875V15.989H27.5508ZM36.2109 7.39917H39.6445C40.3242 7.39917 40.8301 7.42847 41.1621 7.48706C41.498 7.54175 41.7969 7.65894 42.0586 7.83862C42.3242 8.01831 42.5449 8.25854 42.7207 8.55933C42.8965 8.8562 42.9844 9.19019 42.9844 9.56128C42.9844 9.96362 42.875 10.3328 42.6562 10.6687C42.4414 11.0046 42.1484 11.2566 41.7773 11.4246C42.3008 11.5769 42.7031 11.8367 42.9844 12.2039C43.2656 12.571 43.4062 13.0027 43.4062 13.4988C43.4062 13.8894 43.3145 14.2703 43.1309 14.6414C42.9512 15.0085 42.7031 15.3035 42.3867 15.5261C42.0742 15.7449 41.6875 15.8796 41.2266 15.9304C40.9375 15.9617 40.2402 15.9812 39.1348 15.989H36.2109V7.39917ZM37.9453 8.82886V10.8152H39.082C39.7578 10.8152 40.1777 10.8054 40.3418 10.7859C40.6387 10.7507 40.8711 10.6492 41.0391 10.4812C41.2109 10.3093 41.2969 10.0847 41.2969 9.80737C41.2969 9.54175 41.2227 9.3269 41.0742 9.16284C40.9297 8.99487 40.7129 8.89331 40.4238 8.85815C40.252 8.83862 39.7578 8.82886 38.9414 8.82886H37.9453ZM37.9453 12.2449V14.5417H39.5508C40.1758 14.5417 40.5723 14.5242 40.7402 14.489C40.998 14.4421 41.207 14.3289 41.3672 14.1492C41.5312 13.9656 41.6133 13.7214 41.6133 13.4167C41.6133 13.1589 41.5508 12.9402 41.4258 12.7605C41.3008 12.5808 41.1191 12.45 40.8809 12.3679C40.6465 12.2859 40.1348 12.2449 39.3457 12.2449H37.9453ZM48.7266 15.989H47.0801V9.78394C46.4785 10.3464 45.7695 10.7625 44.9531 11.032V9.53784C45.3828 9.39722 45.8496 9.13159 46.3535 8.74097C46.8574 8.34644 47.2031 7.88745 47.3906 7.36401H48.7266V15.989Z" fill="white"/>
<defs>
<linearGradient id="paint0_linear_38_1853" x1="30" y1="1.98901" x2="30" y2="21.989" gradientUnits="userSpaceOnUse">
<stop stop-color="#FF2E75"/>
<stop offset="1" stop-color="#988B08"/>
</linearGradient>
</defs>
</svg>
