<svg width="69" height="24" viewBox="0 0 69 24" fill="none" xmlns="http://www.w3.org/2000/svg">
<rect x="1" y="1.98901" width="67" height="20" rx="10" fill="url(#paint0_linear_85_2070)"/>
<rect x="1" y="1.98901" width="67" height="20" rx="10" stroke="#FF8100" stroke-width="3" stroke-linejoin="round"/>
<path d="M8.60156 15.989V14.4246L13.1133 8.85229H9.11133V7.39917H15.3984V8.74683L10.6934 14.5417H15.5801V15.989H8.60156ZM16.6992 15.989V7.39917H18.3867L21.9023 13.1355V7.39917H23.5137V15.989H21.7734L18.3105 10.3875V15.989H16.6992ZM25.3652 15.989V7.39917H31.2539V8.85229H27.0996V10.8855H30.6855V12.3386H27.0996V15.989H25.3652ZM32.2676 13.7097L33.8613 13.5164C33.9121 13.9226 34.0488 14.2332 34.2715 14.448C34.4941 14.6628 34.7637 14.7703 35.0801 14.7703C35.4199 14.7703 35.7051 14.6414 35.9355 14.3835C36.1699 14.1257 36.2871 13.7781 36.2871 13.3406C36.2871 12.9265 36.1758 12.5984 35.9531 12.3562C35.7305 12.114 35.459 11.9929 35.1387 11.9929C34.9277 11.9929 34.6758 12.0339 34.3828 12.116L34.5645 10.7742C35.0098 10.7859 35.3496 10.6902 35.584 10.4871C35.8184 10.28 35.9355 10.0066 35.9355 9.66675C35.9355 9.37769 35.8496 9.14722 35.6777 8.97534C35.5059 8.80347 35.2773 8.71753 34.9922 8.71753C34.7109 8.71753 34.4707 8.81519 34.2715 9.0105C34.0723 9.20581 33.9512 9.49097 33.9082 9.86597L32.3906 9.60815C32.4961 9.08862 32.6543 8.67456 32.8652 8.36597C33.0801 8.05347 33.377 7.80933 33.7559 7.63354C34.1387 7.45386 34.5664 7.36401 35.0391 7.36401C35.8477 7.36401 36.4961 7.62183 36.9844 8.13745C37.3867 8.55933 37.5879 9.03589 37.5879 9.56714C37.5879 10.321 37.1758 10.9226 36.3516 11.3718C36.8438 11.4773 37.2363 11.7136 37.5293 12.0808C37.8262 12.448 37.9746 12.8914 37.9746 13.4109C37.9746 14.1648 37.6992 14.8074 37.1484 15.3386C36.5977 15.8699 35.9121 16.1355 35.0918 16.1355C34.3145 16.1355 33.6699 15.9128 33.1582 15.4675C32.6465 15.0183 32.3496 14.4324 32.2676 13.7097ZM40.418 11.3542C39.9922 11.1746 39.6816 10.9285 39.4863 10.616C39.2949 10.2996 39.1992 9.95386 39.1992 9.57886C39.1992 8.93823 39.4219 8.40894 39.8672 7.99097C40.3164 7.573 40.9531 7.36401 41.7773 7.36401C42.5938 7.36401 43.2266 7.573 43.6758 7.99097C44.1289 8.40894 44.3555 8.93823 44.3555 9.57886C44.3555 9.97729 44.252 10.3328 44.0449 10.6453C43.8379 10.9539 43.5469 11.1902 43.1719 11.3542C43.6484 11.5457 44.0098 11.825 44.2559 12.1921C44.5059 12.5593 44.6309 12.9832 44.6309 13.4636C44.6309 14.2566 44.377 14.9011 43.8691 15.3972C43.3652 15.8933 42.6934 16.1414 41.8535 16.1414C41.0723 16.1414 40.4219 15.9363 39.9023 15.5261C39.2891 15.0417 38.9824 14.3777 38.9824 13.5339C38.9824 13.0691 39.0977 12.6433 39.3281 12.2566C39.5586 11.866 39.9219 11.5652 40.418 11.3542ZM40.7578 9.69604C40.7578 10.0242 40.8496 10.28 41.0332 10.4636C41.2207 10.6472 41.4688 10.739 41.7773 10.739C42.0898 10.739 42.3398 10.6472 42.5273 10.4636C42.7148 10.2761 42.8086 10.0183 42.8086 9.69019C42.8086 9.38159 42.7148 9.1355 42.5273 8.9519C42.3438 8.7644 42.0996 8.67065 41.7949 8.67065C41.4785 8.67065 41.2266 8.7644 41.0391 8.9519C40.8516 9.1394 40.7578 9.38745 40.7578 9.69604ZM40.6055 13.3757C40.6055 13.8289 40.7207 14.1824 40.9512 14.4363C41.1855 14.6902 41.4766 14.8171 41.8242 14.8171C42.1641 14.8171 42.4453 14.696 42.668 14.4539C42.8906 14.2078 43.002 13.8542 43.002 13.3933C43.002 12.991 42.8887 12.6687 42.6621 12.4265C42.4355 12.1804 42.1484 12.0574 41.8008 12.0574C41.3984 12.0574 41.0977 12.196 40.8984 12.4734C40.7031 12.7507 40.6055 13.0515 40.6055 13.3757ZM45.709 13.78L47.3496 13.6101C47.3965 13.9812 47.5352 14.2761 47.7656 14.4949C47.9961 14.7097 48.2617 14.8171 48.5625 14.8171C48.9062 14.8171 49.1973 14.6785 49.4355 14.4011C49.6738 14.1199 49.793 13.698 49.793 13.1355C49.793 12.6082 49.6738 12.2136 49.4355 11.9519C49.2012 11.6863 48.8945 11.5535 48.5156 11.5535C48.043 11.5535 47.6191 11.7625 47.2441 12.1804L45.9082 11.9871L46.752 7.51636H51.1055V9.05737H48L47.7422 10.5164C48.1094 10.3328 48.4844 10.241 48.8672 10.241C49.5977 10.241 50.2168 10.5066 50.7246 11.0378C51.2324 11.5691 51.4863 12.2585 51.4863 13.1062C51.4863 13.8132 51.2812 14.4441 50.8711 14.9988C50.3125 15.7566 49.5371 16.1355 48.5449 16.1355C47.752 16.1355 47.1055 15.9226 46.6055 15.4968C46.1055 15.071 45.8066 14.4988 45.709 13.78ZM60.4746 15.989H58.5879L57.8379 14.0378H54.4043L53.6953 15.989H51.8555L55.2012 7.39917H57.0352L60.4746 15.989ZM57.2812 12.5906L56.0977 9.40308L54.9375 12.5906H57.2812Z" fill="white"/>
<defs>
<linearGradient id="paint0_linear_85_2070" x1="34.5" y1="1.98901" x2="34.5" y2="21.989" gradientUnits="userSpaceOnUse">
<stop stop-color="#FF8100"/>
<stop offset="1" stop-color="#004D00"/>
</linearGradient>
</defs>
</svg>
