<svg width="66" height="36" viewBox="0 0 66 36" fill="none" xmlns="http://www.w3.org/2000/svg">
<rect x="2" y="1.98901" width="63" height="32" rx="10" fill="url(#paint0_linear_42_2626)"/>
<rect x="2" y="1.98901" width="63" height="32" rx="10" stroke="#BE9F00" stroke-width="3" stroke-linejoin="round"/>
<path d="M22.5254 11.8308L24.207 12.364C23.9492 13.3015 23.5195 13.9988 22.918 14.4558C22.3203 14.9089 21.5605 15.1355 20.6387 15.1355C19.498 15.1355 18.5605 14.7468 17.8262 13.9695C17.0918 13.1882 16.7246 12.1218 16.7246 10.7703C16.7246 9.34058 17.0938 8.2312 17.832 7.44214C18.5703 6.64917 19.541 6.25269 20.7441 6.25269C21.7949 6.25269 22.6484 6.56323 23.3047 7.18433C23.6953 7.55151 23.9883 8.07886 24.1836 8.76636L22.4668 9.17651C22.3652 8.7312 22.1523 8.37964 21.8281 8.12183C21.5078 7.86401 21.1172 7.73511 20.6562 7.73511C20.0195 7.73511 19.502 7.96362 19.1035 8.42065C18.709 8.87769 18.5117 9.61792 18.5117 10.6414C18.5117 11.7273 18.707 12.5007 19.0977 12.9617C19.4883 13.4226 19.9961 13.6531 20.6211 13.6531C21.082 13.6531 21.4785 13.5066 21.8105 13.2136C22.1426 12.9207 22.3809 12.4597 22.5254 11.8308ZM25.707 6.39917H29.1406C29.8203 6.39917 30.3262 6.42847 30.6582 6.48706C30.9941 6.54175 31.293 6.65894 31.5547 6.83862C31.8203 7.01831 32.041 7.25854 32.2168 7.55933C32.3926 7.8562 32.4805 8.19019 32.4805 8.56128C32.4805 8.96362 32.3711 9.33276 32.1523 9.6687C31.9375 10.0046 31.6445 10.2566 31.2734 10.4246C31.7969 10.5769 32.1992 10.8367 32.4805 11.2039C32.7617 11.571 32.9023 12.0027 32.9023 12.4988C32.9023 12.8894 32.8105 13.2703 32.627 13.6414C32.4473 14.0085 32.1992 14.3035 31.8828 14.5261C31.5703 14.7449 31.1836 14.8796 30.7227 14.9304C30.4336 14.9617 29.7363 14.9812 28.6309 14.989H25.707V6.39917ZM27.4414 7.82886V9.81519H28.5781C29.2539 9.81519 29.6738 9.80542 29.8379 9.78589C30.1348 9.75073 30.3672 9.64917 30.5352 9.4812C30.707 9.30933 30.793 9.08472 30.793 8.80737C30.793 8.54175 30.7188 8.3269 30.5703 8.16284C30.4258 7.99487 30.209 7.89331 29.9199 7.85815C29.748 7.83862 29.2539 7.82886 28.4375 7.82886H27.4414ZM27.4414 11.2449V13.5417H29.0469C29.6719 13.5417 30.0684 13.5242 30.2363 13.489C30.4941 13.4421 30.7031 13.3289 30.8633 13.1492C31.0273 12.9656 31.1094 12.7214 31.1094 12.4167C31.1094 12.1589 31.0469 11.9402 30.9219 11.7605C30.7969 11.5808 30.6152 11.45 30.377 11.3679C30.1426 11.2859 29.6309 11.2449 28.8418 11.2449H27.4414ZM39.8691 11.8308L41.5508 12.364C41.293 13.3015 40.8633 13.9988 40.2617 14.4558C39.6641 14.9089 38.9043 15.1355 37.9824 15.1355C36.8418 15.1355 35.9043 14.7468 35.1699 13.9695C34.4355 13.1882 34.0684 12.1218 34.0684 10.7703C34.0684 9.34058 34.4375 8.2312 35.1758 7.44214C35.9141 6.64917 36.8848 6.25269 38.0879 6.25269C39.1387 6.25269 39.9922 6.56323 40.6484 7.18433C41.0391 7.55151 41.332 8.07886 41.5273 8.76636L39.8105 9.17651C39.709 8.7312 39.4961 8.37964 39.1719 8.12183C38.8516 7.86401 38.4609 7.73511 38 7.73511C37.3633 7.73511 36.8457 7.96362 36.4473 8.42065C36.0527 8.87769 35.8555 9.61792 35.8555 10.6414C35.8555 11.7273 36.0508 12.5007 36.4414 12.9617C36.832 13.4226 37.3398 13.6531 37.9648 13.6531C38.4258 13.6531 38.8223 13.5066 39.1543 13.2136C39.4863 12.9207 39.7246 12.4597 39.8691 11.8308ZM50.791 14.989H48.9043L48.1543 13.0378H44.7207L44.0117 14.989H42.1719L45.5176 6.39917H47.3516L50.791 14.989ZM47.5977 11.5906L46.4141 8.40308L45.2539 11.5906H47.5977ZM15.4238 24.6062L13.8008 24.8992C13.7461 24.575 13.6211 24.3308 13.4258 24.1667C13.2344 24.0027 12.9844 23.9207 12.6758 23.9207C12.2656 23.9207 11.9375 24.0632 11.6914 24.3484C11.4492 24.6296 11.3281 25.1023 11.3281 25.7664C11.3281 26.5046 11.4512 27.0261 11.6973 27.3308C11.9473 27.6355 12.2812 27.7878 12.6992 27.7878C13.0117 27.7878 13.2676 27.7 13.4668 27.5242C13.666 27.3445 13.8066 27.0378 13.8887 26.6042L15.5059 26.8796C15.3379 27.6218 15.0156 28.1824 14.5391 28.5613C14.0625 28.9402 13.4238 29.1296 12.623 29.1296C11.7129 29.1296 10.9863 28.8425 10.4434 28.2683C9.9043 27.6941 9.63477 26.8992 9.63477 25.8835C9.63477 24.8562 9.90625 24.0574 10.4492 23.4871C10.9922 22.9128 11.7266 22.6257 12.6523 22.6257C13.4102 22.6257 14.0117 22.7898 14.457 23.1179C14.9062 23.4421 15.2285 23.9382 15.4238 24.6062ZM16.2969 25.7898C16.2969 25.2429 16.4316 24.7136 16.7012 24.2019C16.9707 23.6902 17.3516 23.2996 17.8438 23.03C18.3398 22.7605 18.8926 22.6257 19.502 22.6257C20.4434 22.6257 21.2148 22.9324 21.8164 23.5457C22.418 24.155 22.7188 24.9265 22.7188 25.8601C22.7188 26.8015 22.4141 27.5828 21.8047 28.2039C21.1992 28.821 20.4355 29.1296 19.5137 29.1296C18.9434 29.1296 18.3984 29.0007 17.8789 28.7429C17.3633 28.4851 16.9707 28.1082 16.7012 27.6121C16.4316 27.1121 16.2969 26.5046 16.2969 25.7898ZM17.9844 25.8777C17.9844 26.4949 18.1309 26.9675 18.4238 27.2957C18.7168 27.6238 19.0781 27.7878 19.5078 27.7878C19.9375 27.7878 20.2969 27.6238 20.5859 27.2957C20.8789 26.9675 21.0254 26.491 21.0254 25.866C21.0254 25.2566 20.8789 24.7878 20.5859 24.4597C20.2969 24.1316 19.9375 23.9675 19.5078 23.9675C19.0781 23.9675 18.7168 24.1316 18.4238 24.4597C18.1309 24.7878 17.9844 25.2605 17.9844 25.8777ZM23.8906 22.7664H25.4082V23.616C25.9512 22.9558 26.5977 22.6257 27.3477 22.6257C27.7461 22.6257 28.0918 22.7078 28.3848 22.8718C28.6777 23.0359 28.918 23.2839 29.1055 23.616C29.3789 23.2839 29.6738 23.0359 29.9902 22.8718C30.3066 22.7078 30.6445 22.6257 31.0039 22.6257C31.4609 22.6257 31.8477 22.7195 32.1641 22.907C32.4805 23.0906 32.7168 23.3621 32.873 23.7214C32.9863 23.9871 33.043 24.4167 33.043 25.0105V28.989H31.3965V25.4324C31.3965 24.8152 31.3398 24.4167 31.2266 24.2371C31.0742 24.0027 30.8398 23.8855 30.5234 23.8855C30.293 23.8855 30.0762 23.9558 29.873 24.0964C29.6699 24.2371 29.5234 24.4441 29.4336 24.7175C29.3438 24.9871 29.2988 25.4148 29.2988 26.0007V28.989H27.6523V25.5789C27.6523 24.9734 27.623 24.5828 27.5645 24.407C27.5059 24.2312 27.4141 24.1003 27.2891 24.0144C27.168 23.9285 27.002 23.8855 26.791 23.8855C26.5371 23.8855 26.3086 23.9539 26.1055 24.0906C25.9023 24.2273 25.7559 24.4246 25.666 24.6824C25.5801 24.9402 25.5371 25.3679 25.5371 25.9656V28.989H23.8906V22.7664ZM34.6426 22.7664H36.1777V23.6804C36.377 23.3679 36.6465 23.114 36.9863 22.9187C37.3262 22.7234 37.7031 22.6257 38.1172 22.6257C38.8398 22.6257 39.4531 22.9089 39.957 23.4753C40.4609 24.0417 40.7129 24.8308 40.7129 25.8425C40.7129 26.8816 40.459 27.6902 39.9512 28.2683C39.4434 28.8425 38.8281 29.1296 38.1055 29.1296C37.7617 29.1296 37.4492 29.0613 37.168 28.9246C36.8906 28.7878 36.5977 28.5535 36.2891 28.2214V31.3562H34.6426V22.7664ZM36.2715 25.7722C36.2715 26.4714 36.4102 26.989 36.6875 27.325C36.9648 27.657 37.3027 27.823 37.7012 27.823C38.084 27.823 38.4023 27.6707 38.6562 27.366C38.9102 27.0574 39.0371 26.5535 39.0371 25.8542C39.0371 25.2019 38.9062 24.7175 38.6445 24.4011C38.3828 24.0847 38.0586 23.9265 37.6719 23.9265C37.2695 23.9265 36.9355 24.0828 36.6699 24.3953C36.4043 24.7039 36.2715 25.1628 36.2715 25.7722ZM42.0254 28.989V20.3992H43.6719V28.989H42.0254ZM48.9688 27.0085L50.6094 27.2839C50.3984 27.8855 50.0645 28.3445 49.6074 28.6609C49.1543 28.9734 48.5859 29.1296 47.9023 29.1296C46.8203 29.1296 46.0195 28.7761 45.5 28.0691C45.0898 27.5027 44.8848 26.7878 44.8848 25.9246C44.8848 24.8933 45.1543 24.0867 45.6934 23.5046C46.2324 22.9187 46.9141 22.6257 47.7383 22.6257C48.6641 22.6257 49.3945 22.9324 49.9297 23.5457C50.4648 24.155 50.7207 25.0906 50.6973 26.3523H46.5723C46.584 26.8406 46.7168 27.2214 46.9707 27.4949C47.2246 27.7644 47.541 27.8992 47.9199 27.8992C48.1777 27.8992 48.3945 27.8289 48.5703 27.6882C48.7461 27.5476 48.8789 27.321 48.9688 27.0085ZM49.0625 25.3445C49.0508 24.8679 48.9277 24.5066 48.6934 24.2605C48.459 24.0105 48.1738 23.8855 47.8379 23.8855C47.4785 23.8855 47.1816 24.0164 46.9473 24.2781C46.7129 24.5398 46.5977 24.8953 46.6016 25.3445H49.0625ZM51.2539 28.989L53.498 25.7839L51.3477 22.7664H53.3574L54.459 24.4773L55.6191 22.7664H57.5527L55.4434 25.7136L57.7461 28.989H55.7246L54.459 27.0613L53.1816 28.989H51.2539Z" fill="white"/>
<defs>
<linearGradient id="paint0_linear_42_2626" x1="33.5" y1="1.98901" x2="33.5" y2="33.989" gradientUnits="userSpaceOnUse">
<stop stop-color="#BB6738"/>
<stop offset="1" stop-color="#BE9F00"/>
</linearGradient>
</defs>
</svg>
