<svg width="45" height="24" viewBox="0 0 45 24" fill="none" xmlns="http://www.w3.org/2000/svg">
<rect x="2" y="1.98901" width="42" height="20" rx="10" fill="url(#paint0_linear_44_4216)"/>
<rect x="2" y="1.98901" width="42" height="20" rx="10" stroke="#DE4E8D" stroke-width="3" stroke-linejoin="round"/>
<path d="M14.1934 12.8308V11.3835H17.9316V14.8054C17.5684 15.157 17.041 15.4675 16.3496 15.7371C15.6621 16.0027 14.9648 16.1355 14.2578 16.1355C13.3594 16.1355 12.5762 15.948 11.9082 15.573C11.2402 15.1941 10.7383 14.655 10.4023 13.9558C10.0664 13.2527 9.89844 12.489 9.89844 11.6648C9.89844 10.7703 10.0859 9.97534 10.4609 9.28003C10.8359 8.58472 11.3848 8.05151 12.1074 7.68042C12.6582 7.39526 13.3438 7.25269 14.1641 7.25269C15.2305 7.25269 16.0625 7.47729 16.6602 7.92651C17.2617 8.37183 17.6484 8.98901 17.8203 9.77808L16.0977 10.1003C15.9766 9.67847 15.748 9.34644 15.4121 9.10425C15.0801 8.85815 14.6641 8.73511 14.1641 8.73511C13.4062 8.73511 12.8027 8.97534 12.3535 9.45581C11.9082 9.93628 11.6855 10.6492 11.6855 11.5945C11.6855 12.614 11.9121 13.3796 12.3652 13.8914C12.8184 14.3992 13.4121 14.6531 14.1465 14.6531C14.5098 14.6531 14.873 14.5828 15.2363 14.4421C15.6035 14.2976 15.918 14.1238 16.1797 13.9207V12.8308H14.1934ZM25.0332 12.8308L26.7148 13.364C26.457 14.3015 26.0273 14.9988 25.4258 15.4558C24.8281 15.9089 24.0684 16.1355 23.1465 16.1355C22.0059 16.1355 21.0684 15.7468 20.334 14.9695C19.5996 14.1882 19.2324 13.1218 19.2324 11.7703C19.2324 10.3406 19.6016 9.2312 20.3398 8.44214C21.0781 7.64917 22.0488 7.25269 23.252 7.25269C24.3027 7.25269 25.1562 7.56323 25.8125 8.18433C26.2031 8.55151 26.4961 9.07886 26.6914 9.76636L24.9746 10.1765C24.873 9.7312 24.6602 9.37964 24.3359 9.12183C24.0156 8.86401 23.625 8.73511 23.1641 8.73511C22.5273 8.73511 22.0098 8.96362 21.6113 9.42065C21.2168 9.87769 21.0195 10.6179 21.0195 11.6414C21.0195 12.7273 21.2148 13.5007 21.6055 13.9617C21.9961 14.4226 22.5039 14.6531 23.1289 14.6531C23.5898 14.6531 23.9863 14.5066 24.3184 14.2136C24.6504 13.9207 24.8887 13.4597 25.0332 12.8308ZM32.2051 12.8308V11.3835H35.9434V14.8054C35.5801 15.157 35.0527 15.4675 34.3613 15.7371C33.6738 16.0027 32.9766 16.1355 32.2695 16.1355C31.3711 16.1355 30.5879 15.948 29.9199 15.573C29.252 15.1941 28.75 14.655 28.4141 13.9558C28.0781 13.2527 27.9102 12.489 27.9102 11.6648C27.9102 10.7703 28.0977 9.97534 28.4727 9.28003C28.8477 8.58472 29.3965 8.05151 30.1191 7.68042C30.6699 7.39526 31.3555 7.25269 32.1758 7.25269C33.2422 7.25269 34.0742 7.47729 34.6719 7.92651C35.2734 8.37183 35.6602 8.98901 35.832 9.77808L34.1094 10.1003C33.9883 9.67847 33.7598 9.34644 33.4238 9.10425C33.0918 8.85815 32.6758 8.73511 32.1758 8.73511C31.418 8.73511 30.8145 8.97534 30.3652 9.45581C29.9199 9.93628 29.6973 10.6492 29.6973 11.5945C29.6973 12.614 29.9238 13.3796 30.377 13.8914C30.8301 14.3992 31.4238 14.6531 32.1582 14.6531C32.5215 14.6531 32.8848 14.5828 33.248 14.4421C33.6152 14.2976 33.9297 14.1238 34.1914 13.9207V12.8308H32.2051Z" fill="white"/>
<defs>
<linearGradient id="paint0_linear_44_4216" x1="23" y1="1.98901" x2="23" y2="21.989" gradientUnits="userSpaceOnUse">
<stop stop-color="#DE4E8D"/>
<stop offset="1" stop-color="#5FA6C2"/>
</linearGradient>
</defs>
</svg>
