<svg width="58" height="24" viewBox="0 0 58 24" fill="none" xmlns="http://www.w3.org/2000/svg">
<rect x="2" y="1.98901" width="55" height="20" rx="10" fill="url(#paint0_linear_46_4307)"/>
<rect x="2" y="1.98901" width="55" height="20" rx="10" stroke="#BF4E15" stroke-width="3" stroke-linejoin="round"/>
<path d="M10.3633 15.989V7.39917H12.0977V10.78H15.4961V7.39917H17.2305V15.989H15.4961V12.2332H12.0977V15.989H10.3633ZM19.0469 15.989V7.39917H20.7344L24.25 13.1355V7.39917H25.8613V15.989H24.1211L20.6582 10.3875V15.989H19.0469ZM27.7129 15.989V7.39917H33.6016V8.85229H29.4473V10.8855H33.0332V12.3386H29.4473V15.989H27.7129ZM38.8867 15.989H37.2402V9.78394C36.6387 10.3464 35.9297 10.7625 35.1133 11.032V9.53784C35.543 9.39722 36.0098 9.13159 36.5137 8.74097C37.0176 8.34644 37.3633 7.88745 37.5508 7.36401H38.8867V15.989ZM41.7227 7.39917H45.1562C45.8359 7.39917 46.3418 7.42847 46.6738 7.48706C47.0098 7.54175 47.3086 7.65894 47.5703 7.83862C47.8359 8.01831 48.0566 8.25854 48.2324 8.55933C48.4082 8.8562 48.4961 9.19019 48.4961 9.56128C48.4961 9.96362 48.3867 10.3328 48.168 10.6687C47.9531 11.0046 47.6602 11.2566 47.2891 11.4246C47.8125 11.5769 48.2148 11.8367 48.4961 12.2039C48.7773 12.571 48.918 13.0027 48.918 13.4988C48.918 13.8894 48.8262 14.2703 48.6426 14.6414C48.4629 15.0085 48.2148 15.3035 47.8984 15.5261C47.5859 15.7449 47.1992 15.8796 46.7383 15.9304C46.4492 15.9617 45.752 15.9812 44.6465 15.989H41.7227V7.39917ZM43.457 8.82886V10.8152H44.5938C45.2695 10.8152 45.6895 10.8054 45.8535 10.7859C46.1504 10.7507 46.3828 10.6492 46.5508 10.4812C46.7227 10.3093 46.8086 10.0847 46.8086 9.80737C46.8086 9.54175 46.7344 9.3269 46.5859 9.16284C46.4414 8.99487 46.2246 8.89331 45.9355 8.85815C45.7637 8.83862 45.2695 8.82886 44.4531 8.82886H43.457ZM43.457 12.2449V14.5417H45.0625C45.6875 14.5417 46.084 14.5242 46.252 14.489C46.5098 14.4421 46.7188 14.3289 46.8789 14.1492C47.043 13.9656 47.125 13.7214 47.125 13.4167C47.125 13.1589 47.0625 12.9402 46.9375 12.7605C46.8125 12.5808 46.6309 12.45 46.3926 12.3679C46.1582 12.2859 45.6465 12.2449 44.8574 12.2449H43.457Z" fill="white"/>
<defs>
<linearGradient id="paint0_linear_46_4307" x1="29.5" y1="1.98901" x2="29.5" y2="21.989" gradientUnits="userSpaceOnUse">
<stop stop-color="#BF4E15"/>
<stop offset="1" stop-color="#2C8A0C"/>
</linearGradient>
</defs>
</svg>
