<svg width="50" height="24" viewBox="0 0 50 24" fill="none" xmlns="http://www.w3.org/2000/svg">
<rect x="2" y="1.98901" width="47" height="20" rx="10" fill="url(#paint0_linear_45_4275)"/>
<rect x="2" y="1.98901" width="47" height="20" rx="10" stroke="#0A870E" stroke-width="3" stroke-linejoin="round"/>
<path d="M14.0215 12.8308V11.3835H17.7598V14.8054C17.3965 15.157 16.8691 15.4675 16.1777 15.7371C15.4902 16.0027 14.793 16.1355 14.0859 16.1355C13.1875 16.1355 12.4043 15.948 11.7363 15.573C11.0684 15.1941 10.5664 14.655 10.2305 13.9558C9.89453 13.2527 9.72656 12.489 9.72656 11.6648C9.72656 10.7703 9.91406 9.97534 10.2891 9.28003C10.6641 8.58472 11.2129 8.05151 11.9355 7.68042C12.4863 7.39526 13.1719 7.25269 13.9922 7.25269C15.0586 7.25269 15.8906 7.47729 16.4883 7.92651C17.0898 8.37183 17.4766 8.98901 17.6484 9.77808L15.9258 10.1003C15.8047 9.67847 15.5762 9.34644 15.2402 9.10425C14.9082 8.85815 14.4922 8.73511 13.9922 8.73511C13.2344 8.73511 12.6309 8.97534 12.1816 9.45581C11.7363 9.93628 11.5137 10.6492 11.5137 11.5945C11.5137 12.614 11.7402 13.3796 12.1934 13.8914C12.6465 14.3992 13.2402 14.6531 13.9746 14.6531C14.3379 14.6531 14.7012 14.5828 15.0645 14.4421C15.4316 14.2976 15.7461 14.1238 16.0078 13.9207V12.8308H14.0215ZM18.9258 13.1941L20.6133 13.03C20.7148 13.5964 20.9199 14.0125 21.2285 14.2781C21.541 14.5437 21.9609 14.6765 22.4883 14.6765C23.0469 14.6765 23.4668 14.5593 23.748 14.325C24.0332 14.0867 24.1758 13.8093 24.1758 13.4929C24.1758 13.2898 24.1152 13.1179 23.9941 12.9773C23.877 12.8328 23.6699 12.7078 23.373 12.6023C23.1699 12.532 22.707 12.407 21.9844 12.2273C21.0547 11.9968 20.4023 11.7136 20.0273 11.3777C19.5 10.905 19.2363 10.3289 19.2363 9.64917C19.2363 9.21167 19.3594 8.80347 19.6055 8.42456C19.8555 8.04175 20.2129 7.75073 20.6777 7.55151C21.1465 7.35229 21.7109 7.25269 22.3711 7.25269C23.4492 7.25269 24.2598 7.48901 24.8027 7.96167C25.3496 8.43433 25.6367 9.06519 25.6641 9.85425L23.9297 9.93042C23.8555 9.48901 23.6953 9.17261 23.4492 8.9812C23.207 8.78589 22.8418 8.68823 22.3535 8.68823C21.8496 8.68823 21.4551 8.79175 21.1699 8.99878C20.9863 9.13159 20.8945 9.30933 20.8945 9.53198C20.8945 9.73511 20.9805 9.90894 21.1523 10.0535C21.3711 10.2371 21.9023 10.4285 22.7461 10.6277C23.5898 10.8269 24.2129 11.0339 24.6152 11.2488C25.0215 11.4597 25.3379 11.7507 25.5645 12.1218C25.7949 12.489 25.9102 12.9441 25.9102 13.4871C25.9102 13.9792 25.7734 14.4402 25.5 14.8699C25.2266 15.2996 24.8398 15.6199 24.3398 15.8308C23.8398 16.0378 23.2168 16.1414 22.4707 16.1414C21.3848 16.1414 20.5508 15.8914 19.9688 15.3914C19.3867 14.8875 19.0391 14.155 18.9258 13.1941ZM27.3926 15.989V7.39917H29.127V11.2136L32.6309 7.39917H34.9629L31.7285 10.7449L35.1387 15.989H32.8945L30.5332 11.9578L29.127 13.3933V15.989H27.3926ZM35.6191 13.7097L37.2129 13.5164C37.2637 13.9226 37.4004 14.2332 37.623 14.448C37.8457 14.6628 38.1152 14.7703 38.4316 14.7703C38.7715 14.7703 39.0566 14.6414 39.2871 14.3835C39.5215 14.1257 39.6387 13.7781 39.6387 13.3406C39.6387 12.9265 39.5273 12.5984 39.3047 12.3562C39.082 12.114 38.8105 11.9929 38.4902 11.9929C38.2793 11.9929 38.0273 12.0339 37.7344 12.116L37.916 10.7742C38.3613 10.7859 38.7012 10.6902 38.9355 10.4871C39.1699 10.28 39.2871 10.0066 39.2871 9.66675C39.2871 9.37769 39.2012 9.14722 39.0293 8.97534C38.8574 8.80347 38.6289 8.71753 38.3438 8.71753C38.0625 8.71753 37.8223 8.81519 37.623 9.0105C37.4238 9.20581 37.3027 9.49097 37.2598 9.86597L35.7422 9.60815C35.8477 9.08862 36.0059 8.67456 36.2168 8.36597C36.4316 8.05347 36.7285 7.80933 37.1074 7.63354C37.4902 7.45386 37.918 7.36401 38.3906 7.36401C39.1992 7.36401 39.8477 7.62183 40.3359 8.13745C40.7383 8.55933 40.9395 9.03589 40.9395 9.56714C40.9395 10.321 40.5273 10.9226 39.7031 11.3718C40.1953 11.4773 40.5879 11.7136 40.8809 12.0808C41.1777 12.448 41.3262 12.8914 41.3262 13.4109C41.3262 14.1648 41.0508 14.8074 40.5 15.3386C39.9492 15.8699 39.2637 16.1355 38.4434 16.1355C37.666 16.1355 37.0215 15.9128 36.5098 15.4675C35.998 15.0183 35.7012 14.4324 35.6191 13.7097Z" fill="white"/>
<defs>
<linearGradient id="paint0_linear_45_4275" x1="25.5" y1="21.989" x2="25.5" y2="1.98901" gradientUnits="userSpaceOnUse">
<stop stop-color="#00614B"/>
<stop offset="1" stop-color="#0A870E"/>
</linearGradient>
</defs>
</svg>
