<svg width="56" height="24" viewBox="0 0 56 24" fill="none" xmlns="http://www.w3.org/2000/svg">
<rect x="2" y="1.98901" width="53" height="20" rx="10" fill="url(#paint0_linear_36_1566)"/>
<rect x="2" y="1.98901" width="53" height="20" rx="10" stroke="#0000A3" stroke-width="3" stroke-linejoin="round"/>
<path d="M10.3594 7.39917H13.793C14.4727 7.39917 14.9785 7.42847 15.3105 7.48706C15.6465 7.54175 15.9453 7.65894 16.207 7.83862C16.4727 8.01831 16.6934 8.25854 16.8691 8.55933C17.0449 8.8562 17.1328 9.19019 17.1328 9.56128C17.1328 9.96362 17.0234 10.3328 16.8047 10.6687C16.5898 11.0046 16.2969 11.2566 15.9258 11.4246C16.4492 11.5769 16.8516 11.8367 17.1328 12.2039C17.4141 12.571 17.5547 13.0027 17.5547 13.4988C17.5547 13.8894 17.4629 14.2703 17.2793 14.6414C17.0996 15.0085 16.8516 15.3035 16.5352 15.5261C16.2227 15.7449 15.8359 15.8796 15.375 15.9304C15.0859 15.9617 14.3887 15.9812 13.2832 15.989H10.3594V7.39917ZM12.0938 8.82886V10.8152H13.2305C13.9062 10.8152 14.3262 10.8054 14.4902 10.7859C14.7871 10.7507 15.0195 10.6492 15.1875 10.4812C15.3594 10.3093 15.4453 10.0847 15.4453 9.80737C15.4453 9.54175 15.3711 9.3269 15.2227 9.16284C15.0781 8.99487 14.8613 8.89331 14.5723 8.85815C14.4004 8.83862 13.9062 8.82886 13.0898 8.82886H12.0938ZM12.0938 12.2449V14.5417H13.6992C14.3242 14.5417 14.7207 14.5242 14.8887 14.489C15.1465 14.4421 15.3555 14.3289 15.5156 14.1492C15.6797 13.9656 15.7617 13.7214 15.7617 13.4167C15.7617 13.1589 15.6992 12.9402 15.5742 12.7605C15.4492 12.5808 15.2676 12.45 15.0293 12.3679C14.7949 12.2859 14.2832 12.2449 13.4941 12.2449H12.0938ZM24.5215 12.8308L26.2031 13.364C25.9453 14.3015 25.5156 14.9988 24.9141 15.4558C24.3164 15.9089 23.5566 16.1355 22.6348 16.1355C21.4941 16.1355 20.5566 15.7468 19.8223 14.9695C19.0879 14.1882 18.7207 13.1218 18.7207 11.7703C18.7207 10.3406 19.0898 9.2312 19.8281 8.44214C20.5664 7.64917 21.5371 7.25269 22.7402 7.25269C23.791 7.25269 24.6445 7.56323 25.3008 8.18433C25.6914 8.55151 25.9844 9.07886 26.1797 9.76636L24.4629 10.1765C24.3613 9.7312 24.1484 9.37964 23.8242 9.12183C23.5039 8.86401 23.1133 8.73511 22.6523 8.73511C22.0156 8.73511 21.498 8.96362 21.0996 9.42065C20.7051 9.87769 20.5078 10.6179 20.5078 11.6414C20.5078 12.7273 20.7031 13.5007 21.0938 13.9617C21.4844 14.4226 21.9922 14.6531 22.6172 14.6531C23.0781 14.6531 23.4746 14.5066 23.8066 14.2136C24.1387 13.9207 24.377 13.4597 24.5215 12.8308ZM27.7441 15.989V7.46948H29.4785V14.5417H33.791V15.989H27.7441ZM38.8828 15.989H37.2363V9.78394C36.6348 10.3464 35.9258 10.7625 35.1094 11.032V9.53784C35.5391 9.39722 36.0059 9.13159 36.5098 8.74097C37.0137 8.34644 37.3594 7.88745 37.5469 7.36401H38.8828V15.989ZM44.1328 7.36401C44.9648 7.36401 45.6152 7.66089 46.084 8.25464C46.6426 8.95776 46.9219 10.1238 46.9219 11.7527C46.9219 13.3777 46.6406 14.5457 46.0781 15.2566C45.6133 15.8425 44.9648 16.1355 44.1328 16.1355C43.2969 16.1355 42.623 15.8152 42.1113 15.1746C41.5996 14.53 41.3438 13.3835 41.3438 11.7351C41.3438 10.1179 41.625 8.95386 42.1875 8.24292C42.6523 7.65698 43.3008 7.36401 44.1328 7.36401ZM44.1328 8.72925C43.9336 8.72925 43.7559 8.7937 43.5996 8.92261C43.4434 9.04761 43.3223 9.27417 43.2363 9.60229C43.123 10.0281 43.0664 10.7449 43.0664 11.7527C43.0664 12.7605 43.1172 13.4539 43.2188 13.8328C43.3203 14.2078 43.4473 14.4578 43.5996 14.5828C43.7559 14.7078 43.9336 14.7703 44.1328 14.7703C44.332 14.7703 44.5098 14.7078 44.666 14.5828C44.8223 14.4539 44.9434 14.2253 45.0293 13.8972C45.1426 13.4753 45.1992 12.7605 45.1992 11.7527C45.1992 10.7449 45.1484 10.0535 45.0469 9.67847C44.9453 9.29956 44.8164 9.04761 44.6602 8.92261C44.5078 8.7937 44.332 8.72925 44.1328 8.72925Z" fill="white"/>
<defs>
<linearGradient id="paint0_linear_36_1566" x1="28.5" y1="1.98901" x2="28.5" y2="21.989" gradientUnits="userSpaceOnUse">
<stop stop-color="#BDE5CF"/>
<stop offset="1" stop-color="#0000A3"/>
</linearGradient>
</defs>
</svg>
