<svg width="86" height="24" viewBox="0 0 86 24" fill="none" xmlns="http://www.w3.org/2000/svg">
<rect x="1" y="1.98901" width="84" height="20" rx="10" fill="url(#paint0_linear_46_4294)"/>
<rect x="1" y="1.98901" width="84" height="20" rx="10" stroke="#1775BC" stroke-width="3" stroke-linejoin="round"/>
<path d="M8.89844 15.989V7.39917H10.6328V15.989H8.89844ZM20.0371 15.989H18.1504L17.4004 14.0378H13.9668L13.2578 15.989H11.418L14.7637 7.39917H16.5977L20.0371 15.989ZM16.8438 12.5906L15.6602 9.40308L14.5 12.5906H16.8438ZM20.9629 15.989V7.39917H23.7461C24.8008 7.39917 25.4883 7.44214 25.8086 7.52808C26.3008 7.65698 26.7129 7.93823 27.0449 8.37183C27.377 8.80151 27.543 9.35815 27.543 10.0417C27.543 10.5691 27.4473 11.0125 27.2559 11.3718C27.0645 11.7312 26.8203 12.0144 26.5234 12.2214C26.2305 12.4246 25.9316 12.5593 25.627 12.6257C25.2129 12.7078 24.6133 12.7488 23.8281 12.7488H22.6973V15.989H20.9629ZM22.6973 8.85229V11.2898H23.6465C24.3301 11.2898 24.7871 11.2449 25.0176 11.155C25.248 11.0652 25.4277 10.9246 25.5566 10.7332C25.6895 10.5417 25.7559 10.3191 25.7559 10.0652C25.7559 9.75269 25.6641 9.49487 25.4805 9.29175C25.2969 9.08862 25.0645 8.96167 24.7832 8.91089C24.5762 8.87183 24.1602 8.85229 23.5352 8.85229H22.6973ZM28.9668 15.989V7.39917H31.75C32.8047 7.39917 33.4922 7.44214 33.8125 7.52808C34.3047 7.65698 34.7168 7.93823 35.0488 8.37183C35.3809 8.80151 35.5469 9.35815 35.5469 10.0417C35.5469 10.5691 35.4512 11.0125 35.2598 11.3718C35.0684 11.7312 34.8242 12.0144 34.5273 12.2214C34.2344 12.4246 33.9355 12.5593 33.6309 12.6257C33.2168 12.7078 32.6172 12.7488 31.832 12.7488H30.7012V15.989H28.9668ZM30.7012 8.85229V11.2898H31.6504C32.334 11.2898 32.791 11.2449 33.0215 11.155C33.252 11.0652 33.4316 10.9246 33.5605 10.7332C33.6934 10.5417 33.7598 10.3191 33.7598 10.0652C33.7598 9.75269 33.668 9.49487 33.4844 9.29175C33.3008 9.08862 33.0684 8.96167 32.7871 8.91089C32.5801 8.87183 32.1641 8.85229 31.5391 8.85229H30.7012ZM42.8066 18.5144H41.6758C41.0781 17.6121 40.623 16.6746 40.3105 15.7019C39.998 14.7292 39.8418 13.7878 39.8418 12.8777C39.8418 11.7488 40.0352 10.6804 40.4219 9.67261C40.7578 8.79761 41.1836 7.99097 41.6992 7.25269H42.8242C42.2891 8.43628 41.9199 9.44409 41.7168 10.2761C41.5176 11.1042 41.418 11.9832 41.418 12.9128C41.418 13.5535 41.4766 14.2097 41.5938 14.8816C41.7148 15.5535 41.8789 16.1921 42.0859 16.7976C42.2227 17.196 42.4629 17.7683 42.8066 18.5144ZM47.9336 15.989H46.2871V9.78394C45.6855 10.3464 44.9766 10.7625 44.1602 11.032V9.53784C44.5898 9.39722 45.0566 9.13159 45.5605 8.74097C46.0645 8.34644 46.4102 7.88745 46.5977 7.36401H47.9336V15.989ZM50.5645 13.698V12.0515H53.7988V13.698H50.5645ZM55.8086 11.3542C55.3828 11.1746 55.0723 10.9285 54.877 10.616C54.6855 10.2996 54.5898 9.95386 54.5898 9.57886C54.5898 8.93823 54.8125 8.40894 55.2578 7.99097C55.707 7.573 56.3438 7.36401 57.168 7.36401C57.9844 7.36401 58.6172 7.573 59.0664 7.99097C59.5195 8.40894 59.7461 8.93823 59.7461 9.57886C59.7461 9.97729 59.6426 10.3328 59.4355 10.6453C59.2285 10.9539 58.9375 11.1902 58.5625 11.3542C59.0391 11.5457 59.4004 11.825 59.6465 12.1921C59.8965 12.5593 60.0215 12.9832 60.0215 13.4636C60.0215 14.2566 59.7676 14.9011 59.2598 15.3972C58.7559 15.8933 58.084 16.1414 57.2441 16.1414C56.4629 16.1414 55.8125 15.9363 55.293 15.5261C54.6797 15.0417 54.373 14.3777 54.373 13.5339C54.373 13.0691 54.4883 12.6433 54.7188 12.2566C54.9492 11.866 55.3125 11.5652 55.8086 11.3542ZM56.1484 9.69604C56.1484 10.0242 56.2402 10.28 56.4238 10.4636C56.6113 10.6472 56.8594 10.739 57.168 10.739C57.4805 10.739 57.7305 10.6472 57.918 10.4636C58.1055 10.2761 58.1992 10.0183 58.1992 9.69019C58.1992 9.38159 58.1055 9.1355 57.918 8.9519C57.7344 8.7644 57.4902 8.67065 57.1855 8.67065C56.8691 8.67065 56.6172 8.7644 56.4297 8.9519C56.2422 9.1394 56.1484 9.38745 56.1484 9.69604ZM55.9961 13.3757C55.9961 13.8289 56.1113 14.1824 56.3418 14.4363C56.5762 14.6902 56.8672 14.8171 57.2148 14.8171C57.5547 14.8171 57.8359 14.696 58.0586 14.4539C58.2812 14.2078 58.3926 13.8542 58.3926 13.3933C58.3926 12.991 58.2793 12.6687 58.0527 12.4265C57.8262 12.1804 57.5391 12.0574 57.1914 12.0574C56.7891 12.0574 56.4883 12.196 56.2891 12.4734C56.0938 12.7507 55.9961 13.0515 55.9961 13.3757ZM66.6367 14.4597V15.989H60.8652C60.9277 15.4109 61.1152 14.864 61.4277 14.3484C61.7402 13.8289 62.3574 13.1414 63.2793 12.2859C64.0215 11.5945 64.4766 11.1257 64.6445 10.8796C64.8711 10.5398 64.9844 10.2039 64.9844 9.87183C64.9844 9.50464 64.8848 9.22339 64.6855 9.02808C64.4902 8.82886 64.2188 8.72925 63.8711 8.72925C63.5273 8.72925 63.2539 8.83276 63.0508 9.03979C62.8477 9.24683 62.7305 9.59058 62.6992 10.071L61.0586 9.90698C61.1562 9.00073 61.4629 8.35034 61.9785 7.95581C62.4941 7.56128 63.1387 7.36401 63.9121 7.36401C64.7598 7.36401 65.4258 7.59253 65.9102 8.04956C66.3945 8.50659 66.6367 9.07495 66.6367 9.75464C66.6367 10.1414 66.5664 10.5105 66.4258 10.8621C66.2891 11.2097 66.0703 11.575 65.7695 11.9578C65.5703 12.2117 65.2109 12.5769 64.6914 13.0535C64.1719 13.53 63.8418 13.8464 63.7012 14.0027C63.5645 14.1589 63.4531 14.3113 63.3672 14.4597H66.6367ZM69.168 11.3542C68.7422 11.1746 68.4316 10.9285 68.2363 10.616C68.0449 10.2996 67.9492 9.95386 67.9492 9.57886C67.9492 8.93823 68.1719 8.40894 68.6172 7.99097C69.0664 7.573 69.7031 7.36401 70.5273 7.36401C71.3438 7.36401 71.9766 7.573 72.4258 7.99097C72.8789 8.40894 73.1055 8.93823 73.1055 9.57886C73.1055 9.97729 73.002 10.3328 72.7949 10.6453C72.5879 10.9539 72.2969 11.1902 71.9219 11.3542C72.3984 11.5457 72.7598 11.825 73.0059 12.1921C73.2559 12.5593 73.3809 12.9832 73.3809 13.4636C73.3809 14.2566 73.127 14.9011 72.6191 15.3972C72.1152 15.8933 71.4434 16.1414 70.6035 16.1414C69.8223 16.1414 69.1719 15.9363 68.6523 15.5261C68.0391 15.0417 67.7324 14.3777 67.7324 13.5339C67.7324 13.0691 67.8477 12.6433 68.0781 12.2566C68.3086 11.866 68.6719 11.5652 69.168 11.3542ZM69.5078 9.69604C69.5078 10.0242 69.5996 10.28 69.7832 10.4636C69.9707 10.6472 70.2188 10.739 70.5273 10.739C70.8398 10.739 71.0898 10.6472 71.2773 10.4636C71.4648 10.2761 71.5586 10.0183 71.5586 9.69019C71.5586 9.38159 71.4648 9.1355 71.2773 8.9519C71.0938 8.7644 70.8496 8.67065 70.5449 8.67065C70.2285 8.67065 69.9766 8.7644 69.7891 8.9519C69.6016 9.1394 69.5078 9.38745 69.5078 9.69604ZM69.3555 13.3757C69.3555 13.8289 69.4707 14.1824 69.7012 14.4363C69.9355 14.6902 70.2266 14.8171 70.5742 14.8171C70.9141 14.8171 71.1953 14.696 71.418 14.4539C71.6406 14.2078 71.752 13.8542 71.752 13.3933C71.752 12.991 71.6387 12.6687 71.4121 12.4265C71.1855 12.1804 70.8984 12.0574 70.5508 12.0574C70.1484 12.0574 69.8477 12.196 69.6484 12.4734C69.4531 12.7507 69.3555 13.0515 69.3555 13.3757ZM74.3301 18.5144C74.6543 17.8191 74.8828 17.2859 75.0156 16.9148C75.1484 16.5437 75.2715 16.116 75.3848 15.6316C75.498 15.1472 75.582 14.6882 75.6367 14.2546C75.6914 13.8171 75.7188 13.3699 75.7188 12.9128C75.7188 11.9832 75.6191 11.1042 75.4199 10.2761C75.2207 9.44409 74.8535 8.43628 74.3184 7.25269H75.4375C76.0273 8.09253 76.4844 8.98315 76.8086 9.92456C77.1367 10.866 77.3008 11.821 77.3008 12.7898C77.3008 13.6062 77.1719 14.4812 76.9141 15.4148C76.6211 16.4617 76.1387 17.4949 75.4668 18.5144H74.3301Z" fill="white"/>
<defs>
<linearGradient id="paint0_linear_46_4294" x1="43" y1="1.98901" x2="43" y2="21.989" gradientUnits="userSpaceOnUse">
<stop stop-color="#1775BC"/>
<stop offset="1" stop-color="#2C8A0C"/>
</linearGradient>
</defs>
</svg>
