<svg width="48" height="24" viewBox="0 0 48 24" fill="none" xmlns="http://www.w3.org/2000/svg">
<rect x="2" y="1.98901" width="45" height="20" rx="10" fill="url(#paint0_linear_83_1996)"/>
<rect x="2" y="1.98901" width="45" height="20" rx="10" stroke="#FA9CFF" stroke-width="3" stroke-linejoin="round"/>
<path d="M12.2949 15.989V8.85229H9.74609V7.39917H16.5723V8.85229H14.0293V15.989H12.2949ZM17.7441 15.989V7.46948H19.4785V14.5417H23.791V15.989H17.7441ZM25.0508 15.989V7.39917H26.7383L30.2539 13.1355V7.39917H31.8652V15.989H30.125L26.6621 10.3875V15.989H25.0508ZM37.5547 15.989H35.9082V9.78394C35.3066 10.3464 34.5977 10.7625 33.7812 11.032V9.53784C34.2109 9.39722 34.6777 9.13159 35.1816 8.74097C35.6855 8.34644 36.0312 7.88745 36.2188 7.36401H37.5547V15.989Z" fill="white"/>
<defs>
<linearGradient id="paint0_linear_83_1996" x1="24.5" y1="1.98901" x2="24.5" y2="21.989" gradientUnits="userSpaceOnUse">
<stop stop-color="#FA9CFF"/>
<stop offset="1" stop-color="#545497"/>
</linearGradient>
</defs>
</svg>
