<svg width="63" height="24" viewBox="0 0 63 24" fill="none" xmlns="http://www.w3.org/2000/svg">
<rect x="2" y="1.98901" width="60" height="20" rx="10" fill="#6CAC7F"/>
<rect x="2" y="1.98901" width="60" height="20" rx="10" stroke="#467053" stroke-width="3" stroke-linejoin="round"/>
<path d="M10.2148 15.989V7.39917H11.9492V11.2136L15.4531 7.39917H17.7852L14.5508 10.7449L17.9609 15.989H15.7168L13.3555 11.9578L11.9492 13.3933V15.989H10.2148ZM18.8105 15.989V7.39917H20.5449V15.989H18.8105ZM22.2207 15.989V7.39917H23.9082L27.4238 13.1355V7.39917H29.0352V15.989H27.2949L23.832 10.3875V15.989H22.2207ZM38.6211 15.989H36.7344L35.9844 14.0378H32.5508L31.8418 15.989H30.002L33.3477 7.39917H35.1816L38.6211 15.989ZM35.4277 12.5906L34.2441 9.40308L33.084 12.5906H35.4277ZM39.1074 13.1941L40.7949 13.03C40.8965 13.5964 41.1016 14.0125 41.4102 14.2781C41.7227 14.5437 42.1426 14.6765 42.6699 14.6765C43.2285 14.6765 43.6484 14.5593 43.9297 14.325C44.2148 14.0867 44.3574 13.8093 44.3574 13.4929C44.3574 13.2898 44.2969 13.1179 44.1758 12.9773C44.0586 12.8328 43.8516 12.7078 43.5547 12.6023C43.3516 12.532 42.8887 12.407 42.166 12.2273C41.2363 11.9968 40.584 11.7136 40.209 11.3777C39.6816 10.905 39.418 10.3289 39.418 9.64917C39.418 9.21167 39.541 8.80347 39.7871 8.42456C40.0371 8.04175 40.3945 7.75073 40.8594 7.55151C41.3281 7.35229 41.8926 7.25269 42.5527 7.25269C43.6309 7.25269 44.4414 7.48901 44.9844 7.96167C45.5312 8.43433 45.8184 9.06519 45.8457 9.85425L44.1113 9.93042C44.0371 9.48901 43.877 9.17261 43.6309 8.9812C43.3887 8.78589 43.0234 8.68823 42.5352 8.68823C42.0312 8.68823 41.6367 8.79175 41.3516 8.99878C41.168 9.13159 41.0762 9.30933 41.0762 9.53198C41.0762 9.73511 41.1621 9.90894 41.334 10.0535C41.5527 10.2371 42.084 10.4285 42.9277 10.6277C43.7715 10.8269 44.3945 11.0339 44.7969 11.2488C45.2031 11.4597 45.5195 11.7507 45.7461 12.1218C45.9766 12.489 46.0918 12.9441 46.0918 13.4871C46.0918 13.9792 45.9551 14.4402 45.6816 14.8699C45.4082 15.2996 45.0215 15.6199 44.5215 15.8308C44.0215 16.0378 43.3984 16.1414 42.6523 16.1414C41.5664 16.1414 40.7324 15.8914 40.1504 15.3914C39.5684 14.8875 39.2207 14.155 39.1074 13.1941ZM47.5508 15.989V7.39917H53.9199V8.85229H49.2852V10.7566H53.5977V12.2039H49.2852V14.5417H54.084V15.989H47.5508Z" fill="white"/>
</svg>
