<svg width="84" height="70" viewBox="0 0 84 70" fill="none" xmlns="http://www.w3.org/2000/svg">
<path d="M72.343 69.4319C66.8147 69.4319 65.3479 64.1155 65.345 61.304V27.4778C65.3411 27.0637 65.221 23.3474 62.3509 23.3474C59.4866 23.3474 59.3812 27.0564 59.3782 27.4797V61.302C59.3782 64.1135 57.9163 69.4319 52.3831 69.4319C46.8499 69.4319 45.388 64.1135 45.388 61.302L45.389 27.4778C45.3851 27.0637 45.265 23.3474 42.3953 23.3474C39.5271 23.3474 39.4085 27.0627 39.4046 27.4861V61.302C39.4022 64.1155 37.9358 69.4319 32.4046 69.4319C26.8719 69.4319 25.41 64.1135 25.41 61.302V27.4773C25.4056 27.0632 25.286 23.3474 22.4154 23.3474C21.5883 23.3474 20.555 23.5539 19.8993 25.1662C19.4437 26.2853 19.4237 27.465 19.4237 27.4763V61.302C19.4237 64.1135 17.9613 69.4319 12.4261 69.4319C9.54481 69.4319 7.33431 67.9007 6.20201 65.1214C5.45201 63.2786 5.43101 61.4984 5.43101 61.3011L5.43151 27.4774C5.42701 27.0632 5.30691 23.3474 2.43481 23.3474C1.33031 23.3474 0.434814 22.4519 0.434814 21.3474C0.434814 20.2429 1.33031 19.3474 2.43481 19.3474C7.96851 19.3474 9.43141 24.6653 9.43141 27.4773L9.43091 61.302C9.43481 61.717 9.55351 65.4319 12.426 65.4319C15.2995 65.4319 15.4192 61.7161 15.4236 61.2923V27.4773C15.4236 27.2815 15.4441 25.5007 16.1941 23.6585C17.3254 20.8787 19.5344 19.3475 22.4153 19.3475C27.948 19.3475 29.4099 24.6654 29.4099 27.4774V61.3021C29.4143 61.7162 29.5339 65.432 32.4045 65.432C35.3669 65.432 35.4045 61.4691 35.4045 61.3002V27.4773C35.4045 27.281 35.4255 25.5007 36.175 23.6585C37.3063 20.8787 39.5153 19.3475 42.3952 19.3475C47.9269 19.3475 49.3889 24.6659 49.3889 27.4779L49.3879 61.3021C49.3918 61.7162 49.5119 65.432 52.383 65.432C55.3439 65.432 55.3781 61.4711 55.3781 61.3021V27.4773C55.3761 27.0828 55.4299 23.4929 57.7355 21.1794C58.9289 19.9807 60.5255 19.3474 62.3507 19.3474C67.8829 19.3474 69.3448 24.6658 69.3448 27.4778V61.302C69.3497 61.7141 69.4737 65.4319 72.3428 65.4319C75.2998 65.4319 75.334 61.471 75.334 61.302L75.3399 8.34204C75.3399 7.23754 76.2354 6.34204 77.3399 6.34204C78.4444 6.34204 79.3399 7.23754 79.3399 8.34204L79.334 61.302C79.3342 64.1135 77.8733 69.4319 72.343 69.4319Z" fill="#222E6B"/>
<path d="M2.08862 20.8565C7.08482 20.8565 7.08502 26.9864 7.08502 26.9864L7.08482 60.8109C7.08482 60.8109 7.08192 66.9408 12.0797 66.9408C17.0775 66.9408 17.0775 60.8109 17.0775 60.8109V26.9864C17.0775 26.9864 17.0742 20.8565 22.069 20.8565C27.0638 20.8565 27.0636 26.9864 27.0636 26.9864V60.8109C27.0636 60.8109 27.0635 66.9408 32.0582 66.9408C37.053 66.9408 37.0582 60.8109 37.0582 60.8109V26.9864C37.0582 26.9864 37.0561 20.8565 42.0492 20.8565C47.0423 20.8565 47.0423 26.987 47.0423 26.987L47.0422 60.8109C47.0422 60.8109 47.0421 66.9408 52.0368 66.9408C57.0316 66.9408 57.0316 60.8109 57.0316 60.8109V26.9864C57.0316 26.9864 57.0097 20.8565 62.0045 20.8565C66.9992 20.8565 66.9991 26.987 66.9991 26.987V60.8109C66.9991 60.8109 67.0052 66.9408 71.9969 66.9408C76.9885 66.9408 76.9885 60.8109 76.9885 60.8109C76.9885 60.8109 76.9937 8.85107 76.9937 7.85107" stroke="#3651D9" stroke-miterlimit="1" stroke-linecap="round"/>
<path d="M77.3399 16.6455C73.7182 16.6455 70.783 13.7096 70.783 10.0886V6.59596C70.783 2.97496 73.7182 0.0390625 77.3399 0.0390625C80.9616 0.0390625 83.8968 2.97496 83.8968 6.59596V10.0886C83.8968 13.7096 80.9616 16.6455 77.3399 16.6455Z" fill="url(#paint0_radial_86_2609)"/>
<defs>
<radialGradient id="paint0_radial_86_2609" cx="0" cy="0" r="1" gradientUnits="userSpaceOnUse" gradientTransform="translate(76.0149 5.93166) scale(10.6036)">
<stop stop-color="#4C63D9"/>
<stop offset="0.0143" stop-color="#4B61D6"/>
<stop offset="0.1889" stop-color="#3C4FAF"/>
<stop offset="0.3624" stop-color="#314192"/>
<stop offset="0.5325" stop-color="#29367C"/>
<stop offset="0.6976" stop-color="#24306F"/>
<stop offset="0.8521" stop-color="#222E6B"/>
</radialGradient>
</defs>
</svg>
