<svg width="45" height="24" viewBox="0 0 45 24" fill="none" xmlns="http://www.w3.org/2000/svg">
<rect x="2" y="1.98901" width="42" height="20" rx="10" fill="url(#paint0_linear_42_2634)"/>
<rect x="2" y="1.98901" width="42" height="20" rx="10" stroke="#881751" stroke-width="3" stroke-linejoin="round"/>
<path d="M10.1973 15.989V7.39917H16.0859V8.85229H11.9316V10.8855H15.5176V12.3386H11.9316V15.989H10.1973ZM21.3711 15.989H19.7246V9.78394C19.123 10.3464 18.4141 10.7625 17.5977 11.032V9.53784C18.0273 9.39722 18.4941 9.13159 18.998 8.74097C19.502 8.34644 19.8477 7.88745 20.0352 7.36401H21.3711V15.989ZM29.3984 14.4597V15.989H23.627C23.6895 15.4109 23.877 14.864 24.1895 14.3484C24.502 13.8289 25.1191 13.1414 26.041 12.2859C26.7832 11.5945 27.2383 11.1257 27.4062 10.8796C27.6328 10.5398 27.7461 10.2039 27.7461 9.87183C27.7461 9.50464 27.6465 9.22339 27.4473 9.02808C27.252 8.82886 26.9805 8.72925 26.6328 8.72925C26.2891 8.72925 26.0156 8.83276 25.8125 9.03979C25.6094 9.24683 25.4922 9.59058 25.4609 10.071L23.8203 9.90698C23.918 9.00073 24.2246 8.35034 24.7402 7.95581C25.2559 7.56128 25.9004 7.36401 26.6738 7.36401C27.5215 7.36401 28.1875 7.59253 28.6719 8.04956C29.1562 8.50659 29.3984 9.07495 29.3984 9.75464C29.3984 10.1414 29.3281 10.5105 29.1875 10.8621C29.0508 11.2097 28.832 11.575 28.5312 11.9578C28.332 12.2117 27.9727 12.5769 27.4531 13.0535C26.9336 13.53 26.6035 13.8464 26.4629 14.0027C26.3262 14.1589 26.2148 14.3113 26.1289 14.4597H29.3984ZM32.0996 11.6648L30.6055 11.3953C30.7734 10.7937 31.0625 10.3484 31.4727 10.0593C31.8828 9.77026 32.4922 9.62573 33.3008 9.62573C34.0352 9.62573 34.582 9.71362 34.9414 9.8894C35.3008 10.0613 35.5527 10.282 35.6973 10.5515C35.8457 10.8171 35.9199 11.3074 35.9199 12.0222L35.9023 13.9441C35.9023 14.491 35.9277 14.8953 35.9785 15.157C36.0332 15.4148 36.1328 15.6921 36.2773 15.989H34.6484C34.6055 15.8796 34.5527 15.7175 34.4902 15.5027C34.4629 15.405 34.4434 15.3406 34.4316 15.3093C34.1504 15.5828 33.8496 15.7878 33.5293 15.9246C33.209 16.0613 32.8672 16.1296 32.5039 16.1296C31.8633 16.1296 31.3574 15.9558 30.9863 15.6082C30.6191 15.2605 30.4355 14.821 30.4355 14.2898C30.4355 13.9382 30.5195 13.6257 30.6875 13.3523C30.8555 13.075 31.0898 12.864 31.3906 12.7195C31.6953 12.571 32.1328 12.4421 32.7031 12.3328C33.4727 12.1882 34.0059 12.0535 34.3027 11.9285V11.7644C34.3027 11.448 34.2246 11.2234 34.0684 11.0906C33.9121 10.9539 33.6172 10.8855 33.1836 10.8855C32.8906 10.8855 32.6621 10.9441 32.498 11.0613C32.334 11.1746 32.2012 11.3757 32.0996 11.6648ZM34.3027 13.0007C34.0918 13.071 33.7578 13.155 33.3008 13.2527C32.8438 13.3503 32.5449 13.446 32.4043 13.5398C32.1895 13.6921 32.082 13.8855 32.082 14.1199C32.082 14.3503 32.168 14.5496 32.3398 14.7175C32.5117 14.8855 32.7305 14.9695 32.9961 14.9695C33.293 14.9695 33.5762 14.8718 33.8457 14.6765C34.0449 14.5281 34.1758 14.3464 34.2383 14.1316C34.2812 13.991 34.3027 13.7234 34.3027 13.3289V13.0007Z" fill="white"/>
<defs>
<linearGradient id="paint0_linear_42_2634" x1="23" y1="21.989" x2="23" y2="1.98901" gradientUnits="userSpaceOnUse">
<stop stop-color="#881751"/>
<stop offset="1" stop-color="#19605B"/>
</linearGradient>
</defs>
</svg>
