<svg width="50" height="24" viewBox="0 0 50 24" fill="none" xmlns="http://www.w3.org/2000/svg">
<rect x="2" y="1.98901" width="47" height="20" rx="10" fill="url(#paint0_linear_40_2511)"/>
<rect x="2" y="1.98901" width="47" height="20" rx="10" stroke="#07AEDD" stroke-width="3" stroke-linejoin="round"/>
<path d="M15.5215 12.8308L17.2031 13.364C16.9453 14.3015 16.5156 14.9988 15.9141 15.4558C15.3164 15.9089 14.5566 16.1355 13.6348 16.1355C12.4941 16.1355 11.5566 15.7468 10.8223 14.9695C10.0879 14.1882 9.7207 13.1218 9.7207 11.7703C9.7207 10.3406 10.0898 9.2312 10.8281 8.44214C11.5664 7.64917 12.5371 7.25269 13.7402 7.25269C14.791 7.25269 15.6445 7.56323 16.3008 8.18433C16.6914 8.55151 16.9844 9.07886 17.1797 9.76636L15.4629 10.1765C15.3613 9.7312 15.1484 9.37964 14.8242 9.12183C14.5039 8.86401 14.1133 8.73511 13.6523 8.73511C13.0156 8.73511 12.498 8.96362 12.0996 9.42065C11.7051 9.87769 11.5078 10.6179 11.5078 11.6414C11.5078 12.7273 11.7031 13.5007 12.0938 13.9617C12.4844 14.4226 12.9922 14.6531 13.6172 14.6531C14.0781 14.6531 14.4746 14.5066 14.8066 14.2136C15.1387 13.9207 15.377 13.4597 15.5215 12.8308ZM18.6914 7.39917H21.8613C22.5762 7.39917 23.1211 7.45386 23.4961 7.56323C24 7.71167 24.4316 7.97534 24.791 8.35425C25.1504 8.73315 25.4238 9.198 25.6113 9.74878C25.7988 10.2957 25.8926 10.9714 25.8926 11.7761C25.8926 12.4832 25.8047 13.0925 25.6289 13.6042C25.4141 14.2292 25.1074 14.7351 24.709 15.1218C24.4082 15.4148 24.002 15.6433 23.4902 15.8074C23.1074 15.9285 22.5957 15.989 21.9551 15.989H18.6914V7.39917ZM20.4258 8.85229V14.5417H21.7207C22.2051 14.5417 22.5547 14.5144 22.7695 14.4597C23.0508 14.3894 23.2832 14.2703 23.4668 14.1023C23.6543 13.9343 23.8066 13.6589 23.9238 13.2761C24.041 12.8894 24.0996 12.364 24.0996 11.7C24.0996 11.0359 24.041 10.5261 23.9238 10.1707C23.8066 9.81519 23.6426 9.53784 23.4316 9.33862C23.2207 9.1394 22.9531 9.00464 22.6289 8.93433C22.3867 8.87964 21.9121 8.85229 21.2051 8.85229H20.4258ZM27.3926 15.989V7.39917H29.127V11.2136L32.6309 7.39917H34.9629L31.7285 10.7449L35.1387 15.989H32.8945L30.5332 11.9578L29.127 13.3933V15.989H27.3926ZM41.2383 14.4597V15.989H35.4668C35.5293 15.4109 35.7168 14.864 36.0293 14.3484C36.3418 13.8289 36.959 13.1414 37.8809 12.2859C38.623 11.5945 39.0781 11.1257 39.2461 10.8796C39.4727 10.5398 39.5859 10.2039 39.5859 9.87183C39.5859 9.50464 39.4863 9.22339 39.2871 9.02808C39.0918 8.82886 38.8203 8.72925 38.4727 8.72925C38.1289 8.72925 37.8555 8.83276 37.6523 9.03979C37.4492 9.24683 37.332 9.59058 37.3008 10.071L35.6602 9.90698C35.7578 9.00073 36.0645 8.35034 36.5801 7.95581C37.0957 7.56128 37.7402 7.36401 38.5137 7.36401C39.3613 7.36401 40.0273 7.59253 40.5117 8.04956C40.9961 8.50659 41.2383 9.07495 41.2383 9.75464C41.2383 10.1414 41.168 10.5105 41.0273 10.8621C40.8906 11.2097 40.6719 11.575 40.3711 11.9578C40.1719 12.2117 39.8125 12.5769 39.293 13.0535C38.7734 13.53 38.4434 13.8464 38.3027 14.0027C38.166 14.1589 38.0547 14.3113 37.9688 14.4597H41.2383Z" fill="white"/>
<defs>
<linearGradient id="paint0_linear_40_2511" x1="25.5" y1="1.98901" x2="25.5" y2="21.989" gradientUnits="userSpaceOnUse">
<stop stop-color="#07AEDD"/>
<stop offset="1" stop-color="#1F4A08"/>
</linearGradient>
</defs>
</svg>
