<svg width="50" height="24" viewBox="0 0 50 24" fill="none" xmlns="http://www.w3.org/2000/svg">
<rect x="2" y="1.98901" width="47" height="20" rx="10" fill="url(#paint0_linear_64_1914)"/>
<rect x="2" y="1.98901" width="47" height="20" rx="10" stroke="#9627A1" stroke-width="3" stroke-linejoin="round"/>
<path d="M10.1426 15.989V7.39917H12.9258C13.9805 7.39917 14.668 7.44214 14.9883 7.52808C15.4805 7.65698 15.8926 7.93823 16.2246 8.37183C16.5566 8.80151 16.7227 9.35815 16.7227 10.0417C16.7227 10.5691 16.627 11.0125 16.4355 11.3718C16.2441 11.7312 16 12.0144 15.7031 12.2214C15.4102 12.4246 15.1113 12.5593 14.8066 12.6257C14.3926 12.7078 13.793 12.7488 13.0078 12.7488H11.877V15.989H10.1426ZM11.877 8.85229V11.2898H12.8262C13.5098 11.2898 13.9668 11.2449 14.1973 11.155C14.4277 11.0652 14.6074 10.9246 14.7363 10.7332C14.8691 10.5417 14.9355 10.3191 14.9355 10.0652C14.9355 9.75269 14.8438 9.49487 14.6602 9.29175C14.4766 9.08862 14.2441 8.96167 13.9629 8.91089C13.7559 8.87183 13.3398 8.85229 12.7148 8.85229H11.877ZM25.002 15.989H23.1152L22.3652 14.0378H18.9316L18.2227 15.989H16.3828L19.7285 7.39917H21.5625L25.002 15.989ZM21.8086 12.5906L20.625 9.40308L19.4648 12.5906H21.8086ZM25.9336 7.39917H29.3672C30.0469 7.39917 30.5527 7.42847 30.8848 7.48706C31.2207 7.54175 31.5195 7.65894 31.7812 7.83862C32.0469 8.01831 32.2676 8.25854 32.4434 8.55933C32.6191 8.8562 32.707 9.19019 32.707 9.56128C32.707 9.96362 32.5977 10.3328 32.3789 10.6687C32.1641 11.0046 31.8711 11.2566 31.5 11.4246C32.0234 11.5769 32.4258 11.8367 32.707 12.2039C32.9883 12.571 33.1289 13.0027 33.1289 13.4988C33.1289 13.8894 33.0371 14.2703 32.8535 14.6414C32.6738 15.0085 32.4258 15.3035 32.1094 15.5261C31.7969 15.7449 31.4102 15.8796 30.9492 15.9304C30.6602 15.9617 29.9629 15.9812 28.8574 15.989H25.9336V7.39917ZM27.668 8.82886V10.8152H28.8047C29.4805 10.8152 29.9004 10.8054 30.0645 10.7859C30.3613 10.7507 30.5938 10.6492 30.7617 10.4812C30.9336 10.3093 31.0195 10.0847 31.0195 9.80737C31.0195 9.54175 30.9453 9.3269 30.7969 9.16284C30.6523 8.99487 30.4355 8.89331 30.1465 8.85815C29.9746 8.83862 29.4805 8.82886 28.6641 8.82886H27.668ZM27.668 12.2449V14.5417H29.2734C29.8984 14.5417 30.2949 14.5242 30.4629 14.489C30.7207 14.4421 30.9297 14.3289 31.0898 14.1492C31.2539 13.9656 31.3359 13.7214 31.3359 13.4167C31.3359 13.1589 31.2734 12.9402 31.1484 12.7605C31.0234 12.5808 30.8418 12.45 30.6035 12.3679C30.3691 12.2859 29.8574 12.2449 29.0684 12.2449H27.668ZM34.5996 15.989V7.39917H37.3828C38.4375 7.39917 39.125 7.44214 39.4453 7.52808C39.9375 7.65698 40.3496 7.93823 40.6816 8.37183C41.0137 8.80151 41.1797 9.35815 41.1797 10.0417C41.1797 10.5691 41.084 11.0125 40.8926 11.3718C40.7012 11.7312 40.457 12.0144 40.1602 12.2214C39.8672 12.4246 39.5684 12.5593 39.2637 12.6257C38.8496 12.7078 38.25 12.7488 37.4648 12.7488H36.334V15.989H34.5996ZM36.334 8.85229V11.2898H37.2832C37.9668 11.2898 38.4238 11.2449 38.6543 11.155C38.8848 11.0652 39.0645 10.9246 39.1934 10.7332C39.3262 10.5417 39.3926 10.3191 39.3926 10.0652C39.3926 9.75269 39.3008 9.49487 39.1172 9.29175C38.9336 9.08862 38.7012 8.96167 38.4199 8.91089C38.2129 8.87183 37.7969 8.85229 37.1719 8.85229H36.334Z" fill="white"/>
<defs>
<linearGradient id="paint0_linear_64_1914" x1="25.5" y1="1.98901" x2="25.5" y2="21.989" gradientUnits="userSpaceOnUse">
<stop stop-color="#9627A1"/>
<stop offset="1" stop-color="#75FF64"/>
</linearGradient>
</defs>
</svg>
