<svg width="50" height="24" viewBox="0 0 50 24" fill="none" xmlns="http://www.w3.org/2000/svg">
<rect x="2" y="1.98901" width="47" height="20" rx="10" fill="url(#paint0_linear_45_4217)"/>
<rect x="2" y="1.98901" width="47" height="20" rx="10" stroke="#DAF899" stroke-width="3" stroke-linejoin="round"/>
<path d="M14.0215 12.8308V11.3835H17.7598V14.8054C17.3965 15.157 16.8691 15.4675 16.1777 15.7371C15.4902 16.0027 14.793 16.1355 14.0859 16.1355C13.1875 16.1355 12.4043 15.948 11.7363 15.573C11.0684 15.1941 10.5664 14.655 10.2305 13.9558C9.89453 13.2527 9.72656 12.489 9.72656 11.6648C9.72656 10.7703 9.91406 9.97534 10.2891 9.28003C10.6641 8.58472 11.2129 8.05151 11.9355 7.68042C12.4863 7.39526 13.1719 7.25269 13.9922 7.25269C15.0586 7.25269 15.8906 7.47729 16.4883 7.92651C17.0898 8.37183 17.4766 8.98901 17.6484 9.77808L15.9258 10.1003C15.8047 9.67847 15.5762 9.34644 15.2402 9.10425C14.9082 8.85815 14.4922 8.73511 13.9922 8.73511C13.2344 8.73511 12.6309 8.97534 12.1816 9.45581C11.7363 9.93628 11.5137 10.6492 11.5137 11.5945C11.5137 12.614 11.7402 13.3796 12.1934 13.8914C12.6465 14.3992 13.2402 14.6531 13.9746 14.6531C14.3379 14.6531 14.7012 14.5828 15.0645 14.4421C15.4316 14.2976 15.7461 14.1238 16.0078 13.9207V12.8308H14.0215ZM19.3711 7.39917H22.8047C23.4844 7.39917 23.9902 7.42847 24.3223 7.48706C24.6582 7.54175 24.957 7.65894 25.2188 7.83862C25.4844 8.01831 25.7051 8.25854 25.8809 8.55933C26.0566 8.8562 26.1445 9.19019 26.1445 9.56128C26.1445 9.96362 26.0352 10.3328 25.8164 10.6687C25.6016 11.0046 25.3086 11.2566 24.9375 11.4246C25.4609 11.5769 25.8633 11.8367 26.1445 12.2039C26.4258 12.571 26.5664 13.0027 26.5664 13.4988C26.5664 13.8894 26.4746 14.2703 26.291 14.6414C26.1113 15.0085 25.8633 15.3035 25.5469 15.5261C25.2344 15.7449 24.8477 15.8796 24.3867 15.9304C24.0977 15.9617 23.4004 15.9812 22.2949 15.989H19.3711V7.39917ZM21.1055 8.82886V10.8152H22.2422C22.918 10.8152 23.3379 10.8054 23.502 10.7859C23.7988 10.7507 24.0312 10.6492 24.1992 10.4812C24.3711 10.3093 24.457 10.0847 24.457 9.80737C24.457 9.54175 24.3828 9.3269 24.2344 9.16284C24.0898 8.99487 23.873 8.89331 23.584 8.85815C23.4121 8.83862 22.918 8.82886 22.1016 8.82886H21.1055ZM21.1055 12.2449V14.5417H22.7109C23.3359 14.5417 23.7324 14.5242 23.9004 14.489C24.1582 14.4421 24.3672 14.3289 24.5273 14.1492C24.6914 13.9656 24.7734 13.7214 24.7734 13.4167C24.7734 13.1589 24.7109 12.9402 24.5859 12.7605C24.4609 12.5808 24.2793 12.45 24.041 12.3679C23.8066 12.2859 23.2949 12.2449 22.5059 12.2449H21.1055ZM28.0371 15.989V7.39917H34.4062V8.85229H29.7715V10.7566H34.084V12.2039H29.7715V14.5417H34.5703V15.989H28.0371ZM39.8906 15.989H38.2441V9.78394C37.6426 10.3464 36.9336 10.7625 36.1172 11.032V9.53784C36.5469 9.39722 37.0137 9.13159 37.5176 8.74097C38.0215 8.34644 38.3672 7.88745 38.5547 7.36401H39.8906V15.989Z" fill="white"/>
<defs>
<linearGradient id="paint0_linear_45_4217" x1="25.5" y1="1.98901" x2="25.5" y2="21.989" gradientUnits="userSpaceOnUse">
<stop stop-color="#DAF899"/>
<stop offset="1" stop-color="#008348"/>
</linearGradient>
</defs>
</svg>
