<svg width="50" height="24" viewBox="0 0 50 24" fill="none" xmlns="http://www.w3.org/2000/svg">
<rect x="2" y="1.98901" width="47" height="20" rx="10" fill="url(#paint0_linear_42_2714)"/>
<rect x="2" y="1.98901" width="47" height="20" rx="10" stroke="#C78E14" stroke-width="3" stroke-linejoin="round"/>
<path d="M10.043 15.989V7.39917H15.9316V8.85229H11.7773V10.8855H15.3633V12.3386H11.7773V15.989H10.043ZM16.9277 13.1941L18.6152 13.03C18.7168 13.5964 18.9219 14.0125 19.2305 14.2781C19.543 14.5437 19.9629 14.6765 20.4902 14.6765C21.0488 14.6765 21.4688 14.5593 21.75 14.325C22.0352 14.0867 22.1777 13.8093 22.1777 13.4929C22.1777 13.2898 22.1172 13.1179 21.9961 12.9773C21.8789 12.8328 21.6719 12.7078 21.375 12.6023C21.1719 12.532 20.709 12.407 19.9863 12.2273C19.0566 11.9968 18.4043 11.7136 18.0293 11.3777C17.502 10.905 17.2383 10.3289 17.2383 9.64917C17.2383 9.21167 17.3613 8.80347 17.6074 8.42456C17.8574 8.04175 18.2148 7.75073 18.6797 7.55151C19.1484 7.35229 19.7129 7.25269 20.373 7.25269C21.4512 7.25269 22.2617 7.48901 22.8047 7.96167C23.3516 8.43433 23.6387 9.06519 23.666 9.85425L21.9316 9.93042C21.8574 9.48901 21.6973 9.17261 21.4512 8.9812C21.209 8.78589 20.8438 8.68823 20.3555 8.68823C19.8516 8.68823 19.457 8.79175 19.1719 8.99878C18.9883 9.13159 18.8965 9.30933 18.8965 9.53198C18.8965 9.73511 18.9824 9.90894 19.1543 10.0535C19.373 10.2371 19.9043 10.4285 20.748 10.6277C21.5918 10.8269 22.2148 11.0339 22.6172 11.2488C23.0234 11.4597 23.3398 11.7507 23.5664 12.1218C23.7969 12.489 23.9121 12.9441 23.9121 13.4871C23.9121 13.9792 23.7754 14.4402 23.502 14.8699C23.2285 15.2996 22.8418 15.6199 22.3418 15.8308C21.8418 16.0378 21.2188 16.1414 20.4727 16.1414C19.3867 16.1414 18.5527 15.8914 17.9707 15.3914C17.3887 14.8875 17.041 14.155 16.9277 13.1941ZM25.377 15.989V7.39917H27.1113V10.78H30.5098V7.39917H32.2441V15.989H30.5098V12.2332H27.1113V15.989H25.377ZM34.0488 7.39917H37.4824C38.1621 7.39917 38.668 7.42847 39 7.48706C39.3359 7.54175 39.6348 7.65894 39.8965 7.83862C40.1621 8.01831 40.3828 8.25854 40.5586 8.55933C40.7344 8.8562 40.8223 9.19019 40.8223 9.56128C40.8223 9.96362 40.7129 10.3328 40.4941 10.6687C40.2793 11.0046 39.9863 11.2566 39.6152 11.4246C40.1387 11.5769 40.541 11.8367 40.8223 12.2039C41.1035 12.571 41.2441 13.0027 41.2441 13.4988C41.2441 13.8894 41.1523 14.2703 40.9688 14.6414C40.7891 15.0085 40.541 15.3035 40.2246 15.5261C39.9121 15.7449 39.5254 15.8796 39.0645 15.9304C38.7754 15.9617 38.0781 15.9812 36.9727 15.989H34.0488V7.39917ZM35.7832 8.82886V10.8152H36.9199C37.5957 10.8152 38.0156 10.8054 38.1797 10.7859C38.4766 10.7507 38.709 10.6492 38.877 10.4812C39.0488 10.3093 39.1348 10.0847 39.1348 9.80737C39.1348 9.54175 39.0605 9.3269 38.9121 9.16284C38.7676 8.99487 38.5508 8.89331 38.2617 8.85815C38.0898 8.83862 37.5957 8.82886 36.7793 8.82886H35.7832ZM35.7832 12.2449V14.5417H37.3887C38.0137 14.5417 38.4102 14.5242 38.5781 14.489C38.8359 14.4421 39.0449 14.3289 39.2051 14.1492C39.3691 13.9656 39.4512 13.7214 39.4512 13.4167C39.4512 13.1589 39.3887 12.9402 39.2637 12.7605C39.1387 12.5808 38.957 12.45 38.7188 12.3679C38.4844 12.2859 37.9727 12.2449 37.1836 12.2449H35.7832Z" fill="white"/>
<defs>
<linearGradient id="paint0_linear_42_2714" x1="25.5" y1="1.98901" x2="25.5" y2="21.989" gradientUnits="userSpaceOnUse">
<stop stop-color="#C78E14"/>
<stop offset="1" stop-color="#C7B795"/>
</linearGradient>
</defs>
</svg>
