<svg width="65" height="24" viewBox="0 0 65 24" fill="none" xmlns="http://www.w3.org/2000/svg">
<rect x="1" y="1.98901" width="63" height="20" rx="10" fill="url(#paint0_linear_52_1850)"/>
<rect x="1" y="1.98901" width="63" height="20" rx="10" stroke="#0053CC" stroke-width="3" stroke-linejoin="round"/>
<path d="M8.99805 15.989V7.39917H11.5938L13.1523 13.2585L14.6934 7.39917H17.2949V15.989H15.6836V9.22729L13.9785 15.989H12.3086L10.6094 9.22729V15.989H8.99805ZM26.7637 15.989H24.877L24.127 14.0378H20.6934L19.9844 15.989H18.1445L21.4902 7.39917H23.3242L26.7637 15.989ZM23.5703 12.5906L22.3867 9.40308L21.2266 12.5906H23.5703ZM27.6895 15.989V7.39917H30.4727C31.5273 7.39917 32.2148 7.44214 32.5352 7.52808C33.0273 7.65698 33.4395 7.93823 33.7715 8.37183C34.1035 8.80151 34.2695 9.35815 34.2695 10.0417C34.2695 10.5691 34.1738 11.0125 33.9824 11.3718C33.791 11.7312 33.5469 12.0144 33.25 12.2214C32.957 12.4246 32.6582 12.5593 32.3535 12.6257C31.9395 12.7078 31.3398 12.7488 30.5547 12.7488H29.4238V15.989H27.6895ZM29.4238 8.85229V11.2898H30.373C31.0566 11.2898 31.5137 11.2449 31.7441 11.155C31.9746 11.0652 32.1543 10.9246 32.2832 10.7332C32.416 10.5417 32.4824 10.3191 32.4824 10.0652C32.4824 9.75269 32.3906 9.49487 32.207 9.29175C32.0234 9.08862 31.791 8.96167 31.5098 8.91089C31.3027 8.87183 30.8867 8.85229 30.2617 8.85229H29.4238ZM35.2715 13.7097L36.8652 13.5164C36.916 13.9226 37.0527 14.2332 37.2754 14.448C37.498 14.6628 37.7676 14.7703 38.084 14.7703C38.4238 14.7703 38.709 14.6414 38.9395 14.3835C39.1738 14.1257 39.291 13.7781 39.291 13.3406C39.291 12.9265 39.1797 12.5984 38.957 12.3562C38.7344 12.114 38.4629 11.9929 38.1426 11.9929C37.9316 11.9929 37.6797 12.0339 37.3867 12.116L37.5684 10.7742C38.0137 10.7859 38.3535 10.6902 38.5879 10.4871C38.8223 10.28 38.9395 10.0066 38.9395 9.66675C38.9395 9.37769 38.8535 9.14722 38.6816 8.97534C38.5098 8.80347 38.2812 8.71753 37.9961 8.71753C37.7148 8.71753 37.4746 8.81519 37.2754 9.0105C37.0762 9.20581 36.9551 9.49097 36.9121 9.86597L35.3945 9.60815C35.5 9.08862 35.6582 8.67456 35.8691 8.36597C36.084 8.05347 36.3809 7.80933 36.7598 7.63354C37.1426 7.45386 37.5703 7.36401 38.043 7.36401C38.8516 7.36401 39.5 7.62183 39.9883 8.13745C40.3906 8.55933 40.5918 9.03589 40.5918 9.56714C40.5918 10.321 40.1797 10.9226 39.3555 11.3718C39.8477 11.4773 40.2402 11.7136 40.5332 12.0808C40.8301 12.448 40.9785 12.8914 40.9785 13.4109C40.9785 14.1648 40.7031 14.8074 40.1523 15.3386C39.6016 15.8699 38.916 16.1355 38.0957 16.1355C37.3184 16.1355 36.6738 15.9128 36.1621 15.4675C35.6504 15.0183 35.3535 14.4324 35.2715 13.7097ZM42.3965 15.989V7.39917H44.1309V11.2136L47.6348 7.39917H49.9668L46.7324 10.7449L50.1426 15.989H47.8984L45.5371 11.9578L44.1309 13.3933V15.989H42.3965ZM52.0938 11.3542C51.668 11.1746 51.3574 10.9285 51.1621 10.616C50.9707 10.2996 50.875 9.95386 50.875 9.57886C50.875 8.93823 51.0977 8.40894 51.543 7.99097C51.9922 7.573 52.6289 7.36401 53.4531 7.36401C54.2695 7.36401 54.9023 7.573 55.3516 7.99097C55.8047 8.40894 56.0312 8.93823 56.0312 9.57886C56.0312 9.97729 55.9277 10.3328 55.7207 10.6453C55.5137 10.9539 55.2227 11.1902 54.8477 11.3542C55.3242 11.5457 55.6855 11.825 55.9316 12.1921C56.1816 12.5593 56.3066 12.9832 56.3066 13.4636C56.3066 14.2566 56.0527 14.9011 55.5449 15.3972C55.041 15.8933 54.3691 16.1414 53.5293 16.1414C52.748 16.1414 52.0977 15.9363 51.5781 15.5261C50.9648 15.0417 50.6582 14.3777 50.6582 13.5339C50.6582 13.0691 50.7734 12.6433 51.0039 12.2566C51.2344 11.866 51.5977 11.5652 52.0938 11.3542ZM52.4336 9.69604C52.4336 10.0242 52.5254 10.28 52.709 10.4636C52.8965 10.6472 53.1445 10.739 53.4531 10.739C53.7656 10.739 54.0156 10.6472 54.2031 10.4636C54.3906 10.2761 54.4844 10.0183 54.4844 9.69019C54.4844 9.38159 54.3906 9.1355 54.2031 8.9519C54.0195 8.7644 53.7754 8.67065 53.4707 8.67065C53.1543 8.67065 52.9023 8.7644 52.7148 8.9519C52.5273 9.1394 52.4336 9.38745 52.4336 9.69604ZM52.2812 13.3757C52.2812 13.8289 52.3965 14.1824 52.627 14.4363C52.8613 14.6902 53.1523 14.8171 53.5 14.8171C53.8398 14.8171 54.1211 14.696 54.3438 14.4539C54.5664 14.2078 54.6777 13.8542 54.6777 13.3933C54.6777 12.991 54.5645 12.6687 54.3379 12.4265C54.1113 12.1804 53.8242 12.0574 53.4766 12.0574C53.0742 12.0574 52.7734 12.196 52.5742 12.4734C52.3789 12.7507 52.2812 13.0515 52.2812 13.3757Z" fill="white"/>
<defs>
<linearGradient id="paint0_linear_52_1850" x1="32.5" y1="1.98901" x2="32.5" y2="21.989" gradientUnits="userSpaceOnUse">
<stop stop-color="#FF8500"/>
<stop offset="1" stop-color="#0053CC"/>
</linearGradient>
</defs>
</svg>
