<svg width="42" height="23" viewBox="0 0 42 23" fill="none" xmlns="http://www.w3.org/2000/svg">
<path d="M1 2.98901C1 2.43673 1.44772 1.98901 2 1.98901H31C36.5228 1.98901 41 6.46617 41 11.989C41 17.5119 36.5228 21.989 31 21.989H2C1.44771 21.989 1 21.5413 1 20.989V2.98901Z" fill="url(#paint0_linear_85_2143)"/>
<path d="M1 2.98901C1 2.43673 1.44772 1.98901 2 1.98901H31C36.5228 1.98901 41 6.46617 41 11.989C41 17.5119 36.5228 21.989 31 21.989H2C1.44771 21.989 1 21.5413 1 20.989V2.98901Z" stroke="#3F58BC" stroke-width="2" stroke-linejoin="round"/>
<path d="M10.8984 15.989L8.39062 9.76636H10.1191L11.291 12.9421L11.6309 14.0027C11.7207 13.7332 11.7773 13.5554 11.8008 13.4695C11.8555 13.2937 11.9141 13.1179 11.9766 12.9421L13.1602 9.76636H14.8535L12.3809 15.989H10.8984ZM17.0977 15.989L15.0469 7.39917H16.8223L18.1172 13.2996L19.6875 7.39917H21.75L23.2559 13.3992L24.5742 7.39917H26.3203L24.2344 15.989H22.3945L20.6836 9.56714L18.9785 15.989H17.0977ZM27.2227 15.989V7.39917H33.1113V8.85229H28.957V10.8855H32.543V12.3386H28.957V15.989H27.2227Z" fill="white"/>
<defs>
<linearGradient id="paint0_linear_85_2143" x1="21" y1="1.98901" x2="21" y2="21.989" gradientUnits="userSpaceOnUse">
<stop stop-color="#3F58BC"/>
<stop offset="1" stop-color="#FF78FF"/>
</linearGradient>
</defs>
</svg>
