<svg width="41" height="24" viewBox="0 0 41 24" fill="none" xmlns="http://www.w3.org/2000/svg">
<rect x="2" y="1.98901" width="38" height="20" rx="10" fill="url(#paint0_linear_35_1433)"/>
<rect x="2" y="1.98901" width="38" height="20" rx="10" stroke="#53001F" stroke-width="3" stroke-linejoin="round"/>
<path d="M17.7246 15.989H15.8379L15.0879 14.0378H11.6543L10.9453 15.989H9.10547L12.4512 7.39917H14.2852L17.7246 15.989ZM14.5312 12.5906L13.3477 9.40308L12.1875 12.5906H14.5312ZM19.6934 15.989V8.85229H17.1445V7.39917H23.9707V8.85229H21.4277V15.989H19.6934ZM25.1016 15.989V7.39917H28.752C29.6699 7.39917 30.3359 7.47729 30.75 7.63354C31.168 7.78589 31.502 8.05933 31.752 8.45386C32.002 8.84839 32.127 9.29956 32.127 9.80737C32.127 10.4519 31.9375 10.9851 31.5586 11.407C31.1797 11.825 30.6133 12.0886 29.8594 12.198C30.2344 12.4167 30.543 12.657 30.7852 12.9187C31.0312 13.1804 31.3613 13.6453 31.7754 14.3132L32.8242 15.989H30.75L29.4961 14.1199C29.0508 13.4519 28.7461 13.032 28.582 12.8601C28.418 12.6843 28.2441 12.5652 28.0605 12.5027C27.877 12.4363 27.5859 12.4031 27.1875 12.4031H26.8359V15.989H25.1016ZM26.8359 11.032H28.1191C28.9512 11.032 29.4707 10.9968 29.6777 10.9265C29.8848 10.8562 30.0469 10.7351 30.1641 10.5632C30.2812 10.3914 30.3398 10.1765 30.3398 9.9187C30.3398 9.62964 30.2617 9.39722 30.1055 9.22144C29.9531 9.04175 29.7363 8.92847 29.4551 8.88159C29.3145 8.86206 28.8926 8.85229 28.1895 8.85229H26.8359V11.032Z" fill="white"/>
<defs>
<linearGradient id="paint0_linear_35_1433" x1="21" y1="1.98901" x2="21" y2="21.989" gradientUnits="userSpaceOnUse">
<stop stop-color="#53001F"/>
<stop offset="1" stop-color="#D4A752"/>
</linearGradient>
</defs>
</svg>
