<svg width="73" height="24" viewBox="0 0 73 24" fill="none" xmlns="http://www.w3.org/2000/svg">
<rect x="1" y="1.98901" width="71" height="20" rx="10" fill="url(#paint0_linear_46_4318)"/>
<rect x="1" y="1.98901" width="71" height="20" rx="10" stroke="#D761E9" stroke-width="3" stroke-linejoin="round"/>
<path d="M9.2832 15.989V7.39917H11.0176V15.989H9.2832ZM12.6816 15.989V7.39917H16.332C17.25 7.39917 17.916 7.47729 18.3301 7.63354C18.748 7.78589 19.082 8.05933 19.332 8.45386C19.582 8.84839 19.707 9.29956 19.707 9.80737C19.707 10.4519 19.5176 10.9851 19.1387 11.407C18.7598 11.825 18.1934 12.0886 17.4395 12.198C17.8145 12.4167 18.123 12.657 18.3652 12.9187C18.6113 13.1804 18.9414 13.6453 19.3555 14.3132L20.4043 15.989H18.3301L17.0762 14.1199C16.6309 13.4519 16.3262 13.032 16.1621 12.8601C15.998 12.6843 15.8242 12.5652 15.6406 12.5027C15.457 12.4363 15.166 12.4031 14.7676 12.4031H14.416V15.989H12.6816ZM14.416 11.032H15.6992C16.5312 11.032 17.0508 10.9968 17.2578 10.9265C17.4648 10.8562 17.627 10.7351 17.7441 10.5632C17.8613 10.3914 17.9199 10.1765 17.9199 9.9187C17.9199 9.62964 17.8418 9.39722 17.6855 9.22144C17.5332 9.04175 17.3164 8.92847 17.0352 8.88159C16.8945 8.86206 16.4727 8.85229 15.7695 8.85229H14.416V11.032ZM29.0938 15.989H27.207L26.457 14.0378H23.0234L22.3145 15.989H20.4746L23.8203 7.39917H25.6543L29.0938 15.989ZM25.9004 12.5906L24.7168 9.40308L23.5566 12.5906H25.9004ZM30.043 15.989V7.39917H31.7773V11.2136L35.2812 7.39917H37.6133L34.3789 10.7449L37.7891 15.989H35.5449L33.1836 11.9578L31.7773 13.3933V15.989H30.043ZM42.541 15.989H40.8945V9.78394C40.293 10.3464 39.584 10.7625 38.7676 11.032V9.53784C39.1973 9.39722 39.6641 9.13159 40.168 8.74097C40.6719 8.34644 41.0176 7.88745 41.2051 7.36401H42.541V15.989ZM45.3184 14.3425H46.9648V15.5203C46.9648 15.9968 46.9238 16.3718 46.8418 16.6453C46.7598 16.9226 46.6035 17.1707 46.373 17.3894C46.1465 17.6082 45.8574 17.78 45.5059 17.905L45.1836 17.2253C45.5156 17.116 45.752 16.9656 45.8926 16.7742C46.0332 16.5828 46.1074 16.321 46.1152 15.989H45.3184V14.3425ZM53.9082 14.4597V15.989H48.1367C48.1992 15.4109 48.3867 14.864 48.6992 14.3484C49.0117 13.8289 49.6289 13.1414 50.5508 12.2859C51.293 11.5945 51.748 11.1257 51.916 10.8796C52.1426 10.5398 52.2559 10.2039 52.2559 9.87183C52.2559 9.50464 52.1562 9.22339 51.957 9.02808C51.7617 8.82886 51.4902 8.72925 51.1426 8.72925C50.7988 8.72925 50.5254 8.83276 50.3223 9.03979C50.1191 9.24683 50.002 9.59058 49.9707 10.071L48.3301 9.90698C48.4277 9.00073 48.7344 8.35034 49.25 7.95581C49.7656 7.56128 50.4102 7.36401 51.1836 7.36401C52.0312 7.36401 52.6973 7.59253 53.1816 8.04956C53.666 8.50659 53.9082 9.07495 53.9082 9.75464C53.9082 10.1414 53.8379 10.5105 53.6973 10.8621C53.5605 11.2097 53.3418 11.575 53.041 11.9578C52.8418 12.2117 52.4824 12.5769 51.9629 13.0535C51.4434 13.53 51.1133 13.8464 50.9727 14.0027C50.8359 14.1589 50.7246 14.3113 50.6387 14.4597H53.9082ZM55.3379 14.3425H56.9844V15.5203C56.9844 15.9968 56.9434 16.3718 56.8613 16.6453C56.7793 16.9226 56.623 17.1707 56.3926 17.3894C56.166 17.6082 55.877 17.78 55.5254 17.905L55.2031 17.2253C55.5352 17.116 55.7715 16.9656 55.9121 16.7742C56.0527 16.5828 56.127 16.321 56.1348 15.989H55.3379V14.3425ZM61.5957 15.989V14.2605H58.0801V12.8191L61.8066 7.36401H63.1895V12.8132H64.2559V14.2605H63.1895V15.989H61.5957ZM61.5957 12.8132V9.87769L59.6211 12.8132H61.5957Z" fill="white"/>
<defs>
<linearGradient id="paint0_linear_46_4318" x1="36.5" y1="1.98901" x2="36.5" y2="21.989" gradientUnits="userSpaceOnUse">
<stop stop-color="#9E9B38"/>
<stop offset="1" stop-color="#D761E9"/>
</linearGradient>
</defs>
</svg>
