<svg width="49" height="24" viewBox="0 0 49 24" fill="none" xmlns="http://www.w3.org/2000/svg">
<rect x="2" y="1.98901" width="46" height="20" rx="10" fill="url(#paint0_linear_64_1962)"/>
<rect x="2" y="1.98901" width="46" height="20" rx="10" stroke="#6E4E95" stroke-width="3" stroke-linejoin="round"/>
<path d="M10.1934 15.989V7.39917H12.9766C14.0312 7.39917 14.7188 7.44214 15.0391 7.52808C15.5312 7.65698 15.9434 7.93823 16.2754 8.37183C16.6074 8.80151 16.7734 9.35815 16.7734 10.0417C16.7734 10.5691 16.6777 11.0125 16.4863 11.3718C16.2949 11.7312 16.0508 12.0144 15.7539 12.2214C15.4609 12.4246 15.1621 12.5593 14.8574 12.6257C14.4434 12.7078 13.8438 12.7488 13.0586 12.7488H11.9277V15.989H10.1934ZM11.9277 8.85229V11.2898H12.877C13.5605 11.2898 14.0176 11.2449 14.248 11.155C14.4785 11.0652 14.6582 10.9246 14.7871 10.7332C14.9199 10.5417 14.9863 10.3191 14.9863 10.0652C14.9863 9.75269 14.8945 9.49487 14.7109 9.29175C14.5273 9.08862 14.2949 8.96167 14.0137 8.91089C13.8066 8.87183 13.3906 8.85229 12.7656 8.85229H11.9277ZM18.1973 15.989V7.39917H24.5664V8.85229H19.9316V10.7566H24.2441V12.2039H19.9316V14.5417H24.7305V15.989H18.1973ZM26.207 15.989V7.39917H29.8574C30.7754 7.39917 31.4414 7.47729 31.8555 7.63354C32.2734 7.78589 32.6074 8.05933 32.8574 8.45386C33.1074 8.84839 33.2324 9.29956 33.2324 9.80737C33.2324 10.4519 33.043 10.9851 32.6641 11.407C32.2852 11.825 31.7188 12.0886 30.9648 12.198C31.3398 12.4167 31.6484 12.657 31.8906 12.9187C32.1367 13.1804 32.4668 13.6453 32.8809 14.3132L33.9297 15.989H31.8555L30.6016 14.1199C30.1562 13.4519 29.8516 13.032 29.6875 12.8601C29.5234 12.6843 29.3496 12.5652 29.166 12.5027C28.9824 12.4363 28.6914 12.4031 28.293 12.4031H27.9414V15.989H26.207ZM27.9414 11.032H29.2246C30.0566 11.032 30.5762 10.9968 30.7832 10.9265C30.9902 10.8562 31.1523 10.7351 31.2695 10.5632C31.3867 10.3914 31.4453 10.1765 31.4453 9.9187C31.4453 9.62964 31.3672 9.39722 31.2109 9.22144C31.0586 9.04175 30.8418 8.92847 30.5605 8.88159C30.4199 8.86206 29.998 8.85229 29.2949 8.85229H27.9414V11.032ZM34.4512 13.7097L36.0449 13.5164C36.0957 13.9226 36.2324 14.2332 36.4551 14.448C36.6777 14.6628 36.9473 14.7703 37.2637 14.7703C37.6035 14.7703 37.8887 14.6414 38.1191 14.3835C38.3535 14.1257 38.4707 13.7781 38.4707 13.3406C38.4707 12.9265 38.3594 12.5984 38.1367 12.3562C37.9141 12.114 37.6426 11.9929 37.3223 11.9929C37.1113 11.9929 36.8594 12.0339 36.5664 12.116L36.748 10.7742C37.1934 10.7859 37.5332 10.6902 37.7676 10.4871C38.002 10.28 38.1191 10.0066 38.1191 9.66675C38.1191 9.37769 38.0332 9.14722 37.8613 8.97534C37.6895 8.80347 37.4609 8.71753 37.1758 8.71753C36.8945 8.71753 36.6543 8.81519 36.4551 9.0105C36.2559 9.20581 36.1348 9.49097 36.0918 9.86597L34.5742 9.60815C34.6797 9.08862 34.8379 8.67456 35.0488 8.36597C35.2637 8.05347 35.5605 7.80933 35.9395 7.63354C36.3223 7.45386 36.75 7.36401 37.2227 7.36401C38.0312 7.36401 38.6797 7.62183 39.168 8.13745C39.5703 8.55933 39.7715 9.03589 39.7715 9.56714C39.7715 10.321 39.3594 10.9226 38.5352 11.3718C39.0273 11.4773 39.4199 11.7136 39.7129 12.0808C40.0098 12.448 40.1582 12.8914 40.1582 13.4109C40.1582 14.1648 39.8828 14.8074 39.332 15.3386C38.7812 15.8699 38.0957 16.1355 37.2754 16.1355C36.498 16.1355 35.8535 15.9128 35.3418 15.4675C34.8301 15.0183 34.5332 14.4324 34.4512 13.7097Z" fill="white"/>
<defs>
<linearGradient id="paint0_linear_64_1962" x1="25" y1="1.98901" x2="25" y2="21.989" gradientUnits="userSpaceOnUse">
<stop stop-color="#2FD4CD"/>
<stop offset="1" stop-color="#6E4E95"/>
</linearGradient>
</defs>
</svg>
