<svg width="50" height="24" viewBox="0 0 50 24" fill="none" xmlns="http://www.w3.org/2000/svg">
<rect x="2" y="1.98901" width="47" height="20" rx="10" fill="url(#paint0_linear_85_2078)"/>
<rect x="2" y="1.98901" width="47" height="20" rx="10" stroke="#AD062F" stroke-width="3" stroke-linejoin="round"/>
<path d="M9.48633 15.989L12.4219 11.5066L9.76172 7.39917H11.7891L13.5117 10.1589L15.1992 7.39917H17.209L14.5371 11.571L17.4727 15.989H15.3809L13.4766 13.0183L11.5664 15.989H9.48633ZM18.3691 15.989V7.39917H22.0195C22.9375 7.39917 23.6035 7.47729 24.0176 7.63354C24.4355 7.78589 24.7695 8.05933 25.0195 8.45386C25.2695 8.84839 25.3945 9.29956 25.3945 9.80737C25.3945 10.4519 25.2051 10.9851 24.8262 11.407C24.4473 11.825 23.8809 12.0886 23.127 12.198C23.502 12.4167 23.8105 12.657 24.0527 12.9187C24.2988 13.1804 24.6289 13.6453 25.043 14.3132L26.0918 15.989H24.0176L22.7637 14.1199C22.3184 13.4519 22.0137 13.032 21.8496 12.8601C21.6855 12.6843 21.5117 12.5652 21.3281 12.5027C21.1445 12.4363 20.8535 12.4031 20.4551 12.4031H20.1035V15.989H18.3691ZM20.1035 11.032H21.3867C22.2188 11.032 22.7383 10.9968 22.9453 10.9265C23.1523 10.8562 23.3145 10.7351 23.4316 10.5632C23.5488 10.3914 23.6074 10.1765 23.6074 9.9187C23.6074 9.62964 23.5293 9.39722 23.373 9.22144C23.2207 9.04175 23.0039 8.92847 22.7227 8.88159C22.582 8.86206 22.1602 8.85229 21.457 8.85229H20.1035V11.032ZM27.0527 15.989V7.39917H28.7402L32.2559 13.1355V7.39917H33.8672V15.989H32.127L28.6641 10.3875V15.989H27.0527ZM39.5566 15.989H37.9102V9.78394C37.3086 10.3464 36.5996 10.7625 35.7832 11.032V9.53784C36.2129 9.39722 36.6797 9.13159 37.1836 8.74097C37.6875 8.34644 38.0332 7.88745 38.2207 7.36401H39.5566V15.989Z" fill="white"/>
<defs>
<linearGradient id="paint0_linear_85_2078" x1="25.5" y1="1.98901" x2="25.5" y2="21.989" gradientUnits="userSpaceOnUse">
<stop stop-color="#005981"/>
<stop offset="1" stop-color="#AD062F"/>
</linearGradient>
</defs>
</svg>
