<svg width="66" height="36" viewBox="0 0 66 36" fill="none" xmlns="http://www.w3.org/2000/svg">
<rect x="2" y="1.98901" width="63" height="32" rx="10" fill="url(#paint0_linear_46_4326)"/>
<rect x="2" y="1.98901" width="63" height="32" rx="10" stroke="#9CBA00" stroke-width="3" stroke-linejoin="round"/>
<path d="M16.9648 14.989V6.39917H18.6992V14.989H16.9648ZM20.375 14.989V6.39917H22.0625L25.5781 12.1355V6.39917H27.1895V14.989H25.4492L21.9863 9.38745V14.989H20.375ZM28.6777 10.7468C28.6777 9.87183 28.8086 9.13745 29.0703 8.5437C29.2656 8.1062 29.5312 7.71362 29.8672 7.36597C30.207 7.01831 30.5781 6.7605 30.9805 6.59253C31.5156 6.36597 32.1328 6.25269 32.832 6.25269C34.0977 6.25269 35.1094 6.64526 35.8672 7.43042C36.6289 8.21558 37.0098 9.30737 37.0098 10.7058C37.0098 12.0925 36.6328 13.1785 35.8789 13.9636C35.125 14.7449 34.1172 15.1355 32.8555 15.1355C31.5781 15.1355 30.5625 14.7468 29.8086 13.9695C29.0547 13.1882 28.6777 12.114 28.6777 10.7468ZM30.4648 10.6882C30.4648 11.6609 30.6895 12.3992 31.1387 12.9031C31.5879 13.4031 32.1582 13.6531 32.8496 13.6531C33.541 13.6531 34.1074 13.405 34.5488 12.9089C34.9941 12.4089 35.2168 11.6609 35.2168 10.6648C35.2168 9.68042 35 8.94604 34.5664 8.46167C34.1367 7.97729 33.5645 7.73511 32.8496 7.73511C32.1348 7.73511 31.5586 7.9812 31.1211 8.47339C30.6836 8.96167 30.4648 9.69995 30.4648 10.6882ZM39.418 10.3542C38.9922 10.1746 38.6816 9.92847 38.4863 9.61597C38.2949 9.29956 38.1992 8.95386 38.1992 8.57886C38.1992 7.93823 38.4219 7.40894 38.8672 6.99097C39.3164 6.573 39.9531 6.36401 40.7773 6.36401C41.5938 6.36401 42.2266 6.573 42.6758 6.99097C43.1289 7.40894 43.3555 7.93823 43.3555 8.57886C43.3555 8.97729 43.252 9.33276 43.0449 9.64526C42.8379 9.95386 42.5469 10.1902 42.1719 10.3542C42.6484 10.5457 43.0098 10.825 43.2559 11.1921C43.5059 11.5593 43.6309 11.9832 43.6309 12.4636C43.6309 13.2566 43.377 13.9011 42.8691 14.3972C42.3652 14.8933 41.6934 15.1414 40.8535 15.1414C40.0723 15.1414 39.4219 14.9363 38.9023 14.5261C38.2891 14.0417 37.9824 13.3777 37.9824 12.5339C37.9824 12.0691 38.0977 11.6433 38.3281 11.2566C38.5586 10.866 38.9219 10.5652 39.418 10.3542ZM39.7578 8.69604C39.7578 9.02417 39.8496 9.28003 40.0332 9.46362C40.2207 9.64722 40.4688 9.73901 40.7773 9.73901C41.0898 9.73901 41.3398 9.64722 41.5273 9.46362C41.7148 9.27612 41.8086 9.01831 41.8086 8.69019C41.8086 8.38159 41.7148 8.1355 41.5273 7.9519C41.3438 7.7644 41.0996 7.67065 40.7949 7.67065C40.4785 7.67065 40.2266 7.7644 40.0391 7.9519C39.8516 8.1394 39.7578 8.38745 39.7578 8.69604ZM39.6055 12.3757C39.6055 12.8289 39.7207 13.1824 39.9512 13.4363C40.1855 13.6902 40.4766 13.8171 40.8242 13.8171C41.1641 13.8171 41.4453 13.696 41.668 13.4539C41.8906 13.2078 42.002 12.8542 42.002 12.3933C42.002 11.991 41.8887 11.6687 41.6621 11.4265C41.4355 11.1804 41.1484 11.0574 40.8008 11.0574C40.3984 11.0574 40.0977 11.196 39.8984 11.4734C39.7031 11.7507 39.6055 12.0515 39.6055 12.3757ZM47.4688 6.36401C48.3008 6.36401 48.9512 6.66089 49.4199 7.25464C49.9785 7.95776 50.2578 9.12378 50.2578 10.7527C50.2578 12.3777 49.9766 13.5457 49.4141 14.2566C48.9492 14.8425 48.3008 15.1355 47.4688 15.1355C46.6328 15.1355 45.959 14.8152 45.4473 14.1746C44.9355 13.53 44.6797 12.3835 44.6797 10.7351C44.6797 9.11792 44.9609 7.95386 45.5234 7.24292C45.9883 6.65698 46.6367 6.36401 47.4688 6.36401ZM47.4688 7.72925C47.2695 7.72925 47.0918 7.7937 46.9355 7.92261C46.7793 8.04761 46.6582 8.27417 46.5723 8.60229C46.459 9.02808 46.4023 9.74487 46.4023 10.7527C46.4023 11.7605 46.4531 12.4539 46.5547 12.8328C46.6562 13.2078 46.7832 13.4578 46.9355 13.5828C47.0918 13.7078 47.2695 13.7703 47.4688 13.7703C47.668 13.7703 47.8457 13.7078 48.002 13.5828C48.1582 13.4539 48.2793 13.2253 48.3652 12.8972C48.4785 12.4753 48.5352 11.7605 48.5352 10.7527C48.5352 9.74487 48.4844 9.05347 48.3828 8.67847C48.2812 8.29956 48.1523 8.04761 47.9961 7.92261C47.8438 7.7937 47.668 7.72925 47.4688 7.72925ZM15.4238 24.6062L13.8008 24.8992C13.7461 24.575 13.6211 24.3308 13.4258 24.1667C13.2344 24.0027 12.9844 23.9207 12.6758 23.9207C12.2656 23.9207 11.9375 24.0632 11.6914 24.3484C11.4492 24.6296 11.3281 25.1023 11.3281 25.7664C11.3281 26.5046 11.4512 27.0261 11.6973 27.3308C11.9473 27.6355 12.2812 27.7878 12.6992 27.7878C13.0117 27.7878 13.2676 27.7 13.4668 27.5242C13.666 27.3445 13.8066 27.0378 13.8887 26.6042L15.5059 26.8796C15.3379 27.6218 15.0156 28.1824 14.5391 28.5613C14.0625 28.9402 13.4238 29.1296 12.623 29.1296C11.7129 29.1296 10.9863 28.8425 10.4434 28.2683C9.9043 27.6941 9.63477 26.8992 9.63477 25.8835C9.63477 24.8562 9.90625 24.0574 10.4492 23.4871C10.9922 22.9128 11.7266 22.6257 12.6523 22.6257C13.4102 22.6257 14.0117 22.7898 14.457 23.1179C14.9062 23.4421 15.2285 23.9382 15.4238 24.6062ZM16.2969 25.7898C16.2969 25.2429 16.4316 24.7136 16.7012 24.2019C16.9707 23.6902 17.3516 23.2996 17.8438 23.03C18.3398 22.7605 18.8926 22.6257 19.502 22.6257C20.4434 22.6257 21.2148 22.9324 21.8164 23.5457C22.418 24.155 22.7188 24.9265 22.7188 25.8601C22.7188 26.8015 22.4141 27.5828 21.8047 28.2039C21.1992 28.821 20.4355 29.1296 19.5137 29.1296C18.9434 29.1296 18.3984 29.0007 17.8789 28.7429C17.3633 28.4851 16.9707 28.1082 16.7012 27.6121C16.4316 27.1121 16.2969 26.5046 16.2969 25.7898ZM17.9844 25.8777C17.9844 26.4949 18.1309 26.9675 18.4238 27.2957C18.7168 27.6238 19.0781 27.7878 19.5078 27.7878C19.9375 27.7878 20.2969 27.6238 20.5859 27.2957C20.8789 26.9675 21.0254 26.491 21.0254 25.866C21.0254 25.2566 20.8789 24.7878 20.5859 24.4597C20.2969 24.1316 19.9375 23.9675 19.5078 23.9675C19.0781 23.9675 18.7168 24.1316 18.4238 24.4597C18.1309 24.7878 17.9844 25.2605 17.9844 25.8777ZM23.8906 22.7664H25.4082V23.616C25.9512 22.9558 26.5977 22.6257 27.3477 22.6257C27.7461 22.6257 28.0918 22.7078 28.3848 22.8718C28.6777 23.0359 28.918 23.2839 29.1055 23.616C29.3789 23.2839 29.6738 23.0359 29.9902 22.8718C30.3066 22.7078 30.6445 22.6257 31.0039 22.6257C31.4609 22.6257 31.8477 22.7195 32.1641 22.907C32.4805 23.0906 32.7168 23.3621 32.873 23.7214C32.9863 23.9871 33.043 24.4167 33.043 25.0105V28.989H31.3965V25.4324C31.3965 24.8152 31.3398 24.4167 31.2266 24.2371C31.0742 24.0027 30.8398 23.8855 30.5234 23.8855C30.293 23.8855 30.0762 23.9558 29.873 24.0964C29.6699 24.2371 29.5234 24.4441 29.4336 24.7175C29.3438 24.9871 29.2988 25.4148 29.2988 26.0007V28.989H27.6523V25.5789C27.6523 24.9734 27.623 24.5828 27.5645 24.407C27.5059 24.2312 27.4141 24.1003 27.2891 24.0144C27.168 23.9285 27.002 23.8855 26.791 23.8855C26.5371 23.8855 26.3086 23.9539 26.1055 24.0906C25.9023 24.2273 25.7559 24.4246 25.666 24.6824C25.5801 24.9402 25.5371 25.3679 25.5371 25.9656V28.989H23.8906V22.7664ZM34.6426 22.7664H36.1777V23.6804C36.377 23.3679 36.6465 23.114 36.9863 22.9187C37.3262 22.7234 37.7031 22.6257 38.1172 22.6257C38.8398 22.6257 39.4531 22.9089 39.957 23.4753C40.4609 24.0417 40.7129 24.8308 40.7129 25.8425C40.7129 26.8816 40.459 27.6902 39.9512 28.2683C39.4434 28.8425 38.8281 29.1296 38.1055 29.1296C37.7617 29.1296 37.4492 29.0613 37.168 28.9246C36.8906 28.7878 36.5977 28.5535 36.2891 28.2214V31.3562H34.6426V22.7664ZM36.2715 25.7722C36.2715 26.4714 36.4102 26.989 36.6875 27.325C36.9648 27.657 37.3027 27.823 37.7012 27.823C38.084 27.823 38.4023 27.6707 38.6562 27.366C38.9102 27.0574 39.0371 26.5535 39.0371 25.8542C39.0371 25.2019 38.9062 24.7175 38.6445 24.4011C38.3828 24.0847 38.0586 23.9265 37.6719 23.9265C37.2695 23.9265 36.9355 24.0828 36.6699 24.3953C36.4043 24.7039 36.2715 25.1628 36.2715 25.7722ZM42.0254 28.989V20.3992H43.6719V28.989H42.0254ZM48.9688 27.0085L50.6094 27.2839C50.3984 27.8855 50.0645 28.3445 49.6074 28.6609C49.1543 28.9734 48.5859 29.1296 47.9023 29.1296C46.8203 29.1296 46.0195 28.7761 45.5 28.0691C45.0898 27.5027 44.8848 26.7878 44.8848 25.9246C44.8848 24.8933 45.1543 24.0867 45.6934 23.5046C46.2324 22.9187 46.9141 22.6257 47.7383 22.6257C48.6641 22.6257 49.3945 22.9324 49.9297 23.5457C50.4648 24.155 50.7207 25.0906 50.6973 26.3523H46.5723C46.584 26.8406 46.7168 27.2214 46.9707 27.4949C47.2246 27.7644 47.541 27.8992 47.9199 27.8992C48.1777 27.8992 48.3945 27.8289 48.5703 27.6882C48.7461 27.5476 48.8789 27.321 48.9688 27.0085ZM49.0625 25.3445C49.0508 24.8679 48.9277 24.5066 48.6934 24.2605C48.459 24.0105 48.1738 23.8855 47.8379 23.8855C47.4785 23.8855 47.1816 24.0164 46.9473 24.2781C46.7129 24.5398 46.5977 24.8953 46.6016 25.3445H49.0625ZM51.2539 28.989L53.498 25.7839L51.3477 22.7664H53.3574L54.459 24.4773L55.6191 22.7664H57.5527L55.4434 25.7136L57.7461 28.989H55.7246L54.459 27.0613L53.1816 28.989H51.2539Z" fill="white"/>
<defs>
<linearGradient id="paint0_linear_46_4326" x1="33.5" y1="1.98901" x2="33.5" y2="33.989" gradientUnits="userSpaceOnUse">
<stop stop-color="#B7E400"/>
<stop offset="1" stop-color="#9CBA00"/>
</linearGradient>
</defs>
</svg>
