<svg width="49" height="24" viewBox="0 0 49 24" fill="none" xmlns="http://www.w3.org/2000/svg">
<rect x="2" y="1.98901" width="46" height="20" rx="10" fill="url(#paint0_linear_67_1883)"/>
<rect x="2" y="1.98901" width="46" height="20" rx="10" stroke="#E07236" stroke-width="3" stroke-linejoin="round"/>
<path d="M9.75391 13.1941L11.4414 13.03C11.543 13.5964 11.748 14.0125 12.0566 14.2781C12.3691 14.5437 12.7891 14.6765 13.3164 14.6765C13.875 14.6765 14.2949 14.5593 14.5762 14.325C14.8613 14.0867 15.0039 13.8093 15.0039 13.4929C15.0039 13.2898 14.9434 13.1179 14.8223 12.9773C14.7051 12.8328 14.498 12.7078 14.2012 12.6023C13.998 12.532 13.5352 12.407 12.8125 12.2273C11.8828 11.9968 11.2305 11.7136 10.8555 11.3777C10.3281 10.905 10.0645 10.3289 10.0645 9.64917C10.0645 9.21167 10.1875 8.80347 10.4336 8.42456C10.6836 8.04175 11.041 7.75073 11.5059 7.55151C11.9746 7.35229 12.5391 7.25269 13.1992 7.25269C14.2773 7.25269 15.0879 7.48901 15.6309 7.96167C16.1777 8.43433 16.4648 9.06519 16.4922 9.85425L14.7578 9.93042C14.6836 9.48901 14.5234 9.17261 14.2773 8.9812C14.0352 8.78589 13.6699 8.68823 13.1816 8.68823C12.6777 8.68823 12.2832 8.79175 11.998 8.99878C11.8145 9.13159 11.7227 9.30933 11.7227 9.53198C11.7227 9.73511 11.8086 9.90894 11.9805 10.0535C12.1992 10.2371 12.7305 10.4285 13.5742 10.6277C14.418 10.8269 15.041 11.0339 15.4434 11.2488C15.8496 11.4597 16.166 11.7507 16.3926 12.1218C16.623 12.489 16.7383 12.9441 16.7383 13.4871C16.7383 13.9792 16.6016 14.4402 16.3281 14.8699C16.0547 15.2996 15.668 15.6199 15.168 15.8308C14.668 16.0378 14.0449 16.1414 13.2988 16.1414C12.2129 16.1414 11.3789 15.8914 10.7969 15.3914C10.2148 14.8875 9.86719 14.155 9.75391 13.1941ZM25.9434 15.989H24.0566L23.3066 14.0378H19.873L19.1641 15.989H17.3242L20.6699 7.39917H22.5039L25.9434 15.989ZM22.75 12.5906L21.5664 9.40308L20.4062 12.5906H22.75ZM26.8691 15.989V7.39917H33.2383V8.85229H28.6035V10.7566H32.916V12.2039H28.6035V14.5417H33.4023V15.989H26.8691ZM38.7227 15.989H37.0762V9.78394C36.4746 10.3464 35.7656 10.7625 34.9492 11.032V9.53784C35.3789 9.39722 35.8457 9.13159 36.3496 8.74097C36.8535 8.34644 37.1992 7.88745 37.3867 7.36401H38.7227V15.989Z" fill="white"/>
<defs>
<linearGradient id="paint0_linear_67_1883" x1="25" y1="1.98901" x2="25" y2="21.989" gradientUnits="userSpaceOnUse">
<stop stop-color="#E07236"/>
<stop offset="1" stop-color="#8500CD"/>
</linearGradient>
</defs>
</svg>
