<svg width="51" height="24" viewBox="0 0 51 24" fill="none" xmlns="http://www.w3.org/2000/svg">
<rect x="2" y="1.98901" width="48" height="20" rx="10" fill="url(#paint0_linear_67_1897)"/>
<rect x="2" y="1.98901" width="48" height="20" rx="10" stroke="#946BCE" stroke-width="3" stroke-linejoin="round"/>
<path d="M10.2031 15.989V7.39917H13.8535C14.7715 7.39917 15.4375 7.47729 15.8516 7.63354C16.2695 7.78589 16.6035 8.05933 16.8535 8.45386C17.1035 8.84839 17.2285 9.29956 17.2285 9.80737C17.2285 10.4519 17.0391 10.9851 16.6602 11.407C16.2812 11.825 15.7148 12.0886 14.9609 12.198C15.3359 12.4167 15.6445 12.657 15.8867 12.9187C16.1328 13.1804 16.4629 13.6453 16.877 14.3132L17.9258 15.989H15.8516L14.5977 14.1199C14.1523 13.4519 13.8477 13.032 13.6836 12.8601C13.5195 12.6843 13.3457 12.5652 13.1621 12.5027C12.9785 12.4363 12.6875 12.4031 12.2891 12.4031H11.9375V15.989H10.2031ZM11.9375 11.032H13.2207C14.0527 11.032 14.5723 10.9968 14.7793 10.9265C14.9863 10.8562 15.1484 10.7351 15.2656 10.5632C15.3828 10.3914 15.4414 10.1765 15.4414 9.9187C15.4414 9.62964 15.3633 9.39722 15.207 9.22144C15.0547 9.04175 14.8379 8.92847 14.5566 8.88159C14.416 8.86206 13.9941 8.85229 13.291 8.85229H11.9375V11.032ZM20.8027 15.989V8.85229H18.2539V7.39917H25.0801V8.85229H22.5371V15.989H20.8027ZM26.2285 15.989V7.39917H27.9629V11.2136L31.4668 7.39917H33.7988L30.5645 10.7449L33.9746 15.989H31.7305L29.3691 11.9578L27.9629 13.3933V15.989H26.2285ZM34.8945 15.989V7.39917H36.582L40.0977 13.1355V7.39917H41.709V15.989H39.9688L36.5059 10.3875V15.989H34.8945Z" fill="white"/>
<defs>
<linearGradient id="paint0_linear_67_1897" x1="26" y1="1.98901" x2="26" y2="21.989" gradientUnits="userSpaceOnUse">
<stop stop-color="#C7C72E"/>
<stop offset="1" stop-color="#946BCE"/>
</linearGradient>
</defs>
</svg>
