<svg width="56" height="24" viewBox="0 0 56 24" fill="none" xmlns="http://www.w3.org/2000/svg">
<rect x="2" y="1.98901" width="53" height="20" rx="10" fill="url(#paint0_linear_84_2042)"/>
<rect x="2" y="1.98901" width="53" height="20" rx="10" stroke="#1C2106" stroke-width="3" stroke-linejoin="round"/>
<path d="M11.959 15.989V8.85229H9.41016V7.39917H16.2363V8.85229H13.6934V15.989H11.959ZM17.3672 15.989V7.39917H21.0176C21.9355 7.39917 22.6016 7.47729 23.0156 7.63354C23.4336 7.78589 23.7676 8.05933 24.0176 8.45386C24.2676 8.84839 24.3926 9.29956 24.3926 9.80737C24.3926 10.4519 24.2031 10.9851 23.8242 11.407C23.4453 11.825 22.8789 12.0886 22.125 12.198C22.5 12.4167 22.8086 12.657 23.0508 12.9187C23.2969 13.1804 23.627 13.6453 24.041 14.3132L25.0898 15.989H23.0156L21.7617 14.1199C21.3164 13.4519 21.0117 13.032 20.8477 12.8601C20.6836 12.6843 20.5098 12.5652 20.3262 12.5027C20.1426 12.4363 19.8516 12.4031 19.4531 12.4031H19.1016V15.989H17.3672ZM19.1016 11.032H20.3848C21.2168 11.032 21.7363 10.9968 21.9434 10.9265C22.1504 10.8562 22.3125 10.7351 22.4297 10.5632C22.5469 10.3914 22.6055 10.1765 22.6055 9.9187C22.6055 9.62964 22.5273 9.39722 22.3711 9.22144C22.2188 9.04175 22.002 8.92847 21.7207 8.88159C21.5801 8.86206 21.1582 8.85229 20.4551 8.85229H19.1016V11.032ZM33.7793 15.989H31.8926L31.1426 14.0378H27.709L27 15.989H25.1602L28.5059 7.39917H30.3398L33.7793 15.989ZM30.5859 12.5906L29.4023 9.40308L28.2422 12.5906H30.5859ZM34.7168 15.989V7.39917H40.6055V8.85229H36.4512V10.8855H40.0371V12.3386H36.4512V15.989H34.7168ZM47.2383 14.4597V15.989H41.4668C41.5293 15.4109 41.7168 14.864 42.0293 14.3484C42.3418 13.8289 42.959 13.1414 43.8809 12.2859C44.623 11.5945 45.0781 11.1257 45.2461 10.8796C45.4727 10.5398 45.5859 10.2039 45.5859 9.87183C45.5859 9.50464 45.4863 9.22339 45.2871 9.02808C45.0918 8.82886 44.8203 8.72925 44.4727 8.72925C44.1289 8.72925 43.8555 8.83276 43.6523 9.03979C43.4492 9.24683 43.332 9.59058 43.3008 10.071L41.6602 9.90698C41.7578 9.00073 42.0645 8.35034 42.5801 7.95581C43.0957 7.56128 43.7402 7.36401 44.5137 7.36401C45.3613 7.36401 46.0273 7.59253 46.5117 8.04956C46.9961 8.50659 47.2383 9.07495 47.2383 9.75464C47.2383 10.1414 47.168 10.5105 47.0273 10.8621C46.8906 11.2097 46.6719 11.575 46.3711 11.9578C46.1719 12.2117 45.8125 12.5769 45.293 13.0535C44.7734 13.53 44.4434 13.8464 44.3027 14.0027C44.166 14.1589 44.0547 14.3113 43.9688 14.4597H47.2383Z" fill="white"/>
<defs>
<linearGradient id="paint0_linear_84_2042" x1="28.5" y1="1.98901" x2="28.5" y2="21.989" gradientUnits="userSpaceOnUse">
<stop stop-color="#95A551"/>
<stop offset="1" stop-color="#1C2106"/>
</linearGradient>
</defs>
</svg>
