<svg width="65" height="24" viewBox="0 0 65 24" fill="none" xmlns="http://www.w3.org/2000/svg">
<rect x="1" y="1.98901" width="63" height="20" rx="10" fill="url(#paint0_linear_66_2007)"/>
<rect x="1" y="1.98901" width="63" height="20" rx="10" stroke="#613D00" stroke-width="3" stroke-linejoin="round"/>
<path d="M9.29688 9.76636H10.832V10.6804C11.0312 10.3679 11.3008 10.114 11.6406 9.9187C11.9805 9.72339 12.3574 9.62573 12.7715 9.62573C13.4941 9.62573 14.1074 9.90894 14.6113 10.4753C15.1152 11.0417 15.3672 11.8308 15.3672 12.8425C15.3672 13.8816 15.1133 14.6902 14.6055 15.2683C14.0977 15.8425 13.4824 16.1296 12.7598 16.1296C12.416 16.1296 12.1035 16.0613 11.8223 15.9246C11.5449 15.7878 11.252 15.5535 10.9434 15.2214V18.3562H9.29688V9.76636ZM10.9258 12.7722C10.9258 13.4714 11.0645 13.989 11.3418 14.325C11.6191 14.657 11.957 14.823 12.3555 14.823C12.7383 14.823 13.0566 14.6707 13.3105 14.366C13.5645 14.0574 13.6914 13.5535 13.6914 12.8542C13.6914 12.2019 13.5605 11.7175 13.2988 11.4011C13.0371 11.0847 12.7129 10.9265 12.3262 10.9265C11.9238 10.9265 11.5898 11.0828 11.3242 11.3953C11.0586 11.7039 10.9258 12.1628 10.9258 12.7722ZM18.2559 15.989H16.6094V9.76636H18.1387V10.6511C18.4004 10.2332 18.6348 9.95776 18.8418 9.82495C19.0527 9.69214 19.291 9.62573 19.5566 9.62573C19.9316 9.62573 20.293 9.72925 20.6406 9.93628L20.1309 11.3718C19.8535 11.1921 19.5957 11.1023 19.3574 11.1023C19.127 11.1023 18.9316 11.1667 18.7715 11.2957C18.6113 11.4207 18.4844 11.6492 18.3906 11.9812C18.3008 12.3132 18.2559 13.0085 18.2559 14.0671V15.989ZM24.959 14.0085L26.5996 14.2839C26.3887 14.8855 26.0547 15.3445 25.5977 15.6609C25.1445 15.9734 24.5762 16.1296 23.8926 16.1296C22.8105 16.1296 22.0098 15.7761 21.4902 15.0691C21.0801 14.5027 20.875 13.7878 20.875 12.9246C20.875 11.8933 21.1445 11.0867 21.6836 10.5046C22.2227 9.9187 22.9043 9.62573 23.7285 9.62573C24.6543 9.62573 25.3848 9.93237 25.9199 10.5457C26.4551 11.155 26.7109 12.0906 26.6875 13.3523H22.5625C22.5742 13.8406 22.707 14.2214 22.9609 14.4949C23.2148 14.7644 23.5312 14.8992 23.9102 14.8992C24.168 14.8992 24.3848 14.8289 24.5605 14.6882C24.7363 14.5476 24.8691 14.321 24.959 14.0085ZM25.0527 12.3445C25.041 11.8679 24.918 11.5066 24.6836 11.2605C24.4492 11.0105 24.1641 10.8855 23.8281 10.8855C23.4688 10.8855 23.1719 11.0164 22.9375 11.2781C22.7031 11.5398 22.5879 11.8953 22.5918 12.3445H25.0527ZM27.8477 13.698V12.0515H31.082V13.698H27.8477ZM32.0605 15.989V7.39917H33.748L37.2637 13.1355V7.39917H38.875V15.989H37.1348L33.6719 10.3875V15.989H32.0605ZM44.7109 12.8308V11.3835H48.4492V14.8054C48.0859 15.157 47.5586 15.4675 46.8672 15.7371C46.1797 16.0027 45.4824 16.1355 44.7754 16.1355C43.877 16.1355 43.0938 15.948 42.4258 15.573C41.7578 15.1941 41.2559 14.655 40.9199 13.9558C40.584 13.2527 40.416 12.489 40.416 11.6648C40.416 10.7703 40.6035 9.97534 40.9785 9.28003C41.3535 8.58472 41.9023 8.05151 42.625 7.68042C43.1758 7.39526 43.8613 7.25269 44.6816 7.25269C45.748 7.25269 46.5801 7.47729 47.1777 7.92651C47.7793 8.37183 48.166 8.98901 48.3379 9.77808L46.6152 10.1003C46.4941 9.67847 46.2656 9.34644 45.9297 9.10425C45.5977 8.85815 45.1816 8.73511 44.6816 8.73511C43.9238 8.73511 43.3203 8.97534 42.8711 9.45581C42.4258 9.93628 42.2031 10.6492 42.2031 11.5945C42.2031 12.614 42.4297 13.3796 42.8828 13.8914C43.3359 14.3992 43.9297 14.6531 44.6641 14.6531C45.0273 14.6531 45.3906 14.5828 45.7539 14.4421C46.1211 14.2976 46.4355 14.1238 46.6973 13.9207V12.8308H44.7109ZM50.0664 15.989V7.39917H55.9551V8.85229H51.8008V10.8855H55.3867V12.3386H51.8008V15.989H50.0664Z" fill="white"/>
<defs>
<linearGradient id="paint0_linear_66_2007" x1="32.5" y1="1.98901" x2="32.5" y2="21.989" gradientUnits="userSpaceOnUse">
<stop stop-color="#FEBCC3"/>
<stop offset="1" stop-color="#613D00"/>
</linearGradient>
</defs>
</svg>
