<svg width="38" height="201" viewBox="0 0 38 201" fill="none" xmlns="http://www.w3.org/2000/svg">
<g clip-path="url(#clip0_86_3383)">
<path d="M28.5087 106.921C31.1832 106.921 33.3509 109.088 33.3509 111.763V136.343C33.3509 139.017 31.1833 141.185 28.5087 141.185C25.8341 141.185 23.6665 139.017 23.6665 136.343V111.763C23.6665 109.088 25.8341 106.921 28.5087 106.921Z" fill="url(#paint0_linear_86_3383)"/>
<path d="M9.13883 106.921C11.8133 106.921 13.981 109.088 13.981 111.763V136.343C13.981 139.017 11.8134 141.185 9.13883 141.185C6.46423 141.185 4.29663 139.017 4.29663 136.343V111.763C4.29663 109.088 6.46433 106.921 9.13883 106.921Z" fill="url(#paint1_linear_86_3383)"/>
<path d="M28.5087 114.721C32.9934 114.721 36.629 111.085 36.629 106.6C36.629 102.116 32.9934 98.48 28.5087 98.48C24.024 98.48 20.3884 102.116 20.3884 106.6C20.3884 111.085 24.024 114.721 28.5087 114.721Z" fill="url(#paint2_radial_86_3383)"/>
<path d="M9.13861 114.721C13.6233 114.721 17.2589 111.085 17.2589 106.6C17.2589 102.116 13.6233 98.48 9.13861 98.48C4.65389 98.48 1.01831 102.116 1.01831 106.6C1.01831 111.085 4.65389 114.721 9.13861 114.721Z" fill="url(#paint3_radial_86_3383)"/>
<path d="M28.5087 133.386C32.5205 133.386 35.772 136.637 35.772 140.649V192.748C35.772 196.76 32.5206 200.011 28.5087 200.011C24.4968 200.011 21.2454 196.76 21.2454 192.748V140.649C21.2454 136.637 24.4969 133.386 28.5087 133.386Z" fill="url(#paint4_linear_86_3383)"/>
<path d="M9.13903 133.386C13.1508 133.386 16.4023 136.637 16.4023 140.649V192.748C16.4023 196.76 13.1509 200.011 9.13903 200.011C5.12713 200.011 1.87573 196.76 1.87573 192.748V140.649C1.87573 136.637 5.12723 133.386 9.13903 133.386Z" fill="url(#paint5_linear_86_3383)"/>
<path d="M21.2454 143.225V140.649C21.2454 136.637 24.4968 133.385 28.5087 133.385C32.5206 133.385 35.772 136.637 35.772 140.649V143.225H21.2454Z" fill="url(#paint6_linear_86_3383)"/>
<path d="M1.87573 143.225V140.649C1.87573 136.637 5.12713 133.385 9.13903 133.385C13.1509 133.385 16.4023 136.637 16.4023 140.649V143.225H1.87573Z" fill="url(#paint7_linear_86_3383)"/>
<path d="M21.2454 190.171V192.747C21.2454 196.759 24.4968 200.011 28.5087 200.011C32.5206 200.011 35.772 196.759 35.772 192.747V190.171H21.2454Z" fill="url(#paint8_linear_86_3383)"/>
<path d="M1.87573 190.171V192.747C1.87573 196.759 5.12713 200.011 9.13903 200.011C13.1509 200.011 16.4023 196.759 16.4023 192.747V190.171H1.87573Z" fill="url(#paint9_linear_86_3383)"/>
</g>
<g clip-path="url(#clip1_86_3383)">
<path d="M8.83275 99.3237C13.4637 99.3237 17.2178 95.5696 17.2178 90.9387C17.2178 86.3078 13.4637 82.5537 8.83275 82.5537C4.20185 82.5537 0.447754 86.3078 0.447754 90.9387C0.447754 95.5696 4.20185 99.3237 8.83275 99.3237Z" fill="url(#paint10_radial_86_3383)"/>
<path d="M28.834 99.3237C33.4649 99.3237 37.219 95.5696 37.219 90.9387C37.219 86.3078 33.4649 82.5537 28.834 82.5537C24.2031 82.5537 20.449 86.3078 20.449 90.9387C20.449 95.5696 24.2031 99.3237 28.834 99.3237Z" fill="url(#paint11_radial_86_3383)"/>
<path d="M8.83276 88.4351C6.76146 88.4351 5.08276 86.7564 5.08276 84.6851V61.1494C5.08276 59.0781 6.76146 57.3994 8.83276 57.3994C10.9041 57.3994 12.5828 59.0781 12.5828 61.1494V84.685C12.5828 86.7564 10.9041 88.4351 8.83276 88.4351Z" fill="url(#paint12_linear_86_3383)"/>
<path d="M28.8337 88.4351C26.7624 88.4351 25.0837 86.7564 25.0837 84.6851V61.1494C25.0837 59.0781 26.7624 57.3994 28.8337 57.3994C30.905 57.3994 32.5837 59.0781 32.5837 61.1494V84.685C32.5837 86.7564 30.905 88.4351 28.8337 88.4351Z" fill="url(#paint13_linear_86_3383)"/>
<path d="M8.83276 63.2805C4.69016 63.2805 1.33276 62.9231 1.33276 58.7805V4.98364C1.33276 0.841043 4.69016 0.483643 8.83276 0.483643C12.9754 0.483643 16.3328 0.841043 16.3328 4.98364V58.7805C16.3328 62.9231 12.9754 63.2805 8.83276 63.2805Z" fill="url(#paint14_linear_86_3383)"/>
<path d="M28.8337 63.2805C24.6911 63.2805 21.3337 62.9231 21.3337 58.7805V4.98364C21.3337 0.841043 24.6911 0.483643 28.8337 0.483643C32.9763 0.483643 36.3337 0.841043 36.3337 4.98364V58.7805C36.3337 62.9231 32.9763 63.2805 28.8337 63.2805Z" fill="url(#paint15_linear_86_3383)"/>
<path d="M16.3328 56.1201V58.7807C16.3328 62.9233 12.9754 63.2807 8.83276 63.2807C4.69016 63.2807 1.33276 62.9233 1.33276 58.7807V56.1201H16.3328Z" fill="url(#paint16_linear_86_3383)"/>
<path d="M36.3337 56.1201V58.7807C36.3337 62.9233 32.9763 63.2807 28.8337 63.2807C24.6911 63.2807 21.3337 62.9233 21.3337 58.7807V56.1201H36.3337Z" fill="url(#paint17_linear_86_3383)"/>
<path d="M16.3328 7.64424V4.98364C16.3328 0.841043 12.9754 0.483643 8.83276 0.483643C4.69016 0.483643 1.33276 0.841043 1.33276 4.98364V7.64424H16.3328Z" fill="url(#paint18_linear_86_3383)"/>
<path d="M36.3337 7.64424V4.98364C36.3337 0.841043 32.9763 0.483643 28.8337 0.483643C24.6911 0.483643 21.3337 0.841043 21.3337 4.98364V7.64424H36.3337Z" fill="url(#paint19_linear_86_3383)"/>
</g>
<defs>
<linearGradient id="paint0_linear_86_3383" x1="33.3508" y1="124.053" x2="23.6665" y2="124.053" gradientUnits="userSpaceOnUse">
<stop stop-color="#005368"/>
<stop offset="0.0337" stop-color="#00708D"/>
<stop offset="0.0735" stop-color="#008DB1"/>
<stop offset="0.1135" stop-color="#00A3CE"/>
<stop offset="0.1534" stop-color="#00B3E2"/>
<stop offset="0.1931" stop-color="#00BDEE"/>
<stop offset="0.2322" stop-color="#00C0F2"/>
<stop offset="1" stop-color="#005368"/>
</linearGradient>
<linearGradient id="paint1_linear_86_3383" x1="13.9809" y1="124.053" x2="4.29663" y2="124.053" gradientUnits="userSpaceOnUse">
<stop stop-color="#005368"/>
<stop offset="0.0337" stop-color="#00708D"/>
<stop offset="0.0735" stop-color="#008DB1"/>
<stop offset="0.1135" stop-color="#00A3CE"/>
<stop offset="0.1534" stop-color="#00B3E2"/>
<stop offset="0.1931" stop-color="#00BDEE"/>
<stop offset="0.2322" stop-color="#00C0F2"/>
<stop offset="1" stop-color="#005368"/>
</linearGradient>
<radialGradient id="paint2_radial_86_3383" cx="0" cy="0" r="1" gradientUnits="userSpaceOnUse" gradientTransform="translate(30.4455 109.506) rotate(180) scale(8.1203)">
<stop stop-color="#00C0F2"/>
<stop offset="1" stop-color="#005368"/>
</radialGradient>
<radialGradient id="paint3_radial_86_3383" cx="0" cy="0" r="1" gradientUnits="userSpaceOnUse" gradientTransform="translate(11.7211 109.828) rotate(180) scale(8.1203)">
<stop stop-color="#00C0F2"/>
<stop offset="1" stop-color="#005368"/>
</radialGradient>
<linearGradient id="paint4_linear_86_3383" x1="35.7719" y1="166.698" x2="21.2454" y2="166.698" gradientUnits="userSpaceOnUse">
<stop stop-color="#005368"/>
<stop offset="0.1534" stop-color="#00B3E2"/>
<stop offset="1" stop-color="#005368"/>
</linearGradient>
<linearGradient id="paint5_linear_86_3383" x1="16.4022" y1="166.698" x2="1.87573" y2="166.698" gradientUnits="userSpaceOnUse">
<stop stop-color="#005368"/>
<stop offset="0.1534" stop-color="#00B3E2"/>
<stop offset="1" stop-color="#005368"/>
</linearGradient>
<linearGradient id="paint6_linear_86_3383" x1="28.5087" y1="143.225" x2="28.5087" y2="133.385" gradientUnits="userSpaceOnUse">
<stop stop-color="#00B3E2" stop-opacity="0"/>
<stop offset="1" stop-color="#005368"/>
</linearGradient>
<linearGradient id="paint7_linear_86_3383" x1="9.13903" y1="143.225" x2="9.13903" y2="133.385" gradientUnits="userSpaceOnUse">
<stop stop-color="#00B3E2" stop-opacity="0"/>
<stop offset="1" stop-color="#005368"/>
</linearGradient>
<linearGradient id="paint8_linear_86_3383" x1="28.5087" y1="190.171" x2="28.5087" y2="200.011" gradientUnits="userSpaceOnUse">
<stop stop-color="#00B3E2" stop-opacity="0"/>
<stop offset="1" stop-color="#005368"/>
</linearGradient>
<linearGradient id="paint9_linear_86_3383" x1="9.13903" y1="190.171" x2="9.13903" y2="200.011" gradientUnits="userSpaceOnUse">
<stop stop-color="#00B3E2" stop-opacity="0"/>
<stop offset="1" stop-color="#005368"/>
</linearGradient>
<radialGradient id="paint10_radial_86_3383" cx="0" cy="0" r="1" gradientUnits="userSpaceOnUse" gradientTransform="translate(6.83275 87.9387) scale(8.385 8.385)">
<stop stop-color="#F7AC00"/>
<stop offset="1" stop-color="#6A4A00"/>
</radialGradient>
<radialGradient id="paint11_radial_86_3383" cx="0" cy="0" r="1" gradientUnits="userSpaceOnUse" gradientTransform="translate(26.1673 87.6053) scale(8.385 8.385)">
<stop stop-color="#F7AC00"/>
<stop offset="1" stop-color="#6A4A00"/>
</radialGradient>
<linearGradient id="paint12_linear_86_3383" x1="5.08276" y1="72.9173" x2="12.5828" y2="72.9173" gradientUnits="userSpaceOnUse">
<stop stop-color="#6A4A00"/>
<stop offset="0.0358" stop-color="#926600"/>
<stop offset="0.0752" stop-color="#B67F00"/>
<stop offset="0.1148" stop-color="#D39300"/>
<stop offset="0.1543" stop-color="#E7A100"/>
<stop offset="0.1935" stop-color="#F3A900"/>
<stop offset="0.2322" stop-color="#F7AC00"/>
<stop offset="1" stop-color="#6A4A00"/>
</linearGradient>
<linearGradient id="paint13_linear_86_3383" x1="25.0837" y1="72.9173" x2="32.5837" y2="72.9173" gradientUnits="userSpaceOnUse">
<stop stop-color="#6A4A00"/>
<stop offset="0.0358" stop-color="#926600"/>
<stop offset="0.0752" stop-color="#B67F00"/>
<stop offset="0.1148" stop-color="#D39300"/>
<stop offset="0.1543" stop-color="#E7A100"/>
<stop offset="0.1935" stop-color="#F3A900"/>
<stop offset="0.2322" stop-color="#F7AC00"/>
<stop offset="1" stop-color="#6A4A00"/>
</linearGradient>
<linearGradient id="paint14_linear_86_3383" x1="1.33276" y1="31.882" x2="16.3328" y2="31.882" gradientUnits="userSpaceOnUse">
<stop stop-color="#6A4A00"/>
<stop offset="0.25" stop-color="#E7A100"/>
<stop offset="1" stop-color="#6A4A00"/>
</linearGradient>
<linearGradient id="paint15_linear_86_3383" x1="21.3337" y1="31.882" x2="36.3337" y2="31.882" gradientUnits="userSpaceOnUse">
<stop stop-color="#6A4A00"/>
<stop offset="0.2322" stop-color="#E7A100"/>
<stop offset="1" stop-color="#6A4A00"/>
</linearGradient>
<linearGradient id="paint16_linear_86_3383" x1="8.83276" y1="63.2807" x2="8.83276" y2="56.1201" gradientUnits="userSpaceOnUse">
<stop stop-color="#6A4A00"/>
<stop offset="1" stop-color="#F3A900" stop-opacity="0"/>
</linearGradient>
<linearGradient id="paint17_linear_86_3383" x1="28.8337" y1="63.2807" x2="28.8337" y2="56.1201" gradientUnits="userSpaceOnUse">
<stop stop-color="#6A4A00"/>
<stop offset="1" stop-color="#F3A900" stop-opacity="0"/>
</linearGradient>
<linearGradient id="paint18_linear_86_3383" x1="8.83276" y1="0.483643" x2="8.83276" y2="7.64424" gradientUnits="userSpaceOnUse">
<stop stop-color="#6A4A00"/>
<stop offset="1" stop-color="#F3A900" stop-opacity="0"/>
</linearGradient>
<linearGradient id="paint19_linear_86_3383" x1="28.8337" y1="0.483643" x2="28.8337" y2="7.64424" gradientUnits="userSpaceOnUse">
<stop stop-color="#6A4A00"/>
<stop offset="1" stop-color="#F3A900" stop-opacity="0"/>
</linearGradient>
<clipPath id="clip0_86_3383">
<rect width="35.6106" height="101.531" fill="white" transform="translate(1.01831 98.48)"/>
</clipPath>
<clipPath id="clip1_86_3383">
<rect width="36.7713" height="98.8401" fill="white" transform="translate(0.447754 0.483643)"/>
</clipPath>
</defs>
</svg>
