<svg width="62" height="36" viewBox="0 0 62 36" fill="none" xmlns="http://www.w3.org/2000/svg">
<rect x="2" y="1.98901" width="59" height="32" rx="10" fill="url(#paint0_linear_84_2019)"/>
<rect x="2" y="1.98901" width="59" height="32" rx="10" stroke="#BFA82E" stroke-width="3" stroke-linejoin="round"/>
<path d="M20.209 8.76636V10.0789H19.084V12.5867C19.084 13.0945 19.0938 13.3914 19.1133 13.4773C19.1367 13.5593 19.1855 13.6277 19.2598 13.6824C19.3379 13.7371 19.4316 13.7644 19.541 13.7644C19.6934 13.7644 19.9141 13.7117 20.2031 13.6062L20.3438 14.8835C19.9609 15.0476 19.5273 15.1296 19.043 15.1296C18.7461 15.1296 18.4785 15.0808 18.2402 14.9832C18.002 14.8816 17.8262 14.7527 17.7129 14.5964C17.6035 14.4363 17.5273 14.2214 17.4844 13.9519C17.4492 13.7605 17.4316 13.3738 17.4316 12.7917V10.0789H16.6758V8.76636H17.4316V7.53003L19.084 6.56909V8.76636H20.209ZM21.3691 14.989V6.39917H25.0195C25.9375 6.39917 26.6035 6.47729 27.0176 6.63354C27.4355 6.78589 27.7695 7.05933 28.0195 7.45386C28.2695 7.84839 28.3945 8.29956 28.3945 8.80737C28.3945 9.4519 28.2051 9.98511 27.8262 10.407C27.4473 10.825 26.8809 11.0886 26.127 11.198C26.502 11.4167 26.8105 11.657 27.0527 11.9187C27.2988 12.1804 27.6289 12.6453 28.043 13.3132L29.0918 14.989H27.0176L25.7637 13.1199C25.3184 12.4519 25.0137 12.032 24.8496 11.8601C24.6855 11.6843 24.5117 11.5652 24.3281 11.5027C24.1445 11.4363 23.8535 11.4031 23.4551 11.4031H23.1035V14.989H21.3691ZM23.1035 10.032H24.3867C25.2188 10.032 25.7383 9.99683 25.9453 9.92651C26.1523 9.8562 26.3145 9.73511 26.4316 9.56323C26.5488 9.39136 26.6074 9.17651 26.6074 8.9187C26.6074 8.62964 26.5293 8.39722 26.373 8.22144C26.2207 8.04175 26.0039 7.92847 25.7227 7.88159C25.582 7.86206 25.1602 7.85229 24.457 7.85229H23.1035V10.032ZM30.0527 14.989V6.39917H31.7402L35.2559 12.1355V6.39917H36.8672V14.989H35.127L31.6641 9.38745V14.989H30.0527ZM46.4531 14.989H44.5664L43.8164 13.0378H40.3828L39.6738 14.989H37.834L41.1797 6.39917H43.0137L46.4531 14.989ZM43.2598 11.5906L42.0762 8.40308L40.916 11.5906H43.2598ZM10.0723 28.989V20.4695H11.8066V27.5417H16.1191V28.989H10.0723ZM17.3086 28.989V20.3992H19.043V28.989H17.3086ZM24.6973 25.8308V24.3835H28.4355V27.8054C28.0723 28.157 27.5449 28.4675 26.8535 28.7371C26.166 29.0027 25.4688 29.1355 24.7617 29.1355C23.8633 29.1355 23.0801 28.948 22.4121 28.573C21.7441 28.1941 21.2422 27.655 20.9062 26.9558C20.5703 26.2527 20.4023 25.489 20.4023 24.6648C20.4023 23.7703 20.5898 22.9753 20.9648 22.28C21.3398 21.5847 21.8887 21.0515 22.6113 20.6804C23.1621 20.3953 23.8477 20.2527 24.668 20.2527C25.7344 20.2527 26.5664 20.4773 27.1641 20.9265C27.7656 21.3718 28.1523 21.989 28.3242 22.7781L26.6016 23.1003C26.4805 22.6785 26.252 22.3464 25.916 22.1042C25.584 21.8582 25.168 21.7351 24.668 21.7351C23.9102 21.7351 23.3066 21.9753 22.8574 22.4558C22.4121 22.9363 22.1895 23.6492 22.1895 24.5945C22.1895 25.614 22.416 26.3796 22.8691 26.8914C23.3223 27.3992 23.916 27.6531 24.6504 27.6531C25.0137 27.6531 25.377 27.5828 25.7402 27.4421C26.1074 27.2976 26.4219 27.1238 26.6836 26.9207V25.8308H24.6973ZM37.7871 28.989H35.9004L35.1504 27.0378H31.7168L31.0078 28.989H29.168L32.5137 20.3992H34.3477L37.7871 28.989ZM34.5938 25.5906L33.4102 22.4031L32.25 25.5906H34.5938ZM38.2734 26.1941L39.9609 26.03C40.0625 26.5964 40.2676 27.0125 40.5762 27.2781C40.8887 27.5437 41.3086 27.6765 41.8359 27.6765C42.3945 27.6765 42.8145 27.5593 43.0957 27.325C43.3809 27.0867 43.5234 26.8093 43.5234 26.4929C43.5234 26.2898 43.4629 26.1179 43.3418 25.9773C43.2246 25.8328 43.0176 25.7078 42.7207 25.6023C42.5176 25.532 42.0547 25.407 41.332 25.2273C40.4023 24.9968 39.75 24.7136 39.375 24.3777C38.8477 23.905 38.584 23.3289 38.584 22.6492C38.584 22.2117 38.707 21.8035 38.9531 21.4246C39.2031 21.0417 39.5605 20.7507 40.0254 20.5515C40.4941 20.3523 41.0586 20.2527 41.7188 20.2527C42.7969 20.2527 43.6074 20.489 44.1504 20.9617C44.6973 21.4343 44.9844 22.0652 45.0117 22.8542L43.2773 22.9304C43.2031 22.489 43.043 22.1726 42.7969 21.9812C42.5547 21.7859 42.1895 21.6882 41.7012 21.6882C41.1973 21.6882 40.8027 21.7917 40.5176 21.9988C40.334 22.1316 40.2422 22.3093 40.2422 22.532C40.2422 22.7351 40.3281 22.9089 40.5 23.0535C40.7188 23.2371 41.25 23.4285 42.0938 23.6277C42.9375 23.8269 43.5605 24.0339 43.9629 24.2488C44.3691 24.4597 44.6855 24.7507 44.9121 25.1218C45.1426 25.489 45.2578 25.9441 45.2578 26.4871C45.2578 26.9792 45.1211 27.4402 44.8477 27.8699C44.5742 28.2996 44.1875 28.6199 43.6875 28.8308C43.1875 29.0378 42.5645 29.1414 41.8184 29.1414C40.7324 29.1414 39.8984 28.8914 39.3164 28.3914C38.7344 27.8875 38.3867 27.155 38.2734 26.1941ZM46.7168 28.989V20.3992H53.0859V21.8523H48.4512V23.7566H52.7637V25.2039H48.4512V27.5417H53.25V28.989H46.7168Z" fill="white"/>
<defs>
<linearGradient id="paint0_linear_84_2019" x1="31.5" y1="1.98901" x2="31.5" y2="33.989" gradientUnits="userSpaceOnUse">
<stop stop-color="#BFA82E"/>
<stop offset="1" stop-color="#8248C9"/>
</linearGradient>
</defs>
</svg>
