<svg width="53" height="24" viewBox="0 0 53 24" fill="none" xmlns="http://www.w3.org/2000/svg">
<rect x="2" y="1.98901" width="50" height="20" rx="10" fill="url(#paint0_linear_67_1906)"/>
<rect x="2" y="1.98901" width="50" height="20" rx="10" stroke="#007B76" stroke-width="3" stroke-linejoin="round"/>
<path d="M10.2012 15.989V7.39917H13.8516C14.7695 7.39917 15.4355 7.47729 15.8496 7.63354C16.2676 7.78589 16.6016 8.05933 16.8516 8.45386C17.1016 8.84839 17.2266 9.29956 17.2266 9.80737C17.2266 10.4519 17.0371 10.9851 16.6582 11.407C16.2793 11.825 15.7129 12.0886 14.959 12.198C15.334 12.4167 15.6426 12.657 15.8848 12.9187C16.1309 13.1804 16.4609 13.6453 16.875 14.3132L17.9238 15.989H15.8496L14.5957 14.1199C14.1504 13.4519 13.8457 13.032 13.6816 12.8601C13.5176 12.6843 13.3438 12.5652 13.1602 12.5027C12.9766 12.4363 12.6855 12.4031 12.2871 12.4031H11.9355V15.989H10.2012ZM11.9355 11.032H13.2188C14.0508 11.032 14.5703 10.9968 14.7773 10.9265C14.9844 10.8562 15.1465 10.7351 15.2637 10.5632C15.3809 10.3914 15.4395 10.1765 15.4395 9.9187C15.4395 9.62964 15.3613 9.39722 15.2051 9.22144C15.0527 9.04175 14.8359 8.92847 14.5547 8.88159C14.4141 8.86206 13.9922 8.85229 13.2891 8.85229H11.9355V11.032ZM18.5156 11.7468C18.5156 10.8718 18.6465 10.1375 18.9082 9.5437C19.1035 9.1062 19.3691 8.71362 19.7051 8.36597C20.0449 8.01831 20.416 7.7605 20.8184 7.59253C21.3535 7.36597 21.9707 7.25269 22.6699 7.25269C23.9355 7.25269 24.9473 7.64526 25.7051 8.43042C26.4668 9.21558 26.8477 10.3074 26.8477 11.7058C26.8477 13.0925 26.4707 14.1785 25.7168 14.9636C24.9629 15.7449 23.9551 16.1355 22.6934 16.1355C21.416 16.1355 20.4004 15.7468 19.6465 14.9695C18.8926 14.1882 18.5156 13.114 18.5156 11.7468ZM20.3027 11.6882C20.3027 12.6609 20.5273 13.3992 20.9766 13.9031C21.4258 14.4031 21.9961 14.6531 22.6875 14.6531C23.3789 14.6531 23.9453 14.405 24.3867 13.9089C24.832 13.4089 25.0547 12.6609 25.0547 11.6648C25.0547 10.6804 24.8379 9.94604 24.4043 9.46167C23.9746 8.97729 23.4023 8.73511 22.6875 8.73511C21.9727 8.73511 21.3965 8.9812 20.959 9.47339C20.5215 9.96167 20.3027 10.7 20.3027 11.6882ZM28.2129 15.989V7.39917H31.8633C32.7812 7.39917 33.4473 7.47729 33.8613 7.63354C34.2793 7.78589 34.6133 8.05933 34.8633 8.45386C35.1133 8.84839 35.2383 9.29956 35.2383 9.80737C35.2383 10.4519 35.0488 10.9851 34.6699 11.407C34.291 11.825 33.7246 12.0886 32.9707 12.198C33.3457 12.4167 33.6543 12.657 33.8965 12.9187C34.1426 13.1804 34.4727 13.6453 34.8867 14.3132L35.9355 15.989H33.8613L32.6074 14.1199C32.1621 13.4519 31.8574 13.032 31.6934 12.8601C31.5293 12.6843 31.3555 12.5652 31.1719 12.5027C30.9883 12.4363 30.6973 12.4031 30.2988 12.4031H29.9473V15.989H28.2129ZM29.9473 11.032H31.2305C32.0625 11.032 32.582 10.9968 32.7891 10.9265C32.9961 10.8562 33.1582 10.7351 33.2754 10.5632C33.3926 10.3914 33.4512 10.1765 33.4512 9.9187C33.4512 9.62964 33.373 9.39722 33.2168 9.22144C33.0645 9.04175 32.8477 8.92847 32.5664 8.88159C32.4258 8.86206 32.0039 8.85229 31.3008 8.85229H29.9473V11.032ZM42.375 12.8308L44.0566 13.364C43.7988 14.3015 43.3691 14.9988 42.7676 15.4558C42.1699 15.9089 41.4102 16.1355 40.4883 16.1355C39.3477 16.1355 38.4102 15.7468 37.6758 14.9695C36.9414 14.1882 36.5742 13.1218 36.5742 11.7703C36.5742 10.3406 36.9434 9.2312 37.6816 8.44214C38.4199 7.64917 39.3906 7.25269 40.5938 7.25269C41.6445 7.25269 42.498 7.56323 43.1543 8.18433C43.5449 8.55151 43.8379 9.07886 44.0332 9.76636L42.3164 10.1765C42.2148 9.7312 42.002 9.37964 41.6777 9.12183C41.3574 8.86401 40.9668 8.73511 40.5059 8.73511C39.8691 8.73511 39.3516 8.96362 38.9531 9.42065C38.5586 9.87769 38.3613 10.6179 38.3613 11.6414C38.3613 12.7273 38.5566 13.5007 38.9473 13.9617C39.3379 14.4226 39.8457 14.6531 40.4707 14.6531C40.9316 14.6531 41.3281 14.5066 41.6602 14.2136C41.9922 13.9207 42.2305 13.4597 42.375 12.8308Z" fill="white"/>
<defs>
<linearGradient id="paint0_linear_67_1906" x1="27" y1="1.98901" x2="27" y2="21.989" gradientUnits="userSpaceOnUse">
<stop stop-color="#115D72"/>
<stop offset="1" stop-color="#007B76"/>
</linearGradient>
</defs>
</svg>
