<svg width="58" height="24" viewBox="0 0 58 24" fill="none" xmlns="http://www.w3.org/2000/svg">
<rect x="2" y="1.98901" width="55" height="20" rx="10" fill="url(#paint0_linear_67_1831)"/>
<rect x="2" y="1.98901" width="55" height="20" rx="10" stroke="#FF7954" stroke-width="3" stroke-linejoin="round"/>
<path d="M10.0293 15.989V7.39917H13.6797C14.5977 7.39917 15.2637 7.47729 15.6777 7.63354C16.0957 7.78589 16.4297 8.05933 16.6797 8.45386C16.9297 8.84839 17.0547 9.29956 17.0547 9.80737C17.0547 10.4519 16.8652 10.9851 16.4863 11.407C16.1074 11.825 15.541 12.0886 14.7871 12.198C15.1621 12.4167 15.4707 12.657 15.7129 12.9187C15.959 13.1804 16.2891 13.6453 16.7031 14.3132L17.752 15.989H15.6777L14.4238 14.1199C13.9785 13.4519 13.6738 13.032 13.5098 12.8601C13.3457 12.6843 13.1719 12.5652 12.9883 12.5027C12.8047 12.4363 12.5137 12.4031 12.1152 12.4031H11.7637V15.989H10.0293ZM11.7637 11.032H13.0469C13.8789 11.032 14.3984 10.9968 14.6055 10.9265C14.8125 10.8562 14.9746 10.7351 15.0918 10.5632C15.209 10.3914 15.2676 10.1765 15.2676 9.9187C15.2676 9.62964 15.1895 9.39722 15.0332 9.22144C14.8809 9.04175 14.6641 8.92847 14.3828 8.88159C14.2422 8.86206 13.8203 8.85229 13.1172 8.85229H11.7637V11.032ZM18.7012 7.39917H22.1348C22.8145 7.39917 23.3203 7.42847 23.6523 7.48706C23.9883 7.54175 24.2871 7.65894 24.5488 7.83862C24.8145 8.01831 25.0352 8.25854 25.2109 8.55933C25.3867 8.8562 25.4746 9.19019 25.4746 9.56128C25.4746 9.96362 25.3652 10.3328 25.1465 10.6687C24.9316 11.0046 24.6387 11.2566 24.2676 11.4246C24.791 11.5769 25.1934 11.8367 25.4746 12.2039C25.7559 12.571 25.8965 13.0027 25.8965 13.4988C25.8965 13.8894 25.8047 14.2703 25.6211 14.6414C25.4414 15.0085 25.1934 15.3035 24.877 15.5261C24.5645 15.7449 24.1777 15.8796 23.7168 15.9304C23.4277 15.9617 22.7305 15.9812 21.625 15.989H18.7012V7.39917ZM20.4355 8.82886V10.8152H21.5723C22.248 10.8152 22.668 10.8054 22.832 10.7859C23.1289 10.7507 23.3613 10.6492 23.5293 10.4812C23.7012 10.3093 23.7871 10.0847 23.7871 9.80737C23.7871 9.54175 23.7129 9.3269 23.5645 9.16284C23.4199 8.99487 23.2031 8.89331 22.9141 8.85815C22.7422 8.83862 22.248 8.82886 21.4316 8.82886H20.4355ZM20.4355 12.2449V14.5417H22.041C22.666 14.5417 23.0625 14.5242 23.2305 14.489C23.4883 14.4421 23.6973 14.3289 23.8574 14.1492C24.0215 13.9656 24.1035 13.7214 24.1035 13.4167C24.1035 13.1589 24.041 12.9402 23.916 12.7605C23.791 12.5808 23.6094 12.45 23.3711 12.3679C23.1367 12.2859 22.625 12.2449 21.8359 12.2449H20.4355ZM27.373 7.39917H30.8066C31.4863 7.39917 31.9922 7.42847 32.3242 7.48706C32.6602 7.54175 32.959 7.65894 33.2207 7.83862C33.4863 8.01831 33.707 8.25854 33.8828 8.55933C34.0586 8.8562 34.1465 9.19019 34.1465 9.56128C34.1465 9.96362 34.0371 10.3328 33.8184 10.6687C33.6035 11.0046 33.3105 11.2566 32.9395 11.4246C33.4629 11.5769 33.8652 11.8367 34.1465 12.2039C34.4277 12.571 34.5684 13.0027 34.5684 13.4988C34.5684 13.8894 34.4766 14.2703 34.293 14.6414C34.1133 15.0085 33.8652 15.3035 33.5488 15.5261C33.2363 15.7449 32.8496 15.8796 32.3887 15.9304C32.0996 15.9617 31.4023 15.9812 30.2969 15.989H27.373V7.39917ZM29.1074 8.82886V10.8152H30.2441C30.9199 10.8152 31.3398 10.8054 31.5039 10.7859C31.8008 10.7507 32.0332 10.6492 32.2012 10.4812C32.373 10.3093 32.459 10.0847 32.459 9.80737C32.459 9.54175 32.3848 9.3269 32.2363 9.16284C32.0918 8.99487 31.875 8.89331 31.5859 8.85815C31.4141 8.83862 30.9199 8.82886 30.1035 8.82886H29.1074ZM29.1074 12.2449V14.5417H30.7129C31.3379 14.5417 31.7344 14.5242 31.9023 14.489C32.1602 14.4421 32.3691 14.3289 32.5293 14.1492C32.6934 13.9656 32.7754 13.7214 32.7754 13.4167C32.7754 13.1589 32.7129 12.9402 32.5879 12.7605C32.4629 12.5808 32.2812 12.45 32.043 12.3679C31.8086 12.2859 31.2969 12.2449 30.5078 12.2449H29.1074ZM36.0391 15.989V7.39917H38.8223C39.877 7.39917 40.5645 7.44214 40.8848 7.52808C41.377 7.65698 41.7891 7.93823 42.1211 8.37183C42.4531 8.80151 42.6191 9.35815 42.6191 10.0417C42.6191 10.5691 42.5234 11.0125 42.332 11.3718C42.1406 11.7312 41.8965 12.0144 41.5996 12.2214C41.3066 12.4246 41.0078 12.5593 40.7031 12.6257C40.2891 12.7078 39.6895 12.7488 38.9043 12.7488H37.7734V15.989H36.0391ZM37.7734 8.85229V11.2898H38.7227C39.4062 11.2898 39.8633 11.2449 40.0938 11.155C40.3242 11.0652 40.5039 10.9246 40.6328 10.7332C40.7656 10.5417 40.832 10.3191 40.832 10.0652C40.832 9.75269 40.7402 9.49487 40.5566 9.29175C40.373 9.08862 40.1406 8.96167 39.8594 8.91089C39.6523 8.87183 39.2363 8.85229 38.6113 8.85229H37.7734ZM43.7031 13.78L45.3438 13.6101C45.3906 13.9812 45.5293 14.2761 45.7598 14.4949C45.9902 14.7097 46.2559 14.8171 46.5566 14.8171C46.9004 14.8171 47.1914 14.6785 47.4297 14.4011C47.668 14.1199 47.7871 13.698 47.7871 13.1355C47.7871 12.6082 47.668 12.2136 47.4297 11.9519C47.1953 11.6863 46.8887 11.5535 46.5098 11.5535C46.0371 11.5535 45.6133 11.7625 45.2383 12.1804L43.9023 11.9871L44.7461 7.51636H49.0996V9.05737H45.9941L45.7363 10.5164C46.1035 10.3328 46.4785 10.241 46.8613 10.241C47.5918 10.241 48.2109 10.5066 48.7188 11.0378C49.2266 11.5691 49.4805 12.2585 49.4805 13.1062C49.4805 13.8132 49.2754 14.4441 48.8652 14.9988C48.3066 15.7566 47.5312 16.1355 46.5391 16.1355C45.7461 16.1355 45.0996 15.9226 44.5996 15.4968C44.0996 15.071 43.8008 14.4988 43.7031 13.78Z" fill="white"/>
<defs>
<linearGradient id="paint0_linear_67_1831" x1="29.5" y1="1.98901" x2="29.5" y2="21.989" gradientUnits="userSpaceOnUse">
<stop stop-color="#F8E386"/>
<stop offset="1" stop-color="#FF7954"/>
</linearGradient>
</defs>
</svg>
