<svg width="52" height="24" viewBox="0 0 52 24" fill="none" xmlns="http://www.w3.org/2000/svg">
<rect x="2" y="1.98901" width="49" height="20" rx="10" fill="url(#paint0_linear_52_1877)"/>
<rect x="2" y="1.98901" width="49" height="20" rx="10" stroke="#A9C6D9" stroke-width="3" stroke-linejoin="round"/>
<path d="M10.3398 15.989V7.39917H12.9355L14.4941 13.2585L16.0352 7.39917H18.6367V15.989H17.0254V9.22729L15.3203 15.989H13.6504L11.9512 9.22729V15.989H10.3398ZM28.1055 15.989H26.2188L25.4688 14.0378H22.0352L21.3262 15.989H19.4863L22.832 7.39917H24.666L28.1055 15.989ZM24.9121 12.5906L23.7285 9.40308L22.5684 12.5906H24.9121ZM29.0254 7.39917H32.1953C32.9102 7.39917 33.4551 7.45386 33.8301 7.56323C34.334 7.71167 34.7656 7.97534 35.125 8.35425C35.4844 8.73315 35.7578 9.198 35.9453 9.74878C36.1328 10.2957 36.2266 10.9714 36.2266 11.7761C36.2266 12.4832 36.1387 13.0925 35.9629 13.6042C35.748 14.2292 35.4414 14.7351 35.043 15.1218C34.7422 15.4148 34.3359 15.6433 33.8242 15.8074C33.4414 15.9285 32.9297 15.989 32.2891 15.989H29.0254V7.39917ZM30.7598 8.85229V14.5417H32.0547C32.5391 14.5417 32.8887 14.5144 33.1035 14.4597C33.3848 14.3894 33.6172 14.2703 33.8008 14.1023C33.9883 13.9343 34.1406 13.6589 34.2578 13.2761C34.375 12.8894 34.4336 12.364 34.4336 11.7C34.4336 11.0359 34.375 10.5261 34.2578 10.1707C34.1406 9.81519 33.9766 9.53784 33.7656 9.33862C33.5547 9.1394 33.2871 9.00464 32.9629 8.93433C32.7207 8.87964 32.2461 8.85229 31.5391 8.85229H30.7598ZM41.5527 15.989H39.9062V9.78394C39.3047 10.3464 38.5957 10.7625 37.7793 11.032V9.53784C38.209 9.39722 38.6758 9.13159 39.1797 8.74097C39.6836 8.34644 40.0293 7.88745 40.2168 7.36401H41.5527V15.989Z" fill="white"/>
<defs>
<linearGradient id="paint0_linear_52_1877" x1="26.5" y1="1.98901" x2="26.5" y2="21.989" gradientUnits="userSpaceOnUse">
<stop stop-color="#A9C6D9"/>
<stop offset="1" stop-color="#B20057"/>
</linearGradient>
</defs>
</svg>
