<svg width="48" height="24" viewBox="0 0 48 24" fill="none" xmlns="http://www.w3.org/2000/svg">
<rect x="2" y="1.98901" width="45" height="20" rx="10" fill="url(#paint0_linear_52_1885)"/>
<rect x="2" y="1.98901" width="45" height="20" rx="10" stroke="#589BC9" stroke-width="3" stroke-linejoin="round"/>
<path d="M10.0742 15.989V7.46948H11.8086V14.5417H16.1211V15.989H10.0742ZM22.8594 12.8308L24.541 13.364C24.2832 14.3015 23.8535 14.9988 23.252 15.4558C22.6543 15.9089 21.8945 16.1355 20.9727 16.1355C19.832 16.1355 18.8945 15.7468 18.1602 14.9695C17.4258 14.1882 17.0586 13.1218 17.0586 11.7703C17.0586 10.3406 17.4277 9.2312 18.166 8.44214C18.9043 7.64917 19.875 7.25269 21.0781 7.25269C22.1289 7.25269 22.9824 7.56323 23.6387 8.18433C24.0293 8.55151 24.3223 9.07886 24.5176 9.76636L22.8008 10.1765C22.6992 9.7312 22.4863 9.37964 22.1621 9.12183C21.8418 8.86401 21.4512 8.73511 20.9902 8.73511C20.3535 8.73511 19.8359 8.96362 19.4375 9.42065C19.043 9.87769 18.8457 10.6179 18.8457 11.6414C18.8457 12.7273 19.041 13.5007 19.4316 13.9617C19.8223 14.4226 20.3301 14.6531 20.9551 14.6531C21.416 14.6531 21.8125 14.5066 22.1445 14.2136C22.4766 13.9207 22.7148 13.4597 22.8594 12.8308ZM26.0352 15.989V7.39917H28.8184C29.873 7.39917 30.5605 7.44214 30.8809 7.52808C31.373 7.65698 31.7852 7.93823 32.1172 8.37183C32.4492 8.80151 32.6152 9.35815 32.6152 10.0417C32.6152 10.5691 32.5195 11.0125 32.3281 11.3718C32.1367 11.7312 31.8926 12.0144 31.5957 12.2214C31.3027 12.4246 31.0039 12.5593 30.6992 12.6257C30.2852 12.7078 29.6855 12.7488 28.9004 12.7488H27.7695V15.989H26.0352ZM27.7695 8.85229V11.2898H28.7188C29.4023 11.2898 29.8594 11.2449 30.0898 11.155C30.3203 11.0652 30.5 10.9246 30.6289 10.7332C30.7617 10.5417 30.8281 10.3191 30.8281 10.0652C30.8281 9.75269 30.7363 9.49487 30.5527 9.29175C30.3691 9.08862 30.1367 8.96167 29.8555 8.91089C29.6484 8.87183 29.2324 8.85229 28.6074 8.85229H27.7695ZM39.2363 14.4597V15.989H33.4648C33.5273 15.4109 33.7148 14.864 34.0273 14.3484C34.3398 13.8289 34.957 13.1414 35.8789 12.2859C36.6211 11.5945 37.0762 11.1257 37.2441 10.8796C37.4707 10.5398 37.584 10.2039 37.584 9.87183C37.584 9.50464 37.4844 9.22339 37.2852 9.02808C37.0898 8.82886 36.8184 8.72925 36.4707 8.72925C36.127 8.72925 35.8535 8.83276 35.6504 9.03979C35.4473 9.24683 35.3301 9.59058 35.2988 10.071L33.6582 9.90698C33.7559 9.00073 34.0625 8.35034 34.5781 7.95581C35.0938 7.56128 35.7383 7.36401 36.5117 7.36401C37.3594 7.36401 38.0254 7.59253 38.5098 8.04956C38.9941 8.50659 39.2363 9.07495 39.2363 9.75464C39.2363 10.1414 39.166 10.5105 39.0254 10.8621C38.8887 11.2097 38.6699 11.575 38.3691 11.9578C38.1699 12.2117 37.8105 12.5769 37.291 13.0535C36.7715 13.53 36.4414 13.8464 36.3008 14.0027C36.1641 14.1589 36.0527 14.3113 35.9668 14.4597H39.2363Z" fill="white"/>
<defs>
<linearGradient id="paint0_linear_52_1885" x1="24.5" y1="1.98901" x2="24.5" y2="21.989" gradientUnits="userSpaceOnUse">
<stop stop-color="#589BC9"/>
<stop offset="1" stop-color="#67115A"/>
</linearGradient>
</defs>
</svg>
