<svg width="65" height="24" viewBox="0 0 65 24" fill="none" xmlns="http://www.w3.org/2000/svg">
<rect x="1" y="1.98901" width="63" height="20" rx="10" fill="url(#paint0_linear_63_1804)"/>
<rect x="1" y="1.98901" width="63" height="20" rx="10" stroke="#DA4852" stroke-width="3" stroke-linejoin="round"/>
<path d="M9.33789 15.989V7.39917H11.9336L13.4922 13.2585L15.0332 7.39917H17.6348V15.989H16.0234V9.22729L14.3184 15.989H12.6484L10.9492 9.22729V15.989H9.33789ZM21.291 15.989V8.85229H18.7422V7.39917H25.5684V8.85229H23.0254V15.989H21.291ZM26.6934 15.989V7.39917H33.0625V8.85229H28.4277V10.7566H32.7402V12.2039H28.4277V14.5417H33.2266V15.989H26.6934ZM34.7031 15.989V7.39917H38.3535C39.2715 7.39917 39.9375 7.47729 40.3516 7.63354C40.7695 7.78589 41.1035 8.05933 41.3535 8.45386C41.6035 8.84839 41.7285 9.29956 41.7285 9.80737C41.7285 10.4519 41.5391 10.9851 41.1602 11.407C40.7812 11.825 40.2148 12.0886 39.4609 12.198C39.8359 12.4167 40.1445 12.657 40.3867 12.9187C40.6328 13.1804 40.9629 13.6453 41.377 14.3132L42.4258 15.989H40.3516L39.0977 14.1199C38.6523 13.4519 38.3477 13.032 38.1836 12.8601C38.0195 12.6843 37.8457 12.5652 37.6621 12.5027C37.4785 12.4363 37.1875 12.4031 36.7891 12.4031H36.4375V15.989H34.7031ZM36.4375 11.032H37.7207C38.5527 11.032 39.0723 10.9968 39.2793 10.9265C39.4863 10.8562 39.6484 10.7351 39.7656 10.5632C39.8828 10.3914 39.9414 10.1765 39.9414 9.9187C39.9414 9.62964 39.8633 9.39722 39.707 9.22144C39.5547 9.04175 39.3379 8.92847 39.0566 8.88159C38.916 8.86206 38.4941 8.85229 37.791 8.85229H36.4375V11.032ZM43.3809 15.989V7.39917H49.2695V8.85229H45.1152V10.8855H48.7012V12.3386H45.1152V15.989H43.3809ZM54.5547 15.989H52.9082V9.78394C52.3066 10.3464 51.5977 10.7625 50.7812 11.032V9.53784C51.2109 9.39722 51.6777 9.13159 52.1816 8.74097C52.6855 8.34644 53.0312 7.88745 53.2188 7.36401H54.5547V15.989Z" fill="white"/>
<defs>
<linearGradient id="paint0_linear_63_1804" x1="32.5" y1="1.98901" x2="32.5" y2="21.989" gradientUnits="userSpaceOnUse">
<stop stop-color="#430024"/>
<stop offset="1" stop-color="#DA4852"/>
</linearGradient>
</defs>
</svg>
