<svg width="52" height="24" viewBox="0 0 52 24" fill="none" xmlns="http://www.w3.org/2000/svg">
<rect x="2" y="1.98901" width="49" height="20" rx="10" fill="url(#paint0_linear_52_1875)"/>
<rect x="2" y="1.98901" width="49" height="20" rx="10" stroke="#AD1D24" stroke-width="3" stroke-linejoin="round"/>
<path d="M10.3457 15.989V7.39917H12.9414L14.5 13.2585L16.041 7.39917H18.6426V15.989H17.0312V9.22729L15.3262 15.989H13.6562L11.957 9.22729V15.989H10.3457ZM28.1113 15.989H26.2246L25.4746 14.0378H22.041L21.332 15.989H19.4922L22.8379 7.39917H24.6719L28.1113 15.989ZM24.918 12.5906L23.7344 9.40308L22.5742 12.5906H24.918ZM29.0488 15.989V7.39917H34.9375V8.85229H30.7832V10.8855H34.3691V12.3386H30.7832V15.989H29.0488ZM43.4512 15.989H41.5645L40.8145 14.0378H37.3809L36.6719 15.989H34.832L38.1777 7.39917H40.0117L43.4512 15.989ZM40.2578 12.5906L39.0742 9.40308L37.9141 12.5906H40.2578Z" fill="white"/>
<defs>
<linearGradient id="paint0_linear_52_1875" x1="26.5" y1="1.98901" x2="26.5" y2="21.989" gradientUnits="userSpaceOnUse">
<stop stop-color="#AD1D24"/>
<stop offset="1" stop-color="#F79756"/>
</linearGradient>
</defs>
</svg>
