<svg width="52" height="24" viewBox="0 0 52 24" fill="none" xmlns="http://www.w3.org/2000/svg">
<rect x="2" y="1.98901" width="49" height="20" rx="10" fill="url(#paint0_linear_35_1442)"/>
<rect x="2" y="1.98901" width="49" height="20" rx="10" stroke="#1D082E" stroke-width="3" stroke-linejoin="round"/>
<path d="M18.1094 15.989H16.2227L15.4727 14.0378H12.0391L11.3301 15.989H9.49023L12.8359 7.39917H14.6699L18.1094 15.989ZM14.916 12.5906L13.7324 9.40308L12.5723 12.5906H14.916ZM19.041 15.989V7.39917H22.6914C23.6094 7.39917 24.2754 7.47729 24.6895 7.63354C25.1074 7.78589 25.4414 8.05933 25.6914 8.45386C25.9414 8.84839 26.0664 9.29956 26.0664 9.80737C26.0664 10.4519 25.877 10.9851 25.498 11.407C25.1191 11.825 24.5527 12.0886 23.7988 12.198C24.1738 12.4167 24.4824 12.657 24.7246 12.9187C24.9707 13.1804 25.3008 13.6453 25.7148 14.3132L26.7637 15.989H24.6895L23.4355 14.1199C22.9902 13.4519 22.6855 13.032 22.5215 12.8601C22.3574 12.6843 22.1836 12.5652 22 12.5027C21.8164 12.4363 21.5254 12.4031 21.127 12.4031H20.7754V15.989H19.041ZM20.7754 11.032H22.0586C22.8906 11.032 23.4102 10.9968 23.6172 10.9265C23.8242 10.8562 23.9863 10.7351 24.1035 10.5632C24.2207 10.3914 24.2793 10.1765 24.2793 9.9187C24.2793 9.62964 24.2012 9.39722 24.0449 9.22144C23.8926 9.04175 23.6758 8.92847 23.3945 8.88159C23.2539 8.86206 22.832 8.85229 22.1289 8.85229H20.7754V11.032ZM27.2676 13.1941L28.9551 13.03C29.0566 13.5964 29.2617 14.0125 29.5703 14.2781C29.8828 14.5437 30.3027 14.6765 30.8301 14.6765C31.3887 14.6765 31.8086 14.5593 32.0898 14.325C32.375 14.0867 32.5176 13.8093 32.5176 13.4929C32.5176 13.2898 32.457 13.1179 32.3359 12.9773C32.2188 12.8328 32.0117 12.7078 31.7148 12.6023C31.5117 12.532 31.0488 12.407 30.3262 12.2273C29.3965 11.9968 28.7441 11.7136 28.3691 11.3777C27.8418 10.905 27.5781 10.3289 27.5781 9.64917C27.5781 9.21167 27.7012 8.80347 27.9473 8.42456C28.1973 8.04175 28.5547 7.75073 29.0195 7.55151C29.4883 7.35229 30.0527 7.25269 30.7129 7.25269C31.791 7.25269 32.6016 7.48901 33.1445 7.96167C33.6914 8.43433 33.9785 9.06519 34.0059 9.85425L32.2715 9.93042C32.1973 9.48901 32.0371 9.17261 31.791 8.9812C31.5488 8.78589 31.1836 8.68823 30.6953 8.68823C30.1914 8.68823 29.7969 8.79175 29.5117 8.99878C29.3281 9.13159 29.2363 9.30933 29.2363 9.53198C29.2363 9.73511 29.3223 9.90894 29.4941 10.0535C29.7129 10.2371 30.2441 10.4285 31.0879 10.6277C31.9316 10.8269 32.5547 11.0339 32.957 11.2488C33.3633 11.4597 33.6797 11.7507 33.9062 12.1218C34.1367 12.489 34.252 12.9441 34.252 13.4871C34.252 13.9792 34.1152 14.4402 33.8418 14.8699C33.5684 15.2996 33.1816 15.6199 32.6816 15.8308C32.1816 16.0378 31.5586 16.1414 30.8125 16.1414C29.7266 16.1414 28.8926 15.8914 28.3105 15.3914C27.7285 14.8875 27.3809 14.155 27.2676 13.1941ZM35.7168 7.39917H39.1504C39.8301 7.39917 40.3359 7.42847 40.668 7.48706C41.0039 7.54175 41.3027 7.65894 41.5645 7.83862C41.8301 8.01831 42.0508 8.25854 42.2266 8.55933C42.4023 8.8562 42.4902 9.19019 42.4902 9.56128C42.4902 9.96362 42.3809 10.3328 42.1621 10.6687C41.9473 11.0046 41.6543 11.2566 41.2832 11.4246C41.8066 11.5769 42.209 11.8367 42.4902 12.2039C42.7715 12.571 42.9121 13.0027 42.9121 13.4988C42.9121 13.8894 42.8203 14.2703 42.6367 14.6414C42.457 15.0085 42.209 15.3035 41.8926 15.5261C41.5801 15.7449 41.1934 15.8796 40.7324 15.9304C40.4434 15.9617 39.7461 15.9812 38.6406 15.989H35.7168V7.39917ZM37.4512 8.82886V10.8152H38.5879C39.2637 10.8152 39.6836 10.8054 39.8477 10.7859C40.1445 10.7507 40.377 10.6492 40.5449 10.4812C40.7168 10.3093 40.8027 10.0847 40.8027 9.80737C40.8027 9.54175 40.7285 9.3269 40.5801 9.16284C40.4355 8.99487 40.2188 8.89331 39.9297 8.85815C39.7578 8.83862 39.2637 8.82886 38.4473 8.82886H37.4512ZM37.4512 12.2449V14.5417H39.0566C39.6816 14.5417 40.0781 14.5242 40.2461 14.489C40.5039 14.4421 40.7129 14.3289 40.873 14.1492C41.0371 13.9656 41.1191 13.7214 41.1191 13.4167C41.1191 13.1589 41.0566 12.9402 40.9316 12.7605C40.8066 12.5808 40.625 12.45 40.3867 12.3679C40.1523 12.2859 39.6406 12.2449 38.8516 12.2449H37.4512Z" fill="white"/>
<defs>
<linearGradient id="paint0_linear_35_1442" x1="26.5" y1="1.98901" x2="26.5" y2="21.989" gradientUnits="userSpaceOnUse">
<stop stop-color="#CDA3D7"/>
<stop offset="1" stop-color="#1D082E"/>
</linearGradient>
</defs>
</svg>
