<svg width="60" height="24" viewBox="0 0 60 24" fill="none" xmlns="http://www.w3.org/2000/svg">
<rect x="2" y="1.98901" width="57" height="20" rx="10" fill="url(#paint0_linear_85_2072)"/>
<rect x="2" y="1.98901" width="57" height="20" rx="10" stroke="#F89E1C" stroke-width="3" stroke-linejoin="round"/>
<path d="M9.27148 15.989V14.4246L13.7832 8.85229H9.78125V7.39917H16.0684V8.74683L11.3633 14.5417H16.25V15.989H9.27148ZM17.3633 15.989V7.39917H23.252V8.85229H19.0977V10.8855H22.6836V12.3386H19.0977V15.989H17.3633ZM24.6875 15.989V7.39917H27.4707C28.5254 7.39917 29.2129 7.44214 29.5332 7.52808C30.0254 7.65698 30.4375 7.93823 30.7695 8.37183C31.1016 8.80151 31.2676 9.35815 31.2676 10.0417C31.2676 10.5691 31.1719 11.0125 30.9805 11.3718C30.7891 11.7312 30.5449 12.0144 30.248 12.2214C29.9551 12.4246 29.6562 12.5593 29.3516 12.6257C28.9375 12.7078 28.3379 12.7488 27.5527 12.7488H26.4219V15.989H24.6875ZM26.4219 8.85229V11.2898H27.3711C28.0547 11.2898 28.5117 11.2449 28.7422 11.155C28.9727 11.0652 29.1523 10.9246 29.2812 10.7332C29.4141 10.5417 29.4805 10.3191 29.4805 10.0652C29.4805 9.75269 29.3887 9.49487 29.2051 9.29175C29.0215 9.08862 28.7891 8.96167 28.5078 8.91089C28.3008 8.87183 27.8848 8.85229 27.2598 8.85229H26.4219ZM36.541 15.989H34.8945V9.78394C34.293 10.3464 33.584 10.7625 32.7676 11.032V9.53784C33.1973 9.39722 33.6641 9.13159 34.168 8.74097C34.6719 8.34644 35.0176 7.88745 35.2051 7.36401H36.541V15.989ZM41.791 7.36401C42.623 7.36401 43.2734 7.66089 43.7422 8.25464C44.3008 8.95776 44.5801 10.1238 44.5801 11.7527C44.5801 13.3777 44.2988 14.5457 43.7363 15.2566C43.2715 15.8425 42.623 16.1355 41.791 16.1355C40.9551 16.1355 40.2812 15.8152 39.7695 15.1746C39.2578 14.53 39.002 13.3835 39.002 11.7351C39.002 10.1179 39.2832 8.95386 39.8457 8.24292C40.3105 7.65698 40.959 7.36401 41.791 7.36401ZM41.791 8.72925C41.5918 8.72925 41.4141 8.7937 41.2578 8.92261C41.1016 9.04761 40.9805 9.27417 40.8945 9.60229C40.7812 10.0281 40.7246 10.7449 40.7246 11.7527C40.7246 12.7605 40.7754 13.4539 40.877 13.8328C40.9785 14.2078 41.1055 14.4578 41.2578 14.5828C41.4141 14.7078 41.5918 14.7703 41.791 14.7703C41.9902 14.7703 42.168 14.7078 42.3242 14.5828C42.4805 14.4539 42.6016 14.2253 42.6875 13.8972C42.8008 13.4753 42.8574 12.7605 42.8574 11.7527C42.8574 10.7449 42.8066 10.0535 42.7051 9.67847C42.6035 9.29956 42.4746 9.04761 42.3184 8.92261C42.166 8.7937 41.9902 8.72925 41.791 8.72925ZM48.4707 7.36401C49.3027 7.36401 49.9531 7.66089 50.4219 8.25464C50.9805 8.95776 51.2598 10.1238 51.2598 11.7527C51.2598 13.3777 50.9785 14.5457 50.416 15.2566C49.9512 15.8425 49.3027 16.1355 48.4707 16.1355C47.6348 16.1355 46.9609 15.8152 46.4492 15.1746C45.9375 14.53 45.6816 13.3835 45.6816 11.7351C45.6816 10.1179 45.9629 8.95386 46.5254 8.24292C46.9902 7.65698 47.6387 7.36401 48.4707 7.36401ZM48.4707 8.72925C48.2715 8.72925 48.0938 8.7937 47.9375 8.92261C47.7812 9.04761 47.6602 9.27417 47.5742 9.60229C47.4609 10.0281 47.4043 10.7449 47.4043 11.7527C47.4043 12.7605 47.4551 13.4539 47.5566 13.8328C47.6582 14.2078 47.7852 14.4578 47.9375 14.5828C48.0938 14.7078 48.2715 14.7703 48.4707 14.7703C48.6699 14.7703 48.8477 14.7078 49.0039 14.5828C49.1602 14.4539 49.2812 14.2253 49.3672 13.8972C49.4805 13.4753 49.5371 12.7605 49.5371 11.7527C49.5371 10.7449 49.4863 10.0535 49.3848 9.67847C49.2832 9.29956 49.1543 9.04761 48.998 8.92261C48.8457 8.7937 48.6699 8.72925 48.4707 8.72925Z" fill="white"/>
<defs>
<linearGradient id="paint0_linear_85_2072" x1="30.5" y1="1.98901" x2="30.5" y2="21.989" gradientUnits="userSpaceOnUse">
<stop stop-color="#F89E1C"/>
<stop offset="1" stop-color="#1B5843"/>
</linearGradient>
</defs>
</svg>
