<svg width="51" height="24" viewBox="0 0 51 24" fill="none" xmlns="http://www.w3.org/2000/svg">
<rect x="2" y="1.98901" width="48" height="20" rx="10" fill="url(#paint0_linear_50_1837)"/>
<rect x="2" y="1.98901" width="48" height="20" rx="10" stroke="#7F6BD1" stroke-width="3" stroke-linejoin="round"/>
<path d="M9.95703 15.989V7.39917H12.5527L14.1113 13.2585L15.6523 7.39917H18.2539V15.989H16.6426V9.22729L14.9375 15.989H13.2676L11.5684 9.22729V15.989H9.95703ZM27.7227 15.989H25.8359L25.0859 14.0378H21.6523L20.9434 15.989H19.1035L22.4492 7.39917H24.2832L27.7227 15.989ZM24.5293 12.5906L23.3457 9.40308L22.1855 12.5906H24.5293ZM29.9492 15.989L26.8789 7.39917H28.7598L30.9336 13.7566L33.0371 7.39917H34.877L31.8008 15.989H29.9492ZM35.3223 13.1941L37.0098 13.03C37.1113 13.5964 37.3164 14.0125 37.625 14.2781C37.9375 14.5437 38.3574 14.6765 38.8848 14.6765C39.4434 14.6765 39.8633 14.5593 40.1445 14.325C40.4297 14.0867 40.5723 13.8093 40.5723 13.4929C40.5723 13.2898 40.5117 13.1179 40.3906 12.9773C40.2734 12.8328 40.0664 12.7078 39.7695 12.6023C39.5664 12.532 39.1035 12.407 38.3809 12.2273C37.4512 11.9968 36.7988 11.7136 36.4238 11.3777C35.8965 10.905 35.6328 10.3289 35.6328 9.64917C35.6328 9.21167 35.7559 8.80347 36.002 8.42456C36.252 8.04175 36.6094 7.75073 37.0742 7.55151C37.543 7.35229 38.1074 7.25269 38.7676 7.25269C39.8457 7.25269 40.6562 7.48901 41.1992 7.96167C41.7461 8.43433 42.0332 9.06519 42.0605 9.85425L40.3262 9.93042C40.252 9.48901 40.0918 9.17261 39.8457 8.9812C39.6035 8.78589 39.2383 8.68823 38.75 8.68823C38.2461 8.68823 37.8516 8.79175 37.5664 8.99878C37.3828 9.13159 37.291 9.30933 37.291 9.53198C37.291 9.73511 37.377 9.90894 37.5488 10.0535C37.7676 10.2371 38.2988 10.4285 39.1426 10.6277C39.9863 10.8269 40.6094 11.0339 41.0117 11.2488C41.418 11.4597 41.7344 11.7507 41.9609 12.1218C42.1914 12.489 42.3066 12.9441 42.3066 13.4871C42.3066 13.9792 42.1699 14.4402 41.8965 14.8699C41.623 15.2996 41.2363 15.6199 40.7363 15.8308C40.2363 16.0378 39.6133 16.1414 38.8672 16.1414C37.7812 16.1414 36.9473 15.8914 36.3652 15.3914C35.7832 14.8875 35.4355 14.155 35.3223 13.1941Z" fill="white"/>
<defs>
<linearGradient id="paint0_linear_50_1837" x1="26" y1="1.98901" x2="26" y2="21.989" gradientUnits="userSpaceOnUse">
<stop stop-color="#7F6BD1"/>
<stop offset="1" stop-color="#431626"/>
</linearGradient>
</defs>
</svg>
