<svg width="48" height="24" viewBox="0 0 48 24" fill="none" xmlns="http://www.w3.org/2000/svg">
<rect x="2" y="1.98901" width="45" height="20" rx="10" fill="url(#paint0_linear_84_2057)"/>
<rect x="2" y="1.98901" width="45" height="20" rx="10" stroke="#28AD1E" stroke-width="3" stroke-linejoin="round"/>
<path d="M11.9609 15.989V8.85229H9.41211V7.39917H16.2383V8.85229H13.6953V15.989H11.9609ZM19.6191 15.989V12.3738L16.4727 7.39917H18.5059L20.5273 10.7976L22.5078 7.39917H24.5059L21.3477 12.3855V15.989H19.6191ZM25.3906 15.989V7.39917H27.125V11.2136L30.6289 7.39917H32.9609L29.7266 10.7449L33.1367 15.989H30.8926L28.5312 11.9578L27.125 13.3933V15.989H25.3906ZM39.2363 14.4597V15.989H33.4648C33.5273 15.4109 33.7148 14.864 34.0273 14.3484C34.3398 13.8289 34.957 13.1414 35.8789 12.2859C36.6211 11.5945 37.0762 11.1257 37.2441 10.8796C37.4707 10.5398 37.584 10.2039 37.584 9.87183C37.584 9.50464 37.4844 9.22339 37.2852 9.02808C37.0898 8.82886 36.8184 8.72925 36.4707 8.72925C36.127 8.72925 35.8535 8.83276 35.6504 9.03979C35.4473 9.24683 35.3301 9.59058 35.2988 10.071L33.6582 9.90698C33.7559 9.00073 34.0625 8.35034 34.5781 7.95581C35.0938 7.56128 35.7383 7.36401 36.5117 7.36401C37.3594 7.36401 38.0254 7.59253 38.5098 8.04956C38.9941 8.50659 39.2363 9.07495 39.2363 9.75464C39.2363 10.1414 39.166 10.5105 39.0254 10.8621C38.8887 11.2097 38.6699 11.575 38.3691 11.9578C38.1699 12.2117 37.8105 12.5769 37.291 13.0535C36.7715 13.53 36.4414 13.8464 36.3008 14.0027C36.1641 14.1589 36.0527 14.3113 35.9668 14.4597H39.2363Z" fill="white"/>
<defs>
<linearGradient id="paint0_linear_84_2057" x1="24.5" y1="1.98901" x2="24.5" y2="21.989" gradientUnits="userSpaceOnUse">
<stop stop-color="#28AD1E"/>
<stop offset="1" stop-color="#00000A"/>
</linearGradient>
</defs>
</svg>
