<svg width="147" height="24" viewBox="0 0 147 24" fill="none" xmlns="http://www.w3.org/2000/svg">
<rect x="1" y="1.98901" width="145" height="20" rx="10" fill="url(#paint0_linear_67_1927)"/>
<rect x="1" y="1.98901" width="145" height="20" rx="10" stroke="#177596" stroke-width="3" stroke-linejoin="round"/>
<path d="M8.56055 13.1941L10.248 13.03C10.3496 13.5964 10.5547 14.0125 10.8633 14.2781C11.1758 14.5437 11.5957 14.6765 12.123 14.6765C12.6816 14.6765 13.1016 14.5593 13.3828 14.325C13.668 14.0867 13.8105 13.8093 13.8105 13.4929C13.8105 13.2898 13.75 13.1179 13.6289 12.9773C13.5117 12.8328 13.3047 12.7078 13.0078 12.6023C12.8047 12.532 12.3418 12.407 11.6191 12.2273C10.6895 11.9968 10.0371 11.7136 9.66211 11.3777C9.13477 10.905 8.87109 10.3289 8.87109 9.64917C8.87109 9.21167 8.99414 8.80347 9.24023 8.42456C9.49023 8.04175 9.84766 7.75073 10.3125 7.55151C10.7812 7.35229 11.3457 7.25269 12.0059 7.25269C13.084 7.25269 13.8945 7.48901 14.4375 7.96167C14.9844 8.43433 15.2715 9.06519 15.2988 9.85425L13.5645 9.93042C13.4902 9.48901 13.3301 9.17261 13.084 8.9812C12.8418 8.78589 12.4766 8.68823 11.9883 8.68823C11.4844 8.68823 11.0898 8.79175 10.8047 8.99878C10.6211 9.13159 10.5293 9.30933 10.5293 9.53198C10.5293 9.73511 10.6152 9.90894 10.7871 10.0535C11.0059 10.2371 11.5371 10.4285 12.3809 10.6277C13.2246 10.8269 13.8477 11.0339 14.25 11.2488C14.6562 11.4597 14.9727 11.7507 15.1992 12.1218C15.4297 12.489 15.5449 12.9441 15.5449 13.4871C15.5449 13.9792 15.4082 14.4402 15.1348 14.8699C14.8613 15.2996 14.4746 15.6199 13.9746 15.8308C13.4746 16.0378 12.8516 16.1414 12.1055 16.1414C11.0195 16.1414 10.1855 15.8914 9.60352 15.3914C9.02148 14.8875 8.67383 14.155 8.56055 13.1941ZM16.9512 15.989V7.39917H18.6855V15.989H16.9512ZM28.0898 15.989H26.2031L25.4531 14.0378H22.0195L21.3105 15.989H19.4707L22.8164 7.39917H24.6504L28.0898 15.989ZM24.8965 12.5906L23.7129 9.40308L22.5527 12.5906H24.8965ZM29.0625 15.989V7.46948H30.7969V14.5417H35.1094V15.989H29.0625ZM37.5059 15.989V12.3738L34.3594 7.39917H36.3926L38.4141 10.7976L40.3945 7.39917H42.3926L39.2344 12.3855V15.989H37.5059ZM43.3008 15.989V7.46948H45.0352V14.5417H49.3477V15.989H43.3008ZM51.6328 15.989V8.85229H49.084V7.39917H55.9102V8.85229H53.3672V15.989H51.6328ZM57.041 15.989V7.39917H60.6914C61.6094 7.39917 62.2754 7.47729 62.6895 7.63354C63.1074 7.78589 63.4414 8.05933 63.6914 8.45386C63.9414 8.84839 64.0664 9.29956 64.0664 9.80737C64.0664 10.4519 63.877 10.9851 63.498 11.407C63.1191 11.825 62.5527 12.0886 61.7988 12.198C62.1738 12.4167 62.4824 12.657 62.7246 12.9187C62.9707 13.1804 63.3008 13.6453 63.7148 14.3132L64.7637 15.989H62.6895L61.4355 14.1199C60.9902 13.4519 60.6855 13.032 60.5215 12.8601C60.3574 12.6843 60.1836 12.5652 60 12.5027C59.8164 12.4363 59.5254 12.4031 59.127 12.4031H58.7754V15.989H57.041ZM58.7754 11.032H60.0586C60.8906 11.032 61.4102 10.9968 61.6172 10.9265C61.8242 10.8562 61.9863 10.7351 62.1035 10.5632C62.2207 10.3914 62.2793 10.1765 62.2793 9.9187C62.2793 9.62964 62.2012 9.39722 62.0449 9.22144C61.8926 9.04175 61.6758 8.92847 61.3945 8.88159C61.2539 8.86206 60.832 8.85229 60.1289 8.85229H58.7754V11.032ZM73.4531 15.989H71.5664L70.8164 14.0378H67.3828L66.6738 15.989H64.834L68.1797 7.39917H70.0137L73.4531 15.989ZM70.2598 12.5906L69.0762 9.40308L67.916 12.5906H70.2598ZM74.3965 15.989V7.39917H76.084L79.5996 13.1355V7.39917H81.2109V15.989H79.4707L76.0078 10.3875V15.989H74.3965ZM82.6113 13.1941L84.2988 13.03C84.4004 13.5964 84.6055 14.0125 84.9141 14.2781C85.2266 14.5437 85.6465 14.6765 86.1738 14.6765C86.7324 14.6765 87.1523 14.5593 87.4336 14.325C87.7188 14.0867 87.8613 13.8093 87.8613 13.4929C87.8613 13.2898 87.8008 13.1179 87.6797 12.9773C87.5625 12.8328 87.3555 12.7078 87.0586 12.6023C86.8555 12.532 86.3926 12.407 85.6699 12.2273C84.7402 11.9968 84.0879 11.7136 83.7129 11.3777C83.1855 10.905 82.9219 10.3289 82.9219 9.64917C82.9219 9.21167 83.0449 8.80347 83.291 8.42456C83.541 8.04175 83.8984 7.75073 84.3633 7.55151C84.832 7.35229 85.3965 7.25269 86.0566 7.25269C87.1348 7.25269 87.9453 7.48901 88.4883 7.96167C89.0352 8.43433 89.3223 9.06519 89.3496 9.85425L87.6152 9.93042C87.541 9.48901 87.3809 9.17261 87.1348 8.9812C86.8926 8.78589 86.5273 8.68823 86.0391 8.68823C85.5352 8.68823 85.1406 8.79175 84.8555 8.99878C84.6719 9.13159 84.5801 9.30933 84.5801 9.53198C84.5801 9.73511 84.666 9.90894 84.8379 10.0535C85.0566 10.2371 85.5879 10.4285 86.4316 10.6277C87.2754 10.8269 87.8984 11.0339 88.3008 11.2488C88.707 11.4597 89.0234 11.7507 89.25 12.1218C89.4805 12.489 89.5957 12.9441 89.5957 13.4871C89.5957 13.9792 89.459 14.4402 89.1855 14.8699C88.9121 15.2996 88.5254 15.6199 88.0254 15.8308C87.5254 16.0378 86.9023 16.1414 86.1562 16.1414C85.0703 16.1414 84.2363 15.8914 83.6543 15.3914C83.0723 14.8875 82.7246 14.155 82.6113 13.1941ZM91.0664 15.989V7.39917H96.9551V8.85229H92.8008V10.8855H96.3867V12.3386H92.8008V15.989H91.0664ZM98.3906 15.989V7.39917H104.76V8.85229H100.125V10.7566H104.438V12.2039H100.125V14.5417H104.924V15.989H98.3906ZM106.4 15.989V7.39917H110.051C110.969 7.39917 111.635 7.47729 112.049 7.63354C112.467 7.78589 112.801 8.05933 113.051 8.45386C113.301 8.84839 113.426 9.29956 113.426 9.80737C113.426 10.4519 113.236 10.9851 112.857 11.407C112.479 11.825 111.912 12.0886 111.158 12.198C111.533 12.4167 111.842 12.657 112.084 12.9187C112.33 13.1804 112.66 13.6453 113.074 14.3132L114.123 15.989H112.049L110.795 14.1199C110.35 13.4519 110.045 13.032 109.881 12.8601C109.717 12.6843 109.543 12.5652 109.359 12.5027C109.176 12.4363 108.885 12.4031 108.486 12.4031H108.135V15.989H106.4ZM108.135 11.032H109.418C110.25 11.032 110.77 10.9968 110.977 10.9265C111.184 10.8562 111.346 10.7351 111.463 10.5632C111.58 10.3914 111.639 10.1765 111.639 9.9187C111.639 9.62964 111.561 9.39722 111.404 9.22144C111.252 9.04175 111.035 8.92847 110.754 8.88159C110.613 8.86206 110.191 8.85229 109.488 8.85229H108.135V11.032ZM122.812 15.989H120.926L120.176 14.0378H116.742L116.033 15.989H114.193L117.539 7.39917H119.373L122.812 15.989ZM119.619 12.5906L118.436 9.40308L117.275 12.5906H119.619ZM123.299 13.1941L124.986 13.03C125.088 13.5964 125.293 14.0125 125.602 14.2781C125.914 14.5437 126.334 14.6765 126.861 14.6765C127.42 14.6765 127.84 14.5593 128.121 14.325C128.406 14.0867 128.549 13.8093 128.549 13.4929C128.549 13.2898 128.488 13.1179 128.367 12.9773C128.25 12.8328 128.043 12.7078 127.746 12.6023C127.543 12.532 127.08 12.407 126.357 12.2273C125.428 11.9968 124.775 11.7136 124.4 11.3777C123.873 10.905 123.609 10.3289 123.609 9.64917C123.609 9.21167 123.732 8.80347 123.979 8.42456C124.229 8.04175 124.586 7.75073 125.051 7.55151C125.52 7.35229 126.084 7.25269 126.744 7.25269C127.822 7.25269 128.633 7.48901 129.176 7.96167C129.723 8.43433 130.01 9.06519 130.037 9.85425L128.303 9.93042C128.229 9.48901 128.068 9.17261 127.822 8.9812C127.58 8.78589 127.215 8.68823 126.727 8.68823C126.223 8.68823 125.828 8.79175 125.543 8.99878C125.359 9.13159 125.268 9.30933 125.268 9.53198C125.268 9.73511 125.354 9.90894 125.525 10.0535C125.744 10.2371 126.275 10.4285 127.119 10.6277C127.963 10.8269 128.586 11.0339 128.988 11.2488C129.395 11.4597 129.711 11.7507 129.938 12.1218C130.168 12.489 130.283 12.9441 130.283 13.4871C130.283 13.9792 130.146 14.4402 129.873 14.8699C129.6 15.2996 129.213 15.6199 128.713 15.8308C128.213 16.0378 127.59 16.1414 126.844 16.1414C125.758 16.1414 124.924 15.8914 124.342 15.3914C123.76 14.8875 123.412 14.155 123.299 13.1941ZM131.742 15.989V7.39917H138.111V8.85229H133.477V10.7566H137.789V12.2039H133.477V14.5417H138.275V15.989H131.742Z" fill="white"/>
<defs>
<linearGradient id="paint0_linear_67_1927" x1="73.5" y1="1.98901" x2="73.5" y2="21.989" gradientUnits="userSpaceOnUse">
<stop stop-color="#177596"/>
<stop offset="1" stop-color="#004D00"/>
</linearGradient>
</defs>
</svg>
