<svg width="50" height="24" viewBox="0 0 50 24" fill="none" xmlns="http://www.w3.org/2000/svg">
<rect x="2" y="1.98901" width="47" height="20" rx="10" fill="url(#paint0_linear_64_1875)"/>
<rect x="2" y="1.98901" width="47" height="20" rx="10" stroke="#EDE955" stroke-width="3" stroke-linejoin="round"/>
<path d="M10.377 15.989V7.39917H12.0645L15.5801 13.1355V7.39917H17.1914V15.989H15.4512L11.9883 10.3875V15.989H10.377ZM19.0312 15.989V7.39917H25.4004V8.85229H20.7656V10.7566H25.0781V12.2039H20.7656V14.5417H25.5645V15.989H19.0312ZM27.0234 7.39917H28.7578V12.0515C28.7578 12.7898 28.7793 13.2683 28.8223 13.4871C28.8965 13.8386 29.0723 14.1218 29.3496 14.3367C29.6309 14.5476 30.0137 14.6531 30.498 14.6531C30.9902 14.6531 31.3613 14.5535 31.6113 14.3542C31.8613 14.1511 32.0117 13.9031 32.0625 13.6101C32.1133 13.3171 32.1387 12.8308 32.1387 12.1511V7.39917H33.873V11.9109C33.873 12.9421 33.8262 13.6707 33.7324 14.0964C33.6387 14.5222 33.4648 14.8816 33.2109 15.1746C32.9609 15.4675 32.625 15.7019 32.2031 15.8777C31.7812 16.0496 31.2305 16.1355 30.5508 16.1355C29.7305 16.1355 29.1074 16.0417 28.6816 15.8542C28.2598 15.6628 27.9258 15.4167 27.6797 15.116C27.4336 14.8113 27.2715 14.4929 27.1934 14.1609C27.0801 13.6687 27.0234 12.9421 27.0234 11.9812V7.39917ZM39.5566 15.989H37.9102V9.78394C37.3086 10.3464 36.5996 10.7625 35.7832 11.032V9.53784C36.2129 9.39722 36.6797 9.13159 37.1836 8.74097C37.6875 8.34644 38.0332 7.88745 38.2207 7.36401H39.5566V15.989Z" fill="white"/>
<defs>
<linearGradient id="paint0_linear_64_1875" x1="25.5" y1="1.98901" x2="25.5" y2="21.989" gradientUnits="userSpaceOnUse">
<stop stop-color="#2DB31E"/>
<stop offset="1" stop-color="#EDE955"/>
</linearGradient>
</defs>
</svg>
