<svg width="49" height="24" viewBox="0 0 49 24" fill="none" xmlns="http://www.w3.org/2000/svg">
<rect x="2" y="1.98901" width="46" height="20" rx="10" fill="url(#paint0_linear_33_1392)"/>
<rect x="2" y="1.98901" width="46" height="20" rx="10" stroke="#CC7FEE" stroke-width="3" stroke-linejoin="round"/>
<path d="M17.9395 15.989H16.0527L15.3027 14.0378H11.8691L11.1602 15.989H9.32031L12.666 7.39917H14.5L17.9395 15.989ZM14.7461 12.5906L13.5625 9.40308L12.4023 12.5906H14.7461ZM22.7148 15.989H21.0684V9.78394C20.4668 10.3464 19.7578 10.7625 18.9414 11.032V9.53784C19.3711 9.39722 19.8379 9.13159 20.3418 8.74097C20.8457 8.34644 21.1914 7.88745 21.3789 7.36401H22.7148V15.989ZM31.041 12.8308L32.7227 13.364C32.4648 14.3015 32.0352 14.9988 31.4336 15.4558C30.8359 15.9089 30.0762 16.1355 29.1543 16.1355C28.0137 16.1355 27.0762 15.7468 26.3418 14.9695C25.6074 14.1882 25.2402 13.1218 25.2402 11.7703C25.2402 10.3406 25.6094 9.2312 26.3477 8.44214C27.0859 7.64917 28.0566 7.25269 29.2598 7.25269C30.3105 7.25269 31.1641 7.56323 31.8203 8.18433C32.2109 8.55151 32.5039 9.07886 32.6992 9.76636L30.9824 10.1765C30.8809 9.7312 30.668 9.37964 30.3438 9.12183C30.0234 8.86401 29.6328 8.73511 29.1719 8.73511C28.5352 8.73511 28.0176 8.96362 27.6191 9.42065C27.2246 9.87769 27.0273 10.6179 27.0273 11.6414C27.0273 12.7273 27.2227 13.5007 27.6133 13.9617C28.0039 14.4226 28.5117 14.6531 29.1367 14.6531C29.5977 14.6531 29.9941 14.5066 30.3262 14.2136C30.6582 13.9207 30.8965 13.4597 31.041 12.8308ZM34.2285 15.989V7.39917H40.1172V8.85229H35.9629V10.8855H39.5488V12.3386H35.9629V15.989H34.2285Z" fill="white"/>
<defs>
<linearGradient id="paint0_linear_33_1392" x1="25" y1="1.98901" x2="25" y2="21.989" gradientUnits="userSpaceOnUse">
<stop stop-color="#1A2142"/>
<stop offset="1" stop-color="#CC7FEE"/>
</linearGradient>
</defs>
</svg>
