<svg width="31" height="157" viewBox="0 0 31 157" fill="none" xmlns="http://www.w3.org/2000/svg">
<path d="M15.4443 157.008C12.1308 157.008 9.44434 154.322 9.44434 151.008V73.5066C9.44434 70.1931 12.1308 67.5066 15.4443 67.5066C18.7578 67.5066 21.4443 70.1931 21.4443 73.5066V151.008C21.4443 154.322 18.7578 157.008 15.4443 157.008Z" fill="url(#paint0_linear_86_2992)"/>
<path d="M23.4443 4.96289H7.44434V73.5065H23.4443V4.96289Z" fill="url(#paint1_linear_86_2992)"/>
<path d="M30.2872 4.96289C30.2872 7.44839 26.0898 9.46289 20.9129 9.46289H9.97596C4.79896 9.46289 0.601562 7.44839 0.601562 4.96289C0.601562 2.47739 4.79896 0.462891 9.97596 0.462891H20.9129C26.0898 0.462891 30.2872 2.47739 30.2872 4.96289Z" fill="url(#paint2_radial_86_2992)"/>
<path d="M30.2872 16.3867C30.2872 18.8722 26.0898 20.8867 20.9129 20.8867H9.97598C4.79908 20.8867 0.601685 18.8722 0.601685 16.3867C0.601685 13.9012 4.79908 11.8867 9.97598 11.8867H20.9129C26.0898 11.8867 30.2872 13.9012 30.2872 16.3867Z" fill="url(#paint3_radial_86_2992)"/>
<path d="M30.2871 27.8108C30.2871 30.2963 26.0897 32.3108 20.9128 32.3108H9.97586C4.79896 32.3108 0.601562 30.2963 0.601562 27.8108C0.601562 25.3253 4.79896 23.3108 9.97586 23.3108H20.9128C26.0898 23.3108 30.2871 25.3252 30.2871 27.8108Z" fill="url(#paint4_radial_86_2992)"/>
<path d="M30.2871 39.2346C30.2871 41.7201 26.0897 43.7346 20.9128 43.7346H9.97586C4.79896 43.7346 0.601562 41.7201 0.601562 39.2346C0.601562 36.7491 4.79896 34.7346 9.97586 34.7346H20.9128C26.0898 34.7346 30.2871 36.7491 30.2871 39.2346Z" fill="url(#paint5_radial_86_2992)"/>
<path d="M30.2872 50.6587C30.2872 53.1442 26.0898 55.1587 20.9129 55.1587H9.97598C4.79908 55.1587 0.601685 53.1442 0.601685 50.6587C0.601685 48.1732 4.79908 46.1587 9.97598 46.1587H20.9129C26.0898 46.1587 30.2872 48.1732 30.2872 50.6587Z" fill="url(#paint6_radial_86_2992)"/>
<path d="M30.2871 62.0825C30.2871 64.568 26.0897 66.5825 20.9128 66.5825H9.97586C4.79896 66.5825 0.601562 64.568 0.601562 62.0825C0.601562 59.597 4.79896 57.5825 9.97586 57.5825H20.9128C26.0898 57.5825 30.2871 59.5969 30.2871 62.0825Z" fill="url(#paint7_radial_86_2992)"/>
<path d="M30.2871 73.5066C30.2871 75.9921 26.0897 78.0066 20.9128 78.0066H9.97586C4.79896 78.0066 0.601562 75.9921 0.601562 73.5066C0.601562 71.0211 4.79896 69.0066 9.97586 69.0066H20.9128C26.0898 69.0066 30.2871 71.0211 30.2871 73.5066Z" fill="url(#paint8_radial_86_2992)"/>
<defs>
<linearGradient id="paint0_linear_86_2992" x1="9.32414" y1="112.257" x2="21.44" y2="112.257" gradientUnits="userSpaceOnUse">
<stop stop-color="#C45AAF"/>
<stop offset="0.0332" stop-color="#CF6BBB"/>
<stop offset="0.1254" stop-color="#E995D8"/>
<stop offset="0.1979" stop-color="#F9AEEA"/>
<stop offset="0.2412" stop-color="#FFB8F1"/>
<stop offset="0.4769" stop-color="#D676C3"/>
<stop offset="0.5957" stop-color="#C45AAF"/>
<stop offset="1" stop-color="#4D0A40"/>
</linearGradient>
<linearGradient id="paint1_linear_86_2992" x1="7.44434" y1="39.2347" x2="23.4443" y2="39.2347" gradientUnits="userSpaceOnUse">
<stop stop-color="#C45AAF"/>
<stop offset="0.0332" stop-color="#CF6BBB"/>
<stop offset="0.1254" stop-color="#E995D8"/>
<stop offset="0.1979" stop-color="#F9AEEA"/>
<stop offset="0.2412" stop-color="#FFB8F1"/>
<stop offset="0.4769" stop-color="#D676C3"/>
<stop offset="0.5957" stop-color="#C45AAF"/>
<stop offset="1" stop-color="#4D0A40"/>
</linearGradient>
<radialGradient id="paint2_radial_86_2992" cx="0" cy="0" r="1" gradientUnits="userSpaceOnUse" gradientTransform="translate(10.649 3.60002) rotate(-90) scale(8.5033 17.7152)">
<stop stop-color="#FFB8F1"/>
<stop offset="0.0923" stop-color="#EA97DA"/>
<stop offset="0.2042" stop-color="#D576C3"/>
<stop offset="0.2972" stop-color="#C961B4"/>
<stop offset="0.3593" stop-color="#C45AAF"/>
<stop offset="1" stop-color="#4D0A40"/>
</radialGradient>
<radialGradient id="paint3_radial_86_2992" cx="0" cy="0" r="1" gradientUnits="userSpaceOnUse" gradientTransform="translate(10.649 15.023) rotate(-90) scale(8.5033 17.7152)">
<stop stop-color="#FFB8F1"/>
<stop offset="0.0923" stop-color="#EA97DA"/>
<stop offset="0.2042" stop-color="#D576C3"/>
<stop offset="0.2972" stop-color="#C961B4"/>
<stop offset="0.3593" stop-color="#C45AAF"/>
<stop offset="1" stop-color="#4D0A40"/>
</radialGradient>
<radialGradient id="paint4_radial_86_2992" cx="0" cy="0" r="1" gradientUnits="userSpaceOnUse" gradientTransform="translate(10.649 26.4462) rotate(-90) scale(8.5033 17.7152)">
<stop stop-color="#FFB8F1"/>
<stop offset="0.0923" stop-color="#EA97DA"/>
<stop offset="0.2042" stop-color="#D576C3"/>
<stop offset="0.2972" stop-color="#C961B4"/>
<stop offset="0.3593" stop-color="#C45AAF"/>
<stop offset="1" stop-color="#4D0A40"/>
</radialGradient>
<radialGradient id="paint5_radial_86_2992" cx="0" cy="0" r="1" gradientUnits="userSpaceOnUse" gradientTransform="translate(10.649 37.8692) rotate(-90) scale(8.5033 17.7152)">
<stop stop-color="#FFB8F1"/>
<stop offset="0.0923" stop-color="#EA97DA"/>
<stop offset="0.2042" stop-color="#D576C3"/>
<stop offset="0.2972" stop-color="#C961B4"/>
<stop offset="0.3593" stop-color="#C45AAF"/>
<stop offset="1" stop-color="#4D0A40"/>
</radialGradient>
<radialGradient id="paint6_radial_86_2992" cx="0" cy="0" r="1" gradientUnits="userSpaceOnUse" gradientTransform="translate(10.649 49.2925) rotate(-90) scale(8.5033 17.7152)">
<stop stop-color="#FFB8F1"/>
<stop offset="0.0923" stop-color="#EA97DA"/>
<stop offset="0.2042" stop-color="#D576C3"/>
<stop offset="0.2972" stop-color="#C961B4"/>
<stop offset="0.3593" stop-color="#C45AAF"/>
<stop offset="1" stop-color="#4D0A40"/>
</radialGradient>
<radialGradient id="paint7_radial_86_2992" cx="0" cy="0" r="1" gradientUnits="userSpaceOnUse" gradientTransform="translate(10.649 60.7154) rotate(-90) scale(8.50329 17.7152)">
<stop stop-color="#FFB8F1"/>
<stop offset="0.0923" stop-color="#EA97DA"/>
<stop offset="0.2042" stop-color="#D576C3"/>
<stop offset="0.2972" stop-color="#C961B4"/>
<stop offset="0.3593" stop-color="#C45AAF"/>
<stop offset="1" stop-color="#4D0A40"/>
</radialGradient>
<radialGradient id="paint8_radial_86_2992" cx="0" cy="0" r="1" gradientUnits="userSpaceOnUse" gradientTransform="translate(10.649 72.1387) rotate(-90) scale(8.5033 17.7152)">
<stop stop-color="#FFB8F1"/>
<stop offset="0.0923" stop-color="#EA97DA"/>
<stop offset="0.2042" stop-color="#D576C3"/>
<stop offset="0.2972" stop-color="#C961B4"/>
<stop offset="0.3593" stop-color="#C45AAF"/>
<stop offset="1" stop-color="#4D0A40"/>
</radialGradient>
</defs>
</svg>
