<svg width="95" height="54" viewBox="0 0 95 54" fill="none" xmlns="http://www.w3.org/2000/svg">
<path d="M73.0985 46.3886C78.6319 44.434 82.9634 41.8037 85.8844 38.6584C86.3077 38.2025 86.8228 37.8339 87.4203 37.6606C91.3246 36.5283 94.1797 32.9296 94.1797 28.6602C94.1797 24.5535 91.5355 21.0726 87.8592 19.8057C87.2758 19.6046 86.7877 19.2063 86.382 18.7413C83.7068 15.6752 79.6976 13.096 74.7061 10.9975C73.1367 10.3377 72.2097 8.65196 72.107 8.09626C71.3015 3.73706 67.4803 0.435059 62.8879 0.435059C59.6354 0.435059 56.7761 2.09436 55.097 4.61056C54.3636 5.70956 53.157 6.39886 51.8378 6.32686C50.0997 6.23196 48.3226 6.18166 46.5075 6.18166C44.6108 6.18166 42.7559 6.23676 40.9435 6.34026C39.6243 6.41566 38.4171 5.72456 37.6856 4.62416C36.0078 2.10036 33.1441 0.435059 29.8859 0.435059C25.416 0.435059 21.6848 3.56506 20.7378 7.74986C20.2248 10.0166 18.8754 10.7616 18.0872 11.0885C12.4948 13.4078 8.19596 16.4544 5.60347 20.0275C5.37586 20.3412 5.09177 20.5996 4.76717 20.8115C1.96987 22.6381 0.204965 25.9131 0.552865 29.5761C0.966065 33.9262 4.47247 37.4959 8.81567 37.9762C14.4721 38.6017 19.2598 34.1901 19.2598 28.6602C19.2598 26.292 18.3813 24.1298 16.9326 22.4804C15.2763 20.5945 15.7401 17.6455 18.0148 16.5847C18.5314 16.3438 19.0629 16.1104 19.6084 15.8846C20.9494 15.3295 22.4582 15.7043 23.5229 16.6906C25.1937 18.2385 27.4282 19.1856 29.8857 19.1856C33.7183 19.1856 37.0085 16.884 38.4604 13.5887C39.0167 12.3261 40.1637 11.4071 41.541 11.3271C43.1924 11.2311 44.8521 11.1817 46.5072 11.1817C48.0481 11.1817 49.5933 11.2237 51.1319 11.3064C52.5436 11.3823 53.7383 12.2754 54.3055 13.5704C55.7532 16.8755 59.048 19.1856 62.8876 19.1856C65.3669 19.1856 67.6179 18.221 69.2927 16.6483C70.3586 15.6474 71.8755 15.2586 73.229 15.8116C74.3039 16.2508 75.3259 16.7192 76.2866 17.2161C78.3961 18.3072 78.8771 21.0313 77.413 22.9014C76.1702 24.4889 75.4288 26.4866 75.4288 28.6601C75.4288 30.7212 76.0948 32.6253 77.2228 34.1715C78.603 36.0633 78.0975 38.731 76.0062 39.7848C75.8031 39.8871 75.5969 39.9883 75.3876 40.0882C73.7227 40.883 71.7845 40.1957 70.7955 38.6383C68.9825 35.7833 65.6718 33.9755 61.9644 34.3302C57.6187 34.7459 54.0536 38.2493 53.5719 42.5881C52.9437 48.2464 57.3562 53.0364 62.8875 53.0364C66.4576 53.0364 69.5537 51.0372 71.1352 48.0998C71.5634 47.3053 72.2477 46.6891 73.0985 46.3886Z" fill="url(#paint0_radial_86_2764)"/>
<path d="M9.88458 38.0355C15.0624 38.0355 19.2599 33.838 19.2599 28.6602C19.2599 23.4824 15.0624 19.2849 9.88458 19.2849C4.70674 19.2849 0.509277 23.4824 0.509277 28.6602C0.509277 33.838 4.70674 38.0355 9.88458 38.0355Z" fill="url(#paint1_radial_86_2764)"/>
<path d="M29.8858 19.1857C35.0636 19.1857 39.2611 14.9882 39.2611 9.81036C39.2611 4.63252 35.0636 0.435059 29.8858 0.435059C24.708 0.435059 20.5105 4.63252 20.5105 9.81036C20.5105 14.9882 24.708 19.1857 29.8858 19.1857Z" fill="url(#paint2_radial_86_2764)"/>
<path d="M62.8879 19.1857C68.0657 19.1857 72.2632 14.9882 72.2632 9.81036C72.2632 4.63252 68.0657 0.435059 62.8879 0.435059C57.71 0.435059 53.5126 4.63252 53.5126 9.81036C53.5126 14.9882 57.71 19.1857 62.8879 19.1857Z" fill="url(#paint3_radial_86_2764)"/>
<path d="M84.8044 38.0355C89.9822 38.0355 94.1797 33.838 94.1797 28.6602C94.1797 23.4824 89.9822 19.2849 84.8044 19.2849C79.6265 19.2849 75.4291 23.4824 75.4291 28.6602C75.4291 33.838 79.6265 38.0355 84.8044 38.0355Z" fill="url(#paint4_radial_86_2764)"/>
<path d="M62.8879 53.0365C68.0657 53.0365 72.2632 48.839 72.2632 43.6612C72.2632 38.4834 68.0657 34.2859 62.8879 34.2859C57.71 34.2859 53.5126 38.4834 53.5126 43.6612C53.5126 48.839 57.71 53.0365 62.8879 53.0365Z" fill="url(#paint5_radial_86_2764)"/>
<defs>
<radialGradient id="paint0_radial_86_2764" cx="0" cy="0" r="1" gradientUnits="userSpaceOnUse" gradientTransform="translate(47.3485 27.7357) rotate(-90) scale(24.0659 46.5627)">
<stop offset="0.7317" stop-color="#133845"/>
<stop offset="0.8266" stop-color="#23677D"/>
<stop offset="0.8452" stop-color="#216277"/>
<stop offset="0.8691" stop-color="#1D5567"/>
<stop offset="0.896" stop-color="#153E4D"/>
<stop offset="0.9026" stop-color="#133845"/>
</radialGradient>
<radialGradient id="paint1_radial_86_2764" cx="0" cy="0" r="1" gradientUnits="userSpaceOnUse" gradientTransform="translate(9.25958 26.1602) scale(10.8466 10.8466)">
<stop stop-color="#703FCC"/>
<stop offset="0.1832" stop-color="#6C41C7"/>
<stop offset="0.389" stop-color="#5E48BA"/>
<stop offset="0.6057" stop-color="#4854A3"/>
<stop offset="0.8286" stop-color="#2A6384"/>
<stop offset="0.8732" stop-color="#23677D"/>
<stop offset="0.9041" stop-color="#216277"/>
<stop offset="0.9441" stop-color="#1D5567"/>
<stop offset="0.9889" stop-color="#153E4D"/>
<stop offset="1" stop-color="#133845"/>
</radialGradient>
<radialGradient id="paint2_radial_86_2764" cx="0" cy="0" r="1" gradientUnits="userSpaceOnUse" gradientTransform="translate(29.2608 7.31036) scale(10.8466)">
<stop offset="0.0004" stop-color="#75CC23"/>
<stop offset="0.1603" stop-color="#71C727"/>
<stop offset="0.34" stop-color="#66BA33"/>
<stop offset="0.5293" stop-color="#54A347"/>
<stop offset="0.7238" stop-color="#3B8463"/>
<stop offset="0.8728" stop-color="#23677D"/>
<stop offset="0.9039" stop-color="#216277"/>
<stop offset="0.944" stop-color="#1D5567"/>
<stop offset="0.9889" stop-color="#153E4D"/>
<stop offset="1" stop-color="#133845"/>
</radialGradient>
<radialGradient id="paint3_radial_86_2764" cx="0" cy="0" r="1" gradientUnits="userSpaceOnUse" gradientTransform="translate(62.2629 7.31036) scale(10.8466 10.8466)">
<stop stop-color="#CCC623"/>
<stop offset="0.1206" stop-color="#C7C325"/>
<stop offset="0.2561" stop-color="#BABC2D"/>
<stop offset="0.3988" stop-color="#A3AF39"/>
<stop offset="0.5467" stop-color="#849D49"/>
<stop offset="0.6984" stop-color="#5B875F"/>
<stop offset="0.8513" stop-color="#2B6B79"/>
<stop offset="0.8728" stop-color="#23677D"/>
<stop offset="0.9039" stop-color="#216277"/>
<stop offset="0.944" stop-color="#1D5567"/>
<stop offset="0.9889" stop-color="#153E4D"/>
<stop offset="1" stop-color="#133845"/>
</radialGradient>
<radialGradient id="paint4_radial_86_2764" cx="0" cy="0" r="1" gradientUnits="userSpaceOnUse" gradientTransform="translate(84.1793 26.1602) scale(10.8466 10.8466)">
<stop offset="0.0004" stop-color="#2464CC"/>
<stop offset="0.1834" stop-color="#2464C7"/>
<stop offset="0.389" stop-color="#2465BA"/>
<stop offset="0.6055" stop-color="#2366A3"/>
<stop offset="0.8283" stop-color="#236784"/>
<stop offset="0.8728" stop-color="#23677D"/>
<stop offset="0.9039" stop-color="#216277"/>
<stop offset="0.944" stop-color="#1D5567"/>
<stop offset="0.9889" stop-color="#153E4D"/>
<stop offset="1" stop-color="#133845"/>
</radialGradient>
<radialGradient id="paint5_radial_86_2764" cx="0" cy="0" r="1" gradientUnits="userSpaceOnUse" gradientTransform="translate(62.2629 41.1612) scale(10.8466)">
<stop stop-color="#CC2338"/>
<stop offset="0.1206" stop-color="#C7253A"/>
<stop offset="0.2562" stop-color="#BA2A3F"/>
<stop offset="0.399" stop-color="#A33349"/>
<stop offset="0.5469" stop-color="#844055"/>
<stop offset="0.6987" stop-color="#5B5066"/>
<stop offset="0.8517" stop-color="#2B647A"/>
<stop offset="0.8732" stop-color="#23677D"/>
<stop offset="0.9041" stop-color="#216277"/>
<stop offset="0.9441" stop-color="#1D5567"/>
<stop offset="0.9889" stop-color="#153E4D"/>
<stop offset="1" stop-color="#133845"/>
</radialGradient>
</defs>
</svg>
