<svg width="36" height="21" viewBox="0 0 36 21" fill="none" xmlns="http://www.w3.org/2000/svg">
<path d="M17.5652 10.2755C27.2347 10.2755 35.0733 8.05518 35.0733 5.31623C35.0733 2.57729 27.2347 0.356934 17.5652 0.356934C7.89577 0.356934 0.0571289 2.57729 0.0571289 5.31623C0.0571289 8.05518 7.89577 10.2755 17.5652 10.2755Z" fill="url(#paint0_radial_90_4376)"/>
<path d="M17.5652 20.1378C27.2347 20.1378 35.0733 17.9175 35.0733 15.1785C35.0733 12.4396 27.2347 10.2192 17.5652 10.2192C7.89577 10.2192 0.0571289 12.4396 0.0571289 15.1785C0.0571289 17.9175 7.89577 20.1378 17.5652 20.1378Z" fill="url(#paint1_radial_90_4376)"/>
<defs>
<radialGradient id="paint0_radial_90_4376" cx="0" cy="0" r="1" gradientUnits="userSpaceOnUse" gradientTransform="translate(13.9973 3.96633) rotate(-90) scale(11.0335 16.1707)">
<stop stop-color="#C5B2FF"/>
<stop offset="0.036" stop-color="#BAA7F6"/>
<stop offset="0.1994" stop-color="#8F7AD0"/>
<stop offset="0.3639" stop-color="#6B54B0"/>
<stop offset="0.527" stop-color="#4F3798"/>
<stop offset="0.6882" stop-color="#3B2386"/>
<stop offset="0.8469" stop-color="#2F167C"/>
<stop offset="1" stop-color="#2B1278"/>
</radialGradient>
<radialGradient id="paint1_radial_90_4376" cx="0" cy="0" r="1" gradientUnits="userSpaceOnUse" gradientTransform="translate(13.9973 13.8286) rotate(-90) scale(11.0335 16.1707)">
<stop stop-color="#C5B2FF"/>
<stop offset="0.036" stop-color="#BAA7F6"/>
<stop offset="0.1994" stop-color="#8F7AD0"/>
<stop offset="0.3639" stop-color="#6B54B0"/>
<stop offset="0.527" stop-color="#4F3798"/>
<stop offset="0.6882" stop-color="#3B2386"/>
<stop offset="0.8469" stop-color="#2F167C"/>
<stop offset="1" stop-color="#2B1278"/>
</radialGradient>
</defs>
</svg>
