<svg width="57" height="24" viewBox="0 0 57 24" fill="none" xmlns="http://www.w3.org/2000/svg">
<rect x="2" y="1.98901" width="54" height="20" rx="10" fill="url(#paint0_linear_35_1438)"/>
<rect x="2" y="1.98901" width="54" height="20" rx="10" stroke="#8F0000" stroke-width="3" stroke-linejoin="round"/>
<path d="M17.9375 15.989H16.0508L15.3008 14.0378H11.8672L11.1582 15.989H9.31836L12.6641 7.39917H14.498L17.9375 15.989ZM14.7441 12.5906L13.5605 9.40308L12.4004 12.5906H14.7441ZM18.4238 13.1941L20.1113 13.03C20.2129 13.5964 20.418 14.0125 20.7266 14.2781C21.0391 14.5437 21.459 14.6765 21.9863 14.6765C22.5449 14.6765 22.9648 14.5593 23.2461 14.325C23.5312 14.0867 23.6738 13.8093 23.6738 13.4929C23.6738 13.2898 23.6133 13.1179 23.4922 12.9773C23.375 12.8328 23.168 12.7078 22.8711 12.6023C22.668 12.532 22.2051 12.407 21.4824 12.2273C20.5527 11.9968 19.9004 11.7136 19.5254 11.3777C18.998 10.905 18.7344 10.3289 18.7344 9.64917C18.7344 9.21167 18.8574 8.80347 19.1035 8.42456C19.3535 8.04175 19.7109 7.75073 20.1758 7.55151C20.6445 7.35229 21.209 7.25269 21.8691 7.25269C22.9473 7.25269 23.7578 7.48901 24.3008 7.96167C24.8477 8.43433 25.1348 9.06519 25.1621 9.85425L23.4277 9.93042C23.3535 9.48901 23.1934 9.17261 22.9473 8.9812C22.7051 8.78589 22.3398 8.68823 21.8516 8.68823C21.3477 8.68823 20.9531 8.79175 20.668 8.99878C20.4844 9.13159 20.3926 9.30933 20.3926 9.53198C20.3926 9.73511 20.4785 9.90894 20.6504 10.0535C20.8691 10.2371 21.4004 10.4285 22.2441 10.6277C23.0879 10.8269 23.7109 11.0339 24.1133 11.2488C24.5195 11.4597 24.8359 11.7507 25.0625 12.1218C25.293 12.489 25.4082 12.9441 25.4082 13.4871C25.4082 13.9792 25.2715 14.4402 24.998 14.8699C24.7246 15.2996 24.3379 15.6199 23.8379 15.8308C23.3379 16.0378 22.7148 16.1414 21.9688 16.1414C20.8828 16.1414 20.0488 15.8914 19.4668 15.3914C18.8848 14.8875 18.5371 14.155 18.4238 13.1941ZM26.8672 15.989V7.39917H29.6504C30.7051 7.39917 31.3926 7.44214 31.7129 7.52808C32.2051 7.65698 32.6172 7.93823 32.9492 8.37183C33.2812 8.80151 33.4473 9.35815 33.4473 10.0417C33.4473 10.5691 33.3516 11.0125 33.1602 11.3718C32.9688 11.7312 32.7246 12.0144 32.4277 12.2214C32.1348 12.4246 31.8359 12.5593 31.5312 12.6257C31.1172 12.7078 30.5176 12.7488 29.7324 12.7488H28.6016V15.989H26.8672ZM28.6016 8.85229V11.2898H29.5508C30.2344 11.2898 30.6914 11.2449 30.9219 11.155C31.1523 11.0652 31.332 10.9246 31.4609 10.7332C31.5938 10.5417 31.6602 10.3191 31.6602 10.0652C31.6602 9.75269 31.5684 9.49487 31.3848 9.29175C31.2012 9.08862 30.9688 8.96167 30.6875 8.91089C30.4805 8.87183 30.0645 8.85229 29.4395 8.85229H28.6016ZM34.8711 15.989V7.39917H37.6543C38.709 7.39917 39.3965 7.44214 39.7168 7.52808C40.209 7.65698 40.6211 7.93823 40.9531 8.37183C41.2852 8.80151 41.4512 9.35815 41.4512 10.0417C41.4512 10.5691 41.3555 11.0125 41.1641 11.3718C40.9727 11.7312 40.7285 12.0144 40.4316 12.2214C40.1387 12.4246 39.8398 12.5593 39.5352 12.6257C39.1211 12.7078 38.5215 12.7488 37.7363 12.7488H36.6055V15.989H34.8711ZM36.6055 8.85229V11.2898H37.5547C38.2383 11.2898 38.6953 11.2449 38.9258 11.155C39.1562 11.0652 39.3359 10.9246 39.4648 10.7332C39.5977 10.5417 39.6641 10.3191 39.6641 10.0652C39.6641 9.75269 39.5723 9.49487 39.3887 9.29175C39.2051 9.08862 38.9727 8.96167 38.6914 8.91089C38.4844 8.87183 38.0684 8.85229 37.4434 8.85229H36.6055ZM42.2832 14.2136L43.9355 13.9617C44.0059 14.282 44.1484 14.5261 44.3633 14.6941C44.5781 14.8582 44.8789 14.9402 45.2656 14.9402C45.6914 14.9402 46.0117 14.8621 46.2266 14.7058C46.3711 14.5964 46.4434 14.45 46.4434 14.2664C46.4434 14.1414 46.4043 14.0378 46.3262 13.9558C46.2441 13.8777 46.0605 13.8054 45.7754 13.739C44.4473 13.446 43.6055 13.1785 43.25 12.9363C42.7578 12.6003 42.5117 12.1335 42.5117 11.5359C42.5117 10.9968 42.7246 10.5437 43.1504 10.1765C43.5762 9.80933 44.2363 9.62573 45.1309 9.62573C45.9824 9.62573 46.6152 9.7644 47.0293 10.0417C47.4434 10.3191 47.7285 10.7292 47.8848 11.2722L46.332 11.5593C46.2656 11.3171 46.1387 11.1316 45.9512 11.0027C45.7676 10.8738 45.5039 10.8093 45.1602 10.8093C44.7266 10.8093 44.416 10.8699 44.2285 10.991C44.1035 11.0769 44.041 11.1882 44.041 11.325C44.041 11.4421 44.0957 11.5417 44.2051 11.6238C44.3535 11.7332 44.8652 11.8875 45.7402 12.0867C46.6191 12.2859 47.2324 12.53 47.5801 12.8191C47.9238 13.1121 48.0957 13.5203 48.0957 14.0437C48.0957 14.614 47.8574 15.1042 47.3809 15.5144C46.9043 15.9246 46.1992 16.1296 45.2656 16.1296C44.418 16.1296 43.7461 15.9578 43.25 15.614C42.7578 15.2703 42.4355 14.8035 42.2832 14.2136Z" fill="white"/>
<defs>
<linearGradient id="paint0_linear_35_1438" x1="29" y1="1.98901" x2="29" y2="21.989" gradientUnits="userSpaceOnUse">
<stop stop-color="#8F0000"/>
<stop offset="1" stop-color="#A34D00"/>
</linearGradient>
</defs>
</svg>
