<svg width="53" height="24" viewBox="0 0 53 24" fill="none" xmlns="http://www.w3.org/2000/svg">
<rect x="2" y="1.98901" width="50" height="20" rx="10" fill="url(#paint0_linear_50_1847)"/>
<rect x="2" y="1.98901" width="50" height="20" rx="10" stroke="#E07236" stroke-width="3" stroke-linejoin="round"/>
<path d="M10.1777 15.989V7.39917H12.7734L14.332 13.2585L15.873 7.39917H18.4746V15.989H16.8633V9.22729L15.1582 15.989H13.4883L11.7891 9.22729V15.989H10.1777ZM27.9434 15.989H26.0566L25.3066 14.0378H21.873L21.1641 15.989H19.3242L22.6699 7.39917H24.5039L27.9434 15.989ZM24.75 12.5906L23.5664 9.40308L22.4062 12.5906H24.75ZM28.8691 15.989V7.39917H31.6523C32.707 7.39917 33.3945 7.44214 33.7148 7.52808C34.207 7.65698 34.6191 7.93823 34.9512 8.37183C35.2832 8.80151 35.4492 9.35815 35.4492 10.0417C35.4492 10.5691 35.3535 11.0125 35.1621 11.3718C34.9707 11.7312 34.7266 12.0144 34.4297 12.2214C34.1367 12.4246 33.8379 12.5593 33.5332 12.6257C33.1191 12.7078 32.5195 12.7488 31.7344 12.7488H30.6035V15.989H28.8691ZM30.6035 8.85229V11.2898H31.5527C32.2363 11.2898 32.6934 11.2449 32.9238 11.155C33.1543 11.0652 33.334 10.9246 33.4629 10.7332C33.5957 10.5417 33.6621 10.3191 33.6621 10.0652C33.6621 9.75269 33.5703 9.49487 33.3867 9.29175C33.2031 9.08862 32.9707 8.96167 32.6895 8.91089C32.4824 8.87183 32.0664 8.85229 31.4414 8.85229H30.6035ZM36.8965 15.989V7.39917H38.6309V11.2136L42.1348 7.39917H44.4668L41.2324 10.7449L44.6426 15.989H42.3984L40.0371 11.9578L38.6309 13.3933V15.989H36.8965Z" fill="white"/>
<defs>
<linearGradient id="paint0_linear_50_1847" x1="27" y1="1.98901" x2="27" y2="21.989" gradientUnits="userSpaceOnUse">
<stop stop-color="#E07236"/>
<stop offset="1" stop-color="#1C00CD"/>
</linearGradient>
</defs>
</svg>
