<svg width="58" height="24" viewBox="0 0 58 24" fill="none" xmlns="http://www.w3.org/2000/svg">
<rect x="2" y="1.98901" width="55" height="20" rx="10" fill="url(#paint0_linear_36_1565)"/>
<rect x="2" y="1.98901" width="55" height="20" rx="10" stroke="#997CFF" stroke-width="3" stroke-linejoin="round"/>
<path d="M10.3633 7.39917H13.7969C14.4766 7.39917 14.9824 7.42847 15.3145 7.48706C15.6504 7.54175 15.9492 7.65894 16.2109 7.83862C16.4766 8.01831 16.6973 8.25854 16.873 8.55933C17.0488 8.8562 17.1367 9.19019 17.1367 9.56128C17.1367 9.96362 17.0273 10.3328 16.8086 10.6687C16.5938 11.0046 16.3008 11.2566 15.9297 11.4246C16.4531 11.5769 16.8555 11.8367 17.1367 12.2039C17.418 12.571 17.5586 13.0027 17.5586 13.4988C17.5586 13.8894 17.4668 14.2703 17.2832 14.6414C17.1035 15.0085 16.8555 15.3035 16.5391 15.5261C16.2266 15.7449 15.8398 15.8796 15.3789 15.9304C15.0898 15.9617 14.3926 15.9812 13.2871 15.989H10.3633V7.39917ZM12.0977 8.82886V10.8152H13.2344C13.9102 10.8152 14.3301 10.8054 14.4941 10.7859C14.791 10.7507 15.0234 10.6492 15.1914 10.4812C15.3633 10.3093 15.4492 10.0847 15.4492 9.80737C15.4492 9.54175 15.375 9.3269 15.2266 9.16284C15.082 8.99487 14.8652 8.89331 14.5762 8.85815C14.4043 8.83862 13.9102 8.82886 13.0938 8.82886H12.0977ZM12.0977 12.2449V14.5417H13.7031C14.3281 14.5417 14.7246 14.5242 14.8926 14.489C15.1504 14.4421 15.3594 14.3289 15.5195 14.1492C15.6836 13.9656 15.7656 13.7214 15.7656 13.4167C15.7656 13.1589 15.7031 12.9402 15.5781 12.7605C15.4531 12.5808 15.2715 12.45 15.0332 12.3679C14.7988 12.2859 14.2871 12.2449 13.498 12.2449H12.0977ZM26.7754 15.989H24.8887L24.1387 14.0378H20.7051L19.9961 15.989H18.1562L21.502 7.39917H23.3359L26.7754 15.989ZM23.582 12.5906L22.3984 9.40308L21.2383 12.5906H23.582ZM26.957 15.989V14.4246L31.4688 8.85229H27.4668V7.39917H33.7539V8.74683L29.0488 14.5417H33.9355V15.989H26.957ZM38.8867 15.989H37.2402V9.78394C36.6387 10.3464 35.9297 10.7625 35.1133 11.032V9.53784C35.543 9.39722 36.0098 9.13159 36.5137 8.74097C37.0176 8.34644 37.3633 7.88745 37.5508 7.36401H38.8867V15.989ZM41.7227 7.39917H45.1562C45.8359 7.39917 46.3418 7.42847 46.6738 7.48706C47.0098 7.54175 47.3086 7.65894 47.5703 7.83862C47.8359 8.01831 48.0566 8.25854 48.2324 8.55933C48.4082 8.8562 48.4961 9.19019 48.4961 9.56128C48.4961 9.96362 48.3867 10.3328 48.168 10.6687C47.9531 11.0046 47.6602 11.2566 47.2891 11.4246C47.8125 11.5769 48.2148 11.8367 48.4961 12.2039C48.7773 12.571 48.918 13.0027 48.918 13.4988C48.918 13.8894 48.8262 14.2703 48.6426 14.6414C48.4629 15.0085 48.2148 15.3035 47.8984 15.5261C47.5859 15.7449 47.1992 15.8796 46.7383 15.9304C46.4492 15.9617 45.752 15.9812 44.6465 15.989H41.7227V7.39917ZM43.457 8.82886V10.8152H44.5938C45.2695 10.8152 45.6895 10.8054 45.8535 10.7859C46.1504 10.7507 46.3828 10.6492 46.5508 10.4812C46.7227 10.3093 46.8086 10.0847 46.8086 9.80737C46.8086 9.54175 46.7344 9.3269 46.5859 9.16284C46.4414 8.99487 46.2246 8.89331 45.9355 8.85815C45.7637 8.83862 45.2695 8.82886 44.4531 8.82886H43.457ZM43.457 12.2449V14.5417H45.0625C45.6875 14.5417 46.084 14.5242 46.252 14.489C46.5098 14.4421 46.7188 14.3289 46.8789 14.1492C47.043 13.9656 47.125 13.7214 47.125 13.4167C47.125 13.1589 47.0625 12.9402 46.9375 12.7605C46.8125 12.5808 46.6309 12.45 46.3926 12.3679C46.1582 12.2859 45.6465 12.2449 44.8574 12.2449H43.457Z" fill="white"/>
<defs>
<linearGradient id="paint0_linear_36_1565" x1="29.5" y1="1.98901" x2="29.5" y2="21.989" gradientUnits="userSpaceOnUse">
<stop stop-color="#997CFF"/>
<stop offset="1" stop-color="#C14388"/>
</linearGradient>
</defs>
</svg>
