<svg width="43" height="44" viewBox="0 0 43 44" fill="none" xmlns="http://www.w3.org/2000/svg">
<path d="M21.3108 1.48901C32.7545 1.48926 42.0627 10.7996 42.0627 22.2419C42.0627 33.6844 32.7536 42.9929 21.3098 42.9929C9.86763 42.9927 0.558908 33.6856 0.558838 22.2419C0.558838 10.7981 9.86833 1.48901 21.3108 1.48901Z" fill="url(#paint0_radial_89_4108)" stroke="#464199"/>
<path d="M13.8792 25.989V17.3992H15.6135V25.989H13.8792ZM17.3186 25.989V17.4695H19.053V24.5417H23.3655V25.989H17.3186ZM29.8049 24.4597V25.989H24.0334C24.0959 25.4109 24.2834 24.864 24.5959 24.3484C24.9084 23.8289 25.5256 23.1414 26.4475 22.2859C27.1897 21.5945 27.6448 21.1257 27.8127 20.8796C28.0393 20.5398 28.1526 20.2039 28.1526 19.8718C28.1526 19.5046 28.053 19.2234 27.8538 19.0281C27.6584 18.8289 27.387 18.7292 27.0393 18.7292C26.6956 18.7292 26.4221 18.8328 26.219 19.0398C26.0159 19.2468 25.8987 19.5906 25.8674 20.071L24.2268 19.907C24.3245 19.0007 24.6311 18.3503 25.1467 17.9558C25.6624 17.5613 26.3069 17.364 27.0803 17.364C27.928 17.364 28.594 17.5925 29.0784 18.0496C29.5627 18.5066 29.8049 19.075 29.8049 19.7546C29.8049 20.1414 29.7346 20.5105 29.594 20.8621C29.4573 21.2097 29.2385 21.575 28.9377 21.9578C28.7385 22.2117 28.3792 22.5769 27.8596 23.0535C27.3401 23.53 27.01 23.8464 26.8694 24.0027C26.7327 24.1589 26.6213 24.3113 26.5354 24.4597H29.8049Z" fill="white"/>
<defs>
<radialGradient id="paint0_radial_89_4108" cx="0" cy="0" r="1" gradientUnits="userSpaceOnUse" gradientTransform="translate(16.8381 14.0023) scale(19.3962)">
<stop stop-color="#E5B9FF"/>
<stop offset="1" stop-color="#AF82C7"/>
</radialGradient>
</defs>
</svg>
