<svg width="53" height="39" viewBox="0 0 53 39" fill="none" xmlns="http://www.w3.org/2000/svg">
<path d="M31.325 29.7364C31.325 34.6315 24.3406 38.5997 15.7249 38.5997C7.10918 38.5997 0.124878 34.6314 0.124878 29.7364C0.124878 24.8413 7.10928 0.871826 15.725 0.871826C24.3406 0.871826 31.325 24.8413 31.325 29.7364Z" fill="url(#paint0_radial_86_3173)"/>
<path d="M52.3264 29.7364C52.3264 34.6315 45.342 38.5997 36.7263 38.5997C28.1106 38.5997 21.1262 34.6315 21.1262 29.7364C21.1262 24.8413 28.1106 0.871826 36.7263 0.871826C45.342 0.871826 52.3264 24.8413 52.3264 29.7364Z" fill="url(#paint1_radial_86_3173)"/>
<defs>
<radialGradient id="paint0_radial_86_3173" cx="0" cy="0" r="1" gradientUnits="userSpaceOnUse" gradientTransform="translate(15.5382 16.1018) scale(14.639 25.567)">
<stop stop-color="#B2FAFF"/>
<stop offset="0.0603" stop-color="#9EEBF1"/>
<stop offset="0.2006" stop-color="#74CDD3"/>
<stop offset="0.3441" stop-color="#52B4BA"/>
<stop offset="0.4894" stop-color="#37A0A7"/>
<stop offset="0.6371" stop-color="#24929A"/>
<stop offset="0.7886" stop-color="#198A92"/>
<stop offset="0.95" stop-color="#15878F"/>
</radialGradient>
<radialGradient id="paint1_radial_86_3173" cx="0" cy="0" r="1" gradientUnits="userSpaceOnUse" gradientTransform="translate(36.5395 16.1018) scale(14.639 25.567)">
<stop stop-color="#B2FAFF"/>
<stop offset="0.0603" stop-color="#9EEBF1"/>
<stop offset="0.2006" stop-color="#74CDD3"/>
<stop offset="0.3441" stop-color="#52B4BA"/>
<stop offset="0.4894" stop-color="#37A0A7"/>
<stop offset="0.6371" stop-color="#24929A"/>
<stop offset="0.7886" stop-color="#198A92"/>
<stop offset="0.95" stop-color="#15878F"/>
</radialGradient>
</defs>
</svg>
