<svg width="37" height="24" viewBox="0 0 37 24" fill="none" xmlns="http://www.w3.org/2000/svg">
<rect x="2" y="1.98901" width="34" height="20" rx="10" fill="#00C4DD"/>
<rect x="2" y="1.98901" width="34" height="20" rx="10" stroke="#002B34" stroke-width="3" stroke-linejoin="round"/>
<path d="M21.0332 12.8308L22.7148 13.364C22.457 14.3015 22.0273 14.9988 21.4258 15.4558C20.8281 15.9089 20.0684 16.1355 19.1465 16.1355C18.0059 16.1355 17.0684 15.7468 16.334 14.9695C15.5996 14.1882 15.2324 13.1218 15.2324 11.7703C15.2324 10.3406 15.6016 9.2312 16.3398 8.44214C17.0781 7.64917 18.0488 7.25269 19.252 7.25269C20.3027 7.25269 21.1562 7.56323 21.8125 8.18433C22.2031 8.55151 22.4961 9.07886 22.6914 9.76636L20.9746 10.1765C20.873 9.7312 20.6602 9.37964 20.3359 9.12183C20.0156 8.86401 19.625 8.73511 19.1641 8.73511C18.5273 8.73511 18.0098 8.96362 17.6113 9.42065C17.2168 9.87769 17.0195 10.6179 17.0195 11.6414C17.0195 12.7273 17.2148 13.5007 17.6055 13.9617C17.9961 14.4226 18.5039 14.6531 19.1289 14.6531C19.5898 14.6531 19.9863 14.5066 20.3184 14.2136C20.6504 13.9207 20.8887 13.4597 21.0332 12.8308Z" fill="white"/>
</svg>
