<svg width="43" height="44" viewBox="0 0 43 44" fill="none" xmlns="http://www.w3.org/2000/svg">
<path d="M21.5032 1.03491C32.9468 1.03516 42.2551 10.3455 42.2551 21.7878C42.2551 33.2302 32.9467 42.5386 21.5032 42.5388C10.0607 42.5388 0.751291 33.2316 0.751221 21.7878C0.751221 10.344 10.0607 1.03491 21.5032 1.03491Z" fill="url(#paint0_radial_90_4618)" stroke="#417799"/>
<path d="M10.0792 18.5349V9.94507H11.8136V18.5349H10.0792ZM13.4835 18.5349V9.94507H19.3722V11.3982H15.2179V13.4314H18.8038V14.8845H15.2179V18.5349H13.4835ZM20.8253 18.5349V9.94507H22.5128L26.0284 15.6814V9.94507H27.6398V18.5349H25.8995L22.4366 12.9333V18.5349H20.8253ZM29.2804 16.2439V14.5974H32.5148V16.2439H29.2804Z" fill="white"/>
<path d="M7.3429 28.6106L5.84875 28.3411C6.01672 27.7395 6.30579 27.2942 6.71594 27.0051C7.1261 26.7161 7.73547 26.5715 8.54407 26.5715C9.27844 26.5715 9.82532 26.6594 10.1847 26.8352C10.5441 27.0071 10.796 27.2278 10.9406 27.4973C11.089 27.7629 11.1632 28.2532 11.1632 28.968L11.1456 30.8899C11.1456 31.4368 11.171 31.8411 11.2218 32.1028C11.2765 32.3606 11.3761 32.6379 11.5206 32.9348H9.89172C9.84875 32.8254 9.79602 32.6633 9.73352 32.4485C9.70618 32.3508 9.68665 32.2864 9.67493 32.2551C9.39368 32.5286 9.0929 32.7336 8.77258 32.8704C8.45227 33.0071 8.11047 33.0754 7.74719 33.0754C7.10657 33.0754 6.60071 32.9016 6.22961 32.554C5.86243 32.2063 5.67883 31.7668 5.67883 31.2356C5.67883 30.884 5.76282 30.5715 5.93079 30.2981C6.09875 30.0208 6.33313 29.8098 6.63391 29.6653C6.9386 29.5168 7.3761 29.3879 7.94641 29.2786C8.71594 29.134 9.24915 28.9993 9.54602 28.8743V28.7102C9.54602 28.3938 9.4679 28.1692 9.31165 28.0364C9.1554 27.8997 8.86047 27.8313 8.42688 27.8313C8.13391 27.8313 7.9054 27.8899 7.74133 28.0071C7.57727 28.1204 7.44446 28.3215 7.3429 28.6106ZM9.54602 29.9465C9.33508 30.0168 9.0011 30.1008 8.54407 30.1985C8.08704 30.2961 7.78821 30.3918 7.64758 30.4856C7.43274 30.6379 7.32532 30.8313 7.32532 31.0657C7.32532 31.2961 7.41125 31.4954 7.58313 31.6633C7.755 31.8313 7.97375 31.9153 8.23938 31.9153C8.53625 31.9153 8.81946 31.8176 9.08899 31.6223C9.28821 31.4739 9.41907 31.2922 9.48157 31.0774C9.52454 30.9368 9.54602 30.6692 9.54602 30.2747V29.9465ZM12.7921 32.9348V24.345H14.4386V32.9348H12.7921ZM16.0851 26.7122H17.6202V27.6262C17.8195 27.3137 18.089 27.0598 18.4288 26.8645C18.7687 26.6692 19.1456 26.5715 19.5597 26.5715C20.2823 26.5715 20.8956 26.8547 21.3995 27.4211C21.9034 27.9875 22.1554 28.7766 22.1554 29.7883C22.1554 30.8274 21.9015 31.636 21.3937 32.2141C20.8859 32.7883 20.2706 33.0754 19.548 33.0754C19.2042 33.0754 18.8917 33.0071 18.6105 32.8704C18.3331 32.7336 18.0402 32.4993 17.7316 32.1672V35.302H16.0851V26.7122ZM17.714 29.718C17.714 30.4172 17.8527 30.9348 18.13 31.2708C18.4073 31.6028 18.7452 31.7688 19.1437 31.7688C19.5265 31.7688 19.8448 31.6165 20.0988 31.3118C20.3527 31.0032 20.4796 30.4993 20.4796 29.8C20.4796 29.1477 20.3488 28.6633 20.087 28.3469C19.8253 28.0305 19.5011 27.8723 19.1144 27.8723C18.712 27.8723 18.3781 28.0286 18.1124 28.3411C17.8468 28.6497 17.714 29.1086 17.714 29.718ZM25.1085 24.345V27.5032C25.6398 26.8821 26.2745 26.5715 27.0128 26.5715C27.3917 26.5715 27.7335 26.6418 28.0382 26.7825C28.3429 26.9231 28.5714 27.1028 28.7238 27.3215C28.88 27.5403 28.9855 27.7825 29.0402 28.0481C29.0988 28.3137 29.1281 28.7258 29.1281 29.2844V32.9348H27.4816V29.6477C27.4816 28.9954 27.4503 28.5813 27.3878 28.4055C27.3253 28.2297 27.214 28.0911 27.0538 27.9895C26.8976 27.884 26.7003 27.8313 26.462 27.8313C26.1886 27.8313 25.9445 27.8977 25.7296 28.0305C25.5148 28.1633 25.3566 28.3645 25.255 28.634C25.1573 28.8997 25.1085 29.2942 25.1085 29.8176V32.9348H23.462V24.345H25.1085ZM32.0343 28.6106L30.5402 28.3411C30.7081 27.7395 30.9972 27.2942 31.4073 27.0051C31.8175 26.7161 32.4269 26.5715 33.2355 26.5715C33.9698 26.5715 34.5167 26.6594 34.8761 26.8352C35.2355 27.0071 35.4874 27.2278 35.632 27.4973C35.7804 27.7629 35.8546 28.2532 35.8546 28.968L35.837 30.8899C35.837 31.4368 35.8624 31.8411 35.9132 32.1028C35.9679 32.3606 36.0675 32.6379 36.212 32.9348H34.5831C34.5402 32.8254 34.4874 32.6633 34.4249 32.4485C34.3976 32.3508 34.3781 32.2864 34.3663 32.2551C34.0851 32.5286 33.7843 32.7336 33.464 32.8704C33.1437 33.0071 32.8019 33.0754 32.4386 33.0754C31.798 33.0754 31.2921 32.9016 30.921 32.554C30.5538 32.2063 30.3702 31.7668 30.3702 31.2356C30.3702 30.884 30.4542 30.5715 30.6222 30.2981C30.7902 30.0208 31.0245 29.8098 31.3253 29.6653C31.63 29.5168 32.0675 29.3879 32.6378 29.2786C33.4073 29.134 33.9406 28.9993 34.2374 28.8743V28.7102C34.2374 28.3938 34.1593 28.1692 34.0031 28.0364C33.8468 27.8997 33.5519 27.8313 33.1183 27.8313C32.8253 27.8313 32.5968 27.8899 32.4327 28.0071C32.2687 28.1204 32.1359 28.3215 32.0343 28.6106ZM34.2374 29.9465C34.0265 30.0168 33.6925 30.1008 33.2355 30.1985C32.7784 30.2961 32.4796 30.3918 32.339 30.4856C32.1241 30.6379 32.0167 30.8313 32.0167 31.0657C32.0167 31.2961 32.1027 31.4954 32.2745 31.6633C32.4464 31.8313 32.6652 31.9153 32.9308 31.9153C33.2277 31.9153 33.5109 31.8176 33.7804 31.6223C33.9796 31.4739 34.1105 31.2922 34.173 31.0774C34.2159 30.9368 34.2374 30.6692 34.2374 30.2747V29.9465Z" fill="white"/>
<defs>
<radialGradient id="paint0_radial_90_4618" cx="0" cy="0" r="1" gradientUnits="userSpaceOnUse" gradientTransform="translate(17.0305 13.5482) scale(19.3962)">
<stop stop-color="#AED69B"/>
<stop offset="1" stop-color="#5EA83B"/>
</radialGradient>
</defs>
</svg>
