<svg width="137" height="24" viewBox="0 0 137 24" fill="none" xmlns="http://www.w3.org/2000/svg">
<rect x="1" y="1.98901" width="135" height="20" rx="10" fill="#5FA6C2"/>
<rect x="1" y="1.98901" width="135" height="20" rx="10" stroke="#DE4E8D" stroke-width="3" stroke-linejoin="round"/>
<path d="M9.00391 15.989V7.39917H11.7871C12.8418 7.39917 13.5293 7.44214 13.8496 7.52808C14.3418 7.65698 14.7539 7.93823 15.0859 8.37183C15.418 8.80151 15.584 9.35815 15.584 10.0417C15.584 10.5691 15.4883 11.0125 15.2969 11.3718C15.1055 11.7312 14.8613 12.0144 14.5645 12.2214C14.2715 12.4246 13.9727 12.5593 13.668 12.6257C13.2539 12.7078 12.6543 12.7488 11.8691 12.7488H10.7383V15.989H9.00391ZM10.7383 8.85229V11.2898H11.6875C12.3711 11.2898 12.8281 11.2449 13.0586 11.155C13.2891 11.0652 13.4688 10.9246 13.5977 10.7332C13.7305 10.5417 13.7969 10.3191 13.7969 10.0652C13.7969 9.75269 13.7051 9.49487 13.5215 9.29175C13.3379 9.08862 13.1055 8.96167 12.8242 8.91089C12.6172 8.87183 12.2012 8.85229 11.5762 8.85229H10.7383ZM17.0137 15.989V7.39917H20.6641C21.582 7.39917 22.248 7.47729 22.6621 7.63354C23.0801 7.78589 23.4141 8.05933 23.6641 8.45386C23.9141 8.84839 24.0391 9.29956 24.0391 9.80737C24.0391 10.4519 23.8496 10.9851 23.4707 11.407C23.0918 11.825 22.5254 12.0886 21.7715 12.198C22.1465 12.4167 22.4551 12.657 22.6973 12.9187C22.9434 13.1804 23.2734 13.6453 23.6875 14.3132L24.7363 15.989H22.6621L21.4082 14.1199C20.9629 13.4519 20.6582 13.032 20.4941 12.8601C20.3301 12.6843 20.1562 12.5652 19.9727 12.5027C19.7891 12.4363 19.498 12.4031 19.0996 12.4031H18.748V15.989H17.0137ZM18.748 11.032H20.0312C20.8633 11.032 21.3828 10.9968 21.5898 10.9265C21.7969 10.8562 21.959 10.7351 22.0762 10.5632C22.1934 10.3914 22.252 10.1765 22.252 9.9187C22.252 9.62964 22.1738 9.39722 22.0176 9.22144C21.8652 9.04175 21.6484 8.92847 21.3672 8.88159C21.2266 8.86206 20.8047 8.85229 20.1016 8.85229H18.748V11.032ZM25.6797 15.989V7.39917H32.0488V8.85229H27.4141V10.7566H31.7266V12.2039H27.4141V14.5417H32.2129V15.989H25.6797ZM33.6836 15.989V7.39917H36.4668C37.5215 7.39917 38.209 7.44214 38.5293 7.52808C39.0215 7.65698 39.4336 7.93823 39.7656 8.37183C40.0977 8.80151 40.2637 9.35815 40.2637 10.0417C40.2637 10.5691 40.168 11.0125 39.9766 11.3718C39.7852 11.7312 39.541 12.0144 39.2441 12.2214C38.9512 12.4246 38.6523 12.5593 38.3477 12.6257C37.9336 12.7078 37.334 12.7488 36.5488 12.7488H35.418V15.989H33.6836ZM35.418 8.85229V11.2898H36.3672C37.0508 11.2898 37.5078 11.2449 37.7383 11.155C37.9688 11.0652 38.1484 10.9246 38.2773 10.7332C38.4102 10.5417 38.4766 10.3191 38.4766 10.0652C38.4766 9.75269 38.3848 9.49487 38.2012 9.29175C38.0176 9.08862 37.7852 8.96167 37.5039 8.91089C37.2969 8.87183 36.8809 8.85229 36.2559 8.85229H35.418ZM41.6934 15.989V7.39917H45.3438C46.2617 7.39917 46.9277 7.47729 47.3418 7.63354C47.7598 7.78589 48.0938 8.05933 48.3438 8.45386C48.5938 8.84839 48.7188 9.29956 48.7188 9.80737C48.7188 10.4519 48.5293 10.9851 48.1504 11.407C47.7715 11.825 47.2051 12.0886 46.4512 12.198C46.8262 12.4167 47.1348 12.657 47.377 12.9187C47.623 13.1804 47.9531 13.6453 48.3672 14.3132L49.416 15.989H47.3418L46.0879 14.1199C45.6426 13.4519 45.3379 13.032 45.1738 12.8601C45.0098 12.6843 44.8359 12.5652 44.6523 12.5027C44.4688 12.4363 44.1777 12.4031 43.7793 12.4031H43.4277V15.989H41.6934ZM43.4277 11.032H44.7109C45.543 11.032 46.0625 10.9968 46.2695 10.9265C46.4766 10.8562 46.6387 10.7351 46.7559 10.5632C46.873 10.3914 46.9316 10.1765 46.9316 9.9187C46.9316 9.62964 46.8535 9.39722 46.6973 9.22144C46.5449 9.04175 46.3281 8.92847 46.0469 8.88159C45.9062 8.86206 45.4844 8.85229 44.7812 8.85229H43.4277V11.032ZM50.0078 11.7468C50.0078 10.8718 50.1387 10.1375 50.4004 9.5437C50.5957 9.1062 50.8613 8.71362 51.1973 8.36597C51.5371 8.01831 51.9082 7.7605 52.3105 7.59253C52.8457 7.36597 53.4629 7.25269 54.1621 7.25269C55.4277 7.25269 56.4395 7.64526 57.1973 8.43042C57.959 9.21558 58.3398 10.3074 58.3398 11.7058C58.3398 13.0925 57.9629 14.1785 57.209 14.9636C56.4551 15.7449 55.4473 16.1355 54.1855 16.1355C52.9082 16.1355 51.8926 15.7468 51.1387 14.9695C50.3848 14.1882 50.0078 13.114 50.0078 11.7468ZM51.7949 11.6882C51.7949 12.6609 52.0195 13.3992 52.4688 13.9031C52.918 14.4031 53.4883 14.6531 54.1797 14.6531C54.8711 14.6531 55.4375 14.405 55.8789 13.9089C56.3242 13.4089 56.5469 12.6609 56.5469 11.6648C56.5469 10.6804 56.3301 9.94604 55.8965 9.46167C55.4668 8.97729 54.8945 8.73511 54.1797 8.73511C53.4648 8.73511 52.8887 8.9812 52.4512 9.47339C52.0137 9.96167 51.7949 10.7 51.7949 11.6882ZM63.6953 12.8308V11.3835H67.4336V14.8054C67.0703 15.157 66.543 15.4675 65.8516 15.7371C65.1641 16.0027 64.4668 16.1355 63.7598 16.1355C62.8613 16.1355 62.0781 15.948 61.4102 15.573C60.7422 15.1941 60.2402 14.655 59.9043 13.9558C59.5684 13.2527 59.4004 12.489 59.4004 11.6648C59.4004 10.7703 59.5879 9.97534 59.9629 9.28003C60.3379 8.58472 60.8867 8.05151 61.6094 7.68042C62.1602 7.39526 62.8457 7.25269 63.666 7.25269C64.7324 7.25269 65.5645 7.47729 66.1621 7.92651C66.7637 8.37183 67.1504 8.98901 67.3223 9.77808L65.5996 10.1003C65.4785 9.67847 65.25 9.34644 64.9141 9.10425C64.582 8.85815 64.166 8.73511 63.666 8.73511C62.9082 8.73511 62.3047 8.97534 61.8555 9.45581C61.4102 9.93628 61.1875 10.6492 61.1875 11.5945C61.1875 12.614 61.4141 13.3796 61.8672 13.8914C62.3203 14.3992 62.9141 14.6531 63.6484 14.6531C64.0117 14.6531 64.375 14.5828 64.7383 14.4421C65.1055 14.2976 65.4199 14.1238 65.6816 13.9207V12.8308H63.6953ZM69.0859 15.989V7.46948H70.8203V14.5417H75.1328V15.989H69.0859ZM76.3633 7.39917H78.0977V12.0515C78.0977 12.7898 78.1191 13.2683 78.1621 13.4871C78.2363 13.8386 78.4121 14.1218 78.6895 14.3367C78.9707 14.5476 79.3535 14.6531 79.8379 14.6531C80.3301 14.6531 80.7012 14.5535 80.9512 14.3542C81.2012 14.1511 81.3516 13.9031 81.4023 13.6101C81.4531 13.3171 81.4785 12.8308 81.4785 12.1511V7.39917H83.2129V11.9109C83.2129 12.9421 83.166 13.6707 83.0723 14.0964C82.9785 14.5222 82.8047 14.8816 82.5508 15.1746C82.3008 15.4675 81.9648 15.7019 81.543 15.8777C81.1211 16.0496 80.5703 16.1355 79.8906 16.1355C79.0703 16.1355 78.4473 16.0417 78.0215 15.8542C77.5996 15.6628 77.2656 15.4167 77.0195 15.116C76.7734 14.8113 76.6113 14.4929 76.5332 14.1609C76.4199 13.6687 76.3633 12.9421 76.3633 11.9812V7.39917ZM90.543 12.8308L92.2246 13.364C91.9668 14.3015 91.5371 14.9988 90.9355 15.4558C90.3379 15.9089 89.5781 16.1355 88.6562 16.1355C87.5156 16.1355 86.5781 15.7468 85.8438 14.9695C85.1094 14.1882 84.7422 13.1218 84.7422 11.7703C84.7422 10.3406 85.1113 9.2312 85.8496 8.44214C86.5879 7.64917 87.5586 7.25269 88.7617 7.25269C89.8125 7.25269 90.666 7.56323 91.3223 8.18433C91.7129 8.55151 92.0059 9.07886 92.2012 9.76636L90.4844 10.1765C90.3828 9.7312 90.1699 9.37964 89.8457 9.12183C89.5254 8.86401 89.1348 8.73511 88.6738 8.73511C88.0371 8.73511 87.5195 8.96362 87.1211 9.42065C86.7266 9.87769 86.5293 10.6179 86.5293 11.6414C86.5293 12.7273 86.7246 13.5007 87.1152 13.9617C87.5059 14.4226 88.0137 14.6531 88.6387 14.6531C89.0996 14.6531 89.4961 14.5066 89.8281 14.2136C90.1602 13.9207 90.3984 13.4597 90.543 12.8308ZM101.465 15.989H99.5781L98.8281 14.0378H95.3945L94.6855 15.989H92.8457L96.1914 7.39917H98.0254L101.465 15.989ZM98.2715 12.5906L97.0879 9.40308L95.9277 12.5906H98.2715ZM106.387 12.8308V11.3835H110.125V14.8054C109.762 15.157 109.234 15.4675 108.543 15.7371C107.855 16.0027 107.158 16.1355 106.451 16.1355C105.553 16.1355 104.77 15.948 104.102 15.573C103.434 15.1941 102.932 14.655 102.596 13.9558C102.26 13.2527 102.092 12.489 102.092 11.6648C102.092 10.7703 102.279 9.97534 102.654 9.28003C103.029 8.58472 103.578 8.05151 104.301 7.68042C104.852 7.39526 105.537 7.25269 106.357 7.25269C107.424 7.25269 108.256 7.47729 108.854 7.92651C109.455 8.37183 109.842 8.98901 110.014 9.77808L108.291 10.1003C108.17 9.67847 107.941 9.34644 107.605 9.10425C107.273 8.85815 106.857 8.73511 106.357 8.73511C105.6 8.73511 104.996 8.97534 104.547 9.45581C104.102 9.93628 103.879 10.6492 103.879 11.5945C103.879 12.614 104.105 13.3796 104.559 13.8914C105.012 14.3992 105.605 14.6531 106.34 14.6531C106.703 14.6531 107.066 14.5828 107.43 14.4421C107.797 14.2976 108.111 14.1238 108.373 13.9207V12.8308H106.387ZM111.379 11.7468C111.379 10.8718 111.51 10.1375 111.771 9.5437C111.967 9.1062 112.232 8.71362 112.568 8.36597C112.908 8.01831 113.279 7.7605 113.682 7.59253C114.217 7.36597 114.834 7.25269 115.533 7.25269C116.799 7.25269 117.811 7.64526 118.568 8.43042C119.33 9.21558 119.711 10.3074 119.711 11.7058C119.711 13.0925 119.334 14.1785 118.58 14.9636C117.826 15.7449 116.818 16.1355 115.557 16.1355C114.279 16.1355 113.264 15.7468 112.51 14.9695C111.756 14.1882 111.379 13.114 111.379 11.7468ZM113.166 11.6882C113.166 12.6609 113.391 13.3992 113.84 13.9031C114.289 14.4031 114.859 14.6531 115.551 14.6531C116.242 14.6531 116.809 14.405 117.25 13.9089C117.695 13.4089 117.918 12.6609 117.918 11.6648C117.918 10.6804 117.701 9.94604 117.268 9.46167C116.838 8.97729 116.266 8.73511 115.551 8.73511C114.836 8.73511 114.26 8.9812 113.822 9.47339C113.385 9.96167 113.166 10.7 113.166 11.6882ZM121.088 15.989V7.39917H122.775L126.291 13.1355V7.39917H127.902V15.989H126.162L122.699 10.3875V15.989H121.088Z" fill="white"/>
</svg>
