<svg width="49" height="24" viewBox="0 0 49 24" fill="none" xmlns="http://www.w3.org/2000/svg">
<rect x="2" y="1.98901" width="46" height="20" rx="10" fill="url(#paint0_linear_64_1969)"/>
<rect x="2" y="1.98901" width="46" height="20" rx="10" stroke="#135958" stroke-width="3" stroke-linejoin="round"/>
<path d="M10.1934 15.989V7.39917H12.9766C14.0312 7.39917 14.7188 7.44214 15.0391 7.52808C15.5312 7.65698 15.9434 7.93823 16.2754 8.37183C16.6074 8.80151 16.7734 9.35815 16.7734 10.0417C16.7734 10.5691 16.6777 11.0125 16.4863 11.3718C16.2949 11.7312 16.0508 12.0144 15.7539 12.2214C15.4609 12.4246 15.1621 12.5593 14.8574 12.6257C14.4434 12.7078 13.8438 12.7488 13.0586 12.7488H11.9277V15.989H10.1934ZM11.9277 8.85229V11.2898H12.877C13.5605 11.2898 14.0176 11.2449 14.248 11.155C14.4785 11.0652 14.6582 10.9246 14.7871 10.7332C14.9199 10.5417 14.9863 10.3191 14.9863 10.0652C14.9863 9.75269 14.8945 9.49487 14.7109 9.29175C14.5273 9.08862 14.2949 8.96167 14.0137 8.91089C13.8066 8.87183 13.3906 8.85229 12.7656 8.85229H11.9277ZM18.1914 7.39917H21.3613C22.0762 7.39917 22.6211 7.45386 22.9961 7.56323C23.5 7.71167 23.9316 7.97534 24.291 8.35425C24.6504 8.73315 24.9238 9.198 25.1113 9.74878C25.2988 10.2957 25.3926 10.9714 25.3926 11.7761C25.3926 12.4832 25.3047 13.0925 25.1289 13.6042C24.9141 14.2292 24.6074 14.7351 24.209 15.1218C23.9082 15.4148 23.502 15.6433 22.9902 15.8074C22.6074 15.9285 22.0957 15.989 21.4551 15.989H18.1914V7.39917ZM19.9258 8.85229V14.5417H21.2207C21.7051 14.5417 22.0547 14.5144 22.2695 14.4597C22.5508 14.3894 22.7832 14.2703 22.9668 14.1023C23.1543 13.9343 23.3066 13.6589 23.4238 13.2761C23.541 12.8894 23.5996 12.364 23.5996 11.7C23.5996 11.0359 23.541 10.5261 23.4238 10.1707C23.3066 9.81519 23.1426 9.53784 22.9316 9.33862C22.7207 9.1394 22.4531 9.00464 22.1289 8.93433C21.8867 8.87964 21.4121 8.85229 20.7051 8.85229H19.9258ZM25.9961 15.989L28.9316 11.5066L26.2715 7.39917H28.2988L30.0215 10.1589L31.709 7.39917H33.7188L31.0469 11.571L33.9824 15.989H31.8906L29.9863 13.0183L28.0762 15.989H25.9961ZM38.7227 15.989H37.0762V9.78394C36.4746 10.3464 35.7656 10.7625 34.9492 11.032V9.53784C35.3789 9.39722 35.8457 9.13159 36.3496 8.74097C36.8535 8.34644 37.1992 7.88745 37.3867 7.36401H38.7227V15.989Z" fill="white"/>
<defs>
<linearGradient id="paint0_linear_64_1969" x1="25" y1="1.98901" x2="25" y2="21.989" gradientUnits="userSpaceOnUse">
<stop stop-color="#135958"/>
<stop offset="1" stop-color="#E7F756"/>
</linearGradient>
</defs>
</svg>
