<svg width="63" height="24" viewBox="0 0 63 24" fill="none" xmlns="http://www.w3.org/2000/svg">
<rect x="2" y="1.98901" width="60" height="20" rx="10" fill="url(#paint0_linear_64_1868)"/>
<rect x="2" y="1.98901" width="60" height="20" rx="10" stroke="#0038AD" stroke-width="3" stroke-linejoin="round"/>
<path d="M10.209 15.989V7.39917H11.8965L15.4121 13.1355V7.39917H17.0234V15.989H15.2832L11.8203 10.3875V15.989H10.209ZM18.875 15.989V7.39917H24.7637V8.85229H20.6094V10.8855H24.1953V12.3386H20.6094V15.989H18.875ZM26.2227 15.989V7.39917H27.957V11.2136L31.4609 7.39917H33.793L30.5586 10.7449L33.9688 15.989H31.7246L29.3633 11.9578L27.957 13.3933V15.989H26.2227ZM34.877 7.39917H38.3105C38.9902 7.39917 39.4961 7.42847 39.8281 7.48706C40.1641 7.54175 40.4629 7.65894 40.7246 7.83862C40.9902 8.01831 41.2109 8.25854 41.3867 8.55933C41.5625 8.8562 41.6504 9.19019 41.6504 9.56128C41.6504 9.96362 41.541 10.3328 41.3223 10.6687C41.1074 11.0046 40.8145 11.2566 40.4434 11.4246C40.9668 11.5769 41.3691 11.8367 41.6504 12.2039C41.9316 12.571 42.0723 13.0027 42.0723 13.4988C42.0723 13.8894 41.9805 14.2703 41.7969 14.6414C41.6172 15.0085 41.3691 15.3035 41.0527 15.5261C40.7402 15.7449 40.3535 15.8796 39.8926 15.9304C39.6035 15.9617 38.9062 15.9812 37.8008 15.989H34.877V7.39917ZM36.6113 8.82886V10.8152H37.748C38.4238 10.8152 38.8438 10.8054 39.0078 10.7859C39.3047 10.7507 39.5371 10.6492 39.7051 10.4812C39.877 10.3093 39.9629 10.0847 39.9629 9.80737C39.9629 9.54175 39.8887 9.3269 39.7402 9.16284C39.5957 8.99487 39.3789 8.89331 39.0898 8.85815C38.918 8.83862 38.4238 8.82886 37.6074 8.82886H36.6113ZM36.6113 12.2449V14.5417H38.2168C38.8418 14.5417 39.2383 14.5242 39.4062 14.489C39.6641 14.4421 39.873 14.3289 40.0332 14.1492C40.1973 13.9656 40.2793 13.7214 40.2793 13.4167C40.2793 13.1589 40.2168 12.9402 40.0918 12.7605C39.9668 12.5808 39.7852 12.45 39.5469 12.3679C39.3125 12.2859 38.8008 12.2449 38.0117 12.2449H36.6113ZM43.4902 15.989V7.39917H45.2246V15.989H43.4902ZM54.6289 15.989H52.7422L51.9922 14.0378H48.5586L47.8496 15.989H46.0098L49.3555 7.39917H51.1895L54.6289 15.989ZM51.4355 12.5906L50.252 9.40308L49.0918 12.5906H51.4355Z" fill="white"/>
<defs>
<linearGradient id="paint0_linear_64_1868" x1="32" y1="1.98901" x2="32" y2="21.989" gradientUnits="userSpaceOnUse">
<stop stop-color="#0038AD"/>
<stop offset="1" stop-color="#778E33"/>
</linearGradient>
</defs>
</svg>
