<svg width="52" height="24" viewBox="0 0 52 24" fill="none" xmlns="http://www.w3.org/2000/svg">
<rect x="2" y="1.98901" width="49" height="20" rx="10" fill="url(#paint0_linear_64_1876)"/>
<rect x="2" y="1.98901" width="49" height="20" rx="10" stroke="#994D00" stroke-width="3" stroke-linejoin="round"/>
<path d="M10.375 15.989V7.39917H12.0625L15.5781 13.1355V7.39917H17.1895V15.989H15.4492L11.9863 10.3875V15.989H10.375ZM19.0293 15.989V7.39917H25.3984V8.85229H20.7637V10.7566H25.0762V12.2039H20.7637V14.5417H25.5625V15.989H19.0293ZM26.9805 15.989V7.39917H28.7148V15.989H26.9805ZM30.4199 15.989V7.46948H32.1543V14.5417H36.4668V15.989H30.4199ZM37.2871 13.7097L38.8809 13.5164C38.9316 13.9226 39.0684 14.2332 39.291 14.448C39.5137 14.6628 39.7832 14.7703 40.0996 14.7703C40.4395 14.7703 40.7246 14.6414 40.9551 14.3835C41.1895 14.1257 41.3066 13.7781 41.3066 13.3406C41.3066 12.9265 41.1953 12.5984 40.9727 12.3562C40.75 12.114 40.4785 11.9929 40.1582 11.9929C39.9473 11.9929 39.6953 12.0339 39.4023 12.116L39.584 10.7742C40.0293 10.7859 40.3691 10.6902 40.6035 10.4871C40.8379 10.28 40.9551 10.0066 40.9551 9.66675C40.9551 9.37769 40.8691 9.14722 40.6973 8.97534C40.5254 8.80347 40.2969 8.71753 40.0117 8.71753C39.7305 8.71753 39.4902 8.81519 39.291 9.0105C39.0918 9.20581 38.9707 9.49097 38.9277 9.86597L37.4102 9.60815C37.5156 9.08862 37.6738 8.67456 37.8848 8.36597C38.0996 8.05347 38.3965 7.80933 38.7754 7.63354C39.1582 7.45386 39.5859 7.36401 40.0586 7.36401C40.8672 7.36401 41.5156 7.62183 42.0039 8.13745C42.4062 8.55933 42.6074 9.03589 42.6074 9.56714C42.6074 10.321 42.1953 10.9226 41.3711 11.3718C41.8633 11.4773 42.2559 11.7136 42.5488 12.0808C42.8457 12.448 42.9941 12.8914 42.9941 13.4109C42.9941 14.1648 42.7188 14.8074 42.168 15.3386C41.6172 15.8699 40.9316 16.1355 40.1113 16.1355C39.334 16.1355 38.6895 15.9128 38.1777 15.4675C37.666 15.0183 37.3691 14.4324 37.2871 13.7097Z" fill="white"/>
<defs>
<linearGradient id="paint0_linear_64_1876" x1="26.5" y1="1.98901" x2="26.5" y2="21.989" gradientUnits="userSpaceOnUse">
<stop stop-color="#994D00"/>
<stop offset="1" stop-color="#41907A"/>
</linearGradient>
</defs>
</svg>
