<svg width="37" height="24" viewBox="0 0 37 24" fill="none" xmlns="http://www.w3.org/2000/svg">
<rect x="2" y="1.98901" width="34" height="20" rx="10" fill="url(#paint0_linear_45_4272)"/>
<rect x="2" y="1.98901" width="34" height="20" rx="10" stroke="#B174B0" stroke-width="3" stroke-linejoin="round"/>
<path d="M14.8633 12.8308V11.3835H18.6016V14.8054C18.2383 15.157 17.7109 15.4675 17.0195 15.7371C16.332 16.0027 15.6348 16.1355 14.9277 16.1355C14.0293 16.1355 13.2461 15.948 12.5781 15.573C11.9102 15.1941 11.4082 14.655 11.0723 13.9558C10.7363 13.2527 10.5684 12.489 10.5684 11.6648C10.5684 10.7703 10.7559 9.97534 11.1309 9.28003C11.5059 8.58472 12.0547 8.05151 12.7773 7.68042C13.3281 7.39526 14.0137 7.25269 14.834 7.25269C15.9004 7.25269 16.7324 7.47729 17.3301 7.92651C17.9316 8.37183 18.3184 8.98901 18.4902 9.77808L16.7676 10.1003C16.6465 9.67847 16.418 9.34644 16.082 9.10425C15.75 8.85815 15.334 8.73511 14.834 8.73511C14.0762 8.73511 13.4727 8.97534 13.0234 9.45581C12.5781 9.93628 12.3555 10.6492 12.3555 11.5945C12.3555 12.614 12.582 13.3796 13.0352 13.8914C13.4883 14.3992 14.082 14.6531 14.8164 14.6531C15.1797 14.6531 15.543 14.5828 15.9062 14.4421C16.2734 14.2976 16.5879 14.1238 16.8496 13.9207V12.8308H14.8633ZM25.7031 12.8308L27.3848 13.364C27.127 14.3015 26.6973 14.9988 26.0957 15.4558C25.498 15.9089 24.7383 16.1355 23.8164 16.1355C22.6758 16.1355 21.7383 15.7468 21.0039 14.9695C20.2695 14.1882 19.9023 13.1218 19.9023 11.7703C19.9023 10.3406 20.2715 9.2312 21.0098 8.44214C21.748 7.64917 22.7188 7.25269 23.9219 7.25269C24.9727 7.25269 25.8262 7.56323 26.4824 8.18433C26.873 8.55151 27.166 9.07886 27.3613 9.76636L25.6445 10.1765C25.543 9.7312 25.3301 9.37964 25.0059 9.12183C24.6855 8.86401 24.2949 8.73511 23.834 8.73511C23.1973 8.73511 22.6797 8.96362 22.2812 9.42065C21.8867 9.87769 21.6895 10.6179 21.6895 11.6414C21.6895 12.7273 21.8848 13.5007 22.2754 13.9617C22.666 14.4226 23.1738 14.6531 23.7988 14.6531C24.2598 14.6531 24.6562 14.5066 24.9883 14.2136C25.3203 13.9207 25.5586 13.4597 25.7031 12.8308Z" fill="white"/>
<defs>
<linearGradient id="paint0_linear_45_4272" x1="19" y1="1.98901" x2="19" y2="21.989" gradientUnits="userSpaceOnUse">
<stop stop-color="#B174B0"/>
<stop offset="1" stop-color="#2757D8"/>
</linearGradient>
</defs>
</svg>
