<svg width="46" height="24" viewBox="0 0 46 24" fill="none" xmlns="http://www.w3.org/2000/svg">
<rect x="2" y="1.98901" width="43" height="20" rx="10" fill="url(#paint0_linear_50_1806)"/>
<rect x="2" y="1.98901" width="43" height="20" rx="10" stroke="#354DAF" stroke-width="3" stroke-linejoin="round"/>
<path d="M10.3047 15.989V7.39917H12.0391V15.989H10.3047ZM13.709 15.989V7.39917H19.5977V8.85229H15.4434V10.8855H19.0293V12.3386H15.4434V15.989H13.709ZM20.9805 15.989V7.39917H22.7148V15.989H20.9805ZM26.3066 15.989V8.85229H23.7578V7.39917H30.584V8.85229H28.041V15.989H26.3066ZM31.3691 13.78L33.0098 13.6101C33.0566 13.9812 33.1953 14.2761 33.4258 14.4949C33.6562 14.7097 33.9219 14.8171 34.2227 14.8171C34.5664 14.8171 34.8574 14.6785 35.0957 14.4011C35.334 14.1199 35.4531 13.698 35.4531 13.1355C35.4531 12.6082 35.334 12.2136 35.0957 11.9519C34.8613 11.6863 34.5547 11.5535 34.1758 11.5535C33.7031 11.5535 33.2793 11.7625 32.9043 12.1804L31.5684 11.9871L32.4121 7.51636H36.7656V9.05737H33.6602L33.4023 10.5164C33.7695 10.3328 34.1445 10.241 34.5273 10.241C35.2578 10.241 35.877 10.5066 36.3848 11.0378C36.8926 11.5691 37.1465 12.2585 37.1465 13.1062C37.1465 13.8132 36.9414 14.4441 36.5312 14.9988C35.9727 15.7566 35.1973 16.1355 34.2051 16.1355C33.4121 16.1355 32.7656 15.9226 32.2656 15.4968C31.7656 15.071 31.4668 14.4988 31.3691 13.78Z" fill="white"/>
<defs>
<linearGradient id="paint0_linear_50_1806" x1="23.5" y1="21.989" x2="23.5" y2="1.98901" gradientUnits="userSpaceOnUse">
<stop stop-color="#DEC313"/>
<stop offset="1" stop-color="#354DAF"/>
</linearGradient>
</defs>
</svg>
