<svg width="51" height="24" viewBox="0 0 51 24" fill="none" xmlns="http://www.w3.org/2000/svg">
<rect x="2" y="1.98901" width="48" height="20" rx="10" fill="url(#paint0_linear_84_2056)"/>
<rect x="2" y="1.98901" width="48" height="20" rx="10" stroke="#2A72D0" stroke-width="3" stroke-linejoin="round"/>
<path d="M12.1309 15.989V8.85229H9.58203V7.39917H16.4082V8.85229H13.8652V15.989H12.1309ZM19.7891 15.989V12.3738L16.6426 7.39917H18.6758L20.6973 10.7976L22.6777 7.39917H24.6758L21.5176 12.3855V15.989H19.7891ZM26.7559 15.989L24.7051 7.39917H26.4805L27.7754 13.2996L29.3457 7.39917H31.4082L32.9141 13.3992L34.2324 7.39917H35.9785L33.8926 15.989H32.0527L30.3418 9.56714L28.6367 15.989H26.7559ZM40.7188 15.989H39.0723V9.78394C38.4707 10.3464 37.7617 10.7625 36.9453 11.032V9.53784C37.375 9.39722 37.8418 9.13159 38.3457 8.74097C38.8496 8.34644 39.1953 7.88745 39.3828 7.36401H40.7188V15.989Z" fill="white"/>
<defs>
<linearGradient id="paint0_linear_84_2056" x1="26" y1="1.98901" x2="26" y2="21.989" gradientUnits="userSpaceOnUse">
<stop stop-color="#2A72D0"/>
<stop offset="1" stop-color="#CF927C"/>
</linearGradient>
</defs>
</svg>
