<svg width="40" height="40" viewBox="0 0 40 40" fill="none" xmlns="http://www.w3.org/2000/svg">
<path d="M19.9747 1.48901C30.3092 1.48925 38.7169 9.89738 38.7169 20.2332C38.7166 30.5688 30.309 38.9751 19.9747 38.9753C9.6389 38.9753 1.23077 30.5677 1.23053 20.2332C1.23053 9.89833 9.63861 1.48901 19.9747 1.48901Z" fill="url(#paint0_radial_89_4116)" stroke="#312BA5"/>
<path d="M7.5509 23.989V15.3992H9.28528V23.989H7.5509ZM10.9904 23.989V15.4695H12.7247V22.5417H17.0372V23.989H10.9904ZM22.129 23.989H20.4825V17.7839C19.881 18.3464 19.172 18.7625 18.3556 19.032V17.5378C18.7853 17.3972 19.2521 17.1316 19.756 16.741C20.2599 16.3464 20.6056 15.8875 20.7931 15.364H22.129V23.989ZM24.5372 21.7097L26.131 21.5164C26.1818 21.9226 26.3185 22.2332 26.5411 22.448C26.7638 22.6628 27.0333 22.7703 27.3497 22.7703C27.6896 22.7703 27.9747 22.6414 28.2052 22.3835C28.4396 22.1257 28.5568 21.7781 28.5568 21.3406C28.5568 20.9265 28.4454 20.5984 28.2228 20.3562C28.0001 20.114 27.7286 19.9929 27.4083 19.9929C27.1974 19.9929 26.9454 20.0339 26.6525 20.116L26.8341 18.7742C27.2794 18.7859 27.6193 18.6902 27.8536 18.4871C28.088 18.28 28.2052 18.0066 28.2052 17.6667C28.2052 17.3777 28.1193 17.1472 27.9474 16.9753C27.7755 16.8035 27.547 16.7175 27.2618 16.7175C26.9806 16.7175 26.7404 16.8152 26.5411 17.0105C26.3419 17.2058 26.2208 17.491 26.1779 17.866L24.6603 17.6082C24.7657 17.0886 24.924 16.6746 25.1349 16.366C25.3497 16.0535 25.6466 15.8093 26.0255 15.6335C26.4083 15.4539 26.8361 15.364 27.3087 15.364C28.1173 15.364 28.7657 15.6218 29.254 16.1375C29.6564 16.5593 29.8575 17.0359 29.8575 17.5671C29.8575 18.321 29.4454 18.9226 28.6212 19.3718C29.1134 19.4773 29.506 19.7136 29.799 20.0808C30.0958 20.448 30.2443 20.8914 30.2443 21.4109C30.2443 22.1648 29.9689 22.8074 29.4181 23.3386C28.8673 23.8699 28.1818 24.1355 27.3615 24.1355C26.5841 24.1355 25.9396 23.9128 25.4279 23.4675C24.9161 23.0183 24.6193 22.4324 24.5372 21.7097Z" fill="white"/>
<defs>
<radialGradient id="paint0_radial_89_4116" cx="0" cy="0" r="1" gradientUnits="userSpaceOnUse" gradientTransform="translate(12.0199 10.7757) rotate(180) scale(17.472)">
<stop stop-color="#6DAEE3"/>
<stop offset="0.0426" stop-color="#61A3DA"/>
<stop offset="0.1471" stop-color="#4A8FC7"/>
<stop offset="0.2668" stop-color="#377FB9"/>
<stop offset="0.4091" stop-color="#2B73AF"/>
<stop offset="0.5961" stop-color="#236DA9"/>
<stop offset="0.9995" stop-color="#216BA7"/>
</radialGradient>
</defs>
</svg>
