<svg width="48" height="24" viewBox="0 0 48 24" fill="none" xmlns="http://www.w3.org/2000/svg">
<rect x="2" y="1.98901" width="45" height="20" rx="10" fill="url(#paint0_linear_85_2064)"/>
<rect x="2" y="1.98901" width="45" height="20" rx="10" stroke="#A6EE94" stroke-width="3" stroke-linejoin="round"/>
<path d="M11.9609 15.989V8.85229H9.41211V7.39917H16.2383V8.85229H13.6953V15.989H11.9609ZM16.9238 13.1941L18.6113 13.03C18.7129 13.5964 18.918 14.0125 19.2266 14.2781C19.5391 14.5437 19.959 14.6765 20.4863 14.6765C21.0449 14.6765 21.4648 14.5593 21.7461 14.325C22.0312 14.0867 22.1738 13.8093 22.1738 13.4929C22.1738 13.2898 22.1133 13.1179 21.9922 12.9773C21.875 12.8328 21.668 12.7078 21.3711 12.6023C21.168 12.532 20.7051 12.407 19.9824 12.2273C19.0527 11.9968 18.4004 11.7136 18.0254 11.3777C17.498 10.905 17.2344 10.3289 17.2344 9.64917C17.2344 9.21167 17.3574 8.80347 17.6035 8.42456C17.8535 8.04175 18.2109 7.75073 18.6758 7.55151C19.1445 7.35229 19.709 7.25269 20.3691 7.25269C21.4473 7.25269 22.2578 7.48901 22.8008 7.96167C23.3477 8.43433 23.6348 9.06519 23.6621 9.85425L21.9277 9.93042C21.8535 9.48901 21.6934 9.17261 21.4473 8.9812C21.2051 8.78589 20.8398 8.68823 20.3516 8.68823C19.8477 8.68823 19.4531 8.79175 19.168 8.99878C18.9844 9.13159 18.8926 9.30933 18.8926 9.53198C18.8926 9.73511 18.9785 9.90894 19.1504 10.0535C19.3691 10.2371 19.9004 10.4285 20.7441 10.6277C21.5879 10.8269 22.2109 11.0339 22.6133 11.2488C23.0195 11.4597 23.3359 11.7507 23.5625 12.1218C23.793 12.489 23.9082 12.9441 23.9082 13.4871C23.9082 13.9792 23.7715 14.4402 23.498 14.8699C23.2246 15.2996 22.8379 15.6199 22.3379 15.8308C21.8379 16.0378 21.2148 16.1414 20.4688 16.1414C19.3828 16.1414 18.5488 15.8914 17.9668 15.3914C17.3848 14.8875 17.0371 14.155 16.9238 13.1941ZM25.373 15.989V7.39917H29.0234C29.9414 7.39917 30.6074 7.47729 31.0215 7.63354C31.4395 7.78589 31.7734 8.05933 32.0234 8.45386C32.2734 8.84839 32.3984 9.29956 32.3984 9.80737C32.3984 10.4519 32.209 10.9851 31.8301 11.407C31.4512 11.825 30.8848 12.0886 30.1309 12.198C30.5059 12.4167 30.8145 12.657 31.0566 12.9187C31.3027 13.1804 31.6328 13.6453 32.0469 14.3132L33.0957 15.989H31.0215L29.7676 14.1199C29.3223 13.4519 29.0176 13.032 28.8535 12.8601C28.6895 12.6843 28.5156 12.5652 28.332 12.5027C28.1484 12.4363 27.8574 12.4031 27.459 12.4031H27.1074V15.989H25.373ZM27.1074 11.032H28.3906C29.2227 11.032 29.7422 10.9968 29.9492 10.9265C30.1562 10.8562 30.3184 10.7351 30.4355 10.5632C30.5527 10.3914 30.6113 10.1765 30.6113 9.9187C30.6113 9.62964 30.5332 9.39722 30.377 9.22144C30.2246 9.04175 30.0078 8.92847 29.7266 8.88159C29.5859 8.86206 29.1641 8.85229 28.4609 8.85229H27.1074V11.032ZM33.6172 13.7097L35.2109 13.5164C35.2617 13.9226 35.3984 14.2332 35.6211 14.448C35.8438 14.6628 36.1133 14.7703 36.4297 14.7703C36.7695 14.7703 37.0547 14.6414 37.2852 14.3835C37.5195 14.1257 37.6367 13.7781 37.6367 13.3406C37.6367 12.9265 37.5254 12.5984 37.3027 12.3562C37.0801 12.114 36.8086 11.9929 36.4883 11.9929C36.2773 11.9929 36.0254 12.0339 35.7324 12.116L35.9141 10.7742C36.3594 10.7859 36.6992 10.6902 36.9336 10.4871C37.168 10.28 37.2852 10.0066 37.2852 9.66675C37.2852 9.37769 37.1992 9.14722 37.0273 8.97534C36.8555 8.80347 36.627 8.71753 36.3418 8.71753C36.0605 8.71753 35.8203 8.81519 35.6211 9.0105C35.4219 9.20581 35.3008 9.49097 35.2578 9.86597L33.7402 9.60815C33.8457 9.08862 34.0039 8.67456 34.2148 8.36597C34.4297 8.05347 34.7266 7.80933 35.1055 7.63354C35.4883 7.45386 35.916 7.36401 36.3887 7.36401C37.1973 7.36401 37.8457 7.62183 38.334 8.13745C38.7363 8.55933 38.9375 9.03589 38.9375 9.56714C38.9375 10.321 38.5254 10.9226 37.7012 11.3718C38.1934 11.4773 38.5859 11.7136 38.8789 12.0808C39.1758 12.448 39.3242 12.8914 39.3242 13.4109C39.3242 14.1648 39.0488 14.8074 38.498 15.3386C37.9473 15.8699 37.2617 16.1355 36.4414 16.1355C35.6641 16.1355 35.0195 15.9128 34.5078 15.4675C33.9961 15.0183 33.6992 14.4324 33.6172 13.7097Z" fill="white"/>
<defs>
<linearGradient id="paint0_linear_85_2064" x1="24.5" y1="1.98901" x2="24.5" y2="21.989" gradientUnits="userSpaceOnUse">
<stop stop-color="#A6EE94"/>
<stop offset="1" stop-color="#810078"/>
</linearGradient>
</defs>
</svg>
