<svg width="60" height="24" viewBox="0 0 60 24" fill="none" xmlns="http://www.w3.org/2000/svg">
<rect x="2" y="1.98901" width="57" height="20" rx="10" fill="url(#paint0_linear_52_1860)"/>
<rect x="2" y="1.98901" width="57" height="20" rx="10" stroke="#2764E0" stroke-width="3" stroke-linejoin="round"/>
<path d="M10.3379 15.989V7.39917H12.9336L14.4922 13.2585L16.0332 7.39917H18.6348V15.989H17.0234V9.22729L15.3184 15.989H13.6484L11.9492 9.22729V15.989H10.3379ZM28.1035 15.989H26.2168L25.4668 14.0378H22.0332L21.3242 15.989H19.4844L22.8301 7.39917H24.6641L28.1035 15.989ZM24.9102 12.5906L23.7266 9.40308L22.5664 12.5906H24.9102ZM29.0293 15.989V7.39917H31.8125C32.8672 7.39917 33.5547 7.44214 33.875 7.52808C34.3672 7.65698 34.7793 7.93823 35.1113 8.37183C35.4434 8.80151 35.6094 9.35815 35.6094 10.0417C35.6094 10.5691 35.5137 11.0125 35.3223 11.3718C35.1309 11.7312 34.8867 12.0144 34.5898 12.2214C34.2969 12.4246 33.998 12.5593 33.6934 12.6257C33.2793 12.7078 32.6797 12.7488 31.8945 12.7488H30.7637V15.989H29.0293ZM30.7637 8.85229V11.2898H31.7129C32.3965 11.2898 32.8535 11.2449 33.084 11.155C33.3145 11.0652 33.4941 10.9246 33.623 10.7332C33.7559 10.5417 33.8223 10.3191 33.8223 10.0652C33.8223 9.75269 33.7305 9.49487 33.5469 9.29175C33.3633 9.08862 33.1309 8.96167 32.8496 8.91089C32.6426 8.87183 32.2266 8.85229 31.6016 8.85229H30.7637ZM42.2305 14.4597V15.989H36.459C36.5215 15.4109 36.709 14.864 37.0215 14.3484C37.334 13.8289 37.9512 13.1414 38.873 12.2859C39.6152 11.5945 40.0703 11.1257 40.2383 10.8796C40.4648 10.5398 40.5781 10.2039 40.5781 9.87183C40.5781 9.50464 40.4785 9.22339 40.2793 9.02808C40.084 8.82886 39.8125 8.72925 39.4648 8.72925C39.1211 8.72925 38.8477 8.83276 38.6445 9.03979C38.4414 9.24683 38.3242 9.59058 38.293 10.071L36.6523 9.90698C36.75 9.00073 37.0566 8.35034 37.5723 7.95581C38.0879 7.56128 38.7324 7.36401 39.5059 7.36401C40.3535 7.36401 41.0195 7.59253 41.5039 8.04956C41.9883 8.50659 42.2305 9.07495 42.2305 9.75464C42.2305 10.1414 42.1602 10.5105 42.0195 10.8621C41.8828 11.2097 41.6641 11.575 41.3633 11.9578C41.1641 12.2117 40.8047 12.5769 40.2852 13.0535C39.7656 13.53 39.4355 13.8464 39.2949 14.0027C39.1582 14.1589 39.0469 14.3113 38.9609 14.4597H42.2305ZM43.7363 15.989V7.39917H45.4707V11.2136L48.9746 7.39917H51.3066L48.0723 10.7449L51.4824 15.989H49.2383L46.877 11.9578L45.4707 13.3933V15.989H43.7363Z" fill="white"/>
<defs>
<linearGradient id="paint0_linear_52_1860" x1="30.5" y1="1.98901" x2="30.5" y2="21.989" gradientUnits="userSpaceOnUse">
<stop stop-color="#2764E0"/>
<stop offset="1" stop-color="#9D4B6A"/>
</linearGradient>
</defs>
</svg>
