<svg width="60" height="64" viewBox="0 0 60 64" fill="none" xmlns="http://www.w3.org/2000/svg">
<path d="M58.6069 32.4531C57.4469 30.9731 55.6169 30.0531 53.7669 30.0631L44.8069 30.4131C39.9269 30.6331 35.0269 30.7831 30.1469 30.7931C28.8169 27.7031 27.3669 24.6831 25.9669 21.6231C25.7969 21.2731 25.8869 20.8431 26.1869 20.5831C29.1969 17.9131 32.2469 15.2731 35.3869 12.7631L38.007 10.6631C38.957 9.88306 39.6369 8.79306 39.927 7.59306C40.197 6.39306 40.067 5.10306 39.547 3.95306C39.027 2.82306 38.117 1.84306 36.967 1.27306C35.827 0.683062 34.477 0.493062 33.197 0.753062C32.557 0.882962 31.927 1.11306 31.357 1.45306C30.757 1.83306 30.367 2.15306 29.907 2.48306C28.097 3.80306 26.307 5.14306 24.537 6.50306C22.757 7.86306 20.967 9.19296 19.207 10.5831L16.557 12.6431L15.237 13.6731L14.577 14.1831C14.307 14.4031 14.027 14.6531 13.787 14.9131C12.797 15.9831 12.187 17.3931 12.087 18.8431C12.027 19.5731 12.097 20.3131 12.287 21.0231C12.517 21.8031 12.727 22.2331 12.927 22.7631L15.457 28.9831C15.677 29.5131 15.907 30.0431 16.127 30.5731C13.797 30.4931 11.467 30.4031 9.13688 30.3231L6.89688 30.2431C5.99688 30.2231 5.09688 30.4131 4.26688 30.7931C2.60688 31.5531 1.35688 33.1231 0.916877 34.9231C0.466877 36.7131 0.896877 38.7231 2.05688 40.2131C3.18688 41.7131 5.06688 42.6331 6.96688 42.6631C11.8069 42.7131 16.6369 42.8231 21.4669 42.8531C23.1169 46.3931 24.8569 49.8931 26.5469 53.4231C27.5169 55.4431 29.8069 60.3731 29.8069 60.3731C30.6569 62.1531 32.4769 63.383 34.5869 63.383C36.0769 63.383 37.4269 62.763 38.3869 61.763H38.3969C40.4269 59.593 45.7169 53.883 47.7869 51.743C49.8369 49.583 51.9269 47.463 53.9469 45.283C54.9568 44.193 55.9669 43.103 56.9469 41.983L58.4469 40.293C59.0569 39.583 59.4969 38.713 59.7169 37.793C60.1769 35.9631 59.7769 33.9331 58.6069 32.4531ZM39.7822 42.6752C38.8454 43.8163 37.9462 44.9947 37.0469 46.1731L36.4069 47.0031C35.9269 45.5931 35.4369 44.1831 34.9369 42.7831C36.5414 42.7683 38.146 42.7536 39.7822 42.6752Z" fill="#77002F"/>
<path d="M25.4623 19.1549C25.4623 19.1549 33.2583 13.3241 37.4264 9.89945C39.2658 8.37555 39.5217 5.64905 37.9978 3.80965C36.4739 1.97015 33.7475 1.71435 31.908 3.23825L16.3106 16.6854L16.3199 16.6959C15.6065 17.321 15.1469 18.2282 15.1469 19.2513C15.1469 19.6856 15.228 20.1008 15.376 20.4828L19.5869 30.673L27.3769 30.793C27.3769 30.793 24.6192 23.2724 24.3746 22.6056C24.1301 21.9388 23.7364 21.0807 23.5919 20.8551C23.2766 20.3626 22.8774 19.8896 22.3569 19.7002C22.0977 19.6056 21.9641 19.3187 22.0582 19.0593C22.062 19.0492 22.0661 19.0388 22.0705 19.0289C22.1755 18.7897 22.45 18.6698 22.6992 18.7605C23.0587 18.8914 23.3772 19.0839 23.6585 19.3423C24.1034 19.751 24.8786 19.5739 25.4623 19.1549Z" fill="#B9005A"/>
<path d="M57.2268 36.2094C57.2268 34.136 55.546 32.4552 53.4726 32.4552C36.8107 31.6023 21.1535 31.429 7.0121 32.2808C4.9285 32.2808 3.2395 33.9699 3.2395 36.0534C3.2395 38.1369 4.9292 39.8771 7.0121 39.826C19.5084 39.5198 31.5 39.6938 43.487 39.9333C44.2805 39.9492 44.9813 39.4078 45.3021 39.0977C45.9551 38.4665 47.0106 37.5853 48.2203 37.5422C48.4853 37.5327 48.7095 37.7315 48.7356 37.9914C48.7366 38.0021 48.7373 38.0133 48.7379 38.0241C48.7475 38.2999 48.5318 38.5317 48.256 38.5417C47.4202 38.5713 46.6462 39.3029 46.0955 39.8287L45.9712 39.9413L35.8969 50.3029L32.0286 54.3048C31.5605 54.9053 31.0254 55.7226 31.0796 56.5572C31.0972 56.8326 30.8882 57.0704 30.6128 57.0884C30.6021 57.0889 30.5908 57.0894 30.5801 57.0894C30.3189 57.0894 30.0987 56.8863 30.0816 56.6216C29.9888 55.187 31.0943 53.8506 31.6255 53.2085L35.117 48.6828H35.1278L33.671 45.4967C32.9009 43.3917 30.5702 42.3096 28.4652 43.0796C26.3603 43.8497 25.2781 46.1804 26.0482 48.2853L29.9109 59.7446L29.9259 59.7215C30.1548 60.4359 30.5317 61.113 31.0987 61.68C33.0007 63.582 36.0846 63.582 37.9866 61.68L56.4156 38.5404L56.3915 38.5436C56.9061 37.9013 57.2268 37.0967 57.2268 36.2094Z" fill="#B9005A"/>
<path d="M37.1407 53.4849C36.8956 53.4849 36.6495 53.3951 36.4566 53.2144C36.0538 52.8365 36.0333 52.2037 36.4112 51.8013L46.8492 40.6675C47.2262 40.2642 47.8595 40.2437 48.2628 40.6216C48.6656 40.9995 48.6861 41.6323 48.3082 42.0347L37.8702 53.1685C37.6735 53.3784 37.4073 53.4849 37.1407 53.4849Z" fill="#FF9AC7"/>
<path d="M27.6994 48.0033C27.6574 48.0033 27.6154 48.0004 27.5729 47.9955C27.025 47.9262 26.6369 47.4262 26.7057 46.8783C26.8654 45.6117 27.5763 44.9496 28.1447 44.6176C29.3009 43.9418 30.7067 44.1078 31.5593 44.4565C32.0705 44.6655 32.3156 45.2495 32.1067 45.7602C31.8982 46.2719 31.3142 46.518 30.8025 46.3081C30.3377 46.1186 29.6223 46.0718 29.1536 46.3442C28.9847 46.4438 28.7527 46.6323 28.6902 47.1284C28.6267 47.6342 28.196 48.0033 27.6994 48.0033Z" fill="#FF9AC7"/>
<path d="M18.1403 21.2113C17.7604 21.2113 17.3971 20.9935 17.2297 20.6254C16.154 18.2602 16.9758 17.0981 18.0246 16.1938L31.1545 5.65281C31.5852 5.30901 32.2146 5.37641 32.5603 5.80711C32.906 6.23781 32.8372 6.86761 32.4065 7.21331L19.3035 17.7319C18.742 18.2163 18.4471 18.4712 19.0501 19.7973C19.2791 20.3002 19.0564 20.893 18.554 21.1215C18.4196 21.183 18.2789 21.2113 18.1403 21.2113Z" fill="#FF9AC7"/>
<path d="M40.0621 33.1655H8.23725C6.85325 33.214 5.48495 33.6058 4.84295 36.1236C4.74305 36.5156 4.89005 36.9128 5.18625 37.1506C5.29445 37.2374 5.42175 37.3034 5.56495 37.3394C6.09985 37.4758 6.64455 37.1529 6.78085 36.6174C7.14085 35.2058 7.53045 35.1916 8.27155 35.1654L40.0621 35.1655C40.6143 35.1655 41.0621 34.7182 41.0621 34.1655C41.0621 33.6128 40.6144 33.1655 40.0621 33.1655Z" fill="#FF9AC7"/>
</svg>
