<svg width="17" height="176" viewBox="0 0 17 176" fill="none" xmlns="http://www.w3.org/2000/svg">
<path d="M16.6008 23.8832C16.6008 21.4701 15.5866 19.3008 13.9719 17.7987C13.1387 17.0236 13.1088 15.693 13.9263 14.9005C15.1058 13.7571 16.6008 11.7561 16.6008 8.77404C16.6008 4.12922 12.8539 0.761719 8.60045 0.761719C4.34704 0.761719 0.60083 4.29009 0.60083 8.77404C0.60083 11.1884 1.61625 13.3589 3.23251 14.861C4.08065 15.6491 4.08065 17.0082 3.23251 17.7964C1.61625 19.2984 0.60083 21.4689 0.60083 23.8832C0.60083 26.2975 1.61625 28.4679 3.23251 29.9701C4.08065 30.7584 4.08052 32.1174 3.23239 32.9055C1.61625 34.4077 0.60083 36.5781 0.60083 38.9925C0.60083 41.4067 1.61625 43.5772 3.23251 45.0793C4.08065 45.8676 4.08065 47.2265 3.23251 48.0148C1.61625 49.5169 0.60083 51.6875 0.60083 54.1018C0.60083 56.516 1.61625 58.6865 3.23251 60.1886C4.08065 60.9769 4.08065 62.3358 3.23251 63.1241C1.61625 64.6263 0.60083 66.7966 0.60083 69.211C0.60083 72.1997 2.15793 74.8126 4.48379 76.2483C5.05638 76.6017 5.40101 77.2403 5.40101 77.9261V121.744C5.40101 122.78 5.11808 123.781 4.68899 124.718C4.05762 126.097 3.68183 127.819 3.68183 129.689C3.68183 131.559 4.05762 133.281 4.68899 134.66C5.11821 135.598 5.40101 136.599 5.40101 137.635V138.167C5.40101 139.203 5.11821 140.204 4.68899 141.141C4.05762 142.521 3.68171 144.242 3.68171 146.112C3.68171 147.983 4.05762 149.704 4.68899 151.083C5.11821 152.021 5.40101 153.022 5.40101 154.058V154.59C5.40101 155.626 5.11808 156.627 4.68899 157.565C4.05762 158.944 3.68183 160.665 3.68183 162.536C3.68183 164.406 4.05762 166.127 4.68899 167.507C5.11821 168.444 5.40101 169.445 5.40101 170.481V172.463C5.40101 172.463 5.32366 175.748 8.60032 175.748C11.8769 175.748 11.801 172.463 11.801 172.463V170.48C11.801 169.445 12.0838 168.444 12.5129 167.506C13.1442 166.127 13.52 164.406 13.52 162.536C13.52 160.666 13.1442 158.944 12.5129 157.565C12.0838 156.628 11.801 155.627 11.801 154.591V154.057C11.801 153.021 12.0838 152.021 12.5129 151.083C13.1442 149.704 13.52 147.982 13.52 146.112C13.52 144.242 13.1442 142.521 12.5129 141.142C12.0838 140.204 11.801 139.204 11.801 138.168V137.634C11.801 136.598 12.0838 135.597 12.5129 134.66C13.1442 133.28 13.52 131.559 13.52 129.689C13.52 127.819 13.1442 126.098 12.5129 124.719C12.0838 123.781 11.801 122.78 11.801 121.745L11.8012 77.9257C11.8012 77.2401 12.1458 76.6015 12.7182 76.2481C15.0439 74.8124 16.601 72.1995 16.601 69.2109C16.601 66.7965 15.5855 64.6262 13.9694 63.124C13.1213 62.3357 13.1213 60.9767 13.9694 60.1884C15.5855 58.6864 16.601 56.5159 16.601 54.1016C16.601 51.6874 15.5855 49.5169 13.9694 48.0148C13.1213 47.2265 13.1213 45.8676 13.9694 45.0793C15.5855 43.5771 16.601 41.4067 16.601 38.9925C16.601 36.5781 15.5855 34.4077 13.9694 32.9057C13.1213 32.1174 13.1213 30.7584 13.9693 29.9701C15.5854 28.4679 16.6008 26.2976 16.6008 23.8832Z" fill="url(#paint0_linear_86_2742)"/>
<path d="M16.6008 23.8832C16.6008 21.4701 15.5866 19.3008 13.9719 17.7987C13.1387 17.0236 13.1088 15.693 13.9263 14.9005C15.1058 13.7571 16.6008 11.7561 16.6008 8.77404C16.6008 4.12922 12.8539 0.761719 8.60045 0.761719C4.34704 0.761719 0.60083 4.29009 0.60083 8.77404C0.60083 11.1884 1.61625 13.3589 3.23251 14.861C4.08065 15.6491 4.08065 17.0082 3.23251 17.7964C1.61625 19.2984 0.60083 21.4689 0.60083 23.8832C0.60083 26.2975 1.61625 28.4679 3.23251 29.9701C4.08065 30.7584 4.08052 32.1174 3.23239 32.9055C1.61625 34.4077 0.60083 36.5781 0.60083 38.9925C0.60083 41.4067 1.61625 43.5772 3.23251 45.0793C4.08065 45.8676 4.08065 47.2265 3.23251 48.0148C1.61625 49.5169 0.60083 51.6875 0.60083 54.1018C0.60083 56.516 1.61625 58.6865 3.23251 60.1886C4.08065 60.9769 4.08065 62.3358 3.23251 63.1241C1.61625 64.6263 0.60083 66.7966 0.60083 69.211C0.60083 72.1997 2.15793 74.8126 4.48379 76.2483C5.05638 76.6017 5.40101 77.2403 5.40101 77.9261V121.744C5.40101 122.78 5.11808 123.781 4.68899 124.718C4.05762 126.097 3.68183 127.819 3.68183 129.689C3.68183 131.559 4.05762 133.281 4.68899 134.66C5.11821 135.598 5.40101 136.599 5.40101 137.635V138.167C5.40101 139.203 5.11821 140.204 4.68899 141.141C4.05762 142.521 3.68171 144.242 3.68171 146.112C3.68171 147.983 4.05762 149.704 4.68899 151.083C5.11821 152.021 5.40101 153.022 5.40101 154.058V154.59C5.40101 155.626 5.11808 156.627 4.68899 157.565C4.05762 158.944 3.68183 160.665 3.68183 162.536C3.68183 164.406 4.05762 166.127 4.68899 167.507C5.11821 168.444 5.40101 169.445 5.40101 170.481V172.463C5.40101 172.463 5.32366 175.748 8.60032 175.748C11.8769 175.748 11.801 172.463 11.801 172.463V170.48C11.801 169.445 12.0838 168.444 12.5129 167.506C13.1442 166.127 13.52 164.406 13.52 162.536C13.52 160.666 13.1442 158.944 12.5129 157.565C12.0838 156.628 11.801 155.627 11.801 154.591V154.057C11.801 153.021 12.0838 152.021 12.5129 151.083C13.1442 149.704 13.52 147.982 13.52 146.112C13.52 144.242 13.1442 142.521 12.5129 141.142C12.0838 140.204 11.801 139.204 11.801 138.168V137.634C11.801 136.598 12.0838 135.597 12.5129 134.66C13.1442 133.28 13.52 131.559 13.52 129.689C13.52 127.819 13.1442 126.098 12.5129 124.719C12.0838 123.781 11.801 122.78 11.801 121.745L11.8012 77.9257C11.8012 77.2401 12.1458 76.6015 12.7182 76.2481C15.0439 74.8124 16.601 72.1995 16.601 69.2109C16.601 66.7965 15.5855 64.6262 13.9694 63.124C13.1213 62.3357 13.1213 60.9767 13.9694 60.1884C15.5855 58.6864 16.601 56.5159 16.601 54.1016C16.601 51.6874 15.5855 49.5169 13.9694 48.0148C13.1213 47.2265 13.1213 45.8676 13.9694 45.0793C15.5855 43.5771 16.601 41.4067 16.601 38.9925C16.601 36.5781 15.5855 34.4077 13.9694 32.9057C13.1213 32.1174 13.1213 30.7584 13.9693 29.9701C15.5854 28.4679 16.6008 26.2976 16.6008 23.8832Z" fill="url(#paint1_linear_86_2742)"/>
<path d="M8.60076 137.901C11.3175 137.901 13.5199 134.224 13.5199 129.689C13.5199 125.154 11.3175 121.478 8.60076 121.478C5.88401 121.478 3.68164 125.154 3.68164 129.689C3.68164 134.224 5.88401 137.901 8.60076 137.901Z" fill="url(#paint2_radial_86_2742)"/>
<path d="M8.60076 154.324C11.3175 154.324 13.5199 150.648 13.5199 146.112C13.5199 141.577 11.3175 137.901 8.60076 137.901C5.88401 137.901 3.68164 141.577 3.68164 146.112C3.68164 150.648 5.88401 154.324 8.60076 154.324Z" fill="url(#paint3_radial_86_2742)"/>
<path d="M8.60076 170.747C11.3175 170.747 13.5199 167.07 13.5199 162.535C13.5199 158 11.3175 154.324 8.60076 154.324C5.88401 154.324 3.68164 158 3.68164 162.535C3.68164 167.07 5.88401 170.747 8.60076 170.747Z" fill="url(#paint4_radial_86_2742)"/>
<path d="M8.60083 99.7407C13.0191 99.7407 16.6008 98.6362 16.6008 97.2737C16.6008 95.9112 13.0191 94.8066 8.60083 94.8066C4.18255 94.8066 0.60083 95.9112 0.60083 97.2737C0.60083 98.6362 4.18255 99.7407 8.60083 99.7407Z" fill="url(#paint5_radial_86_2742)"/>
<path d="M8.60083 95.7405C13.0191 95.7405 16.6008 94.6359 16.6008 93.2734C16.6008 91.9109 13.0191 90.8064 8.60083 90.8064C4.18255 90.8064 0.60083 91.9109 0.60083 93.2734C0.60083 94.6359 4.18255 95.7405 8.60083 95.7405Z" fill="url(#paint6_radial_86_2742)"/>
<path d="M8.60083 91.7402C13.0191 91.7402 16.6008 90.6357 16.6008 89.2732C16.6008 87.9107 13.0191 86.8062 8.60083 86.8062C4.18255 86.8062 0.60083 87.9107 0.60083 89.2732C0.60083 90.6357 4.18255 91.7402 8.60083 91.7402Z" fill="url(#paint7_radial_86_2742)"/>
<path d="M8.60083 77.4832C13.0191 77.4832 16.6008 73.8068 16.6008 69.2716C16.6008 64.7365 13.0191 61.0601 8.60083 61.0601C4.18255 61.0601 0.60083 64.7365 0.60083 69.2716C0.60083 73.8068 4.18255 77.4832 8.60083 77.4832Z" fill="url(#paint8_radial_86_2742)"/>
<path d="M8.60083 62.263C13.0191 62.263 16.6008 58.5866 16.6008 54.0514C16.6008 49.5163 13.0191 45.8398 8.60083 45.8398C4.18255 45.8398 0.60083 49.5163 0.60083 54.0514C0.60083 58.5866 4.18255 62.263 8.60083 62.263Z" fill="url(#paint9_radial_86_2742)"/>
<path d="M8.60083 47.2064C13.0191 47.2064 16.6008 43.5299 16.6008 38.9948C16.6008 34.4597 13.0191 30.7832 8.60083 30.7832C4.18255 30.7832 0.60083 34.4597 0.60083 38.9948C0.60083 43.5299 4.18255 47.2064 8.60083 47.2064Z" fill="url(#paint10_radial_86_2742)"/>
<path d="M8.60083 32.0672C13.0191 32.0672 16.6008 28.3908 16.6008 23.8556C16.6008 19.3205 13.0191 15.644 8.60083 15.644C4.18255 15.644 0.60083 19.3205 0.60083 23.8556C0.60083 28.3908 4.18255 32.0672 8.60083 32.0672Z" fill="url(#paint11_radial_86_2742)"/>
<path d="M16.6008 8.77387C16.6008 4.23873 13.0191 0.747314 8.60083 0.747314C4.18255 0.747314 0.60083 4.23873 0.60083 8.77387C0.60083 13.309 4.18255 16.9855 8.60083 16.9855C13.0191 16.9855 16.6008 13.309 16.6008 8.77387Z" fill="url(#paint12_radial_86_2742)"/>
<defs>
<linearGradient id="paint0_linear_86_2742" x1="0.60083" y1="88.2547" x2="16.6008" y2="88.2547" gradientUnits="userSpaceOnUse">
<stop offset="0.2614" stop-color="#293163"/>
<stop offset="0.4165" stop-color="#09F5C1"/>
<stop offset="0.7435" stop-color="#293163"/>
</linearGradient>
<linearGradient id="paint1_linear_86_2742" x1="8.60083" y1="175.748" x2="8.60083" y2="0.761719" gradientUnits="userSpaceOnUse">
<stop offset="0.1196" stop-color="#293163"/>
<stop offset="0.2202" stop-color="#293163"/>
<stop offset="0.2571" stop-color="#293163"/>
<stop offset="0.3017" stop-color="#293163"/>
<stop offset="0.3078" stop-color="#225B77" stop-opacity="0.8526"/>
<stop offset="0.3168" stop-color="#199191" stop-opacity="0.6375"/>
<stop offset="0.3252" stop-color="#12BCA6" stop-opacity="0.4371"/>
<stop offset="0.3327" stop-color="#0DDBB5" stop-opacity="0.2578"/>
<stop offset="0.339" stop-color="#0AEEBE" stop-opacity="0.106"/>
<stop offset="0.3434" stop-color="#09F5C1" stop-opacity="0"/>
<stop offset="0.3615" stop-color="#09F2C0" stop-opacity="0.1987"/>
<stop offset="0.3749" stop-color="#0BE9BB" stop-opacity="0.3452"/>
<stop offset="0.3867" stop-color="#0ED9B3" stop-opacity="0.4751"/>
<stop offset="0.3977" stop-color="#11C2A9" stop-opacity="0.5952"/>
<stop offset="0.408" stop-color="#16A59B" stop-opacity="0.7087"/>
<stop offset="0.4179" stop-color="#1C8189" stop-opacity="0.8172"/>
<stop offset="0.4272" stop-color="#235775" stop-opacity="0.9198"/>
<stop offset="0.4345" stop-color="#293163"/>
<stop offset="0.5039" stop-color="#09F5C1" stop-opacity="0"/>
<stop offset="0.5614" stop-color="#293163"/>
<stop offset="1" stop-color="#09F5C1" stop-opacity="0"/>
</linearGradient>
<radialGradient id="paint2_radial_86_2742" cx="0" cy="0" r="1" gradientUnits="userSpaceOnUse" gradientTransform="translate(6.73101 127.884) scale(4.91938 8.21164)">
<stop stop-color="#09F5C1"/>
<stop offset="1" stop-color="#293163"/>
</radialGradient>
<radialGradient id="paint3_radial_86_2742" cx="0" cy="0" r="1" gradientUnits="userSpaceOnUse" gradientTransform="translate(6.73101 144.307) scale(4.91938 8.21164)">
<stop stop-color="#09F5C1"/>
<stop offset="1" stop-color="#293163"/>
</radialGradient>
<radialGradient id="paint4_radial_86_2742" cx="0" cy="0" r="1" gradientUnits="userSpaceOnUse" gradientTransform="translate(6.73101 160.73) scale(4.91938 8.21164)">
<stop stop-color="#09F5C1"/>
<stop offset="1" stop-color="#293163"/>
</radialGradient>
<radialGradient id="paint5_radial_86_2742" cx="0" cy="0" r="1" gradientUnits="userSpaceOnUse" gradientTransform="translate(5.56092 96.7247) scale(8.00005 2.46696)">
<stop stop-color="#09F5C1"/>
<stop offset="1" stop-color="#293163"/>
</radialGradient>
<radialGradient id="paint6_radial_86_2742" cx="0" cy="0" r="1" gradientUnits="userSpaceOnUse" gradientTransform="translate(5.56092 92.7246) scale(8.00005 2.46696)">
<stop stop-color="#09F5C1"/>
<stop offset="1" stop-color="#293163"/>
</radialGradient>
<radialGradient id="paint7_radial_86_2742" cx="0" cy="0" r="1" gradientUnits="userSpaceOnUse" gradientTransform="translate(5.56092 88.7245) scale(8.00005 2.46696)">
<stop stop-color="#09F5C1"/>
<stop offset="1" stop-color="#293163"/>
</radialGradient>
<radialGradient id="paint8_radial_86_2742" cx="0" cy="0" r="1" gradientUnits="userSpaceOnUse" gradientTransform="translate(5.56092 67.4656) scale(8.00005 8.21164)">
<stop stop-color="#09F5C1"/>
<stop offset="1" stop-color="#293163"/>
</radialGradient>
<radialGradient id="paint9_radial_86_2742" cx="0" cy="0" r="1" gradientUnits="userSpaceOnUse" gradientTransform="translate(5.56092 52.0811) scale(8.00005 8.21164)">
<stop stop-color="#09F5C1"/>
<stop offset="1" stop-color="#293163"/>
</radialGradient>
<radialGradient id="paint10_radial_86_2742" cx="0" cy="0" r="1" gradientUnits="userSpaceOnUse" gradientTransform="translate(5.88089 36.6958) scale(8.00005 8.21164)">
<stop stop-color="#09F5C1"/>
<stop offset="1" stop-color="#293163"/>
</radialGradient>
<radialGradient id="paint11_radial_86_2742" cx="0" cy="0" r="1" gradientUnits="userSpaceOnUse" gradientTransform="translate(6.04094 21.3922) scale(8.00005 8.21164)">
<stop stop-color="#09F5C1"/>
<stop offset="1" stop-color="#293163"/>
</radialGradient>
<radialGradient id="paint12_radial_86_2742" cx="0" cy="0" r="1" gradientUnits="userSpaceOnUse" gradientTransform="translate(6.04094 6.40288) scale(7.95517 8.16556)">
<stop stop-color="#09F5C1"/>
<stop offset="1" stop-color="#293163"/>
</radialGradient>
</defs>
</svg>
