<svg width="57" height="24" viewBox="0 0 57 24" fill="none" xmlns="http://www.w3.org/2000/svg">
<rect x="2" y="1.98901" width="54" height="20" rx="10" fill="url(#paint0_linear_33_1402)"/>
<rect x="2" y="1.98901" width="54" height="20" rx="10" stroke="#00CF8A" stroke-width="3" stroke-linejoin="round"/>
<path d="M18.0488 15.989H16.1621L15.4121 14.0378H11.9785L11.2695 15.989H9.42969L12.7754 7.39917H14.6094L18.0488 15.989ZM14.8555 12.5906L13.6719 9.40308L12.5117 12.5906H14.8555ZM18.9688 7.39917H22.1387C22.8535 7.39917 23.3984 7.45386 23.7734 7.56323C24.2773 7.71167 24.709 7.97534 25.0684 8.35425C25.4277 8.73315 25.7012 9.198 25.8887 9.74878C26.0762 10.2957 26.1699 10.9714 26.1699 11.7761C26.1699 12.4832 26.082 13.0925 25.9062 13.6042C25.6914 14.2292 25.3848 14.7351 24.9863 15.1218C24.6855 15.4148 24.2793 15.6433 23.7676 15.8074C23.3848 15.9285 22.873 15.989 22.2324 15.989H18.9688V7.39917ZM20.7031 8.85229V14.5417H21.998C22.4824 14.5417 22.832 14.5144 23.0469 14.4597C23.3281 14.3894 23.5605 14.2703 23.7441 14.1023C23.9316 13.9343 24.084 13.6589 24.2012 13.2761C24.3184 12.8894 24.377 12.364 24.377 11.7C24.377 11.0359 24.3184 10.5261 24.2012 10.1707C24.084 9.81519 23.9199 9.53784 23.709 9.33862C23.498 9.1394 23.2305 9.00464 22.9062 8.93433C22.6641 8.87964 22.1895 8.85229 21.4824 8.85229H20.7031ZM35.3926 15.989H33.5059L32.7559 14.0378H29.3223L28.6133 15.989H26.7734L30.1191 7.39917H31.9531L35.3926 15.989ZM32.1992 12.5906L31.0156 9.40308L29.8555 12.5906H32.1992ZM37.3613 15.989V8.85229H34.8125V7.39917H41.6387V8.85229H39.0957V15.989H37.3613ZM47.9609 14.4597V15.989H42.1895C42.252 15.4109 42.4395 14.864 42.752 14.3484C43.0645 13.8289 43.6816 13.1414 44.6035 12.2859C45.3457 11.5945 45.8008 11.1257 45.9688 10.8796C46.1953 10.5398 46.3086 10.2039 46.3086 9.87183C46.3086 9.50464 46.209 9.22339 46.0098 9.02808C45.8145 8.82886 45.543 8.72925 45.1953 8.72925C44.8516 8.72925 44.5781 8.83276 44.375 9.03979C44.1719 9.24683 44.0547 9.59058 44.0234 10.071L42.3828 9.90698C42.4805 9.00073 42.7871 8.35034 43.3027 7.95581C43.8184 7.56128 44.4629 7.36401 45.2363 7.36401C46.084 7.36401 46.75 7.59253 47.2344 8.04956C47.7188 8.50659 47.9609 9.07495 47.9609 9.75464C47.9609 10.1414 47.8906 10.5105 47.75 10.8621C47.6133 11.2097 47.3945 11.575 47.0938 11.9578C46.8945 12.2117 46.5352 12.5769 46.0156 13.0535C45.4961 13.53 45.166 13.8464 45.0254 14.0027C44.8887 14.1589 44.7773 14.3113 44.6914 14.4597H47.9609Z" fill="white"/>
<defs>
<linearGradient id="paint0_linear_33_1402" x1="29" y1="1.98901" x2="29" y2="21.989" gradientUnits="userSpaceOnUse">
<stop stop-color="#00CF8A"/>
<stop offset="1" stop-color="#4F2461"/>
</linearGradient>
</defs>
</svg>
