<svg width="14" height="116" viewBox="0 0 14 116" fill="none" xmlns="http://www.w3.org/2000/svg">
<path d="M8.72961 113.362V30.8809C8.72961 29.7764 7.83411 28.8809 6.72961 28.8809C5.62511 28.8809 4.72961 29.7764 4.72961 30.8809V113.362C4.72961 114.467 5.62511 115.362 6.72961 115.362C7.83411 115.362 8.72961 114.467 8.72961 113.362Z" fill="url(#paint0_linear_86_2484)"/>
<path d="M6.72975 22.2231C3.10805 22.2231 0.172852 24.5772 0.172852 27.4807V30.2812C0.172852 33.1847 3.10805 35.5389 6.72975 35.5389C10.3515 35.5389 13.2867 33.1848 13.2867 30.2812V27.4807C13.2867 24.5772 10.3515 22.2231 6.72975 22.2231Z" fill="url(#paint1_radial_86_2484)"/>
<path d="M6.72975 8.90723C3.10805 8.90723 0.172852 11.2614 0.172852 14.1649V16.9654C0.172852 19.8689 3.10805 22.2231 6.72975 22.2231C10.3515 22.2231 13.2867 19.869 13.2867 16.9654V14.1649C13.2867 11.2614 10.3515 8.90723 6.72975 8.90723Z" fill="url(#paint2_radial_86_2484)"/>
<path d="M6.72975 4.52482C0.228052 4.52482 0.172852 -2.05458 0.172852 0.849015V3.64951C0.172852 6.55301 3.10805 8.90711 6.72975 8.90711C10.3515 8.90711 13.2867 6.55301 13.2867 3.64941V0.849015C13.2867 -2.05458 13.2315 4.52482 6.72975 4.52482Z" fill="url(#paint3_radial_86_2484)"/>
<defs>
<linearGradient id="paint0_linear_86_2484" x1="4.23821" y1="72.1216" x2="8.74131" y2="72.1216" gradientUnits="userSpaceOnUse">
<stop stop-color="#11578C"/>
<stop offset="0.1143" stop-color="#596F82"/>
<stop offset="0.311" stop-color="#DE9B71"/>
<stop offset="0.3961" stop-color="#C49274"/>
<stop offset="0.5786" stop-color="#807C7D"/>
<stop offset="0.8427" stop-color="#15588B"/>
<stop offset="0.8521" stop-color="#11578C"/>
</linearGradient>
<radialGradient id="paint1_radial_86_2484" cx="0" cy="0" r="1" gradientUnits="userSpaceOnUse" gradientTransform="translate(5.57145 26.9511) scale(10.6036 8.50197)">
<stop stop-color="#DE9B71"/>
<stop offset="0.1205" stop-color="#AB8A78"/>
<stop offset="0.2473" stop-color="#7C7B7E"/>
<stop offset="0.3743" stop-color="#566E83"/>
<stop offset="0.4993" stop-color="#386487"/>
<stop offset="0.6219" stop-color="#225D8A"/>
<stop offset="0.7408" stop-color="#15588B"/>
<stop offset="0.8521" stop-color="#11578C"/>
</radialGradient>
<radialGradient id="paint2_radial_86_2484" cx="0" cy="0" r="1" gradientUnits="userSpaceOnUse" gradientTransform="translate(5.23805 13.3028) scale(10.6036 8.50197)">
<stop stop-color="#DE9B71"/>
<stop offset="0.1205" stop-color="#AB8A78"/>
<stop offset="0.2472" stop-color="#7C7B7E"/>
<stop offset="0.3741" stop-color="#566E83"/>
<stop offset="0.4992" stop-color="#386487"/>
<stop offset="0.6217" stop-color="#225D8A"/>
<stop offset="0.7406" stop-color="#15588B"/>
<stop offset="0.8519" stop-color="#11578C"/>
</radialGradient>
<radialGradient id="paint3_radial_86_2484" cx="0" cy="0" r="1" gradientUnits="userSpaceOnUse" gradientTransform="translate(5.46165 5.78831) rotate(-0.320853) scale(8.44593 3.25512)">
<stop stop-color="#DE9B71"/>
<stop offset="0.1205" stop-color="#AB8A78"/>
<stop offset="0.2472" stop-color="#7C7B7E"/>
<stop offset="0.3741" stop-color="#566E83"/>
<stop offset="0.4992" stop-color="#386487"/>
<stop offset="0.6217" stop-color="#225D8A"/>
<stop offset="0.7406" stop-color="#15588B"/>
<stop offset="0.8519" stop-color="#11578C"/>
</radialGradient>
</defs>
</svg>
