<svg width="60" height="24" viewBox="0 0 60 24" fill="none" xmlns="http://www.w3.org/2000/svg">
<rect x="2" y="1.98901" width="57" height="20" rx="10" fill="url(#paint0_linear_64_1865)"/>
<rect x="2" y="1.98901" width="57" height="20" rx="10" stroke="#16417F" stroke-width="3" stroke-linejoin="round"/>
<path d="M10.0391 15.989V7.39917H11.7266L15.2422 13.1355V7.39917H16.8535V15.989H15.1133L11.6504 10.3875V15.989H10.0391ZM18.7168 15.989V7.39917H20.4512V11.2136L23.9551 7.39917H26.2871L23.0527 10.7449L26.4629 15.989H24.2188L21.8574 11.9578L20.4512 13.3933V15.989H18.7168ZM26.4922 15.989L29.4277 11.5066L26.7676 7.39917H28.7949L30.5176 10.1589L32.2051 7.39917H34.2148L31.543 11.571L34.4785 15.989H32.3867L30.4824 13.0183L28.5723 15.989H26.4922ZM40.5664 14.4597V15.989H34.7949C34.8574 15.4109 35.0449 14.864 35.3574 14.3484C35.6699 13.8289 36.2871 13.1414 37.209 12.2859C37.9512 11.5945 38.4062 11.1257 38.5742 10.8796C38.8008 10.5398 38.9141 10.2039 38.9141 9.87183C38.9141 9.50464 38.8145 9.22339 38.6152 9.02808C38.4199 8.82886 38.1484 8.72925 37.8008 8.72925C37.457 8.72925 37.1836 8.83276 36.9805 9.03979C36.7773 9.24683 36.6602 9.59058 36.6289 10.071L34.9883 9.90698C35.0859 9.00073 35.3926 8.35034 35.9082 7.95581C36.4238 7.56128 37.0684 7.36401 37.8418 7.36401C38.6895 7.36401 39.3555 7.59253 39.8398 8.04956C40.3242 8.50659 40.5664 9.07495 40.5664 9.75464C40.5664 10.1414 40.4961 10.5105 40.3555 10.8621C40.2188 11.2097 40 11.575 39.6992 11.9578C39.5 12.2117 39.1406 12.5769 38.6211 13.0535C38.1016 13.53 37.7715 13.8464 37.6309 14.0027C37.4941 14.1589 37.3828 14.3113 37.2969 14.4597H40.5664ZM41.8496 13.698V12.0515H45.084V13.698H41.8496ZM51.2422 14.4597V15.989H45.4707C45.5332 15.4109 45.7207 14.864 46.0332 14.3484C46.3457 13.8289 46.9629 13.1414 47.8848 12.2859C48.627 11.5945 49.082 11.1257 49.25 10.8796C49.4766 10.5398 49.5898 10.2039 49.5898 9.87183C49.5898 9.50464 49.4902 9.22339 49.291 9.02808C49.0957 8.82886 48.8242 8.72925 48.4766 8.72925C48.1328 8.72925 47.8594 8.83276 47.6562 9.03979C47.4531 9.24683 47.3359 9.59058 47.3047 10.071L45.6641 9.90698C45.7617 9.00073 46.0684 8.35034 46.584 7.95581C47.0996 7.56128 47.7441 7.36401 48.5176 7.36401C49.3652 7.36401 50.0312 7.59253 50.5156 8.04956C51 8.50659 51.2422 9.07495 51.2422 9.75464C51.2422 10.1414 51.1719 10.5105 51.0312 10.8621C50.8945 11.2097 50.6758 11.575 50.375 11.9578C50.1758 12.2117 49.8164 12.5769 49.2969 13.0535C48.7773 13.53 48.4473 13.8464 48.3066 14.0027C48.1699 14.1589 48.0586 14.3113 47.9727 14.4597H51.2422Z" fill="white"/>
<defs>
<linearGradient id="paint0_linear_64_1865" x1="30.5" y1="1.98901" x2="30.5" y2="21.989" gradientUnits="userSpaceOnUse">
<stop stop-color="#16417F"/>
<stop offset="1" stop-color="#56F7F4"/>
</linearGradient>
</defs>
</svg>
