<svg width="50" height="58" viewBox="0 0 50 58" fill="none" xmlns="http://www.w3.org/2000/svg">
<g opacity="0.5">
<path d="M49.1065 43.2323V15.2623L24.8815 1.27734L0.656494 15.2623V43.2323L24.8815 57.2173L49.1065 43.2323Z" stroke="#DB0E5D" stroke-miterlimit="10" stroke-linecap="round" stroke-linejoin="round" stroke-dasharray="2 2"/>
<g opacity="0.4">
<path d="M25.5251 13.9981L24.8816 12.8835L24.238 13.9981" stroke="#DB0E5D" stroke-linecap="round" stroke-linejoin="round"/>
<path d="M23.0666 16.0269L11.938 35.3004" stroke="#DB0E5D" stroke-linecap="round" stroke-linejoin="round" stroke-dasharray="1.82 1.82"/>
<path d="M11.3523 36.3147L10.7087 37.4292H11.9958" stroke="#DB0E5D" stroke-linecap="round" stroke-linejoin="round"/>
<path d="M14.3387 37.4292H36.5959" stroke="#DB0E5D" stroke-linecap="round" stroke-linejoin="round" stroke-dasharray="1.82 1.82"/>
<path d="M37.7672 37.4295H39.0543L38.4108 36.3149" stroke="#DB0E5D" stroke-linecap="round" stroke-linejoin="round"/>
<path d="M37.2394 34.2858L26.1108 15.0122" stroke="#DB0E5D" stroke-linecap="round" stroke-linejoin="round" stroke-dasharray="1.82 1.82"/>
<path d="M24.8814 57.2174L24.1321 56.1711" stroke="#DB0E5D" stroke-linecap="round" stroke-linejoin="round"/>
<path d="M22.7241 54.205L12.1624 39.4587" stroke="#DB0E5D" stroke-linecap="round" stroke-linejoin="round" stroke-dasharray="1.88 1.88"/>
<path d="M11.4582 38.4755L10.7087 37.4292" stroke="#DB0E5D" stroke-linecap="round" stroke-linejoin="round"/>
<path d="M39.0543 37.4292L38.3049 38.4755" stroke="#DB0E5D" stroke-linecap="round" stroke-linejoin="round"/>
<path d="M36.897 40.4419L26.3352 55.188" stroke="#DB0E5D" stroke-linecap="round" stroke-linejoin="round" stroke-dasharray="1.88 1.88"/>
<path d="M25.6311 56.1711L24.8816 57.2174" stroke="#DB0E5D" stroke-linecap="round" stroke-linejoin="round"/>
<path d="M24.8816 12.8834V11.5964" stroke="#DB0E5D" stroke-linecap="round" stroke-linejoin="round"/>
<path d="M24.8816 8.58569V4.06958" stroke="#DB0E5D" stroke-linecap="round" stroke-linejoin="round" stroke-dasharray="2.34 2.34"/>
<path d="M24.8816 2.56431V1.27734" stroke="#DB0E5D" stroke-linecap="round" stroke-linejoin="round"/>
<path d="M0.656494 15.2625L1.93741 15.1367" stroke="#DB0E5D" stroke-linecap="round" stroke-linejoin="round"/>
<path d="M4.34436 14.9001L22.397 13.1274" stroke="#DB0E5D" stroke-linecap="round" stroke-linejoin="round" stroke-dasharray="1.88 1.88"/>
<path d="M23.6007 13.0094L24.8816 12.8835" stroke="#DB0E5D" stroke-linecap="round" stroke-linejoin="round"/>
<path d="M49.1067 15.2625L47.8258 15.1367" stroke="#DB0E5D" stroke-linecap="round" stroke-linejoin="round"/>
<path d="M45.4188 14.9001L27.3662 13.1274" stroke="#DB0E5D" stroke-linecap="round" stroke-linejoin="round" stroke-dasharray="1.88 1.88"/>
<path d="M26.1625 13.0094L24.8816 12.8835" stroke="#DB0E5D" stroke-linecap="round" stroke-linejoin="round"/>
<path d="M10.7087 37.4289L10.1771 36.2568" stroke="#DB0E5D" stroke-linecap="round" stroke-linejoin="round"/>
<path d="M9.17837 34.0546L1.6875 17.5356" stroke="#DB0E5D" stroke-linecap="round" stroke-linejoin="round" stroke-dasharray="1.88 1.88"/>
<path d="M1.18806 16.4344L0.656494 15.2622" stroke="#DB0E5D" stroke-linecap="round" stroke-linejoin="round"/>
<path d="M0.656494 43.2324L1.77112 42.5889" stroke="#DB0E5D" stroke-linecap="round" stroke-linejoin="round"/>
<path d="M4.37891 41.0834L8.29038 38.8254" stroke="#DB0E5D" stroke-linecap="round" stroke-linejoin="round" stroke-dasharray="2.34 2.34"/>
<path d="M9.59424 38.0727L10.7089 37.4292" stroke="#DB0E5D" stroke-linecap="round" stroke-linejoin="round"/>
<path d="M39.0543 37.4292L40.1691 38.0727" stroke="#DB0E5D" stroke-linecap="round" stroke-linejoin="round"/>
<path d="M42.7769 39.5781L46.6883 41.8362" stroke="#DB0E5D" stroke-linecap="round" stroke-linejoin="round" stroke-dasharray="2.34 2.34"/>
<path d="M47.9921 42.5889L49.1067 43.2324" stroke="#DB0E5D" stroke-linecap="round" stroke-linejoin="round"/>
<path d="M49.1068 15.2622L48.5753 16.4344" stroke="#DB0E5D" stroke-linecap="round" stroke-linejoin="round"/>
<path d="M47.5765 18.6367L40.0854 35.1556" stroke="#DB0E5D" stroke-linecap="round" stroke-linejoin="round" stroke-dasharray="1.88 1.88"/>
<path d="M39.5859 36.2571L39.0543 37.4291" stroke="#DB0E5D" stroke-linecap="round" stroke-linejoin="round"/>
</g>
<path d="M24.238 44.4966L24.8816 45.6111L25.5251 44.4966" stroke="#DB0E5D" stroke-linecap="round" stroke-linejoin="round"/>
<path d="M26.6965 42.4679L37.8251 23.1943" stroke="#DB0E5D" stroke-linecap="round" stroke-linejoin="round" stroke-dasharray="1.82 1.82"/>
<path d="M38.4108 22.1799L39.0543 21.0654H37.7672" stroke="#DB0E5D" stroke-linecap="round" stroke-linejoin="round"/>
<path d="M35.4247 21.0654H13.1674" stroke="#DB0E5D" stroke-linecap="round" stroke-linejoin="round" stroke-dasharray="1.82 1.82"/>
<path d="M11.9958 21.0654H10.7087L11.3523 22.1799" stroke="#DB0E5D" stroke-linecap="round" stroke-linejoin="round"/>
<path d="M12.5238 24.2087L23.6524 43.4823" stroke="#DB0E5D" stroke-linecap="round" stroke-linejoin="round" stroke-dasharray="1.82 1.82"/>
<path d="M24.8816 1.27734L25.6311 2.32365" stroke="#DB0E5D" stroke-linecap="round" stroke-linejoin="round"/>
<path d="M27.0393 4.29004L37.6009 19.0362" stroke="#DB0E5D" stroke-linecap="round" stroke-linejoin="round" stroke-dasharray="1.88 1.88"/>
<path d="M38.3049 20.019L39.0543 21.0654" stroke="#DB0E5D" stroke-linecap="round" stroke-linejoin="round"/>
<path d="M10.7087 21.0656L11.4582 20.0193" stroke="#DB0E5D" stroke-linecap="round" stroke-linejoin="round"/>
<path d="M12.8666 18.0529L23.4282 3.30664" stroke="#DB0E5D" stroke-linecap="round" stroke-linejoin="round" stroke-dasharray="1.88 1.88"/>
<path d="M24.1321 2.32365L24.8814 1.27734" stroke="#DB0E5D" stroke-linecap="round" stroke-linejoin="round"/>
<path d="M24.8816 45.6113V46.8983" stroke="#DB0E5D" stroke-linecap="round" stroke-linejoin="round"/>
<path d="M24.8816 49.9089V54.425" stroke="#DB0E5D" stroke-linecap="round" stroke-linejoin="round" stroke-dasharray="2.34 2.34"/>
<path d="M24.8816 55.9304V57.2174" stroke="#DB0E5D" stroke-linecap="round" stroke-linejoin="round"/>
<path d="M49.1067 43.2324L47.8258 43.3583" stroke="#DB0E5D" stroke-linecap="round" stroke-linejoin="round"/>
<path d="M45.4188 43.5945L27.3662 45.3673" stroke="#DB0E5D" stroke-linecap="round" stroke-linejoin="round" stroke-dasharray="1.88 1.88"/>
<path d="M26.1625 45.4856L24.8816 45.6113" stroke="#DB0E5D" stroke-linecap="round" stroke-linejoin="round"/>
<path d="M0.656494 43.2324L1.93741 43.3583" stroke="#DB0E5D" stroke-linecap="round" stroke-linejoin="round"/>
<path d="M4.34436 43.5945L22.397 45.3673" stroke="#DB0E5D" stroke-linecap="round" stroke-linejoin="round" stroke-dasharray="1.88 1.88"/>
<path d="M23.6007 45.4856L24.8816 45.6113" stroke="#DB0E5D" stroke-linecap="round" stroke-linejoin="round"/>
<path d="M39.0543 21.0654L39.5859 22.2376" stroke="#DB0E5D" stroke-linecap="round" stroke-linejoin="round"/>
<path d="M40.5847 24.4402L48.0757 40.9591" stroke="#DB0E5D" stroke-linecap="round" stroke-linejoin="round" stroke-dasharray="1.88 1.88"/>
<path d="M48.5753 42.0603L49.1068 43.2323" stroke="#DB0E5D" stroke-linecap="round" stroke-linejoin="round"/>
<path d="M49.1067 15.2622L47.9921 15.9057" stroke="#DB0E5D" stroke-linecap="round" stroke-linejoin="round"/>
<path d="M45.3844 17.4111L41.473 19.6693" stroke="#DB0E5D" stroke-linecap="round" stroke-linejoin="round" stroke-dasharray="2.34 2.34"/>
<path d="M40.1691 20.4219L39.0543 21.0654" stroke="#DB0E5D" stroke-linecap="round" stroke-linejoin="round"/>
<path d="M10.7089 21.0654L9.59424 20.4219" stroke="#DB0E5D" stroke-linecap="round" stroke-linejoin="round"/>
<path d="M6.9863 18.9162L3.07483 16.6582" stroke="#DB0E5D" stroke-linecap="round" stroke-linejoin="round" stroke-dasharray="2.34 2.34"/>
<path d="M1.77112 15.9057L0.656494 15.2622" stroke="#DB0E5D" stroke-linecap="round" stroke-linejoin="round"/>
<path d="M0.656494 43.2323L1.18806 42.0603" stroke="#DB0E5D" stroke-linecap="round" stroke-linejoin="round"/>
<path d="M2.18677 39.8578L9.67764 23.3389" stroke="#DB0E5D" stroke-linecap="round" stroke-linejoin="round" stroke-dasharray="1.88 1.88"/>
<path d="M10.1771 22.2376L10.7087 21.0654" stroke="#DB0E5D" stroke-linecap="round" stroke-linejoin="round"/>
</g>
</svg>
