<svg width="47" height="24" viewBox="0 0 47 24" fill="none" xmlns="http://www.w3.org/2000/svg">
<rect x="2" y="1.98901" width="44" height="20" rx="10" fill="url(#paint0_linear_35_1435)"/>
<rect x="2" y="1.98901" width="44" height="20" rx="10" stroke="#21C1B6" stroke-width="3" stroke-linejoin="round"/>
<path d="M18.0527 15.989H16.166L15.416 14.0378H11.9824L11.2734 15.989H9.43359L12.7793 7.39917H14.6133L18.0527 15.989ZM14.8594 12.5906L13.6758 9.40308L12.5156 12.5906H14.8594ZM20.0215 15.989V8.85229H17.4727V7.39917H24.2988V8.85229H21.7559V15.989H20.0215ZM25.4355 15.989V7.39917H31.3242V8.85229H27.1699V10.8855H30.7559V12.3386H27.1699V15.989H25.4355ZM32.4199 13.78L34.0605 13.6101C34.1074 13.9812 34.2461 14.2761 34.4766 14.4949C34.707 14.7097 34.9727 14.8171 35.2734 14.8171C35.6172 14.8171 35.9082 14.6785 36.1465 14.4011C36.3848 14.1199 36.5039 13.698 36.5039 13.1355C36.5039 12.6082 36.3848 12.2136 36.1465 11.9519C35.9121 11.6863 35.6055 11.5535 35.2266 11.5535C34.7539 11.5535 34.3301 11.7625 33.9551 12.1804L32.6191 11.9871L33.4629 7.51636H37.8164V9.05737H34.7109L34.4531 10.5164C34.8203 10.3328 35.1953 10.241 35.5781 10.241C36.3086 10.241 36.9277 10.5066 37.4355 11.0378C37.9434 11.5691 38.1973 12.2585 38.1973 13.1062C38.1973 13.8132 37.9922 14.4441 37.582 14.9988C37.0234 15.7566 36.248 16.1355 35.2559 16.1355C34.4629 16.1355 33.8164 15.9226 33.3164 15.4968C32.8164 15.071 32.5176 14.4988 32.4199 13.78Z" fill="white"/>
<defs>
<linearGradient id="paint0_linear_35_1435" x1="24" y1="1.98901" x2="24" y2="21.989" gradientUnits="userSpaceOnUse">
<stop stop-color="#21C1B6"/>
<stop offset="1" stop-color="#995A8B"/>
</linearGradient>
</defs>
</svg>
