<svg width="56" height="24" viewBox="0 0 56 24" fill="none" xmlns="http://www.w3.org/2000/svg">
<rect x="2" y="1.98901" width="53" height="20" rx="10" fill="url(#paint0_linear_67_1806)"/>
<rect x="2" y="1.98901" width="53" height="20" rx="10" stroke="#004384" stroke-width="3" stroke-linejoin="round"/>
<path d="M10.0254 15.989V7.39917H12.8086C13.8633 7.39917 14.5508 7.44214 14.8711 7.52808C15.3633 7.65698 15.7754 7.93823 16.1074 8.37183C16.4395 8.80151 16.6055 9.35815 16.6055 10.0417C16.6055 10.5691 16.5098 11.0125 16.3184 11.3718C16.127 11.7312 15.8828 12.0144 15.5859 12.2214C15.293 12.4246 14.9941 12.5593 14.6895 12.6257C14.2754 12.7078 13.6758 12.7488 12.8906 12.7488H11.7598V15.989H10.0254ZM11.7598 8.85229V11.2898H12.709C13.3926 11.2898 13.8496 11.2449 14.0801 11.155C14.3105 11.0652 14.4902 10.9246 14.6191 10.7332C14.752 10.5417 14.8184 10.3191 14.8184 10.0652C14.8184 9.75269 14.7266 9.49487 14.543 9.29175C14.3594 9.08862 14.127 8.96167 13.8457 8.91089C13.6387 8.87183 13.2227 8.85229 12.5977 8.85229H11.7598ZM19.9629 15.989V8.85229H17.4141V7.39917H24.2402V8.85229H21.6973V15.989H19.9629ZM25.3652 15.989V7.39917H28.1484C29.2031 7.39917 29.8906 7.44214 30.2109 7.52808C30.7031 7.65698 31.1152 7.93823 31.4473 8.37183C31.7793 8.80151 31.9453 9.35815 31.9453 10.0417C31.9453 10.5691 31.8496 11.0125 31.6582 11.3718C31.4668 11.7312 31.2227 12.0144 30.9258 12.2214C30.6328 12.4246 30.334 12.5593 30.0293 12.6257C29.6152 12.7078 29.0156 12.7488 28.2305 12.7488H27.0996V15.989H25.3652ZM27.0996 8.85229V11.2898H28.0488C28.7324 11.2898 29.1895 11.2449 29.4199 11.155C29.6504 11.0652 29.8301 10.9246 29.959 10.7332C30.0918 10.5417 30.1582 10.3191 30.1582 10.0652C30.1582 9.75269 30.0664 9.49487 29.8828 9.29175C29.6992 9.08862 29.4668 8.96167 29.1855 8.91089C28.9785 8.87183 28.5625 8.85229 27.9375 8.85229H27.0996ZM33.3867 15.989V7.39917H35.0742L38.5898 13.1355V7.39917H40.2012V15.989H38.4609L34.998 10.3875V15.989H33.3867ZM47.2559 9.50269L45.6621 9.67847C45.623 9.35034 45.5215 9.10815 45.3574 8.9519C45.1934 8.79565 44.9805 8.71753 44.7188 8.71753C44.3711 8.71753 44.0762 8.87378 43.834 9.18628C43.5957 9.49878 43.4453 10.1492 43.3828 11.1375C43.793 10.6531 44.3027 10.4109 44.9121 10.4109C45.5996 10.4109 46.1875 10.6726 46.6758 11.196C47.168 11.7195 47.4141 12.3953 47.4141 13.2234C47.4141 14.1023 47.1562 14.8074 46.6406 15.3386C46.125 15.8699 45.4629 16.1355 44.6543 16.1355C43.7871 16.1355 43.0742 15.7996 42.5156 15.1277C41.957 14.4519 41.6777 13.3464 41.6777 11.8113C41.6777 10.2371 41.9688 9.10229 42.5508 8.40698C43.1328 7.71167 43.8887 7.36401 44.8184 7.36401C45.4707 7.36401 46.0098 7.54761 46.4355 7.91479C46.8652 8.27808 47.1387 8.80737 47.2559 9.50269ZM43.5234 13.0945C43.5234 13.6296 43.6465 14.0437 43.8926 14.3367C44.1387 14.6257 44.4199 14.7703 44.7363 14.7703C45.041 14.7703 45.2949 14.6511 45.498 14.4128C45.7012 14.1746 45.8027 13.7839 45.8027 13.241C45.8027 12.6824 45.6934 12.2742 45.4746 12.0164C45.2559 11.7546 44.9824 11.6238 44.6543 11.6238C44.3379 11.6238 44.0703 11.7488 43.8516 11.9988C43.6328 12.2449 43.5234 12.6101 43.5234 13.0945Z" fill="white"/>
<defs>
<linearGradient id="paint0_linear_67_1806" x1="28.5" y1="1.98901" x2="28.5" y2="21.989" gradientUnits="userSpaceOnUse">
<stop stop-color="#004384"/>
<stop offset="1" stop-color="#FF9D00"/>
</linearGradient>
</defs>
</svg>
