<svg width="57" height="24" viewBox="0 0 57 24" fill="none" xmlns="http://www.w3.org/2000/svg">
<rect x="2" y="1.98901" width="54" height="20" rx="10" fill="url(#paint0_linear_84_2039)"/>
<rect x="2" y="1.98901" width="54" height="20" rx="10" stroke="#003D6F" stroke-width="3" stroke-linejoin="round"/>
<path d="M12.125 15.989V8.85229H9.57617V7.39917H16.4023V8.85229H13.8594V15.989H12.125ZM17.5332 15.989V7.39917H21.1836C22.1016 7.39917 22.7676 7.47729 23.1816 7.63354C23.5996 7.78589 23.9336 8.05933 24.1836 8.45386C24.4336 8.84839 24.5586 9.29956 24.5586 9.80737C24.5586 10.4519 24.3691 10.9851 23.9902 11.407C23.6113 11.825 23.0449 12.0886 22.291 12.198C22.666 12.4167 22.9746 12.657 23.2168 12.9187C23.4629 13.1804 23.793 13.6453 24.207 14.3132L25.2559 15.989H23.1816L21.9277 14.1199C21.4824 13.4519 21.1777 13.032 21.0137 12.8601C20.8496 12.6843 20.6758 12.5652 20.4922 12.5027C20.3086 12.4363 20.0176 12.4031 19.6191 12.4031H19.2676V15.989H17.5332ZM19.2676 11.032H20.5508C21.3828 11.032 21.9023 10.9968 22.1094 10.9265C22.3164 10.8562 22.4785 10.7351 22.5957 10.5632C22.7129 10.3914 22.7715 10.1765 22.7715 9.9187C22.7715 9.62964 22.6934 9.39722 22.5371 9.22144C22.3848 9.04175 22.168 8.92847 21.8867 8.88159C21.7461 8.86206 21.3242 8.85229 20.6211 8.85229H19.2676V11.032ZM30.1953 12.8308V11.3835H33.9336V14.8054C33.5703 15.157 33.043 15.4675 32.3516 15.7371C31.6641 16.0027 30.9668 16.1355 30.2598 16.1355C29.3613 16.1355 28.5781 15.948 27.9102 15.573C27.2422 15.1941 26.7402 14.655 26.4043 13.9558C26.0684 13.2527 25.9004 12.489 25.9004 11.6648C25.9004 10.7703 26.0879 9.97534 26.4629 9.28003C26.8379 8.58472 27.3867 8.05151 28.1094 7.68042C28.6602 7.39526 29.3457 7.25269 30.166 7.25269C31.2324 7.25269 32.0645 7.47729 32.6621 7.92651C33.2637 8.37183 33.6504 8.98901 33.8223 9.77808L32.0996 10.1003C31.9785 9.67847 31.75 9.34644 31.4141 9.10425C31.082 8.85815 30.666 8.73511 30.166 8.73511C29.4082 8.73511 28.8047 8.97534 28.3555 9.45581C27.9102 9.93628 27.6875 10.6492 27.6875 11.5945C27.6875 12.614 27.9141 13.3796 28.3672 13.8914C28.8203 14.3992 29.4141 14.6531 30.1484 14.6531C30.5117 14.6531 30.875 14.5828 31.2383 14.4421C31.6055 14.2976 31.9199 14.1238 32.1816 13.9207V12.8308H30.1953ZM39.3887 15.989H37.7422V9.78394C37.1406 10.3464 36.4316 10.7625 35.6152 11.032V9.53784C36.0449 9.39722 36.5117 9.13159 37.0156 8.74097C37.5195 8.34644 37.8652 7.88745 38.0527 7.36401H39.3887V15.989ZM42.2656 15.989V7.46948H44V14.5417H48.3125V15.989H42.2656Z" fill="white"/>
<defs>
<linearGradient id="paint0_linear_84_2039" x1="29" y1="1.98901" x2="29" y2="21.989" gradientUnits="userSpaceOnUse">
<stop stop-color="#003D6F"/>
<stop offset="1" stop-color="#FFB266"/>
</linearGradient>
</defs>
</svg>
