<svg width="65" height="24" viewBox="0 0 65 24" fill="none" xmlns="http://www.w3.org/2000/svg">
<rect x="2" y="1.98901" width="62" height="20" rx="10" fill="url(#paint0_linear_67_1946)"/>
<rect x="2" y="1.98901" width="62" height="20" rx="10" stroke="#5A1EB3" stroke-width="3" stroke-linejoin="round"/>
<path d="M9.74414 13.1941L11.4316 13.03C11.5332 13.5964 11.7383 14.0125 12.0469 14.2781C12.3594 14.5437 12.7793 14.6765 13.3066 14.6765C13.8652 14.6765 14.2852 14.5593 14.5664 14.325C14.8516 14.0867 14.9941 13.8093 14.9941 13.4929C14.9941 13.2898 14.9336 13.1179 14.8125 12.9773C14.6953 12.8328 14.4883 12.7078 14.1914 12.6023C13.9883 12.532 13.5254 12.407 12.8027 12.2273C11.873 11.9968 11.2207 11.7136 10.8457 11.3777C10.3184 10.905 10.0547 10.3289 10.0547 9.64917C10.0547 9.21167 10.1777 8.80347 10.4238 8.42456C10.6738 8.04175 11.0312 7.75073 11.4961 7.55151C11.9648 7.35229 12.5293 7.25269 13.1895 7.25269C14.2676 7.25269 15.0781 7.48901 15.6211 7.96167C16.168 8.43433 16.4551 9.06519 16.4824 9.85425L14.748 9.93042C14.6738 9.48901 14.5137 9.17261 14.2676 8.9812C14.0254 8.78589 13.6602 8.68823 13.1719 8.68823C12.668 8.68823 12.2734 8.79175 11.9883 8.99878C11.8047 9.13159 11.7129 9.30933 11.7129 9.53198C11.7129 9.73511 11.7988 9.90894 11.9707 10.0535C12.1895 10.2371 12.7207 10.4285 13.5645 10.6277C14.4082 10.8269 15.0312 11.0339 15.4336 11.2488C15.8398 11.4597 16.1562 11.7507 16.3828 12.1218C16.6133 12.489 16.7285 12.9441 16.7285 13.4871C16.7285 13.9792 16.5918 14.4402 16.3184 14.8699C16.0449 15.2996 15.6582 15.6199 15.1582 15.8308C14.6582 16.0378 14.0352 16.1414 13.2891 16.1414C12.2031 16.1414 11.3691 15.8914 10.7871 15.3914C10.2051 14.8875 9.85742 14.155 9.74414 13.1941ZM18.1934 15.989V7.39917H21.8438C22.7617 7.39917 23.4277 7.47729 23.8418 7.63354C24.2598 7.78589 24.5938 8.05933 24.8438 8.45386C25.0938 8.84839 25.2188 9.29956 25.2188 9.80737C25.2188 10.4519 25.0293 10.9851 24.6504 11.407C24.2715 11.825 23.7051 12.0886 22.9512 12.198C23.3262 12.4167 23.6348 12.657 23.877 12.9187C24.123 13.1804 24.4531 13.6453 24.8672 14.3132L25.916 15.989H23.8418L22.5879 14.1199C22.1426 13.4519 21.8379 13.032 21.6738 12.8601C21.5098 12.6843 21.3359 12.5652 21.1523 12.5027C20.9688 12.4363 20.6777 12.4031 20.2793 12.4031H19.9277V15.989H18.1934ZM19.9277 11.032H21.2109C22.043 11.032 22.5625 10.9968 22.7695 10.9265C22.9766 10.8562 23.1387 10.7351 23.2559 10.5632C23.373 10.3914 23.4316 10.1765 23.4316 9.9187C23.4316 9.62964 23.3535 9.39722 23.1973 9.22144C23.0449 9.04175 22.8281 8.92847 22.5469 8.88159C22.4062 8.86206 21.9844 8.85229 21.2812 8.85229H19.9277V11.032ZM26.8535 7.39917H30.0234C30.7383 7.39917 31.2832 7.45386 31.6582 7.56323C32.1621 7.71167 32.5938 7.97534 32.9531 8.35425C33.3125 8.73315 33.5859 9.198 33.7734 9.74878C33.9609 10.2957 34.0547 10.9714 34.0547 11.7761C34.0547 12.4832 33.9668 13.0925 33.791 13.6042C33.5762 14.2292 33.2695 14.7351 32.8711 15.1218C32.5703 15.4148 32.1641 15.6433 31.6523 15.8074C31.2695 15.9285 30.7578 15.989 30.1172 15.989H26.8535V7.39917ZM28.5879 8.85229V14.5417H29.8828C30.3672 14.5417 30.7168 14.5144 30.9316 14.4597C31.2129 14.3894 31.4453 14.2703 31.6289 14.1023C31.8164 13.9343 31.9688 13.6589 32.0859 13.2761C32.2031 12.8894 32.2617 12.364 32.2617 11.7C32.2617 11.0359 32.2031 10.5261 32.0859 10.1707C31.9688 9.81519 31.8047 9.53784 31.5938 9.33862C31.3828 9.1394 31.1152 9.00464 30.791 8.93433C30.5488 8.87964 30.0742 8.85229 29.3672 8.85229H28.5879ZM35.1914 13.78L36.832 13.6101C36.8789 13.9812 37.0176 14.2761 37.248 14.4949C37.4785 14.7097 37.7441 14.8171 38.0449 14.8171C38.3887 14.8171 38.6797 14.6785 38.918 14.4011C39.1562 14.1199 39.2754 13.698 39.2754 13.1355C39.2754 12.6082 39.1562 12.2136 38.918 11.9519C38.6836 11.6863 38.377 11.5535 37.998 11.5535C37.5254 11.5535 37.1016 11.7625 36.7266 12.1804L35.3906 11.9871L36.2344 7.51636H40.5879V9.05737H37.4824L37.2246 10.5164C37.5918 10.3328 37.9668 10.241 38.3496 10.241C39.0801 10.241 39.6992 10.5066 40.207 11.0378C40.7148 11.5691 40.9688 12.2585 40.9688 13.1062C40.9688 13.8132 40.7637 14.4441 40.3535 14.9988C39.7949 15.7566 39.0195 16.1355 38.0273 16.1355C37.2344 16.1355 36.5879 15.9226 36.0879 15.4968C35.5879 15.071 35.2891 14.4988 35.1914 13.78ZM49.957 15.989H48.0703L47.3203 14.0378H43.8867L43.1777 15.989H41.3379L44.6836 7.39917H46.5176L49.957 15.989ZM46.7637 12.5906L45.5801 9.40308L44.4199 12.5906H46.7637ZM50.4609 13.7097L52.0547 13.5164C52.1055 13.9226 52.2422 14.2332 52.4648 14.448C52.6875 14.6628 52.957 14.7703 53.2734 14.7703C53.6133 14.7703 53.8984 14.6414 54.1289 14.3835C54.3633 14.1257 54.4805 13.7781 54.4805 13.3406C54.4805 12.9265 54.3691 12.5984 54.1465 12.3562C53.9238 12.114 53.6523 11.9929 53.332 11.9929C53.1211 11.9929 52.8691 12.0339 52.5762 12.116L52.7578 10.7742C53.2031 10.7859 53.543 10.6902 53.7773 10.4871C54.0117 10.28 54.1289 10.0066 54.1289 9.66675C54.1289 9.37769 54.043 9.14722 53.8711 8.97534C53.6992 8.80347 53.4707 8.71753 53.1855 8.71753C52.9043 8.71753 52.6641 8.81519 52.4648 9.0105C52.2656 9.20581 52.1445 9.49097 52.1016 9.86597L50.584 9.60815C50.6895 9.08862 50.8477 8.67456 51.0586 8.36597C51.2734 8.05347 51.5703 7.80933 51.9492 7.63354C52.332 7.45386 52.7598 7.36401 53.2324 7.36401C54.041 7.36401 54.6895 7.62183 55.1777 8.13745C55.5801 8.55933 55.7812 9.03589 55.7812 9.56714C55.7812 10.321 55.3691 10.9226 54.5449 11.3718C55.0371 11.4773 55.4297 11.7136 55.7227 12.0808C56.0195 12.448 56.168 12.8914 56.168 13.4109C56.168 14.1648 55.8926 14.8074 55.3418 15.3386C54.791 15.8699 54.1055 16.1355 53.2852 16.1355C52.5078 16.1355 51.8633 15.9128 51.3516 15.4675C50.8398 15.0183 50.543 14.4324 50.4609 13.7097Z" fill="white"/>
<defs>
<linearGradient id="paint0_linear_67_1946" x1="33" y1="1.98901" x2="33" y2="21.989" gradientUnits="userSpaceOnUse">
<stop stop-color="#5A1EB3"/>
<stop offset="1" stop-color="#55EDB0"/>
</linearGradient>
</defs>
</svg>
