<svg width="56" height="24" viewBox="0 0 56 24" fill="none" xmlns="http://www.w3.org/2000/svg">
<rect x="2" y="1.98901" width="53" height="20" rx="10" fill="url(#paint0_linear_67_1952)"/>
<rect x="2" y="1.98901" width="53" height="20" rx="10" stroke="#92C976" stroke-width="3" stroke-linejoin="round"/>
<path d="M9.58008 13.1941L11.2676 13.03C11.3691 13.5964 11.5742 14.0125 11.8828 14.2781C12.1953 14.5437 12.6152 14.6765 13.1426 14.6765C13.7012 14.6765 14.1211 14.5593 14.4023 14.325C14.6875 14.0867 14.8301 13.8093 14.8301 13.4929C14.8301 13.2898 14.7695 13.1179 14.6484 12.9773C14.5312 12.8328 14.3242 12.7078 14.0273 12.6023C13.8242 12.532 13.3613 12.407 12.6387 12.2273C11.709 11.9968 11.0566 11.7136 10.6816 11.3777C10.1543 10.905 9.89062 10.3289 9.89062 9.64917C9.89062 9.21167 10.0137 8.80347 10.2598 8.42456C10.5098 8.04175 10.8672 7.75073 11.332 7.55151C11.8008 7.35229 12.3652 7.25269 13.0254 7.25269C14.1035 7.25269 14.9141 7.48901 15.457 7.96167C16.0039 8.43433 16.291 9.06519 16.3184 9.85425L14.584 9.93042C14.5098 9.48901 14.3496 9.17261 14.1035 8.9812C13.8613 8.78589 13.4961 8.68823 13.0078 8.68823C12.5039 8.68823 12.1094 8.79175 11.8242 8.99878C11.6406 9.13159 11.5488 9.30933 11.5488 9.53198C11.5488 9.73511 11.6348 9.90894 11.8066 10.0535C12.0254 10.2371 12.5566 10.4285 13.4004 10.6277C14.2441 10.8269 14.8672 11.0339 15.2695 11.2488C15.6758 11.4597 15.9922 11.7507 16.2188 12.1218C16.4492 12.489 16.5645 12.9441 16.5645 13.4871C16.5645 13.9792 16.4277 14.4402 16.1543 14.8699C15.8809 15.2996 15.4941 15.6199 14.9941 15.8308C14.4941 16.0378 13.8711 16.1414 13.125 16.1414C12.0391 16.1414 11.2051 15.8914 10.623 15.3914C10.041 14.8875 9.69336 14.155 9.58008 13.1941ZM17.6719 11.7468C17.6719 10.8718 17.8027 10.1375 18.0645 9.5437C18.2598 9.1062 18.5254 8.71362 18.8613 8.36597C19.2012 8.01831 19.5723 7.7605 19.9746 7.59253C20.5098 7.36597 21.127 7.25269 21.8262 7.25269C23.0918 7.25269 24.1035 7.64526 24.8613 8.43042C25.623 9.21558 26.0039 10.3074 26.0039 11.7058C26.0039 13.0925 25.627 14.1785 24.873 14.9636C24.1191 15.7449 23.1113 16.1355 21.8496 16.1355C20.5723 16.1355 19.5566 15.7468 18.8027 14.9695C18.0488 14.1882 17.6719 13.114 17.6719 11.7468ZM19.459 11.6882C19.459 12.6609 19.6836 13.3992 20.1328 13.9031C20.582 14.4031 21.1523 14.6531 21.8438 14.6531C22.5352 14.6531 23.1016 14.405 23.543 13.9089C23.9883 13.4089 24.2109 12.6609 24.2109 11.6648C24.2109 10.6804 23.9941 9.94604 23.5605 9.46167C23.1309 8.97729 22.5586 8.73511 21.8438 8.73511C21.1289 8.73511 20.5527 8.9812 20.1152 9.47339C19.6777 9.96167 19.459 10.7 19.459 11.6882ZM26.4902 15.989L29.4258 11.5066L26.7656 7.39917H28.793L30.5156 10.1589L32.2031 7.39917H34.2129L31.541 11.571L34.4766 15.989H32.3848L30.4805 13.0183L28.5703 15.989H26.4902ZM39.2168 15.989H37.5703V9.78394C36.9688 10.3464 36.2598 10.7625 35.4434 11.032V9.53784C35.873 9.39722 36.3398 9.13159 36.8438 8.74097C37.3477 8.34644 37.6934 7.88745 37.8809 7.36401H39.2168V15.989ZM44.4668 7.36401C45.2988 7.36401 45.9492 7.66089 46.418 8.25464C46.9766 8.95776 47.2559 10.1238 47.2559 11.7527C47.2559 13.3777 46.9746 14.5457 46.4121 15.2566C45.9473 15.8425 45.2988 16.1355 44.4668 16.1355C43.6309 16.1355 42.957 15.8152 42.4453 15.1746C41.9336 14.53 41.6777 13.3835 41.6777 11.7351C41.6777 10.1179 41.959 8.95386 42.5215 8.24292C42.9863 7.65698 43.6348 7.36401 44.4668 7.36401ZM44.4668 8.72925C44.2676 8.72925 44.0898 8.7937 43.9336 8.92261C43.7773 9.04761 43.6562 9.27417 43.5703 9.60229C43.457 10.0281 43.4004 10.7449 43.4004 11.7527C43.4004 12.7605 43.4512 13.4539 43.5527 13.8328C43.6543 14.2078 43.7812 14.4578 43.9336 14.5828C44.0898 14.7078 44.2676 14.7703 44.4668 14.7703C44.666 14.7703 44.8438 14.7078 45 14.5828C45.1562 14.4539 45.2773 14.2253 45.3633 13.8972C45.4766 13.4753 45.5332 12.7605 45.5332 11.7527C45.5332 10.7449 45.4824 10.0535 45.3809 9.67847C45.2793 9.29956 45.1504 9.04761 44.9941 8.92261C44.8418 8.7937 44.666 8.72925 44.4668 8.72925Z" fill="white"/>
<defs>
<linearGradient id="paint0_linear_67_1952" x1="28.5" y1="1.98901" x2="28.5" y2="21.989" gradientUnits="userSpaceOnUse">
<stop stop-color="#4D1E2B"/>
<stop offset="1" stop-color="#92C976"/>
</linearGradient>
</defs>
</svg>
