<svg width="83" height="24" viewBox="0 0 83 24" fill="none" xmlns="http://www.w3.org/2000/svg">
<rect x="1" y="1.98901" width="81" height="20" rx="10" fill="url(#paint0_linear_67_1896)"/>
<rect x="1" y="1.98901" width="81" height="20" rx="10" stroke="url(#paint1_linear_67_1896)" stroke-width="3" stroke-linejoin="round"/>
<path d="M9.01562 15.989V7.39917H12.666C13.584 7.39917 14.25 7.47729 14.6641 7.63354C15.082 7.78589 15.416 8.05933 15.666 8.45386C15.916 8.84839 16.041 9.29956 16.041 9.80737C16.041 10.4519 15.8516 10.9851 15.4727 11.407C15.0938 11.825 14.5273 12.0886 13.7734 12.198C14.1484 12.4167 14.457 12.657 14.6992 12.9187C14.9453 13.1804 15.2754 13.6453 15.6895 14.3132L16.7383 15.989H14.6641L13.4102 14.1199C12.9648 13.4519 12.6602 13.032 12.4961 12.8601C12.332 12.6843 12.1582 12.5652 11.9746 12.5027C11.791 12.4363 11.5 12.4031 11.1016 12.4031H10.75V15.989H9.01562ZM10.75 11.032H12.0332C12.8652 11.032 13.3848 10.9968 13.5918 10.9265C13.7988 10.8562 13.9609 10.7351 14.0781 10.5632C14.1953 10.3914 14.2539 10.1765 14.2539 9.9187C14.2539 9.62964 14.1758 9.39722 14.0195 9.22144C13.8672 9.04175 13.6504 8.92847 13.3691 8.88159C13.2285 8.86206 12.8066 8.85229 12.1035 8.85229H10.75V11.032ZM17.6992 15.989V7.39917H19.3867L22.9023 13.1355V7.39917H24.5137V15.989H22.7734L19.3105 10.3875V15.989H17.6992ZM34.0996 15.989H32.2129L31.4629 14.0378H28.0293L27.3203 15.989H25.4805L28.8262 7.39917H30.6602L34.0996 15.989ZM30.9062 12.5906L29.7227 9.40308L28.5625 12.5906H30.9062ZM37.9199 15.989V7.39917H40.7031C41.7578 7.39917 42.4453 7.44214 42.7656 7.52808C43.2578 7.65698 43.6699 7.93823 44.002 8.37183C44.334 8.80151 44.5 9.35815 44.5 10.0417C44.5 10.5691 44.4043 11.0125 44.2129 11.3718C44.0215 11.7312 43.7773 12.0144 43.4805 12.2214C43.1875 12.4246 42.8887 12.5593 42.584 12.6257C42.1699 12.7078 41.5703 12.7488 40.7852 12.7488H39.6543V15.989H37.9199ZM39.6543 8.85229V11.2898H40.6035C41.2871 11.2898 41.7441 11.2449 41.9746 11.155C42.2051 11.0652 42.3848 10.9246 42.5137 10.7332C42.6465 10.5417 42.7129 10.3191 42.7129 10.0652C42.7129 9.75269 42.6211 9.49487 42.4375 9.29175C42.2539 9.08862 42.0215 8.96167 41.7402 8.91089C41.5332 8.87183 41.1172 8.85229 40.4922 8.85229H39.6543ZM45.5723 11.7468C45.5723 10.8718 45.7031 10.1375 45.9648 9.5437C46.1602 9.1062 46.4258 8.71362 46.7617 8.36597C47.1016 8.01831 47.4727 7.7605 47.875 7.59253C48.4102 7.36597 49.0273 7.25269 49.7266 7.25269C50.9922 7.25269 52.0039 7.64526 52.7617 8.43042C53.5234 9.21558 53.9043 10.3074 53.9043 11.7058C53.9043 13.0925 53.5273 14.1785 52.7734 14.9636C52.0195 15.7449 51.0117 16.1355 49.75 16.1355C48.4727 16.1355 47.457 15.7468 46.7031 14.9695C45.9492 14.1882 45.5723 13.114 45.5723 11.7468ZM47.3594 11.6882C47.3594 12.6609 47.584 13.3992 48.0332 13.9031C48.4824 14.4031 49.0527 14.6531 49.7441 14.6531C50.4355 14.6531 51.002 14.405 51.4434 13.9089C51.8887 13.4089 52.1113 12.6609 52.1113 11.6648C52.1113 10.6804 51.8945 9.94604 51.4609 9.46167C51.0312 8.97729 50.459 8.73511 49.7441 8.73511C49.0293 8.73511 48.4531 8.9812 48.0156 9.47339C47.5781 9.96167 47.3594 10.7 47.3594 11.6882ZM55.3105 15.989V7.46948H57.0449V14.5417H61.3574V15.989H55.3105ZM65.6641 15.989V7.39917H67.3984V15.989H65.6641ZM69.0039 15.989V7.39917H70.7383V15.989H69.0039ZM72.3438 15.989V7.39917H74.0781V15.989H72.3438Z" fill="white"/>
<defs>
<linearGradient id="paint0_linear_67_1896" x1="41.5" y1="1.98901" x2="41.5" y2="21.989" gradientUnits="userSpaceOnUse">
<stop stop-color="#0E98A2"/>
<stop offset="1" stop-color="#042224"/>
</linearGradient>
<linearGradient id="paint1_linear_67_1896" x1="41.5" y1="1.98901" x2="41.5" y2="21.989" gradientUnits="userSpaceOnUse">
<stop stop-color="#B78520"/>
<stop offset="1" stop-color="#A2317B"/>
</linearGradient>
</defs>
</svg>
