<svg width="184" height="36" viewBox="0 0 184 36" fill="none" xmlns="http://www.w3.org/2000/svg">
<rect x="1" y="1.98901" width="182" height="32" rx="10" fill="url(#paint0_linear_38_1875)"/>
<rect x="1" y="1.98901" width="182" height="32" rx="10" stroke="#0052AF" stroke-width="3" stroke-linejoin="round"/>
<path d="M14.5391 11.8308L16.2207 12.364C15.9629 13.3015 15.5332 13.9988 14.9316 14.4558C14.334 14.9089 13.5742 15.1355 12.6523 15.1355C11.5117 15.1355 10.5742 14.7468 9.83984 13.9695C9.10547 13.1882 8.73828 12.1218 8.73828 10.7703C8.73828 9.34058 9.10742 8.2312 9.8457 7.44214C10.584 6.64917 11.5547 6.25269 12.7578 6.25269C13.8086 6.25269 14.6621 6.56323 15.3184 7.18433C15.709 7.55151 16.002 8.07886 16.1973 8.76636L14.4805 9.17651C14.3789 8.7312 14.166 8.37964 13.8418 8.12183C13.5215 7.86401 13.1309 7.73511 12.6699 7.73511C12.0332 7.73511 11.5156 7.96362 11.1172 8.42065C10.7227 8.87769 10.5254 9.61792 10.5254 10.6414C10.5254 11.7273 10.7207 12.5007 11.1113 12.9617C11.502 13.4226 12.0098 13.6531 12.6348 13.6531C13.0957 13.6531 13.4922 13.5066 13.8242 13.2136C14.1562 12.9207 14.3945 12.4597 14.5391 11.8308ZM17.7207 14.989V6.39917H19.4551V9.78003H22.8535V6.39917H24.5879V14.989H22.8535V11.2332H19.4551V14.989H17.7207ZM26.3926 14.989V6.39917H30.043C30.9609 6.39917 31.627 6.47729 32.041 6.63354C32.459 6.78589 32.793 7.05933 33.043 7.45386C33.293 7.84839 33.418 8.29956 33.418 8.80737C33.418 9.4519 33.2285 9.98511 32.8496 10.407C32.4707 10.825 31.9043 11.0886 31.1504 11.198C31.5254 11.4167 31.834 11.657 32.0762 11.9187C32.3223 12.1804 32.6523 12.6453 33.0664 13.3132L34.1152 14.989H32.041L30.7871 13.1199C30.3418 12.4519 30.0371 12.032 29.873 11.8601C29.709 11.6843 29.5352 11.5652 29.3516 11.5027C29.168 11.4363 28.877 11.4031 28.4785 11.4031H28.127V14.989H26.3926ZM28.127 10.032H29.4102C30.2422 10.032 30.7617 9.99683 30.9688 9.92651C31.1758 9.8562 31.3379 9.73511 31.4551 9.56323C31.5723 9.39136 31.6309 9.17651 31.6309 8.9187C31.6309 8.62964 31.5527 8.39722 31.3965 8.22144C31.2441 8.04175 31.0273 7.92847 30.7461 7.88159C30.6055 7.86206 30.1836 7.85229 29.4805 7.85229H28.127V10.032ZM34.707 10.7468C34.707 9.87183 34.8379 9.13745 35.0996 8.5437C35.2949 8.1062 35.5605 7.71362 35.8965 7.36597C36.2363 7.01831 36.6074 6.7605 37.0098 6.59253C37.5449 6.36597 38.1621 6.25269 38.8613 6.25269C40.127 6.25269 41.1387 6.64526 41.8965 7.43042C42.6582 8.21558 43.0391 9.30737 43.0391 10.7058C43.0391 12.0925 42.6621 13.1785 41.9082 13.9636C41.1543 14.7449 40.1465 15.1355 38.8848 15.1355C37.6074 15.1355 36.5918 14.7468 35.8379 13.9695C35.084 13.1882 34.707 12.114 34.707 10.7468ZM36.4941 10.6882C36.4941 11.6609 36.7188 12.3992 37.168 12.9031C37.6172 13.4031 38.1875 13.6531 38.8789 13.6531C39.5703 13.6531 40.1367 13.405 40.5781 12.9089C41.0234 12.4089 41.2461 11.6609 41.2461 10.6648C41.2461 9.68042 41.0293 8.94604 40.5957 8.46167C40.166 7.97729 39.5938 7.73511 38.8789 7.73511C38.1641 7.73511 37.5879 7.9812 37.1504 8.47339C36.7129 8.96167 36.4941 9.69995 36.4941 10.6882ZM44.375 14.989V6.39917H46.9707L48.5293 12.2585L50.0703 6.39917H52.6719V14.989H51.0605V8.22729L49.3555 14.989H47.6855L45.9863 8.22729V14.989H44.375ZM62.1406 14.989H60.2539L59.5039 13.0378H56.0703L55.3613 14.989H53.5215L56.8672 6.39917H58.7012L62.1406 14.989ZM58.9473 11.5906L57.7637 8.40308L56.6035 11.5906H58.9473ZM64.1094 14.989V7.85229H61.5605V6.39917H68.3867V7.85229H65.8438V14.989H64.1094ZM69.459 14.989V6.39917H71.1934V14.989H69.459ZM72.8691 14.989V6.39917H74.5566L78.0723 12.1355V6.39917H79.6836V14.989H77.9434L74.4805 9.38745V14.989H72.8691ZM84.5117 10.7468C84.5117 9.87183 84.6426 9.13745 84.9043 8.5437C85.0996 8.1062 85.3652 7.71362 85.7012 7.36597C86.041 7.01831 86.4121 6.7605 86.8145 6.59253C87.3496 6.36597 87.9668 6.25269 88.666 6.25269C89.9316 6.25269 90.9434 6.64526 91.7012 7.43042C92.4629 8.21558 92.8438 9.30737 92.8438 10.7058C92.8438 12.0925 92.4668 13.1785 91.7129 13.9636C90.959 14.7449 89.9512 15.1355 88.6895 15.1355C87.4121 15.1355 86.3965 14.7468 85.6426 13.9695C84.8887 13.1882 84.5117 12.114 84.5117 10.7468ZM86.2988 10.6882C86.2988 11.6609 86.5234 12.3992 86.9727 12.9031C87.4219 13.4031 87.9922 13.6531 88.6836 13.6531C89.375 13.6531 89.9414 13.405 90.3828 12.9089C90.8281 12.4089 91.0508 11.6609 91.0508 10.6648C91.0508 9.68042 90.834 8.94604 90.4004 8.46167C89.9707 7.97729 89.3984 7.73511 88.6836 7.73511C87.9688 7.73511 87.3926 7.9812 86.9551 8.47339C86.5176 8.96167 86.2988 9.69995 86.2988 10.6882ZM94.209 14.989V6.39917H97.8594C98.7773 6.39917 99.4434 6.47729 99.8574 6.63354C100.275 6.78589 100.609 7.05933 100.859 7.45386C101.109 7.84839 101.234 8.29956 101.234 8.80737C101.234 9.4519 101.045 9.98511 100.666 10.407C100.287 10.825 99.7207 11.0886 98.9668 11.198C99.3418 11.4167 99.6504 11.657 99.8926 11.9187C100.139 12.1804 100.469 12.6453 100.883 13.3132L101.932 14.989H99.8574L98.6035 13.1199C98.1582 12.4519 97.8535 12.032 97.6895 11.8601C97.5254 11.6843 97.3516 11.5652 97.168 11.5027C96.9844 11.4363 96.6934 11.4031 96.2949 11.4031H95.9434V14.989H94.209ZM95.9434 10.032H97.2266C98.0586 10.032 98.5781 9.99683 98.7852 9.92651C98.9922 9.8562 99.1543 9.73511 99.2715 9.56323C99.3887 9.39136 99.4473 9.17651 99.4473 8.9187C99.4473 8.62964 99.3691 8.39722 99.2129 8.22144C99.0605 8.04175 98.8438 7.92847 98.5625 7.88159C98.4219 7.86206 98 7.85229 97.2969 7.85229H95.9434V10.032ZM106.871 11.8308V10.3835H110.609V13.8054C110.246 14.157 109.719 14.4675 109.027 14.7371C108.34 15.0027 107.643 15.1355 106.936 15.1355C106.037 15.1355 105.254 14.948 104.586 14.573C103.918 14.1941 103.416 13.655 103.08 12.9558C102.744 12.2527 102.576 11.489 102.576 10.6648C102.576 9.77026 102.764 8.97534 103.139 8.28003C103.514 7.58472 104.062 7.05151 104.785 6.68042C105.336 6.39526 106.021 6.25269 106.842 6.25269C107.908 6.25269 108.74 6.47729 109.338 6.92651C109.939 7.37183 110.326 7.98901 110.498 8.77808L108.775 9.10034C108.654 8.67847 108.426 8.34644 108.09 8.10425C107.758 7.85815 107.342 7.73511 106.842 7.73511C106.084 7.73511 105.48 7.97534 105.031 8.45581C104.586 8.93628 104.363 9.64917 104.363 10.5945C104.363 11.614 104.59 12.3796 105.043 12.8914C105.496 13.3992 106.09 13.6531 106.824 13.6531C107.188 13.6531 107.551 13.5828 107.914 13.4421C108.281 13.2976 108.596 13.1238 108.857 12.9207V11.8308H106.871ZM119.961 14.989H118.074L117.324 13.0378H113.891L113.182 14.989H111.342L114.688 6.39917H116.521L119.961 14.989ZM116.768 11.5906L115.584 8.40308L114.424 11.5906H116.768ZM120.904 14.989V6.39917H122.592L126.107 12.1355V6.39917H127.719V14.989H125.979L122.516 9.38745V14.989H120.904ZM129.506 14.989V6.39917H131.24V14.989H129.506ZM132.154 14.989V13.4246L136.666 7.85229H132.664V6.39917H138.951V7.74683L134.246 13.5417H139.133V14.989H132.154ZM147.98 14.989H146.094L145.344 13.0378H141.91L141.201 14.989H139.361L142.707 6.39917H144.541L147.98 14.989ZM144.787 11.5906L143.604 8.40308L142.443 11.5906H144.787ZM149.949 14.989V7.85229H147.4V6.39917H154.227V7.85229H151.684V14.989H149.949ZM155.299 14.989V6.39917H157.033V14.989H155.299ZM158.34 10.7468C158.34 9.87183 158.471 9.13745 158.732 8.5437C158.928 8.1062 159.193 7.71362 159.529 7.36597C159.869 7.01831 160.24 6.7605 160.643 6.59253C161.178 6.36597 161.795 6.25269 162.494 6.25269C163.76 6.25269 164.771 6.64526 165.529 7.43042C166.291 8.21558 166.672 9.30737 166.672 10.7058C166.672 12.0925 166.295 13.1785 165.541 13.9636C164.787 14.7449 163.779 15.1355 162.518 15.1355C161.24 15.1355 160.225 14.7468 159.471 13.9695C158.717 13.1882 158.34 12.114 158.34 10.7468ZM160.127 10.6882C160.127 11.6609 160.352 12.3992 160.801 12.9031C161.25 13.4031 161.82 13.6531 162.512 13.6531C163.203 13.6531 163.77 13.405 164.211 12.9089C164.656 12.4089 164.879 11.6609 164.879 10.6648C164.879 9.68042 164.662 8.94604 164.229 8.46167C163.799 7.97729 163.227 7.73511 162.512 7.73511C161.797 7.73511 161.221 7.9812 160.783 8.47339C160.346 8.96167 160.127 9.69995 160.127 10.6882ZM168.049 14.989V6.39917H169.736L173.252 12.1355V6.39917H174.863V14.989H173.123L169.66 9.38745V14.989H168.049ZM66.1895 28.989V20.3992H68.9727C70.0273 20.3992 70.7148 20.4421 71.0352 20.5281C71.5273 20.657 71.9395 20.9382 72.2715 21.3718C72.6035 21.8015 72.7695 22.3582 72.7695 23.0417C72.7695 23.5691 72.6738 24.0125 72.4824 24.3718C72.291 24.7312 72.0469 25.0144 71.75 25.2214C71.457 25.4246 71.1582 25.5593 70.8535 25.6257C70.4395 25.7078 69.8398 25.7488 69.0547 25.7488H67.9238V28.989H66.1895ZM67.9238 21.8523V24.2898H68.873C69.5566 24.2898 70.0137 24.2449 70.2441 24.155C70.4746 24.0652 70.6543 23.9246 70.7832 23.7332C70.916 23.5417 70.9824 23.3191 70.9824 23.0652C70.9824 22.7527 70.8906 22.4949 70.707 22.2917C70.5234 22.0886 70.291 21.9617 70.0098 21.9109C69.8027 21.8718 69.3867 21.8523 68.7617 21.8523H67.9238ZM74.1992 28.989V20.3992H77.8496C78.7676 20.3992 79.4336 20.4773 79.8477 20.6335C80.2656 20.7859 80.5996 21.0593 80.8496 21.4539C81.0996 21.8484 81.2246 22.2996 81.2246 22.8074C81.2246 23.4519 81.0352 23.9851 80.6562 24.407C80.2773 24.825 79.7109 25.0886 78.957 25.198C79.332 25.4167 79.6406 25.657 79.8828 25.9187C80.1289 26.1804 80.459 26.6453 80.873 27.3132L81.9219 28.989H79.8477L78.5938 27.1199C78.1484 26.4519 77.8438 26.032 77.6797 25.8601C77.5156 25.6843 77.3418 25.5652 77.1582 25.5027C76.9746 25.4363 76.6836 25.4031 76.2852 25.4031H75.9336V28.989H74.1992ZM75.9336 24.032H77.2168C78.0488 24.032 78.5684 23.9968 78.7754 23.9265C78.9824 23.8562 79.1445 23.7351 79.2617 23.5632C79.3789 23.3914 79.4375 23.1765 79.4375 22.9187C79.4375 22.6296 79.3594 22.3972 79.2031 22.2214C79.0508 22.0417 78.834 21.9285 78.5527 21.8816C78.4121 21.8621 77.9902 21.8523 77.2871 21.8523H75.9336V24.032ZM82.5137 24.7468C82.5137 23.8718 82.6445 23.1375 82.9062 22.5437C83.1016 22.1062 83.3672 21.7136 83.7031 21.366C84.043 21.0183 84.4141 20.7605 84.8164 20.5925C85.3516 20.366 85.9688 20.2527 86.668 20.2527C87.9336 20.2527 88.9453 20.6453 89.7031 21.4304C90.4648 22.2156 90.8457 23.3074 90.8457 24.7058C90.8457 26.0925 90.4688 27.1785 89.7148 27.9636C88.9609 28.7449 87.9531 29.1355 86.6914 29.1355C85.4141 29.1355 84.3984 28.7468 83.6445 27.9695C82.8906 27.1882 82.5137 26.114 82.5137 24.7468ZM84.3008 24.6882C84.3008 25.6609 84.5254 26.3992 84.9746 26.9031C85.4238 27.4031 85.9941 27.6531 86.6855 27.6531C87.377 27.6531 87.9434 27.405 88.3848 26.9089C88.8301 26.4089 89.0527 25.6609 89.0527 24.6648C89.0527 23.6804 88.8359 22.946 88.4023 22.4617C87.9727 21.9773 87.4004 21.7351 86.6855 21.7351C85.9707 21.7351 85.3945 21.9812 84.957 22.4734C84.5195 22.9617 84.3008 23.7 84.3008 24.6882ZM94.1387 28.989V21.8523H91.5898V20.3992H98.416V21.8523H95.873V28.989H94.1387ZM99.541 28.989V20.3992H105.91V21.8523H101.275V23.7566H105.588V25.2039H101.275V27.5417H106.074V28.989H99.541ZM107.492 28.989V20.3992H109.227V28.989H107.492ZM110.902 28.989V20.3992H112.59L116.105 26.1355V20.3992H117.717V28.989H115.977L112.514 23.3875V28.989H110.902Z" fill="white"/>
<defs>
<linearGradient id="paint0_linear_38_1875" x1="92" y1="1.98901" x2="92" y2="33.989" gradientUnits="userSpaceOnUse">
<stop stop-color="#03363B"/>
<stop offset="1" stop-color="#06A2B2"/>
</linearGradient>
</defs>
</svg>
