<svg width="65" height="24" viewBox="0 0 65 24" fill="none" xmlns="http://www.w3.org/2000/svg">
<rect x="1" y="1.98901" width="63" height="20" rx="10" fill="url(#paint0_linear_50_1812)"/>
<rect x="1" y="1.98901" width="63" height="20" rx="10" stroke="#A63484" stroke-width="3" stroke-linejoin="round"/>
<path d="M9.06836 15.989V7.46948H10.8027V14.5417H15.1152V15.989H9.06836ZM24.1035 15.989H22.2168L21.4668 14.0378H18.0332L17.3242 15.989H15.4844L18.8301 7.39917H20.6641L24.1035 15.989ZM20.9102 12.5906L19.7266 9.40308L18.5664 12.5906H20.9102ZM25.0352 15.989V7.39917H28.6855C29.6035 7.39917 30.2695 7.47729 30.6836 7.63354C31.1016 7.78589 31.4355 8.05933 31.6855 8.45386C31.9355 8.84839 32.0605 9.29956 32.0605 9.80737C32.0605 10.4519 31.8711 10.9851 31.4922 11.407C31.1133 11.825 30.5469 12.0886 29.793 12.198C30.168 12.4167 30.4766 12.657 30.7188 12.9187C30.9648 13.1804 31.2949 13.6453 31.709 14.3132L32.7578 15.989H30.6836L29.4297 14.1199C28.9844 13.4519 28.6797 13.032 28.5156 12.8601C28.3516 12.6843 28.1777 12.5652 27.9941 12.5027C27.8105 12.4363 27.5195 12.4031 27.1211 12.4031H26.7695V15.989H25.0352ZM26.7695 11.032H28.0527C28.8848 11.032 29.4043 10.9968 29.6113 10.9265C29.8184 10.8562 29.9805 10.7351 30.0977 10.5632C30.2148 10.3914 30.2734 10.1765 30.2734 9.9187C30.2734 9.62964 30.1953 9.39722 30.0391 9.22144C29.8867 9.04175 29.6699 8.92847 29.3887 8.88159C29.248 8.86206 28.8262 8.85229 28.123 8.85229H26.7695V11.032ZM37.6973 12.8308V11.3835H41.4355V14.8054C41.0723 15.157 40.5449 15.4675 39.8535 15.7371C39.166 16.0027 38.4688 16.1355 37.7617 16.1355C36.8633 16.1355 36.0801 15.948 35.4121 15.573C34.7441 15.1941 34.2422 14.655 33.9062 13.9558C33.5703 13.2527 33.4023 12.489 33.4023 11.6648C33.4023 10.7703 33.5898 9.97534 33.9648 9.28003C34.3398 8.58472 34.8887 8.05151 35.6113 7.68042C36.1621 7.39526 36.8477 7.25269 37.668 7.25269C38.7344 7.25269 39.5664 7.47729 40.1641 7.92651C40.7656 8.37183 41.1523 8.98901 41.3242 9.77808L39.6016 10.1003C39.4805 9.67847 39.252 9.34644 38.916 9.10425C38.584 8.85815 38.168 8.73511 37.668 8.73511C36.9102 8.73511 36.3066 8.97534 35.8574 9.45581C35.4121 9.93628 35.1895 10.6492 35.1895 11.5945C35.1895 12.614 35.416 13.3796 35.8691 13.8914C36.3223 14.3992 36.916 14.6531 37.6504 14.6531C38.0137 14.6531 38.377 14.5828 38.7402 14.4421C39.1074 14.2976 39.4219 14.1238 39.6836 13.9207V12.8308H37.6973ZM43.041 15.989V7.39917H49.4102V8.85229H44.7754V10.7566H49.0879V12.2039H44.7754V14.5417H49.5742V15.989H43.041ZM54.8945 15.989H53.248V9.78394C52.6465 10.3464 51.9375 10.7625 51.1211 11.032V9.53784C51.5508 9.39722 52.0176 9.13159 52.5215 8.74097C53.0254 8.34644 53.3711 7.88745 53.5586 7.36401H54.8945V15.989Z" fill="white"/>
<defs>
<linearGradient id="paint0_linear_50_1812" x1="32.5" y1="1.98901" x2="32.5" y2="21.989" gradientUnits="userSpaceOnUse">
<stop stop-color="#A63484"/>
<stop offset="1" stop-color="#310370"/>
</linearGradient>
</defs>
</svg>
