<svg width="37" height="24" viewBox="0 0 37 24" fill="none" xmlns="http://www.w3.org/2000/svg">
<rect x="2" y="1.98901" width="34" height="20" rx="10" fill="url(#paint0_linear_84_2051)"/>
<rect x="2" y="1.98901" width="34" height="20" rx="10" stroke="#3C8FCD" stroke-width="3" stroke-linejoin="round"/>
<path d="M12.1855 7.39917H13.9199V12.0515C13.9199 12.7898 13.9414 13.2683 13.9844 13.4871C14.0586 13.8386 14.2344 14.1218 14.5117 14.3367C14.793 14.5476 15.1758 14.6531 15.6602 14.6531C16.1523 14.6531 16.5234 14.5535 16.7734 14.3542C17.0234 14.1511 17.1738 13.9031 17.2246 13.6101C17.2754 13.3171 17.3008 12.8308 17.3008 12.1511V7.39917H19.0352V11.9109C19.0352 12.9421 18.9883 13.6707 18.8945 14.0964C18.8008 14.5222 18.627 14.8816 18.373 15.1746C18.123 15.4675 17.7871 15.7019 17.3652 15.8777C16.9434 16.0496 16.3926 16.1355 15.7129 16.1355C14.8926 16.1355 14.2695 16.0417 13.8438 15.8542C13.4219 15.6628 13.0879 15.4167 12.8418 15.116C12.5957 14.8113 12.4336 14.4929 12.3555 14.1609C12.2422 13.6687 12.1855 12.9421 12.1855 11.9812V7.39917ZM23.7344 15.989V14.2605H20.2188V12.8191L23.9453 7.36401H25.3281V12.8132H26.3945V14.2605H25.3281V15.989H23.7344ZM23.7344 12.8132V9.87769L21.7598 12.8132H23.7344Z" fill="white"/>
<defs>
<linearGradient id="paint0_linear_84_2051" x1="19" y1="1.98901" x2="19" y2="21.989" gradientUnits="userSpaceOnUse">
<stop stop-color="#3A78A8"/>
<stop offset="1" stop-color="#3C8FCD"/>
</linearGradient>
</defs>
</svg>
