<svg width="50" height="24" viewBox="0 0 50 24" fill="none" xmlns="http://www.w3.org/2000/svg">
<rect x="2" y="1.98901" width="47" height="20" rx="10" fill="url(#paint0_linear_64_1830)"/>
<rect x="2" y="1.98901" width="47" height="20" rx="10" stroke="#1AB2C9" stroke-width="3" stroke-linejoin="round"/>
<path d="M10.043 15.989V7.39917H11.7305L15.2461 13.1355V7.39917H16.8574V15.989H15.1172L11.6543 10.3875V15.989H10.043ZM24.1934 12.8308L25.875 13.364C25.6172 14.3015 25.1875 14.9988 24.5859 15.4558C23.9883 15.9089 23.2285 16.1355 22.3066 16.1355C21.166 16.1355 20.2285 15.7468 19.4941 14.9695C18.7598 14.1882 18.3926 13.1218 18.3926 11.7703C18.3926 10.3406 18.7617 9.2312 19.5 8.44214C20.2383 7.64917 21.209 7.25269 22.4121 7.25269C23.4629 7.25269 24.3164 7.56323 24.9727 8.18433C25.3633 8.55151 25.6562 9.07886 25.8516 9.76636L24.1348 10.1765C24.0332 9.7312 23.8203 9.37964 23.4961 9.12183C23.1758 8.86401 22.7852 8.73511 22.3242 8.73511C21.6875 8.73511 21.1699 8.96362 20.7715 9.42065C20.377 9.87769 20.1797 10.6179 20.1797 11.6414C20.1797 12.7273 20.375 13.5007 20.7656 13.9617C21.1562 14.4226 21.6641 14.6531 22.2891 14.6531C22.75 14.6531 23.1465 14.5066 23.4785 14.2136C23.8105 13.9207 24.0488 13.4597 24.1934 12.8308ZM27.3926 15.989V7.39917H29.127V11.2136L32.6309 7.39917H34.9629L31.7285 10.7449L35.1387 15.989H32.8945L30.5332 11.9578L29.127 13.3933V15.989H27.3926ZM39.8906 15.989H38.2441V9.78394C37.6426 10.3464 36.9336 10.7625 36.1172 11.032V9.53784C36.5469 9.39722 37.0137 9.13159 37.5176 8.74097C38.0215 8.34644 38.3672 7.88745 38.5547 7.36401H39.8906V15.989Z" fill="white"/>
<defs>
<linearGradient id="paint0_linear_64_1830" x1="25.5" y1="1.98901" x2="25.5" y2="21.989" gradientUnits="userSpaceOnUse">
<stop stop-color="#1AB2C9"/>
<stop offset="1" stop-color="#5C49D4"/>
</linearGradient>
</defs>
</svg>
