<svg width="126" height="36" viewBox="0 0 126 36" fill="none" xmlns="http://www.w3.org/2000/svg">
<rect x="1" y="1.98901" width="124" height="32" rx="10" fill="url(#paint0_linear_40_2568)"/>
<rect x="1" y="1.98901" width="124" height="32" rx="10" stroke="#0052AF" stroke-width="3" stroke-linejoin="round"/>
<path d="M9.16406 6.39917H12.334C13.0488 6.39917 13.5938 6.45386 13.9688 6.56323C14.4727 6.71167 14.9043 6.97534 15.2637 7.35425C15.623 7.73315 15.8965 8.198 16.084 8.74878C16.2715 9.29565 16.3652 9.97144 16.3652 10.7761C16.3652 11.4832 16.2773 12.0925 16.1016 12.6042C15.8867 13.2292 15.5801 13.7351 15.1816 14.1218C14.8809 14.4148 14.4746 14.6433 13.9629 14.8074C13.5801 14.9285 13.0684 14.989 12.4277 14.989H9.16406V6.39917ZM10.8984 7.85229V13.5417H12.1934C12.6777 13.5417 13.0273 13.5144 13.2422 13.4597C13.5234 13.3894 13.7559 13.2703 13.9395 13.1023C14.127 12.9343 14.2793 12.6589 14.3965 12.2761C14.5137 11.8894 14.5723 11.364 14.5723 10.7C14.5723 10.0359 14.5137 9.52612 14.3965 9.17065C14.2793 8.81519 14.1152 8.53784 13.9043 8.33862C13.6934 8.1394 13.4258 8.00464 13.1016 7.93433C12.8594 7.87964 12.3848 7.85229 11.6777 7.85229H10.8984ZM17.8594 14.989V6.39917H19.5469L23.0625 12.1355V6.39917H24.6738V14.989H22.9336L19.4707 9.38745V14.989H17.8594ZM34.2598 14.989H32.373L31.623 13.0378H28.1895L27.4805 14.989H25.6406L28.9863 6.39917H30.8203L34.2598 14.989ZM31.0664 11.5906L29.8828 8.40308L28.7227 11.5906H31.0664ZM38.0859 14.989V6.39917H41.7363C42.6543 6.39917 43.3203 6.47729 43.7344 6.63354C44.1523 6.78589 44.4863 7.05933 44.7363 7.45386C44.9863 7.84839 45.1113 8.29956 45.1113 8.80737C45.1113 9.4519 44.9219 9.98511 44.543 10.407C44.1641 10.825 43.5977 11.0886 42.8438 11.198C43.2188 11.4167 43.5273 11.657 43.7695 11.9187C44.0156 12.1804 44.3457 12.6453 44.7598 13.3132L45.8086 14.989H43.7344L42.4805 13.1199C42.0352 12.4519 41.7305 12.032 41.5664 11.8601C41.4023 11.6843 41.2285 11.5652 41.0449 11.5027C40.8613 11.4363 40.5703 11.4031 40.1719 11.4031H39.8203V14.989H38.0859ZM39.8203 10.032H41.1035C41.9355 10.032 42.4551 9.99683 42.6621 9.92651C42.8691 9.8562 43.0312 9.73511 43.1484 9.56323C43.2656 9.39136 43.3242 9.17651 43.3242 8.9187C43.3242 8.62964 43.2461 8.39722 43.0898 8.22144C42.9375 8.04175 42.7207 7.92847 42.4395 7.88159C42.2988 7.86206 41.877 7.85229 41.1738 7.85229H39.8203V10.032ZM46.752 14.989V6.39917H53.1211V7.85229H48.4863V9.75659H52.7988V11.2039H48.4863V13.5417H53.2852V14.989H46.752ZM54.7559 14.989V6.39917H57.5391C58.5938 6.39917 59.2812 6.44214 59.6016 6.52808C60.0938 6.65698 60.5059 6.93823 60.8379 7.37183C61.1699 7.80151 61.3359 8.35815 61.3359 9.04175C61.3359 9.56909 61.2402 10.0125 61.0488 10.3718C60.8574 10.7312 60.6133 11.0144 60.3164 11.2214C60.0234 11.4246 59.7246 11.5593 59.4199 11.6257C59.0059 11.7078 58.4062 11.7488 57.6211 11.7488H56.4902V14.989H54.7559ZM56.4902 7.85229V10.2898H57.4395C58.123 10.2898 58.5801 10.2449 58.8105 10.155C59.041 10.0652 59.2207 9.92456 59.3496 9.73315C59.4824 9.54175 59.5488 9.31909 59.5488 9.06519C59.5488 8.75269 59.457 8.49487 59.2734 8.29175C59.0898 8.08862 58.8574 7.96167 58.5762 7.91089C58.3691 7.87183 57.9531 7.85229 57.3281 7.85229H56.4902ZM62.8066 14.989V6.46948H64.541V13.5417H68.8535V14.989H62.8066ZM70.043 14.989V6.39917H71.7773V14.989H70.043ZM78.9316 11.8308L80.6133 12.364C80.3555 13.3015 79.9258 13.9988 79.3242 14.4558C78.7266 14.9089 77.9668 15.1355 77.0449 15.1355C75.9043 15.1355 74.9668 14.7468 74.2324 13.9695C73.498 13.1882 73.1309 12.1218 73.1309 10.7703C73.1309 9.34058 73.5 8.2312 74.2383 7.44214C74.9766 6.64917 75.9473 6.25269 77.1504 6.25269C78.2012 6.25269 79.0547 6.56323 79.7109 7.18433C80.1016 7.55151 80.3945 8.07886 80.5898 8.76636L78.873 9.17651C78.7715 8.7312 78.5586 8.37964 78.2344 8.12183C77.9141 7.86401 77.5234 7.73511 77.0625 7.73511C76.4258 7.73511 75.9082 7.96362 75.5098 8.42065C75.1152 8.87769 74.918 9.61792 74.918 10.6414C74.918 11.7273 75.1133 12.5007 75.5039 12.9617C75.8945 13.4226 76.4023 13.6531 77.0273 13.6531C77.4883 13.6531 77.8848 13.5066 78.2168 13.2136C78.5488 12.9207 78.7871 12.4597 78.9316 11.8308ZM89.8535 14.989H87.9668L87.2168 13.0378H83.7832L83.0742 14.989H81.2344L84.5801 6.39917H86.4141L89.8535 14.989ZM86.6602 11.5906L85.4766 8.40308L84.3164 11.5906H86.6602ZM91.8223 14.989V7.85229H89.2734V6.39917H96.0996V7.85229H93.5566V14.989H91.8223ZM97.1719 14.989V6.39917H98.9062V14.989H97.1719ZM100.213 10.7468C100.213 9.87183 100.344 9.13745 100.605 8.5437C100.801 8.1062 101.066 7.71362 101.402 7.36597C101.742 7.01831 102.113 6.7605 102.516 6.59253C103.051 6.36597 103.668 6.25269 104.367 6.25269C105.633 6.25269 106.645 6.64526 107.402 7.43042C108.164 8.21558 108.545 9.30737 108.545 10.7058C108.545 12.0925 108.168 13.1785 107.414 13.9636C106.66 14.7449 105.652 15.1355 104.391 15.1355C103.113 15.1355 102.098 14.7468 101.344 13.9695C100.59 13.1882 100.213 12.114 100.213 10.7468ZM102 10.6882C102 11.6609 102.225 12.3992 102.674 12.9031C103.123 13.4031 103.693 13.6531 104.385 13.6531C105.076 13.6531 105.643 13.405 106.084 12.9089C106.529 12.4089 106.752 11.6609 106.752 10.6648C106.752 9.68042 106.535 8.94604 106.102 8.46167C105.672 7.97729 105.1 7.73511 104.385 7.73511C103.67 7.73511 103.094 7.9812 102.656 8.47339C102.219 8.96167 102 9.69995 102 10.6882ZM109.922 14.989V6.39917H111.609L115.125 12.1355V6.39917H116.736V14.989H114.996L111.533 9.38745V14.989H109.922ZM37.1895 28.989V20.3992H39.9727C41.0273 20.3992 41.7148 20.4421 42.0352 20.5281C42.5273 20.657 42.9395 20.9382 43.2715 21.3718C43.6035 21.8015 43.7695 22.3582 43.7695 23.0417C43.7695 23.5691 43.6738 24.0125 43.4824 24.3718C43.291 24.7312 43.0469 25.0144 42.75 25.2214C42.457 25.4246 42.1582 25.5593 41.8535 25.6257C41.4395 25.7078 40.8398 25.7488 40.0547 25.7488H38.9238V28.989H37.1895ZM38.9238 21.8523V24.2898H39.873C40.5566 24.2898 41.0137 24.2449 41.2441 24.155C41.4746 24.0652 41.6543 23.9246 41.7832 23.7332C41.916 23.5417 41.9824 23.3191 41.9824 23.0652C41.9824 22.7527 41.8906 22.4949 41.707 22.2917C41.5234 22.0886 41.291 21.9617 41.0098 21.9109C40.8027 21.8718 40.3867 21.8523 39.7617 21.8523H38.9238ZM45.1992 28.989V20.3992H48.8496C49.7676 20.3992 50.4336 20.4773 50.8477 20.6335C51.2656 20.7859 51.5996 21.0593 51.8496 21.4539C52.0996 21.8484 52.2246 22.2996 52.2246 22.8074C52.2246 23.4519 52.0352 23.9851 51.6562 24.407C51.2773 24.825 50.7109 25.0886 49.957 25.198C50.332 25.4167 50.6406 25.657 50.8828 25.9187C51.1289 26.1804 51.459 26.6453 51.873 27.3132L52.9219 28.989H50.8477L49.5938 27.1199C49.1484 26.4519 48.8438 26.032 48.6797 25.8601C48.5156 25.6843 48.3418 25.5652 48.1582 25.5027C47.9746 25.4363 47.6836 25.4031 47.2852 25.4031H46.9336V28.989H45.1992ZM46.9336 24.032H48.2168C49.0488 24.032 49.5684 23.9968 49.7754 23.9265C49.9824 23.8562 50.1445 23.7351 50.2617 23.5632C50.3789 23.3914 50.4375 23.1765 50.4375 22.9187C50.4375 22.6296 50.3594 22.3972 50.2031 22.2214C50.0508 22.0417 49.834 21.9285 49.5527 21.8816C49.4121 21.8621 48.9902 21.8523 48.2871 21.8523H46.9336V24.032ZM53.5137 24.7468C53.5137 23.8718 53.6445 23.1375 53.9062 22.5437C54.1016 22.1062 54.3672 21.7136 54.7031 21.366C55.043 21.0183 55.4141 20.7605 55.8164 20.5925C56.3516 20.366 56.9688 20.2527 57.668 20.2527C58.9336 20.2527 59.9453 20.6453 60.7031 21.4304C61.4648 22.2156 61.8457 23.3074 61.8457 24.7058C61.8457 26.0925 61.4688 27.1785 60.7148 27.9636C59.9609 28.7449 58.9531 29.1355 57.6914 29.1355C56.4141 29.1355 55.3984 28.7468 54.6445 27.9695C53.8906 27.1882 53.5137 26.114 53.5137 24.7468ZM55.3008 24.6882C55.3008 25.6609 55.5254 26.3992 55.9746 26.9031C56.4238 27.4031 56.9941 27.6531 57.6855 27.6531C58.377 27.6531 58.9434 27.405 59.3848 26.9089C59.8301 26.4089 60.0527 25.6609 60.0527 24.6648C60.0527 23.6804 59.8359 22.946 59.4023 22.4617C58.9727 21.9773 58.4004 21.7351 57.6855 21.7351C56.9707 21.7351 56.3945 21.9812 55.957 22.4734C55.5195 22.9617 55.3008 23.7 55.3008 24.6882ZM65.1387 28.989V21.8523H62.5898V20.3992H69.416V21.8523H66.873V28.989H65.1387ZM70.541 28.989V20.3992H76.9102V21.8523H72.2754V23.7566H76.5879V25.2039H72.2754V27.5417H77.0742V28.989H70.541ZM78.4922 28.989V20.3992H80.2266V28.989H78.4922ZM81.9023 28.989V20.3992H83.5898L87.1055 26.1355V20.3992H88.7168V28.989H86.9766L83.5137 23.3875V28.989H81.9023Z" fill="white"/>
<defs>
<linearGradient id="paint0_linear_40_2568" x1="63" y1="1.98901" x2="63" y2="33.989" gradientUnits="userSpaceOnUse">
<stop stop-color="#A20E40"/>
<stop offset="1" stop-color="#06A2B2"/>
</linearGradient>
</defs>
</svg>
