<svg width="37" height="24" viewBox="0 0 37 24" fill="none" xmlns="http://www.w3.org/2000/svg">
<rect x="2" y="1.98901" width="34" height="20" rx="10" fill="url(#paint0_linear_66_2020)"/>
<rect x="2" y="1.98901" width="34" height="20" rx="10" stroke="#A08E00" stroke-width="3" stroke-linejoin="round"/>
<path d="M12.4785 9.76636H14.0137V10.6804C14.2129 10.3679 14.4824 10.114 14.8223 9.9187C15.1621 9.72339 15.5391 9.62573 15.9531 9.62573C16.6758 9.62573 17.2891 9.90894 17.793 10.4753C18.2969 11.0417 18.5488 11.8308 18.5488 12.8425C18.5488 13.8816 18.2949 14.6902 17.7871 15.2683C17.2793 15.8425 16.6641 16.1296 15.9414 16.1296C15.5977 16.1296 15.2852 16.0613 15.0039 15.9246C14.7266 15.7878 14.4336 15.5535 14.125 15.2214V18.3562H12.4785V9.76636ZM14.1074 12.7722C14.1074 13.4714 14.2461 13.989 14.5234 14.325C14.8008 14.657 15.1387 14.823 15.5371 14.823C15.9199 14.823 16.2383 14.6707 16.4922 14.366C16.7461 14.0574 16.873 13.5535 16.873 12.8542C16.873 12.2019 16.7422 11.7175 16.4805 11.4011C16.2188 11.0847 15.8945 10.9265 15.5078 10.9265C15.1055 10.9265 14.7715 11.0828 14.5059 11.3953C14.2402 11.7039 14.1074 12.1628 14.1074 12.7722ZM19.8145 9.76636H21.3496V10.6804C21.5488 10.3679 21.8184 10.114 22.1582 9.9187C22.498 9.72339 22.875 9.62573 23.2891 9.62573C24.0117 9.62573 24.625 9.90894 25.1289 10.4753C25.6328 11.0417 25.8848 11.8308 25.8848 12.8425C25.8848 13.8816 25.6309 14.6902 25.123 15.2683C24.6152 15.8425 24 16.1296 23.2773 16.1296C22.9336 16.1296 22.6211 16.0613 22.3398 15.9246C22.0625 15.7878 21.7695 15.5535 21.4609 15.2214V18.3562H19.8145V9.76636ZM21.4434 12.7722C21.4434 13.4714 21.582 13.989 21.8594 14.325C22.1367 14.657 22.4746 14.823 22.873 14.823C23.2559 14.823 23.5742 14.6707 23.8281 14.366C24.082 14.0574 24.209 13.5535 24.209 12.8542C24.209 12.2019 24.0781 11.7175 23.8164 11.4011C23.5547 11.0847 23.2305 10.9265 22.8438 10.9265C22.4414 10.9265 22.1074 11.0828 21.8418 11.3953C21.5762 11.7039 21.4434 12.1628 21.4434 12.7722Z" fill="white"/>
<defs>
<linearGradient id="paint0_linear_66_2020" x1="19" y1="1.98901" x2="19" y2="21.989" gradientUnits="userSpaceOnUse">
<stop stop-color="#A2CFCC"/>
<stop offset="1" stop-color="#A08E00"/>
</linearGradient>
</defs>
</svg>
