<svg width="64" height="24" viewBox="0 0 64 24" fill="none" xmlns="http://www.w3.org/2000/svg">
<rect x="2" y="1.98901" width="61" height="20" rx="10" fill="url(#paint0_linear_38_1861)"/>
<rect x="2" y="1.98901" width="61" height="20" rx="10" stroke="#86376B" stroke-width="3" stroke-linejoin="round"/>
<path d="M15.5137 12.8308L17.1953 13.364C16.9375 14.3015 16.5078 14.9988 15.9062 15.4558C15.3086 15.9089 14.5488 16.1355 13.627 16.1355C12.4863 16.1355 11.5488 15.7468 10.8145 14.9695C10.0801 14.1882 9.71289 13.1218 9.71289 11.7703C9.71289 10.3406 10.082 9.2312 10.8203 8.44214C11.5586 7.64917 12.5293 7.25269 13.7324 7.25269C14.7832 7.25269 15.6367 7.56323 16.293 8.18433C16.6836 8.55151 16.9766 9.07886 17.1719 9.76636L15.4551 10.1765C15.3535 9.7312 15.1406 9.37964 14.8164 9.12183C14.4961 8.86401 14.1055 8.73511 13.6445 8.73511C13.0078 8.73511 12.4902 8.96362 12.0918 9.42065C11.6973 9.87769 11.5 10.6179 11.5 11.6414C11.5 12.7273 11.6953 13.5007 12.0859 13.9617C12.4766 14.4226 12.9844 14.6531 13.6094 14.6531C14.0703 14.6531 14.4668 14.5066 14.7988 14.2136C15.1309 13.9207 15.3691 13.4597 15.5137 12.8308ZM26.4355 15.989H24.5488L23.7988 14.0378H20.3652L19.6562 15.989H17.8164L21.1621 7.39917H22.9961L26.4355 15.989ZM23.2422 12.5906L22.0586 9.40308L20.8984 12.5906H23.2422ZM26.9219 13.1941L28.6094 13.03C28.7109 13.5964 28.916 14.0125 29.2246 14.2781C29.5371 14.5437 29.957 14.6765 30.4844 14.6765C31.043 14.6765 31.4629 14.5593 31.7441 14.325C32.0293 14.0867 32.1719 13.8093 32.1719 13.4929C32.1719 13.2898 32.1113 13.1179 31.9902 12.9773C31.873 12.8328 31.666 12.7078 31.3691 12.6023C31.166 12.532 30.7031 12.407 29.9805 12.2273C29.0508 11.9968 28.3984 11.7136 28.0234 11.3777C27.4961 10.905 27.2324 10.3289 27.2324 9.64917C27.2324 9.21167 27.3555 8.80347 27.6016 8.42456C27.8516 8.04175 28.209 7.75073 28.6738 7.55151C29.1426 7.35229 29.707 7.25269 30.3672 7.25269C31.4453 7.25269 32.2559 7.48901 32.7988 7.96167C33.3457 8.43433 33.6328 9.06519 33.6602 9.85425L31.9258 9.93042C31.8516 9.48901 31.6914 9.17261 31.4453 8.9812C31.2031 8.78589 30.8379 8.68823 30.3496 8.68823C29.8457 8.68823 29.4512 8.79175 29.166 8.99878C28.9824 9.13159 28.8906 9.30933 28.8906 9.53198C28.8906 9.73511 28.9766 9.90894 29.1484 10.0535C29.3672 10.2371 29.8984 10.4285 30.7422 10.6277C31.5859 10.8269 32.209 11.0339 32.6113 11.2488C33.0176 11.4597 33.334 11.7507 33.5605 12.1218C33.791 12.489 33.9062 12.9441 33.9062 13.4871C33.9062 13.9792 33.7695 14.4402 33.4961 14.8699C33.2227 15.2996 32.8359 15.6199 32.3359 15.8308C31.8359 16.0378 31.2129 16.1414 30.4668 16.1414C29.3809 16.1414 28.5469 15.8914 27.9648 15.3914C27.3828 14.8875 27.0352 14.155 26.9219 13.1941ZM35.3652 15.989V7.39917H38.1484C39.2031 7.39917 39.8906 7.44214 40.2109 7.52808C40.7031 7.65698 41.1152 7.93823 41.4473 8.37183C41.7793 8.80151 41.9453 9.35815 41.9453 10.0417C41.9453 10.5691 41.8496 11.0125 41.6582 11.3718C41.4668 11.7312 41.2227 12.0144 40.9258 12.2214C40.6328 12.4246 40.334 12.5593 40.0293 12.6257C39.6152 12.7078 39.0156 12.7488 38.2305 12.7488H37.0996V15.989H35.3652ZM37.0996 8.85229V11.2898H38.0488C38.7324 11.2898 39.1895 11.2449 39.4199 11.155C39.6504 11.0652 39.8301 10.9246 39.959 10.7332C40.0918 10.5417 40.1582 10.3191 40.1582 10.0652C40.1582 9.75269 40.0664 9.49487 39.8828 9.29175C39.6992 9.08862 39.4668 8.96167 39.1855 8.91089C38.9785 8.87183 38.5625 8.85229 37.9375 8.85229H37.0996ZM47.2188 15.989H45.5723V9.78394C44.9707 10.3464 44.2617 10.7625 43.4453 11.032V9.53784C43.875 9.39722 44.3418 9.13159 44.8457 8.74097C45.3496 8.34644 45.6953 7.88745 45.8828 7.36401H47.2188V15.989ZM52.4688 7.36401C53.3008 7.36401 53.9512 7.66089 54.4199 8.25464C54.9785 8.95776 55.2578 10.1238 55.2578 11.7527C55.2578 13.3777 54.9766 14.5457 54.4141 15.2566C53.9492 15.8425 53.3008 16.1355 52.4688 16.1355C51.6328 16.1355 50.959 15.8152 50.4473 15.1746C49.9355 14.53 49.6797 13.3835 49.6797 11.7351C49.6797 10.1179 49.9609 8.95386 50.5234 8.24292C50.9883 7.65698 51.6367 7.36401 52.4688 7.36401ZM52.4688 8.72925C52.2695 8.72925 52.0918 8.7937 51.9355 8.92261C51.7793 9.04761 51.6582 9.27417 51.5723 9.60229C51.459 10.0281 51.4023 10.7449 51.4023 11.7527C51.4023 12.7605 51.4531 13.4539 51.5547 13.8328C51.6562 14.2078 51.7832 14.4578 51.9355 14.5828C52.0918 14.7078 52.2695 14.7703 52.4688 14.7703C52.668 14.7703 52.8457 14.7078 53.002 14.5828C53.1582 14.4539 53.2793 14.2253 53.3652 13.8972C53.4785 13.4753 53.5352 12.7605 53.5352 11.7527C53.5352 10.7449 53.4844 10.0535 53.3828 9.67847C53.2812 9.29956 53.1523 9.04761 52.9961 8.92261C52.8438 8.7937 52.668 8.72925 52.4688 8.72925Z" fill="white"/>
<defs>
<linearGradient id="paint0_linear_38_1861" x1="32.5" y1="1.98901" x2="32.5" y2="21.989" gradientUnits="userSpaceOnUse">
<stop stop-color="#86376B"/>
<stop offset="1" stop-color="#FFE000"/>
</linearGradient>
</defs>
</svg>
