<svg width="57" height="24" viewBox="0 0 57 24" fill="none" xmlns="http://www.w3.org/2000/svg">
<rect x="2" y="1.98901" width="54" height="20" rx="10" fill="url(#paint0_linear_84_2007)"/>
<rect x="2" y="1.98901" width="54" height="20" rx="10" stroke="#AC2106" stroke-width="3" stroke-linejoin="round"/>
<path d="M12.125 15.989V8.85229H9.57617V7.39917H16.4023V8.85229H13.8594V15.989H12.125ZM21.5234 12.8308V11.3835H25.2617V14.8054C24.8984 15.157 24.3711 15.4675 23.6797 15.7371C22.9922 16.0027 22.2949 16.1355 21.5879 16.1355C20.6895 16.1355 19.9062 15.948 19.2383 15.573C18.5703 15.1941 18.0684 14.655 17.7324 13.9558C17.3965 13.2527 17.2285 12.489 17.2285 11.6648C17.2285 10.7703 17.416 9.97534 17.791 9.28003C18.166 8.58472 18.7148 8.05151 19.4375 7.68042C19.9883 7.39526 20.6738 7.25269 21.4941 7.25269C22.5605 7.25269 23.3926 7.47729 23.9902 7.92651C24.5918 8.37183 24.9785 8.98901 25.1504 9.77808L23.4277 10.1003C23.3066 9.67847 23.0781 9.34644 22.7422 9.10425C22.4102 8.85815 21.9941 8.73511 21.4941 8.73511C20.7363 8.73511 20.1328 8.97534 19.6836 9.45581C19.2383 9.93628 19.0156 10.6492 19.0156 11.5945C19.0156 12.614 19.2422 13.3796 19.6953 13.8914C20.1484 14.3992 20.7422 14.6531 21.4766 14.6531C21.8398 14.6531 22.2031 14.5828 22.5664 14.4421C22.9336 14.2976 23.248 14.1238 23.5098 13.9207V12.8308H21.5234ZM26.8789 15.989V7.39917H32.7676V8.85229H28.6133V10.8855H32.1992V12.3386H28.6133V15.989H26.8789ZM34.209 7.39917H37.6426C38.3223 7.39917 38.8281 7.42847 39.1602 7.48706C39.4961 7.54175 39.7949 7.65894 40.0566 7.83862C40.3223 8.01831 40.543 8.25854 40.7188 8.55933C40.8945 8.8562 40.9824 9.19019 40.9824 9.56128C40.9824 9.96362 40.873 10.3328 40.6543 10.6687C40.4395 11.0046 40.1465 11.2566 39.7754 11.4246C40.2988 11.5769 40.7012 11.8367 40.9824 12.2039C41.2637 12.571 41.4043 13.0027 41.4043 13.4988C41.4043 13.8894 41.3125 14.2703 41.1289 14.6414C40.9492 15.0085 40.7012 15.3035 40.3848 15.5261C40.0723 15.7449 39.6855 15.8796 39.2246 15.9304C38.9355 15.9617 38.2383 15.9812 37.1328 15.989H34.209V7.39917ZM35.9434 8.82886V10.8152H37.0801C37.7559 10.8152 38.1758 10.8054 38.3398 10.7859C38.6367 10.7507 38.8691 10.6492 39.0371 10.4812C39.209 10.3093 39.2949 10.0847 39.2949 9.80737C39.2949 9.54175 39.2207 9.3269 39.0723 9.16284C38.9277 8.99487 38.7109 8.89331 38.4219 8.85815C38.25 8.83862 37.7559 8.82886 36.9395 8.82886H35.9434ZM35.9434 12.2449V14.5417H37.5488C38.1738 14.5417 38.5703 14.5242 38.7383 14.489C38.9961 14.4421 39.2051 14.3289 39.3652 14.1492C39.5293 13.9656 39.6113 13.7214 39.6113 13.4167C39.6113 13.1589 39.5488 12.9402 39.4238 12.7605C39.2988 12.5808 39.1172 12.45 38.8789 12.3679C38.6445 12.2859 38.1328 12.2449 37.3438 12.2449H35.9434ZM48.0723 14.4597V15.989H42.3008C42.3633 15.4109 42.5508 14.864 42.8633 14.3484C43.1758 13.8289 43.793 13.1414 44.7148 12.2859C45.457 11.5945 45.9121 11.1257 46.0801 10.8796C46.3066 10.5398 46.4199 10.2039 46.4199 9.87183C46.4199 9.50464 46.3203 9.22339 46.1211 9.02808C45.9258 8.82886 45.6543 8.72925 45.3066 8.72925C44.9629 8.72925 44.6895 8.83276 44.4863 9.03979C44.2832 9.24683 44.166 9.59058 44.1348 10.071L42.4941 9.90698C42.5918 9.00073 42.8984 8.35034 43.4141 7.95581C43.9297 7.56128 44.5742 7.36401 45.3477 7.36401C46.1953 7.36401 46.8613 7.59253 47.3457 8.04956C47.8301 8.50659 48.0723 9.07495 48.0723 9.75464C48.0723 10.1414 48.002 10.5105 47.8613 10.8621C47.7246 11.2097 47.5059 11.575 47.2051 11.9578C47.0059 12.2117 46.6465 12.5769 46.127 13.0535C45.6074 13.53 45.2773 13.8464 45.1367 14.0027C45 14.1589 44.8887 14.3113 44.8027 14.4597H48.0723Z" fill="white"/>
<defs>
<linearGradient id="paint0_linear_84_2007" x1="29" y1="1.98901" x2="29" y2="21.989" gradientUnits="userSpaceOnUse">
<stop stop-color="#AC2106"/>
<stop offset="1" stop-color="#F0A551"/>
</linearGradient>
</defs>
</svg>
