<svg width="66" height="24" viewBox="0 0 66 24" fill="none" xmlns="http://www.w3.org/2000/svg">
<rect x="1" y="1.98901" width="64" height="20" rx="10" fill="url(#paint0_linear_67_1911)"/>
<rect x="1" y="1.98901" width="64" height="20" rx="10" stroke="#BF7F22" stroke-width="3" stroke-linejoin="round"/>
<path d="M9.19922 15.989V7.39917H12.8496C13.7676 7.39917 14.4336 7.47729 14.8477 7.63354C15.2656 7.78589 15.5996 8.05933 15.8496 8.45386C16.0996 8.84839 16.2246 9.29956 16.2246 9.80737C16.2246 10.4519 16.0352 10.9851 15.6562 11.407C15.2773 11.825 14.7109 12.0886 13.957 12.198C14.332 12.4167 14.6406 12.657 14.8828 12.9187C15.1289 13.1804 15.459 13.6453 15.873 14.3132L16.9219 15.989H14.8477L13.5938 14.1199C13.1484 13.4519 12.8438 13.032 12.6797 12.8601C12.5156 12.6843 12.3418 12.5652 12.1582 12.5027C11.9746 12.4363 11.6836 12.4031 11.2852 12.4031H10.9336V15.989H9.19922ZM10.9336 11.032H12.2168C13.0488 11.032 13.5684 10.9968 13.7754 10.9265C13.9824 10.8562 14.1445 10.7351 14.2617 10.5632C14.3789 10.3914 14.4375 10.1765 14.4375 9.9187C14.4375 9.62964 14.3594 9.39722 14.2031 9.22144C14.0508 9.04175 13.834 8.92847 13.5527 8.88159C13.4121 8.86206 12.9902 8.85229 12.2871 8.85229H10.9336V11.032ZM17.8828 15.989V7.39917H19.5703L23.0859 13.1355V7.39917H24.6973V15.989H22.957L19.4941 10.3875V15.989H17.8828ZM34.2832 15.989H32.3965L31.6465 14.0378H28.2129L27.5039 15.989H25.6641L29.0098 7.39917H30.8438L34.2832 15.989ZM31.0898 12.5906L29.9062 9.40308L28.7461 12.5906H31.0898ZM34.7695 13.1941L36.457 13.03C36.5586 13.5964 36.7637 14.0125 37.0723 14.2781C37.3848 14.5437 37.8047 14.6765 38.332 14.6765C38.8906 14.6765 39.3105 14.5593 39.5918 14.325C39.877 14.0867 40.0195 13.8093 40.0195 13.4929C40.0195 13.2898 39.959 13.1179 39.8379 12.9773C39.7207 12.8328 39.5137 12.7078 39.2168 12.6023C39.0137 12.532 38.5508 12.407 37.8281 12.2273C36.8984 11.9968 36.2461 11.7136 35.8711 11.3777C35.3438 10.905 35.0801 10.3289 35.0801 9.64917C35.0801 9.21167 35.2031 8.80347 35.4492 8.42456C35.6992 8.04175 36.0566 7.75073 36.5215 7.55151C36.9902 7.35229 37.5547 7.25269 38.2148 7.25269C39.293 7.25269 40.1035 7.48901 40.6465 7.96167C41.1934 8.43433 41.4805 9.06519 41.5078 9.85425L39.7734 9.93042C39.6992 9.48901 39.5391 9.17261 39.293 8.9812C39.0508 8.78589 38.6855 8.68823 38.1973 8.68823C37.6934 8.68823 37.2988 8.79175 37.0137 8.99878C36.8301 9.13159 36.7383 9.30933 36.7383 9.53198C36.7383 9.73511 36.8242 9.90894 36.9961 10.0535C37.2148 10.2371 37.7461 10.4285 38.5898 10.6277C39.4336 10.8269 40.0566 11.0339 40.459 11.2488C40.8652 11.4597 41.1816 11.7507 41.4082 12.1218C41.6387 12.489 41.7539 12.9441 41.7539 13.4871C41.7539 13.9792 41.6172 14.4402 41.3438 14.8699C41.0703 15.2996 40.6836 15.6199 40.1836 15.8308C39.6836 16.0378 39.0605 16.1414 38.3145 16.1414C37.2285 16.1414 36.3945 15.8914 35.8125 15.3914C35.2305 14.8875 34.8828 14.155 34.7695 13.1941ZM43.2129 15.989V7.39917H49.582V8.85229H44.9473V10.7566H49.2598V12.2039H44.9473V14.5417H49.7461V15.989H43.2129ZM51.2637 15.989V7.46948H52.998V14.5417H57.3105V15.989H51.2637Z" fill="white"/>
<defs>
<linearGradient id="paint0_linear_67_1911" x1="33" y1="1.98901" x2="33" y2="21.989" gradientUnits="userSpaceOnUse">
<stop stop-color="#BF7F22"/>
<stop offset="1" stop-color="#C4B600"/>
</linearGradient>
</defs>
</svg>
