<svg width="50" height="24" viewBox="0 0 50 24" fill="none" xmlns="http://www.w3.org/2000/svg">
<rect x="2" y="1.98901" width="47" height="20" rx="10" fill="url(#paint0_linear_67_1948)"/>
<rect x="2" y="1.98901" width="47" height="20" rx="10" stroke="#E29700" stroke-width="3" stroke-linejoin="round"/>
<path d="M9.92578 13.1941L11.6133 13.03C11.7148 13.5964 11.9199 14.0125 12.2285 14.2781C12.541 14.5437 12.9609 14.6765 13.4883 14.6765C14.0469 14.6765 14.4668 14.5593 14.748 14.325C15.0332 14.0867 15.1758 13.8093 15.1758 13.4929C15.1758 13.2898 15.1152 13.1179 14.9941 12.9773C14.877 12.8328 14.6699 12.7078 14.373 12.6023C14.1699 12.532 13.707 12.407 12.9844 12.2273C12.0547 11.9968 11.4023 11.7136 11.0273 11.3777C10.5 10.905 10.2363 10.3289 10.2363 9.64917C10.2363 9.21167 10.3594 8.80347 10.6055 8.42456C10.8555 8.04175 11.2129 7.75073 11.6777 7.55151C12.1465 7.35229 12.7109 7.25269 13.3711 7.25269C14.4492 7.25269 15.2598 7.48901 15.8027 7.96167C16.3496 8.43433 16.6367 9.06519 16.6641 9.85425L14.9297 9.93042C14.8555 9.48901 14.6953 9.17261 14.4492 8.9812C14.207 8.78589 13.8418 8.68823 13.3535 8.68823C12.8496 8.68823 12.4551 8.79175 12.1699 8.99878C11.9863 9.13159 11.8945 9.30933 11.8945 9.53198C11.8945 9.73511 11.9805 9.90894 12.1523 10.0535C12.3711 10.2371 12.9023 10.4285 13.7461 10.6277C14.5898 10.8269 15.2129 11.0339 15.6152 11.2488C16.0215 11.4597 16.3379 11.7507 16.5645 12.1218C16.7949 12.489 16.9102 12.9441 16.9102 13.4871C16.9102 13.9792 16.7734 14.4402 16.5 14.8699C16.2266 15.2996 15.8398 15.6199 15.3398 15.8308C14.8398 16.0378 14.2168 16.1414 13.4707 16.1414C12.3848 16.1414 11.5508 15.8914 10.9688 15.3914C10.3867 14.8875 10.0391 14.155 9.92578 13.1941ZM18.3691 15.989V7.39917H21.1523C22.207 7.39917 22.8945 7.44214 23.2148 7.52808C23.707 7.65698 24.1191 7.93823 24.4512 8.37183C24.7832 8.80151 24.9492 9.35815 24.9492 10.0417C24.9492 10.5691 24.8535 11.0125 24.6621 11.3718C24.4707 11.7312 24.2266 12.0144 23.9297 12.2214C23.6367 12.4246 23.3379 12.5593 23.0332 12.6257C22.6191 12.7078 22.0195 12.7488 21.2344 12.7488H20.1035V15.989H18.3691ZM20.1035 8.85229V11.2898H21.0527C21.7363 11.2898 22.1934 11.2449 22.4238 11.155C22.6543 11.0652 22.834 10.9246 22.9629 10.7332C23.0957 10.5417 23.1621 10.3191 23.1621 10.0652C23.1621 9.75269 23.0703 9.49487 22.8867 9.29175C22.7031 9.08862 22.4707 8.96167 22.1895 8.91089C21.9824 8.87183 21.5664 8.85229 20.9414 8.85229H20.1035ZM28.3066 15.989V8.85229H25.7578V7.39917H32.584V8.85229H30.041V15.989H28.3066ZM33.7148 7.39917H37.1484C37.8281 7.39917 38.334 7.42847 38.666 7.48706C39.002 7.54175 39.3008 7.65894 39.5625 7.83862C39.8281 8.01831 40.0488 8.25854 40.2246 8.55933C40.4004 8.8562 40.4883 9.19019 40.4883 9.56128C40.4883 9.96362 40.3789 10.3328 40.1602 10.6687C39.9453 11.0046 39.6523 11.2566 39.2812 11.4246C39.8047 11.5769 40.207 11.8367 40.4883 12.2039C40.7695 12.571 40.9102 13.0027 40.9102 13.4988C40.9102 13.8894 40.8184 14.2703 40.6348 14.6414C40.4551 15.0085 40.207 15.3035 39.8906 15.5261C39.5781 15.7449 39.1914 15.8796 38.7305 15.9304C38.4414 15.9617 37.7441 15.9812 36.6387 15.989H33.7148V7.39917ZM35.4492 8.82886V10.8152H36.5859C37.2617 10.8152 37.6816 10.8054 37.8457 10.7859C38.1426 10.7507 38.375 10.6492 38.543 10.4812C38.7148 10.3093 38.8008 10.0847 38.8008 9.80737C38.8008 9.54175 38.7266 9.3269 38.5781 9.16284C38.4336 8.99487 38.2168 8.89331 37.9277 8.85815C37.7559 8.83862 37.2617 8.82886 36.4453 8.82886H35.4492ZM35.4492 12.2449V14.5417H37.0547C37.6797 14.5417 38.0762 14.5242 38.2441 14.489C38.502 14.4421 38.7109 14.3289 38.8711 14.1492C39.0352 13.9656 39.1172 13.7214 39.1172 13.4167C39.1172 13.1589 39.0547 12.9402 38.9297 12.7605C38.8047 12.5808 38.623 12.45 38.3848 12.3679C38.1504 12.2859 37.6387 12.2449 36.8496 12.2449H35.4492Z" fill="white"/>
<defs>
<linearGradient id="paint0_linear_67_1948" x1="25.5" y1="1.98901" x2="25.5" y2="21.989" gradientUnits="userSpaceOnUse">
<stop stop-color="#E29700"/>
<stop offset="1" stop-color="#003AFF"/>
</linearGradient>
</defs>
</svg>
