<svg width="48" height="24" viewBox="0 0 48 24" fill="none" xmlns="http://www.w3.org/2000/svg">
<rect x="2" y="1.98901" width="45" height="20" rx="10" fill="url(#paint0_linear_33_1386)"/>
<rect x="2" y="1.98901" width="45" height="20" rx="10" stroke="#C985B6" stroke-width="3" stroke-linejoin="round"/>
<path d="M11.5742 11.6648L10.0801 11.3953C10.248 10.7937 10.5371 10.3484 10.9473 10.0593C11.3574 9.77026 11.9668 9.62573 12.7754 9.62573C13.5098 9.62573 14.0566 9.71362 14.416 9.8894C14.7754 10.0613 15.0273 10.282 15.1719 10.5515C15.3203 10.8171 15.3945 11.3074 15.3945 12.0222L15.377 13.9441C15.377 14.491 15.4023 14.8953 15.4531 15.157C15.5078 15.4148 15.6074 15.6921 15.752 15.989H14.123C14.0801 15.8796 14.0273 15.7175 13.9648 15.5027C13.9375 15.405 13.918 15.3406 13.9062 15.3093C13.625 15.5828 13.3242 15.7878 13.0039 15.9246C12.6836 16.0613 12.3418 16.1296 11.9785 16.1296C11.3379 16.1296 10.832 15.9558 10.4609 15.6082C10.0938 15.2605 9.91016 14.821 9.91016 14.2898C9.91016 13.9382 9.99414 13.6257 10.1621 13.3523C10.3301 13.075 10.5645 12.864 10.8652 12.7195C11.1699 12.571 11.6074 12.4421 12.1777 12.3328C12.9473 12.1882 13.4805 12.0535 13.7773 11.9285V11.7644C13.7773 11.448 13.6992 11.2234 13.543 11.0906C13.3867 10.9539 13.0918 10.8855 12.6582 10.8855C12.3652 10.8855 12.1367 10.9441 11.9727 11.0613C11.8086 11.1746 11.6758 11.3757 11.5742 11.6648ZM13.7773 13.0007C13.5664 13.071 13.2324 13.155 12.7754 13.2527C12.3184 13.3503 12.0195 13.446 11.8789 13.5398C11.6641 13.6921 11.5566 13.8855 11.5566 14.1199C11.5566 14.3503 11.6426 14.5496 11.8145 14.7175C11.9863 14.8855 12.2051 14.9695 12.4707 14.9695C12.7676 14.9695 13.0508 14.8718 13.3203 14.6765C13.5195 14.5281 13.6504 14.3464 13.7129 14.1316C13.7559 13.991 13.7773 13.7234 13.7773 13.3289V13.0007ZM18.2539 11.6648L16.7598 11.3953C16.9277 10.7937 17.2168 10.3484 17.627 10.0593C18.0371 9.77026 18.6465 9.62573 19.4551 9.62573C20.1895 9.62573 20.7363 9.71362 21.0957 9.8894C21.4551 10.0613 21.707 10.282 21.8516 10.5515C22 10.8171 22.0742 11.3074 22.0742 12.0222L22.0566 13.9441C22.0566 14.491 22.082 14.8953 22.1328 15.157C22.1875 15.4148 22.2871 15.6921 22.4316 15.989H20.8027C20.7598 15.8796 20.707 15.7175 20.6445 15.5027C20.6172 15.405 20.5977 15.3406 20.5859 15.3093C20.3047 15.5828 20.0039 15.7878 19.6836 15.9246C19.3633 16.0613 19.0215 16.1296 18.6582 16.1296C18.0176 16.1296 17.5117 15.9558 17.1406 15.6082C16.7734 15.2605 16.5898 14.821 16.5898 14.2898C16.5898 13.9382 16.6738 13.6257 16.8418 13.3523C17.0098 13.075 17.2441 12.864 17.5449 12.7195C17.8496 12.571 18.2871 12.4421 18.8574 12.3328C19.627 12.1882 20.1602 12.0535 20.457 11.9285V11.7644C20.457 11.448 20.3789 11.2234 20.2227 11.0906C20.0664 10.9539 19.7715 10.8855 19.3379 10.8855C19.0449 10.8855 18.8164 10.9441 18.6523 11.0613C18.4883 11.1746 18.3555 11.3757 18.2539 11.6648ZM20.457 13.0007C20.2461 13.071 19.9121 13.155 19.4551 13.2527C18.998 13.3503 18.6992 13.446 18.5586 13.5398C18.3438 13.6921 18.2363 13.8855 18.2363 14.1199C18.2363 14.3503 18.3223 14.5496 18.4941 14.7175C18.666 14.8855 18.8848 14.9695 19.1504 14.9695C19.4473 14.9695 19.7305 14.8718 20 14.6765C20.1992 14.5281 20.3301 14.3464 20.3926 14.1316C20.4355 13.991 20.457 13.7234 20.457 13.3289V13.0007ZM23.7207 15.989V7.39917H27.3711C28.2891 7.39917 28.9551 7.47729 29.3691 7.63354C29.7871 7.78589 30.1211 8.05933 30.3711 8.45386C30.6211 8.84839 30.7461 9.29956 30.7461 9.80737C30.7461 10.4519 30.5566 10.9851 30.1777 11.407C29.7988 11.825 29.2324 12.0886 28.4785 12.198C28.8535 12.4167 29.1621 12.657 29.4043 12.9187C29.6504 13.1804 29.9805 13.6453 30.3945 14.3132L31.4434 15.989H29.3691L28.1152 14.1199C27.6699 13.4519 27.3652 13.032 27.2012 12.8601C27.0371 12.6843 26.8633 12.5652 26.6797 12.5027C26.4961 12.4363 26.2051 12.4031 25.8066 12.4031H25.4551V15.989H23.7207ZM25.4551 11.032H26.7383C27.5703 11.032 28.0898 10.9968 28.2969 10.9265C28.5039 10.8562 28.666 10.7351 28.7832 10.5632C28.9004 10.3914 28.959 10.1765 28.959 9.9187C28.959 9.62964 28.8809 9.39722 28.7246 9.22144C28.5723 9.04175 28.3555 8.92847 28.0742 8.88159C27.9336 8.86206 27.5117 8.85229 26.8086 8.85229H25.4551V11.032ZM31.9473 13.1941L33.6348 13.03C33.7363 13.5964 33.9414 14.0125 34.25 14.2781C34.5625 14.5437 34.9824 14.6765 35.5098 14.6765C36.0684 14.6765 36.4883 14.5593 36.7695 14.325C37.0547 14.0867 37.1973 13.8093 37.1973 13.4929C37.1973 13.2898 37.1367 13.1179 37.0156 12.9773C36.8984 12.8328 36.6914 12.7078 36.3945 12.6023C36.1914 12.532 35.7285 12.407 35.0059 12.2273C34.0762 11.9968 33.4238 11.7136 33.0488 11.3777C32.5215 10.905 32.2578 10.3289 32.2578 9.64917C32.2578 9.21167 32.3809 8.80347 32.627 8.42456C32.877 8.04175 33.2344 7.75073 33.6992 7.55151C34.168 7.35229 34.7324 7.25269 35.3926 7.25269C36.4707 7.25269 37.2812 7.48901 37.8242 7.96167C38.3711 8.43433 38.6582 9.06519 38.6855 9.85425L36.9512 9.93042C36.877 9.48901 36.7168 9.17261 36.4707 8.9812C36.2285 8.78589 35.8633 8.68823 35.375 8.68823C34.8711 8.68823 34.4766 8.79175 34.1914 8.99878C34.0078 9.13159 33.916 9.30933 33.916 9.53198C33.916 9.73511 34.002 9.90894 34.1738 10.0535C34.3926 10.2371 34.9238 10.4285 35.7676 10.6277C36.6113 10.8269 37.2344 11.0339 37.6367 11.2488C38.043 11.4597 38.3594 11.7507 38.5859 12.1218C38.8164 12.489 38.9316 12.9441 38.9316 13.4871C38.9316 13.9792 38.7949 14.4402 38.5215 14.8699C38.248 15.2996 37.8613 15.6199 37.3613 15.8308C36.8613 16.0378 36.2383 16.1414 35.4922 16.1414C34.4062 16.1414 33.5723 15.8914 32.9902 15.3914C32.4082 14.8875 32.0605 14.155 31.9473 13.1941Z" fill="white"/>
<defs>
<linearGradient id="paint0_linear_33_1386" x1="24.5" y1="1.98901" x2="24.5" y2="21.989" gradientUnits="userSpaceOnUse">
<stop stop-color="#C985B6"/>
<stop offset="1" stop-color="#1975FF"/>
</linearGradient>
</defs>
</svg>
