<svg width="93" height="100" viewBox="0 0 93 100" fill="none" xmlns="http://www.w3.org/2000/svg">
<path d="M57.8874 12.4025C57.8874 18.113 53.344 24.4567 52.6152 34.9929C51.5161 50.8848 53.3025 69.0837 46.3872 69.0837C39.4719 69.0837 41.2584 50.8852 40.1592 34.9935C39.4304 24.4571 34.887 18.113 34.887 12.4025C34.887 6.05114 40.0358 0.902344 46.3872 0.902344C52.7386 0.902344 57.8874 6.05114 57.8874 12.4025Z" fill="url(#paint0_radial_89_4261)"/>
<path d="M72.3457 13.9171C72.3457 20.4804 67.045 26.7286 66.3163 37.2648C65.2172 53.1567 67.0036 70.5984 60.0883 70.5984C53.173 70.5984 54.9595 52.3999 53.8603 36.5082C53.1315 25.9718 49.3453 19.6277 49.3453 13.9172C49.3453 7.56579 54.4941 2.41699 60.8455 2.41699C67.1969 2.41699 72.3457 7.56569 72.3457 13.9171Z" fill="url(#paint1_radial_89_4261)"/>
<path d="M20.4286 13.9171C20.4286 20.4804 25.7293 26.7286 26.458 37.2648C27.5571 53.1567 25.7707 70.5984 32.686 70.5984C39.6013 70.5984 37.8148 52.3999 38.914 36.5082C39.6428 25.9718 43.429 19.6277 43.429 13.9172C43.429 7.56579 38.2802 2.41699 31.9288 2.41699C25.5774 2.41699 20.4286 7.56569 20.4286 13.9171Z" fill="url(#paint2_radial_89_4261)"/>
<path d="M82.1899 16.946C82.1899 24.3621 76.132 30.5147 75.4032 41.0509C74.3041 56.9428 76.0905 73.6272 69.1752 73.6272C62.2599 73.6272 64.0464 55.4287 62.9472 39.537C62.2184 29.0006 59.1895 22.6565 59.1895 16.946C59.1895 10.5946 64.3383 5.4458 70.6897 5.4458C77.0411 5.4458 82.1899 10.5946 82.1899 16.946Z" fill="url(#paint3_radial_89_4261)"/>
<path d="M10.5844 16.946C10.5844 24.3621 16.6423 30.5147 17.3711 41.0509C18.4702 56.9428 16.6838 73.6272 23.5991 73.6272C30.5144 73.6272 28.7278 55.4287 29.827 39.537C30.5558 29.0006 33.5848 22.6565 33.5848 16.946C33.5848 10.5946 28.4359 5.4458 22.0845 5.4458C15.7332 5.4458 10.5844 10.5946 10.5844 16.946Z" fill="url(#paint4_radial_89_4261)"/>
<path d="M89.005 21.4894C89.005 29.7583 82.1898 35.8154 81.4611 46.3516C80.362 62.2435 82.1484 78.1707 75.2331 78.1707C68.3178 78.1707 70.1043 59.9722 69.0051 44.0805C68.2763 33.5441 66.0046 27.2 66.0046 21.4895C66.0046 15.1381 71.1534 9.98926 77.5048 9.98926C83.8562 9.98916 89.005 15.138 89.005 21.4894Z" fill="url(#paint5_radial_89_4261)"/>
<path d="M3.76929 21.4894C3.76929 29.7583 10.5845 35.8154 11.3132 46.3516C12.4123 62.2435 10.6259 78.1707 17.5412 78.1707C24.4565 78.1707 22.67 59.9722 23.7692 44.0805C24.498 33.5441 26.7697 27.2 26.7697 21.4895C26.7697 15.1381 21.6209 9.98926 15.2695 9.98926C8.91809 9.98926 3.76929 15.138 3.76929 21.4894Z" fill="url(#paint6_radial_89_4261)"/>
<path d="M92.034 26.0331C92.034 35.1548 84.4616 41.1163 83.7329 51.6525C82.6338 67.5444 84.4202 82.7144 77.5049 82.7144C70.5896 82.7144 72.3761 64.5159 71.2769 48.6242C70.5481 38.0878 69.0337 31.7437 69.0337 26.0332C69.0337 19.6818 74.1825 14.533 80.5339 14.533C86.8853 14.533 92.034 19.6817 92.034 26.0331Z" fill="url(#paint7_radial_89_4261)"/>
<path d="M0.740234 26.0331C0.740234 35.1548 8.31263 41.1163 9.04133 51.6525C10.1404 67.5444 8.35403 82.7144 15.2693 82.7144C22.1846 82.7144 20.3981 64.5159 21.4973 48.6242C22.2261 38.0878 23.7405 31.7437 23.7405 26.0332C23.7405 19.6818 18.5917 14.533 12.2403 14.533C5.88893 14.533 0.740234 19.6817 0.740234 26.0331Z" fill="url(#paint8_radial_89_4261)"/>
<path d="M89.005 32.0909C89.005 40.3598 82.1898 46.4169 81.4611 56.9531C80.362 72.845 82.1484 88.7722 75.2331 88.7722C68.3178 88.7722 70.1043 70.5737 69.0051 54.682C68.2763 44.1456 66.0046 37.8015 66.0046 32.091C66.0046 25.7396 71.1534 20.5908 77.5048 20.5908C83.8562 20.5907 89.005 25.7395 89.005 32.0909Z" fill="url(#paint9_radial_89_4261)"/>
<path d="M3.76929 32.0909C3.76929 40.3598 10.5845 46.4169 11.3132 56.9531C12.4123 72.845 10.6259 88.7722 17.5412 88.7722C24.4565 88.7722 22.67 70.5737 23.7692 54.682C24.498 44.1456 26.7697 37.8015 26.7697 32.091C26.7697 25.7396 21.6209 20.5908 15.2695 20.5908C8.91809 20.5908 3.76929 25.7395 3.76929 32.0909Z" fill="url(#paint10_radial_89_4261)"/>
<path d="M82.1899 36.6342C82.1899 44.0503 76.132 50.2029 75.4032 60.7391C74.3041 76.631 76.0905 93.3154 69.1752 93.3154C62.2599 93.3154 64.0464 75.1169 62.9472 59.2252C62.2184 48.6888 59.1895 42.3447 59.1895 36.6342C59.1895 30.2828 64.3383 25.134 70.6897 25.134C77.0411 25.134 82.1899 30.2829 82.1899 36.6342Z" fill="url(#paint11_radial_89_4261)"/>
<path d="M10.5844 36.6342C10.5844 44.0503 16.6423 50.2029 17.3711 60.7391C18.4702 76.631 16.6838 93.3154 23.5991 93.3154C30.5144 93.3154 28.7278 75.1169 29.827 59.2252C30.5558 48.6888 33.5848 42.3447 33.5848 36.6342C33.5848 30.2828 28.4359 25.134 22.0845 25.134C15.7332 25.134 10.5844 30.2829 10.5844 36.6342Z" fill="url(#paint12_radial_89_4261)"/>
<path d="M70.8312 39.6632C70.8312 46.2265 65.5305 52.4747 64.8018 63.0109C63.7027 78.9028 65.4891 96.3445 58.5738 96.3445C51.6585 96.3445 53.445 78.146 52.3458 62.2543C51.617 51.7179 47.8308 45.3738 47.8308 39.6633C47.8308 33.3119 52.9796 28.1631 59.331 28.1631C65.6824 28.163 70.8312 33.3118 70.8312 39.6632Z" fill="url(#paint13_radial_89_4261)"/>
<path d="M21.943 39.6632C21.943 46.2265 27.2437 52.4747 27.9724 63.0109C29.0715 78.9028 27.2851 96.3445 34.2004 96.3445C41.1157 96.3445 39.3292 78.146 40.4284 62.2543C41.1572 51.7179 44.9434 45.3738 44.9434 39.6633C44.9434 33.3119 39.7946 28.1631 33.4432 28.1631C27.0918 28.1631 21.943 33.3118 21.943 39.6632Z" fill="url(#paint14_radial_89_4261)"/>
<path d="M57.8874 42.6923C57.8874 48.4028 53.344 54.7465 52.6152 65.2827C51.5161 81.1746 53.3025 99.3735 46.3872 99.3735C39.4719 99.3735 41.2584 81.175 40.1592 65.2833C39.4304 54.7469 34.887 48.4028 34.887 42.6923C34.887 36.3409 40.0358 31.1921 46.3872 31.1921C52.7386 31.1921 57.8874 36.3409 57.8874 42.6923Z" fill="url(#paint15_radial_89_4261)"/>
<defs>
<radialGradient id="paint0_radial_89_4261" cx="0" cy="0" r="1" gradientUnits="userSpaceOnUse" gradientTransform="translate(46.9863 5.11844) rotate(180) scale(66.3237 66.3237)">
<stop stop-color="#52C4D4"/>
<stop offset="0.1431" stop-color="#2D6C75"/>
<stop offset="0.2966" stop-color="#204E54"/>
<stop offset="0.4454" stop-color="#2D6C75"/>
<stop offset="1" stop-color="#1F4D53"/>
</radialGradient>
<radialGradient id="paint1_radial_89_4261" cx="0" cy="0" r="1" gradientUnits="userSpaceOnUse" gradientTransform="translate(61.4446 6.63309) rotate(180) scale(66.3237 66.3237)">
<stop stop-color="#52C4D4"/>
<stop offset="0.1431" stop-color="#2D6C75"/>
<stop offset="0.2966" stop-color="#204E54"/>
<stop offset="0.4454" stop-color="#2D6C75"/>
<stop offset="1" stop-color="#1F4D53"/>
</radialGradient>
<radialGradient id="paint2_radial_89_4261" cx="0" cy="0" r="1" gradientUnits="userSpaceOnUse" gradientTransform="translate(32.5279 6.63309) rotate(180) scale(66.3237 66.3237)">
<stop stop-color="#52C4D4"/>
<stop offset="0.1431" stop-color="#2D6C75"/>
<stop offset="0.2966" stop-color="#204E54"/>
<stop offset="0.4454" stop-color="#2D6C75"/>
<stop offset="1" stop-color="#1F4D53"/>
</radialGradient>
<radialGradient id="paint3_radial_89_4261" cx="0" cy="0" r="1" gradientUnits="userSpaceOnUse" gradientTransform="translate(71.2888 9.6619) rotate(180) scale(66.3237 66.3237)">
<stop stop-color="#52C4D4"/>
<stop offset="0.1431" stop-color="#2D6C75"/>
<stop offset="0.2966" stop-color="#204E54"/>
<stop offset="0.4454" stop-color="#2D6C75"/>
<stop offset="1" stop-color="#1F4D53"/>
</radialGradient>
<radialGradient id="paint4_radial_89_4261" cx="0" cy="0" r="1" gradientUnits="userSpaceOnUse" gradientTransform="translate(22.6837 9.6619) rotate(180) scale(66.3237 66.3237)">
<stop stop-color="#52C4D4"/>
<stop offset="0.1431" stop-color="#2D6C75"/>
<stop offset="0.2966" stop-color="#204E54"/>
<stop offset="0.4454" stop-color="#2D6C75"/>
<stop offset="1" stop-color="#1F4D53"/>
</radialGradient>
<radialGradient id="paint5_radial_89_4261" cx="0" cy="0" r="1" gradientUnits="userSpaceOnUse" gradientTransform="translate(78.1039 14.2054) rotate(180) scale(66.3237 66.3237)">
<stop stop-color="#52C4D4"/>
<stop offset="0.1431" stop-color="#2D6C75"/>
<stop offset="0.2966" stop-color="#204E54"/>
<stop offset="0.4454" stop-color="#2D6C75"/>
<stop offset="1" stop-color="#1F4D53"/>
</radialGradient>
<radialGradient id="paint6_radial_89_4261" cx="0" cy="0" r="1" gradientUnits="userSpaceOnUse" gradientTransform="translate(15.8686 14.2054) rotate(180) scale(66.3237 66.3237)">
<stop stop-color="#52C4D4"/>
<stop offset="0.1431" stop-color="#2D6C75"/>
<stop offset="0.2966" stop-color="#204E54"/>
<stop offset="0.4454" stop-color="#2D6C75"/>
<stop offset="1" stop-color="#1F4D53"/>
</radialGradient>
<radialGradient id="paint7_radial_89_4261" cx="0" cy="0" r="1" gradientUnits="userSpaceOnUse" gradientTransform="translate(81.1329 18.7491) rotate(180) scale(66.3234 66.3237)">
<stop stop-color="#52C4D4"/>
<stop offset="0.1431" stop-color="#2D6C75"/>
<stop offset="0.2966" stop-color="#204E54"/>
<stop offset="0.4454" stop-color="#2D6C75"/>
<stop offset="1" stop-color="#1F4D53"/>
</radialGradient>
<radialGradient id="paint8_radial_89_4261" cx="0" cy="0" r="1" gradientUnits="userSpaceOnUse" gradientTransform="translate(12.8395 18.7491) rotate(180) scale(66.3234 66.3237)">
<stop stop-color="#52C4D4"/>
<stop offset="0.1431" stop-color="#2D6C75"/>
<stop offset="0.2966" stop-color="#204E54"/>
<stop offset="0.4454" stop-color="#2D6C75"/>
<stop offset="1" stop-color="#1F4D53"/>
</radialGradient>
<radialGradient id="paint9_radial_89_4261" cx="0" cy="0" r="1" gradientUnits="userSpaceOnUse" gradientTransform="translate(78.1039 24.8069) rotate(180) scale(66.3237 66.3237)">
<stop stop-color="#52C4D4"/>
<stop offset="0.1431" stop-color="#2D6C75"/>
<stop offset="0.2966" stop-color="#204E54"/>
<stop offset="0.4454" stop-color="#2D6C75"/>
<stop offset="1" stop-color="#1F4D53"/>
</radialGradient>
<radialGradient id="paint10_radial_89_4261" cx="0" cy="0" r="1" gradientUnits="userSpaceOnUse" gradientTransform="translate(15.8686 24.8069) rotate(180) scale(66.3237 66.3237)">
<stop stop-color="#52C4D4"/>
<stop offset="0.1431" stop-color="#2D6C75"/>
<stop offset="0.2966" stop-color="#204E54"/>
<stop offset="0.4454" stop-color="#2D6C75"/>
<stop offset="1" stop-color="#1F4D53"/>
</radialGradient>
<radialGradient id="paint11_radial_89_4261" cx="0" cy="0" r="1" gradientUnits="userSpaceOnUse" gradientTransform="translate(71.2888 29.3501) rotate(180) scale(66.3237 66.3237)">
<stop stop-color="#52C4D4"/>
<stop offset="0.1431" stop-color="#2D6C75"/>
<stop offset="0.2966" stop-color="#204E54"/>
<stop offset="0.4454" stop-color="#2D6C75"/>
<stop offset="1" stop-color="#1F4D53"/>
</radialGradient>
<radialGradient id="paint12_radial_89_4261" cx="0" cy="0" r="1" gradientUnits="userSpaceOnUse" gradientTransform="translate(22.6837 29.3501) rotate(180) scale(66.3237 66.3237)">
<stop stop-color="#52C4D4"/>
<stop offset="0.1431" stop-color="#2D6C75"/>
<stop offset="0.2966" stop-color="#204E54"/>
<stop offset="0.4454" stop-color="#2D6C75"/>
<stop offset="1" stop-color="#1F4D53"/>
</radialGradient>
<radialGradient id="paint13_radial_89_4261" cx="0" cy="0" r="1" gradientUnits="userSpaceOnUse" gradientTransform="translate(59.9301 32.3792) rotate(180) scale(66.3237 66.3237)">
<stop stop-color="#52C4D4"/>
<stop offset="0.1431" stop-color="#2D6C75"/>
<stop offset="0.2966" stop-color="#204E54"/>
<stop offset="0.4454" stop-color="#2D6C75"/>
<stop offset="1" stop-color="#1F4D53"/>
</radialGradient>
<radialGradient id="paint14_radial_89_4261" cx="0" cy="0" r="1" gradientUnits="userSpaceOnUse" gradientTransform="translate(34.0423 32.3792) rotate(180) scale(66.3237 66.3237)">
<stop stop-color="#52C4D4"/>
<stop offset="0.1431" stop-color="#2D6C75"/>
<stop offset="0.2966" stop-color="#204E54"/>
<stop offset="0.4454" stop-color="#2D6C75"/>
<stop offset="1" stop-color="#1F4D53"/>
</radialGradient>
<radialGradient id="paint15_radial_89_4261" cx="0" cy="0" r="1" gradientUnits="userSpaceOnUse" gradientTransform="translate(46.9863 35.4082) rotate(180) scale(66.3237 66.3237)">
<stop stop-color="#52C4D4"/>
<stop offset="0.1431" stop-color="#2D6C75"/>
<stop offset="0.2966" stop-color="#204E54"/>
<stop offset="0.4454" stop-color="#2D6C75"/>
<stop offset="1" stop-color="#1F4D53"/>
</radialGradient>
</defs>
</svg>
