<svg width="54" height="47" viewBox="0 0 54 47" fill="none" xmlns="http://www.w3.org/2000/svg">
<path d="M26.7506 46.4999C41.483 46.4999 53.426 36.2103 53.426 23.5174C53.426 10.8245 41.483 0.534912 26.7506 0.534912C12.0182 0.534912 0.0751953 10.8245 0.0751953 23.5174C0.0751953 36.2103 12.0182 46.4999 26.7506 46.4999Z" fill="url(#paint0_radial_97_5842)"/>
<path d="M13.9541 27.5349V18.9451H15.6885V22.3259H19.0869V18.9451H20.8213V27.5349H19.0869V23.7791H15.6885V27.5349H13.9541ZM22.2686 23.2927C22.2686 22.4177 22.3994 21.6833 22.6611 21.0896C22.8564 20.6521 23.1221 20.2595 23.458 19.9119C23.7979 19.5642 24.1689 19.3064 24.5713 19.1384C25.1064 18.9119 25.7236 18.7986 26.4229 18.7986C27.6885 18.7986 28.7002 19.1912 29.458 19.9763C30.2197 20.7615 30.6006 21.8533 30.6006 23.2517C30.6006 24.6384 30.2236 25.7244 29.4697 26.5095C28.7158 27.2908 27.708 27.6814 26.4463 27.6814C25.1689 27.6814 24.1533 27.2927 23.3994 26.5154C22.6455 25.7341 22.2686 24.6599 22.2686 23.2927ZM24.0557 23.2341C24.0557 24.2068 24.2803 24.9451 24.7295 25.449C25.1787 25.949 25.749 26.199 26.4404 26.199C27.1318 26.199 27.6982 25.9509 28.1396 25.4548C28.585 24.9548 28.8076 24.2068 28.8076 23.2107C28.8076 22.2263 28.5908 21.4919 28.1572 21.0076C27.7275 20.5232 27.1553 20.281 26.4404 20.281C25.7256 20.281 25.1494 20.5271 24.7119 21.0193C24.2744 21.5076 24.0557 22.2458 24.0557 23.2341ZM31.0869 27.5349L34.0225 23.0525L31.3623 18.9451H33.3896L35.1123 21.7048L36.7998 18.9451H38.8096L36.1377 23.1169L39.0732 27.5349H36.9814L35.0771 24.5642L33.167 27.5349H31.0869Z" fill="white"/>
<defs>
<radialGradient id="paint0_radial_97_5842" cx="0" cy="0" r="1" gradientUnits="userSpaceOnUse" gradientTransform="translate(22.5034 15.2113) scale(33.8731 31.0887)">
<stop stop-color="#F27287"/>
<stop offset="0.6051" stop-color="#F22D4D"/>
<stop offset="0.6279" stop-color="#F22A4B"/>
<stop offset="0.7006" stop-color="#EE294A"/>
<stop offset="0.7673" stop-color="#E32746"/>
<stop offset="0.8317" stop-color="#D12441"/>
<stop offset="0.8946" stop-color="#B62038"/>
<stop offset="0.9558" stop-color="#951A2E"/>
<stop offset="1" stop-color="#781525"/>
</radialGradient>
</defs>
</svg>
