<svg width="51" height="24" viewBox="0 0 51 24" fill="none" xmlns="http://www.w3.org/2000/svg">
<rect x="2" y="1.98901" width="48" height="20" rx="10" fill="url(#paint0_linear_64_1856)"/>
<rect x="2" y="1.98901" width="48" height="20" rx="10" stroke="#856424" stroke-width="3" stroke-linejoin="round"/>
<path d="M10.2148 15.989V7.39917H11.9023L15.418 13.1355V7.39917H17.0293V15.989H15.2891L11.8262 10.3875V15.989H10.2148ZM18.8691 15.989V7.39917H21.6523C22.707 7.39917 23.3945 7.44214 23.7148 7.52808C24.207 7.65698 24.6191 7.93823 24.9512 8.37183C25.2832 8.80151 25.4492 9.35815 25.4492 10.0417C25.4492 10.5691 25.3535 11.0125 25.1621 11.3718C24.9707 11.7312 24.7266 12.0144 24.4297 12.2214C24.1367 12.4246 23.8379 12.5593 23.5332 12.6257C23.1191 12.7078 22.5195 12.7488 21.7344 12.7488H20.6035V15.989H18.8691ZM20.6035 8.85229V11.2898H21.5527C22.2363 11.2898 22.6934 11.2449 22.9238 11.155C23.1543 11.0652 23.334 10.9246 23.4629 10.7332C23.5957 10.5417 23.6621 10.3191 23.6621 10.0652C23.6621 9.75269 23.5703 9.49487 23.3867 9.29175C23.2031 9.08862 22.9707 8.96167 22.6895 8.91089C22.4824 8.87183 22.0664 8.85229 21.4414 8.85229H20.6035ZM26.8496 15.989V7.39917H29.4453L31.0039 13.2585L32.5449 7.39917H35.1465V15.989H33.5352V9.22729L31.8301 15.989H30.1602L28.4609 9.22729V15.989H26.8496ZM42.0664 14.4597V15.989H36.2949C36.3574 15.4109 36.5449 14.864 36.8574 14.3484C37.1699 13.8289 37.7871 13.1414 38.709 12.2859C39.4512 11.5945 39.9062 11.1257 40.0742 10.8796C40.3008 10.5398 40.4141 10.2039 40.4141 9.87183C40.4141 9.50464 40.3145 9.22339 40.1152 9.02808C39.9199 8.82886 39.6484 8.72925 39.3008 8.72925C38.957 8.72925 38.6836 8.83276 38.4805 9.03979C38.2773 9.24683 38.1602 9.59058 38.1289 10.071L36.4883 9.90698C36.5859 9.00073 36.8926 8.35034 37.4082 7.95581C37.9238 7.56128 38.5684 7.36401 39.3418 7.36401C40.1895 7.36401 40.8555 7.59253 41.3398 8.04956C41.8242 8.50659 42.0664 9.07495 42.0664 9.75464C42.0664 10.1414 41.9961 10.5105 41.8555 10.8621C41.7188 11.2097 41.5 11.575 41.1992 11.9578C41 12.2117 40.6406 12.5769 40.1211 13.0535C39.6016 13.53 39.2715 13.8464 39.1309 14.0027C38.9941 14.1589 38.8828 14.3113 38.7969 14.4597H42.0664Z" fill="white"/>
<defs>
<linearGradient id="paint0_linear_64_1856" x1="26" y1="1.98901" x2="26" y2="21.989" gradientUnits="userSpaceOnUse">
<stop stop-color="#C0B773"/>
<stop offset="1" stop-color="#856424"/>
</linearGradient>
</defs>
</svg>
