<svg width="69" height="24" viewBox="0 0 69 24" fill="none" xmlns="http://www.w3.org/2000/svg">
<rect x="1" y="1.98901" width="67" height="20" rx="10" fill="url(#paint0_linear_36_1568)"/>
<rect x="1" y="1.98901" width="67" height="20" rx="10" stroke="#009B21" stroke-width="3" stroke-linejoin="round"/>
<path d="M9.36328 7.39917H12.7969C13.4766 7.39917 13.9824 7.42847 14.3145 7.48706C14.6504 7.54175 14.9492 7.65894 15.2109 7.83862C15.4766 8.01831 15.6973 8.25854 15.873 8.55933C16.0488 8.8562 16.1367 9.19019 16.1367 9.56128C16.1367 9.96362 16.0273 10.3328 15.8086 10.6687C15.5938 11.0046 15.3008 11.2566 14.9297 11.4246C15.4531 11.5769 15.8555 11.8367 16.1367 12.2039C16.418 12.571 16.5586 13.0027 16.5586 13.4988C16.5586 13.8894 16.4668 14.2703 16.2832 14.6414C16.1035 15.0085 15.8555 15.3035 15.5391 15.5261C15.2266 15.7449 14.8398 15.8796 14.3789 15.9304C14.0898 15.9617 13.3926 15.9812 12.2871 15.989H9.36328V7.39917ZM11.0977 8.82886V10.8152H12.2344C12.9102 10.8152 13.3301 10.8054 13.4941 10.7859C13.791 10.7507 14.0234 10.6492 14.1914 10.4812C14.3633 10.3093 14.4492 10.0847 14.4492 9.80737C14.4492 9.54175 14.375 9.3269 14.2266 9.16284C14.082 8.99487 13.8652 8.89331 13.5762 8.85815C13.4043 8.83862 12.9102 8.82886 12.0938 8.82886H11.0977ZM11.0977 12.2449V14.5417H12.7031C13.3281 14.5417 13.7246 14.5242 13.8926 14.489C14.1504 14.4421 14.3594 14.3289 14.5195 14.1492C14.6836 13.9656 14.7656 13.7214 14.7656 13.4167C14.7656 13.1589 14.7031 12.9402 14.5781 12.7605C14.4531 12.5808 14.2715 12.45 14.0332 12.3679C13.7988 12.2859 13.2871 12.2449 12.498 12.2449H11.0977ZM23.5254 12.8308L25.207 13.364C24.9492 14.3015 24.5195 14.9988 23.918 15.4558C23.3203 15.9089 22.5605 16.1355 21.6387 16.1355C20.498 16.1355 19.5605 15.7468 18.8262 14.9695C18.0918 14.1882 17.7246 13.1218 17.7246 11.7703C17.7246 10.3406 18.0938 9.2312 18.832 8.44214C19.5703 7.64917 20.541 7.25269 21.7441 7.25269C22.7949 7.25269 23.6484 7.56323 24.3047 8.18433C24.6953 8.55151 24.9883 9.07886 25.1836 9.76636L23.4668 10.1765C23.3652 9.7312 23.1523 9.37964 22.8281 9.12183C22.5078 8.86401 22.1172 8.73511 21.6562 8.73511C21.0195 8.73511 20.502 8.96362 20.1035 9.42065C19.709 9.87769 19.5117 10.6179 19.5117 11.6414C19.5117 12.7273 19.707 13.5007 20.0977 13.9617C20.4883 14.4226 20.9961 14.6531 21.6211 14.6531C22.082 14.6531 22.4785 14.5066 22.8105 14.2136C23.1426 13.9207 23.3809 13.4597 23.5254 12.8308ZM26.7246 15.989V7.39917H28.459V11.2136L31.9629 7.39917H34.2949L31.0605 10.7449L34.4707 15.989H32.2266L29.8652 11.9578L28.459 13.3933V15.989H26.7246ZM35.3672 7.39917H38.5371C39.252 7.39917 39.7969 7.45386 40.1719 7.56323C40.6758 7.71167 41.1074 7.97534 41.4668 8.35425C41.8262 8.73315 42.0996 9.198 42.2871 9.74878C42.4746 10.2957 42.5684 10.9714 42.5684 11.7761C42.5684 12.4832 42.4805 13.0925 42.3047 13.6042C42.0898 14.2292 41.7832 14.7351 41.3848 15.1218C41.084 15.4148 40.6777 15.6433 40.166 15.8074C39.7832 15.9285 39.2715 15.989 38.6309 15.989H35.3672V7.39917ZM37.1016 8.85229V14.5417H38.3965C38.8809 14.5417 39.2305 14.5144 39.4453 14.4597C39.7266 14.3894 39.959 14.2703 40.1426 14.1023C40.3301 13.9343 40.4824 13.6589 40.5996 13.2761C40.7168 12.8894 40.7754 12.364 40.7754 11.7C40.7754 11.0359 40.7168 10.5261 40.5996 10.1707C40.4824 9.81519 40.3184 9.53784 40.1074 9.33862C39.8965 9.1394 39.6289 9.00464 39.3047 8.93433C39.0625 8.87964 38.5879 8.85229 37.8809 8.85229H37.1016ZM44.0508 15.989V7.39917H45.7852V10.78H49.1836V7.39917H50.918V15.989H49.1836V12.2332H45.7852V15.989H44.0508ZM52.7227 7.39917H56.1562C56.8359 7.39917 57.3418 7.42847 57.6738 7.48706C58.0098 7.54175 58.3086 7.65894 58.5703 7.83862C58.8359 8.01831 59.0566 8.25854 59.2324 8.55933C59.4082 8.8562 59.4961 9.19019 59.4961 9.56128C59.4961 9.96362 59.3867 10.3328 59.168 10.6687C58.9531 11.0046 58.6602 11.2566 58.2891 11.4246C58.8125 11.5769 59.2148 11.8367 59.4961 12.2039C59.7773 12.571 59.918 13.0027 59.918 13.4988C59.918 13.8894 59.8262 14.2703 59.6426 14.6414C59.4629 15.0085 59.2148 15.3035 58.8984 15.5261C58.5859 15.7449 58.1992 15.8796 57.7383 15.9304C57.4492 15.9617 56.752 15.9812 55.6465 15.989H52.7227V7.39917ZM54.457 8.82886V10.8152H55.5938C56.2695 10.8152 56.6895 10.8054 56.8535 10.7859C57.1504 10.7507 57.3828 10.6492 57.5508 10.4812C57.7227 10.3093 57.8086 10.0847 57.8086 9.80737C57.8086 9.54175 57.7344 9.3269 57.5859 9.16284C57.4414 8.99487 57.2246 8.89331 56.9355 8.85815C56.7637 8.83862 56.2695 8.82886 55.4531 8.82886H54.457ZM54.457 12.2449V14.5417H56.0625C56.6875 14.5417 57.084 14.5242 57.252 14.489C57.5098 14.4421 57.7188 14.3289 57.8789 14.1492C58.043 13.9656 58.125 13.7214 58.125 13.4167C58.125 13.1589 58.0625 12.9402 57.9375 12.7605C57.8125 12.5808 57.6309 12.45 57.3926 12.3679C57.1582 12.2859 56.6465 12.2449 55.8574 12.2449H54.457Z" fill="white"/>
<defs>
<linearGradient id="paint0_linear_36_1568" x1="34.5" y1="1.98901" x2="34.5" y2="21.989" gradientUnits="userSpaceOnUse">
<stop stop-color="#7DE65E"/>
<stop offset="1" stop-color="#009B21"/>
</linearGradient>
</defs>
</svg>
