<svg width="58" height="24" viewBox="0 0 58 24" fill="none" xmlns="http://www.w3.org/2000/svg">
<rect x="2" y="1.98901" width="55" height="20" rx="10" fill="url(#paint0_linear_64_1842)"/>
<rect x="2" y="1.98901" width="55" height="20" rx="10" stroke="#64A54F" stroke-width="3" stroke-linejoin="round"/>
<path d="M10.334 15.989V7.39917H12.9297L14.4883 13.2585L16.0293 7.39917H18.6309V15.989H17.0195V9.22729L15.3145 15.989H13.6445L11.9453 9.22729V15.989H10.334ZM22.6094 15.989V12.3738L19.4629 7.39917H21.4961L23.5176 10.7976L25.498 7.39917H27.4961L24.3379 12.3855V15.989H22.6094ZM28.3516 7.39917H31.5215C32.2363 7.39917 32.7812 7.45386 33.1562 7.56323C33.6602 7.71167 34.0918 7.97534 34.4512 8.35425C34.8105 8.73315 35.084 9.198 35.2715 9.74878C35.459 10.2957 35.5527 10.9714 35.5527 11.7761C35.5527 12.4832 35.4648 13.0925 35.2891 13.6042C35.0742 14.2292 34.7676 14.7351 34.3691 15.1218C34.0684 15.4148 33.6621 15.6433 33.1504 15.8074C32.7676 15.9285 32.2559 15.989 31.6152 15.989H28.3516V7.39917ZM30.0859 8.85229V14.5417H31.3809C31.8652 14.5417 32.2148 14.5144 32.4297 14.4597C32.7109 14.3894 32.9434 14.2703 33.127 14.1023C33.3145 13.9343 33.4668 13.6589 33.584 13.2761C33.7012 12.8894 33.7598 12.364 33.7598 11.7C33.7598 11.0359 33.7012 10.5261 33.584 10.1707C33.4668 9.81519 33.3027 9.53784 33.0918 9.33862C32.8809 9.1394 32.6133 9.00464 32.2891 8.93433C32.0469 8.87964 31.5723 8.85229 30.8652 8.85229H30.0859ZM38.0781 11.3542C37.6523 11.1746 37.3418 10.9285 37.1465 10.616C36.9551 10.2996 36.8594 9.95386 36.8594 9.57886C36.8594 8.93823 37.082 8.40894 37.5273 7.99097C37.9766 7.573 38.6133 7.36401 39.4375 7.36401C40.2539 7.36401 40.8867 7.573 41.3359 7.99097C41.7891 8.40894 42.0156 8.93823 42.0156 9.57886C42.0156 9.97729 41.9121 10.3328 41.7051 10.6453C41.498 10.9539 41.207 11.1902 40.832 11.3542C41.3086 11.5457 41.6699 11.825 41.916 12.1921C42.166 12.5593 42.291 12.9832 42.291 13.4636C42.291 14.2566 42.0371 14.9011 41.5293 15.3972C41.0254 15.8933 40.3535 16.1414 39.5137 16.1414C38.7324 16.1414 38.082 15.9363 37.5625 15.5261C36.9492 15.0417 36.6426 14.3777 36.6426 13.5339C36.6426 13.0691 36.7578 12.6433 36.9883 12.2566C37.2188 11.866 37.582 11.5652 38.0781 11.3542ZM38.418 9.69604C38.418 10.0242 38.5098 10.28 38.6934 10.4636C38.8809 10.6472 39.1289 10.739 39.4375 10.739C39.75 10.739 40 10.6472 40.1875 10.4636C40.375 10.2761 40.4688 10.0183 40.4688 9.69019C40.4688 9.38159 40.375 9.1355 40.1875 8.9519C40.0039 8.7644 39.7598 8.67065 39.4551 8.67065C39.1387 8.67065 38.8867 8.7644 38.6992 8.9519C38.5117 9.1394 38.418 9.38745 38.418 9.69604ZM38.2656 13.3757C38.2656 13.8289 38.3809 14.1824 38.6113 14.4363C38.8457 14.6902 39.1367 14.8171 39.4844 14.8171C39.8242 14.8171 40.1055 14.696 40.3281 14.4539C40.5508 14.2078 40.6621 13.8542 40.6621 13.3933C40.6621 12.991 40.5488 12.6687 40.3223 12.4265C40.0957 12.1804 39.8086 12.0574 39.4609 12.0574C39.0586 12.0574 38.7578 12.196 38.5586 12.4734C38.3633 12.7507 38.2656 13.0515 38.2656 13.3757ZM44.7578 11.3542C44.332 11.1746 44.0215 10.9285 43.8262 10.616C43.6348 10.2996 43.5391 9.95386 43.5391 9.57886C43.5391 8.93823 43.7617 8.40894 44.207 7.99097C44.6562 7.573 45.293 7.36401 46.1172 7.36401C46.9336 7.36401 47.5664 7.573 48.0156 7.99097C48.4688 8.40894 48.6953 8.93823 48.6953 9.57886C48.6953 9.97729 48.5918 10.3328 48.3848 10.6453C48.1777 10.9539 47.8867 11.1902 47.5117 11.3542C47.9883 11.5457 48.3496 11.825 48.5957 12.1921C48.8457 12.5593 48.9707 12.9832 48.9707 13.4636C48.9707 14.2566 48.7168 14.9011 48.209 15.3972C47.7051 15.8933 47.0332 16.1414 46.1934 16.1414C45.4121 16.1414 44.7617 15.9363 44.2422 15.5261C43.6289 15.0417 43.3223 14.3777 43.3223 13.5339C43.3223 13.0691 43.4375 12.6433 43.668 12.2566C43.8984 11.866 44.2617 11.5652 44.7578 11.3542ZM45.0977 9.69604C45.0977 10.0242 45.1895 10.28 45.373 10.4636C45.5605 10.6472 45.8086 10.739 46.1172 10.739C46.4297 10.739 46.6797 10.6472 46.8672 10.4636C47.0547 10.2761 47.1484 10.0183 47.1484 9.69019C47.1484 9.38159 47.0547 9.1355 46.8672 8.9519C46.6836 8.7644 46.4395 8.67065 46.1348 8.67065C45.8184 8.67065 45.5664 8.7644 45.3789 8.9519C45.1914 9.1394 45.0977 9.38745 45.0977 9.69604ZM44.9453 13.3757C44.9453 13.8289 45.0605 14.1824 45.291 14.4363C45.5254 14.6902 45.8164 14.8171 46.1641 14.8171C46.5039 14.8171 46.7852 14.696 47.0078 14.4539C47.2305 14.2078 47.3418 13.8542 47.3418 13.3933C47.3418 12.991 47.2285 12.6687 47.002 12.4265C46.7754 12.1804 46.4883 12.0574 46.1406 12.0574C45.7383 12.0574 45.4375 12.196 45.2383 12.4734C45.043 12.7507 44.9453 13.0515 44.9453 13.3757Z" fill="white"/>
<defs>
<linearGradient id="paint0_linear_64_1842" x1="29.5" y1="1.98901" x2="29.5" y2="21.989" gradientUnits="userSpaceOnUse">
<stop stop-color="#64A54F"/>
<stop offset="1" stop-color="#3F1741"/>
</linearGradient>
</defs>
</svg>
