<svg width="58" height="24" viewBox="0 0 58 24" fill="none" xmlns="http://www.w3.org/2000/svg">
<rect x="2" y="1.98901" width="55" height="20" rx="10" fill="url(#paint0_linear_64_1826)"/>
<rect x="2" y="1.98901" width="55" height="20" rx="10" stroke="#00A181" stroke-width="3" stroke-linejoin="round"/>
<path d="M10.041 15.989V7.39917H11.7285L15.2441 13.1355V7.39917H16.8555V15.989H15.1152L11.6523 10.3875V15.989H10.041ZM18.6953 15.989V7.39917H25.0645V8.85229H20.4297V10.7566H24.7422V12.2039H20.4297V14.5417H25.2285V15.989H18.6953ZM26.6934 7.39917H29.8633C30.5781 7.39917 31.123 7.45386 31.498 7.56323C32.002 7.71167 32.4336 7.97534 32.793 8.35425C33.1523 8.73315 33.4258 9.198 33.6133 9.74878C33.8008 10.2957 33.8945 10.9714 33.8945 11.7761C33.8945 12.4832 33.8066 13.0925 33.6309 13.6042C33.416 14.2292 33.1094 14.7351 32.7109 15.1218C32.4102 15.4148 32.0039 15.6433 31.4922 15.8074C31.1094 15.9285 30.5977 15.989 29.957 15.989H26.6934V7.39917ZM28.4277 8.85229V14.5417H29.7227C30.207 14.5417 30.5566 14.5144 30.7715 14.4597C31.0527 14.3894 31.2852 14.2703 31.4688 14.1023C31.6562 13.9343 31.8086 13.6589 31.9258 13.2761C32.043 12.8894 32.1016 12.364 32.1016 11.7C32.1016 11.0359 32.043 10.5261 31.9258 10.1707C31.8086 9.81519 31.6445 9.53784 31.4336 9.33862C31.2227 9.1394 30.9551 9.00464 30.6309 8.93433C30.3887 8.87964 29.9141 8.85229 29.207 8.85229H28.4277ZM35.3652 7.39917H38.5352C39.25 7.39917 39.7949 7.45386 40.1699 7.56323C40.6738 7.71167 41.1055 7.97534 41.4648 8.35425C41.8242 8.73315 42.0977 9.198 42.2852 9.74878C42.4727 10.2957 42.5664 10.9714 42.5664 11.7761C42.5664 12.4832 42.4785 13.0925 42.3027 13.6042C42.0879 14.2292 41.7812 14.7351 41.3828 15.1218C41.082 15.4148 40.6758 15.6433 40.1641 15.8074C39.7812 15.9285 39.2695 15.989 38.6289 15.989H35.3652V7.39917ZM37.0996 8.85229V14.5417H38.3945C38.8789 14.5417 39.2285 14.5144 39.4434 14.4597C39.7246 14.3894 39.957 14.2703 40.1406 14.1023C40.3281 13.9343 40.4805 13.6589 40.5977 13.2761C40.7148 12.8894 40.7734 12.364 40.7734 11.7C40.7734 11.0359 40.7148 10.5261 40.5977 10.1707C40.4805 9.81519 40.3164 9.53784 40.1055 9.33862C39.8945 9.1394 39.627 9.00464 39.3027 8.93433C39.0605 8.87964 38.5859 8.85229 37.8789 8.85229H37.0996ZM45.0918 11.3542C44.666 11.1746 44.3555 10.9285 44.1602 10.616C43.9688 10.2996 43.873 9.95386 43.873 9.57886C43.873 8.93823 44.0957 8.40894 44.541 7.99097C44.9902 7.573 45.627 7.36401 46.4512 7.36401C47.2676 7.36401 47.9004 7.573 48.3496 7.99097C48.8027 8.40894 49.0293 8.93823 49.0293 9.57886C49.0293 9.97729 48.9258 10.3328 48.7188 10.6453C48.5117 10.9539 48.2207 11.1902 47.8457 11.3542C48.3223 11.5457 48.6836 11.825 48.9297 12.1921C49.1797 12.5593 49.3047 12.9832 49.3047 13.4636C49.3047 14.2566 49.0508 14.9011 48.543 15.3972C48.0391 15.8933 47.3672 16.1414 46.5273 16.1414C45.7461 16.1414 45.0957 15.9363 44.5762 15.5261C43.9629 15.0417 43.6562 14.3777 43.6562 13.5339C43.6562 13.0691 43.7715 12.6433 44.002 12.2566C44.2324 11.866 44.5957 11.5652 45.0918 11.3542ZM45.4316 9.69604C45.4316 10.0242 45.5234 10.28 45.707 10.4636C45.8945 10.6472 46.1426 10.739 46.4512 10.739C46.7637 10.739 47.0137 10.6472 47.2012 10.4636C47.3887 10.2761 47.4824 10.0183 47.4824 9.69019C47.4824 9.38159 47.3887 9.1355 47.2012 8.9519C47.0176 8.7644 46.7734 8.67065 46.4688 8.67065C46.1523 8.67065 45.9004 8.7644 45.7129 8.9519C45.5254 9.1394 45.4316 9.38745 45.4316 9.69604ZM45.2793 13.3757C45.2793 13.8289 45.3945 14.1824 45.625 14.4363C45.8594 14.6902 46.1504 14.8171 46.498 14.8171C46.8379 14.8171 47.1191 14.696 47.3418 14.4539C47.5645 14.2078 47.6758 13.8542 47.6758 13.3933C47.6758 12.991 47.5625 12.6687 47.3359 12.4265C47.1094 12.1804 46.8223 12.0574 46.4746 12.0574C46.0723 12.0574 45.7715 12.196 45.5723 12.4734C45.377 12.7507 45.2793 13.0515 45.2793 13.3757Z" fill="white"/>
<defs>
<linearGradient id="paint0_linear_64_1826" x1="29.5" y1="1.98901" x2="29.5" y2="21.989" gradientUnits="userSpaceOnUse">
<stop stop-color="#00A181"/>
<stop offset="1" stop-color="#A6FF85"/>
</linearGradient>
</defs>
</svg>
