<svg width="55" height="57" viewBox="0 0 55 57" fill="none" xmlns="http://www.w3.org/2000/svg">
<path d="M27.3974 52.0533C26.6356 52.3416 25.7795 52.4981 24.9319 52.4981C22.4266 52.4981 19.8475 51.1312 19.8475 47.0347" stroke="#E56060" stroke-miterlimit="10" stroke-linecap="round" stroke-linejoin="round"/>
<path d="M0.76416 54.4961C3.26946 54.4961 5.84856 53.1292 5.84856 49.0327" stroke="#E56060" stroke-miterlimit="10" stroke-linecap="round" stroke-linejoin="round"/>
<path d="M17.8486 49.0327C17.8486 51.463 11.8486 51.4916 11.8486 49.0327" stroke="#E56060" stroke-miterlimit="10" stroke-linecap="round" stroke-linejoin="round"/>
<path d="M13.8486 47.0347C13.8486 49.465 7.84857 49.4936 7.84857 47.0347" stroke="#E56060" stroke-miterlimit="10" stroke-linecap="round" stroke-linejoin="round"/>
<path d="M7.84857 47.0327C7.01997 47.0327 6.34857 46.3608 6.34857 45.5327V3.53174C6.34857 2.70364 7.01997 2.03174 7.84857 2.03174C8.67717 2.03174 9.34857 2.70364 9.34857 3.53174V45.5327C9.34857 46.3608 8.67717 47.0327 7.84857 47.0327Z" fill="url(#paint0_linear_91_5189)"/>
<path d="M13.8486 47.0327C13.02 47.0327 12.3486 46.3608 12.3486 45.5327V3.53174C12.3486 2.70364 13.02 2.03174 13.8486 2.03174C14.6772 2.03174 15.3486 2.70364 15.3486 3.53174V45.5327C15.3486 46.3608 14.6772 47.0327 13.8486 47.0327Z" fill="url(#paint1_linear_91_5189)"/>
<path d="M19.8486 47.0327C19.02 47.0327 18.3486 46.3608 18.3486 45.5327V3.53174C18.3486 2.70364 19.02 2.03174 19.8486 2.03174C20.6772 2.03174 21.3486 2.70364 21.3486 3.53174V45.5327C21.3486 46.3608 20.6772 47.0327 19.8486 47.0327Z" fill="url(#paint2_linear_91_5189)"/>
<g opacity="0.5">
<path d="M8.34747 6.53449V46.9445C8.18747 47.0045 8.02747 47.0345 7.84747 47.0345C7.66747 47.0345 7.50747 47.0045 7.34747 46.9445V5.53449C7.34747 5.38449 7.32747 5.24449 7.27747 5.10449C7.89757 5.28449 8.34747 5.85449 8.34747 6.53449Z" fill="url(#paint3_linear_91_5189)"/>
<path d="M14.3475 6.53449V46.9445C14.1875 47.0045 14.0275 47.0345 13.8475 47.0345C13.6675 47.0345 13.5075 47.0045 13.3475 46.9445V5.53449C13.3475 5.38449 13.3275 5.24449 13.2775 5.10449C13.8976 5.28449 14.3475 5.85449 14.3475 6.53449Z" fill="url(#paint4_linear_91_5189)"/>
<path d="M20.3475 6.53449V46.9445C20.1875 47.0045 20.0275 47.0345 19.8475 47.0345C19.6675 47.0345 19.5075 47.0045 19.3475 46.9445V5.53449C19.3475 5.38449 19.3275 5.24449 19.2775 5.10449C19.8976 5.28449 20.3475 5.85449 20.3475 6.53449Z" fill="url(#paint5_linear_91_5189)"/>
</g>
<path d="M5.84857 49.0327C5.01997 49.0327 4.34857 48.3608 4.34857 47.5327V5.53174C4.34857 4.70364 5.01997 4.03174 5.84857 4.03174C6.67717 4.03174 7.34857 4.70364 7.34857 5.53174V47.5327C7.34857 48.3608 6.67717 49.0327 5.84857 49.0327Z" fill="url(#paint6_linear_91_5189)"/>
<path d="M11.8486 49.0327C11.02 49.0327 10.3486 48.3608 10.3486 47.5327V5.53174C10.3486 4.70364 11.02 4.03174 11.8486 4.03174C12.6772 4.03174 13.3486 4.70364 13.3486 5.53174V47.5327C13.3486 48.3608 12.6772 49.0327 11.8486 49.0327Z" fill="url(#paint7_linear_91_5189)"/>
<path d="M17.8486 49.0327C17.02 49.0327 16.3486 48.3608 16.3486 47.5327V5.53174C16.3486 4.70364 17.02 4.03174 17.8486 4.03174C18.6772 4.03174 19.3486 4.70364 19.3486 5.53174V47.5327C19.3486 48.3608 18.6772 49.0327 17.8486 49.0327Z" fill="url(#paint8_linear_91_5189)"/>
<path d="M19.8486 2.03171C19.8486 0.439713 17.8486 0.477912 17.8486 4.03171" stroke="#E56060" stroke-miterlimit="10" stroke-linecap="round" stroke-linejoin="round"/>
<path d="M13.8486 2.03171C13.8486 0.439713 11.8486 0.477912 11.8486 4.03171" stroke="#E56060" stroke-miterlimit="10" stroke-linecap="round" stroke-linejoin="round"/>
<path d="M7.84857 2.03171C7.84857 0.439713 5.84857 0.477912 5.84857 4.03171" stroke="#E56060" stroke-miterlimit="10" stroke-linecap="round" stroke-linejoin="round"/>
<path d="M24.9319 56.998C27.4172 56.998 29.4319 54.9833 29.4319 52.498C29.4319 50.0128 27.4172 47.998 24.9319 47.998C22.4466 47.998 20.4319 50.0128 20.4319 52.498C20.4319 54.9833 22.4466 56.998 24.9319 56.998Z" fill="url(#paint9_radial_91_5189)"/>
<path d="M49.0995 52.4981C46.5942 52.4981 44.0151 51.1312 44.0151 47.0347" stroke="#E56060" stroke-miterlimit="10" stroke-linecap="round" stroke-linejoin="round"/>
<path d="M42.0162 49.0327C42.0162 51.463 36.0162 51.4916 36.0162 49.0327" stroke="#E56060" stroke-miterlimit="10" stroke-linecap="round" stroke-linejoin="round"/>
<path d="M38.0162 47.0347C38.0162 49.465 32.0162 49.4936 32.0162 47.0347" stroke="#E56060" stroke-miterlimit="10" stroke-linecap="round" stroke-linejoin="round"/>
<path d="M30.0162 49.0327C30.0162 50.4213 28.8871 51.4895 27.3973 52.0534" stroke="#E56060" stroke-miterlimit="10" stroke-linecap="round" stroke-linejoin="round"/>
<path d="M32.0162 47.0327C31.1876 47.0327 30.5162 46.3608 30.5162 45.5327V3.53174C30.5162 2.70364 31.1876 2.03174 32.0162 2.03174C32.8448 2.03174 33.5162 2.70364 33.5162 3.53174V45.5327C33.5162 46.3608 32.8448 47.0327 32.0162 47.0327Z" fill="url(#paint10_linear_91_5189)"/>
<path d="M38.0162 47.0327C37.1876 47.0327 36.5162 46.3608 36.5162 45.5327V3.53174C36.5162 2.70364 37.1876 2.03174 38.0162 2.03174C38.8448 2.03174 39.5162 2.70364 39.5162 3.53174V45.5327C39.5162 46.3608 38.8448 47.0327 38.0162 47.0327Z" fill="url(#paint11_linear_91_5189)"/>
<path d="M44.0162 47.0327C43.1876 47.0327 42.5162 46.3608 42.5162 45.5327V3.53174C42.5162 2.70364 43.1876 2.03174 44.0162 2.03174C44.8448 2.03174 45.5162 2.70364 45.5162 3.53174V45.5327C45.5162 46.3608 44.8448 47.0327 44.0162 47.0327Z" fill="url(#paint12_linear_91_5189)"/>
<g opacity="0.5">
<path d="M32.5152 6.53449V46.9445C32.3552 47.0045 32.1952 47.0345 32.0152 47.0345C31.8352 47.0345 31.6752 47.0045 31.5152 46.9445V5.53449C31.5152 5.38449 31.4952 5.24449 31.4452 5.10449C32.0652 5.28449 32.5152 5.85449 32.5152 6.53449Z" fill="url(#paint13_linear_91_5189)"/>
<path d="M38.5152 6.53449V46.9445C38.3552 47.0045 38.1952 47.0345 38.0152 47.0345C37.8352 47.0345 37.6752 47.0045 37.5152 46.9445V5.53449C37.5152 5.38449 37.4952 5.24449 37.4452 5.10449C38.0652 5.28449 38.5152 5.85449 38.5152 6.53449Z" fill="url(#paint14_linear_91_5189)"/>
<path d="M44.5152 6.53449V46.9445C44.3552 47.0045 44.1952 47.0345 44.0152 47.0345C43.8352 47.0345 43.6752 47.0045 43.5152 46.9445V5.53449C43.5152 5.38449 43.4952 5.24449 43.4452 5.10449C44.0652 5.28449 44.5152 5.85449 44.5152 6.53449Z" fill="url(#paint15_linear_91_5189)"/>
</g>
<path d="M30.0162 49.0327C29.1876 49.0327 28.5162 48.3608 28.5162 47.5327V5.53174C28.5162 4.70364 29.1876 4.03174 30.0162 4.03174C30.8448 4.03174 31.5162 4.70364 31.5162 5.53174V47.5327C31.5162 48.3608 30.8448 49.0327 30.0162 49.0327Z" fill="url(#paint16_linear_91_5189)"/>
<path d="M36.0162 49.0327C35.1876 49.0327 34.5162 48.3608 34.5162 47.5327V5.53174C34.5162 4.70364 35.1876 4.03174 36.0162 4.03174C36.8448 4.03174 37.5162 4.70364 37.5162 5.53174V47.5327C37.5162 48.3608 36.8448 49.0327 36.0162 49.0327Z" fill="url(#paint17_linear_91_5189)"/>
<path d="M42.0162 49.0327C41.1876 49.0327 40.5162 48.3608 40.5162 47.5327V5.53174C40.5162 4.70364 41.1876 4.03174 42.0162 4.03174C42.8448 4.03174 43.5162 4.70364 43.5162 5.53174V47.5327C43.5162 48.3608 42.8448 49.0327 42.0162 49.0327Z" fill="url(#paint18_linear_91_5189)"/>
<path d="M44.0162 2.03171C44.0162 0.439713 42.0162 0.477912 42.0162 4.03171" stroke="#E56060" stroke-miterlimit="10" stroke-linecap="round" stroke-linejoin="round"/>
<path d="M38.0162 2.03171C38.0162 0.439713 36.0162 0.477912 36.0162 4.03171" stroke="#E56060" stroke-miterlimit="10" stroke-linecap="round" stroke-linejoin="round"/>
<path d="M32.0162 2.03171C32.0162 0.439713 30.0162 0.477912 30.0162 4.03171" stroke="#E56060" stroke-miterlimit="10" stroke-linecap="round" stroke-linejoin="round"/>
<path d="M53.7417 49.6167C53.2791 50.7762 52.492 51.5309 51.5652 51.9759" stroke="#E56060" stroke-miterlimit="10" stroke-linecap="round" stroke-linejoin="round"/>
<path d="M49.0994 56.998C51.5847 56.998 53.5994 54.9833 53.5994 52.498C53.5994 50.0128 51.5847 47.998 49.0994 47.998C46.6141 47.998 44.5994 50.0128 44.5994 52.498C44.5994 54.9833 46.6141 56.998 49.0994 56.998Z" fill="url(#paint19_radial_91_5189)"/>
<defs>
<linearGradient id="paint0_linear_91_5189" x1="6.34857" y1="24.5322" x2="9.34857" y2="24.5322" gradientUnits="userSpaceOnUse">
<stop stop-color="#A37F0B"/>
<stop offset="0.1489" stop-color="#E5B829"/>
<stop offset="0.2701" stop-color="#E5C560"/>
<stop offset="0.451" stop-color="#D6AB22"/>
<stop offset="1" stop-color="#A37F0B"/>
</linearGradient>
<linearGradient id="paint1_linear_91_5189" x1="12.3486" y1="24.5322" x2="15.3486" y2="24.5322" gradientUnits="userSpaceOnUse">
<stop stop-color="#A37F0B"/>
<stop offset="0.1489" stop-color="#E5B829"/>
<stop offset="0.2701" stop-color="#E5C560"/>
<stop offset="0.451" stop-color="#D6AB22"/>
<stop offset="1" stop-color="#A37F0B"/>
</linearGradient>
<linearGradient id="paint2_linear_91_5189" x1="18.3486" y1="24.5322" x2="21.3486" y2="24.5322" gradientUnits="userSpaceOnUse">
<stop stop-color="#A37F0B"/>
<stop offset="0.1489" stop-color="#E5B829"/>
<stop offset="0.2701" stop-color="#E5C560"/>
<stop offset="0.451" stop-color="#D6AB22"/>
<stop offset="1" stop-color="#A37F0B"/>
</linearGradient>
<linearGradient id="paint3_linear_91_5189" x1="7.27747" y1="26.0695" x2="8.34747" y2="26.0695" gradientUnits="userSpaceOnUse">
<stop offset="0.4" stop-color="#092E56"/>
<stop offset="1" stop-color="#092E56" stop-opacity="0"/>
</linearGradient>
<linearGradient id="paint4_linear_91_5189" x1="13.2775" y1="26.0695" x2="14.3475" y2="26.0695" gradientUnits="userSpaceOnUse">
<stop offset="0.4" stop-color="#092E56"/>
<stop offset="1" stop-color="#092E56" stop-opacity="0"/>
</linearGradient>
<linearGradient id="paint5_linear_91_5189" x1="19.2775" y1="26.0695" x2="20.3475" y2="26.0695" gradientUnits="userSpaceOnUse">
<stop offset="0.4" stop-color="#092E56"/>
<stop offset="1" stop-color="#092E56" stop-opacity="0"/>
</linearGradient>
<linearGradient id="paint6_linear_91_5189" x1="4.34857" y1="26.5322" x2="7.34857" y2="26.5322" gradientUnits="userSpaceOnUse">
<stop stop-color="#A37F0B"/>
<stop offset="0.1489" stop-color="#E5B829"/>
<stop offset="0.2701" stop-color="#E5C560"/>
<stop offset="0.451" stop-color="#D6AB22"/>
<stop offset="1" stop-color="#A37F0B"/>
</linearGradient>
<linearGradient id="paint7_linear_91_5189" x1="10.3486" y1="26.5322" x2="13.3486" y2="26.5322" gradientUnits="userSpaceOnUse">
<stop stop-color="#A37F0B"/>
<stop offset="0.1489" stop-color="#E5B829"/>
<stop offset="0.2701" stop-color="#E5C560"/>
<stop offset="0.451" stop-color="#D6AB22"/>
<stop offset="1" stop-color="#A37F0B"/>
</linearGradient>
<linearGradient id="paint8_linear_91_5189" x1="16.3486" y1="26.5322" x2="19.3486" y2="26.5322" gradientUnits="userSpaceOnUse">
<stop stop-color="#A37F0B"/>
<stop offset="0.1489" stop-color="#E5B829"/>
<stop offset="0.2701" stop-color="#E5C560"/>
<stop offset="0.451" stop-color="#D6AB22"/>
<stop offset="1" stop-color="#A37F0B"/>
</linearGradient>
<radialGradient id="paint9_radial_91_5189" cx="0" cy="0" r="1" gradientUnits="userSpaceOnUse" gradientTransform="translate(24.9319 52.498) scale(4.5)">
<stop stop-color="#60CFE5"/>
<stop offset="0.451" stop-color="#22B8D6"/>
<stop offset="1" stop-color="#0B8AA3"/>
</radialGradient>
<linearGradient id="paint10_linear_91_5189" x1="30.5162" y1="24.5322" x2="33.5162" y2="24.5322" gradientUnits="userSpaceOnUse">
<stop stop-color="#A37F0B"/>
<stop offset="0.1489" stop-color="#E5B829"/>
<stop offset="0.2701" stop-color="#E5C560"/>
<stop offset="0.451" stop-color="#D6AB22"/>
<stop offset="1" stop-color="#A37F0B"/>
</linearGradient>
<linearGradient id="paint11_linear_91_5189" x1="36.5162" y1="24.5322" x2="39.5162" y2="24.5322" gradientUnits="userSpaceOnUse">
<stop stop-color="#A37F0B"/>
<stop offset="0.1489" stop-color="#E5B829"/>
<stop offset="0.2701" stop-color="#E5C560"/>
<stop offset="0.451" stop-color="#D6AB22"/>
<stop offset="1" stop-color="#A37F0B"/>
</linearGradient>
<linearGradient id="paint12_linear_91_5189" x1="42.5162" y1="24.5322" x2="45.5162" y2="24.5322" gradientUnits="userSpaceOnUse">
<stop stop-color="#A37F0B"/>
<stop offset="0.1489" stop-color="#E5B829"/>
<stop offset="0.2701" stop-color="#E5C560"/>
<stop offset="0.451" stop-color="#D6AB22"/>
<stop offset="1" stop-color="#A37F0B"/>
</linearGradient>
<linearGradient id="paint13_linear_91_5189" x1="31.4452" y1="26.0695" x2="32.5152" y2="26.0695" gradientUnits="userSpaceOnUse">
<stop offset="0.4" stop-color="#092E56"/>
<stop offset="1" stop-color="#092E56" stop-opacity="0"/>
</linearGradient>
<linearGradient id="paint14_linear_91_5189" x1="37.4452" y1="26.0695" x2="38.5152" y2="26.0695" gradientUnits="userSpaceOnUse">
<stop offset="0.4" stop-color="#092E56"/>
<stop offset="1" stop-color="#092E56" stop-opacity="0"/>
</linearGradient>
<linearGradient id="paint15_linear_91_5189" x1="43.4452" y1="26.0695" x2="44.5152" y2="26.0695" gradientUnits="userSpaceOnUse">
<stop offset="0.4" stop-color="#092E56"/>
<stop offset="1" stop-color="#092E56" stop-opacity="0"/>
</linearGradient>
<linearGradient id="paint16_linear_91_5189" x1="28.5162" y1="26.5322" x2="31.5162" y2="26.5322" gradientUnits="userSpaceOnUse">
<stop stop-color="#A37F0B"/>
<stop offset="0.1489" stop-color="#E5B829"/>
<stop offset="0.2701" stop-color="#E5C560"/>
<stop offset="0.451" stop-color="#D6AB22"/>
<stop offset="1" stop-color="#A37F0B"/>
</linearGradient>
<linearGradient id="paint17_linear_91_5189" x1="34.5162" y1="26.5322" x2="37.5162" y2="26.5322" gradientUnits="userSpaceOnUse">
<stop stop-color="#A37F0B"/>
<stop offset="0.1489" stop-color="#E5B829"/>
<stop offset="0.2701" stop-color="#E5C560"/>
<stop offset="0.451" stop-color="#D6AB22"/>
<stop offset="1" stop-color="#A37F0B"/>
</linearGradient>
<linearGradient id="paint18_linear_91_5189" x1="40.5162" y1="26.5322" x2="43.5162" y2="26.5322" gradientUnits="userSpaceOnUse">
<stop stop-color="#A37F0B"/>
<stop offset="0.1489" stop-color="#E5B829"/>
<stop offset="0.2701" stop-color="#E5C560"/>
<stop offset="0.451" stop-color="#D6AB22"/>
<stop offset="1" stop-color="#A37F0B"/>
</linearGradient>
<radialGradient id="paint19_radial_91_5189" cx="0" cy="0" r="1" gradientUnits="userSpaceOnUse" gradientTransform="translate(49.0994 52.498) scale(4.5)">
<stop stop-color="#60CFE5"/>
<stop offset="0.451" stop-color="#22B8D6"/>
<stop offset="1" stop-color="#0B8AA3"/>
</radialGradient>
</defs>
</svg>
