<svg width="57" height="24" viewBox="0 0 57 24" fill="none" xmlns="http://www.w3.org/2000/svg">
<rect x="2" y="1.98901" width="54" height="20" rx="10" fill="url(#paint0_linear_33_1396)"/>
<rect x="2" y="1.98901" width="54" height="20" rx="10" stroke="#62BFAB" stroke-width="3" stroke-linejoin="round"/>
<path d="M18.0488 15.989H16.1621L15.4121 14.0378H11.9785L11.2695 15.989H9.42969L12.7754 7.39917H14.6094L18.0488 15.989ZM14.8555 12.5906L13.6719 9.40308L12.5117 12.5906H14.8555ZM24.4707 12.8308L26.1523 13.364C25.8945 14.3015 25.4648 14.9988 24.8633 15.4558C24.2656 15.9089 23.5059 16.1355 22.584 16.1355C21.4434 16.1355 20.5059 15.7468 19.7715 14.9695C19.0371 14.1882 18.6699 13.1218 18.6699 11.7703C18.6699 10.3406 19.0391 9.2312 19.7773 8.44214C20.5156 7.64917 21.4863 7.25269 22.6895 7.25269C23.7402 7.25269 24.5938 7.56323 25.25 8.18433C25.6406 8.55151 25.9336 9.07886 26.1289 9.76636L24.4121 10.1765C24.3105 9.7312 24.0977 9.37964 23.7734 9.12183C23.4531 8.86401 23.0625 8.73511 22.6016 8.73511C21.9648 8.73511 21.4473 8.96362 21.0488 9.42065C20.6543 9.87769 20.457 10.6179 20.457 11.6414C20.457 12.7273 20.6523 13.5007 21.043 13.9617C21.4336 14.4226 21.9414 14.6531 22.5664 14.6531C23.0273 14.6531 23.4238 14.5066 23.7559 14.2136C24.0879 13.9207 24.3262 13.4597 24.4707 12.8308ZM35.3926 15.989H33.5059L32.7559 14.0378H29.3223L28.6133 15.989H26.7734L30.1191 7.39917H31.9531L35.3926 15.989ZM32.1992 12.5906L31.0156 9.40308L29.8555 12.5906H32.1992ZM37.3613 15.989V8.85229H34.8125V7.39917H41.6387V8.85229H39.0957V15.989H37.3613ZM46.6133 15.989H44.9668V9.78394C44.3652 10.3464 43.6562 10.7625 42.8398 11.032V9.53784C43.2695 9.39722 43.7363 9.13159 44.2402 8.74097C44.7441 8.34644 45.0898 7.88745 45.2773 7.36401H46.6133V15.989Z" fill="white"/>
<defs>
<linearGradient id="paint0_linear_33_1396" x1="29" y1="1.98901" x2="29" y2="21.989" gradientUnits="userSpaceOnUse">
<stop stop-color="#62BFAB"/>
<stop offset="1" stop-color="#281335"/>
</linearGradient>
</defs>
</svg>
