<svg width="52" height="24" viewBox="0 0 52 24" fill="none" xmlns="http://www.w3.org/2000/svg">
<rect x="2" y="1.98901" width="49" height="20" rx="10" fill="url(#paint0_linear_52_1876)"/>
<rect x="2" y="1.98901" width="49" height="20" rx="10" stroke="#B20057" stroke-width="3" stroke-linejoin="round"/>
<path d="M10.3398 15.989V7.39917H12.9355L14.4941 13.2585L16.0352 7.39917H18.6367V15.989H17.0254V9.22729L15.3203 15.989H13.6504L11.9512 9.22729V15.989H10.3398ZM28.1055 15.989H26.2188L25.4688 14.0378H22.0352L21.3262 15.989H19.4863L22.832 7.39917H24.666L28.1055 15.989ZM24.9121 12.5906L23.7285 9.40308L22.5684 12.5906H24.9121ZM29.0254 7.39917H32.1953C32.9102 7.39917 33.4551 7.45386 33.8301 7.56323C34.334 7.71167 34.7656 7.97534 35.125 8.35425C35.4844 8.73315 35.7578 9.198 35.9453 9.74878C36.1328 10.2957 36.2266 10.9714 36.2266 11.7761C36.2266 12.4832 36.1387 13.0925 35.9629 13.6042C35.748 14.2292 35.4414 14.7351 35.043 15.1218C34.7422 15.4148 34.3359 15.6433 33.8242 15.8074C33.4414 15.9285 32.9297 15.989 32.2891 15.989H29.0254V7.39917ZM30.7598 8.85229V14.5417H32.0547C32.5391 14.5417 32.8887 14.5144 33.1035 14.4597C33.3848 14.3894 33.6172 14.2703 33.8008 14.1023C33.9883 13.9343 34.1406 13.6589 34.2578 13.2761C34.375 12.8894 34.4336 12.364 34.4336 11.7C34.4336 11.0359 34.375 10.5261 34.2578 10.1707C34.1406 9.81519 33.9766 9.53784 33.7656 9.33862C33.5547 9.1394 33.2871 9.00464 32.9629 8.93433C32.7207 8.87964 32.2461 8.85229 31.5391 8.85229H30.7598ZM42.9004 14.4597V15.989H37.1289C37.1914 15.4109 37.3789 14.864 37.6914 14.3484C38.0039 13.8289 38.6211 13.1414 39.543 12.2859C40.2852 11.5945 40.7402 11.1257 40.9082 10.8796C41.1348 10.5398 41.248 10.2039 41.248 9.87183C41.248 9.50464 41.1484 9.22339 40.9492 9.02808C40.7539 8.82886 40.4824 8.72925 40.1348 8.72925C39.791 8.72925 39.5176 8.83276 39.3145 9.03979C39.1113 9.24683 38.9941 9.59058 38.9629 10.071L37.3223 9.90698C37.4199 9.00073 37.7266 8.35034 38.2422 7.95581C38.7578 7.56128 39.4023 7.36401 40.1758 7.36401C41.0234 7.36401 41.6895 7.59253 42.1738 8.04956C42.6582 8.50659 42.9004 9.07495 42.9004 9.75464C42.9004 10.1414 42.8301 10.5105 42.6895 10.8621C42.5527 11.2097 42.334 11.575 42.0332 11.9578C41.834 12.2117 41.4746 12.5769 40.9551 13.0535C40.4355 13.53 40.1055 13.8464 39.9648 14.0027C39.8281 14.1589 39.7168 14.3113 39.6309 14.4597H42.9004Z" fill="white"/>
<defs>
<linearGradient id="paint0_linear_52_1876" x1="26.5" y1="1.98901" x2="26.5" y2="21.989" gradientUnits="userSpaceOnUse">
<stop stop-color="#B20057"/>
<stop offset="1" stop-color="#A9C6D9"/>
</linearGradient>
</defs>
</svg>
