<svg width="43" height="24" viewBox="0 0 43 24" fill="none" xmlns="http://www.w3.org/2000/svg">
<rect x="2" y="1.98901" width="40" height="20" rx="10" fill="url(#paint0_linear_65_1999)"/>
<rect x="2" y="1.98901" width="40" height="20" rx="10" stroke="#836BD1" stroke-width="3" stroke-linejoin="round"/>
<path d="M10.1992 15.989V7.39917H12.9824C14.0371 7.39917 14.7246 7.44214 15.0449 7.52808C15.5371 7.65698 15.9492 7.93823 16.2812 8.37183C16.6133 8.80151 16.7793 9.35815 16.7793 10.0417C16.7793 10.5691 16.6836 11.0125 16.4922 11.3718C16.3008 11.7312 16.0566 12.0144 15.7598 12.2214C15.4668 12.4246 15.168 12.5593 14.8633 12.6257C14.4492 12.7078 13.8496 12.7488 13.0645 12.7488H11.9336V15.989H10.1992ZM11.9336 8.85229V11.2898H12.8828C13.5664 11.2898 14.0234 11.2449 14.2539 11.155C14.4844 11.0652 14.6641 10.9246 14.793 10.7332C14.9258 10.5417 14.9922 10.3191 14.9922 10.0652C14.9922 9.75269 14.9004 9.49487 14.7168 9.29175C14.5332 9.08862 14.3008 8.96167 14.0195 8.91089C13.8125 8.87183 13.3965 8.85229 12.7715 8.85229H11.9336ZM18.2266 15.989V7.39917H19.9609V11.2136L23.4648 7.39917H25.7969L22.5625 10.7449L25.9727 15.989H23.7285L21.3672 11.9578L19.9609 13.3933V15.989H18.2266ZM32.3711 12.8308L34.0527 13.364C33.7949 14.3015 33.3652 14.9988 32.7637 15.4558C32.166 15.9089 31.4062 16.1355 30.4844 16.1355C29.3438 16.1355 28.4062 15.7468 27.6719 14.9695C26.9375 14.1882 26.5703 13.1218 26.5703 11.7703C26.5703 10.3406 26.9395 9.2312 27.6777 8.44214C28.416 7.64917 29.3867 7.25269 30.5898 7.25269C31.6406 7.25269 32.4941 7.56323 33.1504 8.18433C33.541 8.55151 33.834 9.07886 34.0293 9.76636L32.3125 10.1765C32.2109 9.7312 31.998 9.37964 31.6738 9.12183C31.3535 8.86401 30.9629 8.73511 30.502 8.73511C29.8652 8.73511 29.3477 8.96362 28.9492 9.42065C28.5547 9.87769 28.3574 10.6179 28.3574 11.6414C28.3574 12.7273 28.5527 13.5007 28.9434 13.9617C29.334 14.4226 29.8418 14.6531 30.4668 14.6531C30.9277 14.6531 31.3242 14.5066 31.6562 14.2136C31.9883 13.9207 32.2266 13.4597 32.3711 12.8308Z" fill="white"/>
<defs>
<linearGradient id="paint0_linear_65_1999" x1="22" y1="1.98901" x2="22" y2="21.989" gradientUnits="userSpaceOnUse">
<stop stop-color="#836BD1"/>
<stop offset="1" stop-color="#211643"/>
</linearGradient>
</defs>
</svg>
