<svg width="58" height="24" viewBox="0 0 58 24" fill="none" xmlns="http://www.w3.org/2000/svg">
<rect x="2" y="1.98901" width="55" height="20" rx="10" fill="url(#paint0_linear_84_2010)"/>
<rect x="2" y="1.98901" width="55" height="20" rx="10" stroke="url(#paint1_linear_84_2010)" stroke-width="3" stroke-linejoin="round"/>
<path d="M12.2969 15.989V8.85229H9.74805V7.39917H16.5742V8.85229H14.0312V15.989H12.2969ZM17.7109 15.989V7.39917H23.5996V8.85229H19.4453V10.8855H23.0312V12.3386H19.4453V15.989H17.7109ZM25.041 7.39917H28.4746C29.1543 7.39917 29.6602 7.42847 29.9922 7.48706C30.3281 7.54175 30.627 7.65894 30.8887 7.83862C31.1543 8.01831 31.375 8.25854 31.5508 8.55933C31.7266 8.8562 31.8145 9.19019 31.8145 9.56128C31.8145 9.96362 31.7051 10.3328 31.4863 10.6687C31.2715 11.0046 30.9785 11.2566 30.6074 11.4246C31.1309 11.5769 31.5332 11.8367 31.8145 12.2039C32.0957 12.571 32.2363 13.0027 32.2363 13.4988C32.2363 13.8894 32.1445 14.2703 31.9609 14.6414C31.7812 15.0085 31.5332 15.3035 31.2168 15.5261C30.9043 15.7449 30.5176 15.8796 30.0566 15.9304C29.7676 15.9617 29.0703 15.9812 27.9648 15.989H25.041V7.39917ZM26.7754 8.82886V10.8152H27.9121C28.5879 10.8152 29.0078 10.8054 29.1719 10.7859C29.4688 10.7507 29.7012 10.6492 29.8691 10.4812C30.041 10.3093 30.127 10.0847 30.127 9.80737C30.127 9.54175 30.0527 9.3269 29.9043 9.16284C29.7598 8.99487 29.543 8.89331 29.2539 8.85815C29.082 8.83862 28.5879 8.82886 27.7715 8.82886H26.7754ZM26.7754 12.2449V14.5417H28.3809C29.0059 14.5417 29.4023 14.5242 29.5703 14.489C29.8281 14.4421 30.0371 14.3289 30.1973 14.1492C30.3613 13.9656 30.4434 13.7214 30.4434 13.4167C30.4434 13.1589 30.3809 12.9402 30.2559 12.7605C30.1309 12.5808 29.9492 12.45 29.7109 12.3679C29.4766 12.2859 28.9648 12.2449 28.1758 12.2449H26.7754ZM38.9043 14.4597V15.989H33.1328C33.1953 15.4109 33.3828 14.864 33.6953 14.3484C34.0078 13.8289 34.625 13.1414 35.5469 12.2859C36.2891 11.5945 36.7441 11.1257 36.9121 10.8796C37.1387 10.5398 37.252 10.2039 37.252 9.87183C37.252 9.50464 37.1523 9.22339 36.9531 9.02808C36.7578 8.82886 36.4863 8.72925 36.1387 8.72925C35.7949 8.72925 35.5215 8.83276 35.3184 9.03979C35.1152 9.24683 34.998 9.59058 34.9668 10.071L33.3262 9.90698C33.4238 9.00073 33.7305 8.35034 34.2461 7.95581C34.7617 7.56128 35.4062 7.36401 36.1797 7.36401C37.0273 7.36401 37.6934 7.59253 38.1777 8.04956C38.6621 8.50659 38.9043 9.07495 38.9043 9.75464C38.9043 10.1414 38.834 10.5105 38.6934 10.8621C38.5566 11.2097 38.3379 11.575 38.0371 11.9578C37.8379 12.2117 37.4785 12.5769 36.959 13.0535C36.4395 13.53 36.1094 13.8464 35.9688 14.0027C35.832 14.1589 35.7207 14.3113 35.6348 14.4597H38.9043ZM40.3633 15.989V7.39917H42.959L44.5176 13.2585L46.0586 7.39917H48.6602V15.989H47.0488V9.22729L45.3438 15.989H43.6738L41.9746 9.22729V15.989H40.3633Z" fill="white"/>
<defs>
<linearGradient id="paint0_linear_84_2010" x1="29.5" y1="1.98901" x2="29.5" y2="21.989" gradientUnits="userSpaceOnUse">
<stop stop-color="#FF98A2"/>
<stop offset="1" stop-color="#042224"/>
</linearGradient>
<linearGradient id="paint1_linear_84_2010" x1="29.5" y1="1.98901" x2="29.5" y2="21.989" gradientUnits="userSpaceOnUse">
<stop stop-color="#008520"/>
<stop offset="1" stop-color="#A2317B"/>
</linearGradient>
</defs>
</svg>
