<svg width="54" height="24" viewBox="0 0 54 24" fill="none" xmlns="http://www.w3.org/2000/svg">
<rect x="2" y="1.98901" width="51" height="20" rx="10" fill="url(#paint0_linear_52_1882)"/>
<rect x="2" y="1.98901" width="51" height="20" rx="10" stroke="#4C5FE4" stroke-width="3" stroke-linejoin="round"/>
<path d="M10.4082 15.989V7.46948H12.1426V14.5417H16.4551V15.989H10.4082ZM17.6445 15.989V7.39917H19.3789V15.989H17.6445ZM21.0137 15.989V7.39917H23.6094L25.168 13.2585L26.709 7.39917H29.3105V15.989H27.6992V9.22729L25.9941 15.989H24.3242L22.625 9.22729V15.989H21.0137ZM31.0566 15.989V7.39917H32.791V11.2136L36.2949 7.39917H38.627L35.3926 10.7449L38.8027 15.989H36.5586L34.1973 11.9578L32.791 13.3933V15.989H31.0566ZM43.5547 15.989H41.9082V9.78394C41.3066 10.3464 40.5977 10.7625 39.7812 11.032V9.53784C40.2109 9.39722 40.6777 9.13159 41.1816 8.74097C41.6855 8.34644 42.0312 7.88745 42.2188 7.36401H43.5547V15.989Z" fill="white"/>
<defs>
<linearGradient id="paint0_linear_52_1882" x1="27.5" y1="1.98901" x2="27.5" y2="21.989" gradientUnits="userSpaceOnUse">
<stop stop-color="#4C5FE4"/>
<stop offset="1" stop-color="#E43D43"/>
</linearGradient>
</defs>
</svg>
