<svg width="37" height="24" viewBox="0 0 37 24" fill="none" xmlns="http://www.w3.org/2000/svg">
<rect x="2" y="1.98901" width="34" height="20" rx="10" fill="#68C077"/>
<rect x="2" y="1.98901" width="34" height="20" rx="10" stroke="#205430" stroke-width="3" stroke-linejoin="round"/>
<path d="M17.6934 12.8308L19.375 13.364C19.1172 14.3015 18.6875 14.9988 18.0859 15.4558C17.4883 15.9089 16.7285 16.1355 15.8066 16.1355C14.666 16.1355 13.7285 15.7468 12.9941 14.9695C12.2598 14.1882 11.8926 13.1218 11.8926 11.7703C11.8926 10.3406 12.2617 9.2312 13 8.44214C13.7383 7.64917 14.709 7.25269 15.9121 7.25269C16.9629 7.25269 17.8164 7.56323 18.4727 8.18433C18.8633 8.55151 19.1562 9.07886 19.3516 9.76636L17.6348 10.1765C17.5332 9.7312 17.3203 9.37964 16.9961 9.12183C16.6758 8.86401 16.2852 8.73511 15.8242 8.73511C15.1875 8.73511 14.6699 8.96362 14.2715 9.42065C13.877 9.87769 13.6797 10.6179 13.6797 11.6414C13.6797 12.7273 13.875 13.5007 14.2656 13.9617C14.6562 14.4226 15.1641 14.6531 15.7891 14.6531C16.25 14.6531 16.6465 14.5066 16.9785 14.2136C17.3105 13.9207 17.5488 13.4597 17.6934 12.8308ZM21.918 11.3542C21.4922 11.1746 21.1816 10.9285 20.9863 10.616C20.7949 10.2996 20.6992 9.95386 20.6992 9.57886C20.6992 8.93823 20.9219 8.40894 21.3672 7.99097C21.8164 7.573 22.4531 7.36401 23.2773 7.36401C24.0938 7.36401 24.7266 7.573 25.1758 7.99097C25.6289 8.40894 25.8555 8.93823 25.8555 9.57886C25.8555 9.97729 25.752 10.3328 25.5449 10.6453C25.3379 10.9539 25.0469 11.1902 24.6719 11.3542C25.1484 11.5457 25.5098 11.825 25.7559 12.1921C26.0059 12.5593 26.1309 12.9832 26.1309 13.4636C26.1309 14.2566 25.877 14.9011 25.3691 15.3972C24.8652 15.8933 24.1934 16.1414 23.3535 16.1414C22.5723 16.1414 21.9219 15.9363 21.4023 15.5261C20.7891 15.0417 20.4824 14.3777 20.4824 13.5339C20.4824 13.0691 20.5977 12.6433 20.8281 12.2566C21.0586 11.866 21.4219 11.5652 21.918 11.3542ZM22.2578 9.69604C22.2578 10.0242 22.3496 10.28 22.5332 10.4636C22.7207 10.6472 22.9688 10.739 23.2773 10.739C23.5898 10.739 23.8398 10.6472 24.0273 10.4636C24.2148 10.2761 24.3086 10.0183 24.3086 9.69019C24.3086 9.38159 24.2148 9.1355 24.0273 8.9519C23.8438 8.7644 23.5996 8.67065 23.2949 8.67065C22.9785 8.67065 22.7266 8.7644 22.5391 8.9519C22.3516 9.1394 22.2578 9.38745 22.2578 9.69604ZM22.1055 13.3757C22.1055 13.8289 22.2207 14.1824 22.4512 14.4363C22.6855 14.6902 22.9766 14.8171 23.3242 14.8171C23.6641 14.8171 23.9453 14.696 24.168 14.4539C24.3906 14.2078 24.502 13.8542 24.502 13.3933C24.502 12.991 24.3887 12.6687 24.1621 12.4265C23.9355 12.1804 23.6484 12.0574 23.3008 12.0574C22.8984 12.0574 22.5977 12.196 22.3984 12.4734C22.2031 12.7507 22.1055 13.0515 22.1055 13.3757Z" fill="white"/>
</svg>
