<svg width="65" height="24" viewBox="0 0 65 24" fill="none" xmlns="http://www.w3.org/2000/svg">
<rect x="1" y="1.98901" width="63" height="20" rx="10" fill="url(#paint0_linear_40_2518)"/>
<rect x="1" y="1.98901" width="63" height="20" rx="10" stroke="#79F756" stroke-width="3" stroke-linejoin="round"/>
<path d="M14.8516 12.8308L16.5332 13.364C16.2754 14.3015 15.8457 14.9988 15.2441 15.4558C14.6465 15.9089 13.8867 16.1355 12.9648 16.1355C11.8242 16.1355 10.8867 15.7468 10.1523 14.9695C9.41797 14.1882 9.05078 13.1218 9.05078 11.7703C9.05078 10.3406 9.41992 9.2312 10.1582 8.44214C10.8965 7.64917 11.8672 7.25269 13.0703 7.25269C14.1211 7.25269 14.9746 7.56323 15.6309 8.18433C16.0215 8.55151 16.3145 9.07886 16.5098 9.76636L14.793 10.1765C14.6914 9.7312 14.4785 9.37964 14.1543 9.12183C13.834 8.86401 13.4434 8.73511 12.9824 8.73511C12.3457 8.73511 11.8281 8.96362 11.4297 9.42065C11.0352 9.87769 10.8379 10.6179 10.8379 11.6414C10.8379 12.7273 11.0332 13.5007 11.4238 13.9617C11.8145 14.4226 12.3223 14.6531 12.9473 14.6531C13.4082 14.6531 13.8047 14.5066 14.1367 14.2136C14.4688 13.9207 14.707 13.4597 14.8516 12.8308ZM17.5879 13.1941L19.2754 13.03C19.377 13.5964 19.582 14.0125 19.8906 14.2781C20.2031 14.5437 20.623 14.6765 21.1504 14.6765C21.709 14.6765 22.1289 14.5593 22.4102 14.325C22.6953 14.0867 22.8379 13.8093 22.8379 13.4929C22.8379 13.2898 22.7773 13.1179 22.6562 12.9773C22.5391 12.8328 22.332 12.7078 22.0352 12.6023C21.832 12.532 21.3691 12.407 20.6465 12.2273C19.7168 11.9968 19.0645 11.7136 18.6895 11.3777C18.1621 10.905 17.8984 10.3289 17.8984 9.64917C17.8984 9.21167 18.0215 8.80347 18.2676 8.42456C18.5176 8.04175 18.875 7.75073 19.3398 7.55151C19.8086 7.35229 20.373 7.25269 21.0332 7.25269C22.1113 7.25269 22.9219 7.48901 23.4648 7.96167C24.0117 8.43433 24.2988 9.06519 24.3262 9.85425L22.5918 9.93042C22.5176 9.48901 22.3574 9.17261 22.1113 8.9812C21.8691 8.78589 21.5039 8.68823 21.0156 8.68823C20.5117 8.68823 20.1172 8.79175 19.832 8.99878C19.6484 9.13159 19.5566 9.30933 19.5566 9.53198C19.5566 9.73511 19.6426 9.90894 19.8145 10.0535C20.0332 10.2371 20.5645 10.4285 21.4082 10.6277C22.252 10.8269 22.875 11.0339 23.2773 11.2488C23.6836 11.4597 24 11.7507 24.2266 12.1218C24.457 12.489 24.5723 12.9441 24.5723 13.4871C24.5723 13.9792 24.4355 14.4402 24.1621 14.8699C23.8887 15.2996 23.502 15.6199 23.002 15.8308C22.502 16.0378 21.8789 16.1414 21.1328 16.1414C20.0469 16.1414 19.2129 15.8914 18.6309 15.3914C18.0488 14.8875 17.7012 14.155 17.5879 13.1941ZM26.043 15.989V7.39917H31.9316V8.85229H27.7773V10.8855H31.3633V12.3386H27.7773V15.989H26.043ZM38.5645 14.4597V15.989H32.793C32.8555 15.4109 33.043 14.864 33.3555 14.3484C33.668 13.8289 34.2852 13.1414 35.207 12.2859C35.9492 11.5945 36.4043 11.1257 36.5723 10.8796C36.7988 10.5398 36.9121 10.2039 36.9121 9.87183C36.9121 9.50464 36.8125 9.22339 36.6133 9.02808C36.418 8.82886 36.1465 8.72925 35.7988 8.72925C35.4551 8.72925 35.1816 8.83276 34.9785 9.03979C34.7754 9.24683 34.6582 9.59058 34.627 10.071L32.9863 9.90698C33.084 9.00073 33.3906 8.35034 33.9062 7.95581C34.4219 7.56128 35.0664 7.36401 35.8398 7.36401C36.6875 7.36401 37.3535 7.59253 37.8379 8.04956C38.3223 8.50659 38.5645 9.07495 38.5645 9.75464C38.5645 10.1414 38.4941 10.5105 38.3535 10.8621C38.2168 11.2097 37.998 11.575 37.6973 11.9578C37.498 12.2117 37.1387 12.5769 36.6191 13.0535C36.0996 13.53 35.7695 13.8464 35.6289 14.0027C35.4922 14.1589 35.3809 14.3113 35.2949 14.4597H38.5645ZM40.0527 15.989V7.39917H43.7031C44.6211 7.39917 45.2871 7.47729 45.7012 7.63354C46.1191 7.78589 46.4531 8.05933 46.7031 8.45386C46.9531 8.84839 47.0781 9.29956 47.0781 9.80737C47.0781 10.4519 46.8887 10.9851 46.5098 11.407C46.1309 11.825 45.5645 12.0886 44.8105 12.198C45.1855 12.4167 45.4941 12.657 45.7363 12.9187C45.9824 13.1804 46.3125 13.6453 46.7266 14.3132L47.7754 15.989H45.7012L44.4473 14.1199C44.002 13.4519 43.6973 13.032 43.5332 12.8601C43.3691 12.6843 43.1953 12.5652 43.0117 12.5027C42.8281 12.4363 42.5371 12.4031 42.1387 12.4031H41.7871V15.989H40.0527ZM41.7871 11.032H43.0703C43.9023 11.032 44.4219 10.9968 44.6289 10.9265C44.8359 10.8562 44.998 10.7351 45.1152 10.5632C45.2324 10.3914 45.291 10.1765 45.291 9.9187C45.291 9.62964 45.2129 9.39722 45.0566 9.22144C44.9043 9.04175 44.6875 8.92847 44.4062 8.88159C44.2656 8.86206 43.8438 8.85229 43.1406 8.85229H41.7871V11.032ZM48.7246 7.39917H52.1582C52.8379 7.39917 53.3438 7.42847 53.6758 7.48706C54.0117 7.54175 54.3105 7.65894 54.5723 7.83862C54.8379 8.01831 55.0586 8.25854 55.2344 8.55933C55.4102 8.8562 55.498 9.19019 55.498 9.56128C55.498 9.96362 55.3887 10.3328 55.1699 10.6687C54.9551 11.0046 54.6621 11.2566 54.291 11.4246C54.8145 11.5769 55.2168 11.8367 55.498 12.2039C55.7793 12.571 55.9199 13.0027 55.9199 13.4988C55.9199 13.8894 55.8281 14.2703 55.6445 14.6414C55.4648 15.0085 55.2168 15.3035 54.9004 15.5261C54.5879 15.7449 54.2012 15.8796 53.7402 15.9304C53.4512 15.9617 52.7539 15.9812 51.6484 15.989H48.7246V7.39917ZM50.459 8.82886V10.8152H51.5957C52.2715 10.8152 52.6914 10.8054 52.8555 10.7859C53.1523 10.7507 53.3848 10.6492 53.5527 10.4812C53.7246 10.3093 53.8105 10.0847 53.8105 9.80737C53.8105 9.54175 53.7363 9.3269 53.5879 9.16284C53.4434 8.99487 53.2266 8.89331 52.9375 8.85815C52.7656 8.83862 52.2715 8.82886 51.4551 8.82886H50.459ZM50.459 12.2449V14.5417H52.0645C52.6895 14.5417 53.0859 14.5242 53.2539 14.489C53.5117 14.4421 53.7207 14.3289 53.8809 14.1492C54.0449 13.9656 54.127 13.7214 54.127 13.4167C54.127 13.1589 54.0645 12.9402 53.9395 12.7605C53.8145 12.5808 53.6328 12.45 53.3945 12.3679C53.1602 12.2859 52.6484 12.2449 51.8594 12.2449H50.459Z" fill="white"/>
<defs>
<linearGradient id="paint0_linear_40_2518" x1="32.5" y1="1.98901" x2="32.5" y2="21.989" gradientUnits="userSpaceOnUse">
<stop stop-color="#79F756"/>
<stop offset="1" stop-color="#003B95"/>
</linearGradient>
</defs>
</svg>
