<svg width="57" height="24" viewBox="0 0 57 24" fill="none" xmlns="http://www.w3.org/2000/svg">
<rect x="2" y="1.98901" width="54" height="20" rx="10" fill="url(#paint0_linear_64_1857)"/>
<rect x="2" y="1.98901" width="54" height="20" rx="10" stroke="#003004" stroke-width="3" stroke-linejoin="round"/>
<path d="M10.3203 15.989V7.39917H12.0078L15.5234 13.1355V7.39917H17.1348V15.989H15.3945L11.9316 10.3875V15.989H10.3203ZM18.9746 15.989V7.39917H21.7578C22.8125 7.39917 23.5 7.44214 23.8203 7.52808C24.3125 7.65698 24.7246 7.93823 25.0566 8.37183C25.3887 8.80151 25.5547 9.35815 25.5547 10.0417C25.5547 10.5691 25.459 11.0125 25.2676 11.3718C25.0762 11.7312 24.832 12.0144 24.5352 12.2214C24.2422 12.4246 23.9434 12.5593 23.6387 12.6257C23.2246 12.7078 22.625 12.7488 21.8398 12.7488H20.709V15.989H18.9746ZM20.709 8.85229V11.2898H21.6582C22.3418 11.2898 22.7988 11.2449 23.0293 11.155C23.2598 11.0652 23.4395 10.9246 23.5684 10.7332C23.7012 10.5417 23.7676 10.3191 23.7676 10.0652C23.7676 9.75269 23.6758 9.49487 23.4922 9.29175C23.3086 9.08862 23.0762 8.96167 22.7949 8.91089C22.5879 8.87183 22.1719 8.85229 21.5469 8.85229H20.709ZM33.834 15.989H31.9473L31.1973 14.0378H27.7637L27.0547 15.989H25.2148L28.5605 7.39917H30.3945L33.834 15.989ZM30.6406 12.5906L29.457 9.40308L28.2969 12.5906H30.6406ZM34.3203 13.1941L36.0078 13.03C36.1094 13.5964 36.3145 14.0125 36.623 14.2781C36.9355 14.5437 37.3555 14.6765 37.8828 14.6765C38.4414 14.6765 38.8613 14.5593 39.1426 14.325C39.4277 14.0867 39.5703 13.8093 39.5703 13.4929C39.5703 13.2898 39.5098 13.1179 39.3887 12.9773C39.2715 12.8328 39.0645 12.7078 38.7676 12.6023C38.5645 12.532 38.1016 12.407 37.3789 12.2273C36.4492 11.9968 35.7969 11.7136 35.4219 11.3777C34.8945 10.905 34.6309 10.3289 34.6309 9.64917C34.6309 9.21167 34.7539 8.80347 35 8.42456C35.25 8.04175 35.6074 7.75073 36.0723 7.55151C36.541 7.35229 37.1055 7.25269 37.7656 7.25269C38.8438 7.25269 39.6543 7.48901 40.1973 7.96167C40.7441 8.43433 41.0312 9.06519 41.0586 9.85425L39.3242 9.93042C39.25 9.48901 39.0898 9.17261 38.8438 8.9812C38.6016 8.78589 38.2363 8.68823 37.748 8.68823C37.2441 8.68823 36.8496 8.79175 36.5645 8.99878C36.3809 9.13159 36.2891 9.30933 36.2891 9.53198C36.2891 9.73511 36.375 9.90894 36.5469 10.0535C36.7656 10.2371 37.2969 10.4285 38.1406 10.6277C38.9844 10.8269 39.6074 11.0339 40.0098 11.2488C40.416 11.4597 40.7324 11.7507 40.959 12.1218C41.1895 12.489 41.3047 12.9441 41.3047 13.4871C41.3047 13.9792 41.168 14.4402 40.8945 14.8699C40.6211 15.2996 40.2344 15.6199 39.7344 15.8308C39.2344 16.0378 38.6113 16.1414 37.8652 16.1414C36.7793 16.1414 35.9453 15.8914 35.3633 15.3914C34.7812 14.8875 34.4336 14.155 34.3203 13.1941ZM47.9609 14.4597V15.989H42.1895C42.252 15.4109 42.4395 14.864 42.752 14.3484C43.0645 13.8289 43.6816 13.1414 44.6035 12.2859C45.3457 11.5945 45.8008 11.1257 45.9688 10.8796C46.1953 10.5398 46.3086 10.2039 46.3086 9.87183C46.3086 9.50464 46.209 9.22339 46.0098 9.02808C45.8145 8.82886 45.543 8.72925 45.1953 8.72925C44.8516 8.72925 44.5781 8.83276 44.375 9.03979C44.1719 9.24683 44.0547 9.59058 44.0234 10.071L42.3828 9.90698C42.4805 9.00073 42.7871 8.35034 43.3027 7.95581C43.8184 7.56128 44.4629 7.36401 45.2363 7.36401C46.084 7.36401 46.75 7.59253 47.2344 8.04956C47.7188 8.50659 47.9609 9.07495 47.9609 9.75464C47.9609 10.1414 47.8906 10.5105 47.75 10.8621C47.6133 11.2097 47.3945 11.575 47.0938 11.9578C46.8945 12.2117 46.5352 12.5769 46.0156 13.0535C45.4961 13.53 45.166 13.8464 45.0254 14.0027C44.8887 14.1589 44.7773 14.3113 44.6914 14.4597H47.9609Z" fill="white"/>
<defs>
<linearGradient id="paint0_linear_64_1857" x1="29" y1="1.98901" x2="29" y2="21.989" gradientUnits="userSpaceOnUse">
<stop stop-color="#003004"/>
<stop offset="1" stop-color="#2EA55F"/>
</linearGradient>
</defs>
</svg>
