<svg width="57" height="24" viewBox="0 0 57 24" fill="none" xmlns="http://www.w3.org/2000/svg">
<rect x="2" y="1.98901" width="54" height="20" rx="10" fill="url(#paint0_linear_42_2588)"/>
<rect x="2" y="1.98901" width="54" height="20" rx="10" stroke="#A08ACC" stroke-width="3" stroke-linejoin="round"/>
<path d="M10.2969 7.39917H13.4668C14.1816 7.39917 14.7266 7.45386 15.1016 7.56323C15.6055 7.71167 16.0371 7.97534 16.3965 8.35425C16.7559 8.73315 17.0293 9.198 17.2168 9.74878C17.4043 10.2957 17.498 10.9714 17.498 11.7761C17.498 12.4832 17.4102 13.0925 17.2344 13.6042C17.0195 14.2292 16.7129 14.7351 16.3145 15.1218C16.0137 15.4148 15.6074 15.6433 15.0957 15.8074C14.7129 15.9285 14.2012 15.989 13.5605 15.989H10.2969V7.39917ZM12.0312 8.85229V14.5417H13.3262C13.8105 14.5417 14.1602 14.5144 14.375 14.4597C14.6562 14.3894 14.8887 14.2703 15.0723 14.1023C15.2598 13.9343 15.4121 13.6589 15.5293 13.2761C15.6465 12.8894 15.7051 12.364 15.7051 11.7C15.7051 11.0359 15.6465 10.5261 15.5293 10.1707C15.4121 9.81519 15.248 9.53784 15.0371 9.33862C14.8262 9.1394 14.5586 9.00464 14.2344 8.93433C13.9922 8.87964 13.5176 8.85229 12.8105 8.85229H12.0312ZM18.9746 15.989V7.39917H21.7578C22.8125 7.39917 23.5 7.44214 23.8203 7.52808C24.3125 7.65698 24.7246 7.93823 25.0566 8.37183C25.3887 8.80151 25.5547 9.35815 25.5547 10.0417C25.5547 10.5691 25.459 11.0125 25.2676 11.3718C25.0762 11.7312 24.832 12.0144 24.5352 12.2214C24.2422 12.4246 23.9434 12.5593 23.6387 12.6257C23.2246 12.7078 22.625 12.7488 21.8398 12.7488H20.709V15.989H18.9746ZM20.709 8.85229V11.2898H21.6582C22.3418 11.2898 22.7988 11.2449 23.0293 11.155C23.2598 11.0652 23.4395 10.9246 23.5684 10.7332C23.7012 10.5417 23.7676 10.3191 23.7676 10.0652C23.7676 9.75269 23.6758 9.49487 23.4922 9.29175C23.3086 9.08862 23.0762 8.96167 22.7949 8.91089C22.5879 8.87183 22.1719 8.85229 21.5469 8.85229H20.709ZM26.9785 15.989V7.39917H29.7617C30.8164 7.39917 31.5039 7.44214 31.8242 7.52808C32.3164 7.65698 32.7285 7.93823 33.0605 8.37183C33.3926 8.80151 33.5586 9.35815 33.5586 10.0417C33.5586 10.5691 33.4629 11.0125 33.2715 11.3718C33.0801 11.7312 32.8359 12.0144 32.5391 12.2214C32.2461 12.4246 31.9473 12.5593 31.6426 12.6257C31.2285 12.7078 30.6289 12.7488 29.8438 12.7488H28.7129V15.989H26.9785ZM28.7129 8.85229V11.2898H29.6621C30.3457 11.2898 30.8027 11.2449 31.0332 11.155C31.2637 11.0652 31.4434 10.9246 31.5723 10.7332C31.7051 10.5417 31.7715 10.3191 31.7715 10.0652C31.7715 9.75269 31.6797 9.49487 31.4961 9.29175C31.3125 9.08862 31.0801 8.96167 30.7988 8.91089C30.5918 8.87183 30.1758 8.85229 29.5508 8.85229H28.7129ZM41.8379 15.989H39.9512L39.2012 14.0378H35.7676L35.0586 15.989H33.2188L36.5645 7.39917H38.3984L41.8379 15.989ZM38.6445 12.5906L37.4609 9.40308L36.3008 12.5906H38.6445ZM45.6289 15.989V14.2605H42.1133V12.8191L45.8398 7.36401H47.2227V12.8132H48.2891V14.2605H47.2227V15.989H45.6289ZM45.6289 12.8132V9.87769L43.6543 12.8132H45.6289Z" fill="white"/>
<defs>
<linearGradient id="paint0_linear_42_2588" x1="29" y1="1.98901" x2="29" y2="21.989" gradientUnits="userSpaceOnUse">
<stop stop-color="#A08ACC"/>
<stop offset="1" stop-color="#8A0068"/>
</linearGradient>
</defs>
</svg>
