<svg width="60" height="24" viewBox="0 0 60 24" fill="none" xmlns="http://www.w3.org/2000/svg">
<rect x="2" y="1.98901" width="57" height="20" rx="10" fill="url(#paint0_linear_52_1871)"/>
<rect x="2" y="1.98901" width="57" height="20" rx="10" stroke="#994350" stroke-width="3" stroke-linejoin="round"/>
<path d="M10.0039 15.989V7.39917H12.5996L14.1582 13.2585L15.6992 7.39917H18.3008V15.989H16.6895V9.22729L14.9844 15.989H13.3145L11.6152 9.22729V15.989H10.0039ZM25.5195 12.8308L27.2012 13.364C26.9434 14.3015 26.5137 14.9988 25.9121 15.4558C25.3145 15.9089 24.5547 16.1355 23.6328 16.1355C22.4922 16.1355 21.5547 15.7468 20.8203 14.9695C20.0859 14.1882 19.7188 13.1218 19.7188 11.7703C19.7188 10.3406 20.0879 9.2312 20.8262 8.44214C21.5645 7.64917 22.5352 7.25269 23.7383 7.25269C24.7891 7.25269 25.6426 7.56323 26.2988 8.18433C26.6895 8.55151 26.9824 9.07886 27.1777 9.76636L25.4609 10.1765C25.3594 9.7312 25.1465 9.37964 24.8223 9.12183C24.502 8.86401 24.1113 8.73511 23.6504 8.73511C23.0137 8.73511 22.4961 8.96362 22.0977 9.42065C21.7031 9.87769 21.5059 10.6179 21.5059 11.6414C21.5059 12.7273 21.7012 13.5007 22.0918 13.9617C22.4824 14.4226 22.9902 14.6531 23.6152 14.6531C24.0762 14.6531 24.4727 14.5066 24.8047 14.2136C25.1367 13.9207 25.375 13.4597 25.5195 12.8308ZM34.1914 12.8308L35.873 13.364C35.6152 14.3015 35.1855 14.9988 34.584 15.4558C33.9863 15.9089 33.2266 16.1355 32.3047 16.1355C31.1641 16.1355 30.2266 15.7468 29.4922 14.9695C28.7578 14.1882 28.3906 13.1218 28.3906 11.7703C28.3906 10.3406 28.7598 9.2312 29.498 8.44214C30.2363 7.64917 31.207 7.25269 32.4102 7.25269C33.4609 7.25269 34.3145 7.56323 34.9707 8.18433C35.3613 8.55151 35.6543 9.07886 35.8496 9.76636L34.1328 10.1765C34.0312 9.7312 33.8184 9.37964 33.4941 9.12183C33.1738 8.86401 32.7832 8.73511 32.3223 8.73511C31.6855 8.73511 31.168 8.96362 30.7695 9.42065C30.375 9.87769 30.1777 10.6179 30.1777 11.6414C30.1777 12.7273 30.373 13.5007 30.7637 13.9617C31.1543 14.4226 31.6621 14.6531 32.2871 14.6531C32.748 14.6531 33.1445 14.5066 33.4766 14.2136C33.8086 13.9207 34.0469 13.4597 34.1914 12.8308ZM42.8633 12.8308L44.5449 13.364C44.2871 14.3015 43.8574 14.9988 43.2559 15.4558C42.6582 15.9089 41.8984 16.1355 40.9766 16.1355C39.8359 16.1355 38.8984 15.7468 38.1641 14.9695C37.4297 14.1882 37.0625 13.1218 37.0625 11.7703C37.0625 10.3406 37.4316 9.2312 38.1699 8.44214C38.9082 7.64917 39.8789 7.25269 41.082 7.25269C42.1328 7.25269 42.9863 7.56323 43.6426 8.18433C44.0332 8.55151 44.3262 9.07886 44.5215 9.76636L42.8047 10.1765C42.7031 9.7312 42.4902 9.37964 42.166 9.12183C41.8457 8.86401 41.4551 8.73511 40.9941 8.73511C40.3574 8.73511 39.8398 8.96362 39.4414 9.42065C39.0469 9.87769 38.8496 10.6179 38.8496 11.6414C38.8496 12.7273 39.0449 13.5007 39.4355 13.9617C39.8262 14.4226 40.334 14.6531 40.959 14.6531C41.4199 14.6531 41.8164 14.5066 42.1484 14.2136C42.4805 13.9207 42.7188 13.4597 42.8633 12.8308ZM49.8887 15.989H48.2422V9.78394C47.6406 10.3464 46.9316 10.7625 46.1152 11.032V9.53784C46.5449 9.39722 47.0117 9.13159 47.5156 8.74097C48.0195 8.34644 48.3652 7.88745 48.5527 7.36401H49.8887V15.989Z" fill="white"/>
<defs>
<linearGradient id="paint0_linear_52_1871" x1="30.5" y1="21.989" x2="30.5" y2="1.98901" gradientUnits="userSpaceOnUse">
<stop stop-color="#D192AD"/>
<stop offset="1" stop-color="#994350"/>
</linearGradient>
</defs>
</svg>
