<svg width="42" height="24" viewBox="0 0 42 24" fill="none" xmlns="http://www.w3.org/2000/svg">
<rect x="2" y="1.98901" width="39" height="20" rx="10" fill="url(#paint0_linear_64_1981)"/>
<rect x="2" y="1.98901" width="39" height="20" rx="10" stroke="#EAA68F" stroke-width="3" stroke-linejoin="round"/>
<path d="M10.0332 15.989V7.39917H12.8164C13.8711 7.39917 14.5586 7.44214 14.8789 7.52808C15.3711 7.65698 15.7832 7.93823 16.1152 8.37183C16.4473 8.80151 16.6133 9.35815 16.6133 10.0417C16.6133 10.5691 16.5176 11.0125 16.3262 11.3718C16.1348 11.7312 15.8906 12.0144 15.5938 12.2214C15.3008 12.4246 15.002 12.5593 14.6973 12.6257C14.2832 12.7078 13.6836 12.7488 12.8984 12.7488H11.7676V15.989H10.0332ZM11.7676 8.85229V11.2898H12.7168C13.4004 11.2898 13.8574 11.2449 14.0879 11.155C14.3184 11.0652 14.498 10.9246 14.627 10.7332C14.7598 10.5417 14.8262 10.3191 14.8262 10.0652C14.8262 9.75269 14.7344 9.49487 14.5508 9.29175C14.3672 9.08862 14.1348 8.96167 13.8535 8.91089C13.6465 8.87183 13.2305 8.85229 12.6055 8.85229H11.7676ZM18.0547 15.989V7.39917H19.7422L23.2578 13.1355V7.39917H24.8691V15.989H23.1289L19.666 10.3875V15.989H18.0547ZM26.709 15.989V7.39917H29.4922C30.5469 7.39917 31.2344 7.44214 31.5547 7.52808C32.0469 7.65698 32.459 7.93823 32.791 8.37183C33.123 8.80151 33.2891 9.35815 33.2891 10.0417C33.2891 10.5691 33.1934 11.0125 33.002 11.3718C32.8105 11.7312 32.5664 12.0144 32.2695 12.2214C31.9766 12.4246 31.6777 12.5593 31.373 12.6257C30.959 12.7078 30.3594 12.7488 29.5742 12.7488H28.4434V15.989H26.709ZM28.4434 8.85229V11.2898H29.3926C30.0762 11.2898 30.5332 11.2449 30.7637 11.155C30.9941 11.0652 31.1738 10.9246 31.3027 10.7332C31.4355 10.5417 31.502 10.3191 31.502 10.0652C31.502 9.75269 31.4102 9.49487 31.2266 9.29175C31.043 9.08862 30.8105 8.96167 30.5293 8.91089C30.3223 8.87183 29.9062 8.85229 29.2812 8.85229H28.4434Z" fill="white"/>
<defs>
<linearGradient id="paint0_linear_64_1981" x1="21.5" y1="1.98901" x2="21.5" y2="21.989" gradientUnits="userSpaceOnUse">
<stop stop-color="#79B8B6"/>
<stop offset="1" stop-color="#EAA68F"/>
</linearGradient>
</defs>
</svg>
