<svg width="42" height="24" viewBox="0 0 42 24" fill="none" xmlns="http://www.w3.org/2000/svg">
<rect x="2" y="1.98901" width="39" height="20" rx="10" fill="url(#paint0_linear_42_2587)"/>
<rect x="2" y="1.98901" width="39" height="20" rx="10" stroke="#C98500" stroke-width="3" stroke-linejoin="round"/>
<path d="M13.9473 14.0085L15.5879 14.2839C15.377 14.8855 15.043 15.3445 14.5859 15.6609C14.1328 15.9734 13.5645 16.1296 12.8809 16.1296C11.7988 16.1296 10.998 15.7761 10.4785 15.0691C10.0684 14.5027 9.86328 13.7878 9.86328 12.9246C9.86328 11.8933 10.1328 11.0867 10.6719 10.5046C11.2109 9.9187 11.8926 9.62573 12.7168 9.62573C13.6426 9.62573 14.373 9.93237 14.9082 10.5457C15.4434 11.155 15.6992 12.0906 15.6758 13.3523H11.5508C11.5625 13.8406 11.6953 14.2214 11.9492 14.4949C12.2031 14.7644 12.5195 14.8992 12.8984 14.8992C13.1562 14.8992 13.373 14.8289 13.5488 14.6882C13.7246 14.5476 13.8574 14.321 13.9473 14.0085ZM14.041 12.3445C14.0293 11.8679 13.9062 11.5066 13.6719 11.2605C13.4375 11.0105 13.1523 10.8855 12.8164 10.8855C12.457 10.8855 12.1602 11.0164 11.9258 11.2781C11.6914 11.5398 11.5762 11.8953 11.5801 12.3445H14.041ZM16.9824 15.989V7.39917H18.7168V15.989H16.9824ZM20.3867 15.989V7.39917H26.2754V8.85229H22.1211V10.8855H25.707V12.3386H22.1211V15.989H20.3867ZM32.9082 14.4597V15.989H27.1367C27.1992 15.4109 27.3867 14.864 27.6992 14.3484C28.0117 13.8289 28.6289 13.1414 29.5508 12.2859C30.293 11.5945 30.748 11.1257 30.916 10.8796C31.1426 10.5398 31.2559 10.2039 31.2559 9.87183C31.2559 9.50464 31.1562 9.22339 30.957 9.02808C30.7617 8.82886 30.4902 8.72925 30.1426 8.72925C29.7988 8.72925 29.5254 8.83276 29.3223 9.03979C29.1191 9.24683 29.002 9.59058 28.9707 10.071L27.3301 9.90698C27.4277 9.00073 27.7344 8.35034 28.25 7.95581C28.7656 7.56128 29.4102 7.36401 30.1836 7.36401C31.0312 7.36401 31.6973 7.59253 32.1816 8.04956C32.666 8.50659 32.9082 9.07495 32.9082 9.75464C32.9082 10.1414 32.8379 10.5105 32.6973 10.8621C32.5605 11.2097 32.3418 11.575 32.041 11.9578C31.8418 12.2117 31.4824 12.5769 30.9629 13.0535C30.4434 13.53 30.1133 13.8464 29.9727 14.0027C29.8359 14.1589 29.7246 14.3113 29.6387 14.4597H32.9082Z" fill="white"/>
<defs>
<linearGradient id="paint0_linear_42_2587" x1="21.5" y1="1.98901" x2="21.5" y2="21.989" gradientUnits="userSpaceOnUse">
<stop stop-color="#C98500"/>
<stop offset="1" stop-color="#8BC9D0"/>
</linearGradient>
</defs>
</svg>
