<svg width="56" height="24" viewBox="0 0 56 24" fill="none" xmlns="http://www.w3.org/2000/svg">
<rect x="2" y="1.98901" width="53" height="20" rx="10" fill="url(#paint0_linear_84_2018)"/>
<rect x="2" y="1.98901" width="53" height="20" rx="10" stroke="#B6C622" stroke-width="3" stroke-linejoin="round"/>
<path d="M11.959 15.989V8.85229H9.41016V7.39917H16.2363V8.85229H13.6934V15.989H11.959ZM17.3672 15.989V7.39917H21.0176C21.9355 7.39917 22.6016 7.47729 23.0156 7.63354C23.4336 7.78589 23.7676 8.05933 24.0176 8.45386C24.2676 8.84839 24.3926 9.29956 24.3926 9.80737C24.3926 10.4519 24.2031 10.9851 23.8242 11.407C23.4453 11.825 22.8789 12.0886 22.125 12.198C22.5 12.4167 22.8086 12.657 23.0508 12.9187C23.2969 13.1804 23.627 13.6453 24.041 14.3132L25.0898 15.989H23.0156L21.7617 14.1199C21.3164 13.4519 21.0117 13.032 20.8477 12.8601C20.6836 12.6843 20.5098 12.5652 20.3262 12.5027C20.1426 12.4363 19.8516 12.4031 19.4531 12.4031H19.1016V15.989H17.3672ZM19.1016 11.032H20.3848C21.2168 11.032 21.7363 10.9968 21.9434 10.9265C22.1504 10.8562 22.3125 10.7351 22.4297 10.5632C22.5469 10.3914 22.6055 10.1765 22.6055 9.9187C22.6055 9.62964 22.5273 9.39722 22.3711 9.22144C22.2188 9.04175 22.002 8.92847 21.7207 8.88159C21.5801 8.86206 21.1582 8.85229 20.4551 8.85229H19.1016V11.032ZM26.0508 15.989V7.39917H27.7383L31.2539 13.1355V7.39917H32.8652V15.989H31.125L27.6621 10.3875V15.989H26.0508ZM36.6387 15.989V8.85229H34.0898V7.39917H40.916V8.85229H38.373V15.989H36.6387ZM45.8906 15.989H44.2441V9.78394C43.6426 10.3464 42.9336 10.7625 42.1172 11.032V9.53784C42.5469 9.39722 43.0137 9.13159 43.5176 8.74097C44.0215 8.34644 44.3672 7.88745 44.5547 7.36401H45.8906V15.989Z" fill="white"/>
<defs>
<linearGradient id="paint0_linear_84_2018" x1="28.5" y1="1.98901" x2="28.5" y2="21.989" gradientUnits="userSpaceOnUse">
<stop stop-color="#B6C622"/>
<stop offset="1" stop-color="#AB8B81"/>
</linearGradient>
</defs>
</svg>
