<svg width="65" height="24" viewBox="0 0 65 24" fill="none" xmlns="http://www.w3.org/2000/svg">
<rect x="1" y="1.98901" width="63" height="20" rx="10" fill="url(#paint0_linear_52_1856)"/>
<rect x="1" y="1.98901" width="63" height="20" rx="10" stroke="#0053CC" stroke-width="3" stroke-linejoin="round"/>
<path d="M8.99805 15.989V7.39917H11.5938L13.1523 13.2585L14.6934 7.39917H17.2949V15.989H15.6836V9.22729L13.9785 15.989H12.3086L10.6094 9.22729V15.989H8.99805ZM26.7637 15.989H24.877L24.127 14.0378H20.6934L19.9844 15.989H18.1445L21.4902 7.39917H23.3242L26.7637 15.989ZM23.5703 12.5906L22.3867 9.40308L21.2266 12.5906H23.5703ZM27.6895 15.989V7.39917H30.4727C31.5273 7.39917 32.2148 7.44214 32.5352 7.52808C33.0273 7.65698 33.4395 7.93823 33.7715 8.37183C34.1035 8.80151 34.2695 9.35815 34.2695 10.0417C34.2695 10.5691 34.1738 11.0125 33.9824 11.3718C33.791 11.7312 33.5469 12.0144 33.25 12.2214C32.957 12.4246 32.6582 12.5593 32.3535 12.6257C31.9395 12.7078 31.3398 12.7488 30.5547 12.7488H29.4238V15.989H27.6895ZM29.4238 8.85229V11.2898H30.373C31.0566 11.2898 31.5137 11.2449 31.7441 11.155C31.9746 11.0652 32.1543 10.9246 32.2832 10.7332C32.416 10.5417 32.4824 10.3191 32.4824 10.0652C32.4824 9.75269 32.3906 9.49487 32.207 9.29175C32.0234 9.08862 31.791 8.96167 31.5098 8.91089C31.3027 8.87183 30.8867 8.85229 30.2617 8.85229H29.4238ZM40.8906 14.4597V15.989H35.1191C35.1816 15.4109 35.3691 14.864 35.6816 14.3484C35.9941 13.8289 36.6113 13.1414 37.5332 12.2859C38.2754 11.5945 38.7305 11.1257 38.8984 10.8796C39.125 10.5398 39.2383 10.2039 39.2383 9.87183C39.2383 9.50464 39.1387 9.22339 38.9395 9.02808C38.7441 8.82886 38.4727 8.72925 38.125 8.72925C37.7812 8.72925 37.5078 8.83276 37.3047 9.03979C37.1016 9.24683 36.9844 9.59058 36.9531 10.071L35.3125 9.90698C35.4102 9.00073 35.7168 8.35034 36.2324 7.95581C36.748 7.56128 37.3926 7.36401 38.166 7.36401C39.0137 7.36401 39.6797 7.59253 40.1641 8.04956C40.6484 8.50659 40.8906 9.07495 40.8906 9.75464C40.8906 10.1414 40.8203 10.5105 40.6797 10.8621C40.543 11.2097 40.3242 11.575 40.0234 11.9578C39.8242 12.2117 39.4648 12.5769 38.9453 13.0535C38.4258 13.53 38.0957 13.8464 37.9551 14.0027C37.8184 14.1589 37.707 14.3113 37.6211 14.4597H40.8906ZM42.3965 15.989V7.39917H44.1309V11.2136L47.6348 7.39917H49.9668L46.7324 10.7449L50.1426 15.989H47.8984L45.5371 11.9578L44.1309 13.3933V15.989H42.3965ZM50.7051 13.78L52.3457 13.6101C52.3926 13.9812 52.5312 14.2761 52.7617 14.4949C52.9922 14.7097 53.2578 14.8171 53.5586 14.8171C53.9023 14.8171 54.1934 14.6785 54.4316 14.4011C54.6699 14.1199 54.7891 13.698 54.7891 13.1355C54.7891 12.6082 54.6699 12.2136 54.4316 11.9519C54.1973 11.6863 53.8906 11.5535 53.5117 11.5535C53.0391 11.5535 52.6152 11.7625 52.2402 12.1804L50.9043 11.9871L51.748 7.51636H56.1016V9.05737H52.9961L52.7383 10.5164C53.1055 10.3328 53.4805 10.241 53.8633 10.241C54.5938 10.241 55.2129 10.5066 55.7207 11.0378C56.2285 11.5691 56.4824 12.2585 56.4824 13.1062C56.4824 13.8132 56.2773 14.4441 55.8672 14.9988C55.3086 15.7566 54.5332 16.1355 53.541 16.1355C52.748 16.1355 52.1016 15.9226 51.6016 15.4968C51.1016 15.071 50.8027 14.4988 50.7051 13.78Z" fill="white"/>
<defs>
<linearGradient id="paint0_linear_52_1856" x1="32.5" y1="1.98901" x2="32.5" y2="21.989" gradientUnits="userSpaceOnUse">
<stop stop-color="#0053CC"/>
<stop offset="1" stop-color="#BAB72B"/>
</linearGradient>
</defs>
</svg>
