<svg width="46" height="24" viewBox="0 0 46 24" fill="none" xmlns="http://www.w3.org/2000/svg">
<rect x="2" y="1.98901" width="43" height="20" rx="10" fill="url(#paint0_linear_85_2063)"/>
<rect x="2" y="1.98901" width="43" height="20" rx="10" stroke="#997CA8" stroke-width="3" stroke-linejoin="round"/>
<path d="M11.9629 15.989V8.85229H9.41406V7.39917H16.2402V8.85229H13.6973V15.989H11.9629ZM19.2988 15.989V8.85229H16.75V7.39917H23.5762V8.85229H21.0332V15.989H19.2988ZM24.7129 15.989V7.39917H30.6016V8.85229H26.4473V10.8855H30.0332V12.3386H26.4473V15.989H24.7129ZM35.8867 15.989H34.2402V9.78394C33.6387 10.3464 32.9297 10.7625 32.1133 11.032V9.53784C32.543 9.39722 33.0098 9.13159 33.5137 8.74097C34.0176 8.34644 34.3633 7.88745 34.5508 7.36401H35.8867V15.989Z" fill="white"/>
<defs>
<linearGradient id="paint0_linear_85_2063" x1="23.5" y1="1.98901" x2="23.5" y2="21.989" gradientUnits="userSpaceOnUse">
<stop stop-color="#997CA8"/>
<stop offset="1" stop-color="#1F5EB7"/>
</linearGradient>
</defs>
</svg>
