<svg width="54" height="24" viewBox="0 0 54 24" fill="none" xmlns="http://www.w3.org/2000/svg">
<rect x="2" y="1.98901" width="51" height="20" rx="10" fill="url(#paint0_linear_64_1953)"/>
<rect x="2" y="1.98901" width="51" height="20" rx="10" stroke="#64A54F" stroke-width="3" stroke-linejoin="round"/>
<path d="M10.3555 15.989V7.39917H13.1387C14.1934 7.39917 14.8809 7.44214 15.2012 7.52808C15.6934 7.65698 16.1055 7.93823 16.4375 8.37183C16.7695 8.80151 16.9355 9.35815 16.9355 10.0417C16.9355 10.5691 16.8398 11.0125 16.6484 11.3718C16.457 11.7312 16.2129 12.0144 15.916 12.2214C15.623 12.4246 15.3242 12.5593 15.0195 12.6257C14.6055 12.7078 14.0059 12.7488 13.2207 12.7488H12.0898V15.989H10.3555ZM12.0898 8.85229V11.2898H13.0391C13.7227 11.2898 14.1797 11.2449 14.4102 11.155C14.6406 11.0652 14.8203 10.9246 14.9492 10.7332C15.082 10.5417 15.1484 10.3191 15.1484 10.0652C15.1484 9.75269 15.0566 9.49487 14.873 9.29175C14.6895 9.08862 14.457 8.96167 14.1758 8.91089C13.9688 8.87183 13.5527 8.85229 12.9277 8.85229H12.0898ZM18.3066 15.989V7.39917H20.041V15.989H18.3066ZM21.2773 13.7097L22.8711 13.5164C22.9219 13.9226 23.0586 14.2332 23.2812 14.448C23.5039 14.6628 23.7734 14.7703 24.0898 14.7703C24.4297 14.7703 24.7148 14.6414 24.9453 14.3835C25.1797 14.1257 25.2969 13.7781 25.2969 13.3406C25.2969 12.9265 25.1855 12.5984 24.9629 12.3562C24.7402 12.114 24.4688 11.9929 24.1484 11.9929C23.9375 11.9929 23.6855 12.0339 23.3926 12.116L23.5742 10.7742C24.0195 10.7859 24.3594 10.6902 24.5938 10.4871C24.8281 10.28 24.9453 10.0066 24.9453 9.66675C24.9453 9.37769 24.8594 9.14722 24.6875 8.97534C24.5156 8.80347 24.2871 8.71753 24.002 8.71753C23.7207 8.71753 23.4805 8.81519 23.2812 9.0105C23.082 9.20581 22.9609 9.49097 22.918 9.86597L21.4004 9.60815C21.5059 9.08862 21.6641 8.67456 21.875 8.36597C22.0898 8.05347 22.3867 7.80933 22.7656 7.63354C23.1484 7.45386 23.5762 7.36401 24.0488 7.36401C24.8574 7.36401 25.5059 7.62183 25.9941 8.13745C26.3965 8.55933 26.5977 9.03589 26.5977 9.56714C26.5977 10.321 26.1855 10.9226 25.3613 11.3718C25.8535 11.4773 26.2461 11.7136 26.5391 12.0808C26.8359 12.448 26.9844 12.8914 26.9844 13.4109C26.9844 14.1648 26.709 14.8074 26.1582 15.3386C25.6074 15.8699 24.9219 16.1355 24.1016 16.1355C23.3242 16.1355 22.6797 15.9128 22.168 15.4675C21.6562 15.0183 21.3594 14.4324 21.2773 13.7097ZM28.4023 15.989V7.39917H30.1367V11.2136L33.6406 7.39917H35.9727L32.7383 10.7449L36.1484 15.989H33.9043L31.543 11.9578L30.1367 13.3933V15.989H28.4023ZM41.0469 12.8308V11.3835H44.7852V14.8054C44.4219 15.157 43.8945 15.4675 43.2031 15.7371C42.5156 16.0027 41.8184 16.1355 41.1113 16.1355C40.2129 16.1355 39.4297 15.948 38.7617 15.573C38.0938 15.1941 37.5918 14.655 37.2559 13.9558C36.9199 13.2527 36.752 12.489 36.752 11.6648C36.752 10.7703 36.9395 9.97534 37.3145 9.28003C37.6895 8.58472 38.2383 8.05151 38.9609 7.68042C39.5117 7.39526 40.1973 7.25269 41.0176 7.25269C42.084 7.25269 42.916 7.47729 43.5137 7.92651C44.1152 8.37183 44.502 8.98901 44.6738 9.77808L42.9512 10.1003C42.8301 9.67847 42.6016 9.34644 42.2656 9.10425C41.9336 8.85815 41.5176 8.73511 41.0176 8.73511C40.2598 8.73511 39.6562 8.97534 39.207 9.45581C38.7617 9.93628 38.5391 10.6492 38.5391 11.5945C38.5391 12.614 38.7656 13.3796 39.2188 13.8914C39.6719 14.3992 40.2656 14.6531 41 14.6531C41.3633 14.6531 41.7266 14.5828 42.0898 14.4421C42.457 14.2976 42.7715 14.1238 43.0332 13.9207V12.8308H41.0469Z" fill="white"/>
<defs>
<linearGradient id="paint0_linear_64_1953" x1="27.5" y1="1.98901" x2="27.5" y2="21.989" gradientUnits="userSpaceOnUse">
<stop stop-color="#64A54F"/>
<stop offset="1" stop-color="#931741"/>
</linearGradient>
</defs>
</svg>
