<svg width="76" height="24" viewBox="0 0 76 24" fill="none" xmlns="http://www.w3.org/2000/svg">
<rect x="1" y="1.98901" width="74" height="20" rx="10" fill="url(#paint0_linear_66_2024)"/>
<rect x="1" y="1.98901" width="74" height="20" rx="10" stroke="#2F1440" stroke-width="3" stroke-linejoin="round"/>
<path d="M9.18945 15.989V7.39917H11.9727C13.0273 7.39917 13.7148 7.44214 14.0352 7.52808C14.5273 7.65698 14.9395 7.93823 15.2715 8.37183C15.6035 8.80151 15.7695 9.35815 15.7695 10.0417C15.7695 10.5691 15.6738 11.0125 15.4824 11.3718C15.291 11.7312 15.0469 12.0144 14.75 12.2214C14.457 12.4246 14.1582 12.5593 13.8535 12.6257C13.4395 12.7078 12.8398 12.7488 12.0547 12.7488H10.9238V15.989H9.18945ZM10.9238 8.85229V11.2898H11.873C12.5566 11.2898 13.0137 11.2449 13.2441 11.155C13.4746 11.0652 13.6543 10.9246 13.7832 10.7332C13.916 10.5417 13.9824 10.3191 13.9824 10.0652C13.9824 9.75269 13.8906 9.49487 13.707 9.29175C13.5234 9.08862 13.291 8.96167 13.0098 8.91089C12.8027 8.87183 12.3867 8.85229 11.7617 8.85229H10.9238ZM16.8418 11.7468C16.8418 10.8718 16.9727 10.1375 17.2344 9.5437C17.4297 9.1062 17.6953 8.71362 18.0312 8.36597C18.3711 8.01831 18.7422 7.7605 19.1445 7.59253C19.6797 7.36597 20.2969 7.25269 20.9961 7.25269C22.2617 7.25269 23.2734 7.64526 24.0312 8.43042C24.793 9.21558 25.1738 10.3074 25.1738 11.7058C25.1738 13.0925 24.7969 14.1785 24.043 14.9636C23.2891 15.7449 22.2812 16.1355 21.0195 16.1355C19.7422 16.1355 18.7266 15.7468 17.9727 14.9695C17.2188 14.1882 16.8418 13.114 16.8418 11.7468ZM18.6289 11.6882C18.6289 12.6609 18.8535 13.3992 19.3027 13.9031C19.752 14.4031 20.3223 14.6531 21.0137 14.6531C21.7051 14.6531 22.2715 14.405 22.7129 13.9089C23.1582 13.4089 23.3809 12.6609 23.3809 11.6648C23.3809 10.6804 23.1641 9.94604 22.7305 9.46167C22.3008 8.97729 21.7285 8.73511 21.0137 8.73511C20.2988 8.73511 19.7227 8.9812 19.2852 9.47339C18.8477 9.96167 18.6289 10.7 18.6289 11.6882ZM26.5098 15.989V7.39917H29.1055L30.6641 13.2585L32.2051 7.39917H34.8066V15.989H33.1953V9.22729L31.4902 15.989H29.8203L28.1211 9.22729V15.989H26.5098ZM40.5254 12.8308V11.3835H44.2637V14.8054C43.9004 15.157 43.373 15.4675 42.6816 15.7371C41.9941 16.0027 41.2969 16.1355 40.5898 16.1355C39.6914 16.1355 38.9082 15.948 38.2402 15.573C37.5723 15.1941 37.0703 14.655 36.7344 13.9558C36.3984 13.2527 36.2305 12.489 36.2305 11.6648C36.2305 10.7703 36.418 9.97534 36.793 9.28003C37.168 8.58472 37.7168 8.05151 38.4395 7.68042C38.9902 7.39526 39.6758 7.25269 40.4961 7.25269C41.5625 7.25269 42.3945 7.47729 42.9922 7.92651C43.5938 8.37183 43.9805 8.98901 44.1523 9.77808L42.4297 10.1003C42.3086 9.67847 42.0801 9.34644 41.7441 9.10425C41.4121 8.85815 40.9961 8.73511 40.4961 8.73511C39.7383 8.73511 39.1348 8.97534 38.6855 9.45581C38.2402 9.93628 38.0176 10.6492 38.0176 11.5945C38.0176 12.614 38.2441 13.3796 38.6973 13.8914C39.1504 14.3992 39.7441 14.6531 40.4785 14.6531C40.8418 14.6531 41.2051 14.5828 41.5684 14.4421C41.9355 14.2976 42.25 14.1238 42.5117 13.9207V12.8308H40.5254ZM45.8867 15.989V7.39917H47.5742L51.0898 13.1355V7.39917H52.7012V15.989H50.9609L47.498 10.3875V15.989H45.8867ZM56.4746 15.989V8.85229H53.9258V7.39917H60.752V8.85229H58.209V15.989H56.4746ZM65.7266 15.989H64.0801V9.78394C63.4785 10.3464 62.7695 10.7625 61.9531 11.032V9.53784C62.3828 9.39722 62.8496 9.13159 63.3535 8.74097C63.8574 8.34644 64.2031 7.88745 64.3906 7.36401H65.7266V15.989Z" fill="white"/>
<defs>
<linearGradient id="paint0_linear_66_2024" x1="38" y1="1.98901" x2="38" y2="21.989" gradientUnits="userSpaceOnUse">
<stop stop-color="#2F1440"/>
<stop offset="1" stop-color="#DE83E3"/>
</linearGradient>
</defs>
</svg>
