<svg width="58" height="24" viewBox="0 0 58 24" fill="none" xmlns="http://www.w3.org/2000/svg">
<rect x="2" y="1.98901" width="55" height="20" rx="10" fill="url(#paint0_linear_38_1850)"/>
<rect x="2" y="1.98901" width="55" height="20" rx="10" stroke="#C20084" stroke-width="3" stroke-linejoin="round"/>
<path d="M15.5195 12.8308L17.2012 13.364C16.9434 14.3015 16.5137 14.9988 15.9121 15.4558C15.3145 15.9089 14.5547 16.1355 13.6328 16.1355C12.4922 16.1355 11.5547 15.7468 10.8203 14.9695C10.0859 14.1882 9.71875 13.1218 9.71875 11.7703C9.71875 10.3406 10.0879 9.2312 10.8262 8.44214C11.5645 7.64917 12.5352 7.25269 13.7383 7.25269C14.7891 7.25269 15.6426 7.56323 16.2988 8.18433C16.6895 8.55151 16.9824 9.07886 17.1777 9.76636L15.4609 10.1765C15.3594 9.7312 15.1465 9.37964 14.8223 9.12183C14.502 8.86401 14.1113 8.73511 13.6504 8.73511C13.0137 8.73511 12.4961 8.96362 12.0977 9.42065C11.7031 9.87769 11.5059 10.6179 11.5059 11.6414C11.5059 12.7273 11.7012 13.5007 12.0918 13.9617C12.4824 14.4226 12.9902 14.6531 13.6152 14.6531C14.0762 14.6531 14.4727 14.5066 14.8047 14.2136C15.1367 13.9207 15.375 13.4597 15.5195 12.8308ZM18.6895 7.39917H21.8594C22.5742 7.39917 23.1191 7.45386 23.4941 7.56323C23.998 7.71167 24.4297 7.97534 24.7891 8.35425C25.1484 8.73315 25.4219 9.198 25.6094 9.74878C25.7969 10.2957 25.8906 10.9714 25.8906 11.7761C25.8906 12.4832 25.8027 13.0925 25.627 13.6042C25.4121 14.2292 25.1055 14.7351 24.707 15.1218C24.4062 15.4148 24 15.6433 23.4883 15.8074C23.1055 15.9285 22.5938 15.989 21.9531 15.989H18.6895V7.39917ZM20.4238 8.85229V14.5417H21.7188C22.2031 14.5417 22.5527 14.5144 22.7676 14.4597C23.0488 14.3894 23.2812 14.2703 23.4648 14.1023C23.6523 13.9343 23.8047 13.6589 23.9219 13.2761C24.0391 12.8894 24.0977 12.364 24.0977 11.7C24.0977 11.0359 24.0391 10.5261 23.9219 10.1707C23.8047 9.81519 23.6406 9.53784 23.4297 9.33862C23.2188 9.1394 22.9512 9.00464 22.627 8.93433C22.3848 8.87964 21.9102 8.85229 21.2031 8.85229H20.4238ZM32.5645 14.4597V15.989H26.793C26.8555 15.4109 27.043 14.864 27.3555 14.3484C27.668 13.8289 28.2852 13.1414 29.207 12.2859C29.9492 11.5945 30.4043 11.1257 30.5723 10.8796C30.7988 10.5398 30.9121 10.2039 30.9121 9.87183C30.9121 9.50464 30.8125 9.22339 30.6133 9.02808C30.418 8.82886 30.1465 8.72925 29.7988 8.72925C29.4551 8.72925 29.1816 8.83276 28.9785 9.03979C28.7754 9.24683 28.6582 9.59058 28.627 10.071L26.9863 9.90698C27.084 9.00073 27.3906 8.35034 27.9062 7.95581C28.4219 7.56128 29.0664 7.36401 29.8398 7.36401C30.6875 7.36401 31.3535 7.59253 31.8379 8.04956C32.3223 8.50659 32.5645 9.07495 32.5645 9.75464C32.5645 10.1414 32.4941 10.5105 32.3535 10.8621C32.2168 11.2097 31.998 11.575 31.6973 11.9578C31.498 12.2117 31.1387 12.5769 30.6191 13.0535C30.0996 13.53 29.7695 13.8464 29.6289 14.0027C29.4922 14.1589 29.3809 14.3113 29.2949 14.4597H32.5645ZM41.793 15.989H39.9062L39.1562 14.0378H35.7227L35.0137 15.989H33.1738L36.5195 7.39917H38.3535L41.793 15.989ZM38.5996 12.5906L37.416 9.40308L36.2559 12.5906H38.5996ZM42.7188 15.989V7.39917H45.502C46.5566 7.39917 47.2441 7.44214 47.5645 7.52808C48.0566 7.65698 48.4688 7.93823 48.8008 8.37183C49.1328 8.80151 49.2988 9.35815 49.2988 10.0417C49.2988 10.5691 49.2031 11.0125 49.0117 11.3718C48.8203 11.7312 48.5762 12.0144 48.2793 12.2214C47.9863 12.4246 47.6875 12.5593 47.3828 12.6257C46.9688 12.7078 46.3691 12.7488 45.584 12.7488H44.4531V15.989H42.7188ZM44.4531 8.85229V11.2898H45.4023C46.0859 11.2898 46.543 11.2449 46.7734 11.155C47.0039 11.0652 47.1836 10.9246 47.3125 10.7332C47.4453 10.5417 47.5117 10.3191 47.5117 10.0652C47.5117 9.75269 47.4199 9.49487 47.2363 9.29175C47.0527 9.08862 46.8203 8.96167 46.5391 8.91089C46.332 8.87183 45.916 8.85229 45.291 8.85229H44.4531Z" fill="white"/>
<defs>
<linearGradient id="paint0_linear_38_1850" x1="29.5" y1="1.98901" x2="29.5" y2="21.989" gradientUnits="userSpaceOnUse">
<stop stop-color="#FF9D00"/>
<stop offset="1" stop-color="#C20084"/>
</linearGradient>
</defs>
</svg>
