<svg width="56" height="24" viewBox="0 0 56 24" fill="none" xmlns="http://www.w3.org/2000/svg">
<rect x="2" y="1.98901" width="53" height="20" rx="10" fill="url(#paint0_linear_67_1933)"/>
<rect x="2" y="1.98901" width="53" height="20" rx="10" stroke="#25179B" stroke-width="3" stroke-linejoin="round"/>
<path d="M9.58594 13.1941L11.2734 13.03C11.375 13.5964 11.5801 14.0125 11.8887 14.2781C12.2012 14.5437 12.6211 14.6765 13.1484 14.6765C13.707 14.6765 14.127 14.5593 14.4082 14.325C14.6934 14.0867 14.8359 13.8093 14.8359 13.4929C14.8359 13.2898 14.7754 13.1179 14.6543 12.9773C14.5371 12.8328 14.3301 12.7078 14.0332 12.6023C13.8301 12.532 13.3672 12.407 12.6445 12.2273C11.7148 11.9968 11.0625 11.7136 10.6875 11.3777C10.1602 10.905 9.89648 10.3289 9.89648 9.64917C9.89648 9.21167 10.0195 8.80347 10.2656 8.42456C10.5156 8.04175 10.873 7.75073 11.3379 7.55151C11.8066 7.35229 12.3711 7.25269 13.0312 7.25269C14.1094 7.25269 14.9199 7.48901 15.4629 7.96167C16.0098 8.43433 16.2969 9.06519 16.3242 9.85425L14.5898 9.93042C14.5156 9.48901 14.3555 9.17261 14.1094 8.9812C13.8672 8.78589 13.502 8.68823 13.0137 8.68823C12.5098 8.68823 12.1152 8.79175 11.8301 8.99878C11.6465 9.13159 11.5547 9.30933 11.5547 9.53198C11.5547 9.73511 11.6406 9.90894 11.8125 10.0535C12.0312 10.2371 12.5625 10.4285 13.4062 10.6277C14.25 10.8269 14.873 11.0339 15.2754 11.2488C15.6816 11.4597 15.998 11.7507 16.2246 12.1218C16.4551 12.489 16.5703 12.9441 16.5703 13.4871C16.5703 13.9792 16.4336 14.4402 16.1602 14.8699C15.8867 15.2996 15.5 15.6199 15 15.8308C14.5 16.0378 13.877 16.1414 13.1309 16.1414C12.0449 16.1414 11.2109 15.8914 10.6289 15.3914C10.0469 14.8875 9.69922 14.155 9.58594 13.1941ZM18.0293 15.989V7.39917H24.3984V8.85229H19.7637V10.7566H24.0762V12.2039H19.7637V14.5417H24.5625V15.989H18.0293ZM27.9668 15.989V8.85229H25.418V7.39917H32.2441V8.85229H29.7012V15.989H27.9668ZM33.3633 7.39917H36.5332C37.248 7.39917 37.793 7.45386 38.168 7.56323C38.6719 7.71167 39.1035 7.97534 39.4629 8.35425C39.8223 8.73315 40.0957 9.198 40.2832 9.74878C40.4707 10.2957 40.5645 10.9714 40.5645 11.7761C40.5645 12.4832 40.4766 13.0925 40.3008 13.6042C40.0859 14.2292 39.7793 14.7351 39.3809 15.1218C39.0801 15.4148 38.6738 15.6433 38.1621 15.8074C37.7793 15.9285 37.2676 15.989 36.627 15.989H33.3633V7.39917ZM35.0977 8.85229V14.5417H36.3926C36.877 14.5417 37.2266 14.5144 37.4414 14.4597C37.7227 14.3894 37.9551 14.2703 38.1387 14.1023C38.3262 13.9343 38.4785 13.6589 38.5957 13.2761C38.7129 12.8894 38.7715 12.364 38.7715 11.7C38.7715 11.0359 38.7129 10.5261 38.5957 10.1707C38.4785 9.81519 38.3145 9.53784 38.1035 9.33862C37.8926 9.1394 37.625 9.00464 37.3008 8.93433C37.0586 8.87964 36.584 8.85229 35.877 8.85229H35.0977ZM43.0898 11.3542C42.6641 11.1746 42.3535 10.9285 42.1582 10.616C41.9668 10.2996 41.8711 9.95386 41.8711 9.57886C41.8711 8.93823 42.0938 8.40894 42.5391 7.99097C42.9883 7.573 43.625 7.36401 44.4492 7.36401C45.2656 7.36401 45.8984 7.573 46.3477 7.99097C46.8008 8.40894 47.0273 8.93823 47.0273 9.57886C47.0273 9.97729 46.9238 10.3328 46.7168 10.6453C46.5098 10.9539 46.2188 11.1902 45.8438 11.3542C46.3203 11.5457 46.6816 11.825 46.9277 12.1921C47.1777 12.5593 47.3027 12.9832 47.3027 13.4636C47.3027 14.2566 47.0488 14.9011 46.541 15.3972C46.0371 15.8933 45.3652 16.1414 44.5254 16.1414C43.7441 16.1414 43.0938 15.9363 42.5742 15.5261C41.9609 15.0417 41.6543 14.3777 41.6543 13.5339C41.6543 13.0691 41.7695 12.6433 42 12.2566C42.2305 11.866 42.5938 11.5652 43.0898 11.3542ZM43.4297 9.69604C43.4297 10.0242 43.5215 10.28 43.7051 10.4636C43.8926 10.6472 44.1406 10.739 44.4492 10.739C44.7617 10.739 45.0117 10.6472 45.1992 10.4636C45.3867 10.2761 45.4805 10.0183 45.4805 9.69019C45.4805 9.38159 45.3867 9.1355 45.1992 8.9519C45.0156 8.7644 44.7715 8.67065 44.4668 8.67065C44.1504 8.67065 43.8984 8.7644 43.7109 8.9519C43.5234 9.1394 43.4297 9.38745 43.4297 9.69604ZM43.2773 13.3757C43.2773 13.8289 43.3926 14.1824 43.623 14.4363C43.8574 14.6902 44.1484 14.8171 44.4961 14.8171C44.8359 14.8171 45.1172 14.696 45.3398 14.4539C45.5625 14.2078 45.6738 13.8542 45.6738 13.3933C45.6738 12.991 45.5605 12.6687 45.334 12.4265C45.1074 12.1804 44.8203 12.0574 44.4727 12.0574C44.0703 12.0574 43.7695 12.196 43.5703 12.4734C43.375 12.7507 43.2773 13.0515 43.2773 13.3757Z" fill="white"/>
<defs>
<linearGradient id="paint0_linear_67_1933" x1="28.5" y1="1.98901" x2="28.5" y2="21.989" gradientUnits="userSpaceOnUse">
<stop stop-color="#25179B"/>
<stop offset="1" stop-color="#FFA521"/>
</linearGradient>
</defs>
</svg>
