<svg width="52" height="24" viewBox="0 0 52 24" fill="none" xmlns="http://www.w3.org/2000/svg">
<rect x="2" y="1.98901" width="49" height="20" rx="10" fill="url(#paint0_linear_52_1869)"/>
<rect x="2" y="1.98901" width="49" height="20" rx="10" stroke="#00AAC4" stroke-width="3" stroke-linejoin="round"/>
<path d="M10.3398 15.989V7.39917H12.9355L14.4941 13.2585L16.0352 7.39917H18.6367V15.989H17.0254V9.22729L15.3203 15.989H13.6504L11.9512 9.22729V15.989H10.3398ZM20.3535 7.39917H23.5234C24.2383 7.39917 24.7832 7.45386 25.1582 7.56323C25.6621 7.71167 26.0938 7.97534 26.4531 8.35425C26.8125 8.73315 27.0859 9.198 27.2734 9.74878C27.4609 10.2957 27.5547 10.9714 27.5547 11.7761C27.5547 12.4832 27.4668 13.0925 27.291 13.6042C27.0762 14.2292 26.7695 14.7351 26.3711 15.1218C26.0703 15.4148 25.6641 15.6433 25.1523 15.8074C24.7695 15.9285 24.2578 15.989 23.6172 15.989H20.3535V7.39917ZM22.0879 8.85229V14.5417H23.3828C23.8672 14.5417 24.2168 14.5144 24.4316 14.4597C24.7129 14.3894 24.9453 14.2703 25.1289 14.1023C25.3164 13.9343 25.4688 13.6589 25.5859 13.2761C25.7031 12.8894 25.7617 12.364 25.7617 11.7C25.7617 11.0359 25.7031 10.5261 25.5859 10.1707C25.4688 9.81519 25.3047 9.53784 25.0938 9.33862C24.8828 9.1394 24.6152 9.00464 24.291 8.93433C24.0488 8.87964 23.5742 8.85229 22.8672 8.85229H22.0879ZM34.5273 12.8308L36.209 13.364C35.9512 14.3015 35.5215 14.9988 34.9199 15.4558C34.3223 15.9089 33.5625 16.1355 32.6406 16.1355C31.5 16.1355 30.5625 15.7468 29.8281 14.9695C29.0938 14.1882 28.7266 13.1218 28.7266 11.7703C28.7266 10.3406 29.0957 9.2312 29.834 8.44214C30.5723 7.64917 31.543 7.25269 32.7461 7.25269C33.7969 7.25269 34.6504 7.56323 35.3066 8.18433C35.6973 8.55151 35.9902 9.07886 36.1855 9.76636L34.4688 10.1765C34.3672 9.7312 34.1543 9.37964 33.8301 9.12183C33.5098 8.86401 33.1191 8.73511 32.6582 8.73511C32.0215 8.73511 31.5039 8.96362 31.1055 9.42065C30.7109 9.87769 30.5137 10.6179 30.5137 11.6414C30.5137 12.7273 30.709 13.5007 31.0996 13.9617C31.4902 14.4226 31.998 14.6531 32.623 14.6531C33.084 14.6531 33.4805 14.5066 33.8125 14.2136C34.1445 13.9207 34.3828 13.4597 34.5273 12.8308ZM41.5527 15.989H39.9062V9.78394C39.3047 10.3464 38.5957 10.7625 37.7793 11.032V9.53784C38.209 9.39722 38.6758 9.13159 39.1797 8.74097C39.6836 8.34644 40.0293 7.88745 40.2168 7.36401H41.5527V15.989Z" fill="white"/>
<defs>
<linearGradient id="paint0_linear_52_1869" x1="26.5" y1="1.98901" x2="26.5" y2="21.989" gradientUnits="userSpaceOnUse">
<stop stop-color="#00AAC4"/>
<stop offset="1" stop-color="#00283B"/>
</linearGradient>
</defs>
</svg>
