<svg width="88" height="24" viewBox="0 0 88 24" fill="none" xmlns="http://www.w3.org/2000/svg">
<rect x="1" y="1.98901" width="86" height="20" rx="10" fill="url(#paint0_linear_64_1845)"/>
<rect x="1" y="1.98901" width="86" height="20" rx="10" stroke="#D7411F" stroke-width="3" stroke-linejoin="round"/>
<path d="M9.14258 15.989V7.39917H11.7383L13.2969 13.2585L14.8379 7.39917H17.4395V15.989H15.8281V9.22729L14.123 15.989H12.4531L10.7539 9.22729V15.989H9.14258ZM18.3594 15.989L20.6035 12.7839L18.4531 9.76636H20.4629L21.5645 11.4773L22.7246 9.76636H24.6582L22.5488 12.7136L24.8516 15.989H22.8301L21.5645 14.0613L20.2871 15.989H18.3594ZM33.1777 12.8308V11.3835H36.916V14.8054C36.5527 15.157 36.0254 15.4675 35.334 15.7371C34.6465 16.0027 33.9492 16.1355 33.2422 16.1355C32.3438 16.1355 31.5605 15.948 30.8926 15.573C30.2246 15.1941 29.7227 14.655 29.3867 13.9558C29.0508 13.2527 28.8828 12.489 28.8828 11.6648C28.8828 10.7703 29.0703 9.97534 29.4453 9.28003C29.8203 8.58472 30.3691 8.05151 31.0918 7.68042C31.6426 7.39526 32.3281 7.25269 33.1484 7.25269C34.2148 7.25269 35.0469 7.47729 35.6445 7.92651C36.2461 8.37183 36.6328 8.98901 36.8047 9.77808L35.082 10.1003C34.9609 9.67847 34.7324 9.34644 34.3965 9.10425C34.0645 8.85815 33.6484 8.73511 33.1484 8.73511C32.3906 8.73511 31.7871 8.97534 31.3379 9.45581C30.8926 9.93628 30.6699 10.6492 30.6699 11.5945C30.6699 12.614 30.8965 13.3796 31.3496 13.8914C31.8027 14.3992 32.3965 14.6531 33.1309 14.6531C33.4941 14.6531 33.8574 14.5828 34.2207 14.4421C34.5879 14.2976 34.9023 14.1238 35.1641 13.9207V12.8308H33.1777ZM40.4551 15.989V8.85229H37.9062V7.39917H44.7324V8.85229H42.1895V15.989H40.4551ZM45.8574 15.989V7.39917H48.6406C49.6953 7.39917 50.3828 7.44214 50.7031 7.52808C51.1953 7.65698 51.6074 7.93823 51.9395 8.37183C52.2715 8.80151 52.4375 9.35815 52.4375 10.0417C52.4375 10.5691 52.3418 11.0125 52.1504 11.3718C51.959 11.7312 51.7148 12.0144 51.418 12.2214C51.125 12.4246 50.8262 12.5593 50.5215 12.6257C50.1074 12.7078 49.5078 12.7488 48.7227 12.7488H47.5918V15.989H45.8574ZM47.5918 8.85229V11.2898H48.541C49.2246 11.2898 49.6816 11.2449 49.9121 11.155C50.1426 11.0652 50.3223 10.9246 50.4512 10.7332C50.584 10.5417 50.6504 10.3191 50.6504 10.0652C50.6504 9.75269 50.5586 9.49487 50.375 9.29175C50.1914 9.08862 49.959 8.96167 49.6777 8.91089C49.4707 8.87183 49.0547 8.85229 48.4297 8.85229H47.5918ZM55.0801 11.6648L53.5859 11.3953C53.7539 10.7937 54.043 10.3484 54.4531 10.0593C54.8633 9.77026 55.4727 9.62573 56.2812 9.62573C57.0156 9.62573 57.5625 9.71362 57.9219 9.8894C58.2812 10.0613 58.5332 10.282 58.6777 10.5515C58.8262 10.8171 58.9004 11.3074 58.9004 12.0222L58.8828 13.9441C58.8828 14.491 58.9082 14.8953 58.959 15.157C59.0137 15.4148 59.1133 15.6921 59.2578 15.989H57.6289C57.5859 15.8796 57.5332 15.7175 57.4707 15.5027C57.4434 15.405 57.4238 15.3406 57.4121 15.3093C57.1309 15.5828 56.8301 15.7878 56.5098 15.9246C56.1895 16.0613 55.8477 16.1296 55.4844 16.1296C54.8438 16.1296 54.3379 15.9558 53.9668 15.6082C53.5996 15.2605 53.416 14.821 53.416 14.2898C53.416 13.9382 53.5 13.6257 53.668 13.3523C53.8359 13.075 54.0703 12.864 54.3711 12.7195C54.6758 12.571 55.1133 12.4421 55.6836 12.3328C56.4531 12.1882 56.9863 12.0535 57.2832 11.9285V11.7644C57.2832 11.448 57.2051 11.2234 57.0488 11.0906C56.8926 10.9539 56.5977 10.8855 56.1641 10.8855C55.8711 10.8855 55.6426 10.9441 55.4785 11.0613C55.3145 11.1746 55.1816 11.3757 55.0801 11.6648ZM57.2832 13.0007C57.0723 13.071 56.7383 13.155 56.2812 13.2527C55.8242 13.3503 55.5254 13.446 55.3848 13.5398C55.1699 13.6921 55.0625 13.8855 55.0625 14.1199C55.0625 14.3503 55.1484 14.5496 55.3203 14.7175C55.4922 14.8855 55.7109 14.9695 55.9766 14.9695C56.2734 14.9695 56.5566 14.8718 56.8262 14.6765C57.0254 14.5281 57.1562 14.3464 57.2188 14.1316C57.2617 13.991 57.2832 13.7234 57.2832 13.3289V13.0007ZM59.9492 14.2136L61.6016 13.9617C61.6719 14.282 61.8145 14.5261 62.0293 14.6941C62.2441 14.8582 62.5449 14.9402 62.9316 14.9402C63.3574 14.9402 63.6777 14.8621 63.8926 14.7058C64.0371 14.5964 64.1094 14.45 64.1094 14.2664C64.1094 14.1414 64.0703 14.0378 63.9922 13.9558C63.9102 13.8777 63.7266 13.8054 63.4414 13.739C62.1133 13.446 61.2715 13.1785 60.916 12.9363C60.4238 12.6003 60.1777 12.1335 60.1777 11.5359C60.1777 10.9968 60.3906 10.5437 60.8164 10.1765C61.2422 9.80933 61.9023 9.62573 62.7969 9.62573C63.6484 9.62573 64.2812 9.7644 64.6953 10.0417C65.1094 10.3191 65.3945 10.7292 65.5508 11.2722L63.998 11.5593C63.9316 11.3171 63.8047 11.1316 63.6172 11.0027C63.4336 10.8738 63.1699 10.8093 62.8262 10.8093C62.3926 10.8093 62.082 10.8699 61.8945 10.991C61.7695 11.0769 61.707 11.1882 61.707 11.325C61.707 11.4421 61.7617 11.5417 61.8711 11.6238C62.0195 11.7332 62.5312 11.8875 63.4062 12.0867C64.2852 12.2859 64.8984 12.53 65.2461 12.8191C65.5898 13.1121 65.7617 13.5203 65.7617 14.0437C65.7617 14.614 65.5234 15.1042 65.0469 15.5144C64.5703 15.9246 63.8652 16.1296 62.9316 16.1296C62.084 16.1296 61.4121 15.9578 60.916 15.614C60.4238 15.2703 60.1016 14.8035 59.9492 14.2136ZM70.8125 14.0085L72.4531 14.2839C72.2422 14.8855 71.9082 15.3445 71.4512 15.6609C70.998 15.9734 70.4297 16.1296 69.7461 16.1296C68.6641 16.1296 67.8633 15.7761 67.3438 15.0691C66.9336 14.5027 66.7285 13.7878 66.7285 12.9246C66.7285 11.8933 66.998 11.0867 67.5371 10.5046C68.0762 9.9187 68.7578 9.62573 69.582 9.62573C70.5078 9.62573 71.2383 9.93237 71.7734 10.5457C72.3086 11.155 72.5645 12.0906 72.541 13.3523H68.416C68.4277 13.8406 68.5605 14.2214 68.8145 14.4949C69.0684 14.7644 69.3848 14.8992 69.7637 14.8992C70.0215 14.8992 70.2383 14.8289 70.4141 14.6882C70.5898 14.5476 70.7227 14.321 70.8125 14.0085ZM70.9062 12.3445C70.8945 11.8679 70.7715 11.5066 70.5371 11.2605C70.3027 11.0105 70.0176 10.8855 69.6816 10.8855C69.3223 10.8855 69.0254 11.0164 68.791 11.2781C68.5566 11.5398 68.4414 11.8953 68.4453 12.3445H70.9062ZM73.3086 14.2136L74.9609 13.9617C75.0312 14.282 75.1738 14.5261 75.3887 14.6941C75.6035 14.8582 75.9043 14.9402 76.291 14.9402C76.7168 14.9402 77.0371 14.8621 77.252 14.7058C77.3965 14.5964 77.4688 14.45 77.4688 14.2664C77.4688 14.1414 77.4297 14.0378 77.3516 13.9558C77.2695 13.8777 77.0859 13.8054 76.8008 13.739C75.4727 13.446 74.6309 13.1785 74.2754 12.9363C73.7832 12.6003 73.5371 12.1335 73.5371 11.5359C73.5371 10.9968 73.75 10.5437 74.1758 10.1765C74.6016 9.80933 75.2617 9.62573 76.1562 9.62573C77.0078 9.62573 77.6406 9.7644 78.0547 10.0417C78.4688 10.3191 78.7539 10.7292 78.9102 11.2722L77.3574 11.5593C77.291 11.3171 77.1641 11.1316 76.9766 11.0027C76.793 10.8738 76.5293 10.8093 76.1855 10.8093C75.752 10.8093 75.4414 10.8699 75.2539 10.991C75.1289 11.0769 75.0664 11.1882 75.0664 11.325C75.0664 11.4421 75.1211 11.5417 75.2305 11.6238C75.3789 11.7332 75.8906 11.8875 76.7656 12.0867C77.6445 12.2859 78.2578 12.53 78.6055 12.8191C78.9492 13.1121 79.1211 13.5203 79.1211 14.0437C79.1211 14.614 78.8828 15.1042 78.4062 15.5144C77.9297 15.9246 77.2246 16.1296 76.291 16.1296C75.4434 16.1296 74.7715 15.9578 74.2754 15.614C73.7832 15.2703 73.4609 14.8035 73.3086 14.2136Z" fill="white"/>
<defs>
<linearGradient id="paint0_linear_64_1845" x1="44" y1="1.98901" x2="44" y2="21.989" gradientUnits="userSpaceOnUse">
<stop stop-color="#45ABFF"/>
<stop offset="1" stop-color="#D7411F"/>
</linearGradient>
</defs>
</svg>
