<svg width="87" height="24" viewBox="0 0 87 24" fill="none" xmlns="http://www.w3.org/2000/svg">
<rect x="1" y="1.98901" width="85" height="20" rx="10" fill="url(#paint0_linear_46_4306)"/>
<rect x="1" y="1.98901" width="85" height="20" rx="10" stroke="#724BBE" stroke-width="3" stroke-linejoin="round"/>
<path d="M9.00586 15.989V7.39917H10.7402V10.78H14.1387V7.39917H15.873V15.989H14.1387V12.2332H10.7402V15.989H9.00586ZM17.6895 15.989V7.39917H19.377L22.8926 13.1355V7.39917H24.5039V15.989H22.7637L19.3008 10.3875V15.989H17.6895ZM26.3555 15.989V7.39917H32.2441V8.85229H28.0898V10.8855H31.6758V12.3386H28.0898V15.989H26.3555ZM36.5449 15.989V14.2605H33.0293V12.8191L36.7559 7.36401H38.1387V12.8132H39.2051V14.2605H38.1387V15.989H36.5449ZM36.5449 12.8132V9.87769L34.5703 12.8132H36.5449ZM48.1055 15.989H46.2188L45.4688 14.0378H42.0352L41.3262 15.989H39.4863L42.832 7.39917H44.666L48.1055 15.989ZM44.9121 12.5906L43.7285 9.40308L42.5684 12.5906H44.9121ZM48.832 13.698V12.0515H52.0664V13.698H48.832ZM52.6875 13.78L54.3281 13.6101C54.375 13.9812 54.5137 14.2761 54.7441 14.4949C54.9746 14.7097 55.2402 14.8171 55.541 14.8171C55.8848 14.8171 56.1758 14.6785 56.4141 14.4011C56.6523 14.1199 56.7715 13.698 56.7715 13.1355C56.7715 12.6082 56.6523 12.2136 56.4141 11.9519C56.1797 11.6863 55.873 11.5535 55.4941 11.5535C55.0215 11.5535 54.5977 11.7625 54.2227 12.1804L52.8867 11.9871L53.7305 7.51636H58.084V9.05737H54.9785L54.7207 10.5164C55.0879 10.3328 55.4629 10.241 55.8457 10.241C56.5762 10.241 57.1953 10.5066 57.7031 11.0378C58.2109 11.5691 58.4648 12.2585 58.4648 13.1062C58.4648 13.8132 58.2598 14.4441 57.8496 14.9988C57.291 15.7566 56.5156 16.1355 55.5234 16.1355C54.7305 16.1355 54.084 15.9226 53.584 15.4968C53.084 15.071 52.7852 14.4988 52.6875 13.78ZM59.6543 14.3425H61.3008V15.5203C61.3008 15.9968 61.2598 16.3718 61.1777 16.6453C61.0957 16.9226 60.9395 17.1707 60.709 17.3894C60.4824 17.6082 60.1934 17.78 59.8418 17.905L59.5195 17.2253C59.8516 17.116 60.0879 16.9656 60.2285 16.7742C60.3691 16.5828 60.4434 16.321 60.4512 15.989H59.6543V14.3425ZM68.2617 9.50269L66.668 9.67847C66.6289 9.35034 66.5273 9.10815 66.3633 8.9519C66.1992 8.79565 65.9863 8.71753 65.7246 8.71753C65.377 8.71753 65.082 8.87378 64.8398 9.18628C64.6016 9.49878 64.4512 10.1492 64.3887 11.1375C64.7988 10.6531 65.3086 10.4109 65.918 10.4109C66.6055 10.4109 67.1934 10.6726 67.6816 11.196C68.1738 11.7195 68.4199 12.3953 68.4199 13.2234C68.4199 14.1023 68.1621 14.8074 67.6465 15.3386C67.1309 15.8699 66.4688 16.1355 65.6602 16.1355C64.793 16.1355 64.0801 15.7996 63.5215 15.1277C62.9629 14.4519 62.6836 13.3464 62.6836 11.8113C62.6836 10.2371 62.9746 9.10229 63.5566 8.40698C64.1387 7.71167 64.8945 7.36401 65.8242 7.36401C66.4766 7.36401 67.0156 7.54761 67.4414 7.91479C67.8711 8.27808 68.1445 8.80737 68.2617 9.50269ZM64.5293 13.0945C64.5293 13.6296 64.6523 14.0437 64.8984 14.3367C65.1445 14.6257 65.4258 14.7703 65.7422 14.7703C66.0469 14.7703 66.3008 14.6511 66.5039 14.4128C66.707 14.1746 66.8086 13.7839 66.8086 13.241C66.8086 12.6824 66.6992 12.2742 66.4805 12.0164C66.2617 11.7546 65.9883 11.6238 65.6602 11.6238C65.3438 11.6238 65.0762 11.7488 64.8574 11.9988C64.6387 12.2449 64.5293 12.6101 64.5293 13.0945ZM69.6738 14.3425H71.3203V15.5203C71.3203 15.9968 71.2793 16.3718 71.1973 16.6453C71.1152 16.9226 70.959 17.1707 70.7285 17.3894C70.502 17.6082 70.2129 17.78 69.8613 17.905L69.5391 17.2253C69.8711 17.116 70.1074 16.9656 70.248 16.7742C70.3887 16.5828 70.4629 16.321 70.4707 15.989H69.6738V14.3425ZM72.7031 9.04565V7.51636H78.334V8.71167C77.8691 9.1687 77.3965 9.82495 76.916 10.6804C76.4355 11.5359 76.0684 12.446 75.8145 13.4109C75.5645 14.3718 75.4414 15.2312 75.4453 15.989H73.8574C73.8848 14.8015 74.1289 13.5906 74.5898 12.3562C75.0547 11.1218 75.6738 10.0183 76.4473 9.04565H72.7031Z" fill="white"/>
<defs>
<linearGradient id="paint0_linear_46_4306" x1="43.5" y1="1.98901" x2="43.5" y2="21.989" gradientUnits="userSpaceOnUse">
<stop stop-color="#724BBE"/>
<stop offset="1" stop-color="#C4734E"/>
</linearGradient>
</defs>
</svg>
