<svg width="65" height="24" viewBox="0 0 65 24" fill="none" xmlns="http://www.w3.org/2000/svg">
<rect x="1" y="1.98901" width="63" height="20" rx="10" fill="url(#paint0_linear_50_1840)"/>
<rect x="1" y="1.98901" width="63" height="20" rx="10" stroke="#3D65A5" stroke-width="3" stroke-linejoin="round"/>
<path d="M9.33203 15.989V7.39917H11.9277L13.4863 13.2585L15.0273 7.39917H17.6289V15.989H16.0176V9.22729L14.3125 15.989H12.6426L10.9434 9.22729V15.989H9.33203ZM27.0977 15.989H25.2109L24.4609 14.0378H21.0273L20.3184 15.989H18.4785L21.8242 7.39917H23.6582L27.0977 15.989ZM23.9043 12.5906L22.7207 9.40308L21.5605 12.5906H23.9043ZM28.0234 15.989V7.39917H30.8066C31.8613 7.39917 32.5488 7.44214 32.8691 7.52808C33.3613 7.65698 33.7734 7.93823 34.1055 8.37183C34.4375 8.80151 34.6035 9.35815 34.6035 10.0417C34.6035 10.5691 34.5078 11.0125 34.3164 11.3718C34.125 11.7312 33.8809 12.0144 33.584 12.2214C33.291 12.4246 32.9922 12.5593 32.6875 12.6257C32.2734 12.7078 31.6738 12.7488 30.8887 12.7488H29.7578V15.989H28.0234ZM29.7578 8.85229V11.2898H30.707C31.3906 11.2898 31.8477 11.2449 32.0781 11.155C32.3086 11.0652 32.4883 10.9246 32.6172 10.7332C32.75 10.5417 32.8164 10.3191 32.8164 10.0652C32.8164 9.75269 32.7246 9.49487 32.541 9.29175C32.3574 9.08862 32.125 8.96167 31.8438 8.91089C31.6367 8.87183 31.2207 8.85229 30.5957 8.85229H29.7578ZM36.0508 15.989V7.39917H37.7852V11.2136L41.2891 7.39917H43.6211L40.3867 10.7449L43.7969 15.989H41.5527L39.1914 11.9578L37.7852 13.3933V15.989H36.0508ZM48.5488 15.989H46.9023V9.78394C46.3008 10.3464 45.5918 10.7625 44.7754 11.032V9.53784C45.2051 9.39722 45.6719 9.13159 46.1758 8.74097C46.6797 8.34644 47.0254 7.88745 47.2129 7.36401H48.5488V15.989ZM54.5605 15.989H52.9141V9.78394C52.3125 10.3464 51.6035 10.7625 50.7871 11.032V9.53784C51.2168 9.39722 51.6836 9.13159 52.1875 8.74097C52.6914 8.34644 53.0371 7.88745 53.2246 7.36401H54.5605V15.989Z" fill="white"/>
<defs>
<linearGradient id="paint0_linear_50_1840" x1="32.5" y1="1.98901" x2="32.5" y2="21.989" gradientUnits="userSpaceOnUse">
<stop stop-color="#3D65A5"/>
<stop offset="1" stop-color="#31A466"/>
</linearGradient>
</defs>
</svg>
