<svg width="76" height="24" viewBox="0 0 76 24" fill="none" xmlns="http://www.w3.org/2000/svg">
<rect x="1" y="1.98901" width="74" height="20" rx="10" fill="#AB72DD"/>
<rect x="1" y="1.98901" width="74" height="20" rx="10" stroke="#0053CC" stroke-width="3" stroke-linejoin="round"/>
<path d="M9.16016 15.989V7.39917H11.7559L13.3145 13.2585L14.8555 7.39917H17.457V15.989H15.8457V9.22729L14.1406 15.989H12.4707L10.7715 9.22729V15.989H9.16016ZM26.9258 15.989H25.0391L24.2891 14.0378H20.8555L20.1465 15.989H18.3066L21.6523 7.39917H23.4863L26.9258 15.989ZM23.7324 12.5906L22.5488 9.40308L21.3887 12.5906H23.7324ZM27.8516 15.989V7.39917H30.6348C31.6895 7.39917 32.377 7.44214 32.6973 7.52808C33.1895 7.65698 33.6016 7.93823 33.9336 8.37183C34.2656 8.80151 34.4316 9.35815 34.4316 10.0417C34.4316 10.5691 34.3359 11.0125 34.1445 11.3718C33.9531 11.7312 33.709 12.0144 33.4121 12.2214C33.1191 12.4246 32.8203 12.5593 32.5156 12.6257C32.1016 12.7078 31.502 12.7488 30.7168 12.7488H29.5859V15.989H27.8516ZM29.5859 8.85229V11.2898H30.5352C31.2188 11.2898 31.6758 11.2449 31.9062 11.155C32.1367 11.0652 32.3164 10.9246 32.4453 10.7332C32.5781 10.5417 32.6445 10.3191 32.6445 10.0652C32.6445 9.75269 32.5527 9.49487 32.3691 9.29175C32.1855 9.08862 31.9531 8.96167 31.6719 8.91089C31.4648 8.87183 31.0488 8.85229 30.4238 8.85229H29.5859ZM35.8789 15.989V7.39917H37.6133V11.2136L41.1172 7.39917H43.4492L40.2148 10.7449L43.625 15.989H41.3809L39.0195 11.9578L37.6133 13.3933V15.989H35.8789ZM45.5762 11.3542C45.1504 11.1746 44.8398 10.9285 44.6445 10.616C44.4531 10.2996 44.3574 9.95386 44.3574 9.57886C44.3574 8.93823 44.5801 8.40894 45.0254 7.99097C45.4746 7.573 46.1113 7.36401 46.9355 7.36401C47.752 7.36401 48.3848 7.573 48.834 7.99097C49.2871 8.40894 49.5137 8.93823 49.5137 9.57886C49.5137 9.97729 49.4102 10.3328 49.2031 10.6453C48.9961 10.9539 48.7051 11.1902 48.3301 11.3542C48.8066 11.5457 49.168 11.825 49.4141 12.1921C49.6641 12.5593 49.7891 12.9832 49.7891 13.4636C49.7891 14.2566 49.5352 14.9011 49.0273 15.3972C48.5234 15.8933 47.8516 16.1414 47.0117 16.1414C46.2305 16.1414 45.5801 15.9363 45.0605 15.5261C44.4473 15.0417 44.1406 14.3777 44.1406 13.5339C44.1406 13.0691 44.2559 12.6433 44.4863 12.2566C44.7168 11.866 45.0801 11.5652 45.5762 11.3542ZM45.916 9.69604C45.916 10.0242 46.0078 10.28 46.1914 10.4636C46.3789 10.6472 46.627 10.739 46.9355 10.739C47.248 10.739 47.498 10.6472 47.6855 10.4636C47.873 10.2761 47.9668 10.0183 47.9668 9.69019C47.9668 9.38159 47.873 9.1355 47.6855 8.9519C47.502 8.7644 47.2578 8.67065 46.9531 8.67065C46.6367 8.67065 46.3848 8.7644 46.1973 8.9519C46.0098 9.1394 45.916 9.38745 45.916 9.69604ZM45.7637 13.3757C45.7637 13.8289 45.8789 14.1824 46.1094 14.4363C46.3438 14.6902 46.6348 14.8171 46.9824 14.8171C47.3223 14.8171 47.6035 14.696 47.8262 14.4539C48.0488 14.2078 48.1602 13.8542 48.1602 13.3933C48.1602 12.991 48.0469 12.6687 47.8203 12.4265C47.5938 12.1804 47.3066 12.0574 46.959 12.0574C46.5566 12.0574 46.2559 12.196 46.0566 12.4734C45.8613 12.7507 45.7637 13.0515 45.7637 13.3757ZM51.0078 13.698V12.0515H54.2422V13.698H51.0078ZM59.0527 15.989H57.4062V9.78394C56.8047 10.3464 56.0957 10.7625 55.2793 11.032V9.53784C55.709 9.39722 56.1758 9.13159 56.6797 8.74097C57.1836 8.34644 57.5293 7.88745 57.7168 7.36401H59.0527V15.989ZM64.3027 7.36401C65.1348 7.36401 65.7852 7.66089 66.2539 8.25464C66.8125 8.95776 67.0918 10.1238 67.0918 11.7527C67.0918 13.3777 66.8105 14.5457 66.248 15.2566C65.7832 15.8425 65.1348 16.1355 64.3027 16.1355C63.4668 16.1355 62.793 15.8152 62.2812 15.1746C61.7695 14.53 61.5137 13.3835 61.5137 11.7351C61.5137 10.1179 61.7949 8.95386 62.3574 8.24292C62.8223 7.65698 63.4707 7.36401 64.3027 7.36401ZM64.3027 8.72925C64.1035 8.72925 63.9258 8.7937 63.7695 8.92261C63.6133 9.04761 63.4922 9.27417 63.4062 9.60229C63.293 10.0281 63.2363 10.7449 63.2363 11.7527C63.2363 12.7605 63.2871 13.4539 63.3887 13.8328C63.4902 14.2078 63.6172 14.4578 63.7695 14.5828C63.9258 14.7078 64.1035 14.7703 64.3027 14.7703C64.502 14.7703 64.6797 14.7078 64.8359 14.5828C64.9922 14.4539 65.1133 14.2253 65.1992 13.8972C65.3125 13.4753 65.3691 12.7605 65.3691 11.7527C65.3691 10.7449 65.3184 10.0535 65.2168 9.67847C65.1152 9.29956 64.9863 9.04761 64.8301 8.92261C64.6777 8.7937 64.502 8.72925 64.3027 8.72925Z" fill="white"/>
</svg>
