<svg width="50" height="24" viewBox="0 0 50 24" fill="none" xmlns="http://www.w3.org/2000/svg">
<rect x="2" y="1.98901" width="47" height="20" rx="10" fill="url(#paint0_linear_67_1909)"/>
<rect x="2" y="1.98901" width="47" height="20" rx="10" stroke="#163D43" stroke-width="3" stroke-linejoin="round"/>
<path d="M10.0312 15.989V7.39917H13.6816C14.5996 7.39917 15.2656 7.47729 15.6797 7.63354C16.0977 7.78589 16.4316 8.05933 16.6816 8.45386C16.9316 8.84839 17.0566 9.29956 17.0566 9.80737C17.0566 10.4519 16.8672 10.9851 16.4883 11.407C16.1094 11.825 15.543 12.0886 14.7891 12.198C15.1641 12.4167 15.4727 12.657 15.7148 12.9187C15.9609 13.1804 16.291 13.6453 16.7051 14.3132L17.7539 15.989H15.6797L14.4258 14.1199C13.9805 13.4519 13.6758 13.032 13.5117 12.8601C13.3477 12.6843 13.1738 12.5652 12.9902 12.5027C12.8066 12.4363 12.5156 12.4031 12.1172 12.4031H11.7656V15.989H10.0312ZM11.7656 11.032H13.0488C13.8809 11.032 14.4004 10.9968 14.6074 10.9265C14.8145 10.8562 14.9766 10.7351 15.0938 10.5632C15.2109 10.3914 15.2695 10.1765 15.2695 9.9187C15.2695 9.62964 15.1914 9.39722 15.0352 9.22144C14.8828 9.04175 14.666 8.92847 14.3848 8.88159C14.2441 8.86206 13.8223 8.85229 13.1191 8.85229H11.7656V11.032ZM18.7148 15.989V7.39917H20.4023L23.918 13.1355V7.39917H25.5293V15.989H23.7891L20.3262 10.3875V15.989H18.7148ZM27.3633 7.39917H30.5332C31.248 7.39917 31.793 7.45386 32.168 7.56323C32.6719 7.71167 33.1035 7.97534 33.4629 8.35425C33.8223 8.73315 34.0957 9.198 34.2832 9.74878C34.4707 10.2957 34.5645 10.9714 34.5645 11.7761C34.5645 12.4832 34.4766 13.0925 34.3008 13.6042C34.0859 14.2292 33.7793 14.7351 33.3809 15.1218C33.0801 15.4148 32.6738 15.6433 32.1621 15.8074C31.7793 15.9285 31.2676 15.989 30.627 15.989H27.3633V7.39917ZM29.0977 8.85229V14.5417H30.3926C30.877 14.5417 31.2266 14.5144 31.4414 14.4597C31.7227 14.3894 31.9551 14.2703 32.1387 14.1023C32.3262 13.9343 32.4785 13.6589 32.5957 13.2761C32.7129 12.8894 32.7715 12.364 32.7715 11.7C32.7715 11.0359 32.7129 10.5261 32.5957 10.1707C32.4785 9.81519 32.3145 9.53784 32.1035 9.33862C31.8926 9.1394 31.625 9.00464 31.3008 8.93433C31.0586 8.87964 30.584 8.85229 29.877 8.85229H29.0977ZM39.8906 15.989H38.2441V9.78394C37.6426 10.3464 36.9336 10.7625 36.1172 11.032V9.53784C36.5469 9.39722 37.0137 9.13159 37.5176 8.74097C38.0215 8.34644 38.3672 7.88745 38.5547 7.36401H39.8906V15.989Z" fill="white"/>
<defs>
<linearGradient id="paint0_linear_67_1909" x1="25.5" y1="1.98901" x2="25.5" y2="21.989" gradientUnits="userSpaceOnUse">
<stop stop-color="#163D43"/>
<stop offset="1" stop-color="#6B46AC"/>
</linearGradient>
</defs>
</svg>
