<svg width="50" height="24" viewBox="0 0 50 24" fill="none" xmlns="http://www.w3.org/2000/svg">
<rect x="2" y="1.98901" width="47" height="20" rx="10" fill="url(#paint0_linear_35_1415)"/>
<rect x="2" y="1.98901" width="47" height="20" rx="10" stroke="#6579ED" stroke-width="3" stroke-linejoin="round"/>
<path d="M18.1055 15.989H16.2188L15.4688 14.0378H12.0352L11.3262 15.989H9.48633L12.832 7.39917H14.666L18.1055 15.989ZM14.9121 12.5906L13.7285 9.40308L12.5684 12.5906H14.9121ZM19.0781 15.989V7.46948H20.8125V14.5417H25.125V15.989H19.0781ZM30.3633 12.8308V11.3835H34.1016V14.8054C33.7383 15.157 33.2109 15.4675 32.5195 15.7371C31.832 16.0027 31.1348 16.1355 30.4277 16.1355C29.5293 16.1355 28.7461 15.948 28.0781 15.573C27.4102 15.1941 26.9082 14.655 26.5723 13.9558C26.2363 13.2527 26.0684 12.489 26.0684 11.6648C26.0684 10.7703 26.2559 9.97534 26.6309 9.28003C27.0059 8.58472 27.5547 8.05151 28.2773 7.68042C28.8281 7.39526 29.5137 7.25269 30.334 7.25269C31.4004 7.25269 32.2324 7.47729 32.8301 7.92651C33.4316 8.37183 33.8184 8.98901 33.9902 9.77808L32.2676 10.1003C32.1465 9.67847 31.918 9.34644 31.582 9.10425C31.25 8.85815 30.834 8.73511 30.334 8.73511C29.5762 8.73511 28.9727 8.97534 28.5234 9.45581C28.0781 9.93628 27.8555 10.6492 27.8555 11.5945C27.8555 12.614 28.082 13.3796 28.5352 13.8914C28.9883 14.3992 29.582 14.6531 30.3164 14.6531C30.6797 14.6531 31.043 14.5828 31.4062 14.4421C31.7734 14.2976 32.0879 14.1238 32.3496 13.9207V12.8308H30.3633ZM35.2852 13.7097L36.8789 13.5164C36.9297 13.9226 37.0664 14.2332 37.2891 14.448C37.5117 14.6628 37.7812 14.7703 38.0977 14.7703C38.4375 14.7703 38.7227 14.6414 38.9531 14.3835C39.1875 14.1257 39.3047 13.7781 39.3047 13.3406C39.3047 12.9265 39.1934 12.5984 38.9707 12.3562C38.748 12.114 38.4766 11.9929 38.1562 11.9929C37.9453 11.9929 37.6934 12.0339 37.4004 12.116L37.582 10.7742C38.0273 10.7859 38.3672 10.6902 38.6016 10.4871C38.8359 10.28 38.9531 10.0066 38.9531 9.66675C38.9531 9.37769 38.8672 9.14722 38.6953 8.97534C38.5234 8.80347 38.2949 8.71753 38.0098 8.71753C37.7285 8.71753 37.4883 8.81519 37.2891 9.0105C37.0898 9.20581 36.9688 9.49097 36.9258 9.86597L35.4082 9.60815C35.5137 9.08862 35.6719 8.67456 35.8828 8.36597C36.0977 8.05347 36.3945 7.80933 36.7734 7.63354C37.1562 7.45386 37.584 7.36401 38.0566 7.36401C38.8652 7.36401 39.5137 7.62183 40.002 8.13745C40.4043 8.55933 40.6055 9.03589 40.6055 9.56714C40.6055 10.321 40.1934 10.9226 39.3691 11.3718C39.8613 11.4773 40.2539 11.7136 40.5469 12.0808C40.8438 12.448 40.9922 12.8914 40.9922 13.4109C40.9922 14.1648 40.7168 14.8074 40.166 15.3386C39.6152 15.8699 38.9297 16.1355 38.1094 16.1355C37.332 16.1355 36.6875 15.9128 36.1758 15.4675C35.6641 15.0183 35.3672 14.4324 35.2852 13.7097Z" fill="white"/>
<defs>
<linearGradient id="paint0_linear_35_1415" x1="25.5" y1="1.98901" x2="25.5" y2="21.989" gradientUnits="userSpaceOnUse">
<stop stop-color="#FF9700"/>
<stop offset="1" stop-color="#6579ED"/>
</linearGradient>
</defs>
</svg>
