<svg width="56" height="24" viewBox="0 0 56 24" fill="none" xmlns="http://www.w3.org/2000/svg">
<rect x="2" y="1.98901" width="53" height="20" rx="10" fill="url(#paint0_linear_38_1849)"/>
<rect x="2" y="1.98901" width="53" height="20" rx="10" stroke="#EE4023" stroke-width="3" stroke-linejoin="round"/>
<path d="M15.5156 12.8308L17.1973 13.364C16.9395 14.3015 16.5098 14.9988 15.9082 15.4558C15.3105 15.9089 14.5508 16.1355 13.6289 16.1355C12.4883 16.1355 11.5508 15.7468 10.8164 14.9695C10.082 14.1882 9.71484 13.1218 9.71484 11.7703C9.71484 10.3406 10.084 9.2312 10.8223 8.44214C11.5605 7.64917 12.5312 7.25269 13.7344 7.25269C14.7852 7.25269 15.6387 7.56323 16.2949 8.18433C16.6855 8.55151 16.9785 9.07886 17.1738 9.76636L15.457 10.1765C15.3555 9.7312 15.1426 9.37964 14.8184 9.12183C14.498 8.86401 14.1074 8.73511 13.6465 8.73511C13.0098 8.73511 12.4922 8.96362 12.0938 9.42065C11.6992 9.87769 11.502 10.6179 11.502 11.6414C11.502 12.7273 11.6973 13.5007 12.0879 13.9617C12.4785 14.4226 12.9863 14.6531 13.6113 14.6531C14.0723 14.6531 14.4688 14.5066 14.8008 14.2136C15.1328 13.9207 15.3711 13.4597 15.5156 12.8308ZM18.6973 7.39917H22.1309C22.8105 7.39917 23.3164 7.42847 23.6484 7.48706C23.9844 7.54175 24.2832 7.65894 24.5449 7.83862C24.8105 8.01831 25.0312 8.25854 25.207 8.55933C25.3828 8.8562 25.4707 9.19019 25.4707 9.56128C25.4707 9.96362 25.3613 10.3328 25.1426 10.6687C24.9277 11.0046 24.6348 11.2566 24.2637 11.4246C24.7871 11.5769 25.1895 11.8367 25.4707 12.2039C25.752 12.571 25.8926 13.0027 25.8926 13.4988C25.8926 13.8894 25.8008 14.2703 25.6172 14.6414C25.4375 15.0085 25.1895 15.3035 24.873 15.5261C24.5605 15.7449 24.1738 15.8796 23.7129 15.9304C23.4238 15.9617 22.7266 15.9812 21.6211 15.989H18.6973V7.39917ZM20.4316 8.82886V10.8152H21.5684C22.2441 10.8152 22.6641 10.8054 22.8281 10.7859C23.125 10.7507 23.3574 10.6492 23.5254 10.4812C23.6973 10.3093 23.7832 10.0847 23.7832 9.80737C23.7832 9.54175 23.709 9.3269 23.5605 9.16284C23.416 8.99487 23.1992 8.89331 22.9102 8.85815C22.7383 8.83862 22.2441 8.82886 21.4277 8.82886H20.4316ZM20.4316 12.2449V14.5417H22.0371C22.6621 14.5417 23.0586 14.5242 23.2266 14.489C23.4844 14.4421 23.6934 14.3289 23.8535 14.1492C24.0176 13.9656 24.0996 13.7214 24.0996 13.4167C24.0996 13.1589 24.0371 12.9402 23.9121 12.7605C23.7871 12.5808 23.6055 12.45 23.3672 12.3679C23.1328 12.2859 22.6211 12.2449 21.832 12.2449H20.4316ZM27.3633 15.989V7.39917H30.1465C31.2012 7.39917 31.8887 7.44214 32.209 7.52808C32.7012 7.65698 33.1133 7.93823 33.4453 8.37183C33.7773 8.80151 33.9434 9.35815 33.9434 10.0417C33.9434 10.5691 33.8477 11.0125 33.6562 11.3718C33.4648 11.7312 33.2207 12.0144 32.9238 12.2214C32.6309 12.4246 32.332 12.5593 32.0273 12.6257C31.6133 12.7078 31.0137 12.7488 30.2285 12.7488H29.0977V15.989H27.3633ZM29.0977 8.85229V11.2898H30.0469C30.7305 11.2898 31.1875 11.2449 31.418 11.155C31.6484 11.0652 31.8281 10.9246 31.957 10.7332C32.0898 10.5417 32.1562 10.3191 32.1562 10.0652C32.1562 9.75269 32.0645 9.49487 31.8809 9.29175C31.6973 9.08862 31.4648 8.96167 31.1836 8.91089C30.9766 8.87183 30.5605 8.85229 29.9355 8.85229H29.0977ZM40.5645 14.4597V15.989H34.793C34.8555 15.4109 35.043 14.864 35.3555 14.3484C35.668 13.8289 36.2852 13.1414 37.207 12.2859C37.9492 11.5945 38.4043 11.1257 38.5723 10.8796C38.7988 10.5398 38.9121 10.2039 38.9121 9.87183C38.9121 9.50464 38.8125 9.22339 38.6133 9.02808C38.418 8.82886 38.1465 8.72925 37.7988 8.72925C37.4551 8.72925 37.1816 8.83276 36.9785 9.03979C36.7754 9.24683 36.6582 9.59058 36.627 10.071L34.9863 9.90698C35.084 9.00073 35.3906 8.35034 35.9062 7.95581C36.4219 7.56128 37.0664 7.36401 37.8398 7.36401C38.6875 7.36401 39.3535 7.59253 39.8379 8.04956C40.3223 8.50659 40.5645 9.07495 40.5645 9.75464C40.5645 10.1414 40.4941 10.5105 40.3535 10.8621C40.2168 11.2097 39.998 11.575 39.6973 11.9578C39.498 12.2117 39.1387 12.5769 38.6191 13.0535C38.0996 13.53 37.7695 13.8464 37.6289 14.0027C37.4922 14.1589 37.3809 14.3113 37.2949 14.4597H40.5645ZM44.4668 7.36401C45.2988 7.36401 45.9492 7.66089 46.418 8.25464C46.9766 8.95776 47.2559 10.1238 47.2559 11.7527C47.2559 13.3777 46.9746 14.5457 46.4121 15.2566C45.9473 15.8425 45.2988 16.1355 44.4668 16.1355C43.6309 16.1355 42.957 15.8152 42.4453 15.1746C41.9336 14.53 41.6777 13.3835 41.6777 11.7351C41.6777 10.1179 41.959 8.95386 42.5215 8.24292C42.9863 7.65698 43.6348 7.36401 44.4668 7.36401ZM44.4668 8.72925C44.2676 8.72925 44.0898 8.7937 43.9336 8.92261C43.7773 9.04761 43.6562 9.27417 43.5703 9.60229C43.457 10.0281 43.4004 10.7449 43.4004 11.7527C43.4004 12.7605 43.4512 13.4539 43.5527 13.8328C43.6543 14.2078 43.7812 14.4578 43.9336 14.5828C44.0898 14.7078 44.2676 14.7703 44.4668 14.7703C44.666 14.7703 44.8438 14.7078 45 14.5828C45.1562 14.4539 45.2773 14.2253 45.3633 13.8972C45.4766 13.4753 45.5332 12.7605 45.5332 11.7527C45.5332 10.7449 45.4824 10.0535 45.3809 9.67847C45.2793 9.29956 45.1504 9.04761 44.9941 8.92261C44.8418 8.7937 44.666 8.72925 44.4668 8.72925Z" fill="white"/>
<defs>
<linearGradient id="paint0_linear_38_1849" x1="28.5" y1="1.98901" x2="28.5" y2="21.989" gradientUnits="userSpaceOnUse">
<stop stop-color="#EE4023"/>
<stop offset="1" stop-color="#005981"/>
</linearGradient>
</defs>
</svg>
