<svg width="67" height="24" viewBox="0 0 67 24" fill="none" xmlns="http://www.w3.org/2000/svg">
<rect x="1" y="1.98901" width="65" height="20" rx="10" fill="url(#paint0_linear_64_1949)"/>
<rect x="1" y="1.98901" width="65" height="20" rx="10" stroke="#7BC77A" stroke-width="3" stroke-linejoin="round"/>
<path d="M9.34766 15.989V7.39917H12.1309C13.1855 7.39917 13.873 7.44214 14.1934 7.52808C14.6855 7.65698 15.0977 7.93823 15.4297 8.37183C15.7617 8.80151 15.9277 9.35815 15.9277 10.0417C15.9277 10.5691 15.832 11.0125 15.6406 11.3718C15.4492 11.7312 15.2051 12.0144 14.9082 12.2214C14.6152 12.4246 14.3164 12.5593 14.0117 12.6257C13.5977 12.7078 12.998 12.7488 12.2129 12.7488H11.082V15.989H9.34766ZM11.082 8.85229V11.2898H12.0312C12.7148 11.2898 13.1719 11.2449 13.4023 11.155C13.6328 11.0652 13.8125 10.9246 13.9414 10.7332C14.0742 10.5417 14.1406 10.3191 14.1406 10.0652C14.1406 9.75269 14.0488 9.49487 13.8652 9.29175C13.6816 9.08862 13.4492 8.96167 13.168 8.91089C12.9609 8.87183 12.5449 8.85229 11.9199 8.85229H11.082ZM17.2988 15.989V7.39917H19.0332V15.989H17.2988ZM20.6914 15.989V7.39917H23.4746C24.5293 7.39917 25.2168 7.44214 25.5371 7.52808C26.0293 7.65698 26.4414 7.93823 26.7734 8.37183C27.1055 8.80151 27.2715 9.35815 27.2715 10.0417C27.2715 10.5691 27.1758 11.0125 26.9844 11.3718C26.793 11.7312 26.5488 12.0144 26.252 12.2214C25.959 12.4246 25.6602 12.5593 25.3555 12.6257C24.9414 12.7078 24.3418 12.7488 23.5566 12.7488H22.4258V15.989H20.6914ZM22.4258 8.85229V11.2898H23.375C24.0586 11.2898 24.5156 11.2449 24.7461 11.155C24.9766 11.0652 25.1562 10.9246 25.2852 10.7332C25.418 10.5417 25.4844 10.3191 25.4844 10.0652C25.4844 9.75269 25.3926 9.49487 25.209 9.29175C25.0254 9.08862 24.793 8.96167 24.5117 8.91089C24.3047 8.87183 23.8887 8.85229 23.2637 8.85229H22.4258ZM28.3555 13.78L29.9961 13.6101C30.043 13.9812 30.1816 14.2761 30.4121 14.4949C30.6426 14.7097 30.9082 14.8171 31.209 14.8171C31.5527 14.8171 31.8438 14.6785 32.082 14.4011C32.3203 14.1199 32.4395 13.698 32.4395 13.1355C32.4395 12.6082 32.3203 12.2136 32.082 11.9519C31.8477 11.6863 31.541 11.5535 31.1621 11.5535C30.6895 11.5535 30.2656 11.7625 29.8906 12.1804L28.5547 11.9871L29.3984 7.51636H33.752V9.05737H30.6465L30.3887 10.5164C30.7559 10.3328 31.1309 10.241 31.5137 10.241C32.2441 10.241 32.8633 10.5066 33.3711 11.0378C33.8789 11.5691 34.1328 12.2585 34.1328 13.1062C34.1328 13.8132 33.9277 14.4441 33.5176 14.9988C32.959 15.7566 32.1836 16.1355 31.1914 16.1355C30.3984 16.1355 29.752 15.9226 29.252 15.4968C28.752 15.071 28.4531 14.4988 28.3555 13.78ZM35.3984 15.989V7.39917H37.1328V11.2136L40.6367 7.39917H42.9688L39.7344 10.7449L43.1445 15.989H40.9004L38.5391 11.9578L37.1328 13.3933V15.989H35.3984ZM47.8965 15.989H46.25V9.78394C45.6484 10.3464 44.9395 10.7625 44.123 11.032V9.53784C44.5527 9.39722 45.0195 9.13159 45.5234 8.74097C46.0273 8.34644 46.373 7.88745 46.5605 7.36401H47.8965V15.989ZM56.2227 12.8308L57.9043 13.364C57.6465 14.3015 57.2168 14.9988 56.6152 15.4558C56.0176 15.9089 55.2578 16.1355 54.3359 16.1355C53.1953 16.1355 52.2578 15.7468 51.5234 14.9695C50.7891 14.1882 50.4219 13.1218 50.4219 11.7703C50.4219 10.3406 50.791 9.2312 51.5293 8.44214C52.2676 7.64917 53.2383 7.25269 54.4414 7.25269C55.4922 7.25269 56.3457 7.56323 57.002 8.18433C57.3926 8.55151 57.6855 9.07886 57.8809 9.76636L56.1641 10.1765C56.0625 9.7312 55.8496 9.37964 55.5254 9.12183C55.2051 8.86401 54.8145 8.73511 54.3535 8.73511C53.7168 8.73511 53.1992 8.96362 52.8008 9.42065C52.4062 9.87769 52.209 10.6179 52.209 11.6414C52.209 12.7273 52.4043 13.5007 52.7949 13.9617C53.1855 14.4226 53.6934 14.6531 54.3184 14.6531C54.7793 14.6531 55.1758 14.5066 55.5078 14.2136C55.8398 13.9207 56.0781 13.4597 56.2227 12.8308Z" fill="white"/>
<defs>
<linearGradient id="paint0_linear_64_1949" x1="33.5" y1="1.98901" x2="33.5" y2="21.989" gradientUnits="userSpaceOnUse">
<stop stop-color="#7BC77A"/>
<stop offset="1" stop-color="#637000"/>
</linearGradient>
</defs>
</svg>
