<svg width="73" height="24" viewBox="0 0 73 24" fill="none" xmlns="http://www.w3.org/2000/svg">
<rect x="1" y="1.98901" width="71" height="20" rx="10" fill="url(#paint0_linear_67_1901)"/>
<rect x="1" y="1.98901" width="71" height="20" rx="10" stroke="#9C5140" stroke-width="3" stroke-linejoin="round"/>
<path d="M9.35938 15.989V7.39917H13.0098C13.9277 7.39917 14.5938 7.47729 15.0078 7.63354C15.4258 7.78589 15.7598 8.05933 16.0098 8.45386C16.2598 8.84839 16.3848 9.29956 16.3848 9.80737C16.3848 10.4519 16.1953 10.9851 15.8164 11.407C15.4375 11.825 14.8711 12.0886 14.1172 12.198C14.4922 12.4167 14.8008 12.657 15.043 12.9187C15.2891 13.1804 15.6191 13.6453 16.0332 14.3132L17.082 15.989H15.0078L13.7539 14.1199C13.3086 13.4519 13.0039 13.032 12.8398 12.8601C12.6758 12.6843 12.502 12.5652 12.3184 12.5027C12.1348 12.4363 11.8438 12.4031 11.4453 12.4031H11.0938V15.989H9.35938ZM11.0938 11.032H12.377C13.209 11.032 13.7285 10.9968 13.9355 10.9265C14.1426 10.8562 14.3047 10.7351 14.4219 10.5632C14.5391 10.3914 14.5977 10.1765 14.5977 9.9187C14.5977 9.62964 14.5195 9.39722 14.3633 9.22144C14.2109 9.04175 13.9941 8.92847 13.7129 8.88159C13.5723 8.86206 13.1504 8.85229 12.4473 8.85229H11.0938V11.032ZM18.0312 15.989V7.39917H21.6816C22.5996 7.39917 23.2656 7.47729 23.6797 7.63354C24.0977 7.78589 24.4316 8.05933 24.6816 8.45386C24.9316 8.84839 25.0566 9.29956 25.0566 9.80737C25.0566 10.4519 24.8672 10.9851 24.4883 11.407C24.1094 11.825 23.543 12.0886 22.7891 12.198C23.1641 12.4167 23.4727 12.657 23.7148 12.9187C23.9609 13.1804 24.291 13.6453 24.7051 14.3132L25.7539 15.989H23.6797L22.4258 14.1199C21.9805 13.4519 21.6758 13.032 21.5117 12.8601C21.3477 12.6843 21.1738 12.5652 20.9902 12.5027C20.8066 12.4363 20.5156 12.4031 20.1172 12.4031H19.7656V15.989H18.0312ZM19.7656 11.032H21.0488C21.8809 11.032 22.4004 10.9968 22.6074 10.9265C22.8145 10.8562 22.9766 10.7351 23.0938 10.5632C23.2109 10.3914 23.2695 10.1765 23.2695 9.9187C23.2695 9.62964 23.1914 9.39722 23.0352 9.22144C22.8828 9.04175 22.666 8.92847 22.3848 8.88159C22.2441 8.86206 21.8223 8.85229 21.1191 8.85229H19.7656V11.032ZM34.4434 15.989H32.5566L31.8066 14.0378H28.373L27.6641 15.989H25.8242L29.1699 7.39917H31.0039L34.4434 15.989ZM31.25 12.5906L30.0664 9.40308L28.9062 12.5906H31.25ZM39.3652 12.8308V11.3835H43.1035V14.8054C42.7402 15.157 42.2129 15.4675 41.5215 15.7371C40.834 16.0027 40.1367 16.1355 39.4297 16.1355C38.5312 16.1355 37.748 15.948 37.0801 15.573C36.4121 15.1941 35.9102 14.655 35.5742 13.9558C35.2383 13.2527 35.0703 12.489 35.0703 11.6648C35.0703 10.7703 35.2578 9.97534 35.6328 9.28003C36.0078 8.58472 36.5566 8.05151 37.2793 7.68042C37.8301 7.39526 38.5156 7.25269 39.3359 7.25269C40.4023 7.25269 41.2344 7.47729 41.832 7.92651C42.4336 8.37183 42.8203 8.98901 42.9922 9.77808L41.2695 10.1003C41.1484 9.67847 40.9199 9.34644 40.584 9.10425C40.252 8.85815 39.8359 8.73511 39.3359 8.73511C38.5781 8.73511 37.9746 8.97534 37.5254 9.45581C37.0801 9.93628 36.8574 10.6492 36.8574 11.5945C36.8574 12.614 37.084 13.3796 37.5371 13.8914C37.9902 14.3992 38.584 14.6531 39.3184 14.6531C39.6816 14.6531 40.0449 14.5828 40.4082 14.4421C40.7754 14.2976 41.0898 14.1238 41.3516 13.9207V12.8308H39.3652ZM52.4551 15.989H50.5684L49.8184 14.0378H46.3848L45.6758 15.989H43.8359L47.1816 7.39917H49.0156L52.4551 15.989ZM49.2617 12.5906L48.0781 9.40308L46.918 12.5906H49.2617ZM53.3281 14.3425H54.9746V15.5203C54.9746 15.9968 54.9336 16.3718 54.8516 16.6453C54.7695 16.9226 54.6133 17.1707 54.3828 17.3894C54.1562 17.6082 53.8672 17.78 53.5156 17.905L53.1934 17.2253C53.5254 17.116 53.7617 16.9656 53.9023 16.7742C54.043 16.5828 54.1172 16.321 54.125 15.989H53.3281V14.3425ZM56.7266 7.39917H60.1602C60.8398 7.39917 61.3457 7.42847 61.6777 7.48706C62.0137 7.54175 62.3125 7.65894 62.5742 7.83862C62.8398 8.01831 63.0605 8.25854 63.2363 8.55933C63.4121 8.8562 63.5 9.19019 63.5 9.56128C63.5 9.96362 63.3906 10.3328 63.1719 10.6687C62.957 11.0046 62.6641 11.2566 62.293 11.4246C62.8164 11.5769 63.2188 11.8367 63.5 12.2039C63.7812 12.571 63.9219 13.0027 63.9219 13.4988C63.9219 13.8894 63.8301 14.2703 63.6465 14.6414C63.4668 15.0085 63.2188 15.3035 62.9023 15.5261C62.5898 15.7449 62.2031 15.8796 61.7422 15.9304C61.4531 15.9617 60.7559 15.9812 59.6504 15.989H56.7266V7.39917ZM58.4609 8.82886V10.8152H59.5977C60.2734 10.8152 60.6934 10.8054 60.8574 10.7859C61.1543 10.7507 61.3867 10.6492 61.5547 10.4812C61.7266 10.3093 61.8125 10.0847 61.8125 9.80737C61.8125 9.54175 61.7383 9.3269 61.5898 9.16284C61.4453 8.99487 61.2285 8.89331 60.9395 8.85815C60.7676 8.83862 60.2734 8.82886 59.457 8.82886H58.4609ZM58.4609 12.2449V14.5417H60.0664C60.6914 14.5417 61.0879 14.5242 61.2559 14.489C61.5137 14.4421 61.7227 14.3289 61.8828 14.1492C62.0469 13.9656 62.1289 13.7214 62.1289 13.4167C62.1289 13.1589 62.0664 12.9402 61.9414 12.7605C61.8164 12.5808 61.6348 12.45 61.3965 12.3679C61.1621 12.2859 60.6504 12.2449 59.8613 12.2449H58.4609Z" fill="white"/>
<defs>
<linearGradient id="paint0_linear_67_1901" x1="36.5" y1="1.98901" x2="36.5" y2="21.989" gradientUnits="userSpaceOnUse">
<stop stop-color="#9C5140"/>
<stop offset="1" stop-color="#9B3C9B"/>
</linearGradient>
</defs>
</svg>
