<svg width="135" height="24" viewBox="0 0 135 24" fill="none" xmlns="http://www.w3.org/2000/svg">
<rect x="1" y="1.98901" width="133" height="20" rx="10" fill="url(#paint0_linear_35_1485)"/>
<rect x="1" y="1.98901" width="133" height="20" rx="10" stroke="#DBA628" stroke-width="3" stroke-linejoin="round"/>
<path d="M16.7461 15.989H14.8594L14.1094 14.0378H10.6758L9.9668 15.989H8.12695L11.4727 7.39917H13.3066L16.7461 15.989ZM13.5527 12.5906L12.3691 9.40308L11.209 12.5906H13.5527ZM17.6895 15.989V7.39917H19.377L22.8926 13.1355V7.39917H24.5039V15.989H22.7637L19.3008 10.3875V15.989H17.6895ZM30.3398 12.8308V11.3835H34.0781V14.8054C33.7148 15.157 33.1875 15.4675 32.4961 15.7371C31.8086 16.0027 31.1113 16.1355 30.4043 16.1355C29.5059 16.1355 28.7227 15.948 28.0547 15.573C27.3867 15.1941 26.8848 14.655 26.5488 13.9558C26.2129 13.2527 26.0449 12.489 26.0449 11.6648C26.0449 10.7703 26.2324 9.97534 26.6074 9.28003C26.9824 8.58472 27.5312 8.05151 28.2539 7.68042C28.8047 7.39526 29.4902 7.25269 30.3105 7.25269C31.377 7.25269 32.209 7.47729 32.8066 7.92651C33.4082 8.37183 33.7949 8.98901 33.9668 9.77808L32.2441 10.1003C32.123 9.67847 31.8945 9.34644 31.5586 9.10425C31.2266 8.85815 30.8105 8.73511 30.3105 8.73511C29.5527 8.73511 28.9492 8.97534 28.5 9.45581C28.0547 9.93628 27.832 10.6492 27.832 11.5945C27.832 12.614 28.0586 13.3796 28.5117 13.8914C28.9648 14.3992 29.5586 14.6531 30.293 14.6531C30.6562 14.6531 31.0195 14.5828 31.3828 14.4421C31.75 14.2976 32.0645 14.1238 32.3262 13.9207V12.8308H30.3398ZM35.6309 15.989V7.39917H37.3652V15.989H35.6309ZM38.6719 11.7468C38.6719 10.8718 38.8027 10.1375 39.0645 9.5437C39.2598 9.1062 39.5254 8.71362 39.8613 8.36597C40.2012 8.01831 40.5723 7.7605 40.9746 7.59253C41.5098 7.36597 42.127 7.25269 42.8262 7.25269C44.0918 7.25269 45.1035 7.64526 45.8613 8.43042C46.623 9.21558 47.0039 10.3074 47.0039 11.7058C47.0039 13.0925 46.627 14.1785 45.873 14.9636C45.1191 15.7449 44.1113 16.1355 42.8496 16.1355C41.5723 16.1355 40.5566 15.7468 39.8027 14.9695C39.0488 14.1882 38.6719 13.114 38.6719 11.7468ZM40.459 11.6882C40.459 12.6609 40.6836 13.3992 41.1328 13.9031C41.582 14.4031 42.1523 14.6531 42.8438 14.6531C43.5352 14.6531 44.1016 14.405 44.543 13.9089C44.9883 13.4089 45.2109 12.6609 45.2109 11.6648C45.2109 10.6804 44.9941 9.94604 44.5605 9.46167C44.1309 8.97729 43.5586 8.73511 42.8438 8.73511C42.1289 8.73511 41.5527 8.9812 41.1152 9.47339C40.6777 9.96167 40.459 10.7 40.459 11.6882ZM50.2969 15.989V8.85229H47.748V7.39917H54.5742V8.85229H52.0312V15.989H50.2969ZM55.6992 15.989V7.39917H62.0684V8.85229H57.4336V10.7566H61.7461V12.2039H57.4336V14.5417H62.2324V15.989H55.6992ZM63.7207 15.989V7.39917H65.4082L68.9238 13.1355V7.39917H70.5352V15.989H68.7949L65.332 10.3875V15.989H63.7207ZM71.9355 13.1941L73.623 13.03C73.7246 13.5964 73.9297 14.0125 74.2383 14.2781C74.5508 14.5437 74.9707 14.6765 75.498 14.6765C76.0566 14.6765 76.4766 14.5593 76.7578 14.325C77.043 14.0867 77.1855 13.8093 77.1855 13.4929C77.1855 13.2898 77.125 13.1179 77.0039 12.9773C76.8867 12.8328 76.6797 12.7078 76.3828 12.6023C76.1797 12.532 75.7168 12.407 74.9941 12.2273C74.0645 11.9968 73.4121 11.7136 73.0371 11.3777C72.5098 10.905 72.2461 10.3289 72.2461 9.64917C72.2461 9.21167 72.3691 8.80347 72.6152 8.42456C72.8652 8.04175 73.2227 7.75073 73.6875 7.55151C74.1562 7.35229 74.7207 7.25269 75.3809 7.25269C76.459 7.25269 77.2695 7.48901 77.8125 7.96167C78.3594 8.43433 78.6465 9.06519 78.6738 9.85425L76.9395 9.93042C76.8652 9.48901 76.7051 9.17261 76.459 8.9812C76.2168 8.78589 75.8516 8.68823 75.3633 8.68823C74.8594 8.68823 74.4648 8.79175 74.1797 8.99878C73.9961 9.13159 73.9043 9.30933 73.9043 9.53198C73.9043 9.73511 73.9902 9.90894 74.1621 10.0535C74.3809 10.2371 74.9121 10.4285 75.7559 10.6277C76.5996 10.8269 77.2227 11.0339 77.625 11.2488C78.0312 11.4597 78.3477 11.7507 78.5742 12.1218C78.8047 12.489 78.9199 12.9441 78.9199 13.4871C78.9199 13.9792 78.7832 14.4402 78.5098 14.8699C78.2363 15.2996 77.8496 15.6199 77.3496 15.8308C76.8496 16.0378 76.2266 16.1414 75.4805 16.1414C74.3945 16.1414 73.5605 15.8914 72.9785 15.3914C72.3965 14.8875 72.0488 14.155 71.9355 13.1941ZM80.3262 15.989V7.39917H82.0605V15.989H80.3262ZM83.7363 15.989V7.39917H85.4238L88.9395 13.1355V7.39917H90.5508V15.989H88.8105L85.3477 10.3875V15.989H83.7363ZM92.0391 11.7468C92.0391 10.8718 92.1699 10.1375 92.4316 9.5437C92.627 9.1062 92.8926 8.71362 93.2285 8.36597C93.5684 8.01831 93.9395 7.7605 94.3418 7.59253C94.877 7.36597 95.4941 7.25269 96.1934 7.25269C97.459 7.25269 98.4707 7.64526 99.2285 8.43042C99.9902 9.21558 100.371 10.3074 100.371 11.7058C100.371 13.0925 99.9941 14.1785 99.2402 14.9636C98.4863 15.7449 97.4785 16.1355 96.2168 16.1355C94.9395 16.1355 93.9238 15.7468 93.1699 14.9695C92.416 14.1882 92.0391 13.114 92.0391 11.7468ZM93.8262 11.6882C93.8262 12.6609 94.0508 13.3992 94.5 13.9031C94.9492 14.4031 95.5195 14.6531 96.2109 14.6531C96.9023 14.6531 97.4688 14.405 97.9102 13.9089C98.3555 13.4089 98.5781 12.6609 98.5781 11.6648C98.5781 10.6804 98.3613 9.94604 97.9277 9.46167C97.498 8.97729 96.9258 8.73511 96.2109 8.73511C95.4961 8.73511 94.9199 8.9812 94.4824 9.47339C94.0449 9.96167 93.8262 10.7 93.8262 11.6882ZM105.727 12.8308V11.3835H109.465V14.8054C109.102 15.157 108.574 15.4675 107.883 15.7371C107.195 16.0027 106.498 16.1355 105.791 16.1355C104.893 16.1355 104.109 15.948 103.441 15.573C102.773 15.1941 102.271 14.655 101.936 13.9558C101.6 13.2527 101.432 12.489 101.432 11.6648C101.432 10.7703 101.619 9.97534 101.994 9.28003C102.369 8.58472 102.918 8.05151 103.641 7.68042C104.191 7.39526 104.877 7.25269 105.697 7.25269C106.764 7.25269 107.596 7.47729 108.193 7.92651C108.795 8.37183 109.182 8.98901 109.354 9.77808L107.631 10.1003C107.51 9.67847 107.281 9.34644 106.945 9.10425C106.613 8.85815 106.197 8.73511 105.697 8.73511C104.939 8.73511 104.336 8.97534 103.887 9.45581C103.441 9.93628 103.219 10.6492 103.219 11.5945C103.219 12.614 103.445 13.3796 103.898 13.8914C104.352 14.3992 104.945 14.6531 105.68 14.6531C106.043 14.6531 106.406 14.5828 106.77 14.4421C107.137 14.2976 107.451 14.1238 107.713 13.9207V12.8308H105.727ZM111.07 15.989V7.39917H117.439V8.85229H112.805V10.7566H117.117V12.2039H112.805V14.5417H117.604V15.989H111.07ZM119.092 15.989V7.39917H120.779L124.295 13.1355V7.39917H125.906V15.989H124.166L120.703 10.3875V15.989H119.092Z" fill="white"/>
<defs>
<linearGradient id="paint0_linear_35_1485" x1="67.5" y1="1.98901" x2="67.5" y2="21.989" gradientUnits="userSpaceOnUse">
<stop stop-color="#DBA628"/>
<stop offset="1" stop-color="#6300C2"/>
</linearGradient>
</defs>
</svg>
