<svg width="71" height="24" viewBox="0 0 71 24" fill="none" xmlns="http://www.w3.org/2000/svg">
<rect x="1" y="1.98901" width="69" height="20" rx="10" fill="url(#paint0_linear_64_1818)"/>
<rect x="1" y="1.98901" width="69" height="20" rx="10" stroke="#2D5189" stroke-width="3" stroke-linejoin="round"/>
<path d="M9.00977 15.989V7.39917H11.6055L13.1641 13.2585L14.7051 7.39917H17.3066V15.989H15.6953V9.22729L13.9902 15.989H12.3203L10.6211 9.22729V15.989H9.00977ZM19.0059 15.989V7.39917H21.6016L23.1602 13.2585L24.7012 7.39917H27.3027V15.989H25.6914V9.22729L23.9863 15.989H22.3164L20.6172 9.22729V15.989H19.0059ZM36.7715 15.989H34.8848L34.1348 14.0378H30.7012L29.9922 15.989H28.1523L31.498 7.39917H33.332L36.7715 15.989ZM33.5781 12.5906L32.3945 9.40308L31.2344 12.5906H33.5781ZM43.1934 12.8308L44.875 13.364C44.6172 14.3015 44.1875 14.9988 43.5859 15.4558C42.9883 15.9089 42.2285 16.1355 41.3066 16.1355C40.166 16.1355 39.2285 15.7468 38.4941 14.9695C37.7598 14.1882 37.3926 13.1218 37.3926 11.7703C37.3926 10.3406 37.7617 9.2312 38.5 8.44214C39.2383 7.64917 40.209 7.25269 41.4121 7.25269C42.4629 7.25269 43.3164 7.56323 43.9727 8.18433C44.3633 8.55151 44.6562 9.07886 44.8516 9.76636L43.1348 10.1765C43.0332 9.7312 42.8203 9.37964 42.4961 9.12183C42.1758 8.86401 41.7852 8.73511 41.3242 8.73511C40.6875 8.73511 40.1699 8.96362 39.7715 9.42065C39.377 9.87769 39.1797 10.6179 39.1797 11.6414C39.1797 12.7273 39.375 13.5007 39.7656 13.9617C40.1562 14.4226 40.6641 14.6531 41.2891 14.6531C41.75 14.6531 42.1465 14.5066 42.4785 14.2136C42.8105 13.9207 43.0488 13.4597 43.1934 12.8308ZM46.375 15.989V7.39917H48.1094V10.78H51.5078V7.39917H53.2422V15.989H51.5078V12.2332H48.1094V15.989H46.375ZM60.5371 12.8308L62.2188 13.364C61.9609 14.3015 61.5312 14.9988 60.9297 15.4558C60.332 15.9089 59.5723 16.1355 58.6504 16.1355C57.5098 16.1355 56.5723 15.7468 55.8379 14.9695C55.1035 14.1882 54.7363 13.1218 54.7363 11.7703C54.7363 10.3406 55.1055 9.2312 55.8438 8.44214C56.582 7.64917 57.5527 7.25269 58.7559 7.25269C59.8066 7.25269 60.6602 7.56323 61.3164 8.18433C61.707 8.55151 62 9.07886 62.1953 9.76636L60.4785 10.1765C60.377 9.7312 60.1641 9.37964 59.8398 9.12183C59.5195 8.86401 59.1289 8.73511 58.668 8.73511C58.0312 8.73511 57.5137 8.96362 57.1152 9.42065C56.7207 9.87769 56.5234 10.6179 56.5234 11.6414C56.5234 12.7273 56.7188 13.5007 57.1094 13.9617C57.5 14.4226 58.0078 14.6531 58.6328 14.6531C59.0938 14.6531 59.4902 14.5066 59.8223 14.2136C60.1543 13.9207 60.3926 13.4597 60.5371 12.8308Z" fill="white"/>
<defs>
<linearGradient id="paint0_linear_64_1818" x1="35.5" y1="1.98901" x2="35.5" y2="21.989" gradientUnits="userSpaceOnUse">
<stop stop-color="#2D5189"/>
<stop offset="1" stop-color="#CEAE00"/>
</linearGradient>
</defs>
</svg>
