<svg width="37" height="24" viewBox="0 0 37 24" fill="none" xmlns="http://www.w3.org/2000/svg">
<rect x="2" y="1.98901" width="34" height="20" rx="10" fill="#54A0D3"/>
<rect x="2" y="1.98901" width="34" height="20" rx="10" stroke="#1F3F53" stroke-width="3" stroke-linejoin="round"/>
<path d="M17.6934 12.8308L19.375 13.364C19.1172 14.3015 18.6875 14.9988 18.0859 15.4558C17.4883 15.9089 16.7285 16.1355 15.8066 16.1355C14.666 16.1355 13.7285 15.7468 12.9941 14.9695C12.2598 14.1882 11.8926 13.1218 11.8926 11.7703C11.8926 10.3406 12.2617 9.2312 13 8.44214C13.7383 7.64917 14.709 7.25269 15.9121 7.25269C16.9629 7.25269 17.8164 7.56323 18.4727 8.18433C18.8633 8.55151 19.1562 9.07886 19.3516 9.76636L17.6348 10.1765C17.5332 9.7312 17.3203 9.37964 16.9961 9.12183C16.6758 8.86401 16.2852 8.73511 15.8242 8.73511C15.1875 8.73511 14.6699 8.96362 14.2715 9.42065C13.877 9.87769 13.6797 10.6179 13.6797 11.6414C13.6797 12.7273 13.875 13.5007 14.2656 13.9617C14.6562 14.4226 15.1641 14.6531 15.7891 14.6531C16.25 14.6531 16.6465 14.5066 16.9785 14.2136C17.3105 13.9207 17.5488 13.4597 17.6934 12.8308ZM20.5293 13.78L22.1699 13.6101C22.2168 13.9812 22.3555 14.2761 22.5859 14.4949C22.8164 14.7097 23.082 14.8171 23.3828 14.8171C23.7266 14.8171 24.0176 14.6785 24.2559 14.4011C24.4941 14.1199 24.6133 13.698 24.6133 13.1355C24.6133 12.6082 24.4941 12.2136 24.2559 11.9519C24.0215 11.6863 23.7148 11.5535 23.3359 11.5535C22.8633 11.5535 22.4395 11.7625 22.0645 12.1804L20.7285 11.9871L21.5723 7.51636H25.9258V9.05737H22.8203L22.5625 10.5164C22.9297 10.3328 23.3047 10.241 23.6875 10.241C24.418 10.241 25.0371 10.5066 25.5449 11.0378C26.0527 11.5691 26.3066 12.2585 26.3066 13.1062C26.3066 13.8132 26.1016 14.4441 25.6914 14.9988C25.1328 15.7566 24.3574 16.1355 23.3652 16.1355C22.5723 16.1355 21.9258 15.9226 21.4258 15.4968C20.9258 15.071 20.627 14.4988 20.5293 13.78Z" fill="white"/>
</svg>
