<svg width="111" height="24" viewBox="0 0 111 24" fill="none" xmlns="http://www.w3.org/2000/svg">
<rect x="1" y="1.98901" width="109" height="20" rx="10" fill="url(#paint0_linear_45_4250)"/>
<rect x="1" y="1.98901" width="109" height="20" rx="10" stroke="#C97800" stroke-width="3" stroke-linejoin="round"/>
<path d="M13.2246 12.8308V11.3835H16.9629V14.8054C16.5996 15.157 16.0723 15.4675 15.3809 15.7371C14.6934 16.0027 13.9961 16.1355 13.2891 16.1355C12.3906 16.1355 11.6074 15.948 10.9395 15.573C10.2715 15.1941 9.76953 14.655 9.43359 13.9558C9.09766 13.2527 8.92969 12.489 8.92969 11.6648C8.92969 10.7703 9.11719 9.97534 9.49219 9.28003C9.86719 8.58472 10.416 8.05151 11.1387 7.68042C11.6895 7.39526 12.375 7.25269 13.1953 7.25269C14.2617 7.25269 15.0938 7.47729 15.6914 7.92651C16.293 8.37183 16.6797 8.98901 16.8516 9.77808L15.1289 10.1003C15.0078 9.67847 14.7793 9.34644 14.4434 9.10425C14.1113 8.85815 13.6953 8.73511 13.1953 8.73511C12.4375 8.73511 11.834 8.97534 11.3848 9.45581C10.9395 9.93628 10.7168 10.6492 10.7168 11.5945C10.7168 12.614 10.9434 13.3796 11.3965 13.8914C11.8496 14.3992 12.4434 14.6531 13.1777 14.6531C13.541 14.6531 13.9043 14.5828 14.2676 14.4421C14.6348 14.2976 14.9492 14.1238 15.2109 13.9207V12.8308H13.2246ZM18.6152 15.989V7.46948H20.3496V14.5417H24.6621V15.989H18.6152ZM27.0586 15.989V12.3738L23.9121 7.39917H25.9453L27.9668 10.7976L29.9473 7.39917H31.9453L28.7871 12.3855V15.989H27.0586ZM38.3027 12.8308L39.9844 13.364C39.7266 14.3015 39.2969 14.9988 38.6953 15.4558C38.0977 15.9089 37.3379 16.1355 36.416 16.1355C35.2754 16.1355 34.3379 15.7468 33.6035 14.9695C32.8691 14.1882 32.502 13.1218 32.502 11.7703C32.502 10.3406 32.8711 9.2312 33.6094 8.44214C34.3477 7.64917 35.3184 7.25269 36.5215 7.25269C37.5723 7.25269 38.4258 7.56323 39.082 8.18433C39.4727 8.55151 39.7656 9.07886 39.9609 9.76636L38.2441 10.1765C38.1426 9.7312 37.9297 9.37964 37.6055 9.12183C37.2852 8.86401 36.8945 8.73511 36.4336 8.73511C35.7969 8.73511 35.2793 8.96362 34.8809 9.42065C34.4863 9.87769 34.2891 10.6179 34.2891 11.6414C34.2891 12.7273 34.4844 13.5007 34.875 13.9617C35.2656 14.4226 35.7734 14.6531 36.3984 14.6531C36.8594 14.6531 37.2559 14.5066 37.5879 14.2136C37.9199 13.9207 38.1582 13.4597 38.3027 12.8308ZM41.127 11.7468C41.127 10.8718 41.2578 10.1375 41.5195 9.5437C41.7148 9.1062 41.9805 8.71362 42.3164 8.36597C42.6562 8.01831 43.0273 7.7605 43.4297 7.59253C43.9648 7.36597 44.582 7.25269 45.2812 7.25269C46.5469 7.25269 47.5586 7.64526 48.3164 8.43042C49.0781 9.21558 49.459 10.3074 49.459 11.7058C49.459 13.0925 49.082 14.1785 48.3281 14.9636C47.5742 15.7449 46.5664 16.1355 45.3047 16.1355C44.0273 16.1355 43.0117 15.7468 42.2578 14.9695C41.5039 14.1882 41.127 13.114 41.127 11.7468ZM42.9141 11.6882C42.9141 12.6609 43.1387 13.3992 43.5879 13.9031C44.0371 14.4031 44.6074 14.6531 45.2988 14.6531C45.9902 14.6531 46.5566 14.405 46.998 13.9089C47.4434 13.4089 47.666 12.6609 47.666 11.6648C47.666 10.6804 47.4492 9.94604 47.0156 9.46167C46.5859 8.97729 46.0137 8.73511 45.2988 8.73511C44.584 8.73511 44.0078 8.9812 43.5703 9.47339C43.1328 9.96167 42.9141 10.7 42.9141 11.6882ZM50.3789 13.1941L52.0664 13.03C52.168 13.5964 52.373 14.0125 52.6816 14.2781C52.9941 14.5437 53.4141 14.6765 53.9414 14.6765C54.5 14.6765 54.9199 14.5593 55.2012 14.325C55.4863 14.0867 55.6289 13.8093 55.6289 13.4929C55.6289 13.2898 55.5684 13.1179 55.4473 12.9773C55.3301 12.8328 55.123 12.7078 54.8262 12.6023C54.623 12.532 54.1602 12.407 53.4375 12.2273C52.5078 11.9968 51.8555 11.7136 51.4805 11.3777C50.9531 10.905 50.6895 10.3289 50.6895 9.64917C50.6895 9.21167 50.8125 8.80347 51.0586 8.42456C51.3086 8.04175 51.666 7.75073 52.1309 7.55151C52.5996 7.35229 53.1641 7.25269 53.8242 7.25269C54.9023 7.25269 55.7129 7.48901 56.2559 7.96167C56.8027 8.43433 57.0898 9.06519 57.1172 9.85425L55.3828 9.93042C55.3086 9.48901 55.1484 9.17261 54.9023 8.9812C54.6602 8.78589 54.2949 8.68823 53.8066 8.68823C53.3027 8.68823 52.9082 8.79175 52.623 8.99878C52.4395 9.13159 52.3477 9.30933 52.3477 9.53198C52.3477 9.73511 52.4336 9.90894 52.6055 10.0535C52.8242 10.2371 53.3555 10.4285 54.1992 10.6277C55.043 10.8269 55.666 11.0339 56.0684 11.2488C56.4746 11.4597 56.791 11.7507 57.0176 12.1218C57.248 12.489 57.3633 12.9441 57.3633 13.4871C57.3633 13.9792 57.2266 14.4402 56.9531 14.8699C56.6797 15.2996 56.293 15.6199 55.793 15.8308C55.293 16.0378 54.6699 16.1414 53.9238 16.1414C52.8379 16.1414 52.0039 15.8914 51.4219 15.3914C50.8398 14.8875 50.4922 14.155 50.3789 13.1941ZM58.7695 15.989V7.39917H60.5039V15.989H58.7695ZM62.1562 7.39917H65.3262C66.041 7.39917 66.5859 7.45386 66.9609 7.56323C67.4648 7.71167 67.8965 7.97534 68.2559 8.35425C68.6152 8.73315 68.8887 9.198 69.0762 9.74878C69.2637 10.2957 69.3574 10.9714 69.3574 11.7761C69.3574 12.4832 69.2695 13.0925 69.0938 13.6042C68.8789 14.2292 68.5723 14.7351 68.1738 15.1218C67.873 15.4148 67.4668 15.6433 66.9551 15.8074C66.5723 15.9285 66.0605 15.989 65.4199 15.989H62.1562V7.39917ZM63.8906 8.85229V14.5417H65.1855C65.6699 14.5417 66.0195 14.5144 66.2344 14.4597C66.5156 14.3894 66.748 14.2703 66.9316 14.1023C67.1191 13.9343 67.2715 13.6589 67.3887 13.2761C67.5059 12.8894 67.5645 12.364 67.5645 11.7C67.5645 11.0359 67.5059 10.5261 67.3887 10.1707C67.2715 9.81519 67.1074 9.53784 66.8965 9.33862C66.6855 9.1394 66.418 9.00464 66.0938 8.93433C65.8516 8.87964 65.377 8.85229 64.6699 8.85229H63.8906ZM78.5801 15.989H76.6934L75.9434 14.0378H72.5098L71.8008 15.989H69.9609L73.3066 7.39917H75.1406L78.5801 15.989ZM75.3867 12.5906L74.2031 9.40308L73.043 12.5906H75.3867ZM79.0664 13.1941L80.7539 13.03C80.8555 13.5964 81.0605 14.0125 81.3691 14.2781C81.6816 14.5437 82.1016 14.6765 82.6289 14.6765C83.1875 14.6765 83.6074 14.5593 83.8887 14.325C84.1738 14.0867 84.3164 13.8093 84.3164 13.4929C84.3164 13.2898 84.2559 13.1179 84.1348 12.9773C84.0176 12.8328 83.8105 12.7078 83.5137 12.6023C83.3105 12.532 82.8477 12.407 82.125 12.2273C81.1953 11.9968 80.543 11.7136 80.168 11.3777C79.6406 10.905 79.377 10.3289 79.377 9.64917C79.377 9.21167 79.5 8.80347 79.7461 8.42456C79.9961 8.04175 80.3535 7.75073 80.8184 7.55151C81.2871 7.35229 81.8516 7.25269 82.5117 7.25269C83.5898 7.25269 84.4004 7.48901 84.9434 7.96167C85.4902 8.43433 85.7773 9.06519 85.8047 9.85425L84.0703 9.93042C83.9961 9.48901 83.8359 9.17261 83.5898 8.9812C83.3477 8.78589 82.9824 8.68823 82.4941 8.68823C81.9902 8.68823 81.5957 8.79175 81.3105 8.99878C81.127 9.13159 81.0352 9.30933 81.0352 9.53198C81.0352 9.73511 81.1211 9.90894 81.293 10.0535C81.5117 10.2371 82.043 10.4285 82.8867 10.6277C83.7305 10.8269 84.3535 11.0339 84.7559 11.2488C85.1621 11.4597 85.4785 11.7507 85.7051 12.1218C85.9355 12.489 86.0508 12.9441 86.0508 13.4871C86.0508 13.9792 85.9141 14.4402 85.6406 14.8699C85.3672 15.2996 84.9805 15.6199 84.4805 15.8308C83.9805 16.0378 83.3574 16.1414 82.6113 16.1414C81.5254 16.1414 80.6914 15.8914 80.1094 15.3914C79.5273 14.8875 79.1797 14.155 79.0664 13.1941ZM87.5098 15.989V7.39917H93.8789V8.85229H89.2441V10.7566H93.5566V12.2039H89.2441V14.5417H94.043V15.989H87.5098ZM95.0742 13.1941L96.7617 13.03C96.8633 13.5964 97.0684 14.0125 97.377 14.2781C97.6895 14.5437 98.1094 14.6765 98.6367 14.6765C99.1953 14.6765 99.6152 14.5593 99.8965 14.325C100.182 14.0867 100.324 13.8093 100.324 13.4929C100.324 13.2898 100.264 13.1179 100.143 12.9773C100.025 12.8328 99.8184 12.7078 99.5215 12.6023C99.3184 12.532 98.8555 12.407 98.1328 12.2273C97.2031 11.9968 96.5508 11.7136 96.1758 11.3777C95.6484 10.905 95.3848 10.3289 95.3848 9.64917C95.3848 9.21167 95.5078 8.80347 95.7539 8.42456C96.0039 8.04175 96.3613 7.75073 96.8262 7.55151C97.2949 7.35229 97.8594 7.25269 98.5195 7.25269C99.5977 7.25269 100.408 7.48901 100.951 7.96167C101.498 8.43433 101.785 9.06519 101.812 9.85425L100.078 9.93042C100.004 9.48901 99.8438 9.17261 99.5977 8.9812C99.3555 8.78589 98.9902 8.68823 98.502 8.68823C97.998 8.68823 97.6035 8.79175 97.3184 8.99878C97.1348 9.13159 97.043 9.30933 97.043 9.53198C97.043 9.73511 97.1289 9.90894 97.3008 10.0535C97.5195 10.2371 98.0508 10.4285 98.8945 10.6277C99.7383 10.8269 100.361 11.0339 100.764 11.2488C101.17 11.4597 101.486 11.7507 101.713 12.1218C101.943 12.489 102.059 12.9441 102.059 13.4871C102.059 13.9792 101.922 14.4402 101.648 14.8699C101.375 15.2996 100.988 15.6199 100.488 15.8308C99.9883 16.0378 99.3652 16.1414 98.6191 16.1414C97.5332 16.1414 96.6992 15.8914 96.1172 15.3914C95.5352 14.8875 95.1875 14.155 95.0742 13.1941Z" fill="white"/>
<defs>
<linearGradient id="paint0_linear_45_4250" x1="55.5" y1="1.98901" x2="55.5" y2="21.989" gradientUnits="userSpaceOnUse">
<stop stop-color="#C97800"/>
<stop offset="1" stop-color="#104B85"/>
</linearGradient>
</defs>
</svg>
