<svg width="58" height="24" viewBox="0 0 58 24" fill="none" xmlns="http://www.w3.org/2000/svg">
<rect x="2" y="1.98901" width="55" height="20" rx="10" fill="url(#paint0_linear_45_4240)"/>
<rect x="2" y="1.98901" width="55" height="20" rx="10" stroke="#994C25" stroke-width="3" stroke-linejoin="round"/>
<path d="M14.0137 12.8308V11.3835H17.752V14.8054C17.3887 15.157 16.8613 15.4675 16.1699 15.7371C15.4824 16.0027 14.7852 16.1355 14.0781 16.1355C13.1797 16.1355 12.3965 15.948 11.7285 15.573C11.0605 15.1941 10.5586 14.655 10.2227 13.9558C9.88672 13.2527 9.71875 12.489 9.71875 11.6648C9.71875 10.7703 9.90625 9.97534 10.2812 9.28003C10.6562 8.58472 11.2051 8.05151 11.9277 7.68042C12.4785 7.39526 13.1641 7.25269 13.9844 7.25269C15.0508 7.25269 15.8828 7.47729 16.4805 7.92651C17.082 8.37183 17.4688 8.98901 17.6406 9.77808L15.918 10.1003C15.7969 9.67847 15.5684 9.34644 15.2324 9.10425C14.9004 8.85815 14.4844 8.73511 13.9844 8.73511C13.2266 8.73511 12.623 8.97534 12.1738 9.45581C11.7285 9.93628 11.5059 10.6492 11.5059 11.5945C11.5059 12.614 11.7324 13.3796 12.1855 13.8914C12.6387 14.3992 13.2324 14.6531 13.9668 14.6531C14.3301 14.6531 14.6934 14.5828 15.0566 14.4421C15.4238 14.2976 15.7383 14.1238 16 13.9207V12.8308H14.0137ZM19.375 15.989V7.39917H21.0625L24.5781 13.1355V7.39917H26.1895V15.989H24.4492L20.9863 10.3875V15.989H19.375ZM32.0254 12.8308V11.3835H35.7637V14.8054C35.4004 15.157 34.873 15.4675 34.1816 15.7371C33.4941 16.0027 32.7969 16.1355 32.0898 16.1355C31.1914 16.1355 30.4082 15.948 29.7402 15.573C29.0723 15.1941 28.5703 14.655 28.2344 13.9558C27.8984 13.2527 27.7305 12.489 27.7305 11.6648C27.7305 10.7703 27.918 9.97534 28.293 9.28003C28.668 8.58472 29.2168 8.05151 29.9395 7.68042C30.4902 7.39526 31.1758 7.25269 31.9961 7.25269C33.0625 7.25269 33.8945 7.47729 34.4922 7.92651C35.0938 8.37183 35.4805 8.98901 35.6523 9.77808L33.9297 10.1003C33.8086 9.67847 33.5801 9.34644 33.2441 9.10425C32.9121 8.85815 32.4961 8.73511 31.9961 8.73511C31.2383 8.73511 30.6348 8.97534 30.1855 9.45581C29.7402 9.93628 29.5176 10.6492 29.5176 11.5945C29.5176 12.614 29.7441 13.3796 30.1973 13.8914C30.6504 14.3992 31.2441 14.6531 31.9785 14.6531C32.3418 14.6531 32.7051 14.5828 33.0684 14.4421C33.4355 14.2976 33.75 14.1238 34.0117 13.9207V12.8308H32.0254ZM41.2188 15.989H39.5723V9.78394C38.9707 10.3464 38.2617 10.7625 37.4453 11.032V9.53784C37.875 9.39722 38.3418 9.13159 38.8457 8.74097C39.3496 8.34644 39.6953 7.88745 39.8828 7.36401H41.2188V15.989ZM43.627 13.7097L45.2207 13.5164C45.2715 13.9226 45.4082 14.2332 45.6309 14.448C45.8535 14.6628 46.123 14.7703 46.4395 14.7703C46.7793 14.7703 47.0645 14.6414 47.2949 14.3835C47.5293 14.1257 47.6465 13.7781 47.6465 13.3406C47.6465 12.9265 47.5352 12.5984 47.3125 12.3562C47.0898 12.114 46.8184 11.9929 46.498 11.9929C46.2871 11.9929 46.0352 12.0339 45.7422 12.116L45.9238 10.7742C46.3691 10.7859 46.709 10.6902 46.9434 10.4871C47.1777 10.28 47.2949 10.0066 47.2949 9.66675C47.2949 9.37769 47.209 9.14722 47.0371 8.97534C46.8652 8.80347 46.6367 8.71753 46.3516 8.71753C46.0703 8.71753 45.8301 8.81519 45.6309 9.0105C45.4316 9.20581 45.3105 9.49097 45.2676 9.86597L43.75 9.60815C43.8555 9.08862 44.0137 8.67456 44.2246 8.36597C44.4395 8.05347 44.7363 7.80933 45.1152 7.63354C45.498 7.45386 45.9258 7.36401 46.3984 7.36401C47.207 7.36401 47.8555 7.62183 48.3438 8.13745C48.7461 8.55933 48.9473 9.03589 48.9473 9.56714C48.9473 10.321 48.5352 10.9226 47.7109 11.3718C48.2031 11.4773 48.5957 11.7136 48.8887 12.0808C49.1855 12.448 49.334 12.8914 49.334 13.4109C49.334 14.1648 49.0586 14.8074 48.5078 15.3386C47.957 15.8699 47.2715 16.1355 46.4512 16.1355C45.6738 16.1355 45.0293 15.9128 44.5176 15.4675C44.0059 15.0183 43.709 14.4324 43.627 13.7097Z" fill="white"/>
<defs>
<linearGradient id="paint0_linear_45_4240" x1="29.5" y1="1.98901" x2="29.5" y2="21.989" gradientUnits="userSpaceOnUse">
<stop stop-color="#994C25"/>
<stop offset="1" stop-color="#FB9EFF"/>
</linearGradient>
</defs>
</svg>
