<svg width="85" height="24" viewBox="0 0 85 24" fill="none" xmlns="http://www.w3.org/2000/svg">
<rect x="1" y="1.98901" width="83" height="20" rx="10" fill="url(#paint0_linear_50_1815)"/>
<rect x="1" y="1.98901" width="83" height="20" rx="10" stroke="#F8764F" stroke-width="3" stroke-linejoin="round"/>
<path d="M9.37695 15.989V7.39917H11.1113V11.2136L14.6152 7.39917H16.9473L13.7129 10.7449L17.123 15.989H14.8789L12.5176 11.9578L11.1113 13.3933V15.989H9.37695ZM18.0312 15.989V7.39917H21.6816C22.5996 7.39917 23.2656 7.47729 23.6797 7.63354C24.0977 7.78589 24.4316 8.05933 24.6816 8.45386C24.9316 8.84839 25.0566 9.29956 25.0566 9.80737C25.0566 10.4519 24.8672 10.9851 24.4883 11.407C24.1094 11.825 23.543 12.0886 22.7891 12.198C23.1641 12.4167 23.4727 12.657 23.7148 12.9187C23.9609 13.1804 24.291 13.6453 24.7051 14.3132L25.7539 15.989H23.6797L22.4258 14.1199C21.9805 13.4519 21.6758 13.032 21.5117 12.8601C21.3477 12.6843 21.1738 12.5652 20.9902 12.5027C20.8066 12.4363 20.5156 12.4031 20.1172 12.4031H19.7656V15.989H18.0312ZM19.7656 11.032H21.0488C21.8809 11.032 22.4004 10.9968 22.6074 10.9265C22.8145 10.8562 22.9766 10.7351 23.0938 10.5632C23.2109 10.3914 23.2695 10.1765 23.2695 9.9187C23.2695 9.62964 23.1914 9.39722 23.0352 9.22144C22.8828 9.04175 22.666 8.92847 22.3848 8.88159C22.2441 8.86206 21.8223 8.85229 21.1191 8.85229H19.7656V11.032ZM34.4434 15.989H32.5566L31.8066 14.0378H28.373L27.6641 15.989H25.8242L29.1699 7.39917H31.0039L34.4434 15.989ZM31.25 12.5906L30.0664 9.40308L28.9062 12.5906H31.25ZM35.375 7.39917H38.8086C39.4883 7.39917 39.9941 7.42847 40.3262 7.48706C40.6621 7.54175 40.9609 7.65894 41.2227 7.83862C41.4883 8.01831 41.709 8.25854 41.8848 8.55933C42.0605 8.8562 42.1484 9.19019 42.1484 9.56128C42.1484 9.96362 42.0391 10.3328 41.8203 10.6687C41.6055 11.0046 41.3125 11.2566 40.9414 11.4246C41.4648 11.5769 41.8672 11.8367 42.1484 12.2039C42.4297 12.571 42.5703 13.0027 42.5703 13.4988C42.5703 13.8894 42.4785 14.2703 42.2949 14.6414C42.1152 15.0085 41.8672 15.3035 41.5508 15.5261C41.2383 15.7449 40.8516 15.8796 40.3906 15.9304C40.1016 15.9617 39.4043 15.9812 38.2988 15.989H35.375V7.39917ZM37.1094 8.82886V10.8152H38.2461C38.9219 10.8152 39.3418 10.8054 39.5059 10.7859C39.8027 10.7507 40.0352 10.6492 40.2031 10.4812C40.375 10.3093 40.4609 10.0847 40.4609 9.80737C40.4609 9.54175 40.3867 9.3269 40.2383 9.16284C40.0938 8.99487 39.877 8.89331 39.5879 8.85815C39.416 8.83862 38.9219 8.82886 38.1055 8.82886H37.1094ZM37.1094 12.2449V14.5417H38.7148C39.3398 14.5417 39.7363 14.5242 39.9043 14.489C40.1621 14.4421 40.3711 14.3289 40.5312 14.1492C40.6953 13.9656 40.7773 13.7214 40.7773 13.4167C40.7773 13.1589 40.7148 12.9402 40.5898 12.7605C40.4648 12.5808 40.2832 12.45 40.0449 12.3679C39.8105 12.2859 39.2988 12.2449 38.5098 12.2449H37.1094ZM43.8418 13.698V12.0515H47.0762V13.698H43.8418ZM47.293 15.989V14.4246L51.8047 8.85229H47.8027V7.39917H54.0898V8.74683L49.3848 14.5417H54.2715V15.989H47.293ZM55.3848 15.989V7.39917H61.2734V8.85229H57.1191V10.8855H60.7051V12.3386H57.1191V15.989H55.3848ZM62.709 15.989V7.39917H65.4922C66.5469 7.39917 67.2344 7.44214 67.5547 7.52808C68.0469 7.65698 68.459 7.93823 68.791 8.37183C69.123 8.80151 69.2891 9.35815 69.2891 10.0417C69.2891 10.5691 69.1934 11.0125 69.002 11.3718C68.8105 11.7312 68.5664 12.0144 68.2695 12.2214C67.9766 12.4246 67.6777 12.5593 67.373 12.6257C66.959 12.7078 66.3594 12.7488 65.5742 12.7488H64.4434V15.989H62.709ZM64.4434 8.85229V11.2898H65.3926C66.0762 11.2898 66.5332 11.2449 66.7637 11.155C66.9941 11.0652 67.1738 10.9246 67.3027 10.7332C67.4355 10.5417 67.502 10.3191 67.502 10.0652C67.502 9.75269 67.4102 9.49487 67.2266 9.29175C67.043 9.08862 66.8105 8.96167 66.5293 8.91089C66.3223 8.87183 65.9062 8.85229 65.2812 8.85229H64.4434ZM70.1211 14.2136L71.7734 13.9617C71.8438 14.282 71.9863 14.5261 72.2012 14.6941C72.416 14.8582 72.7168 14.9402 73.1035 14.9402C73.5293 14.9402 73.8496 14.8621 74.0645 14.7058C74.209 14.5964 74.2812 14.45 74.2812 14.2664C74.2812 14.1414 74.2422 14.0378 74.1641 13.9558C74.082 13.8777 73.8984 13.8054 73.6133 13.739C72.2852 13.446 71.4434 13.1785 71.0879 12.9363C70.5957 12.6003 70.3496 12.1335 70.3496 11.5359C70.3496 10.9968 70.5625 10.5437 70.9883 10.1765C71.4141 9.80933 72.0742 9.62573 72.9688 9.62573C73.8203 9.62573 74.4531 9.7644 74.8672 10.0417C75.2812 10.3191 75.5664 10.7292 75.7227 11.2722L74.1699 11.5593C74.1035 11.3171 73.9766 11.1316 73.7891 11.0027C73.6055 10.8738 73.3418 10.8093 72.998 10.8093C72.5645 10.8093 72.2539 10.8699 72.0664 10.991C71.9414 11.0769 71.8789 11.1882 71.8789 11.325C71.8789 11.4421 71.9336 11.5417 72.043 11.6238C72.1914 11.7332 72.7031 11.8875 73.5781 12.0867C74.457 12.2859 75.0703 12.53 75.418 12.8191C75.7617 13.1121 75.9336 13.5203 75.9336 14.0437C75.9336 14.614 75.6953 15.1042 75.2188 15.5144C74.7422 15.9246 74.0371 16.1296 73.1035 16.1296C72.2559 16.1296 71.584 15.9578 71.0879 15.614C70.5957 15.2703 70.2734 14.8035 70.1211 14.2136Z" fill="white"/>
<defs>
<linearGradient id="paint0_linear_50_1815" x1="42.5" y1="1.98901" x2="42.5" y2="21.989" gradientUnits="userSpaceOnUse">
<stop stop-color="#DAC2C0"/>
<stop offset="1" stop-color="#F8764F"/>
</linearGradient>
</defs>
</svg>
