<svg width="54" height="19" viewBox="0 0 54 19" fill="none" xmlns="http://www.w3.org/2000/svg">
<path d="M9.33086 18.5718C14.1862 18.5718 18.1223 14.6358 18.1223 9.78041C18.1223 4.92506 14.1862 0.989014 9.33086 0.989014C4.4755 0.989014 0.539459 4.92506 0.539459 9.78041C0.539459 14.6358 4.4755 18.5718 9.33086 18.5718Z" fill="url(#paint0_radial_90_4372)"/>
<path d="M44.9424 18.5718C49.7977 18.5718 53.7338 14.6358 53.7338 9.78041C53.7338 4.92506 49.7977 0.989014 44.9424 0.989014C40.087 0.989014 36.151 4.92506 36.151 9.78041C36.151 14.6358 40.087 18.5718 44.9424 18.5718Z" fill="url(#paint1_radial_90_4372)"/>
<defs>
<radialGradient id="paint0_radial_90_4372" cx="0" cy="0" r="1" gradientUnits="userSpaceOnUse" gradientTransform="translate(7.54476 7.38731) scale(9.9856)">
<stop stop-color="#EBFFB2"/>
<stop offset="0.0685" stop-color="#E3F19C"/>
<stop offset="0.2071" stop-color="#D5D974"/>
<stop offset="0.3506" stop-color="#C9C554"/>
<stop offset="0.498" stop-color="#C0B63B"/>
<stop offset="0.6511" stop-color="#BAAB29"/>
<stop offset="0.8132" stop-color="#B6A41E"/>
<stop offset="1" stop-color="#B5A21B"/>
</radialGradient>
<radialGradient id="paint1_radial_90_4372" cx="0" cy="0" r="1" gradientUnits="userSpaceOnUse" gradientTransform="translate(43.1563 7.38731) scale(9.9856 9.9856)">
<stop stop-color="#EBFFB2"/>
<stop offset="0.0685" stop-color="#E3F19C"/>
<stop offset="0.2071" stop-color="#D5D974"/>
<stop offset="0.3506" stop-color="#C9C554"/>
<stop offset="0.498" stop-color="#C0B63B"/>
<stop offset="0.6511" stop-color="#BAAB29"/>
<stop offset="0.8132" stop-color="#B6A41E"/>
<stop offset="1" stop-color="#B5A21B"/>
</radialGradient>
</defs>
</svg>
