<svg width="43" height="24" viewBox="0 0 43 24" fill="none" xmlns="http://www.w3.org/2000/svg">
<rect x="2" y="1.98901" width="40" height="20" rx="10" fill="url(#paint0_linear_35_1434)"/>
<rect x="2" y="1.98901" width="40" height="20" rx="10" stroke="#FFA8FF" stroke-width="3" stroke-linejoin="round"/>
<path d="M18.0625 15.989H16.1758L15.4258 14.0378H11.9922L11.2832 15.989H9.44336L12.7891 7.39917H14.623L18.0625 15.989ZM14.8691 12.5906L13.6855 9.40308L12.5254 12.5906H14.8691ZM20.0312 15.989V8.85229H17.4824V7.39917H24.3086V8.85229H21.7656V15.989H20.0312ZM25.4102 15.989V7.39917H28.0059L29.5645 13.2585L31.1055 7.39917H33.707V15.989H32.0957V9.22729L30.3906 15.989H28.7207L27.0215 9.22729V15.989H25.4102Z" fill="white"/>
<defs>
<linearGradient id="paint0_linear_35_1434" x1="22" y1="1.98901" x2="22" y2="21.989" gradientUnits="userSpaceOnUse">
<stop stop-color="#FFA8FF"/>
<stop offset="1" stop-color="#536BD5"/>
</linearGradient>
</defs>
</svg>
