<svg width="18" height="50" viewBox="0 0 18 50" fill="none" xmlns="http://www.w3.org/2000/svg">
<path d="M8.73687 22.5438C8.46047 22.5438 8.23687 22.3202 8.23687 22.0438C8.23687 21.8128 8.12647 21.3675 8.02987 20.9745C7.80137 20.0473 7.63537 19.3773 8.14317 19.0907C8.64907 18.8104 9.17927 19.3387 9.49767 19.6571C9.65587 19.8148 9.88927 19.8925 10.1227 19.871C10.2731 19.8554 10.361 19.8017 10.3854 19.7743C10.3766 19.7709 10.3512 19.7055 10.2458 19.5995C10.1267 19.4808 9.95867 19.4032 9.76337 19.3139C8.92837 18.9306 8.23697 18.4448 8.23697 16.373C8.23697 16.0966 8.46057 15.873 8.73697 15.873C9.01337 15.873 9.23697 16.0966 9.23697 16.373C9.23697 17.9721 9.65397 18.163 10.1813 18.4052C10.4274 18.5185 10.7067 18.6469 10.9528 18.8925C11.4372 19.3764 11.4098 19.8183 11.3512 20.039C11.2516 20.4081 10.9293 20.6992 10.4879 20.8173C9.96057 20.9584 9.37167 20.8344 8.94297 20.4989C8.96347 20.5824 8.98297 20.6625 9.00057 20.7352C9.12267 21.2269 9.23687 21.6913 9.23687 22.0438C9.23687 22.3202 9.01327 22.5438 8.73687 22.5438Z" fill="#00A153"/>
<path d="M8.73724 45.4658C7.63274 45.4658 6.73724 44.5703 6.73724 43.4658V23.4658C6.73724 22.3613 7.63274 21.4658 8.73724 21.4658C9.84174 21.4658 10.7372 22.3613 10.7372 23.4658V43.4658C10.7372 44.5703 9.84174 45.4658 8.73724 45.4658Z" fill="url(#paint0_linear_86_2412)"/>
<path d="M11.5918 46.0439C10.4873 46.0439 9.5918 45.1484 9.5918 44.0439V24.0439C9.5918 22.9394 10.4873 22.0439 11.5918 22.0439C12.6963 22.0439 13.5918 22.9394 13.5918 24.0439V44.0439C13.5918 45.1484 12.6963 46.0439 11.5918 46.0439Z" fill="url(#paint1_linear_86_2412)"/>
<path d="M6.18457 46.3965C5.08007 46.3965 4.18457 45.501 4.18457 44.3965V24.3965C4.18457 23.292 5.08007 22.3965 6.18457 22.3965C7.28907 22.3965 8.18457 23.292 8.18457 24.3965V44.3965C8.18457 45.501 7.28907 46.3965 6.18457 46.3965Z" fill="url(#paint2_linear_86_2412)"/>
<path d="M12.5995 47.6899C11.495 47.6899 10.5995 46.7944 10.5995 45.6899V25.6899C10.5995 24.5854 11.495 23.6899 12.5995 23.6899C13.704 23.6899 14.5995 24.5854 14.5995 25.6899V45.6899C14.5995 46.7944 13.704 47.6899 12.5995 47.6899Z" fill="url(#paint3_linear_86_2412)"/>
<path d="M5.85547 48.1211C4.75097 48.1211 3.85547 47.2256 3.85547 46.1211V26.1211C3.85547 25.0166 4.75097 24.1211 5.85547 24.1211C6.95997 24.1211 7.85547 25.0166 7.85547 26.1211V46.1211C7.85547 47.2256 6.95997 48.1211 5.85547 48.1211Z" fill="url(#paint4_linear_86_2412)"/>
<path d="M11.0019 49.168C9.89739 49.168 9.00189 48.2725 9.00189 47.168V27.168C9.00189 26.0635 9.89739 25.168 11.0019 25.168C12.1064 25.168 13.0019 26.0635 13.0019 27.168V47.168C13.0019 48.2725 12.1064 49.168 11.0019 49.168Z" fill="url(#paint5_linear_86_2412)"/>
<path d="M7.99994 49.3735C6.89544 49.3735 5.99994 48.478 5.99994 47.3735V27.3735C5.99994 26.269 6.89544 25.3735 7.99994 25.3735C9.10444 25.3735 9.99994 26.269 9.99994 27.3735V47.3735C9.99994 48.478 9.10444 49.3735 7.99994 49.3735Z" fill="url(#paint6_linear_86_2412)"/>
<path d="M17.0976 6.09811C15.7092 2.74801 12.9021 0.93521 9.97392 0.65161C9.43102 0.59901 9.19142 1.33391 9.66732 1.60031C10.4603 2.04431 11.2261 2.61811 11.9267 3.31881C15.0598 6.45191 14.4206 9.60831 12.0796 11.9492C9.73862 14.2901 6.58232 14.9293 3.44922 11.7962C2.74842 11.0954 2.17442 10.3294 1.73042 9.53621C1.46442 9.06091 0.729316 9.29921 0.781716 9.84141C0.962616 11.7146 1.76942 13.5384 3.20422 14.9731C7.21422 18.9831 14.2649 18.0995 16.9349 12.322C17.8502 10.3415 17.933 8.11371 17.0976 6.09811Z" fill="url(#paint7_radial_86_2412)"/>
<path d="M17.0976 6.09811C15.7092 2.74801 12.9021 0.93521 9.97392 0.65161C9.43102 0.59901 9.19142 1.33391 9.66732 1.60031C10.4603 2.04431 11.2261 2.61811 11.9267 3.31881C15.0598 6.45191 14.4206 9.60831 12.0796 11.9492C9.73862 14.2901 6.58232 14.9293 3.44922 11.7962C2.74842 11.0954 2.17442 10.3294 1.73042 9.53621C1.46442 9.06091 0.729316 9.29921 0.781716 9.84141C0.962616 11.7146 1.76942 13.5384 3.20422 14.9731C7.21422 18.9831 14.2649 18.0995 16.9349 12.322C17.8502 10.3415 17.933 8.11371 17.0976 6.09811Z" fill="url(#paint8_radial_86_2412)"/>
<defs>
<linearGradient id="paint0_linear_86_2412" x1="6.73724" y1="33.4658" x2="10.7372" y2="33.4658" gradientUnits="userSpaceOnUse">
<stop stop-color="#003B00"/>
<stop offset="0.0152" stop-color="#004A0C"/>
<stop offset="0.0539" stop-color="#006926"/>
<stop offset="0.0943" stop-color="#00823A"/>
<stop offset="0.1364" stop-color="#009348"/>
<stop offset="0.1815" stop-color="#009E50"/>
<stop offset="0.2349" stop-color="#00A153"/>
<stop offset="0.7697" stop-color="#003B00"/>
</linearGradient>
<linearGradient id="paint1_linear_86_2412" x1="9.5918" y1="34.0439" x2="13.5918" y2="34.0439" gradientUnits="userSpaceOnUse">
<stop stop-color="#003B00"/>
<stop offset="0.0152" stop-color="#004A0C"/>
<stop offset="0.0539" stop-color="#006926"/>
<stop offset="0.0943" stop-color="#00823A"/>
<stop offset="0.1364" stop-color="#009348"/>
<stop offset="0.1815" stop-color="#009E50"/>
<stop offset="0.2349" stop-color="#00A153"/>
<stop offset="1" stop-color="#003B00"/>
</linearGradient>
<linearGradient id="paint2_linear_86_2412" x1="4.18457" y1="34.3965" x2="8.18457" y2="34.3965" gradientUnits="userSpaceOnUse">
<stop stop-color="#003B00"/>
<stop offset="0.0152" stop-color="#004A0C"/>
<stop offset="0.0539" stop-color="#006926"/>
<stop offset="0.0943" stop-color="#00823A"/>
<stop offset="0.1364" stop-color="#009348"/>
<stop offset="0.1815" stop-color="#009E50"/>
<stop offset="0.2349" stop-color="#00A153"/>
<stop offset="1" stop-color="#003B00"/>
</linearGradient>
<linearGradient id="paint3_linear_86_2412" x1="10.5995" y1="35.6899" x2="14.5995" y2="35.6899" gradientUnits="userSpaceOnUse">
<stop stop-color="#003B00"/>
<stop offset="0.0152" stop-color="#004A0C"/>
<stop offset="0.0539" stop-color="#006926"/>
<stop offset="0.0943" stop-color="#00823A"/>
<stop offset="0.1364" stop-color="#009348"/>
<stop offset="0.1815" stop-color="#009E50"/>
<stop offset="0.2349" stop-color="#00A153"/>
<stop offset="1" stop-color="#003B00"/>
</linearGradient>
<linearGradient id="paint4_linear_86_2412" x1="3.85547" y1="36.1211" x2="7.85547" y2="36.1211" gradientUnits="userSpaceOnUse">
<stop stop-color="#003B00"/>
<stop offset="0.0152" stop-color="#004A0C"/>
<stop offset="0.0539" stop-color="#006926"/>
<stop offset="0.0943" stop-color="#00823A"/>
<stop offset="0.1364" stop-color="#009348"/>
<stop offset="0.1815" stop-color="#009E50"/>
<stop offset="0.2349" stop-color="#00A153"/>
<stop offset="1" stop-color="#003B00"/>
</linearGradient>
<linearGradient id="paint5_linear_86_2412" x1="9.00189" y1="37.168" x2="13.0019" y2="37.168" gradientUnits="userSpaceOnUse">
<stop stop-color="#003B00"/>
<stop offset="0.0152" stop-color="#004A0C"/>
<stop offset="0.0539" stop-color="#006926"/>
<stop offset="0.0943" stop-color="#00823A"/>
<stop offset="0.1364" stop-color="#009348"/>
<stop offset="0.1815" stop-color="#009E50"/>
<stop offset="0.2349" stop-color="#00A153"/>
<stop offset="1" stop-color="#003B00"/>
</linearGradient>
<linearGradient id="paint6_linear_86_2412" x1="5.99994" y1="37.3735" x2="9.99994" y2="37.3735" gradientUnits="userSpaceOnUse">
<stop stop-color="#003B00"/>
<stop offset="0.0152" stop-color="#004A0C"/>
<stop offset="0.0539" stop-color="#006926"/>
<stop offset="0.0943" stop-color="#00823A"/>
<stop offset="0.1364" stop-color="#009348"/>
<stop offset="0.1815" stop-color="#009E50"/>
<stop offset="0.2349" stop-color="#00A153"/>
<stop offset="1" stop-color="#003B00"/>
</linearGradient>
<radialGradient id="paint7_radial_86_2412" cx="0" cy="0" r="1" gradientUnits="userSpaceOnUse" gradientTransform="translate(9.3133 9.08982) rotate(45) scale(8.32202)">
<stop offset="0.483" stop-color="#00A153"/>
<stop offset="0.999" stop-color="#003B00"/>
</radialGradient>
<radialGradient id="paint8_radial_86_2412" cx="0" cy="0" r="1" gradientUnits="userSpaceOnUse" gradientTransform="translate(9.3133 9.08982) rotate(45) scale(8.32202)">
<stop offset="0.5427" stop-color="#003B00"/>
<stop offset="1" stop-color="#00A153" stop-opacity="0"/>
</radialGradient>
</defs>
</svg>
