<svg width="55" height="24" viewBox="0 0 55 24" fill="none" xmlns="http://www.w3.org/2000/svg">
<rect x="2" y="1.98901" width="52" height="20" rx="10" fill="url(#paint0_linear_46_4332)"/>
<rect x="2" y="1.98901" width="52" height="20" rx="10" stroke="#CF002D" stroke-width="3" stroke-linejoin="round"/>
<path d="M10.1406 15.989V7.39917H11.875V15.989H10.1406ZM13.5566 15.989V7.39917H15.291V11.2136L18.7949 7.39917H21.127L17.8926 10.7449L21.3027 15.989H19.0586L16.6973 11.9578L15.291 13.3933V15.989H13.5566ZM22.2109 7.39917H25.6445C26.3242 7.39917 26.8301 7.42847 27.1621 7.48706C27.498 7.54175 27.7969 7.65894 28.0586 7.83862C28.3242 8.01831 28.5449 8.25854 28.7207 8.55933C28.8965 8.8562 28.9844 9.19019 28.9844 9.56128C28.9844 9.96362 28.875 10.3328 28.6562 10.6687C28.4414 11.0046 28.1484 11.2566 27.7773 11.4246C28.3008 11.5769 28.7031 11.8367 28.9844 12.2039C29.2656 12.571 29.4062 13.0027 29.4062 13.4988C29.4062 13.8894 29.3145 14.2703 29.1309 14.6414C28.9512 15.0085 28.7031 15.3035 28.3867 15.5261C28.0742 15.7449 27.6875 15.8796 27.2266 15.9304C26.9375 15.9617 26.2402 15.9812 25.1348 15.989H22.2109V7.39917ZM23.9453 8.82886V10.8152H25.082C25.7578 10.8152 26.1777 10.8054 26.3418 10.7859C26.6387 10.7507 26.8711 10.6492 27.0391 10.4812C27.2109 10.3093 27.2969 10.0847 27.2969 9.80737C27.2969 9.54175 27.2227 9.3269 27.0742 9.16284C26.9297 8.99487 26.7129 8.89331 26.4238 8.85815C26.252 8.83862 25.7578 8.82886 24.9414 8.82886H23.9453ZM23.9453 12.2449V14.5417H25.5508C26.1758 14.5417 26.5723 14.5242 26.7402 14.489C26.998 14.4421 27.207 14.3289 27.3672 14.1492C27.5312 13.9656 27.6133 13.7214 27.6133 13.4167C27.6133 13.1589 27.5508 12.9402 27.4258 12.7605C27.3008 12.5808 27.1191 12.45 26.8809 12.3679C26.6465 12.2859 26.1348 12.2449 25.3457 12.2449H23.9453ZM30.9004 15.989V7.39917H32.6348V11.2136L36.1387 7.39917H38.4707L35.2363 10.7449L38.6465 15.989H36.4023L34.041 11.9578L32.6348 13.3933V15.989H30.9004ZM39.5488 15.989V7.39917H45.918V8.85229H41.2832V10.7566H45.5957V12.2039H41.2832V14.5417H46.082V15.989H39.5488Z" fill="white"/>
<defs>
<linearGradient id="paint0_linear_46_4332" x1="28" y1="1.98901" x2="28" y2="21.989" gradientUnits="userSpaceOnUse">
<stop stop-color="#00E7A8"/>
<stop offset="1" stop-color="#CF002D"/>
</linearGradient>
</defs>
</svg>
