<svg width="37" height="24" viewBox="0 0 37 24" fill="none" xmlns="http://www.w3.org/2000/svg">
<rect x="2" y="1.98901" width="34" height="20" rx="10" fill="#D55394"/>
<rect x="2" y="1.98901" width="34" height="20" rx="10" stroke="#53203A" stroke-width="3" stroke-linejoin="round"/>
<path d="M17.6934 12.8308L19.375 13.364C19.1172 14.3015 18.6875 14.9988 18.0859 15.4558C17.4883 15.9089 16.7285 16.1355 15.8066 16.1355C14.666 16.1355 13.7285 15.7468 12.9941 14.9695C12.2598 14.1882 11.8926 13.1218 11.8926 11.7703C11.8926 10.3406 12.2617 9.2312 13 8.44214C13.7383 7.64917 14.709 7.25269 15.9121 7.25269C16.9629 7.25269 17.8164 7.56323 18.4727 8.18433C18.8633 8.55151 19.1562 9.07886 19.3516 9.76636L17.6348 10.1765C17.5332 9.7312 17.3203 9.37964 16.9961 9.12183C16.6758 8.86401 16.2852 8.73511 15.8242 8.73511C15.1875 8.73511 14.6699 8.96362 14.2715 9.42065C13.877 9.87769 13.6797 10.6179 13.6797 11.6414C13.6797 12.7273 13.875 13.5007 14.2656 13.9617C14.6562 14.4226 15.1641 14.6531 15.7891 14.6531C16.25 14.6531 16.6465 14.5066 16.9785 14.2136C17.3105 13.9207 17.5488 13.4597 17.6934 12.8308ZM26.0664 14.4597V15.989H20.2949C20.3574 15.4109 20.5449 14.864 20.8574 14.3484C21.1699 13.8289 21.7871 13.1414 22.709 12.2859C23.4512 11.5945 23.9062 11.1257 24.0742 10.8796C24.3008 10.5398 24.4141 10.2039 24.4141 9.87183C24.4141 9.50464 24.3145 9.22339 24.1152 9.02808C23.9199 8.82886 23.6484 8.72925 23.3008 8.72925C22.957 8.72925 22.6836 8.83276 22.4805 9.03979C22.2773 9.24683 22.1602 9.59058 22.1289 10.071L20.4883 9.90698C20.5859 9.00073 20.8926 8.35034 21.4082 7.95581C21.9238 7.56128 22.5684 7.36401 23.3418 7.36401C24.1895 7.36401 24.8555 7.59253 25.3398 8.04956C25.8242 8.50659 26.0664 9.07495 26.0664 9.75464C26.0664 10.1414 25.9961 10.5105 25.8555 10.8621C25.7188 11.2097 25.5 11.575 25.1992 11.9578C25 12.2117 24.6406 12.5769 24.1211 13.0535C23.6016 13.53 23.2715 13.8464 23.1309 14.0027C22.9941 14.1589 22.8828 14.3113 22.7969 14.4597H26.0664Z" fill="white"/>
</svg>
