<svg width="49" height="24" viewBox="0 0 49 24" fill="none" xmlns="http://www.w3.org/2000/svg">
<rect x="2" y="1.98901" width="46" height="20" rx="10" fill="url(#paint0_linear_64_1910)"/>
<rect x="2" y="1.98901" width="46" height="20" rx="10" stroke="#004E00" stroke-width="3" stroke-linejoin="round"/>
<path d="M10.3047 15.989V7.39917H13.0879C14.1426 7.39917 14.8301 7.44214 15.1504 7.52808C15.6426 7.65698 16.0547 7.93823 16.3867 8.37183C16.7188 8.80151 16.8848 9.35815 16.8848 10.0417C16.8848 10.5691 16.7891 11.0125 16.5977 11.3718C16.4062 11.7312 16.1621 12.0144 15.8652 12.2214C15.5723 12.4246 15.2734 12.5593 14.9688 12.6257C14.5547 12.7078 13.9551 12.7488 13.1699 12.7488H12.0391V15.989H10.3047ZM12.0391 8.85229V11.2898H12.9883C13.6719 11.2898 14.1289 11.2449 14.3594 11.155C14.5898 11.0652 14.7695 10.9246 14.8984 10.7332C15.0312 10.5417 15.0977 10.3191 15.0977 10.0652C15.0977 9.75269 15.0059 9.49487 14.8223 9.29175C14.6387 9.08862 14.4062 8.96167 14.125 8.91089C13.918 8.87183 13.502 8.85229 12.877 8.85229H12.0391ZM25.1641 15.989H23.2773L22.5273 14.0378H19.0938L18.3848 15.989H16.5449L19.8906 7.39917H21.7246L25.1641 15.989ZM21.9707 12.5906L20.7871 9.40308L19.627 12.5906H21.9707ZM26.1133 15.989V7.39917H27.8477V11.2136L31.3516 7.39917H33.6836L30.4492 10.7449L33.8594 15.989H31.6152L29.2539 11.9578L27.8477 13.3933V15.989H26.1133ZM34.1699 14.2136L35.8223 13.9617C35.8926 14.282 36.0352 14.5261 36.25 14.6941C36.4648 14.8582 36.7656 14.9402 37.1523 14.9402C37.5781 14.9402 37.8984 14.8621 38.1133 14.7058C38.2578 14.5964 38.3301 14.45 38.3301 14.2664C38.3301 14.1414 38.291 14.0378 38.2129 13.9558C38.1309 13.8777 37.9473 13.8054 37.6621 13.739C36.334 13.446 35.4922 13.1785 35.1367 12.9363C34.6445 12.6003 34.3984 12.1335 34.3984 11.5359C34.3984 10.9968 34.6113 10.5437 35.0371 10.1765C35.4629 9.80933 36.123 9.62573 37.0176 9.62573C37.8691 9.62573 38.502 9.7644 38.916 10.0417C39.3301 10.3191 39.6152 10.7292 39.7715 11.2722L38.2188 11.5593C38.1523 11.3171 38.0254 11.1316 37.8379 11.0027C37.6543 10.8738 37.3906 10.8093 37.0469 10.8093C36.6133 10.8093 36.3027 10.8699 36.1152 10.991C35.9902 11.0769 35.9277 11.1882 35.9277 11.325C35.9277 11.4421 35.9824 11.5417 36.0918 11.6238C36.2402 11.7332 36.752 11.8875 37.627 12.0867C38.5059 12.2859 39.1191 12.53 39.4668 12.8191C39.8105 13.1121 39.9824 13.5203 39.9824 14.0437C39.9824 14.614 39.7441 15.1042 39.2676 15.5144C38.791 15.9246 38.0859 16.1296 37.1523 16.1296C36.3047 16.1296 35.6328 15.9578 35.1367 15.614C34.6445 15.2703 34.3223 14.8035 34.1699 14.2136Z" fill="white"/>
<defs>
<linearGradient id="paint0_linear_64_1910" x1="25" y1="1.98901" x2="25" y2="21.989" gradientUnits="userSpaceOnUse">
<stop stop-color="#004E00"/>
<stop offset="1" stop-color="#FF93AC"/>
</linearGradient>
</defs>
</svg>
