<svg width="48" height="24" viewBox="0 0 48 24" fill="none" xmlns="http://www.w3.org/2000/svg">
<rect x="2" y="1.98901" width="45" height="20" rx="10" fill="url(#paint0_linear_84_2059)"/>
<rect x="2" y="1.98901" width="45" height="20" rx="10" stroke="#C07BAE" stroke-width="3" stroke-linejoin="round"/>
<path d="M12.2949 15.989V8.85229H9.74609V7.39917H16.5723V8.85229H14.0293V15.989H12.2949ZM17.6855 7.39917H19.4199V12.0515C19.4199 12.7898 19.4414 13.2683 19.4844 13.4871C19.5586 13.8386 19.7344 14.1218 20.0117 14.3367C20.293 14.5476 20.6758 14.6531 21.1602 14.6531C21.6523 14.6531 22.0234 14.5535 22.2734 14.3542C22.5234 14.1511 22.6738 13.9031 22.7246 13.6101C22.7754 13.3171 22.8008 12.8308 22.8008 12.1511V7.39917H24.5352V11.9109C24.5352 12.9421 24.4883 13.6707 24.3945 14.0964C24.3008 14.5222 24.127 14.8816 23.873 15.1746C23.623 15.4675 23.2871 15.7019 22.8652 15.8777C22.4434 16.0496 21.8926 16.1355 21.2129 16.1355C20.3926 16.1355 19.7695 16.0417 19.3438 15.8542C18.9219 15.6628 18.5879 15.4167 18.3418 15.116C18.0957 14.8113 17.9336 14.4929 17.8555 14.1609C17.7422 13.6687 17.6855 12.9421 17.6855 11.9812V7.39917ZM28.3027 15.989V8.85229H25.7539V7.39917H32.5801V8.85229H30.0371V15.989H28.3027ZM36.5703 15.989V14.2605H33.0547V12.8191L36.7812 7.36401H38.1641V12.8132H39.2305V14.2605H38.1641V15.989H36.5703ZM36.5703 12.8132V9.87769L34.5957 12.8132H36.5703Z" fill="white"/>
<defs>
<linearGradient id="paint0_linear_84_2059" x1="24.5" y1="1.98901" x2="24.5" y2="21.989" gradientUnits="userSpaceOnUse">
<stop stop-color="#C07BAE"/>
<stop offset="1" stop-color="#00E04E"/>
</linearGradient>
</defs>
</svg>
