<svg width="60" height="24" viewBox="0 0 60 24" fill="none" xmlns="http://www.w3.org/2000/svg">
<rect x="2" y="1.98901" width="57" height="20" rx="10" fill="url(#paint0_linear_42_2732)"/>
<rect x="2" y="1.98901" width="57" height="20" rx="10" stroke="#AD9F05" stroke-width="3" stroke-linejoin="round"/>
<path d="M10.373 15.989V7.39917H16.2617V8.85229H12.1074V10.8855H15.6934V12.3386H12.1074V15.989H10.373ZM17.7031 7.39917H21.1367C21.8164 7.39917 22.3223 7.42847 22.6543 7.48706C22.9902 7.54175 23.2891 7.65894 23.5508 7.83862C23.8164 8.01831 24.0371 8.25854 24.2129 8.55933C24.3887 8.8562 24.4766 9.19019 24.4766 9.56128C24.4766 9.96362 24.3672 10.3328 24.1484 10.6687C23.9336 11.0046 23.6406 11.2566 23.2695 11.4246C23.793 11.5769 24.1953 11.8367 24.4766 12.2039C24.7578 12.571 24.8984 13.0027 24.8984 13.4988C24.8984 13.8894 24.8066 14.2703 24.623 14.6414C24.4434 15.0085 24.1953 15.3035 23.8789 15.5261C23.5664 15.7449 23.1797 15.8796 22.7188 15.9304C22.4297 15.9617 21.7324 15.9812 20.627 15.989H17.7031V7.39917ZM19.4375 8.82886V10.8152H20.5742C21.25 10.8152 21.6699 10.8054 21.834 10.7859C22.1309 10.7507 22.3633 10.6492 22.5312 10.4812C22.7031 10.3093 22.7891 10.0847 22.7891 9.80737C22.7891 9.54175 22.7148 9.3269 22.5664 9.16284C22.4219 8.99487 22.2051 8.89331 21.916 8.85815C21.7441 8.83862 21.25 8.82886 20.4336 8.82886H19.4375ZM19.4375 12.2449V14.5417H21.043C21.668 14.5417 22.0645 14.5242 22.2324 14.489C22.4902 14.4421 22.6992 14.3289 22.8594 14.1492C23.0234 13.9656 23.1055 13.7214 23.1055 13.4167C23.1055 13.1589 23.043 12.9402 22.918 12.7605C22.793 12.5808 22.6113 12.45 22.373 12.3679C22.1387 12.2859 21.627 12.2449 20.8379 12.2449H19.4375ZM25.4961 15.989L28.4316 11.5066L25.7715 7.39917H27.7988L29.5215 10.1589L31.209 7.39917H33.2188L30.5469 11.571L33.4824 15.989H31.3906L29.4863 13.0183L27.5762 15.989H25.4961ZM35.5918 15.989L33.541 7.39917H35.3164L36.6113 13.2996L38.1816 7.39917H40.2441L41.75 13.3992L43.0684 7.39917H44.8145L42.7285 15.989H40.8887L39.1777 9.56714L37.4727 15.989H35.5918ZM45.3418 9.04565V7.51636H50.9727V8.71167C50.5078 9.1687 50.0352 9.82495 49.5547 10.6804C49.0742 11.5359 48.707 12.446 48.4531 13.4109C48.2031 14.3718 48.0801 15.2312 48.084 15.989H46.4961C46.5234 14.8015 46.7676 13.5906 47.2285 12.3562C47.6934 11.1218 48.3125 10.0183 49.0859 9.04565H45.3418Z" fill="white"/>
<defs>
<linearGradient id="paint0_linear_42_2732" x1="30.5" y1="1.98901" x2="30.5" y2="21.989" gradientUnits="userSpaceOnUse">
<stop stop-color="#2AC9C9"/>
<stop offset="1" stop-color="#AD9F05"/>
</linearGradient>
</defs>
</svg>
