<svg width="44" height="44" viewBox="0 0 44 44" fill="none" xmlns="http://www.w3.org/2000/svg">
<path d="M22.0074 1.03491C33.4511 1.03516 42.7594 10.3455 42.7594 21.7878C42.7593 33.2302 33.451 42.5386 22.0074 42.5388C10.565 42.5388 1.25556 33.2316 1.25549 21.7878C1.25549 10.344 10.565 1.03491 22.0074 1.03491Z" fill="url(#paint0_radial_90_4619)" stroke="#417799"/>
<path d="M11.2496 18.5349V9.94507H12.984V18.5349H11.2496ZM14.6539 18.5349V9.94507H20.5426V11.3982H16.3883V13.4314H19.9742V14.8845H16.3883V18.5349H14.6539ZM21.9957 18.5349V9.94507H23.6832L27.1989 15.6814V9.94507H28.8102V18.5349H27.0699L23.6071 12.9333V18.5349H21.9957ZM30.4508 16.2439V14.5974H33.6852V16.2439H30.4508Z" fill="white"/>
<path d="M10.5465 32.9348V24.345H12.193V27.4387C12.7008 26.8606 13.3024 26.5715 13.9977 26.5715C14.7555 26.5715 15.3824 26.8469 15.8785 27.3977C16.3746 27.9446 16.6227 28.7317 16.6227 29.759C16.6227 30.8215 16.3688 31.6399 15.861 32.2141C15.3571 32.7883 14.7438 33.0754 14.0211 33.0754C13.6656 33.0754 13.3141 32.9875 12.9664 32.8118C12.6227 32.6321 12.3258 32.3684 12.0758 32.0208V32.9348H10.5465ZM12.1813 29.6887C12.1813 30.3333 12.2828 30.8098 12.486 31.1184C12.7711 31.5559 13.15 31.7747 13.6227 31.7747C13.986 31.7747 14.2946 31.6204 14.5485 31.3118C14.8063 30.9993 14.9352 30.509 14.9352 29.8411C14.9352 29.1301 14.8063 28.6184 14.5485 28.3059C14.2906 27.9895 13.9606 27.8313 13.5582 27.8313C13.1637 27.8313 12.8356 27.9856 12.5739 28.2942C12.3121 28.5989 12.1813 29.0637 12.1813 29.6887ZM21.5563 30.9543L23.1969 31.2297C22.986 31.8313 22.652 32.2903 22.1949 32.6067C21.7418 32.9192 21.1735 33.0754 20.4899 33.0754C19.4078 33.0754 18.6071 32.7219 18.0875 32.0149C17.6774 31.4485 17.4723 30.7336 17.4723 29.8704C17.4723 28.8391 17.7418 28.0325 18.2809 27.4504C18.8199 26.8645 19.5016 26.5715 20.3258 26.5715C21.2516 26.5715 21.9821 26.8782 22.5172 27.4915C23.0524 28.1008 23.3082 29.0364 23.2848 30.2981H19.1598C19.1715 30.7864 19.3043 31.1672 19.5582 31.4407C19.8121 31.7102 20.1285 31.845 20.5074 31.845C20.7653 31.845 20.9821 31.7747 21.1578 31.634C21.3336 31.4934 21.4664 31.2668 21.5563 30.9543ZM21.65 29.2903C21.6383 28.8137 21.5153 28.4524 21.2809 28.2063C21.0465 27.9563 20.7614 27.8313 20.4254 27.8313C20.066 27.8313 19.7692 27.9622 19.5348 28.2239C19.3004 28.4856 19.1852 28.8411 19.1891 29.2903H21.65ZM27.486 26.7122V28.0247H26.361V30.5325C26.361 31.0403 26.3707 31.3372 26.3903 31.4231C26.4137 31.5051 26.4625 31.5735 26.5367 31.6282C26.6149 31.6829 26.7086 31.7102 26.818 31.7102C26.9703 31.7102 27.191 31.6575 27.4801 31.552L27.6207 32.8293C27.2379 32.9934 26.8043 33.0754 26.3199 33.0754C26.0231 33.0754 25.7555 33.0266 25.5172 32.929C25.2789 32.8274 25.1031 32.6985 24.9899 32.5422C24.8805 32.3821 24.8043 32.1672 24.7614 31.8977C24.7262 31.7063 24.7086 31.3196 24.7086 30.7375V28.0247H23.9528V26.7122H24.7086V25.4758L26.361 24.5149V26.7122H27.486ZM29.859 28.6106L28.3649 28.3411C28.5328 27.7395 28.8219 27.2942 29.2321 27.0051C29.6422 26.7161 30.2516 26.5715 31.0602 26.5715C31.7946 26.5715 32.3414 26.6594 32.7008 26.8352C33.0602 27.0071 33.3121 27.2278 33.4567 27.4973C33.6051 27.7629 33.6793 28.2532 33.6793 28.968L33.6617 30.8899C33.6617 31.4368 33.6871 31.8411 33.7379 32.1028C33.7926 32.3606 33.8922 32.6379 34.0367 32.9348H32.4078C32.3649 32.8254 32.3121 32.6633 32.2496 32.4485C32.2223 32.3508 32.2028 32.2864 32.191 32.2551C31.9098 32.5286 31.609 32.7336 31.2887 32.8704C30.9684 33.0071 30.6266 33.0754 30.2633 33.0754C29.6227 33.0754 29.1168 32.9016 28.7457 32.554C28.3785 32.2063 28.1949 31.7668 28.1949 31.2356C28.1949 30.884 28.2789 30.5715 28.4469 30.2981C28.6149 30.0208 28.8492 29.8098 29.15 29.6653C29.4547 29.5168 29.8922 29.3879 30.4625 29.2786C31.2321 29.134 31.7653 28.9993 32.0621 28.8743V28.7102C32.0621 28.3938 31.984 28.1692 31.8278 28.0364C31.6715 27.8997 31.3766 27.8313 30.943 27.8313C30.65 27.8313 30.4215 27.8899 30.2574 28.0071C30.0934 28.1204 29.9606 28.3215 29.859 28.6106ZM32.0621 29.9465C31.8512 30.0168 31.5172 30.1008 31.0602 30.1985C30.6031 30.2961 30.3043 30.3918 30.1637 30.4856C29.9489 30.6379 29.8414 30.8313 29.8414 31.0657C29.8414 31.2961 29.9274 31.4954 30.0992 31.6633C30.2711 31.8313 30.4899 31.9153 30.7555 31.9153C31.0524 31.9153 31.3356 31.8176 31.6051 31.6223C31.8043 31.4739 31.9352 31.2922 31.9977 31.0774C32.0406 30.9368 32.0621 30.6692 32.0621 30.2747V29.9465Z" fill="white"/>
<defs>
<radialGradient id="paint0_radial_90_4619" cx="0" cy="0" r="1" gradientUnits="userSpaceOnUse" gradientTransform="translate(17.5348 13.5482) scale(19.3962)">
<stop stop-color="#FFB9F2"/>
<stop offset="1" stop-color="#B166A3"/>
</radialGradient>
</defs>
</svg>
