<svg width="65" height="24" viewBox="0 0 65 24" fill="none" xmlns="http://www.w3.org/2000/svg">
<rect x="2" y="1.98901" width="62" height="20" rx="10" fill="url(#paint0_linear_33_1398)"/>
<rect x="2" y="1.98901" width="62" height="20" rx="10" stroke="#00A5B1" stroke-width="3" stroke-linejoin="round"/>
<path d="M17.9297 15.989H16.043L15.293 14.0378H11.8594L11.1504 15.989H9.31055L12.6562 7.39917H14.4902L17.9297 15.989ZM14.7363 12.5906L13.5527 9.40308L12.3926 12.5906H14.7363ZM18.8496 7.39917H22.0195C22.7344 7.39917 23.2793 7.45386 23.6543 7.56323C24.1582 7.71167 24.5898 7.97534 24.9492 8.35425C25.3086 8.73315 25.582 9.198 25.7695 9.74878C25.957 10.2957 26.0508 10.9714 26.0508 11.7761C26.0508 12.4832 25.9629 13.0925 25.7871 13.6042C25.5723 14.2292 25.2656 14.7351 24.8672 15.1218C24.5664 15.4148 24.1602 15.6433 23.6484 15.8074C23.2656 15.9285 22.7539 15.989 22.1133 15.989H18.8496V7.39917ZM20.584 8.85229V14.5417H21.8789C22.3633 14.5417 22.7129 14.5144 22.9277 14.4597C23.209 14.3894 23.4414 14.2703 23.625 14.1023C23.8125 13.9343 23.9648 13.6589 24.082 13.2761C24.1992 12.8894 24.2578 12.364 24.2578 11.7C24.2578 11.0359 24.1992 10.5261 24.082 10.1707C23.9648 9.81519 23.8008 9.53784 23.5898 9.33862C23.3789 9.1394 23.1113 9.00464 22.7871 8.93433C22.5449 8.87964 22.0703 8.85229 21.3633 8.85229H20.584ZM33.0234 12.8308L34.7051 13.364C34.4473 14.3015 34.0176 14.9988 33.416 15.4558C32.8184 15.9089 32.0586 16.1355 31.1367 16.1355C29.9961 16.1355 29.0586 15.7468 28.3242 14.9695C27.5898 14.1882 27.2227 13.1218 27.2227 11.7703C27.2227 10.3406 27.5918 9.2312 28.3301 8.44214C29.0684 7.64917 30.0391 7.25269 31.2422 7.25269C32.293 7.25269 33.1465 7.56323 33.8027 8.18433C34.1934 8.55151 34.4863 9.07886 34.6816 9.76636L32.9648 10.1765C32.8633 9.7312 32.6504 9.37964 32.3262 9.12183C32.0059 8.86401 31.6152 8.73511 31.1543 8.73511C30.5176 8.73511 30 8.96362 29.6016 9.42065C29.207 9.87769 29.0098 10.6179 29.0098 11.6414C29.0098 12.7273 29.2051 13.5007 29.5957 13.9617C29.9863 14.4226 30.4941 14.6531 31.1191 14.6531C31.5801 14.6531 31.9766 14.5066 32.3086 14.2136C32.6406 13.9207 32.8789 13.4597 33.0234 12.8308ZM38.4551 15.989V12.3738L35.3086 7.39917H37.3418L39.3633 10.7976L41.3438 7.39917H43.3418L40.1836 12.3855V15.989H38.4551ZM48.0527 15.989H46.4062V9.78394C45.8047 10.3464 45.0957 10.7625 44.2793 11.032V9.53784C44.709 9.39722 45.1758 9.13159 45.6797 8.74097C46.1836 8.34644 46.5293 7.88745 46.7168 7.36401H48.0527V15.989ZM53.3027 7.36401C54.1348 7.36401 54.7852 7.66089 55.2539 8.25464C55.8125 8.95776 56.0918 10.1238 56.0918 11.7527C56.0918 13.3777 55.8105 14.5457 55.248 15.2566C54.7832 15.8425 54.1348 16.1355 53.3027 16.1355C52.4668 16.1355 51.793 15.8152 51.2812 15.1746C50.7695 14.53 50.5137 13.3835 50.5137 11.7351C50.5137 10.1179 50.7949 8.95386 51.3574 8.24292C51.8223 7.65698 52.4707 7.36401 53.3027 7.36401ZM53.3027 8.72925C53.1035 8.72925 52.9258 8.7937 52.7695 8.92261C52.6133 9.04761 52.4922 9.27417 52.4062 9.60229C52.293 10.0281 52.2363 10.7449 52.2363 11.7527C52.2363 12.7605 52.2871 13.4539 52.3887 13.8328C52.4902 14.2078 52.6172 14.4578 52.7695 14.5828C52.9258 14.7078 53.1035 14.7703 53.3027 14.7703C53.502 14.7703 53.6797 14.7078 53.8359 14.5828C53.9922 14.4539 54.1133 14.2253 54.1992 13.8972C54.3125 13.4753 54.3691 12.7605 54.3691 11.7527C54.3691 10.7449 54.3184 10.0535 54.2168 9.67847C54.1152 9.29956 53.9863 9.04761 53.8301 8.92261C53.6777 8.7937 53.502 8.72925 53.3027 8.72925Z" fill="white"/>
<defs>
<linearGradient id="paint0_linear_33_1398" x1="33" y1="1.98901" x2="33" y2="21.989" gradientUnits="userSpaceOnUse">
<stop stop-color="#00A5B1"/>
<stop offset="1" stop-color="#2757D8"/>
</linearGradient>
</defs>
</svg>
