<svg width="56" height="24" viewBox="0 0 56 24" fill="none" xmlns="http://www.w3.org/2000/svg">
<rect x="2" y="1.98901" width="53" height="20" rx="10" fill="url(#paint0_linear_35_1410)"/>
<rect x="2" y="1.98901" width="53" height="20" rx="10" stroke="#D76C54" stroke-width="3" stroke-linejoin="round"/>
<path d="M17.7656 15.989H15.8789L15.1289 14.0378H11.6953L10.9863 15.989H9.14648L12.4922 7.39917H14.3262L17.7656 15.989ZM14.5723 12.5906L13.3887 9.40308L12.2285 12.5906H14.5723ZM18.7383 15.989V7.46948H20.4727V14.5417H24.7852V15.989H18.7383ZM30.0234 12.8308V11.3835H33.7617V14.8054C33.3984 15.157 32.8711 15.4675 32.1797 15.7371C31.4922 16.0027 30.7949 16.1355 30.0879 16.1355C29.1895 16.1355 28.4062 15.948 27.7383 15.573C27.0703 15.1941 26.5684 14.655 26.2324 13.9558C25.8965 13.2527 25.7285 12.489 25.7285 11.6648C25.7285 10.7703 25.916 9.97534 26.291 9.28003C26.666 8.58472 27.2148 8.05151 27.9375 7.68042C28.4883 7.39526 29.1738 7.25269 29.9941 7.25269C31.0605 7.25269 31.8926 7.47729 32.4902 7.92651C33.0918 8.37183 33.4785 8.98901 33.6504 9.77808L31.9277 10.1003C31.8066 9.67847 31.5781 9.34644 31.2422 9.10425C30.9102 8.85815 30.4941 8.73511 29.9941 8.73511C29.2363 8.73511 28.6328 8.97534 28.1836 9.45581C27.7383 9.93628 27.5156 10.6492 27.5156 11.5945C27.5156 12.614 27.7422 13.3796 28.1953 13.8914C28.6484 14.3992 29.2422 14.6531 29.9766 14.6531C30.3398 14.6531 30.7031 14.5828 31.0664 14.4421C31.4336 14.2976 31.748 14.1238 32.0098 13.9207V12.8308H30.0234ZM39.2168 15.989H37.5703V9.78394C36.9688 10.3464 36.2598 10.7625 35.4434 11.032V9.53784C35.873 9.39722 36.3398 9.13159 36.8438 8.74097C37.3477 8.34644 37.6934 7.88745 37.8809 7.36401H39.2168V15.989ZM44.4668 7.36401C45.2988 7.36401 45.9492 7.66089 46.418 8.25464C46.9766 8.95776 47.2559 10.1238 47.2559 11.7527C47.2559 13.3777 46.9746 14.5457 46.4121 15.2566C45.9473 15.8425 45.2988 16.1355 44.4668 16.1355C43.6309 16.1355 42.957 15.8152 42.4453 15.1746C41.9336 14.53 41.6777 13.3835 41.6777 11.7351C41.6777 10.1179 41.959 8.95386 42.5215 8.24292C42.9863 7.65698 43.6348 7.36401 44.4668 7.36401ZM44.4668 8.72925C44.2676 8.72925 44.0898 8.7937 43.9336 8.92261C43.7773 9.04761 43.6562 9.27417 43.5703 9.60229C43.457 10.0281 43.4004 10.7449 43.4004 11.7527C43.4004 12.7605 43.4512 13.4539 43.5527 13.8328C43.6543 14.2078 43.7812 14.4578 43.9336 14.5828C44.0898 14.7078 44.2676 14.7703 44.4668 14.7703C44.666 14.7703 44.8438 14.7078 45 14.5828C45.1562 14.4539 45.2773 14.2253 45.3633 13.8972C45.4766 13.4753 45.5332 12.7605 45.5332 11.7527C45.5332 10.7449 45.4824 10.0535 45.3809 9.67847C45.2793 9.29956 45.1504 9.04761 44.9941 8.92261C44.8418 8.7937 44.666 8.72925 44.4668 8.72925Z" fill="white"/>
<defs>
<linearGradient id="paint0_linear_35_1410" x1="28.5" y1="1.98901" x2="28.5" y2="21.989" gradientUnits="userSpaceOnUse">
<stop stop-color="#044FAA"/>
<stop offset="1" stop-color="#D76C54"/>
</linearGradient>
</defs>
</svg>
