<svg width="51" height="24" viewBox="0 0 51 24" fill="none" xmlns="http://www.w3.org/2000/svg">
<rect x="2" y="1.98901" width="48" height="20" rx="10" fill="url(#paint0_linear_64_1941)"/>
<rect x="2" y="1.98901" width="48" height="20" rx="10" stroke="#22134F" stroke-width="3" stroke-linejoin="round"/>
<path d="M9.83984 11.7468C9.83984 10.8718 9.9707 10.1375 10.2324 9.5437C10.4277 9.1062 10.6934 8.71362 11.0293 8.36597C11.3691 8.01831 11.7402 7.7605 12.1426 7.59253C12.6777 7.36597 13.2949 7.25269 13.9941 7.25269C15.2598 7.25269 16.2715 7.64526 17.0293 8.43042C17.791 9.21558 18.1719 10.3074 18.1719 11.7058C18.1719 13.0925 17.7949 14.1785 17.041 14.9636C16.2871 15.7449 15.2793 16.1355 14.0176 16.1355C12.7402 16.1355 11.7246 15.7468 10.9707 14.9695C10.2168 14.1882 9.83984 13.114 9.83984 11.7468ZM11.627 11.6882C11.627 12.6609 11.8516 13.3992 12.3008 13.9031C12.75 14.4031 13.3203 14.6531 14.0117 14.6531C14.7031 14.6531 15.2695 14.405 15.7109 13.9089C16.1562 13.4089 16.3789 12.6609 16.3789 11.6648C16.3789 10.6804 16.1621 9.94604 15.7285 9.46167C15.2988 8.97729 14.7266 8.73511 14.0117 8.73511C13.2969 8.73511 12.7207 8.9812 12.2832 9.47339C11.8457 9.96167 11.627 10.7 11.627 11.6882ZM19.5371 15.989V7.39917H23.1875C24.1055 7.39917 24.7715 7.47729 25.1855 7.63354C25.6035 7.78589 25.9375 8.05933 26.1875 8.45386C26.4375 8.84839 26.5625 9.29956 26.5625 9.80737C26.5625 10.4519 26.373 10.9851 25.9941 11.407C25.6152 11.825 25.0488 12.0886 24.2949 12.198C24.6699 12.4167 24.9785 12.657 25.2207 12.9187C25.4668 13.1804 25.7969 13.6453 26.2109 14.3132L27.2598 15.989H25.1855L23.9316 14.1199C23.4863 13.4519 23.1816 13.032 23.0176 12.8601C22.8535 12.6843 22.6797 12.5652 22.4961 12.5027C22.3125 12.4363 22.0215 12.4031 21.623 12.4031H21.2715V15.989H19.5371ZM21.2715 11.032H22.5547C23.3867 11.032 23.9062 10.9968 24.1133 10.9265C24.3203 10.8562 24.4824 10.7351 24.5996 10.5632C24.7168 10.3914 24.7754 10.1765 24.7754 9.9187C24.7754 9.62964 24.6973 9.39722 24.541 9.22144C24.3887 9.04175 24.1719 8.92847 23.8906 8.88159C23.75 8.86206 23.3281 8.85229 22.625 8.85229H21.2715V11.032ZM33.6992 12.8308L35.3809 13.364C35.123 14.3015 34.6934 14.9988 34.0918 15.4558C33.4941 15.9089 32.7344 16.1355 31.8125 16.1355C30.6719 16.1355 29.7344 15.7468 29 14.9695C28.2656 14.1882 27.8984 13.1218 27.8984 11.7703C27.8984 10.3406 28.2676 9.2312 29.0059 8.44214C29.7441 7.64917 30.7148 7.25269 31.918 7.25269C32.9688 7.25269 33.8223 7.56323 34.4785 8.18433C34.8691 8.55151 35.1621 9.07886 35.3574 9.76636L33.6406 10.1765C33.5391 9.7312 33.3262 9.37964 33.002 9.12183C32.6816 8.86401 32.291 8.73511 31.8301 8.73511C31.1934 8.73511 30.6758 8.96362 30.2773 9.42065C29.8828 9.87769 29.6855 10.6179 29.6855 11.6414C29.6855 12.7273 29.8809 13.5007 30.2715 13.9617C30.6621 14.4226 31.1699 14.6531 31.7949 14.6531C32.2559 14.6531 32.6523 14.5066 32.9844 14.2136C33.3164 13.9207 33.5547 13.4597 33.6992 12.8308ZM42.0898 9.50269L40.4961 9.67847C40.457 9.35034 40.3555 9.10815 40.1914 8.9519C40.0273 8.79565 39.8145 8.71753 39.5527 8.71753C39.2051 8.71753 38.9102 8.87378 38.668 9.18628C38.4297 9.49878 38.2793 10.1492 38.2168 11.1375C38.627 10.6531 39.1367 10.4109 39.7461 10.4109C40.4336 10.4109 41.0215 10.6726 41.5098 11.196C42.002 11.7195 42.248 12.3953 42.248 13.2234C42.248 14.1023 41.9902 14.8074 41.4746 15.3386C40.959 15.8699 40.2969 16.1355 39.4883 16.1355C38.6211 16.1355 37.9082 15.7996 37.3496 15.1277C36.791 14.4519 36.5117 13.3464 36.5117 11.8113C36.5117 10.2371 36.8027 9.10229 37.3848 8.40698C37.9668 7.71167 38.7227 7.36401 39.6523 7.36401C40.3047 7.36401 40.8438 7.54761 41.2695 7.91479C41.6992 8.27808 41.9727 8.80737 42.0898 9.50269ZM38.3574 13.0945C38.3574 13.6296 38.4805 14.0437 38.7266 14.3367C38.9727 14.6257 39.2539 14.7703 39.5703 14.7703C39.875 14.7703 40.1289 14.6511 40.332 14.4128C40.5352 14.1746 40.6367 13.7839 40.6367 13.241C40.6367 12.6824 40.5273 12.2742 40.3086 12.0164C40.0898 11.7546 39.8164 11.6238 39.4883 11.6238C39.1719 11.6238 38.9043 11.7488 38.6855 11.9988C38.4668 12.2449 38.3574 12.6101 38.3574 13.0945Z" fill="white"/>
<defs>
<linearGradient id="paint0_linear_64_1941" x1="26" y1="1.98901" x2="26" y2="21.989" gradientUnits="userSpaceOnUse">
<stop stop-color="#22134F"/>
<stop offset="1" stop-color="#AF4EC7"/>
</linearGradient>
</defs>
</svg>
