<svg width="49" height="24" viewBox="0 0 49 24" fill="none" xmlns="http://www.w3.org/2000/svg">
<rect x="2" y="1.98901" width="46" height="20" rx="10" fill="url(#paint0_linear_84_2015)"/>
<rect x="2" y="1.98901" width="46" height="20" rx="10" stroke="#BF00E1" stroke-width="3" stroke-linejoin="round"/>
<path d="M12.127 15.989V8.85229H9.57812V7.39917H16.4043V8.85229H13.8613V15.989H12.127ZM23.0254 12.8308L24.707 13.364C24.4492 14.3015 24.0195 14.9988 23.418 15.4558C22.8203 15.9089 22.0605 16.1355 21.1387 16.1355C19.998 16.1355 19.0605 15.7468 18.3262 14.9695C17.5918 14.1882 17.2246 13.1218 17.2246 11.7703C17.2246 10.3406 17.5938 9.2312 18.332 8.44214C19.0703 7.64917 20.041 7.25269 21.2441 7.25269C22.2949 7.25269 23.1484 7.56323 23.8047 8.18433C24.1953 8.55151 24.4883 9.07886 24.6836 9.76636L22.9668 10.1765C22.8652 9.7312 22.6523 9.37964 22.3281 9.12183C22.0078 8.86401 21.6172 8.73511 21.1562 8.73511C20.5195 8.73511 20.002 8.96362 19.6035 9.42065C19.209 9.87769 19.0117 10.6179 19.0117 11.6414C19.0117 12.7273 19.207 13.5007 19.5977 13.9617C19.9883 14.4226 20.4961 14.6531 21.1211 14.6531C21.582 14.6531 21.9785 14.5066 22.3105 14.2136C22.6426 13.9207 22.8809 13.4597 23.0254 12.8308ZM26.2188 15.989V7.39917H27.9062L31.4219 13.1355V7.39917H33.0332V15.989H31.293L27.8301 10.3875V15.989H26.2188ZM40.0703 14.4597V15.989H34.2988C34.3613 15.4109 34.5488 14.864 34.8613 14.3484C35.1738 13.8289 35.791 13.1414 36.7129 12.2859C37.4551 11.5945 37.9102 11.1257 38.0781 10.8796C38.3047 10.5398 38.418 10.2039 38.418 9.87183C38.418 9.50464 38.3184 9.22339 38.1191 9.02808C37.9238 8.82886 37.6523 8.72925 37.3047 8.72925C36.9609 8.72925 36.6875 8.83276 36.4844 9.03979C36.2812 9.24683 36.1641 9.59058 36.1328 10.071L34.4922 9.90698C34.5898 9.00073 34.8965 8.35034 35.4121 7.95581C35.9277 7.56128 36.5723 7.36401 37.3457 7.36401C38.1934 7.36401 38.8594 7.59253 39.3438 8.04956C39.8281 8.50659 40.0703 9.07495 40.0703 9.75464C40.0703 10.1414 40 10.5105 39.8594 10.8621C39.7227 11.2097 39.5039 11.575 39.2031 11.9578C39.0039 12.2117 38.6445 12.5769 38.125 13.0535C37.6055 13.53 37.2754 13.8464 37.1348 14.0027C36.998 14.1589 36.8867 14.3113 36.8008 14.4597H40.0703Z" fill="white"/>
<defs>
<linearGradient id="paint0_linear_84_2015" x1="25" y1="1.98901" x2="25" y2="21.989" gradientUnits="userSpaceOnUse">
<stop stop-color="#44BDBD"/>
<stop offset="1" stop-color="#BF00E1"/>
</linearGradient>
</defs>
</svg>
