<svg width="60" height="24" viewBox="0 0 60 24" fill="none" xmlns="http://www.w3.org/2000/svg">
<rect x="2" y="1.98901" width="57" height="20" rx="10" fill="url(#paint0_linear_64_1835)"/>
<rect x="2" y="1.98901" width="57" height="20" rx="10" stroke="#40301F" stroke-width="3" stroke-linejoin="round"/>
<path d="M10.0449 15.989V7.39917H11.7324L15.248 13.1355V7.39917H16.8594V15.989H15.1191L11.6562 10.3875V15.989H10.0449ZM26.4453 15.989H24.5586L23.8086 14.0378H20.375L19.666 15.989H17.8262L21.1719 7.39917H23.0059L26.4453 15.989ZM23.252 12.5906L22.0684 9.40308L20.9082 12.5906H23.252ZM31.3672 12.8308V11.3835H35.1055V14.8054C34.7422 15.157 34.2148 15.4675 33.5234 15.7371C32.8359 16.0027 32.1387 16.1355 31.4316 16.1355C30.5332 16.1355 29.75 15.948 29.082 15.573C28.4141 15.1941 27.9121 14.655 27.5762 13.9558C27.2402 13.2527 27.0723 12.489 27.0723 11.6648C27.0723 10.7703 27.2598 9.97534 27.6348 9.28003C28.0098 8.58472 28.5586 8.05151 29.2812 7.68042C29.832 7.39526 30.5176 7.25269 31.3379 7.25269C32.4043 7.25269 33.2363 7.47729 33.834 7.92651C34.4355 8.37183 34.8223 8.98901 34.9941 9.77808L33.2715 10.1003C33.1504 9.67847 32.9219 9.34644 32.5859 9.10425C32.2539 8.85815 31.8379 8.73511 31.3379 8.73511C30.5801 8.73511 29.9766 8.97534 29.5273 9.45581C29.082 9.93628 28.8594 10.6492 28.8594 11.5945C28.8594 12.614 29.0859 13.3796 29.5391 13.8914C29.9922 14.3992 30.5859 14.6531 31.3203 14.6531C31.6836 14.6531 32.0469 14.5828 32.4102 14.4421C32.7773 14.2976 33.0918 14.1238 33.3535 13.9207V12.8308H31.3672ZM36.7578 15.989V7.46948H38.4922V14.5417H42.8047V15.989H36.7578ZM44.0352 7.39917H45.7695V12.0515C45.7695 12.7898 45.791 13.2683 45.834 13.4871C45.9082 13.8386 46.084 14.1218 46.3613 14.3367C46.6426 14.5476 47.0254 14.6531 47.5098 14.6531C48.002 14.6531 48.373 14.5535 48.623 14.3542C48.873 14.1511 49.0234 13.9031 49.0742 13.6101C49.125 13.3171 49.1504 12.8308 49.1504 12.1511V7.39917H50.8848V11.9109C50.8848 12.9421 50.8379 13.6707 50.7441 14.0964C50.6504 14.5222 50.4766 14.8816 50.2227 15.1746C49.9727 15.4675 49.6367 15.7019 49.2148 15.8777C48.793 16.0496 48.2422 16.1355 47.5625 16.1355C46.7422 16.1355 46.1191 16.0417 45.6934 15.8542C45.2715 15.6628 44.9375 15.4167 44.6914 15.116C44.4453 14.8113 44.2832 14.4929 44.2051 14.1609C44.0918 13.6687 44.0352 12.9421 44.0352 11.9812V7.39917Z" fill="white"/>
<defs>
<linearGradient id="paint0_linear_64_1835" x1="30.5" y1="1.98901" x2="30.5" y2="21.989" gradientUnits="userSpaceOnUse">
<stop stop-color="#40301F"/>
<stop offset="1" stop-color="#659EED"/>
</linearGradient>
</defs>
</svg>
