<svg width="37" height="24" viewBox="0 0 37 24" fill="none" xmlns="http://www.w3.org/2000/svg">
<rect x="2" y="1.98901" width="34" height="20" rx="10" fill="url(#paint0_linear_40_2531)"/>
<rect x="2" y="1.98901" width="34" height="20" rx="10" stroke="#DB5E9A" stroke-width="3" stroke-linejoin="round"/>
<path d="M15.6953 12.8308L17.377 13.364C17.1191 14.3015 16.6895 14.9988 16.0879 15.4558C15.4902 15.9089 14.7305 16.1355 13.8086 16.1355C12.668 16.1355 11.7305 15.7468 10.9961 14.9695C10.2617 14.1882 9.89453 13.1218 9.89453 11.7703C9.89453 10.3406 10.2637 9.2312 11.002 8.44214C11.7402 7.64917 12.7109 7.25269 13.9141 7.25269C14.9648 7.25269 15.8184 7.56323 16.4746 8.18433C16.8652 8.55151 17.1582 9.07886 17.3535 9.76636L15.6367 10.1765C15.5352 9.7312 15.3223 9.37964 14.998 9.12183C14.6777 8.86401 14.2871 8.73511 13.8262 8.73511C13.1895 8.73511 12.6719 8.96362 12.2734 9.42065C11.8789 9.87769 11.6816 10.6179 11.6816 11.6414C11.6816 12.7273 11.877 13.5007 12.2676 13.9617C12.6582 14.4226 13.166 14.6531 13.791 14.6531C14.252 14.6531 14.6484 14.5066 14.9805 14.2136C15.3125 13.9207 15.5508 13.4597 15.6953 12.8308ZM18.8184 15.989V7.39917H20.5527V15.989H18.8184ZM24.1445 15.989V8.85229H21.5957V7.39917H28.4219V8.85229H25.8789V15.989H24.1445Z" fill="white"/>
<defs>
<linearGradient id="paint0_linear_40_2531" x1="19" y1="1.98901" x2="19" y2="21.989" gradientUnits="userSpaceOnUse">
<stop stop-color="#DB5E9A"/>
<stop offset="1" stop-color="#163D43"/>
</linearGradient>
</defs>
</svg>
