<svg width="42" height="24" viewBox="0 0 42 24" fill="none" xmlns="http://www.w3.org/2000/svg">
<rect x="2" y="1.98901" width="39" height="20" rx="10" fill="url(#paint0_linear_64_1940)"/>
<rect x="2" y="1.98901" width="39" height="20" rx="10" stroke="#005644" stroke-width="3" stroke-linejoin="round"/>
<path d="M9.68164 11.7468C9.68164 10.8718 9.8125 10.1375 10.0742 9.5437C10.2695 9.1062 10.5352 8.71362 10.8711 8.36597C11.2109 8.01831 11.582 7.7605 11.9844 7.59253C12.5195 7.36597 13.1367 7.25269 13.8359 7.25269C15.1016 7.25269 16.1133 7.64526 16.8711 8.43042C17.6328 9.21558 18.0137 10.3074 18.0137 11.7058C18.0137 13.0925 17.6367 14.1785 16.8828 14.9636C16.1289 15.7449 15.1211 16.1355 13.8594 16.1355C12.582 16.1355 11.5664 15.7468 10.8125 14.9695C10.0586 14.1882 9.68164 13.114 9.68164 11.7468ZM11.4688 11.6882C11.4688 12.6609 11.6934 13.3992 12.1426 13.9031C12.5918 14.4031 13.1621 14.6531 13.8535 14.6531C14.5449 14.6531 15.1113 14.405 15.5527 13.9089C15.998 13.4089 16.2207 12.6609 16.2207 11.6648C16.2207 10.6804 16.0039 9.94604 15.5703 9.46167C15.1406 8.97729 14.5684 8.73511 13.8535 8.73511C13.1387 8.73511 12.5625 8.9812 12.125 9.47339C11.6875 9.96167 11.4688 10.7 11.4688 11.6882ZM18.9336 13.1941L20.6211 13.03C20.7227 13.5964 20.9277 14.0125 21.2363 14.2781C21.5488 14.5437 21.9688 14.6765 22.4961 14.6765C23.0547 14.6765 23.4746 14.5593 23.7559 14.325C24.041 14.0867 24.1836 13.8093 24.1836 13.4929C24.1836 13.2898 24.123 13.1179 24.002 12.9773C23.8848 12.8328 23.6777 12.7078 23.3809 12.6023C23.1777 12.532 22.7148 12.407 21.9922 12.2273C21.0625 11.9968 20.4102 11.7136 20.0352 11.3777C19.5078 10.905 19.2441 10.3289 19.2441 9.64917C19.2441 9.21167 19.3672 8.80347 19.6133 8.42456C19.8633 8.04175 20.2207 7.75073 20.6855 7.55151C21.1543 7.35229 21.7188 7.25269 22.3789 7.25269C23.457 7.25269 24.2676 7.48901 24.8105 7.96167C25.3574 8.43433 25.6445 9.06519 25.6719 9.85425L23.9375 9.93042C23.8633 9.48901 23.7031 9.17261 23.457 8.9812C23.2148 8.78589 22.8496 8.68823 22.3613 8.68823C21.8574 8.68823 21.4629 8.79175 21.1777 8.99878C20.9941 9.13159 20.9023 9.30933 20.9023 9.53198C20.9023 9.73511 20.9883 9.90894 21.1602 10.0535C21.3789 10.2371 21.9102 10.4285 22.7539 10.6277C23.5977 10.8269 24.2207 11.0339 24.623 11.2488C25.0293 11.4597 25.3457 11.7507 25.5723 12.1218C25.8027 12.489 25.918 12.9441 25.918 13.4871C25.918 13.9792 25.7812 14.4402 25.5078 14.8699C25.2344 15.2996 24.8477 15.6199 24.3477 15.8308C23.8477 16.0378 23.2246 16.1414 22.4785 16.1414C21.3926 16.1414 20.5586 15.8914 19.9766 15.3914C19.3945 14.8875 19.0469 14.155 18.9336 13.1941ZM29.3105 15.989V8.85229H26.7617V7.39917H33.5879V8.85229H31.0449V15.989H29.3105Z" fill="white"/>
<defs>
<linearGradient id="paint0_linear_64_1940" x1="21.5" y1="1.98901" x2="21.5" y2="21.989" gradientUnits="userSpaceOnUse">
<stop stop-color="#005644"/>
<stop offset="1" stop-color="#00FFA2"/>
</linearGradient>
</defs>
</svg>
