<svg width="77" height="24" viewBox="0 0 77 24" fill="none" xmlns="http://www.w3.org/2000/svg">
<rect x="1" y="1.98901" width="75" height="20" rx="10" fill="url(#paint0_linear_40_2513)"/>
<rect x="1" y="1.98901" width="75" height="20" rx="10" stroke="#AD84BC" stroke-width="3" stroke-linejoin="round"/>
<path d="M14.5117 12.8308L16.1934 13.364C15.9355 14.3015 15.5059 14.9988 14.9043 15.4558C14.3066 15.9089 13.5469 16.1355 12.625 16.1355C11.4844 16.1355 10.5469 15.7468 9.8125 14.9695C9.07812 14.1882 8.71094 13.1218 8.71094 11.7703C8.71094 10.3406 9.08008 9.2312 9.81836 8.44214C10.5566 7.64917 11.5273 7.25269 12.7305 7.25269C13.7812 7.25269 14.6348 7.56323 15.291 8.18433C15.6816 8.55151 15.9746 9.07886 16.1699 9.76636L14.4531 10.1765C14.3516 9.7312 14.1387 9.37964 13.8145 9.12183C13.4941 8.86401 13.1035 8.73511 12.6426 8.73511C12.0059 8.73511 11.4883 8.96362 11.0898 9.42065C10.6953 9.87769 10.498 10.6179 10.498 11.6414C10.498 12.7273 10.6934 13.5007 11.084 13.9617C11.4746 14.4226 11.9824 14.6531 12.6074 14.6531C13.0684 14.6531 13.4648 14.5066 13.7969 14.2136C14.1289 13.9207 14.3672 13.4597 14.5117 12.8308ZM17.248 13.1941L18.9355 13.03C19.0371 13.5964 19.2422 14.0125 19.5508 14.2781C19.8633 14.5437 20.2832 14.6765 20.8105 14.6765C21.3691 14.6765 21.7891 14.5593 22.0703 14.325C22.3555 14.0867 22.498 13.8093 22.498 13.4929C22.498 13.2898 22.4375 13.1179 22.3164 12.9773C22.1992 12.8328 21.9922 12.7078 21.6953 12.6023C21.4922 12.532 21.0293 12.407 20.3066 12.2273C19.377 11.9968 18.7246 11.7136 18.3496 11.3777C17.8223 10.905 17.5586 10.3289 17.5586 9.64917C17.5586 9.21167 17.6816 8.80347 17.9277 8.42456C18.1777 8.04175 18.5352 7.75073 19 7.55151C19.4688 7.35229 20.0332 7.25269 20.6934 7.25269C21.7715 7.25269 22.582 7.48901 23.125 7.96167C23.6719 8.43433 23.959 9.06519 23.9863 9.85425L22.252 9.93042C22.1777 9.48901 22.0176 9.17261 21.7715 8.9812C21.5293 8.78589 21.1641 8.68823 20.6758 8.68823C20.1719 8.68823 19.7773 8.79175 19.4922 8.99878C19.3086 9.13159 19.2168 9.30933 19.2168 9.53198C19.2168 9.73511 19.3027 9.90894 19.4746 10.0535C19.6934 10.2371 20.2246 10.4285 21.0684 10.6277C21.9121 10.8269 22.5352 11.0339 22.9375 11.2488C23.3438 11.4597 23.6602 11.7507 23.8867 12.1218C24.1172 12.489 24.2324 12.9441 24.2324 13.4871C24.2324 13.9792 24.0957 14.4402 23.8223 14.8699C23.5488 15.2996 23.1621 15.6199 22.6621 15.8308C22.1621 16.0378 21.5391 16.1414 20.793 16.1414C19.707 16.1414 18.873 15.8914 18.291 15.3914C17.709 14.8875 17.3613 14.155 17.248 13.1941ZM25.709 15.989V7.39917H27.3965L30.9121 13.1355V7.39917H32.5234V15.989H30.7832L27.3203 10.3875V15.989H25.709ZM34.3867 15.989V7.39917H36.1211V11.2136L39.625 7.39917H41.957L38.7227 10.7449L42.1328 15.989H39.8887L37.5273 11.9578L36.1211 13.3933V15.989H34.3867ZM46.8848 15.989H45.2383V9.78394C44.6367 10.3464 43.9277 10.7625 43.1113 11.032V9.53784C43.541 9.39722 44.0078 9.13159 44.5117 8.74097C45.0156 8.34644 45.3613 7.88745 45.5488 7.36401H46.8848V15.989ZM49.709 7.39917H52.8789C53.5938 7.39917 54.1387 7.45386 54.5137 7.56323C55.0176 7.71167 55.4492 7.97534 55.8086 8.35425C56.168 8.73315 56.4414 9.198 56.6289 9.74878C56.8164 10.2957 56.9102 10.9714 56.9102 11.7761C56.9102 12.4832 56.8223 13.0925 56.6465 13.6042C56.4316 14.2292 56.125 14.7351 55.7266 15.1218C55.4258 15.4148 55.0195 15.6433 54.5078 15.8074C54.125 15.9285 53.6133 15.989 52.9727 15.989H49.709V7.39917ZM51.4434 8.85229V14.5417H52.7383C53.2227 14.5417 53.5723 14.5144 53.7871 14.4597C54.0684 14.3894 54.3008 14.2703 54.4844 14.1023C54.6719 13.9343 54.8242 13.6589 54.9414 13.2761C55.0586 12.8894 55.1172 12.364 55.1172 11.7C55.1172 11.0359 55.0586 10.5261 54.9414 10.1707C54.8242 9.81519 54.6602 9.53784 54.4492 9.33862C54.2383 9.1394 53.9707 9.00464 53.6465 8.93433C53.4043 8.87964 52.9297 8.85229 52.2227 8.85229H51.4434ZM58.334 14.3425H59.9805V15.5203C59.9805 15.9968 59.9395 16.3718 59.8574 16.6453C59.7754 16.9226 59.6191 17.1707 59.3887 17.3894C59.1621 17.6082 58.873 17.78 58.5215 17.905L58.1992 17.2253C58.5312 17.116 58.7676 16.9656 58.9082 16.7742C59.0488 16.5828 59.123 16.321 59.1309 15.989H58.334V14.3425ZM61.7266 15.989V7.39917H68.0957V8.85229H63.4609V10.7566H67.7734V12.2039H63.4609V14.5417H68.2598V15.989H61.7266Z" fill="white"/>
<defs>
<linearGradient id="paint0_linear_40_2513" x1="38.5" y1="1.98901" x2="38.5" y2="21.989" gradientUnits="userSpaceOnUse">
<stop stop-color="#AD84BC"/>
<stop offset="1" stop-color="#244765"/>
</linearGradient>
</defs>
</svg>
