<svg width="48" height="24" viewBox="0 0 48 24" fill="none" xmlns="http://www.w3.org/2000/svg">
<rect x="2" y="1.98901" width="45" height="20" rx="10" fill="url(#paint0_linear_50_1825)"/>
<rect x="2" y="1.98901" width="45" height="20" rx="10" stroke="#846DDE" stroke-width="3" stroke-linejoin="round"/>
<path d="M13.1211 7.39917H14.8496V12.8367C14.8496 13.5476 14.7871 14.0945 14.6621 14.4773C14.4941 14.9773 14.1895 15.3796 13.748 15.6843C13.3066 15.9851 12.7246 16.1355 12.002 16.1355C11.1543 16.1355 10.502 15.8992 10.0449 15.4265C9.58789 14.95 9.35742 14.2527 9.35352 13.3347L10.9883 13.1472C11.0078 13.6394 11.0801 13.9871 11.2051 14.1902C11.3926 14.4988 11.6777 14.6531 12.0605 14.6531C12.4473 14.6531 12.7207 14.5437 12.8809 14.325C13.041 14.1023 13.1211 13.6433 13.1211 12.948V7.39917ZM24.4473 15.989H22.5605L21.8105 14.0378H18.377L17.668 15.989H15.8281L19.1738 7.39917H21.0078L24.4473 15.989ZM21.2539 12.5906L20.0703 9.40308L18.9102 12.5906H21.2539ZM25.3965 15.989V7.39917H27.1309V11.2136L30.6348 7.39917H32.9668L29.7324 10.7449L33.1426 15.989H30.8984L28.5371 11.9578L27.1309 13.3933V15.989H25.3965ZM37.8945 15.989H36.248V9.78394C35.6465 10.3464 34.9375 10.7625 34.1211 11.032V9.53784C34.5508 9.39722 35.0176 9.13159 35.5215 8.74097C36.0254 8.34644 36.3711 7.88745 36.5586 7.36401H37.8945V15.989Z" fill="white"/>
<defs>
<linearGradient id="paint0_linear_50_1825" x1="24.5" y1="1.98901" x2="24.5" y2="21.989" gradientUnits="userSpaceOnUse">
<stop stop-color="#846DDE"/>
<stop offset="1" stop-color="#FFA82C"/>
</linearGradient>
</defs>
</svg>
