<svg width="81" height="24" viewBox="0 0 81 24" fill="none" xmlns="http://www.w3.org/2000/svg">
<rect x="1" y="1.98901" width="79" height="20" rx="10" fill="url(#paint0_linear_40_2509)"/>
<rect x="1" y="1.98901" width="79" height="20" rx="10" stroke="#00806A" stroke-width="3" stroke-linejoin="round"/>
<path d="M14.5078 12.8308L16.1895 13.364C15.9316 14.3015 15.502 14.9988 14.9004 15.4558C14.3027 15.9089 13.543 16.1355 12.6211 16.1355C11.4805 16.1355 10.543 15.7468 9.80859 14.9695C9.07422 14.1882 8.70703 13.1218 8.70703 11.7703C8.70703 10.3406 9.07617 9.2312 9.81445 8.44214C10.5527 7.64917 11.5234 7.25269 12.7266 7.25269C13.7773 7.25269 14.6309 7.56323 15.2871 8.18433C15.6777 8.55151 15.9707 9.07886 16.166 9.76636L14.4492 10.1765C14.3477 9.7312 14.1348 9.37964 13.8105 9.12183C13.4902 8.86401 13.0996 8.73511 12.6387 8.73511C12.002 8.73511 11.4844 8.96362 11.0859 9.42065C10.6914 9.87769 10.4941 10.6179 10.4941 11.6414C10.4941 12.7273 10.6895 13.5007 11.0801 13.9617C11.4707 14.4226 11.9785 14.6531 12.6035 14.6531C13.0645 14.6531 13.4609 14.5066 13.793 14.2136C14.125 13.9207 14.3633 13.4597 14.5078 12.8308ZM17.6777 7.39917H20.8477C21.5625 7.39917 22.1074 7.45386 22.4824 7.56323C22.9863 7.71167 23.418 7.97534 23.7773 8.35425C24.1367 8.73315 24.4102 9.198 24.5977 9.74878C24.7852 10.2957 24.8789 10.9714 24.8789 11.7761C24.8789 12.4832 24.791 13.0925 24.6152 13.6042C24.4004 14.2292 24.0938 14.7351 23.6953 15.1218C23.3945 15.4148 22.9883 15.6433 22.4766 15.8074C22.0938 15.9285 21.582 15.989 20.9414 15.989H17.6777V7.39917ZM19.4121 8.85229V14.5417H20.707C21.1914 14.5417 21.541 14.5144 21.7559 14.4597C22.0371 14.3894 22.2695 14.2703 22.4531 14.1023C22.6406 13.9343 22.793 13.6589 22.9102 13.2761C23.0273 12.8894 23.0859 12.364 23.0859 11.7C23.0859 11.0359 23.0273 10.5261 22.9102 10.1707C22.793 9.81519 22.6289 9.53784 22.418 9.33862C22.207 9.1394 21.9395 9.00464 21.6152 8.93433C21.373 8.87964 20.8984 8.85229 20.1914 8.85229H19.4121ZM26.3789 15.989V7.39917H28.1133V11.2136L31.6172 7.39917H33.9492L30.7148 10.7449L34.125 15.989H31.8809L29.5195 11.9578L28.1133 13.3933V15.989H26.3789ZM34.6875 13.78L36.3281 13.6101C36.375 13.9812 36.5137 14.2761 36.7441 14.4949C36.9746 14.7097 37.2402 14.8171 37.541 14.8171C37.8848 14.8171 38.1758 14.6785 38.4141 14.4011C38.6523 14.1199 38.7715 13.698 38.7715 13.1355C38.7715 12.6082 38.6523 12.2136 38.4141 11.9519C38.1797 11.6863 37.873 11.5535 37.4941 11.5535C37.0215 11.5535 36.5977 11.7625 36.2227 12.1804L34.8867 11.9871L35.7305 7.51636H40.084V9.05737H36.9785L36.7207 10.5164C37.0879 10.3328 37.4629 10.241 37.8457 10.241C38.5762 10.241 39.1953 10.5066 39.7031 11.0378C40.2109 11.5691 40.4648 12.2585 40.4648 13.1062C40.4648 13.8132 40.2598 14.4441 39.8496 14.9988C39.291 15.7566 38.5156 16.1355 37.5234 16.1355C36.7305 16.1355 36.084 15.9226 35.584 15.4968C35.084 15.071 34.7852 14.4988 34.6875 13.78ZM41.7129 15.989V7.39917H45.3633C46.2812 7.39917 46.9473 7.47729 47.3613 7.63354C47.7793 7.78589 48.1133 8.05933 48.3633 8.45386C48.6133 8.84839 48.7383 9.29956 48.7383 9.80737C48.7383 10.4519 48.5488 10.9851 48.1699 11.407C47.791 11.825 47.2246 12.0886 46.4707 12.198C46.8457 12.4167 47.1543 12.657 47.3965 12.9187C47.6426 13.1804 47.9727 13.6453 48.3867 14.3132L49.4355 15.989H47.3613L46.1074 14.1199C45.6621 13.4519 45.3574 13.032 45.1934 12.8601C45.0293 12.6843 44.8555 12.5652 44.6719 12.5027C44.4883 12.4363 44.1973 12.4031 43.7988 12.4031H43.4473V15.989H41.7129ZM43.4473 11.032H44.7305C45.5625 11.032 46.082 10.9968 46.2891 10.9265C46.4961 10.8562 46.6582 10.7351 46.7754 10.5632C46.8926 10.3914 46.9512 10.1765 46.9512 9.9187C46.9512 9.62964 46.873 9.39722 46.7168 9.22144C46.5645 9.04175 46.3477 8.92847 46.0664 8.88159C45.9258 8.86206 45.5039 8.85229 44.8008 8.85229H43.4473V11.032ZM58.125 15.989H56.2383L55.4883 14.0378H52.0547L51.3457 15.989H49.5059L52.8516 7.39917H54.6855L58.125 15.989ZM54.9316 12.5906L53.748 9.40308L52.5879 12.5906H54.9316ZM59.0508 15.989V7.39917H61.834C62.8887 7.39917 63.5762 7.44214 63.8965 7.52808C64.3887 7.65698 64.8008 7.93823 65.1328 8.37183C65.4648 8.80151 65.6309 9.35815 65.6309 10.0417C65.6309 10.5691 65.5352 11.0125 65.3438 11.3718C65.1523 11.7312 64.9082 12.0144 64.6113 12.2214C64.3184 12.4246 64.0195 12.5593 63.7148 12.6257C63.3008 12.7078 62.7012 12.7488 61.916 12.7488H60.7852V15.989H59.0508ZM60.7852 8.85229V11.2898H61.7344C62.418 11.2898 62.875 11.2449 63.1055 11.155C63.3359 11.0652 63.5156 10.9246 63.6445 10.7332C63.7773 10.5417 63.8438 10.3191 63.8438 10.0652C63.8438 9.75269 63.752 9.49487 63.5684 9.29175C63.3848 9.08862 63.1523 8.96167 62.8711 8.91089C62.6641 8.87183 62.248 8.85229 61.623 8.85229H60.7852ZM70.9043 15.989H69.2578V9.78394C68.6562 10.3464 67.9473 10.7625 67.1309 11.032V9.53784C67.5605 9.39722 68.0273 9.13159 68.5312 8.74097C69.0352 8.34644 69.3809 7.88745 69.5684 7.36401H70.9043V15.989Z" fill="white"/>
<defs>
<linearGradient id="paint0_linear_40_2509" x1="40.5" y1="1.98901" x2="40.5" y2="21.989" gradientUnits="userSpaceOnUse">
<stop stop-color="#00806A"/>
<stop offset="1" stop-color="#FF987B"/>
</linearGradient>
</defs>
</svg>
