<svg width="65" height="24" viewBox="0 0 65 24" fill="none" xmlns="http://www.w3.org/2000/svg">
<rect x="1" y="1.98901" width="63" height="20" rx="10" fill="url(#paint0_linear_35_1425)"/>
<rect x="1" y="1.98901" width="63" height="20" rx="10" stroke="#B0401A" stroke-width="3" stroke-linejoin="round"/>
<path d="M16.7676 15.989H14.8809L14.1309 14.0378H10.6973L9.98828 15.989H8.14844L11.4941 7.39917H13.3281L16.7676 15.989ZM13.5742 12.5906L12.3906 9.40308L11.2305 12.5906H13.5742ZM17.7402 15.989V7.46948H19.4746V14.5417H23.7871V15.989H17.7402ZM25.0527 15.989V7.39917H26.7871V11.2136L30.291 7.39917H32.623L29.3887 10.7449L32.7988 15.989H30.5547L28.1934 11.9578L26.7871 13.3933V15.989H25.0527ZM33.707 7.39917H37.1406C37.8203 7.39917 38.3262 7.42847 38.6582 7.48706C38.9941 7.54175 39.293 7.65894 39.5547 7.83862C39.8203 8.01831 40.041 8.25854 40.2168 8.55933C40.3926 8.8562 40.4805 9.19019 40.4805 9.56128C40.4805 9.96362 40.3711 10.3328 40.1523 10.6687C39.9375 11.0046 39.6445 11.2566 39.2734 11.4246C39.7969 11.5769 40.1992 11.8367 40.4805 12.2039C40.7617 12.571 40.9023 13.0027 40.9023 13.4988C40.9023 13.8894 40.8105 14.2703 40.627 14.6414C40.4473 15.0085 40.1992 15.3035 39.8828 15.5261C39.5703 15.7449 39.1836 15.8796 38.7227 15.9304C38.4336 15.9617 37.7363 15.9812 36.6309 15.989H33.707V7.39917ZM35.4414 8.82886V10.8152H36.5781C37.2539 10.8152 37.6738 10.8054 37.8379 10.7859C38.1348 10.7507 38.3672 10.6492 38.5352 10.4812C38.707 10.3093 38.793 10.0847 38.793 9.80737C38.793 9.54175 38.7188 9.3269 38.5703 9.16284C38.4258 8.99487 38.209 8.89331 37.9199 8.85815C37.748 8.83862 37.2539 8.82886 36.4375 8.82886H35.4414ZM35.4414 12.2449V14.5417H37.0469C37.6719 14.5417 38.0684 14.5242 38.2363 14.489C38.4941 14.4421 38.7031 14.3289 38.8633 14.1492C39.0273 13.9656 39.1094 13.7214 39.1094 13.4167C39.1094 13.1589 39.0469 12.9402 38.9219 12.7605C38.7969 12.5808 38.6152 12.45 38.377 12.3679C38.1426 12.2859 37.6309 12.2449 36.8418 12.2449H35.4414ZM42.3789 15.989V7.39917H44.1133V10.78H47.5117V7.39917H49.2461V15.989H47.5117V12.2332H44.1133V15.989H42.3789ZM52.0938 11.3542C51.668 11.1746 51.3574 10.9285 51.1621 10.616C50.9707 10.2996 50.875 9.95386 50.875 9.57886C50.875 8.93823 51.0977 8.40894 51.543 7.99097C51.9922 7.573 52.6289 7.36401 53.4531 7.36401C54.2695 7.36401 54.9023 7.573 55.3516 7.99097C55.8047 8.40894 56.0312 8.93823 56.0312 9.57886C56.0312 9.97729 55.9277 10.3328 55.7207 10.6453C55.5137 10.9539 55.2227 11.1902 54.8477 11.3542C55.3242 11.5457 55.6855 11.825 55.9316 12.1921C56.1816 12.5593 56.3066 12.9832 56.3066 13.4636C56.3066 14.2566 56.0527 14.9011 55.5449 15.3972C55.041 15.8933 54.3691 16.1414 53.5293 16.1414C52.748 16.1414 52.0977 15.9363 51.5781 15.5261C50.9648 15.0417 50.6582 14.3777 50.6582 13.5339C50.6582 13.0691 50.7734 12.6433 51.0039 12.2566C51.2344 11.866 51.5977 11.5652 52.0938 11.3542ZM52.4336 9.69604C52.4336 10.0242 52.5254 10.28 52.709 10.4636C52.8965 10.6472 53.1445 10.739 53.4531 10.739C53.7656 10.739 54.0156 10.6472 54.2031 10.4636C54.3906 10.2761 54.4844 10.0183 54.4844 9.69019C54.4844 9.38159 54.3906 9.1355 54.2031 8.9519C54.0195 8.7644 53.7754 8.67065 53.4707 8.67065C53.1543 8.67065 52.9023 8.7644 52.7148 8.9519C52.5273 9.1394 52.4336 9.38745 52.4336 9.69604ZM52.2812 13.3757C52.2812 13.8289 52.3965 14.1824 52.627 14.4363C52.8613 14.6902 53.1523 14.8171 53.5 14.8171C53.8398 14.8171 54.1211 14.696 54.3438 14.4539C54.5664 14.2078 54.6777 13.8542 54.6777 13.3933C54.6777 12.991 54.5645 12.6687 54.3379 12.4265C54.1113 12.1804 53.8242 12.0574 53.4766 12.0574C53.0742 12.0574 52.7734 12.196 52.5742 12.4734C52.3789 12.7507 52.2812 13.0515 52.2812 13.3757Z" fill="white"/>
<defs>
<linearGradient id="paint0_linear_35_1425" x1="32.5" y1="1.98901" x2="32.5" y2="21.989" gradientUnits="userSpaceOnUse">
<stop stop-color="#B0401A"/>
<stop offset="1" stop-color="#D08A72"/>
</linearGradient>
</defs>
</svg>
