<svg width="50" height="24" viewBox="0 0 50 24" fill="none" xmlns="http://www.w3.org/2000/svg">
<rect x="2" y="1.98901" width="47" height="20" rx="10" fill="url(#paint0_linear_42_2640)"/>
<rect x="2" y="1.98901" width="47" height="20" rx="10" stroke="#0081D0" stroke-width="3" stroke-linejoin="round"/>
<path d="M10.0312 15.989V7.39917H16.4004V8.85229H11.7656V10.7566H16.0781V12.2039H11.7656V14.5417H16.5645V15.989H10.0312ZM18.0352 15.989V7.39917H20.8184C21.873 7.39917 22.5605 7.44214 22.8809 7.52808C23.373 7.65698 23.7852 7.93823 24.1172 8.37183C24.4492 8.80151 24.6152 9.35815 24.6152 10.0417C24.6152 10.5691 24.5195 11.0125 24.3281 11.3718C24.1367 11.7312 23.8926 12.0144 23.5957 12.2214C23.3027 12.4246 23.0039 12.5593 22.6992 12.6257C22.2852 12.7078 21.6855 12.7488 20.9004 12.7488H19.7695V15.989H18.0352ZM19.7695 8.85229V11.2898H20.7188C21.4023 11.2898 21.8594 11.2449 22.0898 11.155C22.3203 11.0652 22.5 10.9246 22.6289 10.7332C22.7617 10.5417 22.8281 10.3191 22.8281 10.0652C22.8281 9.75269 22.7363 9.49487 22.5527 9.29175C22.3691 9.08862 22.1367 8.96167 21.8555 8.91089C21.6484 8.87183 21.2324 8.85229 20.6074 8.85229H19.7695ZM26.0449 15.989V7.39917H29.6953C30.6133 7.39917 31.2793 7.47729 31.6934 7.63354C32.1113 7.78589 32.4453 8.05933 32.6953 8.45386C32.9453 8.84839 33.0703 9.29956 33.0703 9.80737C33.0703 10.4519 32.8809 10.9851 32.502 11.407C32.123 11.825 31.5566 12.0886 30.8027 12.198C31.1777 12.4167 31.4863 12.657 31.7285 12.9187C31.9746 13.1804 32.3047 13.6453 32.7188 14.3132L33.7676 15.989H31.6934L30.4395 14.1199C29.9941 13.4519 29.6895 13.032 29.5254 12.8601C29.3613 12.6843 29.1875 12.5652 29.0039 12.5027C28.8203 12.4363 28.5293 12.4031 28.1309 12.4031H27.7793V15.989H26.0449ZM27.7793 11.032H29.0625C29.8945 11.032 30.4141 10.9968 30.6211 10.9265C30.8281 10.8562 30.9902 10.7351 31.1074 10.5632C31.2246 10.3914 31.2832 10.1765 31.2832 9.9187C31.2832 9.62964 31.2051 9.39722 31.0488 9.22144C30.8965 9.04175 30.6797 8.92847 30.3984 8.88159C30.2578 8.86206 29.8359 8.85229 29.1328 8.85229H27.7793V11.032ZM34.2715 13.1941L35.959 13.03C36.0605 13.5964 36.2656 14.0125 36.5742 14.2781C36.8867 14.5437 37.3066 14.6765 37.834 14.6765C38.3926 14.6765 38.8125 14.5593 39.0938 14.325C39.3789 14.0867 39.5215 13.8093 39.5215 13.4929C39.5215 13.2898 39.4609 13.1179 39.3398 12.9773C39.2227 12.8328 39.0156 12.7078 38.7188 12.6023C38.5156 12.532 38.0527 12.407 37.3301 12.2273C36.4004 11.9968 35.748 11.7136 35.373 11.3777C34.8457 10.905 34.582 10.3289 34.582 9.64917C34.582 9.21167 34.7051 8.80347 34.9512 8.42456C35.2012 8.04175 35.5586 7.75073 36.0234 7.55151C36.4922 7.35229 37.0566 7.25269 37.7168 7.25269C38.7949 7.25269 39.6055 7.48901 40.1484 7.96167C40.6953 8.43433 40.9824 9.06519 41.0098 9.85425L39.2754 9.93042C39.2012 9.48901 39.041 9.17261 38.7949 8.9812C38.5527 8.78589 38.1875 8.68823 37.6992 8.68823C37.1953 8.68823 36.8008 8.79175 36.5156 8.99878C36.332 9.13159 36.2402 9.30933 36.2402 9.53198C36.2402 9.73511 36.3262 9.90894 36.498 10.0535C36.7168 10.2371 37.248 10.4285 38.0918 10.6277C38.9355 10.8269 39.5586 11.0339 39.9609 11.2488C40.3672 11.4597 40.6836 11.7507 40.9102 12.1218C41.1406 12.489 41.2559 12.9441 41.2559 13.4871C41.2559 13.9792 41.1191 14.4402 40.8457 14.8699C40.5723 15.2996 40.1855 15.6199 39.6855 15.8308C39.1855 16.0378 38.5625 16.1414 37.8164 16.1414C36.7305 16.1414 35.8965 15.8914 35.3145 15.3914C34.7324 14.8875 34.3848 14.155 34.2715 13.1941Z" fill="white"/>
<defs>
<linearGradient id="paint0_linear_42_2640" x1="25.5" y1="1.98901" x2="25.5" y2="21.989" gradientUnits="userSpaceOnUse">
<stop stop-color="#0081D0"/>
<stop offset="1" stop-color="#B88E00"/>
</linearGradient>
</defs>
</svg>
