<svg width="37" height="24" viewBox="0 0 37 24" fill="none" xmlns="http://www.w3.org/2000/svg">
<rect x="2" y="1.98901" width="34" height="20" rx="10" fill="#5973B7"/>
<rect x="2" y="1.98901" width="34" height="20" rx="10" stroke="#1F2E53" stroke-width="3" stroke-linejoin="round"/>
<path d="M17.6934 12.8308L19.375 13.364C19.1172 14.3015 18.6875 14.9988 18.0859 15.4558C17.4883 15.9089 16.7285 16.1355 15.8066 16.1355C14.666 16.1355 13.7285 15.7468 12.9941 14.9695C12.2598 14.1882 11.8926 13.1218 11.8926 11.7703C11.8926 10.3406 12.2617 9.2312 13 8.44214C13.7383 7.64917 14.709 7.25269 15.9121 7.25269C16.9629 7.25269 17.8164 7.56323 18.4727 8.18433C18.8633 8.55151 19.1562 9.07886 19.3516 9.76636L17.6348 10.1765C17.5332 9.7312 17.3203 9.37964 16.9961 9.12183C16.6758 8.86401 16.2852 8.73511 15.8242 8.73511C15.1875 8.73511 14.6699 8.96362 14.2715 9.42065C13.877 9.87769 13.6797 10.6179 13.6797 11.6414C13.6797 12.7273 13.875 13.5007 14.2656 13.9617C14.6562 14.4226 15.1641 14.6531 15.7891 14.6531C16.25 14.6531 16.6465 14.5066 16.9785 14.2136C17.3105 13.9207 17.5488 13.4597 17.6934 12.8308ZM20.4473 13.7097L22.041 13.5164C22.0918 13.9226 22.2285 14.2332 22.4512 14.448C22.6738 14.6628 22.9434 14.7703 23.2598 14.7703C23.5996 14.7703 23.8848 14.6414 24.1152 14.3835C24.3496 14.1257 24.4668 13.7781 24.4668 13.3406C24.4668 12.9265 24.3555 12.5984 24.1328 12.3562C23.9102 12.114 23.6387 11.9929 23.3184 11.9929C23.1074 11.9929 22.8555 12.0339 22.5625 12.116L22.7441 10.7742C23.1895 10.7859 23.5293 10.6902 23.7637 10.4871C23.998 10.28 24.1152 10.0066 24.1152 9.66675C24.1152 9.37769 24.0293 9.14722 23.8574 8.97534C23.6855 8.80347 23.457 8.71753 23.1719 8.71753C22.8906 8.71753 22.6504 8.81519 22.4512 9.0105C22.252 9.20581 22.1309 9.49097 22.0879 9.86597L20.5703 9.60815C20.6758 9.08862 20.834 8.67456 21.0449 8.36597C21.2598 8.05347 21.5566 7.80933 21.9355 7.63354C22.3184 7.45386 22.7461 7.36401 23.2188 7.36401C24.0273 7.36401 24.6758 7.62183 25.1641 8.13745C25.5664 8.55933 25.7676 9.03589 25.7676 9.56714C25.7676 10.321 25.3555 10.9226 24.5312 11.3718C25.0234 11.4773 25.416 11.7136 25.709 12.0808C26.0059 12.448 26.1543 12.8914 26.1543 13.4109C26.1543 14.1648 25.8789 14.8074 25.3281 15.3386C24.7773 15.8699 24.0918 16.1355 23.2715 16.1355C22.4941 16.1355 21.8496 15.9128 21.3379 15.4675C20.8262 15.0183 20.5293 14.4324 20.4473 13.7097Z" fill="white"/>
</svg>
