<svg width="59" height="24" viewBox="0 0 59 24" fill="none" xmlns="http://www.w3.org/2000/svg">
<rect x="2" y="1.98901" width="56" height="20" rx="10" fill="url(#paint0_linear_52_1867)"/>
<rect x="2" y="1.98901" width="56" height="20" rx="10" stroke="#D59546" stroke-width="3" stroke-linejoin="round"/>
<path d="M10.1719 15.989V7.39917H12.7676L14.3262 13.2585L15.8672 7.39917H18.4688V15.989H16.8574V9.22729L15.1523 15.989H13.4824L11.7832 9.22729V15.989H10.1719ZM20.1914 15.989V7.39917H26.5605V8.85229H21.9258V10.7566H26.2383V12.2039H21.9258V14.5417H26.7246V15.989H20.1914ZM33.6914 12.8308L35.373 13.364C35.1152 14.3015 34.6855 14.9988 34.084 15.4558C33.4863 15.9089 32.7266 16.1355 31.8047 16.1355C30.6641 16.1355 29.7266 15.7468 28.9922 14.9695C28.2578 14.1882 27.8906 13.1218 27.8906 11.7703C27.8906 10.3406 28.2598 9.2312 28.998 8.44214C29.7363 7.64917 30.707 7.25269 31.9102 7.25269C32.9609 7.25269 33.8145 7.56323 34.4707 8.18433C34.8613 8.55151 35.1543 9.07886 35.3496 9.76636L33.6328 10.1765C33.5312 9.7312 33.3184 9.37964 32.9941 9.12183C32.6738 8.86401 32.2832 8.73511 31.8223 8.73511C31.1855 8.73511 30.668 8.96362 30.2695 9.42065C29.875 9.87769 29.6777 10.6179 29.6777 11.6414C29.6777 12.7273 29.873 13.5007 30.2637 13.9617C30.6543 14.4226 31.1621 14.6531 31.7871 14.6531C32.248 14.6531 32.6445 14.5066 32.9766 14.2136C33.3086 13.9207 33.5469 13.4597 33.6914 12.8308ZM36.8672 15.989V7.39917H39.6504C40.7051 7.39917 41.3926 7.44214 41.7129 7.52808C42.2051 7.65698 42.6172 7.93823 42.9492 8.37183C43.2812 8.80151 43.4473 9.35815 43.4473 10.0417C43.4473 10.5691 43.3516 11.0125 43.1602 11.3718C42.9688 11.7312 42.7246 12.0144 42.4277 12.2214C42.1348 12.4246 41.8359 12.5593 41.5312 12.6257C41.1172 12.7078 40.5176 12.7488 39.7324 12.7488H38.6016V15.989H36.8672ZM38.6016 8.85229V11.2898H39.5508C40.2344 11.2898 40.6914 11.2449 40.9219 11.155C41.1523 11.0652 41.332 10.9246 41.4609 10.7332C41.5938 10.5417 41.6602 10.3191 41.6602 10.0652C41.6602 9.75269 41.5684 9.49487 41.3848 9.29175C41.2012 9.08862 40.9688 8.96167 40.6875 8.91089C40.4805 8.87183 40.0645 8.85229 39.4395 8.85229H38.6016ZM50.0684 14.4597V15.989H44.2969C44.3594 15.4109 44.5469 14.864 44.8594 14.3484C45.1719 13.8289 45.7891 13.1414 46.7109 12.2859C47.4531 11.5945 47.9082 11.1257 48.0762 10.8796C48.3027 10.5398 48.416 10.2039 48.416 9.87183C48.416 9.50464 48.3164 9.22339 48.1172 9.02808C47.9219 8.82886 47.6504 8.72925 47.3027 8.72925C46.959 8.72925 46.6855 8.83276 46.4824 9.03979C46.2793 9.24683 46.1621 9.59058 46.1309 10.071L44.4902 9.90698C44.5879 9.00073 44.8945 8.35034 45.4102 7.95581C45.9258 7.56128 46.5703 7.36401 47.3438 7.36401C48.1914 7.36401 48.8574 7.59253 49.3418 8.04956C49.8262 8.50659 50.0684 9.07495 50.0684 9.75464C50.0684 10.1414 49.998 10.5105 49.8574 10.8621C49.7207 11.2097 49.502 11.575 49.2012 11.9578C49.002 12.2117 48.6426 12.5769 48.123 13.0535C47.6035 13.53 47.2734 13.8464 47.1328 14.0027C46.9961 14.1589 46.8848 14.3113 46.7988 14.4597H50.0684Z" fill="white"/>
<defs>
<linearGradient id="paint0_linear_52_1867" x1="30" y1="1.98901" x2="30" y2="21.989" gradientUnits="userSpaceOnUse">
<stop stop-color="#D59546"/>
<stop offset="1" stop-color="#F79391"/>
</linearGradient>
</defs>
</svg>
