<svg width="118" height="36" viewBox="0 0 118 36" fill="none" xmlns="http://www.w3.org/2000/svg">
<rect x="1" y="1.98901" width="116" height="32" rx="10" fill="url(#paint0_linear_46_4320)"/>
<rect x="1" y="1.98901" width="116" height="32" rx="10" stroke="#06A2B2" stroke-width="3" stroke-linejoin="round"/>
<path d="M9.125 14.989V6.39917H10.8594V14.989H9.125ZM12.5352 14.989V6.39917H14.2227L17.7383 12.1355V6.39917H19.3496V14.989H17.6094L14.1465 9.38745V14.989H12.5352ZM23.123 14.989V7.85229H20.5742V6.39917H27.4004V7.85229H24.8574V14.989H23.123ZM28.5312 14.989V6.39917H32.1816C33.0996 6.39917 33.7656 6.47729 34.1797 6.63354C34.5977 6.78589 34.9316 7.05933 35.1816 7.45386C35.4316 7.84839 35.5566 8.29956 35.5566 8.80737C35.5566 9.4519 35.3672 9.98511 34.9883 10.407C34.6094 10.825 34.043 11.0886 33.2891 11.198C33.6641 11.4167 33.9727 11.657 34.2148 11.9187C34.4609 12.1804 34.791 12.6453 35.2051 13.3132L36.2539 14.989H34.1797L32.9258 13.1199C32.4805 12.4519 32.1758 12.032 32.0117 11.8601C31.8477 11.6843 31.6738 11.5652 31.4902 11.5027C31.3066 11.4363 31.0156 11.4031 30.6172 11.4031H30.2656V14.989H28.5312ZM30.2656 10.032H31.5488C32.3809 10.032 32.9004 9.99683 33.1074 9.92651C33.3145 9.8562 33.4766 9.73511 33.5938 9.56323C33.7109 9.39136 33.7695 9.17651 33.7695 8.9187C33.7695 8.62964 33.6914 8.39722 33.5352 8.22144C33.3828 8.04175 33.166 7.92847 32.8848 7.88159C32.7441 7.86206 32.3223 7.85229 31.6191 7.85229H30.2656V10.032ZM44.9434 14.989H43.0566L42.3066 13.0378H38.873L38.1641 14.989H36.3242L39.6699 6.39917H41.5039L44.9434 14.989ZM41.75 11.5906L40.5664 8.40308L39.4062 11.5906H41.75ZM51.3652 11.8308L53.0469 12.364C52.7891 13.3015 52.3594 13.9988 51.7578 14.4558C51.1602 14.9089 50.4004 15.1355 49.4785 15.1355C48.3379 15.1355 47.4004 14.7468 46.666 13.9695C45.9316 13.1882 45.5645 12.1218 45.5645 10.7703C45.5645 9.34058 45.9336 8.2312 46.6719 7.44214C47.4102 6.64917 48.3809 6.25269 49.584 6.25269C50.6348 6.25269 51.4883 6.56323 52.1445 7.18433C52.5352 7.55151 52.8281 8.07886 53.0234 8.76636L51.3066 9.17651C51.2051 8.7312 50.9922 8.37964 50.668 8.12183C50.3477 7.86401 49.957 7.73511 49.4961 7.73511C48.8594 7.73511 48.3418 7.96362 47.9434 8.42065C47.5488 8.87769 47.3516 9.61792 47.3516 10.6414C47.3516 11.7273 47.5469 12.5007 47.9375 12.9617C48.3281 13.4226 48.8359 13.6531 49.4609 13.6531C49.9219 13.6531 50.3184 13.5066 50.6504 13.2136C50.9824 12.9207 51.2207 12.4597 51.3652 11.8308ZM54.541 14.989V6.39917H60.9102V7.85229H56.2754V9.75659H60.5879V11.2039H56.2754V13.5417H61.0742V14.989H54.541ZM62.5918 14.989V6.46948H64.3262V13.5417H68.6387V14.989H62.5918ZM69.9277 14.989V6.46948H71.6621V13.5417H75.9746V14.989H69.9277ZM77.2051 6.39917H78.9395V11.0515C78.9395 11.7898 78.9609 12.2683 79.0039 12.4871C79.0781 12.8386 79.2539 13.1218 79.5312 13.3367C79.8125 13.5476 80.1953 13.6531 80.6797 13.6531C81.1719 13.6531 81.543 13.5535 81.793 13.3542C82.043 13.1511 82.1934 12.9031 82.2441 12.6101C82.2949 12.3171 82.3203 11.8308 82.3203 11.1511V6.39917H84.0547V10.9109C84.0547 11.9421 84.0078 12.6707 83.9141 13.0964C83.8203 13.5222 83.6465 13.8816 83.3926 14.1746C83.1426 14.4675 82.8066 14.7019 82.3848 14.8777C81.9629 15.0496 81.4121 15.1355 80.7324 15.1355C79.9121 15.1355 79.2891 15.0417 78.8633 14.8542C78.4414 14.6628 78.1074 14.4167 77.8613 14.116C77.6152 13.8113 77.4531 13.4929 77.375 13.1609C77.2617 12.6687 77.2051 11.9421 77.2051 10.9812V6.39917ZM85.9355 14.989V6.46948H87.6699V13.5417H91.9824V14.989H85.9355ZM100.971 14.989H99.084L98.334 13.0378H94.9004L94.1914 14.989H92.3516L95.6973 6.39917H97.5312L100.971 14.989ZM97.7773 11.5906L96.5938 8.40308L95.4336 11.5906H97.7773ZM101.902 14.989V6.39917H105.553C106.471 6.39917 107.137 6.47729 107.551 6.63354C107.969 6.78589 108.303 7.05933 108.553 7.45386C108.803 7.84839 108.928 8.29956 108.928 8.80737C108.928 9.4519 108.738 9.98511 108.359 10.407C107.98 10.825 107.414 11.0886 106.66 11.198C107.035 11.4167 107.344 11.657 107.586 11.9187C107.832 12.1804 108.162 12.6453 108.576 13.3132L109.625 14.989H107.551L106.297 13.1199C105.852 12.4519 105.547 12.032 105.383 11.8601C105.219 11.6843 105.045 11.5652 104.861 11.5027C104.678 11.4363 104.387 11.4031 103.988 11.4031H103.637V14.989H101.902ZM103.637 10.032H104.92C105.752 10.032 106.271 9.99683 106.479 9.92651C106.686 9.8562 106.848 9.73511 106.965 9.56323C107.082 9.39136 107.141 9.17651 107.141 8.9187C107.141 8.62964 107.062 8.39722 106.906 8.22144C106.754 8.04175 106.537 7.92847 106.256 7.88159C106.115 7.86206 105.693 7.85229 104.99 7.85229H103.637V10.032ZM26.6387 28.989V20.3992H30.2891C31.207 20.3992 31.873 20.4773 32.2871 20.6335C32.7051 20.7859 33.0391 21.0593 33.2891 21.4539C33.5391 21.8484 33.6641 22.2996 33.6641 22.8074C33.6641 23.4519 33.4746 23.9851 33.0957 24.407C32.7168 24.825 32.1504 25.0886 31.3965 25.198C31.7715 25.4167 32.0801 25.657 32.3223 25.9187C32.5684 26.1804 32.8984 26.6453 33.3125 27.3132L34.3613 28.989H32.2871L31.0332 27.1199C30.5879 26.4519 30.2832 26.032 30.1191 25.8601C29.9551 25.6843 29.7812 25.5652 29.5977 25.5027C29.4141 25.4363 29.123 25.4031 28.7246 25.4031H28.373V28.989H26.6387ZM28.373 24.032H29.6562C30.4883 24.032 31.0078 23.9968 31.2148 23.9265C31.4219 23.8562 31.584 23.7351 31.7012 23.5632C31.8184 23.3914 31.877 23.1765 31.877 22.9187C31.877 22.6296 31.7988 22.3972 31.6426 22.2214C31.4902 22.0417 31.2734 21.9285 30.9922 21.8816C30.8516 21.8621 30.4297 21.8523 29.7266 21.8523H28.373V24.032ZM35.3047 28.989V20.3992H41.6738V21.8523H37.0391V23.7566H41.3516V25.2039H37.0391V27.5417H41.8379V28.989H35.3047ZM48.8047 25.8308L50.4863 26.364C50.2285 27.3015 49.7988 27.9988 49.1973 28.4558C48.5996 28.9089 47.8398 29.1355 46.918 29.1355C45.7773 29.1355 44.8398 28.7468 44.1055 27.9695C43.3711 27.1882 43.0039 26.1218 43.0039 24.7703C43.0039 23.3406 43.373 22.2312 44.1113 21.4421C44.8496 20.6492 45.8203 20.2527 47.0234 20.2527C48.0742 20.2527 48.9277 20.5632 49.584 21.1843C49.9746 21.5515 50.2676 22.0789 50.4629 22.7664L48.7461 23.1765C48.6445 22.7312 48.4316 22.3796 48.1074 22.1218C47.7871 21.864 47.3965 21.7351 46.9355 21.7351C46.2988 21.7351 45.7812 21.9636 45.3828 22.4207C44.9883 22.8777 44.791 23.6179 44.791 24.6414C44.791 25.7273 44.9863 26.5007 45.377 26.9617C45.7676 27.4226 46.2754 27.6531 46.9004 27.6531C47.3613 27.6531 47.7578 27.5066 48.0898 27.2136C48.4219 26.9207 48.6602 26.4597 48.8047 25.8308ZM51.9805 28.989V20.3992H58.3496V21.8523H53.7148V23.7566H58.0273V25.2039H53.7148V27.5417H58.5137V28.989H51.9805ZM59.9844 28.989V20.3992H62.7676C63.8223 20.3992 64.5098 20.4421 64.8301 20.5281C65.3223 20.657 65.7344 20.9382 66.0664 21.3718C66.3984 21.8015 66.5645 22.3582 66.5645 23.0417C66.5645 23.5691 66.4688 24.0125 66.2773 24.3718C66.0859 24.7312 65.8418 25.0144 65.5449 25.2214C65.252 25.4246 64.9531 25.5593 64.6484 25.6257C64.2344 25.7078 63.6348 25.7488 62.8496 25.7488H61.7188V28.989H59.9844ZM61.7188 21.8523V24.2898H62.668C63.3516 24.2898 63.8086 24.2449 64.0391 24.155C64.2695 24.0652 64.4492 23.9246 64.5781 23.7332C64.7109 23.5417 64.7773 23.3191 64.7773 23.0652C64.7773 22.7527 64.6855 22.4949 64.502 22.2917C64.3184 22.0886 64.0859 21.9617 63.8047 21.9109C63.5977 21.8718 63.1816 21.8523 62.5566 21.8523H61.7188ZM69.9219 28.989V21.8523H67.373V20.3992H74.1992V21.8523H71.6562V28.989H69.9219ZM74.75 24.7468C74.75 23.8718 74.8809 23.1375 75.1426 22.5437C75.3379 22.1062 75.6035 21.7136 75.9395 21.366C76.2793 21.0183 76.6504 20.7605 77.0527 20.5925C77.5879 20.366 78.2051 20.2527 78.9043 20.2527C80.1699 20.2527 81.1816 20.6453 81.9395 21.4304C82.7012 22.2156 83.082 23.3074 83.082 24.7058C83.082 26.0925 82.7051 27.1785 81.9512 27.9636C81.1973 28.7449 80.1895 29.1355 78.9277 29.1355C77.6504 29.1355 76.6348 28.7468 75.8809 27.9695C75.127 27.1882 74.75 26.114 74.75 24.7468ZM76.5371 24.6882C76.5371 25.6609 76.7617 26.3992 77.2109 26.9031C77.6602 27.4031 78.2305 27.6531 78.9219 27.6531C79.6133 27.6531 80.1797 27.405 80.6211 26.9089C81.0664 26.4089 81.2891 25.6609 81.2891 24.6648C81.2891 23.6804 81.0723 22.946 80.6387 22.4617C80.209 21.9773 79.6367 21.7351 78.9219 21.7351C78.207 21.7351 77.6309 21.9812 77.1934 22.4734C76.7559 22.9617 76.5371 23.7 76.5371 24.6882ZM84.4473 28.989V20.3992H88.0977C89.0156 20.3992 89.6816 20.4773 90.0957 20.6335C90.5137 20.7859 90.8477 21.0593 91.0977 21.4539C91.3477 21.8484 91.4727 22.2996 91.4727 22.8074C91.4727 23.4519 91.2832 23.9851 90.9043 24.407C90.5254 24.825 89.959 25.0886 89.2051 25.198C89.5801 25.4167 89.8887 25.657 90.1309 25.9187C90.377 26.1804 90.707 26.6453 91.1211 27.3132L92.1699 28.989H90.0957L88.8418 27.1199C88.3965 26.4519 88.0918 26.032 87.9277 25.8601C87.7637 25.6843 87.5898 25.5652 87.4062 25.5027C87.2227 25.4363 86.9316 25.4031 86.5332 25.4031H86.1816V28.989H84.4473ZM86.1816 24.032H87.4648C88.2969 24.032 88.8164 23.9968 89.0234 23.9265C89.2305 23.8562 89.3926 23.7351 89.5098 23.5632C89.627 23.3914 89.6855 23.1765 89.6855 22.9187C89.6855 22.6296 89.6074 22.3972 89.4512 22.2214C89.2988 22.0417 89.082 21.9285 88.8008 21.8816C88.6602 21.8621 88.2383 21.8523 87.5352 21.8523H86.1816V24.032Z" fill="white"/>
<defs>
<linearGradient id="paint0_linear_46_4320" x1="59" y1="1.98901" x2="59" y2="33.989" gradientUnits="userSpaceOnUse">
<stop stop-color="#D58CC9"/>
<stop offset="1" stop-color="#06A2B2"/>
</linearGradient>
</defs>
</svg>
