<svg width="56" height="24" viewBox="0 0 56 24" fill="none" xmlns="http://www.w3.org/2000/svg">
<rect x="2" y="1.98901" width="53" height="20" rx="10" fill="url(#paint0_linear_64_1908)"/>
<rect x="2" y="1.98901" width="53" height="20" rx="10" stroke="#AAAA97" stroke-width="3" stroke-linejoin="round"/>
<path d="M10.1367 15.989V7.39917H12.9199C13.9746 7.39917 14.6621 7.44214 14.9824 7.52808C15.4746 7.65698 15.8867 7.93823 16.2188 8.37183C16.5508 8.80151 16.7168 9.35815 16.7168 10.0417C16.7168 10.5691 16.6211 11.0125 16.4297 11.3718C16.2383 11.7312 15.9941 12.0144 15.6973 12.2214C15.4043 12.4246 15.1055 12.5593 14.8008 12.6257C14.3867 12.7078 13.7871 12.7488 13.002 12.7488H11.8711V15.989H10.1367ZM11.8711 8.85229V11.2898H12.8203C13.5039 11.2898 13.9609 11.2449 14.1914 11.155C14.4219 11.0652 14.6016 10.9246 14.7305 10.7332C14.8633 10.5417 14.9297 10.3191 14.9297 10.0652C14.9297 9.75269 14.8379 9.49487 14.6543 9.29175C14.4707 9.08862 14.2383 8.96167 13.957 8.91089C13.75 8.87183 13.334 8.85229 12.709 8.85229H11.8711ZM24.9961 15.989H23.1094L22.3594 14.0378H18.9258L18.2168 15.989H16.377L19.7227 7.39917H21.5566L24.9961 15.989ZM21.8027 12.5906L20.6191 9.40308L19.459 12.5906H21.8027ZM25.9688 15.989V7.46948H27.7031V14.5417H32.0156V15.989H25.9688ZM33.2637 7.39917H36.6973C37.377 7.39917 37.8828 7.42847 38.2148 7.48706C38.5508 7.54175 38.8496 7.65894 39.1113 7.83862C39.377 8.01831 39.5977 8.25854 39.7734 8.55933C39.9492 8.8562 40.0371 9.19019 40.0371 9.56128C40.0371 9.96362 39.9277 10.3328 39.709 10.6687C39.4941 11.0046 39.2012 11.2566 38.8301 11.4246C39.3535 11.5769 39.7559 11.8367 40.0371 12.2039C40.3184 12.571 40.459 13.0027 40.459 13.4988C40.459 13.8894 40.3672 14.2703 40.1836 14.6414C40.0039 15.0085 39.7559 15.3035 39.4395 15.5261C39.127 15.7449 38.7402 15.8796 38.2793 15.9304C37.9902 15.9617 37.293 15.9812 36.1875 15.989H33.2637V7.39917ZM34.998 8.82886V10.8152H36.1348C36.8105 10.8152 37.2305 10.8054 37.3945 10.7859C37.6914 10.7507 37.9238 10.6492 38.0918 10.4812C38.2637 10.3093 38.3496 10.0847 38.3496 9.80737C38.3496 9.54175 38.2754 9.3269 38.127 9.16284C37.9824 8.99487 37.7656 8.89331 37.4766 8.85815C37.3047 8.83862 36.8105 8.82886 35.9941 8.82886H34.998ZM34.998 12.2449V14.5417H36.6035C37.2285 14.5417 37.625 14.5242 37.793 14.489C38.0508 14.4421 38.2598 14.3289 38.4199 14.1492C38.584 13.9656 38.666 13.7214 38.666 13.4167C38.666 13.1589 38.6035 12.9402 38.4785 12.7605C38.3535 12.5808 38.1719 12.45 37.9336 12.3679C37.6992 12.2859 37.1875 12.2449 36.3984 12.2449H34.998ZM47.127 14.4597V15.989H41.3555C41.418 15.4109 41.6055 14.864 41.918 14.3484C42.2305 13.8289 42.8477 13.1414 43.7695 12.2859C44.5117 11.5945 44.9668 11.1257 45.1348 10.8796C45.3613 10.5398 45.4746 10.2039 45.4746 9.87183C45.4746 9.50464 45.375 9.22339 45.1758 9.02808C44.9805 8.82886 44.709 8.72925 44.3613 8.72925C44.0176 8.72925 43.7441 8.83276 43.541 9.03979C43.3379 9.24683 43.2207 9.59058 43.1895 10.071L41.5488 9.90698C41.6465 9.00073 41.9531 8.35034 42.4688 7.95581C42.9844 7.56128 43.6289 7.36401 44.4023 7.36401C45.25 7.36401 45.916 7.59253 46.4004 8.04956C46.8848 8.50659 47.127 9.07495 47.127 9.75464C47.127 10.1414 47.0566 10.5105 46.916 10.8621C46.7793 11.2097 46.5605 11.575 46.2598 11.9578C46.0605 12.2117 45.7012 12.5769 45.1816 13.0535C44.6621 13.53 44.332 13.8464 44.1914 14.0027C44.0547 14.1589 43.9434 14.3113 43.8574 14.4597H47.127Z" fill="white"/>
<defs>
<linearGradient id="paint0_linear_64_1908" x1="28.5" y1="1.98901" x2="28.5" y2="21.989" gradientUnits="userSpaceOnUse">
<stop stop-color="#AAAA97"/>
<stop offset="1" stop-color="#4472D4"/>
</linearGradient>
</defs>
</svg>
