<svg width="48" height="24" viewBox="0 0 48 24" fill="none" xmlns="http://www.w3.org/2000/svg">
<rect x="2" y="1.98901" width="45" height="20" rx="10" fill="url(#paint0_linear_64_1959)"/>
<rect x="2" y="1.98901" width="45" height="20" rx="10" stroke="#9E2000" stroke-width="3" stroke-linejoin="round"/>
<path d="M10.0273 15.989V7.39917H12.8105C13.8652 7.39917 14.5527 7.44214 14.873 7.52808C15.3652 7.65698 15.7773 7.93823 16.1094 8.37183C16.4414 8.80151 16.6074 9.35815 16.6074 10.0417C16.6074 10.5691 16.5117 11.0125 16.3203 11.3718C16.1289 11.7312 15.8848 12.0144 15.5879 12.2214C15.2949 12.4246 14.9961 12.5593 14.6914 12.6257C14.2773 12.7078 13.6777 12.7488 12.8926 12.7488H11.7617V15.989H10.0273ZM11.7617 8.85229V11.2898H12.7109C13.3945 11.2898 13.8516 11.2449 14.082 11.155C14.3125 11.0652 14.4922 10.9246 14.6211 10.7332C14.7539 10.5417 14.8203 10.3191 14.8203 10.0652C14.8203 9.75269 14.7285 9.49487 14.5449 9.29175C14.3613 9.08862 14.1289 8.96167 13.8477 8.91089C13.6406 8.87183 13.2246 8.85229 12.5996 8.85229H11.7617ZM18.0312 15.989V7.39917H24.4004V8.85229H19.7656V10.7566H24.0781V12.2039H19.7656V14.5417H24.5645V15.989H18.0312ZM25.1621 15.989L28.0977 11.5066L25.4375 7.39917H27.4648L29.1875 10.1589L30.875 7.39917H32.8848L30.2129 11.571L33.1484 15.989H31.0566L29.1523 13.0183L27.2422 15.989H25.1621ZM33.6992 13.78L35.3398 13.6101C35.3867 13.9812 35.5254 14.2761 35.7559 14.4949C35.9863 14.7097 36.252 14.8171 36.5527 14.8171C36.8965 14.8171 37.1875 14.6785 37.4258 14.4011C37.6641 14.1199 37.7832 13.698 37.7832 13.1355C37.7832 12.6082 37.6641 12.2136 37.4258 11.9519C37.1914 11.6863 36.8848 11.5535 36.5059 11.5535C36.0332 11.5535 35.6094 11.7625 35.2344 12.1804L33.8984 11.9871L34.7422 7.51636H39.0957V9.05737H35.9902L35.7324 10.5164C36.0996 10.3328 36.4746 10.241 36.8574 10.241C37.5879 10.241 38.207 10.5066 38.7148 11.0378C39.2227 11.5691 39.4766 12.2585 39.4766 13.1062C39.4766 13.8132 39.2715 14.4441 38.8613 14.9988C38.3027 15.7566 37.5273 16.1355 36.5352 16.1355C35.7422 16.1355 35.0957 15.9226 34.5957 15.4968C34.0957 15.071 33.7969 14.4988 33.6992 13.78Z" fill="white"/>
<defs>
<linearGradient id="paint0_linear_64_1959" x1="24.5" y1="1.98901" x2="24.5" y2="21.989" gradientUnits="userSpaceOnUse">
<stop stop-color="#9E2000"/>
<stop offset="1" stop-color="#D69692"/>
</linearGradient>
</defs>
</svg>
