<svg width="43" height="24" viewBox="0 0 43 24" fill="none" xmlns="http://www.w3.org/2000/svg">
<rect x="2" y="1.98901" width="40" height="20" rx="10" fill="url(#paint0_linear_67_1957)"/>
<rect x="2" y="1.98901" width="40" height="20" rx="10" stroke="#B84384" stroke-width="3" stroke-linejoin="round"/>
<path d="M9.75977 13.1941L11.4473 13.03C11.5488 13.5964 11.7539 14.0125 12.0625 14.2781C12.375 14.5437 12.7949 14.6765 13.3223 14.6765C13.8809 14.6765 14.3008 14.5593 14.582 14.325C14.8672 14.0867 15.0098 13.8093 15.0098 13.4929C15.0098 13.2898 14.9492 13.1179 14.8281 12.9773C14.7109 12.8328 14.5039 12.7078 14.207 12.6023C14.0039 12.532 13.541 12.407 12.8184 12.2273C11.8887 11.9968 11.2363 11.7136 10.8613 11.3777C10.334 10.905 10.0703 10.3289 10.0703 9.64917C10.0703 9.21167 10.1934 8.80347 10.4395 8.42456C10.6895 8.04175 11.0469 7.75073 11.5117 7.55151C11.9805 7.35229 12.5449 7.25269 13.2051 7.25269C14.2832 7.25269 15.0938 7.48901 15.6367 7.96167C16.1836 8.43433 16.4707 9.06519 16.498 9.85425L14.7637 9.93042C14.6895 9.48901 14.5293 9.17261 14.2832 8.9812C14.041 8.78589 13.6758 8.68823 13.1875 8.68823C12.6836 8.68823 12.2891 8.79175 12.0039 8.99878C11.8203 9.13159 11.7285 9.30933 11.7285 9.53198C11.7285 9.73511 11.8145 9.90894 11.9863 10.0535C12.2051 10.2371 12.7363 10.4285 13.5801 10.6277C14.4238 10.8269 15.0469 11.0339 15.4492 11.2488C15.8555 11.4597 16.1719 11.7507 16.3984 12.1218C16.6289 12.489 16.7441 12.9441 16.7441 13.4871C16.7441 13.9792 16.6074 14.4402 16.334 14.8699C16.0605 15.2996 15.6738 15.6199 15.1738 15.8308C14.6738 16.0378 14.0508 16.1414 13.3047 16.1414C12.2188 16.1414 11.3848 15.8914 10.8027 15.3914C10.2207 14.8875 9.87305 14.155 9.75977 13.1941ZM17.8516 11.7468C17.8516 10.8718 17.9824 10.1375 18.2441 9.5437C18.4395 9.1062 18.7051 8.71362 19.041 8.36597C19.3809 8.01831 19.752 7.7605 20.1543 7.59253C20.6895 7.36597 21.3066 7.25269 22.0059 7.25269C23.2715 7.25269 24.2832 7.64526 25.041 8.43042C25.8027 9.21558 26.1836 10.3074 26.1836 11.7058C26.1836 13.0925 25.8066 14.1785 25.0527 14.9636C24.2988 15.7449 23.291 16.1355 22.0293 16.1355C20.752 16.1355 19.7363 15.7468 18.9824 14.9695C18.2285 14.1882 17.8516 13.114 17.8516 11.7468ZM19.6387 11.6882C19.6387 12.6609 19.8633 13.3992 20.3125 13.9031C20.7617 14.4031 21.332 14.6531 22.0234 14.6531C22.7148 14.6531 23.2812 14.405 23.7227 13.9089C24.168 13.4089 24.3906 12.6609 24.3906 11.6648C24.3906 10.6804 24.1738 9.94604 23.7402 9.46167C23.3105 8.97729 22.7383 8.73511 22.0234 8.73511C21.3086 8.73511 20.7324 8.9812 20.2949 9.47339C19.8574 9.96167 19.6387 10.7 19.6387 11.6882ZM27.1035 13.1941L28.791 13.03C28.8926 13.5964 29.0977 14.0125 29.4062 14.2781C29.7188 14.5437 30.1387 14.6765 30.666 14.6765C31.2246 14.6765 31.6445 14.5593 31.9258 14.325C32.2109 14.0867 32.3535 13.8093 32.3535 13.4929C32.3535 13.2898 32.293 13.1179 32.1719 12.9773C32.0547 12.8328 31.8477 12.7078 31.5508 12.6023C31.3477 12.532 30.8848 12.407 30.1621 12.2273C29.2324 11.9968 28.5801 11.7136 28.2051 11.3777C27.6777 10.905 27.4141 10.3289 27.4141 9.64917C27.4141 9.21167 27.5371 8.80347 27.7832 8.42456C28.0332 8.04175 28.3906 7.75073 28.8555 7.55151C29.3242 7.35229 29.8887 7.25269 30.5488 7.25269C31.627 7.25269 32.4375 7.48901 32.9805 7.96167C33.5273 8.43433 33.8145 9.06519 33.8418 9.85425L32.1074 9.93042C32.0332 9.48901 31.873 9.17261 31.627 8.9812C31.3848 8.78589 31.0195 8.68823 30.5312 8.68823C30.0273 8.68823 29.6328 8.79175 29.3477 8.99878C29.1641 9.13159 29.0723 9.30933 29.0723 9.53198C29.0723 9.73511 29.1582 9.90894 29.3301 10.0535C29.5488 10.2371 30.0801 10.4285 30.9238 10.6277C31.7676 10.8269 32.3906 11.0339 32.793 11.2488C33.1992 11.4597 33.5156 11.7507 33.7422 12.1218C33.9727 12.489 34.0879 12.9441 34.0879 13.4871C34.0879 13.9792 33.9512 14.4402 33.6777 14.8699C33.4043 15.2996 33.0176 15.6199 32.5176 15.8308C32.0176 16.0378 31.3945 16.1414 30.6484 16.1414C29.5625 16.1414 28.7285 15.8914 28.1465 15.3914C27.5645 14.8875 27.2168 14.155 27.1035 13.1941Z" fill="white"/>
<defs>
<linearGradient id="paint0_linear_67_1957" x1="22" y1="1.98901" x2="22" y2="21.989" gradientUnits="userSpaceOnUse">
<stop stop-color="#B84384"/>
<stop offset="1" stop-color="#FFB0DC"/>
</linearGradient>
</defs>
</svg>
