<svg width="64" height="24" viewBox="0 0 64 24" fill="none" xmlns="http://www.w3.org/2000/svg">
<rect x="2" y="1.98901" width="61" height="20" rx="10" fill="url(#paint0_linear_35_1503)"/>
<rect x="2" y="1.98901" width="61" height="20" rx="10" stroke="#4F498D" stroke-width="3" stroke-linejoin="round"/>
<path d="M10.1348 7.39917H13.5684C14.248 7.39917 14.7539 7.42847 15.0859 7.48706C15.4219 7.54175 15.7207 7.65894 15.9824 7.83862C16.248 8.01831 16.4688 8.25854 16.6445 8.55933C16.8203 8.8562 16.9082 9.19019 16.9082 9.56128C16.9082 9.96362 16.7988 10.3328 16.5801 10.6687C16.3652 11.0046 16.0723 11.2566 15.7012 11.4246C16.2246 11.5769 16.627 11.8367 16.9082 12.2039C17.1895 12.571 17.3301 13.0027 17.3301 13.4988C17.3301 13.8894 17.2383 14.2703 17.0547 14.6414C16.875 15.0085 16.627 15.3035 16.3105 15.5261C15.998 15.7449 15.6113 15.8796 15.1504 15.9304C14.8613 15.9617 14.1641 15.9812 13.0586 15.989H10.1348V7.39917ZM11.8691 8.82886V10.8152H13.0059C13.6816 10.8152 14.1016 10.8054 14.2656 10.7859C14.5625 10.7507 14.7949 10.6492 14.9629 10.4812C15.1348 10.3093 15.2207 10.0847 15.2207 9.80737C15.2207 9.54175 15.1465 9.3269 14.998 9.16284C14.8535 8.99487 14.6367 8.89331 14.3477 8.85815C14.1758 8.83862 13.6816 8.82886 12.8652 8.82886H11.8691ZM11.8691 12.2449V14.5417H13.4746C14.0996 14.5417 14.4961 14.5242 14.6641 14.489C14.9219 14.4421 15.1309 14.3289 15.291 14.1492C15.4551 13.9656 15.5371 13.7214 15.5371 13.4167C15.5371 13.1589 15.4746 12.9402 15.3496 12.7605C15.2246 12.5808 15.043 12.45 14.8047 12.3679C14.5703 12.2859 14.0586 12.2449 13.2695 12.2449H11.8691ZM18.3789 13.7097L19.9727 13.5164C20.0234 13.9226 20.1602 14.2332 20.3828 14.448C20.6055 14.6628 20.875 14.7703 21.1914 14.7703C21.5312 14.7703 21.8164 14.6414 22.0469 14.3835C22.2812 14.1257 22.3984 13.7781 22.3984 13.3406C22.3984 12.9265 22.2871 12.5984 22.0645 12.3562C21.8418 12.114 21.5703 11.9929 21.25 11.9929C21.0391 11.9929 20.7871 12.0339 20.4941 12.116L20.6758 10.7742C21.1211 10.7859 21.4609 10.6902 21.6953 10.4871C21.9297 10.28 22.0469 10.0066 22.0469 9.66675C22.0469 9.37769 21.9609 9.14722 21.7891 8.97534C21.6172 8.80347 21.3887 8.71753 21.1035 8.71753C20.8223 8.71753 20.582 8.81519 20.3828 9.0105C20.1836 9.20581 20.0625 9.49097 20.0195 9.86597L18.502 9.60815C18.6074 9.08862 18.7656 8.67456 18.9766 8.36597C19.1914 8.05347 19.4883 7.80933 19.8672 7.63354C20.25 7.45386 20.6777 7.36401 21.1504 7.36401C21.959 7.36401 22.6074 7.62183 23.0957 8.13745C23.498 8.55933 23.6992 9.03589 23.6992 9.56714C23.6992 10.321 23.2871 10.9226 22.4629 11.3718C22.9551 11.4773 23.3477 11.7136 23.6406 12.0808C23.9375 12.448 24.0859 12.8914 24.0859 13.4109C24.0859 14.1648 23.8105 14.8074 23.2598 15.3386C22.709 15.8699 22.0234 16.1355 21.2031 16.1355C20.4258 16.1355 19.7812 15.9128 19.2695 15.4675C18.7578 15.0183 18.4609 14.4324 18.3789 13.7097ZM29.4766 12.8308V11.3835H33.2148V14.8054C32.8516 15.157 32.3242 15.4675 31.6328 15.7371C30.9453 16.0027 30.248 16.1355 29.541 16.1355C28.6426 16.1355 27.8594 15.948 27.1914 15.573C26.5234 15.1941 26.0215 14.655 25.6855 13.9558C25.3496 13.2527 25.1816 12.489 25.1816 11.6648C25.1816 10.7703 25.3691 9.97534 25.7441 9.28003C26.1191 8.58472 26.668 8.05151 27.3906 7.68042C27.9414 7.39526 28.627 7.25269 29.4473 7.25269C30.5137 7.25269 31.3457 7.47729 31.9434 7.92651C32.5449 8.37183 32.9316 8.98901 33.1035 9.77808L31.3809 10.1003C31.2598 9.67847 31.0312 9.34644 30.6953 9.10425C30.3633 8.85815 29.9473 8.73511 29.4473 8.73511C28.6895 8.73511 28.0859 8.97534 27.6367 9.45581C27.1914 9.93628 26.9688 10.6492 26.9688 11.5945C26.9688 12.614 27.1953 13.3796 27.6484 13.8914C28.1016 14.3992 28.6953 14.6531 29.4297 14.6531C29.793 14.6531 30.1562 14.5828 30.5195 14.4421C30.8867 14.2976 31.2012 14.1238 31.4629 13.9207V12.8308H29.4766ZM42.5664 15.989H40.6797L39.9297 14.0378H36.4961L35.7871 15.989H33.9473L37.293 7.39917H39.127L42.5664 15.989ZM39.373 12.5906L38.1895 9.40308L37.0293 12.5906H39.373ZM44.5352 15.989V8.85229H41.9863V7.39917H48.8125V8.85229H46.2695V15.989H44.5352ZM49.5156 13.7097L51.1094 13.5164C51.1602 13.9226 51.2969 14.2332 51.5195 14.448C51.7422 14.6628 52.0117 14.7703 52.3281 14.7703C52.668 14.7703 52.9531 14.6414 53.1836 14.3835C53.418 14.1257 53.5352 13.7781 53.5352 13.3406C53.5352 12.9265 53.4238 12.5984 53.2012 12.3562C52.9785 12.114 52.707 11.9929 52.3867 11.9929C52.1758 11.9929 51.9238 12.0339 51.6309 12.116L51.8125 10.7742C52.2578 10.7859 52.5977 10.6902 52.832 10.4871C53.0664 10.28 53.1836 10.0066 53.1836 9.66675C53.1836 9.37769 53.0977 9.14722 52.9258 8.97534C52.7539 8.80347 52.5254 8.71753 52.2402 8.71753C51.959 8.71753 51.7188 8.81519 51.5195 9.0105C51.3203 9.20581 51.1992 9.49097 51.1562 9.86597L49.6387 9.60815C49.7441 9.08862 49.9023 8.67456 50.1133 8.36597C50.3281 8.05347 50.625 7.80933 51.0039 7.63354C51.3867 7.45386 51.8145 7.36401 52.2871 7.36401C53.0957 7.36401 53.7441 7.62183 54.2324 8.13745C54.6348 8.55933 54.8359 9.03589 54.8359 9.56714C54.8359 10.321 54.4238 10.9226 53.5996 11.3718C54.0918 11.4773 54.4844 11.7136 54.7773 12.0808C55.0742 12.448 55.2227 12.8914 55.2227 13.4109C55.2227 14.1648 54.9473 14.8074 54.3965 15.3386C53.8457 15.8699 53.1602 16.1355 52.3398 16.1355C51.5625 16.1355 50.918 15.9128 50.4062 15.4675C49.8945 15.0183 49.5977 14.4324 49.5156 13.7097Z" fill="white"/>
<defs>
<linearGradient id="paint0_linear_35_1503" x1="32.5" y1="1.98901" x2="32.5" y2="21.989" gradientUnits="userSpaceOnUse">
<stop stop-color="#DFD850"/>
<stop offset="1" stop-color="#4F498D"/>
</linearGradient>
</defs>
</svg>
