<svg width="121" height="36" viewBox="0 0 121 36" fill="none" xmlns="http://www.w3.org/2000/svg">
<rect x="1" y="1.98901" width="119" height="32" rx="10" fill="url(#paint0_linear_64_1824)"/>
<rect x="1" y="1.98901" width="119" height="32" rx="10" stroke="#0052AF" stroke-width="3" stroke-linejoin="round"/>
<path d="M10.4316 14.989V6.39917H13.0273L14.5859 12.2585L16.127 6.39917H18.7285V14.989H17.1172V8.22729L15.4121 14.989H13.7422L12.043 8.22729V14.989H10.4316ZM20.3984 14.989V6.39917H22.1328V14.989H20.3984ZM25.7246 14.989V7.85229H23.1758V6.39917H30.002V7.85229H27.459V14.989H25.7246ZM30.5527 10.7468C30.5527 9.87183 30.6836 9.13745 30.9453 8.5437C31.1406 8.1062 31.4062 7.71362 31.7422 7.36597C32.082 7.01831 32.4531 6.7605 32.8555 6.59253C33.3906 6.36597 34.0078 6.25269 34.707 6.25269C35.9727 6.25269 36.9844 6.64526 37.7422 7.43042C38.5039 8.21558 38.8848 9.30737 38.8848 10.7058C38.8848 12.0925 38.5078 13.1785 37.7539 13.9636C37 14.7449 35.9922 15.1355 34.7305 15.1355C33.4531 15.1355 32.4375 14.7468 31.6836 13.9695C30.9297 13.1882 30.5527 12.114 30.5527 10.7468ZM32.3398 10.6882C32.3398 11.6609 32.5645 12.3992 33.0137 12.9031C33.4629 13.4031 34.0332 13.6531 34.7246 13.6531C35.416 13.6531 35.9824 13.405 36.4238 12.9089C36.8691 12.4089 37.0918 11.6609 37.0918 10.6648C37.0918 9.68042 36.875 8.94604 36.4414 8.46167C36.0117 7.97729 35.4395 7.73511 34.7246 7.73511C34.0098 7.73511 33.4336 7.9812 32.9961 8.47339C32.5586 8.96167 32.3398 9.69995 32.3398 10.6882ZM45.7402 11.8308L47.4219 12.364C47.1641 13.3015 46.7344 13.9988 46.1328 14.4558C45.5352 14.9089 44.7754 15.1355 43.8535 15.1355C42.7129 15.1355 41.7754 14.7468 41.041 13.9695C40.3066 13.1882 39.9395 12.1218 39.9395 10.7703C39.9395 9.34058 40.3086 8.2312 41.0469 7.44214C41.7852 6.64917 42.7559 6.25269 43.959 6.25269C45.0098 6.25269 45.8633 6.56323 46.5195 7.18433C46.9102 7.55151 47.2031 8.07886 47.3984 8.76636L45.6816 9.17651C45.5801 8.7312 45.3672 8.37964 45.043 8.12183C44.7227 7.86401 44.332 7.73511 43.8711 7.73511C43.2344 7.73511 42.7168 7.96362 42.3184 8.42065C41.9238 8.87769 41.7266 9.61792 41.7266 10.6414C41.7266 11.7273 41.9219 12.5007 42.3125 12.9617C42.7031 13.4226 43.2109 13.6531 43.8359 13.6531C44.2969 13.6531 44.6934 13.5066 45.0254 13.2136C45.3574 12.9207 45.5957 12.4597 45.7402 11.8308ZM48.9219 14.989V6.39917H50.6562V9.78003H54.0547V6.39917H55.7891V14.989H54.0547V11.2332H50.6562V14.989H48.9219ZM57.2363 10.7468C57.2363 9.87183 57.3672 9.13745 57.6289 8.5437C57.8242 8.1062 58.0898 7.71362 58.4258 7.36597C58.7656 7.01831 59.1367 6.7605 59.5391 6.59253C60.0742 6.36597 60.6914 6.25269 61.3906 6.25269C62.6562 6.25269 63.668 6.64526 64.4258 7.43042C65.1875 8.21558 65.5684 9.30737 65.5684 10.7058C65.5684 12.0925 65.1914 13.1785 64.4375 13.9636C63.6836 14.7449 62.6758 15.1355 61.4141 15.1355C60.1367 15.1355 59.1211 14.7468 58.3672 13.9695C57.6133 13.1882 57.2363 12.114 57.2363 10.7468ZM59.0234 10.6882C59.0234 11.6609 59.248 12.3992 59.6973 12.9031C60.1465 13.4031 60.7168 13.6531 61.4082 13.6531C62.0996 13.6531 62.666 13.405 63.1074 12.9089C63.5527 12.4089 63.7754 11.6609 63.7754 10.6648C63.7754 9.68042 63.5586 8.94604 63.125 8.46167C62.6953 7.97729 62.123 7.73511 61.4082 7.73511C60.6934 7.73511 60.1172 7.9812 59.6797 8.47339C59.2422 8.96167 59.0234 9.69995 59.0234 10.6882ZM66.9453 14.989V6.39917H68.6328L72.1484 12.1355V6.39917H73.7598V14.989H72.0195L68.5566 9.38745V14.989H66.9453ZM75.5938 6.39917H78.7637C79.4785 6.39917 80.0234 6.45386 80.3984 6.56323C80.9023 6.71167 81.334 6.97534 81.6934 7.35425C82.0527 7.73315 82.3262 8.198 82.5137 8.74878C82.7012 9.29565 82.7949 9.97144 82.7949 10.7761C82.7949 11.4832 82.707 12.0925 82.5312 12.6042C82.3164 13.2292 82.0098 13.7351 81.6113 14.1218C81.3105 14.4148 80.9043 14.6433 80.3926 14.8074C80.0098 14.9285 79.498 14.989 78.8574 14.989H75.5938V6.39917ZM77.3281 7.85229V13.5417H78.623C79.1074 13.5417 79.457 13.5144 79.6719 13.4597C79.9531 13.3894 80.1855 13.2703 80.3691 13.1023C80.5566 12.9343 80.709 12.6589 80.8262 12.2761C80.9434 11.8894 81.002 11.364 81.002 10.7C81.002 10.0359 80.9434 9.52612 80.8262 9.17065C80.709 8.81519 80.5449 8.53784 80.334 8.33862C80.123 8.1394 79.8555 8.00464 79.5312 7.93433C79.2891 7.87964 78.8145 7.85229 78.1074 7.85229H77.3281ZM84.2773 14.989V6.39917H87.9277C88.8457 6.39917 89.5117 6.47729 89.9258 6.63354C90.3438 6.78589 90.6777 7.05933 90.9277 7.45386C91.1777 7.84839 91.3027 8.29956 91.3027 8.80737C91.3027 9.4519 91.1133 9.98511 90.7344 10.407C90.3555 10.825 89.7891 11.0886 89.0352 11.198C89.4102 11.4167 89.7188 11.657 89.9609 11.9187C90.207 12.1804 90.5371 12.6453 90.9512 13.3132L92 14.989H89.9258L88.6719 13.1199C88.2266 12.4519 87.9219 12.032 87.7578 11.8601C87.5938 11.6843 87.4199 11.5652 87.2363 11.5027C87.0527 11.4363 86.7617 11.4031 86.3633 11.4031H86.0117V14.989H84.2773ZM86.0117 10.032H87.2949C88.127 10.032 88.6465 9.99683 88.8535 9.92651C89.0605 9.8562 89.2227 9.73511 89.3398 9.56323C89.457 9.39136 89.5156 9.17651 89.5156 8.9187C89.5156 8.62964 89.4375 8.39722 89.2812 8.22144C89.1289 8.04175 88.9121 7.92847 88.6309 7.88159C88.4902 7.86206 88.0684 7.85229 87.3652 7.85229H86.0117V10.032ZM92.8906 14.989V6.39917H94.625V14.989H92.8906ZM104.029 14.989H102.143L101.393 13.0378H97.959L97.25 14.989H95.4102L98.7559 6.39917H100.59L104.029 14.989ZM100.836 11.5906L99.6523 8.40308L98.4922 11.5906H100.836ZM105.002 14.989V6.46948H106.736V13.5417H111.049V14.989H105.002ZM9.01367 28.989V20.3992H14.9023V21.8523H10.748V23.8855H14.334V25.3386H10.748V28.989H9.01367ZM16.2852 28.989V20.3992H18.0195V28.989H16.2852ZM19.2383 26.1941L20.9258 26.03C21.0273 26.5964 21.2324 27.0125 21.541 27.2781C21.8535 27.5437 22.2734 27.6765 22.8008 27.6765C23.3594 27.6765 23.7793 27.5593 24.0605 27.325C24.3457 27.0867 24.4883 26.8093 24.4883 26.4929C24.4883 26.2898 24.4277 26.1179 24.3066 25.9773C24.1895 25.8328 23.9824 25.7078 23.6855 25.6023C23.4824 25.532 23.0195 25.407 22.2969 25.2273C21.3672 24.9968 20.7148 24.7136 20.3398 24.3777C19.8125 23.905 19.5488 23.3289 19.5488 22.6492C19.5488 22.2117 19.6719 21.8035 19.918 21.4246C20.168 21.0417 20.5254 20.7507 20.9902 20.5515C21.459 20.3523 22.0234 20.2527 22.6836 20.2527C23.7617 20.2527 24.5723 20.489 25.1152 20.9617C25.6621 21.4343 25.9492 22.0652 25.9766 22.8542L24.2422 22.9304C24.168 22.489 24.0078 22.1726 23.7617 21.9812C23.5195 21.7859 23.1543 21.6882 22.666 21.6882C22.1621 21.6882 21.7676 21.7917 21.4824 21.9988C21.2988 22.1316 21.207 22.3093 21.207 22.532C21.207 22.7351 21.293 22.9089 21.4648 23.0535C21.6836 23.2371 22.2148 23.4285 23.0586 23.6277C23.9023 23.8269 24.5254 24.0339 24.9277 24.2488C25.334 24.4597 25.6504 24.7507 25.877 25.1218C26.1074 25.489 26.2227 25.9441 26.2227 26.4871C26.2227 26.9792 26.0859 27.4402 25.8125 27.8699C25.5391 28.2996 25.1523 28.6199 24.6523 28.8308C24.1523 29.0378 23.5293 29.1414 22.7832 29.1414C21.6973 29.1414 20.8633 28.8914 20.2812 28.3914C19.6992 27.8875 19.3516 27.155 19.2383 26.1941ZM27.2422 26.1941L28.9297 26.03C29.0312 26.5964 29.2363 27.0125 29.5449 27.2781C29.8574 27.5437 30.2773 27.6765 30.8047 27.6765C31.3633 27.6765 31.7832 27.5593 32.0645 27.325C32.3496 27.0867 32.4922 26.8093 32.4922 26.4929C32.4922 26.2898 32.4316 26.1179 32.3105 25.9773C32.1934 25.8328 31.9863 25.7078 31.6895 25.6023C31.4863 25.532 31.0234 25.407 30.3008 25.2273C29.3711 24.9968 28.7188 24.7136 28.3438 24.3777C27.8164 23.905 27.5527 23.3289 27.5527 22.6492C27.5527 22.2117 27.6758 21.8035 27.9219 21.4246C28.1719 21.0417 28.5293 20.7507 28.9941 20.5515C29.4629 20.3523 30.0273 20.2527 30.6875 20.2527C31.7656 20.2527 32.5762 20.489 33.1191 20.9617C33.666 21.4343 33.9531 22.0652 33.9805 22.8542L32.2461 22.9304C32.1719 22.489 32.0117 22.1726 31.7656 21.9812C31.5234 21.7859 31.1582 21.6882 30.6699 21.6882C30.166 21.6882 29.7715 21.7917 29.4863 21.9988C29.3027 22.1316 29.2109 22.3093 29.2109 22.532C29.2109 22.7351 29.2969 22.9089 29.4688 23.0535C29.6875 23.2371 30.2188 23.4285 31.0625 23.6277C31.9062 23.8269 32.5293 24.0339 32.9316 24.2488C33.3379 24.4597 33.6543 24.7507 33.8809 25.1218C34.1113 25.489 34.2266 25.9441 34.2266 26.4871C34.2266 26.9792 34.0898 27.4402 33.8164 27.8699C33.543 28.2996 33.1562 28.6199 32.6562 28.8308C32.1562 29.0378 31.5332 29.1414 30.7871 29.1414C29.7012 29.1414 28.8672 28.8914 28.2852 28.3914C27.7031 27.8875 27.3555 27.155 27.2422 26.1941ZM35.6328 28.989V20.3992H37.3672V28.989H35.6328ZM38.6738 24.7468C38.6738 23.8718 38.8047 23.1375 39.0664 22.5437C39.2617 22.1062 39.5273 21.7136 39.8633 21.366C40.2031 21.0183 40.5742 20.7605 40.9766 20.5925C41.5117 20.366 42.1289 20.2527 42.8281 20.2527C44.0938 20.2527 45.1055 20.6453 45.8633 21.4304C46.625 22.2156 47.0059 23.3074 47.0059 24.7058C47.0059 26.0925 46.6289 27.1785 45.875 27.9636C45.1211 28.7449 44.1133 29.1355 42.8516 29.1355C41.5742 29.1355 40.5586 28.7468 39.8047 27.9695C39.0508 27.1882 38.6738 26.114 38.6738 24.7468ZM40.4609 24.6882C40.4609 25.6609 40.6855 26.3992 41.1348 26.9031C41.584 27.4031 42.1543 27.6531 42.8457 27.6531C43.5371 27.6531 44.1035 27.405 44.5449 26.9089C44.9902 26.4089 45.2129 25.6609 45.2129 24.6648C45.2129 23.6804 44.9961 22.946 44.5625 22.4617C44.1328 21.9773 43.5605 21.7351 42.8457 21.7351C42.1309 21.7351 41.5547 21.9812 41.1172 22.4734C40.6797 22.9617 40.4609 23.7 40.4609 24.6882ZM48.3828 28.989V20.3992H50.0703L53.5859 26.1355V20.3992H55.1973V28.989H53.457L49.9941 23.3875V28.989H48.3828ZM60.377 28.989V20.3992H63.1602C64.2148 20.3992 64.9023 20.4421 65.2227 20.5281C65.7148 20.657 66.127 20.9382 66.459 21.3718C66.791 21.8015 66.957 22.3582 66.957 23.0417C66.957 23.5691 66.8613 24.0125 66.6699 24.3718C66.4785 24.7312 66.2344 25.0144 65.9375 25.2214C65.6445 25.4246 65.3457 25.5593 65.041 25.6257C64.627 25.7078 64.0273 25.7488 63.2422 25.7488H62.1113V28.989H60.377ZM62.1113 21.8523V24.2898H63.0605C63.7441 24.2898 64.2012 24.2449 64.4316 24.155C64.6621 24.0652 64.8418 23.9246 64.9707 23.7332C65.1035 23.5417 65.1699 23.3191 65.1699 23.0652C65.1699 22.7527 65.0781 22.4949 64.8945 22.2917C64.7109 22.0886 64.4785 21.9617 64.1973 21.9109C63.9902 21.8718 63.5742 21.8523 62.9492 21.8523H62.1113ZM68.3867 28.989V20.3992H72.0371C72.9551 20.3992 73.6211 20.4773 74.0352 20.6335C74.4531 20.7859 74.7871 21.0593 75.0371 21.4539C75.2871 21.8484 75.4121 22.2996 75.4121 22.8074C75.4121 23.4519 75.2227 23.9851 74.8438 24.407C74.4648 24.825 73.8984 25.0886 73.1445 25.198C73.5195 25.4167 73.8281 25.657 74.0703 25.9187C74.3164 26.1804 74.6465 26.6453 75.0605 27.3132L76.1094 28.989H74.0352L72.7812 27.1199C72.3359 26.4519 72.0312 26.032 71.8672 25.8601C71.7031 25.6843 71.5293 25.5652 71.3457 25.5027C71.1621 25.4363 70.8711 25.4031 70.4727 25.4031H70.1211V28.989H68.3867ZM70.1211 24.032H71.4043C72.2363 24.032 72.7559 23.9968 72.9629 23.9265C73.1699 23.8562 73.332 23.7351 73.4492 23.5632C73.5664 23.3914 73.625 23.1765 73.625 22.9187C73.625 22.6296 73.5469 22.3972 73.3906 22.2214C73.2383 22.0417 73.0215 21.9285 72.7402 21.8816C72.5996 21.8621 72.1777 21.8523 71.4746 21.8523H70.1211V24.032ZM76.7012 24.7468C76.7012 23.8718 76.832 23.1375 77.0938 22.5437C77.2891 22.1062 77.5547 21.7136 77.8906 21.366C78.2305 21.0183 78.6016 20.7605 79.0039 20.5925C79.5391 20.366 80.1562 20.2527 80.8555 20.2527C82.1211 20.2527 83.1328 20.6453 83.8906 21.4304C84.6523 22.2156 85.0332 23.3074 85.0332 24.7058C85.0332 26.0925 84.6562 27.1785 83.9023 27.9636C83.1484 28.7449 82.1406 29.1355 80.8789 29.1355C79.6016 29.1355 78.5859 28.7468 77.832 27.9695C77.0781 27.1882 76.7012 26.114 76.7012 24.7468ZM78.4883 24.6882C78.4883 25.6609 78.7129 26.3992 79.1621 26.9031C79.6113 27.4031 80.1816 27.6531 80.873 27.6531C81.5645 27.6531 82.1309 27.405 82.5723 26.9089C83.0176 26.4089 83.2402 25.6609 83.2402 24.6648C83.2402 23.6804 83.0234 22.946 82.5898 22.4617C82.1602 21.9773 81.5879 21.7351 80.873 21.7351C80.1582 21.7351 79.582 21.9812 79.1445 22.4734C78.707 22.9617 78.4883 23.7 78.4883 24.6882ZM88.3262 28.989V21.8523H85.7773V20.3992H92.6035V21.8523H90.0605V28.989H88.3262ZM93.7285 28.989V20.3992H100.098V21.8523H95.4629V23.7566H99.7754V25.2039H95.4629V27.5417H100.262V28.989H93.7285ZM101.68 28.989V20.3992H103.414V28.989H101.68ZM105.09 28.989V20.3992H106.777L110.293 26.1355V20.3992H111.904V28.989H110.164L106.701 23.3875V28.989H105.09Z" fill="white"/>
<defs>
<linearGradient id="paint0_linear_64_1824" x1="60.5" y1="1.98901" x2="60.5" y2="33.989" gradientUnits="userSpaceOnUse">
<stop stop-color="#AD342D"/>
<stop offset="1" stop-color="#06A2B2"/>
</linearGradient>
</defs>
</svg>
