<svg width="59" height="24" viewBox="0 0 59 24" fill="none" xmlns="http://www.w3.org/2000/svg">
<rect x="2" y="1.98901" width="56" height="20" rx="10" fill="url(#paint0_linear_67_1928)"/>
<rect x="2" y="1.98901" width="56" height="20" rx="10" stroke="#83D8D1" stroke-width="3" stroke-linejoin="round"/>
<path d="M9.75 13.1941L11.4375 13.03C11.5391 13.5964 11.7441 14.0125 12.0527 14.2781C12.3652 14.5437 12.7852 14.6765 13.3125 14.6765C13.8711 14.6765 14.291 14.5593 14.5723 14.325C14.8574 14.0867 15 13.8093 15 13.4929C15 13.2898 14.9395 13.1179 14.8184 12.9773C14.7012 12.8328 14.4941 12.7078 14.1973 12.6023C13.9941 12.532 13.5312 12.407 12.8086 12.2273C11.8789 11.9968 11.2266 11.7136 10.8516 11.3777C10.3242 10.905 10.0605 10.3289 10.0605 9.64917C10.0605 9.21167 10.1836 8.80347 10.4297 8.42456C10.6797 8.04175 11.0371 7.75073 11.502 7.55151C11.9707 7.35229 12.5352 7.25269 13.1953 7.25269C14.2734 7.25269 15.084 7.48901 15.627 7.96167C16.1738 8.43433 16.4609 9.06519 16.4883 9.85425L14.7539 9.93042C14.6797 9.48901 14.5195 9.17261 14.2734 8.9812C14.0312 8.78589 13.666 8.68823 13.1777 8.68823C12.6738 8.68823 12.2793 8.79175 11.9941 8.99878C11.8105 9.13159 11.7188 9.30933 11.7188 9.53198C11.7188 9.73511 11.8047 9.90894 11.9766 10.0535C12.1953 10.2371 12.7266 10.4285 13.5703 10.6277C14.4141 10.8269 15.0371 11.0339 15.4395 11.2488C15.8457 11.4597 16.1621 11.7507 16.3887 12.1218C16.6191 12.489 16.7344 12.9441 16.7344 13.4871C16.7344 13.9792 16.5977 14.4402 16.3242 14.8699C16.0508 15.2996 15.6641 15.6199 15.1641 15.8308C14.6641 16.0378 14.041 16.1414 13.2949 16.1414C12.209 16.1414 11.375 15.8914 10.793 15.3914C10.2109 14.8875 9.86328 14.155 9.75 13.1941ZM18.1992 15.989V7.39917H19.9336V10.78H23.332V7.39917H25.0664V15.989H23.332V12.2332H19.9336V15.989H18.1992ZM26.5137 11.7468C26.5137 10.8718 26.6445 10.1375 26.9062 9.5437C27.1016 9.1062 27.3672 8.71362 27.7031 8.36597C28.043 8.01831 28.4141 7.7605 28.8164 7.59253C29.3516 7.36597 29.9688 7.25269 30.668 7.25269C31.9336 7.25269 32.9453 7.64526 33.7031 8.43042C34.4648 9.21558 34.8457 10.3074 34.8457 11.7058C34.8457 13.0925 34.4688 14.1785 33.7148 14.9636C32.9609 15.7449 31.9531 16.1355 30.6914 16.1355C29.4141 16.1355 28.3984 15.7468 27.6445 14.9695C26.8906 14.1882 26.5137 13.114 26.5137 11.7468ZM28.3008 11.6882C28.3008 12.6609 28.5254 13.3992 28.9746 13.9031C29.4238 14.4031 29.9941 14.6531 30.6855 14.6531C31.377 14.6531 31.9434 14.405 32.3848 13.9089C32.8301 13.4089 33.0527 12.6609 33.0527 11.6648C33.0527 10.6804 32.8359 9.94604 32.4023 9.46167C31.9727 8.97729 31.4004 8.73511 30.6855 8.73511C29.9707 8.73511 29.3945 8.9812 28.957 9.47339C28.5195 9.96167 28.3008 10.7 28.3008 11.6882ZM41.7012 12.8308L43.3828 13.364C43.125 14.3015 42.6953 14.9988 42.0938 15.4558C41.4961 15.9089 40.7363 16.1355 39.8145 16.1355C38.6738 16.1355 37.7363 15.7468 37.002 14.9695C36.2676 14.1882 35.9004 13.1218 35.9004 11.7703C35.9004 10.3406 36.2695 9.2312 37.0078 8.44214C37.7461 7.64917 38.7168 7.25269 39.9199 7.25269C40.9707 7.25269 41.8242 7.56323 42.4805 8.18433C42.8711 8.55151 43.1641 9.07886 43.3594 9.76636L41.6426 10.1765C41.541 9.7312 41.3281 9.37964 41.0039 9.12183C40.6836 8.86401 40.293 8.73511 39.832 8.73511C39.1953 8.73511 38.6777 8.96362 38.2793 9.42065C37.8848 9.87769 37.6875 10.6179 37.6875 11.6414C37.6875 12.7273 37.8828 13.5007 38.2734 13.9617C38.6641 14.4226 39.1719 14.6531 39.7969 14.6531C40.2578 14.6531 40.6543 14.5066 40.9863 14.2136C41.3184 13.9207 41.5566 13.4597 41.7012 12.8308ZM50.0742 14.4597V15.989H44.3027C44.3652 15.4109 44.5527 14.864 44.8652 14.3484C45.1777 13.8289 45.7949 13.1414 46.7168 12.2859C47.459 11.5945 47.9141 11.1257 48.082 10.8796C48.3086 10.5398 48.4219 10.2039 48.4219 9.87183C48.4219 9.50464 48.3223 9.22339 48.123 9.02808C47.9277 8.82886 47.6562 8.72925 47.3086 8.72925C46.9648 8.72925 46.6914 8.83276 46.4883 9.03979C46.2852 9.24683 46.168 9.59058 46.1367 10.071L44.4961 9.90698C44.5938 9.00073 44.9004 8.35034 45.416 7.95581C45.9316 7.56128 46.5762 7.36401 47.3496 7.36401C48.1973 7.36401 48.8633 7.59253 49.3477 8.04956C49.832 8.50659 50.0742 9.07495 50.0742 9.75464C50.0742 10.1414 50.0039 10.5105 49.8633 10.8621C49.7266 11.2097 49.5078 11.575 49.207 11.9578C49.0078 12.2117 48.6484 12.5769 48.1289 13.0535C47.6094 13.53 47.2793 13.8464 47.1387 14.0027C47.002 14.1589 46.8906 14.3113 46.8047 14.4597H50.0742Z" fill="white"/>
<defs>
<linearGradient id="paint0_linear_67_1928" x1="30" y1="1.98901" x2="30" y2="21.989" gradientUnits="userSpaceOnUse">
<stop stop-color="#83D8D1"/>
<stop offset="1" stop-color="#214CFF"/>
</linearGradient>
</defs>
</svg>
