<svg width="76" height="24" viewBox="0 0 76 24" fill="none" xmlns="http://www.w3.org/2000/svg">
<rect x="1" y="1.98901" width="74" height="20" rx="10" fill="url(#paint0_linear_64_1873)"/>
<rect x="1" y="1.98901" width="74" height="20" rx="10" stroke="#2C9B0C" stroke-width="3" stroke-linejoin="round"/>
<path d="M9.20117 15.989V7.39917H10.8887L14.4043 13.1355V7.39917H16.0156V15.989H14.2754L10.8125 10.3875V15.989H9.20117ZM17.8555 15.989V7.39917H24.2246V8.85229H19.5898V10.7566H23.9023V12.2039H19.5898V14.5417H24.3887V15.989H17.8555ZM25.8477 7.39917H27.582V12.0515C27.582 12.7898 27.6035 13.2683 27.6465 13.4871C27.7207 13.8386 27.8965 14.1218 28.1738 14.3367C28.4551 14.5476 28.8379 14.6531 29.3223 14.6531C29.8145 14.6531 30.1855 14.5535 30.4355 14.3542C30.6855 14.1511 30.8359 13.9031 30.8867 13.6101C30.9375 13.3171 30.9629 12.8308 30.9629 12.1511V7.39917H32.6973V11.9109C32.6973 12.9421 32.6504 13.6707 32.5566 14.0964C32.4629 14.5222 32.2891 14.8816 32.0352 15.1746C31.7852 15.4675 31.4492 15.7019 31.0273 15.8777C30.6055 16.0496 30.0547 16.1355 29.375 16.1355C28.5547 16.1355 27.9316 16.0417 27.5059 15.8542C27.084 15.6628 26.75 15.4167 26.5039 15.116C26.2578 14.8113 26.0957 14.4929 26.0176 14.1609C25.9043 13.6687 25.8477 12.9421 25.8477 11.9812V7.39917ZM34.5371 15.989V7.39917H38.1875C39.1055 7.39917 39.7715 7.47729 40.1855 7.63354C40.6035 7.78589 40.9375 8.05933 41.1875 8.45386C41.4375 8.84839 41.5625 9.29956 41.5625 9.80737C41.5625 10.4519 41.373 10.9851 40.9941 11.407C40.6152 11.825 40.0488 12.0886 39.2949 12.198C39.6699 12.4167 39.9785 12.657 40.2207 12.9187C40.4668 13.1804 40.7969 13.6453 41.2109 14.3132L42.2598 15.989H40.1855L38.9316 14.1199C38.4863 13.4519 38.1816 13.032 38.0176 12.8601C37.8535 12.6843 37.6797 12.5652 37.4961 12.5027C37.3125 12.4363 37.0215 12.4031 36.623 12.4031H36.2715V15.989H34.5371ZM36.2715 11.032H37.5547C38.3867 11.032 38.9062 10.9968 39.1133 10.9265C39.3203 10.8562 39.4824 10.7351 39.5996 10.5632C39.7168 10.3914 39.7754 10.1765 39.7754 9.9187C39.7754 9.62964 39.6973 9.39722 39.541 9.22144C39.3887 9.04175 39.1719 8.92847 38.8906 8.88159C38.75 8.86206 38.3281 8.85229 37.625 8.85229H36.2715V11.032ZM42.8516 11.7468C42.8516 10.8718 42.9824 10.1375 43.2441 9.5437C43.4395 9.1062 43.7051 8.71362 44.041 8.36597C44.3809 8.01831 44.752 7.7605 45.1543 7.59253C45.6895 7.36597 46.3066 7.25269 47.0059 7.25269C48.2715 7.25269 49.2832 7.64526 50.041 8.43042C50.8027 9.21558 51.1836 10.3074 51.1836 11.7058C51.1836 13.0925 50.8066 14.1785 50.0527 14.9636C49.2988 15.7449 48.291 16.1355 47.0293 16.1355C45.752 16.1355 44.7363 15.7468 43.9824 14.9695C43.2285 14.1882 42.8516 13.114 42.8516 11.7468ZM44.6387 11.6882C44.6387 12.6609 44.8633 13.3992 45.3125 13.9031C45.7617 14.4031 46.332 14.6531 47.0234 14.6531C47.7148 14.6531 48.2812 14.405 48.7227 13.9089C49.168 13.4089 49.3906 12.6609 49.3906 11.6648C49.3906 10.6804 49.1738 9.94604 48.7402 9.46167C48.3105 8.97729 47.7383 8.73511 47.0234 8.73511C46.3086 8.73511 45.7324 8.9812 45.2949 9.47339C44.8574 9.96167 44.6387 10.7 44.6387 11.6882ZM56.5391 12.8308V11.3835H60.2773V14.8054C59.9141 15.157 59.3867 15.4675 58.6953 15.7371C58.0078 16.0027 57.3105 16.1355 56.6035 16.1355C55.7051 16.1355 54.9219 15.948 54.2539 15.573C53.5859 15.1941 53.084 14.655 52.748 13.9558C52.4121 13.2527 52.2441 12.489 52.2441 11.6648C52.2441 10.7703 52.4316 9.97534 52.8066 9.28003C53.1816 8.58472 53.7305 8.05151 54.4531 7.68042C55.0039 7.39526 55.6895 7.25269 56.5098 7.25269C57.5762 7.25269 58.4082 7.47729 59.0059 7.92651C59.6074 8.37183 59.9941 8.98901 60.166 9.77808L58.4434 10.1003C58.3223 9.67847 58.0938 9.34644 57.7578 9.10425C57.4258 8.85815 57.0098 8.73511 56.5098 8.73511C55.752 8.73511 55.1484 8.97534 54.6992 9.45581C54.2539 9.93628 54.0312 10.6492 54.0312 11.5945C54.0312 12.614 54.2578 13.3796 54.7109 13.8914C55.1641 14.3992 55.7578 14.6531 56.4922 14.6531C56.8555 14.6531 57.2188 14.5828 57.582 14.4421C57.9492 14.2976 58.2637 14.1238 58.5254 13.9207V12.8308H56.5391ZM61.4609 13.7097L63.0547 13.5164C63.1055 13.9226 63.2422 14.2332 63.4648 14.448C63.6875 14.6628 63.957 14.7703 64.2734 14.7703C64.6133 14.7703 64.8984 14.6414 65.1289 14.3835C65.3633 14.1257 65.4805 13.7781 65.4805 13.3406C65.4805 12.9265 65.3691 12.5984 65.1465 12.3562C64.9238 12.114 64.6523 11.9929 64.332 11.9929C64.1211 11.9929 63.8691 12.0339 63.5762 12.116L63.7578 10.7742C64.2031 10.7859 64.543 10.6902 64.7773 10.4871C65.0117 10.28 65.1289 10.0066 65.1289 9.66675C65.1289 9.37769 65.043 9.14722 64.8711 8.97534C64.6992 8.80347 64.4707 8.71753 64.1855 8.71753C63.9043 8.71753 63.6641 8.81519 63.4648 9.0105C63.2656 9.20581 63.1445 9.49097 63.1016 9.86597L61.584 9.60815C61.6895 9.08862 61.8477 8.67456 62.0586 8.36597C62.2734 8.05347 62.5703 7.80933 62.9492 7.63354C63.332 7.45386 63.7598 7.36401 64.2324 7.36401C65.041 7.36401 65.6895 7.62183 66.1777 8.13745C66.5801 8.55933 66.7812 9.03589 66.7812 9.56714C66.7812 10.321 66.3691 10.9226 65.5449 11.3718C66.0371 11.4773 66.4297 11.7136 66.7227 12.0808C67.0195 12.448 67.168 12.8914 67.168 13.4109C67.168 14.1648 66.8926 14.8074 66.3418 15.3386C65.791 15.8699 65.1055 16.1355 64.2852 16.1355C63.5078 16.1355 62.8633 15.9128 62.3516 15.4675C61.8398 15.0183 61.543 14.4324 61.4609 13.7097Z" fill="white"/>
<defs>
<linearGradient id="paint0_linear_64_1873" x1="38" y1="1.98901" x2="38" y2="21.989" gradientUnits="userSpaceOnUse">
<stop stop-color="#2C9B0C"/>
<stop offset="1" stop-color="#5391C3"/>
</linearGradient>
</defs>
</svg>
