<svg width="63" height="24" viewBox="0 0 63 24" fill="none" xmlns="http://www.w3.org/2000/svg">
<rect x="2" y="1.98901" width="60" height="20" rx="10" fill="url(#paint0_linear_67_1804)"/>
<rect x="2" y="1.98901" width="60" height="20" rx="10" stroke="#FF4800" stroke-width="3" stroke-linejoin="round"/>
<path d="M10.1855 15.989V7.39917H12.9688C14.0234 7.39917 14.7109 7.44214 15.0312 7.52808C15.5234 7.65698 15.9355 7.93823 16.2676 8.37183C16.5996 8.80151 16.7656 9.35815 16.7656 10.0417C16.7656 10.5691 16.6699 11.0125 16.4785 11.3718C16.2871 11.7312 16.043 12.0144 15.7461 12.2214C15.4531 12.4246 15.1543 12.5593 14.8496 12.6257C14.4355 12.7078 13.8359 12.7488 13.0508 12.7488H11.9199V15.989H10.1855ZM11.9199 8.85229V11.2898H12.8691C13.5527 11.2898 14.0098 11.2449 14.2402 11.155C14.4707 11.0652 14.6504 10.9246 14.7793 10.7332C14.9121 10.5417 14.9785 10.3191 14.9785 10.0652C14.9785 9.75269 14.8867 9.49487 14.7031 9.29175C14.5195 9.08862 14.2871 8.96167 14.0059 8.91089C13.7988 8.87183 13.3828 8.85229 12.7578 8.85229H11.9199ZM20.123 15.989V8.85229H17.5742V7.39917H24.4004V8.85229H21.8574V15.989H20.123ZM25.5254 15.989V7.39917H28.3086C29.3633 7.39917 30.0508 7.44214 30.3711 7.52808C30.8633 7.65698 31.2754 7.93823 31.6074 8.37183C31.9395 8.80151 32.1055 9.35815 32.1055 10.0417C32.1055 10.5691 32.0098 11.0125 31.8184 11.3718C31.627 11.7312 31.3828 12.0144 31.0859 12.2214C30.793 12.4246 30.4941 12.5593 30.1895 12.6257C29.7754 12.7078 29.1758 12.7488 28.3906 12.7488H27.2598V15.989H25.5254ZM27.2598 8.85229V11.2898H28.209C28.8926 11.2898 29.3496 11.2449 29.5801 11.155C29.8105 11.0652 29.9902 10.9246 30.1191 10.7332C30.252 10.5417 30.3184 10.3191 30.3184 10.0652C30.3184 9.75269 30.2266 9.49487 30.043 9.29175C29.8594 9.08862 29.627 8.96167 29.3457 8.91089C29.1387 8.87183 28.7227 8.85229 28.0977 8.85229H27.2598ZM33.5469 15.989V7.39917H35.2344L38.75 13.1355V7.39917H40.3613V15.989H38.6211L35.1582 10.3875V15.989H33.5469ZM47.3984 14.4597V15.989H41.627C41.6895 15.4109 41.877 14.864 42.1895 14.3484C42.502 13.8289 43.1191 13.1414 44.041 12.2859C44.7832 11.5945 45.2383 11.1257 45.4062 10.8796C45.6328 10.5398 45.7461 10.2039 45.7461 9.87183C45.7461 9.50464 45.6465 9.22339 45.4473 9.02808C45.252 8.82886 44.9805 8.72925 44.6328 8.72925C44.2891 8.72925 44.0156 8.83276 43.8125 9.03979C43.6094 9.24683 43.4922 9.59058 43.4609 10.071L41.8203 9.90698C41.918 9.00073 42.2246 8.35034 42.7402 7.95581C43.2559 7.56128 43.9004 7.36401 44.6738 7.36401C45.5215 7.36401 46.1875 7.59253 46.6719 8.04956C47.1562 8.50659 47.3984 9.07495 47.3984 9.75464C47.3984 10.1414 47.3281 10.5105 47.1875 10.8621C47.0508 11.2097 46.832 11.575 46.5312 11.9578C46.332 12.2117 45.9727 12.5769 45.4531 13.0535C44.9336 13.53 44.6035 13.8464 44.4629 14.0027C44.3262 14.1589 44.2148 14.3113 44.1289 14.4597H47.3984ZM54.0781 14.4597V15.989H48.3066C48.3691 15.4109 48.5566 14.864 48.8691 14.3484C49.1816 13.8289 49.7988 13.1414 50.7207 12.2859C51.4629 11.5945 51.918 11.1257 52.0859 10.8796C52.3125 10.5398 52.4258 10.2039 52.4258 9.87183C52.4258 9.50464 52.3262 9.22339 52.127 9.02808C51.9316 8.82886 51.6602 8.72925 51.3125 8.72925C50.9688 8.72925 50.6953 8.83276 50.4922 9.03979C50.2891 9.24683 50.1719 9.59058 50.1406 10.071L48.5 9.90698C48.5977 9.00073 48.9043 8.35034 49.4199 7.95581C49.9355 7.56128 50.5801 7.36401 51.3535 7.36401C52.2012 7.36401 52.8672 7.59253 53.3516 8.04956C53.8359 8.50659 54.0781 9.07495 54.0781 9.75464C54.0781 10.1414 54.0078 10.5105 53.8672 10.8621C53.7305 11.2097 53.5117 11.575 53.2109 11.9578C53.0117 12.2117 52.6523 12.5769 52.1328 13.0535C51.6133 13.53 51.2832 13.8464 51.1426 14.0027C51.0059 14.1589 50.8945 14.3113 50.8086 14.4597H54.0781Z" fill="white"/>
<defs>
<linearGradient id="paint0_linear_67_1804" x1="32" y1="1.98901" x2="32" y2="21.989" gradientUnits="userSpaceOnUse">
<stop stop-color="#FF4800"/>
<stop offset="1" stop-color="#0081FF"/>
</linearGradient>
</defs>
</svg>
