<svg width="78" height="36" viewBox="0 0 78 36" fill="none" xmlns="http://www.w3.org/2000/svg">
<rect x="2" y="1.98901" width="75" height="32" rx="10" fill="url(#paint0_linear_64_1948)"/>
<rect x="2" y="1.98901" width="75" height="32" rx="10" stroke="#21004A" stroke-width="3" stroke-linejoin="round"/>
<path d="M9.95117 11.7898C9.95117 11.2429 10.0859 10.7136 10.3555 10.2019C10.625 9.69019 11.0059 9.29956 11.498 9.03003C11.9941 8.7605 12.5469 8.62573 13.1562 8.62573C14.0977 8.62573 14.8691 8.93237 15.4707 9.54565C16.0723 10.155 16.373 10.9265 16.373 11.8601C16.373 12.8015 16.0684 13.5828 15.459 14.2039C14.8535 14.821 14.0898 15.1296 13.168 15.1296C12.5977 15.1296 12.0527 15.0007 11.5332 14.7429C11.0176 14.4851 10.625 14.1082 10.3555 13.6121C10.0859 13.1121 9.95117 12.5046 9.95117 11.7898ZM11.6387 11.8777C11.6387 12.4949 11.7852 12.9675 12.0781 13.2957C12.3711 13.6238 12.7324 13.7878 13.1621 13.7878C13.5918 13.7878 13.9512 13.6238 14.2402 13.2957C14.5332 12.9675 14.6797 12.491 14.6797 11.866C14.6797 11.2566 14.5332 10.7878 14.2402 10.4597C13.9512 10.1316 13.5918 9.96753 13.1621 9.96753C12.7324 9.96753 12.3711 10.1316 12.0781 10.4597C11.7852 10.7878 11.6387 11.2605 11.6387 11.8777ZM23.3281 14.989H21.6816V11.8132C21.6816 11.1414 21.6465 10.7078 21.5762 10.5125C21.5059 10.3132 21.3906 10.1589 21.2305 10.0496C21.0742 9.94019 20.8848 9.8855 20.6621 9.8855C20.377 9.8855 20.1211 9.96362 19.8945 10.1199C19.668 10.2761 19.5117 10.4832 19.4258 10.741C19.3438 10.9988 19.3027 11.4753 19.3027 12.1707V14.989H17.6562V8.76636H19.1855V9.68042C19.7285 8.97729 20.4121 8.62573 21.2363 8.62573C21.5996 8.62573 21.9316 8.69214 22.2324 8.82495C22.5332 8.95386 22.7598 9.11987 22.9121 9.323C23.0684 9.52612 23.1758 9.75659 23.2344 10.0144C23.2969 10.2722 23.3281 10.6414 23.3281 11.1218V14.989ZM30.4297 10.6062L28.8066 10.8992C28.752 10.575 28.627 10.3308 28.4316 10.1667C28.2402 10.0027 27.9902 9.92065 27.6816 9.92065C27.2715 9.92065 26.9434 10.0632 26.6973 10.3484C26.4551 10.6296 26.334 11.1023 26.334 11.7664C26.334 12.5046 26.457 13.0261 26.7031 13.3308C26.9531 13.6355 27.2871 13.7878 27.7051 13.7878C28.0176 13.7878 28.2734 13.7 28.4727 13.5242C28.6719 13.3445 28.8125 13.0378 28.8945 12.6042L30.5117 12.8796C30.3438 13.6218 30.0215 14.1824 29.5449 14.5613C29.0684 14.9402 28.4297 15.1296 27.6289 15.1296C26.7188 15.1296 25.9922 14.8425 25.4492 14.2683C24.9102 13.6941 24.6406 12.8992 24.6406 11.8835C24.6406 10.8562 24.9121 10.0574 25.4551 9.48706C25.998 8.91284 26.7324 8.62573 27.6582 8.62573C28.416 8.62573 29.0176 8.78979 29.4629 9.11792C29.9121 9.44214 30.2344 9.93823 30.4297 10.6062ZM31.3027 11.7898C31.3027 11.2429 31.4375 10.7136 31.707 10.2019C31.9766 9.69019 32.3574 9.29956 32.8496 9.03003C33.3457 8.7605 33.8984 8.62573 34.5078 8.62573C35.4492 8.62573 36.2207 8.93237 36.8223 9.54565C37.4238 10.155 37.7246 10.9265 37.7246 11.8601C37.7246 12.8015 37.4199 13.5828 36.8105 14.2039C36.2051 14.821 35.4414 15.1296 34.5195 15.1296C33.9492 15.1296 33.4043 15.0007 32.8848 14.7429C32.3691 14.4851 31.9766 14.1082 31.707 13.6121C31.4375 13.1121 31.3027 12.5046 31.3027 11.7898ZM32.9902 11.8777C32.9902 12.4949 33.1367 12.9675 33.4297 13.2957C33.7227 13.6238 34.084 13.7878 34.5137 13.7878C34.9434 13.7878 35.3027 13.6238 35.5918 13.2957C35.8848 12.9675 36.0312 12.491 36.0312 11.866C36.0312 11.2566 35.8848 10.7878 35.5918 10.4597C35.3027 10.1316 34.9434 9.96753 34.5137 9.96753C34.084 9.96753 33.7227 10.1316 33.4297 10.4597C33.1367 10.7878 32.9902 11.2605 32.9902 11.8777ZM38.8672 15.3992L40.748 15.6277C40.7793 15.8464 40.8516 15.9968 40.9648 16.0789C41.1211 16.196 41.3672 16.2546 41.7031 16.2546C42.1328 16.2546 42.4551 16.1902 42.6699 16.0613C42.8145 15.9753 42.9238 15.8367 42.998 15.6453C43.0488 15.5085 43.0742 15.2566 43.0742 14.8894V13.9812C42.582 14.6531 41.9609 14.989 41.2109 14.989C40.375 14.989 39.7129 14.6355 39.2246 13.9285C38.8418 13.3699 38.6504 12.6746 38.6504 11.8425C38.6504 10.7996 38.9004 10.0027 39.4004 9.4519C39.9043 8.90112 40.5293 8.62573 41.2754 8.62573C42.0449 8.62573 42.6797 8.96362 43.1797 9.6394V8.76636H44.7207V14.3503C44.7207 15.0847 44.6602 15.6335 44.5391 15.9968C44.418 16.3601 44.248 16.6453 44.0293 16.8523C43.8105 17.0593 43.5176 17.2214 43.1504 17.3386C42.7871 17.4558 42.3262 17.5144 41.7676 17.5144C40.7129 17.5144 39.9648 17.3328 39.5234 16.9695C39.082 16.6101 38.8613 16.1531 38.8613 15.5984C38.8613 15.5437 38.8633 15.4773 38.8672 15.3992ZM40.3379 11.7488C40.3379 12.4089 40.4648 12.8933 40.7188 13.2019C40.9766 13.5066 41.293 13.6589 41.668 13.6589C42.0703 13.6589 42.4102 13.5027 42.6875 13.1902C42.9648 12.8738 43.1035 12.407 43.1035 11.7898C43.1035 11.1453 42.9707 10.6667 42.7051 10.3542C42.4395 10.0417 42.1035 9.8855 41.6973 9.8855C41.3027 9.8855 40.9766 10.0398 40.7188 10.3484C40.4648 10.6531 40.3379 11.1199 40.3379 11.7488ZM49.959 13.0085L51.5996 13.2839C51.3887 13.8855 51.0547 14.3445 50.5977 14.6609C50.1445 14.9734 49.5762 15.1296 48.8926 15.1296C47.8105 15.1296 47.0098 14.7761 46.4902 14.0691C46.0801 13.5027 45.875 12.7878 45.875 11.9246C45.875 10.8933 46.1445 10.0867 46.6836 9.50464C47.2227 8.9187 47.9043 8.62573 48.7285 8.62573C49.6543 8.62573 50.3848 8.93237 50.9199 9.54565C51.4551 10.155 51.7109 11.0906 51.6875 12.3523H47.5625C47.5742 12.8406 47.707 13.2214 47.9609 13.4949C48.2148 13.7644 48.5312 13.8992 48.9102 13.8992C49.168 13.8992 49.3848 13.8289 49.5605 13.6882C49.7363 13.5476 49.8691 13.321 49.959 13.0085ZM50.0527 11.3445C50.041 10.8679 49.918 10.5066 49.6836 10.2605C49.4492 10.0105 49.1641 9.8855 48.8281 9.8855C48.4688 9.8855 48.1719 10.0164 47.9375 10.2781C47.7031 10.5398 47.5879 10.8953 47.5918 11.3445H50.0527ZM58.6953 14.989H57.0488V11.8132C57.0488 11.1414 57.0137 10.7078 56.9434 10.5125C56.873 10.3132 56.7578 10.1589 56.5977 10.0496C56.4414 9.94019 56.252 9.8855 56.0293 9.8855C55.7441 9.8855 55.4883 9.96362 55.2617 10.1199C55.0352 10.2761 54.8789 10.4832 54.793 10.741C54.7109 10.9988 54.6699 11.4753 54.6699 12.1707V14.989H53.0234V8.76636H54.5527V9.68042C55.0957 8.97729 55.7793 8.62573 56.6035 8.62573C56.9668 8.62573 57.2988 8.69214 57.5996 8.82495C57.9004 8.95386 58.127 9.11987 58.2793 9.323C58.4355 9.52612 58.543 9.75659 58.6016 10.0144C58.6641 10.2722 58.6953 10.6414 58.6953 11.1218V14.989ZM60.3711 7.92261V6.39917H62.0176V7.92261H60.3711ZM60.3711 14.989V8.76636H62.0176V14.989H60.3711ZM69.1367 10.6062L67.5137 10.8992C67.459 10.575 67.334 10.3308 67.1387 10.1667C66.9473 10.0027 66.6973 9.92065 66.3887 9.92065C65.9785 9.92065 65.6504 10.0632 65.4043 10.3484C65.1621 10.6296 65.041 11.1023 65.041 11.7664C65.041 12.5046 65.1641 13.0261 65.4102 13.3308C65.6602 13.6355 65.9941 13.7878 66.4121 13.7878C66.7246 13.7878 66.9805 13.7 67.1797 13.5242C67.3789 13.3445 67.5195 13.0378 67.6016 12.6042L69.2188 12.8796C69.0508 13.6218 68.7285 14.1824 68.252 14.5613C67.7754 14.9402 67.1367 15.1296 66.3359 15.1296C65.4258 15.1296 64.6992 14.8425 64.1562 14.2683C63.6172 13.6941 63.3477 12.8992 63.3477 11.8835C63.3477 10.8562 63.6191 10.0574 64.1621 9.48706C64.7051 8.91284 65.4395 8.62573 66.3652 8.62573C67.123 8.62573 67.7246 8.78979 68.1699 9.11792C68.6191 9.44214 68.9414 9.93823 69.1367 10.6062ZM27.7051 28.989V20.3992H31.3555C32.2734 20.3992 32.9395 20.4773 33.3535 20.6335C33.7715 20.7859 34.1055 21.0593 34.3555 21.4539C34.6055 21.8484 34.7305 22.2996 34.7305 22.8074C34.7305 23.4519 34.541 23.9851 34.1621 24.407C33.7832 24.825 33.2168 25.0886 32.4629 25.198C32.8379 25.4167 33.1465 25.657 33.3887 25.9187C33.6348 26.1804 33.9648 26.6453 34.3789 27.3132L35.4277 28.989H33.3535L32.0996 27.1199C31.6543 26.4519 31.3496 26.032 31.1855 25.8601C31.0215 25.6843 30.8477 25.5652 30.6641 25.5027C30.4805 25.4363 30.1895 25.4031 29.791 25.4031H29.4395V28.989H27.7051ZM29.4395 24.032H30.7227C31.5547 24.032 32.0742 23.9968 32.2812 23.9265C32.4883 23.8562 32.6504 23.7351 32.7676 23.5632C32.8848 23.3914 32.9434 23.1765 32.9434 22.9187C32.9434 22.6296 32.8652 22.3972 32.709 22.2214C32.5566 22.0417 32.3398 21.9285 32.0586 21.8816C31.918 21.8621 31.4961 21.8523 30.793 21.8523H29.4395V24.032ZM44.1172 28.989H42.2305L41.4805 27.0378H38.0469L37.3379 28.989H35.498L38.8438 20.3992H40.6777L44.1172 28.989ZM40.9238 25.5906L39.7402 22.4031L38.5801 25.5906H40.9238ZM44.6035 26.1941L46.291 26.03C46.3926 26.5964 46.5977 27.0125 46.9062 27.2781C47.2188 27.5437 47.6387 27.6765 48.166 27.6765C48.7246 27.6765 49.1445 27.5593 49.4258 27.325C49.7109 27.0867 49.8535 26.8093 49.8535 26.4929C49.8535 26.2898 49.793 26.1179 49.6719 25.9773C49.5547 25.8328 49.3477 25.7078 49.0508 25.6023C48.8477 25.532 48.3848 25.407 47.6621 25.2273C46.7324 24.9968 46.0801 24.7136 45.7051 24.3777C45.1777 23.905 44.9141 23.3289 44.9141 22.6492C44.9141 22.2117 45.0371 21.8035 45.2832 21.4246C45.5332 21.0417 45.8906 20.7507 46.3555 20.5515C46.8242 20.3523 47.3887 20.2527 48.0488 20.2527C49.127 20.2527 49.9375 20.489 50.4805 20.9617C51.0273 21.4343 51.3145 22.0652 51.3418 22.8542L49.6074 22.9304C49.5332 22.489 49.373 22.1726 49.127 21.9812C48.8848 21.7859 48.5195 21.6882 48.0312 21.6882C47.5273 21.6882 47.1328 21.7917 46.8477 21.9988C46.6641 22.1316 46.5723 22.3093 46.5723 22.532C46.5723 22.7351 46.6582 22.9089 46.8301 23.0535C47.0488 23.2371 47.5801 23.4285 48.4238 23.6277C49.2676 23.8269 49.8906 24.0339 50.293 24.2488C50.6992 24.4597 51.0156 24.7507 51.2422 25.1218C51.4727 25.489 51.5879 25.9441 51.5879 26.4871C51.5879 26.9792 51.4512 27.4402 51.1777 27.8699C50.9043 28.2996 50.5176 28.6199 50.0176 28.8308C49.5176 29.0378 48.8945 29.1414 48.1484 29.1414C47.0625 29.1414 46.2285 28.8914 45.6465 28.3914C45.0645 27.8875 44.7168 27.155 44.6035 26.1941Z" fill="white"/>
<defs>
<linearGradient id="paint0_linear_64_1948" x1="39.5" y1="1.98901" x2="39.5" y2="33.989" gradientUnits="userSpaceOnUse">
<stop stop-color="#21004A"/>
<stop offset="1" stop-color="#951C00"/>
</linearGradient>
</defs>
</svg>
