<svg width="60" height="24" viewBox="0 0 60 24" fill="none" xmlns="http://www.w3.org/2000/svg">
<rect x="2" y="1.98901" width="57" height="20" rx="10" fill="url(#paint0_linear_84_2025)"/>
<rect x="2" y="1.98901" width="57" height="20" rx="10" stroke="#061A21" stroke-width="3" stroke-linejoin="round"/>
<path d="M12.2949 15.989V8.85229H9.74609V7.39917H16.5723V8.85229H14.0293V15.989H12.2949ZM17.7031 15.989V7.39917H21.3535C22.2715 7.39917 22.9375 7.47729 23.3516 7.63354C23.7695 7.78589 24.1035 8.05933 24.3535 8.45386C24.6035 8.84839 24.7285 9.29956 24.7285 9.80737C24.7285 10.4519 24.5391 10.9851 24.1602 11.407C23.7812 11.825 23.2148 12.0886 22.4609 12.198C22.8359 12.4167 23.1445 12.657 23.3867 12.9187C23.6328 13.1804 23.9629 13.6453 24.377 14.3132L25.4258 15.989H23.3516L22.0977 14.1199C21.6523 13.4519 21.3477 13.032 21.1836 12.8601C21.0195 12.6843 20.8457 12.5652 20.6621 12.5027C20.4785 12.4363 20.1875 12.4031 19.7891 12.4031H19.4375V15.989H17.7031ZM19.4375 11.032H20.7207C21.5527 11.032 22.0723 10.9968 22.2793 10.9265C22.4863 10.8562 22.6484 10.7351 22.7656 10.5632C22.8828 10.3914 22.9414 10.1765 22.9414 9.9187C22.9414 9.62964 22.8633 9.39722 22.707 9.22144C22.5547 9.04175 22.3379 8.92847 22.0566 8.88159C21.916 8.86206 21.4941 8.85229 20.791 8.85229H19.4375V11.032ZM34.1152 15.989H32.2285L31.4785 14.0378H28.0449L27.3359 15.989H25.4961L28.8418 7.39917H30.6758L34.1152 15.989ZM30.9219 12.5906L29.7383 9.40308L28.5781 12.5906H30.9219ZM35.0352 7.39917H38.2051C38.9199 7.39917 39.4648 7.45386 39.8398 7.56323C40.3438 7.71167 40.7754 7.97534 41.1348 8.35425C41.4941 8.73315 41.7676 9.198 41.9551 9.74878C42.1426 10.2957 42.2363 10.9714 42.2363 11.7761C42.2363 12.4832 42.1484 13.0925 41.9727 13.6042C41.7578 14.2292 41.4512 14.7351 41.0527 15.1218C40.752 15.4148 40.3457 15.6433 39.834 15.8074C39.4512 15.9285 38.9395 15.989 38.2988 15.989H35.0352V7.39917ZM36.7695 8.85229V14.5417H38.0645C38.5488 14.5417 38.8984 14.5144 39.1133 14.4597C39.3945 14.3894 39.627 14.2703 39.8105 14.1023C39.998 13.9343 40.1504 13.6589 40.2676 13.2761C40.3848 12.8894 40.4434 12.364 40.4434 11.7C40.4434 11.0359 40.3848 10.5261 40.2676 10.1707C40.1504 9.81519 39.9863 9.53784 39.7754 9.33862C39.5645 9.1394 39.2969 9.00464 38.9727 8.93433C38.7305 8.87964 38.2559 8.85229 37.5488 8.85229H36.7695ZM43.707 7.39917H46.877C47.5918 7.39917 48.1367 7.45386 48.5117 7.56323C49.0156 7.71167 49.4473 7.97534 49.8066 8.35425C50.166 8.73315 50.4395 9.198 50.627 9.74878C50.8145 10.2957 50.9082 10.9714 50.9082 11.7761C50.9082 12.4832 50.8203 13.0925 50.6445 13.6042C50.4297 14.2292 50.123 14.7351 49.7246 15.1218C49.4238 15.4148 49.0176 15.6433 48.5059 15.8074C48.123 15.9285 47.6113 15.989 46.9707 15.989H43.707V7.39917ZM45.4414 8.85229V14.5417H46.7363C47.2207 14.5417 47.5703 14.5144 47.7852 14.4597C48.0664 14.3894 48.2988 14.2703 48.4824 14.1023C48.6699 13.9343 48.8223 13.6589 48.9395 13.2761C49.0566 12.8894 49.1152 12.364 49.1152 11.7C49.1152 11.0359 49.0566 10.5261 48.9395 10.1707C48.8223 9.81519 48.6582 9.53784 48.4473 9.33862C48.2363 9.1394 47.9688 9.00464 47.6445 8.93433C47.4023 8.87964 46.9277 8.85229 46.2207 8.85229H45.4414Z" fill="white"/>
<defs>
<linearGradient id="paint0_linear_84_2025" x1="30.5" y1="1.98901" x2="30.5" y2="21.989" gradientUnits="userSpaceOnUse">
<stop stop-color="#061A21"/>
<stop offset="1" stop-color="#2EA5CF"/>
</linearGradient>
</defs>
</svg>
