<svg width="57" height="24" viewBox="0 0 57 24" fill="none" xmlns="http://www.w3.org/2000/svg">
<rect x="2" y="1.98901" width="54" height="20" rx="10" fill="url(#paint0_linear_46_4300)"/>
<rect x="2" y="1.98901" width="54" height="20" rx="10" stroke="#FF8600" stroke-width="3" stroke-linejoin="round"/>
<path d="M10.3086 15.989V7.39917H12.043V10.78H15.4414V7.39917H17.1758V15.989H15.4414V12.2332H12.043V15.989H10.3086ZM18.5352 13.1941L20.2227 13.03C20.3242 13.5964 20.5293 14.0125 20.8379 14.2781C21.1504 14.5437 21.5703 14.6765 22.0977 14.6765C22.6562 14.6765 23.0762 14.5593 23.3574 14.325C23.6426 14.0867 23.7852 13.8093 23.7852 13.4929C23.7852 13.2898 23.7246 13.1179 23.6035 12.9773C23.4863 12.8328 23.2793 12.7078 22.9824 12.6023C22.7793 12.532 22.3164 12.407 21.5938 12.2273C20.6641 11.9968 20.0117 11.7136 19.6367 11.3777C19.1094 10.905 18.8457 10.3289 18.8457 9.64917C18.8457 9.21167 18.9688 8.80347 19.2148 8.42456C19.4648 8.04175 19.8223 7.75073 20.2871 7.55151C20.7559 7.35229 21.3203 7.25269 21.9805 7.25269C23.0586 7.25269 23.8691 7.48901 24.4121 7.96167C24.959 8.43433 25.2461 9.06519 25.2734 9.85425L23.5391 9.93042C23.4648 9.48901 23.3047 9.17261 23.0586 8.9812C22.8164 8.78589 22.4512 8.68823 21.9629 8.68823C21.459 8.68823 21.0645 8.79175 20.7793 8.99878C20.5957 9.13159 20.5039 9.30933 20.5039 9.53198C20.5039 9.73511 20.5898 9.90894 20.7617 10.0535C20.9805 10.2371 21.5117 10.4285 22.3555 10.6277C23.1992 10.8269 23.8223 11.0339 24.2246 11.2488C24.6309 11.4597 24.9473 11.7507 25.1738 12.1218C25.4043 12.489 25.5195 12.9441 25.5195 13.4871C25.5195 13.9792 25.3828 14.4402 25.1094 14.8699C24.8359 15.2996 24.4492 15.6199 23.9492 15.8308C23.4492 16.0378 22.8262 16.1414 22.0801 16.1414C20.9941 16.1414 20.1602 15.8914 19.5781 15.3914C18.9961 14.8875 18.6484 14.155 18.5352 13.1941ZM26.9785 15.989V7.39917H29.7617C30.8164 7.39917 31.5039 7.44214 31.8242 7.52808C32.3164 7.65698 32.7285 7.93823 33.0605 8.37183C33.3926 8.80151 33.5586 9.35815 33.5586 10.0417C33.5586 10.5691 33.4629 11.0125 33.2715 11.3718C33.0801 11.7312 32.8359 12.0144 32.5391 12.2214C32.2461 12.4246 31.9473 12.5593 31.6426 12.6257C31.2285 12.7078 30.6289 12.7488 29.8438 12.7488H28.7129V15.989H26.9785ZM28.7129 8.85229V11.2898H29.6621C30.3457 11.2898 30.8027 11.2449 31.0332 11.155C31.2637 11.0652 31.4434 10.9246 31.5723 10.7332C31.7051 10.5417 31.7715 10.3191 31.7715 10.0652C31.7715 9.75269 31.6797 9.49487 31.4961 9.29175C31.3125 9.08862 31.0801 8.96167 30.7988 8.91089C30.5918 8.87183 30.1758 8.85229 29.5508 8.85229H28.7129ZM41.8379 15.989H39.9512L39.2012 14.0378H35.7676L35.0586 15.989H33.2188L36.5645 7.39917H38.3984L41.8379 15.989ZM38.6445 12.5906L37.4609 9.40308L36.3008 12.5906H38.6445ZM42.4238 13.78L44.0645 13.6101C44.1113 13.9812 44.25 14.2761 44.4805 14.4949C44.7109 14.7097 44.9766 14.8171 45.2773 14.8171C45.6211 14.8171 45.9121 14.6785 46.1504 14.4011C46.3887 14.1199 46.5078 13.698 46.5078 13.1355C46.5078 12.6082 46.3887 12.2136 46.1504 11.9519C45.916 11.6863 45.6094 11.5535 45.2305 11.5535C44.7578 11.5535 44.334 11.7625 43.959 12.1804L42.623 11.9871L43.4668 7.51636H47.8203V9.05737H44.7148L44.457 10.5164C44.8242 10.3328 45.1992 10.241 45.582 10.241C46.3125 10.241 46.9316 10.5066 47.4395 11.0378C47.9473 11.5691 48.2012 12.2585 48.2012 13.1062C48.2012 13.8132 47.9961 14.4441 47.5859 14.9988C47.0273 15.7566 46.252 16.1355 45.2598 16.1355C44.4668 16.1355 43.8203 15.9226 43.3203 15.4968C42.8203 15.071 42.5215 14.4988 42.4238 13.78Z" fill="white"/>
<defs>
<linearGradient id="paint0_linear_46_4300" x1="29" y1="1.98901" x2="29" y2="21.989" gradientUnits="userSpaceOnUse">
<stop stop-color="#FF8600"/>
<stop offset="1" stop-color="#4C0000"/>
</linearGradient>
</defs>
</svg>
