<svg width="56" height="24" viewBox="0 0 56 24" fill="none" xmlns="http://www.w3.org/2000/svg">
<rect x="2" y="1.98901" width="53" height="20" rx="10" fill="url(#paint0_linear_46_4331)"/>
<rect x="2" y="1.98901" width="53" height="20" rx="10" stroke="#BE5733" stroke-width="3" stroke-linejoin="round"/>
<path d="M9.97266 15.989V7.39917H11.707V15.989H9.97266ZM13.3887 15.989V7.39917H15.123V11.2136L18.627 7.39917H20.959L17.7246 10.7449L21.1348 15.989H18.8906L16.5293 11.9578L15.123 13.3933V15.989H13.3887ZM22.043 7.39917H25.4766C26.1562 7.39917 26.6621 7.42847 26.9941 7.48706C27.3301 7.54175 27.6289 7.65894 27.8906 7.83862C28.1562 8.01831 28.377 8.25854 28.5527 8.55933C28.7285 8.8562 28.8164 9.19019 28.8164 9.56128C28.8164 9.96362 28.707 10.3328 28.4883 10.6687C28.2734 11.0046 27.9805 11.2566 27.6094 11.4246C28.1328 11.5769 28.5352 11.8367 28.8164 12.2039C29.0977 12.571 29.2383 13.0027 29.2383 13.4988C29.2383 13.8894 29.1465 14.2703 28.9629 14.6414C28.7832 15.0085 28.5352 15.3035 28.2188 15.5261C27.9062 15.7449 27.5195 15.8796 27.0586 15.9304C26.7695 15.9617 26.0723 15.9812 24.9668 15.989H22.043V7.39917ZM23.7773 8.82886V10.8152H24.9141C25.5898 10.8152 26.0098 10.8054 26.1738 10.7859C26.4707 10.7507 26.7031 10.6492 26.8711 10.4812C27.043 10.3093 27.1289 10.0847 27.1289 9.80737C27.1289 9.54175 27.0547 9.3269 26.9062 9.16284C26.7617 8.99487 26.5449 8.89331 26.2559 8.85815C26.084 8.83862 25.5898 8.82886 24.7734 8.82886H23.7773ZM23.7773 12.2449V14.5417H25.3828C26.0078 14.5417 26.4043 14.5242 26.5723 14.489C26.8301 14.4421 27.0391 14.3289 27.1992 14.1492C27.3633 13.9656 27.4453 13.7214 27.4453 13.4167C27.4453 13.1589 27.3828 12.9402 27.2578 12.7605C27.1328 12.5808 26.9512 12.45 26.7129 12.3679C26.4785 12.2859 25.9668 12.2449 25.1777 12.2449H23.7773ZM30.7324 15.989V7.39917H32.4668V11.2136L35.9707 7.39917H38.3027L35.0684 10.7449L38.4785 15.989H36.2344L33.873 11.9578L32.4668 13.3933V15.989H30.7324ZM43.377 12.8308V11.3835H47.1152V14.8054C46.752 15.157 46.2246 15.4675 45.5332 15.7371C44.8457 16.0027 44.1484 16.1355 43.4414 16.1355C42.543 16.1355 41.7598 15.948 41.0918 15.573C40.4238 15.1941 39.9219 14.655 39.5859 13.9558C39.25 13.2527 39.082 12.489 39.082 11.6648C39.082 10.7703 39.2695 9.97534 39.6445 9.28003C40.0195 8.58472 40.5684 8.05151 41.291 7.68042C41.8418 7.39526 42.5273 7.25269 43.3477 7.25269C44.4141 7.25269 45.2461 7.47729 45.8438 7.92651C46.4453 8.37183 46.832 8.98901 47.0039 9.77808L45.2812 10.1003C45.1602 9.67847 44.9316 9.34644 44.5957 9.10425C44.2637 8.85815 43.8477 8.73511 43.3477 8.73511C42.5898 8.73511 41.9863 8.97534 41.5371 9.45581C41.0918 9.93628 40.8691 10.6492 40.8691 11.5945C40.8691 12.614 41.0957 13.3796 41.5488 13.8914C42.002 14.3992 42.5957 14.6531 43.3301 14.6531C43.6934 14.6531 44.0566 14.5828 44.4199 14.4421C44.7871 14.2976 45.1016 14.1238 45.3633 13.9207V12.8308H43.377Z" fill="white"/>
<defs>
<linearGradient id="paint0_linear_46_4331" x1="28.5" y1="1.98901" x2="28.5" y2="21.989" gradientUnits="userSpaceOnUse">
<stop stop-color="#00BAAD"/>
<stop offset="1" stop-color="#BE5733"/>
</linearGradient>
</defs>
</svg>
