<svg width="54" height="24" viewBox="0 0 54 24" fill="none" xmlns="http://www.w3.org/2000/svg">
<rect x="2" y="1.98901" width="51" height="20" rx="10" fill="url(#paint0_linear_46_4322)"/>
<rect x="2" y="1.98901" width="51" height="20" rx="10" stroke="#1359A9" stroke-width="3" stroke-linejoin="round"/>
<path d="M9.97461 15.989V7.39917H11.709V15.989H9.97461ZM13.3848 15.989V7.39917H15.0723L18.5879 13.1355V7.39917H20.1992V15.989H18.459L14.9961 10.3875V15.989H13.3848ZM21.5996 13.1941L23.2871 13.03C23.3887 13.5964 23.5938 14.0125 23.9023 14.2781C24.2148 14.5437 24.6348 14.6765 25.1621 14.6765C25.7207 14.6765 26.1406 14.5593 26.4219 14.325C26.707 14.0867 26.8496 13.8093 26.8496 13.4929C26.8496 13.2898 26.7891 13.1179 26.668 12.9773C26.5508 12.8328 26.3438 12.7078 26.0469 12.6023C25.8438 12.532 25.3809 12.407 24.6582 12.2273C23.7285 11.9968 23.0762 11.7136 22.7012 11.3777C22.1738 10.905 21.9102 10.3289 21.9102 9.64917C21.9102 9.21167 22.0332 8.80347 22.2793 8.42456C22.5293 8.04175 22.8867 7.75073 23.3516 7.55151C23.8203 7.35229 24.3848 7.25269 25.0449 7.25269C26.123 7.25269 26.9336 7.48901 27.4766 7.96167C28.0234 8.43433 28.3105 9.06519 28.3379 9.85425L26.6035 9.93042C26.5293 9.48901 26.3691 9.17261 26.123 8.9812C25.8809 8.78589 25.5156 8.68823 25.0273 8.68823C24.5234 8.68823 24.1289 8.79175 23.8438 8.99878C23.6602 9.13159 23.5684 9.30933 23.5684 9.53198C23.5684 9.73511 23.6543 9.90894 23.8262 10.0535C24.0449 10.2371 24.5762 10.4285 25.4199 10.6277C26.2637 10.8269 26.8867 11.0339 27.2891 11.2488C27.6953 11.4597 28.0117 11.7507 28.2383 12.1218C28.4688 12.489 28.584 12.9441 28.584 13.4871C28.584 13.9792 28.4473 14.4402 28.1738 14.8699C27.9004 15.2996 27.5137 15.6199 27.0137 15.8308C26.5137 16.0378 25.8906 16.1414 25.1445 16.1414C24.0586 16.1414 23.2246 15.8914 22.6426 15.3914C22.0605 14.8875 21.7129 14.155 21.5996 13.1941ZM30.0195 15.989V7.39917H32.6152L34.1738 13.2585L35.7148 7.39917H38.3164V15.989H36.7051V9.22729L35 15.989H33.3301L31.6309 9.22729V15.989H30.0195ZM43.8887 15.989H42.2422V9.78394C41.6406 10.3464 40.9316 10.7625 40.1152 11.032V9.53784C40.5449 9.39722 41.0117 9.13159 41.5156 8.74097C42.0195 8.34644 42.3652 7.88745 42.5527 7.36401H43.8887V15.989Z" fill="white"/>
<defs>
<linearGradient id="paint0_linear_46_4322" x1="27.5" y1="1.98901" x2="27.5" y2="21.989" gradientUnits="userSpaceOnUse">
<stop stop-color="#1359A9"/>
<stop offset="1" stop-color="#F7DA92"/>
</linearGradient>
</defs>
</svg>
