<svg width="42" height="24" viewBox="0 0 42 24" fill="none" xmlns="http://www.w3.org/2000/svg">
<rect x="2" y="1.98901" width="39" height="20" rx="10" fill="url(#paint0_linear_64_1829)"/>
<rect x="2" y="1.98901" width="39" height="20" rx="10" stroke="#AA2AFF" stroke-width="3" stroke-linejoin="round"/>
<path d="M10.0508 15.989V7.39917H11.7383L15.2539 13.1355V7.39917H16.8652V15.989H15.125L11.6621 10.3875V15.989H10.0508ZM24.2012 12.8308L25.8828 13.364C25.625 14.3015 25.1953 14.9988 24.5938 15.4558C23.9961 15.9089 23.2363 16.1355 22.3145 16.1355C21.1738 16.1355 20.2363 15.7468 19.502 14.9695C18.7676 14.1882 18.4004 13.1218 18.4004 11.7703C18.4004 10.3406 18.7695 9.2312 19.5078 8.44214C20.2461 7.64917 21.2168 7.25269 22.4199 7.25269C23.4707 7.25269 24.3242 7.56323 24.9805 8.18433C25.3711 8.55151 25.6641 9.07886 25.8594 9.76636L24.1426 10.1765C24.041 9.7312 23.8281 9.37964 23.5039 9.12183C23.1836 8.86401 22.793 8.73511 22.332 8.73511C21.6953 8.73511 21.1777 8.96362 20.7793 9.42065C20.3848 9.87769 20.1875 10.6179 20.1875 11.6414C20.1875 12.7273 20.3828 13.5007 20.7734 13.9617C21.1641 14.4226 21.6719 14.6531 22.2969 14.6531C22.7578 14.6531 23.1543 14.5066 23.4863 14.2136C23.8184 13.9207 24.0566 13.4597 24.2012 12.8308ZM27.4238 15.989V7.46948H29.1582V14.5417H33.4707V15.989H27.4238Z" fill="white"/>
<defs>
<linearGradient id="paint0_linear_64_1829" x1="21.5" y1="1.98901" x2="21.5" y2="21.989" gradientUnits="userSpaceOnUse">
<stop stop-color="#AA2AFF"/>
<stop offset="1" stop-color="#003794"/>
</linearGradient>
</defs>
</svg>
