<svg width="50" height="24" viewBox="0 0 50 24" fill="none" xmlns="http://www.w3.org/2000/svg">
<rect x="2" y="1.98901" width="47" height="20" rx="10" fill="url(#paint0_linear_36_1576)"/>
<rect x="2" y="1.98901" width="47" height="20" rx="10" stroke="#006FEB" stroke-width="3" stroke-linejoin="round"/>
<path d="M10.0312 7.39917H13.4648C14.1445 7.39917 14.6504 7.42847 14.9824 7.48706C15.3184 7.54175 15.6172 7.65894 15.8789 7.83862C16.1445 8.01831 16.3652 8.25854 16.541 8.55933C16.7168 8.8562 16.8047 9.19019 16.8047 9.56128C16.8047 9.96362 16.6953 10.3328 16.4766 10.6687C16.2617 11.0046 15.9688 11.2566 15.5977 11.4246C16.1211 11.5769 16.5234 11.8367 16.8047 12.2039C17.0859 12.571 17.2266 13.0027 17.2266 13.4988C17.2266 13.8894 17.1348 14.2703 16.9512 14.6414C16.7715 15.0085 16.5234 15.3035 16.207 15.5261C15.8945 15.7449 15.5078 15.8796 15.0469 15.9304C14.7578 15.9617 14.0605 15.9812 12.9551 15.989H10.0312V7.39917ZM11.7656 8.82886V10.8152H12.9023C13.5781 10.8152 13.998 10.8054 14.1621 10.7859C14.459 10.7507 14.6914 10.6492 14.8594 10.4812C15.0312 10.3093 15.1172 10.0847 15.1172 9.80737C15.1172 9.54175 15.043 9.3269 14.8945 9.16284C14.75 8.99487 14.5332 8.89331 14.2441 8.85815C14.0723 8.83862 13.5781 8.82886 12.7617 8.82886H11.7656ZM11.7656 12.2449V14.5417H13.3711C13.9961 14.5417 14.3926 14.5242 14.5605 14.489C14.8184 14.4421 15.0273 14.3289 15.1875 14.1492C15.3516 13.9656 15.4336 13.7214 15.4336 13.4167C15.4336 13.1589 15.3711 12.9402 15.2461 12.7605C15.1211 12.5808 14.9395 12.45 14.7012 12.3679C14.4668 12.2859 13.9551 12.2449 13.166 12.2449H11.7656ZM18.6855 7.39917H20.4199V12.0515C20.4199 12.7898 20.4414 13.2683 20.4844 13.4871C20.5586 13.8386 20.7344 14.1218 21.0117 14.3367C21.293 14.5476 21.6758 14.6531 22.1602 14.6531C22.6523 14.6531 23.0234 14.5535 23.2734 14.3542C23.5234 14.1511 23.6738 13.9031 23.7246 13.6101C23.7754 13.3171 23.8008 12.8308 23.8008 12.1511V7.39917H25.5352V11.9109C25.5352 12.9421 25.4883 13.6707 25.3945 14.0964C25.3008 14.5222 25.127 14.8816 24.873 15.1746C24.623 15.4675 24.2871 15.7019 23.8652 15.8777C23.4434 16.0496 22.8926 16.1355 22.2129 16.1355C21.3926 16.1355 20.7695 16.0417 20.3438 15.8542C19.9219 15.6628 19.5879 15.4167 19.3418 15.116C19.0957 14.8113 18.9336 14.4929 18.8555 14.1609C18.7422 13.6687 18.6855 12.9421 18.6855 11.9812V7.39917ZM27.375 7.39917H30.8086C31.4883 7.39917 31.9941 7.42847 32.3262 7.48706C32.6621 7.54175 32.9609 7.65894 33.2227 7.83862C33.4883 8.01831 33.709 8.25854 33.8848 8.55933C34.0605 8.8562 34.1484 9.19019 34.1484 9.56128C34.1484 9.96362 34.0391 10.3328 33.8203 10.6687C33.6055 11.0046 33.3125 11.2566 32.9414 11.4246C33.4648 11.5769 33.8672 11.8367 34.1484 12.2039C34.4297 12.571 34.5703 13.0027 34.5703 13.4988C34.5703 13.8894 34.4785 14.2703 34.2949 14.6414C34.1152 15.0085 33.8672 15.3035 33.5508 15.5261C33.2383 15.7449 32.8516 15.8796 32.3906 15.9304C32.1016 15.9617 31.4043 15.9812 30.2988 15.989H27.375V7.39917ZM29.1094 8.82886V10.8152H30.2461C30.9219 10.8152 31.3418 10.8054 31.5059 10.7859C31.8027 10.7507 32.0352 10.6492 32.2031 10.4812C32.375 10.3093 32.4609 10.0847 32.4609 9.80737C32.4609 9.54175 32.3867 9.3269 32.2383 9.16284C32.0938 8.99487 31.877 8.89331 31.5879 8.85815C31.416 8.83862 30.9219 8.82886 30.1055 8.82886H29.1094ZM29.1094 12.2449V14.5417H30.7148C31.3398 14.5417 31.7363 14.5242 31.9043 14.489C32.1621 14.4421 32.3711 14.3289 32.5312 14.1492C32.6953 13.9656 32.7773 13.7214 32.7773 13.4167C32.7773 13.1589 32.7148 12.9402 32.5898 12.7605C32.4648 12.5808 32.2832 12.45 32.0449 12.3679C31.8105 12.2859 31.2988 12.2449 30.5098 12.2449H29.1094ZM35.6191 13.7097L37.2129 13.5164C37.2637 13.9226 37.4004 14.2332 37.623 14.448C37.8457 14.6628 38.1152 14.7703 38.4316 14.7703C38.7715 14.7703 39.0566 14.6414 39.2871 14.3835C39.5215 14.1257 39.6387 13.7781 39.6387 13.3406C39.6387 12.9265 39.5273 12.5984 39.3047 12.3562C39.082 12.114 38.8105 11.9929 38.4902 11.9929C38.2793 11.9929 38.0273 12.0339 37.7344 12.116L37.916 10.7742C38.3613 10.7859 38.7012 10.6902 38.9355 10.4871C39.1699 10.28 39.2871 10.0066 39.2871 9.66675C39.2871 9.37769 39.2012 9.14722 39.0293 8.97534C38.8574 8.80347 38.6289 8.71753 38.3438 8.71753C38.0625 8.71753 37.8223 8.81519 37.623 9.0105C37.4238 9.20581 37.3027 9.49097 37.2598 9.86597L35.7422 9.60815C35.8477 9.08862 36.0059 8.67456 36.2168 8.36597C36.4316 8.05347 36.7285 7.80933 37.1074 7.63354C37.4902 7.45386 37.918 7.36401 38.3906 7.36401C39.1992 7.36401 39.8477 7.62183 40.3359 8.13745C40.7383 8.55933 40.9395 9.03589 40.9395 9.56714C40.9395 10.321 40.5273 10.9226 39.7031 11.3718C40.1953 11.4773 40.5879 11.7136 40.8809 12.0808C41.1777 12.448 41.3262 12.8914 41.3262 13.4109C41.3262 14.1648 41.0508 14.8074 40.5 15.3386C39.9492 15.8699 39.2637 16.1355 38.4434 16.1355C37.666 16.1355 37.0215 15.9128 36.5098 15.4675C35.998 15.0183 35.7012 14.4324 35.6191 13.7097Z" fill="white"/>
<defs>
<linearGradient id="paint0_linear_36_1576" x1="25.5" y1="1.98901" x2="25.5" y2="21.989" gradientUnits="userSpaceOnUse">
<stop stop-color="#006FEB"/>
<stop offset="1" stop-color="#362282"/>
</linearGradient>
</defs>
</svg>
