<svg width="54" height="24" viewBox="0 0 54 24" fill="none" xmlns="http://www.w3.org/2000/svg">
<rect x="2" y="1.98901" width="51" height="20" rx="10" fill="url(#paint0_linear_42_2712)"/>
<rect x="2" y="1.98901" width="51" height="20" rx="10" stroke="#9B3D0E" stroke-width="3" stroke-linejoin="round"/>
<path d="M10.0391 15.989V7.39917H15.9277V8.85229H11.7734V10.8855H15.3594V12.3386H11.7734V15.989H10.0391ZM17.3516 7.39917H19.0859V12.0515C19.0859 12.7898 19.1074 13.2683 19.1504 13.4871C19.2246 13.8386 19.4004 14.1218 19.6777 14.3367C19.959 14.5476 20.3418 14.6531 20.8262 14.6531C21.3184 14.6531 21.6895 14.5535 21.9395 14.3542C22.1895 14.1511 22.3398 13.9031 22.3906 13.6101C22.4414 13.3171 22.4668 12.8308 22.4668 12.1511V7.39917H24.2012V11.9109C24.2012 12.9421 24.1543 13.6707 24.0605 14.0964C23.9668 14.5222 23.793 14.8816 23.5391 15.1746C23.2891 15.4675 22.9531 15.7019 22.5312 15.8777C22.1094 16.0496 21.5586 16.1355 20.8789 16.1355C20.0586 16.1355 19.4355 16.0417 19.0098 15.8542C18.5879 15.6628 18.2539 15.4167 18.0078 15.116C17.7617 14.8113 17.5996 14.4929 17.5215 14.1609C17.4082 13.6687 17.3516 12.9421 17.3516 11.9812V7.39917ZM26.041 15.989V7.39917H29.6914C30.6094 7.39917 31.2754 7.47729 31.6895 7.63354C32.1074 7.78589 32.4414 8.05933 32.6914 8.45386C32.9414 8.84839 33.0664 9.29956 33.0664 9.80737C33.0664 10.4519 32.877 10.9851 32.498 11.407C32.1191 11.825 31.5527 12.0886 30.7988 12.198C31.1738 12.4167 31.4824 12.657 31.7246 12.9187C31.9707 13.1804 32.3008 13.6453 32.7148 14.3132L33.7637 15.989H31.6895L30.4355 14.1199C29.9902 13.4519 29.6855 13.032 29.5215 12.8601C29.3574 12.6843 29.1836 12.5652 29 12.5027C28.8164 12.4363 28.5254 12.4031 28.127 12.4031H27.7754V15.989H26.041ZM27.7754 11.032H29.0586C29.8906 11.032 30.4102 10.9968 30.6172 10.9265C30.8242 10.8562 30.9863 10.7351 31.1035 10.5632C31.2207 10.3914 31.2793 10.1765 31.2793 9.9187C31.2793 9.62964 31.2012 9.39722 31.0449 9.22144C30.8926 9.04175 30.6758 8.92847 30.3945 8.88159C30.2539 8.86206 29.832 8.85229 29.1289 8.85229H27.7754V11.032ZM34.6543 15.989V7.39917H36.3887V15.989H34.6543ZM38.0645 15.989V7.39917H39.752L43.2676 13.1355V7.39917H44.8789V15.989H43.1387L39.6758 10.3875V15.989H38.0645Z" fill="white"/>
<defs>
<linearGradient id="paint0_linear_42_2712" x1="27.5" y1="1.98901" x2="27.5" y2="21.989" gradientUnits="userSpaceOnUse">
<stop stop-color="#9B3D0E"/>
<stop offset="1" stop-color="#00AE98"/>
</linearGradient>
</defs>
</svg>
