<svg width="44" height="24" viewBox="0 0 44 24" fill="none" xmlns="http://www.w3.org/2000/svg">
<rect x="2" y="1.98901" width="41" height="20" rx="10" fill="url(#paint0_linear_67_1840)"/>
<rect x="2" y="1.98901" width="41" height="20" rx="10" stroke="#00855B" stroke-width="3" stroke-linejoin="round"/>
<path d="M10.3711 15.989V7.39917H14.0215C14.9395 7.39917 15.6055 7.47729 16.0195 7.63354C16.4375 7.78589 16.7715 8.05933 17.0215 8.45386C17.2715 8.84839 17.3965 9.29956 17.3965 9.80737C17.3965 10.4519 17.207 10.9851 16.8281 11.407C16.4492 11.825 15.8828 12.0886 15.1289 12.198C15.5039 12.4167 15.8125 12.657 16.0547 12.9187C16.3008 13.1804 16.6309 13.6453 17.0449 14.3132L18.0938 15.989H16.0195L14.7656 14.1199C14.3203 13.4519 14.0156 13.032 13.8516 12.8601C13.6875 12.6843 13.5137 12.5652 13.3301 12.5027C13.1465 12.4363 12.8555 12.4031 12.457 12.4031H12.1055V15.989H10.3711ZM12.1055 11.032H13.3887C14.2207 11.032 14.7402 10.9968 14.9473 10.9265C15.1543 10.8562 15.3164 10.7351 15.4336 10.5632C15.5508 10.3914 15.6094 10.1765 15.6094 9.9187C15.6094 9.62964 15.5312 9.39722 15.375 9.22144C15.2227 9.04175 15.0059 8.92847 14.7246 8.88159C14.584 8.86206 14.1621 8.85229 13.459 8.85229H12.1055V11.032ZM26.7832 15.989H24.8965L24.1465 14.0378H20.7129L20.0039 15.989H18.1641L21.5098 7.39917H23.3438L26.7832 15.989ZM23.5898 12.5906L22.4062 9.40308L21.2461 12.5906H23.5898ZM27.7266 15.989V7.39917H29.4141L32.9297 13.1355V7.39917H34.541V15.989H32.8008L29.3379 10.3875V15.989H27.7266Z" fill="white"/>
<defs>
<linearGradient id="paint0_linear_67_1840" x1="22.5" y1="1.98901" x2="22.5" y2="21.989" gradientUnits="userSpaceOnUse">
<stop stop-color="#FFAD42"/>
<stop offset="1" stop-color="#00855B"/>
</linearGradient>
</defs>
</svg>
