<svg width="78" height="63" viewBox="0 0 78 63" fill="none" xmlns="http://www.w3.org/2000/svg">
<path d="M2.62973 2.63794V47.6379C2.62973 47.6379 2.62973 52.6379 7.12283 52.6379C11.6159 52.6379 11.6159 47.6379 11.6159 47.6379V7.63794C11.6159 7.63794 11.6159 2.63794 16.109 2.63794C20.6021 2.63794 20.6021 7.63794 20.6021 7.63794V47.6379C20.6021 47.6379 20.6021 52.6379 25.0952 52.6379C29.5883 52.6379 29.5883 47.6379 29.5883 47.6379V7.63794C29.5883 7.63794 29.5883 2.63794 34.0814 2.63794C38.5745 2.63794 38.5745 7.63794 38.5745 7.63794V47.6379C38.5745 47.6379 38.5745 52.6379 43.0676 52.6379C47.5607 52.6379 47.5607 47.6379 47.5607 47.6379V7.63794C47.5607 7.63794 47.5607 2.63794 52.0538 2.63794C56.5469 2.63794 56.5469 7.63794 56.5469 7.63794V47.6379C56.5469 47.6379 56.5469 52.6379 61.04 52.6379C65.5331 52.6379 65.5331 47.6379 65.5331 47.6379V7.63794C65.5331 7.63794 65.5331 2.63794 70.0262 2.63794C74.5193 2.63794 74.5193 7.63794 74.5193 7.63794C74.5193 7.63794 74.5193 47.6379 74.5193 52.6379C74.5193 57.6379 70.0262 59.601 65.5331 59.601L61.04 59.638" stroke="url(#paint0_linear_92_5470)" stroke-width="5" stroke-miterlimit="10" stroke-linecap="round" stroke-linejoin="round"/>
<path d="M1.37634 2.63794V47.6379C1.37634 47.6379 1.37634 52.6379 5.86944 52.6379C10.3625 52.6379 10.3625 47.6379 10.3625 47.6379V7.63794C10.3625 7.63794 10.3625 2.63794 14.8556 2.63794C19.3487 2.63794 19.3487 7.63794 19.3487 7.63794V47.6379C19.3487 47.6379 19.3487 52.6379 23.8418 52.6379C28.3349 52.6379 28.3349 47.6379 28.3349 47.6379V7.63794C28.3349 7.63794 28.3349 2.63794 32.828 2.63794C37.3211 2.63794 37.3211 7.63794 37.3211 7.63794V47.6379C37.3211 47.6379 37.3211 52.6379 41.8142 52.6379C46.3073 52.6379 46.3073 47.6379 46.3073 47.6379V7.63794C46.3073 7.63794 46.3073 2.63794 50.8004 2.63794C55.2935 2.63794 55.2935 7.63794 55.2935 7.63794V47.6379C55.2935 47.6379 55.2935 52.6379 59.7866 52.6379C64.2797 52.6379 64.2797 47.6379 64.2797 47.6379V7.63794C64.2797 7.63794 64.2797 2.63794 68.7728 2.63794C73.2659 2.63794 73.2659 7.63794 73.2659 7.63794C73.2659 7.63794 73.2659 47.6379 73.2659 52.6379C73.2659 57.6379 68.7728 59.601 64.2797 59.601L59.7866 59.638" stroke="url(#paint1_linear_92_5470)" stroke-width="1.5" stroke-miterlimit="10" stroke-linecap="round" stroke-linejoin="round"/>
<defs>
<linearGradient id="paint0_linear_92_5470" x1="38.5746" y1="62.138" x2="38.5746" y2="0.137938" gradientUnits="userSpaceOnUse">
<stop stop-color="#172780"/>
<stop offset="1" stop-color="#4259DB"/>
</linearGradient>
<linearGradient id="paint1_linear_92_5470" x1="37.3211" y1="60.388" x2="37.3211" y2="1.88794" gradientUnits="userSpaceOnUse">
<stop offset="0.6161" stop-color="#96A2E8"/>
<stop offset="0.8228" stop-color="#CED2E8"/>
<stop offset="1" stop-color="#96A2E8"/>
</linearGradient>
</defs>
</svg>
