<svg width="48" height="24" viewBox="0 0 48 24" fill="none" xmlns="http://www.w3.org/2000/svg">
<rect x="2" y="1.98901" width="45" height="20" rx="10" fill="url(#paint0_linear_64_1960)"/>
<rect x="2" y="1.98901" width="45" height="20" rx="10" stroke="#9E6000" stroke-width="3" stroke-linejoin="round"/>
<path d="M10.0273 15.989V7.39917H12.8105C13.8652 7.39917 14.5527 7.44214 14.873 7.52808C15.3652 7.65698 15.7773 7.93823 16.1094 8.37183C16.4414 8.80151 16.6074 9.35815 16.6074 10.0417C16.6074 10.5691 16.5117 11.0125 16.3203 11.3718C16.1289 11.7312 15.8848 12.0144 15.5879 12.2214C15.2949 12.4246 14.9961 12.5593 14.6914 12.6257C14.2773 12.7078 13.6777 12.7488 12.8926 12.7488H11.7617V15.989H10.0273ZM11.7617 8.85229V11.2898H12.7109C13.3945 11.2898 13.8516 11.2449 14.082 11.155C14.3125 11.0652 14.4922 10.9246 14.6211 10.7332C14.7539 10.5417 14.8203 10.3191 14.8203 10.0652C14.8203 9.75269 14.7285 9.49487 14.5449 9.29175C14.3613 9.08862 14.1289 8.96167 13.8477 8.91089C13.6406 8.87183 13.2246 8.85229 12.5996 8.85229H11.7617ZM18.0312 15.989V7.39917H24.4004V8.85229H19.7656V10.7566H24.0781V12.2039H19.7656V14.5417H24.5645V15.989H18.0312ZM25.1621 15.989L28.0977 11.5066L25.4375 7.39917H27.4648L29.1875 10.1589L30.875 7.39917H32.8848L30.2129 11.571L33.1484 15.989H31.0566L29.1523 13.0183L27.2422 15.989H25.1621ZM33.6172 13.7097L35.2109 13.5164C35.2617 13.9226 35.3984 14.2332 35.6211 14.448C35.8438 14.6628 36.1133 14.7703 36.4297 14.7703C36.7695 14.7703 37.0547 14.6414 37.2852 14.3835C37.5195 14.1257 37.6367 13.7781 37.6367 13.3406C37.6367 12.9265 37.5254 12.5984 37.3027 12.3562C37.0801 12.114 36.8086 11.9929 36.4883 11.9929C36.2773 11.9929 36.0254 12.0339 35.7324 12.116L35.9141 10.7742C36.3594 10.7859 36.6992 10.6902 36.9336 10.4871C37.168 10.28 37.2852 10.0066 37.2852 9.66675C37.2852 9.37769 37.1992 9.14722 37.0273 8.97534C36.8555 8.80347 36.627 8.71753 36.3418 8.71753C36.0605 8.71753 35.8203 8.81519 35.6211 9.0105C35.4219 9.20581 35.3008 9.49097 35.2578 9.86597L33.7402 9.60815C33.8457 9.08862 34.0039 8.67456 34.2148 8.36597C34.4297 8.05347 34.7266 7.80933 35.1055 7.63354C35.4883 7.45386 35.916 7.36401 36.3887 7.36401C37.1973 7.36401 37.8457 7.62183 38.334 8.13745C38.7363 8.55933 38.9375 9.03589 38.9375 9.56714C38.9375 10.321 38.5254 10.9226 37.7012 11.3718C38.1934 11.4773 38.5859 11.7136 38.8789 12.0808C39.1758 12.448 39.3242 12.8914 39.3242 13.4109C39.3242 14.1648 39.0488 14.8074 38.498 15.3386C37.9473 15.8699 37.2617 16.1355 36.4414 16.1355C35.6641 16.1355 35.0195 15.9128 34.5078 15.4675C33.9961 15.0183 33.6992 14.4324 33.6172 13.7097Z" fill="white"/>
<defs>
<linearGradient id="paint0_linear_64_1960" x1="24.5" y1="1.98901" x2="24.5" y2="21.989" gradientUnits="userSpaceOnUse">
<stop stop-color="#B8B95F"/>
<stop offset="1" stop-color="#9E6000"/>
</linearGradient>
</defs>
</svg>
