<svg width="44" height="44" viewBox="0 0 44 44" fill="none" xmlns="http://www.w3.org/2000/svg">
<path d="M21.677 1.03491C33.2033 1.03491 42.5753 10.4594 42.5754 22.0369C42.5754 33.6145 33.2032 43.0378 21.677 43.0378C10.1521 43.0378 0.780518 33.6159 0.780518 22.0369C0.780705 10.4581 10.1522 1.03497 21.677 1.03491Z" fill="url(#paint0_radial_86_2978)" stroke="#82297C"/>
<path d="M10.1558 25.5349V16.9232H12.9461C14.0035 16.9232 14.6927 16.9662 15.0139 17.0524C15.5073 17.1816 15.9205 17.4636 16.2533 17.8983C16.5862 18.3291 16.7527 18.8871 16.7527 19.5725C16.7527 20.1012 16.6567 20.5457 16.4648 20.9059C16.2729 21.2662 16.0282 21.5502 15.7305 21.7577C15.4368 21.9614 15.1372 22.0965 14.8317 22.1631C14.4166 22.2453 13.8155 22.2864 13.0283 22.2864H11.8946V25.5349H10.1558ZM11.8946 18.38V20.8237H12.8462C13.5316 20.8237 13.9898 20.7787 14.2208 20.6886C14.4519 20.5985 14.632 20.4575 14.7613 20.2656C14.8944 20.0738 14.961 19.8505 14.961 19.596C14.961 19.2827 14.869 19.0242 14.6849 18.8206C14.5008 18.6169 14.2678 18.4896 13.9858 18.4387C13.7783 18.3996 13.3612 18.38 12.7346 18.38H11.8946ZM18.186 25.5349V16.9232H21.8457C22.766 16.9232 23.4337 17.0015 23.8488 17.1581C24.2679 17.3109 24.6027 17.585 24.8533 17.9805C25.104 18.3761 25.2293 18.8284 25.2293 19.3375C25.2293 19.9837 25.0394 20.5182 24.6595 20.9412C24.2796 21.3602 23.7118 21.6246 22.9559 21.7342C23.3319 21.9535 23.6413 22.1944 23.8841 22.4568C24.1308 22.7192 24.4617 23.1852 24.8768 23.8549L25.9283 25.5349H23.8488L22.5917 23.661C22.1453 22.9913 21.8398 22.5703 21.6753 22.398C21.5108 22.2218 21.3366 22.1024 21.1525 22.0397C20.9685 21.9731 20.6767 21.9398 20.2772 21.9398H19.9248V25.5349H18.186ZM19.9248 20.5652H21.2113C22.0454 20.5652 22.5663 20.53 22.7738 20.4595C22.9814 20.389 23.1439 20.2676 23.2614 20.0953C23.3789 19.923 23.4376 19.7076 23.4376 19.4491C23.4376 19.1593 23.3593 18.9263 23.2027 18.7501C23.0499 18.5699 22.8326 18.4564 22.5506 18.4094C22.4096 18.3898 21.9867 18.38 21.2817 18.38H19.9248V20.5652ZM26.9211 25.5349V16.9937H28.6599V24.084H32.9834V25.5349H26.9211Z" fill="white"/>
<defs>
<radialGradient id="paint0_radial_86_2978" cx="0" cy="0" r="1" gradientUnits="userSpaceOnUse" gradientTransform="translate(17.1729 13.6966) scale(19.5352 19.6348)">
<stop stop-color="#FFB9F6"/>
<stop offset="1" stop-color="#C782BE"/>
</radialGradient>
</defs>
</svg>
