<svg width="54" height="19" viewBox="0 0 54 19" fill="none" xmlns="http://www.w3.org/2000/svg">
<path d="M8.94225 18.5718C13.7976 18.5718 17.7336 14.6358 17.7336 9.78041C17.7336 4.92506 13.7976 0.989014 8.94225 0.989014C4.08689 0.989014 0.150848 4.92506 0.150848 9.78041C0.150848 14.6358 4.08689 18.5718 8.94225 18.5718Z" fill="url(#paint0_radial_90_4373)"/>
<path d="M44.5537 18.5718C49.4091 18.5718 53.3451 14.6358 53.3451 9.78041C53.3451 4.92506 49.4091 0.989014 44.5537 0.989014C39.6984 0.989014 35.7623 4.92506 35.7623 9.78041C35.7623 14.6358 39.6984 18.5718 44.5537 18.5718Z" fill="url(#paint1_radial_90_4373)"/>
<defs>
<radialGradient id="paint0_radial_90_4373" cx="0" cy="0" r="1" gradientUnits="userSpaceOnUse" gradientTransform="translate(7.15615 7.38731) scale(9.9856)">
<stop stop-color="#F1FFB2"/>
<stop offset="0.036" stop-color="#E7F6A7"/>
<stop offset="0.1994" stop-color="#C0D07A"/>
<stop offset="0.3639" stop-color="#9FB054"/>
<stop offset="0.527" stop-color="#869837"/>
<stop offset="0.6882" stop-color="#748623"/>
<stop offset="0.8469" stop-color="#697C16"/>
<stop offset="1" stop-color="#657812"/>
</radialGradient>
<radialGradient id="paint1_radial_90_4373" cx="0" cy="0" r="1" gradientUnits="userSpaceOnUse" gradientTransform="translate(42.7676 7.38731) scale(9.9856 9.9856)">
<stop stop-color="#F1FFB2"/>
<stop offset="0.036" stop-color="#E7F6A7"/>
<stop offset="0.1994" stop-color="#C0D07A"/>
<stop offset="0.3639" stop-color="#9FB054"/>
<stop offset="0.527" stop-color="#869837"/>
<stop offset="0.6882" stop-color="#748623"/>
<stop offset="0.8469" stop-color="#697C16"/>
<stop offset="1" stop-color="#657812"/>
</radialGradient>
</defs>
</svg>
