<svg width="55" height="24" viewBox="0 0 55 24" fill="none" xmlns="http://www.w3.org/2000/svg">
<rect x="2" y="1.98901" width="52" height="20" rx="10" fill="url(#paint0_linear_64_1832)"/>
<rect x="2" y="1.98901" width="52" height="20" rx="10" stroke="#006381" stroke-width="3" stroke-linejoin="round"/>
<path d="M10.3164 15.989V7.39917H12.0039L15.5195 13.1355V7.39917H17.1309V15.989H15.3906L11.9277 10.3875V15.989H10.3164ZM26.7168 15.989H24.8301L24.0801 14.0378H20.6465L19.9375 15.989H18.0977L21.4434 7.39917H23.2773L26.7168 15.989ZM23.5234 12.5906L22.3398 9.40308L21.1797 12.5906H23.5234ZM28.6855 15.989V8.85229H26.1367V7.39917H32.9629V8.85229H30.4199V15.989H28.6855ZM37.9375 15.989H36.291V9.78394C35.6895 10.3464 34.9805 10.7625 34.1641 11.032V9.53784C34.5938 9.39722 35.0605 9.13159 35.5645 8.74097C36.0684 8.34644 36.4141 7.88745 36.6016 7.36401H37.9375V15.989ZM43.1875 7.36401C44.0195 7.36401 44.6699 7.66089 45.1387 8.25464C45.6973 8.95776 45.9766 10.1238 45.9766 11.7527C45.9766 13.3777 45.6953 14.5457 45.1328 15.2566C44.668 15.8425 44.0195 16.1355 43.1875 16.1355C42.3516 16.1355 41.6777 15.8152 41.166 15.1746C40.6543 14.53 40.3984 13.3835 40.3984 11.7351C40.3984 10.1179 40.6797 8.95386 41.2422 8.24292C41.707 7.65698 42.3555 7.36401 43.1875 7.36401ZM43.1875 8.72925C42.9883 8.72925 42.8105 8.7937 42.6543 8.92261C42.498 9.04761 42.377 9.27417 42.291 9.60229C42.1777 10.0281 42.1211 10.7449 42.1211 11.7527C42.1211 12.7605 42.1719 13.4539 42.2734 13.8328C42.375 14.2078 42.502 14.4578 42.6543 14.5828C42.8105 14.7078 42.9883 14.7703 43.1875 14.7703C43.3867 14.7703 43.5645 14.7078 43.7207 14.5828C43.877 14.4539 43.998 14.2253 44.084 13.8972C44.1973 13.4753 44.2539 12.7605 44.2539 11.7527C44.2539 10.7449 44.2031 10.0535 44.1016 9.67847C44 9.29956 43.8711 9.04761 43.7148 8.92261C43.5625 8.7937 43.3867 8.72925 43.1875 8.72925Z" fill="white"/>
<defs>
<linearGradient id="paint0_linear_64_1832" x1="28" y1="1.98901" x2="28" y2="21.989" gradientUnits="userSpaceOnUse">
<stop stop-color="#EE4694"/>
<stop offset="1" stop-color="#006381"/>
</linearGradient>
</defs>
</svg>
