<svg width="81" height="27" viewBox="0 0 81 27" fill="none" xmlns="http://www.w3.org/2000/svg">
<path d="M40.5911 26.4265C62.6033 26.4265 80.4478 20.526 80.4478 13.2473C80.4478 5.96864 62.6033 0.0681152 40.5911 0.0681152C18.5788 0.0681152 0.734375 5.96864 0.734375 13.2473C0.734375 20.526 18.5788 26.4265 40.5911 26.4265Z" fill="url(#paint0_radial_92_5631)"/>
<path d="M12.1034 13.9099L13.7851 14.4431C13.5273 15.3806 13.0976 16.0779 12.496 16.5349C11.8983 16.988 11.1386 17.2146 10.2167 17.2146C9.07608 17.2146 8.13858 16.8259 7.40421 16.0486C6.66983 15.2673 6.30264 14.2009 6.30264 12.8494C6.30264 11.4197 6.67178 10.3103 7.41006 9.52124C8.14835 8.72827 9.11905 8.33179 10.3222 8.33179C11.373 8.33179 12.2265 8.64233 12.8827 9.26343C13.2733 9.63062 13.5663 10.158 13.7616 10.8455L12.0448 11.2556C11.9433 10.8103 11.7304 10.4587 11.4062 10.2009C11.0858 9.94312 10.6952 9.81421 10.2343 9.81421C9.59756 9.81421 9.07999 10.0427 8.68155 10.4998C8.28702 10.9568 8.08975 11.697 8.08975 12.7205C8.08975 13.8064 8.28506 14.5798 8.67569 15.0408C9.06631 15.5017 9.57413 15.7322 10.1991 15.7322C10.6601 15.7322 11.0565 15.5857 11.3886 15.2927C11.7206 14.9998 11.9589 14.5388 12.1034 13.9099ZM17.5351 17.0681V13.4529L14.3886 8.47827H16.4218L18.4433 11.8767L20.4237 8.47827H22.4218L19.2636 13.4646V17.0681H17.5351ZM25.2167 17.0681V9.9314H22.6679V8.47827H29.494V9.9314H26.9511V17.0681H25.2167ZM30.0448 12.8259C30.0448 11.9509 30.1757 11.2166 30.4374 10.6228C30.6327 10.1853 30.8983 9.79272 31.2343 9.44507C31.5741 9.09741 31.9452 8.8396 32.3476 8.67163C32.8827 8.44507 33.4999 8.33179 34.1991 8.33179C35.4648 8.33179 36.4765 8.72437 37.2343 9.50952C37.996 10.2947 38.3769 11.3865 38.3769 12.7849C38.3769 14.1716 37.9999 15.2576 37.246 16.0427C36.4921 16.824 35.4843 17.2146 34.2226 17.2146C32.9452 17.2146 31.9296 16.8259 31.1757 16.0486C30.4218 15.2673 30.0448 14.1931 30.0448 12.8259ZM31.8319 12.7673C31.8319 13.74 32.0565 14.4783 32.5058 14.9822C32.955 15.4822 33.5253 15.7322 34.2167 15.7322C34.9081 15.7322 35.4745 15.4841 35.9159 14.988C36.3612 14.488 36.5839 13.74 36.5839 12.7439C36.5839 11.7595 36.3671 11.0251 35.9335 10.5408C35.5038 10.0564 34.9315 9.81421 34.2167 9.81421C33.5019 9.81421 32.9257 10.0603 32.4882 10.5525C32.0507 11.0408 31.8319 11.7791 31.8319 12.7673ZM39.7597 17.0681V8.47827H41.494V12.2927L44.998 8.47827H47.33L44.0956 11.824L47.5058 17.0681H45.2616L42.9003 13.0369L41.494 14.4724V17.0681H39.7597ZM48.3554 17.0681V8.47827H50.0898V17.0681H48.3554ZM51.7655 17.0681V8.47827H53.453L56.9687 14.2146V8.47827H58.58V17.0681H56.8398L53.3769 11.4666V17.0681H51.7655ZM60.4198 17.0681V8.47827H66.789V9.9314H62.1542V11.8357H66.4667V13.283H62.1542V15.6208H66.953V17.0681H60.4198ZM67.9843 14.2732L69.6718 14.1091C69.7733 14.6755 69.9784 15.0916 70.287 15.3572C70.5995 15.6228 71.0194 15.7556 71.5468 15.7556C72.1054 15.7556 72.5253 15.6384 72.8065 15.4041C73.0917 15.1658 73.2343 14.8884 73.2343 14.572C73.2343 14.3689 73.1737 14.197 73.0526 14.0564C72.9355 13.9119 72.7284 13.7869 72.4315 13.6814C72.2284 13.6111 71.7655 13.4861 71.0429 13.3064C70.1132 13.0759 69.4608 12.7927 69.0858 12.4568C68.5585 11.9841 68.2948 11.408 68.2948 10.7283C68.2948 10.2908 68.4179 9.88257 68.664 9.50366C68.914 9.12085 69.2714 8.82983 69.7362 8.63062C70.205 8.4314 70.7694 8.33179 71.4296 8.33179C72.5077 8.33179 73.3183 8.56812 73.8612 9.04077C74.4081 9.51343 74.6952 10.1443 74.7226 10.9333L72.9882 11.0095C72.914 10.5681 72.7538 10.2517 72.5077 10.0603C72.2655 9.86499 71.9003 9.76733 71.412 9.76733C70.9081 9.76733 70.5136 9.87085 70.2284 10.0779C70.0448 10.2107 69.953 10.3884 69.953 10.6111C69.953 10.8142 70.039 10.988 70.2108 11.1326C70.4296 11.3162 70.9608 11.5076 71.8046 11.7068C72.6483 11.906 73.2714 12.113 73.6737 12.3279C74.08 12.5388 74.3964 12.8298 74.623 13.2009C74.8534 13.5681 74.9687 14.0232 74.9687 14.5662C74.9687 15.0583 74.8319 15.5193 74.5585 15.949C74.2851 16.3787 73.8983 16.699 73.3983 16.9099C72.8983 17.1169 72.2753 17.2205 71.5292 17.2205C70.4433 17.2205 69.6093 16.9705 69.0273 16.4705C68.4452 15.9666 68.0976 15.2341 67.9843 14.2732Z" fill="white"/>
<defs>
<radialGradient id="paint0_radial_92_5631" cx="0" cy="0" r="1" gradientUnits="userSpaceOnUse" gradientTransform="translate(35.3749 11.0825) scale(36.7085 16.3022)">
<stop stop-color="#6DC8C8"/>
<stop offset="0.3091" stop-color="#5C9DBF"/>
<stop offset="1" stop-color="#3232A9"/>
</radialGradient>
</defs>
</svg>
