<svg width="54" height="24" viewBox="0 0 54 24" fill="none" xmlns="http://www.w3.org/2000/svg">
<rect x="2" y="1.98901" width="51" height="20" rx="10" fill="url(#paint0_linear_83_1983)"/>
<rect x="2" y="1.98901" width="51" height="20" rx="10" stroke="#007400" stroke-width="3" stroke-linejoin="round"/>
<path d="M9.58789 13.1941L11.2754 13.03C11.377 13.5964 11.582 14.0125 11.8906 14.2781C12.2031 14.5437 12.623 14.6765 13.1504 14.6765C13.709 14.6765 14.1289 14.5593 14.4102 14.325C14.6953 14.0867 14.8379 13.8093 14.8379 13.4929C14.8379 13.2898 14.7773 13.1179 14.6562 12.9773C14.5391 12.8328 14.332 12.7078 14.0352 12.6023C13.832 12.532 13.3691 12.407 12.6465 12.2273C11.7168 11.9968 11.0645 11.7136 10.6895 11.3777C10.1621 10.905 9.89844 10.3289 9.89844 9.64917C9.89844 9.21167 10.0215 8.80347 10.2676 8.42456C10.5176 8.04175 10.875 7.75073 11.3398 7.55151C11.8086 7.35229 12.373 7.25269 13.0332 7.25269C14.1113 7.25269 14.9219 7.48901 15.4648 7.96167C16.0117 8.43433 16.2988 9.06519 16.3262 9.85425L14.5918 9.93042C14.5176 9.48901 14.3574 9.17261 14.1113 8.9812C13.8691 8.78589 13.5039 8.68823 13.0156 8.68823C12.5117 8.68823 12.1172 8.79175 11.832 8.99878C11.6484 9.13159 11.5566 9.30933 11.5566 9.53198C11.5566 9.73511 11.6426 9.90894 11.8145 10.0535C12.0332 10.2371 12.5645 10.4285 13.4082 10.6277C14.252 10.8269 14.875 11.0339 15.2773 11.2488C15.6836 11.4597 16 11.7507 16.2266 12.1218C16.457 12.489 16.5723 12.9441 16.5723 13.4871C16.5723 13.9792 16.4355 14.4402 16.1621 14.8699C15.8887 15.2996 15.502 15.6199 15.002 15.8308C14.502 16.0378 13.8789 16.1414 13.1328 16.1414C12.0469 16.1414 11.2129 15.8914 10.6309 15.3914C10.0488 14.8875 9.70117 14.155 9.58789 13.1941ZM19.9648 15.989V8.85229H17.416V7.39917H24.2422V8.85229H21.6992V15.989H19.9648ZM25.3145 15.989V7.39917H27.0488V15.989H25.3145ZM28.7246 15.989V7.39917H30.4121L33.9277 13.1355V7.39917H35.5391V15.989H33.7988L30.3359 10.3875V15.989H28.7246ZM41.375 12.8308V11.3835H45.1133V14.8054C44.75 15.157 44.2227 15.4675 43.5312 15.7371C42.8438 16.0027 42.1465 16.1355 41.4395 16.1355C40.541 16.1355 39.7578 15.948 39.0898 15.573C38.4219 15.1941 37.9199 14.655 37.584 13.9558C37.248 13.2527 37.0801 12.489 37.0801 11.6648C37.0801 10.7703 37.2676 9.97534 37.6426 9.28003C38.0176 8.58472 38.5664 8.05151 39.2891 7.68042C39.8398 7.39526 40.5254 7.25269 41.3457 7.25269C42.4121 7.25269 43.2441 7.47729 43.8418 7.92651C44.4434 8.37183 44.8301 8.98901 45.002 9.77808L43.2793 10.1003C43.1582 9.67847 42.9297 9.34644 42.5938 9.10425C42.2617 8.85815 41.8457 8.73511 41.3457 8.73511C40.5879 8.73511 39.9844 8.97534 39.5352 9.45581C39.0898 9.93628 38.8672 10.6492 38.8672 11.5945C38.8672 12.614 39.0938 13.3796 39.5469 13.8914C40 14.3992 40.5938 14.6531 41.3281 14.6531C41.6914 14.6531 42.0547 14.5828 42.418 14.4421C42.7852 14.2976 43.0996 14.1238 43.3613 13.9207V12.8308H41.375Z" fill="white"/>
<defs>
<linearGradient id="paint0_linear_83_1983" x1="27.5" y1="1.98901" x2="27.5" y2="21.989" gradientUnits="userSpaceOnUse">
<stop stop-color="#007400"/>
<stop offset="1"/>
</linearGradient>
</defs>
</svg>
