<svg width="43" height="44" viewBox="0 0 43 44" fill="none" xmlns="http://www.w3.org/2000/svg">
<path d="M21.3025 1.48901C32.7461 1.48926 42.0544 10.7996 42.0544 22.2419C42.0544 33.6844 32.7453 42.9929 21.3015 42.9929C9.85933 42.9927 0.550607 33.6856 0.550537 22.2419C0.550537 10.7981 9.86003 1.48901 21.3025 1.48901Z" fill="url(#paint0_radial_89_4106)" stroke="#417799"/>
<path d="M8.87085 25.989V17.3992H10.6052V25.989H8.87085ZM12.3103 25.989V17.4695H14.0447V24.5417H18.3572V25.989H12.3103ZM23.449 25.989H21.8025V19.7839C21.2009 20.3464 20.4919 20.7625 19.6755 21.032V19.5378C20.1052 19.3972 20.572 19.1316 21.0759 18.741C21.5798 18.3464 21.9255 17.8875 22.113 17.364H23.449V25.989ZM34.0251 25.989H32.1384L31.3884 24.0378H27.9548L27.2458 25.989H25.406L28.7517 17.3992H30.5857L34.0251 25.989ZM30.8318 22.5906L29.6482 19.4031L28.488 22.5906H30.8318Z" fill="white"/>
<defs>
<radialGradient id="paint0_radial_89_4106" cx="0" cy="0" r="1" gradientUnits="userSpaceOnUse" gradientTransform="translate(16.8298 14.0023) scale(19.3962)">
<stop stop-color="#BCB9FF"/>
<stop offset="1" stop-color="#4582C7"/>
</radialGradient>
</defs>
</svg>
