<svg width="49" height="24" viewBox="0 0 49 24" fill="none" xmlns="http://www.w3.org/2000/svg">
<rect x="2" y="1.98901" width="46" height="20" rx="10" fill="url(#paint0_linear_63_1803)"/>
<rect x="2" y="1.98901" width="46" height="20" rx="10" stroke="#9B9B9B" stroke-width="3" stroke-linejoin="round"/>
<path d="M10.1758 15.989V7.39917H12.7715L14.3301 13.2585L15.8711 7.39917H18.4727V15.989H16.8613V9.22729L15.1562 15.989H13.4863L11.7871 9.22729V15.989H10.1758ZM22.1289 15.989V8.85229H19.5801V7.39917H26.4062V8.85229H23.8633V15.989H22.1289ZM27.543 15.989V7.39917H33.4316V8.85229H29.2773V10.8855H32.8633V12.3386H29.2773V15.989H27.543ZM38.7168 15.989H37.0703V9.78394C36.4688 10.3464 35.7598 10.7625 34.9434 11.032V9.53784C35.373 9.39722 35.8398 9.13159 36.3438 8.74097C36.8477 8.34644 37.1934 7.88745 37.3809 7.36401H38.7168V15.989Z" fill="white"/>
<defs>
<linearGradient id="paint0_linear_63_1803" x1="25" y1="1.98901" x2="25" y2="21.989" gradientUnits="userSpaceOnUse">
<stop stop-color="#9B9B9B"/>
<stop offset="1" stop-color="#2E00AD"/>
</linearGradient>
</defs>
</svg>
