<svg width="61" height="24" viewBox="0 0 61 24" fill="none" xmlns="http://www.w3.org/2000/svg">
<rect x="2" y="1.98901" width="58" height="20" rx="10" fill="url(#paint0_linear_85_2069)"/>
<rect x="2" y="1.98901" width="58" height="20" rx="10" stroke="#417A74" stroke-width="3" stroke-linejoin="round"/>
<path d="M9.4375 15.989V14.4246L13.9492 8.85229H9.94727V7.39917H16.2344V8.74683L11.5293 14.5417H16.416V15.989H9.4375ZM17.5352 15.989V7.39917H19.2227L22.7383 13.1355V7.39917H24.3496V15.989H22.6094L19.1465 10.3875V15.989H17.5352ZM26.2012 15.989V7.39917H32.0898V8.85229H27.9355V10.8855H31.5215V12.3386H27.9355V15.989H26.2012ZM36.3906 15.989V14.2605H32.875V12.8191L36.6016 7.36401H37.9844V12.8132H39.0508V14.2605H37.9844V15.989H36.3906ZM36.3906 12.8132V9.87769L34.416 12.8132H36.3906ZM45.4023 14.4597V15.989H39.6309C39.6934 15.4109 39.8809 14.864 40.1934 14.3484C40.5059 13.8289 41.123 13.1414 42.0449 12.2859C42.7871 11.5945 43.2422 11.1257 43.4102 10.8796C43.6367 10.5398 43.75 10.2039 43.75 9.87183C43.75 9.50464 43.6504 9.22339 43.4512 9.02808C43.2559 8.82886 42.9844 8.72925 42.6367 8.72925C42.293 8.72925 42.0195 8.83276 41.8164 9.03979C41.6133 9.24683 41.4961 9.59058 41.4648 10.071L39.8242 9.90698C39.9219 9.00073 40.2285 8.35034 40.7441 7.95581C41.2598 7.56128 41.9043 7.36401 42.6777 7.36401C43.5254 7.36401 44.1914 7.59253 44.6758 8.04956C45.1602 8.50659 45.4023 9.07495 45.4023 9.75464C45.4023 10.1414 45.332 10.5105 45.1914 10.8621C45.0547 11.2097 44.8359 11.575 44.5352 11.9578C44.3359 12.2117 43.9766 12.5769 43.457 13.0535C42.9375 13.53 42.6074 13.8464 42.4668 14.0027C42.3301 14.1589 42.2188 14.3113 42.1328 14.4597H45.4023ZM46.4629 13.7097L48.0566 13.5164C48.1074 13.9226 48.2441 14.2332 48.4668 14.448C48.6895 14.6628 48.959 14.7703 49.2754 14.7703C49.6152 14.7703 49.9004 14.6414 50.1309 14.3835C50.3652 14.1257 50.4824 13.7781 50.4824 13.3406C50.4824 12.9265 50.3711 12.5984 50.1484 12.3562C49.9258 12.114 49.6543 11.9929 49.334 11.9929C49.123 11.9929 48.8711 12.0339 48.5781 12.116L48.7598 10.7742C49.2051 10.7859 49.5449 10.6902 49.7793 10.4871C50.0137 10.28 50.1309 10.0066 50.1309 9.66675C50.1309 9.37769 50.0449 9.14722 49.873 8.97534C49.7012 8.80347 49.4727 8.71753 49.1875 8.71753C48.9062 8.71753 48.666 8.81519 48.4668 9.0105C48.2676 9.20581 48.1465 9.49097 48.1035 9.86597L46.5859 9.60815C46.6914 9.08862 46.8496 8.67456 47.0605 8.36597C47.2754 8.05347 47.5723 7.80933 47.9512 7.63354C48.334 7.45386 48.7617 7.36401 49.2344 7.36401C50.043 7.36401 50.6914 7.62183 51.1797 8.13745C51.582 8.55933 51.7832 9.03589 51.7832 9.56714C51.7832 10.321 51.3711 10.9226 50.5469 11.3718C51.0391 11.4773 51.4316 11.7136 51.7246 12.0808C52.0215 12.448 52.1699 12.8914 52.1699 13.4109C52.1699 14.1648 51.8945 14.8074 51.3438 15.3386C50.793 15.8699 50.1074 16.1355 49.2871 16.1355C48.5098 16.1355 47.8652 15.9128 47.3535 15.4675C46.8418 15.0183 46.5449 14.4324 46.4629 13.7097Z" fill="white"/>
<defs>
<linearGradient id="paint0_linear_85_2069" x1="31" y1="1.98901" x2="31" y2="21.989" gradientUnits="userSpaceOnUse">
<stop stop-color="#56F7EC"/>
<stop offset="1" stop-color="#417A74"/>
</linearGradient>
</defs>
</svg>
