<svg width="17" height="156" viewBox="0 0 17 156" fill="none" xmlns="http://www.w3.org/2000/svg">
<path d="M8.39029 0.212158C4.02469 0.212158 0.179688 3.74036 0.179688 8.22396C0.179688 10.6382 1.22189 12.8085 2.88079 14.3105C3.75399 15.1012 3.75399 16.455 2.88079 17.2456C1.22189 18.7477 0.179688 20.918 0.179688 23.3321C0.179688 25.7462 1.22189 27.9166 2.88079 29.4186C3.75399 30.2093 3.75399 31.5631 2.88079 32.3537C1.22189 33.8558 0.179688 36.0261 0.179688 38.4403C0.179688 40.8545 1.22189 43.0248 2.88079 44.5268C3.75399 45.3175 3.75399 46.6713 2.88079 47.4619C1.22189 48.964 0.179688 51.1343 0.179688 53.5485C0.179688 55.9627 1.22189 58.133 2.88079 59.635C3.75399 60.4256 3.75399 61.7795 2.88079 62.5701C1.22189 64.0722 0.179688 66.2425 0.179688 68.6567C0.179688 71.624 1.75529 74.2208 4.11429 75.6628C4.71699 76.0312 5.10649 76.6647 5.10649 77.3711V151.989C5.10649 151.989 5.02719 155.273 8.39019 155.273C11.7532 155.273 11.6753 151.989 11.6753 151.989V77.3708C11.6753 76.6644 12.0647 76.031 12.6674 75.6625C15.0262 74.2205 16.6017 71.6237 16.6017 68.6566C16.6017 66.2424 15.5595 64.0721 13.9006 62.5701C13.0274 61.7795 13.0274 60.4256 13.9006 59.635C15.5595 58.133 16.6017 55.9627 16.6017 53.5485C16.6017 51.1343 15.5595 48.964 13.9006 47.462C13.0274 46.6713 13.0274 45.3175 13.9006 44.5269C15.5595 43.0249 16.6017 40.8546 16.6017 38.4404C16.6017 36.0262 15.5595 33.8559 13.9006 32.3539C13.0274 31.5632 13.0274 30.2094 13.9006 29.4188C15.5595 27.9168 16.6017 25.7465 16.6017 23.3323C16.6017 20.9195 15.5606 18.7502 13.9034 17.2483C13.0482 16.4732 13.0175 15.1427 13.8566 14.3503C15.0673 13.2069 16.6017 11.2061 16.6017 8.22416C16.6017 3.57936 12.756 0.212158 8.39029 0.212158Z" fill="url(#paint0_linear_86_2754)"/>
<path d="M8.39069 76.9283C12.9255 76.9283 16.6017 73.2522 16.6017 68.7174C16.6017 64.1825 12.9255 60.5063 8.39069 60.5063C3.85588 60.5063 0.179688 64.1825 0.179688 68.7174C0.179688 73.2522 3.85588 76.9283 8.39069 76.9283Z" fill="url(#paint1_radial_86_2754)"/>
<path d="M8.39069 61.7094C12.9255 61.7094 16.6017 58.0332 16.6017 53.4984C16.6017 48.9635 12.9255 45.2874 8.39069 45.2874C3.85588 45.2874 0.179688 48.9635 0.179688 53.4984C0.179688 58.0332 3.85588 61.7094 8.39069 61.7094Z" fill="url(#paint2_radial_86_2754)"/>
<path d="M8.39069 46.6537C12.9255 46.6537 16.6017 42.9775 16.6017 38.4427C16.6017 33.9079 12.9255 30.2317 8.39069 30.2317C3.85588 30.2317 0.179688 33.9079 0.179688 38.4427C0.179688 42.9775 3.85588 46.6537 8.39069 46.6537Z" fill="url(#paint3_radial_86_2754)"/>
<path d="M8.39069 31.5158C12.9255 31.5158 16.6017 27.8396 16.6017 23.3048C16.6017 18.7699 12.9255 15.0938 8.39069 15.0938C3.85588 15.0938 0.179688 18.7699 0.179688 23.3048C0.179688 27.8396 3.85588 31.5158 8.39069 31.5158Z" fill="url(#paint4_radial_86_2754)"/>
<path d="M16.6017 8.224C16.6017 3.6892 12.9255 0.197998 8.39069 0.197998C3.85589 0.197998 0.179688 3.6892 0.179688 8.224C0.179688 12.7588 3.85589 16.435 8.39069 16.435C12.9255 16.435 16.6017 12.7588 16.6017 8.224Z" fill="url(#paint5_radial_86_2754)"/>
<defs>
<linearGradient id="paint0_linear_86_2754" x1="4.77789" y1="77.7427" x2="11.874" y2="77.7427" gradientUnits="userSpaceOnUse">
<stop stop-color="#472E07"/>
<stop offset="0.3586" stop-color="#B0720F"/>
<stop offset="1" stop-color="#472E07"/>
</linearGradient>
<radialGradient id="paint1_radial_86_2754" cx="0" cy="0" r="1" gradientUnits="userSpaceOnUse" gradientTransform="translate(5.27049 66.9109) scale(8.211)">
<stop stop-color="#B0720F"/>
<stop offset="1" stop-color="#472E07"/>
</radialGradient>
<radialGradient id="paint2_radial_86_2754" cx="0" cy="0" r="1" gradientUnits="userSpaceOnUse" gradientTransform="translate(5.27049 51.5277) scale(8.211 8.211)">
<stop stop-color="#B0720F"/>
<stop offset="1" stop-color="#472E07"/>
</radialGradient>
<radialGradient id="paint3_radial_86_2754" cx="0" cy="0" r="1" gradientUnits="userSpaceOnUse" gradientTransform="translate(5.59899 36.1437) scale(8.211)">
<stop stop-color="#B0720F"/>
<stop offset="1" stop-color="#472E07"/>
</radialGradient>
<radialGradient id="paint4_radial_86_2754" cx="0" cy="0" r="1" gradientUnits="userSpaceOnUse" gradientTransform="translate(5.76319 20.8415) scale(8.211)">
<stop stop-color="#B0720F"/>
<stop offset="1" stop-color="#472E07"/>
</radialGradient>
<radialGradient id="paint5_radial_86_2754" cx="0" cy="0" r="1" gradientUnits="userSpaceOnUse" gradientTransform="translate(5.76319 5.8532) scale(8.1649)">
<stop stop-color="#B0720F"/>
<stop offset="1" stop-color="#472E07"/>
</radialGradient>
</defs>
</svg>
