<svg width="61" height="101" viewBox="0 0 61 101" fill="none" xmlns="http://www.w3.org/2000/svg">
<path d="M30.4442 0.0217285C36.1096 0.0217285 40.7023 2.75547 40.7023 6.12768C40.7023 9.4999 36.1096 12.2336 30.4442 12.2336C25.9883 16.0693 19.3802 29.1052 19.3802 50.0216C19.3802 54.8362 19.7303 59.2332 20.3237 63.1965C20.6803 65.3782 17.4834 68.2056 12.7853 69.7158C7.77139 71.3275 2.94003 70.8339 2.03581 68.6076C1.99201 68.4997 1.95815 68.3898 1.93394 68.278C0.780895 62.5669 0.175781 56.3831 0.175781 50.0217C0.175781 37.6903 2.44978 26.0264 6.57947 17.1785C11.8915 5.79422 19.9212 0.0217285 30.4442 0.0217285Z" fill="#39E1C3"/>
<path d="M1.9338 68.278C3.01578 73.6378 4.58014 78.5814 6.57944 82.8649C11.8916 94.2492 19.9213 100.022 30.4442 100.022C40.9672 100.022 48.9969 94.2492 54.309 82.8649C56.3103 78.577 57.8758 73.6278 58.9579 68.2618L58.9569 68.2623C59.4191 66.0689 56.1742 63.1847 51.4112 61.6536C46.3972 60.0419 41.5995 60.5401 40.6953 62.7664C40.6407 62.901 40.6015 63.0387 40.5772 63.1791H40.5672C38.5841 76.4444 33.8758 84.8555 30.444 87.8096C27.0137 84.8567 22.308 76.4518 20.3234 63.1965C20.2994 63.0498 20.2835 62.9067 20.2265 62.7664C19.3223 60.5402 14.5246 60.0419 9.51061 61.6536C4.73979 63.1873 1.51452 66.0414 1.9338 68.278Z" fill="#D4AE40"/>
<path d="M58.8903 68.5943C58.454 70.811 53.1511 71.3276 48.137 69.7159C43.4107 68.1967 40.1695 65.3394 40.5716 63.1525C41.1609 59.2007 41.5085 54.8184 41.5085 50.0218C41.5085 29.1054 34.9003 16.0695 30.4444 12.2338C24.779 12.2338 20.1863 9.5001 20.1863 6.12788C20.1863 2.75566 24.779 0.0217285 30.4444 0.0217285C40.9674 0.0217285 48.9971 5.79422 54.3091 17.1785C58.4388 26.0264 60.7128 37.6903 60.7128 50.0217C60.7128 56.5007 60.0851 62.7954 58.8903 68.5943Z" fill="#E139CB"/>
<mask id="mask0_91_5154" style="mask-type:alpha" maskUnits="userSpaceOnUse" x="23" y="0" width="38" height="101">
<ellipse cx="42.3652" cy="50.2542" rx="18.5" ry="50" fill="black"/>
</mask>
<g mask="url(#mask0_91_5154)">
<path d="M60.7127 50.0217C60.7127 62.3531 58.4387 74.017 54.309 82.865C48.9969 94.2492 40.9672 100.022 30.4442 100.022C19.9213 100.022 11.8915 94.2491 6.57947 82.865C2.44978 74.017 0.175781 62.3531 0.175781 50.0217C0.175781 37.6903 2.44978 26.0264 6.57947 17.1785C11.8915 5.79422 19.9212 0.0217285 30.4442 0.0217285C40.9673 0.0217285 48.997 5.79422 54.309 17.1785C58.4387 26.0264 60.7127 37.6902 60.7127 50.0217ZM30.4442 87.8097C34.9002 83.974 41.5083 70.9382 41.5083 50.0217C41.5083 29.1053 34.9002 16.0694 30.4442 12.2337C25.9883 16.0694 19.3802 29.1053 19.3802 50.0217C19.3802 70.9382 25.9883 83.974 30.4442 87.8097Z" fill="url(#paint0_radial_91_5154)" fill-opacity="0.7"/>
</g>
<mask id="mask1_91_5154" style="mask-type:alpha" maskUnits="userSpaceOnUse" x="2" y="0" width="36" height="101">
<ellipse cx="20.4478" cy="50.1379" rx="17.5" ry="50" fill="black"/>
</mask>
<g mask="url(#mask1_91_5154)">
<path d="M60.7127 50.0217C60.7127 62.3531 58.4387 74.017 54.309 82.865C48.9969 94.2492 40.9672 100.022 30.4442 100.022C19.9213 100.022 11.8915 94.2491 6.57947 82.865C2.44978 74.017 0.175781 62.3531 0.175781 50.0217C0.175781 37.6903 2.44978 26.0264 6.57947 17.1785C11.8915 5.79422 19.9212 0.0217285 30.4442 0.0217285C40.9673 0.0217285 48.997 5.79422 54.309 17.1785C58.4387 26.0264 60.7127 37.6902 60.7127 50.0217ZM30.4442 87.8097C34.9002 83.974 41.5083 70.9382 41.5083 50.0217C41.5083 29.1053 34.9002 16.0694 30.4442 12.2337C25.9883 16.0694 19.3802 29.1053 19.3802 50.0217C19.3802 70.9382 25.9883 83.974 30.4442 87.8097Z" fill="url(#paint1_radial_91_5154)" fill-opacity="0.7"/>
</g>
<path opacity="0.7" d="M60.7127 50.0217C60.7127 62.3531 58.4387 74.017 54.309 82.865C48.9969 94.2492 40.9672 100.022 30.4442 100.022C19.9213 100.022 11.8915 94.2491 6.57947 82.865C2.44978 74.017 0.175781 62.3531 0.175781 50.0217C0.175781 37.6903 2.44978 26.0264 6.57947 17.1785C11.8915 5.79422 19.9212 0.0217285 30.4442 0.0217285C40.9673 0.0217285 48.997 5.79422 54.309 17.1785C58.4387 26.0264 60.7127 37.6902 60.7127 50.0217ZM30.4442 87.8097C34.9002 83.974 41.5083 70.9382 41.5083 50.0217C41.5083 29.1053 34.9002 16.0694 30.4442 12.2337C25.9883 16.0694 19.3802 29.1053 19.3802 50.0217C19.3802 70.9382 25.9883 83.974 30.4442 87.8097Z" fill="url(#paint2_radial_91_5154)"/>
<defs>
<radialGradient id="paint0_radial_91_5154" cx="0" cy="0" r="1" gradientUnits="userSpaceOnUse" gradientTransform="translate(30.4446 50.0216) rotate(-90) scale(50.6518 30.5031)">
<stop offset="0.5625" stop-color="#01033F" stop-opacity="0"/>
<stop offset="1" stop-color="#01033F"/>
</radialGradient>
<radialGradient id="paint1_radial_91_5154" cx="0" cy="0" r="1" gradientUnits="userSpaceOnUse" gradientTransform="translate(31.1803 47.9986) rotate(-90) scale(70.521 33.7937)">
<stop offset="0.3532" stop-color="#01033F"/>
<stop offset="0.9312" stop-color="#01033F" stop-opacity="0"/>
</radialGradient>
<radialGradient id="paint2_radial_91_5154" cx="0" cy="0" r="1" gradientUnits="userSpaceOnUse" gradientTransform="translate(23.9721 49.8378) rotate(-90) scale(67.5873 33.1313)">
<stop offset="0.5676" stop-color="white" stop-opacity="0"/>
<stop offset="0.6557" stop-color="white"/>
<stop offset="0.764423" stop-color="white" stop-opacity="0"/>
</radialGradient>
</defs>
</svg>
