<svg width="52" height="24" viewBox="0 0 52 24" fill="none" xmlns="http://www.w3.org/2000/svg">
<rect x="2" y="1.98901" width="49" height="20" rx="10" fill="url(#paint0_linear_64_1909)"/>
<rect x="2" y="1.98901" width="49" height="20" rx="10" stroke="#C548CC" stroke-width="3" stroke-linejoin="round"/>
<path d="M9.67773 11.7468C9.67773 10.8718 9.80859 10.1375 10.0703 9.5437C10.2656 9.1062 10.5312 8.71362 10.8672 8.36597C11.207 8.01831 11.5781 7.7605 11.9805 7.59253C12.5156 7.36597 13.1328 7.25269 13.832 7.25269C15.0977 7.25269 16.1094 7.64526 16.8672 8.43042C17.6289 9.21558 18.0098 10.3074 18.0098 11.7058C18.0098 13.0925 17.6328 14.1785 16.8789 14.9636C16.125 15.7449 15.1172 16.1355 13.8555 16.1355C12.5781 16.1355 11.5625 15.7468 10.8086 14.9695C10.0547 14.1882 9.67773 13.114 9.67773 11.7468ZM11.4648 11.6882C11.4648 12.6609 11.6895 13.3992 12.1387 13.9031C12.5879 14.4031 13.1582 14.6531 13.8496 14.6531C14.541 14.6531 15.1074 14.405 15.5488 13.9089C15.9941 13.4089 16.2168 12.6609 16.2168 11.6648C16.2168 10.6804 16 9.94604 15.5664 9.46167C15.1367 8.97729 14.5645 8.73511 13.8496 8.73511C13.1348 8.73511 12.5586 8.9812 12.1211 9.47339C11.6836 9.96167 11.4648 10.7 11.4648 11.6882ZM19.3457 15.989V7.39917H21.9414L23.5 13.2585L25.041 7.39917H27.6426V15.989H26.0312V9.22729L24.3262 15.989H22.6562L20.957 9.22729V15.989H19.3457ZM37.1113 15.989H35.2246L34.4746 14.0378H31.041L30.332 15.989H28.4922L31.8379 7.39917H33.6719L37.1113 15.989ZM33.918 12.5906L32.7344 9.40308L31.5742 12.5906H33.918ZM41.8867 15.989H40.2402V9.78394C39.6387 10.3464 38.9297 10.7625 38.1133 11.032V9.53784C38.543 9.39722 39.0098 9.13159 39.5137 8.74097C40.0176 8.34644 40.3633 7.88745 40.5508 7.36401H41.8867V15.989Z" fill="white"/>
<defs>
<linearGradient id="paint0_linear_64_1909" x1="26.5" y1="1.98901" x2="26.5" y2="21.989" gradientUnits="userSpaceOnUse">
<stop stop-color="#911767"/>
<stop offset="1" stop-color="#C548CC"/>
</linearGradient>
</defs>
</svg>
