<svg width="58" height="24" viewBox="0 0 58 24" fill="none" xmlns="http://www.w3.org/2000/svg">
<rect x="2" y="1.98901" width="55" height="20" rx="10" fill="url(#paint0_linear_64_1970)"/>
<rect x="2" y="1.98901" width="55" height="20" rx="10" stroke="#366B99" stroke-width="3" stroke-linejoin="round"/>
<path d="M10.3574 15.989V7.39917H13.1406C14.1953 7.39917 14.8828 7.44214 15.2031 7.52808C15.6953 7.65698 16.1074 7.93823 16.4395 8.37183C16.7715 8.80151 16.9375 9.35815 16.9375 10.0417C16.9375 10.5691 16.8418 11.0125 16.6504 11.3718C16.459 11.7312 16.2148 12.0144 15.918 12.2214C15.625 12.4246 15.3262 12.5593 15.0215 12.6257C14.6074 12.7078 14.0078 12.7488 13.2227 12.7488H12.0918V15.989H10.3574ZM12.0918 8.85229V11.2898H13.041C13.7246 11.2898 14.1816 11.2449 14.4121 11.155C14.6426 11.0652 14.8223 10.9246 14.9512 10.7332C15.084 10.5417 15.1504 10.3191 15.1504 10.0652C15.1504 9.75269 15.0586 9.49487 14.875 9.29175C14.6914 9.08862 14.459 8.96167 14.1777 8.91089C13.9707 8.87183 13.5547 8.85229 12.9297 8.85229H12.0918ZM18.3555 7.39917H21.5254C22.2402 7.39917 22.7852 7.45386 23.1602 7.56323C23.6641 7.71167 24.0957 7.97534 24.4551 8.35425C24.8145 8.73315 25.0879 9.198 25.2754 9.74878C25.4629 10.2957 25.5566 10.9714 25.5566 11.7761C25.5566 12.4832 25.4688 13.0925 25.293 13.6042C25.0781 14.2292 24.7715 14.7351 24.373 15.1218C24.0723 15.4148 23.666 15.6433 23.1543 15.8074C22.7715 15.9285 22.2598 15.989 21.6191 15.989H18.3555V7.39917ZM20.0898 8.85229V14.5417H21.3848C21.8691 14.5417 22.2188 14.5144 22.4336 14.4597C22.7148 14.3894 22.9473 14.2703 23.1309 14.1023C23.3184 13.9343 23.4707 13.6589 23.5879 13.2761C23.7051 12.8894 23.7637 12.364 23.7637 11.7C23.7637 11.0359 23.7051 10.5261 23.5879 10.1707C23.4707 9.81519 23.3066 9.53784 23.0957 9.33862C22.8848 9.1394 22.6172 9.00464 22.293 8.93433C22.0508 8.87964 21.5762 8.85229 20.8691 8.85229H20.0898ZM27.0332 15.989V7.39917H29.8164C30.8711 7.39917 31.5586 7.44214 31.8789 7.52808C32.3711 7.65698 32.7832 7.93823 33.1152 8.37183C33.4473 8.80151 33.6133 9.35815 33.6133 10.0417C33.6133 10.5691 33.5176 11.0125 33.3262 11.3718C33.1348 11.7312 32.8906 12.0144 32.5938 12.2214C32.3008 12.4246 32.002 12.5593 31.6973 12.6257C31.2832 12.7078 30.6836 12.7488 29.8984 12.7488H28.7676V15.989H27.0332ZM28.7676 8.85229V11.2898H29.7168C30.4004 11.2898 30.8574 11.2449 31.0879 11.155C31.3184 11.0652 31.498 10.9246 31.627 10.7332C31.7598 10.5417 31.8262 10.3191 31.8262 10.0652C31.8262 9.75269 31.7344 9.49487 31.5508 9.29175C31.3672 9.08862 31.1348 8.96167 30.8535 8.91089C30.6465 8.87183 30.2305 8.85229 29.6055 8.85229H28.7676ZM35.0605 15.989V7.39917H36.7949V11.2136L40.2988 7.39917H42.6309L39.3965 10.7449L42.8066 15.989H40.5625L38.2012 11.9578L36.7949 13.3933V15.989H35.0605ZM47.5586 15.989H45.9121V9.78394C45.3105 10.3464 44.6016 10.7625 43.7852 11.032V9.53784C44.2148 9.39722 44.6816 9.13159 45.1855 8.74097C45.6895 8.34644 46.0352 7.88745 46.2227 7.36401H47.5586V15.989Z" fill="white"/>
<defs>
<linearGradient id="paint0_linear_64_1970" x1="29.5" y1="1.98901" x2="29.5" y2="21.989" gradientUnits="userSpaceOnUse">
<stop stop-color="#DC9443"/>
<stop offset="1" stop-color="#366B99"/>
</linearGradient>
</defs>
</svg>
