<svg width="37" height="24" viewBox="0 0 37 24" fill="none" xmlns="http://www.w3.org/2000/svg">
<rect x="2" y="1.98901" width="34" height="20" rx="10" fill="url(#paint0_linear_42_2643)"/>
<rect x="2" y="1.98901" width="34" height="20" rx="10" stroke="#7768FF" stroke-width="3" stroke-linejoin="round"/>
<path d="M12.877 15.989V7.39917H18.7656V8.85229H14.6113V10.8855H18.1973V12.3386H14.6113V15.989H12.877ZM19.873 14.0027L21.4668 13.8269C21.5059 14.1511 21.6074 14.3914 21.7715 14.5476C21.9355 14.7039 22.1523 14.782 22.4219 14.782C22.7617 14.782 23.0508 14.6257 23.2891 14.3132C23.5273 14.0007 23.6797 13.3523 23.7461 12.3679C23.332 12.8484 22.8145 13.0886 22.1934 13.0886C21.5176 13.0886 20.9336 12.8289 20.4414 12.3093C19.9531 11.7859 19.709 11.1062 19.709 10.2703C19.709 9.39917 19.9668 8.698 20.4824 8.16675C21.002 7.63159 21.6621 7.36401 22.4629 7.36401C23.334 7.36401 24.0488 7.7019 24.6074 8.37769C25.166 9.04956 25.4453 10.157 25.4453 11.7C25.4453 13.2703 25.1543 14.4031 24.5723 15.0984C23.9902 15.7937 23.2324 16.1414 22.2988 16.1414C21.627 16.1414 21.084 15.9636 20.6699 15.6082C20.2559 15.2488 19.9902 14.7136 19.873 14.0027ZM23.5996 10.405C23.5996 9.87378 23.4766 9.46167 23.2305 9.1687C22.9883 8.87573 22.707 8.72925 22.3867 8.72925C22.082 8.72925 21.8281 8.85034 21.625 9.09253C21.4258 9.33081 21.3262 9.72339 21.3262 10.2703C21.3262 10.825 21.4355 11.2332 21.6543 11.4949C21.873 11.7527 22.1465 11.8816 22.4746 11.8816C22.791 11.8816 23.0566 11.7566 23.2715 11.5066C23.4902 11.2566 23.5996 10.8894 23.5996 10.405Z" fill="white"/>
<defs>
<linearGradient id="paint0_linear_42_2643" x1="19" y1="1.98901" x2="19" y2="21.989" gradientUnits="userSpaceOnUse">
<stop stop-color="#7768FF"/>
<stop offset="1" stop-color="#2F5F5B"/>
</linearGradient>
</defs>
</svg>
