<svg width="53" height="24" viewBox="0 0 53 24" fill="none" xmlns="http://www.w3.org/2000/svg">
<rect x="2" y="1.98901" width="50" height="20" rx="10" fill="url(#paint0_linear_67_1864)"/>
<rect x="2" y="1.98901" width="50" height="20" rx="10" stroke="#1C474A" stroke-width="3" stroke-linejoin="round"/>
<path d="M10.2012 15.989V7.39917H13.8516C14.7695 7.39917 15.4355 7.47729 15.8496 7.63354C16.2676 7.78589 16.6016 8.05933 16.8516 8.45386C17.1016 8.84839 17.2266 9.29956 17.2266 9.80737C17.2266 10.4519 17.0371 10.9851 16.6582 11.407C16.2793 11.825 15.7129 12.0886 14.959 12.198C15.334 12.4167 15.6426 12.657 15.8848 12.9187C16.1309 13.1804 16.4609 13.6453 16.875 14.3132L17.9238 15.989H15.8496L14.5957 14.1199C14.1504 13.4519 13.8457 13.032 13.6816 12.8601C13.5176 12.6843 13.3438 12.5652 13.1602 12.5027C12.9766 12.4363 12.6855 12.4031 12.2871 12.4031H11.9355V15.989H10.2012ZM11.9355 11.032H13.2188C14.0508 11.032 14.5703 10.9968 14.7773 10.9265C14.9844 10.8562 15.1465 10.7351 15.2637 10.5632C15.3809 10.3914 15.4395 10.1765 15.4395 9.9187C15.4395 9.62964 15.3613 9.39722 15.2051 9.22144C15.0527 9.04175 14.8359 8.92847 14.5547 8.88159C14.4141 8.86206 13.9922 8.85229 13.2891 8.85229H11.9355V11.032ZM18.873 15.989V7.39917H20.6074V10.78H24.0059V7.39917H25.7402V15.989H24.0059V12.2332H20.6074V15.989H18.873ZM27.1875 11.7468C27.1875 10.8718 27.3184 10.1375 27.5801 9.5437C27.7754 9.1062 28.041 8.71362 28.377 8.36597C28.7168 8.01831 29.0879 7.7605 29.4902 7.59253C30.0254 7.36597 30.6426 7.25269 31.3418 7.25269C32.6074 7.25269 33.6191 7.64526 34.377 8.43042C35.1387 9.21558 35.5195 10.3074 35.5195 11.7058C35.5195 13.0925 35.1426 14.1785 34.3887 14.9636C33.6348 15.7449 32.627 16.1355 31.3652 16.1355C30.0879 16.1355 29.0723 15.7468 28.3184 14.9695C27.5645 14.1882 27.1875 13.114 27.1875 11.7468ZM28.9746 11.6882C28.9746 12.6609 29.1992 13.3992 29.6484 13.9031C30.0977 14.4031 30.668 14.6531 31.3594 14.6531C32.0508 14.6531 32.6172 14.405 33.0586 13.9089C33.5039 13.4089 33.7266 12.6609 33.7266 11.6648C33.7266 10.6804 33.5098 9.94604 33.0762 9.46167C32.6465 8.97729 32.0742 8.73511 31.3594 8.73511C30.6445 8.73511 30.0684 8.9812 29.6309 9.47339C29.1934 9.96167 28.9746 10.7 28.9746 11.6882ZM36.873 7.39917H40.043C40.7578 7.39917 41.3027 7.45386 41.6777 7.56323C42.1816 7.71167 42.6133 7.97534 42.9727 8.35425C43.332 8.73315 43.6055 9.198 43.793 9.74878C43.9805 10.2957 44.0742 10.9714 44.0742 11.7761C44.0742 12.4832 43.9863 13.0925 43.8105 13.6042C43.5957 14.2292 43.2891 14.7351 42.8906 15.1218C42.5898 15.4148 42.1836 15.6433 41.6719 15.8074C41.2891 15.9285 40.7773 15.989 40.1367 15.989H36.873V7.39917ZM38.6074 8.85229V14.5417H39.9023C40.3867 14.5417 40.7363 14.5144 40.9512 14.4597C41.2324 14.3894 41.4648 14.2703 41.6484 14.1023C41.8359 13.9343 41.9883 13.6589 42.1055 13.2761C42.2227 12.8894 42.2812 12.364 42.2812 11.7C42.2812 11.0359 42.2227 10.5261 42.1055 10.1707C41.9883 9.81519 41.8242 9.53784 41.6133 9.33862C41.4023 9.1394 41.1348 9.00464 40.8105 8.93433C40.5684 8.87964 40.0938 8.85229 39.3867 8.85229H38.6074Z" fill="white"/>
<defs>
<linearGradient id="paint0_linear_67_1864" x1="27" y1="1.98901" x2="27" y2="21.989" gradientUnits="userSpaceOnUse">
<stop stop-color="#1C474A"/>
<stop offset="1" stop-color="#FF5E2D"/>
</linearGradient>
</defs>
</svg>
