<svg width="37" height="24" viewBox="0 0 37 24" fill="none" xmlns="http://www.w3.org/2000/svg">
<rect x="2" y="1.98901" width="34" height="20" rx="10" fill="url(#paint0_linear_84_2048)"/>
<rect x="2" y="1.98901" width="34" height="20" rx="10" stroke="#5ABA64" stroke-width="3" stroke-linejoin="round"/>
<path d="M12.1855 7.39917H13.9199V12.0515C13.9199 12.7898 13.9414 13.2683 13.9844 13.4871C14.0586 13.8386 14.2344 14.1218 14.5117 14.3367C14.793 14.5476 15.1758 14.6531 15.6602 14.6531C16.1523 14.6531 16.5234 14.5535 16.7734 14.3542C17.0234 14.1511 17.1738 13.9031 17.2246 13.6101C17.2754 13.3171 17.3008 12.8308 17.3008 12.1511V7.39917H19.0352V11.9109C19.0352 12.9421 18.9883 13.6707 18.8945 14.0964C18.8008 14.5222 18.627 14.8816 18.373 15.1746C18.123 15.4675 17.7871 15.7019 17.3652 15.8777C16.9434 16.0496 16.3926 16.1355 15.7129 16.1355C14.8926 16.1355 14.2695 16.0417 13.8438 15.8542C13.4219 15.6628 13.0879 15.4167 12.8418 15.116C12.5957 14.8113 12.4336 14.4929 12.3555 14.1609C12.2422 13.6687 12.1855 12.9421 12.1855 11.9812V7.39917ZM26.084 9.50269L24.4902 9.67847C24.4512 9.35034 24.3496 9.10815 24.1855 8.9519C24.0215 8.79565 23.8086 8.71753 23.5469 8.71753C23.1992 8.71753 22.9043 8.87378 22.6621 9.18628C22.4238 9.49878 22.2734 10.1492 22.2109 11.1375C22.6211 10.6531 23.1309 10.4109 23.7402 10.4109C24.4277 10.4109 25.0156 10.6726 25.5039 11.196C25.9961 11.7195 26.2422 12.3953 26.2422 13.2234C26.2422 14.1023 25.9844 14.8074 25.4688 15.3386C24.9531 15.8699 24.291 16.1355 23.4824 16.1355C22.6152 16.1355 21.9023 15.7996 21.3438 15.1277C20.7852 14.4519 20.5059 13.3464 20.5059 11.8113C20.5059 10.2371 20.7969 9.10229 21.3789 8.40698C21.9609 7.71167 22.7168 7.36401 23.6465 7.36401C24.2988 7.36401 24.8379 7.54761 25.2637 7.91479C25.6934 8.27808 25.9668 8.80737 26.084 9.50269ZM22.3516 13.0945C22.3516 13.6296 22.4746 14.0437 22.7207 14.3367C22.9668 14.6257 23.248 14.7703 23.5645 14.7703C23.8691 14.7703 24.123 14.6511 24.3262 14.4128C24.5293 14.1746 24.6309 13.7839 24.6309 13.241C24.6309 12.6824 24.5215 12.2742 24.3027 12.0164C24.084 11.7546 23.8105 11.6238 23.4824 11.6238C23.166 11.6238 22.8984 11.7488 22.6797 11.9988C22.4609 12.2449 22.3516 12.6101 22.3516 13.0945Z" fill="white"/>
<defs>
<linearGradient id="paint0_linear_84_2048" x1="19" y1="1.98901" x2="19" y2="21.989" gradientUnits="userSpaceOnUse">
<stop stop-color="#39A75A"/>
<stop offset="1" stop-color="#5ABA64"/>
</linearGradient>
</defs>
</svg>
