<svg width="58" height="24" viewBox="0 0 58 24" fill="none" xmlns="http://www.w3.org/2000/svg">
<rect x="2" y="1.98901" width="55" height="20" rx="10" fill="url(#paint0_linear_46_4308)"/>
<rect x="2" y="1.98901" width="55" height="20" rx="10" stroke="#2C8A0C" stroke-width="3" stroke-linejoin="round"/>
<path d="M10.3633 15.989V7.39917H12.0977V10.78H15.4961V7.39917H17.2305V15.989H15.4961V12.2332H12.0977V15.989H10.3633ZM19.0469 15.989V7.39917H20.7344L24.25 13.1355V7.39917H25.8613V15.989H24.1211L20.6582 10.3875V15.989H19.0469ZM27.7129 15.989V7.39917H33.6016V8.85229H29.4473V10.8855H33.0332V12.3386H29.4473V15.989H27.7129ZM38.8867 15.989H37.2402V9.78394C36.6387 10.3464 35.9297 10.7625 35.1133 11.032V9.53784C35.543 9.39722 36.0098 9.13159 36.5137 8.74097C37.0176 8.34644 37.3633 7.88745 37.5508 7.36401H38.8867V15.989ZM49.4629 15.989H47.5762L46.8262 14.0378H43.3926L42.6836 15.989H40.8438L44.1895 7.39917H46.0234L49.4629 15.989ZM46.2695 12.5906L45.0859 9.40308L43.9258 12.5906H46.2695Z" fill="white"/>
<defs>
<linearGradient id="paint0_linear_46_4308" x1="29.5" y1="1.98901" x2="29.5" y2="21.989" gradientUnits="userSpaceOnUse">
<stop stop-color="#2C8A0C"/>
<stop offset="1" stop-color="#BF4E15"/>
</linearGradient>
</defs>
</svg>
