<svg width="42" height="24" viewBox="0 0 42 24" fill="none" xmlns="http://www.w3.org/2000/svg">
<rect x="2" y="1.98901" width="39" height="20" rx="10" fill="url(#paint0_linear_52_1887)"/>
<rect x="2" y="1.98901" width="39" height="20" rx="10" stroke="#FF4900" stroke-width="3" stroke-linejoin="round"/>
<path d="M10.0801 15.989V7.46948H11.8145V14.5417H16.127V15.989H10.0801ZM22.8652 12.8308L24.5469 13.364C24.2891 14.3015 23.8594 14.9988 23.2578 15.4558C22.6602 15.9089 21.9004 16.1355 20.9785 16.1355C19.8379 16.1355 18.9004 15.7468 18.166 14.9695C17.4316 14.1882 17.0645 13.1218 17.0645 11.7703C17.0645 10.3406 17.4336 9.2312 18.1719 8.44214C18.9102 7.64917 19.8809 7.25269 21.084 7.25269C22.1348 7.25269 22.9883 7.56323 23.6445 8.18433C24.0352 8.55151 24.3281 9.07886 24.5234 9.76636L22.8066 10.1765C22.7051 9.7312 22.4922 9.37964 22.168 9.12183C21.8477 8.86401 21.457 8.73511 20.9961 8.73511C20.3594 8.73511 19.8418 8.96362 19.4434 9.42065C19.0488 9.87769 18.8516 10.6179 18.8516 11.6414C18.8516 12.7273 19.0469 13.5007 19.4375 13.9617C19.8281 14.4226 20.3359 14.6531 20.9609 14.6531C21.4219 14.6531 21.8184 14.5066 22.1504 14.2136C22.4824 13.9207 22.7207 13.4597 22.8652 12.8308ZM26.0645 15.989V7.39917H27.7988V11.2136L31.3027 7.39917H33.6348L30.4004 10.7449L33.8105 15.989H31.5664L29.2051 11.9578L27.7988 13.3933V15.989H26.0645Z" fill="white"/>
<defs>
<linearGradient id="paint0_linear_52_1887" x1="21.5" y1="1.98901" x2="21.5" y2="21.989" gradientUnits="userSpaceOnUse">
<stop stop-color="#FF4900"/>
<stop offset="1" stop-color="#A4A500"/>
</linearGradient>
</defs>
</svg>
