<svg width="50" height="24" viewBox="0 0 50 24" fill="none" xmlns="http://www.w3.org/2000/svg">
<rect x="2" y="1.98901" width="47" height="20" rx="10" fill="url(#paint0_linear_64_1893)"/>
<rect x="2" y="1.98901" width="47" height="20" rx="10" stroke="#000875" stroke-width="3" stroke-linejoin="round"/>
<path d="M10.377 15.989V7.39917H12.0645L15.5801 13.1355V7.39917H17.1914V15.989H15.4512L11.9883 10.3875V15.989H10.377ZM18.5918 13.1941L20.2793 13.03C20.3809 13.5964 20.5859 14.0125 20.8945 14.2781C21.207 14.5437 21.627 14.6765 22.1543 14.6765C22.7129 14.6765 23.1328 14.5593 23.4141 14.325C23.6992 14.0867 23.8418 13.8093 23.8418 13.4929C23.8418 13.2898 23.7812 13.1179 23.6602 12.9773C23.543 12.8328 23.3359 12.7078 23.0391 12.6023C22.8359 12.532 22.373 12.407 21.6504 12.2273C20.7207 11.9968 20.0684 11.7136 19.6934 11.3777C19.166 10.905 18.9023 10.3289 18.9023 9.64917C18.9023 9.21167 19.0254 8.80347 19.2715 8.42456C19.5215 8.04175 19.8789 7.75073 20.3438 7.55151C20.8125 7.35229 21.377 7.25269 22.0371 7.25269C23.1152 7.25269 23.9258 7.48901 24.4688 7.96167C25.0156 8.43433 25.3027 9.06519 25.3301 9.85425L23.5957 9.93042C23.5215 9.48901 23.3613 9.17261 23.1152 8.9812C22.873 8.78589 22.5078 8.68823 22.0195 8.68823C21.5156 8.68823 21.1211 8.79175 20.8359 8.99878C20.6523 9.13159 20.5605 9.30933 20.5605 9.53198C20.5605 9.73511 20.6465 9.90894 20.8184 10.0535C21.0371 10.2371 21.5684 10.4285 22.4121 10.6277C23.2559 10.8269 23.8789 11.0339 24.2812 11.2488C24.6875 11.4597 25.0039 11.7507 25.2305 12.1218C25.4609 12.489 25.5762 12.9441 25.5762 13.4871C25.5762 13.9792 25.4395 14.4402 25.166 14.8699C24.8926 15.2996 24.5059 15.6199 24.0059 15.8308C23.5059 16.0378 22.8828 16.1414 22.1367 16.1414C21.0508 16.1414 20.2168 15.8914 19.6348 15.3914C19.0527 14.8875 18.7051 14.155 18.5918 13.1941ZM32.2324 14.4597V15.989H26.4609C26.5234 15.4109 26.7109 14.864 27.0234 14.3484C27.3359 13.8289 27.9531 13.1414 28.875 12.2859C29.6172 11.5945 30.0723 11.1257 30.2402 10.8796C30.4668 10.5398 30.5801 10.2039 30.5801 9.87183C30.5801 9.50464 30.4805 9.22339 30.2812 9.02808C30.0859 8.82886 29.8145 8.72925 29.4668 8.72925C29.123 8.72925 28.8496 8.83276 28.6465 9.03979C28.4434 9.24683 28.3262 9.59058 28.2949 10.071L26.6543 9.90698C26.752 9.00073 27.0586 8.35034 27.5742 7.95581C28.0898 7.56128 28.7344 7.36401 29.5078 7.36401C30.3555 7.36401 31.0215 7.59253 31.5059 8.04956C31.9902 8.50659 32.2324 9.07495 32.2324 9.75464C32.2324 10.1414 32.1621 10.5105 32.0215 10.8621C31.8848 11.2097 31.666 11.575 31.3652 11.9578C31.166 12.2117 30.8066 12.5769 30.2871 13.0535C29.7676 13.53 29.4375 13.8464 29.2969 14.0027C29.1602 14.1589 29.0488 14.3113 28.9629 14.4597H32.2324ZM33.7207 7.39917H37.1543C37.834 7.39917 38.3398 7.42847 38.6719 7.48706C39.0078 7.54175 39.3066 7.65894 39.5684 7.83862C39.834 8.01831 40.0547 8.25854 40.2305 8.55933C40.4062 8.8562 40.4941 9.19019 40.4941 9.56128C40.4941 9.96362 40.3848 10.3328 40.166 10.6687C39.9512 11.0046 39.6582 11.2566 39.2871 11.4246C39.8105 11.5769 40.2129 11.8367 40.4941 12.2039C40.7754 12.571 40.916 13.0027 40.916 13.4988C40.916 13.8894 40.8242 14.2703 40.6406 14.6414C40.4609 15.0085 40.2129 15.3035 39.8965 15.5261C39.584 15.7449 39.1973 15.8796 38.7363 15.9304C38.4473 15.9617 37.75 15.9812 36.6445 15.989H33.7207V7.39917ZM35.4551 8.82886V10.8152H36.5918C37.2676 10.8152 37.6875 10.8054 37.8516 10.7859C38.1484 10.7507 38.3809 10.6492 38.5488 10.4812C38.7207 10.3093 38.8066 10.0847 38.8066 9.80737C38.8066 9.54175 38.7324 9.3269 38.584 9.16284C38.4395 8.99487 38.2227 8.89331 37.9336 8.85815C37.7617 8.83862 37.2676 8.82886 36.4512 8.82886H35.4551ZM35.4551 12.2449V14.5417H37.0605C37.6855 14.5417 38.082 14.5242 38.25 14.489C38.5078 14.4421 38.7168 14.3289 38.877 14.1492C39.041 13.9656 39.123 13.7214 39.123 13.4167C39.123 13.1589 39.0605 12.9402 38.9355 12.7605C38.8105 12.5808 38.6289 12.45 38.3906 12.3679C38.1562 12.2859 37.6445 12.2449 36.8555 12.2449H35.4551Z" fill="white"/>
<defs>
<linearGradient id="paint0_linear_64_1893" x1="25.5" y1="1.98901" x2="25.5" y2="21.989" gradientUnits="userSpaceOnUse">
<stop stop-color="#C55DF5"/>
<stop offset="1" stop-color="#000875"/>
</linearGradient>
</defs>
</svg>
