<svg width="48" height="24" viewBox="0 0 48 24" fill="none" xmlns="http://www.w3.org/2000/svg">
<rect x="2" y="1.98901" width="45" height="20" rx="10" fill="url(#paint0_linear_64_1903)"/>
<rect x="2" y="1.98901" width="45" height="20" rx="10" stroke="#AD5924" stroke-width="3" stroke-linejoin="round"/>
<path d="M10.1387 15.989V7.39917H12.9219C13.9766 7.39917 14.6641 7.44214 14.9844 7.52808C15.4766 7.65698 15.8887 7.93823 16.2207 8.37183C16.5527 8.80151 16.7188 9.35815 16.7188 10.0417C16.7188 10.5691 16.623 11.0125 16.4316 11.3718C16.2402 11.7312 15.9961 12.0144 15.6992 12.2214C15.4062 12.4246 15.1074 12.5593 14.8027 12.6257C14.3887 12.7078 13.7891 12.7488 13.0039 12.7488H11.873V15.989H10.1387ZM11.873 8.85229V11.2898H12.8223C13.5059 11.2898 13.9629 11.2449 14.1934 11.155C14.4238 11.0652 14.6035 10.9246 14.7324 10.7332C14.8652 10.5417 14.9316 10.3191 14.9316 10.0652C14.9316 9.75269 14.8398 9.49487 14.6562 9.29175C14.4727 9.08862 14.2402 8.96167 13.959 8.91089C13.752 8.87183 13.3359 8.85229 12.7109 8.85229H11.873ZM24.998 15.989H23.1113L22.3613 14.0378H18.9277L18.2188 15.989H16.3789L19.7246 7.39917H21.5586L24.998 15.989ZM21.8047 12.5906L20.6211 9.40308L19.4609 12.5906H21.8047ZM25.0508 15.989L27.9863 11.5066L25.3262 7.39917H27.3535L29.0762 10.1589L30.7637 7.39917H32.7734L30.1016 11.571L33.0371 15.989H30.9453L29.041 13.0183L27.1309 15.989H25.0508ZM39.1426 9.50269L37.5488 9.67847C37.5098 9.35034 37.4082 9.10815 37.2441 8.9519C37.0801 8.79565 36.8672 8.71753 36.6055 8.71753C36.2578 8.71753 35.9629 8.87378 35.7207 9.18628C35.4824 9.49878 35.332 10.1492 35.2695 11.1375C35.6797 10.6531 36.1895 10.4109 36.7988 10.4109C37.4863 10.4109 38.0742 10.6726 38.5625 11.196C39.0547 11.7195 39.3008 12.3953 39.3008 13.2234C39.3008 14.1023 39.043 14.8074 38.5273 15.3386C38.0117 15.8699 37.3496 16.1355 36.541 16.1355C35.6738 16.1355 34.9609 15.7996 34.4023 15.1277C33.8438 14.4519 33.5645 13.3464 33.5645 11.8113C33.5645 10.2371 33.8555 9.10229 34.4375 8.40698C35.0195 7.71167 35.7754 7.36401 36.7051 7.36401C37.3574 7.36401 37.8965 7.54761 38.3223 7.91479C38.752 8.27808 39.0254 8.80737 39.1426 9.50269ZM35.4102 13.0945C35.4102 13.6296 35.5332 14.0437 35.7793 14.3367C36.0254 14.6257 36.3066 14.7703 36.623 14.7703C36.9277 14.7703 37.1816 14.6511 37.3848 14.4128C37.5879 14.1746 37.6895 13.7839 37.6895 13.241C37.6895 12.6824 37.5801 12.2742 37.3613 12.0164C37.1426 11.7546 36.8691 11.6238 36.541 11.6238C36.2246 11.6238 35.957 11.7488 35.7383 11.9988C35.5195 12.2449 35.4102 12.6101 35.4102 13.0945Z" fill="white"/>
<defs>
<linearGradient id="paint0_linear_64_1903" x1="24.5" y1="1.98901" x2="24.5" y2="21.989" gradientUnits="userSpaceOnUse">
<stop stop-color="#AD5924"/>
<stop offset="1" stop-color="#F79756"/>
</linearGradient>
</defs>
</svg>
