<svg width="56" height="24" viewBox="0 0 56 24" fill="none" xmlns="http://www.w3.org/2000/svg">
<rect x="2" y="1.98901" width="53" height="20" rx="10" fill="url(#paint0_linear_46_4302)"/>
<rect x="2" y="1.98901" width="53" height="20" rx="10" stroke="#9B659B" stroke-width="3" stroke-linejoin="round"/>
<path d="M10.3594 15.989V7.39917H12.0938V10.78H15.4922V7.39917H17.2266V15.989H15.4922V12.2332H12.0938V15.989H10.3594ZM18.5859 13.1941L20.2734 13.03C20.375 13.5964 20.5801 14.0125 20.8887 14.2781C21.2012 14.5437 21.6211 14.6765 22.1484 14.6765C22.707 14.6765 23.127 14.5593 23.4082 14.325C23.6934 14.0867 23.8359 13.8093 23.8359 13.4929C23.8359 13.2898 23.7754 13.1179 23.6543 12.9773C23.5371 12.8328 23.3301 12.7078 23.0332 12.6023C22.8301 12.532 22.3672 12.407 21.6445 12.2273C20.7148 11.9968 20.0625 11.7136 19.6875 11.3777C19.1602 10.905 18.8965 10.3289 18.8965 9.64917C18.8965 9.21167 19.0195 8.80347 19.2656 8.42456C19.5156 8.04175 19.873 7.75073 20.3379 7.55151C20.8066 7.35229 21.3711 7.25269 22.0312 7.25269C23.1094 7.25269 23.9199 7.48901 24.4629 7.96167C25.0098 8.43433 25.2969 9.06519 25.3242 9.85425L23.5898 9.93042C23.5156 9.48901 23.3555 9.17261 23.1094 8.9812C22.8672 8.78589 22.502 8.68823 22.0137 8.68823C21.5098 8.68823 21.1152 8.79175 20.8301 8.99878C20.6465 9.13159 20.5547 9.30933 20.5547 9.53198C20.5547 9.73511 20.6406 9.90894 20.8125 10.0535C21.0312 10.2371 21.5625 10.4285 22.4062 10.6277C23.25 10.8269 23.873 11.0339 24.2754 11.2488C24.6816 11.4597 24.998 11.7507 25.2246 12.1218C25.4551 12.489 25.5703 12.9441 25.5703 13.4871C25.5703 13.9792 25.4336 14.4402 25.1602 14.8699C24.8867 15.2996 24.5 15.6199 24 15.8308C23.5 16.0378 22.877 16.1414 22.1309 16.1414C21.0449 16.1414 20.2109 15.8914 19.6289 15.3914C19.0469 14.8875 18.6992 14.155 18.5859 13.1941ZM27.0293 15.989V7.39917H29.8125C30.8672 7.39917 31.5547 7.44214 31.875 7.52808C32.3672 7.65698 32.7793 7.93823 33.1113 8.37183C33.4434 8.80151 33.6094 9.35815 33.6094 10.0417C33.6094 10.5691 33.5137 11.0125 33.3223 11.3718C33.1309 11.7312 32.8867 12.0144 32.5898 12.2214C32.2969 12.4246 31.998 12.5593 31.6934 12.6257C31.2793 12.7078 30.6797 12.7488 29.8945 12.7488H28.7637V15.989H27.0293ZM28.7637 8.85229V11.2898H29.7129C30.3965 11.2898 30.8535 11.2449 31.084 11.155C31.3145 11.0652 31.4941 10.9246 31.623 10.7332C31.7559 10.5417 31.8223 10.3191 31.8223 10.0652C31.8223 9.75269 31.7305 9.49487 31.5469 9.29175C31.3633 9.08862 31.1309 8.96167 30.8496 8.91089C30.6426 8.87183 30.2266 8.85229 29.6016 8.85229H28.7637ZM34.7051 14.0027L36.2988 13.8269C36.3379 14.1511 36.4395 14.3914 36.6035 14.5476C36.7676 14.7039 36.9844 14.782 37.2539 14.782C37.5938 14.782 37.8828 14.6257 38.1211 14.3132C38.3594 14.0007 38.5117 13.3523 38.5781 12.3679C38.1641 12.8484 37.6465 13.0886 37.0254 13.0886C36.3496 13.0886 35.7656 12.8289 35.2734 12.3093C34.7852 11.7859 34.541 11.1062 34.541 10.2703C34.541 9.39917 34.7988 8.698 35.3145 8.16675C35.834 7.63159 36.4941 7.36401 37.2949 7.36401C38.166 7.36401 38.8809 7.7019 39.4395 8.37769C39.998 9.04956 40.2773 10.157 40.2773 11.7C40.2773 13.2703 39.9863 14.4031 39.4043 15.0984C38.8223 15.7937 38.0645 16.1414 37.1309 16.1414C36.459 16.1414 35.916 15.9636 35.502 15.6082C35.0879 15.2488 34.8223 14.7136 34.7051 14.0027ZM38.4316 10.405C38.4316 9.87378 38.3086 9.46167 38.0625 9.1687C37.8203 8.87573 37.5391 8.72925 37.2188 8.72925C36.9141 8.72925 36.6602 8.85034 36.457 9.09253C36.2578 9.33081 36.1582 9.72339 36.1582 10.2703C36.1582 10.825 36.2676 11.2332 36.4863 11.4949C36.7051 11.7527 36.9785 11.8816 37.3066 11.8816C37.623 11.8816 37.8887 11.7566 38.1035 11.5066C38.3223 11.2566 38.4316 10.8894 38.4316 10.405ZM44.1328 7.36401C44.9648 7.36401 45.6152 7.66089 46.084 8.25464C46.6426 8.95776 46.9219 10.1238 46.9219 11.7527C46.9219 13.3777 46.6406 14.5457 46.0781 15.2566C45.6133 15.8425 44.9648 16.1355 44.1328 16.1355C43.2969 16.1355 42.623 15.8152 42.1113 15.1746C41.5996 14.53 41.3438 13.3835 41.3438 11.7351C41.3438 10.1179 41.625 8.95386 42.1875 8.24292C42.6523 7.65698 43.3008 7.36401 44.1328 7.36401ZM44.1328 8.72925C43.9336 8.72925 43.7559 8.7937 43.5996 8.92261C43.4434 9.04761 43.3223 9.27417 43.2363 9.60229C43.123 10.0281 43.0664 10.7449 43.0664 11.7527C43.0664 12.7605 43.1172 13.4539 43.2188 13.8328C43.3203 14.2078 43.4473 14.4578 43.5996 14.5828C43.7559 14.7078 43.9336 14.7703 44.1328 14.7703C44.332 14.7703 44.5098 14.7078 44.666 14.5828C44.8223 14.4539 44.9434 14.2253 45.0293 13.8972C45.1426 13.4753 45.1992 12.7605 45.1992 11.7527C45.1992 10.7449 45.1484 10.0535 45.0469 9.67847C44.9453 9.29956 44.8164 9.04761 44.6602 8.92261C44.5078 8.7937 44.332 8.72925 44.1328 8.72925Z" fill="white"/>
<defs>
<linearGradient id="paint0_linear_46_4302" x1="28.5" y1="1.98901" x2="28.5" y2="21.989" gradientUnits="userSpaceOnUse">
<stop stop-color="#9B659B"/>
<stop offset="1" stop-color="#FF00AD"/>
</linearGradient>
</defs>
</svg>
