<svg width="58" height="24" viewBox="0 0 58 24" fill="none" xmlns="http://www.w3.org/2000/svg">
<rect x="2" y="1.98901" width="55" height="20" rx="10" fill="url(#paint0_linear_64_1983)"/>
<rect x="2" y="1.98901" width="55" height="20" rx="10" stroke="#FF88D0" stroke-width="3" stroke-linejoin="round"/>
<path d="M10.3574 15.989V7.39917H13.1406C14.1953 7.39917 14.8828 7.44214 15.2031 7.52808C15.6953 7.65698 16.1074 7.93823 16.4395 8.37183C16.7715 8.80151 16.9375 9.35815 16.9375 10.0417C16.9375 10.5691 16.8418 11.0125 16.6504 11.3718C16.459 11.7312 16.2148 12.0144 15.918 12.2214C15.625 12.4246 15.3262 12.5593 15.0215 12.6257C14.6074 12.7078 14.0078 12.7488 13.2227 12.7488H12.0918V15.989H10.3574ZM12.0918 8.85229V11.2898H13.041C13.7246 11.2898 14.1816 11.2449 14.4121 11.155C14.6426 11.0652 14.8223 10.9246 14.9512 10.7332C15.084 10.5417 15.1504 10.3191 15.1504 10.0652C15.1504 9.75269 15.0586 9.49487 14.875 9.29175C14.6914 9.08862 14.459 8.96167 14.1777 8.91089C13.9707 8.87183 13.5547 8.85229 12.9297 8.85229H12.0918ZM18.3086 15.989V7.39917H20.043V15.989H18.3086ZM22.9199 15.989L20.8691 7.39917H22.6445L23.9395 13.2996L25.5098 7.39917H27.5723L29.0781 13.3992L30.3965 7.39917H32.1426L30.0566 15.989H28.2168L26.5059 9.56714L24.8008 15.989H22.9199ZM32.9805 15.989V7.39917H34.7148V15.989H32.9805ZM36.4199 15.989V7.46948H38.1543V14.5417H42.4668V15.989H36.4199ZM46.5742 15.989V14.2605H43.0586V12.8191L46.7852 7.36401H48.168V12.8132H49.2344V14.2605H48.168V15.989H46.5742ZM46.5742 12.8132V9.87769L44.5996 12.8132H46.5742Z" fill="white"/>
<defs>
<linearGradient id="paint0_linear_64_1983" x1="29.5" y1="1.98901" x2="29.5" y2="21.989" gradientUnits="userSpaceOnUse">
<stop stop-color="#7E9E9D"/>
<stop offset="1" stop-color="#FF88D0"/>
</linearGradient>
</defs>
</svg>
