<svg width="49" height="36" viewBox="0 0 49 36" fill="none" xmlns="http://www.w3.org/2000/svg">
<rect x="2" y="1.98901" width="46" height="32" rx="10" fill="url(#paint0_linear_67_1885)"/>
<rect x="2" y="1.98901" width="46" height="32" rx="10" stroke="#52C477" stroke-width="3" stroke-linejoin="round"/>
<path d="M13.2051 14.989V6.39917H16.8555C17.7734 6.39917 18.4395 6.47729 18.8535 6.63354C19.2715 6.78589 19.6055 7.05933 19.8555 7.45386C20.1055 7.84839 20.2305 8.29956 20.2305 8.80737C20.2305 9.4519 20.041 9.98511 19.6621 10.407C19.2832 10.825 18.7168 11.0886 17.9629 11.198C18.3379 11.4167 18.6465 11.657 18.8887 11.9187C19.1348 12.1804 19.4648 12.6453 19.8789 13.3132L20.9277 14.989H18.8535L17.5996 13.1199C17.1543 12.4519 16.8496 12.032 16.6855 11.8601C16.5215 11.6843 16.3477 11.5652 16.1641 11.5027C15.9805 11.4363 15.6895 11.4031 15.291 11.4031H14.9395V14.989H13.2051ZM14.9395 10.032H16.2227C17.0547 10.032 17.5742 9.99683 17.7812 9.92651C17.9883 9.8562 18.1504 9.73511 18.2676 9.56323C18.3848 9.39136 18.4434 9.17651 18.4434 8.9187C18.4434 8.62964 18.3652 8.39722 18.209 8.22144C18.0566 8.04175 17.8398 7.92847 17.5586 7.88159C17.418 7.86206 16.9961 7.85229 16.293 7.85229H14.9395V10.032ZM20.998 14.989L23.9336 10.5066L21.2734 6.39917H23.3008L25.0234 9.15894L26.7109 6.39917H28.7207L26.0488 10.571L28.9844 14.989H26.8926L24.9883 12.0183L23.0781 14.989H20.998ZM29.8809 14.989V6.39917H33.5312C34.4492 6.39917 35.1152 6.47729 35.5293 6.63354C35.9473 6.78589 36.2812 7.05933 36.5312 7.45386C36.7812 7.84839 36.9062 8.29956 36.9062 8.80737C36.9062 9.4519 36.7168 9.98511 36.3379 10.407C35.959 10.825 35.3926 11.0886 34.6387 11.198C35.0137 11.4167 35.3223 11.657 35.5645 11.9187C35.8105 12.1804 36.1406 12.6453 36.5547 13.3132L37.6035 14.989H35.5293L34.2754 13.1199C33.8301 12.4519 33.5254 12.032 33.3613 11.8601C33.1973 11.6843 33.0234 11.5652 32.8398 11.5027C32.6562 11.4363 32.3652 11.4031 31.9668 11.4031H31.6152V14.989H29.8809ZM31.6152 10.032H32.8984C33.7305 10.032 34.25 9.99683 34.457 9.92651C34.6641 9.8562 34.8262 9.73511 34.9434 9.56323C35.0605 9.39136 35.1191 9.17651 35.1191 8.9187C35.1191 8.62964 35.041 8.39722 34.8848 8.22144C34.7324 8.04175 34.5156 7.92847 34.2344 7.88159C34.0938 7.86206 33.6719 7.85229 32.9688 7.85229H31.6152V10.032ZM11.4062 24.6648L9.91211 24.3953C10.0801 23.7937 10.3691 23.3484 10.7793 23.0593C11.1895 22.7703 11.7988 22.6257 12.6074 22.6257C13.3418 22.6257 13.8887 22.7136 14.248 22.8894C14.6074 23.0613 14.8594 23.282 15.0039 23.5515C15.1523 23.8171 15.2266 24.3074 15.2266 25.0222L15.209 26.9441C15.209 27.491 15.2344 27.8953 15.2852 28.157C15.3398 28.4148 15.4395 28.6921 15.584 28.989H13.9551C13.9121 28.8796 13.8594 28.7175 13.7969 28.5027C13.7695 28.405 13.75 28.3406 13.7383 28.3093C13.457 28.5828 13.1562 28.7878 12.8359 28.9246C12.5156 29.0613 12.1738 29.1296 11.8105 29.1296C11.1699 29.1296 10.6641 28.9558 10.293 28.6082C9.92578 28.2605 9.74219 27.821 9.74219 27.2898C9.74219 26.9382 9.82617 26.6257 9.99414 26.3523C10.1621 26.075 10.3965 25.864 10.6973 25.7195C11.002 25.571 11.4395 25.4421 12.0098 25.3328C12.7793 25.1882 13.3125 25.0535 13.6094 24.9285V24.7644C13.6094 24.448 13.5312 24.2234 13.375 24.0906C13.2188 23.9539 12.9238 23.8855 12.4902 23.8855C12.1973 23.8855 11.9688 23.9441 11.8047 24.0613C11.6406 24.1746 11.5078 24.3757 11.4062 24.6648ZM13.6094 26.0007C13.3984 26.071 13.0645 26.155 12.6074 26.2527C12.1504 26.3503 11.8516 26.446 11.7109 26.5398C11.4961 26.6921 11.3887 26.8855 11.3887 27.1199C11.3887 27.3503 11.4746 27.5496 11.6465 27.7175C11.8184 27.8855 12.0371 27.9695 12.3027 27.9695C12.5996 27.9695 12.8828 27.8718 13.1523 27.6765C13.3516 27.5281 13.4824 27.3464 13.5449 27.1316C13.5879 26.991 13.6094 26.7234 13.6094 26.3289V26.0007ZM16.8555 28.989V20.3992H18.502V28.989H16.8555ZM20.1484 22.7664H21.6836V23.6804C21.8828 23.3679 22.1523 23.114 22.4922 22.9187C22.832 22.7234 23.209 22.6257 23.623 22.6257C24.3457 22.6257 24.959 22.9089 25.4629 23.4753C25.9668 24.0417 26.2188 24.8308 26.2188 25.8425C26.2188 26.8816 25.9648 27.6902 25.457 28.2683C24.9492 28.8425 24.334 29.1296 23.6113 29.1296C23.2676 29.1296 22.9551 29.0613 22.6738 28.9246C22.3965 28.7878 22.1035 28.5535 21.7949 28.2214V31.3562H20.1484V22.7664ZM21.7773 25.7722C21.7773 26.4714 21.916 26.989 22.1934 27.325C22.4707 27.657 22.8086 27.823 23.207 27.823C23.5898 27.823 23.9082 27.6707 24.1621 27.366C24.416 27.0574 24.543 26.5535 24.543 25.8542C24.543 25.2019 24.4121 24.7175 24.1504 24.4011C23.8887 24.0847 23.5645 23.9265 23.1777 23.9265C22.7754 23.9265 22.4414 24.0828 22.1758 24.3953C21.9102 24.7039 21.7773 25.1628 21.7773 25.7722ZM29.1719 20.3992V23.5574C29.7031 22.9363 30.3379 22.6257 31.0762 22.6257C31.4551 22.6257 31.7969 22.696 32.1016 22.8367C32.4062 22.9773 32.6348 23.157 32.7871 23.3757C32.9434 23.5945 33.0488 23.8367 33.1035 24.1023C33.1621 24.3679 33.1914 24.78 33.1914 25.3386V28.989H31.5449V25.7019C31.5449 25.0496 31.5137 24.6355 31.4512 24.4597C31.3887 24.2839 31.2773 24.1453 31.1172 24.0437C30.9609 23.9382 30.7637 23.8855 30.5254 23.8855C30.252 23.8855 30.0078 23.9519 29.793 24.0847C29.5781 24.2175 29.4199 24.4187 29.3184 24.6882C29.2207 24.9539 29.1719 25.3484 29.1719 25.8718V28.989H27.5254V20.3992H29.1719ZM36.0977 24.6648L34.6035 24.3953C34.7715 23.7937 35.0605 23.3484 35.4707 23.0593C35.8809 22.7703 36.4902 22.6257 37.2988 22.6257C38.0332 22.6257 38.5801 22.7136 38.9395 22.8894C39.2988 23.0613 39.5508 23.282 39.6953 23.5515C39.8438 23.8171 39.918 24.3074 39.918 25.0222L39.9004 26.9441C39.9004 27.491 39.9258 27.8953 39.9766 28.157C40.0312 28.4148 40.1309 28.6921 40.2754 28.989H38.6465C38.6035 28.8796 38.5508 28.7175 38.4883 28.5027C38.4609 28.405 38.4414 28.3406 38.4297 28.3093C38.1484 28.5828 37.8477 28.7878 37.5273 28.9246C37.207 29.0613 36.8652 29.1296 36.502 29.1296C35.8613 29.1296 35.3555 28.9558 34.9844 28.6082C34.6172 28.2605 34.4336 27.821 34.4336 27.2898C34.4336 26.9382 34.5176 26.6257 34.6855 26.3523C34.8535 26.075 35.0879 25.864 35.3887 25.7195C35.6934 25.571 36.1309 25.4421 36.7012 25.3328C37.4707 25.1882 38.0039 25.0535 38.3008 24.9285V24.7644C38.3008 24.448 38.2227 24.2234 38.0664 24.0906C37.9102 23.9539 37.6152 23.8855 37.1816 23.8855C36.8887 23.8855 36.6602 23.9441 36.4961 24.0613C36.332 24.1746 36.1992 24.3757 36.0977 24.6648ZM38.3008 26.0007C38.0898 26.071 37.7559 26.155 37.2988 26.2527C36.8418 26.3503 36.543 26.446 36.4023 26.5398C36.1875 26.6921 36.0801 26.8855 36.0801 27.1199C36.0801 27.3503 36.166 27.5496 36.3379 27.7175C36.5098 27.8855 36.7285 27.9695 36.9941 27.9695C37.291 27.9695 37.5742 27.8718 37.8438 27.6765C38.043 27.5281 38.1738 27.3464 38.2363 27.1316C38.2793 26.991 38.3008 26.7234 38.3008 26.3289V26.0007Z" fill="white"/>
<defs>
<linearGradient id="paint0_linear_67_1885" x1="25" y1="1.98901" x2="25" y2="33.989" gradientUnits="userSpaceOnUse">
<stop stop-color="#52C477"/>
<stop offset="1" stop-color="#1F2B53"/>
</linearGradient>
</defs>
</svg>
