<svg width="47" height="24" viewBox="0 0 47 24" fill="none" xmlns="http://www.w3.org/2000/svg">
<rect x="2" y="1.98901" width="44" height="20" rx="10" fill="url(#paint0_linear_67_1941)"/>
<rect x="2" y="1.98901" width="44" height="20" rx="10" stroke="#A263A5" stroke-width="3" stroke-linejoin="round"/>
<path d="M9.65039 13.1941L11.3379 13.03C11.4395 13.5964 11.6445 14.0125 11.9531 14.2781C12.2656 14.5437 12.6855 14.6765 13.2129 14.6765C13.7715 14.6765 14.1914 14.5593 14.4727 14.325C14.7578 14.0867 14.9004 13.8093 14.9004 13.4929C14.9004 13.2898 14.8398 13.1179 14.7188 12.9773C14.6016 12.8328 14.3945 12.7078 14.0977 12.6023C13.8945 12.532 13.4316 12.407 12.709 12.2273C11.7793 11.9968 11.127 11.7136 10.752 11.3777C10.2246 10.905 9.96094 10.3289 9.96094 9.64917C9.96094 9.21167 10.084 8.80347 10.3301 8.42456C10.5801 8.04175 10.9375 7.75073 11.4023 7.55151C11.8711 7.35229 12.4355 7.25269 13.0957 7.25269C14.1738 7.25269 14.9844 7.48901 15.5273 7.96167C16.0742 8.43433 16.3613 9.06519 16.3887 9.85425L14.6543 9.93042C14.5801 9.48901 14.4199 9.17261 14.1738 8.9812C13.9316 8.78589 13.5664 8.68823 13.0781 8.68823C12.5742 8.68823 12.1797 8.79175 11.8945 8.99878C11.7109 9.13159 11.6191 9.30933 11.6191 9.53198C11.6191 9.73511 11.7051 9.90894 11.877 10.0535C12.0957 10.2371 12.627 10.4285 13.4707 10.6277C14.3145 10.8269 14.9375 11.0339 15.3398 11.2488C15.7461 11.4597 16.0625 11.7507 16.2891 12.1218C16.5195 12.489 16.6348 12.9441 16.6348 13.4871C16.6348 13.9792 16.498 14.4402 16.2246 14.8699C15.9512 15.2996 15.5645 15.6199 15.0645 15.8308C14.5645 16.0378 13.9414 16.1414 13.1953 16.1414C12.1094 16.1414 11.2754 15.8914 10.6934 15.3914C10.1113 14.8875 9.76367 14.155 9.65039 13.1941ZM20.0273 15.989V8.85229H17.4785V7.39917H24.3047V8.85229H21.7617V15.989H20.0273ZM32.2852 15.989H30.3984L29.6484 14.0378H26.2148L25.5059 15.989H23.666L27.0117 7.39917H28.8457L32.2852 15.989ZM29.0918 12.5906L27.9082 9.40308L26.748 12.5906H29.0918ZM34.2539 15.989V8.85229H31.7051V7.39917H38.5312V8.85229H35.9883V15.989H34.2539Z" fill="white"/>
<defs>
<linearGradient id="paint0_linear_67_1941" x1="24" y1="1.98901" x2="24" y2="21.989" gradientUnits="userSpaceOnUse">
<stop stop-color="#A263A5"/>
<stop offset="1" stop-color="#3F1741"/>
</linearGradient>
</defs>
</svg>
