<svg width="71" height="24" viewBox="0 0 71 24" fill="none" xmlns="http://www.w3.org/2000/svg">
<rect x="1" y="1.98901" width="69" height="20" rx="10" fill="url(#paint0_linear_42_2653)"/>
<rect x="1" y="1.98901" width="69" height="20" rx="10" stroke="#2A3ED1" stroke-width="3" stroke-linejoin="round"/>
<path d="M9.35547 15.989V7.39917H15.7246V8.85229H11.0898V10.7566H15.4023V12.2039H11.0898V14.5417H15.8887V15.989H9.35547ZM16.9199 13.1941L18.6074 13.03C18.709 13.5964 18.9141 14.0125 19.2227 14.2781C19.5352 14.5437 19.9551 14.6765 20.4824 14.6765C21.041 14.6765 21.4609 14.5593 21.7422 14.325C22.0273 14.0867 22.1699 13.8093 22.1699 13.4929C22.1699 13.2898 22.1094 13.1179 21.9883 12.9773C21.8711 12.8328 21.6641 12.7078 21.3672 12.6023C21.1641 12.532 20.7012 12.407 19.9785 12.2273C19.0488 11.9968 18.3965 11.7136 18.0215 11.3777C17.4941 10.905 17.2305 10.3289 17.2305 9.64917C17.2305 9.21167 17.3535 8.80347 17.5996 8.42456C17.8496 8.04175 18.207 7.75073 18.6719 7.55151C19.1406 7.35229 19.7051 7.25269 20.3652 7.25269C21.4434 7.25269 22.2539 7.48901 22.7969 7.96167C23.3438 8.43433 23.6309 9.06519 23.6582 9.85425L21.9238 9.93042C21.8496 9.48901 21.6895 9.17261 21.4434 8.9812C21.2012 8.78589 20.8359 8.68823 20.3477 8.68823C19.8438 8.68823 19.4492 8.79175 19.1641 8.99878C18.9805 9.13159 18.8887 9.30933 18.8887 9.53198C18.8887 9.73511 18.9746 9.90894 19.1465 10.0535C19.3652 10.2371 19.8965 10.4285 20.7402 10.6277C21.584 10.8269 22.207 11.0339 22.6094 11.2488C23.0156 11.4597 23.332 11.7507 23.5586 12.1218C23.7891 12.489 23.9043 12.9441 23.9043 13.4871C23.9043 13.9792 23.7676 14.4402 23.4941 14.8699C23.2207 15.2996 22.834 15.6199 22.334 15.8308C21.834 16.0378 21.2109 16.1414 20.4648 16.1414C19.3789 16.1414 18.5449 15.8914 17.9629 15.3914C17.3809 14.8875 17.0332 14.155 16.9199 13.1941ZM30.8594 12.8308L32.541 13.364C32.2832 14.3015 31.8535 14.9988 31.252 15.4558C30.6543 15.9089 29.8945 16.1355 28.9727 16.1355C27.832 16.1355 26.8945 15.7468 26.1602 14.9695C25.4258 14.1882 25.0586 13.1218 25.0586 11.7703C25.0586 10.3406 25.4277 9.2312 26.166 8.44214C26.9043 7.64917 27.875 7.25269 29.0781 7.25269C30.1289 7.25269 30.9824 7.56323 31.6387 8.18433C32.0293 8.55151 32.3223 9.07886 32.5176 9.76636L30.8008 10.1765C30.6992 9.7312 30.4863 9.37964 30.1621 9.12183C29.8418 8.86401 29.4512 8.73511 28.9902 8.73511C28.3535 8.73511 27.8359 8.96362 27.4375 9.42065C27.043 9.87769 26.8457 10.6179 26.8457 11.6414C26.8457 12.7273 27.041 13.5007 27.4316 13.9617C27.8223 14.4226 28.3301 14.6531 28.9551 14.6531C29.416 14.6531 29.8125 14.5066 30.1445 14.2136C30.4766 13.9207 30.7148 13.4597 30.8594 12.8308ZM34.041 15.989V7.39917H37.6914C38.6094 7.39917 39.2754 7.47729 39.6895 7.63354C40.1074 7.78589 40.4414 8.05933 40.6914 8.45386C40.9414 8.84839 41.0664 9.29956 41.0664 9.80737C41.0664 10.4519 40.877 10.9851 40.498 11.407C40.1191 11.825 39.5527 12.0886 38.7988 12.198C39.1738 12.4167 39.4824 12.657 39.7246 12.9187C39.9707 13.1804 40.3008 13.6453 40.7148 14.3132L41.7637 15.989H39.6895L38.4355 14.1199C37.9902 13.4519 37.6855 13.032 37.5215 12.8601C37.3574 12.6843 37.1836 12.5652 37 12.5027C36.8164 12.4363 36.5254 12.4031 36.127 12.4031H35.7754V15.989H34.041ZM35.7754 11.032H37.0586C37.8906 11.032 38.4102 10.9968 38.6172 10.9265C38.8242 10.8562 38.9863 10.7351 39.1035 10.5632C39.2207 10.3914 39.2793 10.1765 39.2793 9.9187C39.2793 9.62964 39.2012 9.39722 39.0449 9.22144C38.8926 9.04175 38.6758 8.92847 38.3945 8.88159C38.2539 8.86206 37.832 8.85229 37.1289 8.85229H35.7754V11.032ZM44.6406 15.989V8.85229H42.0918V7.39917H48.918V8.85229H46.375V15.989H44.6406ZM49.1758 13.698V12.0515H52.4102V13.698H49.1758ZM53.3184 15.989V7.39917H55.0527V15.989H53.3184ZM56.6582 15.989V7.39917H58.3926V15.989H56.6582ZM59.998 15.989V7.39917H61.7324V15.989H59.998Z" fill="white"/>
<defs>
<linearGradient id="paint0_linear_42_2653" x1="35.5" y1="1.98901" x2="35.5" y2="21.989" gradientUnits="userSpaceOnUse">
<stop stop-color="#2A3ED1"/>
<stop offset="1" stop-color="#00FF76"/>
</linearGradient>
</defs>
</svg>
