<svg width="144" height="36" viewBox="0 0 144 36" fill="none" xmlns="http://www.w3.org/2000/svg">
<rect x="1" y="1.98901" width="142" height="32" rx="10" fill="url(#paint0_linear_64_1881)"/>
<rect x="1" y="1.98901" width="142" height="32" rx="10" stroke="#0052AF" stroke-width="3" stroke-linejoin="round"/>
<path d="M9.1875 14.989V6.39917H10.875L14.3906 12.1355V6.39917H16.002V14.989H14.2617L10.7988 9.38745V14.989H9.1875ZM17.8301 6.39917H19.5645V11.0515C19.5645 11.7898 19.5859 12.2683 19.6289 12.4871C19.7031 12.8386 19.8789 13.1218 20.1562 13.3367C20.4375 13.5476 20.8203 13.6531 21.3047 13.6531C21.7969 13.6531 22.168 13.5535 22.418 13.3542C22.668 13.1511 22.8184 12.9031 22.8691 12.6101C22.9199 12.3171 22.9453 11.8308 22.9453 11.1511V6.39917H24.6797V10.9109C24.6797 11.9421 24.6328 12.6707 24.5391 13.0964C24.4453 13.5222 24.2715 13.8816 24.0176 14.1746C23.7676 14.4675 23.4316 14.7019 23.0098 14.8777C22.5879 15.0496 22.0371 15.1355 21.3574 15.1355C20.5371 15.1355 19.9141 15.0417 19.4883 14.8542C19.0664 14.6628 18.7324 14.4167 18.4863 14.116C18.2402 13.8113 18.0781 13.4929 18 13.1609C17.8867 12.6687 17.8301 11.9421 17.8301 10.9812V6.39917ZM32.0098 11.8308L33.6914 12.364C33.4336 13.3015 33.0039 13.9988 32.4023 14.4558C31.8047 14.9089 31.0449 15.1355 30.123 15.1355C28.9824 15.1355 28.0449 14.7468 27.3105 13.9695C26.5762 13.1882 26.209 12.1218 26.209 10.7703C26.209 9.34058 26.5781 8.2312 27.3164 7.44214C28.0547 6.64917 29.0254 6.25269 30.2285 6.25269C31.2793 6.25269 32.1328 6.56323 32.7891 7.18433C33.1797 7.55151 33.4727 8.07886 33.668 8.76636L31.9512 9.17651C31.8496 8.7312 31.6367 8.37964 31.3125 8.12183C30.9922 7.86401 30.6016 7.73511 30.1406 7.73511C29.5039 7.73511 28.9863 7.96362 28.5879 8.42065C28.1934 8.87769 27.9961 9.61792 27.9961 10.6414C27.9961 11.7273 28.1914 12.5007 28.582 12.9617C28.9727 13.4226 29.4805 13.6531 30.1055 13.6531C30.5664 13.6531 30.9629 13.5066 31.2949 13.2136C31.627 12.9207 31.8652 12.4597 32.0098 11.8308ZM35.2324 14.989V6.46948H36.9668V13.5417H41.2793V14.989H35.2324ZM42.5215 14.989V6.39917H48.8906V7.85229H44.2559V9.75659H48.5684V11.2039H44.2559V13.5417H49.0547V14.989H42.5215ZM58.2715 14.989H56.3848L55.6348 13.0378H52.2012L51.4922 14.989H49.6523L52.998 6.39917H54.832L58.2715 14.989ZM55.0781 11.5906L53.8945 8.40308L52.7344 11.5906H55.0781ZM59.2031 14.989V6.39917H62.8535C63.7715 6.39917 64.4375 6.47729 64.8516 6.63354C65.2695 6.78589 65.6035 7.05933 65.8535 7.45386C66.1035 7.84839 66.2285 8.29956 66.2285 8.80737C66.2285 9.4519 66.0391 9.98511 65.6602 10.407C65.2812 10.825 64.7148 11.0886 63.9609 11.198C64.3359 11.4167 64.6445 11.657 64.8867 11.9187C65.1328 12.1804 65.4629 12.6453 65.877 13.3132L66.9258 14.989H64.8516L63.5977 13.1199C63.1523 12.4519 62.8477 12.032 62.6836 11.8601C62.5195 11.6843 62.3457 11.5652 62.1621 11.5027C61.9785 11.4363 61.6875 11.4031 61.2891 11.4031H60.9375V14.989H59.2031ZM60.9375 10.032H62.2207C63.0527 10.032 63.5723 9.99683 63.7793 9.92651C63.9863 9.8562 64.1484 9.73511 64.2656 9.56323C64.3828 9.39136 64.4414 9.17651 64.4414 8.9187C64.4414 8.62964 64.3633 8.39722 64.207 8.22144C64.0547 8.04175 63.8379 7.92847 63.5566 7.88159C63.416 7.86206 62.9941 7.85229 62.291 7.85229H60.9375V10.032ZM71.209 14.989V6.39917H77.5781V7.85229H72.9434V9.75659H77.2559V11.2039H72.9434V13.5417H77.7422V14.989H71.209ZM79.2305 14.989V6.39917H80.918L84.4336 12.1355V6.39917H86.0449V14.989H84.3047L80.8418 9.38745V14.989H79.2305ZM90.0762 14.989L87.0059 6.39917H88.8867L91.0605 12.7566L93.1641 6.39917H95.0039L91.9277 14.989H90.0762ZM95.8887 14.989V6.39917H102.258V7.85229H97.623V9.75659H101.936V11.2039H97.623V13.5417H102.422V14.989H95.8887ZM103.939 14.989V6.46948H105.674V13.5417H109.986V14.989H103.939ZM110.877 10.7468C110.877 9.87183 111.008 9.13745 111.27 8.5437C111.465 8.1062 111.73 7.71362 112.066 7.36597C112.406 7.01831 112.777 6.7605 113.18 6.59253C113.715 6.36597 114.332 6.25269 115.031 6.25269C116.297 6.25269 117.309 6.64526 118.066 7.43042C118.828 8.21558 119.209 9.30737 119.209 10.7058C119.209 12.0925 118.832 13.1785 118.078 13.9636C117.324 14.7449 116.316 15.1355 115.055 15.1355C113.777 15.1355 112.762 14.7468 112.008 13.9695C111.254 13.1882 110.877 12.114 110.877 10.7468ZM112.664 10.6882C112.664 11.6609 112.889 12.3992 113.338 12.9031C113.787 13.4031 114.357 13.6531 115.049 13.6531C115.74 13.6531 116.307 13.405 116.748 12.9089C117.193 12.4089 117.416 11.6609 117.416 10.6648C117.416 9.68042 117.199 8.94604 116.766 8.46167C116.336 7.97729 115.764 7.73511 115.049 7.73511C114.334 7.73511 113.758 7.9812 113.32 8.47339C112.883 8.96167 112.664 9.69995 112.664 10.6882ZM120.568 14.989V6.39917H123.352C124.406 6.39917 125.094 6.44214 125.414 6.52808C125.906 6.65698 126.318 6.93823 126.65 7.37183C126.982 7.80151 127.148 8.35815 127.148 9.04175C127.148 9.56909 127.053 10.0125 126.861 10.3718C126.67 10.7312 126.426 11.0144 126.129 11.2214C125.836 11.4246 125.537 11.5593 125.232 11.6257C124.818 11.7078 124.219 11.7488 123.434 11.7488H122.303V14.989H120.568ZM122.303 7.85229V10.2898H123.252C123.936 10.2898 124.393 10.2449 124.623 10.155C124.854 10.0652 125.033 9.92456 125.162 9.73315C125.295 9.54175 125.361 9.31909 125.361 9.06519C125.361 8.75269 125.27 8.49487 125.086 8.29175C124.902 8.08862 124.67 7.96167 124.389 7.91089C124.182 7.87183 123.766 7.85229 123.141 7.85229H122.303ZM128.572 14.989V6.39917H134.941V7.85229H130.307V9.75659H134.619V11.2039H130.307V13.5417H135.105V14.989H128.572ZM46.1895 28.989V20.3992H48.9727C50.0273 20.3992 50.7148 20.4421 51.0352 20.5281C51.5273 20.657 51.9395 20.9382 52.2715 21.3718C52.6035 21.8015 52.7695 22.3582 52.7695 23.0417C52.7695 23.5691 52.6738 24.0125 52.4824 24.3718C52.291 24.7312 52.0469 25.0144 51.75 25.2214C51.457 25.4246 51.1582 25.5593 50.8535 25.6257C50.4395 25.7078 49.8398 25.7488 49.0547 25.7488H47.9238V28.989H46.1895ZM47.9238 21.8523V24.2898H48.873C49.5566 24.2898 50.0137 24.2449 50.2441 24.155C50.4746 24.0652 50.6543 23.9246 50.7832 23.7332C50.916 23.5417 50.9824 23.3191 50.9824 23.0652C50.9824 22.7527 50.8906 22.4949 50.707 22.2917C50.5234 22.0886 50.291 21.9617 50.0098 21.9109C49.8027 21.8718 49.3867 21.8523 48.7617 21.8523H47.9238ZM54.1992 28.989V20.3992H57.8496C58.7676 20.3992 59.4336 20.4773 59.8477 20.6335C60.2656 20.7859 60.5996 21.0593 60.8496 21.4539C61.0996 21.8484 61.2246 22.2996 61.2246 22.8074C61.2246 23.4519 61.0352 23.9851 60.6562 24.407C60.2773 24.825 59.7109 25.0886 58.957 25.198C59.332 25.4167 59.6406 25.657 59.8828 25.9187C60.1289 26.1804 60.459 26.6453 60.873 27.3132L61.9219 28.989H59.8477L58.5938 27.1199C58.1484 26.4519 57.8438 26.032 57.6797 25.8601C57.5156 25.6843 57.3418 25.5652 57.1582 25.5027C56.9746 25.4363 56.6836 25.4031 56.2852 25.4031H55.9336V28.989H54.1992ZM55.9336 24.032H57.2168C58.0488 24.032 58.5684 23.9968 58.7754 23.9265C58.9824 23.8562 59.1445 23.7351 59.2617 23.5632C59.3789 23.3914 59.4375 23.1765 59.4375 22.9187C59.4375 22.6296 59.3594 22.3972 59.2031 22.2214C59.0508 22.0417 58.834 21.9285 58.5527 21.8816C58.4121 21.8621 57.9902 21.8523 57.2871 21.8523H55.9336V24.032ZM62.5137 24.7468C62.5137 23.8718 62.6445 23.1375 62.9062 22.5437C63.1016 22.1062 63.3672 21.7136 63.7031 21.366C64.043 21.0183 64.4141 20.7605 64.8164 20.5925C65.3516 20.366 65.9688 20.2527 66.668 20.2527C67.9336 20.2527 68.9453 20.6453 69.7031 21.4304C70.4648 22.2156 70.8457 23.3074 70.8457 24.7058C70.8457 26.0925 70.4688 27.1785 69.7148 27.9636C68.9609 28.7449 67.9531 29.1355 66.6914 29.1355C65.4141 29.1355 64.3984 28.7468 63.6445 27.9695C62.8906 27.1882 62.5137 26.114 62.5137 24.7468ZM64.3008 24.6882C64.3008 25.6609 64.5254 26.3992 64.9746 26.9031C65.4238 27.4031 65.9941 27.6531 66.6855 27.6531C67.377 27.6531 67.9434 27.405 68.3848 26.9089C68.8301 26.4089 69.0527 25.6609 69.0527 24.6648C69.0527 23.6804 68.8359 22.946 68.4023 22.4617C67.9727 21.9773 67.4004 21.7351 66.6855 21.7351C65.9707 21.7351 65.3945 21.9812 64.957 22.4734C64.5195 22.9617 64.3008 23.7 64.3008 24.6882ZM74.1387 28.989V21.8523H71.5898V20.3992H78.416V21.8523H75.873V28.989H74.1387ZM79.541 28.989V20.3992H85.9102V21.8523H81.2754V23.7566H85.5879V25.2039H81.2754V27.5417H86.0742V28.989H79.541ZM87.4922 28.989V20.3992H89.2266V28.989H87.4922ZM90.9023 28.989V20.3992H92.5898L96.1055 26.1355V20.3992H97.7168V28.989H95.9766L92.5137 23.3875V28.989H90.9023Z" fill="white"/>
<defs>
<linearGradient id="paint0_linear_64_1881" x1="72" y1="1.98901" x2="72" y2="33.989" gradientUnits="userSpaceOnUse">
<stop stop-color="#E8C900"/>
<stop offset="1" stop-color="#06A2B2"/>
</linearGradient>
</defs>
</svg>
