<svg width="52" height="66" viewBox="0 0 52 66" fill="none" xmlns="http://www.w3.org/2000/svg">
<g opacity="0.7">
<path d="M12.1194 54.5639C6.05398 54.5639 1.11938 49.6293 1.11938 43.5639V20.4585C1.11938 14.3931 6.05398 9.4585 12.1194 9.4585C18.1848 9.4585 23.1194 14.3931 23.1194 20.4585V43.564C23.1194 49.6294 18.1848 54.5639 12.1194 54.5639Z" fill="url(#paint0_linear_90_4523)"/>
<path d="M12.1194 10.4585C17.6194 10.4585 22.1194 14.9585 22.1194 20.4585V43.5635C22.1194 49.0635 17.6194 53.5635 12.1194 53.5635C6.61938 53.5635 2.11938 49.0635 2.11938 43.5635V20.4585C2.11938 14.9585 6.61938 10.4585 12.1194 10.4585ZM12.1194 8.4585C5.50258 8.4585 0.119385 13.8417 0.119385 20.4585V43.5635C0.119385 50.1803 5.50258 55.5635 12.1194 55.5635C18.7362 55.5635 24.1194 50.1803 24.1194 43.5635V20.4585C24.1194 13.8417 18.7362 8.4585 12.1194 8.4585Z" fill="#FFB900"/>
</g>
<g opacity="0.7">
<path d="M24.1194 46.5639C18.054 46.5639 13.1194 41.6293 13.1194 35.5639V12.4585C13.1194 6.3931 18.054 1.4585 24.1194 1.4585C30.1848 1.4585 35.1194 6.3931 35.1194 12.4585V35.564C35.1194 41.6294 30.1848 46.5639 24.1194 46.5639Z" fill="url(#paint1_linear_90_4523)"/>
<path d="M24.1194 2.4585C29.6194 2.4585 34.1194 6.9585 34.1194 12.4585V35.5635C34.1194 41.0635 29.6194 45.5635 24.1194 45.5635C18.6194 45.5635 14.1194 41.0635 14.1194 35.5635V12.4585C14.1194 6.9585 18.6194 2.4585 24.1194 2.4585ZM24.1194 0.458496C17.5026 0.458496 12.1194 5.8417 12.1194 12.4585V35.5635C12.1194 42.1803 17.5026 47.5635 24.1194 47.5635C30.7362 47.5635 36.1194 42.1803 36.1194 35.5635V12.4585C36.1194 5.8417 30.7362 0.458496 24.1194 0.458496Z" fill="#FFB900"/>
</g>
<g opacity="0.7">
<path d="M27.1194 64.5639C21.054 64.5639 16.1194 59.6293 16.1194 53.5639V30.4585C16.1194 24.3931 21.054 19.4585 27.1194 19.4585C33.1848 19.4585 38.1194 24.3931 38.1194 30.4585V53.564C38.1194 59.6294 33.1848 64.5639 27.1194 64.5639Z" fill="url(#paint2_linear_90_4523)"/>
<path d="M27.1194 20.4585C32.6194 20.4585 37.1194 24.9585 37.1194 30.4585V53.5635C37.1194 59.0635 32.6194 63.5635 27.1194 63.5635C21.6194 63.5635 17.1194 59.0635 17.1194 53.5635V30.4585C17.1194 24.9585 21.6194 20.4585 27.1194 20.4585ZM27.1194 18.4585C20.5026 18.4585 15.1194 23.8417 15.1194 30.4585V53.5635C15.1194 60.1803 20.5026 65.5635 27.1194 65.5635C33.7362 65.5635 39.1194 60.1803 39.1194 53.5635V30.4585C39.1194 23.8417 33.7362 18.4585 27.1194 18.4585Z" fill="#FFB900"/>
</g>
<g opacity="0.7">
<path d="M39.1194 56.5639C33.054 56.5639 28.1194 51.6293 28.1194 45.5639V22.4585C28.1194 16.3931 33.054 11.4585 39.1194 11.4585C45.1848 11.4585 50.1194 16.3931 50.1194 22.4585V45.564C50.1194 51.6294 45.1848 56.5639 39.1194 56.5639Z" fill="url(#paint3_linear_90_4523)"/>
<path d="M39.1194 12.4585C44.6194 12.4585 49.1194 16.9585 49.1194 22.4585V45.5635C49.1194 51.0635 44.6194 55.5635 39.1194 55.5635C33.6194 55.5635 29.1194 51.0635 29.1194 45.5635V22.4585C29.1194 16.9585 33.6194 12.4585 39.1194 12.4585ZM39.1194 10.4585C32.5026 10.4585 27.1194 15.8417 27.1194 22.4585V45.5635C27.1194 52.1803 32.5026 57.5635 39.1194 57.5635C45.7362 57.5635 51.1194 52.1803 51.1194 45.5635V22.4585C51.1194 15.8417 45.7362 10.4585 39.1194 10.4585Z" fill="#FFB900"/>
</g>
<path d="M24.0037 18.8833C24.9992 18.6149 26.0403 18.4585 27.1195 18.4585C27.3515 18.4585 27.578 18.4803 27.8068 18.4934C29.1103 14.7866 32.1808 11.9106 36.003 10.8779C35.2252 5.0072 30.1992 0.458496 24.1195 0.458496C18.8947 0.458496 14.4513 3.8207 12.8079 8.4906C18.5753 8.8203 23.2579 13.2342 24.0037 18.8833Z" fill="url(#paint4_radial_90_4523)"/>
<defs>
<linearGradient id="paint0_linear_90_4523" x1="23.1194" y1="32.0112" x2="1.11938" y2="32.0112" gradientUnits="userSpaceOnUse">
<stop stop-color="#00236F"/>
<stop offset="1" stop-color="#FFB900"/>
</linearGradient>
<linearGradient id="paint1_linear_90_4523" x1="35.1194" y1="24.0112" x2="13.1194" y2="24.0112" gradientUnits="userSpaceOnUse">
<stop stop-color="#00236F"/>
<stop offset="1" stop-color="#FFB900"/>
</linearGradient>
<linearGradient id="paint2_linear_90_4523" x1="38.1194" y1="42.0112" x2="16.1194" y2="42.0112" gradientUnits="userSpaceOnUse">
<stop stop-color="#00236F"/>
<stop offset="1" stop-color="#FFB900"/>
</linearGradient>
<linearGradient id="paint3_linear_90_4523" x1="50.1194" y1="34.0112" x2="28.1194" y2="34.0112" gradientUnits="userSpaceOnUse">
<stop stop-color="#00236F"/>
<stop offset="1" stop-color="#FFB900"/>
</linearGradient>
<radialGradient id="paint4_radial_90_4523" cx="0" cy="0" r="1" gradientUnits="userSpaceOnUse" gradientTransform="translate(24.6302 25.4269) scale(15.3465 21.7982)">
<stop stop-color="#000054"/>
<stop offset="1" stop-color="#000054" stop-opacity="0"/>
</radialGradient>
</defs>
</svg>
