<svg width="49" height="24" viewBox="0 0 49 24" fill="none" xmlns="http://www.w3.org/2000/svg">
<rect x="2" y="1.98901" width="46" height="20" rx="10" fill="url(#paint0_linear_64_1911)"/>
<rect x="2" y="1.98901" width="46" height="20" rx="10" stroke="#163D43" stroke-width="3" stroke-linejoin="round"/>
<path d="M10.3047 15.989V7.39917H13.0879C14.1426 7.39917 14.8301 7.44214 15.1504 7.52808C15.6426 7.65698 16.0547 7.93823 16.3867 8.37183C16.7188 8.80151 16.8848 9.35815 16.8848 10.0417C16.8848 10.5691 16.7891 11.0125 16.5977 11.3718C16.4062 11.7312 16.1621 12.0144 15.8652 12.2214C15.5723 12.4246 15.2734 12.5593 14.9688 12.6257C14.5547 12.7078 13.9551 12.7488 13.1699 12.7488H12.0391V15.989H10.3047ZM12.0391 8.85229V11.2898H12.9883C13.6719 11.2898 14.1289 11.2449 14.3594 11.155C14.5898 11.0652 14.7695 10.9246 14.8984 10.7332C15.0312 10.5417 15.0977 10.3191 15.0977 10.0652C15.0977 9.75269 15.0059 9.49487 14.8223 9.29175C14.6387 9.08862 14.4062 8.96167 14.125 8.91089C13.918 8.87183 13.502 8.85229 12.877 8.85229H12.0391ZM25.1641 15.989H23.2773L22.5273 14.0378H19.0938L18.3848 15.989H16.5449L19.8906 7.39917H21.7246L25.1641 15.989ZM21.9707 12.5906L20.7871 9.40308L19.627 12.5906H21.9707ZM26.1133 15.989V7.39917H27.8477V11.2136L31.3516 7.39917H33.6836L30.4492 10.7449L33.8594 15.989H31.6152L29.2539 11.9578L27.8477 13.3933V15.989H26.1133ZM38.6113 15.989H36.9648V9.78394C36.3633 10.3464 35.6543 10.7625 34.8379 11.032V9.53784C35.2676 9.39722 35.7344 9.13159 36.2383 8.74097C36.7422 8.34644 37.0879 7.88745 37.2754 7.36401H38.6113V15.989Z" fill="white"/>
<defs>
<linearGradient id="paint0_linear_64_1911" x1="25" y1="1.98901" x2="25" y2="21.989" gradientUnits="userSpaceOnUse">
<stop stop-color="#163D43"/>
<stop offset="1" stop-color="#FF69AC"/>
</linearGradient>
</defs>
</svg>
