<svg width="38" height="24" viewBox="0 0 38 24" fill="none" xmlns="http://www.w3.org/2000/svg">
<rect x="2" y="1.98901" width="35" height="20" rx="10" fill="url(#paint0_linear_42_2644)"/>
<rect x="2" y="1.98901" width="35" height="20" rx="10" stroke="#2B63B3" stroke-width="3" stroke-linejoin="round"/>
<path d="M10.0371 15.989V7.39917H15.9258V8.85229H11.7715V10.8855H15.3574V12.3386H11.7715V15.989H10.0371ZM18.4102 11.3542C17.9844 11.1746 17.6738 10.9285 17.4785 10.616C17.2871 10.2996 17.1914 9.95386 17.1914 9.57886C17.1914 8.93823 17.4141 8.40894 17.8594 7.99097C18.3086 7.573 18.9453 7.36401 19.7695 7.36401C20.5859 7.36401 21.2188 7.573 21.668 7.99097C22.1211 8.40894 22.3477 8.93823 22.3477 9.57886C22.3477 9.97729 22.2441 10.3328 22.0371 10.6453C21.8301 10.9539 21.5391 11.1902 21.1641 11.3542C21.6406 11.5457 22.002 11.825 22.248 12.1921C22.498 12.5593 22.623 12.9832 22.623 13.4636C22.623 14.2566 22.3691 14.9011 21.8613 15.3972C21.3574 15.8933 20.6855 16.1414 19.8457 16.1414C19.0645 16.1414 18.4141 15.9363 17.8945 15.5261C17.2812 15.0417 16.9746 14.3777 16.9746 13.5339C16.9746 13.0691 17.0898 12.6433 17.3203 12.2566C17.5508 11.866 17.9141 11.5652 18.4102 11.3542ZM18.75 9.69604C18.75 10.0242 18.8418 10.28 19.0254 10.4636C19.2129 10.6472 19.4609 10.739 19.7695 10.739C20.082 10.739 20.332 10.6472 20.5195 10.4636C20.707 10.2761 20.8008 10.0183 20.8008 9.69019C20.8008 9.38159 20.707 9.1355 20.5195 8.9519C20.3359 8.7644 20.0918 8.67065 19.7871 8.67065C19.4707 8.67065 19.2188 8.7644 19.0312 8.9519C18.8438 9.1394 18.75 9.38745 18.75 9.69604ZM18.5977 13.3757C18.5977 13.8289 18.7129 14.1824 18.9434 14.4363C19.1777 14.6902 19.4688 14.8171 19.8164 14.8171C20.1562 14.8171 20.4375 14.696 20.6602 14.4539C20.8828 14.2078 20.9941 13.8542 20.9941 13.3933C20.9941 12.991 20.8809 12.6687 20.6543 12.4265C20.4277 12.1804 20.1406 12.0574 19.793 12.0574C19.3906 12.0574 19.0898 12.196 18.8906 12.4734C18.6953 12.7507 18.5977 13.0515 18.5977 13.3757ZM25.2598 11.6648L23.7656 11.3953C23.9336 10.7937 24.2227 10.3484 24.6328 10.0593C25.043 9.77026 25.6523 9.62573 26.4609 9.62573C27.1953 9.62573 27.7422 9.71362 28.1016 9.8894C28.4609 10.0613 28.7129 10.282 28.8574 10.5515C29.0059 10.8171 29.0801 11.3074 29.0801 12.0222L29.0625 13.9441C29.0625 14.491 29.0879 14.8953 29.1387 15.157C29.1934 15.4148 29.293 15.6921 29.4375 15.989H27.8086C27.7656 15.8796 27.7129 15.7175 27.6504 15.5027C27.623 15.405 27.6035 15.3406 27.5918 15.3093C27.3105 15.5828 27.0098 15.7878 26.6895 15.9246C26.3691 16.0613 26.0273 16.1296 25.6641 16.1296C25.0234 16.1296 24.5176 15.9558 24.1465 15.6082C23.7793 15.2605 23.5957 14.821 23.5957 14.2898C23.5957 13.9382 23.6797 13.6257 23.8477 13.3523C24.0156 13.075 24.25 12.864 24.5508 12.7195C24.8555 12.571 25.293 12.4421 25.8633 12.3328C26.6328 12.1882 27.166 12.0535 27.4629 11.9285V11.7644C27.4629 11.448 27.3848 11.2234 27.2285 11.0906C27.0723 10.9539 26.7773 10.8855 26.3438 10.8855C26.0508 10.8855 25.8223 10.9441 25.6582 11.0613C25.4941 11.1746 25.3613 11.3757 25.2598 11.6648ZM27.4629 13.0007C27.252 13.071 26.918 13.155 26.4609 13.2527C26.0039 13.3503 25.7051 13.446 25.5645 13.5398C25.3496 13.6921 25.2422 13.8855 25.2422 14.1199C25.2422 14.3503 25.3281 14.5496 25.5 14.7175C25.6719 14.8855 25.8906 14.9695 26.1562 14.9695C26.4531 14.9695 26.7363 14.8718 27.0059 14.6765C27.2051 14.5281 27.3359 14.3464 27.3984 14.1316C27.4414 13.991 27.4629 13.7234 27.4629 13.3289V13.0007Z" fill="white"/>
<defs>
<linearGradient id="paint0_linear_42_2644" x1="19.5" y1="1.98901" x2="19.5" y2="21.989" gradientUnits="userSpaceOnUse">
<stop stop-color="#19605B"/>
<stop offset="1" stop-color="#2B63B3"/>
</linearGradient>
</defs>
</svg>
