<svg width="75" height="24" viewBox="0 0 75 24" fill="none" xmlns="http://www.w3.org/2000/svg">
<rect x="1" y="1.98901" width="73" height="20" rx="10" fill="url(#paint0_linear_52_1859)"/>
<rect x="1" y="1.98901" width="73" height="20" rx="10" stroke="#2764E0" stroke-width="3" stroke-linejoin="round"/>
<path d="M8.98828 15.989V7.39917H11.584L13.1426 13.2585L14.6836 7.39917H17.2852V15.989H15.6738V9.22729L13.9688 15.989H12.2988L10.5996 9.22729V15.989H8.98828ZM26.7539 15.989H24.8672L24.1172 14.0378H20.6836L19.9746 15.989H18.1348L21.4805 7.39917H23.3145L26.7539 15.989ZM23.5605 12.5906L22.377 9.40308L21.2168 12.5906H23.5605ZM27.6797 15.989V7.39917H30.4629C31.5176 7.39917 32.2051 7.44214 32.5254 7.52808C33.0176 7.65698 33.4297 7.93823 33.7617 8.37183C34.0938 8.80151 34.2598 9.35815 34.2598 10.0417C34.2598 10.5691 34.1641 11.0125 33.9727 11.3718C33.7812 11.7312 33.5371 12.0144 33.2402 12.2214C32.9473 12.4246 32.6484 12.5593 32.3438 12.6257C31.9297 12.7078 31.3301 12.7488 30.5449 12.7488H29.4141V15.989H27.6797ZM29.4141 8.85229V11.2898H30.3633C31.0469 11.2898 31.5039 11.2449 31.7344 11.155C31.9648 11.0652 32.1445 10.9246 32.2734 10.7332C32.4062 10.5417 32.4727 10.3191 32.4727 10.0652C32.4727 9.75269 32.3809 9.49487 32.1973 9.29175C32.0137 9.08862 31.7812 8.96167 31.5 8.91089C31.293 8.87183 30.877 8.85229 30.252 8.85229H29.4141ZM40.8809 14.4597V15.989H35.1094C35.1719 15.4109 35.3594 14.864 35.6719 14.3484C35.9844 13.8289 36.6016 13.1414 37.5234 12.2859C38.2656 11.5945 38.7207 11.1257 38.8887 10.8796C39.1152 10.5398 39.2285 10.2039 39.2285 9.87183C39.2285 9.50464 39.1289 9.22339 38.9297 9.02808C38.7344 8.82886 38.4629 8.72925 38.1152 8.72925C37.7715 8.72925 37.498 8.83276 37.2949 9.03979C37.0918 9.24683 36.9746 9.59058 36.9434 10.071L35.3027 9.90698C35.4004 9.00073 35.707 8.35034 36.2227 7.95581C36.7383 7.56128 37.3828 7.36401 38.1562 7.36401C39.0039 7.36401 39.6699 7.59253 40.1543 8.04956C40.6387 8.50659 40.8809 9.07495 40.8809 9.75464C40.8809 10.1414 40.8105 10.5105 40.6699 10.8621C40.5332 11.2097 40.3145 11.575 40.0137 11.9578C39.8145 12.2117 39.4551 12.5769 38.9355 13.0535C38.416 13.53 38.0859 13.8464 37.9453 14.0027C37.8086 14.1589 37.6973 14.3113 37.6113 14.4597H40.8809ZM42.3867 15.989V7.39917H44.1211V11.2136L47.625 7.39917H49.957L46.7227 10.7449L50.1328 15.989H47.8887L45.5273 11.9578L44.1211 13.3933V15.989H42.3867ZM54.8848 15.989H53.2383V9.78394C52.6367 10.3464 51.9277 10.7625 51.1113 11.032V9.53784C51.541 9.39722 52.0078 9.13159 52.5117 8.74097C53.0156 8.34644 53.3613 7.88745 53.5488 7.36401H54.8848V15.989ZM57.6621 14.3425H59.3086V15.5203C59.3086 15.9968 59.2676 16.3718 59.1855 16.6453C59.1035 16.9226 58.9473 17.1707 58.7168 17.3894C58.4902 17.6082 58.2012 17.78 57.8496 17.905L57.5273 17.2253C57.8594 17.116 58.0957 16.9656 58.2363 16.7742C58.377 16.5828 58.4512 16.321 58.459 15.989H57.6621V14.3425ZM66.252 14.4597V15.989H60.4805C60.543 15.4109 60.7305 14.864 61.043 14.3484C61.3555 13.8289 61.9727 13.1414 62.8945 12.2859C63.6367 11.5945 64.0918 11.1257 64.2598 10.8796C64.4863 10.5398 64.5996 10.2039 64.5996 9.87183C64.5996 9.50464 64.5 9.22339 64.3008 9.02808C64.1055 8.82886 63.834 8.72925 63.4863 8.72925C63.1426 8.72925 62.8691 8.83276 62.666 9.03979C62.4629 9.24683 62.3457 9.59058 62.3145 10.071L60.6738 9.90698C60.7715 9.00073 61.0781 8.35034 61.5938 7.95581C62.1094 7.56128 62.7539 7.36401 63.5273 7.36401C64.375 7.36401 65.041 7.59253 65.5254 8.04956C66.0098 8.50659 66.252 9.07495 66.252 9.75464C66.252 10.1414 66.1816 10.5105 66.041 10.8621C65.9043 11.2097 65.6855 11.575 65.3848 11.9578C65.1855 12.2117 64.8262 12.5769 64.3066 13.0535C63.7871 13.53 63.457 13.8464 63.3164 14.0027C63.1797 14.1589 63.0684 14.3113 62.9824 14.4597H66.252Z" fill="white"/>
<defs>
<linearGradient id="paint0_linear_52_1859" x1="37.5" y1="1.98901" x2="37.5" y2="21.989" gradientUnits="userSpaceOnUse">
<stop stop-color="#2764E0"/>
<stop offset="1" stop-color="#5A910E"/>
</linearGradient>
</defs>
</svg>
