<svg width="63" height="24" viewBox="0 0 63 24" fill="none" xmlns="http://www.w3.org/2000/svg">
<rect x="2" y="1.98901" width="60" height="20" rx="10" fill="url(#paint0_linear_85_2071)"/>
<rect x="2" y="1.98901" width="60" height="20" rx="10" stroke="#D51C46" stroke-width="3" stroke-linejoin="round"/>
<path d="M9.44727 15.989V14.4246L13.959 8.85229H9.95703V7.39917H16.2441V8.74683L11.5391 14.5417H16.4258V15.989H9.44727ZM17.5391 15.989V7.39917H23.4277V8.85229H19.2734V10.8855H22.8594V12.3386H19.2734V15.989H17.5391ZM27.1191 15.989V12.3738L23.9727 7.39917H26.0059L28.0273 10.7976L30.0078 7.39917H32.0059L28.8477 12.3855V15.989H27.1191ZM35.0586 15.989L31.9883 7.39917H33.8691L36.043 13.7566L38.1465 7.39917H39.9863L36.9102 15.989H35.0586ZM40.8711 15.989V7.39917H47.2402V8.85229H42.6055V10.7566H46.918V12.2039H42.6055V14.5417H47.4043V15.989H40.8711ZM48.5469 14.0027L50.1406 13.8269C50.1797 14.1511 50.2812 14.3914 50.4453 14.5476C50.6094 14.7039 50.8262 14.782 51.0957 14.782C51.4355 14.782 51.7246 14.6257 51.9629 14.3132C52.2012 14.0007 52.3535 13.3523 52.4199 12.3679C52.0059 12.8484 51.4883 13.0886 50.8672 13.0886C50.1914 13.0886 49.6074 12.8289 49.1152 12.3093C48.627 11.7859 48.3828 11.1062 48.3828 10.2703C48.3828 9.39917 48.6406 8.698 49.1562 8.16675C49.6758 7.63159 50.3359 7.36401 51.1367 7.36401C52.0078 7.36401 52.7227 7.7019 53.2812 8.37769C53.8398 9.04956 54.1191 10.157 54.1191 11.7C54.1191 13.2703 53.8281 14.4031 53.2461 15.0984C52.6641 15.7937 51.9062 16.1414 50.9727 16.1414C50.3008 16.1414 49.7578 15.9636 49.3438 15.6082C48.9297 15.2488 48.6641 14.7136 48.5469 14.0027ZM52.2734 10.405C52.2734 9.87378 52.1504 9.46167 51.9043 9.1687C51.6621 8.87573 51.3809 8.72925 51.0605 8.72925C50.7559 8.72925 50.502 8.85034 50.2988 9.09253C50.0996 9.33081 50 9.72339 50 10.2703C50 10.825 50.1094 11.2332 50.3281 11.4949C50.5469 11.7527 50.8203 11.8816 51.1484 11.8816C51.4648 11.8816 51.7305 11.7566 51.9453 11.5066C52.1641 11.2566 52.2734 10.8894 52.2734 10.405Z" fill="white"/>
<defs>
<linearGradient id="paint0_linear_85_2071" x1="32" y1="1.98901" x2="32" y2="21.989" gradientUnits="userSpaceOnUse">
<stop stop-color="#D51C46"/>
<stop offset="1" stop-color="#F7FF91"/>
</linearGradient>
</defs>
</svg>
