<svg width="50" height="24" viewBox="0 0 50 24" fill="none" xmlns="http://www.w3.org/2000/svg">
<rect x="2" y="1.98901" width="47" height="20" rx="10" fill="url(#paint0_linear_46_4280)"/>
<rect x="2" y="1.98901" width="47" height="20" rx="10" stroke="#000050" stroke-width="3" stroke-linejoin="round"/>
<path d="M14.3555 12.8308V11.3835H18.0938V14.8054C17.7305 15.157 17.2031 15.4675 16.5117 15.7371C15.8242 16.0027 15.127 16.1355 14.4199 16.1355C13.5215 16.1355 12.7383 15.948 12.0703 15.573C11.4023 15.1941 10.9004 14.655 10.5645 13.9558C10.2285 13.2527 10.0605 12.489 10.0605 11.6648C10.0605 10.7703 10.248 9.97534 10.623 9.28003C10.998 8.58472 11.5469 8.05151 12.2695 7.68042C12.8203 7.39526 13.5059 7.25269 14.3262 7.25269C15.3926 7.25269 16.2246 7.47729 16.8223 7.92651C17.4238 8.37183 17.8105 8.98901 17.9824 9.77808L16.2598 10.1003C16.1387 9.67847 15.9102 9.34644 15.5742 9.10425C15.2422 8.85815 14.8262 8.73511 14.3262 8.73511C13.5684 8.73511 12.9648 8.97534 12.5156 9.45581C12.0703 9.93628 11.8477 10.6492 11.8477 11.5945C11.8477 12.614 12.0742 13.3796 12.5273 13.8914C12.9805 14.3992 13.5742 14.6531 14.3086 14.6531C14.6719 14.6531 15.0352 14.5828 15.3984 14.4421C15.7656 14.2976 16.0801 14.1238 16.3418 13.9207V12.8308H14.3555ZM19.6992 15.989V7.39917H22.4824C23.5371 7.39917 24.2246 7.44214 24.5449 7.52808C25.0371 7.65698 25.4492 7.93823 25.7812 8.37183C26.1133 8.80151 26.2793 9.35815 26.2793 10.0417C26.2793 10.5691 26.1836 11.0125 25.9922 11.3718C25.8008 11.7312 25.5566 12.0144 25.2598 12.2214C24.9668 12.4246 24.668 12.5593 24.3633 12.6257C23.9492 12.7078 23.3496 12.7488 22.5645 12.7488H21.4336V15.989H19.6992ZM21.4336 8.85229V11.2898H22.3828C23.0664 11.2898 23.5234 11.2449 23.7539 11.155C23.9844 11.0652 24.1641 10.9246 24.293 10.7332C24.4258 10.5417 24.4922 10.3191 24.4922 10.0652C24.4922 9.75269 24.4004 9.49487 24.2168 9.29175C24.0332 9.08862 23.8008 8.96167 23.5195 8.91089C23.3125 8.87183 22.8965 8.85229 22.2715 8.85229H21.4336ZM26.8301 15.989L29.7656 11.5066L27.1055 7.39917H29.1328L30.8555 10.1589L32.543 7.39917H34.5527L31.8809 11.571L34.8164 15.989H32.7246L30.8203 13.0183L28.9102 15.989H26.8301ZM38.5723 15.989V14.2605H35.0566V12.8191L38.7832 7.36401H40.166V12.8132H41.2324V14.2605H40.166V15.989H38.5723ZM38.5723 12.8132V9.87769L36.5977 12.8132H38.5723Z" fill="white"/>
<defs>
<linearGradient id="paint0_linear_46_4280" x1="25.5" y1="1.98901" x2="25.5" y2="21.989" gradientUnits="userSpaceOnUse">
<stop stop-color="#DBE304"/>
<stop offset="1" stop-color="#000050"/>
</linearGradient>
</defs>
</svg>
