<svg width="40" height="151" viewBox="0 0 40 151" fill="none" xmlns="http://www.w3.org/2000/svg">
<path d="M14.4018 150.011H5.77295C3.01155 150.011 0.772949 147.772 0.772949 145.011V129.584C0.772949 126.823 3.01155 124.584 5.77295 124.584H14.4018C17.1632 124.584 19.4018 126.823 19.4018 129.584V145.011C19.4018 147.772 17.1632 150.011 14.4018 150.011Z" fill="url(#paint0_linear_86_3440)"/>
<path d="M14.4018 150.011H5.77295C3.01155 150.011 0.772949 147.772 0.772949 145.011V129.584C0.772949 126.823 3.01155 124.584 5.77295 124.584H14.4018C17.1632 124.584 19.4018 126.823 19.4018 129.584V145.011C19.4018 147.772 17.1632 150.011 14.4018 150.011Z" fill="url(#paint1_linear_86_3440)"/>
<path d="M14.4018 124.585H5.77295C3.01155 124.585 0.772949 122.346 0.772949 119.585V104.158C0.772949 101.397 3.01155 99.1582 5.77295 99.1582H14.4018C17.1632 99.1582 19.4018 101.397 19.4018 104.158V119.585C19.4018 122.346 17.1632 124.585 14.4018 124.585Z" fill="url(#paint2_linear_86_3440)"/>
<path d="M14.4018 124.585H5.77295C3.01155 124.585 0.772949 122.346 0.772949 119.585V104.158C0.772949 101.397 3.01155 99.1582 5.77295 99.1582H14.4018C17.1632 99.1582 19.4018 101.397 19.4018 104.158V119.585C19.4018 122.346 17.1632 124.585 14.4018 124.585Z" fill="url(#paint3_linear_86_3440)"/>
<path d="M10.0873 103.924C7.95024 103.924 6.21814 102.176 6.21814 100.019V90.8609C6.21814 88.7038 7.95024 86.9556 10.0873 86.9556C12.2244 86.9556 13.9565 88.7039 13.9565 90.8609V100.019C13.9565 102.176 12.2245 103.924 10.0873 103.924Z" fill="url(#paint4_linear_86_3440)"/>
<path d="M14.4018 90.8607H5.77295C3.01155 90.8607 0.772949 88.6221 0.772949 85.8607V83.1475C0.772949 80.3861 3.01155 78.1475 5.77295 78.1475H14.4018C17.1632 78.1475 19.4018 80.3861 19.4018 83.1475V85.8607C19.4018 88.6221 17.1632 90.8607 14.4018 90.8607Z" fill="url(#paint5_linear_86_3440)"/>
<path d="M14.4018 90.8607H5.77295C3.01155 90.8607 0.772949 88.6221 0.772949 85.8607V83.1475C0.772949 80.3861 3.01155 78.1475 5.77295 78.1475H14.4018C17.1632 78.1475 19.4018 80.3861 19.4018 83.1475V85.8607C19.4018 88.6221 17.1632 90.8607 14.4018 90.8607Z" fill="url(#paint6_linear_86_3440)"/>
<path d="M10.0873 82.8284C7.95024 82.8284 6.21814 81.0802 6.21814 78.9231V66.9859C6.21814 64.8288 7.95024 63.0806 10.0873 63.0806C12.2244 63.0806 13.9565 64.8288 13.9565 66.9859V78.923C13.9565 81.0801 12.2245 82.8284 10.0873 82.8284Z" fill="url(#paint7_linear_86_3440)"/>
<path d="M18.683 21.0525C18.683 18.6014 17.6518 16.3954 16.0059 14.8295C17.618 13.2959 18.6403 11.1481 18.6817 8.75739C18.7649 3.94749 14.6298 0.0109863 9.81916 0.0109863H4.89856C3.01706 0.0109863 1.49176 1.53629 1.49176 3.41789V63.579C1.49176 65.4606 3.01706 66.9859 4.89866 66.9859H9.81916C14.63 66.9859 18.765 63.0494 18.6818 58.2393C18.6404 55.8486 17.618 53.701 16.006 52.1673C17.6519 50.6014 18.6831 48.3955 18.6831 45.9443C18.6831 43.4931 17.6519 41.2872 16.006 39.7213C17.6519 38.1554 18.6831 35.9495 18.6831 33.4983C18.6831 31.0472 17.6519 28.8412 16.006 27.2753C17.6518 25.7097 18.683 23.5037 18.683 21.0525Z" fill="url(#paint8_linear_86_3440)"/>
<path d="M34.5585 150.011H25.9296C23.1682 150.011 20.9296 147.772 20.9296 145.011V129.584C20.9296 126.823 23.1682 124.584 25.9296 124.584H34.5585C37.3199 124.584 39.5585 126.823 39.5585 129.584V145.011C39.5585 147.772 37.3199 150.011 34.5585 150.011Z" fill="url(#paint9_linear_86_3440)"/>
<path d="M34.5585 150.011H25.9296C23.1682 150.011 20.9296 147.772 20.9296 145.011V129.584C20.9296 126.823 23.1682 124.584 25.9296 124.584H34.5585C37.3199 124.584 39.5585 126.823 39.5585 129.584V145.011C39.5585 147.772 37.3199 150.011 34.5585 150.011Z" fill="url(#paint10_linear_86_3440)"/>
<path d="M34.5585 124.585H25.9296C23.1682 124.585 20.9296 122.346 20.9296 119.585V104.158C20.9296 101.397 23.1682 99.1582 25.9296 99.1582H34.5585C37.3199 99.1582 39.5585 101.397 39.5585 104.158V119.585C39.5585 122.346 37.3199 124.585 34.5585 124.585Z" fill="url(#paint11_linear_86_3440)"/>
<path d="M34.5585 124.585H25.9296C23.1682 124.585 20.9296 122.346 20.9296 119.585V104.158C20.9296 101.397 23.1682 99.1582 25.9296 99.1582H34.5585C37.3199 99.1582 39.5585 101.397 39.5585 104.158V119.585C39.5585 122.346 37.3199 124.585 34.5585 124.585Z" fill="url(#paint12_linear_86_3440)"/>
<path d="M30.244 103.924C28.1069 103.924 26.3748 102.176 26.3748 100.019V90.8609C26.3748 88.7038 28.1069 86.9556 30.244 86.9556C32.3811 86.9556 34.1132 88.7039 34.1132 90.8609V100.019C34.1132 102.176 32.3811 103.924 30.244 103.924Z" fill="url(#paint13_linear_86_3440)"/>
<path d="M34.5585 90.8607H25.9296C23.1682 90.8607 20.9296 88.6221 20.9296 85.8607V83.1475C20.9296 80.3861 23.1682 78.1475 25.9296 78.1475H34.5585C37.3199 78.1475 39.5585 80.3861 39.5585 83.1475V85.8607C39.5585 88.6221 37.3199 90.8607 34.5585 90.8607Z" fill="url(#paint14_linear_86_3440)"/>
<path d="M34.5585 90.8607H25.9296C23.1682 90.8607 20.9296 88.6221 20.9296 85.8607V83.1475C20.9296 80.3861 23.1682 78.1475 25.9296 78.1475H34.5585C37.3199 78.1475 39.5585 80.3861 39.5585 83.1475V85.8607C39.5585 88.6221 37.3199 90.8607 34.5585 90.8607Z" fill="url(#paint15_linear_86_3440)"/>
<path d="M30.244 82.8284C28.1069 82.8284 26.3748 81.0802 26.3748 78.9231V66.9859C26.3748 64.8288 28.1069 63.0806 30.244 63.0806C32.3811 63.0806 34.1132 64.8288 34.1132 66.9859V78.923C34.1132 81.0801 32.3811 82.8284 30.244 82.8284Z" fill="url(#paint16_linear_86_3440)"/>
<path d="M21.6484 21.0525C21.6484 18.6014 22.6796 16.3954 24.3255 14.8295C22.7134 13.2959 21.6911 11.1481 21.6497 8.75739C21.5665 3.94749 25.7016 0.0109863 30.5123 0.0109863H35.4328C37.3144 0.0109863 38.8397 1.53629 38.8397 3.41789V63.579C38.8397 65.4606 37.3144 66.9859 35.4328 66.9859H30.5123C25.7015 66.9859 21.5665 63.0494 21.6497 58.2393C21.6911 55.8486 22.7135 53.701 24.3255 52.1673C22.6796 50.6014 21.6484 48.3955 21.6484 45.9443C21.6484 43.4931 22.6796 41.2872 24.3255 39.7213C22.6796 38.1554 21.6484 35.9495 21.6484 33.4983C21.6484 31.0472 22.6796 28.8412 24.3255 27.2753C22.6796 25.7097 21.6484 23.5037 21.6484 21.0525Z" fill="url(#paint17_linear_86_3440)"/>
<defs>
<linearGradient id="paint0_linear_86_3440" x1="0.772949" y1="137.298" x2="19.4018" y2="137.298" gradientUnits="userSpaceOnUse">
<stop stop-color="#80006F"/>
<stop offset="0.0243" stop-color="#982E79"/>
<stop offset="0.0536" stop-color="#B05F83"/>
<stop offset="0.0828" stop-color="#C5888C"/>
<stop offset="0.1112" stop-color="#D5A792"/>
<stop offset="0.1386" stop-color="#E1BE97"/>
<stop offset="0.1646" stop-color="#E8CB9A"/>
<stop offset="0.1877" stop-color="#EAD09B"/>
<stop offset="0.6987" stop-color="#EAD09B"/>
<stop offset="0.7397" stop-color="#E8CC9A"/>
<stop offset="0.7815" stop-color="#E2C098"/>
<stop offset="0.8237" stop-color="#D7AB93"/>
<stop offset="0.8662" stop-color="#C98F8D"/>
<stop offset="0.9089" stop-color="#B66A85"/>
<stop offset="0.9517" stop-color="#9F3D7C"/>
<stop offset="0.994" stop-color="#840871"/>
<stop offset="1" stop-color="#80006F"/>
</linearGradient>
<linearGradient id="paint1_linear_86_3440" x1="10.0873" y1="150.011" x2="10.0873" y2="124.584" gradientUnits="userSpaceOnUse">
<stop stop-color="#80006F"/>
<stop offset="0.036" stop-color="#982F79" stop-opacity="0.8687"/>
<stop offset="0.0786" stop-color="#B16083" stop-opacity="0.7133"/>
<stop offset="0.121" stop-color="#C5888C" stop-opacity="0.5587"/>
<stop offset="0.1623" stop-color="#D5A792" stop-opacity="0.4079"/>
<stop offset="0.2022" stop-color="#E1BE97" stop-opacity="0.2622"/>
<stop offset="0.2402" stop-color="#E8CB9A" stop-opacity="0.1237"/>
<stop offset="0.2741" stop-color="#EAD09B" stop-opacity="0"/>
<stop offset="0.3162" stop-color="#EAD09B" stop-opacity="0"/>
<stop offset="0.5616" stop-color="#EAD09B" stop-opacity="0"/>
<stop offset="0.6223" stop-color="#DFBA96" stop-opacity="0.1108"/>
<stop offset="0.7491" stop-color="#C1808A" stop-opacity="0.3421"/>
<stop offset="0.9298" stop-color="#932577" stop-opacity="0.6718"/>
<stop offset="1" stop-color="#80006F" stop-opacity="0.8"/>
</linearGradient>
<linearGradient id="paint2_linear_86_3440" x1="0.772949" y1="111.872" x2="19.4018" y2="111.872" gradientUnits="userSpaceOnUse">
<stop stop-color="#80006F"/>
<stop offset="0.0243" stop-color="#982E79"/>
<stop offset="0.0536" stop-color="#B05F83"/>
<stop offset="0.0828" stop-color="#C5888C"/>
<stop offset="0.1112" stop-color="#D5A792"/>
<stop offset="0.1386" stop-color="#E1BE97"/>
<stop offset="0.1646" stop-color="#E8CB9A"/>
<stop offset="0.1877" stop-color="#EAD09B"/>
<stop offset="0.6987" stop-color="#EAD09B"/>
<stop offset="0.7397" stop-color="#E8CC9A"/>
<stop offset="0.7815" stop-color="#E2C098"/>
<stop offset="0.8237" stop-color="#D7AB93"/>
<stop offset="0.8662" stop-color="#C98F8D"/>
<stop offset="0.9089" stop-color="#B66A85"/>
<stop offset="0.9517" stop-color="#9F3D7C"/>
<stop offset="0.994" stop-color="#840871"/>
<stop offset="1" stop-color="#80006F"/>
</linearGradient>
<linearGradient id="paint3_linear_86_3440" x1="10.0873" y1="124.585" x2="10.0873" y2="99.1582" gradientUnits="userSpaceOnUse">
<stop stop-color="#80006F"/>
<stop offset="0.036" stop-color="#982F79" stop-opacity="0.8687"/>
<stop offset="0.0786" stop-color="#B16083" stop-opacity="0.7133"/>
<stop offset="0.121" stop-color="#C5888C" stop-opacity="0.5587"/>
<stop offset="0.1623" stop-color="#D5A792" stop-opacity="0.4079"/>
<stop offset="0.2022" stop-color="#E1BE97" stop-opacity="0.2622"/>
<stop offset="0.2402" stop-color="#E8CB9A" stop-opacity="0.1237"/>
<stop offset="0.2741" stop-color="#EAD09B" stop-opacity="0"/>
<stop offset="0.3162" stop-color="#EAD09B" stop-opacity="0"/>
<stop offset="0.5616" stop-color="#EAD09B" stop-opacity="0"/>
<stop offset="0.6223" stop-color="#DFBA96" stop-opacity="0.1108"/>
<stop offset="0.7491" stop-color="#C1808A" stop-opacity="0.3421"/>
<stop offset="0.9298" stop-color="#932577" stop-opacity="0.6718"/>
<stop offset="1" stop-color="#80006F" stop-opacity="0.8"/>
</linearGradient>
<linearGradient id="paint4_linear_86_3440" x1="6.21824" y1="95.4397" x2="13.9565" y2="95.4397" gradientUnits="userSpaceOnUse">
<stop stop-color="#80006F"/>
<stop offset="0.0676" stop-color="#99327A"/>
<stop offset="0.1522" stop-color="#B66A85"/>
<stop offset="0.2307" stop-color="#CC968F"/>
<stop offset="0.3007" stop-color="#DDB695"/>
<stop offset="0.3595" stop-color="#E6C99A"/>
<stop offset="0.4" stop-color="#EAD09B"/>
<stop offset="0.4733" stop-color="#E8CB9A"/>
<stop offset="0.5565" stop-color="#E1BE97"/>
<stop offset="0.6444" stop-color="#D5A792"/>
<stop offset="0.7358" stop-color="#C5878C"/>
<stop offset="0.8297" stop-color="#B05E83"/>
<stop offset="0.9244" stop-color="#972D78"/>
<stop offset="1" stop-color="#80006F"/>
</linearGradient>
<linearGradient id="paint5_linear_86_3440" x1="0.772949" y1="84.504" x2="19.4018" y2="84.504" gradientUnits="userSpaceOnUse">
<stop stop-color="#80006F"/>
<stop offset="0.0243" stop-color="#982E79"/>
<stop offset="0.0536" stop-color="#B05F83"/>
<stop offset="0.0828" stop-color="#C5888C"/>
<stop offset="0.1112" stop-color="#D5A792"/>
<stop offset="0.1386" stop-color="#E1BE97"/>
<stop offset="0.1646" stop-color="#E8CB9A"/>
<stop offset="0.1877" stop-color="#EAD09B"/>
<stop offset="0.6987" stop-color="#EAD09B"/>
<stop offset="0.7397" stop-color="#E8CC9A"/>
<stop offset="0.7815" stop-color="#E2C098"/>
<stop offset="0.8237" stop-color="#D7AB93"/>
<stop offset="0.8662" stop-color="#C98F8D"/>
<stop offset="0.9089" stop-color="#B66A85"/>
<stop offset="0.9517" stop-color="#9F3D7C"/>
<stop offset="0.994" stop-color="#840871"/>
<stop offset="1" stop-color="#80006F"/>
</linearGradient>
<linearGradient id="paint6_linear_86_3440" x1="10.0873" y1="90.8607" x2="10.0873" y2="78.1474" gradientUnits="userSpaceOnUse">
<stop stop-color="#80006F"/>
<stop offset="0.036" stop-color="#982F79" stop-opacity="0.8687"/>
<stop offset="0.0786" stop-color="#B16083" stop-opacity="0.7133"/>
<stop offset="0.121" stop-color="#C5888C" stop-opacity="0.5587"/>
<stop offset="0.1623" stop-color="#D5A792" stop-opacity="0.4079"/>
<stop offset="0.2022" stop-color="#E1BE97" stop-opacity="0.2622"/>
<stop offset="0.2402" stop-color="#E8CB9A" stop-opacity="0.1237"/>
<stop offset="0.2741" stop-color="#EAD09B" stop-opacity="0"/>
<stop offset="0.3162" stop-color="#EAD09B" stop-opacity="0"/>
<stop offset="0.5616" stop-color="#EAD09B" stop-opacity="0"/>
<stop offset="0.6223" stop-color="#DFBA96" stop-opacity="0.1108"/>
<stop offset="0.7491" stop-color="#C1808A" stop-opacity="0.3421"/>
<stop offset="0.9298" stop-color="#932577" stop-opacity="0.6718"/>
<stop offset="1" stop-color="#80006F" stop-opacity="0.8"/>
</linearGradient>
<linearGradient id="paint7_linear_86_3440" x1="6.21824" y1="72.9545" x2="13.9565" y2="72.9545" gradientUnits="userSpaceOnUse">
<stop stop-color="#80006F"/>
<stop offset="0.0676" stop-color="#99327A"/>
<stop offset="0.1522" stop-color="#B66A85"/>
<stop offset="0.2307" stop-color="#CC968F"/>
<stop offset="0.3007" stop-color="#DDB695"/>
<stop offset="0.3595" stop-color="#E6C99A"/>
<stop offset="0.4" stop-color="#EAD09B"/>
<stop offset="0.4733" stop-color="#E8CB9A"/>
<stop offset="0.5565" stop-color="#E1BE97"/>
<stop offset="0.6444" stop-color="#D5A792"/>
<stop offset="0.7358" stop-color="#C5878C"/>
<stop offset="0.8297" stop-color="#B05E83"/>
<stop offset="0.9244" stop-color="#972D78"/>
<stop offset="1" stop-color="#80006F"/>
</linearGradient>
<linearGradient id="paint8_linear_86_3440" x1="1.49176" y1="33.4985" x2="18.683" y2="33.4985" gradientUnits="userSpaceOnUse">
<stop stop-color="#011070"/>
<stop offset="1" stop-color="#EAD09B"/>
</linearGradient>
<linearGradient id="paint9_linear_86_3440" x1="20.9296" y1="137.298" x2="39.5585" y2="137.298" gradientUnits="userSpaceOnUse">
<stop stop-color="#80006F"/>
<stop offset="0.0243" stop-color="#982E79"/>
<stop offset="0.0536" stop-color="#B05F83"/>
<stop offset="0.0828" stop-color="#C5888C"/>
<stop offset="0.1112" stop-color="#D5A792"/>
<stop offset="0.1386" stop-color="#E1BE97"/>
<stop offset="0.1646" stop-color="#E8CB9A"/>
<stop offset="0.1877" stop-color="#EAD09B"/>
<stop offset="0.6987" stop-color="#EAD09B"/>
<stop offset="0.7397" stop-color="#E8CC9A"/>
<stop offset="0.7815" stop-color="#E2C098"/>
<stop offset="0.8237" stop-color="#D7AB93"/>
<stop offset="0.8662" stop-color="#C98F8D"/>
<stop offset="0.9089" stop-color="#B66A85"/>
<stop offset="0.9517" stop-color="#9F3D7C"/>
<stop offset="0.994" stop-color="#840871"/>
<stop offset="1" stop-color="#80006F"/>
</linearGradient>
<linearGradient id="paint10_linear_86_3440" x1="30.244" y1="150.011" x2="30.244" y2="124.584" gradientUnits="userSpaceOnUse">
<stop stop-color="#80006F"/>
<stop offset="0.036" stop-color="#982F79" stop-opacity="0.8687"/>
<stop offset="0.0786" stop-color="#B16083" stop-opacity="0.7133"/>
<stop offset="0.121" stop-color="#C5888C" stop-opacity="0.5587"/>
<stop offset="0.1623" stop-color="#D5A792" stop-opacity="0.4079"/>
<stop offset="0.2022" stop-color="#E1BE97" stop-opacity="0.2622"/>
<stop offset="0.2402" stop-color="#E8CB9A" stop-opacity="0.1237"/>
<stop offset="0.2741" stop-color="#EAD09B" stop-opacity="0"/>
<stop offset="0.3162" stop-color="#EAD09B" stop-opacity="0"/>
<stop offset="0.5616" stop-color="#EAD09B" stop-opacity="0"/>
<stop offset="0.6223" stop-color="#DFBA96" stop-opacity="0.1108"/>
<stop offset="0.7491" stop-color="#C1808A" stop-opacity="0.3421"/>
<stop offset="0.9298" stop-color="#932577" stop-opacity="0.6718"/>
<stop offset="1" stop-color="#80006F" stop-opacity="0.8"/>
</linearGradient>
<linearGradient id="paint11_linear_86_3440" x1="20.9296" y1="111.872" x2="39.5585" y2="111.872" gradientUnits="userSpaceOnUse">
<stop stop-color="#80006F"/>
<stop offset="0.0243" stop-color="#982E79"/>
<stop offset="0.0536" stop-color="#B05F83"/>
<stop offset="0.0828" stop-color="#C5888C"/>
<stop offset="0.1112" stop-color="#D5A792"/>
<stop offset="0.1386" stop-color="#E1BE97"/>
<stop offset="0.1646" stop-color="#E8CB9A"/>
<stop offset="0.1877" stop-color="#EAD09B"/>
<stop offset="0.6987" stop-color="#EAD09B"/>
<stop offset="0.7397" stop-color="#E8CC9A"/>
<stop offset="0.7815" stop-color="#E2C098"/>
<stop offset="0.8237" stop-color="#D7AB93"/>
<stop offset="0.8662" stop-color="#C98F8D"/>
<stop offset="0.9089" stop-color="#B66A85"/>
<stop offset="0.9517" stop-color="#9F3D7C"/>
<stop offset="0.994" stop-color="#840871"/>
<stop offset="1" stop-color="#80006F"/>
</linearGradient>
<linearGradient id="paint12_linear_86_3440" x1="30.244" y1="124.585" x2="30.244" y2="99.1582" gradientUnits="userSpaceOnUse">
<stop stop-color="#80006F"/>
<stop offset="0.036" stop-color="#982F79" stop-opacity="0.8687"/>
<stop offset="0.0786" stop-color="#B16083" stop-opacity="0.7133"/>
<stop offset="0.121" stop-color="#C5888C" stop-opacity="0.5587"/>
<stop offset="0.1623" stop-color="#D5A792" stop-opacity="0.4079"/>
<stop offset="0.2022" stop-color="#E1BE97" stop-opacity="0.2622"/>
<stop offset="0.2402" stop-color="#E8CB9A" stop-opacity="0.1237"/>
<stop offset="0.2741" stop-color="#EAD09B" stop-opacity="0"/>
<stop offset="0.3162" stop-color="#EAD09B" stop-opacity="0"/>
<stop offset="0.5616" stop-color="#EAD09B" stop-opacity="0"/>
<stop offset="0.6223" stop-color="#DFBA96" stop-opacity="0.1108"/>
<stop offset="0.7491" stop-color="#C1808A" stop-opacity="0.3421"/>
<stop offset="0.9298" stop-color="#932577" stop-opacity="0.6718"/>
<stop offset="1" stop-color="#80006F" stop-opacity="0.8"/>
</linearGradient>
<linearGradient id="paint13_linear_86_3440" x1="26.3748" y1="95.4397" x2="34.1132" y2="95.4397" gradientUnits="userSpaceOnUse">
<stop stop-color="#80006F"/>
<stop offset="0.0676" stop-color="#99327A"/>
<stop offset="0.1522" stop-color="#B66A85"/>
<stop offset="0.2307" stop-color="#CC968F"/>
<stop offset="0.3007" stop-color="#DDB695"/>
<stop offset="0.3595" stop-color="#E6C99A"/>
<stop offset="0.4" stop-color="#EAD09B"/>
<stop offset="0.4733" stop-color="#E8CB9A"/>
<stop offset="0.5565" stop-color="#E1BE97"/>
<stop offset="0.6444" stop-color="#D5A792"/>
<stop offset="0.7358" stop-color="#C5878C"/>
<stop offset="0.8297" stop-color="#B05E83"/>
<stop offset="0.9244" stop-color="#972D78"/>
<stop offset="1" stop-color="#80006F"/>
</linearGradient>
<linearGradient id="paint14_linear_86_3440" x1="20.9296" y1="84.504" x2="39.5585" y2="84.504" gradientUnits="userSpaceOnUse">
<stop stop-color="#80006F"/>
<stop offset="0.0243" stop-color="#982E79"/>
<stop offset="0.0536" stop-color="#B05F83"/>
<stop offset="0.0828" stop-color="#C5888C"/>
<stop offset="0.1112" stop-color="#D5A792"/>
<stop offset="0.1386" stop-color="#E1BE97"/>
<stop offset="0.1646" stop-color="#E8CB9A"/>
<stop offset="0.1877" stop-color="#EAD09B"/>
<stop offset="0.6987" stop-color="#EAD09B"/>
<stop offset="0.7397" stop-color="#E8CC9A"/>
<stop offset="0.7815" stop-color="#E2C098"/>
<stop offset="0.8237" stop-color="#D7AB93"/>
<stop offset="0.8662" stop-color="#C98F8D"/>
<stop offset="0.9089" stop-color="#B66A85"/>
<stop offset="0.9517" stop-color="#9F3D7C"/>
<stop offset="0.994" stop-color="#840871"/>
<stop offset="1" stop-color="#80006F"/>
</linearGradient>
<linearGradient id="paint15_linear_86_3440" x1="30.244" y1="90.8607" x2="30.244" y2="78.1474" gradientUnits="userSpaceOnUse">
<stop stop-color="#80006F"/>
<stop offset="0.036" stop-color="#982F79" stop-opacity="0.8687"/>
<stop offset="0.0786" stop-color="#B16083" stop-opacity="0.7133"/>
<stop offset="0.121" stop-color="#C5888C" stop-opacity="0.5587"/>
<stop offset="0.1623" stop-color="#D5A792" stop-opacity="0.4079"/>
<stop offset="0.2022" stop-color="#E1BE97" stop-opacity="0.2622"/>
<stop offset="0.2402" stop-color="#E8CB9A" stop-opacity="0.1237"/>
<stop offset="0.2741" stop-color="#EAD09B" stop-opacity="0"/>
<stop offset="0.3162" stop-color="#EAD09B" stop-opacity="0"/>
<stop offset="0.5616" stop-color="#EAD09B" stop-opacity="0"/>
<stop offset="0.6223" stop-color="#DFBA96" stop-opacity="0.1108"/>
<stop offset="0.7491" stop-color="#C1808A" stop-opacity="0.3421"/>
<stop offset="0.9298" stop-color="#932577" stop-opacity="0.6718"/>
<stop offset="1" stop-color="#80006F" stop-opacity="0.8"/>
</linearGradient>
<linearGradient id="paint16_linear_86_3440" x1="26.3748" y1="72.9545" x2="34.1132" y2="72.9545" gradientUnits="userSpaceOnUse">
<stop stop-color="#80006F"/>
<stop offset="0.0676" stop-color="#99327A"/>
<stop offset="0.1522" stop-color="#B66A85"/>
<stop offset="0.2307" stop-color="#CC968F"/>
<stop offset="0.3007" stop-color="#DDB695"/>
<stop offset="0.3595" stop-color="#E6C99A"/>
<stop offset="0.4" stop-color="#EAD09B"/>
<stop offset="0.4733" stop-color="#E8CB9A"/>
<stop offset="0.5565" stop-color="#E1BE97"/>
<stop offset="0.6444" stop-color="#D5A792"/>
<stop offset="0.7358" stop-color="#C5878C"/>
<stop offset="0.8297" stop-color="#B05E83"/>
<stop offset="0.9244" stop-color="#972D78"/>
<stop offset="1" stop-color="#80006F"/>
</linearGradient>
<linearGradient id="paint17_linear_86_3440" x1="38.8393" y1="33.4985" x2="21.6484" y2="33.4985" gradientUnits="userSpaceOnUse">
<stop stop-color="#011070"/>
<stop offset="1" stop-color="#EAD09B"/>
</linearGradient>
</defs>
</svg>
