<svg width="58" height="24" viewBox="0 0 58 24" fill="none" xmlns="http://www.w3.org/2000/svg">
<rect x="2" y="1.98901" width="55" height="20" rx="10" fill="url(#paint0_linear_64_1902)"/>
<rect x="2" y="1.98901" width="55" height="20" rx="10" stroke="#A32702" stroke-width="3" stroke-linejoin="round"/>
<path d="M10.3574 15.989V7.39917H13.1406C14.1953 7.39917 14.8828 7.44214 15.2031 7.52808C15.6953 7.65698 16.1074 7.93823 16.4395 8.37183C16.7715 8.80151 16.9375 9.35815 16.9375 10.0417C16.9375 10.5691 16.8418 11.0125 16.6504 11.3718C16.459 11.7312 16.2148 12.0144 15.918 12.2214C15.625 12.4246 15.3262 12.5593 15.0215 12.6257C14.6074 12.7078 14.0078 12.7488 13.2227 12.7488H12.0918V15.989H10.3574ZM12.0918 8.85229V11.2898H13.041C13.7246 11.2898 14.1816 11.2449 14.4121 11.155C14.6426 11.0652 14.8223 10.9246 14.9512 10.7332C15.084 10.5417 15.1504 10.3191 15.1504 10.0652C15.1504 9.75269 15.0586 9.49487 14.875 9.29175C14.6914 9.08862 14.459 8.96167 14.1777 8.91089C13.9707 8.87183 13.5547 8.85229 12.9297 8.85229H12.0918ZM23.8574 12.8308L25.5391 13.364C25.2812 14.3015 24.8516 14.9988 24.25 15.4558C23.6523 15.9089 22.8926 16.1355 21.9707 16.1355C20.8301 16.1355 19.8926 15.7468 19.1582 14.9695C18.4238 14.1882 18.0566 13.1218 18.0566 11.7703C18.0566 10.3406 18.4258 9.2312 19.1641 8.44214C19.9023 7.64917 20.873 7.25269 22.0762 7.25269C23.127 7.25269 23.9805 7.56323 24.6367 8.18433C25.0273 8.55151 25.3203 9.07886 25.5156 9.76636L23.7988 10.1765C23.6973 9.7312 23.4844 9.37964 23.1602 9.12183C22.8398 8.86401 22.4492 8.73511 21.9883 8.73511C21.3516 8.73511 20.834 8.96362 20.4355 9.42065C20.041 9.87769 19.8438 10.6179 19.8438 11.6414C19.8438 12.7273 20.0391 13.5007 20.4297 13.9617C20.8203 14.4226 21.3281 14.6531 21.9531 14.6531C22.4141 14.6531 22.8105 14.5066 23.1426 14.2136C23.4746 13.9207 23.7129 13.4597 23.8574 12.8308ZM26.5938 13.1941L28.2812 13.03C28.3828 13.5964 28.5879 14.0125 28.8965 14.2781C29.209 14.5437 29.6289 14.6765 30.1562 14.6765C30.7148 14.6765 31.1348 14.5593 31.416 14.325C31.7012 14.0867 31.8438 13.8093 31.8438 13.4929C31.8438 13.2898 31.7832 13.1179 31.6621 12.9773C31.5449 12.8328 31.3379 12.7078 31.041 12.6023C30.8379 12.532 30.375 12.407 29.6523 12.2273C28.7227 11.9968 28.0703 11.7136 27.6953 11.3777C27.168 10.905 26.9043 10.3289 26.9043 9.64917C26.9043 9.21167 27.0273 8.80347 27.2734 8.42456C27.5234 8.04175 27.8809 7.75073 28.3457 7.55151C28.8145 7.35229 29.3789 7.25269 30.0391 7.25269C31.1172 7.25269 31.9277 7.48901 32.4707 7.96167C33.0176 8.43433 33.3047 9.06519 33.332 9.85425L31.5977 9.93042C31.5234 9.48901 31.3633 9.17261 31.1172 8.9812C30.875 8.78589 30.5098 8.68823 30.0215 8.68823C29.5176 8.68823 29.123 8.79175 28.8379 8.99878C28.6543 9.13159 28.5625 9.30933 28.5625 9.53198C28.5625 9.73511 28.6484 9.90894 28.8203 10.0535C29.0391 10.2371 29.5703 10.4285 30.4141 10.6277C31.2578 10.8269 31.8809 11.0339 32.2832 11.2488C32.6895 11.4597 33.0059 11.7507 33.2324 12.1218C33.4629 12.489 33.5781 12.9441 33.5781 13.4871C33.5781 13.9792 33.4414 14.4402 33.168 14.8699C32.8945 15.2996 32.5078 15.6199 32.0078 15.8308C31.5078 16.0378 30.8848 16.1414 30.1387 16.1414C29.0527 16.1414 28.2188 15.8914 27.6367 15.3914C27.0547 14.8875 26.707 14.155 26.5938 13.1941ZM35.0605 15.989V7.39917H36.7949V11.2136L40.2988 7.39917H42.6309L39.3965 10.7449L42.8066 15.989H40.5625L38.2012 11.9578L36.7949 13.3933V15.989H35.0605ZM47.5586 15.989H45.9121V9.78394C45.3105 10.3464 44.6016 10.7625 43.7852 11.032V9.53784C44.2148 9.39722 44.6816 9.13159 45.1855 8.74097C45.6895 8.34644 46.0352 7.88745 46.2227 7.36401H47.5586V15.989Z" fill="white"/>
<defs>
<linearGradient id="paint0_linear_64_1902" x1="29.5" y1="1.98901" x2="29.5" y2="21.989" gradientUnits="userSpaceOnUse">
<stop stop-color="#A32702"/>
<stop offset="1" stop-color="#99DDF3"/>
</linearGradient>
</defs>
</svg>
