<svg width="54" height="19" viewBox="0 0 54 19" fill="none" xmlns="http://www.w3.org/2000/svg">
<path d="M9.13655 18.5718C13.9919 18.5718 17.928 14.6358 17.928 9.78041C17.928 4.92506 13.9919 0.989014 9.13655 0.989014C4.2812 0.989014 0.345154 4.92506 0.345154 9.78041C0.345154 14.6358 4.2812 18.5718 9.13655 18.5718Z" fill="url(#paint0_radial_90_4374)"/>
<path d="M44.7481 18.5718C49.6034 18.5718 53.5395 14.6358 53.5395 9.78041C53.5395 4.92506 49.6034 0.989014 44.7481 0.989014C39.8927 0.989014 35.9566 4.92506 35.9566 9.78041C35.9566 14.6358 39.8927 18.5718 44.7481 18.5718Z" fill="url(#paint1_radial_90_4374)"/>
<defs>
<radialGradient id="paint0_radial_90_4374" cx="0" cy="0" r="1" gradientUnits="userSpaceOnUse" gradientTransform="translate(7.35045 7.38731) scale(9.9856)">
<stop stop-color="#B2F6FF"/>
<stop offset="0.0685" stop-color="#9CEAF4"/>
<stop offset="0.2071" stop-color="#74D4E1"/>
<stop offset="0.3506" stop-color="#54C2D1"/>
<stop offset="0.498" stop-color="#3BB5C5"/>
<stop offset="0.6511" stop-color="#29ABBC"/>
<stop offset="0.8132" stop-color="#1EA5B7"/>
<stop offset="1" stop-color="#1BA3B5"/>
</radialGradient>
<radialGradient id="paint1_radial_90_4374" cx="0" cy="0" r="1" gradientUnits="userSpaceOnUse" gradientTransform="translate(42.962 7.38731) scale(9.9856 9.9856)">
<stop stop-color="#B2F6FF"/>
<stop offset="0.0685" stop-color="#9CEAF4"/>
<stop offset="0.2071" stop-color="#74D4E1"/>
<stop offset="0.3506" stop-color="#54C2D1"/>
<stop offset="0.498" stop-color="#3BB5C5"/>
<stop offset="0.6511" stop-color="#29ABBC"/>
<stop offset="0.8132" stop-color="#1EA5B7"/>
<stop offset="1" stop-color="#1BA3B5"/>
</radialGradient>
</defs>
</svg>
