<svg width="99" height="102" viewBox="0 0 99 102" fill="none" xmlns="http://www.w3.org/2000/svg">
<path d="M43.094 101.132C40.3328 101.132 38.094 98.8937 38.094 96.132V34.8762C38.094 24.1155 31.5881 15.2414 31.5222 15.1545C29.8528 12.9553 30.2829 9.81861 32.4827 8.14861C34.6814 6.47971 37.8191 6.91031 39.4881 9.10951C39.8397 9.57241 48.0941 20.6134 48.0941 34.8761V96.132C48.094 98.8938 45.8552 101.132 43.094 101.132Z" fill="url(#paint0_linear_86_2546)"/>
<path d="M30.8968 101.132C28.1356 101.132 25.8968 98.8937 25.8968 96.132V50.8645C25.8968 39.3596 16.931 35.3235 16.8402 35.2844C14.3085 34.1819 13.1493 31.2356 14.2513 28.7043C15.3534 26.1711 18.2996 25.0148 20.8314 26.1145C21.4466 26.3831 35.8968 32.8791 35.8968 50.8645V96.1321C35.8968 98.8938 33.6581 101.132 30.8968 101.132Z" fill="url(#paint1_linear_86_2546)"/>
<path d="M18.6995 101.132C15.9383 101.132 13.6995 98.8937 13.6995 96.132V66.8527C13.6995 65.9269 13.5266 65.297 13.1853 64.9787C12.5212 64.3586 10.9753 64.2267 10.6467 64.256C7.89178 64.4337 5.50268 62.3712 5.30978 59.6164C5.11688 56.8625 7.19408 54.4728 9.94848 54.2795C10.5608 54.2385 16.0408 53.968 20.0051 57.6652C21.6906 59.2365 23.6994 62.1056 23.6994 66.8527V96.132C23.6995 98.8938 21.4607 101.132 18.6995 101.132Z" fill="url(#paint2_linear_86_2546)"/>
<path d="M55.2913 101.132C58.0525 101.132 60.2913 98.8937 60.2913 96.132V34.8762C60.2913 24.1155 66.7972 15.2414 66.8631 15.1545C68.5325 12.9553 68.1024 9.81861 65.9027 8.14861C63.704 6.47971 60.5663 6.91031 58.8973 9.10951C58.5457 9.57241 50.2913 20.6134 50.2913 34.8761V96.132C50.2913 98.8938 52.53 101.132 55.2913 101.132Z" fill="url(#paint3_linear_86_2546)"/>
<path d="M67.4885 101.132C70.2497 101.132 72.4885 98.8937 72.4885 96.132V50.8645C72.4885 39.3596 81.4543 35.3235 81.5451 35.2844C84.0768 34.1819 85.236 31.2356 84.134 28.7043C83.0319 26.1711 80.0857 25.0148 77.5539 26.1145C76.9387 26.3831 62.4885 32.8791 62.4885 50.8645V96.1321C62.4885 98.8938 64.7273 101.132 67.4885 101.132Z" fill="url(#paint4_linear_86_2546)"/>
<path d="M79.6858 101.132C82.447 101.132 84.6858 98.8937 84.6858 96.132V66.8527C84.6858 65.9269 84.8587 65.297 85.2 64.9787C85.8641 64.3586 87.41 64.2267 87.7386 64.256C90.4935 64.4337 92.8826 62.3712 93.0755 59.6164C93.2684 56.8625 91.1912 54.4728 88.4368 54.2795C87.8245 54.2385 82.3445 53.968 78.3802 57.6652C76.6947 59.2365 74.6859 62.1056 74.6859 66.8527V96.132C74.6858 98.8938 76.9246 101.132 79.6858 101.132Z" fill="url(#paint5_linear_86_2546)"/>
<path d="M36.0613 18.174C35.6341 18.174 35.2 18.1193 34.7674 18.0031L27.2947 16.0061C26.0076 15.6623 24.9114 14.8196 24.2483 13.6633C23.281 11.9768 23.3157 9.91724 24.3411 8.15354C26.1633 5.01884 33.9602 0.546143 37.5984 0.546143C37.6033 0.546143 37.6077 0.546143 37.6121 0.546143C39.6521 0.552043 41.4475 1.56374 42.4143 3.25024C43.074 4.40064 43.2493 5.76584 42.9021 7.04614L40.884 14.4826C40.28 16.7082 38.2634 18.174 36.0613 18.174Z" fill="#CE5A36"/>
<path d="M12.4045 37.9435C11.4607 37.9435 10.5275 37.6759 9.71902 37.1613C8.07892 36.1164 7.15312 34.2765 7.24152 32.2384C7.39922 28.6095 12.2366 21.0128 15.4573 19.3351C17.2664 18.3937 19.326 18.4552 20.9651 19.4982C22.0838 20.2111 22.8733 21.338 23.1609 22.632L24.8308 30.1535C25.4275 32.842 23.738 35.507 21.052 36.1145L13.5071 37.8206C13.1423 37.9025 12.7727 37.9435 12.4045 37.9435Z" fill="#CE5A36"/>
<path d="M6.20677 69.7287C6.20087 69.7287 6.19557 69.7287 6.19017 69.7287C0.093966 69.7082 0.120366 61.8283 0.129166 59.2385C0.135066 57.5207 0.264866 55.8742 0.495866 54.6028C1.44757 49.3635 4.81717 48.7893 6.24247 48.7893C6.24837 48.7893 6.25417 48.7893 6.26007 48.7893C7.58627 48.7942 8.85627 49.3245 9.79087 50.2659L15.2216 55.7327C17.1625 57.6858 17.1581 60.8421 15.2113 62.7903L9.74397 68.263C8.80587 69.2014 7.53337 69.7287 6.20677 69.7287Z" fill="#CE5A36"/>
<path d="M62.324 18.174C62.7512 18.174 63.1853 18.1193 63.6179 18.0031L71.0906 16.006C72.3777 15.6622 73.4739 14.8195 74.137 13.6632C75.1043 11.9767 75.0696 9.91714 74.0442 8.15344C72.2219 5.01884 64.425 0.546143 60.7869 0.546143C60.782 0.546143 60.7776 0.546143 60.7732 0.546143C58.7332 0.552043 56.9378 1.56374 55.971 3.25024C55.3113 4.40064 55.136 5.76584 55.4832 7.04614L57.5013 14.4826C58.1052 16.7082 60.1218 18.174 62.324 18.174Z" fill="#CE5A36"/>
<path d="M85.9807 37.9435C86.9245 37.9435 87.8577 37.6759 88.6662 37.1613C90.3063 36.1164 91.2321 34.2765 91.1437 32.2384C90.986 28.6095 86.1486 21.0128 82.9279 19.3351C81.1188 18.3937 79.0592 18.4552 77.4201 19.4982C76.3014 20.2111 75.5119 21.338 75.2243 22.632L73.5544 30.1535C72.9577 32.842 74.6472 35.507 77.3332 36.1145L84.8781 37.8206C85.2429 37.9025 85.6125 37.9435 85.9807 37.9435Z" fill="#CE5A36"/>
<path d="M92.1785 69.7287C92.1844 69.7287 92.1897 69.7287 92.1951 69.7287C98.2913 69.7082 98.2649 61.8283 98.2561 59.2385C98.2502 57.5207 98.1204 55.8742 97.8894 54.6028C96.9377 49.3635 93.5681 48.7893 92.1428 48.7893C92.1369 48.7893 92.1311 48.7893 92.1252 48.7893C90.799 48.7942 89.529 49.3245 88.5944 50.2659L83.1637 55.7327C81.2228 57.6858 81.2272 60.8421 83.174 62.7903L88.6413 68.263C89.5793 69.2014 90.8518 69.7287 92.1785 69.7287Z" fill="#CE5A36"/>
<defs>
<linearGradient id="paint0_linear_86_2546" x1="37.8379" y1="54.1319" x2="48.0918" y2="54.1319" gradientUnits="userSpaceOnUse">
<stop stop-color="#8B5A36"/>
<stop offset="0.4" stop-color="#CE5A36"/>
<stop offset="1" stop-color="#8B5A36"/>
</linearGradient>
<linearGradient id="paint1_linear_86_2546" x1="25.937" y1="63.4154" x2="35.7336" y2="63.4154" gradientUnits="userSpaceOnUse">
<stop stop-color="#8B5A36"/>
<stop offset="0.4" stop-color="#CE5A36"/>
<stop offset="1" stop-color="#8B5A36"/>
</linearGradient>
<linearGradient id="paint2_linear_86_2546" x1="13.6217" y1="77.6957" x2="23.5235" y2="77.6957" gradientUnits="userSpaceOnUse">
<stop stop-color="#8B5A36"/>
<stop offset="0.4" stop-color="#CE5A36"/>
<stop offset="1" stop-color="#8B5A36"/>
</linearGradient>
<linearGradient id="paint3_linear_86_2546" x1="50.1909" y1="54.1319" x2="60.2942" y2="54.1319" gradientUnits="userSpaceOnUse">
<stop stop-color="#8B5A36"/>
<stop offset="0.4" stop-color="#CE5A36"/>
<stop offset="1" stop-color="#8B5A36"/>
</linearGradient>
<linearGradient id="paint4_linear_86_2546" x1="62.5438" y1="63.4154" x2="72.9656" y2="63.4154" gradientUnits="userSpaceOnUse">
<stop stop-color="#8B5A36"/>
<stop offset="0.4" stop-color="#CE5A36"/>
<stop offset="1" stop-color="#8B5A36"/>
</linearGradient>
<linearGradient id="paint5_linear_86_2546" x1="74.5954" y1="77.6957" x2="84.3885" y2="77.6957" gradientUnits="userSpaceOnUse">
<stop stop-color="#8B5A36"/>
<stop offset="0.4" stop-color="#CE5A36"/>
<stop offset="1" stop-color="#8B5A36"/>
</linearGradient>
</defs>
</svg>
