<svg width="86" height="24" viewBox="0 0 86 24" fill="none" xmlns="http://www.w3.org/2000/svg">
<rect x="1" y="1.98901" width="84" height="20" rx="10" fill="url(#paint0_linear_37_1826)"/>
<rect x="1" y="1.98901" width="84" height="20" rx="10" stroke="#D0A688" stroke-width="3" stroke-linejoin="round"/>
<path d="M14.7812 12.8308L16.4629 13.364C16.2051 14.3015 15.7754 14.9988 15.1738 15.4558C14.5762 15.9089 13.8164 16.1355 12.8945 16.1355C11.7539 16.1355 10.8164 15.7468 10.082 14.9695C9.34766 14.1882 8.98047 13.1218 8.98047 11.7703C8.98047 10.3406 9.34961 9.2312 10.0879 8.44214C10.8262 7.64917 11.7969 7.25269 13 7.25269C14.0508 7.25269 14.9043 7.56323 15.5605 8.18433C15.9512 8.55151 16.2441 9.07886 16.4395 9.76636L14.7227 10.1765C14.6211 9.7312 14.4082 9.37964 14.084 9.12183C13.7637 8.86401 13.373 8.73511 12.9121 8.73511C12.2754 8.73511 11.7578 8.96362 11.3594 9.42065C10.9648 9.87769 10.7676 10.6179 10.7676 11.6414C10.7676 12.7273 10.9629 13.5007 11.3535 13.9617C11.7441 14.4226 12.252 14.6531 12.877 14.6531C13.3379 14.6531 13.7344 14.5066 14.0664 14.2136C14.3984 13.9207 14.6367 13.4597 14.7812 12.8308ZM21.8066 15.989H20.1602V9.78394C19.5586 10.3464 18.8496 10.7625 18.0332 11.032V9.53784C18.4629 9.39722 18.9297 9.13159 19.4336 8.74097C19.9375 8.34644 20.2832 7.88745 20.4707 7.36401H21.8066V15.989ZM28.6328 12.8308V11.3835H32.3711V14.8054C32.0078 15.157 31.4805 15.4675 30.7891 15.7371C30.1016 16.0027 29.4043 16.1355 28.6973 16.1355C27.7988 16.1355 27.0156 15.948 26.3477 15.573C25.6797 15.1941 25.1777 14.655 24.8418 13.9558C24.5059 13.2527 24.3379 12.489 24.3379 11.6648C24.3379 10.7703 24.5254 9.97534 24.9004 9.28003C25.2754 8.58472 25.8242 8.05151 26.5469 7.68042C27.0977 7.39526 27.7832 7.25269 28.6035 7.25269C29.6699 7.25269 30.502 7.47729 31.0996 7.92651C31.7012 8.37183 32.0879 8.98901 32.2598 9.77808L30.5371 10.1003C30.416 9.67847 30.1875 9.34644 29.8516 9.10425C29.5195 8.85815 29.1035 8.73511 28.6035 8.73511C27.8457 8.73511 27.2422 8.97534 26.793 9.45581C26.3477 9.93628 26.125 10.6492 26.125 11.5945C26.125 12.614 26.3516 13.3796 26.8047 13.8914C27.2578 14.3992 27.8516 14.6531 28.5859 14.6531C28.9492 14.6531 29.3125 14.5828 29.6758 14.4421C30.043 14.2976 30.3574 14.1238 30.6191 13.9207V12.8308H28.6328ZM41.7227 15.989H39.8359L39.0859 14.0378H35.6523L34.9434 15.989H33.1035L36.4492 7.39917H38.2832L41.7227 15.989ZM38.5293 12.5906L37.3457 9.40308L36.1855 12.5906H38.5293ZM42.6953 15.989V7.46948H44.4297V14.5417H48.7422V15.989H42.6953ZM51.0273 15.989V8.85229H48.4785V7.39917H55.3047V8.85229H52.7617V15.989H51.0273ZM60.2793 15.989H58.6328V9.78394C58.0312 10.3464 57.3223 10.7625 56.5059 11.032V9.53784C56.9355 9.39722 57.4023 9.13159 57.9062 8.74097C58.4102 8.34644 58.7559 7.88745 58.9434 7.36401H60.2793V15.989ZM68.6055 12.8308L70.2871 13.364C70.0293 14.3015 69.5996 14.9988 68.998 15.4558C68.4004 15.9089 67.6406 16.1355 66.7188 16.1355C65.5781 16.1355 64.6406 15.7468 63.9062 14.9695C63.1719 14.1882 62.8047 13.1218 62.8047 11.7703C62.8047 10.3406 63.1738 9.2312 63.9121 8.44214C64.6504 7.64917 65.6211 7.25269 66.8242 7.25269C67.875 7.25269 68.7285 7.56323 69.3848 8.18433C69.7754 8.55151 70.0684 9.07886 70.2637 9.76636L68.5469 10.1765C68.4453 9.7312 68.2324 9.37964 67.9082 9.12183C67.5879 8.86401 67.1973 8.73511 66.7363 8.73511C66.0996 8.73511 65.582 8.96362 65.1836 9.42065C64.7891 9.87769 64.5918 10.6179 64.5918 11.6414C64.5918 12.7273 64.7871 13.5007 65.1777 13.9617C65.5684 14.4226 66.0762 14.6531 66.7012 14.6531C67.1621 14.6531 67.5586 14.5066 67.8906 14.2136C68.2227 13.9207 68.4609 13.4597 68.6055 12.8308ZM75.6309 15.989H73.9844V9.78394C73.3828 10.3464 72.6738 10.7625 71.8574 11.032V9.53784C72.2871 9.39722 72.7539 9.13159 73.2578 8.74097C73.7617 8.34644 74.1074 7.88745 74.2949 7.36401H75.6309V15.989Z" fill="white"/>
<defs>
<linearGradient id="paint0_linear_37_1826" x1="43" y1="1.98901" x2="43" y2="21.989" gradientUnits="userSpaceOnUse">
<stop stop-color="white"/>
<stop offset="1" stop-color="#A30370"/>
</linearGradient>
</defs>
</svg>
