<svg width="49" height="24" viewBox="0 0 49 24" fill="none" xmlns="http://www.w3.org/2000/svg">
<rect x="2" y="1.98901" width="46" height="20" rx="10" fill="url(#paint0_linear_67_1949)"/>
<rect x="2" y="1.98901" width="46" height="20" rx="10" stroke="#E29700" stroke-width="3" stroke-linejoin="round"/>
<path d="M9.87109 13.1941L11.5586 13.03C11.6602 13.5964 11.8652 14.0125 12.1738 14.2781C12.4863 14.5437 12.9062 14.6765 13.4336 14.6765C13.9922 14.6765 14.4121 14.5593 14.6934 14.325C14.9785 14.0867 15.1211 13.8093 15.1211 13.4929C15.1211 13.2898 15.0605 13.1179 14.9395 12.9773C14.8223 12.8328 14.6152 12.7078 14.3184 12.6023C14.1152 12.532 13.6523 12.407 12.9297 12.2273C12 11.9968 11.3477 11.7136 10.9727 11.3777C10.4453 10.905 10.1816 10.3289 10.1816 9.64917C10.1816 9.21167 10.3047 8.80347 10.5508 8.42456C10.8008 8.04175 11.1582 7.75073 11.623 7.55151C12.0918 7.35229 12.6562 7.25269 13.3164 7.25269C14.3945 7.25269 15.2051 7.48901 15.748 7.96167C16.2949 8.43433 16.582 9.06519 16.6094 9.85425L14.875 9.93042C14.8008 9.48901 14.6406 9.17261 14.3945 8.9812C14.1523 8.78589 13.7871 8.68823 13.2988 8.68823C12.7949 8.68823 12.4004 8.79175 12.1152 8.99878C11.9316 9.13159 11.8398 9.30933 11.8398 9.53198C11.8398 9.73511 11.9258 9.90894 12.0977 10.0535C12.3164 10.2371 12.8477 10.4285 13.6914 10.6277C14.5352 10.8269 15.1582 11.0339 15.5605 11.2488C15.9668 11.4597 16.2832 11.7507 16.5098 12.1218C16.7402 12.489 16.8555 12.9441 16.8555 13.4871C16.8555 13.9792 16.7188 14.4402 16.4453 14.8699C16.1719 15.2996 15.7852 15.6199 15.2852 15.8308C14.7852 16.0378 14.1621 16.1414 13.416 16.1414C12.3301 16.1414 11.4961 15.8914 10.9141 15.3914C10.332 14.8875 9.98438 14.155 9.87109 13.1941ZM18.3145 15.989V7.39917H21.0977C22.1523 7.39917 22.8398 7.44214 23.1602 7.52808C23.6523 7.65698 24.0645 7.93823 24.3965 8.37183C24.7285 8.80151 24.8945 9.35815 24.8945 10.0417C24.8945 10.5691 24.7988 11.0125 24.6074 11.3718C24.416 11.7312 24.1719 12.0144 23.875 12.2214C23.582 12.4246 23.2832 12.5593 22.9785 12.6257C22.5645 12.7078 21.9648 12.7488 21.1797 12.7488H20.0488V15.989H18.3145ZM20.0488 8.85229V11.2898H20.998C21.6816 11.2898 22.1387 11.2449 22.3691 11.155C22.5996 11.0652 22.7793 10.9246 22.9082 10.7332C23.041 10.5417 23.1074 10.3191 23.1074 10.0652C23.1074 9.75269 23.0156 9.49487 22.832 9.29175C22.6484 9.08862 22.416 8.96167 22.1348 8.91089C21.9277 8.87183 21.5117 8.85229 20.8867 8.85229H20.0488ZM28.252 15.989V8.85229H25.7031V7.39917H32.5293V8.85229H29.9863V15.989H28.252ZM40.5098 15.989H38.623L37.873 14.0378H34.4395L33.7305 15.989H31.8906L35.2363 7.39917H37.0703L40.5098 15.989ZM37.3164 12.5906L36.1328 9.40308L34.9727 12.5906H37.3164Z" fill="white"/>
<defs>
<linearGradient id="paint0_linear_67_1949" x1="25" y1="1.98901" x2="25" y2="21.989" gradientUnits="userSpaceOnUse">
<stop stop-color="#E29700"/>
<stop offset="1" stop-color="#1A8500"/>
</linearGradient>
</defs>
</svg>
