<svg width="44" height="24" viewBox="0 0 44 24" fill="none" xmlns="http://www.w3.org/2000/svg">
<rect x="2" y="1.98901" width="41" height="20" rx="10" fill="url(#paint0_linear_50_1805)"/>
<rect x="2" y="1.98901" width="41" height="20" rx="10" stroke="#CE5A36" stroke-width="3" stroke-linejoin="round"/>
<path d="M9.97266 15.989V7.39917H11.707V15.989H9.97266ZM17.3613 12.8308V11.3835H21.0996V14.8054C20.7363 15.157 20.209 15.4675 19.5176 15.7371C18.8301 16.0027 18.1328 16.1355 17.4258 16.1355C16.5273 16.1355 15.7441 15.948 15.0762 15.573C14.4082 15.1941 13.9062 14.655 13.5703 13.9558C13.2344 13.2527 13.0664 12.489 13.0664 11.6648C13.0664 10.7703 13.2539 9.97534 13.6289 9.28003C14.0039 8.58472 14.5527 8.05151 15.2754 7.68042C15.8262 7.39526 16.5117 7.25269 17.332 7.25269C18.3984 7.25269 19.2305 7.47729 19.8281 7.92651C20.4297 8.37183 20.8164 8.98901 20.9883 9.77808L19.2656 10.1003C19.1445 9.67847 18.916 9.34644 18.5801 9.10425C18.248 8.85815 17.832 8.73511 17.332 8.73511C16.5742 8.73511 15.9707 8.97534 15.5215 9.45581C15.0762 9.93628 14.8535 10.6492 14.8535 11.5945C14.8535 12.614 15.0801 13.3796 15.5332 13.8914C15.9863 14.3992 16.5801 14.6531 17.3145 14.6531C17.6777 14.6531 18.041 14.5828 18.4043 14.4421C18.7715 14.2976 19.0859 14.1238 19.3477 13.9207V12.8308H17.3613ZM22.7168 15.989V7.39917H28.6055V8.85229H24.4512V10.8855H28.0371V12.3386H24.4512V15.989H22.7168ZM33.8906 15.989H32.2441V9.78394C31.6426 10.3464 30.9336 10.7625 30.1172 11.032V9.53784C30.5469 9.39722 31.0137 9.13159 31.5176 8.74097C32.0215 8.34644 32.3672 7.88745 32.5547 7.36401H33.8906V15.989Z" fill="white"/>
<defs>
<linearGradient id="paint0_linear_50_1805" x1="22.5" y1="1.98901" x2="22.5" y2="21.989" gradientUnits="userSpaceOnUse">
<stop stop-color="#0096F3"/>
<stop offset="1" stop-color="#CE5A36"/>
</linearGradient>
</defs>
</svg>
