<svg width="48" height="24" viewBox="0 0 48 24" fill="none" xmlns="http://www.w3.org/2000/svg">
<rect x="2" y="1.98901" width="45" height="20" rx="10" fill="url(#paint0_linear_40_2517)"/>
<rect x="2" y="1.98901" width="45" height="20" rx="10" stroke="#4195A3" stroke-width="3" stroke-linejoin="round"/>
<path d="M15.5234 12.8308L17.2051 13.364C16.9473 14.3015 16.5176 14.9988 15.916 15.4558C15.3184 15.9089 14.5586 16.1355 13.6367 16.1355C12.4961 16.1355 11.5586 15.7468 10.8242 14.9695C10.0898 14.1882 9.72266 13.1218 9.72266 11.7703C9.72266 10.3406 10.0918 9.2312 10.8301 8.44214C11.5684 7.64917 12.5391 7.25269 13.7422 7.25269C14.793 7.25269 15.6465 7.56323 16.3027 8.18433C16.6934 8.55151 16.9863 9.07886 17.1816 9.76636L15.4648 10.1765C15.3633 9.7312 15.1504 9.37964 14.8262 9.12183C14.5059 8.86401 14.1152 8.73511 13.6543 8.73511C13.0176 8.73511 12.5 8.96362 12.1016 9.42065C11.707 9.87769 11.5098 10.6179 11.5098 11.6414C11.5098 12.7273 11.7051 13.5007 12.0957 13.9617C12.4863 14.4226 12.9941 14.6531 13.6191 14.6531C14.0801 14.6531 14.4766 14.5066 14.8086 14.2136C15.1406 13.9207 15.3789 13.4597 15.5234 12.8308ZM18.2598 13.1941L19.9473 13.03C20.0488 13.5964 20.2539 14.0125 20.5625 14.2781C20.875 14.5437 21.2949 14.6765 21.8223 14.6765C22.3809 14.6765 22.8008 14.5593 23.082 14.325C23.3672 14.0867 23.5098 13.8093 23.5098 13.4929C23.5098 13.2898 23.4492 13.1179 23.3281 12.9773C23.2109 12.8328 23.0039 12.7078 22.707 12.6023C22.5039 12.532 22.041 12.407 21.3184 12.2273C20.3887 11.9968 19.7363 11.7136 19.3613 11.3777C18.834 10.905 18.5703 10.3289 18.5703 9.64917C18.5703 9.21167 18.6934 8.80347 18.9395 8.42456C19.1895 8.04175 19.5469 7.75073 20.0117 7.55151C20.4805 7.35229 21.0449 7.25269 21.7051 7.25269C22.7832 7.25269 23.5938 7.48901 24.1367 7.96167C24.6836 8.43433 24.9707 9.06519 24.998 9.85425L23.2637 9.93042C23.1895 9.48901 23.0293 9.17261 22.7832 8.9812C22.541 8.78589 22.1758 8.68823 21.6875 8.68823C21.1836 8.68823 20.7891 8.79175 20.5039 8.99878C20.3203 9.13159 20.2285 9.30933 20.2285 9.53198C20.2285 9.73511 20.3145 9.90894 20.4863 10.0535C20.7051 10.2371 21.2363 10.4285 22.0801 10.6277C22.9238 10.8269 23.5469 11.0339 23.9492 11.2488C24.3555 11.4597 24.6719 11.7507 24.8984 12.1218C25.1289 12.489 25.2441 12.9441 25.2441 13.4871C25.2441 13.9792 25.1074 14.4402 24.834 14.8699C24.5605 15.2996 24.1738 15.6199 23.6738 15.8308C23.1738 16.0378 22.5508 16.1414 21.8047 16.1414C20.7188 16.1414 19.8848 15.8914 19.3027 15.3914C18.7207 14.8875 18.373 14.155 18.2598 13.1941ZM26.7148 15.989V7.39917H32.6035V8.85229H28.4492V10.8855H32.0352V12.3386H28.4492V15.989H26.7148ZM33.6172 13.7097L35.2109 13.5164C35.2617 13.9226 35.3984 14.2332 35.6211 14.448C35.8438 14.6628 36.1133 14.7703 36.4297 14.7703C36.7695 14.7703 37.0547 14.6414 37.2852 14.3835C37.5195 14.1257 37.6367 13.7781 37.6367 13.3406C37.6367 12.9265 37.5254 12.5984 37.3027 12.3562C37.0801 12.114 36.8086 11.9929 36.4883 11.9929C36.2773 11.9929 36.0254 12.0339 35.7324 12.116L35.9141 10.7742C36.3594 10.7859 36.6992 10.6902 36.9336 10.4871C37.168 10.28 37.2852 10.0066 37.2852 9.66675C37.2852 9.37769 37.1992 9.14722 37.0273 8.97534C36.8555 8.80347 36.627 8.71753 36.3418 8.71753C36.0605 8.71753 35.8203 8.81519 35.6211 9.0105C35.4219 9.20581 35.3008 9.49097 35.2578 9.86597L33.7402 9.60815C33.8457 9.08862 34.0039 8.67456 34.2148 8.36597C34.4297 8.05347 34.7266 7.80933 35.1055 7.63354C35.4883 7.45386 35.916 7.36401 36.3887 7.36401C37.1973 7.36401 37.8457 7.62183 38.334 8.13745C38.7363 8.55933 38.9375 9.03589 38.9375 9.56714C38.9375 10.321 38.5254 10.9226 37.7012 11.3718C38.1934 11.4773 38.5859 11.7136 38.8789 12.0808C39.1758 12.448 39.3242 12.8914 39.3242 13.4109C39.3242 14.1648 39.0488 14.8074 38.498 15.3386C37.9473 15.8699 37.2617 16.1355 36.4414 16.1355C35.6641 16.1355 35.0195 15.9128 34.5078 15.4675C33.9961 15.0183 33.6992 14.4324 33.6172 13.7097Z" fill="white"/>
<defs>
<linearGradient id="paint0_linear_40_2517" x1="24.5" y1="1.98901" x2="24.5" y2="21.989" gradientUnits="userSpaceOnUse">
<stop stop-color="#4195A3"/>
<stop offset="1" stop-color="#0C343B"/>
</linearGradient>
</defs>
</svg>
