<svg width="65" height="24" viewBox="0 0 65 24" fill="none" xmlns="http://www.w3.org/2000/svg">
<rect x="1" y="1.98901" width="63" height="20" rx="10" fill="url(#paint0_linear_42_2597)"/>
<rect x="1" y="1.98901" width="63" height="20" rx="10" stroke="#E24D40" stroke-width="3" stroke-linejoin="round"/>
<path d="M9.00391 15.989V7.39917H15.373V8.85229H10.7383V10.7566H15.0508V12.2039H10.7383V14.5417H15.5371V15.989H9.00391ZM22.2051 14.4597V15.989H16.4336C16.4961 15.4109 16.6836 14.864 16.9961 14.3484C17.3086 13.8289 17.9258 13.1414 18.8477 12.2859C19.5898 11.5945 20.0449 11.1257 20.2129 10.8796C20.4395 10.5398 20.5527 10.2039 20.5527 9.87183C20.5527 9.50464 20.4531 9.22339 20.2539 9.02808C20.0586 8.82886 19.7871 8.72925 19.4395 8.72925C19.0957 8.72925 18.8223 8.83276 18.6191 9.03979C18.416 9.24683 18.2988 9.59058 18.2676 10.071L16.627 9.90698C16.7246 9.00073 17.0312 8.35034 17.5469 7.95581C18.0625 7.56128 18.707 7.36401 19.4805 7.36401C20.3281 7.36401 20.9941 7.59253 21.4785 8.04956C21.9629 8.50659 22.2051 9.07495 22.2051 9.75464C22.2051 10.1414 22.1348 10.5105 21.9941 10.8621C21.8574 11.2097 21.6387 11.575 21.3379 11.9578C21.1387 12.2117 20.7793 12.5769 20.2598 13.0535C19.7402 13.53 19.4102 13.8464 19.2695 14.0027C19.1328 14.1589 19.0215 14.3113 18.9355 14.4597H22.2051ZM23.6992 15.989V7.39917H29.5879V8.85229H25.4336V10.8855H29.0195V12.3386H25.4336V15.989H23.6992ZM34.873 15.989H33.2266V9.78394C32.625 10.3464 31.916 10.7625 31.0996 11.032V9.53784C31.5293 9.39722 31.9961 9.13159 32.5 8.74097C33.0039 8.34644 33.3496 7.88745 33.5371 7.36401H34.873V15.989ZM37.6504 14.3425H39.2969V15.5203C39.2969 15.9968 39.2559 16.3718 39.1738 16.6453C39.0918 16.9226 38.9355 17.1707 38.7051 17.3894C38.4785 17.6082 38.1895 17.78 37.8379 17.905L37.5156 17.2253C37.8477 17.116 38.084 16.9656 38.2246 16.7742C38.3652 16.5828 38.4395 16.321 38.4473 15.989H37.6504V14.3425ZM46.2402 14.4597V15.989H40.4688C40.5312 15.4109 40.7188 14.864 41.0312 14.3484C41.3438 13.8289 41.9609 13.1414 42.8828 12.2859C43.625 11.5945 44.0801 11.1257 44.248 10.8796C44.4746 10.5398 44.5879 10.2039 44.5879 9.87183C44.5879 9.50464 44.4883 9.22339 44.2891 9.02808C44.0938 8.82886 43.8223 8.72925 43.4746 8.72925C43.1309 8.72925 42.8574 8.83276 42.6543 9.03979C42.4512 9.24683 42.334 9.59058 42.3027 10.071L40.6621 9.90698C40.7598 9.00073 41.0664 8.35034 41.582 7.95581C42.0977 7.56128 42.7422 7.36401 43.5156 7.36401C44.3633 7.36401 45.0293 7.59253 45.5137 8.04956C45.998 8.50659 46.2402 9.07495 46.2402 9.75464C46.2402 10.1414 46.1699 10.5105 46.0293 10.8621C45.8926 11.2097 45.6738 11.575 45.373 11.9578C45.1738 12.2117 44.8145 12.5769 44.2949 13.0535C43.7754 13.53 43.4453 13.8464 43.3047 14.0027C43.168 14.1589 43.0566 14.3113 42.9707 14.4597H46.2402ZM47.6699 14.3425H49.3164V15.5203C49.3164 15.9968 49.2754 16.3718 49.1934 16.6453C49.1113 16.9226 48.9551 17.1707 48.7246 17.3894C48.498 17.6082 48.209 17.78 47.8574 17.905L47.5352 17.2253C47.8672 17.116 48.1035 16.9656 48.2441 16.7742C48.3848 16.5828 48.459 16.321 48.4668 15.989H47.6699V14.3425ZM50.6406 13.7097L52.2344 13.5164C52.2852 13.9226 52.4219 14.2332 52.6445 14.448C52.8672 14.6628 53.1367 14.7703 53.4531 14.7703C53.793 14.7703 54.0781 14.6414 54.3086 14.3835C54.543 14.1257 54.6602 13.7781 54.6602 13.3406C54.6602 12.9265 54.5488 12.5984 54.3262 12.3562C54.1035 12.114 53.832 11.9929 53.5117 11.9929C53.3008 11.9929 53.0488 12.0339 52.7559 12.116L52.9375 10.7742C53.3828 10.7859 53.7227 10.6902 53.957 10.4871C54.1914 10.28 54.3086 10.0066 54.3086 9.66675C54.3086 9.37769 54.2227 9.14722 54.0508 8.97534C53.8789 8.80347 53.6504 8.71753 53.3652 8.71753C53.084 8.71753 52.8438 8.81519 52.6445 9.0105C52.4453 9.20581 52.3242 9.49097 52.2812 9.86597L50.7637 9.60815C50.8691 9.08862 51.0273 8.67456 51.2383 8.36597C51.4531 8.05347 51.75 7.80933 52.1289 7.63354C52.5117 7.45386 52.9395 7.36401 53.4121 7.36401C54.2207 7.36401 54.8691 7.62183 55.3574 8.13745C55.7598 8.55933 55.9609 9.03589 55.9609 9.56714C55.9609 10.321 55.5488 10.9226 54.7246 11.3718C55.2168 11.4773 55.6094 11.7136 55.9023 12.0808C56.1992 12.448 56.3477 12.8914 56.3477 13.4109C56.3477 14.1648 56.0723 14.8074 55.5215 15.3386C54.9707 15.8699 54.2852 16.1355 53.4648 16.1355C52.6875 16.1355 52.043 15.9128 51.5312 15.4675C51.0195 15.0183 50.7227 14.4324 50.6406 13.7097Z" fill="white"/>
<defs>
<linearGradient id="paint0_linear_42_2597" x1="32.5" y1="1.98901" x2="32.5" y2="21.989" gradientUnits="userSpaceOnUse">
<stop stop-color="#83E386"/>
<stop offset="1" stop-color="#E24D40"/>
</linearGradient>
</defs>
</svg>
