<svg width="74" height="24" viewBox="0 0 74 24" fill="none" xmlns="http://www.w3.org/2000/svg">
<rect x="1" y="1.98901" width="72" height="20" rx="10" fill="url(#paint0_linear_67_1816)"/>
<rect x="1" y="1.98901" width="72" height="20" rx="10" stroke="#244117" stroke-width="3" stroke-linejoin="round"/>
<path d="M9.12109 9.76636H10.6562V10.6804C10.8555 10.3679 11.125 10.114 11.4648 9.9187C11.8047 9.72339 12.1816 9.62573 12.5957 9.62573C13.3184 9.62573 13.9316 9.90894 14.4355 10.4753C14.9395 11.0417 15.1914 11.8308 15.1914 12.8425C15.1914 13.8816 14.9375 14.6902 14.4297 15.2683C13.9219 15.8425 13.3066 16.1296 12.584 16.1296C12.2402 16.1296 11.9277 16.0613 11.6465 15.9246C11.3691 15.7878 11.0762 15.5535 10.7676 15.2214V18.3562H9.12109V9.76636ZM10.75 12.7722C10.75 13.4714 10.8887 13.989 11.166 14.325C11.4434 14.657 11.7812 14.823 12.1797 14.823C12.5625 14.823 12.8809 14.6707 13.1348 14.366C13.3887 14.0574 13.5156 13.5535 13.5156 12.8542C13.5156 12.2019 13.3848 11.7175 13.123 11.4011C12.8613 11.0847 12.5371 10.9265 12.1504 10.9265C11.748 10.9265 11.4141 11.0828 11.1484 11.3953C10.8828 11.7039 10.75 12.1628 10.75 12.7722ZM18.0801 15.989H16.4336V9.76636H17.9629V10.6511C18.2246 10.2332 18.459 9.95776 18.666 9.82495C18.877 9.69214 19.1152 9.62573 19.3809 9.62573C19.7559 9.62573 20.1172 9.72925 20.4648 9.93628L19.9551 11.3718C19.6777 11.1921 19.4199 11.1023 19.1816 11.1023C18.9512 11.1023 18.7559 11.1667 18.5957 11.2957C18.4355 11.4207 18.3086 11.6492 18.2148 11.9812C18.125 12.3132 18.0801 13.0085 18.0801 14.0671V15.989ZM20.7988 12.7898C20.7988 12.2429 20.9336 11.7136 21.2031 11.2019C21.4727 10.6902 21.8535 10.2996 22.3457 10.03C22.8418 9.7605 23.3945 9.62573 24.0039 9.62573C24.9453 9.62573 25.7168 9.93237 26.3184 10.5457C26.9199 11.155 27.2207 11.9265 27.2207 12.8601C27.2207 13.8015 26.916 14.5828 26.3066 15.2039C25.7012 15.821 24.9375 16.1296 24.0156 16.1296C23.4453 16.1296 22.9004 16.0007 22.3809 15.7429C21.8652 15.4851 21.4727 15.1082 21.2031 14.6121C20.9336 14.1121 20.7988 13.5046 20.7988 12.7898ZM22.4863 12.8777C22.4863 13.4949 22.6328 13.9675 22.9258 14.2957C23.2188 14.6238 23.5801 14.7878 24.0098 14.7878C24.4395 14.7878 24.7988 14.6238 25.0879 14.2957C25.3809 13.9675 25.5273 13.491 25.5273 12.866C25.5273 12.2566 25.3809 11.7878 25.0879 11.4597C24.7988 11.1316 24.4395 10.9675 24.0098 10.9675C23.5801 10.9675 23.2188 11.1316 22.9258 11.4597C22.6328 11.7878 22.4863 12.2605 22.4863 12.8777ZM28.3281 13.698V12.0515H31.5625V13.698H28.3281ZM32.4707 15.989V7.39917H34.2051V15.989H32.4707ZM35.4238 13.1941L37.1113 13.03C37.2129 13.5964 37.418 14.0125 37.7266 14.2781C38.0391 14.5437 38.459 14.6765 38.9863 14.6765C39.5449 14.6765 39.9648 14.5593 40.2461 14.325C40.5312 14.0867 40.6738 13.8093 40.6738 13.4929C40.6738 13.2898 40.6133 13.1179 40.4922 12.9773C40.375 12.8328 40.168 12.7078 39.8711 12.6023C39.668 12.532 39.2051 12.407 38.4824 12.2273C37.5527 11.9968 36.9004 11.7136 36.5254 11.3777C35.998 10.905 35.7344 10.3289 35.7344 9.64917C35.7344 9.21167 35.8574 8.80347 36.1035 8.42456C36.3535 8.04175 36.7109 7.75073 37.1758 7.55151C37.6445 7.35229 38.209 7.25269 38.8691 7.25269C39.9473 7.25269 40.7578 7.48901 41.3008 7.96167C41.8477 8.43433 42.1348 9.06519 42.1621 9.85425L40.4277 9.93042C40.3535 9.48901 40.1934 9.17261 39.9473 8.9812C39.7051 8.78589 39.3398 8.68823 38.8516 8.68823C38.3477 8.68823 37.9531 8.79175 37.668 8.99878C37.4844 9.13159 37.3926 9.30933 37.3926 9.53198C37.3926 9.73511 37.4785 9.90894 37.6504 10.0535C37.8691 10.2371 38.4004 10.4285 39.2441 10.6277C40.0879 10.8269 40.7109 11.0339 41.1133 11.2488C41.5195 11.4597 41.8359 11.7507 42.0625 12.1218C42.293 12.489 42.4082 12.9441 42.4082 13.4871C42.4082 13.9792 42.2715 14.4402 41.998 14.8699C41.7246 15.2996 41.3379 15.6199 40.8379 15.8308C40.3379 16.0378 39.7148 16.1414 38.9688 16.1414C37.8828 16.1414 37.0488 15.8914 36.4668 15.3914C35.8848 14.8875 35.5371 14.155 35.4238 13.1941ZM47.8633 12.8308V11.3835H51.6016V14.8054C51.2383 15.157 50.7109 15.4675 50.0195 15.7371C49.332 16.0027 48.6348 16.1355 47.9277 16.1355C47.0293 16.1355 46.2461 15.948 45.5781 15.573C44.9102 15.1941 44.4082 14.655 44.0723 13.9558C43.7363 13.2527 43.5684 12.489 43.5684 11.6648C43.5684 10.7703 43.7559 9.97534 44.1309 9.28003C44.5059 8.58472 45.0547 8.05151 45.7773 7.68042C46.3281 7.39526 47.0137 7.25269 47.834 7.25269C48.9004 7.25269 49.7324 7.47729 50.3301 7.92651C50.9316 8.37183 51.3184 8.98901 51.4902 9.77808L49.7676 10.1003C49.6465 9.67847 49.418 9.34644 49.082 9.10425C48.75 8.85815 48.334 8.73511 47.834 8.73511C47.0762 8.73511 46.4727 8.97534 46.0234 9.45581C45.5781 9.93628 45.3555 10.6492 45.3555 11.5945C45.3555 12.614 45.582 13.3796 46.0352 13.8914C46.4883 14.3992 47.082 14.6531 47.8164 14.6531C48.1797 14.6531 48.543 14.5828 48.9062 14.4421C49.2734 14.2976 49.5879 14.1238 49.8496 13.9207V12.8308H47.8633ZM57.0566 15.989H55.4102V9.78394C54.8086 10.3464 54.0996 10.7625 53.2832 11.032V9.53784C53.7129 9.39722 54.1797 9.13159 54.6836 8.74097C55.1875 8.34644 55.5332 7.88745 55.7207 7.36401H57.0566V15.989ZM59.5469 13.78L61.1875 13.6101C61.2344 13.9812 61.373 14.2761 61.6035 14.4949C61.834 14.7097 62.0996 14.8171 62.4004 14.8171C62.7441 14.8171 63.0352 14.6785 63.2734 14.4011C63.5117 14.1199 63.6309 13.698 63.6309 13.1355C63.6309 12.6082 63.5117 12.2136 63.2734 11.9519C63.0391 11.6863 62.7324 11.5535 62.3535 11.5535C61.8809 11.5535 61.457 11.7625 61.082 12.1804L59.7461 11.9871L60.5898 7.51636H64.9434V9.05737H61.8379L61.5801 10.5164C61.9473 10.3328 62.3223 10.241 62.7051 10.241C63.4355 10.241 64.0547 10.5066 64.5625 11.0378C65.0703 11.5691 65.3242 12.2585 65.3242 13.1062C65.3242 13.8132 65.1191 14.4441 64.709 14.9988C64.1504 15.7566 63.375 16.1355 62.3828 16.1355C61.5898 16.1355 60.9434 15.9226 60.4434 15.4968C59.9434 15.071 59.6445 14.4988 59.5469 13.78Z" fill="white"/>
<defs>
<linearGradient id="paint0_linear_67_1816" x1="37" y1="1.98901" x2="37" y2="21.989" gradientUnits="userSpaceOnUse">
<stop stop-color="#244117"/>
<stop offset="1" stop-color="#A4EF84"/>
</linearGradient>
</defs>
</svg>
