<svg width="38" height="24" viewBox="0 0 38 24" fill="none" xmlns="http://www.w3.org/2000/svg">
<rect x="2" y="1.98901" width="35" height="20" rx="10" fill="url(#paint0_linear_45_4256)"/>
<rect x="2" y="1.98901" width="35" height="20" rx="10" stroke="#F399E5" stroke-width="3" stroke-linejoin="round"/>
<path d="M14.0273 12.8308V11.3835H17.7656V14.8054C17.4023 15.157 16.875 15.4675 16.1836 15.7371C15.4961 16.0027 14.7988 16.1355 14.0918 16.1355C13.1934 16.1355 12.4102 15.948 11.7422 15.573C11.0742 15.1941 10.5723 14.655 10.2363 13.9558C9.90039 13.2527 9.73242 12.489 9.73242 11.6648C9.73242 10.7703 9.91992 9.97534 10.2949 9.28003C10.6699 8.58472 11.2188 8.05151 11.9414 7.68042C12.4922 7.39526 13.1777 7.25269 13.998 7.25269C15.0645 7.25269 15.8965 7.47729 16.4941 7.92651C17.0957 8.37183 17.4824 8.98901 17.6543 9.77808L15.9316 10.1003C15.8105 9.67847 15.582 9.34644 15.2461 9.10425C14.9141 8.85815 14.498 8.73511 13.998 8.73511C13.2402 8.73511 12.6367 8.97534 12.1875 9.45581C11.7422 9.93628 11.5195 10.6492 11.5195 11.5945C11.5195 12.614 11.7461 13.3796 12.1992 13.8914C12.6523 14.3992 13.2461 14.6531 13.9805 14.6531C14.3438 14.6531 14.707 14.5828 15.0703 14.4421C15.4375 14.2976 15.752 14.1238 16.0137 13.9207V12.8308H14.0273ZM19.3184 15.989V7.39917H21.0527V15.989H19.3184ZM22.7109 15.989V7.39917H25.4941C26.5488 7.39917 27.2363 7.44214 27.5566 7.52808C28.0488 7.65698 28.4609 7.93823 28.793 8.37183C29.125 8.80151 29.291 9.35815 29.291 10.0417C29.291 10.5691 29.1953 11.0125 29.0039 11.3718C28.8125 11.7312 28.5684 12.0144 28.2715 12.2214C27.9785 12.4246 27.6797 12.5593 27.375 12.6257C26.9609 12.7078 26.3613 12.7488 25.5762 12.7488H24.4453V15.989H22.7109ZM24.4453 8.85229V11.2898H25.3945C26.0781 11.2898 26.5352 11.2449 26.7656 11.155C26.9961 11.0652 27.1758 10.9246 27.3047 10.7332C27.4375 10.5417 27.5039 10.3191 27.5039 10.0652C27.5039 9.75269 27.4121 9.49487 27.2285 9.29175C27.0449 9.08862 26.8125 8.96167 26.5312 8.91089C26.3242 8.87183 25.9082 8.85229 25.2832 8.85229H24.4453Z" fill="white"/>
<defs>
<linearGradient id="paint0_linear_45_4256" x1="19.5" y1="1.98901" x2="19.5" y2="21.989" gradientUnits="userSpaceOnUse">
<stop stop-color="#F399E5"/>
<stop offset="1" stop-color="#A32702"/>
</linearGradient>
</defs>
</svg>
