<svg width="58" height="24" viewBox="0 0 58 24" fill="none" xmlns="http://www.w3.org/2000/svg">
<rect x="2" y="1.98901" width="55" height="20" rx="10" fill="url(#paint0_linear_45_4228)"/>
<rect x="2" y="1.98901" width="55" height="20" rx="10" stroke="#DF5450" stroke-width="3" stroke-linejoin="round"/>
<path d="M14.0195 12.8308V11.3835H17.7578V14.8054C17.3945 15.157 16.8672 15.4675 16.1758 15.7371C15.4883 16.0027 14.791 16.1355 14.084 16.1355C13.1855 16.1355 12.4023 15.948 11.7344 15.573C11.0664 15.1941 10.5645 14.655 10.2285 13.9558C9.89258 13.2527 9.72461 12.489 9.72461 11.6648C9.72461 10.7703 9.91211 9.97534 10.2871 9.28003C10.6621 8.58472 11.2109 8.05151 11.9336 7.68042C12.4844 7.39526 13.1699 7.25269 13.9902 7.25269C15.0566 7.25269 15.8887 7.47729 16.4863 7.92651C17.0879 8.37183 17.4746 8.98901 17.6465 9.77808L15.9238 10.1003C15.8027 9.67847 15.5742 9.34644 15.2383 9.10425C14.9062 8.85815 14.4902 8.73511 13.9902 8.73511C13.2324 8.73511 12.6289 8.97534 12.1797 9.45581C11.7344 9.93628 11.5117 10.6492 11.5117 11.5945C11.5117 12.614 11.7383 13.3796 12.1914 13.8914C12.6445 14.3992 13.2383 14.6531 13.9727 14.6531C14.3359 14.6531 14.6992 14.5828 15.0625 14.4421C15.4297 14.2976 15.7441 14.1238 16.0059 13.9207V12.8308H14.0195ZM27.1094 15.989H25.2227L24.4727 14.0378H21.0391L20.3301 15.989H18.4902L21.8359 7.39917H23.6699L27.1094 15.989ZM23.916 12.5906L22.7324 9.40308L21.5723 12.5906H23.916ZM28.082 15.989V7.46948H29.8164V14.5417H34.1289V15.989H28.082ZM35.3945 15.989V7.39917H37.1289V11.2136L40.6328 7.39917H42.9648L39.7305 10.7449L43.1406 15.989H40.8965L38.5352 11.9578L37.1289 13.3933V15.989H35.3945ZM47.8926 15.989H46.2461V9.78394C45.6445 10.3464 44.9355 10.7625 44.1191 11.032V9.53784C44.5488 9.39722 45.0156 9.13159 45.5195 8.74097C46.0234 8.34644 46.3691 7.88745 46.5566 7.36401H47.8926V15.989Z" fill="white"/>
<defs>
<linearGradient id="paint0_linear_45_4228" x1="29.5" y1="1.98901" x2="29.5" y2="21.989" gradientUnits="userSpaceOnUse">
<stop stop-color="#4F498D"/>
<stop offset="1" stop-color="#DF5450"/>
</linearGradient>
</defs>
</svg>
