<svg width="42" height="24" viewBox="0 0 42 24" fill="none" xmlns="http://www.w3.org/2000/svg">
<rect x="2" y="1.98901" width="39" height="20" rx="10" fill="url(#paint0_linear_52_1883)"/>
<rect x="2" y="1.98901" width="39" height="20" rx="10" stroke="#F36096" stroke-width="3" stroke-linejoin="round"/>
<path d="M10.0801 15.989V7.46948H11.8145V14.5417H16.127V15.989H10.0801ZM17.375 15.989V7.39917H19.1094V10.78H22.5078V7.39917H24.2422V15.989H22.5078V12.2332H19.1094V15.989H17.375ZM26.0469 7.39917H29.4805C30.1602 7.39917 30.666 7.42847 30.998 7.48706C31.334 7.54175 31.6328 7.65894 31.8945 7.83862C32.1602 8.01831 32.3809 8.25854 32.5566 8.55933C32.7324 8.8562 32.8203 9.19019 32.8203 9.56128C32.8203 9.96362 32.7109 10.3328 32.4922 10.6687C32.2773 11.0046 31.9844 11.2566 31.6133 11.4246C32.1367 11.5769 32.5391 11.8367 32.8203 12.2039C33.1016 12.571 33.2422 13.0027 33.2422 13.4988C33.2422 13.8894 33.1504 14.2703 32.9668 14.6414C32.7871 15.0085 32.5391 15.3035 32.2227 15.5261C31.9102 15.7449 31.5234 15.8796 31.0625 15.9304C30.7734 15.9617 30.0762 15.9812 28.9707 15.989H26.0469V7.39917ZM27.7812 8.82886V10.8152H28.918C29.5938 10.8152 30.0137 10.8054 30.1777 10.7859C30.4746 10.7507 30.707 10.6492 30.875 10.4812C31.0469 10.3093 31.1328 10.0847 31.1328 9.80737C31.1328 9.54175 31.0586 9.3269 30.9102 9.16284C30.7656 8.99487 30.5488 8.89331 30.2598 8.85815C30.0879 8.83862 29.5938 8.82886 28.7773 8.82886H27.7812ZM27.7812 12.2449V14.5417H29.3867C30.0117 14.5417 30.4082 14.5242 30.5762 14.489C30.834 14.4421 31.043 14.3289 31.2031 14.1492C31.3672 13.9656 31.4492 13.7214 31.4492 13.4167C31.4492 13.1589 31.3867 12.9402 31.2617 12.7605C31.1367 12.5808 30.9551 12.45 30.7168 12.3679C30.4824 12.2859 29.9707 12.2449 29.1816 12.2449H27.7812Z" fill="white"/>
<defs>
<linearGradient id="paint0_linear_52_1883" x1="21.5" y1="1.98901" x2="21.5" y2="21.989" gradientUnits="userSpaceOnUse">
<stop stop-color="#F36096"/>
<stop offset="1" stop-color="#F3B6CC"/>
</linearGradient>
</defs>
</svg>
