<svg width="75" height="104" viewBox="0 0 75 104" fill="none" xmlns="http://www.w3.org/2000/svg">
<path d="M37.6335 10.8096C41.7376 13.1673 44.7308 17.3102 46.9707 21.3788C49.4711 25.9206 51.1651 30.8758 52.2984 35.9238C54.4149 45.3514 54.5943 55.2513 53.0143 64.7747C51.5715 73.471 48.5452 82.3836 42.8057 89.2166C41.3972 90.8935 39.7386 92.4513 37.8717 93.608C37.158 94.0502 36.4391 94.4707 35.5915 94.5666C34.2127 94.7225 32.8405 94.7867 31.4722 95.0413C29.6708 95.3764 27.2756 95.8595 25.947 97.2548C24.9273 98.3256 25.5055 99.4256 26.5846 100.152C28.3616 101.348 30.6989 101.765 32.7794 102.05C35.0527 102.362 37.3607 102.42 39.6502 102.292C44.7065 102.012 49.7442 100.866 54.1815 98.3564C63.2025 93.2539 68.7272 83.1858 71.4239 73.4778C73.9645 64.3319 74.9807 54.7363 74.0542 45.269C73.0761 35.2735 70.5593 25.4942 65.1224 16.946C62.2479 12.4266 58.3453 8.49246 53.5845 5.98905C49.3303 3.75205 44.5946 2.68575 39.8149 2.42265C37.184 2.27785 34.5344 2.35275 31.932 2.78865C30.0602 3.10215 27.8864 3.54705 26.3421 4.72865C22.7667 7.46455 29.896 9.38695 31.6137 9.69705C33.6238 10.0599 35.8373 9.77696 37.6335 10.8096Z" fill="#55D8FF"/>
<path d="M37.4341 93.9013C33.33 91.5436 30.3368 87.4007 28.0969 83.3321C25.5965 78.7903 23.9025 73.8351 22.7692 68.7871C20.6527 59.3595 20.4733 49.4596 22.0533 39.9362C23.4961 31.2399 26.5224 22.3273 32.2619 15.4943C33.6704 13.8174 35.329 12.2596 37.1959 11.1029C37.9096 10.6607 38.6285 10.2401 39.4761 10.1443C40.8549 9.98842 42.2271 9.92422 43.5954 9.66962C45.3968 9.33442 47.792 8.85142 49.1206 7.45612C50.1403 6.38532 49.5621 5.28532 48.483 4.55902C46.706 3.36282 44.3687 2.94582 42.2882 2.66072C40.0149 2.34922 37.7069 2.29132 35.4174 2.41842C30.361 2.69892 25.3233 3.84451 20.886 6.35441C11.865 11.4569 6.34032 21.5249 3.64362 31.233C1.10302 40.3789 0.0868227 49.9746 1.01332 59.4418C1.99142 69.4373 4.50822 79.2166 9.94512 87.7648C12.8196 92.2842 16.7222 96.2183 21.483 98.7217C25.7372 100.959 30.6836 102.037 35.2526 102.288C37.8835 102.433 40.5331 102.358 43.1355 101.922C45.0073 101.609 47.1811 101.164 48.7254 99.9821C52.3009 97.2463 45.1717 95.3239 43.4539 95.0138C41.4438 94.651 39.2303 94.9339 37.4341 93.9013Z" fill="#E89C23"/>
<path opacity="0.2" d="M74.0545 45.2679C73.0764 35.2724 70.5596 25.4931 65.1227 16.9449C62.2481 12.4254 58.3455 8.49143 53.5847 5.98803C49.6251 3.90593 45.2474 2.84763 40.8064 2.49753C40.6007 2.47913 40.3949 2.46483 40.1888 2.45023C40.0641 2.44223 39.9399 2.42843 39.8152 2.42163C39.7164 2.41613 39.6171 2.41663 39.5182 2.41183C39.0722 2.38893 38.6262 2.37393 38.1795 2.36763C37.9586 2.36363 37.738 2.36183 37.5171 2.36133C37.2267 2.36233 36.9369 2.36733 36.6468 2.37473C36.2459 2.38293 35.8454 2.39483 35.4451 2.41633C35.4359 2.41683 35.4267 2.41673 35.4176 2.41723C35.369 2.41993 35.3206 2.42563 35.272 2.42853C34.7552 2.45893 34.2387 2.49383 33.7238 2.54853C29.2428 2.97513 24.8276 4.12413 20.8862 6.35343C11.8652 11.4559 6.34049 21.524 3.64379 31.2321C1.10319 40.378 0.0869879 49.9736 1.01339 59.4409C1.99159 69.4364 4.50829 79.2157 9.94529 87.7639C12.8198 92.2833 16.7224 96.2173 21.4831 98.7208C25.4428 100.803 29.8203 101.861 34.2614 102.211C34.4671 102.23 34.6729 102.244 34.879 102.259C35.0037 102.267 35.1279 102.28 35.2526 102.287C35.3514 102.293 35.4507 102.292 35.5496 102.297C35.9957 102.32 36.4417 102.335 36.8883 102.341C37.1092 102.345 37.3298 102.347 37.5507 102.348C37.841 102.347 38.1308 102.342 38.421 102.334C38.8219 102.326 39.2224 102.314 39.6228 102.293C39.6319 102.292 39.6411 102.292 39.6502 102.292C39.6986 102.289 39.7468 102.283 39.7952 102.28C40.3123 102.25 40.829 102.215 41.3442 102.16C45.8251 101.734 50.2403 100.585 54.1816 98.3556C63.2025 93.2531 68.7273 83.185 71.424 73.4769C73.9647 64.3308 74.9809 54.7351 74.0545 45.2679ZM53.0144 64.7735C51.5715 73.4698 48.5453 82.3824 42.8058 89.2154C41.3973 90.8923 39.7387 92.4502 37.8718 93.6069C37.7185 93.7018 37.5644 93.7943 37.4094 93.8843C33.3185 91.524 30.3323 87.3913 28.097 83.3311C25.5965 78.7894 23.9025 73.8342 22.7693 68.7862C20.6528 59.3585 20.4734 49.4587 22.0535 39.9353C23.4963 31.2391 26.5226 22.3264 32.262 15.4934C33.6705 13.8165 35.3292 12.2586 37.196 11.102C37.3493 11.007 37.5034 10.9146 37.6584 10.8246C41.7493 13.1848 44.7355 17.3176 46.9708 21.3778C49.4712 25.9196 51.1652 30.8748 52.2985 35.9228C54.415 45.3502 54.5945 55.25 53.0144 64.7735Z" fill="url(#paint0_radial_90_4517)"/>
<mask id="mask0_90_4517" style="mask-type:alpha" maskUnits="userSpaceOnUse" x="23" y="0" width="52" height="104">
<ellipse cx="49.2642" cy="52.0112" rx="25.5" ry="51.5" fill="black"/>
</mask>
<g mask="url(#mask0_90_4517)">
<path opacity="0.8" d="M74.0546 45.2679C73.0765 35.2724 70.5597 25.4931 65.1228 16.9449C62.2482 12.4254 58.3456 8.49143 53.5848 5.98803C49.6252 3.90593 45.2475 2.84763 40.8065 2.49753C40.6008 2.47913 40.395 2.46483 40.1889 2.45023C40.0642 2.44223 39.94 2.42843 39.8153 2.42163C39.7165 2.41613 39.6172 2.41663 39.5183 2.41183C39.0723 2.38893 38.6263 2.37393 38.1796 2.36763C37.9587 2.36363 37.7381 2.36183 37.5172 2.36133C37.2268 2.36233 36.937 2.36733 36.6469 2.37473C36.246 2.38293 35.8455 2.39483 35.4452 2.41633C35.436 2.41683 35.4268 2.41673 35.4177 2.41723C35.3691 2.41993 35.3207 2.42563 35.2721 2.42853C34.7553 2.45893 34.2388 2.49383 33.7239 2.54853C29.2429 2.97513 24.8277 4.12413 20.8863 6.35343C11.8653 11.4559 6.34061 21.524 3.64391 31.2321C1.10331 40.378 0.08711 49.9736 1.01351 59.4409C1.99171 69.4364 4.50841 79.2157 9.94541 87.7639C12.8199 92.2833 16.7225 96.2173 21.4832 98.7208C25.4429 100.803 29.8204 101.861 34.2615 102.211C34.4672 102.23 34.673 102.244 34.8791 102.259C35.0038 102.267 35.128 102.28 35.2527 102.287C35.3515 102.293 35.4508 102.292 35.5497 102.297C35.9958 102.32 36.4418 102.335 36.8884 102.341C37.1093 102.345 37.3299 102.347 37.5508 102.348C37.8411 102.347 38.1309 102.342 38.4211 102.334C38.822 102.326 39.2225 102.314 39.6229 102.293C39.632 102.292 39.6412 102.292 39.6503 102.292C39.6987 102.289 39.7469 102.283 39.7953 102.28C40.3124 102.25 40.8291 102.215 41.3443 102.16C45.8252 101.734 50.2404 100.585 54.1817 98.3556C63.2026 93.2531 68.7274 83.185 71.4241 73.4769C73.9648 64.3308 74.981 54.7351 74.0546 45.2679ZM53.0145 64.7735C51.5716 73.4698 48.5454 82.3824 42.8059 89.2154C41.3974 90.8923 39.7388 92.4502 37.8719 93.6069C37.7186 93.7018 37.5645 93.7943 37.4095 93.8843C33.3186 91.524 30.3324 87.3913 28.0971 83.3311C25.5966 78.7894 23.9026 73.8342 22.7694 68.7862C20.6529 59.3585 20.4735 49.4587 22.0536 39.9353C23.4964 31.2391 26.5227 22.3264 32.2621 15.4934C33.6706 13.8165 35.3293 12.2586 37.1961 11.102C37.3494 11.007 37.5035 10.9146 37.6585 10.8246C41.7494 13.1848 44.7356 17.3176 46.9709 21.3778C49.4713 25.9196 51.1653 30.8748 52.2986 35.9228C54.4151 45.3502 54.5946 55.25 53.0145 64.7735Z" fill="url(#paint1_radial_90_4517)" fill-opacity="0.75"/>
</g>
<mask id="mask1_90_4517" style="mask-type:alpha" maskUnits="userSpaceOnUse" x="0" y="0" width="70" height="104">
<ellipse cx="35.2913" cy="52.0112" rx="34.5" ry="51.5" fill="black"/>
</mask>
<g mask="url(#mask1_90_4517)">
<path d="M74.0546 45.2679C73.0765 35.2724 70.5597 25.4931 65.1228 16.9449C62.2482 12.4254 58.3456 8.49143 53.5848 5.98803C49.6252 3.90593 45.2475 2.84763 40.8065 2.49753C40.6008 2.47913 40.395 2.46483 40.1889 2.45023C40.0642 2.44223 39.94 2.42843 39.8153 2.42163C39.7165 2.41613 39.6172 2.41663 39.5183 2.41183C39.0723 2.38893 38.6263 2.37393 38.1796 2.36763C37.9587 2.36363 37.7381 2.36183 37.5172 2.36133C37.2268 2.36233 36.937 2.36733 36.6469 2.37473C36.246 2.38293 35.8455 2.39483 35.4452 2.41633C35.436 2.41683 35.4268 2.41673 35.4177 2.41723C35.3691 2.41993 35.3207 2.42563 35.2721 2.42853C34.7553 2.45893 34.2388 2.49383 33.7239 2.54853C29.2429 2.97513 24.8277 4.12413 20.8863 6.35343C11.8653 11.4559 6.34061 21.524 3.64391 31.2321C1.10331 40.378 0.08711 49.9736 1.01351 59.4409C1.99171 69.4364 4.50841 79.2157 9.94541 87.7639C12.8199 92.2833 16.7225 96.2173 21.4832 98.7208C25.4429 100.803 29.8204 101.861 34.2615 102.211C34.4672 102.23 34.673 102.244 34.8791 102.259C35.0038 102.267 35.128 102.28 35.2527 102.287C35.3515 102.293 35.4508 102.292 35.5497 102.297C35.9958 102.32 36.4418 102.335 36.8884 102.341C37.1093 102.345 37.3299 102.347 37.5508 102.348C37.8411 102.347 38.1309 102.342 38.4211 102.334C38.822 102.326 39.2225 102.314 39.6229 102.293C39.632 102.292 39.6412 102.292 39.6503 102.292C39.6987 102.289 39.7469 102.283 39.7953 102.28C40.3124 102.25 40.8291 102.215 41.3443 102.16C45.8252 101.734 50.2404 100.585 54.1817 98.3556C63.2026 93.2531 68.7274 83.185 71.4241 73.4769C73.9648 64.3308 74.981 54.7351 74.0546 45.2679ZM53.0145 64.7735C51.5716 73.4698 48.5454 82.3824 42.8059 89.2154C41.3974 90.8923 39.7388 92.4502 37.8719 93.6069C37.7186 93.7018 37.5645 93.7943 37.4095 93.8843C33.3186 91.524 30.3324 87.3913 28.0971 83.3311C25.5966 78.7894 23.9026 73.8342 22.7694 68.7862C20.6529 59.3585 20.4735 49.4587 22.0536 39.9353C23.4964 31.2391 26.5227 22.3264 32.2621 15.4934C33.6706 13.8165 35.3293 12.2586 37.1961 11.102C37.3494 11.007 37.5035 10.9146 37.6585 10.8246C41.7494 13.1848 44.7356 17.3176 46.9709 21.3778C49.4713 25.9196 51.1653 30.8748 52.2986 35.9228C54.4151 45.3502 54.5946 55.25 53.0145 64.7735Z" fill="url(#paint2_radial_90_4517)"/>
</g>
<path opacity="0.25" d="M74.0545 45.2679C73.0764 35.2724 70.5596 25.4931 65.1227 16.9449C62.2481 12.4254 58.3455 8.49143 53.5847 5.98803C49.6251 3.90593 45.2474 2.84763 40.8064 2.49753C40.6007 2.47913 40.3949 2.46483 40.1888 2.45023C40.0641 2.44223 39.9399 2.42843 39.8152 2.42163C39.7164 2.41613 39.6171 2.41663 39.5182 2.41183C39.0722 2.38893 38.6262 2.37393 38.1795 2.36763C37.9586 2.36363 37.738 2.36183 37.5171 2.36133C37.2267 2.36233 36.9369 2.36733 36.6468 2.37473C36.2459 2.38293 35.8454 2.39483 35.4451 2.41633C35.4359 2.41683 35.4267 2.41673 35.4176 2.41723C35.369 2.41993 35.3206 2.42563 35.272 2.42853C34.7552 2.45893 34.2387 2.49383 33.7238 2.54853C29.2428 2.97513 24.8276 4.12413 20.8862 6.35343C11.8652 11.4559 6.34049 21.524 3.64379 31.2321C1.10319 40.378 0.0869879 49.9736 1.01339 59.4409C1.99159 69.4364 4.50829 79.2157 9.94529 87.7639C12.8198 92.2833 16.7224 96.2173 21.4831 98.7208C25.4428 100.803 29.8203 101.861 34.2614 102.211C34.4671 102.23 34.6729 102.244 34.879 102.259C35.0037 102.267 35.1279 102.28 35.2526 102.287C35.3514 102.293 35.4507 102.292 35.5496 102.297C35.9957 102.32 36.4417 102.335 36.8883 102.341C37.1092 102.345 37.3298 102.347 37.5507 102.348C37.841 102.347 38.1308 102.342 38.421 102.334C38.8219 102.326 39.2224 102.314 39.6228 102.293C39.6319 102.292 39.6411 102.292 39.6502 102.292C39.6986 102.289 39.7468 102.283 39.7952 102.28C40.3123 102.25 40.829 102.215 41.3442 102.16C45.8251 101.734 50.2403 100.585 54.1816 98.3556C63.2025 93.2531 68.7273 83.185 71.424 73.4769C73.9647 64.3308 74.9809 54.7351 74.0545 45.2679ZM53.0144 64.7735C51.5715 73.4698 48.5453 82.3824 42.8058 89.2154C41.3973 90.8923 39.7387 92.4502 37.8718 93.6069C37.7185 93.7018 37.5644 93.7943 37.4094 93.8843C33.3185 91.524 30.3323 87.3913 28.097 83.3311C25.5965 78.7894 23.9025 73.8342 22.7693 68.7862C20.6528 59.3585 20.4734 49.4587 22.0535 39.9353C23.4963 31.2391 26.5226 22.3264 32.262 15.4934C33.6705 13.8165 35.3292 12.2586 37.196 11.102C37.3493 11.007 37.5034 10.9146 37.6584 10.8246C41.7493 13.1848 44.7355 17.3176 46.9708 21.3778C49.4712 25.9196 51.1652 30.8748 52.2985 35.9228C54.415 45.3502 54.5945 55.25 53.0144 64.7735Z" fill="url(#paint3_radial_90_4517)"/>
<defs>
<radialGradient id="paint0_radial_90_4517" cx="0" cy="0" r="1" gradientUnits="userSpaceOnUse" gradientTransform="translate(37.534 52.3521) scale(42.368 60.7006)">
<stop offset="0.3879" stop-color="white" stop-opacity="0"/>
<stop offset="0.4247" stop-color="white" stop-opacity="0.1413"/>
<stop offset="0.6486" stop-color="white"/>
<stop offset="0.8311" stop-color="white" stop-opacity="0"/>
</radialGradient>
<radialGradient id="paint1_radial_90_4517" cx="0" cy="0" r="1" gradientUnits="userSpaceOnUse" gradientTransform="translate(37.5365 52.3543) rotate(-90) scale(50.1181 35.3132)">
<stop offset="0.87" stop-color="#421616"/>
<stop offset="1" stop-color="#421616" stop-opacity="0"/>
</radialGradient>
<radialGradient id="paint2_radial_90_4517" cx="0" cy="0" r="1" gradientUnits="userSpaceOnUse" gradientTransform="translate(37.5326 52.3543) rotate(-90) scale(71.8607 37.0801)">
<stop offset="0.5095" stop-color="#421616" stop-opacity="0"/>
<stop offset="0.9887" stop-color="#421616" stop-opacity="0.977"/>
<stop offset="1" stop-color="#421616"/>
</radialGradient>
<radialGradient id="paint3_radial_90_4517" cx="0" cy="0" r="1" gradientUnits="userSpaceOnUse" gradientTransform="translate(43.0066 52.2488) scale(43.9192 73.3802)">
<stop offset="0.571" stop-color="white" stop-opacity="0"/>
<stop offset="0.6496" stop-color="white"/>
<stop offset="0.71" stop-color="white" stop-opacity="0"/>
</radialGradient>
</defs>
</svg>
