<svg width="52" height="24" viewBox="0 0 52 24" fill="none" xmlns="http://www.w3.org/2000/svg">
<rect x="2" y="1.98901" width="49" height="20" rx="10" fill="url(#paint0_linear_52_1863)"/>
<rect x="2" y="1.98901" width="49" height="20" rx="10" stroke="#741075" stroke-width="3" stroke-linejoin="round"/>
<path d="M10.3398 15.989V7.39917H12.9355L14.4941 13.2585L16.0352 7.39917H18.6367V15.989H17.0254V9.22729L15.3203 15.989H13.6504L11.9512 9.22729V15.989H10.3398ZM20.3652 7.39917H23.7988C24.4785 7.39917 24.9844 7.42847 25.3164 7.48706C25.6523 7.54175 25.9512 7.65894 26.2129 7.83862C26.4785 8.01831 26.6992 8.25854 26.875 8.55933C27.0508 8.8562 27.1387 9.19019 27.1387 9.56128C27.1387 9.96362 27.0293 10.3328 26.8105 10.6687C26.5957 11.0046 26.3027 11.2566 25.9316 11.4246C26.4551 11.5769 26.8574 11.8367 27.1387 12.2039C27.4199 12.571 27.5605 13.0027 27.5605 13.4988C27.5605 13.8894 27.4688 14.2703 27.2852 14.6414C27.1055 15.0085 26.8574 15.3035 26.541 15.5261C26.2285 15.7449 25.8418 15.8796 25.3809 15.9304C25.0918 15.9617 24.3945 15.9812 23.2891 15.989H20.3652V7.39917ZM22.0996 8.82886V10.8152H23.2363C23.9121 10.8152 24.332 10.8054 24.4961 10.7859C24.793 10.7507 25.0254 10.6492 25.1934 10.4812C25.3652 10.3093 25.4512 10.0847 25.4512 9.80737C25.4512 9.54175 25.377 9.3269 25.2285 9.16284C25.084 8.99487 24.8672 8.89331 24.5781 8.85815C24.4062 8.83862 23.9121 8.82886 23.0957 8.82886H22.0996ZM22.0996 12.2449V14.5417H23.7051C24.3301 14.5417 24.7266 14.5242 24.8945 14.489C25.1523 14.4421 25.3613 14.3289 25.5215 14.1492C25.6855 13.9656 25.7676 13.7214 25.7676 13.4167C25.7676 13.1589 25.7051 12.9402 25.5801 12.7605C25.4551 12.5808 25.2734 12.45 25.0352 12.3679C24.8008 12.2859 24.2891 12.2449 23.5 12.2449H22.0996ZM29.0254 7.39917H32.1953C32.9102 7.39917 33.4551 7.45386 33.8301 7.56323C34.334 7.71167 34.7656 7.97534 35.125 8.35425C35.4844 8.73315 35.7578 9.198 35.9453 9.74878C36.1328 10.2957 36.2266 10.9714 36.2266 11.7761C36.2266 12.4832 36.1387 13.0925 35.9629 13.6042C35.748 14.2292 35.4414 14.7351 35.043 15.1218C34.7422 15.4148 34.3359 15.6433 33.8242 15.8074C33.4414 15.9285 32.9297 15.989 32.2891 15.989H29.0254V7.39917ZM30.7598 8.85229V14.5417H32.0547C32.5391 14.5417 32.8887 14.5144 33.1035 14.4597C33.3848 14.3894 33.6172 14.2703 33.8008 14.1023C33.9883 13.9343 34.1406 13.6589 34.2578 13.2761C34.375 12.8894 34.4336 12.364 34.4336 11.7C34.4336 11.0359 34.375 10.5261 34.2578 10.1707C34.1406 9.81519 33.9766 9.53784 33.7656 9.33862C33.5547 9.1394 33.2871 9.00464 32.9629 8.93433C32.7207 8.87964 32.2461 8.85229 31.5391 8.85229H30.7598ZM42.9004 14.4597V15.989H37.1289C37.1914 15.4109 37.3789 14.864 37.6914 14.3484C38.0039 13.8289 38.6211 13.1414 39.543 12.2859C40.2852 11.5945 40.7402 11.1257 40.9082 10.8796C41.1348 10.5398 41.248 10.2039 41.248 9.87183C41.248 9.50464 41.1484 9.22339 40.9492 9.02808C40.7539 8.82886 40.4824 8.72925 40.1348 8.72925C39.791 8.72925 39.5176 8.83276 39.3145 9.03979C39.1113 9.24683 38.9941 9.59058 38.9629 10.071L37.3223 9.90698C37.4199 9.00073 37.7266 8.35034 38.2422 7.95581C38.7578 7.56128 39.4023 7.36401 40.1758 7.36401C41.0234 7.36401 41.6895 7.59253 42.1738 8.04956C42.6582 8.50659 42.9004 9.07495 42.9004 9.75464C42.9004 10.1414 42.8301 10.5105 42.6895 10.8621C42.5527 11.2097 42.334 11.575 42.0332 11.9578C41.834 12.2117 41.4746 12.5769 40.9551 13.0535C40.4355 13.53 40.1055 13.8464 39.9648 14.0027C39.8281 14.1589 39.7168 14.3113 39.6309 14.4597H42.9004Z" fill="white"/>
<defs>
<linearGradient id="paint0_linear_52_1863" x1="26.5" y1="1.98901" x2="26.5" y2="21.989" gradientUnits="userSpaceOnUse">
<stop stop-color="#741075"/>
<stop offset="1" stop-color="#FFB736"/>
</linearGradient>
</defs>
</svg>
