<svg width="57" height="24" viewBox="0 0 57 24" fill="none" xmlns="http://www.w3.org/2000/svg">
<rect x="2" y="1.98901" width="54" height="20" rx="10" fill="url(#paint0_linear_45_4232)"/>
<rect x="2" y="1.98901" width="54" height="20" rx="10" stroke="#3278F7" stroke-width="3" stroke-linejoin="round"/>
<path d="M14.1816 12.8308V11.3835H17.9199V14.8054C17.5566 15.157 17.0293 15.4675 16.3379 15.7371C15.6504 16.0027 14.9531 16.1355 14.2461 16.1355C13.3477 16.1355 12.5645 15.948 11.8965 15.573C11.2285 15.1941 10.7266 14.655 10.3906 13.9558C10.0547 13.2527 9.88672 12.489 9.88672 11.6648C9.88672 10.7703 10.0742 9.97534 10.4492 9.28003C10.8242 8.58472 11.373 8.05151 12.0957 7.68042C12.6465 7.39526 13.332 7.25269 14.1523 7.25269C15.2188 7.25269 16.0508 7.47729 16.6484 7.92651C17.25 8.37183 17.6367 8.98901 17.8086 9.77808L16.0859 10.1003C15.9648 9.67847 15.7363 9.34644 15.4004 9.10425C15.0684 8.85815 14.6523 8.73511 14.1523 8.73511C13.3945 8.73511 12.791 8.97534 12.3418 9.45581C11.8965 9.93628 11.6738 10.6492 11.6738 11.5945C11.6738 12.614 11.9004 13.3796 12.3535 13.8914C12.8066 14.3992 13.4004 14.6531 14.1348 14.6531C14.498 14.6531 14.8613 14.5828 15.2246 14.4421C15.5918 14.2976 15.9062 14.1238 16.168 13.9207V12.8308H14.1816ZM24.7402 9.50269L23.1465 9.67847C23.1074 9.35034 23.0059 9.10815 22.8418 8.9519C22.6777 8.79565 22.4648 8.71753 22.2031 8.71753C21.8555 8.71753 21.5605 8.87378 21.3184 9.18628C21.0801 9.49878 20.9297 10.1492 20.8672 11.1375C21.2773 10.6531 21.7871 10.4109 22.3965 10.4109C23.084 10.4109 23.6719 10.6726 24.1602 11.196C24.6523 11.7195 24.8984 12.3953 24.8984 13.2234C24.8984 14.1023 24.6406 14.8074 24.125 15.3386C23.6094 15.8699 22.9473 16.1355 22.1387 16.1355C21.2715 16.1355 20.5586 15.7996 20 15.1277C19.4414 14.4519 19.1621 13.3464 19.1621 11.8113C19.1621 10.2371 19.4531 9.10229 20.0352 8.40698C20.6172 7.71167 21.373 7.36401 22.3027 7.36401C22.9551 7.36401 23.4941 7.54761 23.9199 7.91479C24.3496 8.27808 24.623 8.80737 24.7402 9.50269ZM21.0078 13.0945C21.0078 13.6296 21.1309 14.0437 21.377 14.3367C21.623 14.6257 21.9043 14.7703 22.2207 14.7703C22.5254 14.7703 22.7793 14.6511 22.9824 14.4128C23.1855 14.1746 23.2871 13.7839 23.2871 13.241C23.2871 12.6824 23.1777 12.2742 22.959 12.0164C22.7402 11.7546 22.4668 11.6238 22.1387 11.6238C21.8223 11.6238 21.5547 11.7488 21.3359 11.9988C21.1172 12.2449 21.0078 12.6101 21.0078 13.0945ZM26.2051 15.989V7.39917H28.9883C30.043 7.39917 30.7305 7.44214 31.0508 7.52808C31.543 7.65698 31.9551 7.93823 32.2871 8.37183C32.6191 8.80151 32.7852 9.35815 32.7852 10.0417C32.7852 10.5691 32.6895 11.0125 32.498 11.3718C32.3066 11.7312 32.0625 12.0144 31.7656 12.2214C31.4727 12.4246 31.1738 12.5593 30.8691 12.6257C30.4551 12.7078 29.8555 12.7488 29.0703 12.7488H27.9395V15.989H26.2051ZM27.9395 8.85229V11.2898H28.8887C29.5723 11.2898 30.0293 11.2449 30.2598 11.155C30.4902 11.0652 30.6699 10.9246 30.7988 10.7332C30.9316 10.5417 30.998 10.3191 30.998 10.0652C30.998 9.75269 30.9062 9.49487 30.7227 9.29175C30.5391 9.08862 30.3066 8.96167 30.0254 8.91089C29.8184 8.87183 29.4023 8.85229 28.7773 8.85229H27.9395ZM39.7051 12.8308L41.3867 13.364C41.1289 14.3015 40.6992 14.9988 40.0977 15.4558C39.5 15.9089 38.7402 16.1355 37.8184 16.1355C36.6777 16.1355 35.7402 15.7468 35.0059 14.9695C34.2715 14.1882 33.9043 13.1218 33.9043 11.7703C33.9043 10.3406 34.2734 9.2312 35.0117 8.44214C35.75 7.64917 36.7207 7.25269 37.9238 7.25269C38.9746 7.25269 39.8281 7.56323 40.4844 8.18433C40.875 8.55151 41.168 9.07886 41.3633 9.76636L39.6465 10.1765C39.5449 9.7312 39.332 9.37964 39.0078 9.12183C38.6875 8.86401 38.2969 8.73511 37.8359 8.73511C37.1992 8.73511 36.6816 8.96362 36.2832 9.42065C35.8887 9.87769 35.6914 10.6179 35.6914 11.6414C35.6914 12.7273 35.8867 13.5007 36.2773 13.9617C36.668 14.4226 37.1758 14.6531 37.8008 14.6531C38.2617 14.6531 38.6582 14.5066 38.9902 14.2136C39.3223 13.9207 39.5605 13.4597 39.7051 12.8308ZM42.459 13.7097L44.0527 13.5164C44.1035 13.9226 44.2402 14.2332 44.4629 14.448C44.6855 14.6628 44.9551 14.7703 45.2715 14.7703C45.6113 14.7703 45.8965 14.6414 46.127 14.3835C46.3613 14.1257 46.4785 13.7781 46.4785 13.3406C46.4785 12.9265 46.3672 12.5984 46.1445 12.3562C45.9219 12.114 45.6504 11.9929 45.3301 11.9929C45.1191 11.9929 44.8672 12.0339 44.5742 12.116L44.7559 10.7742C45.2012 10.7859 45.541 10.6902 45.7754 10.4871C46.0098 10.28 46.127 10.0066 46.127 9.66675C46.127 9.37769 46.041 9.14722 45.8691 8.97534C45.6973 8.80347 45.4688 8.71753 45.1836 8.71753C44.9023 8.71753 44.6621 8.81519 44.4629 9.0105C44.2637 9.20581 44.1426 9.49097 44.0996 9.86597L42.582 9.60815C42.6875 9.08862 42.8457 8.67456 43.0566 8.36597C43.2715 8.05347 43.5684 7.80933 43.9473 7.63354C44.3301 7.45386 44.7578 7.36401 45.2305 7.36401C46.0391 7.36401 46.6875 7.62183 47.1758 8.13745C47.5781 8.55933 47.7793 9.03589 47.7793 9.56714C47.7793 10.321 47.3672 10.9226 46.543 11.3718C47.0352 11.4773 47.4277 11.7136 47.7207 12.0808C48.0176 12.448 48.166 12.8914 48.166 13.4109C48.166 14.1648 47.8906 14.8074 47.3398 15.3386C46.7891 15.8699 46.1035 16.1355 45.2832 16.1355C44.5059 16.1355 43.8613 15.9128 43.3496 15.4675C42.8379 15.0183 42.541 14.4324 42.459 13.7097Z" fill="white"/>
<defs>
<linearGradient id="paint0_linear_45_4232" x1="29" y1="1.98901" x2="29" y2="21.989" gradientUnits="userSpaceOnUse">
<stop stop-color="#3278F7"/>
<stop offset="1" stop-color="#7593F4"/>
</linearGradient>
</defs>
</svg>
