<svg width="53" height="24" viewBox="0 0 53 24" fill="none" xmlns="http://www.w3.org/2000/svg">
<rect x="2" y="1.98901" width="50" height="20" rx="10" fill="url(#paint0_linear_46_4314)"/>
<rect x="2" y="1.98901" width="50" height="20" rx="10" stroke="#004F00" stroke-width="3" stroke-linejoin="round"/>
<path d="M10.1953 15.989V7.39917H11.9297V10.78H15.3281V7.39917H17.0625V15.989H15.3281V12.2332H11.9297V15.989H10.1953ZM18.8086 15.989V7.39917H20.543V15.989H18.8086ZM22.2012 15.989V7.39917H24.9844C26.0391 7.39917 26.7266 7.44214 27.0469 7.52808C27.5391 7.65698 27.9512 7.93823 28.2832 8.37183C28.6152 8.80151 28.7812 9.35815 28.7812 10.0417C28.7812 10.5691 28.6855 11.0125 28.4941 11.3718C28.3027 11.7312 28.0586 12.0144 27.7617 12.2214C27.4688 12.4246 27.1699 12.5593 26.8652 12.6257C26.4512 12.7078 25.8516 12.7488 25.0664 12.7488H23.9355V15.989H22.2012ZM23.9355 8.85229V11.2898H24.8848C25.5684 11.2898 26.0254 11.2449 26.2559 11.155C26.4863 11.0652 26.666 10.9246 26.7949 10.7332C26.9277 10.5417 26.9941 10.3191 26.9941 10.0652C26.9941 9.75269 26.9023 9.49487 26.7188 9.29175C26.5352 9.08862 26.3027 8.96167 26.0215 8.91089C25.8145 8.87183 25.3984 8.85229 24.7734 8.85229H23.9355ZM30.2285 15.989V7.39917H31.9629V11.2136L35.4668 7.39917H37.7988L34.5645 10.7449L37.9746 15.989H35.7305L33.3691 11.9578L31.9629 13.3933V15.989H30.2285ZM44.0742 14.4597V15.989H38.3027C38.3652 15.4109 38.5527 14.864 38.8652 14.3484C39.1777 13.8289 39.7949 13.1414 40.7168 12.2859C41.459 11.5945 41.9141 11.1257 42.082 10.8796C42.3086 10.5398 42.4219 10.2039 42.4219 9.87183C42.4219 9.50464 42.3223 9.22339 42.123 9.02808C41.9277 8.82886 41.6562 8.72925 41.3086 8.72925C40.9648 8.72925 40.6914 8.83276 40.4883 9.03979C40.2852 9.24683 40.168 9.59058 40.1367 10.071L38.4961 9.90698C38.5938 9.00073 38.9004 8.35034 39.416 7.95581C39.9316 7.56128 40.5762 7.36401 41.3496 7.36401C42.1973 7.36401 42.8633 7.59253 43.3477 8.04956C43.832 8.50659 44.0742 9.07495 44.0742 9.75464C44.0742 10.1414 44.0039 10.5105 43.8633 10.8621C43.7266 11.2097 43.5078 11.575 43.207 11.9578C43.0078 12.2117 42.6484 12.5769 42.1289 13.0535C41.6094 13.53 41.2793 13.8464 41.1387 14.0027C41.002 14.1589 40.8906 14.3113 40.8047 14.4597H44.0742Z" fill="white"/>
<defs>
<linearGradient id="paint0_linear_46_4314" x1="27" y1="1.98901" x2="27" y2="21.989" gradientUnits="userSpaceOnUse">
<stop stop-color="#66FFFF"/>
<stop offset="1" stop-color="#004F00"/>
</linearGradient>
</defs>
</svg>
