<svg width="59" height="24" viewBox="0 0 59 24" fill="none" xmlns="http://www.w3.org/2000/svg">
<rect x="2" y="1.98901" width="56" height="20" rx="10" fill="url(#paint0_linear_35_1498)"/>
<rect x="2" y="1.98901" width="56" height="20" rx="10" stroke="#00005B" stroke-width="3" stroke-linejoin="round"/>
<path d="M10.1953 7.39917H13.6289C14.3086 7.39917 14.8145 7.42847 15.1465 7.48706C15.4824 7.54175 15.7812 7.65894 16.043 7.83862C16.3086 8.01831 16.5293 8.25854 16.7051 8.55933C16.8809 8.8562 16.9688 9.19019 16.9688 9.56128C16.9688 9.96362 16.8594 10.3328 16.6406 10.6687C16.4258 11.0046 16.1328 11.2566 15.7617 11.4246C16.2852 11.5769 16.6875 11.8367 16.9688 12.2039C17.25 12.571 17.3906 13.0027 17.3906 13.4988C17.3906 13.8894 17.2988 14.2703 17.1152 14.6414C16.9355 15.0085 16.6875 15.3035 16.3711 15.5261C16.0586 15.7449 15.6719 15.8796 15.2109 15.9304C14.9219 15.9617 14.2246 15.9812 13.1191 15.989H10.1953V7.39917ZM11.9297 8.82886V10.8152H13.0664C13.7422 10.8152 14.1621 10.8054 14.3262 10.7859C14.623 10.7507 14.8555 10.6492 15.0234 10.4812C15.1953 10.3093 15.2812 10.0847 15.2812 9.80737C15.2812 9.54175 15.207 9.3269 15.0586 9.16284C14.9141 8.99487 14.6973 8.89331 14.4082 8.85815C14.2363 8.83862 13.7422 8.82886 12.9258 8.82886H11.9297ZM11.9297 12.2449V14.5417H13.5352C14.1602 14.5417 14.5566 14.5242 14.7246 14.489C14.9824 14.4421 15.1914 14.3289 15.3516 14.1492C15.5156 13.9656 15.5977 13.7214 15.5977 13.4167C15.5977 13.1589 15.5352 12.9402 15.4102 12.7605C15.2852 12.5808 15.1035 12.45 14.8652 12.3679C14.6309 12.2859 14.1191 12.2449 13.3301 12.2449H11.9297ZM26.6074 15.989H24.7207L23.9707 14.0378H20.5371L19.8281 15.989H17.9883L21.334 7.39917H23.168L26.6074 15.989ZM23.4141 12.5906L22.2305 9.40308L21.0703 12.5906H23.4141ZM33.0293 12.8308L34.7109 13.364C34.4531 14.3015 34.0234 14.9988 33.4219 15.4558C32.8242 15.9089 32.0645 16.1355 31.1426 16.1355C30.002 16.1355 29.0645 15.7468 28.3301 14.9695C27.5957 14.1882 27.2285 13.1218 27.2285 11.7703C27.2285 10.3406 27.5977 9.2312 28.3359 8.44214C29.0742 7.64917 30.0449 7.25269 31.248 7.25269C32.2988 7.25269 33.1523 7.56323 33.8086 8.18433C34.1992 8.55151 34.4922 9.07886 34.6875 9.76636L32.9707 10.1765C32.8691 9.7312 32.6562 9.37964 32.332 9.12183C32.0117 8.86401 31.6211 8.73511 31.1602 8.73511C30.5234 8.73511 30.0059 8.96362 29.6074 9.42065C29.2129 9.87769 29.0156 10.6179 29.0156 11.6414C29.0156 12.7273 29.2109 13.5007 29.6016 13.9617C29.9922 14.4226 30.5 14.6531 31.125 14.6531C31.5859 14.6531 31.9824 14.5066 32.3145 14.2136C32.6465 13.9207 32.8848 13.4597 33.0293 12.8308ZM36.2109 15.989V7.39917H37.9453V10.78H41.3438V7.39917H43.0781V15.989H41.3438V12.2332H37.9453V15.989H36.2109ZM48.7266 15.989H47.0801V9.78394C46.4785 10.3464 45.7695 10.7625 44.9531 11.032V9.53784C45.3828 9.39722 45.8496 9.13159 46.3535 8.74097C46.8574 8.34644 47.2031 7.88745 47.3906 7.36401H48.7266V15.989Z" fill="white"/>
<defs>
<linearGradient id="paint0_linear_35_1498" x1="30" y1="1.98901" x2="30" y2="21.989" gradientUnits="userSpaceOnUse">
<stop stop-color="#FF86AD"/>
<stop offset="1" stop-color="#00005B"/>
</linearGradient>
</defs>
</svg>
