<svg width="67" height="36" viewBox="0 0 67 36" fill="none" xmlns="http://www.w3.org/2000/svg">
<rect x="2" y="1.98901" width="64" height="32" rx="10" fill="url(#paint0_linear_83_1994)"/>
<rect x="2" y="1.98901" width="64" height="32" rx="10" stroke="#092754" stroke-width="3" stroke-linejoin="round"/>
<path d="M11.9043 14.989V7.85229H9.35547V6.39917H16.1816V7.85229H13.6387V14.989H11.9043ZM16.7324 10.7468C16.7324 9.87183 16.8633 9.13745 17.125 8.5437C17.3203 8.1062 17.5859 7.71362 17.9219 7.36597C18.2617 7.01831 18.6328 6.7605 19.0352 6.59253C19.5703 6.36597 20.1875 6.25269 20.8867 6.25269C22.1523 6.25269 23.1641 6.64526 23.9219 7.43042C24.6836 8.21558 25.0645 9.30737 25.0645 10.7058C25.0645 12.0925 24.6875 13.1785 23.9336 13.9636C23.1797 14.7449 22.1719 15.1355 20.9102 15.1355C19.6328 15.1355 18.6172 14.7468 17.8633 13.9695C17.1094 13.1882 16.7324 12.114 16.7324 10.7468ZM18.5195 10.6882C18.5195 11.6609 18.7441 12.3992 19.1934 12.9031C19.6426 13.4031 20.2129 13.6531 20.9043 13.6531C21.5957 13.6531 22.1621 13.405 22.6035 12.9089C23.0488 12.4089 23.2715 11.6609 23.2715 10.6648C23.2715 9.68042 23.0547 8.94604 22.6211 8.46167C22.1914 7.97729 21.6191 7.73511 20.9043 7.73511C20.1895 7.73511 19.6133 7.9812 19.1758 8.47339C18.7383 8.96167 18.5195 9.69995 18.5195 10.6882ZM26.4004 14.989V6.39917H28.9961L30.5547 12.2585L32.0957 6.39917H34.6973V14.989H33.0859V8.22729L31.3809 14.989H29.7109L28.0117 8.22729V14.989H26.4004ZM36.3965 14.989V6.39917H38.9922L40.5508 12.2585L42.0918 6.39917H44.6934V14.989H43.082V8.22729L41.377 14.989H39.707L38.0078 8.22729V14.989H36.3965ZM49.2812 14.989V13.2605H45.7656V11.8191L49.4922 6.36401H50.875V11.8132H51.9414V13.2605H50.875V14.989H49.2812ZM49.2812 11.8132V8.87769L47.3066 11.8132H49.2812ZM55.5156 6.36401C56.3477 6.36401 56.998 6.66089 57.4668 7.25464C58.0254 7.95776 58.3047 9.12378 58.3047 10.7527C58.3047 12.3777 58.0234 13.5457 57.4609 14.2566C56.9961 14.8425 56.3477 15.1355 55.5156 15.1355C54.6797 15.1355 54.0059 14.8152 53.4941 14.1746C52.9824 13.53 52.7266 12.3835 52.7266 10.7351C52.7266 9.11792 53.0078 7.95386 53.5703 7.24292C54.0352 6.65698 54.6836 6.36401 55.5156 6.36401ZM55.5156 7.72925C55.3164 7.72925 55.1387 7.7937 54.9824 7.92261C54.8262 8.04761 54.7051 8.27417 54.6191 8.60229C54.5059 9.02808 54.4492 9.74487 54.4492 10.7527C54.4492 11.7605 54.5 12.4539 54.6016 12.8328C54.7031 13.2078 54.8301 13.4578 54.9824 13.5828C55.1387 13.7078 55.3164 13.7703 55.5156 13.7703C55.7148 13.7703 55.8926 13.7078 56.0488 13.5828C56.2051 13.4539 56.3262 13.2253 56.4121 12.8972C56.5254 12.4753 56.582 11.7605 56.582 10.7527C56.582 9.74487 56.5312 9.05347 56.4297 8.67847C56.3281 8.29956 56.1992 8.04761 56.043 7.92261C55.8906 7.7937 55.7148 7.72925 55.5156 7.72925ZM15.9238 24.6062L14.3008 24.8992C14.2461 24.575 14.1211 24.3308 13.9258 24.1667C13.7344 24.0027 13.4844 23.9207 13.1758 23.9207C12.7656 23.9207 12.4375 24.0632 12.1914 24.3484C11.9492 24.6296 11.8281 25.1023 11.8281 25.7664C11.8281 26.5046 11.9512 27.0261 12.1973 27.3308C12.4473 27.6355 12.7812 27.7878 13.1992 27.7878C13.5117 27.7878 13.7676 27.7 13.9668 27.5242C14.166 27.3445 14.3066 27.0378 14.3887 26.6042L16.0059 26.8796C15.8379 27.6218 15.5156 28.1824 15.0391 28.5613C14.5625 28.9402 13.9238 29.1296 13.123 29.1296C12.2129 29.1296 11.4863 28.8425 10.9434 28.2683C10.4043 27.6941 10.1348 26.8992 10.1348 25.8835C10.1348 24.8562 10.4062 24.0574 10.9492 23.4871C11.4922 22.9128 12.2266 22.6257 13.1523 22.6257C13.9102 22.6257 14.5117 22.7898 14.957 23.1179C15.4062 23.4421 15.7285 23.9382 15.9238 24.6062ZM16.7969 25.7898C16.7969 25.2429 16.9316 24.7136 17.2012 24.2019C17.4707 23.6902 17.8516 23.2996 18.3438 23.03C18.8398 22.7605 19.3926 22.6257 20.002 22.6257C20.9434 22.6257 21.7148 22.9324 22.3164 23.5457C22.918 24.155 23.2188 24.9265 23.2188 25.8601C23.2188 26.8015 22.9141 27.5828 22.3047 28.2039C21.6992 28.821 20.9355 29.1296 20.0137 29.1296C19.4434 29.1296 18.8984 29.0007 18.3789 28.7429C17.8633 28.4851 17.4707 28.1082 17.2012 27.6121C16.9316 27.1121 16.7969 26.5046 16.7969 25.7898ZM18.4844 25.8777C18.4844 26.4949 18.6309 26.9675 18.9238 27.2957C19.2168 27.6238 19.5781 27.7878 20.0078 27.7878C20.4375 27.7878 20.7969 27.6238 21.0859 27.2957C21.3789 26.9675 21.5254 26.491 21.5254 25.866C21.5254 25.2566 21.3789 24.7878 21.0859 24.4597C20.7969 24.1316 20.4375 23.9675 20.0078 23.9675C19.5781 23.9675 19.2168 24.1316 18.9238 24.4597C18.6309 24.7878 18.4844 25.2605 18.4844 25.8777ZM24.3906 22.7664H25.9082V23.616C26.4512 22.9558 27.0977 22.6257 27.8477 22.6257C28.2461 22.6257 28.5918 22.7078 28.8848 22.8718C29.1777 23.0359 29.418 23.2839 29.6055 23.616C29.8789 23.2839 30.1738 23.0359 30.4902 22.8718C30.8066 22.7078 31.1445 22.6257 31.5039 22.6257C31.9609 22.6257 32.3477 22.7195 32.6641 22.907C32.9805 23.0906 33.2168 23.3621 33.373 23.7214C33.4863 23.9871 33.543 24.4167 33.543 25.0105V28.989H31.8965V25.4324C31.8965 24.8152 31.8398 24.4167 31.7266 24.2371C31.5742 24.0027 31.3398 23.8855 31.0234 23.8855C30.793 23.8855 30.5762 23.9558 30.373 24.0964C30.1699 24.2371 30.0234 24.4441 29.9336 24.7175C29.8438 24.9871 29.7988 25.4148 29.7988 26.0007V28.989H28.1523V25.5789C28.1523 24.9734 28.123 24.5828 28.0645 24.407C28.0059 24.2312 27.9141 24.1003 27.7891 24.0144C27.668 23.9285 27.502 23.8855 27.291 23.8855C27.0371 23.8855 26.8086 23.9539 26.6055 24.0906C26.4023 24.2273 26.2559 24.4246 26.166 24.6824C26.0801 24.9402 26.0371 25.3679 26.0371 25.9656V28.989H24.3906V22.7664ZM35.1426 22.7664H36.6777V23.6804C36.877 23.3679 37.1465 23.114 37.4863 22.9187C37.8262 22.7234 38.2031 22.6257 38.6172 22.6257C39.3398 22.6257 39.9531 22.9089 40.457 23.4753C40.9609 24.0417 41.2129 24.8308 41.2129 25.8425C41.2129 26.8816 40.959 27.6902 40.4512 28.2683C39.9434 28.8425 39.3281 29.1296 38.6055 29.1296C38.2617 29.1296 37.9492 29.0613 37.668 28.9246C37.3906 28.7878 37.0977 28.5535 36.7891 28.2214V31.3562H35.1426V22.7664ZM36.7715 25.7722C36.7715 26.4714 36.9102 26.989 37.1875 27.325C37.4648 27.657 37.8027 27.823 38.2012 27.823C38.584 27.823 38.9023 27.6707 39.1562 27.366C39.4102 27.0574 39.5371 26.5535 39.5371 25.8542C39.5371 25.2019 39.4062 24.7175 39.1445 24.4011C38.8828 24.0847 38.5586 23.9265 38.1719 23.9265C37.7695 23.9265 37.4355 24.0828 37.1699 24.3953C36.9043 24.7039 36.7715 25.1628 36.7715 25.7722ZM42.5254 28.989V20.3992H44.1719V28.989H42.5254ZM49.4688 27.0085L51.1094 27.2839C50.8984 27.8855 50.5645 28.3445 50.1074 28.6609C49.6543 28.9734 49.0859 29.1296 48.4023 29.1296C47.3203 29.1296 46.5195 28.7761 46 28.0691C45.5898 27.5027 45.3848 26.7878 45.3848 25.9246C45.3848 24.8933 45.6543 24.0867 46.1934 23.5046C46.7324 22.9187 47.4141 22.6257 48.2383 22.6257C49.1641 22.6257 49.8945 22.9324 50.4297 23.5457C50.9648 24.155 51.2207 25.0906 51.1973 26.3523H47.0723C47.084 26.8406 47.2168 27.2214 47.4707 27.4949C47.7246 27.7644 48.041 27.8992 48.4199 27.8992C48.6777 27.8992 48.8945 27.8289 49.0703 27.6882C49.2461 27.5476 49.3789 27.321 49.4688 27.0085ZM49.5625 25.3445C49.5508 24.8679 49.4277 24.5066 49.1934 24.2605C48.959 24.0105 48.6738 23.8855 48.3379 23.8855C47.9785 23.8855 47.6816 24.0164 47.4473 24.2781C47.2129 24.5398 47.0977 24.8953 47.1016 25.3445H49.5625ZM51.7539 28.989L53.998 25.7839L51.8477 22.7664H53.8574L54.959 24.4773L56.1191 22.7664H58.0527L55.9434 25.7136L58.2461 28.989H56.2246L54.959 27.0613L53.6816 28.989H51.7539Z" fill="white"/>
<defs>
<linearGradient id="paint0_linear_83_1994" x1="34" y1="1.98901" x2="34" y2="33.989" gradientUnits="userSpaceOnUse">
<stop stop-color="#092754"/>
<stop offset="1" stop-color="#A3C8FF"/>
</linearGradient>
</defs>
</svg>
