<svg width="49" height="24" viewBox="0 0 49 24" fill="none" xmlns="http://www.w3.org/2000/svg">
<rect x="2" y="1.98901" width="46" height="20" rx="10" fill="url(#paint0_linear_64_1974)"/>
<rect x="2" y="1.98901" width="46" height="20" rx="10" stroke="#537BFF" stroke-width="3" stroke-linejoin="round"/>
<path d="M10.1934 15.989V7.39917H12.9766C14.0312 7.39917 14.7188 7.44214 15.0391 7.52808C15.5312 7.65698 15.9434 7.93823 16.2754 8.37183C16.6074 8.80151 16.7734 9.35815 16.7734 10.0417C16.7734 10.5691 16.6777 11.0125 16.4863 11.3718C16.2949 11.7312 16.0508 12.0144 15.7539 12.2214C15.4609 12.4246 15.1621 12.5593 14.8574 12.6257C14.4434 12.7078 13.8438 12.7488 13.0586 12.7488H11.9277V15.989H10.1934ZM11.9277 8.85229V11.2898H12.877C13.5605 11.2898 14.0176 11.2449 14.248 11.155C14.4785 11.0652 14.6582 10.9246 14.7871 10.7332C14.9199 10.5417 14.9863 10.3191 14.9863 10.0652C14.9863 9.75269 14.8945 9.49487 14.7109 9.29175C14.5273 9.08862 14.2949 8.96167 14.0137 8.91089C13.8066 8.87183 13.3906 8.85229 12.7656 8.85229H11.9277ZM18.1914 7.39917H21.3613C22.0762 7.39917 22.6211 7.45386 22.9961 7.56323C23.5 7.71167 23.9316 7.97534 24.291 8.35425C24.6504 8.73315 24.9238 9.198 25.1113 9.74878C25.2988 10.2957 25.3926 10.9714 25.3926 11.7761C25.3926 12.4832 25.3047 13.0925 25.1289 13.6042C24.9141 14.2292 24.6074 14.7351 24.209 15.1218C23.9082 15.4148 23.502 15.6433 22.9902 15.8074C22.6074 15.9285 22.0957 15.989 21.4551 15.989H18.1914V7.39917ZM19.9258 8.85229V14.5417H21.2207C21.7051 14.5417 22.0547 14.5144 22.2695 14.4597C22.5508 14.3894 22.7832 14.2703 22.9668 14.1023C23.1543 13.9343 23.3066 13.6589 23.4238 13.2761C23.541 12.8894 23.5996 12.364 23.5996 11.7C23.5996 11.0359 23.541 10.5261 23.4238 10.1707C23.3066 9.81519 23.1426 9.53784 22.9316 9.33862C22.7207 9.1394 22.4531 9.00464 22.1289 8.93433C21.8867 8.87964 21.4121 8.85229 20.7051 8.85229H19.9258ZM26.8691 15.989V7.39917H33.2383V8.85229H28.6035V10.7566H32.916V12.2039H28.6035V14.5417H33.4023V15.989H26.8691ZM40.0879 9.50269L38.4941 9.67847C38.4551 9.35034 38.3535 9.10815 38.1895 8.9519C38.0254 8.79565 37.8125 8.71753 37.5508 8.71753C37.2031 8.71753 36.9082 8.87378 36.666 9.18628C36.4277 9.49878 36.2773 10.1492 36.2148 11.1375C36.625 10.6531 37.1348 10.4109 37.7441 10.4109C38.4316 10.4109 39.0195 10.6726 39.5078 11.196C40 11.7195 40.2461 12.3953 40.2461 13.2234C40.2461 14.1023 39.9883 14.8074 39.4727 15.3386C38.957 15.8699 38.2949 16.1355 37.4863 16.1355C36.6191 16.1355 35.9062 15.7996 35.3477 15.1277C34.7891 14.4519 34.5098 13.3464 34.5098 11.8113C34.5098 10.2371 34.8008 9.10229 35.3828 8.40698C35.9648 7.71167 36.7207 7.36401 37.6504 7.36401C38.3027 7.36401 38.8418 7.54761 39.2676 7.91479C39.6973 8.27808 39.9707 8.80737 40.0879 9.50269ZM36.3555 13.0945C36.3555 13.6296 36.4785 14.0437 36.7246 14.3367C36.9707 14.6257 37.252 14.7703 37.5684 14.7703C37.873 14.7703 38.127 14.6511 38.3301 14.4128C38.5332 14.1746 38.6348 13.7839 38.6348 13.241C38.6348 12.6824 38.5254 12.2742 38.3066 12.0164C38.0879 11.7546 37.8145 11.6238 37.4863 11.6238C37.1699 11.6238 36.9023 11.7488 36.6836 11.9988C36.4648 12.2449 36.3555 12.6101 36.3555 13.0945Z" fill="white"/>
<defs>
<linearGradient id="paint0_linear_64_1974" x1="25" y1="1.98901" x2="25" y2="21.989" gradientUnits="userSpaceOnUse">
<stop stop-color="#CCB2E7"/>
<stop offset="1" stop-color="#537BFF"/>
</linearGradient>
</defs>
</svg>
