<svg width="40" height="40" viewBox="0 0 40 40" fill="none" xmlns="http://www.w3.org/2000/svg">
<path d="M19.9843 1.48901C30.3188 1.48925 38.7264 9.89738 38.7264 20.2332C38.7262 30.5688 30.3186 38.9751 19.9843 38.9753C9.64848 38.9753 1.24035 30.5677 1.24011 20.2332C1.24011 9.89833 9.64819 1.48901 19.9843 1.48901Z" fill="url(#paint0_radial_89_4114)" stroke="#4F150E"/>
<path d="M7.5603 23.989V15.3992H9.29468V23.989H7.5603ZM10.9998 23.989V15.4695H12.7341V22.5417H17.0466V23.989H10.9998ZM22.1384 23.989H20.4919V17.7839C19.8904 18.3464 19.1814 18.7625 18.365 19.032V17.5378C18.7947 17.3972 19.2615 17.1316 19.7654 16.741C20.2693 16.3464 20.615 15.8875 20.8025 15.364H22.1384V23.989ZM27.3884 15.364C28.2205 15.364 28.8708 15.6609 29.3396 16.2546C29.8982 16.9578 30.1775 18.1238 30.1775 19.7527C30.1775 21.3777 29.8962 22.5457 29.3337 23.2566C28.8689 23.8425 28.2205 24.1355 27.3884 24.1355C26.5525 24.1355 25.8787 23.8152 25.3669 23.1746C24.8552 22.53 24.5994 21.3835 24.5994 19.7351C24.5994 18.1179 24.8806 16.9539 25.4431 16.2429C25.908 15.657 26.5564 15.364 27.3884 15.364ZM27.3884 16.7292C27.1892 16.7292 27.0115 16.7937 26.8552 16.9226C26.699 17.0476 26.5779 17.2742 26.4919 17.6023C26.3787 18.0281 26.322 18.7449 26.322 19.7527C26.322 20.7605 26.3728 21.4539 26.4744 21.8328C26.5759 22.2078 26.7029 22.4578 26.8552 22.5828C27.0115 22.7078 27.1892 22.7703 27.3884 22.7703C27.5876 22.7703 27.7654 22.7078 27.9216 22.5828C28.0779 22.4539 28.199 22.2253 28.2849 21.8972C28.3982 21.4753 28.4548 20.7605 28.4548 19.7527C28.4548 18.7449 28.4041 18.0535 28.3025 17.6785C28.2009 17.2996 28.072 17.0476 27.9158 16.9226C27.7634 16.7937 27.5876 16.7292 27.3884 16.7292Z" fill="white"/>
<defs>
<radialGradient id="paint0_radial_89_4114" cx="0" cy="0" r="1" gradientUnits="userSpaceOnUse" gradientTransform="translate(12.0294 10.7757) rotate(180) scale(17.472)">
<stop stop-color="#E3886D"/>
<stop offset="0.0107" stop-color="#DF856C"/>
<stop offset="0.0992" stop-color="#C26E67"/>
<stop offset="0.1982" stop-color="#AB5C63"/>
<stop offset="0.3108" stop-color="#984E5F"/>
<stop offset="0.4446" stop-color="#8C435D"/>
<stop offset="0.6203" stop-color="#843E5B"/>
<stop offset="0.9995" stop-color="#823C5B"/>
</radialGradient>
</defs>
</svg>
