<svg width="60" height="24" viewBox="0 0 60 24" fill="none" xmlns="http://www.w3.org/2000/svg">
<rect x="2" y="1.98901" width="57" height="20" rx="10" fill="url(#paint0_linear_40_2580)"/>
<rect x="2" y="1.98901" width="57" height="20" rx="10" stroke="#2DB390" stroke-width="3" stroke-linejoin="round"/>
<path d="M10.0215 7.39917H13.1914C13.9062 7.39917 14.4512 7.45386 14.8262 7.56323C15.3301 7.71167 15.7617 7.97534 16.1211 8.35425C16.4805 8.73315 16.7539 9.198 16.9414 9.74878C17.1289 10.2957 17.2227 10.9714 17.2227 11.7761C17.2227 12.4832 17.1348 13.0925 16.959 13.6042C16.7441 14.2292 16.4375 14.7351 16.0391 15.1218C15.7383 15.4148 15.332 15.6433 14.8203 15.8074C14.4375 15.9285 13.9258 15.989 13.2852 15.989H10.0215V7.39917ZM11.7559 8.85229V14.5417H13.0508C13.5352 14.5417 13.8848 14.5144 14.0996 14.4597C14.3809 14.3894 14.6133 14.2703 14.7969 14.1023C14.9844 13.9343 15.1367 13.6589 15.2539 13.2761C15.3711 12.8894 15.4297 12.364 15.4297 11.7C15.4297 11.0359 15.3711 10.5261 15.2539 10.1707C15.1367 9.81519 14.9727 9.53784 14.7617 9.33862C14.5508 9.1394 14.2832 9.00464 13.959 8.93433C13.7168 8.87964 13.2422 8.85229 12.5352 8.85229H11.7559ZM18.7051 15.989V7.39917H20.4395V10.78H23.8379V7.39917H25.5723V15.989H23.8379V12.2332H20.4395V15.989H18.7051ZM27.3652 7.39917H30.5352C31.25 7.39917 31.7949 7.45386 32.1699 7.56323C32.6738 7.71167 33.1055 7.97534 33.4648 8.35425C33.8242 8.73315 34.0977 9.198 34.2852 9.74878C34.4727 10.2957 34.5664 10.9714 34.5664 11.7761C34.5664 12.4832 34.4785 13.0925 34.3027 13.6042C34.0879 14.2292 33.7812 14.7351 33.3828 15.1218C33.082 15.4148 32.6758 15.6433 32.1641 15.8074C31.7812 15.9285 31.2695 15.989 30.6289 15.989H27.3652V7.39917ZM29.0996 8.85229V14.5417H30.3945C30.8789 14.5417 31.2285 14.5144 31.4434 14.4597C31.7246 14.3894 31.957 14.2703 32.1406 14.1023C32.3281 13.9343 32.4805 13.6589 32.5977 13.2761C32.7148 12.8894 32.7734 12.364 32.7734 11.7C32.7734 11.0359 32.7148 10.5261 32.5977 10.1707C32.4805 9.81519 32.3164 9.53784 32.1055 9.33862C31.8945 9.1394 31.627 9.00464 31.3027 8.93433C31.0605 8.87964 30.5859 8.85229 29.8789 8.85229H29.0996ZM36.0371 7.39917H39.207C39.9219 7.39917 40.4668 7.45386 40.8418 7.56323C41.3457 7.71167 41.7773 7.97534 42.1367 8.35425C42.4961 8.73315 42.7695 9.198 42.957 9.74878C43.1445 10.2957 43.2383 10.9714 43.2383 11.7761C43.2383 12.4832 43.1504 13.0925 42.9746 13.6042C42.7598 14.2292 42.4531 14.7351 42.0547 15.1218C41.7539 15.4148 41.3477 15.6433 40.8359 15.8074C40.4531 15.9285 39.9414 15.989 39.3008 15.989H36.0371V7.39917ZM37.7715 8.85229V14.5417H39.0664C39.5508 14.5417 39.9004 14.5144 40.1152 14.4597C40.3965 14.3894 40.6289 14.2703 40.8125 14.1023C41 13.9343 41.1523 13.6589 41.2695 13.2761C41.3867 12.8894 41.4453 12.364 41.4453 11.7C41.4453 11.0359 41.3867 10.5261 41.2695 10.1707C41.1523 9.81519 40.9883 9.53784 40.7773 9.33862C40.5664 9.1394 40.2988 9.00464 39.9746 8.93433C39.7324 8.87964 39.2578 8.85229 38.5508 8.85229H37.7715ZM44.2754 13.1941L45.9629 13.03C46.0645 13.5964 46.2695 14.0125 46.5781 14.2781C46.8906 14.5437 47.3105 14.6765 47.8379 14.6765C48.3965 14.6765 48.8164 14.5593 49.0977 14.325C49.3828 14.0867 49.5254 13.8093 49.5254 13.4929C49.5254 13.2898 49.4648 13.1179 49.3438 12.9773C49.2266 12.8328 49.0195 12.7078 48.7227 12.6023C48.5195 12.532 48.0566 12.407 47.334 12.2273C46.4043 11.9968 45.752 11.7136 45.377 11.3777C44.8496 10.905 44.5859 10.3289 44.5859 9.64917C44.5859 9.21167 44.709 8.80347 44.9551 8.42456C45.2051 8.04175 45.5625 7.75073 46.0273 7.55151C46.4961 7.35229 47.0605 7.25269 47.7207 7.25269C48.7988 7.25269 49.6094 7.48901 50.1523 7.96167C50.6992 8.43433 50.9863 9.06519 51.0137 9.85425L49.2793 9.93042C49.2051 9.48901 49.0449 9.17261 48.7988 8.9812C48.5566 8.78589 48.1914 8.68823 47.7031 8.68823C47.1992 8.68823 46.8047 8.79175 46.5195 8.99878C46.3359 9.13159 46.2441 9.30933 46.2441 9.53198C46.2441 9.73511 46.3301 9.90894 46.502 10.0535C46.7207 10.2371 47.252 10.4285 48.0957 10.6277C48.9395 10.8269 49.5625 11.0339 49.9648 11.2488C50.3711 11.4597 50.6875 11.7507 50.9141 12.1218C51.1445 12.489 51.2598 12.9441 51.2598 13.4871C51.2598 13.9792 51.123 14.4402 50.8496 14.8699C50.5762 15.2996 50.1895 15.6199 49.6895 15.8308C49.1895 16.0378 48.5664 16.1414 47.8203 16.1414C46.7344 16.1414 45.9004 15.8914 45.3184 15.3914C44.7363 14.8875 44.3887 14.155 44.2754 13.1941Z" fill="white"/>
<defs>
<linearGradient id="paint0_linear_40_2580" x1="30.5" y1="1.98901" x2="30.5" y2="21.989" gradientUnits="userSpaceOnUse">
<stop stop-color="#C84DB0"/>
<stop offset="1" stop-color="#2DB390"/>
</linearGradient>
</defs>
</svg>
