<svg width="42" height="24" viewBox="0 0 42 24" fill="none" xmlns="http://www.w3.org/2000/svg">
<rect x="2" y="1.98901" width="39" height="20" rx="10" fill="#AA2ABC"/>
<rect x="2" y="1.98901" width="39" height="20" rx="10" stroke="#3F1741" stroke-width="3" stroke-linejoin="round"/>
<path d="M17.7793 15.989H15.8926L15.1426 14.0378H11.709L11 15.989H9.16016L12.5059 7.39917H14.3398L17.7793 15.989ZM14.5859 12.5906L13.4023 9.40308L12.2422 12.5906H14.5859ZM18.7285 15.989V7.39917H20.4629V11.2136L23.9668 7.39917H26.2988L23.0645 10.7449L26.4746 15.989H24.2305L21.8691 11.9578L20.4629 13.3933V15.989H18.7285ZM29.3105 15.989V8.85229H26.7617V7.39917H33.5879V8.85229H31.0449V15.989H29.3105Z" fill="white"/>
</svg>
