<svg width="65" height="24" viewBox="0 0 65 24" fill="none" xmlns="http://www.w3.org/2000/svg">
<rect x="2" y="1.98901" width="62" height="20" rx="10" fill="url(#paint0_linear_64_1979)"/>
<rect x="2" y="1.98901" width="62" height="20" rx="10" stroke="#6F8E00" stroke-width="3" stroke-linejoin="round"/>
<path d="M10.1895 15.989V7.39917H12.9727C14.0273 7.39917 14.7148 7.44214 15.0352 7.52808C15.5273 7.65698 15.9395 7.93823 16.2715 8.37183C16.6035 8.80151 16.7695 9.35815 16.7695 10.0417C16.7695 10.5691 16.6738 11.0125 16.4824 11.3718C16.291 11.7312 16.0469 12.0144 15.75 12.2214C15.457 12.4246 15.1582 12.5593 14.8535 12.6257C14.4395 12.7078 13.8398 12.7488 13.0547 12.7488H11.9238V15.989H10.1895ZM11.9238 8.85229V11.2898H12.873C13.5566 11.2898 14.0137 11.2449 14.2441 11.155C14.4746 11.0652 14.6543 10.9246 14.7832 10.7332C14.916 10.5417 14.9824 10.3191 14.9824 10.0652C14.9824 9.75269 14.8906 9.49487 14.707 9.29175C14.5234 9.08862 14.291 8.96167 14.0098 8.91089C13.8027 8.87183 13.3867 8.85229 12.7617 8.85229H11.9238ZM17.8418 11.7468C17.8418 10.8718 17.9727 10.1375 18.2344 9.5437C18.4297 9.1062 18.6953 8.71362 19.0312 8.36597C19.3711 8.01831 19.7422 7.7605 20.1445 7.59253C20.6797 7.36597 21.2969 7.25269 21.9961 7.25269C23.2617 7.25269 24.2734 7.64526 25.0312 8.43042C25.793 9.21558 26.1738 10.3074 26.1738 11.7058C26.1738 13.0925 25.7969 14.1785 25.043 14.9636C24.2891 15.7449 23.2812 16.1355 22.0195 16.1355C20.7422 16.1355 19.7266 15.7468 18.9727 14.9695C18.2188 14.1882 17.8418 13.114 17.8418 11.7468ZM19.6289 11.6882C19.6289 12.6609 19.8535 13.3992 20.3027 13.9031C20.752 14.4031 21.3223 14.6531 22.0137 14.6531C22.7051 14.6531 23.2715 14.405 23.7129 13.9089C24.1582 13.4089 24.3809 12.6609 24.3809 11.6648C24.3809 10.6804 24.1641 9.94604 23.7305 9.46167C23.3008 8.97729 22.7285 8.73511 22.0137 8.73511C21.2988 8.73511 20.7227 8.9812 20.2852 9.47339C19.8477 9.96167 19.6289 10.7 19.6289 11.6882ZM27.5449 15.989V7.39917H33.4336V8.85229H29.2793V10.8855H32.8652V12.3386H29.2793V15.989H27.5449ZM34.8574 7.39917H36.5918V12.0515C36.5918 12.7898 36.6133 13.2683 36.6562 13.4871C36.7305 13.8386 36.9062 14.1218 37.1836 14.3367C37.4648 14.5476 37.8477 14.6531 38.332 14.6531C38.8242 14.6531 39.1953 14.5535 39.4453 14.3542C39.6953 14.1511 39.8457 13.9031 39.8965 13.6101C39.9473 13.3171 39.9727 12.8308 39.9727 12.1511V7.39917H41.707V11.9109C41.707 12.9421 41.6602 13.6707 41.5664 14.0964C41.4727 14.5222 41.2988 14.8816 41.0449 15.1746C40.7949 15.4675 40.459 15.7019 40.0371 15.8777C39.6152 16.0496 39.0645 16.1355 38.3848 16.1355C37.5645 16.1355 36.9414 16.0417 36.5156 15.8542C36.0938 15.6628 35.7598 15.4167 35.5137 15.116C35.2676 14.8113 35.1055 14.4929 35.0273 14.1609C34.9141 13.6687 34.8574 12.9421 34.8574 11.9812V7.39917ZM45.4746 15.989V8.85229H42.9258V7.39917H49.752V8.85229H47.209V15.989H45.4746ZM54.7266 15.989H53.0801V9.78394C52.4785 10.3464 51.7695 10.7625 50.9531 11.032V9.53784C51.3828 9.39722 51.8496 9.13159 52.3535 8.74097C52.8574 8.34644 53.2031 7.88745 53.3906 7.36401H54.7266V15.989Z" fill="white"/>
<defs>
<linearGradient id="paint0_linear_64_1979" x1="33" y1="1.98901" x2="33" y2="21.989" gradientUnits="userSpaceOnUse">
<stop stop-color="#6F8E00"/>
<stop offset="1" stop-color="#A34DB4"/>
</linearGradient>
</defs>
</svg>
