<svg width="50" height="24" viewBox="0 0 50 24" fill="none" xmlns="http://www.w3.org/2000/svg">
<rect x="2" y="1.98901" width="47" height="20" rx="10" fill="url(#paint0_linear_40_2575)"/>
<rect x="2" y="1.98901" width="47" height="20" rx="10" stroke="#009A86" stroke-width="3" stroke-linejoin="round"/>
<path d="M10.0195 7.39917H13.1895C13.9043 7.39917 14.4492 7.45386 14.8242 7.56323C15.3281 7.71167 15.7598 7.97534 16.1191 8.35425C16.4785 8.73315 16.752 9.198 16.9395 9.74878C17.127 10.2957 17.2207 10.9714 17.2207 11.7761C17.2207 12.4832 17.1328 13.0925 16.957 13.6042C16.7422 14.2292 16.4355 14.7351 16.0371 15.1218C15.7363 15.4148 15.3301 15.6433 14.8184 15.8074C14.4355 15.9285 13.9238 15.989 13.2832 15.989H10.0195V7.39917ZM11.7539 8.85229V14.5417H13.0488C13.5332 14.5417 13.8828 14.5144 14.0977 14.4597C14.3789 14.3894 14.6113 14.2703 14.7949 14.1023C14.9824 13.9343 15.1348 13.6589 15.252 13.2761C15.3691 12.8894 15.4277 12.364 15.4277 11.7C15.4277 11.0359 15.3691 10.5261 15.252 10.1707C15.1348 9.81519 14.9707 9.53784 14.7598 9.33862C14.5488 9.1394 14.2812 9.00464 13.957 8.93433C13.7148 8.87964 13.2402 8.85229 12.5332 8.85229H11.7539ZM18.7207 15.989V7.39917H20.4551V11.2136L23.959 7.39917H26.291L23.0566 10.7449L26.4668 15.989H24.2227L21.8613 11.9578L20.4551 13.3933V15.989H18.7207ZM27.3926 15.989V7.39917H29.127V11.2136L32.6309 7.39917H34.9629L31.7285 10.7449L35.1387 15.989H32.8945L30.5332 11.9578L29.127 13.3933V15.989H27.3926ZM39.8906 15.989H38.2441V9.78394C37.6426 10.3464 36.9336 10.7625 36.1172 11.032V9.53784C36.5469 9.39722 37.0137 9.13159 37.5176 8.74097C38.0215 8.34644 38.3672 7.88745 38.5547 7.36401H39.8906V15.989Z" fill="white"/>
<defs>
<linearGradient id="paint0_linear_40_2575" x1="25.5" y1="1.98901" x2="25.5" y2="21.989" gradientUnits="userSpaceOnUse">
<stop stop-color="#CBA779"/>
<stop offset="1" stop-color="#009A86"/>
</linearGradient>
</defs>
</svg>
