<svg width="41" height="24" viewBox="0 0 41 24" fill="none" xmlns="http://www.w3.org/2000/svg">
<rect x="2" y="1.98901" width="38" height="20" rx="10" fill="url(#paint0_linear_64_1889)"/>
<rect x="2" y="1.98901" width="38" height="20" rx="10" stroke="#00A2B7" stroke-width="3" stroke-linejoin="round"/>
<path d="M10.2129 15.989V7.39917H11.9004L15.416 13.1355V7.39917H17.0273V15.989H15.2871L11.8242 10.3875V15.989H10.2129ZM18.4277 13.1941L20.1152 13.03C20.2168 13.5964 20.4219 14.0125 20.7305 14.2781C21.043 14.5437 21.4629 14.6765 21.9902 14.6765C22.5488 14.6765 22.9688 14.5593 23.25 14.325C23.5352 14.0867 23.6777 13.8093 23.6777 13.4929C23.6777 13.2898 23.6172 13.1179 23.4961 12.9773C23.3789 12.8328 23.1719 12.7078 22.875 12.6023C22.6719 12.532 22.209 12.407 21.4863 12.2273C20.5566 11.9968 19.9043 11.7136 19.5293 11.3777C19.002 10.905 18.7383 10.3289 18.7383 9.64917C18.7383 9.21167 18.8613 8.80347 19.1074 8.42456C19.3574 8.04175 19.7148 7.75073 20.1797 7.55151C20.6484 7.35229 21.2129 7.25269 21.873 7.25269C22.9512 7.25269 23.7617 7.48901 24.3047 7.96167C24.8516 8.43433 25.1387 9.06519 25.166 9.85425L23.4316 9.93042C23.3574 9.48901 23.1973 9.17261 22.9512 8.9812C22.709 8.78589 22.3438 8.68823 21.8555 8.68823C21.3516 8.68823 20.957 8.79175 20.6719 8.99878C20.4883 9.13159 20.3965 9.30933 20.3965 9.53198C20.3965 9.73511 20.4824 9.90894 20.6543 10.0535C20.873 10.2371 21.4043 10.4285 22.248 10.6277C23.0918 10.8269 23.7148 11.0339 24.1172 11.2488C24.5234 11.4597 24.8398 11.7507 25.0664 12.1218C25.2969 12.489 25.4121 12.9441 25.4121 13.4871C25.4121 13.9792 25.2754 14.4402 25.002 14.8699C24.7285 15.2996 24.3418 15.6199 23.8418 15.8308C23.3418 16.0378 22.7188 16.1414 21.9727 16.1414C20.8867 16.1414 20.0527 15.8914 19.4707 15.3914C18.8887 14.8875 18.541 14.155 18.4277 13.1941ZM26.5312 13.78L28.1719 13.6101C28.2188 13.9812 28.3574 14.2761 28.5879 14.4949C28.8184 14.7097 29.084 14.8171 29.3848 14.8171C29.7285 14.8171 30.0195 14.6785 30.2578 14.4011C30.4961 14.1199 30.6152 13.698 30.6152 13.1355C30.6152 12.6082 30.4961 12.2136 30.2578 11.9519C30.0234 11.6863 29.7168 11.5535 29.3379 11.5535C28.8652 11.5535 28.4414 11.7625 28.0664 12.1804L26.7305 11.9871L27.5742 7.51636H31.9277V9.05737H28.8223L28.5645 10.5164C28.9316 10.3328 29.3066 10.241 29.6895 10.241C30.4199 10.241 31.0391 10.5066 31.5469 11.0378C32.0547 11.5691 32.3086 12.2585 32.3086 13.1062C32.3086 13.8132 32.1035 14.4441 31.6934 14.9988C31.1348 15.7566 30.3594 16.1355 29.3672 16.1355C28.5742 16.1355 27.9277 15.9226 27.4277 15.4968C26.9277 15.071 26.6289 14.4988 26.5312 13.78Z" fill="white"/>
<defs>
<linearGradient id="paint0_linear_64_1889" x1="21" y1="1.98901" x2="21" y2="21.989" gradientUnits="userSpaceOnUse">
<stop stop-color="#D3C6CC"/>
<stop offset="1" stop-color="#00A2B7"/>
</linearGradient>
</defs>
</svg>
