<svg width="54" height="24" viewBox="0 0 54 24" fill="none" xmlns="http://www.w3.org/2000/svg">
<rect x="2" y="1.98901" width="51" height="20" rx="10" fill="url(#paint0_linear_45_4253)"/>
<rect x="2" y="1.98901" width="51" height="20" rx="10" stroke="#FFC900" stroke-width="3" stroke-linejoin="round"/>
<path d="M14.0117 12.8308V11.3835H17.75V14.8054C17.3867 15.157 16.8594 15.4675 16.168 15.7371C15.4805 16.0027 14.7832 16.1355 14.0762 16.1355C13.1777 16.1355 12.3945 15.948 11.7266 15.573C11.0586 15.1941 10.5566 14.655 10.2207 13.9558C9.88477 13.2527 9.7168 12.489 9.7168 11.6648C9.7168 10.7703 9.9043 9.97534 10.2793 9.28003C10.6543 8.58472 11.2031 8.05151 11.9258 7.68042C12.4766 7.39526 13.1621 7.25269 13.9824 7.25269C15.0488 7.25269 15.8809 7.47729 16.4785 7.92651C17.0801 8.37183 17.4668 8.98901 17.6387 9.77808L15.916 10.1003C15.7949 9.67847 15.5664 9.34644 15.2305 9.10425C14.8984 8.85815 14.4824 8.73511 13.9824 8.73511C13.2246 8.73511 12.6211 8.97534 12.1719 9.45581C11.7266 9.93628 11.5039 10.6492 11.5039 11.5945C11.5039 12.614 11.7305 13.3796 12.1836 13.8914C12.6367 14.3992 13.2305 14.6531 13.9648 14.6531C14.3281 14.6531 14.6914 14.5828 15.0547 14.4421C15.4219 14.2976 15.7363 14.1238 15.998 13.9207V12.8308H14.0117ZM19.4023 15.989V7.46948H21.1367V14.5417H25.4492V15.989H19.4023ZM26.6387 15.989V7.39917H28.373V15.989H26.6387ZM35.2285 14.4597V15.989H29.457C29.5195 15.4109 29.707 14.864 30.0195 14.3484C30.332 13.8289 30.9492 13.1414 31.8711 12.2859C32.6133 11.5945 33.0684 11.1257 33.2363 10.8796C33.4629 10.5398 33.5762 10.2039 33.5762 9.87183C33.5762 9.50464 33.4766 9.22339 33.2773 9.02808C33.082 8.82886 32.8105 8.72925 32.4629 8.72925C32.1191 8.72925 31.8457 8.83276 31.6426 9.03979C31.4395 9.24683 31.3223 9.59058 31.291 10.071L29.6504 9.90698C29.748 9.00073 30.0547 8.35034 30.5703 7.95581C31.0859 7.56128 31.7305 7.36401 32.5039 7.36401C33.3516 7.36401 34.0176 7.59253 34.502 8.04956C34.9863 8.50659 35.2285 9.07495 35.2285 9.75464C35.2285 10.1414 35.1582 10.5105 35.0176 10.8621C34.8809 11.2097 34.6621 11.575 34.3613 11.9578C34.1621 12.2117 33.8027 12.5769 33.2832 13.0535C32.7637 13.53 32.4336 13.8464 32.293 14.0027C32.1562 14.1589 32.0449 14.3113 31.959 14.4597H35.2285ZM36.6582 14.3425H38.3047V15.5203C38.3047 15.9968 38.2637 16.3718 38.1816 16.6453C38.0996 16.9226 37.9434 17.1707 37.7129 17.3894C37.4863 17.6082 37.1973 17.78 36.8457 17.905L36.5234 17.2253C36.8555 17.116 37.0918 16.9656 37.2324 16.7742C37.373 16.5828 37.4473 16.321 37.4551 15.989H36.6582V14.3425ZM39.6289 13.7097L41.2227 13.5164C41.2734 13.9226 41.4102 14.2332 41.6328 14.448C41.8555 14.6628 42.125 14.7703 42.4414 14.7703C42.7812 14.7703 43.0664 14.6414 43.2969 14.3835C43.5312 14.1257 43.6484 13.7781 43.6484 13.3406C43.6484 12.9265 43.5371 12.5984 43.3145 12.3562C43.0918 12.114 42.8203 11.9929 42.5 11.9929C42.2891 11.9929 42.0371 12.0339 41.7441 12.116L41.9258 10.7742C42.3711 10.7859 42.7109 10.6902 42.9453 10.4871C43.1797 10.28 43.2969 10.0066 43.2969 9.66675C43.2969 9.37769 43.2109 9.14722 43.0391 8.97534C42.8672 8.80347 42.6387 8.71753 42.3535 8.71753C42.0723 8.71753 41.832 8.81519 41.6328 9.0105C41.4336 9.20581 41.3125 9.49097 41.2695 9.86597L39.752 9.60815C39.8574 9.08862 40.0156 8.67456 40.2266 8.36597C40.4414 8.05347 40.7383 7.80933 41.1172 7.63354C41.5 7.45386 41.9277 7.36401 42.4004 7.36401C43.209 7.36401 43.8574 7.62183 44.3457 8.13745C44.748 8.55933 44.9492 9.03589 44.9492 9.56714C44.9492 10.321 44.5371 10.9226 43.7129 11.3718C44.2051 11.4773 44.5977 11.7136 44.8906 12.0808C45.1875 12.448 45.3359 12.8914 45.3359 13.4109C45.3359 14.1648 45.0605 14.8074 44.5098 15.3386C43.959 15.8699 43.2734 16.1355 42.4531 16.1355C41.6758 16.1355 41.0312 15.9128 40.5195 15.4675C40.0078 15.0183 39.7109 14.4324 39.6289 13.7097Z" fill="white"/>
<defs>
<linearGradient id="paint0_linear_45_4253" x1="27.5" y1="1.98901" x2="27.5" y2="21.989" gradientUnits="userSpaceOnUse">
<stop stop-color="#FFC900"/>
<stop offset="1" stop-color="#008CFF"/>
</linearGradient>
</defs>
</svg>
