<svg width="75" height="24" viewBox="0 0 75 24" fill="none" xmlns="http://www.w3.org/2000/svg">
<rect x="1" y="1.98901" width="73" height="20" rx="10" fill="url(#paint0_linear_67_1866)"/>
<rect x="1" y="1.98901" width="73" height="20" rx="10" stroke="#ED65A9" stroke-width="3" stroke-linejoin="round"/>
<path d="M9.35742 15.989V7.39917H13.0078C13.9258 7.39917 14.5918 7.47729 15.0059 7.63354C15.4238 7.78589 15.7578 8.05933 16.0078 8.45386C16.2578 8.84839 16.3828 9.29956 16.3828 9.80737C16.3828 10.4519 16.1934 10.9851 15.8145 11.407C15.4355 11.825 14.8691 12.0886 14.1152 12.198C14.4902 12.4167 14.7988 12.657 15.041 12.9187C15.2871 13.1804 15.6172 13.6453 16.0312 14.3132L17.0801 15.989H15.0059L13.752 14.1199C13.3066 13.4519 13.002 13.032 12.8379 12.8601C12.6738 12.6843 12.5 12.5652 12.3164 12.5027C12.1328 12.4363 11.8418 12.4031 11.4434 12.4031H11.0918V15.989H9.35742ZM11.0918 11.032H12.375C13.207 11.032 13.7266 10.9968 13.9336 10.9265C14.1406 10.8562 14.3027 10.7351 14.4199 10.5632C14.5371 10.3914 14.5957 10.1765 14.5957 9.9187C14.5957 9.62964 14.5176 9.39722 14.3613 9.22144C14.209 9.04175 13.9922 8.92847 13.7109 8.88159C13.5703 8.86206 13.1484 8.85229 12.4453 8.85229H11.0918V11.032ZM18.0293 15.989V7.39917H19.7637V10.78H23.1621V7.39917H24.8965V15.989H23.1621V12.2332H19.7637V15.989H18.0293ZM26.3438 11.7468C26.3438 10.8718 26.4746 10.1375 26.7363 9.5437C26.9316 9.1062 27.1973 8.71362 27.5332 8.36597C27.873 8.01831 28.2441 7.7605 28.6465 7.59253C29.1816 7.36597 29.7988 7.25269 30.498 7.25269C31.7637 7.25269 32.7754 7.64526 33.5332 8.43042C34.2949 9.21558 34.6758 10.3074 34.6758 11.7058C34.6758 13.0925 34.2988 14.1785 33.5449 14.9636C32.791 15.7449 31.7832 16.1355 30.5215 16.1355C29.2441 16.1355 28.2285 15.7468 27.4746 14.9695C26.7207 14.1882 26.3438 13.114 26.3438 11.7468ZM28.1309 11.6882C28.1309 12.6609 28.3555 13.3992 28.8047 13.9031C29.2539 14.4031 29.8242 14.6531 30.5156 14.6531C31.207 14.6531 31.7734 14.405 32.2148 13.9089C32.6602 13.4089 32.8828 12.6609 32.8828 11.6648C32.8828 10.6804 32.666 9.94604 32.2324 9.46167C31.8027 8.97729 31.2305 8.73511 30.5156 8.73511C29.8008 8.73511 29.2246 8.9812 28.7871 9.47339C28.3496 9.96167 28.1309 10.7 28.1309 11.6882ZM36.041 7.39917H39.4746C40.1543 7.39917 40.6602 7.42847 40.9922 7.48706C41.3281 7.54175 41.627 7.65894 41.8887 7.83862C42.1543 8.01831 42.375 8.25854 42.5508 8.55933C42.7266 8.8562 42.8145 9.19019 42.8145 9.56128C42.8145 9.96362 42.7051 10.3328 42.4863 10.6687C42.2715 11.0046 41.9785 11.2566 41.6074 11.4246C42.1309 11.5769 42.5332 11.8367 42.8145 12.2039C43.0957 12.571 43.2363 13.0027 43.2363 13.4988C43.2363 13.8894 43.1445 14.2703 42.9609 14.6414C42.7812 15.0085 42.5332 15.3035 42.2168 15.5261C41.9043 15.7449 41.5176 15.8796 41.0566 15.9304C40.7676 15.9617 40.0703 15.9812 38.9648 15.989H36.041V7.39917ZM37.7754 8.82886V10.8152H38.9121C39.5879 10.8152 40.0078 10.8054 40.1719 10.7859C40.4688 10.7507 40.7012 10.6492 40.8691 10.4812C41.041 10.3093 41.127 10.0847 41.127 9.80737C41.127 9.54175 41.0527 9.3269 40.9043 9.16284C40.7598 8.99487 40.543 8.89331 40.2539 8.85815C40.082 8.83862 39.5879 8.82886 38.7715 8.82886H37.7754ZM37.7754 12.2449V14.5417H39.3809C40.0059 14.5417 40.4023 14.5242 40.5703 14.489C40.8281 14.4421 41.0371 14.3289 41.1973 14.1492C41.3613 13.9656 41.4434 13.7214 41.4434 13.4167C41.4434 13.1589 41.3809 12.9402 41.2559 12.7605C41.1309 12.5808 40.9492 12.45 40.7109 12.3679C40.4766 12.2859 39.9648 12.2449 39.1758 12.2449H37.7754ZM46.6406 15.989V8.85229H44.0918V7.39917H50.918V8.85229H48.375V15.989H46.6406ZM52.0488 7.39917H55.4824C56.1621 7.39917 56.668 7.42847 57 7.48706C57.3359 7.54175 57.6348 7.65894 57.8965 7.83862C58.1621 8.01831 58.3828 8.25854 58.5586 8.55933C58.7344 8.8562 58.8223 9.19019 58.8223 9.56128C58.8223 9.96362 58.7129 10.3328 58.4941 10.6687C58.2793 11.0046 57.9863 11.2566 57.6152 11.4246C58.1387 11.5769 58.541 11.8367 58.8223 12.2039C59.1035 12.571 59.2441 13.0027 59.2441 13.4988C59.2441 13.8894 59.1523 14.2703 58.9688 14.6414C58.7891 15.0085 58.541 15.3035 58.2246 15.5261C57.9121 15.7449 57.5254 15.8796 57.0645 15.9304C56.7754 15.9617 56.0781 15.9812 54.9727 15.989H52.0488V7.39917ZM53.7832 8.82886V10.8152H54.9199C55.5957 10.8152 56.0156 10.8054 56.1797 10.7859C56.4766 10.7507 56.709 10.6492 56.877 10.4812C57.0488 10.3093 57.1348 10.0847 57.1348 9.80737C57.1348 9.54175 57.0605 9.3269 56.9121 9.16284C56.7676 8.99487 56.5508 8.89331 56.2617 8.85815C56.0898 8.83862 55.5957 8.82886 54.7793 8.82886H53.7832ZM53.7832 12.2449V14.5417H55.3887C56.0137 14.5417 56.4102 14.5242 56.5781 14.489C56.8359 14.4421 57.0449 14.3289 57.2051 14.1492C57.3691 13.9656 57.4512 13.7214 57.4512 13.4167C57.4512 13.1589 57.3887 12.9402 57.2637 12.7605C57.1387 12.5808 56.957 12.45 56.7188 12.3679C56.4844 12.2859 55.9727 12.2449 55.1836 12.2449H53.7832ZM60.293 13.7097L61.8867 13.5164C61.9375 13.9226 62.0742 14.2332 62.2969 14.448C62.5195 14.6628 62.7891 14.7703 63.1055 14.7703C63.4453 14.7703 63.7305 14.6414 63.9609 14.3835C64.1953 14.1257 64.3125 13.7781 64.3125 13.3406C64.3125 12.9265 64.2012 12.5984 63.9785 12.3562C63.7559 12.114 63.4844 11.9929 63.1641 11.9929C62.9531 11.9929 62.7012 12.0339 62.4082 12.116L62.5898 10.7742C63.0352 10.7859 63.375 10.6902 63.6094 10.4871C63.8438 10.28 63.9609 10.0066 63.9609 9.66675C63.9609 9.37769 63.875 9.14722 63.7031 8.97534C63.5312 8.80347 63.3027 8.71753 63.0176 8.71753C62.7363 8.71753 62.4961 8.81519 62.2969 9.0105C62.0977 9.20581 61.9766 9.49097 61.9336 9.86597L60.416 9.60815C60.5215 9.08862 60.6797 8.67456 60.8906 8.36597C61.1055 8.05347 61.4023 7.80933 61.7812 7.63354C62.1641 7.45386 62.5918 7.36401 63.0645 7.36401C63.873 7.36401 64.5215 7.62183 65.0098 8.13745C65.4121 8.55933 65.6133 9.03589 65.6133 9.56714C65.6133 10.321 65.2012 10.9226 64.377 11.3718C64.8691 11.4773 65.2617 11.7136 65.5547 12.0808C65.8516 12.448 66 12.8914 66 13.4109C66 14.1648 65.7246 14.8074 65.1738 15.3386C64.623 15.8699 63.9375 16.1355 63.1172 16.1355C62.3398 16.1355 61.6953 15.9128 61.1836 15.4675C60.6719 15.0183 60.375 14.4324 60.293 13.7097Z" fill="white"/>
<defs>
<linearGradient id="paint0_linear_67_1866" x1="37.5" y1="1.98901" x2="37.5" y2="21.989" gradientUnits="userSpaceOnUse">
<stop stop-color="#D7411F"/>
<stop offset="1" stop-color="#ED65A9"/>
</linearGradient>
</defs>
</svg>
