<svg width="74" height="24" viewBox="0 0 74 24" fill="none" xmlns="http://www.w3.org/2000/svg">
<rect x="1" y="1.98901" width="72" height="20" rx="10" fill="url(#paint0_linear_38_1859)"/>
<rect x="1" y="1.98901" width="72" height="20" rx="10" stroke="#801D2E" stroke-width="3" stroke-linejoin="round"/>
<path d="M14.793 12.8308L16.4746 13.364C16.2168 14.3015 15.7871 14.9988 15.1855 15.4558C14.5879 15.9089 13.8281 16.1355 12.9062 16.1355C11.7656 16.1355 10.8281 15.7468 10.0938 14.9695C9.35938 14.1882 8.99219 13.1218 8.99219 11.7703C8.99219 10.3406 9.36133 9.2312 10.0996 8.44214C10.8379 7.64917 11.8086 7.25269 13.0117 7.25269C14.0625 7.25269 14.916 7.56323 15.5723 8.18433C15.9629 8.55151 16.2559 9.07886 16.4512 9.76636L14.7344 10.1765C14.6328 9.7312 14.4199 9.37964 14.0957 9.12183C13.7754 8.86401 13.3848 8.73511 12.9238 8.73511C12.2871 8.73511 11.7695 8.96362 11.3711 9.42065C10.9766 9.87769 10.7793 10.6179 10.7793 11.6414C10.7793 12.7273 10.9746 13.5007 11.3652 13.9617C11.7559 14.4226 12.2637 14.6531 12.8887 14.6531C13.3496 14.6531 13.7461 14.5066 14.0781 14.2136C14.4102 13.9207 14.6484 13.4597 14.793 12.8308ZM25.7148 15.989H23.8281L23.0781 14.0378H19.6445L18.9355 15.989H17.0957L20.4414 7.39917H22.2754L25.7148 15.989ZM22.5215 12.5906L21.3379 9.40308L20.1777 12.5906H22.5215ZM26.2012 13.1941L27.8887 13.03C27.9902 13.5964 28.1953 14.0125 28.5039 14.2781C28.8164 14.5437 29.2363 14.6765 29.7637 14.6765C30.3223 14.6765 30.7422 14.5593 31.0234 14.325C31.3086 14.0867 31.4512 13.8093 31.4512 13.4929C31.4512 13.2898 31.3906 13.1179 31.2695 12.9773C31.1523 12.8328 30.9453 12.7078 30.6484 12.6023C30.4453 12.532 29.9824 12.407 29.2598 12.2273C28.3301 11.9968 27.6777 11.7136 27.3027 11.3777C26.7754 10.905 26.5117 10.3289 26.5117 9.64917C26.5117 9.21167 26.6348 8.80347 26.8809 8.42456C27.1309 8.04175 27.4883 7.75073 27.9531 7.55151C28.4219 7.35229 28.9863 7.25269 29.6465 7.25269C30.7246 7.25269 31.5352 7.48901 32.0781 7.96167C32.625 8.43433 32.9121 9.06519 32.9395 9.85425L31.2051 9.93042C31.1309 9.48901 30.9707 9.17261 30.7246 8.9812C30.4824 8.78589 30.1172 8.68823 29.6289 8.68823C29.125 8.68823 28.7305 8.79175 28.4453 8.99878C28.2617 9.13159 28.1699 9.30933 28.1699 9.53198C28.1699 9.73511 28.2559 9.90894 28.4277 10.0535C28.6465 10.2371 29.1777 10.4285 30.0215 10.6277C30.8652 10.8269 31.4883 11.0339 31.8906 11.2488C32.2969 11.4597 32.6133 11.7507 32.8398 12.1218C33.0703 12.489 33.1855 12.9441 33.1855 13.4871C33.1855 13.9792 33.0488 14.4402 32.7754 14.8699C32.502 15.2996 32.1152 15.6199 31.6152 15.8308C31.1152 16.0378 30.4922 16.1414 29.7461 16.1414C28.6602 16.1414 27.8262 15.8914 27.2441 15.3914C26.6621 14.8875 26.3145 14.155 26.2012 13.1941ZM36.5781 15.989V8.85229H34.0293V7.39917H40.8555V8.85229H38.3125V15.989H36.5781ZM41.4062 11.7468C41.4062 10.8718 41.5371 10.1375 41.7988 9.5437C41.9941 9.1062 42.2598 8.71362 42.5957 8.36597C42.9355 8.01831 43.3066 7.7605 43.709 7.59253C44.2441 7.36597 44.8613 7.25269 45.5605 7.25269C46.8262 7.25269 47.8379 7.64526 48.5957 8.43042C49.3574 9.21558 49.7383 10.3074 49.7383 11.7058C49.7383 13.0925 49.3613 14.1785 48.6074 14.9636C47.8535 15.7449 46.8457 16.1355 45.584 16.1355C44.3066 16.1355 43.291 15.7468 42.5371 14.9695C41.7832 14.1882 41.4062 13.114 41.4062 11.7468ZM43.1934 11.6882C43.1934 12.6609 43.418 13.3992 43.8672 13.9031C44.3164 14.4031 44.8867 14.6531 45.5781 14.6531C46.2695 14.6531 46.8359 14.405 47.2773 13.9089C47.7227 13.4089 47.9453 12.6609 47.9453 11.6648C47.9453 10.6804 47.7285 9.94604 47.2949 9.46167C46.8652 8.97729 46.293 8.73511 45.5781 8.73511C44.8633 8.73511 44.2871 8.9812 43.8496 9.47339C43.4121 9.96167 43.1934 10.7 43.1934 11.6882ZM51.1035 15.989V7.39917H54.7539C55.6719 7.39917 56.3379 7.47729 56.752 7.63354C57.1699 7.78589 57.5039 8.05933 57.7539 8.45386C58.0039 8.84839 58.1289 9.29956 58.1289 9.80737C58.1289 10.4519 57.9395 10.9851 57.5605 11.407C57.1816 11.825 56.6152 12.0886 55.8613 12.198C56.2363 12.4167 56.5449 12.657 56.7871 12.9187C57.0332 13.1804 57.3633 13.6453 57.7773 14.3132L58.8262 15.989H56.752L55.498 14.1199C55.0527 13.4519 54.748 13.032 54.584 12.8601C54.4199 12.6843 54.2461 12.5652 54.0625 12.5027C53.8789 12.4363 53.5879 12.4031 53.1895 12.4031H52.8379V15.989H51.1035ZM52.8379 11.032H54.1211C54.9531 11.032 55.4727 10.9968 55.6797 10.9265C55.8867 10.8562 56.0488 10.7351 56.166 10.5632C56.2832 10.3914 56.3418 10.1765 56.3418 9.9187C56.3418 9.62964 56.2637 9.39722 56.1074 9.22144C55.9551 9.04175 55.7383 8.92847 55.457 8.88159C55.3164 8.86206 54.8945 8.85229 54.1914 8.85229H52.8379V11.032ZM63.6191 15.989H61.9727V9.78394C61.3711 10.3464 60.6621 10.7625 59.8457 11.032V9.53784C60.2754 9.39722 60.7422 9.13159 61.2461 8.74097C61.75 8.34644 62.0957 7.88745 62.2832 7.36401H63.6191V15.989Z" fill="white"/>
<defs>
<linearGradient id="paint0_linear_38_1859" x1="37" y1="1.98901" x2="37" y2="21.989" gradientUnits="userSpaceOnUse">
<stop stop-color="#801D2E"/>
<stop offset="1" stop-color="#FFFF9B"/>
</linearGradient>
</defs>
</svg>
