<svg width="53" height="24" viewBox="0 0 53 24" fill="none" xmlns="http://www.w3.org/2000/svg">
<rect x="2" y="1.98901" width="50" height="20" rx="10" fill="url(#paint0_linear_67_1917)"/>
<rect x="2" y="1.98901" width="50" height="20" rx="10" stroke="#3EAD85" stroke-width="3" stroke-linejoin="round"/>
<path d="M9.76172 13.1941L11.4492 13.03C11.5508 13.5964 11.7559 14.0125 12.0645 14.2781C12.377 14.5437 12.7969 14.6765 13.3242 14.6765C13.8828 14.6765 14.3027 14.5593 14.584 14.325C14.8691 14.0867 15.0117 13.8093 15.0117 13.4929C15.0117 13.2898 14.9512 13.1179 14.8301 12.9773C14.7129 12.8328 14.5059 12.7078 14.209 12.6023C14.0059 12.532 13.543 12.407 12.8203 12.2273C11.8906 11.9968 11.2383 11.7136 10.8633 11.3777C10.3359 10.905 10.0723 10.3289 10.0723 9.64917C10.0723 9.21167 10.1953 8.80347 10.4414 8.42456C10.6914 8.04175 11.0488 7.75073 11.5137 7.55151C11.9824 7.35229 12.5469 7.25269 13.207 7.25269C14.2852 7.25269 15.0957 7.48901 15.6387 7.96167C16.1855 8.43433 16.4727 9.06519 16.5 9.85425L14.7656 9.93042C14.6914 9.48901 14.5312 9.17261 14.2852 8.9812C14.043 8.78589 13.6777 8.68823 13.1895 8.68823C12.6855 8.68823 12.291 8.79175 12.0059 8.99878C11.8223 9.13159 11.7305 9.30933 11.7305 9.53198C11.7305 9.73511 11.8164 9.90894 11.9883 10.0535C12.207 10.2371 12.7383 10.4285 13.582 10.6277C14.4258 10.8269 15.0488 11.0339 15.4512 11.2488C15.8574 11.4597 16.1738 11.7507 16.4004 12.1218C16.6309 12.489 16.7461 12.9441 16.7461 13.4871C16.7461 13.9792 16.6094 14.4402 16.3359 14.8699C16.0625 15.2996 15.6758 15.6199 15.1758 15.8308C14.6758 16.0378 14.0527 16.1414 13.3066 16.1414C12.2207 16.1414 11.3867 15.8914 10.8047 15.3914C10.2227 14.8875 9.875 14.155 9.76172 13.1941ZM18.1816 15.989V7.39917H20.7773L22.3359 13.2585L23.877 7.39917H26.4785V15.989H24.8672V9.22729L23.1621 15.989H21.4922L19.793 9.22729V15.989H18.1816ZM35.9473 15.989H34.0605L33.3105 14.0378H29.877L29.168 15.989H27.3281L30.6738 7.39917H32.5078L35.9473 15.989ZM32.7539 12.5906L31.5703 9.40308L30.4102 12.5906H32.7539ZM36.8672 7.39917H40.0371C40.752 7.39917 41.2969 7.45386 41.6719 7.56323C42.1758 7.71167 42.6074 7.97534 42.9668 8.35425C43.3262 8.73315 43.5996 9.198 43.7871 9.74878C43.9746 10.2957 44.0684 10.9714 44.0684 11.7761C44.0684 12.4832 43.9805 13.0925 43.8047 13.6042C43.5898 14.2292 43.2832 14.7351 42.8848 15.1218C42.584 15.4148 42.1777 15.6433 41.666 15.8074C41.2832 15.9285 40.7715 15.989 40.1309 15.989H36.8672V7.39917ZM38.6016 8.85229V14.5417H39.8965C40.3809 14.5417 40.7305 14.5144 40.9453 14.4597C41.2266 14.3894 41.459 14.2703 41.6426 14.1023C41.8301 13.9343 41.9824 13.6589 42.0996 13.2761C42.2168 12.8894 42.2754 12.364 42.2754 11.7C42.2754 11.0359 42.2168 10.5261 42.0996 10.1707C41.9824 9.81519 41.8184 9.53784 41.6074 9.33862C41.3965 9.1394 41.1289 9.00464 40.8047 8.93433C40.5625 8.87964 40.0879 8.85229 39.3809 8.85229H38.6016Z" fill="white"/>
<defs>
<linearGradient id="paint0_linear_67_1917" x1="27" y1="1.98901" x2="27" y2="21.989" gradientUnits="userSpaceOnUse">
<stop stop-color="#3EAD85"/>
<stop offset="1" stop-color="#E07900"/>
</linearGradient>
</defs>
</svg>
