<svg width="42" height="24" viewBox="0 0 42 24" fill="none" xmlns="http://www.w3.org/2000/svg">
<rect x="2" y="1.98901" width="39" height="20" rx="10" fill="url(#paint0_linear_84_2014)"/>
<rect x="2" y="1.98901" width="39" height="20" rx="10" stroke="#00DBE0" stroke-width="3" stroke-linejoin="round"/>
<path d="M12.3008 15.989V8.85229H9.75195V7.39917H16.5781V8.85229H14.0352V15.989H12.3008ZM17.7031 15.989V7.39917H24.0723V8.85229H19.4375V10.7566H23.75V12.2039H19.4375V14.5417H24.2363V15.989H17.7031ZM31.2031 12.8308L32.8848 13.364C32.627 14.3015 32.1973 14.9988 31.5957 15.4558C30.998 15.9089 30.2383 16.1355 29.3164 16.1355C28.1758 16.1355 27.2383 15.7468 26.5039 14.9695C25.7695 14.1882 25.4023 13.1218 25.4023 11.7703C25.4023 10.3406 25.7715 9.2312 26.5098 8.44214C27.248 7.64917 28.2188 7.25269 29.4219 7.25269C30.4727 7.25269 31.3262 7.56323 31.9824 8.18433C32.373 8.55151 32.666 9.07886 32.8613 9.76636L31.1445 10.1765C31.043 9.7312 30.8301 9.37964 30.5059 9.12183C30.1855 8.86401 29.7949 8.73511 29.334 8.73511C28.6973 8.73511 28.1797 8.96362 27.7812 9.42065C27.3867 9.87769 27.1895 10.6179 27.1895 11.6414C27.1895 12.7273 27.3848 13.5007 27.7754 13.9617C28.166 14.4226 28.6738 14.6531 29.2988 14.6531C29.7598 14.6531 30.1562 14.5066 30.4883 14.2136C30.8203 13.9207 31.0586 13.4597 31.2031 12.8308Z" fill="white"/>
<defs>
<linearGradient id="paint0_linear_84_2014" x1="21.5" y1="1.98901" x2="21.5" y2="21.989" gradientUnits="userSpaceOnUse">
<stop stop-color="#00DBE0"/>
<stop offset="1" stop-color="#1D7025"/>
</linearGradient>
</defs>
</svg>
