<svg width="60" height="24" viewBox="0 0 60 24" fill="none" xmlns="http://www.w3.org/2000/svg">
<rect x="2" y="1.98901" width="57" height="20" rx="10" fill="url(#paint0_linear_40_2525)"/>
<rect x="2" y="1.98901" width="57" height="20" rx="10" stroke="#3D3DD6" stroke-width="3" stroke-linejoin="round"/>
<path d="M15.5234 12.8308L17.2051 13.364C16.9473 14.3015 16.5176 14.9988 15.916 15.4558C15.3184 15.9089 14.5586 16.1355 13.6367 16.1355C12.4961 16.1355 11.5586 15.7468 10.8242 14.9695C10.0898 14.1882 9.72266 13.1218 9.72266 11.7703C9.72266 10.3406 10.0918 9.2312 10.8301 8.44214C11.5684 7.64917 12.5391 7.25269 13.7422 7.25269C14.793 7.25269 15.6465 7.56323 16.3027 8.18433C16.6934 8.55151 16.9863 9.07886 17.1816 9.76636L15.4648 10.1765C15.3633 9.7312 15.1504 9.37964 14.8262 9.12183C14.5059 8.86401 14.1152 8.73511 13.6543 8.73511C13.0176 8.73511 12.5 8.96362 12.1016 9.42065C11.707 9.87769 11.5098 10.6179 11.5098 11.6414C11.5098 12.7273 11.7051 13.5007 12.0957 13.9617C12.4863 14.4226 12.9941 14.6531 13.6191 14.6531C14.0801 14.6531 14.4766 14.5066 14.8086 14.2136C15.1406 13.9207 15.3789 13.4597 15.5234 12.8308ZM18.7051 15.989V7.39917H22.3555C23.2734 7.39917 23.9395 7.47729 24.3535 7.63354C24.7715 7.78589 25.1055 8.05933 25.3555 8.45386C25.6055 8.84839 25.7305 9.29956 25.7305 9.80737C25.7305 10.4519 25.541 10.9851 25.1621 11.407C24.7832 11.825 24.2168 12.0886 23.4629 12.198C23.8379 12.4167 24.1465 12.657 24.3887 12.9187C24.6348 13.1804 24.9648 13.6453 25.3789 14.3132L26.4277 15.989H24.3535L23.0996 14.1199C22.6543 13.4519 22.3496 13.032 22.1855 12.8601C22.0215 12.6843 21.8477 12.5652 21.6641 12.5027C21.4805 12.4363 21.1895 12.4031 20.791 12.4031H20.4395V15.989H18.7051ZM20.4395 11.032H21.7227C22.5547 11.032 23.0742 10.9968 23.2812 10.9265C23.4883 10.8562 23.6504 10.7351 23.7676 10.5632C23.8848 10.3914 23.9434 10.1765 23.9434 9.9187C23.9434 9.62964 23.8652 9.39722 23.709 9.22144C23.5566 9.04175 23.3398 8.92847 23.0586 8.88159C22.918 8.86206 22.4961 8.85229 21.793 8.85229H20.4395V11.032ZM35.1172 15.989H33.2305L32.4805 14.0378H29.0469L28.3379 15.989H26.498L29.8438 7.39917H31.6777L35.1172 15.989ZM31.9238 12.5906L30.7402 9.40308L29.5801 12.5906H31.9238ZM36.0488 7.39917H39.4824C40.1621 7.39917 40.668 7.42847 41 7.48706C41.3359 7.54175 41.6348 7.65894 41.8965 7.83862C42.1621 8.01831 42.3828 8.25854 42.5586 8.55933C42.7344 8.8562 42.8223 9.19019 42.8223 9.56128C42.8223 9.96362 42.7129 10.3328 42.4941 10.6687C42.2793 11.0046 41.9863 11.2566 41.6152 11.4246C42.1387 11.5769 42.541 11.8367 42.8223 12.2039C43.1035 12.571 43.2441 13.0027 43.2441 13.4988C43.2441 13.8894 43.1523 14.2703 42.9688 14.6414C42.7891 15.0085 42.541 15.3035 42.2246 15.5261C41.9121 15.7449 41.5254 15.8796 41.0645 15.9304C40.7754 15.9617 40.0781 15.9812 38.9727 15.989H36.0488V7.39917ZM37.7832 8.82886V10.8152H38.9199C39.5957 10.8152 40.0156 10.8054 40.1797 10.7859C40.4766 10.7507 40.709 10.6492 40.877 10.4812C41.0488 10.3093 41.1348 10.0847 41.1348 9.80737C41.1348 9.54175 41.0605 9.3269 40.9121 9.16284C40.7676 8.99487 40.5508 8.89331 40.2617 8.85815C40.0898 8.83862 39.5957 8.82886 38.7793 8.82886H37.7832ZM37.7832 12.2449V14.5417H39.3887C40.0137 14.5417 40.4102 14.5242 40.5781 14.489C40.8359 14.4421 41.0449 14.3289 41.2051 14.1492C41.3691 13.9656 41.4512 13.7214 41.4512 13.4167C41.4512 13.1589 41.3887 12.9402 41.2637 12.7605C41.1387 12.5808 40.957 12.45 40.7188 12.3679C40.4844 12.2859 39.9727 12.2449 39.1836 12.2449H37.7832ZM44.7148 15.989V7.39917H47.498C48.5527 7.39917 49.2402 7.44214 49.5605 7.52808C50.0527 7.65698 50.4648 7.93823 50.7969 8.37183C51.1289 8.80151 51.2949 9.35815 51.2949 10.0417C51.2949 10.5691 51.1992 11.0125 51.0078 11.3718C50.8164 11.7312 50.5723 12.0144 50.2754 12.2214C49.9824 12.4246 49.6836 12.5593 49.3789 12.6257C48.9648 12.7078 48.3652 12.7488 47.5801 12.7488H46.4492V15.989H44.7148ZM46.4492 8.85229V11.2898H47.3984C48.082 11.2898 48.5391 11.2449 48.7695 11.155C49 11.0652 49.1797 10.9246 49.3086 10.7332C49.4414 10.5417 49.5078 10.3191 49.5078 10.0652C49.5078 9.75269 49.416 9.49487 49.2324 9.29175C49.0488 9.08862 48.8164 8.96167 48.5352 8.91089C48.3281 8.87183 47.9121 8.85229 47.2871 8.85229H46.4492Z" fill="white"/>
<defs>
<linearGradient id="paint0_linear_40_2525" x1="30.5" y1="1.98901" x2="30.5" y2="21.989" gradientUnits="userSpaceOnUse">
<stop stop-color="#A5C426"/>
<stop offset="1" stop-color="#3D3DD6"/>
</linearGradient>
</defs>
</svg>
