<svg width="30" height="71" viewBox="0 0 30 71" fill="none" xmlns="http://www.w3.org/2000/svg">
<path d="M18.39 70.7852H12.4007C8.98418 70.7852 4.91138 69.2608 4.91138 61.9961V9.03613H9.91138V61.9961C9.91138 65.7852 13.0102 65.7852 14.4008 65.7852H16.3898C17.9948 65.7852 20.8792 65.7852 20.8792 61.9961V9.03613H25.8792V61.9961C25.8793 64.17 25.8793 70.7852 18.39 70.7852Z" fill="#396B22"/>
<path d="M7.05972 8.9895V61.6768C7.05972 61.6768 6.27722 67.8066 12.0543 67.8066C13.7714 67.8066 16.5092 67.8066 18.3899 67.8066C22.0637 67.8066 22.7431 65.3381 22.7431 61.6768C22.7431 58.0154 22.7431 8.9895 22.7431 8.9895" stroke="#6AD936" stroke-miterlimit="1" stroke-linecap="round"/>
<path d="M7.41139 17.2927C3.78969 17.2927 0.854492 14.3568 0.854492 10.7358V7.24318C0.854492 3.62218 3.78969 0.686279 7.41139 0.686279C11.0331 0.686279 13.9683 3.62218 13.9683 7.24318V10.7358C13.9683 14.3568 11.0331 17.2927 7.41139 17.2927Z" fill="url(#paint0_radial_86_2456)"/>
<path d="M23.3792 17.2927C27.0009 17.2927 29.9361 14.3568 29.9361 10.7358V7.24318C29.9361 3.62218 27.0008 0.686279 23.3792 0.686279C19.7575 0.686279 16.8223 3.62218 16.8223 7.24318V10.7358C16.8223 14.3568 19.7575 17.2927 23.3792 17.2927Z" fill="url(#paint1_radial_86_2456)"/>
<defs>
<radialGradient id="paint0_radial_86_2456" cx="0" cy="0" r="1" gradientUnits="userSpaceOnUse" gradientTransform="translate(6.08629 6.57888) scale(10.6036)">
<stop stop-color="#6AD936"/>
<stop offset="0.0143" stop-color="#68D635"/>
<stop offset="0.1889" stop-color="#57AF2E"/>
<stop offset="0.3624" stop-color="#4A9229"/>
<stop offset="0.5325" stop-color="#417C25"/>
<stop offset="0.6976" stop-color="#3B6F23"/>
<stop offset="0.8521" stop-color="#396B22"/>
</radialGradient>
<radialGradient id="paint1_radial_86_2456" cx="0" cy="0" r="1" gradientUnits="userSpaceOnUse" gradientTransform="translate(24.7042 6.57888) rotate(180) scale(10.6036)">
<stop offset="0.0005" stop-color="#6AD936"/>
<stop offset="0.0136" stop-color="#69D635"/>
<stop offset="0.1887" stop-color="#58B02E"/>
<stop offset="0.3627" stop-color="#4A9229"/>
<stop offset="0.5332" stop-color="#417C25"/>
<stop offset="0.6984" stop-color="#3B6F23"/>
<stop offset="0.8526" stop-color="#396B22"/>
</radialGradient>
</defs>
</svg>
