<svg width="99" height="102" viewBox="0 0 99 102" fill="none" xmlns="http://www.w3.org/2000/svg">
<path d="M43.2224 101.132C40.4612 101.132 38.2224 98.8937 38.2224 96.132V34.8762C38.2224 24.1155 31.7165 15.2414 31.6506 15.1545C29.9812 12.9553 30.4113 9.81861 32.6111 8.14861C34.8098 6.47971 37.9475 6.91031 39.6165 9.10951C39.9681 9.57241 48.2225 20.6134 48.2225 34.8761V96.132C48.2224 98.8938 45.9836 101.132 43.2224 101.132Z" fill="url(#paint0_linear_86_2514)"/>
<path d="M31.0252 101.132C28.264 101.132 26.0252 98.8937 26.0252 96.132V50.8645C26.0252 39.3596 17.0594 35.3235 16.9686 35.2844C14.4369 34.1819 13.2777 31.2356 14.3797 28.7043C15.4818 26.1711 18.428 25.0148 20.9598 26.1145C21.575 26.3831 36.0252 32.8791 36.0252 50.8645V96.1321C36.0252 98.8938 33.7865 101.132 31.0252 101.132Z" fill="url(#paint1_linear_86_2514)"/>
<path d="M18.8279 101.132C16.0667 101.132 13.8279 98.8937 13.8279 96.132V66.8527C13.8279 65.9269 13.655 65.297 13.3137 64.9787C12.6496 64.3586 11.1037 64.2267 10.7751 64.256C8.0202 64.4337 5.6311 62.3712 5.4382 59.6164C5.2453 56.8625 7.3225 54.4728 10.0769 54.2795C10.6892 54.2385 16.1692 53.968 20.1335 57.6652C21.819 59.2365 23.8278 62.1056 23.8278 66.8527V96.132C23.8279 98.8938 21.5891 101.132 18.8279 101.132Z" fill="url(#paint2_linear_86_2514)"/>
<path d="M55.4197 101.132C58.1809 101.132 60.4197 98.8937 60.4197 96.132V34.8762C60.4197 24.1155 66.9256 15.2414 66.9915 15.1545C68.6609 12.9553 68.2308 9.81861 66.0311 8.14861C63.8324 6.47971 60.6947 6.91031 59.0257 9.10951C58.6741 9.57241 50.4197 20.6134 50.4197 34.8761V96.132C50.4197 98.8938 52.6584 101.132 55.4197 101.132Z" fill="url(#paint3_linear_86_2514)"/>
<path d="M67.6169 101.132C70.3781 101.132 72.6169 98.8937 72.6169 96.132V50.8645C72.6169 39.3596 81.5827 35.3235 81.6735 35.2844C84.2052 34.1819 85.3644 31.2356 84.2624 28.7043C83.1603 26.1711 80.2141 25.0148 77.6823 26.1145C77.0671 26.3831 62.6169 32.8791 62.6169 50.8645V96.1321C62.6169 98.8938 64.8557 101.132 67.6169 101.132Z" fill="url(#paint4_linear_86_2514)"/>
<path d="M79.8142 101.132C82.5754 101.132 84.8142 98.8937 84.8142 96.132V66.8527C84.8142 65.9269 84.9871 65.297 85.3284 64.9787C85.9925 64.3586 87.5384 64.2267 87.867 64.256C90.6219 64.4337 93.011 62.3712 93.2039 59.6164C93.3968 56.8625 91.3196 54.4728 88.5652 54.2795C87.9529 54.2385 82.4729 53.968 78.5086 57.6652C76.8231 59.2365 74.8143 62.1056 74.8143 66.8527V96.132C74.8142 98.8938 77.053 101.132 79.8142 101.132Z" fill="url(#paint5_linear_86_2514)"/>
<path d="M36.1897 18.174C35.7625 18.174 35.3284 18.1193 34.8958 18.0031L27.4231 16.0061C26.136 15.6623 25.0398 14.8196 24.3767 13.6633C23.4094 11.9768 23.4441 9.91724 24.4695 8.15354C26.2917 5.01884 34.0886 0.546143 37.7268 0.546143C37.7317 0.546143 37.7361 0.546143 37.7405 0.546143C39.7805 0.552043 41.5759 1.56374 42.5427 3.25024C43.2024 4.40064 43.3777 5.76584 43.0305 7.04614L41.0124 14.4826C40.4084 16.7082 38.3918 18.174 36.1897 18.174Z" fill="#9636CE"/>
<path d="M12.5329 37.9435C11.5891 37.9435 10.6559 37.6759 9.84744 37.1613C8.20734 36.1164 7.28154 34.2765 7.36994 32.2384C7.52764 28.6095 12.365 21.0128 15.5857 19.3351C17.3948 18.3937 19.4544 18.4552 21.0935 19.4982C22.2122 20.2111 23.0017 21.338 23.2893 22.632L24.9592 30.1535C25.5559 32.842 23.8664 35.507 21.1804 36.1145L13.6355 37.8206C13.2707 37.9025 12.9011 37.9435 12.5329 37.9435Z" fill="#9636CE"/>
<path d="M6.33518 69.7287C6.32928 69.7287 6.32398 69.7287 6.31858 69.7287C0.222384 69.7082 0.248784 61.8283 0.257584 59.2385C0.263484 57.5207 0.393284 55.8742 0.624284 54.6028C1.57598 49.3635 4.94558 48.7893 6.37088 48.7893C6.37678 48.7893 6.38258 48.7893 6.38848 48.7893C7.71468 48.7942 8.98468 49.3245 9.91928 50.2659L15.35 55.7327C17.2909 57.6858 17.2865 60.8421 15.3397 62.7903L9.87238 68.263C8.93428 69.2014 7.66178 69.7287 6.33518 69.7287Z" fill="#9636CE"/>
<path d="M62.4524 18.174C62.8796 18.174 63.3137 18.1193 63.7463 18.0031L71.219 16.006C72.5061 15.6622 73.6023 14.8195 74.2654 13.6632C75.2327 11.9767 75.198 9.91714 74.1726 8.15344C72.3503 5.01884 64.5534 0.546143 60.9153 0.546143C60.9104 0.546143 60.906 0.546143 60.9016 0.546143C58.8616 0.552043 57.0662 1.56374 56.0994 3.25024C55.4397 4.40064 55.2644 5.76584 55.6116 7.04614L57.6297 14.4826C58.2336 16.7082 60.2502 18.174 62.4524 18.174Z" fill="#9636CE"/>
<path d="M86.1091 37.9435C87.0529 37.9435 87.9861 37.6759 88.7946 37.1613C90.4347 36.1164 91.3605 34.2765 91.2721 32.2384C91.1144 28.6095 86.277 21.0128 83.0563 19.3351C81.2472 18.3937 79.1876 18.4552 77.5485 19.4982C76.4298 20.2111 75.6403 21.338 75.3527 22.632L73.6828 30.1535C73.0861 32.842 74.7756 35.507 77.4616 36.1145L85.0065 37.8206C85.3713 37.9025 85.7409 37.9435 86.1091 37.9435Z" fill="#9636CE"/>
<path d="M92.3069 69.7287C92.3128 69.7287 92.3181 69.7287 92.3235 69.7287C98.4197 69.7082 98.3933 61.8283 98.3845 59.2385C98.3786 57.5207 98.2488 55.8742 98.0178 54.6028C97.0661 49.3635 93.6965 48.7893 92.2712 48.7893C92.2653 48.7893 92.2595 48.7893 92.2536 48.7893C90.9274 48.7942 89.6574 49.3245 88.7228 50.2659L83.2921 55.7327C81.3512 57.6858 81.3556 60.8421 83.3024 62.7903L88.7697 68.263C89.7077 69.2014 90.9802 69.7287 92.3069 69.7287Z" fill="#9636CE"/>
<defs>
<linearGradient id="paint0_linear_86_2514" x1="37.9663" y1="54.1319" x2="48.2202" y2="54.1319" gradientUnits="userSpaceOnUse">
<stop stop-color="#6C368B"/>
<stop offset="0.3993" stop-color="#9636CE"/>
<stop offset="1" stop-color="#6C368B"/>
</linearGradient>
<linearGradient id="paint1_linear_86_2514" x1="26.0654" y1="63.4154" x2="35.862" y2="63.4154" gradientUnits="userSpaceOnUse">
<stop stop-color="#6C368B"/>
<stop offset="0.3993" stop-color="#9636CE"/>
<stop offset="1" stop-color="#6C368B"/>
</linearGradient>
<linearGradient id="paint2_linear_86_2514" x1="13.7501" y1="77.6957" x2="23.6519" y2="77.6957" gradientUnits="userSpaceOnUse">
<stop stop-color="#6C368B"/>
<stop offset="0.3993" stop-color="#9636CE"/>
<stop offset="1" stop-color="#6C368B"/>
</linearGradient>
<linearGradient id="paint3_linear_86_2514" x1="50.3193" y1="54.1319" x2="60.4226" y2="54.1319" gradientUnits="userSpaceOnUse">
<stop stop-color="#6C368B"/>
<stop offset="0.3993" stop-color="#9636CE"/>
<stop offset="1" stop-color="#6C368B"/>
</linearGradient>
<linearGradient id="paint4_linear_86_2514" x1="62.6722" y1="63.4154" x2="73.094" y2="63.4154" gradientUnits="userSpaceOnUse">
<stop stop-color="#6C368B"/>
<stop offset="0.3993" stop-color="#9636CE"/>
<stop offset="1" stop-color="#6C368B"/>
</linearGradient>
<linearGradient id="paint5_linear_86_2514" x1="74.7238" y1="77.6957" x2="84.5169" y2="77.6957" gradientUnits="userSpaceOnUse">
<stop stop-color="#6C368B"/>
<stop offset="0.3993" stop-color="#9636CE"/>
<stop offset="1" stop-color="#6C368B"/>
</linearGradient>
</defs>
</svg>
