<svg width="50" height="24" viewBox="0 0 50 24" fill="none" xmlns="http://www.w3.org/2000/svg">
<rect x="2" y="1.98901" width="47" height="20" rx="10" fill="url(#paint0_linear_45_4220)"/>
<rect x="2" y="1.98901" width="47" height="20" rx="10" stroke="#00A800" stroke-width="3" stroke-linejoin="round"/>
<path d="M14.0215 12.8308V11.3835H17.7598V14.8054C17.3965 15.157 16.8691 15.4675 16.1777 15.7371C15.4902 16.0027 14.793 16.1355 14.0859 16.1355C13.1875 16.1355 12.4043 15.948 11.7363 15.573C11.0684 15.1941 10.5664 14.655 10.2305 13.9558C9.89453 13.2527 9.72656 12.489 9.72656 11.6648C9.72656 10.7703 9.91406 9.97534 10.2891 9.28003C10.6641 8.58472 11.2129 8.05151 11.9355 7.68042C12.4863 7.39526 13.1719 7.25269 13.9922 7.25269C15.0586 7.25269 15.8906 7.47729 16.4883 7.92651C17.0898 8.37183 17.4766 8.98901 17.6484 9.77808L15.9258 10.1003C15.8047 9.67847 15.5762 9.34644 15.2402 9.10425C14.9082 8.85815 14.4922 8.73511 13.9922 8.73511C13.2344 8.73511 12.6309 8.97534 12.1816 9.45581C11.7363 9.93628 11.5137 10.6492 11.5137 11.5945C11.5137 12.614 11.7402 13.3796 12.1934 13.8914C12.6465 14.3992 13.2402 14.6531 13.9746 14.6531C14.3379 14.6531 14.7012 14.5828 15.0645 14.4421C15.4316 14.2976 15.7461 14.1238 16.0078 13.9207V12.8308H14.0215ZM27.1113 15.989H25.2246L24.4746 14.0378H21.041L20.332 15.989H18.4922L21.8379 7.39917H23.6719L27.1113 15.989ZM23.918 12.5906L22.7344 9.40308L21.5742 12.5906H23.918ZM28.0371 15.989V7.39917H30.8203C31.875 7.39917 32.5625 7.44214 32.8828 7.52808C33.375 7.65698 33.7871 7.93823 34.1191 8.37183C34.4512 8.80151 34.6172 9.35815 34.6172 10.0417C34.6172 10.5691 34.5215 11.0125 34.3301 11.3718C34.1387 11.7312 33.8945 12.0144 33.5977 12.2214C33.3047 12.4246 33.0059 12.5593 32.7012 12.6257C32.2871 12.7078 31.6875 12.7488 30.9023 12.7488H29.7715V15.989H28.0371ZM29.7715 8.85229V11.2898H30.7207C31.4043 11.2898 31.8613 11.2449 32.0918 11.155C32.3223 11.0652 32.502 10.9246 32.6309 10.7332C32.7637 10.5417 32.8301 10.3191 32.8301 10.0652C32.8301 9.75269 32.7383 9.49487 32.5547 9.29175C32.3711 9.08862 32.1387 8.96167 31.8574 8.91089C31.6504 8.87183 31.2344 8.85229 30.6094 8.85229H29.7715ZM35.4492 14.2136L37.1016 13.9617C37.1719 14.282 37.3145 14.5261 37.5293 14.6941C37.7441 14.8582 38.0449 14.9402 38.4316 14.9402C38.8574 14.9402 39.1777 14.8621 39.3926 14.7058C39.5371 14.5964 39.6094 14.45 39.6094 14.2664C39.6094 14.1414 39.5703 14.0378 39.4922 13.9558C39.4102 13.8777 39.2266 13.8054 38.9414 13.739C37.6133 13.446 36.7715 13.1785 36.416 12.9363C35.9238 12.6003 35.6777 12.1335 35.6777 11.5359C35.6777 10.9968 35.8906 10.5437 36.3164 10.1765C36.7422 9.80933 37.4023 9.62573 38.2969 9.62573C39.1484 9.62573 39.7812 9.7644 40.1953 10.0417C40.6094 10.3191 40.8945 10.7292 41.0508 11.2722L39.498 11.5593C39.4316 11.3171 39.3047 11.1316 39.1172 11.0027C38.9336 10.8738 38.6699 10.8093 38.3262 10.8093C37.8926 10.8093 37.582 10.8699 37.3945 10.991C37.2695 11.0769 37.207 11.1882 37.207 11.325C37.207 11.4421 37.2617 11.5417 37.3711 11.6238C37.5195 11.7332 38.0312 11.8875 38.9062 12.0867C39.7852 12.2859 40.3984 12.53 40.7461 12.8191C41.0898 13.1121 41.2617 13.5203 41.2617 14.0437C41.2617 14.614 41.0234 15.1042 40.5469 15.5144C40.0703 15.9246 39.3652 16.1296 38.4316 16.1296C37.584 16.1296 36.9121 15.9578 36.416 15.614C35.9238 15.2703 35.6016 14.8035 35.4492 14.2136Z" fill="white"/>
<defs>
<linearGradient id="paint0_linear_45_4220" x1="25.5" y1="1.98901" x2="25.5" y2="21.989" gradientUnits="userSpaceOnUse">
<stop stop-color="#00A800"/>
<stop offset="1" stop-color="#536BD5"/>
</linearGradient>
</defs>
</svg>
