<svg width="62" height="24" viewBox="0 0 62 24" fill="none" xmlns="http://www.w3.org/2000/svg">
<rect x="2" y="1.98901" width="59" height="20" rx="10" fill="url(#paint0_linear_42_2710)"/>
<rect x="2" y="1.98901" width="59" height="20" rx="10" stroke="#FF9914" stroke-width="3" stroke-linejoin="round"/>
<path d="M14.0156 12.8308V11.3835H17.7539V14.8054C17.3906 15.157 16.8633 15.4675 16.1719 15.7371C15.4844 16.0027 14.7871 16.1355 14.0801 16.1355C13.1816 16.1355 12.3984 15.948 11.7305 15.573C11.0625 15.1941 10.5605 14.655 10.2246 13.9558C9.88867 13.2527 9.7207 12.489 9.7207 11.6648C9.7207 10.7703 9.9082 9.97534 10.2832 9.28003C10.6582 8.58472 11.207 8.05151 11.9297 7.68042C12.4805 7.39526 13.166 7.25269 13.9863 7.25269C15.0527 7.25269 15.8848 7.47729 16.4824 7.92651C17.084 8.37183 17.4707 8.98901 17.6426 9.77808L15.9199 10.1003C15.7988 9.67847 15.5703 9.34644 15.2344 9.10425C14.9023 8.85815 14.4863 8.73511 13.9863 8.73511C13.2285 8.73511 12.625 8.97534 12.1758 9.45581C11.7305 9.93628 11.5078 10.6492 11.5078 11.5945C11.5078 12.614 11.7344 13.3796 12.1875 13.8914C12.6406 14.3992 13.2344 14.6531 13.9688 14.6531C14.332 14.6531 14.6953 14.5828 15.0586 14.4421C15.4258 14.2976 15.7402 14.1238 16.002 13.9207V12.8308H14.0156ZM19.1602 13.698V12.0515H22.3945V13.698H19.1602ZM24.5742 11.6648L23.0801 11.3953C23.248 10.7937 23.5371 10.3484 23.9473 10.0593C24.3574 9.77026 24.9668 9.62573 25.7754 9.62573C26.5098 9.62573 27.0566 9.71362 27.416 9.8894C27.7754 10.0613 28.0273 10.282 28.1719 10.5515C28.3203 10.8171 28.3945 11.3074 28.3945 12.0222L28.377 13.9441C28.377 14.491 28.4023 14.8953 28.4531 15.157C28.5078 15.4148 28.6074 15.6921 28.752 15.989H27.123C27.0801 15.8796 27.0273 15.7175 26.9648 15.5027C26.9375 15.405 26.918 15.3406 26.9062 15.3093C26.625 15.5828 26.3242 15.7878 26.0039 15.9246C25.6836 16.0613 25.3418 16.1296 24.9785 16.1296C24.3379 16.1296 23.832 15.9558 23.4609 15.6082C23.0938 15.2605 22.9102 14.821 22.9102 14.2898C22.9102 13.9382 22.9941 13.6257 23.1621 13.3523C23.3301 13.075 23.5645 12.864 23.8652 12.7195C24.1699 12.571 24.6074 12.4421 25.1777 12.3328C25.9473 12.1882 26.4805 12.0535 26.7773 11.9285V11.7644C26.7773 11.448 26.6992 11.2234 26.543 11.0906C26.3867 10.9539 26.0918 10.8855 25.6582 10.8855C25.3652 10.8855 25.1367 10.9441 24.9727 11.0613C24.8086 11.1746 24.6758 11.3757 24.5742 11.6648ZM26.7773 13.0007C26.5664 13.071 26.2324 13.155 25.7754 13.2527C25.3184 13.3503 25.0195 13.446 24.8789 13.5398C24.6641 13.6921 24.5566 13.8855 24.5566 14.1199C24.5566 14.3503 24.6426 14.5496 24.8145 14.7175C24.9863 14.8855 25.2051 14.9695 25.4707 14.9695C25.7676 14.9695 26.0508 14.8718 26.3203 14.6765C26.5195 14.5281 26.6504 14.3464 26.7129 14.1316C26.7559 13.991 26.7773 13.7234 26.7773 13.3289V13.0007ZM30.0234 15.989V7.39917H31.6699V15.989H30.0234ZM33.3164 9.76636H34.8516V10.6804C35.0508 10.3679 35.3203 10.114 35.6602 9.9187C36 9.72339 36.377 9.62573 36.791 9.62573C37.5137 9.62573 38.127 9.90894 38.6309 10.4753C39.1348 11.0417 39.3867 11.8308 39.3867 12.8425C39.3867 13.8816 39.1328 14.6902 38.625 15.2683C38.1172 15.8425 37.502 16.1296 36.7793 16.1296C36.4355 16.1296 36.123 16.0613 35.8418 15.9246C35.5645 15.7878 35.2715 15.5535 34.9629 15.2214V18.3562H33.3164V9.76636ZM34.9453 12.7722C34.9453 13.4714 35.084 13.989 35.3613 14.325C35.6387 14.657 35.9766 14.823 36.375 14.823C36.7578 14.823 37.0762 14.6707 37.3301 14.366C37.584 14.0574 37.7109 13.5535 37.7109 12.8542C37.7109 12.2019 37.5801 11.7175 37.3184 11.4011C37.0566 11.0847 36.7324 10.9265 36.3457 10.9265C35.9434 10.9265 35.6094 11.0828 35.3438 11.3953C35.0781 11.7039 34.9453 12.1628 34.9453 12.7722ZM42.3398 7.39917V10.5574C42.8711 9.93628 43.5059 9.62573 44.2441 9.62573C44.623 9.62573 44.9648 9.69604 45.2695 9.83667C45.5742 9.97729 45.8027 10.157 45.9551 10.3757C46.1113 10.5945 46.2168 10.8367 46.2715 11.1023C46.3301 11.3679 46.3594 11.78 46.3594 12.3386V15.989H44.7129V12.7019C44.7129 12.0496 44.6816 11.6355 44.6191 11.4597C44.5566 11.2839 44.4453 11.1453 44.2852 11.0437C44.1289 10.9382 43.9316 10.8855 43.6934 10.8855C43.4199 10.8855 43.1758 10.9519 42.9609 11.0847C42.7461 11.2175 42.5879 11.4187 42.4863 11.6882C42.3887 11.9539 42.3398 12.3484 42.3398 12.8718V15.989H40.6934V7.39917H42.3398ZM49.2656 11.6648L47.7715 11.3953C47.9395 10.7937 48.2285 10.3484 48.6387 10.0593C49.0488 9.77026 49.6582 9.62573 50.4668 9.62573C51.2012 9.62573 51.748 9.71362 52.1074 9.8894C52.4668 10.0613 52.7188 10.282 52.8633 10.5515C53.0117 10.8171 53.0859 11.3074 53.0859 12.0222L53.0684 13.9441C53.0684 14.491 53.0938 14.8953 53.1445 15.157C53.1992 15.4148 53.2988 15.6921 53.4434 15.989H51.8145C51.7715 15.8796 51.7188 15.7175 51.6562 15.5027C51.6289 15.405 51.6094 15.3406 51.5977 15.3093C51.3164 15.5828 51.0156 15.7878 50.6953 15.9246C50.375 16.0613 50.0332 16.1296 49.6699 16.1296C49.0293 16.1296 48.5234 15.9558 48.1523 15.6082C47.7852 15.2605 47.6016 14.821 47.6016 14.2898C47.6016 13.9382 47.6855 13.6257 47.8535 13.3523C48.0215 13.075 48.2559 12.864 48.5566 12.7195C48.8613 12.571 49.2988 12.4421 49.8691 12.3328C50.6387 12.1882 51.1719 12.0535 51.4688 11.9285V11.7644C51.4688 11.448 51.3906 11.2234 51.2344 11.0906C51.0781 10.9539 50.7832 10.8855 50.3496 10.8855C50.0566 10.8855 49.8281 10.9441 49.6641 11.0613C49.5 11.1746 49.3672 11.3757 49.2656 11.6648ZM51.4688 13.0007C51.2578 13.071 50.9238 13.155 50.4668 13.2527C50.0098 13.3503 49.7109 13.446 49.5703 13.5398C49.3555 13.6921 49.248 13.8855 49.248 14.1199C49.248 14.3503 49.334 14.5496 49.5059 14.7175C49.6777 14.8855 49.8965 14.9695 50.1621 14.9695C50.459 14.9695 50.7422 14.8718 51.0117 14.6765C51.2109 14.5281 51.3418 14.3464 51.4043 14.1316C51.4473 13.991 51.4688 13.7234 51.4688 13.3289V13.0007Z" fill="white"/>
<defs>
<linearGradient id="paint0_linear_42_2710" x1="31.5" y1="1.98901" x2="31.5" y2="21.989" gradientUnits="userSpaceOnUse">
<stop stop-color="#E263E2"/>
<stop offset="1" stop-color="#FF9914"/>
</linearGradient>
</defs>
</svg>
