<svg width="51" height="24" viewBox="0 0 51 24" fill="none" xmlns="http://www.w3.org/2000/svg">
<rect x="2" y="1.98901" width="48" height="20" rx="10" fill="url(#paint0_linear_40_2550)"/>
<rect x="2" y="1.98901" width="48" height="20" rx="10" stroke="#75323C" stroke-width="3" stroke-linejoin="round"/>
<path d="M15.6934 12.8308L17.375 13.364C17.1172 14.3015 16.6875 14.9988 16.0859 15.4558C15.4883 15.9089 14.7285 16.1355 13.8066 16.1355C12.666 16.1355 11.7285 15.7468 10.9941 14.9695C10.2598 14.1882 9.89258 13.1218 9.89258 11.7703C9.89258 10.3406 10.2617 9.2312 11 8.44214C11.7383 7.64917 12.709 7.25269 13.9121 7.25269C14.9629 7.25269 15.8164 7.56323 16.4727 8.18433C16.8633 8.55151 17.1562 9.07886 17.3516 9.76636L15.6348 10.1765C15.5332 9.7312 15.3203 9.37964 14.9961 9.12183C14.6758 8.86401 14.2852 8.73511 13.8242 8.73511C13.1875 8.73511 12.6699 8.96362 12.2715 9.42065C11.877 9.87769 11.6797 10.6179 11.6797 11.6414C11.6797 12.7273 11.875 13.5007 12.2656 13.9617C12.6562 14.4226 13.1641 14.6531 13.7891 14.6531C14.25 14.6531 14.6465 14.5066 14.9785 14.2136C15.3105 13.9207 15.5488 13.4597 15.6934 12.8308ZM21.125 15.989V12.3738L17.9785 7.39917H20.0117L22.0332 10.7976L24.0137 7.39917H26.0117L22.8535 12.3855V15.989H21.125ZM32.3691 12.8308L34.0508 13.364C33.793 14.3015 33.3633 14.9988 32.7617 15.4558C32.1641 15.9089 31.4043 16.1355 30.4824 16.1355C29.3418 16.1355 28.4043 15.7468 27.6699 14.9695C26.9355 14.1882 26.5684 13.1218 26.5684 11.7703C26.5684 10.3406 26.9375 9.2312 27.6758 8.44214C28.4141 7.64917 29.3848 7.25269 30.5879 7.25269C31.6387 7.25269 32.4922 7.56323 33.1484 8.18433C33.5391 8.55151 33.832 9.07886 34.0273 9.76636L32.3105 10.1765C32.209 9.7312 31.9961 9.37964 31.6719 9.12183C31.3516 8.86401 30.9609 8.73511 30.5 8.73511C29.8633 8.73511 29.3457 8.96362 28.9473 9.42065C28.5527 9.87769 28.3555 10.6179 28.3555 11.6414C28.3555 12.7273 28.5508 13.5007 28.9414 13.9617C29.332 14.4226 29.8398 14.6531 30.4648 14.6531C30.9258 14.6531 31.3223 14.5066 31.6543 14.2136C31.9863 13.9207 32.2246 13.4597 32.3691 12.8308ZM35.1055 13.1941L36.793 13.03C36.8945 13.5964 37.0996 14.0125 37.4082 14.2781C37.7207 14.5437 38.1406 14.6765 38.668 14.6765C39.2266 14.6765 39.6465 14.5593 39.9277 14.325C40.2129 14.0867 40.3555 13.8093 40.3555 13.4929C40.3555 13.2898 40.2949 13.1179 40.1738 12.9773C40.0566 12.8328 39.8496 12.7078 39.5527 12.6023C39.3496 12.532 38.8867 12.407 38.1641 12.2273C37.2344 11.9968 36.582 11.7136 36.207 11.3777C35.6797 10.905 35.416 10.3289 35.416 9.64917C35.416 9.21167 35.5391 8.80347 35.7852 8.42456C36.0352 8.04175 36.3926 7.75073 36.8574 7.55151C37.3262 7.35229 37.8906 7.25269 38.5508 7.25269C39.6289 7.25269 40.4395 7.48901 40.9824 7.96167C41.5293 8.43433 41.8164 9.06519 41.8438 9.85425L40.1094 9.93042C40.0352 9.48901 39.875 9.17261 39.6289 8.9812C39.3867 8.78589 39.0215 8.68823 38.5332 8.68823C38.0293 8.68823 37.6348 8.79175 37.3496 8.99878C37.166 9.13159 37.0742 9.30933 37.0742 9.53198C37.0742 9.73511 37.1602 9.90894 37.332 10.0535C37.5508 10.2371 38.082 10.4285 38.9258 10.6277C39.7695 10.8269 40.3926 11.0339 40.7949 11.2488C41.2012 11.4597 41.5176 11.7507 41.7441 12.1218C41.9746 12.489 42.0898 12.9441 42.0898 13.4871C42.0898 13.9792 41.9531 14.4402 41.6797 14.8699C41.4062 15.2996 41.0195 15.6199 40.5195 15.8308C40.0195 16.0378 39.3965 16.1414 38.6504 16.1414C37.5645 16.1414 36.7305 15.8914 36.1484 15.3914C35.5664 14.8875 35.2188 14.155 35.1055 13.1941Z" fill="white"/>
<defs>
<linearGradient id="paint0_linear_40_2550" x1="26" y1="1.98901" x2="26" y2="21.989" gradientUnits="userSpaceOnUse">
<stop stop-color="#75323C"/>
<stop offset="1" stop-color="#D8707F"/>
</linearGradient>
</defs>
</svg>
