<svg width="50" height="24" viewBox="0 0 50 24" fill="none" xmlns="http://www.w3.org/2000/svg">
<rect x="2" y="1.98901" width="47" height="20" rx="10" fill="url(#paint0_linear_67_1838)"/>
<rect x="2" y="1.98901" width="47" height="20" rx="10" stroke="#163D43" stroke-width="3" stroke-linejoin="round"/>
<path d="M10.3652 15.989V7.39917H14.0156C14.9336 7.39917 15.5996 7.47729 16.0137 7.63354C16.4316 7.78589 16.7656 8.05933 17.0156 8.45386C17.2656 8.84839 17.3906 9.29956 17.3906 9.80737C17.3906 10.4519 17.2012 10.9851 16.8223 11.407C16.4434 11.825 15.877 12.0886 15.123 12.198C15.498 12.4167 15.8066 12.657 16.0488 12.9187C16.2949 13.1804 16.625 13.6453 17.0391 14.3132L18.0879 15.989H16.0137L14.7598 14.1199C14.3145 13.4519 14.0098 13.032 13.8457 12.8601C13.6816 12.6843 13.5078 12.5652 13.3242 12.5027C13.1406 12.4363 12.8496 12.4031 12.4512 12.4031H12.0996V15.989H10.3652ZM12.0996 11.032H13.3828C14.2148 11.032 14.7344 10.9968 14.9414 10.9265C15.1484 10.8562 15.3105 10.7351 15.4277 10.5632C15.5449 10.3914 15.6035 10.1765 15.6035 9.9187C15.6035 9.62964 15.5254 9.39722 15.3691 9.22144C15.2168 9.04175 15 8.92847 14.7188 8.88159C14.5781 8.86206 14.1562 8.85229 13.4531 8.85229H12.0996V11.032ZM26.7773 15.989H24.8906L24.1406 14.0378H20.707L19.998 15.989H18.1582L21.5039 7.39917H23.3379L26.7773 15.989ZM23.584 12.5906L22.4004 9.40308L21.2402 12.5906H23.584ZM27.7031 15.989V7.39917H30.4863C31.541 7.39917 32.2285 7.44214 32.5488 7.52808C33.041 7.65698 33.4531 7.93823 33.7852 8.37183C34.1172 8.80151 34.2832 9.35815 34.2832 10.0417C34.2832 10.5691 34.1875 11.0125 33.9961 11.3718C33.8047 11.7312 33.5605 12.0144 33.2637 12.2214C32.9707 12.4246 32.6719 12.5593 32.3672 12.6257C31.9531 12.7078 31.3535 12.7488 30.5684 12.7488H29.4375V15.989H27.7031ZM29.4375 8.85229V11.2898H30.3867C31.0703 11.2898 31.5273 11.2449 31.7578 11.155C31.9883 11.0652 32.168 10.9246 32.2969 10.7332C32.4297 10.5417 32.4961 10.3191 32.4961 10.0652C32.4961 9.75269 32.4043 9.49487 32.2207 9.29175C32.0371 9.08862 31.8047 8.96167 31.5234 8.91089C31.3164 8.87183 30.9004 8.85229 30.2754 8.85229H29.4375ZM39.5566 15.989H37.9102V9.78394C37.3086 10.3464 36.5996 10.7625 35.7832 11.032V9.53784C36.2129 9.39722 36.6797 9.13159 37.1836 8.74097C37.6875 8.34644 38.0332 7.88745 38.2207 7.36401H39.5566V15.989Z" fill="white"/>
<defs>
<linearGradient id="paint0_linear_67_1838" x1="25.5" y1="1.98901" x2="25.5" y2="21.989" gradientUnits="userSpaceOnUse">
<stop stop-color="#163D43"/>
<stop offset="1" stop-color="#6BD1AC"/>
</linearGradient>
</defs>
</svg>
