<svg width="50" height="24" viewBox="0 0 50 24" fill="none" xmlns="http://www.w3.org/2000/svg">
<rect x="2" y="1.98901" width="47" height="20" rx="10" fill="url(#paint0_linear_40_2573)"/>
<rect x="2" y="1.98901" width="47" height="20" rx="10" stroke="#008269" stroke-width="3" stroke-linejoin="round"/>
<path d="M10.3535 7.39917H13.5234C14.2383 7.39917 14.7832 7.45386 15.1582 7.56323C15.6621 7.71167 16.0938 7.97534 16.4531 8.35425C16.8125 8.73315 17.0859 9.198 17.2734 9.74878C17.4609 10.2957 17.5547 10.9714 17.5547 11.7761C17.5547 12.4832 17.4668 13.0925 17.291 13.6042C17.0762 14.2292 16.7695 14.7351 16.3711 15.1218C16.0703 15.4148 15.6641 15.6433 15.1523 15.8074C14.7695 15.9285 14.2578 15.989 13.6172 15.989H10.3535V7.39917ZM12.0879 8.85229V14.5417H13.3828C13.8672 14.5417 14.2168 14.5144 14.4316 14.4597C14.7129 14.3894 14.9453 14.2703 15.1289 14.1023C15.3164 13.9343 15.4688 13.6589 15.5859 13.2761C15.7031 12.8894 15.7617 12.364 15.7617 11.7C15.7617 11.0359 15.7031 10.5261 15.5859 10.1707C15.4688 9.81519 15.3047 9.53784 15.0938 9.33862C14.8828 9.1394 14.6152 9.00464 14.291 8.93433C14.0488 8.87964 13.5742 8.85229 12.8672 8.85229H12.0879ZM19.0781 15.989V7.46948H20.8125V14.5417H25.125V15.989H19.0781ZM30.3633 12.8308V11.3835H34.1016V14.8054C33.7383 15.157 33.2109 15.4675 32.5195 15.7371C31.832 16.0027 31.1348 16.1355 30.4277 16.1355C29.5293 16.1355 28.7461 15.948 28.0781 15.573C27.4102 15.1941 26.9082 14.655 26.5723 13.9558C26.2363 13.2527 26.0684 12.489 26.0684 11.6648C26.0684 10.7703 26.2559 9.97534 26.6309 9.28003C27.0059 8.58472 27.5547 8.05151 28.2773 7.68042C28.8281 7.39526 29.5137 7.25269 30.334 7.25269C31.4004 7.25269 32.2324 7.47729 32.8301 7.92651C33.4316 8.37183 33.8184 8.98901 33.9902 9.77808L32.2676 10.1003C32.1465 9.67847 31.918 9.34644 31.582 9.10425C31.25 8.85815 30.834 8.73511 30.334 8.73511C29.5762 8.73511 28.9727 8.97534 28.5234 9.45581C28.0781 9.93628 27.8555 10.6492 27.8555 11.5945C27.8555 12.614 28.082 13.3796 28.5352 13.8914C28.9883 14.3992 29.582 14.6531 30.3164 14.6531C30.6797 14.6531 31.043 14.5828 31.4062 14.4421C31.7734 14.2976 32.0879 14.1238 32.3496 13.9207V12.8308H30.3633ZM35.1152 14.2136L36.7676 13.9617C36.8379 14.282 36.9805 14.5261 37.1953 14.6941C37.4102 14.8582 37.7109 14.9402 38.0977 14.9402C38.5234 14.9402 38.8438 14.8621 39.0586 14.7058C39.2031 14.5964 39.2754 14.45 39.2754 14.2664C39.2754 14.1414 39.2363 14.0378 39.1582 13.9558C39.0762 13.8777 38.8926 13.8054 38.6074 13.739C37.2793 13.446 36.4375 13.1785 36.082 12.9363C35.5898 12.6003 35.3438 12.1335 35.3438 11.5359C35.3438 10.9968 35.5566 10.5437 35.9824 10.1765C36.4082 9.80933 37.0684 9.62573 37.9629 9.62573C38.8145 9.62573 39.4473 9.7644 39.8613 10.0417C40.2754 10.3191 40.5605 10.7292 40.7168 11.2722L39.1641 11.5593C39.0977 11.3171 38.9707 11.1316 38.7832 11.0027C38.5996 10.8738 38.3359 10.8093 37.9922 10.8093C37.5586 10.8093 37.248 10.8699 37.0605 10.991C36.9355 11.0769 36.873 11.1882 36.873 11.325C36.873 11.4421 36.9277 11.5417 37.0371 11.6238C37.1855 11.7332 37.6973 11.8875 38.5723 12.0867C39.4512 12.2859 40.0645 12.53 40.4121 12.8191C40.7559 13.1121 40.9277 13.5203 40.9277 14.0437C40.9277 14.614 40.6895 15.1042 40.2129 15.5144C39.7363 15.9246 39.0312 16.1296 38.0977 16.1296C37.25 16.1296 36.5781 15.9578 36.082 15.614C35.5898 15.2703 35.2676 14.8035 35.1152 14.2136Z" fill="white"/>
<defs>
<linearGradient id="paint0_linear_40_2573" x1="25.5" y1="1.98901" x2="25.5" y2="21.989" gradientUnits="userSpaceOnUse">
<stop stop-color="#008269"/>
<stop offset="1" stop-color="#FF5200"/>
</linearGradient>
</defs>
</svg>
