<svg width="65" height="24" viewBox="0 0 65 24" fill="none" xmlns="http://www.w3.org/2000/svg">
<rect x="1" y="1.98901" width="63" height="20" rx="10" fill="url(#paint0_linear_42_2621)"/>
<rect x="1" y="1.98901" width="63" height="20" rx="10" stroke="#238065" stroke-width="3" stroke-linejoin="round"/>
<path d="M14.5176 12.8308L16.1992 13.364C15.9414 14.3015 15.5117 14.9988 14.9102 15.4558C14.3125 15.9089 13.5527 16.1355 12.6309 16.1355C11.4902 16.1355 10.5527 15.7468 9.81836 14.9695C9.08398 14.1882 8.7168 13.1218 8.7168 11.7703C8.7168 10.3406 9.08594 9.2312 9.82422 8.44214C10.5625 7.64917 11.5332 7.25269 12.7363 7.25269C13.7871 7.25269 14.6406 7.56323 15.2969 8.18433C15.6875 8.55151 15.9805 9.07886 16.1758 9.76636L14.459 10.1765C14.3574 9.7312 14.1445 9.37964 13.8203 9.12183C13.5 8.86401 13.1094 8.73511 12.6484 8.73511C12.0117 8.73511 11.4941 8.96362 11.0957 9.42065C10.7012 9.87769 10.5039 10.6179 10.5039 11.6414C10.5039 12.7273 10.6992 13.5007 11.0898 13.9617C11.4805 14.4226 11.9883 14.6531 12.6133 14.6531C13.0742 14.6531 13.4707 14.5066 13.8027 14.2136C14.1348 13.9207 14.373 13.4597 14.5176 12.8308ZM17.2539 13.1941L18.9414 13.03C19.043 13.5964 19.248 14.0125 19.5566 14.2781C19.8691 14.5437 20.2891 14.6765 20.8164 14.6765C21.375 14.6765 21.7949 14.5593 22.0762 14.325C22.3613 14.0867 22.5039 13.8093 22.5039 13.4929C22.5039 13.2898 22.4434 13.1179 22.3223 12.9773C22.2051 12.8328 21.998 12.7078 21.7012 12.6023C21.498 12.532 21.0352 12.407 20.3125 12.2273C19.3828 11.9968 18.7305 11.7136 18.3555 11.3777C17.8281 10.905 17.5645 10.3289 17.5645 9.64917C17.5645 9.21167 17.6875 8.80347 17.9336 8.42456C18.1836 8.04175 18.541 7.75073 19.0059 7.55151C19.4746 7.35229 20.0391 7.25269 20.6992 7.25269C21.7773 7.25269 22.5879 7.48901 23.1309 7.96167C23.6777 8.43433 23.9648 9.06519 23.9922 9.85425L22.2578 9.93042C22.1836 9.48901 22.0234 9.17261 21.7773 8.9812C21.5352 8.78589 21.1699 8.68823 20.6816 8.68823C20.1777 8.68823 19.7832 8.79175 19.498 8.99878C19.3145 9.13159 19.2227 9.30933 19.2227 9.53198C19.2227 9.73511 19.3086 9.90894 19.4805 10.0535C19.6992 10.2371 20.2305 10.4285 21.0742 10.6277C21.918 10.8269 22.541 11.0339 22.9434 11.2488C23.3496 11.4597 23.666 11.7507 23.8926 12.1218C24.123 12.489 24.2383 12.9441 24.2383 13.4871C24.2383 13.9792 24.1016 14.4402 23.8281 14.8699C23.5547 15.2996 23.168 15.6199 22.668 15.8308C22.168 16.0378 21.5449 16.1414 20.7988 16.1414C19.7129 16.1414 18.8789 15.8914 18.2969 15.3914C17.7148 14.8875 17.3672 14.155 17.2539 13.1941ZM25.7148 15.989V7.39917H27.4023L30.918 13.1355V7.39917H32.5293V15.989H30.7891L27.3262 10.3875V15.989H25.7148ZM34.3926 15.989V7.39917H36.127V11.2136L39.6309 7.39917H41.9629L38.7285 10.7449L42.1387 15.989H39.8945L37.5332 11.9578L36.127 13.3933V15.989H34.3926ZM46.8906 15.989H45.2441V9.78394C44.6426 10.3464 43.9336 10.7625 43.1172 11.032V9.53784C43.5469 9.39722 44.0137 9.13159 44.5176 8.74097C45.0215 8.34644 45.3672 7.88745 45.5547 7.36401H46.8906V15.989ZM49.7207 15.989V7.39917H56.0898V8.85229H51.4551V10.7566H55.7676V12.2039H51.4551V14.5417H56.2539V15.989H49.7207Z" fill="white"/>
<defs>
<linearGradient id="paint0_linear_42_2621" x1="32.5" y1="1.98901" x2="32.5" y2="21.989" gradientUnits="userSpaceOnUse">
<stop stop-color="#238065"/>
<stop offset="1" stop-color="#8482BA"/>
</linearGradient>
</defs>
</svg>
