<svg width="64" height="24" viewBox="0 0 64 24" fill="none" xmlns="http://www.w3.org/2000/svg">
<rect x="2" y="1.98901" width="61" height="20" rx="10" fill="url(#paint0_linear_40_2535)"/>
<rect x="2" y="1.98901" width="61" height="20" rx="10" stroke="#9A51BF" stroke-width="3" stroke-linejoin="round"/>
<path d="M15.8477 12.8308L17.5293 13.364C17.2715 14.3015 16.8418 14.9988 16.2402 15.4558C15.6426 15.9089 14.8828 16.1355 13.9609 16.1355C12.8203 16.1355 11.8828 15.7468 11.1484 14.9695C10.4141 14.1882 10.0469 13.1218 10.0469 11.7703C10.0469 10.3406 10.416 9.2312 11.1543 8.44214C11.8926 7.64917 12.8633 7.25269 14.0664 7.25269C15.1172 7.25269 15.9707 7.56323 16.627 8.18433C17.0176 8.55151 17.3105 9.07886 17.5059 9.76636L15.7891 10.1765C15.6875 9.7312 15.4746 9.37964 15.1504 9.12183C14.8301 8.86401 14.4395 8.73511 13.9785 8.73511C13.3418 8.73511 12.8242 8.96362 12.4258 9.42065C12.0312 9.87769 11.834 10.6179 11.834 11.6414C11.834 12.7273 12.0293 13.5007 12.4199 13.9617C12.8105 14.4226 13.3184 14.6531 13.9434 14.6531C14.4043 14.6531 14.8008 14.5066 15.1328 14.2136C15.4648 13.9207 15.7031 13.4597 15.8477 12.8308ZM19.0293 15.989V7.39917H20.7637V10.78H24.1621V7.39917H25.8965V15.989H24.1621V12.2332H20.7637V15.989H19.0293ZM27.2559 13.1941L28.9434 13.03C29.0449 13.5964 29.25 14.0125 29.5586 14.2781C29.8711 14.5437 30.291 14.6765 30.8184 14.6765C31.377 14.6765 31.7969 14.5593 32.0781 14.325C32.3633 14.0867 32.5059 13.8093 32.5059 13.4929C32.5059 13.2898 32.4453 13.1179 32.3242 12.9773C32.207 12.8328 32 12.7078 31.7031 12.6023C31.5 12.532 31.0371 12.407 30.3145 12.2273C29.3848 11.9968 28.7324 11.7136 28.3574 11.3777C27.8301 10.905 27.5664 10.3289 27.5664 9.64917C27.5664 9.21167 27.6895 8.80347 27.9355 8.42456C28.1855 8.04175 28.543 7.75073 29.0078 7.55151C29.4766 7.35229 30.041 7.25269 30.7012 7.25269C31.7793 7.25269 32.5898 7.48901 33.1328 7.96167C33.6797 8.43433 33.9668 9.06519 33.9941 9.85425L32.2598 9.93042C32.1855 9.48901 32.0254 9.17261 31.7793 8.9812C31.5371 8.78589 31.1719 8.68823 30.6836 8.68823C30.1797 8.68823 29.7852 8.79175 29.5 8.99878C29.3164 9.13159 29.2246 9.30933 29.2246 9.53198C29.2246 9.73511 29.3105 9.90894 29.4824 10.0535C29.7012 10.2371 30.2324 10.4285 31.0762 10.6277C31.9199 10.8269 32.543 11.0339 32.9453 11.2488C33.3516 11.4597 33.668 11.7507 33.8945 12.1218C34.125 12.489 34.2402 12.9441 34.2402 13.4871C34.2402 13.9792 34.1035 14.4402 33.8301 14.8699C33.5566 15.2996 33.1699 15.6199 32.6699 15.8308C32.1699 16.0378 31.5469 16.1414 30.8008 16.1414C29.7148 16.1414 28.8809 15.8914 28.2988 15.3914C27.7168 14.8875 27.3691 14.155 27.2559 13.1941ZM37.6328 15.989V8.85229H35.084V7.39917H41.9102V8.85229H39.3672V15.989H37.6328ZM46.8848 15.989H45.2383V9.78394C44.6367 10.3464 43.9277 10.7625 43.1113 11.032V9.53784C43.541 9.39722 44.0078 9.13159 44.5117 8.74097C45.0156 8.34644 45.3613 7.88745 45.5488 7.36401H46.8848V15.989ZM52.5801 15.989V14.2605H49.0645V12.8191L52.791 7.36401H54.1738V12.8132H55.2402V14.2605H54.1738V15.989H52.5801ZM52.5801 12.8132V9.87769L50.6055 12.8132H52.5801Z" fill="white"/>
<defs>
<linearGradient id="paint0_linear_40_2535" x1="32.5" y1="1.98901" x2="32.5" y2="21.989" gradientUnits="userSpaceOnUse">
<stop stop-color="#9A51BF"/>
<stop offset="1" stop-color="#7B4A08"/>
</linearGradient>
</defs>
</svg>
