<svg width="86" height="46" viewBox="0 0 86 46" fill="none" xmlns="http://www.w3.org/2000/svg">
<path d="M32.6832 0.273438C33.9493 0.273438 35.0987 0.761737 36.0064 1.68554C38.6876 4.41604 38.7852 10.3144 38.629 19.0009C38.6056 20.288 38.5831 21.5292 38.5831 22.6689C38.5831 23.7207 38.5675 24.8574 38.5514 26.0371C38.504 29.5137 38.3991 37.2217 39.4474 39.6182C40.4757 37.1465 40.3234 29.3428 40.2623 26.2227C40.2379 24.9825 40.2154 23.8204 40.2154 22.8028C40.2154 21.7198 40.1832 20.4649 40.149 19.1231C39.9356 10.711 39.9913 4.54404 42.6666 1.79994C43.5548 0.888838 44.6783 0.407338 45.9156 0.407338C47.1778 0.407338 48.3238 0.894638 49.2296 1.81754C51.9156 4.55294 52.0143 10.7462 51.8609 19.1964C51.838 20.4679 51.8155 21.6886 51.8155 22.8028C51.8316 24.001 51.8218 25.3604 51.8111 26.7745C51.7847 30.3458 51.733 37.3809 52.7017 39.7208C53.6665 37.296 53.5274 29.9112 53.4644 26.5655C53.4395 25.2315 53.4156 23.9561 53.4156 22.8028C53.4346 21.3292 53.4024 19.7188 53.3682 18.0137C53.2061 9.90044 53.2896 4.38874 55.8262 1.80184C56.7202 0.889737 57.8574 0.407338 59.1158 0.407338C60.378 0.407338 61.524 0.894638 62.4298 1.81754C65.1158 4.55294 65.2145 10.7462 65.0611 19.1964C65.0382 20.4679 65.0157 21.6886 65.0157 22.8028C65.0157 23.8087 65.0015 24.8995 64.9869 26.0362C64.9415 29.5391 64.8409 37.2969 65.8946 39.7393C66.8673 37.3331 66.7281 29.92 66.6646 26.5655C66.6397 25.2315 66.6158 23.9561 66.6158 22.8028C66.6348 21.335 66.6031 19.7247 66.5699 18.0216C66.4097 9.82534 66.4952 4.25894 69.0416 1.66224C69.9322 0.753938 71.0645 0.273438 72.316 0.273438C73.5797 0.273438 74.7271 0.760737 75.6334 1.68364C78.3155 4.41414 78.4151 10.3213 78.2608 19.0225C78.2379 20.3018 78.2159 21.5362 78.2159 22.669C78.2159 23.8663 78.191 25.1739 78.1646 26.5284C78.0943 30.1591 77.9322 38.5634 79.2618 40.0644H82.6597C84.0406 40.0644 85.1597 41.1835 85.1597 42.5644C85.1597 43.9453 84.0406 45.0644 82.6597 45.0644H79.1158C77.8385 45.0644 76.6807 44.5722 75.7681 43.6415C73.0899 40.911 72.9991 35.0546 73.1656 26.4315C73.191 25.1112 73.2159 23.8358 73.2159 22.6688C73.2159 21.5086 73.2384 20.244 73.2613 18.9334C73.3228 15.4627 73.4615 7.66484 72.3409 5.56044C71.3663 7.56924 71.5015 14.4676 71.5689 17.9227C71.6031 19.6688 71.6353 21.3182 71.6158 22.8348C71.6158 23.9266 71.6392 25.1707 71.6637 26.4705C71.8287 35.2176 71.7394 41.1521 69.1051 43.8367C68.2311 44.7273 67.128 45.198 65.9156 45.198C64.6978 45.198 63.5875 44.7253 62.7042 43.8298C60.003 41.0935 59.8741 34.7019 59.9874 25.9704C60.0016 24.8571 60.0157 23.7878 60.0157 22.8024C60.0157 21.6608 60.0382 20.4088 60.0621 19.1051C60.1251 15.6197 60.2677 7.78384 59.1329 5.68524C58.1622 7.65694 58.2989 14.4918 58.3673 17.9127C58.4025 19.6607 58.4352 21.3111 58.4156 22.8346C58.4156 23.9264 58.439 25.1705 58.4635 26.4703C58.6285 35.2174 58.5392 41.1519 55.9049 43.8365C55.0309 44.7271 53.9278 45.1978 52.7154 45.1978C51.5054 45.1978 50.4024 44.731 49.5255 43.8472C46.902 41.2046 46.7477 35.357 46.8116 26.7368C46.8219 25.3598 46.8316 24.0356 46.8155 22.8354C46.8155 21.6606 46.838 20.4086 46.8619 19.1049C46.9249 15.6391 47.066 7.86864 45.9513 5.71924C44.8663 7.92724 45.0607 15.5786 45.1476 18.9956C45.1828 20.3833 45.2155 21.6821 45.2155 22.8022C45.2155 23.7905 45.238 24.9194 45.2614 26.1245C45.4289 34.6929 45.34 40.9692 42.6579 43.7046C41.7858 44.5942 40.6877 45.064 39.4831 45.064C38.2541 45.064 37.135 44.5874 36.2463 43.687C33.552 40.9556 33.4304 34.8979 33.552 25.9682C33.5681 24.8129 33.5832 23.6987 33.5832 22.6684C33.5832 21.5014 33.6061 20.2289 33.6296 18.9106C33.6921 15.4399 33.8332 7.63724 32.7082 5.55224C31.7292 7.54444 31.8664 14.4497 31.9348 17.9047C31.9695 19.6576 32.0022 21.3129 31.9827 22.8354C31.9827 23.9272 32.0061 25.1713 32.031 26.4721C32.1956 35.2182 32.1067 41.1528 29.4729 43.8364C28.5989 44.727 27.4963 45.1977 26.2834 45.1977C25.0656 45.1977 23.9553 44.725 23.0715 43.8295C20.3703 41.0932 20.2414 34.7006 20.3547 25.9691C20.3693 24.8558 20.383 23.7875 20.383 22.8021C20.383 21.6605 20.4055 20.4085 20.4289 19.1048C20.4924 15.6194 20.635 7.78354 19.5002 5.68494C18.5295 7.65564 18.6662 14.4896 18.7346 17.9095C18.7688 19.6585 18.802 21.3099 18.7825 22.8353C18.7825 23.9261 18.8059 25.1703 18.8304 26.4701C18.9954 35.2172 18.9066 41.1517 16.2718 43.8363C15.3978 44.7269 14.2952 45.1976 13.0823 45.1976C11.8723 45.1976 10.7698 44.7308 9.89284 43.847C7.26864 41.205 7.11444 35.3554 7.17884 26.7334C7.18864 25.3574 7.19834 24.0342 7.18274 22.8359C7.18274 21.6611 7.20524 20.4091 7.22864 19.1054C7.29214 15.6093 7.43564 7.73534 6.28914 5.66594C5.15634 7.77044 5.39164 15.7196 5.49614 19.2489C5.53224 20.4891 5.56744 21.6796 5.58204 22.7694C5.68164 30.2284 5.68264 42.5741 5.68264 42.6981C5.68264 44.079 4.56354 45.1981 3.18264 45.1981C1.80174 45.1981 0.682642 44.079 0.682642 42.6981C0.682642 42.5751 0.681642 30.2616 0.582042 22.8358C0.568342 21.7704 0.533242 20.6083 0.498042 19.3963C0.245142 10.8563 0.274442 4.59754 2.96094 1.82994C3.86534 0.899437 5.01384 0.407237 6.28234 0.407237C7.54504 0.407237 8.69054 0.894538 9.59684 1.81744C12.2823 4.55284 12.382 10.7461 12.2277 19.1963C12.2052 20.4678 12.1828 21.6895 12.1828 22.8027C12.1984 24 12.1887 25.3584 12.1789 26.7705C12.1525 30.3428 12.0998 37.3789 13.0685 39.7207C14.0333 37.2949 13.8947 29.9111 13.8312 26.5654C13.8058 25.2314 13.7824 23.956 13.7824 22.8027C13.8019 21.3281 13.7697 19.7168 13.7355 18.0107C13.5734 9.89944 13.6564 4.38864 16.1925 1.80074C17.087 0.889638 18.2247 0.407137 19.4825 0.407137C20.7452 0.407137 21.8907 0.894437 22.797 1.81734C25.4825 4.55274 25.5822 10.746 25.4288 19.1962C25.4054 20.4677 25.3829 21.6894 25.3829 22.8026C25.3829 23.8075 25.3692 24.8983 25.3546 26.034C25.3087 29.5369 25.2081 37.2957 26.2618 39.7381C27.2345 37.3319 27.0948 29.9207 27.0313 26.5662C27.0059 25.2322 26.9825 23.9558 26.9825 22.8025C27.002 21.3298 26.9698 19.7146 26.9356 18.0046C26.7735 9.82004 26.8575 4.26144 29.4034 1.66384C30.2955 0.753938 31.4298 0.273438 32.6832 0.273438Z" fill="url(#paint0_linear_86_3019)"/>
<path d="M2.11431 41.6983C2.11431 41.6983 2.11431 29.3309 2.01431 21.8029C1.91431 14.2749 0.814206 1.90745 5.21441 1.90745C9.61461 1.90745 8.61451 14.2748 8.61451 21.8028C8.71451 29.3308 7.81441 41.6982 12.0146 41.6982C16.2148 41.6982 15.2147 29.1963 15.2147 21.8028C15.3147 14.1404 14.0146 1.90745 18.4148 1.90745C22.815 1.90745 21.8149 14.2748 21.8149 21.8028C21.8149 29.3308 21.0148 41.6982 25.215 41.6982C29.4152 41.6982 28.4151 29.1963 28.4151 21.8028C28.5151 14.1404 27.215 1.77295 31.6152 1.77295C36.0154 1.77295 35.0153 14.0059 35.0153 21.6683C35.0153 29.3307 34.1831 41.5637 38.4154 41.5637C42.6477 41.5637 41.6472 28.506 41.6472 21.8029C41.6472 15.0998 40.4471 1.90745 44.8473 1.90745C49.2475 1.90745 48.2474 14.2748 48.2474 21.8028C48.3474 29.3308 47.4473 41.6982 51.6475 41.6982C55.8477 41.6982 54.8476 29.1963 54.8476 21.8028C54.9476 14.1404 53.6475 1.90745 58.0477 1.90745C62.4479 1.90745 61.4478 14.2748 61.4478 21.8028C61.4478 29.3308 60.6477 41.6982 64.8479 41.6982C69.0481 41.6982 68.048 29.1963 68.048 21.8028C68.148 14.1404 66.8586 1.77295 71.2481 1.77295C75.6376 1.77295 74.6482 14.0059 74.6482 21.6683C74.6482 29.3307 73.6005 41.5637 78.0483 41.5637C82.4961 41.5637 81.496 41.5637 81.496 41.5637" stroke="url(#paint1_linear_86_3019)" stroke-width="1.5" stroke-miterlimit="10" stroke-linecap="round" stroke-linejoin="round"/>
<defs>
<linearGradient id="paint0_linear_86_3019" x1="42.7785" y1="45.1982" x2="42.7785" y2="0.273438" gradientUnits="userSpaceOnUse">
<stop stop-color="#69611E"/>
<stop offset="1" stop-color="#C2B61B"/>
</linearGradient>
<linearGradient id="paint1_linear_86_3019" x1="41.7061" y1="42.4483" x2="41.7061" y2="1.02305" gradientUnits="userSpaceOnUse">
<stop offset="0.6001" stop-color="#E0D541"/>
<stop offset="0.8192" stop-color="#E0DEC5"/>
<stop offset="1" stop-color="#E0D541"/>
</linearGradient>
</defs>
</svg>
