<svg width="68" height="36" viewBox="0 0 68 36" fill="none" xmlns="http://www.w3.org/2000/svg">
<rect x="2" y="1.98901" width="65" height="32" rx="10" fill="url(#paint0_linear_83_1992)"/>
<rect x="2" y="1.98901" width="65" height="32" rx="10" stroke="#00BC62" stroke-width="3" stroke-linejoin="round"/>
<path d="M9.91992 12.1941L11.6074 12.03C11.709 12.5964 11.9141 13.0125 12.2227 13.2781C12.5352 13.5437 12.9551 13.6765 13.4824 13.6765C14.041 13.6765 14.4609 13.5593 14.7422 13.325C15.0273 13.0867 15.1699 12.8093 15.1699 12.4929C15.1699 12.2898 15.1094 12.1179 14.9883 11.9773C14.8711 11.8328 14.6641 11.7078 14.3672 11.6023C14.1641 11.532 13.7012 11.407 12.9785 11.2273C12.0488 10.9968 11.3965 10.7136 11.0215 10.3777C10.4941 9.90503 10.2305 9.32886 10.2305 8.64917C10.2305 8.21167 10.3535 7.80347 10.5996 7.42456C10.8496 7.04175 11.207 6.75073 11.6719 6.55151C12.1406 6.35229 12.7051 6.25269 13.3652 6.25269C14.4434 6.25269 15.2539 6.48901 15.7969 6.96167C16.3438 7.43433 16.6309 8.06519 16.6582 8.85425L14.9238 8.93042C14.8496 8.48901 14.6895 8.17261 14.4434 7.9812C14.2012 7.78589 13.8359 7.68823 13.3477 7.68823C12.8438 7.68823 12.4492 7.79175 12.1641 7.99878C11.9805 8.13159 11.8887 8.30933 11.8887 8.53198C11.8887 8.73511 11.9746 8.90894 12.1465 9.05347C12.3652 9.23706 12.8965 9.42847 13.7402 9.62769C14.584 9.8269 15.207 10.0339 15.6094 10.2488C16.0156 10.4597 16.332 10.7507 16.5586 11.1218C16.7891 11.489 16.9043 11.9441 16.9043 12.4871C16.9043 12.9792 16.7676 13.4402 16.4941 13.8699C16.2207 14.2996 15.834 14.6199 15.334 14.8308C14.834 15.0378 14.2109 15.1414 13.4648 15.1414C12.3789 15.1414 11.5449 14.8914 10.9629 14.3914C10.3809 13.8875 10.0332 13.155 9.91992 12.1941ZM19.582 14.989L17.5312 6.39917H19.3066L20.6016 12.2996L22.1719 6.39917H24.2344L25.7402 12.3992L27.0586 6.39917H28.8047L26.7188 14.989H24.8789L23.168 8.56714L21.4629 14.989H19.582ZM29.6426 14.989V6.39917H31.377V14.989H29.6426ZM32.1445 15.1355L34.2715 6.25269H35.5078L33.3574 15.1355H32.1445ZM35.9355 12.1941L37.623 12.03C37.7246 12.5964 37.9297 13.0125 38.2383 13.2781C38.5508 13.5437 38.9707 13.6765 39.498 13.6765C40.0566 13.6765 40.4766 13.5593 40.7578 13.325C41.043 13.0867 41.1855 12.8093 41.1855 12.4929C41.1855 12.2898 41.125 12.1179 41.0039 11.9773C40.8867 11.8328 40.6797 11.7078 40.3828 11.6023C40.1797 11.532 39.7168 11.407 38.9941 11.2273C38.0645 10.9968 37.4121 10.7136 37.0371 10.3777C36.5098 9.90503 36.2461 9.32886 36.2461 8.64917C36.2461 8.21167 36.3691 7.80347 36.6152 7.42456C36.8652 7.04175 37.2227 6.75073 37.6875 6.55151C38.1562 6.35229 38.7207 6.25269 39.3809 6.25269C40.459 6.25269 41.2695 6.48901 41.8125 6.96167C42.3594 7.43433 42.6465 8.06519 42.6738 8.85425L40.9395 8.93042C40.8652 8.48901 40.7051 8.17261 40.459 7.9812C40.2168 7.78589 39.8516 7.68823 39.3633 7.68823C38.8594 7.68823 38.4648 7.79175 38.1797 7.99878C37.9961 8.13159 37.9043 8.30933 37.9043 8.53198C37.9043 8.73511 37.9902 8.90894 38.1621 9.05347C38.3809 9.23706 38.9121 9.42847 39.7559 9.62769C40.5996 9.8269 41.2227 10.0339 41.625 10.2488C42.0312 10.4597 42.3477 10.7507 42.5742 11.1218C42.8047 11.489 42.9199 11.9441 42.9199 12.4871C42.9199 12.9792 42.7832 13.4402 42.5098 13.8699C42.2363 14.2996 41.8496 14.6199 41.3496 14.8308C40.8496 15.0378 40.2266 15.1414 39.4805 15.1414C38.3945 15.1414 37.5605 14.8914 36.9785 14.3914C36.3965 13.8875 36.0488 13.155 35.9355 12.1941ZM44.3965 14.989V6.39917H46.084L49.5996 12.1355V6.39917H51.2109V14.989H49.4707L46.0078 9.38745V14.989H44.3965ZM53.0625 14.989V6.39917H58.9512V7.85229H54.7969V9.8855H58.3828V11.3386H54.7969V14.989H53.0625ZM16.4238 24.6062L14.8008 24.8992C14.7461 24.575 14.6211 24.3308 14.4258 24.1667C14.2344 24.0027 13.9844 23.9207 13.6758 23.9207C13.2656 23.9207 12.9375 24.0632 12.6914 24.3484C12.4492 24.6296 12.3281 25.1023 12.3281 25.7664C12.3281 26.5046 12.4512 27.0261 12.6973 27.3308C12.9473 27.6355 13.2812 27.7878 13.6992 27.7878C14.0117 27.7878 14.2676 27.7 14.4668 27.5242C14.666 27.3445 14.8066 27.0378 14.8887 26.6042L16.5059 26.8796C16.3379 27.6218 16.0156 28.1824 15.5391 28.5613C15.0625 28.9402 14.4238 29.1296 13.623 29.1296C12.7129 29.1296 11.9863 28.8425 11.4434 28.2683C10.9043 27.6941 10.6348 26.8992 10.6348 25.8835C10.6348 24.8562 10.9062 24.0574 11.4492 23.4871C11.9922 22.9128 12.7266 22.6257 13.6523 22.6257C14.4102 22.6257 15.0117 22.7898 15.457 23.1179C15.9062 23.4421 16.2285 23.9382 16.4238 24.6062ZM17.2969 25.7898C17.2969 25.2429 17.4316 24.7136 17.7012 24.2019C17.9707 23.6902 18.3516 23.2996 18.8438 23.03C19.3398 22.7605 19.8926 22.6257 20.502 22.6257C21.4434 22.6257 22.2148 22.9324 22.8164 23.5457C23.418 24.155 23.7188 24.9265 23.7188 25.8601C23.7188 26.8015 23.4141 27.5828 22.8047 28.2039C22.1992 28.821 21.4355 29.1296 20.5137 29.1296C19.9434 29.1296 19.3984 29.0007 18.8789 28.7429C18.3633 28.4851 17.9707 28.1082 17.7012 27.6121C17.4316 27.1121 17.2969 26.5046 17.2969 25.7898ZM18.9844 25.8777C18.9844 26.4949 19.1309 26.9675 19.4238 27.2957C19.7168 27.6238 20.0781 27.7878 20.5078 27.7878C20.9375 27.7878 21.2969 27.6238 21.5859 27.2957C21.8789 26.9675 22.0254 26.491 22.0254 25.866C22.0254 25.2566 21.8789 24.7878 21.5859 24.4597C21.2969 24.1316 20.9375 23.9675 20.5078 23.9675C20.0781 23.9675 19.7168 24.1316 19.4238 24.4597C19.1309 24.7878 18.9844 25.2605 18.9844 25.8777ZM24.8906 22.7664H26.4082V23.616C26.9512 22.9558 27.5977 22.6257 28.3477 22.6257C28.7461 22.6257 29.0918 22.7078 29.3848 22.8718C29.6777 23.0359 29.918 23.2839 30.1055 23.616C30.3789 23.2839 30.6738 23.0359 30.9902 22.8718C31.3066 22.7078 31.6445 22.6257 32.0039 22.6257C32.4609 22.6257 32.8477 22.7195 33.1641 22.907C33.4805 23.0906 33.7168 23.3621 33.873 23.7214C33.9863 23.9871 34.043 24.4167 34.043 25.0105V28.989H32.3965V25.4324C32.3965 24.8152 32.3398 24.4167 32.2266 24.2371C32.0742 24.0027 31.8398 23.8855 31.5234 23.8855C31.293 23.8855 31.0762 23.9558 30.873 24.0964C30.6699 24.2371 30.5234 24.4441 30.4336 24.7175C30.3438 24.9871 30.2988 25.4148 30.2988 26.0007V28.989H28.6523V25.5789C28.6523 24.9734 28.623 24.5828 28.5645 24.407C28.5059 24.2312 28.4141 24.1003 28.2891 24.0144C28.168 23.9285 28.002 23.8855 27.791 23.8855C27.5371 23.8855 27.3086 23.9539 27.1055 24.0906C26.9023 24.2273 26.7559 24.4246 26.666 24.6824C26.5801 24.9402 26.5371 25.3679 26.5371 25.9656V28.989H24.8906V22.7664ZM35.6426 22.7664H37.1777V23.6804C37.377 23.3679 37.6465 23.114 37.9863 22.9187C38.3262 22.7234 38.7031 22.6257 39.1172 22.6257C39.8398 22.6257 40.4531 22.9089 40.957 23.4753C41.4609 24.0417 41.7129 24.8308 41.7129 25.8425C41.7129 26.8816 41.459 27.6902 40.9512 28.2683C40.4434 28.8425 39.8281 29.1296 39.1055 29.1296C38.7617 29.1296 38.4492 29.0613 38.168 28.9246C37.8906 28.7878 37.5977 28.5535 37.2891 28.2214V31.3562H35.6426V22.7664ZM37.2715 25.7722C37.2715 26.4714 37.4102 26.989 37.6875 27.325C37.9648 27.657 38.3027 27.823 38.7012 27.823C39.084 27.823 39.4023 27.6707 39.6562 27.366C39.9102 27.0574 40.0371 26.5535 40.0371 25.8542C40.0371 25.2019 39.9062 24.7175 39.6445 24.4011C39.3828 24.0847 39.0586 23.9265 38.6719 23.9265C38.2695 23.9265 37.9355 24.0828 37.6699 24.3953C37.4043 24.7039 37.2715 25.1628 37.2715 25.7722ZM43.0254 28.989V20.3992H44.6719V28.989H43.0254ZM49.9688 27.0085L51.6094 27.2839C51.3984 27.8855 51.0645 28.3445 50.6074 28.6609C50.1543 28.9734 49.5859 29.1296 48.9023 29.1296C47.8203 29.1296 47.0195 28.7761 46.5 28.0691C46.0898 27.5027 45.8848 26.7878 45.8848 25.9246C45.8848 24.8933 46.1543 24.0867 46.6934 23.5046C47.2324 22.9187 47.9141 22.6257 48.7383 22.6257C49.6641 22.6257 50.3945 22.9324 50.9297 23.5457C51.4648 24.155 51.7207 25.0906 51.6973 26.3523H47.5723C47.584 26.8406 47.7168 27.2214 47.9707 27.4949C48.2246 27.7644 48.541 27.8992 48.9199 27.8992C49.1777 27.8992 49.3945 27.8289 49.5703 27.6882C49.7461 27.5476 49.8789 27.321 49.9688 27.0085ZM50.0625 25.3445C50.0508 24.8679 49.9277 24.5066 49.6934 24.2605C49.459 24.0105 49.1738 23.8855 48.8379 23.8855C48.4785 23.8855 48.1816 24.0164 47.9473 24.2781C47.7129 24.5398 47.5977 24.8953 47.6016 25.3445H50.0625ZM52.2539 28.989L54.498 25.7839L52.3477 22.7664H54.3574L55.459 24.4773L56.6191 22.7664H58.5527L56.4434 25.7136L58.7461 28.989H56.7246L55.459 27.0613L54.1816 28.989H52.2539Z" fill="white"/>
<defs>
<linearGradient id="paint0_linear_83_1992" x1="34.5" y1="1.98901" x2="34.5" y2="33.989" gradientUnits="userSpaceOnUse">
<stop stop-color="#00E75C"/>
<stop offset="1" stop-color="#00BC62"/>
</linearGradient>
</defs>
</svg>
