<svg width="75" height="24" viewBox="0 0 75 24" fill="none" xmlns="http://www.w3.org/2000/svg">
<rect x="1" y="1.98901" width="73" height="20" rx="10" fill="url(#paint0_linear_35_1481)"/>
<rect x="1" y="1.98901" width="73" height="20" rx="10" stroke="#667FEE" stroke-width="3" stroke-linejoin="round"/>
<path d="M17.0977 15.989H15.2109L14.4609 14.0378H11.0273L10.3184 15.989H8.47852L11.8242 7.39917H13.6582L17.0977 15.989ZM13.9043 12.5906L12.7207 9.40308L11.5605 12.5906H13.9043ZM18.0234 15.989V7.39917H20.8066C21.8613 7.39917 22.5488 7.44214 22.8691 7.52808C23.3613 7.65698 23.7734 7.93823 24.1055 8.37183C24.4375 8.80151 24.6035 9.35815 24.6035 10.0417C24.6035 10.5691 24.5078 11.0125 24.3164 11.3718C24.125 11.7312 23.8809 12.0144 23.584 12.2214C23.291 12.4246 22.9922 12.5593 22.6875 12.6257C22.2734 12.7078 21.6738 12.7488 20.8887 12.7488H19.7578V15.989H18.0234ZM19.7578 8.85229V11.2898H20.707C21.3906 11.2898 21.8477 11.2449 22.0781 11.155C22.3086 11.0652 22.4883 10.9246 22.6172 10.7332C22.75 10.5417 22.8164 10.3191 22.8164 10.0652C22.8164 9.75269 22.7246 9.49487 22.541 9.29175C22.3574 9.08862 22.125 8.96167 21.8438 8.91089C21.6367 8.87183 21.2207 8.85229 20.5957 8.85229H19.7578ZM25.6758 11.7468C25.6758 10.8718 25.8066 10.1375 26.0684 9.5437C26.2637 9.1062 26.5293 8.71362 26.8652 8.36597C27.2051 8.01831 27.5762 7.7605 27.9785 7.59253C28.5137 7.36597 29.1309 7.25269 29.8301 7.25269C31.0957 7.25269 32.1074 7.64526 32.8652 8.43042C33.627 9.21558 34.0078 10.3074 34.0078 11.7058C34.0078 13.0925 33.6309 14.1785 32.877 14.9636C32.123 15.7449 31.1152 16.1355 29.8535 16.1355C28.5762 16.1355 27.5605 15.7468 26.8066 14.9695C26.0527 14.1882 25.6758 13.114 25.6758 11.7468ZM27.4629 11.6882C27.4629 12.6609 27.6875 13.3992 28.1367 13.9031C28.5859 14.4031 29.1562 14.6531 29.8477 14.6531C30.5391 14.6531 31.1055 14.405 31.5469 13.9089C31.9922 13.4089 32.2148 12.6609 32.2148 11.6648C32.2148 10.6804 31.998 9.94604 31.5645 9.46167C31.1348 8.97729 30.5625 8.73511 29.8477 8.73511C29.1328 8.73511 28.5566 8.9812 28.1191 9.47339C27.6816 9.96167 27.4629 10.7 27.4629 11.6882ZM35.373 7.39917H38.8066C39.4863 7.39917 39.9922 7.42847 40.3242 7.48706C40.6602 7.54175 40.959 7.65894 41.2207 7.83862C41.4863 8.01831 41.707 8.25854 41.8828 8.55933C42.0586 8.8562 42.1465 9.19019 42.1465 9.56128C42.1465 9.96362 42.0371 10.3328 41.8184 10.6687C41.6035 11.0046 41.3105 11.2566 40.9395 11.4246C41.4629 11.5769 41.8652 11.8367 42.1465 12.2039C42.4277 12.571 42.5684 13.0027 42.5684 13.4988C42.5684 13.8894 42.4766 14.2703 42.293 14.6414C42.1133 15.0085 41.8652 15.3035 41.5488 15.5261C41.2363 15.7449 40.8496 15.8796 40.3887 15.9304C40.0996 15.9617 39.4023 15.9812 38.2969 15.989H35.373V7.39917ZM37.1074 8.82886V10.8152H38.2441C38.9199 10.8152 39.3398 10.8054 39.5039 10.7859C39.8008 10.7507 40.0332 10.6492 40.2012 10.4812C40.373 10.3093 40.459 10.0847 40.459 9.80737C40.459 9.54175 40.3848 9.3269 40.2363 9.16284C40.0918 8.99487 39.875 8.89331 39.5859 8.85815C39.4141 8.83862 38.9199 8.82886 38.1035 8.82886H37.1074ZM37.1074 12.2449V14.5417H38.7129C39.3379 14.5417 39.7344 14.5242 39.9023 14.489C40.1602 14.4421 40.3691 14.3289 40.5293 14.1492C40.6934 13.9656 40.7754 13.7214 40.7754 13.4167C40.7754 13.1589 40.7129 12.9402 40.5879 12.7605C40.4629 12.5808 40.2812 12.45 40.043 12.3679C39.8086 12.2859 39.2969 12.2449 38.5078 12.2449H37.1074ZM44.0391 15.989V7.39917H50.4082V8.85229H45.7734V10.7566H50.0859V12.2039H45.7734V14.5417H50.5723V15.989H44.0391ZM57.5391 12.8308L59.2207 13.364C58.9629 14.3015 58.5332 14.9988 57.9316 15.4558C57.334 15.9089 56.5742 16.1355 55.6523 16.1355C54.5117 16.1355 53.5742 15.7468 52.8398 14.9695C52.1055 14.1882 51.7383 13.1218 51.7383 11.7703C51.7383 10.3406 52.1074 9.2312 52.8457 8.44214C53.584 7.64917 54.5547 7.25269 55.7578 7.25269C56.8086 7.25269 57.6621 7.56323 58.3184 8.18433C58.709 8.55151 59.002 9.07886 59.1973 9.76636L57.4805 10.1765C57.3789 9.7312 57.166 9.37964 56.8418 9.12183C56.5215 8.86401 56.1309 8.73511 55.6699 8.73511C55.0332 8.73511 54.5156 8.96362 54.1172 9.42065C53.7227 9.87769 53.5254 10.6179 53.5254 11.6414C53.5254 12.7273 53.7207 13.5007 54.1113 13.9617C54.502 14.4226 55.0098 14.6531 55.6348 14.6531C56.0957 14.6531 56.4922 14.5066 56.8242 14.2136C57.1562 13.9207 57.3945 13.4597 57.5391 12.8308ZM64.5645 15.989H62.918V9.78394C62.3164 10.3464 61.6074 10.7625 60.791 11.032V9.53784C61.2207 9.39722 61.6875 9.13159 62.1914 8.74097C62.6953 8.34644 63.041 7.88745 63.2285 7.36401H64.5645V15.989Z" fill="white"/>
<defs>
<linearGradient id="paint0_linear_35_1481" x1="37.5" y1="1.98901" x2="37.5" y2="21.989" gradientUnits="userSpaceOnUse">
<stop stop-color="#1A2142"/>
<stop offset="1" stop-color="#667FEE"/>
</linearGradient>
</defs>
</svg>
