<svg width="52" height="24" viewBox="0 0 52 24" fill="none" xmlns="http://www.w3.org/2000/svg">
<rect x="2" y="1.98901" width="49" height="20" rx="10" fill="url(#paint0_linear_38_1852)"/>
<rect x="2" y="1.98901" width="49" height="20" rx="10" stroke="#CF5975" stroke-width="3" stroke-linejoin="round"/>
<path d="M15.8594 12.8308L17.541 13.364C17.2832 14.3015 16.8535 14.9988 16.252 15.4558C15.6543 15.9089 14.8945 16.1355 13.9727 16.1355C12.832 16.1355 11.8945 15.7468 11.1602 14.9695C10.4258 14.1882 10.0586 13.1218 10.0586 11.7703C10.0586 10.3406 10.4277 9.2312 11.166 8.44214C11.9043 7.64917 12.875 7.25269 14.0781 7.25269C15.1289 7.25269 15.9824 7.56323 16.6387 8.18433C17.0293 8.55151 17.3223 9.07886 17.5176 9.76636L15.8008 10.1765C15.6992 9.7312 15.4863 9.37964 15.1621 9.12183C14.8418 8.86401 14.4512 8.73511 13.9902 8.73511C13.3535 8.73511 12.8359 8.96362 12.4375 9.42065C12.043 9.87769 11.8457 10.6179 11.8457 11.6414C11.8457 12.7273 12.041 13.5007 12.4316 13.9617C12.8223 14.4226 13.3301 14.6531 13.9551 14.6531C14.416 14.6531 14.8125 14.5066 15.1445 14.2136C15.4766 13.9207 15.7148 13.4597 15.8594 12.8308ZM24.5312 12.8308L26.2129 13.364C25.9551 14.3015 25.5254 14.9988 24.9238 15.4558C24.3262 15.9089 23.5664 16.1355 22.6445 16.1355C21.5039 16.1355 20.5664 15.7468 19.832 14.9695C19.0977 14.1882 18.7305 13.1218 18.7305 11.7703C18.7305 10.3406 19.0996 9.2312 19.8379 8.44214C20.5762 7.64917 21.5469 7.25269 22.75 7.25269C23.8008 7.25269 24.6543 7.56323 25.3105 8.18433C25.7012 8.55151 25.9941 9.07886 26.1895 9.76636L24.4727 10.1765C24.3711 9.7312 24.1582 9.37964 23.834 9.12183C23.5137 8.86401 23.123 8.73511 22.6621 8.73511C22.0254 8.73511 21.5078 8.96362 21.1094 9.42065C20.7148 9.87769 20.5176 10.6179 20.5176 11.6414C20.5176 12.7273 20.7129 13.5007 21.1035 13.9617C21.4941 14.4226 22.002 14.6531 22.627 14.6531C23.0879 14.6531 23.4844 14.5066 23.8164 14.2136C24.1484 13.9207 24.3867 13.4597 24.5312 12.8308ZM27.7246 15.989V7.39917H29.4121L32.9277 13.1355V7.39917H34.5391V15.989H32.7988L29.3359 10.3875V15.989H27.7246ZM36.3789 15.989V7.39917H42.748V8.85229H38.1133V10.7566H42.4258V12.2039H38.1133V14.5417H42.9121V15.989H36.3789Z" fill="white"/>
<defs>
<linearGradient id="paint0_linear_38_1852" x1="26.5" y1="1.98901" x2="26.5" y2="21.989" gradientUnits="userSpaceOnUse">
<stop stop-color="#CF5975"/>
<stop offset="1" stop-color="#984A08"/>
</linearGradient>
</defs>
</svg>
