<svg width="58" height="24" viewBox="0 0 58 24" fill="none" xmlns="http://www.w3.org/2000/svg">
<rect x="2" y="1.98901" width="55" height="20" rx="10" fill="url(#paint0_linear_33_1399)"/>
<rect x="2" y="1.98901" width="55" height="20" rx="10" stroke="#D19F48" stroke-width="3" stroke-linejoin="round"/>
<path d="M17.7695 15.989H15.8828L15.1328 14.0378H11.6992L10.9902 15.989H9.15039L12.4961 7.39917H14.3301L17.7695 15.989ZM14.5762 12.5906L13.3926 9.40308L12.2324 12.5906H14.5762ZM18.6895 7.39917H21.8594C22.5742 7.39917 23.1191 7.45386 23.4941 7.56323C23.998 7.71167 24.4297 7.97534 24.7891 8.35425C25.1484 8.73315 25.4219 9.198 25.6094 9.74878C25.7969 10.2957 25.8906 10.9714 25.8906 11.7761C25.8906 12.4832 25.8027 13.0925 25.627 13.6042C25.4121 14.2292 25.1055 14.7351 24.707 15.1218C24.4062 15.4148 24 15.6433 23.4883 15.8074C23.1055 15.9285 22.5938 15.989 21.9531 15.989H18.6895V7.39917ZM20.4238 8.85229V14.5417H21.7188C22.2031 14.5417 22.5527 14.5144 22.7676 14.4597C23.0488 14.3894 23.2812 14.2703 23.4648 14.1023C23.6523 13.9343 23.8047 13.6589 23.9219 13.2761C24.0391 12.8894 24.0977 12.364 24.0977 11.7C24.0977 11.0359 24.0391 10.5261 23.9219 10.1707C23.8047 9.81519 23.6406 9.53784 23.4297 9.33862C23.2188 9.1394 22.9512 9.00464 22.627 8.93433C22.3848 8.87964 21.9102 8.85229 21.2031 8.85229H20.4238ZM32.8633 12.8308L34.5449 13.364C34.2871 14.3015 33.8574 14.9988 33.2559 15.4558C32.6582 15.9089 31.8984 16.1355 30.9766 16.1355C29.8359 16.1355 28.8984 15.7468 28.1641 14.9695C27.4297 14.1882 27.0625 13.1218 27.0625 11.7703C27.0625 10.3406 27.4316 9.2312 28.1699 8.44214C28.9082 7.64917 29.8789 7.25269 31.082 7.25269C32.1328 7.25269 32.9863 7.56323 33.6426 8.18433C34.0332 8.55151 34.3262 9.07886 34.5215 9.76636L32.8047 10.1765C32.7031 9.7312 32.4902 9.37964 32.166 9.12183C31.8457 8.86401 31.4551 8.73511 30.9941 8.73511C30.3574 8.73511 29.8398 8.96362 29.4414 9.42065C29.0469 9.87769 28.8496 10.6179 28.8496 11.6414C28.8496 12.7273 29.0449 13.5007 29.4355 13.9617C29.8262 14.4226 30.334 14.6531 30.959 14.6531C31.4199 14.6531 31.8164 14.5066 32.1484 14.2136C32.4805 13.9207 32.7188 13.4597 32.8633 12.8308ZM38.2949 15.989V12.3738L35.1484 7.39917H37.1816L39.2031 10.7976L41.1836 7.39917H43.1816L40.0234 12.3855V15.989H38.2949ZM49.2578 9.50269L47.6641 9.67847C47.625 9.35034 47.5234 9.10815 47.3594 8.9519C47.1953 8.79565 46.9824 8.71753 46.7207 8.71753C46.373 8.71753 46.0781 8.87378 45.8359 9.18628C45.5977 9.49878 45.4473 10.1492 45.3848 11.1375C45.7949 10.6531 46.3047 10.4109 46.9141 10.4109C47.6016 10.4109 48.1895 10.6726 48.6777 11.196C49.1699 11.7195 49.416 12.3953 49.416 13.2234C49.416 14.1023 49.1582 14.8074 48.6426 15.3386C48.127 15.8699 47.4648 16.1355 46.6562 16.1355C45.7891 16.1355 45.0762 15.7996 44.5176 15.1277C43.959 14.4519 43.6797 13.3464 43.6797 11.8113C43.6797 10.2371 43.9707 9.10229 44.5527 8.40698C45.1348 7.71167 45.8906 7.36401 46.8203 7.36401C47.4727 7.36401 48.0117 7.54761 48.4375 7.91479C48.8672 8.27808 49.1406 8.80737 49.2578 9.50269ZM45.5254 13.0945C45.5254 13.6296 45.6484 14.0437 45.8945 14.3367C46.1406 14.6257 46.4219 14.7703 46.7383 14.7703C47.043 14.7703 47.2969 14.6511 47.5 14.4128C47.7031 14.1746 47.8047 13.7839 47.8047 13.241C47.8047 12.6824 47.6953 12.2742 47.4766 12.0164C47.2578 11.7546 46.9844 11.6238 46.6562 11.6238C46.3398 11.6238 46.0723 11.7488 45.8535 11.9988C45.6348 12.2449 45.5254 12.6101 45.5254 13.0945Z" fill="white"/>
<defs>
<linearGradient id="paint0_linear_33_1399" x1="29.5" y1="1.98901" x2="29.5" y2="21.989" gradientUnits="userSpaceOnUse">
<stop stop-color="#D19F48"/>
<stop offset="1" stop-color="#00A5B1"/>
</linearGradient>
</defs>
</svg>
