<svg width="44" height="22" viewBox="0 0 44 22" fill="none" xmlns="http://www.w3.org/2000/svg">
<path d="M1.97778 11.1379C1.97778 5.61509 6.45494 1.13794 11.9778 1.13794H41.9787C42.531 1.13794 42.9787 1.58565 42.9787 2.13794V20.1379C42.9787 20.6902 42.531 21.1379 41.9787 21.1379H11.9778C6.45495 21.1379 1.97778 16.6608 1.97778 11.1379Z" fill="url(#paint0_linear_97_5812)"/>
<path d="M1.97778 11.1379C1.97778 5.61509 6.45494 1.13794 11.9778 1.13794H41.9787C42.531 1.13794 42.9787 1.58565 42.9787 2.13794V20.1379C42.9787 20.6902 42.531 21.1379 41.9787 21.1379H11.9778C6.45495 21.1379 1.97778 16.6608 1.97778 11.1379Z" stroke="#FFC900" stroke-width="2" stroke-linejoin="round"/>
<path d="M13.9997 11.9797V10.5325H17.738V13.9543C17.3747 14.3059 16.8474 14.6165 16.156 14.886C15.4685 15.1516 14.7712 15.2844 14.0642 15.2844C13.1657 15.2844 12.3825 15.0969 11.7146 14.7219C11.0466 14.343 10.5446 13.804 10.2087 13.1047C9.87276 12.4016 9.7048 11.6379 9.7048 10.8137C9.7048 9.91919 9.8923 9.12427 10.2673 8.42896C10.6423 7.73364 11.1911 7.20044 11.9138 6.82935C12.4646 6.54419 13.1501 6.40161 13.9704 6.40161C15.0368 6.40161 15.8689 6.62622 16.4665 7.07544C17.0681 7.52075 17.4548 8.13794 17.6267 8.927L15.904 9.24927C15.7829 8.82739 15.5544 8.49536 15.2185 8.25317C14.8864 8.00708 14.4704 7.88403 13.9704 7.88403C13.2126 7.88403 12.6091 8.12427 12.1599 8.60474C11.7146 9.08521 11.4919 9.7981 11.4919 10.7434C11.4919 11.7629 11.7185 12.5286 12.1716 13.0403C12.6247 13.5481 13.2185 13.802 13.9528 13.802C14.3161 13.802 14.6794 13.7317 15.0427 13.5911C15.4099 13.4465 15.7243 13.2727 15.986 13.0696V11.9797H13.9997ZM19.3903 15.1379V6.61841H21.1247V13.6907H25.4372V15.1379H19.3903ZM26.6267 15.1379V6.5481H28.361V15.1379H26.6267ZM29.5974 12.8586L31.1911 12.6653C31.2419 13.0715 31.3786 13.3821 31.6013 13.5969C31.8239 13.8118 32.0935 13.9192 32.4099 13.9192C32.7497 13.9192 33.0349 13.7903 33.2653 13.5325C33.4997 13.2747 33.6169 12.927 33.6169 12.4895C33.6169 12.0754 33.5056 11.7473 33.2829 11.5051C33.0603 11.2629 32.7888 11.1418 32.4685 11.1418C32.2575 11.1418 32.0056 11.1829 31.7126 11.2649L31.8942 9.9231C32.3396 9.93481 32.6794 9.83911 32.9138 9.63599C33.1482 9.42896 33.2653 9.15552 33.2653 8.81567C33.2653 8.52661 33.1794 8.29614 33.0075 8.12427C32.8357 7.95239 32.6071 7.86646 32.322 7.86646C32.0407 7.86646 31.8005 7.96411 31.6013 8.15942C31.4021 8.35474 31.281 8.63989 31.238 9.01489L29.7204 8.75708C29.8259 8.23755 29.9841 7.82349 30.195 7.51489C30.4099 7.20239 30.7067 6.95825 31.0857 6.78247C31.4685 6.60278 31.8962 6.51294 32.3689 6.51294C33.1775 6.51294 33.8259 6.77075 34.3142 7.28638C34.7165 7.70825 34.9177 8.18481 34.9177 8.71606C34.9177 9.46997 34.5056 10.0715 33.6814 10.5208C34.1735 10.6262 34.5661 10.8625 34.8591 11.2297C35.156 11.5969 35.3044 12.0403 35.3044 12.5598C35.3044 13.3137 35.029 13.9563 34.4782 14.4875C33.9275 15.0188 33.2419 15.2844 32.4216 15.2844C31.6442 15.2844 30.9997 15.0618 30.488 14.6165C29.9763 14.1672 29.6794 13.5813 29.5974 12.8586Z" fill="white"/>
<defs>
<linearGradient id="paint0_linear_97_5812" x1="22.4782" y1="1.13794" x2="22.4782" y2="21.1379" gradientUnits="userSpaceOnUse">
<stop stop-color="#FFC900"/>
<stop offset="1" stop-color="#008CFF"/>
</linearGradient>
</defs>
</svg>
