<svg width="81" height="24" viewBox="0 0 81 24" fill="none" xmlns="http://www.w3.org/2000/svg">
<rect x="1" y="1.98901" width="79" height="20" rx="10" fill="url(#paint0_linear_35_1443)"/>
<rect x="1" y="1.98901" width="79" height="20" rx="10" stroke="#007FAC" stroke-width="3" stroke-linejoin="round"/>
<path d="M17.0918 15.989H15.2051L14.4551 14.0378H11.0215L10.3125 15.989H8.47266L11.8184 7.39917H13.6523L17.0918 15.989ZM13.8984 12.5906L12.7148 9.40308L11.5547 12.5906H13.8984ZM18.0234 15.989V7.39917H21.6738C22.5918 7.39917 23.2578 7.47729 23.6719 7.63354C24.0898 7.78589 24.4238 8.05933 24.6738 8.45386C24.9238 8.84839 25.0488 9.29956 25.0488 9.80737C25.0488 10.4519 24.8594 10.9851 24.4805 11.407C24.1016 11.825 23.5352 12.0886 22.7812 12.198C23.1562 12.4167 23.4648 12.657 23.707 12.9187C23.9531 13.1804 24.2832 13.6453 24.6973 14.3132L25.7461 15.989H23.6719L22.418 14.1199C21.9727 13.4519 21.668 13.032 21.5039 12.8601C21.3398 12.6843 21.166 12.5652 20.9824 12.5027C20.7988 12.4363 20.5078 12.4031 20.1094 12.4031H19.7578V15.989H18.0234ZM19.7578 11.032H21.041C21.873 11.032 22.3926 10.9968 22.5996 10.9265C22.8066 10.8562 22.9688 10.7351 23.0859 10.5632C23.2031 10.3914 23.2617 10.1765 23.2617 9.9187C23.2617 9.62964 23.1836 9.39722 23.0273 9.22144C22.875 9.04175 22.6582 8.92847 22.377 8.88159C22.2363 8.86206 21.8145 8.85229 21.1113 8.85229H19.7578V11.032ZM26.6953 15.989V7.39917H28.4297V10.78H31.8281V7.39917H33.5625V15.989H31.8281V12.2332H28.4297V15.989H26.6953ZM39.3574 12.8308V11.3835H43.0957V14.8054C42.7324 15.157 42.2051 15.4675 41.5137 15.7371C40.8262 16.0027 40.1289 16.1355 39.4219 16.1355C38.5234 16.1355 37.7402 15.948 37.0723 15.573C36.4043 15.1941 35.9023 14.655 35.5664 13.9558C35.2305 13.2527 35.0625 12.489 35.0625 11.6648C35.0625 10.7703 35.25 9.97534 35.625 9.28003C36 8.58472 36.5488 8.05151 37.2715 7.68042C37.8223 7.39526 38.5078 7.25269 39.3281 7.25269C40.3945 7.25269 41.2266 7.47729 41.8242 7.92651C42.4258 8.37183 42.8125 8.98901 42.9844 9.77808L41.2617 10.1003C41.1406 9.67847 40.9121 9.34644 40.5762 9.10425C40.2441 8.85815 39.8281 8.73511 39.3281 8.73511C38.5703 8.73511 37.9668 8.97534 37.5176 9.45581C37.0723 9.93628 36.8496 10.6492 36.8496 11.5945C36.8496 12.614 37.0762 13.3796 37.5293 13.8914C37.9824 14.3992 38.5762 14.6531 39.3105 14.6531C39.6738 14.6531 40.0371 14.5828 40.4004 14.4421C40.7676 14.2976 41.082 14.1238 41.3438 13.9207V12.8308H39.3574ZM44.7012 15.989V7.39917H51.0703V8.85229H46.4355V10.7566H50.748V12.2039H46.4355V14.5417H51.2344V15.989H44.7012ZM52.7168 15.989V7.39917H58.6055V8.85229H54.4512V10.8855H58.0371V12.3386H54.4512V15.989H52.7168ZM63.8906 15.989H62.2441V9.78394C61.6426 10.3464 60.9336 10.7625 60.1172 11.032V9.53784C60.5469 9.39722 61.0137 9.13159 61.5176 8.74097C62.0215 8.34644 62.3672 7.88745 62.5547 7.36401H63.8906V15.989ZM71.918 14.4597V15.989H66.1465C66.209 15.4109 66.3965 14.864 66.709 14.3484C67.0215 13.8289 67.6387 13.1414 68.5605 12.2859C69.3027 11.5945 69.7578 11.1257 69.9258 10.8796C70.1523 10.5398 70.2656 10.2039 70.2656 9.87183C70.2656 9.50464 70.166 9.22339 69.9668 9.02808C69.7715 8.82886 69.5 8.72925 69.1523 8.72925C68.8086 8.72925 68.5352 8.83276 68.332 9.03979C68.1289 9.24683 68.0117 9.59058 67.9805 10.071L66.3398 9.90698C66.4375 9.00073 66.7441 8.35034 67.2598 7.95581C67.7754 7.56128 68.4199 7.36401 69.1934 7.36401C70.041 7.36401 70.707 7.59253 71.1914 8.04956C71.6758 8.50659 71.918 9.07495 71.918 9.75464C71.918 10.1414 71.8477 10.5105 71.707 10.8621C71.5703 11.2097 71.3516 11.575 71.0508 11.9578C70.8516 12.2117 70.4922 12.5769 69.9727 13.0535C69.4531 13.53 69.123 13.8464 68.9824 14.0027C68.8457 14.1589 68.7344 14.3113 68.6484 14.4597H71.918Z" fill="white"/>
<defs>
<linearGradient id="paint0_linear_35_1443" x1="40.5" y1="1.98901" x2="40.5" y2="21.989" gradientUnits="userSpaceOnUse">
<stop stop-color="#007FAC"/>
<stop offset="1" stop-color="#FF6801"/>
</linearGradient>
</defs>
</svg>
