<svg width="28" height="179" viewBox="0 0 28 179" fill="none" xmlns="http://www.w3.org/2000/svg">
<path d="M4.03841 178.902C2.33091 178.902 0.946411 177.518 0.946411 175.81V137.354C0.946411 136.847 1.07081 136.349 1.30871 135.901L11.1743 117.358V98.9046C11.1743 98.3979 11.2987 97.8997 11.5366 97.4522L21.7646 78.2282C22.5666 76.7206 24.4384 76.1481 25.9466 76.9509C27.4539 77.7529 28.0258 79.6253 27.2239 81.1329L17.3583 99.6758V118.129C17.3583 118.636 17.2339 119.134 16.996 119.582L7.13041 138.125V175.81C7.13041 177.518 5.74591 178.902 4.03841 178.902Z" fill="url(#paint0_linear_86_3471)"/>
<path d="M24.4971 102.883C23.3908 102.883 22.3206 102.288 21.7647 101.243L11.5367 82.0183C11.2988 81.5712 11.1744 81.0723 11.1744 80.5659V62.1131L1.30871 43.5696C1.07081 43.1225 0.946411 42.6236 0.946411 42.1173V3.66085C0.946411 1.95325 2.33081 0.568848 4.03841 0.568848C5.74601 0.568848 7.13041 1.95325 7.13041 3.66085V41.3458L16.996 59.8892C17.2339 60.3364 17.3583 60.8352 17.3583 61.3416V79.7947L27.2239 98.3382C28.0259 99.846 27.454 101.718 25.9466 102.52C25.4838 102.767 24.9868 102.883 24.4971 102.883Z" fill="url(#paint1_linear_86_3471)"/>
<defs>
<linearGradient id="paint0_linear_86_3471" x1="0.946411" y1="127.745" x2="27.5868" y2="127.745" gradientUnits="userSpaceOnUse">
<stop stop-color="#0F82BC"/>
<stop offset="0.0965" stop-color="#1882BA"/>
<stop offset="0.2533" stop-color="#3081B5"/>
<stop offset="0.4507" stop-color="#577FAD"/>
<stop offset="0.681" stop-color="#8E7DA3"/>
<stop offset="0.9363" stop-color="#D37B95"/>
<stop offset="1" stop-color="#E57A91"/>
</linearGradient>
<linearGradient id="paint1_linear_86_3471" x1="14.2666" y1="0.568848" x2="14.2666" y2="102.883" gradientUnits="userSpaceOnUse">
<stop stop-color="#0F82BC"/>
<stop offset="1" stop-color="#E57A91"/>
</linearGradient>
</defs>
</svg>
