<svg width="48" height="24" viewBox="0 0 48 24" fill="none" xmlns="http://www.w3.org/2000/svg">
<rect x="2" y="1.98901" width="45" height="20" rx="10" fill="url(#paint0_linear_84_2060)"/>
<rect x="2" y="1.98901" width="45" height="20" rx="10" stroke="#6E6EEA" stroke-width="3" stroke-linejoin="round"/>
<path d="M12.0781 15.989V8.85229H9.5293V7.39917H16.3555V8.85229H13.8125V15.989H12.0781ZM19.4141 15.989V8.85229H16.8652V7.39917H23.6914V8.85229H21.1484V15.989H19.4141ZM24.8164 15.989V7.39917H27.5996C28.6543 7.39917 29.3418 7.44214 29.6621 7.52808C30.1543 7.65698 30.5664 7.93823 30.8984 8.37183C31.2305 8.80151 31.3965 9.35815 31.3965 10.0417C31.3965 10.5691 31.3008 11.0125 31.1094 11.3718C30.918 11.7312 30.6738 12.0144 30.377 12.2214C30.084 12.4246 29.7852 12.5593 29.4805 12.6257C29.0664 12.7078 28.4668 12.7488 27.6816 12.7488H26.5508V15.989H24.8164ZM26.5508 8.85229V11.2898H27.5C28.1836 11.2898 28.6406 11.2449 28.8711 11.155C29.1016 11.0652 29.2812 10.9246 29.4102 10.7332C29.543 10.5417 29.6094 10.3191 29.6094 10.0652C29.6094 9.75269 29.5176 9.49487 29.334 9.29175C29.1504 9.08862 28.918 8.96167 28.6367 8.91089C28.4297 8.87183 28.0137 8.85229 27.3887 8.85229H26.5508ZM39.6758 15.989H37.7891L37.0391 14.0378H33.6055L32.8965 15.989H31.0566L34.4023 7.39917H36.2363L39.6758 15.989ZM36.4824 12.5906L35.2988 9.40308L34.1387 12.5906H36.4824Z" fill="white"/>
<defs>
<linearGradient id="paint0_linear_84_2060" x1="24.5" y1="1.98901" x2="24.5" y2="21.989" gradientUnits="userSpaceOnUse">
<stop stop-color="#6E6EEA"/>
<stop offset="1" stop-color="#06052E"/>
</linearGradient>
</defs>
</svg>
