<svg width="57" height="24" viewBox="0 0 57 24" fill="none" xmlns="http://www.w3.org/2000/svg">
<rect x="2" y="1.98901" width="54" height="20" rx="10" fill="url(#paint0_linear_67_1951)"/>
<rect x="2" y="1.98901" width="54" height="20" rx="10" stroke="#C98300" stroke-width="3" stroke-linejoin="round"/>
<path d="M9.5293 13.1941L11.2168 13.03C11.3184 13.5964 11.5234 14.0125 11.832 14.2781C12.1445 14.5437 12.5645 14.6765 13.0918 14.6765C13.6504 14.6765 14.0703 14.5593 14.3516 14.325C14.6367 14.0867 14.7793 13.8093 14.7793 13.4929C14.7793 13.2898 14.7188 13.1179 14.5977 12.9773C14.4805 12.8328 14.2734 12.7078 13.9766 12.6023C13.7734 12.532 13.3105 12.407 12.5879 12.2273C11.6582 11.9968 11.0059 11.7136 10.6309 11.3777C10.1035 10.905 9.83984 10.3289 9.83984 9.64917C9.83984 9.21167 9.96289 8.80347 10.209 8.42456C10.459 8.04175 10.8164 7.75073 11.2812 7.55151C11.75 7.35229 12.3145 7.25269 12.9746 7.25269C14.0527 7.25269 14.8633 7.48901 15.4062 7.96167C15.9531 8.43433 16.2402 9.06519 16.2676 9.85425L14.5332 9.93042C14.459 9.48901 14.2988 9.17261 14.0527 8.9812C13.8105 8.78589 13.4453 8.68823 12.957 8.68823C12.4531 8.68823 12.0586 8.79175 11.7734 8.99878C11.5898 9.13159 11.498 9.30933 11.498 9.53198C11.498 9.73511 11.584 9.90894 11.7559 10.0535C11.9746 10.2371 12.5059 10.4285 13.3496 10.6277C14.1934 10.8269 14.8164 11.0339 15.2188 11.2488C15.625 11.4597 15.9414 11.7507 16.168 12.1218C16.3984 12.489 16.5137 12.9441 16.5137 13.4871C16.5137 13.9792 16.377 14.4402 16.1035 14.8699C15.8301 15.2996 15.4434 15.6199 14.9434 15.8308C14.4434 16.0378 13.8203 16.1414 13.0742 16.1414C11.9883 16.1414 11.1543 15.8914 10.5723 15.3914C9.99023 14.8875 9.64258 14.155 9.5293 13.1941ZM17.9727 15.989V7.39917H20.7559C21.8105 7.39917 22.498 7.44214 22.8184 7.52808C23.3105 7.65698 23.7227 7.93823 24.0547 8.37183C24.3867 8.80151 24.5527 9.35815 24.5527 10.0417C24.5527 10.5691 24.457 11.0125 24.2656 11.3718C24.0742 11.7312 23.8301 12.0144 23.5332 12.2214C23.2402 12.4246 22.9414 12.5593 22.6367 12.6257C22.2227 12.7078 21.623 12.7488 20.8379 12.7488H19.707V15.989H17.9727ZM19.707 8.85229V11.2898H20.6562C21.3398 11.2898 21.7969 11.2449 22.0273 11.155C22.2578 11.0652 22.4375 10.9246 22.5664 10.7332C22.6992 10.5417 22.7656 10.3191 22.7656 10.0652C22.7656 9.75269 22.6738 9.49487 22.4902 9.29175C22.3066 9.08862 22.0742 8.96167 21.793 8.91089C21.5859 8.87183 21.1699 8.85229 20.5449 8.85229H19.707ZM32.832 15.989H30.9453L30.1953 14.0378H26.7617L26.0527 15.989H24.2129L27.5586 7.39917H29.3926L32.832 15.989ZM29.6387 12.5906L28.4551 9.40308L27.2949 12.5906H29.6387ZM37.7539 12.8308V11.3835H41.4922V14.8054C41.1289 15.157 40.6016 15.4675 39.9102 15.7371C39.2227 16.0027 38.5254 16.1355 37.8184 16.1355C36.9199 16.1355 36.1367 15.948 35.4688 15.573C34.8008 15.1941 34.2988 14.655 33.9629 13.9558C33.627 13.2527 33.459 12.489 33.459 11.6648C33.459 10.7703 33.6465 9.97534 34.0215 9.28003C34.3965 8.58472 34.9453 8.05151 35.668 7.68042C36.2188 7.39526 36.9043 7.25269 37.7246 7.25269C38.791 7.25269 39.623 7.47729 40.2207 7.92651C40.8223 8.37183 41.209 8.98901 41.3809 9.77808L39.6582 10.1003C39.5371 9.67847 39.3086 9.34644 38.9727 9.10425C38.6406 8.85815 38.2246 8.73511 37.7246 8.73511C36.9668 8.73511 36.3633 8.97534 35.9141 9.45581C35.4688 9.93628 35.2461 10.6492 35.2461 11.5945C35.2461 12.614 35.4727 13.3796 35.9258 13.8914C36.3789 14.3992 36.9727 14.6531 37.707 14.6531C38.0703 14.6531 38.4336 14.5828 38.7969 14.4421C39.1641 14.2976 39.4785 14.1238 39.7402 13.9207V12.8308H37.7539ZM42.7695 14.0027L44.3633 13.8269C44.4023 14.1511 44.5039 14.3914 44.668 14.5476C44.832 14.7039 45.0488 14.782 45.3184 14.782C45.6582 14.782 45.9473 14.6257 46.1855 14.3132C46.4238 14.0007 46.5762 13.3523 46.6426 12.3679C46.2285 12.8484 45.7109 13.0886 45.0898 13.0886C44.4141 13.0886 43.8301 12.8289 43.3379 12.3093C42.8496 11.7859 42.6055 11.1062 42.6055 10.2703C42.6055 9.39917 42.8633 8.698 43.3789 8.16675C43.8984 7.63159 44.5586 7.36401 45.3594 7.36401C46.2305 7.36401 46.9453 7.7019 47.5039 8.37769C48.0625 9.04956 48.3418 10.157 48.3418 11.7C48.3418 13.2703 48.0508 14.4031 47.4688 15.0984C46.8867 15.7937 46.1289 16.1414 45.1953 16.1414C44.5234 16.1414 43.9805 15.9636 43.5664 15.6082C43.1523 15.2488 42.8867 14.7136 42.7695 14.0027ZM46.4961 10.405C46.4961 9.87378 46.373 9.46167 46.127 9.1687C45.8848 8.87573 45.6035 8.72925 45.2832 8.72925C44.9785 8.72925 44.7246 8.85034 44.5215 9.09253C44.3223 9.33081 44.2227 9.72339 44.2227 10.2703C44.2227 10.825 44.332 11.2332 44.5508 11.4949C44.7695 11.7527 45.043 11.8816 45.3711 11.8816C45.6875 11.8816 45.9531 11.7566 46.168 11.5066C46.3867 11.2566 46.4961 10.8894 46.4961 10.405Z" fill="white"/>
<defs>
<linearGradient id="paint0_linear_67_1951" x1="29" y1="1.98901" x2="29" y2="21.989" gradientUnits="userSpaceOnUse">
<stop stop-color="#C98300"/>
<stop offset="1" stop-color="#FF4900"/>
</linearGradient>
</defs>
</svg>
