<svg width="54" height="24" viewBox="0 0 54 24" fill="none" xmlns="http://www.w3.org/2000/svg">
<rect x="2" y="1.98901" width="51" height="20" rx="10" fill="url(#paint0_linear_40_2578)"/>
<rect x="2" y="1.98901" width="51" height="20" rx="10" stroke="#B1BF3B" stroke-width="3" stroke-linejoin="round"/>
<path d="M10.3555 7.39917H13.5254C14.2402 7.39917 14.7852 7.45386 15.1602 7.56323C15.6641 7.71167 16.0957 7.97534 16.4551 8.35425C16.8145 8.73315 17.0879 9.198 17.2754 9.74878C17.4629 10.2957 17.5566 10.9714 17.5566 11.7761C17.5566 12.4832 17.4688 13.0925 17.293 13.6042C17.0781 14.2292 16.7715 14.7351 16.373 15.1218C16.0723 15.4148 15.666 15.6433 15.1543 15.8074C14.7715 15.9285 14.2598 15.989 13.6191 15.989H10.3555V7.39917ZM12.0898 8.85229V14.5417H13.3848C13.8691 14.5417 14.2188 14.5144 14.4336 14.4597C14.7148 14.3894 14.9473 14.2703 15.1309 14.1023C15.3184 13.9343 15.4707 13.6589 15.5879 13.2761C15.7051 12.8894 15.7637 12.364 15.7637 11.7C15.7637 11.0359 15.7051 10.5261 15.5879 10.1707C15.4707 9.81519 15.3066 9.53784 15.0957 9.33862C14.8848 9.1394 14.6172 9.00464 14.293 8.93433C14.0508 8.87964 13.5762 8.85229 12.8691 8.85229H12.0898ZM18.9805 15.989V7.39917H20.7148V15.989H18.9805ZM22.3496 15.989V7.39917H24.9453L26.5039 13.2585L28.0449 7.39917H30.6465V15.989H29.0352V9.22729L27.3301 15.989H25.6602L23.9609 9.22729V15.989H22.3496ZM34.3027 15.989V8.85229H31.7539V7.39917H38.5801V8.85229H36.0371V15.989H34.3027ZM43.5547 15.989H41.9082V9.78394C41.3066 10.3464 40.5977 10.7625 39.7812 11.032V9.53784C40.2109 9.39722 40.6777 9.13159 41.1816 8.74097C41.6855 8.34644 42.0312 7.88745 42.2188 7.36401H43.5547V15.989Z" fill="white"/>
<defs>
<linearGradient id="paint0_linear_40_2578" x1="27.5" y1="1.98901" x2="27.5" y2="21.989" gradientUnits="userSpaceOnUse">
<stop stop-color="#B1BF3B"/>
<stop offset="1" stop-color="#003A81"/>
</linearGradient>
</defs>
</svg>
