<svg width="48" height="24" viewBox="0 0 48 24" fill="none" xmlns="http://www.w3.org/2000/svg">
<rect x="2" y="1.98901" width="45" height="20" rx="10" fill="url(#paint0_linear_40_2521)"/>
<rect x="2" y="1.98901" width="45" height="20" rx="10" stroke="#0C343B" stroke-width="3" stroke-linejoin="round"/>
<path d="M15.5234 12.8308L17.2051 13.364C16.9473 14.3015 16.5176 14.9988 15.916 15.4558C15.3184 15.9089 14.5586 16.1355 13.6367 16.1355C12.4961 16.1355 11.5586 15.7468 10.8242 14.9695C10.0898 14.1882 9.72266 13.1218 9.72266 11.7703C9.72266 10.3406 10.0918 9.2312 10.8301 8.44214C11.5684 7.64917 12.5391 7.25269 13.7422 7.25269C14.793 7.25269 15.6465 7.56323 16.3027 8.18433C16.6934 8.55151 16.9863 9.07886 17.1816 9.76636L15.4648 10.1765C15.3633 9.7312 15.1504 9.37964 14.8262 9.12183C14.5059 8.86401 14.1152 8.73511 13.6543 8.73511C13.0176 8.73511 12.5 8.96362 12.1016 9.42065C11.707 9.87769 11.5098 10.6179 11.5098 11.6414C11.5098 12.7273 11.7051 13.5007 12.0957 13.9617C12.4863 14.4226 12.9941 14.6531 13.6191 14.6531C14.0801 14.6531 14.4766 14.5066 14.8086 14.2136C15.1406 13.9207 15.3789 13.4597 15.5234 12.8308ZM18.2598 13.1941L19.9473 13.03C20.0488 13.5964 20.2539 14.0125 20.5625 14.2781C20.875 14.5437 21.2949 14.6765 21.8223 14.6765C22.3809 14.6765 22.8008 14.5593 23.082 14.325C23.3672 14.0867 23.5098 13.8093 23.5098 13.4929C23.5098 13.2898 23.4492 13.1179 23.3281 12.9773C23.2109 12.8328 23.0039 12.7078 22.707 12.6023C22.5039 12.532 22.041 12.407 21.3184 12.2273C20.3887 11.9968 19.7363 11.7136 19.3613 11.3777C18.834 10.905 18.5703 10.3289 18.5703 9.64917C18.5703 9.21167 18.6934 8.80347 18.9395 8.42456C19.1895 8.04175 19.5469 7.75073 20.0117 7.55151C20.4805 7.35229 21.0449 7.25269 21.7051 7.25269C22.7832 7.25269 23.5938 7.48901 24.1367 7.96167C24.6836 8.43433 24.9707 9.06519 24.998 9.85425L23.2637 9.93042C23.1895 9.48901 23.0293 9.17261 22.7832 8.9812C22.541 8.78589 22.1758 8.68823 21.6875 8.68823C21.1836 8.68823 20.7891 8.79175 20.5039 8.99878C20.3203 9.13159 20.2285 9.30933 20.2285 9.53198C20.2285 9.73511 20.3145 9.90894 20.4863 10.0535C20.7051 10.2371 21.2363 10.4285 22.0801 10.6277C22.9238 10.8269 23.5469 11.0339 23.9492 11.2488C24.3555 11.4597 24.6719 11.7507 24.8984 12.1218C25.1289 12.489 25.2441 12.9441 25.2441 13.4871C25.2441 13.9792 25.1074 14.4402 24.834 14.8699C24.5605 15.2996 24.1738 15.6199 23.6738 15.8308C23.1738 16.0378 22.5508 16.1414 21.8047 16.1414C20.7188 16.1414 19.8848 15.8914 19.3027 15.3914C18.7207 14.8875 18.373 14.155 18.2598 13.1941ZM26.7148 15.989V7.39917H32.6035V8.85229H28.4492V10.8855H32.0352V12.3386H28.4492V15.989H26.7148ZM37.8887 15.989H36.2422V9.78394C35.6406 10.3464 34.9316 10.7625 34.1152 11.032V9.53784C34.5449 9.39722 35.0117 9.13159 35.5156 8.74097C36.0195 8.34644 36.3652 7.88745 36.5527 7.36401H37.8887V15.989Z" fill="white"/>
<defs>
<linearGradient id="paint0_linear_40_2521" x1="24.5" y1="1.98901" x2="24.5" y2="21.989" gradientUnits="userSpaceOnUse">
<stop stop-color="#0C343B"/>
<stop offset="1" stop-color="#4195A3"/>
</linearGradient>
</defs>
</svg>
