<svg width="59" height="24" viewBox="0 0 59 24" fill="none" xmlns="http://www.w3.org/2000/svg">
<rect x="2" y="1.98901" width="56" height="20" rx="10" fill="url(#paint0_linear_66_2013)"/>
<rect x="2" y="1.98901" width="56" height="20" rx="10" stroke="#632B2B" stroke-width="3" stroke-linejoin="round"/>
<path d="M10.3066 15.989V7.39917H13.0898C14.1445 7.39917 14.832 7.44214 15.1523 7.52808C15.6445 7.65698 16.0566 7.93823 16.3887 8.37183C16.7207 8.80151 16.8867 9.35815 16.8867 10.0417C16.8867 10.5691 16.791 11.0125 16.5996 11.3718C16.4082 11.7312 16.1641 12.0144 15.8672 12.2214C15.5742 12.4246 15.2754 12.5593 14.9707 12.6257C14.5566 12.7078 13.957 12.7488 13.1719 12.7488H12.041V15.989H10.3066ZM12.041 8.85229V11.2898H12.9902C13.6738 11.2898 14.1309 11.2449 14.3613 11.155C14.5918 11.0652 14.7715 10.9246 14.9004 10.7332C15.0332 10.5417 15.0996 10.3191 15.0996 10.0652C15.0996 9.75269 15.0078 9.49487 14.8242 9.29175C14.6406 9.08862 14.4082 8.96167 14.127 8.91089C13.9199 8.87183 13.5039 8.85229 12.8789 8.85229H12.041ZM18.3105 15.989V7.39917H21.0938C22.1484 7.39917 22.8359 7.44214 23.1562 7.52808C23.6484 7.65698 24.0605 7.93823 24.3926 8.37183C24.7246 8.80151 24.8906 9.35815 24.8906 10.0417C24.8906 10.5691 24.7949 11.0125 24.6035 11.3718C24.4121 11.7312 24.168 12.0144 23.8711 12.2214C23.5781 12.4246 23.2793 12.5593 22.9746 12.6257C22.5605 12.7078 21.9609 12.7488 21.1758 12.7488H20.0449V15.989H18.3105ZM20.0449 8.85229V11.2898H20.9941C21.6777 11.2898 22.1348 11.2449 22.3652 11.155C22.5957 11.0652 22.7754 10.9246 22.9043 10.7332C23.0371 10.5417 23.1035 10.3191 23.1035 10.0652C23.1035 9.75269 23.0117 9.49487 22.8281 9.29175C22.6445 9.08862 22.4121 8.96167 22.1309 8.91089C21.9238 8.87183 21.5078 8.85229 20.8828 8.85229H20.0449ZM33.1699 15.989H31.2832L30.5332 14.0378H27.0996L26.3906 15.989H24.5508L27.8965 7.39917H29.7305L33.1699 15.989ZM29.9766 12.5906L28.793 9.40308L27.6328 12.5906H29.9766ZM34.1016 15.989V7.39917H37.752C38.6699 7.39917 39.3359 7.47729 39.75 7.63354C40.168 7.78589 40.502 8.05933 40.752 8.45386C41.002 8.84839 41.127 9.29956 41.127 9.80737C41.127 10.4519 40.9375 10.9851 40.5586 11.407C40.1797 11.825 39.6133 12.0886 38.8594 12.198C39.2344 12.4167 39.543 12.657 39.7852 12.9187C40.0312 13.1804 40.3613 13.6453 40.7754 14.3132L41.8242 15.989H39.75L38.4961 14.1199C38.0508 13.4519 37.7461 13.032 37.582 12.8601C37.418 12.6843 37.2441 12.5652 37.0605 12.5027C36.877 12.4363 36.5859 12.4031 36.1875 12.4031H35.8359V15.989H34.1016ZM35.8359 11.032H37.1191C37.9512 11.032 38.4707 10.9968 38.6777 10.9265C38.8848 10.8562 39.0469 10.7351 39.1641 10.5632C39.2812 10.3914 39.3398 10.1765 39.3398 9.9187C39.3398 9.62964 39.2617 9.39722 39.1055 9.22144C38.9531 9.04175 38.7363 8.92847 38.4551 8.88159C38.3145 8.86206 37.8926 8.85229 37.1895 8.85229H35.8359V11.032ZM42.7617 7.39917H45.9316C46.6465 7.39917 47.1914 7.45386 47.5664 7.56323C48.0703 7.71167 48.502 7.97534 48.8613 8.35425C49.2207 8.73315 49.4941 9.198 49.6816 9.74878C49.8691 10.2957 49.9629 10.9714 49.9629 11.7761C49.9629 12.4832 49.875 13.0925 49.6992 13.6042C49.4844 14.2292 49.1777 14.7351 48.7793 15.1218C48.4785 15.4148 48.0723 15.6433 47.5605 15.8074C47.1777 15.9285 46.666 15.989 46.0254 15.989H42.7617V7.39917ZM44.4961 8.85229V14.5417H45.791C46.2754 14.5417 46.625 14.5144 46.8398 14.4597C47.1211 14.3894 47.3535 14.2703 47.5371 14.1023C47.7246 13.9343 47.877 13.6589 47.9941 13.2761C48.1113 12.8894 48.1699 12.364 48.1699 11.7C48.1699 11.0359 48.1113 10.5261 47.9941 10.1707C47.877 9.81519 47.7129 9.53784 47.502 9.33862C47.291 9.1394 47.0234 9.00464 46.6992 8.93433C46.457 8.87964 45.9824 8.85229 45.2754 8.85229H44.4961Z" fill="white"/>
<defs>
<linearGradient id="paint0_linear_66_2013" x1="30" y1="1.98901" x2="30" y2="21.989" gradientUnits="userSpaceOnUse">
<stop stop-color="#DE7070"/>
<stop offset="1" stop-color="#632B2B"/>
</linearGradient>
</defs>
</svg>
