<svg width="44" height="24" viewBox="0 0 44 24" fill="none" xmlns="http://www.w3.org/2000/svg">
<rect x="2" y="1.98901" width="41" height="20" rx="10" fill="url(#paint0_linear_85_2092)"/>
<rect x="2" y="1.98901" width="41" height="20" rx="10" stroke="#24004F" stroke-width="3" stroke-linejoin="round"/>
<path d="M10.0195 7.39917H11.7539V12.0515C11.7539 12.7898 11.7754 13.2683 11.8184 13.4871C11.8926 13.8386 12.0684 14.1218 12.3457 14.3367C12.627 14.5476 13.0098 14.6531 13.4941 14.6531C13.9863 14.6531 14.3574 14.5535 14.6074 14.3542C14.8574 14.1511 15.0078 13.9031 15.0586 13.6101C15.1094 13.3171 15.1348 12.8308 15.1348 12.1511V7.39917H16.8691V11.9109C16.8691 12.9421 16.8223 13.6707 16.7285 14.0964C16.6348 14.5222 16.4609 14.8816 16.207 15.1746C15.957 15.4675 15.6211 15.7019 15.1992 15.8777C14.7773 16.0496 14.2266 16.1355 13.5469 16.1355C12.7266 16.1355 12.1035 16.0417 11.6777 15.8542C11.2559 15.6628 10.9219 15.4167 10.6758 15.116C10.4297 14.8113 10.2676 14.4929 10.1895 14.1609C10.0762 13.6687 10.0195 12.9421 10.0195 11.9812V7.39917ZM18.7207 15.989V7.39917H20.4082L23.9238 13.1355V7.39917H25.5352V15.989H23.7949L20.332 10.3875V15.989H18.7207ZM31.3711 12.8308V11.3835H35.1094V14.8054C34.7461 15.157 34.2188 15.4675 33.5273 15.7371C32.8398 16.0027 32.1426 16.1355 31.4355 16.1355C30.5371 16.1355 29.7539 15.948 29.0859 15.573C28.418 15.1941 27.916 14.655 27.5801 13.9558C27.2441 13.2527 27.0762 12.489 27.0762 11.6648C27.0762 10.7703 27.2637 9.97534 27.6387 9.28003C28.0137 8.58472 28.5625 8.05151 29.2852 7.68042C29.8359 7.39526 30.5215 7.25269 31.3418 7.25269C32.4082 7.25269 33.2402 7.47729 33.8379 7.92651C34.4395 8.37183 34.8262 8.98901 34.998 9.77808L33.2754 10.1003C33.1543 9.67847 32.9258 9.34644 32.5898 9.10425C32.2578 8.85815 31.8418 8.73511 31.3418 8.73511C30.584 8.73511 29.9805 8.97534 29.5312 9.45581C29.0859 9.93628 28.8633 10.6492 28.8633 11.5945C28.8633 12.614 29.0898 13.3796 29.543 13.8914C29.9961 14.3992 30.5898 14.6531 31.3242 14.6531C31.6875 14.6531 32.0508 14.5828 32.4141 14.4421C32.7812 14.2976 33.0957 14.1238 33.3574 13.9207V12.8308H31.3711Z" fill="white"/>
<defs>
<linearGradient id="paint0_linear_85_2092" x1="22.5" y1="1.98901" x2="22.5" y2="21.989" gradientUnits="userSpaceOnUse">
<stop stop-color="#C2679F"/>
<stop offset="1" stop-color="#24004F"/>
</linearGradient>
</defs>
</svg>
