<svg width="51" height="24" viewBox="0 0 51 24" fill="none" xmlns="http://www.w3.org/2000/svg">
<rect x="2" y="1.98901" width="48" height="20" rx="10" fill="url(#paint0_linear_40_2546)"/>
<rect x="2" y="1.98901" width="48" height="20" rx="10" stroke="#D8BD84" stroke-width="3" stroke-linejoin="round"/>
<path d="M10.1914 7.39917H13.3613C14.0762 7.39917 14.6211 7.45386 14.9961 7.56323C15.5 7.71167 15.9316 7.97534 16.291 8.35425C16.6504 8.73315 16.9238 9.198 17.1113 9.74878C17.2988 10.2957 17.3926 10.9714 17.3926 11.7761C17.3926 12.4832 17.3047 13.0925 17.1289 13.6042C16.9141 14.2292 16.6074 14.7351 16.209 15.1218C15.9082 15.4148 15.502 15.6433 14.9902 15.8074C14.6074 15.9285 14.0957 15.989 13.4551 15.989H10.1914V7.39917ZM11.9258 8.85229V14.5417H13.2207C13.7051 14.5417 14.0547 14.5144 14.2695 14.4597C14.5508 14.3894 14.7832 14.2703 14.9668 14.1023C15.1543 13.9343 15.3066 13.6589 15.4238 13.2761C15.541 12.8894 15.5996 12.364 15.5996 11.7C15.5996 11.0359 15.541 10.5261 15.4238 10.1707C15.3066 9.81519 15.1426 9.53784 14.9316 9.33862C14.7207 9.1394 14.4531 9.00464 14.1289 8.93433C13.8867 8.87964 13.4121 8.85229 12.7051 8.85229H11.9258ZM26.6152 15.989H24.7285L23.9785 14.0378H20.5449L19.8359 15.989H17.9961L21.3418 7.39917H23.1758L26.6152 15.989ZM23.4219 12.5906L22.2383 9.40308L21.0781 12.5906H23.4219ZM26.668 15.989L29.6035 11.5066L26.9434 7.39917H28.9707L30.6934 10.1589L32.3809 7.39917H34.3906L31.7188 11.571L34.6543 15.989H32.5625L30.6582 13.0183L28.748 15.989H26.668ZM34.6719 15.989L37.6074 11.5066L34.9473 7.39917H36.9746L38.6973 10.1589L40.3848 7.39917H42.3945L39.7227 11.571L42.6582 15.989H40.5664L38.6621 13.0183L36.752 15.989H34.6719Z" fill="white"/>
<defs>
<linearGradient id="paint0_linear_40_2546" x1="26" y1="1.98901" x2="26" y2="21.989" gradientUnits="userSpaceOnUse">
<stop stop-color="#3F1741"/>
<stop offset="1" stop-color="#D8BD84"/>
</linearGradient>
</defs>
</svg>
