<svg width="56" height="24" viewBox="0 0 56 24" fill="none" xmlns="http://www.w3.org/2000/svg">
<rect x="2" y="1.98901" width="53" height="20" rx="10" fill="url(#paint0_linear_45_4260)"/>
<rect x="2" y="1.98901" width="53" height="20" rx="10" stroke="#00005B" stroke-width="3" stroke-linejoin="round"/>
<path d="M14.0215 12.8308V11.3835H17.7598V14.8054C17.3965 15.157 16.8691 15.4675 16.1777 15.7371C15.4902 16.0027 14.793 16.1355 14.0859 16.1355C13.1875 16.1355 12.4043 15.948 11.7363 15.573C11.0684 15.1941 10.5664 14.655 10.2305 13.9558C9.89453 13.2527 9.72656 12.489 9.72656 11.6648C9.72656 10.7703 9.91406 9.97534 10.2891 9.28003C10.6641 8.58472 11.2129 8.05151 11.9355 7.68042C12.4863 7.39526 13.1719 7.25269 13.9922 7.25269C15.0586 7.25269 15.8906 7.47729 16.4883 7.92651C17.0898 8.37183 17.4766 8.98901 17.6484 9.77808L15.9258 10.1003C15.8047 9.67847 15.5762 9.34644 15.2402 9.10425C14.9082 8.85815 14.4922 8.73511 13.9922 8.73511C13.2344 8.73511 12.6309 8.97534 12.1816 9.45581C11.7363 9.93628 11.5137 10.6492 11.5137 11.5945C11.5137 12.614 11.7402 13.3796 12.1934 13.8914C12.6465 14.3992 13.2402 14.6531 13.9746 14.6531C14.3379 14.6531 14.7012 14.5828 15.0645 14.4421C15.4316 14.2976 15.7461 14.1238 16.0078 13.9207V12.8308H14.0215ZM19.377 15.989V7.39917H25.2656V8.85229H21.1113V10.8855H24.6973V12.3386H21.1113V15.989H19.377ZM26.7012 15.989V7.39917H29.4844C30.5391 7.39917 31.2266 7.44214 31.5469 7.52808C32.0391 7.65698 32.4512 7.93823 32.7832 8.37183C33.1152 8.80151 33.2812 9.35815 33.2812 10.0417C33.2812 10.5691 33.1855 11.0125 32.9941 11.3718C32.8027 11.7312 32.5586 12.0144 32.2617 12.2214C31.9688 12.4246 31.6699 12.5593 31.3652 12.6257C30.9512 12.7078 30.3516 12.7488 29.5664 12.7488H28.4355V15.989H26.7012ZM28.4355 8.85229V11.2898H29.3848C30.0684 11.2898 30.5254 11.2449 30.7559 11.155C30.9863 11.0652 31.166 10.9246 31.2949 10.7332C31.4277 10.5417 31.4941 10.3191 31.4941 10.0652C31.4941 9.75269 31.4023 9.49487 31.2188 9.29175C31.0352 9.08862 30.8027 8.96167 30.5215 8.91089C30.3145 8.87183 29.8984 8.85229 29.2734 8.85229H28.4355ZM36.6387 15.989V8.85229H34.0898V7.39917H40.916V8.85229H38.373V15.989H36.6387ZM45.8906 15.989H44.2441V9.78394C43.6426 10.3464 42.9336 10.7625 42.1172 11.032V9.53784C42.5469 9.39722 43.0137 9.13159 43.5176 8.74097C44.0215 8.34644 44.3672 7.88745 44.5547 7.36401H45.8906V15.989Z" fill="white"/>
<defs>
<linearGradient id="paint0_linear_45_4260" x1="28.5" y1="1.98901" x2="28.5" y2="21.989" gradientUnits="userSpaceOnUse">
<stop stop-color="#00005B"/>
<stop offset="1" stop-color="#EDC1B8"/>
</linearGradient>
</defs>
</svg>
