<svg width="41" height="24" viewBox="0 0 41 24" fill="none" xmlns="http://www.w3.org/2000/svg">
<rect x="2" y="1.98901" width="38" height="20" rx="10" fill="url(#paint0_linear_42_2729)"/>
<rect x="2" y="1.98901" width="38" height="20" rx="10" stroke="#6BD1AC" stroke-width="3" stroke-linejoin="round"/>
<path d="M10.2129 15.989V7.39917H16.1016V8.85229H11.9473V10.8855H15.5332V12.3386H11.9473V15.989H10.2129ZM17.5371 15.989V7.39917H23.9062V8.85229H19.2715V10.7566H23.584V12.2039H19.2715V14.5417H24.0703V15.989H17.5371ZM25.1016 13.1941L26.7891 13.03C26.8906 13.5964 27.0957 14.0125 27.4043 14.2781C27.7168 14.5437 28.1367 14.6765 28.6641 14.6765C29.2227 14.6765 29.6426 14.5593 29.9238 14.325C30.209 14.0867 30.3516 13.8093 30.3516 13.4929C30.3516 13.2898 30.291 13.1179 30.1699 12.9773C30.0527 12.8328 29.8457 12.7078 29.5488 12.6023C29.3457 12.532 28.8828 12.407 28.1602 12.2273C27.2305 11.9968 26.5781 11.7136 26.2031 11.3777C25.6758 10.905 25.4121 10.3289 25.4121 9.64917C25.4121 9.21167 25.5352 8.80347 25.7812 8.42456C26.0312 8.04175 26.3887 7.75073 26.8535 7.55151C27.3223 7.35229 27.8867 7.25269 28.5469 7.25269C29.625 7.25269 30.4355 7.48901 30.9785 7.96167C31.5254 8.43433 31.8125 9.06519 31.8398 9.85425L30.1055 9.93042C30.0312 9.48901 29.8711 9.17261 29.625 8.9812C29.3828 8.78589 29.0176 8.68823 28.5293 8.68823C28.0254 8.68823 27.6309 8.79175 27.3457 8.99878C27.1621 9.13159 27.0703 9.30933 27.0703 9.53198C27.0703 9.73511 27.1562 9.90894 27.3281 10.0535C27.5469 10.2371 28.0781 10.4285 28.9219 10.6277C29.7656 10.8269 30.3887 11.0339 30.791 11.2488C31.1973 11.4597 31.5137 11.7507 31.7402 12.1218C31.9707 12.489 32.0859 12.9441 32.0859 13.4871C32.0859 13.9792 31.9492 14.4402 31.6758 14.8699C31.4023 15.2996 31.0156 15.6199 30.5156 15.8308C30.0156 16.0378 29.3926 16.1414 28.6465 16.1414C27.5605 16.1414 26.7266 15.8914 26.1445 15.3914C25.5625 14.8875 25.2148 14.155 25.1016 13.1941Z" fill="white"/>
<defs>
<linearGradient id="paint0_linear_42_2729" x1="21" y1="1.98901" x2="21" y2="21.989" gradientUnits="userSpaceOnUse">
<stop stop-color="#6BD1AC"/>
<stop offset="1" stop-color="#710943"/>
</linearGradient>
</defs>
</svg>
