<svg width="107" height="36" viewBox="0 0 107 36" fill="none" xmlns="http://www.w3.org/2000/svg">
<rect x="2" y="1.98901" width="104" height="32" rx="10" fill="url(#paint0_linear_40_2571)"/>
<rect x="2" y="1.98901" width="104" height="32" rx="10" stroke="#002C47" stroke-width="3" stroke-linejoin="round"/>
<path d="M41.8594 6.39917H45.0293C45.7441 6.39917 46.2891 6.45386 46.6641 6.56323C47.168 6.71167 47.5996 6.97534 47.959 7.35425C48.3184 7.73315 48.5918 8.198 48.7793 8.74878C48.9668 9.29565 49.0605 9.97144 49.0605 10.7761C49.0605 11.4832 48.9727 12.0925 48.7969 12.6042C48.582 13.2292 48.2754 13.7351 47.877 14.1218C47.5762 14.4148 47.1699 14.6433 46.6582 14.8074C46.2754 14.9285 45.7637 14.989 45.123 14.989H41.8594V6.39917ZM43.5938 7.85229V13.5417H44.8887C45.373 13.5417 45.7227 13.5144 45.9375 13.4597C46.2188 13.3894 46.4512 13.2703 46.6348 13.1023C46.8223 12.9343 46.9746 12.6589 47.0918 12.2761C47.209 11.8894 47.2676 11.364 47.2676 10.7C47.2676 10.0359 47.209 9.52612 47.0918 9.17065C46.9746 8.81519 46.8105 8.53784 46.5996 8.33862C46.3887 8.1394 46.1211 8.00464 45.7969 7.93433C45.5547 7.87964 45.0801 7.85229 44.373 7.85229H43.5938ZM50.5547 14.989V6.39917H52.2422L55.7578 12.1355V6.39917H57.3691V14.989H55.6289L52.166 9.38745V14.989H50.5547ZM66.9551 14.989H65.0684L64.3184 13.0378H60.8848L60.1758 14.989H58.3359L61.6816 6.39917H63.5156L66.9551 14.989ZM63.7617 11.5906L62.5781 8.40308L61.418 11.5906H63.7617ZM14.0625 25.8308V24.3835H17.8008V27.8054C17.4375 28.157 16.9102 28.4675 16.2188 28.7371C15.5312 29.0027 14.834 29.1355 14.127 29.1355C13.2285 29.1355 12.4453 28.948 11.7773 28.573C11.1094 28.1941 10.6074 27.655 10.2715 26.9558C9.93555 26.2527 9.76758 25.489 9.76758 24.6648C9.76758 23.7703 9.95508 22.9753 10.3301 22.28C10.7051 21.5847 11.2539 21.0515 11.9766 20.6804C12.5273 20.3953 13.2129 20.2527 14.0332 20.2527C15.0996 20.2527 15.9316 20.4773 16.5293 20.9265C17.1309 21.3718 17.5176 21.989 17.6895 22.7781L15.9668 23.1003C15.8457 22.6785 15.6172 22.3464 15.2812 22.1042C14.9492 21.8582 14.5332 21.7351 14.0332 21.7351C13.2754 21.7351 12.6719 21.9753 12.2227 22.4558C11.7773 22.9363 11.5547 23.6492 11.5547 24.5945C11.5547 25.614 11.7812 26.3796 12.2344 26.8914C12.6875 27.3992 13.2812 27.6531 14.0156 27.6531C14.3789 27.6531 14.7422 27.5828 15.1055 27.4421C15.4727 27.2976 15.7871 27.1238 16.0488 26.9207V25.8308H14.0625ZM19.4531 28.989V20.4695H21.1875V27.5417H25.5V28.989H19.4531ZM27.8965 28.989V25.3738L24.75 20.3992H26.7832L28.8047 23.7976L30.7852 20.3992H32.7832L29.625 25.3855V28.989H27.8965ZM39.1406 25.8308L40.8223 26.364C40.5645 27.3015 40.1348 27.9988 39.5332 28.4558C38.9355 28.9089 38.1758 29.1355 37.2539 29.1355C36.1133 29.1355 35.1758 28.7468 34.4414 27.9695C33.707 27.1882 33.3398 26.1218 33.3398 24.7703C33.3398 23.3406 33.709 22.2312 34.4473 21.4421C35.1855 20.6492 36.1562 20.2527 37.3594 20.2527C38.4102 20.2527 39.2637 20.5632 39.9199 21.1843C40.3105 21.5515 40.6035 22.0789 40.7988 22.7664L39.082 23.1765C38.9805 22.7312 38.7676 22.3796 38.4434 22.1218C38.123 21.864 37.7324 21.7351 37.2715 21.7351C36.6348 21.7351 36.1172 21.9636 35.7188 22.4207C35.3242 22.8777 35.127 23.6179 35.127 24.6414C35.127 25.7273 35.3223 26.5007 35.7129 26.9617C36.1035 27.4226 36.6113 27.6531 37.2363 27.6531C37.6973 27.6531 38.0938 27.5066 38.4258 27.2136C38.7578 26.9207 38.9961 26.4597 39.1406 25.8308ZM41.9648 24.7468C41.9648 23.8718 42.0957 23.1375 42.3574 22.5437C42.5527 22.1062 42.8184 21.7136 43.1543 21.366C43.4941 21.0183 43.8652 20.7605 44.2676 20.5925C44.8027 20.366 45.4199 20.2527 46.1191 20.2527C47.3848 20.2527 48.3965 20.6453 49.1543 21.4304C49.916 22.2156 50.2969 23.3074 50.2969 24.7058C50.2969 26.0925 49.9199 27.1785 49.166 27.9636C48.4121 28.7449 47.4043 29.1355 46.1426 29.1355C44.8652 29.1355 43.8496 28.7468 43.0957 27.9695C42.3418 27.1882 41.9648 26.114 41.9648 24.7468ZM43.752 24.6882C43.752 25.6609 43.9766 26.3992 44.4258 26.9031C44.875 27.4031 45.4453 27.6531 46.1367 27.6531C46.8281 27.6531 47.3945 27.405 47.8359 26.9089C48.2812 26.4089 48.5039 25.6609 48.5039 24.6648C48.5039 23.6804 48.2871 22.946 47.8535 22.4617C47.4238 21.9773 46.8516 21.7351 46.1367 21.7351C45.4219 21.7351 44.8457 21.9812 44.4082 22.4734C43.9707 22.9617 43.752 23.7 43.752 24.6882ZM51.2168 26.1941L52.9043 26.03C53.0059 26.5964 53.2109 27.0125 53.5195 27.2781C53.832 27.5437 54.252 27.6765 54.7793 27.6765C55.3379 27.6765 55.7578 27.5593 56.0391 27.325C56.3242 27.0867 56.4668 26.8093 56.4668 26.4929C56.4668 26.2898 56.4062 26.1179 56.2852 25.9773C56.168 25.8328 55.9609 25.7078 55.6641 25.6023C55.4609 25.532 54.998 25.407 54.2754 25.2273C53.3457 24.9968 52.6934 24.7136 52.3184 24.3777C51.791 23.905 51.5273 23.3289 51.5273 22.6492C51.5273 22.2117 51.6504 21.8035 51.8965 21.4246C52.1465 21.0417 52.5039 20.7507 52.9688 20.5515C53.4375 20.3523 54.002 20.2527 54.6621 20.2527C55.7402 20.2527 56.5508 20.489 57.0938 20.9617C57.6406 21.4343 57.9277 22.0652 57.9551 22.8542L56.2207 22.9304C56.1465 22.489 55.9863 22.1726 55.7402 21.9812C55.498 21.7859 55.1328 21.6882 54.6445 21.6882C54.1406 21.6882 53.7461 21.7917 53.4609 21.9988C53.2773 22.1316 53.1855 22.3093 53.1855 22.532C53.1855 22.7351 53.2715 22.9089 53.4434 23.0535C53.6621 23.2371 54.1934 23.4285 55.0371 23.6277C55.8809 23.8269 56.5039 24.0339 56.9062 24.2488C57.3125 24.4597 57.6289 24.7507 57.8555 25.1218C58.0859 25.489 58.2012 25.9441 58.2012 26.4871C58.2012 26.9792 58.0645 27.4402 57.791 27.8699C57.5176 28.2996 57.1309 28.6199 56.6309 28.8308C56.1309 29.0378 55.5078 29.1414 54.7617 29.1414C53.6758 29.1414 52.8418 28.8914 52.2598 28.3914C51.6777 27.8875 51.3301 27.155 51.2168 26.1941ZM61.916 28.989V25.3738L58.7695 20.3992H60.8027L62.8242 23.7976L64.8047 20.3992H66.8027L63.6445 25.3855V28.989H61.916ZM67.7109 28.989V20.4695H69.4453V27.5417H73.7578V28.989H67.7109ZM82.7461 28.989H80.8594L80.1094 27.0378H76.6758L75.9668 28.989H74.127L77.4727 20.3992H79.3066L82.7461 28.989ZM79.5527 25.5906L78.3691 22.4031L77.209 25.5906H79.5527ZM83.2324 26.1941L84.9199 26.03C85.0215 26.5964 85.2266 27.0125 85.5352 27.2781C85.8477 27.5437 86.2676 27.6765 86.7949 27.6765C87.3535 27.6765 87.7734 27.5593 88.0547 27.325C88.3398 27.0867 88.4824 26.8093 88.4824 26.4929C88.4824 26.2898 88.4219 26.1179 88.3008 25.9773C88.1836 25.8328 87.9766 25.7078 87.6797 25.6023C87.4766 25.532 87.0137 25.407 86.291 25.2273C85.3613 24.9968 84.709 24.7136 84.334 24.3777C83.8066 23.905 83.543 23.3289 83.543 22.6492C83.543 22.2117 83.666 21.8035 83.9121 21.4246C84.1621 21.0417 84.5195 20.7507 84.9844 20.5515C85.4531 20.3523 86.0176 20.2527 86.6777 20.2527C87.7559 20.2527 88.5664 20.489 89.1094 20.9617C89.6562 21.4343 89.9434 22.0652 89.9707 22.8542L88.2363 22.9304C88.1621 22.489 88.002 22.1726 87.7559 21.9812C87.5137 21.7859 87.1484 21.6882 86.6602 21.6882C86.1562 21.6882 85.7617 21.7917 85.4766 21.9988C85.293 22.1316 85.2012 22.3093 85.2012 22.532C85.2012 22.7351 85.2871 22.9089 85.459 23.0535C85.6777 23.2371 86.209 23.4285 87.0527 23.6277C87.8965 23.8269 88.5195 24.0339 88.9219 24.2488C89.3281 24.4597 89.6445 24.7507 89.8711 25.1218C90.1016 25.489 90.2168 25.9441 90.2168 26.4871C90.2168 26.9792 90.0801 27.4402 89.8066 27.8699C89.5332 28.2996 89.1465 28.6199 88.6465 28.8308C88.1465 29.0378 87.5234 29.1414 86.7773 29.1414C85.6914 29.1414 84.8574 28.8914 84.2754 28.3914C83.6934 27.8875 83.3457 27.155 83.2324 26.1941ZM91.6758 28.989V20.3992H98.0449V21.8523H93.4102V23.7566H97.7227V25.2039H93.4102V27.5417H98.209V28.989H91.6758Z" fill="white"/>
<defs>
<linearGradient id="paint0_linear_40_2571" x1="54" y1="1.98901" x2="54" y2="33.989" gradientUnits="userSpaceOnUse">
<stop stop-color="#002C4A"/>
<stop offset="1" stop-color="#1C89D1"/>
</linearGradient>
</defs>
</svg>
